# https://github.com/mikedh/trimesh
v -0.00799847 0.00703875 -0.00748452
v -0.00900000 0.00644305 -0.00685415
v -0.00900000 0.00709737 -0.00617011
v -0.00210000 -0.00000001 -0.01286528
v -0.00199682 -0.00065017 -0.01286528
v -0.00327786 -0.00063471 -0.01259996
v 0.00160870 -0.00134986 -0.01286528
v 0.00197336 -0.00071825 -0.01286528
v 0.00198043 -0.00193813 -0.01273726
v 0.00291052 0.00812499 -0.00975781
v 0.00328019 0.00812499 -0.00963939
v 0.00327786 0.00767489 -0.01000354
v 0.00606004 0.00812499 -0.00817606
v 0.00696407 0.00812499 -0.00741749
v 0.00691387 0.00756134 -0.00803754
v 0.00847863 0.00812499 -0.00561250
v 0.00900000 0.00812499 -0.00472476
v 0.00900000 0.00767942 -0.00542362
v 0.00847863 -0.00812501 -0.00561250
v 0.00900000 -0.00767944 -0.00542362
v 0.00900000 -0.00812501 -0.00472476
v 0.00777391 -0.00812501 -0.00655910
v 0.00730631 -0.00812501 -0.00707890
v 0.00799847 -0.00775359 -0.00673725
v -0.00777391 -0.00812501 -0.00655910
v -0.00799847 -0.00775359 -0.00673725
v -0.00696406 -0.00812501 -0.00741749
v -0.00900000 -0.00709739 -0.00617011
v -0.00838953 -0.00812501 -0.00574567
v -0.00900000 -0.00767944 -0.00542362
v -0.00847863 -0.00812501 -0.00561250
v -0.00900000 -0.00812501 -0.00472476
v -0.00401946 -0.00812501 -0.00935418
v -0.00454124 -0.00743151 -0.00968743
v -0.00328018 -0.00812501 -0.00963939
v -0.00327786 -0.00767491 -0.01000354
v -0.00291051 -0.00812501 -0.00975781
v -0.00176220 -0.00812501 -0.01002996
v -0.00198043 -0.00783859 -0.01021612
v -0.00066244 -0.00792086 -0.01032296
v -0.00059006 -0.00812501 -0.01016697
v 0.00066244 -0.00792086 -0.01032296
v 0.00059006 -0.00812501 -0.01016697
v 0.00198043 -0.00783859 -0.01021612
v 0.00176220 -0.00812501 -0.01002996
v 0.00327786 -0.00767491 -0.01000354
v 0.00328019 -0.00812501 -0.00963939
v 0.00291052 -0.00812501 -0.00975781
v 0.00454124 -0.00743151 -0.00968743
v 0.00454506 -0.00812501 -0.00910943
v 0.00401947 -0.00812501 -0.00935418
v 0.00575745 -0.00711093 -0.00927109
v 0.00575745 -0.00800542 -0.00850744
v 0.00507406 -0.00812501 -0.00882454
v 0.00691387 -0.00756136 -0.00803754
v 0.00696407 -0.00812501 -0.00741749
v 0.00606004 -0.00812501 -0.00817606
v 0.00799847 -0.00703877 -0.00748452
v 0.00900000 -0.00709739 -0.00617011
v 0.00838953 0.00812499 -0.00574567
v 0.00900000 0.00709737 -0.00617011
v 0.00777391 0.00812499 -0.00655910
v 0.00401947 0.00812499 -0.00935418
v 0.00454124 0.00743149 -0.00968743
v 0.00454506 0.00812499 -0.00910943
v 0.00507406 0.00812499 -0.00882454
v 0.00176220 0.00812499 -0.01002996
v -0.00198043 0.00783857 -0.01021612
v -0.00059006 0.00812499 -0.01016697
v -0.00066244 0.00792084 -0.01032296
v 0.00059006 0.00812499 -0.01016697
v 0.00066244 0.00792084 -0.01032296
v 0.00198043 0.00783857 -0.01021612
v -0.00327786 0.00767489 -0.01000354
v -0.00291051 0.00812499 -0.00975781
v -0.00176220 0.00812499 -0.01002996
v -0.00454124 0.00743149 -0.00968743
v -0.00401946 0.00812499 -0.00935418
v -0.00328018 0.00812499 -0.00963939
v -0.00575745 0.00711091 -0.00927109
v -0.00507406 0.00812499 -0.00882454
v -0.00454506 0.00812499 -0.00910943
v -0.00575745 0.00800540 -0.00850744
v -0.00691386 0.00756134 -0.00803754
v -0.00606004 0.00812499 -0.00817606
v -0.00696406 0.00812499 -0.00741749
v -0.00730630 0.00812499 -0.00707890
v -0.00799847 0.00775357 -0.00673725
v -0.00777391 0.00812499 -0.00655910
v -0.00847863 0.00812499 -0.00561250
v 0.00105000 -0.00181866 -0.01286528
v 0.00066244 -0.00324194 -0.01260785
v 0.00067295 -0.00198927 -0.01286528
v 0.00067841 -0.00198741 -0.01286528
v 0.00198043 -0.00320827 -0.01247727
v -0.00066244 -0.00324194 -0.01260785
v -0.00036466 -0.00206811 -0.01286528
v 0.00036466 -0.00206811 -0.01286528
v -0.00198043 -0.00320827 -0.01247727
v -0.00067841 -0.00198741 -0.01286528
v -0.00067294 -0.00198927 -0.01286528
v -0.00327786 -0.00189765 -0.01247203
v -0.00197335 -0.00071825 -0.01286528
v -0.00198043 -0.00193813 -0.01273726
v -0.00160869 -0.00134986 -0.01286528
v -0.00105000 -0.00181866 -0.01286528
v -0.00198043 0.00193811 -0.01273726
v -0.00067841 0.00198739 -0.01286528
v -0.00105000 0.00181864 -0.01286528
v 0.00066244 0.00324192 -0.01260785
v 0.00036466 0.00206809 -0.01286528
v -0.00066244 0.00324192 -0.01260785
v -0.00036466 0.00206809 -0.01286528
v 0.00198043 0.00320825 -0.01247727
v 0.00067841 0.00198739 -0.01286528
v 0.00067295 0.00198925 -0.01286528
v 0.00198043 0.00193811 -0.01273726
v 0.00160870 0.00134984 -0.01286528
v 0.00105000 0.00181864 -0.01286528
v 0.00327786 0.00063469 -0.01259996
v 0.00199682 0.00065015 -0.01286528
v 0.00197336 0.00071823 -0.01286528
v 0.00327786 0.00189763 -0.01247203
v -0.00900000 -0.00644307 -0.00685415
v -0.00799847 -0.00703877 -0.00748452
v -0.00691386 -0.00756136 -0.00803754
v -0.00606004 -0.00812501 -0.00817606
v -0.00575745 -0.00800542 -0.00850744
v -0.00507406 -0.00812501 -0.00882454
v -0.00900000 0.00767942 -0.00542362
v -0.00900000 0.00812499 -0.00472476
v -0.00900000 -0.00572315 -0.00746876
v -0.00799847 -0.00625229 -0.00815596
v -0.00691386 -0.00671649 -0.00875882
v -0.00575745 -0.00711093 -0.00927109
v -0.00454506 -0.00812501 -0.00910943
v -0.00900000 0.00572313 -0.00746876
v -0.00799847 0.00625227 -0.00815596
v -0.00691386 0.00671647 -0.00875882
v -0.00900000 -0.00141508 -0.00930950
v -0.00900000 -0.00047330 -0.00940490
v -0.00799847 -0.00154591 -0.01016689
v -0.00799847 -0.00051706 -0.01027111
v -0.00691386 -0.00166068 -0.01091906
v -0.00691386 -0.00055545 -0.01103101
v -0.00575745 -0.00175821 -0.01155819
v -0.00575745 -0.00058807 -0.01167671
v -0.00454124 -0.00183747 -0.01207764
v -0.00454124 -0.00061458 -0.01220152
v -0.00900000 0.00047328 -0.00940490
v -0.00799847 0.00051704 -0.01027111
v -0.00691386 0.00055543 -0.01103101
v -0.00575745 0.00058805 -0.01167671
v -0.00454124 0.00061456 -0.01220152
v -0.00327786 0.00063469 -0.01259996
v -0.00197335 0.00071823 -0.01286528
v -0.00900000 0.00141506 -0.00930950
v -0.00799847 0.00154589 -0.01016689
v -0.00691386 0.00166066 -0.01091906
v -0.00575745 0.00175819 -0.01155819
v -0.00454124 0.00183745 -0.01207764
v -0.00327786 0.00189763 -0.01247203
v -0.00160869 0.00134984 -0.01286528
v -0.00900000 -0.00234244 -0.00911968
v -0.00799847 -0.00255901 -0.00995952
v -0.00691386 -0.00274900 -0.01069629
v -0.00575745 -0.00291044 -0.01132234
v -0.00454124 -0.00304165 -0.01183116
v -0.00327786 -0.00314127 -0.01221748
v -0.00900000 0.00234242 -0.00911968
v -0.00799847 0.00255899 -0.00995952
v -0.00691386 0.00274898 -0.01069629
v -0.00575745 0.00291042 -0.01132234
v -0.00454124 0.00304163 -0.01183116
v -0.00327786 0.00314125 -0.01221748
v -0.00198043 0.00320825 -0.01247727
v -0.00067294 0.00198925 -0.01286528
v -0.00900000 -0.00494495 -0.00800768
v -0.00799847 -0.00540214 -0.00874471
v -0.00691386 -0.00580323 -0.00939129
v -0.00575745 -0.00614403 -0.00994070
v -0.00454124 -0.00642102 -0.01038723
v -0.00327786 -0.00663133 -0.01072626
v -0.00198043 -0.00677275 -0.01095425
v -0.00066244 -0.00684384 -0.01106884
v 0.00066244 -0.00684384 -0.01106884
v 0.00198043 -0.00677275 -0.01095425
v -0.00900000 -0.00411641 -0.00846544
v -0.00799847 -0.00449699 -0.00924479
v -0.00691386 -0.00483087 -0.00992850
v -0.00575745 -0.00511457 -0.01050945
v -0.00454124 -0.00534516 -0.01098163
v -0.00327786 -0.00552022 -0.01134012
v -0.00198043 -0.00563795 -0.01158121
v -0.00066244 -0.00569712 -0.01170238
v 0.00066244 -0.00569712 -0.01170238
v 0.00198043 -0.00563795 -0.01158121
v -0.00900000 -0.00324595 -0.00883737
v -0.00799847 -0.00354605 -0.00965111
v -0.00691386 -0.00380933 -0.01036498
v -0.00575745 -0.00403304 -0.01097157
v -0.00454124 -0.00421486 -0.01146458
v -0.00327786 -0.00435291 -0.01183889
v -0.00198043 -0.00444574 -0.01209061
v -0.00066244 -0.00449240 -0.01221713
v 0.00066244 -0.00449240 -0.01221713
v 0.00198043 -0.00444574 -0.01209061
v 0.00210000 -0.00000001 -0.01286528
v 0.00327786 -0.00063471 -0.01259996
v 0.00327786 -0.00189765 -0.01247203
v 0.00327786 -0.00314127 -0.01221748
v 0.00327786 -0.00435291 -0.01183889
v 0.00327786 -0.00552022 -0.01134012
v 0.00327786 -0.00663133 -0.01072626
v 0.00327786 0.00314125 -0.01221748
v -0.00900000 0.00324593 -0.00883737
v -0.00799847 0.00354603 -0.00965111
v -0.00691386 0.00380931 -0.01036498
v -0.00575745 0.00403302 -0.01097157
v -0.00454124 0.00421484 -0.01146458
v -0.00327786 0.00435289 -0.01183889
v -0.00198043 0.00444572 -0.01209061
v -0.00066244 0.00449238 -0.01221713
v 0.00066244 0.00449238 -0.01221713
v 0.00198043 0.00444572 -0.01209061
v 0.00327786 0.00435289 -0.01183889
v -0.00900000 0.00411639 -0.00846544
v -0.00799847 0.00449697 -0.00924479
v -0.00691386 0.00483085 -0.00992850
v -0.00575745 0.00511456 -0.01050945
v -0.00454124 0.00534514 -0.01098163
v -0.00327786 0.00552020 -0.01134012
v -0.00198043 0.00563793 -0.01158121
v -0.00066244 0.00569710 -0.01170238
v 0.00066244 0.00569710 -0.01170238
v 0.00198043 0.00563793 -0.01158121
v 0.00327786 0.00552020 -0.01134012
v -0.00900000 0.00494494 -0.00800768
v -0.00799847 0.00540212 -0.00874471
v -0.00691386 0.00580321 -0.00939129
v -0.00575745 0.00614401 -0.00994070
v -0.00454124 0.00642100 -0.01038723
v -0.00327786 0.00663131 -0.01072626
v -0.00198043 0.00677273 -0.01095425
v -0.00066244 0.00684382 -0.01106884
v 0.00066244 0.00684382 -0.01106884
v 0.00198043 0.00677273 -0.01095425
v 0.00327786 0.00663131 -0.01072626
v 0.00454124 0.00642100 -0.01038723
v 0.00454124 0.00534514 -0.01098163
v 0.00454124 0.00421484 -0.01146458
v 0.00454124 0.00304163 -0.01183116
v 0.00454124 0.00183745 -0.01207764
v 0.00454124 0.00061456 -0.01220152
v 0.00454124 -0.00061458 -0.01220152
v 0.00454124 -0.00183747 -0.01207764
v 0.00454124 -0.00304165 -0.01183116
v 0.00454124 -0.00421486 -0.01146458
v 0.00454124 -0.00534516 -0.01098163
v 0.00454124 -0.00642102 -0.01038723
v 0.00575745 0.00800540 -0.00850744
v 0.00575745 0.00711091 -0.00927109
v 0.00575745 0.00614401 -0.00994070
v 0.00575745 0.00511456 -0.01050945
v 0.00575745 0.00403302 -0.01097157
v 0.00575745 0.00291042 -0.01132234
v 0.00575745 0.00175819 -0.01155819
v 0.00575745 0.00058805 -0.01167671
v 0.00575745 -0.00058807 -0.01167671
v 0.00575745 -0.00175821 -0.01155819
v 0.00575745 -0.00291044 -0.01132234
v 0.00575745 -0.00403304 -0.01097157
v 0.00575745 -0.00511457 -0.01050945
v 0.00575745 -0.00614403 -0.00994070
v 0.00691387 0.00671647 -0.00875882
v 0.00691387 0.00580321 -0.00939129
v 0.00691387 0.00483085 -0.00992850
v 0.00691387 0.00380931 -0.01036498
v 0.00691387 0.00274898 -0.01069629
v 0.00691387 0.00166066 -0.01091906
v 0.00691387 0.00055543 -0.01103101
v 0.00691387 -0.00055545 -0.01103101
v 0.00691387 -0.00166068 -0.01091906
v 0.00691387 -0.00274900 -0.01069629
v 0.00691387 -0.00380933 -0.01036498
v 0.00691387 -0.00483087 -0.00992850
v 0.00691387 -0.00580323 -0.00939129
v 0.00691387 -0.00671649 -0.00875882
v 0.00799847 0.00775357 -0.00673725
v 0.00799847 0.00703875 -0.00748452
v 0.00799847 0.00625227 -0.00815596
v 0.00799847 0.00540212 -0.00874471
v 0.00799847 0.00449697 -0.00924479
v 0.00799847 0.00354603 -0.00965111
v 0.00799847 0.00255899 -0.00995952
v 0.00799847 0.00154589 -0.01016689
v 0.00799847 0.00051704 -0.01027111
v 0.00799847 -0.00051706 -0.01027111
v 0.00799847 -0.00154591 -0.01016689
v 0.00799847 -0.00255901 -0.00995952
v 0.00799847 -0.00354605 -0.00965111
v 0.00799847 -0.00449699 -0.00924479
v 0.00799847 -0.00540214 -0.00874471
v 0.00799847 -0.00625229 -0.00815596
v 0.00900000 0.00644305 -0.00685415
v 0.00900000 0.00572313 -0.00746876
v 0.00900000 0.00494494 -0.00800768
v 0.00900000 0.00411639 -0.00846544
v 0.00900000 0.00324593 -0.00883737
v 0.00900000 0.00234242 -0.00911968
v 0.00900000 0.00141506 -0.00930950
v 0.00900000 0.00047328 -0.00940490
v 0.00900000 -0.00047330 -0.00940490
v 0.00900000 -0.00141508 -0.00930950
v 0.00900000 -0.00234244 -0.00911968
v 0.00900000 -0.00324595 -0.00883737
v 0.00900000 -0.00411641 -0.00846544
v 0.00900000 -0.00494495 -0.00800768
v 0.00900000 -0.00572315 -0.00746876
v 0.00900000 -0.00644307 -0.00685415
v 0.00900000 0.00917252 -0.00003601
v 0.00900000 0.00915780 -0.00066791
v 0.00900000 0.00909025 -0.00151501
v 0.00900000 0.00841018 -0.00416413
v 0.00900000 -0.00907025 -0.00168039
v 0.00900000 -0.00914706 -0.00086615
v 0.00900000 -0.00917254 -0.00003601
v 0.00900000 0.00864973 -0.00355228
v 0.00900000 0.00884508 -0.00288819
v 0.00900000 0.00896849 -0.00232512
v 0.00900000 -0.00877541 -0.00314897
v 0.00900000 -0.00892392 -0.00254752
v 0.00900000 -0.00903712 -0.00191897
v 0.00900000 -0.00858969 -0.00372197
v 0.00900000 -0.00836412 -0.00426490
v -0.00900000 0.00858967 -0.00372197
v -0.00900000 0.00836410 -0.00426490
v -0.00900000 0.00907023 -0.00168039
v -0.00900000 0.00914704 -0.00086615
v -0.00900000 0.00917252 -0.00003601
v -0.00900000 -0.00917254 -0.00003601
v -0.00900000 -0.00915782 -0.00066791
v -0.00900000 -0.00909027 -0.00151501
v -0.00900000 0.00903710 -0.00191897
v -0.00900000 0.00892390 -0.00254752
v -0.00900000 0.00877539 -0.00314897
v -0.00900000 -0.00884510 -0.00288819
v -0.00900000 -0.00896851 -0.00232512
v -0.00900000 -0.00841020 -0.00416413
v -0.00900000 -0.00864975 -0.00355228
v -0.00646715 0.00994266 -0.00271480
v -0.00625543 0.00994266 -0.00317761
v -0.00690286 0.00977608 -0.00350276
v -0.00582029 0.00994266 -0.00392500
v -0.00536231 0.00994266 -0.00453553
v -0.00591731 0.00977608 -0.00500122
v -0.00388899 0.00994266 -0.00585630
v -0.00350000 0.00994266 -0.00609819
v -0.00386225 0.00977608 -0.00672562
v -0.00267878 0.00994266 -0.00650317
v -0.00200762 0.00994266 -0.00674194
v -0.00221541 0.00977608 -0.00743600
v 0.00136563 0.00994266 -0.00690151
v 0.00200762 0.00994266 -0.00674194
v 0.00221541 0.00977608 -0.00743600
v 0.00494975 0.00994266 -0.00498576
v 0.00536231 0.00994266 -0.00453553
v 0.00591731 0.00977608 -0.00500122
v 0.00686550 0.00994266 -0.00140165
v 0.00695267 0.00994266 -0.00084866
v 0.00767227 0.00977608 -0.00093277
v -0.00738593 0.00866916 -0.00623354
v -0.00482082 0.00866916 -0.00838592
v -0.00381886 0.00866916 -0.00888913
v 0.00276526 0.00866916 -0.00927261
v 0.00381886 0.00866916 -0.00888913
v 0.00899882 0.00913222 -0.00108782
v 0.00835938 0.00950393 -0.00101308
v 0.00805548 0.00866916 -0.00533418
v -0.00851369 0.00913222 -0.00313474
v -0.00841628 0.00950393 -0.00003601
v 0.00809638 0.00913222 -0.00410217
v 0.00861609 0.00866916 -0.00436318
v 0.00851369 0.00913222 -0.00313474
v 0.00790872 0.00950393 -0.00291455
v 0.00752107 0.00950393 -0.00381324
v 0.00725865 0.00977608 -0.00267795
v 0.00690286 0.00977608 -0.00350276
v 0.00738593 0.00866916 -0.00623354
v 0.00756959 0.00913222 -0.00501461
v 0.00694043 0.00913222 -0.00585972
v 0.00703171 0.00950393 -0.00466084
v 0.00644725 0.00950393 -0.00544590
v 0.00645372 0.00977608 -0.00428069
v 0.00575759 0.00866916 -0.00776980
v 0.00482082 0.00866916 -0.00838592
v 0.00541031 0.00913222 -0.00730331
v 0.00453004 0.00913222 -0.00788227
v 0.00502586 0.00950393 -0.00678691
v 0.00420815 0.00950393 -0.00732473
v 0.00461275 0.00977608 -0.00623201
v 0.00386225 0.00977608 -0.00672562
v 0.00358852 0.00913222 -0.00835512
v 0.00259846 0.00913222 -0.00871547
v 0.00333352 0.00950393 -0.00776398
v 0.00241382 0.00950393 -0.00809873
v 0.00305952 0.00977608 -0.00712877
v 0.00167426 0.00866916 -0.00953118
v 0.00056061 0.00866916 -0.00966134
v 0.00157327 0.00913222 -0.00895845
v 0.00052680 0.00913222 -0.00908076
v 0.00146147 0.00950393 -0.00832444
v 0.00048937 0.00950393 -0.00843806
v 0.00134135 0.00977608 -0.00764316
v 0.00044914 0.00977608 -0.00774744
v 0.00121554 0.00994266 -0.00692967
v -0.00056061 0.00866916 -0.00966134
v -0.00167425 0.00866916 -0.00953118
v -0.00052679 0.00913222 -0.00908076
v -0.00157326 0.00913222 -0.00895845
v -0.00048936 0.00950393 -0.00843806
v -0.00146147 0.00950393 -0.00832444
v -0.00044914 0.00977608 -0.00774744
v -0.00134134 0.00977608 -0.00764316
v -0.00276525 0.00866916 -0.00927261
v -0.00259846 0.00913222 -0.00871547
v -0.00241382 0.00950393 -0.00809873
v -0.00661650 0.00866916 -0.00704909
v -0.00621740 0.00913222 -0.00662608
v -0.00694042 0.00913222 -0.00585972
v -0.00577560 0.00950393 -0.00615780
v -0.00644725 0.00950393 -0.00544590
v -0.00530087 0.00977608 -0.00565461
v -0.00881586 0.00913222 -0.00212541
v -0.00899882 0.00913222 -0.00108782
v -0.00818942 0.00950393 -0.00197694
v -0.00835938 0.00950393 -0.00101308
v -0.00751628 0.00977608 -0.00181740
v -0.00767226 0.00977608 -0.00093277
v 0.00700000 0.00994266 -0.00003601
v 0.00772450 0.00977608 -0.00003601
v 0.00841629 0.00950393 -0.00003601
v 0.00681132 0.00994266 -0.00165032
v 0.00751628 0.00977608 -0.00181740
v 0.00818943 0.00950393 -0.00197694
v 0.00881587 0.00913222 -0.00212541
v 0.00657785 0.00994266 -0.00243015
v 0.00625543 0.00994266 -0.00317761
v 0.00646716 0.00994266 -0.00271480
v 0.00584842 0.00994266 -0.00388258
v 0.00582029 0.00994266 -0.00392500
v 0.00480369 0.00994266 -0.00512763
v 0.00530087 0.00977608 -0.00565461
v 0.00577561 0.00950393 -0.00615780
v 0.00621741 0.00913222 -0.00662608
v 0.00661650 0.00866916 -0.00704909
v 0.00418011 0.00994266 -0.00565088
v 0.00350000 0.00994266 -0.00609819
v 0.00388899 0.00994266 -0.00585630
v 0.00277256 0.00994266 -0.00646353
v 0.00267879 0.00994266 -0.00650317
v -0.00040701 0.00994266 -0.00702417
v 0.00000000 0.00994266 -0.00703601
v 0.00040702 0.00994266 -0.00702417
v -0.00121554 0.00994266 -0.00692967
v -0.00136563 0.00994266 -0.00690151
v -0.00277256 0.00994266 -0.00646353
v -0.00305951 0.00977608 -0.00712877
v -0.00333352 0.00950393 -0.00776398
v -0.00358851 0.00913222 -0.00835512
v -0.00453004 0.00913222 -0.00788227
v -0.00420814 0.00950393 -0.00732473
v -0.00418011 0.00994266 -0.00565088
v -0.00461275 0.00977608 -0.00623201
v -0.00502586 0.00950393 -0.00678691
v -0.00541030 0.00913222 -0.00730331
v -0.00575759 0.00866916 -0.00776980
v -0.00480369 0.00994266 -0.00512763
v -0.00494975 0.00994266 -0.00498576
v -0.00584841 0.00994266 -0.00388258
v -0.00645372 0.00977608 -0.00428069
v -0.00703170 0.00950393 -0.00466084
v -0.00756958 0.00913222 -0.00501461
v -0.00805547 0.00866916 -0.00533418
v -0.00861609 0.00866916 -0.00436318
v -0.00809638 0.00913222 -0.00410217
v -0.00752107 0.00950393 -0.00381324
v -0.00657785 0.00994266 -0.00243015
v -0.00725865 0.00977608 -0.00267795
v -0.00790872 0.00950393 -0.00291455
v -0.00681131 0.00994266 -0.00165032
v -0.00695267 0.00994266 -0.00084866
v -0.00686549 0.00994266 -0.00140165
v -0.00772449 0.00977608 -0.00003601
v -0.00700000 0.00994266 -0.00003601
v 0.00646716 -0.00994268 -0.00271480
v 0.00625543 -0.00994268 -0.00317761
v 0.00690286 -0.00977611 -0.00350276
v 0.00582029 -0.00994268 -0.00392500
v 0.00536231 -0.00994268 -0.00453553
v 0.00591731 -0.00977611 -0.00500122
v 0.00388899 -0.00994268 -0.00585630
v 0.00350000 -0.00994268 -0.00609819
v 0.00386225 -0.00977611 -0.00672562
v 0.00267879 -0.00994268 -0.00650317
v 0.00200762 -0.00994268 -0.00674194
v 0.00221541 -0.00977611 -0.00743600
v -0.00136563 -0.00994268 -0.00690151
v -0.00200762 -0.00994268 -0.00674194
v -0.00221541 -0.00977611 -0.00743600
v -0.00494975 -0.00994268 -0.00498576
v -0.00536231 -0.00994268 -0.00453553
v -0.00591731 -0.00977611 -0.00500122
v -0.00686549 -0.00994268 -0.00140165
v -0.00695267 -0.00994268 -0.00084866
v -0.00767226 -0.00977611 -0.00093277
v 0.00738593 -0.00866918 -0.00623354
v 0.00482082 -0.00866918 -0.00838592
v 0.00381886 -0.00866918 -0.00888913
v -0.00276525 -0.00866918 -0.00927261
v -0.00381886 -0.00866918 -0.00888913
v -0.00899882 -0.00913224 -0.00108782
v -0.00835938 -0.00950395 -0.00101308
v -0.00805547 -0.00866918 -0.00533418
v 0.00851369 -0.00913224 -0.00313474
v 0.00841629 -0.00950395 -0.00003601
v -0.00809638 -0.00913224 -0.00410217
v -0.00861609 -0.00866918 -0.00436318
v -0.00851369 -0.00913224 -0.00313474
v -0.00790872 -0.00950395 -0.00291455
v -0.00752107 -0.00950395 -0.00381324
v -0.00725865 -0.00977611 -0.00267795
v -0.00690286 -0.00977611 -0.00350276
v -0.00738593 -0.00866918 -0.00623354
v -0.00756958 -0.00913224 -0.00501461
v -0.00694042 -0.00913224 -0.00585972
v -0.00703170 -0.00950395 -0.00466084
v -0.00644725 -0.00950395 -0.00544590
v -0.00645372 -0.00977611 -0.00428069
v -0.00575759 -0.00866918 -0.00776980
v -0.00482082 -0.00866918 -0.00838592
v -0.00541030 -0.00913224 -0.00730331
v -0.00453004 -0.00913224 -0.00788227
v -0.00502586 -0.00950395 -0.00678691
v -0.00420814 -0.00950395 -0.00732473
v -0.00461275 -0.00977611 -0.00623201
v -0.00386225 -0.00977611 -0.00672562
v -0.00358851 -0.00913224 -0.00835512
v -0.00259846 -0.00913224 -0.00871547
v -0.00333352 -0.00950395 -0.00776398
v -0.00241382 -0.00950395 -0.00809873
v -0.00305951 -0.00977611 -0.00712877
v -0.00167425 -0.00866918 -0.00953118
v -0.00056061 -0.00866918 -0.00966134
v -0.00157326 -0.00913224 -0.00895845
v -0.00052679 -0.00913224 -0.00908076
v -0.00146147 -0.00950395 -0.00832444
v -0.00048936 -0.00950395 -0.00843806
v -0.00134134 -0.00977611 -0.00764316
v -0.00044914 -0.00977611 -0.00774744
v -0.00121554 -0.00994268 -0.00692967
v 0.00056061 -0.00866918 -0.00966134
v 0.00167426 -0.00866918 -0.00953118
v 0.00052680 -0.00913224 -0.00908076
v 0.00157327 -0.00913224 -0.00895845
v 0.00048937 -0.00950395 -0.00843806
v 0.00146147 -0.00950395 -0.00832444
v 0.00044914 -0.00977611 -0.00774744
v 0.00134135 -0.00977611 -0.00764316
v 0.00276526 -0.00866918 -0.00927261
v 0.00259846 -0.00913224 -0.00871547
v 0.00241382 -0.00950395 -0.00809873
v 0.00661650 -0.00866918 -0.00704909
v 0.00621741 -0.00913224 -0.00662608
v 0.00694043 -0.00913224 -0.00585972
v 0.00577561 -0.00950395 -0.00615780
v 0.00644725 -0.00950395 -0.00544590
v 0.00530087 -0.00977611 -0.00565461
v 0.00881587 -0.00913224 -0.00212541
v 0.00899882 -0.00913224 -0.00108782
v 0.00818943 -0.00950395 -0.00197694
v 0.00835938 -0.00950395 -0.00101308
v 0.00751628 -0.00977611 -0.00181740
v 0.00767227 -0.00977611 -0.00093277
v -0.00700000 -0.00994268 -0.00003601
v -0.00772449 -0.00977611 -0.00003601
v -0.00841628 -0.00950395 -0.00003601
v -0.00681131 -0.00994268 -0.00165032
v -0.00751628 -0.00977611 -0.00181740
v -0.00818942 -0.00950395 -0.00197694
v -0.00881586 -0.00913224 -0.00212541
v -0.00657785 -0.00994268 -0.00243015
v -0.00625543 -0.00994268 -0.00317761
v -0.00646715 -0.00994268 -0.00271480
v -0.00584841 -0.00994268 -0.00388258
v -0.00582029 -0.00994268 -0.00392500
v -0.00480369 -0.00994268 -0.00512763
v -0.00530087 -0.00977611 -0.00565461
v -0.00577560 -0.00950395 -0.00615780
v -0.00621740 -0.00913224 -0.00662608
v -0.00661650 -0.00866918 -0.00704909
v -0.00418011 -0.00994268 -0.00565088
v -0.00350000 -0.00994268 -0.00609819
v -0.00388899 -0.00994268 -0.00585630
v -0.00277256 -0.00994268 -0.00646353
v -0.00267878 -0.00994268 -0.00650317
v 0.00040702 -0.00994268 -0.00702417
v 0.00000000 -0.00994268 -0.00703601
v -0.00040701 -0.00994268 -0.00702417
v 0.00121554 -0.00994268 -0.00692967
v 0.00136563 -0.00994268 -0.00690151
v 0.00277256 -0.00994268 -0.00646353
v 0.00305952 -0.00977611 -0.00712877
v 0.00333352 -0.00950395 -0.00776398
v 0.00358852 -0.00913224 -0.00835512
v 0.00453004 -0.00913224 -0.00788227
v 0.00420815 -0.00950395 -0.00732473
v 0.00418011 -0.00994268 -0.00565088
v 0.00461275 -0.00977611 -0.00623201
v 0.00502586 -0.00950395 -0.00678691
v 0.00541031 -0.00913224 -0.00730331
v 0.00575759 -0.00866918 -0.00776980
v 0.00480369 -0.00994268 -0.00512763
v 0.00494975 -0.00994268 -0.00498576
v 0.00584842 -0.00994268 -0.00388258
v 0.00645372 -0.00977611 -0.00428069
v 0.00703171 -0.00950395 -0.00466084
v 0.00756959 -0.00913224 -0.00501461
v 0.00805548 -0.00866918 -0.00533418
v 0.00861609 -0.00866918 -0.00436318
v 0.00809638 -0.00913224 -0.00410217
v 0.00752107 -0.00950395 -0.00381324
v 0.00657785 -0.00994268 -0.00243015
v 0.00725865 -0.00977611 -0.00267795
v 0.00790872 -0.00950395 -0.00291455
v 0.00681132 -0.00994268 -0.00165032
v 0.00695267 -0.00994268 -0.00084866
v 0.00686550 -0.00994268 -0.00140165
v 0.00772450 -0.00977611 -0.00003601
v 0.00700000 -0.00994268 -0.00003601
v 0.00717581 0.00812499 0.00713979
v 0.00799847 0.00775357 0.00666522
v 0.00793412 0.00812499 0.00629124
v 0.00539913 0.00812499 0.00855665
v 0.00575745 0.00800540 0.00843542
v 0.00632725 0.00812499 0.00789811
v -0.00632725 0.00812499 0.00789811
v -0.00691980 0.00812499 0.00738697
v -0.00691386 0.00756134 0.00796551
v -0.00900000 0.00812499 0.00465274
v -0.00900000 0.00767942 0.00535160
v -0.00859266 0.00812499 0.00536311
v 0.00793412 -0.00812501 0.00629124
v 0.00859266 -0.00812501 0.00536311
v 0.00900000 -0.00767944 0.00535160
v 0.00900000 -0.00812501 0.00465274
v 0.00454124 -0.00743151 0.00961541
v 0.00454311 -0.00812501 0.00903838
v 0.00539913 -0.00812501 0.00855665
v 0.00198043 -0.00783859 0.01014409
v 0.00225817 -0.00812501 0.00985767
v 0.00335171 -0.00812501 0.00954263
v 0.00066244 -0.00792086 0.01025093
v 0.00066278 -0.00812501 0.01009044
v 0.00113623 -0.00812501 0.01004830
v -0.00327786 -0.00767491 0.00993151
v -0.00335171 -0.00812501 0.00954263
v -0.00225817 -0.00812501 0.00985767
v -0.00454124 -0.00743151 0.00961541
v -0.00454310 -0.00812501 0.00903838
v -0.00440310 -0.00812501 0.00910713
v -0.00575745 -0.00711093 0.00919906
v -0.00575745 -0.00800542 0.00843542
v -0.00539912 -0.00812501 0.00855665
v -0.00691386 -0.00756136 0.00796551
v -0.00691980 -0.00812501 0.00738697
v -0.00632725 -0.00812501 0.00789811
v -0.00799847 -0.00703877 0.00741250
v -0.00799847 -0.00775359 0.00666522
v -0.00717580 -0.00812501 0.00713979
v -0.00900000 -0.00812501 0.00465274
v -0.00859266 -0.00812501 0.00536311
v -0.00900000 -0.00767944 0.00535160
v -0.00793412 -0.00812501 0.00629124
v -0.00900000 -0.00709739 0.00609809
v -0.00793412 0.00812499 0.00629124
v -0.00799847 0.00775357 0.00666522
v -0.00717580 0.00812499 0.00713979
v -0.00799847 0.00703875 0.00741250
v -0.00335171 0.00812499 0.00954263
v -0.00440310 0.00812499 0.00910713
v -0.00454124 0.00743149 0.00961541
v -0.00454310 0.00812499 0.00903838
v -0.00539912 0.00812499 0.00855665
v -0.00113623 0.00812499 0.01004830
v -0.00225817 0.00812499 0.00985767
v -0.00198043 0.00783857 0.01014409
v 0.00000000 0.00812499 0.01011211
v -0.00066278 0.00812499 0.01009044
v -0.00066244 0.00792084 0.01025093
v 0.00066244 0.00792084 0.01025093
v 0.00113623 0.00812499 0.01004830
v 0.00198043 0.00783857 0.01014409
v 0.00225817 0.00812499 0.00985767
v 0.00440311 0.00812499 0.00910713
v 0.00335171 0.00812499 0.00954263
v 0.00327786 0.00767489 0.00993151
v 0.00454124 0.00743149 0.00961541
v 0.00454311 0.00812499 0.00903838
v 0.00575745 0.00711091 0.00919906
v 0.00691980 0.00812499 0.00738697
v 0.00691387 0.00756134 0.00796551
v 0.00799847 0.00703875 0.00741250
v 0.00900000 0.00812499 0.00465274
v 0.00859266 0.00812499 0.00536311
v 0.00900000 0.00767942 0.00535160
v 0.00900000 0.00709737 0.00609809
v 0.00900000 0.00644305 0.00678212
v 0.00799847 0.00625227 0.00808393
v 0.00900000 0.00572313 0.00739673
v 0.00799847 0.00540212 0.00867268
v 0.00900000 0.00494494 0.00793566
v 0.00799847 0.00449697 0.00917277
v 0.00900000 0.00411639 0.00839342
v 0.00799847 0.00354603 0.00957908
v 0.00900000 0.00324593 0.00876534
v 0.00799847 0.00255899 0.00988749
v 0.00900000 0.00234242 0.00904766
v 0.00799847 0.00154589 0.01009486
v 0.00900000 0.00141506 0.00923748
v 0.00799847 0.00051704 0.01019908
v 0.00900000 0.00047328 0.00933287
v 0.00799847 -0.00051706 0.01019908
v 0.00900000 -0.00047330 0.00933287
v 0.00799847 -0.00154591 0.01009486
v 0.00900000 -0.00141508 0.00923748
v 0.00799847 -0.00255901 0.00988749
v 0.00900000 -0.00234244 0.00904766
v 0.00799847 -0.00354605 0.00957908
v 0.00900000 -0.00324595 0.00876534
v 0.00799847 -0.00449699 0.00917277
v 0.00900000 -0.00411641 0.00839342
v 0.00799847 -0.00540214 0.00867268
v 0.00900000 -0.00494495 0.00793566
v 0.00799847 -0.00625229 0.00808393
v 0.00900000 -0.00572315 0.00739673
v 0.00799847 -0.00703877 0.00741250
v 0.00900000 -0.00644307 0.00678212
v 0.00799847 -0.00775359 0.00666522
v 0.00900000 -0.00709739 0.00609809
v 0.00691387 0.00671647 0.00868679
v 0.00691387 0.00580321 0.00931926
v 0.00691387 0.00483085 0.00985647
v 0.00691387 0.00380931 0.01029295
v 0.00691387 0.00274898 0.01062426
v 0.00691387 0.00166066 0.01084703
v 0.00691387 0.00055543 0.01095898
v 0.00691387 -0.00055545 0.01095898
v 0.00691387 -0.00166068 0.01084703
v 0.00691387 -0.00274900 0.01062426
v 0.00691387 -0.00380933 0.01029295
v 0.00691387 -0.00483087 0.00985647
v 0.00691387 -0.00580323 0.00931926
v 0.00691387 -0.00671649 0.00868679
v 0.00691387 -0.00756136 0.00796551
v 0.00575745 0.00614401 0.00986867
v 0.00575745 0.00511456 0.01043743
v 0.00575745 0.00403302 0.01089954
v 0.00575745 0.00291042 0.01125031
v 0.00575745 0.00175819 0.01148616
v 0.00575745 0.00058805 0.01160469
v 0.00575745 -0.00058807 0.01160469
v 0.00575745 -0.00175821 0.01148616
v 0.00575745 -0.00291044 0.01125031
v 0.00575745 -0.00403304 0.01089954
v 0.00575745 -0.00511457 0.01043743
v 0.00575745 -0.00614403 0.00986867
v 0.00575745 -0.00711093 0.00919906
v 0.00575745 -0.00800542 0.00843542
v 0.00717581 -0.00812501 0.00713979
v 0.00691980 -0.00812501 0.00738697
v 0.00632725 -0.00812501 0.00789811
v 0.00454124 -0.00642102 0.01031520
v 0.00454124 -0.00534516 0.01090960
v 0.00454124 -0.00421486 0.01139256
v 0.00454124 -0.00304165 0.01175914
v 0.00454124 -0.00183747 0.01200562
v 0.00454124 -0.00061458 0.01212949
v 0.00454124 0.00061456 0.01212949
v 0.00454124 0.00183745 0.01200562
v 0.00454124 0.00304163 0.01175914
v 0.00454124 0.00421484 0.01139256
v 0.00454124 0.00534514 0.01090960
v 0.00454124 0.00642100 0.01031520
v 0.00327786 0.00663131 0.01065423
v 0.00327786 0.00552020 0.01126810
v 0.00327786 0.00435289 0.01176686
v 0.00327786 0.00314125 0.01214545
v 0.00327786 0.00189763 0.01240001
v 0.00327786 0.00063469 0.01252794
v 0.00327786 -0.00063471 0.01252794
v 0.00327786 -0.00189765 0.01240001
v 0.00327786 -0.00314127 0.01214545
v 0.00327786 -0.00435291 0.01176686
v 0.00327786 -0.00552022 0.01126810
v 0.00327786 -0.00663133 0.01065423
v 0.00327786 -0.00767491 0.00993151
v 0.00198043 0.00677273 0.01088222
v 0.00198043 0.00563793 0.01150918
v 0.00198043 0.00444572 0.01201859
v 0.00198043 0.00320825 0.01240525
v 0.00198043 0.00193811 0.01266523
v 0.00198043 0.00064823 0.01279589
v 0.00198043 -0.00064825 0.01279589
v 0.00198043 -0.00193813 0.01266523
v 0.00198043 -0.00320827 0.01240525
v 0.00198043 -0.00444574 0.01201859
v 0.00198043 -0.00563795 0.01150918
v 0.00198043 -0.00677275 0.01088222
v 0.00440311 -0.00812501 0.00910713
v 0.00066244 0.00684382 0.01099681
v 0.00066244 0.00569710 0.01163035
v 0.00066244 0.00449238 0.01214510
v 0.00066244 0.00324192 0.01253582
v 0.00066244 0.00195845 0.01279853
v 0.00066244 0.00065503 0.01293056
v 0.00066244 -0.00065505 0.01293056
v 0.00066244 -0.00195847 0.01279853
v 0.00066244 -0.00324194 0.01253582
v 0.00066244 -0.00449240 0.01214510
v 0.00066244 -0.00569712 0.01163035
v 0.00066244 -0.00684384 0.01099681
v -0.00066244 0.00684382 0.01099681
v -0.00066244 0.00569710 0.01163035
v -0.00066244 0.00449238 0.01214510
v -0.00066244 0.00324192 0.01253582
v -0.00066244 0.00195845 0.01279853
v -0.00066244 0.00065503 0.01293056
v -0.00066244 -0.00065505 0.01293056
v -0.00066244 -0.00195847 0.01279853
v -0.00066244 -0.00324194 0.01253582
v -0.00066244 -0.00449240 0.01214510
v -0.00066244 -0.00569712 0.01163035
v -0.00066244 -0.00684384 0.01099681
v -0.00066244 -0.00792086 0.01025093
v 0.00000000 -0.00812501 0.01011211
v -0.00198043 0.00677273 0.01088222
v -0.00198043 0.00563793 0.01150918
v -0.00198043 0.00444572 0.01201859
v -0.00198043 0.00320825 0.01240525
v -0.00198043 0.00193811 0.01266523
v -0.00198043 0.00064823 0.01279589
v -0.00198043 -0.00064825 0.01279589
v -0.00198043 -0.00193813 0.01266523
v -0.00198043 -0.00320827 0.01240525
v -0.00198043 -0.00444574 0.01201859
v -0.00198043 -0.00563795 0.01150918
v -0.00198043 -0.00677275 0.01088222
v -0.00198043 -0.00783859 0.01014409
v -0.00113623 -0.00812501 0.01004830
v -0.00327786 0.00767489 0.00993151
v -0.00327786 0.00663131 0.01065423
v -0.00327786 0.00552020 0.01126810
v -0.00327786 0.00435289 0.01176686
v -0.00327786 0.00314125 0.01214545
v -0.00327786 0.00189763 0.01240001
v -0.00327786 0.00063469 0.01252794
v -0.00327786 -0.00063471 0.01252794
v -0.00327786 -0.00189765 0.01240001
v -0.00327786 -0.00314127 0.01214545
v -0.00327786 -0.00435291 0.01176686
v -0.00327786 -0.00552022 0.01126810
v -0.00327786 -0.00663133 0.01065423
v -0.00454124 0.00642100 0.01031520
v -0.00454124 0.00534514 0.01090960
v -0.00454124 0.00421484 0.01139256
v -0.00454124 0.00304163 0.01175914
v -0.00454124 0.00183745 0.01200562
v -0.00454124 0.00061456 0.01212949
v -0.00454124 -0.00061458 0.01212949
v -0.00454124 -0.00183747 0.01200562
v -0.00454124 -0.00304165 0.01175914
v -0.00454124 -0.00421486 0.01139256
v -0.00454124 -0.00534516 0.01090960
v -0.00454124 -0.00642102 0.01031520
v -0.00575745 0.00800540 0.00843542
v -0.00575745 0.00711091 0.00919906
v -0.00575745 0.00614401 0.00986867
v -0.00575745 0.00511456 0.01043743
v -0.00575745 0.00403302 0.01089954
v -0.00575745 0.00291042 0.01125031
v -0.00575745 0.00175819 0.01148616
v -0.00575745 0.00058805 0.01160469
v -0.00575745 -0.00058807 0.01160469
v -0.00575745 -0.00175821 0.01148616
v -0.00575745 -0.00291044 0.01125031
v -0.00575745 -0.00403304 0.01089954
v -0.00575745 -0.00511457 0.01043743
v -0.00575745 -0.00614403 0.00986867
v -0.00691386 0.00671647 0.00868679
v -0.00691386 0.00580321 0.00931926
v -0.00691386 0.00483085 0.00985647
v -0.00691386 0.00380931 0.01029295
v -0.00691386 0.00274898 0.01062426
v -0.00691386 0.00166066 0.01084703
v -0.00691386 0.00055543 0.01095898
v -0.00691386 -0.00055545 0.01095898
v -0.00691386 -0.00166068 0.01084703
v -0.00691386 -0.00274900 0.01062426
v -0.00691386 -0.00380933 0.01029295
v -0.00691386 -0.00483087 0.00985647
v -0.00691386 -0.00580323 0.00931926
v -0.00691386 -0.00671649 0.00868679
v -0.00799847 0.00625227 0.00808393
v -0.00799847 0.00540212 0.00867268
v -0.00799847 0.00449697 0.00917277
v -0.00799847 0.00354603 0.00957908
v -0.00799847 0.00255899 0.00988749
v -0.00799847 0.00154589 0.01009486
v -0.00799847 0.00051704 0.01019908
v -0.00799847 -0.00051706 0.01019908
v -0.00799847 -0.00154591 0.01009486
v -0.00799847 -0.00255901 0.00988749
v -0.00799847 -0.00354605 0.00957908
v -0.00799847 -0.00449699 0.00917277
v -0.00799847 -0.00540214 0.00867268
v -0.00799847 -0.00625229 0.00808393
v -0.00900000 0.00709737 0.00609809
v -0.00900000 0.00644305 0.00678212
v -0.00900000 0.00572313 0.00739673
v -0.00900000 0.00494494 0.00793566
v -0.00900000 0.00411639 0.00839342
v -0.00900000 0.00324593 0.00876534
v -0.00900000 0.00234242 0.00904766
v -0.00900000 0.00141506 0.00923748
v -0.00900000 0.00047328 0.00933287
v -0.00900000 -0.00047330 0.00933287
v -0.00900000 -0.00141508 0.00923748
v -0.00900000 -0.00234244 0.00904766
v -0.00900000 -0.00324595 0.00876534
v -0.00900000 -0.00411641 0.00839342
v -0.00900000 -0.00494495 0.00793566
v -0.00900000 -0.00572315 0.00739673
v -0.00900000 -0.00644307 0.00678212
v -0.00900000 -0.00913428 0.00097923
v -0.00900000 -0.00907249 0.00159076
v -0.00900000 0.00915693 0.00061415
v -0.00900000 0.00908925 0.00145175
v -0.00900000 0.00840741 0.00409828
v -0.00900000 0.00864514 0.00349369
v -0.00900000 0.00883957 0.00283799
v -0.00900000 0.00896849 0.00225309
v -0.00900000 -0.00877906 0.00306407
v -0.00900000 -0.00892535 0.00246876
v -0.00900000 -0.00903712 0.00184694
v -0.00900000 -0.00914761 0.00078514
v -0.00900000 -0.00913632 0.00095209
v -0.00900000 -0.00859640 0.00363159
v -0.00900000 -0.00837489 0.00416974
v 0.00900000 0.00913426 0.00097923
v 0.00900000 0.00907247 0.00159076
v 0.00900000 0.00859638 0.00363159
v 0.00900000 0.00837487 0.00416974
v 0.00900000 -0.00915695 0.00061415
v 0.00900000 -0.00908927 0.00145175
v 0.00900000 0.00903710 0.00184694
v 0.00900000 0.00892533 0.00246876
v 0.00900000 0.00877904 0.00306407
v 0.00900000 0.00914759 0.00078514
v 0.00900000 0.00913630 0.00095209
v 0.00900000 -0.00883960 0.00283799
v 0.00900000 -0.00896851 0.00225309
v 0.00900000 -0.00840743 0.00409828
v 0.00900000 -0.00864516 0.00349369
v 0.00836337 0.00950393 0.00090631
v 0.00883293 0.00913222 0.00198004
v 0.00855166 0.00913222 0.00295634
v -0.00868682 0.00866916 0.00414734
v -0.00816381 0.00866916 0.00509365
v -0.00816285 0.00913222 0.00389501
v -0.00855166 0.00913222 0.00295634
v -0.00883292 0.00913222 0.00198004
v -0.00753814 0.00866916 0.00597545
v -0.00681767 0.00866916 0.00678166
v -0.00601146 0.00866916 0.00750213
v -0.00512966 0.00866916 0.00812780
v -0.00418335 0.00866916 0.00865081
v -0.00318443 0.00866916 0.00906457
v -0.00214547 0.00866916 0.00936389
v -0.00107952 0.00866916 0.00954500
v 0.00000000 0.00866916 0.00960563
v 0.00107952 0.00866916 0.00954500
v 0.00214547 0.00866916 0.00936389
v 0.00318443 0.00866916 0.00906457
v 0.00418335 0.00866916 0.00865081
v 0.00512967 0.00866916 0.00812780
v 0.00601147 0.00866916 0.00750213
v 0.00681767 0.00866916 0.00678166
v 0.00753814 0.00866916 0.00597545
v 0.00816381 0.00866916 0.00509365
v 0.00868682 0.00866916 0.00414734
v 0.00816285 0.00913222 0.00389501
v 0.00767139 0.00913222 0.00478424
v 0.00708346 0.00913222 0.00561285
v 0.00640645 0.00913222 0.00637043
v 0.00564887 0.00913222 0.00704744
v 0.00482025 0.00913222 0.00763538
v 0.00393102 0.00913222 0.00812684
v 0.00299236 0.00913222 0.00851564
v 0.00201606 0.00913222 0.00879691
v 0.00101441 0.00913222 0.00896710
v 0.00000000 0.00913222 0.00902407
v -0.00101441 0.00913222 0.00896710
v -0.00201606 0.00913222 0.00879691
v -0.00299235 0.00913222 0.00851564
v -0.00393102 0.00913222 0.00812684
v -0.00482025 0.00913222 0.00763538
v -0.00564887 0.00913222 0.00704744
v -0.00640644 0.00913222 0.00637043
v -0.00708345 0.00913222 0.00561285
v -0.00767139 0.00913222 0.00478424
v -0.00820527 0.00950393 0.00183679
v -0.00836336 0.00950393 0.00090631
v -0.00886615 0.00921213 0.00110317
v -0.00712627 0.00950393 0.00444172
v -0.00695953 0.00977608 0.00331552
v -0.00758281 0.00950393 0.00361568
v -0.00729102 0.00977608 0.00251523
v -0.00794399 0.00950393 0.00274371
v -0.00753082 0.00977608 0.00168285
v -0.00767592 0.00977608 0.00082886
v -0.00187280 0.00950393 0.00816926
v -0.00255124 0.00977608 0.00725501
v -0.00277972 0.00950393 0.00790798
v -0.00335153 0.00977608 0.00692352
v -0.00365169 0.00950393 0.00754680
v -0.00410968 0.00977608 0.00650450
v -0.00447773 0.00950393 0.00709026
v -0.00481614 0.00977608 0.00600324
v -0.00524747 0.00950393 0.00654410
v -0.00546204 0.00977608 0.00542603
v -0.00595121 0.00950393 0.00591520
v -0.00603925 0.00977608 0.00478013
v -0.00658012 0.00950393 0.00521146
v 0.00447774 0.00950393 0.00709026
v 0.00335153 0.00977608 0.00692352
v 0.00365169 0.00950393 0.00754680
v 0.00255124 0.00977608 0.00725501
v 0.00277973 0.00950393 0.00790798
v 0.00171886 0.00977608 0.00749481
v 0.00187280 0.00950393 0.00816926
v 0.00086487 0.00977608 0.00763991
v 0.00094233 0.00950393 0.00832735
v 0.00000000 0.00977608 0.00768848
v 0.00000000 0.00950393 0.00838027
v -0.00086487 0.00977608 0.00763991
v -0.00094232 0.00950393 0.00832735
v 0.00820527 0.00950393 0.00183679
v 0.00729102 0.00977608 0.00251523
v 0.00794399 0.00950393 0.00274371
v 0.00695953 0.00977608 0.00331552
v 0.00758281 0.00950393 0.00361568
v 0.00654052 0.00977608 0.00407367
v 0.00712628 0.00950393 0.00444172
v 0.00603926 0.00977608 0.00478013
v 0.00658012 0.00950393 0.00521146
v 0.00546205 0.00977608 0.00542603
v 0.00595122 0.00950393 0.00591520
v 0.00481615 0.00977608 0.00600324
v 0.00524747 0.00950393 0.00654410
v 0.00767593 0.00977608 0.00082886
v -0.00695598 0.00994266 0.00074774
v -0.00686549 0.00994266 0.00132962
v -0.00682449 0.00994266 0.00152163
v -0.00660718 0.00994266 0.00227594
v -0.00654052 0.00977608 0.00407367
v -0.00630678 0.00994266 0.00300117
v -0.00646715 0.00994266 0.00264277
v -0.00547282 0.00994266 0.00432842
v -0.00582029 0.00994266 0.00385298
v -0.00592707 0.00994266 0.00368821
v -0.00494975 0.00994266 0.00491373
v -0.00436443 0.00994266 0.00543681
v -0.00388899 0.00994266 0.00578427
v -0.00372422 0.00994266 0.00589106
v -0.00303718 0.00994266 0.00627077
v -0.00171886 0.00977608 0.00749481
v -0.00231195 0.00994266 0.00657117
v -0.00267878 0.00994266 0.00643114
v -0.00078375 0.00994266 0.00691997
v -0.00136563 0.00994266 0.00682948
v -0.00155764 0.00994266 0.00678848
v 0.00000000 0.00994266 0.00696399
v 0.00078375 0.00994266 0.00691997
v 0.00136563 0.00994266 0.00682948
v 0.00155765 0.00994266 0.00678848
v 0.00231196 0.00994266 0.00657117
v 0.00410968 0.00977608 0.00650450
v 0.00303719 0.00994266 0.00627077
v 0.00267879 0.00994266 0.00643114
v 0.00436443 0.00994266 0.00543681
v 0.00388899 0.00994266 0.00578427
v 0.00372423 0.00994266 0.00589106
v 0.00494975 0.00994266 0.00491373
v 0.00547282 0.00994266 0.00432842
v 0.00582029 0.00994266 0.00385298
v 0.00592707 0.00994266 0.00368821
v 0.00630678 0.00994266 0.00300117
v 0.00753083 0.00977608 0.00168285
v 0.00660719 0.00994266 0.00227594
v 0.00646716 0.00994266 0.00264277
v 0.00695599 0.00994266 0.00074774
v 0.00686550 0.00994266 0.00132962
v 0.00682450 0.00994266 0.00152163
v 0.00682450 -0.00994268 0.00152163
v 0.00753083 -0.00977611 0.00168285
v 0.00729102 -0.00977611 0.00251523
v 0.00686550 -0.00994268 0.00132962
v 0.00695599 -0.00994268 0.00074774
v 0.00767593 -0.00977611 0.00082886
v -0.00481614 -0.00977611 0.00600324
v -0.00524747 -0.00950395 0.00654410
v -0.00595121 -0.00950395 0.00591520
v 0.00086487 -0.00977611 0.00763991
v 0.00094233 -0.00950395 0.00832735
v 0.00000000 -0.00950395 0.00838027
v 0.00603926 -0.00977611 0.00478013
v 0.00658012 -0.00950395 0.00521146
v 0.00595122 -0.00950395 0.00591520
v 0.00820527 -0.00950395 0.00183679
v 0.00794399 -0.00950395 0.00274371
v -0.00836336 -0.00950395 0.00090631
v -0.00883292 -0.00913224 0.00198004
v -0.00855166 -0.00913224 0.00295634
v 0.00868682 -0.00866918 0.00414734
v 0.00816381 -0.00866918 0.00509365
v 0.00816285 -0.00913224 0.00389501
v 0.00855166 -0.00913224 0.00295634
v 0.00883293 -0.00913224 0.00198004
v 0.00753814 -0.00866918 0.00597545
v 0.00681767 -0.00866918 0.00678166
v 0.00601147 -0.00866918 0.00750213
v 0.00512967 -0.00866918 0.00812780
v 0.00418335 -0.00866918 0.00865081
v 0.00318443 -0.00866918 0.00906457
v 0.00214547 -0.00866918 0.00936389
v 0.00107952 -0.00866918 0.00954500
v 0.00000000 -0.00866918 0.00960563
v -0.00107952 -0.00866918 0.00954500
v -0.00214547 -0.00866918 0.00936389
v -0.00318443 -0.00866918 0.00906457
v -0.00418335 -0.00866918 0.00865081
v -0.00512966 -0.00866918 0.00812780
v -0.00601146 -0.00866918 0.00750213
v -0.00681767 -0.00866918 0.00678166
v -0.00753814 -0.00866918 0.00597545
v -0.00816381 -0.00866918 0.00509365
v -0.00868682 -0.00866918 0.00414734
v -0.00816285 -0.00913224 0.00389501
v -0.00767139 -0.00913224 0.00478424
v -0.00708345 -0.00913224 0.00561285
v -0.00640644 -0.00913224 0.00637043
v -0.00564887 -0.00913224 0.00704744
v -0.00482025 -0.00913224 0.00763538
v -0.00393102 -0.00913224 0.00812684
v -0.00299235 -0.00913224 0.00851564
v -0.00201606 -0.00913224 0.00879691
v -0.00101441 -0.00913224 0.00896710
v 0.00000000 -0.00913224 0.00902407
v 0.00101441 -0.00913224 0.00896710
v 0.00201606 -0.00913224 0.00879691
v 0.00299236 -0.00913224 0.00851564
v 0.00393102 -0.00913224 0.00812684
v 0.00482025 -0.00913224 0.00763538
v 0.00564887 -0.00913224 0.00704744
v 0.00640645 -0.00913224 0.00637043
v 0.00708346 -0.00913224 0.00561285
v 0.00767139 -0.00913224 0.00478424
v 0.00758281 -0.00950395 0.00361568
v 0.00695953 -0.00977611 0.00331552
v 0.00712628 -0.00950395 0.00444172
v 0.00654052 -0.00977611 0.00407367
v 0.00546205 -0.00977611 0.00542603
v 0.00524747 -0.00950395 0.00654410
v 0.00481615 -0.00977611 0.00600324
v 0.00447774 -0.00950395 0.00709026
v 0.00410968 -0.00977611 0.00650450
v 0.00365169 -0.00950395 0.00754680
v 0.00335153 -0.00977611 0.00692352
v 0.00277973 -0.00950395 0.00790798
v 0.00255124 -0.00977611 0.00725501
v 0.00187280 -0.00950395 0.00816926
v 0.00171886 -0.00977611 0.00749481
v 0.00000000 -0.00977611 0.00768848
v -0.00094232 -0.00950395 0.00832735
v -0.00086487 -0.00977611 0.00763991
v -0.00187280 -0.00950395 0.00816926
v -0.00171886 -0.00977611 0.00749481
v -0.00277972 -0.00950395 0.00790798
v -0.00255124 -0.00977611 0.00725501
v -0.00365169 -0.00950395 0.00754680
v -0.00335153 -0.00977611 0.00692352
v -0.00447773 -0.00950395 0.00709026
v -0.00410968 -0.00977611 0.00650450
v -0.00546204 -0.00977611 0.00542603
v -0.00658012 -0.00950395 0.00521146
v -0.00603925 -0.00977611 0.00478013
v -0.00712627 -0.00950395 0.00444172
v -0.00654052 -0.00977611 0.00407367
v -0.00758281 -0.00950395 0.00361568
v -0.00695953 -0.00977611 0.00331552
v -0.00794399 -0.00950395 0.00274371
v -0.00729102 -0.00977611 0.00251523
v -0.00820527 -0.00950395 0.00183679
v -0.00753082 -0.00977611 0.00168285
v -0.00767592 -0.00977611 0.00082886
v 0.00836337 -0.00950395 0.00090631
v 0.00886615 -0.00921215 0.00110317
v 0.00630678 -0.00994268 0.00300117
v 0.00646716 -0.00994268 0.00264277
v 0.00660719 -0.00994268 0.00227594
v 0.00547282 -0.00994268 0.00432842
v 0.00582029 -0.00994268 0.00385298
v 0.00592707 -0.00994268 0.00368821
v 0.00494975 -0.00994268 0.00491373
v 0.00372423 -0.00994268 0.00589106
v 0.00388899 -0.00994268 0.00578427
v 0.00436443 -0.00994268 0.00543681
v 0.00231196 -0.00994268 0.00657117
v 0.00267879 -0.00994268 0.00643114
v 0.00303719 -0.00994268 0.00627077
v 0.00078375 -0.00994268 0.00691997
v 0.00136563 -0.00994268 0.00682948
v 0.00155765 -0.00994268 0.00678848
v 0.00000000 -0.00994268 0.00696399
v -0.00155764 -0.00994268 0.00678848
v -0.00136563 -0.00994268 0.00682948
v -0.00078375 -0.00994268 0.00691997
v -0.00303718 -0.00994268 0.00627077
v -0.00267878 -0.00994268 0.00643114
v -0.00231195 -0.00994268 0.00657117
v -0.00436443 -0.00994268 0.00543681
v -0.00388899 -0.00994268 0.00578427
v -0.00372422 -0.00994268 0.00589106
v -0.00494975 -0.00994268 0.00491373
v -0.00592707 -0.00994268 0.00368821
v -0.00582029 -0.00994268 0.00385298
v -0.00547282 -0.00994268 0.00432842
v -0.00660718 -0.00994268 0.00227594
v -0.00646715 -0.00994268 0.00264277
v -0.00630678 -0.00994268 0.00300117
v -0.00695598 -0.00994268 0.00074774
v -0.00686549 -0.00994268 0.00132962
v -0.00682449 -0.00994268 0.00152163
f 244 74 68
f 620 621 576
f 308 309 294
f 772 759 758
f 158 157 171
f 159 151 158
f 158 171 159
f 74 244 243
f 77 80 81
f 74 243 77
f 234 223 233
f 233 223 222
f 233 222 232
f 232 243 233
f 233 243 244
f 92 91 95
f 9 210 95
f 9 91 7
f 95 91 9
f 44 186 187
f 206 92 95
f 257 271 258
f 95 210 211
f 210 257 211
f 258 212 211
f 211 257 258
f 213 212 258
f 312 296 311
f 297 296 312
f 88 1 2
f 87 1 88
f 139 1 84
f 84 1 87
f 84 80 139
f 485 346 486
f 407 458 402
f 81 85 477
f 822 823 809
f 809 823 810
f 738 736 737
f 737 739 738
f 802 816 803
f 773 759 772
f 773 774 759
f 772 788 773
f 748 749 750
f 1116 1118 1120
f 639 1120 640
f 234 233 245
f 245 233 244
f 245 244 68
f 226 225 237
f 283 271 270
f 150 157 158
f 158 151 150
f 170 171 157
f 219 220 173
f 6 155 4
f 219 173 218
f 232 222 221
f 221 220 232
f 74 77 78
f 68 74 75
f 418 425 426
f 418 75 425
f 70 245 68
f 1056 1087 1032
f 1054 1093 1056
f 989 1015 988
f 706 705 994
f 519 616 615
f 620 576 619
f 615 616 614
f 21 629 19
f 91 92 94
f 214 44 187
f 287 274 273
f 273 274 260
f 49 214 260
f 212 213 207
f 207 206 95
f 95 211 207
f 207 211 212
f 259 213 258
f 258 273 259
f 259 273 260
f 260 214 259
f 259 214 213
f 292 307 308
f 306 307 292
f 18 61 60
f 295 311 296
f 687 929 689
f 931 915 930
f 689 929 930
f 984 648 985
f 888 874 887
f 981 950 980
f 1017 1038 1018
f 1018 1038 1040
f 875 876 863
f 486 346 380
f 1022 981 1029
f 1022 1029 1030
f 3 88 2
f 86 84 87
f 85 84 86
f 86 477 85
f 80 84 83
f 83 84 85
f 81 80 83
f 83 85 81
f 2 1 137
f 240 239 139
f 139 80 240
f 80 241 240
f 227 239 228
f 229 218 228
f 228 240 229
f 239 240 228
f 346 485 336
f 484 485 486
f 131 485 484
f 481 432 482
f 356 432 481
f 478 473 474
f 474 473 357
f 474 357 359
f 926 942 943
f 912 925 926
f 924 940 941
f 941 925 924
f 941 942 926
f 926 925 941
f 1168 1169 1149
f 1129 1183 1128
f 785 803 804
f 802 788 801
f 845 844 859
f 805 785 804
f 815 816 802
f 815 801 814
f 802 801 815
f 937 938 922
f 922 938 923
f 715 716 714
f 714 1000 715
f 717 716 715
f 863 876 864
f 864 849 863
f 812 813 800
f 812 825 826
f 826 813 812
f 733 758 759
f 759 774 760
f 760 737 759
f 756 727 755
f 756 757 731
f 738 739 740
f 739 742 740
f 774 773 787
f 787 788 802
f 787 773 788
f 653 654 750
f 750 749 653
f 653 749 780
f 780 1141 653
f 750 654 655
f 654 656 655
f 1135 974 973
f 744 742 743
f 745 743 764
f 764 743 763
f 744 743 746
f 746 743 745
f 749 748 747
f 780 749 747
f 748 746 747
f 747 746 745
f 745 764 747
f 1115 1118 1116
f 1116 1221 1115
f 1218 1217 964
f 1117 1221 1116
f 1220 1221 1117
f 1117 1180 1220
f 1119 1120 1118
f 1119 640 1120
f 4 155 156
f 255 210 209
f 404 412 406
f 271 257 256
f 256 270 271
f 255 270 256
f 256 210 255
f 256 257 210
f 188 179 178
f 160 173 161
f 159 173 160
f 161 173 174
f 174 173 220
f 151 159 152
f 219 218 230
f 230 218 229
f 230 220 219
f 229 240 230
f 230 240 241
f 80 77 242
f 242 241 80
f 242 77 243
f 242 230 241
f 172 173 159
f 172 218 173
f 172 159 171
f 171 218 172
f 176 223 112
f 222 223 176
f 413 412 411
f 427 422 426
f 362 422 427
f 74 78 79
f 79 75 74
f 425 75 79
f 417 418 419
f 69 418 417
f 1003 1000 1002
f 442 322 378
f 1033 1035 1036
f 1036 1035 1038
f 1032 1013 1057
f 1057 1056 1032
f 1015 989 1014
f 1032 1015 1014
f 1014 1013 1032
f 995 994 705
f 1049 1050 1051
f 1053 1011 1051
f 1051 1011 1010
f 1010 1009 1051
f 1051 1009 1049
f 1030 1074 1073
f 1075 1074 1030
f 616 519 518
f 320 59 24
f 24 58 320
f 24 19 22
f 59 19 24
f 58 288 304
f 22 19 517
f 517 19 629
f 574 576 621
f 623 619 578
f 576 501 578
f 578 619 576
f 617 614 616
f 617 621 620
f 617 616 621
f 620 619 617
f 507 614 613
f 614 617 613
f 572 614 507
f 21 19 20
f 20 19 59
f 501 499 500
f 498 634 496
f 577 501 576
f 576 574 577
f 93 92 98
f 93 94 92
f 258 271 272
f 272 273 258
f 47 519 570
f 197 196 206
f 206 207 197
f 187 186 197
f 186 196 197
f 197 207 213
f 197 214 187
f 213 214 197
f 28 124 26
f 26 124 125
f 587 956 341
f 545 543 550
f 350 527 529
f 528 527 350
f 591 343 348
f 348 529 591
f 293 308 294
f 293 292 308
f 17 18 16
f 16 18 60
f 16 379 17
f 60 379 16
f 311 295 310
f 294 309 310
f 310 295 294
f 929 687 928
f 928 687 686
f 891 876 890
f 890 903 891
f 688 687 689
f 686 687 688
f 984 686 688
f 688 648 984
f 1015 1036 1016
f 988 1015 1016
f 1016 987 988
f 1016 1038 1017
f 1016 1036 1038
f 988 987 691
f 1017 1018 986
f 986 1018 985
f 986 1016 1017
f 987 1016 986
f 1030 1029 1028
f 1028 1075 1030
f 1078 1075 1028
f 1028 1026 1078
f 879 867 866
f 866 878 879
f 866 867 851
f 862 847 861
f 862 875 863
f 874 875 862
f 863 849 848
f 848 862 863
f 847 862 848
f 835 834 848
f 848 849 835
f 833 847 848
f 848 834 833
f 345 344 434
f 345 380 346
f 434 380 345
f 434 344 338
f 490 380 434
f 486 380 490
f 340 381 339
f 340 947 381
f 1024 947 948
f 1031 494 381
f 1031 1022 1030
f 1031 1073 1072
f 1030 1073 1031
f 88 3 90
f 131 484 90
f 238 239 227
f 238 137 239
f 138 137 1
f 239 137 138
f 138 1 139
f 139 239 138
f 217 218 171
f 217 228 218
f 170 216 217
f 171 170 217
f 217 216 227
f 227 228 217
f 337 485 131
f 337 336 485
f 430 432 429
f 354 356 481
f 458 407 460
f 406 412 365
f 365 412 414
f 424 422 362
f 424 423 422
f 394 393 368
f 17 379 383
f 383 379 382
f 432 356 431
f 429 432 431
f 476 477 429
f 476 471 477
f 429 431 476
f 426 425 374
f 425 79 374
f 374 79 78
f 910 923 924
f 909 923 910
f 924 925 910
f 896 909 910
f 684 1157 1156
f 668 667 1151
f 1175 1186 1184
f 1184 1183 1129
f 1181 1177 1128
f 1220 1180 1219
f 1127 1183 1225
f 1127 1128 1183
f 1127 1181 1128
f 783 777 776
f 776 763 762
f 776 777 763
f 790 789 770
f 770 789 771
f 771 756 770
f 757 756 771
f 728 727 730
f 730 727 729
f 732 730 729
f 731 732 729
f 729 756 731
f 727 756 729
f 668 1149 860
f 860 859 668
f 845 859 860
f 666 667 668
f 668 859 666
f 817 805 804
f 817 816 830
f 804 803 817
f 817 803 816
f 806 805 818
f 805 817 818
f 818 817 830
f 784 806 783
f 784 805 806
f 785 805 784
f 783 776 784
f 784 776 785
f 827 815 814
f 851 867 852
f 852 838 851
f 851 838 837
f 844 843 857
f 831 818 830
f 832 818 831
f 856 870 871
f 856 857 842
f 842 857 843
f 939 923 938
f 939 940 924
f 924 923 939
f 879 878 892
f 892 893 879
f 892 878 891
f 1001 1002 1000
f 715 1000 643
f 643 717 715
f 725 728 726
f 727 728 725
f 726 724 725
f 725 724 723
f 752 723 721
f 721 724 722
f 723 724 721
f 722 720 721
f 721 720 719
f 811 824 825
f 825 812 811
f 823 824 811
f 810 823 811
f 811 798 810
f 810 798 797
f 798 792 797
f 822 809 821
f 993 1009 1010
f 994 1009 993
f 736 734 735
f 734 733 735
f 735 737 736
f 759 737 735
f 735 733 759
f 739 737 761
f 737 760 761
f 761 760 774
f 761 776 762
f 802 803 786
f 786 787 802
f 803 785 786
f 786 785 774
f 774 787 786
f 762 763 741
f 763 743 741
f 741 761 762
f 739 761 741
f 741 742 739
f 741 743 742
f 763 777 778
f 778 764 763
f 778 777 783
f 780 747 765
f 765 747 764
f 1137 974 1135
f 965 1218 964
f 965 972 1139
f 1139 1218 965
f 331 332 525
f 630 629 21
f 334 331 630
f 964 1217 526
f 526 1120 639
f 1217 1120 526
f 584 526 639
f 582 526 584
f 584 640 637
f 639 640 584
f 496 634 633
f 634 636 633
f 119 114 117
f 114 119 110
f 236 237 225
f 236 235 246
f 163 156 107
f 8 9 7
f 210 9 8
f 8 209 210
f 120 122 123
f 123 122 117
f 117 114 123
f 72 73 246
f 408 404 375
f 266 252 251
f 226 237 251
f 392 386 382
f 394 386 392
f 392 393 394
f 290 305 306
f 317 301 316
f 317 302 301
f 287 273 286
f 286 302 287
f 283 298 299
f 299 300 283
f 314 300 299
f 299 313 314
f 298 313 299
f 315 300 314
f 316 301 315
f 301 300 315
f 126 125 134
f 193 183 192
f 126 134 128
f 128 134 135
f 203 204 193
f 154 160 161
f 159 160 153
f 153 152 159
f 160 154 153
f 168 148 102
f 147 144 145
f 146 144 147
f 220 230 231
f 230 242 231
f 232 220 231
f 231 243 232
f 231 242 243
f 175 221 222
f 222 176 175
f 220 221 175
f 175 174 220
f 107 176 109
f 109 163 107
f 112 108 109
f 109 176 112
f 412 404 410
f 410 411 412
f 404 408 410
f 410 408 411
f 359 468 472
f 472 474 359
f 471 476 472
f 426 422 420
f 422 419 420
f 420 418 426
f 420 419 418
f 421 419 422
f 422 423 421
f 418 69 76
f 68 75 76
f 75 418 76
f 76 69 70
f 76 70 68
f 977 1062 1002
f 1004 1000 1003
f 1048 1050 1049
f 441 1071 442
f 1034 1015 1032
f 1034 1036 1015
f 1033 1036 1034
f 1034 1087 1033
f 1032 1087 1034
f 1033 1087 1088
f 1087 1092 1088
f 1090 1056 1093
f 990 1014 989
f 1013 1014 990
f 833 821 698
f 698 821 701
f 696 989 988
f 696 990 989
f 695 990 696
f 1012 990 991
f 1013 990 1012
f 994 995 1008
f 1008 1009 994
f 1008 996 1007
f 995 996 1008
f 1007 1045 1008
f 1052 1093 1054
f 1050 1095 1052
f 1053 1051 1052
f 1052 1051 1050
f 57 56 622
f 622 56 573
f 622 574 621
f 573 574 622
f 621 616 622
f 616 518 622
f 50 518 519
f 260 274 52
f 52 49 260
f 52 274 287
f 287 288 52
f 320 58 319
f 58 304 319
f 303 288 287
f 303 304 288
f 287 302 303
f 303 317 318
f 302 317 303
f 318 319 303
f 303 319 304
f 23 24 22
f 22 517 23
f 58 24 23
f 573 56 23
f 23 517 573
f 55 288 58
f 58 23 55
f 55 23 56
f 55 56 57
f 629 628 575
f 575 517 629
f 628 577 575
f 575 577 574
f 573 517 575
f 575 574 573
f 536 538 535
f 194 183 193
f 193 204 194
f 194 205 195
f 204 205 194
f 567 572 507
f 507 506 611
f 501 500 624
f 623 578 624
f 624 578 501
f 497 498 496
f 626 499 501
f 501 577 626
f 284 271 283
f 283 300 284
f 48 47 570
f 30 31 32
f 179 134 133
f 133 134 125
f 28 26 29
f 29 30 28
f 31 30 29
f 29 26 25
f 25 534 29
f 954 1134 953
f 956 587 1132
f 1214 945 1132
f 1215 1249 1213
f 1212 1134 1214
f 1214 1215 1212
f 1212 1215 1213
f 508 510 559
f 530 527 531
f 530 529 527
f 591 529 530
f 349 528 350
f 32 528 349
f 535 527 524
f 527 528 524
f 524 536 535
f 534 536 524
f 524 29 534
f 31 29 524
f 32 31 524
f 524 528 32
f 350 529 347
f 529 348 347
f 278 279 266
f 278 293 294
f 294 295 278
f 295 279 278
f 280 295 296
f 280 279 295
f 296 297 280
f 297 281 280
f 266 279 280
f 281 268 280
f 120 123 254
f 269 270 255
f 283 270 269
f 889 902 903
f 903 890 889
f 889 874 888
f 889 875 874
f 876 875 889
f 889 890 876
f 903 902 916
f 935 919 918
f 914 900 689
f 915 900 914
f 689 930 914
f 914 930 915
f 888 887 901
f 887 900 901
f 901 889 888
f 902 889 901
f 901 900 915
f 915 916 901
f 901 916 902
f 647 985 648
f 647 986 985
f 649 887 886
f 649 900 887
f 886 647 649
f 649 647 648
f 689 900 649
f 649 688 689
f 648 688 649
f 988 691 690
f 690 696 988
f 861 696 690
f 692 862 861
f 874 862 692
f 861 690 692
f 692 690 691
f 692 887 874
f 948 952 982
f 982 952 981
f 981 1022 982
f 982 1024 948
f 1022 1024 982
f 950 981 951
f 981 952 951
f 652 650 651
f 979 650 652
f 686 979 652
f 651 928 652
f 652 928 686
f 980 950 978
f 978 979 980
f 1038 1035 1037
f 1027 1025 1026
f 1027 1028 1029
f 1026 1028 1027
f 980 1025 1027
f 1027 981 980
f 1029 981 1027
f 1019 1018 1040
f 984 985 1019
f 985 1018 1019
f 980 979 1021
f 1021 1025 980
f 850 866 851
f 850 837 836
f 851 837 850
f 850 836 835
f 835 849 850
f 878 866 877
f 877 876 891
f 891 878 877
f 435 338 339
f 434 338 435
f 481 482 487
f 487 482 486
f 486 490 487
f 434 435 437
f 339 381 437
f 437 435 339
f 381 947 1023
f 947 1024 1023
f 1023 1024 1022
f 1023 1031 381
f 1022 1031 1023
f 131 90 130
f 130 90 3
f 484 430 372
f 372 90 484
f 483 482 432
f 432 430 483
f 486 482 483
f 483 484 486
f 483 430 484
f 480 354 481
f 356 354 355
f 495 1031 1072
f 494 1031 495
f 461 460 407
f 407 365 461
f 461 365 364
f 414 416 363
f 363 365 414
f 364 365 363
f 415 416 414
f 415 412 413
f 414 412 415
f 468 467 360
f 362 468 360
f 360 361 362
f 359 357 358
f 358 468 359
f 358 467 468
f 462 423 465
f 423 424 465
f 459 457 401
f 402 458 459
f 459 401 402
f 401 457 452
f 394 368 451
f 451 450 394
f 394 450 388
f 388 386 394
f 388 387 386
f 17 383 324
f 323 445 378
f 323 446 445
f 433 431 356
f 474 431 433
f 478 474 433
f 426 374 470
f 470 374 471
f 82 374 78
f 82 77 81
f 82 78 77
f 477 471 373
f 471 374 373
f 81 477 373
f 373 82 81
f 374 82 373
f 925 912 911
f 911 910 925
f 896 910 897
f 667 666 669
f 913 912 926
f 1156 1162 1155
f 1155 684 1156
f 1156 1157 1161
f 1161 1162 1156
f 675 913 678
f 678 943 944
f 1126 1169 1168
f 1168 1195 1126
f 1197 1195 1168
f 1195 1197 1196
f 1196 1126 1195
f 665 664 1147
f 1147 661 665
f 1190 1191 1188
f 1186 1173 1188
f 1189 1188 1191
f 1187 1186 1189
f 1186 1188 1189
f 1174 1186 1175
f 1174 1173 1186
f 1190 1188 1172
f 1172 1188 1173
f 1172 1173 1145
f 1185 1186 1187
f 1185 1184 1186
f 1183 1184 1185
f 1187 1227 1185
f 1225 1183 1185
f 1140 653 1141
f 1129 1128 1176
f 1128 1177 1176
f 1176 1184 1129
f 1175 1184 1176
f 1176 1140 1141
f 1177 1140 1176
f 1224 1219 1180
f 1222 1127 1225
f 1223 1127 1222
f 807 661 662
f 662 661 1145
f 1145 1173 1144
f 774 785 775
f 785 776 775
f 775 761 774
f 776 761 775
f 791 792 798
f 800 789 799
f 789 790 799
f 799 812 800
f 799 791 798
f 790 791 799
f 798 811 799
f 799 811 812
f 806 818 819
f 819 818 832
f 815 827 828
f 816 815 828
f 885 669 873
f 873 669 666
f 884 885 873
f 873 666 859
f 869 868 880
f 869 882 870
f 869 854 868
f 872 857 856
f 856 871 872
f 872 873 857
f 884 873 872
f 884 872 883
f 883 872 871
f 870 882 883
f 883 871 870
f 883 882 896
f 896 897 883
f 868 854 853
f 853 854 839
f 855 870 856
f 855 869 870
f 854 869 855
f 856 842 855
f 855 842 841
f 905 920 906
f 919 920 905
f 906 893 905
f 893 892 905
f 905 892 891
f 905 918 919
f 908 909 896
f 896 895 908
f 922 923 908
f 908 923 909
f 894 895 880
f 907 908 894
f 894 908 895
f 962 1001 963
f 1000 714 963
f 963 1001 1000
f 718 717 642
f 717 643 642
f 643 641 642
f 751 710 752
f 752 721 751
f 751 721 719
f 755 727 754
f 727 725 754
f 754 725 723
f 1010 1011 992
f 992 993 1010
f 992 1012 991
f 1011 1012 992
f 991 698 992
f 657 778 783
f 658 778 657
f 657 806 807
f 783 806 657
f 807 662 657
f 780 765 781
f 781 1141 780
f 764 778 779
f 779 765 764
f 974 1137 1138
f 1139 972 1138
f 335 630 21
f 334 630 335
f 582 580 326
f 326 526 582
f 525 332 579
f 579 635 525
f 579 580 582
f 638 584 637
f 582 584 583
f 634 635 583
f 583 636 634
f 583 638 636
f 584 638 583
f 525 635 631
f 631 331 525
f 631 630 331
f 631 628 629
f 629 630 631
f 117 122 118
f 118 119 117
f 224 236 225
f 235 236 224
f 225 114 224
f 114 110 224
f 115 110 119
f 112 113 177
f 177 108 112
f 120 209 208
f 209 8 208
f 215 123 114
f 215 225 226
f 215 114 225
f 252 123 215
f 226 251 215
f 215 251 252
f 400 407 402
f 402 401 400
f 400 401 399
f 405 404 406
f 405 403 404
f 407 400 405
f 406 365 405
f 405 365 407
f 376 11 375
f 375 404 376
f 404 403 376
f 71 408 67
f 67 72 71
f 73 72 67
f 411 408 409
f 409 408 71
f 11 376 63
f 264 249 263
f 12 63 64
f 11 63 12
f 266 251 265
f 265 251 264
f 265 278 266
f 264 278 265
f 250 251 237
f 250 249 264
f 264 251 250
f 393 455 454
f 399 401 454
f 454 368 393
f 391 455 393
f 456 455 391
f 306 292 291
f 291 290 306
f 301 302 285
f 302 286 285
f 285 300 301
f 285 284 300
f 273 272 285
f 285 286 273
f 285 272 271
f 271 284 285
f 34 135 182
f 182 183 34
f 182 192 183
f 33 35 521
f 193 192 202
f 202 203 193
f 149 146 147
f 148 146 149
f 6 102 149
f 149 102 148
f 104 105 106
f 103 105 104
f 103 102 6
f 104 102 103
f 168 102 169
f 169 202 168
f 203 202 169
f 204 203 169
f 140 165 164
f 142 165 140
f 144 165 142
f 140 141 142
f 199 188 198
f 198 164 199
f 199 164 165
f 162 176 107
f 162 175 176
f 107 156 162
f 162 156 155
f 155 154 162
f 162 154 161
f 161 174 162
f 174 175 162
f 469 472 468
f 469 468 362
f 362 427 469
f 469 427 426
f 426 470 469
f 471 472 469
f 469 470 471
f 475 431 474
f 474 472 475
f 475 476 431
f 475 472 476
f 1060 977 1058
f 1062 977 1060
f 1060 1059 1062
f 322 442 321
f 442 969 321
f 999 1004 1005
f 999 643 1000
f 1000 1004 999
f 1005 1004 1066
f 1065 1104 1067
f 1067 1066 1065
f 1100 1048 1046
f 1046 1045 1098
f 1097 1048 1100
f 1050 1048 1097
f 1067 1104 1069
f 1069 1102 1098
f 1098 1045 1069
f 1006 1045 1007
f 1007 996 1006
f 371 442 378
f 371 441 442
f 440 371 370
f 441 371 440
f 1071 441 440
f 1089 1035 1033
f 1033 1088 1089
f 1086 1035 1089
f 1087 1056 1091
f 1056 1090 1091
f 1091 1092 1087
f 991 990 699
f 699 698 991
f 699 990 695
f 695 696 697
f 697 847 833
f 861 847 697
f 697 696 861
f 1055 1011 1053
f 1055 1012 1011
f 1055 1057 1013
f 1013 1012 1055
f 1053 1052 1055
f 1055 1052 1054
f 1054 1056 1055
f 1056 1057 1055
f 709 995 705
f 709 996 995
f 1093 1052 1094
f 1094 1052 1095
f 49 50 51
f 519 47 51
f 51 50 519
f 518 50 54
f 54 50 49
f 49 52 54
f 57 622 54
f 54 622 518
f 53 52 288
f 288 55 53
f 53 55 57
f 57 54 53
f 53 54 52
f 550 549 551
f 551 510 550
f 548 543 521
f 521 549 548
f 550 543 548
f 548 549 550
f 555 549 553
f 44 48 45
f 186 44 42
f 44 45 42
f 42 45 43
f 613 503 612
f 618 619 623
f 504 503 613
f 504 617 619
f 504 613 617
f 568 608 560
f 572 567 571
f 570 519 571
f 571 519 615
f 615 614 571
f 614 572 571
f 560 608 609
f 499 626 625
f 498 497 625
f 625 626 498
f 498 626 632
f 634 498 632
f 632 635 634
f 632 631 635
f 47 48 46
f 214 49 46
f 44 214 46
f 46 48 44
f 49 51 46
f 46 51 47
f 178 179 132
f 179 133 132
f 125 124 132
f 132 133 125
f 1134 954 1133
f 1214 1134 1133
f 946 945 1133
f 1133 945 1214
f 956 1132 957
f 957 1132 945
f 342 587 341
f 342 523 587
f 590 343 591
f 590 523 343
f 591 530 590
f 586 587 516
f 587 523 516
f 514 515 516
f 516 515 585
f 585 586 516
f 594 533 593
f 593 533 595
f 595 533 539
f 539 533 531
f 1216 586 585
f 1216 587 586
f 1216 1132 587
f 1214 1132 1216
f 1216 1215 1214
f 1215 1216 1253
f 1210 1212 1213
f 1134 1212 1210
f 1207 1209 1247
f 1208 1209 1207
f 531 533 532
f 532 530 531
f 594 592 532
f 532 533 594
f 266 280 267
f 267 280 268
f 268 254 267
f 283 269 282
f 282 298 283
f 936 919 935
f 936 920 919
f 921 937 922
f 922 908 921
f 921 908 907
f 932 915 931
f 932 916 915
f 935 918 934
f 903 916 917
f 917 918 903
f 917 932 933
f 916 932 917
f 933 934 917
f 917 934 918
f 694 647 886
f 986 647 694
f 886 887 694
f 949 978 950
f 949 650 979
f 979 978 949
f 1078 1026 1077
f 1020 1021 979
f 1019 1044 1020
f 1025 1021 1020
f 1020 1044 1025
f 1043 1041 1082
f 1025 1044 1043
f 1043 1044 1041
f 1039 1041 1040
f 1040 1038 1039
f 1038 1037 1039
f 1037 1084 1039
f 1082 1041 1039
f 849 864 865
f 865 850 849
f 866 850 865
f 865 877 866
f 865 864 876
f 876 877 865
f 481 487 353
f 352 480 353
f 353 480 481
f 429 477 428
f 428 430 429
f 428 372 430
f 477 86 428
f 428 86 87
f 87 372 428
f 87 88 89
f 89 372 87
f 88 90 89
f 90 372 89
f 356 355 479
f 478 433 479
f 479 433 356
f 436 438 490
f 437 438 436
f 436 490 434
f 434 437 436
f 416 415 464
f 466 465 424
f 362 361 466
f 466 424 362
f 401 452 453
f 453 454 401
f 368 454 453
f 453 452 366
f 366 368 453
f 367 368 366
f 367 451 368
f 448 388 450
f 328 324 383
f 328 384 329
f 328 383 382
f 382 384 328
f 446 323 330
f 329 384 330
f 330 384 446
f 322 323 377
f 378 322 377
f 377 323 378
f 382 386 385
f 385 384 382
f 386 387 385
f 445 446 385
f 446 384 385
f 912 899 898
f 898 911 912
f 910 911 898
f 898 897 910
f 898 885 884
f 898 899 885
f 884 883 898
f 898 883 897
f 672 899 912
f 912 913 672
f 885 899 672
f 672 669 885
f 959 1157 681
f 959 1158 1157
f 953 1134 1159
f 1159 1158 953
f 1134 1210 1159
f 1157 1158 1159
f 1159 1210 1208
f 684 685 682
f 681 1157 682
f 1157 684 682
f 944 685 679
f 679 678 944
f 679 685 684
f 926 943 927
f 943 678 927
f 927 913 926
f 927 678 913
f 1162 1161 1206
f 1206 1123 1162
f 1206 1161 1208
f 1208 1207 1206
f 1164 1153 1163
f 1166 1201 1199
f 1199 1197 1166
f 1164 1163 1203
f 1201 1203 1202
f 1190 1172 1192
f 1192 1172 1171
f 1126 1196 1194
f 663 664 665
f 845 860 846
f 846 860 1149
f 664 663 846
f 846 832 844
f 846 844 845
f 846 663 832
f 1170 1147 1169
f 1171 1147 1170
f 1169 1126 1170
f 1170 1192 1171
f 1148 1149 1169
f 1169 1147 1148
f 1148 846 1149
f 1148 1147 664
f 664 846 1148
f 1146 1147 1171
f 1146 1172 1145
f 1171 1172 1146
f 1145 661 1146
f 661 1147 1146
f 1226 1227 1187
f 1187 1189 1226
f 1226 1189 1231
f 1231 1189 1230
f 1191 1229 1230
f 1230 1189 1191
f 1225 1185 1228
f 1228 1185 1227
f 654 653 1136
f 653 1140 1136
f 1136 656 654
f 1136 1137 1135
f 1136 973 656
f 1135 973 1136
f 1136 1140 1177
f 1182 1224 1180
f 1180 1181 1182
f 1181 1127 1182
f 1223 1224 1182
f 1182 1127 1223
f 820 1144 658
f 658 657 820
f 820 657 662
f 820 662 1145
f 1145 1144 820
f 769 790 770
f 769 791 790
f 770 756 769
f 769 756 755
f 755 754 769
f 792 791 769
f 660 661 807
f 807 806 660
f 806 819 660
f 665 661 660
f 660 663 665
f 660 819 832
f 832 663 660
f 839 854 840
f 840 855 841
f 854 855 840
f 830 816 829
f 816 828 829
f 858 873 859
f 857 873 858
f 858 859 844
f 844 857 858
f 881 869 880
f 882 869 881
f 880 895 881
f 896 882 881
f 881 895 896
f 891 903 904
f 904 905 891
f 903 918 904
f 918 905 904
f 718 642 713
f 713 720 718
f 719 720 713
f 713 642 641
f 713 751 719
f 753 723 752
f 753 754 723
f 752 767 753
f 767 754 753
f 752 710 766
f 766 767 752
f 767 766 794
f 794 766 710
f 701 821 703
f 796 797 792
f 796 795 809
f 796 809 810
f 810 797 796
f 659 778 658
f 659 779 778
f 782 781 765
f 765 779 782
f 779 659 782
f 974 1138 971
f 971 1138 972
f 1139 1138 1130
f 1217 1218 1130
f 1130 1218 1139
f 1116 1120 1130
f 1130 1120 1217
f 325 326 580
f 580 579 325
f 964 526 327
f 526 326 327
f 581 579 582
f 635 579 581
f 582 583 581
f 581 583 635
f 111 110 116
f 110 115 116
f 121 122 120
f 120 208 121
f 395 455 456
f 395 13 66
f 456 14 395
f 395 14 13
f 73 67 10
f 10 12 73
f 11 12 10
f 375 11 10
f 10 408 375
f 10 67 408
f 65 66 64
f 64 63 65
f 65 63 376
f 264 263 276
f 292 293 276
f 248 250 237
f 249 250 248
f 237 236 248
f 64 249 248
f 248 12 64
f 393 392 390
f 390 391 393
f 390 392 382
f 382 379 390
f 379 391 390
f 456 391 389
f 389 391 379
f 389 379 60
f 389 14 456
f 521 543 541
f 543 540 541
f 601 536 534
f 126 128 127
f 99 96 205
f 99 205 204
f 204 169 99
f 104 106 99
f 99 106 96
f 99 102 104
f 99 169 102
f 96 106 100
f 5 6 4
f 5 103 6
f 143 145 144
f 144 142 143
f 143 142 141
f 179 188 189
f 188 199 189
f 1071 1113 1109
f 1058 1071 1109
f 1109 1110 1059
f 1109 1060 1058
f 1059 1060 1109
f 968 967 977
f 968 977 1002
f 968 1001 962
f 1002 1001 968
f 977 967 976
f 1058 977 976
f 961 960 976
f 976 960 1058
f 1058 960 975
f 975 969 442
f 975 1071 1058
f 442 1071 975
f 998 641 643
f 643 999 998
f 711 641 998
f 998 999 1005
f 1005 1066 1068
f 1068 1066 1067
f 1104 1065 1105
f 1105 1065 1106
f 1064 1065 1066
f 1003 1002 1064
f 1002 1062 1064
f 1064 1004 1003
f 1064 1066 1004
f 1106 1065 1063
f 1065 1064 1063
f 1100 1046 1099
f 1047 1048 1049
f 1047 1046 1048
f 1045 1046 1047
f 1047 1008 1045
f 1049 1009 1047
f 1009 1008 1047
f 1096 1095 1050
f 1050 1097 1096
f 1101 1069 1104
f 1102 1069 1101
f 445 385 444
f 444 385 387
f 378 445 444
f 444 371 378
f 1112 1113 1071
f 1071 440 1112
f 833 698 700
f 698 699 700
f 700 699 695
f 700 697 833
f 695 697 700
f 711 998 997
f 997 1006 996
f 1005 1006 997
f 997 998 1005
f 751 713 712
f 710 751 712
f 712 645 710
f 712 641 711
f 712 713 641
f 644 709 710
f 710 645 644
f 996 709 644
f 521 35 520
f 520 549 521
f 520 553 549
f 613 612 505
f 505 506 507
f 507 613 505
f 619 618 502
f 502 504 619
f 503 504 502
f 569 567 507
f 569 568 567
f 610 568 569
f 569 611 610
f 507 611 569
f 607 568 610
f 608 568 607
f 557 549 555
f 557 551 549
f 557 559 510
f 510 551 557
f 560 559 557
f 557 558 560
f 567 568 566
f 565 571 567
f 561 559 560
f 560 609 561
f 508 559 561
f 627 626 577
f 627 632 626
f 627 577 628
f 628 631 627
f 631 632 627
f 946 1133 955
f 955 1133 954
f 522 342 343
f 343 523 522
f 523 342 522
f 523 590 589
f 589 516 523
f 589 590 530
f 530 532 589
f 514 516 589
f 513 539 538
f 599 598 513
f 513 538 599
f 598 511 513
f 537 539 531
f 538 539 537
f 535 538 537
f 531 527 537
f 537 527 535
f 1249 1215 1254
f 1215 1253 1254
f 1252 1216 585
f 1252 1253 1216
f 1211 1210 1213
f 1211 1209 1208
f 1208 1210 1211
f 1245 1242 1121
f 1247 1209 1246
f 1209 1211 1246
f 1246 1211 1251
f 509 510 508
f 509 606 510
f 604 547 603
f 510 606 552
f 550 510 552
f 552 603 547
f 552 545 550
f 552 547 545
f 253 252 266
f 266 267 253
f 253 267 254
f 253 123 252
f 253 254 123
f 693 692 691
f 986 694 693
f 887 692 693
f 693 694 887
f 693 691 987
f 987 986 693
f 1081 1077 1026
f 1085 1084 1037
f 1085 1035 1086
f 1085 1037 1035
f 1042 1019 1040
f 1042 1044 1019
f 1040 1041 1042
f 1041 1044 1042
f 983 1020 979
f 983 686 984
f 983 979 686
f 984 1019 983
f 1019 1020 983
f 1079 1043 1082
f 1080 1043 1079
f 1082 1039 1083
f 1083 1039 1084
f 495 492 439
f 494 495 439
f 439 438 437
f 439 492 493
f 493 438 439
f 381 494 439
f 439 437 381
f 491 438 493
f 352 353 351
f 463 415 423
f 463 423 462
f 463 464 415
f 449 447 387
f 387 388 449
f 388 448 449
f 1153 1152 670
f 670 674 1153
f 669 672 670
f 670 672 674
f 675 676 677
f 1153 674 677
f 953 1158 958
f 1158 959 958
f 1208 1161 1160
f 1160 1159 1208
f 1160 1161 1157
f 1157 1159 1160
f 681 682 683
f 683 682 685
f 680 679 684
f 684 1155 680
f 1155 676 680
f 678 679 680
f 675 678 680
f 680 676 675
f 1121 1242 1243
f 1162 1123 1122
f 1122 1163 1162
f 1122 1203 1163
f 1121 1203 1122
f 1151 1152 1165
f 1165 1166 1151
f 1165 1153 1164
f 1165 1152 1153
f 1201 1166 1165
f 1164 1203 1165
f 1165 1203 1201
f 1167 1197 1168
f 1167 1166 1197
f 1168 1149 1167
f 1199 1201 1200
f 1201 1202 1200
f 1200 1202 1240
f 1240 1202 1239
f 1239 1202 1244
f 1244 1202 1204
f 1204 1243 1244
f 1121 1243 1204
f 1204 1203 1121
f 1204 1202 1203
f 1196 1238 1235
f 1235 1194 1196
f 1193 1191 1190
f 1190 1192 1193
f 1233 1234 1193
f 1193 1234 1229
f 1193 1229 1191
f 1125 1170 1126
f 1192 1170 1125
f 1178 1136 1177
f 1137 1136 1178
f 1177 1181 1178
f 1181 1137 1178
f 768 754 767
f 768 769 754
f 768 767 792
f 792 769 768
f 792 767 793
f 767 794 793
f 793 796 792
f 793 794 795
f 795 796 793
f 708 709 705
f 708 705 706
f 710 709 708
f 708 794 710
f 795 794 708
f 707 708 706
f 795 708 707
f 808 821 809
f 808 703 821
f 809 795 808
f 795 707 808
f 808 707 703
f 701 703 702
f 702 698 701
f 702 992 698
f 658 1144 1143
f 1143 659 658
f 1173 1174 1143
f 1143 1144 1173
f 1143 782 659
f 1143 1174 1175
f 1131 1117 1116
f 1116 1130 1131
f 1131 1130 1138
f 333 579 332
f 333 325 579
f 396 395 66
f 66 65 396
f 396 65 376
f 277 278 264
f 264 276 277
f 293 278 277
f 277 276 293
f 262 276 263
f 64 66 262
f 262 249 64
f 262 263 249
f 247 248 236
f 246 73 247
f 247 236 246
f 73 12 247
f 12 248 247
f 62 389 60
f 14 389 62
f 136 33 521
f 521 541 136
f 34 33 136
f 536 601 600
f 599 538 600
f 538 536 600
f 600 601 540
f 126 127 27
f 540 601 27
f 27 127 540
f 25 26 27
f 27 534 25
f 27 601 534
f 27 125 126
f 27 26 125
f 129 541 540
f 540 127 129
f 129 127 128
f 129 136 541
f 129 128 135
f 129 135 34
f 34 136 129
f 97 96 101
f 96 100 101
f 180 134 179
f 179 189 180
f 135 134 180
f 1059 1110 1111
f 1114 1109 1113
f 1110 1109 1114
f 961 976 966
f 966 976 967
f 969 975 970
f 970 975 960
f 1045 1006 1070
f 1070 1069 1045
f 1070 1006 1005
f 1005 1068 1070
f 1067 1069 1070
f 1070 1068 1067
f 1106 1063 1107
f 1061 1111 1108
f 1059 1111 1061
f 1108 1107 1061
f 1061 1107 1063
f 1062 1059 1061
f 1061 1064 1062
f 1061 1063 1064
f 1098 1102 1103
f 1103 1046 1098
f 1103 1099 1046
f 387 447 443
f 443 444 387
f 646 644 645
f 711 997 646
f 646 997 996
f 996 644 646
f 646 712 711
f 645 712 646
f 183 39 36
f 34 183 36
f 36 33 34
f 35 33 36
f 185 194 195
f 567 566 564
f 564 565 567
f 514 589 588
f 588 532 592
f 588 589 532
f 512 513 511
f 1251 1211 1250
f 1213 1249 1250
f 1250 1211 1213
f 1248 1207 1247
f 1248 1245 1207
f 1205 1245 1121
f 1207 1245 1205
f 1121 1122 1205
f 1205 1122 1123
f 1123 1206 1205
f 1205 1206 1207
f 597 511 598
f 602 597 546
f 546 597 598
f 604 602 546
f 546 547 604
f 546 598 599
f 599 544 546
f 546 544 545
f 545 547 546
f 605 552 606
f 603 552 605
f 1076 1081 1026
f 1026 1025 1076
f 1025 1043 1076
f 1080 1081 1076
f 1076 1043 1080
f 488 351 489
f 489 351 353
f 490 438 489
f 489 491 488
f 438 491 489
f 489 487 490
f 489 353 487
f 667 669 671
f 669 670 671
f 671 670 1152
f 671 1151 667
f 671 1152 1151
f 675 677 673
f 673 913 675
f 673 672 913
f 674 672 673
f 673 677 674
f 1154 676 1155
f 1154 677 676
f 1153 677 1154
f 1154 1163 1153
f 1154 1155 1162
f 1162 1163 1154
f 1150 1167 1149
f 1150 1149 668
f 668 1151 1150
f 1151 1166 1150
f 1166 1167 1150
f 1198 1197 1199
f 1199 1200 1198
f 1198 1196 1197
f 704 707 706
f 703 707 704
f 706 994 704
f 994 993 704
f 704 702 703
f 993 992 704
f 992 702 704
f 1142 1143 1175
f 1175 1176 1142
f 1142 1176 1141
f 782 1143 1142
f 1141 781 1142
f 781 782 1142
f 1180 1117 1179
f 1117 1131 1179
f 1179 1181 1180
f 1179 1137 1181
f 1179 1138 1137
f 1179 1131 1138
f 398 376 403
f 398 396 376
f 403 405 398
f 398 405 400
f 395 396 398
f 66 13 261
f 261 262 66
f 276 262 275
f 275 291 292
f 292 276 275
f 290 291 275
f 290 14 289
f 14 62 289
f 61 305 289
f 305 290 289
f 60 61 289
f 289 62 60
f 542 544 599
f 599 600 542
f 543 545 542
f 545 544 542
f 542 540 543
f 542 600 540
f 191 202 192
f 192 182 191
f 370 371 369
f 371 444 369
f 444 443 369
f 553 520 37
f 37 38 553
f 37 520 35
f 39 38 37
f 35 36 37
f 37 36 39
f 194 185 184
f 184 185 39
f 183 194 184
f 184 39 183
f 40 38 39
f 39 185 40
f 556 557 555
f 558 557 556
f 555 553 556
f 43 45 563
f 565 564 563
f 563 48 570
f 563 45 48
f 570 571 563
f 571 565 563
f 513 512 596
f 595 539 596
f 539 513 596
f 1235 1232 1124
f 1194 1235 1124
f 1124 1232 1233
f 1233 1193 1124
f 1126 1194 1124
f 1124 1125 1126
f 1124 1193 1192
f 1192 1125 1124
f 397 400 399
f 397 398 400
f 399 454 397
f 397 454 455
f 455 395 397
f 395 398 397
f 15 261 13
f 13 14 15
f 262 261 15
f 15 275 262
f 15 14 290
f 290 275 15
f 181 182 135
f 181 191 182
f 135 180 181
f 180 191 181
f 200 199 165
f 200 189 199
f 553 38 41
f 38 40 41
f 1198 1236 1237
f 1237 1238 1196
f 1196 1198 1237
f 1241 1200 1240
f 1241 1198 1200
f 1241 1236 1198
f 166 165 144
f 166 200 165
f 202 191 201
f 191 200 201
f 190 180 189
f 189 200 190
f 190 191 180
f 190 200 191
f 554 556 553
f 553 41 554
f 144 146 167
f 167 166 144
f 200 166 167
f 167 201 200
f 167 148 168
f 167 146 148
f 168 202 167
f 202 201 167
f 43 563 562
f 562 563 564
f 867 879 880
f 880 868 867
f 835 823 834
f 834 823 822
f 813 814 801
f 800 813 801
f 800 801 789
f 789 801 788
f 824 823 835
f 835 836 824
f 733 757 758
f 731 757 733
f 733 734 732
f 733 732 731
f 235 245 246
f 234 245 235
f 313 297 312
f 313 298 297
f 771 789 788
f 771 788 772
f 758 757 771
f 772 758 771
f 827 814 813
f 827 813 826
f 827 838 839
f 826 838 827
f 837 824 836
f 825 824 837
f 837 838 826
f 826 825 837
f 831 843 844
f 844 832 831
f 843 831 842
f 842 831 830
f 821 834 822
f 833 834 821
f 112 110 113
f 113 110 111
f 70 69 72
f 72 69 71
f 246 245 72
f 245 70 72
f 206 196 205
f 205 196 195
f 152 153 145
f 145 153 147
f 411 419 421
f 413 411 421
f 254 209 120
f 255 209 254
f 255 254 269
f 269 254 268
f 413 421 415
f 415 421 423
f 853 867 868
f 853 852 867
f 839 838 853
f 838 852 853
f 880 879 894
f 879 893 894
f 894 893 906
f 906 907 894
f 234 235 224
f 224 223 234
f 224 110 112
f 112 223 224
f 409 419 411
f 417 419 409
f 71 69 409
f 409 69 417
f 96 97 98
f 98 92 96
f 206 205 96
f 92 206 96
f 147 153 149
f 149 153 154
f 155 6 149
f 149 154 155
f 282 269 268
f 282 268 281
f 297 298 282
f 282 281 297
f 921 936 937
f 920 936 921
f 921 907 906
f 906 920 921
f 840 827 839
f 840 828 827
f 829 842 830
f 841 842 829
f 828 840 829
f 829 840 841
f 152 145 143
f 151 152 143
f 143 141 150
f 143 150 151
f 560 558 566
f 566 568 560
f 157 150 683
f 651 650 683
f 227 216 683
f 683 3 2
f 683 941 940
f 683 928 651
f 948 947 683
f 341 956 683
f 683 945 946
f 683 936 935
f 944 943 683
f 683 337 131
f 683 141 140
f 28 30 683
f 931 930 683
f 2 137 683
f 683 170 157
f 683 349 350
f 683 952 948
f 346 336 683
f 683 949 950
f 683 342 341
f 683 685 944
f 683 188 178
f 940 939 683
f 140 164 683
f 956 957 683
f 683 930 929
f 683 345 346
f 339 338 683
f 950 951 683
f 683 340 339
f 683 238 227
f 683 943 942
f 942 941 683
f 131 130 683
f 938 937 683
f 150 141 683
f 198 188 683
f 683 216 170
f 683 124 28
f 683 954 953
f 683 348 343
f 929 928 683
f 683 932 931
f 350 347 683
f 935 934 683
f 344 345 683
f 683 338 344
f 947 340 683
f 137 238 683
f 336 337 683
f 683 939 938
f 683 30 32
f 946 955 683
f 178 132 683
f 32 349 683
f 683 347 348
f 683 951 952
f 683 130 3
f 953 958 683
f 683 164 198
f 683 132 124
f 683 957 945
f 343 342 683
f 937 936 683
f 933 932 683
f 683 934 933
f 650 949 683
f 683 959 681
f 683 955 954
f 683 958 959
f 101 118 122
f 7 91 101
f 101 8 7
f 156 163 101
f 98 97 101
f 91 94 101
f 4 156 101
f 101 113 111
f 101 93 98
f 94 93 101
f 101 109 108
f 101 5 4
f 122 121 101
f 108 177 101
f 111 116 101
f 163 109 101
f 119 118 101
f 101 115 119
f 101 177 113
f 101 208 8
f 101 106 105
f 105 103 101
f 101 116 115
f 101 121 208
f 101 100 106
f 103 5 101
f 732 734 970
f 970 317 316
f 320 319 970
f 309 308 970
f 970 307 306
f 744 746 970
f 970 313 312
f 970 748 750
f 970 968 962
f 970 335 21
f 21 20 970
f 970 736 738
f 738 740 970
f 970 18 17
f 332 331 970
f 726 728 970
f 970 730 732
f 970 717 718
f 970 310 309
f 306 305 970
f 970 59 320
f 964 327 970
f 308 307 970
f 962 963 970
f 312 311 970
f 970 323 322
f 970 724 726
f 970 734 736
f 970 742 744
f 750 655 970
f 970 973 974
f 718 720 970
f 61 18 970
f 17 324 970
f 970 714 716
f 716 717 970
f 970 740 742
f 970 655 656
f 656 973 970
f 970 746 748
f 329 330 970
f 970 965 964
f 970 305 61
f 316 315 970
f 970 20 59
f 311 310 970
f 314 313 970
f 970 728 730
f 722 724 970
f 970 720 722
f 972 965 970
f 970 331 334
f 318 317 970
f 970 315 314
f 322 321 970
f 970 319 318
f 970 960 961
f 970 328 329
f 970 963 714
f 334 335 970
f 974 971 970
f 970 333 332
f 970 321 969
f 961 966 970
f 324 328 970
f 970 330 323
f 970 971 972
f 326 325 970
f 970 327 326
f 967 968 970
f 325 333 970
f 970 966 967
f 195 196 185
f 185 196 186
f 369 448 450
f 361 360 369
f 369 491 493
f 357 473 369
f 369 480 352
f 369 1075 1078
f 369 1103 1102
f 369 1081 1080
f 1104 1105 369
f 369 1114 1113
f 1072 1073 369
f 369 473 478
f 1078 1077 369
f 458 460 369
f 369 358 357
f 462 465 369
f 369 466 361
f 369 440 370
f 1092 1091 369
f 369 1073 1074
f 1074 1075 369
f 369 1090 1093
f 1093 1094 369
f 493 492 369
f 369 495 1072
f 369 461 364
f 364 363 369
f 369 459 458
f 366 452 369
f 447 449 369
f 1095 1096 369
f 369 1097 1100
f 369 1088 1092
f 1086 1089 369
f 369 1085 1086
f 354 480 369
f 369 355 354
f 478 479 369
f 460 461 369
f 369 363 416
f 369 360 467
f 467 358 369
f 352 351 369
f 457 459 369
f 369 452 457
f 450 451 369
f 369 367 366
f 1100 1099 369
f 369 1101 1104
f 369 1089 1088
f 369 1091 1090
f 369 1094 1095
f 1113 1112 369
f 369 1079 1082
f 369 479 355
f 369 492 495
f 1082 1083 369
f 416 464 369
f 465 466 369
f 451 367 369
f 369 463 462
f 1108 1111 369
f 369 1105 1106
f 369 1107 1108
f 369 1096 1097
f 1102 1101 369
f 369 1112 440
f 1077 1081 369
f 1084 1085 369
f 1080 1079 369
f 369 1083 1084
f 488 491 369
f 369 351 488
f 464 463 369
f 369 449 448
f 369 1111 1110
f 1110 1114 369
f 1106 1107 369
f 1099 1103 369
f 369 443 447
f 40 185 186
f 186 42 40
f 556 566 558
f 556 564 566
f 41 40 42
f 41 42 43
f 496 633 1241
f 594 593 1241
f 585 515 1241
f 1118 1115 1241
f 623 624 1241
f 1241 618 623
f 1241 1224 1223
f 1220 1219 1241
f 1241 497 496
f 1241 1221 1220
f 637 640 1241
f 1241 1119 1118
f 1241 611 506
f 514 588 1241
f 1241 1243 1242
f 1241 602 604
f 1241 1115 1221
f 1241 1222 1225
f 640 1119 1241
f 1225 1228 1241
f 1241 500 499
f 499 625 1241
f 1241 592 594
f 1231 1230 1241
f 1241 1226 1231
f 1241 633 636
f 1241 638 637
f 610 611 1241
f 503 502 1241
f 1241 624 500
f 1241 607 610
f 1241 515 514
f 1249 1254 1241
f 1241 1250 1249
f 1241 1252 585
f 595 596 1241
f 1241 1234 1233
f 1219 1224 1241
f 1223 1222 1241
f 636 638 1241
f 1241 612 503
f 506 505 1241
f 1241 609 608
f 1241 625 497
f 1241 605 606
f 1241 593 595
f 508 561 1241
f 1233 1232 1241
f 1247 1246 1241
f 1241 509 508
f 604 603 1241
f 1240 1239 1241
f 1227 1226 1241
f 1229 1234 1241
f 1241 1230 1229
f 1241 1228 1227
f 1241 505 612
f 1241 502 618
f 608 607 1241
f 1241 561 609
f 1241 1254 1253
f 1253 1252 1241
f 1242 1245 1241
f 1241 1246 1251
f 1241 1248 1247
f 606 509 1241
f 511 597 1241
f 1244 1243 1241
f 1241 1239 1244
f 1241 1235 1238
f 1241 588 592
f 1241 512 511
f 1251 1250 1241
f 1245 1248 1241
f 1241 597 602
f 603 605 1241
f 1241 1232 1235
f 1241 596 512
f 1238 1237 1241
f 1241 1237 1236
f 562 41 43
f 562 554 41
f 564 556 562
f 556 554 562

