# https://github.com/mikedh/trimesh
v 0.00799847 0.00703875 0.00748452
v 0.00900000 0.00644305 0.00685415
v 0.00900000 0.00709737 0.00617011
v 0.00210000 -0.00000001 0.01286528
v 0.00199682 -0.00065017 0.01286528
v 0.00327786 -0.00063471 0.01259996
v -0.00160870 -0.00134986 0.01286528
v -0.00197336 -0.00071825 0.01286528
v -0.00198043 -0.00193813 0.01273726
v -0.00291052 0.00812499 0.00975781
v -0.00328019 0.00812499 0.00963939
v -0.00327786 0.00767489 0.01000354
v -0.00606004 0.00812499 0.00817606
v -0.00696407 0.00812499 0.00741749
v -0.00691387 0.00756134 0.00803754
v -0.00847863 0.00812499 0.00561250
v -0.00900000 0.00812499 0.00472476
v -0.00900000 0.00767942 0.00542362
v -0.00847863 -0.00812501 0.00561250
v -0.00900000 -0.00767944 0.00542362
v -0.00900000 -0.00812501 0.00472476
v -0.00777391 -0.00812501 0.00655910
v -0.00730631 -0.00812501 0.00707890
v -0.00799847 -0.00775359 0.00673725
v 0.00777391 -0.00812501 0.00655910
v 0.00799847 -0.00775359 0.00673725
v 0.00696406 -0.00812501 0.00741749
v 0.00900000 -0.00709739 0.00617011
v 0.00838953 -0.00812501 0.00574567
v 0.00900000 -0.00767944 0.00542362
v 0.00847863 -0.00812501 0.00561250
v 0.00900000 -0.00812501 0.00472476
v 0.00401946 -0.00812501 0.00935418
v 0.00454124 -0.00743151 0.00968743
v 0.00328018 -0.00812501 0.00963939
v 0.00327786 -0.00767491 0.01000354
v 0.00291051 -0.00812501 0.00975781
v 0.00176220 -0.00812501 0.01002996
v 0.00198043 -0.00783859 0.01021612
v 0.00066244 -0.00792086 0.01032296
v 0.00059006 -0.00812501 0.01016697
v -0.00066244 -0.00792086 0.01032296
v -0.00059006 -0.00812501 0.01016697
v -0.00198043 -0.00783859 0.01021612
v -0.00176220 -0.00812501 0.01002996
v -0.00327786 -0.00767491 0.01000354
v -0.00328019 -0.00812501 0.00963939
v -0.00291052 -0.00812501 0.00975781
v -0.00454124 -0.00743151 0.00968743
v -0.00454506 -0.00812501 0.00910943
v -0.00401947 -0.00812501 0.00935418
v -0.00575745 -0.00711093 0.00927109
v -0.00575745 -0.00800542 0.00850744
v -0.00507406 -0.00812501 0.00882454
v -0.00691387 -0.00756136 0.00803754
v -0.00696407 -0.00812501 0.00741749
v -0.00606004 -0.00812501 0.00817606
v -0.00799847 -0.00703877 0.00748452
v -0.00900000 -0.00709739 0.00617011
v -0.00838953 0.00812499 0.00574567
v -0.00900000 0.00709737 0.00617011
v -0.00777391 0.00812499 0.00655910
v -0.00401947 0.00812499 0.00935418
v -0.00454124 0.00743149 0.00968743
v -0.00454506 0.00812499 0.00910943
v -0.00507406 0.00812499 0.00882454
v -0.00176220 0.00812499 0.01002996
v 0.00198043 0.00783857 0.01021612
v 0.00059006 0.00812499 0.01016697
v 0.00066244 0.00792084 0.01032296
v -0.00059006 0.00812499 0.01016697
v -0.00066244 0.00792084 0.01032296
v -0.00198043 0.00783857 0.01021612
v 0.00327786 0.00767489 0.01000354
v 0.00291051 0.00812499 0.00975781
v 0.00176220 0.00812499 0.01002996
v 0.00454124 0.00743149 0.00968743
v 0.00401946 0.00812499 0.00935418
v 0.00328018 0.00812499 0.00963939
v 0.00575745 0.00711091 0.00927109
v 0.00507406 0.00812499 0.00882454
v 0.00454506 0.00812499 0.00910943
v 0.00575745 0.00800540 0.00850744
v 0.00691386 0.00756134 0.00803754
v 0.00606004 0.00812499 0.00817606
v 0.00696406 0.00812499 0.00741749
v 0.00730630 0.00812499 0.00707890
v 0.00799847 0.00775357 0.00673725
v 0.00777391 0.00812499 0.00655910
v 0.00847863 0.00812499 0.00561250
v -0.00105000 -0.00181866 0.01286528
v -0.00066244 -0.00324194 0.01260785
v -0.00067295 -0.00198927 0.01286528
v -0.00067841 -0.00198741 0.01286528
v -0.00198043 -0.00320827 0.01247727
v 0.00066244 -0.00324194 0.01260785
v 0.00036466 -0.00206811 0.01286528
v -0.00036466 -0.00206811 0.01286528
v 0.00198043 -0.00320827 0.01247727
v 0.00067841 -0.00198741 0.01286528
v 0.00067294 -0.00198927 0.01286528
v 0.00327786 -0.00189765 0.01247203
v 0.00197335 -0.00071825 0.01286528
v 0.00198043 -0.00193813 0.01273726
v 0.00160869 -0.00134986 0.01286528
v 0.00105000 -0.00181866 0.01286528
v 0.00198043 0.00193811 0.01273726
v 0.00067841 0.00198739 0.01286528
v 0.00105000 0.00181864 0.01286528
v -0.00066244 0.00324192 0.01260785
v -0.00036466 0.00206809 0.01286528
v 0.00066244 0.00324192 0.01260785
v 0.00036466 0.00206809 0.01286528
v -0.00198043 0.00320825 0.01247727
v -0.00067841 0.00198739 0.01286528
v -0.00067295 0.00198925 0.01286528
v -0.00198043 0.00193811 0.01273726
v -0.00160870 0.00134984 0.01286528
v -0.00105000 0.00181864 0.01286528
v -0.00327786 0.00063469 0.01259996
v -0.00199682 0.00065015 0.01286528
v -0.00197336 0.00071823 0.01286528
v -0.00327786 0.00189763 0.01247203
v 0.00900000 -0.00644307 0.00685415
v 0.00799847 -0.00703877 0.00748452
v 0.00691386 -0.00756136 0.00803754
v 0.00606004 -0.00812501 0.00817606
v 0.00575745 -0.00800542 0.00850744
v 0.00507406 -0.00812501 0.00882454
v 0.00900000 0.00767942 0.00542362
v 0.00900000 0.00812499 0.00472476
v 0.00900000 -0.00572315 0.00746876
v 0.00799847 -0.00625229 0.00815596
v 0.00691386 -0.00671649 0.00875882
v 0.00575745 -0.00711093 0.00927109
v 0.00454506 -0.00812501 0.00910943
v 0.00900000 0.00572313 0.00746876
v 0.00799847 0.00625227 0.00815596
v 0.00691386 0.00671647 0.00875882
v 0.00900000 -0.00141508 0.00930950
v 0.00900000 -0.00047330 0.00940490
v 0.00799847 -0.00154591 0.01016689
v 0.00799847 -0.00051706 0.01027111
v 0.00691386 -0.00166068 0.01091906
v 0.00691386 -0.00055545 0.01103101
v 0.00575745 -0.00175821 0.01155819
v 0.00575745 -0.00058807 0.01167671
v 0.00454124 -0.00183747 0.01207764
v 0.00454124 -0.00061458 0.01220152
v 0.00900000 0.00047328 0.00940490
v 0.00799847 0.00051704 0.01027111
v 0.00691386 0.00055543 0.01103101
v 0.00575745 0.00058805 0.01167671
v 0.00454124 0.00061456 0.01220152
v 0.00327786 0.00063469 0.01259996
v 0.00197335 0.00071823 0.01286528
v 0.00900000 0.00141506 0.00930950
v 0.00799847 0.00154589 0.01016689
v 0.00691386 0.00166066 0.01091906
v 0.00575745 0.00175819 0.01155819
v 0.00454124 0.00183745 0.01207764
v 0.00327786 0.00189763 0.01247203
v 0.00160869 0.00134984 0.01286528
v 0.00900000 -0.00234244 0.00911968
v 0.00799847 -0.00255901 0.00995952
v 0.00691386 -0.00274900 0.01069629
v 0.00575745 -0.00291044 0.01132234
v 0.00454124 -0.00304165 0.01183116
v 0.00327786 -0.00314127 0.01221748
v 0.00900000 0.00234242 0.00911968
v 0.00799847 0.00255899 0.00995952
v 0.00691386 0.00274898 0.01069629
v 0.00575745 0.00291042 0.01132234
v 0.00454124 0.00304163 0.01183116
v 0.00327786 0.00314125 0.01221748
v 0.00198043 0.00320825 0.01247727
v 0.00067294 0.00198925 0.01286528
v 0.00900000 -0.00494495 0.00800768
v 0.00799847 -0.00540214 0.00874471
v 0.00691386 -0.00580323 0.00939129
v 0.00575745 -0.00614403 0.00994070
v 0.00454124 -0.00642102 0.01038723
v 0.00327786 -0.00663133 0.01072626
v 0.00198043 -0.00677275 0.01095425
v 0.00066244 -0.00684384 0.01106884
v -0.00066244 -0.00684384 0.01106884
v -0.00198043 -0.00677275 0.01095425
v 0.00900000 -0.00411641 0.00846544
v 0.00799847 -0.00449699 0.00924479
v 0.00691386 -0.00483087 0.00992850
v 0.00575745 -0.00511457 0.01050945
v 0.00454124 -0.00534516 0.01098163
v 0.00327786 -0.00552022 0.01134012
v 0.00198043 -0.00563795 0.01158121
v 0.00066244 -0.00569712 0.01170238
v -0.00066244 -0.00569712 0.01170238
v -0.00198043 -0.00563795 0.01158121
v 0.00900000 -0.00324595 0.00883737
v 0.00799847 -0.00354605 0.00965111
v 0.00691386 -0.00380933 0.01036498
v 0.00575745 -0.00403304 0.01097157
v 0.00454124 -0.00421486 0.01146458
v 0.00327786 -0.00435291 0.01183889
v 0.00198043 -0.00444574 0.01209061
v 0.00066244 -0.00449240 0.01221713
v -0.00066244 -0.00449240 0.01221713
v -0.00198043 -0.00444574 0.01209061
v -0.00210000 -0.00000001 0.01286528
v -0.00327786 -0.00063471 0.01259996
v -0.00327786 -0.00189765 0.01247203
v -0.00327786 -0.00314127 0.01221748
v -0.00327786 -0.00435291 0.01183889
v -0.00327786 -0.00552022 0.01134012
v -0.00327786 -0.00663133 0.01072626
v -0.00327786 0.00314125 0.01221748
v 0.00900000 0.00324593 0.00883737
v 0.00799847 0.00354603 0.00965111
v 0.00691386 0.00380931 0.01036498
v 0.00575745 0.00403302 0.01097157
v 0.00454124 0.00421484 0.01146458
v 0.00327786 0.00435289 0.01183889
v 0.00198043 0.00444572 0.01209061
v 0.00066244 0.00449238 0.01221713
v -0.00066244 0.00449238 0.01221713
v -0.00198043 0.00444572 0.01209061
v -0.00327786 0.00435289 0.01183889
v 0.00900000 0.00411639 0.00846544
v 0.00799847 0.00449697 0.00924479
v 0.00691386 0.00483085 0.00992850
v 0.00575745 0.00511456 0.01050945
v 0.00454124 0.00534514 0.01098163
v 0.00327786 0.00552020 0.01134012
v 0.00198043 0.00563793 0.01158121
v 0.00066244 0.00569710 0.01170238
v -0.00066244 0.00569710 0.01170238
v -0.00198043 0.00563793 0.01158121
v -0.00327786 0.00552020 0.01134012
v 0.00900000 0.00494494 0.00800768
v 0.00799847 0.00540212 0.00874471
v 0.00691386 0.00580321 0.00939129
v 0.00575745 0.00614401 0.00994070
v 0.00454124 0.00642100 0.01038723
v 0.00327786 0.00663131 0.01072626
v 0.00198043 0.00677273 0.01095425
v 0.00066244 0.00684382 0.01106884
v -0.00066244 0.00684382 0.01106884
v -0.00198043 0.00677273 0.01095425
v -0.00327786 0.00663131 0.01072626
v -0.00454124 0.00642100 0.01038723
v -0.00454124 0.00534514 0.01098163
v -0.00454124 0.00421484 0.01146458
v -0.00454124 0.00304163 0.01183116
v -0.00454124 0.00183745 0.01207764
v -0.00454124 0.00061456 0.01220152
v -0.00454124 -0.00061458 0.01220152
v -0.00454124 -0.00183747 0.01207764
v -0.00454124 -0.00304165 0.01183116
v -0.00454124 -0.00421486 0.01146458
v -0.00454124 -0.00534516 0.01098163
v -0.00454124 -0.00642102 0.01038723
v -0.00575745 0.00800540 0.00850744
v -0.00575745 0.00711091 0.00927109
v -0.00575745 0.00614401 0.00994070
v -0.00575745 0.00511456 0.01050945
v -0.00575745 0.00403302 0.01097157
v -0.00575745 0.00291042 0.01132234
v -0.00575745 0.00175819 0.01155819
v -0.00575745 0.00058805 0.01167671
v -0.00575745 -0.00058807 0.01167671
v -0.00575745 -0.00175821 0.01155819
v -0.00575745 -0.00291044 0.01132234
v -0.00575745 -0.00403304 0.01097157
v -0.00575745 -0.00511457 0.01050945
v -0.00575745 -0.00614403 0.00994070
v -0.00691387 0.00671647 0.00875882
v -0.00691387 0.00580321 0.00939129
v -0.00691387 0.00483085 0.00992850
v -0.00691387 0.00380931 0.01036498
v -0.00691387 0.00274898 0.01069629
v -0.00691387 0.00166066 0.01091906
v -0.00691387 0.00055543 0.01103101
v -0.00691387 -0.00055545 0.01103101
v -0.00691387 -0.00166068 0.01091906
v -0.00691387 -0.00274900 0.01069629
v -0.00691387 -0.00380933 0.01036498
v -0.00691387 -0.00483087 0.00992850
v -0.00691387 -0.00580323 0.00939129
v -0.00691387 -0.00671649 0.00875882
v -0.00799847 0.00775357 0.00673725
v -0.00799847 0.00703875 0.00748452
v -0.00799847 0.00625227 0.00815596
v -0.00799847 0.00540212 0.00874471
v -0.00799847 0.00449697 0.00924479
v -0.00799847 0.00354603 0.00965111
v -0.00799847 0.00255899 0.00995952
v -0.00799847 0.00154589 0.01016689
v -0.00799847 0.00051704 0.01027111
v -0.00799847 -0.00051706 0.01027111
v -0.00799847 -0.00154591 0.01016689
v -0.00799847 -0.00255901 0.00995952
v -0.00799847 -0.00354605 0.00965111
v -0.00799847 -0.00449699 0.00924479
v -0.00799847 -0.00540214 0.00874471
v -0.00799847 -0.00625229 0.00815596
v -0.00900000 0.00644305 0.00685415
v -0.00900000 0.00572313 0.00746876
v -0.00900000 0.00494494 0.00800768
v -0.00900000 0.00411639 0.00846544
v -0.00900000 0.00324593 0.00883737
v -0.00900000 0.00234242 0.00911968
v -0.00900000 0.00141506 0.00930950
v -0.00900000 0.00047328 0.00940490
v -0.00900000 -0.00047330 0.00940490
v -0.00900000 -0.00141508 0.00930950
v -0.00900000 -0.00234244 0.00911968
v -0.00900000 -0.00324595 0.00883737
v -0.00900000 -0.00411641 0.00846544
v -0.00900000 -0.00494495 0.00800768
v -0.00900000 -0.00572315 0.00746876
v -0.00900000 -0.00644307 0.00685415
v -0.00900000 0.00917252 0.00003601
v -0.00900000 0.00915780 0.00066791
v -0.00900000 0.00909025 0.00151501
v -0.00900000 0.00841018 0.00416413
v -0.00900000 -0.00907025 0.00168039
v -0.00900000 -0.00914706 0.00086615
v -0.00900000 -0.00917254 0.00003601
v -0.00900000 0.00864973 0.00355228
v -0.00900000 0.00884508 0.00288819
v -0.00900000 0.00896849 0.00232512
v -0.00900000 -0.00877541 0.00314897
v -0.00900000 -0.00892392 0.00254752
v -0.00900000 -0.00903712 0.00191897
v -0.00900000 -0.00858969 0.00372197
v -0.00900000 -0.00836412 0.00426490
v 0.00900000 0.00858967 0.00372197
v 0.00900000 0.00836410 0.00426490
v 0.00900000 0.00907023 0.00168039
v 0.00900000 0.00914704 0.00086615
v 0.00900000 0.00917252 0.00003601
v 0.00900000 -0.00917254 0.00003601
v 0.00900000 -0.00915782 0.00066791
v 0.00900000 -0.00909027 0.00151501
v 0.00900000 0.00903710 0.00191897
v 0.00900000 0.00892390 0.00254752
v 0.00900000 0.00877539 0.00314897
v 0.00900000 -0.00884510 0.00288819
v 0.00900000 -0.00896851 0.00232512
v 0.00900000 -0.00841020 0.00416413
v 0.00900000 -0.00864975 0.00355228
v 0.00646715 0.00994266 0.00271480
v 0.00625543 0.00994266 0.00317761
v 0.00690286 0.00977608 0.00350276
v 0.00582029 0.00994266 0.00392500
v 0.00536231 0.00994266 0.00453553
v 0.00591731 0.00977608 0.00500122
v 0.00388899 0.00994266 0.00585630
v 0.00350000 0.00994266 0.00609819
v 0.00386225 0.00977608 0.00672562
v 0.00267878 0.00994266 0.00650317
v 0.00200762 0.00994266 0.00674194
v 0.00221541 0.00977608 0.00743600
v -0.00136563 0.00994266 0.00690151
v -0.00200762 0.00994266 0.00674194
v -0.00221541 0.00977608 0.00743600
v -0.00494975 0.00994266 0.00498576
v -0.00536231 0.00994266 0.00453553
v -0.00591731 0.00977608 0.00500122
v -0.00686550 0.00994266 0.00140165
v -0.00695267 0.00994266 0.00084866
v -0.00767227 0.00977608 0.00093277
v 0.00738593 0.00866916 0.00623354
v 0.00482082 0.00866916 0.00838592
v 0.00381886 0.00866916 0.00888913
v -0.00276526 0.00866916 0.00927261
v -0.00381886 0.00866916 0.00888913
v -0.00899882 0.00913222 0.00108782
v -0.00835938 0.00950393 0.00101308
v -0.00805548 0.00866916 0.00533418
v 0.00851369 0.00913222 0.00313474
v 0.00841628 0.00950393 0.00003601
v -0.00809638 0.00913222 0.00410217
v -0.00861609 0.00866916 0.00436318
v -0.00851369 0.00913222 0.00313474
v -0.00790872 0.00950393 0.00291455
v -0.00752107 0.00950393 0.00381324
v -0.00725865 0.00977608 0.00267795
v -0.00690286 0.00977608 0.00350276
v -0.00738593 0.00866916 0.00623354
v -0.00756959 0.00913222 0.00501461
v -0.00694043 0.00913222 0.00585972
v -0.00703171 0.00950393 0.00466084
v -0.00644725 0.00950393 0.00544590
v -0.00645372 0.00977608 0.00428069
v -0.00575759 0.00866916 0.00776980
v -0.00482082 0.00866916 0.00838592
v -0.00541031 0.00913222 0.00730331
v -0.00453004 0.00913222 0.00788227
v -0.00502586 0.00950393 0.00678691
v -0.00420815 0.00950393 0.00732473
v -0.00461275 0.00977608 0.00623201
v -0.00386225 0.00977608 0.00672562
v -0.00358852 0.00913222 0.00835512
v -0.00259846 0.00913222 0.00871547
v -0.00333352 0.00950393 0.00776398
v -0.00241382 0.00950393 0.00809873
v -0.00305952 0.00977608 0.00712877
v -0.00167426 0.00866916 0.00953118
v -0.00056061 0.00866916 0.00966134
v -0.00157327 0.00913222 0.00895845
v -0.00052680 0.00913222 0.00908076
v -0.00146147 0.00950393 0.00832444
v -0.00048937 0.00950393 0.00843806
v -0.00134135 0.00977608 0.00764316
v -0.00044914 0.00977608 0.00774744
v -0.00121554 0.00994266 0.00692967
v 0.00056061 0.00866916 0.00966134
v 0.00167425 0.00866916 0.00953118
v 0.00052679 0.00913222 0.00908076
v 0.00157326 0.00913222 0.00895845
v 0.00048936 0.00950393 0.00843806
v 0.00146147 0.00950393 0.00832444
v 0.00044914 0.00977608 0.00774744
v 0.00134134 0.00977608 0.00764316
v 0.00276525 0.00866916 0.00927261
v 0.00259846 0.00913222 0.00871547
v 0.00241382 0.00950393 0.00809873
v 0.00661650 0.00866916 0.00704909
v 0.00621740 0.00913222 0.00662608
v 0.00694042 0.00913222 0.00585972
v 0.00577560 0.00950393 0.00615780
v 0.00644725 0.00950393 0.00544590
v 0.00530087 0.00977608 0.00565461
v 0.00881586 0.00913222 0.00212541
v 0.00899882 0.00913222 0.00108782
v 0.00818942 0.00950393 0.00197694
v 0.00835938 0.00950393 0.00101308
v 0.00751628 0.00977608 0.00181740
v 0.00767226 0.00977608 0.00093277
v -0.00700000 0.00994266 0.00003601
v -0.00772450 0.00977608 0.00003601
v -0.00841629 0.00950393 0.00003601
v -0.00681132 0.00994266 0.00165032
v -0.00751628 0.00977608 0.00181740
v -0.00818943 0.00950393 0.00197694
v -0.00881587 0.00913222 0.00212541
v -0.00657785 0.00994266 0.00243015
v -0.00625543 0.00994266 0.00317761
v -0.00646716 0.00994266 0.00271480
v -0.00584842 0.00994266 0.00388258
v -0.00582029 0.00994266 0.00392500
v -0.00480369 0.00994266 0.00512763
v -0.00530087 0.00977608 0.00565461
v -0.00577561 0.00950393 0.00615780
v -0.00621741 0.00913222 0.00662608
v -0.00661650 0.00866916 0.00704909
v -0.00418011 0.00994266 0.00565088
v -0.00350000 0.00994266 0.00609819
v -0.00388899 0.00994266 0.00585630
v -0.00277256 0.00994266 0.00646353
v -0.00267879 0.00994266 0.00650317
v 0.00040701 0.00994266 0.00702417
v -0.00000000 0.00994266 0.00703601
v -0.00040702 0.00994266 0.00702417
v 0.00121554 0.00994266 0.00692967
v 0.00136563 0.00994266 0.00690151
v 0.00277256 0.00994266 0.00646353
v 0.00305951 0.00977608 0.00712877
v 0.00333352 0.00950393 0.00776398
v 0.00358851 0.00913222 0.00835512
v 0.00453004 0.00913222 0.00788227
v 0.00420814 0.00950393 0.00732473
v 0.00418011 0.00994266 0.00565088
v 0.00461275 0.00977608 0.00623201
v 0.00502586 0.00950393 0.00678691
v 0.00541030 0.00913222 0.00730331
v 0.00575759 0.00866916 0.00776980
v 0.00480369 0.00994266 0.00512763
v 0.00494975 0.00994266 0.00498576
v 0.00584841 0.00994266 0.00388258
v 0.00645372 0.00977608 0.00428069
v 0.00703170 0.00950393 0.00466084
v 0.00756958 0.00913222 0.00501461
v 0.00805547 0.00866916 0.00533418
v 0.00861609 0.00866916 0.00436318
v 0.00809638 0.00913222 0.00410217
v 0.00752107 0.00950393 0.00381324
v 0.00657785 0.00994266 0.00243015
v 0.00725865 0.00977608 0.00267795
v 0.00790872 0.00950393 0.00291455
v 0.00681131 0.00994266 0.00165032
v 0.00695267 0.00994266 0.00084866
v 0.00686549 0.00994266 0.00140165
v 0.00772449 0.00977608 0.00003601
v 0.00700000 0.00994266 0.00003601
v -0.00646716 -0.00994268 0.00271480
v -0.00625543 -0.00994268 0.00317761
v -0.00690286 -0.00977611 0.00350276
v -0.00582029 -0.00994268 0.00392500
v -0.00536231 -0.00994268 0.00453553
v -0.00591731 -0.00977611 0.00500122
v -0.00388899 -0.00994268 0.00585630
v -0.00350000 -0.00994268 0.00609819
v -0.00386225 -0.00977611 0.00672562
v -0.00267879 -0.00994268 0.00650317
v -0.00200762 -0.00994268 0.00674194
v -0.00221541 -0.00977611 0.00743600
v 0.00136563 -0.00994268 0.00690151
v 0.00200762 -0.00994268 0.00674194
v 0.00221541 -0.00977611 0.00743600
v 0.00494975 -0.00994268 0.00498576
v 0.00536231 -0.00994268 0.00453553
v 0.00591731 -0.00977611 0.00500122
v 0.00686549 -0.00994268 0.00140165
v 0.00695267 -0.00994268 0.00084866
v 0.00767226 -0.00977611 0.00093277
v -0.00738593 -0.00866918 0.00623354
v -0.00482082 -0.00866918 0.00838592
v -0.00381886 -0.00866918 0.00888913
v 0.00276525 -0.00866918 0.00927261
v 0.00381886 -0.00866918 0.00888913
v 0.00899882 -0.00913224 0.00108782
v 0.00835938 -0.00950395 0.00101308
v 0.00805547 -0.00866918 0.00533418
v -0.00851369 -0.00913224 0.00313474
v -0.00841629 -0.00950395 0.00003601
v 0.00809638 -0.00913224 0.00410217
v 0.00861609 -0.00866918 0.00436318
v 0.00851369 -0.00913224 0.00313474
v 0.00790872 -0.00950395 0.00291455
v 0.00752107 -0.00950395 0.00381324
v 0.00725865 -0.00977611 0.00267795
v 0.00690286 -0.00977611 0.00350276
v 0.00738593 -0.00866918 0.00623354
v 0.00756958 -0.00913224 0.00501461
v 0.00694042 -0.00913224 0.00585972
v 0.00703170 -0.00950395 0.00466084
v 0.00644725 -0.00950395 0.00544590
v 0.00645372 -0.00977611 0.00428069
v 0.00575759 -0.00866918 0.00776980
v 0.00482082 -0.00866918 0.00838592
v 0.00541030 -0.00913224 0.00730331
v 0.00453004 -0.00913224 0.00788227
v 0.00502586 -0.00950395 0.00678691
v 0.00420814 -0.00950395 0.00732473
v 0.00461275 -0.00977611 0.00623201
v 0.00386225 -0.00977611 0.00672562
v 0.00358851 -0.00913224 0.00835512
v 0.00259846 -0.00913224 0.00871547
v 0.00333352 -0.00950395 0.00776398
v 0.00241382 -0.00950395 0.00809873
v 0.00305951 -0.00977611 0.00712877
v 0.00167425 -0.00866918 0.00953118
v 0.00056061 -0.00866918 0.00966134
v 0.00157326 -0.00913224 0.00895845
v 0.00052679 -0.00913224 0.00908076
v 0.00146147 -0.00950395 0.00832444
v 0.00048936 -0.00950395 0.00843806
v 0.00134134 -0.00977611 0.00764316
v 0.00044914 -0.00977611 0.00774744
v 0.00121554 -0.00994268 0.00692967
v -0.00056061 -0.00866918 0.00966134
v -0.00167426 -0.00866918 0.00953118
v -0.00052680 -0.00913224 0.00908076
v -0.00157327 -0.00913224 0.00895845
v -0.00048937 -0.00950395 0.00843806
v -0.00146147 -0.00950395 0.00832444
v -0.00044914 -0.00977611 0.00774744
v -0.00134135 -0.00977611 0.00764316
v -0.00276526 -0.00866918 0.00927261
v -0.00259846 -0.00913224 0.00871547
v -0.00241382 -0.00950395 0.00809873
v -0.00661650 -0.00866918 0.00704909
v -0.00621741 -0.00913224 0.00662608
v -0.00694043 -0.00913224 0.00585972
v -0.00577561 -0.00950395 0.00615780
v -0.00644725 -0.00950395 0.00544590
v -0.00530087 -0.00977611 0.00565461
v -0.00881587 -0.00913224 0.00212541
v -0.00899882 -0.00913224 0.00108782
v -0.00818943 -0.00950395 0.00197694
v -0.00835938 -0.00950395 0.00101308
v -0.00751628 -0.00977611 0.00181740
v -0.00767227 -0.00977611 0.00093277
v 0.00700000 -0.00994268 0.00003601
v 0.00772449 -0.00977611 0.00003601
v 0.00841628 -0.00950395 0.00003601
v 0.00681131 -0.00994268 0.00165032
v 0.00751628 -0.00977611 0.00181740
v 0.00818942 -0.00950395 0.00197694
v 0.00881586 -0.00913224 0.00212541
v 0.00657785 -0.00994268 0.00243015
v 0.00625543 -0.00994268 0.00317761
v 0.00646715 -0.00994268 0.00271480
v 0.00584841 -0.00994268 0.00388258
v 0.00582029 -0.00994268 0.00392500
v 0.00480369 -0.00994268 0.00512763
v 0.00530087 -0.00977611 0.00565461
v 0.00577560 -0.00950395 0.00615780
v 0.00621740 -0.00913224 0.00662608
v 0.00661650 -0.00866918 0.00704909
v 0.00418011 -0.00994268 0.00565088
v 0.00350000 -0.00994268 0.00609819
v 0.00388899 -0.00994268 0.00585630
v 0.00277256 -0.00994268 0.00646353
v 0.00267878 -0.00994268 0.00650317
v -0.00040702 -0.00994268 0.00702417
v -0.00000000 -0.00994268 0.00703601
v 0.00040701 -0.00994268 0.00702417
v -0.00121554 -0.00994268 0.00692967
v -0.00136563 -0.00994268 0.00690151
v -0.00277256 -0.00994268 0.00646353
v -0.00305952 -0.00977611 0.00712877
v -0.00333352 -0.00950395 0.00776398
v -0.00358852 -0.00913224 0.00835512
v -0.00453004 -0.00913224 0.00788227
v -0.00420815 -0.00950395 0.00732473
v -0.00418011 -0.00994268 0.00565088
v -0.00461275 -0.00977611 0.00623201
v -0.00502586 -0.00950395 0.00678691
v -0.00541031 -0.00913224 0.00730331
v -0.00575759 -0.00866918 0.00776980
v -0.00480369 -0.00994268 0.00512763
v -0.00494975 -0.00994268 0.00498576
v -0.00584842 -0.00994268 0.00388258
v -0.00645372 -0.00977611 0.00428069
v -0.00703171 -0.00950395 0.00466084
v -0.00756959 -0.00913224 0.00501461
v -0.00805548 -0.00866918 0.00533418
v -0.00861609 -0.00866918 0.00436318
v -0.00809638 -0.00913224 0.00410217
v -0.00752107 -0.00950395 0.00381324
v -0.00657785 -0.00994268 0.00243015
v -0.00725865 -0.00977611 0.00267795
v -0.00790872 -0.00950395 0.00291455
v -0.00681132 -0.00994268 0.00165032
v -0.00695267 -0.00994268 0.00084866
v -0.00686550 -0.00994268 0.00140165
v -0.00772450 -0.00977611 0.00003601
v -0.00700000 -0.00994268 0.00003601
v -0.00717581 0.00812499 -0.00713979
v -0.00799847 0.00775357 -0.00666522
v -0.00793412 0.00812499 -0.00629124
v -0.00539913 0.00812499 -0.00855665
v -0.00575745 0.00800540 -0.00843542
v -0.00632725 0.00812499 -0.00789811
v 0.00632725 0.00812499 -0.00789811
v 0.00691980 0.00812499 -0.00738697
v 0.00691386 0.00756134 -0.00796551
v 0.00900000 0.00812499 -0.00465274
v 0.00900000 0.00767942 -0.00535160
v 0.00859266 0.00812499 -0.00536311
v -0.00793412 -0.00812501 -0.00629124
v -0.00859266 -0.00812501 -0.00536311
v -0.00900000 -0.00767944 -0.00535160
v -0.00900000 -0.00812501 -0.00465274
v -0.00454124 -0.00743151 -0.00961541
v -0.00454311 -0.00812501 -0.00903838
v -0.00539913 -0.00812501 -0.00855665
v -0.00198043 -0.00783859 -0.01014409
v -0.00225817 -0.00812501 -0.00985767
v -0.00335171 -0.00812501 -0.00954263
v -0.00066244 -0.00792086 -0.01025093
v -0.00066278 -0.00812501 -0.01009044
v -0.00113623 -0.00812501 -0.01004830
v 0.00327786 -0.00767491 -0.00993151
v 0.00335171 -0.00812501 -0.00954263
v 0.00225817 -0.00812501 -0.00985767
v 0.00454124 -0.00743151 -0.00961541
v 0.00454310 -0.00812501 -0.00903838
v 0.00440310 -0.00812501 -0.00910713
v 0.00575745 -0.00711093 -0.00919906
v 0.00575745 -0.00800542 -0.00843542
v 0.00539912 -0.00812501 -0.00855665
v 0.00691386 -0.00756136 -0.00796551
v 0.00691980 -0.00812501 -0.00738697
v 0.00632725 -0.00812501 -0.00789811
v 0.00799847 -0.00703877 -0.00741250
v 0.00799847 -0.00775359 -0.00666522
v 0.00717580 -0.00812501 -0.00713979
v 0.00900000 -0.00812501 -0.00465274
v 0.00859266 -0.00812501 -0.00536311
v 0.00900000 -0.00767944 -0.00535160
v 0.00793412 -0.00812501 -0.00629124
v 0.00900000 -0.00709739 -0.00609809
v 0.00793412 0.00812499 -0.00629124
v 0.00799847 0.00775357 -0.00666522
v 0.00717580 0.00812499 -0.00713979
v 0.00799847 0.00703875 -0.00741250
v 0.00335171 0.00812499 -0.00954263
v 0.00440310 0.00812499 -0.00910713
v 0.00454124 0.00743149 -0.00961541
v 0.00454310 0.00812499 -0.00903838
v 0.00539912 0.00812499 -0.00855665
v 0.00113623 0.00812499 -0.01004830
v 0.00225817 0.00812499 -0.00985767
v 0.00198043 0.00783857 -0.01014409
v -0.00000000 0.00812499 -0.01011211
v 0.00066278 0.00812499 -0.01009044
v 0.00066244 0.00792084 -0.01025093
v -0.00066244 0.00792084 -0.01025093
v -0.00113623 0.00812499 -0.01004830
v -0.00198043 0.00783857 -0.01014409
v -0.00225817 0.00812499 -0.00985767
v -0.00440311 0.00812499 -0.00910713
v -0.00335171 0.00812499 -0.00954263
v -0.00327786 0.00767489 -0.00993151
v -0.00454124 0.00743149 -0.00961541
v -0.00454311 0.00812499 -0.00903838
v -0.00575745 0.00711091 -0.00919906
v -0.00691980 0.00812499 -0.00738697
v -0.00691387 0.00756134 -0.00796551
v -0.00799847 0.00703875 -0.00741250
v -0.00900000 0.00812499 -0.00465274
v -0.00859266 0.00812499 -0.00536311
v -0.00900000 0.00767942 -0.00535160
v -0.00900000 0.00709737 -0.00609809
v -0.00900000 0.00644305 -0.00678212
v -0.00799847 0.00625227 -0.00808393
v -0.00900000 0.00572313 -0.00739673
v -0.00799847 0.00540212 -0.00867268
v -0.00900000 0.00494494 -0.00793566
v -0.00799847 0.00449697 -0.00917277
v -0.00900000 0.00411639 -0.00839342
v -0.00799847 0.00354603 -0.00957908
v -0.00900000 0.00324593 -0.00876534
v -0.00799847 0.00255899 -0.00988749
v -0.00900000 0.00234242 -0.00904766
v -0.00799847 0.00154589 -0.01009486
v -0.00900000 0.00141506 -0.00923748
v -0.00799847 0.00051704 -0.01019908
v -0.00900000 0.00047328 -0.00933287
v -0.00799847 -0.00051706 -0.01019908
v -0.00900000 -0.00047330 -0.00933287
v -0.00799847 -0.00154591 -0.01009486
v -0.00900000 -0.00141508 -0.00923748
v -0.00799847 -0.00255901 -0.00988749
v -0.00900000 -0.00234244 -0.00904766
v -0.00799847 -0.00354605 -0.00957908
v -0.00900000 -0.00324595 -0.00876534
v -0.00799847 -0.00449699 -0.00917277
v -0.00900000 -0.00411641 -0.00839342
v -0.00799847 -0.00540214 -0.00867268
v -0.00900000 -0.00494495 -0.00793566
v -0.00799847 -0.00625229 -0.00808393
v -0.00900000 -0.00572315 -0.00739673
v -0.00799847 -0.00703877 -0.00741250
v -0.00900000 -0.00644307 -0.00678212
v -0.00799847 -0.00775359 -0.00666522
v -0.00900000 -0.00709739 -0.00609809
v -0.00691387 0.00671647 -0.00868679
v -0.00691387 0.00580321 -0.00931926
v -0.00691387 0.00483085 -0.00985647
v -0.00691387 0.00380931 -0.01029295
v -0.00691387 0.00274898 -0.01062426
v -0.00691387 0.00166066 -0.01084703
v -0.00691387 0.00055543 -0.01095898
v -0.00691387 -0.00055545 -0.01095898
v -0.00691387 -0.00166068 -0.01084703
v -0.00691387 -0.00274900 -0.01062426
v -0.00691387 -0.00380933 -0.01029295
v -0.00691387 -0.00483087 -0.00985647
v -0.00691387 -0.00580323 -0.00931926
v -0.00691387 -0.00671649 -0.00868679
v -0.00691387 -0.00756136 -0.00796551
v -0.00575745 0.00614401 -0.00986867
v -0.00575745 0.00511456 -0.01043743
v -0.00575745 0.00403302 -0.01089954
v -0.00575745 0.00291042 -0.01125031
v -0.00575745 0.00175819 -0.01148616
v -0.00575745 0.00058805 -0.01160469
v -0.00575745 -0.00058807 -0.01160469
v -0.00575745 -0.00175821 -0.01148616
v -0.00575745 -0.00291044 -0.01125031
v -0.00575745 -0.00403304 -0.01089954
v -0.00575745 -0.00511457 -0.01043743
v -0.00575745 -0.00614403 -0.00986867
v -0.00575745 -0.00711093 -0.00919906
v -0.00575745 -0.00800542 -0.00843542
v -0.00717581 -0.00812501 -0.00713979
v -0.00691980 -0.00812501 -0.00738697
v -0.00632725 -0.00812501 -0.00789811
v -0.00454124 -0.00642102 -0.01031520
v -0.00454124 -0.00534516 -0.01090960
v -0.00454124 -0.00421486 -0.01139256
v -0.00454124 -0.00304165 -0.01175914
v -0.00454124 -0.00183747 -0.01200562
v -0.00454124 -0.00061458 -0.01212949
v -0.00454124 0.00061456 -0.01212949
v -0.00454124 0.00183745 -0.01200562
v -0.00454124 0.00304163 -0.01175914
v -0.00454124 0.00421484 -0.01139256
v -0.00454124 0.00534514 -0.01090960
v -0.00454124 0.00642100 -0.01031520
v -0.00327786 0.00663131 -0.01065423
v -0.00327786 0.00552020 -0.01126810
v -0.00327786 0.00435289 -0.01176686
v -0.00327786 0.00314125 -0.01214545
v -0.00327786 0.00189763 -0.01240001
v -0.00327786 0.00063469 -0.01252794
v -0.00327786 -0.00063471 -0.01252794
v -0.00327786 -0.00189765 -0.01240001
v -0.00327786 -0.00314127 -0.01214545
v -0.00327786 -0.00435291 -0.01176686
v -0.00327786 -0.00552022 -0.01126810
v -0.00327786 -0.00663133 -0.01065423
v -0.00327786 -0.00767491 -0.00993151
v -0.00198043 0.00677273 -0.01088222
v -0.00198043 0.00563793 -0.01150918
v -0.00198043 0.00444572 -0.01201859
v -0.00198043 0.00320825 -0.01240525
v -0.00198043 0.00193811 -0.01266523
v -0.00198043 0.00064823 -0.01279589
v -0.00198043 -0.00064825 -0.01279589
v -0.00198043 -0.00193813 -0.01266523
v -0.00198043 -0.00320827 -0.01240525
v -0.00198043 -0.00444574 -0.01201859
v -0.00198043 -0.00563795 -0.01150918
v -0.00198043 -0.00677275 -0.01088222
v -0.00440311 -0.00812501 -0.00910713
v -0.00066244 0.00684382 -0.01099681
v -0.00066244 0.00569710 -0.01163035
v -0.00066244 0.00449238 -0.01214510
v -0.00066244 0.00324192 -0.01253582
v -0.00066244 0.00195845 -0.01279853
v -0.00066244 0.00065503 -0.01293056
v -0.00066244 -0.00065505 -0.01293056
v -0.00066244 -0.00195847 -0.01279853
v -0.00066244 -0.00324194 -0.01253582
v -0.00066244 -0.00449240 -0.01214510
v -0.00066244 -0.00569712 -0.01163035
v -0.00066244 -0.00684384 -0.01099681
v 0.00066244 0.00684382 -0.01099681
v 0.00066244 0.00569710 -0.01163035
v 0.00066244 0.00449238 -0.01214510
v 0.00066244 0.00324192 -0.01253582
v 0.00066244 0.00195845 -0.01279853
v 0.00066244 0.00065503 -0.01293056
v 0.00066244 -0.00065505 -0.01293056
v 0.00066244 -0.00195847 -0.01279853
v 0.00066244 -0.00324194 -0.01253582
v 0.00066244 -0.00449240 -0.01214510
v 0.00066244 -0.00569712 -0.01163035
v 0.00066244 -0.00684384 -0.01099681
v 0.00066244 -0.00792086 -0.01025093
v -0.00000000 -0.00812501 -0.01011211
v 0.00198043 0.00677273 -0.01088222
v 0.00198043 0.00563793 -0.01150918
v 0.00198043 0.00444572 -0.01201859
v 0.00198043 0.00320825 -0.01240525
v 0.00198043 0.00193811 -0.01266523
v 0.00198043 0.00064823 -0.01279589
v 0.00198043 -0.00064825 -0.01279589
v 0.00198043 -0.00193813 -0.01266523
v 0.00198043 -0.00320827 -0.01240525
v 0.00198043 -0.00444574 -0.01201859
v 0.00198043 -0.00563795 -0.01150918
v 0.00198043 -0.00677275 -0.01088222
v 0.00198043 -0.00783859 -0.01014409
v 0.00113623 -0.00812501 -0.01004830
v 0.00327786 0.00767489 -0.00993151
v 0.00327786 0.00663131 -0.01065423
v 0.00327786 0.00552020 -0.01126810
v 0.00327786 0.00435289 -0.01176686
v 0.00327786 0.00314125 -0.01214545
v 0.00327786 0.00189763 -0.01240001
v 0.00327786 0.00063469 -0.01252794
v 0.00327786 -0.00063471 -0.01252794
v 0.00327786 -0.00189765 -0.01240001
v 0.00327786 -0.00314127 -0.01214545
v 0.00327786 -0.00435291 -0.01176686
v 0.00327786 -0.00552022 -0.01126810
v 0.00327786 -0.00663133 -0.01065423
v 0.00454124 0.00642100 -0.01031520
v 0.00454124 0.00534514 -0.01090960
v 0.00454124 0.00421484 -0.01139256
v 0.00454124 0.00304163 -0.01175914
v 0.00454124 0.00183745 -0.01200562
v 0.00454124 0.00061456 -0.01212949
v 0.00454124 -0.00061458 -0.01212949
v 0.00454124 -0.00183747 -0.01200562
v 0.00454124 -0.00304165 -0.01175914
v 0.00454124 -0.00421486 -0.01139256
v 0.00454124 -0.00534516 -0.01090960
v 0.00454124 -0.00642102 -0.01031520
v 0.00575745 0.00800540 -0.00843542
v 0.00575745 0.00711091 -0.00919906
v 0.00575745 0.00614401 -0.00986867
v 0.00575745 0.00511456 -0.01043743
v 0.00575745 0.00403302 -0.01089954
v 0.00575745 0.00291042 -0.01125031
v 0.00575745 0.00175819 -0.01148616
v 0.00575745 0.00058805 -0.01160469
v 0.00575745 -0.00058807 -0.01160469
v 0.00575745 -0.00175821 -0.01148616
v 0.00575745 -0.00291044 -0.01125031
v 0.00575745 -0.00403304 -0.01089954
v 0.00575745 -0.00511457 -0.01043743
v 0.00575745 -0.00614403 -0.00986867
v 0.00691386 0.00671647 -0.00868679
v 0.00691386 0.00580321 -0.00931926
v 0.00691386 0.00483085 -0.00985647
v 0.00691386 0.00380931 -0.01029295
v 0.00691386 0.00274898 -0.01062426
v 0.00691386 0.00166066 -0.01084703
v 0.00691386 0.00055543 -0.01095898
v 0.00691386 -0.00055545 -0.01095898
v 0.00691386 -0.00166068 -0.01084703
v 0.00691386 -0.00274900 -0.01062426
v 0.00691386 -0.00380933 -0.01029295
v 0.00691386 -0.00483087 -0.00985647
v 0.00691386 -0.00580323 -0.00931926
v 0.00691386 -0.00671649 -0.00868679
v 0.00799847 0.00625227 -0.00808393
v 0.00799847 0.00540212 -0.00867268
v 0.00799847 0.00449697 -0.00917277
v 0.00799847 0.00354603 -0.00957908
v 0.00799847 0.00255899 -0.00988749
v 0.00799847 0.00154589 -0.01009486
v 0.00799847 0.00051704 -0.01019908
v 0.00799847 -0.00051706 -0.01019908
v 0.00799847 -0.00154591 -0.01009486
v 0.00799847 -0.00255901 -0.00988749
v 0.00799847 -0.00354605 -0.00957908
v 0.00799847 -0.00449699 -0.00917277
v 0.00799847 -0.00540214 -0.00867268
v 0.00799847 -0.00625229 -0.00808393
v 0.00900000 0.00709737 -0.00609809
v 0.00900000 0.00644305 -0.00678212
v 0.00900000 0.00572313 -0.00739673
v 0.00900000 0.00494494 -0.00793566
v 0.00900000 0.00411639 -0.00839342
v 0.00900000 0.00324593 -0.00876534
v 0.00900000 0.00234242 -0.00904766
v 0.00900000 0.00141506 -0.00923748
v 0.00900000 0.00047328 -0.00933287
v 0.00900000 -0.00047330 -0.00933287
v 0.00900000 -0.00141508 -0.00923748
v 0.00900000 -0.00234244 -0.00904766
v 0.00900000 -0.00324595 -0.00876534
v 0.00900000 -0.00411641 -0.00839342
v 0.00900000 -0.00494495 -0.00793566
v 0.00900000 -0.00572315 -0.00739673
v 0.00900000 -0.00644307 -0.00678212
v 0.00900000 -0.00913428 -0.00097923
v 0.00900000 -0.00907249 -0.00159076
v 0.00900000 0.00915693 -0.00061415
v 0.00900000 0.00908925 -0.00145175
v 0.00900000 0.00840741 -0.00409828
v 0.00900000 0.00864514 -0.00349369
v 0.00900000 0.00883957 -0.00283799
v 0.00900000 0.00896849 -0.00225309
v 0.00900000 -0.00877906 -0.00306407
v 0.00900000 -0.00892535 -0.00246876
v 0.00900000 -0.00903712 -0.00184694
v 0.00900000 -0.00914761 -0.00078514
v 0.00900000 -0.00913632 -0.00095209
v 0.00900000 -0.00859640 -0.00363159
v 0.00900000 -0.00837489 -0.00416974
v -0.00900000 0.00913426 -0.00097923
v -0.00900000 0.00907247 -0.00159076
v -0.00900000 0.00859638 -0.00363159
v -0.00900000 0.00837487 -0.00416974
v -0.00900000 -0.00915695 -0.00061415
v -0.00900000 -0.00908927 -0.00145175
v -0.00900000 0.00903710 -0.00184694
v -0.00900000 0.00892533 -0.00246876
v -0.00900000 0.00877904 -0.00306407
v -0.00900000 0.00914759 -0.00078514
v -0.00900000 0.00913630 -0.00095209
v -0.00900000 -0.00883960 -0.00283799
v -0.00900000 -0.00896851 -0.00225309
v -0.00900000 -0.00840743 -0.00409828
v -0.00900000 -0.00864516 -0.00349369
v -0.00836337 0.00950393 -0.00090631
v -0.00883293 0.00913222 -0.00198004
v -0.00855166 0.00913222 -0.00295634
v 0.00868682 0.00866916 -0.00414734
v 0.00816381 0.00866916 -0.00509365
v 0.00816285 0.00913222 -0.00389501
v 0.00855166 0.00913222 -0.00295634
v 0.00883292 0.00913222 -0.00198004
v 0.00753814 0.00866916 -0.00597545
v 0.00681767 0.00866916 -0.00678166
v 0.00601146 0.00866916 -0.00750213
v 0.00512966 0.00866916 -0.00812780
v 0.00418335 0.00866916 -0.00865081
v 0.00318443 0.00866916 -0.00906457
v 0.00214547 0.00866916 -0.00936389
v 0.00107952 0.00866916 -0.00954500
v -0.00000000 0.00866916 -0.00960563
v -0.00107952 0.00866916 -0.00954500
v -0.00214547 0.00866916 -0.00936389
v -0.00318443 0.00866916 -0.00906457
v -0.00418335 0.00866916 -0.00865081
v -0.00512967 0.00866916 -0.00812780
v -0.00601147 0.00866916 -0.00750213
v -0.00681767 0.00866916 -0.00678166
v -0.00753814 0.00866916 -0.00597545
v -0.00816381 0.00866916 -0.00509365
v -0.00868682 0.00866916 -0.00414734
v -0.00816285 0.00913222 -0.00389501
v -0.00767139 0.00913222 -0.00478424
v -0.00708346 0.00913222 -0.00561285
v -0.00640645 0.00913222 -0.00637043
v -0.00564887 0.00913222 -0.00704744
v -0.00482025 0.00913222 -0.00763538
v -0.00393102 0.00913222 -0.00812684
v -0.00299236 0.00913222 -0.00851564
v -0.00201606 0.00913222 -0.00879691
v -0.00101441 0.00913222 -0.00896710
v -0.00000000 0.00913222 -0.00902407
v 0.00101441 0.00913222 -0.00896710
v 0.00201606 0.00913222 -0.00879691
v 0.00299235 0.00913222 -0.00851564
v 0.00393102 0.00913222 -0.00812684
v 0.00482025 0.00913222 -0.00763538
v 0.00564887 0.00913222 -0.00704744
v 0.00640644 0.00913222 -0.00637043
v 0.00708345 0.00913222 -0.00561285
v 0.00767139 0.00913222 -0.00478424
v 0.00820527 0.00950393 -0.00183679
v 0.00836336 0.00950393 -0.00090631
v 0.00886615 0.00921213 -0.00110317
v 0.00712627 0.00950393 -0.00444172
v 0.00695953 0.00977608 -0.00331552
v 0.00758281 0.00950393 -0.00361568
v 0.00729102 0.00977608 -0.00251523
v 0.00794399 0.00950393 -0.00274371
v 0.00753082 0.00977608 -0.00168285
v 0.00767592 0.00977608 -0.00082886
v 0.00187280 0.00950393 -0.00816926
v 0.00255124 0.00977608 -0.00725501
v 0.00277972 0.00950393 -0.00790798
v 0.00335153 0.00977608 -0.00692352
v 0.00365169 0.00950393 -0.00754680
v 0.00410968 0.00977608 -0.00650450
v 0.00447773 0.00950393 -0.00709026
v 0.00481614 0.00977608 -0.00600324
v 0.00524747 0.00950393 -0.00654410
v 0.00546204 0.00977608 -0.00542603
v 0.00595121 0.00950393 -0.00591520
v 0.00603925 0.00977608 -0.00478013
v 0.00658012 0.00950393 -0.00521146
v -0.00447774 0.00950393 -0.00709026
v -0.00335153 0.00977608 -0.00692352
v -0.00365169 0.00950393 -0.00754680
v -0.00255124 0.00977608 -0.00725501
v -0.00277973 0.00950393 -0.00790798
v -0.00171886 0.00977608 -0.00749481
v -0.00187280 0.00950393 -0.00816926
v -0.00086487 0.00977608 -0.00763991
v -0.00094233 0.00950393 -0.00832735
v -0.00000000 0.00977608 -0.00768848
v -0.00000000 0.00950393 -0.00838027
v 0.00086487 0.00977608 -0.00763991
v 0.00094232 0.00950393 -0.00832735
v -0.00820527 0.00950393 -0.00183679
v -0.00729102 0.00977608 -0.00251523
v -0.00794399 0.00950393 -0.00274371
v -0.00695953 0.00977608 -0.00331552
v -0.00758281 0.00950393 -0.00361568
v -0.00654052 0.00977608 -0.00407367
v -0.00712628 0.00950393 -0.00444172
v -0.00603926 0.00977608 -0.00478013
v -0.00658012 0.00950393 -0.00521146
v -0.00546205 0.00977608 -0.00542603
v -0.00595122 0.00950393 -0.00591520
v -0.00481615 0.00977608 -0.00600324
v -0.00524747 0.00950393 -0.00654410
v -0.00767593 0.00977608 -0.00082886
v 0.00695598 0.00994266 -0.00074774
v 0.00686549 0.00994266 -0.00132962
v 0.00682449 0.00994266 -0.00152163
v 0.00660718 0.00994266 -0.00227594
v 0.00654052 0.00977608 -0.00407367
v 0.00630678 0.00994266 -0.00300117
v 0.00646715 0.00994266 -0.00264277
v 0.00547282 0.00994266 -0.00432842
v 0.00582029 0.00994266 -0.00385298
v 0.00592707 0.00994266 -0.00368821
v 0.00494975 0.00994266 -0.00491373
v 0.00436443 0.00994266 -0.00543681
v 0.00388899 0.00994266 -0.00578427
v 0.00372422 0.00994266 -0.00589106
v 0.00303718 0.00994266 -0.00627077
v 0.00171886 0.00977608 -0.00749481
v 0.00231195 0.00994266 -0.00657117
v 0.00267878 0.00994266 -0.00643114
v 0.00078375 0.00994266 -0.00691997
v 0.00136563 0.00994266 -0.00682948
v 0.00155764 0.00994266 -0.00678848
v -0.00000000 0.00994266 -0.00696399
v -0.00078375 0.00994266 -0.00691997
v -0.00136563 0.00994266 -0.00682948
v -0.00155765 0.00994266 -0.00678848
v -0.00231196 0.00994266 -0.00657117
v -0.00410968 0.00977608 -0.00650450
v -0.00303719 0.00994266 -0.00627077
v -0.00267879 0.00994266 -0.00643114
v -0.00436443 0.00994266 -0.00543681
v -0.00388899 0.00994266 -0.00578427
v -0.00372423 0.00994266 -0.00589106
v -0.00494975 0.00994266 -0.00491373
v -0.00547282 0.00994266 -0.00432842
v -0.00582029 0.00994266 -0.00385298
v -0.00592707 0.00994266 -0.00368821
v -0.00630678 0.00994266 -0.00300117
v -0.00753083 0.00977608 -0.00168285
v -0.00660719 0.00994266 -0.00227594
v -0.00646716 0.00994266 -0.00264277
v -0.00695599 0.00994266 -0.00074774
v -0.00686550 0.00994266 -0.00132962
v -0.00682450 0.00994266 -0.00152163
v -0.00682450 -0.00994268 -0.00152163
v -0.00753083 -0.00977611 -0.00168285
v -0.00729102 -0.00977611 -0.00251523
v -0.00686550 -0.00994268 -0.00132962
v -0.00695599 -0.00994268 -0.00074774
v -0.00767593 -0.00977611 -0.00082886
v 0.00481614 -0.00977611 -0.00600324
v 0.00524747 -0.00950395 -0.00654410
v 0.00595121 -0.00950395 -0.00591520
v -0.00086487 -0.00977611 -0.00763991
v -0.00094233 -0.00950395 -0.00832735
v -0.00000000 -0.00950395 -0.00838027
v -0.00603926 -0.00977611 -0.00478013
v -0.00658012 -0.00950395 -0.00521146
v -0.00595122 -0.00950395 -0.00591520
v -0.00820527 -0.00950395 -0.00183679
v -0.00794399 -0.00950395 -0.00274371
v 0.00836336 -0.00950395 -0.00090631
v 0.00883292 -0.00913224 -0.00198004
v 0.00855166 -0.00913224 -0.00295634
v -0.00868682 -0.00866918 -0.00414734
v -0.00816381 -0.00866918 -0.00509365
v -0.00816285 -0.00913224 -0.00389501
v -0.00855166 -0.00913224 -0.00295634
v -0.00883293 -0.00913224 -0.00198004
v -0.00753814 -0.00866918 -0.00597545
v -0.00681767 -0.00866918 -0.00678166
v -0.00601147 -0.00866918 -0.00750213
v -0.00512967 -0.00866918 -0.00812780
v -0.00418335 -0.00866918 -0.00865081
v -0.00318443 -0.00866918 -0.00906457
v -0.00214547 -0.00866918 -0.00936389
v -0.00107952 -0.00866918 -0.00954500
v -0.00000000 -0.00866918 -0.00960563
v 0.00107952 -0.00866918 -0.00954500
v 0.00214547 -0.00866918 -0.00936389
v 0.00318443 -0.00866918 -0.00906457
v 0.00418335 -0.00866918 -0.00865081
v 0.00512966 -0.00866918 -0.00812780
v 0.00601146 -0.00866918 -0.00750213
v 0.00681767 -0.00866918 -0.00678166
v 0.00753814 -0.00866918 -0.00597545
v 0.00816381 -0.00866918 -0.00509365
v 0.00868682 -0.00866918 -0.00414734
v 0.00816285 -0.00913224 -0.00389501
v 0.00767139 -0.00913224 -0.00478424
v 0.00708345 -0.00913224 -0.00561285
v 0.00640644 -0.00913224 -0.00637043
v 0.00564887 -0.00913224 -0.00704744
v 0.00482025 -0.00913224 -0.00763538
v 0.00393102 -0.00913224 -0.00812684
v 0.00299235 -0.00913224 -0.00851564
v 0.00201606 -0.00913224 -0.00879691
v 0.00101441 -0.00913224 -0.00896710
v -0.00000000 -0.00913224 -0.00902407
v -0.00101441 -0.00913224 -0.00896710
v -0.00201606 -0.00913224 -0.00879691
v -0.00299236 -0.00913224 -0.00851564
v -0.00393102 -0.00913224 -0.00812684
v -0.00482025 -0.00913224 -0.00763538
v -0.00564887 -0.00913224 -0.00704744
v -0.00640645 -0.00913224 -0.00637043
v -0.00708346 -0.00913224 -0.00561285
v -0.00767139 -0.00913224 -0.00478424
v -0.00758281 -0.00950395 -0.00361568
v -0.00695953 -0.00977611 -0.00331552
v -0.00712628 -0.00950395 -0.00444172
v -0.00654052 -0.00977611 -0.00407367
v -0.00546205 -0.00977611 -0.00542603
v -0.00524747 -0.00950395 -0.00654410
v -0.00481615 -0.00977611 -0.00600324
v -0.00447774 -0.00950395 -0.00709026
v -0.00410968 -0.00977611 -0.00650450
v -0.00365169 -0.00950395 -0.00754680
v -0.00335153 -0.00977611 -0.00692352
v -0.00277973 -0.00950395 -0.00790798
v -0.00255124 -0.00977611 -0.00725501
v -0.00187280 -0.00950395 -0.00816926
v -0.00171886 -0.00977611 -0.00749481
v -0.00000000 -0.00977611 -0.00768848
v 0.00094232 -0.00950395 -0.00832735
v 0.00086487 -0.00977611 -0.00763991
v 0.00187280 -0.00950395 -0.00816926
v 0.00171886 -0.00977611 -0.00749481
v 0.00277972 -0.00950395 -0.00790798
v 0.00255124 -0.00977611 -0.00725501
v 0.00365169 -0.00950395 -0.00754680
v 0.00335153 -0.00977611 -0.00692352
v 0.00447773 -0.00950395 -0.00709026
v 0.00410968 -0.00977611 -0.00650450
v 0.00546204 -0.00977611 -0.00542603
v 0.00658012 -0.00950395 -0.00521146
v 0.00603925 -0.00977611 -0.00478013
v 0.00712627 -0.00950395 -0.00444172
v 0.00654052 -0.00977611 -0.00407367
v 0.00758281 -0.00950395 -0.00361568
v 0.00695953 -0.00977611 -0.00331552
v 0.00794399 -0.00950395 -0.00274371
v 0.00729102 -0.00977611 -0.00251523
v 0.00820527 -0.00950395 -0.00183679
v 0.00753082 -0.00977611 -0.00168285
v 0.00767592 -0.00977611 -0.00082886
v -0.00836337 -0.00950395 -0.00090631
v -0.00886615 -0.00921215 -0.00110317
v -0.00630678 -0.00994268 -0.00300117
v -0.00646716 -0.00994268 -0.00264277
v -0.00660719 -0.00994268 -0.00227594
v -0.00547282 -0.00994268 -0.00432842
v -0.00582029 -0.00994268 -0.00385298
v -0.00592707 -0.00994268 -0.00368821
v -0.00494975 -0.00994268 -0.00491373
v -0.00372423 -0.00994268 -0.00589106
v -0.00388899 -0.00994268 -0.00578427
v -0.00436443 -0.00994268 -0.00543681
v -0.00231196 -0.00994268 -0.00657117
v -0.00267879 -0.00994268 -0.00643114
v -0.00303719 -0.00994268 -0.00627077
v -0.00078375 -0.00994268 -0.00691997
v -0.00136563 -0.00994268 -0.00682948
v -0.00155765 -0.00994268 -0.00678848
v -0.00000000 -0.00994268 -0.00696399
v 0.00155764 -0.00994268 -0.00678848
v 0.00136563 -0.00994268 -0.00682948
v 0.00078375 -0.00994268 -0.00691997
v 0.00303718 -0.00994268 -0.00627077
v 0.00267878 -0.00994268 -0.00643114
v 0.00231195 -0.00994268 -0.00657117
v 0.00436443 -0.00994268 -0.00543681
v 0.00388899 -0.00994268 -0.00578427
v 0.00372422 -0.00994268 -0.00589106
v 0.00494975 -0.00994268 -0.00491373
v 0.00592707 -0.00994268 -0.00368821
v 0.00582029 -0.00994268 -0.00385298
v 0.00547282 -0.00994268 -0.00432842
v 0.00660718 -0.00994268 -0.00227594
v 0.00646715 -0.00994268 -0.00264277
v 0.00630678 -0.00994268 -0.00300117
v 0.00695598 -0.00994268 -0.00074774
v 0.00686549 -0.00994268 -0.00132962
v 0.00682449 -0.00994268 -0.00152163
f 223 233 234
f 772 759 758
f 232 231 243
f 243 233 232
f 244 233 243
f 7 8 9
f 258 212 211
f 213 212 258
f 312 296 311
f 1044 1019 1042
f 896 882 881
f 851 838 837
f 738 736 737
f 732 730 729
f 731 732 729
f 832 818 831
f 477 471 373
f 84 83 80
f 2 1 137
f 137 1 138
f 158 157 171
f 88 1 2
f 80 77 242
f 77 243 242
f 242 243 231
f 220 173 219
f 174 173 220
f 220 231 232
f 232 221 220
f 81 477 373
f 81 77 80
f 80 83 81
f 403 376 404
f 244 68 245
f 234 233 245
f 245 233 244
f 420 418 426
f 406 365 405
f 405 404 406
f 405 403 404
f 412 365 406
f 406 404 412
f 76 418 69
f 75 418 76
f 76 68 75
f 390 392 382
f 393 392 390
f 254 120 123
f 123 120 122
f 305 306 290
f 308 309 294
f 290 306 291
f 306 292 291
f 19 517 22
f 287 286 302
f 22 517 23
f 573 23 517
f 199 198 164
f 258 271 272
f 8 208 209
f 209 208 120
f 273 286 287
f 287 274 273
f 258 272 273
f 273 274 260
f 95 9 210
f 210 211 95
f 210 9 8
f 8 209 210
f 258 211 257
f 257 271 258
f 256 271 257
f 257 210 256
f 211 210 257
f 260 49 214
f 214 49 46
f 214 44 187
f 46 44 214
f 212 213 207
f 207 206 95
f 95 211 207
f 207 211 212
f 259 213 258
f 258 273 259
f 259 273 260
f 260 214 259
f 259 214 213
f 187 44 186
f 96 205 99
f 496 498 634
f 1120 1130 1116
f 295 311 296
f 295 278 294
f 931 915 930
f 689 929 930
f 981 950 980
f 1041 1044 1042
f 985 1019 984
f 1019 985 1018
f 853 868 854
f 875 876 863
f 861 690 692
f 900 649 689
f 686 928 687
f 687 928 929
f 687 929 689
f 696 690 861
f 988 690 696
f 924 940 941
f 941 925 924
f 941 942 926
f 926 925 941
f 926 942 943
f 943 927 926
f 773 759 772
f 773 774 759
f 772 788 773
f 803 804 785
f 785 775 774
f 785 805 784
f 804 805 785
f 784 776 785
f 776 775 785
f 788 801 802
f 812 813 800
f 812 825 826
f 826 813 812
f 854 868 869
f 869 881 882
f 869 868 880
f 880 881 869
f 869 855 854
f 937 938 922
f 922 938 923
f 879 892 893
f 922 923 908
f 908 923 909
f 908 909 896
f 715 716 714
f 714 1000 715
f 717 716 715
f 1076 1081 1026
f 1026 1025 1076
f 1029 1028 1030
f 1075 1030 1028
f 733 758 759
f 774 775 761
f 761 775 776
f 727 729 730
f 727 754 755
f 856 871 872
f 842 855 856
f 830 831 818
f 85 84 86
f 83 84 85
f 86 477 85
f 85 81 83
f 477 81 85
f 3 88 2
f 90 88 3
f 170 171 157
f 171 170 217
f 1 88 87
f 86 84 87
f 87 84 1
f 99 102 104
f 139 84 80
f 80 240 139
f 138 1 139
f 1 84 139
f 229 240 230
f 230 242 231
f 230 220 219
f 231 220 230
f 228 240 229
f 228 217 227
f 74 243 77
f 77 78 74
f 78 79 74
f 74 79 75
f 75 68 74
f 244 243 74
f 74 68 244
f 374 79 78
f 374 470 426
f 373 471 374
f 471 470 374
f 399 397 400
f 65 376 396
f 11 10 375
f 375 376 11
f 10 408 375
f 404 376 375
f 375 408 404
f 400 397 398
f 398 405 400
f 403 405 398
f 396 376 398
f 376 403 398
f 409 408 71
f 409 411 408
f 67 408 10
f 71 408 67
f 67 72 71
f 70 245 68
f 70 76 69
f 68 76 70
f 418 420 419
f 401 402 459
f 400 402 401
f 401 399 400
f 407 405 365
f 407 402 400
f 400 405 407
f 410 412 404
f 411 412 410
f 404 408 410
f 408 411 410
f 413 415 412
f 413 412 411
f 365 412 414
f 412 415 414
f 122 118 117
f 117 123 122
f 122 120 121
f 120 208 121
f 112 113 177
f 108 112 177
f 1003 1000 1002
f 442 322 378
f 382 392 386
f 386 385 382
f 61 305 289
f 289 305 290
f 389 62 14
f 62 289 14
f 290 15 14
f 14 289 290
f 262 261 15
f 64 248 12
f 12 10 11
f 236 235 246
f 236 224 235
f 249 248 64
f 249 262 263
f 64 262 249
f 307 292 306
f 307 308 292
f 293 308 294
f 292 308 293
f 294 278 293
f 278 277 293
f 320 59 24
f 24 58 320
f 24 19 22
f 59 19 24
f 22 23 24
f 24 23 58
f 58 288 304
f 21 19 20
f 20 19 59
f 331 332 525
f 517 19 629
f 629 19 21
f 582 580 326
f 525 332 579
f 579 635 525
f 579 580 582
f 621 616 622
f 622 616 518
f 23 573 56
f 56 622 57
f 573 622 56
f 199 164 165
f 165 200 199
f 166 200 165
f 165 164 140
f 165 140 142
f 201 200 167
f 167 200 166
f 26 28 124
f 201 167 202
f 169 102 99
f 203 202 169
f 194 184 183
f 194 205 195
f 7 9 91
f 91 9 95
f 570 47 519
f 518 616 519
f 46 47 48
f 48 44 46
f 48 47 570
f 518 519 50
f 197 196 206
f 206 207 197
f 187 186 197
f 197 186 196
f 197 207 213
f 197 214 187
f 213 214 197
f 42 186 44
f 185 194 195
f 184 194 185
f 571 614 572
f 570 519 571
f 570 571 563
f 563 571 565
f 563 564 562
f 565 564 563
f 563 48 570
f 563 562 43
f 510 551 557
f 557 555 556
f 550 551 510
f 183 184 39
f 184 185 39
f 546 598 599
f 599 544 546
f 542 544 599
f 614 616 617
f 617 621 620
f 617 616 621
f 572 614 507
f 1120 1119 640
f 640 639 1120
f 1120 639 526
f 582 326 526
f 1131 1116 1130
f 1179 1137 1181
f 1117 1131 1179
f 1116 1131 1117
f 1187 1186 1189
f 1193 1192 1124
f 1124 1192 1125
f 1232 1124 1235
f 1189 1186 1188
f 1151 668 667
f 668 666 667
f 678 943 944
f 927 943 678
f 653 750 749
f 748 749 750
f 747 749 748
f 654 750 653
f 656 654 1136
f 1136 654 653
f 1148 1147 664
f 658 778 657
f 311 295 310
f 294 309 310
f 310 295 294
f 280 295 296
f 280 267 266
f 891 876 890
f 890 903 891
f 983 686 984
f 983 979 686
f 984 1019 983
f 1044 1041 1043
f 1076 1025 1043
f 1043 1025 1044
f 1082 1043 1041
f 1082 1041 1039
f 1039 1083 1082
f 1037 1035 1085
f 1038 1035 1037
f 1038 1018 1017
f 1038 1037 1039
f 1016 987 988
f 1016 1038 1017
f 693 987 986
f 986 1016 1017
f 987 1016 986
f 1017 1018 986
f 986 1018 985
f 648 985 984
f 1042 1019 1040
f 1019 1018 1040
f 1018 1038 1040
f 1040 1038 1039
f 1040 1041 1042
f 1039 1041 1040
f 849 865 850
f 851 837 850
f 866 867 851
f 851 850 866
f 866 850 865
f 866 879 867
f 864 849 863
f 864 865 849
f 863 876 864
f 876 865 864
f 852 838 851
f 851 867 852
f 693 692 691
f 691 692 690
f 691 987 693
f 691 690 988
f 988 987 691
f 836 850 837
f 862 847 861
f 862 875 863
f 874 875 862
f 861 692 862
f 862 692 874
f 863 849 848
f 848 862 863
f 847 862 848
f 847 848 833
f 914 900 689
f 915 900 914
f 689 930 914
f 914 930 915
f 887 692 693
f 649 900 887
f 888 874 887
f 874 692 887
f 847 833 697
f 861 847 697
f 697 696 861
f 89 88 90
f 90 372 89
f 89 87 88
f 372 87 89
f 428 477 86
f 86 87 428
f 428 87 372
f 428 372 430
f 477 428 429
f 429 428 430
f 472 475 474
f 884 873 872
f 926 927 913
f 927 678 913
f 819 818 832
f 803 785 786
f 786 785 774
f 786 802 803
f 803 802 816
f 829 830 816
f 789 770 790
f 771 770 789
f 731 729 756
f 756 770 771
f 756 727 755
f 729 727 756
f 799 812 800
f 800 789 799
f 799 789 790
f 753 754 723
f 753 723 752
f 841 855 842
f 870 869 882
f 855 869 870
f 871 856 870
f 870 856 855
f 939 923 938
f 939 940 924
f 924 923 939
f 1001 1002 1000
f 1027 1028 1029
f 1027 1026 1028
f 1025 1026 1027
f 980 1025 1027
f 1027 981 980
f 1029 981 1027
f 1029 1030 1022
f 1031 1023 1022
f 1022 1030 1031
f 1022 981 1029
f 1077 1026 1081
f 1030 1075 1074
f 736 734 735
f 734 733 735
f 735 737 736
f 759 737 735
f 735 733 759
f 759 774 760
f 774 761 760
f 760 737 759
f 760 761 737
f 738 737 739
f 737 761 739
f 761 741 739
f 742 739 741
f 743 744 742
f 742 741 743
f 762 761 776
f 762 741 761
f 728 727 730
f 859 666 668
f 858 873 859
f 859 873 666
f 857 843 842
f 842 856 857
f 857 856 872
f 872 873 857
f 857 873 858
f 858 859 844
f 844 859 845
f 844 857 858
f 843 857 844
f 130 131 90
f 90 3 130
f 239 238 137
f 239 137 138
f 240 228 239
f 227 238 239
f 239 228 227
f 138 139 239
f 239 139 240
f 227 217 216
f 216 217 170
f 218 228 229
f 217 228 218
f 171 217 218
f 218 172 171
f 218 230 219
f 229 230 218
f 219 173 218
f 173 172 218
f 175 162 174
f 174 220 175
f 175 220 221
f 80 242 241
f 242 230 241
f 241 240 80
f 241 230 240
f 82 374 78
f 82 78 77
f 77 81 82
f 82 81 373
f 373 374 82
f 75 79 425
f 79 374 425
f 425 418 75
f 426 418 425
f 425 374 426
f 393 455 454
f 454 401 453
f 399 401 454
f 397 399 454
f 454 455 397
f 393 390 391
f 391 455 393
f 11 376 63
f 376 65 63
f 63 65 64
f 63 12 11
f 64 12 63
f 66 65 396
f 261 262 66
f 64 65 66
f 66 262 64
f 69 418 417
f 418 419 417
f 459 402 458
f 402 407 458
f 458 407 460
f 460 407 461
f 365 364 461
f 461 407 365
f 416 414 415
f 119 117 118
f 119 115 110
f 116 111 110
f 110 115 116
f 1061 1107 1063
f 17 383 324
f 382 385 384
f 1003 1002 1064
f 1064 1061 1063
f 1071 1109 1058
f 397 455 395
f 396 398 395
f 395 398 397
f 395 66 396
f 18 16 17
f 60 62 389
f 60 289 62
f 61 289 60
f 60 18 61
f 16 18 60
f 379 383 17
f 17 16 379
f 379 60 389
f 16 60 379
f 389 391 379
f 379 391 390
f 382 383 379
f 379 390 382
f 275 291 292
f 275 262 15
f 275 15 290
f 290 291 275
f 73 67 10
f 10 12 73
f 246 72 73
f 72 67 73
f 266 267 253
f 254 123 253
f 253 267 254
f 256 210 255
f 255 210 209
f 254 267 268
f 268 280 281
f 267 280 268
f 299 314 300
f 299 300 283
f 283 298 299
f 260 274 52
f 52 49 260
f 52 274 287
f 287 288 52
f 320 58 319
f 58 304 319
f 303 288 287
f 303 304 288
f 287 302 303
f 303 317 318
f 302 317 303
f 318 319 303
f 303 319 304
f 334 331 630
f 630 629 21
f 632 634 498
f 635 634 632
f 497 498 496
f 497 625 498
f 325 326 580
f 580 579 325
f 581 579 582
f 635 579 581
f 55 56 57
f 55 288 58
f 58 23 55
f 23 56 55
f 150 157 158
f 158 151 150
f 191 181 180
f 191 200 201
f 201 202 191
f 180 181 135
f 199 200 189
f 180 179 189
f 127 126 128
f 134 179 180
f 180 135 134
f 128 126 134
f 134 135 128
f 179 134 133
f 29 28 26
f 193 202 203
f 193 194 183
f 168 202 167
f 168 169 202
f 102 169 168
f 99 205 204
f 205 194 204
f 204 169 99
f 203 169 204
f 204 193 203
f 194 193 204
f 95 206 92
f 92 98 93
f 93 94 92
f 92 94 91
f 92 91 95
f 51 519 47
f 51 50 519
f 49 50 51
f 51 47 46
f 46 49 51
f 591 343 348
f 348 529 591
f 523 589 516
f 591 529 530
f 516 515 585
f 510 557 559
f 615 519 616
f 615 571 519
f 615 616 614
f 614 571 615
f 44 48 45
f 48 563 45
f 45 563 43
f 43 42 45
f 45 42 44
f 552 550 510
f 606 605 552
f 510 606 552
f 547 546 545
f 545 546 544
f 545 552 547
f 550 552 545
f 543 550 545
f 545 542 543
f 544 542 545
f 35 521 33
f 520 521 35
f 548 550 543
f 543 521 548
f 183 39 36
f 35 33 36
f 40 39 185
f 604 546 547
f 600 542 599
f 599 538 600
f 600 538 536
f 600 536 601
f 619 623 618
f 578 623 619
f 619 617 620
f 504 617 619
f 569 507 611
f 611 507 506
f 613 503 612
f 504 503 613
f 613 507 614
f 614 617 613
f 613 617 504
f 1217 1218 1130
f 1217 1130 1120
f 1120 526 1217
f 964 1218 1217
f 1217 526 964
f 964 526 327
f 327 526 326
f 496 634 633
f 634 636 633
f 584 640 637
f 639 640 584
f 582 526 584
f 584 526 639
f 1116 1115 1118
f 1118 1119 1120
f 1120 1116 1118
f 1223 1224 1182
f 1128 1181 1177
f 1177 1181 1178
f 1178 1181 1137
f 1178 1136 1177
f 1137 1136 1178
f 1180 1117 1179
f 1179 1181 1180
f 1180 1181 1182
f 1224 1219 1180
f 1182 1224 1180
f 1180 1219 1220
f 1220 1117 1180
f 1221 1117 1220
f 1221 1115 1116
f 1116 1117 1221
f 965 1218 964
f 974 1137 1138
f 1138 1137 1179
f 1179 1131 1138
f 1138 1131 1130
f 1189 1231 1226
f 1226 1187 1189
f 1184 1175 1186
f 1182 1181 1127
f 1181 1128 1127
f 1222 1223 1127
f 1127 1223 1182
f 1189 1188 1191
f 1233 1193 1124
f 1124 1232 1233
f 1234 1193 1233
f 1186 1175 1174
f 666 873 669
f 669 667 666
f 1244 1202 1204
f 1239 1202 1244
f 1235 1124 1194
f 1194 1196 1235
f 1241 1236 1198
f 1235 1196 1238
f 1150 668 1151
f 1150 1149 668
f 679 678 944
f 680 678 679
f 746 744 743
f 743 745 746
f 747 748 746
f 746 745 747
f 750 654 655
f 655 654 656
f 1135 1137 974
f 1135 1136 1137
f 1149 1148 846
f 846 1148 664
f 832 844 846
f 846 844 845
f 1149 1168 1169
f 1169 1148 1149
f 1147 1148 1169
f 664 1147 665
f 1147 661 665
f 1146 1147 1171
f 1146 661 1147
f 661 1146 1145
f 658 657 820
f 266 278 279
f 279 280 266
f 278 295 279
f 295 280 279
f 901 900 915
f 888 887 901
f 901 887 900
f 889 902 903
f 903 890 889
f 888 901 889
f 889 901 902
f 889 874 888
f 889 875 874
f 876 875 889
f 889 890 876
f 891 903 904
f 916 901 915
f 902 901 916
f 903 902 916
f 935 919 918
f 918 904 903
f 948 952 982
f 982 952 981
f 981 1022 982
f 950 981 951
f 981 952 951
f 652 650 651
f 979 650 652
f 686 979 652
f 651 928 652
f 652 928 686
f 980 950 978
f 978 979 980
f 1019 1044 1020
f 1020 983 1019
f 1044 1025 1020
f 979 983 1020
f 1043 1082 1079
f 1086 1085 1035
f 1084 1083 1039
f 1039 1037 1084
f 1037 1085 1084
f 1052 1093 1054
f 1052 1054 1055
f 1094 1093 1052
f 1087 1088 1033
f 1033 1034 1087
f 1034 1032 1087
f 1015 1016 988
f 1015 1032 1034
f 1038 1016 1036
f 1035 1038 1036
f 1036 1015 1034
f 1016 1015 1036
f 1036 1034 1033
f 1033 1035 1036
f 984 686 688
f 688 648 984
f 686 687 688
f 688 687 689
f 689 649 688
f 649 648 688
f 486 485 346
f 1024 947 948
f 1023 947 1024
f 1024 1022 1023
f 948 982 1024
f 1024 982 1022
f 381 1023 1031
f 1031 494 381
f 381 439 437
f 381 494 439
f 339 340 381
f 437 339 381
f 381 340 947
f 381 947 1023
f 1031 1072 495
f 495 494 1031
f 495 492 439
f 439 494 495
f 1065 1105 1104
f 1065 1064 1063
f 1066 1064 1065
f 1101 1069 1104
f 1070 1069 1045
f 1045 1069 1098
f 878 892 879
f 879 866 878
f 891 892 878
f 988 696 989
f 989 1015 988
f 767 754 753
f 753 752 767
f 649 887 886
f 696 697 695
f 430 483 432
f 432 429 430
f 489 491 488
f 346 485 336
f 90 131 484
f 131 485 484
f 484 372 90
f 484 483 430
f 430 372 484
f 484 486 483
f 485 486 484
f 471 477 476
f 477 429 476
f 476 472 471
f 475 472 476
f 463 415 423
f 362 424 422
f 422 427 362
f 422 423 421
f 424 423 422
f 421 419 422
f 422 419 420
f 422 420 426
f 426 427 422
f 465 423 424
f 474 357 359
f 359 472 474
f 359 468 472
f 362 427 469
f 469 468 362
f 472 468 469
f 469 470 471
f 471 472 469
f 426 470 469
f 469 427 426
f 872 871 883
f 883 884 872
f 883 870 882
f 871 870 883
f 883 882 896
f 924 925 910
f 925 911 910
f 910 923 924
f 909 923 910
f 896 909 910
f 912 925 926
f 912 911 925
f 926 913 912
f 675 678 680
f 675 913 678
f 783 657 778
f 778 777 783
f 783 776 784
f 783 777 776
f 764 745 743
f 747 745 764
f 764 765 747
f 806 805 818
f 818 819 806
f 807 657 806
f 657 783 806
f 784 805 806
f 806 783 784
f 788 802 787
f 802 786 787
f 787 773 788
f 774 773 787
f 787 786 774
f 815 816 802
f 801 814 815
f 815 802 801
f 814 827 815
f 817 804 803
f 803 816 817
f 818 805 817
f 817 805 804
f 817 830 818
f 817 816 830
f 755 754 769
f 769 756 755
f 770 756 769
f 790 770 769
f 731 756 757
f 757 756 771
f 811 824 825
f 825 812 811
f 812 799 811
f 799 798 811
f 849 850 835
f 850 836 835
f 835 848 849
f 725 728 726
f 727 728 725
f 726 724 725
f 725 724 723
f 754 727 725
f 725 723 754
f 721 752 723
f 721 724 722
f 723 724 721
f 854 855 840
f 855 841 840
f 894 907 908
f 962 1001 963
f 1000 714 963
f 963 1001 1000
f 1026 1077 1078
f 1028 1026 1078
f 1078 1075 1028
f 1030 1074 1073
f 1073 1072 1031
f 1031 1030 1073
f 738 739 740
f 739 742 740
f 776 777 763
f 763 762 776
f 763 777 778
f 778 764 763
f 763 764 743
f 743 741 763
f 741 762 763
f 668 1149 860
f 860 859 668
f 845 859 860
f 1149 846 860
f 860 846 845
f 159 172 173
f 173 160 159
f 158 171 159
f 171 172 159
f 159 160 153
f 159 151 158
f 153 160 154
f 223 112 176
f 162 175 176
f 453 401 452
f 414 416 363
f 363 364 365
f 365 414 363
f 464 415 463
f 464 416 415
f 114 119 110
f 117 119 114
f 110 224 114
f 123 117 114
f 114 215 123
f 1059 1109 1110
f 1107 1061 1108
f 322 442 321
f 442 969 321
f 328 324 383
f 328 384 329
f 328 383 382
f 382 384 328
f 446 384 385
f 456 395 455
f 456 391 389
f 455 391 456
f 389 14 456
f 14 395 456
f 13 395 14
f 15 261 13
f 13 14 15
f 261 66 13
f 66 395 13
f 276 275 292
f 292 293 276
f 276 293 277
f 263 262 276
f 262 275 276
f 248 236 247
f 247 12 248
f 247 73 12
f 247 236 246
f 246 73 247
f 248 249 250
f 265 278 266
f 266 251 265
f 123 215 252
f 252 253 123
f 215 251 252
f 252 251 266
f 266 253 252
f 297 296 312
f 297 280 296
f 281 280 297
f 313 314 299
f 299 298 313
f 316 317 301
f 301 317 302
f 315 300 314
f 316 301 315
f 315 301 300
f 270 283 271
f 269 283 270
f 270 271 256
f 270 255 269
f 256 255 270
f 271 283 284
f 284 283 300
f 298 283 282
f 282 283 269
f 518 50 54
f 54 50 49
f 49 52 54
f 57 622 54
f 54 622 518
f 335 630 21
f 334 630 335
f 525 635 631
f 635 632 631
f 631 331 525
f 631 630 331
f 629 630 631
f 333 579 332
f 333 325 579
f 53 52 288
f 288 55 53
f 53 55 57
f 57 54 53
f 53 54 52
f 142 140 141
f 141 143 142
f 188 179 178
f 188 189 179
f 188 198 199
f 199 189 188
f 180 189 190
f 190 189 200
f 190 191 180
f 200 191 190
f 126 127 27
f 543 542 540
f 540 600 601
f 542 600 540
f 601 27 540
f 540 27 127
f 178 179 132
f 179 133 132
f 125 134 126
f 125 133 134
f 125 27 26
f 126 27 125
f 26 124 125
f 124 132 125
f 125 132 133
f 31 32 30
f 28 29 30
f 30 29 31
f 25 29 26
f 26 27 25
f 349 528 350
f 32 528 349
f 527 529 350
f 350 528 527
f 531 530 527
f 527 530 529
f 527 537 531
f 29 25 534
f 601 536 534
f 534 27 601
f 534 25 27
f 192 191 202
f 202 193 192
f 192 193 183
f 101 97 96
f 101 96 100
f 954 1134 953
f 1133 1134 954
f 682 681 1157
f 1212 1134 1214
f 1214 1134 1133
f 350 529 347
f 529 348 347
f 587 523 516
f 587 956 341
f 1132 956 587
f 341 342 587
f 587 342 523
f 590 343 591
f 590 523 343
f 591 530 590
f 589 523 590
f 590 530 589
f 589 530 532
f 531 533 532
f 532 530 531
f 516 585 586
f 586 587 516
f 568 607 608
f 560 559 557
f 560 608 609
f 568 608 560
f 510 559 508
f 537 538 539
f 539 533 531
f 531 537 539
f 595 533 539
f 589 532 588
f 588 532 592
f 593 533 595
f 128 135 129
f 129 127 128
f 129 540 127
f 521 520 549
f 549 548 521
f 549 557 551
f 555 557 549
f 551 550 549
f 550 548 549
f 35 36 37
f 37 36 39
f 37 520 35
f 182 135 181
f 182 192 183
f 181 191 182
f 191 192 182
f 603 604 547
f 547 552 603
f 603 552 605
f 624 623 578
f 502 619 618
f 504 619 502
f 502 503 504
f 610 569 611
f 610 607 568
f 568 569 610
f 568 566 567
f 567 569 568
f 572 507 567
f 507 569 567
f 567 571 572
f 565 571 567
f 567 564 565
f 567 566 564
f 505 613 612
f 505 506 507
f 507 613 505
f 638 584 637
f 583 636 634
f 583 638 636
f 584 638 583
f 583 634 635
f 635 581 583
f 583 581 582
f 582 584 583
f 974 1138 971
f 971 1138 972
f 1139 965 972
f 972 1138 1139
f 1139 1138 1130
f 1130 1218 1139
f 1218 965 1139
f 1187 1226 1227
f 1129 1184 1183
f 1183 1128 1129
f 1183 1127 1128
f 1186 1187 1185
f 1185 1184 1186
f 1185 1183 1184
f 1185 1227 1228
f 1187 1227 1185
f 1229 1193 1234
f 1229 1191 1193
f 1192 1193 1190
f 1193 1191 1190
f 1190 1191 1188
f 1129 1128 1176
f 1176 1128 1177
f 1176 1184 1129
f 1175 1184 1176
f 1177 1136 1140
f 1140 1176 1177
f 1141 1176 1140
f 1140 1136 653
f 653 1141 1140
f 873 884 885
f 885 669 873
f 1243 1244 1204
f 1240 1202 1239
f 1200 1241 1198
f 1200 1240 1241
f 1202 1240 1200
f 1237 1196 1198
f 1237 1238 1196
f 1198 1236 1237
f 685 679 944
f 1154 1163 1153
f 667 669 671
f 669 670 671
f 1151 667 671
f 913 675 673
f 973 1135 974
f 656 1136 973
f 1136 1135 973
f 1168 1195 1126
f 1126 1169 1168
f 1124 1125 1126
f 1126 1194 1124
f 1196 1194 1126
f 1126 1195 1196
f 1171 1147 1170
f 1147 1169 1170
f 1170 1192 1171
f 1170 1125 1192
f 1170 1126 1125
f 1169 1126 1170
f 660 665 661
f 660 661 807
f 660 819 832
f 807 806 660
f 660 806 819
f 664 665 663
f 832 846 663
f 663 846 664
f 663 660 832
f 665 660 663
f 658 820 1144
f 1144 820 1145
f 1172 1146 1171
f 1172 1145 1146
f 1171 1192 1172
f 1192 1190 1172
f 1172 1190 1188
f 1145 820 662
f 807 661 662
f 661 1145 662
f 662 657 807
f 662 820 657
f 936 919 935
f 936 920 919
f 921 937 922
f 922 908 921
f 908 907 921
f 905 892 891
f 891 904 905
f 906 893 905
f 905 893 892
f 905 920 906
f 919 920 905
f 905 918 919
f 904 918 905
f 932 915 931
f 932 916 915
f 935 918 934
f 903 916 917
f 917 918 903
f 917 932 933
f 916 932 917
f 933 934 917
f 917 934 918
f 949 978 950
f 949 650 979
f 979 978 949
f 980 979 1021
f 979 1020 1021
f 1021 1025 980
f 1021 1020 1025
f 1043 1079 1080
f 1080 1081 1076
f 1076 1043 1080
f 1089 1086 1035
f 1033 1088 1089
f 1089 1035 1033
f 1051 1052 1053
f 1052 1055 1053
f 1095 1094 1052
f 345 344 434
f 434 344 338
f 439 492 493
f 1105 1065 1106
f 1063 1107 1106
f 1106 1065 1063
f 1069 1101 1102
f 1102 1103 1098
f 1098 1069 1102
f 1046 1048 1047
f 1046 1045 1098
f 1047 1045 1046
f 1103 1099 1046
f 1098 1103 1046
f 1046 1099 1100
f 1100 1048 1046
f 1097 1048 1100
f 1096 1095 1050
f 1050 1095 1052
f 1050 1097 1096
f 1048 1097 1050
f 1050 1052 1051
f 877 866 865
f 877 878 866
f 877 865 876
f 877 876 891
f 891 878 877
f 1057 1032 1013
f 1012 1055 1013
f 1013 1055 1057
f 766 752 710
f 766 767 752
f 694 887 693
f 694 886 887
f 693 986 694
f 700 697 833
f 700 695 697
f 699 695 700
f 483 486 482
f 482 432 483
f 481 432 482
f 429 432 431
f 475 476 431
f 431 476 429
f 474 475 431
f 356 432 481
f 356 431 432
f 491 489 438
f 438 493 491
f 439 493 438
f 437 439 438
f 337 485 131
f 337 336 485
f 466 465 424
f 466 424 362
f 362 361 466
f 463 423 462
f 423 465 462
f 468 467 360
f 360 361 362
f 362 468 360
f 358 359 357
f 468 359 358
f 358 467 468
f 884 883 898
f 898 910 911
f 899 885 898
f 898 885 884
f 898 912 899
f 911 912 898
f 828 815 827
f 829 816 828
f 816 815 828
f 754 767 768
f 768 769 754
f 810 811 798
f 720 721 722
f 718 713 720
f 839 853 854
f 854 840 839
f 880 894 895
f 895 881 880
f 896 881 895
f 895 908 896
f 895 894 908
f 151 159 152
f 152 159 153
f 174 162 161
f 162 154 161
f 161 154 160
f 161 173 174
f 161 160 173
f 155 154 162
f 104 105 106
f 99 104 106
f 106 96 99
f 100 96 106
f 103 104 102
f 103 105 104
f 222 175 221
f 222 176 175
f 232 233 222
f 222 221 232
f 233 223 222
f 223 176 222
f 162 176 107
f 453 452 366
f 457 401 459
f 457 452 401
f 388 450 448
f 368 366 367
f 453 366 368
f 393 454 368
f 368 454 453
f 224 236 225
f 225 114 224
f 215 114 225
f 1061 1064 1062
f 1062 1059 1061
f 1002 977 1062
f 1062 1064 1002
f 1111 1108 1061
f 1111 1059 1110
f 1061 1059 1111
f 968 967 977
f 968 977 1002
f 968 1001 962
f 1002 1001 968
f 977 967 976
f 1058 977 976
f 961 960 976
f 976 960 1058
f 1058 960 975
f 975 969 442
f 975 1071 1058
f 442 1071 975
f 445 446 385
f 445 444 378
f 385 444 445
f 323 445 378
f 446 445 323
f 387 444 385
f 385 386 387
f 386 388 387
f 1109 1071 1113
f 378 444 371
f 444 369 371
f 371 442 378
f 264 249 263
f 264 250 249
f 251 250 264
f 264 265 251
f 263 276 264
f 264 276 277
f 264 277 278
f 278 265 264
f 237 236 248
f 248 250 237
f 237 250 251
f 237 225 236
f 285 302 286
f 285 301 302
f 300 301 285
f 285 284 300
f 286 273 285
f 285 273 272
f 285 272 271
f 271 284 285
f 501 499 500
f 500 624 501
f 501 624 578
f 626 632 498
f 626 501 577
f 498 625 626
f 625 499 626
f 499 501 626
f 576 619 620
f 578 619 576
f 620 621 576
f 576 501 578
f 577 501 576
f 629 631 628
f 144 167 166
f 144 146 167
f 144 165 142
f 166 165 144
f 147 146 144
f 142 143 144
f 102 168 148
f 148 168 167
f 167 146 148
f 541 521 543
f 543 540 541
f 540 129 541
f 524 534 536
f 524 527 528
f 524 32 31
f 524 528 32
f 31 29 524
f 29 534 524
f 955 946 1133
f 1133 954 955
f 953 1134 1159
f 959 1157 681
f 680 679 684
f 682 1157 684
f 684 685 682
f 679 685 684
f 1133 946 945
f 945 1214 1133
f 1132 1214 945
f 522 342 343
f 343 523 522
f 523 342 522
f 1216 586 585
f 1216 1214 1132
f 1132 587 1216
f 587 586 1216
f 558 560 557
f 558 557 556
f 561 508 559
f 561 560 609
f 559 560 561
f 509 606 510
f 510 508 509
f 513 539 538
f 599 598 513
f 513 538 599
f 598 511 513
f 514 515 516
f 516 589 514
f 589 588 514
f 594 532 533
f 533 593 594
f 592 532 594
f 34 129 135
f 135 182 34
f 34 36 33
f 183 36 34
f 34 182 183
f 598 546 597
f 597 511 598
f 1222 1127 1225
f 1127 1183 1225
f 1225 1185 1228
f 1183 1185 1225
f 1230 1231 1189
f 1189 1191 1230
f 1191 1229 1230
f 1175 1176 1142
f 1142 1176 1141
f 780 749 747
f 747 765 780
f 653 749 780
f 780 1141 653
f 1199 1200 1198
f 683 681 682
f 682 685 683
f 680 684 1155
f 1121 1122 1205
f 1242 1243 1121
f 1121 1243 1204
f 1121 1245 1242
f 1205 1245 1121
f 1152 1165 1151
f 1153 1165 1152
f 1151 671 1152
f 1152 670 1153
f 1152 671 670
f 1153 1163 1164
f 1164 1165 1153
f 672 670 669
f 672 885 899
f 669 885 672
f 913 673 672
f 899 912 672
f 672 912 913
f 677 1154 1153
f 677 673 675
f 1173 1172 1188
f 1173 1144 1145
f 1145 1172 1173
f 1173 1188 1186
f 1186 1174 1173
f 1088 1087 1092
f 1087 1091 1092
f 1056 1054 1093
f 1056 1091 1087
f 1057 1055 1056
f 1056 1055 1054
f 1056 1032 1057
f 1056 1087 1032
f 346 345 380
f 380 486 346
f 380 345 434
f 435 338 339
f 435 339 437
f 437 434 435
f 434 338 435
f 1066 1065 1067
f 1067 1068 1066
f 1104 1069 1067
f 1067 1065 1104
f 1067 1069 1070
f 1070 1068 1067
f 1070 1045 1006
f 1045 1007 1006
f 1047 1048 1049
f 1049 1050 1051
f 1048 1050 1049
f 993 1010 992
f 1012 991 992
f 1011 1055 1012
f 1011 1053 1055
f 1012 992 1011
f 1011 992 1010
f 1051 1053 1011
f 1011 1010 1051
f 796 795 809
f 793 795 796
f 809 810 796
f 809 795 808
f 1004 1000 1003
f 1004 999 1000
f 1003 1064 1004
f 1004 1064 1066
f 715 1000 643
f 1000 999 643
f 643 717 715
f 643 999 998
f 718 717 642
f 642 713 718
f 717 643 642
f 752 721 751
f 710 752 751
f 1032 1015 1014
f 1014 1013 1032
f 1015 989 1014
f 990 991 1012
f 1012 1013 990
f 990 1014 989
f 1013 1014 990
f 699 991 990
f 990 695 699
f 990 989 696
f 696 695 990
f 886 694 647
f 985 648 647
f 647 986 985
f 647 694 986
f 647 648 649
f 649 886 647
f 821 822 809
f 809 808 821
f 481 482 487
f 487 482 486
f 353 480 481
f 481 487 353
f 353 487 489
f 354 356 481
f 481 480 354
f 355 356 354
f 473 357 474
f 474 478 473
f 433 478 474
f 474 431 433
f 431 356 433
f 479 356 355
f 479 433 356
f 478 433 479
f 896 910 897
f 910 898 897
f 897 883 896
f 897 898 883
f 769 768 792
f 793 796 792
f 792 767 793
f 792 768 767
f 834 833 848
f 848 835 834
f 823 810 809
f 809 822 823
f 824 811 823
f 811 810 823
f 721 720 719
f 719 720 713
f 719 751 721
f 713 751 719
f 102 148 149
f 149 146 147
f 149 148 146
f 4 155 156
f 156 107 163
f 156 155 162
f 162 107 156
f 6 103 102
f 102 149 6
f 6 155 4
f 163 107 109
f 109 107 176
f 109 112 108
f 109 176 112
f 451 368 367
f 394 450 388
f 394 451 450
f 368 451 394
f 394 386 392
f 394 388 386
f 394 392 393
f 393 368 394
f 1059 1062 1060
f 1058 1109 1060
f 1109 1059 1060
f 1060 977 1058
f 1060 1062 977
f 961 976 966
f 966 976 967
f 969 975 970
f 970 975 960
f 446 323 330
f 329 384 330
f 384 446 330
f 322 323 377
f 378 322 377
f 377 323 378
f 447 387 449
f 388 448 449
f 449 387 388
f 1110 1109 1114
f 1109 1113 1114
f 1071 440 1112
f 1112 1113 1071
f 443 369 444
f 443 387 447
f 444 387 443
f 441 440 1071
f 441 371 440
f 441 1071 442
f 442 371 441
f 440 371 370
f 370 371 369
f 226 251 215
f 226 237 251
f 215 225 226
f 225 237 226
f 577 576 574
f 574 576 621
f 621 622 574
f 574 622 573
f 627 631 632
f 627 628 631
f 577 628 627
f 632 626 627
f 627 626 577
f 145 144 143
f 147 144 145
f 535 524 536
f 527 524 535
f 537 527 535
f 536 538 535
f 535 538 537
f 1210 1134 1212
f 1210 1159 1134
f 1212 1213 1210
f 953 1159 1158
f 1158 1159 1157
f 1157 959 1158
f 957 956 1132
f 1132 945 957
f 1213 1249 1250
f 1248 1245 1207
f 1207 1245 1205
f 1211 1250 1251
f 1213 1250 1211
f 1211 1210 1213
f 1251 1246 1211
f 1211 1246 1209
f 1252 1216 585
f 1254 1249 1215
f 1215 1249 1213
f 1214 1216 1215
f 1215 1213 1212
f 1212 1214 1215
f 512 513 511
f 136 34 33
f 129 34 136
f 136 33 521
f 521 541 136
f 136 541 129
f 553 554 556
f 556 555 553
f 555 549 553
f 553 549 520
f 520 37 553
f 41 554 553
f 546 604 602
f 602 597 546
f 659 778 658
f 765 782 781
f 781 780 765
f 1141 780 781
f 781 1142 1141
f 782 1142 781
f 1167 1168 1149
f 1149 1150 1167
f 1203 1121 1204
f 1122 1121 1203
f 1204 1202 1203
f 1165 1164 1203
f 1163 1122 1203
f 1203 1164 1163
f 1163 1154 1162
f 1154 1155 1162
f 1162 1122 1163
f 1156 684 1157
f 1156 1155 684
f 1157 1161 1156
f 1156 1162 1155
f 1161 1162 1156
f 670 672 674
f 674 672 673
f 1153 670 674
f 674 677 1153
f 673 677 674
f 680 1155 676
f 676 675 680
f 676 677 675
f 676 1155 1154
f 1154 677 676
f 1090 1056 1093
f 1091 1056 1090
f 997 1006 996
f 996 1006 1007
f 794 766 710
f 794 795 793
f 793 767 794
f 767 766 794
f 1009 1010 993
f 993 994 1009
f 1051 1010 1009
f 1009 1049 1051
f 1047 1049 1009
f 1066 1068 1005
f 1005 1004 1066
f 1005 1068 1070
f 1070 1006 1005
f 997 998 1005
f 1005 1006 997
f 998 999 1005
f 999 1004 1005
f 711 998 997
f 486 380 490
f 490 487 486
f 490 380 434
f 490 438 489
f 489 487 490
f 480 353 352
f 790 769 791
f 769 792 791
f 791 792 798
f 791 799 790
f 791 798 799
f 798 792 797
f 797 792 796
f 797 810 798
f 797 796 810
f 5 6 4
f 103 6 5
f 575 573 517
f 575 574 573
f 517 629 575
f 629 628 575
f 575 628 577
f 577 574 575
f 953 1158 958
f 958 1158 959
f 1248 1207 1247
f 1209 1246 1247
f 1247 1207 1209
f 1205 1122 1123
f 1122 1162 1123
f 1254 1215 1253
f 1216 1252 1253
f 1253 1215 1216
f 513 512 596
f 595 539 596
f 539 513 596
f 38 37 39
f 38 553 37
f 41 553 38
f 40 41 38
f 39 40 38
f 778 659 779
f 779 659 782
f 779 782 765
f 779 764 778
f 765 764 779
f 658 1144 1143
f 1143 659 658
f 1143 1142 782
f 782 659 1143
f 1143 1173 1174
f 1144 1173 1143
f 1143 1174 1175
f 1175 1142 1143
f 1197 1199 1198
f 1197 1195 1168
f 1168 1167 1197
f 1198 1196 1197
f 1196 1195 1197
f 1151 1165 1166
f 1199 1197 1166
f 1166 1197 1167
f 1166 1150 1151
f 1166 1167 1150
f 1201 1203 1202
f 1202 1200 1201
f 1200 1199 1201
f 1165 1203 1201
f 1201 1166 1165
f 1199 1166 1201
f 1157 1159 1160
f 1160 1161 1157
f 710 751 712
f 712 645 710
f 712 751 713
f 644 996 709
f 644 709 710
f 710 645 644
f 709 996 995
f 795 794 708
f 710 709 708
f 708 794 710
f 704 994 993
f 704 706 994
f 993 992 704
f 704 992 702
f 713 642 641
f 641 712 713
f 711 712 641
f 641 642 643
f 641 643 998
f 998 711 641
f 833 821 698
f 698 700 833
f 821 701 698
f 699 700 698
f 698 991 699
f 698 701 702
f 698 992 991
f 702 992 698
f 436 434 437
f 436 490 434
f 437 438 436
f 438 490 436
f 351 489 488
f 351 353 489
f 351 352 353
f 1208 1211 1209
f 1210 1211 1208
f 1209 1207 1208
f 1161 1160 1208
f 1159 1210 1208
f 1208 1160 1159
f 645 712 646
f 646 712 711
f 646 711 997
f 646 644 645
f 997 996 646
f 996 644 646
f 994 706 705
f 705 995 994
f 709 995 705
f 705 708 709
f 706 708 705
f 1008 1009 994
f 994 995 1008
f 1047 1009 1008
f 1008 996 1007
f 1008 995 996
f 1008 1045 1047
f 1008 1007 1045
f 795 708 707
f 707 708 706
f 706 704 707
f 707 808 795
f 703 704 702
f 702 701 703
f 808 707 703
f 703 707 704
f 703 821 808
f 703 701 821
f 1206 1208 1207
f 1206 1207 1205
f 1205 1123 1206
f 1161 1208 1206
f 1206 1162 1161
f 1206 1123 1162
f 206 196 205
f 205 196 195
f 837 838 826
f 826 825 837
f 868 867 879
f 880 868 879
f 235 245 246
f 234 245 235
f 813 814 801
f 813 801 800
f 733 734 732
f 733 732 731
f 830 843 831
f 842 843 830
f 814 813 827
f 827 813 826
f 71 72 70
f 70 69 71
f 246 245 70
f 70 72 246
f 224 112 223
f 110 112 224
f 234 235 224
f 224 223 234
f 411 419 413
f 413 419 421
f 111 112 110
f 111 113 112
f 195 196 185
f 196 186 185
f 852 867 868
f 868 853 852
f 772 771 789
f 789 788 772
f 800 801 789
f 789 801 788
f 824 837 825
f 824 836 837
f 842 830 841
f 841 830 829
f 831 843 844
f 832 831 844
f 71 69 417
f 417 409 71
f 417 419 411
f 411 409 417
f 255 209 120
f 255 120 254
f 268 255 254
f 269 255 268
f 206 205 92
f 205 96 92
f 97 92 96
f 98 92 97
f 40 185 186
f 186 42 40
f 423 413 421
f 415 413 423
f 757 733 731
f 758 733 757
f 757 771 772
f 772 758 757
f 880 879 894
f 879 893 894
f 894 893 906
f 906 907 894
f 313 297 312
f 298 297 313
f 282 297 298
f 281 297 282
f 269 268 282
f 282 268 281
f 151 143 141
f 141 150 151
f 41 40 42
f 41 42 43
f 921 936 937
f 920 936 921
f 921 907 906
f 906 920 921
f 828 841 829
f 828 840 841
f 839 852 853
f 838 852 839
f 826 838 839
f 839 827 826
f 840 828 839
f 839 828 827
f 568 560 558
f 558 566 568
f 556 564 558
f 564 566 558
f 554 564 556
f 562 564 554
f 554 41 43
f 43 562 554
f 822 821 834
f 834 821 833
f 836 824 823
f 823 835 836
f 822 834 823
f 823 834 835
f 153 154 149
f 149 147 153
f 6 149 154
f 154 155 6
f 316 315 330
f 330 307 306
f 744 746 330
f 962 963 330
f 738 740 330
f 330 18 17
f 21 20 330
f 330 335 21
f 330 748 750
f 330 736 738
f 306 305 330
f 17 324 330
f 332 331 330
f 750 655 330
f 330 730 732
f 330 717 718
f 732 734 330
f 330 59 320
f 330 313 312
f 309 308 330
f 330 310 309
f 312 311 330
f 330 724 726
f 330 734 736
f 330 305 61
f 718 720 330
f 330 317 316
f 964 327 330
f 974 971 330
f 330 973 974
f 330 714 716
f 716 717 330
f 726 728 330
f 330 968 962
f 308 307 330
f 330 20 59
f 318 317 330
f 330 331 334
f 320 319 330
f 330 333 332
f 330 965 964
f 311 310 330
f 330 742 744
f 330 728 730
f 322 321 330
f 330 960 961
f 61 18 330
f 330 328 329
f 330 319 318
f 326 325 330
f 330 327 326
f 972 965 330
f 330 746 748
f 330 655 656
f 722 724 330
f 330 963 714
f 330 740 742
f 330 323 322
f 330 321 969
f 961 966 330
f 324 328 330
f 314 313 330
f 330 315 314
f 334 335 330
f 325 333 330
f 330 971 972
f 656 973 330
f 330 720 722
f 967 968 330
f 969 970 330
f 330 966 967
f 330 970 960
f 145 143 151
f 151 152 145
f 153 147 145
f 145 152 153
f 5 8 7
f 108 177 5
f 5 118 122
f 115 119 5
f 5 94 93
f 5 101 100
f 5 208 8
f 122 121 5
f 7 91 5
f 5 121 208
f 113 111 5
f 5 177 113
f 5 116 115
f 93 98 5
f 4 156 5
f 5 119 118
f 111 116 5
f 91 94 5
f 98 97 5
f 100 106 5
f 5 109 108
f 97 101 5
f 5 106 105
f 105 103 5
f 5 156 163
f 163 109 5
f 958 349 350
f 948 947 958
f 28 30 958
f 2 137 958
f 341 956 958
f 958 685 944
f 140 164 958
f 958 928 651
f 931 930 958
f 958 936 935
f 651 650 958
f 958 238 227
f 227 216 958
f 958 188 178
f 958 170 157
f 958 952 948
f 958 941 940
f 944 943 958
f 958 340 339
f 958 3 2
f 958 141 140
f 958 164 198
f 157 150 958
f 929 928 958
f 958 930 929
f 950 951 958
f 942 941 958
f 958 943 942
f 938 937 958
f 940 939 958
f 137 238 958
f 131 130 958
f 958 124 28
f 350 347 958
f 958 932 931
f 946 955 958
f 935 934 958
f 958 949 950
f 958 939 938
f 958 130 3
f 958 216 170
f 346 336 958
f 178 132 958
f 958 954 953
f 958 348 343
f 958 342 341
f 958 951 952
f 958 345 346
f 947 340 958
f 339 338 958
f 150 141 958
f 198 188 958
f 958 132 124
f 958 30 32
f 32 349 958
f 958 337 131
f 956 957 958
f 958 347 348
f 343 342 958
f 958 945 946
f 937 936 958
f 933 932 958
f 958 934 933
f 650 949 958
f 344 345 958
f 958 338 344
f 336 337 958
f 958 955 954
f 958 959 681
f 681 683 958
f 958 683 685
f 958 957 945
f 1119 1118 596
f 596 1245 1248
f 596 1232 1235
f 496 633 596
f 606 509 596
f 596 640 1119
f 596 1243 1242
f 596 624 500
f 611 506 596
f 1254 1253 596
f 596 603 605
f 596 502 618
f 596 585 515
f 596 1221 1220
f 1228 1227 596
f 1235 1238 596
f 618 623 596
f 596 497 496
f 609 608 596
f 596 605 606
f 500 499 596
f 637 640 596
f 596 505 612
f 1220 1219 596
f 596 1223 1222
f 596 1226 1231
f 1234 1233 596
f 1239 1244 596
f 625 497 596
f 596 602 604
f 1251 1250 596
f 596 561 609
f 596 593 595
f 1248 1247 596
f 596 499 625
f 612 503 596
f 596 610 611
f 596 633 636
f 596 1118 1115
f 1224 1223 596
f 596 1219 1224
f 1115 1221 596
f 596 638 637
f 596 1233 1232
f 1222 1225 596
f 1236 1241 596
f 596 1240 1239
f 1242 1245 596
f 596 1237 1236
f 596 608 607
f 596 1249 1254
f 596 588 592
f 515 514 596
f 604 603 596
f 592 594 596
f 623 624 596
f 503 502 596
f 607 610 596
f 506 505 596
f 636 638 596
f 596 1227 1226
f 596 1229 1234
f 1244 1243 596
f 1241 1240 596
f 1238 1237 596
f 1231 1230 596
f 508 561 596
f 596 509 508
f 596 514 588
f 596 594 593
f 511 597 596
f 596 1225 1228
f 596 1230 1229
f 596 1250 1249
f 596 1246 1251
f 596 1252 585
f 596 512 511
f 597 602 596
f 596 1247 1246
f 596 1253 1252
f 351 1089 1088
f 351 1095 1096
f 1096 1097 351
f 1104 1105 351
f 1075 1078 351
f 1072 1073 351
f 351 1111 1110
f 351 1101 1104
f 351 461 364
f 364 363 351
f 1103 1102 351
f 351 1077 1081
f 351 451 367
f 459 458 351
f 351 464 463
f 351 1082 1083
f 1081 1080 351
f 1083 1084 351
f 488 491 351
f 351 495 1072
f 351 466 361
f 361 360 351
f 351 1074 1075
f 367 366 351
f 351 458 460
f 460 461 351
f 351 457 459
f 351 1099 1103
f 351 1079 1082
f 1085 1086 351
f 351 1084 1085
f 1093 1094 351
f 351 1112 440
f 492 495 351
f 351 493 492
f 351 1106 1107
f 351 1090 1093
f 355 354 351
f 463 462 351
f 351 1078 1077
f 351 1073 1074
f 351 358 357
f 351 479 355
f 351 363 416
f 416 464 351
f 1107 1108 351
f 447 449 351
f 351 1080 1079
f 1086 1089 351
f 1094 1095 351
f 440 370 351
f 491 493 351
f 1100 1099 351
f 1105 1106 351
f 351 1102 1101
f 351 1097 1100
f 1088 1092 351
f 357 473 351
f 465 466 351
f 351 462 465
f 351 360 467
f 467 358 351
f 351 366 452
f 452 457 351
f 351 448 450
f 1108 1111 351
f 1110 1114 351
f 351 443 447
f 351 1092 1091
f 351 354 480
f 351 473 478
f 478 479 351
f 450 451 351
f 351 449 448
f 351 1114 1113
f 1113 1112 351
f 369 443 351
f 351 370 369
f 1091 1090 351
f 480 352 351

