# https://github.com/mikedh/trimesh
v 0.01252436 -0.00826645 0.06384714
v 0.01842396 -0.00821369 0.06165411
v 0.01665194 -0.00814360 0.06285103
v 0.01464656 -0.00816153 0.06359648
v 0.01437740 -0.00422052 0.06296720
v 0.01759676 -0.00423968 0.06147017
v 0.01815480 -0.00427268 0.06102483
v 0.01788318 -0.02686277 0.06586427
v 0.01586312 -0.02688320 0.06660031
v 0.01399789 -0.03093238 0.06746508
v 0.01514011 -0.03086418 0.06740365
v 0.01613229 -0.03082421 0.06722959
v 0.01665423 -0.03081071 0.06709089
v 0.01809331 -0.03080307 0.06652321
v 0.01941360 -0.03084149 0.06571785
v 0.02057500 -0.03092481 0.06469929
v 0.01993950 -0.03087227 0.06530019
v 0.01517116 -0.03148915 0.06740490
v 0.01939751 -0.03146671 0.06573769
v 0.01666858 -0.03143627 0.06709559
v 0.01809178 -0.03142871 0.06653416
v 0.00949628 0.03606990 0.05676767
v 0.01539588 0.03612266 0.05457465
v 0.01362387 0.03619276 0.05577157
v 0.00922712 0.04001091 0.05613839
v 0.01029519 0.04007398 0.05607651
v 0.01134932 0.04011583 0.05588773
v 0.01180932 0.04012745 0.05576374
v 0.01324839 0.04013509 0.05519606
v 0.01456868 0.04009666 0.05439070
v 0.01335470 0.04013376 0.05514228
v 0.01573008 0.04001334 0.05337214
v 0.01512672 0.04006367 0.05394536
v 0.01024306 0.04066685 0.05588329
v 0.01446942 0.04068929 0.05421608
v 0.01174048 0.04071973 0.05557398
v 0.01316368 0.04072729 0.05501255
v 0.01664227 0.01740509 0.05759143
v 0.01485510 0.01747359 0.05878481
v 0.01283505 0.01745315 0.05952084
v 0.01211204 0.01347217 0.06032419
v 0.01638553 0.01349485 0.05863838
v 0.01691143 0.01346408 0.05822072
v -0.02853052 0.03457295 -0.00241798
v -0.02913198 0.03367634 -0.01430351
v -0.03283206 0.02717230 -0.02708946
v -0.03282940 0.02708129 -0.02694557
v -0.03249480 0.02775923 -0.02386996
v -0.02700676 0.03542360 0.01952879
v -0.02666842 0.03601108 0.01943349
v -0.02912246 0.03381325 -0.00226365
v -0.02587879 0.03697506 0.01925046
v -0.02607498 0.03677213 0.01929241
v -0.03131828 0.02937838 -0.01292551
v -0.03130007 0.02951983 -0.01283704
v -0.03135280 0.02958378 -0.01343750
v -0.03132304 0.02932337 -0.01294461
v -0.03136158 0.02868548 -0.01330036
v -0.03131717 0.02874580 -0.01289920
v -0.03133069 0.02910066 -0.01295704
v -0.03132911 0.02921390 -0.01296309
v -0.03127877 0.02962323 -0.01270791
v -0.03127178 0.02964712 -0.01265845
v -0.03125854 0.02967782 -0.01255155
v -0.02762487 0.03240165 0.01989204
v -0.02761074 0.03330588 0.01980271
v -0.02834803 0.03178731 0.01351219
v -0.03005934 0.03111300 -0.00184625
v -0.03007161 0.03021045 -0.00174056
v -0.03124753 0.02968383 -0.01244367
v -0.03123482 0.02964635 -0.01227967
v -0.03123167 0.02962074 -0.01222701
v -0.03122724 0.02955610 -0.01213677
v -0.03122438 0.02947114 -0.01206134
v -0.03122343 0.02942401 -0.01203193
v -0.03122184 0.02926464 -0.01197660
v -0.03120822 0.02889155 -0.01191572
v -0.03179586 0.02839565 -0.01717327
v -0.03179279 0.02856410 -0.01717295
v -0.03178957 0.02861829 -0.01716068
v -0.03178017 0.02872276 -0.01711782
v -0.03176818 0.02881332 -0.01705417
v -0.03171676 0.02897841 -0.01665600
v -0.03171203 0.02897196 -0.01660115
v -0.03176124 0.02885428 -0.01701345
v -0.03174042 0.02894304 -0.01687152
v -0.03172791 0.02897261 -0.01676729
v -0.03170099 0.02891635 -0.01644422
v -0.03150000 0.02931695 -0.01470828
v -0.03147617 0.02928537 -0.01443615
v -0.03146809 0.02919514 -0.01429344
v -0.03147720 0.02929150 -0.01445157
v -0.03148903 0.02932293 -0.01460008
v -0.03146570 0.02914018 -0.01424091
v -0.03146350 0.02906313 -0.01418878
v -0.03146095 0.02890389 -0.01413361
v -0.03144759 0.02856602 -0.01407859
v -0.03156818 0.02885300 -0.01512012
v -0.03169407 0.02881157 -0.01631339
v -0.03169240 0.02876600 -0.01627724
v -0.03168806 0.02855959 -0.01619271
v -0.03167490 0.02823800 -0.01614039
v -0.03155598 0.02841200 -0.01506075
v -0.03168990 0.02866849 -0.01622374
v -0.03156922 0.02873993 -0.01511412
v -0.03155813 0.02901740 -0.01508251
v -0.03154062 0.02915889 -0.01499399
v -0.03155983 0.02899817 -0.01509000
v -0.03153171 0.02920948 -0.01494182
v -0.03151989 0.02926235 -0.01486473
v -0.03282968 0.02702674 -0.02689332
v -0.03283085 0.02694865 -0.02684032
v -0.03283442 0.02678997 -0.02678490
v -0.03178271 0.02807553 -0.01712120
v -0.03208576 0.02759357 -0.01988873
v -0.03249894 0.02686835 -0.02369046
v -0.03282259 0.02623901 -0.02669409
v -0.03330066 0.02634771 -0.03186722
v -0.03327568 0.02644868 -0.03173989
v -0.03333163 0.02658302 -0.03344054
v -0.03348876 0.02562912 -0.03317689
v -0.03336411 0.02592317 -0.03198681
v -0.03335158 0.02604525 -0.03199356
v -0.03334171 0.02611946 -0.03198327
v -0.03332757 0.02620913 -0.03195506
v -0.03325672 0.02650208 -0.03158548
v -0.03324887 0.02650794 -0.03147741
v -0.03233214 0.02872510 -0.02408167
v -0.03324436 0.02647610 -0.03132750
v -0.03324431 0.02646955 -0.03131105
v -0.03307220 0.02680728 -0.02957940
v -0.03324784 0.02637710 -0.03116567
v -0.03308561 0.02675354 -0.02965776
v -0.03314007 0.02640168 -0.02983352
v -0.03312356 0.02654177 -0.02980475
v -0.03325111 0.02632388 -0.03111471
v -0.03312008 0.02656586 -0.02979540
v -0.03309589 0.02670546 -0.02970738
v -0.03303986 0.02685443 -0.02922940
v -0.03303747 0.02682893 -0.02915078
v -0.03305310 0.02686108 -0.02942428
v -0.03304444 0.02686698 -0.02931636
v -0.03290017 0.02700082 -0.02768343
v -0.03289192 0.02704770 -0.02764639
v -0.03287322 0.02713505 -0.02754341
v -0.03286931 0.02715011 -0.02751795
v -0.03285014 0.02720418 -0.02736233
v -0.03284085 0.02721012 -0.02725450
v -0.03283262 0.02717847 -0.02710498
v -0.03291392 0.02690742 -0.02773457
v -0.03303747 0.02673734 -0.02900627
v -0.03304207 0.02660407 -0.02890071
v -0.03304885 0.02644630 -0.02884550
v -0.03304099 0.02578057 -0.02873507
v -0.03292680 0.02602380 -0.02766648
v -0.03293712 0.02662629 -0.02776607
v -0.03293073 0.02674312 -0.02777247
v -0.03292377 0.02682215 -0.02776146
v -0.03326742 0.02608656 -0.03100493
v -0.03326793 0.02527305 -0.03086888
v -0.03320368 0.02542040 -0.03026328
v -0.03325656 0.02624288 -0.03105973
v -0.03314909 0.02628274 -0.02982695
v -0.03314438 0.02555341 -0.02970554
v -0.03356360 0.02456038 -0.03367052
v -0.03355024 0.02464209 -0.03352443
v -0.03354131 0.02466414 -0.03343955
v -0.03337041 0.02503252 -0.03183722
v -0.03348774 0.02474937 -0.03294910
v -0.03352207 0.02466418 -0.03327543
v -0.02743733 0.03428612 0.01968797
v -0.02988792 0.03209143 -0.00197860
v -0.03042624 0.03227153 -0.01394740
v -0.02983713 0.03302778 -0.01412720
v -0.03099653 0.03117536 -0.02471861
v -0.03029454 0.03181885 -0.02492387
v -0.03131136 0.02963937 -0.03444503
v -0.03189261 0.02808589 -0.04001647
v -0.03259100 0.02826227 -0.03395354
v -0.03316721 0.02672229 -0.03947664
v -0.03390154 0.02505995 -0.03890320
v -0.03405504 0.02411578 -0.03860473
v -0.03405064 0.02324508 -0.03834457
v -0.03258877 0.02745619 -0.03975607
v -0.03200982 0.02900349 -0.03420675
v -0.03158188 0.03042512 -0.02450450
v -0.03118515 0.03055764 -0.01360366
v -0.02623558 0.03569070 0.02511577
v -0.02653668 0.03479237 0.02527764
v -0.02505907 0.03544714 0.03071972
v -0.02670437 0.03301444 0.02550522
v -0.00913367 0.04205365 0.05270512
v -0.00604616 0.04280407 0.05513205
v -0.00953214 0.04135036 0.05330059
v -0.00671770 0.04193270 0.05572622
v -0.01749635 0.03611653 0.04629727
v -0.01738696 0.03786444 0.04587264
v -0.01979651 0.03546304 0.04282256
v -0.02044335 0.03698280 0.04112291
v -0.00744487 0.03849827 0.05697448
v -0.00742054 0.03974000 0.05669069
v -0.01140800 0.03765998 0.05341966
v -0.01001442 0.03969420 0.05420934
v -0.01401645 0.03704154 0.05066228
v -0.01393147 0.03878700 0.05020322
v -0.01597040 0.03653464 0.04832354
v -0.01677310 0.03631600 0.04728189
v -0.01926536 0.03941601 0.04004267
v -0.01630135 0.04027200 0.04461688
v -0.01294482 0.04117097 0.04880732
v -0.01338867 0.04045717 0.04935637
v -0.01678602 0.03954737 0.04510816
v -0.01978697 0.03867958 0.04046397
v -0.02374893 0.03794239 0.02998876
v -0.02177230 0.03863670 0.03511876
v -0.02432600 0.03718057 0.03026940
v -0.02232499 0.03788774 0.03546926
v -0.02518808 0.03732117 0.02471344
v -0.00717742 0.04089868 0.05626243
v -0.00982769 0.04055145 0.05380702
v -0.01371980 0.03965002 0.04982641
v -0.01715042 0.03873238 0.04553103
v -0.02018243 0.03785611 0.04082773
v -0.02643300 0.03315271 0.02669741
v -0.02522485 0.03367999 0.03099007
v -0.02441840 0.03398603 0.03330258
v -0.02318178 0.03441592 0.03634114
v -0.02299621 0.03447744 0.03675685
v -0.02302573 0.03617373 0.03602233
v -0.02108554 0.03507992 0.04059150
v -0.02058060 0.03523179 0.04149419
v -0.02578277 0.03654642 0.02492562
v -0.02476589 0.03633622 0.03051563
v -0.02945876 -0.04923379 -0.03218421
v -0.02954622 -0.04914256 -0.03127555
v -0.02939174 -0.04926186 -0.03256253
v -0.02978022 -0.04567658 -0.03124614
v -0.02978037 -0.04561892 -0.03117202
v -0.02975365 -0.04533368 -0.03066890
v -0.02044976 -0.04305288 0.03171826
v -0.01995112 -0.04340327 0.03172207
v -0.01944126 -0.04299620 0.03456283
v -0.01875500 -0.04398651 0.03168818
v -0.01837194 -0.04351537 0.03447499
v -0.01803828 -0.03932409 0.04594499
v -0.01860697 -0.03828317 0.04597819
v -0.01964186 -0.03880101 0.04317777
v -0.01012732 -0.04076258 0.05115841
v -0.00973764 -0.04063137 0.05181343
v -0.01062716 -0.04048418 0.05232230
v -0.00320407 -0.03882049 0.06035982
v -0.00066344 -0.03825000 0.06284577
v 0.00008413 -0.03775214 0.06485063
v 0.00076196 -0.03795307 0.06409557
v 0.00203865 -0.03769960 0.06513699
v -0.00382596 -0.03896917 0.05969467
v -0.00393904 -0.03863141 0.06106489
v -0.00612714 -0.03955611 0.05700292
v -0.00751991 -0.03954482 0.05687610
v -0.00669248 -0.03971045 0.05627814
v -0.00822619 -0.04015343 0.05416003
v -0.01526681 -0.04239309 0.04235191
v -0.01365629 -0.04218017 0.04378984
v -0.01321752 -0.04143673 0.04746475
v -0.01228706 -0.04156884 0.04703260
v -0.01068603 -0.04095735 0.05017755
v -0.01569941 -0.04340123 0.03701650
v -0.01479545 -0.04279147 0.04044877
v -0.01428588 -0.04250267 0.04203953
v -0.01573891 -0.04343215 0.03683972
v -0.01674790 -0.04334126 0.03704732
v -0.01635969 -0.04400829 0.03349725
v -0.01793750 -0.04421695 0.03163691
v -0.01661780 -0.04434277 0.03151298
v -0.00138440 -0.03509095 0.06797691
v -0.00178510 -0.03446752 0.06812078
v -0.00258685 -0.03485578 0.06731950
v -0.00227732 -0.03336987 0.06824970
v -0.00137387 -0.03669083 0.06632335
v -0.00004591 -0.03639207 0.06745474
v -0.00060319 -0.03595600 0.06767140
v 0.00079492 -0.03685838 0.06714777
v -0.00065295 -0.03733159 0.06562307
v 0.00098923 -0.03694008 0.06708132
v 0.00161794 -0.03714964 0.06687945
v 0.00290189 -0.03736722 0.06653276
v 0.00366699 -0.03739183 0.06636803
v -0.00352214 -0.03714323 0.06440896
v -0.00275980 -0.03777527 0.06374559
v -0.00203249 -0.03585013 0.06690171
v -0.00480166 -0.03532220 0.06534580
v -0.00421755 -0.03631028 0.06495453
v -0.00690501 -0.03579952 0.06325618
v -0.00629263 -0.03678118 0.06289299
v -0.00888804 -0.03628567 0.06105977
v -0.00824902 -0.03726080 0.06072608
v -0.01124731 -0.03571463 0.05891619
v -0.00936911 -0.03521566 0.06123772
v -0.00736709 -0.03472485 0.06345516
v -0.00524360 -0.03424296 0.06556480
v -0.00300757 -0.03377207 0.06755739
v -0.00248535 -0.03265459 0.06825754
v -0.00476061 -0.03822932 0.06175783
v -0.00556230 -0.03760621 0.06238212
v -0.00748576 -0.03807776 0.06025169
v -0.00328279 -0.03266816 0.06761797
v -0.00553104 -0.03314162 0.06561448
v -0.00766613 -0.03362615 0.06349330
v -0.00967910 -0.03411964 0.06126374
v -0.01156757 -0.03462134 0.05892952
v -0.01332809 -0.03513039 0.05649450
v -0.00664698 -0.03869177 0.05966848
v -0.00929025 -0.03855715 0.05802127
v -0.00841668 -0.03916192 0.05748107
v -0.01097248 -0.03904357 0.05569452
v -0.01006647 -0.03963896 0.05519919
v -0.01074843 -0.03677991 0.05876026
v -0.01008441 -0.03774840 0.05845748
v -0.01248276 -0.03728139 0.05636146
v -0.01179545 -0.03824314 0.05609090
v -0.01408350 -0.03778814 0.05387257
v -0.01337468 -0.03874308 0.05363546
v -0.01554456 -0.03829817 0.05130330
v -0.01481610 -0.03924626 0.05110071
v -0.01686380 -0.03881053 0.04865886
v -0.01611762 -0.03975173 0.04849180
v -0.01299826 -0.03622091 0.05649441
v -0.01495300 -0.03564478 0.05396805
v -0.01461433 -0.03673251 0.05398170
v -0.01643611 -0.03616252 0.05135999
v -0.01608938 -0.03724743 0.05138782
v -0.01659366 -0.03510552 0.05123673
v -0.01793516 -0.03562650 0.04854783
v -0.01777527 -0.03668261 0.04867562
v -0.01742125 -0.03776469 0.04871805
v -0.01727631 -0.04025839 0.04581440
v -0.01906334 -0.03983701 0.04317114
v -0.01912919 -0.03614869 0.04578823
v -0.01960204 -0.03637606 0.04456655
v -0.01896747 -0.03720392 0.04592079
v -0.02000801 -0.03772459 0.04310506
v -0.01735536 -0.04152241 0.04290048
v -0.01535117 -0.04158207 0.04529050
v -0.01636109 -0.04102489 0.04559100
v -0.01423394 -0.04109355 0.04787207
v -0.01522190 -0.04052677 0.04822333
v -0.01297901 -0.04060617 0.05038761
v -0.01394230 -0.04002980 0.05078834
v -0.01158918 -0.04012100 0.05283164
v -0.01252513 -0.03953509 0.05328041
v -0.01632627 -0.04207000 0.04265186
v -0.01820129 -0.04201770 0.04016048
v -0.01715588 -0.04255573 0.03996469
v -0.01828761 -0.04076443 0.04307781
v -0.01993547 -0.04034764 0.04034627
v -0.01914801 -0.04126820 0.04029090
v -0.02065303 -0.04085471 0.03747760
v -0.01985594 -0.04176845 0.03746078
v -0.02121384 -0.04135645 0.03457524
v -0.02040921 -0.04226345 0.03459742
v -0.02089331 -0.03824293 0.04023755
v -0.02052234 -0.03931653 0.04032585
v -0.02162170 -0.03875765 0.03732558
v -0.02124677 -0.03982845 0.03742971
v -0.02219098 -0.03926696 0.03437940
v -0.02181295 -0.04033500 0.03449956
v -0.01783846 -0.04303809 0.03723587
v -0.01889729 -0.04250953 0.03737799
v -0.02259974 -0.03976973 0.03140556
v -0.02220192 -0.04087231 0.03154619
v -0.02176828 -0.04163519 0.03162609
v -0.02097942 -0.04258831 0.03169878
v -0.01510780 -0.03458691 0.05384910
v -0.01199524 -0.03363932 0.05845220
v -0.01171686 -0.03356171 0.05881919
v -0.00982518 -0.03305916 0.06115736
v -0.00780860 -0.03256484 0.06339057
v -0.00677668 -0.03232607 0.06444450
v -0.00266720 -0.03145464 0.06814427
v -0.01629909 -0.03499838 0.05178168
v -0.02017137 -0.03667025 0.04296766
v -0.02105840 -0.03718947 0.04009535
v -0.02178814 -0.03770506 0.03717847
v -0.02183798 -0.03774475 0.03695123
v -0.02276749 -0.03871886 0.03124830
v -0.02281683 -0.05377721 -0.02492025
v -0.02288480 -0.05389379 -0.02561941
v -0.02467510 -0.05447104 -0.02969919
v -0.02314994 -0.05459023 -0.02984680
v -0.02928084 -0.04907193 -0.02833772
v -0.02710578 -0.04532138 -0.00824551
v -0.02927060 -0.04861606 -0.02795303
v -0.02928322 -0.04914768 -0.02842575
v -0.02929993 -0.04941112 -0.02882951
v -0.02893952 -0.05112639 -0.02978991
v -0.02934420 -0.04960998 -0.02939172
v -0.02935409 -0.04962761 -0.02948504
v -0.02941850 -0.04965448 -0.02998336
v -0.02889756 -0.05121278 -0.02978007
v -0.02771703 -0.05284239 -0.02963731
v -0.02747648 -0.05306684 -0.02962622
v -0.02668873 -0.05365736 -0.02961403
v -0.02545818 -0.05425284 -0.02964965
v -0.02282647 -0.05467417 -0.03130041
v -0.02325093 -0.05469348 -0.03089407
v -0.02332506 -0.05465534 -0.03195161
v -0.02269037 -0.05453693 -0.03263224
v -0.02336967 -0.05448463 -0.03296253
v -0.02264058 -0.05444842 -0.03304932
v -0.02337220 -0.05446429 -0.03304680
v -0.02338680 -0.05420606 -0.03389066
v -0.02335006 -0.02936573 0.03021518
v -0.02700775 0.02373657 0.02148667
v -0.02694863 0.02416853 0.02211071
v -0.02685368 0.02434848 0.02284436
v -0.02673323 0.02425062 0.02359911
v -0.02660966 0.02389053 0.02425357
v -0.02650267 0.02331195 0.02473250
v -0.02643685 0.02265987 0.02495548
v -0.02643251 0.02123278 0.02465242
v -0.02345551 -0.02540675 0.03078909
v -0.02641095 0.02192280 0.02493658
v -0.02333505 -0.02550462 0.03154385
v -0.02321149 -0.02586471 0.03219831
v -0.02646433 0.02089342 0.02437872
v -0.02654372 0.02046812 0.02376350
v -0.02355046 -0.02558671 0.03005544
v -0.02664307 0.02028873 0.02302739
v -0.02360957 -0.02601867 0.02943140
v -0.02362092 -0.02622320 0.02925304
v -0.02674824 0.02038951 0.02227045
v -0.02682124 0.02063520 0.02177086
v -0.02310450 -0.02644329 0.03267723
v -0.02303868 -0.02709536 0.03290021
v -0.02301278 -0.02783244 0.03288132
v -0.02303434 -0.02852246 0.03259716
v -0.02306615 -0.02886182 0.03232345
v -0.02314555 -0.02928711 0.03170824
v -0.02324489 -0.02946651 0.03097212
v -0.01775528 0.00030295 0.04783247
v -0.01775194 0.00089422 0.04781230
v -0.01766401 0.00146742 0.04793518
v -0.01749182 0.00199969 0.04819762
v -0.01725253 0.00243254 0.04856851
v -0.01531025 0.00220189 0.05152816
v -0.01512774 0.00171517 0.05181724
v -0.01660910 0.00294078 0.04956015
v -0.01589427 0.00285655 0.05064299
v -0.01557770 0.00259782 0.05112029
v -0.01503670 0.00115107 0.05198120
v -0.01504863 0.00055728 0.05200217
v -0.01515885 -0.00001493 0.05188213
v -0.01727743 -0.00114571 0.04869913
v -0.01751261 -0.00074940 0.04828916
v -0.01767253 -0.00026216 0.04799768
v -0.01536275 -0.00054959 0.05162284
v -0.01563203 -0.00098309 0.05125609
v -0.01630629 -0.00149286 0.05026810
v -0.01699029 -0.00140710 0.04918161
v -0.03250002 0.02543335 -0.02430026
v -0.03196847 0.01590953 -0.02378628
v -0.03199108 0.02620793 -0.01966705
v -0.02698850 0.02199035 0.02092206
v -0.02362744 -0.02686626 0.02892871
v -0.02956212 -0.04530886 -0.02903689
v -0.02926659 -0.04820208 -0.02774579
v -0.03420150 0.02181146 -0.04022192
v -0.03414906 0.02268833 -0.03941090
v -0.03408404 0.02302260 -0.03872047
v -0.03397653 0.01736723 -0.04017737
v -0.03401760 0.01709227 -0.04064017
v -0.03403558 0.01734142 -0.04068813
v -0.03356387 0.02455715 -0.03367413
v -0.03251667 0.01278726 -0.02973450
v -0.03286472 0.01400169 -0.03217293
v -0.02554299 -0.05436759 -0.03093691
v -0.02950752 -0.04948887 -0.03070161
v -0.02894625 -0.05135946 -0.03106596
v -0.02881666 -0.05137477 -0.03233360
v -0.02950084 -0.04951529 -0.03063498
v -0.02523836 -0.05369110 -0.03437482
v -0.02851082 -0.05126485 -0.03358122
v -0.02816630 -0.05110312 -0.03448585
v -0.02552003 -0.05428864 -0.03220859
v -0.02539524 -0.05401869 -0.03346307
v -0.02689166 -0.05261776 -0.03458070
v -0.02718197 -0.05290623 -0.03364889
v -0.02743977 -0.05314182 -0.03234212
v -0.02754060 -0.05319820 -0.03099720
v -0.03403132 0.02153373 -0.04309244
v -0.03178620 0.02340117 -0.04616125
v -0.03278250 0.02286537 -0.04526695
v -0.03284441 0.02436206 -0.04424674
v -0.03423276 0.02132675 -0.04195844
v -0.03425600 0.02165451 -0.04140612
v -0.03424524 0.02193002 -0.04148778
v -0.03409422 0.01748102 -0.04133085
v -0.03425244 0.02180214 -0.04088888
v -0.03424169 0.02182745 -0.04066129
v -0.03421586 0.02293780 -0.04077153
v -0.03404070 0.02277759 -0.04243118
v -0.03422670 0.02125222 -0.04204660
v -0.03418320 0.02067375 -0.04251257
v -0.03414679 0.02375730 -0.03981150
v -0.03393315 0.02478184 -0.04035392
v -0.03400981 0.02388774 -0.04151302
v -0.03189541 0.02499338 -0.04500031
v -0.02975393 0.02720425 -0.04438607
v -0.03088227 0.02687827 -0.04404660
v -0.02960840 0.02576474 -0.04599300
v -0.03079055 0.02546551 -0.04558907
v -0.03285057 0.02565668 -0.04295614
v -0.03193944 0.02635751 -0.04356421
v -0.03278819 0.02668528 -0.04143113
v -0.03189931 0.02743682 -0.04189702
v -0.03409897 0.01751259 -0.04140976
v -0.03412079 0.01791005 -0.04203816
v -0.03347829 0.02578009 -0.04090533
v -0.03355299 0.02481465 -0.04225710
v -0.03357220 0.02360665 -0.04337110
v -0.03354412 0.02222876 -0.04422094
v -0.02429778 -0.03688848 -0.05511592
v -0.03134419 -0.02576705 -0.05620115
v -0.02688545 0.00551803 -0.06192113
v -0.02942970 0.00108880 -0.06090118
v -0.03131317 -0.00385688 -0.05986747
v -0.03248539 -0.00927768 -0.05883246
v -0.03286858 -0.01496345 -0.05783983
v -0.03251863 -0.02008725 -0.05702168
v -0.02937491 -0.03115850 -0.05551613
v -0.02671090 -0.03601199 -0.05499737
v -0.02417619 -0.03939572 -0.05471011
v -0.02409559 -0.03945298 -0.05470939
v -0.02930653 0.03025929 -0.04054929
v -0.02938249 0.03020258 -0.04060058
v -0.02948583 0.03009591 -0.04066695
v -0.02922274 0.03065515 -0.03904369
v -0.02857066 0.03229475 -0.03283496
v -0.02788694 0.03372537 -0.02644577
v -0.02739575 0.03460138 -0.02191929
v -0.00294534 0.04504590 0.05341291
v -0.00292140 0.04522472 0.05313011
v -0.00293943 0.04515376 0.05328992
v -0.00294289 0.04511888 0.05333845
v 0.03361097 -0.00874550 -0.01491464
v 0.03365581 -0.00853154 -0.01444543
v 0.03367061 -0.00811091 -0.01414410
v 0.03365139 -0.00759632 -0.01409138
v 0.03129578 0.02689403 -0.01959868
v 0.03112214 0.02771734 -0.02072417
v 0.03116344 0.02770931 -0.02037792
v 0.03121743 0.02753900 -0.01999205
v 0.03126612 0.02722244 -0.01971236
v 0.03039723 0.02660130 -0.02732879
v 0.02981618 0.02553057 -0.03269640
v 0.02916659 0.02409929 -0.03879529
v 0.02856153 0.02249599 -0.04458909
v 0.02850647 0.02025379 -0.04599381
v 0.02847476 0.02090082 -0.04599150
v 0.02847132 0.02163952 -0.04571139
v 0.02850698 0.02221315 -0.04516933
v 0.03064661 -0.01108169 -0.04099028
v 0.03071452 -0.01181081 -0.04072059
v 0.03080487 -0.01237901 -0.04019338
v 0.03090394 -0.01269980 -0.03948893
v 0.03099662 -0.01272433 -0.03871449
v 0.02573220 0.00910676 0.04622858
v 0.02509642 0.00943922 0.04858265
v 0.02297185 0.00988422 0.05227827
v 0.02377934 -0.00193881 0.05416613
v 0.02590391 -0.00238380 0.05047051
v -0.02241342 -0.05443738 -0.03307537
v -0.02259926 -0.05465838 -0.03149286
v -0.02272899 -0.05456942 -0.02989652
v -0.02261137 -0.05377058 -0.02494393
v 0.01875066 0.03030716 -0.04926992
v 0.01863742 0.02929506 -0.05065231
v 0.03011698 -0.03267081 -0.04248460
v 0.02656373 0.01935497 -0.05079189
v 0.03055736 -0.03249187 -0.04155234
v 0.02700411 0.01953391 -0.04985962
v 0.03105077 -0.03213907 -0.03955395
v 0.02308736 0.04139925 0.04301368
v 0.02183329 0.04173044 0.04562418
v 0.02156101 0.04178194 0.04606316
v 0.00394580 -0.03738481 0.06631546
v 0.00559612 -0.03730708 0.06609637
v -0.00121999 -0.03841912 0.06204749
v -0.00576711 -0.03951612 0.05712223
v 0.01920361 -0.03655951 0.06495789
v 0.01525439 -0.03667240 0.06594006
v -0.01641234 -0.04433614 0.03148930
v -0.01619808 -0.04405232 0.03317515
v -0.01489291 -0.04297384 0.03937104
v -0.01266421 -0.04181352 0.04568445
v -0.00960810 -0.04065575 0.05162800
v 0.00877166 -0.05287242 -0.03274243
v 0.01255854 -0.05282487 -0.03406440
v 0.01261239 -0.05274291 -0.03357412
v 0.02613724 -0.03743342 0.05651920
v 0.02561932 -0.03712624 0.05866448
v 0.02521915 -0.03699077 0.05968402
v 0.02450205 -0.03682091 0.06105452
v 0.02348358 -0.03666115 0.06249067
v 0.02278406 -0.03662419 0.06302140
v 0.02619342 -0.03791592 0.05347345
v 0.02619172 -0.03749757 0.05609417
v 0.01985904 -0.04547700 0.00883026
v 0.02798512 -0.03702017 0.05467495
v 0.02790201 -0.03678638 0.05617468
v 0.02710126 -0.03727578 0.05616079
v 0.02888318 -0.03582356 0.05355614
v 0.02867924 -0.03620161 0.05450002
v 0.02860262 -0.03632212 0.05456374
v 0.02837598 -0.03645084 0.05552363
v 0.02774701 -0.03666922 0.05708794
v 0.02688648 -0.03676501 0.05866766
v 0.02648554 -0.03687635 0.05892561
v 0.02623942 -0.03677791 0.05962047
v 0.02496495 -0.03674239 0.06113487
v 0.02896725 -0.03481305 0.05265002
v 0.02897734 -0.03505548 0.05272421
v 0.02575703 -0.03677109 0.06024149
v 0.02655568 -0.03787576 0.05342695
v 0.02896108 -0.03544136 0.05300922
v 0.02891133 -0.03572619 0.05338595
v 0.02851760 -0.03657849 0.05299456
v 0.02823843 -0.03694617 0.05308669
v 0.02782530 -0.03732651 0.05319566
v 0.02727458 -0.03765423 0.05331094
v 0.02553080 -0.03520289 0.06013548
v 0.02718555 -0.03416906 0.05744518
v 0.02717890 -0.03433285 0.05750364
v 0.02712303 -0.03452410 0.05765737
v 0.02646406 -0.03503270 0.05885571
v 0.02676103 -0.03489992 0.05836680
v 0.02703797 -0.03466452 0.05784494
v 0.02774418 -0.03430237 0.05637135
v 0.03110463 -0.03205711 -0.03906366
v 0.03090672 -0.03646648 -0.03830477
v 0.02972397 -0.04070393 -0.03746644
v 0.02761569 -0.04455698 -0.03659070
v 0.02108652 -0.05036596 -0.03490235
v 0.02468760 -0.04783240 -0.03572148
v 0.02116584 -0.04514505 0.00948777
v 0.01598293 -0.05235520 -0.03451908
v 0.01693917 -0.05211259 -0.03466468
v 0.01926238 -0.05130108 -0.03505555
v 0.02103266 -0.05044793 -0.03539264
v 0.02229725 -0.04969452 -0.03565750
v 0.02499533 -0.04758435 -0.03630665
v 0.02727462 -0.04503468 -0.03698328
v 0.02906588 -0.04212299 -0.03766682
v 0.02967011 -0.04078590 -0.03795672
v 0.03031469 -0.03893774 -0.03833650
v 0.03098308 -0.03557572 -0.03897198
v 0.03085286 -0.03654845 -0.03879506
v 0.01231717 -0.05289573 -0.03613761
v 0.01218780 -0.05272676 -0.03716220
v 0.02859952 -0.04233971 -0.03969093
v 0.01892965 -0.05139270 -0.03711525
v 0.01569489 -0.05243246 -0.03658610
v 0.02636493 -0.04199554 -0.04316036
v 0.02767828 -0.04229624 -0.04156467
v 0.02886016 -0.03928168 -0.04219847
v 0.02949274 -0.03609983 -0.04279989
v 0.01529644 -0.05198010 -0.03858563
v 0.02983131 -0.03919787 -0.04035148
v 0.03049060 -0.03588167 -0.04097831
v 0.01840015 -0.05098247 -0.03909334
v 0.02192315 -0.04980804 -0.03770900
v 0.02127238 -0.04946201 -0.03966304
v 0.02277127 -0.04681706 -0.04195955
v 0.02382587 -0.04746493 -0.04027740
v 0.02458445 -0.04772663 -0.03834930
v 0.02478353 -0.04456611 -0.04255690
v 0.02598301 -0.04505190 -0.04091777
v 0.02683268 -0.04521172 -0.03901671
v 0.02591146 0.02082287 -0.05174933
v 0.02288240 0.02994444 -0.04858284
v 0.02308453 0.03080638 -0.04651070
v 0.02474655 0.02974042 -0.04636335
v 0.02056030 0.02539723 -0.05367715
v 0.02061062 0.02744598 -0.05239363
v 0.02072200 0.02918886 -0.05072110
v 0.02088971 0.03055176 -0.04873069
v 0.02196066 0.03125449 -0.04652872
v 0.02258746 0.02302819 -0.05397493
v 0.02257544 0.02514119 -0.05319222
v 0.02262233 0.02705032 -0.05199616
v 0.02272612 0.02867442 -0.05043761
v 0.02439066 0.02279743 -0.05294697
v 0.02438005 0.02466461 -0.05225531
v 0.02442148 0.02635164 -0.05119840
v 0.02451319 0.02778680 -0.04982117
v 0.02465129 0.02890907 -0.04818217
v 0.02622381 0.02814720 -0.04603909
v 0.02585993 0.02245316 -0.05150329
v 0.02585113 0.02399998 -0.05093030
v 0.02588545 0.02539757 -0.05005472
v 0.02596143 0.02658649 -0.04891378
v 0.02607584 0.02751621 -0.04755600
v 0.02673318 0.02731880 -0.04584376
v 0.02693423 0.02078175 -0.04992896
v 0.02689513 0.02201884 -0.04974226
v 0.02688845 0.02319260 -0.04930746
v 0.02691450 0.02425312 -0.04864306
v 0.02697215 0.02515529 -0.04777730
v 0.02705897 0.02586078 -0.04674698
v 0.03037005 0.03119062 -0.01813658
v 0.02262391 0.03300798 -0.04017939
v 0.02717052 0.03483894 -0.02370665
v 0.02847883 0.03502011 -0.01808315
v 0.02924620 0.03398321 -0.01819260
v 0.02966765 0.03323092 -0.01822116
v 0.02912235 0.03234217 -0.02351326
v 0.02970733 0.03314971 -0.01822209
v 0.03011026 0.03215792 -0.01820334
v 0.02440745 0.03640229 -0.02365819
v 0.02644515 0.03673303 -0.01760724
v 0.02764354 0.03585992 -0.01791278
v 0.02780700 0.03571332 -0.01794933
v 0.02333217 0.03455536 -0.03353513
v 0.02357334 0.03501711 -0.03130005
v 0.02830475 0.03098454 -0.03100368
v 0.02634295 0.03346467 -0.03128854
v 0.02806900 0.03053315 -0.03318863
v 0.02610392 0.03300703 -0.03350378
v 0.02737817 0.02902394 -0.03966929
v 0.02540256 0.03147476 -0.04008326
v 0.02215932 0.04257834 0.04366456
v 0.01666856 0.04509272 0.05034473
v 0.01777329 0.04490247 0.04957946
v 0.02001737 0.04414713 0.04757670
v 0.02122193 0.04344174 0.04614982
v 0.02055535 0.04387218 0.04628329
v 0.02158228 0.04316769 0.04565306
v 0.02088434 0.04362274 0.04485289
v 0.01821726 0.04479617 0.04923555
v 0.01863034 0.04468009 0.04889464
v 0.01928330 0.04445926 0.04831016
v 0.02247578 0.04228840 0.04422329
v 0.02639768 0.03687264 -0.01586735
v 0.02835246 0.03530537 -0.01660338
v 0.02743925 0.03616193 -0.01628619
v 0.02898251 0.03452928 -0.01678476
v 0.02955842 0.03360583 -0.01690928
v 0.02987451 0.03295094 -0.01695000
v 0.03020796 0.03203091 -0.01695121
v 0.03040659 0.03121065 -0.01690306
v 0.02057532 0.04222080 0.04736087
v 0.02057211 0.04208921 0.04739751
v -0.02387842 -0.03851022 -0.05489086
v -0.02378751 -0.03984129 -0.05467832
v -0.01471584 0.01510538 -0.06486072
v -0.00613856 0.01625401 -0.06599495
v 0.00265358 0.01376910 -0.06654532
v -0.01072575 -0.04808342 -0.05473521
v -0.02247110 0.01051617 -0.06324162
v -0.02577716 0.00701635 -0.06229336
v -0.02314559 -0.04054121 -0.05463182
v -0.01931426 -0.04394518 -0.05448361
v -0.01510278 -0.04649163 -0.05452052
v -0.00629847 -0.04874593 -0.05511077
v -0.00225433 -0.04854600 -0.05558844
v 0.00197057 -0.04748163 -0.05623047
v 0.00599653 -0.04555401 -0.05699497
v 0.00968932 -0.04279855 -0.05786126
v 0.01297173 -0.03925238 -0.05881467
v 0.01577868 -0.03488756 -0.05985271
v 0.01790867 -0.02993521 -0.06091461
v 0.01930950 -0.02442435 -0.06198979
v 0.01987768 -0.01858460 -0.06302848
v 0.01956546 -0.01258400 -0.06399736
v 0.01836575 -0.00670069 -0.06484914
v 0.01631452 -0.00112686 -0.06555564
v 0.01352120 0.00386745 -0.06608374
v 0.01064803 0.00755868 -0.06638523
v 0.00682868 0.01111057 -0.06655949
v -0.00171398 0.01547915 -0.06635144
v -0.01048192 0.01612053 -0.06549552
v -0.01875542 0.01322693 -0.06410296
v -0.02679454 0.00418695 -0.06170859
v 0.00193119 0.01248582 -0.06625143
v 0.01839562 -0.01804639 -0.06295566
v 0.00133241 -0.04613135 -0.05638611
v 0.01484951 0.04583164 0.05122487
v 0.01486039 0.04580177 0.05123362
v 0.01773599 0.03271278 -0.04570014
v 0.01789876 0.03275513 -0.04559911
v 0.01804969 0.03279876 -0.04548927
v 0.01820943 0.03285012 -0.04535467
v 0.01836013 0.03290486 -0.04520397
v 0.01853528 0.03297859 -0.04499081
v 0.01889950 0.03320044 -0.04429127
v 0.01902676 0.03336805 -0.04371119
v 0.02078258 0.03708321 -0.02729044
v 0.02046283 0.03653147 -0.03022856
v 0.01992052 0.03548025 -0.03525998
v 0.01921637 0.03386071 -0.04189963
v 0.01466714 0.04610451 0.05095441
v 0.01469142 0.04609121 0.05098889
v 0.01577775 0.04588052 0.04990604
v 0.01472229 0.04606797 0.05103316
v 0.01479825 0.04596933 0.05114483
v 0.01481192 0.04594190 0.05116557
v 0.01562867 0.04598459 0.04979018
v 0.01640739 0.04582507 0.04845594
v 0.01459401 0.04609204 0.05103606
v 0.01468446 0.04594301 0.05122737
v 0.01371995 0.04594486 0.05165145
v 0.01364061 0.04609386 0.05145526
v 0.01169979 0.04591219 0.05231094
v 0.01164369 0.04606157 0.05210716
v 0.00961159 0.04583149 0.05269870
v 0.00957956 0.04598180 0.05249045
v 0.00751080 0.04570940 0.05283266
v 0.00749690 0.04586075 0.05262317
v -0.00078876 0.05299082 0.03379183
v -0.00085541 0.05309111 0.03326952
v -0.00312198 0.05281676 0.03350890
v -0.01118587 0.04868765 0.03381014
v -0.01162674 0.04854553 0.03263253
v -0.00940656 0.05013790 0.03383779
v -0.01000852 0.04997599 0.03253828
v -0.00744202 0.05132479 0.03379599
v -0.00821503 0.05117584 0.03240617
v -0.00627902 0.05212320 0.03223859
v -0.00533268 0.05222392 0.03368561
v -0.00552127 0.05241043 0.03216701
v -0.00423583 0.05280077 0.03203863
v -0.00331659 0.05300924 0.03194176
v -0.00212276 0.05319616 0.03180993
v -0.00105204 0.05328559 0.03168608
v -0.00055941 0.05251934 0.03553626
v -0.00282903 0.05225087 0.03575231
v -0.00504881 0.05167557 0.03585950
v -0.00717307 0.05080526 0.03585562
v -0.00915807 0.04965788 0.03574075
v -0.01096295 0.04825704 0.03551727
v -0.00601635 0.04161070 -0.03452606
v -0.00474867 0.04238864 -0.03278264
v -0.00360820 0.04218285 -0.03280585
v -0.00827481 0.04163828 -0.03434079
v -0.00698636 0.04256951 -0.03264231
v -0.00584877 0.04251402 -0.03272915
v -0.01050078 0.04138900 -0.03399639
v -0.00917440 0.04246413 -0.03238506
v -0.00810553 0.04255075 -0.03252567
v -0.01264961 0.04086785 -0.03349979
v -0.01127279 0.04209108 -0.03202268
v -0.01033320 0.04229232 -0.03219949
v -0.01328688 0.04145781 -0.03155782
v -0.01248709 0.04174390 -0.03175714
v -0.00615791 0.04048558 -0.03619549
v -0.00841780 0.04050176 -0.03602714
v -0.01064233 0.04026387 -0.03566583
v -0.01299121 0.04270195 -0.02853374
v -0.01097589 0.04334039 -0.02898605
v -0.00887688 0.04371605 -0.02934209
v -0.00782187 0.04374658 -0.02962356
v -0.00111717 0.05332298 0.03115033
v -0.00251916 0.05339200 0.02853578
v -0.00463140 0.05299619 0.02877131
v -0.00667296 0.05231782 0.02898479
v -0.01201128 0.04873550 0.02945635
v -0.01039689 0.05016785 0.02933046
v -0.00860656 0.05136927 0.02917231
v -0.00579916 0.04996252 -0.00989639
v -0.00650112 0.04821847 -0.01656961
v -0.00695291 0.04968528 -0.01055416
v -0.00761951 0.04799321 -0.01690620
v -0.00905592 0.04929720 -0.01023724
v -0.00972113 0.04760865 -0.01657606
v -0.01107918 0.04863412 -0.00986246
v -0.01174164 0.04695255 -0.01617507
v -0.01298575 0.04770816 -0.00943667
v -0.01364415 0.04603691 -0.01571056
v -0.01474082 0.04653623 -0.00896763
v -0.00717591 0.04614479 -0.02315072
v -0.00826131 0.04600199 -0.02317350
v -0.01036160 0.04562157 -0.02283030
v -0.01237946 0.04497369 -0.02240345
v -0.01427805 0.04407018 -0.02190074
v -0.00194402 0.05361757 0.02427312
v -0.00330166 0.05355018 0.02197693
v -0.00541227 0.05315404 0.02222611
v -0.00745060 0.05247502 0.02246665
v -0.00937943 0.05152550 0.02269415
v -0.01116354 0.05032283 0.02290447
v -0.01277036 0.04888895 0.02309376
v -0.00275486 0.05356930 0.01738787
v -0.00406898 0.05339682 0.01541617
v -0.00617800 0.05300101 0.01567901
v -0.00821316 0.05232261 0.01594662
v -0.01013731 0.05137403 0.01621412
v -0.01191532 0.05017258 0.01647661
v -0.01351473 0.04874019 0.01672931
v -0.00354772 0.05317828 0.01051147
v -0.00481942 0.05293227 0.00886812
v -0.00692688 0.05253743 0.00914460
v -0.00895894 0.05186095 0.00943923
v -0.01087852 0.05091520 0.00974664
v -0.01265056 0.04971744 0.01006120
v -0.01424271 0.04828954 0.01037720
v -0.00432064 0.05244548 0.00366078
v -0.00555130 0.05215757 0.00234737
v -0.00765723 0.05176434 0.00263743
v -0.00968628 0.05109106 0.00295897
v -0.01160139 0.05015003 0.00330613
v -0.01336761 0.04895843 0.00367256
v -0.01495269 0.04753802 0.00405157
v -0.00507174 0.05137268 -0.00314741
v -0.00626299 0.05107444 -0.00413153
v -0.00836744 0.05068346 -0.00382798
v -0.01039355 0.05001465 -0.00347971
v -0.01230432 0.04908022 -0.00309306
v -0.01406488 0.04789723 -0.00267511
v 0.00646363 0.05179930 0.03012616
v 0.00652787 0.05176242 0.03065464
v 0.00766825 0.05115722 0.03047248
v 0.00439079 0.05261702 0.03043341
v 0.00222197 0.05313355 0.03073188
v 0.00228693 0.05309625 0.03126628
v 0.00346658 0.05285576 0.03110551
v 0.00445547 0.05257989 0.03096541
v 0.00562947 0.05215873 0.03079237
v 0.00000002 0.05333869 0.03101569
v 0.00006513 0.05330132 0.03155129
v 0.00122404 0.05323396 0.03140547
v -0.00670279 0.04376500 -0.02974102
v -0.00446573 0.04358143 -0.02988789
v -0.00605701 0.04616253 -0.02327000
v -0.00538241 0.04823563 -0.01669076
v -0.00382141 0.04597357 -0.02343146
v -0.00314833 0.04804198 -0.01686704
v -0.00162555 0.04548906 -0.02348765
v -0.00095548 0.04754823 -0.01695260
v -0.00468064 0.04997919 -0.01001942
v -0.00244814 0.04978162 -0.01021074
v -0.00025843 0.04928008 -0.01032607
v 0.00184522 0.04848449 -0.01036313
v -0.00395343 0.05138895 -0.00327235
v -0.00172257 0.05118820 -0.00347887
v 0.00046390 0.05068037 -0.00362432
v 0.00256277 0.04987549 -0.00370580
v -0.00320255 0.05246144 0.00353392
v -0.00097338 0.05225827 0.00331205
v 0.00120974 0.05174565 0.00313623
v 0.00330366 0.05093371 0.00300992
v -0.00242984 0.05319403 0.01038267
v -0.00163721 0.05358494 0.01725713
v -0.00020241 0.05298922 0.01014537
v 0.00058843 0.05337925 0.01700434
v 0.00197725 0.05247333 0.00993898
v 0.00276456 0.05286162 0.01676726
v 0.00406609 0.05165657 0.00976758
v 0.00484817 0.05204228 0.01655060
v 0.00679809 0.05093743 0.01635864
v -0.00082659 0.05363320 0.02414043
v 0.00139722 0.05342739 0.02387211
v 0.00356973 0.05290955 0.02360433
v 0.00564801 0.05208990 0.02334235
v 0.00759097 0.05098464 0.02309136
v 0.00586874 0.05189085 0.03270601
v 0.00371910 0.05257304 0.03312514
v 0.00175196 0.05237282 0.03551463
v 0.00148463 0.05294222 0.03348957
f 749 583 750
f 547 549 548
f 669 578 580
f 580 656 669
f 777 776 775
f 621 548 549
f 749 750 552
f 273 271 244
f 266 250 264
f 529 238 497
f 497 528 529
f 201 202 200
f 379 200 202
f 378 379 202
f 680 687 681
f 764 481 758
f 758 481 763
f 763 481 486
f 760 759 782
f 782 755 781
f 526 492 525
f 672 767 768
f 766 768 767
f 764 758 766
f 774 578 773
f 773 775 774
f 771 773 772
f 772 665 771
f 771 665 664
f 760 525 524
f 525 492 524
f 777 775 778
f 775 773 778
f 686 687 680
f 385 464 391
f 529 235 477
f 656 580 582
f 580 562 582
f 558 562 580
f 41 11 9
f 549 583 567
f 567 621 549
f 583 621 567
f 551 554 550
f 749 552 551
f 549 561 551
f 553 552 750
f 553 583 549
f 553 750 583
f 549 551 553
f 553 551 552
f 243 403 273
f 273 244 243
f 265 266 264
f 595 266 265
f 331 321 329
f 323 321 331
f 325 324 323
f 325 331 335
f 323 331 325
f 291 300 293
f 335 334 340
f 384 385 365
f 384 365 363
f 354 344 336
f 353 351 352
f 352 354 356
f 658 598 405
f 120 128 186
f 186 179 120
f 181 120 179
f 495 528 517
f 200 379 1
f 1 11 41
f 379 378 307
f 749 551 710
f 749 710 718
f 550 554 718
f 718 551 550
f 718 710 551
f 485 484 488
f 484 485 408
f 780 684 757
f 755 782 511
f 511 782 759
f 783 782 528
f 528 526 783
f 760 782 783
f 783 525 760
f 783 526 525
f 527 526 528
f 527 503 490
f 528 503 527
f 492 526 521
f 490 501 521
f 521 527 490
f 526 527 521
f 502 503 528
f 502 501 490
f 490 503 502
f 761 486 754
f 522 758 762
f 762 753 522
f 762 758 763
f 763 486 762
f 486 761 762
f 528 522 523
f 522 530 523
f 529 528 523
f 522 753 531
f 531 530 522
f 764 766 765
f 765 766 667
f 667 659 765
f 786 766 758
f 768 766 786
f 664 677 663
f 673 768 769
f 650 671 675
f 675 671 672
f 666 665 772
f 772 773 666
f 666 578 669
f 666 773 578
f 668 666 669
f 665 666 668
f 664 665 668
f 757 689 779
f 779 778 757
f 689 778 779
f 757 778 784
f 784 778 773
f 784 780 757
f 784 758 522
f 784 522 528
f 528 782 784
f 774 775 679
f 680 696 691
f 691 686 680
f 689 693 688
f 777 778 688
f 688 778 689
f 794 686 793
f 683 689 757
f 757 684 683
f 237 238 529
f 529 477 237
f 237 477 238
f 480 239 238
f 238 477 480
f 392 239 480
f 482 523 530
f 857 535 847
f 545 566 547
f 590 605 21
f 28 14 29
f 31 37 29
f 12 9 11
f 638 571 568
f 301 300 291
f 301 307 300
f 647 645 646
f 598 658 646
f 264 343 262
f 262 343 351
f 353 271 262
f 262 351 353
f 405 598 574
f 574 389 405
f 598 599 574
f 575 389 574
f 575 594 592
f 273 403 388
f 405 389 388
f 338 340 333
f 333 340 334
f 204 206 376
f 291 293 292
f 18 12 11
f 269 594 595
f 317 297 319
f 330 333 334
f 330 331 329
f 330 334 335
f 335 331 330
f 326 325 336
f 324 325 326
f 298 297 295
f 295 297 317
f 299 293 300
f 300 307 299
f 298 295 299
f 299 295 293
f 288 292 304
f 285 284 283
f 384 363 383
f 383 191 384
f 382 383 361
f 361 383 363
f 364 363 366
f 366 363 365
f 370 371 366
f 357 364 366
f 336 325 245
f 245 354 336
f 342 352 351
f 342 343 344
f 351 343 342
f 344 354 342
f 354 352 342
f 649 671 650
f 672 671 661
f 661 648 647
f 671 649 661
f 661 649 648
f 608 599 598
f 598 646 608
f 608 646 645
f 186 128 173
f 498 500 495
f 499 500 498
f 497 499 498
f 128 120 126
f 182 181 504
f 504 500 499
f 528 497 516
f 516 517 528
f 495 517 516
f 516 498 495
f 497 498 516
f 466 391 464
f 392 391 466
f 466 239 392
f 466 465 239
f 205 206 204
f 204 202 205
f 382 381 225
f 225 381 226
f 339 340 338
f 338 226 339
f 226 381 339
f 11 1 10
f 10 1 379
f 10 379 302
f 10 18 11
f 302 379 306
f 379 307 306
f 307 301 306
f 681 730 682
f 682 696 680
f 680 681 682
f 555 729 727
f 555 551 561
f 554 551 555
f 713 726 712
f 714 726 713
f 749 718 748
f 748 583 749
f 746 713 744
f 714 713 746
f 745 743 738
f 240 401 402
f 403 243 402
f 487 485 488
f 488 482 487
f 487 486 481
f 481 485 487
f 411 481 764
f 411 485 481
f 484 408 406
f 684 780 685
f 686 691 685
f 755 511 510
f 491 759 760
f 760 524 491
f 491 524 492
f 495 500 496
f 496 500 501
f 533 531 753
f 753 762 533
f 533 762 761
f 410 765 659
f 764 765 410
f 410 411 764
f 410 408 485
f 485 411 410
f 676 663 677
f 676 673 769
f 770 771 664
f 664 663 770
f 769 768 770
f 770 676 769
f 663 676 770
f 768 773 770
f 773 771 770
f 674 675 672
f 672 768 674
f 768 673 674
f 674 676 677
f 673 676 674
f 656 640 657
f 669 656 657
f 657 668 669
f 758 784 785
f 785 784 773
f 785 786 758
f 785 773 768
f 768 786 785
f 756 784 782
f 780 784 756
f 756 782 781
f 577 685 756
f 756 685 780
f 774 679 579
f 579 580 578
f 579 578 774
f 692 776 777
f 692 775 776
f 777 688 692
f 692 688 693
f 698 692 693
f 698 679 775
f 775 692 698
f 690 693 689
f 689 683 690
f 690 683 684
f 684 685 690
f 690 685 691
f 489 402 401
f 488 484 489
f 234 477 235
f 234 235 529
f 529 523 234
f 478 480 477
f 477 234 478
f 530 531 483
f 483 482 530
f 483 531 486
f 486 487 483
f 483 487 482
f 916 915 873
f 873 915 914
f 547 566 563
f 563 582 562
f 563 564 582
f 563 549 547
f 563 561 549
f 562 558 563
f 563 558 561
f 566 582 565
f 582 564 565
f 565 563 566
f 564 563 565
f 639 582 566
f 566 545 639
f 656 582 639
f 546 545 547
f 546 640 656
f 656 639 546
f 546 639 545
f 23 16 32
f 36 27 28
f 28 29 36
f 36 29 37
f 31 30 35
f 35 37 31
f 19 21 605
f 605 604 19
f 15 14 19
f 14 21 19
f 6 3 15
f 39 29 14
f 31 29 39
f 40 27 26
f 41 9 40
f 40 26 41
f 13 14 28
f 9 12 5
f 5 40 9
f 27 40 5
f 28 27 5
f 5 13 28
f 638 568 742
f 742 616 638
f 742 568 583
f 583 746 742
f 744 731 742
f 742 746 744
f 909 915 916
f 738 743 964
f 961 962 956
f 958 957 956
f 956 957 955
f 302 306 278
f 278 306 301
f 278 10 302
f 18 10 278
f 276 278 301
f 18 278 276
f 575 574 597
f 597 574 599
f 570 623 619
f 619 569 570
f 635 569 619
f 638 616 615
f 615 571 638
f 615 613 583
f 583 568 615
f 615 568 571
f 583 613 612
f 632 742 584
f 616 742 632
f 594 269 268
f 268 262 271
f 268 269 262
f 273 388 274
f 274 388 386
f 387 388 389
f 386 388 387
f 387 389 575
f 575 592 387
f 592 274 387
f 387 274 386
f 476 388 403
f 403 402 476
f 405 388 476
f 476 489 484
f 402 489 476
f 476 406 405
f 484 406 476
f 199 231 198
f 457 373 374
f 374 373 311
f 375 376 206
f 590 21 20
f 20 21 14
f 14 13 20
f 12 18 20
f 20 13 12
f 595 265 263
f 263 269 595
f 262 269 263
f 263 265 264
f 264 262 263
f 591 285 286
f 284 285 591
f 590 20 591
f 591 20 18
f 590 591 587
f 587 591 586
f 596 266 595
f 595 594 596
f 327 319 297
f 327 311 329
f 329 321 327
f 321 319 327
f 345 343 264
f 320 319 322
f 322 319 321
f 322 321 323
f 323 324 322
f 320 322 315
f 315 322 350
f 336 344 346
f 346 326 336
f 344 343 346
f 343 345 346
f 318 295 317
f 318 319 320
f 317 319 318
f 308 299 307
f 308 307 378
f 292 288 279
f 252 254 286
f 362 363 364
f 362 361 363
f 362 364 357
f 357 366 359
f 359 366 371
f 353 352 367
f 352 368 367
f 367 271 353
f 367 244 271
f 242 243 244
f 244 367 242
f 242 367 368
f 358 352 356
f 358 368 352
f 358 356 357
f 648 649 630
f 647 648 630
f 672 661 670
f 670 661 667
f 667 766 670
f 670 767 672
f 670 766 767
f 667 661 662
f 662 646 658
f 647 646 662
f 662 661 647
f 662 659 667
f 662 658 659
f 599 608 606
f 187 173 128
f 187 172 51
f 51 173 187
f 51 172 49
f 49 50 51
f 172 171 49
f 215 213 208
f 175 179 186
f 176 175 45
f 540 176 918
f 918 45 911
f 176 45 918
f 874 873 872
f 128 126 141
f 505 504 181
f 520 521 501
f 492 521 520
f 499 467 468
f 468 183 182
f 182 504 468
f 468 504 499
f 472 497 238
f 238 239 472
f 472 499 497
f 472 467 499
f 465 466 470
f 239 465 470
f 460 58 115
f 69 58 65
f 199 198 197
f 197 198 196
f 206 205 197
f 208 213 212
f 227 229 226
f 227 228 229
f 227 226 338
f 338 333 227
f 333 228 227
f 230 228 333
f 380 231 230
f 230 231 199
f 199 229 230
f 229 228 230
f 817 541 193
f 203 202 201
f 203 205 202
f 221 205 203
f 384 191 434
f 189 191 224
f 382 225 224
f 224 383 382
f 191 383 224
f 201 200 25
f 728 726 727
f 727 729 728
f 728 729 730
f 727 726 725
f 725 726 714
f 714 716 725
f 725 716 718
f 725 718 554
f 725 555 727
f 554 555 725
f 729 555 556
f 561 557 556
f 556 555 561
f 953 956 955
f 720 957 958
f 720 964 743
f 743 745 720
f 712 726 720
f 718 716 717
f 717 748 718
f 583 748 747
f 747 746 583
f 714 746 747
f 748 717 747
f 744 713 722
f 722 745 744
f 722 713 712
f 573 406 658
f 659 658 407
f 658 406 407
f 407 406 408
f 535 857 508
f 755 510 508
f 508 857 781
f 781 755 508
f 507 511 759
f 759 491 507
f 507 513 511
f 495 496 494
f 494 528 495
f 494 502 528
f 501 502 494
f 494 496 501
f 486 531 532
f 531 533 532
f 754 486 532
f 532 761 754
f 532 533 761
f 659 408 409
f 409 410 659
f 408 410 409
f 668 657 655
f 655 657 640
f 577 756 855
f 696 682 697
f 697 702 696
f 697 682 730
f 730 729 697
f 699 698 693
f 694 701 700
f 693 690 694
f 694 699 693
f 700 699 694
f 392 480 390
f 390 391 392
f 385 391 390
f 369 366 365
f 370 366 369
f 369 365 385
f 236 234 523
f 370 369 395
f 871 873 914
f 872 873 871
f 17 6 15
f 15 19 17
f 17 19 604
f 620 16 17
f 17 604 620
f 33 23 32
f 733 35 33
f 33 35 30
f 3 6 42
f 8 39 14
f 3 39 8
f 8 14 15
f 15 3 8
f 31 39 24
f 24 39 3
f 24 30 31
f 24 42 30
f 3 42 24
f 12 13 4
f 4 5 12
f 13 5 4
f 817 193 815
f 735 569 635
f 808 741 920
f 733 33 739
f 734 741 32
f 32 16 734
f 734 623 752
f 734 921 920
f 920 741 734
f 960 961 952
f 921 964 963
f 958 956 963
f 963 956 962
f 952 961 954
f 961 956 954
f 956 953 954
f 814 967 835
f 542 818 835
f 277 301 291
f 277 276 301
f 291 292 277
f 635 619 617
f 617 735 635
f 625 621 583
f 625 546 547
f 640 546 625
f 634 617 616
f 637 617 634
f 584 637 634
f 272 271 273
f 273 274 272
f 440 198 231
f 440 231 380
f 380 373 440
f 373 457 458
f 328 311 373
f 328 373 380
f 380 330 328
f 328 330 329
f 329 311 328
f 376 375 309
f 309 308 376
f 298 299 309
f 299 308 309
f 287 591 286
f 586 591 287
f 249 596 261
f 249 261 250
f 261 596 589
f 589 587 586
f 590 587 589
f 589 596 594
f 349 315 350
f 314 312 313
f 313 312 305
f 305 318 313
f 320 315 313
f 313 318 320
f 324 326 348
f 326 346 348
f 348 322 324
f 350 322 348
f 348 346 345
f 348 349 350
f 293 295 294
f 294 292 293
f 304 292 294
f 294 305 304
f 377 308 378
f 376 308 377
f 204 376 377
f 377 202 204
f 377 378 202
f 283 284 282
f 282 279 283
f 280 279 282
f 282 591 280
f 284 591 282
f 586 254 588
f 254 252 588
f 588 589 586
f 256 589 588
f 312 257 303
f 304 305 303
f 305 312 303
f 253 285 283
f 286 285 253
f 253 252 286
f 253 257 252
f 251 257 256
f 252 257 251
f 256 588 251
f 251 588 252
f 259 312 314
f 259 257 312
f 250 261 259
f 256 257 259
f 361 362 341
f 340 339 341
f 341 339 381
f 341 381 382
f 382 361 341
f 356 354 355
f 357 356 355
f 355 362 357
f 372 359 371
f 372 401 240
f 241 402 243
f 243 242 241
f 240 402 241
f 241 242 240
f 360 242 368
f 368 358 360
f 240 242 360
f 360 372 240
f 359 372 360
f 357 359 360
f 360 358 357
f 643 649 650
f 643 630 649
f 603 604 605
f 603 605 590
f 620 604 603
f 603 594 575
f 590 589 603
f 603 589 594
f 575 597 603
f 603 597 599
f 599 606 603
f 624 645 647
f 647 630 624
f 624 608 645
f 624 606 608
f 44 173 51
f 213 215 217
f 217 233 229
f 538 177 176
f 179 175 185
f 185 175 176
f 176 177 185
f 879 918 917
f 847 535 850
f 535 854 850
f 853 854 535
f 858 854 853
f 873 874 876
f 128 141 147
f 147 48 128
f 182 121 125
f 500 504 506
f 504 505 506
f 501 500 506
f 506 520 501
f 179 185 180
f 180 181 179
f 180 505 181
f 515 513 514
f 514 178 515
f 492 520 493
f 493 491 492
f 493 507 491
f 469 468 467
f 469 470 460
f 467 470 469
f 460 115 469
f 183 468 469
f 471 472 239
f 239 470 471
f 467 472 471
f 471 470 467
f 474 466 464
f 462 58 460
f 460 470 462
f 464 432 462
f 430 464 385
f 430 432 464
f 67 69 65
f 199 197 223
f 213 217 223
f 223 229 199
f 223 217 229
f 207 197 196
f 206 197 207
f 207 375 206
f 374 375 207
f 380 230 332
f 332 230 333
f 332 330 380
f 333 330 332
f 543 818 542
f 838 193 543
f 542 837 543
f 543 837 838
f 221 203 220
f 433 434 419
f 419 418 433
f 419 434 191
f 191 418 419
f 26 25 22
f 41 26 22
f 22 1 41
f 200 1 22
f 22 25 200
f 219 203 201
f 219 220 203
f 723 728 730
f 796 681 687
f 797 798 946
f 946 719 797
f 938 796 937
f 800 796 938
f 959 720 958
f 964 720 959
f 958 963 959
f 959 963 964
f 715 716 714
f 715 717 716
f 714 747 715
f 715 747 717
f 721 720 745
f 745 722 721
f 712 720 721
f 721 722 712
f 404 658 405
f 404 573 658
f 405 406 404
f 406 573 404
f 572 408 659
f 659 407 572
f 572 407 408
f 511 513 509
f 509 510 511
f 509 508 510
f 535 508 509
f 678 674 677
f 675 674 678
f 653 652 678
f 642 653 613
f 642 652 653
f 668 655 654
f 781 857 856
f 856 756 781
f 856 855 756
f 576 685 577
f 577 855 576
f 686 685 576
f 702 697 703
f 703 697 729
f 561 558 559
f 695 690 691
f 695 694 690
f 695 691 696
f 701 694 695
f 696 702 695
f 702 701 695
f 398 390 480
f 480 478 398
f 478 395 398
f 398 369 394
f 479 478 234
f 234 236 479
f 479 482 488
f 488 489 479
f 489 478 479
f 523 482 479
f 479 236 523
f 400 489 401
f 400 478 489
f 401 372 400
f 400 372 371
f 793 686 792
f 686 791 792
f 686 789 790
f 790 791 686
f 900 899 906
f 906 907 900
f 900 907 901
f 901 893 900
f 900 893 899
f 915 909 908
f 914 915 908
f 908 907 914
f 908 909 901
f 901 907 908
f 914 907 913
f 913 907 906
f 2 17 16
f 38 33 30
f 37 35 787
f 804 809 812
f 812 967 814
f 812 809 967
f 813 812 814
f 6 17 43
f 43 42 6
f 30 42 43
f 43 38 30
f 43 17 23
f 23 33 43
f 33 38 43
f 816 818 817
f 817 815 816
f 816 835 818
f 814 835 816
f 816 813 814
f 815 813 816
f 34 25 26
f 26 27 34
f 27 36 34
f 36 813 34
f 34 813 815
f 201 25 34
f 34 219 201
f 736 735 738
f 738 964 736
f 736 964 921
f 921 734 736
f 736 734 735
f 741 808 740
f 32 741 740
f 740 33 32
f 740 739 33
f 631 16 620
f 631 734 16
f 620 623 631
f 623 734 631
f 751 734 752
f 735 734 751
f 569 735 751
f 570 569 751
f 751 623 570
f 752 623 751
f 885 960 952
f 807 740 808
f 965 807 808
f 920 921 919
f 921 963 919
f 276 277 275
f 18 276 275
f 636 617 637
f 583 612 626
f 626 625 583
f 640 625 626
f 626 655 640
f 612 655 626
f 548 621 622
f 621 625 622
f 547 548 622
f 622 625 547
f 616 632 633
f 633 634 616
f 633 632 584
f 584 634 633
f 267 268 271
f 594 268 267
f 593 274 592
f 593 272 274
f 593 592 594
f 373 198 442
f 450 207 196
f 374 207 450
f 456 457 374
f 374 452 456
f 456 448 457
f 373 458 459
f 196 198 447
f 447 448 196
f 457 448 447
f 447 458 457
f 310 309 375
f 374 311 310
f 310 375 374
f 310 327 297
f 311 327 310
f 310 297 298
f 298 309 310
f 255 254 586
f 586 287 255
f 286 254 255
f 255 287 286
f 266 596 248
f 596 249 248
f 250 266 248
f 248 249 250
f 258 589 256
f 256 259 258
f 315 349 316
f 314 313 316
f 316 313 315
f 316 259 314
f 316 349 250
f 250 259 316
f 347 348 345
f 349 348 347
f 347 345 264
f 264 250 347
f 250 349 347
f 295 318 296
f 296 294 295
f 296 318 305
f 305 294 296
f 289 253 283
f 257 253 289
f 289 303 257
f 283 279 289
f 289 279 288
f 289 288 304
f 304 303 289
f 340 341 246
f 335 340 246
f 246 325 335
f 246 245 325
f 610 615 616
f 610 609 615
f 675 678 651
f 651 678 652
f 650 675 651
f 652 642 628
f 628 651 652
f 911 45 912
f 912 905 911
f 912 44 905
f 867 823 825
f 188 171 189
f 188 49 171
f 226 229 190
f 229 233 190
f 190 225 226
f 189 224 190
f 190 224 225
f 190 188 189
f 233 188 190
f 177 538 537
f 535 178 537
f 537 178 177
f 878 535 537
f 539 176 540
f 539 538 176
f 540 918 539
f 539 918 879
f 879 538 539
f 879 917 877
f 877 538 879
f 877 917 916
f 878 537 877
f 877 537 538
f 910 909 916
f 916 917 910
f 910 918 911
f 910 917 918
f 534 853 535
f 858 853 534
f 851 852 847
f 847 850 851
f 851 850 854
f 48 112 113
f 182 183 166
f 123 121 122
f 48 147 148
f 520 506 519
f 519 493 520
f 519 506 505
f 184 178 514
f 514 180 184
f 184 180 185
f 184 185 177
f 177 178 184
f 536 178 535
f 536 515 178
f 535 509 536
f 513 515 536
f 536 509 513
f 475 470 466
f 466 474 475
f 475 462 470
f 474 462 475
f 97 115 58
f 97 114 115
f 58 462 463
f 463 462 432
f 65 58 463
f 463 432 65
f 461 474 464
f 464 462 461
f 461 462 474
f 222 223 197
f 221 212 222
f 222 212 213
f 213 223 222
f 222 205 221
f 222 197 205
f 208 212 209
f 209 840 208
f 825 823 822
f 208 840 822
f 822 215 208
f 822 823 215
f 821 837 836
f 542 835 836
f 836 837 542
f 817 818 544
f 818 543 544
f 544 541 817
f 544 193 541
f 544 543 193
f 220 219 195
f 219 34 195
f 195 815 193
f 195 34 815
f 711 730 681
f 711 723 730
f 681 796 711
f 711 796 800
f 726 728 724
f 728 723 724
f 724 720 726
f 719 720 724
f 797 719 724
f 724 798 797
f 724 723 798
f 795 796 687
f 687 686 795
f 686 794 795
f 794 932 795
f 937 796 795
f 950 720 719
f 719 946 950
f 957 720 950
f 950 946 945
f 800 938 941
f 951 899 952
f 952 954 951
f 951 954 953
f 886 893 887
f 952 899 892
f 899 893 892
f 892 893 886
f 892 885 952
f 886 885 892
f 653 678 660
f 664 668 660
f 660 677 664
f 660 678 677
f 668 654 660
f 660 654 653
f 641 655 612
f 641 654 655
f 653 654 641
f 613 653 641
f 641 612 613
f 844 857 847
f 844 856 857
f 855 856 844
f 700 701 708
f 708 707 700
f 708 701 702
f 561 707 708
f 560 707 561
f 561 559 560
f 704 579 679
f 679 698 704
f 698 705 704
f 704 559 558
f 704 705 559
f 700 707 706
f 706 699 700
f 707 560 706
f 698 699 706
f 706 705 698
f 559 705 706
f 706 560 559
f 393 398 394
f 390 398 393
f 385 390 393
f 393 369 385
f 394 369 393
f 397 395 369
f 397 398 395
f 399 395 478
f 478 400 399
f 399 400 371
f 399 371 370
f 370 395 399
f 937 795 935
f 935 795 932
f 935 938 937
f 842 794 793
f 793 792 842
f 842 792 791
f 906 899 947
f 899 951 947
f 953 948 947
f 947 951 953
f 23 17 7
f 17 2 7
f 16 23 7
f 7 2 16
f 732 35 733
f 805 739 804
f 733 739 805
f 811 813 36
f 811 36 37
f 812 813 811
f 37 787 811
f 811 787 810
f 810 805 811
f 804 812 811
f 811 805 804
f 829 837 821
f 911 905 904
f 904 910 911
f 909 910 903
f 903 904 896
f 910 904 903
f 902 903 896
f 901 909 902
f 909 903 902
f 930 924 923
f 961 960 930
f 930 923 961
f 739 740 803
f 740 807 803
f 804 739 803
f 803 807 804
f 967 809 802
f 802 801 967
f 802 809 804
f 804 807 802
f 967 801 968
f 924 930 968
f 968 835 967
f 290 277 292
f 290 275 277
f 292 279 290
f 281 591 18
f 18 275 281
f 280 591 281
f 275 290 281
f 281 279 280
f 281 290 279
f 584 742 737
f 737 637 584
f 737 636 637
f 737 742 731
f 737 731 744
f 744 745 737
f 737 745 738
f 738 735 737
f 735 617 585
f 617 636 585
f 585 737 735
f 636 737 585
f 271 272 270
f 270 267 271
f 272 593 270
f 594 267 270
f 270 593 594
f 373 442 454
f 198 440 441
f 441 442 198
f 446 450 196
f 451 452 374
f 374 450 451
f 450 446 451
f 196 452 451
f 451 446 196
f 445 452 196
f 445 456 452
f 196 448 449
f 448 456 449
f 449 445 196
f 456 445 449
f 453 198 373
f 373 459 453
f 444 459 458
f 458 447 444
f 444 447 198
f 261 589 260
f 589 258 260
f 260 259 261
f 260 258 259
f 247 341 362
f 247 246 341
f 650 651 644
f 651 628 644
f 627 642 613
f 627 628 642
f 601 623 620
f 606 624 607
f 600 601 607
f 607 603 606
f 607 601 603
f 174 912 45
f 44 912 174
f 173 44 174
f 174 45 175
f 186 173 174
f 174 175 186
f 890 898 891
f 891 867 890
f 215 823 214
f 214 217 215
f 873 876 875
f 916 873 875
f 875 877 916
f 875 876 878
f 878 877 875
f 884 535 878
f 170 169 167
f 167 113 156
f 153 166 156
f 156 166 167
f 156 113 112
f 47 48 46
f 123 122 162
f 159 122 121
f 134 162 159
f 159 162 122
f 159 121 182
f 46 48 149
f 48 148 149
f 149 144 46
f 127 141 126
f 493 519 512
f 513 507 512
f 507 493 512
f 514 513 512
f 505 180 518
f 518 519 505
f 518 180 514
f 514 512 518
f 518 512 519
f 58 69 77
f 69 76 77
f 105 97 58
f 69 67 68
f 68 76 69
f 68 171 172
f 192 193 838
f 192 195 193
f 840 209 839
f 209 210 839
f 210 192 839
f 839 192 838
f 211 209 212
f 211 210 209
f 211 212 221
f 221 220 211
f 211 192 210
f 417 418 191
f 437 385 384
f 385 439 412
f 412 439 427
f 723 711 799
f 798 723 799
f 799 711 800
f 800 941 799
f 799 946 798
f 955 957 949
f 957 950 949
f 949 953 955
f 949 948 953
f 945 948 949
f 949 950 945
f 894 893 901
f 894 887 893
f 845 844 849
f 849 861 845
f 702 703 709
f 709 708 702
f 709 556 557
f 709 557 561
f 561 708 709
f 729 556 709
f 709 703 729
f 580 579 581
f 579 704 581
f 581 558 580
f 581 704 558
f 369 398 396
f 396 397 369
f 398 397 396
f 855 844 841
f 841 844 845
f 841 842 791
f 841 790 789
f 841 789 686
f 791 790 841
f 686 576 841
f 841 576 855
f 932 842 846
f 846 841 845
f 842 841 846
f 843 932 794
f 794 842 843
f 843 842 932
f 845 861 931
f 931 846 845
f 932 846 931
f 931 935 932
f 933 935 931
f 788 787 35
f 35 732 788
f 788 732 787
f 810 787 806
f 806 805 810
f 733 805 806
f 806 732 733
f 787 732 806
f 832 864 831
f 821 832 831
f 831 829 821
f 865 887 888
f 864 887 865
f 927 919 963
f 927 963 962
f 962 922 927
f 920 919 927
f 927 922 926
f 926 965 927
f 927 808 920
f 927 965 808
f 960 885 862
f 801 802 966
f 966 968 801
f 807 965 966
f 966 802 807
f 966 965 926
f 924 968 966
f 455 454 442
f 442 441 455
f 373 454 455
f 455 440 373
f 455 441 440
f 443 453 459
f 459 444 443
f 198 453 443
f 443 444 198
f 362 355 337
f 337 247 362
f 354 245 337
f 337 355 354
f 245 246 337
f 246 247 337
f 629 628 609
f 629 644 628
f 650 644 629
f 629 609 630
f 629 643 650
f 630 643 629
f 614 627 613
f 628 627 614
f 613 615 614
f 615 609 614
f 609 628 614
f 620 603 602
f 602 601 620
f 603 601 602
f 618 601 600
f 618 617 619
f 618 619 623
f 623 601 618
f 898 890 897
f 905 898 897
f 897 904 905
f 896 904 897
f 897 890 896
f 866 867 891
f 891 214 866
f 823 867 866
f 866 214 823
f 218 214 891
f 891 898 218
f 852 851 859
f 859 854 858
f 859 851 854
f 933 931 880
f 880 931 861
f 858 534 883
f 883 859 858
f 882 859 883
f 883 534 535
f 535 884 883
f 878 876 883
f 883 884 878
f 883 876 874
f 874 882 883
f 165 166 183
f 167 166 165
f 165 170 167
f 473 469 115
f 183 469 473
f 473 165 183
f 170 165 473
f 132 130 125
f 143 47 46
f 46 144 143
f 150 47 143
f 143 151 150
f 144 151 143
f 152 151 134
f 150 151 152
f 152 158 150
f 140 138 137
f 137 151 140
f 140 139 138
f 147 139 140
f 112 158 157
f 153 156 157
f 157 156 112
f 158 152 157
f 111 47 150
f 150 158 111
f 111 158 112
f 111 112 48
f 48 47 111
f 135 162 134
f 137 162 135
f 134 151 135
f 135 151 137
f 134 159 163
f 163 152 134
f 163 166 153
f 153 157 163
f 163 157 152
f 182 166 163
f 163 159 182
f 129 130 141
f 141 127 129
f 58 77 59
f 59 105 58
f 77 105 59
f 60 77 76
f 97 105 101
f 66 67 65
f 66 68 67
f 171 68 66
f 189 171 66
f 66 191 189
f 65 191 66
f 70 68 64
f 64 68 172
f 172 187 64
f 187 56 64
f 220 195 194
f 195 192 194
f 194 211 220
f 192 211 194
f 433 418 422
f 418 417 422
f 438 415 421
f 421 439 438
f 438 439 385
f 385 437 438
f 433 422 435
f 435 434 433
f 384 434 435
f 425 437 436
f 436 437 384
f 384 435 436
f 414 412 427
f 414 431 412
f 414 415 65
f 65 431 414
f 429 430 385
f 385 412 429
f 432 430 429
f 946 799 942
f 942 799 941
f 945 946 942
f 942 941 945
f 869 871 914
f 914 913 869
f 913 939 869
f 938 935 936
f 944 947 948
f 944 948 945
f 901 902 895
f 895 894 901
f 895 902 896
f 895 896 888
f 888 887 895
f 887 894 895
f 848 849 844
f 847 852 848
f 848 844 847
f 861 849 848
f 830 831 864
f 864 865 830
f 829 831 830
f 928 930 960
f 960 862 928
f 863 862 885
f 863 864 832
f 863 885 886
f 886 887 863
f 863 887 864
f 925 966 926
f 924 966 925
f 923 924 925
f 926 922 925
f 961 923 925
f 925 962 961
f 925 922 962
f 600 607 611
f 611 618 600
f 611 607 624
f 611 624 630
f 617 618 611
f 630 609 611
f 609 610 611
f 616 617 611
f 611 610 616
f 52 218 898
f 52 898 905
f 905 44 52
f 214 218 216
f 233 217 216
f 217 214 216
f 881 859 882
f 881 880 861
f 872 880 881
f 881 874 872
f 881 882 874
f 117 115 116
f 117 473 115
f 116 113 117
f 141 130 131
f 130 132 131
f 124 132 125
f 124 121 123
f 124 125 121
f 145 140 151
f 145 151 144
f 145 149 148
f 144 149 145
f 118 129 127
f 125 130 118
f 130 129 118
f 182 125 118
f 118 181 182
f 96 105 77
f 77 60 96
f 114 97 102
f 115 114 78
f 116 115 78
f 114 102 78
f 78 102 101
f 78 113 116
f 71 68 70
f 423 437 425
f 423 438 437
f 415 438 426
f 420 417 425
f 425 436 420
f 424 436 435
f 424 422 417
f 424 435 422
f 417 420 424
f 424 420 436
f 415 414 428
f 412 431 413
f 413 429 412
f 413 431 65
f 65 432 413
f 432 429 413
f 870 869 939
f 872 871 870
f 871 869 870
f 870 880 872
f 940 941 938
f 938 936 940
f 945 941 940
f 940 944 945
f 943 939 913
f 947 944 943
f 943 940 939
f 944 940 943
f 943 913 906
f 906 947 943
f 868 890 867
f 868 867 825
f 825 827 868
f 868 865 888
f 828 830 865
f 865 868 828
f 828 868 827
f 829 830 828
f 824 827 825
f 825 822 824
f 824 839 838
f 824 822 840
f 840 839 824
f 929 968 930
f 930 928 929
f 929 928 862
f 833 863 832
f 862 863 833
f 833 832 821
f 50 218 53
f 218 52 53
f 53 52 44
f 51 50 53
f 53 44 51
f 232 216 218
f 232 218 50
f 232 188 233
f 233 216 232
f 50 49 232
f 49 188 232
f 860 881 861
f 859 881 860
f 861 848 860
f 852 859 860
f 860 848 852
f 473 117 164
f 133 132 138
f 133 131 132
f 138 139 133
f 141 131 142
f 142 147 141
f 142 139 147
f 142 133 139
f 131 133 142
f 132 124 136
f 136 162 137
f 123 162 136
f 136 124 123
f 137 138 136
f 138 132 136
f 147 140 146
f 140 145 146
f 146 148 147
f 146 145 148
f 119 127 126
f 119 118 127
f 181 118 119
f 120 181 119
f 119 126 120
f 97 101 103
f 103 102 97
f 101 102 103
f 48 113 81
f 63 64 56
f 70 64 63
f 415 426 416
f 425 417 416
f 416 423 425
f 65 415 416
f 438 423 416
f 416 426 438
f 416 191 65
f 416 417 191
f 934 870 939
f 939 940 934
f 934 940 936
f 934 935 933
f 934 936 935
f 933 880 934
f 880 870 934
f 896 890 889
f 890 868 889
f 888 896 889
f 889 868 888
f 826 824 838
f 827 824 826
f 838 837 826
f 837 829 826
f 829 828 826
f 826 828 827
f 968 929 820
f 820 833 821
f 170 473 168
f 473 164 168
f 169 170 168
f 167 169 168
f 168 160 167
f 113 164 154
f 113 78 79
f 87 56 187
f 128 48 87
f 87 187 128
f 862 833 834
f 833 820 834
f 834 929 862
f 834 820 929
f 835 968 819
f 968 820 819
f 819 836 835
f 821 836 819
f 819 820 821
f 160 168 161
f 161 168 164
f 167 160 161
f 161 113 167
f 161 164 113
f 155 164 117
f 155 154 164
f 155 117 113
f 113 154 155
f 80 81 113
f 113 79 80
f 104 78 101
f 104 79 78
f 104 101 105
f 75 74 57
f 76 68 75
f 68 74 75
f 105 96 98
f 98 104 105
f 98 96 60
f 48 81 82
f 82 85 48
f 86 87 48
f 48 85 86
f 62 55 71
f 62 71 70
f 70 63 62
f 62 63 56
f 71 55 72
f 68 71 72
f 73 72 55
f 73 74 68
f 68 72 73
f 61 60 76
f 61 98 60
f 76 75 61
f 84 86 85
f 56 87 89
f 81 80 99
f 98 61 95
f 95 75 57
f 95 61 75
f 109 84 88
f 88 107 109
f 88 84 85
f 85 82 88
f 88 82 81
f 81 99 88
f 57 74 54
f 74 73 54
f 93 62 56
f 56 89 93
f 83 89 87
f 87 86 83
f 86 84 83
f 100 99 80
f 108 99 100
f 100 95 108
f 100 80 79
f 98 95 100
f 79 104 100
f 104 98 100
f 106 99 108
f 106 88 99
f 55 62 92
f 62 93 92
f 110 93 89
f 110 84 109
f 109 92 110
f 110 92 93
f 110 83 84
f 89 83 110
f 57 54 94
f 94 106 108
f 94 95 57
f 108 95 94
f 55 92 90
f 109 107 90
f 90 92 109
f 91 94 54
f 106 94 91
f 55 90 91
f 91 90 107
f 91 73 55
f 91 54 73
f 107 88 91
f 88 106 91
f 421 415 428
f 428 439 421
f 427 439 428
f 428 414 427

