# https://github.com/mikedh/trimesh
v 0.00822609 -0.00974788 0.02312154
v 0.00821012 -0.00900776 0.02459365
v 0.00819191 -0.00804133 0.02592812
v 0.00817195 -0.00687356 0.02709047
v 0.00815074 -0.00553463 0.02805065
v 0.00812883 -0.00405914 0.02878385
v 0.00810680 -0.00248522 0.02927113
v 0.00806440 0.00081118 0.02946225
v 0.00804642 0.00233765 0.02918527
v 0.00804391 0.00255785 0.02912516
v 0.00802965 0.00385715 0.02865818
v 0.00802637 0.00416849 0.02851571
v 0.00801520 0.00527550 0.02789986
v 0.00800343 0.00655779 0.02692899
v 0.00799996 0.00697358 0.02653819
v 0.00799462 0.00767243 0.02576948
v 0.00799183 0.00808884 0.02522593
v 0.00798900 0.00859199 0.02444986
v 0.00798743 0.00896869 0.02374548
v 0.00798669 0.00929381 0.02300265
v 0.00898513 -0.00084221 0.02950395
v 0.00896946 0.00040218 0.02950155
v 0.00896363 0.00087928 0.02946040
v 0.00895459 0.00163712 0.02934835
v 0.00894228 0.00270680 0.02908792
v 0.00892720 0.00409303 0.02856028
v 0.00891689 0.00510547 0.02801741
v 0.00891150 0.00566572 0.02764926
v 0.00890725 0.00612592 0.02730512
v 0.00889960 0.00701873 0.02650833
v 0.00889249 0.00798593 0.02538377
v 0.00888907 0.00857125 0.02450828
v 0.00888712 0.00906048 0.02357569
v 0.00888676 0.00958598 0.02218860
v 0.00996795 0.00090944 0.02843892
v 0.00912601 -0.00973654 0.02312561
v 0.00912225 -0.00957388 0.02350451
v 0.00911004 -0.00899642 0.02459772
v 0.00909420 -0.00816077 0.02577281
v 0.00908204 -0.00746950 0.02653687
v 0.00907187 -0.00686222 0.02709453
v 0.00906666 -0.00654225 0.02735460
v 0.00905066 -0.00552329 0.02805471
v 0.00903151 -0.00423762 0.02870748
v 0.00901772 -0.00327065 0.02906324
v 0.00900126 -0.00206975 0.02935697
v 0.00900672 -0.00247388 0.02927520
v 0.00932674 -0.00325228 0.02901788
v 0.00939075 -0.00743108 0.02650357
v 0.01004263 -0.00773673 0.02519021
v 0.01002191 -0.00653773 0.02643270
v 0.00990258 -0.00795751 0.02536205
v 0.00988864 -0.00716853 0.02624835
v 0.00968294 -0.00813410 0.02549792
v 0.00966868 -0.00732737 0.02640415
v 0.00940521 -0.00824920 0.02558454
v 0.00998453 -0.00413311 0.02800067
v 0.00996142 -0.00249433 0.02854443
v 0.00984279 -0.00424881 0.02825446
v 0.00982690 -0.00313854 0.02867312
v 0.00962180 -0.00434199 0.02845538
v 0.00960556 -0.00320676 0.02888345
v 0.00934320 -0.00440354 0.02858376
v 0.00943077 -0.00952541 0.02348569
v 0.00970815 -0.00939254 0.02342830
v 0.00992723 -0.00918828 0.02333794
v 0.00991551 -0.00863405 0.02438718
v 0.00969616 -0.00882585 0.02450113
v 0.00941861 -0.00895071 0.02457368
v 0.00937544 -0.00650826 0.02731739
v 0.00965359 -0.00641740 0.02720665
v 0.00987388 -0.00627857 0.02703319
v 0.00999981 -0.00515509 0.02746693
v 0.00985852 -0.00530059 0.02770515
v 0.00963789 -0.00541742 0.02789372
v 0.00935952 -0.00549416 0.02801417
v 0.00931035 -0.00205711 0.02931021
v 0.00958941 -0.00202823 0.02917171
v 0.00981111 -0.00198594 0.02895504
v 0.00993870 -0.00078958 0.02881847
v 0.00979562 -0.00080777 0.02909611
v 0.00957358 -0.00082357 0.02931596
v 0.00929430 -0.00083544 0.02945649
v 0.00919871 0.00853307 0.02448467
v 0.00921680 0.00609942 0.02726816
v 0.00922639 0.00508384 0.02797704
v 0.00926391 0.00163206 0.02930163
v 0.00992409 0.00037093 0.02881623
v 0.00990376 0.00208557 0.02853266
v 0.00978058 0.00038658 0.02909381
v 0.00976631 0.00157186 0.02894677
v 0.00955820 0.00039764 0.02931360
v 0.00954361 0.00160957 0.02916326
v 0.00927871 0.00040301 0.02945410
v 0.00988553 0.00373202 0.02797617
v 0.00987507 0.00475715 0.02743213
v 0.00974090 0.00384569 0.02822925
v 0.00973014 0.00490072 0.02766935
v 0.00951763 0.00393453 0.02842960
v 0.00950662 0.00501329 0.02785711
v 0.00923756 0.00398985 0.02855762
v 0.00985585 0.00695493 0.02555630
v 0.00984912 0.00798929 0.02415957
v 0.00970743 0.00755569 0.02528920
v 0.00970343 0.00822712 0.02430134
v 0.00948340 0.00772796 0.02542344
v 0.00947932 0.00841449 0.02441337
v 0.00920285 0.00783684 0.02550901
v 0.00925012 0.00283357 0.02900133
v 0.00953002 0.00279435 0.02886713
v 0.00975302 0.00273059 0.02865716
v 0.00949716 0.00601473 0.02715809
v 0.00972088 0.00588014 0.02698571
v 0.00986608 0.00570882 0.02676787
v 0.00920891 0.00702162 0.02644142
v 0.00948938 0.00692409 0.02634287
v 0.00971328 0.00676950 0.02618841
v 0.00919654 0.00910004 0.02338351
v 0.00947717 0.00897357 0.02332754
v 0.00970134 0.00877390 0.02323940
v 0.00947701 0.00939695 0.02218196
v 0.00919637 0.00952940 0.02222176
v 0.00790956 -0.00268849 0.02922326
v 0.00793436 -0.00444130 0.02862207
v 0.00795882 -0.00605719 0.02771507
v 0.00798213 -0.00748336 0.02653190
v 0.00800354 -0.00867317 0.02511124
v 0.00802235 -0.00958774 0.02349954
v 0.00778666 0.00936052 0.02281976
v 0.00778917 0.00855739 0.02450331
v 0.00779615 0.00746248 0.02601345
v 0.00782241 0.00455085 0.02832082
v 0.00784084 0.00283054 0.02904164
v 0.00786201 0.00100812 0.02943875
v -0.00777558 -0.00981578 0.02336369
v -0.00777624 -0.00978681 0.02342818
v -0.00779389 -0.00893226 0.02495245
v -0.00779504 -0.00887224 0.02503989
v -0.00781474 -0.00778196 0.02636010
v -0.00781645 -0.00768243 0.02646054
v -0.00783748 -0.00640107 0.02754236
v -0.00783976 -0.00625627 0.02764371
v -0.00786139 -0.00483304 0.02846205
v -0.00786422 -0.00464037 0.02855071
v -0.00788573 -0.00312719 0.02909021
v -0.00788902 -0.00288756 0.02915190
v -0.00790971 -0.00133719 0.02940711
v -0.00791336 -0.00105515 0.02942763
v -0.00793260 0.00048066 0.02940276
v -0.00793658 0.00080904 0.02936739
v -0.00795367 0.00226916 0.02907731
v -0.00795775 0.00263147 0.02897028
v -0.00797225 0.00397205 0.02844099
v -0.00797617 0.00435177 0.02824946
v -0.00798777 0.00553577 0.02751382
v -0.00799123 0.00591299 0.02722879
v -0.00799973 0.00691112 0.02632496
v -0.00800244 0.00726341 0.02594209
v -0.00800776 0.00805484 0.02491182
v -0.00800941 0.00835831 0.02443196
v -0.00801160 0.00893093 0.02331885
v -0.00801193 0.00916144 0.02274840
v -0.00811334 -0.00105767 0.02942672
v -0.00809175 -0.00268933 0.02919797
v -0.00806972 -0.00426325 0.02871069
v -0.00804781 -0.00573874 0.02797748
v -0.00800664 -0.00824544 0.02585496
v -0.00798843 -0.00921187 0.02452049
v -0.00797246 -0.00995199 0.02304838
v -0.00820672 0.00788473 0.02515277
v -0.00819859 0.00676946 0.02646502
v -0.00817218 0.00396438 0.02844255
v -0.00813484 0.00066382 0.02938317
v -0.00890433 -0.00838003 0.02570105
v -0.00891670 -0.00767559 0.02647611
v -0.00922597 -0.00764506 0.02643993
v -0.00896717 -0.00444443 0.02863508
v -0.00898132 -0.00345098 0.02899621
v -0.00929028 -0.00344062 0.02894799
v -0.00903218 0.00044142 0.02939788
v -0.00904440 0.00146127 0.02925744
v -0.00935305 0.00144817 0.02920797
v -0.00907140 0.00388686 0.02846954
v -0.00908184 0.00491457 0.02791407
v -0.00939032 0.00488499 0.02787102
v -0.00910596 0.00776902 0.02528963
v -0.00910939 0.00835932 0.02440190
v -0.00941773 0.00831328 0.02437562
v -0.00911161 0.00936246 0.02209645
v -0.01005128 0.00775240 0.02404629
v -0.00991496 0.00853672 0.02312801
v -0.00991291 0.00799421 0.02418866
v -0.00969670 0.00874219 0.02321764
v -0.00969461 0.00818748 0.02430214
v -0.00941985 0.00887583 0.02327580
v -0.01003817 0.00591598 0.02626750
v -0.01002559 0.00453987 0.02732169
v -0.00989566 0.00566216 0.02687387
v -0.00988648 0.00468799 0.02755959
v -0.00967696 0.00580299 0.02704774
v -0.00966758 0.00480691 0.02774887
v -0.00939984 0.00589513 0.02715998
v -0.01003083 0.00070523 0.02834262
v -0.00999709 0.00188016 0.02843141
v -0.00986375 0.00252786 0.02855441
v -0.00985054 0.00137357 0.02884893
v -0.00964434 0.00259820 0.02876607
v -0.00963083 0.00141796 0.02906721
v -0.00936676 0.00264509 0.02890258
v -0.00995479 -0.00156103 0.02866596
v -0.00993184 -0.00326173 0.02833088
v -0.00980585 -0.00218260 0.02887547
v -0.00979000 -0.00334113 0.02859821
v -0.00958514 -0.00221819 0.02909434
v -0.00956893 -0.00340277 0.02881085
v -0.00930671 -0.00223932 0.02923549
v -0.00989349 -0.00585290 0.02706964
v -0.00987158 -0.00720155 0.02598068
v -0.00974281 -0.00649997 0.02696463
v -0.00972798 -0.00739584 0.02617946
v -0.00952069 -0.00663264 0.02714053
v -0.00950552 -0.00754867 0.02633771
v -0.00924135 -0.00671610 0.02725409
v -0.00968917 -0.00942967 0.02326208
v -0.00946584 -0.00962823 0.02335472
v -0.00918573 -0.00975399 0.02341482
v -0.00941998 0.00930132 0.02211606
v -0.00969682 0.00916175 0.02207405
v -0.00911152 0.00892456 0.02329680
v -0.00911104 0.00875323 0.02366825
v -0.00941365 0.00762194 0.02539937
v -0.00969058 0.00750575 0.02531164
v -0.00990897 0.00732748 0.02517596
v -0.01004745 0.00710456 0.02500561
v -0.00990319 0.00654631 0.02607542
v -0.00968467 0.00670702 0.02623133
v -0.00940765 0.00681192 0.02633205
v -0.00909888 0.00680444 0.02641434
v -0.00909141 0.00592956 0.02719962
v -0.00908689 0.00543893 0.02756797
v -0.00937924 0.00379632 0.02845474
v -0.00965665 0.00373340 0.02832446
v -0.00987579 0.00363809 0.02812252
v -0.01001521 0.00351972 0.02786867
v -0.00905817 0.00266392 0.02895058
v -0.00905455 0.00234240 0.02904793
v -0.00933833 0.00022313 0.02936644
v -0.00961632 0.00020997 0.02922347
v -0.00983634 0.00019216 0.02900175
v -0.00997687 0.00017143 0.02872299
v -0.00982137 -0.00099906 0.02901064
v -0.00960101 -0.00100803 0.02923256
v -0.00932281 -0.00101207 0.02937566
v -0.00901364 -0.00103989 0.02942429
v -0.00899783 -0.00224391 0.02928508
v -0.00899167 -0.00270067 0.02919390
v -0.00927374 -0.00459835 0.02851738
v -0.00955263 -0.00454438 0.02838624
v -0.00977405 -0.00445763 0.02818293
v -0.00991635 -0.00434660 0.02792737
v -0.00975825 -0.00551575 0.02763573
v -0.00953647 -0.00562630 0.02782673
v -0.00925736 -0.00569555 0.02794997
v -0.00894824 -0.00571673 0.02799340
v -0.00893216 -0.00674218 0.02729418
v -0.00892652 -0.00708901 0.02701324
v -0.00921143 -0.00846880 0.02551944
v -0.00949118 -0.00836093 0.02543004
v -0.00971396 -0.00819024 0.02529175
v -0.00985796 -0.00797344 0.02511812
v -0.00970096 -0.00887152 0.02431451
v -0.00947789 -0.00905752 0.02443083
v -0.00919796 -0.00917523 0.02450612
v -0.00888855 -0.00921310 0.02453302
v -0.00887433 -0.00987899 0.02324040
v -0.00695348 -0.01297565 -0.01886647
v -0.00814491 -0.01299139 -0.01885948
v -0.00875256 -0.01240004 -0.01882692
v 0.00915651 -0.01280480 0.01577692
v 0.00919780 -0.01280011 0.01577736
v -0.00875918 -0.01303055 0.01569600
v -0.00880058 -0.01302690 0.01569606
v -0.00979225 -0.01332850 0.01467280
v -0.00978895 -0.01346355 0.01431784
v 0.00589770 -0.01222071 -0.02887851
v 0.00706018 -0.01215315 -0.02977186
v 0.00885357 -0.01277720 -0.01878270
v 0.00873997 -0.01455124 0.01131844
v 0.00719745 -0.01459104 0.01165728
v 0.00695132 -0.01208252 -0.03099493
v 0.00661922 -0.01201717 -0.03217738
v 0.00607518 -0.01195930 -0.03327893
v 0.00533774 -0.01191089 -0.03426209
v 0.00443201 -0.01187359 -0.03509335
v 0.00338883 -0.01184868 -0.03574443
v -0.00825851 -0.01476543 0.01124166
v 0.00103569 -0.01183892 -0.03642421
v 0.00224373 -0.01183699 -0.03619314
v -0.00525720 -0.01210209 -0.03333012
v -0.00451236 -0.01203501 -0.03430658
v -0.00360039 -0.01197481 -0.03512963
v -0.00671861 -0.01476639 0.01159443
v -0.00430239 -0.01473595 0.01160534
v 0.00109713 -0.01466791 0.01162973
v 0.00194286 -0.01460120 0.01068175
v -0.00255233 -0.01192354 -0.03577126
v -0.00140387 -0.01188295 -0.03620961
v -0.00019414 -0.01185442 -0.03642976
v -0.00615054 -0.01224762 -0.03105411
v -0.00580953 -0.01217378 -0.03223352
v -0.00252342 -0.00936127 -0.03674531
v -0.00244985 -0.01086802 -0.03684401
v -0.00300750 -0.01087830 -0.03660810
v -0.00367441 -0.00941045 -0.03616166
v -0.00365515 -0.01090773 -0.03624983
v -0.00421281 -0.01093726 -0.03587021
v -0.00471077 -0.00946903 -0.03539330
v -0.00469151 -0.01096631 -0.03548147
v -0.00526161 -0.01100650 -0.03492366
v -0.00560308 -0.00953535 -0.03446204
v -0.00558382 -0.01103263 -0.03455021
v -0.00611820 -0.01108365 -0.03380070
v -0.00632601 -0.00960753 -0.03339433
v -0.00630674 -0.01110481 -0.03348250
v -0.00679658 -0.01117344 -0.03242409
v -0.00685903 -0.00968351 -0.03222046
v -0.00714558 -0.01125100 -0.03118320
v -0.00222157 -0.01098531 -0.03681157
v -0.00210855 -0.01116590 -0.03667732
v 0.00293431 -0.01110236 -0.03665455
v 0.00304394 -0.01091896 -0.03678779
v 0.00326948 -0.01079595 -0.03681818
v 0.00119066 -0.01114156 -0.03702873
v 0.00215382 -0.01113928 -0.03685693
v 0.00007701 -0.01115404 -0.03706002
v 0.00041491 -0.01114887 -0.03707409
v -0.00159016 -0.01119057 -0.03680406
v -0.00089351 -0.01117306 -0.03694909
v 0.00382506 -0.01079221 -0.03657724
v 0.00446998 -0.01080535 -0.03621313
v 0.00502476 -0.01082086 -0.03582848
v 0.00550051 -0.01083789 -0.03543543
v 0.00606638 -0.01086375 -0.03487249
v 0.00638576 -0.01088181 -0.03449615
v 0.00691446 -0.01091942 -0.03374183
v 0.00710060 -0.01093587 -0.03342194
v 0.00754012 -0.01098598 -0.03247500
v 0.00762474 -0.01099853 -0.03224329
v 0.00792205 -0.01106114 -0.03111514
v -0.00971969 -0.01318604 0.01506482
v -0.00950575 -0.01307869 0.01539694
v -0.00918300 -0.01302281 0.01561861
v 0.00041257 -0.01095450 -0.03709912
v -0.00046838 -0.01101306 -0.03706000
v 0.00944581 -0.01217072 -0.01874472
v 0.01020926 -0.01321156 0.01440817
v 0.01020596 -0.01307651 0.01476313
v 0.00760548 -0.00950125 -0.03215512
v 0.00708134 -0.00943858 -0.03333377
v 0.00636649 -0.00938453 -0.03440798
v 0.00548124 -0.00934060 -0.03534726
v 0.00445072 -0.00930807 -0.03612496
v 0.00330417 -0.00928784 -0.03671898
v 0.01012629 -0.01293596 0.01515446
v 0.00990673 -0.01283408 0.01548462
v 0.00958068 -0.01278637 0.01570336
v -0.00998250 0.01475766 -0.01476484
v -0.01043879 0.01464220 -0.01477336
v -0.01087136 0.01445689 -0.01478592
v -0.01126955 0.01420631 -0.01480219
v -0.01162355 0.01389663 -0.01482178
v -0.01192466 0.01353546 -0.01484420
v -0.01216545 0.01313170 -0.01486890
v -0.01247491 0.01176808 -0.01495044
v -0.01244401 0.01223700 -0.01492268
v -0.01234000 0.01269530 -0.01489528
v 0.01252285 0.01208307 -0.01483753
v 0.01247989 0.01255106 -0.01481011
v 0.01236413 0.01300659 -0.01478370
v 0.01217841 0.01343845 -0.01475895
v 0.01192730 0.01383601 -0.01473647
v 0.01161700 0.01418948 -0.01471680
v 0.01125515 0.01449014 -0.01470045
v 0.01085064 0.01473061 -0.01468780
v 0.00995432 0.01500888 -0.01467479
v 0.01041344 0.01490495 -0.01467918
v -0.01125750 0.01285248 0.00942452
v -0.01166146 0.01250692 0.00968585
v -0.01200342 0.01209531 0.00994386
v -0.01222610 0.01172437 0.01013558
v -0.01242049 0.01125463 0.01033159
v -0.01253886 0.01074639 0.01049255
v -0.01255968 0.01044432 0.00751043
v -0.01257135 0.01026213 0.01060182
v -0.01228384 -0.00378361 -0.01386618
v -0.01242461 -0.00124023 0.01020449
v -0.01221804 -0.00819569 -0.01612605
v -0.01232039 -0.00979393 0.01099226
v -0.01233576 -0.00978604 0.01437273
v -0.01235644 -0.00817882 0.01446942
v -0.01222188 -0.00707307 -0.01613223
v -0.01245442 0.01017750 -0.01504667
v -0.01255971 0.00930094 0.01070704
v 0.01277972 -0.00788070 -0.01601315
v 0.01267737 -0.00947894 0.01110517
v 0.01275069 -0.00588391 -0.01515730
v 0.01272637 -0.00431638 -0.01414517
v 0.01270766 -0.00303557 -0.01357716
v 0.01264131 -0.00786383 0.01458232
v 0.01266200 -0.00947105 0.01448563
v 0.01276567 -0.00678891 -0.01595142
v 0.01253366 0.01046985 -0.01500489
v 0.01243808 0.01075931 0.00762334
v 0.01242356 0.01065451 0.01069945
v 0.01243805 0.00961593 0.01081995
v 0.01261925 0.00369869 -0.01278876
v 0.01258003 0.00693697 -0.01314051
v 0.01235440 0.01120622 0.01056356
v 0.01218264 0.01174634 0.01037125
v 0.01112660 0.01308572 0.00956637
v 0.01155816 0.01270725 0.00985411
v 0.01190313 0.01227356 0.01012028
v -0.01216528 -0.00871772 -0.01615662
v -0.01209229 -0.01090618 0.01099589
v -0.01110668 -0.01048453 -0.01625676
v -0.01146862 -0.01185429 0.01100094
v -0.01148452 -0.01011974 -0.01623668
v -0.01158735 -0.01172493 0.01100010
v -0.01179281 -0.00969474 -0.01621280
v -0.01202207 -0.00922257 -0.01618584
v 0.01274041 -0.00840389 -0.01604413
v 0.01258395 -0.01026201 0.01110657
v 0.01261023 -0.00891218 -0.01607458
v 0.01250767 -0.01051410 0.01110681
v 0.01239319 -0.00938998 -0.01610355
v 0.01210064 -0.01128904 0.01110677
v 0.01209594 -0.00982261 -0.01613018
v 0.01199318 -0.01142780 0.01110660
v 0.01172761 -0.01019680 -0.01615362
v -0.01228504 -0.01029914 0.01434790
v -0.01215290 -0.01078158 0.01432489
v -0.01210740 -0.01089841 0.01431937
v -0.01148352 -0.01184664 0.01427559
v -0.01164994 -0.01166080 0.01428399
v -0.01193527 -0.01124846 0.01430298
v 0.01205508 -0.01132192 0.01439302
v 0.01167424 -0.01173912 0.01437120
v 0.01229914 -0.01094309 0.01441244
v 0.01250473 -0.01047088 0.01443626
v 0.01256877 -0.01025420 0.01444708
v 0.01262446 -0.00998527 0.01446041
v 0.01271368 -0.00786683 -0.01626301
v 0.01271526 -0.00669968 -0.01615005
v 0.01245681 0.01209693 -0.01508740
v 0.01235822 0.01277715 -0.01504768
v -0.01209854 -0.00869051 -0.01640520
v -0.01239802 0.01010824 -0.01526657
v 0.01210046 -0.01112756 0.01464610
v 0.01120011 0.01291642 0.00990915
v -0.01151412 0.01253667 0.00989377
v -0.01229842 -0.00979682 0.01456391
v 0.01243166 0.01125841 0.00765273
v -0.01256610 0.01094342 0.00753982
v -0.01249947 0.01161072 0.00757940
v -0.01228575 0.01224645 0.00761767
v -0.01090262 0.01366283 0.00770637
v -0.01146680 0.01329889 0.00768279
v -0.01193568 0.01281875 0.00765272
v 0.01234788 0.01192381 0.00769163
v 0.01211787 0.01255396 0.00772790
v 0.01175319 0.01311724 0.00775972
v 0.01127211 0.01358542 0.00778549
v 0.01069875 0.01393502 0.00780394
v 0.01006187 0.01414851 0.00781411
v 0.00939340 0.01421517 0.00781552
v -0.00960490 0.01397578 0.00772971
v -0.01027144 0.01389229 0.00772227
v -0.00954839 0.01485828 -0.00724420
v 0.00944991 0.01509768 -0.00715839
v 0.01248817 0.01214091 -0.00732118
v 0.01240439 0.01280632 -0.00728228
v 0.01217439 0.01343646 -0.00724601
v 0.01180970 0.01399975 -0.00721419
v 0.01132862 0.01446792 -0.00718841
v 0.01075526 0.01481752 -0.00716997
v 0.01011838 0.01503101 -0.00715980
v -0.01021492 0.01477479 -0.00725164
v -0.01084611 0.01454533 -0.00726754
v -0.01141028 0.01418140 -0.00729112
v -0.01187916 0.01370125 -0.00732119
v -0.01222924 0.01312896 -0.00735624
v -0.01244295 0.01249322 -0.00739451
v -0.01250959 0.01182592 -0.00743409
v 0.00727829 -0.00920943 -0.03292906
v 0.00637066 -0.00913543 -0.03438399
v 0.00516165 -0.00907932 -0.03560105
v 0.00371189 -0.00904390 -0.03651921
v 0.00369263 -0.00754662 -0.03643104
v 0.00209408 -0.00903096 -0.03709244
v 0.00038933 -0.00904115 -0.03729198
v 0.00037007 -0.00754386 -0.03720381
v -0.00131686 -0.00907394 -0.03710784
v -0.00133613 -0.00757666 -0.03701967
v -0.00293895 -0.00912771 -0.03654925
v -0.00295821 -0.00763043 -0.03646108
v -0.00439559 -0.00919975 -0.03564421
v -0.00441485 -0.00770246 -0.03555604
v -0.00561374 -0.00928644 -0.03443811
v -0.00563301 -0.00778916 -0.03434994
v -0.00653232 -0.00938345 -0.03299144
v -0.00655159 -0.00788617 -0.03290327
v 0.00753079 0.01465892 -0.02989848
v 0.00697005 0.01474709 -0.03151832
v 0.00606242 0.01482109 -0.03297324
v 0.00485341 0.01487720 -0.03419030
v 0.00340365 0.01491262 -0.03510847
v 0.00178584 0.01492556 -0.03568169
v 0.00010036 0.01341809 -0.03596941
v 0.00008109 0.01491537 -0.03588124
v -0.00162510 0.01488258 -0.03569710
v -0.00324719 0.01482881 -0.03513851
v -0.00470383 0.01475677 -0.03423347
v -0.00592198 0.01467008 -0.03302738
v -0.00684057 0.01457307 -0.03158070
v -0.00741351 0.01447061 -0.02996598
v 0.00421419 0.01582154 -0.03335387
v 0.00526547 0.01577274 -0.03229559
v 0.00605468 0.01570840 -0.03103048
v -0.00409619 0.01571682 -0.03339140
v 0.00654227 0.01563173 -0.02962197
v -0.00282958 0.01577946 -0.03417837
v -0.00141912 0.01582621 -0.03466408
v -0.00645236 0.01546799 -0.02968066
v -0.00595416 0.01555708 -0.03108472
v -0.00515542 0.01564143 -0.03234266
v 0.00154682 0.01586358 -0.03465069
v 0.00295357 0.01585233 -0.03415225
v 0.00006448 0.01585473 -0.03482420
f 423 440 398
f 475 479 476
f 452 453 404
f 411 377 404
f 404 453 411
f 454 453 358
f 409 415 414
f 427 327 278
f 304 296 289
f 327 325 309
f 285 288 289
f 290 349 287
f 287 349 355
f 288 285 287
f 431 452 404
f 404 405 431
f 431 405 432
f 355 349 437
f 349 435 437
f 437 287 355
f 473 122 420
f 474 122 473
f 474 479 475
f 189 476 477
f 478 476 479
f 477 476 478
f 412 454 377
f 453 454 412
f 377 411 412
f 412 411 453
f 512 454 358
f 404 377 406
f 377 417 406
f 415 405 416
f 416 413 415
f 410 405 415
f 415 409 410
f 89 409 414
f 423 327 430
f 456 327 423
f 456 325 327
f 169 275 302
f 226 350 275
f 302 275 281
f 278 327 277
f 327 309 277
f 296 425 277
f 277 427 278
f 277 425 427
f 296 277 276
f 276 285 289
f 310 309 325
f 310 324 299
f 325 324 310
f 310 277 309
f 310 276 277
f 399 398 440
f 399 400 394
f 289 279 36
f 289 288 366
f 366 365 36
f 290 287 286
f 286 287 285
f 433 435 349
f 433 431 432
f 288 287 439
f 287 437 439
f 436 437 435
f 311 503 502
f 311 502 312
f 516 526 515
f 175 174 167
f 486 528 479
f 479 474 486
f 536 479 537
f 479 526 537
f 537 516 536
f 526 516 537
f 479 528 527
f 527 526 479
f 103 419 105
f 421 420 459
f 459 119 421
f 121 420 122
f 122 119 121
f 121 459 420
f 119 459 121
f 105 419 120
f 120 119 105
f 480 417 377
f 480 416 417
f 413 416 480
f 482 380 381
f 380 512 381
f 421 471 472
f 472 420 421
f 473 420 472
f 227 189 477
f 227 229 189
f 394 400 204
f 204 400 203
f 189 229 162
f 538 479 536
f 538 478 479
f 468 390 389
f 490 372 491
f 468 490 491
f 489 490 468
f 514 527 528
f 515 526 514
f 526 527 514
f 528 486 530
f 408 416 405
f 417 416 408
f 432 405 451
f 405 410 451
f 80 410 409
f 327 427 429
f 429 430 327
f 427 428 429
f 424 440 423
f 423 430 424
f 430 429 424
f 424 429 428
f 397 401 325
f 325 456 397
f 397 456 423
f 423 398 397
f 398 395 397
f 321 299 322
f 299 324 322
f 303 169 302
f 289 169 303
f 303 304 289
f 302 296 303
f 296 304 303
f 352 350 296
f 352 296 302
f 302 281 352
f 289 296 305
f 305 276 289
f 296 276 305
f 403 399 394
f 394 463 403
f 403 463 393
f 400 399 210
f 393 463 493
f 317 318 319
f 321 320 319
f 319 320 523
f 523 522 319
f 319 522 317
f 316 318 506
f 506 318 317
f 520 503 311
f 520 501 503
f 520 538 519
f 1 169 289
f 289 36 1
f 280 279 289
f 289 366 280
f 280 36 279
f 280 366 36
f 364 288 356
f 364 366 288
f 365 366 364
f 36 365 364
f 40 41 175
f 2 136 128
f 434 436 435
f 434 433 432
f 435 433 434
f 438 439 437
f 437 436 438
f 288 439 438
f 356 288 438
f 348 349 290
f 348 433 349
f 431 433 348
f 452 431 348
f 348 347 358
f 358 453 348
f 453 452 348
f 515 514 343
f 343 514 360
f 285 276 298
f 276 310 298
f 495 514 345
f 360 514 495
f 501 499 500
f 503 501 500
f 500 502 503
f 500 499 332
f 311 312 313
f 362 516 515
f 340 339 362
f 362 339 516
f 536 516 517
f 517 538 536
f 519 538 517
f 497 339 363
f 363 339 332
f 363 517 516
f 332 499 363
f 499 517 363
f 6 44 45
f 177 44 6
f 138 137 127
f 127 39 138
f 39 174 138
f 274 138 174
f 137 138 274
f 275 136 274
f 273 226 274
f 274 226 275
f 485 474 473
f 485 486 474
f 473 472 485
f 386 486 485
f 419 103 418
f 422 120 419
f 422 471 421
f 421 119 422
f 119 120 422
f 419 470 422
f 422 470 471
f 413 480 462
f 414 415 462
f 415 413 462
f 483 472 471
f 482 381 483
f 228 460 193
f 228 387 460
f 227 387 228
f 161 229 230
f 390 391 192
f 192 194 193
f 193 194 188
f 20 229 161
f 20 162 229
f 196 235 234
f 478 538 532
f 538 520 532
f 392 391 464
f 392 463 394
f 464 463 392
f 234 391 392
f 392 196 234
f 193 460 388
f 388 389 193
f 376 525 375
f 525 372 371
f 371 533 525
f 371 372 490
f 490 489 371
f 368 533 369
f 478 535 534
f 534 535 523
f 468 491 465
f 465 491 464
f 465 390 468
f 464 391 465
f 465 391 390
f 466 227 477
f 466 387 227
f 460 387 466
f 379 512 380
f 379 455 512
f 482 481 379
f 379 380 482
f 385 486 386
f 386 530 385
f 385 530 486
f 407 405 404
f 407 408 405
f 404 406 407
f 407 406 417
f 417 408 407
f 356 438 447
f 113 96 114
f 114 418 102
f 114 96 414
f 414 418 114
f 88 80 409
f 410 80 58
f 296 350 284
f 325 401 326
f 401 457 326
f 326 457 525
f 374 457 401
f 375 525 374
f 525 457 374
f 374 493 375
f 374 397 395
f 395 493 374
f 321 322 508
f 323 322 324
f 510 324 325
f 272 226 273
f 272 225 226
f 275 350 351
f 351 352 275
f 350 352 351
f 282 281 275
f 275 352 282
f 282 352 281
f 396 403 393
f 396 395 398
f 398 399 396
f 399 403 396
f 393 493 396
f 396 493 395
f 203 400 250
f 400 210 250
f 250 204 203
f 249 206 250
f 250 206 204
f 251 248 249
f 249 250 251
f 251 250 210
f 464 491 492
f 492 463 464
f 492 493 463
f 375 493 492
f 492 376 375
f 491 376 492
f 507 522 316
f 316 506 507
f 317 522 507
f 507 506 317
f 518 520 519
f 501 520 518
f 519 517 518
f 518 499 501
f 518 517 499
f 311 505 521
f 521 520 311
f 505 313 521
f 521 532 520
f 175 167 139
f 39 40 3
f 3 174 39
f 3 167 174
f 3 139 167
f 40 139 3
f 169 1 135
f 135 128 136
f 135 1 36
f 275 169 135
f 135 136 275
f 135 36 37
f 37 128 135
f 436 434 448
f 345 346 292
f 290 286 292
f 292 286 285
f 345 514 513
f 513 514 528
f 528 530 513
f 513 530 512
f 513 512 358
f 358 347 513
f 342 343 293
f 293 343 344
f 345 292 344
f 344 292 293
f 344 343 360
f 344 495 345
f 360 495 344
f 307 310 299
f 307 298 310
f 295 339 340
f 332 339 295
f 498 339 497
f 516 339 498
f 497 363 498
f 498 363 516
f 354 312 502
f 502 500 354
f 336 335 354
f 333 500 332
f 332 334 333
f 504 505 311
f 311 313 504
f 504 313 505
f 440 218 217
f 124 44 177
f 43 44 124
f 124 143 43
f 264 143 177
f 43 143 264
f 165 178 177
f 177 6 165
f 45 178 165
f 165 6 45
f 271 272 269
f 270 442 269
f 175 41 4
f 4 266 175
f 266 4 42
f 42 4 41
f 43 125 42
f 261 258 259
f 259 258 213
f 257 264 177
f 263 264 257
f 168 136 2
f 2 274 168
f 168 274 136
f 384 485 383
f 386 485 384
f 383 530 384
f 384 530 386
f 469 470 419
f 419 418 469
f 469 418 414
f 414 462 469
f 469 480 481
f 469 462 480
f 484 485 472
f 472 483 484
f 383 485 484
f 382 483 381
f 383 484 382
f 382 484 483
f 382 530 383
f 382 381 512
f 512 530 382
f 252 251 214
f 248 251 252
f 248 252 247
f 254 147 163
f 108 84 31
f 106 84 108
f 106 116 117
f 117 116 113
f 113 114 117
f 117 114 102
f 31 84 32
f 107 106 105
f 107 84 106
f 105 119 107
f 234 235 233
f 232 194 233
f 194 192 233
f 190 391 234
f 190 192 391
f 234 233 190
f 190 233 192
f 191 192 193
f 390 192 191
f 193 389 191
f 191 389 390
f 193 188 195
f 229 227 195
f 195 230 229
f 195 188 230
f 195 228 193
f 227 228 195
f 17 186 31
f 31 32 17
f 17 32 159
f 230 188 187
f 187 188 186
f 186 159 187
f 162 20 129
f 239 14 171
f 523 535 529
f 529 522 523
f 529 535 478
f 529 521 522
f 373 372 525
f 525 376 373
f 373 491 372
f 373 376 491
f 369 533 370
f 533 371 370
f 370 371 489
f 533 368 367
f 489 466 488
f 488 368 369
f 369 370 488
f 488 370 489
f 467 489 468
f 467 466 489
f 468 389 467
f 389 388 467
f 467 388 460
f 460 466 467
f 455 379 378
f 377 454 378
f 378 379 481
f 454 512 378
f 512 455 378
f 378 480 377
f 481 480 378
f 409 89 35
f 35 88 409
f 89 88 35
f 63 44 43
f 113 116 112
f 112 100 113
f 283 284 350
f 350 226 283
f 226 225 283
f 225 443 283
f 283 443 284
f 440 424 441
f 424 442 441
f 441 218 440
f 270 218 441
f 441 442 270
f 445 424 428
f 445 442 424
f 271 269 445
f 445 269 442
f 524 326 525
f 325 326 524
f 524 534 523
f 523 322 524
f 525 533 524
f 533 534 524
f 322 323 524
f 524 323 324
f 401 397 402
f 402 374 401
f 397 374 402
f 509 322 523
f 509 508 322
f 523 320 509
f 224 443 225
f 224 272 271
f 225 272 224
f 426 443 428
f 284 443 426
f 296 284 426
f 426 425 296
f 427 425 426
f 426 428 427
f 461 210 399
f 461 211 210
f 461 399 440
f 212 213 214
f 214 251 212
f 212 251 210
f 212 211 213
f 210 211 212
f 314 521 313
f 316 522 314
f 522 521 314
f 175 139 140
f 357 364 356
f 356 447 357
f 449 448 434
f 449 434 432
f 449 52 448
f 291 346 347
f 291 292 346
f 290 292 291
f 291 348 290
f 347 348 291
f 285 298 294
f 294 292 285
f 293 292 294
f 298 295 294
f 294 342 293
f 294 295 340
f 359 346 345
f 345 513 359
f 359 513 346
f 347 346 494
f 494 513 347
f 346 513 494
f 515 342 496
f 515 343 361
f 361 342 515
f 343 342 361
f 298 307 297
f 336 333 297
f 297 334 298
f 297 333 334
f 306 313 312
f 331 334 332
f 312 354 338
f 338 354 335
f 336 354 353
f 353 354 500
f 353 333 336
f 500 333 353
f 177 143 144
f 144 124 177
f 143 124 144
f 265 264 263
f 142 264 265
f 266 42 265
f 166 264 142
f 142 125 166
f 220 218 270
f 270 269 220
f 177 178 179
f 179 257 177
f 178 256 179
f 179 256 216
f 179 216 214
f 258 257 179
f 146 123 7
f 164 146 7
f 256 146 164
f 255 147 254
f 254 216 255
f 216 256 255
f 248 247 182
f 181 182 180
f 180 182 247
f 149 173 180
f 180 247 254
f 254 247 253
f 253 247 252
f 253 216 254
f 214 216 253
f 253 252 214
f 21 254 148
f 254 163 148
f 148 147 21
f 148 163 147
f 105 106 104
f 106 117 104
f 104 117 102
f 104 103 105
f 102 418 104
f 104 418 103
f 118 119 122
f 118 107 119
f 84 107 118
f 31 186 16
f 186 158 16
f 115 116 106
f 106 108 115
f 170 159 186
f 186 17 170
f 170 17 159
f 160 187 159
f 18 32 19
f 18 187 32
f 19 230 18
f 230 187 18
f 189 162 34
f 162 129 34
f 34 129 20
f 475 476 34
f 476 189 34
f 34 474 475
f 122 474 34
f 34 118 122
f 185 183 184
f 238 239 171
f 238 158 186
f 239 238 202
f 394 204 244
f 235 196 198
f 532 521 531
f 521 529 531
f 478 532 531
f 531 529 478
f 477 478 487
f 533 367 487
f 487 367 368
f 368 488 487
f 478 534 487
f 487 534 533
f 91 88 89
f 448 52 67
f 70 42 41
f 79 58 80
f 80 81 79
f 428 443 444
f 444 445 428
f 271 445 444
f 444 224 271
f 443 224 444
f 324 510 511
f 511 524 324
f 511 510 325
f 325 524 511
f 260 461 440
f 211 461 260
f 440 217 260
f 213 211 260
f 260 259 213
f 260 217 261
f 261 259 260
f 316 314 315
f 315 314 313
f 313 306 315
f 126 139 40
f 126 140 139
f 126 40 175
f 175 140 126
f 432 451 450
f 450 449 432
f 341 294 340
f 342 294 341
f 341 496 342
f 340 362 341
f 341 362 515
f 515 496 341
f 308 297 307
f 307 338 308
f 308 338 335
f 308 335 336
f 336 297 308
f 329 306 312
f 307 306 329
f 300 319 318
f 300 299 321
f 321 319 300
f 298 334 330
f 334 331 330
f 330 295 298
f 332 295 330
f 330 331 332
f 141 42 125
f 141 265 42
f 141 125 142
f 142 265 141
f 5 125 43
f 5 166 125
f 43 264 5
f 264 166 5
f 266 265 223
f 223 265 263
f 262 258 261
f 262 223 263
f 221 223 262
f 263 257 262
f 262 257 258
f 176 174 175
f 175 266 176
f 266 223 176
f 219 217 218
f 218 220 219
f 261 217 219
f 219 262 261
f 221 262 219
f 213 258 215
f 258 179 215
f 214 213 215
f 215 179 214
f 150 24 181
f 181 180 150
f 150 180 173
f 8 173 149
f 145 256 178
f 145 146 256
f 123 146 145
f 145 178 45
f 45 123 145
f 33 32 84
f 84 118 33
f 19 32 33
f 33 20 161
f 33 34 20
f 118 34 33
f 161 230 33
f 33 230 19
f 131 16 158
f 30 108 31
f 30 115 108
f 31 16 30
f 16 131 30
f 30 238 171
f 32 187 130
f 187 160 130
f 159 32 130
f 130 160 159
f 181 24 9
f 231 238 186
f 186 188 231
f 231 194 232
f 231 188 194
f 200 198 199
f 239 202 240
f 185 184 240
f 240 202 185
f 240 184 13
f 13 28 240
f 197 392 394
f 394 244 197
f 196 392 197
f 197 198 196
f 199 198 197
f 111 91 89
f 88 91 90
f 80 88 90
f 90 81 80
f 90 91 93
f 93 92 90
f 446 447 438
f 446 438 436
f 436 448 446
f 65 357 447
f 447 446 65
f 54 67 52
f 52 53 54
f 71 72 75
f 41 40 49
f 49 70 41
f 49 40 39
f 71 70 49
f 52 449 50
f 50 53 52
f 449 450 50
f 45 44 48
f 44 63 48
f 82 79 81
f 81 90 82
f 82 90 92
f 94 92 93
f 94 82 92
f 316 315 301
f 301 315 306
f 301 318 316
f 301 300 318
f 301 306 307
f 301 307 299
f 299 300 301
f 72 53 51
f 51 450 451
f 53 50 51
f 51 50 450
f 337 338 307
f 307 329 337
f 312 338 337
f 268 220 269
f 268 269 272
f 24 150 134
f 134 150 173
f 171 14 15
f 15 30 171
f 14 30 15
f 238 30 157
f 157 30 131
f 158 238 157
f 157 131 158
f 100 112 85
f 85 112 116
f 116 115 85
f 115 30 85
f 183 26 12
f 101 26 109
f 181 9 151
f 209 207 182
f 201 200 199
f 185 202 201
f 202 200 201
f 182 207 208
f 248 182 208
f 249 248 208
f 208 206 249
f 204 206 205
f 205 244 204
f 206 208 205
f 205 208 207
f 237 202 238
f 238 231 237
f 235 198 236
f 198 200 236
f 236 200 202
f 202 237 236
f 232 233 236
f 236 233 235
f 236 231 232
f 236 237 231
f 239 240 155
f 155 240 28
f 98 96 113
f 113 100 98
f 93 91 110
f 91 111 110
f 109 93 110
f 448 67 458
f 458 446 448
f 67 65 66
f 66 65 446
f 66 458 67
f 446 458 66
f 364 357 64
f 357 65 64
f 37 36 64
f 36 364 64
f 68 65 67
f 67 54 68
f 68 64 65
f 76 70 71
f 71 75 76
f 43 42 76
f 42 70 76
f 76 63 43
f 71 49 55
f 55 72 71
f 55 53 72
f 55 54 53
f 55 49 54
f 45 48 47
f 47 123 45
f 7 123 47
f 79 82 78
f 87 94 93
f 87 93 109
f 24 134 23
f 23 87 24
f 94 87 23
f 173 8 23
f 23 134 173
f 83 94 21
f 82 94 83
f 328 329 312
f 312 337 328
f 328 337 329
f 220 268 222
f 221 219 222
f 222 219 220
f 222 223 221
f 222 176 223
f 174 176 267
f 176 222 267
f 267 222 268
f 273 274 267
f 267 274 174
f 267 272 273
f 267 268 272
f 100 85 86
f 86 85 28
f 86 101 100
f 26 101 86
f 29 85 30
f 28 85 29
f 29 30 14
f 14 239 29
f 29 155 28
f 154 184 183
f 132 12 26
f 132 153 12
f 132 154 153
f 245 133 11
f 183 245 11
f 11 26 183
f 181 151 246
f 246 182 181
f 246 209 182
f 245 209 246
f 241 245 183
f 241 209 245
f 241 183 185
f 207 209 241
f 185 201 241
f 243 201 199
f 244 205 243
f 199 197 243
f 243 197 244
f 239 155 156
f 156 29 239
f 155 29 156
f 96 98 95
f 95 111 89
f 95 89 414
f 414 96 95
f 100 101 99
f 99 98 100
f 99 101 109
f 109 110 99
f 99 110 111
f 69 68 54
f 64 68 69
f 74 75 72
f 58 79 60
f 79 78 60
f 63 76 61
f 61 76 75
f 59 60 61
f 75 74 61
f 61 74 59
f 46 83 21
f 21 147 46
f 147 255 46
f 7 47 46
f 46 164 7
f 256 164 46
f 46 255 256
f 21 94 22
f 94 23 22
f 22 23 8
f 22 8 149
f 22 254 21
f 22 180 254
f 149 180 22
f 77 78 82
f 82 83 77
f 83 46 77
f 77 47 48
f 77 46 47
f 27 86 28
f 26 86 27
f 27 28 13
f 27 132 26
f 13 184 27
f 184 154 27
f 154 132 27
f 172 154 183
f 153 154 172
f 183 12 172
f 12 153 172
f 152 133 245
f 245 246 152
f 133 152 25
f 25 152 246
f 25 9 24
f 109 26 25
f 25 87 109
f 24 87 25
f 26 11 25
f 25 11 133
f 10 151 9
f 10 246 151
f 9 25 10
f 10 25 246
f 242 241 201
f 201 243 242
f 207 241 242
f 242 205 207
f 242 243 205
f 97 99 111
f 98 99 97
f 111 95 97
f 97 95 98
f 56 69 54
f 56 49 39
f 54 49 56
f 37 64 38
f 64 69 38
f 38 128 37
f 2 128 38
f 127 137 38
f 38 39 127
f 38 274 2
f 137 274 38
f 38 56 39
f 69 56 38
f 72 51 73
f 73 74 72
f 73 51 451
f 62 61 60
f 62 60 78
f 62 48 63
f 63 61 62
f 62 77 48
f 78 77 62
f 59 74 57
f 74 73 57
f 58 60 57
f 57 60 59
f 410 58 57
f 57 451 410
f 57 73 451
f 471 470 483
f 483 470 482
f 482 470 469
f 469 481 482
f 321 508 509
f 509 320 321
f 487 488 466
f 487 466 477

