# https://github.com/mikedh/trimesh
v 0.01479179 -0.03599278 0.05480351
v 0.01300643 -0.03601857 0.05600127
v 0.01098890 -0.03595379 0.05674165
v 0.00850972 -0.03974114 0.05637783
v 0.00965023 -0.03983214 0.05631430
v 0.01064102 -0.03989269 0.05613830
v 0.01116227 -0.03991732 0.05599852
v 0.01259958 -0.03995682 0.05542770
v 0.01391848 -0.03994946 0.05461918
v 0.01507890 -0.03989545 0.05359753
v 0.01444390 -0.03993168 0.05420015
v 0.00958603 -0.04042510 0.05612502
v 0.01380720 -0.04054112 0.05444859
v 0.01108139 -0.04050934 0.05581272
v 0.01250285 -0.04054841 0.05524819
v 0.01058409 -0.01709905 0.05984744
v 0.01647635 -0.01728158 0.05764169
v 0.01470612 -0.01730925 0.05884296
v 0.01270323 -0.01724720 0.05959274
v 0.01093197 -0.01316015 0.06045080
v 0.01305111 -0.01330830 0.06019610
v -0.02654241 -0.03625878 0.01954960
v -0.02673448 -0.03605178 0.01959069
v -0.02919740 -0.03394336 -0.00212786
v -0.02763907 -0.03468373 0.01982048
v -0.02804687 -0.03353703 0.01997330
v -0.03050483 -0.03143293 -0.00170142
v -0.03391972 -0.02551152 -0.03174683
v -0.03392984 -0.02538919 -0.03174083
v -0.03405149 -0.02510034 -0.03293250
v -0.03408572 -0.02413621 -0.03320123
v -0.03457864 -0.02273875 -0.03811412
v -0.03460072 -0.02361083 -0.03836868
v -0.03410652 -0.02403350 -0.03343282
v -0.03409442 -0.02411452 -0.03328623
v -0.03403268 -0.02421934 -0.03271037
v -0.03391832 -0.02449764 -0.03159695
v -0.03362247 -0.02632203 -0.02906509
v -0.03363127 -0.02631664 -0.02917302
v -0.03293446 -0.02816034 -0.02382017
v -0.03340611 -0.02652539 -0.02669346
v -0.03341089 -0.02661725 -0.02683675
v -0.03341161 -0.02662350 -0.02685223
v -0.03344871 -0.02659707 -0.02726530
v -0.03343023 -0.02665051 -0.02710937
v -0.03342081 -0.02665594 -0.02700152
v -0.03361240 -0.02622667 -0.02880012
v -0.03361436 -0.02628307 -0.02889977
v -0.03346961 -0.02649505 -0.02739434
v -0.03345238 -0.02658209 -0.02729084
v -0.03361744 -0.02630902 -0.02897822
v -0.03366221 -0.02620999 -0.02940712
v -0.03382056 -0.02584006 -0.03091705
v -0.03364968 -0.02626348 -0.02932845
v -0.03381919 -0.02593348 -0.03106185
v -0.03381941 -0.02594014 -0.03107825
v -0.03382489 -0.02597284 -0.03122795
v -0.03383288 -0.02596751 -0.03133603
v -0.03391372 -0.02605880 -0.03319036
v -0.03385115 -0.02591474 -0.03149074
v -0.03385529 -0.02589906 -0.03151749
v -0.03387445 -0.02581412 -0.03161866
v -0.03388391 -0.02576492 -0.03165784
v -0.03389885 -0.02567560 -0.03170732
v -0.03367166 -0.02616203 -0.02945702
v -0.03369332 -0.02602254 -0.02954589
v -0.03382268 -0.02578646 -0.03086643
v -0.03369634 -0.02599845 -0.02955538
v -0.03382640 -0.02570502 -0.03081196
v -0.03371018 -0.02585825 -0.02958502
v -0.03383406 -0.02554817 -0.03075814
v -0.03371684 -0.02573911 -0.02957919
v -0.03369755 -0.02500926 -0.02946248
v -0.03375554 -0.02487867 -0.03002093
v -0.03381830 -0.02473396 -0.03062731
v -0.03349729 -0.02626966 -0.02751078
v -0.03350272 -0.02619058 -0.02752228
v -0.03361348 -0.02608242 -0.02866612
v -0.03361224 -0.02619058 -0.02875585
v -0.03347701 -0.02644825 -0.02743166
v -0.03348905 -0.02635493 -0.02748337
v -0.03348444 -0.02547081 -0.02742093
v -0.03359635 -0.02523221 -0.02849080
v -0.03350681 -0.02607360 -0.02751662
v -0.03361753 -0.02589835 -0.02859693
v -0.03361397 -0.02605657 -0.02865114
v -0.03265609 -0.02700714 -0.01963514
v -0.03306389 -0.02629822 -0.02344052
v -0.03307765 -0.02719013 -0.02361430
v -0.03338219 -0.02568182 -0.02644741
v -0.03340504 -0.02623301 -0.02653465
v -0.03340472 -0.02639208 -0.02658906
v -0.03340519 -0.02647051 -0.02664156
v -0.03228924 -0.02831522 -0.01618307
v -0.03209208 -0.02870860 -0.01444504
v -0.03211126 -0.02865463 -0.01460180
v -0.03212222 -0.02860202 -0.01467919
v -0.03213026 -0.02855160 -0.01473167
v -0.03214519 -0.02841037 -0.01482106
v -0.03214654 -0.02839115 -0.01482867
v -0.03215211 -0.02824604 -0.01485970
v -0.03227997 -0.02820976 -0.01605292
v -0.03227732 -0.02816400 -0.01601708
v -0.03213112 -0.02780499 -0.01480319
v -0.03224914 -0.02763558 -0.01588366
v -0.03215092 -0.02813294 -0.01485442
v -0.03226873 -0.02795718 -0.01593388
v -0.03227277 -0.02806622 -0.01596421
v -0.03193799 -0.02807100 -0.01304152
v -0.03202347 -0.02795484 -0.01382031
v -0.03204358 -0.02829273 -0.01387313
v -0.03194716 -0.02897016 -0.01317290
v -0.03204938 -0.02845224 -0.01392727
v -0.03205321 -0.02852956 -0.01397889
v -0.03205681 -0.02858480 -0.01403106
v -0.03206699 -0.02867576 -0.01417317
v -0.03206818 -0.02868197 -0.01418855
v -0.03230175 -0.02837160 -0.01633961
v -0.03208097 -0.02871411 -0.01433683
v -0.03230673 -0.02837831 -0.01639441
v -0.03231802 -0.02837299 -0.01650570
v -0.03233020 -0.02834385 -0.01661010
v -0.03234961 -0.02825561 -0.01675255
v -0.03235583 -0.02821478 -0.01679352
v -0.03236620 -0.02812441 -0.01685772
v -0.03237364 -0.02802006 -0.01690123
v -0.03237583 -0.02796588 -0.01691384
v -0.03237559 -0.02779742 -0.01691523
v -0.03235605 -0.02747729 -0.01686525
v -0.03065671 -0.03045050 -0.00157498
v -0.03065103 -0.02954722 -0.00147505
v -0.03178545 -0.02827121 -0.01165593
v -0.03180653 -0.02864434 -0.01171438
v -0.03181138 -0.02880399 -0.01176868
v -0.03181331 -0.02885128 -0.01179779
v -0.03181802 -0.02893665 -0.01187266
v -0.03182393 -0.02900176 -0.01196247
v -0.03182770 -0.02902764 -0.01201496
v -0.03184153 -0.02906591 -0.01217869
v -0.03185267 -0.02906037 -0.01228658
v -0.03186556 -0.02903010 -0.01239364
v -0.03187220 -0.02900640 -0.01244324
v -0.03189177 -0.02890343 -0.01257299
v -0.03190741 -0.02876221 -0.01266232
v -0.03191113 -0.02870725 -0.01268176
v -0.03191511 -0.02859780 -0.01270093
v -0.03191444 -0.02848450 -0.01269561
v -0.03189384 -0.02812962 -0.01264008
v -0.02892290 -0.03106028 0.01378364
v -0.02820076 -0.03255287 0.02008213
v -0.02819693 -0.03164798 0.02016568
v -0.03446648 -0.02455972 -0.03866141
v -0.03179903 -0.02994816 -0.01333317
v -0.03376624 -0.02623978 -0.03922579
v -0.03320738 -0.02775550 -0.03369420
v -0.03221868 -0.02987743 -0.02423374
v -0.03107469 -0.03167877 -0.01366758
v -0.02977396 -0.03317123 -0.00197710
v -0.02731255 -0.03527834 0.01972820
v -0.03050095 -0.03244757 -0.01384383
v -0.03164867 -0.03064036 -0.02444432
v -0.03264145 -0.02850959 -0.03394394
v -0.03320296 -0.02698666 -0.03950179
v -0.03251990 -0.02763154 -0.03975968
v -0.03195615 -0.02916057 -0.03417968
v -0.03095992 -0.03129880 -0.02464701
v -0.02980907 -0.03311097 -0.01401754
v -0.02357029 -0.03370659 0.03703315
v -0.02375558 -0.03364410 0.03661746
v -0.02363480 -0.03540663 0.03630961
v -0.02700405 -0.03237886 0.02697307
v -0.02727545 -0.03224289 0.02578062
v -0.02714320 -0.03402520 0.02556409
v -0.01735973 -0.03559976 0.04755593
v -0.01808124 -0.03539243 0.04657165
v -0.01800714 -0.03714482 0.04615801
v -0.02105680 -0.03623368 0.04140953
v -0.00805336 -0.03915422 0.05696348
v -0.00805335 -0.03790284 0.05724157
v -0.01065236 -0.03906572 0.05448988
v -0.01200762 -0.03700961 0.05369025
v -0.01456025 -0.03810738 0.05048674
v -0.01460991 -0.03635769 0.05093477
v -0.01655902 -0.03582748 0.04859717
v -0.01992931 -0.03869637 0.04034232
v -0.01697192 -0.03958119 0.04491534
v -0.01362383 -0.04051911 0.04910399
v -0.00982159 -0.04145154 0.05299891
v -0.00670353 -0.04228875 0.05539209
v -0.00737867 -0.04139043 0.05599517
v -0.02642467 -0.03579592 0.02522167
v -0.02584579 -0.03658352 0.02501316
v -0.02043538 -0.03794718 0.04076004
v -0.02296911 -0.03713755 0.03576600
v -0.02243203 -0.03789945 0.03541910
v -0.01020479 -0.04073679 0.05359073
v -0.01405231 -0.03979325 0.04964943
v -0.01744113 -0.03884406 0.04540303
v -0.02686016 -0.03493027 0.02540733
v -0.02496807 -0.03642443 0.03056617
v -0.02440671 -0.03719920 0.03028915
v -0.02566594 -0.03467411 0.03100698
v -0.02499067 -0.03320941 0.03357896
v -0.02579639 -0.03290236 0.03126633
v -0.02037630 -0.03471609 0.04309793
v -0.02115881 -0.03447798 0.04176985
v -0.02166280 -0.03432198 0.04086733
v -0.00782946 -0.04033020 0.05653667
v -0.01048342 -0.03992902 0.05409268
v -0.01436644 -0.03897677 0.05011501
v -0.01778848 -0.03801939 0.04582147
v -0.02081376 -0.03711380 0.04111938
v -0.02539074 -0.03557006 0.03080795
v -0.02848494 0.04969819 -0.03280837
v -0.03440821 -0.01635675 -0.04040829
v -0.02891939 0.04579003 -0.03088874
v -0.02894169 0.04607252 -0.03139363
v -0.02894058 0.04612970 -0.03146812
v -0.02855162 0.04967386 -0.03242973
v -0.02863871 0.04959016 -0.03152031
v -0.00173325 0.03540623 0.06710431
v -0.00116048 0.03638682 0.06667890
v -0.00334066 0.03687734 0.06473368
v 0.00168673 0.03734092 0.06691220
v 0.00188246 0.03741837 0.06684479
v 0.00024485 0.03783273 0.06538771
v 0.00251467 0.03761426 0.06664018
v 0.00380183 0.03780438 0.06628925
v 0.00098822 0.03823379 0.06461095
v -0.01540332 0.04461136 0.03325466
v -0.01565949 0.04493818 0.03126886
v -0.01698111 0.04483908 0.03139653
v -0.01271214 0.04279623 0.04355275
v -0.01333939 0.04311985 0.04180181
v -0.01432154 0.04303154 0.04211706
v -0.01384693 0.04340844 0.04021037
v -0.01579621 0.04397474 0.03680980
v -0.01474682 0.04401392 0.03677626
v -0.01478611 0.04404448 0.03659938
v -0.01134755 0.04217884 0.04679631
v -0.01227941 0.04206778 0.04723138
v -0.00975144 0.04155611 0.04994157
v -0.00969682 0.04109557 0.05208917
v -0.00919435 0.04135668 0.05092240
v -0.00520489 0.04010924 0.05676564
v -0.00576880 0.04027002 0.05604114
v -0.00659790 0.04012448 0.05664199
v -0.00729849 0.04072949 0.05392364
v -0.00880578 0.04122203 0.05157739
v -0.00290935 0.03949442 0.05945598
v -0.00302581 0.03916769 0.06082859
v -0.00228893 0.03933781 0.06012069
v 0.00166809 0.03841656 0.06385311
v 0.00024585 0.03873343 0.06260460
v 0.00456688 0.03781292 0.06612266
v 0.00294200 0.03814473 0.06489330
v -0.00052488 0.03562194 0.06775752
v 0.00027243 0.03646952 0.06744473
v 0.00083764 0.03689318 0.06722403
v -0.00217459 0.03433253 0.06735009
v -0.00145074 0.03392050 0.06804334
v -0.00093739 0.03500742 0.06790628
v -0.00385348 0.03878624 0.06152592
v -0.00466577 0.03818298 0.06215598
v -0.00263033 0.03769299 0.06418122
v -0.00048685 0.03721072 0.06609371
v -0.00185730 0.03830569 0.06351211
v -0.00573532 0.03927229 0.05943785
v -0.00658460 0.03867859 0.06002685
v -0.00750059 0.03976312 0.05725140
v -0.00838459 0.03917907 0.05779741
v -0.00914606 0.04025788 0.05497018
v -0.01006242 0.03968356 0.05547134
v -0.01066458 0.04075460 0.05260297
v -0.01161079 0.04019005 0.05305758
v -0.00394312 0.03590344 0.06513258
v -0.00541094 0.03737572 0.06267376
v -0.00604160 0.03640860 0.06304462
v -0.00736263 0.03787981 0.06050818
v -0.00801987 0.03691956 0.06084954
v -0.00919343 0.03838886 0.05824057
v -0.00987560 0.03743554 0.05855105
v -0.01089999 0.03890199 0.05587468
v -0.01160540 0.03795566 0.05615293
v -0.01247487 0.03941715 0.05341959
v -0.01320173 0.03847784 0.05366441
v -0.01391210 0.03993235 0.05088488
v -0.01465853 0.03900005 0.05109518
v -0.01520957 0.04044662 0.04827567
v -0.01597368 0.03952133 0.04845043
v -0.01636439 0.04095883 0.04559766
v -0.01714423 0.04004051 0.04573594
v -0.00247126 0.03323464 0.06741837
v -0.00440562 0.03483449 0.06535949
v -0.00471449 0.03373935 0.06541688
v -0.00652420 0.03534450 0.06325153
v -0.00684465 0.03425214 0.06329739
v -0.00852141 0.03586036 0.06103543
v -0.00885278 0.03477082 0.06106918
v -0.01039492 0.03638127 0.05871493
v -0.01073653 0.03529459 0.05873600
v -0.01214128 0.03690637 0.05629385
v -0.01249244 0.03582256 0.05630168
v -0.01375290 0.03743355 0.05378149
v -0.01411287 0.03635262 0.05377559
v -0.01522365 0.03796077 0.05118765
v -0.01559166 0.03688272 0.05116756
v -0.01655139 0.03848703 0.04851758
v -0.01692666 0.03741186 0.04848289
v -0.01773315 0.03901119 0.04577709
v -0.01811488 0.03793888 0.04572743
v -0.01933595 0.03741011 0.04278047
v -0.01876874 0.03711501 0.04437994
v -0.01205037 0.04125136 0.05015897
v -0.01302382 0.04069658 0.05056553
v -0.01330140 0.04174722 0.04764315
v -0.01429946 0.04120219 0.04800024
v -0.01441489 0.04224110 0.04506098
v -0.01543484 0.04170578 0.04536730
v -0.01538642 0.04273123 0.04242144
v -0.01642548 0.04220554 0.04267585
v -0.01822890 0.04196992 0.04007196
v -0.01893351 0.04246591 0.03724026
v -0.01903412 0.04106537 0.04013499
v -0.01974833 0.04156812 0.03726472
v -0.01964115 0.04004586 0.04012250
v -0.02036220 0.04055342 0.03722475
v -0.02003331 0.03897921 0.04004192
v -0.02075830 0.03948954 0.03712833
v -0.01915161 0.03846190 0.04291072
v -0.01876425 0.03953137 0.04297571
v -0.01816554 0.04055576 0.04296113
v -0.01737199 0.04146715 0.04286012
v -0.02191891 0.03943449 0.03105399
v -0.02151260 0.03894195 0.03403517
v -0.02173021 0.04048285 0.03120412
v -0.02132440 0.03999113 0.03418022
v -0.02131050 0.04157827 0.03133678
v -0.02092522 0.04105228 0.03429267
v -0.02086180 0.04233300 0.03141082
v -0.02030601 0.04206224 0.03436045
v -0.02005424 0.04327089 0.03147562
v -0.01948370 0.04295339 0.03437501
v -0.01621266 0.04321600 0.03973306
v -0.01726796 0.04269985 0.03993462
v -0.01689206 0.04369424 0.03700271
v -0.01796072 0.04318749 0.03715058
v -0.01742255 0.04416428 0.03424002
v -0.01850164 0.04366677 0.03433356
v -0.01780284 0.04462507 0.03145110
v -0.01901010 0.04406564 0.03149139
v -0.01951552 0.04372508 0.03149094
v -0.01118449 0.03431813 0.05826594
v -0.01090682 0.03423741 0.05863281
v -0.00901987 0.03371275 0.06096995
v -0.00700814 0.03319321 0.06320179
v -0.00597863 0.03294096 0.06425494
v -0.00187835 0.03201265 0.06795108
v -0.00167274 0.03320950 0.06805624
v -0.01829757 0.03688620 0.04560200
v -0.01710754 0.03635829 0.04836224
v -0.01577021 0.03582825 0.05105144
v -0.01547651 0.03571883 0.05159642
v -0.01428867 0.03529724 0.05366379
v -0.02021936 0.03792831 0.03990686
v -0.02094571 0.03843951 0.03698836
v -0.02099528 0.03847872 0.03676097
v -0.02180481 0.05413228 -0.02520989
v -0.02187212 0.05424571 -0.02590964
v -0.02366034 0.05483195 -0.02998905
v -0.02213348 0.05492023 -0.03014081
v -0.02842314 0.05006553 -0.02963998
v -0.02798973 0.05157114 -0.03004880
v -0.02843291 0.05008276 -0.02973339
v -0.02849794 0.05010771 -0.03023173
v -0.02836897 0.04960829 -0.02867120
v -0.02836787 0.04953308 -0.02858269
v -0.02838146 0.04986943 -0.02907660
v -0.02836567 0.04907956 -0.02819510
v -0.02666275 0.04653179 -0.01254435
v -0.02444742 0.05462948 -0.02993636
v -0.02568932 0.05405851 -0.02989418
v -0.02648853 0.05348350 -0.02990083
v -0.02673346 0.05326375 -0.02990995
v -0.02794607 0.05165675 -0.03003961
v -0.02223488 0.05501876 -0.03118849
v -0.02181184 0.05498853 -0.03159565
v -0.02231223 0.05497534 -0.03224560
v -0.02236256 0.05479909 -0.03325531
v -0.02168158 0.05484015 -0.03292687
v -0.02163452 0.05474803 -0.03334348
v -0.02236568 0.05477827 -0.03333944
v -0.02238733 0.05451500 -0.03418158
v -0.02232628 0.02906793 0.03285211
v -0.02244572 0.02848852 0.03237715
v -0.02221553 0.03114477 0.03275852
v -0.02220684 0.03045629 0.03304706
v -0.02259924 0.03173147 0.02987406
v -0.02252026 0.03197886 0.03037188
v -0.02241135 0.03208239 0.03112793
v -0.02231381 0.03190578 0.03186496
v -0.02224133 0.03148293 0.03248271
v -0.02224715 0.02972000 0.03307075
v -0.02279511 0.02820356 0.03023687
v -0.02680340 -0.01764623 0.02351057
v -0.02270198 0.02802646 0.03097145
v -0.02670586 -0.01782284 0.02424760
v -0.02663338 -0.01824569 0.02486536
v -0.02660758 -0.01858385 0.02514116
v -0.02659889 -0.01927233 0.02542970
v -0.02691231 -0.01774976 0.02275452
v -0.02284720 0.02863261 0.02961020
v -0.02671832 -0.02066069 0.02523475
v -0.02663920 -0.02000862 0.02545339
v -0.02257786 0.02812676 0.03172529
v -0.02696991 -0.02160186 0.02410793
v -0.02709403 -0.02170216 0.02335409
v -0.02683777 -0.02124010 0.02475979
v -0.02718715 -0.02152506 0.02261951
v -0.02723925 -0.02109601 0.02199284
v -0.02724700 -0.02089244 0.02181320
v -0.01521809 -0.00149455 0.05157968
v -0.01502539 -0.00100967 0.05186523
v -0.01492292 -0.00044644 0.05202536
v -0.01549421 -0.00188774 0.05117496
v -0.01581692 -0.00214325 0.05070004
v -0.01653580 -0.00222034 0.04961936
v -0.01717147 -0.00170590 0.04862591
v -0.01740309 -0.00127081 0.04825277
v -0.01756542 -0.00073696 0.04798731
v -0.01764238 -0.00016293 0.04786094
v -0.01763407 0.00042840 0.04787732
v -0.01753987 0.00099282 0.04803871
v -0.01736974 0.00147867 0.04832669
v -0.01502240 0.00072108 0.05191907
v -0.01492315 0.00014760 0.05204254
v -0.01521639 0.00125798 0.05165680
v -0.01712587 0.00187290 0.04873359
v -0.01683253 0.00213168 0.04921374
v -0.01614443 0.00221092 0.05029813
v -0.01547798 0.00169434 0.05128788
v -0.03466863 -0.02218698 -0.03918378
v -0.03314102 -0.01412264 -0.03116443
v -0.03221203 -0.01551251 -0.02262656
v -0.03151758 -0.01627278 -0.01640625
v -0.03358609 -0.01485032 -0.03444428
v -0.03463859 -0.02118944 -0.03951408
v -0.03470577 -0.02131444 -0.04000030
v -0.02856498 0.04645128 -0.02832460
v -0.03445330 -0.01685159 -0.04049559
v -0.02708966 -0.01851875 0.02174160
v -0.03143656 -0.02726372 -0.00933906
v -0.03258329 -0.02471196 -0.02036442
v -0.02799490 0.05179615 -0.03132631
v -0.02859188 0.04993930 -0.03094870
v -0.02858453 0.04996601 -0.03088225
v -0.02786800 0.05180082 -0.03259430
v -0.02722815 0.05150273 -0.03474620
v -0.02756730 0.05167697 -0.03384186
v -0.02424976 0.05403341 -0.03465831
v -0.02439804 0.05436983 -0.03374834
v -0.02592427 0.05299143 -0.03485361
v -0.02620668 0.05329148 -0.03392303
v -0.02645674 0.05354042 -0.03261724
v -0.02451457 0.05465016 -0.03249534
v -0.02655329 0.05360735 -0.03127248
v -0.02453299 0.05473766 -0.03122414
v -0.03451617 -0.01699411 -0.04113727
v -0.03452173 -0.01702608 -0.04121596
v -0.03455282 -0.01742704 -0.04184174
v -0.03473159 -0.02084030 -0.04173983
v -0.03472428 -0.02076647 -0.04182848
v -0.03453691 -0.02105843 -0.04287292
v -0.03467054 -0.02019195 -0.04229825
v -0.03475996 -0.02116401 -0.04118536
v -0.03475479 -0.02144020 -0.04126528
v -0.03475808 -0.02130838 -0.04066719
v -0.03474730 -0.02133244 -0.04043947
v -0.03455787 -0.02340228 -0.04127846
v -0.03449604 -0.02429030 -0.04011381
v -0.03468827 -0.02325832 -0.03957752
v -0.03456914 -0.02229762 -0.04220366
v -0.03474350 -0.02244377 -0.04054263
v -0.03406214 -0.02530079 -0.04065981
v -0.03412106 -0.02434271 -0.04201758
v -0.03411920 -0.02314170 -0.04313928
v -0.03339117 -0.02622268 -0.04118131
v -0.03343693 -0.02520280 -0.04271276
v -0.03340842 -0.02391681 -0.04401166
v -0.03331956 -0.02242816 -0.04504160
v -0.03037462 -0.02681995 -0.04413961
v -0.03020465 -0.02539385 -0.04575607
v -0.03233606 -0.02298911 -0.04593465
v -0.03137976 -0.02506891 -0.04535144
v -0.03247375 -0.02457144 -0.04476327
v -0.03149554 -0.02646972 -0.04379972
v -0.03254116 -0.02592525 -0.04331834
v -0.03251829 -0.02699448 -0.04164434
v -0.03406609 -0.02177007 -0.04399801
v -0.02957702 -0.00082178 -0.06082282
v -0.02351595 0.03959049 -0.05490366
v -0.02611720 0.03625540 -0.05516353
v -0.02887710 0.03145193 -0.05564519
v -0.03095336 0.02609591 -0.05629117
v -0.03224090 0.02043514 -0.05707258
v -0.03269319 0.01531408 -0.05785702
v -0.03242392 0.00961567 -0.05881396
v -0.03136068 0.00416641 -0.05981672
v -0.02712254 -0.00530651 -0.06181994
v -0.02997821 -0.02985865 -0.04028428
v -0.03005316 -0.02980079 -0.04033576
v -0.03015454 -0.02969253 -0.04040258
v -0.02989867 -0.03024646 -0.03877636
v -0.02926429 -0.03185890 -0.03255869
v -0.02859375 -0.03326188 -0.02616198
v -0.02810921 -0.03411846 -0.02163106
v -0.00367173 -0.04474117 0.05343045
v -0.00368798 -0.04466885 0.05358984
v -0.00369065 -0.04463359 0.05363815
v -0.00369149 -0.04456010 0.05371214
v 0.02566847 -0.00923734 0.04623335
v 0.02503183 -0.00954224 0.04859091
v 0.02290762 -0.00992187 0.05229402
v 0.02607549 0.00227446 0.05040098
v 0.02395128 0.00189483 0.05410409
v -0.02159958 0.05412146 -0.02523398
v -0.02140769 0.05473236 -0.03336997
v -0.02158543 0.05496706 -0.03178850
v -0.02171314 0.05489085 -0.03019133
v 0.01804818 -0.03090542 -0.04911123
v 0.01795157 -0.02990013 -0.05049985
v 0.02607097 -0.02011862 -0.05072089
v 0.03066344 0.03187932 -0.04275592
v 0.02650994 -0.02030022 -0.04978848
v 0.03110242 0.03169773 -0.04182351
v 0.03159351 0.03134807 -0.03982400
v 0.02085683 -0.04182474 0.04628711
v 0.02112904 -0.04178140 0.04584720
v 0.02238323 -0.04149156 0.04323185
v -0.00030915 0.03890835 0.06180649
v 0.00484537 0.03780009 0.06606952
v -0.01545425 0.04492737 0.03124477
v 0.00649333 0.03768859 0.06584726
v 0.01223342 0.03718760 0.06580824
v 0.01613690 0.03686347 0.06567357
v 0.02008083 0.03666682 0.06468336
v 0.02365730 0.03664885 0.06273855
v 0.02593429 0.03891527 0.04662976
v -0.01394333 0.04358581 0.03913170
v -0.01172299 0.04242227 0.04544747
v -0.00867622 0.04124268 0.05139152
v -0.00484544 0.04006295 0.05688441
v -0.01524165 0.04465016 0.03293193
v 0.01410232 0.04603334 0.00698279
v 0.02105119 0.04257781 0.02553502
v 0.00203565 0.04359900 0.02983241
v 0.02077921 0.04521149 0.00849829
v 0.00735015 0.05231283 -0.03011862
v 0.01969097 0.04428474 0.01517587
v 0.02435616 0.03666870 0.06220604
v 0.02537419 0.03679927 0.06076663
v 0.02609127 0.03694627 0.05939347
v 0.02649162 0.03706735 0.05837220
v 0.02701043 0.03735061 0.05622384
v 0.02706516 0.03741097 0.05579828
v 0.01352350 0.05242745 -0.03442636
v 0.01357689 0.05234757 -0.03393568
v 0.02706890 0.03781248 0.05317494
v 0.02583566 0.03671219 0.06084646
v 0.02775146 0.03668135 0.05837488
v 0.02735338 0.03680219 0.05863301
v 0.02710701 0.03671303 0.05932903
v 0.02922712 0.03631796 0.05522963
v 0.02876135 0.03666687 0.05587957
v 0.02860623 0.03655862 0.05679390
v 0.02979442 0.03489323 0.05243791
v 0.02977940 0.03465057 0.05236530
v 0.02971730 0.03566830 0.05326509
v 0.02974313 0.03556932 0.05309547
v 0.02978640 0.03528116 0.05272046
v 0.02797032 0.03717180 0.05586430
v 0.02944894 0.03617869 0.05427008
v 0.02936528 0.03642666 0.05269948
v 0.02909359 0.03680033 0.05278987
v 0.02884551 0.03688942 0.05437818
v 0.02662604 0.03671964 0.05995115
v 0.02952303 0.03605629 0.05420697
v 0.02743020 0.03776493 0.05312789
v 0.02814574 0.03752792 0.05301145
v 0.02868825 0.03718940 0.05289731
v 0.02785978 0.03457308 0.05756534
v 0.02758874 0.03481720 0.05808629
v 0.02729559 0.03495890 0.05857499
v 0.02636885 0.03515554 0.05985571
v 0.02799668 0.03407228 0.05716844
v 0.02799338 0.03423654 0.05722586
v 0.02794164 0.03442983 0.05737849
v 0.02855530 0.03418775 0.05609254
v 0.03164690 0.03126819 -0.03933332
v 0.03153729 0.03568536 -0.03860233
v 0.03043986 0.03995046 -0.03778861
v 0.02199962 0.04979633 -0.03526745
v 0.02554838 0.04718740 -0.03607829
v 0.02840962 0.04384965 -0.03693296
v 0.02210601 0.04484996 0.00916870
v 0.03159461 0.03478903 -0.03926397
v 0.03148390 0.03576523 -0.03909301
v 0.03099377 0.03816751 -0.03864862
v 0.03038646 0.04003034 -0.03827929
v 0.02980926 0.04138086 -0.03799664
v 0.02807706 0.04433145 -0.03732784
v 0.02584981 0.04692963 -0.03666254
v 0.02319518 0.04909645 -0.03602096
v 0.02194623 0.04987621 -0.03575813
v 0.02019382 0.05076607 -0.03542260
v 0.01693695 0.05188777 -0.03488563
v 0.01788790 0.05162551 -0.03503179
v 0.01314363 0.05231688 -0.03752263
v 0.01327870 0.05248981 -0.03649944
v 0.02281855 0.04920420 -0.03807231
v 0.03051086 0.03842422 -0.04066415
v 0.03110350 0.03509178 -0.04127112
v 0.02215654 0.04885855 -0.04002263
v 0.01931603 0.05043870 -0.03945633
v 0.01623368 0.05150028 -0.03894814
v 0.03010584 0.03531786 -0.04309185
v 0.01985811 0.05085107 -0.03748210
v 0.01664562 0.05195748 -0.03695245
v 0.02953720 0.03851529 -0.04250947
v 0.02934249 0.04159378 -0.04002106
v 0.02841617 0.04155644 -0.04189243
v 0.02709344 0.04127141 -0.04348322
v 0.02556418 0.04387631 -0.04289278
v 0.02677680 0.04434891 -0.04125947
v 0.02763390 0.04450415 -0.03936137
v 0.02359787 0.04617010 -0.04230543
v 0.02466891 0.04680786 -0.04062983
v 0.02543700 0.04706692 -0.03870514
v 0.02124542 -0.03189806 -0.04637115
v 0.02018329 -0.03118851 -0.04857520
v 0.02003766 -0.02983530 -0.05057395
v 0.01995656 -0.02810128 -0.05225738
v 0.01994342 -0.02606017 -0.05355393
v 0.02218785 -0.03061949 -0.04843569
v 0.02237790 -0.03147199 -0.04635851
v 0.02205215 -0.02935850 -0.05029823
v 0.02197657 -0.02774265 -0.05186694
v 0.02196433 -0.02584063 -0.05307513
v 0.02201595 -0.02373332 -0.05387143
v 0.02397764 -0.02961650 -0.04804561
v 0.02406084 -0.03043794 -0.04622170
v 0.02385773 -0.02850221 -0.04969148
v 0.02379094 -0.02707435 -0.05107769
v 0.02378013 -0.02539361 -0.05214532
v 0.02382574 -0.02353144 -0.05284898
v 0.02543070 -0.02824791 -0.04743157
v 0.02556983 -0.02887198 -0.04591097
v 0.02533136 -0.02732480 -0.04879504
v 0.02527603 -0.02614192 -0.04994342
v 0.02526707 -0.02474954 -0.05082788
v 0.02530486 -0.02320688 -0.05141081
v 0.02538778 -0.02157951 -0.05166743
v 0.02644800 -0.02660696 -0.04663539
v 0.02609581 -0.02805252 -0.04572210
v 0.02637262 -0.02590650 -0.04767002
v 0.02633064 -0.02500890 -0.04854143
v 0.02632384 -0.02395234 -0.04921257
v 0.02635251 -0.02278174 -0.04965491
v 0.02641544 -0.02154686 -0.04984964
v 0.02188905 -0.03362369 -0.04001217
v 0.02258244 -0.03514227 -0.03335970
v 0.02281975 -0.03559439 -0.03112224
v 0.02364448 -0.03694689 -0.02347352
v 0.02690407 -0.03643151 -0.01773891
v 0.02568950 -0.03727896 -0.01742510
v 0.02643755 -0.03543842 -0.02353816
v 0.02707028 -0.03628837 -0.01777677
v 0.02897862 -0.03384477 -0.01806868
v 0.02854256 -0.03458844 -0.01803435
v 0.02775526 -0.03560935 -0.01791653
v 0.02972110 -0.03181814 -0.01799876
v 0.02944223 -0.03278056 -0.01805873
v 0.02843842 -0.03297926 -0.02336515
v 0.02901988 -0.03376435 -0.01807022
v 0.02561929 -0.03409657 -0.03112687
v 0.02538409 -0.03364846 -0.03334446
v 0.02469746 -0.03214473 -0.03993207
v 0.02763003 -0.03165365 -0.03086230
v 0.02739804 -0.03121167 -0.03304958
v 0.02672172 -0.02973057 -0.03953825
v 0.01927066 -0.04414948 0.04781924
v 0.01981089 -0.04389340 0.04652291
v 0.02048547 -0.04347698 0.04638519
v 0.02143377 -0.04264802 0.04389236
v 0.01591046 -0.04501148 0.05060073
v 0.01701690 -0.04484784 0.04983180
v 0.01746206 -0.04475247 0.04948623
v 0.01787654 -0.04464670 0.04914366
v 0.02084995 -0.04321324 0.04588588
v 0.02014135 -0.04365960 0.04509020
v 0.01853233 -0.04444245 0.04855633
v 0.02175717 -0.04236079 0.04444851
v 0.02564339 -0.03740651 -0.01568426
v 0.02669771 -0.03671906 -0.01610997
v 0.02762679 -0.03588263 -0.01643469
v 0.02827152 -0.03512024 -0.01662245
v 0.02886514 -0.03420907 -0.01675418
v 0.02919392 -0.03356079 -0.01679980
v 0.02954534 -0.03264751 -0.01680766
v 0.02976014 -0.03183101 -0.01676523
v 0.01986524 -0.04210402 0.04762560
v -0.02311853 0.04002854 -0.05487559
v -0.00659983 -0.01647342 -0.06587082
v -0.01515025 -0.01514944 -0.06472494
v -0.00989779 0.04801217 -0.05501447
v 0.01965052 0.02372233 -0.06218366
v 0.00646444 -0.01158920 -0.06649722
v 0.00223804 -0.01416512 -0.06645668
v 0.01035311 -0.00811192 -0.06635427
v 0.01329883 -0.00447595 -0.06608290
v 0.01619080 0.00046584 -0.06559310
v 0.01835262 0.00600273 -0.06492698
v 0.01966949 0.01186667 -0.06411569
v 0.02010161 0.01786604 -0.06318607
v 0.01836058 0.02926636 -0.06114080
v 0.01633063 0.03426625 -0.06010600
v 0.01361228 0.03869185 -0.05908978
v 0.01040229 0.04230778 -0.05815188
v 0.00676631 0.04514066 -0.05729510
v 0.00278073 0.04715177 -0.05653405
v -0.00142095 0.04830293 -0.05588948
v -0.00545926 0.04858525 -0.05540412
v -0.01430469 0.04650800 -0.05477982
v -0.01856520 0.04404499 -0.05471719
v -0.02246290 0.04071601 -0.05483501
v -0.02604472 -0.00682864 -0.06218500
v -0.02281017 -0.01039866 -0.06311811
v -0.01915042 -0.01318727 -0.06397028
v -0.01093855 -0.01625153 -0.06536261
v -0.00216175 -0.01578785 -0.06624211
v 0.01801854 0.01096887 -0.06408221
v -0.00860282 -0.01499922 -0.06541290
v 0.01409082 -0.04567922 0.05149818
v 0.01407934 -0.04570892 0.05148964
v 0.01699491 -0.03326783 -0.04552383
v 0.01715706 -0.03331272 -0.04542289
v 0.01730736 -0.03335861 -0.04531310
v 0.01746638 -0.03341223 -0.04517853
v 0.01761632 -0.03346895 -0.04502782
v 0.01779050 -0.03354475 -0.04481458
v 0.01815194 -0.03376924 -0.04411444
v 0.01827724 -0.03393561 -0.04353359
v 0.01999842 -0.03757969 -0.02709325
v 0.01968266 -0.03704054 -0.03003413
v 0.01914926 -0.03601098 -0.03507099
v 0.01846141 -0.03442033 -0.04171931
v 0.01391563 -0.04596684 0.05125568
v 0.01389101 -0.04597988 0.05122134
v 0.01485198 -0.04588629 0.05005424
v 0.01394706 -0.04594393 0.05129973
v 0.01500334 -0.04578443 0.05016909
v 0.01403945 -0.04581880 0.05143113
v 0.01402520 -0.04584609 0.05141060
v 0.01563053 -0.04575060 0.04871727
v 0.01391213 -0.04581702 0.05149322
v 0.01381834 -0.04596546 0.05130308
v 0.01286607 -0.04594589 0.05172440
v 0.01294878 -0.04579723 0.05191945
v 0.01087171 -0.04587025 0.05238051
v 0.01093120 -0.04572070 0.05258320
v 0.00881044 -0.04574754 0.05276788
v 0.00884590 -0.04559656 0.05297508
v 0.00673088 -0.04558479 0.05290444
v 0.00674823 -0.04543240 0.05311292
v 0.01870549 0.00831985 0.06159126
v 0.01692014 0.00829406 0.06278902
v 0.01490261 0.00835884 0.06352939
v 0.01507598 0.00439531 0.06278627
v 0.01651329 0.00435581 0.06221545
v 0.01484568 0.03115248 0.06723854
v 0.01591216 0.03106807 0.06717470
v 0.01696482 0.03100433 0.06698384
v 0.01742421 0.03098289 0.06685891
v 0.01886152 0.03094339 0.06628809
v 0.02018042 0.03095075 0.06547958
v 0.01896771 0.03094228 0.06623407
v 0.02134083 0.03100476 0.06445792
v 0.02073794 0.03096995 0.06503279
v 0.01595546 0.03169230 0.06717186
v 0.02017664 0.03157628 0.06549543
v 0.01745083 0.03160807 0.06685956
v 0.01887228 0.03156900 0.06629504
v 0.03377206 0.00692193 -0.01421013
v 0.03380124 0.00743570 -0.01426619
v 0.03379399 0.00785461 -0.01457019
v 0.03375225 0.00806641 -0.01504066
v 0.03072749 -0.02754996 -0.01949049
v 0.03069112 -0.02787845 -0.01960199
v 0.03063558 -0.02819577 -0.01987953
v 0.03057735 -0.02836744 -0.02026418
v 0.03053509 -0.02837687 -0.02061028
v 0.02802134 -0.02325861 -0.04450250
v 0.02860844 -0.02483649 -0.03869988
v 0.02924416 -0.02624131 -0.03259338
v 0.02981670 -0.02728897 -0.02722031
v 0.02797099 -0.02297847 -0.04508443
v 0.02794531 -0.02240771 -0.04563008
v 0.02796257 -0.02167103 -0.04591494
v 0.02800697 -0.02102478 -0.04592147
v 0.03077305 0.01029394 -0.04112412
v 0.03116055 0.01194388 -0.03885971
v 0.03106559 0.01191623 -0.03963378
v 0.03095859 0.01159297 -0.04033593
v 0.03085587 0.01102329 -0.04085927
v -0.00173772 -0.05267012 0.03413334
v -0.00149507 -0.05219211 0.03587421
v -0.00375847 -0.05187777 0.03609357
v -0.00201169 -0.05297309 0.03203012
v -0.00180755 -0.05277241 0.03361184
v -0.00329289 -0.05283095 0.03218013
v -0.00406774 -0.05245210 0.03385450
v -0.00426977 -0.05265072 0.03228906
v -0.00559756 -0.05230197 0.03242925
v -0.00626597 -0.05181487 0.03403230
v -0.00646174 -0.05200733 0.03251537
v -0.00780198 -0.05143632 0.03264027
v -0.00835700 -0.05087383 0.03414160
v -0.00854248 -0.05105618 0.03270439
v -0.01029778 -0.04964836 0.03418013
v -0.00985749 -0.05025311 0.03280855
v -0.01204836 -0.04816367 0.03414712
v -0.01171867 -0.04877848 0.03293037
v -0.00145158 -0.05208717 0.03617508
v -0.00596629 -0.05125834 0.03620199
v -0.00807307 -0.05034655 0.03619725
v -0.01003545 -0.04916118 0.03607942
v -0.01181303 -0.04772664 0.03585096
v -0.00450106 -0.04223396 -0.03252595
v -0.00564528 -0.04241718 -0.03249888
v -0.00692430 -0.04145444 -0.03453334
v -0.00674750 -0.04252059 -0.03244215
v -0.00788575 -0.04255319 -0.03235243
v -0.00918265 -0.04143477 -0.03434580
v -0.00900406 -0.04251172 -0.03223342
v -0.01028263 -0.04237352 -0.03205926
v -0.01140226 -0.04114139 -0.03399515
v -0.01122546 -0.04220754 -0.03190395
v -0.01256891 -0.04187205 -0.03164111
v -0.01353860 -0.04058018 -0.03348840
v -0.01336714 -0.04161413 -0.03146035
v -0.01473776 -0.04105962 -0.03110312
v -0.00705888 -0.04008998 -0.03644676
v -0.00931860 -0.04005649 -0.03627861
v -0.01153684 -0.03977692 -0.03590856
v -0.01025911 -0.05045882 0.02958659
v -0.00241964 -0.05318204 0.02875734
v -0.00370069 -0.05303982 0.02890858
v -0.00450145 -0.05322443 0.02235338
v -0.00322071 -0.05336672 0.02219968
v -0.00528094 -0.05309791 0.01579424
v -0.00400049 -0.05324015 0.01563808
v -0.00603741 -0.05266056 0.00924579
v -0.00475725 -0.05280264 0.00908715
v -0.00676919 -0.05191334 0.00272259
v -0.00548930 -0.05205514 0.00256151
v -0.00747463 -0.05085792 -0.00376080
v -0.00619500 -0.05099932 -0.00392431
v -0.00815217 -0.04949665 -0.01018993
v -0.00687280 -0.04963754 -0.01035587
v -0.00880030 -0.04783256 -0.01655048
v -0.00752117 -0.04797282 -0.01671881
v -0.00941757 -0.04586937 -0.02282828
v -0.00813867 -0.04600890 -0.02299897
v -0.01000261 -0.04361145 -0.02900933
v -0.00872393 -0.04375013 -0.02918234
v -0.01228962 -0.04310673 -0.02859920
v -0.01445990 -0.04228800 -0.02807673
v -0.01211637 -0.04898218 0.02973987
v -0.00820664 -0.05164358 0.02939398
v -0.00600429 -0.05251029 0.02916630
v -0.00680294 -0.05269441 0.02262836
v -0.00758038 -0.05256823 0.01608648
v -0.00833486 -0.05213203 0.00955525
v -0.00906471 -0.05138677 0.00304922
v -0.00976830 -0.05033413 -0.00341711
v -0.01044405 -0.04897644 -0.00982932
v -0.01109048 -0.04731673 -0.01617314
v -0.01170612 -0.04535871 -0.02243442
v -0.00900122 -0.05182676 0.02288940
v -0.00977469 -0.05170122 0.01638091
v -0.01052532 -0.05126724 0.00988301
v -0.01125144 -0.05052579 0.00341018
v -0.01195144 -0.04947852 -0.00302314
v -0.01262375 -0.04812776 -0.00940264
v -0.01326687 -0.04647652 -0.01571408
v -0.01387938 -0.04452849 -0.02194341
v -0.01104774 -0.05064063 0.02313075
v -0.01181541 -0.05051603 0.01667103
v -0.01256042 -0.05008530 0.01022182
v -0.01328110 -0.04934941 0.00379750
v -0.01397585 -0.04830998 -0.00258762
v -0.01464312 -0.04696935 -0.00891931
v -0.01528142 -0.04533048 -0.01518346
v -0.01289730 -0.04916221 0.02334707
v -0.01365747 -0.04903883 0.01695043
v -0.01439521 -0.04861231 0.01056420
v -0.01510885 -0.04788360 0.00420262
v -0.01579682 -0.04685433 -0.00212015
v -0.00761887 -0.04373548 -0.02944415
v -0.00089536 -0.05301160 0.03189296
v -0.00096244 -0.05305111 0.03135775
v 0.00026431 -0.05296794 0.03174413
v 0.00126243 -0.05289143 0.03106769
v 0.00344026 -0.05241948 0.03076108
v 0.00251312 -0.05263575 0.03143676
v 0.00132937 -0.05285201 0.03160170
v 0.00552801 -0.05164459 0.03044399
v 0.00468853 -0.05198332 0.03111435
v 0.00350690 -0.05238024 0.03129270
v 0.00674581 -0.05102409 0.03078350
v 0.00559420 -0.05160561 0.03097207
v -0.00537899 -0.04359680 -0.02959717
v -0.00700504 -0.04610390 -0.02295932
v -0.00476655 -0.04595988 -0.02312695
v -0.00256175 -0.04551894 -0.02319114
v -0.00495741 -0.05124291 -0.00293323
v -0.00567268 -0.04986223 -0.00968758
v -0.00272353 -0.05108731 -0.00314600
v -0.00343719 -0.04970974 -0.00988513
v -0.00052787 -0.05062344 -0.00329956
v -0.00123834 -0.04925202 -0.01000855
v 0.00158618 -0.04986045 -0.00339089
v 0.00088042 -0.04849812 -0.01005540
v -0.00635578 -0.04814782 -0.01636841
v -0.00411875 -0.04799920 -0.01655090
v -0.00191685 -0.04754913 -0.01664450
v -0.00181082 -0.05337319 0.02448638
v 0.00041597 -0.05321279 0.02421181
v 0.00259758 -0.05273940 0.02393587
v 0.00469091 -0.05196239 0.02366401
v 0.00665459 -0.05089711 0.02340161
v -0.00263650 -0.05335294 0.01760473
v -0.00040785 -0.05319259 0.01734567
v 0.00177745 -0.05271930 0.01710045
v 0.00387622 -0.05194241 0.01687390
v 0.00584697 -0.05087730 0.01667050
v -0.00343745 -0.05299041 0.01072969
v -0.00421172 -0.05228649 0.00387810
v -0.00120700 -0.05283087 0.01048612
v -0.00197953 -0.05212854 0.00364997
v 0.00098188 -0.05235920 0.01027158
v 0.00021281 -0.05166001 0.00346601
v 0.00308592 -0.05158471 0.01009030
v 0.00232195 -0.05089015 0.00332984
v 0.00493750 -0.05170799 0.03302568
v 0.00277588 -0.05234516 0.03345397
v 0.00053546 -0.05266808 0.03382574
v 0.00081867 -0.05209113 0.03584649
f 710 539 709
f 793 797 794
f 724 533 723
f 716 724 723
f 722 720 723
f 535 533 622
f 622 606 535
f 348 237 232
f 241 243 242
f 468 217 505
f 505 506 468
f 179 181 178
f 181 179 358
f 181 358 357
f 645 639 644
f 715 460 732
f 733 460 715
f 733 715 734
f 607 606 622
f 607 600 606
f 20 179 16
f 509 500 736
f 509 490 500
f 475 506 471
f 471 476 475
f 717 742 720
f 720 719 717
f 717 648 718
f 717 719 648
f 742 717 713
f 455 220 505
f 370 381 232
f 536 535 606
f 810 535 536
f 576 793 794
f 794 580 576
f 10 691 787
f 386 370 371
f 318 320 319
f 232 381 350
f 350 348 232
f 241 242 240
f 240 242 550
f 286 288 304
f 288 286 287
f 304 288 306
f 306 288 308
f 308 309 306
f 308 288 290
f 298 282 300
f 278 294 276
f 329 337 367
f 327 337 329
f 617 616 605
f 628 616 617
f 156 40 59
f 470 506 475
f 379 216 449
f 449 216 334
f 468 478 450
f 217 468 450
f 450 216 217
f 295 357 358
f 534 535 810
f 810 809 534
f 464 465 461
f 723 720 741
f 741 716 723
f 500 506 738
f 720 742 738
f 738 741 720
f 739 714 738
f 736 500 738
f 738 737 736
f 738 713 739
f 742 713 738
f 738 494 737
f 714 494 738
f 462 460 733
f 733 734 462
f 712 734 715
f 715 741 712
f 741 738 712
f 780 358 179
f 179 20 780
f 780 20 781
f 359 358 780
f 626 629 622
f 716 629 626
f 724 716 626
f 622 533 626
f 533 724 626
f 621 607 622
f 622 629 621
f 621 629 631
f 507 499 473
f 473 474 507
f 474 506 507
f 720 722 721
f 721 655 720
f 722 655 721
f 720 655 649
f 649 719 720
f 648 719 649
f 654 647 648
f 648 649 654
f 654 649 655
f 718 648 643
f 648 647 643
f 472 506 474
f 472 471 506
f 472 474 473
f 491 714 739
f 736 737 493
f 493 509 736
f 490 509 493
f 740 717 718
f 740 713 717
f 505 217 218
f 218 455 505
f 217 455 218
f 217 216 456
f 456 455 217
f 456 216 379
f 739 713 853
f 496 491 511
f 813 811 810
f 794 811 796
f 786 9 785
f 781 20 5
f 5 20 16
f 797 793 577
f 793 576 577
f 577 580 539
f 577 576 580
f 522 524 598
f 598 524 573
f 573 522 539
f 524 522 573
f 526 554 558
f 361 311 360
f 309 311 361
f 355 184 183
f 239 549 553
f 235 236 237
f 235 318 241
f 320 318 235
f 235 237 344
f 344 320 235
f 223 278 276
f 233 240 550
f 241 240 233
f 233 235 241
f 302 300 282
f 284 282 283
f 284 302 282
f 284 286 304
f 304 302 284
f 307 306 309
f 309 361 307
f 304 306 307
f 288 287 289
f 289 290 288
f 289 319 291
f 280 282 298
f 298 278 280
f 296 278 298
f 294 278 296
f 296 295 294
f 268 269 264
f 253 541 540
f 366 329 367
f 366 171 365
f 328 366 365
f 329 366 328
f 327 329 328
f 339 337 327
f 339 340 338
f 332 333 322
f 291 333 332
f 321 320 344
f 344 345 321
f 319 320 321
f 291 319 321
f 321 333 291
f 322 333 321
f 321 345 322
f 347 345 344
f 322 345 347
f 613 620 614
f 638 620 613
f 569 586 563
f 617 615 627
f 627 628 617
f 627 614 620
f 615 614 627
f 627 620 623
f 625 628 627
f 386 566 619
f 619 566 616
f 616 628 619
f 728 730 729
f 728 741 715
f 728 729 623
f 157 40 156
f 477 478 468
f 448 450 478
f 469 468 506
f 506 470 469
f 469 470 475
f 475 477 469
f 469 477 468
f 379 449 380
f 380 449 334
f 215 448 447
f 216 450 215
f 450 448 215
f 447 448 442
f 442 215 447
f 33 32 442
f 442 448 478
f 216 443 444
f 334 216 398
f 216 444 398
f 367 337 335
f 365 171 204
f 204 312 365
f 203 312 204
f 360 311 313
f 313 203 360
f 313 312 203
f 293 358 359
f 293 295 358
f 294 295 293
f 293 260 294
f 676 675 685
f 794 797 801
f 801 682 805
f 801 811 794
f 676 685 680
f 680 685 679
f 708 682 709
f 709 539 708
f 705 680 706
f 706 680 679
f 694 699 705
f 538 699 702
f 539 522 702
f 699 694 702
f 702 522 598
f 702 706 539
f 702 595 538
f 705 706 702
f 702 694 705
f 525 586 711
f 711 586 691
f 705 699 704
f 699 700 704
f 811 801 807
f 810 811 807
f 807 809 810
f 669 534 809
f 660 667 659
f 659 654 660
f 467 370 386
f 381 370 467
f 463 461 460
f 460 462 463
f 464 461 463
f 463 459 464
f 503 738 506
f 503 712 738
f 502 462 501
f 462 712 501
f 501 503 502
f 712 503 501
f 735 462 734
f 734 712 735
f 735 712 462
f 632 631 726
f 632 634 631
f 359 780 261
f 261 293 359
f 260 293 261
f 499 507 508
f 500 490 508
f 490 499 508
f 508 506 500
f 508 507 506
f 473 499 482
f 482 472 473
f 476 471 482
f 471 472 482
f 33 442 481
f 481 442 478
f 156 59 155
f 653 654 659
f 647 654 653
f 749 748 640
f 640 750 749
f 644 639 640
f 492 494 714
f 714 491 492
f 492 496 494
f 491 496 492
f 531 713 641
f 713 740 641
f 647 646 641
f 641 646 644
f 644 640 641
f 466 465 464
f 466 467 465
f 220 455 219
f 505 220 219
f 455 456 454
f 454 219 455
f 458 462 502
f 502 503 458
f 458 503 459
f 458 463 462
f 459 463 458
f 852 713 531
f 852 853 713
f 854 491 739
f 739 853 854
f 511 491 854
f 901 515 902
f 901 902 893
f 810 536 814
f 814 813 810
f 536 813 814
f 812 536 811
f 811 813 812
f 812 813 536
f 811 536 599
f 599 796 811
f 599 536 606
f 794 796 795
f 795 580 794
f 600 580 795
f 606 600 795
f 795 599 606
f 796 599 795
f 784 783 778
f 791 783 784
f 790 786 785
f 790 560 547
f 7 8 779
f 779 778 7
f 784 778 779
f 13 695 696
f 9 786 18
f 781 5 3
f 3 5 6
f 16 179 4
f 4 5 16
f 4 179 178
f 521 539 797
f 797 577 521
f 521 577 539
f 760 759 761
f 698 759 764
f 698 761 759
f 788 787 569
f 569 560 788
f 788 790 785
f 560 790 788
f 10 787 788
f 572 586 525
f 691 586 594
f 594 586 569
f 594 787 691
f 569 787 594
f 591 699 538
f 570 592 591
f 591 592 699
f 587 573 539
f 587 582 573
f 11 698 10
f 9 13 11
f 11 13 696
f 550 242 551
f 551 549 550
f 553 549 551
f 244 242 243
f 244 551 242
f 540 541 543
f 543 544 540
f 541 544 543
f 545 544 541
f 228 227 545
f 546 544 545
f 545 791 546
f 558 566 529
f 529 526 558
f 371 526 529
f 529 566 386
f 386 371 529
f 231 370 232
f 205 206 177
f 353 364 441
f 184 355 354
f 354 174 184
f 353 174 354
f 237 236 238
f 238 239 237
f 236 549 238
f 549 239 238
f 222 258 266
f 266 223 222
f 222 257 258
f 550 549 234
f 234 233 550
f 234 549 236
f 236 235 234
f 235 233 234
f 303 364 353
f 303 302 304
f 316 318 319
f 241 318 316
f 283 275 285
f 285 275 287
f 285 287 286
f 285 284 283
f 286 284 285
f 273 275 283
f 287 275 315
f 315 289 287
f 283 282 281
f 295 296 297
f 357 295 297
f 297 296 298
f 228 545 255
f 255 545 541
f 340 339 341
f 341 327 325
f 341 339 327
f 325 327 324
f 324 332 322
f 330 313 311
f 312 313 330
f 365 312 330
f 330 328 365
f 308 290 292
f 291 332 292
f 292 289 291
f 290 289 292
f 346 347 344
f 348 347 346
f 344 237 346
f 237 348 346
f 349 347 348
f 348 350 349
f 613 614 602
f 561 560 569
f 547 560 561
f 546 547 561
f 561 544 546
f 589 614 615
f 589 602 614
f 589 615 617
f 617 605 588
f 588 589 617
f 624 627 623
f 625 627 624
f 624 730 625
f 623 729 624
f 729 730 624
f 389 461 465
f 625 730 731
f 731 715 732
f 731 728 715
f 730 728 731
f 716 741 725
f 741 728 725
f 725 728 727
f 725 727 726
f 725 629 716
f 726 631 725
f 631 629 725
f 727 728 636
f 446 443 216
f 216 215 446
f 215 442 446
f 446 442 37
f 446 444 443
f 37 444 446
f 35 32 33
f 203 170 169
f 170 168 169
f 360 203 169
f 169 361 360
f 169 168 361
f 361 168 207
f 207 206 363
f 177 206 207
f 207 170 177
f 207 168 170
f 88 104 83
f 83 104 37
f 91 82 83
f 453 444 37
f 37 104 453
f 451 421 398
f 451 149 151
f 151 421 451
f 151 149 150
f 150 26 173
f 151 150 172
f 173 171 172
f 172 150 173
f 172 366 367
f 171 366 172
f 367 335 403
f 403 172 367
f 853 852 840
f 689 685 686
f 688 685 689
f 679 685 688
f 688 683 679
f 682 683 688
f 805 682 688
f 804 688 689
f 805 688 804
f 804 801 805
f 802 804 803
f 806 807 802
f 802 807 801
f 801 804 802
f 690 804 689
f 803 804 690
f 689 686 690
f 690 686 687
f 709 682 681
f 799 710 709
f 684 683 682
f 682 708 684
f 707 708 539
f 539 706 707
f 707 706 679
f 707 684 708
f 575 702 598
f 595 702 575
f 598 573 575
f 699 592 537
f 537 592 570
f 693 700 699
f 693 711 691
f 699 537 693
f 693 537 570
f 674 704 675
f 674 675 676
f 651 687 645
f 644 650 651
f 651 645 644
f 666 807 806
f 806 665 666
f 667 807 666
f 659 667 666
f 664 656 663
f 656 665 663
f 663 802 803
f 663 665 806
f 806 802 663
f 663 690 664
f 803 690 663
f 658 665 656
f 658 653 659
f 659 666 658
f 658 666 665
f 809 807 808
f 808 669 809
f 808 807 667
f 534 669 532
f 723 533 532
f 533 535 532
f 535 534 532
f 504 506 505
f 504 503 506
f 459 503 504
f 505 219 504
f 610 587 601
f 635 610 630
f 631 634 630
f 630 634 635
f 630 621 631
f 479 481 483
f 476 482 483
f 483 482 479
f 475 476 483
f 483 477 475
f 478 477 483
f 483 481 478
f 152 155 59
f 33 481 152
f 152 62 33
f 152 61 62
f 652 646 647
f 647 653 652
f 652 650 644
f 644 646 652
f 653 658 652
f 652 656 650
f 652 658 656
f 746 640 747
f 747 640 748
f 747 840 746
f 647 641 642
f 642 641 740
f 642 740 718
f 718 643 642
f 642 643 647
f 377 456 379
f 379 380 377
f 377 380 334
f 337 339 336
f 336 339 338
f 334 335 336
f 336 335 337
f 382 466 383
f 467 466 382
f 381 467 382
f 382 383 352
f 382 350 381
f 219 454 457
f 459 504 457
f 464 459 457
f 457 466 464
f 457 454 466
f 373 336 338
f 514 902 515
f 846 854 853
f 511 854 846
f 817 833 517
f 737 494 495
f 495 493 737
f 479 482 486
f 486 482 499
f 486 499 490
f 15 768 744
f 744 13 15
f 9 8 15
f 15 13 9
f 763 768 760
f 792 791 784
f 784 786 792
f 546 791 792
f 786 790 792
f 792 547 546
f 792 790 547
f 2 779 8
f 2 18 786
f 2 8 9
f 9 18 2
f 744 695 743
f 743 13 744
f 695 13 743
f 782 778 783
f 7 778 782
f 783 791 782
f 701 691 10
f 10 698 701
f 701 698 764
f 276 294 221
f 294 260 221
f 257 222 221
f 221 223 276
f 221 222 223
f 10 788 17
f 17 11 10
f 571 563 586
f 586 572 571
f 571 572 570
f 604 587 610
f 578 587 539
f 578 601 587
f 697 11 696
f 698 11 697
f 697 763 760
f 696 763 697
f 760 761 697
f 761 698 697
f 775 788 785
f 785 9 775
f 248 551 249
f 551 244 249
f 243 248 249
f 249 244 243
f 258 257 789
f 789 545 258
f 791 545 789
f 789 780 781
f 789 261 780
f 781 782 789
f 789 782 791
f 553 526 542
f 542 231 553
f 237 239 230
f 232 237 230
f 230 231 232
f 230 239 553
f 553 231 230
f 370 231 368
f 206 205 432
f 363 206 432
f 432 364 363
f 440 441 364
f 353 354 301
f 301 303 353
f 298 300 301
f 300 302 301
f 302 303 301
f 364 303 305
f 363 364 305
f 305 307 363
f 304 307 305
f 305 303 304
f 274 315 275
f 271 268 270
f 269 268 271
f 271 273 283
f 283 281 271
f 319 289 317
f 289 315 317
f 317 316 319
f 317 315 316
f 279 280 278
f 282 280 279
f 279 281 282
f 264 269 279
f 269 271 279
f 279 271 281
f 357 297 356
f 356 297 355
f 356 355 183
f 183 181 356
f 181 357 356
f 264 223 265
f 265 223 266
f 258 545 259
f 545 224 259
f 266 258 259
f 259 224 266
f 552 551 248
f 553 551 552
f 540 544 552
f 544 561 552
f 541 253 256
f 256 255 541
f 256 253 228
f 228 255 256
f 263 251 268
f 263 268 264
f 228 253 254
f 254 253 540
f 270 268 247
f 268 251 247
f 247 248 243
f 340 341 342
f 352 383 342
f 332 324 331
f 331 292 332
f 328 330 331
f 331 330 311
f 347 349 343
f 343 342 341
f 343 349 352
f 352 342 343
f 343 341 325
f 569 563 562
f 562 561 569
f 563 561 562
f 548 568 557
f 557 568 588
f 557 588 605
f 616 566 557
f 557 605 616
f 567 566 558
f 558 559 567
f 567 557 566
f 559 557 567
f 388 389 465
f 388 467 386
f 465 467 388
f 732 460 393
f 460 461 393
f 625 731 618
f 618 628 625
f 618 619 628
f 727 636 633
f 633 636 634
f 726 727 633
f 633 632 726
f 634 632 633
f 634 636 637
f 637 728 623
f 637 636 728
f 623 620 637
f 620 638 637
f 635 634 637
f 637 638 635
f 58 59 40
f 167 907 160
f 160 157 156
f 24 23 158
f 24 160 907
f 158 157 24
f 157 160 24
f 906 24 907
f 908 907 167
f 908 515 901
f 32 35 34
f 34 442 32
f 37 442 34
f 198 193 185
f 178 181 180
f 362 207 363
f 361 207 362
f 363 307 362
f 362 307 361
f 879 880 825
f 88 83 90
f 90 83 82
f 90 91 88
f 90 82 91
f 91 83 73
f 73 83 37
f 129 104 88
f 88 87 129
f 452 104 149
f 149 451 452
f 452 451 104
f 445 398 444
f 445 451 398
f 444 453 445
f 445 453 104
f 104 451 445
f 158 23 159
f 159 25 158
f 23 192 159
f 173 26 199
f 26 25 199
f 395 335 396
f 418 172 413
f 413 410 418
f 418 410 335
f 335 395 418
f 413 172 414
f 172 403 414
f 932 754 753
f 753 673 932
f 745 640 746
f 746 840 745
f 745 840 640
f 530 840 852
f 531 641 530
f 530 852 531
f 530 641 640
f 640 840 530
f 924 925 936
f 934 923 924
f 672 686 685
f 672 685 675
f 675 673 672
f 753 754 672
f 672 673 753
f 798 801 797
f 798 799 801
f 710 799 798
f 797 539 798
f 539 710 798
f 682 801 800
f 801 799 800
f 800 681 682
f 709 681 800
f 800 799 709
f 679 683 678
f 683 684 678
f 678 707 679
f 684 707 678
f 597 591 538
f 570 591 597
f 597 575 570
f 574 575 573
f 523 572 525
f 525 711 523
f 711 693 523
f 570 572 593
f 593 693 570
f 572 523 593
f 593 523 693
f 705 704 677
f 704 674 677
f 677 680 705
f 676 680 677
f 677 674 676
f 687 651 657
f 657 690 687
f 650 656 657
f 657 651 650
f 657 656 664
f 664 690 657
f 668 808 667
f 669 808 668
f 621 630 609
f 610 601 609
f 609 630 610
f 480 481 479
f 480 152 481
f 456 377 375
f 375 454 456
f 375 373 454
f 378 336 375
f 351 349 350
f 350 382 351
f 352 349 351
f 351 382 352
f 214 504 219
f 219 457 214
f 214 457 504
f 383 466 384
f 466 454 384
f 384 342 383
f 340 342 384
f 513 514 165
f 513 164 511
f 513 165 164
f 511 903 513
f 902 514 513
f 513 903 902
f 156 155 161
f 155 162 161
f 161 160 156
f 167 160 161
f 885 886 866
f 893 886 885
f 868 886 887
f 866 886 868
f 894 893 902
f 894 886 893
f 853 840 843
f 843 846 853
f 849 850 511
f 511 846 849
f 757 759 760
f 512 496 511
f 511 164 512
f 164 498 512
f 488 495 497
f 496 512 497
f 497 512 498
f 494 496 497
f 497 495 494
f 490 493 489
f 493 495 489
f 489 495 488
f 489 486 490
f 6 5 12
f 5 4 12
f 12 4 178
f 14 770 768
f 768 15 14
f 14 12 770
f 14 8 7
f 14 15 8
f 7 6 14
f 6 12 14
f 744 768 765
f 768 763 765
f 784 779 776
f 779 2 776
f 776 786 784
f 776 2 786
f 781 3 777
f 777 782 781
f 3 782 777
f 19 6 7
f 19 3 6
f 703 941 675
f 700 941 703
f 675 704 703
f 703 704 700
f 946 945 675
f 675 941 946
f 815 817 821
f 260 261 262
f 262 221 260
f 257 221 262
f 261 789 262
f 262 789 257
f 589 588 581
f 581 571 570
f 570 575 581
f 575 574 581
f 611 610 635
f 611 604 610
f 539 580 579
f 579 578 539
f 579 580 600
f 601 578 608
f 600 607 608
f 608 609 601
f 608 579 600
f 578 579 608
f 607 621 608
f 621 609 608
f 11 17 1
f 9 11 1
f 1 775 9
f 1 17 788
f 788 775 1
f 369 526 371
f 369 371 370
f 370 368 369
f 369 368 231
f 369 542 526
f 231 542 369
f 430 205 364
f 175 174 424
f 424 174 353
f 353 441 437
f 437 435 353
f 441 426 437
f 439 440 364
f 427 205 175
f 175 426 427
f 427 426 441
f 441 440 427
f 299 354 355
f 299 301 354
f 355 297 299
f 299 297 298
f 298 301 299
f 314 243 241
f 314 274 243
f 241 316 314
f 316 315 314
f 315 274 314
f 278 223 277
f 277 279 278
f 277 223 264
f 264 279 277
f 246 552 248
f 245 552 246
f 248 247 246
f 246 247 245
f 548 557 555
f 555 557 559
f 555 561 548
f 555 552 561
f 555 526 553
f 554 526 555
f 558 554 555
f 555 559 558
f 225 545 227
f 225 224 545
f 251 263 267
f 267 265 266
f 264 265 267
f 267 263 264
f 252 254 540
f 251 254 252
f 270 247 272
f 243 274 272
f 272 247 243
f 272 271 270
f 273 271 272
f 275 273 272
f 272 274 275
f 326 324 327
f 326 331 324
f 327 328 326
f 328 331 326
f 308 292 310
f 292 331 310
f 310 331 311
f 310 309 308
f 310 311 309
f 322 347 323
f 347 343 323
f 323 343 325
f 325 324 323
f 323 324 322
f 588 568 565
f 565 581 588
f 565 568 548
f 565 561 563
f 548 561 565
f 619 388 528
f 461 389 392
f 392 393 461
f 732 393 392
f 392 731 732
f 392 618 731
f 389 388 390
f 390 388 619
f 619 618 390
f 59 58 60
f 60 152 59
f 61 152 60
f 61 60 57
f 57 60 58
f 33 62 63
f 63 64 33
f 904 192 905
f 23 24 22
f 24 906 22
f 906 905 22
f 22 192 23
f 22 905 192
f 202 171 173
f 202 204 171
f 173 199 202
f 202 199 213
f 203 204 202
f 202 170 203
f 202 213 170
f 170 213 194
f 37 34 36
f 193 198 211
f 178 180 208
f 208 12 178
f 190 12 208
f 188 190 196
f 196 187 188
f 197 187 196
f 823 880 822
f 823 825 880
f 822 821 823
f 821 817 824
f 824 823 821
f 825 823 824
f 186 198 185
f 197 198 186
f 186 187 197
f 37 36 31
f 31 34 35
f 31 36 34
f 92 89 91
f 92 93 89
f 130 150 149
f 130 133 134
f 26 150 130
f 200 194 213
f 25 159 191
f 191 199 25
f 191 159 192
f 192 200 191
f 213 199 191
f 191 200 213
f 394 410 413
f 413 414 394
f 394 414 403
f 931 932 930
f 936 756 931
f 931 929 936
f 930 929 931
f 639 645 752
f 936 925 752
f 752 756 936
f 887 888 870
f 870 868 887
f 954 673 675
f 954 932 673
f 934 929 927
f 928 929 930
f 840 841 842
f 844 843 842
f 842 843 840
f 909 841 922
f 922 924 909
f 909 924 923
f 909 842 841
f 844 842 909
f 750 922 838
f 839 841 840
f 839 747 748
f 840 747 839
f 839 748 749
f 922 841 839
f 839 838 922
f 749 750 839
f 750 838 839
f 935 924 936
f 934 924 935
f 936 929 935
f 935 929 934
f 687 686 671
f 686 672 671
f 671 672 754
f 595 575 596
f 575 597 596
f 538 595 596
f 596 597 538
f 667 660 661
f 661 668 667
f 669 668 661
f 661 655 722
f 661 654 655
f 661 660 654
f 154 162 155
f 155 152 154
f 152 480 154
f 378 375 376
f 376 375 377
f 376 377 334
f 334 336 376
f 376 336 378
f 336 373 374
f 373 375 374
f 454 373 385
f 385 384 454
f 340 384 385
f 338 340 385
f 385 373 338
f 166 908 167
f 167 161 166
f 166 514 515
f 165 514 166
f 166 162 165
f 166 161 162
f 902 903 895
f 895 894 902
f 895 903 511
f 511 896 895
f 887 886 895
f 886 894 895
f 895 888 887
f 895 896 888
f 888 896 876
f 845 847 846
f 845 843 844
f 846 843 845
f 850 876 877
f 877 876 896
f 766 757 760
f 772 12 190
f 770 12 772
f 744 765 762
f 762 765 763
f 762 763 696
f 762 695 744
f 696 695 762
f 7 782 21
f 21 19 7
f 21 782 3
f 3 19 21
f 692 941 700
f 692 920 941
f 700 693 692
f 692 693 691
f 691 920 692
f 691 701 921
f 921 920 691
f 921 701 764
f 822 880 857
f 860 859 858
f 859 857 858
f 833 817 816
f 817 815 816
f 861 859 860
f 604 611 584
f 434 430 364
f 431 432 205
f 205 430 431
f 175 424 423
f 353 435 436
f 436 424 353
f 436 423 424
f 436 435 175
f 175 423 436
f 175 435 422
f 435 437 422
f 425 426 175
f 425 437 426
f 175 422 425
f 425 422 437
f 364 205 438
f 438 439 364
f 440 439 428
f 428 427 440
f 205 427 428
f 553 552 556
f 556 555 553
f 552 555 556
f 251 267 229
f 229 227 228
f 228 254 229
f 229 254 251
f 226 225 227
f 227 229 226
f 226 229 267
f 224 225 226
f 266 224 226
f 226 267 266
f 251 252 250
f 245 247 250
f 250 247 251
f 250 552 245
f 540 552 250
f 250 252 540
f 571 581 564
f 581 565 564
f 563 571 564
f 564 565 563
f 386 619 387
f 619 528 387
f 387 388 386
f 387 528 388
f 389 618 391
f 391 392 389
f 618 392 391
f 527 618 389
f 389 390 527
f 527 390 618
f 62 61 56
f 61 57 56
f 33 64 30
f 72 35 33
f 893 885 884
f 884 885 866
f 866 864 884
f 884 864 862
f 899 905 906
f 899 906 907
f 882 862 860
f 193 211 212
f 212 194 193
f 177 170 212
f 170 194 212
f 176 205 177
f 175 205 176
f 177 212 176
f 176 212 211
f 176 174 175
f 184 174 176
f 190 208 209
f 209 196 190
f 209 208 180
f 197 196 209
f 834 824 817
f 834 817 517
f 517 518 834
f 91 73 74
f 74 31 91
f 74 73 37
f 151 419 411
f 406 401 400
f 400 335 334
f 400 401 335
f 417 419 151
f 396 335 402
f 335 401 402
f 131 130 149
f 133 130 131
f 131 132 133
f 26 130 27
f 158 25 27
f 27 25 26
f 91 89 125
f 125 126 91
f 832 831 195
f 195 831 185
f 185 193 195
f 193 194 195
f 201 878 832
f 832 195 201
f 201 200 192
f 194 200 201
f 201 195 194
f 201 192 904
f 904 878 201
f 335 410 397
f 410 394 397
f 397 403 335
f 397 394 403
f 755 931 756
f 755 671 754
f 754 932 755
f 925 924 751
f 751 752 925
f 751 922 750
f 751 924 922
f 639 752 751
f 751 640 639
f 750 640 751
f 871 923 934
f 930 932 952
f 932 954 952
f 952 928 930
f 869 927 867
f 869 867 866
f 866 868 869
f 868 870 869
f 870 871 869
f 934 927 869
f 869 871 934
f 926 927 929
f 929 928 926
f 867 927 926
f 645 687 670
f 687 671 670
f 670 752 645
f 756 752 670
f 670 755 756
f 671 755 670
f 723 532 662
f 662 532 669
f 669 661 662
f 662 722 723
f 662 661 722
f 484 154 480
f 372 375 336
f 336 374 372
f 372 374 375
f 515 908 516
f 516 166 515
f 908 166 516
f 860 862 863
f 863 861 860
f 848 876 850
f 847 876 848
f 846 847 848
f 850 849 848
f 848 849 846
f 844 909 875
f 875 845 844
f 850 877 851
f 510 896 511
f 510 877 896
f 510 851 877
f 511 850 510
f 850 851 510
f 189 772 190
f 189 190 188
f 517 833 773
f 773 518 517
f 770 772 771
f 771 769 770
f 833 769 771
f 771 773 833
f 764 759 955
f 941 920 940
f 945 946 940
f 940 946 941
f 822 857 820
f 820 821 822
f 760 768 767
f 767 766 760
f 768 770 767
f 770 769 767
f 859 861 942
f 942 943 938
f 583 584 582
f 604 584 583
f 582 587 583
f 587 604 583
f 612 584 611
f 603 584 612
f 635 638 612
f 612 611 635
f 612 638 613
f 613 603 612
f 590 603 613
f 590 584 603
f 613 602 590
f 602 589 590
f 430 434 433
f 433 431 430
f 433 434 364
f 364 432 433
f 432 431 433
f 439 438 429
f 429 428 439
f 429 438 205
f 205 428 429
f 55 63 62
f 62 56 55
f 70 69 68
f 41 80 42
f 42 89 41
f 89 93 41
f 79 80 78
f 70 68 78
f 78 68 79
f 28 69 29
f 29 30 28
f 67 69 28
f 28 64 67
f 28 30 64
f 70 72 71
f 71 69 70
f 29 69 71
f 71 30 29
f 33 30 71
f 71 72 33
f 84 92 91
f 91 31 84
f 84 31 35
f 93 92 76
f 893 884 892
f 892 884 891
f 904 905 897
f 897 878 904
f 900 899 907
f 900 908 901
f 907 908 900
f 901 893 900
f 893 892 900
f 891 899 900
f 900 892 891
f 891 884 883
f 883 882 891
f 883 884 862
f 862 882 883
f 860 858 881
f 881 882 860
f 881 857 880
f 881 858 857
f 837 186 185
f 185 831 837
f 183 184 182
f 184 176 182
f 182 181 183
f 182 180 181
f 182 176 211
f 188 187 836
f 187 186 836
f 186 837 836
f 824 834 835
f 835 827 824
f 835 834 518
f 518 189 835
f 835 189 188
f 188 836 835
f 832 878 830
f 825 824 826
f 824 827 826
f 879 825 826
f 37 31 75
f 75 74 37
f 31 74 75
f 398 421 420
f 420 421 151
f 151 411 420
f 404 411 419
f 416 417 151
f 151 172 416
f 172 418 416
f 406 400 405
f 405 417 406
f 419 417 405
f 405 404 419
f 400 404 405
f 104 129 105
f 105 107 104
f 128 129 87
f 128 87 88
f 128 105 129
f 107 105 128
f 88 91 128
f 134 133 146
f 146 113 134
f 932 931 933
f 933 755 932
f 931 755 933
f 949 952 951
f 485 480 479
f 485 484 480
f 479 486 485
f 488 484 485
f 485 489 488
f 486 489 485
f 487 484 488
f 488 497 487
f 487 497 498
f 154 484 487
f 487 498 164
f 950 926 928
f 950 952 949
f 928 952 950
f 926 950 948
f 872 870 888
f 774 189 520
f 772 189 774
f 774 771 772
f 773 771 774
f 520 189 519
f 519 189 518
f 519 774 520
f 518 773 519
f 773 774 519
f 918 921 764
f 764 955 918
f 939 940 918
f 759 757 956
f 956 955 759
f 956 757 758
f 920 921 917
f 917 940 920
f 921 918 917
f 917 918 940
f 856 857 859
f 861 863 947
f 947 942 861
f 863 948 947
f 949 943 947
f 943 942 947
f 947 950 949
f 947 948 950
f 584 590 585
f 573 582 585
f 582 584 585
f 585 574 573
f 585 590 589
f 589 581 585
f 585 581 574
f 64 63 53
f 63 55 53
f 67 64 53
f 79 68 66
f 66 69 67
f 66 68 69
f 80 41 81
f 81 78 80
f 81 41 93
f 93 76 81
f 77 76 92
f 92 84 77
f 86 72 70
f 70 78 86
f 86 77 72
f 76 77 86
f 78 81 86
f 86 81 76
f 905 899 898
f 898 897 905
f 210 209 180
f 180 182 210
f 197 209 210
f 210 182 211
f 210 198 197
f 210 211 198
f 832 830 829
f 829 831 832
f 829 830 827
f 829 837 831
f 829 836 837
f 827 835 829
f 829 835 836
f 878 897 855
f 855 830 878
f 827 830 828
f 828 826 827
f 830 855 828
f 879 826 828
f 828 855 879
f 334 398 412
f 398 420 412
f 412 420 411
f 408 418 409
f 408 416 418
f 408 409 396
f 396 402 408
f 417 416 407
f 407 401 406
f 406 417 407
f 415 402 401
f 415 408 402
f 416 408 415
f 104 107 110
f 110 109 104
f 133 132 147
f 132 111 147
f 147 146 133
f 132 131 148
f 104 109 148
f 149 104 148
f 148 131 149
f 106 110 107
f 109 110 106
f 106 148 109
f 106 111 132
f 132 148 106
f 107 128 108
f 108 106 107
f 135 130 134
f 135 136 130
f 40 157 153
f 153 157 158
f 158 27 153
f 130 138 139
f 140 27 130
f 130 139 140
f 140 153 27
f 112 153 140
f 141 112 140
f 140 139 141
f 953 952 954
f 953 951 952
f 675 945 953
f 953 954 675
f 944 953 945
f 951 953 944
f 944 943 949
f 949 951 944
f 945 940 944
f 944 940 939
f 938 943 944
f 944 939 938
f 163 487 164
f 154 487 163
f 162 154 163
f 164 165 163
f 165 162 163
f 865 948 863
f 862 864 865
f 865 863 862
f 926 948 865
f 867 926 865
f 866 867 865
f 865 864 866
f 873 909 923
f 873 875 909
f 923 871 873
f 873 871 870
f 870 872 873
f 845 875 874
f 847 845 874
f 875 873 874
f 874 873 872
f 874 876 847
f 888 876 874
f 874 872 888
f 758 757 958
f 757 766 958
f 766 767 958
f 958 767 769
f 958 769 833
f 833 816 958
f 919 918 955
f 955 956 919
f 937 856 859
f 937 942 938
f 859 942 937
f 43 89 42
f 43 46 89
f 49 80 79
f 42 80 49
f 49 43 42
f 39 55 56
f 39 56 57
f 39 58 40
f 39 57 58
f 72 77 85
f 85 77 84
f 35 72 85
f 85 84 35
f 890 899 891
f 890 898 899
f 891 882 890
f 897 898 890
f 882 881 890
f 411 404 399
f 399 412 411
f 334 412 399
f 399 400 334
f 399 404 400
f 127 108 128
f 91 126 127
f 127 128 91
f 126 103 127
f 103 108 127
f 101 103 113
f 101 108 103
f 113 146 101
f 101 147 111
f 146 147 101
f 111 106 101
f 106 108 101
f 130 136 137
f 137 138 130
f 141 139 142
f 142 139 138
f 142 112 141
f 121 153 112
f 40 153 121
f 121 89 40
f 113 103 100
f 100 114 113
f 136 135 144
f 134 113 145
f 113 114 145
f 145 135 134
f 145 144 135
f 114 144 145
f 957 956 758
f 758 958 957
f 957 816 815
f 957 958 816
f 939 918 914
f 918 919 914
f 818 820 857
f 857 856 818
f 856 937 911
f 911 818 856
f 910 818 911
f 54 53 55
f 55 39 54
f 897 890 889
f 879 855 889
f 889 855 897
f 889 890 881
f 889 880 879
f 889 881 880
f 122 121 120
f 89 121 122
f 102 100 103
f 126 125 102
f 102 103 126
f 956 957 916
f 819 818 910
f 819 957 815
f 910 957 819
f 820 818 819
f 819 815 821
f 821 820 819
f 67 53 65
f 65 66 67
f 95 121 112
f 120 121 95
f 143 142 138
f 138 137 143
f 143 137 136
f 114 100 99
f 100 102 99
f 94 102 125
f 94 99 102
f 912 957 910
f 912 916 957
f 910 911 912
f 912 937 938
f 912 911 937
f 915 919 956
f 956 916 915
f 915 914 919
f 938 939 915
f 939 914 915
f 53 54 52
f 52 65 53
f 79 66 47
f 66 65 47
f 47 49 79
f 116 143 115
f 115 144 114
f 136 144 115
f 115 143 136
f 114 99 115
f 99 94 115
f 124 94 125
f 124 125 89
f 94 124 123
f 89 122 123
f 123 124 89
f 913 912 938
f 916 912 913
f 938 915 913
f 913 915 916
f 51 52 54
f 65 52 51
f 120 95 96
f 118 97 94
f 94 123 118
f 120 96 118
f 118 96 97
f 118 122 120
f 118 123 122
f 94 97 98
f 98 115 94
f 98 97 116
f 116 115 98
f 38 54 39
f 38 51 54
f 48 47 65
f 65 51 48
f 48 44 47
f 119 96 95
f 112 142 119
f 119 95 112
f 116 97 117
f 97 96 117
f 96 119 117
f 117 119 142
f 142 143 117
f 117 143 116
f 49 47 50
f 47 44 50
f 43 49 50
f 46 43 50
f 50 44 46
f 51 38 45
f 45 48 51
f 44 48 45
f 46 44 45
f 45 38 39
f 45 39 40
f 40 89 45
f 89 46 45
f 418 395 396
f 396 409 418
f 415 407 416
f 401 407 415

