# https://github.com/mikedh/trimesh
v -0.00766422 -0.01210249 -0.03694192
v -0.00751329 -0.01210756 -0.03751693
v -0.00712123 -0.01211913 -0.03853110
v -0.00710050 -0.01111935 -0.03853449
v -0.00682371 -0.01212722 -0.03909695
v -0.00680298 -0.01112744 -0.03910034
v -0.00623829 -0.01214228 -0.03995956
v -0.00579162 -0.01215330 -0.04047770
v -0.00577089 -0.01115352 -0.04048109
v -0.00505968 -0.01217077 -0.04115567
v -0.00447155 -0.01218443 -0.04158622
v -0.00364450 -0.01220318 -0.04205945
v -0.00362377 -0.01120340 -0.04206284
v -0.00293326 -0.01221896 -0.04236394
v -0.00206371 -0.01223788 -0.04262558
v -0.00125803 -0.01225507 -0.04276974
v -0.00123730 -0.01125529 -0.04277314
v -0.00039657 -0.01227313 -0.04282568
v -0.00037584 -0.01127335 -0.04282907
v 0.00046561 -0.01229086 -0.04278221
v 0.00048634 -0.01129108 -0.04278560
v 0.00127330 -0.01230715 -0.04264971
v 0.00129403 -0.01130738 -0.04265310
v 0.00214658 -0.01232442 -0.04240066
v 0.00216731 -0.01132464 -0.04240405
v 0.00286219 -0.01233826 -0.04210649
v 0.00288292 -0.01133848 -0.04210988
v 0.00369606 -0.01235399 -0.04164527
v 0.00429041 -0.01236488 -0.04122327
v 0.00503217 -0.01237800 -0.04055595
v 0.00505290 -0.01137822 -0.04055934
v 0.00548635 -0.01238568 -0.04004433
v 0.00550708 -0.01138590 -0.04004772
v 0.00608430 -0.01239519 -0.03919027
v 0.00639004 -0.01239962 -0.03862879
v 0.00679686 -0.01240464 -0.03762038
v 0.00695617 -0.01240600 -0.03704762
v 0.01112655 -0.00990775 -0.01221645
v 0.01107005 -0.00993644 -0.01994689
v 0.01114186 -0.00647563 -0.01995345
v 0.01147080 0.00627996 -0.01108208
v 0.01117146 -0.00527937 -0.01929433
v 0.01146409 0.00906667 -0.02001130
v 0.01152043 0.00908806 -0.01228084
v 0.01139237 0.00560590 -0.01999441
v 0.01120934 -0.00584479 -0.01243137
v 0.01128422 -0.00271805 -0.01105158
v -0.01116215 0.00277005 -0.01864043
v -0.01113053 0.00450572 -0.01925133
v -0.01132656 -0.00744121 -0.01206059
v -0.01111159 0.00561967 -0.01983024
v -0.01097414 0.00955504 -0.01211821
v -0.01103046 0.00953365 -0.01984867
v -0.01142450 -0.00946946 -0.01978426
v -0.01136802 -0.00944077 -0.01205382
v -0.01134331 -0.00555544 -0.01979236
v -0.01125701 -0.00396491 -0.01242211
v -0.01104948 0.00590788 -0.01206658
v 0.00745370 0.01158870 -0.03712896
v 0.00743297 0.01058892 -0.03712557
v 0.00729439 0.01159007 -0.03770172
v 0.00727366 0.01059029 -0.03769833
v 0.00688758 0.01159508 -0.03871012
v 0.00658183 0.01159952 -0.03927160
v 0.00656110 0.01059974 -0.03926822
v 0.00598388 0.01160902 -0.04012566
v 0.00552970 0.01161671 -0.04063729
v 0.00478794 0.01162982 -0.04130460
v 0.00476721 0.01063005 -0.04130122
v 0.00419360 0.01164072 -0.04172661
v 0.00417287 0.01064094 -0.04172322
v 0.00335972 0.01165645 -0.04218783
v 0.00264412 0.01167029 -0.04248200
v 0.00177084 0.01168755 -0.04273105
v 0.00096314 0.01170385 -0.04286354
v 0.00010096 0.01172158 -0.04290702
v -0.00076050 0.01173963 -0.04285108
v -0.00156617 0.01175683 -0.04270692
v -0.00158690 0.01075705 -0.04270353
v -0.00243572 0.01177574 -0.04244527
v -0.00245646 0.01077596 -0.04244189
v -0.00314696 0.01179152 -0.04214079
v -0.00397402 0.01181028 -0.04166756
v -0.00399475 0.01081050 -0.04166417
v -0.00456214 0.01182393 -0.04123700
v -0.00458287 0.01082415 -0.04123362
v -0.00529409 0.01184141 -0.04055904
v -0.00574075 0.01185242 -0.04004090
v -0.00576149 0.01085264 -0.04003751
v -0.00632618 0.01186749 -0.03917828
v -0.00634691 0.01086771 -0.03917490
v -0.00662369 0.01187557 -0.03861244
v -0.00701575 0.01188714 -0.03759826
v -0.00703648 0.01088736 -0.03759487
v -0.00716668 0.01189222 -0.03702326
v -0.00718742 0.01089244 -0.03701987
v 0.01095847 -0.01066979 -0.01221275
v 0.01101031 -0.01036262 -0.02054833
v 0.01094052 -0.01058571 -0.02086772
v 0.01076037 -0.01094887 -0.02140161
v 0.01051158 -0.01130949 -0.01220742
v 0.01050803 -0.01127327 -0.02190555
v 0.00981418 -0.01174868 -0.02278088
v 0.01016302 -0.01156269 -0.02240196
v 0.01046517 -0.01131685 -0.02197647
v -0.01037809 -0.01128519 -0.02253989
v -0.01028600 -0.01133141 -0.02263556
v -0.01017199 -0.01131375 -0.01205648
v -0.01081169 -0.01086683 -0.01205326
v -0.01094680 -0.01082788 -0.02175044
v -0.01068788 -0.01107969 -0.02216197
v -0.01123168 -0.01020913 -0.01205232
v -0.01139120 -0.00989757 -0.02038637
v -0.01128508 -0.01026601 -0.02091142
v -0.01110935 -0.01060914 -0.02141522
v -0.01080607 0.01031708 -0.01212190
v -0.01097953 0.00995593 -0.02045367
v -0.01091441 0.01017694 -0.02077549
v -0.01074209 0.01053663 -0.02131429
v -0.01035918 0.01095678 -0.01212723
v -0.01049714 0.01085775 -0.02182395
v -0.00981617 0.01132745 -0.02271237
v -0.00970150 0.01137677 -0.01213339
v -0.01015943 0.01114394 -0.02232720
v -0.01045533 0.01090086 -0.02189577
v 0.01037749 0.01086457 -0.02276308
v 0.01028401 0.01091018 -0.02285769
v 0.01032440 0.01096103 -0.01227818
v 0.01096410 0.01051412 -0.01228140
v 0.01095768 0.01041236 -0.02197906
v 0.01069277 0.01066151 -0.02238839
v 0.01138409 0.00985642 -0.01228233
v 0.01142198 0.00949088 -0.02061563
v 0.01130820 0.00985592 -0.02114145
v 0.01112512 0.01019578 -0.02164484
v -0.01098571 0.00679990 -0.02075855
v -0.01105199 0.00643795 -0.02044508
v -0.01126659 -0.00674614 -0.02071263
v -0.01131776 -0.00637963 -0.02040163
v 0.01134566 0.00635203 -0.02067109
v 0.01129769 0.00660041 -0.02092270
v 0.01100590 -0.00747163 -0.02087500
v 0.01106417 -0.00722372 -0.02062504
v 0.00052063 -0.01320778 -0.01787267
v -0.00381960 -0.01312117 -0.01887043
v -0.00246436 -0.01314700 -0.01820043
v -0.00099104 -0.01317640 -0.01786174
v 0.00033722 -0.01328503 -0.04178465
v 0.00179406 -0.01331412 -0.04145398
v 0.00103721 -0.01329630 -0.04082688
v 0.00313694 -0.01333975 -0.04079930
v 0.00133987 -0.01329993 -0.04004588
v 0.00429490 -0.01336056 -0.03985523
v -0.00661267 -0.01307992 -0.02378798
v -0.00686101 -0.01311371 -0.03527555
v -0.00684703 -0.01311562 -0.03575171
v -0.00657783 -0.01312618 -0.03722140
v -0.00115661 -0.01325402 -0.04177385
v -0.00121979 -0.01325133 -0.04136601
v -0.00260847 -0.01322273 -0.04142214
v -0.00394166 -0.01319280 -0.04074813
v -0.00508572 -0.01316582 -0.03978741
v -0.00598019 -0.01314321 -0.03859076
v 0.00333416 -0.01326968 -0.01892215
v 0.00506561 -0.01332540 -0.02476847
v 0.00520675 -0.01337545 -0.03867163
v 0.00582430 -0.01338364 -0.03731107
v 0.00611493 -0.01338470 -0.03584542
v 0.00613585 -0.01338352 -0.03536951
v 0.00528529 -0.01335895 -0.03332426
v -0.00675077 -0.01307675 -0.02369795
v -0.00649872 -0.01307768 -0.02242867
v -0.00589287 -0.01308554 -0.02104334
v -0.00498343 -0.01310031 -0.01983547
v 0.00465042 -0.01332872 -0.02828734
v 0.00198884 -0.01323944 -0.01823263
v 0.00619458 -0.01334549 -0.02379154
v 0.00596107 -0.01333634 -0.02251875
v 0.00568323 -0.01333610 -0.02414847
v 0.00537551 -0.01331947 -0.02112481
v 0.00448379 -0.01329684 -0.01990392
v 0.00367594 0.01265452 -0.04088742
v 0.00233306 0.01268014 -0.04154209
v 0.00574575 0.01261881 -0.03875975
v 0.00483390 0.01263371 -0.03994334
v 0.00658833 0.01261848 -0.03370249
v 0.00667485 0.01261074 -0.03545763
v 0.00665392 0.01260956 -0.03593354
v 0.00636330 0.01261062 -0.03739918
v 0.00582737 0.01263668 -0.03299051
v -0.00632201 0.01288055 -0.03536366
v -0.00630803 0.01287865 -0.03583982
v -0.00603883 0.01286808 -0.03730952
v -0.00544120 0.01285105 -0.03867887
v 0.00560461 0.01266887 -0.02485659
v 0.00387316 0.01272459 -0.01901027
v -0.00045205 0.01281787 -0.01794985
v 0.00105962 0.01278648 -0.01796078
v 0.00252784 0.01275482 -0.01832074
v 0.00650007 0.01265793 -0.02260686
v 0.00673357 0.01264877 -0.02387966
v -0.00328060 0.01287310 -0.01895855
v 0.00591451 0.01267479 -0.02121292
v 0.00188194 0.01269570 -0.03971213
v -0.00192536 0.01284727 -0.01828855
v 0.00502279 0.01269742 -0.01999203
v -0.00454672 0.01282845 -0.03987552
v -0.00340266 0.01280147 -0.04083624
v -0.00206947 0.01277154 -0.04151026
v -0.00061761 0.01274024 -0.04186196
v -0.00028752 0.01273426 -0.04160657
v 0.00087621 0.01270923 -0.04187276
v -0.00614272 0.01291593 -0.02383108
v -0.00595972 0.01291659 -0.02251678
v -0.00535388 0.01290872 -0.02113145
v -0.00444443 0.01289396 -0.01992359
v 0.01033733 -0.01148411 0.00074483
v 0.01083358 -0.01100802 0.00073967
v 0.01113923 -0.01039197 0.00073544
v 0.01125006 -0.00846612 0.00072840
v -0.01091602 -0.01058207 0.00089700
v -0.01118848 -0.01001876 0.00089716
v -0.01048284 -0.01103362 0.00089530
v -0.01002686 -0.00795882 0.02023424
v -0.00968315 -0.00796048 0.02184576
v -0.00719758 -0.00799771 0.02606922
v -0.00595568 -0.00801979 0.02715196
v -0.00303584 -0.00807523 0.02865591
v 0.00186802 -0.00817571 0.02901138
v 0.00337264 -0.00820819 0.02863426
v 0.00358836 -0.00821291 0.02855974
v 0.00485377 -0.00824102 0.02800803
v 0.00515497 -0.00824782 0.02784532
v 0.00621870 -0.00827221 0.02715775
v 0.00657987 -0.00828064 0.02687863
v 0.00743383 -0.00830097 0.02610436
v 0.00782282 -0.00831045 0.02568697
v 0.00846923 -0.00832661 0.02487380
v 0.00884874 -0.00833641 0.02430397
v 0.00929942 -0.00834850 0.02349638
v 0.00962868 -0.00835779 0.02276867
v 0.00990394 -0.00836608 0.02200600
v 0.01014060 -0.00837398 0.02112442
v 0.01026791 -0.00837894 0.02043936
v 0.00957931 -0.01177243 0.01033798
v -0.00995672 -0.01116869 0.01283380
v -0.00995594 -0.01114307 0.01320050
v -0.00982223 -0.01118445 0.01361876
v -0.00958888 -0.01126717 0.01398554
v -0.00925965 -0.01135043 0.01424800
v 0.01116850 -0.00988913 -0.00646663
v 0.01108669 -0.01041529 -0.00646433
v -0.01126614 -0.00995125 -0.00630272
v -0.01098629 -0.01057945 -0.00630273
v -0.01051020 -0.01107573 -0.00630460
v 0.00019098 -0.00904062 0.02916186
v 0.00143233 -0.00906665 0.02907733
v 0.00190560 -0.00907671 0.02900478
v 0.00265428 -0.00909278 0.02884295
v 0.00370426 -0.00911567 0.02851249
v 0.00505239 -0.00914572 0.02789451
v 0.00602659 -0.00916799 0.02728600
v 0.00656121 -0.00918044 0.02688168
v 0.00699759 -0.00919076 0.02650792
v 0.00783565 -0.00921103 0.02565394
v 0.00872627 -0.00923352 0.02446799
v 0.00925235 -0.00924752 0.02355578
v 0.00967880 -0.00925962 0.02259293
v 0.01011138 -0.00927340 0.02117418
v 0.01030687 -0.00928146 0.01999361
v 0.01128379 -0.00983796 0.00933287
v 0.01124718 -0.01006806 0.00968792
v 0.01123858 -0.01022662 0.00952955
v 0.01115210 -0.01043776 0.00989156
v 0.01092773 -0.01093999 0.00989459
v 0.01117031 -0.01046720 0.00965201
v 0.00999016 -0.01166728 0.01027773
v 0.01046703 -0.01136050 0.01043885
v 0.01040763 -0.01145255 0.01016212
v 0.01053412 -0.01135979 0.01011313
v 0.01067399 -0.01123742 0.01004898
v 0.01086241 -0.01102853 0.00994036
v -0.00204977 -0.00999862 0.02791307
v -0.00039403 -0.01003219 0.02813566
v 0.00210181 -0.01008475 0.02789734
v 0.00517086 -0.01015281 0.02659228
v 0.01113603 -0.00990354 -0.01091649
v 0.01074858 -0.01104575 -0.01090996
v 0.01025232 -0.01152184 -0.01090480
v 0.01010037 -0.01161445 -0.01090339
v 0.01084742 -0.01089776 -0.01091116
v 0.01105717 -0.01041965 -0.01091424
v -0.01101876 -0.01059387 -0.01075259
v -0.01111138 -0.01044190 -0.01075240
v -0.01130113 -0.00995550 -0.01075259
v -0.01135853 -0.00943656 -0.01075386
v -0.01080221 -0.01086262 -0.01075330
v -0.01054267 -0.01109014 -0.01075445
v -0.01039468 -0.01118898 -0.01075521
v -0.01118582 -0.00886462 0.01149374
v -0.01004551 -0.00885862 0.02023729
v -0.00984559 -0.01129827 0.01140659
v -0.00985482 -0.01124548 0.01239557
v -0.01040012 -0.01100380 0.01144405
v -0.01047115 -0.01094771 0.01144881
v -0.00989215 -0.01100187 0.01531418
v -0.00966287 -0.01132722 0.01206737
v -0.01013537 -0.01078803 0.01533038
v -0.01084294 -0.01054190 0.01147352
v -0.01031501 -0.01057199 0.01534224
v -0.01094985 -0.01036862 0.01148051
v -0.01044502 -0.01036593 0.01535072
v -0.01055518 -0.01013024 0.01535778
v -0.01110615 -0.01000085 0.01149051
v -0.01060149 -0.00999780 0.01536069
v -0.01118122 -0.00965370 0.01149498
v -0.01119618 -0.00936451 0.01149544
v -0.01068722 -0.00928842 0.01536515
v -0.01066870 -0.00970189 0.01536470
v -0.00936450 -0.01128728 0.01527867
v -0.00892879 -0.01137996 0.01524906
v -0.01000340 -0.00916860 0.02023201
v -0.00981198 -0.00885935 0.02145145
v -0.00970181 -0.00886029 0.02184881
v -0.00943399 -0.00886319 0.02262865
v -0.00910437 -0.00886747 0.02338444
v -0.00891704 -0.00887011 0.02375178
v -0.00826865 -0.00887998 0.02480450
v -0.00749826 -0.00889268 0.02577147
v -0.00721624 -0.00889751 0.02607227
v -0.00661708 -0.00890801 0.02663864
v -0.00597434 -0.00891959 0.02715501
v -0.00563792 -0.00892576 0.02739339
v -0.00457504 -0.00894566 0.02802473
v -0.00344389 -0.00896742 0.02852348
v -0.00305450 -0.00897503 0.02865895
v -0.00226095 -0.00899073 0.02888238
v -0.00104342 -0.00901525 0.02909621
v -0.00145202 -0.00900696 0.02904129
v -0.00225601 -0.00930008 0.02883582
v -0.00659133 -0.00921775 0.02660279
v -0.00939480 -0.00917315 0.02261195
v -0.00942948 -0.00967681 0.02135207
v -0.00963918 -0.00945100 0.02140612
v -0.00906669 -0.00968050 0.02248193
v -0.00926823 -0.00945478 0.02256140
v -0.00977098 -0.00916932 0.02144037
v -0.00700467 -0.00985574 0.02531229
v -0.00572631 -0.00987831 0.02647293
v -0.00720881 -0.00970880 0.02549836
v -0.00636306 -0.00972352 0.02633065
v -0.00736857 -0.00948371 0.02564565
v -0.00650381 -0.00949876 0.02649667
v -0.00746831 -0.00920249 0.02573976
v -0.00322361 -0.00992544 0.02787878
v -0.00155269 -0.00995861 0.02831319
v -0.00331749 -0.00978054 0.02813969
v -0.00218212 -0.00980291 0.02848416
v -0.00338975 -0.00955706 0.02834639
v -0.00222885 -0.00957994 0.02869860
v -0.00343330 -0.00927688 0.02847863
v -0.00888031 -0.00918003 0.02372972
v -0.00876092 -0.00946156 0.02366360
v -0.00857053 -0.00968714 0.02355990
v -0.00832780 -0.00983469 0.02342875
v -0.00772312 -0.00984390 0.02441050
v -0.00794822 -0.00969662 0.02457027
v -0.00812461 -0.00947125 0.02469670
v -0.00823502 -0.00918986 0.02477740
v -0.00561685 -0.00923541 0.02735393
v -0.00554289 -0.00951617 0.02723736
v -0.00542328 -0.00974055 0.02705505
v -0.00427850 -0.00990514 0.02741365
v -0.00440315 -0.00975965 0.02766100
v -0.00449981 -0.00953570 0.02785693
v -0.00455904 -0.00925522 0.02798227
v -0.00104429 -0.00932448 0.02904863
v -0.00103400 -0.00960400 0.02890845
v -0.00101356 -0.00982645 0.02868939
v 0.00016623 -0.00999371 0.02847412
v 0.00017120 -0.00985080 0.02875240
v 0.00017740 -0.00962890 0.02897287
v 0.00018422 -0.00934973 0.02911396
v 0.00920232 -0.00955564 0.02353466
v 0.00695833 -0.00949915 0.02647270
v 0.00599196 -0.00947649 0.02724706
v 0.00263575 -0.00940164 0.02879658
v 0.00136263 -0.00987578 0.02867128
v 0.00189368 -0.01003017 0.02828601
v 0.00253544 -0.00990086 0.02844632
v 0.00139562 -0.00965444 0.02888992
v 0.00259480 -0.00968008 0.02865991
v 0.00141964 -0.00937563 0.02902984
v 0.00475656 -0.00994985 0.02758029
v 0.00511504 -0.01010122 0.02702997
v 0.00577213 -0.00997304 0.02695198
v 0.00486587 -0.00973018 0.02777441
v 0.00590428 -0.00975389 0.02713197
v 0.00493889 -0.00945244 0.02789858
v 0.00767711 -0.01016222 0.02470792
v 0.00861674 -0.01018666 0.02324597
v 0.00826359 -0.01003334 0.02440180
v 0.00886816 -0.01004937 0.02337177
v 0.00845177 -0.00981555 0.02452443
v 0.00906993 -0.00983194 0.02347125
v 0.00857542 -0.00953902 0.02460271
v 0.01010481 -0.00986524 0.01997545
v 0.01025180 -0.00958942 0.01998949
v 0.00381463 -0.00942737 0.02841764
v 0.00375726 -0.00970546 0.02828624
v 0.00367233 -0.00992567 0.02808087
v 0.00356814 -0.01006646 0.02782162
v 0.00685719 -0.00977623 0.02636839
v 0.00670408 -0.00999489 0.02620519
v 0.00651398 -0.01013372 0.02599909
v 0.00782373 -0.00952009 0.02558689
v 0.00771054 -0.00979689 0.02549491
v 0.00753866 -0.01001509 0.02535093
v 0.00969518 -0.00956971 0.02239848
v 0.00955593 -0.00984581 0.02235089
v 0.00934346 -0.01006294 0.02227606
v 0.00924329 -0.01020514 0.02162489
v 0.00968250 -0.01007385 0.02113079
v 0.00990259 -0.00985697 0.02117987
v 0.01004673 -0.00958102 0.02121092
v -0.00759001 -0.01142707 0.01522753
v 0.01135654 -0.00594242 0.00820892
v 0.01138731 -0.00430497 0.00776415
v 0.01153080 0.00261504 0.00774069
v -0.00163261 -0.00790310 0.02900395
v -0.00342109 -0.00786766 0.02851975
v -0.00509320 -0.00783570 0.02772138
v -0.00659427 -0.00780825 0.02663491
v -0.00787524 -0.00778623 0.02529588
v -0.00961795 -0.00776113 0.02204202
v 0.01116920 -0.00830389 -0.01092191
v 0.00996512 -0.00816794 0.02181916
v 0.00828262 -0.00812183 0.02513116
v 0.00702039 -0.00809100 0.02650419
v 0.00553028 -0.00805630 0.02762567
v 0.00386161 -0.00801888 0.02845846
v 0.00206967 -0.00797997 0.02897498
v 0.01131696 -0.00823832 0.00932745
v -0.01099782 0.00795960 -0.01081282
v -0.01083547 0.00803166 0.01143647
v -0.00930115 0.00803549 0.02195480
v -0.00929040 0.00803539 0.02198848
v -0.00859986 0.00802664 0.02363206
v -0.00856669 0.00802616 0.02369451
v -0.00761335 0.00801136 0.02515905
v -0.00754770 0.00801028 0.02524234
v -0.00637267 0.00799014 0.02648771
v -0.00626673 0.00798826 0.02658136
v -0.00491682 0.00796364 0.02757626
v -0.00476566 0.00796082 0.02766783
v -0.00329163 0.00793270 0.02839045
v -0.00309355 0.00792885 0.02846620
v -0.00154822 0.00789830 0.02890466
v -0.00130506 0.00789341 0.02895040
v 0.00025858 0.00786150 0.02910273
v 0.00054133 0.00785565 0.02910458
v 0.00207193 0.00782348 0.02897841
v 0.00239721 0.00781654 0.02892143
v 0.00383477 0.00778543 0.02853562
v 0.00418916 0.00777764 0.02840491
v 0.00549164 0.00774854 0.02778829
v 0.00585782 0.00774021 0.02757212
v 0.00699044 0.00771397 0.02675994
v 0.00734794 0.00770551 0.02645065
v 0.00828401 0.00768282 0.02548290
v 0.00861016 0.00767469 0.02507761
v 0.00933165 0.00765606 0.02399735
v 0.00960269 0.00764875 0.02349851
v 0.01010040 0.00763454 0.02235003
v 0.01029266 0.00762857 0.02176562
v 0.01065722 0.00761481 0.01993633
v 0.01056609 0.00761893 0.02059276
v 0.01164450 0.00755820 0.00927390
v 0.01136625 -0.00474942 0.00612645
v 0.01133547 -0.00638686 0.00657123
v 0.00211865 0.01099161 0.01965469
v 0.00135403 0.01097862 0.02049918
v 0.00017326 0.01103491 0.02052652
v -0.00969102 0.00823761 0.02017934
v 0.00054548 0.00805560 0.02910390
v -0.00109753 0.00808926 0.02898334
v -0.00422054 0.00815057 0.02796678
v -0.00791416 0.00821624 0.02474654
v -0.00874988 0.00822876 0.02332649
v -0.00934732 0.00823594 0.02179086
v 0.01047644 0.00782245 0.02106951
v 0.00918458 0.00786001 0.02424906
v 0.00815866 0.00788597 0.02563206
v 0.00549081 0.00794861 0.02779041
v 0.00226009 0.00801952 0.02894683
v 0.01023665 0.01110612 0.00676256
v -0.00914287 0.01151535 0.01288707
v -0.00951115 0.01143075 0.01191225
v -0.00947721 0.01142830 0.01222256
v -0.00938794 0.01145032 0.01249930
v -0.00922684 0.01149443 0.01278155
v 0.01118110 0.01052004 0.00945230
v 0.01095933 0.01073726 0.01010158
v 0.01067008 0.01089615 0.01042662
v 0.01029482 0.01100830 0.01065841
v 0.00988121 0.01105974 0.01075955
v 0.00883702 0.01119988 0.01048920
v 0.00859777 0.01122555 0.01027137
v -0.00711320 0.01156785 0.01514958
v -0.00825742 0.01159161 0.01515785
v -0.01029757 0.00963396 0.01530119
v -0.00902544 0.01145544 0.01521063
v -0.01026074 0.00997274 0.01529801
v -0.00993759 0.01073772 0.01527441
v -0.01000973 0.01062683 0.01527956
v -0.01018181 0.01026422 0.01529204
v -0.00864814 0.01156124 0.01518463
v -0.00889225 0.01150200 0.01520143
v -0.00948699 0.01120044 0.01524269
v -0.00968285 0.01103558 0.01525640
v -0.00987162 0.01082685 0.01526972
v -0.00932866 0.00913574 0.02178781
v -0.00905731 0.00913279 0.02257671
v -0.00900532 0.00944073 0.02255787
v -0.00684309 0.00909852 0.02601127
v -0.00622192 0.00908762 0.02659677
v -0.00618347 0.00939578 0.02655874
v -0.00268135 0.00902099 0.02859795
v -0.00184050 0.00900435 0.02883255
v -0.00182297 0.00931291 0.02878384
v 0.00206942 0.00892377 0.02897644
v 0.00307762 0.00890216 0.02876899
v 0.00307167 0.00921121 0.02872059
v 0.00544549 0.00884985 0.02782272
v 0.00643410 0.00882725 0.02720063
v 0.00641212 0.00913665 0.02715972
v 0.00920324 0.00875981 0.02424601
v 0.00963867 0.00874815 0.02346876
v 0.00960139 0.00905793 0.02344567
v 0.01048707 0.00872254 0.02110212
v 0.01068205 0.00871446 0.01991327
v 0.01063979 0.00902440 0.01990715
v -0.00902163 0.00993688 0.02129010
v 0.00927049 0.00970418 0.02262269
v 0.00975863 0.00955051 0.02218618
v 0.00928749 0.00956399 0.02328032
v 0.00996211 0.00932527 0.02226198
v 0.00948038 0.00933905 0.02338073
v 0.01008992 0.00904395 0.02231112
v 0.00713595 0.00980639 0.02527688
v 0.00539991 0.00984714 0.02667931
v 0.00650322 0.00977393 0.02627090
v 0.00713837 0.00961815 0.02611359
v 0.00621180 0.00963990 0.02686211
v 0.00728293 0.00939443 0.02627772
v 0.00633552 0.00941667 0.02704307
v 0.00737291 0.00911410 0.02638356
v 0.00412244 0.00968708 0.02799734
v 0.00347288 0.00984234 0.02791739
v 0.00299030 0.00971181 0.02836739
v 0.00419918 0.00946490 0.02820382
v 0.00304158 0.00949019 0.02858220
v 0.00424561 0.00918556 0.02833686
v -0.00052283 0.00992667 0.02835097
v -0.00104047 0.00998499 0.02794948
v -0.00221824 0.00996060 0.02799093
v -0.00055587 0.00978622 0.02862858
v -0.00173004 0.00980989 0.02842839
v -0.00058434 0.00956628 0.02884927
v -0.00178491 0.00959048 0.02864458
v -0.00060545 0.00928837 0.02899142
v -0.00498954 0.00987266 0.02700686
v -0.00529032 0.01001899 0.02642329
v -0.00593525 0.00988981 0.02628253
v -0.00511771 0.00965466 0.02719107
v -0.00608469 0.00967220 0.02645046
v -0.00520284 0.00937800 0.02730981
v -0.00815722 0.00992647 0.02350574
v -0.00865661 0.00993316 0.02242414
v -0.00835663 0.00970968 0.02361122
v -0.00886725 0.00971652 0.02250530
v -0.00848749 0.00943380 0.02367941
v 0.01050432 0.00930599 0.01989149
v 0.01043775 0.00903272 0.02112582
v 0.01030510 0.00931419 0.02109319
v 0.01009407 0.00953968 0.02104309
v 0.01012954 0.00873411 0.02232877
v 0.00998317 0.00873844 0.02271072
v 0.00901362 0.00876474 0.02454103
v 0.00897932 0.00907445 0.02451282
v 0.00886698 0.00935533 0.02443302
v 0.00868758 0.00957992 0.02430947
v 0.00845869 0.00972621 0.02415424
v 0.00775920 0.00974384 0.02507641
v 0.00796769 0.00959806 0.02525853
v 0.00813090 0.00937389 0.02540343
v 0.00823285 0.00909326 0.02549693
v 0.00822044 0.00878471 0.02557944
v 0.00739950 0.00880458 0.02642075
v 0.00693436 0.00881559 0.02682068
v 0.00536457 0.00916059 0.02781402
v 0.00530255 0.00944028 0.02768826
v 0.00520155 0.00966299 0.02749311
v 0.00507144 0.00980693 0.02724767
v 0.00310340 0.00989815 0.02767821
v 0.00425720 0.00887639 0.02838342
v 0.00394286 0.00888331 0.02850179
v 0.00185994 0.00923714 0.02895956
v 0.00184673 0.00951576 0.02881785
v 0.00182173 0.00973682 0.02859786
v 0.00178739 0.00987866 0.02832112
v 0.00063019 0.00995085 0.02809697
v 0.00063319 0.00990288 0.02840612
v 0.00063387 0.00976175 0.02868535
v 0.00063215 0.00954125 0.02890731
v 0.00062822 0.00926299 0.02905028
v 0.00059329 0.00895480 0.02910056
v -0.00061714 0.00897969 0.02904112
v -0.00107887 0.00898906 0.02898029
v -0.00302970 0.00902781 0.02847758
v -0.00300649 0.00933625 0.02843057
v -0.00295195 0.00961350 0.02829623
v -0.00287141 0.00983240 0.02808771
v -0.00317895 0.01002717 0.02731117
v -0.00383365 0.00999197 0.02736274
v -0.00396325 0.00985343 0.02761154
v -0.00406834 0.00963500 0.02780935
v -0.00413865 0.00935806 0.02793682
v -0.00416729 0.00904972 0.02798146
v -0.00523659 0.00906975 0.02735145
v -0.00560119 0.00907644 0.02709401
v -0.00710883 0.00910307 0.02572851
v -0.00706614 0.00941116 0.02569462
v -0.00695507 0.00968736 0.02559837
v -0.00678649 0.00990464 0.02544919
v -0.00657690 0.01004173 0.02526166
v -0.00730010 0.01005366 0.02435787
v -0.00753078 0.00991692 0.02451904
v -0.00771610 0.00969991 0.02464731
v -0.00783792 0.00942389 0.02473013
v -0.00788431 0.00911587 0.02475939
v -0.00853700 0.00912582 0.02370363
v -0.00873122 0.00912856 0.02332344
v -0.00943763 0.00913667 0.02139515
v -0.00938382 0.00944460 0.02138196
v -0.00924048 0.00972033 0.02134576
v -0.00961743 0.00944533 0.02016891
v -0.00967236 0.00913741 0.02017629
v 0.01167767 0.00915784 0.00926848
v 0.01163211 0.00963385 0.00950435
v 0.01147251 0.00961121 -0.01098214
v 0.01128276 0.01009761 -0.01098233
v 0.01154413 0.00992744 0.00964965
v 0.01161976 0.00968705 0.00953069
v 0.01118027 0.01051765 0.00900275
v 0.01134288 0.01031562 0.00984151
v 0.01110228 0.01059780 0.00872633
v 0.01119014 0.01024957 -0.01098215
v 0.01095900 0.01072766 0.00844682
v 0.01097359 0.01051833 -0.01098144
v 0.01085832 0.01080532 0.00831032
v 0.01140303 0.01021956 0.00979406
v 0.01116623 0.01052214 0.01007879
v 0.01071405 0.01074585 -0.01098028
v 0.01056606 0.01084469 -0.01097952
v 0.01048869 0.01100771 0.00801173
v 0.01000702 0.01116531 0.00780415
v -0.00939561 0.01149983 0.01133087
v -0.00919735 0.01154926 0.01099213
v -0.00997080 0.01121338 0.01137089
v -0.00992899 0.01127016 -0.01083135
v -0.01008095 0.01117755 -0.01082994
v -0.01001228 0.01118273 0.01137380
v -0.01034969 0.01096099 -0.01082727
v -0.01041501 0.01077344 0.01140223
v -0.01057720 0.01070146 -0.01082477
v -0.01042053 0.01076588 0.01140262
v -0.01067604 0.01055347 -0.01082357
v -0.01051456 0.01062422 0.01140935
v -0.01070482 0.01020805 0.01142322
v -0.01088579 0.01007536 -0.01082049
v -0.01077536 0.00991961 0.01142863
v -0.01096465 0.00955925 -0.01081825
v -0.01080230 0.00963130 0.01143104
v -0.00947966 0.01145923 0.01160188
v 0.01164602 0.00935495 0.00965825
f 168 37 104
f 56 53 54
f 133 43 39
f 649 43 133
f 133 650 649
f 39 271 273
f 59 135 134
f 277 401 245
f 134 135 652
f 652 653 134
f 18 20 148
f 158 160 15
f 158 18 148
f 55 56 54
f 684 511 682
f 682 53 684
f 682 117 53
f 513 682 511
f 94 92 2
f 665 128 666
f 93 92 94
f 245 401 400
f 400 415 245
f 651 133 134
f 650 133 651
f 219 273 276
f 276 273 274
f 270 273 272
f 272 273 271
f 272 478 649
f 63 35 65
f 65 35 34
f 134 133 141
f 141 59 134
f 141 142 37
f 34 35 166
f 166 32 34
f 153 32 166
f 166 149 153
f 62 35 63
f 168 104 103
f 422 421 401
f 401 277 422
f 422 277 421
f 106 111 156
f 89 7 6
f 300 484 684
f 224 484 300
f 656 135 658
f 508 199 509
f 508 196 199
f 519 579 512
f 15 79 17
f 25 74 73
f 183 72 73
f 73 74 183
f 75 19 76
f 148 20 22
f 24 149 22
f 22 149 148
f 66 67 185
f 185 67 68
f 684 53 683
f 53 52 683
f 53 56 51
f 51 52 53
f 51 683 52
f 678 679 119
f 119 116 678
f 678 116 679
f 680 516 679
f 680 513 516
f 682 513 680
f 679 116 680
f 681 117 680
f 117 682 680
f 679 516 515
f 156 111 1
f 4 92 6
f 4 2 92
f 161 10 11
f 161 12 160
f 11 12 161
f 15 160 14
f 160 12 14
f 14 79 15
f 81 79 14
f 203 507 667
f 92 93 193
f 95 192 193
f 193 93 95
f 401 421 403
f 421 420 403
f 403 420 405
f 134 653 132
f 132 651 134
f 650 651 654
f 654 542 650
f 653 542 654
f 654 132 653
f 651 132 654
f 39 273 98
f 273 219 98
f 98 133 39
f 98 143 133
f 408 273 270
f 408 274 273
f 276 274 408
f 443 272 271
f 478 272 443
f 151 29 153
f 153 149 151
f 153 29 30
f 30 32 153
f 184 189 63
f 185 189 184
f 184 66 185
f 190 189 185
f 203 667 200
f 126 128 665
f 140 141 133
f 133 143 140
f 142 141 140
f 140 143 142
f 167 166 35
f 167 37 168
f 60 62 59
f 60 141 37
f 59 141 60
f 61 62 63
f 59 62 61
f 63 189 61
f 61 189 59
f 35 62 36
f 37 167 36
f 36 167 35
f 36 60 37
f 62 60 36
f 168 103 169
f 169 103 277
f 169 167 168
f 166 167 169
f 290 103 104
f 277 103 290
f 37 100 102
f 102 282 281
f 155 106 156
f 160 158 159
f 159 163 160
f 159 158 148
f 148 149 159
f 156 1 157
f 157 1 2
f 2 4 3
f 3 157 2
f 163 157 3
f 3 4 6
f 6 92 91
f 91 89 6
f 301 300 317
f 224 300 301
f 648 511 684
f 684 484 648
f 648 513 511
f 56 55 296
f 317 300 296
f 54 317 296
f 296 55 54
f 449 327 642
f 265 470 598
f 650 542 541
f 270 272 541
f 542 540 541
f 662 542 653
f 653 652 662
f 662 135 656
f 662 652 135
f 666 667 504
f 670 498 685
f 119 679 677
f 203 196 206
f 196 508 206
f 206 507 203
f 206 508 507
f 119 677 676
f 676 677 675
f 124 122 192
f 124 192 95
f 95 125 124
f 606 232 534
f 467 535 534
f 262 535 467
f 601 606 534
f 563 606 601
f 499 498 670
f 670 519 499
f 499 519 512
f 566 625 623
f 636 518 637
f 637 518 512
f 668 518 497
f 566 510 624
f 624 625 566
f 510 625 624
f 517 625 510
f 517 518 636
f 517 497 518
f 572 625 573
f 573 517 636
f 625 517 573
f 412 285 245
f 15 17 16
f 16 158 15
f 18 158 16
f 16 19 18
f 17 19 16
f 29 151 28
f 70 72 182
f 72 183 182
f 182 68 70
f 185 68 182
f 182 190 185
f 74 75 212
f 212 183 74
f 212 182 183
f 212 75 76
f 76 210 212
f 23 25 24
f 24 22 23
f 74 25 23
f 23 75 74
f 23 22 20
f 34 32 33
f 69 68 67
f 445 300 684
f 300 445 58
f 58 445 684
f 95 136 118
f 118 136 117
f 119 95 118
f 118 116 119
f 118 117 681
f 681 680 118
f 118 680 116
f 117 136 137
f 639 580 582
f 579 580 578
f 639 638 578
f 578 580 639
f 512 579 578
f 638 637 578
f 578 637 512
f 521 675 514
f 675 677 514
f 679 515 514
f 514 677 679
f 579 519 520
f 520 543 579
f 520 675 521
f 136 1 138
f 96 136 95
f 96 1 136
f 160 163 162
f 162 161 160
f 162 7 8
f 162 163 7
f 8 10 162
f 10 161 162
f 13 12 11
f 13 14 12
f 656 658 655
f 202 196 203
f 191 193 192
f 192 122 191
f 599 264 236
f 236 264 265
f 269 408 270
f 425 408 269
f 587 540 584
f 584 540 542
f 423 420 421
f 421 277 423
f 419 384 405
f 405 420 419
f 268 384 419
f 419 269 268
f 425 269 419
f 402 400 401
f 401 403 402
f 402 403 405
f 142 143 99
f 143 98 99
f 37 142 99
f 99 100 37
f 99 97 100
f 276 97 99
f 649 478 44
f 44 43 649
f 44 45 43
f 64 184 63
f 66 184 64
f 65 66 64
f 63 65 64
f 496 667 666
f 189 190 186
f 59 189 188
f 189 186 188
f 177 277 245
f 177 169 277
f 277 290 279
f 279 290 104
f 279 423 277
f 278 423 279
f 276 408 275
f 105 102 281
f 105 104 37
f 37 102 105
f 288 102 100
f 282 102 288
f 100 275 288
f 108 155 302
f 111 106 299
f 106 108 299
f 299 108 302
f 110 1 111
f 110 115 1
f 253 295 222
f 302 249 303
f 303 249 248
f 163 159 152
f 152 169 170
f 166 169 152
f 7 163 5
f 163 3 5
f 6 7 5
f 5 3 6
f 173 157 163
f 156 157 173
f 8 7 9
f 9 10 8
f 253 222 314
f 312 309 310
f 310 344 312
f 318 301 317
f 319 315 322
f 322 301 319
f 301 318 319
f 319 318 317
f 319 314 315
f 323 324 644
f 224 301 323
f 323 484 224
f 644 648 323
f 323 648 484
f 308 344 310
f 310 309 308
f 345 306 364
f 345 308 306
f 305 308 309
f 306 308 305
f 516 513 647
f 513 648 647
f 50 300 56
f 56 296 50
f 50 296 300
f 524 582 580
f 686 272 649
f 686 541 272
f 649 650 686
f 650 541 686
f 477 541 540
f 666 504 661
f 665 666 661
f 661 664 665
f 505 504 667
f 512 685 500
f 500 685 498
f 500 499 512
f 498 499 500
f 512 518 501
f 501 685 512
f 501 518 668
f 668 685 501
f 670 685 671
f 122 124 671
f 671 685 668
f 121 676 675
f 675 674 121
f 121 674 125
f 119 676 121
f 121 95 119
f 121 125 95
f 673 674 675
f 675 520 673
f 670 124 673
f 673 519 670
f 673 520 519
f 125 674 120
f 120 124 125
f 674 673 120
f 120 673 124
f 262 386 263
f 262 467 440
f 467 466 440
f 561 558 562
f 562 563 561
f 483 508 509
f 509 510 483
f 483 510 566
f 566 565 483
f 507 508 481
f 508 483 481
f 481 483 482
f 331 332 526
f 334 487 432
f 334 376 335
f 629 487 334
f 456 334 335
f 629 334 456
f 564 565 566
f 564 483 565
f 626 625 572
f 626 623 625
f 572 627 626
f 626 627 623
f 510 215 214
f 214 517 510
f 531 608 617
f 257 531 617
f 411 412 394
f 245 415 286
f 286 412 245
f 412 411 390
f 285 412 389
f 389 380 285
f 412 390 389
f 356 380 379
f 377 339 340
f 340 339 337
f 24 25 27
f 71 72 70
f 71 27 72
f 28 27 71
f 85 84 86
f 21 23 20
f 75 23 21
f 19 75 21
f 31 30 29
f 66 33 31
f 67 66 31
f 32 30 31
f 31 33 32
f 29 69 31
f 31 69 67
f 56 300 57
f 300 58 57
f 48 58 683
f 56 57 48
f 48 57 58
f 684 683 444
f 444 58 684
f 683 58 444
f 642 582 643
f 643 524 523
f 582 524 643
f 329 369 354
f 139 137 136
f 136 138 139
f 1 115 114
f 114 138 1
f 114 115 294
f 114 222 295
f 131 126 665
f 665 664 131
f 664 661 131
f 59 188 131
f 131 188 126
f 129 657 660
f 660 655 129
f 657 655 660
f 502 655 657
f 656 655 502
f 190 202 195
f 196 202 205
f 205 202 510
f 216 215 510
f 510 202 216
f 216 202 215
f 441 606 465
f 232 606 441
f 418 402 417
f 415 400 418
f 400 402 418
f 398 396 413
f 413 386 398
f 413 418 417
f 265 598 493
f 493 598 599
f 599 236 493
f 268 269 242
f 438 470 265
f 384 266 406
f 406 266 265
f 424 408 425
f 420 423 424
f 425 419 424
f 424 419 420
f 292 98 219
f 292 99 98
f 126 188 187
f 187 666 128
f 278 279 280
f 281 424 280
f 280 423 278
f 280 424 423
f 100 97 291
f 291 275 100
f 291 97 276
f 276 275 291
f 218 275 282
f 282 288 218
f 218 288 275
f 106 155 107
f 107 108 106
f 155 108 107
f 111 299 298
f 298 299 255
f 221 110 309
f 149 166 150
f 166 152 150
f 150 159 149
f 150 152 159
f 245 285 426
f 171 155 156
f 302 155 171
f 171 307 302
f 309 312 311
f 311 254 309
f 311 114 294
f 294 115 311
f 115 254 311
f 322 315 313
f 313 311 312
f 315 314 313
f 314 311 313
f 316 319 317
f 314 319 316
f 253 314 316
f 316 317 54
f 344 308 343
f 308 345 343
f 306 305 304
f 302 303 304
f 304 299 302
f 255 299 304
f 304 305 111
f 304 298 255
f 309 110 297
f 297 305 309
f 522 447 523
f 523 524 522
f 327 449 448
f 448 449 642
f 642 643 448
f 325 324 342
f 325 435 324
f 523 447 325
f 447 435 325
f 579 543 646
f 646 514 515
f 521 514 646
f 646 520 521
f 543 520 646
f 581 580 579
f 581 524 580
f 579 646 581
f 348 350 366
f 365 366 364
f 268 588 241
f 474 588 268
f 587 588 474
f 268 242 474
f 474 242 587
f 270 541 476
f 541 477 476
f 244 269 270
f 270 476 244
f 244 476 477
f 540 269 243
f 269 244 243
f 243 244 477
f 506 667 507
f 506 505 667
f 507 481 506
f 672 124 670
f 670 671 672
f 672 671 124
f 123 671 668
f 122 671 123
f 668 191 123
f 123 191 122
f 531 463 532
f 463 259 532
f 439 264 599
f 599 469 439
f 234 600 535
f 234 535 262
f 262 263 234
f 494 467 534
f 494 466 467
f 262 440 261
f 261 386 262
f 261 399 386
f 409 399 261
f 534 232 261
f 558 559 560
f 562 558 560
f 560 610 562
f 610 560 611
f 611 560 559
f 482 483 611
f 431 456 335
f 456 431 457
f 462 531 257
f 562 610 609
f 612 564 613
f 483 564 612
f 613 611 612
f 612 611 483
f 575 627 572
f 636 637 635
f 635 637 638
f 635 638 639
f 639 634 635
f 213 191 668
f 213 214 215
f 517 214 213
f 459 339 486
f 337 339 430
f 430 458 337
f 339 459 430
f 430 459 458
f 257 617 256
f 256 393 257
f 256 383 393
f 381 379 380
f 395 286 415
f 412 286 395
f 415 396 395
f 394 412 395
f 395 396 394
f 356 379 358
f 360 359 358
f 377 340 378
f 378 340 360
f 378 383 377
f 360 358 378
f 378 358 379
f 376 370 371
f 361 359 360
f 360 340 361
f 335 376 361
f 376 359 361
f 24 27 26
f 26 27 28
f 26 149 24
f 26 151 149
f 26 28 151
f 80 79 81
f 683 51 49
f 49 48 683
f 49 51 56
f 56 48 49
f 346 345 364
f 364 363 346
f 346 363 342
f 344 343 346
f 346 343 345
f 362 369 327
f 362 363 369
f 342 363 362
f 330 329 354
f 330 452 226
f 331 452 330
f 369 329 328
f 327 369 328
f 328 329 434
f 642 327 328
f 526 452 453
f 488 641 642
f 642 328 488
f 488 328 641
f 632 330 226
f 329 330 632
f 113 139 138
f 138 114 113
f 113 114 295
f 54 53 113
f 53 117 113
f 117 137 113
f 137 139 113
f 113 316 54
f 113 295 253
f 253 316 113
f 130 131 129
f 129 655 130
f 135 59 130
f 59 131 130
f 130 658 135
f 130 655 658
f 659 131 661
f 659 657 129
f 129 131 659
f 201 186 190
f 190 195 201
f 201 188 186
f 203 200 201
f 201 202 203
f 201 195 202
f 201 187 188
f 666 187 201
f 201 496 666
f 201 200 667
f 667 496 201
f 199 196 198
f 196 205 198
f 509 199 198
f 204 202 190
f 190 182 204
f 207 208 85
f 211 212 210
f 182 212 211
f 211 204 182
f 398 386 397
f 386 399 397
f 394 396 397
f 397 396 398
f 397 411 394
f 257 393 258
f 387 393 392
f 392 409 387
f 387 258 393
f 259 258 387
f 414 413 396
f 418 413 414
f 414 396 415
f 415 418 414
f 386 413 385
f 264 263 385
f 385 263 386
f 265 264 385
f 237 236 265
f 265 493 237
f 237 493 236
f 475 540 587
f 587 242 475
f 475 269 540
f 503 661 504
f 503 659 661
f 503 502 657
f 657 659 503
f 583 662 656
f 542 662 583
f 583 584 542
f 583 585 584
f 504 505 544
f 265 266 238
f 238 438 265
f 416 406 265
f 417 406 416
f 265 385 416
f 416 413 417
f 416 385 413
f 417 402 404
f 404 406 417
f 404 402 405
f 405 384 404
f 384 406 404
f 492 239 472
f 267 266 384
f 267 239 266
f 267 384 268
f 268 241 267
f 473 472 267
f 267 472 239
f 407 275 408
f 408 424 407
f 282 275 407
f 281 282 407
f 407 424 281
f 252 292 219
f 99 292 252
f 252 219 276
f 276 99 252
f 478 479 429
f 429 479 220
f 429 47 478
f 220 47 429
f 428 479 478
f 271 220 480
f 220 479 480
f 41 44 478
f 478 47 41
f 45 44 41
f 39 43 40
f 43 45 40
f 128 126 127
f 127 187 128
f 126 187 127
f 170 169 179
f 179 165 170
f 170 165 175
f 175 165 173
f 175 152 170
f 163 152 175
f 175 173 163
f 165 179 178
f 245 180 178
f 178 177 245
f 169 177 178
f 178 179 169
f 104 280 289
f 289 280 279
f 101 105 281
f 281 280 101
f 104 105 101
f 101 280 104
f 309 254 293
f 293 221 309
f 293 254 115
f 115 110 293
f 110 221 293
f 349 348 321
f 285 380 284
f 284 426 285
f 284 380 356
f 284 321 426
f 156 173 154
f 154 171 156
f 112 311 314
f 114 311 112
f 112 314 222
f 222 114 112
f 322 313 347
f 347 312 344
f 347 313 312
f 347 301 322
f 347 323 301
f 347 346 342
f 344 346 347
f 342 324 347
f 324 323 347
f 354 353 341
f 353 371 341
f 341 371 370
f 332 331 341
f 341 370 332
f 341 330 354
f 331 330 341
f 248 306 247
f 306 304 247
f 111 298 223
f 223 304 111
f 298 304 223
f 109 110 111
f 109 297 110
f 111 305 109
f 305 297 109
f 352 353 354
f 352 350 353
f 354 369 352
f 364 366 367
f 366 350 367
f 644 324 225
f 447 522 446
f 446 435 447
f 324 435 446
f 446 225 324
f 327 448 326
f 326 325 342
f 523 325 326
f 342 362 326
f 326 362 327
f 644 522 645
f 645 522 524
f 524 581 645
f 645 581 646
f 645 648 644
f 645 647 648
f 645 646 515
f 645 515 516
f 516 647 645
f 491 477 540
f 540 243 491
f 491 243 477
f 465 606 607
f 607 606 563
f 607 532 464
f 464 231 607
f 533 563 562
f 533 607 563
f 532 607 533
f 562 609 533
f 533 609 608
f 533 608 531
f 531 532 533
f 468 439 469
f 468 263 264
f 264 439 468
f 599 600 468
f 468 469 599
f 233 440 466
f 233 261 440
f 466 494 233
f 233 494 534
f 534 261 233
f 409 261 260
f 232 441 260
f 260 261 232
f 260 607 231
f 260 387 409
f 259 387 260
f 260 441 465
f 465 607 260
f 605 559 482
f 482 611 605
f 605 611 559
f 333 334 432
f 332 370 333
f 376 334 333
f 333 370 376
f 432 487 455
f 455 487 629
f 629 630 455
f 631 527 526
f 631 333 630
f 627 575 577
f 577 575 527
f 527 631 577
f 577 631 630
f 495 463 531
f 531 462 495
f 623 627 622
f 627 621 622
f 456 457 620
f 620 457 431
f 629 456 620
f 620 621 629
f 620 431 335
f 527 575 576
f 576 635 634
f 576 575 572
f 497 517 669
f 517 213 669
f 668 497 669
f 669 213 668
f 393 383 382
f 383 378 382
f 379 381 382
f 382 378 379
f 617 460 485
f 256 460 338
f 338 339 377
f 486 339 338
f 377 383 338
f 383 256 338
f 351 371 353
f 353 350 351
f 351 348 349
f 350 348 351
f 336 340 337
f 336 361 340
f 335 361 336
f 337 228 336
f 336 620 335
f 228 620 336
f 79 80 78
f 82 80 81
f 450 328 434
f 641 328 450
f 433 452 331
f 433 453 452
f 433 331 526
f 526 453 433
f 226 452 525
f 525 632 226
f 525 452 526
f 526 527 525
f 527 576 633
f 633 576 634
f 633 525 527
f 632 525 633
f 633 634 639
f 197 510 509
f 509 198 197
f 197 205 510
f 197 198 205
f 92 193 194
f 193 191 194
f 208 207 194
f 191 213 194
f 194 211 208
f 194 213 215
f 204 211 194
f 215 202 194
f 202 204 194
f 88 194 207
f 89 91 88
f 209 211 210
f 208 211 209
f 210 78 209
f 209 78 80
f 209 82 208
f 80 82 209
f 411 397 410
f 410 409 392
f 410 399 409
f 410 397 399
f 392 390 410
f 410 390 411
f 442 259 463
f 442 258 259
f 463 495 442
f 442 495 258
f 229 462 257
f 257 258 229
f 229 495 462
f 258 495 229
f 230 231 464
f 464 532 230
f 230 532 259
f 259 260 230
f 230 260 231
f 437 242 269
f 269 475 437
f 437 475 242
f 656 502 663
f 502 503 663
f 663 503 585
f 663 583 656
f 585 583 663
f 586 503 504
f 585 503 586
f 505 506 594
f 492 472 537
f 240 241 588
f 240 267 241
f 479 428 427
f 427 480 479
f 271 480 427
f 427 443 271
f 478 443 427
f 427 428 478
f 42 41 47
f 45 41 42
f 42 40 45
f 46 42 47
f 40 42 46
f 217 279 104
f 104 289 217
f 217 289 279
f 245 426 176
f 426 144 176
f 173 321 172
f 172 321 171
f 172 154 173
f 171 154 172
f 174 321 173
f 426 321 146
f 307 171 250
f 171 321 250
f 356 358 355
f 283 284 356
f 321 284 283
f 356 355 283
f 283 355 321
f 246 303 248
f 248 247 246
f 246 304 303
f 246 247 304
f 350 352 368
f 368 367 350
f 368 352 369
f 369 363 368
f 368 363 364
f 364 367 368
f 490 446 522
f 225 446 490
f 490 522 644
f 644 225 490
f 489 448 643
f 489 326 448
f 489 643 523
f 523 326 489
f 235 468 600
f 263 468 235
f 600 234 235
f 235 234 263
f 432 455 454
f 454 455 630
f 454 333 432
f 630 333 454
f 526 332 227
f 227 631 526
f 332 333 227
f 333 631 227
f 627 577 628
f 629 621 628
f 628 621 627
f 628 630 629
f 628 577 630
f 614 609 610
f 614 615 609
f 614 611 613
f 610 611 614
f 613 564 614
f 564 567 614
f 618 460 617
f 617 571 618
f 618 338 460
f 616 571 617
f 616 617 608
f 608 609 616
f 609 615 616
f 574 576 572
f 635 576 574
f 572 573 574
f 574 573 636
f 636 635 574
f 392 393 391
f 393 382 391
f 461 256 617
f 617 485 461
f 461 460 256
f 461 485 460
f 357 358 359
f 359 374 357
f 357 355 358
f 374 355 357
f 376 371 375
f 371 374 375
f 375 359 376
f 375 374 359
f 372 374 371
f 371 351 372
f 372 351 349
f 77 210 76
f 77 78 210
f 79 78 77
f 76 19 77
f 77 19 17
f 77 17 79
f 83 82 84
f 84 85 83
f 85 208 83
f 208 82 83
f 451 632 641
f 641 450 451
f 451 450 434
f 434 329 451
f 329 632 451
f 640 633 639
f 639 582 640
f 641 632 640
f 632 633 640
f 640 582 642
f 642 641 640
f 87 207 85
f 87 88 207
f 87 85 86
f 89 88 87
f 7 89 87
f 87 9 7
f 92 194 90
f 194 88 90
f 90 91 92
f 90 88 91
f 593 544 505
f 505 594 593
f 552 506 481
f 470 438 471
f 438 238 471
f 471 598 470
f 587 584 549
f 549 588 587
f 538 240 588
f 538 472 473
f 538 537 472
f 473 267 538
f 267 240 538
f 544 593 546
f 251 220 271
f 251 287 220
f 251 271 39
f 39 287 251
f 39 40 38
f 38 287 39
f 40 287 38
f 436 47 220
f 220 287 436
f 436 46 47
f 40 46 436
f 436 287 40
f 165 178 181
f 181 176 165
f 181 178 180
f 181 180 245
f 147 144 426
f 426 146 147
f 321 174 145
f 145 146 321
f 145 174 173
f 145 147 146
f 144 147 145
f 145 176 144
f 173 165 145
f 165 176 145
f 320 250 321
f 307 250 320
f 320 321 348
f 320 249 302
f 302 307 320
f 320 306 248
f 248 249 320
f 320 348 366
f 364 306 320
f 320 365 364
f 366 365 320
f 349 321 373
f 321 355 373
f 373 355 374
f 373 372 349
f 374 372 373
f 569 616 615
f 571 616 569
f 615 614 569
f 569 614 567
f 337 458 529
f 388 382 381
f 388 391 382
f 388 389 390
f 388 390 392
f 392 391 388
f 380 389 388
f 388 381 380
f 558 561 602
f 601 556 602
f 563 601 602
f 602 561 563
f 536 556 601
f 534 535 536
f 536 601 534
f 535 600 536
f 589 597 598
f 598 471 589
f 589 471 238
f 589 238 266
f 492 537 589
f 589 239 492
f 266 239 589
f 550 594 506
f 506 552 550
f 550 552 594
f 551 481 482
f 551 552 481
f 558 602 603
f 553 556 555
f 594 552 553
f 584 585 547
f 547 549 584
f 539 547 548
f 549 547 539
f 537 538 539
f 588 549 539
f 539 538 588
f 544 546 545
f 504 544 545
f 545 586 504
f 585 586 545
f 545 547 585
f 545 546 548
f 548 547 545
f 548 546 591
f 245 176 164
f 164 181 245
f 176 181 164
f 571 569 530
f 530 622 621
f 566 623 568
f 568 564 566
f 568 567 564
f 619 618 571
f 571 530 619
f 619 530 529
f 486 338 619
f 338 618 619
f 619 459 486
f 458 459 619
f 619 529 458
f 337 529 528
f 528 228 337
f 528 620 228
f 621 620 528
f 528 530 621
f 529 530 528
f 557 600 599
f 557 536 600
f 557 597 555
f 555 556 557
f 556 536 557
f 599 598 557
f 598 597 557
f 552 551 604
f 482 559 604
f 604 551 482
f 604 559 558
f 558 603 604
f 554 553 552
f 552 604 554
f 554 604 603
f 556 553 554
f 554 602 556
f 554 603 602
f 592 546 593
f 592 591 546
f 592 593 594
f 597 589 590
f 590 591 597
f 590 589 537
f 537 539 590
f 590 539 548
f 548 591 590
f 570 530 569
f 570 569 567
f 567 568 570
f 622 530 570
f 623 622 570
f 570 568 623
f 594 553 595
f 595 592 594
f 591 592 595
f 595 553 555
f 597 591 596
f 591 595 596
f 555 597 596
f 596 595 555
f 33 66 65
f 33 65 34
f 95 93 96
f 96 93 94
f 94 2 96
f 2 1 96
f 84 10 86
f 11 10 84
f 27 25 73
f 73 72 27
f 68 69 71
f 70 68 71
f 29 28 71
f 71 69 29
f 18 19 21
f 20 18 21
f 11 84 82
f 82 13 11
f 81 14 82
f 14 13 82
f 86 10 87
f 10 9 87

