# https://github.com/mikedh/trimesh
v 0.00879460 0.01015645 -0.02547253
v 0.00033844 0.01011779 -0.02983074
v 0.00161659 0.01012495 -0.03000433
v 0.00416592 0.01013816 -0.02967930
v 0.00535963 0.01014381 -0.02919055
v 0.00740490 0.01015237 -0.02763438
v 0.00819432 0.01015502 -0.02661425
v -0.00089014 0.01011056 -0.02943783
v 0.00925148 0.01205642 -0.02386843
v 0.00904153 0.01205668 -0.02475501
v 0.00917729 0.01205660 -0.02424094
v 0.00818409 0.01205499 -0.02661126
v 0.00830437 0.01205533 -0.02641767
v 0.00872422 0.01205632 -0.02560908
v 0.00878438 0.01205642 -0.02546955
v 0.00778833 0.01205373 -0.02716854
v 0.00739468 0.01205234 -0.02763139
v 0.00718393 0.01205155 -0.02785031
v 0.00650033 0.01204882 -0.02845263
v 0.00574790 0.01204558 -0.02896639
v 0.00644011 0.01204857 -0.02849895
v 0.00493804 0.01204188 -0.02938378
v 0.00534940 0.01204378 -0.02918756
v 0.00289525 0.01203177 -0.02995035
v 0.00319582 0.01203332 -0.02990573
v 0.00408303 0.01203777 -0.02969849
v 0.00415569 0.01203813 -0.02967631
v 0.00228987 0.01202860 -0.03000238
v 0.00160637 0.01202492 -0.03000134
v 0.00137892 0.01202367 -0.02998697
v 0.00047676 0.01201862 -0.02985972
v -0.00040292 0.01201351 -0.02962258
v 0.00032822 0.01201777 -0.02982775
v -0.00124680 0.01200843 -0.02927912
v -0.00090037 0.01201054 -0.02943485
v -0.00277667 0.01199865 -0.02829565
v -0.00204206 0.01200345 -0.02883456
v -0.00343949 0.01199410 -0.02767054
v -0.00306218 0.01199672 -0.02804515
v -0.00451079 0.01198602 -0.02620081
v -0.00402046 0.01198987 -0.02696872
v -0.00392971 0.01199055 -0.02709058
v 0.00872091 0.01254945 -0.02124711
v 0.00883699 0.01255140 -0.02208867
v 0.00884877 0.01255280 -0.02293813
v 0.00875608 0.01255362 -0.02378260
v 0.00850229 0.01254698 -0.02042618
v -0.00307739 0.01249551 -0.02732781
v -0.00361911 0.01249157 -0.02667341
v -0.00103285 0.01250888 -0.02882770
v -0.00177438 0.01250423 -0.02841319
v -0.00245936 0.01249976 -0.02791068
v 0.00141545 0.01252309 -0.02948772
v 0.00057425 0.01251838 -0.02936907
v -0.00024600 0.01251361 -0.02914795
v 0.00393685 0.01253624 -0.02921873
v 0.00310959 0.01253209 -0.02941198
v 0.00226486 0.01252768 -0.02950210
v 0.00619083 0.01254654 -0.02805706
v 0.00548923 0.01254352 -0.02853610
v 0.00473409 0.01254007 -0.02892529
v 0.00787296 0.01255261 -0.02615960
v 0.00739179 0.01255112 -0.02685973
v 0.00682823 0.01254909 -0.02749543
v 0.00856032 0.01255387 -0.02460928
v 0.00826445 0.01255353 -0.02540563
v 0.00715603 0.01224270 -0.02782305
v 0.00775732 0.01224487 -0.02714480
v 0.00827070 0.01224646 -0.02639779
v 0.00868840 0.01224744 -0.02559335
v 0.00647595 0.01223999 -0.02842228
v 0.00572739 0.01223676 -0.02893339
v 0.00492169 0.01223308 -0.02934864
v 0.00407108 0.01222899 -0.02966172
v 0.00318843 0.01222457 -0.02986791
v 0.00228714 0.01221987 -0.02996406
v 0.00138087 0.01221497 -0.02994872
v 0.00048335 0.01220994 -0.02982213
v -0.00039180 0.01220485 -0.02958621
v -0.00123133 0.01219980 -0.02924452
v -0.00202251 0.01219485 -0.02880225
v -0.00275334 0.01219007 -0.02826610
v -0.00341275 0.01218554 -0.02764421
v -0.00399074 0.01218133 -0.02694600
v -0.00447854 0.01217751 -0.02618204
v 0.00931184 0.01224666 -0.02296065
v 0.00921294 0.01224754 -0.02386166
v 0.00900407 0.01224781 -0.02474368
v 0.00919032 0.01240681 -0.02206225
v -0.00438464 0.01234014 -0.02612919
v -0.00390402 0.01234391 -0.02688190
v -0.00333455 0.01234806 -0.02756983
v -0.00268485 0.01235252 -0.02818257
v -0.00196478 0.01235723 -0.02871082
v -0.00118525 0.01236211 -0.02914658
v -0.00035808 0.01236709 -0.02948323
v 0.00050420 0.01237210 -0.02971569
v 0.00138850 0.01237705 -0.02984042
v 0.00228143 0.01238188 -0.02985553
v 0.00316945 0.01238651 -0.02976079
v 0.00403910 0.01239087 -0.02955764
v 0.00487719 0.01239490 -0.02924917
v 0.00567103 0.01239853 -0.02884003
v 0.00640857 0.01240170 -0.02833645
v 0.00707864 0.01240438 -0.02774604
v 0.00767107 0.01240652 -0.02707777
v 0.00817690 0.01240808 -0.02634176
v 0.00858844 0.01240905 -0.02554916
v 0.00889947 0.01240941 -0.02471200
v 0.00910526 0.01240915 -0.02384297
v 0.00920271 0.01240828 -0.02295523
v 0.00902799 0.01251434 -0.02207431
v 0.00890869 0.01251234 -0.02120940
v 0.00868401 0.01250980 -0.02036571
v -0.00424340 0.01244917 -0.02605030
v -0.00377352 0.01245285 -0.02678618
v -0.00321678 0.01245691 -0.02745873
v -0.00258161 0.01246127 -0.02805776
v -0.00187765 0.01246587 -0.02857420
v -0.00111555 0.01247064 -0.02900021
v -0.00030688 0.01247551 -0.02932934
v 0.00053612 0.01248041 -0.02955660
v 0.00140064 0.01248525 -0.02967853
v 0.00227360 0.01248997 -0.02969331
v 0.00314177 0.01249450 -0.02960069
v 0.00399197 0.01249876 -0.02940208
v 0.00481132 0.01250270 -0.02910051
v 0.00558740 0.01250624 -0.02870052
v 0.00630844 0.01250935 -0.02820820
v 0.00696353 0.01251197 -0.02763100
v 0.00754272 0.01251406 -0.02697767
v 0.00803723 0.01251559 -0.02625811
v 0.00843957 0.01251653 -0.02548325
v 0.00874364 0.01251688 -0.02466481
v 0.00894484 0.01251663 -0.02381521
v 0.00904010 0.01251578 -0.02294732
v -0.00970008 -0.00854425 -0.01753898
v -0.00979144 0.00843228 -0.01751228
v -0.00970103 0.00841628 -0.01562101
v -0.00918508 0.00823339 -0.00483819
v -0.00776753 -0.00181214 0.02369666
v -0.00776540 -0.00072697 0.02386532
v -0.00777078 0.00036424 0.02387726
v -0.00778364 0.00145163 0.02373225
v -0.00790122 0.00523638 0.02170264
v -0.00806645 -0.00759356 0.01677670
v -0.00801654 -0.00747270 0.01783567
v -0.00796844 -0.00719833 0.01887415
v -0.00813915 0.00738127 0.01696558
v -0.00781670 -0.00471598 0.02233531
v -0.00786307 0.00442152 0.02240844
v -0.00799071 0.00651815 0.01997516
v -0.00788243 -0.00620982 0.02078823
v 0.00128467 -0.01272299 -0.01509172
v 0.00209120 -0.01269854 -0.01504863
v 0.00245489 -0.01268523 -0.01505726
v 0.00981554 0.01164269 -0.01537684
v 0.00355983 -0.01263154 -0.01510997
v 0.00231761 0.01282329 -0.01501715
v 0.00397828 0.01275123 -0.01509657
v 0.00553962 0.01262080 -0.01517131
v 0.00199999 0.01283155 -0.01500862
v 0.00119876 0.01284771 -0.01504616
v -0.00539502 0.01283971 -0.00880453
v -0.00514673 0.01266875 -0.00362491
v 0.00452221 0.01076164 0.01670586
v 0.00476011 0.01071329 0.01669443
v 0.00482499 0.01141690 0.00755480
v 0.00326796 0.01165125 0.00762998
v 0.00489056 0.01200741 -0.00158354
v -0.00564313 0.01295742 -0.01398626
v 0.01075947 -0.01062218 -0.01082565
v 0.01047880 -0.00999864 -0.00188392
v 0.00976444 -0.01043429 -0.00184973
v 0.01290136 0.00638490 -0.00838152
v 0.01275900 0.00726000 -0.00852914
v 0.00148867 0.01270859 -0.01055703
v 0.00322471 0.01263071 -0.01064132
v 0.00495656 0.01248501 -0.01072565
v 0.01000366 0.01125548 -0.01148188
v 0.01141292 0.01015965 -0.00996465
v 0.01098634 0.01056534 -0.01042336
v 0.01037020 0.01018178 -0.00185219
v 0.01051526 0.01092893 -0.01093055
v 0.00965120 0.01060960 -0.00181664
v 0.01000085 0.01121553 -0.01097291
v 0.00889640 0.01096489 -0.00177947
v 0.01160144 0.00905644 -0.00191371
v 0.01184950 0.00961933 -0.00949610
v 0.01103302 0.00966908 -0.00188515
v 0.01152198 0.01003920 -0.00984749
v 0.01270187 0.00753110 -0.00858897
v 0.01252105 0.00820883 -0.00877966
v 0.01203964 0.00834641 -0.00193615
v 0.01230055 0.00880260 -0.00901394
v 0.01213355 0.00915036 -0.00919212
v 0.01302007 0.00524644 -0.00826146
v 0.01314063 0.00278192 -0.00814920
v 0.01307176 0.00449293 -0.00821108
v 0.01318020 -0.00108074 -0.00813494
v 0.01304105 0.00010585 -0.00199807
v 0.01316651 -0.00271811 -0.00816187
v 0.01312096 -0.00421583 -0.00822226
v 0.01300271 -0.00585503 -0.00836237
v 0.01307753 -0.00498221 -0.00827493
v 0.01275374 -0.00742837 -0.00864349
v 0.01289729 -0.00667096 -0.00848251
v 0.01169783 -0.00885991 -0.00194188
v 0.01233047 -0.00872042 -0.00911119
v 0.01254451 -0.00817932 -0.00887551
v 0.01271516 -0.00759078 -0.00868644
v 0.01113605 -0.00947872 -0.00191526
v 0.01184223 -0.00955102 -0.00964578
v 0.01215242 -0.00907107 -0.00930650
v 0.01128168 -0.01018274 -0.01025717
v 0.01147148 -0.00999289 -0.01005034
v 0.01150853 -0.00995336 -0.01000995
v 0.01012368 -0.01104594 -0.01151695
v 0.01012049 -0.01100760 -0.01100786
v 0.00335979 -0.01249667 -0.01068083
v 0.00162467 -0.01259349 -0.01059680
v -0.00551612 -0.01291206 -0.01428285
v -0.00574951 -0.01295905 -0.01917531
v -0.00502752 -0.01265949 -0.00402300
v -0.00516134 -0.01274952 -0.00683530
v -0.00588934 0.01302172 -0.01913446
v -0.00459297 -0.01225791 0.00512204
v -0.00489063 -0.01255103 -0.00114422
v -0.00131194 -0.01196440 0.00781879
v -0.00445787 -0.01209890 0.00796913
v -0.00104393 -0.01136630 0.01694261
v -0.00402590 -0.01148132 0.01708489
v -0.00429188 -0.01188127 0.01146980
v 0.00494746 -0.01132292 0.00751904
v 0.00648191 -0.01096640 0.00744568
v 0.00631797 -0.01026943 0.01659242
v 0.00531921 -0.01054548 0.01663976
v 0.00487525 -0.01064878 0.01666083
v 0.00339308 -0.01157425 0.00759345
v 0.00316833 -0.01095912 0.01674195
v 0.00182878 -0.01175012 0.00766839
v 0.00192969 -0.01111915 0.01680091
v 0.00051047 -0.01125678 0.01686851
v -0.00158066 -0.01240414 -0.00130273
v 0.00172721 -0.01224149 -0.00146210
v 0.00337687 -0.01209889 -0.00154177
v 0.00501912 -0.01188395 -0.00162111
v 0.00797872 -0.01046980 0.00737429
v 0.01202331 -0.00560794 0.01632604
v 0.01195160 -0.00583740 0.01632917
v 0.01155439 -0.00679787 0.01634688
v 0.01172622 -0.00768551 0.00719736
v 0.01132390 -0.00718750 0.01635737
v 0.01127460 -0.00833462 0.00721833
v 0.01098216 -0.00762510 0.01637312
v 0.01085116 -0.00776412 0.01637919
v 0.01071318 -0.00889327 0.00724466
v 0.01021352 -0.00831429 0.01640893
v 0.01008140 -0.00937437 0.00727447
v 0.00968372 -0.00869036 0.01643374
v 0.00940793 -0.00979380 0.00730636
v 0.00888113 -0.00918309 0.01647142
v 0.00771829 -0.00975558 0.01652621
v 0.00715155 -0.00998387 0.01655298
v 0.01118412 0.00849773 0.00724479
v 0.01061671 0.00905024 0.00727287
v 0.00997977 0.00952443 0.00730419
v 0.01317677 0.00014632 -0.00812958
v 0.00324609 0.01220441 -0.00150355
v 0.00159499 0.01232900 -0.00142346
v 0.00164833 0.01208695 0.00314118
v -0.00171444 0.01245552 -0.00126364
v -0.00157781 0.01224254 0.00329663
v 0.00652015 0.01170643 -0.00166304
v 0.00636324 0.01107714 0.00748035
v 0.00811843 0.01125993 -0.00174127
v 0.00786536 0.01059689 0.00740741
v 0.00859430 0.01029185 0.00737192
v 0.00930180 0.00993650 0.00733738
v 0.01161205 0.00667251 0.01636184
v 0.01137251 0.00712538 0.01637388
v 0.00895280 0.00919610 0.01649218
v 0.00975871 0.00869515 0.01645302
v 0.01020071 0.00837905 0.01643150
v 0.01075037 0.00791028 0.01640463
v 0.01124597 0.00732232 0.01638018
v 0.00639251 0.01029307 0.01661591
v 0.00761278 0.00985113 0.01655704
v 0.00816927 0.00960321 0.01653014
v 0.00154178 0.01253620 -0.00598927
v 0.00170184 0.01181004 0.00770544
v -0.00144099 0.01199001 0.00785646
v 0.00901351 -0.01079779 -0.00181369
v -0.00489772 0.01244396 0.00156344
v -0.00464853 0.01216567 0.00674959
v -0.00439901 0.01183381 0.01193641
v 0.00329060 0.01097101 0.01676496
v 0.00187109 0.01114520 0.01683299
v -0.00116658 0.01136615 0.01697837
v -0.00189264 0.01139714 0.01701309
v -0.00414931 0.01144860 0.01712095
v 0.01181823 0.00617624 0.01635134
v 0.01188811 0.00597908 0.01634774
v 0.01221925 0.00474581 0.01633030
v 0.01249321 0.00294414 0.01631485
v 0.01259703 0.00156887 0.01630808
v 0.01263545 0.00007490 0.01630428
v 0.01239148 -0.00389905 0.01631071
v -0.00300586 -0.01138266 0.01779213
v -0.00280933 -0.01139540 0.01761659
v 0.01161881 -0.00647861 0.01767899
v 0.01126142 -0.00711596 0.01765621
v -0.00109306 -0.01133462 0.01736918
v 0.00042054 0.01078349 0.01977587
v 0.00078751 0.01084585 0.01941570
v -0.00170099 0.01125207 0.01821812
v 0.00180003 0.01111558 0.01728931
v 0.00619064 0.01027602 0.01746194
v 0.00758896 0.00976474 0.01752076
v -0.00370631 0.00678381 0.02586416
v -0.00369235 0.00641894 0.02611476
v -0.00119964 0.00633151 0.02606409
v -0.00312837 0.01135871 0.01782788
v -0.00335616 0.01134500 0.01797630
v -0.00293202 0.01137411 0.01765237
v -0.00360259 0.01133381 0.01808933
v 0.00314790 0.00939807 0.02238186
v 0.00211902 0.00993020 0.02163837
v 0.00145725 0.00981690 0.02204447
v 0.00507442 0.00801084 0.02376221
v 0.00413922 0.00875995 0.02309456
v 0.00326731 0.00860393 0.02359631
v 0.00632545 0.00669569 0.02463419
v 0.00594034 0.00715837 0.02436315
v 0.00487968 0.00698431 0.02493579
v 0.00776977 0.00131769 0.02588219
v 0.00765424 0.00259333 0.02575617
v 0.00642449 0.00251200 0.02639145
v -0.00373152 -0.01135881 0.01812974
v -0.00348038 -0.01136369 0.01805365
v -0.00161023 -0.01094265 0.01971230
v 0.00012853 -0.01071883 0.02006940
v -0.00031474 -0.01066438 0.02035871
v -0.00242736 -0.01119426 0.01882009
v -0.00292419 -0.01116897 0.01902831
v -0.00343114 -0.01115288 0.01916597
v -0.00393379 -0.01119117 0.01904683
v -0.00397503 -0.01135780 0.01816422
v -0.00221315 -0.00942238 0.02303757
v -0.00191868 -0.00877547 0.02389509
v -0.00370891 -0.00873612 0.02403624
v -0.00386554 -0.01075867 0.02052538
v -0.00312672 -0.01085692 0.02018467
v -0.00385093 -0.01063675 0.02084522
v -0.00282050 -0.01046881 0.02117557
v -0.00379605 -0.01006960 0.02205913
v -0.00251501 -0.00998875 0.02212881
v -0.00377554 -0.00980857 0.02251847
v -0.00373253 -0.00916032 0.02349321
v 0.00062808 -0.01027673 0.02119366
v 0.00118173 -0.01035610 0.02084321
v 0.00156329 -0.00980464 0.02201393
v 0.00222630 -0.00990953 0.02160748
v 0.00247923 -0.00924094 0.02280988
v 0.00324944 -0.00936861 0.02235270
v 0.00336028 -0.00857693 0.02356973
v 0.00423387 -0.00872198 0.02306748
v 0.00418964 -0.00780909 0.02427878
v 0.00516097 -0.00796482 0.02373753
v 0.00495515 -0.00694400 0.02491434
v 0.00601766 -0.00710484 0.02434115
v 0.00639772 -0.00663882 0.02461364
v 0.00558193 -0.00598031 0.02545694
v -0.00113116 -0.00636019 0.02604459
v -0.00093267 -0.00539968 0.02655705
v -0.00360042 -0.00539575 0.02668959
v -0.00361915 -0.00632238 0.02619162
v -0.00362467 -0.00654067 0.02605097
v -0.00137209 -0.00724426 0.02541583
v -0.00365372 -0.00747389 0.02533601
v -0.00163647 -0.00804931 0.02469200
v -0.00071043 -0.00330377 0.02720750
v -0.00358450 -0.00402558 0.02717954
v -0.00079801 -0.00437330 0.02694112
v -0.00358697 -0.00432583 0.02709353
v -0.00359508 -0.00504088 0.02684205
v -0.00366423 -0.00775256 0.02508410
v -0.00367726 -0.00806874 0.02477529
v -0.00370371 -0.00863500 0.02415661
v 0.00671852 -0.00613789 0.02486033
v 0.00697845 -0.00559278 0.02507385
v 0.00600448 -0.00487590 0.02587117
v 0.00718866 -0.00501049 0.02525623
v 0.00627927 -0.00368441 0.02617085
v 0.00749269 -0.00378626 0.02554345
v 0.00645139 -0.00245932 0.02638382
v 0.00768194 -0.00252539 0.02574830
v 0.00654449 -0.00121953 0.02651884
v 0.00778366 -0.00124887 0.02587826
v 0.00656950 0.00002684 0.02657277
v 0.00781080 0.00003455 0.02592980
v 0.00653101 0.00127297 0.02652265
v 0.00745135 0.00385261 0.02555522
v 0.00623913 0.00373572 0.02618227
v 0.00519818 0.00122934 0.02698875
v 0.00523351 0.00001889 0.02703993
v 0.00521127 -0.00119175 0.02698505
v 0.00512854 -0.00239618 0.02684891
v 0.00497638 -0.00358697 0.02663406
v 0.00473469 -0.00474742 0.02633025
v 0.00436443 -0.00583090 0.02590824
v 0.00381717 -0.00679256 0.02535513
v 0.00314954 -0.00766254 0.02470183
v 0.00242523 -0.00844028 0.02396886
v 0.00165541 -0.00912054 0.02317940
v 0.00085490 -0.00970572 0.02234818
v 0.00003739 -0.01020200 0.02148694
v -0.00078680 -0.01061331 0.02060516
v 0.00713407 0.00507425 0.02527177
v 0.00595144 0.00492498 0.02588625
v 0.00691754 0.00565473 0.02509118
v 0.00410489 0.00784297 0.02430293
v 0.00665169 0.00619756 0.02487934
v 0.00551691 0.00602588 0.02547541
v -0.00236029 -0.01089082 0.01999890
v -0.00128163 -0.01056691 0.02080388
v -0.00058295 -0.01013386 0.02171686
v 0.00010985 -0.00961540 0.02260273
v 0.00078798 -0.00901059 0.02345256
v 0.00143984 -0.00831559 0.02425505
v 0.00205281 -0.00752897 0.02499585
v 0.00261682 -0.00665448 0.02565179
v 0.00307970 -0.00569390 0.02620186
v 0.00339345 -0.00462897 0.02662021
v 0.00359859 -0.00349706 0.02691903
v 0.00372818 -0.00233806 0.02712894
v 0.00379885 -0.00116652 0.02726181
v 0.00381769 0.00001082 0.02731607
v 0.00378612 0.00118801 0.02726541
v 0.00231652 0.00115021 0.02736443
v 0.00234380 0.00000272 0.02741311
v 0.00232892 -0.00114488 0.02736093
v 0.00227167 -0.00228707 0.02723523
v 0.00216671 -0.00341777 0.02703640
v 0.00200076 -0.00452448 0.02675078
v 0.00174671 -0.00557350 0.02634628
v 0.00137188 -0.00653372 0.02581122
v 0.00091567 -0.00741217 0.02516612
v 0.00041869 -0.00820646 0.02443206
v -0.00011027 -0.00891429 0.02363171
v -0.00066092 -0.00953631 0.02277869
v -0.00122392 -0.01007429 0.02188353
v -0.00179213 -0.01052648 0.02095423
v 0.00237917 0.00926069 0.02283859
v 0.00106974 0.01036782 0.02087556
v 0.00051704 0.01028140 0.02122574
v 0.00001275 0.01072157 0.02010295
v -0.00209172 0.01121099 0.01856779
v -0.00254790 0.01117333 0.01885520
v -0.00042986 0.01066145 0.02039207
v -0.00172817 0.01092775 0.01974658
v -0.00090128 0.01060452 0.02063835
v -0.00065511 -0.00221514 0.02739019
v -0.00062535 -0.00111669 0.02750543
v -0.00061892 -0.00001348 0.02755460
v -0.00063725 0.00108973 0.02750881
v -0.00074592 0.00327656 0.02721762
v -0.00362029 0.00354619 0.02729525
v -0.00359767 0.00185678 0.02757598
v 0.00493740 0.00362280 0.02664514
v 0.00510243 0.00243314 0.02685632
v 0.00356068 0.00351715 0.02692980
v 0.00370279 0.00235906 0.02713614
v 0.00212977 0.00342208 0.02704691
v 0.00224694 0.00229204 0.02724225
v -0.00067885 0.00218810 0.02739695
v -0.00359406 0.00151253 0.02761208
v -0.00364646 0.00487579 0.02689935
v -0.00099078 0.00537174 0.02657358
v -0.00364960 0.00500552 0.02684840
v -0.00365682 0.00528663 0.02672935
v 0.00430115 0.00586197 0.02592621
v 0.00468315 0.00478140 0.02634489
v 0.00301802 0.00571023 0.02621937
v 0.00334330 0.00464760 0.02663447
v 0.00168647 0.00557505 0.02636339
v 0.00195186 0.00452771 0.02676468
v -0.00084504 0.00434581 0.02695451
v -0.00363322 0.00426791 0.02710694
v 0.00306650 0.00768391 0.02472549
v 0.00374347 0.00681925 0.02537606
v 0.00197134 0.00753763 0.02501906
v 0.00254474 0.00666734 0.02567226
v 0.00083560 0.00740807 0.02518895
v 0.00130125 0.00653269 0.02583130
v -0.00145008 0.00721477 0.02543810
v -0.00372102 0.00713520 0.02559610
v 0.00155677 0.00913027 0.02320770
v 0.00233385 0.00845597 0.02399498
v 0.00069064 0.00901014 0.02348049
v 0.00134993 0.00831980 0.02428076
v -0.00020645 0.00890361 0.02365933
v 0.00033010 0.00819913 0.02445740
v -0.00201312 0.00874452 0.02392225
v -0.00172311 0.00801905 0.02471682
v -0.00139553 0.01055217 0.02083691
v -0.00247753 0.01086695 0.02003300
v -0.00190552 0.01050578 0.02098712
v -0.00324348 0.01082421 0.02021865
v -0.00293310 0.01043635 0.02120826
v -0.00304437 0.01114203 0.01906334
v -0.00355106 0.01112006 0.01920094
v 0.00075002 0.00970932 0.02237838
v 0.00000606 0.00961019 0.02263263
v -0.00076376 0.00952225 0.02280833
v -0.00231454 0.00939081 0.02306682
v -0.00381177 0.00882749 0.02388931
v -0.00375926 0.00793020 0.02488630
v -0.00374231 0.00759567 0.02520311
v -0.00389047 0.00987233 0.02236085
v -0.00388855 0.00985053 0.02239843
v -0.00262247 0.00995667 0.02215992
v -0.00382020 0.00895501 0.02372732
v -0.00007276 0.01019939 0.02151877
v -0.00069226 0.01012386 0.02174846
v -0.00133249 0.01005687 0.02191492
v -0.00409709 0.01132233 0.01819987
v -0.00385363 0.01132598 0.01816540
v -0.00408364 0.01127617 0.01847626
v -0.00405388 0.01115275 0.01908533
v -0.00400459 0.01087918 0.02008620
v -0.00397187 0.01064674 0.02074485
v -0.00396575 0.01059854 0.02086741
v -0.00392774 0.01026340 0.02162497
v 0.01154788 0.00661378 0.01769954
v 0.01118351 0.00724718 0.01767876
v 0.01071281 0.00780367 0.01765484
v 0.01015484 0.00828182 0.01762982
v 0.00891811 0.00910024 0.01757767
v 0.00474795 0.01065292 0.01740289
v 0.00158349 0.01102162 0.01818547
v 0.00301864 0.01079408 0.01848447
v 0.00319384 0.01086373 0.01792157
v 0.00328029 0.01092338 0.01734491
v 0.00172717 0.01107185 0.01774174
v -0.00121539 0.01133261 0.01740481
v 0.01040577 0.00419411 0.02282923
v 0.01094248 0.00497841 0.02160935
v 0.01002665 0.00551502 0.02262547
v 0.01072534 0.00564589 0.02151983
v 0.00976292 0.00613907 0.02249614
v 0.01045213 0.00628480 0.02141463
v 0.00943392 0.00671521 0.02234326
v 0.01010856 0.00687395 0.02128986
v 0.00902433 0.00722977 0.02216446
v 0.00967786 0.00739659 0.02114335
v 0.00853868 0.00769327 0.02196784
v 0.00916681 0.00786203 0.02098256
v 0.00744904 0.00852776 0.02153931
v 0.00802231 0.00869130 0.02063415
v 0.00627496 0.00923910 0.02106899
v 0.00678994 0.00939009 0.02025310
v 0.00503259 0.00981884 0.02057291
v 0.00548716 0.00995090 0.01985267
v 0.00374466 0.01027694 0.02006179
v 0.00413762 0.01038567 0.01944176
v 0.00243152 0.01063299 0.01954417
v 0.00276208 0.01071648 0.01902740
v 0.00110766 0.01090724 0.01902733
v 0.00137499 0.01096629 0.01861563
v -0.00140059 0.01129360 0.01782439
v 0.00339828 -0.01087674 0.01731065
v 0.00486301 -0.01059062 0.01736950
v 0.00630161 -0.01019831 0.01742977
v 0.00769437 -0.00967209 0.01749023
v 0.00184676 -0.01104321 0.01770701
v 0.00192009 -0.01108473 0.01725441
v 0.01079686 -0.00767755 0.01763054
v 0.01024412 -0.00816171 0.01760400
v 0.00901629 -0.00899337 0.01754926
v 0.01189066 -0.00579460 0.01769900
v 0.01209906 -0.00508562 0.01771689
v 0.01225900 -0.00436245 0.01773293
v 0.01247118 -0.00289430 0.01775955
v 0.01257679 -0.00141285 0.01777799
v 0.01260107 0.00007326 0.01778661
v 0.01256072 0.00155891 0.01778265
v 0.01243909 0.00303902 0.01776886
v 0.01221103 0.00450473 0.01774684
v 0.01204325 0.00522611 0.01773307
v 0.01182716 0.00593277 0.01771740
v 0.00464797 0.01057640 0.01810483
v 0.00444163 0.01048640 0.01878695
v 0.00607613 0.01018281 0.01828849
v 0.00583833 0.01007333 0.01908830
v 0.00745802 0.00965664 0.01846916
v 0.00718798 0.00953051 0.01938322
v 0.00876893 0.00898150 0.01864252
v 0.00846630 0.00884387 0.01966495
v 0.00998792 0.00816043 0.01880187
v 0.00965424 0.00801913 0.01992334
v 0.01053548 0.00768782 0.01887650
v 0.01018603 0.00755070 0.02004335
v 0.01099698 0.00714434 0.01894523
v 0.01063412 0.00701846 0.02015306
v 0.01135848 0.00652652 0.01900354
v 0.01098860 0.00641540 0.02024617
v 0.01163972 0.00585888 0.01905258
v 0.01126774 0.00576188 0.02032446
v 0.01185967 0.00516371 0.01909450
v 0.01148797 0.00507990 0.02039114
v 0.01203191 0.00445249 0.01913048
v 0.01166165 0.00438110 0.02044811
v 0.01226840 0.00300468 0.01918665
v 0.01190218 0.00295674 0.02053662
v 0.01239593 0.00154068 0.01922169
v 0.01203319 0.00151501 0.02059186
v 0.01243845 0.00007010 0.01923352
v 0.01207717 0.00006597 0.02061129
v 0.01241184 -0.00140093 0.01921709
v 0.01204887 -0.00138349 0.02058735
v 0.01230016 -0.00286627 0.01917747
v 0.01193347 -0.00282653 0.02052761
v 0.01207936 -0.00431650 0.01911676
v 0.01170838 -0.00425326 0.02043464
v 0.01191485 -0.00502950 0.01907855
v 0.01154229 -0.00495378 0.02037548
v 0.01170247 -0.00572694 0.01903444
v 0.01132949 -0.00563797 0.02030667
v 0.01142851 -0.00639751 0.01898332
v 0.01105748 -0.00629431 0.02022633
v 0.01107380 -0.00701913 0.01892307
v 0.01070962 -0.00690099 0.02013134
v 0.01061830 -0.00756747 0.01885263
v 0.01026739 -0.00743780 0.02001996
v 0.01007592 -0.00804582 0.01877650
v 0.00974073 -0.00791164 0.01989848
v 0.00886585 -0.00887959 0.01861455
v 0.00856175 -0.00874843 0.01963747
v 0.00756228 -0.00956838 0.01843904
v 0.00729090 -0.00944804 0.01935355
v 0.00618611 -0.01010894 0.01825667
v 0.00594713 -0.01000453 0.01905688
v 0.00476222 -0.01051738 0.01807173
v 0.00455491 -0.01043175 0.01875418
v 0.00331119 -0.01081984 0.01788753
v 0.00313525 -0.01075385 0.01845068
v 0.00170254 -0.01099593 0.01815092
v -0.00127869 -0.01129893 0.01778890
v -0.00197074 -0.01122611 0.01853256
v -0.00323381 -0.01137187 0.01794059
v -0.00398314 -0.01138325 0.01799146
v 0.00053700 -0.01077533 0.01974212
v -0.00157955 -0.01126188 0.01818276
v 0.00122547 -0.01088932 0.01899318
v 0.00149344 -0.01094420 0.01858127
v 0.00254639 -0.01060242 0.01951094
v 0.00287785 -0.01068072 0.01899388
v 0.00385568 -0.01023381 0.02002975
v 0.00424982 -0.01033635 0.01940935
v 0.00513867 -0.00976339 0.02054237
v 0.00559466 -0.00988829 0.01982168
v 0.00637476 -0.00917176 0.02104033
v 0.00689135 -0.00931464 0.02022392
v 0.00754112 -0.00844917 0.02151292
v 0.00811613 -0.00860370 0.02060721
v 0.00862171 -0.00760423 0.02194409
v 0.00925164 -0.00776312 0.02095824
v 0.00910228 -0.00713607 0.02214217
v 0.00975758 -0.00729264 0.02112049
v 0.00950622 -0.00661757 0.02232257
v 0.01018253 -0.00676573 0.02126864
v 0.00982891 -0.00603829 0.02247724
v 0.01051965 -0.00617318 0.02139524
v 0.01008584 -0.00541174 0.02260851
v 0.01078589 -0.00553159 0.02150244
v 0.01099576 -0.00486202 0.02159404
v 0.01045060 -0.00408732 0.02281638
v 0.01116061 -0.00417583 0.02167252
v 0.01067218 -0.00272029 0.02296587
v 0.01138589 -0.00277718 0.02179529
v 0.01078831 -0.00133610 0.02306101
v 0.01150275 -0.00136155 0.02187368
v 0.01081806 0.00005525 0.02309848
v 0.01153209 0.00006099 0.02190470
v 0.01077326 0.00144622 0.02306531
v 0.01148736 0.00148311 0.02187809
v 0.01064214 0.00282922 0.02297446
v 0.01135518 0.00289749 0.02180411
v 0.01111476 0.00429387 0.02168570
v 0.00203437 0.01054568 0.02002858
v 0.00157798 0.01045660 0.02047445
v 0.00327143 0.01016296 0.02063956
v 0.00272665 0.01004646 0.02116758
v 0.00448456 0.00968047 0.02124032
v 0.00385301 0.00953911 0.02184620
v 0.00565413 0.00908126 0.02182108
v 0.00493853 0.00892030 0.02249954
v 0.00675858 0.00835719 0.02236958
v 0.00596301 0.00818357 0.02311415
v 0.00778287 0.00751698 0.02286749
v 0.00691241 0.00733731 0.02366982
v 0.00823883 0.00705449 0.02309466
v 0.00733474 0.00687504 0.02392192
v 0.00862381 0.00654663 0.02330089
v 0.00769186 0.00637261 0.02415037
v 0.00893483 0.00598258 0.02347793
v 0.00798175 0.00581968 0.02434720
v 0.00918579 0.00537338 0.02362816
v 0.00821689 0.00522509 0.02451467
v 0.00954919 0.00408511 0.02386467
v 0.00855954 0.00397018 0.02477801
v 0.00977781 0.00275424 0.02403302
v 0.00877693 0.00267485 0.02496515
v 0.00990573 0.00140553 0.02413845
v 0.00889962 0.00136229 0.02508243
v 0.00994993 0.00004886 0.02417742
v 0.00894256 0.00004193 0.02512627
v 0.00992042 -0.00130817 0.02413427
v 0.00891392 -0.00127875 0.02507837
v 0.00980710 -0.00265797 0.02402466
v 0.00880543 -0.00259230 0.02495703
v 0.00959291 -0.00399082 0.02385218
v 0.00860209 -0.00388943 0.02476588
v 0.00924351 -0.00528232 0.02361166
v 0.00827306 -0.00514727 0.02449865
v 0.00899919 -0.00589381 0.02345954
v 0.00804439 -0.00574392 0.02432934
v 0.00869433 -0.00646074 0.02328076
v 0.00776054 -0.00629944 0.02413081
v 0.00831492 -0.00697218 0.02307296
v 0.00740893 -0.00680507 0.02390080
v 0.00786402 -0.00743892 0.02284433
v 0.00699164 -0.00727114 0.02364725
v 0.00684884 -0.00828866 0.02234376
v 0.00605141 -0.00812594 0.02308891
v 0.00575223 -0.00902297 0.02179295
v 0.00503490 -0.00887185 0.02247194
v 0.00458915 -0.00963302 0.02121024
v 0.00395608 -0.00950036 0.02181659
v 0.00338123 -0.01012674 0.02060790
v 0.00283519 -0.01001777 0.02113630
v 0.00214829 -0.01052091 0.01999565
v 0.00169093 -0.01043815 0.02044181
v 0.00090465 -0.01083260 0.01938175
v -0.00358163 -0.00003029 0.02769609
v -0.00357746 -0.00155527 0.02760930
v -0.00357757 -0.00225532 0.02752693
v -0.00358176 -0.00359740 0.02728592
v -0.00649663 0.01297111 -0.01905389
v -0.00670551 0.01293076 -0.01897969
v -0.00636983 0.01288669 -0.01395273
v -0.00980245 0.00898817 -0.01767934
v -0.00962009 0.00893638 -0.01386664
v -0.00976586 0.00955624 -0.01769506
v -0.00955674 0.00966439 -0.01385687
v -0.00974079 0.00971756 -0.01770568
v -0.00965165 0.01010961 -0.01774330
v -0.00934635 0.01040996 -0.01385383
v -0.00960726 0.01025731 -0.01776199
v -0.00897890 0.01112832 -0.01385879
v -0.00939475 0.01078746 -0.01785140
v -0.00953456 0.01046425 -0.01779260
v -0.00867089 0.01182458 -0.01815541
v -0.00903865 0.01138437 -0.01800102
v -0.00846289 0.01177063 -0.01387219
v -0.00911201 0.01127903 -0.01797021
v -0.00917409 0.01118390 -0.01794413
v -0.00824719 0.01220472 -0.01833321
v -0.00782644 0.01229358 -0.01389345
v -0.00814561 0.01228087 -0.01837582
v -0.00711251 0.01266860 -0.01392102
v -0.00765650 0.01258343 -0.01858098
v -0.00804264 0.01235303 -0.01841902
v -0.00697469 0.01286052 -0.01886685
v -0.00713252 0.01280951 -0.01880068
v -0.00734153 0.01273019 -0.01871305
v -0.00627886 0.01300039 -0.01910483
v -0.00612176 0.01276899 -0.00877169
v -0.00587350 0.01259806 -0.00359275
v -0.00537536 0.01209505 0.00678038
v -0.00512588 0.01176322 0.01196651
v -0.00611847 0.01187729 0.00680329
v -0.00586909 0.01154561 0.01198724
v -0.00683312 0.01150286 0.00681563
v -0.00658393 0.01117142 0.01199577
v -0.00747060 0.01098072 0.00681556
v -0.00722166 0.01064962 0.01199039
v -0.00798787 0.01033941 0.00680271
v -0.00773925 0.01000873 0.01197099
v -0.00835672 0.00962217 0.00677826
v -0.00810845 0.00929196 0.01193919
v -0.00856858 0.00887777 0.00674465
v -0.00832068 0.00854805 0.01189797
v -0.00487621 0.01137807 0.01715037
v -0.00561952 0.01116061 0.01716892
v -0.00633455 0.01078671 0.01717366
v -0.00697254 0.01026530 0.01716298
v -0.00749044 0.00962490 0.01713706
v -0.00785999 0.00890867 0.01709796
v -0.00807258 0.00816532 0.01704914
v -0.00686454 0.01255095 -0.00874218
v -0.00757865 0.01217602 -0.00871841
v -0.00821536 0.01165319 -0.00870247
v -0.00873169 0.01101103 -0.00869562
v -0.00909948 0.01029283 -0.00869801
v -0.00931024 0.00954744 -0.00870868
v -0.00928301 0.00876326 -0.00682812
v -0.00661639 0.01238009 -0.00356544
v -0.00733068 0.01200529 -0.00354548
v -0.00796764 0.01148263 -0.00353487
v -0.00848428 0.01084069 -0.00353458
v -0.00885243 0.01012273 -0.00354432
v -0.00906355 0.00937759 -0.00356262
v -0.00912762 0.00865010 -0.00358731
v -0.00562452 0.01237329 0.00159491
v -0.00636752 0.01215542 0.00162003
v -0.00708199 0.01178078 0.00163617
v -0.00771922 0.01125836 0.00164144
v -0.00823617 0.01061670 0.00163515
v -0.00860467 0.00989906 0.00161805
v -0.00881616 0.00915425 0.00159209
v -0.00871140 0.00824377 0.00508157
v -0.00813808 0.00743939 0.01699462
v -0.00838582 0.00782162 0.01185087
v -0.00501946 -0.01181858 0.01150017
v -0.00575501 -0.01259672 -0.00399058
v -0.00970492 -0.00903823 -0.01770790
v -0.00965374 -0.00960088 -0.01772896
v -0.00922273 -0.00956259 -0.00905991
v -0.00921661 -0.01088622 -0.01791125
v -0.00907069 -0.01113424 -0.01797222
v -0.00887135 -0.01111936 -0.01414877
v -0.00811535 -0.01217050 -0.01837181
v -0.00790975 -0.01231591 -0.01845786
v -0.00770643 -0.01227205 -0.01418766
v -0.00597458 -0.01295395 -0.01916755
v -0.00619406 -0.01293647 -0.01913520
v -0.00624354 -0.01284926 -0.01424908
v -0.00656661 -0.01287737 -0.01902027
v -0.00698852 -0.01263927 -0.01421659
v -0.00712464 -0.01271543 -0.01878656
v -0.00764019 -0.01247873 -0.01857070
v -0.00834847 -0.01175604 -0.01416451
v -0.00873483 -0.01158735 -0.01811264
v -0.00854024 -0.01179858 -0.01819403
v -0.00833817 -0.01198885 -0.01827857
v -0.00900398 -0.01030572 -0.00905206
v -0.00945009 -0.01037201 -0.01781377
v -0.00924648 -0.01040501 -0.01414120
v -0.00960963 -0.00983159 -0.01774729
v -0.00576496 -0.01160904 0.01152175
v -0.00506390 -0.01135036 0.01712397
v -0.00765149 -0.01009225 0.01151159
v -0.00751919 -0.00948038 0.01709658
v -0.00802837 -0.00937936 0.01148265
v -0.00776371 -0.00898141 0.01706983
v -0.00790643 -0.00856645 0.01704471
v -0.00551054 -0.01239137 0.00115193
v -0.00526481 -0.01213156 0.00632708
v -0.00625583 -0.01218158 0.00117789
v -0.00601020 -0.01192188 0.00635084
v -0.00697428 -0.01181469 0.00119549
v -0.00672883 -0.01155518 0.00636465
v -0.00761707 -0.01129916 0.00120281
v -0.00737187 -0.01103991 0.00636664
v -0.00814087 -0.01066306 0.00119904
v -0.00789599 -0.01040414 0.00635632
v -0.00851705 -0.00994936 0.00118476
v -0.00827252 -0.00969081 0.00633470
v -0.00970579 -0.00897267 -0.01770758
v -0.00929424 -0.00883557 -0.00907438
v -0.00919239 -0.00877838 -0.00693503
v -0.00880874 -0.00848016 0.00113244
v -0.00475352 -0.01141870 0.01711453
v -0.00549913 -0.01120932 0.01713374
v -0.00601379 -0.01096619 0.01713943
v -0.00648377 -0.01124257 0.01153176
v -0.00621814 -0.01084315 0.01713965
v -0.00712707 -0.01072762 0.01152845
v -0.00686170 -0.01032861 0.01713060
v -0.00738646 -0.00969374 0.01710668
v -0.00650019 -0.01238684 -0.00396244
v -0.00721846 -0.01201980 -0.00394105
v -0.00786100 -0.01150406 -0.00392844
v -0.00838450 -0.01086770 -0.00392569
v -0.00876033 -0.01015370 -0.00393267
v -0.00873652 -0.00920676 0.00116174
v -0.00849235 -0.00894859 0.00630405
v -0.00824856 -0.00863760 0.01144439
v -0.00798429 -0.00824024 0.01702335
v -0.00599986 -0.01274948 -0.00913505
v -0.00674494 -0.01253954 -0.00910472
v -0.00746303 -0.01217239 -0.00907955
v -0.00810532 -0.01165648 -0.00906165
v -0.00862850 -0.01101993 -0.00905238
v -0.00862716 -0.00829320 0.00495597
v -0.00473223 0.01081161 0.02010059
v -0.00580541 0.00084062 0.02711692
v -0.00646880 0.00080208 0.02662964
v -0.00646269 -0.00004417 0.02666077
v -0.00605455 0.00887185 0.02281774
v -0.00670490 0.00843738 0.02255833
v -0.00664589 0.00755981 0.02369356
v -0.00800469 0.00680451 0.01971515
v -0.00798693 0.00664374 0.02006875
v -0.00790862 0.00729892 0.02038353
v -0.00465582 0.01019948 0.02163057
v -0.00469361 0.01053258 0.02087739
v -0.00540290 0.01000287 0.02157260
v -0.00543998 0.01032972 0.02083355
v -0.00612446 0.00966512 0.02144466
v -0.00616030 0.00998112 0.02073014
v -0.00677159 0.00919431 0.02124826
v -0.00680572 0.00949514 0.02056806
v -0.00736563 0.00913581 0.01969458
v -0.00774306 0.00845136 0.01949419
v -0.00771255 0.00823096 0.02010788
v -0.00796384 0.00774103 0.01927777
v -0.00803734 0.00704715 0.01905932
v -0.00673802 0.00884241 0.02191097
v -0.00608924 0.00929597 0.02213989
v -0.00536651 0.00962140 0.02229104
v -0.00533071 0.00918366 0.02299068
v -0.00461875 0.00981090 0.02236241
v -0.00762460 0.00730763 0.02184412
v -0.00765365 0.00766286 0.02127638
v -0.00768292 0.00796975 0.02069850
v -0.00787446 0.00508544 0.02224569
v -0.00776648 0.00520374 0.02312035
v -0.00787864 0.00516399 0.02216721
v -0.00780723 0.00598030 0.02235587
v -0.00789396 0.00543481 0.02187735
v -0.00785489 0.00668885 0.02143887
v -0.00793860 0.00609664 0.02101817
v -0.00733276 0.00889834 0.02035575
v -0.00730075 0.00861620 0.02099370
v -0.00726921 0.00828552 0.02161641
v -0.00723800 0.00790398 0.02222621
v -0.00757291 0.00653917 0.02283847
v -0.00718245 0.00707788 0.02329499
v -0.00752821 0.00568689 0.02367707
v -0.00713395 0.00615272 0.02420493
v -0.00773770 0.00448760 0.02364110
v -0.00599274 0.00795248 0.02400696
v -0.00661967 0.00709083 0.02418909
v -0.00596519 0.00745971 0.02452760
v -0.00659399 0.00656960 0.02466718
v -0.00593808 0.00690943 0.02503230
v -0.00657295 0.00608007 0.02505194
v -0.00591570 0.00638881 0.02544145
v -0.00655451 0.00558510 0.02538137
v -0.00589596 0.00585855 0.02579433
v -0.00653697 0.00502981 0.02568516
v -0.00587712 0.00526224 0.02612057
v -0.00652151 0.00444042 0.02594168
v -0.00586053 0.00463014 0.02639570
v -0.00458230 0.00936530 0.02307462
v -0.00529786 0.00872472 0.02362602
v -0.00454887 0.00889820 0.02372125
v -0.00526689 0.00823442 0.02421846
v -0.00451733 0.00839884 0.02432464
v -0.00523839 0.00772465 0.02475705
v -0.00448828 0.00787926 0.02487358
v -0.00521026 0.00715362 0.02528076
v -0.00445957 0.00729625 0.02540825
v -0.00518693 0.00661078 0.02570735
v -0.00443568 0.00674061 0.02584489
v -0.00516625 0.00605532 0.02607697
v -0.00441446 0.00617061 0.02622418
v -0.00514649 0.00542971 0.02641924
v -0.00439416 0.00552810 0.02657570
v -0.00512909 0.00476709 0.02670767
v -0.00437631 0.00484788 0.02687179
v -0.00785708 0.00473224 0.02256934
v -0.00783326 0.00414486 0.02300102
v -0.00781217 0.00342011 0.02335971
v -0.00771447 0.00368144 0.02403544
v -0.00780760 0.00321704 0.02343232
v -0.00769743 0.00281139 0.02429287
v -0.00432780 0.00184522 0.02754442
v -0.00435049 0.00353719 0.02726272
v -0.00508148 0.00181683 0.02736749
v -0.00510386 0.00348583 0.02708969
v -0.00581448 0.00177075 0.02703331
v -0.00583632 0.00339990 0.02676226
v -0.00647763 0.00170821 0.02654820
v -0.00649871 0.00328160 0.02628661
v -0.00579906 -0.00004137 0.02714922
v -0.00557835 -0.00004037 0.02726976
v -0.00507225 0.00086958 0.02745265
v -0.00431183 -0.00003417 0.02766410
v -0.00431847 0.00088808 0.02763048
v -0.00464261 -0.00003586 0.02760484
v -0.00506571 -0.00003795 0.02748580
v -0.00779707 0.00265040 0.02358792
v -0.00778540 0.00182996 0.02373859
v -0.00767941 0.00146346 0.02451625
v -0.00777260 0.00060483 0.02386668
v -0.00767152 0.00065431 0.02458891
v -0.00776786 -0.00004684 0.02389145
v -0.00766643 -0.00004743 0.02461529
v -0.00758148 -0.00004746 0.02492169
v -0.00742254 0.00070572 0.02532069
v -0.00741709 -0.00004724 0.02534876
v -0.00714624 -0.00004657 0.02584941
v -0.00749564 0.00487563 0.02426639
v -0.00709773 0.00524993 0.02486022
v -0.00748149 0.00442739 0.02451160
v -0.00708178 0.00474513 0.02513639
v -0.00746895 0.00394948 0.02471956
v -0.00706770 0.00420832 0.02537001
v -0.00744987 0.00297708 0.02500800
v -0.00704665 0.00313743 0.02568829
v -0.00743076 0.00154924 0.02524493
v -0.00702650 0.00163269 0.02593825
v -0.00701796 0.00075609 0.02601701
v -0.00701216 -0.00004616 0.02604670
v -0.00481085 0.01120646 0.01849930
v -0.00555516 0.01099163 0.01849737
v -0.00627190 0.01062228 0.01846661
v -0.00691230 0.01010725 0.01840624
v -0.00807487 0.00725040 0.01829655
v -0.00802208 0.00803305 0.01809149
v -0.00780604 0.00876726 0.01821152
v -0.00743316 0.00947470 0.01831914
v -0.00477200 0.01103906 0.01929383
v -0.00551696 0.01082707 0.01927849
v -0.00623484 0.01046262 0.01922450
v -0.00687683 0.00995446 0.01913158
v -0.00684070 0.00974785 0.01986449
v -0.00619700 0.01024621 0.01999214
v -0.00547789 0.01060365 0.02007095
v -0.00734906 -0.00960801 0.01789964
v -0.00471096 -0.01132109 0.01801690
v -0.00792022 -0.00804882 0.01838679
v -0.00580777 -0.00450753 0.02645653
v -0.00647092 -0.00433707 0.02599807
v -0.00647905 -0.00492315 0.02576076
v -0.00776622 -0.00045551 0.02387905
v -0.00579673 -0.00061467 0.02713250
v -0.00430938 -0.00063626 0.02764663
v -0.00506331 -0.00062951 0.02746860
v -0.00741515 -0.00052832 0.02533445
v -0.00766464 -0.00049190 0.02460193
v -0.00766332 -0.00183405 0.02447629
v -0.00646529 -0.00373627 0.02618457
v -0.00580177 -0.00386792 0.02665513
v -0.00579735 -0.00307090 0.02683881
v -0.00646106 -0.00297446 0.02636006
v -0.00579518 -0.00217903 0.02698607
v -0.00645897 -0.00211222 0.02650241
v -0.00646047 -0.00059193 0.02664472
v -0.00506851 -0.00396056 0.02697892
v -0.00431468 -0.00401218 0.02714986
v -0.00431004 -0.00317550 0.02734274
v -0.00506395 -0.00313839 0.02716844
v -0.00430779 -0.00225025 0.02749556
v -0.00506173 -0.00222534 0.02731922
v -0.00741376 -0.00193361 0.02520290
v -0.00766512 -0.00257647 0.02435386
v -0.00741566 -0.00271850 0.02507341
v -0.00766854 -0.00319592 0.02421144
v -0.00741937 -0.00338840 0.02491926
v -0.00507477 -0.00462789 0.02677168
v -0.00581649 -0.00513608 0.02620199
v -0.00433048 -0.00537190 0.02666368
v -0.00432109 -0.00469550 0.02693763
v -0.00776494 -0.00172300 0.02376113
v -0.00776661 -0.00243700 0.02364440
v -0.00776979 -0.00300697 0.02351273
v -0.00777161 -0.00322223 0.02345011
v -0.00767843 -0.00405416 0.02390620
v -0.00777838 -0.00375106 0.02324789
v -0.00769311 -0.00474673 0.02351980
v -0.00742404 -0.00388791 0.02476435
v -0.00743063 -0.00436313 0.02457200
v -0.00744749 -0.00515862 0.02412820
v -0.00778553 -0.00412314 0.02305558
v -0.00779089 -0.00434328 0.02291821
v -0.00771893 -0.00553489 0.02288900
v -0.00781213 -0.00499792 0.02239873
v -0.00746047 -0.00559901 0.02380607
v -0.00747644 -0.00604320 0.02342094
v -0.00772806 -0.00575648 0.02267251
v -0.00748645 -0.00628631 0.02318345
v -0.00781445 -0.00721028 0.02069751
v -0.00755458 -0.00752757 0.02161499
v -0.00776804 -0.00654571 0.02174517
v -0.00752991 -0.00714434 0.02217539
v -0.00750718 -0.00673007 0.02269860
v -0.00794666 -0.00702161 0.01935039
v -0.00786436 -0.00770539 0.01959579
v -0.00791694 -0.00674819 0.02000401
v -0.00790110 -0.00656987 0.02035609
v -0.00785909 -0.00596957 0.02130438
v -0.00782192 -0.00523773 0.02216622
v -0.00781366 -0.00503721 0.02236219
v -0.00766394 -0.00861054 0.01920132
v -0.00763458 -0.00840383 0.01983978
v -0.00760749 -0.00816280 0.02043455
v -0.00758021 -0.00786459 0.02103980
v -0.00769514 -0.00877631 0.01852910
v -0.00649987 -0.00590610 0.02521244
v -0.00583883 -0.00619086 0.02561362
v -0.00651561 -0.00644022 0.02482188
v -0.00585563 -0.00676090 0.02519684
v -0.00653452 -0.00696628 0.02436590
v -0.00587566 -0.00731832 0.02471372
v -0.00654614 -0.00724859 0.02409015
v -0.00588790 -0.00761565 0.02442331
v -0.00656995 -0.00775807 0.02353350
v -0.00591288 -0.00815031 0.02383915
v -0.00659594 -0.00823191 0.02293508
v -0.00594013 -0.00864698 0.02321191
v -0.00662403 -0.00866828 0.02229697
v -0.00596953 -0.00910371 0.02254404
v -0.00665334 -0.00905358 0.02163935
v -0.00600024 -0.00950750 0.02185483
v -0.00668465 -0.00939586 0.02094463
v -0.00603310 -0.00986667 0.02112583
v -0.00671582 -0.00967320 0.02026029
v -0.00606583 -0.01015792 0.02040718
v -0.00674945 -0.00991000 0.01952897
v -0.00610110 -0.01040625 0.01964027
v -0.00678493 -0.01009858 0.01876442
v -0.00613822 -0.01060357 0.01884034
v -0.00682241 -0.01023853 0.01796368
v -0.00617731 -0.01074952 0.01800532
v -0.00545720 -0.01111317 0.01802269
v -0.00467007 -0.01116837 0.01889054
v -0.00541698 -0.01096292 0.01888220
v -0.00463110 -0.01096120 0.01973033
v -0.00537868 -0.01075936 0.01970741
v -0.00459398 -0.01069988 0.02053730
v -0.00534224 -0.01050279 0.02049973
v -0.00455949 -0.01039296 0.02129462
v -0.00530839 -0.01020160 0.02124290
v -0.00452490 -0.01001478 0.02206223
v -0.00527443 -0.00983037 0.02199639
v -0.00449260 -0.00959015 0.02278701
v -0.00524272 -0.00941337 0.02270816
v -0.00446172 -0.00911049 0.02348842
v -0.00521238 -0.00894209 0.02339731
v -0.00443307 -0.00858811 0.02414812
v -0.00518424 -0.00842912 0.02404513
v -0.00440676 -0.00802508 0.02476327
v -0.00515842 -0.00787646 0.02464894
v -0.00439382 -0.00771083 0.02507019
v -0.00514573 -0.00756840 0.02494982
v -0.00437252 -0.00711807 0.02558389
v -0.00512489 -0.00698857 0.02545234
v -0.00435454 -0.00650759 0.02603020
v -0.00510735 -0.00639288 0.02588785
v -0.00508392 -0.00528679 0.02650483
v -0.00772843 -0.00890057 0.01781785
v -0.00731356 -0.00947547 0.01865817
v -0.00728010 -0.00929764 0.01937917
v -0.00724848 -0.00907503 0.02006670
v -0.00721924 -0.00881482 0.02070879
v -0.00718983 -0.00849333 0.02136132
v -0.00716226 -0.00813080 0.02198005
v -0.00713578 -0.00771949 0.02258151
v -0.00711133 -0.00727375 0.02314446
v -0.00708897 -0.00679527 0.02366724
v -0.00707810 -0.00653144 0.02392494
v -0.00706058 -0.00604400 0.02434751
v -0.00704614 -0.00555409 0.02470580
v -0.00702719 -0.00465955 0.02520482
v -0.00701979 -0.00412576 0.02542092
v -0.00701461 -0.00357274 0.02559252
v -0.00701063 -0.00285428 0.02575795
v -0.00700863 -0.00202852 0.02589423
v -0.00701007 -0.00056247 0.02603146
v -0.00192313 -0.01009621 -0.02886932
v -0.00294324 -0.01010294 -0.02807990
v -0.00381077 -0.01010911 -0.02712533
v 0.00830303 -0.01004467 -0.02664601
v -0.00372419 -0.01250988 -0.02636175
v 0.00855919 -0.01244583 -0.02505132
v 0.00821486 -0.01244646 -0.02582796
v -0.00127546 -0.01249307 -0.02867118
v -0.00050981 -0.01248837 -0.02903926
v -0.00322378 -0.01250611 -0.02704826
v -0.00264281 -0.01250201 -0.02766808
v -0.00199007 -0.01249764 -0.02821180
v 0.00880548 -0.01244579 -0.02423827
v 0.00894998 -0.01244632 -0.02340111
v 0.00598195 -0.01245452 -0.02834670
v 0.00665273 -0.01245173 -0.02782538
v 0.00725435 -0.01244944 -0.02722557
v 0.00777771 -0.01244767 -0.02655639
v 0.00525220 -0.01245776 -0.02878164
v 0.00447454 -0.01246141 -0.02912360
v 0.00366074 -0.01246541 -0.02936741
v 0.00282316 -0.01246969 -0.02950936
v 0.00029526 -0.01248361 -0.02931046
v 0.00112757 -0.01247886 -0.02948067
v 0.00197448 -0.01247420 -0.02954731
v 0.00899051 -0.01244744 -0.02255253
v 0.00892646 -0.01244912 -0.02170541
v 0.00875879 -0.01245133 -0.02087259
v 0.00849005 -0.01245404 -0.02006668
v 0.00812431 -0.01245722 -0.01929990
v 0.00930645 -0.01194302 -0.02427868
v 0.00944430 -0.01194357 -0.02345487
v 0.00928932 -0.01194299 -0.02435269
v 0.00902519 -0.01194304 -0.02522467
v 0.00831326 -0.01194464 -0.02664900
v 0.00865591 -0.01194372 -0.02605758
v 0.00891354 -0.01194320 -0.02550728
v 0.00818708 -0.01194502 -0.02683879
v 0.00762579 -0.01194691 -0.02755648
v 0.00752384 -0.01194728 -0.02766913
v 0.00698057 -0.01194937 -0.02819974
v 0.00656927 -0.01195105 -0.02853668
v 0.00626120 -0.01195236 -0.02875884
v 0.00547857 -0.01195584 -0.02922530
v 0.00464455 -0.01195975 -0.02959204
v 0.00302441 -0.01196785 -0.02998808
v 0.00377178 -0.01196404 -0.02985352
v 0.00428485 -0.01196150 -0.02971405
v 0.00287350 -0.01196863 -0.03000575
v 0.00196332 -0.01197347 -0.03004645
v 0.00045738 -0.01198186 -0.02986549
v 0.00105504 -0.01197847 -0.02997498
v 0.00173553 -0.01197471 -0.03003908
v 0.00016243 -0.01198356 -0.02979244
v -0.00070099 -0.01198866 -0.02950159
v -0.00077121 -0.01198909 -0.02947259
v -0.00152211 -0.01199370 -0.02910683
v -0.00293301 -0.01200291 -0.02808288
v -0.00228851 -0.01199860 -0.02861416
v -0.00191290 -0.01199618 -0.02887230
v -0.00298855 -0.01200329 -0.02803104
v -0.00361162 -0.01200769 -0.02736632
v -0.00448914 -0.01201450 -0.02603760
v -0.00414829 -0.01201173 -0.02663006
v -0.00380054 -0.01200908 -0.02712831
v -0.00358128 -0.01219890 -0.02734235
v -0.00411518 -0.01220293 -0.02660987
v -0.00455503 -0.01220654 -0.02581734
v -0.00296141 -0.01219453 -0.02800366
v -0.00226497 -0.01218987 -0.02858377
v -0.00150251 -0.01218499 -0.02907391
v -0.00068561 -0.01217998 -0.02946663
v 0.00017336 -0.01217490 -0.02975599
v 0.00106139 -0.01216984 -0.02993759
v 0.00196499 -0.01216486 -0.03000869
v 0.00287049 -0.01216005 -0.02996821
v 0.00376415 -0.01215548 -0.02981675
v 0.00463243 -0.01215122 -0.02955662
v 0.00546216 -0.01214733 -0.02919177
v 0.00624077 -0.01214387 -0.02872771
v 0.00695644 -0.01214089 -0.02817148
v 0.00759835 -0.01213844 -0.02753153
v 0.00815674 -0.01213656 -0.02681754
v 0.00862317 -0.01213527 -0.02604034
v 0.00899055 -0.01213459 -0.02521172
v 0.00925332 -0.01213455 -0.02434422
v 0.00940749 -0.01213512 -0.02345102
v 0.00927590 -0.01230086 -0.02165687
v 0.00934324 -0.01229910 -0.02254740
v 0.00930063 -0.01229793 -0.02343945
v 0.00914872 -0.01229736 -0.02431951
v 0.00888982 -0.01229741 -0.02517422
v 0.00852785 -0.01229808 -0.02599065
v 0.00806829 -0.01229934 -0.02675640
v 0.00751812 -0.01230120 -0.02745988
v 0.00688566 -0.01230361 -0.02809042
v 0.00618052 -0.01230654 -0.02863845
v 0.00541338 -0.01230995 -0.02909568
v 0.00459587 -0.01231379 -0.02945516
v 0.00374037 -0.01231799 -0.02971146
v 0.00285987 -0.01232249 -0.02986069
v 0.00196770 -0.01232723 -0.02990058
v 0.00107740 -0.01233213 -0.02983052
v 0.00020245 -0.01233712 -0.02965160
v -0.00064388 -0.01234213 -0.02936650
v -0.00144876 -0.01234707 -0.02897956
v -0.00219998 -0.01235187 -0.02849664
v -0.00288617 -0.01235646 -0.02792506
v -0.00349691 -0.01236077 -0.02727349
v -0.00402296 -0.01236474 -0.02655180
v -0.00445633 -0.01236830 -0.02577093
v 0.00866728 -0.01241514 -0.01999503
v 0.00894348 -0.01241235 -0.02082328
v 0.00911580 -0.01241008 -0.02167921
v 0.00918163 -0.01240836 -0.02254982
v 0.00913997 -0.01240721 -0.02342192
v 0.00899146 -0.01240665 -0.02428230
v 0.00873835 -0.01240670 -0.02511790
v 0.00838447 -0.01240735 -0.02591607
v 0.00793519 -0.01240859 -0.02666470
v 0.00739732 -0.01241041 -0.02735244
v 0.00677901 -0.01241277 -0.02796888
v 0.00608964 -0.01241563 -0.02850466
v 0.00533965 -0.01241897 -0.02895166
v 0.00454042 -0.01242271 -0.02930311
v 0.00370406 -0.01242682 -0.02955367
v 0.00284325 -0.01243122 -0.02969956
v 0.00197103 -0.01243586 -0.02973856
v 0.00110064 -0.01244065 -0.02967007
v 0.00024525 -0.01244553 -0.02949514
v -0.00058215 -0.01245042 -0.02921642
v -0.00136902 -0.01245525 -0.02883814
v -0.00210345 -0.01245994 -0.02836602
v -0.00277429 -0.01246443 -0.02780722
v -0.00337138 -0.01246865 -0.02717022
v -0.00388566 -0.01247253 -0.02646467
v -0.00430934 -0.01247601 -0.02570127
f 888 897 874
f 874 897 872
f 137 871 872
f 872 139 137
f 1238 871 753
f 197 11 175
f 199 11 197
f 198 11 199
f 268 11 198
f 268 201 200
f 138 139 753
f 137 139 138
f 753 871 138
f 138 871 137
f 753 139 808
f 830 872 829
f 146 897 889
f 897 888 889
f 40 1238 753
f 753 755 40
f 818 810 819
f 870 888 869
f 870 889 888
f 1196 1195 223
f 223 1199 1196
f 1196 1301 1195
f 1199 1301 1196
f 1242 832 831
f 828 1238 829
f 871 1238 828
f 829 872 828
f 828 872 871
f 182 157 184
f 188 189 191
f 196 189 188
f 1214 18 6
f 6 1213 1214
f 1214 1213 1256
f 197 175 588
f 281 194 196
f 192 193 590
f 140 808 139
f 754 755 753
f 753 808 754
f 754 808 755
f 1036 148 147
f 147 897 146
f 147 148 897
f 897 148 153
f 153 872 897
f 1093 148 1036
f 1101 1087 1093
f 1096 153 1094
f 1094 153 148
f 1094 1093 1087
f 1285 843 835
f 835 843 836
f 873 830 888
f 872 830 873
f 873 888 874
f 874 872 873
f 146 889 890
f 805 804 761
f 761 762 805
f 762 806 805
f 170 269 169
f 915 1031 936
f 492 490 501
f 465 466 746
f 466 465 441
f 441 465 746
f 746 992 1042
f 1042 747 746
f 378 380 379
f 475 473 474
f 474 473 472
f 488 468 474
f 746 466 477
f 476 468 469
f 421 424 420
f 187 277 278
f 277 288 278
f 267 282 283
f 279 282 267
f 680 678 679
f 204 205 584
f 587 199 197
f 35 1229 8
f 1229 1230 8
f 1231 1230 1245
f 79 35 80
f 1236 1177 42
f 1236 42 38
f 764 765 766
f 761 804 766
f 766 765 761
f 768 762 761
f 9 175 11
f 114 170 274
f 73 72 23
f 902 903 904
f 938 903 921
f 903 902 921
f 786 784 783
f 923 910 912
f 909 910 908
f 1027 898 531
f 1033 898 1027
f 1027 1028 1033
f 295 292 273
f 816 295 294
f 295 273 294
f 803 804 810
f 803 766 804
f 810 818 817
f 831 832 833
f 833 896 831
f 869 867 868
f 868 870 869
f 156 155 1200
f 1200 155 223
f 245 244 221
f 221 220 245
f 229 244 245
f 241 229 245
f 221 156 158
f 158 220 221
f 223 1195 1194
f 1194 1193 223
f 1190 1191 223
f 26 27 4
f 4 27 1219
f 75 26 25
f 1245 1230 1246
f 1246 1230 1229
f 1186 837 1185
f 1285 1242 1241
f 1198 1199 223
f 223 1197 1198
f 223 837 1182
f 1182 837 1186
f 1238 1241 1237
f 1237 1241 1242
f 284 267 283
f 191 181 190
f 190 181 182
f 265 285 536
f 265 188 191
f 191 190 265
f 265 190 285
f 1210 1209 13
f 176 9 192
f 175 9 176
f 196 194 195
f 536 281 286
f 286 265 536
f 188 265 286
f 196 188 286
f 286 281 196
f 193 195 302
f 307 202 200
f 586 202 307
f 200 201 307
f 198 586 307
f 201 268 307
f 307 268 198
f 808 140 149
f 1023 824 149
f 1098 153 1096
f 1095 1087 1096
f 1096 1094 1095
f 1095 1094 1087
f 148 1093 1092
f 1092 1094 148
f 1093 1094 1092
f 1102 1087 1101
f 939 903 938
f 939 926 940
f 907 906 935
f 834 847 1285
f 1285 835 834
f 834 836 847
f 834 835 836
f 1310 838 840
f 869 888 887
f 888 830 887
f 887 867 869
f 887 886 867
f 896 886 887
f 851 830 829
f 829 1238 851
f 1238 1237 851
f 819 810 811
f 810 804 811
f 821 789 820
f 820 789 819
f 813 822 821
f 813 814 822
f 291 169 269
f 319 288 287
f 287 288 277
f 274 170 168
f 170 169 168
f 169 297 168
f 798 797 786
f 786 788 798
f 915 913 1032
f 1032 1031 915
f 1029 1031 1032
f 1032 913 1033
f 1032 1028 1029
f 1033 1028 1032
f 918 936 916
f 916 936 1031
f 938 921 937
f 915 936 937
f 448 431 432
f 448 379 380
f 665 666 667
f 408 409 394
f 386 376 375
f 409 408 435
f 435 408 436
f 386 445 384
f 391 393 392
f 392 393 394
f 394 409 392
f 446 445 386
f 386 375 446
f 446 375 376
f 970 972 321
f 474 468 467
f 467 475 474
f 467 468 476
f 476 475 467
f 420 424 483
f 468 488 489
f 440 477 466
f 466 441 440
f 440 469 477
f 440 441 438
f 440 475 476
f 476 469 440
f 494 493 492
f 559 699 701
f 695 563 693
f 695 694 696
f 693 694 695
f 696 697 695
f 704 334 333
f 333 335 424
f 334 335 333
f 331 332 330
f 419 421 420
f 710 708 419
f 419 708 421
f 289 288 319
f 289 278 288
f 289 282 279
f 279 278 289
f 279 267 183
f 182 184 183
f 183 190 182
f 547 548 549
f 630 629 631
f 629 676 631
f 613 615 612
f 613 689 615
f 308 207 204
f 204 584 308
f 623 624 622
f 585 205 203
f 585 584 205
f 203 202 585
f 585 202 586
f 306 586 198
f 306 587 586
f 198 199 306
f 199 587 306
f 197 588 305
f 305 587 197
f 588 587 305
f 1234 1231 1245
f 1233 1175 1234
f 1234 1175 1231
f 79 80 95
f 95 80 94
f 34 80 35
f 35 8 34
f 34 8 1230
f 1230 1231 34
f 1238 40 41
f 41 42 1177
f 42 41 84
f 764 766 769
f 91 84 90
f 90 769 771
f 764 769 90
f 762 768 85
f 85 90 84
f 85 41 40
f 85 84 41
f 85 765 764
f 764 90 85
f 757 40 755
f 759 806 762
f 14 1210 13
f 13 69 14
f 14 69 70
f 68 16 17
f 6 18 17
f 17 1213 6
f 17 16 1213
f 12 16 68
f 12 69 13
f 68 69 12
f 159 65 226
f 179 269 170
f 276 277 187
f 74 26 75
f 74 73 27
f 27 26 74
f 22 73 23
f 27 73 22
f 22 1219 27
f 23 5 22
f 22 5 1218
f 1218 1219 22
f 18 71 67
f 67 17 18
f 68 17 67
f 72 71 21
f 1026 798 799
f 799 1025 1026
f 800 1025 799
f 791 789 821
f 821 822 791
f 922 921 902
f 922 923 912
f 922 902 924
f 924 923 922
f 819 789 787
f 789 788 787
f 787 818 819
f 787 788 786
f 786 797 796
f 796 784 786
f 296 292 295
f 784 782 781
f 781 783 784
f 781 295 816
f 816 817 781
f 781 817 783
f 781 296 295
f 782 296 781
f 908 534 533
f 533 909 908
f 911 898 1033
f 911 909 898
f 910 909 911
f 1033 913 911
f 911 913 912
f 912 910 911
f 272 273 270
f 272 294 273
f 165 294 272
f 772 777 773
f 816 294 780
f 780 294 165
f 780 165 164
f 845 833 832
f 832 1242 845
f 858 1103 1036
f 889 870 858
f 858 890 889
f 1099 1093 1036
f 1036 1103 1099
f 881 878 879
f 879 1128 881
f 864 852 878
f 842 840 839
f 840 838 839
f 227 244 229
f 1125 1132 1134
f 210 250 581
f 257 173 212
f 212 256 257
f 212 173 215
f 215 173 172
f 391 392 373
f 223 1191 1192
f 223 1193 1189
f 1189 1190 223
f 1191 1190 1296
f 241 239 242
f 242 243 241
f 1193 1194 1298
f 1220 1251 1250
f 1247 1246 1229
f 1309 1185 1184
f 1184 1185 837
f 837 838 1184
f 1239 1241 1238
f 1239 1177 1236
f 1238 41 1239
f 1239 41 1177
f 1236 38 1235
f 1240 1239 1236
f 1241 1239 1240
f 1236 1235 1240
f 1240 1235 1243
f 1244 1234 1245
f 1233 1234 1244
f 1302 1301 1199
f 1199 1198 1303
f 1303 1302 1199
f 1183 1197 223
f 223 1182 1183
f 1183 1305 1197
f 1182 1305 1183
f 180 184 157
f 180 186 184
f 187 186 180
f 185 186 187
f 187 278 185
f 185 278 279
f 184 186 185
f 279 183 185
f 185 183 184
f 285 190 266
f 267 284 266
f 266 183 267
f 190 183 266
f 1209 1210 1258
f 1258 1257 1209
f 1268 1258 1267
f 1257 1258 1268
f 1256 1257 1268
f 249 210 211
f 249 250 210
f 249 581 250
f 589 590 612
f 589 588 175
f 175 176 589
f 589 176 192
f 303 590 193
f 280 195 194
f 280 302 195
f 612 590 610
f 610 613 612
f 302 280 535
f 535 281 536
f 194 281 535
f 535 280 194
f 1023 149 152
f 152 906 1023
f 152 935 906
f 807 813 806
f 814 813 807
f 755 808 807
f 808 814 807
f 808 149 815
f 815 823 822
f 815 814 808
f 822 814 815
f 1097 1098 1096
f 1069 1046 142
f 1001 142 1040
f 1063 1061 1070
f 1070 1046 1069
f 1070 1061 1046
f 1023 906 905
f 905 920 1023
f 905 906 907
f 927 939 938
f 926 939 927
f 941 939 940
f 904 903 941
f 903 939 941
f 1311 840 842
f 1311 1310 840
f 1285 1310 1311
f 1311 843 1285
f 842 843 1311
f 848 887 830
f 830 851 848
f 848 851 850
f 896 887 848
f 831 896 848
f 848 850 831
f 831 850 849
f 850 851 849
f 849 1242 831
f 849 1237 1242
f 849 851 1237
f 812 805 806
f 806 813 812
f 821 820 812
f 812 813 821
f 804 805 812
f 812 811 804
f 819 811 812
f 812 820 819
f 456 462 524
f 299 291 292
f 292 291 271
f 270 273 271
f 271 273 292
f 271 269 270
f 271 291 269
f 274 168 275
f 275 114 274
f 275 287 277
f 277 276 275
f 166 168 297
f 1022 798 1026
f 797 798 1022
f 915 937 914
f 914 937 921
f 912 913 914
f 914 913 915
f 914 922 912
f 921 922 914
f 958 923 924
f 503 518 505
f 503 505 492
f 492 501 503
f 517 518 503
f 974 972 971
f 945 902 904
f 959 958 924
f 960 958 959
f 924 902 959
f 902 945 959
f 962 963 964
f 517 960 962
f 962 518 517
f 964 518 962
f 965 951 967
f 967 966 965
f 964 963 965
f 965 966 964
f 507 462 461
f 525 524 506
f 524 462 506
f 462 507 506
f 523 516 521
f 521 958 523
f 523 960 517
f 523 958 960
f 534 520 522
f 522 520 521
f 386 1068 1067
f 1067 376 386
f 1108 1167 1166
f 1106 1167 1108
f 1107 1106 1109
f 1106 1108 1109
f 366 367 369
f 394 393 395
f 391 373 390
f 390 373 372
f 679 678 677
f 677 627 679
f 677 676 629
f 629 627 677
f 675 677 678
f 676 677 675
f 632 312 630
f 630 631 632
f 637 638 636
f 578 257 256
f 578 255 312
f 256 255 578
f 312 632 578
f 400 402 406
f 336 402 400
f 438 441 442
f 442 437 438
f 436 408 407
f 407 437 436
f 438 437 407
f 407 406 438
f 434 435 445
f 445 446 434
f 409 435 434
f 386 384 385
f 385 1068 386
f 1055 1068 385
f 445 435 444
f 444 384 445
f 444 435 436
f 410 392 409
f 409 434 410
f 411 373 410
f 410 373 392
f 447 446 374
f 378 379 447
f 447 448 432
f 379 448 447
f 480 486 479
f 481 321 972
f 481 974 480
f 481 972 974
f 480 479 481
f 486 321 481
f 481 479 486
f 493 494 495
f 321 495 320
f 519 518 964
f 964 966 519
f 519 966 497
f 497 494 519
f 519 494 492
f 492 505 519
f 505 518 519
f 482 483 424
f 470 485 472
f 483 485 470
f 420 483 470
f 480 974 478
f 974 489 478
f 478 489 488
f 551 709 549
f 713 547 711
f 549 709 711
f 711 547 549
f 699 697 698
f 698 697 696
f 698 327 331
f 696 327 698
f 561 699 559
f 561 697 699
f 563 695 561
f 561 695 697
f 559 701 557
f 564 597 595
f 597 596 595
f 319 596 598
f 421 708 706
f 706 708 705
f 424 421 423
f 423 333 424
f 421 706 423
f 704 333 423
f 423 706 704
f 702 330 334
f 702 334 704
f 704 701 702
f 702 701 699
f 422 335 334
f 334 330 422
f 490 335 422
f 422 330 332
f 705 708 707
f 709 551 707
f 710 709 707
f 707 708 710
f 681 682 680
f 681 680 679
f 678 680 721
f 686 715 717
f 717 715 718
f 625 624 623
f 679 627 625
f 625 681 679
f 623 681 625
f 686 689 688
f 688 547 713
f 688 715 686
f 713 715 688
f 616 587 588
f 687 689 686
f 615 689 687
f 609 548 611
f 613 610 611
f 611 608 609
f 611 610 608
f 689 613 690
f 548 547 690
f 690 611 548
f 613 611 690
f 547 688 690
f 690 688 689
f 623 622 621
f 80 34 37
f 37 34 1231
f 1231 1175 37
f 37 1175 1233
f 766 803 770
f 770 769 766
f 771 769 770
f 770 803 772
f 772 773 770
f 91 90 116
f 48 117 116
f 762 85 763
f 763 85 760
f 763 759 762
f 760 759 763
f 765 85 767
f 767 85 768
f 761 765 767
f 767 768 761
f 40 757 758
f 758 85 40
f 760 85 758
f 758 807 806
f 806 759 758
f 758 759 760
f 15 70 88
f 15 14 70
f 1 14 15
f 1208 1 15
f 1210 14 1211
f 1211 1258 1210
f 1211 1 1208
f 1211 14 1
f 16 12 1212
f 1213 16 1212
f 1209 1257 1212
f 1256 1213 1212
f 1212 1257 1256
f 107 68 106
f 107 69 68
f 88 70 108
f 108 107 133
f 70 69 108
f 69 107 108
f 226 778 171
f 171 778 752
f 45 159 160
f 164 165 177
f 177 159 164
f 177 160 159
f 65 159 46
f 46 159 45
f 170 114 47
f 47 179 170
f 161 179 47
f 43 160 47
f 47 160 161
f 23 72 20
f 72 21 20
f 21 1217 20
f 20 5 23
f 1218 5 20
f 20 1217 1218
f 18 1214 1215
f 19 71 18
f 19 21 71
f 18 1215 19
f 917 916 1026
f 1026 1025 917
f 918 916 917
f 800 799 790
f 790 788 789
f 790 798 788
f 790 799 798
f 825 149 824
f 824 801 825
f 825 801 794
f 825 815 149
f 823 815 825
f 822 823 793
f 793 791 822
f 823 825 793
f 793 825 794
f 785 787 786
f 818 787 785
f 786 783 785
f 785 817 818
f 783 817 785
f 1029 1028 1020
f 795 782 784
f 784 796 795
f 301 296 795
f 795 296 782
f 796 1020 795
f 909 533 532
f 531 898 532
f 898 909 532
f 779 752 772
f 779 780 164
f 164 171 779
f 779 171 752
f 810 817 809
f 780 779 809
f 809 817 816
f 816 780 809
f 895 884 885
f 895 894 884
f 836 894 895
f 885 886 895
f 895 886 896
f 896 833 895
f 846 1242 1285
f 846 845 1242
f 1285 847 846
f 891 858 1036
f 890 858 891
f 146 890 891
f 1036 147 891
f 891 147 146
f 881 882 854
f 881 1128 1034
f 1034 882 881
f 1101 1093 1100
f 1093 1099 1100
f 884 894 893
f 893 894 836
f 877 879 878
f 878 852 877
f 852 876 877
f 877 876 1130
f 863 884 861
f 861 864 863
f 885 884 863
f 862 864 861
f 852 864 862
f 866 864 878
f 225 156 221
f 225 155 156
f 230 227 229
f 1123 1125 1134
f 1128 879 1129
f 1129 1126 1128
f 879 877 1129
f 1129 877 1130
f 253 251 312
f 214 209 252
f 209 251 252
f 252 253 214
f 251 253 252
f 628 629 630
f 628 627 629
f 583 308 584
f 583 622 624
f 584 622 583
f 207 308 583
f 583 206 207
f 630 312 311
f 311 628 630
f 581 628 311
f 312 251 311
f 210 581 311
f 311 209 210
f 311 251 209
f 216 217 212
f 212 215 216
f 664 666 665
f 665 663 664
f 212 217 213
f 254 256 212
f 254 255 256
f 212 213 254
f 312 255 254
f 254 253 312
f 412 411 432
f 412 373 411
f 432 431 412
f 204 207 1205
f 207 206 1205
f 1205 205 204
f 203 205 1205
f 1205 202 203
f 1263 213 217
f 217 216 1263
f 1263 216 215
f 1263 215 172
f 1191 1296 1295
f 1295 1192 1191
f 1294 1192 1295
f 313 243 576
f 1251 1252 1274
f 1250 1251 1274
f 1274 1275 1250
f 1190 1189 1297
f 1297 1296 1190
f 1297 1189 1193
f 1193 1298 1297
f 1297 1271 1296
f 1297 1298 1272
f 1272 1271 1297
f 1272 1252 1253
f 1218 1217 1253
f 1253 1219 1218
f 1253 1252 1219
f 1253 1271 1272
f 1222 1252 1251
f 1219 1252 1222
f 4 1219 1222
f 1222 26 4
f 1223 1220 1250
f 1250 1249 1223
f 1223 1249 1224
f 1224 28 1223
f 78 77 30
f 78 33 79
f 32 35 79
f 79 33 32
f 32 1229 35
f 1246 1247 1279
f 1245 1246 1279
f 1306 1305 1182
f 1250 1275 1276
f 1276 1249 1250
f 1276 1275 1301
f 1301 1302 1276
f 1276 1303 1277
f 1302 1303 1276
f 29 28 1224
f 30 77 29
f 75 25 24
f 24 1223 28
f 25 1220 24
f 1220 1223 24
f 75 24 76
f 76 24 28
f 76 29 77
f 28 29 76
f 1227 1226 30
f 1224 1249 1227
f 2 33 31
f 30 1226 31
f 31 78 30
f 33 78 31
f 1228 33 2
f 1228 32 33
f 1228 1247 1229
f 1229 32 1228
f 1248 1276 1277
f 1249 1276 1248
f 1248 1227 1249
f 1226 1227 1248
f 838 1310 1179
f 1179 1184 838
f 1179 1310 1309
f 1309 1184 1179
f 1243 1244 1282
f 1285 1241 1284
f 1284 1310 1285
f 1243 1235 1232
f 1232 1244 1243
f 1233 1244 1232
f 1232 1235 1176
f 1304 1198 1197
f 1304 1303 1198
f 1197 1305 1304
f 1208 1260 1259
f 1259 1211 1208
f 1258 1211 1259
f 192 590 304
f 304 589 192
f 590 589 304
f 590 303 591
f 302 535 591
f 193 302 591
f 591 303 193
f 591 535 608
f 591 610 590
f 608 610 591
f 150 142 144
f 153 1098 150
f 1166 1167 1083
f 1096 1087 1089
f 1089 1097 1096
f 1098 1097 1085
f 1097 1089 1085
f 1079 1075 1073
f 1073 1074 1079
f 1063 1072 1073
f 1072 1074 1073
f 1080 150 1098
f 1079 1074 1080
f 1098 1082 1080
f 1080 1075 1079
f 1080 1082 1075
f 142 1001 143
f 144 142 143
f 143 1000 999
f 976 930 975
f 940 930 942
f 1007 943 942
f 942 941 940
f 943 941 942
f 940 926 932
f 932 930 940
f 938 937 928
f 928 927 938
f 928 936 918
f 928 937 936
f 928 918 907
f 907 927 928
f 943 948 946
f 904 941 946
f 946 941 943
f 946 948 947
f 946 945 904
f 947 945 946
f 950 948 943
f 952 951 950
f 947 948 949
f 951 965 949
f 949 950 951
f 948 950 949
f 949 963 947
f 949 965 963
f 952 950 1008
f 1008 950 943
f 1008 943 1007
f 1007 1010 1008
f 1009 1010 1007
f 993 992 746
f 746 477 993
f 291 299 298
f 169 291 298
f 298 297 169
f 530 1027 531
f 544 543 540
f 540 166 544
f 544 166 297
f 545 543 544
f 297 298 544
f 568 570 569
f 569 570 316
f 316 570 541
f 541 543 545
f 564 595 566
f 566 595 593
f 566 593 568
f 540 543 592
f 568 593 542
f 543 541 542
f 542 592 543
f 593 592 542
f 542 570 568
f 542 541 570
f 315 691 567
f 567 569 315
f 568 569 567
f 567 566 568
f 167 275 168
f 168 166 167
f 167 166 540
f 1026 916 1030
f 1030 1022 1026
f 1030 916 1031
f 1030 1031 1029
f 521 520 925
f 925 958 521
f 925 534 908
f 925 520 534
f 923 958 925
f 908 910 925
f 910 923 925
f 953 951 952
f 952 955 953
f 967 951 953
f 953 955 971
f 963 962 961
f 961 959 945
f 960 959 961
f 961 962 960
f 947 963 961
f 961 945 947
f 314 315 461
f 461 457 314
f 314 691 315
f 461 462 460
f 460 457 461
f 455 457 460
f 460 456 455
f 462 456 460
f 692 457 455
f 455 694 692
f 691 314 692
f 692 314 457
f 692 694 693
f 693 691 692
f 510 534 525
f 510 533 534
f 332 498 499
f 499 501 490
f 490 422 499
f 499 422 332
f 514 522 521
f 454 498 332
f 454 332 331
f 331 327 454
f 517 503 504
f 504 503 501
f 525 534 526
f 534 522 526
f 526 514 525
f 522 514 526
f 1104 1106 1107
f 1155 1067 1068
f 1155 1066 1154
f 376 1067 377
f 378 447 377
f 377 447 374
f 377 446 376
f 374 446 377
f 1151 380 378
f 1151 1149 380
f 1107 1109 1150
f 429 414 430
f 722 399 397
f 397 724 722
f 395 724 397
f 665 667 733
f 736 734 369
f 369 367 736
f 367 738 736
f 369 734 371
f 676 675 674
f 674 631 676
f 673 675 725
f 672 674 673
f 673 674 675
f 633 632 631
f 633 674 672
f 631 674 633
f 668 667 666
f 668 669 667
f 638 637 639
f 639 668 666
f 637 668 639
f 634 578 632
f 632 633 634
f 439 440 438
f 473 475 439
f 475 440 439
f 400 399 401
f 401 336 400
f 710 419 403
f 746 747 464
f 747 442 464
f 464 441 746
f 464 442 441
f 436 437 443
f 437 442 443
f 443 444 436
f 433 434 446
f 432 411 433
f 411 410 433
f 433 410 434
f 433 447 432
f 446 447 433
f 383 385 384
f 384 444 383
f 1055 385 383
f 322 321 486
f 486 495 322
f 322 495 321
f 968 966 967
f 970 321 968
f 321 320 968
f 497 966 968
f 968 320 497
f 496 495 494
f 496 320 495
f 496 494 497
f 497 320 496
f 493 482 491
f 491 335 490
f 424 335 491
f 491 482 424
f 491 490 492
f 492 493 491
f 486 485 484
f 484 482 493
f 484 485 483
f 483 482 484
f 484 495 486
f 493 495 484
f 471 472 473
f 471 470 472
f 487 485 486
f 487 486 480
f 480 478 487
f 487 478 488
f 487 488 474
f 474 472 487
f 472 485 487
f 550 548 609
f 549 548 550
f 609 608 606
f 608 535 606
f 606 535 536
f 536 604 606
f 536 285 537
f 537 604 536
f 285 266 537
f 537 266 284
f 562 561 559
f 562 597 564
f 564 563 562
f 563 561 562
f 705 707 553
f 553 707 551
f 703 557 701
f 703 701 704
f 704 706 703
f 703 706 705
f 594 595 596
f 594 596 319
f 593 595 594
f 594 592 593
f 539 289 319
f 319 598 539
f 282 289 539
f 283 282 539
f 700 702 699
f 330 702 700
f 699 698 700
f 331 330 700
f 700 698 331
f 680 682 719
f 719 721 680
f 682 717 719
f 719 717 718
f 686 717 684
f 684 717 682
f 684 687 686
f 614 616 588
f 614 589 612
f 588 589 614
f 612 615 614
f 615 687 617
f 619 616 617
f 617 614 615
f 616 614 617
f 620 621 622
f 619 621 620
f 620 622 584
f 584 585 620
f 94 80 81
f 80 37 81
f 92 84 91
f 91 116 92
f 92 116 117
f 118 92 117
f 93 92 118
f 118 117 48
f 94 93 118
f 118 119 94
f 771 770 774
f 774 770 773
f 774 90 771
f 774 773 90
f 115 116 90
f 115 751 116
f 115 773 777
f 90 773 115
f 49 778 48
f 48 116 49
f 49 116 778
f 756 758 757
f 807 758 756
f 756 757 755
f 755 807 756
f 10 88 11
f 10 15 88
f 1208 15 10
f 7 1212 12
f 7 12 13
f 113 112 43
f 43 47 113
f 113 47 114
f 114 275 113
f 113 275 276
f 113 276 187
f 187 180 113
f 113 180 157
f 157 112 113
f 89 157 182
f 89 112 157
f 109 108 133
f 88 108 109
f 11 88 87
f 87 9 11
f 88 109 87
f 87 109 110
f 196 195 87
f 87 195 193
f 87 193 192
f 192 9 87
f 164 159 162
f 162 171 164
f 162 159 226
f 44 160 43
f 45 160 44
f 43 112 44
f 165 272 290
f 290 177 165
f 290 272 270
f 134 133 65
f 134 109 133
f 135 46 45
f 110 109 135
f 109 134 135
f 65 46 135
f 135 134 65
f 1216 19 1215
f 1216 1217 21
f 21 19 1216
f 919 917 1025
f 907 918 919
f 918 917 919
f 1023 920 919
f 919 905 907
f 920 905 919
f 800 790 792
f 789 791 792
f 792 790 789
f 792 801 800
f 794 801 792
f 791 793 792
f 792 793 794
f 1029 1020 1021
f 797 1022 1021
f 1021 796 797
f 1021 1020 796
f 1021 1030 1029
f 1022 1030 1021
f 1019 795 1020
f 1028 1027 1019
f 1019 1020 1028
f 1027 530 1019
f 1019 530 529
f 509 507 531
f 531 532 509
f 509 506 507
f 509 532 506
f 752 778 750
f 750 751 752
f 778 116 750
f 116 751 750
f 772 752 775
f 752 751 775
f 751 115 775
f 802 779 772
f 802 809 779
f 772 803 802
f 802 803 810
f 810 809 802
f 833 845 844
f 844 895 833
f 845 846 844
f 844 846 847
f 847 836 844
f 836 895 844
f 1158 1100 1099
f 1103 858 1156
f 858 857 1156
f 1156 1034 1103
f 870 868 856
f 868 854 856
f 856 858 870
f 856 857 858
f 861 884 883
f 884 893 883
f 883 827 861
f 883 893 827
f 827 893 892
f 892 893 839
f 892 225 827
f 836 843 841
f 841 893 836
f 841 843 842
f 842 839 841
f 839 893 841
f 880 878 881
f 880 866 878
f 881 854 880
f 880 854 868
f 868 866 880
f 865 863 864
f 864 866 865
f 885 863 865
f 865 886 885
f 867 886 865
f 865 868 867
f 865 866 868
f 222 837 223
f 155 225 222
f 222 838 837
f 222 839 838
f 222 892 839
f 225 892 222
f 244 227 228
f 221 244 228
f 231 243 313
f 231 229 241
f 241 243 231
f 233 230 229
f 229 231 233
f 227 230 860
f 430 431 449
f 431 381 449
f 381 388 449
f 1144 1145 1146
f 1146 1113 1144
f 1144 1113 1115
f 1125 1123 1122
f 1126 1129 1127
f 1132 1125 1127
f 1130 1132 1127
f 1127 1129 1130
f 626 628 581
f 627 628 626
f 624 625 626
f 626 625 627
f 258 260 259
f 259 257 258
f 173 257 259
f 579 260 258
f 258 257 579
f 257 578 579
f 579 634 636
f 578 634 579
f 661 664 663
f 666 664 641
f 641 639 666
f 260 579 580
f 636 638 580
f 580 579 636
f 253 254 208
f 208 254 213
f 214 253 208
f 208 213 214
f 413 412 431
f 413 431 430
f 430 414 413
f 1293 1268 1267
f 1294 1268 1293
f 1290 1187 1291
f 1200 1290 1289
f 241 245 246
f 246 239 241
f 246 247 239
f 1269 1268 1294
f 1294 1295 1269
f 1256 1268 1269
f 1269 1295 1296
f 243 242 577
f 577 576 243
f 577 572 576
f 313 576 649
f 649 576 648
f 1272 1298 1299
f 1299 1298 1194
f 1299 1194 1195
f 1254 1253 1217
f 1271 1253 1254
f 1217 1216 1254
f 1251 1220 1221
f 1221 1222 1251
f 1221 1220 25
f 1221 25 26
f 26 1222 1221
f 1280 1279 1305
f 1305 1306 1280
f 1245 1279 1280
f 1280 1244 1245
f 3 29 1224
f 1224 1227 3
f 30 29 3
f 3 1227 30
f 1226 1248 1225
f 1247 1228 1225
f 1225 1248 1247
f 1225 31 1226
f 1225 1228 2
f 2 31 1225
f 1308 1185 1309
f 1241 1240 1283
f 1283 1284 1241
f 1309 1310 1283
f 1310 1284 1283
f 1283 1308 1309
f 1282 1308 1283
f 1283 1240 1243
f 1243 1282 1283
f 1305 1279 1278
f 1278 1304 1305
f 1278 1279 1247
f 1278 1248 1277
f 1247 1248 1278
f 1277 1303 1278
f 1303 1304 1278
f 1207 1260 1208
f 1205 1260 1207
f 1208 10 1207
f 1207 10 11
f 11 268 1207
f 1207 268 200
f 200 202 1207
f 202 1205 1207
f 1265 1260 1261
f 214 213 1261
f 1261 209 214
f 210 209 1261
f 211 210 1261
f 1261 1260 1205
f 1267 1258 1266
f 1258 1259 1266
f 1265 1291 1266
f 1266 1260 1265
f 1266 1259 1260
f 1266 1293 1267
f 142 150 141
f 1069 142 141
f 141 1070 1069
f 1091 1085 1089
f 1078 1083 1167
f 1075 1083 1078
f 1078 1073 1075
f 1081 1082 1098
f 1098 1085 1081
f 1075 1082 1081
f 1081 1083 1075
f 1071 1074 1072
f 1071 1080 1074
f 1071 1072 1063
f 1063 1070 1071
f 1070 141 1071
f 150 1080 1071
f 1071 141 150
f 977 979 978
f 930 976 944
f 944 977 978
f 976 977 944
f 944 1009 1007
f 978 1009 944
f 1007 942 944
f 944 942 930
f 975 930 929
f 930 932 929
f 929 976 975
f 907 935 934
f 934 932 926
f 935 933 934
f 934 933 932
f 934 927 907
f 926 927 934
f 1010 956 954
f 952 1008 954
f 954 1008 1010
f 954 955 952
f 957 955 954
f 954 956 957
f 978 979 980
f 957 984 973
f 973 955 957
f 971 955 973
f 974 971 973
f 982 489 974
f 468 489 982
f 974 973 982
f 982 973 984
f 565 563 564
f 564 566 565
f 693 563 565
f 566 567 565
f 565 691 693
f 565 567 691
f 967 953 969
f 969 953 971
f 969 968 967
f 970 968 969
f 969 972 970
f 969 971 972
f 533 510 508
f 508 532 533
f 506 532 508
f 525 506 508
f 508 510 525
f 521 516 515
f 515 514 521
f 513 524 525
f 525 514 513
f 513 514 498
f 498 454 513
f 501 499 500
f 500 499 498
f 498 514 500
f 514 515 500
f 500 515 516
f 516 523 500
f 1105 1104 1107
f 1154 1066 1105
f 380 1149 387
f 1149 388 387
f 387 388 381
f 387 448 380
f 431 448 387
f 387 381 431
f 351 1145 1143
f 1143 1144 1141
f 1145 1144 1143
f 389 1145 351
f 389 449 388
f 430 449 389
f 389 350 430
f 351 350 389
f 1147 388 1149
f 1149 1150 1147
f 1147 389 388
f 1145 389 1147
f 1153 377 1067
f 1154 1151 1153
f 378 377 1153
f 1153 1151 378
f 1153 1155 1154
f 1067 1155 1153
f 1116 1117 1115
f 1115 1114 1116
f 1111 1109 1108
f 1111 1113 1146
f 1112 1164 1114
f 1112 1114 1115
f 1115 1113 1112
f 1152 1151 1154
f 1107 1150 1152
f 1149 1151 1152
f 1152 1150 1149
f 1152 1105 1107
f 1154 1105 1152
f 415 366 414
f 414 429 415
f 351 1143 359
f 359 1143 1141
f 723 721 722
f 722 724 723
f 723 724 725
f 678 721 723
f 723 675 678
f 725 675 723
f 726 395 393
f 726 724 395
f 725 724 726
f 394 395 396
f 395 397 396
f 396 408 394
f 396 407 408
f 667 669 731
f 731 733 667
f 738 737 735
f 735 736 738
f 735 663 665
f 735 737 663
f 665 733 735
f 735 733 734
f 734 736 735
f 373 412 370
f 372 373 370
f 370 371 372
f 412 413 370
f 669 668 670
f 670 668 637
f 635 634 633
f 635 670 637
f 635 637 636
f 636 634 635
f 635 633 672
f 672 670 635
f 402 336 337
f 710 403 712
f 712 709 710
f 712 711 709
f 403 337 712
f 463 747 748
f 748 443 463
f 463 442 747
f 463 443 442
f 749 383 444
f 748 1056 749
f 749 1056 1055
f 1055 383 749
f 405 406 402
f 438 406 405
f 405 439 438
f 473 439 405
f 405 471 473
f 470 471 404
f 420 470 404
f 404 419 420
f 404 403 419
f 552 551 549
f 549 550 552
f 604 605 607
f 607 606 604
f 609 606 607
f 605 552 607
f 607 550 609
f 607 552 550
f 601 558 556
f 559 557 560
f 557 558 560
f 560 562 559
f 597 562 560
f 557 703 555
f 555 553 556
f 705 553 555
f 555 703 705
f 556 558 555
f 555 558 557
f 319 287 318
f 318 594 319
f 318 167 540
f 540 592 318
f 592 594 318
f 287 275 318
f 275 167 318
f 600 539 598
f 598 601 600
f 720 719 718
f 720 399 722
f 722 721 720
f 721 719 720
f 718 401 720
f 720 401 399
f 683 681 623
f 623 621 683
f 682 681 683
f 683 684 682
f 618 616 619
f 619 620 618
f 586 587 618
f 587 616 618
f 618 585 586
f 618 620 585
f 82 92 93
f 82 93 94
f 94 81 82
f 52 118 48
f 48 778 52
f 101 74 75
f 73 74 101
f 77 78 98
f 1209 1212 1178
f 1212 7 1178
f 13 1209 1178
f 1178 7 13
f 86 87 110
f 86 189 196
f 196 87 86
f 226 171 163
f 163 162 226
f 171 162 163
f 160 177 178
f 177 290 178
f 178 179 161
f 161 160 178
f 178 290 270
f 270 269 178
f 269 179 178
f 111 86 110
f 112 89 111
f 111 181 191
f 191 189 111
f 189 86 111
f 182 181 111
f 111 89 182
f 1024 919 1025
f 1024 1025 800
f 800 801 1024
f 1023 919 1024
f 1024 824 1023
f 1024 801 824
f 776 777 772
f 772 775 776
f 776 115 777
f 776 775 115
f 1100 1158 1159
f 1159 1160 1101
f 1101 1100 1159
f 1159 1122 1160
f 1126 1158 1157
f 1157 1034 1128
f 1128 1126 1157
f 1103 1034 1157
f 1157 1099 1103
f 1157 1158 1099
f 855 856 854
f 857 856 855
f 855 854 882
f 855 1156 857
f 882 1034 855
f 1034 1156 855
f 223 155 154
f 154 222 223
f 155 222 154
f 827 225 224
f 224 228 827
f 224 225 221
f 221 228 224
f 859 228 227
f 227 860 859
f 827 228 859
f 861 827 859
f 859 862 861
f 859 860 862
f 230 233 826
f 826 860 230
f 852 862 826
f 862 860 826
f 1136 1123 1134
f 1136 1135 1138
f 1136 1121 1123
f 1138 1121 1136
f 1134 1133 1136
f 1133 1135 1136
f 1119 1121 1140
f 1140 1121 1138
f 1125 1122 1124
f 1124 1127 1125
f 1126 1127 1124
f 1124 1158 1126
f 1124 1159 1158
f 1122 1159 1124
f 1123 1121 1120
f 1120 1122 1123
f 1120 1121 1119
f 1160 1122 1120
f 582 626 581
f 581 249 582
f 582 583 624
f 624 626 582
f 206 583 582
f 211 206 582
f 582 249 211
f 740 737 738
f 240 242 239
f 240 577 242
f 572 577 240
f 648 576 646
f 576 572 646
f 664 661 662
f 662 641 664
f 661 659 662
f 1188 1200 223
f 223 1187 1188
f 1188 1290 1200
f 1187 1290 1188
f 1291 1187 1292
f 1292 1266 1291
f 1293 1266 1292
f 638 639 640
f 639 641 640
f 239 247 234
f 234 240 239
f 572 240 234
f 1296 1271 1270
f 1270 1269 1296
f 654 649 648
f 650 745 341
f 1273 1274 1252
f 1273 1252 1272
f 1272 1299 1273
f 1301 1275 1300
f 1275 1274 1300
f 1195 1301 1300
f 1300 1299 1195
f 1274 1273 1300
f 1300 1273 1299
f 1255 1216 1215
f 1255 1254 1216
f 1271 1254 1255
f 1255 1270 1271
f 1255 1214 1256
f 1255 1215 1214
f 1256 1269 1255
f 1269 1270 1255
f 1281 1282 1244
f 1244 1280 1281
f 213 1263 1264
f 1264 1261 213
f 1263 1289 1264
f 1264 1289 1290
f 1265 1261 1264
f 1264 1291 1265
f 1264 1290 1291
f 1206 1205 206
f 1206 1261 1205
f 1206 206 211
f 211 1261 1206
f 1091 1164 1086
f 1085 1091 1086
f 1086 1081 1085
f 997 143 999
f 144 143 997
f 151 977 976
f 151 150 144
f 144 997 151
f 151 997 977
f 153 150 151
f 151 152 149
f 872 153 151
f 151 149 140
f 139 872 151
f 151 140 139
f 932 933 931
f 931 929 932
f 931 933 935
f 935 976 931
f 976 929 931
f 1012 956 1010
f 1012 988 956
f 1010 1009 1012
f 988 987 985
f 981 984 983
f 981 982 984
f 983 993 981
f 477 469 981
f 981 993 477
f 981 469 468
f 468 982 981
f 983 985 991
f 991 993 983
f 1065 1068 1055
f 1065 1155 1068
f 1066 1155 1065
f 1055 1056 1054
f 1054 1065 1055
f 1063 1073 1076
f 1168 1078 1167
f 1168 1167 1106
f 1106 1104 1168
f 571 546 325
f 316 541 571
f 571 541 545
f 545 546 571
f 300 546 299
f 325 546 300
f 292 296 300
f 300 299 292
f 300 296 301
f 301 325 300
f 317 298 299
f 299 546 317
f 317 546 545
f 545 544 317
f 317 544 298
f 323 324 316
f 316 571 323
f 323 571 325
f 323 325 301
f 301 324 323
f 527 1019 529
f 301 795 527
f 795 1019 527
f 529 530 511
f 511 459 529
f 461 459 511
f 316 324 458
f 458 569 316
f 315 569 458
f 461 315 458
f 458 459 461
f 529 459 326
f 326 458 324
f 459 458 326
f 326 324 301
f 329 456 524
f 524 513 329
f 329 454 327
f 329 513 454
f 502 504 501
f 501 500 502
f 517 504 502
f 502 523 517
f 502 500 523
f 1119 1117 1118
f 1117 1116 1118
f 1118 1120 1119
f 1160 1120 1118
f 1163 1164 1091
f 1163 1116 1114
f 1114 1164 1163
f 1148 1150 1109
f 1109 1111 1148
f 1148 1111 1146
f 1148 1147 1150
f 1146 1145 1148
f 1145 1147 1148
f 1110 1108 1166
f 1110 1111 1108
f 1113 1111 1110
f 1110 1112 1113
f 367 366 364
f 366 415 364
f 352 1135 1133
f 450 359 429
f 430 350 450
f 450 429 430
f 450 350 351
f 351 359 450
f 407 396 398
f 400 406 398
f 406 407 398
f 398 399 400
f 398 397 399
f 398 396 397
f 734 733 732
f 733 731 732
f 372 371 732
f 732 371 734
f 732 390 372
f 728 393 391
f 728 726 393
f 729 731 669
f 368 370 413
f 368 366 369
f 369 371 368
f 371 370 368
f 414 366 368
f 368 413 414
f 716 715 713
f 718 715 716
f 716 401 718
f 336 401 716
f 444 443 382
f 382 749 444
f 382 443 748
f 748 749 382
f 338 337 403
f 403 404 338
f 402 337 338
f 338 404 471
f 338 405 402
f 471 405 338
f 554 552 605
f 556 553 554
f 554 553 551
f 551 552 554
f 597 560 599
f 599 596 597
f 599 598 596
f 599 601 598
f 558 601 599
f 599 560 558
f 283 539 538
f 539 600 538
f 538 284 283
f 538 537 284
f 603 600 601
f 603 601 556
f 556 554 603
f 603 554 605
f 687 684 685
f 684 683 685
f 619 617 685
f 685 617 687
f 685 621 619
f 685 683 621
f 92 82 83
f 84 92 83
f 83 38 42
f 42 84 83
f 36 37 1233
f 36 81 37
f 36 82 81
f 1233 1232 36
f 36 1232 1176
f 75 76 99
f 99 76 77
f 77 98 99
f 110 135 136
f 136 111 110
f 112 111 136
f 136 135 45
f 45 44 136
f 136 44 112
f 233 232 875
f 875 826 233
f 346 341 425
f 1142 1117 1119
f 1119 1140 1142
f 1115 1117 1142
f 1142 1144 1115
f 1141 1144 1142
f 1142 1140 1141
f 1141 1140 1139
f 1139 1140 1138
f 737 740 739
f 663 737 739
f 739 661 663
f 365 738 367
f 365 740 738
f 367 364 365
f 648 646 647
f 647 646 644
f 658 647 645
f 645 647 644
f 223 1192 1181
f 1293 1292 1181
f 1181 1192 1294
f 1294 1293 1181
f 575 262 580
f 575 580 638
f 638 640 575
f 642 575 640
f 642 645 644
f 1262 1263 172
f 248 293 261
f 580 262 261
f 173 259 261
f 261 259 260
f 260 580 261
f 1287 293 248
f 572 234 238
f 655 745 650
f 650 654 655
f 658 657 655
f 657 745 655
f 1307 1308 1282
f 1282 1281 1307
f 1307 1280 1306
f 1307 1281 1280
f 1307 1182 1186
f 1307 1306 1182
f 1186 1185 1307
f 1185 1308 1307
f 1166 1083 1084
f 1083 1081 1084
f 1081 1086 1084
f 979 977 996
f 977 997 996
f 996 980 979
f 996 997 980
f 145 976 935
f 145 151 976
f 935 152 145
f 152 151 145
f 1011 1012 1009
f 1011 1009 978
f 983 984 986
f 986 985 983
f 986 984 957
f 988 985 986
f 957 956 986
f 956 988 986
f 995 991 990
f 993 991 994
f 994 991 995
f 992 993 994
f 994 1042 992
f 1066 1065 1037
f 1048 1038 1037
f 1037 1054 1048
f 1065 1054 1037
f 1048 1054 1057
f 1057 1054 1056
f 1058 1056 748
f 1058 1057 1056
f 1059 1057 1058
f 748 747 1058
f 747 1042 1058
f 1073 1078 1077
f 1077 1076 1073
f 1078 1168 1077
f 1039 1105 1066
f 1104 1105 1039
f 1066 1037 1039
f 1039 1037 1038
f 512 507 461
f 461 511 512
f 531 507 512
f 512 530 531
f 512 511 530
f 528 527 529
f 529 326 528
f 301 527 528
f 528 326 301
f 455 456 328
f 456 329 328
f 328 694 455
f 328 329 327
f 696 694 328
f 328 327 696
f 1090 1163 1091
f 1090 1091 1089
f 1163 1090 1162
f 1116 1163 1162
f 1164 1112 1165
f 1112 1110 1165
f 1165 1110 1166
f 1165 1086 1164
f 1166 1084 1165
f 1165 1084 1086
f 390 732 730
f 391 390 730
f 730 728 391
f 730 729 728
f 730 732 731
f 731 729 730
f 671 729 669
f 672 673 671
f 671 670 672
f 669 670 671
f 727 673 725
f 728 729 727
f 727 671 673
f 729 671 727
f 725 726 727
f 726 728 727
f 714 712 337
f 714 337 336
f 336 716 714
f 714 716 713
f 713 711 714
f 711 712 714
f 600 603 602
f 604 537 602
f 602 605 604
f 602 603 605
f 537 538 602
f 602 538 600
f 39 1235 38
f 39 36 1176
f 38 83 39
f 1176 1235 39
f 39 83 82
f 82 36 39
f 79 95 96
f 96 78 79
f 226 65 66
f 66 62 226
f 65 133 66
f 63 64 226
f 226 62 63
f 133 107 132
f 132 66 133
f 62 66 132
f 61 56 226
f 226 60 61
f 226 64 59
f 59 60 226
f 106 68 105
f 68 67 105
f 105 67 71
f 71 104 105
f 103 71 72
f 103 104 71
f 1130 876 853
f 853 876 852
f 852 826 853
f 826 875 853
f 1035 1132 1130
f 1130 853 1035
f 1035 853 875
f 1035 875 232
f 353 346 425
f 1135 352 354
f 741 659 661
f 661 739 741
f 740 365 363
f 658 645 660
f 660 657 658
f 660 659 657
f 660 662 659
f 1180 1292 1187
f 1180 1181 1292
f 1180 1187 223
f 223 1181 1180
f 236 248 264
f 574 642 644
f 236 264 574
f 575 642 574
f 574 264 575
f 645 642 643
f 662 660 643
f 643 660 645
f 641 662 643
f 643 640 641
f 643 642 640
f 172 219 218
f 248 261 263
f 263 264 248
f 575 264 263
f 262 575 263
f 263 261 262
f 174 261 293
f 173 261 174
f 172 173 174
f 174 219 172
f 156 1200 1201
f 1204 246 245
f 1204 245 220
f 220 158 1204
f 1203 234 247
f 247 246 1203
f 246 1204 1203
f 1203 1204 158
f 1203 158 156
f 234 1287 235
f 235 238 234
f 235 248 236
f 235 1287 248
f 656 654 648
f 656 655 654
f 658 655 656
f 656 647 658
f 648 647 656
f 995 990 1043
f 1043 994 995
f 1043 1051 1059
f 1042 994 1043
f 1043 1058 1042
f 1059 1058 1043
f 899 991 985
f 899 990 991
f 989 990 899
f 899 901 989
f 899 985 987
f 1059 1051 1049
f 1049 1057 1059
f 1048 1057 1049
f 1046 1061 1060
f 1060 1003 1046
f 1044 1003 1060
f 1012 1011 1014
f 988 1012 1014
f 1014 987 988
f 1044 1060 1006
f 989 901 1041
f 1041 990 989
f 1041 1043 990
f 1051 1043 1041
f 1018 1006 1174
f 1017 1006 1018
f 1171 1076 1170
f 1076 1077 1170
f 1169 1168 1104
f 1104 1039 1169
f 1169 1077 1168
f 1169 1170 1077
f 1169 1039 1038
f 1038 1170 1169
f 1088 1089 1087
f 1088 1090 1089
f 1087 1102 1088
f 1102 1162 1088
f 1088 1162 1090
f 1161 1118 1116
f 1116 1162 1161
f 1160 1118 1161
f 1161 1162 1102
f 1161 1102 1101
f 1101 1160 1161
f 429 359 349
f 349 451 429
f 428 415 429
f 429 451 428
f 119 118 51
f 118 52 51
f 226 50 51
f 51 778 226
f 51 52 778
f 120 95 94
f 94 119 120
f 120 96 95
f 119 51 120
f 120 51 50
f 226 56 57
f 57 58 226
f 53 54 226
f 226 58 53
f 124 99 98
f 124 53 58
f 58 57 124
f 123 124 98
f 53 124 123
f 131 63 62
f 62 132 131
f 64 63 131
f 131 107 106
f 131 132 107
f 106 105 131
f 64 131 130
f 130 131 105
f 104 103 129
f 60 59 129
f 129 105 104
f 129 130 105
f 129 59 64
f 64 130 129
f 127 61 60
f 56 61 127
f 127 126 56
f 101 126 127
f 72 73 102
f 102 103 72
f 102 127 103
f 73 101 102
f 101 127 102
f 347 352 1133
f 347 353 352
f 346 353 347
f 651 654 650
f 1132 1035 1131
f 1134 1132 1131
f 1131 1133 1134
f 1131 347 1133
f 1131 1035 348
f 348 347 1131
f 652 1035 232
f 348 1035 652
f 1135 354 1137
f 1138 1135 1137
f 1137 1139 1138
f 653 341 745
f 426 353 425
f 352 353 426
f 426 354 352
f 573 574 644
f 572 238 573
f 573 646 572
f 644 646 573
f 219 174 1288
f 293 1287 1288
f 1288 174 293
f 1288 218 219
f 1288 1262 172
f 172 218 1288
f 1288 1289 1263
f 1263 1262 1288
f 1287 1201 1288
f 1200 1289 1288
f 1288 1201 1200
f 1286 1287 234
f 234 1203 1286
f 1286 1203 1287
f 1202 1201 1287
f 1287 1203 1202
f 156 1201 1202
f 1202 1203 156
f 237 235 236
f 238 235 237
f 237 573 238
f 236 574 237
f 574 573 237
f 900 899 987
f 901 899 900
f 1017 1018 900
f 900 1018 901
f 1171 1170 1047
f 1047 1170 1038
f 1047 1038 1048
f 1048 1049 1047
f 1173 1052 1174
f 1174 1006 1173
f 1173 1006 1060
f 1174 1052 1053
f 1053 1018 1174
f 901 1018 1053
f 1053 1041 901
f 1053 1052 1051
f 1051 1041 1053
f 1051 1052 1050
f 1050 1049 1051
f 1050 1047 1049
f 1171 1047 1050
f 1046 1003 1045
f 1045 142 1046
f 1040 142 1045
f 1045 1001 1040
f 1062 1173 1060
f 1062 1060 1061
f 1062 1061 1063
f 358 359 1141
f 358 349 359
f 1141 1139 358
f 451 349 358
f 358 428 451
f 427 428 452
f 452 355 427
f 427 426 417
f 362 365 364
f 362 363 365
f 96 120 121
f 125 124 57
f 56 126 125
f 125 57 56
f 125 126 101
f 60 129 128
f 128 127 60
f 128 129 103
f 103 127 128
f 650 341 344
f 649 654 309
f 654 651 309
f 309 652 232
f 651 652 309
f 348 652 339
f 339 347 348
f 342 343 341
f 341 653 342
f 342 361 343
f 417 426 418
f 418 426 425
f 425 341 418
f 341 343 418
f 453 355 354
f 354 426 453
f 453 427 355
f 426 427 453
f 360 361 363
f 360 362 417
f 363 362 360
f 417 418 360
f 343 361 360
f 360 418 343
f 363 361 742
f 740 363 742
f 742 739 740
f 742 741 739
f 657 659 743
f 659 741 743
f 743 745 657
f 743 653 745
f 1171 1050 1172
f 1173 1062 1172
f 1052 1173 1172
f 1172 1050 1052
f 1002 1003 1000
f 1002 1045 1003
f 1001 1045 1002
f 1002 143 1001
f 1000 143 1002
f 998 1015 980
f 980 997 998
f 1000 1003 998
f 1003 1015 998
f 999 1000 998
f 998 997 999
f 980 1015 1013
f 978 980 1013
f 1013 1011 978
f 1013 1014 1011
f 1004 1015 1003
f 1004 1006 1017
f 1017 1015 1004
f 1016 1015 1017
f 987 1014 1016
f 1014 1013 1016
f 1016 1013 1015
f 1016 900 987
f 1017 900 1016
f 1064 1076 1171
f 1171 1172 1064
f 1064 1172 1062
f 1063 1076 1064
f 1064 1062 1063
f 356 358 1139
f 1139 1137 356
f 356 1137 354
f 354 355 356
f 356 355 452
f 452 428 357
f 428 358 357
f 357 356 452
f 358 356 357
f 428 427 416
f 415 428 416
f 416 427 417
f 417 362 416
f 416 364 415
f 416 362 364
f 226 54 55
f 55 50 226
f 55 120 50
f 55 121 120
f 96 121 122
f 122 123 98
f 54 53 122
f 53 123 122
f 122 55 54
f 121 55 122
f 100 101 75
f 100 125 101
f 75 99 100
f 99 124 100
f 124 125 100
f 313 649 310
f 649 309 310
f 310 231 313
f 310 309 232
f 310 233 231
f 310 232 233
f 340 652 651
f 340 339 652
f 340 651 650
f 650 344 340
f 344 339 340
f 347 339 345
f 345 339 344
f 346 347 345
f 341 346 345
f 345 344 341
f 744 742 361
f 361 342 744
f 741 742 744
f 744 743 741
f 744 342 653
f 653 743 744
f 1005 1003 1044
f 1005 1004 1003
f 1044 1006 1005
f 1006 1004 1005
f 97 98 78
f 97 122 98
f 78 96 97
f 96 122 97

