# https://github.com/mikedh/trimesh
v 0.03436964 0.00351844 0.00540008
v 0.03436964 0.00352953 0.00587525
v 0.03436964 0.00356420 0.00498275
v 0.03789023 -0.00252073 0.00662997
v 0.03436964 0.00353924 0.00614402
v 0.03436964 0.00396219 0.00466578
v 0.03436964 0.00392197 0.00659425
v 0.03436964 0.00376805 0.00655342
v 0.03436964 0.00358916 0.00649275
v 0.03436964 0.00358084 0.00644568
v 0.03894102 -0.00026038 0.00454046
v 0.04261606 -0.00026038 0.00350336
v 0.04433706 -0.00026038 0.00307299
v 0.04545680 -0.00252073 0.00662997
v 0.03821705 -0.00252073 0.00668043
v 0.04084405 0.00654426 0.00886577
v 0.04044827 0.00690342 0.00886577
v 0.04008835 0.00730973 0.00886577
v 0.03436964 0.00468051 0.00440608
v 0.03436964 0.00415078 0.00662940
v 0.04005388 0.00737629 0.00886577
v 0.03436964 0.00981414 0.00307299
v 0.04565124 -0.00026038 0.00307299
v 0.04541957 -0.00252073 0.00663961
v 0.04845751 0.00632516 0.00307299
v 0.04845751 0.00631268 0.00540008
v 0.04845751 0.00639172 0.00611908
v 0.04794038 0.00627662 0.00886577
v 0.03894102 -0.00252073 0.00669518
v 0.04181900 0.00620729 0.00886577
v 0.04170592 0.00623641 0.00886577
v 0.04120534 0.00636537 0.00886577
v 0.04091162 0.00650959 0.00886577
v 0.03991046 0.00766889 0.00886577
v 0.03894102 0.00969350 0.00886577
v 0.03482609 0.00985436 0.00760016
v 0.03436964 0.01164600 0.00662940
v 0.03436964 0.01164600 0.00307299
v 0.04469835 -0.00252073 0.00669575
v 0.04845751 0.00891971 0.00307299
v 0.04845751 0.00667600 0.00662940
v 0.04794038 0.00884067 0.00886577
v 0.03894102 0.01164461 0.00886577
v 0.03482609 0.01164461 0.00760016
v 0.03482609 0.01164600 0.00683920
v 0.04126878 0.01164600 0.00307299
v 0.04652277 0.01082506 0.00307299
v 0.04652829 0.01083200 0.00886577
v 0.04845751 0.00891971 0.00662940
v 0.04397989 0.01164461 0.00886577
v 0.04397714 0.01164600 0.00683920
v 0.04397852 0.01164600 0.00540008
v 0.04397852 0.01164184 0.00307299
v 0.04622905 0.01105387 0.00307299
v 0.04613941 0.01112321 0.00307299
v 0.04613941 0.01112598 0.00886577
v 0.04469973 0.01162797 0.00886577
v 0.04397852 0.01164600 0.00662940
v 0.04414537 0.01163629 0.00307299
v 0.04568296 0.01139084 0.00886577
v 0.04556575 0.01145602 0.00307299
v 0.04521686 0.01156418 0.00886577
v 0.04469973 0.01161549 0.00307299
v 0.04557540 0.01145325 0.00886577
v 0.04520307 0.01155309 0.00307299
f 1 2 5
f 1 5 10
f 1 10 9
f 1 9 8
f 1 8 7
f 1 7 20
f 1 20 37
f 1 37 38
f 1 38 22
f 1 22 19
f 1 19 6
f 1 6 3
f 1 3 4
f 1 4 2
f 2 4 5
f 3 6 4
f 4 7 8
f 4 8 9
f 4 9 10
f 4 10 5
f 4 6 11
f 4 11 12
f 4 12 13
f 4 13 23
f 4 23 14
f 4 14 24
f 4 24 39
f 4 39 29
f 4 29 15
f 4 15 16
f 4 16 17
f 4 17 18
f 4 18 7
f 6 19 11
f 7 18 21
f 7 21 20
f 11 19 12
f 12 19 22
f 12 22 13
f 13 22 38
f 13 38 46
f 13 46 53
f 13 53 59
f 13 59 63
f 13 63 65
f 13 65 61
f 13 61 55
f 13 55 54
f 13 54 47
f 13 47 40
f 13 40 25
f 13 25 23
f 14 23 25
f 14 25 26
f 14 26 27
f 14 27 28
f 14 28 24
f 15 29 30
f 15 30 31
f 15 31 32
f 15 32 33
f 15 33 16
f 16 33 32
f 16 32 31
f 16 31 30
f 16 30 28
f 16 28 42
f 16 42 48
f 16 48 56
f 16 56 60
f 16 60 64
f 16 64 62
f 16 62 57
f 16 57 50
f 16 50 43
f 16 43 35
f 16 35 34
f 16 34 21
f 16 21 18
f 16 18 17
f 20 21 34
f 20 34 35
f 20 35 36
f 20 36 44
f 20 44 37
f 24 28 39
f 25 40 49
f 25 49 41
f 25 41 27
f 25 27 26
f 27 41 28
f 28 30 39
f 28 41 49
f 28 49 42
f 29 39 30
f 35 43 44
f 35 44 36
f 37 44 45
f 37 45 51
f 37 51 58
f 37 58 52
f 37 52 46
f 37 46 38
f 40 47 48
f 40 48 49
f 42 49 48
f 43 50 51
f 43 51 45
f 43 45 44
f 46 52 53
f 47 54 48
f 48 54 55
f 48 55 56
f 50 57 51
f 51 57 58
f 52 57 59
f 52 59 53
f 52 58 57
f 55 60 56
f 55 61 64
f 55 64 60
f 57 62 63
f 57 63 59
f 61 65 62
f 61 62 64
f 62 65 63

