# https://github.com/mikedh/trimesh
v 0.02058056 -0.00666404 -0.00002637
v 0.02058056 -0.00443610 -0.00002637
v 0.02059863 -0.00666404 -0.00002637
v 0.02058056 -0.00667370 0.00514090
v 0.02058056 -0.00414218 0.00514040
v 0.02376383 -0.00443610 -0.00002637
v 0.02442530 -0.00666379 -0.00002637
v 0.02058056 -0.00622613 0.00514090
v 0.02897507 -0.00666379 0.00446212
v 0.02897507 -0.00666379 0.00513837
v 0.02841139 -0.00666379 0.00514090
v 0.02110152 -0.00436373 0.00514090
v 0.02897507 -0.00443610 0.00514090
v 0.02897507 -0.00443610 0.00512370
v 0.02897507 -0.00445394 0.00446212
v 0.02442530 -0.00449830 -0.00002637
v 0.02479754 -0.00664000 -0.00002637
v 0.02897507 -0.00664000 0.00406911
v 0.02897507 -0.00466558 0.00514090
v 0.02897507 -0.00453969 0.00407568
v 0.02897507 -0.00455183 0.00402106
v 0.02479754 -0.00459594 -0.00002637
v 0.02498735 -0.00628561 -0.00002637
v 0.02897507 -0.00628561 0.00379597
v 0.02897507 -0.00659638 0.00403522
v 0.02897507 -0.00491192 0.00378232
v 0.02484191 -0.00467624 -0.00002637
v 0.02897507 -0.00496247 0.00374893
v 0.02513443 -0.00562392 -0.00002637
v 0.02897507 -0.00562392 0.00358556
v 0.02897507 -0.00620407 0.00376967
v 0.02498653 -0.00496247 -0.00002637
v 0.02502104 -0.00510522 -0.00002637
f 1 2 6
f 1 6 16
f 1 16 22
f 1 22 27
f 1 27 32
f 1 32 33
f 1 33 29
f 1 29 23
f 1 23 17
f 1 17 7
f 1 7 3
f 1 3 4
f 1 4 8
f 1 8 5
f 1 5 2
f 2 5 6
f 3 7 4
f 4 7 9
f 4 9 10
f 4 10 11
f 4 11 19
f 4 19 13
f 4 13 12
f 4 12 8
f 5 8 12
f 5 12 13
f 5 13 14
f 5 14 15
f 5 15 6
f 6 15 16
f 7 17 18
f 7 18 9
f 9 18 25
f 9 25 24
f 9 24 31
f 9 31 30
f 9 30 28
f 9 28 26
f 9 26 21
f 9 21 20
f 9 20 15
f 9 15 14
f 9 14 13
f 9 13 19
f 9 19 10
f 10 19 11
f 15 20 16
f 16 20 21
f 16 21 22
f 17 23 24
f 17 24 25
f 17 25 18
f 21 26 22
f 22 26 28
f 22 28 27
f 23 29 30
f 23 30 31
f 23 31 24
f 27 28 32
f 28 30 32
f 29 33 30
f 30 33 32

