# https://github.com/mikedh/trimesh
v -0.00045438 -0.02094272 0.02849136
v 0.00275044 -0.02094272 0.02849136
v 0.02553623 -0.04147495 0.02837805
v 0.02553623 -0.04465316 0.02837805
v -0.00044620 -0.02993136 0.02849136
v -0.00042573 -0.02993136 0.02858937
v -0.00042983 -0.02094272 0.02859980
v 0.00429351 0.00785184 0.03386754
v 0.00429351 0.00785184 0.03045164
v 0.04135981 0.00391642 0.03090556
v 0.03814270 -0.04161403 0.02837805
v 0.02606013 -0.04466862 0.02837805
v 0.02530702 -0.04461196 0.02849136
v 0.02405456 -0.04457075 0.02849136
v 0.02279801 -0.04450893 0.02849136
v 0.02248694 -0.04449348 0.02849136
v 0.01975690 -0.04432865 0.02849136
v 0.01779225 -0.04418956 0.02849136
v 0.01653979 -0.04408654 0.02849136
v 0.01403487 -0.04383929 0.02849136
v 0.01278241 -0.04370021 0.02849136
v 0.01147265 -0.04354568 0.02849136
v 0.01027749 -0.04340145 0.02849136
v 0.00913963 -0.04321601 0.02849136
v 0.00842745 -0.04308208 0.02849136
v 0.00575062 -0.04191794 0.02849136
v 0.00426895 -0.04085682 0.02849136
v 0.00371640 -0.04038291 0.02849136
v 0.00303696 -0.03971327 0.02849136
v 0.00236570 -0.03894061 0.02849136
v 0.00189500 -0.03838944 0.02849136
v 0.00087994 -0.03678746 0.02849136
v 0.00063436 -0.03611782 0.02849136
v 0.00023733 -0.03500003 0.02849136
v 0.00004087 -0.03428918 0.02849136
v -0.00010648 -0.03371741 0.02849136
v -0.00031113 -0.03274386 0.02849136
v -0.00040527 -0.03202270 0.02849136
v -0.00043801 -0.03118823 0.02849136
v -0.00042164 -0.03118823 0.02857338
v -0.00019652 -0.02993136 0.02921569
v -0.00019652 -0.02094272 0.02922612
v 0.00525946 -0.00117801 0.03424222
v 0.00526355 0.00785184 0.03424291
v 0.00041334 -0.02094272 0.03034667
v 0.00085538 -0.02094272 0.03100010
v 0.00093724 -0.02094272 0.03110715
v 0.00135882 -0.02094272 0.03162573
v 0.00146524 -0.02094272 0.03175085
v 0.00198505 -0.02094272 0.03235214
v 0.00275044 -0.02094272 0.03296178
v 0.00340942 -0.02094272 0.03346088
v 0.00403565 -0.02094272 0.03376744
v 0.00424439 -0.02094272 0.03384877
v 0.00525946 -0.02094272 0.03424291
v 0.00903322 0.00785184 0.03198163
v 0.04135981 0.00540508 0.03184191
v 0.04135981 0.00533296 0.03166535
v 0.04135981 0.00265955 0.03090070
v 0.03814270 -0.04472528 0.02837805
v 0.02656767 -0.04467892 0.02837805
v 0.02656767 -0.04451408 0.02889454
v 0.02530702 -0.04449863 0.02885491
v 0.02405456 -0.04447288 0.02879235
v 0.02279801 -0.04443682 0.02871102
v 0.02055504 -0.04436986 0.02852890
v 0.01779225 -0.04395262 0.02909265
v 0.01653979 -0.04385990 0.02909265
v 0.01528733 -0.04375172 0.02909265
v 0.01403487 -0.04363325 0.02909265
v 0.01278241 -0.04350962 0.02909265
v 0.01141125 -0.04332418 0.02921638
v 0.01027749 -0.04327267 0.02895779
v 0.00923787 -0.04318510 0.02870755
v 0.00890224 -0.04293786 0.02911281
v 0.00776847 -0.04257728 0.02909265
v 0.00649555 -0.04206732 0.02903078
v 0.00577109 -0.04190248 0.02861440
v 0.00435491 -0.04078985 0.02887090
v 0.00396607 -0.04027989 0.02921013
v 0.00315156 -0.03957935 0.02909265
v 0.00194821 -0.03831733 0.02883962
v 0.00099454 -0.03631356 0.02921499
v 0.00087584 -0.03555635 0.02971480
v 0.00069166 -0.03597874 0.02887785
v 0.00164124 -0.03754982 0.02919205
v 0.00049929 -0.03506184 0.02921499
v 0.00007771 -0.03368650 0.02909265
v -0.00016378 -0.03242964 0.02900020
v -0.00040117 -0.03200725 0.02852055
v -0.00018015 -0.03118823 0.02920109
v 0.00039287 -0.02993136 0.03034667
v 0.00040515 -0.02366249 0.03034667
v 0.00651192 0.00785184 0.03451124
v 0.01027340 -0.00110074 0.03542881
v 0.01027340 0.00015612 0.03541630
v 0.00083082 -0.02993136 0.03102582
v 0.00085129 -0.02115907 0.03100149
v 0.00135882 -0.02241078 0.03163129
v 0.00135882 -0.02993136 0.03165284
v 0.00198505 -0.02993136 0.03235214
v 0.00275044 -0.02993136 0.03296178
v 0.00340942 -0.02993136 0.03346088
v 0.00403565 -0.02993136 0.03376744
v 0.00525946 -0.02993136 0.03424291
v 0.00957758 0.00785184 0.03263715
v 0.04135981 0.00550810 0.03285334
v 0.04135981 0.00221141 0.03090070
v 0.03814270 -0.04453469 0.02899046
v 0.03591201 -0.04475618 0.02837805
v 0.04135981 0.00096484 0.03090278
v 0.04135981 -0.00117801 0.03090695
v 0.04135981 -0.00117801 0.03414490
v 0.02781604 -0.04469952 0.02837805
v 0.02781604 -0.04452439 0.02891539
v 0.02656767 -0.04425138 0.02952085
v 0.02530702 -0.04423593 0.02948193
v 0.02405456 -0.04420502 0.02942006
v 0.02279801 -0.04417411 0.02933734
v 0.01528733 -0.04329843 0.03004360
v 0.01403487 -0.04324176 0.02997061
v 0.01278241 -0.04318510 0.02988093
v 0.01175097 -0.04313359 0.02979335
v 0.01091600 -0.04308723 0.02971688
v 0.01027749 -0.04303572 0.02958481
v 0.00894317 -0.04223216 0.03045651
v 0.00776847 -0.04206732 0.03010685
v 0.00698671 -0.04190764 0.02984340
v 0.00649555 -0.04203641 0.02910377
v 0.00654466 -0.04207762 0.02905720
v 0.00614764 -0.04170674 0.02945204
v 0.00521034 -0.04124830 0.02916077
v 0.00464141 -0.04057866 0.02970715
v 0.00333983 -0.03936815 0.02977110
v 0.00245984 -0.03871911 0.02919205
v 0.00214877 -0.03803917 0.02967587
v 0.00191138 -0.03720469 0.03004985
v 0.00110915 -0.03506184 0.03035849
v 0.00074078 -0.03472702 0.02994697
v 0.00165352 -0.03624659 0.03041966
v 0.00196868 -0.03586541 0.03116624
v 0.00060571 -0.03368650 0.03017150
v 0.00056478 -0.03238843 0.03044608
v 0.00041743 -0.03118823 0.03034667
v 0.00083901 -0.03118823 0.03101331
v 0.00776847 0.00785184 0.03463080
v 0.01152586 0.00140784 0.03547817
v 0.01152995 -0.00117801 0.03547886
v 0.01027340 -0.02093757 0.03542881
v 0.01027749 -0.02094272 0.03542951
v 0.01152995 -0.02094272 0.03547956
v 0.00137110 -0.03118823 0.03164102
v 0.00199733 -0.03118823 0.03234311
v 0.00275044 -0.03118823 0.03294301
v 0.00342579 -0.03118823 0.03345185
v 0.00405202 -0.03118823 0.03375979
v 0.00525946 -0.03118823 0.03423318
v 0.01027749 -0.02993136 0.03542951
v 0.00962670 0.00785184 0.03285334
v 0.04135981 0.00538963 0.03307300
v 0.00904958 0.00785184 0.03411918
v 0.03659145 -0.04454499 0.02902105
v 0.03814270 -0.04430289 0.02961748
v 0.03465546 -0.04477164 0.02837805
v 0.04135981 0.00365886 0.03413030
v 0.04035702 0.00140784 0.03444033
v 0.04035702 -0.00117801 0.03444798
v 0.03782754 -0.03243479 0.03505970
v 0.03814270 -0.03368650 0.03486367
v 0.03814270 -0.03619508 0.03466695
v 0.03814270 -0.03745195 0.03456059
v 0.03814270 -0.03840490 0.03437707
v 0.03814270 -0.03870366 0.03431868
v 0.03814270 -0.03966176 0.03398919
v 0.03814270 -0.03995537 0.03388631
v 0.03814270 -0.04068683 0.03354361
v 0.03814270 -0.04131011 0.03311749
v 0.03814270 -0.04195915 0.03263923
v 0.03814270 -0.04215489 0.03249047
v 0.03814270 -0.04278332 0.03188432
v 0.03814270 -0.04329843 0.03125869
v 0.03814270 -0.04388565 0.03034598
v 0.03814270 -0.04420502 0.02979404
v 0.03283407 -0.04476134 0.02837805
v 0.02907259 -0.04453469 0.02893555
v 0.02781604 -0.04426168 0.02954171
v 0.02656767 -0.04375687 0.03034598
v 0.02553623 -0.04373112 0.03034598
v 0.02405456 -0.04366931 0.03034667
v 0.02279801 -0.04360234 0.03034667
v 0.01779225 -0.04338600 0.03018540
v 0.01653979 -0.04334479 0.03011728
v 0.01653979 -0.04294300 0.03074499
v 0.01528733 -0.04289664 0.03066991
v 0.01403487 -0.04284513 0.03059692
v 0.01278241 -0.04278847 0.03050725
v 0.01141125 -0.04279877 0.03026674
v 0.01027749 -0.04258243 0.03034667
v 0.00930335 -0.04191794 0.03107865
v 0.00846838 -0.04182007 0.03094797
v 0.00776847 -0.04167069 0.03073387
v 0.00649555 -0.04133071 0.03034389
v 0.00588978 -0.04058381 0.03097091
v 0.00547639 -0.04087227 0.03013466
v 0.00514076 -0.04038807 0.03047041
v 0.00451862 -0.03943511 0.03108213
v 0.00406430 -0.03966176 0.03025214
v 0.00368365 -0.03899727 0.03060735
v 0.00330300 -0.03816280 0.03104737
v 0.00307789 -0.03862640 0.03025214
v 0.00238617 -0.03754982 0.03041966
v 0.00219379 -0.03670504 0.03088610
v 0.00179268 -0.03494337 0.03138660
v 0.00099045 -0.03368650 0.03079712
v 0.00234933 -0.03494337 0.03201083
v 0.00341761 -0.03675655 0.03219504
v 0.00090040 -0.03276961 0.03092920
v 0.00085947 -0.03193514 0.03099037
v 0.01533645 0.00140784 0.03547886
v 0.03533899 0.00140784 0.03547886
v 0.03533899 0.00265955 0.03520637
v 0.03659145 0.00428214 0.03469197
v 0.04035702 0.00496209 0.03394261
v 0.01290520 -0.00117801 0.03547956
v 0.01152995 -0.03118823 0.03547956
v 0.00203416 -0.03243994 0.03230904
v 0.00275044 -0.03243994 0.03287210
v 0.00349537 -0.03243994 0.03341640
v 0.00412160 -0.03243994 0.03372017
v 0.00525946 -0.03243994 0.03418105
v 0.01027749 -0.03118823 0.03541283
v 0.00651192 -0.03243994 0.03448343
v 0.01152995 -0.03243994 0.03547191
v 0.04135981 0.00489512 0.03380011
v 0.03533899 -0.04455529 0.02902383
v 0.03659145 -0.04431319 0.02964806
v 0.03408244 -0.04477164 0.02837805
v 0.03408244 -0.04456045 0.02900854
v 0.04135981 0.00391642 0.03412682
v 0.04035702 0.00391642 0.03442087
v 0.04035702 0.00265955 0.03443616
v 0.03659145 0.00015612 0.03543368
v 0.03659145 -0.00110074 0.03543437
v 0.03659145 -0.02093757 0.03543437
v 0.03659145 -0.03118308 0.03543368
v 0.03659145 -0.03243479 0.03543229
v 0.03659145 -0.03368650 0.03540031
v 0.03781117 -0.03368650 0.03502702
v 0.03533899 -0.03368650 0.03547886
v 0.03784800 -0.03870366 0.03432424
v 0.03784800 -0.03995537 0.03389256
v 0.03784800 -0.04068683 0.03354500
v 0.03784800 -0.04131011 0.03311749
v 0.03784800 -0.04216004 0.03249047
v 0.03784800 -0.04278332 0.03188640
v 0.03659145 -0.04278332 0.03188779
v 0.03533899 -0.04278332 0.03188640
v 0.03659145 -0.04329328 0.03126147
v 0.03659145 -0.04389080 0.03034598
v 0.03340709 -0.04476649 0.02837805
v 0.03283407 -0.04456045 0.02899116
v 0.03533899 -0.04431319 0.02965084
v 0.03032914 -0.04427714 0.02958133
v 0.02781604 -0.04377748 0.03034598
v 0.02656767 -0.04322116 0.03117736
v 0.02530702 -0.04320571 0.03115095
v 0.02405456 -0.04317996 0.03110924
v 0.02279801 -0.04314390 0.03105641
v 0.02181568 -0.04311299 0.03100844
v 0.01779225 -0.04298421 0.03081172
v 0.01528733 -0.04226821 0.03154579
v 0.01403487 -0.04221670 0.03147975
v 0.01278241 -0.04216519 0.03140537
v 0.01152995 -0.04210338 0.03132612
v 0.01027749 -0.04201581 0.03120725
v 0.01027749 -0.04147495 0.03183427
v 0.00894317 -0.04142344 0.03153744
v 0.00831284 -0.04061471 0.03225552
v 0.00784215 -0.04097529 0.03163059
v 0.00672885 -0.04080015 0.03123228
v 0.00747787 -0.04041897 0.03206505
v 0.00630727 -0.04008415 0.03172860
v 0.00588978 -0.03932694 0.03222354
v 0.00525946 -0.03971843 0.03136783
v 0.00525946 -0.03904363 0.03199276
v 0.00459639 -0.03811644 0.03225204
v 0.00413388 -0.03855943 0.03148253
v 0.00369184 -0.03744680 0.03194549
v 0.00305742 -0.03744680 0.03131987
v 0.00218970 -0.03408829 0.03216515
v 0.00169444 -0.03367620 0.03168968
v 0.00297556 -0.03494337 0.03252245
v 0.00319249 -0.03592723 0.03236048
v 0.00488290 -0.03619508 0.03334410
v 0.00463323 -0.03556150 0.03347757
v 0.00431806 -0.03744680 0.03242583
v 0.00208328 -0.03324866 0.03226386
v 0.00132198 -0.03238843 0.03148531
v 0.03659145 0.00140784 0.03541491
v 0.03533899 -0.00117801 0.03547956
v 0.03651368 -0.00117801 0.03543785
v 0.03659145 0.00265955 0.03512851
v 0.03910047 0.00391642 0.03460230
v 0.01278241 -0.03243994 0.03547956
v 0.00266449 -0.03367620 0.03262116
v 0.00365090 -0.03368650 0.03331838
v 0.00427713 -0.03368650 0.03364927
v 0.00525946 -0.03368650 0.03405592
v 0.00651192 -0.03368650 0.03440210
v 0.01027749 -0.03243994 0.03529326
v 0.01653979 -0.03368650 0.03534679
v 0.01779225 -0.03368650 0.03538572
v 0.01904472 -0.03368650 0.03540588
v 0.02405456 -0.03368650 0.03547261
v 0.00776847 -0.03619508 0.03426724
v 0.00902093 -0.03619508 0.03444242
v 0.01027749 -0.03744680 0.03424430
v 0.04135981 0.00467878 0.03389743
v 0.03533899 -0.02093757 0.03547956
v 0.02553623 -0.03243994 0.03547956
v 0.02656767 -0.03368650 0.03547886
v 0.02530702 -0.03870366 0.03422206
v 0.02553623 -0.03368650 0.03547678
v 0.02530702 -0.03992962 0.03378690
v 0.02714478 -0.04058381 0.03347965
v 0.02666590 -0.04108346 0.03313070
v 0.02656767 -0.04209823 0.03242027
v 0.03659145 -0.04216004 0.03248074
v 0.03408244 -0.04277817 0.03188084
v 0.03533899 -0.04328298 0.03125939
v 0.03533899 -0.04388050 0.03034598
v 0.03408244 -0.04430289 0.02963555
v 0.02907259 -0.04324176 0.03120656
v 0.02781604 -0.04323147 0.03119196
v 0.02656767 -0.04272151 0.03180437
v 0.02553623 -0.04270605 0.03178352
v 0.02530702 -0.04270090 0.03177796
v 0.02405456 -0.04267515 0.03173695
v 0.01694500 -0.04185097 0.03223884
v 0.01611003 -0.04182007 0.03220894
v 0.01653570 -0.04222700 0.03171679
v 0.01528733 -0.04177886 0.03216932
v 0.01403487 -0.04171189 0.03210398
v 0.01278241 -0.04164493 0.03203099
v 0.01152995 -0.04157282 0.03195174
v 0.01027749 -0.04084651 0.03244182
v 0.00902093 -0.04071258 0.03233268
v 0.00961033 -0.03934240 0.03348799
v 0.00877126 -0.03915181 0.03338303
v 0.00784215 -0.03998113 0.03254748
v 0.00672885 -0.03958450 0.03241192
v 0.00649555 -0.03877578 0.03283804
v 0.00649555 -0.03870881 0.03287906
v 0.00624588 -0.03775071 0.03331838
v 0.00525946 -0.03842035 0.03243695
v 0.00533313 -0.03737983 0.03304033
v 0.00403156 -0.03506184 0.03321481
v 0.00579974 -0.03691623 0.03351997
v 0.00513667 -0.03506184 0.03377022
v 0.00446951 -0.03472702 0.03356654
v 0.00550913 -0.03619508 0.03362633
v 0.00651192 -0.03494337 0.03424083
v 0.00776847 -0.03494337 0.03447578
v 0.01779225 -0.03870366 0.03410528
v 0.01904472 -0.03870366 0.03413239
v 0.02029308 -0.03870366 0.03415672
v 0.02154555 -0.03870366 0.03417826
v 0.02279801 -0.03870366 0.03419495
v 0.02405456 -0.03870366 0.03420955
v 0.00651192 -0.03619508 0.03396277
v 0.00776847 -0.03744680 0.03390299
v 0.00902093 -0.03744680 0.03413795
v 0.01027749 -0.03870366 0.03382722
v 0.01152995 -0.03870366 0.03390647
v 0.01403487 -0.03870366 0.03399336
v 0.01528733 -0.03870366 0.03403507
v 0.01653979 -0.03870366 0.03407260
v 0.02405456 -0.03990386 0.03378134
v 0.02630981 -0.04057351 0.03347340
v 0.02530702 -0.04120709 0.03302086
v 0.02530702 -0.04207762 0.03240845
v 0.02781604 -0.04273181 0.03181897
v 0.03283407 -0.04276787 0.03187041
v 0.03158161 -0.04325722 0.03123228
v 0.03408244 -0.04327267 0.03125452
v 0.02405456 -0.04205186 0.03238968
v 0.02279801 -0.04201581 0.03236674
v 0.01779225 -0.04187673 0.03225899
v 0.01779225 -0.04120709 0.03271987
v 0.01528733 -0.04025929 0.03325791
v 0.01403487 -0.04021293 0.03322523
v 0.01278241 -0.04016657 0.03318770
v 0.01152995 -0.04011506 0.03314043
v 0.01278241 -0.04101650 0.03256068
v 0.01152995 -0.04094438 0.03251341
v 0.01027749 -0.04002749 0.03306952
v 0.01027749 -0.03940421 0.03352692
v 0.00912326 -0.03872426 0.03366247
v 0.00776847 -0.03829157 0.03358114
v 0.00776847 -0.03891485 0.03323358
v 0.00708494 -0.03811644 0.03350190
v 0.00660196 -0.03737983 0.03361520
v 0.01779225 -0.03971327 0.03371600
v 0.02029308 -0.03979054 0.03375076
v 0.02154555 -0.03983175 0.03376396
v 0.02279801 -0.03986781 0.03377439
v 0.01152995 -0.03948662 0.03357767
v 0.01278241 -0.03953813 0.03360964
v 0.01403487 -0.03958965 0.03364092
v 0.01528733 -0.03963086 0.03366873
v 0.01653979 -0.03967206 0.03369375
v 0.02553623 -0.04056320 0.03346505
v 0.02530702 -0.04055805 0.03346297
v 0.02405456 -0.04120709 0.03298402
v 0.02279801 -0.04120709 0.03293675
v 0.02029308 -0.04041897 0.03336704
v 0.01653979 -0.04030050 0.03328502
v 0.02279801 -0.04049109 0.03342057
v 0.02405456 -0.04052715 0.03344559
v 0.02154555 -0.04045503 0.03339485
f 1 2 3
f 1 3 4
f 1 4 5
f 1 5 6
f 1 6 7
f 1 7 8
f 1 8 9
f 1 9 2
f 2 9 10
f 2 10 11
f 2 11 3
f 3 11 60
f 3 60 110
f 3 110 164
f 3 164 237
f 3 237 260
f 3 260 184
f 3 184 114
f 3 114 61
f 3 61 12
f 3 12 4
f 4 12 13
f 4 13 14
f 4 14 15
f 4 15 16
f 4 16 17
f 4 17 18
f 4 18 19
f 4 19 20
f 4 20 21
f 4 21 22
f 4 22 23
f 4 23 24
f 4 24 25
f 4 25 26
f 4 26 27
f 4 27 28
f 4 28 29
f 4 29 30
f 4 30 31
f 4 31 32
f 4 32 33
f 4 33 34
f 4 34 35
f 4 35 36
f 4 36 37
f 4 37 38
f 4 38 39
f 4 39 5
f 5 39 40
f 5 40 6
f 6 41 7
f 6 40 41
f 7 41 42
f 7 42 8
f 8 43 44
f 8 44 94
f 8 94 146
f 8 146 161
f 8 161 159
f 8 159 106
f 8 106 56
f 8 56 9
f 8 42 45
f 8 45 46
f 8 46 47
f 8 47 48
f 8 48 49
f 8 49 50
f 8 50 51
f 8 51 52
f 8 52 53
f 8 53 54
f 8 54 55
f 8 55 43
f 9 56 57
f 9 57 58
f 9 58 10
f 10 58 57
f 10 57 107
f 10 107 160
f 10 160 234
f 10 234 318
f 10 318 239
f 10 239 165
f 10 165 113
f 10 113 112
f 10 112 111
f 10 111 108
f 10 108 59
f 10 59 11
f 11 59 108
f 11 108 60
f 12 61 62
f 12 62 63
f 12 63 13
f 13 63 14
f 14 63 64
f 14 64 15
f 15 64 16
f 16 64 65
f 16 65 66
f 16 66 17
f 17 66 67
f 17 67 18
f 18 67 68
f 18 68 19
f 19 68 69
f 19 69 70
f 19 70 71
f 19 71 20
f 20 71 72
f 20 72 21
f 21 72 73
f 21 73 22
f 22 73 23
f 23 73 74
f 23 74 24
f 24 74 25
f 25 74 75
f 25 75 76
f 25 76 77
f 25 77 78
f 25 78 26
f 26 78 27
f 27 78 79
f 27 79 28
f 28 79 80
f 28 80 81
f 28 81 29
f 29 81 82
f 29 82 30
f 30 82 31
f 31 82 32
f 32 83 84
f 32 84 85
f 32 85 33
f 32 82 86
f 32 86 83
f 33 85 34
f 34 85 87
f 34 87 88
f 34 88 35
f 35 88 36
f 36 88 37
f 37 88 89
f 37 89 90
f 37 90 38
f 38 90 39
f 39 90 40
f 40 91 41
f 40 90 91
f 41 92 42
f 41 91 92
f 42 92 93
f 42 93 45
f 43 55 44
f 44 55 95
f 44 95 96
f 44 96 94
f 45 93 97
f 45 97 98
f 45 98 46
f 46 98 47
f 47 98 97
f 47 97 48
f 48 97 99
f 48 99 49
f 49 99 100
f 49 100 50
f 50 100 101
f 50 101 102
f 50 102 51
f 51 102 103
f 51 103 52
f 52 103 104
f 52 104 53
f 53 104 54
f 54 104 105
f 54 105 55
f 55 105 149
f 55 149 95
f 56 106 107
f 56 107 57
f 60 109 110
f 60 108 111
f 60 111 112
f 60 112 113
f 60 113 109
f 61 114 62
f 62 114 115
f 62 115 186
f 62 186 116
f 62 116 117
f 62 117 63
f 63 117 64
f 64 117 118
f 64 118 119
f 64 119 65
f 65 119 66
f 66 119 67
f 67 119 120
f 67 120 121
f 67 121 68
f 68 121 122
f 68 122 69
f 69 122 123
f 69 123 124
f 69 124 70
f 70 124 71
f 71 124 72
f 72 124 73
f 73 124 125
f 73 125 74
f 74 125 75
f 75 125 126
f 75 126 127
f 75 127 76
f 76 127 128
f 76 128 129
f 76 129 130
f 76 130 77
f 77 130 129
f 77 129 78
f 78 131 132
f 78 132 79
f 78 129 131
f 79 133 80
f 79 132 133
f 80 134 81
f 80 133 134
f 81 134 135
f 81 135 82
f 82 136 86
f 82 135 136
f 83 86 136
f 83 136 137
f 83 137 84
f 84 138 139
f 84 139 87
f 84 87 85
f 84 137 140
f 84 140 141
f 84 141 138
f 87 139 88
f 88 139 142
f 88 142 89
f 89 143 91
f 89 91 90
f 89 142 143
f 91 144 92
f 91 143 144
f 92 97 93
f 92 144 145
f 92 145 97
f 94 96 147
f 94 147 146
f 95 148 147
f 95 147 96
f 95 149 158
f 95 158 150
f 95 150 151
f 95 151 148
f 97 100 99
f 97 145 100
f 100 145 152
f 100 152 153
f 100 153 101
f 101 153 154
f 101 154 102
f 102 154 103
f 103 154 155
f 103 155 156
f 103 156 104
f 104 156 157
f 104 157 105
f 105 158 149
f 105 157 158
f 106 159 107
f 107 159 161
f 107 161 146
f 107 146 160
f 109 162 110
f 109 113 163
f 109 163 236
f 109 236 162
f 110 162 164
f 113 165 166
f 113 166 167
f 113 167 168
f 113 168 169
f 113 169 170
f 113 170 171
f 113 171 172
f 113 172 173
f 113 173 174
f 113 174 175
f 113 175 176
f 113 176 177
f 113 177 178
f 113 178 179
f 113 179 180
f 113 180 181
f 113 181 182
f 113 182 183
f 113 183 163
f 114 184 185
f 114 185 115
f 115 185 186
f 116 186 187
f 116 187 188
f 116 188 117
f 117 188 189
f 117 189 118
f 118 189 190
f 118 190 191
f 118 191 119
f 119 191 192
f 119 192 120
f 120 192 193
f 120 193 194
f 120 194 195
f 120 195 121
f 121 195 196
f 121 196 122
f 122 196 197
f 122 197 123
f 123 197 124
f 124 197 198
f 124 198 125
f 125 198 126
f 126 198 199
f 126 199 200
f 126 200 127
f 127 200 201
f 127 201 128
f 128 201 202
f 128 202 131
f 128 131 129
f 131 202 203
f 131 203 204
f 131 204 133
f 131 133 132
f 133 204 203
f 133 203 205
f 133 205 206
f 133 206 207
f 133 207 134
f 134 206 208
f 134 208 209
f 134 209 210
f 134 210 136
f 134 136 135
f 134 207 206
f 136 211 212
f 136 212 137
f 136 210 209
f 136 209 211
f 137 212 140
f 138 141 213
f 138 213 214
f 138 214 139
f 139 214 142
f 140 212 141
f 141 215 213
f 141 212 216
f 141 216 215
f 142 214 217
f 142 217 143
f 143 218 144
f 143 217 218
f 144 218 145
f 145 218 152
f 146 147 219
f 146 219 220
f 146 220 221
f 146 221 222
f 146 222 223
f 146 223 160
f 147 148 224
f 147 224 219
f 148 151 224
f 150 158 225
f 150 225 151
f 151 225 304
f 151 304 320
f 151 320 319
f 151 319 300
f 151 300 224
f 152 218 226
f 152 226 153
f 153 226 154
f 154 226 227
f 154 227 155
f 155 227 228
f 155 228 156
f 156 228 229
f 156 229 230
f 156 230 157
f 157 231 158
f 157 230 232
f 157 232 231
f 158 231 233
f 158 233 225
f 160 223 234
f 162 235 164
f 162 236 235
f 163 183 236
f 164 235 238
f 164 238 237
f 165 239 240
f 165 240 241
f 165 241 166
f 166 241 242
f 166 242 167
f 167 242 243
f 167 243 244
f 167 244 245
f 167 245 246
f 167 246 168
f 168 246 247
f 168 247 248
f 168 248 169
f 169 248 170
f 170 248 171
f 171 248 247
f 171 247 172
f 172 247 173
f 173 247 249
f 173 249 250
f 173 250 174
f 174 251 175
f 174 250 251
f 175 251 176
f 176 252 177
f 176 251 252
f 177 252 253
f 177 253 178
f 178 253 254
f 178 254 179
f 179 254 180
f 180 254 255
f 180 255 181
f 181 255 256
f 181 256 257
f 181 257 258
f 181 258 259
f 181 259 182
f 182 259 236
f 182 236 183
f 184 260 261
f 184 261 185
f 185 261 186
f 186 262 263
f 186 263 264
f 186 264 187
f 186 261 262
f 187 264 265
f 187 265 188
f 188 265 266
f 188 266 189
f 189 266 267
f 189 267 190
f 190 267 268
f 190 268 269
f 190 269 270
f 190 270 191
f 191 270 193
f 191 193 192
f 193 270 271
f 193 271 272
f 193 272 194
f 194 272 195
f 195 272 273
f 195 273 274
f 195 274 196
f 196 274 197
f 197 274 275
f 197 275 198
f 198 275 199
f 199 275 276
f 199 276 277
f 199 277 200
f 200 277 278
f 200 278 279
f 200 279 280
f 200 280 201
f 201 280 203
f 201 203 202
f 203 280 281
f 203 281 282
f 203 282 283
f 203 283 284
f 203 284 206
f 203 206 205
f 206 283 285
f 206 285 286
f 206 286 287
f 206 287 209
f 206 209 208
f 206 284 283
f 209 287 286
f 209 286 288
f 209 288 216
f 209 216 289
f 209 289 212
f 209 212 211
f 212 289 216
f 213 215 290
f 213 290 291
f 213 291 214
f 214 291 217
f 215 292 290
f 215 216 293
f 215 293 292
f 216 294 295
f 216 295 293
f 216 288 286
f 216 286 296
f 216 296 294
f 217 291 297
f 217 297 298
f 217 298 218
f 218 298 226
f 219 224 300
f 219 300 220
f 220 299 221
f 220 300 301
f 220 301 242
f 220 242 299
f 221 299 302
f 221 302 222
f 222 302 303
f 222 303 223
f 223 303 240
f 223 240 234
f 225 233 304
f 226 297 227
f 226 298 297
f 227 297 228
f 228 297 305
f 228 305 306
f 228 306 307
f 228 307 229
f 229 307 308
f 229 308 230
f 230 308 309
f 230 309 232
f 231 232 309
f 231 309 310
f 231 310 233
f 233 311 312
f 233 312 313
f 233 313 314
f 233 314 304
f 233 310 315
f 233 315 316
f 233 316 317
f 233 317 311
f 234 240 318
f 235 236 262
f 235 262 238
f 236 259 262
f 237 238 261
f 237 261 260
f 238 262 261
f 239 318 240
f 240 303 299
f 240 299 242
f 240 242 241
f 242 301 243
f 243 301 244
f 244 319 249
f 244 249 245
f 244 301 319
f 245 249 246
f 246 249 247
f 249 319 320
f 249 320 304
f 249 304 321
f 249 321 250
f 250 322 251
f 250 321 323
f 250 323 314
f 250 314 322
f 251 324 252
f 251 322 324
f 252 325 253
f 252 324 325
f 253 325 326
f 253 326 327
f 253 327 328
f 253 328 254
f 254 328 257
f 254 257 256
f 254 256 255
f 257 328 329
f 257 329 258
f 258 329 330
f 258 330 331
f 258 331 259
f 259 331 262
f 262 331 264
f 262 264 332
f 262 332 263
f 263 332 264
f 264 331 333
f 264 333 334
f 264 334 265
f 265 334 382
f 265 382 335
f 265 335 266
f 266 335 336
f 266 336 337
f 266 337 338
f 266 338 267
f 267 338 339
f 267 339 268
f 268 339 340
f 268 340 341
f 268 341 269
f 269 341 270
f 270 341 271
f 271 341 340
f 271 340 272
f 272 340 273
f 273 340 342
f 273 342 343
f 273 343 344
f 273 344 274
f 274 344 345
f 274 345 275
f 275 345 276
f 276 345 346
f 276 346 347
f 276 347 278
f 276 278 277
f 278 347 348
f 278 348 349
f 278 349 350
f 278 350 351
f 278 351 281
f 278 281 279
f 279 281 280
f 281 351 283
f 281 283 282
f 283 351 352
f 283 352 353
f 283 353 354
f 283 354 355
f 283 355 286
f 283 286 285
f 286 356 296
f 286 355 356
f 290 305 297
f 290 297 291
f 290 292 305
f 292 293 295
f 292 295 357
f 292 357 306
f 292 306 305
f 294 296 356
f 294 356 358
f 294 358 295
f 295 359 360
f 295 360 306
f 295 306 357
f 295 358 361
f 295 361 359
f 299 303 302
f 300 319 301
f 304 314 323
f 304 323 321
f 306 360 307
f 307 360 308
f 308 360 359
f 308 359 362
f 308 362 309
f 309 362 310
f 310 362 363
f 310 363 315
f 311 317 312
f 312 317 364
f 312 364 365
f 312 365 366
f 312 366 367
f 312 367 313
f 313 367 368
f 313 368 314
f 314 368 369
f 314 369 322
f 315 363 362
f 315 362 370
f 315 370 371
f 315 371 372
f 315 372 316
f 316 372 317
f 317 372 373
f 317 373 374
f 317 374 375
f 317 375 376
f 317 376 377
f 317 377 364
f 322 369 324
f 324 378 379
f 324 379 325
f 324 369 368
f 324 368 378
f 325 379 326
f 326 380 327
f 326 379 380
f 327 380 381
f 327 381 335
f 327 335 382
f 327 382 383
f 327 383 329
f 327 329 328
f 329 383 333
f 329 333 384
f 329 384 385
f 329 385 330
f 330 385 331
f 331 385 384
f 331 384 333
f 333 383 382
f 333 382 334
f 335 381 336
f 336 381 386
f 336 386 337
f 337 386 387
f 337 387 388
f 337 388 338
f 338 388 339
f 339 388 389
f 339 389 390
f 339 390 391
f 339 391 392
f 339 392 340
f 340 392 393
f 340 393 394
f 340 394 395
f 340 395 342
f 342 395 343
f 343 395 344
f 344 395 345
f 345 395 346
f 346 395 396
f 346 396 348
f 346 348 347
f 348 396 397
f 348 397 373
f 348 373 398
f 348 398 399
f 348 399 349
f 349 400 350
f 349 399 401
f 349 401 400
f 350 400 351
f 351 400 401
f 351 401 352
f 352 401 353
f 353 401 354
f 354 356 355
f 354 401 358
f 354 358 356
f 358 370 361
f 358 401 402
f 358 402 370
f 359 361 370
f 359 370 362
f 364 377 403
f 364 403 404
f 364 404 405
f 364 405 365
f 365 405 366
f 366 405 406
f 366 406 367
f 367 406 378
f 367 378 368
f 370 402 371
f 371 402 401
f 371 401 399
f 371 399 372
f 372 399 398
f 372 398 373
f 373 397 407
f 373 407 374
f 374 407 408
f 374 408 409
f 374 409 410
f 374 410 375
f 375 410 376
f 376 410 411
f 376 411 403
f 376 403 377
f 378 406 412
f 378 412 379
f 379 412 380
f 380 412 413
f 380 413 414
f 380 414 381
f 381 414 386
f 386 414 415
f 386 415 387
f 387 415 388
f 388 415 389
f 389 415 416
f 389 416 417
f 389 417 390
f 390 417 410
f 390 410 409
f 390 409 391
f 391 409 408
f 391 408 407
f 391 407 392
f 392 407 393
f 393 407 397
f 393 397 396
f 393 396 395
f 393 395 394
f 403 411 418
f 403 418 419
f 403 419 404
f 404 419 405
f 405 419 413
f 405 413 406
f 406 413 412
f 410 417 416
f 410 416 411
f 411 416 420
f 411 420 418
f 413 419 414
f 414 419 415
f 415 419 418
f 415 418 420
f 415 420 416

