# https://github.com/mikedh/trimesh
v 0.08216440 0.00629755 -0.02449363
v 0.08972390 0.00111541 -0.02221684
v 0.09449481 0.00111541 -0.02296504
v 0.08216440 0.00629755 -0.02744793
v 0.04590352 0.00629755 -0.02581015
v 0.09149757 -0.03137738 -0.02153934
v 0.09804217 -0.03137738 -0.02153934
v 0.00822938 0.00112015 -0.02579056
v 0.03772751 -0.03926923 -0.02154073
v 0.04679510 -0.03447148 -0.02154073
v 0.04718399 -0.03440505 -0.02154073
v 0.04788587 -0.03430539 -0.02154073
v 0.09533897 -0.00268578 -0.02296504
v 0.09423872 0.00111541 -0.02330869
v 0.08169964 0.00629755 -0.02754662
v 0.09401108 0.00111541 -0.02345357
v 0.09311950 0.00111541 -0.02397080
v 0.09250297 0.00111541 -0.02424867
v 0.09172521 0.00111541 -0.02455522
v 0.09043526 0.00111541 -0.02503746
v 0.08897458 0.00111541 -0.02557079
v 0.08796918 0.00111541 -0.02590744
v 0.08671717 0.00111541 -0.02629099
v 0.08507628 0.00111541 -0.02675572
v 0.08415624 0.00111541 -0.02698949
v 0.08291372 0.00111541 -0.02729045
v 0.04590352 0.00629755 -0.02868956
v 0.07510762 -0.03431013 -0.02153934
v 0.09804217 -0.03150077 -0.02153934
v 0.09535794 -0.00310813 -0.02296504
v 0.00822938 0.00112015 -0.02867066
v 0.00125796 -0.01953249 -0.02564288
v 0.03772751 -0.04218300 -0.02154073
v 0.00117259 -0.02822159 -0.02553299
v 0.00116311 -0.03401591 -0.02553299
v 0.09514927 -0.00268578 -0.02306863
v 0.08169964 0.00484066 -0.02754662
v 0.08044763 -0.03137738 -0.02777828
v 0.07965090 -0.02648947 -0.02792037
v 0.08044763 0.00629755 -0.02775799
v 0.09422924 -0.00268578 -0.02349207
v 0.09311950 -0.00268578 -0.02397990
v 0.09307208 -0.03137738 -0.02400300
v 0.09250297 -0.01020273 -0.02424867
v 0.09172521 -0.02648947 -0.02456012
v 0.09172521 -0.00143770 -0.02455662
v 0.09047320 -0.00143770 -0.02502766
v 0.08898407 -0.01772918 -0.02557429
v 0.09039733 -0.03137738 -0.02506755
v 0.08784588 -0.03137738 -0.02594803
v 0.08671717 -0.01772918 -0.02629449
v 0.08671717 -0.00519618 -0.02629309
v 0.08616704 -0.01953249 -0.02645686
v 0.08571177 -0.01953249 -0.02658775
v 0.08570228 -0.00393861 -0.02658215
v 0.08509525 -0.03401116 -0.02675782
v 0.08421315 -0.03401116 -0.02698389
v 0.08295166 -0.03401116 -0.02728065
v 0.08226874 -0.01953249 -0.02742623
v 0.00899766 -0.01953249 -0.02868956
v 0.00899766 0.00112015 -0.02868886
v 0.00895972 0.00112015 -0.02868816
v 0.06916057 0.00629755 -0.02868956
v 0.07510762 -0.04217826 -0.02153934
v 0.09803269 -0.03401116 -0.02153934
v 0.09512082 -0.03150077 -0.02305953
v 0.09532948 -0.01953249 -0.02296504
v 0.09535794 -0.00644900 -0.02296504
v 0.00774565 -0.02022534 -0.02866996
v 0.00774565 -0.01953249 -0.02866857
v 0.00649364 -0.01953249 -0.02855308
v 0.00580124 -0.01953249 -0.02838930
v 0.00524163 -0.01953249 -0.02825562
v 0.00450180 -0.01953249 -0.02799806
v 0.00387580 -0.01953249 -0.02768310
v 0.00282297 -0.01953249 -0.02705738
v 0.00248151 -0.01953249 -0.02681102
v 0.00220645 -0.01953249 -0.02660874
v 0.00185551 -0.01953249 -0.02626299
v 0.00158045 -0.01953249 -0.02598233
v 0.00158045 -0.03401591 -0.02598093
v 0.06959687 -0.04218300 -0.02154073
v 0.00119156 -0.03446199 -0.02553299
v 0.00125796 -0.03526873 -0.02553299
v 0.00138126 -0.03590464 -0.02553299
v 0.00154251 -0.03652156 -0.02553299
v 0.00156147 -0.03658325 -0.02553299
v 0.03772751 -0.04217351 -0.02180110
v 0.00161839 -0.03526873 -0.02594313
v 0.09514927 -0.00644900 -0.02306723
v 0.08169964 -0.01953249 -0.02754312
v 0.08044763 -0.03401116 -0.02777828
v 0.07960347 -0.03137738 -0.02792946
v 0.07794361 0.00629755 -0.02814854
v 0.09423872 -0.03150077 -0.02347667
v 0.09311950 -0.03401116 -0.02397640
v 0.09250297 -0.03401116 -0.02424657
v 0.09423872 -0.03401116 -0.02347527
v 0.09172521 -0.03401116 -0.02456012
v 0.09160191 -0.03137738 -0.02460842
v 0.08898407 -0.03401116 -0.02557429
v 0.09047320 -0.03401116 -0.02503746
v 0.08961008 -0.03401116 -0.02534892
v 0.08796918 -0.03401116 -0.02590744
v 0.08671717 -0.03401116 -0.02629239
v 0.08671717 -0.03275834 -0.02629309
v 0.08671717 -0.01953249 -0.02629449
v 0.08572125 -0.03401116 -0.02658565
v 0.08572125 -0.03137738 -0.02658565
v 0.08506679 -0.03526873 -0.02675013
v 0.08421315 -0.03526873 -0.02696500
v 0.08295166 -0.03526873 -0.02725966
v 0.08169964 -0.03526873 -0.02752212
v 0.08169964 -0.03401116 -0.02753962
v 0.00899766 -0.02822159 -0.02868956
v 0.00774565 -0.03025269 -0.02867346
v 0.07042206 0.00629755 -0.02868466
v 0.06916057 -0.03137738 -0.02868956
v 0.07668212 -0.04217826 -0.02153934
v 0.09800423 -0.03526873 -0.02153934
v 0.09510185 -0.03401116 -0.02305743
v 0.09513030 -0.01953249 -0.02306653
v 0.00649364 -0.03025269 -0.02856008
v 0.00649364 -0.02148291 -0.02855518
v 0.00524163 -0.03401591 -0.02826262
v 0.00448283 -0.03401591 -0.02800295
v 0.00385683 -0.03401591 -0.02769640
v 0.00283246 -0.03401591 -0.02706998
v 0.00220645 -0.03401591 -0.02660804
v 0.06916057 -0.04217351 -0.02180110
v 0.07040309 -0.04217351 -0.02179900
v 0.07417809 -0.04217351 -0.02178010
v 0.07510762 -0.04217351 -0.02176890
v 0.07543959 -0.04217351 -0.02176470
v 0.07668212 -0.04217351 -0.02174511
v 0.07510762 -0.04217826 -0.02160233
v 0.00177014 -0.03652156 -0.02581085
v 0.00177963 -0.03658325 -0.02579965
v 0.03772751 -0.04211657 -0.02242681
v 0.00224439 -0.03526873 -0.02656955
v 0.00237718 -0.03652156 -0.02643797
v 0.08044763 -0.03526873 -0.02775939
v 0.07961296 -0.03526873 -0.02791057
v 0.07965090 -0.03401116 -0.02791827
v 0.07904386 -0.03401116 -0.02800995
v 0.07794361 -0.03401116 -0.02816183
v 0.07669160 0.00629755 -0.02831651
v 0.09311002 -0.03526873 -0.02396730
v 0.09248401 -0.03526873 -0.02423887
v 0.09423872 -0.03526873 -0.02345567
v 0.09172521 -0.03526873 -0.02454123
v 0.08895561 -0.03526873 -0.02556519
v 0.08796918 -0.03526873 -0.02589064
v 0.08959110 -0.03526873 -0.02534052
v 0.09047320 -0.03526873 -0.02501856
v 0.08671717 -0.03526873 -0.02627489
v 0.08568331 -0.03526873 -0.02657585
v 0.08497194 -0.03610395 -0.02672493
v 0.08295166 -0.03652156 -0.02713717
v 0.08169964 -0.03652156 -0.02740314
v 0.08044763 -0.03652156 -0.02764110
v 0.00900715 -0.03025269 -0.02868956
v 0.00774565 -0.03652156 -0.02845649
v 0.00649364 -0.03151026 -0.02855378
v 0.01151117 -0.03526873 -0.02868046
v 0.07042206 0.00112015 -0.02868466
v 0.07167407 0.00629755 -0.02866857
v 0.07163613 0.00112015 -0.02866926
v 0.07040309 -0.03150551 -0.02868466
v 0.06916057 -0.03401116 -0.02868676
v 0.03772751 -0.03401591 -0.02868956
v 0.07794361 -0.04217351 -0.02153934
v 0.09779557 -0.03652156 -0.02153934
v 0.09745411 -0.03652156 -0.02171851
v 0.09675223 -0.03652156 -0.02208246
v 0.09507339 -0.03526873 -0.02304623
v 0.00524163 -0.03526873 -0.02822202
v 0.00453026 -0.03526873 -0.02798266
v 0.00389477 -0.03526873 -0.02766560
v 0.00287988 -0.03526873 -0.02703849
v 0.07040309 -0.04211657 -0.02242681
v 0.07543959 -0.04210707 -0.02239112
v 0.07861704 -0.04215928 -0.02168072
v 0.00242461 -0.03658325 -0.02646246
v 0.03772751 -0.04210233 -0.02252480
v 0.00300318 -0.03652156 -0.02694960
v 0.07879725 -0.03610395 -0.02797636
v 0.07897747 -0.03526873 -0.02800295
v 0.07794361 -0.03526873 -0.02814644
v 0.07668212 -0.03401116 -0.02832281
v 0.07542062 -0.02899511 -0.02844879
v 0.07542062 -0.02022534 -0.02844669
v 0.07543959 0.00629755 -0.02843550
v 0.09242709 -0.03605650 -0.02421367
v 0.09423872 -0.03652156 -0.02332969
v 0.09496906 -0.03652156 -0.02298464
v 0.08879437 -0.03652156 -0.02550360
v 0.08796918 -0.03652156 -0.02576816
v 0.09047320 -0.03652156 -0.02489538
v 0.08671717 -0.03652156 -0.02615241
v 0.08468739 -0.03693917 -0.02665214
v 0.08540825 -0.03652156 -0.02652616
v 0.08385272 -0.03732830 -0.02675433
v 0.08169964 -0.03776964 -0.02706578
v 0.08044763 -0.03776964 -0.02730375
v 0.07833249 -0.03694392 -0.02790847
v 0.07920511 -0.03652631 -0.02784968
v 0.01151117 -0.03401591 -0.02868956
v 0.00774565 -0.03658325 -0.02844249
v 0.00655055 -0.03658325 -0.02836340
v 0.00649364 -0.03652156 -0.02837321
v 0.01025915 -0.03652156 -0.02854118
v 0.00780256 -0.03658325 -0.02844529
v 0.01151117 -0.03652156 -0.02854888
v 0.06916057 -0.03526873 -0.02867136
v 0.06916057 -0.03652156 -0.02855028
v 0.07272690 0.00629755 -0.02863357
v 0.07292608 0.00111541 -0.02862727
v 0.07167407 0.00112015 -0.02866857
v 0.07165510 -0.02273099 -0.02866857
v 0.07165510 -0.03024794 -0.02866437
v 0.07165510 -0.03137738 -0.02866296
v 0.07040309 -0.03401116 -0.02868046
v 0.07871189 -0.04215928 -0.02153934
v 0.09751102 -0.03728559 -0.02153934
v 0.09737823 -0.03713848 -0.02167652
v 0.00525112 -0.03643139 -0.02807224
v 0.00458717 -0.03595684 -0.02795606
v 0.00410344 -0.03643139 -0.02760541
v 0.06916057 -0.04193623 -0.02355716
v 0.07417809 -0.04189827 -0.02355716
v 0.07668212 -0.04209284 -0.02237152
v 0.07040309 -0.04193149 -0.02355716
v 0.07794361 -0.04206911 -0.02233933
v 0.08044763 -0.04198844 -0.02230293
v 0.08252483 -0.04204064 -0.02153934
v 0.08132025 -0.04208335 -0.02153934
v 0.00301267 -0.03658325 -0.02694120
v 0.03772751 -0.04193623 -0.02355716
v 0.07791516 -0.03652631 -0.02803165
v 0.07668212 -0.03652156 -0.02818633
v 0.07668212 -0.03526873 -0.02830531
v 0.07543959 -0.03526873 -0.02842920
v 0.07543959 -0.03401116 -0.02844459
v 0.07542062 -0.03024794 -0.02844879
v 0.07417809 -0.02397907 -0.02854818
v 0.07417809 0.00629755 -0.02854328
v 0.09224688 -0.03688697 -0.02413738
v 0.09177264 -0.03649309 -0.02439565
v 0.09290134 -0.03649309 -0.02393091
v 0.09487421 -0.03714797 -0.02293074
v 0.08862364 -0.03717644 -0.02544620
v 0.08546516 -0.03776964 -0.02616851
v 0.08423212 -0.03775066 -0.02649326
v 0.08319826 -0.03815878 -0.02659545
v 0.08285680 -0.03775066 -0.02683061
v 0.08235410 -0.03841029 -0.02669623
v 0.07919562 -0.03776964 -0.02751652
v 0.07748833 -0.03720966 -0.02796586
v 0.03772751 -0.03993836 -0.02694400
v 0.03772751 -0.04056477 -0.02627349
v 0.00649364 -0.03658325 -0.02835851
v 0.00531751 -0.03658325 -0.02806105
v 0.01025915 -0.03658325 -0.02852578
v 0.01151117 -0.03658325 -0.02853348
v 0.07040309 -0.03526873 -0.02866296
v 0.07040309 -0.03652156 -0.02854398
v 0.06916057 -0.03776964 -0.02822553
v 0.07292608 0.00629755 -0.02862587
v 0.07292608 0.00107270 -0.02862727
v 0.07291660 -0.02273099 -0.02862307
v 0.07292608 -0.03401116 -0.02861397
v 0.07165510 -0.03275834 -0.02866017
v 0.07165510 -0.03401116 -0.02865597
v 0.09699883 -0.03793573 -0.02153934
v 0.09666686 -0.03764626 -0.02183050
v 0.00508987 -0.03658325 -0.02799176
v 0.00477687 -0.03658325 -0.02789237
v 0.00439747 -0.03658325 -0.02771179
v 0.00408446 -0.03658325 -0.02754942
v 0.06916057 -0.04149490 -0.02481139
v 0.07543959 -0.04186980 -0.02355716
v 0.07040309 -0.04149015 -0.02481139
v 0.07292608 -0.04145693 -0.02481139
v 0.07668212 -0.04183658 -0.02355716
v 0.08169964 -0.04193623 -0.02230293
v 0.08365354 -0.04198369 -0.02153934
v 0.03772751 -0.04149490 -0.02481139
v 0.07543959 -0.03652156 -0.02831231
v 0.07417809 -0.03652156 -0.02841100
v 0.07510762 -0.03526873 -0.02845509
v 0.07417809 -0.03526873 -0.02852578
v 0.07417809 -0.03401116 -0.02853908
v 0.07417809 -0.02773755 -0.02854818
v 0.09141221 -0.03747067 -0.02430956
v 0.09536742 -0.03765100 -0.02248071
v 0.09449481 -0.03798319 -0.02276067
v 0.09415336 -0.03765100 -0.02306303
v 0.09298671 -0.03776964 -0.02352636
v 0.09100436 -0.03830589 -0.02414508
v 0.08911685 -0.03766524 -0.02507735
v 0.08796918 -0.03806861 -0.02530482
v 0.08796918 -0.03744694 -0.02554769
v 0.08644211 -0.03857164 -0.02554209
v 0.08679305 -0.03786930 -0.02574296
v 0.08726730 -0.03834385 -0.02541401
v 0.08546516 -0.03878519 -0.02568137
v 0.08421315 -0.03910789 -0.02579476
v 0.08285680 -0.03890383 -0.02625599
v 0.08169964 -0.03914110 -0.02635398
v 0.08044763 -0.03871401 -0.02687891
v 0.07919562 -0.03887061 -0.02698529
v 0.07668212 -0.03796896 -0.02778038
v 0.07791516 -0.03768422 -0.02773069
v 0.07668212 -0.03734254 -0.02801415
v 0.03772751 -0.03907941 -0.02756971
v 0.03909334 -0.03993836 -0.02694540
v 0.03772751 -0.04104882 -0.02564708
v 0.06540453 -0.03994785 -0.02694540
v 0.06916057 -0.04056477 -0.02627769
v 0.03772751 -0.03845300 -0.02797426
v 0.03772751 -0.03776964 -0.02821503
v 0.07165510 -0.03526873 -0.02863637
v 0.07040309 -0.03776964 -0.02821713
v 0.07165510 -0.03652156 -0.02851738
v 0.07040309 -0.03844825 -0.02796796
v 0.06916057 -0.03845300 -0.02797216
v 0.04788587 -0.03845300 -0.02797426
v 0.07292608 -0.03526873 -0.02859857
v 0.09634438 -0.03860960 -0.02153934
v 0.09619262 -0.03846249 -0.02171851
v 0.06916057 -0.04104882 -0.02564918
v 0.07040309 -0.04104882 -0.02564568
v 0.07417809 -0.04142371 -0.02481139
v 0.07165510 -0.04112000 -0.02548680
v 0.07292608 -0.04110102 -0.02548820
v 0.07543959 -0.04138101 -0.02481139
v 0.07794361 -0.04177963 -0.02355716
v 0.08295166 -0.04186505 -0.02230293
v 0.08497194 -0.04189827 -0.02153934
v 0.04035484 -0.04113424 -0.02548820
v 0.07543959 -0.03751338 -0.02807575
v 0.07417809 -0.03765100 -0.02812614
v 0.07292608 -0.03652156 -0.02847959
v 0.09366963 -0.03844351 -0.02295594
v 0.09015071 -0.03858113 -0.02429836
v 0.09298671 -0.03866180 -0.02310362
v 0.09174418 -0.03908416 -0.02333529
v 0.08679305 -0.03900349 -0.02514174
v 0.08546516 -0.03941160 -0.02526843
v 0.08922119 -0.03883264 -0.02446844
v 0.08806403 -0.03913636 -0.02465461
v 0.08463997 -0.03958244 -0.02538321
v 0.08379581 -0.03971057 -0.02548680
v 0.08044763 -0.03933567 -0.02647436
v 0.08295166 -0.03981972 -0.02558968
v 0.07919562 -0.03949702 -0.02658145
v 0.07828507 -0.03959668 -0.02664864
v 0.07789619 -0.03912212 -0.02700839
v 0.07668212 -0.03902247 -0.02721976
v 0.07543959 -0.03813979 -0.02784408
v 0.04284937 -0.03907941 -0.02757321
v 0.06916057 -0.03994785 -0.02694540
v 0.07040309 -0.04056477 -0.02627139
v 0.07165510 -0.03776964 -0.02819053
v 0.07165510 -0.03841978 -0.02795396
v 0.07040309 -0.03906992 -0.02756831
v 0.06916057 -0.03907941 -0.02757321
v 0.09550022 -0.03921703 -0.02153934
v 0.09550022 -0.03871875 -0.02189349
v 0.07165510 -0.04103933 -0.02563378
v 0.07433934 -0.04105831 -0.02548680
v 0.07292608 -0.04102983 -0.02561628
v 0.07543959 -0.04098238 -0.02553999
v 0.07668212 -0.04130507 -0.02481139
v 0.07919562 -0.04169896 -0.02355716
v 0.08421315 -0.04176065 -0.02230293
v 0.08623344 -0.04179861 -0.02153934
v 0.08044763 -0.04160879 -0.02355716
v 0.07417809 -0.03827742 -0.02789377
v 0.07317269 -0.03836283 -0.02792597
v 0.07282175 -0.03786930 -0.02811774
v 0.09298671 -0.03928347 -0.02266898
v 0.09476987 -0.03959193 -0.02162892
v 0.09053011 -0.03900349 -0.02386512
v 0.08922119 -0.03945906 -0.02404569
v 0.09216152 -0.03953973 -0.02284676
v 0.08854776 -0.03962990 -0.02416608
v 0.08771309 -0.03978175 -0.02430396
v 0.08671717 -0.03993361 -0.02445934
v 0.08546516 -0.04010920 -0.02464481
v 0.08169964 -0.03995259 -0.02572756
v 0.08295166 -0.04044613 -0.02492057
v 0.08044763 -0.04007123 -0.02584795
v 0.07919562 -0.04016614 -0.02595363
v 0.07744091 -0.03966786 -0.02670603
v 0.07668212 -0.03972481 -0.02675433
v 0.07543959 -0.03902247 -0.02734574
v 0.07040309 -0.03993836 -0.02694190
v 0.07165510 -0.04055053 -0.02626019
v 0.07232853 -0.03839605 -0.02794346
v 0.07282175 -0.03890383 -0.02760611
v 0.07165510 -0.03904145 -0.02755432
v 0.07165510 -0.03991463 -0.02692790
v 0.09513030 -0.03946380 -0.02153934
v 0.07417809 -0.04100610 -0.02558408
v 0.07417809 -0.04047935 -0.02621190
v 0.07543959 -0.04042715 -0.02616851
v 0.07668212 -0.04093967 -0.02547700
v 0.07782979 -0.04117220 -0.02489608
v 0.07919562 -0.04118644 -0.02465461
v 0.08169964 -0.04150439 -0.02355716
v 0.08295166 -0.04137152 -0.02355716
v 0.08546516 -0.04162303 -0.02230293
v 0.08748545 -0.04166099 -0.02153934
v 0.07417809 -0.03902247 -0.02744723
v 0.09485524 -0.03963939 -0.02153934
v 0.09393520 -0.03980074 -0.02183050
v 0.09131736 -0.03974854 -0.02302243
v 0.09047320 -0.03991463 -0.02318761
v 0.08922119 -0.04011394 -0.02341788
v 0.08806403 -0.04031800 -0.02359145
v 0.08671717 -0.04056002 -0.02376783
v 0.08546516 -0.04073561 -0.02394981
v 0.08452615 -0.04084476 -0.02409119
v 0.08169964 -0.04058375 -0.02504656
v 0.08370097 -0.04092069 -0.02421017
v 0.08044763 -0.04069764 -0.02516134
v 0.07919562 -0.04079256 -0.02527753
v 0.07816176 -0.04086374 -0.02536781
v 0.07668212 -0.04035122 -0.02610481
v 0.07543959 -0.03979599 -0.02681872
v 0.07292608 -0.03988616 -0.02690550
v 0.07292608 -0.04051257 -0.02624269
v 0.07417809 -0.03985294 -0.02686911
v 0.07732709 -0.04090645 -0.02543710
v 0.08044763 -0.04112474 -0.02453773
v 0.08169964 -0.04105831 -0.02442084
v 0.08295166 -0.04098238 -0.02429276
v 0.08413727 -0.04117694 -0.02362645
v 0.08546516 -0.04114373 -0.02332129
v 0.08671717 -0.04146168 -0.02230293
v 0.08877540 -0.04147117 -0.02153934
v 0.09405850 -0.04000005 -0.02153934
v 0.09298671 -0.04043664 -0.02153934
v 0.09298671 -0.04000480 -0.02204257
v 0.09168727 -0.04027529 -0.02228193
v 0.09047320 -0.04053155 -0.02247931
v 0.08922119 -0.04074510 -0.02270888
v 0.08842446 -0.04086374 -0.02286005
v 0.08758978 -0.04096340 -0.02301543
v 0.08671717 -0.04103933 -0.02314142
v 0.08799763 -0.04121965 -0.02238692
v 0.08987565 -0.04128609 -0.02153934
v 0.09202873 -0.04078781 -0.02153934
v 0.09119406 -0.04093492 -0.02171921
v 0.09047320 -0.04102034 -0.02185149
v 0.08922119 -0.04114373 -0.02208036
v 0.09047320 -0.04117220 -0.02153934
v 0.09133633 -0.04099661 -0.02153934
f 1 2 3
f 1 3 4
f 1 4 15
f 1 15 40
f 1 40 94
f 1 94 147
f 1 147 193
f 1 193 247
f 1 247 269
f 1 269 217
f 1 217 167
f 1 167 117
f 1 117 63
f 1 63 27
f 1 27 5
f 1 5 2
f 2 6 7
f 2 7 3
f 2 5 8
f 2 8 9
f 2 9 10
f 2 10 11
f 2 11 12
f 2 12 6
f 3 7 13
f 3 13 14
f 3 14 4
f 4 14 16
f 4 16 17
f 4 17 18
f 4 18 19
f 4 19 20
f 4 20 21
f 4 21 22
f 4 22 23
f 4 23 24
f 4 24 25
f 4 25 26
f 4 26 15
f 5 27 31
f 5 31 8
f 6 12 11
f 6 11 10
f 6 10 28
f 6 28 64
f 6 64 119
f 6 119 172
f 6 172 224
f 6 224 237
f 6 237 236
f 6 236 287
f 6 287 340
f 6 340 378
f 6 378 415
f 6 415 443
f 6 443 454
f 6 454 459
f 6 459 460
f 6 460 455
f 6 455 445
f 6 445 444
f 6 444 417
f 6 417 405
f 6 405 369
f 6 369 330
f 6 330 275
f 6 275 225
f 6 225 173
f 6 173 120
f 6 120 65
f 6 65 29
f 6 29 7
f 7 29 68
f 7 68 30
f 7 30 13
f 8 31 32
f 8 32 9
f 9 33 64
f 9 64 28
f 9 28 10
f 9 32 34
f 9 34 35
f 9 35 33
f 13 30 36
f 13 36 17
f 13 17 16
f 13 16 14
f 15 26 37
f 15 37 92
f 15 92 38
f 15 38 39
f 15 39 40
f 17 36 41
f 17 41 18
f 18 41 42
f 18 42 43
f 18 43 44
f 18 44 99
f 18 99 45
f 18 45 46
f 18 46 19
f 19 46 47
f 19 47 20
f 20 47 21
f 21 48 22
f 21 47 49
f 21 49 48
f 22 48 50
f 22 50 51
f 22 51 52
f 22 52 23
f 23 52 53
f 23 53 54
f 23 54 55
f 23 55 24
f 24 55 54
f 24 54 56
f 24 56 57
f 24 57 25
f 25 57 26
f 26 57 58
f 26 58 59
f 26 59 37
f 27 60 61
f 27 61 62
f 27 62 31
f 27 63 118
f 27 118 171
f 27 171 208
f 27 208 162
f 27 162 115
f 27 115 60
f 29 65 66
f 29 66 67
f 29 67 68
f 30 68 36
f 31 62 69
f 31 69 70
f 31 70 71
f 31 71 72
f 31 72 73
f 31 73 74
f 31 74 75
f 31 75 76
f 31 76 77
f 31 77 78
f 31 78 79
f 31 79 80
f 31 80 32
f 32 80 81
f 32 81 35
f 32 35 34
f 33 82 119
f 33 119 64
f 33 35 83
f 33 83 84
f 33 84 85
f 33 85 86
f 33 86 87
f 33 87 88
f 33 88 130
f 33 130 82
f 35 81 89
f 35 89 83
f 36 68 90
f 36 90 41
f 37 91 92
f 37 59 91
f 38 92 93
f 38 93 39
f 39 93 94
f 39 94 40
f 41 95 43
f 41 43 42
f 41 90 95
f 43 96 97
f 43 97 44
f 43 95 98
f 43 98 96
f 44 97 99
f 45 99 100
f 45 100 46
f 46 100 49
f 46 49 47
f 48 101 50
f 48 49 101
f 49 100 102
f 49 102 103
f 49 103 101
f 50 101 104
f 50 104 105
f 50 105 106
f 50 106 107
f 50 107 51
f 51 107 53
f 51 53 52
f 53 108 109
f 53 109 54
f 53 107 106
f 53 106 108
f 54 109 56
f 56 109 108
f 56 108 110
f 56 110 57
f 57 110 111
f 57 111 58
f 58 112 113
f 58 113 114
f 58 114 59
f 58 111 112
f 59 114 91
f 60 115 116
f 60 116 61
f 61 116 62
f 62 116 69
f 63 117 166
f 63 166 118
f 65 120 121
f 65 121 66
f 66 121 98
f 66 98 122
f 66 122 68
f 66 68 67
f 68 122 90
f 69 116 123
f 69 123 124
f 69 124 71
f 69 71 70
f 71 124 72
f 72 124 123
f 72 123 73
f 73 123 125
f 73 125 126
f 73 126 74
f 74 126 127
f 74 127 75
f 75 127 76
f 76 128 77
f 76 127 128
f 77 128 78
f 78 129 79
f 78 128 129
f 79 129 81
f 79 81 80
f 81 129 89
f 82 130 131
f 82 131 132
f 82 132 133
f 82 133 134
f 82 134 135
f 82 135 136
f 82 136 119
f 83 89 84
f 84 89 85
f 85 89 137
f 85 137 86
f 86 137 138
f 86 138 87
f 87 138 139
f 87 139 88
f 88 139 181
f 88 181 130
f 89 129 140
f 89 140 141
f 89 141 137
f 90 122 98
f 90 98 95
f 91 114 92
f 92 142 143
f 92 143 144
f 92 144 93
f 92 114 113
f 92 113 142
f 93 144 145
f 93 145 94
f 94 145 146
f 94 146 147
f 96 148 97
f 96 98 148
f 97 149 99
f 97 148 149
f 98 150 148
f 98 121 150
f 99 151 155
f 99 155 102
f 99 102 100
f 99 149 151
f 101 152 153
f 101 153 104
f 101 103 154
f 101 154 152
f 102 155 154
f 102 154 103
f 104 153 105
f 105 156 108
f 105 108 106
f 105 153 156
f 108 156 157
f 108 157 110
f 110 158 111
f 110 157 158
f 111 158 112
f 112 158 159
f 112 159 160
f 112 160 113
f 113 160 161
f 113 161 142
f 115 162 116
f 116 163 164
f 116 164 123
f 116 162 165
f 116 165 163
f 117 167 168
f 117 168 166
f 118 166 169
f 118 169 170
f 118 170 171
f 119 136 135
f 119 135 172
f 120 173 174
f 120 174 175
f 120 175 176
f 120 176 121
f 121 176 150
f 123 164 125
f 125 177 178
f 125 178 126
f 125 164 177
f 126 178 127
f 127 179 128
f 127 178 179
f 128 179 180
f 128 180 140
f 128 140 129
f 130 181 131
f 131 181 132
f 132 181 133
f 133 181 134
f 134 181 135
f 135 181 182
f 135 182 183
f 135 183 172
f 137 141 138
f 138 141 184
f 138 184 139
f 139 184 185
f 139 185 181
f 140 180 186
f 140 186 141
f 141 186 184
f 142 161 143
f 143 187 188
f 143 188 145
f 143 145 144
f 143 161 187
f 145 188 189
f 145 189 146
f 146 189 190
f 146 190 147
f 147 190 191
f 147 191 192
f 147 192 193
f 148 194 149
f 148 150 194
f 149 194 151
f 150 195 194
f 150 176 196
f 150 196 195
f 151 194 155
f 152 154 197
f 152 197 153
f 153 197 198
f 153 198 200
f 153 200 156
f 154 155 199
f 154 199 197
f 155 194 199
f 156 200 158
f 156 158 157
f 158 201 159
f 158 200 202
f 158 202 201
f 159 201 203
f 159 203 160
f 160 204 205
f 160 205 161
f 160 203 204
f 161 205 206
f 161 206 207
f 161 207 187
f 162 208 165
f 163 209 210
f 163 210 211
f 163 211 164
f 163 165 212
f 163 212 213
f 163 213 209
f 164 211 177
f 165 214 212
f 165 208 171
f 165 171 170
f 165 170 215
f 165 215 216
f 165 216 214
f 166 168 169
f 167 217 218
f 167 218 270
f 167 270 219
f 167 219 168
f 168 219 220
f 168 220 169
f 169 220 221
f 169 221 222
f 169 222 223
f 169 223 170
f 170 223 215
f 172 183 224
f 173 225 226
f 173 226 174
f 174 226 175
f 175 226 196
f 175 196 176
f 177 227 228
f 177 228 178
f 177 211 227
f 178 228 179
f 179 228 229
f 179 229 186
f 179 186 180
f 181 185 230
f 181 230 182
f 182 231 232
f 182 232 183
f 182 230 233
f 182 233 231
f 183 232 234
f 183 234 235
f 183 235 236
f 183 236 237
f 183 237 224
f 184 186 238
f 184 238 239
f 184 239 185
f 185 239 230
f 186 229 238
f 187 207 206
f 187 206 240
f 187 240 241
f 187 241 242
f 187 242 189
f 187 189 188
f 189 242 190
f 190 242 243
f 190 243 244
f 190 244 245
f 190 245 191
f 191 245 294
f 191 294 246
f 191 246 247
f 191 247 192
f 192 247 193
f 194 248 249
f 194 249 199
f 194 195 250
f 194 250 248
f 195 196 251
f 195 251 250
f 196 226 251
f 197 252 198
f 197 199 252
f 198 252 200
f 199 249 248
f 199 248 252
f 200 201 202
f 200 252 201
f 201 252 253
f 201 253 203
f 203 253 254
f 203 254 255
f 203 255 256
f 203 256 204
f 204 256 257
f 204 257 205
f 205 258 206
f 205 257 258
f 206 259 241
f 206 241 240
f 206 258 259
f 209 213 260
f 209 260 210
f 210 260 261
f 210 261 262
f 210 262 211
f 211 262 263
f 211 263 227
f 212 214 265
f 212 265 264
f 212 264 213
f 213 264 260
f 214 216 265
f 215 223 266
f 215 266 267
f 215 267 216
f 216 267 268
f 216 268 265
f 217 269 218
f 218 269 247
f 218 247 246
f 218 246 294
f 218 294 270
f 219 270 220
f 220 270 271
f 220 271 221
f 221 271 272
f 221 272 222
f 222 272 273
f 222 273 223
f 223 273 274
f 223 274 266
f 225 275 226
f 226 275 276
f 226 276 251
f 227 263 277
f 227 277 228
f 228 277 278
f 228 278 279
f 228 279 229
f 229 280 238
f 229 279 280
f 230 281 283
f 230 283 233
f 230 239 288
f 230 288 281
f 231 282 232
f 231 233 283
f 231 283 284
f 231 284 282
f 232 282 234
f 234 282 285
f 234 285 235
f 235 286 236
f 235 285 286
f 236 286 287
f 238 280 239
f 239 280 279
f 239 279 278
f 239 278 288
f 241 289 242
f 241 259 289
f 242 289 243
f 243 289 290
f 243 290 291
f 243 291 244
f 244 291 292
f 244 292 293
f 244 293 294
f 244 294 245
f 248 250 251
f 248 251 295
f 248 295 252
f 251 276 296
f 251 296 297
f 251 297 298
f 251 298 299
f 251 299 295
f 252 295 300
f 252 300 301
f 252 301 302
f 252 302 303
f 252 303 253
f 253 304 255
f 253 255 254
f 253 303 305
f 253 305 306
f 253 306 304
f 255 257 256
f 255 304 257
f 257 304 307
f 257 307 308
f 257 308 309
f 257 309 310
f 257 310 311
f 257 311 258
f 258 312 313
f 258 313 314
f 258 314 259
f 258 311 312
f 259 314 313
f 259 313 315
f 259 315 289
f 260 316 317
f 260 317 261
f 260 264 316
f 261 318 262
f 261 317 319
f 261 319 320
f 261 320 318
f 262 318 288
f 262 288 263
f 263 288 277
f 264 265 321
f 264 321 316
f 265 322 321
f 265 268 322
f 266 274 323
f 266 323 325
f 266 325 267
f 267 324 268
f 267 325 365
f 267 365 324
f 268 324 326
f 268 326 327
f 268 327 328
f 268 328 321
f 268 321 322
f 270 294 271
f 271 294 272
f 272 329 274
f 272 274 273
f 272 294 293
f 272 293 292
f 272 292 329
f 274 329 323
f 275 330 331
f 275 331 276
f 276 331 296
f 277 288 278
f 281 332 333
f 281 333 283
f 281 288 332
f 282 284 334
f 282 334 285
f 283 333 335
f 283 335 284
f 284 335 336
f 284 336 334
f 285 334 337
f 285 337 338
f 285 338 286
f 286 338 339
f 286 339 287
f 287 339 340
f 288 318 341
f 288 341 332
f 289 342 290
f 289 315 342
f 290 292 291
f 290 342 343
f 290 343 344
f 290 344 329
f 290 329 292
f 295 299 300
f 296 331 297
f 297 345 298
f 297 331 345
f 298 345 299
f 299 345 300
f 300 346 306
f 300 306 302
f 300 302 301
f 300 345 347
f 300 347 348
f 300 348 346
f 302 306 303
f 303 306 305
f 304 349 350
f 304 350 307
f 304 306 351
f 304 351 352
f 304 352 349
f 306 346 351
f 307 350 353
f 307 353 308
f 308 353 309
f 309 353 354
f 309 354 310
f 310 355 311
f 310 354 356
f 310 356 355
f 311 355 357
f 311 357 312
f 312 357 358
f 312 358 359
f 312 359 360
f 312 360 313
f 313 360 361
f 313 361 315
f 315 361 342
f 316 321 362
f 316 362 317
f 317 362 319
f 318 320 332
f 318 332 341
f 319 363 320
f 319 362 368
f 319 368 363
f 320 363 364
f 320 364 333
f 320 333 332
f 321 328 368
f 321 368 362
f 323 329 344
f 323 344 325
f 324 365 366
f 324 366 326
f 325 344 365
f 326 367 368
f 326 368 327
f 326 366 403
f 326 403 367
f 327 368 328
f 330 369 370
f 330 370 331
f 331 370 345
f 333 364 371
f 333 371 335
f 334 372 337
f 334 336 372
f 335 371 336
f 336 373 372
f 336 371 373
f 337 374 375
f 337 375 338
f 337 372 374
f 338 376 339
f 338 375 376
f 339 377 378
f 339 378 340
f 339 376 379
f 339 379 377
f 342 361 343
f 343 380 381
f 343 381 382
f 343 382 365
f 343 365 344
f 343 361 380
f 345 383 347
f 345 370 384
f 345 384 383
f 346 348 385
f 346 385 386
f 346 386 351
f 347 383 387
f 347 387 348
f 348 387 385
f 349 352 388
f 349 388 350
f 350 388 389
f 350 389 353
f 351 386 388
f 351 388 352
f 353 389 390
f 353 390 391
f 353 391 354
f 354 391 356
f 355 356 392
f 355 392 357
f 356 391 393
f 356 393 392
f 357 392 394
f 357 394 358
f 358 394 395
f 358 395 396
f 358 396 359
f 359 396 360
f 360 396 397
f 360 397 398
f 360 398 361
f 361 398 380
f 363 368 399
f 363 399 364
f 364 399 400
f 364 400 373
f 364 373 371
f 365 382 401
f 365 401 366
f 366 401 402
f 366 402 403
f 367 399 368
f 367 403 404
f 367 404 399
f 369 405 384
f 369 384 370
f 372 373 406
f 372 406 374
f 373 400 406
f 374 406 407
f 374 407 408
f 374 408 409
f 374 409 375
f 375 409 410
f 375 410 411
f 375 411 379
f 375 379 376
f 377 379 412
f 377 412 413
f 377 413 414
f 377 414 415
f 377 415 378
f 379 411 412
f 380 398 381
f 381 398 416
f 381 416 402
f 381 402 401
f 381 401 382
f 383 384 387
f 384 405 417
f 384 417 418
f 384 418 387
f 385 387 386
f 386 387 419
f 386 419 388
f 387 418 419
f 388 419 420
f 388 420 389
f 389 420 421
f 389 421 422
f 389 422 423
f 389 423 390
f 390 423 391
f 391 423 424
f 391 424 425
f 391 425 393
f 392 426 394
f 392 393 426
f 393 425 427
f 393 427 426
f 394 426 428
f 394 428 429
f 394 429 395
f 395 429 430
f 395 430 431
f 395 431 397
f 395 397 396
f 397 431 408
f 397 408 432
f 397 432 398
f 398 432 416
f 399 404 400
f 400 404 433
f 400 433 434
f 400 434 406
f 402 433 403
f 402 416 435
f 402 435 433
f 403 433 404
f 406 434 407
f 407 435 408
f 407 434 433
f 407 433 435
f 408 435 432
f 408 431 409
f 409 431 436
f 409 436 410
f 410 436 411
f 411 436 430
f 411 430 437
f 411 437 412
f 412 437 438
f 412 438 413
f 413 439 440
f 413 440 441
f 413 441 442
f 413 442 414
f 413 438 439
f 414 442 415
f 415 442 443
f 416 432 435
f 417 444 418
f 418 444 445
f 418 445 446
f 418 446 419
f 419 446 447
f 419 447 420
f 420 447 448
f 420 448 449
f 420 449 421
f 421 449 450
f 421 450 422
f 422 450 423
f 423 450 451
f 423 451 424
f 424 451 425
f 425 451 427
f 426 427 439
f 426 439 428
f 427 451 452
f 427 452 441
f 427 441 440
f 427 440 439
f 428 439 429
f 429 439 438
f 429 438 430
f 430 438 437
f 430 436 431
f 441 452 442
f 442 452 453
f 442 453 443
f 443 453 454
f 445 455 446
f 446 455 447
f 447 455 456
f 447 456 448
f 448 456 449
f 449 456 450
f 450 456 451
f 451 456 457
f 451 457 458
f 451 458 453
f 451 453 452
f 453 458 454
f 454 457 459
f 454 458 457
f 455 460 456
f 456 460 457
f 457 460 459

