# https://github.com/mikedh/trimesh
v 0.00016599 -0.00889939 -0.00914188
v 0.00016599 -0.00915751 -0.00910123
v 0.00016599 -0.00812597 -0.00914188
v 0.00160834 -0.00889939 -0.00914188
v 0.00031853 -0.00915751 -0.00909978
v 0.00016599 -0.00930016 -0.00904462
v 0.00186622 -0.00889939 -0.00914115
v 0.00016599 -0.00786785 -0.00909579
v 0.00415167 -0.00691813 -0.00913426
v 0.00367141 -0.00709412 -0.00913934
v 0.00392968 -0.00709412 -0.00914188
v 0.00289776 -0.00864159 -0.00914188
v 0.00057642 -0.00915751 -0.00909579
v 0.00031853 -0.00929892 -0.00904317
v 0.00016599 -0.00938661 -0.00889947
v 0.00212411 -0.00889939 -0.00913534
v 0.00186622 -0.00910379 -0.00908454
v 0.00315564 -0.00864159 -0.00913680
v 0.00016599 -0.00773077 -0.00903918
v 0.00367141 -0.00691813 -0.00909325
v 0.00415167 -0.00691813 -0.00839433
v 0.00415167 -0.00709412 -0.00914188
v 0.00367141 -0.00838378 -0.00914188
v 0.00057642 -0.00929552 -0.00903918
v 0.00031853 -0.00938352 -0.00889947
v 0.00016599 -0.00950177 -0.00869553
v 0.00238160 -0.00889939 -0.00912010
v 0.00212411 -0.00908804 -0.00907873
v 0.00078085 -0.00929120 -0.00903410
v 0.00392968 -0.00838378 -0.00913353
v 0.00341352 -0.00864159 -0.00911647
v 0.00315564 -0.00883980 -0.00907982
v 0.00016599 -0.00772613 -0.00889947
v 0.00342991 -0.00691813 -0.00889947
v 0.00344746 -0.00691813 -0.00895608
v 0.00350052 -0.00691813 -0.00906640
v 0.00415167 -0.00853784 -0.00622136
v 0.00410719 -0.00691813 -0.00841646
v 0.00016599 -0.00779591 -0.00862948
v 0.00016599 -0.00787187 -0.00850138
v 0.00016599 -0.00829115 -0.00780790
v 0.00016599 -0.00842021 -0.00761993
v 0.00415167 -0.00812597 -0.00914188
v 0.00057642 -0.00937642 -0.00889947
v 0.00031853 -0.00957248 -0.00856307
v 0.00016599 -0.00957433 -0.00856634
v 0.00238160 -0.00906519 -0.00906313
v 0.00186622 -0.00923285 -0.00894955
v 0.00095290 -0.00928503 -0.00902720
v 0.00085381 -0.00935017 -0.00892451
v 0.00083430 -0.00949158 -0.00867702
v 0.00415167 -0.00840045 -0.00909833
v 0.00392968 -0.00858323 -0.00907692
v 0.00341352 -0.00880492 -0.00905950
v 0.00258291 -0.00904420 -0.00904462
v 0.00016599 -0.00772860 -0.00881891
v 0.00344864 -0.00691813 -0.00886173
v 0.00016599 -0.00773416 -0.00875830
v 0.00415167 -0.00900437 -0.00564328
v 0.00016599 -0.00852272 -0.00749110
v 0.00378026 -0.00691813 -0.00858412
v 0.00016599 -0.00777029 -0.00868246
v 0.00083430 -0.00956445 -0.00854819
v 0.00057642 -0.00956846 -0.00855581
v 0.00031853 -0.00965676 -0.00838344
v 0.00016599 -0.00960891 -0.00849267
v 0.00083430 -0.00964256 -0.00838344
v 0.00212411 -0.00921710 -0.00892124
v 0.00212411 -0.00929954 -0.00879242
v 0.00186622 -0.00931528 -0.00882036
v 0.00109218 -0.00935357 -0.00888786
v 0.00109218 -0.00948263 -0.00866214
v 0.00109218 -0.00955611 -0.00853331
v 0.00160834 -0.00932825 -0.00884431
v 0.00135046 -0.00934122 -0.00886681
v 0.00415167 -0.00850728 -0.00906458
v 0.00413177 -0.00854464 -0.00905515
v 0.00357348 -0.00878083 -0.00903918
v 0.00275496 -0.00902320 -0.00902394
v 0.00236521 -0.00920537 -0.00887624
v 0.00265704 -0.00911614 -0.00892269
v 0.00350521 -0.00691813 -0.00875105
v 0.00354383 -0.00691813 -0.00871476
v 0.00415167 -0.00911521 -0.00554965
v 0.00016599 -0.00891823 -0.00709156
v 0.00016599 -0.00903895 -0.00697290
v 0.00109218 -0.00962867 -0.00838344
v 0.00031853 -0.00975742 -0.00814067
v 0.00016599 -0.00965985 -0.00838344
v 0.00082962 -0.00976081 -0.00810112
v 0.00057642 -0.00975433 -0.00813305
v 0.00109218 -0.00973920 -0.00812543
v 0.00226807 -0.00928873 -0.00877463
v 0.00212411 -0.00938506 -0.00864146
v 0.00186622 -0.00951783 -0.00846509
v 0.00186622 -0.00941779 -0.00864146
v 0.00125994 -0.00954808 -0.00851916
v 0.00186622 -0.00958822 -0.00833627
v 0.00160834 -0.00959872 -0.00835913
v 0.00160834 -0.00944373 -0.00864146
v 0.00415167 -0.00857243 -0.00901704
v 0.00392968 -0.00871198 -0.00896225
v 0.00366399 -0.00884752 -0.00891035
v 0.00341352 -0.00894478 -0.00888459
v 0.00315564 -0.00906705 -0.00882326
v 0.00315564 -0.00896886 -0.00895245
v 0.00411149 -0.00878824 -0.00879314
v 0.00392968 -0.00881788 -0.00883342
v 0.00289776 -0.00909947 -0.00887080
v 0.00263987 -0.00925508 -0.00871839
v 0.00244012 -0.00927391 -0.00874923
v 0.00289776 -0.00922852 -0.00867920
v 0.00415167 -0.00913435 -0.00553623
v 0.00016599 -0.00915782 -0.00690721
v 0.00160834 -0.00970370 -0.00812543
v 0.00135046 -0.00972160 -0.00812543
v 0.00031853 -0.00980805 -0.00801148
v 0.00016599 -0.00980960 -0.00801475
v 0.00016599 -0.00975865 -0.00814394
v 0.00016599 -0.00970092 -0.00828401
v 0.00057642 -0.00980527 -0.00800386
v 0.00091233 -0.00980095 -0.00799297
v 0.00074027 -0.00980311 -0.00799914
v 0.00109218 -0.00984572 -0.00785072
v 0.00135046 -0.00983708 -0.00782786
v 0.00212411 -0.00950084 -0.00843425
v 0.00289776 -0.00930818 -0.00855001
v 0.00263987 -0.00932949 -0.00858956
v 0.00289776 -0.00940112 -0.00838344
v 0.00236521 -0.00933937 -0.00865452
v 0.00232425 -0.00955611 -0.00827566
v 0.00212411 -0.00957186 -0.00830542
v 0.00160834 -0.00953079 -0.00848832
v 0.00212411 -0.00965399 -0.00812543
v 0.00186622 -0.00968301 -0.00812543
v 0.00415167 -0.00866351 -0.00891870
v 0.00415167 -0.00873143 -0.00884068
v 0.00367141 -0.00898801 -0.00871476
v 0.00394528 -0.00895991 -0.00863383
v 0.00349935 -0.00901487 -0.00875177
v 0.00332769 -0.00904173 -0.00878842
v 0.00315057 -0.00920691 -0.00862295
v 0.00341352 -0.00911027 -0.00865597
v 0.00323367 -0.00927453 -0.00849195
v 0.00415167 -0.00882344 -0.00872746
v 0.00415167 -0.00885401 -0.00868609
v 0.00306161 -0.00929367 -0.00852460
v 0.00415167 -0.00937117 -0.00544333
v 0.00016599 -0.00941532 -0.00683936
v 0.00186622 -0.00976822 -0.00790697
v 0.00160834 -0.00977810 -0.00793419
v 0.00031853 -0.00986301 -0.00786742
v 0.00057642 -0.00985776 -0.00786742
v 0.00016599 -0.00983183 -0.00795596
v 0.00082962 -0.00984232 -0.00789100
v 0.00109218 -0.00992322 -0.00760977
v 0.00083430 -0.00993310 -0.00760977
v 0.00160834 -0.00989543 -0.00760977
v 0.00135046 -0.00990932 -0.00760977
v 0.00160834 -0.00982812 -0.00780500
v 0.00289776 -0.00950825 -0.00818748
v 0.00263987 -0.00952987 -0.00822849
v 0.00263987 -0.00944403 -0.00838344
v 0.00239877 -0.00949127 -0.00837038
v 0.00249591 -0.00954191 -0.00824990
v 0.00289776 -0.00957680 -0.00805866
v 0.00263987 -0.00959625 -0.00809930
v 0.00238160 -0.00972778 -0.00786742
v 0.00263987 -0.00969783 -0.00786742
v 0.00213035 -0.00976236 -0.00785145
v 0.00367141 -0.00908156 -0.00858593
v 0.00386960 -0.00905037 -0.00854275
v 0.00415167 -0.00887747 -0.00865416
v 0.00404165 -0.00902290 -0.00850501
v 0.00341352 -0.00924983 -0.00845275
v 0.00394528 -0.00912478 -0.00840485
v 0.00341352 -0.00932393 -0.00832357
v 0.00316695 -0.00949158 -0.00811563
v 0.00315057 -0.00934431 -0.00839687
v 0.00378065 -0.00928163 -0.00824591
v 0.00308892 -0.00955858 -0.00802346
v 0.00415167 -0.00941532 -0.00543462
v 0.00016599 -0.00956753 -0.00683936
v 0.00204842 -0.00980836 -0.00775456
v 0.00186622 -0.00981762 -0.00777815
v 0.00031853 -0.00994267 -0.00760977
v 0.00016599 -0.00989790 -0.00776182
v 0.00016599 -0.00986517 -0.00786742
v 0.00057642 -0.00993835 -0.00760977
v 0.00109218 -0.00998713 -0.00735175
v 0.00160834 -0.00996613 -0.00735175
v 0.00135046 -0.00997694 -0.00735175
v 0.00083430 -0.00999485 -0.00735175
v 0.00186622 -0.00987752 -0.00760977
v 0.00186622 -0.00995162 -0.00735175
v 0.00289776 -0.00966170 -0.00786742
v 0.00238160 -0.00978953 -0.00770448
v 0.00263987 -0.00977471 -0.00766492
v 0.00290517 -0.00976390 -0.00759779
v 0.00282402 -0.00981083 -0.00750417
v 0.00415167 -0.00900468 -0.00847852
v 0.00415167 -0.00907384 -0.00838126
v 0.00392968 -0.00926125 -0.00821216
v 0.00415167 -0.00909545 -0.00835042
v 0.00368545 -0.00935666 -0.00814611
v 0.00412943 -0.00930695 -0.00803471
v 0.00392968 -0.00933257 -0.00808297
v 0.00380366 -0.00954500 -0.00774004
v 0.00341352 -0.00958699 -0.00782423
v 0.00316695 -0.00960489 -0.00788701
v 0.00367141 -0.00949189 -0.00789754
v 0.00367141 -0.00955982 -0.00776871
v 0.00016599 -0.00967344 -0.00684008
v 0.00415167 -0.00960582 -0.00543679
v 0.00238160 -0.00983800 -0.00757565
v 0.00213035 -0.00984541 -0.00762936
v 0.00031853 -0.01000288 -0.00735175
v 0.00016599 -0.00994452 -0.00760977
v 0.00057642 -0.00999948 -0.00735175
v 0.00109218 -0.01003838 -0.00712712
v 0.00083430 -0.01004240 -0.00714346
v 0.00130715 -0.01006370 -0.00698052
v 0.00160834 -0.01002418 -0.00709410
v 0.00137620 -0.01003869 -0.00707741
v 0.00263987 -0.00988555 -0.00735175
v 0.00238160 -0.00991025 -0.00735175
v 0.00212411 -0.00993248 -0.00735175
v 0.00238160 -0.00997509 -0.00709410
v 0.00212411 -0.00999207 -0.00709410
v 0.00186622 -0.01000905 -0.00709410
v 0.00341352 -0.00967838 -0.00760977
v 0.00315564 -0.00972129 -0.00760977
v 0.00263987 -0.00982318 -0.00753610
v 0.00299607 -0.00979756 -0.00746751
v 0.00315564 -0.00983183 -0.00730421
v 0.00290517 -0.00984603 -0.00736953
v 0.00415167 -0.00923593 -0.00813958
v 0.00397533 -0.00952184 -0.00769396
v 0.00415167 -0.00928441 -0.00806011
v 0.00415167 -0.00932239 -0.00799189
v 0.00390549 -0.00958112 -0.00760868
v 0.00367141 -0.00963114 -0.00760977
v 0.00413021 -0.00956445 -0.00752195
v 0.00016599 -0.00982565 -0.00686621
v 0.00415167 -0.00967344 -0.00543788
v 0.00031853 -0.01004641 -0.00715325
v 0.00016599 -0.01002202 -0.00727047
v 0.00016599 -0.01000411 -0.00735175
v 0.00016599 -0.00996922 -0.00750380
v 0.00057642 -0.01004456 -0.00715108
v 0.00109218 -0.01006771 -0.00699830
v 0.00083430 -0.01007111 -0.00701427
v 0.00212411 -0.01006833 -0.00674537
v 0.00263987 -0.00995564 -0.00709410
v 0.00315564 -0.00989883 -0.00709410
v 0.00289776 -0.00992970 -0.00709410
v 0.00238082 -0.01003560 -0.00681831
v 0.00229382 -0.01006308 -0.00672033
v 0.00212411 -0.01004054 -0.00687419
v 0.00367141 -0.00973179 -0.00735175
v 0.00343732 -0.00977224 -0.00734740
v 0.00353954 -0.00980188 -0.00722148
v 0.00343732 -0.00985251 -0.00711914
v 0.00415167 -0.00937858 -0.00788012
v 0.00415167 -0.00954623 -0.00754662
v 0.00415167 -0.00957742 -0.00747913
v 0.00415167 -0.00960459 -0.00741453
v 0.00392968 -0.00968177 -0.00735175
v 0.00016599 -0.00993125 -0.00688762
v 0.00415167 -0.00993125 -0.00549268
v 0.00016599 -0.01004703 -0.00715325
v 0.00057642 -0.01007235 -0.00702189
v 0.00284704 -0.01006771 -0.00648481
v 0.00335461 -0.01006802 -0.00623116
v 0.00263987 -0.01001152 -0.00683609
v 0.00315564 -0.00996397 -0.00683609
v 0.00367141 -0.00990191 -0.00683609
v 0.00341352 -0.00993711 -0.00683609
v 0.00367141 -0.00978984 -0.00718628
v 0.00367141 -0.00983461 -0.00705709
v 0.00415167 -0.00962342 -0.00736845
v 0.00394333 -0.00977039 -0.00709120
v 0.00415167 -0.00971574 -0.00713003
v 0.00016599 -0.01001368 -0.00692246
v 0.00415167 -0.01006648 -0.00560046
v 0.00016599 -0.01007111 -0.00694967
v 0.00016599 -0.01005722 -0.00710063
v 0.00413060 -0.01006802 -0.00572602
v 0.00057642 -0.01007235 -0.00694641
v 0.00031853 -0.01007173 -0.00702407
v 0.00315564 -0.01001831 -0.00657808
v 0.00341352 -0.00999207 -0.00657808
v 0.00342991 -0.01004240 -0.00631825
v 0.00384307 -0.01006555 -0.00596044
v 0.00394333 -0.00984943 -0.00685496
v 0.00415167 -0.00988401 -0.00661908
v 0.00415167 -0.00989574 -0.00657808
v 0.00392968 -0.00992970 -0.00657808
v 0.00367141 -0.00996274 -0.00657808
v 0.00386687 -0.00981546 -0.00700338
v 0.00415167 -0.00983090 -0.00679254
v 0.00415167 -0.00972840 -0.00709374
v 0.00415167 -0.00978181 -0.00693733
v 0.00415167 -0.01006741 -0.00568900
v 0.00403541 -0.01006802 -0.00565997
v 0.00016599 -0.01007111 -0.00702443
v 0.00031853 -0.01007173 -0.00694858
v 0.00415167 -0.01006185 -0.00574924
v 0.00367141 -0.01001430 -0.00632006
v 0.00392968 -0.00998435 -0.00632006
v 0.00392929 -0.01003684 -0.00605262
v 0.00415167 -0.00999948 -0.00609834
v 0.00415167 -0.01000658 -0.00606096
v 0.00401512 -0.01005475 -0.00589803
v 0.00415167 -0.00994915 -0.00635599
v 0.00415167 -0.00995687 -0.00632006
v 0.00415167 -0.00982071 -0.00682339
v 0.00415167 -0.01004826 -0.00583416
f 1 2 6
f 1 6 15
f 1 15 26
f 1 26 46
f 1 46 66
f 1 66 89
f 1 89 120
f 1 120 119
f 1 119 118
f 1 118 154
f 1 154 188
f 1 188 187
f 1 187 218
f 1 218 249
f 1 249 248
f 1 248 247
f 1 247 271
f 1 271 287
f 1 287 306
f 1 306 286
f 1 286 284
f 1 284 269
f 1 269 244
f 1 244 213
f 1 213 183
f 1 183 149
f 1 149 114
f 1 114 86
f 1 86 85
f 1 85 60
f 1 60 42
f 1 42 41
f 1 41 40
f 1 40 39
f 1 39 62
f 1 62 58
f 1 58 56
f 1 56 33
f 1 33 19
f 1 19 8
f 1 8 3
f 1 3 11
f 1 11 22
f 1 22 43
f 1 43 23
f 1 23 12
f 1 12 4
f 1 4 2
f 2 5 6
f 2 4 7
f 2 7 5
f 3 8 9
f 3 9 10
f 3 10 11
f 4 12 7
f 5 13 14
f 5 14 6
f 5 7 13
f 6 14 15
f 7 16 17
f 7 17 13
f 7 12 18
f 7 18 16
f 8 19 20
f 8 20 9
f 9 21 37
f 9 37 59
f 9 59 84
f 9 84 113
f 9 113 148
f 9 148 182
f 9 182 214
f 9 214 245
f 9 245 270
f 9 270 285
f 9 285 304
f 9 304 308
f 9 308 318
f 9 318 313
f 9 313 312
f 9 312 316
f 9 316 315
f 9 315 297
f 9 297 296
f 9 296 301
f 9 301 317
f 9 317 303
f 9 303 302
f 9 302 283
f 9 283 281
f 9 281 267
f 9 267 266
f 9 266 265
f 9 265 264
f 9 264 240
f 9 240 239
f 9 239 237
f 9 237 204
f 9 204 202
f 9 202 201
f 9 201 173
f 9 173 146
f 9 146 145
f 9 145 137
f 9 137 136
f 9 136 101
f 9 101 76
f 9 76 52
f 9 52 43
f 9 43 22
f 9 22 11
f 9 11 10
f 9 20 36
f 9 36 35
f 9 35 34
f 9 34 57
f 9 57 82
f 9 82 83
f 9 83 61
f 9 61 38
f 9 38 21
f 12 23 18
f 13 24 14
f 13 17 24
f 14 25 15
f 14 24 25
f 15 25 26
f 16 27 28
f 16 28 17
f 16 18 27
f 17 28 29
f 17 29 24
f 18 23 30
f 18 30 31
f 18 31 32
f 18 32 27
f 19 33 34
f 19 34 35
f 19 35 36
f 19 36 20
f 21 38 39
f 21 39 40
f 21 40 41
f 21 41 42
f 21 42 37
f 23 43 30
f 24 29 44
f 24 44 25
f 25 45 26
f 25 44 45
f 26 45 46
f 27 32 28
f 28 32 47
f 28 47 48
f 28 48 49
f 28 49 29
f 29 49 50
f 29 50 51
f 29 51 44
f 30 43 52
f 30 52 53
f 30 53 31
f 31 53 32
f 32 53 54
f 32 54 55
f 32 55 47
f 33 56 34
f 34 56 58
f 34 58 57
f 37 42 60
f 37 60 59
f 38 61 39
f 39 61 62
f 44 51 63
f 44 63 64
f 44 64 45
f 45 65 66
f 45 66 46
f 45 64 67
f 45 67 65
f 47 55 68
f 47 68 48
f 48 68 69
f 48 69 70
f 48 70 49
f 49 71 72
f 49 72 73
f 49 73 50
f 49 70 74
f 49 74 75
f 49 75 71
f 50 73 51
f 51 73 63
f 52 76 53
f 53 76 77
f 53 77 78
f 53 78 54
f 54 78 79
f 54 79 55
f 55 80 68
f 55 79 81
f 55 81 80
f 57 58 82
f 58 62 61
f 58 61 83
f 58 83 82
f 59 60 85
f 59 85 86
f 59 86 84
f 63 73 87
f 63 87 67
f 63 67 64
f 65 88 89
f 65 89 66
f 65 67 90
f 65 90 91
f 65 91 88
f 67 87 92
f 67 92 90
f 68 80 93
f 68 93 69
f 69 93 94
f 69 94 95
f 69 95 96
f 69 96 70
f 70 96 74
f 71 75 72
f 72 75 73
f 73 75 97
f 73 97 98
f 73 98 99
f 73 99 87
f 74 96 100
f 74 100 75
f 75 100 97
f 76 101 77
f 77 101 102
f 77 102 78
f 78 103 104
f 78 104 105
f 78 105 106
f 78 106 79
f 78 102 107
f 78 107 108
f 78 108 103
f 79 106 105
f 79 105 109
f 79 109 81
f 80 81 110
f 80 110 111
f 80 111 93
f 81 109 112
f 81 112 110
f 84 86 113
f 86 114 113
f 87 99 115
f 87 115 116
f 87 116 92
f 88 117 118
f 88 118 119
f 88 119 120
f 88 120 89
f 88 91 121
f 88 121 117
f 90 92 122
f 90 122 123
f 90 123 121
f 90 121 91
f 92 124 122
f 92 116 125
f 92 125 124
f 93 126 94
f 93 111 127
f 93 127 128
f 93 128 129
f 93 129 130
f 93 130 131
f 93 131 126
f 94 126 95
f 95 126 132
f 95 132 98
f 95 98 133
f 95 133 96
f 96 133 100
f 97 100 133
f 97 133 98
f 98 132 134
f 98 134 135
f 98 135 99
f 99 135 115
f 101 136 102
f 102 136 137
f 102 137 107
f 103 138 104
f 103 108 139
f 103 139 138
f 104 138 140
f 104 140 141
f 104 141 105
f 105 142 109
f 105 141 143
f 105 143 144
f 105 144 142
f 107 137 145
f 107 145 146
f 107 146 139
f 107 139 108
f 109 142 112
f 110 112 147
f 110 147 111
f 111 147 127
f 112 142 147
f 113 114 148
f 114 149 148
f 115 135 150
f 115 150 151
f 115 151 116
f 116 151 125
f 117 152 118
f 117 121 153
f 117 153 152
f 118 152 154
f 121 123 153
f 122 124 155
f 122 155 123
f 123 155 153
f 124 156 157
f 124 157 155
f 124 125 158
f 124 158 159
f 124 159 156
f 125 151 160
f 125 160 158
f 126 131 132
f 127 147 129
f 127 129 128
f 129 147 161
f 129 161 162
f 129 162 163
f 129 163 130
f 130 164 131
f 130 163 164
f 131 164 165
f 131 165 166
f 131 166 167
f 131 167 132
f 132 167 134
f 134 168 135
f 134 167 169
f 134 169 168
f 135 168 170
f 135 170 150
f 138 171 140
f 138 139 172
f 138 172 171
f 139 146 173
f 139 173 174
f 139 174 172
f 140 171 141
f 141 171 143
f 142 144 147
f 143 175 144
f 143 171 176
f 143 176 175
f 144 177 178
f 144 178 179
f 144 179 147
f 144 175 180
f 144 180 177
f 147 179 181
f 147 181 161
f 148 149 182
f 149 183 182
f 150 170 184
f 150 184 185
f 150 185 160
f 150 160 151
f 152 186 187
f 152 187 188
f 152 188 154
f 152 153 157
f 152 157 189
f 152 189 186
f 153 155 157
f 156 190 157
f 156 159 191
f 156 191 192
f 156 192 190
f 157 190 193
f 157 193 189
f 158 191 159
f 158 160 194
f 158 194 195
f 158 195 191
f 160 185 194
f 161 166 162
f 161 181 166
f 162 166 165
f 162 165 163
f 163 165 164
f 166 196 167
f 166 181 196
f 167 196 169
f 168 197 170
f 168 169 198
f 168 198 197
f 169 196 199
f 169 199 200
f 169 200 198
f 170 197 184
f 171 172 176
f 172 174 176
f 173 201 174
f 174 201 202
f 174 202 176
f 175 176 203
f 175 203 180
f 176 202 204
f 176 204 203
f 177 180 178
f 178 181 179
f 178 180 205
f 178 205 181
f 180 203 206
f 180 206 207
f 180 207 208
f 180 208 205
f 181 209 210
f 181 210 196
f 181 205 211
f 181 211 208
f 181 208 212
f 181 212 209
f 182 183 213
f 182 213 214
f 184 197 215
f 184 215 216
f 184 216 185
f 185 216 194
f 186 217 218
f 186 218 187
f 186 189 219
f 186 219 217
f 189 193 219
f 190 220 221
f 190 221 193
f 190 192 222
f 190 222 220
f 191 223 224
f 191 224 192
f 191 195 223
f 192 224 222
f 193 221 219
f 194 216 225
f 194 225 226
f 194 226 227
f 194 227 195
f 195 227 228
f 195 228 229
f 195 229 230
f 195 230 223
f 196 210 231
f 196 231 232
f 196 232 199
f 197 198 233
f 197 233 215
f 198 200 233
f 199 232 200
f 200 225 233
f 200 232 234
f 200 234 235
f 200 235 236
f 200 236 225
f 203 204 237
f 203 237 206
f 205 208 211
f 206 238 208
f 206 208 207
f 206 237 239
f 206 239 240
f 206 240 238
f 208 241 242
f 208 242 212
f 208 238 243
f 208 243 241
f 209 231 210
f 209 212 242
f 209 242 231
f 213 244 245
f 213 245 214
f 215 233 225
f 215 225 216
f 217 246 247
f 217 247 248
f 217 248 249
f 217 249 218
f 217 219 250
f 217 250 246
f 219 221 250
f 220 251 221
f 220 222 251
f 221 252 250
f 221 251 252
f 222 224 223
f 222 223 253
f 222 253 251
f 223 230 253
f 225 254 226
f 225 236 255
f 225 255 256
f 225 256 254
f 226 254 227
f 227 254 228
f 228 257 258
f 228 258 259
f 228 259 229
f 228 254 257
f 229 259 230
f 230 259 253
f 231 242 260
f 231 260 232
f 232 260 261
f 232 261 262
f 232 262 235
f 232 235 234
f 235 262 263
f 235 263 236
f 236 263 255
f 238 240 264
f 238 264 265
f 238 265 243
f 241 243 266
f 241 266 267
f 241 267 268
f 241 268 242
f 242 268 260
f 243 265 266
f 244 269 245
f 245 269 270
f 246 271 247
f 246 250 272
f 246 272 271
f 250 252 272
f 251 253 252
f 252 253 272
f 253 259 258
f 253 258 273
f 253 273 274
f 253 274 272
f 254 275 257
f 254 256 276
f 254 276 275
f 255 263 277
f 255 277 278
f 255 278 256
f 256 278 276
f 257 275 258
f 258 275 273
f 260 279 262
f 260 262 261
f 260 268 279
f 262 279 280
f 262 280 263
f 263 280 277
f 267 281 268
f 268 282 279
f 268 281 283
f 268 283 282
f 269 284 270
f 270 284 286
f 270 286 285
f 271 272 287
f 272 274 288
f 272 288 289
f 272 289 307
f 272 307 290
f 272 290 287
f 273 275 276
f 273 276 291
f 273 291 274
f 274 291 292
f 274 292 293
f 274 293 294
f 274 294 288
f 276 278 292
f 276 292 291
f 277 280 295
f 277 295 296
f 277 296 297
f 277 297 298
f 277 298 278
f 278 298 299
f 278 299 292
f 279 282 280
f 280 282 300
f 280 300 301
f 280 301 295
f 282 283 302
f 282 302 303
f 282 303 300
f 285 288 304
f 285 286 305
f 285 305 288
f 286 306 290
f 286 290 307
f 286 307 305
f 287 290 306
f 288 294 308
f 288 308 304
f 288 305 289
f 289 305 307
f 292 299 293
f 293 299 309
f 293 309 294
f 294 309 310
f 294 310 311
f 294 311 312
f 294 312 313
f 294 313 314
f 294 314 308
f 295 301 296
f 297 315 298
f 298 315 299
f 299 315 316
f 299 316 310
f 299 310 309
f 300 303 317
f 300 317 301
f 308 314 318
f 310 316 311
f 311 316 312
f 313 318 314

