# https://github.com/mikedh/trimesh
v 0.00589623 0.00802891 0.01107906
v 0.00589623 0.00798332 0.01061308
v 0.00060823 0.00802891 0.01107906
v 0.00589623 0.00802419 0.01174050
v 0.00655812 0.00800690 0.01174050
v 0.00655812 0.00801005 0.01107906
v 0.00655812 0.00797547 0.01062841
v 0.00589623 0.00797389 0.01060478
v 0.00060823 0.00798332 0.01061532
v 0.00976971 0.00732787 0.01010111
v 0.00591224 0.00797389 0.01060478
v -0.00005366 0.00797389 0.01064342
v -0.00005366 0.00800690 0.01107906
v -0.00005366 0.00800376 0.01174050
v 0.00060823 0.00802419 0.01174050
v 0.00589623 0.00798018 0.01213270
v 0.00655812 0.00797075 0.01211960
v 0.00692821 0.00795503 0.01209501
v 0.00695312 0.00796446 0.01174050
v 0.01018606 0.00763281 0.01107906
v 0.01018606 0.00764067 0.01066354
v 0.00693532 0.00795660 0.01067983
v 0.01018606 0.00764067 0.01060478
v 0.00060645 0.00797075 0.01060478
v 0.00709724 0.00736874 0.01010111
v 0.00976971 -0.00735931 0.01010111
v 0.00780361 0.00735931 0.01010111
v -0.00005366 0.00760609 0.01033746
v -0.00137744 0.00757465 0.01044349
v -0.00203933 0.00750392 0.01045371
v -0.00052695 0.00795503 0.01069708
v -0.00059634 0.00796289 0.01107906
v -0.00058033 0.00796132 0.01174050
v -0.00050560 0.00795189 0.01209181
v -0.00005366 0.00796918 0.01211768
v 0.00060823 0.00798018 0.01213270
v 0.00589623 0.00769254 0.01246357
v 0.00655812 0.00768153 0.01245048
v 0.01018606 0.00732001 0.01233806
v 0.01018606 0.00743161 0.01220232
v 0.01018606 0.00751806 0.01199281
v 0.01018606 0.00758880 0.01174050
v 0.01018606 0.00762338 0.01134223
v 0.01018606 -0.00763909 0.01060478
v 0.00060645 0.00760609 0.01030935
v 0.00683924 0.00731058 0.01010111
v -0.00137744 0.00694592 0.01013752
v -0.00203933 0.00694592 0.01014774
v 0.00721645 -0.00735459 0.01010111
v 0.00655812 -0.00797547 0.01062841
v 0.00589623 -0.00798332 0.01061308
v 0.00589801 -0.00797389 0.01060478
v 0.00587843 -0.00797389 0.01060478
v 0.00060645 -0.00797075 0.01060478
v 0.00060645 -0.00760609 0.01030935
v -0.00270122 0.00694592 0.01022120
v -0.00270122 0.00739232 0.01052685
v -0.00203933 0.00773026 0.01107906
v -0.00137744 0.00787330 0.01107906
v -0.00092729 0.00792517 0.01107906
v -0.00091127 0.00792202 0.01174050
v -0.00137744 0.00786387 0.01174050
v -0.00203933 0.00771769 0.01174050
v -0.00270122 0.00738446 0.01221094
v -0.00203933 0.00749134 0.01233007
v -0.00139168 0.00751806 0.01246134
v -0.00162120 0.00726500 0.01272163
v -0.00072089 0.00770197 0.01234828
v -0.00071555 0.00732158 0.01277752
v -0.00005366 0.00768153 0.01244856
v 0.00060823 0.00769254 0.01246357
v 0.00589623 0.00736088 0.01281681
v 0.00655812 0.00734988 0.01280467
v 0.01018606 0.00692863 0.01272706
v 0.01018606 -0.00763281 0.01107906
v 0.00655812 -0.00800690 0.01174050
v 0.00655812 -0.00801005 0.01107906
v 0.00693532 -0.00795660 0.01067983
v 0.00658837 0.00694592 0.01010111
v -0.00534878 0.00429896 0.01013625
v -0.00402323 0.00562244 0.01013625
v -0.00270122 0.00628418 0.01013625
v -0.00336311 0.00628418 0.01014168
v 0.00686593 -0.00729958 0.01010111
v -0.00203933 -0.00694592 0.01014774
v -0.00137744 -0.00694592 0.01013752
v 0.00589623 -0.00802891 0.01107906
v 0.00060823 -0.00802891 0.01107906
v 0.00060823 -0.00798332 0.01061532
v -0.00005366 -0.00760609 0.01033746
v -0.00005366 -0.00797389 0.01064342
v -0.00468511 0.00562244 0.01016499
v -0.00402323 0.00628418 0.01024707
v -0.00335244 0.00697735 0.01044509
v -0.00298235 0.00734202 0.01060478
v -0.00312469 0.00731530 0.01064438
v -0.00270122 0.00750863 0.01107906
v -0.00270122 0.00750077 0.01174050
v -0.00311757 0.00731215 0.01212152
v -0.00270122 0.00708581 0.01254182
v -0.00203933 0.00720213 0.01266095
v -0.00139168 0.00700565 0.01297905
v -0.00118172 0.00729486 0.01275006
v -0.00203933 0.00687047 0.01296756
v -0.00071555 0.00694592 0.01308828
v -0.00005366 0.00735145 0.01280659
v 0.00060823 0.00736088 0.01281681
v 0.00589623 0.00694592 0.01313108
v 0.00655812 0.00694592 0.01311511
v 0.01018606 0.00676987 0.01286408
v 0.01018606 -0.00759037 0.01174050
v 0.00692821 -0.00795503 0.01209501
v 0.00695312 -0.00796446 0.01174050
v 0.00589623 -0.00802419 0.01174050
v 0.00655812 -0.00797075 0.01211960
v 0.00658303 0.00679659 0.01010111
v -0.00667078 0.00165199 0.01013625
v -0.00667078 0.00231373 0.01013880
v -0.00600889 0.00363721 0.01013880
v -0.00534878 0.00496070 0.01016499
v 0.00663107 -0.00702294 0.01010111
v -0.00270122 -0.00628418 0.01013625
v -0.00402323 -0.00562244 0.01013625
v -0.00534878 -0.00429896 0.01013625
v -0.00203933 -0.00750392 0.01045371
v -0.00270122 -0.00694592 0.01022120
v -0.00336311 -0.00628418 0.01014168
v 0.00060823 -0.00802419 0.01174050
v -0.00005366 -0.00800376 0.01174050
v -0.00005366 -0.00800690 0.01107906
v -0.00137744 -0.00757465 0.01044349
v -0.00052695 -0.00795503 0.01069708
v -0.00534522 0.00561929 0.01042720
v -0.00464241 0.00627475 0.01048820
v -0.00402323 0.00675415 0.01055272
v -0.00316917 0.00724928 0.01060478
v -0.00350190 0.00718955 0.01107906
v -0.00317095 0.00733573 0.01107906
v -0.00416913 0.00671014 0.01060478
v -0.00439153 0.00663941 0.01068494
v -0.00316739 0.00733259 0.01174050
v -0.00402323 0.00674629 0.01221510
v -0.00334888 0.00693963 0.01239938
v -0.00313715 0.00667085 0.01278455
v -0.00349834 0.00718326 0.01174050
v -0.00438798 0.00663627 0.01209852
v -0.00270122 0.00675573 0.01286535
v -0.00203933 0.00628418 0.01328310
v -0.00270122 0.00628418 0.01317899
v -0.00137744 0.00628418 0.01334315
v -0.00005366 0.00694592 0.01312054
v 0.00060823 0.00694592 0.01313108
v 0.00589623 0.00628418 0.01336231
v 0.00655812 0.00628418 0.01335848
v 0.01018606 0.00628418 0.01317643
v 0.01018606 0.00655610 0.01302536
v 0.01018606 -0.00743318 0.01220360
v 0.00655812 -0.00768153 0.01245048
v 0.00589623 -0.00798018 0.01213270
v 0.00589623 -0.00769254 0.01246357
v 0.00656701 0.00614271 0.01010111
v -0.00667078 -0.00165199 0.01013625
v -0.00733267 0.00032851 0.01015828
v 0.00655278 0.00548569 0.01010111
v 0.00654210 0.00482866 0.01010111
v 0.00653321 0.00417007 0.01010111
v 0.00652787 0.00363721 0.01010111
v -0.00667078 0.00297705 0.01015541
v -0.00600889 0.00429896 0.01019469
v -0.00600534 0.00494341 0.01044860
v 0.00660972 -0.00641149 0.01010111
v -0.00468511 -0.00562244 0.01016499
v -0.00534878 -0.00496070 0.01016499
v -0.00600889 -0.00363721 0.01013880
v -0.00667078 -0.00231373 0.01013880
v -0.00270122 -0.00739232 0.01052685
v -0.00335244 -0.00697735 0.01044509
v -0.00402323 -0.00628418 0.01024707
v 0.00060823 -0.00798018 0.01213270
v -0.00005366 -0.00796918 0.01211768
v -0.00050560 -0.00795189 0.01209181
v -0.00058033 -0.00796132 0.01174050
v -0.00059634 -0.00796289 0.01107906
v -0.00092729 -0.00792517 0.01107906
v -0.00137744 -0.00787330 0.01107906
v -0.00203933 -0.00773026 0.01107906
v -0.00260692 -0.00744104 0.01060478
v -0.00512104 0.00604840 0.01058274
v -0.00578293 0.00539609 0.01058274
v -0.00402323 0.00689562 0.01107906
v -0.00441111 0.00665198 0.01107906
v -0.00512282 0.00605155 0.01060478
v -0.00517264 0.00609713 0.01107906
v -0.00474205 0.00642721 0.01107906
v -0.00402323 0.00641307 0.01254597
v -0.00357841 0.00654982 0.01267660
v -0.00402323 0.00608298 0.01284236
v -0.00335955 0.00631090 0.01296788
v -0.00402323 0.00688619 0.01174050
v -0.00440755 0.00664884 0.01174050
v -0.00473849 0.00642407 0.01174050
v -0.00516908 0.00609241 0.01174050
v -0.00511570 0.00604369 0.01216942
v -0.00460327 0.00622759 0.01235435
v -0.00437730 0.00596981 0.01274654
v -0.00336134 0.00562401 0.01330291
v -0.00402323 0.00562401 0.01313843
v -0.00071555 0.00628418 0.01335912
v -0.00270122 0.00562401 0.01336199
v 0.00060823 0.00628418 0.01336231
v -0.00005366 0.00628418 0.01336199
v 0.00722001 0.00562401 0.01336391
v 0.01018606 0.00527821 0.01336359
v 0.01018606 0.00562401 0.01336039
v 0.01018606 0.00593995 0.01330227
v 0.01018606 -0.00712511 0.01252202
v 0.00655812 -0.00734988 0.01280467
v 0.00589623 -0.00736088 0.01281681
v 0.00060823 -0.00769254 0.01246357
v -0.00733267 -0.00032851 0.01015828
v 0.00655812 -0.00429896 0.01010111
v 0.00656879 -0.00502357 0.01010111
v -0.00782731 0.00032851 0.01046425
v -0.00733267 0.00099025 0.01018128
v -0.00733267 0.00165199 0.01025250
v -0.00720635 0.00297705 0.01046138
v -0.00672238 0.00368123 0.01039622
v -0.00653022 0.00429896 0.01050066
v -0.00641279 0.00466519 0.01060478
v -0.00639678 0.00471392 0.01061883
v -0.00464241 -0.00627475 0.01048820
v -0.00534522 -0.00561929 0.01042720
v -0.00600534 -0.00494341 0.01044860
v -0.00600889 -0.00429896 0.01019469
v -0.00667078 -0.00297705 0.01015541
v -0.00298235 -0.00734202 0.01060478
v -0.00316917 -0.00724928 0.01060478
v -0.00402323 -0.00675415 0.01055272
v -0.00005366 -0.00768153 0.01244856
v -0.00091127 -0.00792202 0.01174050
v -0.00071555 -0.00732158 0.01277752
v -0.00072089 -0.00770197 0.01234828
v -0.00162120 -0.00726500 0.01272163
v -0.00139168 -0.00751806 0.01246134
v -0.00203933 -0.00749134 0.01233007
v -0.00270122 -0.00738446 0.01221094
v -0.00203933 -0.00771769 0.01174050
v -0.00137744 -0.00786387 0.01174050
v -0.00270122 -0.00750077 0.01174050
v -0.00270122 -0.00750863 0.01107906
v -0.00312469 -0.00731530 0.01064438
v -0.00616547 0.00508487 0.01107906
v -0.00578471 0.00539924 0.01060478
v -0.00550358 0.00577962 0.01107906
v -0.00550002 0.00577648 0.01174050
v -0.00463352 0.00558786 0.01287398
v -0.00577759 0.00539138 0.01216942
v -0.00531142 0.00558786 0.01239012
v -0.00481856 0.00578591 0.01261049
v -0.00468511 0.00496227 0.01319559
v -0.00402323 0.00496227 0.01334443
v -0.00336134 0.00496227 0.01336391
v -0.00203933 0.00562401 0.01336391
v 0.01018606 0.00496227 0.01336391
v 0.01018606 -0.00676830 0.01286280
v 0.00655812 -0.00694592 0.01311511
v 0.00589623 -0.00694592 0.01313108
v 0.00060823 -0.00736088 0.01281681
v -0.00005366 -0.00735145 0.01280659
v -0.00733267 -0.00099025 0.01018128
v -0.00782731 -0.00032851 0.01046425
v -0.00799101 0.00033008 0.01107906
v -0.00779173 0.00099025 0.01048725
v -0.00774191 0.00165199 0.01055847
v -0.00772056 0.00184690 0.01060478
v -0.00769387 0.00207482 0.01065875
v -0.00709959 0.00348632 0.01056613
v -0.00710493 0.00349418 0.01060478
v -0.00696436 0.00390914 0.01107906
v -0.00672060 0.00430053 0.01107906
v -0.00642525 0.00475479 0.01107906
v -0.00416913 -0.00671014 0.01060478
v -0.00512104 -0.00604840 0.01058274
v -0.00578293 -0.00539609 0.01058274
v -0.00639678 -0.00471392 0.01061883
v -0.00641279 -0.00466519 0.01060478
v -0.00653022 -0.00429896 0.01050066
v -0.00672238 -0.00368123 0.01039622
v -0.00720635 -0.00297705 0.01046138
v -0.00733267 -0.00165199 0.01025250
v -0.00071555 -0.00694592 0.01308828
v -0.00139168 -0.00700565 0.01297905
v -0.00118172 -0.00729486 0.01275006
v -0.00203933 -0.00687047 0.01296756
v -0.00203933 -0.00720213 0.01266095
v -0.00270122 -0.00708581 0.01254182
v -0.00311757 -0.00731215 0.01212152
v -0.00316739 -0.00733259 0.01174050
v -0.00317095 -0.00733573 0.01107906
v -0.00350190 -0.00718955 0.01107906
v -0.00439153 -0.00663941 0.01068494
v -0.00616191 0.00508173 0.01174050
v -0.00583453 0.00544953 0.01107906
v -0.00642346 0.00475007 0.01174050
v -0.00583097 0.00544482 0.01174050
v -0.00506766 0.00534422 0.01276954
v -0.00531142 0.00492612 0.01288803
v -0.00550892 0.00512417 0.01261049
v -0.00639322 0.00470763 0.01213876
v -0.00596975 0.00491668 0.01237479
v -0.00534700 0.00430053 0.01317643
v -0.00468511 0.00430053 0.01334443
v -0.00468511 0.00363879 0.01336391
v 0.01018606 -0.00496227 0.01336391
v 0.01018606 -0.00628418 0.01317515
v 0.00655812 -0.00628418 0.01335848
v 0.00589623 -0.00628418 0.01336231
v 0.00060823 -0.00694592 0.01313108
v -0.00005366 -0.00694592 0.01312054
v -0.00779173 -0.00099025 0.01048725
v -0.00799101 -0.00033008 0.01107906
v -0.00798033 0.00033008 0.01174050
v -0.00790916 0.00099182 0.01174050
v -0.00791628 0.00099182 0.01107906
v -0.00781842 0.00165357 0.01107906
v -0.00770988 0.00212040 0.01107906
v -0.00759423 0.00245205 0.01107906
v -0.00741096 0.00297705 0.01107906
v -0.00714763 0.00357906 0.01107906
v -0.00714407 0.00357277 0.01174050
v -0.00695903 0.00390443 0.01174050
v -0.00671171 0.00430053 0.01174050
v -0.00510502 -0.00606569 0.01060478
v -0.00512282 -0.00605155 0.01060478
v -0.00578471 -0.00539924 0.01060478
v -0.00580072 -0.00538195 0.01060478
v -0.00642525 -0.00475479 0.01107906
v -0.00672060 -0.00430053 0.01107906
v -0.00696436 -0.00390914 0.01107906
v -0.00709069 -0.00351933 0.01060478
v -0.00709959 -0.00348632 0.01056613
v -0.00616547 -0.00508487 0.01107906
v -0.00769387 -0.00207482 0.01065875
v -0.00772056 -0.00184690 0.01060478
v -0.00774191 -0.00165199 0.01055847
v -0.00137744 -0.00628418 0.01334315
v -0.00203933 -0.00628418 0.01328310
v -0.00270122 -0.00628418 0.01317899
v -0.00270122 -0.00675573 0.01286535
v -0.00313715 -0.00667085 0.01278455
v -0.00334888 -0.00693963 0.01239938
v -0.00402323 -0.00674629 0.01221510
v -0.00438798 -0.00663627 0.01209852
v -0.00349834 -0.00718326 0.01174050
v -0.00402323 -0.00689562 0.01107906
v -0.00441111 -0.00665198 0.01107906
v -0.00474205 -0.00642721 0.01107906
v -0.00517264 -0.00609713 0.01107906
v -0.00572243 0.00468248 0.01276954
v -0.00618326 0.00430053 0.01259771
v -0.00709247 0.00348160 0.01219050
v -0.00652132 0.00430053 0.01226683
v -0.00585232 0.00430053 0.01287973
v -0.00605515 0.00367494 0.01300876
v -0.00600889 0.00297705 0.01324829
v -0.00534700 0.00363879 0.01332494
v -0.00534700 0.00297705 0.01336327
v -0.00534700 0.00231531 0.01336391
v 0.00722001 -0.00562401 0.01336391
v 0.01018606 -0.00562401 0.01336071
v 0.00060823 -0.00628418 0.01336231
v -0.00005366 -0.00628418 0.01336199
v -0.00071555 -0.00628418 0.01335912
v -0.00791628 -0.00099182 0.01107906
v -0.00790916 -0.00099182 0.01174050
v -0.00798033 -0.00033008 0.01174050
v -0.00781486 0.00033008 0.01227450
v -0.00778105 0.00099182 0.01223585
v -0.00773479 0.00165357 0.01217453
v -0.00769209 0.00206696 0.01211289
v -0.00781308 0.00165357 0.01174050
v -0.00770810 0.00211568 0.01174050
v -0.00740029 0.00297705 0.01174050
v -0.00550358 -0.00577962 0.01107906
v -0.00583453 -0.00544953 0.01107906
v -0.00642346 -0.00475007 0.01174050
v -0.00671171 -0.00430053 0.01174050
v -0.00695903 -0.00390443 0.01174050
v -0.00714407 -0.00357277 0.01174050
v -0.00714763 -0.00357906 0.01107906
v -0.00710493 -0.00349418 0.01060478
v -0.00616191 -0.00508173 0.01174050
v -0.00759423 -0.00245205 0.01107906
v -0.00770988 -0.00212040 0.01107906
v -0.00781842 -0.00165357 0.01107906
v -0.00741096 -0.00297705 0.01107906
v -0.00270122 -0.00562401 0.01336199
v -0.00336134 -0.00562401 0.01330291
v -0.00402323 -0.00562401 0.01313843
v -0.00335955 -0.00631090 0.01296788
v -0.00402323 -0.00608298 0.01284236
v -0.00357841 -0.00654982 0.01267660
v -0.00402323 -0.00641307 0.01254597
v -0.00460327 -0.00622759 0.01235435
v -0.00511570 -0.00604369 0.01216942
v -0.00516908 -0.00609241 0.01174050
v -0.00473849 -0.00642407 0.01174050
v -0.00440755 -0.00664884 0.01174050
v -0.00402323 -0.00688619 0.01174050
v -0.00437730 -0.00596981 0.01274654
v -0.00550002 -0.00577648 0.01174050
v -0.00670637 0.00370009 0.01244824
v -0.00630781 0.00391857 0.01270566
v -0.00719389 0.00297705 0.01230484
v -0.00689142 0.00297705 0.01263572
v -0.00644304 0.00347846 0.01282384
v -0.00656047 0.00297705 0.01293338
v -0.00600889 0.00231531 0.01333676
v -0.00671883 0.00233102 0.01299087
v -0.00667078 0.00165357 0.01315503
v -0.00600889 0.00165357 0.01336103
v -0.00534700 -0.00231531 0.01336391
v -0.00203933 -0.00562401 0.01336391
v -0.00781308 -0.00165357 0.01174050
v -0.00769209 -0.00206696 0.01211289
v -0.00773479 -0.00165357 0.01217453
v -0.00778105 -0.00099182 0.01223585
v -0.00781486 -0.00033008 0.01227450
v -0.00753551 0.00033008 0.01260538
v -0.00749815 0.00099182 0.01256673
v -0.00744121 0.00165357 0.01250541
v -0.00704799 0.00212040 0.01277816
v -0.00697148 0.00256208 0.01270471
v -0.00583097 -0.00544482 0.01174050
v -0.00639322 -0.00470763 0.01213876
v -0.00709247 -0.00348160 0.01219050
v -0.00740029 -0.00297705 0.01174050
v -0.00577759 -0.00539138 0.01216942
v -0.00770810 -0.00211568 0.01174050
v -0.00336134 -0.00496227 0.01336391
v -0.00402323 -0.00496227 0.01334443
v -0.00468511 -0.00496227 0.01319559
v -0.00463352 -0.00558786 0.01287398
v -0.00481856 -0.00578591 0.01261049
v -0.00531142 -0.00558786 0.01239012
v -0.00667078 0.00099182 0.01321444
v -0.00667078 0.00033008 0.01324861
v -0.00711027 0.00165357 0.01284076
v -0.00716720 0.00099182 0.01289921
v -0.00720457 0.00033008 0.01293562
v -0.00600889 -0.00165357 0.01336103
v -0.00667078 -0.00033008 0.01324925
v -0.00534700 -0.00297705 0.01336327
v -0.00468511 -0.00363879 0.01336391
v -0.00719389 -0.00297705 0.01230484
v -0.00689142 -0.00297705 0.01263572
v -0.00697148 -0.00256208 0.01270471
v -0.00704799 -0.00212040 0.01277816
v -0.00744121 -0.00165357 0.01250541
v -0.00749815 -0.00099182 0.01256673
v -0.00753551 -0.00033008 0.01260538
v -0.00596975 -0.00491668 0.01237479
v -0.00572243 -0.00468248 0.01276954
v -0.00618326 -0.00430053 0.01259771
v -0.00652132 -0.00430053 0.01226683
v -0.00670637 -0.00370009 0.01244824
v -0.00644304 -0.00347846 0.01282384
v -0.00550892 -0.00512417 0.01261049
v -0.00468511 -0.00430053 0.01334443
v -0.00534700 -0.00430053 0.01317643
v -0.00531142 -0.00492612 0.01288803
v -0.00506766 -0.00534422 0.01276954
v -0.00720457 -0.00033008 0.01293562
v -0.00600889 -0.00231531 0.01333676
v -0.00667078 -0.00099182 0.01321476
v -0.00534700 -0.00363879 0.01332494
v -0.00656047 -0.00297705 0.01293338
v -0.00671883 -0.00233102 0.01299087
v -0.00711027 -0.00165357 0.01284076
v -0.00716720 -0.00099182 0.01289921
v -0.00585232 -0.00430053 0.01287973
v -0.00630781 -0.00391857 0.01270566
v -0.00605515 -0.00367494 0.01300876
v -0.00600889 -0.00297705 0.01324829
v -0.00667078 -0.00165357 0.01315503
f 1 2 3
f 1 3 15
f 1 15 4
f 1 4 5
f 1 5 6
f 1 6 7
f 1 7 2
f 2 8 9
f 2 9 3
f 2 7 10
f 2 10 11
f 2 11 8
f 3 9 12
f 3 12 13
f 3 13 14
f 3 14 15
f 4 15 36
f 4 36 16
f 4 16 17
f 4 17 5
f 5 17 18
f 5 18 19
f 5 19 20
f 5 20 21
f 5 21 6
f 6 22 7
f 6 21 23
f 6 23 22
f 7 22 23
f 7 23 10
f 8 24 9
f 8 11 25
f 8 25 24
f 9 24 12
f 10 26 49
f 10 49 84
f 10 84 121
f 10 121 171
f 10 171 222
f 10 222 221
f 10 221 167
f 10 167 166
f 10 166 165
f 10 165 164
f 10 164 161
f 10 161 116
f 10 116 79
f 10 79 46
f 10 46 25
f 10 25 27
f 10 27 11
f 10 23 44
f 10 44 26
f 11 27 25
f 12 28 29
f 12 29 30
f 12 30 31
f 12 31 13
f 12 24 28
f 13 31 32
f 13 32 33
f 13 33 14
f 14 33 34
f 14 34 35
f 14 35 15
f 15 35 36
f 16 36 71
f 16 71 37
f 16 37 17
f 17 37 38
f 17 38 18
f 18 38 39
f 18 39 40
f 18 40 41
f 18 41 42
f 18 42 43
f 18 43 20
f 18 20 19
f 20 43 42
f 20 42 41
f 20 41 40
f 20 40 39
f 20 39 74
f 20 74 110
f 20 110 156
f 20 156 155
f 20 155 215
f 20 215 214
f 20 214 213
f 20 213 264
f 20 264 314
f 20 314 370
f 20 370 315
f 20 315 265
f 20 265 216
f 20 216 157
f 20 157 111
f 20 111 75
f 20 75 44
f 20 44 23
f 20 23 21
f 24 45 28
f 24 25 45
f 25 46 47
f 25 47 48
f 25 48 45
f 26 44 50
f 26 50 51
f 26 51 52
f 26 52 53
f 26 53 54
f 26 54 55
f 26 55 49
f 28 45 48
f 28 48 30
f 28 30 29
f 30 48 56
f 30 56 57
f 30 57 31
f 31 57 58
f 31 58 59
f 31 59 60
f 31 60 32
f 32 60 33
f 33 60 59
f 33 59 61
f 33 61 34
f 34 61 62
f 34 62 63
f 34 63 64
f 34 64 65
f 34 65 66
f 34 66 67
f 34 67 68
f 34 68 69
f 34 69 70
f 34 70 35
f 35 70 71
f 35 71 36
f 37 71 107
f 37 107 72
f 37 72 73
f 37 73 38
f 38 73 39
f 39 73 74
f 44 75 76
f 44 76 77
f 44 77 78
f 44 78 50
f 46 79 80
f 46 80 81
f 46 81 82
f 46 82 47
f 47 82 83
f 47 83 48
f 48 83 56
f 49 55 85
f 49 85 86
f 49 86 84
f 50 77 87
f 50 87 51
f 50 78 77
f 51 87 88
f 51 88 89
f 51 89 53
f 51 53 52
f 53 89 54
f 54 90 55
f 54 89 91
f 54 91 90
f 55 90 85
f 56 83 92
f 56 92 93
f 56 93 94
f 56 94 57
f 57 94 95
f 57 95 58
f 58 63 62
f 58 62 59
f 58 95 96
f 58 96 97
f 58 97 98
f 58 98 63
f 59 62 61
f 63 98 99
f 63 99 64
f 64 99 100
f 64 100 101
f 64 101 65
f 65 101 67
f 65 67 66
f 67 102 103
f 67 103 68
f 67 101 104
f 67 104 102
f 68 103 69
f 69 103 102
f 69 102 105
f 69 105 106
f 69 106 70
f 70 106 71
f 71 106 107
f 72 107 152
f 72 152 108
f 72 108 109
f 72 109 73
f 73 109 110
f 73 110 74
f 75 111 112
f 75 112 113
f 75 113 76
f 76 114 87
f 76 87 77
f 76 113 112
f 76 112 115
f 76 115 114
f 79 116 117
f 79 117 80
f 80 117 118
f 80 118 119
f 80 119 120
f 80 120 81
f 81 83 82
f 81 120 92
f 81 92 83
f 84 86 122
f 84 122 123
f 84 123 124
f 84 124 121
f 85 125 126
f 85 126 127
f 85 127 86
f 85 90 125
f 86 127 122
f 87 114 128
f 87 128 88
f 88 128 129
f 88 129 130
f 88 130 91
f 88 91 89
f 90 91 131
f 90 131 125
f 91 130 132
f 91 132 125
f 91 125 131
f 92 120 133
f 92 133 134
f 92 134 93
f 93 135 94
f 93 134 135
f 94 135 136
f 94 136 95
f 95 136 96
f 96 137 138
f 96 138 97
f 96 136 135
f 96 135 139
f 96 139 140
f 96 140 137
f 97 138 141
f 97 141 98
f 98 141 99
f 99 142 143
f 99 143 144
f 99 144 100
f 99 141 145
f 99 145 146
f 99 146 142
f 100 144 147
f 100 147 101
f 101 147 104
f 102 104 148
f 102 148 105
f 104 147 149
f 104 149 148
f 105 148 150
f 105 150 151
f 105 151 106
f 106 151 107
f 107 151 152
f 108 152 210
f 108 210 153
f 108 153 154
f 108 154 109
f 109 154 155
f 109 155 156
f 109 156 110
f 111 157 112
f 112 158 115
f 112 157 158
f 114 115 159
f 114 159 179
f 114 179 128
f 115 158 160
f 115 160 159
f 116 161 117
f 117 162 220
f 117 220 163
f 117 163 118
f 117 161 164
f 117 164 165
f 117 165 166
f 117 166 167
f 117 167 162
f 118 163 168
f 118 168 119
f 119 168 120
f 120 168 169
f 120 169 170
f 120 170 133
f 121 124 162
f 121 162 171
f 122 127 123
f 123 172 173
f 123 173 124
f 123 127 172
f 124 173 174
f 124 174 175
f 124 175 162
f 125 132 176
f 125 176 126
f 126 176 177
f 126 177 178
f 126 178 172
f 126 172 127
f 128 179 180
f 128 180 129
f 129 180 181
f 129 181 182
f 129 182 130
f 130 182 183
f 130 183 132
f 132 183 184
f 132 184 185
f 132 185 186
f 132 186 187
f 132 187 176
f 133 188 134
f 133 170 189
f 133 189 188
f 134 139 135
f 134 188 139
f 137 190 145
f 137 145 141
f 137 141 138
f 137 140 190
f 139 188 140
f 140 191 190
f 140 188 192
f 140 192 193
f 140 193 194
f 140 194 191
f 142 195 196
f 142 196 143
f 142 146 195
f 143 196 144
f 144 196 197
f 144 197 198
f 144 198 147
f 145 190 199
f 145 199 146
f 146 200 201
f 146 201 202
f 146 202 203
f 146 203 204
f 146 204 205
f 146 205 195
f 146 199 200
f 147 198 149
f 148 149 206
f 148 206 150
f 149 198 207
f 149 207 206
f 150 208 151
f 150 206 209
f 150 209 208
f 151 208 152
f 152 208 211
f 152 211 210
f 153 210 263
f 153 263 212
f 153 212 213
f 153 213 214
f 153 214 154
f 154 214 215
f 154 215 155
f 157 216 217
f 157 217 158
f 158 217 160
f 159 160 219
f 159 219 179
f 160 218 268
f 160 268 219
f 160 217 218
f 162 175 220
f 162 167 221
f 162 221 222
f 162 222 171
f 163 220 271
f 163 271 223
f 163 223 224
f 163 224 168
f 168 224 225
f 168 225 226
f 168 226 227
f 168 227 169
f 169 227 228
f 169 228 170
f 170 228 229
f 170 229 230
f 170 230 189
f 172 178 231
f 172 231 232
f 172 232 173
f 173 232 233
f 173 233 234
f 173 234 235
f 173 235 174
f 174 235 175
f 175 235 220
f 176 236 177
f 176 187 236
f 177 236 237
f 177 237 238
f 177 238 178
f 178 238 231
f 179 219 239
f 179 239 180
f 180 239 181
f 181 240 182
f 181 239 241
f 181 241 242
f 181 242 243
f 181 243 244
f 181 244 245
f 181 245 246
f 181 246 247
f 181 247 248
f 181 248 240
f 182 240 185
f 182 185 184
f 182 184 183
f 185 240 248
f 185 248 186
f 186 248 247
f 186 247 249
f 186 249 250
f 186 250 251
f 186 251 236
f 186 236 187
f 188 189 253
f 188 253 192
f 189 230 252
f 189 252 253
f 190 191 200
f 190 200 199
f 191 194 201
f 191 201 200
f 192 253 254
f 192 254 193
f 193 202 201
f 193 201 194
f 193 254 255
f 193 255 202
f 195 205 196
f 196 205 197
f 197 207 198
f 197 205 256
f 197 256 207
f 202 255 203
f 203 255 257
f 203 257 258
f 203 258 259
f 203 259 205
f 203 205 204
f 205 259 256
f 206 207 260
f 206 260 261
f 206 261 209
f 207 256 260
f 208 209 211
f 209 261 262
f 209 262 263
f 209 263 211
f 210 211 263
f 212 264 213
f 212 263 262
f 212 262 313
f 212 313 368
f 212 368 422
f 212 422 454
f 212 454 440
f 212 440 423
f 212 423 369
f 212 369 314
f 212 314 264
f 216 265 217
f 217 266 218
f 217 265 266
f 218 267 318
f 218 318 268
f 218 266 267
f 219 268 269
f 219 269 239
f 220 270 271
f 220 235 270
f 223 271 321
f 223 321 272
f 223 272 273
f 223 273 224
f 224 273 225
f 225 273 274
f 225 274 226
f 226 274 275
f 226 275 276
f 226 276 277
f 226 277 227
f 227 277 228
f 228 277 229
f 229 277 230
f 230 277 278
f 230 278 279
f 230 279 280
f 230 280 281
f 230 281 252
f 231 238 282
f 231 282 283
f 231 283 232
f 232 284 233
f 232 283 284
f 233 284 285
f 233 285 286
f 233 286 287
f 233 287 234
f 234 287 288
f 234 288 235
f 235 288 289
f 235 289 290
f 235 290 270
f 236 251 237
f 237 251 238
f 238 251 282
f 239 269 241
f 241 291 292
f 241 292 293
f 241 293 242
f 241 269 291
f 242 293 243
f 243 293 292
f 243 292 294
f 243 294 295
f 243 295 245
f 243 245 244
f 245 295 246
f 246 296 297
f 246 297 247
f 246 295 296
f 247 297 249
f 249 297 298
f 249 298 250
f 250 298 299
f 250 299 251
f 251 299 300
f 251 300 301
f 251 301 282
f 252 302 303
f 252 303 253
f 252 281 304
f 252 304 302
f 253 303 254
f 254 303 255
f 255 303 305
f 255 305 257
f 256 259 306
f 256 306 307
f 256 307 260
f 257 308 258
f 257 305 302
f 257 302 309
f 257 309 310
f 257 310 308
f 258 308 259
f 259 308 306
f 260 307 311
f 260 311 312
f 260 312 261
f 261 312 313
f 261 313 262
f 265 315 266
f 266 316 267
f 266 315 316
f 267 317 371
f 267 371 318
f 267 316 317
f 268 318 319
f 268 319 269
f 269 319 291
f 270 290 320
f 270 320 271
f 271 320 321
f 272 321 376
f 272 376 322
f 272 322 323
f 272 323 324
f 272 324 274
f 272 274 273
f 274 324 275
f 275 324 325
f 275 325 276
f 276 325 326
f 276 326 327
f 276 327 328
f 276 328 278
f 276 278 277
f 278 328 329
f 278 329 279
f 279 329 330
f 279 330 331
f 279 331 280
f 280 331 332
f 280 332 304
f 280 304 281
f 282 301 283
f 283 301 333
f 283 333 334
f 283 334 335
f 283 335 284
f 284 335 336
f 284 336 285
f 285 337 338
f 285 338 339
f 285 339 340
f 285 340 341
f 285 341 286
f 285 336 342
f 285 342 337
f 286 341 287
f 287 341 288
f 288 341 289
f 289 343 344
f 289 344 345
f 289 345 290
f 289 341 343
f 290 345 320
f 291 346 347
f 291 347 292
f 291 319 346
f 292 347 294
f 294 347 348
f 294 348 349
f 294 349 295
f 295 349 296
f 296 349 350
f 296 350 297
f 297 350 351
f 297 351 352
f 297 352 353
f 297 353 354
f 297 354 298
f 298 354 300
f 298 300 299
f 300 354 355
f 300 355 301
f 301 355 356
f 301 356 357
f 301 357 358
f 301 358 333
f 302 304 309
f 302 305 303
f 304 332 309
f 306 308 359
f 306 359 307
f 307 359 311
f 308 310 359
f 309 360 359
f 309 359 310
f 309 332 331
f 309 331 361
f 309 361 362
f 309 362 360
f 311 359 363
f 311 363 364
f 311 364 365
f 311 365 366
f 311 366 312
f 312 366 367
f 312 367 313
f 313 367 368
f 314 369 317
f 314 317 370
f 315 370 316
f 316 370 317
f 317 369 423
f 317 423 371
f 318 371 372
f 318 372 373
f 318 373 319
f 319 373 346
f 320 345 321
f 321 374 375
f 321 375 376
f 321 345 374
f 322 376 428
f 322 428 377
f 322 377 378
f 322 378 379
f 322 379 323
f 323 379 380
f 323 380 381
f 323 381 324
f 324 381 325
f 325 381 382
f 325 382 326
f 326 382 327
f 327 382 328
f 328 382 383
f 328 383 330
f 328 330 329
f 330 361 331
f 330 383 361
f 333 358 334
f 334 358 384
f 334 384 335
f 335 385 336
f 335 384 385
f 336 385 342
f 337 342 386
f 337 386 338
f 338 386 387
f 338 387 388
f 338 388 339
f 339 388 389
f 339 389 390
f 339 390 391
f 339 391 340
f 340 391 341
f 341 391 343
f 342 385 392
f 342 392 386
f 343 393 394
f 343 394 395
f 343 395 344
f 343 391 396
f 343 396 393
f 344 395 374
f 344 374 345
f 346 373 397
f 346 397 398
f 346 398 347
f 347 398 348
f 348 398 399
f 348 399 400
f 348 400 349
f 349 400 350
f 350 400 401
f 350 401 402
f 350 402 351
f 351 402 352
f 352 403 353
f 352 402 403
f 353 404 405
f 353 405 406
f 353 406 407
f 353 407 408
f 353 408 409
f 353 409 354
f 353 403 410
f 353 410 404
f 354 409 355
f 355 409 408
f 355 408 356
f 356 408 407
f 356 407 357
f 357 407 358
f 358 407 406
f 358 406 411
f 358 411 384
f 359 360 363
f 360 362 412
f 360 412 413
f 360 413 363
f 361 383 380
f 361 380 414
f 361 414 415
f 361 415 416
f 361 416 412
f 361 412 362
f 363 413 416
f 363 416 364
f 364 416 417
f 364 417 365
f 365 418 366
f 365 417 419
f 365 419 420
f 365 420 418
f 366 418 367
f 367 418 421
f 367 421 368
f 368 421 451
f 368 451 422
f 371 423 372
f 372 423 397
f 372 397 373
f 374 395 424
f 374 424 375
f 375 424 425
f 375 425 426
f 375 426 376
f 376 426 427
f 376 427 428
f 377 428 461
f 377 461 429
f 377 429 378
f 378 429 430
f 378 430 379
f 379 430 431
f 379 431 380
f 380 431 432
f 380 432 433
f 380 433 415
f 380 415 414
f 380 383 382
f 380 382 381
f 384 411 385
f 385 411 434
f 385 434 392
f 386 392 435
f 386 435 387
f 387 435 388
f 388 436 389
f 388 435 436
f 389 436 437
f 389 437 396
f 389 396 390
f 390 396 391
f 392 434 438
f 392 438 435
f 393 396 439
f 393 439 394
f 394 439 395
f 395 439 424
f 396 437 439
f 397 440 441
f 397 441 398
f 397 423 440
f 398 441 442
f 398 442 399
f 399 442 443
f 399 443 401
f 399 401 400
f 401 443 410
f 401 410 402
f 402 410 403
f 404 410 405
f 405 444 445
f 405 445 438
f 405 438 411
f 405 411 406
f 405 410 444
f 410 443 444
f 411 438 434
f 412 416 413
f 415 433 417
f 415 417 416
f 417 433 432
f 417 432 419
f 418 420 446
f 418 446 447
f 418 447 421
f 419 432 448
f 419 448 420
f 420 448 449
f 420 449 450
f 420 450 446
f 421 447 452
f 421 452 451
f 422 451 453
f 422 453 454
f 424 439 425
f 425 439 437
f 425 437 436
f 425 436 455
f 425 455 456
f 425 456 457
f 425 457 458
f 425 458 459
f 425 459 426
f 426 459 460
f 426 460 427
f 427 460 461
f 427 461 428
f 429 461 473
f 429 473 450
f 429 450 449
f 429 449 430
f 430 449 448
f 430 448 431
f 431 448 432
f 435 438 462
f 435 462 463
f 435 463 464
f 435 464 465
f 435 465 436
f 436 465 466
f 436 466 467
f 436 467 456
f 436 456 455
f 438 445 468
f 438 468 462
f 440 454 469
f 440 469 441
f 441 469 442
f 442 469 470
f 442 470 471
f 442 471 443
f 443 471 472
f 443 472 444
f 444 472 468
f 444 468 445
f 446 450 447
f 447 450 452
f 450 473 452
f 451 474 453
f 451 452 474
f 452 473 475
f 452 475 474
f 453 474 476
f 453 476 469
f 453 469 454
f 456 467 477
f 456 477 457
f 457 477 458
f 458 477 478
f 458 478 479
f 458 479 459
f 459 479 460
f 460 479 480
f 460 480 461
f 461 480 473
f 462 468 463
f 463 468 472
f 463 472 471
f 463 471 470
f 463 470 481
f 463 481 464
f 464 481 482
f 464 482 466
f 464 466 465
f 466 482 467
f 467 482 481
f 467 481 483
f 467 483 477
f 469 476 470
f 470 476 484
f 470 484 483
f 470 483 481
f 473 480 485
f 473 485 475
f 474 484 476
f 474 475 485
f 474 485 484
f 477 483 484
f 477 484 478
f 478 484 485
f 478 485 479
f 479 485 480

