# https://github.com/mikedh/trimesh
v -0.00407341 0.00709415 -0.00914152
v -0.00407341 0.00683591 -0.00912903
v -0.00407341 0.00812576 -0.00914152
v -0.00380866 0.00709415 -0.00914152
v -0.00406677 0.00683591 -0.00912867
v -0.00407341 0.00664068 -0.00907263
v 0.00016599 0.00812576 -0.00914152
v 0.00016599 0.00802027 -0.00912546
v -0.00407341 0.00838366 -0.00912046
v -0.00406677 0.00838332 -0.00912117
v -0.00380866 0.00838332 -0.00914009
v -0.00355096 0.00838332 -0.00914152
v 0.00016599 0.00786786 -0.00909583
v -0.00407341 0.00657321 -0.00889951
v 0.00016599 0.00780963 -0.00907263
v 0.00016599 0.00773086 -0.00903943
v 0.00016599 0.00889946 -0.00914152
v -0.00407341 0.00855765 -0.00906371
v -0.00406677 0.00855902 -0.00906478
v -0.00380866 0.00860800 -0.00908334
v -0.00329284 0.00864156 -0.00912867
v -0.00303514 0.00864156 -0.00914116
v -0.00277703 0.00864156 -0.00914152
v -0.00407341 0.00663520 -0.00870570
v 0.00016599 0.00772777 -0.00897947
v 0.00016599 0.00772606 -0.00889951
v 0.00016599 0.00773428 -0.00875852
v 0.00016599 0.00905153 -0.00911832
v -0.00174539 0.00889946 -0.00914152
v -0.00407341 0.00868643 -0.00893342
v -0.00406677 0.00868814 -0.00893485
v -0.00366674 0.00876383 -0.00902266
v -0.00349452 0.00879226 -0.00904943
v -0.00329284 0.00882206 -0.00907192
v -0.00303514 0.00885597 -0.00908441
v -0.00226121 0.00889946 -0.00912796
v -0.00200309 0.00889946 -0.00913902
v -0.00407341 0.00663966 -0.00869534
v 0.00016599 0.00779559 -0.00862931
v 0.00006017 0.00915736 -0.00910190
v 0.00016599 0.00915736 -0.00910083
v -0.00019795 0.00915736 -0.00910154
v -0.00407341 0.00869191 -0.00892771
v -0.00407341 0.00879706 -0.00880457
v -0.00380866 0.00883850 -0.00886168
v -0.00356880 0.00886932 -0.00892200
v -0.00331525 0.00896556 -0.00889345
v -0.00303514 0.00898474 -0.00897447
v -0.00284176 0.00900940 -0.00900981
v -0.00266996 0.00903269 -0.00903337
v -0.00251891 0.00904948 -0.00904979
v -0.00226121 0.00907585 -0.00907156
v -0.00200309 0.00909503 -0.00908227
v -0.00174539 0.00910702 -0.00908512
v -0.00071376 0.00915736 -0.00909333
v -0.00045565 0.00915736 -0.00909797
v -0.00407341 0.00855970 -0.00624709
v 0.00016599 0.00792471 -0.00841443
v 0.00016599 0.00829118 -0.00780799
v 0.00016599 0.00834359 -0.00773089
v 0.00016599 0.00841996 -0.00761988
v 0.00006017 0.00930087 -0.00904550
v 0.00016599 0.00924230 -0.00906728
v -0.00019795 0.00930053 -0.00904479
v -0.00407341 0.00892823 -0.00862431
v -0.00405681 0.00893508 -0.00862289
v -0.00396386 0.00903715 -0.00852473
v -0.00380866 0.00896728 -0.00868678
v -0.00380866 0.00906146 -0.00855792
v -0.00355096 0.00910051 -0.00861146
v -0.00324429 0.00905256 -0.00880350
v -0.00303514 0.00908201 -0.00884562
v -0.00276416 0.00909845 -0.00891415
v -0.00251891 0.00915873 -0.00889951
v -0.00226743 0.00921799 -0.00888238
v -0.00200309 0.00922415 -0.00893485
v -0.00122958 0.00926868 -0.00901017
v -0.00105155 0.00927964 -0.00902230
v -0.00087934 0.00928923 -0.00903158
v -0.00071376 0.00929299 -0.00903658
v -0.00045565 0.00929745 -0.00904122
v -0.00407341 0.00891179 -0.00581948
v 0.00016599 0.00846141 -0.00756706
v 0.00016599 0.00852271 -0.00749103
v 0.00006017 0.00938889 -0.00889951
v 0.00016599 0.00929984 -0.00904408
v -0.00019795 0.00938787 -0.00889951
v -0.00407341 0.00895015 -0.00859397
v -0.00407341 0.00908099 -0.00841086
v -0.00405681 0.00910017 -0.00839159
v -0.00387588 0.00927142 -0.00822811
v -0.00329284 0.00926559 -0.00847797
v -0.00331525 0.00912962 -0.00866572
v -0.00315175 0.00928375 -0.00850759
v -0.00305340 0.00922449 -0.00863074
v -0.00277703 0.00924196 -0.00869891
v -0.00251891 0.00926662 -0.00873746
v -0.00235748 0.00928101 -0.00876102
v -0.00218568 0.00929505 -0.00878494
v -0.00200309 0.00930806 -0.00880564
v -0.00174539 0.00932416 -0.00883098
v -0.00148769 0.00933855 -0.00885740
v -0.00122958 0.00935190 -0.00888131
v -0.00096773 0.00934779 -0.00892129
v -0.00071376 0.00937280 -0.00889951
v -0.00045565 0.00938102 -0.00889951
v -0.00407341 0.00903509 -0.00567313
v 0.00016599 0.00857546 -0.00743749
v 0.00006017 0.00950329 -0.00869784
v 0.00016599 0.00938650 -0.00889951
v -0.00019795 0.00950260 -0.00869642
v -0.00407341 0.00909777 -0.00838623
v -0.00407341 0.00923922 -0.00817707
v -0.00407341 0.00924265 -0.00817171
v -0.00407341 0.00931320 -0.00804821
v -0.00406677 0.00931423 -0.00804964
v -0.00372151 0.00955569 -0.00775980
v -0.00355096 0.00950637 -0.00792578
v -0.00355096 0.00939985 -0.00812567
v -0.00370408 0.00929162 -0.00826345
v -0.00303514 0.00949473 -0.00816172
v -0.00305340 0.00935875 -0.00840658
v -0.00297953 0.00930121 -0.00853793
v -0.00277703 0.00931937 -0.00857006
v -0.00226743 0.00935088 -0.00866144
v -0.00277703 0.00942349 -0.00838338
v -0.00250978 0.00947829 -0.00836232
v -0.00226121 0.00948959 -0.00841372
v -0.00200309 0.00950945 -0.00844977
v -0.00200309 0.00940191 -0.00864145
v -0.00174539 0.00943479 -0.00864145
v -0.00122958 0.00948068 -0.00865394
v -0.00097188 0.00948993 -0.00867179
v -0.00146570 0.00947829 -0.00861646
v -0.00071376 0.00949507 -0.00868249
v -0.00045565 0.00949918 -0.00868963
v -0.00407341 0.00916113 -0.00557783
v 0.00016599 0.00891830 -0.00709161
v 0.00016599 0.00898098 -0.00702950
v 0.00016599 0.00903886 -0.00697275
v 0.00006017 0.00957555 -0.00856899
v 0.00016599 0.00957453 -0.00856685
v 0.00016599 0.00950192 -0.00869570
v -0.00019795 0.00957487 -0.00856756
v -0.00407341 0.00940910 -0.00786046
v -0.00406677 0.00940739 -0.00786760
v -0.00389373 0.00953240 -0.00771519
v -0.00406677 0.00957247 -0.00753886
v -0.00380824 0.00959747 -0.00762131
v -0.00355096 0.00965570 -0.00760953
v -0.00355096 0.00957418 -0.00779693
v -0.00335135 0.00952863 -0.00796719
v -0.00317914 0.00954781 -0.00800288
v -0.00303514 0.00956323 -0.00803286
v -0.00277703 0.00951973 -0.00820883
v -0.00258946 0.00953480 -0.00823739
v -0.00241724 0.00954850 -0.00826238
v -0.00226121 0.00956083 -0.00828486
v -0.00200309 0.00958035 -0.00832091
v -0.00174539 0.00952589 -0.00847975
v -0.00122958 0.00955124 -0.00852508
v -0.00097188 0.00956117 -0.00854293
v -0.00153708 0.00953685 -0.00849867
v -0.00136528 0.00954507 -0.00851366
v -0.00071376 0.00956699 -0.00855328
v -0.00045565 0.00957110 -0.00856078
v -0.00407341 0.00917757 -0.00556676
v 0.00016599 0.00907962 -0.00694991
v 0.00006017 0.00966186 -0.00838338
v 0.00016599 0.00965981 -0.00838338
v -0.00019795 0.00966015 -0.00838338
v -0.00071376 0.00964679 -0.00838338
v -0.00045565 0.00965364 -0.00838338
v -0.00407341 0.00950774 -0.00766593
v -0.00407341 0.00957144 -0.00753707
v -0.00407341 0.00957281 -0.00753422
v -0.00407341 0.00965193 -0.00734540
v -0.00380866 0.00970536 -0.00735146
v -0.00354681 0.00975879 -0.00733647
v -0.00329284 0.00969954 -0.00760953
v -0.00303514 0.00963720 -0.00786760
v -0.00277703 0.00958720 -0.00807962
v -0.00200309 0.00966837 -0.00812567
v -0.00174539 0.00959405 -0.00835090
v -0.00250978 0.00959508 -0.00814102
v -0.00226121 0.00963515 -0.00812567
v -0.00146570 0.00959200 -0.00840123
v -0.00122958 0.00961871 -0.00838338
v -0.00097188 0.00963618 -0.00838338
v -0.00407341 0.00939677 -0.00549645
v 0.00016599 0.00915771 -0.00690779
v 0.00006017 0.00975948 -0.00814601
v 0.00016599 0.00975879 -0.00814387
v -0.00019795 0.00975879 -0.00814423
v -0.00071376 0.00975331 -0.00812959
v -0.00045565 0.00975605 -0.00813709
v -0.00094739 0.00975639 -0.00809997
v -0.00407341 0.00975023 -0.00707698
v -0.00405432 0.00975468 -0.00707555
v -0.00380866 0.00977626 -0.00714801
v -0.00362980 0.00979304 -0.00719655
v -0.00345800 0.00980880 -0.00724117
v -0.00329284 0.00977489 -0.00740536
v -0.00301398 0.00975126 -0.00758562
v -0.00277703 0.00968002 -0.00786760
v -0.00200309 0.00976153 -0.00788937
v -0.00174539 0.00969440 -0.00812567
v -0.00251891 0.00971358 -0.00786760
v -0.00148769 0.00971255 -0.00812567
v -0.00122958 0.00972968 -0.00812567
v -0.00407341 0.00941527 -0.00549538
v 0.00016599 0.00927176 -0.00687673
v 0.00016599 0.00941527 -0.00684247
v 0.00006017 0.00981017 -0.00801716
v 0.00016599 0.00980948 -0.00801466
v -0.00019795 0.00980948 -0.00801537
v -0.00084531 0.00980229 -0.00799681
v -0.00071376 0.00980400 -0.00800074
v -0.00101753 0.00979749 -0.00798468
v -0.00407341 0.00976324 -0.00703986
v -0.00380866 0.00982078 -0.00701880
v -0.00407341 0.00982421 -0.00686246
v -0.00354681 0.00983996 -0.00710411
v -0.00329284 0.00988243 -0.00709411
v -0.00329284 0.00982181 -0.00727686
v -0.00291397 0.00980332 -0.00748389
v -0.00277703 0.00976633 -0.00764059
v -0.00231142 0.00979373 -0.00771590
v -0.00200309 0.00981051 -0.00776016
v -0.00174539 0.00982284 -0.00779229
v -0.00174539 0.00977352 -0.00792114
v -0.00148769 0.00983243 -0.00781656
v -0.00148769 0.00978242 -0.00794577
v -0.00251891 0.00978242 -0.00768556
v -0.00122958 0.00984099 -0.00783869
v -0.00407341 0.00964474 -0.00549823
v 0.00016599 0.00967317 -0.00684461
v 0.00006017 0.00986702 -0.00786760
v 0.00016599 0.00986531 -0.00786760
v -0.00019795 0.00986565 -0.00786760
v -0.00071376 0.00985538 -0.00786760
v -0.00094739 0.00983962 -0.00788616
v -0.00405432 0.00983517 -0.00684068
v -0.00407341 0.00983380 -0.00683354
v -0.00380866 0.00987935 -0.00683604
v -0.00355096 0.00991874 -0.00683604
v -0.00329284 0.00995093 -0.00683604
v -0.00303514 0.00991429 -0.00709411
v -0.00277703 0.00986942 -0.00735146
v -0.00301398 0.00983414 -0.00735789
v -0.00277703 0.00981359 -0.00751137
v -0.00251891 0.00983072 -0.00755635
v -0.00223963 0.00983688 -0.00762167
v -0.00200309 0.00986531 -0.00760953
v -0.00174539 0.00988689 -0.00760953
v -0.00148769 0.00990264 -0.00760953
v -0.00122958 0.00991600 -0.00760953
v -0.00407341 0.00967317 -0.00549895
v 0.00016599 0.00993107 -0.00688994
v 0.00006017 0.00994580 -0.00760953
v 0.00016599 0.00994443 -0.00760953
v -0.00019795 0.00994477 -0.00760953
v -0.00071376 0.00993655 -0.00760953
v -0.00097188 0.00992867 -0.00760953
v -0.00407341 0.00983654 -0.00682498
v -0.00406677 0.00991086 -0.00657798
v -0.00380866 0.00994614 -0.00657798
v -0.00355096 0.00997628 -0.00657798
v -0.00329284 0.01000471 -0.00657798
v -0.00303016 0.01003485 -0.00656227
v -0.00303514 0.00997628 -0.00683604
v -0.00277703 0.00994271 -0.00709411
v -0.00251891 0.00989819 -0.00735146
v -0.00226121 0.00992148 -0.00735146
v -0.00200309 0.00994169 -0.00735146
v -0.00174539 0.00995881 -0.00735146
v -0.00407341 0.00993004 -0.00556998
v 0.00016599 0.01007115 -0.00694991
v -0.00019795 0.01000436 -0.00735146
v 0.00006017 0.01000505 -0.00735146
v 0.00016599 0.01000436 -0.00735146
v -0.00071376 0.00999786 -0.00735146
v -0.00045565 0.01000128 -0.00735146
v -0.00097188 0.00999135 -0.00735146
v -0.00148769 0.00997148 -0.00735146
v -0.00122958 0.00998176 -0.00735146
v -0.00407341 0.00990949 -0.00657869
v -0.00407341 0.00991120 -0.00657155
v -0.00407341 0.00996737 -0.00632026
v -0.00380866 0.00999923 -0.00632026
v -0.00344680 0.01006293 -0.00620497
v -0.00294136 0.01006362 -0.00646554
v -0.00277703 0.00999957 -0.00683604
v -0.00251891 0.00996532 -0.00709411
v -0.00226121 0.00998347 -0.00709411
v -0.00174539 0.01001635 -0.00709411
v -0.00148437 0.01003519 -0.00707305
v -0.00407341 0.00993244 -0.00557283
v 0.00016599 0.01007115 -0.00702451
v -0.00045565 0.01007184 -0.00694741
v -0.00364931 0.01006807 -0.00591942
v -0.00407341 0.01005231 -0.00577200
v -0.00019795 0.01004683 -0.00715336
v -0.00071376 0.01004375 -0.00714872
v -0.00045565 0.01004546 -0.00715229
v 0.00006017 0.01004718 -0.00715336
v 0.00016599 0.01004683 -0.00715336
v -0.00097188 0.01004033 -0.00713623
v -0.00122958 0.01003587 -0.00711588
v -0.00122958 0.01006533 -0.00698703
v -0.00139640 0.01006190 -0.00697275
v -0.00407341 0.01001806 -0.00605541
v -0.00406677 0.01001772 -0.00606220
v -0.00383439 0.01004615 -0.00606398
v -0.00376550 0.01006807 -0.00597939
v -0.00277703 0.01006807 -0.00649374
v -0.00226121 0.01006464 -0.00672646
v -0.00239027 0.01006019 -0.00670719
v -0.00249318 0.01002937 -0.00681034
v -0.00226121 0.01003622 -0.00685567
v -0.00045565 0.01007184 -0.00702344
v -0.00071376 0.01007184 -0.00694562
v -0.00376550 0.01006807 -0.00591942
v -0.00071376 0.01007184 -0.00701951
v -0.00097188 0.01006944 -0.00700702
v -0.00200309 0.01006978 -0.00675787
f 1 2 6
f 1 6 14
f 1 14 24
f 1 24 38
f 1 38 57
f 1 57 82
f 1 82 107
f 1 107 137
f 1 137 167
f 1 167 190
f 1 190 211
f 1 211 236
f 1 236 258
f 1 258 277
f 1 277 298
f 1 298 302
f 1 302 312
f 1 312 289
f 1 289 288
f 1 288 287
f 1 287 265
f 1 265 244
f 1 244 222
f 1 222 220
f 1 220 198
f 1 198 177
f 1 177 176
f 1 176 175
f 1 175 174
f 1 174 145
f 1 145 115
f 1 115 114
f 1 114 113
f 1 113 112
f 1 112 89
f 1 89 88
f 1 88 65
f 1 65 44
f 1 44 43
f 1 43 30
f 1 30 18
f 1 18 9
f 1 9 3
f 1 3 12
f 1 12 23
f 1 23 29
f 1 29 17
f 1 17 7
f 1 7 4
f 1 4 2
f 2 5 6
f 2 4 7
f 2 7 8
f 2 8 5
f 3 9 10
f 3 10 11
f 3 11 12
f 5 8 13
f 5 13 6
f 6 13 15
f 6 15 16
f 6 16 14
f 7 17 28
f 7 28 41
f 7 41 63
f 7 63 86
f 7 86 110
f 7 110 143
f 7 143 142
f 7 142 170
f 7 170 193
f 7 193 215
f 7 215 239
f 7 239 261
f 7 261 281
f 7 281 307
f 7 307 299
f 7 299 278
f 7 278 259
f 7 259 237
f 7 237 213
f 7 213 212
f 7 212 191
f 7 191 168
f 7 168 140
f 7 140 139
f 7 139 138
f 7 138 108
f 7 108 84
f 7 84 83
f 7 83 61
f 7 61 60
f 7 60 59
f 7 59 58
f 7 58 39
f 7 39 27
f 7 27 26
f 7 26 25
f 7 25 16
f 7 16 15
f 7 15 13
f 7 13 8
f 9 18 19
f 9 19 20
f 9 20 21
f 9 21 10
f 10 21 11
f 11 21 22
f 11 22 12
f 12 22 23
f 14 16 25
f 14 25 26
f 14 26 27
f 14 27 24
f 17 29 28
f 18 30 31
f 18 31 32
f 18 32 19
f 19 32 33
f 19 33 34
f 19 34 20
f 20 34 21
f 21 34 35
f 21 35 36
f 21 36 22
f 22 36 37
f 22 37 29
f 22 29 23
f 24 27 38
f 27 39 38
f 28 40 41
f 28 29 40
f 29 37 42
f 29 42 40
f 30 43 31
f 31 43 32
f 32 43 44
f 32 44 45
f 32 45 46
f 32 46 47
f 32 47 48
f 32 48 33
f 33 48 49
f 33 49 50
f 33 50 34
f 34 50 51
f 34 51 52
f 34 52 35
f 35 52 36
f 36 52 53
f 36 53 37
f 37 53 54
f 37 54 55
f 37 55 56
f 37 56 42
f 38 39 58
f 38 58 59
f 38 59 60
f 38 60 61
f 38 61 57
f 40 42 62
f 40 62 41
f 41 62 63
f 42 56 64
f 42 64 62
f 44 65 66
f 44 66 67
f 44 67 68
f 44 68 45
f 45 68 46
f 46 68 69
f 46 69 70
f 46 70 71
f 46 71 47
f 47 71 72
f 47 72 48
f 48 72 49
f 49 72 73
f 49 73 50
f 50 73 74
f 50 74 51
f 51 74 75
f 51 75 76
f 51 76 52
f 52 76 77
f 52 77 78
f 52 78 53
f 53 78 79
f 53 79 80
f 53 80 54
f 54 80 55
f 55 80 81
f 55 81 64
f 55 64 56
f 57 61 83
f 57 83 84
f 57 84 82
f 62 85 86
f 62 86 63
f 62 64 85
f 64 87 85
f 64 81 87
f 65 88 66
f 66 88 67
f 67 88 89
f 67 89 90
f 67 90 91
f 67 91 69
f 67 69 68
f 69 91 70
f 70 92 93
f 70 93 71
f 70 91 92
f 71 93 72
f 72 93 92
f 72 92 94
f 72 94 95
f 72 95 73
f 73 95 96
f 73 96 74
f 74 96 97
f 74 97 75
f 75 98 99
f 75 99 76
f 75 97 98
f 76 99 100
f 76 100 101
f 76 101 102
f 76 102 77
f 77 102 103
f 77 103 78
f 78 103 79
f 79 104 105
f 79 105 80
f 79 103 104
f 80 105 106
f 80 106 81
f 81 106 87
f 82 84 107
f 84 108 107
f 85 109 110
f 85 110 86
f 85 87 109
f 87 111 109
f 87 106 111
f 89 112 90
f 90 112 113
f 90 113 91
f 91 113 114
f 91 114 115
f 91 115 116
f 91 116 117
f 91 117 118
f 91 118 119
f 91 119 120
f 91 120 94
f 91 94 92
f 94 119 121
f 94 121 122
f 94 122 123
f 94 123 96
f 94 96 95
f 94 120 119
f 96 123 97
f 97 123 124
f 97 124 98
f 98 125 99
f 98 124 126
f 98 126 127
f 98 127 125
f 99 125 128
f 99 128 129
f 99 129 130
f 99 130 100
f 100 130 131
f 100 131 101
f 101 131 102
f 102 131 103
f 103 132 133
f 103 133 104
f 103 131 134
f 103 134 132
f 104 133 105
f 105 133 135
f 105 135 106
f 106 135 136
f 106 136 111
f 107 108 138
f 107 138 139
f 107 139 140
f 107 140 137
f 109 141 142
f 109 142 143
f 109 143 110
f 109 111 144
f 109 144 141
f 111 136 144
f 115 145 146
f 115 146 147
f 115 147 117
f 115 117 116
f 117 147 148
f 117 148 149
f 117 149 150
f 117 150 151
f 117 151 118
f 118 151 152
f 118 152 119
f 119 152 153
f 119 153 121
f 121 154 155
f 121 155 122
f 121 153 154
f 122 155 123
f 123 155 126
f 123 126 124
f 125 127 128
f 126 155 156
f 126 156 127
f 127 156 128
f 128 157 158
f 128 158 129
f 128 156 157
f 129 159 160
f 129 160 130
f 129 158 159
f 130 160 131
f 131 160 134
f 132 161 162
f 132 162 133
f 132 134 163
f 132 163 164
f 132 164 161
f 133 162 165
f 133 165 135
f 134 160 163
f 135 165 166
f 135 166 136
f 136 166 144
f 137 140 167
f 140 168 167
f 141 169 142
f 141 144 169
f 142 169 170
f 144 171 169
f 144 166 172
f 144 172 173
f 144 173 171
f 145 174 146
f 146 174 147
f 147 174 148
f 148 174 175
f 148 175 176
f 148 176 177
f 148 177 149
f 149 178 150
f 149 177 178
f 150 179 180
f 150 180 181
f 150 181 151
f 150 178 179
f 151 153 152
f 151 181 154
f 151 154 153
f 154 181 182
f 154 182 155
f 155 182 156
f 156 182 157
f 157 182 158
f 158 182 159
f 159 183 184
f 159 184 160
f 159 182 185
f 159 185 186
f 159 186 183
f 160 184 163
f 161 164 184
f 161 184 187
f 161 187 188
f 161 188 162
f 162 189 165
f 162 188 189
f 163 184 164
f 165 172 166
f 165 189 172
f 167 168 191
f 167 191 190
f 169 192 193
f 169 193 170
f 169 171 194
f 169 194 192
f 171 173 195
f 171 195 196
f 171 196 194
f 172 189 197
f 172 197 195
f 172 195 173
f 177 198 178
f 178 198 199
f 178 199 200
f 178 200 201
f 178 201 179
f 179 202 180
f 179 201 202
f 180 202 203
f 180 203 204
f 180 204 205
f 180 205 181
f 181 205 182
f 182 205 186
f 182 186 185
f 183 206 207
f 183 207 184
f 183 186 208
f 183 208 206
f 184 207 188
f 184 188 187
f 186 205 208
f 188 207 209
f 188 209 189
f 189 209 210
f 189 210 197
f 190 191 212
f 190 212 213
f 190 213 211
f 192 214 193
f 192 194 216
f 192 216 214
f 193 214 215
f 194 196 216
f 195 197 217
f 195 217 218
f 195 218 196
f 196 218 216
f 197 210 219
f 197 219 217
f 198 220 199
f 199 221 200
f 199 220 222
f 199 222 221
f 200 221 201
f 201 221 223
f 201 223 202
f 202 223 224
f 202 224 225
f 202 225 203
f 203 225 204
f 204 226 227
f 204 227 205
f 204 225 226
f 205 227 208
f 206 228 229
f 206 229 230
f 206 230 231
f 206 231 207
f 206 208 228
f 207 231 232
f 207 232 233
f 207 233 209
f 208 227 234
f 208 234 228
f 209 233 210
f 210 235 219
f 210 233 235
f 211 213 237
f 211 237 236
f 214 238 215
f 214 216 238
f 215 238 239
f 216 240 238
f 216 218 241
f 216 241 240
f 217 219 242
f 217 242 241
f 217 241 218
f 219 235 242
f 221 222 243
f 221 243 223
f 222 244 243
f 223 243 245
f 223 245 224
f 224 245 246
f 224 246 247
f 224 247 248
f 224 248 249
f 224 249 250
f 224 250 225
f 225 250 226
f 226 250 251
f 226 251 227
f 227 251 252
f 227 252 234
f 228 253 229
f 228 234 253
f 229 253 254
f 229 254 230
f 230 254 255
f 230 255 232
f 230 232 231
f 232 255 235
f 232 235 233
f 234 252 253
f 235 255 256
f 235 256 257
f 235 257 242
f 236 237 258
f 237 259 258
f 238 260 261
f 238 261 239
f 238 240 262
f 238 262 260
f 240 241 263
f 240 263 262
f 241 242 264
f 241 264 263
f 242 257 264
f 243 244 265
f 243 265 245
f 245 265 266
f 245 266 246
f 246 266 267
f 246 267 247
f 247 267 268
f 247 268 269
f 247 269 270
f 247 270 271
f 247 271 272
f 247 272 248
f 248 272 273
f 248 273 249
f 249 273 252
f 249 252 251
f 249 251 250
f 252 273 254
f 252 254 253
f 254 273 274
f 254 274 255
f 255 274 275
f 255 275 276
f 255 276 256
f 256 276 257
f 257 276 285
f 257 285 264
f 258 259 277
f 259 278 277
f 260 262 279
f 260 279 280
f 260 280 281
f 260 281 261
f 262 263 282
f 262 282 283
f 262 283 279
f 263 284 282
f 263 264 284
f 264 285 286
f 264 286 284
f 265 287 266
f 266 287 288
f 266 288 289
f 266 289 267
f 267 289 290
f 267 290 268
f 268 291 269
f 268 290 291
f 269 291 292
f 269 292 270
f 270 292 271
f 271 292 293
f 271 293 272
f 272 293 294
f 272 294 274
f 272 274 273
f 274 294 275
f 275 294 295
f 275 295 276
f 276 295 296
f 276 296 297
f 276 297 285
f 277 278 298
f 278 299 321
f 278 321 300
f 278 300 301
f 278 301 302
f 278 302 298
f 279 303 280
f 279 283 304
f 279 304 305
f 279 305 303
f 280 303 306
f 280 306 307
f 280 307 281
f 282 284 308
f 282 308 304
f 282 304 283
f 284 286 309
f 284 309 310
f 284 310 308
f 285 297 311
f 285 311 309
f 285 309 286
f 289 312 313
f 289 313 314
f 289 314 290
f 290 314 291
f 291 314 315
f 291 315 292
f 292 315 316
f 292 316 317
f 292 317 318
f 292 318 293
f 293 318 319
f 293 319 294
f 294 319 318
f 294 318 295
f 295 318 320
f 295 320 296
f 296 311 297
f 296 320 317
f 296 317 311
f 299 307 306
f 299 306 321
f 300 321 324
f 300 324 322
f 300 322 301
f 301 323 302
f 301 322 323
f 302 323 315
f 302 315 312
f 303 305 324
f 303 324 321
f 303 321 306
f 304 308 325
f 304 325 324
f 304 324 305
f 308 310 325
f 309 311 310
f 310 311 326
f 310 326 325
f 311 317 326
f 312 315 314
f 312 314 313
f 315 323 322
f 315 322 324
f 315 324 326
f 315 326 316
f 316 326 317
f 317 320 318
f 324 325 326

