# https://github.com/mikedh/trimesh
v 0.03031115 0.01164417 -0.00672281
v 0.03031115 0.01164417 -0.00756740
v 0.03029868 0.01164417 -0.00672084
v 0.03031115 0.01145830 -0.00672084
v 0.03031115 0.01158221 -0.00801662
v 0.02897695 0.01154714 -0.00960174
v 0.02886265 0.01156117 -0.00960174
v 0.02877952 0.01156818 -0.00960174
v 0.02813944 0.01161495 -0.00960174
v 0.02813944 0.01164417 -0.00899967
v 0.01590307 0.01164417 -0.00672084
v 0.03031115 0.00965216 -0.00672084
v 0.03031115 0.01115903 -0.00836461
v 0.02925958 0.01129814 -0.00960174
v 0.02922425 0.01152493 -0.00942013
v 0.02525699 0.01161495 -0.00960174
v 0.01590307 0.01164417 -0.00899967
v 0.01518194 0.01161495 -0.00899967
v 0.01518194 0.01161261 -0.00756035
v 0.01518194 0.01160676 -0.00684040
v 0.01518817 0.01160092 -0.00672084
v 0.03031115 0.00938329 -0.00807725
v 0.02493280 -0.00029618 -0.00672084
v 0.03031115 0.01072065 -0.00862828
v 0.02932193 0.01111694 -0.00960174
v 0.01590307 0.01161261 -0.00960174
v 0.01518194 0.01159741 -0.00960174
v 0.01468525 0.01154948 -0.00960174
v 0.01467694 0.01155182 -0.00899967
v 0.01468733 0.01154948 -0.00756035
v 0.01473929 0.01154363 -0.00684040
v 0.01476007 0.01153896 -0.00672084
v 0.03031115 0.00936342 -0.00827973
v 0.01595295 -0.00029618 -0.00672084
v 0.02493280 -0.00029618 -0.00756035
v 0.03031115 0.01071480 -0.00862912
v 0.02940713 0.01044710 -0.00960174
v 0.03031115 0.01036059 -0.00867791
v 0.01432573 0.01146765 -0.00960174
v 0.01431741 0.01146765 -0.00899967
v 0.01432988 0.01146765 -0.00827973
v 0.01432781 0.01145245 -0.00756035
v 0.01439846 0.01125021 -0.00672084
v 0.01317025 0.01094977 -0.00827973
v 0.01325754 0.01089834 -0.00775775
v 0.02491409 -0.00029618 -0.00798081
v 0.02864652 0.00672144 -0.00960174
v 0.02898942 0.00741466 -0.00960174
v 0.02905384 0.00755261 -0.00960174
v 0.03031115 0.00969659 -0.00868327
v 0.01371890 0.00828909 -0.00672084
v 0.00908246 -0.00029618 -0.00960174
v 0.02923257 0.00827857 -0.00960174
v 0.03031115 0.00970360 -0.00868581
v 0.01374176 0.01126073 -0.00960174
v 0.01374176 0.01126073 -0.00899967
v 0.01374176 0.01125840 -0.00827973
v 0.01392464 0.01098484 -0.00696082
v 0.01428832 0.01113214 -0.00672084
v 0.01315155 0.01095211 -0.00899967
v 0.01279202 0.01069960 -0.00899967
v 0.01240548 0.01033955 -0.00899967
v 0.01281073 0.01059790 -0.00827973
v 0.01252394 0.01023901 -0.00827973
v 0.01264240 0.01011509 -0.00789536
v 0.01303933 0.01040735 -0.00758657
v 0.01344458 0.01070077 -0.00727778
v 0.02452547 -0.00029618 -0.00960174
v 0.02914320 0.00781447 -0.00960174
v 0.01353602 0.00899868 -0.00672084
v 0.01352563 0.00971880 -0.00672084
v 0.00908038 0.00218097 -0.00960174
v 0.01315571 0.01095211 -0.00960174
v 0.01380202 0.01057686 -0.00672084
v 0.01279618 0.01069610 -0.00960174
v 0.01239509 0.01033604 -0.00960174
v 0.01209168 0.01002391 -0.00960174
v 0.01179449 0.00958436 -0.00960174
v 0.01183814 0.00952123 -0.00917592
v 0.00937964 0.00540278 -0.00960174
v 0.00932353 0.00530108 -0.00960174
v 0.01330326 0.01022148 -0.00710548
v 0.00908662 0.00468033 -0.00960174
v 0.00908454 0.00434248 -0.00960174
v 0.00908246 0.00396021 -0.00960174
v 0.01375422 0.01048100 -0.00672084
v 0.00916766 0.00489660 -0.00960174
f 1 2 10
f 1 10 17
f 1 17 11
f 1 11 3
f 1 3 4
f 1 4 12
f 1 12 22
f 1 22 33
f 1 33 50
f 1 50 54
f 1 54 38
f 1 38 36
f 1 36 24
f 1 24 13
f 1 13 5
f 1 5 2
f 2 5 6
f 2 6 7
f 2 7 8
f 2 8 9
f 2 9 10
f 3 11 21
f 3 21 32
f 3 32 43
f 3 43 59
f 3 59 74
f 3 74 86
f 3 86 71
f 3 71 70
f 3 70 51
f 3 51 34
f 3 34 23
f 3 23 12
f 3 12 4
f 5 13 14
f 5 14 15
f 5 15 6
f 6 15 14
f 6 14 25
f 6 25 37
f 6 37 53
f 6 53 69
f 6 69 49
f 6 49 48
f 6 48 47
f 6 47 68
f 6 68 52
f 6 52 72
f 6 72 85
f 6 85 84
f 6 84 83
f 6 83 87
f 6 87 81
f 6 81 80
f 6 80 78
f 6 78 77
f 6 77 76
f 6 76 75
f 6 75 73
f 6 73 55
f 6 55 39
f 6 39 28
f 6 28 27
f 6 27 26
f 6 26 16
f 6 16 9
f 6 9 8
f 6 8 7
f 9 16 17
f 9 17 10
f 11 17 18
f 11 18 19
f 11 19 20
f 11 20 21
f 12 23 22
f 13 24 14
f 14 24 25
f 16 26 17
f 17 26 27
f 17 27 18
f 18 27 28
f 18 28 29
f 18 29 19
f 19 29 30
f 19 30 20
f 20 30 31
f 20 31 21
f 21 31 32
f 22 23 33
f 23 34 52
f 23 52 68
f 23 68 46
f 23 46 35
f 23 35 33
f 24 36 25
f 25 36 38
f 25 38 37
f 28 39 29
f 29 39 40
f 29 40 30
f 30 40 41
f 30 41 42
f 30 42 31
f 31 42 32
f 32 42 44
f 32 44 45
f 32 45 43
f 33 35 46
f 33 46 47
f 33 47 48
f 33 48 49
f 33 49 50
f 34 51 52
f 37 38 54
f 37 54 53
f 39 55 40
f 40 55 56
f 40 56 57
f 40 57 41
f 41 57 42
f 42 57 44
f 43 58 59
f 43 45 58
f 44 60 61
f 44 61 62
f 44 62 63
f 44 63 45
f 44 57 60
f 45 63 64
f 45 64 65
f 45 65 66
f 45 66 67
f 45 67 58
f 46 68 47
f 49 69 50
f 50 69 54
f 51 70 52
f 52 70 71
f 52 71 72
f 53 54 69
f 55 73 60
f 55 60 56
f 56 60 57
f 58 74 59
f 58 67 74
f 60 73 61
f 61 73 75
f 61 75 76
f 61 76 62
f 62 76 77
f 62 77 78
f 62 78 79
f 62 79 64
f 62 64 63
f 64 79 80
f 64 80 81
f 64 81 65
f 65 82 66
f 65 81 82
f 66 82 74
f 66 74 67
f 71 83 84
f 71 84 85
f 71 85 72
f 71 86 83
f 74 82 86
f 78 80 79
f 81 87 82
f 82 87 83
f 82 83 86

