# https://github.com/mikedh/trimesh
v -0.01486494 0.01268974 -0.02356516
v -0.01478303 0.01466204 -0.02284729
v -0.01478967 0.01394559 -0.02356516
v -0.01484723 0.00893044 -0.02481977
v -0.01485608 0.00767871 -0.02481977
v -0.01485829 -0.00861847 -0.02481883
v -0.01484058 -0.01864465 -0.02105876
v -0.01478303 -0.01990050 -0.01980509
v -0.01469447 0.01594259 -0.02284729
v -0.01455057 -0.02094223 -0.01857689
v -0.01461699 0.01645317 -0.02284729
v -0.01446424 0.01645317 -0.02326801
v -0.01444431 0.01394559 -0.02445188
v -0.01474761 0.01018217 -0.02481977
v -0.01450187 0.00893044 -0.02579705
v -0.01475867 0.00266768 -0.02607250
v -0.01477860 0.00141183 -0.02607250
v -0.01476974 -0.00234747 -0.02607250
v -0.01471218 -0.00360332 -0.02607250
v -0.01452623 -0.00861847 -0.02579610
v -0.01478745 -0.00987020 -0.02481883
v -0.01481845 -0.01362950 -0.02356516
v -0.01484723 -0.01237777 -0.02356516
v -0.01477860 -0.00116986 -0.02607250
v -0.01483173 -0.01613708 -0.02231243
v -0.01449523 -0.01864465 -0.02214358
v -0.01457050 -0.01995814 -0.02113234
v -0.01476532 -0.02094223 -0.01980509
v -0.01371597 -0.02094223 -0.01804109
v -0.01450409 0.01707079 -0.02284729
v -0.01433141 0.01736314 -0.02307086
v -0.01427385 0.01105097 -0.02551499
v -0.01440225 0.01018217 -0.02564140
v -0.01430484 0.01478968 -0.02429529
v -0.01425614 0.00492820 -0.02675168
v -0.01434470 0.00391941 -0.02682055
v -0.01441332 0.00266768 -0.02688564
v -0.01468783 0.00391941 -0.02607250
v -0.01443324 0.00141183 -0.02690733
v -0.01443324 -0.00117398 -0.02690639
v -0.01442439 -0.00234747 -0.02689695
v -0.01451515 -0.00861435 -0.02582912
v -0.01444210 -0.00987020 -0.02568668
v -0.01447310 -0.01362950 -0.02449999
v -0.01449523 -0.01613708 -0.02334254
v -0.01443324 -0.00108751 -0.02690733
v -0.01437125 -0.01958345 -0.02188794
v -0.01437125 -0.01717057 -0.02312180
v -0.01444431 -0.02094223 -0.02080595
v -0.01354993 -0.02094223 -0.01799393
v -0.01440225 0.01748667 -0.02284729
v -0.01354993 0.01810018 -0.02284729
v -0.01354993 0.01750725 -0.02313689
v -0.01354993 0.01394559 -0.02471506
v -0.01354993 0.01117449 -0.02555084
v -0.01354993 0.01018217 -0.02583761
v -0.01354993 0.00893044 -0.02616494
v -0.01354993 0.01490497 -0.02434811
v -0.01354993 0.00575171 -0.02669037
v -0.01354993 0.00512584 -0.02677810
v -0.01354993 0.00391941 -0.02694318
v -0.01354993 0.00266768 -0.02707430
v -0.01354993 0.00767871 -0.02639322
v -0.01354993 0.00141183 -0.02711864
v -0.01354993 -0.00108751 -0.02711864
v -0.01354993 -0.00117398 -0.02711769
v -0.01354993 -0.00234747 -0.02709694
v -0.01436683 -0.00360332 -0.02684319
v -0.01449744 -0.00891081 -0.02579610
v -0.01426278 -0.00485505 -0.02675829
v -0.01419415 -0.00556326 -0.02671018
v -0.01430927 -0.01085429 -0.02554613
v -0.01434248 -0.01457653 -0.02433679
v 0.00141548 -0.02094223 -0.02579610
v -0.01354993 -0.02094223 -0.02119743
v 0.00149074 -0.02094223 -0.01754491
v -0.00104850 0.02112244 -0.02284729
v -0.00104850 0.02021247 -0.02311991
v -0.00104850 0.01772548 -0.02386230
v -0.01229691 0.00893044 -0.02618569
v -0.00104850 0.01394559 -0.02491316
v -0.00104850 0.01149978 -0.02558197
v -0.01229691 0.00767871 -0.02643096
v -0.00104850 0.00517114 -0.02684979
v -0.00602959 0.00391941 -0.02698563
v -0.01104167 0.00266768 -0.02708939
v -0.01229691 0.00141183 -0.02712524
v -0.00602959 0.00015599 -0.02715920
v -0.01229691 -0.00108751 -0.02712524
v -0.01347024 -0.00117398 -0.02711864
v -0.01229470 -0.00234747 -0.02710449
v -0.01354993 -0.00360332 -0.02699034
v -0.01354993 -0.00861435 -0.02623569
v -0.01354993 -0.00986608 -0.02593383
v -0.01354993 -0.01362950 -0.02482354
v 0.00774699 -0.02094223 -0.02579610
v -0.01104167 -0.00234747 -0.02710920
v -0.00978865 -0.00234747 -0.02711298
v -0.00728040 -0.00234747 -0.02711675
v 0.00021780 -0.00360332 -0.02703279
v 0.00172984 -0.02094223 -0.01756283
v 0.00775142 -0.00117398 -0.02579610
v 0.00243383 -0.02094223 -0.01776281
v -0.00104850 0.01018217 -0.02592157
v -0.00978865 0.00893044 -0.02619796
v -0.00104850 0.00767871 -0.02644699
v -0.00104850 0.00662874 -0.02663094
v -0.00104850 0.00600288 -0.02673282
v -0.00728261 0.00893044 -0.02620550
v -0.00602959 0.00893044 -0.02620739
v -0.00104850 0.00391941 -0.02699978
v -0.00352355 0.00391941 -0.02699600
v -0.00477657 0.00391941 -0.02699223
v -0.00978865 0.00266768 -0.02709505
v -0.01104167 0.00141183 -0.02713184
v -0.00352355 0.00015599 -0.02717146
v -0.00978865 -0.00108751 -0.02713844
v -0.00978865 -0.00117398 -0.02713750
v -0.00853563 -0.00116986 -0.02714316
v -0.00728261 -0.00108751 -0.02714976
v 0.00774921 -0.01489770 -0.02579610
v 0.00319538 -0.02094223 -0.01854011
v 0.00021780 -0.00234747 -0.02712146
v 0.00021780 -0.00232688 -0.02712241
v 0.00021780 -0.00117398 -0.02716863
v -0.00227053 -0.00108751 -0.02716580
v -0.00104850 -0.00108751 -0.02716958
v 0.00775142 -0.00118633 -0.02579610
v -0.00104850 0.00266768 -0.02710543
v -0.00104850 0.00893044 -0.02620079
v -0.00227053 0.00893044 -0.02620739
v -0.00227053 0.00266768 -0.02710543
v -0.00477657 0.00266768 -0.02710354
v -0.00602959 0.00266768 -0.02710166
v -0.00227053 0.00141183 -0.02716108
v -0.00352355 0.00141183 -0.02715825
v -0.00978865 0.00141183 -0.02713656
v -0.00104850 0.00015599 -0.02718089
v -0.00104850 0.00141183 -0.02716203
v -0.00104850 0.00144477 -0.02716108
f 1 2 3
f 1 3 4
f 1 4 5
f 1 5 6
f 1 6 7
f 1 7 8
f 1 8 2
f 2 9 3
f 2 8 10
f 2 10 9
f 3 9 11
f 3 11 12
f 3 12 13
f 3 13 14
f 3 14 4
f 4 14 15
f 4 15 16
f 4 16 17
f 4 17 5
f 5 17 6
f 6 18 19
f 6 19 20
f 6 20 21
f 6 21 22
f 6 22 23
f 6 23 7
f 6 17 24
f 6 24 18
f 7 23 25
f 7 25 26
f 7 26 27
f 7 27 28
f 7 28 8
f 8 28 10
f 9 10 11
f 10 28 49
f 10 49 75
f 10 75 74
f 10 74 96
f 10 96 122
f 10 122 103
f 10 103 101
f 10 101 76
f 10 76 50
f 10 50 29
f 10 29 11
f 11 30 12
f 11 29 30
f 12 30 31
f 12 31 13
f 13 32 33
f 13 33 15
f 13 15 14
f 13 31 34
f 13 34 32
f 15 33 35
f 15 35 36
f 15 36 37
f 15 37 38
f 15 38 16
f 16 38 37
f 16 37 39
f 16 39 17
f 17 39 46
f 17 46 24
f 18 40 41
f 18 41 19
f 18 24 40
f 19 41 42
f 19 42 20
f 20 42 21
f 21 42 43
f 21 43 44
f 21 44 22
f 22 44 45
f 22 45 26
f 22 26 25
f 22 25 23
f 24 46 40
f 26 47 27
f 26 45 48
f 26 48 47
f 27 47 49
f 27 49 28
f 29 50 51
f 29 51 30
f 30 51 31
f 31 51 52
f 31 52 53
f 31 53 34
f 32 34 54
f 32 54 55
f 32 55 56
f 32 56 57
f 32 57 35
f 32 35 33
f 34 53 58
f 34 58 54
f 35 59 60
f 35 60 61
f 35 61 62
f 35 62 36
f 35 57 63
f 35 63 59
f 36 62 37
f 37 62 64
f 37 64 39
f 39 64 65
f 39 65 46
f 40 46 41
f 41 46 65
f 41 65 66
f 41 66 67
f 41 67 68
f 41 68 42
f 42 69 43
f 42 68 70
f 42 70 71
f 42 71 69
f 43 72 44
f 43 69 71
f 43 71 72
f 44 73 45
f 44 72 73
f 45 73 48
f 47 48 74
f 47 74 75
f 47 75 49
f 48 73 74
f 50 76 77
f 50 77 52
f 50 52 51
f 52 77 53
f 53 77 58
f 54 58 77
f 54 77 55
f 55 77 78
f 55 78 79
f 55 79 56
f 56 80 57
f 56 79 81
f 56 81 82
f 56 82 80
f 57 80 83
f 57 83 63
f 59 63 83
f 59 83 60
f 60 83 84
f 60 84 61
f 61 84 85
f 61 85 86
f 61 86 62
f 62 86 64
f 64 86 87
f 64 87 88
f 64 88 65
f 65 88 89
f 65 89 90
f 65 90 66
f 66 90 67
f 67 91 74
f 67 74 92
f 67 92 70
f 67 70 68
f 67 90 91
f 70 92 71
f 71 92 74
f 71 74 93
f 71 93 72
f 72 93 94
f 72 94 74
f 72 74 95
f 72 95 73
f 73 95 74
f 74 94 93
f 74 91 97
f 74 97 98
f 74 98 99
f 74 99 100
f 74 100 96
f 76 101 77
f 77 102 78
f 77 101 103
f 77 103 102
f 78 102 79
f 79 102 81
f 80 82 104
f 80 104 105
f 80 105 83
f 81 102 82
f 82 102 104
f 83 106 107
f 83 107 108
f 83 108 84
f 83 105 109
f 83 109 110
f 83 110 106
f 84 102 111
f 84 111 112
f 84 112 113
f 84 113 85
f 84 108 102
f 85 113 86
f 86 113 114
f 86 114 115
f 86 115 87
f 87 115 88
f 88 115 116
f 88 116 117
f 88 117 89
f 89 117 90
f 90 117 118
f 90 118 91
f 91 118 119
f 91 119 120
f 91 120 97
f 96 121 122
f 96 100 123
f 96 123 124
f 96 124 125
f 96 125 121
f 97 120 126
f 97 126 127
f 97 127 98
f 98 127 125
f 98 125 99
f 99 125 124
f 99 124 123
f 99 123 100
f 102 128 125
f 102 125 129
f 102 129 111
f 102 108 107
f 102 107 106
f 102 106 130
f 102 130 104
f 102 103 122
f 102 122 128
f 104 130 131
f 104 131 110
f 104 110 109
f 104 109 105
f 106 110 131
f 106 131 130
f 111 129 132
f 111 132 133
f 111 133 134
f 111 134 112
f 112 134 114
f 112 114 113
f 114 134 135
f 114 135 136
f 114 136 137
f 114 137 115
f 115 138 116
f 115 137 138
f 116 120 117
f 116 138 120
f 117 120 118
f 118 120 119
f 120 138 126
f 121 125 128
f 121 128 122
f 125 127 138
f 125 138 139
f 125 139 140
f 125 140 129
f 126 138 127
f 129 140 132
f 132 140 133
f 133 140 135
f 133 135 134
f 135 140 139
f 135 139 138
f 135 138 136
f 136 138 137

