# https://github.com/mikedh/trimesh
v 0.04598198 0.01063380 -0.00779708
v 0.05486027 0.01036285 -0.00508371
v 0.05552128 0.01035729 -0.00508371
v 0.05552128 0.01034952 -0.00546264
v 0.05486027 0.01035396 -0.00612431
v 0.05419753 0.01035452 -0.00678544
v 0.05353653 0.01034619 -0.00744684
v 0.05287379 0.01033897 -0.00779814
v 0.04598198 0.01063269 -0.00779814
v 0.03986597 0.01014464 -0.00779814
v 0.03998947 0.01014464 -0.00744684
v 0.04116884 0.01014464 -0.00508371
v 0.04598198 0.01036285 -0.00508371
v 0.05618228 0.01029178 -0.00508371
v 0.05552128 0.01028178 -0.00612431
v 0.05486027 0.01029067 -0.00678544
v 0.05353653 0.01028123 -0.00779814
v 0.05419753 0.01027623 -0.00744684
v 0.04033215 0.00496150 -0.00779814
v 0.03976160 0.00496150 -0.00508371
v 0.03975812 0.00523690 -0.00508371
v 0.03975464 0.00656003 -0.00508371
v 0.03975464 0.00694814 -0.00508371
v 0.03975638 0.00760887 -0.00508371
v 0.03986771 0.00817521 -0.00508371
v 0.05618228 0.01024181 -0.00546264
v 0.05681197 0.01008190 -0.00508371
v 0.05617880 0.01006580 -0.00610252
v 0.05553345 0.01008967 -0.00679448
v 0.05486375 0.01008578 -0.00745933
v 0.05417840 0.01015574 -0.00779814
v 0.04463040 0.00496150 -0.00779814
v 0.04126625 0.00496150 -0.00508371
v 0.05669194 0.01003637 -0.00546264
v 0.05713725 0.00988867 -0.00508371
v 0.05656670 0.00996363 -0.00586762
v 0.05595614 0.00999195 -0.00658030
v 0.05532124 0.00999806 -0.00724702
v 0.05468632 0.01000305 -0.00779814
v 0.05752168 0.00514195 -0.00508371
v 0.04131322 0.00496150 -0.00511666
v 0.05539081 0.00514195 -0.00779814
v 0.05554389 0.00514195 -0.00765518
v 0.05563260 0.00514195 -0.00757067
v 0.05597528 0.00514195 -0.00723984
v 0.05621707 0.00514195 -0.00696481
v 0.05630578 0.00514195 -0.00686277
v 0.05649886 0.00514195 -0.00662149
v 0.05657018 0.00514195 -0.00653194
v 0.05687111 0.00514195 -0.00612431
v 0.05714421 0.00514195 -0.00574697
v 0.05734425 0.00514195 -0.00541614
v 0.05714073 0.00988423 -0.00508371
v 0.05639797 0.00976541 -0.00630846
v 0.05703636 0.00963660 -0.00549878
v 0.05667803 0.00956442 -0.00610252
v 0.05576306 0.00981871 -0.00702115
v 0.05508988 0.00981927 -0.00768813
v 0.05482201 0.00991977 -0.00779814
v 0.05752515 0.00826072 -0.00508371
v 0.05540647 0.00827016 -0.00779814
v 0.05564304 0.00827016 -0.00757732
v 0.05597528 0.00827016 -0.00724648
v 0.05630578 0.00827016 -0.00687074
v 0.05658062 0.00827016 -0.00653991
v 0.05688155 0.00827016 -0.00612431
v 0.05714421 0.00827016 -0.00574591
v 0.05734599 0.00827016 -0.00541534
v 0.05714421 0.00987868 -0.00508371
v 0.05654583 0.00932400 -0.00649553
v 0.05615966 0.00957108 -0.00675834
v 0.05727815 0.00944560 -0.00530214
v 0.05591962 0.00937786 -0.00718670
v 0.05551084 0.00959884 -0.00743754
v 0.05528818 0.00940173 -0.00779814
v 0.05521165 0.00950278 -0.00779814
v 0.05501161 0.00974542 -0.00779814
v 0.05751298 0.00892367 -0.00508371
v 0.05734077 0.00893200 -0.00540312
v 0.05539951 0.00875099 -0.00779814
v 0.05539603 0.00893200 -0.00779814
v 0.05563782 0.00893200 -0.00756802
v 0.05629708 0.00893200 -0.00686304
v 0.05596658 0.00893200 -0.00723718
v 0.05657540 0.00893200 -0.00653220
v 0.05686937 0.00893200 -0.00612431
v 0.05713899 0.00893200 -0.00573369
v 0.05734251 0.00953499 -0.00508371
v 0.05744166 0.00923960 -0.00508371
v 0.05532124 0.00930734 -0.00779814
f 1 2 3
f 1 3 4
f 1 4 5
f 1 5 6
f 1 6 7
f 1 7 8
f 1 8 9
f 1 9 10
f 1 10 11
f 1 11 12
f 1 12 13
f 1 13 2
f 2 13 12
f 2 12 25
f 2 25 24
f 2 24 23
f 2 23 22
f 2 22 21
f 2 21 20
f 2 20 33
f 2 33 40
f 2 40 60
f 2 60 78
f 2 78 89
f 2 89 88
f 2 88 69
f 2 69 53
f 2 53 35
f 2 35 27
f 2 27 14
f 2 14 3
f 3 14 4
f 4 14 15
f 4 15 16
f 4 16 5
f 5 16 6
f 6 16 7
f 7 17 8
f 7 16 18
f 7 18 17
f 8 17 31
f 8 31 39
f 8 39 59
f 8 59 77
f 8 77 76
f 8 76 75
f 8 75 90
f 8 90 81
f 8 81 80
f 8 80 61
f 8 61 42
f 8 42 32
f 8 32 19
f 8 19 10
f 8 10 9
f 10 19 20
f 10 20 21
f 10 21 22
f 10 22 23
f 10 23 24
f 10 24 25
f 10 25 11
f 11 25 12
f 14 26 15
f 14 27 26
f 15 26 28
f 15 28 29
f 15 29 16
f 16 30 18
f 16 29 30
f 17 18 31
f 18 30 31
f 19 32 41
f 19 41 33
f 19 33 20
f 26 27 34
f 26 34 28
f 27 35 34
f 28 34 36
f 28 36 37
f 28 37 29
f 29 37 38
f 29 38 30
f 30 38 39
f 30 39 31
f 32 40 41
f 32 42 43
f 32 43 44
f 32 44 45
f 32 45 46
f 32 46 47
f 32 47 48
f 32 48 49
f 32 49 50
f 32 50 51
f 32 51 52
f 32 52 40
f 33 41 40
f 34 35 36
f 35 53 36
f 36 54 37
f 36 53 55
f 36 55 56
f 36 56 54
f 37 57 38
f 37 54 57
f 38 58 59
f 38 59 39
f 38 57 58
f 40 52 60
f 42 61 62
f 42 62 43
f 43 62 44
f 44 62 45
f 45 62 63
f 45 63 64
f 45 64 46
f 46 64 47
f 47 64 65
f 47 65 48
f 48 65 49
f 49 65 50
f 50 65 66
f 50 66 51
f 51 67 68
f 51 68 52
f 51 66 67
f 52 68 60
f 53 69 55
f 54 56 70
f 54 70 71
f 54 71 57
f 55 69 72
f 55 72 56
f 56 72 70
f 57 71 73
f 57 73 74
f 57 74 58
f 58 74 75
f 58 75 76
f 58 76 77
f 58 77 59
f 60 68 79
f 60 79 78
f 61 80 62
f 62 80 81
f 62 81 82
f 62 82 63
f 63 83 64
f 63 82 84
f 63 84 83
f 64 83 85
f 64 85 65
f 65 85 66
f 66 85 86
f 66 86 67
f 67 86 87
f 67 87 79
f 67 79 68
f 69 88 72
f 70 83 84
f 70 84 73
f 70 73 71
f 70 72 87
f 70 87 86
f 70 86 85
f 70 85 83
f 72 88 89
f 72 89 79
f 72 79 87
f 73 84 82
f 73 82 90
f 73 90 75
f 73 75 74
f 78 79 89
f 81 90 82

