# https://github.com/mikedh/trimesh
v 0.04854341 -0.00274503 0.00684676
v 0.04840164 -0.00274503 0.00706037
v 0.04854784 -0.00335866 0.00684676
v 0.00963648 -0.00274503 0.00684676
v 0.04817569 -0.00274503 0.00735666
v 0.04816240 -0.00278531 0.00737647
v 0.04816240 -0.00335866 0.00737820
v 0.04837949 -0.00335866 0.00709109
v 0.04837949 -0.00393293 0.00709138
v 0.04837949 -0.00450721 0.00709052
v 0.04837505 -0.00737673 0.00708994
v 0.04853898 -0.00737673 0.00684676
v 0.00450618 -0.00922135 0.00684676
v 0.00786435 -0.00341112 0.00977955
v 0.00840928 -0.00274503 0.00977955
v 0.04787443 -0.00274503 0.00772272
v 0.04787443 -0.00278531 0.00772359
v 0.04816240 -0.00393293 0.00737820
v 0.04787443 -0.00335866 0.00772473
v 0.04816240 -0.00450721 0.00737762
v 0.04837062 -0.00795007 0.00708334
v 0.04853012 -0.00795007 0.00684676
v 0.04815797 -0.00737673 0.00737705
v 0.00421822 -0.00960264 0.00684676
v 0.00376632 -0.00861803 0.00977955
v 0.00666374 -0.00622911 0.00977984
v 0.04539346 -0.00274503 0.00977955
v 0.04761304 -0.00274503 0.00800983
v 0.04761747 -0.00278531 0.00801041
v 0.04761747 -0.00335866 0.00801184
v 0.04787443 -0.00393293 0.00772416
v 0.04787443 -0.00737673 0.00772071
v 0.04834847 -0.00852434 0.00705090
v 0.04815354 -0.00795007 0.00737045
v 0.04848581 -0.00852434 0.00684676
v 0.00415619 -0.00969445 0.00684676
v 0.00337203 -0.00917731 0.00977955
v 0.00328785 -0.00937499 0.00977955
v 0.00330114 -0.00966540 0.00977955
v 0.00332329 -0.01000079 0.00977955
v 0.00339418 -0.01024624 0.00977955
v 0.00345620 -0.01041674 0.00977955
v 0.00372645 -0.01115403 0.00977955
v 0.00381506 -0.01139386 0.00977955
v 0.00392138 -0.01166273 0.00977955
v 0.00400113 -0.01184916 0.00977955
v 0.00437771 -0.01213208 0.00977955
v 0.00494478 -0.01224544 0.00977955
v 0.00497137 -0.01224544 0.00977955
v 0.00555174 -0.01224356 0.00977955
v 0.00609223 -0.01224169 0.00977955
v 0.00671691 -0.01223888 0.00977955
v 0.00723968 -0.01223607 0.00977955
v 0.00789094 -0.01223232 0.00977955
v 0.00848017 -0.01222857 0.00977955
v 0.01355287 -0.01219297 0.00977955
v 0.01527625 -0.01217798 0.00977955
v 0.01814709 -0.01215269 0.00977955
v 0.02044199 -0.01212646 0.00977955
v 0.02331283 -0.01209180 0.00977955
v 0.02388433 -0.01208430 0.00977955
v 0.02446027 -0.01207587 0.00977955
v 0.02503178 -0.01206650 0.00977955
v 0.02560772 -0.01205620 0.00977955
v 0.02675074 -0.01203559 0.00977955
v 0.02732668 -0.01202434 0.00977955
v 0.02789819 -0.01201310 0.00977955
v 0.02847413 -0.01200092 0.00977955
v 0.02904564 -0.01198875 0.00977955
v 0.02962158 -0.01197469 0.00977955
v 0.03076903 -0.01194565 0.00977955
v 0.03134497 -0.01193066 0.00977955
v 0.03191648 -0.01191567 0.00977955
v 0.03249242 -0.01189975 0.00977955
v 0.03363986 -0.01186696 0.00977955
v 0.03421137 -0.01184916 0.00977955
v 0.03478731 -0.01182948 0.00977955
v 0.03651070 -0.01177046 0.00977955
v 0.03708221 -0.01175079 0.00977955
v 0.03846446 -0.01170301 0.00977955
v 0.03873471 -0.01169271 0.00977955
v 0.03880560 -0.01168990 0.00977955
v 0.03937711 -0.01166179 0.00977955
v 0.03944356 -0.01165711 0.00977955
v 0.03995305 -0.01161495 0.00977955
v 0.03999292 -0.01161027 0.00977955
v 0.04051570 -0.01154562 0.00977955
v 0.04067076 -0.01152220 0.00977955
v 0.04110050 -0.01144819 0.00977955
v 0.04168973 -0.01133671 0.00977955
v 0.04224794 -0.01121305 0.00977955
v 0.04249604 -0.01115122 0.00977955
v 0.04257136 -0.01112873 0.00977955
v 0.04273971 -0.01106690 0.00977955
v 0.04289477 -0.01099852 0.00977955
v 0.04303211 -0.01093762 0.00977955
v 0.04339539 -0.01076712 0.00977955
v 0.04362577 -0.01065563 0.00977955
v 0.04374982 -0.01059287 0.00977955
v 0.04393589 -0.01047389 0.00977955
v 0.04406437 -0.01037833 0.00977955
v 0.04417956 -0.01029121 0.00977955
v 0.04440993 -0.01010290 0.00977955
v 0.04464917 -0.00987713 0.00977955
v 0.04470233 -0.00981998 0.00977955
v 0.04475993 -0.00975534 0.00977955
v 0.04495486 -0.00952207 0.00977955
v 0.04514979 -0.00921760 0.00977955
v 0.04522068 -0.00909768 0.00977955
v 0.04534030 -0.00873981 0.00977955
v 0.04541118 -0.00852434 0.00977955
v 0.04545548 -0.00803625 0.00977955
v 0.04546878 -0.00775146 0.00977955
v 0.04547320 -0.00762124 0.00977955
v 0.04551308 -0.00622911 0.00977955
v 0.04551751 -0.00565483 0.00977955
v 0.04551751 -0.00491005 0.00977955
v 0.04551308 -0.00433952 0.00977955
v 0.04549979 -0.00393293 0.00977955
v 0.04549093 -0.00375962 0.00977955
v 0.04547764 -0.00352729 0.00977955
v 0.04544219 -0.00313663 0.00977955
v 0.04542004 -0.00274503 0.00976348
v 0.04732950 -0.00274503 0.00829751
v 0.04732950 -0.00278531 0.00829895
v 0.04732950 -0.00335866 0.00830612
v 0.04761747 -0.00393293 0.00801127
v 0.04732950 -0.00393293 0.00830584
v 0.04761747 -0.00737673 0.00800782
v 0.04786557 -0.00795007 0.00771268
v 0.04831303 -0.00891969 0.00700123
v 0.04812696 -0.00852434 0.00733772
v 0.04783899 -0.00852434 0.00768196
v 0.04844594 -0.00873794 0.00684676
v 0.00386379 -0.01013288 0.00684676
v 0.00378848 -0.01024624 0.00684676
v 0.00364671 -0.01063783 0.00684676
v 0.00358468 -0.01081958 0.00684676
v 0.00364671 -0.01139386 0.00684676
v 0.00364671 -0.01139386 0.00781288
v 0.00367772 -0.01139386 0.00838651
v 0.00423151 -0.01220609 0.00781288
v 0.00438214 -0.01216955 0.00956997
v 0.00393025 -0.01189319 0.00838651
v 0.00390809 -0.01191848 0.00781288
v 0.00458150 -0.01227073 0.00940230
v 0.00494478 -0.01224918 0.00976405
v 0.00666374 -0.01224731 0.00974567
v 0.00723968 -0.01224637 0.00973764
v 0.00781119 -0.01224544 0.00972845
v 0.01355287 -0.01222764 0.00963227
v 0.02331283 -0.01225293 0.00921941
v 0.01814709 -0.01220703 0.00957312
v 0.02388433 -0.01216862 0.00953436
v 0.02446027 -0.01216206 0.00953436
v 0.02503178 -0.01215456 0.00953436
v 0.02560772 -0.01214613 0.00953436
v 0.02617480 -0.01213770 0.00953436
v 0.02732668 -0.01211896 0.00953436
v 0.02847413 -0.01209835 0.00953436
v 0.02904564 -0.01208805 0.00953436
v 0.02962158 -0.01207587 0.00953436
v 0.03076903 -0.01204964 0.00953436
v 0.03134497 -0.01203559 0.00953436
v 0.03363986 -0.01197750 0.00953436
v 0.03421137 -0.01196251 0.00953436
v 0.03478731 -0.01194565 0.00953436
v 0.03535882 -0.01192879 0.00953436
v 0.03651070 -0.01189319 0.00953436
v 0.03765815 -0.01185571 0.00953436
v 0.03828282 -0.01180513 0.00959150
v 0.03880560 -0.01182199 0.00952288
v 0.03937711 -0.01180887 0.00949647
v 0.03995305 -0.01179201 0.00946173
v 0.03995305 -0.01163837 0.00974883
v 0.04052899 -0.01160558 0.00969687
v 0.04110050 -0.01155687 0.00962882
v 0.04172074 -0.01153438 0.00950077
v 0.04224794 -0.01139854 0.00953436
v 0.04276629 -0.01124678 0.00954326
v 0.04339539 -0.01118401 0.00934574
v 0.04292135 -0.01103037 0.00974051
v 0.04372767 -0.01112405 0.00926822
v 0.04339539 -0.01091982 0.00963284
v 0.04391374 -0.01079147 0.00950250
v 0.04443651 -0.01064908 0.00935435
v 0.04409981 -0.01041581 0.00973677
v 0.04457828 -0.01027809 0.00955618
v 0.04511878 -0.01009916 0.00934660
v 0.04472448 -0.00983965 0.00975831
v 0.04509663 -0.00965791 0.00961935
v 0.04552194 -0.00967196 0.00932937
v 0.04593839 -0.00929817 0.00921596
v 0.04528270 -0.00909768 0.00974165
v 0.04602699 -0.00891594 0.00928372
v 0.04569472 -0.00852434 0.00958576
v 0.04610674 -0.00795007 0.00934057
v 0.04563713 -0.00791072 0.00966328
v 0.04569472 -0.00737673 0.00963514
v 0.04571687 -0.00622911 0.00963629
v 0.04611560 -0.00737673 0.00934832
v 0.04572130 -0.00508055 0.00963858
v 0.04571687 -0.00450721 0.00963887
v 0.04612003 -0.00393293 0.00935176
v 0.04570801 -0.00393293 0.00963887
v 0.04611117 -0.00335866 0.00934602
v 0.04563713 -0.00338020 0.00966643
v 0.04569472 -0.00278531 0.00959552
v 0.04569472 -0.00274503 0.00959207
v 0.04705039 -0.00274503 0.00856452
v 0.04704153 -0.00335866 0.00859294
v 0.04732950 -0.00450721 0.00830440
v 0.04760861 -0.00795007 0.00799949
v 0.04732950 -0.00737673 0.00829407
v 0.04824658 -0.00930191 0.00690878
v 0.04838392 -0.00901337 0.00684676
v 0.04776810 -0.00909768 0.00759956
v 0.04807822 -0.00910518 0.00721110
v 0.04757760 -0.00852434 0.00796906
v 0.00390809 -0.01191848 0.00684676
v 0.00423594 -0.01220515 0.00684676
v 0.00451948 -0.01228478 0.00684676
v 0.00451948 -0.01228478 0.00781288
v 0.00494478 -0.01231570 0.00781288
v 0.00494478 -0.01227823 0.00947723
v 0.00551629 -0.01227823 0.00947149
v 0.00666374 -0.01227729 0.00945886
v 0.01986605 -0.01225949 0.00926707
v 0.02230272 -0.01225481 0.00924094
v 0.02158944 -0.01228291 0.00896044
v 0.02388433 -0.01227729 0.00891852
v 0.03191648 -0.01228478 0.00838651
v 0.03270064 -0.01225481 0.00866874
v 0.03306392 -0.01225387 0.00865754
v 0.02388433 -0.01225106 0.00920534
v 0.02446027 -0.01224918 0.00918610
v 0.03363986 -0.01225199 0.00863974
v 0.03421137 -0.01216300 0.00896044
v 0.03478731 -0.01215269 0.00896044
v 0.03535882 -0.01214145 0.00896044
v 0.03651070 -0.01211522 0.00896044
v 0.03765815 -0.01208711 0.00896044
v 0.03822966 -0.01207306 0.00896044
v 0.03880560 -0.01205713 0.00896044
v 0.03937711 -0.01203652 0.00896044
v 0.03995305 -0.01200936 0.00896044
v 0.04052899 -0.01197001 0.00896044
v 0.04052899 -0.01176672 0.00941005
v 0.04110050 -0.01173393 0.00934172
v 0.04155682 -0.01170395 0.00928688
v 0.04193782 -0.01167772 0.00924152
v 0.04224794 -0.01164587 0.00918352
v 0.04282388 -0.01156811 0.00906437
v 0.04337324 -0.01149035 0.00891881
v 0.04394032 -0.01125521 0.00896676
v 0.04443208 -0.01118307 0.00877928
v 0.04481752 -0.01109876 0.00866271
v 0.04410867 -0.01103130 0.00916199
v 0.04462702 -0.01087392 0.00900925
v 0.04481752 -0.01052260 0.00923922
v 0.04541118 -0.00996519 0.00925156
v 0.04580991 -0.00967196 0.00911892
v 0.04624851 -0.00962137 0.00880368
v 0.04655863 -0.00939560 0.00867908
v 0.04623965 -0.00910330 0.00904772
v 0.04572573 -0.00910330 0.00943503
v 0.04662509 -0.00909768 0.00873449
v 0.04636370 -0.00852434 0.00909193
v 0.04607573 -0.00852434 0.00931789
v 0.04639471 -0.00795007 0.00911691
v 0.04640357 -0.00737673 0.00912524
v 0.04640800 -0.00508055 0.00913041
v 0.04612003 -0.00565483 0.00935090
v 0.04612003 -0.00508055 0.00935176
v 0.04612003 -0.00450721 0.00935205
v 0.04640800 -0.00450721 0.00913012
v 0.04640800 -0.00393293 0.00912954
v 0.04639914 -0.00335866 0.00912610
v 0.04638142 -0.00278531 0.00911461
v 0.04609345 -0.00274503 0.00932937
v 0.04702824 -0.00274503 0.00858433
v 0.04702824 -0.00278531 0.00858577
v 0.04703710 -0.00508055 0.00858892
v 0.04675356 -0.00335866 0.00883899
v 0.04675356 -0.00393293 0.00884244
v 0.04674913 -0.00508055 0.00884330
v 0.04732064 -0.00795007 0.00828574
v 0.04729406 -0.00852434 0.00826076
v 0.04702824 -0.00680338 0.00858261
v 0.04702381 -0.00737673 0.00858089
v 0.04822442 -0.00942651 0.00684676
v 0.04830417 -0.00924477 0.00684676
v 0.04771051 -0.00940028 0.00753496
v 0.04783456 -0.00962418 0.00722259
v 0.04807822 -0.00969819 0.00684676
v 0.04750228 -0.00909768 0.00788666
v 0.04721431 -0.00909768 0.00818726
v 0.00465681 -0.01229509 0.00684676
v 0.02331283 -0.01231570 0.00781288
v 0.01929454 -0.01231476 0.00838651
v 0.00494478 -0.01231570 0.00684676
v 0.01986605 -0.01231476 0.00838651
v 0.01929454 -0.01229041 0.00896044
v 0.01527625 -0.01226698 0.00932018
v 0.03134497 -0.01228760 0.00838651
v 0.03880560 -0.01229134 0.00781288
v 0.03306392 -0.01228010 0.00837044
v 0.03363986 -0.01227823 0.00835264
v 0.03937711 -0.01228760 0.00781288
v 0.03937711 -0.01225855 0.00811663
v 0.03976698 -0.01225668 0.00810515
v 0.03421137 -0.01224918 0.00861591
v 0.03937711 -0.01219579 0.00840317
v 0.03995305 -0.01219860 0.00833225
v 0.04052899 -0.01216300 0.00838651
v 0.04110050 -0.01212646 0.00838651
v 0.04167644 -0.01207400 0.00838651
v 0.04110050 -0.01191567 0.00896044
v 0.04172074 -0.01181731 0.00901413
v 0.04224794 -0.01179014 0.00889670
v 0.04282388 -0.01173299 0.00877727
v 0.04316945 -0.01169552 0.00869975
v 0.04355045 -0.01164399 0.00860213
v 0.04397133 -0.01156623 0.00847982
v 0.04453841 -0.01139479 0.00838336
v 0.04511878 -0.01070529 0.00884617
v 0.04464917 -0.01160652 0.00795787
v 0.04511878 -0.01121024 0.00825732
v 0.04544662 -0.01112873 0.00812927
v 0.04582763 -0.01100507 0.00797538
v 0.04564599 -0.01079241 0.00835120
v 0.04546878 -0.01057881 0.00872071
v 0.04511878 -0.01038676 0.00913299
v 0.04563270 -0.01018909 0.00891422
v 0.04604472 -0.01002983 0.00872501
v 0.04642572 -0.00977782 0.00856710
v 0.04679344 -0.00959983 0.00834374
v 0.04714786 -0.00942276 0.00812065
v 0.04691305 -0.00909768 0.00847379
v 0.04670040 -0.00852434 0.00880483
v 0.04698837 -0.00852434 0.00854758
v 0.04672698 -0.00795007 0.00883009
v 0.04673584 -0.00737673 0.00883842
v 0.04674027 -0.00680338 0.00883985
v 0.04674470 -0.00278531 0.00882751
v 0.04640357 -0.00274503 0.00909337
v 0.04676242 -0.00274503 0.00880942
v 0.04701495 -0.00795007 0.00857256
v 0.04737381 -0.00960264 0.00776780
v 0.04759532 -0.00978251 0.00740318
v 0.04798076 -0.00987151 0.00684676
v 0.04775481 -0.01003639 0.00702046
v 0.03765815 -0.01231570 0.00723866
v 0.03765815 -0.01231570 0.00684676
v 0.02044199 -0.01231383 0.00838651
v 0.03134497 -0.01231476 0.00781288
v 0.02216538 -0.01231102 0.00838651
v 0.02388433 -0.01230727 0.00838651
v 0.02503178 -0.01230446 0.00838651
v 0.03076903 -0.01228947 0.00838651
v 0.03249242 -0.01231195 0.00781288
v 0.03651070 -0.01229884 0.00781288
v 0.03937711 -0.01231383 0.00723866
v 0.03995305 -0.01231102 0.00723866
v 0.04052899 -0.01230633 0.00723866
v 0.04110050 -0.01229884 0.00723866
v 0.03995305 -0.01227635 0.00786283
v 0.04014798 -0.01225387 0.00808764
v 0.04052899 -0.01224731 0.00802993
v 0.04110050 -0.01223138 0.00793174
v 0.04167644 -0.01220796 0.00785106
v 0.04219921 -0.01218735 0.00775718
v 0.04282388 -0.01210491 0.00781288
v 0.04224794 -0.01200092 0.00838651
v 0.04282388 -0.01190630 0.00838651
v 0.04337324 -0.01178358 0.00840116
v 0.04397133 -0.01172362 0.00819300
v 0.04426373 -0.01168334 0.00810429
v 0.04528270 -0.01163462 0.00742614
v 0.04510106 -0.01150628 0.00778503
v 0.04565928 -0.01123366 0.00779565
v 0.04605357 -0.01115122 0.00759267
v 0.04626623 -0.01082239 0.00781000
v 0.04608902 -0.01062191 0.00819099
v 0.04584978 -0.01041206 0.00857342
v 0.04625737 -0.01024062 0.00837905
v 0.04664724 -0.01006918 0.00818468
v 0.04702824 -0.00980499 0.00800064
v 0.04721431 -0.01007011 0.00761822
v 0.04781241 -0.01012914 0.00684676
v 0.04741368 -0.01024437 0.00723464
v 0.04762190 -0.01038676 0.00684676
v 0.03937711 -0.01231476 0.00684676
v 0.03880560 -0.01231476 0.00723866
v 0.03995305 -0.01231383 0.00684676
v 0.04052899 -0.01231195 0.00684676
v 0.04110050 -0.01231008 0.00684676
v 0.04167644 -0.01230539 0.00684676
v 0.04167644 -0.01228853 0.00723866
v 0.04052899 -0.01227542 0.00774282
v 0.04197327 -0.01225574 0.00752893
v 0.04235427 -0.01224450 0.00742500
v 0.04282388 -0.01221827 0.00730900
v 0.04334223 -0.01218173 0.00718325
v 0.04397133 -0.01207212 0.00723866
v 0.04339539 -0.01200748 0.00781288
v 0.04397133 -0.01188101 0.00781288
v 0.04448968 -0.01174611 0.00778503
v 0.04490170 -0.01170395 0.00757515
v 0.04550422 -0.01171894 0.00704372
v 0.04588965 -0.01164212 0.00685882
v 0.04569472 -0.01154188 0.00723637
v 0.04625294 -0.01125052 0.00722517
v 0.04662065 -0.01114935 0.00702448
v 0.04643901 -0.01102194 0.00740720
v 0.04667382 -0.01063971 0.00764463
v 0.04647445 -0.01045234 0.00802734
v 0.04685103 -0.01026123 0.00782264
v 0.04705482 -0.01045328 0.00744854
v 0.04758203 -0.01043361 0.00684676
v 0.04223465 -0.01229415 0.00684676
v 0.04110050 -0.01226886 0.00764463
v 0.04282388 -0.01227542 0.00684676
v 0.04219921 -0.01227167 0.00723579
v 0.04311628 -0.01225574 0.00695500
v 0.04348400 -0.01223045 0.00684676
v 0.04396247 -0.01216019 0.00684676
v 0.04454284 -0.01205526 0.00684676
v 0.04454284 -0.01194003 0.00723866
v 0.04510106 -0.01177702 0.00723637
v 0.04560611 -0.01175454 0.00684676
v 0.04511435 -0.01191099 0.00684676
v 0.04530485 -0.01185103 0.00684676
v 0.04587636 -0.01165055 0.00684676
v 0.04591181 -0.01163556 0.00684676
v 0.04626180 -0.01144819 0.00684676
v 0.04671369 -0.01118963 0.00684676
v 0.04693521 -0.01103505 0.00684676
v 0.04698837 -0.01099477 0.00684676
v 0.04703710 -0.01095542 0.00684676
v 0.04683774 -0.01082520 0.00723665
v 0.04722761 -0.01062847 0.00706583
v 0.04730735 -0.01071372 0.00684676
v 0.04300553 -0.01226792 0.00684676
v 0.04319160 -0.01225949 0.00684676
v 0.04339539 -0.01224169 0.00684676
f 1 2 3
f 1 3 12
f 1 12 22
f 1 22 35
f 1 35 134
f 1 134 216
f 1 216 292
f 1 292 291
f 1 291 295
f 1 295 351
f 1 351 390
f 1 390 392
f 1 392 420
f 1 420 443
f 1 443 440
f 1 440 439
f 1 439 438
f 1 438 437
f 1 437 436
f 1 436 435
f 1 435 434
f 1 434 431
f 1 431 433
f 1 433 432
f 1 432 428
f 1 428 427
f 1 427 426
f 1 426 446
f 1 446 445
f 1 445 444
f 1 444 423
f 1 423 421
f 1 421 398
f 1 398 397
f 1 397 396
f 1 396 395
f 1 395 393
f 1 393 354
f 1 354 301
f 1 301 298
f 1 298 222
f 1 222 221
f 1 221 220
f 1 220 139
f 1 139 138
f 1 138 137
f 1 137 136
f 1 136 135
f 1 135 36
f 1 36 24
f 1 24 13
f 1 13 4
f 1 4 15
f 1 15 27
f 1 27 123
f 1 123 209
f 1 209 280
f 1 280 346
f 1 346 347
f 1 347 281
f 1 281 210
f 1 210 124
f 1 124 28
f 1 28 16
f 1 16 5
f 1 5 2
f 2 5 6
f 2 6 7
f 2 7 8
f 2 8 9
f 2 9 3
f 3 9 10
f 3 10 11
f 3 11 12
f 4 13 14
f 4 14 15
f 5 16 6
f 6 16 17
f 6 17 7
f 7 18 9
f 7 9 8
f 7 17 19
f 7 19 18
f 9 18 20
f 9 20 10
f 10 20 23
f 10 23 11
f 11 21 22
f 11 22 12
f 11 23 34
f 11 34 21
f 13 24 25
f 13 25 14
f 14 25 26
f 14 26 15
f 15 26 27
f 16 28 29
f 16 29 17
f 17 29 30
f 17 30 19
f 18 19 31
f 18 31 20
f 19 30 127
f 19 127 31
f 20 31 32
f 20 32 23
f 21 33 22
f 21 34 33
f 22 33 35
f 23 32 34
f 24 36 37
f 24 37 25
f 25 37 26
f 26 37 38
f 26 38 39
f 26 39 40
f 26 40 41
f 26 41 42
f 26 42 43
f 26 43 44
f 26 44 45
f 26 45 46
f 26 46 47
f 26 47 48
f 26 48 49
f 26 49 50
f 26 50 51
f 26 51 52
f 26 52 53
f 26 53 54
f 26 54 55
f 26 55 56
f 26 56 57
f 26 57 58
f 26 58 59
f 26 59 60
f 26 60 61
f 26 61 62
f 26 62 63
f 26 63 64
f 26 64 65
f 26 65 66
f 26 66 67
f 26 67 68
f 26 68 69
f 26 69 70
f 26 70 71
f 26 71 72
f 26 72 73
f 26 73 74
f 26 74 75
f 26 75 76
f 26 76 77
f 26 77 78
f 26 78 79
f 26 79 80
f 26 80 81
f 26 81 82
f 26 82 83
f 26 83 84
f 26 84 85
f 26 85 86
f 26 86 87
f 26 87 88
f 26 88 89
f 26 89 90
f 26 90 91
f 26 91 92
f 26 92 93
f 26 93 94
f 26 94 95
f 26 95 96
f 26 96 97
f 26 97 98
f 26 98 99
f 26 99 100
f 26 100 101
f 26 101 102
f 26 102 103
f 26 103 104
f 26 104 105
f 26 105 106
f 26 106 107
f 26 107 108
f 26 108 109
f 26 109 110
f 26 110 111
f 26 111 112
f 26 112 113
f 26 113 114
f 26 114 115
f 26 115 116
f 26 116 117
f 26 117 118
f 26 118 119
f 26 119 120
f 26 120 121
f 26 121 122
f 26 122 27
f 27 122 123
f 28 124 29
f 29 124 125
f 29 125 126
f 29 126 30
f 30 126 128
f 30 128 127
f 31 127 129
f 31 129 32
f 32 129 130
f 32 130 34
f 33 131 35
f 33 34 132
f 33 132 131
f 34 130 133
f 34 133 132
f 35 131 134
f 36 135 37
f 37 135 136
f 37 136 38
f 38 136 137
f 38 137 138
f 38 138 39
f 39 138 40
f 40 138 139
f 40 139 140
f 40 140 41
f 41 140 141
f 41 141 42
f 42 141 43
f 43 141 44
f 44 141 45
f 45 141 46
f 46 142 143
f 46 143 47
f 46 141 144
f 46 144 145
f 46 145 142
f 47 143 146
f 47 146 48
f 48 147 49
f 48 146 147
f 49 147 50
f 50 147 51
f 51 148 52
f 51 147 148
f 52 148 149
f 52 149 53
f 53 149 150
f 53 150 54
f 54 150 55
f 55 150 56
f 56 151 152
f 56 152 153
f 56 153 154
f 56 154 57
f 56 150 151
f 57 154 58
f 58 154 155
f 58 155 59
f 59 155 60
f 60 155 156
f 60 156 61
f 61 156 157
f 61 157 62
f 62 157 158
f 62 158 159
f 62 159 63
f 63 159 64
f 64 159 160
f 64 160 161
f 64 161 65
f 65 161 66
f 66 161 67
f 67 161 162
f 67 162 68
f 68 162 69
f 69 162 163
f 69 163 164
f 69 164 70
f 70 164 165
f 70 165 71
f 71 165 72
f 72 165 166
f 72 166 73
f 73 166 74
f 74 166 75
f 75 166 167
f 75 167 168
f 75 168 169
f 75 169 76
f 76 169 170
f 76 170 77
f 77 170 78
f 78 170 79
f 79 170 171
f 79 171 80
f 80 171 172
f 80 172 81
f 81 172 82
f 82 172 173
f 82 173 83
f 83 173 174
f 83 174 175
f 83 175 84
f 84 175 85
f 85 175 86
f 86 175 87
f 87 175 176
f 87 176 88
f 88 176 177
f 88 177 89
f 89 177 178
f 89 178 90
f 90 178 179
f 90 179 91
f 91 179 92
f 92 179 180
f 92 180 93
f 93 180 181
f 93 181 94
f 94 182 95
f 94 181 183
f 94 183 182
f 95 182 96
f 96 182 97
f 97 184 98
f 97 182 184
f 98 183 99
f 98 184 183
f 99 183 185
f 99 185 186
f 99 186 100
f 100 186 187
f 100 187 101
f 101 187 102
f 102 187 188
f 102 188 103
f 103 188 189
f 103 189 190
f 103 190 104
f 104 190 105
f 105 190 106
f 106 190 107
f 107 190 191
f 107 191 192
f 107 192 193
f 107 193 108
f 108 193 194
f 108 194 109
f 109 194 110
f 110 194 111
f 111 194 195
f 111 195 196
f 111 196 197
f 111 197 112
f 112 198 113
f 112 197 198
f 113 198 114
f 114 198 199
f 114 199 115
f 115 200 116
f 115 199 201
f 115 201 200
f 116 200 202
f 116 202 117
f 117 202 203
f 117 203 118
f 118 203 204
f 118 204 205
f 118 205 119
f 119 205 120
f 120 205 206
f 120 206 207
f 120 207 121
f 121 207 208
f 121 208 122
f 122 208 123
f 123 208 209
f 124 210 125
f 125 210 211
f 125 211 126
f 126 211 128
f 127 128 129
f 128 212 129
f 128 211 212
f 129 213 130
f 129 212 214
f 129 214 287
f 129 287 213
f 130 213 133
f 131 215 216
f 131 216 134
f 131 132 133
f 131 133 217
f 131 217 218
f 131 218 215
f 133 213 219
f 133 219 217
f 139 220 145
f 139 145 140
f 140 145 141
f 141 145 144
f 142 221 222
f 142 222 223
f 142 223 146
f 142 146 143
f 142 145 220
f 142 220 221
f 146 223 224
f 146 224 225
f 146 225 147
f 147 225 226
f 147 226 227
f 147 227 148
f 148 227 228
f 148 228 229
f 148 229 149
f 149 229 150
f 150 229 152
f 150 152 151
f 152 229 230
f 152 230 231
f 152 231 232
f 152 232 233
f 152 233 234
f 152 234 235
f 152 235 154
f 152 154 153
f 154 235 155
f 155 235 236
f 155 236 156
f 156 236 237
f 156 237 157
f 157 237 238
f 157 238 158
f 158 238 159
f 159 238 239
f 159 239 160
f 160 239 161
f 161 239 240
f 161 240 162
f 162 240 241
f 162 241 163
f 163 241 164
f 164 241 242
f 164 242 243
f 164 243 165
f 165 243 166
f 166 243 244
f 166 244 167
f 167 244 168
f 168 244 169
f 169 244 170
f 170 244 172
f 170 172 171
f 172 244 245
f 172 245 173
f 173 246 174
f 173 245 246
f 174 246 247
f 174 247 248
f 174 248 175
f 175 248 176
f 176 248 249
f 176 249 250
f 176 250 251
f 176 251 177
f 177 251 178
f 178 251 179
f 179 252 180
f 179 251 252
f 180 252 253
f 180 253 181
f 181 254 183
f 181 253 254
f 182 183 184
f 183 255 256
f 183 256 257
f 183 257 258
f 183 258 185
f 183 254 255
f 185 258 186
f 186 258 259
f 186 259 260
f 186 260 187
f 187 260 188
f 188 260 189
f 189 261 190
f 189 260 261
f 190 261 191
f 191 261 192
f 192 261 262
f 192 262 193
f 193 263 264
f 193 264 265
f 193 265 195
f 193 195 266
f 193 266 194
f 193 262 263
f 194 266 195
f 195 265 267
f 195 267 268
f 195 268 269
f 195 269 196
f 196 269 197
f 197 201 198
f 197 269 270
f 197 270 271
f 197 271 201
f 198 201 199
f 200 201 202
f 201 271 272
f 201 272 273
f 201 273 202
f 202 273 274
f 202 274 275
f 202 275 204
f 202 204 203
f 204 206 205
f 204 275 272
f 204 272 276
f 204 276 277
f 204 277 278
f 204 278 206
f 206 278 279
f 206 279 280
f 206 280 207
f 207 280 208
f 208 280 209
f 210 281 282
f 210 282 211
f 211 283 214
f 211 214 212
f 211 282 284
f 211 284 285
f 211 285 286
f 211 286 283
f 213 287 288
f 213 288 219
f 214 283 289
f 214 289 290
f 214 290 348
f 214 348 287
f 215 291 292
f 215 292 216
f 215 218 293
f 215 293 294
f 215 294 295
f 215 295 291
f 217 219 296
f 217 296 293
f 217 293 218
f 219 288 297
f 219 297 296
f 222 298 223
f 223 298 224
f 224 299 302
f 224 302 300
f 224 300 225
f 224 298 301
f 224 301 354
f 224 354 353
f 224 353 299
f 225 300 302
f 225 302 226
f 226 302 303
f 226 303 227
f 227 303 304
f 227 304 228
f 228 304 303
f 228 303 229
f 229 303 230
f 230 303 305
f 230 305 231
f 231 305 232
f 232 305 306
f 232 306 307
f 232 307 233
f 233 307 234
f 234 307 308
f 234 308 237
f 234 237 235
f 235 237 236
f 237 308 309
f 237 309 310
f 237 310 311
f 237 311 312
f 237 312 238
f 238 312 239
f 239 312 240
f 240 312 313
f 240 313 241
f 241 313 242
f 242 313 243
f 243 313 244
f 244 313 314
f 244 314 315
f 244 315 245
f 245 315 246
f 246 315 316
f 246 316 247
f 247 316 317
f 247 317 318
f 247 318 248
f 248 318 249
f 249 318 319
f 249 319 250
f 250 319 251
f 251 319 320
f 251 320 252
f 252 320 321
f 252 321 322
f 252 322 253
f 253 322 323
f 253 323 254
f 254 323 255
f 255 323 324
f 255 324 256
f 256 325 257
f 256 324 325
f 257 326 260
f 257 260 259
f 257 259 258
f 257 325 327
f 257 327 328
f 257 328 329
f 257 329 330
f 257 330 331
f 257 331 332
f 257 332 326
f 260 326 332
f 260 332 333
f 260 333 261
f 261 333 334
f 261 334 335
f 261 335 262
f 262 335 263
f 263 335 336
f 263 336 264
f 264 267 265
f 264 336 337
f 264 337 338
f 264 338 339
f 264 339 267
f 267 340 268
f 267 339 341
f 267 341 340
f 268 340 270
f 268 270 269
f 270 340 342
f 270 342 343
f 270 343 271
f 271 343 344
f 271 344 286
f 271 286 272
f 272 275 274
f 272 274 273
f 272 286 285
f 272 285 276
f 276 285 277
f 277 285 284
f 277 284 278
f 278 284 345
f 278 345 279
f 279 345 346
f 279 346 280
f 281 347 345
f 281 345 282
f 282 345 284
f 283 286 344
f 283 344 289
f 287 348 341
f 287 341 288
f 288 341 339
f 288 339 297
f 289 344 343
f 289 343 290
f 290 343 342
f 290 342 348
f 293 296 338
f 293 338 349
f 293 349 350
f 293 350 294
f 294 351 295
f 294 350 352
f 294 352 351
f 296 297 338
f 297 339 338
f 299 353 302
f 302 355 303
f 302 353 356
f 302 356 355
f 303 355 357
f 303 357 358
f 303 358 359
f 303 359 360
f 303 360 305
f 305 360 361
f 305 361 362
f 305 362 306
f 306 362 363
f 306 363 364
f 306 364 309
f 306 309 308
f 306 308 307
f 309 364 365
f 309 365 366
f 309 366 367
f 309 367 368
f 309 368 311
f 309 311 310
f 311 368 312
f 312 368 313
f 313 368 314
f 314 368 315
f 315 368 369
f 315 369 316
f 316 370 371
f 316 371 372
f 316 372 317
f 316 369 370
f 317 319 318
f 317 372 373
f 317 373 374
f 317 374 319
f 319 374 320
f 320 374 375
f 320 375 321
f 321 375 322
f 322 376 323
f 322 375 376
f 323 376 377
f 323 377 378
f 323 378 324
f 324 378 325
f 325 378 327
f 327 378 379
f 327 379 380
f 327 380 328
f 328 380 381
f 328 381 329
f 329 381 382
f 329 382 330
f 330 382 383
f 330 383 384
f 330 384 331
f 331 384 332
f 332 384 385
f 332 385 334
f 332 334 333
f 334 385 335
f 335 386 387
f 335 387 336
f 335 385 386
f 336 387 337
f 337 388 338
f 337 387 388
f 338 388 349
f 340 341 342
f 341 348 342
f 345 347 346
f 349 388 389
f 349 389 350
f 350 389 352
f 351 352 390
f 352 389 391
f 352 391 392
f 352 392 390
f 353 354 393
f 353 393 394
f 353 394 356
f 355 356 357
f 356 394 363
f 356 363 361
f 356 361 359
f 356 359 358
f 356 358 357
f 359 361 360
f 361 363 362
f 363 394 395
f 363 395 396
f 363 396 397
f 363 397 364
f 364 397 398
f 364 398 365
f 365 398 366
f 366 398 399
f 366 399 400
f 366 400 367
f 367 400 368
f 368 400 401
f 368 401 369
f 369 401 370
f 370 401 371
f 371 401 372
f 372 402 403
f 372 403 373
f 372 401 402
f 373 375 374
f 373 403 404
f 373 404 405
f 373 405 406
f 373 406 375
f 375 406 376
f 376 406 407
f 376 407 377
f 377 407 378
f 378 408 409
f 378 409 379
f 378 407 408
f 379 409 410
f 379 410 411
f 379 411 412
f 379 412 381
f 379 381 380
f 381 412 382
f 382 413 414
f 382 414 415
f 382 415 383
f 382 412 413
f 383 415 416
f 383 416 384
f 384 416 417
f 384 417 385
f 385 417 386
f 386 417 387
f 387 417 418
f 387 418 389
f 387 389 388
f 389 418 419
f 389 419 391
f 391 419 392
f 392 419 420
f 393 395 394
f 398 421 399
f 399 401 422
f 399 422 400
f 399 421 423
f 399 423 424
f 399 424 401
f 400 422 401
f 401 424 425
f 401 425 402
f 402 425 403
f 403 425 404
f 404 426 427
f 404 427 405
f 404 425 426
f 405 407 406
f 405 427 428
f 405 428 429
f 405 429 407
f 407 429 408
f 408 429 430
f 408 430 409
f 409 430 410
f 410 431 411
f 410 430 432
f 410 432 433
f 410 433 431
f 411 434 435
f 411 435 436
f 411 436 413
f 411 413 412
f 411 431 434
f 413 436 414
f 414 436 437
f 414 437 438
f 414 438 415
f 415 438 439
f 415 439 440
f 415 440 441
f 415 441 416
f 416 441 442
f 416 442 419
f 416 419 417
f 417 419 418
f 419 442 420
f 420 442 443
f 423 444 425
f 423 425 424
f 425 444 445
f 425 445 446
f 425 446 426
f 428 432 429
f 429 432 430
f 440 443 442
f 440 442 441

