# https://github.com/mikedh/trimesh
v 0.04137975 0.03139366 -0.02869916
v 0.04137975 0.03400995 -0.02869916
v 0.06929158 0.03139366 -0.02869916
v 0.00902149 0.02900324 -0.02869554
v 0.00903231 0.03025008 -0.02869554
v 0.01153139 0.03401125 -0.02869554
v 0.01153139 0.03526454 -0.02868830
v 0.06918340 0.03400995 -0.02869916
v 0.07043835 0.03150337 -0.02869192
v 0.07043835 0.03139366 -0.02869192
v 0.04136893 0.02900324 -0.02869554
v 0.00777736 0.02900324 -0.02868105
v 0.00777736 0.03025008 -0.02868105
v 0.00777736 0.03651396 -0.02846011
v 0.01027644 0.03651396 -0.02854342
v 0.01153139 0.03651396 -0.02855066
v 0.06918340 0.03651396 -0.02856152
v 0.01279716 0.03526454 -0.02868830
v 0.06918340 0.03526454 -0.02868105
v 0.07043835 0.03526454 -0.02866656
v 0.07043835 0.03400995 -0.02868105
v 0.07043835 0.03275666 -0.02868830
v 0.07169330 0.03150337 -0.02865570
v 0.07169330 0.03139366 -0.02865570
v 0.07305644 0.03139366 -0.02858688
v 0.07419238 0.03139366 -0.02852893
v 0.07544733 0.03139366 -0.02845287
v 0.07671310 0.03139366 -0.02832610
v 0.07806542 0.03139366 -0.02815224
v 0.07967738 0.03139366 -0.02792768
v 0.08046714 0.03139366 -0.02778642
v 0.08172209 0.03139366 -0.02754737
v 0.08296622 0.03139366 -0.02728658
v 0.08307441 0.03139366 -0.02726123
v 0.08423199 0.03139366 -0.02698958
v 0.08510829 0.03139366 -0.02676501
v 0.08573577 0.03139366 -0.02659478
v 0.08673107 0.03139366 -0.02630140
v 0.08798602 0.03139366 -0.02591747
v 0.08900297 0.03139366 -0.02558062
v 0.08963044 0.03139366 -0.02535606
v 0.09049592 0.03139366 -0.02504456
v 0.09162105 0.03139366 -0.02460992
v 0.04136893 0.02900324 -0.02581605
v 0.00651159 0.02900324 -0.02856515
v 0.00651159 0.03025008 -0.02856877
v 0.00651159 0.03150337 -0.02856152
v 0.00776654 0.03787697 -0.02813775
v 0.00903231 0.03776725 -0.02820657
v 0.00651159 0.03651396 -0.02838043
v 0.03284392 0.03776725 -0.02822106
v 0.06918340 0.03776725 -0.02824279
v 0.07043835 0.03651396 -0.02855428
v 0.07169330 0.03651396 -0.02852169
v 0.07169330 0.03526454 -0.02862672
v 0.07169330 0.03400995 -0.02863759
v 0.07294825 0.03526454 -0.02856515
v 0.07419238 0.03150337 -0.02852893
v 0.07544733 0.03150337 -0.02845287
v 0.07671310 0.03400995 -0.02832972
v 0.07795724 0.03400995 -0.02817035
v 0.07967738 0.03400995 -0.02792768
v 0.08046714 0.03400995 -0.02778642
v 0.08172209 0.03400995 -0.02754737
v 0.08296622 0.03400995 -0.02728658
v 0.08423199 0.03400995 -0.02699320
v 0.08510829 0.03400995 -0.02676501
v 0.08573577 0.03400995 -0.02659478
v 0.08673107 0.03150337 -0.02630140
v 0.08798602 0.03400995 -0.02591747
v 0.08900297 0.03400995 -0.02558062
v 0.08963044 0.03400995 -0.02535606
v 0.09049592 0.03400995 -0.02504456
v 0.09163187 0.03400995 -0.02460992
v 0.08833222 0.03139366 -0.02274460
v 0.09712769 0.03733486 -0.02173768
v 0.09757125 0.03733486 -0.02149501
v 0.09964841 0.03733486 -0.02028888
v 0.10132529 0.03733486 -0.01928197
v 0.10319689 0.03733486 -0.01799615
v 0.10504686 0.03734648 -0.01668137
v 0.10639918 0.03734648 -0.01558753
v 0.10772986 0.03734648 -0.01442849
v 0.10907136 0.03734648 -0.01325134
v 0.10968802 0.03734648 -0.01266095
v 0.11014240 0.03734648 -0.01203435
v 0.11014240 0.03734648 -0.01119042
v 0.09622975 0.03436103 -0.00225857
v 0.00363386 0.02900324 -0.02284239
v 0.07862799 0.03431198 -0.00033529
v 0.00526746 0.02900324 -0.02825003
v 0.00526746 0.03401125 -0.02826814
v 0.00526746 0.03526454 -0.02822830
v 0.00651159 0.03756848 -0.02810153
v 0.00734462 0.03836873 -0.02793854
v 0.00817765 0.03841262 -0.02796390
v 0.00903231 0.03842294 -0.02796752
v 0.03535382 0.03845134 -0.02798563
v 0.00527828 0.03641845 -0.02807980
v 0.00570020 0.03731808 -0.02801098
v 0.06918340 0.03845263 -0.02798201
v 0.07043835 0.03844230 -0.02797838
v 0.07043835 0.03776725 -0.02822830
v 0.03660877 0.03845263 -0.02798563
v 0.07169330 0.03776725 -0.02820295
v 0.07294825 0.03651396 -0.02847460
v 0.07419238 0.03526454 -0.02849995
v 0.07419238 0.03400995 -0.02851082
v 0.07544733 0.03400995 -0.02844200
v 0.07671310 0.03526454 -0.02831523
v 0.07795724 0.03526454 -0.02815586
v 0.07899582 0.03526454 -0.02801098
v 0.07962329 0.03526454 -0.02791681
v 0.08046714 0.03526454 -0.02777193
v 0.08172209 0.03526454 -0.02752926
v 0.08296622 0.03526454 -0.02726847
v 0.08423199 0.03526454 -0.02697509
v 0.08507584 0.03526454 -0.02675777
v 0.08570331 0.03526454 -0.02658754
v 0.08673107 0.03526454 -0.02628329
v 0.08673107 0.03400995 -0.02629778
v 0.08798602 0.03526454 -0.02589936
v 0.08898133 0.03526454 -0.02557700
v 0.09049592 0.03526454 -0.02502645
v 0.09157778 0.03526454 -0.02460992
v 0.09461779 0.03733486 -0.02298365
v 0.09538590 0.03764722 -0.02248743
v 0.09622975 0.03846683 -0.02172319
v 0.09788499 0.03764722 -0.02119076
v 0.09890193 0.03776854 -0.02057140
v 0.09951859 0.03776854 -0.02020920
v 0.10131447 0.03738391 -0.01927110
v 0.10273170 0.03776854 -0.01815190
v 0.10314280 0.03776854 -0.01786214
v 0.10431120 0.03774402 -0.01703995
v 0.10473313 0.03814414 -0.01653649
v 0.10611790 0.03832485 -0.01537021
v 0.10635591 0.03748975 -0.01556579
v 0.10765413 0.03776984 -0.01435967
v 0.10898481 0.03776984 -0.01318252
v 0.10961229 0.03776984 -0.01258127
v 0.11001257 0.03853782 -0.01175907
v 0.11009912 0.03776984 -0.01195828
v 0.11009912 0.03776984 -0.01120491
v 0.10884417 0.04071398 -0.00034253
v 0.10885499 0.04022221 -0.00034253
v 0.10880090 0.03956265 -0.00034253
v 0.10874681 0.03936259 -0.00034253
v 0.10832488 0.03865656 -0.00034253
v 0.09622975 0.03445267 -0.00179133
v -0.00037982 0.02900324 -0.02284239
v 0.09622975 0.03452366 -0.00146898
v 0.07294825 0.03703799 0.00830318
v 0.05040241 0.03431198 -0.00033529
v 0.00453180 0.02900324 -0.02799287
v 0.00451016 0.03401125 -0.02801098
v 0.00455344 0.03526454 -0.02798925
v 0.00461835 0.03593572 -0.02796027
v 0.00651159 0.03819449 -0.02786972
v 0.00776654 0.03890696 -0.02762343
v 0.00651159 0.03902055 -0.02738075
v 0.00903231 0.03905023 -0.02757272
v 0.03158897 0.03907734 -0.02757634
v 0.00486717 0.03677211 -0.02787697
v 0.00527828 0.03774789 -0.02769224
v 0.06918340 0.03907992 -0.02758359
v 0.07043835 0.03907089 -0.02757634
v 0.07169330 0.03841391 -0.02796390
v 0.03284392 0.03907863 -0.02757634
v 0.03535382 0.03907992 -0.02757634
v 0.07284007 0.03787180 -0.02813051
v 0.07419238 0.03765109 -0.02813413
v 0.07419238 0.03651396 -0.02840578
v 0.07544733 0.03526454 -0.02842751
v 0.07544733 0.03651396 -0.02831885
v 0.07671310 0.03651396 -0.02819570
v 0.07882272 0.03610996 -0.02798201
v 0.08046714 0.03651396 -0.02765240
v 0.08172209 0.03651396 -0.02741335
v 0.08296622 0.03651396 -0.02714895
v 0.08498929 0.03610222 -0.02673242
v 0.08673107 0.03651396 -0.02616376
v 0.08798602 0.03651396 -0.02577621
v 0.08881905 0.03651396 -0.02551542
v 0.09049592 0.03651396 -0.02490331
v 0.09126404 0.03649847 -0.02460992
v 0.09367658 0.03844101 -0.02296191
v 0.09450960 0.03798539 -0.02276270
v 0.09162105 0.03733486 -0.02427308
v 0.09300583 0.03776854 -0.02353419
v 0.09727915 0.03957685 -0.02036856
v 0.09801481 0.03866689 -0.02061486
v 0.09865310 0.03841132 -0.02043738
v 0.09551573 0.03872110 -0.02189705
v 0.09551573 0.03934710 -0.02145879
v 0.10102237 0.03821901 -0.01909000
v 0.10174721 0.03778791 -0.01881110
v 0.10287234 0.03817383 -0.01786214
v 0.10248287 0.03848748 -0.01798167
v 0.10390010 0.03865011 -0.01684798
v 0.10527405 0.03876886 -0.01569981
v 0.10563106 0.03912122 -0.01513840
v 0.10670210 0.03892503 -0.01442849
v 0.10744858 0.03844230 -0.01418944
v 0.10678865 0.03785244 -0.01504785
v 0.10875762 0.03850555 -0.01298693
v 0.10922282 0.03893923 -0.01219734
v 0.10884417 0.03977175 -0.01179892
v 0.10906054 0.04004409 -0.01103467
v 0.10883335 0.04106893 -0.00954603
v 0.10884417 0.04113733 -0.00853187
v 0.10877926 0.04131417 -0.00034253
v 0.11001257 0.03853782 -0.01138239
v 0.07294825 0.04218799 0.00830318
v 0.07295907 0.04178399 0.00830318
v 0.07295907 0.04104182 0.00830318
v 0.09622975 0.03511998 -0.00033529
v 0.00006374 0.03730260 0.00155177
v -0.00036900 0.03281474 -0.02284239
v -0.00036900 0.03275666 -0.02287499
v -0.00005526 0.03275666 -0.02356317
v -0.00004444 0.02900324 -0.02356317
v 0.04914746 0.03432748 -0.00033529
v 0.04792497 0.03703799 0.00829956
v 0.05673126 0.03703799 0.00830318
v 0.00390432 0.02900324 -0.02769224
v 0.00387187 0.03401125 -0.02770311
v 0.00392596 0.03526454 -0.02767414
v 0.00412069 0.03641845 -0.02761256
v 0.00532155 0.03903991 -0.02701131
v 0.00777736 0.03991373 -0.02692438
v 0.00651159 0.03980660 -0.02683021
v 0.00576511 0.03969947 -0.02673966
v 0.00903231 0.03993954 -0.02694611
v 0.00320112 0.03739811 -0.02683021
v 0.00398005 0.03779694 -0.02707651
v 0.00438034 0.03863591 -0.02685194
v 0.06918340 0.03994600 -0.02695698
v 0.07043835 0.03993825 -0.02694974
v 0.07169330 0.03992018 -0.02693525
v 0.07169330 0.03904249 -0.02756185
v 0.07284007 0.03889793 -0.02761618
v 0.07235323 0.03839713 -0.02794941
v 0.07318626 0.03836099 -0.02793492
v 0.07419238 0.03827838 -0.02790232
v 0.07544733 0.03751814 -0.02808342
v 0.07671310 0.03734777 -0.02802185
v 0.07751368 0.03721095 -0.02797476
v 0.07834670 0.03694506 -0.02791681
v 0.07794642 0.03652170 -0.02803996
v 0.07923382 0.03652170 -0.02785886
v 0.08046714 0.03776725 -0.02731918
v 0.08172209 0.03776725 -0.02707651
v 0.08387498 0.03732583 -0.02676501
v 0.08470801 0.03693603 -0.02665998
v 0.08426444 0.03651654 -0.02684108
v 0.08543285 0.03651654 -0.02653683
v 0.08865677 0.03717352 -0.02545385
v 0.09478007 0.03959234 -0.02163626
v 0.09180497 0.03784212 -0.02400867
v 0.09099358 0.03830678 -0.02414993
v 0.09300583 0.03866302 -0.02311042
v 0.09300583 0.03928902 -0.02267578
v 0.09141550 0.03747168 -0.02431292
v 0.09801481 0.03929289 -0.02016211
v 0.09642449 0.03981563 -0.02059675
v 0.09883702 0.03977175 -0.01930007
v 0.09969169 0.03949037 -0.01904291
v 0.10017852 0.03865527 -0.01935440
v 0.10167148 0.03895214 -0.01817363
v 0.10143347 0.03957556 -0.01786214
v 0.10256942 0.03856879 -0.01786214
v 0.10346736 0.03948521 -0.01652200
v 0.10439775 0.03912639 -0.01611272
v 0.10621527 0.03969173 -0.01420030
v 0.10484131 0.03960525 -0.01536658
v 0.10705911 0.03927998 -0.01383448
v 0.10835734 0.03934194 -0.01263198
v 0.10798951 0.04000537 -0.01224080
v 0.10815178 0.04069720 -0.01111798
v 0.10862780 0.04088694 -0.01037547
v 0.10670210 0.03993696 -0.01346866
v 0.10815178 0.04127673 -0.00988650
v 0.10804360 0.04164459 -0.00853187
v 0.10741612 0.04215830 -0.00668103
v 0.10819506 0.04194017 -0.00034253
v 0.10847634 0.04164846 -0.00034253
v 0.04136893 0.04218928 0.00526794
v 0.05039159 0.04218799 0.00830318
v 0.10791378 0.04209377 -0.00034253
v 0.10756758 0.04216991 -0.00034253
v 0.10679947 0.04218669 -0.00034253
v 0.09621893 0.04218799 -0.00034253
v 0.00033420 0.03776984 0.00155177
v 0.00005292 0.03730260 0.00024423
v -0.00034736 0.03401125 -0.02284239
v 0.01532870 0.03949425 0.00732524
v 0.01532870 0.03952135 0.00733610
v 0.01532870 0.04027642 0.00759326
v 0.01532870 0.04152972 0.00741941
v -0.00003363 0.03401125 -0.02356317
v 0.00056139 0.03401125 -0.02468961
v 0.00056139 0.03275666 -0.02468599
v 0.00056139 0.02900324 -0.02467512
v 0.04792497 0.03704187 0.00830318
v 0.00287656 0.02900324 -0.02707288
v 0.00285492 0.03275666 -0.02707288
v 0.00285492 0.03401125 -0.02707288
v 0.00289820 0.03526454 -0.02704753
v 0.00301720 0.03651396 -0.02696060
v 0.00494290 0.03947101 -0.02655132
v 0.00777736 0.04054102 -0.02623258
v 0.00903231 0.04056684 -0.02628691
v 0.00650077 0.04050488 -0.02598628
v 0.00532155 0.04003893 -0.02610581
v 0.00607885 0.04086499 -0.02538866
v 0.00240055 0.03651396 -0.02644990
v 0.00196780 0.03744199 -0.02563495
v 0.00270347 0.03783824 -0.02611668
v 0.00354731 0.03823450 -0.02659478
v 0.00391514 0.03911735 -0.02615290
v 0.01404129 0.04056813 -0.02628691
v 0.04412766 0.04057200 -0.02629053
v 0.06417442 0.04057329 -0.02629415
v 0.06918340 0.04057329 -0.02629415
v 0.07043835 0.04056684 -0.02628691
v 0.07169330 0.04054618 -0.02627604
v 0.07294825 0.04051908 -0.02625794
v 0.07294825 0.03989437 -0.02691352
v 0.07419238 0.03902055 -0.02746406
v 0.07544733 0.03902055 -0.02736264
v 0.07544733 0.03814544 -0.02785161
v 0.07671310 0.03797635 -0.02779004
v 0.07794642 0.03768465 -0.02773933
v 0.07921219 0.03776725 -0.02752926
v 0.08172209 0.03852104 -0.02676864
v 0.08238202 0.03841132 -0.02670344
v 0.08286886 0.03775306 -0.02684108
v 0.08322587 0.03816093 -0.02660565
v 0.08426444 0.03775306 -0.02650423
v 0.08548694 0.03776725 -0.02618187
v 0.08914361 0.03766270 -0.02508803
v 0.09056084 0.03784212 -0.02450127
v 0.08798602 0.03744586 -0.02555889
v 0.08730446 0.03834937 -0.02542488
v 0.08798602 0.03807316 -0.02531621
v 0.09218362 0.03954200 -0.02285326
v 0.09394704 0.03980789 -0.02183547
v 0.09018219 0.03858041 -0.02430205
v 0.09176169 0.03908250 -0.02334223
v 0.09678150 0.04030998 -0.01981802
v 0.09801481 0.03998085 -0.01953550
v 0.09551573 0.04002861 -0.02083218
v 0.09551573 0.04065461 -0.02009329
v 0.09801481 0.04060814 -0.01877851
v 0.09919403 0.04025577 -0.01850323
v 0.10051389 0.03986081 -0.01815552
v 0.10118464 0.03967495 -0.01794183
v 0.10263433 0.03979111 -0.01681901
v 0.10402992 0.03988921 -0.01568532
v 0.10552288 0.03990727 -0.01447195
v 0.10558779 0.04056942 -0.01354110
v 0.10686438 0.04064428 -0.01233497
v 0.10735121 0.04086758 -0.01158884
v 0.10779477 0.04106376 -0.01075940
v 0.10603135 0.04083789 -0.01278772
v 0.10686438 0.04125866 -0.01111798
v 0.10679947 0.04174914 -0.00978146
v 0.10694011 0.04209634 -0.00773866
v 0.10700502 0.04211699 -0.00751771
v 0.10618281 0.04215701 -0.00792338
v 0.10668046 0.04216475 -0.00717362
v 0.10679947 0.04218153 -0.00602545
v 0.10744858 0.04216604 -0.00602545
v 0.04136893 0.04218928 0.00155177
v 0.01532870 0.04218928 0.00526794
v 0.01532870 0.04217895 0.00652115
v 0.01532870 0.04216346 0.00715863
v 0.04917992 0.04218282 0.00830318
v 0.10745940 0.04216991 -0.00476862
v 0.10679947 0.04218669 -0.00476862
v 0.09621893 0.04218799 -0.01353023
v 0.00032339 0.03776984 -0.00727504
v 0.00079940 0.03851071 0.00155177
v 0.00077777 0.03852620 -0.01353385
v 0.00032339 0.03776984 -0.01729349
v 0.00024766 0.03759688 -0.01979991
v 0.00009620 0.03730260 -0.01428361
v -0.00019590 0.03526454 -0.02284239
v 0.00006374 0.03526454 -0.02356317
v 0.04616154 0.04027642 0.00830318
v 0.04679984 0.04139290 0.00830318
v 0.04768696 0.04195178 0.00830318
v 0.04807643 0.04212474 0.00830318
v 0.04832525 0.04216991 0.00830318
v 0.00131869 0.03913800 0.00155177
v 0.00060467 0.03526454 -0.02462803
v 0.00101577 0.03526454 -0.02525464
v 0.00097250 0.03401125 -0.02531259
v 0.00097250 0.02900324 -0.02530897
v 0.00224909 0.02900324 -0.02660202
v 0.00222745 0.03275666 -0.02661289
v 0.00222745 0.03401125 -0.02661651
v 0.00227072 0.03526454 -0.02658029
v 0.00344994 0.03960137 -0.02538503
v 0.00428297 0.03986468 -0.02571463
v 0.00691188 0.04094760 -0.02551542
v 0.00777736 0.04101084 -0.02560960
v 0.00903231 0.04104828 -0.02566030
v 0.00526746 0.04072431 -0.02517496
v 0.00650077 0.04122123 -0.02491055
v 0.00526746 0.04110249 -0.02454835
v 0.00164325 0.03526454 -0.02595369
v 0.00178389 0.03651396 -0.02582329
v 0.00220581 0.03827709 -0.02534881
v 0.00115641 0.03651396 -0.02504456
v 0.00085349 0.03719546 -0.02423686
v 0.00303884 0.03876498 -0.02575810
v 0.03786372 0.04104957 -0.02566393
v 0.06918340 0.04104957 -0.02566393
v 0.07043835 0.04104699 -0.02566030
v 0.07169330 0.04104182 -0.02564582
v 0.07294825 0.04103279 -0.02563133
v 0.07419238 0.04101472 -0.02559873
v 0.07419238 0.04048036 -0.02622896
v 0.07419238 0.03985307 -0.02688092
v 0.07544733 0.03979885 -0.02683021
v 0.07671310 0.03972916 -0.02676501
v 0.07671310 0.03902055 -0.02723587
v 0.07921219 0.03887599 -0.02699320
v 0.08046714 0.03871207 -0.02688816
v 0.08046714 0.03934065 -0.02648612
v 0.08172209 0.03914704 -0.02636659
v 0.08286886 0.03890696 -0.02626880
v 0.08424281 0.03910703 -0.02580881
v 0.08548694 0.03879209 -0.02569290
v 0.08646061 0.03857138 -0.02555164
v 0.08682844 0.03786535 -0.02575448
v 0.08682844 0.03900248 -0.02515685
v 0.08809421 0.03913542 -0.02466426
v 0.08923016 0.03883339 -0.02447591
v 0.09056084 0.03900635 -0.02387466
v 0.09135059 0.03974981 -0.02302711
v 0.09300583 0.04000537 -0.02204917
v 0.09300583 0.04063266 -0.02132839
v 0.08923016 0.03946068 -0.02405214
v 0.09714933 0.04080433 -0.01902118
v 0.09466106 0.04082369 -0.02030699
v 0.09629466 0.04096438 -0.01926748
v 0.09870720 0.04093082 -0.01795994
v 0.09902094 0.04086370 -0.01786214
v 0.09955104 0.04074108 -0.01768104
v 0.10054635 0.04008669 -0.01786214
v 0.10167148 0.03997052 -0.01725727
v 0.10331590 0.04072559 -0.01514202
v 0.10176885 0.04065848 -0.01632279
v 0.10467903 0.04078755 -0.01396487
v 0.10519832 0.04102117 -0.01313543
v 0.10649655 0.04104440 -0.01195104
v 0.10558779 0.04122381 -0.01233497
v 0.10385682 0.04098503 -0.01430534
v 0.10428956 0.04165362 -0.01227702
v 0.10552288 0.04171042 -0.01103467
v 0.10428956 0.04196082 -0.01103467
v 0.10552288 0.04199438 -0.00978146
v 0.10668046 0.04203697 -0.00841959
v 0.10552288 0.04212861 -0.00884336
v 0.10487377 0.04215443 -0.00912588
v 0.10552288 0.04216475 -0.00821676
v 0.10552288 0.04218024 -0.00727504
v 0.09926976 0.04218541 -0.01227702
v 0.10176885 0.04218669 -0.00978146
v 0.10303462 0.04218669 -0.00853187
v 0.01532870 0.04218928 0.00155177
v 0.09421750 0.04218799 -0.01478344
v 0.08924098 0.04218799 -0.01728987
v 0.08172209 0.04218799 -0.01979991
v 0.07418157 0.04218799 -0.02105312
v 0.00903231 0.04218799 -0.01428361
v 0.00903231 0.04218669 0.00155177
v 0.00816683 0.04216991 0.00155177
v 0.00753935 0.04212861 0.00155177
v 0.00652241 0.04202535 0.00155177
v 0.00526746 0.04175430 0.00155177
v 0.00401251 0.04124705 0.00155177
v 0.00336340 0.04091791 0.00155177
v 0.00275756 0.04045971 0.00155177
v 0.00193535 0.03981563 0.00155177
v 0.09675986 0.04218669 -0.01353023
v 0.00077777 0.03852878 -0.01603665
v 0.00131869 0.03914704 -0.00601821
v 0.00110232 0.03890438 -0.01428361
v 0.00033420 0.03776984 -0.01979991
v 0.00077777 0.03852878 -0.01854670
v 0.00036666 0.03776984 -0.02104950
v 0.00029093 0.03759688 -0.02104950
v 0.00010701 0.03645717 -0.02284239
v 0.00035584 0.03651396 -0.02356317
v 0.00074531 0.03651396 -0.02441434
v 0.00161079 0.03401125 -0.02598628
v 0.00159998 0.02900324 -0.02596817
v 0.00267101 0.03912381 -0.02494677
v 0.00312539 0.03988017 -0.02454473
v 0.00398005 0.04029062 -0.02484173
v 0.00452098 0.04096567 -0.02430205
v 0.00777736 0.04144711 -0.02481638
v 0.00903231 0.04150132 -0.02481638
v 0.04137975 0.04114250 -0.02549369
v 0.00651159 0.04174398 -0.02356317
v 0.00526746 0.04143420 -0.02356317
v 0.00192453 0.03864753 -0.02450851
v 0.00104823 0.03809123 -0.02356317
v 0.00071285 0.03746394 -0.02356317
v 0.06918340 0.04150132 -0.02481638
v 0.07043835 0.04149745 -0.02481638
v 0.07169330 0.04148583 -0.02481638
v 0.07294825 0.04146776 -0.02481638
v 0.07419238 0.04143549 -0.02481638
v 0.07544733 0.04138516 -0.02481638
v 0.07544733 0.04098503 -0.02555527
v 0.07544733 0.04042744 -0.02618187
v 0.07671310 0.04035516 -0.02611668
v 0.07784905 0.04026739 -0.02605510
v 0.07749204 0.03967236 -0.02671793
v 0.07833589 0.03960009 -0.02665998
v 0.07792478 0.03911735 -0.02702218
v 0.07921219 0.03950457 -0.02659478
v 0.08172209 0.03996149 -0.02573999
v 0.08296622 0.03982080 -0.02560235
v 0.08382089 0.03970980 -0.02550094
v 0.08466473 0.03958202 -0.02539590
v 0.08548694 0.03941809 -0.02528000
v 0.08857022 0.03963106 -0.02417166
v 0.09169678 0.04027513 -0.02228822
v 0.09048511 0.03991115 -0.02319372
v 0.09048511 0.04053844 -0.02249106
v 0.09123159 0.04093469 -0.02173043
v 0.09206461 0.04080175 -0.02153123
v 0.09380640 0.04096567 -0.02052069
v 0.09673823 0.04117993 -0.01858292
v 0.09801481 0.04103666 -0.01815190
v 0.09551573 0.04107538 -0.01947031
v 0.09862065 0.04100697 -0.01786214
v 0.10018934 0.04100826 -0.01684436
v 0.10104400 0.04085209 -0.01657271
v 0.10246123 0.04093211 -0.01545713
v 0.10427875 0.04117477 -0.01354110
v 0.10303462 0.04157360 -0.01353023
v 0.10294807 0.04110249 -0.01474360
v 0.10176885 0.04185240 -0.01353023
v 0.10303462 0.04191306 -0.01227702
v 0.10044898 0.04205504 -0.01344692
v 0.10174721 0.04208602 -0.01221545
v 0.10082763 0.04213378 -0.01259213
v 0.10000542 0.04216217 -0.01296882
v 0.10044898 0.04216991 -0.01221545
v 0.10305625 0.04217379 -0.00980682
v 0.09926976 0.04216863 -0.01313905
v 0.09621893 0.04217508 -0.01475447
v 0.09551573 0.04218153 -0.01478344
v 0.09300583 0.04218541 -0.01603665
v 0.04137975 0.04218799 -0.02105312
v 0.01027644 0.04218799 -0.02104950
v 0.00903231 0.04218799 -0.01979991
v 0.09048511 0.04218411 -0.01728987
v 0.08294458 0.04218669 -0.01979991
v 0.07669147 0.04218411 -0.02105312
v 0.07669147 0.04216863 -0.02179925
v 0.07418157 0.04217121 -0.02184996
v 0.07168248 0.04217121 -0.02186445
v 0.07043835 0.04217121 -0.02186807
v 0.06918340 0.04217121 -0.02187169
v 0.00808028 0.04216991 -0.02104950
v 0.00745281 0.04214023 -0.02104950
v 0.00652241 0.04202923 -0.00226219
v 0.00526746 0.04175817 -0.00601821
v 0.00401251 0.04124834 -0.02104950
v 0.00336340 0.04091791 0.00150468
v 0.00273592 0.04045971 -0.02104950
v 0.00193535 0.03983370 -0.02104950
v 0.00131869 0.03915349 -0.01428361
v 0.00131869 0.03915220 -0.01979991
v 0.00078858 0.03852491 -0.01979991
v 0.00045321 0.03759688 -0.02230271
v 0.00081022 0.03849264 -0.02104950
v 0.00085349 0.03844101 -0.02192602
v 0.00090759 0.03835453 -0.02275908
v 0.00058303 0.03787051 -0.02232807
v 0.00229236 0.03948263 -0.02386742
v 0.00273592 0.04002344 -0.02349435
v 0.00368795 0.04071398 -0.02356317
v 0.00431543 0.04106635 -0.02356317
v 0.00777736 0.04189628 -0.02356317
v 0.00903231 0.04194146 -0.02356317
v 0.01027644 0.04194404 -0.02356317
v 0.01153139 0.04194533 -0.02356317
v 0.04137975 0.04150261 -0.02481638
v 0.05164654 0.04150261 -0.02481638
v 0.00526746 0.04166266 -0.02230271
v 0.00651159 0.04186272 -0.02284239
v 0.00174062 0.03904765 -0.02349435
v 0.00091841 0.03832872 -0.02284239
v 0.00063712 0.03770272 -0.02284239
v 0.06918340 0.04157489 -0.02460992
v 0.07023280 0.04157231 -0.02460992
v 0.07043835 0.04157102 -0.02460992
v 0.07168248 0.04193630 -0.02355955
v 0.07169330 0.04156069 -0.02460992
v 0.07418157 0.04190661 -0.02355955
v 0.07544733 0.04188338 -0.02355955
v 0.07669147 0.04184594 -0.02355955
v 0.07793560 0.04178528 -0.02355955
v 0.07671310 0.04131287 -0.02481638
v 0.07671310 0.04093857 -0.02549369
v 0.07737303 0.04090630 -0.02545023
v 0.07821688 0.04086112 -0.02538503
v 0.07921219 0.04017058 -0.02596817
v 0.08046714 0.04007378 -0.02585951
v 0.08172209 0.04058878 -0.02506268
v 0.08296622 0.04044938 -0.02493228
v 0.08419953 0.04027772 -0.02480914
v 0.08548694 0.04010734 -0.02465701
v 0.08670944 0.03993696 -0.02446505
v 0.08773720 0.03977950 -0.02430930
v 0.08923016 0.04012025 -0.02342191
v 0.08923016 0.04074625 -0.02271924
v 0.08844040 0.04085983 -0.02287136
v 0.08762901 0.04096438 -0.02301987
v 0.09048511 0.04101988 -0.02186445
v 0.09048511 0.04142646 -0.02105312
v 0.09166433 0.04116186 -0.02108934
v 0.09300583 0.04106893 -0.02070179
v 0.09551573 0.04149874 -0.01854670
v 0.09801481 0.04143679 -0.01728624
v 0.09421750 0.04119542 -0.01985062
v 0.09300583 0.04150132 -0.01979991
v 0.09917239 0.04111798 -0.01727176
v 0.10056799 0.04123285 -0.01610909
v 0.10176885 0.04105086 -0.01569619
v 0.10176885 0.04145098 -0.01478344
v 0.10052471 0.04175559 -0.01478344
v 0.09926976 0.04196340 -0.01478344
v 0.09666249 0.04204730 -0.01593162
v 0.09703032 0.04213378 -0.01512753
v 0.09926976 0.04212087 -0.01376204
v 0.09621893 0.04215959 -0.01544265
v 0.09666249 0.04216991 -0.01473636
v 0.09376312 0.04216346 -0.01673570
v 0.09300583 0.04216991 -0.01684074
v 0.04137975 0.04217121 -0.02187169
v 0.01027644 0.04216991 -0.02186445
v 0.00903231 0.04216991 -0.02185721
v 0.00903231 0.04218669 -0.02104950
v 0.01154221 0.04216991 -0.02186807
v 0.09048511 0.04216863 -0.01805411
v 0.08389661 0.04216475 -0.02049896
v 0.08294458 0.04216991 -0.02057140
v 0.07793560 0.04218153 -0.02105312
v 0.07544733 0.04211183 -0.02245483
v 0.07293743 0.04211699 -0.02248381
v 0.07793560 0.04216475 -0.02175217
v 0.07043835 0.04211958 -0.02249468
v 0.06918340 0.04211958 -0.02249830
v 0.00817765 0.04216475 -0.02179563
v 0.00652241 0.04203826 -0.02104950
v 0.00776654 0.04209377 -0.02224838
v 0.00526746 0.04175817 -0.02104950
v 0.00395841 0.04113733 -0.02222665
v 0.00336340 0.04091533 -0.02175941
v 0.00336340 0.04091662 -0.02104950
v 0.00200026 0.03976788 -0.02230271
v 0.00131869 0.03911864 -0.02104950
v 0.00129706 0.03892503 -0.02232807
v 0.00206517 0.03970980 -0.02284239
v 0.00209763 0.03968785 -0.02303073
v 0.00354731 0.04080562 -0.02284239
v 0.00412069 0.04110507 -0.02284239
v 0.00350404 0.04083789 -0.02259247
v 0.00706334 0.04192855 -0.02284239
v 0.00776654 0.04200600 -0.02284239
v 0.00903231 0.04211571 -0.02248381
v 0.00903231 0.04205892 -0.02284239
v 0.01027644 0.04211958 -0.02249468
v 0.01027644 0.04206279 -0.02284239
v 0.01153139 0.04206408 -0.02284239
v 0.04136893 0.04198147 -0.02334947
v 0.04136893 0.04194533 -0.02356317
v 0.00652241 0.04195049 -0.02230271
v 0.06918340 0.04194533 -0.02355955
v 0.07043835 0.04194275 -0.02355955
v 0.07293743 0.04192339 -0.02355955
v 0.07669147 0.04210022 -0.02242586
v 0.07793560 0.04207440 -0.02238240
v 0.08044550 0.04200083 -0.02230271
v 0.08172209 0.04194662 -0.02230271
v 0.07920137 0.04170913 -0.02355955
v 0.08044550 0.04161749 -0.02355955
v 0.07921219 0.04121994 -0.02460992
v 0.07921219 0.04119155 -0.02466788
v 0.07785987 0.04117477 -0.02490331
v 0.07981802 0.04116444 -0.02460992
v 0.08172209 0.04106635 -0.02442882
v 0.07921219 0.04079658 -0.02529448
v 0.08046714 0.04070107 -0.02517496
v 0.08294458 0.04098374 -0.02430205
v 0.08372352 0.04092437 -0.02421875
v 0.08455655 0.04084305 -0.02410284
v 0.08670944 0.04056555 -0.02378049
v 0.08546531 0.04073463 -0.02395797
v 0.08808339 0.04032031 -0.02359939
v 0.08670944 0.04104699 -0.02315026
v 0.08801848 0.04121865 -0.02239326
v 0.08923016 0.04114637 -0.02208901
v 0.08670944 0.04147421 -0.02230271
v 0.08923016 0.04163039 -0.02105312
v 0.09172924 0.04171945 -0.01979991
v 0.09423914 0.04173752 -0.01854670
v 0.09675986 0.04171171 -0.01728624
v 0.09926976 0.04162007 -0.01603665
v 0.09801481 0.04186014 -0.01603665
v 0.09551573 0.04190403 -0.01728987
v 0.09420668 0.04205762 -0.01720656
v 0.09300583 0.04211183 -0.01746372
v 0.09124241 0.04216217 -0.01796718
v 0.01154221 0.04211958 -0.02249830
v 0.08294458 0.04210280 -0.02119800
v 0.07879026 0.04215959 -0.02170508
v 0.08761820 0.04216217 -0.01924574
v 0.08475128 0.04215314 -0.02034321
v 0.07418157 0.04211312 -0.02248019
v 0.04136893 0.04206408 -0.02284239
v 0.00287656 0.04045713 -0.02222665
v 0.07921219 0.04206537 -0.02219405
v 0.08428609 0.04208086 -0.02096982
v 0.08546531 0.04199696 -0.02105312
v 0.08294458 0.04187176 -0.02230271
v 0.08172209 0.04151165 -0.02355955
v 0.08422117 0.04176721 -0.02230271
v 0.08294458 0.04137999 -0.02355955
v 0.08415626 0.04117864 -0.02363199
v 0.08546531 0.04114637 -0.02333136
v 0.08796439 0.04179819 -0.02105312
v 0.08546531 0.04162910 -0.02230271
v 0.09300583 0.04191693 -0.01854670
v 0.09048511 0.04187950 -0.01979991
v 0.09168597 0.04205762 -0.01845253
v 0.09048511 0.04210151 -0.01868071
v 0.08800766 0.04208860 -0.01971660
v 0.08670944 0.04211699 -0.01997377
v 0.08670944 0.04191693 -0.02105312
v 0.08923016 0.04199050 -0.01979991
f 1 2 8
f 1 8 3
f 1 3 11
f 1 11 4
f 1 4 2
f 2 4 5
f 2 5 6
f 2 6 7
f 2 7 18
f 2 18 8
f 3 8 9
f 3 9 10
f 3 10 11
f 4 12 13
f 4 13 5
f 4 11 44
f 4 44 89
f 4 89 151
f 4 151 222
f 4 222 304
f 4 304 400
f 4 400 501
f 4 501 401
f 4 401 306
f 4 306 226
f 4 226 155
f 4 155 91
f 4 91 45
f 4 45 12
f 5 13 7
f 5 7 6
f 7 13 14
f 7 14 15
f 7 15 16
f 7 16 17
f 7 17 18
f 8 19 20
f 8 20 21
f 8 21 22
f 8 22 9
f 8 18 19
f 9 22 23
f 9 23 24
f 9 24 10
f 10 24 11
f 11 24 25
f 11 25 26
f 11 26 27
f 11 27 28
f 11 28 29
f 11 29 30
f 11 30 31
f 11 31 32
f 11 32 33
f 11 33 34
f 11 34 35
f 11 35 36
f 11 36 37
f 11 37 38
f 11 38 39
f 11 39 40
f 11 40 41
f 11 41 42
f 11 42 43
f 11 43 44
f 12 45 46
f 12 46 13
f 13 46 47
f 13 47 14
f 14 48 49
f 14 49 15
f 14 47 50
f 14 50 48
f 15 49 16
f 16 51 52
f 16 52 17
f 16 49 51
f 17 52 53
f 17 53 19
f 17 19 18
f 19 53 20
f 20 53 54
f 20 54 55
f 20 55 21
f 21 55 56
f 21 56 23
f 21 23 22
f 23 56 57
f 23 57 58
f 23 58 25
f 23 25 24
f 25 58 26
f 26 58 59
f 26 59 27
f 27 59 60
f 27 60 28
f 28 60 61
f 28 61 29
f 29 61 30
f 30 61 62
f 30 62 63
f 30 63 31
f 31 63 64
f 31 64 32
f 32 64 65
f 32 65 33
f 33 65 66
f 33 66 34
f 34 66 35
f 35 66 36
f 36 66 67
f 36 67 68
f 36 68 37
f 37 68 69
f 37 69 38
f 38 69 70
f 38 70 39
f 39 70 71
f 39 71 40
f 40 71 72
f 40 72 41
f 41 72 73
f 41 73 42
f 42 73 74
f 42 74 43
f 43 75 44
f 43 74 76
f 43 76 77
f 43 77 78
f 43 78 79
f 43 79 80
f 43 80 81
f 43 81 82
f 43 82 83
f 43 83 84
f 43 84 85
f 43 85 86
f 43 86 87
f 43 87 88
f 43 88 75
f 44 75 88
f 44 88 90
f 44 90 89
f 45 91 92
f 45 92 46
f 46 92 47
f 47 92 93
f 47 93 50
f 48 50 94
f 48 94 95
f 48 95 96
f 48 96 49
f 49 96 97
f 49 97 98
f 49 98 51
f 50 93 99
f 50 99 100
f 50 100 94
f 51 98 52
f 52 101 102
f 52 102 103
f 52 103 53
f 52 98 104
f 52 104 101
f 53 103 105
f 53 105 54
f 54 105 106
f 54 106 55
f 55 106 57
f 55 57 56
f 57 106 107
f 57 107 108
f 57 108 58
f 58 108 109
f 58 109 59
f 59 109 60
f 60 109 174
f 60 174 110
f 60 110 111
f 60 111 61
f 61 111 112
f 61 112 62
f 62 112 113
f 62 113 114
f 62 114 63
f 63 114 64
f 64 115 116
f 64 116 65
f 64 114 115
f 65 116 117
f 65 117 66
f 66 117 118
f 66 118 67
f 67 118 119
f 67 119 68
f 68 119 120
f 68 120 121
f 68 121 69
f 69 121 70
f 70 122 123
f 70 123 71
f 70 121 120
f 70 120 122
f 71 123 72
f 72 123 73
f 73 123 124
f 73 124 74
f 74 124 125
f 74 125 76
f 76 126 127
f 76 127 128
f 76 128 129
f 76 129 77
f 76 125 126
f 77 129 130
f 77 130 78
f 78 130 131
f 78 131 132
f 78 132 79
f 79 132 80
f 80 132 133
f 80 133 134
f 80 134 81
f 81 134 135
f 81 135 136
f 81 136 137
f 81 137 138
f 81 138 82
f 82 138 139
f 82 139 83
f 83 139 84
f 84 139 140
f 84 140 85
f 85 140 141
f 85 141 142
f 85 142 143
f 85 143 86
f 86 143 144
f 86 144 87
f 87 144 145
f 87 145 146
f 87 146 147
f 87 147 148
f 87 148 149
f 87 149 88
f 88 149 150
f 88 150 90
f 89 90 154
f 89 154 151
f 90 150 152
f 90 152 153
f 90 153 225
f 90 225 154
f 91 155 156
f 91 156 92
f 92 156 157
f 92 157 93
f 93 157 158
f 93 158 99
f 94 159 95
f 94 100 159
f 95 160 96
f 95 159 161
f 95 161 160
f 96 162 97
f 96 160 162
f 97 162 98
f 98 163 169
f 98 169 104
f 98 162 163
f 99 158 164
f 99 164 100
f 100 164 165
f 100 165 159
f 101 166 102
f 101 104 166
f 102 167 241
f 102 241 168
f 102 168 103
f 102 166 167
f 103 168 105
f 104 169 170
f 104 170 166
f 105 168 171
f 105 171 172
f 105 172 106
f 106 172 173
f 106 173 107
f 107 173 174
f 107 174 109
f 107 109 108
f 110 174 175
f 110 175 176
f 110 176 177
f 110 177 111
f 111 177 112
f 112 177 113
f 113 177 114
f 114 178 179
f 114 179 115
f 114 177 178
f 115 179 116
f 116 180 181
f 116 181 117
f 116 179 180
f 117 181 118
f 118 181 119
f 119 181 120
f 120 181 182
f 120 182 122
f 122 183 184
f 122 184 123
f 122 182 183
f 123 184 124
f 124 185 186
f 124 186 125
f 124 184 185
f 125 186 126
f 126 187 188
f 126 188 127
f 126 186 189
f 126 189 190
f 126 190 187
f 127 188 128
f 128 191 192
f 128 192 193
f 128 193 129
f 128 188 187
f 128 187 194
f 128 194 195
f 128 195 191
f 129 193 130
f 130 193 131
f 131 193 196
f 131 196 132
f 132 196 197
f 132 197 133
f 133 198 134
f 133 197 199
f 133 199 198
f 134 198 135
f 135 198 136
f 136 200 137
f 136 198 199
f 136 199 200
f 137 200 201
f 137 201 202
f 137 202 203
f 137 203 204
f 137 204 205
f 137 205 138
f 138 205 139
f 139 205 204
f 139 204 140
f 140 206 141
f 140 204 206
f 141 206 142
f 142 207 208
f 142 208 209
f 142 209 210
f 142 210 211
f 142 211 212
f 142 212 213
f 142 213 144
f 142 144 143
f 142 206 207
f 144 213 212
f 144 212 145
f 145 212 214
f 145 214 215
f 145 215 146
f 146 216 153
f 146 153 147
f 146 215 216
f 147 153 148
f 148 153 149
f 149 153 217
f 149 217 152
f 149 152 150
f 151 218 219
f 151 219 220
f 151 220 221
f 151 221 222
f 151 154 223
f 151 223 224
f 151 224 218
f 152 217 153
f 153 216 215
f 153 215 214
f 153 214 289
f 153 289 379
f 153 379 395
f 153 395 394
f 153 394 393
f 153 393 392
f 153 392 391
f 153 391 305
f 153 305 225
f 154 225 224
f 154 224 223
f 155 226 156
f 156 226 227
f 156 227 157
f 157 227 228
f 157 228 158
f 158 228 229
f 158 229 164
f 159 165 230
f 159 230 161
f 160 161 231
f 160 231 162
f 161 232 231
f 161 230 233
f 161 233 232
f 162 231 234
f 162 234 163
f 163 234 169
f 164 229 235
f 164 235 236
f 164 236 165
f 165 236 237
f 165 237 230
f 166 238 239
f 166 239 167
f 166 170 238
f 167 239 240
f 167 240 241
f 168 241 242
f 168 242 243
f 168 243 171
f 169 234 170
f 170 234 238
f 171 243 244
f 171 244 172
f 172 244 245
f 172 245 332
f 172 332 246
f 172 246 173
f 173 246 175
f 173 175 174
f 175 246 247
f 175 247 248
f 175 248 176
f 176 248 249
f 176 249 250
f 176 250 177
f 177 249 251
f 177 251 178
f 177 250 249
f 178 252 179
f 178 251 249
f 178 249 252
f 179 252 253
f 179 253 254
f 179 254 180
f 180 254 255
f 180 255 256
f 180 256 181
f 181 256 255
f 181 255 257
f 181 257 182
f 182 258 183
f 182 257 255
f 182 255 258
f 183 258 184
f 184 258 185
f 185 189 186
f 185 258 189
f 187 259 194
f 187 190 260
f 187 260 261
f 187 261 262
f 187 262 263
f 187 263 259
f 189 258 264
f 189 264 190
f 190 264 260
f 191 265 192
f 191 195 259
f 191 259 266
f 191 266 267
f 191 267 268
f 191 268 265
f 192 265 193
f 193 268 269
f 193 269 196
f 193 265 268
f 194 259 195
f 196 199 197
f 196 269 199
f 199 269 270
f 199 270 271
f 199 271 272
f 199 272 200
f 200 273 274
f 200 274 201
f 200 272 273
f 201 274 202
f 202 275 203
f 202 274 276
f 202 276 275
f 203 275 277
f 203 277 204
f 204 277 206
f 206 278 207
f 206 277 278
f 207 278 208
f 208 279 280
f 208 280 281
f 208 281 209
f 208 278 275
f 208 275 282
f 208 282 279
f 209 281 210
f 210 281 283
f 210 283 284
f 210 284 211
f 211 284 285
f 211 285 286
f 211 286 287
f 211 287 212
f 212 287 214
f 214 288 376
f 214 376 289
f 214 287 286
f 214 286 290
f 214 290 291
f 214 291 292
f 214 292 293
f 214 293 288
f 218 294 295
f 218 295 296
f 218 296 219
f 218 224 297
f 218 297 298
f 218 298 299
f 218 299 300
f 218 300 294
f 219 296 220
f 220 296 301
f 220 301 221
f 221 301 302
f 221 302 303
f 221 303 304
f 221 304 222
f 224 225 305
f 224 305 297
f 226 306 227
f 227 306 307
f 227 307 308
f 227 308 309
f 227 309 228
f 228 309 310
f 228 310 229
f 229 310 235
f 230 237 311
f 230 311 233
f 231 312 313
f 231 313 234
f 231 232 312
f 232 233 314
f 232 314 312
f 233 311 315
f 233 315 316
f 233 316 314
f 234 313 238
f 235 310 317
f 235 317 318
f 235 318 319
f 235 319 320
f 235 320 236
f 236 320 237
f 237 320 321
f 237 321 311
f 238 322 323
f 238 323 324
f 238 324 325
f 238 325 326
f 238 326 239
f 238 313 322
f 239 326 327
f 239 327 240
f 240 327 328
f 240 328 329
f 240 329 241
f 241 329 242
f 242 329 330
f 242 330 244
f 242 244 243
f 244 330 331
f 244 331 245
f 245 331 332
f 246 332 333
f 246 333 247
f 247 333 248
f 248 333 334
f 248 334 335
f 248 335 249
f 249 335 252
f 252 336 337
f 252 337 253
f 252 335 336
f 253 337 338
f 253 338 254
f 254 338 339
f 254 339 340
f 254 340 341
f 254 341 255
f 255 341 258
f 258 342 343
f 258 343 264
f 258 341 344
f 258 344 345
f 258 345 346
f 258 346 342
f 259 263 347
f 259 347 348
f 259 348 266
f 260 264 261
f 261 264 343
f 261 343 342
f 261 342 346
f 261 346 345
f 261 345 349
f 261 349 262
f 262 349 350
f 262 350 347
f 262 347 263
f 266 351 352
f 266 352 267
f 266 348 353
f 266 353 354
f 266 354 351
f 267 352 355
f 267 355 356
f 267 356 357
f 267 357 358
f 267 358 268
f 268 358 271
f 268 271 269
f 269 271 270
f 271 358 359
f 271 359 273
f 271 273 272
f 273 360 276
f 273 276 274
f 273 359 360
f 275 278 277
f 275 276 360
f 275 360 361
f 275 361 362
f 275 362 282
f 279 363 364
f 279 364 280
f 279 282 363
f 280 364 281
f 281 364 365
f 281 365 283
f 282 362 366
f 282 366 363
f 283 365 367
f 283 367 368
f 283 368 284
f 284 368 369
f 284 369 285
f 285 369 370
f 285 370 371
f 285 371 372
f 285 372 373
f 285 373 374
f 285 374 286
f 286 374 290
f 288 375 474
f 288 474 376
f 288 293 382
f 288 382 375
f 289 376 377
f 289 377 378
f 289 378 379
f 290 374 291
f 291 374 380
f 291 380 381
f 291 381 292
f 292 381 382
f 292 382 293
f 294 383 295
f 294 300 384
f 294 384 385
f 294 385 383
f 295 383 386
f 295 386 387
f 295 387 388
f 295 388 389
f 295 389 296
f 296 389 390
f 296 390 301
f 297 305 298
f 298 305 299
f 299 305 391
f 299 391 392
f 299 392 393
f 299 393 394
f 299 394 300
f 300 394 395
f 300 395 378
f 300 378 396
f 300 396 384
f 301 390 397
f 301 397 302
f 302 397 398
f 302 398 399
f 302 399 400
f 302 400 303
f 303 400 304
f 306 401 402
f 306 402 307
f 307 402 403
f 307 403 308
f 308 403 309
f 309 403 404
f 309 404 310
f 310 404 317
f 311 321 405
f 311 405 406
f 311 406 315
f 312 314 407
f 312 407 408
f 312 408 409
f 312 409 313
f 313 409 322
f 314 316 407
f 315 406 410
f 315 410 316
f 316 411 407
f 316 410 412
f 316 412 411
f 317 404 413
f 317 413 414
f 317 414 318
f 318 415 319
f 318 414 416
f 318 416 417
f 318 417 415
f 319 418 320
f 319 415 418
f 320 418 321
f 321 418 405
f 322 409 323
f 323 409 324
f 324 409 419
f 324 419 420
f 324 420 325
f 325 420 421
f 325 421 326
f 326 421 422
f 326 422 423
f 326 423 327
f 327 423 328
f 328 423 424
f 328 424 425
f 328 425 329
f 329 425 426
f 329 426 330
f 330 426 427
f 330 427 331
f 331 427 428
f 331 428 429
f 331 429 332
f 332 429 333
f 333 429 430
f 333 430 335
f 333 335 334
f 335 430 431
f 335 431 336
f 336 431 432
f 336 432 433
f 336 433 337
f 337 434 435
f 337 435 436
f 337 436 437
f 337 437 339
f 337 339 338
f 337 433 434
f 339 341 340
f 339 437 341
f 341 437 345
f 341 345 438
f 341 438 344
f 344 438 345
f 345 437 439
f 345 439 440
f 345 440 441
f 345 441 349
f 347 350 442
f 347 442 443
f 347 443 348
f 348 443 444
f 348 444 445
f 348 445 353
f 349 442 350
f 349 441 446
f 349 446 442
f 351 354 447
f 351 447 352
f 352 447 355
f 353 445 448
f 353 448 354
f 354 448 449
f 354 449 447
f 355 450 451
f 355 451 356
f 355 447 450
f 356 451 452
f 356 452 453
f 356 453 357
f 357 453 358
f 358 453 454
f 358 454 359
f 359 455 360
f 359 454 456
f 359 456 455
f 360 455 362
f 360 362 361
f 362 455 457
f 362 457 366
f 363 366 364
f 364 366 458
f 364 458 459
f 364 459 365
f 365 459 460
f 365 460 367
f 366 457 461
f 366 461 458
f 367 460 462
f 367 462 463
f 367 463 368
f 368 463 464
f 368 464 465
f 368 465 466
f 368 466 369
f 369 466 467
f 369 467 370
f 370 467 371
f 371 467 468
f 371 468 469
f 371 469 372
f 372 469 470
f 372 470 373
f 373 381 374
f 373 470 471
f 373 471 472
f 373 472 473
f 373 473 381
f 374 381 380
f 375 382 475
f 375 475 476
f 375 476 477
f 375 477 478
f 375 478 562
f 375 562 474
f 376 474 564
f 376 564 479
f 376 479 480
f 376 480 377
f 377 480 378
f 378 395 379
f 378 480 481
f 378 481 482
f 378 482 483
f 378 483 484
f 378 484 485
f 378 485 486
f 378 486 487
f 378 487 488
f 378 488 396
f 381 473 382
f 382 473 472
f 382 472 471
f 382 471 489
f 382 489 475
f 383 385 490
f 383 490 494
f 383 494 386
f 384 396 385
f 385 396 491
f 385 491 492
f 385 492 490
f 386 493 387
f 386 494 493
f 387 493 495
f 387 495 496
f 387 496 389
f 387 389 388
f 389 496 497
f 389 497 498
f 389 498 390
f 390 498 499
f 390 499 397
f 396 488 491
f 397 499 416
f 397 416 398
f 398 416 414
f 398 414 413
f 398 413 399
f 399 413 500
f 399 500 400
f 400 500 501
f 401 501 402
f 402 501 403
f 403 501 500
f 403 500 413
f 403 413 404
f 405 418 415
f 405 415 502
f 405 502 503
f 405 503 504
f 405 504 406
f 406 504 505
f 406 505 410
f 407 506 408
f 407 411 506
f 408 506 409
f 409 506 507
f 409 507 508
f 409 508 419
f 410 505 412
f 411 412 509
f 411 509 506
f 412 510 509
f 412 505 510
f 415 417 511
f 415 511 502
f 416 499 417
f 417 512 511
f 417 499 498
f 417 498 513
f 417 513 512
f 419 508 420
f 420 514 515
f 420 515 421
f 420 508 514
f 421 515 516
f 421 516 422
f 422 516 423
f 423 516 517
f 423 517 518
f 423 518 424
f 424 518 519
f 424 519 520
f 424 520 425
f 425 520 521
f 425 521 426
f 426 521 427
f 427 521 428
f 428 521 522
f 428 522 523
f 428 523 524
f 428 524 429
f 429 524 525
f 429 525 526
f 429 526 430
f 430 526 525
f 430 525 527
f 430 527 431
f 431 527 432
f 432 528 529
f 432 529 433
f 432 527 528
f 433 529 530
f 433 530 531
f 433 531 434
f 434 531 435
f 435 531 436
f 436 531 532
f 436 532 437
f 437 532 439
f 439 533 440
f 439 532 533
f 440 533 441
f 441 533 446
f 442 446 443
f 443 534 444
f 443 446 533
f 443 533 535
f 443 535 536
f 443 536 534
f 444 534 537
f 444 537 445
f 445 537 538
f 445 538 539
f 445 539 448
f 447 449 450
f 448 539 449
f 449 540 541
f 449 541 450
f 449 539 542
f 449 542 540
f 450 541 543
f 450 543 544
f 450 544 545
f 450 545 451
f 451 545 452
f 452 545 453
f 453 545 454
f 454 545 456
f 455 461 457
f 455 456 545
f 455 545 546
f 455 546 461
f 458 460 459
f 458 461 547
f 458 547 460
f 460 547 548
f 460 548 462
f 461 546 549
f 461 549 547
f 462 548 550
f 462 550 551
f 462 551 463
f 463 551 464
f 464 467 465
f 464 551 552
f 464 552 553
f 464 553 467
f 465 467 466
f 467 553 554
f 467 554 468
f 468 554 555
f 468 555 469
f 469 555 556
f 469 556 557
f 469 557 470
f 470 557 471
f 471 557 556
f 471 556 555
f 471 555 558
f 471 558 559
f 471 559 560
f 471 560 561
f 471 561 489
f 474 562 563
f 474 563 564
f 475 489 561
f 475 561 476
f 476 565 566
f 476 566 477
f 476 561 565
f 477 566 478
f 478 567 568
f 478 568 569
f 478 569 570
f 478 570 571
f 478 571 572
f 478 572 650
f 478 650 562
f 478 566 567
f 479 564 573
f 479 573 481
f 479 481 480
f 481 573 574
f 481 574 482
f 482 574 575
f 482 575 483
f 483 575 484
f 484 576 485
f 484 575 576
f 485 576 577
f 485 577 486
f 486 578 579
f 486 579 487
f 486 577 578
f 487 579 580
f 487 580 488
f 488 580 491
f 490 492 494
f 491 581 492
f 491 580 581
f 492 581 582
f 492 582 494
f 493 494 583
f 493 583 495
f 494 582 583
f 495 584 496
f 495 583 585
f 495 585 586
f 495 586 587
f 495 587 588
f 495 588 584
f 496 584 497
f 497 584 513
f 497 513 498
f 502 511 589
f 502 589 503
f 503 590 591
f 503 591 505
f 503 505 504
f 503 589 590
f 505 591 592
f 505 592 510
f 506 593 507
f 506 509 593
f 507 594 595
f 507 595 596
f 507 596 597
f 507 597 508
f 507 593 594
f 508 597 598
f 508 598 514
f 509 510 599
f 509 599 600
f 509 600 593
f 510 592 599
f 511 601 589
f 511 512 601
f 512 513 602
f 512 602 601
f 513 603 587
f 513 587 602
f 513 584 603
f 514 604 605
f 514 605 515
f 514 598 604
f 515 605 606
f 515 606 607
f 515 607 608
f 515 608 516
f 516 608 609
f 516 609 517
f 517 609 610
f 517 610 518
f 518 610 611
f 518 611 519
f 519 611 612
f 519 612 613
f 519 613 520
f 520 613 614
f 520 614 521
f 521 614 522
f 522 614 615
f 522 615 616
f 522 616 523
f 523 616 617
f 523 617 524
f 524 617 525
f 525 617 618
f 525 618 527
f 527 618 528
f 528 618 619
f 528 619 620
f 528 620 529
f 529 620 621
f 529 621 530
f 530 621 622
f 530 622 531
f 531 622 623
f 531 623 624
f 531 624 532
f 532 624 533
f 533 625 535
f 533 624 625
f 534 536 537
f 535 625 536
f 536 625 626
f 536 626 537
f 537 626 627
f 537 627 628
f 537 628 629
f 537 629 630
f 537 630 631
f 537 631 632
f 537 632 539
f 537 539 538
f 539 632 542
f 540 542 633
f 540 633 634
f 540 634 541
f 541 634 543
f 542 632 635
f 542 635 636
f 542 636 633
f 543 634 637
f 543 637 544
f 544 638 639
f 544 639 545
f 544 637 638
f 545 639 546
f 546 639 549
f 547 549 548
f 548 549 640
f 548 640 641
f 548 641 550
f 549 639 640
f 550 641 642
f 550 642 552
f 550 552 551
f 552 554 553
f 552 642 643
f 552 643 644
f 552 644 645
f 552 645 555
f 552 555 554
f 555 645 644
f 555 644 646
f 555 646 647
f 555 647 558
f 558 647 559
f 559 647 648
f 559 648 649
f 559 649 561
f 559 561 560
f 561 649 565
f 562 650 563
f 563 651 652
f 563 652 653
f 563 653 564
f 563 650 654
f 563 654 651
f 564 653 573
f 565 649 655
f 565 655 566
f 566 655 656
f 566 656 657
f 566 657 658
f 566 658 567
f 567 658 568
f 568 659 660
f 568 660 569
f 568 658 661
f 568 661 659
f 569 660 662
f 569 662 570
f 570 662 571
f 571 662 663
f 571 663 572
f 572 663 725
f 572 725 650
f 573 653 664
f 573 664 574
f 574 665 575
f 574 664 666
f 574 666 665
f 575 665 576
f 576 667 577
f 576 665 667
f 577 668 669
f 577 669 670
f 577 670 578
f 577 667 668
f 578 670 579
f 579 670 669
f 579 669 580
f 580 671 672
f 580 672 582
f 580 582 581
f 580 669 671
f 582 672 583
f 583 672 585
f 584 588 587
f 584 587 603
f 585 672 586
f 586 672 673
f 586 673 587
f 587 673 671
f 587 671 674
f 587 674 675
f 587 675 601
f 587 601 602
f 589 675 590
f 589 601 675
f 590 675 591
f 591 675 676
f 591 676 592
f 592 677 599
f 592 676 678
f 592 678 677
f 593 600 679
f 593 679 680
f 593 680 681
f 593 681 682
f 593 682 594
f 594 682 683
f 594 683 684
f 594 684 595
f 595 684 685
f 595 685 596
f 596 685 686
f 596 686 687
f 596 687 598
f 596 598 597
f 598 687 604
f 599 677 668
f 599 668 667
f 599 667 688
f 599 688 600
f 600 688 679
f 604 689 690
f 604 690 605
f 604 687 689
f 605 690 607
f 605 607 606
f 607 659 691
f 607 691 608
f 607 690 659
f 608 691 609
f 609 691 659
f 609 659 692
f 609 692 610
f 610 692 693
f 610 693 611
f 611 693 694
f 611 694 695
f 611 695 612
f 612 695 696
f 612 696 613
f 613 696 697
f 613 697 698
f 613 698 699
f 613 699 700
f 613 700 614
f 614 700 615
f 615 700 699
f 615 699 616
f 616 699 701
f 616 701 702
f 616 702 703
f 616 703 617
f 617 703 618
f 618 704 619
f 618 703 704
f 619 704 705
f 619 705 706
f 619 706 620
f 620 706 707
f 620 707 621
f 621 707 622
f 622 708 623
f 622 707 709
f 622 709 708
f 623 708 624
f 624 708 710
f 624 710 625
f 625 710 627
f 625 627 626
f 627 710 708
f 627 708 628
f 628 708 709
f 628 709 707
f 628 707 706
f 628 706 711
f 628 711 712
f 628 712 713
f 628 713 629
f 629 713 630
f 630 713 712
f 630 712 714
f 630 714 715
f 630 715 716
f 630 716 636
f 630 636 632
f 630 632 631
f 632 636 635
f 633 717 718
f 633 718 634
f 633 636 717
f 634 719 638
f 634 638 637
f 634 718 719
f 636 716 717
f 638 640 639
f 638 719 640
f 640 719 641
f 641 719 720
f 641 720 642
f 642 720 643
f 643 721 722
f 643 722 646
f 643 646 644
f 643 720 721
f 646 722 648
f 646 648 647
f 648 722 723
f 648 723 724
f 648 724 649
f 649 724 655
f 650 725 654
f 651 654 725
f 651 725 683
f 651 683 652
f 652 681 664
f 652 664 653
f 652 683 681
f 655 724 656
f 656 726 727
f 656 727 657
f 656 724 728
f 656 728 729
f 656 729 726
f 657 727 661
f 657 661 658
f 659 661 692
f 659 690 730
f 659 730 660
f 660 730 690
f 660 690 689
f 660 689 662
f 661 727 692
f 662 689 663
f 663 689 686
f 663 686 731
f 663 731 685
f 663 685 725
f 664 681 666
f 665 666 688
f 665 688 667
f 666 680 688
f 666 681 680
f 668 677 678
f 668 678 669
f 669 678 732
f 669 732 671
f 671 732 674
f 671 673 672
f 674 732 678
f 674 678 675
f 675 678 676
f 679 688 680
f 681 683 682
f 683 725 685
f 683 685 684
f 685 731 686
f 686 689 687
f 692 727 693
f 693 727 733
f 693 733 694
f 694 733 726
f 694 726 695
f 695 726 734
f 695 734 735
f 695 735 736
f 695 736 696
f 696 736 697
f 697 737 698
f 697 736 738
f 697 738 737
f 698 737 699
f 699 737 701
f 701 737 702
f 702 737 739
f 702 739 705
f 702 705 703
f 703 705 704
f 705 739 706
f 706 739 740
f 706 740 741
f 706 741 711
f 711 714 712
f 711 741 714
f 714 742 715
f 714 741 739
f 714 739 743
f 714 743 742
f 715 742 716
f 716 744 717
f 716 742 745
f 716 745 744
f 717 721 718
f 717 744 721
f 718 721 720
f 718 720 719
f 721 744 722
f 722 744 746
f 722 746 723
f 723 746 724
f 724 747 748
f 724 748 749
f 724 749 729
f 724 729 728
f 724 746 747
f 726 729 734
f 726 733 727
f 729 749 734
f 734 749 748
f 734 748 735
f 735 748 750
f 735 750 736
f 736 750 738
f 737 738 739
f 738 743 739
f 738 750 742
f 738 742 743
f 739 741 740
f 742 750 745
f 744 745 746
f 745 751 746
f 745 750 751
f 746 751 747
f 747 751 748
f 748 751 750

