# https://github.com/mikedh/trimesh
v 0.00589825 0.00802891 -0.01141803
v 0.00589825 0.00802419 -0.01075568
v 0.00655949 0.00800847 -0.01075568
v 0.00655949 0.00801005 -0.01141803
v 0.00589825 0.00802891 -0.01340164
v 0.00060496 0.00802891 -0.01141803
v 0.00218161 0.00802419 -0.01075568
v 0.00589825 0.00798018 -0.01037206
v 0.00655949 0.00797232 -0.01037846
v 0.00693562 0.00795660 -0.01040012
v 0.00695794 0.00796603 -0.01075568
v 0.00655949 0.00801005 -0.01340164
v 0.00695966 0.00796603 -0.01141803
v 0.00589825 0.00798332 -0.01381087
v 0.00218161 0.00801162 -0.01355824
v 0.00218161 0.00802891 -0.01340213
v 0.00655949 0.00797547 -0.01379561
v 0.00060496 0.00802891 -0.01340213
v 0.00035936 0.00802262 -0.01315591
v -0.00005627 0.00801162 -0.01273978
v -0.00005627 0.00801005 -0.01207891
v -0.00005627 0.00800376 -0.01075617
v 0.00060496 0.00802419 -0.01075617
v 0.00655949 0.00760766 -0.01021939
v 0.00955307 0.00724771 -0.01008298
v 0.00060496 0.00797861 -0.01037353
v 0.00955307 0.00725400 -0.01009431
v 0.00955307 0.00726500 -0.01075568
v 0.00955307 0.00726657 -0.01140326
v 0.00955307 0.00726814 -0.01207103
v 0.00955307 0.00726971 -0.01273978
v 0.00695966 0.00796603 -0.01273978
v 0.00695794 0.00796603 -0.01340164
v 0.00693562 0.00795660 -0.01376458
v 0.00589825 0.00773655 -0.01414180
v 0.00218161 0.00788901 -0.01393792
v 0.00218161 0.00798332 -0.01381136
v 0.00060496 0.00798332 -0.01381136
v 0.00655949 0.00772554 -0.01412654
v -0.00005627 0.00797547 -0.01379659
v -0.00005627 0.00801162 -0.01340213
v -0.00030359 0.00799433 -0.01315591
v -0.00077419 0.00796132 -0.01268807
v -0.00104898 0.00793931 -0.01240540
v -0.00058183 0.00796132 -0.01075617
v -0.00050454 0.00795189 -0.01040751
v -0.00005627 0.00796918 -0.01038535
v 0.00060496 0.00760766 -0.01022875
v 0.00721385 0.00706852 -0.01008298
v 0.00955307 -0.00722885 -0.01008298
v -0.00204169 0.00694592 -0.01013814
v -0.00005627 0.00760766 -0.01024155
v 0.00955307 0.00726657 -0.01340164
v 0.00955307 0.00715811 -0.01378526
v 0.00955307 0.00704966 -0.01406793
v 0.00955307 0.00670857 -0.01448209
v 0.00702321 0.00734831 -0.01446387
v 0.00655949 0.00739389 -0.01451016
v 0.00589825 0.00740646 -0.01452296
v 0.00218161 0.00761080 -0.01428757
v 0.00060496 0.00773655 -0.01414180
v -0.00005627 0.00772869 -0.01412752
v -0.00058354 0.00795660 -0.01376606
v -0.00068831 0.00796603 -0.01340213
v -0.00071751 0.00796446 -0.01315591
v -0.00104898 0.00793931 -0.01243446
v -0.00131348 0.00789216 -0.01268807
v -0.00138046 0.00787487 -0.01141803
v -0.00091158 0.00791574 -0.01075617
v -0.00138046 0.00784500 -0.01075617
v -0.00204169 0.00770511 -0.01075617
v -0.00311855 0.00731215 -0.01038338
v -0.00270292 0.00738289 -0.01032281
v -0.00204169 0.00747720 -0.01028243
v 0.00679822 0.00694592 -0.01008298
v 0.00706271 -0.00710624 -0.01008298
v 0.00955307 -0.00724771 -0.01008397
v -0.00270292 0.00694592 -0.01017852
v -0.00336244 0.00628418 -0.01013666
v 0.00955307 0.00632347 -0.01481253
v 0.00693390 0.00664098 -0.01506959
v 0.00655949 0.00699307 -0.01484158
v 0.00589825 0.00700250 -0.01485340
v 0.00218161 0.00740646 -0.01452296
v 0.00060496 0.00740646 -0.01452247
v -0.00005627 0.00739703 -0.01451360
v -0.00071751 0.00737345 -0.01448997
v -0.00077075 0.00774912 -0.01401721
v -0.00138046 0.00762809 -0.01406350
v -0.00270292 0.00740804 -0.01392069
v -0.00204169 0.00773812 -0.01340213
v -0.00138046 0.00787801 -0.01340213
v -0.00101807 0.00793617 -0.01340213
v -0.00162606 0.00782614 -0.01315591
v -0.00204169 0.00773812 -0.01315591
v -0.00204169 0.00773655 -0.01273978
v -0.00204169 0.00773026 -0.01141803
v -0.00270292 0.00749920 -0.01075617
v -0.00316493 0.00733259 -0.01075617
v -0.00349812 0.00717698 -0.01075617
v -0.00438778 0.00663627 -0.01040209
v -0.00402367 0.00673844 -0.01033611
v -0.00334870 0.00696635 -0.01028489
v 0.00675700 0.00628418 -0.01008298
v -0.00468662 0.00496227 -0.01013666
v -0.00600909 0.00363879 -0.01013666
v -0.00667032 0.00231531 -0.01013666
v 0.00677074 -0.00694592 -0.01008298
v -0.00336244 -0.00628418 -0.01013666
v -0.00204169 -0.00694592 -0.01013814
v 0.00655949 -0.00760766 -0.01021841
v 0.00589825 -0.00798018 -0.01037206
v 0.00655949 -0.00797232 -0.01037846
v 0.00693562 -0.00795660 -0.01040012
v 0.00955307 -0.00725242 -0.01009431
v 0.00060496 -0.00760766 -0.01022875
v -0.00402367 0.00628418 -0.01019132
v -0.00468662 0.00562401 -0.01015193
v 0.00955307 0.00599339 -0.01507697
v 0.00655949 0.00666142 -0.01508091
v 0.00589825 0.00667085 -0.01508485
v 0.00060496 0.00700250 -0.01485340
v -0.00005627 0.00700093 -0.01484453
v -0.00071751 0.00699464 -0.01482090
v -0.00138046 0.00663784 -0.01506909
v -0.00171193 0.00661583 -0.01505580
v -0.00138046 0.00732787 -0.01444466
v -0.00176174 0.00729172 -0.01440773
v -0.00200562 0.00746934 -0.01410240
v -0.00220314 0.00723042 -0.01434863
v -0.00270292 0.00714397 -0.01425162
v -0.00313745 0.00732630 -0.01380841
v -0.00270292 0.00753692 -0.01340213
v -0.00270292 0.00753535 -0.01315591
v -0.00270292 0.00753221 -0.01273978
v -0.00318725 0.00734831 -0.01315591
v -0.00350155 0.00718955 -0.01141803
v -0.00402367 0.00689562 -0.01141803
v -0.00402367 0.00687833 -0.01075617
v -0.00440839 0.00664884 -0.01075617
v -0.00473986 0.00642407 -0.01075617
v -0.00516923 0.00609241 -0.01075617
v -0.00511599 0.00604369 -0.01034940
v -0.00464025 0.00627317 -0.01030804
v 0.00674841 0.00581263 -0.01008298
v -0.00667032 0.00297705 -0.01014306
v -0.00534785 0.00496227 -0.01015193
v -0.00667032 -0.00231531 -0.01013666
v 0.00669860 -0.00363879 -0.01008298
v 0.00670032 -0.00297705 -0.01008298
v 0.00673467 0.00447500 -0.01008298
v 0.00673982 0.00514146 -0.01008298
v -0.00733327 0.00033008 -0.01014159
v 0.00674154 -0.00676516 -0.01008298
v -0.00600909 -0.00363879 -0.01013666
v -0.00468662 -0.00496227 -0.01013666
v -0.00468662 -0.00562401 -0.01015193
v -0.00402367 -0.00628418 -0.01019132
v -0.00270292 -0.00694592 -0.01017852
v -0.00204169 -0.00747720 -0.01028243
v -0.00005627 -0.00760766 -0.01024155
v 0.00060496 -0.00797861 -0.01037353
v 0.00589825 -0.00802419 -0.01075568
v 0.00060496 -0.00802419 -0.01075617
v 0.00218161 -0.00802419 -0.01075568
v 0.00655949 -0.00800847 -0.01075568
v 0.00695794 -0.00796603 -0.01075568
v 0.00955307 -0.00725557 -0.01012632
v -0.00534098 0.00561615 -0.01027701
v 0.00955307 0.00562401 -0.01510554
v 0.00655949 0.00628418 -0.01510948
v 0.00589825 0.00628418 -0.01511391
v 0.00060496 0.00667085 -0.01508485
v -0.00005627 0.00666927 -0.01508485
v -0.00071751 0.00666299 -0.01508387
v -0.00138046 0.00628418 -0.01509815
v -0.00270292 0.00603268 -0.01508387
v -0.00311168 0.00598710 -0.01507353
v -0.00195753 0.00692391 -0.01470369
v -0.00270292 0.00681231 -0.01457762
v -0.00321302 0.00670385 -0.01447322
v -0.00365613 0.00659697 -0.01437769
v -0.00339507 0.00696321 -0.01409256
v -0.00402367 0.00676830 -0.01392808
v -0.00441011 0.00665513 -0.01378920
v -0.00351873 0.00719427 -0.01340213
v -0.00318725 0.00734988 -0.01340213
v -0.00351358 0.00719584 -0.01273978
v -0.00402367 0.00691762 -0.01273978
v -0.00443072 0.00666770 -0.01273978
v -0.00476391 0.00643350 -0.01273978
v -0.00443587 0.00667085 -0.01315591
v -0.00518813 0.00610342 -0.01273978
v -0.00551960 0.00580162 -0.01273978
v -0.00549899 0.00577490 -0.01075617
v -0.00577723 0.00539138 -0.01034940
v -0.00600909 0.00430053 -0.01016769
v -0.00671154 0.00367651 -0.01025682
v -0.00718385 0.00297705 -0.01028735
v -0.00733327 0.00165357 -0.01019920
v -0.00733327 0.00099182 -0.01015784
v -0.00600050 0.00494183 -0.01028932
v -0.00667032 -0.00297705 -0.01014306
v 0.00672952 -0.00611442 -0.01008298
v 0.00671063 -0.00480980 -0.01008298
v 0.00670376 -0.00415592 -0.01008298
v -0.00733327 -0.00033008 -0.01014159
v -0.00781245 0.00033008 -0.01028588
v -0.00534785 -0.00496227 -0.01015193
v -0.00534098 -0.00561615 -0.01027701
v -0.00464025 -0.00627317 -0.01030804
v -0.00402367 -0.00673844 -0.01033611
v -0.00334870 -0.00696635 -0.01028489
v -0.00270292 -0.00738289 -0.01032281
v -0.00050454 -0.00795189 -0.01040751
v -0.00005627 -0.00796918 -0.01038535
v 0.00589825 -0.00802891 -0.01141803
v -0.00005627 -0.00800376 -0.01075617
v 0.00060496 -0.00802891 -0.01141803
v 0.00655949 -0.00801005 -0.01141803
v 0.00695966 -0.00796603 -0.01141803
v 0.00955307 -0.00726971 -0.01274077
v 0.00955307 -0.00726343 -0.01075568
v 0.00955307 0.00496227 -0.01511391
v 0.00325161 0.00628418 -0.01511391
v -0.00005627 0.00628418 -0.01511292
v -0.00071751 0.00628418 -0.01511243
v -0.00270292 0.00562401 -0.01511243
v -0.00334355 0.00560672 -0.01508978
v -0.00388284 0.00537566 -0.01507500
v -0.00432423 0.00526249 -0.01505137
v -0.00355136 0.00581734 -0.01501049
v -0.00338305 0.00629204 -0.01474210
v -0.00402367 0.00614900 -0.01456088
v -0.00443415 0.00601225 -0.01444121
v -0.00402367 0.00647908 -0.01425901
v -0.00464368 0.00625431 -0.01404380
v -0.00513317 0.00605469 -0.01385765
v -0.00519156 0.00610499 -0.01340213
v -0.00476734 0.00643507 -0.01340213
v -0.00443759 0.00667242 -0.01340213
v -0.00402367 0.00692077 -0.01340213
v -0.00351701 0.00719584 -0.01315591
v -0.00476734 0.00643507 -0.01315591
v -0.00552304 0.00580477 -0.01340213
v -0.00564498 0.00568059 -0.01315591
v -0.00584936 0.00547154 -0.01273978
v -0.00583047 0.00544482 -0.01075617
v -0.00616023 0.00508173 -0.01075617
v -0.00639380 0.00470763 -0.01037058
v -0.00651574 0.00430053 -0.01031198
v -0.00709282 0.00348160 -0.01033808
v -0.00769051 0.00206696 -0.01039028
v -0.00773516 0.00165357 -0.01034300
v -0.00778153 0.00099182 -0.01030213
v -0.00671154 -0.00367651 -0.01025682
v -0.00600909 -0.00430053 -0.01016769
v -0.00733327 -0.00099182 -0.01015784
v -0.00733327 -0.00165357 -0.01019920
v -0.00718385 -0.00297705 -0.01028735
v -0.00781245 -0.00033008 -0.01028588
v -0.00797561 0.00033008 -0.01075617
v -0.00600050 -0.00494183 -0.01028932
v -0.00577723 -0.00539138 -0.01034940
v -0.00511599 -0.00604369 -0.01034940
v -0.00438778 -0.00663627 -0.01040209
v -0.00311855 -0.00731215 -0.01038338
v -0.00091158 -0.00791574 -0.01075617
v -0.00058183 -0.00796132 -0.01075617
v -0.00204169 -0.00770511 -0.01075617
v -0.00138046 -0.00784500 -0.01075617
v 0.00589825 -0.00802891 -0.01340164
v -0.00105242 -0.00793931 -0.01239654
v -0.00078105 -0.00796289 -0.01274027
v -0.00005627 -0.00801319 -0.01273978
v 0.00060496 -0.00802891 -0.01340213
v 0.00655949 -0.00801005 -0.01340164
v 0.00695794 -0.00796603 -0.01340164
v 0.00955307 -0.00726657 -0.01340164
v 0.00955307 -0.00496227 -0.01511391
v 0.00218161 0.00099182 -0.01511391
v -0.00600909 0.00165357 -0.01511292
v -0.00534614 0.00297705 -0.01511292
v -0.00336244 0.00496227 -0.01511292
v -0.00204169 0.00562401 -0.01511292
v -0.00468490 0.00430053 -0.01509913
v -0.00407176 0.00500942 -0.01509027
v -0.00468490 0.00477522 -0.01507057
v -0.00501809 0.00463218 -0.01505629
v -0.00468490 0.00510530 -0.01494598
v -0.00466773 0.00562086 -0.01459880
v -0.00487383 0.00583935 -0.01429889
v -0.00535129 0.00562715 -0.01408271
v -0.00579268 0.00541495 -0.01386603
v -0.00585108 0.00547468 -0.01340213
v -0.00618084 0.00509902 -0.01340213
v -0.00618084 0.00509273 -0.01273978
v -0.00642472 0.00475007 -0.01075617
v -0.00695199 0.00390443 -0.01075617
v -0.00714263 0.00357277 -0.01075617
v -0.00738823 0.00297705 -0.01075617
v -0.00770768 0.00211411 -0.01075617
v -0.00781417 0.00165357 -0.01075617
v -0.00790863 0.00099182 -0.01075617
v -0.00651574 -0.00430053 -0.01031198
v -0.00709282 -0.00348160 -0.01033808
v -0.00778153 -0.00099182 -0.01030213
v -0.00773516 -0.00165357 -0.01034300
v -0.00769051 -0.00206696 -0.01039028
v -0.00797561 -0.00033008 -0.01075617
v -0.00799278 0.00033008 -0.01141803
v -0.00639380 -0.00470763 -0.01037058
v -0.00583047 -0.00544482 -0.01075617
v -0.00549899 -0.00577490 -0.01075617
v -0.00616023 -0.00508173 -0.01075617
v -0.00516923 -0.00609241 -0.01075617
v -0.00473986 -0.00642407 -0.01075617
v -0.00440839 -0.00664884 -0.01075617
v -0.00402367 -0.00687833 -0.01075617
v -0.00349812 -0.00717698 -0.01075617
v -0.00316493 -0.00733259 -0.01075617
v -0.00270292 -0.00749920 -0.01075617
v -0.00138046 -0.00787487 -0.01141803
v -0.00204169 -0.00773026 -0.01141803
v 0.00589825 -0.00798332 -0.01381087
v 0.00655949 -0.00797547 -0.01379561
v 0.00218161 -0.00802891 -0.01340213
v -0.00131519 -0.00789373 -0.01274027
v -0.00105242 -0.00793931 -0.01252064
v -0.00088926 -0.00795189 -0.01315591
v -0.00072781 -0.00796603 -0.01315591
v -0.00005627 -0.00801162 -0.01340213
v 0.00060496 -0.00798332 -0.01381136
v -0.00005627 -0.00797547 -0.01379659
v 0.00693562 -0.00795660 -0.01376458
v 0.00955307 -0.00705123 -0.01407040
v 0.00955307 -0.00530807 -0.01511145
v 0.00589825 -0.00628418 -0.01511391
v 0.00218161 -0.00099182 -0.01511391
v -0.00600909 -0.00165357 -0.01511292
v -0.00645048 0.00033008 -0.01508485
v -0.00643331 0.00099182 -0.01508485
v -0.00640583 0.00165357 -0.01508485
v -0.00637663 0.00214555 -0.01507500
v -0.00583562 0.00297705 -0.01508485
v -0.00534957 0.00364193 -0.01509027
v -0.00510397 0.00430053 -0.01507057
v -0.00572742 0.00342187 -0.01507500
v -0.00557285 0.00386356 -0.01503118
v -0.00597130 0.00364193 -0.01486029
v -0.00599363 0.00424866 -0.01455940
v -0.00576349 0.00473121 -0.01445993
v -0.00529289 0.00490254 -0.01468646
v -0.00512630 0.00539766 -0.01447224
v -0.00556769 0.00517289 -0.01430727
v -0.00599878 0.00494812 -0.01406744
v -0.00640926 0.00472335 -0.01382712
v -0.00644189 0.00476736 -0.01340213
v -0.00644189 0.00476579 -0.01315591
v -0.00674932 0.00430053 -0.01273978
v -0.00672184 0.00430053 -0.01141803
v -0.00696573 0.00390914 -0.01141803
v -0.00698118 0.00393115 -0.01273978
v -0.00714950 0.00357906 -0.01141803
v -0.00741227 0.00297705 -0.01141803
v -0.00771112 0.00212040 -0.01141803
v -0.00781932 0.00165357 -0.01141803
v -0.00791721 0.00099182 -0.01141803
v -0.00714263 -0.00357277 -0.01075617
v -0.00695199 -0.00390443 -0.01075617
v -0.00790863 -0.00099182 -0.01075617
v -0.00781417 -0.00165357 -0.01075617
v -0.00770768 -0.00211411 -0.01075617
v -0.00738823 -0.00297705 -0.01075617
v -0.00799278 -0.00033008 -0.01141803
v -0.00766990 0.00006287 -0.01376655
v -0.00642472 -0.00475007 -0.01075617
v -0.00584936 -0.00547154 -0.01273978
v -0.00551960 -0.00580162 -0.01273978
v -0.00618084 -0.00509273 -0.01273978
v -0.00518813 -0.00610342 -0.01273978
v -0.00476391 -0.00643350 -0.01273978
v -0.00455953 -0.00658440 -0.01315591
v -0.00443587 -0.00667085 -0.01315591
v -0.00443072 -0.00666770 -0.01273978
v -0.00402367 -0.00689562 -0.01141803
v -0.00350155 -0.00718955 -0.01141803
v -0.00317180 -0.00733573 -0.01141803
v -0.00270292 -0.00753064 -0.01273978
v -0.00204169 -0.00773812 -0.01273978
v 0.00218161 -0.00798332 -0.01381136
v 0.00589825 -0.00773655 -0.01414180
v 0.00655949 -0.00772554 -0.01412654
v -0.00138046 -0.00787958 -0.01340213
v -0.00119153 -0.00791259 -0.01315591
v -0.00103524 -0.00793774 -0.01315591
v -0.00102666 -0.00793617 -0.01340213
v -0.00069518 -0.00796761 -0.01340213
v -0.00058526 -0.00795660 -0.01376606
v -0.00005627 -0.00772869 -0.01412752
v 0.00060496 -0.00773655 -0.01414180
v 0.00218161 -0.00783086 -0.01401573
v 0.00702493 -0.00734831 -0.01446387
v 0.00955307 -0.00692391 -0.01423291
v 0.00955307 -0.00562401 -0.01510554
v 0.00589825 -0.00667085 -0.01508485
v 0.00325161 -0.00628418 -0.01511391
v 0.00655949 -0.00628418 -0.01510948
v -0.00637835 -0.00214555 -0.01507500
v -0.00640583 -0.00165357 -0.01508485
v -0.00643159 -0.00099182 -0.01508485
v -0.00645048 -0.00033008 -0.01508485
v -0.00534614 -0.00297705 -0.01511292
v -0.00583562 -0.00297705 -0.01508485
v -0.00678196 0.00033008 -0.01497651
v -0.00628045 0.00258723 -0.01504595
v -0.00676478 0.00099182 -0.01494647
v -0.00673558 0.00165357 -0.01488295
v -0.00715809 0.00165357 -0.01455202
v -0.00662566 0.00234517 -0.01484306
v -0.00616710 0.00297705 -0.01497701
v -0.00645735 0.00363879 -0.01449883
v -0.00635602 0.00399402 -0.01440822
v -0.00620316 0.00443570 -0.01426836
v -0.00675448 0.00430053 -0.01340213
v -0.00651574 0.00424866 -0.01405414
v -0.00710141 0.00350675 -0.01387489
v -0.00698462 0.00393586 -0.01340213
v -0.00704645 0.00381169 -0.01315591
v -0.00715122 0.00360106 -0.01273978
v -0.00715293 0.00360421 -0.01315591
v -0.00715293 0.00360578 -0.01340213
v -0.00734873 0.00297705 -0.01340213
v -0.00769566 0.00207482 -0.01184351
v -0.00750502 0.00099182 -0.01406350
v -0.00714950 -0.00357906 -0.01141803
v -0.00698118 -0.00393115 -0.01273978
v -0.00696573 -0.00390914 -0.01141803
v -0.00741227 -0.00297705 -0.01141803
v -0.00672184 -0.00430053 -0.01141803
v -0.00791721 -0.00099182 -0.01141803
v -0.00781932 -0.00165357 -0.01141803
v -0.00771112 -0.00212040 -0.01141803
v -0.00766990 -0.00008016 -0.01376655
v -0.00759261 0.00030179 -0.01401770
v -0.00674932 -0.00430053 -0.01273978
v -0.00655696 -0.00459446 -0.01315591
v -0.00644189 -0.00476579 -0.01315591
v -0.00585108 -0.00547468 -0.01340213
v -0.00552304 -0.00580477 -0.01340213
v -0.00618084 -0.00509902 -0.01340213
v -0.00634571 -0.00488839 -0.01315591
v -0.00519156 -0.00610499 -0.01340213
v -0.00503355 -0.00622759 -0.01315591
v -0.00476734 -0.00643507 -0.01315591
v -0.00443759 -0.00667242 -0.01340213
v -0.00428301 -0.00676358 -0.01315591
v -0.00402367 -0.00691605 -0.01273978
v -0.00350671 -0.00719269 -0.01207891
v -0.00318038 -0.00734359 -0.01273978
v -0.00270292 -0.00753064 -0.01340213
v -0.00318210 -0.00734516 -0.01315591
v -0.00300348 -0.00741432 -0.01315591
v -0.00204169 -0.00773655 -0.01315591
v 0.00589825 -0.00740646 -0.01452296
v 0.00655949 -0.00739389 -0.01451016
v -0.00204169 -0.00773498 -0.01340213
v -0.00270292 -0.00740332 -0.01391576
v -0.00200391 -0.00746776 -0.01410093
v -0.00138046 -0.00762652 -0.01406350
v -0.00077075 -0.00774912 -0.01401721
v -0.00071751 -0.00737345 -0.01448997
v -0.00005627 -0.00739703 -0.01451360
v 0.00060496 -0.00740646 -0.01452247
v 0.00218161 -0.00740646 -0.01452296
v 0.00955307 -0.00616629 -0.01495485
v 0.00955307 -0.00654196 -0.01463918
v 0.00955307 -0.00671171 -0.01448110
v 0.00693390 -0.00664098 -0.01506959
v 0.00955307 -0.00582363 -0.01509027
v 0.00655949 -0.00666142 -0.01508091
v 0.00589825 -0.00700250 -0.01485340
v 0.00218161 -0.00679817 -0.01499670
v 0.00060496 -0.00667085 -0.01508485
v -0.00005627 -0.00666927 -0.01508485
v -0.00005627 -0.00628418 -0.01511292
v -0.00204169 -0.00562401 -0.01511292
v -0.00336244 -0.00496227 -0.01511292
v -0.00572742 -0.00342187 -0.01507500
v -0.00628045 -0.00258723 -0.01504644
v -0.00662566 -0.00234517 -0.01484453
v -0.00715809 -0.00165357 -0.01455399
v -0.00673558 -0.00165357 -0.01488492
v -0.00676306 -0.00099182 -0.01494500
v -0.00678196 -0.00033008 -0.01497553
v -0.00468490 -0.00430053 -0.01509913
v -0.00534957 -0.00364193 -0.01509027
v -0.00725770 0.00033008 -0.01464558
v -0.00668749 0.00293146 -0.01460372
v -0.00722163 0.00099182 -0.01461554
v -0.00714950 0.00293146 -0.01408271
v -0.00707221 0.00231531 -0.01446633
v -0.00701553 0.00268154 -0.01440773
v -0.00692107 0.00312323 -0.01431613
v -0.00682317 0.00369066 -0.01408271
v -0.00715122 -0.00360106 -0.01273978
v -0.00698462 -0.00393586 -0.01340213
v -0.00715293 -0.00360578 -0.01340213
v -0.00715293 -0.00360421 -0.01315591
v -0.00734873 -0.00297705 -0.01340213
v -0.00769566 -0.00207482 -0.01184400
v -0.00759261 -0.00031279 -0.01401770
v -0.00749815 -0.00099182 -0.01406350
v -0.00675448 -0.00430053 -0.01340213
v -0.00644189 -0.00476736 -0.01340213
v -0.00579268 -0.00541495 -0.01386603
v -0.00640926 -0.00472335 -0.01382712
v -0.00513317 -0.00605469 -0.01385765
v -0.00441011 -0.00665513 -0.01378920
v -0.00476734 -0.00643507 -0.01340213
v -0.00402367 -0.00691920 -0.01315591
v -0.00402367 -0.00691920 -0.01340213
v -0.00351186 -0.00719427 -0.01273978
v -0.00330576 -0.00729015 -0.01315591
v -0.00318210 -0.00734516 -0.01340213
v -0.00313229 -0.00732316 -0.01380496
v 0.00655949 -0.00699307 -0.01484158
v -0.00270292 -0.00714082 -0.01424669
v -0.00219798 -0.00722885 -0.01434617
v -0.00175659 -0.00729015 -0.01440674
v -0.00138046 -0.00732787 -0.01444417
v -0.00071751 -0.00699464 -0.01482090
v -0.00171193 -0.00661583 -0.01505580
v -0.00138046 -0.00663784 -0.01506909
v -0.00005627 -0.00700093 -0.01484453
v 0.00060496 -0.00700250 -0.01485340
v 0.00955307 -0.00599339 -0.01507697
v -0.00071751 -0.00666299 -0.01508387
v -0.00071751 -0.00628418 -0.01511243
v -0.00270292 -0.00562401 -0.01511243
v -0.00510397 -0.00430053 -0.01507057
v -0.00501809 -0.00463218 -0.01505629
v -0.00557285 -0.00386356 -0.01503118
v -0.00616710 -0.00297705 -0.01497701
v -0.00645735 -0.00363879 -0.01449883
v -0.00668749 -0.00293303 -0.01460422
v -0.00597130 -0.00364193 -0.01486029
v -0.00701725 -0.00268311 -0.01440822
v -0.00707393 -0.00231531 -0.01446830
v -0.00714950 -0.00293303 -0.01408271
v -0.00721648 -0.00099182 -0.01461407
v -0.00725255 -0.00033008 -0.01464460
v -0.00407176 -0.00500942 -0.01509027
v -0.00468490 -0.00477522 -0.01507057
v -0.00710141 -0.00350675 -0.01387489
v -0.00556769 -0.00517289 -0.01430727
v -0.00535129 -0.00562715 -0.01408271
v -0.00599878 -0.00494812 -0.01406744
v -0.00651574 -0.00424866 -0.01405414
v -0.00620316 -0.00443570 -0.01426836
v -0.00487383 -0.00583935 -0.01429889
v -0.00464368 -0.00625431 -0.01404380
v -0.00351358 -0.00719427 -0.01340213
v -0.00402367 -0.00647908 -0.01425901
v -0.00402367 -0.00676830 -0.01392808
v -0.00339507 -0.00696164 -0.01409108
v -0.00270292 -0.00681074 -0.01457713
v -0.00365613 -0.00659697 -0.01437769
v -0.00321302 -0.00670228 -0.01447322
v -0.00195582 -0.00692234 -0.01470320
v -0.00311168 -0.00598710 -0.01507353
v -0.00270292 -0.00603268 -0.01508387
v -0.00138046 -0.00628418 -0.01509815
v -0.00334355 -0.00560672 -0.01508978
v -0.00512630 -0.00539766 -0.01447224
v -0.00529289 -0.00490254 -0.01468646
v -0.00576349 -0.00473121 -0.01445993
v -0.00599363 -0.00424866 -0.01455940
v -0.00432423 -0.00526249 -0.01505137
v -0.00468490 -0.00510530 -0.01494598
v -0.00635602 -0.00399402 -0.01440822
v -0.00692107 -0.00312323 -0.01431613
v -0.00388284 -0.00537566 -0.01507500
v -0.00682317 -0.00369066 -0.01408271
v -0.00466773 -0.00562086 -0.01459880
v -0.00443415 -0.00601225 -0.01444121
v -0.00338305 -0.00629204 -0.01474210
v -0.00402367 -0.00614900 -0.01456088
v -0.00355136 -0.00581734 -0.01501049
f 1 2 3
f 1 3 4
f 1 4 12
f 1 12 5
f 1 5 16
f 1 16 18
f 1 18 6
f 1 6 7
f 1 7 2
f 2 7 8
f 2 8 9
f 2 9 3
f 3 9 10
f 3 10 11
f 3 11 4
f 4 11 13
f 4 13 32
f 4 32 12
f 5 14 15
f 5 15 16
f 5 12 17
f 5 17 14
f 6 18 19
f 6 19 20
f 6 20 21
f 6 21 22
f 6 22 23
f 6 23 7
f 7 23 8
f 8 24 25
f 8 25 9
f 8 23 26
f 8 26 24
f 9 25 10
f 10 25 27
f 10 27 11
f 11 27 28
f 11 28 29
f 11 29 30
f 11 30 31
f 11 31 13
f 12 32 33
f 12 33 34
f 12 34 17
f 13 31 32
f 14 35 36
f 14 36 37
f 14 37 15
f 14 17 35
f 15 37 38
f 15 38 18
f 15 18 16
f 17 39 35
f 17 34 39
f 18 38 40
f 18 40 41
f 18 41 19
f 19 41 20
f 20 41 42
f 20 42 43
f 20 43 21
f 21 43 22
f 22 43 44
f 22 44 45
f 22 45 46
f 22 46 47
f 22 47 23
f 23 47 26
f 24 26 48
f 24 48 25
f 25 49 75
f 25 75 104
f 25 104 145
f 25 145 152
f 25 152 151
f 25 151 150
f 25 150 149
f 25 149 206
f 25 206 205
f 25 205 204
f 25 204 154
f 25 154 108
f 25 108 76
f 25 76 50
f 25 50 77
f 25 77 115
f 25 115 168
f 25 168 223
f 25 223 222
f 25 222 279
f 25 279 336
f 25 336 404
f 25 404 478
f 25 478 477
f 25 477 476
f 25 476 537
f 25 537 480
f 25 480 405
f 25 405 337
f 25 337 280
f 25 280 224
f 25 224 170
f 25 170 119
f 25 119 80
f 25 80 56
f 25 56 55
f 25 55 54
f 25 54 53
f 25 53 31
f 25 31 30
f 25 30 29
f 25 29 28
f 25 28 27
f 25 48 51
f 25 51 49
f 26 47 52
f 26 52 48
f 31 53 33
f 31 33 32
f 33 53 34
f 34 53 54
f 34 54 55
f 34 55 56
f 34 56 57
f 34 57 39
f 35 39 58
f 35 58 59
f 35 59 60
f 35 60 61
f 35 61 36
f 36 61 38
f 36 38 37
f 38 61 62
f 38 62 40
f 39 57 58
f 40 62 63
f 40 63 41
f 41 63 64
f 41 64 42
f 42 64 65
f 42 65 43
f 43 65 66
f 43 66 44
f 44 66 67
f 44 67 68
f 44 68 45
f 45 69 46
f 45 68 69
f 46 69 70
f 46 70 71
f 46 71 72
f 46 72 73
f 46 73 74
f 46 74 47
f 47 74 52
f 48 52 51
f 49 51 75
f 50 76 77
f 51 52 74
f 51 74 78
f 51 78 79
f 51 79 75
f 56 80 57
f 57 80 81
f 57 81 58
f 58 81 82
f 58 82 59
f 59 83 122
f 59 122 84
f 59 84 60
f 59 82 83
f 60 84 85
f 60 85 61
f 61 85 86
f 61 86 62
f 62 86 87
f 62 87 88
f 62 88 63
f 63 88 89
f 63 89 90
f 63 90 91
f 63 91 92
f 63 92 93
f 63 93 64
f 64 93 66
f 64 66 65
f 66 92 67
f 66 93 92
f 67 92 94
f 67 94 95
f 67 95 68
f 68 70 69
f 68 95 96
f 68 96 97
f 68 97 71
f 68 71 70
f 71 97 98
f 71 98 72
f 72 98 99
f 72 99 100
f 72 100 101
f 72 101 102
f 72 102 103
f 72 103 73
f 73 103 78
f 73 78 74
f 75 79 105
f 75 105 106
f 75 106 107
f 75 107 104
f 76 108 109
f 76 109 110
f 76 110 77
f 77 111 112
f 77 112 113
f 77 113 114
f 77 114 115
f 77 110 116
f 77 116 111
f 78 103 117
f 78 117 79
f 79 117 118
f 79 118 105
f 80 119 81
f 81 120 82
f 81 119 120
f 82 120 83
f 83 120 121
f 83 121 173
f 83 173 122
f 84 122 85
f 85 122 123
f 85 123 86
f 86 123 124
f 86 124 87
f 87 124 125
f 87 125 126
f 87 126 127
f 87 127 88
f 88 127 89
f 89 127 128
f 89 128 129
f 89 129 90
f 90 129 130
f 90 130 131
f 90 131 132
f 90 132 91
f 91 95 94
f 91 94 92
f 91 132 133
f 91 133 95
f 95 133 96
f 96 133 97
f 97 133 134
f 97 134 135
f 97 135 98
f 98 135 99
f 99 135 136
f 99 136 137
f 99 137 100
f 100 137 138
f 100 138 139
f 100 139 101
f 101 140 141
f 101 141 142
f 101 142 143
f 101 143 144
f 101 144 102
f 101 139 140
f 102 144 117
f 102 117 103
f 104 107 145
f 105 118 147
f 105 147 106
f 106 146 107
f 106 147 146
f 107 148 149
f 107 149 150
f 107 150 151
f 107 151 152
f 107 152 145
f 107 146 153
f 107 153 207
f 107 207 148
f 108 154 148
f 108 148 155
f 108 155 156
f 108 156 109
f 109 156 157
f 109 157 158
f 109 158 159
f 109 159 110
f 110 159 160
f 110 160 161
f 110 161 116
f 111 116 162
f 111 162 112
f 112 163 113
f 112 162 164
f 112 164 165
f 112 165 163
f 113 166 114
f 113 163 166
f 114 166 167
f 114 167 168
f 114 168 115
f 116 161 162
f 117 144 118
f 118 169 147
f 118 144 169
f 119 170 120
f 120 171 121
f 120 170 171
f 121 171 172
f 121 172 225
f 121 225 173
f 122 173 174
f 122 174 175
f 122 175 123
f 123 175 124
f 124 175 125
f 125 176 177
f 125 177 178
f 125 178 126
f 125 175 176
f 126 179 128
f 126 128 127
f 126 178 180
f 126 180 179
f 128 179 130
f 128 130 129
f 130 180 131
f 130 179 180
f 131 180 181
f 131 181 182
f 131 182 183
f 131 183 132
f 132 183 184
f 132 184 185
f 132 185 186
f 132 186 187
f 132 187 133
f 133 187 136
f 133 136 134
f 134 136 135
f 136 187 188
f 136 188 137
f 137 188 189
f 137 189 138
f 138 189 140
f 138 140 139
f 140 189 190
f 140 190 141
f 141 191 142
f 141 190 192
f 141 192 191
f 142 191 193
f 142 193 194
f 142 194 195
f 142 195 143
f 143 195 196
f 143 196 169
f 143 169 144
f 146 147 197
f 146 197 198
f 146 198 199
f 146 199 200
f 146 200 201
f 146 201 153
f 147 169 202
f 147 202 197
f 148 203 155
f 148 154 204
f 148 204 205
f 148 205 206
f 148 206 149
f 148 207 203
f 153 201 208
f 153 208 261
f 153 261 207
f 155 203 209
f 155 209 157
f 155 157 156
f 157 209 210
f 157 210 211
f 157 211 158
f 158 211 212
f 158 212 213
f 158 213 159
f 159 214 160
f 159 213 214
f 160 214 215
f 160 215 216
f 160 216 161
f 161 216 162
f 162 216 164
f 163 217 166
f 163 165 219
f 163 219 217
f 164 216 218
f 164 218 219
f 164 219 165
f 166 217 220
f 166 220 167
f 167 221 222
f 167 222 223
f 167 223 168
f 167 220 221
f 169 196 202
f 170 224 172
f 170 172 171
f 172 224 280
f 172 280 338
f 172 338 407
f 172 407 339
f 172 339 281
f 172 281 225
f 173 225 174
f 174 225 226
f 174 226 227
f 174 227 175
f 175 227 176
f 176 228 177
f 176 227 228
f 177 228 178
f 178 228 229
f 178 229 230
f 178 230 231
f 178 231 232
f 178 232 233
f 178 233 180
f 180 233 181
f 181 233 182
f 182 184 183
f 182 233 234
f 182 234 235
f 182 235 236
f 182 236 184
f 184 236 185
f 185 236 237
f 185 237 238
f 185 238 239
f 185 239 240
f 185 240 241
f 185 241 242
f 185 242 186
f 186 242 243
f 186 243 187
f 187 243 188
f 188 243 242
f 188 242 189
f 189 242 241
f 189 241 192
f 189 192 190
f 191 192 241
f 191 241 244
f 191 244 193
f 193 244 239
f 193 239 245
f 193 245 194
f 194 245 246
f 194 246 247
f 194 247 248
f 194 248 195
f 195 248 196
f 196 248 249
f 196 249 250
f 196 250 202
f 197 202 251
f 197 251 198
f 198 251 252
f 198 252 199
f 199 252 253
f 199 253 254
f 199 254 200
f 200 254 255
f 200 255 201
f 201 255 208
f 202 250 251
f 203 256 257
f 203 257 209
f 203 207 258
f 203 258 259
f 203 259 260
f 203 260 256
f 207 261 258
f 208 255 262
f 208 262 310
f 208 310 261
f 209 257 263
f 209 263 210
f 210 263 264
f 210 264 265
f 210 265 211
f 211 266 212
f 211 265 266
f 212 266 267
f 212 267 213
f 213 267 214
f 214 267 215
f 215 268 269
f 215 269 218
f 215 218 216
f 215 267 270
f 215 270 271
f 215 271 268
f 217 272 277
f 217 277 220
f 217 219 276
f 217 276 327
f 217 327 272
f 218 269 273
f 218 273 274
f 218 274 275
f 218 275 219
f 219 275 276
f 220 277 221
f 221 278 222
f 221 277 278
f 222 278 279
f 225 281 282
f 225 282 283
f 225 283 284
f 225 284 285
f 225 285 226
f 226 285 228
f 226 228 227
f 228 285 284
f 228 284 286
f 228 286 287
f 228 287 229
f 229 287 230
f 230 287 288
f 230 288 231
f 231 288 289
f 231 289 290
f 231 290 291
f 231 291 235
f 231 235 234
f 231 234 232
f 232 234 233
f 235 291 292
f 235 292 237
f 235 237 236
f 237 292 238
f 238 292 293
f 238 293 294
f 238 294 245
f 238 245 239
f 239 244 240
f 240 244 241
f 245 294 295
f 245 295 246
f 246 295 247
f 247 295 296
f 247 296 297
f 247 297 249
f 247 249 248
f 249 297 298
f 249 298 250
f 250 298 299
f 250 299 252
f 250 252 251
f 252 300 253
f 252 299 300
f 253 301 302
f 253 302 303
f 253 303 304
f 253 304 254
f 253 300 301
f 254 304 262
f 254 262 255
f 256 305 257
f 256 260 306
f 256 306 305
f 257 305 263
f 258 261 307
f 258 307 259
f 259 307 308
f 259 308 260
f 260 308 309
f 260 309 306
f 261 310 307
f 262 311 375
f 262 375 310
f 262 304 311
f 263 305 312
f 263 312 264
f 264 313 314
f 264 314 265
f 264 312 315
f 264 315 313
f 265 314 316
f 265 316 266
f 266 316 317
f 266 317 318
f 266 318 319
f 266 319 320
f 266 320 267
f 267 321 322
f 267 322 270
f 267 320 321
f 268 271 323
f 268 323 269
f 269 323 273
f 270 322 324
f 270 324 323
f 270 323 271
f 272 325 326
f 272 326 277
f 272 327 391
f 272 391 325
f 273 323 328
f 273 328 329
f 273 329 274
f 274 330 331
f 274 331 275
f 274 329 330
f 275 332 276
f 275 331 332
f 276 333 391
f 276 391 327
f 276 332 334
f 276 334 333
f 277 326 335
f 277 335 278
f 278 335 279
f 279 335 336
f 280 337 338
f 281 339 340
f 281 340 282
f 282 340 412
f 282 412 341
f 282 341 342
f 282 342 343
f 282 343 344
f 282 344 345
f 282 345 283
f 283 345 346
f 283 346 286
f 283 286 284
f 286 346 347
f 286 347 288
f 286 288 287
f 288 347 289
f 289 347 348
f 289 348 349
f 289 349 350
f 289 350 351
f 289 351 352
f 289 352 353
f 289 353 354
f 289 354 290
f 290 354 291
f 291 354 292
f 292 354 355
f 292 355 293
f 293 355 294
f 294 355 356
f 294 356 357
f 294 357 295
f 295 357 296
f 296 357 358
f 296 358 359
f 296 359 297
f 297 359 298
f 298 359 360
f 298 360 361
f 298 361 299
f 299 361 362
f 299 362 300
f 300 362 363
f 300 363 364
f 300 364 365
f 300 365 301
f 301 365 302
f 302 365 366
f 302 366 367
f 302 367 303
f 303 367 368
f 303 368 304
f 304 368 311
f 305 306 312
f 306 309 369
f 306 369 370
f 306 370 312
f 307 310 308
f 308 310 371
f 308 371 309
f 309 371 372
f 309 372 373
f 309 373 374
f 309 374 369
f 310 375 371
f 311 368 376
f 311 376 444
f 311 444 375
f 312 377 315
f 312 370 377
f 313 378 379
f 313 379 314
f 313 315 378
f 314 379 316
f 315 377 380
f 315 380 378
f 316 381 382
f 316 382 317
f 316 379 381
f 317 382 383
f 317 383 384
f 317 384 385
f 317 385 318
f 318 385 386
f 318 386 319
f 319 386 320
f 320 386 387
f 320 387 321
f 321 388 389
f 321 389 322
f 321 387 388
f 322 389 324
f 323 324 390
f 323 390 328
f 324 389 390
f 325 391 392
f 325 392 326
f 326 393 335
f 326 392 393
f 328 390 394
f 328 394 329
f 329 394 395
f 329 395 396
f 329 396 330
f 330 396 397
f 330 397 398
f 330 398 331
f 331 398 332
f 332 398 399
f 332 399 334
f 333 334 400
f 333 400 401
f 333 401 402
f 333 402 391
f 334 399 400
f 335 393 403
f 335 403 404
f 335 404 336
f 337 405 338
f 338 406 484
f 338 484 407
f 338 405 408
f 338 408 406
f 339 407 340
f 340 409 410
f 340 410 411
f 340 411 412
f 340 407 413
f 340 413 414
f 340 414 409
f 341 412 415
f 341 415 342
f 342 415 343
f 343 415 344
f 344 416 348
f 344 348 345
f 344 415 417
f 344 417 418
f 344 418 419
f 344 419 420
f 344 420 416
f 345 348 346
f 346 348 347
f 348 416 349
f 349 416 421
f 349 421 350
f 350 421 422
f 350 422 423
f 350 423 351
f 351 423 424
f 351 424 352
f 352 355 353
f 352 424 355
f 353 355 354
f 355 424 356
f 356 424 357
f 357 425 358
f 357 424 426
f 357 426 427
f 357 427 428
f 357 428 425
f 358 425 359
f 359 425 360
f 360 425 428
f 360 428 363
f 360 363 361
f 361 363 362
f 363 428 429
f 363 429 430
f 363 430 364
f 364 430 365
f 365 430 431
f 365 431 432
f 365 432 366
f 366 432 433
f 366 433 434
f 366 434 367
f 367 434 433
f 367 433 368
f 368 433 435
f 368 435 376
f 369 436 437
f 369 437 438
f 369 438 370
f 369 374 439
f 369 439 436
f 370 438 440
f 370 440 377
f 371 375 441
f 371 441 372
f 372 441 442
f 372 442 373
f 373 442 443
f 373 443 439
f 373 439 374
f 375 444 441
f 376 435 445
f 376 445 512
f 376 512 444
f 377 440 446
f 377 446 447
f 377 447 448
f 377 448 380
f 378 449 450
f 378 450 379
f 378 380 451
f 378 451 449
f 379 450 381
f 380 448 452
f 380 452 451
f 381 453 454
f 381 454 455
f 381 455 382
f 381 450 453
f 382 455 383
f 383 456 384
f 383 455 456
f 384 456 457
f 384 457 458
f 384 458 385
f 385 458 386
f 386 458 387
f 387 459 460
f 387 460 388
f 387 458 459
f 388 460 389
f 389 461 390
f 389 460 462
f 389 462 463
f 389 463 461
f 390 464 394
f 390 461 464
f 391 402 392
f 392 465 466
f 392 466 393
f 392 402 401
f 392 401 475
f 392 475 465
f 393 466 403
f 394 464 467
f 394 467 399
f 394 399 397
f 394 397 396
f 394 396 395
f 397 399 398
f 399 467 468
f 399 468 469
f 399 469 470
f 399 470 471
f 399 471 400
f 400 471 472
f 400 472 473
f 400 473 401
f 401 473 474
f 401 474 475
f 403 476 477
f 403 477 478
f 403 478 404
f 403 466 479
f 403 479 476
f 405 480 481
f 405 481 408
f 406 408 481
f 406 481 482
f 406 482 483
f 406 483 484
f 407 484 485
f 407 485 486
f 407 486 487
f 407 487 488
f 407 488 413
f 409 414 489
f 409 489 490
f 409 490 491
f 409 491 492
f 409 492 493
f 409 493 494
f 409 494 495
f 409 495 410
f 410 495 411
f 411 495 412
f 412 495 415
f 413 488 496
f 413 496 497
f 413 497 414
f 414 497 489
f 415 495 498
f 415 498 417
f 416 420 499
f 416 499 422
f 416 422 421
f 417 498 500
f 417 500 418
f 418 500 419
f 419 500 435
f 419 435 501
f 419 501 502
f 419 502 420
f 420 502 503
f 420 503 499
f 422 499 504
f 422 504 423
f 423 504 505
f 423 505 426
f 423 426 424
f 426 505 427
f 427 505 504
f 427 504 503
f 427 503 501
f 427 501 433
f 427 433 432
f 427 432 428
f 428 432 431
f 428 431 429
f 429 431 430
f 433 501 435
f 435 500 445
f 436 506 437
f 436 439 506
f 437 506 507
f 437 507 446
f 437 446 440
f 437 440 438
f 439 508 509
f 439 509 506
f 439 443 508
f 441 444 510
f 441 510 442
f 442 510 511
f 442 511 443
f 443 511 510
f 443 510 508
f 444 512 513
f 444 513 510
f 445 500 498
f 445 498 512
f 446 514 447
f 446 507 514
f 447 515 448
f 447 514 515
f 448 515 452
f 449 516 450
f 449 451 517
f 449 517 516
f 450 516 518
f 450 518 453
f 451 452 515
f 451 515 517
f 453 518 519
f 453 519 520
f 453 520 455
f 453 455 454
f 455 520 456
f 456 521 457
f 456 520 519
f 456 519 522
f 456 522 521
f 457 521 458
f 458 521 459
f 459 523 524
f 459 524 460
f 459 521 523
f 460 524 462
f 461 463 525
f 461 525 526
f 461 526 467
f 461 467 464
f 462 525 463
f 462 524 525
f 465 475 536
f 465 536 482
f 465 482 527
f 465 527 466
f 466 527 479
f 467 526 468
f 468 526 528
f 468 528 529
f 468 529 469
f 469 530 470
f 469 529 530
f 470 530 531
f 470 531 471
f 471 531 472
f 472 532 473
f 472 531 533
f 472 533 534
f 472 534 532
f 473 535 474
f 473 532 535
f 474 535 536
f 474 536 475
f 476 479 537
f 479 527 481
f 479 481 537
f 480 537 481
f 481 527 482
f 482 536 483
f 483 536 484
f 484 536 485
f 485 538 539
f 485 539 486
f 485 536 538
f 486 539 540
f 486 540 487
f 487 540 488
f 488 540 496
f 489 497 541
f 489 541 542
f 489 542 543
f 489 543 490
f 490 544 545
f 490 545 546
f 490 546 491
f 490 543 547
f 490 547 544
f 491 546 548
f 491 548 549
f 491 549 492
f 492 550 513
f 492 513 551
f 492 551 493
f 492 549 550
f 493 551 494
f 494 551 552
f 494 552 495
f 495 552 498
f 496 553 554
f 496 554 541
f 496 541 497
f 496 540 553
f 498 552 512
f 499 503 504
f 501 503 502
f 506 509 507
f 507 509 508
f 507 508 555
f 507 555 517
f 507 517 514
f 508 510 555
f 510 513 550
f 510 550 555
f 512 552 551
f 512 551 513
f 514 517 515
f 516 556 557
f 516 557 518
f 516 517 558
f 516 558 556
f 517 559 560
f 517 560 558
f 517 555 559
f 518 557 561
f 518 561 562
f 518 562 519
f 519 563 522
f 519 562 564
f 519 564 565
f 519 565 526
f 519 526 563
f 521 522 563
f 521 563 523
f 523 563 524
f 524 563 525
f 525 563 526
f 526 565 566
f 526 566 528
f 528 567 529
f 528 566 568
f 528 568 569
f 528 569 567
f 529 567 570
f 529 570 530
f 530 570 533
f 530 533 531
f 532 538 535
f 532 534 538
f 533 570 567
f 533 567 571
f 533 571 534
f 534 571 572
f 534 572 573
f 534 573 538
f 535 538 536
f 538 573 539
f 539 573 540
f 540 573 572
f 540 572 571
f 540 571 574
f 540 574 553
f 541 554 542
f 542 575 576
f 542 576 577
f 542 577 578
f 542 578 547
f 542 547 543
f 542 554 579
f 542 579 580
f 542 580 575
f 544 547 545
f 545 581 582
f 545 582 546
f 545 547 581
f 546 582 548
f 547 578 581
f 548 555 550
f 548 550 549
f 548 582 555
f 553 574 583
f 553 583 554
f 554 583 579
f 555 582 584
f 555 584 559
f 556 558 560
f 556 560 577
f 556 577 576
f 556 576 575
f 556 575 561
f 556 561 557
f 559 584 581
f 559 581 560
f 560 581 578
f 560 578 577
f 561 575 585
f 561 585 586
f 561 586 562
f 562 586 564
f 564 586 568
f 564 568 565
f 565 568 566
f 567 569 587
f 567 587 571
f 568 587 569
f 568 586 588
f 568 588 587
f 571 587 589
f 571 589 579
f 571 579 583
f 571 583 574
f 575 580 585
f 579 589 588
f 579 588 586
f 579 586 585
f 579 585 580
f 581 584 582
f 587 588 589

