# https://github.com/mikedh/trimesh
v 0.01289646 0.04686547 0.00190910
v 0.01289646 0.04130238 0.00190910
v 0.01289646 0.04702808 0.00152167
v 0.01064498 0.04354754 0.02817365
v 0.01289646 0.04129975 -0.00585969
v 0.01064498 0.04046831 0.02817365
v 0.00452954 0.02083357 0.03398107
v 0.01289646 0.04737955 0.00023023
v 0.01064498 0.04454161 0.02510246
v 0.01027518 0.04349771 0.02817365
v 0.00452954 0.03394525 0.03373085
v 0.00452954 0.03368296 0.03377525
v 0.00452954 0.03243186 0.03390843
v 0.00452954 0.03169746 0.03394475
v 0.00452954 0.03117551 0.03396493
v 0.00452954 0.02992178 0.03398107
v 0.01289646 0.04129975 -0.00724798
v 0.00401018 0.02083357 0.03377525
v 0.00452954 0.02083357 0.03067177
v 0.01289646 0.04756839 -0.00087556
v 0.01064498 0.04473570 0.02407738
v 0.01064498 0.04455210 0.02505403
v 0.01061235 0.04453637 0.02509035
v 0.00827386 0.04310953 0.02817365
v 0.00865454 0.04320395 0.02817365
v 0.00972862 0.04341116 0.02817365
v 0.00429841 0.03394525 0.03363803
v 0.00797747 0.04300986 0.02817365
v 0.00616377 0.04222562 0.02817365
v 0.00564441 0.04195809 0.02817365
v 0.00424947 0.03368296 0.03365821
v 0.00409176 0.03243186 0.03372682
v 0.00402650 0.03117551 0.03376718
v 0.00401018 0.02992178 0.03377525
v 0.00523653 0.03846182 -0.00724798
v 0.01289646 0.04634614 -0.00724798
v 0.00190282 0.02083357 0.01937979
v 0.00176958 0.02083357 0.01905693
v 0.00133179 0.02083357 0.01821346
v 0.00119583 0.02083357 0.01806817
v 0.00021693 0.03067454 0.00190910
v 0.00338205 0.02083357 0.03346853
v 0.01289646 0.04758150 -0.00098452
v 0.01038666 0.04464652 0.02407738
v 0.00755056 0.04292330 0.02783868
v 0.00382800 0.03394525 0.03338782
v 0.00362134 0.03368296 0.03332728
v 0.00528276 0.04172728 0.02817365
v 0.00648192 0.04246692 0.02783868
v 0.00556827 0.04200268 0.02783868
v 0.00346635 0.03243186 0.03342414
v 0.00340109 0.03117551 0.03345642
v 0.00338205 0.02992178 0.03346853
v 0.00523653 0.04210760 -0.00724798
v -0.01231850 0.03059323 0.00190910
v -0.01368896 0.03058537 0.00190910
v -0.01432253 0.03078733 0.00190910
v -0.01451288 0.03112043 0.00190910
v -0.01481742 0.03242924 0.00190910
v 0.00531539 0.04215743 -0.00724798
v 0.01289646 0.04641171 -0.00713095
v 0.00048340 0.02083357 0.01784621
v 0.00021693 0.02083357 0.01779374
v -0.01433885 0.02083619 0.02111919
v 0.00272401 0.02083357 0.03296810
v 0.01289646 0.04762872 -0.00223560
v -0.01447209 0.03328954 0.00190910
v 0.00710461 0.04308592 0.02597417
v 0.00728679 0.04302297 0.02680553
v 0.00369476 0.03394525 0.03330710
v 0.00415974 0.04090894 0.02817365
v 0.00373827 0.04058109 0.02817365
v 0.00270226 0.03394525 0.03260892
v 0.00263699 0.03367510 0.03262910
v 0.00494558 0.04159614 0.02783868
v 0.00408360 0.04096927 0.02783868
v 0.00660428 0.04277118 0.02647057
v 0.00538881 0.04211284 0.02658357
v 0.00476339 0.04172203 0.02658357
v 0.00205509 0.03325019 0.03226992
v 0.00272401 0.03243186 0.03287528
v -0.00103118 0.02083357 0.01778567
v -0.00366607 0.02083357 0.01778567
v -0.01231850 0.02083619 0.01778567
v -0.01323758 0.02083619 0.01779374
v -0.01357204 0.02083619 0.01779778
v -0.01420289 0.03054602 0.00212299
v -0.01439323 0.02083619 0.01807221
v -0.01474672 0.02083619 0.01905693
v -0.01478752 0.03242924 0.00277678
v -0.01481198 0.02114569 0.01906903
v -0.01488268 0.03117551 0.00653808
v 0.01289646 0.04728250 -0.00465704
v 0.01289646 0.04716972 -0.00504447
v 0.01289646 0.04686547 -0.00599287
v 0.01289646 0.04655859 -0.00676773
v 0.00214211 0.03394525 0.03218517
v -0.01440411 0.02083619 0.02105865
v 0.00195720 0.02083357 0.03235870
v 0.00253367 0.02083357 0.03281878
v 0.01289646 0.04752118 -0.00349071
v -0.01444218 0.03325282 0.00277678
v 0.00345819 0.04047880 0.02783868
v 0.00336846 0.04024012 0.02817365
v 0.00232157 0.03394525 0.03232642
v -0.01430622 0.03313741 0.00402786
v -0.01420833 0.03306135 0.00468568
v -0.00366607 0.02083357 0.02205144
v -0.01465699 0.02083619 0.02036451
v -0.01453734 0.03220105 0.00653808
v -0.01475216 0.02239941 0.01906903
v -0.01480111 0.02365314 0.01781392
v -0.01481470 0.02490949 0.01656284
v -0.01482558 0.02616322 0.01530773
v -0.01485549 0.02866805 0.01155450
v -0.01479567 0.02992178 0.01029939
v -0.01475760 0.03117551 0.00779320
v 0.00198983 0.03394525 0.03201163
v 0.00294426 0.03977849 0.02817365
v 0.00248200 0.03926441 0.02817365
v 0.00213939 0.03886836 0.02817365
v 0.00181308 0.03845395 0.02817365
v -0.00022086 0.02083357 0.02922698
v 0.00023596 0.02083357 0.03007448
v 0.00038824 0.02083357 0.03035294
v 0.00082602 0.02083357 0.03100270
v 0.00133179 0.02083357 0.03163227
v 0.00180221 0.02083357 0.03218113
v -0.01424639 0.02307874 0.01973493
v -0.01440683 0.02239941 0.01995690
v -0.01458629 0.02118503 0.02038065
v -0.01441226 0.03200696 0.00779320
v -0.01426271 0.03184696 0.00851559
v -0.01430622 0.03062995 0.01107828
v -0.01443402 0.02355872 0.01901253
v -0.01448568 0.02485441 0.01776953
v -0.01450472 0.02612126 0.01653056
v -0.01447752 0.02738285 0.01524316
v -0.01477936 0.02741433 0.01405262
v -0.01453191 0.02995063 0.01151818
v -0.01445034 0.03080831 0.01029939
v 0.00168528 0.03394525 0.03163227
v -0.01441770 0.02955196 0.01253518
v -0.01428446 0.02811463 0.01477905
v 0.00128284 0.03763037 0.02817365
v -0.01434701 0.02694483 0.01609066
v -0.01433069 0.02567799 0.01732156
v -0.01431437 0.02440066 0.01855650
v 0.00112785 0.03394525 0.03092602
v 0.00098101 0.03715563 0.02817365
v -0.01443674 0.02836642 0.01405262
v -0.01460533 0.02875985 0.01289436
f 1 2 5
f 1 5 17
f 1 17 36
f 1 36 61
f 1 61 96
f 1 96 95
f 1 95 94
f 1 94 93
f 1 93 101
f 1 101 66
f 1 66 43
f 1 43 20
f 1 20 8
f 1 8 3
f 1 3 4
f 1 4 6
f 1 6 2
f 2 6 7
f 2 7 5
f 3 8 9
f 3 9 4
f 4 9 10
f 4 10 11
f 4 11 12
f 4 12 13
f 4 13 14
f 4 14 15
f 4 15 16
f 4 16 7
f 4 7 6
f 5 7 19
f 5 19 17
f 7 16 34
f 7 34 18
f 7 18 42
f 7 42 65
f 7 65 100
f 7 100 99
f 7 99 128
f 7 128 127
f 7 127 126
f 7 126 125
f 7 125 124
f 7 124 123
f 7 123 108
f 7 108 83
f 7 83 82
f 7 82 63
f 7 63 62
f 7 62 40
f 7 40 39
f 7 39 38
f 7 38 37
f 7 37 19
f 8 20 21
f 8 21 22
f 8 22 9
f 9 22 23
f 9 23 24
f 9 24 25
f 9 25 26
f 9 26 10
f 10 26 11
f 11 27 12
f 11 26 25
f 11 25 24
f 11 24 28
f 11 28 29
f 11 29 30
f 11 30 27
f 12 27 31
f 12 31 32
f 12 32 13
f 13 32 33
f 13 33 14
f 14 33 15
f 15 33 16
f 16 33 34
f 17 35 54
f 17 54 60
f 17 60 36
f 17 19 37
f 17 37 38
f 17 38 39
f 17 39 40
f 17 40 41
f 17 41 35
f 18 34 53
f 18 53 42
f 20 43 21
f 21 44 23
f 21 23 22
f 21 43 44
f 23 44 45
f 23 45 28
f 23 28 24
f 27 46 47
f 27 47 31
f 27 30 48
f 27 48 46
f 28 45 49
f 28 49 29
f 29 49 50
f 29 50 30
f 30 50 48
f 31 47 51
f 31 51 32
f 32 51 33
f 33 51 52
f 33 52 53
f 33 53 34
f 35 41 55
f 35 55 56
f 35 56 57
f 35 57 58
f 35 58 59
f 35 59 54
f 36 60 61
f 40 62 41
f 41 62 63
f 41 63 55
f 42 53 64
f 42 64 65
f 43 66 67
f 43 67 68
f 43 68 44
f 44 68 69
f 44 69 45
f 45 69 49
f 46 70 47
f 46 48 71
f 46 71 72
f 46 72 70
f 47 70 73
f 47 73 74
f 47 74 51
f 48 50 75
f 48 75 76
f 48 76 71
f 49 69 77
f 49 77 50
f 50 77 78
f 50 78 79
f 50 79 75
f 51 74 80
f 51 80 81
f 51 81 64
f 51 64 52
f 52 64 53
f 54 59 67
f 54 67 60
f 55 63 56
f 56 63 82
f 56 82 83
f 56 83 84
f 56 84 85
f 56 85 86
f 56 86 87
f 56 87 57
f 57 87 88
f 57 88 89
f 57 89 58
f 58 89 59
f 59 90 67
f 59 89 91
f 59 91 92
f 59 92 90
f 60 93 94
f 60 94 95
f 60 95 96
f 60 96 61
f 60 67 93
f 64 81 80
f 64 80 97
f 64 97 98
f 64 98 99
f 64 99 100
f 64 100 65
f 66 101 67
f 67 101 93
f 67 90 102
f 67 102 68
f 68 78 77
f 68 77 69
f 68 102 78
f 70 72 73
f 71 76 72
f 72 76 103
f 72 103 104
f 72 104 73
f 73 105 74
f 73 104 105
f 74 105 80
f 75 79 106
f 75 106 107
f 75 107 76
f 76 107 103
f 78 102 79
f 79 102 106
f 80 105 97
f 83 89 88
f 83 88 86
f 83 86 85
f 83 85 84
f 83 108 89
f 86 88 87
f 89 108 109
f 89 109 91
f 90 92 110
f 90 110 102
f 91 109 111
f 91 111 112
f 91 112 113
f 91 113 114
f 91 114 115
f 91 115 92
f 92 115 116
f 92 116 117
f 92 117 110
f 97 118 98
f 97 105 104
f 97 104 119
f 97 119 120
f 97 120 121
f 97 121 122
f 97 122 118
f 98 108 123
f 98 123 124
f 98 124 125
f 98 125 126
f 98 126 127
f 98 127 128
f 98 128 99
f 98 118 129
f 98 129 130
f 98 130 131
f 98 131 109
f 98 109 108
f 102 110 106
f 103 107 132
f 103 132 133
f 103 133 104
f 104 133 134
f 104 134 119
f 106 110 132
f 106 132 107
f 109 131 111
f 110 117 132
f 111 131 130
f 111 130 135
f 111 135 136
f 111 136 112
f 112 136 137
f 112 137 113
f 113 137 114
f 114 137 138
f 114 138 139
f 114 139 115
f 115 139 116
f 116 140 141
f 116 141 117
f 116 139 140
f 117 141 132
f 118 142 129
f 118 122 142
f 119 134 120
f 120 134 121
f 121 134 143
f 121 143 144
f 121 144 122
f 122 145 142
f 122 144 146
f 122 146 147
f 122 147 148
f 122 148 145
f 129 148 135
f 129 135 130
f 129 142 149
f 129 149 150
f 129 150 148
f 132 141 134
f 132 134 133
f 134 141 140
f 134 140 143
f 135 148 136
f 136 148 147
f 136 147 146
f 136 146 137
f 137 146 138
f 138 144 151
f 138 151 143
f 138 143 152
f 138 152 139
f 138 146 144
f 139 152 140
f 140 152 143
f 142 145 150
f 142 150 149
f 143 151 144
f 145 148 150

