# https://github.com/mikedh/trimesh
v 0.01290503 0.04120571 -0.01871159
v 0.03280049 0.03755666 -0.00727438
v 0.03280049 0.03755049 -0.00725403
v 0.03156772 0.03736331 -0.00599990
v 0.01777616 0.03722961 0.00727652
v 0.01672318 0.03766363 0.00727652
v 0.01289647 0.04130650 0.00190388
v 0.01289647 0.04130444 -0.00461350
v 0.01289647 0.04130444 -0.01101386
v 0.01289647 0.04130650 -0.01509676
v 0.01290503 0.04521060 -0.01871159
v 0.04608695 0.04192564 -0.01871159
v 0.08786399 0.04411013 -0.01750835
v 0.03280049 0.03742913 -0.00599990
v 0.08796672 0.04411013 -0.01748036
v 0.08905395 0.04411013 -0.01717764
v 0.08997852 0.04411013 -0.01681896
v 0.09169925 0.04411013 -0.01600492
v 0.09250398 0.04411013 -0.01556992
v 0.09394220 0.04411013 -0.01468211
v 0.09532050 0.04411013 -0.01352211
v 0.02028450 0.03717407 0.00727652
v 0.01902605 0.03711853 0.00727652
v 0.01529351 0.04103909 0.00727652
v 0.01289647 0.04687468 0.00190388
v 0.01289647 0.04521266 -0.01509676
v 0.01289647 0.04752674 -0.00350183
v 0.01338444 0.04810886 -0.00415306
v 0.01456584 0.04943354 -0.00443288
v 0.01584141 0.05065538 -0.00434131
v 0.01644067 0.05100711 -0.00475595
v 0.01739093 0.05169619 -0.00475341
v 0.01823845 0.05196154 -0.00600245
v 0.01837543 0.05187515 -0.00667657
v 0.02095225 0.05309698 -0.00657482
v 0.02144022 0.05298180 -0.00733034
v 0.02153438 0.05253543 -0.00850307
v 0.02273291 0.05290569 -0.00850307
v 0.02404272 0.05303528 -0.00896096
v 0.02404272 0.05262388 -0.00976228
v 0.02655105 0.05297768 -0.01013368
v 0.02741570 0.05306613 -0.01029903
v 0.02824611 0.05314841 -0.01044149
v 0.03155916 0.05345490 -0.01089684
v 0.03274056 0.05351249 -0.01112833
v 0.03310868 0.05316692 -0.01172105
v 0.03406750 0.05324097 -0.01181772
v 0.03532594 0.05333148 -0.01193474
v 0.03657583 0.05341993 -0.01204921
v 0.03783428 0.05350838 -0.01215860
v 0.03911841 0.05350838 -0.01237228
v 0.03871605 0.05307847 -0.01285562
v 0.03955501 0.05313401 -0.01291667
v 0.01401795 0.04532374 -0.01871159
v 0.04608695 0.04639336 -0.01871159
v 0.08276171 0.04411013 -0.01846484
v 0.08292436 0.04411013 -0.01843685
v 0.08390886 0.04411013 -0.01826133
v 0.08670827 0.04724494 -0.01567931
v 0.08796672 0.04703924 -0.01553685
v 0.08868583 0.04689731 -0.01543764
v 0.09655327 0.04411013 -0.01227562
v 0.09762338 0.04411013 -0.01095026
v 0.09897599 0.04411013 -0.00848017
v 0.09938691 0.04411013 -0.00725912
v 0.10018307 0.04411013 -0.00462622
v 0.10026868 0.04411013 -0.00349929
v 0.10035429 0.04411013 -0.00224516
v 0.10032861 0.04411013 -0.00148455
v 0.10031149 0.04411013 -0.00099104
v 0.10022588 0.04411013 -0.00021770
v 0.10019164 0.04411013 0.00004177
v 0.10012315 0.04411013 0.00040809
v 0.09988344 0.04411013 0.00151721
v 0.09975503 0.04411013 0.00190388
v 0.08952479 0.04666487 -0.01528755
v 0.09047505 0.04726345 -0.01446079
v 0.09128833 0.04698988 -0.01425983
v 0.09212730 0.04663814 -0.01399527
v 0.09272656 0.04718529 -0.01316088
v 0.09357409 0.04680269 -0.01285816
v 0.09482397 0.04680475 -0.01160149
v 0.02106354 0.03743119 0.00727652
v 0.02191107 0.04103909 0.00727652
v 0.05413417 0.05764492 0.00190388
v 0.05374893 0.05764080 0.00190388
v 0.05288428 0.05763052 0.00190388
v 0.05249048 0.05761818 0.00190388
v 0.05162583 0.05758527 0.00190388
v 0.04999071 0.05751944 0.00190388
v 0.04786761 0.05743305 0.00190388
v 0.04660917 0.05737340 0.00190388
v 0.04608695 0.05733637 0.00190388
v 0.04535072 0.05728084 0.00190388
v 0.04490555 0.05724587 0.00190388
v 0.04125006 0.05692704 0.00190388
v 0.04034261 0.05684476 0.00190388
v 0.04016283 0.05682831 0.00190388
v 0.03902424 0.05668432 0.00190388
v 0.03863900 0.05663495 0.00190388
v 0.03783428 0.05652593 0.00190388
v 0.03351960 0.05592119 0.00190388
v 0.03240669 0.05575869 0.00190388
v 0.03190160 0.05567024 0.00190388
v 0.03121673 0.05554065 0.00190388
v 0.02614013 0.05456565 0.00190388
v 0.02489025 0.05431265 0.00190388
v 0.02405128 0.05411106 0.00190388
v 0.02279283 0.05380458 0.00190388
v 0.02239903 0.05369144 0.00190388
v 0.02156007 0.05344050 0.00190388
v 0.02115771 0.05331914 0.00190388
v 0.02075535 0.05317309 0.00190388
v 0.02047284 0.05305585 0.00190388
v 0.01970236 0.05269382 0.00190388
v 0.01902605 0.05237294 0.00190388
v 0.01868362 0.05221044 0.00190388
v 0.01822989 0.05196772 0.00190388
v 0.01790458 0.05175585 0.00190388
v 0.01733100 0.05135063 0.00190388
v 0.01673174 0.05091661 0.00190388
v 0.01629513 0.05058749 0.00190388
v 0.01609824 0.05043528 0.00190388
v 0.01587565 0.05024193 0.00190388
v 0.01485691 0.04928955 0.00190388
v 0.01477986 0.04921345 0.00190388
v 0.01471138 0.04913940 0.00190388
v 0.01430046 0.04864984 0.00190388
v 0.01380392 0.04805538 0.00190388
v 0.01346149 0.04762547 0.00190388
v 0.01289647 0.04703718 0.00151721
v 0.01289647 0.04763370 -0.00224516
v 0.01331595 0.04819937 -0.00224516
v 0.01335876 0.04815000 -0.00350183
v 0.01387241 0.04877737 -0.00350183
v 0.01449735 0.04950348 -0.00350183
v 0.01514798 0.05012468 -0.00350183
v 0.01577292 0.05070886 -0.00350183
v 0.01652628 0.05127246 -0.00350183
v 0.01724539 0.05179287 -0.00350183
v 0.01801587 0.05210142 -0.00475341
v 0.01903461 0.05265474 -0.00475341
v 0.01903461 0.05237088 -0.00600245
v 0.02028450 0.05293037 -0.00609403
v 0.02070398 0.05319572 -0.00573789
v 0.02144022 0.05336850 -0.00609403
v 0.02279283 0.05379224 -0.00600245
v 0.02179121 0.05323274 -0.00696912
v 0.02227062 0.05308053 -0.00780096
v 0.02310103 0.05319778 -0.00808587
v 0.02404272 0.05331297 -0.00833772
v 0.02518988 0.05343638 -0.00862263
v 0.02470191 0.05310521 -0.00911868
v 0.02518988 0.05289129 -0.00973684
v 0.02554087 0.05319366 -0.00930438
v 0.02655105 0.05329857 -0.00950789
v 0.02781806 0.05337879 -0.00983351
v 0.03184167 0.05443401 -0.00926623
v 0.03148212 0.05413163 -0.00971649
v 0.03281761 0.05419540 -0.01006500
v 0.03406750 0.05429825 -0.01025324
v 0.03479517 0.05434967 -0.01036009
v 0.03406750 0.05379635 -0.01101386
v 0.03525746 0.05403084 -0.01092737
v 0.03657583 0.05404524 -0.01117921
v 0.03783428 0.05413575 -0.01130640
v 0.03908417 0.05422008 -0.01142851
v 0.04034261 0.05429002 -0.01152772
v 0.04034261 0.05372230 -0.01226798
v 0.04410083 0.05397942 -0.01241044
v 0.04034261 0.05317103 -0.01296246
v 0.01526783 0.04544716 -0.01871159
v 0.04537640 0.04642010 -0.01871159
v 0.05903955 0.04985522 -0.01635597
v 0.05856014 0.04935744 -0.01665869
v 0.06289194 0.04925253 -0.01660019
v 0.06415038 0.04922167 -0.01658238
v 0.06038360 0.04599842 -0.01846484
v 0.06415038 0.04577215 -0.01846484
v 0.06598241 0.04566108 -0.01846484
v 0.06731790 0.04556852 -0.01846484
v 0.06790861 0.04552532 -0.01846484
v 0.06867052 0.04546567 -0.01846484
v 0.07003170 0.04535459 -0.01846484
v 0.07138432 0.04524352 -0.01846484
v 0.07295952 0.04510776 -0.01846484
v 0.07418372 0.04499051 -0.01846484
v 0.08116083 0.04428497 -0.01846484
v 0.07041694 0.04894193 -0.01642211
v 0.07167539 0.04886993 -0.01637887
v 0.07292527 0.04977911 -0.01570220
v 0.07542504 0.04960427 -0.01558518
v 0.07668349 0.04951376 -0.01552159
v 0.07771936 0.04943148 -0.01546053
v 0.08295005 0.04830838 -0.01555466
v 0.08420850 0.04817674 -0.01546053
v 0.08484200 0.04810475 -0.01540711
v 0.08670827 0.04786820 -0.01523413
v 0.08568096 0.04800601 -0.01533080
v 0.08796672 0.04766250 -0.01508659
v 0.08899402 0.04828164 -0.01430053
v 0.08925941 0.04749589 -0.01479404
v 0.09517497 0.04721408 -0.01076711
v 0.09601393 0.04671013 -0.01025070
v 0.09630500 0.04708449 -0.00941631
v 0.09649334 0.04749177 -0.00845473
v 0.09733231 0.04679241 -0.00780096
v 0.09752065 0.04705981 -0.00696657
v 0.09767474 0.04728814 -0.00600245
v 0.09777747 0.04757405 -0.00479411
v 0.09743504 0.04818085 -0.00440490
v 0.09805142 0.04747532 -0.00349929
v 0.09859931 0.04679035 -0.00224516
v 0.09858219 0.04676772 -0.00099104
v 0.09850514 0.04664019 0.00026054
v 0.09739223 0.04812120 0.00094739
v 0.09767474 0.04751851 0.00142563
v 0.09762338 0.04736835 0.00190388
v 0.02172273 0.03869828 0.00727652
v 0.02154295 0.03790840 0.00727652
v 0.02141453 0.03756900 0.00727652
v 0.08983299 0.04809446 -0.01414027
v 0.09047505 0.04788876 -0.01397237
v 0.09141675 0.04830838 -0.01308711
v 0.09176774 0.04750617 -0.01354246
v 0.09225571 0.04801835 -0.01281746
v 0.09359121 0.04808006 -0.01162184
v 0.09316316 0.04763165 -0.01242062
v 0.09482397 0.04804715 -0.01032447
v 0.09724670 0.04793402 0.00190388
v 0.09601393 0.04934509 0.00190388
v 0.09474692 0.05050110 0.00190388
v 0.09416478 0.05092483 0.00190388
v 0.09319740 0.05161598 0.00190388
v 0.09258959 0.05200680 0.00190388
v 0.09174206 0.05244287 0.00190388
v 0.09068051 0.05293448 0.00190388
v 0.09008125 0.05320394 0.00190388
v 0.08921660 0.05348986 0.00190388
v 0.08883136 0.05359683 0.00190388
v 0.08796672 0.05383543 0.00190388
v 0.08582650 0.05431470 0.00190388
v 0.08169160 0.05516834 0.00190388
v 0.08130636 0.05524239 0.00190388
v 0.08045883 0.05540284 0.00190388
v 0.07951714 0.05557356 0.00190388
v 0.07542504 0.05620916 0.00190388
v 0.07417516 0.05639429 0.00190388
v 0.07292527 0.05655267 0.00190388
v 0.07054535 0.05682625 0.00190388
v 0.06952661 0.05693527 0.00190388
v 0.06790861 0.05709982 0.00190388
v 0.06665872 0.05720679 0.00190388
v 0.06501503 0.05730552 0.00190388
v 0.06164205 0.05750505 0.00190388
v 0.06038360 0.05756675 0.00190388
v 0.05913372 0.05759761 0.00190388
v 0.05874848 0.05760378 0.00190388
v 0.05539262 0.05763463 0.00190388
v 0.05413417 0.05774365 0.00151721
v 0.05288428 0.05772925 0.00151721
v 0.05162583 0.05768195 0.00151721
v 0.05037595 0.05763463 0.00151721
v 0.04786761 0.05753179 0.00151721
v 0.04660917 0.05747419 0.00151721
v 0.04535928 0.05738163 0.00151721
v 0.04034261 0.05697023 0.00133406
v 0.03935811 0.05692087 0.00110256
v 0.03899856 0.05678100 0.00151721
v 0.03783428 0.05662467 0.00151721
v 0.03532594 0.05627498 0.00151721
v 0.03406750 0.05609603 0.00151721
v 0.03162765 0.05571755 0.00147651
v 0.03281761 0.05591090 0.00151721
v 0.02655105 0.05473638 0.00151721
v 0.02531829 0.05449160 0.00150704
v 0.02448789 0.05440727 0.00107967
v 0.02405984 0.05421803 0.00150704
v 0.02279283 0.05390743 0.00151721
v 0.02153438 0.05353717 0.00151721
v 0.02064406 0.05322246 0.00151721
v 0.02001911 0.05295505 0.00151721
v 0.01903461 0.05249018 0.00151721
v 0.01814428 0.05201708 0.00151721
v 0.01751934 0.05160569 0.00151721
v 0.01664613 0.05097626 0.00151721
v 0.01601263 0.05050522 0.00151721
v 0.01475418 0.04923813 0.00178686
v 0.01425765 0.04878560 0.00142818
v 0.01354710 0.04789905 0.00151721
v 0.01289647 0.04738481 0.00022239
v 0.01343581 0.04803687 0.00059633
v 0.01289647 0.04758845 -0.00099358
v 0.01333308 0.04817880 -0.00099358
v 0.01382960 0.04882674 -0.00224516
v 0.01445455 0.04954462 -0.00224516
v 0.01510517 0.05016787 -0.00224516
v 0.01573012 0.05074999 -0.00224516
v 0.01652628 0.05134857 -0.00224516
v 0.01719403 0.05183195 -0.00224516
v 0.01787034 0.05219398 -0.00350183
v 0.01912022 0.05287483 -0.00358832
v 0.01967668 0.05310727 -0.00406148
v 0.01983077 0.05303939 -0.00475341
v 0.02045572 0.05330062 -0.00475341
v 0.02153438 0.05369350 -0.00475341
v 0.02273291 0.05337262 -0.00733034
v 0.02279283 0.05406170 -0.00475341
v 0.02462486 0.05437435 -0.00542245
v 0.02414545 0.05414398 -0.00590324
v 0.02404272 0.05372436 -0.00725403
v 0.02530117 0.05399999 -0.00725403
v 0.02750987 0.05430236 -0.00768903
v 0.02834028 0.05438258 -0.00792561
v 0.02655105 0.05376961 -0.00850307
v 0.03030928 0.05428591 -0.00896351
v 0.03030928 0.05457182 -0.00834280
v 0.03148212 0.05466439 -0.00861754
v 0.03281761 0.05494619 -0.00850307
v 0.03281761 0.05451628 -0.00943412
v 0.03406750 0.05461091 -0.00962745
v 0.03563413 0.05440932 -0.01045421
v 0.03783428 0.05507167 -0.00976228
v 0.03657583 0.05447309 -0.01055342
v 0.03783428 0.05455948 -0.01068061
v 0.03908417 0.05463764 -0.01080526
v 0.04034261 0.05470758 -0.01090193
v 0.04410083 0.05498938 -0.01101386
v 0.04130143 0.05433527 -0.01159386
v 0.04410083 0.05446692 -0.01178211
v 0.04535928 0.05452451 -0.01185842
v 0.04535928 0.05403496 -0.01248421
v 0.04410083 0.05335205 -0.01315071
v 0.01543049 0.04546155 -0.01871159
v 0.04535928 0.05340964 -0.01321176
v 0.04535928 0.05280490 -0.01384009
v 0.03908417 0.04639747 -0.01871159
v 0.05288428 0.05097626 -0.01566913
v 0.05788383 0.05097626 -0.01566913
v 0.05788383 0.04998275 -0.01629747
v 0.05913372 0.05096392 -0.01565896
v 0.06038360 0.04998069 -0.01624659
v 0.06415038 0.04998069 -0.01613211
v 0.06540027 0.04918054 -0.01655694
v 0.07041694 0.04831661 -0.01677826
v 0.06540027 0.04998069 -0.01607615
v 0.06665872 0.04998069 -0.01599983
v 0.07041694 0.04993750 -0.01579632
v 0.07167539 0.04986345 -0.01575053
v 0.07041694 0.05056693 -0.01537150
v 0.07167539 0.05049082 -0.01531299
v 0.07292527 0.05040443 -0.01524685
v 0.07668349 0.05014114 -0.01503571
v 0.07805323 0.04990047 -0.01504588
v 0.07855832 0.04935332 -0.01540203
v 0.08295005 0.04893370 -0.01507641
v 0.08420850 0.04880205 -0.01497211
v 0.08533853 0.04860459 -0.01492632
v 0.08616038 0.04937389 -0.01416571
v 0.08663122 0.04879794 -0.01452185
v 0.08796672 0.04847911 -0.01446079
v 0.08933645 0.04870949 -0.01378667
v 0.08796672 0.04910648 -0.01392150
v 0.09556877 0.04756788 -0.00986912
v 0.09513216 0.04837009 -0.00948754
v 0.09595400 0.04791756 -0.00883377
v 0.09618515 0.04817057 -0.00800447
v 0.09704123 0.04747737 -0.00733289
v 0.09636493 0.04837627 -0.00725912
v 0.09722957 0.04790933 -0.00600245
v 0.09733231 0.04805332 -0.00524183
v 0.09749496 0.04825696 -0.00349929
v 0.09693850 0.04864984 -0.00479411
v 0.09621939 0.04946440 -0.00475341
v 0.09696419 0.04888639 -0.00349929
v 0.09813703 0.04747532 -0.00224516
v 0.09811134 0.04747532 -0.00099104
v 0.09794869 0.04747532 0.00026054
v 0.09727238 0.04796076 0.00178178
v 0.09745216 0.04819114 0.00026054
v 0.09690426 0.04882057 0.00026054
v 0.09618515 0.04942326 0.00110765
v 0.08991003 0.04938623 -0.01292939
v 0.09038944 0.04872800 -0.01327790
v 0.09074044 0.04914557 -0.01266992
v 0.09181911 0.04878560 -0.01232650
v 0.09221291 0.04926076 -0.01153026
v 0.09275224 0.04842358 -0.01198053
v 0.09351416 0.04927104 -0.01027105
v 0.09397645 0.04843386 -0.01078746
v 0.09313748 0.04884525 -0.01115886
v 0.09433600 0.04882057 -0.00987930
v 0.09548316 0.04996835 0.00146634
v 0.09476404 0.05051550 0.00182502
v 0.09330870 0.05166328 0.00151721
v 0.09268375 0.05205822 0.00151721
v 0.09172494 0.05256218 0.00151721
v 0.09081748 0.05299208 0.00151721
v 0.09018398 0.05325126 0.00151721
v 0.08921660 0.05359065 0.00151721
v 0.08796672 0.05393828 0.00151721
v 0.08670827 0.05422008 0.00149941
v 0.08169160 0.05527119 0.00151721
v 0.08047596 0.05550363 0.00150704
v 0.08007360 0.05566201 0.00108476
v 0.07542504 0.05630790 0.00151721
v 0.07417516 0.05649508 0.00151721
v 0.07292527 0.05664935 0.00151721
v 0.07176100 0.05678100 0.00149941
v 0.07041694 0.05696818 0.00131625
v 0.06790861 0.05719445 0.00151721
v 0.06665872 0.05730552 0.00151721
v 0.06540027 0.05738163 0.00151721
v 0.06164205 0.05760378 0.00151721
v 0.06038360 0.05766549 0.00151721
v 0.05913372 0.05769634 0.00151721
v 0.05413417 0.05796992 0.00026054
v 0.05288428 0.05795346 0.00026054
v 0.05162583 0.05791027 0.00026054
v 0.04786761 0.05775805 0.00026054
v 0.04660917 0.05769840 0.00026054
v 0.04608695 0.05766138 0.00026054
v 0.04535928 0.05760584 0.00026309
v 0.04410083 0.05749476 0.00026309
v 0.04034261 0.05715742 0.00026309
v 0.03899856 0.05699492 0.00035467
v 0.03851915 0.05686533 0.00083291
v 0.03406750 0.05632435 0.00026309
v 0.03281761 0.05613923 0.00026309
v 0.03155916 0.05592530 0.00026309
v 0.03077156 0.05565173 0.00103388
v 0.02655105 0.05496676 0.00026309
v 0.02364892 0.05431470 0.00052765
v 0.02530117 0.05471581 0.00026309
v 0.02153438 0.05376961 0.00026309
v 0.02290412 0.05417894 0.00016897
v 0.02023313 0.05329651 0.00016642
v 0.01977941 0.05305996 0.00052256
v 0.01914590 0.05280284 0.00016642
v 0.01795595 0.05214256 0.00026309
v 0.01732244 0.05173734 0.00026309
v 0.01590134 0.05059984 0.00086090
v 0.01520790 0.04978322 0.00142818
v 0.01462577 0.04937389 0.00094993
v 0.01289647 0.04757405 -0.00087911
v 0.01336732 0.04812943 -0.00024060
v 0.01385529 0.04861899 0.00021221
v 0.01384673 0.04880411 -0.00099358
v 0.01447167 0.04952610 -0.00099358
v 0.01512230 0.05014936 -0.00099358
v 0.01574724 0.05073148 -0.00099358
v 0.01652628 0.05131566 -0.00099358
v 0.01721115 0.05181550 -0.00099358
v 0.01781897 0.05222689 -0.00224516
v 0.01892332 0.05285426 -0.00224516
v 0.01959963 0.05314018 -0.00322455
v 0.02016465 0.05334588 -0.00358832
v 0.02153438 0.05386423 -0.00350183
v 0.02285276 0.05424065 -0.00355779
v 0.02346058 0.05435379 -0.00401315
v 0.02373453 0.05429619 -0.00475341
v 0.02435947 0.05443401 -0.00475341
v 0.02530117 0.05463559 -0.00475341
v 0.02655105 0.05489271 -0.00475341
v 0.03091710 0.05562293 -0.00539192
v 0.02530117 0.05445046 -0.00569973
v 0.02530117 0.05428591 -0.00632552
v 0.02597748 0.05435584 -0.00659771
v 0.02645689 0.05423654 -0.00726420
v 0.02680788 0.05443606 -0.00685210
v 0.03030928 0.05497704 -0.00725403
v 0.03155916 0.05521565 -0.00725403
v 0.03406750 0.05551802 -0.00756692
v 0.03495783 0.05558179 -0.00776535
v 0.03579679 0.05564144 -0.00793833
v 0.03406750 0.05513543 -0.00850307
v 0.03280049 0.05544809 -0.00719806
v 0.03657583 0.05541518 -0.00868877
v 0.03783428 0.05550363 -0.00888719
v 0.03885302 0.05557150 -0.00903219
v 0.03920402 0.05530821 -0.00963763
v 0.04034261 0.05533496 -0.00982842
v 0.04410083 0.05551597 -0.01019219
v 0.04535928 0.05557562 -0.01030921
v 0.04608695 0.05560853 -0.01036263
v 0.04535928 0.05510663 -0.01101386
v 0.04608695 0.05520331 -0.01094772
v 0.04660917 0.05527119 -0.01089939
v 0.04660917 0.05456565 -0.01191693
v 0.04660917 0.05407815 -0.01254272
v 0.01643211 0.04555000 -0.01871159
v 0.04660917 0.05345284 -0.01326009
v 0.04660917 0.05285015 -0.01388588
v 0.01697145 0.04559731 -0.01871159
v 0.03783428 0.04638307 -0.01871159
v 0.05162583 0.05095980 -0.01565896
v 0.05288428 0.05160158 -0.01519851
v 0.03406750 0.04632753 -0.01871159
v 0.03281761 0.04630491 -0.01871159
v 0.02905939 0.04622674 -0.01871159
v 0.05788383 0.05160158 -0.01519851
v 0.05913372 0.05158923 -0.01518580
v 0.06289194 0.05087547 -0.01560299
v 0.06415038 0.05084667 -0.01558010
v 0.06540027 0.05080347 -0.01554957
v 0.06790861 0.05068623 -0.01546562
v 0.06972351 0.05059984 -0.01539948
v 0.07041694 0.05123132 -0.01484238
v 0.07178668 0.05135680 -0.01460834
v 0.07668349 0.05090015 -0.01440737
v 0.07793338 0.05080759 -0.01432852
v 0.07229177 0.05185664 -0.01414790
v 0.07919183 0.05070063 -0.01423439
v 0.07919183 0.04998069 -0.01481185
v 0.08420850 0.04957959 -0.01434632
v 0.07994518 0.05063069 -0.01417080
v 0.08545838 0.04944794 -0.01423439
v 0.08295005 0.05032832 -0.01387316
v 0.08420850 0.05020490 -0.01373834
v 0.08420850 0.05081376 -0.01311255
v 0.08524436 0.05070269 -0.01299299
v 0.08607477 0.05060601 -0.01289378
v 0.08663122 0.04980585 -0.01359588
v 0.08699078 0.04926281 -0.01406141
v 0.08921660 0.04952610 -0.01307185
v 0.08796672 0.04974003 -0.01329316
v 0.09545747 0.04868892 -0.00843693
v 0.09470412 0.04920522 -0.00887447
v 0.09495239 0.04943354 -0.00804263
v 0.09577423 0.04900364 -0.00725912
v 0.09601393 0.04923402 -0.00627464
v 0.09651046 0.04878148 -0.00591341
v 0.09614235 0.04937389 -0.00544025
v 0.09753777 0.04830838 -0.00224516
v 0.09633925 0.04957753 -0.00349929
v 0.09542323 0.05018227 -0.00482718
v 0.09495239 0.05068829 -0.00446087
v 0.09567150 0.05020284 -0.00349929
v 0.09700699 0.04893781 -0.00224516
v 0.09752065 0.04828987 -0.00099104
v 0.09698131 0.04891725 -0.00099104
v 0.09627932 0.04951171 0.00026054
v 0.09560301 0.05013908 0.00026054
v 0.09490102 0.05063481 0.00099063
v 0.08929365 0.05021724 -0.01223491
v 0.08974738 0.05056487 -0.01158623
v 0.09038944 0.04970095 -0.01226035
v 0.09137394 0.04952610 -0.01183298
v 0.09171638 0.04997041 -0.01100877
v 0.09266663 0.04958164 -0.01069588
v 0.09385659 0.04956930 -0.00943412
v 0.09300051 0.04999098 -0.00976228
v 0.09429320 0.05096803 0.00144853
v 0.09351416 0.05179287 0.00026054
v 0.09288921 0.05218369 0.00026054
v 0.09163933 0.05285221 0.00026563
v 0.09104007 0.05308053 0.00068537
v 0.09055210 0.05333559 0.00026563
v 0.08921660 0.05382309 0.00026054
v 0.08788111 0.05420157 0.00018932
v 0.08711919 0.05431882 0.00055818
v 0.08627166 0.05440727 0.00106949
v 0.08091256 0.05559208 0.00070826
v 0.07542504 0.05653828 0.00026054
v 0.07408099 0.05674809 0.00016897
v 0.07292527 0.05683036 0.00058362
v 0.07224040 0.05686739 0.00084563
v 0.07140144 0.05691264 0.00106949
v 0.06790861 0.05742277 0.00026054
v 0.06665872 0.05752973 0.00026054
v 0.06540027 0.05760584 0.00026054
v 0.06164205 0.05782799 0.00026054
v 0.06038360 0.05789175 0.00026054
v 0.05913372 0.05792261 0.00026054
v 0.05788383 0.05807277 -0.00099104
v 0.05662538 0.05807894 -0.00099104
v 0.05539262 0.05808305 -0.00099104
v 0.05413417 0.05809745 -0.00110042
v 0.05288428 0.05808511 -0.00096051
v 0.05174569 0.05806454 -0.00111060
v 0.04786761 0.05788558 -0.00099104
v 0.04660917 0.05783004 -0.00099104
v 0.04535928 0.05774777 -0.00099358
v 0.04034261 0.05728701 -0.00099358
v 0.03908417 0.05715536 -0.00099358
v 0.04410083 0.05763258 -0.00099358
v 0.03809110 0.05692498 -0.00000147
v 0.03773155 0.05682625 0.00035467
v 0.03406750 0.05646011 -0.00099358
v 0.03281761 0.05627704 -0.00099358
v 0.03725214 0.05686739 -0.00045174
v 0.03155916 0.05606312 -0.00099358
v 0.02961585 0.05563321 -0.00028130
v 0.02993260 0.05556945 0.00055563
v 0.02655105 0.05510458 -0.00099358
v 0.02405984 0.05445663 0.00016897
v 0.02339210 0.05437230 -0.00030928
v 0.02530117 0.05484951 -0.00099358
v 0.02153438 0.05389920 -0.00099358
v 0.02028450 0.05344050 -0.00099358
v 0.02267298 0.05423654 -0.00099358
v 0.01964244 0.05312167 -0.00031437
v 0.01895756 0.05283986 -0.00099358
v 0.01784465 0.05221044 -0.00099358
v 0.01582429 0.05066977 0.00002142
v 0.01640643 0.05104825 0.00037247
v 0.01455728 0.04943971 0.00026309
v 0.01958251 0.05314841 -0.00099358
v 0.01955683 0.05316486 -0.00224516
v 0.02028450 0.05346929 -0.00224516
v 0.02153438 0.05393005 -0.00224516
v 0.02261306 0.05425094 -0.00224516
v 0.02331505 0.05439081 -0.00317622
v 0.02394855 0.05450189 -0.00355779
v 0.02530117 0.05480632 -0.00350183
v 0.02655105 0.05506344 -0.00350183
v 0.02972714 0.05561059 -0.00404113
v 0.03155916 0.05584919 -0.00475341
v 0.03281761 0.05606312 -0.00475341
v 0.03155916 0.05568464 -0.00562596
v 0.02645689 0.05457799 -0.00610929
v 0.03155916 0.05551802 -0.00625429
v 0.03237244 0.05559208 -0.00653157
v 0.03406750 0.05571961 -0.00694113
v 0.03536019 0.05578543 -0.00730999
v 0.03783428 0.05615568 -0.00725403
v 0.03657583 0.05569904 -0.00806298
v 0.03320285 0.05565378 -0.00674271
v 0.03783428 0.05578954 -0.00826140
v 0.03920402 0.05581834 -0.00857175
v 0.03969199 0.05562293 -0.00913903
v 0.04410083 0.05583068 -0.00956640
v 0.04159250 0.05571344 -0.00932219
v 0.04535928 0.05588622 -0.00968088
v 0.04660917 0.05587388 -0.00987421
v 0.04702009 0.05563116 -0.01040588
v 0.04786761 0.05522182 -0.01106219
v 0.04911750 0.05525268 -0.01110544
v 0.05162583 0.05531027 -0.01118939
v 0.05162583 0.05468290 -0.01206702
v 0.05037595 0.05416866 -0.01265465
v 0.04786761 0.05410901 -0.01258088
v 0.05162583 0.05419540 -0.01269281
v 0.05162583 0.05357008 -0.01338729
v 0.05162583 0.05297151 -0.01401308
v 0.04660917 0.05222278 -0.01446334
v 0.04608695 0.05220426 -0.01445062
v 0.04535928 0.05217752 -0.01443027
v 0.01903461 0.04574747 -0.01871159
v 0.01777616 0.04565697 -0.01871159
v 0.05162583 0.05158718 -0.01518580
v 0.05162583 0.05234414 -0.01456001
v 0.05288428 0.05236059 -0.01457018
v 0.05413417 0.05236059 -0.01457273
v 0.02780950 0.04618560 -0.01871159
v 0.05788383 0.05236059 -0.01457273
v 0.05913372 0.05234619 -0.01456001
v 0.06038360 0.05156044 -0.01516545
v 0.06415038 0.05146993 -0.01509676
v 0.06540027 0.05142879 -0.01506115
v 0.06665872 0.05137120 -0.01501536
v 0.06924410 0.05112642 -0.01501536
v 0.07041694 0.05196566 -0.01424711
v 0.07144424 0.05191218 -0.01419623
v 0.07668349 0.05152753 -0.01381465
v 0.07177812 0.05250046 -0.01353483
v 0.07208631 0.05308876 -0.01286579
v 0.07292527 0.05240173 -0.01347123
v 0.07668349 0.05213433 -0.01318632
v 0.07793338 0.05143290 -0.01370781
v 0.07919183 0.05132594 -0.01359080
v 0.07919183 0.05192452 -0.01296246
v 0.08169160 0.05106059 -0.01337202
v 0.08295005 0.05093923 -0.01324737
v 0.08067286 0.05178259 -0.01280728
v 0.08169160 0.05168385 -0.01269027
v 0.08295005 0.05156455 -0.01253764
v 0.08420850 0.05143908 -0.01237483
v 0.08547550 0.05123749 -0.01227562
v 0.08670827 0.05053196 -0.01280983
v 0.08796672 0.05036740 -0.01261395
v 0.09332582 0.05040443 -0.00874728
v 0.09416478 0.04991693 -0.00839622
v 0.09363401 0.05062041 -0.00791543
v 0.09443873 0.05024398 -0.00725912
v 0.09515785 0.04962073 -0.00725912
v 0.09472124 0.05048465 -0.00600245
v 0.09484965 0.05058544 -0.00529525
v 0.09636493 0.04962073 -0.00224516
v 0.09573142 0.05024604 -0.00224516
v 0.09435312 0.05107088 -0.00482718
v 0.09357409 0.05183607 -0.00384016
v 0.09504655 0.05076234 -0.00349929
v 0.09634781 0.04960221 -0.00099104
v 0.09570574 0.05022753 -0.00099104
v 0.09498663 0.05070269 0.00026054
v 0.09423327 0.05126423 0.00026054
v 0.08890841 0.05072326 -0.01179228
v 0.08929365 0.05106882 -0.01110798
v 0.09047505 0.05084256 -0.01073404
v 0.09047505 0.05038797 -0.01135983
v 0.09121129 0.05067183 -0.01048474
v 0.09205025 0.05041471 -0.01009298
v 0.09248686 0.05068623 -0.00925605
v 0.09359121 0.05184841 -0.00049498
v 0.09310324 0.05219398 -0.00094270
v 0.09188759 0.05288717 -0.00099104
v 0.09116848 0.05314430 -0.00015156
v 0.09047505 0.05351043 -0.00099104
v 0.08921660 0.05395885 -0.00099104
v 0.08814649 0.05426328 -0.00099104
v 0.08739314 0.05437847 -0.00027875
v 0.08670827 0.05445869 0.00018932
v 0.08167448 0.05550568 0.00027835
v 0.08047596 0.05572989 0.00027835
v 0.07919183 0.05593764 0.00026054
v 0.08122931 0.05565378 -0.00012612
v 0.07360158 0.05688179 -0.00030928
v 0.07919183 0.05607957 -0.00099104
v 0.07793338 0.05627704 -0.00099104
v 0.07292527 0.05692087 -0.00004217
v 0.07176100 0.05699081 0.00036230
v 0.06916705 0.05728701 0.00026054
v 0.07167539 0.05715331 -0.00099104
v 0.07041694 0.05728289 -0.00099104
v 0.06790861 0.05754002 -0.00099104
v 0.06665872 0.05766138 -0.00099104
v 0.06540027 0.05774777 -0.00099104
v 0.06164205 0.05795140 -0.00099104
v 0.06038360 0.05801723 -0.00099104
v 0.05913372 0.05805837 -0.00099104
v 0.05788383 0.05811802 -0.00224516
v 0.05370613 0.05813036 -0.00158884
v 0.05288428 0.05813242 -0.00158884
v 0.05224222 0.05813036 -0.00160920
v 0.04660917 0.05786296 -0.00224516
v 0.04608695 0.05783004 -0.00224516
v 0.04535928 0.05778274 -0.00224516
v 0.04410083 0.05767166 -0.00224516
v 0.04034261 0.05731992 -0.00224516
v 0.03908417 0.05719239 -0.00224516
v 0.03702956 0.05690030 -0.00128612
v 0.03773155 0.05697023 -0.00091726
v 0.03281761 0.05631407 -0.00224516
v 0.03155916 0.05610014 -0.00224516
v 0.03030928 0.05586154 -0.00224516
v 0.02655105 0.05514366 -0.00224516
v 0.02329793 0.05439698 -0.00099358
v 0.02404272 0.05456976 -0.00099358
v 0.02530117 0.05488448 -0.00224516
v 0.02323800 0.05441138 -0.00224516
v 0.02404272 0.05460062 -0.00224516
v 0.02948743 0.05565584 -0.00320420
v 0.03155916 0.05601992 -0.00350183
v 0.03281761 0.05623179 -0.00350183
v 0.03406750 0.05624619 -0.00475341
v 0.03406750 0.05598290 -0.00600245
v 0.03280049 0.05577926 -0.00606859
v 0.03657583 0.05634081 -0.00600245
v 0.03783428 0.05651770 -0.00600245
v 0.03908417 0.05631613 -0.00725403
v 0.04034261 0.05596850 -0.00850307
v 0.04410083 0.05632435 -0.00850307
v 0.04535928 0.05643337 -0.00850307
v 0.04608695 0.05648068 -0.00850815
v 0.04660917 0.05651359 -0.00850815
v 0.05162583 0.05667198 -0.00868877
v 0.04911750 0.05604461 -0.00976228
v 0.05162583 0.05615568 -0.00976228
v 0.04786761 0.05564967 -0.01043640
v 0.05162583 0.05573195 -0.01056360
v 0.05288428 0.05532467 -0.01120974
v 0.05288428 0.05469730 -0.01208483
v 0.05288428 0.05421186 -0.01271316
v 0.05288428 0.05358243 -0.01340255
v 0.05288428 0.05298797 -0.01402834
v 0.05037595 0.05231328 -0.01453711
v 0.04660917 0.05146787 -0.01509167
v 0.02279283 0.04597579 -0.01871159
v 0.02153438 0.04590997 -0.01871159
v 0.02028450 0.04583387 -0.01871159
v 0.02530117 0.04608687 -0.01871159
v 0.02404272 0.04603545 -0.01871159
v 0.05788383 0.05298797 -0.01402834
v 0.05913372 0.05297357 -0.01401308
v 0.06038360 0.05231740 -0.01453966
v 0.06415038 0.05222483 -0.01446588
v 0.06540027 0.05218369 -0.01443536
v 0.06665872 0.05213021 -0.01438957
v 0.06916705 0.05264651 -0.01365948
v 0.07041694 0.05259097 -0.01359588
v 0.06540027 0.05281107 -0.01384518
v 0.06665872 0.05275553 -0.01378667
v 0.06665872 0.05336027 -0.01315834
v 0.07124734 0.05313812 -0.01292430
v 0.07793338 0.05203765 -0.01308456
v 0.07292527 0.05351866 -0.01217132
v 0.07292527 0.05302910 -0.01279711
v 0.07167539 0.05351866 -0.01237483
v 0.07417516 0.05294065 -0.01269027
v 0.07984245 0.05186075 -0.01289886
v 0.07803611 0.05275141 -0.01219421
v 0.07919183 0.05248401 -0.01227053
v 0.08169160 0.05217958 -0.01206193
v 0.08295005 0.05206028 -0.01191184
v 0.08420850 0.05193686 -0.01174649
v 0.08487624 0.05186898 -0.01165491
v 0.08670827 0.05103180 -0.01218404
v 0.08796672 0.05087135 -0.01198562
v 0.09381379 0.05076028 -0.00725912
v 0.09293202 0.05082610 -0.00840131
v 0.09209305 0.05171676 -0.00755421
v 0.09289778 0.05139588 -0.00718280
v 0.09408774 0.05097626 -0.00600245
v 0.09508936 0.05080553 -0.00224516
v 0.09507224 0.05078702 -0.00099104
v 0.09344567 0.05175173 -0.00475341
v 0.09363401 0.05186898 -0.00300578
v 0.09413054 0.05146581 -0.00345350
v 0.09281217 0.05214256 -0.00475341
v 0.09184479 0.05286660 -0.00349929
v 0.09307755 0.05216929 -0.00345350
v 0.09428464 0.05142879 -0.00224516
v 0.09413054 0.05149462 -0.00094270
v 0.08806088 0.05156249 -0.01098333
v 0.08855742 0.05184635 -0.01036518
v 0.08921660 0.05172499 -0.01015912
v 0.09046649 0.05148638 -0.00971649
v 0.09087741 0.05175791 -0.00891009
v 0.09166501 0.05088164 -0.00970886
v 0.09169925 0.05150901 -0.00849798
v 0.09365113 0.05188543 -0.00132937
v 0.09297482 0.05230300 -0.00224516
v 0.09192184 0.05290157 -0.00224516
v 0.09125409 0.05318543 -0.00099104
v 0.09047505 0.05354334 -0.00224516
v 0.08921660 0.05399176 -0.00224516
v 0.08823210 0.05427768 -0.00224516
v 0.08759860 0.05442783 -0.00224516
v 0.08753011 0.05440932 -0.00099104
v 0.08670827 0.05459034 -0.00099104
v 0.08545838 0.05485568 -0.00099104
v 0.08420850 0.05511074 -0.00099104
v 0.08138341 0.05568052 -0.00099104
v 0.08044171 0.05585948 -0.00099104
v 0.07374712 0.05690441 -0.00099104
v 0.07292527 0.05701343 -0.00099104
v 0.07542504 0.05665758 -0.00099104
v 0.07919183 0.05612483 -0.00224516
v 0.07793338 0.05632641 -0.00224516
v 0.07167539 0.05720267 -0.00224516
v 0.06665872 0.05769223 -0.00224516
v 0.06540027 0.05779508 -0.00224516
v 0.06415038 0.05786090 -0.00224516
v 0.06038360 0.05804603 -0.00224516
v 0.05913372 0.05809745 -0.00224516
v 0.05788383 0.05804397 -0.00349929
v 0.05288428 0.05812213 -0.00237235
v 0.05288428 0.05813242 -0.00174656
v 0.05370613 0.05813036 -0.00172876
v 0.05224222 0.05813036 -0.00167788
v 0.04660917 0.05778274 -0.00349929
v 0.04535928 0.05770457 -0.00350183
v 0.05037595 0.05803574 -0.00224516
v 0.05037595 0.05796169 -0.00349929
v 0.04410083 0.05759555 -0.00350183
v 0.04034261 0.05724176 -0.00350183
v 0.03908417 0.05711011 -0.00350183
v 0.03707236 0.05689413 -0.00304648
v 0.03783428 0.05702989 -0.00224516
v 0.03634469 0.05682008 -0.00224516
v 0.03406750 0.05649508 -0.00224516
v 0.03406750 0.05641486 -0.00350183
v 0.03823664 0.05690647 -0.00433113
v 0.03782572 0.05678100 -0.00475087
v 0.03875885 0.05683859 -0.00516552
v 0.03959782 0.05688796 -0.00543008
v 0.03914409 0.05670900 -0.00591087
v 0.04034261 0.05675837 -0.00620087
v 0.04034261 0.05644777 -0.00725403
v 0.04410083 0.05673780 -0.00745754
v 0.04535928 0.05679334 -0.00763306
v 0.04608695 0.05681802 -0.00770684
v 0.04660917 0.05683448 -0.00776026
v 0.04842407 0.05687767 -0.00789254
v 0.04911750 0.05689413 -0.00793324
v 0.05162583 0.05695378 -0.00806552
v 0.05288428 0.05668432 -0.00872184
v 0.05288428 0.05618448 -0.00976228
v 0.05288428 0.05574635 -0.01058395
v 0.05788383 0.05532467 -0.01120974
v 0.05788383 0.05469730 -0.01208483
v 0.05788383 0.05421186 -0.01271316
v 0.05788383 0.05358243 -0.01340255
v 0.05913372 0.05357214 -0.01338729
v 0.06038360 0.05354334 -0.01335676
v 0.06415038 0.05345490 -0.01326264
v 0.06415038 0.05285221 -0.01388843
v 0.07041694 0.05318132 -0.01296755
v 0.06540027 0.05341581 -0.01321939
v 0.06540027 0.05404113 -0.01249439
v 0.07041694 0.05373464 -0.01227053
v 0.06665872 0.05398559 -0.01242062
v 0.07542504 0.05285015 -0.01257834
v 0.07668349 0.05275964 -0.01245878
v 0.07167539 0.05423037 -0.01144377
v 0.07417516 0.05343021 -0.01206448
v 0.07041694 0.05429619 -0.01154044
v 0.07542504 0.05334176 -0.01195000
v 0.07853264 0.05310727 -0.01163456
v 0.07769368 0.05317515 -0.01172869
v 0.07919183 0.05304556 -0.01154553
v 0.08044171 0.05292626 -0.01137509
v 0.08297573 0.05275141 -0.01093246
v 0.08535565 0.05216107 -0.01106728
v 0.08670827 0.05208908 -0.01072895
v 0.08570665 0.05177436 -0.01152009
v 0.08420850 0.05244493 -0.01101386
v 0.08670827 0.05165711 -0.01135474
v 0.09241837 0.05189572 -0.00671473
v 0.09320597 0.05160158 -0.00600245
v 0.09125409 0.05193892 -0.00807824
v 0.09258102 0.05199240 -0.00600245
v 0.09365113 0.05188749 -0.00224516
v 0.09162221 0.05279461 -0.00466692
v 0.09112568 0.05312784 -0.00419376
v 0.09121129 0.05316281 -0.00349929
v 0.09128833 0.05319983 -0.00224516
v 0.08770989 0.05196566 -0.01054833
v 0.08921660 0.05208496 -0.00953333
v 0.09003845 0.05193892 -0.00927131
v 0.08806088 0.05225569 -0.00987166
v 0.09046649 0.05211170 -0.00849798
v 0.09047505 0.05347135 -0.00349929
v 0.08921660 0.05392594 -0.00349929
v 0.08808657 0.05424477 -0.00349929
v 0.08747019 0.05439492 -0.00349929
v 0.08670827 0.05463148 -0.00224516
v 0.08545838 0.05490711 -0.00224516
v 0.08044171 0.05588828 -0.00224516
v 0.08420850 0.05515806 -0.00224516
v 0.07292527 0.05705046 -0.00224516
v 0.08132348 0.05566613 -0.00328306
v 0.07919183 0.05604872 -0.00349929
v 0.07793338 0.05625647 -0.00349929
v 0.07372999 0.05690030 -0.00311008
v 0.07167539 0.05712862 -0.00349929
v 0.07041694 0.05725410 -0.00349929
v 0.06665872 0.05761201 -0.00349929
v 0.06916705 0.05737340 -0.00349929
v 0.06540027 0.05771486 -0.00349929
v 0.06415038 0.05778891 -0.00349929
v 0.06038360 0.05796786 -0.00349929
v 0.05913372 0.05802134 -0.00349929
v 0.06289194 0.05785061 -0.00349929
v 0.05788383 0.05787530 -0.00475341
v 0.05288428 0.05804397 -0.00349929
v 0.05162583 0.05801723 -0.00349929
v 0.05174569 0.05809951 -0.00215613
v 0.04660917 0.05761407 -0.00475341
v 0.04608695 0.05765315 -0.00422938
v 0.04911750 0.05773337 -0.00475341
v 0.04535928 0.05753590 -0.00475341
v 0.04410083 0.05742894 -0.00475341
v 0.05162583 0.05785061 -0.00475341
v 0.05037595 0.05779302 -0.00475341
v 0.04034261 0.05707103 -0.00475341
v 0.03914409 0.05694761 -0.00475087
v 0.04159250 0.05719239 -0.00475341
v 0.03782572 0.05695378 -0.00348148
v 0.03739767 0.05684476 -0.00388595
v 0.04410083 0.05716565 -0.00600245
v 0.04034261 0.05692293 -0.00557508
v 0.04239722 0.05685710 -0.00656973
v 0.04323619 0.05689619 -0.00670201
v 0.04410083 0.05693732 -0.00683429
v 0.04535928 0.05699081 -0.00700473
v 0.04608695 0.05701549 -0.00708105
v 0.04608695 0.05690030 -0.00744736
v 0.04660917 0.05703195 -0.00713192
v 0.05037595 0.05716976 -0.00725912
v 0.05162583 0.05722736 -0.00725912
v 0.05288428 0.05725410 -0.00725912
v 0.05288428 0.05696612 -0.00809859
v 0.05788383 0.05668432 -0.00872184
v 0.05788383 0.05618448 -0.00976228
v 0.05788383 0.05574635 -0.01058395
v 0.05913372 0.05531233 -0.01119193
v 0.05913372 0.05468496 -0.01206702
v 0.05913372 0.05419951 -0.01269536
v 0.06415038 0.05408227 -0.01254781
v 0.06164205 0.05414192 -0.01262413
v 0.06540027 0.05452863 -0.01186605
v 0.06665872 0.05447515 -0.01179228
v 0.06790861 0.05441549 -0.01171088
v 0.07668349 0.05325126 -0.01183298
v 0.07167539 0.05464793 -0.01081544
v 0.07292527 0.05456976 -0.01069842
v 0.07292527 0.05414603 -0.01132421
v 0.07041694 0.05471581 -0.01091465
v 0.06665872 0.05500584 -0.01101386
v 0.07803611 0.05352689 -0.01113597
v 0.07919183 0.05347135 -0.01091974
v 0.07668349 0.05382103 -0.01101386
v 0.08256481 0.05315664 -0.01045675
v 0.08339521 0.05307847 -0.01031938
v 0.08420850 0.05299414 -0.01016421
v 0.08545838 0.05285838 -0.00990982
v 0.09169925 0.05207468 -0.00718280
v 0.08987579 0.05312167 -0.00665622
v 0.09172494 0.05243259 -0.00600245
v 0.09036376 0.05271233 -0.00714719
v 0.09093734 0.05303939 -0.00502815
v 0.09050929 0.05329857 -0.00466692
v 0.08660554 0.05274319 -0.00964017
v 0.08806088 0.05293654 -0.00851833
v 0.08921660 0.05258686 -0.00850815
v 0.08693941 0.05302705 -0.00894570
v 0.08921660 0.05298797 -0.00756692
v 0.08921660 0.05375315 -0.00475341
v 0.08734177 0.05436819 -0.00412762
v 0.08545838 0.05483511 -0.00349929
v 0.08420850 0.05509018 -0.00349929
v 0.08171728 0.05555299 -0.00362139
v 0.08107522 0.05561881 -0.00411999
v 0.07919183 0.05587799 -0.00475341
v 0.07793338 0.05608780 -0.00475341
v 0.07340468 0.05685299 -0.00394446
v 0.07668349 0.05643543 -0.00349929
v 0.07296808 0.05696407 -0.00351455
v 0.07257428 0.05691264 -0.00437438
v 0.07164970 0.05695790 -0.00477631
v 0.07041694 0.05708543 -0.00475341
v 0.06665872 0.05744128 -0.00475341
v 0.06540027 0.05754618 -0.00475341
v 0.06916705 0.05720473 -0.00475341
v 0.06415038 0.05762024 -0.00475341
v 0.06038360 0.05779919 -0.00475341
v 0.05913372 0.05785061 -0.00475341
v 0.05913372 0.05759144 -0.00600245
v 0.05788383 0.05761407 -0.00600245
v 0.05288428 0.05787530 -0.00475341
v 0.04660917 0.05735489 -0.00600245
v 0.04535928 0.05727261 -0.00600245
v 0.04608695 0.05732198 -0.00600245
v 0.05288428 0.05761407 -0.00600245
v 0.05162583 0.05758527 -0.00600245
v 0.05037595 0.05752973 -0.00600245
v 0.05788383 0.05725410 -0.00725912
v 0.05788383 0.05696612 -0.00809859
v 0.05913372 0.05667403 -0.00869386
v 0.05913372 0.05616185 -0.00976228
v 0.05913372 0.05573400 -0.01056614
v 0.06038360 0.05528559 -0.01115123
v 0.06038360 0.05465616 -0.01203395
v 0.06415038 0.05456771 -0.01192202
v 0.06540027 0.05511897 -0.01101386
v 0.06418463 0.05527736 -0.01090193
v 0.07417516 0.05405758 -0.01119702
v 0.07158978 0.05532055 -0.00964526
v 0.06665872 0.05552625 -0.01020746
v 0.07041694 0.05534112 -0.00984368
v 0.07292527 0.05509018 -0.00976228
v 0.07516822 0.05441755 -0.01046439
v 0.06540027 0.05558385 -0.01031684
v 0.07600718 0.05435996 -0.01037535
v 0.07668349 0.05430853 -0.01027868
v 0.07793338 0.05420980 -0.01008789
v 0.07930312 0.05415015 -0.00972667
v 0.07896068 0.05444224 -0.00928658
v 0.08420850 0.05331297 -0.00953842
v 0.08545838 0.05318543 -0.00928403
v 0.08610901 0.05311755 -0.00914158
v 0.08855742 0.05310316 -0.00785692
v 0.08921660 0.05322452 -0.00694113
v 0.08796672 0.05383749 -0.00600245
v 0.08921660 0.05348575 -0.00600245
v 0.09005557 0.05319778 -0.00600245
v 0.09068051 0.05292626 -0.00600245
v 0.08770989 0.05321012 -0.00811131
v 0.08545838 0.05354334 -0.00850815
v 0.08660554 0.05328828 -0.00851833
v 0.08783830 0.05415632 -0.00462622
v 0.08701646 0.05429413 -0.00496201
v 0.08619462 0.05438875 -0.00546569
v 0.08664834 0.05443401 -0.00462622
v 0.08545838 0.05466644 -0.00475341
v 0.08420850 0.05491945 -0.00475341
v 0.08295005 0.05516011 -0.00475341
v 0.07988526 0.05563321 -0.00542754
v 0.07668349 0.05626676 -0.00475341
v 0.07919183 0.05569904 -0.00567938
v 0.07798474 0.05579366 -0.00608894
v 0.07204350 0.05684682 -0.00521131
v 0.07296808 0.05679334 -0.00477631
v 0.07121310 0.05689207 -0.00544789
v 0.06665872 0.05717799 -0.00600245
v 0.06540027 0.05728495 -0.00600245
v 0.07041694 0.05693115 -0.00560306
v 0.06415038 0.05736106 -0.00600245
v 0.06038360 0.05753796 -0.00600245
v 0.05913372 0.05722941 -0.00725912
v 0.06038360 0.05717799 -0.00725912
v 0.05913372 0.05695378 -0.00807061
v 0.06038360 0.05664729 -0.00863026
v 0.06289194 0.05599318 -0.00976228
v 0.06038360 0.05610632 -0.00976228
v 0.06379083 0.05563321 -0.01040842
v 0.06038360 0.05570726 -0.01052544
v 0.06289194 0.05522594 -0.01106728
v 0.06289194 0.05459857 -0.01195763
v 0.06462979 0.05561264 -0.01037281
v 0.07111037 0.05562704 -0.00914666
v 0.07194077 0.05557973 -0.00905000
v 0.06665872 0.05583891 -0.00958166
v 0.07041694 0.05565995 -0.00921535
v 0.07292527 0.05551597 -0.00891009
v 0.06540027 0.05589239 -0.00969105
v 0.07668349 0.05462119 -0.00965035
v 0.07793338 0.05452863 -0.00945956
v 0.07930312 0.05468290 -0.00862772
v 0.07979109 0.05436201 -0.00912631
v 0.07793338 0.05497293 -0.00850815
v 0.08044171 0.05430031 -0.00899403
v 0.08169160 0.05418100 -0.00873456
v 0.08420850 0.05380046 -0.00850815
v 0.08670827 0.05375727 -0.00725912
v 0.08806088 0.05339936 -0.00736596
v 0.08568096 0.05427974 -0.00629754
v 0.08664834 0.05416249 -0.00593122
v 0.08330104 0.05431265 -0.00771701
v 0.08420850 0.05422420 -0.00744736
v 0.08533853 0.05444840 -0.00593122
v 0.08420850 0.05465410 -0.00600245
v 0.08295005 0.05489477 -0.00600245
v 0.07919183 0.05553242 -0.00630262
v 0.07843847 0.05560030 -0.00656464
v 0.07292527 0.05653828 -0.00600245
v 0.07668349 0.05600141 -0.00600245
v 0.07164970 0.05672134 -0.00592359
v 0.07041694 0.05676866 -0.00622631
v 0.06665872 0.05694555 -0.00685464
v 0.06840513 0.05686122 -0.00658754
v 0.06757473 0.05690236 -0.00671727
v 0.06540027 0.05699904 -0.00702254
v 0.06415038 0.05703400 -0.00714210
v 0.06038360 0.05692704 -0.00800701
v 0.06164205 0.05711834 -0.00725912
v 0.06238684 0.05687973 -0.00789763
v 0.06415038 0.05652182 -0.00850815
v 0.06418463 0.05587594 -0.00987930
v 0.07158978 0.05583068 -0.00858193
v 0.06665872 0.05633669 -0.00850815
v 0.06916705 0.05610220 -0.00850815
v 0.07041694 0.05598290 -0.00850815
v 0.07292527 0.05579777 -0.00828429
v 0.06540027 0.05644365 -0.00850815
v 0.07417516 0.05570932 -0.00808842
v 0.07668349 0.05515806 -0.00850815
v 0.08044171 0.05458622 -0.00836824
v 0.07500556 0.05564967 -0.00795359
v 0.07584453 0.05559002 -0.00779078
v 0.07668349 0.05552831 -0.00760254
v 0.07798474 0.05546454 -0.00721333
v 0.07919183 0.05524445 -0.00725912
v 0.08169160 0.05446692 -0.00811131
v 0.08246208 0.05439081 -0.00794596
v 0.08533853 0.05409872 -0.00713192
v 0.08483344 0.05436613 -0.00663078
v 0.08290724 0.05452863 -0.00728201
v 0.07759951 0.05566407 -0.00676561
v 0.07292527 0.05617625 -0.00725912
v 0.07167539 0.05633464 -0.00725912
v 0.07041694 0.05646217 -0.00725912
v 0.06665872 0.05674603 -0.00748043
v 0.06540027 0.05679951 -0.00764833
v 0.06415038 0.05683654 -0.00777043
v 0.06164205 0.05689619 -0.00794087
f 1 2 3
f 1 3 4
f 1 4 5
f 1 5 6
f 1 6 7
f 1 7 8
f 1 8 9
f 1 9 10
f 1 10 26
f 1 26 11
f 1 11 54
f 1 54 172
f 1 172 334
f 1 334 491
f 1 491 494
f 1 494 650
f 1 650 649
f 1 649 781
f 1 781 780
f 1 780 779
f 1 779 783
f 1 783 782
f 1 782 655
f 1 655 500
f 1 500 499
f 1 499 498
f 1 498 495
f 1 495 337
f 1 337 173
f 1 173 55
f 1 55 12
f 1 12 2
f 2 12 13
f 2 13 3
f 3 14 4
f 3 13 15
f 3 15 16
f 3 16 17
f 3 17 18
f 3 18 19
f 3 19 20
f 3 20 21
f 3 21 14
f 4 14 22
f 4 22 23
f 4 23 5
f 5 23 22
f 5 22 83
f 5 83 221
f 5 221 220
f 5 220 219
f 5 219 84
f 5 84 24
f 5 24 6
f 6 24 7
f 7 25 131
f 7 131 291
f 7 291 445
f 7 445 293
f 7 293 132
f 7 132 27
f 7 27 26
f 7 26 10
f 7 10 9
f 7 9 8
f 7 24 25
f 11 26 27
f 11 27 28
f 11 28 29
f 11 29 30
f 11 30 31
f 11 31 32
f 11 32 33
f 11 33 34
f 11 34 35
f 11 35 36
f 11 36 37
f 11 37 38
f 11 38 39
f 11 39 40
f 11 40 41
f 11 41 42
f 11 42 43
f 11 43 44
f 11 44 45
f 11 45 46
f 11 46 47
f 11 47 48
f 11 48 49
f 11 49 50
f 11 50 51
f 11 51 52
f 11 52 53
f 11 53 54
f 12 55 56
f 12 56 57
f 12 57 58
f 12 58 13
f 13 59 60
f 13 60 61
f 13 61 15
f 13 58 59
f 14 21 62
f 14 62 63
f 14 63 64
f 14 64 65
f 14 65 66
f 14 66 67
f 14 67 68
f 14 68 69
f 14 69 70
f 14 70 71
f 14 71 72
f 14 72 73
f 14 73 74
f 14 74 75
f 14 75 22
f 15 61 16
f 16 61 76
f 16 76 17
f 17 76 77
f 17 77 18
f 18 77 78
f 18 78 19
f 19 78 79
f 19 79 20
f 20 79 80
f 20 80 81
f 20 81 21
f 21 81 82
f 21 82 62
f 22 75 83
f 24 84 85
f 24 85 86
f 24 86 87
f 24 87 88
f 24 88 89
f 24 89 90
f 24 90 91
f 24 91 92
f 24 92 93
f 24 93 94
f 24 94 95
f 24 95 96
f 24 96 97
f 24 97 98
f 24 98 99
f 24 99 100
f 24 100 101
f 24 101 102
f 24 102 103
f 24 103 104
f 24 104 105
f 24 105 106
f 24 106 107
f 24 107 108
f 24 108 109
f 24 109 110
f 24 110 111
f 24 111 112
f 24 112 113
f 24 113 114
f 24 114 115
f 24 115 116
f 24 116 117
f 24 117 118
f 24 118 119
f 24 119 120
f 24 120 121
f 24 121 122
f 24 122 123
f 24 123 124
f 24 124 125
f 24 125 126
f 24 126 127
f 24 127 128
f 24 128 129
f 24 129 130
f 24 130 25
f 25 130 131
f 27 132 133
f 27 133 134
f 27 134 28
f 28 135 136
f 28 136 29
f 28 134 135
f 29 136 137
f 29 137 30
f 30 137 138
f 30 138 139
f 30 139 140
f 30 140 32
f 30 32 31
f 32 140 141
f 32 141 33
f 33 141 142
f 33 142 143
f 33 143 34
f 34 143 144
f 34 144 35
f 35 144 145
f 35 145 146
f 35 146 147
f 35 147 148
f 35 148 36
f 36 148 149
f 36 149 37
f 37 149 38
f 38 149 150
f 38 150 39
f 39 151 152
f 39 152 153
f 39 153 40
f 39 150 151
f 40 153 154
f 40 154 41
f 41 154 155
f 41 155 156
f 41 156 42
f 42 156 157
f 42 157 158
f 42 158 43
f 43 158 159
f 43 159 160
f 43 160 44
f 44 160 161
f 44 161 45
f 45 161 162
f 45 162 163
f 45 163 46
f 46 163 47
f 47 163 164
f 47 164 165
f 47 165 166
f 47 166 48
f 48 166 167
f 48 167 49
f 49 167 50
f 50 167 51
f 51 168 169
f 51 169 53
f 51 53 52
f 51 167 168
f 53 169 170
f 53 170 171
f 53 171 54
f 54 171 172
f 55 173 174
f 55 174 175
f 55 175 176
f 55 176 177
f 55 177 178
f 55 178 179
f 55 179 180
f 55 180 181
f 55 181 182
f 55 182 183
f 55 183 184
f 55 184 185
f 55 185 186
f 55 186 187
f 55 187 188
f 55 188 56
f 56 188 189
f 56 189 190
f 56 190 191
f 56 191 192
f 56 192 193
f 56 193 194
f 56 194 195
f 56 195 196
f 56 196 197
f 56 197 59
f 56 59 57
f 57 59 58
f 59 198 60
f 59 197 199
f 59 199 198
f 60 198 200
f 60 200 61
f 61 201 202
f 61 202 76
f 61 200 201
f 62 82 203
f 62 203 204
f 62 204 63
f 63 204 205
f 63 205 64
f 64 205 206
f 64 206 207
f 64 207 208
f 64 208 65
f 65 208 209
f 65 209 66
f 66 209 210
f 66 210 211
f 66 211 212
f 66 212 213
f 66 213 67
f 67 213 68
f 68 213 214
f 68 214 69
f 69 214 70
f 70 214 71
f 71 214 215
f 71 215 72
f 72 215 73
f 73 215 216
f 73 216 74
f 74 216 217
f 74 217 218
f 74 218 75
f 75 84 219
f 75 219 220
f 75 220 221
f 75 221 83
f 75 218 84
f 76 202 222
f 76 222 77
f 77 222 78
f 78 222 223
f 78 223 224
f 78 224 225
f 78 225 79
f 79 225 226
f 79 226 80
f 80 226 81
f 81 227 82
f 81 226 228
f 81 228 227
f 82 227 229
f 82 229 203
f 84 218 230
f 84 230 231
f 84 231 232
f 84 232 233
f 84 233 234
f 84 234 235
f 84 235 236
f 84 236 237
f 84 237 238
f 84 238 239
f 84 239 240
f 84 240 241
f 84 241 242
f 84 242 243
f 84 243 244
f 84 244 245
f 84 245 246
f 84 246 247
f 84 247 248
f 84 248 249
f 84 249 250
f 84 250 251
f 84 251 252
f 84 252 253
f 84 253 254
f 84 254 255
f 84 255 256
f 84 256 257
f 84 257 258
f 84 258 259
f 84 259 85
f 85 260 86
f 85 259 260
f 86 260 261
f 86 261 87
f 87 261 88
f 88 262 263
f 88 263 89
f 88 261 262
f 89 263 90
f 90 263 91
f 91 263 264
f 91 264 265
f 91 265 92
f 92 265 93
f 93 265 266
f 93 266 94
f 94 266 95
f 95 266 96
f 96 267 97
f 96 266 267
f 97 267 98
f 98 267 268
f 98 268 269
f 98 269 99
f 99 269 100
f 100 269 270
f 100 270 101
f 101 270 271
f 101 271 102
f 102 271 272
f 102 272 103
f 103 273 104
f 103 272 274
f 103 274 273
f 104 273 105
f 105 273 275
f 105 275 106
f 106 275 276
f 106 276 107
f 107 277 278
f 107 278 108
f 107 276 277
f 108 278 279
f 108 279 109
f 109 279 110
f 110 279 280
f 110 280 111
f 111 280 112
f 112 280 281
f 112 281 113
f 113 281 114
f 114 281 282
f 114 282 115
f 115 282 283
f 115 283 116
f 116 283 117
f 117 283 284
f 117 284 118
f 118 284 119
f 119 284 285
f 119 285 120
f 120 286 121
f 120 285 286
f 121 286 287
f 121 287 122
f 122 287 123
f 123 287 124
f 124 287 288
f 124 288 125
f 125 288 126
f 126 288 127
f 127 288 128
f 128 288 289
f 128 289 129
f 129 290 130
f 129 289 290
f 130 290 131
f 131 290 292
f 131 292 291
f 132 293 294
f 132 294 133
f 133 294 295
f 133 295 135
f 133 135 134
f 135 295 136
f 136 295 296
f 136 296 297
f 136 297 137
f 137 297 138
f 138 298 299
f 138 299 139
f 138 297 298
f 139 299 300
f 139 300 140
f 140 300 301
f 140 301 141
f 141 301 302
f 141 302 303
f 141 303 142
f 142 303 304
f 142 304 143
f 143 304 144
f 144 304 145
f 145 305 306
f 145 306 146
f 145 304 305
f 146 306 147
f 147 307 148
f 147 306 308
f 147 308 309
f 147 309 310
f 147 310 311
f 147 311 307
f 148 307 149
f 149 307 150
f 150 311 151
f 150 307 311
f 151 311 312
f 151 312 313
f 151 313 314
f 151 314 152
f 152 314 315
f 152 315 155
f 152 155 153
f 153 155 154
f 155 315 156
f 156 315 316
f 156 316 158
f 156 158 157
f 158 316 317
f 158 317 318
f 158 318 319
f 158 319 320
f 158 320 160
f 158 160 159
f 160 320 161
f 161 320 321
f 161 321 162
f 162 322 163
f 162 321 323
f 162 323 322
f 163 322 164
f 164 322 165
f 165 322 166
f 166 322 324
f 166 324 325
f 166 325 167
f 167 325 326
f 167 326 168
f 168 327 328
f 168 328 329
f 168 329 169
f 168 326 327
f 169 329 330
f 169 330 170
f 170 330 331
f 170 331 332
f 170 332 171
f 171 332 333
f 171 333 172
f 172 333 335
f 172 335 336
f 172 336 334
f 173 337 338
f 173 338 339
f 173 339 340
f 173 340 174
f 174 340 341
f 174 341 342
f 174 342 175
f 175 342 176
f 176 342 177
f 177 343 344
f 177 344 181
f 177 181 180
f 177 180 179
f 177 179 178
f 177 342 343
f 181 344 182
f 182 344 183
f 183 344 184
f 184 344 185
f 185 344 186
f 186 344 345
f 186 345 187
f 187 345 189
f 187 189 188
f 189 345 344
f 189 344 346
f 189 346 347
f 189 347 348
f 189 348 190
f 190 348 349
f 190 349 191
f 191 349 350
f 191 350 351
f 191 351 192
f 192 351 193
f 193 351 352
f 193 352 353
f 193 353 194
f 194 353 354
f 194 354 355
f 194 355 195
f 195 356 196
f 195 355 356
f 196 356 357
f 196 357 197
f 197 358 199
f 197 357 358
f 198 199 359
f 198 359 360
f 198 360 361
f 198 361 200
f 199 358 359
f 200 361 201
f 201 362 222
f 201 222 202
f 201 361 363
f 201 363 362
f 203 229 204
f 204 229 364
f 204 364 205
f 205 364 365
f 205 365 366
f 205 366 206
f 206 366 367
f 206 367 368
f 206 368 207
f 207 368 208
f 208 368 369
f 208 369 370
f 208 370 209
f 209 370 371
f 209 371 210
f 210 371 211
f 211 372 212
f 211 371 373
f 211 373 374
f 211 374 375
f 211 375 372
f 212 376 213
f 212 372 376
f 213 376 377
f 213 377 214
f 214 377 215
f 215 377 378
f 215 378 216
f 216 379 217
f 216 378 380
f 216 380 381
f 216 381 382
f 216 382 231
f 216 231 379
f 217 379 218
f 218 379 230
f 222 362 383
f 222 383 384
f 222 384 223
f 223 384 224
f 224 384 383
f 224 383 385
f 224 385 386
f 224 386 226
f 224 226 225
f 226 386 387
f 226 387 388
f 226 388 227
f 226 227 228
f 227 389 390
f 227 390 229
f 227 388 387
f 227 387 391
f 227 391 389
f 229 390 389
f 229 389 392
f 229 392 365
f 229 365 364
f 230 379 231
f 231 382 393
f 231 393 394
f 231 394 232
f 232 394 233
f 233 394 395
f 233 395 234
f 234 395 235
f 235 395 396
f 235 396 397
f 235 397 236
f 236 397 398
f 236 398 237
f 237 398 238
f 238 398 399
f 238 399 400
f 238 400 239
f 239 400 401
f 239 401 240
f 240 401 241
f 241 401 242
f 242 401 402
f 242 402 403
f 242 403 243
f 243 403 244
f 244 403 245
f 245 404 246
f 245 403 404
f 246 404 405
f 246 405 406
f 246 406 247
f 247 406 407
f 247 407 248
f 248 407 249
f 249 407 408
f 249 408 250
f 250 409 410
f 250 410 411
f 250 411 251
f 250 408 409
f 251 411 252
f 252 411 412
f 252 412 253
f 253 412 413
f 253 413 254
f 254 413 255
f 255 414 415
f 255 415 256
f 255 413 414
f 256 415 416
f 256 416 257
f 257 416 258
f 258 416 260
f 258 260 259
f 260 416 574
f 260 574 417
f 260 417 261
f 261 418 419
f 261 419 262
f 261 417 418
f 262 419 263
f 263 419 420
f 263 420 264
f 264 420 265
f 265 421 422
f 265 422 266
f 265 420 421
f 266 423 424
f 266 424 267
f 266 422 423
f 267 424 425
f 267 425 268
f 268 425 426
f 268 426 427
f 268 427 270
f 268 270 269
f 270 427 271
f 271 427 272
f 272 427 428
f 272 428 429
f 272 429 274
f 273 274 429
f 273 429 430
f 273 430 431
f 273 431 275
f 275 432 277
f 275 277 276
f 275 431 432
f 277 433 278
f 277 432 434
f 277 434 433
f 278 433 279
f 279 435 280
f 279 433 436
f 279 436 435
f 280 435 281
f 281 435 437
f 281 437 438
f 281 438 282
f 282 438 283
f 283 438 439
f 283 439 284
f 284 439 440
f 284 440 441
f 284 441 285
f 285 441 442
f 285 442 286
f 286 442 287
f 287 442 443
f 287 443 288
f 288 443 444
f 288 444 289
f 289 444 290
f 290 444 292
f 291 292 446
f 291 446 445
f 292 444 447
f 292 447 446
f 293 445 294
f 294 445 446
f 294 446 448
f 294 448 295
f 295 448 449
f 295 449 296
f 296 449 450
f 296 450 297
f 297 450 451
f 297 451 298
f 298 451 299
f 299 452 453
f 299 453 300
f 299 451 452
f 300 453 454
f 300 454 301
f 301 454 455
f 301 455 302
f 302 456 303
f 302 455 456
f 303 457 458
f 303 458 305
f 303 305 304
f 303 456 457
f 305 458 306
f 306 458 308
f 308 458 459
f 308 459 460
f 308 460 461
f 308 461 309
f 309 461 462
f 309 462 463
f 309 463 464
f 309 464 465
f 309 465 466
f 309 466 310
f 310 466 467
f 310 467 311
f 311 467 468
f 311 468 312
f 312 468 469
f 312 469 313
f 313 469 470
f 313 470 471
f 313 471 472
f 313 472 314
f 314 317 316
f 314 316 315
f 314 472 317
f 317 472 319
f 317 319 318
f 319 473 474
f 319 474 475
f 319 475 476
f 319 476 320
f 319 472 477
f 319 477 473
f 320 476 321
f 321 476 478
f 321 478 479
f 321 479 323
f 322 323 324
f 323 479 480
f 323 480 481
f 323 481 325
f 323 325 324
f 325 481 326
f 326 481 482
f 326 482 483
f 326 483 484
f 326 484 327
f 327 484 328
f 328 484 485
f 328 485 486
f 328 486 329
f 329 486 330
f 330 486 331
f 331 486 485
f 331 485 487
f 331 487 488
f 331 488 489
f 331 489 490
f 331 490 332
f 332 490 335
f 332 335 333
f 334 336 491
f 335 490 492
f 335 492 336
f 336 492 493
f 336 493 494
f 336 494 491
f 337 495 338
f 338 496 497
f 338 497 501
f 338 501 339
f 338 495 498
f 338 498 499
f 338 499 500
f 338 500 496
f 339 501 341
f 339 341 340
f 341 501 502
f 341 502 503
f 341 503 342
f 342 503 343
f 343 504 346
f 343 346 344
f 343 503 504
f 346 504 505
f 346 505 347
f 347 505 348
f 348 505 506
f 348 506 507
f 348 507 350
f 348 350 349
f 350 508 351
f 350 507 508
f 351 509 352
f 351 508 509
f 352 509 353
f 353 510 511
f 353 511 354
f 353 509 512
f 353 512 510
f 354 511 513
f 354 513 514
f 354 514 356
f 354 356 355
f 356 515 357
f 356 514 513
f 356 513 516
f 356 516 515
f 357 515 517
f 357 517 358
f 358 517 359
f 359 517 518
f 359 518 519
f 359 519 520
f 359 520 521
f 359 521 522
f 359 522 523
f 359 523 524
f 359 524 360
f 360 524 361
f 361 524 363
f 362 363 525
f 362 525 383
f 363 526 525
f 363 524 526
f 365 527 366
f 365 392 528
f 365 528 527
f 366 527 367
f 367 369 368
f 367 527 529
f 367 529 530
f 367 530 369
f 369 530 531
f 369 531 370
f 370 531 532
f 370 532 371
f 371 532 533
f 371 533 373
f 372 534 376
f 372 375 539
f 372 539 534
f 373 533 374
f 374 535 375
f 374 533 536
f 374 536 537
f 374 537 538
f 374 538 535
f 375 535 539
f 376 534 377
f 377 534 540
f 377 540 380
f 377 380 378
f 380 540 541
f 380 541 381
f 381 542 382
f 381 541 542
f 382 542 543
f 382 543 544
f 382 544 393
f 383 525 545
f 383 545 546
f 383 546 547
f 383 547 548
f 383 548 385
f 385 548 386
f 386 548 387
f 387 548 549
f 387 549 550
f 387 550 389
f 387 389 391
f 389 551 392
f 389 550 552
f 389 552 551
f 392 551 528
f 393 544 394
f 394 544 553
f 394 553 395
f 395 553 544
f 395 544 554
f 395 554 396
f 396 555 556
f 396 556 397
f 396 554 555
f 397 556 557
f 397 557 398
f 398 557 399
f 399 557 558
f 399 558 559
f 399 559 400
f 400 559 401
f 401 559 560
f 401 560 561
f 401 561 562
f 401 562 402
f 402 562 403
f 403 563 404
f 403 562 563
f 404 563 405
f 405 563 564
f 405 564 406
f 406 564 407
f 407 565 566
f 407 566 567
f 407 567 408
f 407 564 565
f 408 567 568
f 408 568 410
f 408 410 409
f 410 568 411
f 411 569 412
f 411 568 567
f 411 567 569
f 412 570 571
f 412 571 413
f 412 569 570
f 413 571 572
f 413 572 414
f 414 572 573
f 414 573 415
f 415 573 574
f 415 574 416
f 417 574 575
f 417 575 576
f 417 576 577
f 417 577 578
f 417 578 579
f 417 579 418
f 418 579 580
f 418 580 419
f 419 580 420
f 420 581 582
f 420 582 421
f 420 580 581
f 421 582 583
f 421 583 422
f 422 583 423
f 423 583 424
f 424 583 425
f 425 584 585
f 425 585 426
f 425 583 586
f 425 586 584
f 426 587 427
f 426 585 587
f 427 587 588
f 427 588 428
f 428 589 590
f 428 590 429
f 428 588 587
f 428 587 591
f 428 591 589
f 429 590 592
f 429 592 430
f 430 592 593
f 430 593 432
f 430 432 594
f 430 594 431
f 431 594 432
f 432 593 595
f 432 595 434
f 433 434 596
f 433 596 597
f 433 597 436
f 434 595 598
f 434 598 597
f 434 597 596
f 435 599 600
f 435 600 437
f 435 436 601
f 435 601 599
f 436 597 601
f 437 602 438
f 437 600 602
f 438 602 439
f 439 602 603
f 439 603 440
f 440 603 604
f 440 604 453
f 440 453 441
f 441 453 452
f 441 452 605
f 441 605 606
f 441 606 442
f 442 606 605
f 442 605 607
f 442 607 444
f 442 444 443
f 444 607 447
f 446 447 607
f 446 607 448
f 448 607 449
f 449 607 450
f 450 605 451
f 450 607 605
f 451 605 452
f 453 604 454
f 454 604 455
f 455 604 603
f 455 603 608
f 455 608 609
f 455 609 456
f 456 609 610
f 456 610 457
f 457 610 458
f 458 611 612
f 458 612 459
f 458 610 611
f 459 613 460
f 459 612 613
f 460 614 615
f 460 615 463
f 460 463 462
f 460 462 461
f 460 613 614
f 463 615 616
f 463 616 464
f 464 616 617
f 464 617 618
f 464 618 465
f 465 618 619
f 465 619 620
f 465 620 621
f 465 621 466
f 466 621 468
f 466 468 467
f 468 470 469
f 468 621 622
f 468 622 623
f 468 623 470
f 470 623 472
f 470 472 471
f 472 623 477
f 473 624 474
f 473 477 624
f 474 624 625
f 474 625 626
f 474 626 475
f 475 626 627
f 475 627 476
f 476 627 478
f 477 623 628
f 477 628 624
f 478 627 629
f 478 629 479
f 479 629 480
f 480 629 630
f 480 630 631
f 480 631 481
f 481 631 482
f 482 631 483
f 483 632 484
f 483 631 633
f 483 633 632
f 484 632 634
f 484 634 485
f 485 635 636
f 485 636 488
f 485 488 487
f 485 634 635
f 488 636 637
f 488 637 489
f 489 637 638
f 489 638 639
f 489 639 640
f 489 640 641
f 489 641 642
f 489 642 490
f 490 642 492
f 492 642 641
f 492 641 643
f 492 643 644
f 492 644 645
f 492 645 493
f 493 646 647
f 493 647 648
f 493 648 649
f 493 649 650
f 493 650 494
f 493 645 646
f 496 651 497
f 496 500 651
f 497 651 652
f 497 652 653
f 497 653 654
f 497 654 656
f 497 656 501
f 500 655 651
f 501 656 502
f 502 657 786
f 502 786 658
f 502 658 503
f 502 656 657
f 503 658 504
f 504 659 505
f 504 658 659
f 505 659 660
f 505 660 506
f 506 660 661
f 506 661 507
f 507 661 662
f 507 662 508
f 508 663 664
f 508 664 509
f 508 662 661
f 508 661 663
f 509 664 512
f 510 512 511
f 511 512 665
f 511 665 513
f 512 664 666
f 512 666 667
f 512 667 668
f 512 668 669
f 512 669 665
f 513 665 670
f 513 670 516
f 515 516 517
f 516 670 671
f 516 671 672
f 516 672 673
f 516 673 674
f 516 674 518
f 516 518 517
f 518 674 519
f 519 674 520
f 520 674 675
f 520 675 676
f 520 676 677
f 520 677 521
f 521 677 678
f 521 678 522
f 522 678 679
f 522 679 680
f 522 680 523
f 523 680 526
f 523 526 524
f 525 526 681
f 525 681 545
f 526 680 681
f 527 528 529
f 528 551 682
f 528 682 683
f 528 683 529
f 529 683 684
f 529 684 685
f 529 685 686
f 529 686 530
f 530 686 531
f 531 533 532
f 531 686 687
f 531 687 533
f 533 687 688
f 533 688 536
f 534 539 540
f 535 689 539
f 535 538 690
f 535 690 689
f 536 688 537
f 537 688 691
f 537 691 692
f 537 692 693
f 537 693 538
f 538 693 690
f 539 541 540
f 539 689 694
f 539 694 541
f 541 694 542
f 542 694 695
f 542 695 543
f 543 695 696
f 543 696 544
f 544 697 554
f 544 696 697
f 545 681 698
f 545 698 546
f 546 698 699
f 546 699 700
f 546 700 701
f 546 701 547
f 547 701 548
f 548 701 702
f 548 702 549
f 549 703 550
f 549 702 703
f 550 703 552
f 551 552 682
f 552 703 704
f 552 704 682
f 554 705 555
f 554 697 705
f 555 705 706
f 555 706 707
f 555 707 556
f 556 708 557
f 556 707 708
f 557 708 558
f 558 709 559
f 558 708 709
f 559 710 711
f 559 711 560
f 559 709 710
f 560 712 561
f 560 711 712
f 561 712 713
f 561 713 714
f 561 714 563
f 561 563 562
f 563 715 716
f 563 716 564
f 563 714 717
f 563 717 715
f 564 718 565
f 564 716 719
f 564 719 720
f 564 720 718
f 565 718 566
f 566 718 721
f 566 721 722
f 566 722 567
f 567 722 723
f 567 723 569
f 569 723 721
f 569 721 718
f 569 718 724
f 569 724 725
f 569 725 726
f 569 726 727
f 569 727 570
f 570 727 728
f 570 728 571
f 571 728 572
f 572 729 730
f 572 730 573
f 572 728 729
f 573 730 731
f 573 731 574
f 574 731 575
f 575 732 733
f 575 733 576
f 575 731 732
f 576 733 578
f 576 578 577
f 578 733 734
f 578 734 579
f 579 734 735
f 579 735 580
f 580 735 581
f 581 735 582
f 582 736 737
f 582 737 738
f 582 738 583
f 582 735 736
f 583 738 739
f 583 739 586
f 584 740 741
f 584 741 585
f 584 586 739
f 584 739 740
f 585 741 742
f 585 742 743
f 585 743 591
f 585 591 587
f 589 744 590
f 589 591 742
f 589 742 744
f 590 744 745
f 590 745 592
f 591 743 742
f 592 745 746
f 592 746 747
f 592 747 595
f 592 595 593
f 595 747 598
f 597 748 601
f 597 598 749
f 597 749 748
f 598 747 750
f 598 750 749
f 599 611 600
f 599 601 612
f 599 612 611
f 600 611 610
f 600 610 608
f 600 608 602
f 601 748 751
f 601 751 612
f 602 608 603
f 608 610 609
f 612 751 613
f 613 751 752
f 613 752 750
f 613 750 615
f 613 615 614
f 615 750 747
f 615 747 616
f 616 747 753
f 616 753 754
f 616 754 617
f 617 754 618
f 618 754 619
f 619 755 873
f 619 873 756
f 619 756 757
f 619 757 758
f 619 758 620
f 619 754 755
f 620 758 623
f 620 623 622
f 620 622 621
f 623 758 757
f 623 757 628
f 624 628 759
f 624 759 760
f 624 760 626
f 624 626 625
f 626 760 761
f 626 761 629
f 626 629 627
f 628 757 759
f 629 761 630
f 630 761 762
f 630 762 631
f 631 762 763
f 631 763 633
f 632 633 763
f 632 763 764
f 632 764 634
f 634 764 765
f 634 765 766
f 634 766 635
f 635 766 767
f 635 767 768
f 635 768 636
f 636 768 769
f 636 769 770
f 636 770 638
f 636 638 637
f 638 770 639
f 639 770 771
f 639 771 890
f 639 890 772
f 639 772 640
f 640 772 773
f 640 773 774
f 640 774 643
f 640 643 641
f 643 774 644
f 644 774 775
f 644 775 776
f 644 776 645
f 645 776 652
f 645 652 777
f 645 777 646
f 646 778 779
f 646 779 780
f 646 780 781
f 646 781 647
f 646 777 778
f 647 781 648
f 648 781 649
f 651 778 652
f 651 655 782
f 651 782 783
f 651 783 778
f 652 776 653
f 652 778 777
f 653 776 654
f 654 776 784
f 654 784 656
f 656 784 657
f 657 785 786
f 657 784 785
f 658 786 659
f 659 787 788
f 659 788 660
f 659 786 787
f 660 788 789
f 660 789 663
f 660 663 661
f 663 790 791
f 663 791 664
f 663 789 792
f 663 792 793
f 663 793 794
f 663 794 790
f 664 795 666
f 664 791 795
f 665 669 796
f 665 796 670
f 666 795 667
f 667 797 798
f 667 798 669
f 667 669 668
f 667 795 799
f 667 799 797
f 669 798 800
f 669 800 796
f 670 796 671
f 671 796 672
f 672 801 674
f 672 674 673
f 672 796 802
f 672 802 801
f 674 801 675
f 675 801 803
f 675 803 676
f 676 804 805
f 676 805 677
f 676 803 804
f 677 805 806
f 677 806 678
f 678 806 807
f 678 807 679
f 679 807 680
f 680 807 808
f 680 808 809
f 680 809 681
f 681 809 698
f 682 684 683
f 682 704 684
f 684 810 685
f 684 704 811
f 684 811 812
f 684 812 813
f 684 813 810
f 685 687 686
f 685 810 687
f 687 810 814
f 687 814 688
f 688 814 691
f 689 690 694
f 690 693 815
f 690 815 816
f 690 816 695
f 690 695 694
f 691 814 817
f 691 817 692
f 692 818 819
f 692 819 693
f 692 817 820
f 692 820 821
f 692 821 822
f 692 822 818
f 693 819 823
f 693 823 815
f 695 816 696
f 696 816 824
f 696 824 705
f 696 705 697
f 698 825 826
f 698 826 699
f 698 809 825
f 699 826 827
f 699 827 700
f 700 828 702
f 700 702 701
f 700 827 828
f 702 829 830
f 702 830 704
f 702 704 703
f 702 828 829
f 704 830 829
f 704 829 831
f 704 831 811
f 705 824 832
f 705 832 706
f 706 833 707
f 706 832 833
f 707 833 834
f 707 834 928
f 707 928 835
f 707 835 708
f 708 835 709
f 709 835 836
f 709 836 837
f 709 837 710
f 710 837 838
f 710 838 711
f 711 838 839
f 711 839 840
f 711 840 712
f 712 840 841
f 712 841 842
f 712 842 717
f 712 717 714
f 712 714 713
f 715 719 716
f 715 717 719
f 717 842 843
f 717 843 844
f 717 844 845
f 717 845 719
f 718 846 847
f 718 847 724
f 718 720 848
f 718 848 846
f 719 845 849
f 719 849 850
f 719 850 720
f 720 850 848
f 721 723 722
f 724 851 725
f 724 847 851
f 725 851 726
f 726 851 852
f 726 852 727
f 727 852 853
f 727 853 728
f 728 853 729
f 729 853 854
f 729 854 730
f 730 855 856
f 730 856 731
f 730 854 855
f 731 856 732
f 732 856 857
f 732 857 858
f 732 858 859
f 732 859 860
f 732 860 733
f 733 860 859
f 733 859 734
f 734 859 861
f 734 861 735
f 735 861 736
f 736 862 863
f 736 863 737
f 736 861 864
f 736 864 865
f 736 865 862
f 737 863 738
f 738 863 866
f 738 866 739
f 739 866 740
f 740 867 741
f 740 866 867
f 741 868 869
f 741 869 870
f 741 870 742
f 741 867 868
f 742 870 871
f 742 871 872
f 742 872 744
f 744 755 754
f 744 754 745
f 744 872 869
f 744 869 755
f 745 754 753
f 745 753 746
f 746 753 747
f 748 749 752
f 748 752 751
f 749 750 752
f 755 869 873
f 756 873 874
f 756 874 875
f 756 875 876
f 756 876 757
f 757 876 759
f 759 876 760
f 760 876 877
f 760 877 878
f 760 878 761
f 761 878 879
f 761 879 880
f 761 880 762
f 762 880 881
f 762 881 882
f 762 882 763
f 763 882 764
f 764 882 883
f 764 883 884
f 764 884 765
f 765 884 766
f 766 884 885
f 766 885 886
f 766 886 767
f 767 886 887
f 767 887 984
f 767 984 888
f 767 888 889
f 767 889 769
f 767 769 768
f 769 889 771
f 769 771 770
f 771 889 890
f 772 890 987
f 772 987 891
f 772 891 892
f 772 892 773
f 773 892 893
f 773 893 774
f 774 893 894
f 774 894 775
f 775 894 784
f 775 784 776
f 778 783 779
f 784 894 895
f 784 895 785
f 785 895 896
f 785 896 897
f 785 897 898
f 785 898 787
f 785 787 786
f 787 898 788
f 788 792 789
f 788 898 792
f 790 794 791
f 791 899 795
f 791 794 899
f 792 900 793
f 792 898 900
f 793 900 794
f 794 900 901
f 794 901 899
f 795 902 799
f 795 899 903
f 795 903 902
f 796 800 904
f 796 904 905
f 796 905 802
f 797 799 906
f 797 906 907
f 797 907 800
f 797 800 798
f 799 902 908
f 799 908 906
f 800 907 909
f 800 909 904
f 801 802 803
f 802 910 803
f 802 905 911
f 802 911 910
f 803 910 804
f 804 910 805
f 805 910 912
f 805 912 806
f 806 912 913
f 806 913 914
f 806 914 807
f 807 915 916
f 807 916 917
f 807 917 808
f 807 914 918
f 807 918 915
f 808 919 809
f 808 917 919
f 809 919 825
f 810 813 920
f 810 920 921
f 810 921 814
f 811 831 812
f 812 920 813
f 812 831 922
f 812 922 920
f 814 921 817
f 815 823 816
f 816 823 832
f 816 832 824
f 817 921 923
f 817 923 820
f 818 822 833
f 818 833 924
f 818 924 823
f 818 823 819
f 820 923 925
f 820 925 821
f 821 834 822
f 821 925 926
f 821 926 927
f 821 927 928
f 821 928 834
f 822 834 833
f 823 924 832
f 825 919 929
f 825 929 826
f 826 930 931
f 826 931 827
f 826 929 932
f 826 932 930
f 827 931 828
f 828 931 829
f 829 922 831
f 829 931 933
f 829 933 922
f 832 924 833
f 835 928 836
f 836 928 927
f 836 927 934
f 836 934 935
f 836 935 837
f 837 935 838
f 838 936 937
f 838 937 839
f 838 935 936
f 839 937 938
f 839 938 840
f 840 938 939
f 840 939 841
f 841 939 842
f 842 939 843
f 843 939 844
f 844 940 845
f 844 939 941
f 844 941 940
f 845 940 849
f 846 942 847
f 846 848 850
f 846 850 942
f 847 942 851
f 849 940 943
f 849 943 944
f 849 944 945
f 849 945 850
f 850 945 946
f 850 946 942
f 851 947 948
f 851 948 852
f 851 942 947
f 852 949 951
f 852 951 853
f 852 948 950
f 852 950 949
f 853 951 952
f 853 952 854
f 854 952 855
f 855 953 954
f 855 954 856
f 855 952 955
f 855 955 953
f 856 954 857
f 857 954 956
f 857 956 1042
f 857 1042 957
f 857 957 858
f 858 957 958
f 858 958 959
f 858 959 861
f 858 861 859
f 861 959 864
f 862 960 961
f 862 961 863
f 862 865 962
f 862 962 960
f 863 963 964
f 863 964 866
f 863 961 963
f 864 959 958
f 864 958 865
f 865 958 965
f 865 965 966
f 865 966 962
f 866 964 867
f 867 967 968
f 867 968 868
f 867 964 969
f 867 969 967
f 868 968 874
f 868 874 970
f 868 970 869
f 869 970 873
f 869 872 871
f 869 871 870
f 873 970 971
f 873 971 874
f 874 876 875
f 874 971 970
f 874 968 876
f 876 968 877
f 877 968 967
f 877 967 969
f 877 969 964
f 877 964 972
f 877 972 973
f 877 973 879
f 877 879 878
f 879 973 974
f 879 974 880
f 880 974 975
f 880 975 976
f 880 976 881
f 881 976 882
f 882 976 977
f 882 977 978
f 882 978 979
f 882 979 883
f 883 979 884
f 884 979 978
f 884 978 980
f 884 980 981
f 884 981 885
f 885 981 982
f 885 982 886
f 886 982 887
f 887 982 983
f 887 983 984
f 888 984 1050
f 888 1050 985
f 888 985 986
f 888 986 889
f 889 986 987
f 889 987 890
f 891 987 1053
f 891 1053 988
f 891 988 989
f 891 989 892
f 892 989 990
f 892 990 893
f 893 990 895
f 893 895 894
f 895 990 896
f 896 990 897
f 897 991 900
f 897 900 898
f 897 990 992
f 897 992 991
f 899 901 903
f 900 991 901
f 901 993 994
f 901 994 903
f 901 991 993
f 902 995 908
f 902 903 994
f 902 994 995
f 904 909 996
f 904 996 905
f 905 996 911
f 906 997 998
f 906 998 999
f 906 999 907
f 906 908 1000
f 906 1000 997
f 907 999 909
f 908 995 1001
f 908 1001 1000
f 909 999 996
f 910 911 1002
f 910 1002 1003
f 910 1003 912
f 911 996 1004
f 911 1004 1002
f 912 1003 1005
f 912 1005 914
f 912 914 913
f 914 1005 918
f 915 918 1006
f 915 1006 916
f 916 929 919
f 916 919 917
f 916 1006 1007
f 916 1007 1008
f 916 1008 929
f 918 1005 1006
f 920 922 1009
f 920 1009 1010
f 920 1010 1011
f 920 1011 923
f 920 923 921
f 922 933 1012
f 922 1012 1009
f 923 1011 925
f 925 1013 926
f 925 1011 1013
f 926 1013 1014
f 926 1014 934
f 926 934 927
f 929 1008 1015
f 929 1015 932
f 930 932 1016
f 930 1016 1017
f 930 1017 931
f 931 1017 933
f 932 1015 1018
f 932 1018 1016
f 933 1017 1019
f 933 1019 1010
f 933 1010 1012
f 934 1014 935
f 935 1020 936
f 935 1014 1020
f 936 1020 1021
f 936 1021 937
f 937 1021 1022
f 937 1022 939
f 937 939 938
f 939 1022 1023
f 939 1023 941
f 940 941 943
f 941 1023 943
f 942 946 947
f 943 1024 944
f 943 1023 1024
f 944 1024 1025
f 944 1025 1026
f 944 1026 1027
f 944 1027 945
f 945 1027 1028
f 945 1028 1029
f 945 1029 946
f 946 1030 947
f 946 1029 1030
f 947 1030 1031
f 947 1031 1032
f 947 1032 1033
f 947 1033 948
f 948 1033 1036
f 948 1036 950
f 949 1034 1035
f 949 1035 951
f 949 950 1036
f 949 1036 1034
f 951 1035 1037
f 951 1037 952
f 952 1037 955
f 953 1038 954
f 953 955 1038
f 954 1039 956
f 954 1038 1039
f 955 1037 1038
f 956 1039 1040
f 956 1040 1041
f 956 1041 1046
f 956 1046 1042
f 957 1042 965
f 957 965 958
f 960 1043 963
f 960 963 961
f 960 962 1043
f 962 966 1043
f 963 1044 972
f 963 972 964
f 963 1043 1045
f 963 1045 1044
f 965 1042 1046
f 965 1046 1047
f 965 1047 1048
f 965 1048 966
f 966 1048 1043
f 972 976 975
f 972 975 974
f 972 974 973
f 972 1044 976
f 976 1044 977
f 977 1044 1045
f 977 1045 978
f 978 1045 1043
f 978 1043 980
f 980 1043 1048
f 980 1048 981
f 981 1048 982
f 982 1047 1046
f 982 1046 983
f 982 1048 1047
f 983 1046 1041
f 983 1041 1049
f 983 1049 1050
f 983 1050 984
f 985 1050 1051
f 985 1051 1052
f 985 1052 986
f 986 1052 1053
f 986 1053 987
f 988 1053 1109
f 988 1109 1054
f 988 1054 1055
f 988 1055 989
f 989 1055 990
f 990 1055 992
f 991 1056 993
f 991 992 1056
f 992 1055 1056
f 993 1057 994
f 993 1056 1058
f 993 1058 1057
f 994 1057 1001
f 994 1001 995
f 996 999 1059
f 996 1059 1004
f 997 1060 998
f 997 1000 1061
f 997 1061 1062
f 997 1062 1060
f 998 1060 1063
f 998 1063 1064
f 998 1064 999
f 999 1064 1059
f 1000 1001 1065
f 1000 1065 1061
f 1001 1057 1065
f 1002 1004 1066
f 1002 1066 1067
f 1002 1067 1003
f 1003 1067 1068
f 1003 1068 1005
f 1004 1059 1066
f 1005 1068 1006
f 1006 1068 1069
f 1006 1069 1070
f 1006 1070 1071
f 1006 1071 1007
f 1007 1071 1072
f 1007 1072 1008
f 1008 1072 1073
f 1008 1073 1015
f 1009 1012 1010
f 1010 1019 1074
f 1010 1074 1075
f 1010 1075 1076
f 1010 1076 1077
f 1010 1077 1020
f 1010 1020 1078
f 1010 1078 1079
f 1010 1079 1011
f 1011 1079 1013
f 1013 1079 1078
f 1013 1078 1014
f 1014 1078 1020
f 1015 1073 1018
f 1016 1074 1017
f 1016 1018 1080
f 1016 1080 1074
f 1017 1074 1019
f 1018 1073 1081
f 1018 1081 1082
f 1018 1082 1080
f 1020 1077 1076
f 1020 1076 1083
f 1020 1083 1021
f 1021 1083 1084
f 1021 1084 1085
f 1021 1085 1086
f 1021 1086 1087
f 1021 1087 1023
f 1021 1023 1022
f 1023 1088 1025
f 1023 1025 1024
f 1023 1087 1088
f 1025 1089 1026
f 1025 1088 1089
f 1026 1089 1090
f 1026 1090 1027
f 1027 1091 1031
f 1027 1031 1028
f 1027 1090 1092
f 1027 1092 1093
f 1027 1093 1094
f 1027 1094 1091
f 1028 1030 1029
f 1028 1031 1030
f 1031 1094 1032
f 1031 1091 1095
f 1031 1095 1094
f 1032 1096 1033
f 1032 1094 1096
f 1033 1096 1036
f 1034 1097 1098
f 1034 1098 1035
f 1034 1036 1096
f 1034 1096 1099
f 1034 1099 1097
f 1035 1098 1100
f 1035 1100 1037
f 1037 1100 1038
f 1038 1101 1040
f 1038 1040 1039
f 1038 1100 1101
f 1040 1102 1049
f 1040 1049 1041
f 1040 1101 1103
f 1040 1103 1102
f 1049 1102 1104
f 1049 1104 1050
f 1050 1104 1051
f 1051 1104 1147
f 1051 1147 1105
f 1051 1105 1106
f 1051 1106 1107
f 1051 1107 1052
f 1052 1107 1108
f 1052 1108 1109
f 1052 1109 1053
f 1054 1109 1108
f 1054 1108 1110
f 1054 1110 1056
f 1054 1056 1111
f 1054 1111 1055
f 1055 1111 1056
f 1056 1110 1058
f 1057 1058 1112
f 1057 1112 1065
f 1058 1110 1108
f 1058 1108 1112
f 1059 1064 1066
f 1060 1062 1113
f 1060 1113 1114
f 1060 1114 1063
f 1061 1065 1115
f 1061 1115 1116
f 1061 1116 1113
f 1061 1113 1062
f 1063 1117 1066
f 1063 1066 1064
f 1063 1114 1117
f 1065 1118 1115
f 1065 1112 1118
f 1066 1119 1067
f 1066 1117 1119
f 1067 1119 1120
f 1067 1120 1068
f 1068 1120 1070
f 1068 1070 1069
f 1070 1121 1122
f 1070 1122 1071
f 1070 1120 1123
f 1070 1123 1121
f 1071 1122 1124
f 1071 1124 1125
f 1071 1125 1126
f 1071 1126 1072
f 1072 1126 1073
f 1073 1126 1081
f 1074 1080 1127
f 1074 1127 1128
f 1074 1128 1075
f 1075 1128 1076
f 1076 1127 1129
f 1076 1129 1130
f 1076 1130 1085
f 1076 1085 1084
f 1076 1084 1083
f 1076 1128 1127
f 1080 1082 1081
f 1080 1081 1127
f 1081 1126 1131
f 1081 1131 1132
f 1081 1132 1127
f 1085 1129 1133
f 1085 1133 1134
f 1085 1134 1090
f 1085 1090 1088
f 1085 1088 1087
f 1085 1087 1086
f 1085 1130 1129
f 1088 1090 1089
f 1090 1134 1135
f 1090 1135 1092
f 1091 1094 1095
f 1092 1135 1136
f 1092 1136 1137
f 1092 1137 1093
f 1093 1137 1138
f 1093 1138 1139
f 1093 1139 1094
f 1094 1140 1096
f 1094 1139 1138
f 1094 1138 1140
f 1096 1140 1141
f 1096 1141 1099
f 1097 1142 1098
f 1097 1099 1141
f 1097 1141 1143
f 1097 1143 1144
f 1097 1144 1142
f 1098 1145 1100
f 1098 1142 1145
f 1100 1145 1146
f 1100 1146 1103
f 1100 1103 1101
f 1102 1103 1147
f 1102 1147 1104
f 1103 1146 1148
f 1103 1148 1149
f 1103 1149 1147
f 1105 1147 1150
f 1105 1150 1151
f 1105 1151 1106
f 1106 1151 1112
f 1106 1112 1108
f 1106 1108 1107
f 1112 1151 1118
f 1113 1152 1114
f 1113 1116 1153
f 1113 1153 1154
f 1113 1154 1155
f 1113 1155 1152
f 1114 1152 1156
f 1114 1156 1117
f 1115 1118 1157
f 1115 1157 1153
f 1115 1153 1116
f 1117 1156 1158
f 1117 1158 1159
f 1117 1159 1119
f 1118 1151 1150
f 1118 1150 1157
f 1119 1159 1120
f 1120 1159 1123
f 1121 1160 1124
f 1121 1124 1122
f 1121 1123 1160
f 1123 1159 1161
f 1123 1161 1162
f 1123 1162 1163
f 1123 1163 1164
f 1123 1164 1165
f 1123 1165 1160
f 1124 1160 1166
f 1124 1166 1125
f 1125 1166 1126
f 1126 1166 1167
f 1126 1167 1131
f 1127 1132 1168
f 1127 1168 1169
f 1127 1169 1129
f 1129 1169 1133
f 1131 1167 1165
f 1131 1165 1170
f 1131 1170 1132
f 1132 1169 1168
f 1132 1170 1169
f 1133 1169 1134
f 1134 1169 1135
f 1135 1169 1136
f 1136 1169 1137
f 1137 1165 1164
f 1137 1164 1171
f 1137 1171 1138
f 1137 1169 1165
f 1138 1171 1172
f 1138 1172 1173
f 1138 1173 1140
f 1140 1173 1141
f 1141 1174 1143
f 1141 1173 1174
f 1142 1144 1174
f 1142 1174 1175
f 1142 1175 1176
f 1142 1176 1145
f 1143 1174 1144
f 1145 1176 1177
f 1145 1177 1146
f 1146 1177 1148
f 1147 1149 1178
f 1147 1178 1150
f 1148 1177 1149
f 1149 1177 1150
f 1149 1150 1178
f 1150 1177 1157
f 1152 1155 1173
f 1152 1173 1156
f 1153 1157 1176
f 1153 1176 1154
f 1154 1176 1175
f 1154 1175 1155
f 1155 1175 1174
f 1155 1174 1173
f 1156 1173 1172
f 1156 1172 1158
f 1157 1177 1176
f 1158 1172 1161
f 1158 1161 1159
f 1160 1165 1166
f 1161 1172 1162
f 1162 1171 1164
f 1162 1164 1163
f 1162 1172 1171
f 1165 1167 1166
f 1165 1169 1170

