# https://github.com/mikedh/trimesh
v -0.00492726 -0.00892332 -0.00510221
v -0.00492799 -0.00895833 -0.00505457
v -0.00492799 -0.00901423 -0.00499560
v -0.00492799 -0.00912941 -0.00487463
v -0.00492799 -0.00917120 -0.00483834
v -0.00492799 -0.00920056 -0.00482019
v -0.00492799 -0.00940778 -0.00475819
v -0.00492799 -0.00941456 -0.00475744
v -0.00492726 -0.01006163 -0.00510221
v -0.00492726 -0.00607982 -0.00865119
v -0.00687117 -0.00900294 -0.00141789
v -0.00677506 -0.00915652 -0.00141789
v -0.00670569 -0.00941456 -0.00141940
v -0.00670641 -0.00941569 -0.00141789
v -0.00492799 -0.00967259 -0.00476046
v -0.00670713 -0.00967372 -0.00141789
v -0.00492799 -0.00990974 -0.00482246
v -0.00492799 -0.00998710 -0.00488899
v -0.00492799 -0.01002944 -0.00493814
v -0.00492799 -0.01006332 -0.00504777
v -0.00492799 -0.01006332 -0.00507347
v -0.00511515 -0.01006332 -0.00492604
v -0.00492726 -0.01005768 -0.00514530
v -0.00492726 -0.00595334 -0.00889918
v -0.00504867 -0.00589687 -0.00872831
v -0.00637905 -0.00438252 -0.00876687
v -0.01072503 -0.00430234 -0.00141789
v -0.00678301 -0.00993120 -0.00141789
v -0.00687912 -0.01006784 -0.00141789
v -0.00590211 -0.01006671 -0.00392501
v -0.00662331 -0.01006897 -0.00219361
v -0.00528714 -0.01004864 -0.00482927
v -0.00547792 -0.00998540 -0.00503038
v -0.00521271 -0.01001928 -0.00510221
v -0.00502410 -0.01004977 -0.00510221
v -0.00536085 -0.01006163 -0.00465764
v -0.00492726 -0.01003961 -0.00525342
v -0.00492726 -0.00596181 -0.00893849
v -0.00641591 -0.00430065 -0.00896269
v -0.00641735 -0.00430065 -0.00889918
v -0.00652503 -0.00430065 -0.00866707
v -0.01072575 -0.00430121 -0.00141940
v -0.01073081 -0.00430121 -0.00141789
v -0.00693621 -0.01006784 -0.00141789
v -0.00607410 -0.01004977 -0.00379043
v -0.00625187 -0.00998879 -0.00399835
v -0.00599027 -0.01003904 -0.00400591
v -0.00599388 -0.01000573 -0.00425617
v -0.00574168 -0.01004751 -0.00427960
v -0.00669124 -0.01006897 -0.00219361
v -0.00641952 -0.01006671 -0.00296707
v -0.00616009 -0.01006615 -0.00348271
v -0.00612757 -0.01006050 -0.00361880
v -0.00547792 -0.00997411 -0.00510221
v -0.00573590 -0.00997863 -0.00477256
v -0.00547792 -0.00994362 -0.00528820
v -0.00521993 -0.00998710 -0.00528820
v -0.00573590 -0.01001646 -0.00451398
v -0.00496195 -0.00998427 -0.00554602
v -0.00492726 -0.00998992 -0.00554375
v -0.00492726 -0.00606626 -0.00908895
v -0.00504000 -0.00589518 -0.00906022
v -0.00637110 -0.00437010 -0.00903905
v -0.00647155 -0.00430065 -0.00906703
v -0.00952544 -0.00430065 -0.00510221
v -0.01230978 -0.00430121 -0.00141789
v -0.00728380 -0.00998936 -0.00141789
v -0.00728380 -0.00998936 -0.00141940
v -0.00691309 -0.01006332 -0.00161295
v -0.00666667 -0.01006558 -0.00240153
v -0.00622874 -0.01002832 -0.00371860
v -0.00650985 -0.00996903 -0.00374053
v -0.00650985 -0.00993628 -0.00399835
v -0.00625187 -0.00995548 -0.00425617
v -0.00599388 -0.00997016 -0.00451398
v -0.00638773 -0.01006106 -0.00310997
v -0.00650985 -0.00999726 -0.00348271
v -0.00573590 -0.00993797 -0.00503038
v -0.00599388 -0.00992950 -0.00477256
v -0.00573590 -0.00988885 -0.00528820
v -0.00547792 -0.00988998 -0.00554602
v -0.00521993 -0.00994136 -0.00554602
v -0.00573590 -0.00992442 -0.00510221
v -0.00496195 -0.00993797 -0.00580384
v -0.00492726 -0.00994927 -0.00576981
v -0.00492726 -0.00608094 -0.00909273
v -0.00651057 -0.00430065 -0.00908290
v -0.00649106 -0.00430065 -0.00907685
v -0.01129447 -0.00430065 -0.00510221
v -0.01223535 -0.00451521 -0.00141789
v -0.01228016 -0.00430121 -0.00168629
v -0.01220717 -0.00451521 -0.00167722
v -0.00754179 -0.00992725 -0.00141789
v -0.00754179 -0.00992725 -0.00141940
v -0.00728380 -0.00997580 -0.00167722
v -0.00728380 -0.00996169 -0.00193579
v -0.00702582 -0.01001985 -0.00193579
v -0.00675916 -0.01004017 -0.00247336
v -0.00676784 -0.01001928 -0.00270925
v -0.00654815 -0.01004130 -0.00296707
v -0.00702582 -0.01000347 -0.00219361
v -0.00676784 -0.00994249 -0.00348271
v -0.00676784 -0.00986852 -0.00399835
v -0.00650985 -0.00989450 -0.00425617
v -0.00625187 -0.00991652 -0.00451398
v -0.00676784 -0.00990974 -0.00374053
v -0.00676784 -0.00997072 -0.00322489
v -0.00676784 -0.00999670 -0.00296707
v -0.00599388 -0.00987869 -0.00503038
v -0.00598304 -0.00982561 -0.00527081
v -0.00588982 -0.00980924 -0.00544470
v -0.00572651 -0.00983013 -0.00553694
v -0.00599099 -0.00986288 -0.00510221
v -0.00546563 -0.00982843 -0.00579325
v -0.00521993 -0.00988603 -0.00580384
v -0.00492726 -0.00994305 -0.00580384
v -0.00496195 -0.00987756 -0.00606166
v -0.00492726 -0.00988433 -0.00606166
v -0.00492726 -0.00631753 -0.00913583
v -0.00672375 -0.00430065 -0.00913583
v -0.01129447 -0.00430121 -0.00510221
v -0.01142744 -0.00430121 -0.00481188
v -0.01150115 -0.00430121 -0.00464856
v -0.01152283 -0.00430121 -0.00460018
v -0.01153872 -0.00430121 -0.00455784
v -0.01156763 -0.00430121 -0.00447618
v -0.01162833 -0.00430121 -0.00430153
v -0.01178659 -0.00430121 -0.00383957
v -0.01180466 -0.00430121 -0.00378514
v -0.01188921 -0.00430121 -0.00352807
v -0.01190438 -0.00430121 -0.00347968
v -0.01197954 -0.00430121 -0.00321204
v -0.01203518 -0.00430121 -0.00297992
v -0.01203807 -0.00430121 -0.00296707
v -0.01219272 -0.00430121 -0.00224578
v -0.01220283 -0.00430121 -0.00219664
v -0.01224980 -0.00430121 -0.00192596
v -0.01124389 -0.00430065 -0.00521259
v -0.01213201 -0.00477325 -0.00141940
v -0.01213201 -0.00477325 -0.00141789
v -0.01217537 -0.00451521 -0.00193579
v -0.01209010 -0.00472751 -0.00193579
v -0.01209805 -0.00478906 -0.00166588
v -0.00756130 -0.00992103 -0.00141789
v -0.00754179 -0.00990974 -0.00167722
v -0.00728380 -0.00994588 -0.00219361
v -0.00702582 -0.00996338 -0.00270925
v -0.00702582 -0.00998371 -0.00245143
v -0.00702582 -0.00994080 -0.00296707
v -0.00702582 -0.00991031 -0.00322489
v -0.00693404 -0.00981488 -0.00399835
v -0.00689791 -0.00980190 -0.00412839
v -0.00676061 -0.00982448 -0.00423122
v -0.00652069 -0.00984142 -0.00451550
v -0.00702582 -0.00987304 -0.00348271
v -0.00703015 -0.00983239 -0.00372238
v -0.00627644 -0.00985384 -0.00479600
v -0.00623308 -0.00975051 -0.00527081
v -0.00606181 -0.00978326 -0.00534415
v -0.00616371 -0.00981432 -0.00510221
v -0.00598304 -0.00975729 -0.00553694
v -0.00580672 -0.00978609 -0.00561633
v -0.00563473 -0.00980924 -0.00570101
v -0.00619333 -0.00982279 -0.00503038
v -0.00546563 -0.00975503 -0.00604880
v -0.00537169 -0.00980754 -0.00595429
v -0.00520259 -0.00982505 -0.00604880
v -0.00510431 -0.00980528 -0.00620153
v -0.00496195 -0.00982222 -0.00625521
v -0.00492726 -0.00982618 -0.00626655
v -0.00492726 -0.00635479 -0.00914188
v -0.00676784 -0.00430065 -0.00913961
v -0.01128074 -0.00433566 -0.00510221
v -0.01135156 -0.00452368 -0.00478239
v -0.01151777 -0.00433001 -0.00458657
v -0.01154956 -0.00441075 -0.00441418
v -0.01178009 -0.00433735 -0.00382143
v -0.01180972 -0.00441640 -0.00364904
v -0.01183284 -0.00450787 -0.00346683
v -0.01189860 -0.00451521 -0.00322489
v -0.01203301 -0.00431646 -0.00296707
v -0.01204963 -0.00436953 -0.00281434
v -0.01206842 -0.00442092 -0.00264196
v -0.01211395 -0.00453892 -0.00221554
v -0.01106612 -0.00430065 -0.00559138
v -0.01101264 -0.00436106 -0.00565187
v -0.01125689 -0.00439325 -0.00510221
v -0.01201133 -0.00505726 -0.00141789
v -0.01207276 -0.00468573 -0.00214447
v -0.01203590 -0.00485681 -0.00193579
v -0.01204747 -0.00488561 -0.00174375
v -0.01180249 -0.00543105 -0.00184733
v -0.01181261 -0.00545420 -0.00167722
v -0.00781422 -0.00983916 -0.00141789
v -0.00776508 -0.00983747 -0.00167722
v -0.00754179 -0.00989111 -0.00193579
v -0.00754179 -0.00987078 -0.00219361
v -0.00728380 -0.00992273 -0.00245143
v -0.00728380 -0.00989563 -0.00270925
v -0.00728380 -0.00986683 -0.00296707
v -0.00728742 -0.00983182 -0.00320296
v -0.00706412 -0.00977084 -0.00399835
v -0.00700053 -0.00974543 -0.00423122
v -0.00676061 -0.00976294 -0.00451550
v -0.00661247 -0.00979286 -0.00460320
v -0.00666956 -0.00981150 -0.00443082
v -0.00644048 -0.00982109 -0.00472568
v -0.00711759 -0.00978891 -0.00379648
v -0.00719709 -0.00981601 -0.00348271
v -0.00637833 -0.00980077 -0.00489731
v -0.00625187 -0.00967147 -0.00554602
v -0.00629595 -0.00977423 -0.00510221
v -0.00650985 -0.00972680 -0.00503038
v -0.00651057 -0.00970760 -0.00510221
v -0.00599388 -0.00967881 -0.00580384
v -0.00572651 -0.00975785 -0.00579325
v -0.00573590 -0.00967485 -0.00606166
v -0.00547792 -0.00966977 -0.00631948
v -0.00527702 -0.00978326 -0.00612592
v -0.00520259 -0.00974995 -0.00630057
v -0.00496195 -0.00972002 -0.00657805
v -0.00492726 -0.00972793 -0.00657881
v -0.00492726 -0.00978552 -0.00639659
v -0.00492726 -0.00764386 -0.00914188
v -0.00676784 -0.00451465 -0.00914188
v -0.00698246 -0.00430065 -0.00914188
v -0.01113910 -0.00503129 -0.00477256
v -0.01130892 -0.00471001 -0.00470300
v -0.01120053 -0.00452594 -0.00510221
v -0.01102348 -0.00516059 -0.00490185
v -0.01127207 -0.00488166 -0.00462059
v -0.01147586 -0.00450392 -0.00450642
v -0.01130387 -0.00495619 -0.00444821
v -0.01126773 -0.00512784 -0.00434538
v -0.01174106 -0.00450787 -0.00373750
v -0.01180249 -0.00465750 -0.00337005
v -0.01182128 -0.00470097 -0.00322489
v -0.01195786 -0.00451521 -0.00296707
v -0.01205325 -0.00464056 -0.00231610
v -0.01102493 -0.00430065 -0.00567757
v -0.01095627 -0.00430065 -0.00580989
v -0.01079585 -0.00477325 -0.00573277
v -0.01076694 -0.00490594 -0.00567909
v -0.01079512 -0.00500757 -0.00552712
v -0.01182706 -0.00548808 -0.00141940
v -0.01182706 -0.00548695 -0.00141789
v -0.01179020 -0.00540338 -0.00201896
v -0.01202000 -0.00477268 -0.00221554
v -0.01177286 -0.00536216 -0.00219361
v -0.01175696 -0.00558294 -0.00167722
v -0.01174757 -0.00552930 -0.00193428
v -0.00803535 -0.00975390 -0.00141789
v -0.00791467 -0.00979625 -0.00147610
v -0.00805703 -0.00972454 -0.00167722
v -0.00783229 -0.00976463 -0.00219361
v -0.00773329 -0.00982561 -0.00193579
v -0.00770221 -0.00981319 -0.00219361
v -0.00768126 -0.00980528 -0.00235163
v -0.00755479 -0.00983916 -0.00244311
v -0.00748759 -0.00982900 -0.00270925
v -0.00741605 -0.00980246 -0.00310241
v -0.00737630 -0.00978891 -0.00327403
v -0.00728380 -0.00969292 -0.00399835
v -0.00728380 -0.00963759 -0.00425617
v -0.00702582 -0.00967259 -0.00451398
v -0.00676784 -0.00970421 -0.00477256
v -0.00652069 -0.00977931 -0.00479600
v -0.00732572 -0.00977084 -0.00348271
v -0.00726140 -0.00975108 -0.00372238
v -0.00651057 -0.00965735 -0.00528820
v -0.00650552 -0.00958395 -0.00553543
v -0.00625331 -0.00959185 -0.00580308
v -0.00676784 -0.00963985 -0.00503038
v -0.00616876 -0.00956306 -0.00597773
v -0.00599388 -0.00959242 -0.00606317
v -0.00573301 -0.00958959 -0.00631796
v -0.00564413 -0.00955910 -0.00648354
v -0.00546636 -0.00958282 -0.00657276
v -0.00521993 -0.00965396 -0.00657805
v -0.00492726 -0.00963081 -0.00685401
v -0.00521993 -0.00760941 -0.00913961
v -0.00547792 -0.00735138 -0.00914188
v -0.00492726 -0.00786689 -0.00912827
v -0.00801367 -0.00430065 -0.00914188
v -0.01104950 -0.00526335 -0.00474988
v -0.01077056 -0.00517132 -0.00542883
v -0.01102565 -0.00542314 -0.00464856
v -0.01113549 -0.00528933 -0.00451398
v -0.01122943 -0.00528537 -0.00425768
v -0.01125978 -0.00536894 -0.00406639
v -0.01140576 -0.00528933 -0.00374053
v -0.01172806 -0.00475574 -0.00346683
v -0.01152066 -0.00537459 -0.00327781
v -0.01155679 -0.00520294 -0.00340710
v -0.01154162 -0.00542371 -0.00310619
v -0.01178659 -0.00487827 -0.00305099
v -0.01184585 -0.00478454 -0.00296631
v -0.01094038 -0.00430065 -0.00583862
v -0.01075827 -0.00462757 -0.00592027
v -0.01072720 -0.00477325 -0.00586205
v -0.01072936 -0.00507815 -0.00560045
v -0.01066866 -0.00500757 -0.00578040
v -0.01176997 -0.00561681 -0.00141789
v -0.01169265 -0.00554736 -0.00219361
v -0.01182561 -0.00496805 -0.00270925
v -0.01180827 -0.00518600 -0.00237204
v -0.01164784 -0.00580484 -0.00167722
v -0.01167747 -0.00580484 -0.00141940
v -0.01160232 -0.00582629 -0.00194562
v -0.01158786 -0.00576644 -0.00219361
v -0.00831501 -0.00963702 -0.00141789
v -0.00805703 -0.00970083 -0.00193579
v -0.00805703 -0.00967485 -0.00219361
v -0.00778026 -0.00975616 -0.00244311
v -0.00765018 -0.00979399 -0.00252326
v -0.00756997 -0.00976407 -0.00296707
v -0.00751794 -0.00974938 -0.00320296
v -0.00754179 -0.00969349 -0.00348271
v -0.00754179 -0.00964210 -0.00374053
v -0.00754757 -0.00958733 -0.00398322
v -0.00745507 -0.00956475 -0.00425617
v -0.00741821 -0.00954612 -0.00439301
v -0.00727874 -0.00957830 -0.00449281
v -0.00703883 -0.00960032 -0.00477785
v -0.00675483 -0.00957378 -0.00526778
v -0.00676422 -0.00962008 -0.00510221
v -0.00641519 -0.00955967 -0.00571613
v -0.00694994 -0.00956814 -0.00503038
v -0.00683865 -0.00959185 -0.00510221
v -0.00607988 -0.00952692 -0.00615012
v -0.00590717 -0.00956080 -0.00623102
v -0.00634075 -0.00952748 -0.00588852
v -0.00663776 -0.00928525 -0.00618943
v -0.00646505 -0.00932083 -0.00627335
v -0.00594185 -0.00931631 -0.00677992
v -0.00584863 -0.00927961 -0.00695155
v -0.00554440 -0.00952240 -0.00665593
v -0.00537241 -0.00955233 -0.00672397
v -0.00521993 -0.00957661 -0.00678068
v -0.00498435 -0.00961387 -0.00685855
v -0.00492726 -0.00957943 -0.00698935
v -0.00651057 -0.00657839 -0.00913432
v -0.00496195 -0.00786689 -0.00912676
v -0.00573590 -0.00735138 -0.00911995
v -0.00599388 -0.00709447 -0.00912978
v -0.00599388 -0.00683643 -0.00914188
v -0.00492726 -0.00790641 -0.00912146
v -0.00779977 -0.00477325 -0.00914188
v -0.00805775 -0.00451465 -0.00913734
v -0.00805775 -0.00430065 -0.00914036
v -0.01054365 -0.00526787 -0.00578418
v -0.01067228 -0.00526956 -0.00552712
v -0.01076839 -0.00542484 -0.00516798
v -0.01078501 -0.00545420 -0.00510221
v -0.01066433 -0.00552534 -0.00526778
v -0.01080669 -0.00575063 -0.00472720
v -0.01075899 -0.00592228 -0.00462739
v -0.01098084 -0.00559988 -0.00451398
v -0.01105094 -0.00547114 -0.00451398
v -0.01128941 -0.00543557 -0.00389401
v -0.01149175 -0.00528876 -0.00348876
v -0.01147007 -0.00552421 -0.00320523
v -0.01136023 -0.00556769 -0.00350085
v -0.01130748 -0.00572409 -0.00342752
v -0.01149826 -0.00558802 -0.00296707
v -0.01152210 -0.00563884 -0.00276596
v -0.01082259 -0.00430065 -0.00604502
v -0.01079512 -0.00445536 -0.00598227
v -0.01059640 -0.00478454 -0.00607753
v -0.01054220 -0.00503072 -0.00599134
v -0.01051185 -0.00516906 -0.00594068
v -0.01167747 -0.00580484 -0.00141789
v -0.01154162 -0.00568175 -0.00259357
v -0.01154740 -0.00594938 -0.00186623
v -0.01155968 -0.00597084 -0.00167722
v -0.01157486 -0.00599794 -0.00141940
v -0.01153511 -0.00592680 -0.00203862
v -0.01151777 -0.00589574 -0.00219361
v -0.00847616 -0.00956080 -0.00141789
v -0.00845954 -0.00955176 -0.00160917
v -0.00833669 -0.00960089 -0.00168856
v -0.00829117 -0.00959693 -0.00193579
v -0.00826009 -0.00958338 -0.00219361
v -0.00805703 -0.00964323 -0.00245143
v -0.00779977 -0.00971325 -0.00270925
v -0.00779977 -0.00967598 -0.00296707
v -0.00779977 -0.00963476 -0.00322489
v -0.00780555 -0.00958733 -0.00346532
v -0.00771667 -0.00956644 -0.00374053
v -0.00767981 -0.00954837 -0.00388720
v -0.00763645 -0.00952579 -0.00405959
v -0.00758514 -0.00950038 -0.00425617
v -0.00718914 -0.00956023 -0.00469544
v -0.00793201 -0.00928751 -0.00439075
v -0.00779760 -0.00932591 -0.00449130
v -0.00771016 -0.00930502 -0.00470451
v -0.00765524 -0.00927735 -0.00487690
v -0.00735245 -0.00935245 -0.00510221
v -0.00698680 -0.00952861 -0.00510221
v -0.00666016 -0.00955346 -0.00544168
v -0.00690369 -0.00954725 -0.00516798
v -0.00650552 -0.00948796 -0.00580308
v -0.00692537 -0.00955741 -0.00510221
v -0.00627499 -0.00936769 -0.00634367
v -0.00620562 -0.00931857 -0.00652588
v -0.00695789 -0.00906561 -0.00626353
v -0.00688490 -0.00902100 -0.00643591
v -0.00671291 -0.00906956 -0.00651983
v -0.00653442 -0.00925759 -0.00634367
v -0.00637689 -0.00928412 -0.00644498
v -0.00671002 -0.00931744 -0.00601705
v -0.00695428 -0.00931123 -0.00574260
v -0.00688201 -0.00927848 -0.00591498
v -0.00678446 -0.00925194 -0.00608661
v -0.00611384 -0.00928187 -0.00669826
v -0.00601484 -0.00924968 -0.00685326
v -0.00618828 -0.00906392 -0.00702640
v -0.00600256 -0.00911473 -0.00710503
v -0.00575252 -0.00923726 -0.00709974
v -0.00556247 -0.00926888 -0.00718895
v -0.00567664 -0.00931010 -0.00701733
v -0.00547647 -0.00934172 -0.00709974
v -0.00508480 -0.00954216 -0.00695986
v -0.00492726 -0.00956814 -0.00701808
v -0.00676784 -0.00632035 -0.00913432
v -0.00728380 -0.00554680 -0.00914188
v -0.00651057 -0.00632035 -0.00914188
v -0.00677000 -0.00658121 -0.00908442
v -0.00521632 -0.00787366 -0.00908290
v -0.00549887 -0.00763031 -0.00909424
v -0.00597726 -0.00734404 -0.00906929
v -0.00624753 -0.00709334 -0.00907912
v -0.00650985 -0.00683699 -0.00908290
v -0.00492726 -0.00807976 -0.00907232
v -0.00754179 -0.00528820 -0.00914036
v -0.00779977 -0.00503072 -0.00913054
v -0.00827093 -0.00430065 -0.00912071
v -0.01046488 -0.00534071 -0.00585676
v -0.01051185 -0.00542710 -0.00568438
v -0.01046488 -0.00559931 -0.00558911
v -0.01046705 -0.00607756 -0.00505004
v -0.01053859 -0.00624977 -0.00470905
v -0.01049162 -0.00642199 -0.00460471
v -0.01057689 -0.00632995 -0.00451701
v -0.01079223 -0.00598270 -0.00445577
v -0.01101192 -0.00565521 -0.00435370
v -0.01109430 -0.00556035 -0.00426297
v -0.01127641 -0.00566707 -0.00359914
v -0.01132627 -0.00580766 -0.00320221
v -0.01104299 -0.00571167 -0.00418207
v -0.01096061 -0.00631358 -0.00348573
v -0.01104010 -0.00622323 -0.00340181
v -0.01125978 -0.00589574 -0.00327177
v -0.01138552 -0.00580484 -0.00296707
v -0.01081030 -0.00430065 -0.00606544
v -0.01071925 -0.00430065 -0.00621589
v -0.01030517 -0.00475913 -0.00657578
v -0.01021990 -0.00483536 -0.00666046
v -0.00999588 -0.00491045 -0.00697121
v -0.01028494 -0.00522552 -0.00624765
v -0.00977403 -0.00554680 -0.00677085
v -0.01020473 -0.00556826 -0.00607678
v -0.01002551 -0.00599569 -0.00598681
v -0.01024519 -0.00566820 -0.00592556
v -0.01157413 -0.00599907 -0.00141789
v -0.01122582 -0.00631019 -0.00246202
v -0.01128074 -0.00644909 -0.00180348
v -0.01130387 -0.00648861 -0.00141789
v -0.01114055 -0.00657839 -0.00219361
v -0.01118969 -0.00657839 -0.00193579
v -0.01127135 -0.00643158 -0.00193579
v -0.01100830 -0.00668059 -0.00251721
v -0.00885555 -0.00934285 -0.00141789
v -0.00860335 -0.00948796 -0.00141940
v -0.00895239 -0.00928187 -0.00149803
v -0.00880641 -0.00934567 -0.00167722
v -0.00870018 -0.00928525 -0.00257921
v -0.00838945 -0.00951280 -0.00219361
v -0.00822613 -0.00956588 -0.00245143
v -0.00820156 -0.00955176 -0.00262003
v -0.00807221 -0.00959693 -0.00270774
v -0.00800861 -0.00958508 -0.00296707
v -0.00796092 -0.00956136 -0.00322489
v -0.00793563 -0.00954725 -0.00336854
v -0.00784674 -0.00950095 -0.00374053
v -0.00789444 -0.00952635 -0.00354017
v -0.00779977 -0.00939084 -0.00425617
v -0.00803391 -0.00918644 -0.00449130
v -0.00788215 -0.00925985 -0.00456237
v -0.00819000 -0.00928751 -0.00387586
v -0.00814592 -0.00926210 -0.00404825
v -0.00809389 -0.00922710 -0.00425617
v -0.00779760 -0.00922710 -0.00478315
v -0.00758081 -0.00923161 -0.00510221
v -0.00736691 -0.00926154 -0.00535020
v -0.00742472 -0.00929259 -0.00517932
v -0.00728163 -0.00932986 -0.00527459
v -0.00719564 -0.00930502 -0.00546814
v -0.00703449 -0.00934680 -0.00555131
v -0.00703666 -0.00897922 -0.00633762
v -0.00703666 -0.00911530 -0.00606997
v -0.00720214 -0.00905714 -0.00598907
v -0.00719492 -0.00879628 -0.00649715
v -0.00703088 -0.00885161 -0.00658032
v -0.00694777 -0.00880023 -0.00675573
v -0.00678662 -0.00898543 -0.00659468
v -0.00662403 -0.00901988 -0.00669222
v -0.00645132 -0.00906674 -0.00677312
v -0.00652647 -0.00912659 -0.00659468
v -0.00627499 -0.00925420 -0.00659846
v -0.00712554 -0.00927170 -0.00564053
v -0.00703449 -0.00923839 -0.00581896
v -0.00626560 -0.00912151 -0.00685023
v -0.00636099 -0.00901705 -0.00694550
v -0.00626560 -0.00897640 -0.00710503
v -0.00609433 -0.00901423 -0.00719803
v -0.00592234 -0.00905658 -0.00726683
v -0.00572867 -0.00909497 -0.00735226
v -0.00547647 -0.00921411 -0.00734319
v -0.00527413 -0.00925533 -0.00742333
v -0.00510214 -0.00928977 -0.00748836
v -0.00498435 -0.00950998 -0.00710352
v -0.00492726 -0.00955797 -0.00704076
v -0.00702582 -0.00606288 -0.00912902
v -0.00702654 -0.00631640 -0.00908064
v -0.00668545 -0.00675173 -0.00905569
v -0.00694055 -0.00649652 -0.00905644
v -0.00496195 -0.00806959 -0.00906929
v -0.00542589 -0.00779236 -0.00906325
v -0.00615937 -0.00725313 -0.00904964
v -0.00642386 -0.00700638 -0.00905417
v -0.00492726 -0.00811025 -0.00905795
v -0.00728380 -0.00580427 -0.00912297
v -0.00780844 -0.00528989 -0.00908668
v -0.00801512 -0.00503072 -0.00907383
v -0.00808232 -0.00479696 -0.00909349
v -0.00831574 -0.00430065 -0.00910937
v -0.01008188 -0.00607417 -0.00581593
v -0.01024519 -0.00592680 -0.00566699
v -0.01034130 -0.00607869 -0.00530332
v -0.01024014 -0.00617580 -0.00539858
v -0.01023074 -0.00642029 -0.00512564
v -0.01027554 -0.00648861 -0.00495250
v -0.01031457 -0.00657613 -0.00476046
v -0.01026181 -0.00672576 -0.00466747
v -0.01043091 -0.00656992 -0.00451701
v -0.01052486 -0.00647845 -0.00443309
v -0.01028277 -0.00624864 -0.00522771
v -0.01069034 -0.00630623 -0.00424785
v -0.01099457 -0.00639771 -0.00322489
v -0.01128146 -0.00593527 -0.00310014
v -0.01075899 -0.00643892 -0.00385318
v -0.01081825 -0.00657952 -0.00346910
v -0.01077272 -0.00671898 -0.00337459
v -0.01101481 -0.00643497 -0.00306233
v -0.01031384 -0.00430065 -0.00688350
v -0.01025748 -0.00466371 -0.00672095
v -0.01015631 -0.00475913 -0.00681848
v -0.01024158 -0.00436897 -0.00695306
v -0.01002551 -0.00477325 -0.00701279
v -0.00996914 -0.00459256 -0.00719349
v -0.00973139 -0.00464056 -0.00747853
v -0.00949364 -0.00467895 -0.00776205
v -0.00975669 -0.00494433 -0.00725171
v -0.00985208 -0.00501378 -0.00708235
v -0.00944234 -0.00561569 -0.00718064
v -0.00972923 -0.00541016 -0.00695835
v -0.01000311 -0.00518204 -0.00672624
v -0.00969093 -0.00554680 -0.00689938
v -0.00973645 -0.00568175 -0.00671187
v -0.00997709 -0.00616790 -0.00590969
v -0.00968804 -0.00585340 -0.00663778
v -0.00974368 -0.00595108 -0.00646540
v -0.01122943 -0.00656314 -0.00170141
v -0.01123160 -0.00661848 -0.00141940
v -0.01123160 -0.00661848 -0.00141789
v -0.01104588 -0.00674609 -0.00219361
v -0.01102854 -0.00671616 -0.00234483
v -0.01106973 -0.00678674 -0.00193579
v -0.01108780 -0.00681497 -0.00167722
v -0.01096278 -0.00656597 -0.00297236
v -0.01089340 -0.00657839 -0.00322489
v -0.01079296 -0.00675004 -0.00322489
v -0.00906006 -0.00920959 -0.00141789
v -0.00908824 -0.00915878 -0.00167722
v -0.00893504 -0.00927114 -0.00167722
v -0.00906729 -0.00920451 -0.00141789
v -0.00925951 -0.00905996 -0.00141789
v -0.00883026 -0.00916273 -0.00270925
v -0.00867706 -0.00927170 -0.00270925
v -0.00843714 -0.00928130 -0.00333376
v -0.00855060 -0.00934341 -0.00270925
v -0.00835620 -0.00949473 -0.00245143
v -0.00890469 -0.00925081 -0.00193579
v -0.00881581 -0.00922032 -0.00247638
v -0.00902031 -0.00907521 -0.00245143
v -0.00809027 -0.00949191 -0.00322489
v -0.00827960 -0.00933551 -0.00348271
v -0.00803607 -0.00947045 -0.00346532
v -0.00822179 -0.00930502 -0.00374053
v -0.00805703 -0.00939141 -0.00374053
v -0.00822035 -0.00905206 -0.00451398
v -0.00818783 -0.00902834 -0.00464554
v -0.00805197 -0.00907803 -0.00474761
v -0.00840823 -0.00926436 -0.00348271
v -0.00835115 -0.00922710 -0.00374053
v -0.00829189 -0.00918814 -0.00397642
v -0.00831574 -0.00908481 -0.00423197
v -0.00778893 -0.00910062 -0.00510221
v -0.00752300 -0.00919604 -0.00527459
v -0.00753528 -0.00908029 -0.00552636
v -0.00728163 -0.00922371 -0.00555131
v -0.00737413 -0.00900463 -0.00588625
v -0.00728597 -0.00896398 -0.00606997
v -0.00768487 -0.00877934 -0.00594900
v -0.00728597 -0.00910062 -0.00580157
v -0.00744495 -0.00904867 -0.00571462
v -0.00711976 -0.00874603 -0.00666878
v -0.00685817 -0.00874433 -0.00692811
v -0.00668618 -0.00879741 -0.00700901
v -0.00677000 -0.00885161 -0.00683965
v -0.00652647 -0.00898148 -0.00685023
v -0.00650985 -0.00884653 -0.00709444
v -0.00642313 -0.00879459 -0.00726154
v -0.00624609 -0.00883919 -0.00734924
v -0.00615648 -0.00878837 -0.00750575
v -0.00600256 -0.00896285 -0.00735226
v -0.00597293 -0.00881943 -0.00759874
v -0.00572867 -0.00893857 -0.00759723
v -0.00545262 -0.00907013 -0.00759723
v -0.00520042 -0.00918870 -0.00758816
v -0.00496195 -0.00924347 -0.00766301
v -0.00492726 -0.00924968 -0.00767435
v -0.00496195 -0.00931292 -0.00753372
v -0.00496195 -0.00940157 -0.00735151
v -0.00492726 -0.00951675 -0.00712998
v -0.00727730 -0.00604989 -0.00907156
v -0.00685744 -0.00666873 -0.00899671
v -0.00711254 -0.00639996 -0.00899066
v -0.00718625 -0.00622832 -0.00904964
v -0.00512744 -0.00801934 -0.00904586
v -0.00559788 -0.00772968 -0.00902242
v -0.00588043 -0.00749253 -0.00903678
v -0.00605242 -0.00742534 -0.00897857
v -0.00633136 -0.00717860 -0.00898991
v -0.00659585 -0.00692395 -0.00899293
v -0.00492726 -0.00820849 -0.00898537
v -0.00748903 -0.00580427 -0.00906627
v -0.00756636 -0.00557108 -0.00909500
v -0.00772823 -0.00550106 -0.00906476
v -0.00796020 -0.00520463 -0.00905115
v -0.00823263 -0.00472751 -0.00906098
v -0.00845737 -0.00430065 -0.00906325
v -0.00831646 -0.00449714 -0.00907459
v -0.01002551 -0.00624469 -0.00573806
v -0.01021051 -0.00607869 -0.00556719
v -0.00996914 -0.00641690 -0.00563221
v -0.01013824 -0.00657500 -0.00510221
v -0.01005080 -0.00657274 -0.00527232
v -0.00988243 -0.00694484 -0.00510221
v -0.00978704 -0.00722490 -0.00491319
v -0.00986075 -0.00722490 -0.00477180
v -0.00973862 -0.00748802 -0.00465461
v -0.00997059 -0.00719271 -0.00459413
v -0.01006887 -0.00710237 -0.00451096
v -0.01029433 -0.00677319 -0.00451398
v -0.01047499 -0.00665913 -0.00425617
v -0.01033986 -0.00685224 -0.00426373
v -0.01066866 -0.00681779 -0.00346910
v -0.01025025 -0.00748237 -0.00335720
v -0.01070479 -0.00687934 -0.00322489
v -0.01025603 -0.00430065 -0.00697347
v -0.01019894 -0.00430065 -0.00705210
v -0.01016859 -0.00430065 -0.00709369
v -0.01003129 -0.00430065 -0.00727514
v -0.00970610 -0.00430065 -0.00770232
v -0.00946546 -0.00436276 -0.00798358
v -0.00943078 -0.00451465 -0.00794049
v -0.00925373 -0.00471001 -0.00803726
v -0.00934984 -0.00478059 -0.00787244
v -0.00970899 -0.00511655 -0.00719273
v -0.00920603 -0.00488166 -0.00798282
v -0.00924939 -0.00547509 -0.00752011
v -0.00950882 -0.00573539 -0.00700901
v -0.00920025 -0.00564730 -0.00746038
v -0.00945824 -0.00590704 -0.00694096
v -0.00959843 -0.00579411 -0.00682680
v -0.00979210 -0.00630680 -0.00604729
v -0.00974585 -0.00646772 -0.00595127
v -0.00992506 -0.00632656 -0.00581593
v -0.00951605 -0.00599512 -0.00676934
v -0.00974729 -0.00621194 -0.00621136
v -0.01108418 -0.00687200 -0.00141789
v -0.01096495 -0.00687539 -0.00219361
v -0.01099096 -0.00691604 -0.00193579
v -0.01082475 -0.00679916 -0.00296707
v -0.01100903 -0.00694427 -0.00167722
v -0.01101914 -0.00695952 -0.00151920
v -0.01073948 -0.00692790 -0.00296707
v -0.00923855 -0.00904415 -0.00167722
v -0.00922193 -0.00903230 -0.00183070
v -0.00910486 -0.00910570 -0.00192370
v -0.00938669 -0.00895833 -0.00141789
v -0.00938669 -0.00895833 -0.00141940
v -0.00936718 -0.00894309 -0.00167722
v -0.00898563 -0.00904811 -0.00270925
v -0.00896322 -0.00903117 -0.00285064
v -0.00883965 -0.00909667 -0.00294892
v -0.00863081 -0.00924008 -0.00296707
v -0.00914894 -0.00897527 -0.00245143
v -0.00911353 -0.00894930 -0.00270925
v -0.00932382 -0.00893687 -0.00192370
v -0.00847978 -0.00905262 -0.00399835
v -0.00852675 -0.00883129 -0.00451398
v -0.00847689 -0.00879515 -0.00470981
v -0.00843353 -0.00876127 -0.00488219
v -0.00813363 -0.00899334 -0.00481717
v -0.00857083 -0.00889678 -0.00424936
v -0.00796236 -0.00905037 -0.00495250
v -0.00859684 -0.00912603 -0.00350237
v -0.00853976 -0.00909780 -0.00374053
v -0.00794358 -0.00899842 -0.00510221
v -0.00772317 -0.00906335 -0.00528820
v -0.00767764 -0.00903286 -0.00542731
v -0.00761694 -0.00899503 -0.00559894
v -0.00753528 -0.00894817 -0.00580157
v -0.00773979 -0.00881661 -0.00580384
v -0.00792117 -0.00876353 -0.00566321
v -0.00786842 -0.00872175 -0.00580384
v -0.00796020 -0.00853994 -0.00597320
v -0.00778749 -0.00863197 -0.00604729
v -0.00736691 -0.00873473 -0.00639508
v -0.00729826 -0.00865399 -0.00659544
v -0.00740232 -0.00850323 -0.00669373
v -0.00723033 -0.00857438 -0.00678975
v -0.00715228 -0.00851001 -0.00696213
v -0.00705039 -0.00865907 -0.00685931
v -0.00659512 -0.00874038 -0.00718064
v -0.00698029 -0.00857268 -0.00704379
v -0.00671797 -0.00856873 -0.00729631
v -0.00632847 -0.00873643 -0.00743392
v -0.00625404 -0.00864213 -0.00761008
v -0.00604447 -0.00872005 -0.00767813
v -0.00587248 -0.00877426 -0.00774391
v -0.00552200 -0.00898769 -0.00767435
v -0.00534929 -0.00902834 -0.00773861
v -0.00521993 -0.00905940 -0.00778322
v -0.00496050 -0.00910683 -0.00787698
v -0.00492726 -0.00912095 -0.00787471
v -0.00492726 -0.00931744 -0.00754582
v -0.00492726 -0.00933607 -0.00750801
v -0.00492726 -0.00941286 -0.00735000
v -0.00492726 -0.00942754 -0.00731975
v -0.00743122 -0.00595503 -0.00904132
v -0.00651852 -0.00710294 -0.00890598
v -0.00670352 -0.00702727 -0.00882130
v -0.00715445 -0.00696517 -0.00851207
v -0.00743122 -0.00698493 -0.00827013
v -0.00713566 -0.00668680 -0.00875401
v -0.00703810 -0.00659194 -0.00890750
v -0.00735823 -0.00612725 -0.00898008
v -0.00730910 -0.00660775 -0.00866253
v -0.00529942 -0.00796457 -0.00899898
v -0.00549887 -0.00787366 -0.00895740
v -0.00561305 -0.00800071 -0.00877443
v -0.00571422 -0.00785560 -0.00883340
v -0.00589416 -0.00776187 -0.00879106
v -0.00617382 -0.00752077 -0.00880694
v -0.00634581 -0.00745019 -0.00874419
v -0.00625187 -0.00735138 -0.00889842
v -0.00664715 -0.00774549 -0.00826030
v -0.00663053 -0.00747277 -0.00850602
v -0.00492726 -0.00833497 -0.00885608
v -0.00513611 -0.00827794 -0.00879560
v -0.00530810 -0.00822939 -0.00874570
v -0.00521777 -0.00812436 -0.00889691
v -0.00766753 -0.00567271 -0.00902620
v -0.00790022 -0.00537628 -0.00900125
v -0.00806137 -0.00529384 -0.00890220
v -0.00814302 -0.00503072 -0.00898764
v -0.00818422 -0.00489916 -0.00902620
v -0.00845159 -0.00439946 -0.00903451
v -0.00847761 -0.00430065 -0.00905266
v -0.00973718 -0.00671334 -0.00568211
v -0.00990700 -0.00657274 -0.00554602
v -0.00972128 -0.00717690 -0.00510221
v -0.00967069 -0.00709898 -0.00530181
v -0.00947197 -0.00747616 -0.00515362
v -0.00944234 -0.00754787 -0.00510221
v -0.00944956 -0.00770710 -0.00485497
v -0.00949726 -0.00776469 -0.00468259
v -0.00953773 -0.00781494 -0.00451398
v -0.00966636 -0.00765684 -0.00451398
v -0.00976897 -0.00752811 -0.00451398
v -0.00990411 -0.00733839 -0.00451096
v -0.00995614 -0.00722490 -0.00457598
v -0.00954857 -0.00709503 -0.00553846
v -0.00944451 -0.00718142 -0.00562011
v -0.00949148 -0.00724353 -0.00544773
v -0.01002768 -0.00722490 -0.00440284
v -0.01023724 -0.00694879 -0.00435521
v -0.01003852 -0.00729096 -0.00425617
v -0.01004936 -0.00781607 -0.00322489
v -0.01017799 -0.00763765 -0.00322489
v -0.01026832 -0.00750891 -0.00322489
v -0.01046560 -0.00722490 -0.00322489
v -0.00994891 -0.00741970 -0.00425617
v -0.01011801 -0.00760603 -0.00347666
v -0.01001756 -0.00777316 -0.00342373
v -0.01050101 -0.00722490 -0.00309485
v -0.00954279 -0.00430065 -0.00791629
v -0.00947847 -0.00430065 -0.00799946
v -0.00941488 -0.00430065 -0.00807280
v -0.00921760 -0.00438704 -0.00825425
v -0.00928552 -0.00448980 -0.00812421
v -0.00898635 -0.00520971 -0.00802743
v -0.00917424 -0.00455925 -0.00820965
v -0.00895455 -0.00489352 -0.00824972
v -0.00891698 -0.00503072 -0.00820965
v -0.00893938 -0.00538136 -0.00797073
v -0.00927035 -0.00575910 -0.00728875
v -0.00895672 -0.00567158 -0.00773483
v -0.00940982 -0.00607360 -0.00684797
v -0.00921543 -0.00593075 -0.00721995
v -0.00927685 -0.00606288 -0.00703774
v -0.00922771 -0.00620742 -0.00697801
v -0.00951460 -0.00676359 -0.00599059
v -0.00945462 -0.00693580 -0.00589910
v -0.00959626 -0.00682457 -0.00579098
v -0.00927107 -0.00630398 -0.00681848
v -0.00916773 -0.00663542 -0.00663324
v -0.01095989 -0.00706341 -0.00141789
v -0.01083632 -0.00706793 -0.00219361
v -0.01076188 -0.00722490 -0.00205298
v -0.01075899 -0.00695613 -0.00281283
v -0.01085005 -0.00711931 -0.00195696
v -0.01079079 -0.00722490 -0.00186321
v -0.01090641 -0.00709390 -0.00167722
v -0.01095122 -0.00707640 -0.00141789
v -0.00954567 -0.00882903 -0.00141789
v -0.00952689 -0.00881435 -0.00167722
v -0.00950232 -0.00879346 -0.00193579
v -0.00924000 -0.00878894 -0.00296707
v -0.00921760 -0.00877087 -0.00310014
v -0.00882159 -0.00895946 -0.00350237
v -0.00872909 -0.00904867 -0.00342978
v -0.00931082 -0.00884597 -0.00245143
v -0.00927830 -0.00882056 -0.00270925
v -0.00936501 -0.00885444 -0.00219059
v -0.00860768 -0.00896059 -0.00399835
v -0.00869223 -0.00876297 -0.00436882
v -0.00850579 -0.00856930 -0.00510221
v -0.00847400 -0.00853881 -0.00520503
v -0.00838583 -0.00871892 -0.00503038
v -0.00820373 -0.00878329 -0.00518764
v -0.00825648 -0.00881830 -0.00503038
v -0.00879629 -0.00860035 -0.00451398
v -0.00874282 -0.00855123 -0.00472266
v -0.00869729 -0.00850888 -0.00489504
v -0.00873993 -0.00828924 -0.00521940
v -0.00805197 -0.00895438 -0.00503492
v -0.00878401 -0.00883129 -0.00399835
v -0.00869729 -0.00902496 -0.00360141
v -0.00895022 -0.00876297 -0.00384864
v -0.00811990 -0.00887928 -0.00510221
v -0.00785252 -0.00897753 -0.00528820
v -0.00779905 -0.00889904 -0.00554526
v -0.00805992 -0.00884089 -0.00527988
v -0.00823263 -0.00855405 -0.00554602
v -0.00805053 -0.00857833 -0.00578040
v -0.00822757 -0.00829150 -0.00599285
v -0.00816615 -0.00823503 -0.00616448
v -0.00799416 -0.00830843 -0.00626957
v -0.00789010 -0.00848065 -0.00614482
v -0.00813146 -0.00846371 -0.00585071
v -0.00747386 -0.00856308 -0.00652210
v -0.00755335 -0.00844677 -0.00659544
v -0.00752878 -0.00831465 -0.00681546
v -0.00743339 -0.00827173 -0.00698784
v -0.00727224 -0.00832650 -0.00708159
v -0.00717902 -0.00827286 -0.00724641
v -0.00705039 -0.00846766 -0.00711561
v -0.00652430 -0.00865230 -0.00736512
v -0.00688996 -0.00850719 -0.00721542
v -0.00662620 -0.00850267 -0.00746870
v -0.00645421 -0.00856478 -0.00754355
v -0.00635159 -0.00849307 -0.00771518
v -0.00617960 -0.00854840 -0.00778020
v -0.00596859 -0.00862519 -0.00784824
v -0.00573590 -0.00870820 -0.00792310
v -0.00558342 -0.00875619 -0.00797829
v -0.00541216 -0.00880136 -0.00803953
v -0.00546708 -0.00889453 -0.00785807
v -0.00521993 -0.00897358 -0.00791175
v -0.00504578 -0.00900971 -0.00796997
v -0.00492726 -0.00908368 -0.00793066
v -0.00752950 -0.00604820 -0.00888784
v -0.00769860 -0.00596915 -0.00879635
v -0.00761766 -0.00580427 -0.00898235
v -0.00679168 -0.00737227 -0.00846142
v -0.00698246 -0.00704760 -0.00858087
v -0.00705111 -0.00711818 -0.00846671
v -0.00726863 -0.00708035 -0.00832381
v -0.00734450 -0.00715714 -0.00819755
v -0.00744495 -0.00725369 -0.00802592
v -0.00752372 -0.00707527 -0.00810833
v -0.00769426 -0.00699340 -0.00801987
v -0.00760321 -0.00688612 -0.00819150
v -0.00792190 -0.00644118 -0.00824820
v -0.00772606 -0.00625542 -0.00856046
v -0.00762778 -0.00614136 -0.00873209
v -0.00547792 -0.00804588 -0.00881601
v -0.00578504 -0.00793408 -0.00871394
v -0.00562245 -0.00826383 -0.00852266
v -0.00570338 -0.00810121 -0.00861868
v -0.00590644 -0.00802894 -0.00854232
v -0.00651057 -0.00780026 -0.00831096
v -0.00651057 -0.00792956 -0.00819226
v -0.00665510 -0.00800974 -0.00800929
v -0.00673748 -0.00783979 -0.00810002
v -0.00692248 -0.00776243 -0.00801912
v -0.00681914 -0.00766531 -0.00819074
v -0.00674688 -0.00759135 -0.00831247
v -0.00691020 -0.00749310 -0.00826484
v -0.00492726 -0.00858285 -0.00858768
v -0.00496195 -0.00857325 -0.00857861
v -0.00512382 -0.00853034 -0.00853097
v -0.00529581 -0.00848347 -0.00848107
v -0.00547792 -0.00830448 -0.00856651
v -0.00547792 -0.00817462 -0.00869504
v -0.00787131 -0.00585114 -0.00871545
v -0.00793129 -0.00567949 -0.00877292
v -0.00780844 -0.00557108 -0.00896042
v -0.00845593 -0.00569248 -0.00826484
v -0.00850579 -0.00554680 -0.00831247
v -0.00822035 -0.00521141 -0.00880391
v -0.00868645 -0.00539265 -0.00823989
v -0.00853253 -0.00503072 -0.00860129
v -0.00833742 -0.00481221 -0.00892111
v -0.00840390 -0.00457167 -0.00898764
v -0.00870813 -0.00439777 -0.00877670
v -0.00856722 -0.00430065 -0.00897025
v -0.00950593 -0.00700977 -0.00572747
v -0.00934912 -0.00735363 -0.00554904
v -0.00925228 -0.00752303 -0.00547873
v -0.00929492 -0.00760941 -0.00527686
v -0.00934334 -0.00766927 -0.00510221
v -0.00916701 -0.00793408 -0.00503038
v -0.00925373 -0.00804023 -0.00471056
v -0.00943150 -0.00794368 -0.00451398
v -0.00920676 -0.00798433 -0.00488219
v -0.00946618 -0.00798603 -0.00436655
v -0.00970899 -0.00770766 -0.00432572
v -0.00998432 -0.00772968 -0.00359612
v -0.00939464 -0.00709503 -0.00580989
v -0.00926095 -0.00727628 -0.00580384
v -0.00920314 -0.00746374 -0.00565035
v -0.00995036 -0.00794537 -0.00322489
v -0.00997782 -0.00797925 -0.00304646
v -0.01007104 -0.00788270 -0.00296329
v -0.01021267 -0.00768620 -0.00296707
v -0.00991784 -0.00786294 -0.00349859
v -0.00977620 -0.00804870 -0.00348271
v -0.01025748 -0.00775001 -0.00261399
v -0.00934261 -0.00430065 -0.00815521
v -0.00923566 -0.00430065 -0.00827467
v -0.00898563 -0.00430065 -0.00854005
v -0.00896467 -0.00439607 -0.00851812
v -0.00900225 -0.00472187 -0.00829735
v -0.00873559 -0.00522100 -0.00828828
v -0.00859395 -0.00481051 -0.00866253
v -0.00889963 -0.00556995 -0.00787773
v -0.00875799 -0.00554680 -0.00805768
v -0.00871102 -0.00569022 -0.00800702
v -0.00877172 -0.00578733 -0.00785807
v -0.00858745 -0.00634068 -0.00762596
v -0.00898418 -0.00622775 -0.00725171
v -0.00916990 -0.00606288 -0.00716627
v -0.00892420 -0.00639940 -0.00718139
v -0.00884471 -0.00659872 -0.00711108
v -0.00899574 -0.00650273 -0.00700977
v -0.00893649 -0.00667494 -0.00693113
v -0.00940404 -0.00684433 -0.00607073
v -0.00926674 -0.00681779 -0.00630057
v -0.00922410 -0.00697533 -0.00620153
v -0.00926240 -0.00707470 -0.00603746
v -0.00921904 -0.00722433 -0.00593539
v -0.01043958 -0.00764047 -0.00219361
v -0.01076044 -0.00722433 -0.00206054
v -0.01031023 -0.00782398 -0.00219361
v -0.01023797 -0.00798207 -0.00200082
v -0.01046560 -0.00767830 -0.00193579
v -0.01078645 -0.00722490 -0.00189345
v -0.01048367 -0.00770427 -0.00167722
v -0.01079151 -0.00725990 -0.00167722
v -0.01084788 -0.00722490 -0.00142167
v -0.01057255 -0.00762184 -0.00141789
v -0.00967358 -0.00871158 -0.00141789
v -0.00967358 -0.00871158 -0.00141940
v -0.00965479 -0.00869295 -0.00167722
v -0.00963095 -0.00866585 -0.00193579
v -0.00948281 -0.00877765 -0.00210288
v -0.00940693 -0.00870481 -0.00270925
v -0.00936935 -0.00866698 -0.00296707
v -0.00947702 -0.00851509 -0.00310467
v -0.00933250 -0.00862802 -0.00318860
v -0.00928046 -0.00857381 -0.00348271
v -0.00898201 -0.00878837 -0.00367702
v -0.00950087 -0.00853824 -0.00296707
v -0.00946185 -0.00875901 -0.00227451
v -0.00944017 -0.00873699 -0.00245143
v -0.00891336 -0.00872965 -0.00399835
v -0.00845593 -0.00826496 -0.00569345
v -0.00829406 -0.00836433 -0.00577208
v -0.00892565 -0.00848065 -0.00451398
v -0.00900008 -0.00855123 -0.00421156
v -0.00899647 -0.00828867 -0.00477256
v -0.00896033 -0.00825592 -0.00490412
v -0.00882737 -0.00832594 -0.00500619
v -0.00868428 -0.00823729 -0.00539102
v -0.00888084 -0.00821866 -0.00510221
v -0.00920965 -0.00850493 -0.00385167
v -0.00917857 -0.00847444 -0.00399835
v -0.00904922 -0.00860092 -0.00399835
v -0.00924289 -0.00853824 -0.00367929
v -0.00818855 -0.00851453 -0.00567909
v -0.00839956 -0.00821019 -0.00586508
v -0.00848339 -0.00803854 -0.00598681
v -0.00824781 -0.00806338 -0.00627411
v -0.00818422 -0.00799393 -0.00644649
v -0.00808955 -0.00815655 -0.00635803
v -0.00792262 -0.00824858 -0.00644120
v -0.00767764 -0.00826044 -0.00671565
v -0.00760538 -0.00819325 -0.00688728
v -0.00769643 -0.00802160 -0.00699238
v -0.00752372 -0.00810968 -0.00707630
v -0.00735101 -0.00819720 -0.00715947
v -0.00708941 -0.00819720 -0.00741804
v -0.00691742 -0.00826891 -0.00749819
v -0.00701209 -0.00832311 -0.00734017
v -0.00665004 -0.00826213 -0.00774769
v -0.00651057 -0.00831013 -0.00780364
v -0.00636966 -0.00824576 -0.00798736
v -0.00627499 -0.00839765 -0.00788378
v -0.00560438 -0.00851057 -0.00825198
v -0.00573590 -0.00857946 -0.00807431
v -0.00550827 -0.00865964 -0.00814614
v -0.00528136 -0.00873473 -0.00821116
v -0.00510937 -0.00877821 -0.00826484
v -0.00520548 -0.00883467 -0.00812497
v -0.00492726 -0.00903343 -0.00800399
v -0.00496050 -0.00894478 -0.00811362
v -0.00789733 -0.00615209 -0.00848485
v -0.00816398 -0.00616056 -0.00823308
v -0.00700848 -0.00733557 -0.00831852
v -0.00717252 -0.00723901 -0.00826786
v -0.00718408 -0.00750834 -0.00802214
v -0.00735607 -0.00742591 -0.00794200
v -0.00744495 -0.00751173 -0.00776961
v -0.00753095 -0.00734008 -0.00785581
v -0.00761694 -0.00716561 -0.00794200
v -0.00778315 -0.00707527 -0.00784900
v -0.00786625 -0.00689233 -0.00792839
v -0.00793924 -0.00672011 -0.00800777
v -0.00800066 -0.00657839 -0.00806448
v -0.00818422 -0.00644739 -0.00799417
v -0.00808883 -0.00635818 -0.00815445
v -0.00799272 -0.00626897 -0.00831247
v -0.00543239 -0.00856308 -0.00830945
v -0.00571928 -0.00832820 -0.00837749
v -0.00619767 -0.00830222 -0.00805163
v -0.00608205 -0.00822487 -0.00822401
v -0.00579371 -0.00820059 -0.00845915
v -0.00619695 -0.00805322 -0.00830718
v -0.00636894 -0.00798659 -0.00824442
v -0.00651057 -0.00806508 -0.00806297
v -0.00651057 -0.00819325 -0.00793217
v -0.00673821 -0.00810065 -0.00784068
v -0.00692320 -0.00801991 -0.00776281
v -0.00682709 -0.00793464 -0.00793444
v -0.00709519 -0.00793916 -0.00768191
v -0.00709447 -0.00767999 -0.00793897
v -0.00492726 -0.00860769 -0.00856046
v -0.00520331 -0.00863253 -0.00837296
v -0.00839595 -0.00586412 -0.00820662
v -0.00863370 -0.00554680 -0.00818696
v -0.00873126 -0.00430065 -0.00880165
v -0.00898779 -0.00803120 -0.00520881
v -0.00909475 -0.00797360 -0.00510221
v -0.00902248 -0.00812041 -0.00500619
v -0.00917857 -0.00821188 -0.00456464
v -0.00939392 -0.00812210 -0.00427129
v -0.00950448 -0.00803346 -0.00419417
v -0.00967431 -0.00792109 -0.00399835
v -0.00977548 -0.00779179 -0.00399835
v -0.00971116 -0.00796796 -0.00381311
v -0.00915328 -0.00740502 -0.00580384
v -0.00895817 -0.00773646 -0.00567228
v -0.00893649 -0.00797022 -0.00538044
v -0.00980510 -0.00813283 -0.00320296
v -0.00973501 -0.00825592 -0.00310241
v -0.00989688 -0.00810686 -0.00296329
v -0.01002117 -0.00803571 -0.00270925
v -0.01021629 -0.00795271 -0.00219361
v -0.00974440 -0.00801087 -0.00364148
v -0.00954495 -0.00808258 -0.00399835
v -0.00946763 -0.00824632 -0.00385091
v -0.00966708 -0.00817800 -0.00348271
v -0.00970610 -0.00822374 -0.00327328
v -0.00855421 -0.00577661 -0.00810682
v -0.00848050 -0.00598609 -0.00803499
v -0.00842052 -0.00615830 -0.00796922
v -0.00843353 -0.00643610 -0.00772727
v -0.00869151 -0.00669527 -0.00721239
v -0.00876378 -0.00678730 -0.00704076
v -0.00869585 -0.00695952 -0.00695760
v -0.00884760 -0.00685845 -0.00685855
v -0.00893143 -0.00692959 -0.00666878
v -0.00899285 -0.00700695 -0.00649715
v -0.00897406 -0.00749762 -0.00595278
v -0.00865538 -0.00794199 -0.00586432
v -0.00892131 -0.00717916 -0.00639659
v -0.01005514 -0.00807524 -0.00245143
v -0.01006887 -0.00813848 -0.00217244
v -0.00999227 -0.00825649 -0.00207264
v -0.01000817 -0.00827343 -0.00193579
v -0.01015342 -0.00810234 -0.00192294
v -0.01025314 -0.00800127 -0.00182919
v -0.01032107 -0.00788439 -0.00192294
v -0.01041718 -0.00784374 -0.00141789
v -0.01049667 -0.00772347 -0.00146552
v -0.01044609 -0.00780252 -0.00141789
v -0.00980005 -0.00858228 -0.00141789
v -0.00978198 -0.00856421 -0.00167722
v -0.00975669 -0.00853768 -0.00193579
v -0.00960132 -0.00863875 -0.00218227
v -0.00953628 -0.00857664 -0.00270925
v -0.00959192 -0.00836998 -0.00318935
v -0.00944667 -0.00848404 -0.00327555
v -0.00940910 -0.00844621 -0.00348271
v -0.00962950 -0.00840555 -0.00296707
v -0.00909041 -0.00833441 -0.00449281
v -0.00921976 -0.00825762 -0.00439226
v -0.00891192 -0.00820341 -0.00507574
v -0.00883821 -0.00813453 -0.00529954
v -0.00875727 -0.00805774 -0.00554602
v -0.00871247 -0.00800861 -0.00569194
v -0.00863298 -0.00818647 -0.00554602
v -0.00950087 -0.00828020 -0.00367929
v -0.00930793 -0.00834514 -0.00399835
v -0.00925156 -0.00828867 -0.00425617
v -0.00953845 -0.00831747 -0.00348271
v -0.00872837 -0.00776977 -0.00597017
v -0.00841980 -0.00796909 -0.00615843
v -0.00819578 -0.00774888 -0.00672019
v -0.00812785 -0.00767548 -0.00689257
v -0.00795658 -0.00776525 -0.00699464
v -0.00786842 -0.00793747 -0.00689333
v -0.00794069 -0.00800805 -0.00672095
v -0.00800066 -0.00806564 -0.00657805
v -0.00744278 -0.00802555 -0.00725246
v -0.00726790 -0.00811194 -0.00733487
v -0.00718480 -0.00802555 -0.00750953
v -0.00682203 -0.00819155 -0.00766981
v -0.00496195 -0.00870199 -0.00843495
v -0.00492726 -0.00871102 -0.00844478
v -0.00492726 -0.00881435 -0.00831776
v -0.00492726 -0.00895043 -0.00812421
v -0.00824853 -0.00627518 -0.00806146
v -0.00832224 -0.00607360 -0.00813404
v -0.00727079 -0.00759643 -0.00785429
v -0.00735679 -0.00794086 -0.00742409
v -0.00761694 -0.00742591 -0.00768418
v -0.00770004 -0.00725369 -0.00777037
v -0.00795731 -0.00751117 -0.00725322
v -0.00787203 -0.00715714 -0.00767662
v -0.00802885 -0.00680255 -0.00783615
v -0.00834175 -0.00635592 -0.00789588
v -0.00844148 -0.00670487 -0.00747777
v -0.00943728 -0.00821188 -0.00399835
v -0.00889963 -0.00787762 -0.00557021
v -0.00975307 -0.00827681 -0.00296707
v -0.00991567 -0.00816445 -0.00270925
v -0.00849929 -0.00707132 -0.00707328
v -0.00864309 -0.00685845 -0.00711335
v -0.00850435 -0.00683643 -0.00728724
v -0.00845159 -0.00723111 -0.00697347
v -0.00839306 -0.00742026 -0.00683587
v -0.00864165 -0.00710971 -0.00685780
v -0.00843136 -0.00772291 -0.00643137
v -0.00849423 -0.00779687 -0.00625899
v -0.00994819 -0.00820398 -0.00245143
v -0.00997276 -0.00823334 -0.00224502
v -0.00978776 -0.00831239 -0.00270925
v -0.00966491 -0.00844169 -0.00270925
v -0.00991133 -0.00842757 -0.00167722
v -0.01003129 -0.00829884 -0.00167722
v -0.01016064 -0.00814300 -0.00167722
v -0.01017654 -0.00816389 -0.00141940
v -0.01027844 -0.00803459 -0.00141789
v -0.01004863 -0.00831577 -0.00141789
v -0.00825431 -0.00759756 -0.00681772
v -0.00820662 -0.00750383 -0.00698784
v -0.00804330 -0.00759361 -0.00707706
v -0.00787276 -0.00768282 -0.00716627
v -0.00770149 -0.00776808 -0.00725322
v -0.00778749 -0.00759756 -0.00733941
v -0.00804041 -0.00733048 -0.00733261
v -0.00812857 -0.00741292 -0.00715947
v -0.00844726 -0.00696912 -0.00722600
v -0.01017654 -0.00816389 -0.00141789
f 1 2 3
f 1 3 4
f 1 4 5
f 1 5 6
f 1 6 7
f 1 7 8
f 1 8 9
f 1 9 23
f 1 23 37
f 1 37 60
f 1 60 85
f 1 85 116
f 1 116 118
f 1 118 170
f 1 170 223
f 1 223 222
f 1 222 280
f 1 280 341
f 1 341 424
f 1 424 523
f 1 523 636
f 1 636 753
f 1 753 752
f 1 752 751
f 1 751 750
f 1 750 633
f 1 633 749
f 1 749 896
f 1 896 1051
f 1 1051 1168
f 1 1168 1167
f 1 1167 1166
f 1 1166 1083
f 1 1083 925
f 1 925 773
f 1 773 647
f 1 647 532
f 1 532 434
f 1 434 347
f 1 347 283
f 1 283 224
f 1 224 171
f 1 171 119
f 1 119 86
f 1 86 61
f 1 61 38
f 1 38 24
f 1 24 10
f 1 10 2
f 2 11 12
f 2 12 3
f 2 10 11
f 3 12 4
f 4 12 5
f 5 12 6
f 6 12 13
f 6 13 7
f 7 13 14
f 7 14 8
f 8 15 9
f 8 14 16
f 8 16 15
f 9 17 18
f 9 18 19
f 9 19 20
f 9 20 21
f 9 21 22
f 9 22 23
f 9 15 17
f 10 24 25
f 10 25 26
f 10 26 27
f 10 27 11
f 11 27 43
f 11 43 66
f 11 66 90
f 11 90 140
f 11 140 188
f 11 188 246
f 11 246 303
f 11 303 372
f 11 372 465
f 11 465 468
f 11 468 576
f 11 576 693
f 11 693 832
f 11 832 839
f 11 839 997
f 11 997 1132
f 11 1132 1130
f 11 1130 1200
f 11 1200 1211
f 11 1211 1201
f 11 1201 1133
f 11 1133 998
f 11 998 840
f 11 840 703
f 11 703 588
f 11 588 587
f 11 587 584
f 11 584 473
f 11 473 379
f 11 379 311
f 11 311 252
f 11 252 194
f 11 194 144
f 11 144 93
f 11 93 67
f 11 67 44
f 11 44 29
f 11 29 28
f 11 28 16
f 11 16 14
f 11 14 12
f 12 14 13
f 15 16 17
f 16 28 17
f 17 28 18
f 18 28 19
f 19 28 29
f 19 29 20
f 20 30 21
f 20 29 31
f 20 31 30
f 21 30 22
f 22 32 33
f 22 33 34
f 22 34 35
f 22 35 23
f 22 30 36
f 22 36 32
f 23 35 37
f 24 38 39
f 24 39 40
f 24 40 26
f 24 26 25
f 26 41 27
f 26 40 41
f 27 42 43
f 27 41 42
f 29 44 50
f 29 50 31
f 30 45 46
f 30 46 47
f 30 47 48
f 30 48 49
f 30 49 36
f 30 31 50
f 30 50 51
f 30 51 52
f 30 52 53
f 30 53 45
f 32 36 33
f 33 54 34
f 33 36 55
f 33 55 54
f 34 54 56
f 34 56 57
f 34 57 35
f 35 57 37
f 36 49 58
f 36 58 55
f 37 57 59
f 37 59 60
f 38 61 62
f 38 62 63
f 38 63 39
f 39 63 64
f 39 64 88
f 39 88 87
f 39 87 120
f 39 120 172
f 39 172 226
f 39 226 284
f 39 284 350
f 39 350 437
f 39 437 537
f 39 537 653
f 39 653 783
f 39 783 942
f 39 942 1087
f 39 1087 967
f 39 967 966
f 39 966 965
f 39 965 813
f 39 813 812
f 39 812 811
f 39 811 676
f 39 676 675
f 39 675 674
f 39 674 673
f 39 673 672
f 39 672 556
f 39 556 456
f 39 456 455
f 39 455 367
f 39 367 298
f 39 298 241
f 39 241 240
f 39 240 185
f 39 185 138
f 39 138 89
f 39 89 65
f 39 65 41
f 39 41 40
f 41 65 42
f 42 65 43
f 43 65 89
f 43 89 66
f 44 67 68
f 44 68 69
f 44 69 70
f 44 70 50
f 45 71 46
f 45 53 71
f 46 71 72
f 46 72 73
f 46 73 74
f 46 74 47
f 47 74 48
f 48 74 75
f 48 75 58
f 48 58 49
f 50 70 51
f 51 70 76
f 51 76 52
f 52 76 53
f 53 76 77
f 53 77 72
f 53 72 71
f 54 55 78
f 54 78 56
f 55 58 75
f 55 75 79
f 55 79 78
f 56 80 81
f 56 81 82
f 56 82 57
f 56 78 83
f 56 83 80
f 57 82 59
f 59 82 84
f 59 84 60
f 60 84 85
f 61 86 87
f 61 87 88
f 61 88 64
f 61 64 62
f 62 64 63
f 66 89 91
f 66 91 92
f 66 92 90
f 67 93 94
f 67 94 68
f 68 94 95
f 68 95 69
f 69 95 96
f 69 96 97
f 69 97 70
f 70 98 99
f 70 99 100
f 70 100 76
f 70 97 101
f 70 101 98
f 72 77 107
f 72 107 102
f 72 102 106
f 72 106 73
f 73 103 104
f 73 104 105
f 73 105 74
f 73 106 103
f 74 105 75
f 75 105 79
f 76 107 77
f 76 100 108
f 76 108 107
f 78 79 83
f 79 105 109
f 79 109 80
f 79 80 83
f 80 110 111
f 80 111 112
f 80 112 81
f 80 109 113
f 80 113 110
f 81 112 114
f 81 114 115
f 81 115 84
f 81 84 82
f 84 116 85
f 84 115 117
f 84 117 118
f 84 118 116
f 86 119 120
f 86 120 87
f 89 121 122
f 89 122 123
f 89 123 124
f 89 124 125
f 89 125 126
f 89 126 127
f 89 127 128
f 89 128 129
f 89 129 130
f 89 130 131
f 89 131 132
f 89 132 133
f 89 133 134
f 89 134 135
f 89 135 136
f 89 136 137
f 89 137 91
f 89 138 121
f 90 139 140
f 90 92 139
f 91 137 141
f 91 141 92
f 92 141 142
f 92 142 143
f 92 143 139
f 93 144 94
f 94 145 146
f 94 146 96
f 94 96 95
f 94 144 145
f 96 146 97
f 97 146 101
f 98 147 99
f 98 101 148
f 98 148 147
f 99 147 149
f 99 149 108
f 99 108 100
f 101 146 148
f 102 107 149
f 102 149 150
f 102 150 106
f 103 151 152
f 103 152 153
f 103 153 154
f 103 154 104
f 103 106 155
f 103 155 156
f 103 156 151
f 104 154 105
f 105 154 157
f 105 157 109
f 106 150 155
f 107 108 149
f 109 157 113
f 110 158 159
f 110 159 111
f 110 113 160
f 110 160 158
f 111 159 158
f 111 158 161
f 111 161 162
f 111 162 112
f 112 162 163
f 112 163 114
f 113 157 164
f 113 164 160
f 114 165 166
f 114 166 167
f 114 167 115
f 114 163 165
f 115 167 117
f 117 167 168
f 117 168 169
f 117 169 170
f 117 170 118
f 119 171 120
f 120 171 172
f 121 173 122
f 121 138 173
f 122 173 174
f 122 174 175
f 122 175 123
f 123 175 124
f 124 175 125
f 125 175 176
f 125 176 126
f 126 176 127
f 127 177 128
f 127 176 177
f 128 177 129
f 129 177 178
f 129 178 130
f 130 178 131
f 131 178 179
f 131 179 180
f 131 180 132
f 132 180 181
f 132 181 133
f 133 181 134
f 134 181 182
f 134 182 135
f 135 182 183
f 135 183 136
f 136 183 184
f 136 184 141
f 136 141 137
f 138 185 186
f 138 186 187
f 138 187 173
f 139 143 188
f 139 188 140
f 141 184 189
f 141 189 142
f 142 189 190
f 142 190 143
f 143 190 191
f 143 191 192
f 143 192 193
f 143 193 188
f 144 194 195
f 144 195 145
f 145 195 196
f 145 196 146
f 146 196 197
f 146 197 198
f 146 198 149
f 146 149 147
f 146 147 148
f 149 198 199
f 149 199 200
f 149 200 150
f 150 201 155
f 150 200 201
f 151 202 152
f 151 156 202
f 152 203 204
f 152 204 205
f 152 205 206
f 152 206 153
f 152 202 203
f 153 206 154
f 154 206 205
f 154 205 207
f 154 207 157
f 155 201 156
f 156 208 202
f 156 201 209
f 156 209 208
f 157 210 164
f 157 207 210
f 158 211 161
f 158 160 212
f 158 212 213
f 158 213 214
f 158 214 211
f 160 164 210
f 160 210 212
f 161 211 215
f 161 215 162
f 162 215 216
f 162 216 163
f 163 216 165
f 165 217 218
f 165 218 219
f 165 219 166
f 165 216 217
f 166 219 167
f 167 219 168
f 168 220 221
f 168 221 169
f 168 219 220
f 169 221 222
f 169 222 223
f 169 223 170
f 171 224 282
f 171 282 346
f 171 346 427
f 171 427 426
f 171 426 348
f 171 348 284
f 171 284 226
f 171 226 225
f 171 225 172
f 172 225 226
f 173 187 174
f 174 227 228
f 174 228 175
f 174 187 186
f 174 186 229
f 174 229 230
f 174 230 227
f 175 228 231
f 175 231 232
f 175 232 176
f 176 232 233
f 176 233 234
f 176 234 235
f 176 235 178
f 176 178 177
f 178 236 179
f 178 235 236
f 179 236 180
f 180 236 237
f 180 237 238
f 180 238 182
f 180 182 181
f 182 238 183
f 183 238 239
f 183 239 189
f 183 189 184
f 185 240 186
f 186 240 241
f 186 241 242
f 186 242 243
f 186 243 244
f 186 244 229
f 188 193 245
f 188 245 246
f 189 247 190
f 189 239 248
f 189 248 249
f 189 249 247
f 190 192 191
f 190 247 192
f 192 250 193
f 192 247 251
f 192 251 250
f 193 250 245
f 194 252 253
f 194 253 195
f 195 253 254
f 195 254 255
f 195 255 256
f 195 256 197
f 195 197 196
f 197 256 257
f 197 257 258
f 197 258 259
f 197 259 199
f 197 199 198
f 199 259 200
f 200 259 260
f 200 260 261
f 200 261 201
f 201 261 262
f 201 262 209
f 202 263 203
f 202 208 263
f 203 263 264
f 203 264 265
f 203 265 266
f 203 266 204
f 204 266 205
f 205 266 267
f 205 267 207
f 207 267 210
f 208 209 268
f 208 268 269
f 208 269 263
f 209 262 268
f 210 267 213
f 210 213 212
f 211 214 270
f 211 270 271
f 211 271 272
f 211 272 215
f 213 267 266
f 213 266 273
f 213 273 214
f 214 273 270
f 215 272 274
f 215 274 275
f 215 275 217
f 215 217 216
f 217 275 276
f 217 276 218
f 218 276 277
f 218 277 278
f 218 278 279
f 218 279 220
f 218 220 219
f 220 279 221
f 221 279 280
f 221 280 222
f 224 281 282
f 224 283 281
f 227 285 228
f 227 230 285
f 228 285 231
f 229 244 230
f 230 244 286
f 230 286 285
f 231 285 287
f 231 287 288
f 231 288 233
f 231 233 232
f 233 288 234
f 234 289 290
f 234 290 291
f 234 291 292
f 234 292 235
f 234 288 289
f 235 292 236
f 236 293 237
f 236 292 294
f 236 294 293
f 237 293 295
f 237 295 296
f 237 296 297
f 237 297 238
f 238 297 239
f 239 297 248
f 241 298 299
f 241 299 300
f 241 300 242
f 242 300 243
f 243 301 244
f 243 300 302
f 243 302 301
f 244 301 286
f 245 303 246
f 245 250 303
f 247 249 304
f 247 304 251
f 248 297 305
f 248 305 306
f 248 306 249
f 249 306 295
f 249 295 304
f 250 307 308
f 250 308 303
f 250 251 309
f 250 309 307
f 251 304 310
f 251 310 309
f 252 311 254
f 252 254 253
f 254 311 312
f 254 312 255
f 255 257 256
f 255 312 313
f 255 313 314
f 255 314 258
f 255 258 257
f 258 314 315
f 258 315 260
f 258 260 259
f 260 315 316
f 260 316 261
f 261 317 262
f 261 316 317
f 262 317 318
f 262 318 268
f 263 269 318
f 263 318 319
f 263 319 264
f 264 319 320
f 264 320 321
f 264 321 322
f 264 322 323
f 264 323 324
f 264 324 265
f 265 324 273
f 265 273 266
f 268 318 269
f 270 325 271
f 270 273 326
f 270 326 325
f 271 325 327
f 271 327 272
f 272 327 274
f 273 328 329
f 273 329 326
f 273 324 328
f 274 330 331
f 274 331 276
f 274 276 275
f 274 327 332
f 274 332 333
f 274 333 334
f 274 334 330
f 276 331 277
f 277 335 336
f 277 336 337
f 277 337 278
f 277 331 330
f 277 330 335
f 278 337 338
f 278 338 339
f 278 339 279
f 279 339 340
f 279 340 280
f 280 340 341
f 281 342 282
f 281 283 343
f 281 343 344
f 281 344 345
f 281 345 342
f 282 342 346
f 283 347 343
f 284 348 349
f 284 349 350
f 285 286 287
f 286 301 351
f 286 351 352
f 286 352 287
f 287 353 354
f 287 354 355
f 287 355 356
f 287 356 357
f 287 357 358
f 287 358 359
f 287 359 290
f 287 290 289
f 287 289 288
f 287 352 353
f 290 360 291
f 290 359 360
f 291 360 361
f 291 361 294
f 291 294 292
f 293 362 295
f 293 294 361
f 293 361 363
f 293 363 364
f 293 364 362
f 295 306 305
f 295 305 297
f 295 297 296
f 295 362 365
f 295 365 366
f 295 366 304
f 298 367 368
f 298 368 299
f 299 368 369
f 299 369 370
f 299 370 371
f 299 371 300
f 300 371 302
f 301 302 371
f 301 371 351
f 303 308 372
f 304 366 373
f 304 373 310
f 307 374 375
f 307 375 308
f 307 309 374
f 308 376 372
f 308 375 376
f 309 310 377
f 309 377 374
f 310 378 377
f 310 373 378
f 311 379 380
f 311 380 381
f 311 381 382
f 311 382 312
f 312 382 313
f 313 382 383
f 313 383 384
f 313 384 314
f 314 384 385
f 314 385 315
f 315 385 316
f 316 385 386
f 316 386 317
f 317 386 387
f 317 387 318
f 318 387 388
f 318 388 319
f 319 388 320
f 320 388 389
f 320 389 390
f 320 390 321
f 321 390 391
f 321 391 392
f 321 392 322
f 322 393 323
f 322 392 394
f 322 394 395
f 322 395 396
f 322 396 397
f 322 397 398
f 322 398 399
f 322 399 393
f 323 393 324
f 324 393 328
f 325 400 327
f 325 326 329
f 325 329 401
f 325 401 400
f 327 402 332
f 327 400 402
f 328 401 403
f 328 403 329
f 328 393 401
f 329 403 401
f 330 334 404
f 330 404 405
f 330 405 335
f 332 402 333
f 333 406 407
f 333 407 408
f 333 408 409
f 333 409 410
f 333 410 334
f 333 402 411
f 333 411 412
f 333 412 413
f 333 413 414
f 333 414 406
f 334 410 404
f 335 405 410
f 335 410 415
f 335 415 336
f 336 416 417
f 336 417 418
f 336 418 419
f 336 419 420
f 336 420 421
f 336 421 338
f 336 338 337
f 336 415 416
f 338 421 422
f 338 422 423
f 338 423 424
f 338 424 339
f 339 424 341
f 339 341 340
f 342 425 426
f 342 426 427
f 342 427 346
f 342 345 428
f 342 428 425
f 343 347 429
f 343 429 430
f 343 430 344
f 344 430 431
f 344 431 432
f 344 432 345
f 345 432 433
f 345 433 428
f 347 434 429
f 348 426 435
f 348 435 349
f 349 435 436
f 349 436 437
f 349 437 350
f 351 371 438
f 351 438 439
f 351 439 352
f 352 439 353
f 353 439 354
f 354 439 355
f 355 439 440
f 355 440 441
f 355 441 356
f 356 441 442
f 356 442 357
f 357 443 444
f 357 444 445
f 357 445 358
f 357 442 443
f 358 445 446
f 358 446 359
f 359 446 447
f 359 447 448
f 359 448 360
f 360 448 363
f 360 363 361
f 362 449 365
f 362 364 449
f 363 448 364
f 364 448 446
f 364 446 450
f 364 450 451
f 364 451 452
f 364 452 453
f 364 453 449
f 365 449 366
f 366 449 454
f 366 454 373
f 367 455 368
f 368 455 456
f 368 456 457
f 368 457 369
f 369 457 370
f 370 457 458
f 370 458 371
f 371 458 459
f 371 459 460
f 371 460 461
f 371 461 462
f 371 462 463
f 371 463 464
f 371 464 438
f 372 376 465
f 373 454 466
f 373 466 378
f 374 467 375
f 374 377 467
f 375 467 376
f 376 468 465
f 376 467 468
f 377 378 469
f 377 469 470
f 377 470 471
f 377 471 467
f 378 466 472
f 378 472 469
f 379 473 474
f 379 474 475
f 379 475 380
f 380 475 476
f 380 476 477
f 380 477 478
f 380 478 383
f 380 383 382
f 380 382 381
f 383 478 479
f 383 479 384
f 384 479 480
f 384 480 481
f 384 481 482
f 384 482 386
f 384 386 385
f 386 482 387
f 387 483 484
f 387 484 388
f 387 482 483
f 388 484 389
f 389 485 390
f 389 484 486
f 389 486 485
f 390 485 391
f 391 487 392
f 391 485 487
f 392 487 394
f 393 399 401
f 394 488 489
f 394 489 396
f 394 396 395
f 394 487 485
f 394 485 490
f 394 490 491
f 394 491 492
f 394 492 488
f 396 489 397
f 397 493 494
f 397 494 495
f 397 495 496
f 397 496 398
f 397 489 493
f 398 496 399
f 399 496 401
f 400 401 402
f 401 496 497
f 401 497 498
f 401 498 499
f 401 499 402
f 402 499 412
f 402 412 411
f 404 410 405
f 406 500 407
f 406 414 501
f 406 501 502
f 406 502 500
f 407 500 503
f 407 503 504
f 407 504 505
f 407 505 506
f 407 506 408
f 408 506 507
f 408 507 508
f 408 508 509
f 408 509 409
f 409 509 510
f 409 510 410
f 410 510 415
f 412 499 498
f 412 498 511
f 412 511 413
f 413 511 512
f 413 512 414
f 414 512 501
f 415 510 416
f 416 513 417
f 416 510 509
f 416 509 513
f 417 513 508
f 417 508 507
f 417 507 514
f 417 514 515
f 417 515 516
f 417 516 418
f 418 516 517
f 418 517 419
f 419 517 518
f 419 518 420
f 420 518 519
f 420 519 520
f 420 520 521
f 420 521 421
f 421 521 422
f 422 522 423
f 422 521 522
f 423 522 523
f 423 523 424
f 425 435 426
f 425 428 524
f 425 524 435
f 428 525 524
f 428 433 526
f 428 526 527
f 428 527 525
f 429 434 528
f 429 528 529
f 429 529 430
f 430 529 431
f 431 529 530
f 431 530 432
f 432 530 531
f 432 531 433
f 433 531 526
f 434 532 528
f 435 524 533
f 435 533 436
f 436 533 534
f 436 534 535
f 436 535 536
f 436 536 537
f 436 537 437
f 438 538 539
f 438 539 439
f 438 464 538
f 439 539 440
f 440 539 540
f 440 540 441
f 441 540 541
f 441 541 442
f 442 541 443
f 443 542 543
f 443 543 544
f 443 544 545
f 443 545 546
f 443 546 547
f 443 547 444
f 443 541 548
f 443 548 542
f 444 547 549
f 444 549 446
f 444 446 445
f 446 549 450
f 446 448 447
f 449 453 550
f 449 550 551
f 449 551 454
f 450 549 552
f 450 552 451
f 451 553 452
f 451 552 553
f 452 553 554
f 452 554 453
f 453 554 550
f 454 472 466
f 454 551 555
f 454 555 472
f 456 556 457
f 457 556 557
f 457 557 558
f 457 558 458
f 458 558 459
f 459 558 559
f 459 559 560
f 459 560 561
f 459 561 562
f 459 562 563
f 459 563 564
f 459 564 565
f 459 565 566
f 459 566 567
f 459 567 461
f 459 461 568
f 459 568 460
f 460 568 461
f 461 567 569
f 461 569 570
f 461 570 463
f 461 463 462
f 463 571 464
f 463 570 572
f 463 572 573
f 463 573 571
f 464 571 538
f 467 574 468
f 467 471 470
f 467 470 574
f 468 575 576
f 468 574 575
f 469 577 470
f 469 472 578
f 469 578 577
f 470 577 579
f 470 579 580
f 470 580 574
f 472 555 581
f 472 581 582
f 472 582 583
f 472 583 578
f 473 584 475
f 473 475 474
f 475 585 586
f 475 586 476
f 475 584 587
f 475 587 588
f 475 588 585
f 476 586 477
f 477 589 590
f 477 590 591
f 477 591 592
f 477 592 480
f 477 480 593
f 477 593 478
f 477 586 594
f 477 594 595
f 477 595 596
f 477 596 589
f 478 593 479
f 479 593 480
f 480 592 591
f 480 591 597
f 480 597 484
f 480 484 483
f 480 483 482
f 480 482 481
f 484 597 591
f 484 591 598
f 484 598 599
f 484 599 600
f 484 600 486
f 485 601 490
f 485 486 601
f 486 600 601
f 488 492 602
f 488 602 603
f 488 603 489
f 489 603 604
f 489 604 493
f 490 601 600
f 490 600 605
f 490 605 606
f 490 606 491
f 491 606 607
f 491 607 492
f 492 607 608
f 492 608 602
f 493 609 494
f 493 604 609
f 494 609 610
f 494 610 495
f 495 610 611
f 495 611 612
f 495 612 511
f 495 511 498
f 495 498 496
f 496 498 497
f 500 502 613
f 500 613 614
f 500 614 615
f 500 615 503
f 501 512 616
f 501 616 502
f 502 616 617
f 502 617 613
f 503 618 504
f 503 615 618
f 504 618 505
f 505 618 619
f 505 619 620
f 505 620 621
f 505 621 506
f 506 621 507
f 507 621 622
f 507 622 514
f 508 513 509
f 511 612 616
f 511 616 512
f 514 622 515
f 515 623 624
f 515 624 625
f 515 625 516
f 515 622 623
f 516 625 626
f 516 626 627
f 516 627 517
f 517 627 628
f 517 628 629
f 517 629 518
f 518 630 519
f 518 629 630
f 519 630 631
f 519 631 520
f 520 631 521
f 521 631 632
f 521 632 633
f 521 633 634
f 521 634 635
f 521 635 522
f 522 636 523
f 522 635 636
f 524 525 533
f 525 527 637
f 525 637 533
f 526 531 638
f 526 638 527
f 527 638 639
f 527 639 640
f 527 640 637
f 528 532 641
f 528 641 529
f 529 641 642
f 529 642 643
f 529 643 530
f 530 643 644
f 530 644 645
f 530 645 531
f 531 645 646
f 531 646 638
f 532 647 641
f 533 637 648
f 533 648 649
f 533 649 534
f 534 649 650
f 534 650 535
f 535 650 651
f 535 651 652
f 535 652 537
f 535 537 536
f 537 652 654
f 537 654 653
f 538 571 655
f 538 655 539
f 539 656 540
f 539 655 656
f 540 656 541
f 541 656 655
f 541 655 542
f 541 542 548
f 542 655 657
f 542 657 543
f 543 657 658
f 543 658 545
f 543 545 544
f 545 658 659
f 545 659 660
f 545 660 661
f 545 661 662
f 545 662 663
f 545 663 664
f 545 664 665
f 545 665 666
f 545 666 546
f 546 666 667
f 546 667 547
f 547 552 549
f 547 667 554
f 547 554 552
f 550 554 582
f 550 582 555
f 550 555 551
f 552 554 553
f 554 667 668
f 554 668 669
f 554 669 670
f 554 670 671
f 554 671 583
f 554 583 582
f 555 582 581
f 556 672 559
f 556 559 557
f 557 559 558
f 559 672 560
f 560 672 673
f 560 673 674
f 560 674 561
f 561 674 675
f 561 675 676
f 561 676 677
f 561 677 562
f 562 677 678
f 562 678 563
f 563 678 679
f 563 679 680
f 563 680 564
f 564 681 565
f 564 680 682
f 564 682 683
f 564 683 681
f 565 681 566
f 566 684 567
f 566 681 683
f 566 683 685
f 566 685 684
f 567 684 686
f 567 686 569
f 569 686 687
f 569 687 572
f 569 572 570
f 571 688 689
f 571 689 690
f 571 690 655
f 571 573 686
f 571 686 691
f 571 691 692
f 571 692 688
f 572 687 686
f 572 686 573
f 574 580 575
f 575 693 576
f 575 580 693
f 577 694 695
f 577 695 579
f 577 578 694
f 578 583 696
f 578 696 694
f 579 695 697
f 579 697 580
f 580 697 698
f 580 698 693
f 583 671 699
f 583 699 696
f 585 700 701
f 585 701 702
f 585 702 594
f 585 594 586
f 585 588 700
f 588 703 704
f 588 704 705
f 588 705 700
f 589 596 706
f 589 706 707
f 589 707 708
f 589 708 590
f 590 708 709
f 590 709 591
f 591 605 598
f 591 709 605
f 594 702 596
f 594 596 595
f 596 710 711
f 596 711 706
f 596 702 701
f 596 701 712
f 596 712 710
f 598 605 600
f 598 600 599
f 602 608 713
f 602 713 603
f 603 714 715
f 603 715 716
f 603 716 717
f 603 717 604
f 603 713 718
f 603 718 714
f 604 717 719
f 604 719 609
f 605 709 720
f 605 720 721
f 605 721 606
f 606 721 713
f 606 713 607
f 607 713 608
f 609 719 722
f 609 722 723
f 609 723 610
f 610 723 724
f 610 724 611
f 611 724 725
f 611 725 617
f 611 617 612
f 612 617 616
f 613 726 615
f 613 615 614
f 613 617 726
f 615 726 727
f 615 727 728
f 615 728 729
f 615 729 730
f 615 730 731
f 615 731 732
f 615 732 618
f 617 725 727
f 617 727 726
f 618 732 733
f 618 733 734
f 618 734 735
f 618 735 736
f 618 736 737
f 618 737 619
f 619 738 624
f 619 624 620
f 619 737 739
f 619 739 740
f 619 740 738
f 620 623 621
f 620 624 623
f 621 623 622
f 624 741 625
f 624 738 741
f 625 741 626
f 626 741 742
f 626 742 743
f 626 743 744
f 626 744 628
f 626 628 627
f 628 744 629
f 629 744 745
f 629 745 630
f 630 745 746
f 630 746 747
f 630 747 631
f 631 747 632
f 632 747 748
f 632 748 633
f 633 748 749
f 633 750 634
f 634 750 751
f 634 751 635
f 635 751 752
f 635 752 753
f 635 753 636
f 637 640 754
f 637 754 648
f 638 646 755
f 638 755 756
f 638 756 757
f 638 757 758
f 638 758 759
f 638 759 760
f 638 760 639
f 639 761 754
f 639 754 640
f 639 760 759
f 639 759 762
f 639 762 761
f 641 647 763
f 641 763 642
f 642 763 764
f 642 764 765
f 642 765 766
f 642 766 644
f 642 644 643
f 644 766 767
f 644 767 768
f 644 768 769
f 644 769 770
f 644 770 645
f 645 770 769
f 645 769 771
f 645 771 772
f 645 772 755
f 645 755 646
f 647 773 774
f 647 774 775
f 647 775 776
f 647 776 763
f 648 650 649
f 648 754 650
f 650 754 777
f 650 777 651
f 651 777 778
f 651 778 779
f 651 779 780
f 651 780 781
f 651 781 652
f 652 781 782
f 652 782 783
f 652 783 653
f 652 653 654
f 655 690 657
f 657 690 784
f 657 784 785
f 657 785 659
f 657 659 658
f 659 785 660
f 660 786 661
f 660 785 787
f 660 787 786
f 661 786 663
f 661 663 662
f 663 788 789
f 663 789 790
f 663 790 791
f 663 791 792
f 663 792 793
f 663 793 794
f 663 794 795
f 663 795 796
f 663 796 664
f 663 786 797
f 663 797 798
f 663 798 799
f 663 799 788
f 664 796 665
f 665 795 800
f 665 800 801
f 665 801 666
f 665 796 795
f 666 801 668
f 666 668 667
f 668 801 800
f 668 800 802
f 668 802 669
f 669 802 670
f 670 803 804
f 670 804 805
f 670 805 806
f 670 806 671
f 670 802 807
f 670 807 808
f 670 808 809
f 670 809 803
f 671 806 810
f 671 810 699
f 676 811 677
f 677 811 812
f 677 812 813
f 677 813 814
f 677 814 815
f 677 815 678
f 678 815 679
f 679 816 682
f 679 682 680
f 679 815 817
f 679 817 818
f 679 818 819
f 679 819 816
f 682 816 820
f 682 820 683
f 683 820 685
f 684 685 821
f 684 821 686
f 685 820 822
f 685 822 821
f 686 823 691
f 686 821 824
f 686 824 825
f 686 825 826
f 686 826 823
f 688 692 689
f 689 692 827
f 689 827 828
f 689 828 690
f 690 828 829
f 690 829 784
f 691 823 692
f 692 823 830
f 692 830 831
f 692 831 827
f 693 698 832
f 694 833 834
f 694 834 695
f 694 696 835
f 694 835 833
f 695 834 836
f 695 836 697
f 696 699 835
f 697 837 838
f 697 838 698
f 697 836 837
f 698 839 832
f 698 838 839
f 699 810 835
f 700 705 701
f 701 705 712
f 703 840 704
f 704 841 705
f 704 840 841
f 705 841 842
f 705 842 712
f 706 711 707
f 707 711 843
f 707 843 844
f 707 844 845
f 707 845 846
f 707 846 708
f 708 846 720
f 708 720 709
f 710 847 848
f 710 848 711
f 710 712 849
f 710 849 847
f 711 848 843
f 712 842 849
f 713 721 850
f 713 850 718
f 714 851 715
f 714 718 851
f 715 851 716
f 716 852 853
f 716 853 854
f 716 854 728
f 716 728 855
f 716 855 856
f 716 856 717
f 716 851 857
f 716 857 858
f 716 858 859
f 716 859 860
f 716 860 852
f 717 856 861
f 717 861 722
f 717 722 719
f 718 850 862
f 718 862 851
f 720 846 863
f 720 863 721
f 721 864 850
f 721 863 864
f 722 861 856
f 722 856 865
f 722 865 866
f 722 866 724
f 722 724 723
f 724 866 867
f 724 867 725
f 725 867 728
f 725 728 727
f 728 867 868
f 728 868 856
f 728 856 855
f 728 854 853
f 728 853 869
f 728 869 870
f 728 870 730
f 728 730 729
f 730 871 872
f 730 872 873
f 730 873 874
f 730 874 731
f 730 870 875
f 730 875 871
f 731 874 876
f 731 876 732
f 732 876 733
f 733 876 734
f 734 876 877
f 734 877 878
f 734 878 879
f 734 879 735
f 735 879 736
f 736 879 880
f 736 880 881
f 736 881 882
f 736 882 739
f 736 739 737
f 738 740 883
f 738 883 741
f 739 882 884
f 739 884 740
f 740 885 883
f 740 884 885
f 741 885 886
f 741 886 887
f 741 887 742
f 741 883 885
f 742 887 743
f 743 887 888
f 743 888 744
f 744 888 889
f 744 889 890
f 744 890 891
f 744 891 892
f 744 892 893
f 744 893 745
f 745 893 746
f 746 893 892
f 746 892 747
f 747 892 894
f 747 894 895
f 747 895 748
f 748 895 896
f 748 896 749
f 754 761 897
f 754 897 898
f 754 898 899
f 754 899 777
f 755 772 900
f 755 900 756
f 756 900 901
f 756 901 757
f 757 901 902
f 757 902 903
f 757 903 758
f 758 904 905
f 758 905 906
f 758 906 907
f 758 907 908
f 758 908 909
f 758 909 762
f 758 762 759
f 758 903 904
f 761 762 910
f 761 910 911
f 761 911 897
f 762 909 910
f 763 776 775
f 763 775 912
f 763 912 765
f 763 765 764
f 765 913 766
f 765 912 914
f 765 914 915
f 765 915 916
f 765 916 913
f 766 913 767
f 767 913 916
f 767 916 768
f 768 916 917
f 768 917 771
f 768 771 769
f 771 918 919
f 771 919 920
f 771 920 921
f 771 921 922
f 771 922 923
f 771 923 772
f 771 917 918
f 772 923 924
f 772 924 900
f 773 925 926
f 773 926 927
f 773 927 928
f 773 928 774
f 774 928 929
f 774 929 775
f 775 930 912
f 775 929 914
f 775 914 930
f 777 899 898
f 777 898 931
f 777 931 932
f 777 932 933
f 777 933 778
f 778 933 932
f 778 932 779
f 779 932 934
f 779 934 935
f 779 935 936
f 779 936 780
f 780 936 781
f 781 936 937
f 781 937 938
f 781 938 939
f 781 939 940
f 781 940 782
f 782 940 941
f 782 941 942
f 782 942 783
f 784 798 797
f 784 797 785
f 784 829 943
f 784 943 798
f 785 797 787
f 786 787 797
f 788 799 944
f 788 944 945
f 788 945 946
f 788 946 789
f 789 946 947
f 789 947 790
f 790 947 948
f 790 948 791
f 791 949 950
f 791 950 792
f 791 948 951
f 791 951 949
f 792 950 952
f 792 952 793
f 793 952 953
f 793 953 794
f 794 807 800
f 794 800 795
f 794 953 954
f 794 954 807
f 798 943 955
f 798 955 956
f 798 956 957
f 798 957 944
f 798 944 799
f 800 807 802
f 803 809 958
f 803 958 959
f 803 959 960
f 803 960 961
f 803 961 804
f 804 961 805
f 805 961 810
f 805 810 806
f 807 954 808
f 808 954 809
f 809 954 962
f 809 962 963
f 809 963 958
f 810 961 964
f 810 964 835
f 813 965 814
f 814 817 815
f 814 965 966
f 814 966 967
f 814 967 968
f 814 968 817
f 816 819 937
f 816 937 820
f 817 968 969
f 817 969 818
f 818 970 819
f 818 969 968
f 818 968 971
f 818 971 970
f 819 970 937
f 820 972 822
f 820 937 973
f 820 973 974
f 820 974 972
f 821 822 824
f 822 972 974
f 822 974 975
f 822 975 976
f 822 976 977
f 822 977 824
f 823 826 830
f 824 977 978
f 824 978 825
f 825 978 826
f 826 978 977
f 826 977 979
f 826 979 980
f 826 980 981
f 826 981 982
f 826 982 830
f 827 983 828
f 827 831 984
f 827 984 983
f 828 955 943
f 828 943 829
f 828 983 985
f 828 985 986
f 828 986 987
f 828 987 955
f 830 982 831
f 831 985 984
f 831 982 985
f 833 988 989
f 833 989 834
f 833 835 988
f 834 989 988
f 834 988 990
f 834 990 991
f 834 991 992
f 834 992 836
f 835 964 988
f 836 992 993
f 836 993 837
f 837 993 992
f 837 992 994
f 837 994 995
f 837 995 838
f 838 995 839
f 839 995 996
f 839 996 997
f 840 998 999
f 840 999 841
f 841 1000 842
f 841 999 1000
f 842 1001 1002
f 842 1002 849
f 842 1000 1001
f 843 848 1003
f 843 1003 1004
f 843 1004 844
f 844 1005 1006
f 844 1006 1007
f 844 1007 864
f 844 864 1008
f 844 1008 845
f 844 1004 1009
f 844 1009 1005
f 845 1008 863
f 845 863 846
f 847 849 1002
f 847 1002 848
f 848 1002 1010
f 848 1010 1011
f 848 1011 1003
f 850 864 862
f 851 862 864
f 851 864 1012
f 851 1012 857
f 852 860 853
f 853 860 1013
f 853 1013 1014
f 853 1014 869
f 856 868 865
f 857 1015 858
f 857 1012 1016
f 857 1016 1015
f 858 1015 1017
f 858 1017 859
f 859 1017 1018
f 859 1018 1019
f 859 1019 860
f 860 1020 1013
f 860 1019 1018
f 860 1018 1021
f 860 1021 1020
f 863 1008 864
f 864 1022 1023
f 864 1023 1024
f 864 1024 1016
f 864 1016 1012
f 864 1007 1025
f 864 1025 1022
f 865 868 866
f 866 868 867
f 869 1026 870
f 869 1014 1026
f 870 1014 875
f 870 1026 1014
f 871 875 1014
f 871 1014 1013
f 871 1013 1027
f 871 1027 872
f 872 1027 1028
f 872 1028 1029
f 872 1029 1030
f 872 1030 1031
f 872 1031 1032
f 872 1032 873
f 873 1032 878
f 873 878 877
f 873 877 874
f 874 877 876
f 878 1032 1033
f 878 1033 879
f 879 1034 1035
f 879 1035 1036
f 879 1036 1037
f 879 1037 881
f 879 881 880
f 879 1033 1034
f 881 1037 1038
f 881 1038 1039
f 881 1039 1040
f 881 1040 882
f 882 1040 884
f 884 1040 885
f 885 1039 1041
f 885 1041 886
f 885 1040 1039
f 886 1041 887
f 887 1041 1042
f 887 1042 1043
f 887 1043 1044
f 887 1044 888
f 888 1044 1045
f 888 1045 889
f 889 1045 1046
f 889 1046 890
f 890 1046 1045
f 890 1045 891
f 891 1045 1047
f 891 1047 1048
f 891 1048 892
f 892 1048 1049
f 892 1049 1050
f 892 1050 894
f 894 1050 895
f 895 1051 896
f 895 1050 1049
f 895 1049 1052
f 895 1052 1051
f 897 911 898
f 898 911 1053
f 898 1053 1054
f 898 1054 931
f 900 1055 902
f 900 902 901
f 900 924 1055
f 902 1055 1056
f 902 1056 903
f 903 1056 904
f 904 1056 924
f 904 924 922
f 904 922 921
f 904 921 1057
f 904 1057 905
f 905 1057 1058
f 905 1058 1059
f 905 1059 1060
f 905 1060 1061
f 905 1061 906
f 906 1061 907
f 907 1061 1062
f 907 1062 1063
f 907 1063 1064
f 907 1064 1065
f 907 1065 908
f 908 1065 909
f 909 1065 1066
f 909 1066 1067
f 909 1067 1068
f 909 1068 1053
f 909 1053 910
f 910 1053 911
f 912 930 914
f 914 916 915
f 914 929 928
f 914 928 1069
f 914 1069 1045
f 914 1045 1070
f 914 1070 1071
f 914 1071 1043
f 914 1043 1072
f 914 1072 1073
f 914 1073 916
f 916 1073 1074
f 916 1074 1075
f 916 1075 917
f 917 1075 918
f 918 1075 919
f 919 921 920
f 919 1075 1076
f 919 1076 1043
f 919 1043 1077
f 919 1077 1041
f 919 1041 1078
f 919 1078 1079
f 919 1079 1080
f 919 1080 921
f 921 1080 1079
f 921 1079 1081
f 921 1081 1082
f 921 1082 1058
f 921 1058 1057
f 922 924 923
f 924 1056 1055
f 925 1083 926
f 926 1083 1084
f 926 1084 927
f 927 1084 928
f 928 1084 1069
f 931 1054 932
f 932 1054 934
f 934 1054 1085
f 934 1085 1086
f 934 1086 937
f 934 937 935
f 935 937 936
f 937 970 938
f 937 1086 974
f 937 974 973
f 938 971 939
f 938 970 971
f 939 971 968
f 939 968 941
f 939 941 940
f 941 968 942
f 942 968 1087
f 944 957 945
f 945 1088 946
f 945 957 1088
f 946 1088 1089
f 946 1089 947
f 947 1089 948
f 948 1089 951
f 949 1090 1018
f 949 1018 1091
f 949 1091 950
f 949 951 1088
f 949 1088 1090
f 950 1091 952
f 951 1089 1088
f 952 1091 1092
f 952 1092 1093
f 952 1093 953
f 953 1093 1094
f 953 1094 1095
f 953 1095 954
f 954 1095 1094
f 954 1094 1096
f 954 1096 962
f 955 987 956
f 956 987 1097
f 956 1097 957
f 957 1098 1099
f 957 1099 1088
f 957 1097 1098
f 958 963 1100
f 958 1100 959
f 959 1100 1101
f 959 1101 1102
f 959 1102 1103
f 959 1103 1104
f 959 1104 960
f 960 964 961
f 960 1104 964
f 962 1096 1105
f 962 1105 963
f 963 1105 1106
f 963 1106 1107
f 963 1107 1108
f 963 1108 1109
f 963 1109 1100
f 964 1104 990
f 964 990 988
f 967 1087 968
f 974 1086 1110
f 974 1110 1111
f 974 1111 1112
f 974 1112 975
f 975 1112 976
f 976 1112 1113
f 976 1113 1114
f 976 1114 977
f 977 1114 979
f 979 1114 980
f 980 1114 982
f 980 982 981
f 982 1114 1115
f 982 1115 1116
f 982 1116 1117
f 982 1117 1118
f 982 1118 985
f 983 984 985
f 985 1118 1119
f 985 1119 987
f 985 987 986
f 987 1120 1121
f 987 1121 1097
f 987 1119 1122
f 987 1122 1120
f 990 1104 991
f 991 1104 1123
f 991 1123 1124
f 991 1124 1125
f 991 1125 1126
f 991 1126 1127
f 991 1127 1128
f 991 1128 1129
f 991 1129 992
f 992 1129 1128
f 992 1128 994
f 994 1130 1131
f 994 1131 996
f 994 996 995
f 994 1128 1130
f 996 1131 997
f 997 1131 1132
f 998 1133 999
f 999 1134 1000
f 999 1133 1134
f 1000 1134 1001
f 1001 1135 1136
f 1001 1136 1002
f 1001 1134 1135
f 1002 1136 1010
f 1003 1137 1009
f 1003 1009 1004
f 1003 1011 1137
f 1005 1101 1138
f 1005 1138 1139
f 1005 1139 1006
f 1005 1009 1101
f 1006 1139 1007
f 1007 1139 1140
f 1007 1140 1025
f 1009 1137 1141
f 1009 1141 1101
f 1010 1136 1137
f 1010 1137 1011
f 1013 1020 1027
f 1015 1142 1017
f 1015 1016 1142
f 1016 1024 1143
f 1016 1143 1142
f 1017 1142 1143
f 1017 1143 1091
f 1017 1091 1018
f 1018 1090 1144
f 1018 1144 1021
f 1020 1021 1144
f 1020 1144 1145
f 1020 1145 1146
f 1020 1146 1147
f 1020 1147 1148
f 1020 1148 1027
f 1022 1025 1149
f 1022 1149 1107
f 1022 1107 1150
f 1022 1150 1023
f 1023 1150 1151
f 1023 1151 1024
f 1024 1151 1143
f 1025 1140 1152
f 1025 1152 1149
f 1027 1148 1147
f 1027 1147 1028
f 1028 1153 1154
f 1028 1154 1030
f 1028 1030 1029
f 1028 1147 1121
f 1028 1121 1153
f 1030 1155 1156
f 1030 1156 1157
f 1030 1157 1158
f 1030 1158 1159
f 1030 1159 1160
f 1030 1160 1031
f 1030 1154 1155
f 1031 1160 1032
f 1032 1160 1034
f 1032 1034 1033
f 1034 1160 1159
f 1034 1159 1035
f 1035 1159 1158
f 1035 1158 1157
f 1035 1157 1161
f 1035 1161 1036
f 1036 1161 1037
f 1037 1161 1162
f 1037 1162 1038
f 1038 1162 1163
f 1038 1163 1079
f 1038 1079 1164
f 1038 1164 1039
f 1039 1164 1041
f 1041 1164 1079
f 1041 1079 1078
f 1041 1077 1043
f 1041 1043 1042
f 1043 1076 1072
f 1043 1071 1044
f 1044 1071 1070
f 1044 1070 1045
f 1045 1069 1047
f 1047 1069 1048
f 1048 1069 1084
f 1048 1084 1049
f 1049 1084 1083
f 1049 1083 1165
f 1049 1165 1166
f 1049 1166 1167
f 1049 1167 1052
f 1051 1052 1168
f 1052 1167 1168
f 1053 1068 1054
f 1054 1067 1066
f 1054 1066 1169
f 1054 1169 1170
f 1054 1170 1085
f 1054 1068 1067
f 1058 1082 1171
f 1058 1171 1163
f 1058 1163 1059
f 1059 1163 1172
f 1059 1172 1161
f 1059 1161 1173
f 1059 1173 1060
f 1060 1173 1061
f 1061 1173 1174
f 1061 1174 1062
f 1062 1174 1175
f 1062 1175 1176
f 1062 1176 1177
f 1062 1177 1063
f 1063 1177 1064
f 1064 1177 1066
f 1064 1066 1065
f 1066 1178 1112
f 1066 1112 1169
f 1066 1177 1179
f 1066 1179 1114
f 1066 1114 1113
f 1066 1113 1178
f 1072 1076 1074
f 1072 1074 1073
f 1074 1076 1075
f 1079 1163 1081
f 1081 1163 1171
f 1081 1171 1082
f 1083 1166 1165
f 1085 1170 1111
f 1085 1111 1110
f 1085 1110 1086
f 1088 1099 1147
f 1088 1147 1146
f 1088 1146 1145
f 1088 1145 1144
f 1088 1144 1090
f 1091 1143 1092
f 1092 1180 1093
f 1092 1143 1180
f 1093 1180 1106
f 1093 1106 1094
f 1094 1106 1096
f 1096 1106 1105
f 1097 1121 1098
f 1098 1147 1181
f 1098 1181 1099
f 1098 1121 1147
f 1099 1181 1147
f 1100 1109 1101
f 1101 1109 1138
f 1101 1141 1182
f 1101 1182 1183
f 1101 1183 1102
f 1102 1183 1103
f 1103 1183 1123
f 1103 1123 1104
f 1106 1180 1107
f 1107 1180 1151
f 1107 1151 1150
f 1107 1149 1109
f 1107 1109 1108
f 1109 1149 1152
f 1109 1152 1138
f 1111 1169 1112
f 1111 1170 1169
f 1112 1178 1113
f 1114 1184 1185
f 1114 1185 1116
f 1114 1116 1115
f 1114 1179 1186
f 1114 1186 1184
f 1116 1187 1188
f 1116 1188 1189
f 1116 1189 1122
f 1116 1122 1119
f 1116 1119 1118
f 1116 1118 1117
f 1116 1185 1184
f 1116 1184 1187
f 1120 1153 1121
f 1120 1122 1190
f 1120 1190 1191
f 1120 1191 1153
f 1122 1189 1188
f 1122 1188 1190
f 1123 1183 1192
f 1123 1192 1124
f 1124 1193 1125
f 1124 1192 1193
f 1125 1135 1126
f 1125 1193 1194
f 1125 1194 1195
f 1125 1195 1135
f 1126 1135 1134
f 1126 1134 1196
f 1126 1196 1197
f 1126 1197 1127
f 1127 1197 1128
f 1128 1197 1198
f 1128 1198 1199
f 1128 1199 1200
f 1128 1200 1130
f 1130 1132 1131
f 1133 1201 1196
f 1133 1196 1134
f 1135 1195 1137
f 1135 1137 1136
f 1137 1195 1182
f 1137 1182 1141
f 1138 1152 1139
f 1139 1152 1140
f 1143 1151 1180
f 1153 1191 1154
f 1154 1191 1190
f 1154 1190 1155
f 1155 1190 1202
f 1155 1202 1203
f 1155 1203 1156
f 1156 1203 1157
f 1157 1203 1204
f 1157 1204 1175
f 1157 1175 1205
f 1157 1205 1161
f 1161 1205 1206
f 1161 1206 1207
f 1161 1207 1173
f 1161 1172 1163
f 1161 1163 1162
f 1173 1207 1175
f 1173 1175 1174
f 1175 1208 1176
f 1175 1207 1205
f 1175 1204 1203
f 1175 1203 1209
f 1175 1209 1208
f 1176 1208 1177
f 1177 1208 1210
f 1177 1210 1186
f 1177 1186 1179
f 1182 1195 1194
f 1182 1194 1192
f 1182 1192 1183
f 1184 1186 1210
f 1184 1210 1209
f 1184 1209 1203
f 1184 1203 1187
f 1187 1203 1188
f 1188 1202 1190
f 1188 1203 1202
f 1192 1194 1193
f 1196 1201 1197
f 1197 1199 1198
f 1197 1201 1199
f 1199 1201 1211
f 1199 1211 1200
f 1205 1207 1206
f 1208 1209 1210

