# https://github.com/mikedh/trimesh
v 0.03482175 0.01164600 0.00683918
v 0.03893992 0.01164440 0.00886577
v 0.03482175 0.01164600 0.00662938
v 0.02238090 0.01164600 0.00886577
v 0.03880499 0.00970409 0.00886577
v 0.03893992 0.00969449 0.00886520
v 0.03893992 0.01164440 0.00760128
v 0.03436568 0.01164600 0.00307293
v 0.02166035 0.01164600 0.00886577
v 0.02580011 0.00001858 0.00886577
v 0.02502019 -0.00470891 0.00886520
v 0.03436568 0.00358701 0.00649272
v 0.03436568 0.00357740 0.00644623
v 0.03436568 0.00353578 0.00614456
v 0.03436568 0.00352618 0.00587579
v 0.03436568 0.00351657 0.00540061
v 0.03893992 0.00969769 0.00827945
v 0.03084931 -0.00026158 0.00658742
v 0.03111648 -0.00026158 0.00611961
v 0.03893992 0.00972491 0.00760128
v 0.03436568 0.00981456 0.00307293
v 0.01751250 0.01164600 0.00307293
v 0.02022466 0.01164600 0.00827945
v 0.01590409 0.01164440 0.00886577
v 0.01137573 0.00001858 0.00886577
v 0.02501210 -0.00470891 0.00827945
v 0.03117045 -0.00026158 0.00540061
v 0.01137303 -0.00470891 0.00886520
v 0.03436568 0.00356140 0.00498214
v 0.03436568 0.00396002 0.00466573
v 0.03436568 0.00467883 0.00440546
v 0.03029609 -0.00026158 0.00444062
v 0.02493383 -0.00026158 0.00307293
v 0.01734518 0.01164440 0.00307293
v 0.01734518 0.01164600 0.00324077
v 0.01734248 0.01164600 0.00683918
v 0.01662464 0.01164600 0.00611961
v 0.01590409 0.01164440 0.00662938
v 0.01531848 0.01162039 0.00886577
v 0.01137573 0.00036277 0.00886577
v 0.01137033 -0.00446878 0.00886520
v 0.02496082 -0.00470891 0.00776232
v 0.03113537 -0.00026158 0.00531329
v 0.02495542 -0.00470891 0.00774134
v 0.01561534 0.00755887 0.00307293
v 0.01569630 0.00683686 0.00307293
v 0.01704563 -0.00026158 0.00307293
v 0.01480034 -0.00470891 0.00766422
v 0.03090059 -0.00026158 0.00475873
v 0.03081963 -0.00026158 0.00471450
v 0.02492304 -0.00470891 0.00766422
v 0.01690260 0.01159637 0.00307293
v 0.01519434 0.01159637 0.00662938
v 0.01518355 0.01160598 0.00683918
v 0.01539404 0.01161718 0.00662938
v 0.01590409 0.01164120 0.00611961
v 0.01662464 0.01164600 0.00540061
v 0.01518355 0.01161078 0.00755989
v 0.01575027 0.01163800 0.00699455
v 0.01518355 0.01161398 0.00886577
v 0.01137843 0.00467883 0.00886577
v 0.01137033 -0.00395809 0.00886520
v 0.01561264 0.00971050 0.00307293
v 0.01679195 0.01158036 0.00307293
v 0.01521593 0.01157076 0.00617915
v 0.01473827 0.01154354 0.00683918
v 0.01507830 0.01159477 0.00699455
v 0.01518355 0.01160758 0.00699455
v 0.01468969 0.01154995 0.00755989
v 0.01467890 0.01154995 0.00886577
v 0.01138113 0.00539764 0.00886577
v 0.01570439 0.01026441 0.00307293
v 0.01140811 0.00611805 0.00886577
v 0.01258473 0.00971850 0.00782129
v 0.01643033 0.01139306 0.00307293
v 0.01630350 0.01150672 0.00364053
v 0.01481113 0.01152913 0.00645870
v 0.01433077 0.01145229 0.00755989
v 0.01433077 0.01146830 0.00827945
v 0.01431728 0.01146830 0.00886577
v 0.01461413 0.01153714 0.00886577
v 0.01573678 0.01043571 0.00307293
v 0.01185879 0.00899969 0.00886577
v 0.01229867 0.00971850 0.00827945
v 0.01606601 0.01103285 0.00307293
v 0.01325940 0.01089837 0.00775665
v 0.01317034 0.01094960 0.00827945
v 0.01374516 0.01126018 0.00827945
v 0.01374516 0.01126178 0.00886577
v 0.01264680 0.01010913 0.00789784
v 0.01207468 0.00974092 0.00886577
v 0.01252806 0.01023240 0.00827945
v 0.01281412 0.01059580 0.00827945
v 0.01248218 0.01039249 0.00886577
v 0.01279253 0.01068545 0.00886577
v 0.01314875 0.01095121 0.00886577
v 0.01325670 0.01101044 0.00886577
v 0.01243091 0.01032525 0.00886577
f 1 2 7
f 1 7 3
f 1 3 8
f 1 8 22
f 1 22 35
f 1 35 57
f 1 57 37
f 1 37 36
f 1 36 23
f 1 23 9
f 1 9 4
f 1 4 2
f 2 5 6
f 2 6 17
f 2 17 20
f 2 20 7
f 2 4 9
f 2 9 24
f 2 24 39
f 2 39 60
f 2 60 70
f 2 70 81
f 2 81 80
f 2 80 89
f 2 89 97
f 2 97 96
f 2 96 95
f 2 95 94
f 2 94 98
f 2 98 91
f 2 91 83
f 2 83 73
f 2 73 71
f 2 71 61
f 2 61 40
f 2 40 25
f 2 25 10
f 2 10 5
f 3 7 8
f 5 10 11
f 5 11 6
f 6 12 13
f 6 13 14
f 6 14 15
f 6 15 16
f 6 16 17
f 6 11 18
f 6 18 19
f 6 19 12
f 7 20 21
f 7 21 8
f 8 21 33
f 8 33 47
f 8 47 46
f 8 46 45
f 8 45 63
f 8 63 72
f 8 72 82
f 8 82 85
f 8 85 75
f 8 75 64
f 8 64 52
f 8 52 34
f 8 34 22
f 9 23 24
f 10 25 28
f 10 28 11
f 11 26 27
f 11 27 19
f 11 19 18
f 11 28 48
f 11 48 51
f 11 51 44
f 11 44 42
f 11 42 26
f 12 19 13
f 13 19 14
f 14 19 27
f 14 27 15
f 15 27 16
f 16 27 29
f 16 29 20
f 16 20 17
f 20 29 30
f 20 30 31
f 20 31 21
f 21 31 32
f 21 32 33
f 22 34 35
f 23 36 24
f 24 37 57
f 24 57 38
f 24 38 39
f 24 36 37
f 25 40 62
f 25 62 41
f 25 41 28
f 26 42 27
f 27 43 29
f 27 42 44
f 27 44 43
f 28 41 45
f 28 45 46
f 28 46 47
f 28 47 48
f 29 43 49
f 29 49 30
f 30 49 50
f 30 50 32
f 30 32 31
f 32 50 51
f 32 51 33
f 33 51 48
f 33 48 47
f 34 52 53
f 34 53 54
f 34 54 55
f 34 55 56
f 34 56 35
f 35 56 38
f 35 38 57
f 38 56 55
f 38 55 58
f 38 58 59
f 38 59 39
f 39 59 60
f 40 61 62
f 41 62 63
f 41 63 45
f 43 44 51
f 43 51 49
f 49 51 50
f 52 64 65
f 52 65 53
f 53 65 66
f 53 66 54
f 54 66 67
f 54 67 68
f 54 68 55
f 55 68 58
f 58 68 67
f 58 67 69
f 58 69 60
f 58 60 59
f 60 69 70
f 61 71 63
f 61 63 62
f 63 71 73
f 63 73 74
f 63 74 72
f 64 75 76
f 64 76 77
f 64 77 65
f 65 77 66
f 66 69 67
f 66 77 78
f 66 78 69
f 69 78 79
f 69 79 80
f 69 80 81
f 69 81 70
f 72 74 82
f 73 83 84
f 73 84 74
f 74 84 82
f 75 85 86
f 75 86 77
f 75 77 76
f 77 86 87
f 77 87 88
f 77 88 78
f 78 88 79
f 79 88 80
f 80 88 89
f 82 84 90
f 82 90 85
f 83 91 84
f 84 91 92
f 84 92 90
f 85 90 86
f 86 90 92
f 86 92 93
f 86 93 87
f 87 93 94
f 87 94 95
f 87 95 96
f 87 96 97
f 87 97 88
f 88 97 89
f 91 98 92
f 92 98 94
f 92 94 93

