# https://github.com/mikedh/trimesh
v 0.03951685 0.02083357 0.03461715
v 0.03951685 0.02083357 0.03164052
v 0.03657514 0.02083357 0.03544539
v 0.03951685 0.02032598 0.03461715
v 0.03951943 0.00112519 0.03458854
v 0.03951685 0.01694548 0.03163600
v 0.03742153 0.01863573 0.03036152
v 0.03741637 0.01988795 0.03036152
v 0.03741121 0.02082584 0.03036152
v 0.03751184 0.02083357 0.03061150
v 0.03951943 0.00112519 0.03162496
v 0.03657514 0.00112519 0.03544539
v 0.03532105 0.02083357 0.03548956
v 0.03951685 0.01907117 0.03461665
v 0.03951943 0.00109942 0.03458854
v 0.03951943 -0.00267529 0.03162094
v 0.03951685 0.01192885 0.03163098
v 0.03742153 0.01862800 0.03036152
v 0.03330830 0.02083357 0.03036152
v 0.03951685 0.01155009 0.03461063
v 0.03951685 0.01280232 0.03461213
v 0.03951685 0.01531192 0.03461414
v 0.03532105 0.00112519 0.03548956
v 0.03532105 -0.00142049 0.03548906
v 0.03657256 -0.00016826 0.03544438
v 0.01315762 0.02083357 0.03548956
v 0.03951943 0.00026718 0.03458703
v 0.03951943 -0.00392751 0.03162395
v 0.03699059 0.01230246 0.03036152
v 0.03320766 0.02083357 0.03036152
v 0.01315762 0.00112519 0.03548956
v 0.03532105 -0.00267529 0.03521398
v 0.03657256 -0.00142049 0.03542531
v 0.01365565 -0.00142049 0.03548906
v 0.01365565 -0.00177606 0.03541125
v 0.03951943 -0.00267529 0.03457147
v 0.03951943 -0.00142049 0.03458001
v 0.03951943 -0.00016826 0.03458553
v 0.01315762 0.02083357 0.03181118
v 0.03951943 -0.00507152 0.03193216
v 0.01365565 -0.00506122 0.03203104
v 0.01365565 -0.00392751 0.03181068
v 0.03536492 0.01009689 0.03036152
v 0.03558167 0.01017677 0.03036152
v 0.03655450 0.01080803 0.03036152
v 0.03672223 0.01098067 0.03036152
v 0.03682029 0.01112496 0.03036152
v 0.03320766 0.01738093 0.03036152
v 0.01902813 0.00735540 0.03076961
v 0.01365565 -0.00545801 0.03284924
v 0.01365565 -0.00513336 0.03373069
v 0.01365565 -0.00497876 0.03407252
v 0.01365565 -0.00456136 0.03452228
v 0.01365565 -0.00437584 0.03469997
v 0.01365565 -0.00267529 0.03521398
v 0.01315762 0.00112519 0.03181118
v 0.03532105 -0.00437584 0.03470148
v 0.03657256 -0.00428566 0.03470148
v 0.03657256 -0.00267529 0.03513718
v 0.03908333 -0.00392751 0.03461163
v 0.03951943 -0.00392751 0.03454888
v 0.01809917 0.00735540 0.03086097
v 0.03951943 -0.00548893 0.03286380
v 0.01902813 0.00647420 0.03082182
v 0.03527460 0.01010462 0.03036152
v 0.03321541 0.01236687 0.03036152
v 0.03331862 0.01110177 0.03036152
v 0.03332120 0.01108631 0.03036152
v 0.03351990 0.01052976 0.03036152
v 0.03405921 0.01021799 0.03036152
v 0.03782666 -0.00497104 0.03407503
v 0.01651994 -0.00437584 0.03470148
v 0.03908333 -0.00497104 0.03404040
v 0.03951943 -0.00497104 0.03400978
f 1 2 10
f 1 10 19
f 1 19 30
f 1 30 39
f 1 39 26
f 1 26 13
f 1 13 3
f 1 3 12
f 1 12 4
f 1 4 15
f 1 15 5
f 1 5 11
f 1 11 2
f 2 6 7
f 2 7 8
f 2 8 9
f 2 9 10
f 2 11 6
f 3 13 23
f 3 23 12
f 4 12 14
f 4 14 15
f 5 15 27
f 5 27 38
f 5 38 37
f 5 37 36
f 5 36 61
f 5 61 74
f 5 74 63
f 5 63 40
f 5 40 28
f 5 28 16
f 5 16 11
f 6 11 16
f 6 16 17
f 6 17 7
f 7 18 29
f 7 29 47
f 7 47 46
f 7 46 45
f 7 45 44
f 7 44 43
f 7 43 65
f 7 65 70
f 7 70 69
f 7 69 68
f 7 68 67
f 7 67 66
f 7 66 48
f 7 48 30
f 7 30 19
f 7 19 9
f 7 9 8
f 7 17 16
f 7 16 18
f 9 19 10
f 12 20 21
f 12 21 22
f 12 22 14
f 12 23 24
f 12 24 25
f 12 25 20
f 13 26 31
f 13 31 23
f 14 22 15
f 15 22 21
f 15 21 20
f 15 20 27
f 16 28 18
f 18 28 29
f 20 25 27
f 23 31 34
f 23 34 24
f 24 32 33
f 24 33 25
f 24 34 35
f 24 35 32
f 25 33 36
f 25 36 37
f 25 37 38
f 25 38 27
f 26 39 56
f 26 56 31
f 28 40 41
f 28 41 42
f 28 42 43
f 28 43 44
f 28 44 45
f 28 45 46
f 28 46 47
f 28 47 29
f 30 48 49
f 30 49 39
f 31 50 51
f 31 51 52
f 31 52 53
f 31 53 54
f 31 54 55
f 31 55 35
f 31 35 34
f 31 56 50
f 32 57 58
f 32 58 59
f 32 59 33
f 32 35 55
f 32 55 72
f 32 72 57
f 33 59 60
f 33 60 61
f 33 61 36
f 39 49 62
f 39 62 56
f 40 63 50
f 40 50 41
f 41 50 56
f 41 56 42
f 42 56 62
f 42 62 49
f 42 49 64
f 42 64 65
f 42 65 43
f 48 66 49
f 49 66 67
f 49 67 68
f 49 68 69
f 49 69 70
f 49 70 64
f 50 63 51
f 51 63 71
f 51 71 52
f 52 71 53
f 53 71 57
f 53 57 72
f 53 72 54
f 54 72 55
f 57 71 73
f 57 73 58
f 58 73 74
f 58 74 60
f 58 60 59
f 60 74 61
f 63 74 73
f 63 73 71
f 64 70 65

