# https://github.com/mikedh/trimesh
v 0.08526096 0.03354977 0.02032536
v 0.08525747 0.03354977 0.02042860
v 0.08582679 0.00960945 0.02118969
v 0.08582679 0.01008162 0.02032110
v 0.08582679 0.01056276 0.01528361
v 0.08503743 0.03354977 0.01944909
v 0.08506537 0.03354977 0.02116921
v 0.08582679 0.00735617 0.02166835
v 0.08582679 0.00859637 0.02149173
v 0.08582679 0.00639688 0.01528361
v 0.08541115 0.01079884 0.01528361
v 0.08406994 0.03354977 0.01583224
v 0.08501298 0.03354977 0.02120334
v 0.08410487 0.03354977 0.02160521
v 0.08256108 0.03117397 0.02234240
v 0.08582679 0.00610402 0.02168797
v 0.08582679 0.00411970 0.01589538
v 0.08418171 0.00301996 0.01571535
v 0.08296274 0.00301996 0.01565477
v 0.08503045 0.00638194 0.01528361
v 0.08433539 0.01122320 0.01528361
v 0.08296274 0.01130987 0.01528361
v 0.08207559 0.03354977 0.01583224
v 0.08243534 0.03319714 0.02225964
v 0.08251916 0.03242612 0.02231425
v 0.08185554 0.03354977 0.02233302
v 0.08256108 0.02991883 0.02234411
v 0.08170885 0.03242612 0.02245588
v 0.08170885 0.03117397 0.02248404
v 0.08582679 0.00301996 0.02168797
v 0.08582679 0.00367442 0.01660100
v 0.08530637 0.00301996 0.01661892
v 0.08259950 0.00301996 0.01569060
v 0.08168440 0.00736812 0.01528361
v 0.08296274 0.00657918 0.01528361
v 0.08421664 0.00638194 0.01528361
v 0.08292083 0.01130389 0.01528361
v 0.08169139 0.01093631 0.01528361
v 0.08143991 0.01065540 0.01528361
v 0.08082868 0.00986346 0.01528361
v 0.06290744 0.03354977 0.01890473
v 0.08170536 0.03354977 0.02235947
v 0.08170885 0.02991883 0.02248575
v 0.08235151 0.02083101 0.02237909
v 0.08256108 0.02083101 0.02234411
v 0.08045496 0.03354977 0.02248831
v 0.05912829 0.03354977 0.02399938
v 0.08582679 0.00301996 0.01821958
v 0.08256457 0.00301996 0.02234326
v 0.08551244 0.00301996 0.01711891
v 0.06185962 0.00301996 0.01953271
v 0.08064706 0.00861131 0.01528361
v 0.08067151 0.00886832 0.01528361
v 0.06154876 0.03354977 0.01912742
v 0.05914576 0.02113882 0.02399938
v 0.08170885 0.00301996 0.02248575
v 0.05014497 0.03354977 0.02399938
v 0.06185962 0.00301996 0.02328949
v 0.05016593 0.02083101 0.02399938
v 0.05036851 0.02083101 0.02387140
v 0.05101815 0.02083101 0.02346867
v 0.05164335 0.02083101 0.02314530
v 0.05287978 0.02083101 0.02254718
v 0.05357135 0.02083101 0.02223404
v 0.05420004 0.02083101 0.02197125
v 0.05699074 0.02083101 0.02083560
v 0.05789186 0.02083101 0.02052672
v 0.05692787 0.03354977 0.02081682
v 0.05914576 0.02083101 0.02399938
v 0.05036851 0.03354977 0.02386030
v 0.05101815 0.03354977 0.02346867
v 0.05108102 0.03354977 0.02343454
v 0.05164335 0.03117397 0.02314017
v 0.05287978 0.02991883 0.02253779
v 0.05287978 0.02239695 0.02254547
v 0.05357135 0.02114479 0.02223319
v 0.05418956 0.02615938 0.02195504
v 0.05419655 0.02239695 0.02196613
v 0.05538757 0.03354977 0.02143030
v 0.05629918 0.03354977 0.02106426
v 0.05164335 0.03354977 0.02314017
v 0.05287978 0.03354977 0.02253609
v 0.05294964 0.03354977 0.02250281
v 0.05355388 0.03354977 0.02222807
v 0.05355738 0.03117397 0.02222892
v 0.05356436 0.02490424 0.02223234
v 0.05418258 0.03242612 0.02194480
v 0.05418258 0.03354977 0.02194394
f 1 2 3
f 1 3 4
f 1 4 5
f 1 5 6
f 1 6 12
f 1 12 23
f 1 23 41
f 1 41 54
f 1 54 68
f 1 68 80
f 1 80 79
f 1 79 88
f 1 88 84
f 1 84 83
f 1 83 82
f 1 82 81
f 1 81 72
f 1 72 71
f 1 71 70
f 1 70 57
f 1 57 47
f 1 47 46
f 1 46 42
f 1 42 26
f 1 26 14
f 1 14 13
f 1 13 7
f 1 7 2
f 2 7 8
f 2 8 9
f 2 9 3
f 3 9 8
f 3 8 16
f 3 16 30
f 3 30 48
f 3 48 31
f 3 31 17
f 3 17 10
f 3 10 5
f 3 5 4
f 5 10 20
f 5 20 36
f 5 36 35
f 5 35 34
f 5 34 52
f 5 52 53
f 5 53 40
f 5 40 39
f 5 39 38
f 5 38 37
f 5 37 22
f 5 22 21
f 5 21 11
f 5 11 12
f 5 12 6
f 7 13 8
f 8 13 14
f 8 14 15
f 8 15 16
f 10 17 18
f 10 18 19
f 10 19 20
f 11 21 12
f 12 21 22
f 12 22 23
f 14 24 25
f 14 25 15
f 14 26 24
f 15 27 16
f 15 25 28
f 15 28 29
f 15 29 43
f 15 43 27
f 16 27 45
f 16 45 30
f 17 31 32
f 17 32 18
f 18 32 50
f 18 50 48
f 18 48 30
f 18 30 49
f 18 49 56
f 18 56 58
f 18 58 51
f 18 51 33
f 18 33 19
f 19 33 34
f 19 34 35
f 19 35 36
f 19 36 20
f 22 37 23
f 23 38 39
f 23 39 40
f 23 40 41
f 23 37 38
f 24 26 25
f 25 26 42
f 25 42 28
f 27 43 44
f 27 44 45
f 28 42 46
f 28 46 47
f 28 47 29
f 29 47 43
f 30 45 49
f 31 48 50
f 31 50 32
f 33 51 52
f 33 52 34
f 40 53 54
f 40 54 41
f 43 47 55
f 43 55 69
f 43 69 56
f 43 56 44
f 44 49 45
f 44 56 49
f 47 57 59
f 47 59 69
f 47 69 55
f 51 58 59
f 51 59 60
f 51 60 61
f 51 61 62
f 51 62 63
f 51 63 64
f 51 64 65
f 51 65 66
f 51 66 67
f 51 67 54
f 51 54 52
f 52 54 53
f 54 67 66
f 54 66 68
f 56 69 58
f 57 70 60
f 57 60 59
f 58 69 59
f 60 70 61
f 61 70 71
f 61 71 72
f 61 72 73
f 61 73 62
f 62 73 74
f 62 74 75
f 62 75 63
f 63 75 76
f 63 76 64
f 64 76 77
f 64 77 78
f 64 78 65
f 65 78 79
f 65 79 66
f 66 79 80
f 66 80 68
f 72 81 73
f 73 81 82
f 73 82 74
f 74 82 83
f 74 83 84
f 74 84 75
f 75 84 85
f 75 85 86
f 75 86 76
f 76 86 87
f 76 87 77
f 77 87 79
f 77 79 78
f 79 87 88
f 84 88 87
f 84 87 85
f 85 87 86

