# https://github.com/mikedh/trimesh
v 0.08076037 0.03139236 -0.02477739
v 0.08076037 0.03052525 -0.02477625
v 0.08076037 0.03139236 -0.02773549
v 0.04136334 0.03139236 -0.02582109
v -0.00037190 0.02900143 -0.02284753
v 0.00363186 0.02900143 -0.02284753
v 0.08076037 0.02049608 -0.02477396
v 0.08076037 0.02996098 -0.02773606
v 0.08047210 0.02899186 -0.02778991
v 0.08047210 0.03139236 -0.02778876
v 0.04136334 0.03139236 -0.02869956
v -0.00036389 0.02900143 -0.02288075
v -0.00104453 0.02111772 -0.02284753
v 0.00363186 0.02146839 -0.02284753
v 0.08076037 0.01908702 -0.02477396
v 0.08076037 0.02773901 -0.02773663
v 0.08047210 0.02773901 -0.02778991
v 0.07967936 0.03139236 -0.02793025
v 0.06918950 0.03139236 -0.02869956
v 0.00903694 0.02899824 -0.02869956
v 0.00901292 0.02900143 -0.02869899
v 0.00776375 0.02900143 -0.02868238
v 0.00651458 0.02900143 -0.02856896
v 0.00525739 0.02900143 -0.02825447
v 0.00452870 0.02900143 -0.02799613
v 0.00390412 0.02900143 -0.02770226
v 0.00389611 0.02900143 -0.02769825
v 0.00286314 0.02900143 -0.02707559
v 0.00223856 0.02900143 -0.02660300
v 0.00158994 0.02900143 -0.02597117
v 0.00096536 0.02900143 -0.02531356
v 0.00055697 0.02900143 -0.02468689
v -0.00005160 0.02900143 -0.02356586
v -0.00104453 0.01018956 -0.02592191
v -0.00104453 0.01150617 -0.02558337
v -0.00104453 0.01395130 -0.02491373
v -0.00104453 0.01772578 -0.02386258
v -0.00104453 0.02017410 -0.02313337
v -0.00104453 0.01719021 -0.02284753
v 0.00359182 0.02100614 -0.02284753
v 0.07818996 -0.00117215 -0.02520301
v 0.08076037 0.01908702 -0.02773262
v 0.00270299 0.01269845 -0.02284753
v 0.00247878 0.01144560 -0.02284753
v 0.00227059 0.01083671 -0.02284753
v 0.08076037 0.02745848 -0.02773663
v 0.08076037 0.02620244 -0.02773606
v 0.08047210 0.01908702 -0.02778475
v 0.07967936 0.02773901 -0.02793025
v 0.07910282 0.03139236 -0.02801102
v 0.07031856 0.01908702 -0.02869612
v 0.06918950 0.01908702 -0.02869956
v 0.07043867 0.03139236 -0.02869326
v 0.07043867 0.03024471 -0.02869440
v 0.07043867 0.02773901 -0.02869555
v 0.00903694 -0.00117534 -0.02869956
v 0.00776375 0.02899186 -0.02868238
v 0.00651458 0.02899186 -0.02856896
v -0.00104453 0.00019227 -0.02718042
v -0.00104453 0.00141324 -0.02716266
v 0.00525739 0.02899186 -0.02825676
v -0.00104453 0.00144194 -0.02716151
v -0.00104453 0.00266928 -0.02710595
v -0.00104453 0.00392213 -0.02699997
v -0.00104453 0.00517817 -0.02685104
v -0.00104453 0.00600702 -0.02673246
v -0.00104453 0.00602296 -0.02673017
v -0.00104453 0.00666055 -0.02662706
v -0.00104453 0.00771574 -0.02644089
v -0.00104453 0.00893671 -0.02620088
v -0.00103652 0.01047648 -0.02284753
v -0.00104453 0.01047648 -0.02284810
v 0.04136334 -0.00117534 -0.02582052
v 0.07818996 -0.00117215 -0.02811470
v 0.00150186 0.01051792 -0.02284753
v 0.00275104 -0.00117534 -0.02428075
v 0.07963131 0.01908702 -0.02792509
v 0.07967135 0.02647979 -0.02793025
v 0.07796575 -0.00117215 -0.02815022
v 0.07670856 -0.00117215 -0.02832321
v 0.07796575 0.03139236 -0.02816797
v 0.07043867 -0.00117215 -0.02869555
v 0.06926156 -0.00117215 -0.02869841
v 0.04136334 -0.00117534 -0.02869956
v 0.07055077 0.03139236 -0.02869040
v 0.07169585 0.02773901 -0.02867378
v 0.07169585 0.01908702 -0.02867894
v 0.00776375 -0.00117534 -0.02866920
v 0.00776375 0.02021554 -0.02868009
v 0.00776375 0.02146839 -0.02868066
v 0.00651458 0.02146839 -0.02856552
v -0.00104453 0.00016040 -0.02718042
v -0.00101251 0.01047648 -0.02284753
v -0.00104453 -0.00117534 -0.02427101
v 0.00057299 0.01049879 -0.02284753
v -0.00101251 -0.00117534 -0.02427101
v 0.07545939 0.02773901 -0.02846012
v 0.07670856 0.03139236 -0.02833066
v 0.07682067 0.03139236 -0.02831691
v 0.07545939 -0.00117215 -0.02844580
v 0.07545939 0.00768387 -0.02845210
v 0.07545939 0.01019275 -0.02845325
v 0.07545939 0.01908702 -0.02845725
v 0.07169585 -0.00117215 -0.02867837
v 0.07295303 -0.00117215 -0.02863655
v 0.07420221 -0.00117215 -0.02855234
v 0.07169585 0.03139236 -0.02865832
v 0.07169585 0.03024471 -0.02866405
v 0.07295303 0.02773901 -0.02862452
v 0.07295303 0.02021554 -0.02863369
v 0.07295303 0.01908702 -0.02863426
v 0.07295303 0.00893671 -0.02863598
v 0.07295303 0.00266928 -0.02863655
v 0.00651458 -0.00117534 -0.02854318
v 0.00651458 0.01645062 -0.02856151
v 0.00651458 0.01895951 -0.02856380
v -0.00104453 -0.00106057 -0.02717011
v -0.00104453 -0.00117534 -0.02606225
v 0.07545939 0.02899186 -0.02846012
v 0.07420221 0.01019275 -0.02855692
v 0.07420221 0.02272443 -0.02855864
v 0.07545939 0.03024471 -0.02845783
v 0.07545939 0.03139236 -0.02845439
v 0.07180796 0.03139236 -0.02865373
v 0.07295303 0.03139236 -0.02859645
v 0.07420221 0.03139236 -0.02853229
v 0.07420221 0.03024471 -0.02854031
v 0.07420221 0.02899186 -0.02854776
v 0.07420221 0.02773901 -0.02855349
v 0.07420221 0.02647979 -0.02855807
v -0.00101251 -0.00117534 -0.02716667
v -0.00104453 -0.00117215 -0.02716667
v -0.00104453 -0.00109245 -0.02716953
f 1 2 7
f 1 7 15
f 1 15 42
f 1 42 47
f 1 47 46
f 1 46 16
f 1 16 8
f 1 8 3
f 1 3 10
f 1 10 18
f 1 18 50
f 1 50 81
f 1 81 99
f 1 99 98
f 1 98 123
f 1 123 126
f 1 126 125
f 1 125 124
f 1 124 107
f 1 107 85
f 1 85 53
f 1 53 19
f 1 19 11
f 1 11 4
f 1 4 5
f 1 5 6
f 1 6 2
f 2 6 7
f 3 8 9
f 3 9 10
f 4 11 5
f 5 12 13
f 5 13 39
f 5 39 71
f 5 71 93
f 5 93 95
f 5 95 75
f 5 75 45
f 5 45 44
f 5 44 43
f 5 43 40
f 5 40 14
f 5 14 6
f 5 11 12
f 6 14 15
f 6 15 7
f 8 16 9
f 9 16 46
f 9 46 17
f 9 17 49
f 9 49 18
f 9 18 10
f 11 19 52
f 11 52 84
f 11 84 56
f 11 56 20
f 11 20 21
f 11 21 22
f 11 22 23
f 11 23 24
f 11 24 25
f 11 25 26
f 11 26 27
f 11 27 28
f 11 28 29
f 11 29 30
f 11 30 31
f 11 31 32
f 11 32 33
f 11 33 12
f 12 33 34
f 12 34 35
f 12 35 36
f 12 36 37
f 12 37 38
f 12 38 13
f 13 38 37
f 13 37 36
f 13 36 35
f 13 35 34
f 13 34 70
f 13 70 69
f 13 69 68
f 13 68 67
f 13 67 66
f 13 66 65
f 13 65 64
f 13 64 63
f 13 63 62
f 13 62 60
f 13 60 59
f 13 59 92
f 13 92 117
f 13 117 133
f 13 133 132
f 13 132 118
f 13 118 94
f 13 94 72
f 13 72 39
f 14 40 15
f 15 41 74
f 15 74 42
f 15 40 43
f 15 43 44
f 15 44 45
f 15 45 41
f 17 46 47
f 17 47 42
f 17 42 48
f 17 48 49
f 18 49 50
f 19 51 52
f 19 53 54
f 19 54 55
f 19 55 51
f 20 56 57
f 20 57 22
f 20 22 21
f 22 57 58
f 22 58 23
f 23 58 92
f 23 92 59
f 23 59 60
f 23 60 61
f 23 61 24
f 24 61 25
f 25 61 62
f 25 62 63
f 25 63 26
f 26 63 27
f 27 63 64
f 27 64 28
f 28 64 29
f 29 64 65
f 29 65 66
f 29 66 67
f 29 67 30
f 30 67 31
f 31 67 68
f 31 68 69
f 31 69 70
f 31 70 32
f 32 70 33
f 33 70 34
f 39 72 71
f 41 73 84
f 41 84 74
f 41 45 75
f 41 75 76
f 41 76 73
f 42 74 48
f 48 77 78
f 48 78 49
f 48 74 77
f 49 78 79
f 49 79 80
f 49 80 81
f 49 81 50
f 51 82 52
f 51 55 82
f 52 82 83
f 52 83 84
f 53 85 86
f 53 86 54
f 54 86 87
f 54 87 55
f 55 87 82
f 56 88 89
f 56 89 90
f 56 90 57
f 56 84 73
f 56 73 76
f 56 76 96
f 56 96 94
f 56 94 118
f 56 118 131
f 56 131 114
f 56 114 88
f 57 90 58
f 58 90 91
f 58 91 92
f 60 62 61
f 71 72 94
f 71 94 96
f 71 96 93
f 74 79 77
f 74 84 79
f 75 95 96
f 75 96 76
f 77 79 78
f 79 84 80
f 80 97 98
f 80 98 99
f 80 99 81
f 80 84 100
f 80 100 101
f 80 101 102
f 80 102 103
f 80 103 97
f 82 84 83
f 82 87 104
f 82 104 84
f 84 104 105
f 84 105 106
f 84 106 100
f 85 107 108
f 85 108 86
f 86 108 109
f 86 109 110
f 86 110 87
f 87 110 111
f 87 111 112
f 87 112 113
f 87 113 105
f 87 105 104
f 88 114 115
f 88 115 116
f 88 116 91
f 88 91 89
f 89 91 90
f 91 116 92
f 92 116 115
f 92 115 114
f 92 114 117
f 93 96 95
f 97 119 98
f 97 103 120
f 97 120 121
f 97 121 119
f 98 119 122
f 98 122 123
f 100 106 101
f 101 106 102
f 102 106 103
f 103 106 120
f 105 113 121
f 105 121 120
f 105 120 106
f 107 124 108
f 108 124 109
f 109 124 125
f 109 125 126
f 109 126 127
f 109 127 128
f 109 128 129
f 109 129 130
f 109 130 110
f 110 130 111
f 111 130 112
f 112 130 121
f 112 121 113
f 114 131 132
f 114 132 133
f 114 133 117
f 118 132 131
f 119 121 130
f 119 130 122
f 122 130 123
f 123 130 129
f 123 129 128
f 123 128 127
f 123 127 126

