# https://github.com/mikedh/trimesh
v 0.09337464 -0.00117534 -0.02385826
v 0.09343046 -0.00141008 -0.02385826
v 0.09322579 -0.00117534 -0.02394896
v 0.08481577 -0.00117534 -0.02385826
v 0.01293054 -0.04120461 -0.01866162
v 0.04458907 -0.04199740 -0.01866162
v 0.09457474 -0.03404735 -0.02334757
v 0.09345837 -0.00268563 -0.02385826
v 0.09253736 -0.00117534 -0.02425656
v 0.00022247 -0.00117534 -0.02579653
v 0.01293054 -0.04519957 -0.01866162
v -0.00046596 -0.02837381 -0.02253716
v 0.04458907 -0.04641311 -0.01866162
v 0.09457474 -0.03494201 -0.02334757
v 0.09451893 -0.03404735 -0.02337517
v 0.09425844 -0.03404735 -0.02349644
v 0.09425844 -0.03494201 -0.02349644
v 0.09347698 -0.03404735 -0.02384742
v 0.09316067 -0.03494201 -0.02398840
v 0.09316067 -0.03404735 -0.02398840
v 0.09253736 -0.03494201 -0.02425755
v 0.09180241 -0.00117534 -0.02454444
v 0.00022247 -0.00117534 -0.02716889
v 0.01403761 -0.04531472 -0.01980624
v 0.01518189 -0.04542545 -0.01866162
v -0.00045666 -0.02993282 -0.02253716
v -0.00043805 -0.03118622 -0.02253716
v -0.00036362 -0.03244406 -0.02253716
v -0.00027990 -0.03301983 -0.02253716
v -0.00015895 -0.03373290 -0.02253716
v -0.00011244 -0.03395434 -0.02253716
v 0.00012944 -0.03495087 -0.02253716
v 0.00018526 -0.03516789 -0.02253716
v 0.00056669 -0.03625742 -0.02253716
v 0.00063181 -0.03643015 -0.02253716
v 0.00104115 -0.03728495 -0.02253716
v 0.00118069 -0.03753297 -0.02253716
v 0.00219474 -0.03916284 -0.02253716
v 0.00225985 -0.03924699 -0.02253716
v 0.00326459 -0.04035425 -0.02253716
v 0.00359950 -0.04068199 -0.02253716
v 0.00484612 -0.04169180 -0.02253716
v 0.00495776 -0.04177152 -0.02253716
v 0.00546943 -0.04209927 -0.02253716
v 0.00636253 -0.04258646 -0.02253716
v 0.00651138 -0.04266618 -0.02253716
v 0.01040939 -0.04459722 -0.02253716
v 0.01126528 -0.04485410 -0.02253716
v 0.01293054 -0.04519957 -0.01980624
v 0.06916792 -0.04399488 -0.02334757
v 0.07417300 -0.04348112 -0.02334757
v 0.07545683 -0.04334381 -0.02334757
v 0.07671275 -0.04317552 -0.02334757
v 0.07796867 -0.04298064 -0.02334757
v 0.07907574 -0.04278576 -0.02334757
v 0.08046191 -0.04252002 -0.02334757
v 0.08194111 -0.04222771 -0.02334757
v 0.08430410 -0.04170066 -0.02334757
v 0.08673221 -0.04114260 -0.02334757
v 0.08784859 -0.04086801 -0.02334757
v 0.08795092 -0.04083700 -0.02334757
v 0.08871378 -0.04059341 -0.02334757
v 0.08956967 -0.04024795 -0.02334757
v 0.09061162 -0.03980062 -0.02334757
v 0.09143029 -0.03941087 -0.02334757
v 0.09209081 -0.03901669 -0.02334757
v 0.09257457 -0.03865351 -0.02334757
v 0.09341185 -0.03784300 -0.02334757
v 0.09373747 -0.03738682 -0.02334757
v 0.09431426 -0.03624856 -0.02334757
v 0.09433286 -0.03619984 -0.02334757
v 0.04401227 -0.04642197 -0.01866162
v 0.03786291 -0.04608536 -0.02231337
v 0.03911883 -0.04605879 -0.02231337
v 0.04037475 -0.04602779 -0.02231337
v 0.04286799 -0.04595692 -0.02231337
v 0.04412391 -0.04591264 -0.02231337
v 0.04458907 -0.04589049 -0.02231337
v 0.06543736 -0.04427834 -0.02334757
v 0.06732590 -0.04414547 -0.02334757
v 0.06834924 -0.04406575 -0.02334757
v 0.09425844 -0.03619984 -0.02338306
v 0.09248154 -0.03584553 -0.02423586
v 0.09175590 -0.03494201 -0.02456022
v 0.09058370 -0.00117534 -0.02500486
v 0.00022247 -0.00233574 -0.02712255
v 0.00652068 -0.00117534 -0.02854224
v 0.00651138 -0.03118622 -0.02855013
v 0.00526477 -0.03118622 -0.02825042
v 0.00526477 -0.03244406 -0.02824450
v 0.00453912 -0.03244406 -0.02799606
v 0.01529353 -0.04543873 -0.01980624
v 0.01293054 -0.04519071 -0.02091636
v 0.01653085 -0.04554503 -0.01866162
v 0.00022247 -0.00235345 -0.02712157
v -0.00035432 -0.03118622 -0.02285166
v -0.00031711 -0.03244406 -0.02271758
v 0.00022247 -0.00360686 -0.02703382
v 0.00021317 -0.03369303 -0.02356644
v 0.00055739 -0.03501730 -0.02366601
v 0.00070624 -0.03596511 -0.02331306
v 0.00088299 -0.03679776 -0.02290293
v 0.00199007 -0.03829033 -0.02356644
v 0.00222264 -0.03919828 -0.02256477
v 0.00344135 -0.04052254 -0.02266829
v 0.00424142 -0.04092116 -0.02356644
v 0.00502288 -0.04155007 -0.02356644
v 0.00564619 -0.04198855 -0.02356644
v 0.00651138 -0.04244473 -0.02356644
v 0.01056754 -0.04451307 -0.02313462
v 0.01152577 -0.04489396 -0.02253716
v 0.01293054 -0.04518628 -0.02106128
v 0.01152577 -0.04462823 -0.02325489
v 0.07169837 -0.04206827 -0.02576794
v 0.07545683 -0.04188668 -0.02551358
v 0.07616387 -0.04185125 -0.02546231
v 0.07700115 -0.04178481 -0.02536175
v 0.08113173 -0.04184681 -0.02420234
v 0.08196901 -0.04176709 -0.02406431
v 0.08297375 -0.04166523 -0.02387896
v 0.08673221 -0.04095659 -0.02364432
v 0.08713225 -0.04050926 -0.02411164
v 0.08798814 -0.04032767 -0.02393417
v 0.08891845 -0.03948173 -0.02430586
v 0.08975573 -0.03925142 -0.02414318
v 0.09165356 -0.03860036 -0.02375376
v 0.09117911 -0.03811317 -0.02421220
v 0.09301182 -0.03744882 -0.02366897
v 0.09232339 -0.03667818 -0.02416882
v 0.04275635 -0.04642197 -0.01866162
v 0.03409514 -0.04611637 -0.02231337
v 0.03534176 -0.04611194 -0.02231337
v 0.03786291 -0.04582406 -0.02320659
v 0.04037475 -0.04579748 -0.02317997
v 0.04286799 -0.04575762 -0.02314152
v 0.04412391 -0.04573547 -0.02311687
v 0.04458907 -0.04572219 -0.02310307
v 0.06418144 -0.04435806 -0.02334757
v 0.05415268 -0.04327295 -0.02570681
v 0.06919583 -0.04216128 -0.02589610
v 0.07044244 -0.04211698 -0.02584089
v 0.09294670 -0.03623528 -0.02397361
v 0.09183963 -0.03623528 -0.02441924
v 0.09049998 -0.03619984 -0.02492697
v 0.08948594 -0.03619984 -0.02530260
v 0.08886263 -0.03619984 -0.02553132
v 0.09049998 -0.03494201 -0.02502359
v 0.09049998 -0.02094638 -0.02502852
v 0.08961618 -0.02116340 -0.02535090
v 0.08899287 -0.00862049 -0.02558062
v 0.08899287 -0.00117534 -0.02558160
v 0.00391581 -0.03244406 -0.02767564
v 0.00659511 -0.00117534 -0.02855013
v 0.00777661 -0.00117534 -0.02866942
v 0.00777661 -0.02094638 -0.02866942
v 0.00776730 -0.02993282 -0.02866745
v 0.00776730 -0.03118622 -0.02865956
v 0.00903253 -0.03744882 -0.02857477
v 0.00651138 -0.03619542 -0.02827802
v 0.00540431 -0.03494644 -0.02814197
v 0.00515313 -0.03375061 -0.02815478
v 0.00458564 -0.03336972 -0.02797732
v 0.01529353 -0.04542101 -0.02106128
v 0.01654945 -0.04553617 -0.02106128
v 0.01718207 -0.04559817 -0.02027158
v 0.01716346 -0.04559817 -0.01943653
v 0.01715416 -0.04559817 -0.01866162
v 0.00289247 -0.03244406 -0.02704763
v 0.00226916 -0.03244406 -0.02657834
v 0.00005501 -0.03244406 -0.02356644
v 0.00022247 -0.00484255 -0.02690270
v 0.00165515 -0.03244406 -0.02595131
v 0.00102254 -0.03244406 -0.02523753
v 0.00061320 -0.03244406 -0.02460951
v 0.00068763 -0.03369303 -0.02448825
v 0.00078996 -0.03464970 -0.02432656
v 0.00089230 -0.03548235 -0.02414713
v 0.00101324 -0.03630614 -0.02366601
v 0.00150630 -0.03744882 -0.02356644
v 0.00212961 -0.03807774 -0.02419445
v 0.00241801 -0.03891482 -0.02356644
v 0.00304132 -0.03971647 -0.02356644
v 0.00360881 -0.04033653 -0.02356644
v 0.00446469 -0.04072628 -0.02443008
v 0.00583226 -0.04186896 -0.02425755
v 0.00841852 -0.04308693 -0.02417473
v 0.00776730 -0.04249345 -0.02481951
v 0.00776730 -0.04200183 -0.02566146
v 0.00903253 -0.04220999 -0.02594145
v 0.01027915 -0.04297178 -0.02523358
v 0.01844729 -0.04559817 -0.02292068
v 0.01293054 -0.04511542 -0.02231337
v 0.01293054 -0.04512427 -0.02216943
v 0.01021402 -0.04228086 -0.02618497
v 0.01124667 -0.04305150 -0.02537851
v 0.01208395 -0.04309579 -0.02545738
v 0.01293054 -0.04314451 -0.02552344
v 0.01529353 -0.04327295 -0.02569892
v 0.07044244 -0.04162979 -0.02646595
v 0.07169837 -0.04156336 -0.02639299
v 0.07635923 -0.04064213 -0.02674890
v 0.07667554 -0.04121347 -0.02606568
v 0.07796867 -0.04107174 -0.02596413
v 0.08046191 -0.04083700 -0.02570977
v 0.07545683 -0.04133305 -0.02613765
v 0.07796867 -0.04169623 -0.02523358
v 0.08046191 -0.04146150 -0.02491021
v 0.08162480 -0.04139063 -0.02470021
v 0.08548560 -0.04074400 -0.02436797
v 0.08630427 -0.04063327 -0.02424769
v 0.08798814 -0.03969875 -0.02447740
v 0.08244347 -0.04061113 -0.02547414
v 0.08328076 -0.04046940 -0.02533710
v 0.08673221 -0.04003535 -0.02462332
v 0.08604378 -0.03929128 -0.02542386
v 0.08674152 -0.03909198 -0.02531640
v 0.08798814 -0.03866237 -0.02512316
v 0.08929987 -0.03878195 -0.02456811
v 0.09206290 -0.03744882 -0.02406826
v 0.08756949 -0.03821504 -0.02551653
v 0.08840678 -0.03777657 -0.02536471
v 0.08916963 -0.03739567 -0.02517837
v 0.08869517 -0.03693949 -0.02547414
v 0.03899789 -0.04640425 -0.01866162
v 0.03159260 -0.04611637 -0.02231337
v 0.03283922 -0.04583291 -0.02321644
v 0.03659768 -0.04583291 -0.02321349
v 0.03659768 -0.04371142 -0.02607258
v 0.03786291 -0.04368485 -0.02607258
v 0.04208653 -0.04308693 -0.02669270
v 0.04663575 -0.04348555 -0.02597793
v 0.04788237 -0.04346340 -0.02595131
v 0.04913829 -0.04343240 -0.02591385
v 0.05039421 -0.04339253 -0.02586751
v 0.06793991 -0.04171838 -0.02656947
v 0.06919583 -0.04167409 -0.02652017
v 0.06543736 -0.04180695 -0.02666510
v 0.08898357 -0.03494201 -0.02557569
v 0.08798814 -0.03619984 -0.02583399
v 0.08798814 -0.03494201 -0.02591681
v 0.08798814 -0.00611367 -0.02591878
v 0.08798814 -0.00117534 -0.02591878
v 0.00410188 -0.03375061 -0.02768550
v 0.00297619 -0.03369303 -0.02699932
v 0.00903253 -0.00117534 -0.02869900
v 0.00903253 -0.02993282 -0.02869900
v 0.01027915 -0.03619542 -0.02867336
v 0.01027915 -0.03744882 -0.02865167
v 0.01027915 -0.03869780 -0.02845055
v 0.00903253 -0.03869780 -0.02830267
v 0.00776730 -0.03744882 -0.02838548
v 0.00654860 -0.03736910 -0.02809169
v 0.00565549 -0.03619542 -0.02805028
v 0.00478100 -0.03494644 -0.02789155
v 0.00466006 -0.03420680 -0.02794183
v 0.01811238 -0.04562032 -0.02208563
v 0.01726579 -0.04558932 -0.02106128
v 0.02030791 -0.04581077 -0.02106128
v 0.02030791 -0.04582406 -0.01980624
v 0.01778677 -0.04564689 -0.01866162
v 0.00235289 -0.03369303 -0.02649947
v 0.00173888 -0.03369303 -0.02587244
v 0.00110627 -0.03369303 -0.02511330
v 0.00119000 -0.03501730 -0.02477514
v 0.00201797 -0.03584995 -0.02556879
v 0.00217613 -0.03669146 -0.02537752
v 0.00196215 -0.03744882 -0.02445374
v 0.00238080 -0.03744882 -0.02508176
v 0.00325529 -0.03826376 -0.02558850
v 0.00283665 -0.03859150 -0.02470909
v 0.00324599 -0.03948616 -0.02439163
v 0.00400884 -0.03995563 -0.02482937
v 0.00479961 -0.04042954 -0.02526513
v 0.00532058 -0.04116475 -0.02476331
v 0.00626950 -0.04160322 -0.02509556
v 0.00709748 -0.04185567 -0.02547217
v 0.00661372 -0.04201069 -0.02473374
v 0.00776730 -0.04144821 -0.02628849
v 0.00903253 -0.04170066 -0.02656848
v 0.00974887 -0.04181581 -0.02667792
v 0.01928457 -0.04562032 -0.02297194
v 0.02532230 -0.04599679 -0.02231337
v 0.02406638 -0.04594364 -0.02231337
v 0.02156384 -0.04582406 -0.02231337
v 0.02030791 -0.04574876 -0.02231337
v 0.01894035 -0.04565575 -0.02242674
v 0.01654945 -0.04332610 -0.02577385
v 0.01058615 -0.04189111 -0.02675383
v 0.01160949 -0.04265732 -0.02595427
v 0.01529353 -0.04277248 -0.02632595
v 0.01654945 -0.04283005 -0.02639891
v 0.07044244 -0.04100088 -0.02705058
v 0.07169837 -0.04093887 -0.02699636
v 0.07545683 -0.04070856 -0.02680608
v 0.07674996 -0.04006193 -0.02707917
v 0.07719651 -0.04054912 -0.02666904
v 0.07545683 -0.03995563 -0.02732368
v 0.08172713 -0.04069970 -0.02556780
v 0.08290863 -0.04096102 -0.02487866
v 0.08290863 -0.04001321 -0.02580639
v 0.08422967 -0.03966775 -0.02569005
v 0.08046191 -0.04010179 -0.02633384
v 0.08166201 -0.03985377 -0.02625102
v 0.08520650 -0.03947730 -0.02554808
v 0.08674152 -0.03846749 -0.02564174
v 0.08204344 -0.03918942 -0.02662665
v 0.08297375 -0.03892811 -0.02650045
v 0.08798814 -0.03739567 -0.02561019
v 0.08364358 -0.03809988 -0.02670749
v 0.08674152 -0.03744882 -0.02599666
v 0.03774197 -0.04638654 -0.01866162
v 0.02907146 -0.04609422 -0.02231337
v 0.03032738 -0.04610751 -0.02231337
v 0.03032738 -0.04583291 -0.02321644
v 0.03534176 -0.04371142 -0.02607258
v 0.03659768 -0.04316223 -0.02676862
v 0.03786291 -0.04315337 -0.02675777
v 0.04788237 -0.04235172 -0.02710284
v 0.04913829 -0.04232072 -0.02708608
v 0.04458907 -0.04303822 -0.02664440
v 0.04788237 -0.04297621 -0.02657637
v 0.04913829 -0.04294521 -0.02654088
v 0.06470242 -0.04182910 -0.02669172
v 0.08674152 -0.03619984 -0.02622736
v 0.08674152 -0.03494201 -0.02630229
v 0.08674152 -0.03368860 -0.02630229
v 0.08674152 -0.01112287 -0.02630032
v 0.08674152 -0.00486027 -0.02629933
v 0.08674152 -0.00235345 -0.02629835
v 0.08674152 -0.00117534 -0.02629736
v 0.00400884 -0.03494644 -0.02745874
v 0.00312505 -0.03494644 -0.02689580
v 0.01529353 -0.02867941 -0.02873350
v 0.06354883 -0.00117534 -0.02869900
v 0.01529353 -0.03582338 -0.02873350
v 0.01152577 -0.03619542 -0.02869900
v 0.01152577 -0.03744882 -0.02866843
v 0.01529353 -0.03870666 -0.02857576
v 0.01293054 -0.03870666 -0.02853534
v 0.01152577 -0.03869780 -0.02850773
v 0.01152577 -0.03977405 -0.02816366
v 0.01027915 -0.03968104 -0.02812324
v 0.00903253 -0.03949502 -0.02803253
v 0.00835340 -0.03935329 -0.02796352
v 0.00786964 -0.03866680 -0.02808183
v 0.00699515 -0.03821947 -0.02800591
v 0.00583226 -0.03690406 -0.02797732
v 0.00503219 -0.03619542 -0.02776536
v 0.02156384 -0.04589049 -0.02106128
v 0.02156384 -0.04589935 -0.01980624
v 0.02030791 -0.04582406 -0.01866162
v 0.00250174 -0.03494644 -0.02635060
v 0.00187843 -0.03494644 -0.02572357
v 0.00272501 -0.03626628 -0.02610610
v 0.00344135 -0.03667375 -0.02664735
v 0.00301341 -0.03744882 -0.02582610
v 0.00366463 -0.03744882 -0.02645116
v 0.00453912 -0.03821061 -0.02677158
v 0.00404606 -0.03865794 -0.02604990
v 0.00439027 -0.03959689 -0.02567526
v 0.00355299 -0.03910527 -0.02522668
v 0.00525546 -0.03995563 -0.02607849
v 0.00563689 -0.04076171 -0.02564076
v 0.00705096 -0.04063770 -0.02674693
v 0.00666023 -0.04112046 -0.02597497
v 0.00776730 -0.04082372 -0.02688890
v 0.00903253 -0.04107617 -0.02707523
v 0.01021402 -0.04131976 -0.02711664
v 0.01779607 -0.04336596 -0.02582709
v 0.02156384 -0.04347668 -0.02596906
v 0.02030791 -0.04564689 -0.02301335
v 0.02281045 -0.04571776 -0.02309617
v 0.02657822 -0.04603665 -0.02231337
v 0.02532230 -0.04605436 -0.02106128
v 0.02406638 -0.04574876 -0.02313462
v 0.02406638 -0.04600121 -0.02106128
v 0.01779607 -0.04286991 -0.02645412
v 0.01152577 -0.04120461 -0.02734339
v 0.01152577 -0.04194868 -0.02681003
v 0.01529353 -0.04214799 -0.02697171
v 0.06919583 -0.04104517 -0.02708608
v 0.06919583 -0.04015937 -0.02771310
v 0.07044244 -0.04010622 -0.02767662
v 0.07169837 -0.04002207 -0.02762437
v 0.07796867 -0.03981834 -0.02702396
v 0.07545683 -0.03905212 -0.02784324
v 0.07671275 -0.03885724 -0.02776437
v 0.07921529 -0.03965003 -0.02690763
v 0.08046191 -0.03947730 -0.02679228
v 0.07796867 -0.04044725 -0.02658919
v 0.07240540 -0.03934443 -0.02795859
v 0.07324269 -0.03926471 -0.02792704
v 0.08120616 -0.03936658 -0.02672327
v 0.08166201 -0.03874652 -0.02691256
v 0.08297375 -0.03829919 -0.02679721
v 0.08392267 -0.03744882 -0.02678242
v 0.08454598 -0.03744882 -0.02661087
v 0.08548560 -0.03744882 -0.02635060
v 0.08172713 -0.03744882 -0.02731579
v 0.08297375 -0.03744882 -0.02702791
v 0.08482507 -0.03675347 -0.02668876
v 0.03397420 -0.04632896 -0.01866162
v 0.02907146 -0.04615180 -0.02106128
v 0.02532230 -0.04577534 -0.02316518
v 0.02657822 -0.04579748 -0.02318292
v 0.02907146 -0.04582406 -0.02320954
v 0.02657822 -0.04364499 -0.02607258
v 0.02782484 -0.04365828 -0.02607258
v 0.02657822 -0.04313122 -0.02673707
v 0.03032738 -0.04314451 -0.02675087
v 0.03534176 -0.04316223 -0.02676763
v 0.03659768 -0.04246245 -0.02727832
v 0.03786291 -0.04246245 -0.02726156
v 0.04458907 -0.04241373 -0.02713734
v 0.04788237 -0.04142606 -0.02772986
v 0.04913829 -0.04139948 -0.02771310
v 0.05039421 -0.04136406 -0.02768846
v 0.05165014 -0.04132862 -0.02766184
v 0.05289675 -0.04129319 -0.02763423
v 0.06543736 -0.04028781 -0.02779691
v 0.06042298 -0.04121347 -0.02736903
v 0.06167890 -0.04121347 -0.02731382
v 0.06543736 -0.04117804 -0.02717086
v 0.05165014 -0.04223214 -0.02703678
v 0.05415268 -0.04215242 -0.02697861
v 0.06385583 -0.04185567 -0.02671637
v 0.08502044 -0.03591639 -0.02674200
v 0.08508556 -0.03494201 -0.02676467
v 0.08600657 -0.03404735 -0.02650933
v 0.08561584 -0.02094638 -0.02661975
v 0.08509486 -0.00117534 -0.02676467
v 0.00392511 -0.03623085 -0.02709988
v 0.00327390 -0.03584110 -0.02678242
v 0.06927025 -0.00117534 -0.02869801
v 0.06918652 -0.02094638 -0.02869900
v 0.06919583 -0.03404735 -0.02869900
v 0.01529353 -0.03619099 -0.02872956
v 0.06919583 -0.03494201 -0.02869900
v 0.06793991 -0.03619984 -0.02869900
v 0.04788237 -0.03744882 -0.02869900
v 0.01529353 -0.03744882 -0.02870196
v 0.02156384 -0.03870666 -0.02865365
v 0.02030791 -0.03870666 -0.02863886
v 0.02532230 -0.03995563 -0.02845943
v 0.02406638 -0.03995563 -0.02843971
v 0.02281045 -0.03995563 -0.02841900
v 0.02156384 -0.03995563 -0.02839534
v 0.02030791 -0.03995563 -0.02836971
v 0.01905199 -0.03995563 -0.02834013
v 0.01779607 -0.03995563 -0.02830661
v 0.01654945 -0.03995563 -0.02826718
v 0.01278169 -0.03983605 -0.02818338
v 0.01654945 -0.04066428 -0.02799113
v 0.01559123 -0.04061998 -0.02797042
v 0.01152577 -0.04039853 -0.02785902
v 0.01027915 -0.04030995 -0.02780676
v 0.00903253 -0.04012837 -0.02770325
v 0.00786964 -0.03984491 -0.02753663
v 0.00751612 -0.03905655 -0.02783831
v 0.00654860 -0.03866680 -0.02763325
v 0.00615786 -0.03774114 -0.02784423
v 0.00535780 -0.03736910 -0.02757212
v 0.00428794 -0.03744882 -0.02693326
v 0.02406638 -0.04601893 -0.01980624
v 0.02395474 -0.04602779 -0.01866162
v 0.02281045 -0.04597021 -0.01866162
v 0.02156384 -0.04589935 -0.01866162
v 0.00488334 -0.03904326 -0.02651327
v 0.00528337 -0.03865794 -0.02699242
v 0.00572062 -0.03948616 -0.02680608
v 0.00621368 -0.04032324 -0.02647778
v 0.00658581 -0.03992020 -0.02697566
v 0.02030791 -0.04295406 -0.02654778
v 0.02382450 -0.04306922 -0.02667496
v 0.02465247 -0.04309579 -0.02669961
v 0.02532230 -0.04360513 -0.02607258
v 0.02657822 -0.04608980 -0.02106128
v 0.02896912 -0.04621381 -0.01866162
v 0.02772250 -0.04617395 -0.01866162
v 0.02645728 -0.04612523 -0.01866162
v 0.01293054 -0.04121347 -0.02744494
v 0.01403761 -0.04121347 -0.02752381
v 0.01654945 -0.04128433 -0.02763818
v 0.01654945 -0.04219670 -0.02701016
v 0.06669329 -0.04113375 -0.02714424
v 0.06669329 -0.04024352 -0.02777127
v 0.06919583 -0.03953488 -0.02805324
v 0.07044244 -0.03948173 -0.02802760
v 0.07169837 -0.03940201 -0.02798619
v 0.07545683 -0.03842763 -0.02807492
v 0.07671275 -0.03823276 -0.02800591
v 0.07736397 -0.03809103 -0.02795761
v 0.07785703 -0.03858707 -0.02767268
v 0.08046191 -0.03870666 -0.02716100
v 0.07169837 -0.03870666 -0.02823661
v 0.08046191 -0.03744882 -0.02754846
v 0.07865710 -0.03688191 -0.02796352
v 0.08172713 -0.03619984 -0.02748931
v 0.08297375 -0.03619984 -0.02722311
v 0.08434131 -0.03627957 -0.02687509
v 0.03272758 -0.04630239 -0.01866162
v 0.03022504 -0.04624481 -0.01866162
v 0.02532230 -0.04310908 -0.02671637
v 0.02532230 -0.04246245 -0.02719650
v 0.02657822 -0.04246245 -0.02722706
v 0.02782484 -0.04246245 -0.02723790
v 0.03283922 -0.04246245 -0.02726452
v 0.03534176 -0.04246245 -0.02727537
v 0.02907146 -0.04246245 -0.02724481
v 0.03534176 -0.04161208 -0.02783437
v 0.03659768 -0.04161208 -0.02783437
v 0.03786291 -0.04159436 -0.02782747
v 0.04286799 -0.04151464 -0.02778310
v 0.04539844 -0.04147035 -0.02775747
v 0.04788237 -0.04080157 -0.02806408
v 0.04913829 -0.04077057 -0.02805028
v 0.05165014 -0.04069970 -0.02801282
v 0.05509229 -0.04060227 -0.02796155
v 0.05916706 -0.04047826 -0.02790042
v 0.06167890 -0.04040296 -0.02786197
v 0.06418144 -0.04032324 -0.02782057
v 0.08422967 -0.03494201 -0.02698847
v 0.08448086 -0.03404735 -0.02692439
v 0.08509486 -0.02094638 -0.02676467
v 0.08428549 -0.00117534 -0.02697664
v 0.07044244 -0.00117534 -0.02869505
v 0.07044244 -0.02094638 -0.02869604
v 0.02156384 -0.03744882 -0.02870688
v 0.06919583 -0.03619984 -0.02869505
v 0.07044244 -0.02992839 -0.02869505
v 0.07044244 -0.03243963 -0.02869407
v 0.07044244 -0.03368860 -0.02869210
v 0.06293482 -0.03744882 -0.02866449
v 0.05791114 -0.03744882 -0.02867829
v 0.05039421 -0.03744882 -0.02869505
v 0.03534176 -0.03870666 -0.02867238
v 0.02907146 -0.03870666 -0.02866745
v 0.02782484 -0.03870666 -0.02866646
v 0.03159260 -0.03995563 -0.02848703
v 0.02657822 -0.03995563 -0.02847126
v 0.02657822 -0.04094773 -0.02812915
v 0.02532230 -0.04092559 -0.02812225
v 0.02406638 -0.04089015 -0.02810648
v 0.02156384 -0.04081929 -0.02807098
v 0.01779607 -0.04070414 -0.02801282
v 0.01779607 -0.04133305 -0.02766775
v 0.01523771 -0.04110717 -0.02766578
v 0.02281045 -0.04303379 -0.02664045
v 0.01779607 -0.04224542 -0.02704072
v 0.02416871 -0.04257760 -0.02706537
v 0.06669329 -0.03961903 -0.02808774
v 0.06919583 -0.03870666 -0.02835097
v 0.07044244 -0.03870666 -0.02830957
v 0.07545683 -0.03744882 -0.02829478
v 0.07294498 -0.03744882 -0.02846041
v 0.07420091 -0.03744882 -0.02837957
v 0.07671275 -0.03744882 -0.02816464
v 0.07785703 -0.03736024 -0.02800986
v 0.07820125 -0.03772342 -0.02788662
v 0.07169837 -0.03744882 -0.02853534
v 0.07913156 -0.03736024 -0.02779395
v 0.07671275 -0.03619984 -0.02830267
v 0.07796867 -0.03619984 -0.02813013
v 0.07882456 -0.03619984 -0.02799113
v 0.07945717 -0.03619984 -0.02788662
v 0.08046191 -0.03619984 -0.02771606
v 0.08172713 -0.03494201 -0.02754550
v 0.08297375 -0.03494201 -0.02728621
v 0.02281045 -0.04240487 -0.02713438
v 0.02281045 -0.04147921 -0.02776240
v 0.02532230 -0.04155007 -0.02780381
v 0.02657822 -0.04157222 -0.02781761
v 0.02782484 -0.04158550 -0.02782057
v 0.02907146 -0.04096102 -0.02813704
v 0.03534176 -0.04098316 -0.02814690
v 0.02782484 -0.04095659 -0.02813507
v 0.03659768 -0.04098316 -0.02814690
v 0.03786291 -0.04097430 -0.02814197
v 0.04458907 -0.04085915 -0.02809169
v 0.04788237 -0.03995563 -0.02837562
v 0.04913829 -0.03995563 -0.02835196
v 0.06042298 -0.03981391 -0.02816760
v 0.06293482 -0.03973861 -0.02813704
v 0.06418144 -0.03969875 -0.02812225
v 0.06543736 -0.03965889 -0.02810549
v 0.08298305 -0.02094638 -0.02729015
v 0.08298305 -0.00862049 -0.02729213
v 0.08422967 -0.02491919 -0.02698946
v 0.08422967 -0.01363411 -0.02699044
v 0.08422967 -0.00117534 -0.02699044
v 0.07169837 -0.00117534 -0.02867829
v 0.07169837 -0.01614092 -0.02867928
v 0.07169837 -0.02094638 -0.02867928
v 0.06919583 -0.03744882 -0.02862308
v 0.06669329 -0.03744882 -0.02864379
v 0.06543736 -0.03744882 -0.02865167
v 0.06418144 -0.03744882 -0.02865858
v 0.07044244 -0.03494201 -0.02868717
v 0.07044244 -0.03619984 -0.02867829
v 0.07169837 -0.02241681 -0.02867829
v 0.07169837 -0.02992839 -0.02866942
v 0.07169837 -0.03118622 -0.02866548
v 0.04788237 -0.03870666 -0.02863689
v 0.04412391 -0.03870666 -0.02865069
v 0.03786291 -0.03870666 -0.02866745
v 0.03659768 -0.03995563 -0.02849393
v 0.03534176 -0.03995563 -0.02849393
v 0.06793991 -0.03870666 -0.02837858
v 0.07044244 -0.03744882 -0.02859350
v 0.07545683 -0.03619984 -0.02841703
v 0.07420091 -0.03619984 -0.02849492
v 0.07169837 -0.03619984 -0.02862998
v 0.07294498 -0.03619984 -0.02856393
v 0.07671275 -0.03494201 -0.02833422
v 0.07796867 -0.03494201 -0.02817450
v 0.07958742 -0.03494201 -0.02791028
v 0.08046191 -0.03494201 -0.02776536
v 0.08171783 -0.01112287 -0.02755635
v 0.03786291 -0.03995563 -0.02848604
v 0.03911883 -0.03995563 -0.02847421
v 0.04539844 -0.03995563 -0.02840520
v 0.06042298 -0.03870666 -0.02851266
v 0.06167890 -0.03870666 -0.02849492
v 0.06293482 -0.03870666 -0.02847520
v 0.06418144 -0.03870666 -0.02845450
v 0.06543736 -0.03870666 -0.02843083
v 0.06669329 -0.03870666 -0.02840520
v 0.08298305 -0.00117534 -0.02729213
v 0.08180156 -0.00117534 -0.02753959
v 0.07294498 -0.00117534 -0.02863590
v 0.07273101 -0.02094638 -0.02864379
v 0.05916706 -0.03870666 -0.02852745
v 0.05666452 -0.03870666 -0.02855407
v 0.05039421 -0.03870666 -0.02861717
v 0.07169837 -0.03243963 -0.02865956
v 0.07169837 -0.03368860 -0.02865365
v 0.07169837 -0.03494201 -0.02864379
v 0.07294498 -0.02241681 -0.02863491
v 0.07294498 -0.02992839 -0.02861618
v 0.07545683 -0.03494201 -0.02844069
v 0.07420091 -0.03494201 -0.02851759
v 0.07294498 -0.03494201 -0.02858168
v 0.07545683 -0.02867941 -0.02844661
v 0.07545683 -0.02742600 -0.02844661
v 0.07545683 -0.00117534 -0.02844562
v 0.07671275 -0.00360686 -0.02832436
v 0.07796867 -0.02094638 -0.02816464
v 0.08047121 -0.00117534 -0.02777127
v 0.08055494 -0.00117534 -0.02775846
v 0.07671275 -0.00117534 -0.02832337
v 0.08171783 -0.00117534 -0.02755635
v 0.07302871 -0.00117534 -0.02863097
v 0.07294498 -0.02094638 -0.02863590
v 0.07294498 -0.03118622 -0.02860928
v 0.07420091 -0.02367021 -0.02855506
v 0.07420091 -0.02867941 -0.02854914
v 0.07420091 -0.03368860 -0.02852745
v 0.07421021 -0.02094638 -0.02855506
v 0.07421021 -0.01238070 -0.02855407
v 0.07421021 -0.00117534 -0.02855210
v 0.07796867 -0.00736708 -0.02815478
v 0.07796867 -0.00235345 -0.02815084
v 0.07796867 -0.00117534 -0.02814986
f 1 2 3
f 1 3 9
f 1 9 22
f 1 22 85
f 1 85 151
f 1 151 242
f 1 242 330
f 1 330 431
f 1 431 525
f 1 525 590
f 1 590 628
f 1 628 629
f 1 629 651
f 1 651 649
f 1 649 648
f 1 648 663
f 1 663 650
f 1 650 645
f 1 645 660
f 1 660 652
f 1 652 630
f 1 630 591
f 1 591 526
f 1 526 434
f 1 434 334
f 1 334 245
f 1 245 154
f 1 154 153
f 1 153 87
f 1 87 23
f 1 23 10
f 1 10 4
f 1 4 5
f 1 5 6
f 1 6 2
f 2 6 7
f 2 7 8
f 2 8 3
f 3 8 9
f 4 10 5
f 5 11 25
f 5 25 94
f 5 94 167
f 5 167 260
f 5 260 351
f 5 351 467
f 5 467 466
f 5 466 465
f 5 465 480
f 5 480 479
f 5 479 478
f 5 478 502
f 5 502 501
f 5 501 402
f 5 402 311
f 5 311 224
f 5 224 130
f 5 130 72
f 5 72 13
f 5 13 6
f 5 10 12
f 5 12 11
f 6 13 14
f 6 14 7
f 7 14 15
f 7 15 8
f 8 15 16
f 8 16 17
f 8 17 18
f 8 18 19
f 8 19 20
f 8 20 9
f 9 21 22
f 9 20 21
f 10 23 12
f 11 24 25
f 11 12 26
f 11 26 27
f 11 27 28
f 11 28 29
f 11 29 30
f 11 30 31
f 11 31 32
f 11 32 33
f 11 33 34
f 11 34 35
f 11 35 36
f 11 36 37
f 11 37 38
f 11 38 39
f 11 39 40
f 11 40 41
f 11 41 42
f 11 42 43
f 11 43 44
f 11 44 45
f 11 45 46
f 11 46 47
f 11 47 48
f 11 48 49
f 11 49 24
f 12 23 26
f 13 50 51
f 13 51 52
f 13 52 53
f 13 53 54
f 13 54 55
f 13 55 56
f 13 56 57
f 13 57 58
f 13 58 59
f 13 59 60
f 13 60 61
f 13 61 62
f 13 62 63
f 13 63 64
f 13 64 65
f 13 65 66
f 13 66 67
f 13 67 68
f 13 68 69
f 13 69 70
f 13 70 71
f 13 71 14
f 13 72 73
f 13 73 74
f 13 74 75
f 13 75 76
f 13 76 77
f 13 77 78
f 13 78 79
f 13 79 80
f 13 80 81
f 13 81 50
f 14 71 82
f 14 82 17
f 14 17 15
f 15 17 16
f 17 19 18
f 17 82 83
f 17 83 19
f 19 83 21
f 19 21 20
f 21 83 84
f 21 84 22
f 22 84 85
f 23 86 26
f 23 87 88
f 23 88 89
f 23 89 90
f 23 90 91
f 23 91 86
f 24 92 25
f 24 49 93
f 24 93 92
f 25 92 94
f 26 86 95
f 26 95 27
f 27 96 97
f 27 97 28
f 27 95 98
f 27 98 96
f 28 97 29
f 29 97 30
f 30 97 99
f 30 99 31
f 31 99 100
f 31 100 32
f 32 100 33
f 33 100 101
f 33 101 34
f 34 101 102
f 34 102 35
f 35 102 36
f 36 102 37
f 37 103 104
f 37 104 38
f 37 102 103
f 38 104 39
f 39 104 105
f 39 105 40
f 40 105 41
f 41 105 42
f 42 106 107
f 42 107 43
f 42 105 106
f 43 107 108
f 43 108 44
f 44 108 45
f 45 108 46
f 46 108 109
f 46 109 47
f 47 110 48
f 47 109 110
f 48 111 112
f 48 112 93
f 48 93 49
f 48 110 113
f 48 113 111
f 50 81 114
f 50 114 115
f 50 115 116
f 50 116 51
f 51 116 52
f 52 116 53
f 53 116 54
f 54 117 118
f 54 118 55
f 54 116 117
f 55 118 56
f 56 118 57
f 57 118 119
f 57 119 120
f 57 120 58
f 58 121 59
f 58 120 121
f 59 121 60
f 60 122 61
f 60 121 122
f 61 122 62
f 62 122 63
f 63 122 123
f 63 123 64
f 64 123 124
f 64 124 65
f 65 124 125
f 65 125 66
f 66 125 126
f 66 126 67
f 67 126 127
f 67 127 68
f 68 128 69
f 68 127 128
f 69 128 129
f 69 129 70
f 70 82 71
f 70 129 82
f 72 130 225
f 72 225 131
f 72 131 132
f 72 132 73
f 73 133 134
f 73 134 135
f 73 135 74
f 73 132 133
f 74 135 136
f 74 136 75
f 75 136 76
f 76 136 137
f 76 137 77
f 77 137 78
f 78 137 79
f 79 137 138
f 79 138 139
f 79 139 140
f 79 140 141
f 79 141 80
f 80 141 81
f 81 141 114
f 82 129 142
f 82 142 83
f 83 129 143
f 83 143 144
f 83 144 145
f 83 145 146
f 83 146 147
f 83 147 84
f 83 142 129
f 84 147 85
f 85 147 148
f 85 148 149
f 85 149 150
f 85 150 151
f 86 91 152
f 86 152 95
f 87 153 88
f 88 153 154
f 88 154 155
f 88 155 156
f 88 156 157
f 88 157 158
f 88 158 159
f 88 159 160
f 88 160 90
f 88 90 89
f 90 160 161
f 90 161 162
f 90 162 91
f 91 162 152
f 92 93 163
f 92 163 164
f 92 164 165
f 92 165 166
f 92 166 167
f 92 167 94
f 93 112 163
f 95 152 168
f 95 168 169
f 95 169 98
f 96 170 97
f 96 98 171
f 96 171 170
f 97 170 99
f 98 169 172
f 98 172 173
f 98 173 174
f 98 174 171
f 99 170 175
f 99 175 176
f 99 176 100
f 100 176 177
f 100 177 101
f 101 177 178
f 101 178 102
f 102 178 179
f 102 179 103
f 103 180 181
f 103 181 104
f 103 179 180
f 104 181 182
f 104 182 105
f 105 183 106
f 105 182 183
f 106 184 107
f 106 183 184
f 107 184 185
f 107 185 108
f 108 185 109
f 109 185 110
f 110 185 186
f 110 186 187
f 110 187 188
f 110 188 189
f 110 189 190
f 110 190 113
f 111 113 191
f 111 191 192
f 111 192 193
f 111 193 112
f 112 193 163
f 113 190 194
f 113 194 195
f 113 195 196
f 113 196 197
f 113 197 198
f 113 198 191
f 114 141 199
f 114 199 200
f 114 200 115
f 115 200 116
f 116 201 202
f 116 202 203
f 116 203 204
f 116 204 117
f 116 200 205
f 116 205 201
f 117 204 206
f 117 206 118
f 118 206 207
f 118 207 208
f 118 208 119
f 119 208 209
f 119 209 120
f 120 209 121
f 121 209 210
f 121 210 122
f 122 211 124
f 122 124 123
f 122 210 212
f 122 212 213
f 122 213 214
f 122 214 211
f 124 211 215
f 124 215 216
f 124 216 125
f 125 216 217
f 125 217 218
f 125 218 127
f 125 127 126
f 127 219 128
f 127 218 220
f 127 220 221
f 127 221 219
f 128 219 129
f 129 219 222
f 129 222 223
f 129 223 144
f 129 144 143
f 130 224 225
f 131 225 314
f 131 314 226
f 131 226 227
f 131 227 132
f 132 227 133
f 133 227 228
f 133 228 134
f 134 228 229
f 134 229 135
f 135 229 230
f 135 230 231
f 135 231 136
f 136 231 232
f 136 232 233
f 136 233 137
f 137 233 234
f 137 234 138
f 138 234 139
f 139 234 140
f 140 235 236
f 140 236 199
f 140 199 141
f 140 234 237
f 140 237 235
f 144 223 145
f 145 223 146
f 146 238 147
f 146 223 239
f 146 239 238
f 147 238 149
f 147 149 148
f 149 238 150
f 150 238 240
f 150 240 151
f 151 240 241
f 151 241 242
f 152 162 243
f 152 243 244
f 152 244 168
f 154 245 246
f 154 246 155
f 155 246 156
f 156 246 157
f 157 246 247
f 157 247 248
f 157 248 158
f 158 248 249
f 158 249 250
f 158 250 251
f 158 251 159
f 159 251 252
f 159 252 253
f 159 253 160
f 160 253 254
f 160 254 255
f 160 255 161
f 161 255 162
f 162 255 243
f 163 193 192
f 163 192 191
f 163 191 256
f 163 256 164
f 164 256 257
f 164 257 165
f 165 257 258
f 165 258 259
f 165 259 260
f 165 260 166
f 166 260 167
f 168 244 169
f 169 244 261
f 169 261 262
f 169 262 172
f 170 171 174
f 170 174 175
f 172 262 173
f 173 175 174
f 173 262 263
f 173 263 175
f 175 263 176
f 176 263 264
f 176 264 177
f 177 264 265
f 177 265 266
f 177 266 267
f 177 267 178
f 178 267 179
f 179 267 180
f 180 267 268
f 180 268 269
f 180 269 270
f 180 270 271
f 180 271 181
f 181 271 182
f 182 271 183
f 183 271 184
f 184 271 272
f 184 272 273
f 184 273 274
f 184 274 185
f 185 275 276
f 185 276 277
f 185 277 186
f 185 274 275
f 186 277 187
f 187 277 276
f 187 276 188
f 188 276 278
f 188 278 279
f 188 279 189
f 189 279 280
f 189 280 194
f 189 194 190
f 191 281 282
f 191 282 283
f 191 283 284
f 191 284 285
f 191 285 286
f 191 286 256
f 191 198 287
f 191 287 281
f 194 280 288
f 194 288 289
f 194 289 195
f 195 289 196
f 196 289 197
f 197 289 198
f 198 290 291
f 198 291 287
f 198 289 290
f 199 292 293
f 199 293 200
f 199 236 292
f 200 293 294
f 200 294 205
f 201 295 296
f 201 296 204
f 201 204 203
f 201 203 202
f 201 205 294
f 201 294 297
f 201 297 295
f 204 298 207
f 204 207 206
f 204 296 298
f 207 298 208
f 208 298 212
f 208 212 299
f 208 299 209
f 209 299 212
f 209 212 210
f 211 214 215
f 212 300 301
f 212 301 213
f 212 298 302
f 212 302 303
f 212 303 300
f 213 301 304
f 213 304 214
f 214 304 215
f 215 305 216
f 215 304 306
f 215 306 307
f 215 307 305
f 216 305 220
f 216 220 217
f 217 220 218
f 219 221 222
f 220 308 221
f 220 305 309
f 220 309 310
f 220 310 308
f 221 308 223
f 221 223 222
f 223 308 310
f 223 310 239
f 224 311 312
f 224 312 313
f 224 313 225
f 225 313 314
f 226 314 315
f 226 315 228
f 226 228 227
f 228 315 316
f 228 316 317
f 228 317 229
f 229 317 230
f 230 317 318
f 230 318 319
f 230 319 320
f 230 320 232
f 230 232 231
f 232 320 321
f 232 321 322
f 232 322 233
f 233 322 234
f 234 322 237
f 235 292 236
f 235 237 292
f 237 322 323
f 237 323 292
f 238 239 240
f 239 310 324
f 239 324 240
f 240 324 325
f 240 325 241
f 241 325 326
f 241 326 242
f 242 326 327
f 242 327 328
f 242 328 329
f 242 329 330
f 243 331 244
f 243 255 331
f 244 332 261
f 244 331 332
f 245 333 335
f 245 335 246
f 245 334 333
f 246 335 336
f 246 336 247
f 247 336 248
f 248 336 337
f 248 337 338
f 248 338 339
f 248 339 340
f 248 340 249
f 249 340 341
f 249 341 342
f 249 342 250
f 250 342 343
f 250 343 344
f 250 344 345
f 250 345 251
f 251 346 252
f 251 345 346
f 252 346 347
f 252 347 253
f 253 347 348
f 253 348 254
f 254 348 331
f 254 331 255
f 256 286 285
f 256 285 258
f 256 258 257
f 258 285 349
f 258 349 259
f 259 349 350
f 259 350 467
f 259 467 351
f 259 351 260
f 261 332 352
f 261 352 353
f 261 353 262
f 262 353 263
f 263 353 264
f 264 353 265
f 265 353 352
f 265 352 354
f 265 354 266
f 266 354 355
f 266 355 356
f 266 356 269
f 266 269 268
f 266 268 267
f 269 357 358
f 269 358 359
f 269 359 360
f 269 360 361
f 269 361 270
f 269 356 357
f 270 361 271
f 271 361 272
f 272 361 273
f 273 361 360
f 273 360 362
f 273 362 363
f 273 363 274
f 274 363 275
f 275 363 276
f 276 364 278
f 276 363 365
f 276 365 364
f 278 364 366
f 278 366 279
f 279 367 280
f 279 366 367
f 280 368 288
f 280 367 368
f 281 287 369
f 281 369 370
f 281 370 371
f 281 371 372
f 281 372 282
f 282 373 374
f 282 374 376
f 282 376 283
f 282 372 375
f 282 375 373
f 283 376 349
f 283 349 284
f 284 349 285
f 287 291 377
f 287 377 369
f 288 378 379
f 288 379 290
f 288 290 289
f 288 368 378
f 290 379 291
f 291 379 380
f 291 380 377
f 292 381 382
f 292 382 383
f 292 383 293
f 292 323 381
f 293 384 297
f 293 297 294
f 293 383 384
f 295 385 296
f 295 297 386
f 295 386 387
f 295 387 385
f 296 385 388
f 296 388 389
f 296 389 390
f 296 390 298
f 297 384 391
f 297 391 392
f 297 392 386
f 298 390 302
f 300 303 393
f 300 393 306
f 300 306 301
f 301 306 304
f 302 393 303
f 302 390 393
f 305 307 309
f 306 394 395
f 306 395 307
f 306 393 394
f 307 395 309
f 309 396 397
f 309 397 398
f 309 398 310
f 309 395 399
f 309 399 400
f 309 400 396
f 310 398 401
f 310 401 324
f 311 402 403
f 311 403 312
f 312 403 373
f 312 373 404
f 312 404 405
f 312 405 406
f 312 406 313
f 313 406 314
f 314 406 407
f 314 407 408
f 314 408 315
f 315 408 409
f 315 409 410
f 315 410 411
f 315 411 316
f 316 412 413
f 316 413 317
f 316 411 412
f 317 413 414
f 317 414 318
f 318 414 413
f 318 413 415
f 318 415 416
f 318 416 319
f 319 416 417
f 319 417 418
f 319 418 419
f 319 419 420
f 319 420 421
f 319 421 422
f 319 422 423
f 319 423 424
f 319 424 322
f 319 322 321
f 319 321 320
f 322 424 425
f 322 425 426
f 322 426 323
f 323 426 381
f 324 401 427
f 324 427 325
f 325 427 428
f 325 428 429
f 325 429 430
f 325 430 326
f 326 430 327
f 327 430 431
f 327 431 328
f 328 431 329
f 329 431 330
f 331 348 432
f 331 432 433
f 331 433 332
f 332 433 352
f 333 334 434
f 333 434 435
f 333 435 436
f 333 436 438
f 333 438 335
f 335 437 336
f 335 438 439
f 335 439 440
f 335 440 437
f 336 437 441
f 336 441 337
f 337 441 442
f 337 442 443
f 337 443 338
f 338 443 444
f 338 444 445
f 338 445 446
f 338 446 339
f 339 446 447
f 339 447 448
f 339 448 340
f 340 448 449
f 340 449 450
f 340 450 451
f 340 451 341
f 341 451 452
f 341 452 453
f 341 453 454
f 341 454 455
f 341 455 342
f 342 455 456
f 342 456 343
f 343 457 344
f 343 456 457
f 344 458 459
f 344 459 346
f 344 346 345
f 344 457 458
f 346 459 460
f 346 460 461
f 346 461 347
f 347 461 462
f 347 462 348
f 348 463 432
f 348 462 463
f 349 376 464
f 349 464 465
f 349 465 466
f 349 466 350
f 350 466 467
f 352 433 354
f 354 433 355
f 355 357 356
f 355 433 432
f 355 432 463
f 355 463 358
f 355 358 357
f 358 468 359
f 358 463 462
f 358 462 469
f 358 469 470
f 358 470 468
f 359 468 360
f 360 468 362
f 362 470 471
f 362 471 363
f 362 468 470
f 363 471 364
f 363 364 365
f 364 471 470
f 364 470 472
f 364 472 458
f 364 458 366
f 366 458 457
f 366 457 367
f 367 457 456
f 367 456 368
f 368 456 378
f 369 377 473
f 369 473 474
f 369 474 370
f 370 474 371
f 371 474 475
f 371 475 476
f 371 476 372
f 372 476 375
f 373 477 374
f 373 375 404
f 373 403 477
f 374 477 478
f 374 478 479
f 374 479 480
f 374 480 465
f 374 465 464
f 374 464 376
f 375 476 404
f 377 380 473
f 378 456 455
f 378 455 481
f 378 481 380
f 378 380 379
f 380 482 483
f 380 483 484
f 380 484 473
f 380 481 482
f 381 485 382
f 381 426 485
f 382 485 486
f 382 486 487
f 382 487 488
f 382 488 383
f 383 488 489
f 383 489 384
f 384 489 391
f 385 387 388
f 386 490 491
f 386 491 387
f 386 392 490
f 387 491 492
f 387 492 493
f 387 493 494
f 387 494 393
f 387 393 389
f 387 389 388
f 389 393 390
f 391 490 392
f 391 489 495
f 391 495 490
f 393 494 394
f 394 399 395
f 394 494 399
f 396 401 397
f 396 400 401
f 397 401 398
f 399 494 492
f 399 492 496
f 399 496 497
f 399 497 498
f 399 498 499
f 399 499 400
f 400 499 401
f 401 499 500
f 401 500 427
f 402 501 403
f 403 501 502
f 403 502 478
f 403 478 477
f 404 476 407
f 404 407 405
f 405 407 406
f 407 409 408
f 407 476 503
f 407 503 409
f 409 503 504
f 409 504 505
f 409 505 506
f 409 506 410
f 410 506 411
f 411 507 508
f 411 508 412
f 411 506 509
f 411 509 507
f 412 508 510
f 412 510 511
f 412 511 413
f 413 511 512
f 413 512 513
f 413 513 514
f 413 514 415
f 415 514 515
f 415 515 516
f 415 516 416
f 416 516 517
f 416 517 518
f 416 518 519
f 416 519 520
f 416 520 521
f 416 521 420
f 416 420 417
f 417 420 418
f 418 420 419
f 420 423 422
f 420 422 421
f 420 521 487
f 420 487 486
f 420 486 423
f 423 425 424
f 423 486 485
f 423 485 425
f 425 485 426
f 427 522 428
f 427 500 499
f 427 499 522
f 428 522 523
f 428 523 524
f 428 524 429
f 429 524 430
f 430 524 431
f 431 524 525
f 434 526 527
f 434 527 435
f 435 527 436
f 436 527 438
f 437 440 528
f 437 528 441
f 438 529 439
f 438 527 530
f 438 530 531
f 438 531 532
f 438 532 529
f 439 529 533
f 439 533 534
f 439 534 535
f 439 535 440
f 440 535 536
f 440 536 528
f 441 528 536
f 441 536 537
f 441 537 538
f 441 538 442
f 442 538 539
f 442 539 540
f 442 540 444
f 442 444 443
f 444 540 541
f 444 541 542
f 444 542 445
f 445 542 446
f 446 542 447
f 447 542 448
f 448 542 543
f 448 543 449
f 449 543 544
f 449 544 450
f 450 544 545
f 450 545 453
f 450 453 451
f 451 453 452
f 453 483 454
f 453 545 546
f 453 546 483
f 454 483 547
f 454 547 455
f 455 547 482
f 455 482 481
f 458 472 459
f 459 472 460
f 460 472 470
f 460 470 469
f 460 469 461
f 461 469 462
f 473 548 474
f 473 484 548
f 474 548 484
f 474 484 549
f 474 549 475
f 475 549 550
f 475 550 503
f 475 503 476
f 482 547 483
f 483 546 549
f 483 549 484
f 487 521 520
f 487 520 551
f 487 551 552
f 487 552 553
f 487 553 488
f 488 553 489
f 489 553 495
f 490 554 491
f 490 495 555
f 490 555 556
f 490 556 554
f 491 557 492
f 491 554 557
f 492 558 559
f 492 559 496
f 492 494 493
f 492 557 558
f 495 560 555
f 495 553 560
f 496 561 497
f 496 559 561
f 497 559 558
f 497 558 557
f 497 557 562
f 497 562 563
f 497 563 564
f 497 564 565
f 497 565 566
f 497 566 498
f 497 561 559
f 498 566 567
f 498 567 568
f 498 568 499
f 499 568 522
f 503 550 504
f 504 550 569
f 504 569 546
f 504 546 570
f 504 570 571
f 504 571 505
f 505 571 572
f 505 572 573
f 505 573 506
f 506 573 509
f 507 509 573
f 507 573 508
f 508 573 510
f 510 574 575
f 510 575 577
f 510 577 511
f 510 573 576
f 510 576 574
f 511 577 578
f 511 578 512
f 512 578 579
f 512 579 513
f 513 579 515
f 513 515 514
f 515 579 580
f 515 580 581
f 515 581 516
f 516 581 582
f 516 582 583
f 516 583 584
f 516 584 517
f 517 584 518
f 518 584 585
f 518 585 551
f 518 551 519
f 519 551 520
f 522 568 586
f 522 586 587
f 522 587 588
f 522 588 523
f 523 588 589
f 523 589 525
f 523 525 524
f 525 589 590
f 526 591 592
f 526 592 527
f 527 592 593
f 527 593 530
f 529 594 595
f 529 595 596
f 529 596 597
f 529 597 533
f 529 532 598
f 529 598 599
f 529 599 594
f 530 593 531
f 531 593 600
f 531 600 601
f 531 601 532
f 532 601 602
f 532 602 598
f 533 597 603
f 533 603 604
f 533 604 534
f 534 604 605
f 534 605 535
f 535 605 536
f 536 605 606
f 536 606 607
f 536 607 537
f 537 607 538
f 538 607 539
f 539 607 575
f 539 575 574
f 539 574 576
f 539 576 540
f 540 576 541
f 541 572 542
f 541 576 572
f 542 571 543
f 542 572 571
f 543 571 544
f 544 571 570
f 544 570 545
f 545 570 546
f 546 569 549
f 549 569 550
f 551 585 552
f 552 585 584
f 552 584 583
f 552 583 582
f 552 582 608
f 552 608 594
f 552 594 609
f 552 609 553
f 553 609 560
f 554 610 562
f 554 562 557
f 554 556 610
f 555 611 610
f 555 610 556
f 555 560 611
f 560 612 613
f 560 613 611
f 560 609 612
f 562 614 615
f 562 615 563
f 562 610 614
f 563 615 564
f 564 615 616
f 564 616 565
f 565 616 617
f 565 617 566
f 566 617 567
f 567 617 618
f 567 618 586
f 567 586 568
f 572 576 573
f 575 607 606
f 575 606 577
f 577 606 619
f 577 619 578
f 578 619 620
f 578 620 621
f 578 621 580
f 578 580 579
f 580 622 623
f 580 623 624
f 580 624 625
f 580 625 626
f 580 626 581
f 580 621 622
f 581 626 627
f 581 627 582
f 582 627 608
f 586 618 587
f 587 628 590
f 587 590 589
f 587 589 588
f 587 618 629
f 587 629 628
f 591 630 592
f 592 630 631
f 592 631 593
f 593 631 600
f 594 608 627
f 594 627 626
f 594 626 625
f 594 625 624
f 594 624 623
f 594 623 622
f 594 622 632
f 594 632 633
f 594 633 634
f 594 634 595
f 594 599 609
f 595 634 603
f 595 603 596
f 596 603 597
f 598 602 635
f 598 635 636
f 598 636 599
f 599 636 637
f 599 637 612
f 599 612 609
f 600 631 638
f 600 638 601
f 601 638 639
f 601 639 602
f 602 639 635
f 603 634 619
f 603 619 606
f 603 606 604
f 604 606 605
f 610 640 614
f 610 611 640
f 611 641 640
f 611 613 641
f 612 637 642
f 612 642 641
f 612 641 613
f 614 640 643
f 614 643 644
f 614 644 645
f 614 645 646
f 614 646 615
f 615 647 648
f 615 648 649
f 615 649 616
f 615 646 650
f 615 650 647
f 616 649 617
f 617 649 618
f 618 651 629
f 618 649 651
f 619 634 620
f 620 634 633
f 620 633 632
f 620 632 621
f 621 632 622
f 630 652 653
f 630 653 631
f 631 653 638
f 635 639 636
f 636 639 654
f 636 654 642
f 636 642 637
f 638 653 655
f 638 655 656
f 638 656 639
f 639 656 657
f 639 657 654
f 640 641 657
f 640 657 656
f 640 656 655
f 640 655 643
f 641 642 657
f 642 654 657
f 643 655 658
f 643 658 644
f 644 658 645
f 645 650 646
f 645 658 659
f 645 659 660
f 647 650 661
f 647 661 648
f 648 661 662
f 648 662 663
f 650 663 662
f 650 662 661
f 652 660 659
f 652 659 658
f 652 658 653
f 653 658 655

