# https://github.com/mikedh/trimesh
v 0.04450644 -0.00827729 0.00689363
v 0.04450644 -0.00827729 0.00904802
v 0.04450644 -0.00694675 0.00691177
v 0.05133174 -0.00827729 0.00718299
v 0.05133174 -0.00827729 0.00904802
v 0.04450644 0.00054352 0.00904802
v 0.05133174 -0.00694675 0.00722981
v 0.04450644 0.00054352 0.00774674
v 0.05133174 0.00054352 0.00803610
v 0.05133174 0.00054352 0.00904802
f 1 2 6
f 1 6 8
f 1 8 3
f 1 3 4
f 1 4 5
f 1 5 2
f 2 5 10
f 2 10 6
f 3 7 4
f 3 8 9
f 3 9 7
f 4 7 9
f 4 9 10
f 4 10 5
f 6 10 9
f 6 9 8

