# https://github.com/mikedh/trimesh
v 0.00460716 -0.01006750 -0.00529924
v 0.00467801 -0.01005459 -0.00538450
v 0.00477223 -0.01006843 -0.00521238
v 0.00469047 -0.01006843 -0.00514097
v 0.00460716 -0.01006750 -0.00528698
v 0.00460716 -0.01004351 -0.00551240
v 0.00485166 -0.01004351 -0.00529498
v 0.00502686 -0.01006750 -0.00496032
v 0.00527914 -0.01006750 -0.00470133
v 0.00520906 -0.01006750 -0.00462033
v 0.00494432 -0.01005551 -0.00513244
v 0.00546524 -0.01006658 -0.00435229
v 0.00554700 -0.01000292 -0.00419349
v 0.00547848 -0.00991895 -0.00419349
v 0.00460716 -0.00993095 -0.00513351
v 0.00460716 -0.00999553 -0.00578044
v 0.00484153 -0.00995770 -0.00580495
v 0.00484153 -0.01000199 -0.00554703
v 0.00510005 -0.01000568 -0.00528911
v 0.00545201 -0.01005366 -0.00460701
v 0.00552754 -0.01006658 -0.00443489
v 0.00510784 -0.01004444 -0.00504025
v 0.00535779 -0.01000568 -0.00503119
v 0.00535779 -0.00996509 -0.00528911
v 0.00566302 -0.01006474 -0.00419349
v 0.00565057 -0.01006474 -0.00419349
v 0.01016526 -0.00429980 -0.00369737
v 0.00545278 -0.00987282 -0.00419349
v 0.00460716 -0.00967259 -0.00507116
v 0.00460716 -0.00994755 -0.00603889
v 0.00484153 -0.00990327 -0.00606287
v 0.00510005 -0.00991065 -0.00580495
v 0.00535779 -0.00991618 -0.00554703
v 0.00510005 -0.00996139 -0.00554703
v 0.00561553 -0.01000107 -0.00477328
v 0.00587326 -0.00995494 -0.00477328
v 0.00587326 -0.00999184 -0.00451536
v 0.00569962 -0.01005090 -0.00432405
v 0.00574712 -0.01006012 -0.00419349
v 0.00570585 -0.01006381 -0.00419349
v 0.00561553 -0.00991526 -0.00528911
v 0.00561553 -0.00996047 -0.00503119
v 0.01183160 -0.00429980 -0.00369737
v 0.01168677 -0.00430072 -0.00369737
v 0.01071811 -0.00430072 -0.00369737
v 0.01094159 -0.00078898 -0.00369737
v 0.00542086 -0.00935058 -0.00419349
v 0.00541774 -0.00941424 -0.00419349
v 0.00541697 -0.00967259 -0.00419349
v 0.00460716 -0.00941424 -0.00507223
v 0.00460716 -0.00994202 -0.00606287
v 0.00460716 -0.00988666 -0.00629628
v 0.00460716 -0.00988020 -0.00632079
v 0.00483219 -0.00983314 -0.00632133
v 0.00502296 -0.00981561 -0.00623500
v 0.00510472 -0.00984237 -0.00607087
v 0.00536947 -0.00984698 -0.00581828
v 0.00563266 -0.00984790 -0.00556302
v 0.00587326 -0.00990972 -0.00503119
v 0.00613100 -0.00989958 -0.00477328
v 0.00613100 -0.00994294 -0.00451536
v 0.00613100 -0.00997893 -0.00425744
v 0.00619485 -0.00997524 -0.00419349
v 0.00588494 -0.00984514 -0.00529924
v 0.01067061 -0.00637492 -0.00419349
v 0.01088474 -0.00598831 -0.00419349
v 0.01098597 -0.00580377 -0.00419349
v 0.01109576 -0.00560355 -0.00419349
v 0.01116974 -0.00546515 -0.00419349
v 0.01117674 -0.00545131 -0.00419349
v 0.01118375 -0.00543655 -0.00419349
v 0.01124604 -0.00529722 -0.00419349
v 0.01141657 -0.00489954 -0.00419349
v 0.01157931 -0.00451755 -0.00419349
v 0.01181680 -0.00430072 -0.00374160
v 0.01184639 -0.00425920 -0.00369737
v 0.00638952 -0.00993556 -0.00419349
v 0.00645259 -0.00992080 -0.00419349
v 0.00666049 -0.00986359 -0.00419349
v 0.00672824 -0.00984329 -0.00419349
v 0.00681700 -0.00981561 -0.00419349
v 0.00693302 -0.00977593 -0.00419349
v 0.00715806 -0.00969751 -0.00419349
v 0.00722736 -0.00967167 -0.00419349
v 0.00742125 -0.00959232 -0.00419349
v 0.00745162 -0.00957940 -0.00419349
v 0.00753882 -0.00953788 -0.00419349
v 0.00766808 -0.00947237 -0.00419349
v 0.00798811 -0.00930998 -0.00419349
v 0.00805119 -0.00927676 -0.00419349
v 0.00820458 -0.00917619 -0.00419349
v 0.00837433 -0.00906362 -0.00419349
v 0.00868113 -0.00884125 -0.00419349
v 0.00880805 -0.00874345 -0.00419349
v 0.00894198 -0.00861427 -0.00419349
v 0.00907201 -0.00848879 -0.00419349
v 0.00920205 -0.00835961 -0.00419349
v 0.00933053 -0.00822767 -0.00419349
v 0.00936168 -0.00819261 -0.00419349
v 0.00944266 -0.00809665 -0.00419349
v 0.00956958 -0.00794348 -0.00419349
v 0.00967081 -0.00781800 -0.00419349
v 0.00981486 -0.00763530 -0.00419349
v 0.00990051 -0.00752181 -0.00419349
v 0.01001420 -0.00736034 -0.00419349
v 0.01042300 -0.00676890 -0.00419349
v 0.01055459 -0.00656776 -0.00419349
v 0.01059041 -0.00651147 -0.00419349
v 0.01063635 -0.00643581 -0.00419349
v 0.01256199 -0.00078898 -0.00369737
v 0.00999940 -0.00064227 -0.00592592
v 0.00775997 -0.00064227 -0.00870016
v 0.00460716 -0.00896213 -0.00533654
v 0.00460716 -0.00910422 -0.00519906
v 0.00460716 -0.00916973 -0.00515269
v 0.00545668 -0.00923063 -0.00419349
v 0.00460716 -0.00924816 -0.00511806
v 0.00460716 -0.00982668 -0.00650358
v 0.00491161 -0.00978793 -0.00640712
v 0.00519505 -0.00979254 -0.00616199
v 0.00510005 -0.00968736 -0.00657818
v 0.00510472 -0.00976763 -0.00632133
v 0.00535779 -0.00970212 -0.00632079
v 0.00536947 -0.00977409 -0.00607087
v 0.00555713 -0.00982022 -0.00574101
v 0.00572921 -0.00979716 -0.00566001
v 0.00580786 -0.00982022 -0.00548788
v 0.00613801 -0.00984052 -0.00503439
v 0.00629763 -0.00981376 -0.00494966
v 0.00638640 -0.00983037 -0.00475782
v 0.00638952 -0.00988020 -0.00451536
v 0.00638952 -0.00992541 -0.00425744
v 0.01061533 -0.00639798 -0.00430966
v 0.01068852 -0.00631494 -0.00423665
v 0.01083024 -0.00604921 -0.00425211
v 0.01088319 -0.00589881 -0.00433470
v 0.01110277 -0.00554265 -0.00426490
v 0.01114949 -0.00539318 -0.00435655
v 0.01155907 -0.00451478 -0.00425744
v 0.01165874 -0.00432102 -0.00419349
v 0.01171714 -0.00430072 -0.00404268
v 0.01167119 -0.00411249 -0.00437254
v 0.01190713 -0.00407189 -0.00369737
v 0.00666594 -0.00984790 -0.00427129
v 0.00676328 -0.00979716 -0.00436668
v 0.00690344 -0.00977040 -0.00427129
v 0.00716351 -0.00968367 -0.00425744
v 0.00718531 -0.00960985 -0.00453454
v 0.00733559 -0.00956464 -0.00446100
v 0.00750690 -0.00952220 -0.00430913
v 0.00770079 -0.00936073 -0.00453454
v 0.00780124 -0.00928230 -0.00463259
v 0.00802004 -0.00925923 -0.00430486
v 0.00836966 -0.00905993 -0.00421267
v 0.00845453 -0.00897412 -0.00428195
v 0.00866322 -0.00883295 -0.00425744
v 0.00861338 -0.00879512 -0.00444874
v 0.00879247 -0.00872961 -0.00425744
v 0.00892874 -0.00860136 -0.00425744
v 0.00918881 -0.00834670 -0.00425744
v 0.00931807 -0.00821291 -0.00425744
v 0.00942709 -0.00808373 -0.00425744
v 0.00955556 -0.00792780 -0.00425744
v 0.00966146 -0.00779770 -0.00425744
v 0.00980396 -0.00760762 -0.00427609
v 0.00986625 -0.00747384 -0.00437520
v 0.01005936 -0.00724409 -0.00428621
v 0.01041365 -0.00674768 -0.00425744
v 0.01054680 -0.00655576 -0.00423665
v 0.01043701 -0.00657514 -0.00449297
v 0.01255264 -0.00090339 -0.00369737
v 0.01255576 -0.00078898 -0.00371762
v 0.01169767 -0.00064227 -0.00592592
v 0.00770935 -0.00064227 -0.00889893
v 0.00460793 -0.00621068 -0.00882326
v 0.00460793 -0.00631494 -0.00865593
v 0.00460716 -0.00850909 -0.00592859
v 0.00460716 -0.00978793 -0.00662401
v 0.00483219 -0.00975564 -0.00656379
v 0.00484153 -0.00966244 -0.00683503
v 0.00509460 -0.00959140 -0.00683877
v 0.00537025 -0.00960524 -0.00659310
v 0.00460716 -0.00972796 -0.00680839
v 0.00561553 -0.00971135 -0.00606287
v 0.00563577 -0.00961170 -0.00634158
v 0.00587326 -0.00963569 -0.00606287
v 0.00563266 -0.00977778 -0.00581828
v 0.00587326 -0.00971596 -0.00580495
v 0.00613100 -0.00970858 -0.00554703
v 0.00638952 -0.00970027 -0.00528911
v 0.00613801 -0.00977224 -0.00529924
v 0.00605625 -0.00981746 -0.00521984
v 0.00622756 -0.00979162 -0.00512179
v 0.00638640 -0.00976486 -0.00503439
v 0.00646972 -0.00978608 -0.00483349
v 0.00658263 -0.00982207 -0.00451536
v 0.00662935 -0.00975194 -0.00475782
v 0.00690577 -0.00971781 -0.00451536
v 0.01058262 -0.00631494 -0.00452068
v 0.01066360 -0.00622636 -0.00443862
v 0.01092991 -0.00572719 -0.00446100
v 0.01098986 -0.00556757 -0.00453454
v 0.01112379 -0.00530091 -0.00453294
v 0.01115416 -0.00514775 -0.00463046
v 0.01118609 -0.00522156 -0.00445887
v 0.01143137 -0.00467718 -0.00442476
v 0.01146796 -0.00451663 -0.00451269
v 0.01165484 -0.00430072 -0.00422813
v 0.01164861 -0.00427212 -0.00427502
v 0.01156919 -0.00425643 -0.00451536
v 0.01164706 -0.00401561 -0.00452761
v 0.01166808 -0.00384399 -0.00462193
v 0.01195074 -0.00315013 -0.00443489
v 0.01192426 -0.00332175 -0.00435602
v 0.01196475 -0.00389013 -0.00369737
v 0.00690577 -0.00965506 -0.00477328
v 0.00710667 -0.00957571 -0.00477328
v 0.00728498 -0.00953973 -0.00463312
v 0.00742125 -0.00950097 -0.00453454
v 0.00775841 -0.00925831 -0.00477328
v 0.00795619 -0.00912452 -0.00478820
v 0.00793439 -0.00923155 -0.00453454
v 0.00762993 -0.00932566 -0.00477328
v 0.00757698 -0.00929891 -0.00494220
v 0.00815708 -0.00909130 -0.00451536
v 0.00805586 -0.00902026 -0.00488412
v 0.00819135 -0.00896305 -0.00478820
v 0.00834708 -0.00878866 -0.00494753
v 0.00856744 -0.00875914 -0.00462033
v 0.00887968 -0.00855153 -0.00446313
v 0.00913041 -0.00828857 -0.00451536
v 0.00927213 -0.00812248 -0.00452921
v 0.00938504 -0.00803391 -0.00445194
v 0.00962720 -0.00775618 -0.00441943
v 0.00969728 -0.00761777 -0.00450949
v 0.00983588 -0.00743231 -0.00451536
v 0.00992699 -0.00730314 -0.00451536
v 0.01038874 -0.00670985 -0.00439172
v 0.01035214 -0.00665818 -0.00456385
v 0.01041054 -0.00648656 -0.00469441
v 0.01247478 -0.00167753 -0.00369737
v 0.01237589 -0.00090339 -0.00425690
v 0.01238445 -0.00078898 -0.00425690
v 0.01168599 -0.00064227 -0.00595097
v 0.01234707 -0.00078898 -0.00437147
v 0.01229958 -0.00078898 -0.00451536
v 0.01222327 -0.00078898 -0.00471785
v 0.01194762 -0.00078898 -0.00535733
v 0.01186898 -0.00078898 -0.00553691
v 0.01168599 -0.00064596 -0.00595097
v 0.00775763 -0.00064227 -0.00907744
v 0.00460793 -0.00627711 -0.00908011
v 0.00460793 -0.00619407 -0.00889839
v 0.00460716 -0.00724409 -0.00786298
v 0.00460716 -0.00844911 -0.00602024
v 0.00460716 -0.00961539 -0.00711960
v 0.00460716 -0.00971873 -0.00683503
v 0.00484153 -0.00957940 -0.00704659
v 0.00500583 -0.00955541 -0.00698851
v 0.00529394 -0.00956556 -0.00675563
v 0.00556335 -0.00957202 -0.00651743
v 0.00587326 -0.00956741 -0.00624992
v 0.00600330 -0.00954434 -0.00619237
v 0.00606637 -0.00956925 -0.00606287
v 0.00615592 -0.00961631 -0.00582947
v 0.00640898 -0.00961077 -0.00556515
v 0.00666127 -0.00960247 -0.00529924
v 0.00664725 -0.00968090 -0.00503119
v 0.01063012 -0.00616639 -0.00461021
v 0.01089720 -0.00566722 -0.00463312
v 0.01085671 -0.00580931 -0.00453454
v 0.01093458 -0.00547622 -0.00477328
v 0.01102490 -0.00528892 -0.00477328
v 0.01090187 -0.00516066 -0.00516015
v 0.01119154 -0.00497613 -0.00471146
v 0.01143682 -0.00443082 -0.00468482
v 0.01140022 -0.00460244 -0.00459689
v 0.01155206 -0.00430072 -0.00451482
v 0.01146718 -0.00424997 -0.00477168
v 0.01155284 -0.00399900 -0.00477328
v 0.01169455 -0.00367145 -0.00468535
v 0.01179500 -0.00322487 -0.00477328
v 0.01192037 -0.00303295 -0.00460701
v 0.01189545 -0.00323133 -0.00451855
v 0.01205274 -0.00296652 -0.00425690
v 0.01217810 -0.00303018 -0.00382846
v 0.01219991 -0.00311784 -0.00369737
v 0.01218122 -0.00318612 -0.00369737
v 0.01216175 -0.00325255 -0.00369737
v 0.01198188 -0.00323133 -0.00426490
v 0.01207844 -0.00352566 -0.00369737
v 0.00681934 -0.00956372 -0.00522037
v 0.00690577 -0.00958586 -0.00502054
v 0.00705216 -0.00955265 -0.00492781
v 0.00742748 -0.00934135 -0.00502960
v 0.00751702 -0.00926846 -0.00511433
v 0.00766886 -0.00921217 -0.00502960
v 0.00787988 -0.00907746 -0.00503119
v 0.00728498 -0.00928230 -0.00540688
v 0.00800914 -0.00899073 -0.00503119
v 0.00820536 -0.00885417 -0.00503279
v 0.00829880 -0.00874991 -0.00511965
v 0.00845687 -0.00864657 -0.00504025
v 0.00861416 -0.00854323 -0.00496139
v 0.00866633 -0.00859121 -0.00477328
v 0.00883296 -0.00850724 -0.00463526
v 0.00909771 -0.00825535 -0.00464698
v 0.00934455 -0.00798408 -0.00462406
v 0.00958749 -0.00770912 -0.00459156
v 0.00965757 -0.00753658 -0.00472798
v 0.00989039 -0.00725055 -0.00468215
v 0.01012088 -0.00695529 -0.00462833
v 0.01030775 -0.00657514 -0.00477754
v 0.01010530 -0.00641367 -0.00537438
v 0.01036693 -0.00641736 -0.00486653
v 0.01046193 -0.00632694 -0.00477754
v 0.01245531 -0.00182885 -0.00369737
v 0.01229724 -0.00167753 -0.00425690
v 0.01232371 -0.00142010 -0.00425690
v 0.01229023 -0.00090339 -0.00451536
v 0.01222405 -0.00167753 -0.00448125
v 0.01121100 -0.00064227 -0.00679773
v 0.01221860 -0.00090339 -0.00470720
v 0.01185496 -0.00090339 -0.00554703
v 0.01174050 -0.00078898 -0.00581561
v 0.01121100 -0.00064596 -0.00679773
v 0.01167898 -0.00080743 -0.00593978
v 0.00775841 -0.00064227 -0.00907904
v 0.00460793 -0.00631679 -0.00909237
v 0.00460716 -0.00724409 -0.00914139
v 0.00460716 -0.00950928 -0.00735833
v 0.00460949 -0.00950928 -0.00735727
v 0.00471150 -0.00954342 -0.00722138
v 0.00484153 -0.00952220 -0.00717555
v 0.00517792 -0.00952681 -0.00692776
v 0.00537025 -0.00950097 -0.00683877
v 0.00546524 -0.00953604 -0.00668849
v 0.00619485 -0.00951758 -0.00606287
v 0.00563577 -0.00951205 -0.00659310
v 0.00587326 -0.00942716 -0.00657818
v 0.00603289 -0.00929798 -0.00673272
v 0.00629997 -0.00930168 -0.00648546
v 0.00638718 -0.00933489 -0.00631760
v 0.00625870 -0.00954250 -0.00593178
v 0.00633579 -0.00957387 -0.00575966
v 0.00658418 -0.00957018 -0.00549161
v 0.00675627 -0.00953511 -0.00539196
v 0.01067762 -0.00599477 -0.00471306
v 0.01090265 -0.00541809 -0.00490330
v 0.01041599 -0.00624574 -0.00496352
v 0.01064881 -0.00517081 -0.00568665
v 0.01077495 -0.00503149 -0.00554703
v 0.01112302 -0.00430072 -0.00547243
v 0.01117986 -0.00417616 -0.00546177
v 0.01137997 -0.00430072 -0.00491929
v 0.01143059 -0.00415955 -0.00492835
v 0.01139088 -0.00404237 -0.00510047
v 0.01120555 -0.00398885 -0.00554757
v 0.01128342 -0.00374065 -0.00554703
v 0.01145395 -0.00320457 -0.00554064
v 0.01142046 -0.00310492 -0.00568186
v 0.01167119 -0.00307355 -0.00514790
v 0.01187443 -0.00295452 -0.00475409
v 0.01193828 -0.00286133 -0.00465551
v 0.01202004 -0.00270909 -0.00451536
v 0.01196709 -0.00295452 -0.00451855
v 0.01219368 -0.00207244 -0.00439066
v 0.01223573 -0.00295545 -0.00369737
v 0.01237822 -0.00219331 -0.00374160
v 0.00742748 -0.00923893 -0.00530830
v 0.00768054 -0.00909499 -0.00528059
v 0.00782849 -0.00904055 -0.00518893
v 0.00792349 -0.00893721 -0.00528059
v 0.00811582 -0.00880527 -0.00528911
v 0.00704827 -0.00929245 -0.00569305
v 0.00723281 -0.00925277 -0.00554703
v 0.00710433 -0.00931828 -0.00554703
v 0.00807065 -0.00877390 -0.00542500
v 0.00824429 -0.00870193 -0.00528911
v 0.00838913 -0.00857368 -0.00528911
v 0.00851838 -0.00845650 -0.00528911
v 0.00856666 -0.00849802 -0.00513351
v 0.00872162 -0.00839467 -0.00505251
v 0.00882907 -0.00824428 -0.00514364
v 0.00915922 -0.00811971 -0.00474876
v 0.00930250 -0.00793518 -0.00477328
v 0.00955323 -0.00761777 -0.00479779
v 0.00912418 -0.00802929 -0.00495126
v 0.00961007 -0.00747845 -0.00490010
v 0.00962720 -0.00724409 -0.00518946
v 0.00958204 -0.00717950 -0.00536159
v 0.00953999 -0.00709369 -0.00555556
v 0.00964200 -0.00700788 -0.00547509
v 0.00992076 -0.00656684 -0.00552519
v 0.01014969 -0.00648103 -0.00520225
v 0.01006637 -0.00632417 -0.00555929
v 0.01011620 -0.00617100 -0.00565361
v 0.00988728 -0.00647457 -0.00570690
v 0.01244207 -0.00192204 -0.00369737
v 0.01226064 -0.00193496 -0.00425690
v 0.01220536 -0.00193496 -0.00442796
v 0.01218823 -0.00151329 -0.00463419
v 0.01219679 -0.00134167 -0.00465604
v 0.01220614 -0.00116174 -0.00467682
v 0.01216175 -0.00193496 -0.00455692
v 0.01217966 -0.00167753 -0.00461021
v 0.01113703 -0.00064227 -0.00692829
v 0.01172648 -0.00089693 -0.00582414
v 0.01182926 -0.00116174 -0.00554703
v 0.01171091 -0.00142010 -0.00574953
v 0.01172414 -0.00116174 -0.00577565
v 0.01167119 -0.00097905 -0.00592326
v 0.01119932 -0.00090339 -0.00677642
v 0.01112613 -0.00090339 -0.00690538
v 0.00793750 -0.00064227 -0.00913553
v 0.00460793 -0.00657791 -0.00914086
v 0.00460793 -0.00683626 -0.00914139
v 0.00460716 -0.00786690 -0.00914139
v 0.00460716 -0.00938564 -0.00760879
v 0.00471850 -0.00928783 -0.00774148
v 0.00481973 -0.00932382 -0.00760347
v 0.00484153 -0.00943915 -0.00735087
v 0.00510394 -0.00934689 -0.00736100
v 0.00548549 -0.00928507 -0.00722085
v 0.00561553 -0.00932105 -0.00704073
v 0.00576425 -0.00929429 -0.00698105
v 0.00655226 -0.00930075 -0.00623020
v 0.00620497 -0.00926108 -0.00665705
v 0.00647283 -0.00926477 -0.00640179
v 0.00650787 -0.00953880 -0.00566320
v 0.00666127 -0.00951020 -0.00556515
v 0.00689409 -0.00932290 -0.00578950
v 0.01064569 -0.00541994 -0.00542180
v 0.01060365 -0.00534243 -0.00559340
v 0.01042611 -0.00574841 -0.00549961
v 0.01038328 -0.00567091 -0.00567173
v 0.01043156 -0.00549929 -0.00575806
v 0.01051721 -0.00529261 -0.00580815
v 0.01043000 -0.00524186 -0.00600479
v 0.01060988 -0.00503149 -0.00587263
v 0.01064024 -0.00489493 -0.00592805
v 0.01067918 -0.00503149 -0.00574367
v 0.01093146 -0.00445573 -0.00573248
v 0.01089409 -0.00462735 -0.00566107
v 0.01110588 -0.00430072 -0.00550867
v 0.01110511 -0.00425920 -0.00554757
v 0.01114015 -0.00406820 -0.00563390
v 0.01116818 -0.00389566 -0.00569251
v 0.01139399 -0.00327654 -0.00562271
v 0.01137452 -0.00296652 -0.00584865
v 0.01143915 -0.00296652 -0.00571916
v 0.01151780 -0.00296652 -0.00554703
v 0.01119310 -0.00374065 -0.00574047
v 0.01133793 -0.00320457 -0.00578257
v 0.01163304 -0.00297943 -0.00528379
v 0.01169144 -0.00290193 -0.00519426
v 0.01157775 -0.00270909 -0.00554703
v 0.01195463 -0.00270909 -0.00469121
v 0.01207299 -0.00245074 -0.00451536
v 0.01243117 -0.00198755 -0.00369737
v 0.01213761 -0.00217209 -0.00449191
v 0.01233929 -0.00245074 -0.00369737
v 0.01239146 -0.00219331 -0.00369737
v 0.00743682 -0.00912175 -0.00555982
v 0.00753493 -0.00901749 -0.00565415
v 0.00768054 -0.00896674 -0.00555982
v 0.00672434 -0.00926015 -0.00613322
v 0.00697274 -0.00925462 -0.00586464
v 0.00714638 -0.00919372 -0.00578950
v 0.00680065 -0.00929706 -0.00596109
v 0.00735039 -0.00906454 -0.00580495
v 0.00768443 -0.00884864 -0.00580282
v 0.00760268 -0.00880619 -0.00600319
v 0.00777476 -0.00874253 -0.00588755
v 0.00786353 -0.00856076 -0.00606287
v 0.00817499 -0.00862442 -0.00551986
v 0.00844519 -0.00837714 -0.00553691
v 0.00834007 -0.00852662 -0.00544259
v 0.00860715 -0.00827934 -0.00545964
v 0.00865777 -0.00832732 -0.00528911
v 0.00878702 -0.00819814 -0.00528911
v 0.00889993 -0.00806897 -0.00528911
v 0.00922230 -0.00786321 -0.00502427
v 0.00930016 -0.00741571 -0.00554703
v 0.00936479 -0.00723578 -0.00569465
v 0.00959683 -0.00694237 -0.00564669
v 0.00982810 -0.00664619 -0.00559659
v 0.00994022 -0.00631679 -0.00579803
v 0.00989584 -0.00622913 -0.00597282
v 0.01007805 -0.00607504 -0.00581881
v 0.01016448 -0.00599846 -0.00574207
v 0.00983666 -0.00640075 -0.00587903
v 0.00941463 -0.00708538 -0.00579003
v 0.00955946 -0.00684825 -0.00582414
v 0.01211270 -0.00167753 -0.00477328
v 0.01202393 -0.00219331 -0.00477328
v 0.01207454 -0.00193496 -0.00477328
v 0.01102646 -0.00064227 -0.00709509
v 0.01097040 -0.00141917 -0.00706578
v 0.01100310 -0.00090339 -0.00709349
v 0.01194217 -0.00162586 -0.00517827
v 0.01180279 -0.00142010 -0.00554703
v 0.01169767 -0.00167753 -0.00572129
v 0.01164783 -0.00142010 -0.00587849
v 0.01162292 -0.00141917 -0.00592592
v 0.01154817 -0.00141917 -0.00606287
v 0.01125928 -0.00141917 -0.00657765
v 0.01118609 -0.00116174 -0.00675350
v 0.01109966 -0.00141917 -0.00685902
v 0.00819290 -0.00064227 -0.00914086
v 0.00793750 -0.00090339 -0.00913926
v 0.00664803 -0.00451478 -0.00914139
v 0.00484153 -0.00786690 -0.00913713
v 0.00460716 -0.00812525 -0.00911635
v 0.00510005 -0.00760947 -0.00914139
v 0.00460716 -0.00930260 -0.00777186
v 0.00489059 -0.00925739 -0.00768553
v 0.00501985 -0.00930168 -0.00751341
v 0.00460716 -0.00924170 -0.00787790
v 0.00460716 -0.00922694 -0.00790135
v 0.00481973 -0.00918542 -0.00784327
v 0.00519193 -0.00927215 -0.00745426
v 0.00538270 -0.00924631 -0.00736100
v 0.00563343 -0.00912913 -0.00737166
v 0.00561553 -0.00925831 -0.00716969
v 0.00585925 -0.00919741 -0.00707750
v 0.00593633 -0.00925554 -0.00690484
v 0.00612321 -0.00920756 -0.00682544
v 0.00638718 -0.00921679 -0.00657392
v 0.00663947 -0.00908484 -0.00656859
v 0.00664180 -0.00921494 -0.00631760
v 0.01038328 -0.00541256 -0.00592965
v 0.01011620 -0.00591173 -0.00591420
v 0.01037628 -0.00514036 -0.00617691
v 0.01048062 -0.00504533 -0.00607939
v 0.01034435 -0.00531198 -0.00607939
v 0.01036382 -0.00485064 -0.00641352
v 0.01017382 -0.00477314 -0.00678068
v 0.01081466 -0.00430072 -0.00605968
v 0.01092290 -0.00417616 -0.00596855
v 0.01088552 -0.00434870 -0.00590461
v 0.01093302 -0.00430072 -0.00585505
v 0.01096339 -0.00430072 -0.00579643
v 0.01108642 -0.00430072 -0.00554970
v 0.01108720 -0.00398885 -0.00578897
v 0.01097195 -0.00425920 -0.00581295
v 0.01112691 -0.00374065 -0.00586943
v 0.01124059 -0.00298128 -0.00608312
v 0.01140100 -0.00275338 -0.00589981
v 0.01125772 -0.00321749 -0.00592592
v 0.01120711 -0.00322487 -0.00601491
v 0.01145940 -0.00268418 -0.00581028
v 0.01115105 -0.00358379 -0.00591739
v 0.01166886 -0.00202722 -0.00565841
v 0.00747809 -0.00898243 -0.00580495
v 0.00689409 -0.00920479 -0.00605328
v 0.00714716 -0.00906823 -0.00604103
v 0.00729822 -0.00903133 -0.00594031
v 0.00753493 -0.00876006 -0.00617478
v 0.00768443 -0.00869916 -0.00607833
v 0.00781369 -0.00851739 -0.00619983
v 0.00808389 -0.00827011 -0.00621688
v 0.00813840 -0.00831902 -0.00606287
v 0.00831671 -0.00824797 -0.00592432
v 0.00854875 -0.00822398 -0.00563123
v 0.00863207 -0.00805236 -0.00575326
v 0.00870526 -0.00812064 -0.00553957
v 0.00880493 -0.00795640 -0.00561897
v 0.00885477 -0.00801637 -0.00544685
v 0.00915767 -0.00760209 -0.00552412
v 0.00904943 -0.00768329 -0.00559446
v 0.00912185 -0.00751167 -0.00571596
v 0.00935311 -0.00724409 -0.00570211
v 0.00931029 -0.00716474 -0.00586624
v 0.00994178 -0.00605659 -0.00606074
v 0.00960540 -0.00669693 -0.00592326
v 0.00937414 -0.00699312 -0.00596322
v 0.00966613 -0.00626881 -0.00627124
v 0.00960774 -0.00618392 -0.00644283
v 0.00960774 -0.00592557 -0.00669968
v 0.01193283 -0.00179840 -0.00515749
v 0.01172882 -0.00193865 -0.00556196
v 0.01197643 -0.00193496 -0.00499869
v 0.01092056 -0.00064596 -0.00724962
v 0.01092056 -0.00064227 -0.00724962
v 0.01090888 -0.00090339 -0.00723204
v 0.01088319 -0.00141917 -0.00719527
v 0.01089409 -0.00120603 -0.00721072
v 0.01095482 -0.00167753 -0.00704233
v 0.01177554 -0.00167753 -0.00554703
v 0.01168599 -0.00185468 -0.00569624
v 0.01163382 -0.00167753 -0.00585025
v 0.01151936 -0.00167753 -0.00606287
v 0.01116428 -0.00157972 -0.00671460
v 0.01117285 -0.00141917 -0.00673006
v 0.01109343 -0.00167014 -0.00681425
v 0.00896845 -0.00064227 -0.00914086
v 0.00690577 -0.00430072 -0.00914139
v 0.00587404 -0.00709369 -0.00914086
v 0.00561553 -0.00735112 -0.00913446
v 0.00535779 -0.00760947 -0.00912541
v 0.00512030 -0.00788904 -0.00909290
v 0.00482985 -0.00812894 -0.00907691
v 0.00460716 -0.00829872 -0.00906039
v 0.00613178 -0.00683626 -0.00914139
v 0.00497079 -0.00902764 -0.00799621
v 0.00507435 -0.00907285 -0.00785765
v 0.00510394 -0.00921956 -0.00760347
v 0.00460716 -0.00908577 -0.00811398
v 0.00484153 -0.00905255 -0.00803191
v 0.00535545 -0.00910237 -0.00761412
v 0.00556024 -0.00906178 -0.00753206
v 0.00573232 -0.00902210 -0.00747078
v 0.00587326 -0.00906916 -0.00728586
v 0.00601264 -0.00903225 -0.00723044
v 0.00611153 -0.00907008 -0.00707750
v 0.00637550 -0.00908023 -0.00682544
v 0.00654681 -0.00904332 -0.00673272
v 0.00671889 -0.00899627 -0.00664799
v 0.00680065 -0.00904240 -0.00647587
v 0.00689409 -0.00907746 -0.00630534
v 0.01016370 -0.00574011 -0.00599040
v 0.00988961 -0.00596709 -0.00622274
v 0.01006948 -0.00581761 -0.00607140
v 0.01020419 -0.00528615 -0.00632239
v 0.00986703 -0.00515605 -0.00696026
v 0.01000407 -0.00504071 -0.00684303
v 0.01013956 -0.00492538 -0.00672579
v 0.01009362 -0.00477314 -0.00691017
v 0.01012399 -0.00463566 -0.00695813
v 0.01022833 -0.00453601 -0.00685742
v 0.01047283 -0.00430072 -0.00662134
v 0.01036927 -0.00409035 -0.00693842
v 0.01046271 -0.00400177 -0.00684569
v 0.01059586 -0.00399900 -0.00662667
v 0.01062934 -0.00382277 -0.00668210
v 0.01094470 -0.00397317 -0.00605755
v 0.01101867 -0.00374065 -0.00606287
v 0.01115494 -0.00307816 -0.00618277
v 0.01090888 -0.00286041 -0.00671886
v 0.01117986 -0.00290562 -0.00622647
v 0.01120322 -0.00270909 -0.00626697
v 0.01133871 -0.00268325 -0.00603783
v 0.01141813 -0.00258176 -0.00593445
v 0.01142124 -0.00258822 -0.00592592
v 0.01162136 -0.00193865 -0.00579110
v 0.01117752 -0.00341125 -0.00596535
v 0.01114793 -0.00357826 -0.00592592
v 0.00704982 -0.00903686 -0.00620889
v 0.00722191 -0.00898519 -0.00611243
v 0.00736363 -0.00881357 -0.00627337
v 0.00728810 -0.00876744 -0.00644442
v 0.00743760 -0.00872038 -0.00634371
v 0.00756997 -0.00852846 -0.00647214
v 0.00766497 -0.00857091 -0.00630001
v 0.00784718 -0.00828580 -0.00649505
v 0.00791648 -0.00836423 -0.00629468
v 0.00801926 -0.00820922 -0.00638900
v 0.00857523 -0.00798869 -0.00592539
v 0.00847634 -0.00815016 -0.00583906
v 0.00887735 -0.00778386 -0.00573515
v 0.00906501 -0.00744339 -0.00588809
v 0.00921607 -0.00734005 -0.00579110
v 0.00881973 -0.00771650 -0.00590727
v 0.00913820 -0.00727177 -0.00599200
v 0.00908447 -0.00694883 -0.00643323
v 0.00908681 -0.00669232 -0.00669169
v 0.00931807 -0.00639614 -0.00665385
v 0.00937725 -0.00622452 -0.00674071
v 0.00943098 -0.00605659 -0.00682971
v 0.00937803 -0.00596801 -0.00699437
v 0.00956569 -0.00582500 -0.00684996
v 0.00959995 -0.00565430 -0.00694641
v 0.00965523 -0.00575395 -0.00677429
v 0.00983510 -0.00586929 -0.00639487
v 0.01061065 -0.00064596 -0.00769086
v 0.01061065 -0.00064227 -0.00769086
v 0.01037861 -0.00090339 -0.00798502
v 0.01035214 -0.00141917 -0.00794771
v 0.01086528 -0.00167753 -0.00717129
v 0.01065192 -0.00159541 -0.00749209
v 0.01093146 -0.00193496 -0.00700929
v 0.01147341 -0.00192204 -0.00607460
v 0.01142202 -0.00182608 -0.00619929
v 0.01143214 -0.00167753 -0.00621741
v 0.01115183 -0.00175134 -0.00669275
v 0.01103580 -0.00193496 -0.00683557
v 0.00922619 -0.00064227 -0.00914033
v 0.00896845 -0.00219331 -0.00914086
v 0.00793750 -0.00430072 -0.00914139
v 0.00664803 -0.00657791 -0.00911315
v 0.00615358 -0.00711491 -0.00909503
v 0.00588027 -0.00736219 -0.00908970
v 0.00560774 -0.00760855 -0.00907798
v 0.00535779 -0.00781523 -0.00906892
v 0.00504866 -0.00804498 -0.00906039
v 0.00473641 -0.00826642 -0.00903908
v 0.00460716 -0.00842789 -0.00893729
v 0.00690577 -0.00606213 -0.00914139
v 0.00464453 -0.00900088 -0.00821523
v 0.00470994 -0.00876836 -0.00850992
v 0.00503308 -0.00879604 -0.00828770
v 0.00520517 -0.00875821 -0.00823921
v 0.00535779 -0.00881173 -0.00805749
v 0.00514288 -0.00898981 -0.00793706
v 0.00535545 -0.00894460 -0.00785765
v 0.00460716 -0.00890584 -0.00837083
v 0.00550262 -0.00877759 -0.00800686
v 0.00587794 -0.00885602 -0.00761839
v 0.00587326 -0.00898888 -0.00741535
v 0.00607572 -0.00880896 -0.00753899
v 0.00612944 -0.00889846 -0.00734928
v 0.00618473 -0.00898704 -0.00715317
v 0.00645181 -0.00899258 -0.00690484
v 0.00678430 -0.00877482 -0.00697092
v 0.00688475 -0.00880804 -0.00681265
v 0.00689409 -0.00893721 -0.00656859
v 0.00988260 -0.00569767 -0.00646894
v 0.00964745 -0.00548176 -0.00701089
v 0.00981330 -0.00505455 -0.00710201
v 0.00991375 -0.00498351 -0.00702208
v 0.00995658 -0.00477129 -0.00710201
v 0.01006637 -0.00453601 -0.00709402
v 0.01016059 -0.00446404 -0.00700929
v 0.01040587 -0.00391781 -0.00699384
v 0.00988805 -0.00468363 -0.00724589
v 0.01057250 -0.00373880 -0.00682278
v 0.01071733 -0.00322948 -0.00684996
v 0.01090187 -0.00386983 -0.00619237
v 0.01088241 -0.00303203 -0.00667304
v 0.01065971 -0.00314644 -0.00698744
v 0.01068774 -0.00296652 -0.00702688
v 0.01085048 -0.00270909 -0.00687820
v 0.01092601 -0.00270909 -0.00674924
v 0.01089565 -0.00229296 -0.00695387
v 0.01116662 -0.00235201 -0.00645881
v 0.01134571 -0.00192204 -0.00629948
v 0.01145784 -0.00219331 -0.00600426
v 0.00709966 -0.00880896 -0.00657818
v 0.00703892 -0.00877298 -0.00671194
v 0.00714249 -0.00862442 -0.00681105
v 0.00742436 -0.00838545 -0.00683823
v 0.00760112 -0.00829595 -0.00676576
v 0.00767120 -0.00837714 -0.00656965
v 0.00752637 -0.00823321 -0.00693788
v 0.00777320 -0.00822213 -0.00666717
v 0.00794139 -0.00812986 -0.00658244
v 0.00803561 -0.00796563 -0.00666877
v 0.00810336 -0.00803667 -0.00649771
v 0.00817967 -0.00811141 -0.00630108
v 0.00833929 -0.00801361 -0.00621315
v 0.00835097 -0.00777002 -0.00648652
v 0.00889370 -0.00754488 -0.00600852
v 0.00885710 -0.00724409 -0.00640766
v 0.00885010 -0.00697835 -0.00672313
v 0.00878624 -0.00690177 -0.00689525
v 0.00885555 -0.00673015 -0.00698638
v 0.00904398 -0.00659452 -0.00685369
v 0.00908759 -0.00643581 -0.00695121
v 0.00931807 -0.00613963 -0.00691230
v 0.00907513 -0.00616085 -0.00719740
v 0.00913509 -0.00598831 -0.00726721
v 0.00911951 -0.00571058 -0.00750914
v 0.00936090 -0.00568659 -0.00723097
v 0.00941774 -0.00578532 -0.00708549
v 0.00889759 -0.00655669 -0.00708070
v 0.00953843 -0.00555926 -0.00709562
v 0.01046660 -0.00066626 -0.00789229
v 0.01044324 -0.00064227 -0.00792853
v 0.01033423 -0.00064227 -0.00807348
v 0.01038484 -0.00076591 -0.00799461
v 0.01022288 -0.00141917 -0.00811398
v 0.01033345 -0.00167753 -0.00792160
v 0.01020419 -0.00167753 -0.00809106
v 0.01084192 -0.00193496 -0.00713825
v 0.01063713 -0.00176795 -0.00747131
v 0.01091278 -0.00212042 -0.00698211
v 0.00943331 -0.00064227 -0.00908384
v 0.00922619 -0.00064596 -0.00914033
v 0.00896845 -0.00245074 -0.00913073
v 0.00871071 -0.00322487 -0.00913180
v 0.00871071 -0.00296652 -0.00914086
v 0.00793750 -0.00451478 -0.00914139
v 0.00922619 -0.00090339 -0.00913660
v 0.00922619 -0.00116174 -0.00912967
v 0.00692991 -0.00634447 -0.00909556
v 0.00710511 -0.00627434 -0.00906572
v 0.00684036 -0.00657791 -0.00905613
v 0.00634358 -0.00704294 -0.00906572
v 0.00716351 -0.00580377 -0.00913979
v 0.00742125 -0.00554635 -0.00913287
v 0.00717986 -0.00607689 -0.00909396
v 0.00608039 -0.00728376 -0.00906412
v 0.00579929 -0.00752274 -0.00905613
v 0.00551741 -0.00776171 -0.00904547
v 0.00522074 -0.00798869 -0.00902256
v 0.00490850 -0.00821752 -0.00899218
v 0.00523164 -0.00825535 -0.00877103
v 0.00510005 -0.00829041 -0.00880887
v 0.00481584 -0.00836976 -0.00888401
v 0.00489604 -0.00847310 -0.00872840
v 0.00472395 -0.00851739 -0.00877583
v 0.00460716 -0.00855707 -0.00879714
v 0.00767976 -0.00503149 -0.00914139
v 0.00460716 -0.00869916 -0.00864047
v 0.00482207 -0.00859121 -0.00864154
v 0.00504944 -0.00855338 -0.00855628
v 0.00460716 -0.00888185 -0.00840440
v 0.00535779 -0.00871300 -0.00818645
v 0.00522152 -0.00850817 -0.00850725
v 0.00553766 -0.00828580 -0.00854668
v 0.00535779 -0.00858383 -0.00833246
v 0.00589039 -0.00865210 -0.00787790
v 0.00596592 -0.00874806 -0.00771058
v 0.00579384 -0.00879420 -0.00777186
v 0.00624702 -0.00876098 -0.00746811
v 0.00634513 -0.00881542 -0.00729599
v 0.00664725 -0.00881173 -0.00703274
v 0.00651722 -0.00876836 -0.00722085
v 0.00688319 -0.00862442 -0.00707217
v 0.00707241 -0.00854138 -0.00700183
v 0.00695716 -0.00871300 -0.00688406
v 0.00958048 -0.00536089 -0.00718301
v 0.00967159 -0.00503149 -0.00729705
v 0.00984756 -0.00485618 -0.00719420
v 0.01011387 -0.00430072 -0.00716703
v 0.01016448 -0.00399900 -0.00726988
v 0.00980863 -0.00376279 -0.00786778
v 0.00990207 -0.00369083 -0.00778145
v 0.01013723 -0.00363639 -0.00749316
v 0.01034279 -0.00374065 -0.00716543
v 0.01043701 -0.00374065 -0.00703700
v 0.00958438 -0.00458122 -0.00770258
v 0.00992465 -0.00451478 -0.00729439
v 0.01063246 -0.00331806 -0.00694588
v 0.01059508 -0.00296652 -0.00715584
v 0.01037160 -0.00356719 -0.00720380
v 0.01062467 -0.00275984 -0.00719634
v 0.01070643 -0.00268787 -0.00710361
v 0.01076561 -0.00245074 -0.00709349
v 0.01064569 -0.00258729 -0.00722511
v 0.00724371 -0.00847495 -0.00691124
v 0.00735428 -0.00830333 -0.00702954
v 0.00727097 -0.00823597 -0.00720166
v 0.00761669 -0.00806159 -0.00703274
v 0.00778878 -0.00797670 -0.00694268
v 0.00786353 -0.00805051 -0.00677056
v 0.00804807 -0.00771927 -0.00694374
v 0.00811504 -0.00779308 -0.00677162
v 0.00819446 -0.00786782 -0.00657818
v 0.00828634 -0.00769620 -0.00665811
v 0.00836109 -0.00752458 -0.00675723
v 0.00853240 -0.00742401 -0.00664106
v 0.00859937 -0.00724409 -0.00675777
v 0.00854174 -0.00717765 -0.00691230
v 0.00861494 -0.00700511 -0.00700396
v 0.00869826 -0.00682242 -0.00708123
v 0.00860949 -0.00674307 -0.00725549
v 0.00835253 -0.00648564 -0.00777293
v 0.00878157 -0.00662866 -0.00715797
v 0.00889059 -0.00631956 -0.00728426
v 0.00857211 -0.00591911 -0.00798502
v 0.00884309 -0.00645611 -0.00722831
v 0.00887579 -0.00572904 -0.00778198
v 0.00880260 -0.00562108 -0.00795411
v 0.00885866 -0.00544946 -0.00801859
v 0.00909927 -0.00542271 -0.00774202
v 0.00940061 -0.00554635 -0.00728000
v 0.01015669 -0.00064227 -0.00828930
v 0.01011776 -0.00141917 -0.00824294
v 0.01013489 -0.00109716 -0.00826159
v 0.01050554 -0.00193496 -0.00760933
v 0.01030775 -0.00193496 -0.00788590
v 0.01013567 -0.00235662 -0.00800527
v 0.01015202 -0.00219331 -0.00802658
v 0.01017850 -0.00193496 -0.00805909
v 0.01009829 -0.00167753 -0.00822002
v 0.01065971 -0.00245074 -0.00724536
v 0.01056783 -0.00245074 -0.00737432
v 0.01059430 -0.00219331 -0.00741109
v 0.00956102 -0.00064227 -0.00897193
v 0.00943331 -0.00064596 -0.00908384
v 0.00922619 -0.00141917 -0.00911848
v 0.00918492 -0.00219331 -0.00908437
v 0.00915611 -0.00245074 -0.00907425
v 0.00890616 -0.00322487 -0.00907531
v 0.00845376 -0.00399900 -0.00911421
v 0.00845376 -0.00374065 -0.00913766
v 0.00819524 -0.00425643 -0.00913820
v 0.00942163 -0.00090339 -0.00908011
v 0.00940918 -0.00116174 -0.00907318
v 0.00735117 -0.00600123 -0.00906252
v 0.00703191 -0.00644596 -0.00902575
v 0.00677729 -0.00670708 -0.00902842
v 0.00664803 -0.00676890 -0.00905613
v 0.00625247 -0.00721456 -0.00902202
v 0.00793750 -0.00477314 -0.00913446
v 0.00767976 -0.00528892 -0.00912008
v 0.00743059 -0.00580839 -0.00908810
v 0.00552987 -0.00802929 -0.00879981
v 0.00535779 -0.00794348 -0.00898152
v 0.00597137 -0.00745538 -0.00900550
v 0.00568950 -0.00769436 -0.00898845
v 0.00533365 -0.00811971 -0.00883711
v 0.00512030 -0.00812894 -0.00895275
v 0.00533365 -0.00832363 -0.00863568
v 0.00540373 -0.00820183 -0.00871881
v 0.00552053 -0.00853308 -0.00827811
v 0.00581408 -0.00855522 -0.00804523
v 0.00570974 -0.00822859 -0.00848700
v 0.00600330 -0.00825443 -0.00825359
v 0.00598617 -0.00850171 -0.00798395
v 0.00613100 -0.00856722 -0.00780117
v 0.00627272 -0.00852108 -0.00774788
v 0.00614969 -0.00870562 -0.00761839
v 0.00663558 -0.00858659 -0.00734288
v 0.00690733 -0.00838453 -0.00735247
v 0.00698130 -0.00847310 -0.00717342
v 0.00709966 -0.00830148 -0.00728160
v 0.00956880 -0.00503149 -0.00742601
v 0.00960696 -0.00489216 -0.00747344
v 0.00934455 -0.00462458 -0.00798448
v 0.00957581 -0.00430072 -0.00787364
v 0.00959372 -0.00408389 -0.00797169
v 0.00963032 -0.00391135 -0.00801752
v 0.00966536 -0.00374065 -0.00806015
v 0.00984289 -0.00348230 -0.00795997
v 0.00986625 -0.00334020 -0.00799034
v 0.01030153 -0.00348138 -0.00733649
v 0.00968638 -0.00450279 -0.00761359
v 0.00948471 -0.00451663 -0.00786778
v 0.01045259 -0.00294806 -0.00735833
v 0.01038951 -0.00284934 -0.00748570
v 0.01042611 -0.00322487 -0.00727680
v 0.01018628 -0.00270909 -0.00781875
v 0.01011776 -0.00252824 -0.00798129
v 0.00700466 -0.00823136 -0.00745372
v 0.00710433 -0.00805882 -0.00754645
v 0.00727642 -0.00798131 -0.00746438
v 0.00736129 -0.00806435 -0.00729226
v 0.00787677 -0.00780508 -0.00703434
v 0.00796242 -0.00763530 -0.00711907
v 0.00804807 -0.00745999 -0.00720326
v 0.00812516 -0.00754765 -0.00703114
v 0.00829647 -0.00744985 -0.00692882
v 0.00820614 -0.00762146 -0.00685049
v 0.00853863 -0.00691469 -0.00717609
v 0.00837044 -0.00727730 -0.00701782
v 0.00828167 -0.00665818 -0.00769299
v 0.00827544 -0.00638691 -0.00794452
v 0.00859781 -0.00647364 -0.00750115
v 0.00803172 -0.00666556 -0.00795837
v 0.00810569 -0.00649394 -0.00803404
v 0.00852461 -0.00636938 -0.00767274
v 0.00834007 -0.00621437 -0.00801433
v 0.00839380 -0.00606213 -0.00806868
v 0.00863051 -0.00574749 -0.00804843
v 0.00870371 -0.00553712 -0.00811984
v 0.00860482 -0.00545408 -0.00827811
v 0.00878313 -0.00528892 -0.00819764
v 0.00890382 -0.00528892 -0.00806868
v 0.00912496 -0.00495490 -0.00802925
v 0.00907747 -0.00512745 -0.00797276
v 0.00903230 -0.00528892 -0.00791734
v 0.00913664 -0.00528892 -0.00778838
v 0.00931885 -0.00509607 -0.00769406
v 0.00980318 -0.00064227 -0.00869589
v 0.00964978 -0.00116174 -0.00881260
v 0.00986937 -0.00154005 -0.00851098
v 0.00978449 -0.00144040 -0.00862182
v 0.01003366 -0.00244612 -0.00810492
v 0.01004534 -0.00219331 -0.00815554
v 0.01007182 -0.00193496 -0.00818858
v 0.00991686 -0.00219331 -0.00830635
v 0.00996981 -0.00167753 -0.00836657
v 0.00967548 -0.00064227 -0.00884244
v 0.00956102 -0.00064596 -0.00897193
v 0.00939282 -0.00141917 -0.00906199
v 0.00937024 -0.00167753 -0.00904281
v 0.00935623 -0.00181408 -0.00902948
v 0.00931340 -0.00219331 -0.00898579
v 0.00928537 -0.00245074 -0.00895115
v 0.00911873 -0.00270909 -0.00904654
v 0.00887034 -0.00342694 -0.00905347
v 0.00861961 -0.00399900 -0.00905720
v 0.00867256 -0.00374065 -0.00908117
v 0.00845609 -0.00423890 -0.00907478
v 0.00819368 -0.00451478 -0.00910942
v 0.00955011 -0.00090339 -0.00895648
v 0.00758866 -0.00572719 -0.00905506
v 0.00752325 -0.00589881 -0.00900337
v 0.00730211 -0.00645980 -0.00877849
v 0.00759645 -0.00676060 -0.00829409
v 0.00752247 -0.00693222 -0.00822908
v 0.00705605 -0.00672831 -0.00878755
v 0.00696884 -0.00657791 -0.00897513
v 0.00744928 -0.00609442 -0.00892291
v 0.00707474 -0.00700327 -0.00854402
v 0.00690110 -0.00724409 -0.00848167
v 0.00641366 -0.00711491 -0.00897779
v 0.00655148 -0.00750890 -0.00853763
v 0.00656550 -0.00777740 -0.00828930
v 0.00626493 -0.00748398 -0.00877316
v 0.00623301 -0.00724409 -0.00900977
v 0.00795307 -0.00504256 -0.00909023
v 0.00767665 -0.00553066 -0.00907212
v 0.00628829 -0.00801730 -0.00827384
v 0.00582265 -0.00805697 -0.00856693
v 0.00615280 -0.00736219 -0.00896127
v 0.00629296 -0.00827565 -0.00802019
v 0.00610608 -0.00831256 -0.00811398
v 0.00617461 -0.00818984 -0.00819231
v 0.00613100 -0.00845650 -0.00793013
v 0.00654058 -0.00852846 -0.00750008
v 0.00646505 -0.00821383 -0.00795038
v 0.00656472 -0.00828672 -0.00777879
v 0.00683336 -0.00829410 -0.00752993
v 0.00930406 -0.00477314 -0.00793386
v 0.00924098 -0.00454615 -0.00814115
v 0.00938426 -0.00445296 -0.00803191
v 0.00917558 -0.00477314 -0.00808307
v 0.00909382 -0.00463935 -0.00825093
v 0.00941852 -0.00430072 -0.00807028
v 0.00955323 -0.00374065 -0.00818911
v 0.00959138 -0.00355150 -0.00823175
v 0.00969884 -0.00347307 -0.00813742
v 0.00989273 -0.00316766 -0.00802445
v 0.01009206 -0.00270909 -0.00794771
v 0.01006793 -0.00299143 -0.00786298
v 0.01015436 -0.00292315 -0.00777452
v 0.00994723 -0.00268971 -0.00813529
v 0.00987404 -0.00259006 -0.00825786
v 0.00673680 -0.00822306 -0.00770205
v 0.00665504 -0.00813263 -0.00787364
v 0.00684114 -0.00805051 -0.00779637
v 0.00701323 -0.00797670 -0.00771857
v 0.00779189 -0.00772204 -0.00720593
v 0.00719076 -0.00789273 -0.00763491
v 0.00719076 -0.00763530 -0.00789229
v 0.00753727 -0.00720902 -0.00798288
v 0.00779345 -0.00746461 -0.00746545
v 0.00779189 -0.00720257 -0.00772017
v 0.00795463 -0.00711399 -0.00762745
v 0.00811114 -0.00675875 -0.00778625
v 0.00778644 -0.00693868 -0.00797169
v 0.00801381 -0.00638691 -0.00820563
v 0.00808545 -0.00621437 -0.00827118
v 0.00817967 -0.00630110 -0.00810971
v 0.00786041 -0.00676614 -0.00804577
v 0.00776853 -0.00666003 -0.00821789
v 0.00826610 -0.00606213 -0.00819764
v 0.00854720 -0.00562570 -0.00822055
v 0.00813528 -0.00528892 -0.00883551
v 0.00831282 -0.00514221 -0.00875984
v 0.00865387 -0.00528892 -0.00832820
v 0.00857055 -0.00514036 -0.00850086
v 0.00882674 -0.00513852 -0.00824187
v 0.00905644 -0.00477314 -0.00821203
v 0.00953688 -0.00116174 -0.00894156
v 0.00962097 -0.00159264 -0.00878009
v 0.00952052 -0.00141917 -0.00892397
v 0.00985613 -0.00167753 -0.00849553
v 0.00951663 -0.00167845 -0.00887974
v 0.00988883 -0.00245074 -0.00827544
v 0.00980318 -0.00219331 -0.00843531
v 0.00943098 -0.00219331 -0.00885683
v 0.00962409 -0.00261682 -0.00852484
v 0.00937414 -0.00264265 -0.00879182
v 0.00909771 -0.00284011 -0.00902895
v 0.00903464 -0.00322487 -0.00896287
v 0.00912185 -0.00341494 -0.00879768
v 0.00897857 -0.00350629 -0.00890958
v 0.00883141 -0.00359856 -0.00902202
v 0.00858846 -0.00414110 -0.00903428
v 0.00835876 -0.00451478 -0.00905293
v 0.00843507 -0.00430072 -0.00906998
v 0.00810569 -0.00496598 -0.00905666
v 0.00786898 -0.00528892 -0.00906306
v 0.00781992 -0.00543378 -0.00903695
v 0.00776074 -0.00560632 -0.00898206
v 0.00768989 -0.00581761 -0.00890692
v 0.00779111 -0.00590804 -0.00875345
v 0.00781759 -0.00620145 -0.00851951
v 0.00784250 -0.00648748 -0.00828290
v 0.00761436 -0.00703740 -0.00805696
v 0.00744383 -0.00711583 -0.00814435
v 0.00735039 -0.00702356 -0.00830315
v 0.00726474 -0.00719518 -0.00823121
v 0.00662779 -0.00733266 -0.00862502
v 0.00683024 -0.00753196 -0.00829676
v 0.00673758 -0.00770358 -0.00822482
v 0.00665660 -0.00787336 -0.00813209
v 0.00657406 -0.00804221 -0.00803990
v 0.00646038 -0.00794902 -0.00821150
v 0.00637628 -0.00811602 -0.00811611
v 0.00913664 -0.00446680 -0.00829729
v 0.00930328 -0.00430072 -0.00819977
v 0.00931418 -0.00425643 -0.00820990
v 0.00892796 -0.00477314 -0.00834419
v 0.00850593 -0.00454062 -0.00890159
v 0.00856510 -0.00430072 -0.00897406
v 0.00879637 -0.00430072 -0.00873639
v 0.00942553 -0.00374065 -0.00832873
v 0.00934610 -0.00410788 -0.00824507
v 0.00937180 -0.00339926 -0.00853070
v 0.00962097 -0.00337988 -0.00826372
v 0.00992465 -0.00296652 -0.00806229
v 0.00984678 -0.00276260 -0.00822802
v 0.00964589 -0.00322487 -0.00829090
v 0.00674615 -0.00796932 -0.00796850
v 0.00692757 -0.00788720 -0.00788643
v 0.00701401 -0.00771835 -0.00797596
v 0.00727564 -0.00746461 -0.00798022
v 0.00736440 -0.00729207 -0.00805909
v 0.00731457 -0.00724409 -0.00814488
v 0.00770312 -0.00711952 -0.00789123
v 0.00791570 -0.00629372 -0.00836337
v 0.00813762 -0.00606213 -0.00832234
v 0.00831515 -0.00592096 -0.00824667
v 0.00795230 -0.00582592 -0.00865539
v 0.00811348 -0.00574380 -0.00855628
v 0.00805041 -0.00513760 -0.00901350
v 0.00820848 -0.00505455 -0.00891065
v 0.00827622 -0.00481650 -0.00897993
v 0.00836109 -0.00497059 -0.00880780
v 0.00915455 -0.00322487 -0.00883338
v 0.00908681 -0.00358656 -0.00875878
v 0.00874887 -0.00399900 -0.00893090
v 0.00884153 -0.00413187 -0.00877157
v 0.00907902 -0.00430072 -0.00844011
v 0.00832294 -0.00464488 -0.00902789
v 0.00710433 -0.00754580 -0.00805589
v 0.00692212 -0.00762516 -0.00814062
v 0.00700233 -0.00744985 -0.00822748
v 0.00684192 -0.00779770 -0.00805269
v 0.00917558 -0.00430072 -0.00833779
v 0.00918570 -0.00425643 -0.00834845
v 0.00887034 -0.00399900 -0.00880194
v 0.00981486 -0.00296652 -0.00819071
f 1 2 3
f 1 3 4
f 1 4 5
f 1 5 15
f 1 15 29
f 1 29 50
f 1 50 117
f 1 117 115
f 1 115 114
f 1 114 113
f 1 113 177
f 1 177 255
f 1 255 254
f 1 254 330
f 1 330 418
f 1 418 514
f 1 514 604
f 1 604 698
f 1 698 803
f 1 803 805
f 1 805 808
f 1 808 707
f 1 707 609
f 1 609 520
f 1 520 519
f 1 519 516
f 1 516 419
f 1 419 331
f 1 331 256
f 1 256 257
f 1 257 183
f 1 183 178
f 1 178 118
f 1 118 53
f 1 53 52
f 1 52 51
f 1 51 30
f 1 30 16
f 1 16 6
f 1 6 2
f 2 6 7
f 2 7 3
f 3 8 9
f 3 9 10
f 3 10 4
f 3 7 11
f 3 11 8
f 4 10 12
f 4 12 13
f 4 13 14
f 4 14 15
f 4 15 5
f 6 16 17
f 6 17 18
f 6 18 7
f 7 18 19
f 7 19 11
f 8 11 9
f 9 20 21
f 9 21 12
f 9 12 10
f 9 11 22
f 9 22 23
f 9 23 20
f 11 19 24
f 11 24 22
f 12 21 25
f 12 25 26
f 12 26 13
f 13 26 27
f 13 27 14
f 14 28 15
f 14 27 28
f 15 28 29
f 16 30 17
f 17 30 31
f 17 31 32
f 17 32 33
f 17 33 34
f 17 34 19
f 17 19 18
f 19 34 24
f 20 23 35
f 20 35 21
f 21 35 36
f 21 36 37
f 21 37 38
f 21 38 39
f 21 39 40
f 21 40 25
f 22 24 23
f 23 24 42
f 23 42 35
f 24 34 33
f 24 33 41
f 24 41 42
f 25 40 43
f 25 43 44
f 25 44 45
f 25 45 26
f 26 45 27
f 27 45 44
f 27 44 43
f 27 43 76
f 27 76 143
f 27 143 215
f 27 215 291
f 27 291 289
f 27 289 288
f 27 288 287
f 27 287 368
f 27 368 462
f 27 462 463
f 27 463 460
f 27 460 399
f 27 399 317
f 27 317 241
f 27 241 171
f 27 171 110
f 27 110 46
f 27 46 47
f 27 47 48
f 27 48 49
f 27 49 28
f 28 49 29
f 29 49 48
f 29 48 50
f 30 51 31
f 31 51 52
f 31 52 53
f 31 53 54
f 31 54 55
f 31 55 56
f 31 56 32
f 32 56 57
f 32 57 33
f 33 57 58
f 33 58 41
f 35 42 36
f 36 42 41
f 36 41 59
f 36 59 60
f 36 60 61
f 36 61 37
f 37 61 62
f 37 62 39
f 37 39 38
f 39 62 63
f 39 63 43
f 39 43 40
f 41 58 64
f 41 64 59
f 43 65 66
f 43 66 67
f 43 67 68
f 43 68 69
f 43 69 70
f 43 70 71
f 43 71 72
f 43 72 73
f 43 73 74
f 43 74 75
f 43 75 76
f 43 63 77
f 43 77 78
f 43 78 79
f 43 79 80
f 43 80 81
f 43 81 82
f 43 82 83
f 43 83 84
f 43 84 85
f 43 85 86
f 43 86 87
f 43 87 88
f 43 88 89
f 43 89 90
f 43 90 91
f 43 91 92
f 43 92 93
f 43 93 94
f 43 94 95
f 43 95 96
f 43 96 97
f 43 97 98
f 43 98 99
f 43 99 100
f 43 100 101
f 43 101 102
f 43 102 103
f 43 103 104
f 43 104 105
f 43 105 106
f 43 106 107
f 43 107 108
f 43 108 109
f 43 109 65
f 46 110 173
f 46 173 111
f 46 111 112
f 46 112 113
f 46 113 114
f 46 114 115
f 46 115 116
f 46 116 47
f 47 116 117
f 47 117 50
f 47 50 48
f 53 118 54
f 54 118 119
f 54 119 55
f 55 120 56
f 55 119 121
f 55 121 122
f 55 122 123
f 55 123 120
f 56 120 124
f 56 124 57
f 57 125 58
f 57 124 125
f 58 125 126
f 58 126 127
f 58 127 64
f 59 64 128
f 59 128 60
f 60 128 129
f 60 129 130
f 60 130 131
f 60 131 132
f 60 132 61
f 61 63 62
f 61 132 77
f 61 77 63
f 64 127 128
f 65 109 133
f 65 133 134
f 65 134 135
f 65 135 66
f 66 135 136
f 66 136 67
f 67 136 68
f 68 136 137
f 68 137 69
f 69 137 138
f 69 138 70
f 70 138 71
f 71 138 72
f 72 138 73
f 73 138 139
f 73 139 74
f 74 139 140
f 74 140 141
f 74 141 75
f 75 141 76
f 76 141 142
f 76 142 143
f 77 132 78
f 78 132 131
f 78 131 79
f 79 131 144
f 79 144 80
f 80 144 81
f 81 144 145
f 81 145 146
f 81 146 82
f 82 146 147
f 82 147 83
f 83 147 84
f 84 147 85
f 85 147 148
f 85 148 149
f 85 149 86
f 86 149 87
f 87 149 150
f 87 150 88
f 88 150 89
f 89 150 151
f 89 151 152
f 89 152 90
f 90 152 153
f 90 153 91
f 91 153 92
f 92 153 154
f 92 154 155
f 92 155 156
f 92 156 93
f 93 156 94
f 94 156 157
f 94 157 158
f 94 158 159
f 94 159 95
f 95 159 96
f 96 159 160
f 96 160 97
f 97 160 98
f 98 160 161
f 98 161 99
f 99 161 162
f 99 162 100
f 100 162 101
f 101 162 163
f 101 163 164
f 101 164 102
f 102 164 165
f 102 165 103
f 103 165 104
f 104 165 166
f 104 166 105
f 105 166 167
f 105 167 168
f 105 168 106
f 106 168 169
f 106 169 107
f 107 169 108
f 108 169 170
f 108 170 133
f 108 133 109
f 110 171 172
f 110 172 173
f 111 173 244
f 111 244 322
f 111 322 407
f 111 407 498
f 111 498 585
f 111 585 677
f 111 677 769
f 111 769 770
f 111 770 869
f 111 869 967
f 111 967 976
f 111 976 881
f 111 881 778
f 111 778 688
f 111 688 597
f 111 597 510
f 111 510 415
f 111 415 328
f 111 328 251
f 111 251 174
f 111 174 112
f 112 174 175
f 112 175 176
f 112 176 113
f 113 176 177
f 115 117 116
f 118 178 119
f 119 179 121
f 119 178 179
f 120 123 124
f 121 180 181
f 121 181 182
f 121 182 123
f 121 123 122
f 121 179 183
f 121 183 180
f 123 184 124
f 123 182 185
f 123 185 186
f 123 186 184
f 124 184 125
f 125 184 187
f 125 187 126
f 126 187 188
f 126 188 127
f 127 188 189
f 127 189 190
f 127 190 191
f 127 191 192
f 127 192 128
f 128 192 193
f 128 193 129
f 129 193 190
f 129 190 194
f 129 194 195
f 129 195 130
f 130 196 131
f 130 195 197
f 130 197 198
f 130 198 196
f 131 196 144
f 133 170 199
f 133 199 200
f 133 200 134
f 134 200 135
f 135 200 136
f 136 201 202
f 136 202 137
f 136 200 201
f 137 202 138
f 138 203 204
f 138 204 205
f 138 205 206
f 138 206 139
f 138 202 203
f 139 206 207
f 139 207 208
f 139 208 140
f 140 208 141
f 141 208 142
f 142 208 209
f 142 209 210
f 142 210 211
f 142 211 212
f 142 212 213
f 142 213 214
f 142 214 215
f 142 215 143
f 144 196 145
f 145 196 198
f 145 198 146
f 146 198 147
f 147 198 148
f 148 198 216
f 148 216 217
f 148 217 218
f 148 218 149
f 149 218 219
f 149 219 150
f 150 219 151
f 151 219 152
f 152 220 221
f 152 221 222
f 152 222 153
f 152 219 218
f 152 218 223
f 152 223 224
f 152 224 220
f 153 222 221
f 153 221 225
f 153 225 154
f 154 225 226
f 154 226 227
f 154 227 155
f 155 227 157
f 155 157 156
f 157 228 229
f 157 229 158
f 157 227 228
f 158 229 230
f 158 230 159
f 159 230 231
f 159 231 160
f 160 231 161
f 161 232 233
f 161 233 162
f 161 231 232
f 162 233 163
f 163 234 164
f 163 233 234
f 164 234 165
f 165 234 235
f 165 235 166
f 166 236 237
f 166 237 238
f 166 238 167
f 166 235 236
f 167 238 168
f 168 238 169
f 169 238 170
f 170 239 240
f 170 240 199
f 170 238 239
f 171 241 242
f 171 242 172
f 172 242 243
f 172 243 173
f 173 243 245
f 173 245 246
f 173 246 247
f 173 247 248
f 173 248 249
f 173 249 250
f 173 250 244
f 174 251 252
f 174 252 253
f 174 253 175
f 175 253 254
f 175 254 176
f 176 254 255
f 176 255 177
f 178 183 179
f 180 256 181
f 180 183 257
f 180 257 256
f 181 256 258
f 181 258 259
f 181 259 260
f 181 260 182
f 182 260 261
f 182 261 185
f 184 188 187
f 184 186 188
f 185 261 186
f 186 261 262
f 186 262 263
f 186 263 264
f 186 264 265
f 186 265 188
f 188 265 189
f 189 265 190
f 190 193 192
f 190 192 191
f 190 265 266
f 190 266 267
f 190 267 268
f 190 268 194
f 194 268 195
f 195 268 197
f 197 268 198
f 198 268 216
f 199 269 200
f 199 240 269
f 200 269 270
f 200 270 271
f 200 271 202
f 200 202 201
f 202 272 203
f 202 271 270
f 202 270 272
f 203 272 273
f 203 273 204
f 204 273 274
f 204 274 275
f 204 275 276
f 204 276 277
f 204 277 205
f 205 277 207
f 205 207 206
f 207 277 276
f 207 276 278
f 207 278 208
f 208 278 210
f 208 210 209
f 210 279 212
f 210 212 211
f 210 278 276
f 210 276 279
f 212 279 280
f 212 280 281
f 212 281 282
f 212 282 283
f 212 283 284
f 212 284 213
f 213 284 283
f 213 283 285
f 213 285 286
f 213 286 287
f 213 287 288
f 213 288 289
f 213 289 290
f 213 290 214
f 214 290 291
f 214 291 215
f 216 268 267
f 216 267 292
f 216 292 293
f 216 293 217
f 217 292 294
f 217 294 218
f 217 293 292
f 218 294 295
f 218 295 224
f 218 224 223
f 220 224 296
f 220 296 297
f 220 297 298
f 220 298 221
f 221 298 226
f 221 226 225
f 224 295 299
f 224 299 296
f 226 300 301
f 226 301 228
f 226 228 227
f 226 298 300
f 228 302 229
f 228 301 302
f 229 302 303
f 229 303 304
f 229 304 305
f 229 305 230
f 230 305 306
f 230 306 307
f 230 307 231
f 231 307 232
f 232 308 233
f 232 307 308
f 233 308 309
f 233 309 234
f 234 309 235
f 235 310 236
f 235 309 310
f 236 310 311
f 236 311 237
f 237 311 312
f 237 312 238
f 238 312 239
f 239 312 240
f 240 312 313
f 240 313 314
f 240 314 315
f 240 315 316
f 240 316 269
f 241 317 318
f 241 318 319
f 241 319 242
f 242 320 246
f 242 246 245
f 242 245 243
f 242 319 321
f 242 321 320
f 244 250 326
f 244 326 322
f 246 320 323
f 246 323 247
f 247 323 248
f 248 323 324
f 248 324 249
f 249 325 250
f 249 324 325
f 250 325 327
f 250 327 326
f 251 328 252
f 252 329 330
f 252 330 253
f 252 328 329
f 253 330 254
f 256 331 332
f 256 332 333
f 256 333 258
f 258 333 259
f 259 333 334
f 259 334 335
f 259 335 260
f 260 335 336
f 260 336 337
f 260 337 261
f 261 337 263
f 261 263 262
f 263 338 264
f 263 337 339
f 263 339 340
f 263 340 341
f 263 341 342
f 263 342 343
f 263 343 338
f 264 338 344
f 264 344 345
f 264 345 265
f 265 345 266
f 266 345 346
f 266 346 267
f 267 346 347
f 267 347 292
f 269 348 270
f 269 316 348
f 270 348 272
f 272 349 273
f 272 348 350
f 272 350 349
f 273 351 274
f 273 349 351
f 274 351 352
f 274 352 353
f 274 353 275
f 275 353 276
f 276 353 354
f 276 354 355
f 276 355 356
f 276 356 279
f 279 356 280
f 280 357 358
f 280 358 282
f 280 282 281
f 280 356 357
f 282 358 359
f 282 359 360
f 282 360 361
f 282 361 362
f 282 362 283
f 283 362 363
f 283 363 364
f 283 364 365
f 283 365 366
f 283 366 285
f 285 366 365
f 285 365 367
f 285 367 286
f 286 368 287
f 286 367 369
f 286 369 368
f 289 291 290
f 292 347 299
f 292 299 294
f 294 299 295
f 296 299 370
f 296 370 297
f 297 370 371
f 297 371 298
f 298 371 372
f 298 372 373
f 298 373 374
f 298 374 300
f 299 375 376
f 299 376 370
f 299 347 377
f 299 377 375
f 300 374 301
f 301 374 302
f 302 374 378
f 302 378 379
f 302 379 380
f 302 380 381
f 302 381 382
f 302 382 303
f 303 382 304
f 304 382 307
f 304 307 306
f 304 306 305
f 307 382 383
f 307 383 384
f 307 384 385
f 307 385 308
f 308 386 387
f 308 387 310
f 308 310 309
f 308 385 388
f 308 388 386
f 310 387 389
f 310 389 311
f 311 389 390
f 311 390 391
f 311 391 392
f 311 392 393
f 311 393 313
f 311 313 312
f 313 394 395
f 313 395 314
f 313 393 394
f 314 396 397
f 314 397 315
f 314 395 394
f 314 394 398
f 314 398 396
f 315 397 350
f 315 350 316
f 316 350 348
f 317 399 318
f 318 399 400
f 318 400 401
f 318 401 321
f 318 321 319
f 320 321 402
f 320 402 403
f 320 403 404
f 320 404 323
f 321 401 405
f 321 405 406
f 321 406 402
f 322 326 407
f 323 404 324
f 324 408 325
f 324 404 409
f 324 409 410
f 324 410 411
f 324 411 408
f 325 408 412
f 325 412 327
f 326 327 413
f 326 413 414
f 326 414 407
f 327 412 413
f 328 415 416
f 328 416 329
f 329 416 330
f 330 416 417
f 330 417 512
f 330 512 598
f 330 598 690
f 330 690 783
f 330 783 804
f 330 804 699
f 330 699 605
f 330 605 515
f 330 515 418
f 331 419 332
f 332 419 420
f 332 420 421
f 332 421 333
f 333 421 422
f 333 422 334
f 334 422 423
f 334 423 335
f 335 423 424
f 335 424 336
f 336 424 337
f 337 424 425
f 337 425 426
f 337 426 339
f 338 343 427
f 338 427 344
f 339 426 340
f 340 426 341
f 341 426 428
f 341 428 342
f 342 428 429
f 342 429 343
f 343 429 427
f 344 430 345
f 344 427 430
f 345 430 346
f 346 430 347
f 347 430 431
f 347 431 432
f 347 432 375
f 347 375 377
f 349 433 434
f 349 434 351
f 349 350 435
f 349 435 433
f 350 397 435
f 351 434 436
f 351 436 437
f 351 437 438
f 351 438 439
f 351 439 440
f 351 440 441
f 351 441 442
f 351 442 443
f 351 443 444
f 351 444 352
f 352 444 353
f 353 444 445
f 353 445 446
f 353 446 354
f 354 356 355
f 354 446 447
f 354 447 356
f 356 447 358
f 356 358 357
f 358 448 449
f 358 449 359
f 358 447 448
f 359 449 360
f 360 449 361
f 361 450 451
f 361 451 452
f 361 452 362
f 361 449 448
f 361 448 453
f 361 453 454
f 361 454 450
f 362 452 455
f 362 455 456
f 362 456 363
f 363 456 457
f 363 457 364
f 364 457 458
f 364 458 405
f 364 405 459
f 364 459 365
f 365 459 367
f 367 460 369
f 367 459 461
f 367 461 405
f 367 405 401
f 367 401 400
f 367 400 460
f 368 369 462
f 369 460 463
f 369 463 462
f 370 464 371
f 370 376 464
f 371 464 465
f 371 465 466
f 371 466 373
f 371 373 372
f 373 466 378
f 373 378 374
f 375 467 468
f 375 468 469
f 375 469 376
f 375 432 470
f 375 470 467
f 376 469 471
f 376 471 464
f 378 466 472
f 378 472 473
f 378 473 474
f 378 474 475
f 378 475 476
f 378 476 477
f 378 477 478
f 378 478 379
f 379 478 380
f 380 478 479
f 380 479 381
f 381 479 480
f 381 480 382
f 382 480 384
f 382 384 383
f 384 480 479
f 384 479 481
f 384 481 482
f 384 482 385
f 385 482 388
f 386 388 483
f 386 483 387
f 387 484 389
f 387 483 484
f 388 482 483
f 389 484 485
f 389 485 390
f 390 485 391
f 391 485 392
f 392 486 393
f 392 485 486
f 393 486 394
f 394 486 487
f 394 487 398
f 396 398 397
f 397 398 488
f 397 488 489
f 397 489 490
f 397 490 491
f 397 491 436
f 397 436 434
f 397 434 435
f 398 492 488
f 398 487 486
f 398 486 493
f 398 493 494
f 398 494 492
f 399 460 400
f 402 406 495
f 402 495 403
f 403 495 404
f 404 495 409
f 405 461 459
f 405 458 496
f 405 496 497
f 405 497 406
f 406 497 495
f 407 414 499
f 407 499 500
f 407 500 498
f 408 411 412
f 409 495 501
f 409 501 502
f 409 502 503
f 409 503 410
f 410 503 504
f 410 504 412
f 410 412 411
f 412 504 505
f 412 505 506
f 412 506 507
f 412 507 413
f 413 507 508
f 413 508 414
f 414 508 509
f 414 509 499
f 415 510 511
f 415 511 416
f 416 511 510
f 416 510 417
f 417 510 512
f 418 513 514
f 418 515 513
f 419 516 420
f 420 517 518
f 420 518 421
f 420 516 519
f 420 519 520
f 420 520 521
f 420 521 517
f 421 518 422
f 422 518 423
f 423 518 522
f 423 522 424
f 424 522 523
f 424 523 524
f 424 524 525
f 424 525 426
f 424 426 425
f 426 525 526
f 426 526 527
f 426 527 428
f 427 470 432
f 427 432 430
f 427 429 467
f 427 467 470
f 428 527 526
f 428 526 528
f 428 528 529
f 428 529 429
f 429 529 530
f 429 530 531
f 429 531 467
f 430 432 431
f 433 435 434
f 436 491 437
f 437 532 438
f 437 491 533
f 437 533 532
f 438 532 439
f 439 534 535
f 439 535 440
f 439 532 536
f 439 536 534
f 440 535 441
f 441 535 537
f 441 537 538
f 441 538 539
f 441 539 540
f 441 540 541
f 441 541 542
f 441 542 443
f 441 443 442
f 443 542 543
f 443 543 446
f 443 446 444
f 444 446 544
f 444 544 445
f 445 544 446
f 446 543 447
f 447 545 448
f 447 543 546
f 447 546 540
f 447 540 545
f 448 545 547
f 448 547 453
f 450 548 549
f 450 549 451
f 450 454 550
f 450 550 551
f 450 551 548
f 451 549 552
f 451 552 457
f 451 457 452
f 452 456 455
f 452 457 456
f 453 547 553
f 453 553 454
f 454 553 550
f 457 552 554
f 457 554 458
f 458 554 496
f 464 471 465
f 465 555 473
f 465 473 472
f 465 472 466
f 465 471 555
f 467 531 468
f 468 531 556
f 468 556 557
f 468 557 469
f 469 557 558
f 469 558 471
f 471 558 473
f 471 473 555
f 473 559 474
f 473 558 559
f 474 559 560
f 474 560 561
f 474 561 475
f 475 561 562
f 475 562 563
f 475 563 477
f 475 477 476
f 477 563 564
f 477 564 565
f 477 565 479
f 477 479 478
f 479 565 566
f 479 566 567
f 479 567 481
f 481 567 568
f 481 568 569
f 481 569 482
f 482 569 483
f 483 569 570
f 483 570 484
f 484 570 571
f 484 571 485
f 485 571 572
f 485 572 573
f 485 573 574
f 485 574 493
f 485 493 486
f 488 492 489
f 489 575 533
f 489 533 490
f 489 492 576
f 489 576 577
f 489 577 578
f 489 578 579
f 489 579 580
f 489 580 575
f 490 533 491
f 492 494 576
f 493 577 576
f 493 576 494
f 493 574 577
f 495 497 581
f 495 581 501
f 496 554 582
f 496 582 583
f 496 583 497
f 497 583 581
f 498 584 585
f 498 500 586
f 498 586 584
f 499 587 588
f 499 588 500
f 499 509 589
f 499 589 587
f 500 588 586
f 501 581 590
f 501 590 502
f 502 590 503
f 503 590 591
f 503 591 592
f 503 592 504
f 504 592 505
f 505 592 593
f 505 593 506
f 506 593 507
f 507 593 594
f 507 594 595
f 507 595 508
f 508 595 509
f 509 595 594
f 509 594 596
f 509 596 589
f 510 597 690
f 510 690 598
f 510 598 512
f 513 515 599
f 513 599 600
f 513 600 601
f 513 601 514
f 514 601 602
f 514 602 603
f 514 603 604
f 515 605 599
f 517 522 518
f 517 521 606
f 517 606 607
f 517 607 608
f 517 608 522
f 520 609 610
f 520 610 606
f 520 606 521
f 522 608 523
f 523 608 611
f 523 611 524
f 524 611 612
f 524 612 613
f 524 613 614
f 524 614 525
f 525 614 526
f 526 614 615
f 526 615 616
f 526 616 617
f 526 617 528
f 528 617 529
f 529 617 618
f 529 618 530
f 530 618 619
f 530 619 620
f 530 620 531
f 531 620 621
f 531 621 557
f 531 557 556
f 532 533 622
f 532 622 536
f 533 575 623
f 533 623 624
f 533 624 622
f 534 536 625
f 534 625 626
f 534 626 627
f 534 627 628
f 534 628 535
f 535 628 537
f 536 622 624
f 536 624 625
f 537 628 538
f 538 628 629
f 538 629 630
f 538 630 631
f 538 631 632
f 538 632 539
f 539 632 633
f 539 633 540
f 540 546 542
f 540 542 541
f 540 633 634
f 540 634 635
f 540 635 636
f 540 636 637
f 540 637 545
f 542 546 543
f 545 637 547
f 547 637 638
f 547 638 553
f 548 551 639
f 548 639 640
f 548 640 641
f 548 641 549
f 549 641 642
f 549 642 643
f 549 643 644
f 549 644 645
f 549 645 646
f 549 646 591
f 549 591 552
f 550 553 647
f 550 647 551
f 551 647 638
f 551 638 639
f 552 591 554
f 553 648 647
f 553 638 648
f 554 591 582
f 557 621 620
f 557 620 649
f 557 649 650
f 557 650 558
f 558 650 651
f 558 651 559
f 559 652 653
f 559 653 654
f 559 654 655
f 559 655 561
f 559 561 560
f 559 651 652
f 561 655 656
f 561 656 657
f 561 657 562
f 562 564 563
f 562 657 658
f 562 658 659
f 562 659 660
f 562 660 564
f 564 660 565
f 565 660 659
f 565 659 566
f 566 659 568
f 566 568 567
f 568 659 661
f 568 661 572
f 568 572 571
f 568 571 569
f 569 571 570
f 572 662 663
f 572 663 573
f 572 661 664
f 572 664 662
f 573 663 574
f 574 663 665
f 574 665 666
f 574 666 577
f 575 580 623
f 577 666 667
f 577 667 668
f 577 668 578
f 578 669 579
f 578 668 669
f 579 670 580
f 579 669 670
f 580 670 671
f 580 671 672
f 580 672 673
f 580 673 674
f 580 674 675
f 580 675 623
f 581 583 591
f 581 591 590
f 582 591 583
f 584 676 677
f 584 677 585
f 584 586 676
f 586 588 678
f 586 678 676
f 587 679 678
f 587 678 588
f 587 589 680
f 587 680 681
f 587 681 679
f 589 596 682
f 589 682 775
f 589 775 680
f 591 646 683
f 591 683 592
f 592 683 684
f 592 684 593
f 593 684 685
f 593 685 594
f 594 685 684
f 594 684 686
f 594 686 596
f 596 686 687
f 596 687 682
f 597 688 779
f 597 779 689
f 597 689 783
f 597 783 690
f 599 605 691
f 599 691 692
f 599 692 600
f 600 692 601
f 601 692 693
f 601 693 694
f 601 694 695
f 601 695 602
f 602 695 696
f 602 696 603
f 603 696 604
f 604 697 698
f 604 696 697
f 605 699 691
f 606 700 701
f 606 701 702
f 606 702 703
f 606 703 704
f 606 704 705
f 606 705 607
f 606 610 609
f 606 609 700
f 607 611 608
f 607 705 706
f 607 706 611
f 609 707 700
f 611 706 612
f 612 706 613
f 613 706 708
f 613 708 709
f 613 709 710
f 613 710 614
f 614 710 711
f 614 711 615
f 615 711 712
f 615 712 713
f 615 713 617
f 615 617 616
f 617 713 714
f 617 714 618
f 618 714 715
f 618 715 619
f 619 715 716
f 619 716 717
f 619 717 620
f 620 717 649
f 623 675 624
f 624 675 625
f 625 675 718
f 625 718 626
f 626 719 720
f 626 720 721
f 626 721 627
f 626 718 673
f 626 673 719
f 627 721 629
f 627 629 628
f 629 722 630
f 629 721 722
f 630 723 724
f 630 724 725
f 630 725 633
f 630 633 631
f 630 722 726
f 630 726 723
f 631 633 632
f 633 725 634
f 634 725 635
f 635 725 636
f 636 727 728
f 636 728 638
f 636 638 729
f 636 729 637
f 636 725 727
f 637 729 638
f 638 728 730
f 638 730 639
f 638 647 648
f 639 730 640
f 640 730 728
f 640 728 731
f 640 731 732
f 640 732 733
f 640 733 734
f 640 734 642
f 640 642 641
f 642 734 735
f 642 735 736
f 642 736 737
f 642 737 643
f 643 737 683
f 643 683 644
f 644 683 738
f 644 738 646
f 644 646 645
f 646 738 683
f 649 717 739
f 649 739 650
f 650 739 652
f 650 652 651
f 652 740 741
f 652 741 654
f 652 654 653
f 652 739 740
f 654 742 743
f 654 743 744
f 654 744 656
f 654 656 655
f 654 741 742
f 656 744 743
f 656 743 745
f 656 745 746
f 656 746 658
f 656 658 657
f 658 747 748
f 658 748 749
f 658 749 750
f 658 750 659
f 658 746 747
f 659 750 751
f 659 751 752
f 659 752 753
f 659 753 665
f 659 665 664
f 659 664 661
f 662 665 663
f 662 664 665
f 665 753 754
f 665 754 755
f 665 755 666
f 666 755 756
f 666 756 757
f 666 757 758
f 666 758 667
f 667 758 759
f 667 759 668
f 668 759 669
f 669 760 670
f 669 759 760
f 670 760 671
f 671 761 762
f 671 762 763
f 671 763 764
f 671 764 765
f 671 765 673
f 671 673 672
f 671 760 759
f 671 759 757
f 671 757 766
f 671 766 761
f 673 718 675
f 673 675 674
f 673 765 767
f 673 767 719
f 676 768 769
f 676 769 677
f 676 678 768
f 678 770 771
f 678 771 768
f 678 679 772
f 678 772 770
f 679 681 773
f 679 773 774
f 679 774 772
f 680 775 776
f 680 776 773
f 680 773 681
f 682 687 777
f 682 777 775
f 683 737 684
f 684 737 687
f 684 687 686
f 687 737 735
f 687 735 777
f 688 778 882
f 688 882 779
f 689 780 781
f 689 781 782
f 689 782 783
f 689 779 784
f 689 784 785
f 689 785 780
f 691 786 787
f 691 787 788
f 691 788 789
f 691 789 692
f 691 699 790
f 691 790 791
f 691 791 792
f 691 792 786
f 692 793 693
f 692 789 793
f 693 793 694
f 694 793 794
f 694 794 795
f 694 795 695
f 695 795 696
f 696 795 796
f 696 796 697
f 697 797 798
f 697 798 799
f 697 799 800
f 697 800 698
f 697 796 797
f 698 801 802
f 698 802 803
f 698 800 801
f 699 804 790
f 700 707 701
f 701 805 803
f 701 803 806
f 701 806 807
f 701 807 703
f 701 703 702
f 701 707 808
f 701 808 805
f 703 809 708
f 703 708 704
f 703 807 810
f 703 810 811
f 703 811 812
f 703 812 809
f 704 706 705
f 704 708 706
f 708 809 813
f 708 813 814
f 708 814 815
f 708 815 709
f 709 711 710
f 709 815 814
f 709 814 711
f 711 814 816
f 711 816 712
f 712 816 817
f 712 817 713
f 713 817 818
f 713 818 714
f 714 818 715
f 715 818 819
f 715 819 820
f 715 820 821
f 715 821 822
f 715 822 740
f 715 740 716
f 716 740 717
f 717 740 739
f 719 767 823
f 719 823 720
f 720 824 825
f 720 825 721
f 720 823 824
f 721 825 722
f 722 825 726
f 723 726 826
f 723 826 724
f 724 826 725
f 725 826 827
f 725 827 828
f 725 828 829
f 725 829 830
f 725 830 831
f 725 831 832
f 725 832 727
f 726 825 833
f 726 833 834
f 726 834 826
f 727 832 835
f 727 835 728
f 728 835 731
f 731 836 732
f 731 835 832
f 731 832 837
f 731 837 836
f 732 836 838
f 732 838 839
f 732 839 733
f 733 839 735
f 733 735 734
f 735 839 840
f 735 840 841
f 735 841 777
f 735 737 736
f 740 822 741
f 741 822 821
f 741 821 842
f 741 842 742
f 742 842 843
f 742 843 745
f 742 745 743
f 745 844 845
f 745 845 846
f 745 846 847
f 745 847 746
f 745 843 844
f 746 847 747
f 747 847 748
f 748 848 849
f 748 849 749
f 748 847 848
f 749 751 750
f 749 849 850
f 749 850 751
f 751 850 752
f 752 850 849
f 752 849 851
f 752 851 852
f 752 852 853
f 752 853 754
f 752 754 753
f 754 853 854
f 754 854 755
f 755 854 855
f 755 855 756
f 756 856 757
f 756 855 856
f 757 856 857
f 757 857 858
f 757 858 859
f 757 859 860
f 757 860 766
f 757 759 758
f 761 861 862
f 761 862 762
f 761 766 863
f 761 863 861
f 762 862 864
f 762 864 763
f 763 864 865
f 763 865 866
f 763 866 764
f 764 866 867
f 764 867 868
f 764 868 823
f 764 823 767
f 764 767 765
f 766 860 863
f 768 771 769
f 769 771 770
f 770 772 870
f 770 870 871
f 770 871 869
f 772 774 870
f 773 776 872
f 773 872 873
f 773 873 874
f 773 874 875
f 773 875 876
f 773 876 774
f 774 876 877
f 774 877 870
f 775 777 841
f 775 841 878
f 775 878 879
f 775 879 880
f 775 880 872
f 775 872 776
f 778 881 977
f 778 977 882
f 779 882 784
f 780 785 883
f 780 883 884
f 780 884 885
f 780 885 886
f 780 886 781
f 781 886 887
f 781 887 888
f 781 888 782
f 782 888 889
f 782 889 783
f 783 889 804
f 784 882 785
f 785 882 890
f 785 890 891
f 785 891 883
f 786 792 787
f 787 792 892
f 787 892 893
f 787 893 788
f 788 893 894
f 788 894 895
f 788 895 789
f 789 895 894
f 789 894 896
f 789 896 793
f 790 804 791
f 791 804 897
f 791 897 898
f 791 898 899
f 791 899 792
f 792 899 892
f 793 896 794
f 794 896 795
f 795 900 901
f 795 901 796
f 795 896 902
f 795 902 903
f 795 903 900
f 796 904 905
f 796 905 797
f 796 901 904
f 797 905 798
f 798 906 810
f 798 810 799
f 798 905 904
f 798 904 907
f 798 907 906
f 799 810 807
f 799 807 800
f 800 807 801
f 801 807 806
f 801 806 802
f 802 806 803
f 804 889 897
f 809 812 811
f 809 811 908
f 809 908 909
f 809 909 813
f 810 906 811
f 811 910 911
f 811 911 908
f 811 906 907
f 811 907 910
f 813 909 912
f 813 912 814
f 814 912 913
f 814 913 914
f 814 914 915
f 814 915 816
f 816 819 817
f 816 915 914
f 816 914 819
f 817 819 818
f 819 914 916
f 819 916 917
f 819 917 820
f 820 917 918
f 820 918 821
f 821 918 919
f 821 919 844
f 821 844 843
f 821 843 842
f 823 868 920
f 823 920 824
f 824 920 921
f 824 921 825
f 825 921 922
f 825 922 833
f 826 834 923
f 826 923 827
f 827 923 924
f 827 924 828
f 828 924 925
f 828 925 926
f 828 926 927
f 828 927 829
f 829 927 830
f 830 927 928
f 830 928 929
f 830 929 837
f 830 837 832
f 830 832 831
f 833 930 834
f 833 922 931
f 833 931 923
f 833 923 930
f 834 930 923
f 836 932 933
f 836 933 838
f 836 837 934
f 836 934 932
f 837 929 934
f 838 933 935
f 838 935 936
f 838 936 841
f 838 841 839
f 839 841 840
f 841 936 879
f 841 879 878
f 844 919 937
f 844 937 938
f 844 938 939
f 844 939 940
f 844 940 845
f 845 940 941
f 845 941 846
f 846 941 848
f 846 848 847
f 848 941 942
f 848 942 943
f 848 943 944
f 848 944 945
f 848 945 946
f 848 946 849
f 849 946 851
f 851 946 852
f 852 946 945
f 852 945 855
f 852 855 854
f 852 854 853
f 855 945 856
f 856 947 857
f 856 945 948
f 856 948 947
f 857 947 858
f 858 947 949
f 858 949 859
f 859 950 951
f 859 951 860
f 859 949 952
f 859 952 953
f 859 953 950
f 860 951 863
f 861 863 954
f 861 954 862
f 862 955 956
f 862 956 957
f 862 957 865
f 862 865 864
f 862 954 955
f 863 951 954
f 865 957 866
f 866 957 958
f 866 958 959
f 866 959 960
f 866 960 961
f 866 961 962
f 866 962 963
f 866 963 964
f 866 964 867
f 867 964 965
f 867 965 868
f 868 965 966
f 868 966 920
f 869 871 968
f 869 968 967
f 870 877 969
f 870 969 970
f 870 970 968
f 870 968 871
f 872 880 879
f 872 879 873
f 873 879 936
f 873 936 874
f 874 936 971
f 874 971 972
f 874 972 973
f 874 973 875
f 875 973 876
f 876 973 877
f 877 973 974
f 877 974 975
f 877 975 969
f 881 976 977
f 882 977 890
f 883 891 884
f 884 891 978
f 884 978 885
f 885 978 979
f 885 979 980
f 885 980 981
f 885 981 982
f 885 982 983
f 885 983 886
f 886 984 985
f 886 985 986
f 886 986 887
f 886 983 984
f 887 986 987
f 887 987 988
f 887 988 897
f 887 897 889
f 887 889 888
f 890 977 891
f 891 977 989
f 891 989 978
f 892 899 990
f 892 990 991
f 892 991 893
f 893 992 993
f 893 993 994
f 893 994 995
f 893 995 996
f 893 996 894
f 893 991 997
f 893 997 992
f 894 996 995
f 894 995 998
f 894 998 999
f 894 999 1000
f 894 1000 896
f 896 1000 1001
f 896 1001 1002
f 896 1002 1003
f 896 1003 1004
f 896 1004 902
f 897 988 1005
f 897 1005 898
f 898 1005 899
f 899 1005 1006
f 899 1006 990
f 900 907 904
f 900 904 901
f 900 903 902
f 900 902 1003
f 900 1003 1007
f 900 1007 1008
f 900 1008 910
f 900 910 907
f 902 1004 1009
f 902 1009 1003
f 908 911 909
f 909 911 912
f 910 1008 1007
f 910 1007 911
f 911 1010 1011
f 911 1011 912
f 911 1007 1012
f 911 1012 1010
f 912 1013 913
f 912 1011 1010
f 912 1010 1013
f 913 1013 1010
f 913 1010 914
f 914 1014 916
f 914 1010 1015
f 914 1015 1016
f 914 1016 917
f 914 917 1014
f 916 1014 917
f 917 1016 1017
f 917 1017 937
f 917 937 919
f 917 919 918
f 920 966 1018
f 920 1018 921
f 921 1018 922
f 922 1019 1020
f 922 1020 931
f 922 1018 963
f 922 963 962
f 922 962 1021
f 922 1021 1022
f 922 1022 1019
f 923 931 1020
f 923 1020 924
f 924 1020 1023
f 924 1023 925
f 925 1024 926
f 925 1023 1024
f 926 1024 1025
f 926 1025 1026
f 926 1026 927
f 927 1026 928
f 928 934 929
f 928 1026 1027
f 928 1027 1028
f 928 1028 1029
f 928 1029 1030
f 928 1030 932
f 928 932 934
f 932 1030 933
f 933 1028 935
f 933 1030 1028
f 935 1028 936
f 936 1028 1031
f 936 1031 1032
f 936 1032 971
f 937 1033 1034
f 937 1034 1035
f 937 1035 1036
f 937 1036 938
f 937 1017 1016
f 937 1016 1033
f 938 1036 939
f 939 1037 941
f 939 941 940
f 939 1036 1038
f 939 1038 1039
f 939 1039 1040
f 939 1040 1041
f 939 1041 1037
f 941 1037 942
f 942 1041 943
f 942 1037 1041
f 943 948 944
f 943 1041 1040
f 943 1040 1042
f 943 1042 1043
f 943 1043 947
f 943 947 948
f 944 948 945
f 947 1044 949
f 947 1043 1044
f 949 1044 952
f 950 954 951
f 950 953 955
f 950 955 954
f 952 1044 1045
f 952 1045 953
f 953 1046 1047
f 953 1047 1048
f 953 1048 955
f 953 1045 1049
f 953 1049 1050
f 953 1050 1046
f 955 1048 1047
f 955 1047 1051
f 955 1051 956
f 956 1051 1052
f 956 1052 957
f 957 1052 958
f 958 1052 959
f 959 1053 1054
f 959 1054 1055
f 959 1055 960
f 959 1052 1053
f 960 1056 1057
f 960 1057 961
f 960 1055 1056
f 961 1057 1058
f 961 1058 962
f 962 1058 1021
f 963 1018 966
f 963 966 965
f 963 965 964
f 967 968 976
f 968 1059 989
f 968 989 976
f 968 970 1059
f 969 1060 1061
f 969 1061 970
f 969 975 1062
f 969 1062 1063
f 969 1063 1060
f 970 1061 1059
f 971 1032 972
f 972 1032 1064
f 972 1064 973
f 973 1064 974
f 974 1064 1065
f 974 1065 1062
f 974 1062 975
f 976 989 977
f 978 989 1059
f 978 1059 1061
f 978 1061 979
f 979 1061 1060
f 979 1060 1063
f 979 1063 980
f 980 1063 1066
f 980 1066 981
f 981 1066 982
f 982 1066 1032
f 982 1032 1067
f 982 1067 1068
f 982 1068 1069
f 982 1069 983
f 983 1069 984
f 984 1069 1070
f 984 1070 1071
f 984 1071 1072
f 984 1072 1073
f 984 1073 1074
f 984 1074 985
f 985 1074 1075
f 985 1075 1076
f 985 1076 987
f 985 987 986
f 987 1076 1077
f 987 1077 988
f 988 1077 1005
f 990 1006 1078
f 990 1078 1077
f 990 1077 1079
f 990 1079 1080
f 990 1080 991
f 991 1080 1081
f 991 1081 1082
f 991 1082 1047
f 991 1047 1083
f 991 1083 997
f 992 997 1083
f 992 1083 993
f 993 1050 994
f 993 1083 1084
f 993 1084 1050
f 994 1085 1040
f 994 1040 1086
f 994 1086 1087
f 994 1087 995
f 994 1050 1049
f 994 1049 1085
f 995 1087 1088
f 995 1088 998
f 998 1088 999
f 999 1089 1000
f 999 1088 1090
f 999 1090 1089
f 1000 1089 1001
f 1001 1089 1090
f 1001 1090 1091
f 1001 1091 1002
f 1002 1091 1092
f 1002 1092 1093
f 1002 1093 1094
f 1002 1094 1003
f 1003 1009 1004
f 1003 1094 1007
f 1005 1077 1078
f 1005 1078 1006
f 1007 1094 1095
f 1007 1095 1012
f 1010 1012 1095
f 1010 1095 1093
f 1010 1093 1015
f 1015 1033 1016
f 1015 1093 1034
f 1015 1034 1033
f 1019 1022 1096
f 1019 1096 1020
f 1020 1096 1097
f 1020 1097 1098
f 1020 1098 1023
f 1021 1058 1022
f 1022 1058 1057
f 1022 1057 1056
f 1022 1056 1099
f 1022 1099 1100
f 1022 1100 1101
f 1022 1101 1102
f 1022 1102 1096
f 1023 1098 1024
f 1024 1103 1025
f 1024 1098 1104
f 1024 1104 1103
f 1025 1071 1105
f 1025 1105 1106
f 1025 1106 1026
f 1025 1103 1071
f 1026 1106 1027
f 1027 1107 1028
f 1027 1106 1107
f 1028 1030 1029
f 1028 1107 1031
f 1031 1107 1108
f 1031 1108 1032
f 1032 1108 1109
f 1032 1109 1067
f 1032 1066 1064
f 1034 1093 1110
f 1034 1110 1035
f 1035 1110 1036
f 1036 1110 1111
f 1036 1111 1112
f 1036 1112 1039
f 1036 1039 1038
f 1039 1113 1040
f 1039 1112 1113
f 1040 1114 1115
f 1040 1115 1088
f 1040 1088 1086
f 1040 1085 1045
f 1040 1045 1116
f 1040 1116 1042
f 1040 1113 1114
f 1042 1116 1045
f 1042 1045 1043
f 1043 1045 1044
f 1045 1085 1049
f 1046 1050 1084
f 1046 1084 1117
f 1046 1117 1047
f 1047 1118 1119
f 1047 1119 1051
f 1047 1117 1083
f 1047 1082 1120
f 1047 1120 1121
f 1047 1121 1118
f 1051 1119 1052
f 1052 1119 1121
f 1052 1121 1053
f 1053 1121 1120
f 1053 1120 1080
f 1053 1080 1122
f 1053 1122 1054
f 1054 1122 1123
f 1054 1123 1124
f 1054 1124 1125
f 1054 1125 1056
f 1054 1056 1055
f 1056 1125 1124
f 1056 1124 1100
f 1056 1100 1099
f 1062 1065 1066
f 1062 1066 1063
f 1064 1066 1065
f 1067 1069 1068
f 1067 1109 1069
f 1069 1109 1126
f 1069 1126 1070
f 1070 1126 1071
f 1071 1126 1105
f 1071 1103 1127
f 1071 1127 1072
f 1072 1127 1128
f 1072 1128 1073
f 1073 1128 1074
f 1074 1129 1130
f 1074 1130 1096
f 1074 1096 1102
f 1074 1102 1101
f 1074 1101 1131
f 1074 1131 1075
f 1074 1128 1129
f 1075 1131 1077
f 1075 1077 1076
f 1077 1122 1079
f 1077 1131 1124
f 1077 1124 1122
f 1079 1122 1080
f 1080 1120 1082
f 1080 1082 1081
f 1083 1117 1084
f 1086 1088 1087
f 1088 1115 1132
f 1088 1132 1133
f 1088 1133 1134
f 1088 1134 1090
f 1090 1134 1091
f 1091 1135 1092
f 1091 1134 1133
f 1091 1133 1135
f 1092 1135 1093
f 1093 1095 1094
f 1093 1135 1110
f 1096 1130 1136
f 1096 1136 1097
f 1097 1136 1098
f 1098 1137 1104
f 1098 1136 1137
f 1100 1124 1131
f 1100 1131 1101
f 1103 1138 1127
f 1103 1104 1137
f 1103 1137 1138
f 1105 1126 1106
f 1106 1126 1109
f 1106 1109 1108
f 1106 1108 1139
f 1106 1139 1107
f 1107 1139 1108
f 1110 1135 1111
f 1111 1135 1112
f 1112 1135 1132
f 1112 1132 1113
f 1113 1132 1114
f 1114 1132 1115
f 1118 1121 1119
f 1122 1124 1123
f 1127 1138 1128
f 1128 1138 1129
f 1129 1137 1130
f 1129 1138 1137
f 1130 1137 1136
f 1132 1135 1133

