# https://github.com/mikedh/trimesh
v -0.00770360 0.00008618 0.01125668
v -0.00769855 0.00008618 0.01068280
v -0.00767887 -0.00048770 0.01068280
v -0.00768341 -0.00048770 0.01125668
v -0.00767786 -0.00048770 0.01183055
v -0.00769603 0.00008618 0.01183055
v -0.00767332 0.00066006 0.01125668
v -0.00756229 -0.00048770 0.01010863
v -0.00766777 0.00066006 0.01068280
v -0.00755321 0.00066006 0.01010863
v -0.00757491 0.00008618 0.01010863
v -0.00752495 -0.00106241 0.01010863
v -0.00762437 -0.00106241 0.01068280
v -0.00762639 -0.00106241 0.01125668
v -0.00753504 -0.00048770 0.01234894
v -0.00761882 -0.00106241 0.01183055
v -0.00750476 -0.00106241 0.01230948
v -0.00754362 0.00008618 0.01235814
v -0.00752798 0.00066006 0.01233945
v -0.00766575 0.00066006 0.01183055
v -0.00759812 0.00123394 0.01183055
v -0.00760469 0.00123394 0.01125668
v -0.00742402 -0.00048770 0.00980507
v -0.00741342 -0.00106241 0.00981160
v -0.00740787 -0.00125176 0.00981575
v -0.00745127 -0.00125176 0.00993148
v -0.00759913 0.00123394 0.01068280
v -0.00748508 0.00125813 0.01005878
v -0.00741140 0.00108297 0.00981308
v -0.00742149 0.00066006 0.00980656
v -0.00742705 0.00008618 0.00980359
v -0.00749871 -0.00125176 0.01011367
v -0.00756229 -0.00125176 0.01048280
v -0.00759106 -0.00125176 0.01068280
v -0.00759409 -0.00125176 0.01125668
v -0.00730441 -0.00048770 0.01263588
v -0.00758652 -0.00125176 0.01183055
v -0.00748862 -0.00125176 0.01228188
v -0.00727111 -0.00106241 0.01259642
v -0.00725596 -0.00125176 0.01256912
v -0.00731299 0.00008618 0.01264508
v -0.00729482 0.00066006 0.01262639
v -0.00749467 0.00123394 0.01229316
v -0.00744824 0.00170439 0.01221304
v -0.00739777 0.00208726 0.01201304
v -0.00746237 0.00186038 0.01182521
v -0.00748155 0.00180782 0.01125668
v -0.00711264 -0.00048770 0.00978667
v -0.00711264 -0.00106241 0.00979291
v -0.00711264 0.00008618 0.00978489
v -0.00710608 -0.00125176 0.00979706
v -0.00746237 0.00186455 0.01071277
v -0.00739929 0.00209310 0.01054156
v -0.00745077 0.00171023 0.01021693
v -0.00735841 0.00146583 0.00983415
v -0.00685274 0.00279710 0.00980923
v -0.00688302 0.00238171 0.00980299
v -0.00711264 0.00066006 0.00978786
v -0.00696881 -0.00125176 0.01274864
v -0.00698395 -0.00106241 0.01275131
v -0.00701726 -0.00048770 0.01275339
v -0.00702584 0.00008618 0.01275339
v -0.00700767 0.00066006 0.01275339
v -0.00697335 0.00123394 0.01275012
v -0.00692289 0.00180782 0.01273914
v -0.00726000 0.00123394 0.01258010
v -0.00724688 0.00186038 0.01240443
v -0.00680732 0.00264112 0.01268454
v -0.00704502 0.00242258 0.01245784
v -0.00696023 0.00295559 0.01232491
v -0.00687495 0.00334179 0.01220948
v -0.00710406 0.00295559 0.01183055
v -0.00732914 0.00232832 0.01182521
v -0.00740131 0.00210144 0.01163026
v -0.00740131 0.00209977 0.01125668
v -0.00653884 -0.00125176 0.00978430
v -0.00692339 -0.00125176 0.00979023
v -0.00653884 0.00238171 0.00978430
v -0.00733419 0.00232498 0.01071277
v -0.00710759 0.00295559 0.01068280
v -0.00687545 0.00334846 0.01022762
v -0.00695367 0.00297560 0.01006530
v -0.00676241 0.00317830 0.00984483
v -0.00628247 0.00388230 0.00980923
v -0.00637079 0.00352947 0.00980299
v -0.00653884 -0.00125176 0.01281066
v -0.00653884 -0.00106241 0.01281333
v -0.00653884 -0.00048770 0.01281540
v -0.00653884 0.00066006 0.01281540
v -0.00653884 0.00123394 0.01281214
v -0.00653884 0.00180782 0.01280116
v -0.00658476 0.00242258 0.01275695
v -0.00643993 0.00295559 0.01274775
v -0.00687141 0.00225825 0.01271808
v -0.00672708 0.00295559 0.01261185
v -0.00632991 0.00341352 0.01272490
v -0.00623554 0.00379639 0.01268544
v -0.00637382 0.00410335 0.01228455
v -0.00627238 0.00441781 0.01215458
v -0.00675786 0.00368795 0.01183055
v -0.00690371 0.00340018 0.01183055
v -0.00711163 0.00295559 0.01125668
v -0.00731804 0.00238671 0.01125668
v -0.00424313 -0.00125176 0.00978430
v -0.00596454 0.00352947 0.00978430
v -0.00690623 0.00340768 0.01125668
v -0.00690220 0.00340351 0.01068280
v -0.00676291 0.00369045 0.01068280
v -0.00627288 0.00442032 0.01031456
v -0.00637230 0.00408500 0.01011753
v -0.00566729 0.00495332 0.00982436
v -0.00574400 0.00457046 0.00980923
v -0.00594687 0.00408500 0.00979943
v -0.00596454 -0.00125176 0.01281540
v -0.00596454 0.00238171 0.01281540
v -0.00596454 0.00295559 0.01280977
v -0.00601248 0.00357451 0.01276110
v -0.00584392 0.00410335 0.01273944
v -0.00572432 0.00445368 0.01271392
v -0.00613107 0.00410335 0.01257149
v -0.00592517 0.00462718 0.01237832
v -0.00574299 0.00503674 0.01221927
v -0.00578134 0.00507928 0.01183055
v -0.00606799 0.00472644 0.01183055
v -0.00628752 0.00443950 0.01183055
v -0.00650705 0.00410335 0.01183055
v -0.00676341 0.00369462 0.01125668
v -0.00407609 -0.00125176 0.00979023
v -0.00254797 0.00410335 0.00978430
v -0.00254797 0.00352947 0.00978489
v -0.00544171 0.00472811 0.00979943
v -0.00486841 0.00530199 0.00979943
v -0.00481744 0.00467723 0.00978430
v -0.00651563 0.00410335 0.01125668
v -0.00651008 0.00410335 0.01068280
v -0.00628601 0.00443783 0.01068280
v -0.00607253 0.00472561 0.01068280
v -0.00578538 0.00508178 0.01068280
v -0.00574905 0.00504174 0.01020684
v -0.00542455 0.00528447 0.01001575
v -0.00509349 0.00552720 0.00982436
v -0.00528425 0.00514434 0.00980923
v -0.00254797 -0.00125176 0.01281540
v -0.00539074 0.00352947 0.01281540
v -0.00539074 0.00410335 0.01280146
v -0.00537761 0.00465804 0.01274656
v -0.00517726 0.00504091 0.01271926
v -0.00556030 0.00483655 0.01260205
v -0.00537004 0.00523025 0.01241393
v -0.00518029 0.00561145 0.01222610
v -0.00551034 0.00536622 0.01183055
v -0.00578589 0.00508428 0.01125668
v -0.00607304 0.00473061 0.01125668
v -0.00629055 0.00444367 0.01125668
v -0.00384092 -0.00125176 0.00980299
v -0.00254797 0.00582499 0.00978430
v -0.00254797 0.00324002 0.00979498
v -0.00471096 0.00562229 0.00980923
v -0.00423607 0.00581831 0.00979943
v -0.00366933 0.00582499 0.00978430
v -0.00551387 0.00537122 0.01125668
v -0.00550983 0.00536872 0.01068280
v -0.00518180 0.00561479 0.01020684
v -0.00457974 0.00614696 0.01027242
v -0.00339783 0.00669248 0.00981724
v -0.00404026 0.00615030 0.00980923
v -0.00254797 -0.00125176 0.01146528
v -0.00254797 0.00582499 0.01281540
v -0.00481744 0.00410335 0.01281540
v -0.00481744 0.00467723 0.01280561
v -0.00480280 0.00523943 0.01274805
v -0.00460195 0.00559393 0.01271659
v -0.00498448 0.00542294 0.01260858
v -0.00478009 0.00579412 0.01239286
v -0.00457571 0.00614613 0.01217684
v -0.00489314 0.00594010 0.01183055
v -0.00522319 0.00565316 0.01183055
v -0.00372030 -0.00125176 0.00994068
v -0.00254797 0.00301231 0.00980359
v -0.00254797 0.00639887 0.00978460
v -0.00362139 0.00636467 0.00980418
v -0.00309503 0.00639887 0.00979023
v -0.00522672 0.00565649 0.01125668
v -0.00522268 0.00565399 0.01068280
v -0.00489415 0.00594093 0.01068280
v -0.00460700 0.00616781 0.01068280
v -0.00424313 0.00642056 0.01068280
v -0.00389340 0.00665244 0.01068280
v -0.00350582 0.00674587 0.01010863
v -0.00309503 0.00689434 0.01010863
v -0.00254797 0.00708369 0.01008430
v -0.00254797 0.00677923 0.00980329
v -0.00309503 0.00671751 0.00980893
v -0.00359111 -0.00125176 0.01010863
v -0.00254797 0.00637218 0.01278721
v -0.00309503 0.00582499 0.01281244
v -0.00366933 0.00525111 0.01281540
v -0.00424313 0.00525111 0.01280324
v -0.00366933 0.00582499 0.01278484
v -0.00419317 0.00580080 0.01273410
v -0.00396860 0.00611944 0.01269612
v -0.00435164 0.00597597 0.01255933
v -0.00388634 0.00664744 0.01183055
v -0.00424313 0.00641722 0.01183055
v -0.00460649 0.00616865 0.01183055
v -0.00419317 0.00623371 0.01238277
v -0.00352096 0.00675838 0.01224182
v -0.00461204 0.00617282 0.01125668
v -0.00489919 0.00594343 0.01125668
v -0.00424313 0.00642556 0.01125668
v -0.00389492 0.00665244 0.01125668
v -0.00360776 0.00680008 0.01125668
v -0.00360675 0.00679758 0.01068280
v -0.00309503 0.00704281 0.01068280
v -0.00268777 0.00721798 0.01068280
v -0.00254797 0.00710621 0.01015729
v -0.00254797 0.00639887 0.01278395
v -0.00306374 0.00640054 0.01274508
v -0.00366933 0.00619200 0.01272282
v -0.00285128 0.00670249 0.01270235
v -0.00323381 0.00659322 0.01262461
v -0.00359918 0.00679758 0.01183055
v -0.00306374 0.00683512 0.01242164
v -0.00254797 0.00705116 0.01238692
v -0.00254797 0.00724551 0.01196408
v -0.00309503 0.00704198 0.01183055
v -0.00309503 0.00704699 0.01125668
v -0.00269382 0.00722049 0.01125668
v -0.00254797 0.00726970 0.01125668
v -0.00254797 0.00726720 0.01096766
v -0.00254797 0.00726469 0.01068280
v -0.00254797 0.00673252 0.01272520
v -0.00254797 0.00674587 0.01272223
v -0.00254797 0.00703364 0.01241037
v -0.00254797 0.00726136 0.01183055
v -0.00268171 0.00721715 0.01183055
f 1 2 3
f 1 3 4
f 1 4 5
f 1 5 6
f 1 6 20
f 1 20 7
f 1 7 2
f 2 8 3
f 2 7 9
f 2 9 10
f 2 10 11
f 2 11 8
f 3 8 12
f 3 12 13
f 3 13 4
f 4 13 14
f 4 14 5
f 5 15 6
f 5 14 16
f 5 16 17
f 5 17 15
f 6 18 19
f 6 19 20
f 6 15 18
f 7 20 21
f 7 21 22
f 7 22 27
f 7 27 9
f 8 11 23
f 8 23 24
f 8 24 25
f 8 25 26
f 8 26 12
f 9 27 28
f 9 28 10
f 10 29 11
f 10 28 29
f 11 29 30
f 11 30 31
f 11 31 23
f 12 26 32
f 12 32 13
f 13 32 33
f 13 33 34
f 13 34 35
f 13 35 14
f 14 35 37
f 14 37 16
f 15 17 36
f 15 36 41
f 15 41 18
f 16 37 38
f 16 38 17
f 17 39 36
f 17 38 40
f 17 40 39
f 18 41 19
f 19 41 42
f 19 42 43
f 19 43 20
f 20 43 21
f 21 43 44
f 21 44 45
f 21 45 46
f 21 46 47
f 21 47 22
f 22 47 27
f 23 48 49
f 23 49 24
f 23 31 50
f 23 50 48
f 24 49 25
f 25 51 77
f 25 77 76
f 25 76 104
f 25 104 128
f 25 128 155
f 25 155 178
f 25 178 194
f 25 194 167
f 25 167 143
f 25 143 114
f 25 114 86
f 25 86 59
f 25 59 40
f 25 40 38
f 25 38 37
f 25 37 35
f 25 35 34
f 25 34 33
f 25 33 32
f 25 32 26
f 25 49 51
f 27 47 52
f 27 52 53
f 27 53 54
f 27 54 28
f 28 54 55
f 28 55 29
f 29 55 56
f 29 56 57
f 29 57 30
f 30 57 58
f 30 58 31
f 31 58 50
f 36 39 59
f 36 59 60
f 36 60 61
f 36 61 41
f 39 40 59
f 41 61 62
f 41 62 63
f 41 63 64
f 41 64 42
f 42 64 65
f 42 65 66
f 42 66 43
f 43 66 44
f 44 66 67
f 44 67 68
f 44 68 69
f 44 69 70
f 44 70 71
f 44 71 45
f 45 71 72
f 45 72 73
f 45 73 74
f 45 74 46
f 46 74 47
f 47 74 75
f 47 75 53
f 47 53 52
f 48 76 77
f 48 77 49
f 48 50 76
f 49 77 51
f 50 58 78
f 50 78 76
f 53 75 79
f 53 79 80
f 53 80 81
f 53 81 54
f 54 81 82
f 54 82 55
f 55 82 83
f 55 83 56
f 56 83 84
f 56 84 85
f 56 85 78
f 56 78 57
f 57 78 58
f 59 86 60
f 60 87 61
f 60 86 87
f 61 87 88
f 61 88 62
f 62 89 63
f 62 88 89
f 63 89 90
f 63 90 64
f 64 90 91
f 64 91 65
f 65 91 92
f 65 92 93
f 65 93 94
f 65 94 66
f 66 94 68
f 66 68 67
f 68 95 70
f 68 70 69
f 68 94 96
f 68 96 97
f 68 97 95
f 70 95 71
f 71 95 97
f 71 97 98
f 71 98 99
f 71 99 100
f 71 100 101
f 71 101 72
f 72 102 103
f 72 103 73
f 72 101 102
f 73 103 74
f 74 103 75
f 75 103 79
f 76 78 105
f 76 105 133
f 76 133 160
f 76 160 156
f 76 156 129
f 76 129 104
f 78 85 105
f 79 103 80
f 80 103 102
f 80 102 106
f 80 106 107
f 80 107 81
f 81 107 108
f 81 108 109
f 81 109 110
f 81 110 83
f 81 83 82
f 83 110 111
f 83 111 84
f 84 112 113
f 84 113 85
f 84 111 112
f 85 113 105
f 86 114 87
f 87 114 88
f 88 114 143
f 88 143 168
f 88 168 197
f 88 197 169
f 88 169 144
f 88 144 115
f 88 115 89
f 89 115 90
f 90 115 116
f 90 116 91
f 91 116 93
f 91 93 92
f 93 116 117
f 93 117 96
f 93 96 94
f 96 117 118
f 96 118 119
f 96 119 97
f 97 119 120
f 97 120 98
f 98 120 99
f 99 121 122
f 99 122 123
f 99 123 124
f 99 124 125
f 99 125 126
f 99 126 100
f 99 120 121
f 100 127 101
f 100 126 127
f 101 127 106
f 101 106 102
f 104 129 130
f 104 130 128
f 105 113 131
f 105 131 132
f 105 132 133
f 106 127 108
f 106 108 107
f 108 127 134
f 108 134 135
f 108 135 109
f 109 135 136
f 109 136 137
f 109 137 138
f 109 138 139
f 109 139 111
f 109 111 110
f 111 139 140
f 111 140 141
f 111 141 142
f 111 142 112
f 112 142 131
f 112 131 113
f 115 144 116
f 116 144 145
f 116 145 117
f 117 145 118
f 118 145 146
f 118 146 119
f 119 146 147
f 119 147 148
f 119 148 120
f 120 148 121
f 121 148 122
f 122 148 149
f 122 149 150
f 122 150 151
f 122 151 123
f 123 152 124
f 123 151 152
f 124 152 153
f 124 153 125
f 125 154 134
f 125 134 126
f 125 153 154
f 126 134 127
f 128 130 155
f 129 156 180
f 129 180 192
f 129 192 191
f 129 191 216
f 129 216 231
f 129 231 230
f 129 230 229
f 129 229 235
f 129 235 225
f 129 225 224
f 129 224 234
f 129 234 233
f 129 233 232
f 129 232 217
f 129 217 195
f 129 195 168
f 129 168 143
f 129 143 167
f 129 167 179
f 129 179 157
f 129 157 130
f 130 157 155
f 131 142 132
f 132 158 159
f 132 159 160
f 132 160 133
f 132 142 158
f 134 154 135
f 135 154 136
f 136 154 137
f 137 153 138
f 137 154 153
f 138 153 152
f 138 152 161
f 138 161 162
f 138 162 139
f 139 162 163
f 139 163 140
f 140 163 141
f 141 158 142
f 141 163 164
f 141 164 165
f 141 165 166
f 141 166 158
f 144 169 170
f 144 170 145
f 145 170 146
f 146 170 171
f 146 171 147
f 147 171 172
f 147 172 173
f 147 173 148
f 148 173 149
f 149 173 150
f 150 173 174
f 150 174 175
f 150 175 176
f 150 176 177
f 150 177 151
f 151 177 161
f 151 161 152
f 155 157 179
f 155 179 178
f 156 160 180
f 158 166 159
f 159 166 181
f 159 181 182
f 159 182 160
f 160 182 180
f 161 177 183
f 161 183 184
f 161 184 162
f 162 184 163
f 163 184 185
f 163 185 164
f 164 185 186
f 164 186 187
f 164 187 188
f 164 188 189
f 164 189 165
f 165 189 190
f 165 190 191
f 165 191 192
f 165 192 193
f 165 193 181
f 165 181 166
f 167 194 179
f 168 195 196
f 168 196 197
f 169 197 170
f 170 197 198
f 170 198 171
f 171 198 199
f 171 199 200
f 171 200 172
f 172 200 201
f 172 201 173
f 173 201 202
f 173 202 174
f 174 202 175
f 175 203 204
f 175 204 205
f 175 205 176
f 175 202 206
f 175 206 207
f 175 207 203
f 176 205 208
f 176 208 209
f 176 209 177
f 177 209 183
f 178 179 194
f 180 182 192
f 181 193 182
f 182 193 192
f 183 209 184
f 184 209 185
f 185 209 208
f 185 208 186
f 186 208 187
f 187 210 188
f 187 208 210
f 188 210 211
f 188 211 212
f 188 212 213
f 188 213 189
f 189 213 214
f 189 214 215
f 189 215 190
f 190 215 216
f 190 216 191
f 195 217 199
f 195 199 196
f 196 199 198
f 196 198 197
f 199 217 218
f 199 218 219
f 199 219 200
f 200 219 201
f 201 219 220
f 201 220 221
f 201 221 207
f 201 207 206
f 201 206 202
f 203 211 204
f 203 207 222
f 203 222 211
f 204 211 210
f 204 210 205
f 205 210 208
f 207 223 224
f 207 224 225
f 207 225 226
f 207 226 222
f 207 221 223
f 211 222 212
f 212 222 226
f 212 226 227
f 212 227 213
f 213 227 214
f 214 227 228
f 214 228 215
f 215 228 229
f 215 229 230
f 215 230 231
f 215 231 216
f 217 232 218
f 218 232 220
f 218 220 219
f 220 232 233
f 220 233 234
f 220 234 223
f 220 223 221
f 223 234 224
f 225 235 236
f 225 236 226
f 226 236 228
f 226 228 227
f 228 236 229
f 229 236 235

