# https://github.com/mikedh/trimesh
v -0.00387308 -0.00731709 0.00914146
v -0.00547820 -0.00731709 0.00914146
v -0.00387308 -0.00812598 0.00914146
v -0.00387308 -0.00731709 0.00818541
v -0.00893046 -0.00717234 0.00206665
v -0.00769324 -0.00722769 0.00492345
v -0.00547820 -0.00735228 0.00914146
v -0.00977892 -0.00722769 0.00492345
v -0.00573622 -0.00731709 0.00912183
v -0.00418813 -0.00812598 0.00914146
v -0.00387308 -0.00838425 0.00913423
v -0.00387308 -0.00850573 0.00643764
v -0.00677454 -0.00915823 -0.00141649
v -0.00687051 -0.00900327 -0.00141649
v -0.00700195 -0.00887385 -0.00141649
v -0.00713061 -0.00874783 -0.00141649
v -0.00726275 -0.00861897 -0.00141649
v -0.00739141 -0.00849353 -0.00141649
v -0.00906538 -0.00717234 -0.00141649
v -0.01079082 -0.00717234 0.00206665
v -0.00573622 -0.00735228 0.00911976
v -0.00522019 -0.00761028 0.00913836
v -0.00470416 -0.00786799 0.00914146
v -0.00985890 -0.00722769 0.00477151
v -0.00975667 -0.00726089 0.00492345
v -0.00939712 -0.00731709 0.00551465
v -0.00936860 -0.00731709 0.00556530
v -0.00922742 -0.00731709 0.00580302
v -0.00907790 -0.00731709 0.00602214
v -0.00852849 -0.00731709 0.00676941
v -0.00847980 -0.00731709 0.00683556
v -0.00829968 -0.00731709 0.00705985
v -0.00802219 -0.00731709 0.00736372
v -0.00776348 -0.00731709 0.00763865
v -0.00754094 -0.00731709 0.00786707
v -0.00750547 -0.00731709 0.00790118
v -0.00730100 -0.00731709 0.00809135
v -0.00727110 -0.00731709 0.00811719
v -0.00704090 -0.00731709 0.00830737
v -0.00673629 -0.00731709 0.00855233
v -0.00647897 -0.00731709 0.00875491
v -0.00626894 -0.00731709 0.00891614
v -0.00621887 -0.00731709 0.00895232
v -0.00603457 -0.00731709 0.00906291
v -0.00597963 -0.00731709 0.00907635
v -0.00444614 -0.00812598 0.00913319
v -0.00393081 -0.00838425 0.00913216
v -0.00387308 -0.00859854 0.00907635
v -0.00387308 -0.00856022 0.00637252
v -0.00670569 -0.00941623 -0.00141649
v -0.00387308 -0.00898085 0.00587330
v -0.00387308 -0.00913695 0.00574514
v -0.01088401 -0.00717234 -0.00141649
v -0.01046325 -0.00722769 0.00322529
v -0.01038258 -0.00722769 0.00347335
v -0.01020802 -0.00722769 0.00392812
v -0.01008075 -0.00722769 0.00425886
v -0.01001329 -0.00722769 0.00443250
v -0.00995487 -0.00722769 0.00457410
v -0.01080472 -0.00717234 0.00200877
v -0.01076369 -0.00722144 0.00205632
v -0.01050220 -0.00722769 0.00308369
v -0.00496217 -0.00786799 0.00912596
v -0.00597824 -0.00734519 0.00906911
v -0.00549837 -0.00763100 0.00909392
v -0.00973859 -0.00748909 0.00465472
v -0.00978866 -0.00734405 0.00475291
v -0.00952021 -0.00731709 0.00528830
v -0.00934843 -0.00735484 0.00554979
v -0.00920239 -0.00746468 0.00565005
v -0.00915301 -0.00740593 0.00580302
v -0.00897358 -0.00749874 0.00595289
v -0.00838870 -0.00762702 0.00660094
v -0.00839148 -0.00742097 0.00683556
v -0.00820510 -0.00750470 0.00698750
v -0.00812721 -0.00741416 0.00716010
v -0.00795612 -0.00751179 0.00725209
v -0.00735455 -0.00742664 0.00794045
v -0.00770020 -0.00751236 0.00751152
v -0.00752772 -0.00759779 0.00759627
v -0.00744149 -0.00751151 0.00776888
v -0.00718277 -0.00750867 0.00802210
v -0.00708263 -0.00741217 0.00819368
v -0.00700752 -0.00733667 0.00831874
v -0.00679123 -0.00737357 0.00846137
v -0.00663058 -0.00747376 0.00850478
v -0.00625225 -0.00735257 0.00889754
v -0.00605335 -0.00742636 0.00897816
v -0.00664658 -0.00774566 0.00825983
v -0.00588088 -0.00749334 0.00903707
v -0.00542604 -0.00779334 0.00906291
v -0.00472015 -0.00814499 0.00908979
v -0.00444614 -0.00834083 0.00907738
v -0.00393081 -0.00858350 0.00907635
v -0.00387308 -0.00872228 0.00897403
v -0.00670569 -0.00967422 -0.00141649
v -0.00387308 -0.00934953 0.00566762
v -0.00387308 -0.00941481 0.00565109
v -0.00387308 -0.00956977 0.00565005
v -0.01071084 -0.00742409 -0.00141649
v -0.01090626 -0.00717234 -0.00124182
v -0.01037771 -0.00735200 0.00322529
v -0.01024975 -0.00748313 0.00335759
v -0.01030330 -0.00735058 0.00345991
v -0.01021776 -0.00743544 0.00353019
v -0.00994861 -0.00742040 0.00425576
v -0.00990341 -0.00733923 0.00451105
v -0.01081794 -0.00717234 0.00192402
v -0.01043961 -0.00764150 0.00219378
v -0.01046395 -0.00741898 0.00270953
v -0.01046604 -0.00767925 0.00193539
v -0.01030191 -0.00755834 0.00296793
v -0.01021219 -0.00768719 0.00296793
v -0.01026853 -0.00750952 0.00322529
v -0.00521602 -0.00787480 0.00908255
v -0.00976849 -0.00752825 0.00451415
v -0.00970799 -0.00770848 0.00432398
v -0.00946666 -0.00798691 0.00436635
v -0.00943119 -0.00794433 0.00451415
v -0.00949657 -0.00776496 0.00468263
v -0.00920726 -0.00798492 0.00488314
v -0.00941381 -0.00761737 0.00505265
v -0.00951952 -0.00753592 0.00498133
v -0.00943397 -0.00742977 0.00528830
v -0.00929558 -0.00761028 0.00527590
v -0.00925176 -0.00752400 0.00547848
v -0.00898749 -0.00803203 0.00520768
v -0.00893672 -0.00797101 0.00538029
v -0.00889986 -0.00787820 0.00557150
v -0.00895689 -0.00773743 0.00567176
v -0.00902435 -0.00755720 0.00580302
v -0.00872878 -0.00777120 0.00596943
v -0.00865437 -0.00794320 0.00586297
v -0.00819536 -0.00774992 0.00671980
v -0.00825308 -0.00759836 0.00681799
v -0.00849371 -0.00779760 0.00625883
v -0.00812721 -0.00767697 0.00689137
v -0.00795543 -0.00776638 0.00699370
v -0.00804097 -0.00759438 0.00707638
v -0.00787128 -0.00768379 0.00716630
v -0.00709376 -0.00768038 0.00793632
v -0.00744009 -0.00802522 0.00725002
v -0.00726762 -0.00785294 0.00759317
v -0.00769950 -0.00776893 0.00725209
v -0.00692059 -0.00776297 0.00801797
v -0.00681835 -0.00766619 0.00819058
v -0.00691015 -0.00749419 0.00826396
v -0.00674742 -0.00759240 0.00831150
v -0.00617297 -0.00752201 0.00880659
v -0.00578560 -0.00793525 0.00871460
v -0.00573622 -0.00767783 0.00897506
v -0.00590730 -0.00803232 0.00854302
v -0.00673629 -0.00783989 0.00809859
v -0.00665423 -0.00800990 0.00800763
v -0.00559852 -0.00773090 0.00902157
v -0.00512700 -0.00802011 0.00904534
v -0.00496217 -0.00807007 0.00906911
v -0.00464504 -0.00829116 0.00905568
v -0.00413249 -0.00854518 0.00905464
v -0.00393081 -0.00871178 0.00896162
v -0.00428410 -0.00875776 0.00875491
v -0.00411232 -0.00878813 0.00879212
v -0.00387308 -0.00879579 0.00888514
v -0.00678288 -0.00993193 -0.00141649
v -0.00387308 -0.00967308 0.00565005
v -0.00387308 -0.00993108 0.00572033
v -0.01057314 -0.00762248 -0.00141649
v -0.01057314 -0.00762702 -0.00139375
v -0.01082350 -0.00730716 -0.00116017
v -0.01094868 -0.00717234 -0.00090177
v -0.01001816 -0.00777404 0.00342373
v -0.01011831 -0.00760659 0.00347748
v -0.01017812 -0.00763866 0.00322529
v -0.01004946 -0.00781690 0.00322529
v -0.00997921 -0.00746468 0.00409659
v -0.00998408 -0.00773033 0.00359531
v -0.01085202 -0.00717234 0.00167699
v -0.01077691 -0.00724046 0.00188371
v -0.01023723 -0.00798151 0.00200154
v -0.01031025 -0.00782286 0.00219378
v -0.01025740 -0.00775048 0.00261445
v -0.01057314 -0.00757622 0.00167699
v -0.01048342 -0.00770507 0.00167699
v -0.01025323 -0.00800280 0.00182893
v -0.01032138 -0.00788473 0.00192298
v -0.00950352 -0.00803402 0.00419478
v -0.00939433 -0.00812257 0.00427023
v -0.00928723 -0.00812626 0.00449245
v -0.00925385 -0.00804083 0.00471053
v -0.00922951 -0.00775474 0.00518184
v -0.00918152 -0.00769571 0.00535342
v -0.00891099 -0.00820403 0.00507435
v -0.00883866 -0.00813534 0.00529967
v -0.00871209 -0.00800990 0.00569139
v -0.00906469 -0.00812342 0.00492345
v -0.00897289 -0.00822872 0.00492345
v -0.00877468 -0.00786146 0.00578752
v -0.00848259 -0.00803970 0.00598700
v -0.00841860 -0.00796988 0.00615857
v -0.00818284 -0.00799485 0.00644590
v -0.00786711 -0.00793866 0.00689241
v -0.00769533 -0.00802238 0.00699163
v -0.00761187 -0.00794121 0.00716424
v -0.00700682 -0.00785010 0.00784846
v -0.00752216 -0.00810980 0.00707432
v -0.00734551 -0.00819722 0.00715804
v -0.00718138 -0.00802182 0.00750532
v -0.00691919 -0.00801756 0.00775958
v -0.00682531 -0.00793440 0.00793115
v -0.00561451 -0.00800195 0.00877351
v -0.00608534 -0.00822674 0.00822572
v -0.00579603 -0.00820431 0.00846137
v -0.00570492 -0.00810327 0.00861848
v -0.00673699 -0.00809958 0.00783813
v -0.00664866 -0.00826221 0.00774614
v -0.00651027 -0.00819438 0.00793218
v -0.00637117 -0.00824802 0.00798800
v -0.00549837 -0.00787480 0.00895749
v -0.00529947 -0.00796562 0.00899780
v -0.00481682 -0.00824348 0.00901744
v -0.00430566 -0.00850459 0.00902157
v -0.00420899 -0.00865105 0.00890684
v -0.00444614 -0.00859059 0.00885310
v -0.00444614 -0.00871888 0.00871046
v -0.00461583 -0.00878785 0.00853476
v -0.00444614 -0.00882219 0.00858230
v -0.00418813 -0.00899844 0.00846964
v -0.00419508 -0.00886051 0.00865672
v -0.00393081 -0.00881765 0.00883243
v -0.00387308 -0.00882418 0.00884896
v -0.00404347 -0.00902257 0.00850478
v -0.00394611 -0.00895984 0.00863295
v -0.00687816 -0.01006873 -0.00141649
v -0.00387308 -0.01006617 0.00584540
v -0.01054740 -0.00765909 -0.00141649
v -0.01050776 -0.00773941 -0.00129143
v -0.01064546 -0.00761028 -0.00090177
v -0.01044587 -0.00780356 -0.00141649
v -0.01097094 -0.00717234 -0.00064441
v -0.00977405 -0.00804821 0.00348368
v -0.00954316 -0.00808312 0.00399840
v -0.00995001 -0.00794547 0.00322529
v -0.00970659 -0.00822446 0.00327387
v -0.00997713 -0.00797924 0.00304131
v -0.01086592 -0.00717234 0.00157054
v -0.00999382 -0.00825796 0.00206665
v -0.00997226 -0.00823383 0.00224546
v -0.00994722 -0.00820289 0.00245114
v -0.00991593 -0.00816231 0.00270953
v -0.01001886 -0.00803345 0.00270953
v -0.01021289 -0.00795171 0.00219378
v -0.01015238 -0.00810327 0.00192298
v -0.01000912 -0.00827385 0.00193539
v -0.01057314 -0.00762702 0.00139483
v -0.01050776 -0.00773941 0.00129250
v -0.01036867 -0.00786827 0.00167699
v -0.01026366 -0.00801614 0.00167699
v -0.01016073 -0.00814528 0.00167699
v -0.00943745 -0.00821254 0.00399840
v -0.00921977 -0.00825852 0.00439219
v -0.00917805 -0.00821283 0.00456377
v -0.00873921 -0.00829059 0.00521905
v -0.00895967 -0.00825568 0.00490278
v -0.00893324 -0.00827016 0.00492345
v -0.00868357 -0.00823865 0.00539062
v -0.00863281 -0.00818757 0.00554566
v -0.00839913 -0.00821141 0.00586504
v -0.00816546 -0.00823638 0.00616374
v -0.00824752 -0.00806439 0.00627433
v -0.00808757 -0.00815691 0.00635805
v -0.00793874 -0.00800904 0.00672083
v -0.00760422 -0.00819438 0.00688724
v -0.00743175 -0.00827300 0.00698646
v -0.00717443 -0.00826988 0.00723969
v -0.00708332 -0.00819381 0.00741229
v -0.00681974 -0.00818955 0.00766552
v -0.00547820 -0.00804679 0.00881589
v -0.00562356 -0.00826533 0.00852132
v -0.00591356 -0.00828634 0.00828980
v -0.00651027 -0.00831075 0.00780299
v -0.00662363 -0.00850147 0.00746501
v -0.00645185 -0.00856505 0.00754356
v -0.00635240 -0.00849438 0.00771513
v -0.00619940 -0.00830422 0.00805311
v -0.00627520 -0.00839958 0.00788464
v -0.00547820 -0.00817593 0.00869496
v -0.00530782 -0.00823071 0.00874457
v -0.00521741 -0.00812513 0.00889651
v -0.00513604 -0.00827924 0.00879418
v -0.00496217 -0.00832607 0.00884586
v -0.00472502 -0.00839447 0.00890994
v -0.00444614 -0.00846969 0.00898333
v -0.00463183 -0.00854319 0.00880245
v -0.00471042 -0.00864565 0.00864328
v -0.00478761 -0.00874783 0.00848411
v -0.00510961 -0.00877848 0.00826396
v -0.00445866 -0.00896126 0.00837869
v -0.00438077 -0.00905322 0.00829083
v -0.00418813 -0.00909012 0.00833941
v -0.00387308 -0.00893061 0.00870426
v -0.00394611 -0.00912417 0.00840453
v -0.00387308 -0.00904641 0.00854613
v -0.00687816 -0.01007185 -0.00116017
v -0.00693589 -0.01006873 -0.00141649
v -0.00387308 -0.01006617 0.00585470
v -0.00403652 -0.01006788 0.00565935
v -0.01042153 -0.00784244 -0.00139375
v -0.01044030 -0.00790346 -0.00090177
v -0.01053141 -0.00777433 -0.00090177
v -0.01054254 -0.00779079 -0.00064441
v -0.01041666 -0.00784471 -0.00141649
v -0.01097789 -0.00717234 -0.00038602
v -0.00966626 -0.00817763 0.00348368
v -0.00946805 -0.00824689 0.00385163
v -0.00973441 -0.00825710 0.00310229
v -0.00980396 -0.00813364 0.00320255
v -0.00959184 -0.00837148 0.00319015
v -0.00953760 -0.00831812 0.00348368
v -0.00989646 -0.00810639 0.00296069
v -0.01094868 -0.00717234 0.00090285
v -0.00975736 -0.00853809 0.00193539
v -0.00985612 -0.00837773 0.00216794
v -0.00978727 -0.00831330 0.00270953
v -0.00975319 -0.00827754 0.00296793
v -0.01003207 -0.00829968 0.00167699
v -0.00991106 -0.00842853 0.00167699
v -0.00978240 -0.00856505 0.00167699
v -0.01064546 -0.00761028 0.00090285
v -0.01053141 -0.00777433 0.00090285
v -0.01044100 -0.00790346 0.00090285
v -0.01042500 -0.00788047 0.00116124
v -0.01017742 -0.00816656 0.00141860
v -0.01029634 -0.00805871 0.00116124
v -0.00930879 -0.00834622 0.00399840
v -0.00925176 -0.00828946 0.00425576
v -0.00843251 -0.00876174 0.00488211
v -0.00869609 -0.00850914 0.00489244
v -0.00899444 -0.00828719 0.00477151
v -0.00895133 -0.00876316 0.00384957
v -0.00900001 -0.00855199 0.00420718
v -0.00847285 -0.00853979 0.00520458
v -0.00829342 -0.00836552 0.00577201
v -0.00882753 -0.00832579 0.00500510
v -0.00868775 -0.00850062 0.00492345
v -0.00845477 -0.00826590 0.00569243
v -0.00822666 -0.00829230 0.00599216
v -0.00795821 -0.00854064 0.00597253
v -0.00799298 -0.00830933 0.00626813
v -0.00792066 -0.00824916 0.00644074
v -0.00786363 -0.00819523 0.00657717
v -0.00767655 -0.00826136 0.00671463
v -0.00714939 -0.00850914 0.00695856
v -0.00726901 -0.00832380 0.00708052
v -0.00752633 -0.00831585 0.00681489
v -0.00740115 -0.00850403 0.00669396
v -0.00711949 -0.00874641 0.00666916
v -0.00572022 -0.00833146 0.00837869
v -0.00560686 -0.00851254 0.00825362
v -0.00543439 -0.00856391 0.00830840
v -0.00529669 -0.00848444 0.00847998
v -0.00547820 -0.00830535 0.00856576
v -0.00618062 -0.00855001 0.00778128
v -0.00671473 -0.00856874 0.00729240
v -0.00652348 -0.00865218 0.00736372
v -0.00697761 -0.00857243 0.00704021
v -0.00632806 -0.00873591 0.00743297
v -0.00625434 -0.00864310 0.00761074
v -0.00521602 -0.00838170 0.00863811
v -0.00512491 -0.00853071 0.00853062
v -0.00480430 -0.00849750 0.00875284
v -0.00496217 -0.00857385 0.00857817
v -0.00520280 -0.00863317 0.00837248
v -0.00528139 -0.00873477 0.00821125
v -0.00541144 -0.00880147 0.00803864
v -0.00520628 -0.00883468 0.00812546
v -0.00504563 -0.00901008 0.00796939
v -0.00496078 -0.00894480 0.00811306
v -0.00445866 -0.00912276 0.00814200
v -0.00420551 -0.00922976 0.00812133
v -0.00470416 -0.00907820 0.00806758
v -0.00393081 -0.00926098 0.00821125
v -0.00387308 -0.00911282 0.00845207
v -0.00387308 -0.00925189 0.00824949
v -0.00687816 -0.01007185 0.00116124
v -0.00695327 -0.01007185 -0.00116017
v -0.00708193 -0.01004460 -0.00116017
v -0.00728362 -0.01000004 -0.00116017
v -0.00728362 -0.00999011 -0.00141649
v -0.00387308 -0.01006589 0.00591671
v -0.00413180 -0.01006788 0.00572550
v -0.01027826 -0.00803686 -0.00141649
v -0.01031095 -0.00807716 -0.00090177
v -0.01032347 -0.00809277 -0.00064441
v -0.01045213 -0.00791993 -0.00064441
v -0.01029495 -0.00805701 -0.00116017
v -0.01054601 -0.00779561 -0.00038602
v -0.01097789 -0.00717234 0.00038709
v -0.00935539 -0.00839362 0.00376585
v -0.00921004 -0.00850630 0.00385267
v -0.00962940 -0.00840639 0.00296793
v -0.00950004 -0.00853922 0.00296793
v -0.00947779 -0.00851566 0.00310436
v -0.00944649 -0.00848530 0.00327697
v -0.00940824 -0.00844755 0.00348368
v -0.00924272 -0.00853894 0.00368006
v -0.01097094 -0.00717234 0.00064549
v -0.00963079 -0.00866637 0.00193539
v -0.00948335 -0.00877791 0.00210283
v -0.00946318 -0.00875918 0.00227543
v -0.00967391 -0.00859230 0.00206768
v -0.00974206 -0.00852191 0.00206665
v -0.00965583 -0.00869362 0.00167699
v -0.00956681 -0.00860932 0.00245114
v -0.00966487 -0.00844244 0.00270953
v -0.00953551 -0.00857754 0.00270953
v -0.01019272 -0.00818757 0.00116124
v -0.01020802 -0.00820715 0.00090285
v -0.01004806 -0.00831671 0.00141860
v -0.00992845 -0.00844584 0.00141860
v -0.00979979 -0.00858378 0.00141860
v -0.00967391 -0.00871235 0.00141860
v -0.01054254 -0.00779079 0.00064549
v -0.01031164 -0.00807773 0.00090285
v -0.01045213 -0.00791993 0.00064549
v -0.00917805 -0.00847508 0.00399840
v -0.00869192 -0.00876287 0.00436842
v -0.00847563 -0.00879551 0.00470950
v -0.00818632 -0.00902909 0.00464542
v -0.00813277 -0.00899362 0.00481699
v -0.00825517 -0.00881878 0.00502991
v -0.00820301 -0.00878387 0.00518701
v -0.00791857 -0.00876372 0.00566245
v -0.00838453 -0.00871945 0.00502991
v -0.00927958 -0.00857498 0.00348368
v -0.00921838 -0.00877110 0.00310023
v -0.00898123 -0.00878898 0.00367799
v -0.00882127 -0.00896013 0.00350332
v -0.00869748 -0.00902541 0.00360254
v -0.00853892 -0.00909806 0.00374104
v -0.00860638 -0.00896069 0.00399840
v -0.00878372 -0.00883156 0.00399840
v -0.00873434 -0.00879579 0.00419685
v -0.00823153 -0.00855455 0.00554566
v -0.00836088 -0.00843875 0.00554566
v -0.00804862 -0.00857924 0.00578028
v -0.00812999 -0.00846458 0.00585056
v -0.00768281 -0.00877990 0.00594875
v -0.00778574 -0.00863231 0.00604694
v -0.00788867 -0.00848132 0.00614410
v -0.00786711 -0.00872172 0.00580302
v -0.00781912 -0.00840128 0.00634358
v -0.00704855 -0.00865928 0.00685727
v -0.00729822 -0.00865474 0.00659474
v -0.00771689 -0.00855256 0.00624642
v -0.00760979 -0.00872342 0.00612136
v -0.00719460 -0.00879665 0.00649655
v -0.00703047 -0.00885199 0.00658027
v -0.00694701 -0.00880090 0.00675494
v -0.00685730 -0.00874357 0.00692652
v -0.00596989 -0.00862635 0.00784846
v -0.00573622 -0.00858123 0.00807585
v -0.00558391 -0.00875691 0.00797869
v -0.00550950 -0.00866041 0.00814613
v -0.00604500 -0.00872087 0.00767792
v -0.00587322 -0.00877479 0.00774304
v -0.00659581 -0.00873988 0.00717974
v -0.00642333 -0.00879494 0.00726036
v -0.00615628 -0.00878870 0.00750532
v -0.00546777 -0.00889456 0.00785776
v -0.00522019 -0.00905918 0.00778335
v -0.00522019 -0.00897318 0.00791151
v -0.00496078 -0.00910715 0.00787637
v -0.00470764 -0.00921585 0.00785673
v -0.00430288 -0.00928141 0.00798696
v -0.00387308 -0.00931292 0.00814406
v -0.00387308 -0.00926892 0.00822365
v -0.00413110 -0.00930667 0.00803347
v -0.00393081 -0.00933221 0.00808205
v -0.00695327 -0.01007185 0.00116124
v -0.00728362 -0.01002105 0.00012973
v -0.00728362 -0.01002076 -0.00012866
v -0.00728362 -0.01001906 -0.00038602
v -0.00728362 -0.01001395 -0.00064441
v -0.00728362 -0.01000742 -0.00090177
v -0.00754094 -0.00993987 -0.00116017
v -0.00754094 -0.00995520 -0.00064441
v -0.00754094 -0.00994782 -0.00090177
v -0.00754094 -0.00992767 -0.00141649
v -0.00387308 -0.01005539 0.00599113
v -0.00401635 -0.01005425 0.00589708
v -0.00459010 -0.01006220 0.00542990
v -0.00485577 -0.01006362 0.00517978
v -0.00511517 -0.01006419 0.00492655
v -0.00590174 -0.01006674 0.00392398
v -0.01017672 -0.00816486 -0.00141649
v -0.01019272 -0.00818615 -0.00116017
v -0.01020802 -0.00820602 -0.00090177
v -0.01022123 -0.00822191 -0.00064441
v -0.01022610 -0.00822759 -0.00038602
v -0.01032694 -0.00809873 -0.00038602
v -0.01045560 -0.00792447 -0.00038602
v -0.01054601 -0.00779561 0.00038709
v -0.01097163 -0.00717234 0.00062895
v -0.00940685 -0.00870554 0.00270953
v -0.00936860 -0.00866722 0.00296793
v -0.00950213 -0.00879409 0.00193539
v -0.00948753 -0.00878160 0.00206665
v -0.00914884 -0.00897545 0.00245114
v -0.00927750 -0.00882105 0.00270953
v -0.00952647 -0.00881453 0.00167699
v -0.01007936 -0.00834906 0.00090285
v -0.01022123 -0.00822191 0.00064549
v -0.00982969 -0.00861614 0.00090285
v -0.00970590 -0.00874471 0.00090285
v -0.00954455 -0.00882957 0.00141860
v -0.01032347 -0.00809305 0.00064549
v -0.01045560 -0.00792447 0.00038709
v -0.01032694 -0.00809873 0.00038709
v -0.00852571 -0.00883156 0.00451415
v -0.00834767 -0.00896041 0.00451415
v -0.00844503 -0.00902909 0.00412966
v -0.00821901 -0.00905265 0.00451415
v -0.00803193 -0.00918718 0.00449142
v -0.00788032 -0.00926041 0.00456273
v -0.00805071 -0.00907848 0.00474774
v -0.00797421 -0.00905492 0.00492345
v -0.00805071 -0.00895502 0.00503611
v -0.00779756 -0.00889939 0.00554566
v -0.00761604 -0.00899532 0.00559941
v -0.00773775 -0.00881736 0.00580302
v -0.00923994 -0.00878955 0.00296793
v -0.00906469 -0.00892834 0.00294829
v -0.00893185 -0.00900809 0.00302271
v -0.00876633 -0.00907706 0.00322529
v -0.00859525 -0.00912645 0.00350332
v -0.00835045 -0.00922749 0.00374104
v -0.00847702 -0.00905294 0.00399840
v -0.00840748 -0.00926495 0.00348368
v -0.00728640 -0.00896382 0.00606865
v -0.00703603 -0.00897943 0.00633738
v -0.00728153 -0.00883950 0.00631257
v -0.00753398 -0.00894821 0.00580095
v -0.00737333 -0.00900440 0.00588571
v -0.00688442 -0.00902143 0.00643557
v -0.00678706 -0.00898567 0.00659474
v -0.00677037 -0.00885171 0.00683866
v -0.00668622 -0.00879807 0.00700817
v -0.00597337 -0.00881935 0.00759834
v -0.00580924 -0.00900156 0.00743813
v -0.00563816 -0.00904243 0.00750222
v -0.00535024 -0.00902824 0.00773787
v -0.00626616 -0.00897630 0.00710429
v -0.00624669 -0.00883922 0.00734821
v -0.00609508 -0.00901377 0.00719731
v -0.00600328 -0.00896296 0.00735131
v -0.00545247 -0.00906997 0.00759627
v -0.00520141 -0.00918945 0.00758800
v -0.00496217 -0.00924366 0.00766242
v -0.00479596 -0.00927432 0.00771617
v -0.00420551 -0.00935975 0.00788774
v -0.00387308 -0.00949030 0.00780919
v -0.00397671 -0.00952181 0.00769239
v -0.00669108 -0.01006873 0.00219378
v -0.00693519 -0.01006873 0.00141860
v -0.00708193 -0.01004460 0.00116124
v -0.00728362 -0.01001395 0.00064549
v -0.00728362 -0.01001963 0.00038709
v -0.00754094 -0.00996116 0.00012973
v -0.00754094 -0.00996088 -0.00012866
v -0.00754094 -0.00995974 -0.00038602
v -0.00779895 -0.00985984 -0.00116017
v -0.00779895 -0.00987999 -0.00064441
v -0.00779895 -0.00987062 -0.00090177
v -0.00779895 -0.00988595 -0.00038602
v -0.00781356 -0.00983969 -0.00141649
v -0.00781634 -0.00983997 -0.00139996
v -0.00387308 -0.00999096 0.00631981
v -0.00393081 -0.01003666 0.00605211
v -0.00420621 -0.01004517 0.00580819
v -0.00418813 -0.01000146 0.00606141
v -0.00495035 -0.01003268 0.00527486
v -0.00444614 -0.01001367 0.00580302
v -0.00444614 -0.00996627 0.00606141
v -0.00470416 -0.00997791 0.00580302
v -0.00468747 -0.01002985 0.00552809
v -0.00496217 -0.00998443 0.00554566
v -0.00502824 -0.01005000 0.00509812
v -0.00520976 -0.01003354 0.00501957
v -0.00547820 -0.00998585 0.00502991
v -0.00528695 -0.01004943 0.00482939
v -0.00536137 -0.01006192 0.00465782
v -0.00625225 -0.00998869 0.00399840
v -0.00612707 -0.01006050 0.00361805
v -0.00615975 -0.01006646 0.00348368
v -0.00641986 -0.01006674 0.00296793
v -0.00574248 -0.01004829 0.00427953
v -0.00599423 -0.01000572 0.00425576
v -0.01004876 -0.00831642 -0.00141649
v -0.01007936 -0.00834906 -0.00090177
v -0.01009188 -0.00836325 -0.00064441
v -0.01009744 -0.00836921 -0.00038602
v -0.01022610 -0.00822759 0.00038709
v -0.00936791 -0.00894395 0.00167699
v -0.00922325 -0.00903250 0.00182996
v -0.00932409 -0.00893685 0.00192298
v -0.00924759 -0.00897034 0.00206665
v -0.00905078 -0.00909920 0.00219378
v -0.00901948 -0.00907564 0.00245114
v -0.00911406 -0.00894991 0.00270953
v -0.00938738 -0.00895871 0.00141860
v -0.01009188 -0.00836325 0.00064549
v -0.00997156 -0.00849211 0.00064549
v -0.00984290 -0.00862976 0.00064549
v -0.01009744 -0.00836921 0.00038709
v -0.00972120 -0.00875890 0.00064549
v -0.00957724 -0.00885398 0.00090285
v -0.00831429 -0.00908501 0.00423199
v -0.00809243 -0.00922777 0.00425576
v -0.00793039 -0.00928766 0.00439116
v -0.00779617 -0.00932654 0.00449142
v -0.00770854 -0.00930582 0.00470433
v -0.00765430 -0.00927744 0.00487694
v -0.00779617 -0.00922777 0.00478288
v -0.00780451 -0.00916419 0.00492345
v -0.00781008 -0.00911367 0.00503611
v -0.00772175 -0.00906344 0.00528830
v -0.00767655 -0.00903278 0.00542783
v -0.00753398 -0.00908047 0.00552706
v -0.00744357 -0.00904840 0.00571413
v -0.00896315 -0.00903137 0.00285010
v -0.00883936 -0.00909693 0.00294829
v -0.00863002 -0.00924083 0.00296793
v -0.00822109 -0.00930554 0.00374104
v -0.00818771 -0.00928794 0.00387541
v -0.00814459 -0.00926240 0.00404801
v -0.00827882 -0.00933647 0.00348368
v -0.00867732 -0.00927205 0.00270953
v -0.00843599 -0.00928198 0.00333485
v -0.00712922 -0.00901292 0.00616064
v -0.00695745 -0.00906542 0.00626296
v -0.00728640 -0.00910062 0.00580095
v -0.00671264 -0.00906940 0.00651929
v -0.00678706 -0.00912645 0.00633738
v -0.00662363 -0.00901973 0.00669189
v -0.00652696 -0.00898141 0.00684900
v -0.00592330 -0.00905634 0.00726656
v -0.00572857 -0.00909494 0.00735131
v -0.00636074 -0.00901689 0.00694512
v -0.00618827 -0.00906429 0.00702574
v -0.00600328 -0.00911481 0.00710429
v -0.00510266 -0.00928993 0.00748775
v -0.00547751 -0.00921443 0.00734201
v -0.00556235 -0.00926892 0.00718801
v -0.00527443 -0.00925530 0.00742263
v -0.00496217 -0.00931320 0.00753322
v -0.00470624 -0.00948690 0.00734201
v -0.00462140 -0.00955814 0.00725002
v -0.00470764 -0.00934783 0.00762108
v -0.00430357 -0.00953997 0.00747121
v -0.00420621 -0.00949967 0.00760764
v -0.00413180 -0.00956438 0.00752082
v -0.00387308 -0.00956921 0.00765002
v -0.00666674 -0.01006589 0.00240050
v -0.00691294 -0.01006390 0.00161395
v -0.00728362 -0.00999039 0.00141860
v -0.00728362 -0.01000004 0.00116124
v -0.00728362 -0.01000742 0.00090285
v -0.00754094 -0.00995520 0.00064549
v -0.00754094 -0.00995974 0.00038709
v -0.00779895 -0.00988708 0.00012973
v -0.00779895 -0.00988708 -0.00012866
v -0.00779895 -0.00988595 0.00038709
v -0.00793943 -0.00980648 -0.00116017
v -0.00793039 -0.00980307 -0.00130280
v -0.00796934 -0.00981840 -0.00064441
v -0.00795473 -0.00981244 -0.00090177
v -0.00797838 -0.00982181 -0.00038602
v -0.00797977 -0.00982266 -0.00012866
v -0.00800620 -0.00976561 -0.00141649
v -0.00387308 -0.00997961 0.00637562
v -0.00393081 -0.00998387 0.00631981
v -0.00418813 -0.00995208 0.00631981
v -0.00522019 -0.00998727 0.00528830
v -0.00470416 -0.00992653 0.00606141
v -0.00496217 -0.00993789 0.00580302
v -0.00522019 -0.00994158 0.00554566
v -0.00547820 -0.00994356 0.00528830
v -0.00573622 -0.00993846 0.00502991
v -0.00558530 -0.00998302 0.00492345
v -0.00547125 -0.01000317 0.00492345
v -0.00545943 -0.01003041 0.00475498
v -0.00573622 -0.01001736 0.00451415
v -0.00651027 -0.00993647 0.00399840
v -0.00651027 -0.00996939 0.00374104
v -0.00625225 -0.00995520 0.00425576
v -0.00651027 -0.00999777 0.00348368
v -0.00638786 -0.01006163 0.00311056
v -0.00599423 -0.00997053 0.00451415
v -0.00992845 -0.00844584 -0.00141649
v -0.00979979 -0.00858350 -0.00141649
v -0.00982969 -0.00861614 -0.00090177
v -0.00984290 -0.00862976 -0.00064441
v -0.00997156 -0.00849211 -0.00064441
v -0.00972815 -0.00876571 -0.00038602
v -0.00925872 -0.00906117 0.00141860
v -0.00923786 -0.00904470 0.00167699
v -0.00910502 -0.00910658 0.00192298
v -0.00907651 -0.00910260 0.00206665
v -0.00908833 -0.00915937 0.00167699
v -0.00870027 -0.00928624 0.00257930
v -0.00890473 -0.00925161 0.00193539
v -0.00898471 -0.00904840 0.00270953
v -0.00941798 -0.00898283 0.00090285
v -0.00972815 -0.00876571 0.00038709
v -0.00959184 -0.00886476 0.00064549
v -0.00741784 -0.00954678 0.00439323
v -0.00805627 -0.00939153 0.00374104
v -0.00784485 -0.00950137 0.00374104
v -0.00779826 -0.00939125 0.00425576
v -0.00758336 -0.00950080 0.00425576
v -0.00755693 -0.00935492 0.00478288
v -0.00740184 -0.00938586 0.00492345
v -0.00742340 -0.00929248 0.00517874
v -0.00736637 -0.00926183 0.00535032
v -0.00768629 -0.00923855 0.00492345
v -0.00752146 -0.00919655 0.00527383
v -0.00728153 -0.00922380 0.00555186
v -0.00882962 -0.00916334 0.00270953
v -0.00793387 -0.00954764 0.00336895
v -0.00789353 -0.00952635 0.00354053
v -0.00854866 -0.00934385 0.00270953
v -0.00829690 -0.00948207 0.00270747
v -0.00833585 -0.00935549 0.00323976
v -0.00703603 -0.00911509 0.00606865
v -0.00703395 -0.00923884 0.00581852
v -0.00678497 -0.00925189 0.00608622
v -0.00712575 -0.00927205 0.00563972
v -0.00663753 -0.00928567 0.00618854
v -0.00653461 -0.00925814 0.00634358
v -0.00652696 -0.00912673 0.00659474
v -0.00645185 -0.00906684 0.00677251
v -0.00575291 -0.00923770 0.00709912
v -0.00626616 -0.00912247 0.00684900
v -0.00601440 -0.00925019 0.00685313
v -0.00584958 -0.00927999 0.00695029
v -0.00567711 -0.00931064 0.00701747
v -0.00547751 -0.00934187 0.00709912
v -0.00498443 -0.00951017 0.00710326
v -0.00479387 -0.00953174 0.00719524
v -0.00444614 -0.00958141 0.00730067
v -0.00470624 -0.00959702 0.00710326
v -0.00390647 -0.00958084 0.00760764
v -0.00420621 -0.00960922 0.00737199
v -0.00387308 -0.00958794 0.00760764
v -0.00675924 -0.01004035 0.00247285
v -0.00702630 -0.01000345 0.00219378
v -0.00702630 -0.01001196 0.00206768
v -0.00702560 -0.01002076 0.00193539
v -0.00654852 -0.01004205 0.00296793
v -0.00676898 -0.01001991 0.00270953
v -0.00728362 -0.00997677 0.00167699
v -0.00728362 -0.00996286 0.00193539
v -0.00754094 -0.00992767 0.00141860
v -0.00754094 -0.00993987 0.00116124
v -0.00754094 -0.00994782 0.00090285
v -0.00779895 -0.00987999 0.00064549
v -0.00797977 -0.00982266 0.00012973
v -0.00797838 -0.00982181 0.00038709
v -0.00806809 -0.00975624 -0.00116017
v -0.00803262 -0.00975653 -0.00139996
v -0.00803402 -0.00975482 -0.00141649
v -0.00809800 -0.00976760 -0.00064441
v -0.00808339 -0.00976192 -0.00090177
v -0.00810704 -0.00977100 -0.00038602
v -0.00810843 -0.00977185 -0.00012866
v -0.00387308 -0.00993675 0.00657717
v -0.00444614 -0.00991149 0.00631981
v -0.00393081 -0.00992937 0.00657717
v -0.00418813 -0.00988992 0.00657717
v -0.00496217 -0.00987772 0.00606141
v -0.00522019 -0.00988623 0.00580302
v -0.00547820 -0.00989021 0.00554566
v -0.00573622 -0.00988907 0.00528830
v -0.00584262 -0.00993505 0.00492345
v -0.00573622 -0.00995520 0.00492345
v -0.00573622 -0.00997876 0.00477151
v -0.00676898 -0.00986892 0.00399840
v -0.00676898 -0.00991007 0.00374104
v -0.00625225 -0.00991717 0.00451415
v -0.00651027 -0.00989503 0.00425576
v -0.00676898 -0.00994300 0.00348368
v -0.00676898 -0.00997138 0.00322529
v -0.00676898 -0.00999692 0.00296793
v -0.00599423 -0.00992994 0.00477151
v -0.00967391 -0.00871235 -0.00141649
v -0.00970590 -0.00874471 -0.00090177
v -0.00972120 -0.00875890 -0.00064441
v -0.00959184 -0.00886476 -0.00064441
v -0.00959880 -0.00887016 -0.00038602
v -0.00906469 -0.00920705 0.00141447
v -0.00895341 -0.00928255 0.00149715
v -0.00928862 -0.00908472 0.00090285
v -0.00893603 -0.00927176 0.00167699
v -0.00857300 -0.00942673 0.00206665
v -0.00847911 -0.00947980 0.00206665
v -0.00838870 -0.00951329 0.00219378
v -0.00835462 -0.00949541 0.00245114
v -0.00822527 -0.00956637 0.00245114
v -0.00819954 -0.00955218 0.00262065
v -0.00880667 -0.00934641 0.00167699
v -0.00943189 -0.00899362 0.00064549
v -0.00930323 -0.00909636 0.00064549
v -0.00959880 -0.00887016 0.00038709
v -0.00727944 -0.00957886 0.00449245
v -0.00718973 -0.00956041 0.00469606
v -0.00711462 -0.00952493 0.00492345
v -0.00745470 -0.00956552 0.00425576
v -0.00728431 -0.00963817 0.00425576
v -0.00771619 -0.00956665 0.00374104
v -0.00767864 -0.00954877 0.00388781
v -0.00763552 -0.00952635 0.00405938
v -0.00728362 -0.00940885 0.00502991
v -0.00728153 -0.00933023 0.00527383
v -0.00719460 -0.00930497 0.00546814
v -0.00780382 -0.00958737 0.00346611
v -0.00808896 -0.00949229 0.00322529
v -0.00796030 -0.00956183 0.00322529
v -0.00779826 -0.00963562 0.00322529
v -0.00703395 -0.00934669 0.00555186
v -0.00695327 -0.00931150 0.00574204
v -0.00670986 -0.00931746 0.00601697
v -0.00641638 -0.00955927 0.00571620
v -0.00634127 -0.00952748 0.00588777
v -0.00616880 -0.00956268 0.00597769
v -0.00646645 -0.00932058 0.00627226
v -0.00637743 -0.00928453 0.00644384
v -0.00627590 -0.00925445 0.00659784
v -0.00611455 -0.00928226 0.00669810
v -0.00594277 -0.00931689 0.00677871
v -0.00564581 -0.00955870 0.00648311
v -0.00554427 -0.00952266 0.00665572
v -0.00537249 -0.00955218 0.00672393
v -0.00491280 -0.00957034 0.00702367
v -0.00444614 -0.00966656 0.00709292
v -0.00498443 -0.00961405 0.00685830
v -0.00470416 -0.00969806 0.00683556
v -0.00393081 -0.00968131 0.00735028
v -0.00387308 -0.00967024 0.00740713
v -0.00702630 -0.00996372 0.00270953
v -0.00728431 -0.00994583 0.00219378
v -0.00715287 -0.00998358 0.00206768
v -0.00702630 -0.00994101 0.00296793
v -0.00728431 -0.00995407 0.00206768
v -0.00781634 -0.00983997 0.00140206
v -0.00779895 -0.00985984 0.00116124
v -0.00754094 -0.00991064 0.00167699
v -0.00779895 -0.00987062 0.00090285
v -0.00796934 -0.00981840 0.00064549
v -0.00810843 -0.00977185 0.00012973
v -0.00810704 -0.00977100 0.00038709
v -0.00831498 -0.00965378 -0.00116017
v -0.00831498 -0.00968131 -0.00064441
v -0.00831498 -0.00966769 -0.00090177
v -0.00829481 -0.00964584 -0.00141649
v -0.00831498 -0.00968869 -0.00038602
v -0.00831498 -0.00968926 -0.00012866
v -0.00387308 -0.00992341 0.00663401
v -0.00472154 -0.00985075 0.00633841
v -0.00444406 -0.00983883 0.00658337
v -0.00387308 -0.00986268 0.00684900
v -0.00394472 -0.00984905 0.00685416
v -0.00418813 -0.00982748 0.00678078
v -0.00496217 -0.00982209 0.00625469
v -0.00510474 -0.00980506 0.00620095
v -0.00520211 -0.00982521 0.00604798
v -0.00546638 -0.00982862 0.00579372
v -0.00572718 -0.00983032 0.00553739
v -0.00598311 -0.00982606 0.00526970
v -0.00599354 -0.00987914 0.00502991
v -0.00599423 -0.00990014 0.00492345
v -0.00588992 -0.00980960 0.00544540
v -0.00652070 -0.00984196 0.00451519
v -0.00676063 -0.00982521 0.00423095
v -0.00689833 -0.00980222 0.00412863
v -0.00693519 -0.00981528 0.00399840
v -0.00702977 -0.00983287 0.00372347
v -0.00702630 -0.00987318 0.00348368
v -0.00702630 -0.00991092 0.00322529
v -0.00612289 -0.00986807 0.00492345
v -0.00627659 -0.00985473 0.00479529
v -0.00954455 -0.00883070 -0.00141649
v -0.00957724 -0.00885398 -0.00090177
v -0.00941798 -0.00898283 -0.00090177
v -0.00943189 -0.00899362 -0.00064441
v -0.00943884 -0.00899873 -0.00038602
v -0.00912867 -0.00922550 0.00064549
v -0.00896315 -0.00928851 0.00132558
v -0.00885257 -0.00934641 0.00141447
v -0.00847494 -0.00956183 0.00141860
v -0.00845825 -0.00955246 0.00160878
v -0.00840400 -0.00952181 0.00206665
v -0.00826004 -0.00958368 0.00219378
v -0.00805627 -0.00964385 0.00245114
v -0.00807157 -0.00959759 0.00270747
v -0.00800689 -0.00958510 0.00296793
v -0.00943884 -0.00899873 0.00038709
v -0.00930949 -0.00910175 0.00038709
v -0.00913562 -0.00923061 0.00038709
v -0.00703881 -0.00960071 0.00477772
v -0.00698735 -0.00958226 0.00492345
v -0.00694980 -0.00956807 0.00502991
v -0.00690250 -0.00954735 0.00516841
v -0.00754650 -0.00958794 0.00398290
v -0.00728431 -0.00969380 0.00399840
v -0.00700056 -0.00974603 0.00423095
v -0.00702630 -0.00967337 0.00451415
v -0.00754094 -0.00964243 0.00374104
v -0.00754094 -0.00969380 0.00348368
v -0.00751659 -0.00975000 0.00320358
v -0.00779826 -0.00967706 0.00296793
v -0.00666048 -0.00955303 0.00544230
v -0.00650540 -0.00958368 0.00553533
v -0.00625434 -0.00959219 0.00580199
v -0.00675437 -0.00957403 0.00526763
v -0.00599354 -0.00959248 0.00606245
v -0.00590800 -0.00956069 0.00623092
v -0.00607978 -0.00952663 0.00614927
v -0.00627590 -0.00936769 0.00634358
v -0.00599354 -0.00967876 0.00580302
v -0.00581689 -0.00952493 0.00640249
v -0.00573274 -0.00958936 0.00631774
v -0.00547820 -0.00966996 0.00631981
v -0.00546708 -0.00958283 0.00657200
v -0.00522019 -0.00957630 0.00677975
v -0.00418813 -0.00972076 0.00709292
v -0.00444406 -0.00976078 0.00682419
v -0.00522019 -0.00965435 0.00657717
v -0.00496217 -0.00971991 0.00657717
v -0.00472154 -0.00977498 0.00658337
v -0.00452821 -0.00979144 0.00667329
v -0.00387308 -0.00969238 0.00735028
v -0.00394472 -0.00977015 0.00708982
v -0.00728431 -0.00992341 0.00245114
v -0.00754094 -0.00987176 0.00219378
v -0.00741019 -0.00991972 0.00206768
v -0.00728431 -0.00986722 0.00296793
v -0.00728431 -0.00989673 0.00270953
v -0.00793039 -0.00980307 0.00130387
v -0.00776348 -0.00983798 0.00167699
v -0.00791440 -0.00979683 0.00147545
v -0.00793943 -0.00980648 0.00116124
v -0.00795473 -0.00981244 0.00090285
v -0.00754094 -0.00989219 0.00193539
v -0.00809800 -0.00976760 0.00064549
v -0.00806809 -0.00975624 0.00116124
v -0.00808339 -0.00976192 0.00090285
v -0.00831498 -0.00968869 0.00038709
v -0.00831498 -0.00968926 0.00012973
v -0.00849093 -0.00957091 -0.00116017
v -0.00831498 -0.00963732 -0.00141649
v -0.00852153 -0.00958652 -0.00064441
v -0.00850623 -0.00957886 -0.00090177
v -0.00852918 -0.00959078 -0.00038602
v -0.00852918 -0.00959106 -0.00012866
v -0.00464644 -0.00981868 0.00650068
v -0.00435573 -0.00981045 0.00673117
v -0.00387308 -0.00984508 0.00690688
v -0.00387308 -0.00981159 0.00700920
v -0.00481891 -0.00979853 0.00643764
v -0.00520211 -0.00975000 0.00630017
v -0.00527722 -0.00978349 0.00612550
v -0.00572718 -0.00975795 0.00579372
v -0.00546638 -0.00975539 0.00604798
v -0.00580646 -0.00978633 0.00561594
v -0.00637882 -0.00980137 0.00489761
v -0.00619383 -0.00982322 0.00502991
v -0.00623139 -0.00983770 0.00492345
v -0.00598311 -0.00975738 0.00553739
v -0.00606169 -0.00978349 0.00534411
v -0.00644072 -0.00982152 0.00472500
v -0.00661319 -0.00979342 0.00460304
v -0.00666952 -0.00981216 0.00443043
v -0.00706385 -0.00977157 0.00399840
v -0.00711810 -0.00978888 0.00379685
v -0.00726275 -0.00975142 0.00372347
v -0.00719738 -0.00981698 0.00348368
v -0.00728779 -0.00983259 0.00320358
v -0.00938738 -0.00895871 -0.00141649
v -0.00925802 -0.00906145 -0.00141649
v -0.00928862 -0.00908472 -0.00090177
v -0.00930323 -0.00909636 -0.00064441
v -0.00930949 -0.00910175 -0.00038602
v -0.00900001 -0.00931150 0.00064549
v -0.00883032 -0.00941083 0.00064549
v -0.00862029 -0.00949740 0.00116124
v -0.00849093 -0.00957091 0.00116124
v -0.00831498 -0.00963732 0.00141860
v -0.00833724 -0.00960184 0.00168733
v -0.00829064 -0.00959759 0.00193539
v -0.00827534 -0.00959078 0.00206665
v -0.00805627 -0.00967592 0.00219378
v -0.00777878 -0.00975653 0.00244287
v -0.00779826 -0.00971367 0.00270953
v -0.00900696 -0.00931575 0.00038709
v -0.00913562 -0.00923061 -0.00038602
v -0.00676828 -0.00964044 0.00502991
v -0.00676898 -0.00970487 0.00477151
v -0.00676828 -0.00966712 0.00492345
v -0.00732534 -0.00977157 0.00348368
v -0.00737611 -0.00978888 0.00327490
v -0.00741575 -0.00980279 0.00310229
v -0.00756806 -0.00976419 0.00296793
v -0.00651027 -0.00965776 0.00528830
v -0.00625155 -0.00967166 0.00554566
v -0.00573622 -0.00967564 0.00606141
v -0.00387308 -0.00977498 0.00711463
v -0.00755415 -0.00983969 0.00244287
v -0.00768003 -0.00980563 0.00235192
v -0.00770089 -0.00981443 0.00219378
v -0.00771689 -0.00982010 0.00206768
v -0.00743870 -0.00981244 0.00296793
v -0.00748599 -0.00982947 0.00270953
v -0.00803262 -0.00975653 0.00140206
v -0.00805697 -0.00972559 0.00167699
v -0.00786154 -0.00977696 0.00193539
v -0.00831498 -0.00968131 0.00064549
v -0.00831498 -0.00965378 0.00116124
v -0.00831498 -0.00966769 0.00090285
v -0.00852918 -0.00959078 0.00038709
v -0.00852918 -0.00959106 0.00012973
v -0.00862029 -0.00949740 -0.00116017
v -0.00860360 -0.00948832 -0.00141649
v -0.00847355 -0.00956183 -0.00141649
v -0.00865019 -0.00951443 -0.00064441
v -0.00865784 -0.00951897 -0.00038602
v -0.00865854 -0.00951897 -0.00012866
v -0.00652070 -0.00977980 0.00479529
v -0.00623278 -0.00975057 0.00526970
v -0.00651027 -0.00972758 0.00502991
v -0.00906051 -0.00921017 -0.00141649
v -0.00912867 -0.00922550 -0.00064441
v -0.00883032 -0.00941935 0.00038709
v -0.00865784 -0.00951897 0.00038709
v -0.00865019 -0.00951443 0.00064549
v -0.00850623 -0.00957886 0.00090285
v -0.00805697 -0.00970147 0.00193539
v -0.00817102 -0.00963789 0.00206665
v -0.00782955 -0.00976504 0.00219378
v -0.00794152 -0.00973382 0.00206665
v -0.00764943 -0.00979427 0.00252452
v -0.00900696 -0.00931575 -0.00038602
v -0.00900001 -0.00931150 -0.00064441
v -0.00661737 -0.00971821 0.00492345
v -0.00778226 -0.00979513 0.00206665
v -0.00852153 -0.00958652 0.00064549
v -0.00865854 -0.00951897 0.00012973
v -0.00885674 -0.00934385 -0.00141649
v -0.00883032 -0.00941083 -0.00064441
v -0.00883032 -0.00941935 -0.00038602
v -0.00896315 -0.00928851 -0.00132450
f 1 2 7
f 1 7 23
f 1 23 10
f 1 10 3
f 1 3 11
f 1 11 48
f 1 48 95
f 1 95 163
f 1 163 230
f 1 230 300
f 1 300 302
f 1 302 382
f 1 382 383
f 1 383 476
f 1 476 475
f 1 475 561
f 1 561 662
f 1 662 754
f 1 754 848
f 1 848 941
f 1 941 1016
f 1 1016 968
f 1 968 967
f 1 967 870
f 1 870 867
f 1 867 776
f 1 776 680
f 1 680 577
f 1 577 489
f 1 489 389
f 1 389 305
f 1 305 234
f 1 234 166
f 1 166 165
f 1 165 99
f 1 99 98
f 1 98 97
f 1 97 52
f 1 52 51
f 1 51 49
f 1 49 12
f 1 12 4
f 1 4 5
f 1 5 6
f 1 6 8
f 1 8 2
f 2 8 9
f 2 9 7
f 3 10 11
f 4 12 13
f 4 13 14
f 4 14 15
f 4 15 16
f 4 16 17
f 4 17 18
f 4 18 19
f 4 19 5
f 5 19 53
f 5 53 101
f 5 101 170
f 5 170 239
f 5 239 312
f 5 312 397
f 5 397 503
f 5 503 406
f 5 406 320
f 5 320 245
f 5 245 177
f 5 177 108
f 5 108 60
f 5 60 20
f 5 20 8
f 5 8 6
f 7 9 21
f 7 21 22
f 7 22 23
f 8 20 24
f 8 24 25
f 8 25 26
f 8 26 27
f 8 27 28
f 8 28 29
f 8 29 30
f 8 30 31
f 8 31 32
f 8 32 33
f 8 33 34
f 8 34 35
f 8 35 36
f 8 36 37
f 8 37 38
f 8 38 39
f 8 39 40
f 8 40 41
f 8 41 42
f 8 42 43
f 8 43 44
f 8 44 45
f 8 45 9
f 9 45 21
f 10 23 46
f 10 46 11
f 11 46 47
f 11 47 48
f 12 49 13
f 13 50 96
f 13 96 164
f 13 164 233
f 13 233 304
f 13 304 388
f 13 388 488
f 13 488 575
f 13 575 679
f 13 679 771
f 13 771 864
f 13 864 960
f 13 960 1033
f 13 1033 1032
f 13 1032 1057
f 13 1057 1040
f 13 1040 989
f 13 989 988
f 13 988 891
f 13 891 795
f 13 795 700
f 13 700 699
f 13 699 598
f 13 598 495
f 13 495 391
f 13 391 311
f 13 311 238
f 13 238 235
f 13 235 167
f 13 167 100
f 13 100 53
f 13 53 19
f 13 19 18
f 13 18 17
f 13 17 16
f 13 16 15
f 13 15 14
f 13 49 51
f 13 51 52
f 13 52 50
f 20 54 55
f 20 55 56
f 20 56 57
f 20 57 58
f 20 58 59
f 20 59 24
f 20 60 61
f 20 61 62
f 20 62 54
f 21 63 22
f 21 45 64
f 21 64 65
f 21 65 63
f 22 46 23
f 22 63 46
f 24 66 67
f 24 67 25
f 24 59 66
f 25 67 66
f 25 66 68
f 25 68 26
f 26 69 27
f 26 68 66
f 26 66 69
f 27 69 28
f 28 69 70
f 28 70 71
f 28 71 72
f 28 72 29
f 29 72 73
f 29 73 30
f 30 73 74
f 30 74 31
f 31 74 75
f 31 75 32
f 32 75 76
f 32 76 33
f 33 76 77
f 33 77 34
f 34 77 35
f 35 78 36
f 35 77 79
f 35 79 80
f 35 80 81
f 35 81 78
f 36 78 37
f 37 82 38
f 37 78 82
f 38 82 83
f 38 83 84
f 38 84 39
f 39 84 40
f 40 84 85
f 40 85 86
f 40 86 41
f 41 86 42
f 42 87 88
f 42 88 43
f 42 86 89
f 42 89 87
f 43 88 90
f 43 90 44
f 44 90 91
f 44 91 64
f 44 64 45
f 46 63 92
f 46 92 93
f 46 93 47
f 47 93 94
f 47 94 48
f 48 94 95
f 50 52 97
f 50 97 98
f 50 98 99
f 50 99 165
f 50 165 96
f 53 100 101
f 54 62 102
f 54 102 103
f 54 103 55
f 55 103 104
f 55 104 56
f 56 104 105
f 56 105 57
f 57 105 106
f 57 106 58
f 58 107 59
f 58 106 107
f 59 107 66
f 60 108 61
f 61 109 110
f 61 110 62
f 61 108 111
f 61 111 109
f 62 112 113
f 62 113 114
f 62 114 102
f 62 110 112
f 63 65 115
f 63 115 92
f 64 91 65
f 65 91 115
f 66 107 116
f 66 116 117
f 66 117 118
f 66 118 119
f 66 119 120
f 66 120 121
f 66 121 122
f 66 122 123
f 66 123 124
f 66 124 69
f 69 124 125
f 69 125 126
f 69 126 70
f 70 126 127
f 70 127 128
f 70 128 129
f 70 129 130
f 70 130 71
f 71 130 131
f 71 131 72
f 72 132 73
f 72 131 133
f 72 133 132
f 73 134 135
f 73 135 74
f 73 132 136
f 73 136 134
f 74 135 75
f 75 135 134
f 75 134 137
f 75 137 138
f 75 138 139
f 75 139 77
f 75 77 76
f 77 139 138
f 77 138 140
f 77 140 79
f 78 141 82
f 78 81 142
f 78 142 143
f 78 143 141
f 79 140 144
f 79 144 142
f 79 142 80
f 80 142 81
f 82 145 83
f 82 141 145
f 83 146 147
f 83 147 84
f 83 145 146
f 84 147 85
f 85 147 148
f 85 148 86
f 86 148 89
f 87 149 88
f 87 89 149
f 88 150 151
f 88 151 90
f 88 149 152
f 88 152 150
f 89 152 149
f 89 148 146
f 89 146 145
f 89 145 153
f 89 153 154
f 89 154 152
f 90 151 155
f 90 155 91
f 91 155 156
f 91 156 157
f 91 157 115
f 92 115 157
f 92 157 93
f 93 157 158
f 93 158 159
f 93 159 94
f 94 159 95
f 95 159 160
f 95 160 161
f 95 161 162
f 95 162 163
f 96 165 166
f 96 166 164
f 100 167 168
f 100 168 169
f 100 169 101
f 101 169 170
f 102 114 103
f 103 171 172
f 103 172 105
f 103 105 104
f 103 114 173
f 103 173 174
f 103 174 171
f 105 175 106
f 105 172 175
f 106 175 176
f 106 176 116
f 106 116 107
f 108 177 178
f 108 178 111
f 109 179 180
f 109 180 181
f 109 181 113
f 109 113 112
f 109 112 110
f 109 111 179
f 111 178 182
f 111 182 183
f 111 183 184
f 111 184 185
f 111 185 179
f 113 174 173
f 113 173 114
f 113 181 174
f 116 176 117
f 117 176 186
f 117 186 118
f 118 186 187
f 118 187 188
f 118 188 119
f 119 188 189
f 119 189 120
f 120 189 121
f 121 189 127
f 121 127 190
f 121 190 125
f 121 125 122
f 122 125 123
f 123 125 124
f 125 191 126
f 125 190 127
f 125 127 191
f 126 191 127
f 127 192 193
f 127 193 194
f 127 194 128
f 127 189 195
f 127 195 196
f 127 196 192
f 128 194 129
f 129 194 130
f 130 194 131
f 131 194 197
f 131 197 133
f 132 133 198
f 132 198 199
f 132 199 136
f 133 197 194
f 133 194 198
f 134 136 199
f 134 199 200
f 134 200 137
f 137 200 138
f 138 201 202
f 138 202 203
f 138 203 140
f 138 200 201
f 140 203 144
f 141 143 204
f 141 204 145
f 142 144 203
f 142 203 202
f 142 202 205
f 142 205 206
f 142 206 207
f 142 207 143
f 143 207 204
f 145 204 208
f 145 208 209
f 145 209 154
f 145 154 153
f 146 148 147
f 150 210 151
f 150 152 210
f 151 210 155
f 152 154 211
f 152 211 212
f 152 212 213
f 152 213 210
f 154 209 208
f 154 208 214
f 154 214 215
f 154 215 216
f 154 216 217
f 154 217 211
f 155 210 218
f 155 218 219
f 155 219 156
f 156 158 157
f 156 219 220
f 156 220 158
f 158 220 221
f 158 221 159
f 159 221 222
f 159 222 160
f 160 222 161
f 161 222 221
f 161 221 223
f 161 223 224
f 161 224 225
f 161 225 226
f 161 226 227
f 161 227 228
f 161 228 162
f 162 229 230
f 162 230 163
f 162 228 231
f 162 231 232
f 162 232 229
f 164 166 234
f 164 234 233
f 167 235 168
f 168 236 237
f 168 237 169
f 168 235 238
f 168 238 236
f 169 237 170
f 170 237 239
f 171 240 241
f 171 241 186
f 171 186 176
f 171 176 172
f 171 174 242
f 171 242 243
f 171 243 240
f 172 176 175
f 174 181 244
f 174 244 242
f 177 182 178
f 177 245 182
f 179 246 247
f 179 247 248
f 179 248 249
f 179 249 250
f 179 250 251
f 179 251 180
f 179 185 184
f 179 184 252
f 179 252 253
f 179 253 246
f 180 251 244
f 180 244 181
f 182 245 254
f 182 254 255
f 182 255 183
f 183 256 184
f 183 255 256
f 184 253 252
f 184 256 257
f 184 257 258
f 184 258 253
f 186 241 259
f 186 259 187
f 187 260 188
f 187 259 260
f 188 260 261
f 188 261 189
f 189 196 195
f 189 261 196
f 192 262 193
f 192 196 263
f 192 263 264
f 192 264 262
f 193 262 265
f 193 265 194
f 194 266 267
f 194 267 198
f 194 265 266
f 196 261 263
f 198 268 269
f 198 269 199
f 198 267 268
f 199 269 200
f 200 269 268
f 200 268 270
f 200 270 271
f 200 271 201
f 201 272 202
f 201 271 272
f 202 272 273
f 202 273 205
f 204 207 208
f 205 273 206
f 206 274 275
f 206 275 207
f 206 273 274
f 207 275 208
f 208 275 276
f 208 276 215
f 208 215 214
f 210 277 219
f 210 219 218
f 210 213 278
f 210 278 277
f 211 279 212
f 211 217 279
f 212 278 213
f 212 279 278
f 215 280 217
f 215 217 216
f 215 276 275
f 215 275 274
f 215 274 352
f 215 352 281
f 215 281 282
f 215 282 283
f 215 283 280
f 217 284 279
f 217 280 283
f 217 283 285
f 217 285 284
f 219 277 286
f 219 286 287
f 219 287 288
f 219 288 220
f 220 288 287
f 220 287 289
f 220 289 290
f 220 290 291
f 220 291 292
f 220 292 221
f 221 292 223
f 223 293 224
f 223 292 293
f 224 293 294
f 224 294 295
f 224 295 225
f 225 295 296
f 225 296 297
f 225 297 226
f 226 297 298
f 226 298 227
f 227 298 299
f 227 299 231
f 227 231 228
f 229 232 230
f 230 232 300
f 231 299 301
f 231 301 302
f 231 302 232
f 232 302 300
f 233 303 385
f 233 385 304
f 233 234 303
f 234 305 306
f 234 306 303
f 236 238 307
f 236 307 308
f 236 308 309
f 236 309 237
f 237 309 310
f 237 310 239
f 238 311 307
f 239 310 312
f 240 243 313
f 240 313 314
f 240 314 241
f 241 314 259
f 242 244 315
f 242 315 316
f 242 316 243
f 243 316 315
f 243 315 317
f 243 317 318
f 243 318 314
f 243 314 313
f 244 319 315
f 244 251 250
f 244 250 319
f 245 320 254
f 246 253 321
f 246 321 322
f 246 322 323
f 246 323 247
f 247 323 324
f 247 324 248
f 248 324 249
f 249 324 319
f 249 319 250
f 253 258 325
f 253 325 326
f 253 326 327
f 253 327 321
f 254 320 328
f 254 328 255
f 255 328 329
f 255 329 330
f 255 330 331
f 255 331 256
f 256 331 257
f 257 332 258
f 257 331 330
f 257 330 333
f 257 333 332
f 258 332 325
f 259 334 335
f 259 335 260
f 259 314 334
f 260 336 337
f 260 337 338
f 260 338 263
f 260 263 261
f 260 335 339
f 260 339 340
f 260 340 336
f 262 341 342
f 262 342 265
f 262 264 343
f 262 343 336
f 262 336 341
f 263 338 337
f 263 337 264
f 264 337 344
f 264 344 343
f 265 342 345
f 265 345 267
f 265 267 266
f 267 345 346
f 267 346 268
f 268 346 347
f 268 347 348
f 268 348 349
f 268 349 270
f 270 349 350
f 270 350 271
f 271 350 272
f 272 350 349
f 272 349 351
f 272 351 273
f 273 352 353
f 273 353 274
f 273 351 354
f 273 354 355
f 273 355 356
f 273 356 352
f 274 353 352
f 277 278 286
f 278 279 357
f 278 357 358
f 278 358 359
f 278 359 360
f 278 360 361
f 278 361 287
f 278 287 286
f 279 358 357
f 279 284 362
f 279 362 358
f 281 363 364
f 281 364 282
f 281 352 365
f 281 365 363
f 282 364 366
f 282 366 283
f 283 362 285
f 283 366 367
f 283 367 362
f 284 285 362
f 287 361 289
f 289 361 368
f 289 368 290
f 290 368 369
f 290 369 370
f 290 370 291
f 291 370 293
f 291 293 292
f 293 370 371
f 293 371 294
f 294 371 296
f 294 296 295
f 296 371 372
f 296 372 373
f 296 373 374
f 296 374 375
f 296 375 376
f 296 376 377
f 296 377 297
f 297 377 298
f 298 378 379
f 298 379 299
f 298 377 376
f 298 376 380
f 298 380 378
f 299 381 301
f 299 379 381
f 301 382 302
f 301 381 383
f 301 383 382
f 303 384 479
f 303 479 385
f 303 306 384
f 304 385 386
f 304 386 387
f 304 387 388
f 305 389 306
f 306 389 390
f 306 390 384
f 307 311 391
f 307 391 308
f 308 392 393
f 308 393 394
f 308 394 309
f 308 391 395
f 308 395 392
f 309 394 310
f 310 394 396
f 310 396 312
f 312 396 502
f 312 502 397
f 314 318 398
f 314 398 399
f 314 399 334
f 315 319 324
f 315 324 400
f 315 400 401
f 315 401 402
f 315 402 317
f 317 402 403
f 317 403 318
f 318 404 405
f 318 405 399
f 318 399 398
f 318 403 404
f 320 406 328
f 321 407 408
f 321 408 409
f 321 409 410
f 321 410 411
f 321 411 322
f 321 327 412
f 321 412 407
f 322 411 413
f 322 413 414
f 322 414 323
f 323 414 324
f 324 414 415
f 324 415 400
f 325 332 416
f 325 416 417
f 325 417 418
f 325 418 419
f 325 419 420
f 325 420 326
f 326 420 327
f 327 420 421
f 327 421 412
f 328 406 422
f 328 422 329
f 329 422 424
f 329 424 330
f 330 423 333
f 330 424 423
f 332 333 416
f 333 423 417
f 333 417 416
f 334 425 335
f 334 399 339
f 334 339 425
f 335 425 339
f 336 344 337
f 336 340 426
f 336 426 427
f 336 427 428
f 336 428 429
f 336 429 430
f 336 430 431
f 336 431 432
f 336 432 433
f 336 433 341
f 336 343 344
f 339 399 405
f 339 405 434
f 339 434 435
f 339 435 436
f 339 436 437
f 339 437 438
f 339 438 439
f 339 439 440
f 339 440 441
f 339 441 442
f 339 442 426
f 339 426 340
f 341 433 432
f 341 432 443
f 341 443 444
f 341 444 342
f 342 444 443
f 342 443 445
f 342 445 446
f 342 446 346
f 342 346 345
f 346 446 347
f 347 447 448
f 347 448 449
f 347 449 348
f 347 446 445
f 347 445 432
f 347 432 450
f 347 450 447
f 348 451 351
f 348 351 349
f 348 449 451
f 351 355 354
f 351 451 355
f 352 356 452
f 352 452 365
f 355 453 356
f 355 451 454
f 355 454 453
f 356 453 455
f 356 455 447
f 356 447 456
f 356 456 457
f 356 457 458
f 356 458 459
f 356 459 452
f 358 460 461
f 358 461 462
f 358 462 463
f 358 463 373
f 358 373 359
f 358 362 460
f 359 373 372
f 359 372 360
f 360 369 368
f 360 368 361
f 360 372 369
f 362 367 464
f 362 464 465
f 362 465 460
f 363 365 364
f 364 365 466
f 364 466 366
f 365 452 466
f 366 466 467
f 366 467 468
f 366 468 367
f 367 468 464
f 369 372 371
f 369 371 370
f 373 463 462
f 373 462 374
f 374 462 465
f 374 465 469
f 374 469 470
f 374 470 471
f 374 471 375
f 375 471 376
f 376 471 470
f 376 470 472
f 376 472 380
f 378 380 472
f 378 472 473
f 378 473 474
f 378 474 379
f 379 474 381
f 381 475 476
f 381 476 383
f 381 474 477
f 381 477 478
f 381 478 475
f 384 390 479
f 385 479 480
f 385 480 481
f 385 481 482
f 385 482 483
f 385 483 386
f 386 483 484
f 386 484 387
f 387 485 388
f 387 484 486
f 387 486 487
f 387 487 485
f 388 485 488
f 389 489 390
f 390 489 490
f 390 490 491
f 390 491 492
f 390 492 493
f 390 493 494
f 390 494 479
f 391 495 496
f 391 496 395
f 392 395 496
f 392 496 497
f 392 497 498
f 392 498 393
f 393 498 499
f 393 499 500
f 393 500 394
f 394 500 501
f 394 501 396
f 396 501 517
f 396 517 502
f 397 502 503
f 400 415 401
f 401 415 504
f 401 504 505
f 401 505 435
f 401 435 402
f 402 435 403
f 403 435 434
f 403 434 404
f 404 434 405
f 406 503 422
f 407 412 506
f 407 506 507
f 407 507 408
f 408 508 509
f 408 509 409
f 408 507 508
f 409 413 410
f 409 509 504
f 409 504 415
f 409 415 413
f 410 413 411
f 412 421 510
f 412 510 506
f 413 415 414
f 417 511 418
f 417 423 512
f 417 512 511
f 418 511 419
f 419 511 420
f 420 511 513
f 420 513 514
f 420 514 421
f 421 515 510
f 421 514 515
f 422 503 502
f 422 502 424
f 423 424 516
f 423 516 512
f 424 502 517
f 424 517 518
f 424 518 516
f 426 442 427
f 427 442 519
f 427 519 428
f 428 519 520
f 428 520 440
f 428 440 521
f 428 521 522
f 428 522 523
f 428 523 524
f 428 524 525
f 428 525 429
f 429 525 526
f 429 526 527
f 429 527 430
f 430 527 528
f 430 528 431
f 431 528 432
f 432 528 529
f 432 529 530
f 432 530 447
f 432 447 450
f 432 445 443
f 435 505 531
f 435 531 532
f 435 532 533
f 435 533 437
f 435 437 436
f 437 533 534
f 437 534 438
f 438 534 535
f 438 535 439
f 439 536 537
f 439 537 440
f 439 535 538
f 439 538 536
f 440 537 521
f 440 520 519
f 440 519 442
f 440 442 441
f 447 539 540
f 447 540 541
f 447 541 456
f 447 455 448
f 447 530 542
f 447 542 543
f 447 543 539
f 448 455 453
f 448 453 454
f 448 454 449
f 449 454 451
f 452 459 466
f 456 541 540
f 456 540 544
f 456 544 457
f 457 544 458
f 458 544 545
f 458 545 546
f 458 546 547
f 458 547 459
f 459 547 466
f 460 465 461
f 461 465 462
f 464 468 465
f 465 468 548
f 465 548 549
f 465 549 550
f 465 550 551
f 465 551 469
f 466 547 467
f 467 547 552
f 467 552 553
f 467 553 468
f 468 553 554
f 468 554 555
f 468 555 548
f 469 551 470
f 470 551 556
f 470 556 557
f 470 557 558
f 470 558 472
f 472 558 559
f 472 559 473
f 473 559 474
f 474 559 560
f 474 560 477
f 475 478 561
f 477 560 562
f 477 562 561
f 477 561 478
f 479 494 563
f 479 563 564
f 479 564 565
f 479 565 566
f 479 566 567
f 479 567 480
f 480 567 669
f 480 669 568
f 480 568 569
f 480 569 481
f 481 569 570
f 481 570 482
f 482 570 486
f 482 486 483
f 483 486 484
f 485 571 488
f 485 487 572
f 485 572 573
f 485 573 571
f 486 572 487
f 486 570 574
f 486 574 572
f 488 571 576
f 488 576 575
f 489 577 578
f 489 578 490
f 490 579 491
f 490 578 580
f 490 580 579
f 491 581 492
f 491 579 582
f 491 582 583
f 491 583 584
f 491 584 585
f 491 585 586
f 491 586 581
f 492 581 587
f 492 587 493
f 493 587 588
f 493 588 589
f 493 589 590
f 493 590 591
f 493 591 494
f 494 592 593
f 494 593 594
f 494 594 595
f 494 595 563
f 494 591 596
f 494 596 597
f 494 597 592
f 495 598 496
f 496 598 497
f 497 599 498
f 497 598 599
f 498 599 600
f 498 600 601
f 498 601 499
f 499 601 614
f 499 614 602
f 499 602 518
f 499 518 500
f 500 518 517
f 500 517 501
f 504 509 531
f 504 531 505
f 506 510 603
f 506 603 604
f 506 604 605
f 506 605 507
f 507 605 606
f 507 606 508
f 508 606 607
f 508 607 608
f 508 608 609
f 508 609 509
f 509 609 531
f 510 515 610
f 510 610 603
f 511 512 611
f 511 611 612
f 511 612 613
f 511 613 513
f 512 516 602
f 512 602 614
f 512 614 611
f 513 613 615
f 513 615 514
f 514 615 515
f 515 615 616
f 515 616 610
f 516 518 602
f 521 537 522
f 522 537 617
f 522 617 618
f 522 618 523
f 523 619 524
f 523 618 619
f 524 619 620
f 524 620 621
f 524 621 622
f 524 622 623
f 524 623 525
f 525 623 624
f 525 624 526
f 526 624 625
f 526 625 626
f 526 626 627
f 526 627 527
f 527 627 528
f 528 627 529
f 529 627 628
f 529 628 629
f 529 629 542
f 529 542 530
f 531 609 630
f 531 630 532
f 532 630 533
f 533 630 534
f 534 630 631
f 534 631 632
f 534 632 535
f 535 632 538
f 536 538 633
f 536 633 634
f 536 634 635
f 536 635 618
f 536 618 617
f 536 617 537
f 538 636 633
f 538 632 637
f 538 637 638
f 538 638 636
f 539 543 540
f 540 543 639
f 540 639 640
f 540 640 544
f 542 629 543
f 543 629 641
f 543 641 640
f 543 640 639
f 544 642 545
f 544 640 643
f 544 643 642
f 545 644 645
f 545 645 546
f 545 642 644
f 546 645 552
f 546 552 547
f 548 555 646
f 548 646 549
f 549 646 550
f 550 556 551
f 550 646 647
f 550 647 556
f 552 554 553
f 552 645 644
f 552 644 648
f 552 648 649
f 552 649 554
f 554 649 650
f 554 650 646
f 554 646 555
f 556 647 557
f 557 651 558
f 557 647 652
f 557 652 653
f 557 653 654
f 557 654 651
f 558 651 559
f 559 651 655
f 559 655 656
f 559 656 657
f 559 657 658
f 559 658 560
f 560 658 659
f 560 659 660
f 560 660 661
f 560 661 562
f 561 562 662
f 562 661 662
f 563 595 663
f 563 663 564
f 564 664 665
f 564 665 666
f 564 666 565
f 564 663 664
f 565 666 667
f 565 667 566
f 566 667 668
f 566 668 567
f 567 668 669
f 568 670 671
f 568 671 569
f 568 669 672
f 568 672 670
f 569 671 574
f 569 574 570
f 571 673 674
f 571 674 576
f 571 573 675
f 571 675 676
f 571 676 673
f 572 675 573
f 572 574 677
f 572 677 675
f 574 671 678
f 574 678 677
f 575 576 679
f 576 674 679
f 577 680 681
f 577 681 578
f 578 681 682
f 578 682 580
f 579 580 582
f 580 682 583
f 580 583 582
f 581 586 683
f 581 683 587
f 583 682 684
f 583 684 584
f 584 684 685
f 584 685 586
f 584 586 585
f 586 686 683
f 586 685 686
f 587 683 588
f 588 683 687
f 588 687 589
f 589 688 689
f 589 689 690
f 589 690 590
f 589 687 688
f 590 691 591
f 590 690 691
f 591 691 692
f 591 692 596
f 592 693 694
f 592 694 593
f 592 597 695
f 592 695 693
f 593 694 696
f 593 696 697
f 593 697 594
f 594 697 595
f 595 697 663
f 596 692 698
f 596 698 597
f 597 698 695
f 598 699 599
f 599 699 700
f 599 700 701
f 599 701 702
f 599 702 703
f 599 703 600
f 600 703 704
f 600 704 601
f 601 704 714
f 601 714 614
f 603 610 705
f 603 705 706
f 603 706 604
f 604 707 708
f 604 708 606
f 604 606 605
f 604 706 709
f 604 709 707
f 606 708 607
f 607 710 608
f 607 708 711
f 607 711 710
f 608 710 712
f 608 712 609
f 609 712 630
f 610 616 713
f 610 713 705
f 611 614 714
f 611 714 612
f 612 714 613
f 613 714 615
f 615 715 616
f 615 714 715
f 616 715 713
f 618 635 619
f 619 716 620
f 619 635 634
f 619 634 717
f 619 717 718
f 619 718 719
f 619 719 720
f 619 720 716
f 620 716 621
f 621 721 622
f 621 716 721
f 622 721 722
f 622 722 723
f 622 723 724
f 622 724 725
f 622 725 623
f 623 725 624
f 624 725 726
f 624 726 625
f 625 726 626
f 626 726 627
f 627 726 628
f 628 727 629
f 628 726 724
f 628 724 727
f 629 727 641
f 630 712 728
f 630 728 631
f 631 728 637
f 631 637 632
f 633 636 729
f 633 729 730
f 633 730 717
f 633 717 634
f 636 638 729
f 637 728 710
f 637 710 638
f 638 710 731
f 638 731 732
f 638 732 733
f 638 733 729
f 640 641 734
f 640 734 735
f 640 735 736
f 640 736 643
f 641 727 737
f 641 737 735
f 641 735 734
f 642 643 738
f 642 738 739
f 642 739 740
f 642 740 741
f 642 741 644
f 643 736 738
f 644 741 648
f 646 650 742
f 646 742 647
f 647 742 652
f 648 741 649
f 649 741 743
f 649 743 744
f 649 744 745
f 649 745 650
f 650 745 742
f 651 654 653
f 651 653 746
f 651 746 747
f 651 747 748
f 651 748 749
f 651 749 655
f 652 742 653
f 653 742 745
f 653 745 746
f 655 749 656
f 656 749 657
f 657 750 661
f 657 661 659
f 657 659 658
f 657 749 751
f 657 751 750
f 659 661 660
f 661 752 662
f 661 750 753
f 661 753 752
f 662 752 754
f 663 755 756
f 663 756 757
f 663 757 758
f 663 758 664
f 663 697 759
f 663 759 760
f 663 760 755
f 664 761 665
f 664 758 762
f 664 762 761
f 665 763 764
f 665 764 666
f 665 761 763
f 666 764 765
f 666 765 668
f 666 668 667
f 668 766 672
f 668 672 669
f 668 765 766
f 670 672 767
f 670 767 678
f 670 678 671
f 672 766 768
f 672 768 767
f 673 769 674
f 673 676 769
f 674 770 771
f 674 771 679
f 674 769 770
f 675 772 773
f 675 773 769
f 675 769 676
f 675 677 774
f 675 774 772
f 677 678 775
f 677 775 774
f 678 767 859
f 678 859 775
f 680 682 681
f 680 776 682
f 682 777 684
f 682 776 778
f 682 778 779
f 682 779 777
f 683 686 687
f 684 777 780
f 684 780 685
f 685 781 782
f 685 782 686
f 685 780 781
f 686 782 687
f 687 783 688
f 687 782 783
f 688 784 785
f 688 785 689
f 688 783 784
f 689 785 786
f 689 786 692
f 689 692 691
f 689 691 690
f 692 786 698
f 693 787 788
f 693 788 791
f 693 791 694
f 693 695 789
f 693 789 790
f 693 790 787
f 694 791 696
f 695 698 789
f 696 791 792
f 696 792 697
f 697 792 793
f 697 793 759
f 698 786 785
f 698 785 784
f 698 784 794
f 698 794 789
f 700 795 796
f 700 796 701
f 701 796 797
f 701 797 702
f 702 797 704
f 702 704 703
f 704 797 798
f 704 798 799
f 704 799 813
f 704 813 714
f 705 800 801
f 705 801 709
f 705 709 706
f 705 713 802
f 705 802 800
f 707 709 803
f 707 803 711
f 707 711 708
f 709 801 803
f 710 804 805
f 710 805 806
f 710 806 807
f 710 807 808
f 710 808 809
f 710 809 732
f 710 732 731
f 710 728 712
f 710 711 803
f 710 803 810
f 710 810 804
f 713 715 811
f 713 811 812
f 713 812 802
f 714 813 715
f 715 813 811
f 716 814 815
f 716 815 816
f 716 816 722
f 716 722 721
f 716 720 817
f 716 817 818
f 716 818 814
f 717 730 718
f 718 730 819
f 718 819 820
f 718 820 821
f 718 821 719
f 719 821 720
f 720 821 817
f 722 816 822
f 722 822 723
f 723 822 823
f 723 823 724
f 724 726 725
f 724 823 824
f 724 824 737
f 724 737 727
f 729 825 819
f 729 819 730
f 729 733 826
f 729 826 827
f 729 827 828
f 729 828 825
f 732 809 733
f 733 809 826
f 735 737 736
f 736 737 738
f 737 824 829
f 737 829 830
f 737 830 738
f 738 830 829
f 738 829 831
f 738 831 832
f 738 832 833
f 738 833 834
f 738 834 835
f 738 835 836
f 738 836 739
f 739 836 837
f 739 837 740
f 740 837 744
f 740 744 743
f 740 743 741
f 744 837 838
f 744 838 745
f 745 838 839
f 745 839 840
f 745 840 841
f 745 841 746
f 746 841 842
f 746 842 747
f 747 842 748
f 748 842 843
f 748 843 749
f 749 843 751
f 750 751 844
f 750 844 753
f 751 843 845
f 751 845 846
f 751 846 844
f 752 753 847
f 752 847 754
f 753 844 847
f 754 847 848
f 755 760 849
f 755 849 756
f 756 850 757
f 756 849 850
f 757 850 851
f 757 851 758
f 758 851 762
f 759 793 760
f 760 793 852
f 760 852 849
f 761 762 763
f 762 851 850
f 762 850 853
f 762 853 763
f 763 854 855
f 763 855 764
f 763 853 850
f 763 850 856
f 763 856 854
f 764 855 857
f 764 857 766
f 764 766 765
f 766 858 768
f 766 857 858
f 767 768 860
f 767 860 859
f 768 858 954
f 768 954 860
f 769 861 770
f 769 773 862
f 769 862 863
f 769 863 861
f 770 861 864
f 770 864 771
f 772 862 773
f 772 774 865
f 772 865 862
f 774 775 865
f 775 859 958
f 775 958 866
f 775 866 865
f 776 867 778
f 777 868 780
f 777 779 869
f 777 869 868
f 778 867 779
f 779 867 870
f 779 870 871
f 779 871 872
f 779 872 869
f 780 868 873
f 780 873 874
f 780 874 875
f 780 875 781
f 781 876 782
f 781 875 876
f 782 876 877
f 782 877 783
f 783 878 879
f 783 879 880
f 783 880 794
f 783 794 784
f 783 877 881
f 783 881 878
f 787 790 882
f 787 882 883
f 787 883 884
f 787 884 885
f 787 885 886
f 787 886 887
f 787 887 788
f 788 887 888
f 788 888 791
f 789 882 790
f 789 794 880
f 789 880 889
f 789 889 890
f 789 890 882
f 791 888 852
f 791 852 792
f 792 852 793
f 795 891 796
f 796 891 797
f 797 891 892
f 797 892 798
f 798 892 893
f 798 893 894
f 798 894 799
f 799 894 895
f 799 895 906
f 799 906 813
f 800 802 812
f 800 812 801
f 801 812 896
f 801 896 897
f 801 897 898
f 801 898 899
f 801 899 900
f 801 900 810
f 801 810 803
f 804 810 900
f 804 900 805
f 805 901 806
f 805 900 901
f 806 902 808
f 806 808 807
f 806 901 902
f 808 902 903
f 808 903 904
f 808 904 809
f 809 904 905
f 809 905 827
f 809 827 826
f 811 813 906
f 811 906 812
f 812 906 907
f 812 907 908
f 812 908 896
f 814 909 910
f 814 910 815
f 814 818 909
f 815 910 911
f 815 911 912
f 815 912 816
f 816 912 822
f 817 821 820
f 817 820 819
f 817 819 913
f 817 913 818
f 818 913 914
f 818 914 915
f 818 915 916
f 818 916 909
f 819 917 913
f 819 825 917
f 822 912 823
f 823 912 824
f 824 912 829
f 825 828 918
f 825 918 917
f 827 905 828
f 828 919 918
f 828 905 920
f 828 920 919
f 829 912 921
f 829 921 831
f 831 921 832
f 832 922 923
f 832 923 833
f 832 921 924
f 832 924 922
f 833 923 834
f 834 925 926
f 834 926 927
f 834 927 928
f 834 928 835
f 834 923 929
f 834 929 925
f 835 928 836
f 836 928 838
f 836 838 837
f 838 928 839
f 839 928 930
f 839 930 840
f 840 930 926
f 840 926 931
f 840 931 932
f 840 932 933
f 840 933 841
f 841 933 842
f 842 934 843
f 842 933 934
f 843 934 845
f 844 935 847
f 844 846 936
f 844 936 935
f 845 934 937
f 845 937 846
f 846 938 939
f 846 939 940
f 846 940 936
f 846 937 938
f 847 941 848
f 847 935 942
f 847 942 941
f 849 852 943
f 849 943 850
f 850 943 944
f 850 944 945
f 850 945 856
f 852 946 947
f 852 947 943
f 852 888 946
f 854 948 855
f 854 856 949
f 854 949 950
f 854 950 948
f 855 951 952
f 855 952 858
f 855 858 857
f 855 948 951
f 856 945 953
f 856 953 949
f 858 952 955
f 858 955 956
f 858 956 954
f 859 860 957
f 859 957 958
f 860 954 957
f 861 959 960
f 861 960 864
f 861 863 961
f 861 961 962
f 861 962 959
f 862 961 863
f 862 865 963
f 862 963 961
f 865 866 963
f 866 958 1030
f 866 1030 964
f 866 964 963
f 868 869 965
f 868 965 873
f 869 872 966
f 869 966 940
f 869 940 965
f 870 967 871
f 871 967 968
f 871 968 872
f 872 936 966
f 872 968 942
f 872 942 935
f 872 935 936
f 873 965 969
f 873 969 874
f 874 970 971
f 874 971 875
f 874 969 938
f 874 938 970
f 875 971 876
f 876 972 877
f 876 971 973
f 876 973 972
f 877 972 974
f 877 974 881
f 878 975 976
f 878 976 977
f 878 977 889
f 878 889 879
f 878 881 975
f 879 889 880
f 881 974 978
f 881 978 979
f 881 979 975
f 882 890 980
f 882 980 981
f 882 981 982
f 882 982 883
f 883 982 884
f 884 982 981
f 884 981 915
f 884 915 983
f 884 983 885
f 885 983 886
f 886 984 985
f 886 985 986
f 886 986 887
f 886 983 984
f 887 986 987
f 887 987 888
f 888 987 946
f 889 977 890
f 890 975 980
f 890 977 975
f 891 988 892
f 892 988 893
f 893 988 989
f 893 989 990
f 893 990 991
f 893 991 894
f 894 991 895
f 895 991 992
f 895 992 907
f 895 907 906
f 896 908 993
f 896 993 897
f 897 993 994
f 897 994 898
f 898 994 995
f 898 995 899
f 899 995 996
f 899 996 997
f 899 997 900
f 900 997 998
f 900 998 999
f 900 999 1000
f 900 1000 902
f 900 902 901
f 902 1001 903
f 902 1000 1001
f 903 1001 1002
f 903 1002 1003
f 903 1003 920
f 903 920 904
f 904 920 905
f 907 992 1005
f 907 1005 908
f 908 1004 993
f 908 1005 1051
f 908 1051 1004
f 909 916 1006
f 909 1006 910
f 910 1006 911
f 911 1006 912
f 912 1006 924
f 912 924 921
f 913 917 914
f 914 983 915
f 914 917 918
f 914 918 985
f 914 985 983
f 915 981 1007
f 915 1007 916
f 916 1007 1008
f 916 1008 1006
f 918 1009 985
f 918 919 1010
f 918 1010 1009
f 919 920 1011
f 919 1011 987
f 919 987 1010
f 920 1003 1012
f 920 1012 1011
f 922 924 1013
f 922 1013 923
f 923 1013 1014
f 923 1014 929
f 924 1006 1013
f 925 929 1015
f 925 1015 931
f 925 931 926
f 926 930 928
f 926 928 927
f 929 1014 978
f 929 978 974
f 929 974 972
f 929 972 1015
f 931 1015 932
f 932 1015 973
f 932 973 971
f 932 971 970
f 932 970 937
f 932 937 933
f 933 937 934
f 936 940 966
f 937 970 938
f 938 969 939
f 939 969 965
f 939 965 940
f 941 942 1016
f 942 968 1016
f 943 947 944
f 944 953 945
f 944 947 1017
f 944 1017 1018
f 944 1018 1019
f 944 1019 1020
f 944 1020 949
f 944 949 953
f 946 1021 1022
f 946 1022 1017
f 946 1017 947
f 946 987 1011
f 946 1011 1021
f 948 950 1023
f 948 1023 955
f 948 955 951
f 949 1024 950
f 949 1020 1025
f 949 1025 1024
f 950 1024 1023
f 951 955 952
f 954 1026 957
f 954 956 1026
f 955 1027 1028
f 955 1028 1026
f 955 1026 956
f 955 1023 1027
f 957 1026 1029
f 957 1029 958
f 958 1029 1030
f 959 1031 1032
f 959 1032 1033
f 959 1033 960
f 959 962 1034
f 959 1034 1031
f 961 1034 962
f 961 963 1035
f 961 1035 1034
f 963 964 1036
f 963 1036 1035
f 964 1030 1056
f 964 1056 1036
f 972 973 1015
f 975 1037 980
f 975 977 976
f 975 979 1038
f 975 1038 1039
f 975 1039 1037
f 978 1014 1038
f 978 1038 979
f 980 1037 981
f 981 1037 1007
f 983 985 984
f 985 1009 986
f 986 1009 987
f 987 1009 1010
f 989 1040 990
f 990 1040 991
f 991 1040 1041
f 991 1041 1005
f 991 1005 992
f 993 1004 1042
f 993 1042 994
f 994 1042 1043
f 994 1043 1044
f 994 1044 995
f 995 1044 996
f 996 1027 997
f 996 1044 1045
f 996 1045 1027
f 997 1027 1023
f 997 1023 1024
f 997 1024 1046
f 997 1046 998
f 998 1046 1047
f 998 1047 999
f 999 1047 1000
f 1000 1047 1001
f 1001 1048 1002
f 1001 1047 1046
f 1001 1046 1049
f 1001 1049 1048
f 1002 1048 1018
f 1002 1018 1050
f 1002 1050 1003
f 1003 1011 1012
f 1003 1050 1011
f 1004 1051 1059
f 1004 1059 1042
f 1005 1041 1052
f 1005 1052 1051
f 1006 1008 1053
f 1006 1053 1039
f 1006 1039 1013
f 1007 1037 1053
f 1007 1053 1008
f 1011 1050 1021
f 1013 1039 1014
f 1014 1039 1038
f 1017 1050 1018
f 1017 1022 1050
f 1018 1048 1019
f 1019 1048 1054
f 1019 1054 1020
f 1020 1054 1025
f 1021 1050 1022
f 1024 1025 1049
f 1024 1049 1046
f 1025 1054 1048
f 1025 1048 1049
f 1026 1055 1029
f 1026 1028 1055
f 1027 1045 1055
f 1027 1055 1028
f 1029 1055 1043
f 1029 1043 1056
f 1029 1056 1030
f 1031 1057 1032
f 1031 1034 1058
f 1031 1058 1057
f 1034 1035 1058
f 1035 1036 1059
f 1035 1059 1058
f 1036 1056 1042
f 1036 1042 1059
f 1037 1039 1053
f 1040 1057 1060
f 1040 1060 1041
f 1041 1060 1052
f 1042 1056 1043
f 1043 1055 1044
f 1044 1055 1045
f 1051 1052 1059
f 1052 1058 1059
f 1052 1060 1058
f 1057 1058 1060

