# https://github.com/mikedh/trimesh
v 0.05776344 0.01003850 0.00662960
v 0.05625934 0.01043354 0.00759730
v 0.05625934 0.00774115 0.00760109
v 0.05776344 0.00703948 0.00662960
v 0.05776344 0.01003850 0.00652854
v 0.05747509 0.01013778 0.00662960
v 0.05709517 0.01024119 0.00662960
v 0.05693930 0.01028307 0.00662960
v 0.05621843 0.01044388 0.00683932
v 0.05621843 0.01044233 0.00760109
v 0.05625934 0.00756431 0.00760109
v 0.05776344 0.00781405 0.00307211
v 0.04955519 0.00641486 0.00760109
v 0.04781242 0.00567544 0.00059728
v 0.04781242 0.00534969 -0.00530493
v 0.05776344 0.01003385 0.00310875
v 0.05746827 0.01013778 0.00307211
v 0.05747022 0.01013778 0.00396022
v 0.05693930 0.01028307 0.00307211
v 0.05549755 0.01055661 0.00683932
v 0.05621843 0.01044388 0.00323887
v 0.05549853 0.01055661 0.00662960
v 0.05549755 0.01055402 0.00760109
v 0.05776344 0.01003333 0.00307211
v 0.05327062 0.00826132 -0.00530493
v 0.04928632 0.00641486 0.00760109
v 0.04781242 0.00891800 0.00059728
v 0.04794880 0.00632540 0.00662960
v 0.04794880 0.00696450 0.00760109
v 0.04781242 0.00892111 -0.00530493
v 0.05327062 0.01057367 -0.00530493
v 0.05504457 0.01058970 0.00059728
v 0.05621843 0.01044337 0.00307211
v 0.05477862 0.01061607 0.00683932
v 0.05545761 0.01055764 0.00760109
v 0.05549853 0.01055661 0.00396022
v 0.05566608 0.01053023 0.00307211
v 0.04794880 0.00864240 0.00760109
v 0.04930093 0.00940612 0.00760109
v 0.04974125 0.00961812 0.00760109
v 0.05041926 0.00990716 0.00760109
v 0.05046213 0.00992423 0.00760109
v 0.05084108 0.01007263 0.00755940
v 0.05084108 0.01007314 0.00683932
v 0.04781242 0.00891955 -0.00179923
v 0.05046115 0.00991544 -0.00323814
v 0.05046115 0.00991130 -0.00530493
v 0.04781242 0.00892059 -0.00395823
v 0.05084108 0.01007314 0.00662960
v 0.05084205 0.01007263 0.00539914
v 0.05324335 0.01057005 -0.00530493
v 0.05327062 0.01057574 -0.00461010
v 0.05405872 0.01062486 0.00059728
v 0.05454093 0.01061452 0.00059728
v 0.05477960 0.01060935 0.00059728
v 0.05504457 0.01059021 0.00081457
v 0.05549853 0.01055609 0.00307211
v 0.05405872 0.01063210 0.00683932
v 0.05477862 0.01061348 0.00760109
v 0.05477862 0.01061607 0.00662960
v 0.05426816 0.01062744 0.00662960
v 0.05477960 0.01061555 0.00539914
v 0.05084205 0.01007263 0.00760109
v 0.05120151 0.01018586 0.00755940
v 0.05120054 0.01018586 0.00683932
v 0.05085764 0.01006694 0.00035978
v 0.05087322 0.01006073 -0.00467832
v 0.05082062 0.01004005 -0.00530493
v 0.05120054 0.01018586 0.00662960
v 0.05120444 0.01018535 0.00468031
v 0.05120931 0.01018535 0.00307211
v 0.05123366 0.01018535 -0.00467832
v 0.05123561 0.01018483 -0.00530493
v 0.05261989 0.01048370 -0.00530493
v 0.05261989 0.01048577 -0.00467832
v 0.05327062 0.01057729 -0.00389001
v 0.05333882 0.01059228 0.00059728
v 0.05261989 0.01049559 -0.00108040
v 0.05261989 0.01049921 0.00035978
v 0.05261989 0.01049973 0.00059728
v 0.05405872 0.01062744 0.00251878
v 0.05504457 0.01059228 0.00297357
v 0.05354826 0.01060469 0.00662960
v 0.05333882 0.01059332 0.00683932
v 0.05333882 0.01059073 0.00760109
v 0.05405872 0.01062900 0.00755940
v 0.05333882 0.01059280 0.00107986
v 0.05333882 0.01059332 0.00179869
v 0.05333882 0.01059383 0.00307085
v 0.05405872 0.01062848 0.00760109
v 0.05120151 0.01018535 0.00760109
v 0.05190096 0.01036891 0.00755940
v 0.05186102 0.01035805 0.00760109
v 0.05189999 0.01036891 0.00307085
v 0.05087615 0.01005970 -0.00530493
v 0.05137004 0.01022826 0.00307085
v 0.05189999 0.01036736 0.00107986
v 0.05189999 0.01036684 0.00059728
v 0.05181231 0.01033582 -0.00530493
v 0.05189999 0.01035805 -0.00530493
v 0.05327062 0.01057936 -0.00251932
v 0.05261989 0.01050076 0.00107986
v 0.05327062 0.01058349 0.00035978
v 0.05189999 0.01035960 -0.00467832
v 0.05261989 0.01050335 0.00683932
v 0.05261989 0.01050180 0.00760109
v 0.05401683 0.01062641 0.00760109
v 0.05261989 0.01050283 0.00251878
v 0.05278744 0.01052455 0.00307085
v 0.05190096 0.01036839 0.00760109
v 0.05210943 0.01040821 0.00662960
v 0.05261989 0.01050335 0.00662960
v 0.05262184 0.01050335 0.00396022
f 1 2 3
f 1 3 11
f 1 11 4
f 1 4 12
f 1 12 24
f 1 24 16
f 1 16 5
f 1 5 6
f 1 6 2
f 2 6 7
f 2 7 8
f 2 8 9
f 2 9 10
f 2 10 3
f 3 10 23
f 3 23 35
f 3 35 59
f 3 59 90
f 3 90 107
f 3 107 85
f 3 85 106
f 3 106 110
f 3 110 93
f 3 93 91
f 3 91 63
f 3 63 42
f 3 42 41
f 3 41 40
f 3 40 39
f 3 39 38
f 3 38 29
f 3 29 26
f 3 26 13
f 3 13 11
f 4 11 13
f 4 13 14
f 4 14 15
f 4 15 12
f 5 16 17
f 5 17 18
f 5 18 6
f 6 18 19
f 6 19 7
f 7 19 8
f 8 19 21
f 8 21 9
f 9 20 10
f 9 21 36
f 9 36 22
f 9 22 20
f 10 20 23
f 12 15 25
f 12 25 31
f 12 31 24
f 13 26 14
f 14 27 45
f 14 45 48
f 14 48 30
f 14 30 15
f 14 26 28
f 14 28 29
f 14 29 38
f 14 38 27
f 15 30 47
f 15 47 68
f 15 68 95
f 15 95 73
f 15 73 99
f 15 99 100
f 15 100 74
f 15 74 51
f 15 51 31
f 15 31 25
f 16 24 17
f 17 24 31
f 17 31 19
f 17 19 18
f 19 31 32
f 19 32 33
f 19 33 21
f 20 34 35
f 20 35 23
f 20 22 34
f 21 33 37
f 21 37 36
f 22 36 60
f 22 60 34
f 26 29 28
f 27 38 39
f 27 39 40
f 27 40 41
f 27 41 42
f 27 42 43
f 27 43 44
f 27 44 45
f 30 46 47
f 30 48 44
f 30 44 49
f 30 49 50
f 30 50 46
f 31 51 52
f 31 52 53
f 31 53 54
f 31 54 55
f 31 55 32
f 32 55 56
f 32 56 57
f 32 57 37
f 32 37 33
f 34 58 59
f 34 59 35
f 34 60 61
f 34 61 58
f 36 62 60
f 36 37 57
f 36 57 62
f 42 63 43
f 43 63 64
f 43 64 44
f 44 64 65
f 44 65 69
f 44 69 49
f 44 48 45
f 46 50 47
f 47 66 67
f 47 67 68
f 47 50 66
f 49 69 50
f 50 69 70
f 50 70 71
f 50 71 72
f 50 72 73
f 50 73 66
f 51 74 75
f 51 75 52
f 52 76 77
f 52 77 53
f 52 75 78
f 52 78 79
f 52 79 80
f 52 80 76
f 53 77 81
f 53 81 54
f 54 81 62
f 54 62 55
f 55 62 56
f 56 82 57
f 56 62 82
f 57 82 62
f 58 83 84
f 58 84 85
f 58 85 86
f 58 86 59
f 58 61 62
f 58 62 81
f 58 81 77
f 58 77 87
f 58 87 88
f 58 88 89
f 58 89 83
f 59 86 90
f 60 62 61
f 63 91 64
f 64 92 65
f 64 91 93
f 64 93 92
f 65 92 94
f 65 94 69
f 66 73 67
f 67 73 95
f 67 95 68
f 69 94 96
f 69 96 70
f 70 96 71
f 71 96 72
f 72 96 97
f 72 97 98
f 72 98 99
f 72 99 73
f 74 100 75
f 75 100 78
f 76 101 77
f 76 80 102
f 76 102 101
f 77 101 103
f 77 103 87
f 78 100 79
f 79 100 104
f 79 104 80
f 80 104 102
f 83 89 84
f 84 105 106
f 84 106 85
f 84 89 105
f 85 107 86
f 86 107 90
f 87 103 108
f 87 108 109
f 87 109 88
f 88 109 89
f 89 109 105
f 92 93 110
f 92 110 106
f 92 106 105
f 92 105 111
f 92 111 94
f 94 108 97
f 94 97 96
f 94 111 112
f 94 112 108
f 97 108 98
f 98 104 99
f 98 108 104
f 99 104 100
f 101 102 108
f 101 108 103
f 102 104 108
f 105 109 112
f 105 112 111
f 108 112 113
f 108 113 109
f 109 113 112

