# https://github.com/mikedh/trimesh
v 0.04781145 -0.00057271 -0.00672084
v 0.04957575 -0.00057271 -0.00672084
v 0.04781145 -0.00057271 -0.00631544
v 0.04781145 0.00892113 -0.00672084
v 0.04946031 -0.00057271 -0.00639957
v 0.05327166 0.00460961 -0.00672084
v 0.04830049 -0.00057271 -0.00614358
v 0.04781145 0.00534839 -0.00530493
v 0.04781145 0.00892113 -0.00530493
v 0.05046031 0.00991198 -0.00530493
v 0.05046031 0.00990870 -0.00672084
v 0.04902043 -0.00057271 -0.00621163
v 0.05327166 0.00479294 -0.00638252
v 0.05327166 0.00480276 -0.00636533
v 0.05327166 0.00482786 -0.00632375
v 0.05327166 0.00533529 -0.00615203
v 0.05327166 0.01056236 -0.00672084
v 0.05327166 0.00826201 -0.00530493
v 0.05082001 0.01004074 -0.00530493
v 0.05087774 0.01005930 -0.00611988
v 0.05087988 0.01005820 -0.00672084
v 0.05327166 0.00539967 -0.00613263
v 0.05261960 0.01047724 -0.00672084
v 0.05327166 0.01056345 -0.00666373
v 0.05327166 0.01057436 -0.00530493
v 0.05092210 0.01007676 -0.00530493
v 0.05123958 0.01018479 -0.00672084
v 0.05261960 0.01048161 -0.00611988
v 0.05327166 0.01057218 -0.00611988
v 0.05189966 0.01035611 -0.00672084
v 0.05261960 0.01048379 -0.00540000
v 0.05261960 0.01048379 -0.00530493
v 0.05123477 0.01018588 -0.00530493
v 0.05123530 0.01018588 -0.00540000
v 0.05189966 0.01035721 -0.00611988
v 0.05252446 0.01046742 -0.00530493
v 0.05189966 0.01035830 -0.00530493
v 0.05189966 0.01035830 -0.00540000
f 1 2 5
f 1 5 12
f 1 12 7
f 1 7 3
f 1 3 8
f 1 8 9
f 1 9 4
f 1 4 11
f 1 11 21
f 1 21 27
f 1 27 30
f 1 30 23
f 1 23 17
f 1 17 6
f 1 6 2
f 2 6 5
f 3 7 8
f 4 9 10
f 4 10 11
f 5 6 13
f 5 13 14
f 5 14 15
f 5 15 16
f 5 16 12
f 6 17 24
f 6 24 29
f 6 29 25
f 6 25 18
f 6 18 22
f 6 22 16
f 6 16 15
f 6 15 14
f 6 14 13
f 7 12 18
f 7 18 8
f 8 18 25
f 8 25 32
f 8 32 36
f 8 36 37
f 8 37 33
f 8 33 26
f 8 26 19
f 8 19 10
f 8 10 9
f 10 19 11
f 11 19 20
f 11 20 21
f 12 16 22
f 12 22 18
f 17 23 24
f 19 26 20
f 20 26 27
f 20 27 21
f 23 28 29
f 23 29 24
f 23 30 28
f 25 29 31
f 25 31 32
f 26 33 27
f 27 33 34
f 27 34 35
f 27 35 30
f 28 31 29
f 28 30 31
f 30 35 36
f 30 36 31
f 31 36 32
f 33 37 38
f 33 38 34
f 34 38 35
f 35 38 36
f 36 38 37

