# https://github.com/mikedh/trimesh
v 0.06334324 -0.00548071 0.00699499
v 0.06334324 -0.00548071 0.00663037
v 0.05982546 -0.00548071 0.00699499
v 0.06332138 -0.00548480 0.00886577
v 0.06334324 -0.00548480 0.00827942
v 0.06312320 -0.00584993 0.00699499
v 0.06320043 -0.00571928 0.00663037
v 0.05753759 -0.01010029 0.00307595
v 0.05753322 -0.01010262 0.00307254
v 0.05753759 -0.00942135 0.00307254
v 0.05753759 -0.00792407 0.00307254
v 0.04845897 -0.00630081 0.00307254
v 0.05990706 -0.00548071 0.00663037
v 0.05982691 -0.00548071 0.00683962
v 0.05405186 -0.00548480 0.00886577
v 0.06315963 -0.00575252 0.00886577
v 0.06312028 -0.00585285 0.00827942
v 0.06312174 -0.00584993 0.00663037
v 0.06286381 -0.00621273 0.00827942
v 0.06304596 -0.00595434 0.00663037
v 0.06285506 -0.00620981 0.00663037
v 0.06260005 -0.00654928 0.00663037
v 0.06249513 -0.00668869 0.00663037
v 0.06220659 -0.00704857 0.00663037
v 0.06184665 -0.00741895 0.00663037
v 0.06173590 -0.00752336 0.00663037
v 0.06146486 -0.00777883 0.00663037
v 0.06110492 -0.00810955 0.00663037
v 0.06066191 -0.00846710 0.00663037
v 0.06040690 -0.00864617 0.00663037
v 0.06030198 -0.00871908 0.00663037
v 0.05981817 -0.00902939 0.00663037
v 0.05936497 -0.00930994 0.00663037
v 0.05744870 -0.01013412 0.00307254
v 0.05911141 -0.00943826 0.00663037
v 0.05900649 -0.00949076 0.00663037
v 0.05837842 -0.00976957 0.00663037
v 0.05837842 -0.00978123 0.00827942
v 0.05781738 -0.01000405 0.00827942
v 0.04845897 -0.01109303 0.00307254
v 0.04845897 -0.00630081 0.00468077
v 0.04845897 -0.00630197 0.00540038
v 0.04845897 -0.00634455 0.00578769
v 0.04845897 -0.00638655 0.00611943
v 0.04845897 -0.00670210 0.00662753
v 0.05058509 -0.00840411 0.00886577
v 0.06310717 -0.00583651 0.00886577
v 0.06306054 -0.00590418 0.00886577
v 0.06285361 -0.00619640 0.00886577
v 0.06249513 -0.00667410 0.00886577
v 0.06250387 -0.00668927 0.00827942
v 0.06220659 -0.00704857 0.00683962
v 0.06184520 -0.00742770 0.00827942
v 0.06147214 -0.00778758 0.00827942
v 0.06111366 -0.00810664 0.00827942
v 0.06030780 -0.00872725 0.00827942
v 0.06066774 -0.00846477 0.00827942
v 0.05981817 -0.00903814 0.00827942
v 0.05936643 -0.00930994 0.00699499
v 0.05900940 -0.00949659 0.00827942
v 0.05694012 -0.01027585 0.00827942
v 0.05693866 -0.01026827 0.00307254
v 0.05745744 -0.01013645 0.00827942
v 0.05837842 -0.00976548 0.00886577
v 0.05827350 -0.00980748 0.00886577
v 0.05778678 -0.00999821 0.00886577
v 0.04845897 -0.01139692 0.00396002
v 0.04974134 -0.01126101 0.00307254
v 0.04845897 -0.00748545 0.00663037
v 0.05058509 -0.01116652 0.00886577
v 0.06218911 -0.00703340 0.00886577
v 0.06220514 -0.00704915 0.00827942
v 0.06183062 -0.00741837 0.00886577
v 0.06146340 -0.00777825 0.00886577
v 0.06110346 -0.00809147 0.00886577
v 0.06036027 -0.00867242 0.00886577
v 0.06029323 -0.00872083 0.00886577
v 0.06020288 -0.00877974 0.00886577
v 0.06101894 -0.00815913 0.00886577
v 0.06065463 -0.00845019 0.00886577
v 0.05981817 -0.00902064 0.00886577
v 0.05936934 -0.00931053 0.00827942
v 0.05905604 -0.00945226 0.00886577
v 0.05898754 -0.00948726 0.00886577
v 0.05694012 -0.01025777 0.00886577
v 0.05622170 -0.01041467 0.00886577
v 0.05622170 -0.01042926 0.00827942
v 0.05621878 -0.01042401 0.00307254
v 0.05742684 -0.01012304 0.00886577
v 0.04845897 -0.01143833 0.00468077
v 0.05046122 -0.01119219 0.00307254
v 0.04845897 -0.01143833 0.00663037
v 0.05058509 -0.01117352 0.00827942
v 0.05118255 -0.01110294 0.00827942
v 0.05331742 -0.01084047 0.00827942
v 0.05478194 -0.01065790 0.00827942
v 0.05478194 -0.01063515 0.00886577
v 0.06189766 -0.00734779 0.00886577
v 0.05973365 -0.00907138 0.00886577
v 0.05934748 -0.00929828 0.00886577
v 0.05608618 -0.01043801 0.00886577
v 0.05550182 -0.01055699 0.00827942
v 0.05550036 -0.01055874 0.00663037
v 0.05550036 -0.01055874 0.00307254
v 0.05058509 -0.01117702 0.00699499
v 0.05245327 -0.01094721 0.00307254
v 0.05325913 -0.01084805 0.00683962
v 0.05478194 -0.01066024 0.00683962
v 0.05536776 -0.01055408 0.00886577
v 0.05550182 -0.01053541 0.00886577
v 0.05529052 -0.01058849 0.00663037
v 0.05478194 -0.01066024 0.00663037
v 0.05478049 -0.01066024 0.00307254
v 0.05325913 -0.01084805 0.00663037
f 1 2 13
f 1 13 14
f 1 14 3
f 1 3 15
f 1 15 4
f 1 4 5
f 1 5 2
f 2 5 6
f 2 6 7
f 2 7 8
f 2 8 9
f 2 9 10
f 2 10 11
f 2 11 12
f 2 12 13
f 3 14 15
f 4 16 5
f 4 15 46
f 4 46 70
f 4 70 97
f 4 97 109
f 4 109 110
f 4 110 101
f 4 101 86
f 4 86 85
f 4 85 89
f 4 89 66
f 4 66 65
f 4 65 64
f 4 64 84
f 4 84 83
f 4 83 100
f 4 100 99
f 4 99 81
f 4 81 78
f 4 78 77
f 4 77 76
f 4 76 80
f 4 80 79
f 4 79 75
f 4 75 74
f 4 74 73
f 4 73 98
f 4 98 71
f 4 71 50
f 4 50 49
f 4 49 48
f 4 48 47
f 4 47 16
f 5 16 17
f 5 17 6
f 6 18 7
f 6 17 19
f 6 19 20
f 6 20 18
f 7 18 8
f 8 18 20
f 8 20 21
f 8 21 22
f 8 22 23
f 8 23 24
f 8 24 25
f 8 25 26
f 8 26 27
f 8 27 28
f 8 28 29
f 8 29 30
f 8 30 31
f 8 31 32
f 8 32 33
f 8 33 9
f 9 34 62
f 9 62 88
f 9 88 104
f 9 104 113
f 9 113 106
f 9 106 91
f 9 91 68
f 9 68 40
f 9 40 12
f 9 12 11
f 9 11 10
f 9 33 35
f 9 35 36
f 9 36 37
f 9 37 38
f 9 38 39
f 9 39 34
f 12 40 67
f 12 67 90
f 12 90 92
f 12 92 69
f 12 69 45
f 12 45 44
f 12 44 43
f 12 43 42
f 12 42 41
f 12 41 15
f 12 15 13
f 13 15 14
f 15 41 42
f 15 42 43
f 15 43 44
f 15 44 45
f 15 45 46
f 16 47 17
f 17 47 48
f 17 48 49
f 17 49 19
f 19 21 20
f 19 49 50
f 19 50 51
f 19 51 23
f 19 23 22
f 19 22 21
f 23 51 24
f 24 51 52
f 24 52 53
f 24 53 25
f 25 53 54
f 25 54 26
f 26 54 27
f 27 54 28
f 28 54 55
f 28 55 29
f 29 56 30
f 29 55 57
f 29 57 56
f 30 56 31
f 31 56 32
f 32 56 58
f 32 58 33
f 33 59 60
f 33 60 35
f 33 58 59
f 34 61 62
f 34 39 63
f 34 63 61
f 35 60 36
f 36 60 38
f 36 38 37
f 38 60 64
f 38 64 65
f 38 65 39
f 39 65 66
f 39 66 63
f 40 68 67
f 45 69 46
f 46 69 92
f 46 92 70
f 50 71 72
f 50 72 51
f 51 72 52
f 52 72 53
f 53 72 73
f 53 73 74
f 53 74 54
f 54 74 55
f 55 74 75
f 55 75 57
f 56 57 76
f 56 76 77
f 56 77 78
f 56 78 58
f 57 75 79
f 57 79 80
f 57 80 76
f 58 78 81
f 58 81 82
f 58 82 59
f 59 82 60
f 60 82 83
f 60 83 84
f 60 84 64
f 61 63 85
f 61 85 86
f 61 86 87
f 61 87 88
f 61 88 62
f 63 66 89
f 63 89 85
f 67 68 90
f 68 91 90
f 70 92 93
f 70 93 94
f 70 94 95
f 70 95 96
f 70 96 97
f 71 98 72
f 72 98 73
f 81 99 82
f 82 99 100
f 82 100 83
f 86 101 102
f 86 102 87
f 87 102 103
f 87 103 104
f 87 104 88
f 90 91 105
f 90 105 92
f 91 106 105
f 92 105 94
f 92 94 93
f 94 105 95
f 95 105 107
f 95 107 108
f 95 108 96
f 96 109 97
f 96 108 102
f 96 102 110
f 96 110 109
f 101 110 102
f 102 108 111
f 102 111 103
f 103 111 104
f 104 111 112
f 104 112 113
f 105 106 107
f 106 113 114
f 106 114 107
f 107 114 112
f 107 112 108
f 108 112 111
f 112 114 113

