# https://github.com/mikedh/trimesh
v 0.01127741 -0.00430001 0.00513681
v 0.01118668 -0.00430001 0.00533518
v 0.01120460 -0.00447798 0.00513681
v 0.00950525 -0.00430001 0.00513681
v 0.01115419 -0.00430001 0.00540535
v 0.01112283 -0.00430001 0.00547239
v 0.01114971 -0.00460679 0.00513681
v 0.00648741 -0.00430001 0.00870397
v 0.00473093 -0.00904466 0.00513681
v -0.00016437 -0.00915765 0.00690725
v -0.00016437 -0.00903844 0.00697312
v -0.00016437 -0.00891810 0.00709190
v -0.00016437 -0.00852206 0.00749100
v -0.00016437 -0.00841923 0.00761959
v -0.00016437 -0.00829042 0.00780777
v -0.00016437 -0.00787177 0.00850089
v -0.00016437 -0.00779550 0.00862909
v -0.00016437 -0.00773392 0.00875807
v 0.01106906 -0.00430001 0.00558569
v 0.01086966 -0.00479380 0.00556335
v 0.01090215 -0.00515990 0.00515994
v 0.01092231 -0.00513674 0.00513681
v 0.00646837 -0.00430001 0.00874278
v 0.00465699 -0.00912771 0.00513681
v 0.00461891 -0.00917969 0.00513681
v -0.00016437 -0.00941528 0.00683943
v -0.00016437 -0.00772884 0.00881844
v 0.00641684 -0.00430001 0.00890783
v 0.01096376 -0.00430001 0.00579622
v 0.01093127 -0.00445538 0.00573231
v 0.01089430 -0.00462713 0.00566057
v 0.01064898 -0.00517007 0.00568605
v 0.01077556 -0.00503052 0.00554649
v 0.01090551 -0.00517516 0.00513681
v 0.01089094 -0.00520679 0.00513681
v 0.00453265 -0.00941528 0.00513681
v -0.00016437 -0.00956726 0.00683943
v -0.00016437 -0.00772601 0.00889881
v 0.00644260 -0.00430001 0.00902466
v -0.00016437 -0.00773053 0.00903877
v 0.01095479 -0.00430001 0.00581307
v 0.01088646 -0.00434860 0.00590442
v 0.01068034 -0.00503052 0.00574329
v 0.01061089 -0.00503052 0.00587227
v 0.01043054 -0.00524182 0.00600439
v 0.01051679 -0.00529211 0.00580798
v 0.01043166 -0.00550002 0.00575740
v 0.01038461 -0.00567177 0.00567155
v 0.01060305 -0.00534182 0.00559353
v 0.01064562 -0.00542092 0.00542143
v 0.01073299 -0.00551753 0.00513681
v 0.01080805 -0.00537459 0.00513681
v 0.01084165 -0.00530962 0.00513681
v 0.00453265 -0.00967291 0.00513681
v -0.00016437 -0.00967291 0.00684022
v 0.00646165 -0.00430001 0.00906308
v -0.00016437 -0.00786782 0.00909562
v 0.00660279 -0.00430001 0.00911051
v 0.01089654 -0.00430001 0.00592206
v 0.01081477 -0.00430001 0.00605927
v 0.01064002 -0.00489380 0.00592755
v 0.01048095 -0.00504408 0.00607927
v 0.01037565 -0.00513956 0.00617610
v 0.01014041 -0.00492544 0.00672692
v 0.01009448 -0.00509719 0.00665478
v 0.01004407 -0.00528646 0.00657285
v 0.01034428 -0.00531244 0.00607927
v 0.01038349 -0.00541357 0.00592951
v 0.01011688 -0.00591301 0.00591383
v 0.01016393 -0.00599945 0.00574172
v 0.01011688 -0.00617177 0.00565312
v 0.01021658 -0.00607629 0.00555903
v 0.01051567 -0.00554691 0.00554649
v 0.01037341 -0.00616838 0.00513681
v 0.00457074 -0.00981528 0.00513681
v -0.00016437 -0.00982488 0.00686648
v 0.00460322 -0.00993110 0.00513681
v -0.00016437 -0.00812488 0.00914148
v 0.00686044 -0.00430001 0.00914148
v 0.00664648 -0.00430001 0.00911953
v 0.01068034 -0.00430001 0.00628117
v 0.01062545 -0.00460001 0.00616042
v 0.01045406 -0.00476781 0.00632468
v 0.01036445 -0.00485086 0.00641329
v 0.01017401 -0.00477290 0.00678219
v 0.01012472 -0.00463561 0.00695940
v 0.01009336 -0.00477290 0.00691117
v 0.00991412 -0.00498307 0.00702330
v 0.00986707 -0.00515538 0.00696175
v 0.00960047 -0.00565482 0.00694763
v 0.00960831 -0.00592657 0.00670104
v 0.01007095 -0.00581810 0.00607064
v 0.00989060 -0.00596781 0.00622236
v 0.00994213 -0.00605708 0.00606006
v 0.00989620 -0.00622996 0.00597263
v 0.01007767 -0.00607629 0.00581856
v 0.01015049 -0.00648137 0.00520189
v 0.01028043 -0.00632657 0.00513681
v 0.00994101 -0.00631810 0.00579739
v 0.00988836 -0.00647516 0.00570683
v 0.01006647 -0.00632544 0.00555903
v -0.00016437 -0.00993110 0.00688804
v 0.00468612 -0.01005483 0.00513681
v -0.00016437 -0.00889889 0.00914148
v 0.00793584 -0.00430001 0.00914148
v 0.01040365 -0.00430001 0.00673593
v 0.01033532 -0.00430001 0.00684727
v 0.01032524 -0.00430001 0.00686335
v 0.01016057 -0.00446329 0.00701036
v 0.01009784 -0.00431301 0.00718168
v 0.01006647 -0.00453561 0.00709543
v 0.00988836 -0.00468306 0.00724637
v 0.00995669 -0.00477064 0.00710327
v 0.00984803 -0.00485538 0.00719462
v 0.00981330 -0.00505369 0.00710327
v 0.00964751 -0.00548250 0.00701232
v 0.00953885 -0.00555990 0.00709661
v 0.00936186 -0.00568759 0.00723147
v 0.00941675 -0.00578589 0.00708681
v 0.00937866 -0.00596894 0.00699546
v 0.00956574 -0.00582601 0.00685158
v 0.00943131 -0.00605764 0.00683120
v 0.00966656 -0.00627007 0.00627098
v 0.00966544 -0.00652601 0.00601145
v 0.00960607 -0.00669776 0.00592284
v 0.00983683 -0.00640171 0.00587854
v 0.01016281 -0.00651301 0.00513681
v 0.00992084 -0.00656838 0.00552493
v 0.00982899 -0.00664748 0.00559628
v 0.00955902 -0.00684917 0.00582405
v 0.00965648 -0.00677121 0.00575074
v 0.00959710 -0.00694352 0.00564646
v -0.00016437 -0.01001302 0.00692254
v 0.00469732 -0.01006782 0.00513681
v -0.00016437 -0.00915709 0.00910071
v -0.00006019 -0.00915709 0.00910189
v 0.00174670 -0.00889889 0.00914148
v 0.00793584 -0.00451470 0.00914148
v 0.00814980 -0.00430001 0.00913874
v 0.01018409 -0.00430001 0.00707230
v 0.01010008 -0.00430001 0.00718521
v 0.00975505 -0.00430001 0.00763841
v 0.00968672 -0.00450284 0.00761410
v 0.00992532 -0.00451470 0.00729459
v 0.00958478 -0.00458137 0.00770309
v 0.00934506 -0.00462487 0.00798458
v 0.00960719 -0.00489210 0.00747414
v 0.00967216 -0.00503052 0.00729733
v 0.00962847 -0.00518928 0.00724284
v 0.00940107 -0.00554691 0.00728048
v 0.00903364 -0.00528872 0.00791754
v 0.00915574 -0.00552431 0.00760116
v 0.00885889 -0.00544973 0.00801947
v 0.00911990 -0.00571132 0.00750943
v 0.00906165 -0.00588363 0.00743964
v 0.00913446 -0.00598928 0.00726754
v 0.00907509 -0.00616103 0.00719776
v 0.00889922 -0.00655765 0.00708171
v 0.00885665 -0.00673109 0.00698762
v 0.00908741 -0.00643618 0.00695234
v 0.00931817 -0.00614070 0.00691353
v 0.00937754 -0.00622544 0.00674142
v 0.00931817 -0.00639719 0.00665400
v 0.00942683 -0.00682883 0.00605418
v 0.00937418 -0.00699380 0.00596283
v 0.00941451 -0.00708533 0.00578994
v 0.00975841 -0.00709663 0.00513681
v 0.00958254 -0.00718081 0.00536105
v 0.00936522 -0.00723618 0.00569429
v 0.00953997 -0.00709437 0.00555511
v -0.00016437 -0.01007065 0.00694999
v 0.00481382 -0.01006782 0.00513681
v 0.00071387 -0.01007178 0.00694607
v 0.00045622 -0.01007178 0.00694763
v -0.00016437 -0.00930002 0.00904426
v -0.00006019 -0.00930059 0.00904504
v 0.00019857 -0.00915709 0.00910032
v 0.00200435 -0.00889889 0.00913835
v 0.00303494 -0.00864127 0.00914109
v 0.00277729 -0.00864127 0.00914148
v 0.00767819 -0.00503052 0.00914148
v 0.00819349 -0.00430001 0.00913364
v 0.00793584 -0.00477290 0.00913482
v 0.00954445 -0.00430001 0.00791362
v 0.00948508 -0.00451696 0.00786814
v 0.00924088 -0.00454578 0.00814178
v 0.00909301 -0.00463900 0.00825156
v 0.00917591 -0.00477290 0.00808376
v 0.00912550 -0.00495482 0.00802927
v 0.00907733 -0.00512657 0.00797321
v 0.00930473 -0.00477290 0.00793440
v 0.00938427 -0.00445256 0.00803241
v 0.00922296 -0.00502487 0.00786344
v 0.00890482 -0.00528872 0.00806926
v 0.00878384 -0.00528872 0.00819824
v 0.00860460 -0.00545425 0.00827821
v 0.00870430 -0.00553787 0.00812022
v 0.00863037 -0.00574804 0.00804887
v 0.00880288 -0.00562205 0.00795439
v 0.00896867 -0.00580680 0.00761096
v 0.00889025 -0.00600736 0.00754040
v 0.00889137 -0.00632092 0.00728440
v 0.00864045 -0.00629889 0.00759646
v 0.00859900 -0.00647403 0.00750159
v 0.00878271 -0.00662940 0.00715855
v 0.00835256 -0.00648702 0.00777288
v 0.00861020 -0.00674352 0.00725617
v 0.00869870 -0.00682318 0.00708250
v 0.00861468 -0.00700623 0.00700526
v 0.00878719 -0.00690284 0.00689628
v 0.00908517 -0.00694974 0.00643328
v 0.00904372 -0.00659606 0.00685433
v 0.00931033 -0.00716556 0.00586639
v 0.00969232 -0.00719098 0.00513681
v 0.00964191 -0.00726273 0.00513681
v 0.00921623 -0.00734013 0.00579112
v 0.00912214 -0.00751132 0.00571585
v 0.00904932 -0.00768364 0.00559432
v 0.00915798 -0.00760228 0.00552375
v 0.00930025 -0.00741527 0.00554649
v 0.00941003 -0.00756047 0.00513681
v 0.00947388 -0.00748194 0.00513681
v 0.00953885 -0.00739946 0.00513681
v 0.00961055 -0.00730567 0.00513681
v -0.00016437 -0.01007065 0.00702447
v 0.00488104 -0.01006217 0.00513681
v 0.00477126 -0.01006782 0.00521208
v 0.00071387 -0.01007178 0.00701977
v 0.00045622 -0.01007178 0.00702369
v -0.00016437 -0.00938647 0.00889881
v -0.00006019 -0.00938816 0.00889881
v 0.00019857 -0.00938647 0.00889881
v 0.00019857 -0.00929946 0.00904387
v 0.00045622 -0.00915709 0.00909601
v 0.00071387 -0.00915709 0.00909130
v 0.00174670 -0.00910963 0.00908464
v 0.00200435 -0.00909607 0.00908189
v 0.00226199 -0.00889889 0.00912776
v 0.00329370 -0.00864127 0.00912815
v 0.00380900 -0.00838307 0.00913992
v 0.00432541 -0.00812488 0.00914109
v 0.00355135 -0.00838307 0.00914148
v 0.00742054 -0.00554691 0.00913364
v 0.00690413 -0.00606216 0.00914148
v 0.00716178 -0.00580454 0.00913952
v 0.00819349 -0.00451470 0.00911012
v 0.00839624 -0.00430001 0.00908268
v 0.00795152 -0.00504295 0.00909091
v 0.00767819 -0.00528872 0.00912031
v 0.00951757 -0.00430001 0.00794733
v 0.00913782 -0.00446668 0.00829742
v 0.00888353 -0.00446894 0.00855852
v 0.00873231 -0.00455595 0.00866398
v 0.00887457 -0.00496668 0.00829037
v 0.00882640 -0.00513843 0.00824215
v 0.00905605 -0.00477290 0.00821274
v 0.00941787 -0.00430001 0.00807004
v 0.00930361 -0.00430001 0.00819981
v 0.00856988 -0.00514013 0.00850128
v 0.00831223 -0.00514239 0.00876042
v 0.00854635 -0.00562657 0.00822098
v 0.00834359 -0.00544747 0.00853186
v 0.00833911 -0.00621584 0.00801476
v 0.00857100 -0.00592036 0.00798536
v 0.00843209 -0.00629324 0.00784423
v 0.00827526 -0.00638759 0.00794498
v 0.00819237 -0.00657685 0.00786579
v 0.00828086 -0.00665934 0.00769329
v 0.00803106 -0.00666725 0.00795870
v 0.00853739 -0.00691584 0.00717619
v 0.00845449 -0.00709719 0.00709779
v 0.00836936 -0.00727799 0.00701899
v 0.00829655 -0.00744974 0.00693039
v 0.00854187 -0.00717799 0.00691314
v 0.00869646 -0.00707912 0.00681865
v 0.00884993 -0.00698025 0.00672417
v 0.00913894 -0.00727177 0.00599106
v 0.00906501 -0.00744352 0.00588795
v 0.00887793 -0.00778420 0.00573467
v 0.00880400 -0.00795652 0.00561862
v 0.00885553 -0.00801697 0.00544691
v 0.00908069 -0.00795595 0.00513681
v -0.00016437 -0.01005709 0.00710092
v 0.00493369 -0.01005709 0.00513681
v 0.00450577 -0.01006726 0.00546220
v 0.00376643 -0.01006726 0.00597969
v 0.00200435 -0.01006952 0.00675828
v 0.00097264 -0.01006895 0.00700683
v 0.00071387 -0.01004353 0.00714797
v 0.00019857 -0.01000398 0.00735143
v 0.00045622 -0.01004522 0.00715189
v 0.00019857 -0.01004692 0.00715267
v -0.00016437 -0.00950172 0.00869495
v -0.00006019 -0.00950285 0.00869730
v 0.00019857 -0.00950172 0.00869574
v 0.00071387 -0.00949381 0.00868123
v 0.00071387 -0.00937008 0.00889881
v 0.00071387 -0.00929155 0.00903485
v 0.00045622 -0.00929551 0.00903955
v 0.00087406 -0.00928816 0.00903093
v 0.00104545 -0.00927856 0.00902034
v 0.00226199 -0.00907573 0.00907131
v 0.00303494 -0.00885539 0.00908425
v 0.00329370 -0.00882206 0.00907170
v 0.00380900 -0.00860624 0.00908307
v 0.00406777 -0.00838307 0.00912071
v 0.00458306 -0.00812488 0.00912149
v 0.00484183 -0.00786782 0.00913756
v 0.00509948 -0.00760963 0.00914148
v 0.00458306 -0.00786782 0.00914148
v 0.00742951 -0.00580962 0.00908817
v 0.00664648 -0.00657855 0.00911326
v 0.00717858 -0.00607798 0.00909444
v 0.00664648 -0.00632092 0.00914148
v 0.00810275 -0.00496555 0.00905720
v 0.00843321 -0.00430001 0.00907013
v 0.00767595 -0.00553109 0.00907288
v 0.00786751 -0.00528872 0.00906347
v 0.00917479 -0.00430001 0.00833780
v 0.00879952 -0.00430340 0.00873063
v 0.00854187 -0.00431357 0.00898937
v 0.00862701 -0.00447063 0.00881727
v 0.00850602 -0.00454013 0.00890156
v 0.00832343 -0.00464408 0.00902818
v 0.00846570 -0.00505538 0.00865496
v 0.00827526 -0.00481640 0.00898036
v 0.00820805 -0.00505369 0.00891136
v 0.00804786 -0.00513730 0.00901407
v 0.00813299 -0.00528872 0.00883569
v 0.00802209 -0.00561358 0.00872906
v 0.00831447 -0.00592262 0.00824685
v 0.00826630 -0.00606216 0.00819785
v 0.00775997 -0.00560680 0.00898271
v 0.00808371 -0.00621527 0.00827194
v 0.00817892 -0.00630171 0.00811042
v 0.00810275 -0.00649493 0.00803437
v 0.00804786 -0.00745991 0.00720364
v 0.00785854 -0.00676725 0.00804613
v 0.00778461 -0.00693957 0.00797203
v 0.00786415 -0.00703222 0.00780032
v 0.00812403 -0.00754804 0.00703231
v 0.00828646 -0.00769607 0.00665831
v 0.00836040 -0.00752431 0.00675828
v 0.00804786 -0.00771979 0.00694450
v 0.00820581 -0.00762206 0.00685158
v 0.00877711 -0.00715200 0.00662420
v 0.00883088 -0.00747064 0.00618041
v 0.00863485 -0.00780115 0.00606241
v 0.00857436 -0.00798929 0.00592520
v 0.00881968 -0.00771641 0.00590677
v 0.00863261 -0.00805200 0.00575309
v 0.00870542 -0.00812036 0.00553904
v 0.00878719 -0.00819776 0.00528853
v 0.00882864 -0.00824466 0.00514347
v 0.00890034 -0.00806838 0.00528853
v 0.00906053 -0.00797968 0.00513681
v -0.00016437 -0.01004692 0.00715267
v -0.00006019 -0.01004692 0.00715306
v 0.00494937 -0.01005483 0.00513681
v 0.00467716 -0.01005483 0.00538418
v 0.00484183 -0.00995765 0.00580445
v 0.00458306 -0.00999607 0.00580445
v 0.00440047 -0.01005257 0.00563391
v 0.00422908 -0.01006443 0.00569938
v 0.00383476 -0.01004579 0.00606437
v 0.00344717 -0.01006274 0.00620511
v 0.00294196 -0.01006330 0.00646582
v 0.00277729 -0.01006782 0.00649326
v 0.00221831 -0.01006556 0.00673319
v 0.00139607 -0.01006161 0.00697272
v 0.00123028 -0.01006443 0.00698684
v 0.00097264 -0.01004014 0.00713581
v 0.00071387 -0.00999777 0.00735143
v 0.00045622 -0.01000116 0.00735143
v -0.00006019 -0.00994522 0.00760940
v -0.00006019 -0.01000455 0.00735143
v 0.00019857 -0.00994409 0.00760940
v -0.00016437 -0.01002206 0.00726989
v -0.00016437 -0.00957404 0.00856597
v -0.00006019 -0.00957517 0.00856832
v 0.00019857 -0.00957404 0.00856675
v 0.00071387 -0.00956669 0.00855225
v 0.00097264 -0.00955991 0.00854049
v 0.00096479 -0.00934522 0.00892037
v 0.00123028 -0.00934692 0.00887686
v 0.00174670 -0.00932206 0.00883217
v 0.00174670 -0.00923844 0.00896115
v 0.00251964 -0.00905087 0.00905092
v 0.00200435 -0.00922488 0.00893527
v 0.00348974 -0.00879155 0.00904896
v 0.00406777 -0.00855878 0.00906425
v 0.00267535 -0.00903449 0.00903485
v 0.00431645 -0.00839098 0.00908072
v 0.00458306 -0.00830567 0.00906464
v 0.00482951 -0.00812884 0.00907719
v 0.00488104 -0.00808646 0.00907993
v 0.00511964 -0.00788872 0.00909287
v 0.00535712 -0.00760963 0.00912619
v 0.00561477 -0.00735087 0.00913443
v 0.00587242 -0.00709437 0.00914070
v 0.00613007 -0.00683618 0.00914148
v 0.00734997 -0.00600228 0.00906308
v 0.00758745 -0.00572713 0.00905524
v 0.00615135 -0.00711527 0.00909522
v 0.00634179 -0.00704352 0.00906582
v 0.00683804 -0.00657855 0.00905680
v 0.00710353 -0.00627516 0.00906582
v 0.00692877 -0.00634465 0.00909601
v 0.00781934 -0.00543448 0.00903759
v 0.00835928 -0.00451470 0.00905367
v 0.00854523 -0.00430001 0.00899290
v 0.00880512 -0.00430001 0.00872631
v 0.00813748 -0.00606216 0.00832291
v 0.00778909 -0.00590962 0.00875415
v 0.00752248 -0.00589945 0.00900388
v 0.00768827 -0.00581810 0.00890744
v 0.00801201 -0.00638702 0.00820608
v 0.00781598 -0.00620228 0.00852010
v 0.00791456 -0.00629493 0.00836368
v 0.00784062 -0.00648872 0.00828331
v 0.00793584 -0.00657798 0.00812610
v 0.00779021 -0.00720341 0.00772074
v 0.00753593 -0.00720906 0.00798340
v 0.00779245 -0.00746499 0.00746591
v 0.00787535 -0.00755143 0.00729420
v 0.00796160 -0.00763561 0.00712013
v 0.00752136 -0.00693335 0.00822960
v 0.00761322 -0.00703787 0.00805789
v 0.00770172 -0.00712092 0.00789166
v 0.00811395 -0.00779324 0.00677239
v 0.00827414 -0.00794183 0.00638506
v 0.00803442 -0.00796556 0.00667046
v 0.00779245 -0.00772318 0.00720716
v 0.00787535 -0.00780511 0.00703584
v 0.00778797 -0.00797742 0.00694371
v 0.00786303 -0.00805030 0.00677161
v 0.00847578 -0.00815030 0.00583856
v 0.00854859 -0.00822432 0.00563117
v 0.00833799 -0.00801415 0.00621295
v 0.00817892 -0.00811132 0.00630077
v 0.00808259 -0.00827064 0.00621687
v 0.00860796 -0.00828025 0.00545906
v 0.00882192 -0.00825482 0.00513681
v 0.00883872 -0.00823731 0.00513681
v 0.00894851 -0.00811132 0.00513681
v 0.00865837 -0.00832771 0.00528853
v 0.00510396 -0.01002997 0.00513681
v 0.00509948 -0.01000681 0.00528853
v 0.00488104 -0.01004861 0.00523756
v 0.00488104 -0.01003393 0.00532459
v 0.00488104 -0.00999607 0.00554649
v 0.00484183 -0.00990342 0.00606241
v 0.00458306 -0.00994692 0.00606241
v 0.00509948 -0.00996274 0.00554649
v 0.00535712 -0.00991698 0.00554649
v 0.00509948 -0.00991133 0.00580445
v 0.00432541 -0.00998308 0.00606241
v 0.00406777 -0.01001811 0.00606241
v 0.00406777 -0.00996782 0.00632037
v 0.00380900 -0.00999890 0.00632037
v 0.00354127 -0.01003279 0.00630312
v 0.00329370 -0.01000455 0.00657833
v 0.00329370 -0.00995087 0.00683630
v 0.00303494 -0.00997573 0.00683630
v 0.00277729 -0.00999890 0.00683630
v 0.00251964 -0.01002093 0.00683630
v 0.00200435 -0.01000003 0.00709426
v 0.00174670 -0.01001585 0.00709426
v 0.00228664 -0.01004070 0.00682610
v 0.00226199 -0.00998364 0.00709426
v 0.00123028 -0.01003506 0.00711582
v 0.00148457 -0.01003449 0.00707309
v 0.00148793 -0.00997121 0.00735143
v 0.00097264 -0.00999042 0.00735143
v 0.00071387 -0.00993618 0.00760940
v -0.00006019 -0.00986669 0.00786736
v -0.00016437 -0.00994409 0.00760940
v -0.00016437 -0.00996895 0.00750355
v -0.00016437 -0.01000398 0.00735143
v 0.00019857 -0.00986556 0.00786736
v -0.00016437 -0.00965935 0.00838328
v -0.00006019 -0.00966161 0.00838328
v 0.00019857 -0.00965991 0.00838328
v 0.00071387 -0.00964635 0.00838328
v 0.00097264 -0.00963505 0.00838328
v 0.00125157 -0.00960285 0.00840798
v 0.00117987 -0.00955144 0.00852559
v 0.00125157 -0.00948929 0.00862321
v 0.00174670 -0.00943110 0.00864124
v 0.00200435 -0.00940115 0.00864124
v 0.00200435 -0.00930680 0.00880629
v 0.00226871 -0.00921810 0.00888195
v 0.00218582 -0.00929494 0.00878434
v 0.00303494 -0.00898477 0.00897408
v 0.00331499 -0.00896556 0.00889372
v 0.00356591 -0.00886782 0.00891998
v 0.00366225 -0.00876048 0.00901995
v 0.00422347 -0.00852601 0.00904034
v 0.00251964 -0.00916048 0.00889881
v 0.00276721 -0.00910002 0.00891293
v 0.00303494 -0.00908251 0.00884510
v 0.00473653 -0.00826725 0.00903955
v 0.00504795 -0.00804522 0.00906072
v 0.00535712 -0.00781528 0.00906935
v 0.00560693 -0.00760906 0.00907837
v 0.00587914 -0.00736217 0.00909013
v 0.00703071 -0.00644691 0.00902622
v 0.00607966 -0.00728364 0.00906464
v 0.00625105 -0.00721471 0.00902230
v 0.00651430 -0.00696217 0.00902544
v 0.00677643 -0.00670793 0.00902858
v 0.00664648 -0.00676951 0.00905680
v 0.00744855 -0.00609493 0.00892351
v 0.00776669 -0.00666104 0.00821823
v 0.00736117 -0.00632092 0.00883138
v 0.00759530 -0.00676104 0.00829468
v 0.00753481 -0.00772375 0.00746591
v 0.00762106 -0.00755200 0.00755255
v 0.00744295 -0.00711697 0.00814453
v 0.00736453 -0.00729268 0.00805946
v 0.00727492 -0.00746443 0.00798026
v 0.00727492 -0.00772262 0.00772270
v 0.00736341 -0.00780906 0.00755098
v 0.00734885 -0.00702431 0.00830331
v 0.00705424 -0.00672883 0.00878787
v 0.00810163 -0.00803731 0.00649836
v 0.00794032 -0.00812997 0.00658265
v 0.00753368 -0.00798081 0.00720677
v 0.00770396 -0.00789324 0.00712170
v 0.00761658 -0.00806104 0.00703545
v 0.00752472 -0.00823336 0.00693862
v 0.00777229 -0.00822262 0.00666693
v 0.00831559 -0.00824804 0.00592441
v 0.00837720 -0.00830228 0.00575231
v 0.00801761 -0.00820906 0.00638859
v 0.00784622 -0.00828646 0.00649522
v 0.00791568 -0.00836443 0.00629411
v 0.00781374 -0.00851754 0.00619962
v 0.00799185 -0.00844748 0.00606241
v 0.00844441 -0.00837686 0.00553669
v 0.00834023 -0.00852714 0.00544221
v 0.00824390 -0.00870285 0.00528853
v 0.00838840 -0.00857347 0.00528853
v 0.00830775 -0.00873166 0.00513681
v 0.00851835 -0.00845652 0.00528853
v 0.00856763 -0.00849381 0.00513681
v 0.00520478 -0.01001359 0.00513681
v 0.00535712 -0.00996500 0.00528853
v 0.00487992 -0.00989494 0.00606359
v 0.00483175 -0.00983392 0.00632076
v 0.00458306 -0.00988534 0.00632037
v 0.00432541 -0.00993053 0.00632037
v 0.00561477 -0.00991585 0.00528853
v 0.00563157 -0.00984861 0.00556295
v 0.00536945 -0.00984692 0.00581778
v 0.00510508 -0.00984240 0.00607025
v 0.00380900 -0.00994579 0.00657833
v 0.00406777 -0.00991076 0.00657833
v 0.00355135 -0.00997573 0.00657833
v 0.00329370 -0.00988251 0.00709426
v 0.00303494 -0.00991415 0.00709426
v 0.00277729 -0.00994183 0.00709426
v 0.00355135 -0.00991811 0.00683630
v 0.00251964 -0.00996443 0.00709426
v 0.00174670 -0.00995822 0.00735143
v 0.00200435 -0.00994127 0.00735143
v 0.00097264 -0.00992828 0.00760940
v 0.00071387 -0.00985483 0.00786736
v 0.00019857 -0.00980963 0.00801476
v -0.00006019 -0.00980963 0.00801672
v -0.00016437 -0.00980907 0.00801437
v -0.00016437 -0.00986500 0.00786736
v -0.00016437 -0.00989777 0.00776151
v -0.00016437 -0.00970059 0.00828370
v -0.00006019 -0.00975935 0.00814571
v 0.00019857 -0.00975878 0.00814374
v 0.00045622 -0.00975596 0.00813669
v 0.00071387 -0.00975257 0.00812924
v 0.00094799 -0.00975652 0.00809984
v 0.00123028 -0.00972940 0.00812532
v 0.00148793 -0.00971246 0.00812532
v 0.00174670 -0.00969381 0.00812532
v 0.00174670 -0.00959381 0.00834839
v 0.00148793 -0.00960285 0.00837034
v 0.00135239 -0.00954353 0.00851069
v 0.00174670 -0.00952432 0.00847737
v 0.00200435 -0.00950850 0.00844914
v 0.00235833 -0.00928082 0.00876081
v 0.00251964 -0.00926669 0.00873690
v 0.00226871 -0.00935087 0.00866124
v 0.00324329 -0.00905200 0.00880433
v 0.00355135 -0.00910002 0.00860949
v 0.00380900 -0.00906048 0.00855617
v 0.00396359 -0.00903675 0.00852363
v 0.00406777 -0.00879720 0.00880551
v 0.00420779 -0.00877517 0.00877610
v 0.00380900 -0.00873562 0.00898859
v 0.00406777 -0.00868759 0.00893449
v 0.00430189 -0.00862940 0.00888588
v 0.00439599 -0.00848251 0.00899604
v 0.00277729 -0.00924183 0.00869887
v 0.00305398 -0.00922488 0.00863066
v 0.00315256 -0.00928364 0.00850756
v 0.00331499 -0.00912884 0.00866516
v 0.00458306 -0.00843449 0.00894429
v 0.00488104 -0.00849720 0.00871142
v 0.00489560 -0.00847347 0.00872867
v 0.00512076 -0.00843562 0.00864203
v 0.00509948 -0.00829098 0.00880904
v 0.00523166 -0.00825539 0.00877140
v 0.00490904 -0.00821754 0.00899251
v 0.00522046 -0.00798929 0.00902309
v 0.00551731 -0.00776160 0.00904543
v 0.00579849 -0.00752318 0.00905680
v 0.00696686 -0.00657855 0.00897565
v 0.00615135 -0.00736217 0.00896193
v 0.00626337 -0.00748364 0.00877336
v 0.00656471 -0.00777742 0.00828958
v 0.00673722 -0.00770341 0.00822490
v 0.00672154 -0.00742883 0.00846914
v 0.00641236 -0.00711527 0.00897840
v 0.00596988 -0.00745539 0.00900584
v 0.00662968 -0.00707912 0.00883609
v 0.00696574 -0.00690115 0.00871612
v 0.00744855 -0.00789494 0.00737927
v 0.00726259 -0.00719550 0.00823156
v 0.00692093 -0.00762544 0.00814061
v 0.00710241 -0.00754691 0.00805632
v 0.00701279 -0.00771810 0.00797674
v 0.00718866 -0.00763505 0.00789245
v 0.00727492 -0.00798081 0.00746473
v 0.00710353 -0.00780454 0.00780463
v 0.00716850 -0.00710002 0.00838799
v 0.00736229 -0.00806443 0.00729302
v 0.00744407 -0.00814861 0.00711896
v 0.00760090 -0.00829550 0.00676690
v 0.00727044 -0.00823675 0.00720207
v 0.00735333 -0.00830285 0.00703075
v 0.00742278 -0.00838477 0.00683943
v 0.00786303 -0.00856048 0.00606241
v 0.00756953 -0.00852771 0.00647209
v 0.00766475 -0.00857064 0.00629959
v 0.00777341 -0.00874296 0.00588717
v 0.00753481 -0.00875991 0.00617453
v 0.00768379 -0.00870002 0.00607809
v 0.00807026 -0.00877347 0.00542456
v 0.00827974 -0.00875596 0.00513681
v 0.00535712 -0.00998873 0.00513681
v 0.00561477 -0.00994240 0.00513681
v 0.00502330 -0.00981528 0.00623491
v 0.00488104 -0.00980568 0.00637408
v 0.00483175 -0.00975652 0.00656383
v 0.00458306 -0.00982602 0.00652345
v 0.00434558 -0.00985257 0.00660068
v 0.00587690 -0.00988477 0.00513681
v 0.00588474 -0.00984579 0.00529872
v 0.00572791 -0.00979777 0.00565979
v 0.00555652 -0.00982093 0.00574055
v 0.00580633 -0.00982037 0.00548768
v 0.00529103 -0.00981811 0.00598949
v 0.00519581 -0.00979268 0.00616160
v 0.00427388 -0.00981924 0.00675789
v 0.00405432 -0.00983505 0.00684100
v 0.00380900 -0.00987856 0.00683630
v 0.00354687 -0.00984014 0.00710406
v 0.00345837 -0.00980850 0.00724049
v 0.00329370 -0.00982150 0.00727616
v 0.00277729 -0.00986895 0.00735143
v 0.00251964 -0.00989777 0.00735143
v 0.00226199 -0.00992093 0.00735143
v 0.00174670 -0.00988647 0.00760940
v 0.00148793 -0.00990172 0.00760940
v 0.00123028 -0.00991528 0.00760940
v 0.00094799 -0.00983957 0.00788578
v 0.00084605 -0.00980229 0.00799673
v -0.00016437 -0.00977912 0.00809082
v -0.00016437 -0.00975822 0.00814335
v 0.00101856 -0.00979720 0.00798419
v 0.00123028 -0.00984070 0.00783835
v 0.00148793 -0.00978251 0.00794537
v 0.00174670 -0.00977291 0.00792107
v 0.00200435 -0.00976161 0.00788892
v 0.00200435 -0.00966839 0.00812532
v 0.00200435 -0.00957969 0.00832016
v 0.00226199 -0.00956048 0.00828449
v 0.00277729 -0.00931923 0.00856989
v 0.00298005 -0.00930115 0.00853774
v 0.00259021 -0.00953449 0.00823705
v 0.00277729 -0.00942319 0.00838328
v 0.00387621 -0.00927121 0.00822764
v 0.00379780 -0.00920002 0.00836250
v 0.00329370 -0.00926500 0.00847737
v 0.00405656 -0.00909946 0.00839151
v 0.00413498 -0.00900737 0.00848286
v 0.00432541 -0.00897291 0.00843268
v 0.00470852 -0.00876839 0.00851030
v 0.00458306 -0.00855370 0.00881531
v 0.00305398 -0.00935878 0.00840602
v 0.00303494 -0.00949438 0.00816139
v 0.00327690 -0.00947234 0.00810336
v 0.00355135 -0.00939946 0.00812532
v 0.00370482 -0.00929155 0.00826293
v 0.00488104 -0.00858138 0.00862007
v 0.00504907 -0.00855313 0.00855656
v 0.00522046 -0.00850793 0.00850756
v 0.00533360 -0.00832319 0.00863654
v 0.00553748 -0.00828590 0.00854715
v 0.00540305 -0.00820172 0.00871926
v 0.00533360 -0.00811923 0.00883765
v 0.00511964 -0.00812884 0.00895291
v 0.00535712 -0.00794409 0.00898232
v 0.00552964 -0.00802940 0.00880002
v 0.00568758 -0.00769437 0.00898898
v 0.00613007 -0.00753618 0.00882040
v 0.00628689 -0.00801810 0.00827390
v 0.00645941 -0.00794974 0.00821235
v 0.00665432 -0.00787403 0.00813277
v 0.00684028 -0.00779833 0.00805318
v 0.00700047 -0.00744917 0.00822803
v 0.00682907 -0.00753166 0.00829703
v 0.00709120 -0.00727799 0.00830017
v 0.00701167 -0.00797686 0.00771917
v 0.00692653 -0.00788759 0.00788696
v 0.00710353 -0.00805878 0.00754706
v 0.00732085 -0.00853505 0.00674025
v 0.00700383 -0.00823110 0.00745376
v 0.00709792 -0.00830172 0.00728204
v 0.00707104 -0.00854127 0.00700252
v 0.00724243 -0.00847460 0.00691235
v 0.00728724 -0.00876669 0.00644465
v 0.00743735 -0.00871980 0.00634350
v 0.00783502 -0.00878985 0.00571546
v 0.00760202 -0.00880624 0.00600282
v 0.00736341 -0.00881358 0.00627254
v 0.00741606 -0.00889607 0.00605731
v 0.00768379 -0.00884918 0.00580249
v 0.00768043 -0.00896669 0.00555942
v 0.00792240 -0.00893731 0.00528029
v 0.00811507 -0.00880511 0.00528853
v 0.00816772 -0.00883449 0.00513681
v 0.00535712 -0.00970285 0.00632037
v 0.00510508 -0.00976782 0.00632076
v 0.00509948 -0.00968816 0.00657833
v 0.00491128 -0.00978816 0.00640662
v 0.00458306 -0.00972488 0.00683630
v 0.00444528 -0.00980003 0.00670143
v 0.00609086 -0.00982771 0.00513681
v 0.00605501 -0.00981754 0.00521953
v 0.00588474 -0.00977743 0.00556295
v 0.00587242 -0.00971641 0.00580445
v 0.00561477 -0.00971133 0.00606241
v 0.00546354 -0.00979551 0.00591265
v 0.00536945 -0.00977404 0.00607025
v 0.00434558 -0.00977573 0.00684100
v 0.00432541 -0.00969438 0.00709426
v 0.00413162 -0.00978986 0.00692999
v 0.00380900 -0.00982093 0.00701899
v 0.00363089 -0.00979268 0.00719619
v 0.00329370 -0.00969946 0.00760940
v 0.00329370 -0.00977460 0.00740514
v 0.00380900 -0.00970511 0.00735143
v 0.00354687 -0.00975822 0.00733654
v 0.00308647 -0.00979042 0.00744788
v 0.00277729 -0.00981359 0.00751139
v 0.00301365 -0.00983336 0.00735771
v 0.00251964 -0.00983053 0.00755608
v 0.00200435 -0.00986500 0.00760940
v 0.00174670 -0.00982263 0.00779209
v 0.00148793 -0.00983223 0.00781639
v 0.00200435 -0.00981020 0.00775994
v 0.00224071 -0.00983675 0.00762155
v 0.00251964 -0.00971302 0.00786736
v 0.00226199 -0.00963505 0.00812532
v 0.00277729 -0.00958703 0.00807945
v 0.00277729 -0.00951923 0.00820843
v 0.00355135 -0.00950624 0.00792577
v 0.00372162 -0.00955483 0.00775955
v 0.00406777 -0.00931415 0.00804966
v 0.00421899 -0.00929268 0.00800771
v 0.00439151 -0.00926613 0.00796145
v 0.00406777 -0.00924014 0.00817864
v 0.00432541 -0.00906274 0.00830370
v 0.00456738 -0.00909211 0.00812806
v 0.00484183 -0.00896330 0.00816099
v 0.00484183 -0.00883449 0.00834290
v 0.00503338 -0.00879607 0.00828841
v 0.00520478 -0.00875878 0.00823940
v 0.00484183 -0.00873562 0.00847188
v 0.00303494 -0.00956274 0.00803241
v 0.00317944 -0.00954748 0.00800261
v 0.00570887 -0.00822940 0.00848717
v 0.00535712 -0.00858420 0.00833310
v 0.00552067 -0.00853336 0.00827821
v 0.00600124 -0.00825426 0.00825430
v 0.00582201 -0.00805708 0.00856754
v 0.00637539 -0.00811584 0.00811630
v 0.00617375 -0.00818985 0.00819236
v 0.00657255 -0.00804183 0.00804025
v 0.00674506 -0.00797008 0.00796890
v 0.00684028 -0.00805030 0.00779679
v 0.00703855 -0.00877347 0.00671320
v 0.00665432 -0.00813223 0.00787402
v 0.00673498 -0.00822262 0.00770270
v 0.00656359 -0.00828703 0.00777915
v 0.00683132 -0.00829437 0.00753060
v 0.00680779 -0.00853562 0.00725146
v 0.00688172 -0.00862432 0.00707348
v 0.00678315 -0.00877460 0.00697233
v 0.00695566 -0.00871302 0.00688491
v 0.00729620 -0.00903166 0.00594009
v 0.00747767 -0.00898364 0.00580445
v 0.00709904 -0.00880963 0.00657833
v 0.00722003 -0.00898590 0.00611220
v 0.00768043 -0.00909494 0.00528029
v 0.00782718 -0.00904183 0.00518895
v 0.00753368 -0.00901810 0.00565391
v 0.00784510 -0.00905313 0.00513681
v 0.00805234 -0.00891471 0.00513681
v 0.00587242 -0.00963618 0.00606241
v 0.00563493 -0.00961246 0.00634115
v 0.00537057 -0.00960568 0.00659362
v 0.00529327 -0.00956669 0.00675710
v 0.00509388 -0.00959155 0.00684022
v 0.00488104 -0.00965144 0.00683708
v 0.00484183 -0.00966217 0.00683630
v 0.00621968 -0.00979042 0.00513681
v 0.00613007 -0.00970906 0.00554649
v 0.00615471 -0.00961641 0.00582915
v 0.00431533 -0.00959042 0.00735771
v 0.00406777 -0.00965087 0.00735143
v 0.00405432 -0.00975426 0.00707583
v 0.00460883 -0.00961528 0.00711974
v 0.00453937 -0.00957008 0.00727577
v 0.00303494 -0.00963731 0.00786736
v 0.00277729 -0.00967969 0.00786736
v 0.00277729 -0.00976613 0.00764037
v 0.00301365 -0.00975087 0.00758548
v 0.00355135 -0.00965539 0.00760940
v 0.00380900 -0.00959720 0.00762116
v 0.00355135 -0.00957404 0.00779679
v 0.00406777 -0.00957234 0.00753844
v 0.00389413 -0.00953223 0.00771485
v 0.00406777 -0.00950850 0.00766742
v 0.00471861 -0.00928816 0.00774151
v 0.00431309 -0.00919889 0.00810650
v 0.00458306 -0.00923166 0.00790813
v 0.00484183 -0.00905313 0.00803201
v 0.00497065 -0.00902827 0.00799634
v 0.00514316 -0.00898986 0.00793753
v 0.00535712 -0.00881189 0.00805789
v 0.00550163 -0.00877799 0.00800692
v 0.00535712 -0.00871245 0.00818687
v 0.00327690 -0.00958929 0.00787559
v 0.00581305 -0.00855539 0.00804534
v 0.00610430 -0.00831302 0.00811395
v 0.00629138 -0.00827629 0.00802064
v 0.00646389 -0.00821415 0.00795125
v 0.00688284 -0.00880793 0.00681395
v 0.00671817 -0.00899663 0.00664851
v 0.00689293 -0.00893788 0.00656893
v 0.00636755 -0.00836782 0.00784972
v 0.00627121 -0.00852093 0.00774857
v 0.00636979 -0.00857347 0.00759567
v 0.00651542 -0.00876895 0.00722089
v 0.00664648 -0.00872206 0.00716208
v 0.00664648 -0.00881189 0.00703388
v 0.00654678 -0.00904409 0.00673397
v 0.00734885 -0.00906500 0.00580445
v 0.00714609 -0.00906782 0.00604085
v 0.00714497 -0.00919381 0.00578916
v 0.00697134 -0.00899155 0.00638035
v 0.00743735 -0.00912262 0.00555942
v 0.00750568 -0.00926556 0.00513681
v 0.00767259 -0.00916217 0.00513681
v 0.00777677 -0.00909664 0.00513681
v 0.00606509 -0.00956952 0.00606241
v 0.00600236 -0.00954409 0.00619178
v 0.00587242 -0.00956782 0.00624981
v 0.00556212 -0.00957178 0.00651757
v 0.00546466 -0.00953618 0.00668928
v 0.00561477 -0.00932206 0.00704172
v 0.00537057 -0.00950116 0.00684022
v 0.00538289 -0.00936839 0.00711935
v 0.00517677 -0.00952658 0.00692882
v 0.00500538 -0.00955539 0.00698997
v 0.00484183 -0.00958025 0.00704800
v 0.00624209 -0.00978364 0.00513681
v 0.00638883 -0.00970003 0.00528853
v 0.00640676 -0.00961076 0.00556491
v 0.00658375 -0.00957121 0.00549121
v 0.00633394 -0.00957460 0.00575936
v 0.00471188 -0.00954409 0.00722206
v 0.00460883 -0.00950963 0.00735771
v 0.00439487 -0.00952771 0.00744788
v 0.00422347 -0.00955144 0.00749531
v 0.00458306 -0.00939325 0.00760940
v 0.00481942 -0.00932432 0.00760352
v 0.00488104 -0.00931754 0.00757607
v 0.00501994 -0.00930228 0.00751374
v 0.00489112 -0.00925765 0.00768584
v 0.00481942 -0.00918590 0.00784344
v 0.00507483 -0.00907291 0.00785795
v 0.00535488 -0.00894522 0.00785795
v 0.00573127 -0.00902262 0.00747179
v 0.00587578 -0.00885652 0.00761880
v 0.00579288 -0.00879437 0.00777209
v 0.00596428 -0.00874861 0.00771133
v 0.00598444 -0.00850172 0.00798419
v 0.00613007 -0.00856725 0.00780150
v 0.00679883 -0.00904240 0.00647640
v 0.00663752 -0.00908534 0.00656893
v 0.00689293 -0.00907799 0.00630469
v 0.00614799 -0.00870624 0.00761880
v 0.00624657 -0.00876161 0.00746865
v 0.00634403 -0.00881528 0.00729655
v 0.00601132 -0.00903336 0.00723069
v 0.00645157 -0.00899268 0.00690569
v 0.00637427 -0.00908025 0.00682649
v 0.00638659 -0.00921697 0.00657402
v 0.00723123 -0.00925313 0.00554649
v 0.00664088 -0.00921528 0.00631763
v 0.00697134 -0.00925483 0.00586482
v 0.00704751 -0.00929324 0.00569272
v 0.00742614 -0.00923957 0.00530813
v 0.00748328 -0.00927743 0.00513681
v 0.00728388 -0.00928195 0.00540692
v 0.00625777 -0.00954296 0.00593147
v 0.00619392 -0.00951754 0.00606241
v 0.00585898 -0.00932545 0.00682649
v 0.00587242 -0.00951358 0.00637879
v 0.00563493 -0.00951246 0.00659362
v 0.00573351 -0.00954014 0.00644073
v 0.00638659 -0.00933562 0.00631763
v 0.00629922 -0.00930228 0.00648542
v 0.00576376 -0.00929437 0.00698253
v 0.00548483 -0.00928534 0.00722128
v 0.00510284 -0.00934748 0.00736163
v 0.00484183 -0.00943957 0.00735143
v 0.00638659 -0.00973901 0.00513681
v 0.00665208 -0.00965031 0.00513681
v 0.00665992 -0.00960229 0.00529911
v 0.00650646 -0.00953901 0.00566332
v 0.00675514 -0.00953505 0.00539163
v 0.00665992 -0.00951076 0.00556491
v 0.00519245 -0.00927291 0.00745415
v 0.00510284 -0.00921980 0.00760352
v 0.00535488 -0.00910228 0.00761488
v 0.00526751 -0.00904522 0.00776543
v 0.00563269 -0.00912940 0.00737182
v 0.00587242 -0.00906895 0.00728675
v 0.00587242 -0.00898929 0.00741573
v 0.00607406 -0.00880963 0.00753922
v 0.00647061 -0.00926556 0.00640152
v 0.00612895 -0.00889833 0.00734947
v 0.00610990 -0.00907065 0.00707897
v 0.00585898 -0.00919776 0.00707858
v 0.00612334 -0.00920793 0.00682649
v 0.00620400 -0.00926161 0.00665753
v 0.00672266 -0.00925991 0.00613298
v 0.00710241 -0.00931923 0.00554649
v 0.00655014 -0.00930115 0.00622981
v 0.00664088 -0.00933053 0.00605300
v 0.00689293 -0.00932319 0.00578916
v 0.00734437 -0.00931132 0.00523482
v 0.00738358 -0.00932545 0.00513681
v 0.00690413 -0.00949664 0.00529911
v 0.00718306 -0.00936274 0.00530813
v 0.00593515 -0.00925596 0.00690569
v 0.00561477 -0.00925878 0.00716992
v 0.00538289 -0.00924635 0.00736163
v 0.00685372 -0.00957347 0.00513681
v 0.00681787 -0.00956387 0.00521992
v 0.00693661 -0.00953618 0.00513681
f 1 2 3
f 1 3 7
f 1 7 22
f 1 22 34
f 1 34 35
f 1 35 53
f 1 53 52
f 1 52 51
f 1 51 74
f 1 74 98
f 1 98 127
f 1 127 167
f 1 167 214
f 1 214 215
f 1 215 224
f 1 224 223
f 1 223 222
f 1 222 221
f 1 221 282
f 1 282 356
f 1 356 445
f 1 445 444
f 1 444 443
f 1 443 546
f 1 546 544
f 1 544 647
f 1 647 740
f 1 740 818
f 1 818 817
f 1 817 875
f 1 875 874
f 1 874 873
f 1 873 925
f 1 925 965
f 1 965 973
f 1 973 971
f 1 971 940
f 1 940 939
f 1 939 887
f 1 887 826
f 1 826 747
f 1 747 655
f 1 655 649
f 1 649 648
f 1 648 547
f 1 547 447
f 1 447 359
f 1 359 284
f 1 284 226
f 1 226 172
f 1 172 134
f 1 134 103
f 1 103 77
f 1 77 75
f 1 75 54
f 1 54 36
f 1 36 25
f 1 25 24
f 1 24 9
f 1 9 4
f 1 4 8
f 1 8 23
f 1 23 28
f 1 28 39
f 1 39 56
f 1 56 58
f 1 58 80
f 1 80 79
f 1 79 105
f 1 105 139
f 1 139 182
f 1 182 247
f 1 247 316
f 1 316 411
f 1 411 412
f 1 412 319
f 1 319 258
f 1 258 257
f 1 257 250
f 1 250 184
f 1 184 142
f 1 142 141
f 1 141 140
f 1 140 108
f 1 108 107
f 1 107 106
f 1 106 81
f 1 81 60
f 1 60 59
f 1 59 41
f 1 41 29
f 1 29 19
f 1 19 6
f 1 6 5
f 1 5 2
f 2 5 3
f 3 5 6
f 3 6 7
f 4 9 10
f 4 10 11
f 4 11 12
f 4 12 13
f 4 13 14
f 4 14 15
f 4 15 16
f 4 16 17
f 4 17 18
f 4 18 8
f 6 19 20
f 6 20 7
f 7 21 22
f 7 20 21
f 8 18 23
f 9 24 10
f 10 24 25
f 10 25 26
f 10 26 37
f 10 37 55
f 10 55 76
f 10 76 102
f 10 102 133
f 10 133 171
f 10 171 225
f 10 225 283
f 10 283 357
f 10 357 378
f 10 378 479
f 10 479 478
f 10 478 477
f 10 477 573
f 10 573 572
f 10 572 571
f 10 571 676
f 10 676 677
f 10 677 574
f 10 574 481
f 10 481 379
f 10 379 293
f 10 293 230
f 10 230 175
f 10 175 135
f 10 135 104
f 10 104 78
f 10 78 57
f 10 57 40
f 10 40 38
f 10 38 27
f 10 27 18
f 10 18 17
f 10 17 16
f 10 16 15
f 10 15 14
f 10 14 13
f 10 13 12
f 10 12 11
f 18 27 28
f 18 28 23
f 19 29 30
f 19 30 31
f 19 31 20
f 20 32 33
f 20 33 21
f 20 31 32
f 21 34 22
f 21 33 32
f 21 32 35
f 21 35 34
f 25 36 26
f 26 36 54
f 26 54 37
f 27 38 28
f 28 38 40
f 28 40 39
f 29 41 42
f 29 42 30
f 30 42 43
f 30 43 31
f 31 43 32
f 32 43 44
f 32 44 45
f 32 45 46
f 32 46 47
f 32 47 48
f 32 48 49
f 32 49 50
f 32 50 51
f 32 51 52
f 32 52 53
f 32 53 35
f 37 54 55
f 39 40 56
f 40 57 58
f 40 58 56
f 41 59 42
f 42 60 61
f 42 61 43
f 42 59 60
f 43 61 44
f 44 61 62
f 44 62 45
f 45 62 63
f 45 63 64
f 45 64 65
f 45 65 66
f 45 66 67
f 45 67 68
f 45 68 46
f 46 68 47
f 47 68 69
f 47 69 48
f 48 69 70
f 48 70 71
f 48 71 72
f 48 72 73
f 48 73 49
f 49 73 50
f 50 73 51
f 51 73 74
f 54 75 55
f 55 75 77
f 55 77 76
f 57 78 79
f 57 79 80
f 57 80 58
f 60 81 82
f 60 82 61
f 61 82 83
f 61 83 84
f 61 84 62
f 62 84 64
f 62 64 63
f 64 85 86
f 64 86 87
f 64 87 88
f 64 88 89
f 64 89 65
f 64 84 85
f 65 89 66
f 66 89 90
f 66 90 91
f 66 91 92
f 66 92 67
f 67 92 68
f 68 92 69
f 69 71 70
f 69 92 93
f 69 93 94
f 69 94 95
f 69 95 96
f 69 96 71
f 71 97 98
f 71 98 74
f 71 74 72
f 71 96 95
f 71 95 99
f 71 99 100
f 71 100 101
f 71 101 97
f 72 74 73
f 76 77 102
f 77 103 102
f 78 104 137
f 78 137 180
f 78 180 242
f 78 242 310
f 78 310 309
f 78 309 401
f 78 401 314
f 78 314 244
f 78 244 181
f 78 181 138
f 78 138 105
f 78 105 79
f 81 106 86
f 81 86 85
f 81 85 83
f 81 83 82
f 83 85 84
f 86 106 107
f 86 107 108
f 86 108 109
f 86 109 110
f 86 110 111
f 86 111 112
f 86 112 113
f 86 113 88
f 86 88 87
f 88 113 114
f 88 114 115
f 88 115 89
f 89 115 116
f 89 116 90
f 90 117 118
f 90 118 119
f 90 119 120
f 90 120 121
f 90 121 91
f 90 116 117
f 91 121 120
f 91 120 122
f 91 122 95
f 91 95 94
f 91 94 93
f 91 93 92
f 95 123 124
f 95 124 125
f 95 125 126
f 95 126 99
f 95 122 123
f 97 127 98
f 97 101 100
f 97 100 128
f 97 128 129
f 97 129 127
f 99 126 100
f 100 126 125
f 100 125 130
f 100 130 131
f 100 131 132
f 100 132 129
f 100 129 128
f 102 103 134
f 102 134 133
f 104 135 136
f 104 136 137
f 105 138 139
f 108 140 109
f 109 140 110
f 110 140 141
f 110 141 142
f 110 142 143
f 110 143 144
f 110 144 111
f 111 144 112
f 112 114 113
f 112 144 145
f 112 145 114
f 114 145 146
f 114 146 147
f 114 147 115
f 115 147 148
f 115 148 149
f 115 149 117
f 115 117 116
f 117 149 150
f 117 150 118
f 118 151 152
f 118 152 153
f 118 153 154
f 118 154 120
f 118 120 119
f 118 150 151
f 120 154 155
f 120 155 156
f 120 156 157
f 120 157 158
f 120 158 159
f 120 159 160
f 120 160 161
f 120 161 122
f 122 161 162
f 122 162 123
f 123 162 163
f 123 163 164
f 123 164 124
f 124 164 165
f 124 165 125
f 125 165 166
f 125 166 130
f 127 129 167
f 129 132 168
f 129 168 167
f 130 166 131
f 131 166 169
f 131 169 132
f 132 170 168
f 132 169 170
f 133 134 171
f 134 172 173
f 134 173 174
f 134 174 171
f 135 175 136
f 136 176 177
f 136 177 137
f 136 175 176
f 137 177 178
f 137 178 179
f 137 179 180
f 138 181 139
f 139 181 183
f 139 183 182
f 142 184 143
f 143 184 145
f 143 145 144
f 145 184 185
f 145 185 146
f 146 186 187
f 146 187 188
f 146 188 189
f 146 189 190
f 146 190 191
f 146 191 147
f 146 185 192
f 146 192 186
f 147 149 148
f 147 191 193
f 147 193 149
f 149 193 150
f 150 193 151
f 151 153 152
f 151 193 191
f 151 191 190
f 151 190 153
f 153 190 189
f 153 189 194
f 153 194 195
f 153 195 196
f 153 196 197
f 153 197 198
f 153 198 199
f 153 199 154
f 154 199 200
f 154 200 155
f 155 200 201
f 155 201 202
f 155 202 157
f 155 157 156
f 157 202 158
f 158 202 203
f 158 203 204
f 158 204 205
f 158 205 159
f 159 205 204
f 159 204 206
f 159 206 207
f 159 207 208
f 159 208 209
f 159 209 210
f 159 210 211
f 159 211 212
f 159 212 160
f 160 212 162
f 160 162 161
f 162 212 163
f 163 212 211
f 163 211 164
f 164 211 165
f 165 211 213
f 165 213 169
f 165 169 166
f 167 168 214
f 168 215 214
f 168 170 169
f 168 169 215
f 169 213 216
f 169 216 217
f 169 217 218
f 169 218 219
f 169 219 220
f 169 220 221
f 169 221 222
f 169 222 223
f 169 223 224
f 169 224 215
f 171 174 229
f 171 229 225
f 172 226 227
f 172 227 228
f 172 228 173
f 173 228 229
f 173 229 174
f 175 230 231
f 175 231 176
f 176 231 232
f 176 232 233
f 176 233 177
f 177 233 234
f 177 234 178
f 178 234 235
f 178 235 236
f 178 236 237
f 178 237 238
f 178 238 179
f 179 239 240
f 179 240 241
f 179 241 242
f 179 242 180
f 179 238 239
f 181 243 183
f 181 244 245
f 181 245 243
f 182 183 246
f 182 246 247
f 183 248 246
f 183 243 249
f 183 249 248
f 184 250 192
f 184 192 185
f 186 251 187
f 186 192 251
f 187 251 252
f 187 252 253
f 187 253 254
f 187 254 255
f 187 255 256
f 187 256 188
f 188 256 194
f 188 194 189
f 192 250 257
f 192 257 258
f 192 258 251
f 194 256 255
f 194 255 195
f 195 259 260
f 195 260 196
f 195 255 259
f 196 261 197
f 196 260 262
f 196 262 261
f 197 261 198
f 198 261 263
f 198 263 264
f 198 264 199
f 199 264 200
f 200 264 201
f 201 264 202
f 202 264 203
f 203 264 265
f 203 265 204
f 204 265 266
f 204 266 206
f 206 266 267
f 206 267 207
f 207 267 268
f 207 268 269
f 207 269 270
f 207 270 209
f 207 209 208
f 209 270 271
f 209 271 272
f 209 272 273
f 209 273 274
f 209 274 210
f 210 274 275
f 210 275 276
f 210 276 211
f 211 276 277
f 211 277 213
f 213 277 216
f 216 277 278
f 216 278 217
f 217 278 279
f 217 279 280
f 217 280 218
f 218 280 281
f 218 281 219
f 219 281 282
f 219 282 221
f 219 221 220
f 225 229 283
f 226 284 227
f 227 284 285
f 227 285 286
f 227 286 287
f 227 287 228
f 228 287 288
f 228 288 289
f 228 289 290
f 228 290 291
f 228 291 292
f 228 292 229
f 229 292 283
f 230 293 294
f 230 294 231
f 231 294 232
f 232 294 295
f 232 295 296
f 232 296 297
f 232 297 298
f 232 298 299
f 232 299 233
f 233 299 235
f 233 235 234
f 235 298 236
f 235 299 298
f 236 298 300
f 236 300 237
f 237 300 301
f 237 301 302
f 237 302 238
f 238 302 303
f 238 303 239
f 239 303 304
f 239 304 305
f 239 305 306
f 239 306 240
f 240 306 241
f 241 306 307
f 241 307 308
f 241 308 309
f 241 309 310
f 241 310 242
f 243 311 249
f 243 245 312
f 243 312 313
f 243 313 311
f 244 314 312
f 244 312 245
f 246 248 315
f 246 315 247
f 247 315 316
f 248 249 311
f 248 311 317
f 248 317 318
f 248 318 315
f 251 258 319
f 251 319 320
f 251 320 252
f 252 320 321
f 252 321 322
f 252 322 253
f 253 322 323
f 253 323 324
f 253 324 325
f 253 325 254
f 254 325 255
f 255 325 259
f 259 325 260
f 260 325 326
f 260 326 327
f 260 327 328
f 260 328 329
f 260 329 262
f 261 262 330
f 261 330 331
f 261 331 332
f 261 332 263
f 262 329 333
f 262 333 330
f 263 332 334
f 263 334 335
f 263 335 266
f 263 266 265
f 263 265 264
f 266 335 336
f 266 336 269
f 266 269 267
f 267 269 268
f 269 337 270
f 269 336 338
f 269 338 339
f 269 339 340
f 269 340 337
f 270 337 271
f 271 337 272
f 272 337 341
f 272 341 273
f 273 342 343
f 273 343 274
f 273 341 344
f 273 344 345
f 273 345 342
f 274 343 275
f 275 346 276
f 275 343 346
f 276 346 277
f 277 346 347
f 277 347 348
f 277 348 349
f 277 349 350
f 277 350 278
f 278 350 279
f 279 350 349
f 279 349 280
f 280 349 351
f 280 351 352
f 280 352 281
f 281 352 353
f 281 353 354
f 281 354 355
f 281 355 356
f 281 356 282
f 283 292 358
f 283 358 357
f 284 359 285
f 285 359 360
f 285 360 361
f 285 361 362
f 285 362 363
f 285 363 364
f 285 364 286
f 286 364 365
f 286 365 366
f 286 366 367
f 286 367 368
f 286 368 287
f 287 369 370
f 287 370 371
f 287 371 288
f 287 368 369
f 288 371 372
f 288 372 289
f 289 372 373
f 289 373 374
f 289 374 290
f 290 375 376
f 290 376 292
f 290 292 291
f 290 374 377
f 290 377 375
f 292 376 378
f 292 378 358
f 293 379 380
f 293 380 294
f 294 380 381
f 294 381 295
f 295 381 382
f 295 382 296
f 296 382 300
f 296 300 297
f 297 300 298
f 300 382 383
f 300 383 384
f 300 384 385
f 300 385 301
f 301 385 386
f 301 386 387
f 301 387 302
f 302 388 304
f 302 304 303
f 302 387 389
f 302 389 388
f 304 390 391
f 304 391 305
f 304 388 392
f 304 392 390
f 305 391 306
f 306 391 393
f 306 393 307
f 307 394 395
f 307 395 396
f 307 396 397
f 307 397 398
f 307 398 308
f 307 393 394
f 308 398 399
f 308 399 400
f 308 400 309
f 309 400 401
f 311 313 402
f 311 402 403
f 311 403 317
f 312 314 401
f 312 401 400
f 312 400 404
f 312 404 405
f 312 405 406
f 312 406 407
f 312 407 408
f 312 408 313
f 313 408 407
f 313 407 402
f 315 318 403
f 315 403 409
f 315 409 328
f 315 328 326
f 315 326 324
f 315 324 410
f 315 410 316
f 316 410 411
f 317 403 318
f 319 412 320
f 320 411 321
f 320 412 411
f 321 411 324
f 321 324 323
f 321 323 322
f 324 326 325
f 324 411 410
f 326 328 327
f 328 409 333
f 328 333 329
f 330 333 413
f 330 413 331
f 331 413 334
f 331 334 332
f 333 414 413
f 333 409 403
f 333 403 415
f 333 415 416
f 333 416 414
f 334 417 336
f 334 336 335
f 334 413 414
f 334 414 415
f 334 415 418
f 334 418 419
f 334 419 420
f 334 420 417
f 336 417 421
f 336 421 338
f 337 340 422
f 337 422 423
f 337 423 424
f 337 424 425
f 337 425 426
f 337 426 344
f 337 344 341
f 338 421 427
f 338 427 428
f 338 428 339
f 339 429 422
f 339 422 340
f 339 428 423
f 339 423 429
f 342 345 430
f 342 430 431
f 342 431 349
f 342 349 343
f 343 349 348
f 343 348 347
f 343 347 346
f 344 432 430
f 344 430 345
f 344 426 433
f 344 433 434
f 344 434 435
f 344 435 436
f 344 436 432
f 349 437 438
f 349 438 351
f 349 431 439
f 349 439 440
f 349 440 441
f 349 441 437
f 351 438 442
f 351 442 352
f 352 442 353
f 353 442 354
f 354 443 444
f 354 444 445
f 354 445 355
f 354 442 446
f 354 446 443
f 355 445 356
f 357 358 378
f 359 447 448
f 359 448 449
f 359 449 360
f 360 449 450
f 360 450 448
f 360 448 451
f 360 451 361
f 361 452 453
f 361 453 362
f 361 451 454
f 361 454 455
f 361 455 456
f 361 456 452
f 362 453 457
f 362 457 364
f 362 364 363
f 364 457 458
f 364 458 365
f 365 458 459
f 365 459 460
f 365 460 366
f 366 461 462
f 366 462 367
f 366 460 461
f 367 462 463
f 367 463 464
f 367 464 465
f 367 465 466
f 367 466 369
f 367 369 368
f 369 467 468
f 369 468 370
f 369 466 469
f 369 469 470
f 369 470 467
f 370 471 372
f 370 372 371
f 370 468 472
f 370 472 473
f 370 473 471
f 372 471 473
f 372 473 474
f 372 474 373
f 373 475 377
f 373 377 374
f 373 474 475
f 375 377 480
f 375 480 476
f 375 476 477
f 375 477 478
f 375 478 479
f 375 479 376
f 376 479 378
f 377 475 480
f 379 481 482
f 379 482 380
f 380 482 483
f 380 483 381
f 381 483 484
f 381 484 382
f 382 484 485
f 382 485 383
f 383 485 486
f 383 486 487
f 383 487 384
f 384 487 385
f 385 487 488
f 385 488 489
f 385 489 386
f 386 489 490
f 386 490 491
f 386 491 389
f 386 389 387
f 388 389 492
f 388 492 392
f 389 491 493
f 389 493 492
f 390 392 494
f 390 494 495
f 390 495 496
f 390 496 497
f 390 497 391
f 391 498 394
f 391 394 393
f 391 497 498
f 392 492 499
f 392 499 500
f 392 500 501
f 392 501 494
f 394 502 503
f 394 503 395
f 394 498 502
f 395 503 396
f 396 503 397
f 397 503 504
f 397 504 398
f 398 504 505
f 398 505 506
f 398 506 404
f 398 404 399
f 399 404 400
f 402 415 403
f 402 407 507
f 402 507 415
f 404 506 508
f 404 508 405
f 405 508 509
f 405 509 510
f 405 510 511
f 405 511 512
f 405 512 406
f 406 511 507
f 406 507 407
f 406 512 511
f 414 416 415
f 415 513 418
f 415 507 513
f 417 420 514
f 417 514 421
f 418 420 419
f 418 513 515
f 418 515 420
f 420 515 516
f 420 516 427
f 420 427 514
f 421 514 427
f 422 429 423
f 423 517 518
f 423 518 433
f 423 433 424
f 423 428 427
f 423 427 519
f 423 519 520
f 423 520 521
f 423 521 522
f 423 522 523
f 423 523 517
f 424 433 425
f 425 433 426
f 427 524 519
f 427 516 507
f 427 507 525
f 427 525 524
f 430 526 431
f 430 432 526
f 431 526 439
f 432 436 527
f 432 527 526
f 433 518 517
f 433 517 528
f 433 528 529
f 433 529 434
f 434 529 530
f 434 530 435
f 435 530 531
f 435 531 436
f 436 532 527
f 436 531 532
f 437 533 438
f 437 441 533
f 438 533 534
f 438 534 442
f 439 526 440
f 440 526 535
f 440 535 441
f 441 535 536
f 441 536 537
f 441 537 538
f 441 538 539
f 441 539 534
f 441 534 533
f 442 534 540
f 442 540 541
f 442 541 542
f 442 542 543
f 442 543 544
f 442 544 545
f 442 545 446
f 443 446 546
f 446 545 546
f 447 547 548
f 447 548 448
f 448 454 451
f 448 450 449
f 448 548 454
f 452 549 550
f 452 550 551
f 452 551 552
f 452 552 453
f 452 456 549
f 453 552 459
f 453 459 457
f 454 548 455
f 455 548 553
f 455 553 554
f 455 554 555
f 455 555 456
f 456 555 556
f 456 556 549
f 457 459 458
f 459 557 460
f 459 552 558
f 459 558 557
f 460 559 461
f 460 557 559
f 461 559 462
f 462 559 463
f 463 560 561
f 463 561 562
f 463 562 464
f 463 559 557
f 463 557 563
f 463 563 560
f 464 562 465
f 465 562 564
f 465 564 466
f 466 564 469
f 467 565 468
f 467 470 565
f 468 565 472
f 469 564 470
f 470 564 566
f 470 566 565
f 472 565 473
f 473 565 567
f 473 567 474
f 474 567 475
f 475 568 480
f 475 567 568
f 476 480 569
f 476 569 570
f 476 570 571
f 476 571 572
f 476 572 573
f 476 573 477
f 480 568 569
f 481 574 482
f 482 575 576
f 482 576 483
f 482 574 575
f 483 576 577
f 483 577 578
f 483 578 484
f 484 578 579
f 484 579 485
f 485 580 581
f 485 581 582
f 485 582 583
f 485 583 584
f 485 584 486
f 485 579 580
f 486 584 583
f 486 583 487
f 487 583 585
f 487 585 488
f 488 585 586
f 488 586 489
f 489 586 490
f 490 587 493
f 490 493 491
f 490 586 587
f 492 588 589
f 492 589 499
f 492 493 588
f 493 587 590
f 493 590 588
f 494 501 495
f 495 501 591
f 495 591 592
f 495 592 593
f 495 593 594
f 495 594 595
f 495 595 496
f 496 595 497
f 497 595 596
f 497 596 597
f 497 597 498
f 498 597 598
f 498 598 596
f 498 596 599
f 498 599 600
f 498 600 502
f 499 601 500
f 499 589 601
f 500 601 602
f 500 602 501
f 501 602 603
f 501 603 604
f 501 604 591
f 502 600 605
f 502 605 606
f 502 606 607
f 502 607 608
f 502 608 609
f 502 609 610
f 502 610 611
f 502 611 612
f 502 612 503
f 503 612 613
f 503 613 504
f 504 613 505
f 505 613 614
f 505 614 508
f 505 508 506
f 507 511 615
f 507 615 525
f 507 516 515
f 507 515 513
f 508 614 509
f 509 616 617
f 509 617 618
f 509 618 619
f 509 619 620
f 509 620 621
f 509 621 510
f 509 614 613
f 509 613 622
f 509 622 616
f 510 621 623
f 510 623 511
f 511 624 525
f 511 525 615
f 511 623 624
f 517 523 625
f 517 625 528
f 519 524 626
f 519 626 520
f 520 626 627
f 520 627 628
f 520 628 521
f 521 628 629
f 521 629 630
f 521 630 522
f 522 631 523
f 522 630 632
f 522 632 631
f 523 631 625
f 524 525 633
f 524 633 626
f 525 624 633
f 526 527 535
f 527 532 535
f 528 625 634
f 528 634 635
f 528 635 530
f 528 530 529
f 530 635 531
f 531 636 532
f 531 635 637
f 531 637 638
f 531 638 639
f 531 639 636
f 532 536 535
f 532 636 536
f 534 539 640
f 534 640 541
f 534 541 540
f 536 538 537
f 536 636 641
f 536 641 642
f 536 642 538
f 538 643 640
f 538 640 539
f 538 642 644
f 538 644 645
f 538 645 643
f 541 640 646
f 541 646 542
f 542 647 544
f 542 544 543
f 542 646 647
f 544 546 545
f 547 648 548
f 548 648 649
f 548 649 553
f 549 556 650
f 549 650 550
f 550 651 652
f 550 652 653
f 550 653 654
f 550 654 551
f 550 650 651
f 551 654 558
f 551 558 552
f 553 649 655
f 553 655 656
f 553 656 554
f 554 657 658
f 554 658 555
f 554 656 659
f 554 659 657
f 555 660 556
f 555 658 660
f 556 660 661
f 556 661 650
f 557 558 563
f 558 654 662
f 558 662 663
f 558 663 664
f 558 664 563
f 560 563 664
f 560 664 665
f 560 665 666
f 560 666 667
f 560 667 668
f 560 668 561
f 561 668 669
f 561 669 562
f 562 669 670
f 562 670 564
f 564 670 566
f 565 671 672
f 565 672 673
f 565 673 567
f 565 566 671
f 566 670 671
f 567 673 674
f 567 674 568
f 568 674 675
f 568 675 569
f 569 576 575
f 569 575 570
f 569 675 577
f 569 577 576
f 570 575 571
f 571 575 676
f 574 677 575
f 575 677 676
f 577 675 578
f 578 675 579
f 579 675 674
f 579 674 678
f 579 678 580
f 580 678 679
f 580 679 680
f 580 680 581
f 581 680 582
f 582 680 681
f 582 681 682
f 582 682 683
f 582 683 583
f 583 586 585
f 583 683 684
f 583 684 586
f 586 684 587
f 587 684 685
f 587 685 590
f 588 590 686
f 588 686 589
f 589 686 687
f 589 687 601
f 590 685 688
f 590 688 689
f 590 689 686
f 591 604 592
f 592 690 691
f 592 691 593
f 592 604 692
f 592 692 690
f 593 691 690
f 593 690 594
f 594 690 693
f 594 693 596
f 594 596 595
f 596 598 597
f 596 693 694
f 596 694 695
f 596 695 696
f 596 696 599
f 599 696 697
f 599 697 600
f 600 697 606
f 600 606 605
f 601 687 603
f 601 603 602
f 603 687 698
f 603 698 699
f 603 699 700
f 603 700 701
f 603 701 702
f 603 702 690
f 603 690 692
f 603 692 604
f 606 697 703
f 606 703 704
f 606 704 607
f 607 704 608
f 608 705 609
f 608 704 705
f 609 705 610
f 610 705 706
f 610 706 707
f 610 707 708
f 610 708 709
f 610 709 612
f 610 612 710
f 610 710 611
f 611 710 612
f 612 709 711
f 612 711 613
f 613 712 713
f 613 713 622
f 613 711 712
f 616 714 617
f 616 622 712
f 616 712 714
f 617 714 715
f 617 715 716
f 617 716 618
f 618 716 717
f 618 717 619
f 619 717 718
f 619 718 627
f 619 627 719
f 619 719 720
f 619 720 620
f 620 720 623
f 620 623 621
f 622 713 712
f 623 720 633
f 623 633 624
f 625 631 634
f 626 633 721
f 626 721 720
f 626 720 719
f 626 719 627
f 627 718 628
f 628 718 629
f 629 722 632
f 629 632 630
f 629 718 723
f 629 723 722
f 631 637 634
f 631 632 722
f 631 722 724
f 631 724 637
f 633 720 721
f 634 637 635
f 636 639 725
f 636 725 641
f 637 724 726
f 637 726 727
f 637 727 728
f 637 728 638
f 638 728 729
f 638 729 639
f 639 729 725
f 640 643 646
f 641 725 730
f 641 730 731
f 641 731 644
f 641 644 642
f 643 732 646
f 643 645 644
f 643 644 733
f 643 733 732
f 644 731 730
f 644 730 734
f 644 734 735
f 644 735 733
f 646 732 736
f 646 736 737
f 646 737 738
f 646 738 739
f 646 739 647
f 647 739 740
f 650 661 741
f 650 741 742
f 650 742 743
f 650 743 744
f 650 744 651
f 651 744 652
f 652 745 746
f 652 746 653
f 652 744 743
f 652 743 745
f 653 746 662
f 653 662 654
f 655 747 656
f 656 747 748
f 656 748 659
f 657 659 749
f 657 749 750
f 657 750 658
f 658 750 751
f 658 751 752
f 658 752 660
f 659 748 749
f 660 752 753
f 660 753 661
f 661 753 741
f 662 746 745
f 662 745 754
f 662 754 755
f 662 755 756
f 662 756 663
f 663 757 665
f 663 665 664
f 663 756 757
f 665 757 758
f 665 758 666
f 666 759 760
f 666 760 667
f 666 758 761
f 666 761 762
f 666 762 759
f 667 760 763
f 667 763 764
f 667 764 765
f 667 765 668
f 668 764 766
f 668 766 669
f 668 765 764
f 669 766 767
f 669 767 670
f 670 767 671
f 671 768 769
f 671 769 679
f 671 679 672
f 671 767 768
f 672 679 673
f 673 679 674
f 674 679 678
f 679 769 680
f 680 769 768
f 680 768 681
f 681 768 682
f 682 768 770
f 682 770 771
f 682 771 772
f 682 772 683
f 683 772 835
f 683 835 773
f 683 773 684
f 684 773 774
f 684 774 685
f 685 774 688
f 686 689 687
f 687 689 775
f 687 775 698
f 688 774 775
f 688 775 689
f 690 702 776
f 690 776 777
f 690 777 778
f 690 778 779
f 690 779 780
f 690 780 781
f 690 781 693
f 693 781 782
f 693 782 694
f 694 782 695
f 695 782 783
f 695 783 784
f 695 784 696
f 696 784 785
f 696 785 786
f 696 786 787
f 696 787 788
f 696 788 703
f 696 703 697
f 698 775 699
f 699 789 790
f 699 790 700
f 699 775 789
f 700 790 776
f 700 776 701
f 701 776 702
f 703 788 704
f 704 787 705
f 704 788 787
f 705 787 707
f 705 707 706
f 707 791 708
f 707 787 792
f 707 792 793
f 707 793 794
f 707 794 791
f 708 791 712
f 708 712 709
f 709 712 711
f 712 791 795
f 712 795 715
f 712 715 714
f 715 796 716
f 715 795 791
f 715 791 797
f 715 797 796
f 716 798 717
f 716 796 798
f 717 799 718
f 717 798 799
f 718 799 723
f 722 726 724
f 722 723 799
f 722 799 800
f 722 800 726
f 725 729 801
f 725 801 730
f 726 800 802
f 726 802 803
f 726 803 804
f 726 804 805
f 726 805 727
f 727 805 806
f 727 806 807
f 727 807 728
f 728 807 808
f 728 808 809
f 728 809 801
f 728 801 729
f 730 801 734
f 732 733 736
f 733 735 810
f 733 810 811
f 733 811 736
f 734 801 812
f 734 812 813
f 734 813 810
f 734 810 735
f 736 811 737
f 737 814 815
f 737 815 738
f 737 811 816
f 737 816 814
f 738 815 739
f 739 815 817
f 739 817 818
f 739 818 740
f 741 753 751
f 741 751 819
f 741 819 820
f 741 820 821
f 741 821 743
f 741 743 742
f 743 821 822
f 743 822 823
f 743 823 824
f 743 824 825
f 743 825 745
f 745 825 755
f 745 755 754
f 747 826 748
f 748 826 827
f 748 827 749
f 749 827 750
f 750 819 751
f 750 827 828
f 750 828 819
f 751 753 752
f 755 829 830
f 755 830 761
f 755 761 831
f 755 831 756
f 755 825 832
f 755 832 833
f 755 833 829
f 756 831 757
f 757 831 761
f 757 761 758
f 759 834 835
f 759 835 836
f 759 836 837
f 759 837 763
f 759 763 760
f 759 762 838
f 759 838 834
f 761 839 838
f 761 838 762
f 761 830 839
f 763 837 764
f 764 837 836
f 764 836 766
f 766 836 772
f 766 772 771
f 766 771 767
f 767 770 768
f 767 771 770
f 772 836 835
f 773 835 774
f 774 835 834
f 774 834 789
f 774 789 775
f 776 840 777
f 776 790 840
f 777 840 839
f 777 839 841
f 777 841 842
f 777 842 778
f 778 842 843
f 778 843 844
f 778 844 779
f 779 844 780
f 780 845 781
f 780 844 846
f 780 846 845
f 781 845 783
f 781 783 782
f 783 846 847
f 783 847 784
f 783 845 846
f 784 847 848
f 784 848 785
f 785 848 786
f 786 848 787
f 787 849 850
f 787 850 851
f 787 851 852
f 787 852 793
f 787 793 792
f 787 848 849
f 789 834 853
f 789 853 840
f 789 840 790
f 791 794 797
f 793 854 794
f 793 852 854
f 794 854 855
f 794 855 856
f 794 856 797
f 796 797 856
f 796 856 798
f 798 856 857
f 798 857 799
f 799 857 802
f 799 802 800
f 801 809 808
f 801 808 858
f 801 858 859
f 801 859 860
f 801 860 812
f 802 857 803
f 803 857 804
f 804 857 861
f 804 861 862
f 804 862 863
f 804 863 806
f 804 806 805
f 806 863 864
f 806 864 865
f 806 865 807
f 807 865 808
f 808 859 858
f 808 865 864
f 808 864 866
f 808 866 867
f 808 867 859
f 810 868 811
f 810 813 869
f 810 869 870
f 810 870 868
f 811 868 816
f 812 860 813
f 813 860 871
f 813 871 869
f 814 816 872
f 814 872 873
f 814 873 874
f 814 874 875
f 814 875 815
f 815 875 817
f 816 868 872
f 819 828 876
f 819 876 877
f 819 877 878
f 819 878 820
f 820 878 879
f 820 879 821
f 821 879 822
f 822 879 880
f 822 880 881
f 822 881 882
f 822 882 883
f 822 883 884
f 822 884 885
f 822 885 886
f 822 886 823
f 823 886 824
f 824 886 832
f 824 832 825
f 826 887 888
f 826 888 827
f 827 888 828
f 828 888 889
f 828 889 890
f 828 890 891
f 828 891 876
f 829 841 830
f 829 833 841
f 830 841 839
f 832 886 833
f 833 886 892
f 833 892 893
f 833 893 894
f 833 894 895
f 833 895 841
f 834 838 840
f 834 840 853
f 838 839 840
f 841 895 842
f 842 895 843
f 843 895 894
f 843 894 896
f 843 896 844
f 844 896 893
f 844 893 892
f 844 892 897
f 844 897 898
f 844 898 899
f 844 899 900
f 844 900 901
f 844 901 846
f 846 901 847
f 847 901 848
f 848 900 902
f 848 902 849
f 848 901 900
f 849 903 850
f 849 902 903
f 850 903 851
f 851 904 905
f 851 905 906
f 851 906 907
f 851 907 852
f 851 903 904
f 852 907 854
f 854 907 908
f 854 908 855
f 855 908 856
f 856 909 862
f 856 862 861
f 856 861 857
f 856 908 909
f 859 910 860
f 859 867 911
f 859 911 910
f 860 910 912
f 860 912 871
f 862 909 907
f 862 907 913
f 862 913 914
f 862 914 863
f 863 914 864
f 864 914 915
f 864 915 866
f 866 915 916
f 866 916 917
f 866 917 867
f 867 917 916
f 867 916 918
f 867 918 919
f 867 919 911
f 868 870 920
f 868 920 872
f 869 871 912
f 869 912 921
f 869 921 922
f 869 922 870
f 870 922 923
f 870 923 920
f 872 924 873
f 872 920 924
f 873 924 926
f 873 926 925
f 876 891 927
f 876 927 928
f 876 928 877
f 877 929 930
f 877 930 931
f 877 931 932
f 877 932 879
f 877 879 878
f 877 928 933
f 877 933 934
f 877 934 929
f 879 932 880
f 880 932 931
f 880 931 935
f 880 935 881
f 881 935 936
f 881 936 883
f 881 883 882
f 883 936 937
f 883 937 938
f 883 938 892
f 883 892 885
f 883 885 884
f 885 892 886
f 887 939 888
f 888 939 940
f 888 940 941
f 888 941 890
f 888 890 889
f 890 942 927
f 890 927 891
f 890 941 943
f 890 943 944
f 890 944 942
f 892 938 897
f 893 896 894
f 897 938 898
f 898 938 899
f 899 937 945
f 899 945 900
f 899 938 937
f 900 945 946
f 900 946 902
f 902 946 947
f 902 947 948
f 902 948 903
f 903 948 904
f 904 949 950
f 904 950 951
f 904 951 905
f 904 948 947
f 904 947 949
f 905 951 952
f 905 952 907
f 905 907 906
f 907 952 914
f 907 914 913
f 907 909 908
f 910 911 921
f 910 921 912
f 911 919 953
f 911 953 921
f 914 952 954
f 914 954 915
f 915 954 916
f 916 955 918
f 916 954 952
f 916 952 951
f 916 951 950
f 916 950 956
f 916 956 955
f 918 955 957
f 918 957 919
f 919 957 958
f 919 958 953
f 920 923 926
f 920 926 924
f 921 953 959
f 921 959 922
f 922 959 923
f 923 960 926
f 923 959 953
f 923 953 961
f 923 961 962
f 923 962 963
f 923 963 944
f 923 944 943
f 923 943 960
f 925 926 964
f 925 964 965
f 926 960 943
f 926 943 966
f 926 966 967
f 926 967 964
f 927 942 944
f 927 944 962
f 927 962 961
f 927 961 933
f 927 933 928
f 929 935 931
f 929 931 930
f 929 934 935
f 933 961 953
f 933 953 934
f 934 953 958
f 934 958 935
f 935 968 956
f 935 956 969
f 935 969 936
f 935 958 968
f 936 970 945
f 936 945 937
f 936 969 970
f 940 971 941
f 941 971 972
f 941 972 943
f 943 972 966
f 944 963 962
f 945 947 946
f 945 970 947
f 947 970 949
f 949 970 969
f 949 969 950
f 950 969 956
f 955 956 957
f 956 968 957
f 957 968 958
f 964 967 973
f 964 973 965
f 966 972 967
f 967 972 973
f 971 973 972

