# https://github.com/mikedh/trimesh
v -0.00037697 0.02944986 -0.02284753
v -0.00478451 0.02478088 -0.01428978
v -0.00037697 0.03281136 -0.02284753
v 0.00362720 0.02944986 -0.02284753
v -0.00096903 0.02478088 -0.01428978
v -0.00478451 0.02923027 -0.00729131
v -0.00478451 0.02530914 -0.01428978
v -0.00036139 0.03383776 -0.02284753
v -0.00478451 0.02889776 -0.01428521
v 0.00901456 0.03047876 -0.02284753
v 0.00023932 0.02478339 -0.01428978
v 0.00023932 0.02923027 -0.00729131
v -0.00478451 0.03254033 -0.00729131
v -0.00035793 0.03400841 -0.02284753
v -0.00478451 0.02931183 -0.01372942
v -0.00011384 0.03640626 -0.02220950
v 0.00010083 0.03645771 -0.02284753
v -0.00030080 0.03526192 -0.02258714
v -0.00020732 0.03526192 -0.02284753
v 0.00985417 0.03075732 -0.02284753
v 0.00970356 0.02959164 -0.01922038
v 0.00028779 0.02480096 -0.01428978
v 0.00971741 0.02958411 -0.00907748
v 0.00121569 0.02941848 -0.00729131
v -0.00478451 0.03223417 -0.00816993
v 0.00007139 0.03730091 -0.00729131
v 0.00023066 0.03759703 -0.01429130
v 0.00023066 0.03759703 -0.01729717
v 0.00023239 0.03759703 -0.01874681
v 0.00023413 0.03759703 -0.01980207
v 0.00027394 0.03759703 -0.02105679
v 0.00044013 0.03759703 -0.02231000
v -0.00478451 0.02975727 -0.01310205
v -0.00478451 0.03027047 -0.01228130
v -0.00478451 0.03076234 -0.01143923
v -0.00478451 0.03108606 -0.01080730
v -0.00478451 0.03157040 -0.00977641
v 0.00058555 0.03759703 -0.02284753
v 0.01047912 0.03118896 -0.02284753
v 0.01114042 0.03067450 -0.01939854
v 0.01128064 0.03055907 -0.01855038
v 0.01037179 0.02993294 -0.01855038
v 0.00974511 0.02956906 -0.01855038
v 0.00975549 0.02956404 -0.01729717
v 0.00975549 0.02956404 -0.00977641
v 0.01038217 0.02991788 -0.00977641
v 0.01129276 0.03054526 -0.00977641
v 0.01116120 0.03065568 -0.00891150
v 0.01018655 0.03024286 -0.00879882
v 0.00123820 0.02942601 -0.00729131
v -0.00478451 0.03198699 -0.00879577
v 0.00363066 0.03730091 -0.00729131
v 0.01116639 0.03759703 -0.01429130
v 0.00951486 0.03759703 -0.02284753
v 0.01087036 0.03154656 -0.02284753
v 0.01116293 0.03181508 -0.02284753
v 0.01190732 0.03119774 -0.01855038
v 0.01129622 0.03054526 -0.01729717
v 0.01038390 0.02991788 -0.01729717
v 0.01013462 0.02977735 -0.01429130
v 0.01038390 0.02991788 -0.01429130
v 0.01129622 0.03054526 -0.01429130
v 0.01191944 0.03118519 -0.00977641
v 0.01227433 0.03191672 -0.00898002
v 0.01155590 0.03149888 -0.00874095
v 0.01026619 0.03150014 -0.00835113
v 0.00180948 0.03025039 -0.00729131
v 0.01151955 0.03400715 -0.00833591
v 0.01151955 0.03526066 -0.00841204
v 0.01026619 0.03651417 -0.00837093
v 0.01026099 0.03730216 -0.00859934
v 0.01119409 0.03730216 -0.00891302
v 0.01147453 0.03730216 -0.00977641
v 0.01130661 0.03746779 -0.01429130
v 0.01116639 0.03759703 -0.01703679
v 0.00995112 0.03745901 -0.02284753
v 0.01095346 0.03759703 -0.01909857
v 0.01164938 0.03275490 -0.02284753
v 0.01226394 0.03193428 -0.01931784
v 0.01232973 0.03182387 -0.01855038
v 0.01192118 0.03118644 -0.01729717
v 0.01192118 0.03118644 -0.01429130
v 0.01208910 0.03143363 -0.01429130
v 0.01233665 0.03181132 -0.00977641
v 0.01269500 0.03275490 -0.00977641
v 0.01242148 0.03275490 -0.00882623
v 0.01151955 0.03275490 -0.00841204
v 0.01252189 0.03400715 -0.00875009
v 0.01242667 0.03526066 -0.00882623
v 0.01155936 0.03652295 -0.00875313
v 0.01225875 0.03611014 -0.00898916
v 0.01193156 0.03684919 -0.00977641
v 0.01155590 0.03722185 -0.01429130
v 0.01147453 0.03730216 -0.01428978
v 0.01193329 0.03684919 -0.01429130
v 0.01130661 0.03746779 -0.01729717
v 0.01116466 0.03759703 -0.01729717
v 0.01113003 0.03759703 -0.01855038
v 0.01033370 0.03718547 -0.02284753
v 0.01186578 0.03400841 -0.02284753
v 0.01266211 0.03275490 -0.01855038
v 0.01269673 0.03275490 -0.01729717
v 0.01234012 0.03181132 -0.01729717
v 0.01234012 0.03181132 -0.01429130
v 0.01269673 0.03275490 -0.01429130
v 0.01289928 0.03400715 -0.00977641
v 0.01270712 0.03526066 -0.00977641
v 0.01231415 0.03622306 -0.00977641
v 0.01193329 0.03684919 -0.01729717
v 0.01231588 0.03622306 -0.01429130
v 0.01191944 0.03683539 -0.01855038
v 0.01129276 0.03745273 -0.01855038
v 0.01114388 0.03759703 -0.01826868
v 0.01116812 0.03622432 -0.02284753
v 0.01165284 0.03526192 -0.02284753
v 0.01266730 0.03526192 -0.01855038
v 0.01284042 0.03400841 -0.01855038
v 0.01289928 0.03400841 -0.01729717
v 0.01289928 0.03400715 -0.01428978
v 0.01289928 0.03400841 -0.01429130
v 0.01270885 0.03526192 -0.01429130
v 0.01247341 0.03584036 -0.01429130
v 0.01231588 0.03622306 -0.01729717
v 0.01230895 0.03620926 -0.01855038
v 0.01225009 0.03609382 -0.01931022
v 0.01144510 0.03567473 -0.02284753
v 0.01270885 0.03526192 -0.01729717
f 1 2 7
f 1 7 3
f 1 3 8
f 1 8 14
f 1 14 19
f 1 19 17
f 1 17 38
f 1 38 54
f 1 54 76
f 1 76 99
f 1 99 114
f 1 114 126
f 1 126 115
f 1 115 100
f 1 100 78
f 1 78 56
f 1 56 55
f 1 55 39
f 1 39 20
f 1 20 10
f 1 10 4
f 1 4 5
f 1 5 2
f 2 5 12
f 2 12 6
f 2 6 13
f 2 13 25
f 2 25 51
f 2 51 37
f 2 37 36
f 2 36 35
f 2 35 34
f 2 34 33
f 2 33 15
f 2 15 9
f 2 9 7
f 3 7 9
f 3 9 8
f 4 10 11
f 4 11 5
f 5 11 12
f 6 12 24
f 6 24 50
f 6 50 67
f 6 67 52
f 6 52 26
f 6 26 13
f 8 9 14
f 9 15 16
f 9 16 17
f 9 17 18
f 9 18 19
f 9 19 14
f 10 20 11
f 11 20 21
f 11 21 22
f 11 22 23
f 11 23 12
f 12 23 24
f 13 26 27
f 13 27 28
f 13 28 29
f 13 29 30
f 13 30 31
f 13 31 32
f 13 32 25
f 15 33 16
f 16 33 34
f 16 34 35
f 16 35 36
f 16 36 37
f 16 37 32
f 16 32 38
f 16 38 17
f 17 19 18
f 20 39 21
f 21 39 40
f 21 40 41
f 21 41 42
f 21 42 43
f 21 43 22
f 22 43 44
f 22 44 45
f 22 45 23
f 23 45 46
f 23 46 47
f 23 47 48
f 23 48 49
f 23 49 50
f 23 50 24
f 25 32 51
f 26 52 53
f 26 53 27
f 27 53 75
f 27 75 97
f 27 97 113
f 27 113 98
f 27 98 77
f 27 77 54
f 27 54 38
f 27 38 32
f 27 32 31
f 27 31 30
f 27 30 29
f 27 29 28
f 32 37 51
f 39 55 40
f 40 55 56
f 40 56 57
f 40 57 41
f 41 57 58
f 41 58 42
f 42 58 59
f 42 59 43
f 43 59 44
f 44 59 60
f 44 60 45
f 45 60 61
f 45 61 46
f 46 61 62
f 46 62 47
f 47 62 63
f 47 63 48
f 48 63 64
f 48 64 65
f 48 65 66
f 48 66 49
f 49 66 50
f 50 66 67
f 52 67 68
f 52 68 69
f 52 69 70
f 52 70 71
f 52 71 53
f 53 72 73
f 53 73 74
f 53 74 96
f 53 96 75
f 53 71 72
f 54 77 76
f 56 78 79
f 56 79 57
f 57 79 80
f 57 80 81
f 57 81 58
f 58 62 61
f 58 61 59
f 58 81 82
f 58 82 62
f 59 61 60
f 62 82 63
f 63 82 83
f 63 83 84
f 63 84 64
f 64 84 85
f 64 85 86
f 64 86 65
f 65 87 66
f 65 86 87
f 66 87 67
f 67 87 68
f 68 87 88
f 68 88 69
f 69 88 89
f 69 89 90
f 69 90 70
f 70 90 71
f 71 90 72
f 72 90 91
f 72 91 92
f 72 92 73
f 73 93 94
f 73 94 96
f 73 96 74
f 73 92 95
f 73 95 93
f 75 96 97
f 76 77 98
f 76 98 99
f 78 100 101
f 78 101 79
f 79 101 80
f 80 101 102
f 80 102 103
f 80 103 81
f 81 103 83
f 81 83 82
f 83 103 104
f 83 104 84
f 84 104 85
f 85 105 106
f 85 106 86
f 85 104 105
f 86 106 88
f 86 88 87
f 88 106 89
f 89 106 107
f 89 107 91
f 89 91 90
f 91 107 108
f 91 108 92
f 92 108 110
f 92 110 95
f 93 96 94
f 93 95 109
f 93 109 96
f 95 110 123
f 95 123 109
f 96 109 111
f 96 111 112
f 96 112 113
f 96 113 97
f 98 113 112
f 98 112 99
f 99 112 111
f 99 111 114
f 100 115 116
f 100 116 117
f 100 117 101
f 101 117 118
f 101 118 102
f 102 118 119
f 102 119 106
f 102 106 105
f 102 105 104
f 102 104 103
f 106 119 118
f 106 118 120
f 106 120 121
f 106 121 107
f 107 121 122
f 107 122 108
f 108 122 110
f 109 123 124
f 109 124 111
f 110 122 123
f 111 124 125
f 111 125 114
f 114 125 126
f 115 126 125
f 115 125 116
f 116 127 118
f 116 118 117
f 116 125 124
f 116 124 127
f 118 127 121
f 118 121 120
f 121 127 122
f 122 127 123
f 123 127 124

