# https://github.com/mikedh/trimesh
v 0.04824975 0.00555541 -0.01040934
v 0.04825143 0.00539953 -0.01040934
v 0.04665946 -0.00139870 -0.01163243
v 0.04657885 0.00555541 -0.01158572
v 0.04396250 0.00555541 -0.01040934
v 0.04828334 -0.00139870 -0.01040934
v 0.04638573 -0.00139870 -0.01173722
v 0.04613887 0.00555541 -0.01177244
v 0.04648481 0.00555541 -0.01162588
v 0.04518671 -0.00139870 -0.01040934
v 0.03621590 0.00555541 -0.01060815
v 0.03112930 0.00467934 -0.01060407
v 0.03112930 -0.00139870 -0.01060407
v 0.04613887 -0.00139870 -0.01182047
v 0.04598438 0.00555541 -0.01179907
v 0.03605300 0.00555541 -0.01062517
v 0.03112930 0.00519940 -0.01070202
v 0.03112930 0.00475762 -0.01061877
v 0.03112930 -0.00139870 -0.01189600
v 0.04573752 -0.00139870 -0.01186966
v 0.04541846 0.00555541 -0.01189469
v 0.03547868 0.00555541 -0.01068659
v 0.03112930 0.00542880 -0.01115988
v 0.03112930 0.00467934 -0.01189600
v 0.04541846 -0.00139870 -0.01189600
v 0.04541846 -0.00107945 -0.01189600
v 0.04526396 0.00555541 -0.01189498
v 0.03540983 0.00555541 -0.01070216
v 0.03112930 0.00540498 -0.01124181
v 0.03490772 0.00555541 -0.01115988
v 0.03536281 0.00555541 -0.01171204
v 0.03112930 0.00518102 -0.01173605
v 0.03678014 0.00555541 -0.01189600
v 0.04469972 0.00555541 -0.01189600
v 0.03112930 0.00526883 -0.01170797
v 0.03604797 0.00555541 -0.01185408
f 1 2 3
f 1 3 4
f 1 4 9
f 1 9 8
f 1 8 15
f 1 15 21
f 1 21 27
f 1 27 34
f 1 34 33
f 1 33 36
f 1 36 31
f 1 31 30
f 1 30 28
f 1 28 22
f 1 22 16
f 1 16 11
f 1 11 5
f 1 5 10
f 1 10 6
f 1 6 2
f 2 6 3
f 3 7 8
f 3 8 9
f 3 9 4
f 3 6 10
f 3 10 13
f 3 13 19
f 3 19 25
f 3 25 20
f 3 20 14
f 3 14 7
f 5 11 12
f 5 12 13
f 5 13 10
f 7 14 8
f 8 14 15
f 11 16 17
f 11 17 18
f 11 18 12
f 12 18 17
f 12 17 23
f 12 23 29
f 12 29 35
f 12 35 32
f 12 32 24
f 12 24 19
f 12 19 13
f 14 20 21
f 14 21 15
f 16 22 17
f 17 22 23
f 19 24 33
f 19 33 34
f 19 34 26
f 19 26 25
f 20 25 26
f 20 26 21
f 21 26 27
f 22 28 23
f 23 28 30
f 23 30 31
f 23 31 29
f 24 32 33
f 26 34 27
f 29 31 35
f 31 36 35
f 32 35 33
f 33 35 36

