# https://github.com/mikedh/trimesh
v 0.05406133 0.00822361 -0.00672084
v 0.05406133 0.00470859 -0.00672084
v 0.05406662 0.00486874 -0.00960192
v 0.05406133 0.00822361 -0.00960156
v 0.04070668 0.00822361 -0.00672084
v 0.05406133 0.00275923 -0.00919719
v 0.05406662 0.00267248 -0.00960192
v 0.04955066 -0.00029786 -0.00672084
v 0.05157437 -0.00029786 -0.00930442
v 0.05406662 0.00486874 -0.01037490
v 0.05406662 0.00486624 -0.01039584
v 0.05405868 0.00486874 -0.01039584
v 0.04825225 0.00486874 -0.01040920
v 0.04292628 0.00822361 -0.00960156
v 0.04061271 0.00822361 -0.00731258
v 0.04076757 0.00800590 -0.00672084
v 0.05406662 0.00264662 -0.00971998
v 0.04458337 -0.00029786 -0.00672084
v 0.05157834 -0.00029786 -0.00934016
v 0.05406662 0.00395954 -0.01039584
v 0.04825755 0.00251983 -0.01040920
v 0.04825358 0.00467939 -0.01040920
v 0.04502279 0.00486874 -0.01040920
v 0.04292628 0.00821276 -0.00960156
v 0.04120302 0.00822361 -0.00867116
v 0.04054521 0.00822361 -0.00794006
v 0.05406662 0.00276590 -0.01019655
v 0.05159687 -0.00029786 -0.00960156
v 0.04458337 -0.00029786 -0.00684034
v 0.05406662 0.00323968 -0.01035974
v 0.05045862 0.00001911 -0.01039584
v 0.04825755 0.00001911 -0.01040920
v 0.04513926 0.00001911 -0.01040920
v 0.04075566 0.00822361 -0.00838414
v 0.04458734 -0.00029786 -0.00756025
v 0.04068683 0.00822361 -0.00829857
v 0.05406662 0.00276757 -0.01020160
v 0.05080009 0.00001911 -0.01033843
v 0.05117863 0.00001911 -0.01027453
v 0.05136525 0.00001911 -0.01019980
v 0.05157040 0.00001911 -0.01011676
v 0.04563295 -0.00029786 -0.00960156
v 0.04501485 -0.00029786 -0.00867261
v 0.04499367 -0.00029786 -0.00863867
v 0.04477925 -0.00029786 -0.00828016
v 0.04476205 -0.00029786 -0.00821806
f 1 2 7
f 1 7 3
f 1 3 10
f 1 10 4
f 1 4 14
f 1 14 25
f 1 25 34
f 1 34 36
f 1 36 26
f 1 26 15
f 1 15 5
f 1 5 16
f 1 16 18
f 1 18 8
f 1 8 2
f 2 6 7
f 2 8 9
f 2 9 6
f 3 7 17
f 3 17 27
f 3 27 37
f 3 37 30
f 3 30 20
f 3 20 11
f 3 11 10
f 4 10 11
f 4 11 12
f 4 12 13
f 4 13 23
f 4 23 14
f 5 15 16
f 6 9 7
f 7 9 17
f 8 18 29
f 8 29 35
f 8 35 46
f 8 46 45
f 8 45 44
f 8 44 43
f 8 43 42
f 8 42 28
f 8 28 19
f 8 19 9
f 9 19 17
f 11 20 32
f 11 32 21
f 11 21 22
f 11 22 13
f 11 13 12
f 13 22 21
f 13 21 32
f 13 32 33
f 13 33 23
f 14 23 24
f 14 24 25
f 15 26 16
f 16 26 18
f 17 19 28
f 17 28 27
f 18 26 29
f 20 30 31
f 20 31 32
f 23 33 24
f 24 33 25
f 25 33 34
f 26 35 29
f 26 36 33
f 26 33 35
f 27 28 37
f 28 38 39
f 28 39 40
f 28 40 41
f 28 41 37
f 28 42 33
f 28 33 32
f 28 32 31
f 28 31 38
f 30 37 39
f 30 39 38
f 30 38 31
f 33 42 43
f 33 43 44
f 33 44 45
f 33 45 46
f 33 46 35
f 33 36 34
f 37 41 40
f 37 40 39

