# https://github.com/mikedh/trimesh
v 0.00993625 0.00284704 0.00090294
v 0.00993625 0.00284537 0.00119834
v 0.00993625 0.00284481 -0.00090238
v 0.00148866 0.00284146 -0.00090238
v 0.00148866 0.00284146 0.00090238
v 0.00489549 0.00283645 0.00126411
v 0.00509995 0.00283645 0.00127024
v 0.00535752 0.00283645 0.00127637
v 0.00993625 0.00283979 0.00131483
v 0.00148866 0.00283868 0.00106903
v 0.00993625 0.00284425 -0.00116992
v 0.00148866 0.00283868 -0.00107015
v 0.00134792 0.00283812 -0.00105677
v 0.00134173 0.00283868 -0.00090238
v 0.00134173 0.00283868 0.00090238
v 0.00134792 0.00283812 0.00105621
v 0.00148866 0.00283143 0.00119834
v 0.00148866 0.00280022 0.00141850
v 0.00993625 0.00282809 0.00143578
v 0.00993625 0.00284202 -0.00121451
v 0.00489549 0.00283645 -0.00126355
v 0.00148866 0.00283143 -0.00119946
v 0.00432547 0.00283589 -0.00125185
v 0.00148866 0.00280078 -0.00141850
v 0.00123020 0.00269989 -0.00167601
v 0.00123020 0.00274448 -0.00141850
v 0.00124967 0.00278907 -0.00114985
v 0.00121338 0.00278517 -0.00090238
v 0.00121338 0.00278517 0.00090238
v 0.00124967 0.00278851 0.00114985
v 0.00123020 0.00274448 0.00141850
v 0.00123020 0.00269989 0.00167601
v 0.00148866 0.00274615 0.00167601
v 0.00993625 0.00277681 0.00167601
v 0.00993625 0.00283032 -0.00140680
v 0.00993625 0.00282697 -0.00143299
v 0.00148866 0.00274671 -0.00167601
v 0.00993625 0.00279019 -0.00161191
v 0.00123020 0.00262911 -0.00189505
v 0.00108770 0.00259957 -0.00184712
v 0.00108062 0.00261629 -0.00167601
v 0.00108062 0.00263357 -0.00141850
v 0.00108062 0.00265084 -0.00116044
v 0.00108062 0.00265642 -0.00090238
v 0.00108062 0.00265642 0.00090238
v 0.00108062 0.00265084 0.00116044
v 0.00108062 0.00263357 0.00141850
v 0.00108062 0.00261629 0.00167601
v 0.00108770 0.00259957 0.00184712
v 0.00123020 0.00262911 0.00189505
v 0.00148866 0.00264806 0.00192181
v 0.00993625 0.00267648 0.00193407
v 0.00148866 0.00264861 -0.00192236
v 0.00993625 0.00277625 -0.00167656
v 0.00993625 0.00270156 -0.00187109
v 0.00123020 0.00234150 -0.00234150
v 0.00109832 0.00232590 -0.00232590
v 0.00148866 0.00257114 -0.00205167
v 0.00089474 0.00164981 -0.00139286
v 0.00089474 0.00167712 -0.00135440
v 0.00089474 0.00192236 -0.00091854
v 0.00089474 0.00193518 -0.00088956
v 0.00089474 0.00201990 -0.00064432
v 0.00089474 0.00210239 -0.00038626
v 0.00089474 0.00215367 -0.00012485
v 0.00089474 0.00217095 0.00012819
v 0.00089474 0.00216983 0.00016108
v 0.00089474 0.00214754 0.00034613
v 0.00089474 0.00213918 0.00037455
v 0.00089474 0.00192459 0.00092244
v 0.00089474 0.00191735 0.00093749
v 0.00089474 0.00184656 0.00107182
v 0.00089474 0.00164368 0.00139008
v 0.00108770 0.00235655 0.00219213
v 0.00109832 0.00232590 0.00232590
v 0.00123020 0.00234150 0.00234150
v 0.00148866 0.00257058 0.00205056
v 0.00993625 0.00259678 0.00209013
v 0.00993625 0.00265920 0.00196862
v 0.00993625 0.00267593 -0.00193407
v 0.00993625 0.00259622 -0.00208902
v 0.00123020 0.00189505 -0.00262966
v 0.00148866 0.00247583 -0.00219213
v 0.00148866 0.00235488 -0.00235488
v 0.00148866 0.00219157 -0.00247527
v 0.00148866 0.00205056 -0.00257058
v 0.00108770 0.00184712 -0.00260012
v 0.00089474 0.00110805 -0.00188112
v 0.00089474 0.00114260 -0.00185436
v 0.00089474 0.00138840 -0.00164424
v 0.00089474 0.00141794 -0.00161693
v 0.00089474 0.00161860 0.00141906
v 0.00123020 0.00189505 0.00262966
v 0.00089474 0.00139565 0.00164870
v 0.00108770 0.00184712 0.00260012
v 0.00148866 0.00205112 0.00257114
v 0.00148866 0.00219157 0.00247583
v 0.00148866 0.00235488 0.00235488
v 0.00148866 0.00247527 0.00219213
v 0.00993625 0.00249924 0.00221888
v 0.00993625 0.00252376 -0.00218656
v 0.00123020 0.00167601 -0.00269989
v 0.00148866 0.00192125 -0.00264861
v 0.00148866 0.00167601 -0.00274671
v 0.00993625 0.00249924 -0.00221833
v 0.00993625 0.00237049 -0.00236993
v 0.00993625 0.00225623 -0.00246747
v 0.00993625 0.00221833 -0.00249868
v 0.00993625 0.00208957 -0.00259678
v 0.00123020 0.00141850 -0.00274504
v 0.00108062 0.00167601 -0.00261629
v 0.00089474 0.00037901 -0.00214364
v 0.00123020 0.00167601 0.00270045
v 0.00148866 0.00167601 0.00274727
v 0.00148866 0.00192181 0.00264861
v 0.00089474 0.00135552 0.00167545
v 0.00123020 0.00141850 0.00274504
v 0.00089474 0.00091854 0.00192794
v 0.00089474 0.00089235 0.00193853
v 0.00089474 0.00044199 0.00207731
v 0.00108062 0.00167601 0.00261629
v 0.00993625 0.00208902 0.00259622
v 0.00993625 0.00218656 0.00252376
v 0.00993625 0.00221833 0.00249980
v 0.00993625 0.00236993 0.00237049
v 0.00993625 0.00246747 0.00225678
v 0.00148866 0.00141850 -0.00280022
v 0.00134792 0.00105621 -0.00283812
v 0.00993625 0.00196807 -0.00265920
v 0.00993625 0.00193407 -0.00267648
v 0.00993625 0.00167656 -0.00277625
v 0.00993625 0.00143634 -0.00282753
v 0.00124967 0.00114985 -0.00278907
v 0.00108062 0.00141850 -0.00263356
v 0.00089474 0.00012875 -0.00217764
v 0.00089474 0.00016275 -0.00217429
v 0.00089474 0.00035337 -0.00214921
v 0.00121338 0.00090294 -0.00278573
v 0.00134792 0.00105677 0.00283812
v 0.00148866 0.00141850 0.00280078
v 0.00993625 0.00161302 0.00279019
v 0.00993625 0.00167601 0.00277625
v 0.00993625 0.00187109 0.00270212
v 0.00174623 0.00192292 0.00264917
v 0.00124967 0.00114985 0.00278907
v 0.00089474 0.00013878 0.00215869
v 0.00108062 0.00141850 0.00263356
v 0.00121338 0.00090294 0.00278573
v 0.00993625 0.00205502 0.00261406
v 0.00148866 0.00119834 -0.00283143
v 0.00535752 0.00127637 -0.00283645
v 0.00509995 0.00127024 -0.00283645
v 0.00148866 0.00106903 -0.00283923
v 0.00148866 0.00090294 -0.00284146
v 0.00134173 0.00090294 -0.00283923
v 0.00993625 0.00138172 -0.00283199
v 0.00108062 0.00116044 -0.00265084
v 0.00089474 0.00000000 -0.00217764
v 0.00108062 0.00090294 -0.00265697
v 0.00121338 0.00000000 -0.00278573
v 0.00148866 0.00090294 0.00284146
v 0.00148866 0.00107015 0.00283923
v 0.00148866 0.00119946 0.00283199
v 0.00134173 0.00090294 0.00283923
v 0.00484061 0.00126300 0.00283645
v 0.00993625 0.00143244 0.00282753
v 0.00993625 0.00193407 0.00267648
v 0.00089474 -0.00013878 0.00215869
v 0.00108062 0.00090294 0.00265697
v 0.00108062 0.00116044 0.00265084
v 0.00114612 0.00000000 0.00272107
v 0.00121338 -0.00090294 0.00278573
v 0.00489460 0.00126411 -0.00283645
v 0.00277828 0.00121673 -0.00283422
v 0.00561509 0.00127916 -0.00283645
v 0.00993625 0.00119834 -0.00284481
v 0.00484061 0.00126188 -0.00283645
v 0.00993625 0.00117716 -0.00284536
v 0.00148866 -0.00090294 -0.00284146
v 0.00993625 0.00090182 -0.00284704
v 0.00134173 0.00000000 -0.00283923
v 0.00108062 0.00000000 -0.00265697
v 0.00108062 -0.00090294 -0.00265642
v 0.00089474 -0.00012875 -0.00217708
v 0.00121338 -0.00090294 -0.00278517
v 0.00141431 0.00000000 0.00284035
v 0.00148866 -0.00090294 0.00284146
v 0.00993625 -0.00090182 0.00284704
v 0.00993625 0.00112979 0.00284481
v 0.00406701 0.00124349 0.00283589
v 0.00993625 0.00116936 0.00284425
v 0.00134173 0.00000000 0.00283923
v 0.00993625 0.00130424 0.00283979
v 0.00993625 0.00140624 0.00283032
v 0.00089474 -0.00015941 0.00215534
v 0.00108062 -0.00167545 0.00261629
v 0.00108062 -0.00141850 0.00263356
v 0.00108062 -0.00116044 0.00265084
v 0.00108062 -0.00090294 0.00265697
v 0.00124967 -0.00114985 0.00278907
v 0.00134792 -0.00105621 0.00283812
v 0.00134261 -0.00090294 0.00283923
v 0.00148866 -0.00107070 -0.00283868
v 0.00134792 -0.00105677 -0.00283812
v 0.00134261 -0.00090294 -0.00283868
v 0.00993625 -0.00116936 -0.00284425
v 0.00108062 -0.00116044 -0.00265084
v 0.00108062 -0.00167545 -0.00261629
v 0.00089474 -0.00035337 -0.00214921
v 0.00124967 -0.00114985 -0.00278907
v 0.00148866 -0.00106959 0.00283923
v 0.00993625 -0.00119834 0.00284536
v 0.00089474 -0.00064432 0.00201489
v 0.00108770 -0.00184712 0.00259957
v 0.00123109 -0.00141850 0.00274504
v 0.00148866 -0.00141850 0.00280022
v 0.00148866 -0.00119890 0.00283143
v 0.00123109 -0.00167545 0.00269989
v 0.00432458 -0.00125185 -0.00283589
v 0.00148866 -0.00120001 -0.00283143
v 0.00148866 -0.00141850 -0.00280078
v 0.00123109 -0.00167545 -0.00269989
v 0.00123109 -0.00141850 -0.00274448
v 0.00993625 -0.00130424 -0.00283923
v 0.00458215 -0.00125909 -0.00283589
v 0.00108770 -0.00184712 -0.00259957
v 0.00089474 -0.00107293 -0.00189505
v 0.00277828 -0.00121673 0.00283422
v 0.00484061 -0.00126244 0.00283645
v 0.00489460 -0.00126411 0.00283645
v 0.00509995 -0.00127024 0.00283645
v 0.00535752 -0.00127637 0.00283645
v 0.00993625 -0.00138172 0.00283255
v 0.00089474 -0.00091854 0.00192794
v 0.00109832 -0.00232534 0.00232590
v 0.00123109 -0.00189505 0.00262911
v 0.00089474 -0.00139565 0.00164870
v 0.00148866 -0.00167545 0.00274671
v 0.00993625 -0.00143634 0.00282809
v 0.00148866 -0.00167545 -0.00274671
v 0.00993625 -0.00143244 -0.00282697
v 0.00993625 -0.00161302 -0.00279019
v 0.00123109 -0.00189505 -0.00262911
v 0.00993625 -0.00140624 -0.00283032
v 0.00109832 -0.00232534 -0.00232590
v 0.00089474 -0.00110805 -0.00188112
v 0.00089474 -0.00142408 0.00161971
v 0.00089474 -0.00164368 0.00139008
v 0.00108770 -0.00235655 0.00219157
v 0.00108770 -0.00259957 0.00184712
v 0.00123109 -0.00262966 0.00189505
v 0.00123109 -0.00234095 0.00234150
v 0.00148866 -0.00205056 0.00257058
v 0.00148866 -0.00192181 0.00264861
v 0.00993625 -0.00193407 0.00267648
v 0.00993625 -0.00167656 0.00277681
v 0.00148866 -0.00192181 -0.00264861
v 0.00993625 -0.00167601 -0.00277625
v 0.00993625 -0.00187109 -0.00270156
v 0.00123109 -0.00234095 -0.00234150
v 0.00148866 -0.00205167 -0.00257114
v 0.00108770 -0.00259957 -0.00184712
v 0.00089474 -0.00164981 -0.00139342
v 0.00089474 -0.00138785 -0.00164424
v 0.00123109 -0.00262911 -0.00189505
v 0.00089474 -0.00167210 0.00135218
v 0.00123109 -0.00274504 0.00141850
v 0.00123109 -0.00270045 0.00167601
v 0.00089474 -0.00192459 0.00092300
v 0.00089474 -0.00214754 0.00034668
v 0.00108062 -0.00261629 0.00167601
v 0.00148866 -0.00274727 0.00167601
v 0.00148866 -0.00264861 0.00192236
v 0.00148866 -0.00257114 0.00205112
v 0.00148866 -0.00247527 0.00219157
v 0.00148866 -0.00235488 0.00235488
v 0.00148866 -0.00219157 0.00247527
v 0.00993625 -0.00208957 0.00259678
v 0.00993625 -0.00193407 -0.00267648
v 0.00993625 -0.00205502 -0.00261406
v 0.00993625 -0.00208902 -0.00259622
v 0.00148866 -0.00219157 -0.00247583
v 0.00148866 -0.00235488 -0.00235488
v 0.00148866 -0.00247527 -0.00219157
v 0.00148866 -0.00257058 -0.00205056
v 0.00123109 -0.00269989 -0.00167601
v 0.00123109 -0.00274448 -0.00141850
v 0.00108062 -0.00261629 -0.00167601
v 0.00089474 -0.00208846 -0.00045481
v 0.00089474 -0.00192236 -0.00091854
v 0.00089474 -0.00184322 -0.00106680
v 0.00148866 -0.00264861 -0.00192125
v 0.00148866 -0.00274615 -0.00167601
v 0.00124967 -0.00278907 0.00114985
v 0.00134792 -0.00283812 0.00105677
v 0.00148866 -0.00280078 0.00141850
v 0.00089474 -0.00217039 0.00012875
v 0.00108062 -0.00263357 0.00141850
v 0.00121338 -0.00278573 0.00090294
v 0.00993625 -0.00279019 0.00161191
v 0.00993625 -0.00277625 0.00167601
v 0.00993625 -0.00270156 0.00187109
v 0.00993625 -0.00267593 0.00193407
v 0.00993625 -0.00259622 0.00208902
v 0.00993625 -0.00252376 0.00218656
v 0.00993625 -0.00249924 0.00221833
v 0.00993625 -0.00237049 0.00236993
v 0.00993625 -0.00225623 0.00246747
v 0.00993625 -0.00221833 0.00249924
v 0.00993625 -0.00218656 -0.00252376
v 0.00993625 -0.00221833 -0.00249924
v 0.00993625 -0.00236993 -0.00237049
v 0.00993625 -0.00246747 -0.00225678
v 0.00993625 -0.00249924 -0.00221888
v 0.00993625 -0.00259678 -0.00209013
v 0.00148866 -0.00280022 -0.00141850
v 0.00134792 -0.00283812 -0.00105621
v 0.00124967 -0.00278907 -0.00114985
v 0.00108062 -0.00263357 -0.00141850
v 0.00089474 -0.00216983 0.00008583
v 0.00089474 -0.00215144 -0.00014603
v 0.00121338 -0.00278573 -0.00090238
v 0.00993625 -0.00265920 -0.00196862
v 0.00993625 -0.00267648 -0.00193407
v 0.00993625 -0.00277681 -0.00167656
v 0.00993625 -0.00282809 -0.00143634
v 0.00148866 -0.00284146 0.00090294
v 0.00148866 -0.00283923 0.00107070
v 0.00148866 -0.00283199 0.00119946
v 0.00134261 -0.00283923 0.00090294
v 0.00484061 -0.00283645 0.00126300
v 0.00993625 -0.00282697 0.00143244
v 0.00108062 -0.00265697 -0.00090238
v 0.00108062 -0.00265697 0.00090294
v 0.00108062 -0.00265084 0.00116044
v 0.00148866 -0.00283143 -0.00119890
v 0.00535752 -0.00283645 -0.00127693
v 0.00509995 -0.00283645 -0.00127080
v 0.00134261 -0.00283923 -0.00090238
v 0.00148866 -0.00283923 -0.00106903
v 0.00148866 -0.00284146 -0.00090238
v 0.00108062 -0.00265084 -0.00116044
v 0.00993625 -0.00283979 -0.00131539
v 0.00993625 -0.00284704 -0.00090238
v 0.00993625 -0.00284481 0.00090294
v 0.00993625 -0.00284425 0.00116936
v 0.00432458 -0.00283589 0.00125185
v 0.00993625 -0.00284202 0.00121451
v 0.00489460 -0.00283645 0.00126355
v 0.00993625 -0.00283032 0.00140680
v 0.00484061 -0.00283645 -0.00126244
v 0.00303496 -0.00283422 -0.00122064
v 0.00993625 -0.00284537 -0.00119890
f 1 2 9
f 1 9 19
f 1 19 34
f 1 34 52
f 1 52 79
f 1 79 78
f 1 78 100
f 1 100 126
f 1 126 125
f 1 125 124
f 1 124 123
f 1 123 122
f 1 122 149
f 1 149 167
f 1 167 143
f 1 143 142
f 1 142 141
f 1 141 166
f 1 166 194
f 1 194 193
f 1 193 191
f 1 191 189
f 1 189 188
f 1 188 212
f 1 212 233
f 1 233 239
f 1 239 256
f 1 256 255
f 1 255 278
f 1 278 309
f 1 309 308
f 1 308 307
f 1 307 306
f 1 306 305
f 1 305 304
f 1 304 303
f 1 303 302
f 1 302 301
f 1 301 300
f 1 300 332
f 1 332 350
f 1 350 348
f 1 348 346
f 1 346 345
f 1 345 344
f 1 344 353
f 1 353 343
f 1 343 326
f 1 326 325
f 1 325 324
f 1 324 323
f 1 323 315
f 1 315 314
f 1 314 313
f 1 313 312
f 1 312 311
f 1 311 310
f 1 310 281
f 1 281 280
f 1 280 279
f 1 279 259
f 1 259 258
f 1 258 242
f 1 242 241
f 1 241 244
f 1 244 224
f 1 224 206
f 1 206 180
f 1 180 178
f 1 178 176
f 1 176 156
f 1 156 132
f 1 132 131
f 1 131 130
f 1 130 129
f 1 129 109
f 1 109 108
f 1 108 107
f 1 107 106
f 1 106 105
f 1 105 101
f 1 101 81
f 1 81 80
f 1 80 55
f 1 55 54
f 1 54 38
f 1 38 36
f 1 36 35
f 1 35 20
f 1 20 11
f 1 11 3
f 1 3 4
f 1 4 5
f 1 5 2
f 2 6 7
f 2 7 8
f 2 8 9
f 2 5 10
f 2 10 6
f 3 11 4
f 4 12 13
f 4 13 14
f 4 14 15
f 4 15 5
f 4 11 12
f 5 15 16
f 5 16 10
f 6 10 17
f 6 17 7
f 7 17 18
f 7 18 8
f 8 18 19
f 8 19 9
f 10 16 17
f 11 20 21
f 11 21 12
f 12 22 13
f 12 21 23
f 12 23 22
f 13 22 24
f 13 24 25
f 13 25 26
f 13 26 27
f 13 27 28
f 13 28 14
f 14 28 29
f 14 29 15
f 15 29 16
f 16 18 17
f 16 29 30
f 16 30 31
f 16 31 32
f 16 32 18
f 18 32 33
f 18 33 19
f 19 33 34
f 20 35 21
f 21 35 36
f 21 36 24
f 21 24 23
f 22 23 24
f 24 37 25
f 24 36 38
f 24 38 37
f 25 39 40
f 25 40 26
f 25 37 39
f 26 40 41
f 26 41 27
f 27 41 28
f 28 41 42
f 28 42 43
f 28 43 44
f 28 44 45
f 28 45 29
f 29 45 46
f 29 46 47
f 29 47 48
f 29 48 30
f 30 48 31
f 31 48 49
f 31 49 32
f 32 49 50
f 32 50 33
f 33 50 51
f 33 51 52
f 33 52 34
f 37 53 39
f 37 38 54
f 37 54 55
f 37 55 53
f 39 56 57
f 39 57 40
f 39 53 58
f 39 58 56
f 40 57 59
f 40 59 60
f 40 60 61
f 40 61 62
f 40 62 63
f 40 63 64
f 40 64 41
f 41 64 65
f 41 65 66
f 41 66 42
f 42 66 43
f 43 66 44
f 44 66 45
f 45 66 46
f 46 66 67
f 46 67 47
f 47 67 48
f 48 67 68
f 48 68 49
f 49 68 69
f 49 69 70
f 49 70 71
f 49 71 72
f 49 72 73
f 49 73 74
f 49 74 75
f 49 75 50
f 50 75 76
f 50 76 77
f 50 77 51
f 51 77 78
f 51 78 79
f 51 79 52
f 53 55 80
f 53 80 81
f 53 81 58
f 56 82 57
f 56 58 83
f 56 83 84
f 56 84 85
f 56 85 86
f 56 86 82
f 57 82 87
f 57 87 88
f 57 88 89
f 57 89 90
f 57 90 91
f 57 91 59
f 58 81 83
f 59 91 90
f 59 90 89
f 59 89 88
f 59 88 112
f 59 112 137
f 59 137 136
f 59 136 135
f 59 135 158
f 59 158 184
f 59 184 209
f 59 209 227
f 59 227 246
f 59 246 264
f 59 264 263
f 59 263 291
f 59 291 290
f 59 290 289
f 59 289 321
f 59 321 320
f 59 320 297
f 59 297 270
f 59 270 269
f 59 269 266
f 59 266 248
f 59 248 247
f 59 247 237
f 59 237 234
f 59 234 213
f 59 213 195
f 59 195 168
f 59 168 146
f 59 146 120
f 59 120 119
f 59 119 118
f 59 118 116
f 59 116 94
f 59 94 92
f 59 92 73
f 59 73 72
f 59 72 71
f 59 71 70
f 59 70 69
f 59 69 68
f 59 68 67
f 59 67 66
f 59 66 65
f 59 65 64
f 59 64 63
f 59 63 62
f 59 62 61
f 59 61 60
f 73 92 75
f 73 75 74
f 75 93 76
f 75 92 94
f 75 94 95
f 75 95 93
f 76 93 96
f 76 96 97
f 76 97 98
f 76 98 99
f 76 99 77
f 77 99 78
f 78 99 98
f 78 98 100
f 81 101 83
f 82 102 87
f 82 86 103
f 82 103 104
f 82 104 102
f 83 101 84
f 84 101 105
f 84 105 106
f 84 106 107
f 84 107 108
f 84 108 109
f 84 109 85
f 85 109 86
f 86 109 103
f 87 102 110
f 87 110 111
f 87 111 112
f 87 112 88
f 93 95 113
f 93 113 114
f 93 114 115
f 93 115 96
f 94 116 95
f 95 117 113
f 95 116 118
f 95 118 119
f 95 119 120
f 95 120 121
f 95 121 117
f 96 115 122
f 96 122 97
f 97 122 98
f 98 122 123
f 98 123 124
f 98 124 125
f 98 125 126
f 98 126 100
f 102 104 127
f 102 127 128
f 102 128 110
f 103 109 129
f 103 129 130
f 103 130 104
f 104 130 131
f 104 131 132
f 104 132 127
f 110 133 111
f 110 128 133
f 111 134 135
f 111 135 136
f 111 136 137
f 111 137 112
f 111 133 138
f 111 138 134
f 113 117 139
f 113 139 140
f 113 140 114
f 114 140 141
f 114 141 142
f 114 142 143
f 114 143 115
f 115 143 144
f 115 144 122
f 117 121 145
f 117 145 139
f 120 146 121
f 121 146 147
f 121 147 148
f 121 148 145
f 122 144 149
f 127 150 128
f 127 132 151
f 127 151 152
f 127 152 150
f 128 150 153
f 128 153 154
f 128 154 155
f 128 155 138
f 128 138 133
f 132 156 151
f 134 138 157
f 134 157 135
f 135 157 159
f 135 159 182
f 135 182 158
f 138 155 181
f 138 181 160
f 138 160 182
f 138 182 159
f 138 159 157
f 139 161 162
f 139 162 163
f 139 163 140
f 139 145 148
f 139 148 164
f 139 164 161
f 140 163 165
f 140 165 166
f 140 166 141
f 143 167 144
f 144 167 149
f 146 168 199
f 146 199 169
f 146 169 170
f 146 170 147
f 147 170 148
f 148 171 172
f 148 172 192
f 148 192 164
f 148 170 169
f 148 169 171
f 150 152 173
f 150 173 174
f 150 174 153
f 151 156 175
f 151 175 176
f 151 176 152
f 152 176 173
f 153 174 177
f 153 177 173
f 153 173 176
f 153 176 178
f 153 178 154
f 154 179 181
f 154 181 155
f 154 178 180
f 154 180 179
f 156 176 175
f 158 182 183
f 158 183 184
f 160 181 185
f 160 185 183
f 160 183 182
f 161 164 186
f 161 186 187
f 161 187 188
f 161 188 189
f 161 189 162
f 162 190 163
f 162 189 191
f 162 191 165
f 162 165 190
f 163 190 165
f 164 192 186
f 165 191 193
f 165 193 194
f 165 194 166
f 168 195 196
f 168 196 197
f 168 197 198
f 168 198 199
f 169 199 171
f 171 199 172
f 172 200 201
f 172 201 202
f 172 202 192
f 172 199 198
f 172 198 197
f 172 197 196
f 172 196 200
f 173 177 174
f 179 203 204
f 179 204 205
f 179 205 181
f 179 180 206
f 179 206 203
f 181 205 185
f 183 185 207
f 183 207 184
f 184 207 208
f 184 208 209
f 185 205 204
f 185 204 210
f 185 210 208
f 185 208 207
f 186 192 202
f 186 202 187
f 187 202 201
f 187 201 211
f 187 211 212
f 187 212 188
f 195 213 196
f 196 213 214
f 196 214 215
f 196 215 200
f 200 215 201
f 201 216 217
f 201 217 211
f 201 215 218
f 201 218 216
f 203 219 220
f 203 220 204
f 203 206 219
f 204 220 221
f 204 221 222
f 204 222 223
f 204 223 210
f 206 224 225
f 206 225 219
f 208 210 223
f 208 223 226
f 208 226 209
f 209 226 227
f 211 217 228
f 211 228 229
f 211 229 212
f 212 229 230
f 212 230 231
f 212 231 232
f 212 232 233
f 213 234 214
f 214 235 236
f 214 236 218
f 214 218 215
f 214 234 237
f 214 237 235
f 216 218 238
f 216 238 239
f 216 239 232
f 216 232 231
f 216 231 217
f 217 231 230
f 217 230 228
f 218 236 238
f 219 225 221
f 219 221 220
f 221 240 222
f 221 225 241
f 221 241 242
f 221 242 240
f 222 243 226
f 222 226 223
f 222 240 243
f 224 244 225
f 225 244 241
f 226 243 245
f 226 245 246
f 226 246 227
f 228 230 229
f 232 239 233
f 235 237 247
f 235 247 248
f 235 248 249
f 235 249 250
f 235 250 251
f 235 251 252
f 235 252 236
f 236 252 253
f 236 253 254
f 236 254 238
f 238 254 255
f 238 255 256
f 238 256 239
f 240 257 243
f 240 242 258
f 240 258 259
f 240 259 257
f 243 260 245
f 243 257 261
f 243 261 260
f 245 262 263
f 245 263 264
f 245 264 246
f 245 260 265
f 245 265 262
f 248 266 249
f 249 266 250
f 250 267 268
f 250 268 251
f 250 266 269
f 250 269 270
f 250 270 271
f 250 271 267
f 251 268 272
f 251 272 273
f 251 273 274
f 251 274 252
f 252 274 275
f 252 275 276
f 252 276 277
f 252 277 253
f 253 277 278
f 253 278 254
f 254 278 255
f 257 259 279
f 257 279 280
f 257 280 281
f 257 281 261
f 260 261 282
f 260 282 283
f 260 283 284
f 260 284 285
f 260 285 265
f 261 281 282
f 262 265 286
f 262 286 287
f 262 287 288
f 262 288 289
f 262 289 290
f 262 290 291
f 262 291 263
f 265 285 292
f 265 292 293
f 265 293 286
f 267 271 294
f 267 294 295
f 267 295 268
f 268 295 296
f 268 296 272
f 270 297 271
f 271 297 298
f 271 298 299
f 271 299 294
f 272 296 300
f 272 300 301
f 272 301 302
f 272 302 273
f 273 302 303
f 273 303 304
f 273 304 274
f 274 304 275
f 275 304 276
f 276 304 305
f 276 305 306
f 276 306 307
f 276 307 308
f 276 308 309
f 276 309 278
f 276 278 277
f 281 310 283
f 281 283 282
f 283 310 311
f 283 311 312
f 283 312 313
f 283 313 314
f 283 314 315
f 283 315 284
f 284 315 285
f 285 315 292
f 286 293 316
f 286 316 317
f 286 317 287
f 287 317 318
f 287 318 288
f 288 319 320
f 288 320 321
f 288 321 289
f 288 318 322
f 288 322 319
f 292 315 323
f 292 323 324
f 292 324 293
f 293 324 325
f 293 325 326
f 293 326 316
f 294 299 295
f 295 327 328
f 295 328 329
f 295 329 296
f 295 299 330
f 295 330 327
f 296 329 331
f 296 331 332
f 296 332 300
f 297 320 333
f 297 333 334
f 297 334 335
f 297 335 298
f 298 335 299
f 299 322 339
f 299 339 330
f 299 335 334
f 299 334 333
f 299 333 322
f 316 336 317
f 316 326 337
f 316 337 338
f 316 338 336
f 317 339 322
f 317 322 318
f 317 336 340
f 317 340 341
f 317 341 339
f 319 322 342
f 319 342 320
f 320 342 333
f 322 333 342
f 326 343 337
f 327 344 345
f 327 345 346
f 327 346 328
f 327 330 339
f 327 339 341
f 327 341 344
f 328 347 329
f 328 346 331
f 328 331 347
f 329 347 331
f 331 346 348
f 331 348 349
f 331 349 350
f 331 350 332
f 336 338 351
f 336 351 352
f 336 352 340
f 337 343 353
f 337 353 338
f 338 353 351
f 340 352 351
f 340 351 353
f 340 353 341
f 341 353 344
f 348 350 349

