# https://github.com/mikedh/trimesh
v -0.00857174 0.00290579 -0.00914104
v -0.00882926 0.00290579 -0.00912690
v -0.00857174 0.00322567 -0.00914104
v -0.00779826 0.00290579 -0.00914104
v -0.00901655 0.00290579 -0.00907035
v -0.00882926 0.00296752 -0.00912358
v -0.00857174 0.00348381 -0.00913522
v -0.00831331 0.00399941 -0.00914021
v -0.00779826 0.00477315 -0.00914104
v -0.00754164 0.00296752 -0.00914104
v -0.00754164 0.00290579 -0.00914021
v -0.00900755 0.00296752 -0.00906702
v -0.00914531 0.00290579 -0.00895057
v -0.00878514 0.00348381 -0.00907866
v -0.00857174 0.00374126 -0.00910944
v -0.00831331 0.00425755 -0.00911692
v -0.00805489 0.00451500 -0.00913689
v -0.00754164 0.00528874 -0.00913938
v -0.00728411 0.00554689 -0.00914104
v -0.00341494 0.00735111 -0.00914104
v -0.00727421 0.00290579 -0.00908948
v -0.00336001 0.00735111 -0.00914021
v -0.00336001 0.00707964 -0.00909197
v -0.00897783 0.00315552 -0.00904539
v -0.00913721 0.00296752 -0.00893976
v -0.00939293 0.00290579 -0.00867942
v -0.00873291 0.00374126 -0.00905288
v -0.00857804 0.00397906 -0.00907367
v -0.00823047 0.00472755 -0.00906036
v -0.00801256 0.00502989 -0.00907284
v -0.00808010 0.00479770 -0.00909280
v -0.00779826 0.00502989 -0.00912940
v -0.00848709 0.00425755 -0.00905953
v -0.00831601 0.00449746 -0.00907367
v -0.00728411 0.00580433 -0.00912275
v -0.00702659 0.00606178 -0.00912857
v -0.00676906 0.00631993 -0.00913356
v -0.00651154 0.00631993 -0.00914104
v -0.00336001 0.00760926 -0.00914104
v -0.00712654 0.00302223 -0.00905621
v -0.00715805 0.00290579 -0.00889817
v -0.00346536 0.00692671 -0.00906203
v -0.00336001 0.00695407 -0.00889817
v -0.00908949 0.00323058 -0.00889984
v -0.00894632 0.00332738 -0.00901795
v -0.00933981 0.00320673 -0.00863451
v -0.00920024 0.00330564 -0.00875262
v -0.00975311 0.00290579 -0.00828102
v -0.00975491 0.00291000 -0.00827852
v -0.00870410 0.00387875 -0.00903042
v -0.00818185 0.00489942 -0.00902626
v -0.00795854 0.00520456 -0.00905038
v -0.00845018 0.00439996 -0.00903375
v -0.00772893 0.00550129 -0.00906369
v -0.00780637 0.00529014 -0.00908615
v -0.00727691 0.00604985 -0.00907118
v -0.00702659 0.00631642 -0.00908033
v -0.00756595 0.00557074 -0.00909447
v -0.00749031 0.00580433 -0.00906619
v -0.00677086 0.00658018 -0.00908365
v -0.00651154 0.00657667 -0.00913356
v -0.00547874 0.00735111 -0.00914104
v -0.00336001 0.00838300 -0.00914104
v -0.00716615 0.00290579 -0.00886740
v -0.00336001 0.00696670 -0.00884993
v -0.00903726 0.00348381 -0.00885492
v -0.00891480 0.00348381 -0.00898384
v -0.00949919 0.00367111 -0.00828018
v -0.00945146 0.00327968 -0.00848563
v -0.00953340 0.00348381 -0.00831844
v -0.00987647 0.00290579 -0.00813795
v -0.00995120 0.00290579 -0.00805062
v -0.00970539 0.00322567 -0.00822279
v -0.00878154 0.00397906 -0.00890316
v -0.00866628 0.00405062 -0.00899216
v -0.00814223 0.00502989 -0.00898717
v -0.00840335 0.00457182 -0.00898717
v -0.00833582 0.00481313 -0.00892063
v -0.00868519 0.00539256 -0.00823943
v -0.00789911 0.00537643 -0.00900048
v -0.00766860 0.00567245 -0.00902543
v -0.00861586 0.00425755 -0.00894142
v -0.00870680 0.00439785 -0.00877674
v -0.00855553 0.00448554 -0.00888154
v -0.00743178 0.00595445 -0.00904123
v -0.00718687 0.00622733 -0.00904872
v -0.00694195 0.00649460 -0.00905621
v -0.00668712 0.00675064 -0.00905537
v -0.00651064 0.00683552 -0.00908199
v -0.00625311 0.00683552 -0.00913190
v -0.00522121 0.00760926 -0.00913938
v -0.00470436 0.00786741 -0.00914104
v -0.00336001 0.00864045 -0.00911942
v -0.00367246 0.00838300 -0.00914104
v -0.00728501 0.00290579 -0.00863284
v -0.00336001 0.00709156 -0.00863201
v -0.00966306 0.00348381 -0.00817538
v -0.00974590 0.00364586 -0.00801319
v -0.00960454 0.00374477 -0.00812714
v -0.00946227 0.00384227 -0.00824109
v -0.00921645 0.00438733 -0.00825440
v -0.01002684 0.00290579 -0.00795331
v -0.00997191 0.00303907 -0.00797160
v -0.00977382 0.00348381 -0.00804646
v -0.00896343 0.00439645 -0.00851723
v -0.00821787 0.00521088 -0.00880335
v -0.00805939 0.00529365 -0.00890233
v -0.00895442 0.00489450 -0.00824941
v -0.00873381 0.00522070 -0.00828767
v -0.00898594 0.00520947 -0.00802733
v -0.00893911 0.00538134 -0.00797077
v -0.00875723 0.00554689 -0.00805811
v -0.00871040 0.00568999 -0.00800654
v -0.00863207 0.00554689 -0.00818620
v -0.00839435 0.00586326 -0.00820616
v -0.00816294 0.00615999 -0.00823277
v -0.00850420 0.00554689 -0.00831179
v -0.00769921 0.00596918 -0.00879587
v -0.00761817 0.00580433 -0.00898135
v -0.00881215 0.00448343 -0.00862286
v -0.00735885 0.00612702 -0.00897885
v -0.00711213 0.00639990 -0.00898967
v -0.00752993 0.00604775 -0.00888736
v -0.00685821 0.00666716 -0.00899549
v -0.00659528 0.00692531 -0.00899216
v -0.00642420 0.00700528 -0.00905371
v -0.00646562 0.00692531 -0.00906702
v -0.00624861 0.00709156 -0.00907866
v -0.00599379 0.00709297 -0.00912940
v -0.00573716 0.00735111 -0.00911942
v -0.00496279 0.00786741 -0.00912607
v -0.00444684 0.00812556 -0.00913439
v -0.00418841 0.00812556 -0.00914104
v -0.00393089 0.00838300 -0.00913356
v -0.00341494 0.00864045 -0.00911526
v -0.00336001 0.00881161 -0.00906286
v -0.01095429 0.00374126 -0.00064472
v -0.01047616 0.00290579 -0.00414971
v -0.00336001 0.00851348 -0.00670734
v -0.00970989 0.00381842 -0.00796661
v -0.00950189 0.00419161 -0.00802816
v -0.00991609 0.00349363 -0.00785599
v -0.00998182 0.00358623 -0.00772707
v -0.01025015 0.00387594 -0.00722469
v -0.00942895 0.00399941 -0.00820366
v -0.00917323 0.00455990 -0.00820865
v -0.00946407 0.00436348 -0.00798242
v -0.00928308 0.00449045 -0.00812381
v -0.01008717 0.00290579 -0.00787263
v -0.00925247 0.00471001 -0.00803731
v -0.00920564 0.00488258 -0.00798159
v -0.00919934 0.00564650 -0.00746008
v -0.00895622 0.00567175 -0.00773456
v -0.00889859 0.00557004 -0.00787762
v -0.00975581 0.00494431 -0.00725131
v -0.00970809 0.00511617 -0.00719225
v -0.00944066 0.00561634 -0.00718061
v -0.00865097 0.00586186 -0.00793750
v -0.00841956 0.00615788 -0.00796828
v -0.00847809 0.00598532 -0.00803482
v -0.00824758 0.00627573 -0.00806060
v -0.00818275 0.00644760 -0.00799406
v -0.00808640 0.00635851 -0.00815459
v -0.00791982 0.00644128 -0.00824774
v -0.00799005 0.00626872 -0.00831179
v -0.00772533 0.00625539 -0.00855965
v -0.00762808 0.00614035 -0.00873182
v -0.00721118 0.00651284 -0.00881833
v -0.00755694 0.00659842 -0.00844986
v -0.00713554 0.00668540 -0.00875345
v -0.00703919 0.00659000 -0.00890649
v -0.00678167 0.00684745 -0.00890815
v -0.00743088 0.00698424 -0.00826937
v -0.00715445 0.00696459 -0.00851141
v -0.00663130 0.00747247 -0.00850559
v -0.00651874 0.00710138 -0.00890566
v -0.00633145 0.00717715 -0.00898967
v -0.00615947 0.00725291 -0.00904955
v -0.00597758 0.00734410 -0.00906868
v -0.00549855 0.00763031 -0.00909447
v -0.00521671 0.00787372 -0.00908199
v -0.00472057 0.00814379 -0.00908948
v -0.00444684 0.00834021 -0.00907700
v -0.00393089 0.00858222 -0.00907617
v -0.00341494 0.00880389 -0.00905870
v -0.00336001 0.00894910 -0.00889734
v -0.00974951 0.00631221 -0.00064472
v -0.01255887 0.00374126 -0.00064472
v -0.00336001 0.00899470 -0.00615340
v -0.00691944 0.00906204 -0.00078861
v -0.00685100 0.00919112 -0.00078861
v -0.01209965 0.00290579 -0.00414971
v -0.01021323 0.00404781 -0.00717728
v -0.00996831 0.00459216 -0.00719309
v -0.00973060 0.00464057 -0.00747755
v -0.01044644 0.00299277 -0.00734696
v -0.01008357 0.00349363 -0.00762809
v -0.01044554 0.00348381 -0.00713819
v -0.01041133 0.00373144 -0.00707415
v -0.01027356 0.00374126 -0.00725713
v -0.01044915 0.00377072 -0.00700178
v -0.01048516 0.00380930 -0.00693109
v -0.01030688 0.00397696 -0.00709161
v -0.00942985 0.00451500 -0.00794000
v -0.01052748 0.00290579 -0.00727210
v -0.01053289 0.00292333 -0.00725796
v -0.00949288 0.00467915 -0.00776200
v -0.00921375 0.00593060 -0.00721970
v -0.00950819 0.00573489 -0.00700844
v -0.00942445 0.00588080 -0.00700178
v -0.00892291 0.00639920 -0.00718144
v -0.00843307 0.00643567 -0.00772707
v -0.00999533 0.00491134 -0.00697101
v -0.00972880 0.00541010 -0.00695770
v -0.00869149 0.00669382 -0.00721222
v -0.00844567 0.00696880 -0.00722553
v -0.00828450 0.00705859 -0.00731785
v -0.00785049 0.00692531 -0.00791338
v -0.00769381 0.00699195 -0.00801901
v -0.00772172 0.00692531 -0.00804813
v -0.00760377 0.00688533 -0.00819119
v -0.00767580 0.00671276 -0.00825856
v -0.00752723 0.00681307 -0.00831429
v -0.00746420 0.00692531 -0.00828517
v -0.00717246 0.00723888 -0.00826771
v -0.00763798 0.00692531 -0.00812631
v -0.00752363 0.00707333 -0.00810801
v -0.00744529 0.00725291 -0.00802484
v -0.00734444 0.00715540 -0.00819701
v -0.00726881 0.00707894 -0.00832343
v -0.00664660 0.00774465 -0.00825939
v -0.00691043 0.00749352 -0.00826438
v -0.00674655 0.00759102 -0.00831179
v -0.00625221 0.00735111 -0.00889817
v -0.00605322 0.00742547 -0.00897802
v -0.00588123 0.00749211 -0.00903708
v -0.00542651 0.00779235 -0.00906286
v -0.00496279 0.00806944 -0.00906951
v -0.00464583 0.00829041 -0.00905621
v -0.00413259 0.00854364 -0.00905454
v -0.00357431 0.00878004 -0.00903874
v -0.00336001 0.00900452 -0.00882415
v -0.00341494 0.00894419 -0.00888320
v -0.01148195 0.00631221 -0.00064472
v -0.00682219 0.00932089 -0.00078861
v -0.00680598 0.00941489 -0.00078861
v -0.00680508 0.00955799 -0.00078861
v -0.00680508 0.00967234 -0.00078861
v -0.00684200 0.00993048 -0.00078861
v -0.00688882 0.01006587 -0.00078861
v -0.01239679 0.00425755 -0.00064472
v -0.01255887 0.00374126 -0.00064555
v -0.00336001 0.00915604 -0.00603612
v -0.01253726 0.00374126 -0.00091920
v -0.01245622 0.00374126 -0.00167692
v -0.01242470 0.00374126 -0.00193477
v -0.01237518 0.00374126 -0.00221590
v -0.01221220 0.00374126 -0.00296697
v -0.01215457 0.00374126 -0.00322481
v -0.01208794 0.00296752 -0.00414971
v -0.01203842 0.00290579 -0.00434019
v -0.01027806 0.00419793 -0.00700511
v -0.01001784 0.00480752 -0.00700178
v -0.01070397 0.00290579 -0.00702840
v -0.01051398 0.00363744 -0.00697517
v -0.01053649 0.00394679 -0.00675975
v -0.01045815 0.00401975 -0.00684126
v -0.01056440 0.00373144 -0.00684126
v -0.01075890 0.00385630 -0.00644118
v -0.01100291 0.00407306 -0.00589722
v -0.00922725 0.00620699 -0.00697766
v -0.00927678 0.00606178 -0.00703672
v -0.00945687 0.00590675 -0.00694023
v -0.00884367 0.00659772 -0.00711074
v -0.00991699 0.00580784 -0.00631975
v -0.01024114 0.00436979 -0.00695188
v -0.01028887 0.00451500 -0.00677222
v -0.01021953 0.00483628 -0.00665910
v -0.01051038 0.00516879 -0.00594047
v -0.00974320 0.00595024 -0.00646614
v -0.00969008 0.00554689 -0.00689865
v -0.00893641 0.00667278 -0.00693025
v -0.00876353 0.00678572 -0.00704004
v -0.00869600 0.00695898 -0.00695687
v -0.00859605 0.00692531 -0.00709993
v -0.00845018 0.00723116 -0.00697267
v -0.00812692 0.00741285 -0.00715898
v -0.00803868 0.00733077 -0.00733199
v -0.00778295 0.00707403 -0.00784851
v -0.00761727 0.00716382 -0.00794166
v -0.00708241 0.00741074 -0.00819368
v -0.00735525 0.00742547 -0.00794000
v -0.00692214 0.00776148 -0.00801818
v -0.00726340 0.00733217 -0.00810967
v -0.00753083 0.00733989 -0.00785516
v -0.00681859 0.00766538 -0.00819035
v -0.00673755 0.00783935 -0.00809886
v -0.00665471 0.00800841 -0.00800737
v -0.00590735 0.00803156 -0.00854302
v -0.00617387 0.00752087 -0.00880585
v -0.00589564 0.00776219 -0.00879088
v -0.00578579 0.00793475 -0.00871519
v -0.00571465 0.00785619 -0.00883330
v -0.00573716 0.00767660 -0.00897469
v -0.00559850 0.00772992 -0.00902127
v -0.00512847 0.00801963 -0.00904539
v -0.00430457 0.00850296 -0.00902127
v -0.00481782 0.00824270 -0.00901795
v -0.00393089 0.00871130 -0.00896139
v -0.00374630 0.00874567 -0.00900297
v -0.00420912 0.00865027 -0.00890649
v -0.00428566 0.00875689 -0.00875428
v -0.00411368 0.00878706 -0.00879171
v -0.00393089 0.00881722 -0.00883247
v -0.00366526 0.00884669 -0.00890899
v -0.00350048 0.00901434 -0.00875095
v -0.00341494 0.00910974 -0.00865530
v -0.00336001 0.00906695 -0.00873765
v -0.01021413 0.00821254 -0.00078861
v -0.01031678 0.00808347 -0.00078861
v -0.01044554 0.00791020 -0.00078861
v -0.01059952 0.00768923 -0.00078861
v -0.01091557 0.00723326 -0.00078861
v -0.01106144 0.00702142 -0.00078861
v -0.01117580 0.00683622 -0.00078861
v -0.01148195 0.00631221 -0.00064555
v -0.01161971 0.00606248 -0.00064472
v -0.00694285 0.01006587 -0.00078861
v -0.00707161 0.01004974 -0.00078861
v -0.00717336 0.01003290 -0.00078861
v -0.00728411 0.01000975 -0.00078861
v -0.00739937 0.00998380 -0.00078861
v -0.00754254 0.00995013 -0.00078861
v -0.00765689 0.00991716 -0.00078861
v -0.00780006 0.00987436 -0.00078861
v -0.00787570 0.00984701 -0.00078861
v -0.00796214 0.00981474 -0.00078861
v -0.00818635 0.00972565 -0.00078861
v -0.00831511 0.00967304 -0.00078861
v -0.00840696 0.00963095 -0.00078861
v -0.00851231 0.00958184 -0.00078861
v -0.00864107 0.00950889 -0.00078861
v -0.00883106 0.00940086 -0.00078861
v -0.00899224 0.00930546 -0.00078861
v -0.00912100 0.00921847 -0.00078861
v -0.00929389 0.00908940 -0.00078861
v -0.00936682 0.00903258 -0.00078861
v -0.00949468 0.00893016 -0.00078861
v -0.00958293 0.00885861 -0.00078861
v -0.00971259 0.00875058 -0.00078861
v -0.00983505 0.00862151 -0.00078861
v -0.01008447 0.00835424 -0.00078861
v -0.00336001 0.00940437 -0.00596542
v -0.00336001 0.00941489 -0.00596376
v -0.00336001 0.00967304 -0.00596709
v -0.00336001 0.00993119 -0.00601782
v -0.00688522 0.01006938 -0.00090340
v -0.00336001 0.01006447 -0.00610516
v -0.01239679 0.00425755 -0.00064555
v -0.01233466 0.00444906 -0.00064472
v -0.01237788 0.00425755 -0.00090340
v -0.01230765 0.00436839 -0.00123859
v -0.01231575 0.00413760 -0.00182913
v -0.01230405 0.00410112 -0.00200131
v -0.01233106 0.00392856 -0.00214936
v -0.01229144 0.00400853 -0.00221922
v -0.01213206 0.00399871 -0.00296697
v -0.01205733 0.00413760 -0.00310920
v -0.01206453 0.00390190 -0.00338367
v -0.01208614 0.00374126 -0.00346934
v -0.01205733 0.00310641 -0.00414971
v -0.01203752 0.00407306 -0.00328137
v -0.01203121 0.00296752 -0.00432022
v -0.01196458 0.00296752 -0.00451568
v -0.01197719 0.00290579 -0.00451402
v -0.01072198 0.00290579 -0.00700178
v -0.01073999 0.00301873 -0.00692194
v -0.01077781 0.00416285 -0.00621495
v -0.01055180 0.00425755 -0.00652270
v -0.01071207 0.00375880 -0.00657510
v -0.01103173 0.00390050 -0.00595045
v -0.01097050 0.00426878 -0.00580822
v -0.01075710 0.00462794 -0.00592051
v -0.01083093 0.00425264 -0.00606523
v -0.01107585 0.00399239 -0.00580822
v -0.01104794 0.00419021 -0.00572505
v -0.00908138 0.00656755 -0.00682545
v -0.00899404 0.00650091 -0.00700927
v -0.00951539 0.00599514 -0.00676889
v -0.00979183 0.00630660 -0.00604777
v -0.00959733 0.00579381 -0.00682629
v -0.01024385 0.00566825 -0.00592633
v -0.01002414 0.00599514 -0.00598705
v -0.01053379 0.00470721 -0.00623491
v -0.01049597 0.00487907 -0.00617419
v -0.01054099 0.00502989 -0.00599121
v -0.01072648 0.00477315 -0.00586146
v -0.01066795 0.00500744 -0.00578078
v -0.01072828 0.00507829 -0.00560112
v -0.01054189 0.00526770 -0.00578410
v -0.01051128 0.00542764 -0.00568512
v -0.01046355 0.00534065 -0.00585730
v -0.00997552 0.00616770 -0.00591053
v -0.00893641 0.00692531 -0.00666493
v -0.00884817 0.00685727 -0.00685789
v -0.00918944 0.00692531 -0.00630228
v -0.00864197 0.00710840 -0.00685706
v -0.00838805 0.00762610 -0.00660171
v -0.00819445 0.00774956 -0.00671982
v -0.00921825 0.00722485 -0.00593631
v -0.00820436 0.00750334 -0.00698764
v -0.00795584 0.00751105 -0.00725297
v -0.00770011 0.00725361 -0.00776949
v -0.00744439 0.00751035 -0.00776783
v -0.00735525 0.00768222 -0.00768132
v -0.00709322 0.00767941 -0.00793667
v -0.00691944 0.00801683 -0.00775951
v -0.00682669 0.00793405 -0.00793168
v -0.00718236 0.00776499 -0.00776450
v -0.00718146 0.00802103 -0.00750582
v -0.00770282 0.00751105 -0.00751081
v -0.00761547 0.00768292 -0.00742431
v -0.00744169 0.00802454 -0.00725048
v -0.00664930 0.00826164 -0.00774620
v -0.00651064 0.00819360 -0.00793168
v -0.00637107 0.00824691 -0.00798824
v -0.00608563 0.00822587 -0.00822529
v -0.00599739 0.00812906 -0.00838415
v -0.00673755 0.00809890 -0.00783852
v -0.00579569 0.00820342 -0.00846150
v -0.00570475 0.00810241 -0.00861871
v -0.00561380 0.00800139 -0.00877424
v -0.00549855 0.00787372 -0.00895723
v -0.00530045 0.00796421 -0.00899798
v -0.00444684 0.00846858 -0.00898301
v -0.00444684 0.00858924 -0.00885326
v -0.00521761 0.00812415 -0.00889651
v -0.00530855 0.00822938 -0.00874513
v -0.00513657 0.00827848 -0.00879504
v -0.00496279 0.00832548 -0.00884577
v -0.00472507 0.00839352 -0.00890982
v -0.00418841 0.00899821 -0.00846899
v -0.00419472 0.00886001 -0.00865697
v -0.00444684 0.00871831 -0.00871020
v -0.00461612 0.00878706 -0.00853470
v -0.00444684 0.00882143 -0.00858211
v -0.00394619 0.00895962 -0.00863284
v -0.00387056 0.00904942 -0.00854218
v -0.00336001 0.00925635 -0.00846400
v -0.00336001 0.00910062 -0.00869024
v -0.00394619 0.00912377 -0.00840411
v -0.00393089 0.00926056 -0.00821115
v -0.01031138 0.00807715 -0.00090340
v -0.01007907 0.00834793 -0.00090340
v -0.01020783 0.00820553 -0.00090340
v -0.01044104 0.00790248 -0.00090340
v -0.01053109 0.00777341 -0.00090340
v -0.01096780 0.00714347 -0.00090340
v -0.01105604 0.00701370 -0.00090340
v -0.01116589 0.00683622 -0.00090340
v -0.01126134 0.00667278 -0.00090340
v -0.01122892 0.00674503 -0.00078861
v -0.01153957 0.00619436 -0.00078612
v -0.01161971 0.00606248 -0.00064555
v -0.01126584 0.00668119 -0.00078861
v -0.01174397 0.00583169 -0.00064472
v -0.00695455 0.01006938 -0.00090340
v -0.00695365 0.01007148 -0.00116207
v -0.00708241 0.01004483 -0.00116207
v -0.00728411 0.00999993 -0.00116207
v -0.00754254 0.00994732 -0.00090340
v -0.00754254 0.00993890 -0.00116207
v -0.00780006 0.00985963 -0.00116207
v -0.00793243 0.00980281 -0.00130430
v -0.00806839 0.00975581 -0.00116207
v -0.00831511 0.00965269 -0.00116207
v -0.00850600 0.00957834 -0.00090340
v -0.00849070 0.00957062 -0.00116207
v -0.00861946 0.00949696 -0.00116207
v -0.00883106 0.00937561 -0.00116207
v -0.00895352 0.00928231 -0.00149810
v -0.00896343 0.00928792 -0.00132592
v -0.00928848 0.00908449 -0.00090340
v -0.00941725 0.00898207 -0.00090340
v -0.00940194 0.00897015 -0.00116207
v -0.00957662 0.00885300 -0.00090340
v -0.00954421 0.00882915 -0.00141908
v -0.00970629 0.00874427 -0.00090340
v -0.00982965 0.00861449 -0.00090340
v -0.00687892 0.01007148 -0.00116207
v -0.00336001 0.01006727 -0.00622160
v -0.01233466 0.00444906 -0.00064555
v -0.01232475 0.00442170 -0.00090340
v -0.01228874 0.00457743 -0.00064472
v -0.01231665 0.00439715 -0.00106725
v -0.01228333 0.00429333 -0.00167692
v -0.01220680 0.00451500 -0.00167692
v -0.01227163 0.00423721 -0.00192312
v -0.01221850 0.00425755 -0.00219344
v -0.01204922 0.00436979 -0.00281392
v -0.01203211 0.00431648 -0.00296697
v -0.01200240 0.00423721 -0.00320651
v -0.01183222 0.00383596 -0.00414888
v -0.01186283 0.00374126 -0.00414639
v -0.01190875 0.00359114 -0.00414971
v -0.01191866 0.00425755 -0.00348265
v -0.01200600 0.00399239 -0.00347433
v -0.01174848 0.00399450 -0.00425119
v -0.01205372 0.00311904 -0.00414971
v -0.01189705 0.00322567 -0.00451568
v -0.01182411 0.00322567 -0.00470699
v -0.01185293 0.00297524 -0.00479016
v -0.01195467 0.00290579 -0.00457723
v -0.01079311 0.00290579 -0.00688867
v -0.01104794 0.00290579 -0.00645532
v -0.01119651 0.00320883 -0.00604111
v -0.01095429 0.00348451 -0.00630810
v -0.01105694 0.00374126 -0.00599370
v -0.01125774 0.00328389 -0.00589140
v -0.01115779 0.00374126 -0.00580406
v -0.01128475 0.00311202 -0.00594130
v -0.01076610 0.00490643 -0.00567930
v -0.01059502 0.00478507 -0.00607854
v -0.01130186 0.00342419 -0.00571923
v -0.01127485 0.00359675 -0.00566350
v -0.01121272 0.00398748 -0.00552959
v -0.01109476 0.00426878 -0.00555870
v -0.01101192 0.00436137 -0.00565269
v -0.01125954 0.00406465 -0.00537322
v -0.01129826 0.00417618 -0.00520188
v -0.00923716 0.00692531 -0.00623242
v -0.00974590 0.00621120 -0.00621162
v -0.00974500 0.00646724 -0.00595212
v -0.00951359 0.00676257 -0.00599121
v -0.01008087 0.00607371 -0.00581654
v -0.01067155 0.00526980 -0.00552792
v -0.01076970 0.00517089 -0.00542895
v -0.01076790 0.00542483 -0.00516778
v -0.01080212 0.00548656 -0.00503054
v -0.01028707 0.00600356 -0.00549549
v -0.01024385 0.00592639 -0.00566766
v -0.01002504 0.00624487 -0.00573836
v -0.00992419 0.00632694 -0.00581654
v -0.00922365 0.00697442 -0.00620164
v -0.00843037 0.00772290 -0.00643204
v -0.00818365 0.00799438 -0.00644618
v -0.00812602 0.00767590 -0.00689116
v -0.00841956 0.00796912 -0.00615922
v -0.00926147 0.00707333 -0.00603862
v -0.00945416 0.00693513 -0.00589972
v -0.00939383 0.00709367 -0.00580989
v -0.00926057 0.00727606 -0.00580406
v -0.00920294 0.00746335 -0.00565102
v -0.00915252 0.00740513 -0.00580406
v -0.00865458 0.00794247 -0.00586395
v -0.00872841 0.00776990 -0.00597041
v -0.00795584 0.00776569 -0.00699347
v -0.00804138 0.00759313 -0.00707581
v -0.00787210 0.00768292 -0.00716564
v -0.00682129 0.00818869 -0.00766469
v -0.00708331 0.00819290 -0.00741184
v -0.00734534 0.00819641 -0.00715815
v -0.00770101 0.00776780 -0.00725214
v -0.00761367 0.00794036 -0.00716398
v -0.00743358 0.00827217 -0.00698598
v -0.00769651 0.00802174 -0.00699180
v -0.00752363 0.00810872 -0.00707498
v -0.00717336 0.00826936 -0.00723966
v -0.00700858 0.00831706 -0.00733615
v -0.00704820 0.00846227 -0.00711324
v -0.00678797 0.00845526 -0.00736775
v -0.00671504 0.00856749 -0.00729290
v -0.00662319 0.00850015 -0.00746507
v -0.00645121 0.00856328 -0.00754325
v -0.00635216 0.00849314 -0.00771459
v -0.00651064 0.00831005 -0.00780276
v -0.00627652 0.00839844 -0.00788427
v -0.00619999 0.00830373 -0.00805312
v -0.00591365 0.00828549 -0.00828933
v -0.00562371 0.00826445 -0.00852222
v -0.00547874 0.00804629 -0.00881583
v -0.00463233 0.00854154 -0.00880169
v -0.00547874 0.00817536 -0.00869439
v -0.00547874 0.00830514 -0.00856547
v -0.00512487 0.00852961 -0.00853137
v -0.00496279 0.00857240 -0.00857795
v -0.00438111 0.00905292 -0.00829016
v -0.00418841 0.00908940 -0.00834007
v -0.00404344 0.00902206 -0.00850392
v -0.00471067 0.00864396 -0.00864366
v -0.00478810 0.00874707 -0.00848396
v -0.00445944 0.00896103 -0.00837833
v -0.00511046 0.00877794 -0.00826438
v -0.00336001 0.00930897 -0.00837334
v -0.00378232 0.00928091 -0.00824525
v -0.00413078 0.00930616 -0.00803399
v -0.00420552 0.00922900 -0.00812132
v -0.00430277 0.00928161 -0.00798741
v -0.01019252 0.00818729 -0.00116207
v -0.01029517 0.00805751 -0.00116207
v -0.00994310 0.00846087 -0.00116207
v -0.01004845 0.00831566 -0.00141908
v -0.01026276 0.00801542 -0.00167692
v -0.01042483 0.00788004 -0.00116207
v -0.01050767 0.00773904 -0.00129349
v -0.01101912 0.00695898 -0.00151889
v -0.01104073 0.00699125 -0.00116207
v -0.01108665 0.00681518 -0.00167692
v -0.01123163 0.00661806 -0.00141908
v -0.01128025 0.00644970 -0.00180335
v -0.01158910 0.00602530 -0.00116207
v -0.01174397 0.00578750 -0.00091504
v -0.01180340 0.00568929 -0.00083769
v -0.01174397 0.00583169 -0.00064555
v -0.01180971 0.00570262 -0.00064472
v -0.00413259 0.01006727 -0.00572588
v -0.00590104 0.01006657 -0.00392431
v -0.00669162 0.01006797 -0.00219344
v -0.00666731 0.01006587 -0.00240054
v -0.00693564 0.01006797 -0.00141908
v -0.00706531 0.01003921 -0.00141908
v -0.00728411 0.00998941 -0.00141908
v -0.00754254 0.00992768 -0.00141908
v -0.00781807 0.00983929 -0.00140245
v -0.00791622 0.00979580 -0.00147564
v -0.00805669 0.00972495 -0.00167692
v -0.00803237 0.00975581 -0.00140245
v -0.00831511 0.00963656 -0.00141908
v -0.00847449 0.00956080 -0.00141908
v -0.00860325 0.00948785 -0.00141908
v -0.00845918 0.00955168 -0.00160955
v -0.00880675 0.00934614 -0.00167692
v -0.00893641 0.00927179 -0.00167692
v -0.00908769 0.00915955 -0.00167692
v -0.00925787 0.00906064 -0.00141908
v -0.00938663 0.00895822 -0.00141908
v -0.00952620 0.00881442 -0.00167692
v -0.00979813 0.00858293 -0.00141908
v -0.00967297 0.00871130 -0.00141908
v -0.00992779 0.00844473 -0.00141908
v -0.00336001 0.01006517 -0.00623741
v -0.00384445 0.01006447 -0.00596043
v -0.01227793 0.00455078 -0.00090340
v -0.01220950 0.00477315 -0.00064472
v -0.01220950 0.00477315 -0.00064555
v -0.01218879 0.00477315 -0.00090340
v -0.01217438 0.00451500 -0.00193477
v -0.01216088 0.00477315 -0.00116207
v -0.01213206 0.00477315 -0.00141908
v -0.01209694 0.00478928 -0.00166528
v -0.01208974 0.00472755 -0.00193477
v -0.01211495 0.00453885 -0.00221506
v -0.01206813 0.00442030 -0.00264175
v -0.01195828 0.00451500 -0.00296697
v -0.01189795 0.00451500 -0.00322481
v -0.01177819 0.00381351 -0.00433270
v -0.01180520 0.00364165 -0.00441255
v -0.01199610 0.00320883 -0.00424038
v -0.01183222 0.00450799 -0.00346685
v -0.01180880 0.00441679 -0.00364900
v -0.01177999 0.00433752 -0.00382117
v -0.01183582 0.00425335 -0.00373800
v -0.01180880 0.00416496 -0.00390601
v -0.01165933 0.00425755 -0.00425784
v -0.01165573 0.00399941 -0.00451568
v -0.01182591 0.00346768 -0.00450570
v -0.01180160 0.00337158 -0.00465625
v -0.01146214 0.00320252 -0.00552293
v -0.01153957 0.00310150 -0.00542063
v -0.01178900 0.00306713 -0.00488748
v -0.01187094 0.00290579 -0.00478600
v -0.01129466 0.00290579 -0.00602032
v -0.01130456 0.00296752 -0.00597624
v -0.01132527 0.00320883 -0.00580490
v -0.01139460 0.00296752 -0.00580406
v -0.01101642 0.00462794 -0.00540233
v -0.01132347 0.00398748 -0.00528838
v -0.01122442 0.00426036 -0.00528838
v -0.01126404 0.00434734 -0.00512619
v -0.01126854 0.00461531 -0.00487666
v -0.01154858 0.00415864 -0.00466789
v -0.01147114 0.00424984 -0.00476188
v -0.00944876 0.00692531 -0.00591801
v -0.01102362 0.00542272 -0.00465043
v -0.01104794 0.00526349 -0.00475107
v -0.01089396 0.00554829 -0.00477519
v -0.01023934 0.00617472 -0.00539983
v -0.01020963 0.00607791 -0.00556785
v -0.01053829 0.00624978 -0.00470948
v -0.00996831 0.00641673 -0.00563272
v -0.01022944 0.00642024 -0.00512453
v -0.01027446 0.00648828 -0.00495318
v -0.00973600 0.00671206 -0.00568263
v -0.00950549 0.00700879 -0.00572754
v -0.00954601 0.00692531 -0.00575665
v -0.00816474 0.00823569 -0.00616504
v -0.00792162 0.00824902 -0.00644118
v -0.00793963 0.00800841 -0.00672065
v -0.00786759 0.00793756 -0.00689283
v -0.00824758 0.00806383 -0.00627483
v -0.00848259 0.00803857 -0.00598705
v -0.00944426 0.00717995 -0.00562025
v -0.00934881 0.00735322 -0.00554955
v -0.00943435 0.00742898 -0.00528838
v -0.00929479 0.00760926 -0.00527674
v -0.00922995 0.00775377 -0.00518192
v -0.00898774 0.00803086 -0.00520853
v -0.00893641 0.00797053 -0.00538070
v -0.00889949 0.00787793 -0.00557034
v -0.00871220 0.00800841 -0.00569261
v -0.00740207 0.00850296 -0.00669320
v -0.00712023 0.00874567 -0.00666825
v -0.00714905 0.00850787 -0.00695853
v -0.00726971 0.00832267 -0.00708080
v -0.00760467 0.00819360 -0.00688700
v -0.00767850 0.00826024 -0.00671483
v -0.00752813 0.00831496 -0.00681464
v -0.00697706 0.00857100 -0.00704004
v -0.00678707 0.00865518 -0.00710991
v -0.00659528 0.00873936 -0.00717978
v -0.00652324 0.00865097 -0.00736276
v -0.00632875 0.00873585 -0.00743263
v -0.00625401 0.00864185 -0.00761062
v -0.00604511 0.00872042 -0.00767716
v -0.00618018 0.00854785 -0.00778113
v -0.00606672 0.00847490 -0.00795331
v -0.00573716 0.00846999 -0.00820533
v -0.00560750 0.00851137 -0.00825274
v -0.00572095 0.00833039 -0.00837833
v -0.00543552 0.00856258 -0.00830846
v -0.00529685 0.00848261 -0.00848063
v -0.00520410 0.00863203 -0.00837251
v -0.00496279 0.00870148 -0.00843489
v -0.00455309 0.00901855 -0.00824109
v -0.00470436 0.00907747 -0.00806809
v -0.00445944 0.00912167 -0.00814294
v -0.00496099 0.00894419 -0.00811300
v -0.00504563 0.00900943 -0.00796994
v -0.00528244 0.00873445 -0.00821115
v -0.00541211 0.00880109 -0.00803898
v -0.00520591 0.00883406 -0.00812465
v -0.00336001 0.00944295 -0.00812215
v -0.00368687 0.00935597 -0.00814544
v -0.00393089 0.00933211 -0.00808223
v -0.00380483 0.00954467 -0.00773955
v -0.00397681 0.00952152 -0.00769297
v -0.00420552 0.00935947 -0.00788760
v -0.00470796 0.00934755 -0.00762144
v -0.00430367 0.00953976 -0.00747172
v -0.00420552 0.00949977 -0.00760813
v -0.00470796 0.00921567 -0.00785682
v -0.00479621 0.00927389 -0.00771626
v -0.01003134 0.00829812 -0.00167692
v -0.01016101 0.00814450 -0.00167692
v -0.00991069 0.00842790 -0.00167692
v -0.01025285 0.00800209 -0.00182913
v -0.01036901 0.00786741 -0.00167692
v -0.01048336 0.00770466 -0.00167692
v -0.01100922 0.00694355 -0.00167692
v -0.01107045 0.00678642 -0.00193560
v -0.01122892 0.00656264 -0.00170104
v -0.01127034 0.00643217 -0.00193560
v -0.01154768 0.00594954 -0.00186656
v -0.01155848 0.00597129 -0.00167692
v -0.01118930 0.00657808 -0.00193560
v -0.01164763 0.00580504 -0.00167692
v -0.01184752 0.00556863 -0.00091504
v -0.01209424 0.00499482 -0.00090340
v -0.01187904 0.00554619 -0.00064555
v -0.01180971 0.00570262 -0.00064555
v -0.01179350 0.00566965 -0.00100986
v -0.01187904 0.00554619 -0.00064472
v -0.00459091 0.01006166 -0.00542978
v -0.00485654 0.01006306 -0.00518025
v -0.00511586 0.01006377 -0.00492657
v -0.00536168 0.01006166 -0.00465875
v -0.00580650 0.01005324 -0.00415055
v -0.00573716 0.01001677 -0.00451568
v -0.00599289 0.01001957 -0.00415055
v -0.00625221 0.00996906 -0.00415055
v -0.00651064 0.00996977 -0.00374049
v -0.00622880 0.01002799 -0.00371804
v -0.00612705 0.01006026 -0.00361739
v -0.00616037 0.01006587 -0.00348265
v -0.00641969 0.01006587 -0.00296697
v -0.00676906 0.01001887 -0.00270829
v -0.00702659 0.00996345 -0.00270829
v -0.00702659 0.00998380 -0.00245128
v -0.00702659 0.01000274 -0.00219344
v -0.00702659 0.01002027 -0.00193560
v -0.00691313 0.01006306 -0.00161371
v -0.00638818 0.01006026 -0.00310920
v -0.00654846 0.01004202 -0.00296697
v -0.00728411 0.00997608 -0.00167692
v -0.00754254 0.00991014 -0.00167692
v -0.00728411 0.00996205 -0.00193560
v -0.00728411 0.00994592 -0.00219344
v -0.00776405 0.00983719 -0.00167692
v -0.00773343 0.00982596 -0.00193560
v -0.00805669 0.00970110 -0.00193560
v -0.00833762 0.00960149 -0.00168857
v -0.00829080 0.00959728 -0.00193560
v -0.00826019 0.00958325 -0.00219344
v -0.00838985 0.00951240 -0.00219344
v -0.00870140 0.00928512 -0.00257854
v -0.00890580 0.00925074 -0.00193560
v -0.00910479 0.00910553 -0.00192395
v -0.00922275 0.00903258 -0.00182996
v -0.00923806 0.00904450 -0.00167692
v -0.00936682 0.00894349 -0.00167692
v -0.00950189 0.00879337 -0.00193560
v -0.00965496 0.00869306 -0.00167692
v -0.00978192 0.00856399 -0.00167692
v -0.00336001 0.00999642 -0.00657842
v -0.00341494 0.00999081 -0.00657842
v -0.00343115 0.01004132 -0.00631809
v -0.00393089 0.00998380 -0.00632058
v -0.00418841 0.00995153 -0.00632058
v -0.00418841 0.01000063 -0.00606191
v -0.00401643 0.01005395 -0.00589805
v -0.01207173 0.00468546 -0.00214437
v -0.01182681 0.00548726 -0.00141908
v -0.01204742 0.00488609 -0.00174346
v -0.01180250 0.00543044 -0.00184660
v -0.01203481 0.00485662 -0.00193477
v -0.01178990 0.00540238 -0.00201877
v -0.01205372 0.00464057 -0.00231571
v -0.01184572 0.00478507 -0.00296530
v -0.01182051 0.00470089 -0.00322481
v -0.01180250 0.00465740 -0.00337037
v -0.01174307 0.00373354 -0.00450570
v -0.01174037 0.00450799 -0.00373800
v -0.01154858 0.00441048 -0.00441587
v -0.01157469 0.00424984 -0.00450737
v -0.01157379 0.00399941 -0.00472529
v -0.01149905 0.00296752 -0.00558781
v -0.01150716 0.00290579 -0.00560444
v -0.01181511 0.00290579 -0.00491243
v -0.01131176 0.00290579 -0.00598954
v -0.01141171 0.00290579 -0.00579907
v -0.01135048 0.00452342 -0.00478351
v -0.01130816 0.00471001 -0.00470366
v -0.01151706 0.00432981 -0.00458721
v -0.01113528 0.00528874 -0.00451568
v -0.01105064 0.00547113 -0.00451568
v -0.01098040 0.00560020 -0.00451568
v -0.01075800 0.00592218 -0.00462880
v -0.01127214 0.00488188 -0.00462132
v -0.01045455 0.00632905 -0.00478683
v -0.01028166 0.00624838 -0.00522766
v -0.01048967 0.00642164 -0.00460635
v -0.00981434 0.00692531 -0.00525594
v -0.00977292 0.00676397 -0.00554622
v -0.00954781 0.00709367 -0.00553874
v -0.01026095 0.00672469 -0.00466873
v -0.01031318 0.00657457 -0.00476188
v -0.00839885 0.00821114 -0.00586561
v -0.00822687 0.00829181 -0.00599287
v -0.00795944 0.00853943 -0.00597291
v -0.00789011 0.00847981 -0.00614508
v -0.00799276 0.00830864 -0.00626901
v -0.00771902 0.00855066 -0.00624822
v -0.00773523 0.00830864 -0.00657842
v -0.00786399 0.00819430 -0.00657842
v -0.00973870 0.00748790 -0.00465542
v -0.00949018 0.00724379 -0.00544808
v -0.00951990 0.00753490 -0.00498146
v -0.00920654 0.00798386 -0.00488415
v -0.00944966 0.00770677 -0.00485587
v -0.00891120 0.00820342 -0.00507462
v -0.00883826 0.00813468 -0.00530002
v -0.00925337 0.00803997 -0.00471198
v -0.00902195 0.00812065 -0.00500559
v -0.00868249 0.00823779 -0.00539152
v -0.00863207 0.00818659 -0.00554622
v -0.00747410 0.00856188 -0.00652186
v -0.00729762 0.00865378 -0.00659589
v -0.00704910 0.00865869 -0.00685706
v -0.00761187 0.00872252 -0.00612179
v -0.00768481 0.00877934 -0.00594962
v -0.00719407 0.00879618 -0.00649691
v -0.00703109 0.00885160 -0.00658092
v -0.00694825 0.00880039 -0.00675475
v -0.00685821 0.00874287 -0.00692693
v -0.00642330 0.00879407 -0.00726129
v -0.00615677 0.00878776 -0.00750582
v -0.00596948 0.00862502 -0.00784851
v -0.00587313 0.00877373 -0.00774370
v -0.00573716 0.00858012 -0.00807640
v -0.00558409 0.00875619 -0.00797826
v -0.00550935 0.00865939 -0.00814627
v -0.00496099 0.00910624 -0.00787678
v -0.00522121 0.00897295 -0.00791172
v -0.00522121 0.00905853 -0.00778280
v -0.00546793 0.00889369 -0.00785849
v -0.00573716 0.00880670 -0.00779361
v -0.00336001 0.00951450 -0.00798741
v -0.00341494 0.00952081 -0.00795247
v -0.00367246 0.00963025 -0.00760896
v -0.00367246 0.00955940 -0.00776783
v -0.00413168 0.00956431 -0.00752080
v -0.00390748 0.00958044 -0.00760813
v -0.00462152 0.00955799 -0.00724965
v -0.00496279 0.00924303 -0.00766303
v -0.00510326 0.00929003 -0.00748753
v -0.00496279 0.00931317 -0.00753327
v -0.00470616 0.00948644 -0.00734197
v -0.01000793 0.00827287 -0.00193560
v -0.01015290 0.00810311 -0.00192312
v -0.00988637 0.00840194 -0.00193560
v -0.01023664 0.00798105 -0.00200131
v -0.01032128 0.00788424 -0.00192312
v -0.01046535 0.00767801 -0.00193560
v -0.01077690 0.00724028 -0.00188486
v -0.01099121 0.00691549 -0.00193560
v -0.01104614 0.00674573 -0.00219344
v -0.01153417 0.00592709 -0.00203873
v -0.01160170 0.00582608 -0.00194558
v -0.01175658 0.00558266 -0.00167692
v -0.01177099 0.00561634 -0.00141908
v -0.00444684 0.01001326 -0.00580406
v -0.00470436 0.00997678 -0.00580406
v -0.00496279 0.00998380 -0.00554622
v -0.00476289 0.01004833 -0.00535242
v -0.00522121 0.00998660 -0.00528838
v -0.00547874 0.00994311 -0.00528838
v -0.00547874 0.00998520 -0.00503054
v -0.00528784 0.01004903 -0.00483092
v -0.00574257 0.01004693 -0.00428113
v -0.00573716 0.00997818 -0.00477353
v -0.00599379 0.00996977 -0.00451568
v -0.00625221 0.00995504 -0.00425701
v -0.00636026 0.00994732 -0.00414888
v -0.00651064 0.00999713 -0.00348265
v -0.00651064 0.00993610 -0.00399834
v -0.00676906 0.00991014 -0.00374049
v -0.00676906 0.00994311 -0.00348265
v -0.00648813 0.01003010 -0.00320734
v -0.00676906 0.00999642 -0.00296697
v -0.00702659 0.00994030 -0.00296697
v -0.00676906 0.00997047 -0.00322481
v -0.00754254 0.00989120 -0.00193560
v -0.00728411 0.00992277 -0.00245128
v -0.00754254 0.00987086 -0.00219344
v -0.00770282 0.00981334 -0.00219344
v -0.00783158 0.00976423 -0.00219344
v -0.00805669 0.00967514 -0.00219344
v -0.00805669 0.00964358 -0.00245128
v -0.00822687 0.00956571 -0.00245128
v -0.00835563 0.00949486 -0.00245128
v -0.00820076 0.00955168 -0.00261930
v -0.00854923 0.00934334 -0.00270829
v -0.00843667 0.00928161 -0.00333377
v -0.00867799 0.00927179 -0.00270829
v -0.00883106 0.00916235 -0.00270829
v -0.00898594 0.00904801 -0.00270829
v -0.00902015 0.00907537 -0.00245128
v -0.00905077 0.00909852 -0.00219344
v -0.00914892 0.00897506 -0.00245128
v -0.00932360 0.00893648 -0.00192395
v -0.00948298 0.00877794 -0.00210278
v -0.00963065 0.00866640 -0.00193560
v -0.00975671 0.00853733 -0.00193560
v -0.00336001 0.00998520 -0.00663166
v -0.00341494 0.00993610 -0.00683460
v -0.00367246 0.00996135 -0.00657842
v -0.00393089 0.00992908 -0.00657842
v -0.00418841 0.00988910 -0.00657842
v -0.00444684 0.00991084 -0.00632058
v -0.00470436 0.00992557 -0.00606191
v -0.00444684 0.00996556 -0.00606191
v -0.01177189 0.00536170 -0.00219344
v -0.01174758 0.00552865 -0.00193393
v -0.01169265 0.00554619 -0.00219344
v -0.01162962 0.00528874 -0.00296697
v -0.01154047 0.00542343 -0.00310587
v -0.01178629 0.00487837 -0.00305014
v -0.01168004 0.00503059 -0.00322481
v -0.01151976 0.00537432 -0.00327804
v -0.01155668 0.00520246 -0.00340696
v -0.01172777 0.00475491 -0.00346685
v -0.01151256 0.00458234 -0.00431024
v -0.01159900 0.00450869 -0.00414888
v -0.01126674 0.00512670 -0.00434684
v -0.01147474 0.00450448 -0.00450737
v -0.01122802 0.00528523 -0.00425951
v -0.01124603 0.00533293 -0.00414888
v -0.01128835 0.00543465 -0.00389437
v -0.01114158 0.00554829 -0.00414888
v -0.01109386 0.00556022 -0.00426450
v -0.01101102 0.00565562 -0.00435516
v -0.01071658 0.00606599 -0.00453232
v -0.01057611 0.00632905 -0.00451818
v -0.01052388 0.00647846 -0.00443417
v -0.01043024 0.00656825 -0.00451818
v -0.00968107 0.00692531 -0.00550796
v -0.01007907 0.00692531 -0.00475107
v -0.01002954 0.00702142 -0.00471863
v -0.01029427 0.00677169 -0.00451568
v -0.01018892 0.00692531 -0.00451568
v -0.00996921 0.00719258 -0.00459553
v -0.00845558 0.00826515 -0.00569344
v -0.00829260 0.00836476 -0.00577246
v -0.00813052 0.00846297 -0.00585064
v -0.00791982 0.00876321 -0.00566267
v -0.00786759 0.00872112 -0.00580406
v -0.00778656 0.00863063 -0.00604777
v -0.00990348 0.00733849 -0.00451153
v -0.00976752 0.00752719 -0.00451568
v -0.00970809 0.00770747 -0.00432521
v -0.00966577 0.00765626 -0.00451568
v -0.00946677 0.00798596 -0.00436763
v -0.00953790 0.00781480 -0.00451568
v -0.00949648 0.00776429 -0.00468370
v -0.00895982 0.00825533 -0.00490328
v -0.00873922 0.00828970 -0.00521934
v -0.00917773 0.00821184 -0.00456559
v -0.00943075 0.00794387 -0.00451568
v -0.00928668 0.00812556 -0.00449406
v -0.00773883 0.00881652 -0.00580406
v -0.00744619 0.00904801 -0.00571507
v -0.00728681 0.00896313 -0.00607022
v -0.00703649 0.00897856 -0.00633805
v -0.00688432 0.00902065 -0.00643536
v -0.00678707 0.00898488 -0.00659506
v -0.00677086 0.00885089 -0.00683876
v -0.00626572 0.00897576 -0.00710409
v -0.00609554 0.00901364 -0.00719808
v -0.00624591 0.00883897 -0.00734862
v -0.00650974 0.00884598 -0.00709328
v -0.00600369 0.00896243 -0.00735195
v -0.00597398 0.00881863 -0.00759898
v -0.00581010 0.00900101 -0.00743845
v -0.00534997 0.00902767 -0.00773788
v -0.00545353 0.00906976 -0.00759649
v -0.00520140 0.00918901 -0.00758817
v -0.00336001 0.00952713 -0.00796329
v -0.00393089 0.00968075 -0.00735112
v -0.00367246 0.00973126 -0.00735112
v -0.00341494 0.00967795 -0.00760896
v -0.00341494 0.00958605 -0.00782355
v -0.00336001 0.00956922 -0.00788011
v -0.00444684 0.00958114 -0.00730121
v -0.00420552 0.00960920 -0.00737108
v -0.00479351 0.00953134 -0.00719558
v -0.00470616 0.00959728 -0.00710243
v -0.00498530 0.00951029 -0.00710243
v -0.00527524 0.00925495 -0.00742348
v -0.00556248 0.00926898 -0.00718893
v -0.00567773 0.00931037 -0.00701676
v -0.00547784 0.00934194 -0.00709910
v -0.00999263 0.00825603 -0.00207284
v -0.00956672 0.00860818 -0.00245128
v -0.00969548 0.00847349 -0.00245128
v -0.01021413 0.00795089 -0.00219344
v -0.01030958 0.00782111 -0.00219344
v -0.01043834 0.00764083 -0.00219344
v -0.01006736 0.00813818 -0.00217265
v -0.00994760 0.00820202 -0.00245128
v -0.01076340 0.00722064 -0.00205620
v -0.01084984 0.00711822 -0.00195639
v -0.01096510 0.00687480 -0.00219344
v -0.01102813 0.00671557 -0.00234482
v -0.01113978 0.00657808 -0.00219344
v -0.01079221 0.00674994 -0.00322481
v -0.01124603 0.00638727 -0.00219344
v -0.01151796 0.00589623 -0.00219344
v -0.01158730 0.00576716 -0.00219344
v -0.00496279 0.00993680 -0.00580406
v -0.00522121 0.00994101 -0.00554622
v -0.00547874 0.00988910 -0.00554622
v -0.00573716 0.00988839 -0.00528838
v -0.00573716 0.00993750 -0.00503054
v -0.00599379 0.00992908 -0.00477353
v -0.00625221 0.00991645 -0.00451568
v -0.00651064 0.00991154 -0.00415055
v -0.00661869 0.00988348 -0.00415055
v -0.00676906 0.00986875 -0.00399834
v -0.00702659 0.00987296 -0.00348265
v -0.00702659 0.00991084 -0.00322481
v -0.00728411 0.00986735 -0.00296697
v -0.00728411 0.00989541 -0.00270829
v -0.00755514 0.00983929 -0.00244296
v -0.00768211 0.00980492 -0.00235147
v -0.00778115 0.00975651 -0.00244296
v -0.00807289 0.00959728 -0.00270663
v -0.00780006 0.00971372 -0.00270829
v -0.00780006 0.00967654 -0.00296697
v -0.00800806 0.00958535 -0.00296697
v -0.00796214 0.00956150 -0.00322481
v -0.00840876 0.00926407 -0.00348265
v -0.00863026 0.00924092 -0.00296697
v -0.00793603 0.00954677 -0.00336787
v -0.00827909 0.00933632 -0.00348265
v -0.00884007 0.00909712 -0.00294784
v -0.00896343 0.00903118 -0.00284969
v -0.00924076 0.00878916 -0.00296697
v -0.00911380 0.00894910 -0.00270829
v -0.00927768 0.00882073 -0.00270829
v -0.00931099 0.00884598 -0.00245128
v -0.00946227 0.00875830 -0.00227495
v -0.00336001 0.00994171 -0.00683460
v -0.00336001 0.00992838 -0.00688867
v -0.00367246 0.00990102 -0.00683460
v -0.00418841 0.00982736 -0.00678054
v -0.00435589 0.00981053 -0.00673147
v -0.00444414 0.00983789 -0.00658425
v -0.00394439 0.00984841 -0.00685373
v -0.00472147 0.00984981 -0.00633888
v -0.00496279 0.00987717 -0.00606191
v -0.01154137 0.00568087 -0.00259268
v -0.01152157 0.00563878 -0.00276485
v -0.01149725 0.00558757 -0.00296697
v -0.01146934 0.00552444 -0.00320485
v -0.01130726 0.00572366 -0.00342776
v -0.01135949 0.00556723 -0.00350095
v -0.01149185 0.00528874 -0.00348847
v -0.01130006 0.00520807 -0.00414888
v -0.01126674 0.00528523 -0.00414971
v -0.01127575 0.00566754 -0.00359910
v -0.01104704 0.00572577 -0.00414888
v -0.01068956 0.00630590 -0.00424952
v -0.01049597 0.00668961 -0.00414888
v -0.01047436 0.00665804 -0.00425784
v -0.01075890 0.00643918 -0.00385278
v -0.01073999 0.00666576 -0.00354670
v -0.01077240 0.00671837 -0.00337452
v -0.01023664 0.00694846 -0.00435682
v -0.01000523 0.00724379 -0.00442336
v -0.00857804 0.00838932 -0.00529753
v -0.00820256 0.00878355 -0.00518774
v -0.00779826 0.00889860 -0.00554539
v -0.00761817 0.00899470 -0.00559945
v -0.00847269 0.00853803 -0.00520437
v -0.00838354 0.00871901 -0.00503054
v -0.00843217 0.00876110 -0.00488332
v -0.00996921 0.00744932 -0.00415055
v -0.00998362 0.00772922 -0.00359494
v -0.01001874 0.00777341 -0.00342277
v -0.00974410 0.00775166 -0.00415055
v -0.00950369 0.00803366 -0.00419546
v -0.00939383 0.00812135 -0.00427198
v -0.00922005 0.00825744 -0.00439342
v -0.00882746 0.00832548 -0.00500559
v -0.00899404 0.00828690 -0.00477353
v -0.00728231 0.00922338 -0.00555121
v -0.00728681 0.00910062 -0.00580240
v -0.00720217 0.00905643 -0.00598954
v -0.00753533 0.00907958 -0.00552626
v -0.00695725 0.00906485 -0.00626319
v -0.00678707 0.00912588 -0.00633805
v -0.00671324 0.00906906 -0.00652020
v -0.00662409 0.00901925 -0.00669154
v -0.00652775 0.00898067 -0.00684874
v -0.00618918 0.00906344 -0.00702590
v -0.00592355 0.00905573 -0.00726628
v -0.00584972 0.00927950 -0.00695022
v -0.00572906 0.00909501 -0.00735195
v -0.00394439 0.00976984 -0.00708995
v -0.00367246 0.00978948 -0.00718560
v -0.00444684 0.00966602 -0.00709245
v -0.00418841 0.00972074 -0.00709245
v -0.00354100 0.00980141 -0.00722053
v -0.00343835 0.00977195 -0.00734613
v -0.00336001 0.00968707 -0.00760896
v -0.00336001 0.00966181 -0.00766968
v -0.00336001 0.00959026 -0.00783686
v -0.00491416 0.00956992 -0.00702341
v -0.00470436 0.00969829 -0.00683460
v -0.00498530 0.00961411 -0.00685789
v -0.00508615 0.00954186 -0.00695936
v -0.00575247 0.00923741 -0.00709910
v -0.00554537 0.00952222 -0.00665494
v -0.00546703 0.00947452 -0.00681963
v -0.00997191 0.00823218 -0.00224501
v -0.00966487 0.00844123 -0.00270829
v -0.00978732 0.00831145 -0.00270829
v -0.00953610 0.00857591 -0.00270829
v -0.01025735 0.00775026 -0.00261347
v -0.00991609 0.00816203 -0.00270829
v -0.00999893 0.00800701 -0.00286882
v -0.00997732 0.00797824 -0.00304099
v -0.01052838 0.00751175 -0.00219344
v -0.00975311 0.00827638 -0.00296697
v -0.01080392 0.00702071 -0.00245128
v -0.01083543 0.00706701 -0.00219344
v -0.01082463 0.00679834 -0.00296697
v -0.01098491 0.00663910 -0.00270829
v -0.01073819 0.00692742 -0.00296697
v -0.01070487 0.00687901 -0.00322481
v -0.01089306 0.00657808 -0.00322481
v -0.01101462 0.00643497 -0.00306179
v -0.01128205 0.00593551 -0.00310005
v -0.01138560 0.00580504 -0.00296697
v -0.00522121 0.00988559 -0.00580406
v -0.00546613 0.00982807 -0.00579408
v -0.00572816 0.00983017 -0.00553707
v -0.00589024 0.00980913 -0.00544475
v -0.00598388 0.00982596 -0.00527008
v -0.00599379 0.00987857 -0.00503054
v -0.00627742 0.00985332 -0.00479682
v -0.00644130 0.00982175 -0.00472695
v -0.00652054 0.00984069 -0.00451735
v -0.00651064 0.00989401 -0.00425701
v -0.00676006 0.00982526 -0.00423206
v -0.00689152 0.00980001 -0.00414888
v -0.00693474 0.00981474 -0.00399834
v -0.00703019 0.00983228 -0.00372220
v -0.00719767 0.00981614 -0.00348265
v -0.00728861 0.00983157 -0.00320235
v -0.00741648 0.00980281 -0.00310171
v -0.00748851 0.00982877 -0.00270829
v -0.00765059 0.00979439 -0.00252281
v -0.00751823 0.00974950 -0.00320235
v -0.00780006 0.00963516 -0.00322481
v -0.00835113 0.00922689 -0.00374049
v -0.00853932 0.00909782 -0.00374049
v -0.00859605 0.00912658 -0.00350261
v -0.00822237 0.00930546 -0.00374049
v -0.00818905 0.00928792 -0.00387607
v -0.00789551 0.00952643 -0.00354004
v -0.00780547 0.00958746 -0.00346602
v -0.00869780 0.00902486 -0.00360159
v -0.00882116 0.00895962 -0.00350261
v -0.00921825 0.00877092 -0.00309921
v -0.00936952 0.00866710 -0.00296697
v -0.00940644 0.00870499 -0.00270829
v -0.00943976 0.00873655 -0.00245128
v -0.00336001 0.00986454 -0.00711074
v -0.00343835 0.00985122 -0.00711740
v -0.00367246 0.00983298 -0.00705585
v -0.00386786 0.00981474 -0.00700262
v -0.00444414 0.00976072 -0.00682379
v -0.00452788 0.00979159 -0.00667241
v -0.00464763 0.00981895 -0.00650190
v -0.00496279 0.00982175 -0.00625487
v -0.00510506 0.00980562 -0.00620164
v -0.00520320 0.00982526 -0.00604860
v -0.01132617 0.00580714 -0.00320152
v -0.01125954 0.00589623 -0.00327222
v -0.01104073 0.00622312 -0.00340197
v -0.01066795 0.00681728 -0.00346934
v -0.01030418 0.00692531 -0.00422374
v -0.01096059 0.00631221 -0.00348681
v -0.01081742 0.00657878 -0.00346934
v -0.01099391 0.00639849 -0.00322481
v -0.01025015 0.00748229 -0.00335706
v -0.00825388 0.00881863 -0.00503054
v -0.00805038 0.00895471 -0.00503553
v -0.00767760 0.00903258 -0.00542811
v -0.00909039 0.00833179 -0.00449406
v -0.00869239 0.00876251 -0.00436930
v -0.00847539 0.00879478 -0.00471115
v -0.00818545 0.00902837 -0.00464627
v -0.00805038 0.00907818 -0.00474857
v -0.00813232 0.00899260 -0.00481844
v -0.01001243 0.00751105 -0.00392514
v -0.01004935 0.00781620 -0.00322481
v -0.00994940 0.00794457 -0.00322481
v -0.00970629 0.00822306 -0.00327305
v -0.00977382 0.00804769 -0.00348265
v -0.00954331 0.00808206 -0.00399834
v -0.00951359 0.00804488 -0.00414888
v -0.01011779 0.00760575 -0.00347600
v -0.00943706 0.00821114 -0.00399834
v -0.00941364 0.00816203 -0.00415055
v -0.00925067 0.00828900 -0.00425701
v -0.00895172 0.00876321 -0.00384945
v -0.00900034 0.00855066 -0.00420960
v -0.00712473 0.00927179 -0.00564021
v -0.00703379 0.00923882 -0.00581904
v -0.00736695 0.00926126 -0.00535076
v -0.00703649 0.00911465 -0.00607022
v -0.00752363 0.00919603 -0.00527424
v -0.00678527 0.00925144 -0.00608686
v -0.00663850 0.00928512 -0.00618916
v -0.00653585 0.00925776 -0.00634387
v -0.00652775 0.00912658 -0.00659506
v -0.00645211 0.00906625 -0.00677305
v -0.00601450 0.00925004 -0.00685290
v -0.00564442 0.00955870 -0.00648360
v -0.00611445 0.00928161 -0.00669736
v -0.00594246 0.00931668 -0.00677888
v -0.00336001 0.00981544 -0.00725963
v -0.00336001 0.00975792 -0.00741849
v -0.00537249 0.00955168 -0.00672315
v -0.00522121 0.00957623 -0.00677971
v -0.00522121 0.00965410 -0.00657842
v -0.00496279 0.00972004 -0.00657842
v -0.00546703 0.00958255 -0.00657343
v -0.00962975 0.00840545 -0.00296697
v -0.00950009 0.00853803 -0.00296697
v -0.01023574 0.00771940 -0.00278481
v -0.00973420 0.00825603 -0.00310171
v -0.00989628 0.00810521 -0.00295948
v -0.00980443 0.00813257 -0.00320152
v -0.01030237 0.00755735 -0.00296697
v -0.01044554 0.00734270 -0.00298859
v -0.01096239 0.00656545 -0.00297196
v -0.01050497 0.00721994 -0.00308923
v -0.01026906 0.00750825 -0.00322481
v -0.00537159 0.00980772 -0.00595378
v -0.00572816 0.00975792 -0.00579408
v -0.00563541 0.00980913 -0.00570093
v -0.00580740 0.00978598 -0.00561692
v -0.00598388 0.00975722 -0.00553707
v -0.00606222 0.00978387 -0.00534411
v -0.00637917 0.00980141 -0.00489829
v -0.00619368 0.00982316 -0.00503054
v -0.00652054 0.00977966 -0.00479682
v -0.00676816 0.00970460 -0.00477353
v -0.00661329 0.00979299 -0.00460385
v -0.00667001 0.00981193 -0.00443251
v -0.00684200 0.00978387 -0.00430192
v -0.00699957 0.00974599 -0.00423206
v -0.00691764 0.00979089 -0.00415055
v -0.00706351 0.00977125 -0.00399834
v -0.00711843 0.00978878 -0.00379622
v -0.00716165 0.00980422 -0.00362488
v -0.00737776 0.00978948 -0.00327388
v -0.00754254 0.00969338 -0.00348265
v -0.00814583 0.00926267 -0.00404824
v -0.00829170 0.00918831 -0.00397671
v -0.00837454 0.00907327 -0.00414888
v -0.00847899 0.00905222 -0.00399834
v -0.00860775 0.00896033 -0.00399834
v -0.00784598 0.00950117 -0.00374049
v -0.00790001 0.00936719 -0.00414888
v -0.00800086 0.00931458 -0.00414888
v -0.00793063 0.00928722 -0.00439175
v -0.00771722 0.00956641 -0.00374049
v -0.00754254 0.00964217 -0.00374049
v -0.00933260 0.00862782 -0.00318738
v -0.00947758 0.00851488 -0.00310337
v -0.00336001 0.00984560 -0.00716897
v -0.00520320 0.00975020 -0.00630062
v -0.00527704 0.00978317 -0.00612595
v -0.00546613 0.00975511 -0.00604860
v -0.01017721 0.00763732 -0.00322481
v -0.00796034 0.00905012 -0.00495318
v -0.00781087 0.00911325 -0.00503553
v -0.00874642 0.00880460 -0.00414888
v -0.00852491 0.00883125 -0.00451568
v -0.00834843 0.00895962 -0.00451568
v -0.00821877 0.00905222 -0.00451568
v -0.00803147 0.00918621 -0.00449323
v -0.00788110 0.00925986 -0.00456393
v -0.00779646 0.00922759 -0.00478434
v -0.01021143 0.00768642 -0.00296697
v -0.00959193 0.00836967 -0.00318821
v -0.00953790 0.00831706 -0.00348265
v -0.00950009 0.00827988 -0.00367894
v -0.00946767 0.00824621 -0.00385112
v -0.00966667 0.00817676 -0.00348265
v -0.00927498 0.00831215 -0.00415055
v -0.00930829 0.00834512 -0.00399834
v -0.00921015 0.00850506 -0.00385195
v -0.00924346 0.00853733 -0.00367978
v -0.00940914 0.00844614 -0.00348265
v -0.00927948 0.00857381 -0.00348265
v -0.00878514 0.00883195 -0.00399834
v -0.00719497 0.00930476 -0.00546804
v -0.00703379 0.00934685 -0.00555121
v -0.00688162 0.00927880 -0.00591469
v -0.00742548 0.00929213 -0.00517942
v -0.00728231 0.00933001 -0.00527424
v -0.00765419 0.00927740 -0.00487750
v -0.00683209 0.00951520 -0.00533995
v -0.00641609 0.00955940 -0.00571673
v -0.00634226 0.00952713 -0.00588890
v -0.00617027 0.00956290 -0.00597790
v -0.00646652 0.00932019 -0.00627317
v -0.00637827 0.00928371 -0.00644534
v -0.00627652 0.00925425 -0.00659839
v -0.00608023 0.00952643 -0.00615007
v -0.00573356 0.00958956 -0.00631809
v -0.00547874 0.00967023 -0.00632058
v -0.00627652 0.00936719 -0.00634387
v -0.00573716 0.00967514 -0.00606191
v -0.00599379 0.00967865 -0.00580406
v -0.00625221 0.00967163 -0.00554622
v -0.00623330 0.00975090 -0.00527008
v -0.00651064 0.00972705 -0.00503054
v -0.00676816 0.00964007 -0.00503054
v -0.00702569 0.00967304 -0.00451568
v -0.00710132 0.00972775 -0.00415055
v -0.00702299 0.00975511 -0.00415055
v -0.00728411 0.00969338 -0.00399834
v -0.00732643 0.00977125 -0.00348265
v -0.00809270 0.00922689 -0.00425701
v -0.00817014 0.00921216 -0.00414888
v -0.00830791 0.00911886 -0.00414888
v -0.00831511 0.00908449 -0.00423372
v -0.00844117 0.00902556 -0.00414888
v -0.00763708 0.00952643 -0.00405989
v -0.00779916 0.00939104 -0.00425701
v -0.00758396 0.00950047 -0.00425701
v -0.00779646 0.00932650 -0.00449323
v -0.00754704 0.00958746 -0.00398336
v -0.00749211 0.00957413 -0.00414888
v -0.00745610 0.00956501 -0.00425701
v -0.00728411 0.00966111 -0.00415055
v -0.00738766 0.00961832 -0.00415055
v -0.00771002 0.00930546 -0.00470616
v -0.00690323 0.00954677 -0.00516778
v -0.00728411 0.00940858 -0.00503054
v -0.00707881 0.00950749 -0.00503054
v -0.00755784 0.00935456 -0.00478434
v -0.00666011 0.00955308 -0.00544225
v -0.00650523 0.00958325 -0.00553541
v -0.00625401 0.00959167 -0.00580323
v -0.00675556 0.00957343 -0.00526759
v -0.00599379 0.00959237 -0.00606357
v -0.00651064 0.00965760 -0.00528838
v -0.00694915 0.00956781 -0.00503054
v -0.00703829 0.00960078 -0.00477935
v -0.00728411 0.00963796 -0.00425701
v -0.00761367 0.00951450 -0.00414888
v -0.00741738 0.00954607 -0.00439425
v -0.00736155 0.00951871 -0.00456642
v -0.00713284 0.00953344 -0.00486835
v -0.00727871 0.00949135 -0.00477935
v -0.00718867 0.00956010 -0.00469701
v -0.00727871 0.00957904 -0.00449406
f 1 2 3
f 1 3 9
f 1 9 19
f 1 19 38
f 1 38 62
f 1 62 92
f 1 92 133
f 1 133 94
f 1 94 63
f 1 63 39
f 1 39 20
f 1 20 10
f 1 10 4
f 1 4 11
f 1 11 21
f 1 21 41
f 1 41 64
f 1 64 95
f 1 95 138
f 1 138 192
f 1 192 261
f 1 261 375
f 1 375 513
f 1 513 671
f 1 671 838
f 1 838 837
f 1 837 840
f 1 840 839
f 1 839 672
f 1 672 515
f 1 515 514
f 1 514 376
f 1 376 264
f 1 264 205
f 1 205 149
f 1 149 102
f 1 102 72
f 1 72 71
f 1 71 48
f 1 48 26
f 1 26 13
f 1 13 5
f 1 5 2
f 2 5 6
f 2 6 7
f 2 7 3
f 3 7 8
f 3 8 9
f 4 10 11
f 5 12 6
f 5 13 12
f 6 12 14
f 6 14 15
f 6 15 7
f 7 15 16
f 7 16 8
f 8 16 17
f 8 17 18
f 8 18 9
f 9 18 19
f 10 20 11
f 11 20 22
f 11 22 23
f 11 23 21
f 12 24 14
f 12 13 24
f 13 25 24
f 13 26 25
f 14 27 28
f 14 28 15
f 14 24 27
f 15 28 16
f 16 29 30
f 16 30 31
f 16 31 32
f 16 32 17
f 16 28 33
f 16 33 34
f 16 34 29
f 17 32 18
f 18 32 35
f 18 35 36
f 18 36 37
f 18 37 19
f 19 37 38
f 20 39 22
f 21 40 41
f 21 23 42
f 21 42 40
f 22 39 63
f 22 63 93
f 22 93 136
f 22 136 186
f 22 186 242
f 22 242 318
f 22 318 450
f 22 450 449
f 22 449 594
f 22 594 742
f 22 742 897
f 22 897 1037
f 22 1037 1042
f 22 1042 1167
f 22 1167 1166
f 22 1166 1165
f 22 1165 1285
f 22 1285 1284
f 22 1284 1335
f 22 1335 1229
f 22 1229 1103
f 22 1103 1102
f 22 1102 964
f 22 964 814
f 22 814 641
f 22 641 491
f 22 491 358
f 22 358 356
f 22 356 355
f 22 355 354
f 22 354 353
f 22 353 253
f 22 253 189
f 22 189 139
f 22 139 96
f 22 96 65
f 22 65 43
f 22 43 23
f 23 43 42
f 24 25 44
f 24 44 45
f 24 45 27
f 25 26 46
f 25 46 47
f 25 47 44
f 26 48 49
f 26 49 46
f 27 50 33
f 27 33 28
f 27 45 50
f 29 51 52
f 29 52 30
f 29 34 33
f 29 33 53
f 29 53 51
f 30 52 54
f 30 54 55
f 30 55 31
f 31 55 32
f 32 55 35
f 33 50 53
f 35 56 57
f 35 57 36
f 35 55 58
f 35 58 59
f 35 59 56
f 36 57 37
f 37 57 60
f 37 60 61
f 37 61 62
f 37 62 38
f 40 42 41
f 41 42 43
f 41 43 65
f 41 65 64
f 44 47 45
f 45 66 67
f 45 67 50
f 45 47 68
f 45 68 66
f 46 49 69
f 46 69 47
f 47 69 70
f 47 70 68
f 48 71 49
f 49 71 72
f 49 72 73
f 49 73 69
f 50 67 66
f 50 66 74
f 50 74 75
f 50 75 53
f 51 76 52
f 51 53 77
f 51 77 78
f 51 78 79
f 51 79 76
f 52 76 80
f 52 80 81
f 52 81 54
f 53 75 82
f 53 82 83
f 53 83 84
f 53 84 77
f 54 81 85
f 54 85 59
f 54 59 58
f 54 58 55
f 56 86 87
f 56 87 57
f 56 59 85
f 56 85 86
f 57 87 60
f 60 88 89
f 60 89 90
f 60 90 61
f 60 87 88
f 61 90 91
f 61 91 62
f 62 91 92
f 63 94 93
f 64 65 95
f 65 96 95
f 66 68 74
f 68 70 97
f 68 97 98
f 68 98 99
f 68 99 100
f 68 100 101
f 68 101 74
f 69 73 97
f 69 97 70
f 72 102 103
f 72 103 104
f 72 104 73
f 73 104 97
f 74 101 75
f 75 101 105
f 75 105 82
f 76 79 106
f 76 106 107
f 76 107 80
f 77 84 78
f 78 84 108
f 78 108 109
f 78 109 79
f 79 109 108
f 79 108 110
f 79 110 111
f 79 111 112
f 79 112 113
f 79 113 114
f 79 114 115
f 79 115 116
f 79 116 117
f 79 117 107
f 79 107 106
f 80 107 81
f 81 107 117
f 81 117 116
f 81 116 118
f 81 118 119
f 81 119 85
f 82 105 83
f 83 120 84
f 83 105 120
f 84 120 108
f 85 121 122
f 85 122 86
f 85 119 118
f 85 118 123
f 85 123 121
f 86 122 87
f 87 124 88
f 87 122 124
f 88 124 125
f 88 125 126
f 88 126 127
f 88 127 89
f 89 127 128
f 89 128 129
f 89 129 90
f 90 129 91
f 91 129 130
f 91 130 131
f 91 131 132
f 91 132 92
f 92 132 133
f 93 94 134
f 93 134 135
f 93 135 136
f 94 133 132
f 94 132 134
f 95 96 137
f 95 137 138
f 96 139 137
f 97 104 98
f 98 140 141
f 98 141 99
f 98 104 142
f 98 142 143
f 98 143 144
f 98 144 140
f 99 141 145
f 99 145 100
f 100 145 101
f 101 146 105
f 101 145 141
f 101 141 147
f 101 147 148
f 101 148 146
f 102 149 103
f 103 149 142
f 103 142 104
f 105 146 108
f 105 108 120
f 108 146 150
f 108 150 110
f 110 150 151
f 110 151 111
f 111 152 153
f 111 153 154
f 111 154 113
f 111 113 112
f 111 151 155
f 111 155 156
f 111 156 157
f 111 157 152
f 113 158 159
f 113 159 160
f 113 160 116
f 113 116 115
f 113 115 114
f 113 154 153
f 113 153 158
f 116 161 162
f 116 162 163
f 116 163 164
f 116 164 165
f 116 165 118
f 116 160 161
f 118 166 167
f 118 167 123
f 118 165 164
f 118 164 166
f 121 168 122
f 121 123 167
f 121 167 169
f 121 169 168
f 122 168 170
f 122 170 171
f 122 171 124
f 124 172 125
f 124 171 170
f 124 170 173
f 124 173 174
f 124 174 172
f 125 172 175
f 125 175 176
f 125 176 177
f 125 177 126
f 126 177 178
f 126 178 128
f 126 128 127
f 128 178 179
f 128 179 130
f 128 130 129
f 130 180 131
f 130 179 180
f 131 181 182
f 131 182 132
f 131 180 181
f 132 183 134
f 132 182 183
f 134 184 135
f 134 183 184
f 135 184 136
f 136 184 185
f 136 185 186
f 137 187 244
f 137 244 327
f 137 327 466
f 137 466 615
f 137 615 772
f 137 772 644
f 137 644 494
f 137 494 360
f 137 360 251
f 137 251 188
f 137 188 192
f 137 192 138
f 137 139 189
f 137 189 190
f 137 190 191
f 137 191 187
f 140 144 193
f 140 193 194
f 140 194 195
f 140 195 147
f 140 147 141
f 142 149 196
f 142 196 197
f 142 197 143
f 143 197 198
f 143 198 199
f 143 199 200
f 143 200 144
f 144 200 199
f 144 199 201
f 144 201 202
f 144 202 203
f 144 203 193
f 146 148 150
f 147 204 148
f 147 195 204
f 148 204 150
f 149 205 206
f 149 206 196
f 150 204 207
f 150 207 151
f 151 207 155
f 152 208 153
f 152 157 209
f 152 209 210
f 152 210 208
f 153 208 211
f 153 211 212
f 153 212 159
f 153 159 158
f 155 213 156
f 155 207 213
f 156 213 157
f 157 213 214
f 157 214 209
f 159 212 162
f 159 162 161
f 159 161 160
f 162 164 163
f 162 212 215
f 162 215 216
f 162 216 217
f 162 217 218
f 162 218 219
f 162 219 220
f 162 220 164
f 164 220 221
f 164 221 222
f 164 222 223
f 164 223 169
f 164 169 166
f 166 169 167
f 168 169 224
f 168 224 170
f 169 223 224
f 170 224 173
f 172 174 225
f 172 225 175
f 173 224 221
f 173 221 226
f 173 226 219
f 173 219 227
f 173 227 228
f 173 228 229
f 173 229 230
f 173 230 174
f 174 230 225
f 175 231 177
f 175 177 176
f 175 225 232
f 175 232 233
f 175 233 231
f 177 231 234
f 177 234 178
f 178 234 235
f 178 235 236
f 178 236 237
f 178 237 179
f 179 237 180
f 180 237 181
f 181 238 182
f 181 237 238
f 182 238 183
f 183 238 239
f 183 239 240
f 183 240 184
f 184 240 241
f 184 241 185
f 185 241 186
f 186 241 243
f 186 243 242
f 187 191 245
f 187 245 246
f 187 246 247
f 187 247 248
f 187 248 249
f 187 249 250
f 187 250 328
f 187 328 244
f 188 251 359
f 188 359 252
f 188 252 192
f 189 253 191
f 189 191 190
f 191 253 245
f 192 252 254
f 192 254 255
f 192 255 256
f 192 256 257
f 192 257 258
f 192 258 259
f 192 259 260
f 192 260 261
f 193 203 262
f 193 262 194
f 194 262 263
f 194 263 213
f 194 213 195
f 195 213 207
f 195 207 204
f 196 206 198
f 196 198 197
f 198 206 264
f 198 264 265
f 198 265 199
f 199 265 201
f 201 265 202
f 202 266 267
f 202 267 262
f 202 262 203
f 202 265 268
f 202 268 269
f 202 269 270
f 202 270 266
f 205 264 206
f 208 271 211
f 208 210 272
f 208 272 271
f 209 273 210
f 209 214 273
f 210 273 272
f 211 271 274
f 211 274 215
f 211 215 212
f 213 275 214
f 213 263 262
f 213 262 276
f 213 276 277
f 213 277 278
f 213 278 279
f 213 279 275
f 214 275 280
f 214 280 281
f 214 281 273
f 215 274 282
f 215 282 283
f 215 283 284
f 215 284 285
f 215 285 216
f 216 285 286
f 216 286 287
f 216 287 217
f 217 287 288
f 217 288 218
f 218 289 219
f 218 288 289
f 219 289 290
f 219 290 227
f 219 226 220
f 220 226 221
f 221 224 222
f 222 224 223
f 225 291 232
f 225 230 229
f 225 229 291
f 227 290 228
f 228 292 293
f 228 293 294
f 228 294 229
f 228 290 295
f 228 295 292
f 229 294 291
f 231 233 296
f 231 296 297
f 231 297 298
f 231 298 299
f 231 299 300
f 231 300 234
f 232 296 233
f 232 291 296
f 234 300 235
f 235 300 299
f 235 299 301
f 235 301 302
f 235 302 303
f 235 303 304
f 235 304 236
f 236 304 305
f 236 305 237
f 237 305 306
f 237 306 238
f 238 306 239
f 239 307 240
f 239 306 308
f 239 308 307
f 240 309 310
f 240 310 241
f 240 307 311
f 240 311 309
f 241 310 312
f 241 312 313
f 241 313 314
f 241 314 315
f 241 315 243
f 242 243 316
f 242 316 317
f 242 317 318
f 243 315 316
f 244 319 320
f 244 320 321
f 244 321 322
f 244 322 323
f 244 323 324
f 244 324 325
f 244 325 326
f 244 326 464
f 244 464 327
f 244 328 329
f 244 329 330
f 244 330 331
f 244 331 332
f 244 332 333
f 244 333 334
f 244 334 335
f 244 335 336
f 244 336 337
f 244 337 338
f 244 338 339
f 244 339 340
f 244 340 341
f 244 341 342
f 244 342 343
f 244 343 344
f 244 344 345
f 244 345 346
f 244 346 347
f 244 347 348
f 244 348 349
f 244 349 350
f 244 350 351
f 244 351 352
f 244 352 319
f 245 253 353
f 245 353 246
f 246 353 354
f 246 354 247
f 247 354 248
f 248 354 355
f 248 355 356
f 248 356 249
f 249 356 250
f 250 357 467
f 250 467 328
f 250 356 358
f 250 358 357
f 251 360 492
f 251 492 359
f 252 359 361
f 252 361 254
f 254 361 362
f 254 362 255
f 255 362 363
f 255 363 256
f 256 363 364
f 256 364 365
f 256 365 257
f 257 365 366
f 257 366 258
f 258 367 368
f 258 368 259
f 258 366 367
f 259 369 370
f 259 370 371
f 259 371 260
f 259 368 372
f 259 372 369
f 260 371 261
f 261 371 373
f 261 373 374
f 261 374 375
f 262 267 276
f 264 376 265
f 265 376 377
f 265 377 268
f 266 270 378
f 266 378 267
f 267 378 379
f 267 379 276
f 268 380 269
f 268 377 380
f 269 381 270
f 269 380 381
f 270 382 383
f 270 383 384
f 270 384 378
f 270 381 385
f 270 385 386
f 270 386 382
f 271 387 282
f 271 282 388
f 271 388 274
f 271 272 273
f 271 273 389
f 271 389 390
f 271 390 387
f 273 281 391
f 273 391 280
f 273 280 389
f 274 388 282
f 275 279 392
f 275 392 393
f 275 393 280
f 276 379 277
f 277 379 394
f 277 394 278
f 278 394 395
f 278 395 396
f 278 396 279
f 279 396 383
f 279 383 397
f 279 397 398
f 279 398 399
f 279 399 400
f 279 400 401
f 279 401 402
f 279 402 392
f 280 393 403
f 280 403 389
f 280 391 281
f 282 404 405
f 282 405 284
f 282 284 283
f 282 387 406
f 282 406 404
f 284 407 408
f 284 408 409
f 284 409 286
f 284 286 285
f 284 405 404
f 284 404 410
f 284 410 407
f 286 409 411
f 286 411 287
f 287 411 412
f 287 412 288
f 288 412 289
f 289 413 290
f 289 412 413
f 290 413 295
f 291 294 293
f 291 293 296
f 292 295 414
f 292 414 415
f 292 415 416
f 292 416 293
f 293 417 418
f 293 418 298
f 293 298 297
f 293 297 296
f 293 416 419
f 293 419 420
f 293 420 417
f 295 413 421
f 295 421 422
f 295 422 423
f 295 423 414
f 298 424 425
f 298 425 426
f 298 426 427
f 298 427 428
f 298 428 299
f 298 418 429
f 298 429 424
f 299 428 430
f 299 430 431
f 299 431 432
f 299 432 302
f 299 302 301
f 302 432 303
f 303 432 305
f 303 305 304
f 305 432 433
f 305 433 434
f 305 434 306
f 306 434 308
f 307 308 435
f 307 435 436
f 307 436 312
f 307 312 311
f 308 434 437
f 308 437 438
f 308 438 439
f 308 439 440
f 308 440 441
f 308 441 435
f 309 311 312
f 309 312 310
f 312 442 443
f 312 443 313
f 312 436 444
f 312 444 445
f 312 445 446
f 312 446 442
f 313 443 314
f 314 443 447
f 314 447 315
f 315 447 316
f 316 447 448
f 316 448 317
f 317 449 450
f 317 450 318
f 317 448 451
f 317 451 452
f 317 452 449
f 319 453 320
f 319 352 454
f 319 454 455
f 319 455 453
f 320 453 321
f 321 453 456
f 321 456 457
f 321 457 322
f 322 457 458
f 322 458 323
f 323 458 324
f 324 458 459
f 324 459 460
f 324 460 325
f 325 460 461
f 325 461 462
f 325 462 326
f 326 463 464
f 326 462 465
f 326 465 463
f 327 464 614
f 327 614 466
f 328 467 329
f 329 467 468
f 329 468 330
f 330 469 331
f 330 468 469
f 331 470 332
f 331 469 470
f 332 470 471
f 332 471 333
f 333 471 334
f 334 471 472
f 334 472 335
f 335 472 473
f 335 473 336
f 336 473 337
f 337 473 474
f 337 474 475
f 337 475 338
f 338 475 339
f 339 475 476
f 339 476 340
f 340 477 341
f 340 476 477
f 341 477 342
f 342 477 478
f 342 478 343
f 343 478 479
f 343 479 480
f 343 480 481
f 343 481 482
f 343 482 344
f 344 482 345
f 345 482 481
f 345 481 483
f 345 483 346
f 346 483 347
f 347 483 484
f 347 484 348
f 348 484 485
f 348 485 486
f 348 486 349
f 349 486 350
f 350 486 487
f 350 487 488
f 350 488 489
f 350 489 351
f 351 489 454
f 351 454 352
f 357 490 468
f 357 468 467
f 357 358 491
f 357 491 490
f 359 492 493
f 359 493 361
f 360 494 492
f 361 493 495
f 361 495 362
f 362 496 363
f 362 495 497
f 362 497 496
f 363 496 498
f 363 498 364
f 364 498 499
f 364 499 365
f 365 499 366
f 366 499 500
f 366 500 367
f 367 500 368
f 368 500 501
f 368 501 502
f 368 502 372
f 369 503 504
f 369 504 505
f 369 505 370
f 369 372 506
f 369 506 507
f 369 507 508
f 369 508 503
f 370 505 509
f 370 509 371
f 371 509 510
f 371 510 374
f 371 374 373
f 372 502 506
f 374 510 511
f 374 511 512
f 374 512 513
f 374 513 375
f 376 514 377
f 377 514 515
f 377 515 516
f 377 516 517
f 377 517 380
f 378 384 379
f 379 384 394
f 380 517 518
f 380 518 381
f 381 519 520
f 381 520 385
f 381 518 521
f 381 521 519
f 382 522 397
f 382 397 383
f 382 386 522
f 383 396 523
f 383 523 384
f 384 523 394
f 385 520 524
f 385 524 525
f 385 525 526
f 385 526 386
f 386 527 528
f 386 528 522
f 386 526 529
f 386 529 530
f 386 530 527
f 387 390 531
f 387 531 406
f 389 403 532
f 389 532 390
f 390 533 534
f 390 534 531
f 390 532 403
f 390 403 533
f 392 402 535
f 392 535 403
f 392 403 393
f 394 523 395
f 395 523 396
f 397 522 398
f 398 522 399
f 399 536 400
f 399 522 537
f 399 537 536
f 400 536 401
f 401 536 538
f 401 538 539
f 401 539 540
f 401 540 541
f 401 541 535
f 401 535 402
f 403 535 542
f 403 542 543
f 403 543 533
f 404 406 544
f 404 544 410
f 406 531 544
f 407 545 408
f 407 410 545
f 408 545 409
f 409 546 547
f 409 547 411
f 409 545 548
f 409 548 546
f 410 544 549
f 410 549 550
f 410 550 551
f 410 551 552
f 410 552 553
f 410 553 554
f 410 554 555
f 410 555 556
f 410 556 545
f 411 547 557
f 411 557 558
f 411 558 412
f 412 558 557
f 412 557 559
f 412 559 421
f 412 421 413
f 414 423 415
f 415 423 420
f 415 420 419
f 415 419 416
f 417 560 424
f 417 424 429
f 417 429 418
f 417 420 561
f 417 561 560
f 420 423 562
f 420 562 561
f 421 563 422
f 421 559 563
f 422 564 423
f 422 563 564
f 423 565 562
f 423 564 566
f 423 566 567
f 423 567 565
f 424 560 561
f 424 561 568
f 424 568 569
f 424 569 570
f 424 570 571
f 424 571 572
f 424 572 573
f 424 573 574
f 424 574 575
f 424 575 576
f 424 576 426
f 424 426 425
f 426 576 575
f 426 575 577
f 426 577 578
f 426 578 579
f 426 579 427
f 427 579 430
f 427 430 428
f 430 579 580
f 430 580 431
f 431 580 432
f 432 580 581
f 432 581 434
f 432 434 433
f 434 581 438
f 434 438 437
f 435 441 436
f 436 441 582
f 436 582 444
f 438 581 583
f 438 583 580
f 438 580 584
f 438 584 439
f 439 585 440
f 439 584 585
f 440 585 441
f 441 585 586
f 441 586 582
f 442 446 587
f 442 587 588
f 442 588 589
f 442 589 443
f 443 589 447
f 444 582 590
f 444 590 591
f 444 591 445
f 445 592 446
f 445 591 593
f 445 593 592
f 446 592 587
f 447 589 448
f 448 589 451
f 449 452 595
f 449 595 594
f 451 589 588
f 451 588 452
f 452 596 595
f 452 588 597
f 452 597 598
f 452 598 596
f 453 455 599
f 453 599 600
f 453 600 456
f 454 489 601
f 454 601 602
f 454 602 455
f 455 602 599
f 456 600 603
f 456 603 604
f 456 604 605
f 456 605 457
f 457 605 458
f 458 606 607
f 458 607 459
f 458 605 606
f 459 607 460
f 460 607 606
f 460 606 608
f 460 608 461
f 461 608 609
f 461 609 610
f 461 610 463
f 461 463 465
f 461 465 462
f 463 610 611
f 463 611 612
f 463 612 613
f 463 613 614
f 463 614 464
f 466 614 770
f 466 770 615
f 468 490 491
f 468 491 616
f 468 616 617
f 468 617 618
f 468 618 619
f 468 619 620
f 468 620 469
f 469 621 470
f 469 620 621
f 470 621 622
f 470 622 472
f 470 472 471
f 472 623 473
f 472 622 623
f 473 624 474
f 473 623 624
f 474 625 626
f 474 626 627
f 474 627 475
f 474 624 625
f 475 627 476
f 476 627 628
f 476 628 478
f 476 478 477
f 478 628 629
f 478 629 630
f 478 630 481
f 478 481 479
f 479 481 480
f 481 630 629
f 481 629 631
f 481 631 632
f 481 632 633
f 481 633 634
f 481 634 635
f 481 635 483
f 483 485 484
f 483 635 485
f 485 635 636
f 485 636 486
f 486 636 487
f 487 636 637
f 487 637 488
f 488 638 489
f 488 637 639
f 488 639 638
f 489 638 640
f 489 640 601
f 491 641 642
f 491 642 616
f 492 494 493
f 493 494 643
f 493 643 495
f 494 644 645
f 494 645 646
f 494 646 643
f 495 643 497
f 496 497 647
f 496 647 498
f 497 643 648
f 497 648 649
f 497 649 650
f 497 650 651
f 497 651 647
f 498 647 499
f 499 647 652
f 499 652 653
f 499 653 500
f 500 654 655
f 500 655 501
f 500 653 654
f 501 655 502
f 502 655 506
f 503 508 504
f 504 508 656
f 504 656 505
f 505 656 657
f 505 657 658
f 505 658 509
f 506 655 659
f 506 659 660
f 506 660 661
f 506 661 662
f 506 662 663
f 506 663 507
f 507 663 508
f 508 664 665
f 508 665 656
f 508 663 664
f 509 658 510
f 510 658 657
f 510 657 666
f 510 666 667
f 510 667 511
f 511 667 668
f 511 668 669
f 511 669 670
f 511 670 512
f 512 671 513
f 512 670 671
f 515 672 673
f 515 673 521
f 515 521 516
f 516 518 517
f 516 521 518
f 519 521 674
f 519 674 524
f 519 524 520
f 521 673 675
f 521 675 674
f 522 528 676
f 522 676 537
f 524 674 668
f 524 668 525
f 525 668 677
f 525 677 526
f 526 677 529
f 527 530 678
f 527 678 679
f 527 679 680
f 527 680 528
f 528 680 676
f 529 677 681
f 529 681 530
f 530 681 682
f 530 682 679
f 530 679 678
f 531 534 544
f 533 543 550
f 533 550 534
f 534 550 683
f 534 683 544
f 535 541 542
f 536 537 684
f 536 684 538
f 537 676 685
f 537 685 684
f 538 684 539
f 539 684 686
f 539 686 540
f 540 687 688
f 540 688 541
f 540 686 689
f 540 689 687
f 541 688 542
f 542 690 543
f 542 688 687
f 542 687 691
f 542 691 692
f 542 692 690
f 543 693 694
f 543 694 695
f 543 695 550
f 543 690 693
f 544 683 550
f 544 550 549
f 545 556 548
f 546 696 697
f 546 697 698
f 546 698 699
f 546 699 557
f 546 557 547
f 546 548 700
f 546 700 696
f 548 556 555
f 548 555 701
f 548 701 700
f 550 695 694
f 550 694 551
f 551 694 702
f 551 702 552
f 552 702 553
f 553 702 703
f 553 703 704
f 553 704 705
f 553 705 706
f 553 706 707
f 553 707 708
f 553 708 709
f 553 709 710
f 553 710 554
f 554 710 555
f 555 710 701
f 557 699 566
f 557 566 564
f 557 564 559
f 559 564 563
f 561 562 568
f 562 565 568
f 565 711 712
f 565 712 713
f 565 713 714
f 565 714 568
f 565 567 566
f 565 566 715
f 565 715 716
f 565 716 717
f 565 717 711
f 566 699 698
f 566 698 715
f 568 714 569
f 569 714 570
f 570 714 713
f 570 713 718
f 570 718 572
f 570 572 571
f 572 718 878
f 572 878 719
f 572 719 720
f 572 720 721
f 572 721 574
f 572 574 573
f 574 721 722
f 574 722 575
f 575 722 723
f 575 723 724
f 575 724 725
f 575 725 577
f 577 725 726
f 577 726 578
f 578 726 579
f 579 727 728
f 579 728 729
f 579 729 580
f 579 726 727
f 580 729 728
f 580 728 730
f 580 730 584
f 580 583 581
f 582 586 590
f 584 730 731
f 584 731 585
f 585 731 732
f 585 732 586
f 586 733 590
f 586 732 733
f 587 597 588
f 587 592 734
f 587 734 735
f 587 735 736
f 587 736 597
f 590 733 591
f 591 733 593
f 592 593 737
f 592 737 738
f 592 738 734
f 593 732 739
f 593 739 740
f 593 740 741
f 593 741 738
f 593 738 737
f 593 733 732
f 594 595 743
f 594 743 742
f 595 596 744
f 595 744 745
f 595 745 743
f 596 746 745
f 596 745 744
f 596 598 747
f 596 747 746
f 597 736 598
f 598 748 749
f 598 749 750
f 598 750 747
f 598 736 751
f 598 751 752
f 598 752 748
f 599 602 753
f 599 753 754
f 599 754 600
f 600 754 603
f 601 640 602
f 602 640 755
f 602 755 753
f 603 756 757
f 603 757 604
f 603 754 756
f 604 757 605
f 605 757 758
f 605 758 606
f 606 759 608
f 606 758 759
f 608 759 760
f 608 760 761
f 608 761 609
f 609 761 610
f 610 762 763
f 610 763 764
f 610 764 611
f 610 761 760
f 610 760 765
f 610 765 762
f 611 764 766
f 611 766 612
f 612 766 613
f 613 767 768
f 613 768 646
f 613 646 645
f 613 645 769
f 613 769 770
f 613 770 614
f 613 766 771
f 613 771 767
f 615 770 769
f 615 769 772
f 616 642 773
f 616 773 774
f 616 774 775
f 616 775 617
f 617 775 776
f 617 776 777
f 617 777 778
f 617 778 779
f 617 779 780
f 617 780 781
f 617 781 782
f 617 782 783
f 617 783 784
f 617 784 785
f 617 785 618
f 618 785 619
f 619 786 787
f 619 787 788
f 619 788 789
f 619 789 790
f 619 790 791
f 619 791 620
f 619 785 792
f 619 792 793
f 619 793 786
f 620 791 621
f 621 794 622
f 621 791 790
f 621 790 794
f 622 794 623
f 623 795 624
f 623 794 796
f 623 796 797
f 623 797 795
f 624 795 798
f 624 798 625
f 625 798 626
f 626 798 799
f 626 799 800
f 626 800 628
f 626 628 627
f 628 801 631
f 628 631 629
f 628 800 801
f 631 801 802
f 631 802 803
f 631 803 804
f 631 804 805
f 631 805 632
f 632 805 633
f 633 806 807
f 633 807 634
f 633 805 806
f 634 807 808
f 634 808 809
f 634 809 635
f 635 809 810
f 635 810 636
f 636 810 637
f 637 811 812
f 637 812 639
f 637 810 811
f 638 813 755
f 638 755 640
f 638 639 813
f 639 812 813
f 641 814 815
f 641 815 816
f 641 816 642
f 642 816 817
f 642 817 818
f 642 818 819
f 642 819 820
f 642 820 773
f 643 646 648
f 644 772 769
f 644 769 645
f 646 768 648
f 647 651 821
f 647 821 652
f 648 768 767
f 648 767 822
f 648 822 823
f 648 823 649
f 649 823 650
f 650 823 651
f 651 823 824
f 651 824 825
f 651 825 826
f 651 826 821
f 652 821 827
f 652 827 653
f 653 827 654
f 654 827 828
f 654 828 829
f 654 829 655
f 655 829 830
f 655 830 659
f 656 665 657
f 657 665 831
f 657 831 666
f 659 830 660
f 660 830 832
f 660 832 833
f 660 833 661
f 661 833 664
f 661 664 663
f 661 663 662
f 664 833 834
f 664 834 665
f 665 834 681
f 665 681 667
f 665 667 831
f 666 831 667
f 667 681 835
f 667 835 677
f 667 677 668
f 668 836 669
f 668 674 836
f 669 836 670
f 670 836 837
f 670 837 838
f 670 838 671
f 672 839 673
f 673 839 840
f 673 840 675
f 674 675 836
f 675 840 837
f 675 837 836
f 676 680 685
f 677 835 681
f 679 682 841
f 679 841 680
f 680 841 842
f 680 842 685
f 681 834 843
f 681 843 682
f 682 843 841
f 684 844 845
f 684 845 846
f 684 846 847
f 684 847 689
f 684 689 686
f 684 685 848
f 684 848 844
f 685 842 848
f 687 689 849
f 687 849 850
f 687 850 691
f 689 851 849
f 689 847 851
f 690 852 853
f 690 853 854
f 690 854 702
f 690 702 694
f 690 694 693
f 690 692 855
f 690 855 852
f 691 850 851
f 691 851 692
f 692 856 855
f 692 851 856
f 696 700 701
f 696 701 857
f 696 857 858
f 696 858 859
f 696 859 860
f 696 860 861
f 696 861 697
f 697 861 860
f 697 860 862
f 697 862 863
f 697 863 716
f 697 716 715
f 697 715 864
f 697 864 698
f 698 864 715
f 701 710 857
f 702 854 865
f 702 865 866
f 702 866 703
f 703 866 704
f 704 866 865
f 704 865 867
f 704 867 705
f 705 867 706
f 706 868 707
f 706 867 869
f 706 869 868
f 707 870 871
f 707 871 710
f 707 710 708
f 707 868 872
f 707 872 873
f 707 873 870
f 708 710 709
f 710 874 875
f 710 875 857
f 710 871 874
f 711 717 863
f 711 863 862
f 711 862 876
f 711 876 877
f 711 877 712
f 712 878 713
f 712 877 879
f 712 879 880
f 712 880 881
f 712 881 882
f 712 882 883
f 712 883 884
f 712 884 878
f 713 878 718
f 716 863 717
f 719 878 884
f 719 884 720
f 720 885 722
f 720 722 721
f 720 884 885
f 722 885 886
f 722 886 723
f 723 886 724
f 724 887 725
f 724 886 888
f 724 888 887
f 725 887 726
f 726 887 889
f 726 889 727
f 727 889 728
f 728 890 891
f 728 891 739
f 728 739 730
f 728 889 890
f 730 739 732
f 730 732 731
f 734 738 735
f 735 738 892
f 735 892 736
f 736 892 751
f 738 741 893
f 738 893 894
f 738 894 892
f 739 891 890
f 739 890 740
f 740 895 894
f 740 894 893
f 740 893 741
f 740 890 888
f 740 888 896
f 740 896 895
f 742 743 898
f 742 898 897
f 743 745 898
f 745 899 900
f 745 900 898
f 745 746 901
f 745 901 902
f 745 902 899
f 746 747 750
f 746 750 901
f 748 903 749
f 748 752 903
f 749 903 901
f 749 901 750
f 751 892 752
f 752 892 904
f 752 904 905
f 752 905 906
f 752 906 907
f 752 907 903
f 753 908 754
f 753 755 908
f 754 908 909
f 754 909 756
f 755 813 910
f 755 910 908
f 756 911 912
f 756 912 913
f 756 913 758
f 756 758 757
f 756 909 911
f 758 913 914
f 758 914 759
f 759 914 915
f 759 915 760
f 760 916 765
f 760 915 916
f 762 917 763
f 762 765 917
f 763 918 766
f 763 766 764
f 763 917 918
f 765 916 917
f 766 918 919
f 766 919 920
f 766 920 771
f 767 771 822
f 771 920 822
f 773 921 922
f 773 922 923
f 773 923 924
f 773 924 774
f 773 820 921
f 774 924 923
f 774 923 925
f 774 925 775
f 775 925 926
f 775 926 927
f 775 927 928
f 775 928 776
f 776 928 778
f 776 778 929
f 776 929 777
f 777 929 778
f 778 930 931
f 778 931 779
f 778 928 930
f 779 931 932
f 779 932 780
f 780 932 933
f 780 933 781
f 781 934 783
f 781 783 782
f 781 933 935
f 781 935 936
f 781 936 937
f 781 937 941
f 781 941 934
f 783 934 938
f 783 938 792
f 783 792 784
f 784 792 785
f 786 793 939
f 786 939 787
f 787 939 940
f 787 940 797
f 787 797 788
f 788 797 789
f 789 797 790
f 790 797 796
f 790 796 794
f 792 938 793
f 793 938 941
f 793 941 939
f 795 942 798
f 795 797 942
f 797 940 943
f 797 943 944
f 797 944 942
f 798 942 944
f 798 944 799
f 799 945 946
f 799 946 800
f 799 944 945
f 800 946 947
f 800 947 801
f 801 947 802
f 802 947 803
f 803 947 948
f 803 948 949
f 803 949 804
f 804 950 805
f 804 949 950
f 805 950 949
f 805 949 951
f 805 951 952
f 805 952 953
f 805 953 954
f 805 954 955
f 805 955 956
f 805 956 957
f 805 957 806
f 806 957 958
f 806 958 807
f 807 958 808
f 808 958 957
f 808 957 959
f 808 959 960
f 808 960 811
f 808 811 810
f 808 810 809
f 811 961 962
f 811 962 812
f 811 960 961
f 812 962 813
f 813 963 910
f 813 962 963
f 814 964 815
f 815 964 965
f 815 965 966
f 815 966 817
f 815 817 816
f 817 967 818
f 817 966 967
f 818 967 968
f 818 968 969
f 818 969 970
f 818 970 971
f 818 971 819
f 819 971 921
f 819 921 820
f 821 826 972
f 821 972 827
f 822 824 823
f 822 920 919
f 822 919 824
f 824 919 973
f 824 973 826
f 824 826 825
f 826 973 974
f 826 974 972
f 827 972 975
f 827 975 828
f 828 975 976
f 828 976 977
f 828 977 829
f 829 977 978
f 829 978 830
f 830 978 979
f 830 979 980
f 830 980 981
f 830 981 982
f 830 982 832
f 832 982 983
f 832 983 833
f 833 983 982
f 833 982 984
f 833 984 848
f 833 848 985
f 833 985 843
f 833 843 834
f 841 843 842
f 842 843 848
f 843 985 848
f 844 986 987
f 844 987 845
f 844 848 984
f 844 984 986
f 845 987 988
f 845 988 989
f 845 989 990
f 845 990 991
f 845 991 846
f 846 991 992
f 846 992 847
f 847 992 851
f 849 851 850
f 851 992 993
f 851 993 994
f 851 994 995
f 851 995 855
f 851 855 856
f 852 865 854
f 852 854 996
f 852 996 853
f 852 855 997
f 852 997 998
f 852 998 865
f 853 996 854
f 855 995 999
f 855 999 1000
f 855 1000 1001
f 855 1001 865
f 855 865 998
f 855 998 997
f 857 875 874
f 857 874 1002
f 857 1002 858
f 858 1003 1004
f 858 1004 1005
f 858 1005 859
f 858 1002 1003
f 859 1005 1006
f 859 1006 880
f 859 880 1007
f 859 1007 862
f 859 862 860
f 862 1007 880
f 862 880 879
f 862 879 877
f 862 877 876
f 865 1001 1000
f 865 1000 1008
f 865 1008 1009
f 865 1009 1010
f 865 1010 1011
f 865 1011 1012
f 865 1012 1013
f 865 1013 1014
f 865 1014 869
f 865 869 867
f 868 869 1014
f 868 1014 872
f 870 873 1015
f 870 1015 1016
f 870 1016 871
f 871 1016 874
f 872 1017 1015
f 872 1015 873
f 872 1014 1018
f 872 1018 1019
f 872 1019 1017
f 874 1016 1002
f 880 1006 1005
f 880 1005 1020
f 880 1020 1021
f 880 1021 1022
f 880 1022 1023
f 880 1023 881
f 881 1023 1024
f 881 1024 882
f 882 1024 883
f 883 1024 1025
f 883 1025 1026
f 883 1026 885
f 883 885 884
f 885 1027 1028
f 885 1028 1029
f 885 1029 886
f 885 1026 1030
f 885 1030 1027
f 886 1029 1028
f 886 1028 1031
f 886 1031 1032
f 886 1032 888
f 887 888 889
f 888 1033 896
f 888 890 889
f 888 1032 1033
f 892 894 904
f 894 895 1034
f 894 1034 1035
f 894 1035 1036
f 894 1036 904
f 895 1035 1034
f 895 896 1035
f 896 1033 1035
f 897 898 1037
f 898 900 1037
f 899 902 1038
f 899 1038 1039
f 899 1039 1040
f 899 1040 1041
f 899 1041 900
f 900 1041 1042
f 900 1042 1037
f 901 903 1043
f 901 1043 1044
f 901 1044 902
f 902 1044 1038
f 903 907 906
f 903 906 1045
f 903 1045 1046
f 903 1046 1043
f 904 1036 905
f 905 1047 1045
f 905 1045 906
f 905 1036 1048
f 905 1048 1049
f 905 1049 1050
f 905 1050 1051
f 905 1051 1047
f 908 1052 909
f 908 910 1052
f 909 1052 911
f 910 963 1053
f 910 1053 1054
f 910 1054 1052
f 911 1055 1056
f 911 1056 1057
f 911 1057 913
f 911 913 912
f 911 1052 1058
f 911 1058 1059
f 911 1059 1055
f 913 1057 1060
f 913 1060 914
f 914 1060 1061
f 914 1061 915
f 915 1061 1060
f 915 1060 1062
f 915 1062 916
f 916 1063 1064
f 916 1064 917
f 916 1062 1065
f 916 1065 1063
f 917 1064 1066
f 917 1066 1067
f 917 1067 1068
f 917 1068 918
f 918 1068 973
f 918 973 919
f 921 971 922
f 922 971 1069
f 922 1069 923
f 923 1069 1070
f 923 1070 925
f 925 1070 926
f 926 1071 1072
f 926 1072 1073
f 926 1073 927
f 926 1070 1071
f 927 1073 930
f 927 930 928
f 930 1073 1074
f 930 1074 931
f 931 1074 1075
f 931 1075 932
f 932 1075 933
f 933 1075 935
f 934 941 938
f 935 1075 1076
f 935 1076 1077
f 935 1077 1078
f 935 1078 936
f 936 1078 1079
f 936 1079 1080
f 936 1080 937
f 937 1080 940
f 937 940 941
f 939 941 940
f 940 1080 1081
f 940 1081 1082
f 940 1082 943
f 943 1082 944
f 944 1083 1084
f 944 1084 945
f 944 1082 1081
f 944 1081 1083
f 945 1084 946
f 946 1084 1085
f 946 1085 947
f 947 1085 948
f 948 1086 949
f 948 1085 1087
f 948 1087 1088
f 948 1088 1086
f 949 1086 951
f 951 1086 1089
f 951 1089 1090
f 951 1090 953
f 951 953 952
f 953 1091 1092
f 953 1092 954
f 953 1090 1093
f 953 1093 1094
f 953 1094 1091
f 954 1092 1095
f 954 1095 955
f 955 1095 1096
f 955 1096 956
f 956 1096 1097
f 956 1097 1098
f 956 1098 957
f 957 1098 959
f 959 1098 1099
f 959 1099 1100
f 959 1100 961
f 959 961 960
f 961 1100 1099
f 961 1099 1101
f 961 1101 962
f 962 1101 963
f 963 1101 1053
f 964 1102 965
f 965 1102 1103
f 965 1103 1104
f 965 1104 967
f 965 967 966
f 967 1104 968
f 968 1105 1106
f 968 1106 1107
f 968 1107 969
f 968 1104 1108
f 968 1108 1105
f 969 1107 1109
f 969 1109 1110
f 969 1110 970
f 970 1110 1069
f 970 1069 971
f 972 974 975
f 973 1068 974
f 974 1068 1111
f 974 1111 1112
f 974 1112 976
f 974 976 975
f 976 1112 1113
f 976 1113 1114
f 976 1114 979
f 976 979 978
f 976 978 977
f 979 1114 1115
f 979 1115 1116
f 979 1116 1117
f 979 1117 980
f 980 1117 981
f 981 1117 1118
f 981 1118 982
f 982 1118 1119
f 982 1119 984
f 984 1119 986
f 986 1119 987
f 987 1119 1117
f 987 1117 988
f 988 1117 1116
f 988 1116 1120
f 988 1120 989
f 989 1120 990
f 990 1120 991
f 991 1121 1122
f 991 1122 993
f 991 993 992
f 991 1120 1115
f 991 1115 1121
f 993 1122 994
f 994 1123 1124
f 994 1124 995
f 994 1122 1125
f 994 1125 1126
f 994 1126 1127
f 994 1127 1123
f 995 1124 999
f 999 1128 1000
f 999 1124 1128
f 1000 1129 1008
f 1000 1128 1129
f 1002 1016 1130
f 1002 1130 1003
f 1003 1005 1004
f 1003 1130 1005
f 1005 1131 1132
f 1005 1132 1133
f 1005 1133 1020
f 1005 1130 1134
f 1005 1134 1135
f 1005 1135 1136
f 1005 1136 1131
f 1008 1129 1137
f 1008 1137 1009
f 1009 1137 1138
f 1009 1138 1010
f 1010 1138 1139
f 1010 1139 1140
f 1010 1140 1141
f 1010 1141 1012
f 1010 1012 1011
f 1012 1142 1143
f 1012 1143 1019
f 1012 1019 1018
f 1012 1018 1013
f 1012 1141 1142
f 1013 1018 1014
f 1015 1144 1016
f 1015 1017 1143
f 1015 1143 1145
f 1015 1145 1136
f 1015 1136 1144
f 1016 1136 1130
f 1016 1144 1136
f 1017 1019 1143
f 1020 1133 1021
f 1021 1146 1147
f 1021 1147 1148
f 1021 1148 1022
f 1021 1133 1149
f 1021 1149 1146
f 1022 1148 1023
f 1023 1148 1150
f 1023 1150 1024
f 1024 1150 1151
f 1024 1151 1152
f 1024 1152 1025
f 1025 1152 1153
f 1025 1153 1026
f 1026 1153 1154
f 1026 1154 1030
f 1027 1030 1154
f 1027 1154 1155
f 1027 1155 1028
f 1028 1156 1031
f 1028 1155 1157
f 1028 1157 1156
f 1031 1156 1033
f 1031 1033 1032
f 1033 1158 1035
f 1033 1156 1158
f 1035 1158 1036
f 1036 1158 1049
f 1036 1049 1048
f 1038 1159 1160
f 1038 1160 1039
f 1038 1044 1161
f 1038 1161 1162
f 1038 1162 1159
f 1039 1160 1163
f 1039 1163 1164
f 1039 1164 1165
f 1039 1165 1040
f 1040 1165 1166
f 1040 1166 1167
f 1040 1167 1041
f 1041 1167 1042
f 1043 1046 1161
f 1043 1161 1044
f 1045 1047 1168
f 1045 1168 1046
f 1046 1169 1161
f 1046 1168 1170
f 1046 1170 1169
f 1047 1051 1171
f 1047 1171 1168
f 1049 1158 1172
f 1049 1172 1157
f 1049 1157 1050
f 1050 1157 1173
f 1050 1173 1174
f 1050 1174 1051
f 1051 1174 1171
f 1052 1175 1058
f 1052 1054 1176
f 1052 1176 1177
f 1052 1177 1175
f 1053 1101 1178
f 1053 1178 1176
f 1053 1176 1054
f 1055 1179 1056
f 1055 1059 1180
f 1055 1180 1181
f 1055 1181 1182
f 1055 1182 1179
f 1056 1179 1057
f 1057 1179 1183
f 1057 1183 1060
f 1058 1175 1059
f 1059 1175 1177
f 1059 1177 1184
f 1059 1184 1180
f 1060 1185 1186
f 1060 1186 1062
f 1060 1183 1185
f 1062 1186 1185
f 1062 1185 1187
f 1062 1187 1065
f 1063 1066 1064
f 1063 1065 1188
f 1063 1188 1066
f 1065 1187 1189
f 1065 1189 1190
f 1065 1190 1127
f 1065 1127 1191
f 1065 1191 1188
f 1066 1188 1192
f 1066 1192 1067
f 1067 1193 1194
f 1067 1194 1111
f 1067 1111 1068
f 1067 1192 1193
f 1069 1110 1195
f 1069 1195 1070
f 1070 1195 1071
f 1071 1196 1197
f 1071 1197 1072
f 1071 1195 1196
f 1072 1197 1198
f 1072 1198 1199
f 1072 1199 1200
f 1072 1200 1074
f 1072 1074 1073
f 1074 1200 1075
f 1075 1200 1201
f 1075 1201 1202
f 1075 1202 1203
f 1075 1203 1204
f 1075 1204 1076
f 1076 1204 1077
f 1077 1204 1203
f 1077 1203 1078
f 1078 1203 1205
f 1078 1205 1206
f 1078 1206 1207
f 1078 1207 1208
f 1078 1208 1079
f 1079 1208 1209
f 1079 1209 1210
f 1079 1210 1080
f 1080 1210 1081
f 1081 1210 1211
f 1081 1211 1212
f 1081 1212 1083
f 1083 1213 1084
f 1083 1212 1213
f 1084 1213 1085
f 1085 1213 1087
f 1086 1088 1089
f 1087 1213 1211
f 1087 1211 1088
f 1088 1211 1214
f 1088 1214 1215
f 1088 1215 1089
f 1089 1215 1090
f 1090 1215 1093
f 1091 1216 1217
f 1091 1217 1218
f 1091 1218 1092
f 1091 1094 1219
f 1091 1219 1220
f 1091 1220 1216
f 1092 1218 1095
f 1093 1221 1219
f 1093 1219 1094
f 1093 1215 1222
f 1093 1222 1221
f 1095 1218 1223
f 1095 1223 1224
f 1095 1224 1096
f 1096 1224 1225
f 1096 1225 1097
f 1097 1225 1226
f 1097 1226 1227
f 1097 1227 1099
f 1097 1099 1098
f 1099 1227 1228
f 1099 1228 1101
f 1101 1228 1178
f 1103 1229 1104
f 1104 1230 1231
f 1104 1231 1108
f 1104 1229 1230
f 1105 1108 1232
f 1105 1232 1159
f 1105 1159 1162
f 1105 1162 1106
f 1106 1233 1234
f 1106 1234 1107
f 1106 1162 1233
f 1107 1234 1235
f 1107 1235 1109
f 1108 1231 1232
f 1109 1236 1110
f 1109 1235 1236
f 1110 1236 1237
f 1110 1237 1238
f 1110 1238 1195
f 1111 1194 1112
f 1112 1194 1239
f 1112 1239 1113
f 1113 1239 1114
f 1114 1239 1115
f 1115 1120 1116
f 1115 1239 1240
f 1115 1240 1241
f 1115 1241 1121
f 1117 1119 1118
f 1121 1241 1125
f 1121 1125 1122
f 1123 1127 1242
f 1123 1242 1243
f 1123 1243 1128
f 1123 1128 1124
f 1125 1241 1244
f 1125 1244 1245
f 1125 1245 1127
f 1125 1127 1126
f 1127 1245 1241
f 1127 1241 1246
f 1127 1246 1191
f 1127 1190 1247
f 1127 1247 1242
f 1128 1243 1137
f 1128 1137 1129
f 1130 1136 1134
f 1131 1248 1249
f 1131 1249 1132
f 1131 1136 1248
f 1132 1250 1133
f 1132 1249 1250
f 1133 1250 1149
f 1134 1136 1135
f 1136 1145 1251
f 1136 1251 1252
f 1136 1252 1253
f 1136 1253 1254
f 1136 1254 1255
f 1136 1255 1256
f 1136 1256 1249
f 1136 1249 1248
f 1137 1257 1138
f 1137 1243 1242
f 1137 1242 1247
f 1137 1247 1257
f 1138 1257 1139
f 1139 1258 1259
f 1139 1259 1260
f 1139 1260 1261
f 1139 1261 1262
f 1139 1262 1263
f 1139 1263 1140
f 1139 1257 1264
f 1139 1264 1247
f 1139 1247 1258
f 1140 1263 1141
f 1141 1263 1265
f 1141 1265 1266
f 1141 1266 1142
f 1142 1266 1143
f 1143 1267 1268
f 1143 1268 1269
f 1143 1269 1251
f 1143 1251 1145
f 1143 1266 1265
f 1143 1265 1267
f 1146 1270 1271
f 1146 1271 1147
f 1146 1149 1272
f 1146 1272 1270
f 1147 1271 1273
f 1147 1273 1150
f 1147 1150 1148
f 1149 1250 1274
f 1149 1274 1272
f 1150 1275 1151
f 1150 1273 1275
f 1151 1275 1276
f 1151 1276 1152
f 1152 1276 1277
f 1152 1277 1278
f 1152 1278 1279
f 1152 1279 1153
f 1153 1279 1154
f 1154 1279 1155
f 1155 1280 1157
f 1155 1279 1278
f 1155 1278 1280
f 1156 1157 1172
f 1156 1172 1158
f 1157 1281 1173
f 1157 1280 1282
f 1157 1282 1283
f 1157 1283 1281
f 1159 1232 1160
f 1160 1231 1163
f 1160 1232 1231
f 1161 1233 1162
f 1161 1169 1233
f 1163 1230 1284
f 1163 1284 1164
f 1163 1231 1230
f 1164 1284 1285
f 1164 1285 1165
f 1168 1171 1286
f 1168 1286 1287
f 1168 1287 1170
f 1169 1235 1234
f 1169 1234 1233
f 1169 1170 1288
f 1169 1288 1289
f 1169 1289 1235
f 1170 1287 1288
f 1171 1174 1286
f 1173 1290 1286
f 1173 1286 1174
f 1173 1281 1290
f 1176 1178 1291
f 1176 1291 1184
f 1176 1184 1177
f 1178 1292 1291
f 1178 1228 1227
f 1178 1227 1292
f 1179 1182 1293
f 1179 1293 1183
f 1180 1184 1294
f 1180 1294 1295
f 1180 1295 1182
f 1180 1182 1181
f 1182 1295 1294
f 1182 1294 1296
f 1182 1296 1259
f 1182 1259 1258
f 1182 1258 1293
f 1183 1293 1297
f 1183 1297 1185
f 1184 1291 1294
f 1185 1297 1298
f 1185 1298 1189
f 1185 1189 1187
f 1188 1191 1299
f 1188 1299 1192
f 1189 1298 1300
f 1189 1300 1190
f 1190 1300 1301
f 1190 1301 1247
f 1191 1246 1192
f 1191 1192 1299
f 1192 1246 1193
f 1193 1239 1194
f 1193 1246 1240
f 1193 1240 1239
f 1195 1238 1196
f 1196 1238 1302
f 1196 1302 1303
f 1196 1303 1304
f 1196 1304 1197
f 1197 1304 1303
f 1197 1303 1305
f 1197 1305 1198
f 1198 1305 1306
f 1198 1306 1307
f 1198 1307 1199
f 1199 1307 1308
f 1199 1308 1309
f 1199 1309 1200
f 1200 1309 1201
f 1201 1308 1202
f 1201 1309 1308
f 1202 1308 1310
f 1202 1310 1311
f 1202 1311 1312
f 1202 1312 1313
f 1202 1313 1203
f 1203 1313 1205
f 1205 1313 1314
f 1205 1314 1206
f 1206 1314 1315
f 1206 1315 1316
f 1206 1316 1207
f 1207 1316 1317
f 1207 1317 1208
f 1208 1317 1318
f 1208 1318 1319
f 1208 1319 1209
f 1209 1319 1320
f 1209 1320 1210
f 1210 1320 1211
f 1211 1320 1214
f 1211 1213 1212
f 1214 1321 1215
f 1214 1320 1321
f 1215 1321 1222
f 1216 1220 1322
f 1216 1322 1323
f 1216 1323 1217
f 1217 1223 1218
f 1217 1323 1324
f 1217 1324 1325
f 1217 1325 1326
f 1217 1326 1268
f 1217 1268 1223
f 1219 1221 1327
f 1219 1327 1220
f 1220 1327 1328
f 1220 1328 1329
f 1220 1329 1330
f 1220 1330 1322
f 1221 1222 1331
f 1221 1331 1327
f 1222 1321 1332
f 1222 1332 1331
f 1223 1268 1224
f 1224 1268 1225
f 1225 1268 1333
f 1225 1333 1334
f 1225 1334 1226
f 1226 1334 1292
f 1226 1292 1227
f 1229 1335 1230
f 1230 1335 1284
f 1235 1289 1237
f 1235 1237 1236
f 1237 1336 1337
f 1237 1337 1238
f 1237 1289 1336
f 1238 1337 1338
f 1238 1338 1302
f 1240 1246 1241
f 1241 1245 1244
f 1247 1301 1339
f 1247 1339 1258
f 1247 1264 1257
f 1249 1256 1255
f 1249 1255 1340
f 1249 1340 1250
f 1250 1340 1341
f 1250 1341 1274
f 1251 1269 1252
f 1252 1342 1343
f 1252 1343 1253
f 1252 1269 1268
f 1252 1268 1342
f 1253 1343 1344
f 1253 1344 1254
f 1254 1345 1346
f 1254 1346 1347
f 1254 1347 1255
f 1254 1344 1345
f 1255 1347 1348
f 1255 1348 1341
f 1255 1341 1340
f 1258 1339 1349
f 1258 1349 1293
f 1259 1296 1260
f 1260 1296 1294
f 1260 1294 1350
f 1260 1350 1351
f 1260 1351 1352
f 1260 1352 1353
f 1260 1353 1354
f 1260 1354 1261
f 1261 1354 1353
f 1261 1353 1262
f 1262 1353 1263
f 1263 1353 1265
f 1265 1355 1267
f 1265 1353 1355
f 1267 1355 1268
f 1268 1355 1356
f 1268 1356 1357
f 1268 1357 1358
f 1268 1358 1359
f 1268 1359 1360
f 1268 1360 1333
f 1268 1326 1361
f 1268 1361 1342
f 1270 1272 1362
f 1270 1362 1363
f 1270 1363 1364
f 1270 1364 1271
f 1271 1364 1275
f 1271 1275 1273
f 1272 1365 1366
f 1272 1366 1362
f 1272 1274 1367
f 1272 1367 1365
f 1274 1341 1348
f 1274 1348 1367
f 1275 1364 1276
f 1276 1364 1363
f 1276 1363 1368
f 1276 1368 1369
f 1276 1369 1370
f 1276 1370 1371
f 1276 1371 1372
f 1276 1372 1373
f 1276 1373 1277
f 1277 1373 1374
f 1277 1374 1278
f 1278 1374 1280
f 1280 1374 1373
f 1280 1373 1282
f 1281 1283 1375
f 1281 1375 1371
f 1281 1371 1376
f 1281 1376 1377
f 1281 1377 1290
f 1282 1373 1283
f 1283 1373 1378
f 1283 1378 1375
f 1286 1290 1287
f 1287 1290 1288
f 1288 1336 1289
f 1288 1290 1377
f 1288 1377 1336
f 1291 1292 1294
f 1292 1334 1294
f 1293 1349 1297
f 1294 1334 1350
f 1297 1349 1301
f 1297 1301 1300
f 1297 1300 1298
f 1301 1349 1339
f 1302 1338 1303
f 1303 1338 1377
f 1303 1377 1379
f 1303 1379 1380
f 1303 1380 1305
f 1305 1380 1306
f 1306 1380 1381
f 1306 1381 1382
f 1306 1382 1307
f 1307 1382 1308
f 1308 1383 1310
f 1308 1382 1383
f 1310 1383 1311
f 1311 1313 1312
f 1311 1383 1384
f 1311 1384 1385
f 1311 1385 1315
f 1311 1315 1314
f 1311 1314 1313
f 1315 1385 1386
f 1315 1386 1387
f 1315 1387 1316
f 1316 1387 1317
f 1317 1386 1388
f 1317 1388 1318
f 1317 1387 1386
f 1318 1388 1389
f 1318 1389 1319
f 1319 1389 1320
f 1320 1389 1321
f 1321 1389 1388
f 1321 1388 1332
f 1322 1390 1391
f 1322 1391 1323
f 1322 1330 1390
f 1323 1391 1392
f 1323 1392 1324
f 1324 1393 1345
f 1324 1345 1344
f 1324 1344 1394
f 1324 1394 1326
f 1324 1326 1325
f 1324 1392 1393
f 1326 1394 1344
f 1326 1344 1361
f 1327 1331 1395
f 1327 1395 1328
f 1328 1330 1329
f 1328 1395 1396
f 1328 1396 1330
f 1330 1396 1397
f 1330 1397 1398
f 1330 1398 1347
f 1330 1347 1346
f 1330 1346 1390
f 1331 1332 1399
f 1331 1399 1400
f 1331 1400 1401
f 1331 1401 1395
f 1332 1388 1402
f 1332 1402 1403
f 1332 1403 1399
f 1333 1360 1359
f 1333 1359 1334
f 1334 1359 1350
f 1336 1377 1337
f 1337 1377 1338
f 1342 1361 1343
f 1343 1361 1344
f 1345 1392 1391
f 1345 1391 1390
f 1345 1390 1346
f 1345 1393 1392
f 1347 1398 1404
f 1347 1404 1367
f 1347 1367 1348
f 1350 1359 1351
f 1351 1359 1358
f 1351 1358 1357
f 1351 1357 1352
f 1352 1357 1353
f 1353 1356 1355
f 1353 1357 1356
f 1362 1366 1405
f 1362 1405 1363
f 1363 1405 1368
f 1365 1406 1407
f 1365 1407 1366
f 1365 1367 1404
f 1365 1404 1408
f 1365 1408 1406
f 1366 1407 1405
f 1368 1409 1369
f 1368 1405 1409
f 1369 1410 1411
f 1369 1411 1371
f 1369 1371 1370
f 1369 1409 1412
f 1369 1412 1410
f 1371 1411 1380
f 1371 1380 1413
f 1371 1413 1376
f 1371 1375 1378
f 1371 1378 1372
f 1372 1378 1373
f 1376 1379 1377
f 1376 1413 1379
f 1379 1413 1380
f 1380 1411 1381
f 1381 1411 1414
f 1381 1414 1383
f 1381 1383 1382
f 1383 1414 1384
f 1384 1412 1405
f 1384 1405 1415
f 1384 1415 1416
f 1384 1416 1385
f 1384 1414 1412
f 1385 1416 1417
f 1385 1417 1386
f 1386 1417 1402
f 1386 1402 1388
f 1395 1418 1396
f 1395 1401 1418
f 1396 1418 1397
f 1397 1418 1401
f 1397 1401 1419
f 1397 1419 1398
f 1398 1419 1404
f 1399 1403 1400
f 1400 1403 1401
f 1401 1403 1417
f 1401 1417 1419
f 1402 1417 1403
f 1404 1419 1420
f 1404 1420 1408
f 1405 1407 1421
f 1405 1421 1415
f 1405 1412 1409
f 1406 1408 1422
f 1406 1422 1421
f 1406 1421 1407
f 1408 1420 1422
f 1410 1414 1411
f 1410 1412 1414
f 1415 1421 1423
f 1415 1423 1416
f 1416 1423 1424
f 1416 1424 1417
f 1417 1424 1419
f 1419 1424 1423
f 1419 1423 1421
f 1419 1421 1420
f 1420 1421 1422

