# https://github.com/mikedh/trimesh
v -0.01279747 -0.00038756 -0.00284877
v -0.01272698 -0.00038756 -0.00318094
v -0.01276608 -0.00064418 -0.00296666
v -0.01279389 -0.00052754 -0.00284877
v -0.01239435 0.00322420 -0.00284872
v -0.01279747 0.00012742 -0.00284877
v -0.01277269 0.00012742 -0.00296666
v -0.01272698 0.00038664 -0.00318094
v -0.01269862 -0.00038756 -0.00330996
v -0.01272368 -0.00064418 -0.00316609
v -0.01271679 -0.00085415 -0.00313269
v -0.01279086 -0.00064418 -0.00284877
v -0.01076727 0.00322420 -0.00284872
v -0.01239435 0.00322507 -0.00284872
v -0.01277021 -0.00091377 -0.00284877
v -0.01275507 -0.00106412 -0.00284877
v -0.01269256 -0.00167587 -0.00284877
v -0.01265924 -0.00193941 -0.00284877
v -0.01261381 -0.00219171 -0.00284877
v -0.01243951 -0.00304108 -0.00284877
v -0.01242464 -0.00310502 -0.00284877
v -0.01239407 -0.00322340 -0.00284877
v -0.01231890 -0.00348175 -0.00284877
v -0.01207714 -0.00425508 -0.00284877
v -0.01206144 -0.00430001 -0.00284877
v -0.01279720 0.00038664 -0.00284877
v -0.01277269 0.00038664 -0.00296666
v -0.01269834 0.00038664 -0.00330996
v -0.01269862 -0.00012920 -0.00330996
v -0.01272368 0.00064413 -0.00316609
v -0.01266805 -0.00038756 -0.00341461
v -0.01266392 -0.00054309 -0.00341461
v -0.01269531 -0.00064418 -0.00329511
v -0.01268926 -0.00092500 -0.00322088
v -0.01266502 -0.00116089 -0.00322437
v -0.01270798 -0.00102696 -0.00309330
v -0.01032504 0.00452720 -0.00284872
v -0.01042775 -0.00430001 -0.00284877
v -0.01236902 0.00322420 -0.00296661
v -0.01243978 0.00304102 -0.00284877
v -0.01261353 0.00219165 -0.00284877
v -0.01263887 0.00205168 -0.00284877
v -0.01265924 0.00193849 -0.00284877
v -0.01269256 0.00167581 -0.00284877
v -0.01271652 0.00144338 -0.00284877
v -0.01277021 0.00091371 -0.00284877
v -0.01279086 0.00064413 -0.00284877
v -0.01279444 0.00050415 -0.00284877
v -0.01236020 0.00334172 -0.00284872
v -0.01229384 0.00348169 -0.00296661
v -0.01272808 -0.00116089 -0.00293176
v -0.01269228 -0.00144430 -0.00296589
v -0.01266860 -0.00167587 -0.00296666
v -0.01263529 -0.00193422 -0.00296666
v -0.01258875 -0.00219171 -0.00296666
v -0.01248109 -0.00271360 -0.00297275
v -0.01242794 -0.00297282 -0.00297275
v -0.01237370 -0.00296591 -0.00322437
v -0.01231174 -0.00322340 -0.00322437
v -0.01236874 -0.00322340 -0.00296666
v -0.01217682 -0.00381787 -0.00302245
v -0.01229357 -0.00348175 -0.00296666
v -0.01205180 -0.00425508 -0.00296666
v -0.01202592 -0.00430001 -0.00301801
v -0.01276608 0.00064413 -0.00296666
v -0.01266805 0.00038664 -0.00341461
v -0.01269834 0.00012742 -0.00331046
v -0.01269504 0.00064413 -0.00329511
v -0.01266089 0.00064413 -0.00341461
v -0.01271652 0.00085409 -0.00313269
v -0.01266089 -0.00064418 -0.00341461
v -0.01264823 -0.00080835 -0.00341461
v -0.01263887 -0.00090772 -0.00341461
v -0.01256066 -0.00167587 -0.00341461
v -0.01261216 -0.00167587 -0.00322437
v -0.01015790 0.00452720 -0.00341461
v -0.01197966 0.00452720 -0.00284872
v -0.00998443 -0.00118163 -0.00284877
v -0.00999682 0.00117552 -0.00284877
v -0.01025978 -0.00430001 -0.00341461
v -0.01231174 0.00322420 -0.00322459
v -0.01237370 0.00296585 -0.00322437
v -0.01242767 0.00297276 -0.00297275
v -0.01246154 0.00289154 -0.00289088
v -0.01258875 0.00219165 -0.00296666
v -0.01263529 0.00193417 -0.00296666
v -0.01266833 0.00167581 -0.00296666
v -0.01270798 0.00102690 -0.00309330
v -0.01273937 0.00092581 -0.00299104
v -0.01231918 0.00348169 -0.00284872
v -0.01223244 0.00349033 -0.00322725
v -0.01228228 0.00360007 -0.00284872
v -0.01219554 0.00387830 -0.00284872
v -0.01217654 0.00381868 -0.00302239
v -0.01220353 0.00364673 -0.00314316
v -0.01257911 -0.00193422 -0.00322437
v -0.01253230 -0.00219171 -0.00322437
v -0.01246126 -0.00263065 -0.00314294
v -0.01244364 -0.00280260 -0.00306289
v -0.01244116 -0.00253474 -0.00331484
v -0.01232165 -0.00296591 -0.00341461
v -0.01225750 -0.00322685 -0.00341461
v -0.01221041 -0.00340917 -0.00340718
v -0.01218343 -0.00358112 -0.00331511
v -0.01223216 -0.00348953 -0.00322725
v -0.01220353 -0.00364592 -0.00314316
v -0.01198434 -0.00427409 -0.00324088
v -0.01197002 -0.00430001 -0.00326553
v -0.01268926 0.00092581 -0.00322088
v -0.01263887 0.00090766 -0.00341461
v -0.01263887 0.00141832 -0.00322437
v -0.01252432 -0.00194891 -0.00341461
v -0.01183923 0.00452720 -0.00341461
v -0.01196204 0.00452720 -0.00292982
v -0.01196562 0.00451251 -0.00294123
v -0.01198544 0.00451251 -0.00284872
v -0.01192900 -0.00430001 -0.00341461
v -0.01218343 0.00358192 -0.00331511
v -0.01221014 0.00340998 -0.00340718
v -0.01221261 0.00339356 -0.00341461
v -0.01225860 0.00322420 -0.00341461
v -0.01232165 0.00296585 -0.00341461
v -0.01244116 0.00253469 -0.00331484
v -0.01246126 0.00263060 -0.00314294
v -0.01253230 0.00219165 -0.00322437
v -0.01257911 0.00193417 -0.00322437
v -0.01261216 0.00167581 -0.00322437
v -0.01207741 0.00425589 -0.00284872
v -0.01205208 0.00425589 -0.00296661
v -0.01198407 0.00427403 -0.00324093
v -0.01193065 0.00437254 -0.00333788
v -0.01248659 -0.00216665 -0.00341461
v -0.01248191 -0.00219171 -0.00341461
v -0.01245851 -0.00236366 -0.00338032
v -0.01244116 -0.00239477 -0.00341461
v -0.01220573 -0.00341695 -0.00341461
v -0.01194194 -0.00430001 -0.00337439
v -0.01258049 0.00148572 -0.00341461
v -0.01256094 0.00167581 -0.00341461
v -0.01189072 0.00452720 -0.00323999
v -0.01184501 0.00451338 -0.00341461
v -0.01195681 0.00452720 -0.00295309
v -0.01195102 0.00442524 -0.00316593
v -0.01195901 0.00420491 -0.00341461
v -0.01220903 0.00340566 -0.00341461
v -0.01245465 0.00233163 -0.00341461
v -0.01245878 0.00236360 -0.00338032
v -0.01248191 0.00219165 -0.00341461
v -0.01252432 0.00194799 -0.00341461
v -0.01255213 0.00174407 -0.00341461
v -0.01189678 0.00451251 -0.00324093
v -0.01192046 0.00432588 -0.00341461
v -0.01246952 -0.00225565 -0.00341461
v -0.01189981 0.00452720 -0.00320138
v -0.01246980 0.00225559 -0.00341461
f 1 2 3
f 1 3 4
f 1 4 5
f 1 5 14
f 1 14 6
f 1 6 27
f 1 27 7
f 1 7 2
f 2 7 27
f 2 27 8
f 2 8 29
f 2 29 9
f 2 9 33
f 2 33 10
f 2 10 3
f 3 10 11
f 3 11 12
f 3 12 4
f 4 12 5
f 5 13 37
f 5 37 77
f 5 77 116
f 5 116 128
f 5 128 93
f 5 93 92
f 5 92 90
f 5 90 49
f 5 49 14
f 5 12 15
f 5 15 16
f 5 16 17
f 5 17 18
f 5 18 19
f 5 19 20
f 5 20 21
f 5 21 22
f 5 22 23
f 5 23 24
f 5 24 25
f 5 25 38
f 5 38 13
f 6 14 26
f 6 26 27
f 8 28 29
f 8 27 30
f 8 30 68
f 8 68 28
f 9 29 66
f 9 66 31
f 9 31 32
f 9 32 33
f 10 33 11
f 11 34 35
f 11 35 36
f 11 36 15
f 11 15 12
f 11 33 34
f 13 38 37
f 14 39 40
f 14 40 41
f 14 41 42
f 14 42 43
f 14 43 44
f 14 44 45
f 14 45 46
f 14 46 47
f 14 47 48
f 14 48 26
f 14 49 50
f 14 50 39
f 15 36 51
f 15 51 16
f 16 51 52
f 16 52 53
f 16 53 17
f 17 53 18
f 18 54 19
f 18 53 54
f 19 54 55
f 19 55 56
f 19 56 57
f 19 57 20
f 20 57 21
f 21 57 58
f 21 58 59
f 21 59 60
f 21 60 22
f 22 60 62
f 22 62 23
f 23 61 24
f 23 62 61
f 24 63 64
f 24 64 25
f 24 61 63
f 25 64 108
f 25 108 137
f 25 137 117
f 25 117 80
f 25 80 38
f 26 48 27
f 27 48 47
f 27 47 65
f 27 65 30
f 28 66 67
f 28 67 29
f 28 68 69
f 28 69 66
f 29 67 66
f 30 65 70
f 30 70 68
f 31 66 69
f 31 69 110
f 31 110 138
f 31 138 139
f 31 139 150
f 31 150 149
f 31 149 148
f 31 148 155
f 31 155 146
f 31 146 122
f 31 122 121
f 31 121 120
f 31 120 145
f 31 145 144
f 31 144 152
f 31 152 141
f 31 141 113
f 31 113 76
f 31 76 80
f 31 80 117
f 31 117 136
f 31 136 102
f 31 102 101
f 31 101 135
f 31 135 153
f 31 153 133
f 31 133 132
f 31 132 112
f 31 112 74
f 31 74 73
f 31 73 72
f 31 72 71
f 31 71 32
f 32 71 33
f 33 71 72
f 33 72 34
f 34 72 73
f 34 73 35
f 35 74 75
f 35 75 36
f 35 73 74
f 36 75 53
f 36 53 52
f 36 52 51
f 37 76 113
f 37 113 140
f 37 140 154
f 37 154 142
f 37 142 114
f 37 114 77
f 37 38 78
f 37 78 79
f 37 79 76
f 38 80 78
f 39 50 81
f 39 81 40
f 40 82 83
f 40 83 84
f 40 84 41
f 40 81 82
f 41 84 85
f 41 85 42
f 42 86 43
f 42 85 86
f 43 86 87
f 43 87 44
f 44 87 45
f 45 88 46
f 45 87 88
f 46 88 89
f 46 89 70
f 46 70 47
f 47 70 65
f 49 90 50
f 50 91 81
f 50 90 92
f 50 92 93
f 50 93 94
f 50 94 95
f 50 95 91
f 53 75 96
f 53 96 54
f 54 96 55
f 55 96 97
f 55 97 98
f 55 98 99
f 55 99 56
f 56 99 57
f 57 99 58
f 58 99 98
f 58 98 100
f 58 100 101
f 58 101 59
f 59 101 102
f 59 102 103
f 59 103 104
f 59 104 105
f 59 105 62
f 59 62 60
f 61 62 106
f 61 106 107
f 61 107 63
f 62 105 106
f 63 107 64
f 64 107 108
f 68 70 109
f 68 109 110
f 68 110 69
f 70 89 88
f 70 88 111
f 70 111 109
f 74 96 75
f 74 112 96
f 76 79 78
f 76 78 80
f 77 114 115
f 77 115 116
f 81 91 118
f 81 118 119
f 81 119 120
f 81 120 121
f 81 121 122
f 81 122 82
f 82 122 123
f 82 123 124
f 82 124 83
f 83 124 85
f 83 85 84
f 85 124 125
f 85 125 126
f 85 126 86
f 86 126 127
f 86 127 87
f 87 127 111
f 87 111 88
f 91 95 118
f 93 128 129
f 93 129 94
f 94 129 95
f 95 129 130
f 95 130 131
f 95 131 118
f 96 112 132
f 96 132 97
f 97 132 133
f 97 133 134
f 97 134 100
f 97 100 98
f 100 134 101
f 101 134 135
f 102 136 103
f 103 136 137
f 103 137 104
f 104 106 105
f 104 137 108
f 104 108 107
f 104 107 106
f 109 111 110
f 110 111 138
f 111 127 139
f 111 139 138
f 113 141 131
f 113 131 140
f 114 142 115
f 115 142 143
f 115 143 116
f 116 143 128
f 117 137 136
f 118 131 119
f 119 131 144
f 119 144 145
f 119 145 120
f 122 146 147
f 122 147 123
f 123 147 125
f 123 125 124
f 125 148 126
f 125 147 148
f 126 149 150
f 126 150 139
f 126 139 127
f 126 148 149
f 128 143 129
f 129 143 131
f 129 131 130
f 131 143 151
f 131 151 140
f 131 141 152
f 131 152 144
f 133 153 134
f 134 153 135
f 140 151 154
f 142 154 143
f 143 154 151
f 146 155 147
f 147 155 148

