# https://github.com/mikedh/trimesh
v 0.03577555 -0.01043970 -0.01040920
v 0.03027781 -0.01070795 -0.00864047
v 0.03027781 -0.01036172 -0.00868596
v 0.03027781 -0.01033486 -0.00868633
v 0.03027781 -0.00994818 -0.00868633
v 0.03606002 -0.00971165 -0.01040920
v 0.03599242 -0.01087588 -0.01040920
v 0.03614170 -0.01116549 -0.01040920
v 0.03027781 -0.01115966 -0.00837078
v 0.03027781 -0.00967638 -0.00828016
v 0.03678103 -0.00919521 -0.01040920
v 0.03027781 -0.01158193 -0.00802310
v 0.03678103 -0.01141270 -0.01040920
v 0.03027781 -0.00959095 -0.00756025
v 0.04532339 -0.00834064 -0.01040920
v 0.03027781 -0.01164341 -0.00757975
v 0.03637828 -0.01153275 -0.01011351
v 0.03767104 -0.01141496 -0.01040920
v 0.03822307 -0.01154181 -0.01013553
v 0.03678103 -0.01153987 -0.01013120
v 0.03027781 -0.00964596 -0.00672084
v 0.04532339 -0.01142305 -0.01040920
v 0.04584443 -0.00947543 -0.00672084
v 0.05903114 -0.00947543 -0.00672084
v 0.05905086 -0.00947543 -0.00828016
v 0.05900580 -0.00947543 -0.00899971
v 0.05896073 -0.00947543 -0.00910007
v 0.05863402 -0.00947543 -0.00954632
v 0.05859177 -0.00947543 -0.00960156
v 0.03027781 -0.01164535 -0.00756025
v 0.03678103 -0.01160296 -0.00971998
v 0.03822307 -0.01141626 -0.01040920
v 0.03894127 -0.01154245 -0.01013770
v 0.03027781 -0.01164600 -0.00672084
v 0.04469813 -0.01154343 -0.01014095
v 0.04181970 -0.01154343 -0.01014022
v 0.04038330 -0.01154343 -0.01013950
v 0.04254071 -0.01142144 -0.01040920
v 0.05754968 -0.00987376 -0.00960156
v 0.05693569 -0.01006888 -0.00960156
v 0.05677515 -0.01011127 -0.00960156
v 0.05632452 -0.01022128 -0.00960156
v 0.05621467 -0.01023876 -0.00960156
v 0.05057329 -0.01112763 -0.00960156
v 0.04985509 -0.01122858 -0.00960156
v 0.04742447 -0.01153469 -0.00960156
v 0.04532339 -0.01154310 -0.01014131
v 0.05900580 -0.00948870 -0.00672084
v 0.05900861 -0.00949679 -0.00828016
v 0.05837772 -0.00976407 -0.00899971
v 0.05734690 -0.01009573 -0.00939071
v 0.03027781 -0.01164600 -0.00684034
v 0.03678103 -0.01161008 -0.00960192
v 0.03678385 -0.01164600 -0.00899971
v 0.03750205 -0.01160394 -0.00971998
v 0.03894127 -0.01141788 -0.01040920
v 0.03911870 -0.01141820 -0.01040920
v 0.03966228 -0.01154310 -0.01013914
v 0.04613453 -0.01164600 -0.00672084
v 0.04532339 -0.01160620 -0.00971998
v 0.03966228 -0.01160620 -0.00971998
v 0.04038330 -0.01141982 -0.01040920
v 0.05693569 -0.01015236 -0.00949000
v 0.05549647 -0.01053159 -0.00899971
v 0.05306586 -0.01081084 -0.00938205
v 0.05477546 -0.01063158 -0.00899971
v 0.04973679 -0.01127453 -0.00899971
v 0.04739068 -0.01154181 -0.00957231
v 0.04737941 -0.01153987 -0.00960156
v 0.04732026 -0.01154537 -0.00960156
v 0.04689498 -0.01157837 -0.00960156
v 0.04625282 -0.01160814 -0.00960156
v 0.04613453 -0.01161267 -0.00960156
v 0.05837772 -0.00976601 -0.00672084
v 0.05837772 -0.00977960 -0.00828016
v 0.05781443 -0.01000287 -0.00828016
v 0.05777500 -0.00999737 -0.00899971
v 0.05742012 -0.01012065 -0.00899971
v 0.05693569 -0.01025429 -0.00899971
v 0.05621467 -0.01041187 -0.00899971
v 0.03894127 -0.01160555 -0.00971998
v 0.04532339 -0.01161202 -0.00961744
v 0.04613453 -0.01164600 -0.00899971
v 0.03966228 -0.01141917 -0.01040920
v 0.04685555 -0.01161817 -0.00672084
v 0.05477546 -0.01065844 -0.00828016
v 0.05549647 -0.01055780 -0.00828016
v 0.04901578 -0.01136513 -0.00899971
v 0.04748925 -0.01155378 -0.00899971
v 0.04685555 -0.01161688 -0.00899971
v 0.05780598 -0.00999672 -0.00672084
v 0.05774683 -0.01001969 -0.00672084
v 0.05744829 -0.01013489 -0.00672084
v 0.05745674 -0.01013618 -0.00828016
v 0.05693569 -0.01027532 -0.00828016
v 0.05621467 -0.01042934 -0.00828016
v 0.04685555 -0.01161785 -0.00828016
v 0.04685555 -0.01161817 -0.00684034
v 0.04750897 -0.01155540 -0.00672084
v 0.05477546 -0.01066103 -0.00684034
v 0.05367422 -0.01079661 -0.00828016
v 0.05549647 -0.01055877 -0.00684034
v 0.05331371 -0.01084094 -0.00828016
v 0.04750333 -0.01155507 -0.00828016
v 0.05702300 -0.01024555 -0.00672084
v 0.05693569 -0.01026723 -0.00672084
v 0.05633860 -0.01039731 -0.00672084
v 0.05621467 -0.01042320 -0.00672084
v 0.05549647 -0.01055877 -0.00672084
v 0.04750897 -0.01155540 -0.00684034
v 0.05361507 -0.01080405 -0.00672084
v 0.05477546 -0.01066103 -0.00672084
f 1 2 3
f 1 3 4
f 1 4 5
f 1 5 6
f 1 6 11
f 1 11 15
f 1 15 22
f 1 22 38
f 1 38 62
f 1 62 84
f 1 84 57
f 1 57 56
f 1 56 32
f 1 32 18
f 1 18 13
f 1 13 8
f 1 8 7
f 1 7 2
f 2 7 8
f 2 8 9
f 2 9 12
f 2 12 16
f 2 16 30
f 2 30 52
f 2 52 34
f 2 34 21
f 2 21 14
f 2 14 10
f 2 10 5
f 2 5 4
f 2 4 3
f 5 10 11
f 5 11 6
f 8 12 9
f 8 13 12
f 10 14 11
f 11 14 15
f 12 13 17
f 12 17 16
f 13 18 19
f 13 19 20
f 13 20 17
f 14 21 15
f 15 21 23
f 15 23 24
f 15 24 25
f 15 25 26
f 15 26 27
f 15 27 28
f 15 28 29
f 15 29 22
f 16 17 31
f 16 31 30
f 17 20 31
f 18 32 19
f 19 32 33
f 19 33 31
f 19 31 20
f 21 34 59
f 21 59 85
f 21 85 99
f 21 99 111
f 21 111 112
f 21 112 109
f 21 109 108
f 21 108 107
f 21 107 106
f 21 106 105
f 21 105 93
f 21 93 92
f 21 92 91
f 21 91 74
f 21 74 48
f 21 48 24
f 21 24 23
f 22 35 36
f 22 36 37
f 22 37 38
f 22 29 39
f 22 39 40
f 22 40 41
f 22 41 42
f 22 42 43
f 22 43 44
f 22 44 45
f 22 45 46
f 22 46 47
f 22 47 35
f 24 48 25
f 25 48 49
f 25 49 26
f 26 49 50
f 26 50 27
f 27 50 51
f 27 51 28
f 28 51 29
f 29 51 39
f 30 31 53
f 30 53 54
f 30 54 52
f 31 33 55
f 31 55 53
f 32 56 33
f 33 56 57
f 33 57 58
f 33 58 55
f 34 52 54
f 34 54 83
f 34 83 59
f 35 47 60
f 35 60 61
f 35 61 36
f 36 61 37
f 37 61 58
f 37 58 38
f 38 58 62
f 39 51 63
f 39 63 40
f 40 63 41
f 41 63 42
f 42 63 64
f 42 64 65
f 42 65 43
f 43 65 44
f 44 65 64
f 44 64 45
f 45 64 66
f 45 66 67
f 45 67 68
f 45 68 46
f 46 68 69
f 46 69 47
f 47 69 70
f 47 70 71
f 47 71 72
f 47 72 73
f 47 73 60
f 48 74 75
f 48 75 49
f 49 75 50
f 50 75 76
f 50 76 77
f 50 77 51
f 51 78 79
f 51 79 80
f 51 80 63
f 51 77 78
f 53 55 54
f 54 55 81
f 54 81 61
f 54 61 82
f 54 82 83
f 55 58 81
f 57 84 58
f 58 61 81
f 58 84 62
f 59 83 98
f 59 98 85
f 60 73 82
f 60 82 61
f 63 80 64
f 64 86 66
f 64 80 87
f 64 87 86
f 66 86 67
f 67 86 88
f 67 88 68
f 68 88 89
f 68 89 90
f 68 90 71
f 68 71 70
f 68 70 69
f 71 90 72
f 72 90 83
f 72 83 73
f 73 83 82
f 74 91 75
f 75 91 76
f 76 91 92
f 76 92 93
f 76 93 94
f 76 94 77
f 77 94 78
f 78 94 79
f 79 94 95
f 79 95 80
f 80 95 96
f 80 96 87
f 83 90 97
f 83 97 98
f 85 98 110
f 85 110 99
f 86 87 100
f 86 100 101
f 86 101 88
f 87 96 102
f 87 102 100
f 88 101 89
f 89 101 103
f 89 103 104
f 89 104 90
f 90 104 97
f 93 105 95
f 93 95 94
f 95 105 106
f 95 106 107
f 95 107 96
f 96 107 108
f 96 108 109
f 96 109 102
f 97 104 110
f 97 110 98
f 99 110 111
f 100 112 111
f 100 111 101
f 100 102 109
f 100 109 112
f 101 111 110
f 101 110 103
f 103 110 104

