# https://github.com/mikedh/trimesh
v 0.05092484 0.00959328 -0.00002548
v 0.05107218 0.01010946 -0.00002548
v 0.05104235 0.00921683 -0.00002548
v 0.04960062 0.00621981 0.00514126
v 0.04996761 0.00954322 0.00211956
v 0.04996761 0.00959328 0.00209735
v 0.05144730 0.01028205 -0.00002548
v 0.04996761 0.01016473 0.00246951
v 0.04996761 0.01023825 0.00265604
v 0.04996761 0.01035348 0.00313923
v 0.05107580 0.00911202 -0.00002548
v 0.04960062 0.00503675 0.00845875
v 0.04960062 0.01036339 0.00514126
v 0.05307523 0.00646278 -0.00002548
v 0.05353984 0.00622242 -0.00002548
v 0.05155306 0.01032949 -0.00002548
v 0.04996761 0.01036286 0.00340214
v 0.04960062 0.00503675 0.00904763
v 0.05667187 0.00548620 -0.00002548
v 0.05513071 0.00503675 0.00514126
v 0.05221562 0.01036286 -0.00002548
v 0.04960062 0.01036339 0.00843121
v 0.05486044 0.01036339 0.00514126
v 0.05207280 0.01035661 -0.00002548
v 0.04960062 0.01034044 0.00904763
v 0.05373327 0.00503675 0.00904763
v 0.05883491 0.00548620 -0.00002548
v 0.05750346 0.00503675 0.00514126
v 0.05684361 0.01036286 -0.00002548
v 0.05023064 0.01036339 0.00843121
v 0.05221471 0.01036339 0.00776949
v 0.05419969 0.01036286 0.00644694
v 0.05618285 0.01036286 0.00380095
v 0.05684361 0.01036286 0.00181579
v 0.04961418 0.01034044 0.00904763
v 0.05374683 0.00826944 0.00904763
v 0.05402524 0.00503675 0.00886200
v 0.05403337 0.00826944 0.00886999
v 0.05883310 0.00826996 -0.00002548
v 0.05882135 0.00562489 0.00049323
v 0.05882135 0.00548620 0.00049323
v 0.05880960 0.00548620 0.00063180
v 0.05876260 0.00548620 0.00115495
v 0.05868034 0.00548620 0.00181579
v 0.05856464 0.00548620 0.00238158
v 0.05854566 0.00548620 0.00245086
v 0.05845346 0.00548620 0.00278039
v 0.05835223 0.00548620 0.00313923
v 0.05812986 0.00548620 0.00380095
v 0.05808648 0.00548620 0.00390576
v 0.05791926 0.00548620 0.00430012
v 0.05775746 0.00548620 0.00462965
v 0.05776559 0.00826996 0.00464031
v 0.05750617 0.00824493 0.00514126
v 0.05726212 0.00503675 0.00558360
v 0.05736335 0.01034044 -0.00002548
v 0.05089230 0.01036130 0.00843121
v 0.05287728 0.01035244 0.00776949
v 0.05353893 0.01035869 0.00710777
v 0.05486044 0.01033523 0.00644694
v 0.05486044 0.01036182 0.00578522
v 0.05550493 0.01036026 0.00514126
v 0.05618285 0.01035035 0.00446267
v 0.05684361 0.01035765 0.00247751
v 0.05750527 0.01033106 0.00049323
v 0.05750527 0.01033314 -0.00002548
v 0.05027674 0.01032532 0.00904763
v 0.05155396 0.01034931 0.00843121
v 0.05374051 0.00854526 0.00904763
v 0.05435516 0.00503675 0.00864971
v 0.05436239 0.00826944 0.00864527
v 0.05402433 0.00893162 0.00886555
v 0.05882045 0.00893110 -0.00002548
v 0.05881051 0.00893110 0.00049323
v 0.05881864 0.00826996 0.00049323
v 0.05876712 0.00826996 0.00115495
v 0.05868125 0.00826996 0.00181579
v 0.05856012 0.00826996 0.00239757
v 0.05847787 0.00826996 0.00272798
v 0.05835855 0.00826996 0.00313923
v 0.05813167 0.00826996 0.00380095
v 0.05791835 0.00826996 0.00430990
v 0.05776198 0.00893110 0.00462521
v 0.05750617 0.00826944 0.00514126
v 0.05703433 0.00826944 0.00591135
v 0.05702891 0.00503675 0.00591490
v 0.05726121 0.00694769 0.00558271
v 0.05221471 0.01032272 0.00843121
v 0.05353893 0.01030655 0.00776949
v 0.05419969 0.01032949 0.00710777
v 0.05486044 0.01020957 0.00710777
v 0.05552120 0.01020853 0.00644694
v 0.05552120 0.01032897 0.00578522
v 0.05618285 0.01030082 0.00512350
v 0.05684451 0.01030707 0.00380095
v 0.05684451 0.01034149 0.00313923
v 0.05684451 0.01035035 0.00278039
v 0.05750527 0.01032063 0.00115495
v 0.05814252 0.01011207 0.00049323
v 0.05814794 0.01011363 -0.00002548
v 0.05800964 0.01016108 -0.00002548
v 0.05093840 0.01029404 0.00904763
v 0.05372695 0.00893162 0.00904763
v 0.05479988 0.00503675 0.00831841
v 0.05435516 0.00893162 0.00863728
v 0.05480169 0.00826944 0.00831486
v 0.05395925 0.00938002 0.00882203
v 0.05368085 0.00908387 0.00904763
v 0.05865232 0.00956773 -0.00002548
v 0.05864690 0.00956199 0.00049323
v 0.05862159 0.00951924 0.00115495
v 0.05876079 0.00893110 0.00115495
v 0.05867040 0.00893110 0.00181579
v 0.05855289 0.00893110 0.00238336
v 0.05847606 0.00893110 0.00271377
v 0.05845889 0.00882786 0.00278039
v 0.05835313 0.00893110 0.00313923
v 0.05811721 0.00893110 0.00380095
v 0.05791022 0.00893110 0.00429568
v 0.05787948 0.00935500 0.00422551
v 0.05721331 0.00933988 0.00551698
v 0.05749803 0.00893110 0.00512350
v 0.05748900 0.00890659 0.00514126
v 0.05725669 0.00826944 0.00558004
v 0.05725940 0.00760987 0.00558182
v 0.05703253 0.00893162 0.00589447
v 0.05670260 0.00893162 0.00636611
v 0.05670260 0.00826944 0.00637055
v 0.05669718 0.00503675 0.00636434
v 0.05287728 0.01024555 0.00843121
v 0.05159916 0.01022939 0.00904763
v 0.05425392 0.01012771 0.00782634
v 0.05486044 0.01001613 0.00760784
v 0.05546787 0.01000831 0.00705537
v 0.05601111 0.01001509 0.00644694
v 0.05623347 0.01012354 0.00583141
v 0.05618466 0.01029665 0.00514126
v 0.05616658 0.01030134 0.00514126
v 0.05684451 0.01022261 0.00446267
v 0.05750617 0.01017672 0.00313923
v 0.05750527 0.01025598 0.00247751
v 0.05750527 0.01029873 0.00181579
v 0.05811088 0.01010164 0.00115495
v 0.05847335 0.00989308 0.00049323
v 0.05847877 0.00989882 -0.00002548
v 0.05513071 0.00503675 0.00804484
v 0.05513161 0.00826944 0.00804928
v 0.05479446 0.00893162 0.00830597
v 0.05512529 0.00893162 0.00804573
v 0.05374774 0.00982113 0.00868613
v 0.05353261 0.00959745 0.00894638
v 0.05334008 0.00960318 0.00904763
v 0.05469593 0.00946710 0.00822959
v 0.05423494 0.00964437 0.00845786
v 0.05844171 0.00984981 0.00115495
v 0.05857458 0.00943008 0.00181579
v 0.05852939 0.00933414 0.00227766
v 0.05845798 0.00893110 0.00278039
v 0.05814794 0.00959328 0.00313923
v 0.05794637 0.00958233 0.00375121
v 0.05775203 0.00979610 0.00393773
v 0.05763995 0.00958233 0.00445201
v 0.05731635 0.00957346 0.00509508
v 0.05730550 0.00954844 0.00514126
v 0.05707862 0.00978098 0.00529848
v 0.05685536 0.00961778 0.00579943
v 0.05663210 0.00945406 0.00627107
v 0.05724313 0.00893162 0.00556405
v 0.05748809 0.00893162 0.00514126
v 0.05726392 0.00961935 0.00514126
v 0.05644951 0.00893162 0.00669653
v 0.05645312 0.00826944 0.00670186
v 0.05645222 0.00503675 0.00669475
v 0.05228793 0.01010686 0.00904763
v 0.05287728 0.01003647 0.00892773
v 0.05353261 0.01008444 0.00845164
v 0.05407133 0.01001457 0.00824469
v 0.05521206 0.00993844 0.00745951
v 0.05451154 0.00990820 0.00808481
v 0.05587191 0.00993897 0.00679956
v 0.05663752 0.01000831 0.00564133
v 0.05683547 0.01006514 0.00514126
v 0.05681559 0.01007349 0.00514038
v 0.05685265 0.01006984 0.00509508
v 0.05730279 0.01001613 0.00446267
v 0.05752154 0.01006097 0.00375121
v 0.05790118 0.00997807 0.00313923
v 0.05795089 0.01001248 0.00278039
v 0.05777011 0.01010321 0.00278039
v 0.05799157 0.01004116 0.00247751
v 0.05806207 0.01007974 0.00181579
v 0.05552301 0.00503675 0.00767978
v 0.05548956 0.00826944 0.00771887
v 0.05548142 0.00893162 0.00771531
v 0.05534403 0.00959328 0.00758563
v 0.05330754 0.00996764 0.00881847
v 0.05310687 0.00979089 0.00904763
v 0.05489479 0.00965011 0.00794447
v 0.05839290 0.00976117 0.00181579
v 0.05834409 0.00957034 0.00248994
v 0.05825732 0.00958024 0.00278039
v 0.05784694 0.00993323 0.00349718
v 0.05721059 0.00995304 0.00485615
v 0.05712563 0.00984251 0.00514126
v 0.05648657 0.00989517 0.00608188
v 0.05634556 0.00964177 0.00647359
v 0.05599303 0.00959328 0.00693279
v 0.05611777 0.00893162 0.00706958
v 0.05612139 0.00826944 0.00707669
v 0.05612139 0.00503675 0.00707491
v 0.05247594 0.01006827 0.00904763
v 0.05272723 0.00999476 0.00904763
v 0.05275615 0.00998589 0.00904763
v 0.05567486 0.00959328 0.00726321
v 0.05581587 0.00503675 0.00740532
v 0.05582039 0.00826944 0.00740710
v 0.05581316 0.00893162 0.00740000
f 1 2 7
f 1 7 16
f 1 16 24
f 1 24 21
f 1 21 29
f 1 29 56
f 1 56 66
f 1 66 101
f 1 101 100
f 1 100 145
f 1 145 109
f 1 109 73
f 1 73 39
f 1 39 27
f 1 27 19
f 1 19 15
f 1 15 14
f 1 14 11
f 1 11 3
f 1 3 4
f 1 4 5
f 1 5 6
f 1 6 2
f 2 6 8
f 2 8 9
f 2 9 10
f 2 10 7
f 3 11 4
f 4 12 18
f 4 18 25
f 4 25 22
f 4 22 13
f 4 13 6
f 4 6 5
f 4 11 14
f 4 14 15
f 4 15 12
f 6 13 8
f 7 10 16
f 8 13 9
f 9 13 10
f 10 13 17
f 10 17 16
f 12 15 19
f 12 19 20
f 12 20 28
f 12 28 55
f 12 55 86
f 12 86 129
f 12 129 173
f 12 173 210
f 12 210 215
f 12 215 192
f 12 192 146
f 12 146 104
f 12 104 70
f 12 70 37
f 12 37 26
f 12 26 18
f 13 21 17
f 13 22 30
f 13 30 31
f 13 31 23
f 13 23 29
f 13 29 21
f 16 17 24
f 17 21 24
f 18 26 36
f 18 36 69
f 18 69 103
f 18 103 108
f 18 108 152
f 18 152 197
f 18 197 213
f 18 213 212
f 18 212 211
f 18 211 174
f 18 174 131
f 18 131 102
f 18 102 67
f 18 67 35
f 18 35 25
f 19 27 28
f 19 28 20
f 22 25 35
f 22 35 30
f 23 31 32
f 23 32 33
f 23 33 34
f 23 34 29
f 26 37 38
f 26 38 36
f 27 39 40
f 27 40 41
f 27 41 28
f 28 41 42
f 28 42 43
f 28 43 44
f 28 44 45
f 28 45 46
f 28 46 47
f 28 47 48
f 28 48 49
f 28 49 50
f 28 50 51
f 28 51 52
f 28 52 53
f 28 53 54
f 28 54 55
f 29 34 56
f 30 35 57
f 30 57 31
f 31 57 58
f 31 58 59
f 31 59 32
f 32 60 61
f 32 61 33
f 32 59 60
f 33 61 62
f 33 62 63
f 33 63 64
f 33 64 34
f 34 64 65
f 34 65 66
f 34 66 56
f 35 67 68
f 35 68 57
f 36 38 69
f 37 70 38
f 38 70 71
f 38 71 72
f 38 72 69
f 39 73 74
f 39 74 75
f 39 75 40
f 40 75 76
f 40 76 41
f 41 76 42
f 42 76 43
f 43 76 44
f 44 76 77
f 44 77 45
f 45 78 79
f 45 79 46
f 45 77 78
f 46 79 47
f 47 79 48
f 48 80 49
f 48 79 80
f 49 81 50
f 49 80 81
f 50 81 82
f 50 82 51
f 51 82 53
f 51 53 52
f 53 82 83
f 53 83 84
f 53 84 54
f 54 84 55
f 55 85 86
f 55 84 87
f 55 87 85
f 57 68 58
f 58 68 88
f 58 88 89
f 58 89 90
f 58 90 59
f 59 90 60
f 60 90 91
f 60 91 92
f 60 92 93
f 60 93 62
f 60 62 61
f 62 93 63
f 63 93 94
f 63 94 95
f 63 95 96
f 63 96 97
f 63 97 64
f 64 97 98
f 64 98 65
f 65 98 99
f 65 99 100
f 65 100 101
f 65 101 66
f 67 102 88
f 67 88 68
f 69 72 103
f 70 104 71
f 71 105 72
f 71 104 106
f 71 106 105
f 72 107 108
f 72 108 103
f 72 105 107
f 73 109 110
f 73 110 74
f 74 110 111
f 74 111 112
f 74 112 75
f 75 112 76
f 76 112 77
f 77 112 113
f 77 113 114
f 77 114 78
f 78 114 115
f 78 115 79
f 79 115 116
f 79 116 80
f 80 117 81
f 80 116 117
f 81 118 119
f 81 119 82
f 81 117 118
f 82 119 83
f 83 119 120
f 83 120 121
f 83 121 122
f 83 122 84
f 84 122 123
f 84 123 124
f 84 124 125
f 84 125 87
f 85 126 127
f 85 127 128
f 85 128 86
f 85 87 125
f 85 125 124
f 85 124 126
f 86 128 129
f 88 130 89
f 88 102 131
f 88 131 130
f 89 130 132
f 89 132 91
f 89 91 90
f 91 133 134
f 91 134 92
f 91 132 133
f 92 135 136
f 92 136 137
f 92 137 94
f 92 94 138
f 92 138 93
f 92 134 135
f 93 138 94
f 94 137 139
f 94 139 95
f 95 139 140
f 95 140 141
f 95 141 142
f 95 142 96
f 96 142 98
f 96 98 97
f 98 142 143
f 98 143 99
f 99 143 144
f 99 144 145
f 99 145 100
f 104 146 147
f 104 147 106
f 105 106 148
f 105 148 107
f 106 147 149
f 106 149 148
f 107 150 151
f 107 151 152
f 107 152 108
f 107 148 153
f 107 153 154
f 107 154 150
f 109 145 144
f 109 144 110
f 110 144 111
f 111 144 155
f 111 155 156
f 111 156 112
f 112 156 113
f 113 156 157
f 113 157 114
f 114 157 115
f 115 158 116
f 115 157 158
f 116 158 117
f 117 120 118
f 117 158 157
f 117 157 120
f 118 120 119
f 120 157 159
f 120 159 160
f 120 160 161
f 120 161 162
f 120 162 163
f 120 163 164
f 120 164 121
f 121 165 166
f 121 166 167
f 121 167 127
f 121 127 126
f 121 126 168
f 121 168 169
f 121 169 122
f 121 164 170
f 121 170 165
f 122 169 123
f 123 169 168
f 123 168 124
f 124 168 126
f 127 167 171
f 127 171 172
f 127 172 128
f 128 172 173
f 128 173 129
f 130 131 174
f 130 174 175
f 130 175 176
f 130 176 132
f 132 177 133
f 132 176 177
f 133 178 134
f 133 177 179
f 133 179 178
f 134 178 180
f 134 180 135
f 135 180 181
f 135 181 136
f 136 181 182
f 136 182 183
f 136 183 139
f 136 139 137
f 139 183 184
f 139 184 185
f 139 185 186
f 139 186 140
f 140 186 187
f 140 187 188
f 140 188 189
f 140 189 141
f 141 189 190
f 141 190 191
f 141 191 142
f 142 191 143
f 143 191 144
f 144 191 155
f 146 192 193
f 146 193 147
f 147 193 149
f 148 149 153
f 149 193 194
f 149 194 195
f 149 195 153
f 150 196 197
f 150 197 152
f 150 152 151
f 150 154 179
f 150 179 196
f 153 195 198
f 153 198 179
f 153 179 154
f 155 191 190
f 155 190 199
f 155 199 156
f 156 199 157
f 157 199 200
f 157 200 201
f 157 201 159
f 159 201 202
f 159 202 160
f 160 202 161
f 161 202 203
f 161 203 162
f 162 203 163
f 163 203 170
f 163 170 164
f 165 170 204
f 165 204 205
f 165 205 166
f 166 205 167
f 167 205 206
f 167 206 207
f 167 207 171
f 170 203 204
f 171 207 208
f 171 208 209
f 171 209 172
f 172 209 210
f 172 210 173
f 174 211 175
f 175 211 212
f 175 212 213
f 175 213 196
f 175 196 176
f 176 196 177
f 177 196 179
f 178 195 214
f 178 214 180
f 178 179 198
f 178 198 195
f 180 214 207
f 180 207 206
f 180 206 205
f 180 205 181
f 181 205 203
f 181 203 182
f 182 203 184
f 182 184 183
f 184 203 185
f 185 203 202
f 185 202 186
f 186 202 187
f 187 202 199
f 187 199 188
f 188 190 189
f 188 199 190
f 192 215 193
f 193 215 216
f 193 216 194
f 194 216 217
f 194 217 195
f 195 217 214
f 196 213 197
f 199 202 200
f 200 202 201
f 203 205 204
f 207 214 217
f 207 217 208
f 208 217 216
f 208 216 209
f 209 216 210
f 210 216 215

