# https://github.com/mikedh/trimesh
v 0.02813849 0.01161299 -0.00960202
v 0.02877969 0.01156751 -0.00960202
v 0.02886691 0.01155842 -0.00968447
v 0.02813849 0.01160844 -0.00972012
v 0.01590142 0.01161299 -0.00960202
v 0.02886455 0.01156069 -0.00960202
v 0.02897771 0.01154705 -0.00960202
v 0.02863118 0.01153568 -0.01012269
v 0.02813849 0.01154477 -0.01014423
v 0.02741949 0.01154477 -0.01014534
v 0.02669814 0.01154477 -0.01014646
v 0.02525779 0.01154477 -0.01014832
v 0.02525779 0.01160844 -0.00972012
v 0.01590142 0.01160617 -0.00972012
v 0.01518007 0.01159253 -0.00972012
v 0.01518007 0.01159708 -0.00960202
v 0.02926059 0.01129692 -0.00960202
v 0.02910972 0.01145837 -0.00990061
v 0.02813849 0.01137423 -0.01050409
v 0.02886691 0.01132193 -0.01039379
v 0.02885984 0.01095810 -0.01098948
v 0.02741949 0.01137650 -0.01050521
v 0.02597914 0.01138105 -0.01050744
v 0.02525779 0.01138332 -0.01050818
v 0.01518007 0.01138332 -0.01050632
v 0.01518007 0.01154477 -0.01014609
v 0.01473924 0.01153568 -0.01012455
v 0.01468502 0.01154932 -0.00972012
v 0.01468502 0.01154932 -0.00960202
v 0.02932424 0.01111727 -0.00960202
v 0.02928181 0.01098539 -0.01044022
v 0.02926059 0.01086942 -0.01088587
v 0.02813849 0.01101495 -0.01105076
v 0.02885984 0.01057153 -0.01134935
v 0.02813849 0.01063747 -0.01141099
v 0.02741949 0.01101722 -0.01105187
v 0.02669814 0.01101949 -0.01105262
v 0.02597914 0.01102177 -0.01105299
v 0.01446107 0.01102404 -0.01105262
v 0.01374208 0.01098766 -0.01104036
v 0.01448465 0.01139015 -0.01039491
v 0.01374208 0.01121733 -0.01044022
v 0.01432670 0.01146746 -0.00972012
v 0.01438328 0.01148110 -0.00960202
v 0.02940675 0.01044646 -0.00960202
v 0.03112526 0.00467976 -0.01060436
v 0.03112526 0.00475708 -0.01061885
v 0.03112526 0.00519822 -0.01070204
v 0.03112526 0.00542789 -0.01116031
v 0.03112526 0.00526871 -0.01170772
v 0.02923702 0.01012584 -0.01154246
v 0.02885984 0.01021225 -0.01158814
v 0.02813849 0.01027592 -0.01162305
v 0.02741949 0.01027819 -0.01162454
v 0.02669814 0.01028047 -0.01162528
v 0.02669814 0.01063975 -0.01141285
v 0.01518007 0.01064657 -0.01141248
v 0.01446107 0.01064657 -0.01141248
v 0.01374208 0.01064657 -0.01140060
v 0.01322346 0.01089898 -0.01095234
v 0.01251861 0.01018951 -0.01159371
v 0.01315038 0.01095128 -0.01044022
v 0.01374208 0.01126053 -0.00972012
v 0.01432435 0.01146746 -0.00960202
v 0.02940675 -0.01044646 -0.00960202
v 0.03112526 -0.00467976 -0.01060436
v 0.03112526 0.00467976 -0.01189564
v 0.02885984 0.00971880 -0.01172184
v 0.02813849 0.00971880 -0.01180688
v 0.01230173 0.00611916 -0.01336406
v 0.01230173 0.00671493 -0.01314606
v 0.01518007 0.01028729 -0.01163085
v 0.01374208 0.01028729 -0.01163085
v 0.01302073 0.01026682 -0.01163085
v 0.01241960 0.01029638 -0.01116031
v 0.00704481 0.00640113 -0.01196249
v 0.01278970 0.01070114 -0.01044022
v 0.00704481 0.00534603 -0.01315535
v 0.00704481 0.00550293 -0.01304654
v 0.00704481 0.00569166 -0.01289390
v 0.00704481 0.00580991 -0.01278360
v 0.00704481 0.00605549 -0.01253812
v 0.00704481 0.00624423 -0.01229041
v 0.01315510 0.01095128 -0.00960202
v 0.01374208 0.01126053 -0.00960202
v 0.02929595 -0.01119004 -0.00960202
v 0.03112526 -0.00524142 -0.01070204
v 0.02885984 0.00899797 -0.01179128
v 0.03112526 -0.00467976 -0.01189564
v 0.01734177 0.00035928 -0.01333547
v 0.01662042 0.00179869 -0.01339600
v 0.01662042 0.00251952 -0.01337557
v 0.01590142 0.00323809 -0.01339600
v 0.01590142 0.00395892 -0.01334624
v 0.01518007 0.00467976 -0.01335663
v 0.01374208 0.00539833 -0.01338969
v 0.01302073 0.00539833 -0.01339600
v 0.01158038 0.00539833 -0.01339600
v 0.00704481 0.00467976 -0.01337780
v 0.01158038 0.00611916 -0.01334846
v 0.01158038 0.00673767 -0.01313047
v 0.00704481 0.00643069 -0.01171775
v 0.00704481 0.00644206 -0.01140022
v 0.00704481 0.00644206 -0.01123570
v 0.01279442 0.01069660 -0.00960202
v 0.00704481 0.00491625 -0.01330650
v 0.03112526 -0.00551884 -0.01116031
v 0.02926059 -0.01129691 -0.00960202
v 0.03112526 -0.00531419 -0.01170772
v 0.02923702 -0.01012583 -0.01154246
v 0.02885984 -0.00971880 -0.01172332
v 0.02885984 -0.00899796 -0.01179240
v 0.02813849 -0.00971880 -0.01180837
v 0.01590142 -0.00395892 -0.01334624
v 0.01590142 -0.00323808 -0.01339600
v 0.01662042 -0.00251952 -0.01337557
v 0.01662042 -0.00179868 -0.01339600
v 0.01734177 -0.00035928 -0.01333547
v 0.01446107 0.00467976 -0.01339600
v 0.00704481 0.00395892 -0.01339600
v 0.00704481 0.00417495 -0.01339526
v 0.00704481 0.00643069 -0.01097760
v 0.01239367 0.01033504 -0.00960202
v 0.03112526 -0.00534602 -0.01162602
v 0.02928181 -0.01098538 -0.01044022
v 0.02918044 -0.01149929 -0.00960202
v 0.02926059 -0.01086941 -0.01088587
v 0.02885984 -0.01057153 -0.01134935
v 0.02885984 -0.01021224 -0.01158814
v 0.02813849 -0.01027591 -0.01162305
v 0.01230173 -0.00611916 -0.01336406
v 0.01374208 -0.00539832 -0.01338969
v 0.01518007 -0.00467976 -0.01335663
v 0.01446107 -0.00467976 -0.01339600
v 0.00704481 -0.00395892 -0.01339600
v 0.00704481 0.00609642 -0.01048924
v 0.01209193 0.01002351 -0.00960202
v 0.02910972 -0.01145836 -0.00990061
v 0.02897771 -0.01154704 -0.00960202
v 0.02863118 -0.01153567 -0.01012269
v 0.02886691 -0.01132192 -0.01039379
v 0.02885984 -0.01095809 -0.01098948
v 0.02813849 -0.01063747 -0.01141099
v 0.02741949 -0.01027819 -0.01162454
v 0.01230173 -0.00671493 -0.01314606
v 0.01158038 -0.00673767 -0.01312972
v 0.01158038 -0.00611916 -0.01334772
v 0.00704481 -0.00467976 -0.01337743
v 0.01158038 -0.00539832 -0.01339600
v 0.01302073 -0.00539832 -0.01339600
v 0.00704481 0.00551430 -0.01012306
v 0.01179490 0.00958464 -0.00960202
v 0.00704481 0.00518230 -0.01005658
v 0.02886455 -0.01156069 -0.00960202
v 0.02886691 -0.01155841 -0.00968447
v 0.02813849 -0.01160844 -0.00972012
v 0.02813849 -0.01154477 -0.01014423
v 0.02813849 -0.01137422 -0.01050409
v 0.02813849 -0.01101494 -0.01105076
v 0.02741949 -0.01101722 -0.01105187
v 0.02669814 -0.01101949 -0.01105262
v 0.02597914 -0.01102176 -0.01105299
v 0.02669814 -0.01063974 -0.01141285
v 0.02669814 -0.01028046 -0.01162528
v 0.01374208 -0.01028501 -0.01162751
v 0.02597914 -0.01028046 -0.01162565
v 0.01302073 -0.01026454 -0.01162862
v 0.01251625 -0.01018950 -0.01159297
v 0.00704481 -0.00534375 -0.01315498
v 0.00937860 0.00540060 -0.00960202
v 0.00704481 0.00467976 -0.01003170
v 0.00908629 0.00467976 -0.00960202
v 0.00932202 0.00529827 -0.00960202
v 0.02813849 -0.01161299 -0.00960202
v 0.02741949 -0.01154477 -0.01014534
v 0.02525779 -0.01160844 -0.00972012
v 0.02525779 -0.01154477 -0.01014832
v 0.02669814 -0.01154477 -0.01014646
v 0.02525779 -0.01138332 -0.01050818
v 0.02597914 -0.01138105 -0.01050744
v 0.02741949 -0.01137650 -0.01050521
v 0.02525779 -0.01102176 -0.01105299
v 0.02525779 -0.01063974 -0.01141285
v 0.01446107 -0.01063974 -0.01140951
v 0.01374208 -0.01064429 -0.01140060
v 0.01241724 -0.01029411 -0.01116031
v 0.00704481 -0.00639431 -0.01193686
v 0.00704481 -0.00605321 -0.01253589
v 0.00704481 -0.00568711 -0.01289093
v 0.01374208 -0.01098538 -0.01104073
v 0.01322346 -0.01090125 -0.01095346
v 0.00704481 0.00442508 -0.01003096
v 0.00908393 0.00434095 -0.00960202
v 0.01590142 -0.01161299 -0.00960202
v 0.01590142 -0.01160617 -0.00972012
v 0.01518007 -0.01154477 -0.01014126
v 0.01518007 -0.01137877 -0.01050149
v 0.01446107 -0.01101949 -0.01104964
v 0.00704481 -0.00642614 -0.01169992
v 0.01278499 -0.01070341 -0.01044022
v 0.01448465 -0.01138787 -0.01039268
v 0.01374208 -0.01121732 -0.01044022
v 0.01314567 -0.01095127 -0.01044022
v 0.00704481 -0.00251952 -0.01002687
v 0.00908157 0.00395892 -0.00960202
v 0.01530029 -0.01160162 -0.00960202
v 0.01518007 -0.01159252 -0.00972012
v 0.01473924 -0.01153567 -0.01012120
v 0.00704481 -0.00643751 -0.01127730
v 0.01315038 -0.01095355 -0.00960202
v 0.01278970 -0.01069887 -0.00960202
v 0.01432199 -0.01146973 -0.00972012
v 0.01374208 -0.01126280 -0.00972012
v 0.01374208 -0.01126280 -0.00960202
v 0.00704481 -0.00323808 -0.01002650
v 0.00908157 -0.00395892 -0.00960202
v 0.01518007 -0.01159707 -0.00960202
v 0.01468267 -0.01154932 -0.00972012
v 0.00704481 -0.00643069 -0.01114843
v 0.01245967 -0.01039871 -0.00960202
v 0.00704481 -0.00628970 -0.01072358
v 0.00704481 -0.00642387 -0.01102736
v 0.01431963 -0.01146973 -0.00960202
v 0.01383402 -0.01129691 -0.00960202
v 0.00704481 -0.00467976 -0.01002650
v 0.00908393 -0.00467976 -0.00960202
v 0.01476517 -0.01156069 -0.00960202
v 0.01468031 -0.01154932 -0.00960202
v 0.01239602 -0.01033958 -0.00960202
v 0.00704481 -0.00609415 -0.01048404
v 0.00704481 -0.00487986 -0.01003207
v 0.00937389 -0.00540060 -0.00960202
v 0.00704481 -0.00528235 -0.01005733
v 0.01203771 -0.00992345 -0.00960202
v 0.00704481 -0.00554158 -0.01011861
v 0.00704481 -0.00578716 -0.01024153
v 0.01179725 -0.00958009 -0.00960202
f 1 2 3
f 1 3 4
f 1 4 13
f 1 13 5
f 1 5 16
f 1 16 29
f 1 29 44
f 1 44 64
f 1 64 85
f 1 85 84
f 1 84 105
f 1 105 123
f 1 123 137
f 1 137 152
f 1 152 170
f 1 170 173
f 1 173 172
f 1 172 193
f 1 193 205
f 1 205 216
f 1 216 226
f 1 226 232
f 1 232 237
f 1 237 234
f 1 234 229
f 1 229 220
f 1 220 211
f 1 211 210
f 1 210 214
f 1 214 224
f 1 224 223
f 1 223 228
f 1 228 227
f 1 227 217
f 1 217 206
f 1 206 194
f 1 194 174
f 1 174 154
f 1 154 139
f 1 139 126
f 1 126 108
f 1 108 86
f 1 86 65
f 1 65 45
f 1 45 30
f 1 30 17
f 1 17 7
f 1 7 6
f 1 6 2
f 2 6 3
f 3 6 7
f 3 7 8
f 3 8 4
f 4 8 9
f 4 9 10
f 4 10 11
f 4 11 12
f 4 12 13
f 5 14 15
f 5 15 16
f 5 13 14
f 7 17 18
f 7 18 8
f 8 19 9
f 8 18 20
f 8 20 21
f 8 21 19
f 9 19 22
f 9 22 23
f 9 23 24
f 9 24 10
f 10 24 11
f 11 24 12
f 12 24 25
f 12 25 26
f 12 26 13
f 13 26 14
f 14 26 15
f 15 26 27
f 15 27 28
f 15 28 16
f 16 28 29
f 17 30 31
f 17 31 18
f 18 31 32
f 18 32 20
f 19 33 36
f 19 36 22
f 19 21 33
f 20 32 21
f 21 34 35
f 21 35 33
f 21 32 34
f 22 36 23
f 23 36 37
f 23 37 24
f 24 37 38
f 24 38 39
f 24 39 25
f 25 39 40
f 25 40 41
f 25 41 27
f 25 27 26
f 27 41 42
f 27 42 43
f 27 43 28
f 28 43 44
f 28 44 29
f 30 45 46
f 30 46 47
f 30 47 48
f 30 48 49
f 30 49 50
f 30 50 31
f 31 50 32
f 32 51 34
f 32 50 51
f 33 35 36
f 34 52 35
f 34 51 52
f 35 53 54
f 35 54 55
f 35 55 56
f 35 56 38
f 35 38 37
f 35 37 36
f 35 52 53
f 38 56 57
f 38 57 39
f 39 57 58
f 39 58 59
f 39 59 40
f 40 60 42
f 40 42 41
f 40 59 61
f 40 61 60
f 42 60 62
f 42 62 63
f 42 63 43
f 43 63 64
f 43 64 44
f 45 65 66
f 45 66 46
f 46 66 87
f 46 87 107
f 46 107 124
f 46 124 109
f 46 109 89
f 46 89 67
f 46 67 50
f 46 50 49
f 46 49 48
f 46 48 47
f 50 67 51
f 51 67 68
f 51 68 52
f 52 68 69
f 52 69 53
f 53 69 70
f 53 70 71
f 53 71 54
f 54 71 55
f 55 71 72
f 55 72 56
f 56 72 57
f 57 72 73
f 57 73 58
f 58 73 59
f 59 73 74
f 59 74 61
f 60 61 75
f 60 75 76
f 60 76 77
f 60 77 62
f 61 78 79
f 61 79 80
f 61 80 81
f 61 81 82
f 61 82 83
f 61 83 76
f 61 76 75
f 61 74 78
f 62 84 85
f 62 85 63
f 62 77 84
f 63 85 64
f 65 86 66
f 66 86 87
f 67 69 88
f 67 88 68
f 67 89 118
f 67 118 90
f 67 90 91
f 67 91 92
f 67 92 93
f 67 93 94
f 67 94 69
f 68 88 69
f 69 94 95
f 69 95 96
f 69 96 70
f 70 96 97
f 70 97 98
f 70 98 99
f 70 99 100
f 70 100 101
f 70 101 71
f 71 101 73
f 71 73 72
f 73 101 74
f 74 101 78
f 76 83 82
f 76 82 81
f 76 81 80
f 76 80 79
f 76 79 78
f 76 78 106
f 76 106 99
f 76 99 121
f 76 121 120
f 76 120 135
f 76 135 148
f 76 148 169
f 76 169 189
f 76 189 188
f 76 188 187
f 76 187 199
f 76 199 209
f 76 209 219
f 76 219 222
f 76 222 221
f 76 221 230
f 76 230 236
f 76 236 235
f 76 235 233
f 76 233 231
f 76 231 225
f 76 225 215
f 76 215 204
f 76 204 192
f 76 192 171
f 76 171 153
f 76 153 151
f 76 151 136
f 76 136 122
f 76 122 104
f 76 104 103
f 76 103 102
f 76 102 77
f 77 102 103
f 77 103 104
f 77 104 105
f 77 105 84
f 78 101 100
f 78 100 106
f 86 107 87
f 86 108 107
f 89 109 110
f 89 110 111
f 89 111 112
f 89 112 113
f 89 113 114
f 89 114 115
f 89 115 116
f 89 116 117
f 89 117 118
f 90 118 117
f 90 117 91
f 91 117 115
f 91 115 134
f 91 134 150
f 91 150 149
f 91 149 135
f 91 135 120
f 91 120 98
f 91 98 97
f 91 97 119
f 91 119 93
f 91 93 92
f 93 119 95
f 93 95 94
f 95 119 96
f 96 119 97
f 98 120 121
f 98 121 99
f 99 106 100
f 104 122 105
f 105 122 123
f 107 108 125
f 107 125 124
f 108 126 125
f 109 124 125
f 109 125 127
f 109 127 110
f 110 127 128
f 110 128 129
f 110 129 111
f 111 129 113
f 111 113 112
f 113 129 130
f 113 130 131
f 113 131 132
f 113 132 133
f 113 133 114
f 114 133 115
f 115 133 134
f 115 117 116
f 122 136 123
f 123 136 137
f 125 126 127
f 126 138 127
f 126 139 140
f 126 140 138
f 127 138 141
f 127 141 142
f 127 142 128
f 128 142 143
f 128 143 129
f 129 143 130
f 130 143 144
f 130 144 145
f 130 145 131
f 131 145 146
f 131 146 147
f 131 147 148
f 131 148 149
f 131 149 150
f 131 150 132
f 132 150 134
f 132 134 133
f 135 149 148
f 136 151 137
f 137 151 153
f 137 153 152
f 138 140 141
f 139 154 155
f 139 155 140
f 140 142 141
f 140 155 156
f 140 156 157
f 140 157 158
f 140 158 142
f 142 158 159
f 142 159 143
f 143 159 160
f 143 160 161
f 143 161 162
f 143 162 163
f 143 163 164
f 143 164 144
f 144 164 145
f 145 165 146
f 145 164 166
f 145 166 165
f 146 165 167
f 146 167 168
f 146 168 169
f 146 169 147
f 147 169 148
f 152 153 170
f 153 171 172
f 153 172 173
f 153 173 170
f 154 174 155
f 155 174 156
f 156 175 157
f 156 174 194
f 156 194 176
f 156 176 177
f 156 177 178
f 156 178 175
f 157 175 179
f 157 179 180
f 157 180 181
f 157 181 158
f 158 181 160
f 158 160 159
f 160 181 180
f 160 180 179
f 160 179 161
f 161 179 162
f 162 179 182
f 162 182 183
f 162 183 163
f 163 183 165
f 163 165 166
f 163 166 164
f 165 184 185
f 165 185 167
f 165 183 184
f 167 185 168
f 168 186 187
f 168 187 188
f 168 188 189
f 168 189 169
f 168 185 190
f 168 190 191
f 168 191 186
f 171 192 172
f 172 192 193
f 175 178 179
f 176 194 195
f 176 195 196
f 176 196 177
f 177 179 178
f 177 196 179
f 179 196 197
f 179 197 198
f 179 198 182
f 182 198 184
f 182 184 183
f 184 198 185
f 185 198 190
f 186 191 187
f 187 191 200
f 187 200 199
f 190 198 197
f 190 197 201
f 190 201 202
f 190 202 191
f 191 202 203
f 191 203 200
f 192 204 205
f 192 205 193
f 194 206 207
f 194 207 195
f 195 207 196
f 196 207 208
f 196 208 197
f 197 208 201
f 199 200 209
f 200 203 210
f 200 210 211
f 200 211 209
f 201 208 202
f 202 212 213
f 202 213 203
f 202 208 212
f 203 213 214
f 203 214 210
f 204 215 205
f 205 215 225
f 205 225 216
f 206 217 207
f 207 217 218
f 207 218 208
f 208 218 212
f 209 211 219
f 211 220 221
f 211 221 222
f 211 222 219
f 212 223 224
f 212 224 213
f 212 218 228
f 212 228 223
f 213 224 214
f 216 225 226
f 217 227 218
f 218 227 228
f 220 229 230
f 220 230 221
f 225 231 226
f 226 231 233
f 226 233 232
f 229 234 235
f 229 235 236
f 229 236 230
f 232 233 237
f 233 235 234
f 233 234 237

