# https://github.com/mikedh/trimesh
v 0.06486714 -0.00029786 -0.00827980
v 0.06486594 -0.00029786 -0.00834170
v 0.06486352 -0.00029786 -0.00672097
v 0.06486835 -0.00036137 -0.00827980
v 0.06484544 -0.00029786 -0.00899971
v 0.06484665 -0.00057483 -0.00581459
v 0.06486352 -0.00036137 -0.00672097
v 0.05897354 -0.00029786 -0.00672097
v 0.06481047 -0.00108088 -0.00827980
v 0.06479480 -0.00108088 -0.00899971
v 0.06484544 -0.00036137 -0.00899971
v 0.06482977 -0.00029786 -0.00905420
v 0.06480203 -0.00108192 -0.00581459
v 0.06225795 -0.00057483 -0.00581459
v 0.05710949 -0.00029786 -0.00915578
v 0.05333677 -0.00269067 -0.00917061
v 0.05255063 -0.00440874 -0.00672097
v 0.05255184 -0.00466072 -0.00633507
v 0.05255063 -0.00466177 -0.00633470
v 0.05920384 -0.00057483 -0.00629800
v 0.05962223 -0.00057483 -0.00616602
v 0.05981876 -0.00057483 -0.00611005
v 0.06471281 -0.00180039 -0.00581459
v 0.06472005 -0.00180143 -0.00827980
v 0.06470075 -0.00180143 -0.00899971
v 0.06458500 -0.00180143 -0.00951573
v 0.06463323 -0.00108088 -0.00959247
v 0.06466579 -0.00036137 -0.00960174
v 0.06466579 -0.00029786 -0.00960174
v 0.05255063 -0.00540106 -0.00611375
v 0.05255063 -0.00782510 -0.00581459
v 0.05696601 -0.00029786 -0.00960174
v 0.05333677 -0.00254906 -0.00959914
v 0.05333677 -0.00258758 -0.00960174
v 0.05255063 -0.01093534 -0.00672097
v 0.06465614 -0.00207528 -0.00581459
v 0.06457897 -0.00247096 -0.00827980
v 0.06456691 -0.00244076 -0.00899971
v 0.06453436 -0.00230748 -0.00942825
v 0.06452110 -0.00180143 -0.00960174
v 0.06454280 -0.00165982 -0.00960174
v 0.06462600 -0.00108088 -0.00960174
v 0.06463806 -0.00090595 -0.00960174
v 0.05255063 -0.01093534 -0.00581459
v 0.05334038 -0.00254906 -0.00960174
v 0.05333677 -0.00947446 -0.00960174
v 0.05352365 -0.01081559 -0.00581459
v 0.05859495 -0.00947446 -0.00960174
v 0.05478123 -0.01066045 -0.00672097
v 0.06457777 -0.00244597 -0.00581459
v 0.06448493 -0.00283124 -0.00827980
v 0.06447890 -0.00280104 -0.00899971
v 0.06434386 -0.00324149 -0.00899971
v 0.06382057 -0.00441082 -0.00943307
v 0.06391341 -0.00396100 -0.00957690
v 0.06392788 -0.00387458 -0.00960174
v 0.06436677 -0.00245951 -0.00960174
v 0.06444996 -0.00211069 -0.00960174
v 0.05478123 -0.01066045 -0.00581459
v 0.05860097 -0.00947237 -0.00960174
v 0.05888432 -0.00943176 -0.00948052
v 0.05896390 -0.00947446 -0.00910017
v 0.05622087 -0.01042200 -0.00672097
v 0.05562042 -0.01053550 -0.00672097
v 0.05550105 -0.01055736 -0.00672097
v 0.06447769 -0.00280520 -0.00581459
v 0.06435591 -0.00324045 -0.00581459
v 0.06436194 -0.00324149 -0.00827980
v 0.06410030 -0.00396100 -0.00827980
v 0.06407980 -0.00396100 -0.00899971
v 0.06319842 -0.00540002 -0.00955725
v 0.06318515 -0.00536566 -0.00960174
v 0.06361077 -0.00457014 -0.00960174
v 0.06376149 -0.00425984 -0.00960174
v 0.06390618 -0.00393809 -0.00960174
v 0.06385433 -0.00448683 -0.00899971
v 0.06368312 -0.00484607 -0.00899971
v 0.06308146 -0.00579257 -0.00939822
v 0.05550105 -0.01055736 -0.00581459
v 0.05879269 -0.00938387 -0.00960174
v 0.05900007 -0.00927245 -0.00960174
v 0.05992486 -0.00874766 -0.00960174
v 0.06024076 -0.00868310 -0.00943381
v 0.05934491 -0.00929536 -0.00899971
v 0.05900730 -0.00947446 -0.00899971
v 0.05694069 -0.01026685 -0.00672097
v 0.05622087 -0.01042304 -0.00612006
v 0.05580730 -0.01050114 -0.00581459
v 0.06409909 -0.00396100 -0.00581459
v 0.06386398 -0.00450349 -0.00827980
v 0.06301394 -0.00563742 -0.00960174
v 0.06339133 -0.00540002 -0.00827980
v 0.06336963 -0.00540002 -0.00899971
v 0.06369156 -0.00486377 -0.00827980
v 0.06310557 -0.00583110 -0.00899971
v 0.06285237 -0.00619137 -0.00899971
v 0.06249306 -0.00666827 -0.00899971
v 0.06242795 -0.00659226 -0.00948756
v 0.06256179 -0.00628196 -0.00960174
v 0.06277762 -0.00598416 -0.00960174
v 0.06013948 -0.00861125 -0.00960174
v 0.06065312 -0.00844673 -0.00899971
v 0.06029261 -0.00871954 -0.00899971
v 0.05981876 -0.00901630 -0.00899971
v 0.06039992 -0.00841758 -0.00960174
v 0.06101967 -0.00801982 -0.00950202
v 0.06110045 -0.00808646 -0.00899971
v 0.05936782 -0.00930994 -0.00827980
v 0.05905071 -0.00947446 -0.00827980
v 0.05781122 -0.00999612 -0.00672097
v 0.05745071 -0.01013357 -0.00672097
v 0.05694069 -0.01026685 -0.00581459
v 0.05715772 -0.01021062 -0.00581459
v 0.05622087 -0.01042304 -0.00581459
v 0.06399781 -0.00418487 -0.00581459
v 0.06386036 -0.00448788 -0.00581459
v 0.06338410 -0.00540106 -0.00581459
v 0.06311763 -0.00584047 -0.00581459
v 0.06311763 -0.00584672 -0.00827980
v 0.06375908 -0.00469613 -0.00581459
v 0.06368432 -0.00484815 -0.00581459
v 0.06286563 -0.00620699 -0.00827980
v 0.06250512 -0.00668701 -0.00827980
v 0.06220489 -0.00704729 -0.00827980
v 0.06218801 -0.00702854 -0.00899971
v 0.06222780 -0.00670263 -0.00960174
v 0.06237611 -0.00652874 -0.00960174
v 0.06174672 -0.00732738 -0.00951796
v 0.06066518 -0.00846339 -0.00827980
v 0.06111371 -0.00810416 -0.00827980
v 0.06030467 -0.00872579 -0.00827980
v 0.05981876 -0.00903609 -0.00827980
v 0.06076767 -0.00813019 -0.00960174
v 0.06096661 -0.00797400 -0.00960174
v 0.06111733 -0.00783552 -0.00960174
v 0.06157309 -0.00741277 -0.00960174
v 0.06146096 -0.00777304 -0.00899971
v 0.05936541 -0.00930890 -0.00581459
v 0.05921348 -0.00938491 -0.00581459
v 0.05900489 -0.00948799 -0.00581459
v 0.05864800 -0.00964730 -0.00581459
v 0.05838153 -0.00976601 -0.00581459
v 0.05838153 -0.00976392 -0.00672097
v 0.05781122 -0.00999717 -0.00612006
v 0.05765809 -0.01005548 -0.00581459
v 0.05745071 -0.01013357 -0.00581459
v 0.06285478 -0.00620074 -0.00581459
v 0.06249306 -0.00668597 -0.00581459
v 0.06220489 -0.00704624 -0.00581459
v 0.06184438 -0.00742422 -0.00827980
v 0.06182750 -0.00741381 -0.00899971
v 0.06183233 -0.00714516 -0.00960174
v 0.06170452 -0.00728573 -0.00960174
v 0.06065794 -0.00846548 -0.00581459
v 0.06110406 -0.00810520 -0.00581459
v 0.06084724 -0.00831345 -0.00581459
v 0.06147302 -0.00778450 -0.00827980
v 0.06029743 -0.00871642 -0.00581459
v 0.05981876 -0.00902671 -0.00581459
v 0.05781122 -0.00999717 -0.00581459
v 0.06205297 -0.00720139 -0.00581459
v 0.06184438 -0.00741277 -0.00581459
v 0.06146458 -0.00777200 -0.00581459
f 1 2 5
f 1 5 12
f 1 12 29
f 1 29 32
f 1 32 15
f 1 15 8
f 1 8 3
f 1 3 4
f 1 4 2
f 2 4 5
f 3 6 7
f 3 7 4
f 3 8 14
f 3 14 6
f 4 7 6
f 4 6 9
f 4 9 10
f 4 10 11
f 4 11 5
f 5 11 12
f 6 13 9
f 6 14 31
f 6 31 44
f 6 44 47
f 6 47 59
f 6 59 79
f 6 79 88
f 6 88 114
f 6 114 112
f 6 112 113
f 6 113 146
f 6 146 145
f 6 145 160
f 6 160 142
f 6 142 141
f 6 141 140
f 6 140 139
f 6 139 138
f 6 138 159
f 6 159 158
f 6 158 154
f 6 154 156
f 6 156 155
f 6 155 163
f 6 163 162
f 6 162 161
f 6 161 149
f 6 149 148
f 6 148 147
f 6 147 118
f 6 118 117
f 6 117 121
f 6 121 120
f 6 120 116
f 6 116 115
f 6 115 89
f 6 89 67
f 6 67 66
f 6 66 50
f 6 50 36
f 6 36 23
f 6 23 13
f 8 15 16
f 8 16 17
f 8 17 18
f 8 18 19
f 8 19 20
f 8 20 21
f 8 21 22
f 8 22 14
f 9 13 23
f 9 23 24
f 9 24 10
f 10 24 25
f 10 25 26
f 10 26 27
f 10 27 11
f 11 27 28
f 11 28 12
f 12 28 29
f 14 22 30
f 14 30 31
f 15 32 33
f 15 33 16
f 16 33 17
f 17 33 34
f 17 34 46
f 17 46 35
f 17 35 44
f 17 44 31
f 17 31 30
f 17 30 19
f 17 19 18
f 19 30 22
f 19 22 21
f 19 21 20
f 23 36 24
f 24 36 37
f 24 37 38
f 24 38 25
f 25 38 39
f 25 39 26
f 26 39 40
f 26 40 41
f 26 41 27
f 27 41 42
f 27 42 43
f 27 43 28
f 28 43 42
f 28 42 41
f 28 41 40
f 28 40 58
f 28 58 57
f 28 57 56
f 28 56 75
f 28 75 74
f 28 74 73
f 28 73 72
f 28 72 91
f 28 91 100
f 28 100 99
f 28 99 127
f 28 127 126
f 28 126 152
f 28 152 153
f 28 153 136
f 28 136 135
f 28 135 134
f 28 134 133
f 28 133 105
f 28 105 101
f 28 101 82
f 28 82 81
f 28 81 80
f 28 80 60
f 28 60 48
f 28 48 46
f 28 46 34
f 28 34 45
f 28 45 32
f 28 32 29
f 32 45 33
f 33 45 34
f 35 47 44
f 35 46 48
f 35 48 49
f 35 49 47
f 36 50 37
f 37 50 51
f 37 51 52
f 37 52 38
f 38 52 39
f 39 52 53
f 39 53 54
f 39 54 55
f 39 55 56
f 39 56 57
f 39 57 58
f 39 58 40
f 47 49 59
f 48 60 61
f 48 61 62
f 48 62 63
f 48 63 64
f 48 64 65
f 48 65 49
f 49 65 79
f 49 79 59
f 50 66 51
f 51 66 67
f 51 67 68
f 51 68 52
f 52 68 53
f 53 68 69
f 53 69 70
f 53 70 54
f 54 71 72
f 54 72 73
f 54 73 74
f 54 74 75
f 54 75 55
f 54 70 76
f 54 76 77
f 54 77 78
f 54 78 71
f 55 75 56
f 60 80 61
f 61 81 82
f 61 82 83
f 61 83 84
f 61 84 85
f 61 85 62
f 61 80 81
f 62 85 86
f 62 86 63
f 63 86 87
f 63 87 64
f 64 87 88
f 64 88 79
f 64 79 65
f 67 89 68
f 68 89 69
f 69 89 90
f 69 90 76
f 69 76 70
f 71 78 72
f 72 78 91
f 76 90 77
f 77 92 93
f 77 93 78
f 77 90 94
f 77 94 92
f 78 95 96
f 78 96 97
f 78 97 98
f 78 98 99
f 78 99 100
f 78 100 91
f 78 93 95
f 82 101 83
f 83 102 103
f 83 103 104
f 83 104 84
f 83 101 105
f 83 105 106
f 83 106 107
f 83 107 102
f 84 104 108
f 84 108 85
f 85 109 110
f 85 110 111
f 85 111 86
f 85 108 109
f 86 112 114
f 86 114 87
f 86 111 113
f 86 113 112
f 87 114 88
f 89 115 90
f 90 115 116
f 90 116 94
f 92 94 117
f 92 117 118
f 92 118 119
f 92 119 95
f 92 95 93
f 94 116 120
f 94 120 121
f 94 121 117
f 95 119 122
f 95 122 96
f 96 122 123
f 96 123 97
f 97 123 124
f 97 124 125
f 97 125 98
f 98 126 127
f 98 127 99
f 98 125 128
f 98 128 126
f 102 129 103
f 102 107 130
f 102 130 129
f 103 129 131
f 103 131 132
f 103 132 104
f 104 132 108
f 105 133 106
f 106 134 135
f 106 135 136
f 106 136 128
f 106 128 137
f 106 137 107
f 106 133 134
f 107 137 130
f 108 132 138
f 108 138 109
f 109 138 139
f 109 139 140
f 109 140 141
f 109 141 142
f 109 142 143
f 109 143 110
f 110 143 142
f 110 142 144
f 110 144 111
f 111 144 145
f 111 145 146
f 111 146 113
f 118 147 122
f 118 122 119
f 122 147 148
f 122 148 123
f 123 148 149
f 123 149 124
f 124 149 150
f 124 150 151
f 124 151 125
f 125 151 128
f 126 128 152
f 128 153 152
f 128 151 137
f 128 136 153
f 129 130 154
f 129 154 131
f 130 155 156
f 130 156 154
f 130 137 157
f 130 157 155
f 131 154 158
f 131 158 159
f 131 159 132
f 132 159 138
f 137 151 150
f 137 150 157
f 142 160 144
f 144 160 145
f 149 161 150
f 150 161 162
f 150 162 157
f 155 157 163
f 157 162 163

