# https://github.com/mikedh/trimesh
v 0.04622824 -0.01049338 -0.00779687
v 0.04029996 -0.01286009 -0.00508293
v 0.03964418 -0.01286336 -0.00508293
v 0.02055525 -0.01286336 -0.00508293
v 0.04622824 -0.00893486 -0.00779687
v 0.05252002 -0.01035805 -0.00779687
v 0.04029996 -0.01285736 -0.00479925
v 0.03898090 -0.01285900 0.00514090
v 0.03832137 -0.01286336 0.00514090
v 0.03964418 -0.01286336 -0.00413818
v 0.05318330 -0.01033185 -0.00779687
v 0.04098572 -0.01277823 -0.00508293
v 0.02055525 -0.01286336 -0.00002484
v 0.02055525 -0.01030839 -0.00508293
v 0.02839843 -0.00893704 -0.00508293
v 0.04807568 -0.00871985 -0.00779687
v 0.05684070 -0.01034167 0.00313742
v 0.05684070 -0.01030620 0.00379849
v 0.05617742 -0.01029911 0.00512191
v 0.05618117 -0.01029529 0.00513837
v 0.03899589 -0.01285627 0.00514090
v 0.05750023 -0.01032094 0.00115294
v 0.05750023 -0.01030075 0.00181528
v 0.02058149 -0.01286336 0.00514090
v 0.05384283 -0.01024727 -0.00779687
v 0.05419508 -0.01027564 -0.00744481
v 0.05485461 -0.01029202 -0.00678373
v 0.05551789 -0.01028219 -0.00612140
v 0.05617742 -0.01033022 -0.00479798
v 0.05684070 -0.01032858 -0.00347710
v 0.05750398 -0.01028492 -0.00215496
v 0.05750398 -0.01031057 -0.00149262
v 0.05750398 -0.01032694 -0.00083408
v 0.05750398 -0.01033349 -0.00017174
v 0.05750398 -0.01033294 -0.00002737
v 0.05750023 -0.01033022 0.00049060
v 0.02055525 -0.00893704 -0.00002484
v 0.02055525 -0.00910020 -0.00083028
v 0.02055525 -0.00893704 -0.00016921
v 0.05611371 -0.00728902 -0.00002737
v 0.05539423 -0.00871985 -0.00779687
v 0.05684070 -0.01022217 0.00446083
v 0.05750023 -0.01025655 0.00247635
v 0.05750023 -0.01017578 0.00313742
v 0.05684819 -0.01007046 0.00509404
v 0.05682945 -0.01006555 0.00513837
v 0.03958047 -0.01271329 0.00514090
v 0.05813727 -0.01011030 0.00049060
v 0.05810730 -0.01010157 0.00115294
v 0.05805858 -0.01008083 0.00181528
v 0.02058149 -0.01242189 0.00514090
v 0.05449112 -0.01006882 -0.00779687
v 0.05486210 -0.01008629 -0.00745747
v 0.05552913 -0.01009120 -0.00679260
v 0.05617742 -0.01006555 -0.00609987
v 0.05617742 -0.01024181 -0.00546032
v 0.05684070 -0.01026964 -0.00413691
v 0.05750398 -0.01022435 -0.00281477
v 0.05802860 -0.01006719 -0.00215496
v 0.05808481 -0.01009120 -0.00149262
v 0.05812603 -0.01010702 -0.00083408
v 0.05814852 -0.01011412 -0.00017174
v 0.02058149 -0.01033294 0.00513584
v 0.02058149 -0.00893868 0.00049060
v 0.05418384 -0.00728902 0.00513837
v 0.05883803 -0.00728902 -0.00002737
v 0.05563780 -0.00871985 -0.00757018
v 0.05539048 -0.00893322 -0.00779687
v 0.05752271 -0.00842790 -0.00508166
v 0.05751522 -0.01006009 0.00374657
v 0.05729787 -0.01001644 0.00446083
v 0.05798738 -0.01004318 0.00247635
v 0.05789745 -0.00997824 0.00313742
v 0.05720794 -0.00995423 0.00485596
v 0.05689691 -0.01000825 0.00513837
v 0.03991024 -0.01249829 0.00514090
v 0.05847828 -0.00990239 -0.00017174
v 0.05846704 -0.00989365 0.00049060
v 0.05843706 -0.00985054 0.00115294
v 0.02109862 -0.01034331 0.00514090
v 0.05468223 -0.01000334 -0.00779687
v 0.05531928 -0.00999897 -0.00724598
v 0.05595633 -0.00999352 -0.00657731
v 0.05656339 -0.00996405 -0.00586431
v 0.05669080 -0.01003663 -0.00546032
v 0.05660836 -0.01016378 -0.00508166
v 0.05688566 -0.01011194 -0.00483344
v 0.05737282 -0.01005682 -0.00413691
v 0.05754520 -0.01009393 -0.00348850
v 0.05794616 -0.01001535 -0.00281477
v 0.05841832 -0.00981507 -0.00149262
v 0.05845954 -0.00988001 -0.00083408
v 0.02839843 -0.00893704 0.00514090
v 0.05751147 -0.00728902 0.00513837
v 0.05883428 -0.00728902 0.00017019
v 0.05883803 -0.00827183 -0.00002737
v 0.05883428 -0.00842790 -0.00017174
v 0.05880055 -0.00842790 -0.00083408
v 0.05874809 -0.00842790 -0.00133558
v 0.05872936 -0.00842790 -0.00149262
v 0.05861694 -0.00842790 -0.00215496
v 0.05851950 -0.00842790 -0.00257161
v 0.05842582 -0.00842790 -0.00290342
v 0.05824595 -0.00842790 -0.00347710
v 0.05797989 -0.00842790 -0.00415084
v 0.05783749 -0.00842790 -0.00447758
v 0.05773631 -0.00842790 -0.00468021
v 0.05768010 -0.00842790 -0.00479039
v 0.05596382 -0.00871985 -0.00723965
v 0.05596382 -0.00893322 -0.00723585
v 0.05563405 -0.00893322 -0.00756638
v 0.05528555 -0.00940252 -0.00779687
v 0.05751147 -0.00892285 -0.00508166
v 0.05733535 -0.00893322 -0.00540207
v 0.05727539 -0.00871985 -0.00551351
v 0.05714049 -0.00871985 -0.00573767
v 0.05687442 -0.00871985 -0.00612140
v 0.05657464 -0.00871985 -0.00653172
v 0.05629733 -0.00871985 -0.00686352
v 0.05784124 -0.00993294 0.00349329
v 0.05839209 -0.00976378 0.00181528
v 0.05775130 -0.00979816 0.00393400
v 0.05763513 -0.00958370 0.00445070
v 0.05731286 -0.00957496 0.00509404
v 0.05726040 -0.00961971 0.00513837
v 0.04162277 -0.01037660 0.00514090
v 0.05863567 -0.00954877 -0.00083408
v 0.05865066 -0.00957169 -0.00017174
v 0.05865066 -0.00957005 -0.00002737
v 0.05864317 -0.00956241 0.00049060
v 0.05861694 -0.00951985 0.00115294
v 0.05500825 -0.00974577 -0.00779687
v 0.05508694 -0.00981944 -0.00768669
v 0.05575772 -0.00981944 -0.00701929
v 0.05639476 -0.00976269 -0.00630503
v 0.05667207 -0.00956296 -0.00609987
v 0.05703181 -0.00963717 -0.00549705
v 0.05714049 -0.00988711 -0.00507660
v 0.05726040 -0.00998970 -0.00463588
v 0.05787496 -0.00996132 -0.00327574
v 0.05835837 -0.00969829 -0.00215496
v 0.05854199 -0.00936814 -0.00215496
v 0.05859820 -0.00948438 -0.00149262
v 0.04162277 -0.00893704 0.00514090
v 0.05750398 -0.00827183 0.00513837
v 0.05751522 -0.00827183 0.00512191
v 0.05776254 -0.00827183 0.00463940
v 0.05776254 -0.00728902 0.00464066
v 0.05882304 -0.00728902 0.00049060
v 0.05881929 -0.00827183 0.00049060
v 0.05880430 -0.00893322 0.00049060
v 0.05883428 -0.00841426 -0.00002737
v 0.05881929 -0.00893322 -0.00002737
v 0.05881929 -0.00893322 -0.00017174
v 0.05878931 -0.00893322 -0.00083408
v 0.05872186 -0.00893322 -0.00149262
v 0.05860569 -0.00893322 -0.00215496
v 0.05851575 -0.00893322 -0.00256148
v 0.05842207 -0.00893322 -0.00289202
v 0.05823470 -0.00893322 -0.00347710
v 0.05794991 -0.00891248 -0.00419137
v 0.05783749 -0.00867783 -0.00447758
v 0.05769509 -0.00891248 -0.00473720
v 0.05591511 -0.00937960 -0.00718519
v 0.05629359 -0.00893322 -0.00685972
v 0.05654091 -0.00932230 -0.00649119
v 0.05551039 -0.00959898 -0.00743594
v 0.05782625 -0.00911876 -0.00444845
v 0.05727164 -0.00944618 -0.00530075
v 0.05713673 -0.00893322 -0.00573260
v 0.05686693 -0.00893322 -0.00612140
v 0.05657089 -0.00893322 -0.00652792
v 0.05833963 -0.00957114 0.00248901
v 0.05814477 -0.00959406 0.00313742
v 0.05794241 -0.00958370 0.00374657
v 0.05857196 -0.00943254 0.00181528
v 0.05852700 -0.00933649 0.00227752
v 0.05787871 -0.00935832 0.00422401
v 0.05730162 -0.00955041 0.00513837
v 0.05748149 -0.00895068 0.00513837
v 0.05748524 -0.00893322 0.00513837
v 0.05878557 -0.00906964 -0.00002737
v 0.05875184 -0.00893322 0.00115294
v 0.05615868 -0.00957114 -0.00675587
v 0.05733909 -0.00953622 -0.00508166
v 0.05741404 -0.00963772 -0.00483344
v 0.05772507 -0.00963335 -0.00419137
v 0.05779627 -0.00987947 -0.00371646
v 0.05828717 -0.00954331 -0.00276917
v 0.05850451 -0.00928902 -0.00251969
v 0.05775505 -0.00893322 0.00462167
v 0.05791618 -0.00827183 0.00430886
v 0.05791618 -0.00728902 0.00430886
v 0.05877058 -0.00827183 0.00115294
v 0.05877058 -0.00728902 0.00115294
v 0.05792368 -0.00943799 -0.00400774
v 0.05866939 -0.00893322 0.00181528
v 0.05855323 -0.00893322 0.00236617
v 0.05846704 -0.00893322 0.00269544
v 0.05834338 -0.00893322 0.00313742
v 0.05811479 -0.00893322 0.00379849
v 0.05790869 -0.00893322 0.00429113
v 0.05800987 -0.00963335 -0.00348850
v 0.05802485 -0.00728902 0.00406064
v 0.05813353 -0.00827183 0.00379849
v 0.05872936 -0.00728902 0.00149360
v 0.05868439 -0.00827183 0.00181528
v 0.05856073 -0.00827183 0.00239023
v 0.05835837 -0.00827183 0.00313742
v 0.05813353 -0.00728902 0.00379849
v 0.05836211 -0.00728902 0.00313742
v 0.05868439 -0.00728902 0.00181528
v 0.05862068 -0.00728902 0.00211415
v 0.05856073 -0.00728902 0.00239530
v 0.05847453 -0.00728902 0.00272583
v 0.05841832 -0.00728902 0.00293859
f 1 2 3
f 1 3 4
f 1 4 14
f 1 14 5
f 1 5 16
f 1 16 41
f 1 41 68
f 1 68 112
f 1 112 132
f 1 132 81
f 1 81 52
f 1 52 25
f 1 25 11
f 1 11 6
f 1 6 2
f 2 7 8
f 2 8 9
f 2 9 10
f 2 10 3
f 2 6 11
f 2 11 12
f 2 12 7
f 3 10 9
f 3 9 24
f 3 24 13
f 3 13 4
f 4 13 37
f 4 37 39
f 4 39 38
f 4 38 14
f 5 14 15
f 5 15 16
f 7 12 8
f 8 17 18
f 8 18 19
f 8 19 20
f 8 20 21
f 8 21 47
f 8 47 76
f 8 76 126
f 8 126 144
f 8 144 93
f 8 93 80
f 8 80 51
f 8 51 24
f 8 24 9
f 8 12 22
f 8 22 23
f 8 23 17
f 11 25 12
f 12 25 26
f 12 26 27
f 12 27 28
f 12 28 29
f 12 29 30
f 12 30 31
f 12 31 32
f 12 32 33
f 12 33 34
f 12 34 35
f 12 35 36
f 12 36 22
f 13 24 51
f 13 51 37
f 14 38 15
f 15 38 39
f 15 39 40
f 15 40 16
f 16 40 66
f 16 66 41
f 17 23 18
f 18 42 19
f 18 23 43
f 18 43 44
f 18 44 42
f 19 42 20
f 20 42 45
f 20 45 46
f 20 46 47
f 20 47 21
f 22 36 48
f 22 48 49
f 22 49 23
f 23 49 50
f 23 50 43
f 25 52 26
f 26 52 53
f 26 53 27
f 27 53 54
f 27 54 28
f 28 54 55
f 28 55 56
f 28 56 29
f 29 56 57
f 29 57 30
f 30 57 31
f 31 58 59
f 31 59 60
f 31 60 61
f 31 61 32
f 31 57 58
f 32 61 33
f 33 61 62
f 33 62 34
f 34 62 35
f 35 62 36
f 36 62 48
f 37 51 63
f 37 63 64
f 37 64 65
f 37 65 39
f 39 65 40
f 40 65 94
f 40 94 148
f 40 148 193
f 40 193 204
f 40 204 210
f 40 210 211
f 40 211 216
f 40 216 215
f 40 215 214
f 40 214 213
f 40 213 212
f 40 212 206
f 40 206 195
f 40 195 149
f 40 149 95
f 40 95 66
f 41 67 68
f 41 66 69
f 41 69 67
f 42 44 70
f 42 70 71
f 42 71 45
f 43 50 72
f 43 72 44
f 44 72 73
f 44 73 70
f 45 71 74
f 45 74 46
f 46 74 75
f 46 75 76
f 46 76 47
f 48 62 77
f 48 77 78
f 48 78 49
f 49 78 50
f 50 78 79
f 50 79 72
f 51 80 63
f 52 81 53
f 53 81 82
f 53 82 54
f 54 82 83
f 54 83 55
f 55 83 84
f 55 84 85
f 55 85 56
f 56 85 86
f 56 86 57
f 57 86 87
f 57 87 88
f 57 88 58
f 58 88 89
f 58 89 90
f 58 90 59
f 59 90 91
f 59 91 92
f 59 92 60
f 60 92 61
f 61 92 77
f 61 77 62
f 63 80 93
f 63 93 64
f 64 93 65
f 65 93 144
f 65 144 94
f 66 95 96
f 66 96 97
f 66 97 98
f 66 98 99
f 66 99 100
f 66 100 101
f 66 101 102
f 66 102 103
f 66 103 104
f 66 104 105
f 66 105 106
f 66 106 107
f 66 107 108
f 66 108 69
f 67 109 110
f 67 110 111
f 67 111 68
f 67 69 109
f 68 111 112
f 69 108 113
f 69 113 114
f 69 114 115
f 69 115 116
f 69 116 117
f 69 117 118
f 69 118 119
f 69 119 109
f 70 73 120
f 70 120 71
f 71 120 74
f 72 79 121
f 72 121 73
f 73 121 120
f 74 120 122
f 74 122 123
f 74 123 124
f 74 124 125
f 74 125 75
f 75 125 76
f 76 125 126
f 77 92 127
f 77 127 128
f 77 128 129
f 77 129 130
f 77 130 78
f 78 130 131
f 78 131 79
f 79 131 121
f 81 132 133
f 81 133 82
f 82 133 134
f 82 134 83
f 83 134 135
f 83 135 84
f 84 136 137
f 84 137 138
f 84 138 139
f 84 139 85
f 84 135 136
f 85 87 86
f 85 139 87
f 87 139 88
f 88 139 140
f 88 140 90
f 88 90 89
f 90 140 141
f 90 141 91
f 91 141 142
f 91 142 143
f 91 143 92
f 92 143 127
f 94 126 145
f 94 145 146
f 94 146 147
f 94 147 148
f 94 144 126
f 95 149 96
f 96 149 150
f 96 150 151
f 96 151 152
f 96 152 97
f 97 152 153
f 97 153 154
f 97 154 155
f 97 155 98
f 98 155 156
f 98 156 99
f 99 156 100
f 100 156 101
f 101 156 157
f 101 157 158
f 101 158 102
f 102 158 103
f 103 158 159
f 103 159 104
f 104 159 160
f 104 160 105
f 105 161 162
f 105 162 106
f 105 160 161
f 106 162 107
f 107 162 108
f 108 162 163
f 108 163 113
f 109 119 110
f 110 164 111
f 110 119 165
f 110 165 166
f 110 166 164
f 111 164 112
f 112 133 132
f 112 164 167
f 112 167 133
f 113 163 168
f 113 168 114
f 114 168 169
f 114 169 170
f 114 170 115
f 115 170 116
f 116 170 117
f 117 171 172
f 117 172 118
f 117 170 171
f 118 172 165
f 118 165 119
f 120 121 173
f 120 173 174
f 120 174 175
f 120 175 122
f 121 131 176
f 121 176 177
f 121 177 173
f 122 175 178
f 122 178 123
f 123 178 124
f 124 179 125
f 124 178 179
f 125 179 126
f 126 179 180
f 126 180 181
f 126 181 145
f 127 143 155
f 127 155 154
f 127 154 128
f 128 154 182
f 128 182 129
f 129 182 130
f 130 182 151
f 130 151 131
f 131 151 183
f 131 183 176
f 133 167 134
f 134 164 184
f 134 184 135
f 134 167 164
f 135 184 166
f 135 166 136
f 136 166 169
f 136 169 137
f 137 169 138
f 138 169 185
f 138 185 186
f 138 186 187
f 138 187 188
f 138 188 139
f 139 188 140
f 140 188 189
f 140 189 141
f 141 189 190
f 141 190 142
f 142 190 156
f 142 156 143
f 143 156 155
f 145 181 146
f 146 181 191
f 146 191 147
f 147 191 202
f 147 202 192
f 147 192 148
f 148 192 193
f 149 194 150
f 149 195 194
f 150 194 151
f 151 194 183
f 151 182 153
f 151 153 152
f 153 182 154
f 156 190 157
f 157 190 158
f 158 190 159
f 159 190 160
f 160 190 196
f 160 196 168
f 160 168 161
f 161 168 162
f 162 168 163
f 164 166 184
f 165 172 166
f 166 172 171
f 166 171 170
f 166 170 169
f 168 196 169
f 169 196 185
f 173 177 174
f 174 177 178
f 174 178 175
f 176 183 197
f 176 197 177
f 177 198 199
f 177 199 200
f 177 200 178
f 177 197 198
f 178 191 181
f 178 181 180
f 178 180 179
f 178 200 201
f 178 201 202
f 178 202 191
f 183 194 197
f 185 196 186
f 186 196 187
f 187 196 188
f 188 196 203
f 188 203 189
f 189 203 190
f 190 203 196
f 192 204 193
f 192 202 205
f 192 205 204
f 194 195 206
f 194 206 207
f 194 207 197
f 197 207 198
f 198 208 199
f 198 207 208
f 199 208 209
f 199 209 200
f 200 209 205
f 200 205 201
f 201 205 202
f 204 205 210
f 205 209 211
f 205 211 210
f 206 212 207
f 207 212 213
f 207 213 214
f 207 214 208
f 208 215 216
f 208 216 209
f 208 214 215
f 209 216 211

