# https://github.com/mikedh/trimesh
v 0.00779960 -0.00286271 -0.00914188
v 0.00857330 -0.00286271 -0.00914188
v 0.00754170 -0.00286271 -0.00914130
v 0.00765037 0.00285779 -0.00914188
v 0.00883120 -0.00245058 -0.00914188
v 0.00883120 -0.00270760 -0.00913959
v 0.00883120 -0.00286271 -0.00913043
v 0.00754170 0.00285779 -0.00914130
v 0.00728325 -0.00286271 -0.00908866
v 0.00736706 0.00285779 -0.00910983
v 0.00857330 0.00285779 -0.00914188
v 0.00908910 -0.00141859 -0.00914188
v 0.00908910 -0.00167617 -0.00914016
v 0.00908910 -0.00193431 -0.00913101
v 0.00908910 -0.00219189 -0.00911269
v 0.00904693 -0.00270760 -0.00908294
v 0.00902476 -0.00286271 -0.00907379
v 0.00728434 0.00285779 -0.00908866
v 0.00717620 -0.00286271 -0.00889927
v 0.00718539 0.00285779 -0.00891529
v 0.00883120 0.00245014 -0.00914188
v 0.00868197 0.00285779 -0.00914073
v 0.00908910 0.00141871 -0.00914188
v 0.00934700 -0.00012789 -0.00911098
v 0.00934700 -0.00038659 -0.00911041
v 0.00934700 -0.00064473 -0.00910411
v 0.00929888 -0.00167617 -0.00908351
v 0.00927563 -0.00193431 -0.00907436
v 0.00924968 -0.00219189 -0.00905605
v 0.00923022 -0.00236435 -0.00903945
v 0.00920156 -0.00253626 -0.00901428
v 0.00915398 -0.00286271 -0.00895878
v 0.00718161 -0.00286271 -0.00888611
v 0.00717836 0.00285779 -0.00889927
v 0.00883120 0.00270828 -0.00913959
v 0.00908910 0.00167573 -0.00914016
v 0.00883120 0.00285779 -0.00913101
v 0.00934700 0.00038671 -0.00911041
v 0.00934700 0.00012857 -0.00911098
v 0.00950380 -0.00012789 -0.00905490
v 0.00950272 -0.00038659 -0.00905376
v 0.00949569 -0.00064473 -0.00904689
v 0.00948271 -0.00090231 -0.00903488
v 0.00947622 -0.00103166 -0.00902858
v 0.00946325 -0.00120412 -0.00901828
v 0.00944757 -0.00141859 -0.00900284
v 0.00942810 -0.00167617 -0.00897766
v 0.00940485 -0.00193431 -0.00894733
v 0.00945514 -0.00250098 -0.00874764
v 0.00929564 -0.00270760 -0.00885635
v 0.00937836 -0.00219189 -0.00891758
v 0.00947784 -0.00232907 -0.00877224
v 0.00955895 -0.00242931 -0.00865323
v 0.00927185 -0.00286271 -0.00882946
v 0.00729461 -0.00286271 -0.00864121
v 0.00729569 0.00285779 -0.00864178
v 0.00908910 0.00193442 -0.00913101
v 0.00929888 0.00167573 -0.00908351
v 0.00934700 0.00064485 -0.00910411
v 0.00892203 0.00285779 -0.00910697
v 0.00908910 0.00219256 -0.00911269
v 0.00950272 0.00038671 -0.00905376
v 0.00950380 0.00012857 -0.00905490
v 0.00954813 -0.00038659 -0.00900398
v 0.00954813 -0.00012789 -0.00900570
v 0.00963248 -0.00038659 -0.00891071
v 0.00974061 -0.00057753 -0.00877682
v 0.00964545 -0.00065593 -0.00887753
v 0.00956111 -0.00113525 -0.00891930
v 0.00956706 -0.00141859 -0.00887352
v 0.00954813 -0.00141859 -0.00889412
v 0.00954813 -0.00163921 -0.00885235
v 0.00954813 -0.00167617 -0.00884491
v 0.00954813 -0.00168401 -0.00884319
v 0.00949244 -0.00219189 -0.00878884
v 0.00978819 -0.00270760 -0.00831335
v 0.00940107 -0.00286271 -0.00868756
v 0.00972601 -0.00228204 -0.00850331
v 0.00995039 -0.00245058 -0.00820749
v 0.00982171 -0.00245058 -0.00835226
v 0.00970655 -0.00245058 -0.00848157
v 0.01076248 -0.00286271 -0.00329639
v 0.01076465 0.00285779 -0.00329639
v 0.00927563 0.00193442 -0.00907436
v 0.00947622 0.00103178 -0.00902858
v 0.00948271 0.00090243 -0.00903488
v 0.00949569 0.00064485 -0.00904689
v 0.00902530 0.00285779 -0.00907379
v 0.00904693 0.00270828 -0.00908294
v 0.00954813 0.00038671 -0.00900398
v 0.00963248 0.00038671 -0.00891071
v 0.00954813 0.00012857 -0.00900570
v 0.00963302 -0.00012789 -0.00891128
v 0.00986713 -0.00012789 -0.00864121
v 0.00986605 -0.00038659 -0.00864121
v 0.01022505 -0.00038659 -0.00822580
v 0.01021857 -0.00064473 -0.00821836
v 0.01008989 -0.00064473 -0.00836713
v 0.00982333 -0.00116045 -0.00861432
v 0.01005042 -0.00141859 -0.00832079
v 0.00980874 -0.00141859 -0.00859772
v 0.00991741 -0.00167617 -0.00842721
v 0.00991687 -0.00270760 -0.00816687
v 0.00976386 -0.00286271 -0.00828703
v 0.00960220 -0.00286271 -0.00846555
v 0.00997797 -0.00219189 -0.00823839
v 0.01005745 -0.00245058 -0.00807875
v 0.01002501 -0.00270760 -0.00803812
v 0.01237477 -0.00286271 -0.00329639
v 0.01237747 0.00285779 -0.00329639
v 0.00924968 0.00219256 -0.00905605
v 0.00944757 0.00141871 -0.00900284
v 0.00946325 0.00120424 -0.00901828
v 0.00956706 0.00141871 -0.00887352
v 0.00956111 0.00113481 -0.00891930
v 0.00964545 0.00065605 -0.00887753
v 0.00954813 0.00054518 -0.00899482
v 0.00974061 0.00057765 -0.00877682
v 0.00907991 0.00285779 -0.00903316
v 0.00923022 0.00236391 -0.00903945
v 0.00986605 0.00038671 -0.00864121
v 0.00986713 0.00012857 -0.00864121
v 0.00963302 0.00012857 -0.00891128
v 0.00998500 -0.00012789 -0.00850446
v 0.01022505 0.00038671 -0.00822580
v 0.01032940 -0.00038659 -0.00809706
v 0.01032346 -0.00064473 -0.00808905
v 0.01031048 -0.00090231 -0.00807360
v 0.01020559 -0.00090231 -0.00820234
v 0.01006339 -0.00116045 -0.00833681
v 0.01017910 -0.00141859 -0.00817030
v 0.01003041 -0.00167617 -0.00829790
v 0.00988713 -0.00286271 -0.00814455
v 0.01000176 -0.00286271 -0.00800837
v 0.01015909 -0.00167617 -0.00814570
v 0.01025155 -0.00181560 -0.00799864
v 0.01018667 -0.00245058 -0.00790824
v 0.01026020 -0.00261745 -0.00775317
v 0.01016450 -0.00270536 -0.00785045
v 0.01238342 -0.00282072 -0.00329639
v 0.01233800 -0.00286271 -0.00343944
v 0.01238666 0.00281243 -0.00329639
v 0.01236990 0.00285779 -0.00332786
v 0.00940485 0.00193442 -0.00894733
v 0.00942810 0.00167573 -0.00897766
v 0.00954813 0.00141871 -0.00889412
v 0.00954813 0.00163933 -0.00885235
v 0.00991741 0.00167573 -0.00842721
v 0.00980874 0.00141871 -0.00859772
v 0.01005042 0.00141871 -0.00832079
v 0.00982333 0.00116001 -0.00861432
v 0.01008989 0.00064485 -0.00836713
v 0.01021857 0.00064485 -0.00821836
v 0.00920156 0.00253638 -0.00901428
v 0.00915452 0.00285779 -0.00895935
v 0.00947784 0.00232919 -0.00877224
v 0.00937836 0.00219256 -0.00891758
v 0.00929564 0.00270828 -0.00885635
v 0.00945514 0.00250110 -0.00874764
v 0.00955895 0.00242942 -0.00865323
v 0.00998500 0.00012857 -0.00850446
v 0.01032346 0.00064485 -0.00808905
v 0.01032940 0.00038671 -0.00809706
v 0.01045863 -0.00038659 -0.00792598
v 0.01045214 -0.00064473 -0.00791739
v 0.01028453 -0.00141859 -0.00804098
v 0.01026506 -0.00167617 -0.00801638
v 0.01022505 -0.00286271 -0.00770454
v 0.01037212 -0.00167617 -0.00786704
v 0.01077978 -0.00187607 -0.00724221
v 0.01031643 -0.00191415 -0.00788020
v 0.01074789 -0.00219189 -0.00719758
v 0.01072139 -0.00245058 -0.00716039
v 0.01049377 -0.00251218 -0.00746079
v 0.01069220 -0.00270760 -0.00712033
v 0.01076789 -0.00284479 -0.00696813
v 0.01051594 -0.00286271 -0.00730629
v 0.01023587 -0.00278880 -0.00771941
v 0.01242127 -0.00263649 -0.00329639
v 0.01251318 -0.00218573 -0.00329639
v 0.01247425 -0.00237835 -0.00329639
v 0.01224230 -0.00286271 -0.00373755
v 0.01234017 -0.00245058 -0.00369578
v 0.01246128 -0.00219189 -0.00348293
v 0.01251318 0.00218584 -0.00329639
v 0.01246128 0.00219256 -0.00348293
v 0.01233854 0.00285779 -0.00344059
v 0.00949244 0.00219256 -0.00878884
v 0.00954813 0.00167125 -0.00884605
v 0.00997797 0.00219256 -0.00823839
v 0.01003041 0.00167573 -0.00829790
v 0.01017910 0.00141871 -0.00817030
v 0.01020559 0.00090243 -0.00820234
v 0.01006339 0.00116001 -0.00833681
v 0.01007691 0.00090243 -0.00835168
v 0.01031048 0.00090243 -0.00807360
v 0.00920480 0.00285779 -0.00890499
v 0.00982171 0.00245014 -0.00835226
v 0.00995039 0.00245014 -0.00820749
v 0.00972601 0.00228160 -0.00850331
v 0.00927293 0.00285779 -0.00883061
v 0.00978819 0.00270828 -0.00831335
v 0.01045214 0.00064485 -0.00791739
v 0.01045863 0.00038671 -0.00792598
v 0.01076843 -0.00038659 -0.00748425
v 0.01076735 -0.00053554 -0.00748253
v 0.01053053 -0.00090231 -0.00777034
v 0.01043916 -0.00090231 -0.00789965
v 0.01083656 -0.00063073 -0.00737210
v 0.01098200 -0.00064473 -0.00716325
v 0.01097010 -0.00090231 -0.00714608
v 0.01084088 -0.00090231 -0.00732975
v 0.01042835 -0.00140515 -0.00784301
v 0.01050080 -0.00148186 -0.00772857
v 0.01057703 -0.00167617 -0.00757866
v 0.01079763 -0.00167617 -0.00726796
v 0.01093928 -0.00165769 -0.00706941
v 0.01101173 -0.00173216 -0.00694524
v 0.01085278 -0.00195054 -0.00711690
v 0.01081114 -0.00245058 -0.00703164
v 0.01078357 -0.00270760 -0.00699159
v 0.01075005 -0.00286271 -0.00698530
v 0.01087657 -0.00270760 -0.00683538
v 0.01098740 -0.00270760 -0.00664370
v 0.01103174 -0.00286271 -0.00650409
v 0.01077600 -0.00286271 -0.00694524
v 0.01255752 -0.00196398 -0.00329639
v 0.01256022 -0.00193431 -0.00330841
v 0.01204442 -0.00286271 -0.00435265
v 0.01221203 -0.00219189 -0.00425710
v 0.01232935 -0.00214485 -0.00392180
v 0.01230232 -0.00200094 -0.00409345
v 0.01250832 -0.00193431 -0.00348293
v 0.01257103 -0.00180384 -0.00335361
v 0.01255752 0.00196410 -0.00329639
v 0.01256022 0.00193442 -0.00330841
v 0.01227420 0.00285779 -0.00364200
v 0.01257103 0.00180395 -0.00335361
v 0.01250832 0.00193442 -0.00348293
v 0.01230232 0.00200050 -0.00409345
v 0.01221203 0.00219256 -0.00425710
v 0.01005745 0.00245014 -0.00807875
v 0.01015909 0.00167573 -0.00814570
v 0.01026506 0.00167573 -0.00801638
v 0.01028453 0.00141871 -0.00804098
v 0.00991687 0.00270828 -0.00816687
v 0.01002501 0.00270828 -0.00803812
v 0.00965897 0.00285779 -0.00840432
v 0.00976440 0.00285779 -0.00828760
v 0.01043916 0.00090243 -0.00789965
v 0.01053053 0.00090243 -0.00777034
v 0.01084088 0.00090243 -0.00732975
v 0.01097010 0.00090243 -0.00714608
v 0.01098200 0.00064485 -0.00716325
v 0.01083656 0.00063085 -0.00737210
v 0.01076735 0.00053566 -0.00748253
v 0.01076843 0.00038671 -0.00748425
v 0.01086143 -0.00038659 -0.00735150
v 0.01098740 -0.00038659 -0.00717069
v 0.01107013 -0.00064473 -0.00703450
v 0.01081493 -0.00141859 -0.00729199
v 0.01105823 -0.00090231 -0.00701734
v 0.01104580 -0.00116045 -0.00699788
v 0.01103282 -0.00141859 -0.00697843
v 0.01094361 -0.00141859 -0.00710774
v 0.01102525 -0.00156026 -0.00696756
v 0.01099227 -0.00193431 -0.00691206
v 0.01128207 -0.00181000 -0.00644973
v 0.01106688 -0.00193431 -0.00678274
v 0.01094793 -0.00243211 -0.00681249
v 0.01100849 -0.00250658 -0.00668032
v 0.01106148 -0.00270760 -0.00651496
v 0.01133722 -0.00270760 -0.00603203
v 0.01131830 -0.00286271 -0.00599941
v 0.01256130 -0.00194383 -0.00329639
v 0.01256292 -0.00193431 -0.00329639
v 0.01198873 -0.00286271 -0.00451287
v 0.01202009 -0.00271768 -0.00451058
v 0.01206713 -0.00263873 -0.00442189
v 0.01211200 -0.00221820 -0.00454090
v 0.01217580 -0.00193431 -0.00451516
v 0.01231692 -0.00182903 -0.00414037
v 0.01226934 -0.00192199 -0.00423879
v 0.01259050 -0.00141859 -0.00341541
v 0.01267052 -0.00090735 -0.00329639
v 0.01258942 -0.00174784 -0.00329639
v 0.01257698 -0.00184639 -0.00329639
v 0.01228502 -0.00167617 -0.00429658
v 0.01256292 0.00193442 -0.00329639
v 0.01212336 0.00285779 -0.00411005
v 0.01231692 0.00182915 -0.00414037
v 0.01258942 0.00174796 -0.00329639
v 0.01266349 0.00098250 -0.00329639
v 0.01259050 0.00141871 -0.00341541
v 0.01228502 0.00167573 -0.00429658
v 0.01226934 0.00192267 -0.00423879
v 0.01217580 0.00193442 -0.00451516
v 0.01211200 0.00221776 -0.00454090
v 0.01206713 0.00263829 -0.00442189
v 0.01204442 0.00285779 -0.00435437
v 0.01018667 0.00245014 -0.00790824
v 0.01025155 0.00181515 -0.00799864
v 0.01037212 0.00167573 -0.00786704
v 0.01050080 0.00148198 -0.00772857
v 0.01042835 0.00140415 -0.00784301
v 0.00979738 0.00285779 -0.00824983
v 0.00988767 0.00285779 -0.00814570
v 0.01000230 0.00285779 -0.00800951
v 0.01001041 0.00285779 -0.00799922
v 0.01016450 0.00270492 -0.00785045
v 0.01026020 0.00261757 -0.00775317
v 0.01081493 0.00141871 -0.00729199
v 0.01094361 0.00141871 -0.00710774
v 0.01103282 0.00141871 -0.00697843
v 0.01104580 0.00116001 -0.00699788
v 0.01105823 0.00090243 -0.00701734
v 0.01107013 0.00064485 -0.00703450
v 0.01098740 0.00038671 -0.00717069
v 0.01086143 0.00038671 -0.00735150
v 0.01107499 -0.00038659 -0.00704251
v 0.01119935 -0.00038659 -0.00683538
v 0.01118907 -0.00064473 -0.00683538
v 0.01116637 -0.00090231 -0.00683538
v 0.01111446 -0.00141859 -0.00683538
v 0.01157998 -0.00141859 -0.00600685
v 0.01156592 -0.00167617 -0.00598110
v 0.01155187 -0.00186823 -0.00595650
v 0.01135614 -0.00246738 -0.00608524
v 0.01153456 -0.00204070 -0.00592446
v 0.01149239 -0.00245058 -0.00584092
v 0.01147185 -0.00269081 -0.00578255
v 0.01142481 -0.00286271 -0.00579629
v 0.01194710 -0.00286271 -0.00461872
v 0.01205523 -0.00232124 -0.00464333
v 0.01204172 -0.00245058 -0.00460613
v 0.01207253 -0.00214933 -0.00468395
v 0.01209308 -0.00193431 -0.00473202
v 0.01221257 -0.00167617 -0.00451516
v 0.01261158 -0.00092023 -0.00350639
v 0.01237585 -0.00090231 -0.00425710
v 0.01269214 -0.00064473 -0.00329639
v 0.01264078 -0.00064473 -0.00348293
v 0.01231584 -0.00106022 -0.00439500
v 0.01221257 0.00167573 -0.00451516
v 0.01267052 0.00090747 -0.00329639
v 0.01261158 0.00092035 -0.00350639
v 0.01237585 0.00090243 -0.00425710
v 0.01231584 0.00106033 -0.00439500
v 0.01209308 0.00193442 -0.00473202
v 0.01207253 0.00214889 -0.00468395
v 0.01205523 0.00232079 -0.00464333
v 0.01202009 0.00271780 -0.00451058
v 0.01204172 0.00245014 -0.00460613
v 0.01202441 0.00285779 -0.00441273
v 0.01049377 0.00251174 -0.00746079
v 0.01072139 0.00245014 -0.00716039
v 0.01074789 0.00219256 -0.00719758
v 0.01031643 0.00191483 -0.00788020
v 0.01077978 0.00187675 -0.00724221
v 0.01057703 0.00167573 -0.00757866
v 0.01079763 0.00167573 -0.00726796
v 0.01102525 0.00155981 -0.00696756
v 0.01022560 0.00285779 -0.00770511
v 0.01023587 0.00278948 -0.00771941
v 0.01076789 0.00284435 -0.00696813
v 0.01069220 0.00270828 -0.00712033
v 0.01116637 0.00090243 -0.00683538
v 0.01118907 0.00064485 -0.00683538
v 0.01119935 0.00038671 -0.00683538
v 0.01107499 0.00038671 -0.00704251
v 0.01127666 -0.00038659 -0.00669863
v 0.01127180 -0.00064473 -0.00668947
v 0.01153997 -0.00078136 -0.00619224
v 0.01133235 -0.00090231 -0.00654013
v 0.01159296 -0.00088159 -0.00608009
v 0.01159296 -0.00116045 -0.00602974
v 0.01174543 -0.00090735 -0.00578542
v 0.01171028 -0.00116045 -0.00580430
v 0.01168433 -0.00141859 -0.00580430
v 0.01165622 -0.00167617 -0.00580430
v 0.01160323 -0.00194607 -0.00582490
v 0.01158268 -0.00219189 -0.00576539
v 0.01154213 -0.00259337 -0.00568128
v 0.01152429 -0.00276472 -0.00564237
v 0.01151240 -0.00286271 -0.00561662
v 0.01188168 -0.00286271 -0.00478294
v 0.01191898 -0.00270760 -0.00477264
v 0.01185032 -0.00245450 -0.00504672
v 0.01180436 -0.00184191 -0.00543524
v 0.01205145 -0.00176744 -0.00489280
v 0.01210335 -0.00167953 -0.00479324
v 0.01213904 -0.00141859 -0.00477264
v 0.01227961 -0.00090231 -0.00454777
v 0.01232395 -0.00090231 -0.00441903
v 0.01245749 -0.00090231 -0.00399904
v 0.01257806 -0.00084687 -0.00363513
v 0.01239640 -0.00064473 -0.00425710
v 0.01269917 -0.00038659 -0.00329639
v 0.01254508 -0.00064473 -0.00378733
v 0.01264781 -0.00038659 -0.00348293
v 0.01232395 0.00090243 -0.00441903
v 0.01227961 0.00090243 -0.00454777
v 0.01213904 0.00141871 -0.00477264
v 0.01210335 0.00167908 -0.00479324
v 0.01269214 0.00064485 -0.00329639
v 0.01264078 0.00064485 -0.00348293
v 0.01257806 0.00084699 -0.00363513
v 0.01245749 0.00090243 -0.00399904
v 0.01239640 0.00064485 -0.00425710
v 0.01205145 0.00176812 -0.00489280
v 0.01180436 0.00184147 -0.00543524
v 0.01185032 0.00245462 -0.00504672
v 0.01191898 0.00270828 -0.00477264
v 0.01188276 0.00285779 -0.00478237
v 0.01198981 0.00285779 -0.00451287
v 0.01078357 0.00270828 -0.00699159
v 0.01081114 0.00245014 -0.00703164
v 0.01085278 0.00195122 -0.00711690
v 0.01101173 0.00173172 -0.00694524
v 0.01093928 0.00165837 -0.00706941
v 0.01128207 0.00180955 -0.00644973
v 0.01156592 0.00167573 -0.00598110
v 0.01157998 0.00141871 -0.00600685
v 0.01111446 0.00141871 -0.00683538
v 0.01054297 0.00285779 -0.00727082
v 0.01076627 0.00285779 -0.00696470
v 0.01104417 0.00285779 -0.00648463
v 0.01098740 0.00270828 -0.00664370
v 0.01087657 0.00270828 -0.00683538
v 0.01127180 0.00064485 -0.00668947
v 0.01133235 0.00090243 -0.00654013
v 0.01153997 0.00078148 -0.00619224
v 0.01127666 0.00038671 -0.00669863
v 0.01163243 -0.00038659 -0.00606236
v 0.01162323 -0.00064473 -0.00606236
v 0.01174597 -0.00064473 -0.00583062
v 0.01180220 -0.00082447 -0.00568643
v 0.01179355 -0.00099638 -0.00566754
v 0.01177192 -0.00141859 -0.00561834
v 0.01175840 -0.00167617 -0.00558744
v 0.01174380 -0.00193095 -0.00553136
v 0.01181355 -0.00286271 -0.00493858
v 0.01181517 -0.00167617 -0.00545927
v 0.01209524 -0.00090231 -0.00499408
v 0.01219094 -0.00090231 -0.00477264
v 0.01229042 -0.00064473 -0.00457867
v 0.01233422 -0.00064473 -0.00444993
v 0.01233800 -0.00038659 -0.00446080
v 0.01240343 -0.00038659 -0.00425710
v 0.01269971 -0.00012789 -0.00329639
v 0.01248507 -0.00038659 -0.00399904
v 0.01264781 0.00038671 -0.00348293
v 0.01233422 0.00064485 -0.00444993
v 0.01229042 0.00064485 -0.00457867
v 0.01219094 0.00090243 -0.00477264
v 0.01209524 0.00090243 -0.00499408
v 0.01181517 0.00167573 -0.00545927
v 0.01269755 0.00045782 -0.00329639
v 0.01254508 0.00064485 -0.00378733
v 0.01240343 0.00038671 -0.00425710
v 0.01233800 0.00038671 -0.00446080
v 0.01175840 0.00167573 -0.00558744
v 0.01165622 0.00167573 -0.00580430
v 0.01160323 0.00194674 -0.00582490
v 0.01174380 0.00193050 -0.00553136
v 0.01152429 0.00276540 -0.00564237
v 0.01183139 0.00285779 -0.00489967
v 0.01094793 0.00243166 -0.00681249
v 0.01099227 0.00193442 -0.00691206
v 0.01106688 0.00193442 -0.00678274
v 0.01155187 0.00186779 -0.00595650
v 0.01168433 0.00141871 -0.00580430
v 0.01174543 0.00090747 -0.00578542
v 0.01159296 0.00116001 -0.00602974
v 0.01159296 0.00088171 -0.00608009
v 0.01106148 0.00270828 -0.00651496
v 0.01131938 0.00285779 -0.00600056
v 0.01133722 0.00270828 -0.00603203
v 0.01100849 0.00250614 -0.00668032
v 0.01162323 0.00064485 -0.00606236
v 0.01163243 0.00038671 -0.00606236
v 0.01175083 -0.00038659 -0.00584035
v 0.01180923 -0.00064473 -0.00570130
v 0.01184599 -0.00090735 -0.00556741
v 0.01187735 -0.00064473 -0.00554681
v 0.01221203 -0.00064473 -0.00477264
v 0.01229421 -0.00038659 -0.00459011
v 0.01269971 0.00020024 -0.00329639
v 0.01248507 0.00038671 -0.00399904
v 0.01269917 0.00038671 -0.00329639
v 0.01229421 0.00038671 -0.00459011
v 0.01221203 0.00064485 -0.00477264
v 0.01187735 0.00064485 -0.00554681
v 0.01180220 0.00082459 -0.00568643
v 0.01184599 0.00090747 -0.00556741
v 0.01179355 0.00099594 -0.00566754
v 0.01177192 0.00141871 -0.00561834
v 0.01158268 0.00219256 -0.00576539
v 0.01153456 0.00204026 -0.00592446
v 0.01151889 0.00219256 -0.00589356
v 0.01154213 0.00259293 -0.00568128
v 0.01147185 0.00269092 -0.00578255
v 0.01142589 0.00285779 -0.00579629
v 0.01146536 0.00285779 -0.00571675
v 0.01151348 0.00285779 -0.00561776
v 0.01135614 0.00246750 -0.00608524
v 0.01174597 0.00064485 -0.00583062
v 0.01137182 0.00285779 -0.00590043
v 0.01149239 0.00245014 -0.00584092
v 0.01175083 0.00038671 -0.00584035
v 0.01181355 -0.00038659 -0.00571103
v 0.01188600 -0.00038659 -0.00554681
v 0.01222014 -0.00038659 -0.00477264
v 0.01210984 -0.00038659 -0.00502841
v 0.01222014 0.00038671 -0.00477264
v 0.01210984 0.00038671 -0.00502841
v 0.01188600 0.00038671 -0.00554681
v 0.01180923 0.00064485 -0.00570130
v 0.01181355 0.00038671 -0.00571103
f 1 2 7
f 1 7 17
f 1 17 32
f 1 32 54
f 1 54 77
f 1 77 105
f 1 105 104
f 1 104 133
f 1 133 134
f 1 134 168
f 1 168 177
f 1 177 222
f 1 222 226
f 1 226 225
f 1 225 274
f 1 274 332
f 1 332 385
f 1 385 442
f 1 442 386
f 1 386 333
f 1 333 277
f 1 277 229
f 1 229 182
f 1 182 141
f 1 141 109
f 1 109 82
f 1 82 55
f 1 55 33
f 1 33 19
f 1 19 9
f 1 9 3
f 1 3 4
f 1 4 11
f 1 11 21
f 1 21 23
f 1 23 12
f 1 12 5
f 1 5 2
f 2 5 6
f 2 6 7
f 3 8 4
f 3 9 10
f 3 10 8
f 4 8 10
f 4 10 18
f 4 18 20
f 4 20 34
f 4 34 56
f 4 56 83
f 4 83 110
f 4 110 143
f 4 143 187
f 4 187 237
f 4 237 290
f 4 290 300
f 4 300 354
f 4 354 415
f 4 415 414
f 4 414 467
f 4 467 505
f 4 505 504
f 4 504 503
f 4 503 508
f 4 508 477
f 4 477 427
f 4 427 426
f 4 426 425
f 4 425 363
f 4 363 309
f 4 309 308
f 4 308 307
f 4 307 306
f 4 306 249
f 4 249 248
f 4 248 201
f 4 201 197
f 4 197 155
f 4 155 119
f 4 119 88
f 4 88 60
f 4 60 37
f 4 37 22
f 4 22 11
f 5 12 13
f 5 13 6
f 6 13 14
f 6 14 7
f 7 14 15
f 7 15 16
f 7 16 17
f 9 18 10
f 9 19 20
f 9 20 18
f 11 22 21
f 12 23 39
f 12 39 24
f 12 24 25
f 12 25 13
f 13 25 26
f 13 26 27
f 13 27 14
f 14 27 28
f 14 28 15
f 15 28 16
f 16 28 29
f 16 29 17
f 17 29 30
f 17 30 31
f 17 31 32
f 19 33 34
f 19 34 20
f 21 22 35
f 21 35 36
f 21 36 23
f 22 37 35
f 23 36 38
f 23 38 39
f 24 39 63
f 24 63 40
f 24 40 25
f 25 40 41
f 25 41 26
f 26 41 42
f 26 42 27
f 27 42 43
f 27 43 44
f 27 44 28
f 28 44 45
f 28 45 46
f 28 46 29
f 29 46 47
f 29 47 48
f 29 48 30
f 30 49 50
f 30 50 31
f 30 48 51
f 30 51 52
f 30 52 53
f 30 53 49
f 31 50 32
f 32 50 54
f 33 55 56
f 33 56 34
f 35 37 57
f 35 57 36
f 36 57 58
f 36 58 59
f 36 59 38
f 37 60 61
f 37 61 57
f 38 59 62
f 38 62 63
f 38 63 39
f 40 64 41
f 40 63 92
f 40 92 65
f 40 65 66
f 40 66 64
f 41 64 42
f 42 64 66
f 42 66 67
f 42 67 68
f 42 68 43
f 43 68 44
f 44 68 69
f 44 69 70
f 44 70 45
f 45 70 71
f 45 71 46
f 46 71 47
f 47 71 70
f 47 70 72
f 47 72 73
f 47 73 48
f 48 73 74
f 48 74 75
f 48 75 51
f 49 53 76
f 49 76 50
f 50 76 77
f 50 77 54
f 51 75 52
f 52 75 78
f 52 78 79
f 52 79 80
f 52 80 81
f 52 81 53
f 53 81 76
f 55 82 56
f 56 82 83
f 57 61 84
f 57 84 58
f 58 84 85
f 58 85 86
f 58 86 87
f 58 87 59
f 59 87 62
f 60 88 89
f 60 89 61
f 61 89 84
f 62 87 90
f 62 90 63
f 63 90 91
f 63 91 92
f 65 92 123
f 65 123 93
f 65 93 66
f 66 93 94
f 66 94 95
f 66 95 67
f 67 95 96
f 67 96 97
f 67 97 98
f 67 98 68
f 68 98 69
f 69 98 99
f 69 99 100
f 69 100 101
f 69 101 70
f 70 101 102
f 70 102 72
f 72 102 73
f 73 102 74
f 74 102 75
f 75 102 78
f 76 81 80
f 76 80 79
f 76 79 103
f 76 103 104
f 76 104 105
f 76 105 77
f 78 102 106
f 78 106 79
f 79 106 107
f 79 107 108
f 79 108 103
f 82 109 140
f 82 140 179
f 82 179 181
f 82 181 180
f 82 180 227
f 82 227 275
f 82 275 276
f 82 276 287
f 82 287 286
f 82 286 285
f 82 285 341
f 82 341 398
f 82 398 450
f 82 450 488
f 82 488 490
f 82 490 458
f 82 458 405
f 82 405 345
f 82 345 293
f 82 293 292
f 82 292 289
f 82 289 235
f 82 235 185
f 82 185 142
f 82 142 110
f 82 110 83
f 84 89 111
f 84 111 112
f 84 112 113
f 84 113 85
f 85 113 114
f 85 114 115
f 85 115 116
f 85 116 86
f 86 116 87
f 87 117 90
f 87 116 118
f 87 118 117
f 88 119 120
f 88 120 111
f 88 111 89
f 90 117 91
f 91 118 121
f 91 121 122
f 91 122 123
f 91 123 92
f 91 117 118
f 93 123 122
f 93 122 94
f 94 122 161
f 94 161 124
f 94 124 96
f 94 96 95
f 96 125 163
f 96 163 126
f 96 126 127
f 96 127 97
f 96 124 161
f 96 161 125
f 97 127 128
f 97 128 129
f 97 129 100
f 97 100 130
f 97 130 98
f 98 130 99
f 99 130 100
f 100 129 131
f 100 131 132
f 100 132 101
f 101 132 102
f 102 132 106
f 103 133 104
f 103 108 134
f 103 134 133
f 106 132 135
f 106 135 107
f 107 136 137
f 107 137 108
f 107 135 136
f 108 137 138
f 108 138 139
f 108 139 134
f 109 141 140
f 110 142 143
f 111 120 144
f 111 144 145
f 111 145 112
f 112 145 146
f 112 146 113
f 113 146 114
f 114 146 145
f 114 145 147
f 114 147 148
f 114 148 149
f 114 149 115
f 115 149 150
f 115 150 151
f 115 151 152
f 115 152 116
f 116 152 118
f 118 152 153
f 118 153 125
f 118 125 121
f 119 154 120
f 119 155 154
f 120 156 157
f 120 157 144
f 120 154 158
f 120 158 159
f 120 159 160
f 120 160 156
f 121 125 122
f 122 125 161
f 125 153 162
f 125 162 163
f 126 163 204
f 126 204 164
f 126 164 127
f 127 164 165
f 127 165 128
f 128 165 166
f 128 166 129
f 129 166 131
f 131 135 132
f 131 166 167
f 131 167 135
f 134 139 168
f 135 167 136
f 136 167 169
f 136 169 170
f 136 170 171
f 136 171 137
f 137 171 172
f 137 172 173
f 137 173 174
f 137 174 138
f 138 174 175
f 138 175 176
f 138 176 139
f 139 176 177
f 139 177 178
f 139 178 168
f 140 141 179
f 141 180 181
f 141 181 179
f 141 182 183
f 141 183 184
f 141 184 180
f 142 185 143
f 143 186 187
f 143 185 186
f 144 157 188
f 144 188 189
f 144 189 145
f 145 189 147
f 147 189 148
f 148 190 191
f 148 191 149
f 148 189 188
f 148 188 190
f 149 191 150
f 150 191 192
f 150 192 193
f 150 193 153
f 150 153 194
f 150 194 151
f 151 194 195
f 151 195 152
f 152 195 153
f 153 195 194
f 153 193 196
f 153 196 162
f 154 155 158
f 155 197 158
f 156 188 157
f 156 160 198
f 156 198 199
f 156 199 200
f 156 200 188
f 158 197 201
f 158 201 202
f 158 202 159
f 159 202 160
f 160 202 198
f 162 196 203
f 162 203 204
f 162 204 163
f 164 204 257
f 164 257 205
f 164 205 206
f 164 206 165
f 165 207 208
f 165 208 166
f 165 206 209
f 165 209 210
f 165 210 211
f 165 211 212
f 165 212 207
f 166 208 213
f 166 213 214
f 166 214 167
f 167 214 169
f 168 178 177
f 169 214 215
f 169 215 170
f 170 172 171
f 170 215 216
f 170 216 217
f 170 217 218
f 170 218 219
f 170 219 172
f 172 219 220
f 172 220 173
f 173 220 221
f 173 221 175
f 173 175 174
f 175 221 176
f 176 222 177
f 176 221 223
f 176 223 224
f 176 224 225
f 176 225 226
f 176 226 222
f 180 184 228
f 180 228 227
f 182 229 183
f 183 229 230
f 183 230 184
f 184 230 231
f 184 231 232
f 184 232 233
f 184 233 234
f 184 234 228
f 185 235 236
f 185 236 186
f 186 237 187
f 186 236 238
f 186 238 239
f 186 239 240
f 186 240 241
f 186 241 237
f 188 200 190
f 190 199 242
f 190 242 243
f 190 243 191
f 190 200 199
f 191 243 192
f 192 243 244
f 192 244 245
f 192 245 193
f 193 245 196
f 196 245 203
f 198 202 199
f 199 202 246
f 199 246 247
f 199 247 242
f 201 248 202
f 202 248 249
f 202 249 246
f 203 245 250
f 203 250 251
f 203 251 252
f 203 252 253
f 203 253 254
f 203 254 255
f 203 255 256
f 203 256 204
f 204 256 257
f 205 257 319
f 205 319 258
f 205 258 206
f 206 258 259
f 206 259 210
f 206 210 209
f 207 213 208
f 207 212 213
f 210 259 260
f 210 260 262
f 210 262 211
f 211 261 212
f 211 262 263
f 211 263 264
f 211 264 265
f 211 265 261
f 212 261 213
f 213 261 214
f 214 261 266
f 214 266 216
f 214 216 215
f 216 266 217
f 217 266 218
f 218 267 220
f 218 220 219
f 218 266 268
f 218 268 269
f 218 269 267
f 220 267 221
f 221 267 270
f 221 270 223
f 223 270 224
f 224 270 271
f 224 271 272
f 224 272 225
f 225 272 273
f 225 273 274
f 227 228 275
f 228 234 276
f 228 276 275
f 229 277 278
f 229 278 279
f 229 279 230
f 230 279 280
f 230 280 281
f 230 281 232
f 230 232 231
f 232 282 233
f 232 281 283
f 232 283 282
f 233 282 234
f 234 284 285
f 234 285 286
f 234 286 287
f 234 287 276
f 234 282 288
f 234 288 284
f 235 289 236
f 236 289 238
f 237 241 290
f 238 291 239
f 238 289 292
f 238 292 293
f 238 293 294
f 238 294 295
f 238 295 291
f 239 291 240
f 240 291 296
f 240 296 241
f 241 297 298
f 241 298 299
f 241 299 300
f 241 300 290
f 241 296 297
f 242 247 301
f 242 301 302
f 242 302 243
f 243 302 244
f 244 302 303
f 244 303 304
f 244 304 245
f 245 304 305
f 245 305 250
f 246 249 306
f 246 306 307
f 246 307 308
f 246 308 247
f 247 308 309
f 247 309 310
f 247 310 311
f 247 311 301
f 250 305 251
f 251 305 252
f 252 312 253
f 252 305 312
f 253 312 313
f 253 313 314
f 253 314 315
f 253 315 316
f 253 316 317
f 253 317 254
f 254 317 318
f 254 318 256
f 254 256 255
f 256 318 319
f 256 319 257
f 258 319 318
f 258 318 259
f 259 318 370
f 259 370 320
f 259 320 260
f 260 320 321
f 260 321 322
f 260 322 262
f 261 265 266
f 262 322 323
f 262 323 263
f 263 323 264
f 264 323 266
f 264 266 265
f 266 323 324
f 266 324 325
f 266 325 326
f 266 326 268
f 267 269 270
f 268 326 327
f 268 327 269
f 269 327 328
f 269 328 271
f 269 271 270
f 271 328 273
f 271 273 272
f 273 328 327
f 273 327 329
f 273 329 330
f 273 330 331
f 273 331 332
f 273 332 274
f 277 333 334
f 277 334 335
f 277 335 278
f 278 335 279
f 279 335 280
f 280 335 334
f 280 334 281
f 281 334 336
f 281 336 337
f 281 337 338
f 281 338 282
f 281 282 283
f 282 338 288
f 284 339 285
f 284 288 340
f 284 340 339
f 285 339 342
f 285 342 341
f 288 338 343
f 288 343 340
f 291 295 344
f 291 344 297
f 291 297 296
f 293 345 294
f 294 345 346
f 294 346 347
f 294 347 295
f 295 347 348
f 295 348 344
f 297 344 349
f 297 349 350
f 297 350 351
f 297 351 298
f 298 352 299
f 298 351 353
f 298 353 352
f 299 352 354
f 299 354 300
f 301 311 355
f 301 355 356
f 301 356 357
f 301 357 358
f 301 358 302
f 302 358 359
f 302 359 303
f 303 359 360
f 303 360 304
f 304 360 361
f 304 361 362
f 304 362 312
f 304 312 305
f 309 363 364
f 309 364 310
f 310 364 365
f 310 365 311
f 311 365 366
f 311 366 355
f 312 362 313
f 313 362 314
f 314 362 367
f 314 367 315
f 315 367 316
f 316 367 368
f 316 368 317
f 317 368 369
f 317 369 370
f 317 370 318
f 320 370 369
f 320 369 321
f 321 369 433
f 321 433 371
f 321 371 372
f 321 372 322
f 322 372 323
f 323 372 373
f 323 373 374
f 323 374 324
f 324 374 375
f 324 375 325
f 325 376 377
f 325 377 378
f 325 378 379
f 325 379 326
f 325 375 376
f 326 379 380
f 326 380 327
f 327 380 381
f 327 381 329
f 329 381 382
f 329 382 330
f 330 382 383
f 330 383 331
f 331 383 384
f 331 384 332
f 332 384 385
f 333 386 334
f 334 386 387
f 334 387 388
f 334 388 336
f 336 388 389
f 336 389 337
f 337 390 391
f 337 391 338
f 337 389 390
f 338 391 392
f 338 392 393
f 338 393 394
f 338 394 343
f 339 395 396
f 339 396 342
f 339 340 395
f 340 343 394
f 340 394 397
f 340 397 396
f 340 396 395
f 341 342 400
f 341 400 398
f 342 396 399
f 342 399 400
f 344 348 401
f 344 401 402
f 344 402 403
f 344 403 404
f 344 404 349
f 345 405 406
f 345 406 346
f 346 406 407
f 346 407 408
f 346 408 347
f 347 409 401
f 347 401 348
f 347 408 407
f 347 407 409
f 349 404 410
f 349 410 411
f 349 411 350
f 350 411 412
f 350 412 351
f 351 412 413
f 351 413 414
f 351 414 415
f 351 415 353
f 352 353 415
f 352 415 354
f 355 366 356
f 356 366 416
f 356 416 417
f 356 417 357
f 357 359 358
f 357 417 418
f 357 418 359
f 359 361 360
f 359 418 419
f 359 419 420
f 359 420 361
f 361 420 362
f 362 420 419
f 362 419 421
f 362 421 422
f 362 422 423
f 362 423 424
f 362 424 367
f 363 425 364
f 364 425 365
f 365 426 427
f 365 427 428
f 365 428 429
f 365 429 416
f 365 416 366
f 365 425 426
f 367 430 368
f 367 424 431
f 367 431 432
f 367 432 430
f 368 430 369
f 369 430 433
f 371 433 481
f 371 481 434
f 371 434 435
f 371 435 372
f 372 435 373
f 373 435 375
f 373 375 374
f 375 435 436
f 375 436 377
f 375 377 376
f 377 379 378
f 377 436 437
f 377 437 379
f 379 437 438
f 379 438 439
f 379 439 440
f 379 440 380
f 380 440 389
f 380 389 381
f 381 389 441
f 381 441 382
f 382 441 383
f 383 441 384
f 384 441 388
f 384 388 387
f 384 387 442
f 384 442 385
f 386 442 387
f 388 441 389
f 389 440 443
f 389 443 390
f 390 392 391
f 390 443 392
f 392 444 445
f 392 445 393
f 392 443 444
f 393 445 446
f 393 446 394
f 394 446 447
f 394 447 397
f 396 397 399
f 397 447 448
f 397 448 449
f 397 449 399
f 398 400 450
f 399 451 400
f 399 449 451
f 400 452 488
f 400 488 450
f 400 451 489
f 400 489 452
f 401 409 453
f 401 453 454
f 401 454 402
f 402 454 455
f 402 455 403
f 403 455 456
f 403 456 457
f 403 457 410
f 403 410 404
f 405 458 406
f 406 452 459
f 406 459 407
f 406 458 452
f 407 459 409
f 409 460 461
f 409 461 453
f 409 459 460
f 410 457 411
f 411 457 462
f 411 462 463
f 411 463 464
f 411 464 465
f 411 465 412
f 412 465 466
f 412 466 413
f 413 467 414
f 413 466 467
f 416 429 468
f 416 468 469
f 416 469 417
f 417 469 419
f 417 419 418
f 419 469 470
f 419 470 421
f 421 470 471
f 421 471 422
f 422 471 463
f 422 463 472
f 422 472 423
f 423 472 473
f 423 473 474
f 423 474 475
f 423 475 424
f 424 475 431
f 427 476 428
f 427 477 478
f 427 478 476
f 428 479 468
f 428 468 429
f 428 476 479
f 430 432 480
f 430 480 433
f 431 475 432
f 432 475 480
f 433 480 481
f 434 481 510
f 434 510 482
f 434 482 435
f 435 482 436
f 436 482 483
f 436 483 437
f 437 484 438
f 437 483 485
f 437 485 444
f 437 444 484
f 438 484 443
f 438 443 439
f 439 443 440
f 443 484 444
f 444 486 445
f 444 485 486
f 445 486 446
f 446 486 487
f 446 487 447
f 447 487 448
f 448 461 460
f 448 460 449
f 448 487 491
f 448 491 461
f 449 460 489
f 449 489 451
f 452 458 490
f 452 490 488
f 452 489 459
f 453 461 491
f 453 491 454
f 454 491 492
f 454 492 455
f 455 492 456
f 456 492 493
f 456 493 494
f 456 494 495
f 456 495 457
f 457 495 496
f 457 496 497
f 457 497 462
f 459 489 460
f 462 497 472
f 462 472 463
f 463 471 464
f 464 498 465
f 464 471 499
f 464 499 500
f 464 500 498
f 465 501 466
f 465 498 501
f 466 501 502
f 466 502 503
f 466 503 504
f 466 504 505
f 466 505 467
f 468 470 469
f 468 479 470
f 470 479 506
f 470 506 471
f 471 506 478
f 471 478 499
f 472 497 496
f 472 496 494
f 472 494 473
f 473 507 475
f 473 475 474
f 473 494 507
f 475 507 480
f 476 478 479
f 477 508 478
f 478 508 502
f 478 502 509
f 478 509 500
f 478 500 499
f 478 506 479
f 480 507 510
f 480 510 481
f 482 510 519
f 482 519 511
f 482 511 483
f 483 511 512
f 483 512 485
f 485 512 486
f 486 513 487
f 486 512 514
f 486 514 513
f 487 513 515
f 487 515 491
f 491 515 492
f 492 515 516
f 492 516 517
f 492 517 493
f 493 517 518
f 493 518 494
f 494 518 507
f 494 496 495
f 498 500 509
f 498 509 501
f 501 509 502
f 502 508 503
f 507 518 510
f 510 518 519
f 511 519 517
f 511 517 512
f 512 517 516
f 512 516 514
f 513 514 516
f 513 516 515
f 517 519 518

