# https://github.com/mikedh/trimesh
v 0.08610286 0.00967553 0.02031373
v 0.08610286 0.00967553 0.01657548
v 0.08601650 0.00967553 0.02101167
v 0.10373865 0.00676572 0.01580134
v 0.08598468 0.00967553 0.01580134
v 0.08546651 0.00967553 0.02131735
v 0.10053421 0.00615916 0.02004875
v 0.10053421 0.00660599 0.01906159
v 0.10312503 0.00631026 0.01790556
v 0.10430681 0.00662757 0.01580134
v 0.10673856 0.00611814 0.01422187
v 0.08174845 0.00967553 0.01580134
v 0.10449772 0.00612030 0.01422187
v 0.08259388 0.00967553 0.02233223
v 0.09888881 0.00594977 0.02103332
v 0.10134782 0.00598431 0.01982621
v 0.10177508 0.00624334 0.01908930
v 0.10275687 0.00605986 0.01868923
v 0.10405682 0.00609224 0.01755139
v 0.10440227 0.00631889 0.01666208
v 0.10518406 0.00629947 0.01580134
v 0.10649311 0.00612030 0.01471805
v 0.10708854 0.00517051 0.01422187
v 0.06706711 0.00096985 0.01580134
v 0.06292178 0.00967553 0.01933609
v 0.09956606 0.00612030 0.01422187
v 0.09472985 0.00468266 0.01422187
v 0.09419350 0.00442147 0.01422187
v 0.08173936 0.00967553 0.02247424
v 0.09802520 0.00609224 0.02114156
v 0.09677070 0.00517051 0.02154769
v 0.09802520 0.00517051 0.02134419
v 0.09900699 0.00517051 0.02107922
v 0.09963878 0.00517051 0.02083156
v 0.10053421 0.00517051 0.02041504
v 0.10144782 0.00517051 0.01989548
v 0.10356593 0.00517051 0.01836191
v 0.10425227 0.00517051 0.01773584
v 0.10487498 0.00517051 0.01713315
v 0.10522951 0.00607497 0.01631397
v 0.10542951 0.00618722 0.01580134
v 0.10639311 0.00604043 0.01495359
v 0.10708854 0.00165629 0.01422187
v 0.10651129 0.00517051 0.01509300
v 0.06687166 0.00015821 0.01580134
v 0.09311172 0.00372856 0.01422187
v 0.09257538 0.00327309 0.01422187
v 0.09092088 0.00165629 0.01422187
v 0.06065368 -0.00671481 0.01936813
v 0.06292178 0.00967553 0.02306654
v 0.06292178 0.00767666 0.02306827
v 0.08173936 -0.00117581 0.02247424
v 0.09551164 0.00517051 0.02165160
v 0.09677070 -0.00117581 0.02154769
v 0.09894790 -0.00117581 0.02109654
v 0.09802520 -0.00117581 0.02134419
v 0.09900699 -0.00117581 0.02107922
v 0.09963878 0.00391636 0.02083675
v 0.10053421 0.00391636 0.02041764
v 0.10144782 -0.00117581 0.01989548
v 0.10356593 0.00391636 0.01836278
v 0.10421136 -0.00117581 0.01777481
v 0.10483861 -0.00117581 0.01717125
v 0.10487498 -0.00485624 0.01713315
v 0.10594767 0.00517051 0.01580047
v 0.10651129 0.00165629 0.01509300
v 0.10644766 -0.00485408 0.01516401
v 0.10608857 -0.00614709 0.01516401
v 0.10597949 -0.00628956 0.01516401
v 0.08298932 -0.01235094 0.01579874
v 0.06703529 -0.00065990 0.01580134
v 0.06167182 -0.00671481 0.01886675
v 0.08224843 -0.01215667 0.01579874
v 0.06706711 -0.00072466 0.01580134
v 0.08231661 -0.01237685 0.01588880
v 0.08148482 -0.01237685 0.01827012
v 0.06292178 -0.00117581 0.02306654
v 0.06292178 0.00265141 0.02306827
v 0.08484835 -0.01237685 0.01827012
v 0.09551164 -0.00117581 0.02165160
v 0.10052512 -0.00642555 0.01936813
v 0.10161145 -0.00600246 0.01936813
v 0.09963878 -0.00117581 0.02083675
v 0.10217052 -0.00485624 0.01936813
v 0.10047512 -0.00117581 0.02044535
v 0.10053421 -0.00117581 0.02041764
v 0.10356139 -0.00485624 0.01836191
v 0.10356593 -0.00117581 0.01836278
v 0.10425227 -0.00485624 0.01773497
v 0.10404773 -0.00587727 0.01755053
v 0.10522042 -0.00587727 0.01631397
v 0.10537496 -0.00485624 0.01650707
v 0.10594767 0.00165629 0.01580047
v 0.10558405 -0.00628956 0.01556927
v 0.10477498 -0.00671481 0.01591651
v 0.10465226 -0.00686159 0.01580047
v 0.10416137 -0.00704292 0.01580047
v 0.08387111 -0.01237685 0.01585156
v 0.08379384 -0.01227755 0.01579874
v 0.08298932 -0.01237685 0.01581173
v 0.08298023 -0.01237685 0.01581259
v 0.10052512 -0.00661119 0.01906159
v 0.08484835 -0.01237685 0.01780858
v 0.10177054 -0.00613630 0.01908843
v 0.10275687 -0.00586647 0.01868837
v 0.08453472 -0.01237685 0.01656682
f 1 2 5
f 1 5 12
f 1 12 25
f 1 25 50
f 1 50 29
f 1 29 14
f 1 14 6
f 1 6 3
f 1 3 4
f 1 4 2
f 2 4 5
f 3 6 7
f 3 7 8
f 3 8 9
f 3 9 10
f 3 10 4
f 4 10 11
f 4 11 5
f 5 11 13
f 5 13 26
f 5 26 12
f 6 14 15
f 6 15 7
f 7 15 16
f 7 16 17
f 7 17 8
f 8 17 9
f 9 17 18
f 9 18 19
f 9 19 20
f 9 20 10
f 10 20 21
f 10 21 22
f 10 22 11
f 11 22 23
f 11 23 43
f 11 43 48
f 11 48 47
f 11 47 46
f 11 46 28
f 11 28 27
f 11 27 26
f 11 26 13
f 12 24 25
f 12 26 27
f 12 27 28
f 12 28 24
f 14 29 30
f 14 30 15
f 15 30 31
f 15 31 32
f 15 32 33
f 15 33 34
f 15 34 35
f 15 35 16
f 16 35 36
f 16 36 37
f 16 37 18
f 16 18 17
f 18 37 19
f 19 37 38
f 19 38 39
f 19 39 40
f 19 40 20
f 20 40 41
f 20 41 21
f 21 41 22
f 22 42 23
f 22 41 40
f 22 40 42
f 23 42 44
f 23 44 66
f 23 66 43
f 24 45 25
f 24 28 46
f 24 46 47
f 24 47 48
f 24 48 45
f 25 45 49
f 25 49 50
f 29 50 51
f 29 51 78
f 29 78 52
f 29 52 80
f 29 80 53
f 29 53 31
f 29 31 30
f 31 53 80
f 31 80 54
f 31 54 56
f 31 56 32
f 32 55 33
f 32 56 55
f 33 55 57
f 33 57 83
f 33 83 58
f 33 58 34
f 34 58 35
f 35 58 59
f 35 59 36
f 36 59 86
f 36 86 60
f 36 60 88
f 36 88 61
f 36 61 37
f 37 61 38
f 38 61 62
f 38 62 63
f 38 63 39
f 39 63 64
f 39 64 93
f 39 93 65
f 39 65 42
f 39 42 40
f 42 65 44
f 43 66 67
f 43 67 68
f 43 68 69
f 43 69 70
f 43 70 48
f 44 65 93
f 44 93 66
f 45 71 72
f 45 72 49
f 45 48 71
f 48 70 73
f 48 73 74
f 48 74 71
f 49 72 75
f 49 75 76
f 49 76 77
f 49 77 78
f 49 78 51
f 49 51 50
f 52 78 77
f 52 77 79
f 52 79 80
f 54 80 81
f 54 81 82
f 54 82 56
f 55 82 57
f 55 56 82
f 57 82 84
f 57 84 83
f 58 83 85
f 58 85 59
f 59 85 86
f 60 84 87
f 60 87 88
f 60 86 84
f 61 88 62
f 62 89 63
f 62 88 89
f 63 89 64
f 64 89 90
f 64 90 91
f 64 91 68
f 64 68 92
f 64 92 67
f 64 67 93
f 66 93 67
f 67 92 68
f 68 91 69
f 69 91 90
f 69 90 94
f 69 94 95
f 69 95 96
f 69 96 97
f 69 97 98
f 69 98 99
f 69 99 70
f 70 99 98
f 70 98 100
f 70 100 101
f 70 101 75
f 70 75 73
f 71 74 72
f 72 74 73
f 72 73 75
f 75 101 100
f 75 100 98
f 75 98 106
f 75 106 103
f 75 103 79
f 75 79 76
f 76 79 77
f 79 97 102
f 79 102 81
f 79 81 80
f 79 103 97
f 81 102 104
f 81 104 82
f 82 104 105
f 82 105 84
f 83 84 85
f 84 105 87
f 84 86 85
f 87 105 90
f 87 90 89
f 87 89 88
f 90 95 94
f 90 105 95
f 95 105 104
f 95 104 96
f 96 104 102
f 96 102 97
f 97 103 106
f 97 106 98

