# https://github.com/mikedh/trimesh
v -0.01273465 -0.00038713 0.00314760
v -0.01272785 -0.00064490 0.00314760
v -0.01272723 -0.00038713 0.00318163
v -0.01273465 0.00038688 0.00314760
v -0.01272043 -0.00075166 0.00314760
v -0.01269508 -0.00064490 0.00329545
v -0.01269817 -0.00038713 0.00331071
v -0.01272723 0.00038688 0.00318163
v -0.01272785 0.00064465 0.00314760
v -0.01271425 -0.00083594 0.00314760
v -0.01263262 -0.00075166 0.00348262
v -0.01264066 -0.00064490 0.00348262
v -0.01268951 -0.00092584 0.00322152
v -0.01262087 -0.00090266 0.00348262
v -0.01264746 -0.00038713 0.00348262
v -0.01269817 0.00038688 0.00331071
v -0.01269508 0.00064465 0.00329545
v -0.01271177 0.00086660 0.00314760
v -0.01271177 -0.00086614 0.00314760
v -0.01238774 -0.00075166 0.00425709
v -0.01255903 -0.00064490 0.00374136
v -0.01248792 -0.00038713 0.00398955
v -0.01261283 -0.00167667 0.00322504
v -0.01256893 -0.00141820 0.00348262
v -0.01229746 -0.00167667 0.00425709
v -0.01237537 -0.00090266 0.00425709
v -0.01264746 0.00038688 0.00348262
v -0.01264066 0.00064465 0.00348262
v -0.01262087 0.00090242 0.00348262
v -0.01268951 0.00092560 0.00322152
v -0.01261221 0.00167643 0.00322504
v -0.01266787 0.00129715 0.00314760
v -0.01262891 -0.00167667 0.00314760
v -0.01231168 -0.00064490 0.00451466
v -0.01239578 -0.00064490 0.00425709
v -0.01229066 -0.00090266 0.00451466
v -0.01240320 -0.00038713 0.00425709
v -0.01248792 0.00038688 0.00398955
v -0.01259552 -0.00193444 0.00314760
v -0.01257882 -0.00193444 0.00322504
v -0.01254234 -0.00167667 0.00348262
v -0.01246318 -0.00188317 0.00365218
v -0.01226097 -0.00193444 0.00425709
v -0.01220594 -0.00193444 0.00442724
v -0.01222449 -0.00167667 0.00448122
v -0.01255903 0.00064465 0.00374136
v -0.01247431 0.00090242 0.00394613
v -0.01259490 0.00116019 0.00348262
v -0.01254234 0.00167643 0.00348262
v -0.01257882 0.00193420 0.00322504
v -0.01262891 0.00167643 0.00314760
v -0.01223005 -0.00064490 0.00473058
v -0.01231910 -0.00038713 0.00451466
v -0.01221954 -0.00090266 0.00470652
v -0.01222573 -0.00075166 0.00472060
v -0.01218862 -0.00151232 0.00463318
v -0.01219728 -0.00134024 0.00465548
v -0.01240320 0.00038688 0.00425709
v -0.01239578 0.00064465 0.00425709
v -0.01254852 -0.00219291 0.00314760
v -0.01253182 -0.00219291 0.00322504
v -0.01247617 -0.00219291 0.00343568
v -0.01249781 -0.00195551 0.00350608
v -0.01244896 -0.00205525 0.00360759
v -0.01219357 -0.00207140 0.00439086
v -0.01216142 -0.00193444 0.00455632
v -0.01217997 -0.00167667 0.00460971
v -0.01237537 0.00090242 0.00425709
v -0.01229746 0.00167643 0.00425709
v -0.01246318 0.00188292 0.00365218
v -0.01249781 0.00195527 0.00350608
v -0.01247617 0.00219196 0.00343568
v -0.01253182 0.00219196 0.00322504
v -0.01256274 0.00211541 0.00314760
v -0.01259552 0.00193420 0.00314760
v -0.01193076 -0.00072426 0.00540942
v -0.01197961 -0.00064209 0.00530967
v -0.01193632 -0.00055289 0.00542291
v -0.01223376 -0.00038713 0.00473996
v -0.01231910 0.00038688 0.00451466
v -0.01197837 -0.00090266 0.00526156
v -0.01193818 -0.00075166 0.00538654
v -0.01211256 -0.00167667 0.00477224
v -0.01189675 -0.00141820 0.00533021
v -0.01231168 0.00064465 0.00451466
v -0.01246009 -0.00262908 0.00314760
v -0.01242485 -0.00271337 0.00322798
v -0.01247864 -0.00244998 0.00322798
v -0.01244092 -0.00253567 0.00331540
v -0.01245824 -0.00236359 0.00338053
v -0.01220408 -0.00237834 0.00416439
v -0.01230241 -0.00296622 0.00348262
v -0.01210638 -0.00270775 0.00425709
v -0.01202042 -0.00270775 0.00451466
v -0.01213792 -0.00217114 0.00449178
v -0.01193880 -0.00286016 0.00465430
v -0.01202414 -0.00219291 0.00477224
v -0.01207484 -0.00193444 0.00477224
v -0.01229066 0.00090242 0.00451466
v -0.01222387 0.00167643 0.00448122
v -0.01220594 0.00193420 0.00442724
v -0.01226159 0.00193420 0.00425709
v -0.01244896 0.00205500 0.00360759
v -0.01235559 0.00270820 0.00348262
v -0.01245824 0.00236404 0.00338053
v -0.01254852 0.00219196 0.00314760
v -0.01244092 0.00253542 0.00331540
v -0.01239207 0.00287537 0.00322622
v -0.01245886 0.00263586 0.00314760
v -0.01185470 -0.00090266 0.00554612
v -0.01187387 -0.00075166 0.00553322
v -0.01188685 -0.00064209 0.00552383
v -0.01188191 -0.00038713 0.00555492
v -0.01199754 -0.00038713 0.00528797
v -0.01223376 0.00038688 0.00473996
v -0.01223005 0.00064465 0.00473058
v -0.01193261 -0.00179678 0.00515713
v -0.01189304 -0.00169704 0.00527330
v -0.01180275 -0.00141820 0.00554612
v -0.01221954 0.00090242 0.00470652
v -0.01239022 -0.00296833 0.00314760
v -0.01237352 -0.00296622 0.00322504
v -0.01219604 -0.00285735 0.00388276
v -0.01231168 -0.00322399 0.00322504
v -0.01223624 -0.00322750 0.00348966
v -0.01220656 -0.00314462 0.00365629
v -0.01217811 -0.00302943 0.00382761
v -0.01205258 -0.00296622 0.00425709
v -0.01196786 -0.00295428 0.00451818
v -0.01192087 -0.00303294 0.00460561
v -0.01207299 -0.00244998 0.00451466
v -0.01187449 -0.00295428 0.00475287
v -0.01169145 -0.00290090 0.00519350
v -0.01157766 -0.00270775 0.00554612
v -0.01189799 -0.00270775 0.00481976
v -0.01189428 -0.00219291 0.00506853
v -0.01192025 -0.00193444 0.00512720
v -0.01219728 0.00133999 0.00465548
v -0.01218862 0.00151207 0.00463318
v -0.01217997 0.00167643 0.00460971
v -0.01216203 0.00193420 0.00455632
v -0.01219357 0.00207045 0.00439086
v -0.01217626 0.00224253 0.00433630
v -0.01218677 0.00287537 0.00390154
v -0.01223809 0.00287537 0.00374136
v -0.01232096 0.00287537 0.00348262
v -0.01240939 0.00287537 0.00314760
v -0.01171185 -0.00141820 0.00574913
v -0.01172422 -0.00116043 0.00577553
v -0.01172731 -0.00089634 0.00582306
v -0.01179843 -0.00075166 0.00569691
v -0.01175823 -0.00064490 0.00580428
v -0.01176751 -0.00038713 0.00580428
v -0.01188191 0.00038688 0.00555492
v -0.01199754 0.00038688 0.00528797
v -0.01193632 0.00055264 0.00542291
v -0.01197961 0.00064114 0.00530967
v -0.01193076 0.00072402 0.00540942
v -0.01168588 -0.00185367 0.00569574
v -0.01177616 -0.00167667 0.00554612
v -0.01169825 -0.00167667 0.00572097
v -0.01192272 0.00090242 0.00539064
v -0.01211256 0.00167643 0.00477224
v -0.01237228 -0.00304278 0.00314760
v -0.01232838 -0.00322399 0.00314760
v -0.01230612 -0.00330054 0.00314760
v -0.01223191 -0.00349018 0.00322798
v -0.01218306 -0.00358149 0.00331540
v -0.01220965 -0.00341011 0.00340751
v -0.01195055 -0.00314954 0.00443428
v -0.01218120 -0.00331670 0.00357943
v -0.01189613 -0.00323101 0.00451818
v -0.01169454 -0.00367069 0.00468481
v -0.01179472 -0.00322399 0.00477224
v -0.01167104 -0.00307298 0.00514774
v -0.01151830 -0.00296622 0.00554612
v -0.01143915 -0.00296622 0.00571862
v -0.01145955 -0.00268316 0.00580956
v -0.01166857 -0.00202505 0.00565760
v -0.01163208 -0.00246122 0.00553791
v -0.01168897 -0.00238325 0.00544579
v -0.01172855 -0.00193795 0.00556197
v -0.01207546 0.00193420 0.00477224
v -0.01213792 0.00217089 0.00449178
v -0.01193756 0.00287537 0.00465078
v -0.01207299 0.00244973 0.00451466
v -0.01201981 0.00270820 0.00451466
v -0.01198456 0.00287537 0.00451701
v -0.01210638 0.00270820 0.00425709
v -0.01207175 0.00287537 0.00425709
v -0.01077006 0.00287537 0.00314760
v -0.01164816 -0.00141820 0.00587821
v -0.01167042 -0.00097712 0.00592280
v -0.01167908 -0.00080644 0.00593923
v -0.01168155 -0.00075166 0.00594275
v -0.01168588 -0.00064490 0.00595038
v -0.01169021 -0.00038713 0.00595859
v -0.01176751 0.00038688 0.00580428
v -0.01175823 0.00064465 0.00580428
v -0.01188685 0.00064114 0.00552383
v -0.01185470 0.00090242 0.00554612
v -0.01140081 -0.00275270 0.00589933
v -0.01162095 -0.00193795 0.00579079
v -0.01151397 -0.00192531 0.00599790
v -0.01163456 -0.00167667 0.00585005
v -0.01180275 0.00141796 0.00554612
v -0.01193323 0.00179653 0.00515713
v -0.01225046 -0.00348737 0.00314760
v -0.01220470 -0.00363838 0.00314760
v -0.01197034 -0.00430001 0.00326611
v -0.01195673 -0.00420098 0.00342453
v -0.01207732 -0.00348176 0.00374136
v -0.01192396 -0.00332091 0.00435625
v -0.01169887 -0.00394040 0.00444954
v -0.01166795 -0.00384277 0.00462086
v -0.01155293 -0.00399800 0.00477224
v -0.01139462 -0.00327526 0.00562240
v -0.01145399 -0.00320362 0.00554026
v -0.01142060 -0.00310458 0.00568107
v -0.01144904 -0.00397201 0.00502042
v -0.01140637 -0.00357236 0.00539123
v -0.01137484 -0.00296622 0.00584770
v -0.01172855 0.00193701 0.00556197
v -0.01202414 0.00219196 0.00477224
v -0.01195488 0.00270820 0.00469009
v -0.01169392 0.00287537 0.00520054
v -0.01189799 0.00270820 0.00481976
v -0.01157828 0.00270820 0.00554612
v -0.00955000 0.00287537 0.00599731
v -0.00723602 0.00287467 0.00869977
v -0.00647418 -0.00430001 0.00872265
v -0.01065937 0.00167783 0.00314760
v -0.01158385 -0.00141820 0.00599790
v -0.01154860 -0.00141820 0.00606303
v -0.01164136 -0.00085771 0.00599790
v -0.01121097 -0.00064630 0.00679819
v -0.01148491 -0.00064630 0.00631004
v -0.01165744 -0.00075166 0.00598617
v -0.01165991 -0.00064490 0.00599731
v -0.01166857 -0.00038783 0.00599790
v -0.01169021 0.00038688 0.00595859
v -0.01168588 0.00064465 0.00595038
v -0.01167908 0.00080619 0.00593923
v -0.01172731 0.00089680 0.00582306
v -0.01172484 0.00116019 0.00577553
v -0.01171185 0.00141796 0.00574913
v -0.01128950 -0.00297605 0.00599790
v -0.01118005 -0.00290511 0.00622555
v -0.01135690 -0.00270283 0.00599790
v -0.01141812 -0.00258062 0.00593395
v -0.01146203 -0.00219291 0.00599731
v -0.01147378 -0.00192039 0.00607418
v -0.01155478 -0.00167667 0.00599790
v -0.01169825 0.00167643 0.00572097
v -0.01177616 0.00167643 0.00554612
v -0.01168588 0.00185342 0.00569574
v -0.01200682 -0.00426841 0.00314760
v -0.01197837 -0.00430001 0.00322915
v -0.01191406 -0.00430001 0.00345856
v -0.01167166 -0.00411248 0.00437209
v -0.01190664 -0.00401345 0.00375427
v -0.01164754 -0.00401485 0.00452757
v -0.01146697 -0.00424874 0.00477106
v -0.01143049 -0.00415884 0.00492772
v -0.01139153 -0.00404084 0.00509963
v -0.01128393 -0.00373952 0.00554612
v -0.01116830 -0.00389475 0.00569222
v -0.01119303 -0.00373952 0.00574033
v -0.01133835 -0.00320362 0.00578199
v -0.01117881 -0.00341082 0.00596446
v -0.01119798 -0.00328790 0.00599790
v -0.01166857 0.00202550 0.00565760
v -0.01165187 0.00219196 0.00561888
v -0.01187201 0.00243147 0.00500751
v -0.01153933 0.00287537 0.00554612
v -0.01145955 0.00268362 0.00580956
v -0.01148862 0.00287537 0.00565819
v -0.01115778 0.00287537 0.00599731
v -0.00767940 0.00287467 0.00914157
v -0.00751182 0.00287467 0.00914040
v -0.00742092 0.00287467 0.00913218
v -0.00728611 0.00287467 0.00909580
v -0.00722798 0.00287467 0.00907585
v -0.00718037 0.00287467 0.00895675
v -0.00717171 0.00287467 0.00889866
v -0.00641791 -0.00430001 0.00890805
v -0.01033967 -0.00430001 0.00314760
v -0.01151954 -0.00167667 0.00606303
v -0.01116459 -0.00157834 0.00671488
v -0.01125920 -0.00141820 0.00657817
v -0.01119922 -0.00090266 0.00677648
v -0.01113800 -0.00064630 0.00692668
v -0.01114356 -0.00038783 0.00693666
v -0.01121653 -0.00038783 0.00680758
v -0.01166857 0.00038618 0.00599790
v -0.01165991 0.00064465 0.00599731
v -0.01164136 0.00085747 0.00599790
v -0.01167104 0.00097827 0.00592280
v -0.01121097 0.00064465 0.00679819
v -0.01164816 0.00141796 0.00587821
v -0.01124065 -0.00298097 0.00608298
v -0.01090858 -0.00285946 0.00671898
v -0.01120293 -0.00270775 0.00626603
v -0.01095372 -0.00245068 0.00679702
v -0.01140885 -0.00245068 0.00599790
v -0.01146017 -0.00220064 0.00599790
v -0.01142183 -0.00182557 0.00619856
v -0.01113491 -0.00193444 0.00666325
v -0.01163456 0.00167643 0.00585005
v -0.01162157 0.00193701 0.00579079
v -0.01199569 -0.00430001 0.00314760
v -0.01165496 -0.00430001 0.00422775
v -0.01164878 -0.00427192 0.00427469
v -0.01156963 -0.00425576 0.00451466
v -0.01145894 -0.00430001 0.00474642
v -0.01118066 -0.00417499 0.00546164
v -0.01114047 -0.00406683 0.00563355
v -0.01120540 -0.00398746 0.00554671
v -0.01112687 -0.00373952 0.00586882
v -0.01108853 -0.00398746 0.00578844
v -0.01115160 -0.00358290 0.00591693
v -0.01101803 -0.00374023 0.00606303
v -0.01092280 -0.00374023 0.00622614
v -0.01065690 -0.00365032 0.00672837
v -0.01085231 -0.00322399 0.00662159
v -0.01115469 -0.00307719 0.00618213
v -0.01140081 0.00275245 0.00589933
v -0.01144595 0.00287537 0.00574854
v -0.01138597 0.00287537 0.00586941
v -0.00901819 0.00287467 0.00906588
v -0.00897490 0.00287467 0.00908172
v -0.00880176 0.00287467 0.00912749
v -0.00871086 0.00287467 0.00914157
v -0.00690519 -0.00425576 0.00914157
v -0.00664732 -0.00430001 0.00911927
v -0.00646243 -0.00430001 0.00906295
v -0.01109966 -0.00141820 0.00685921
v -0.01117324 -0.00141820 0.00673013
v -0.01115222 -0.00175042 0.00669317
v -0.01109409 -0.00166895 0.00681462
v -0.01118623 -0.00116043 0.00675360
v -0.01112563 -0.00090266 0.00690556
v -0.01100319 -0.00090266 0.00709390
v -0.01102793 -0.00064630 0.00709390
v -0.01097042 -0.00141820 0.00706633
v -0.01103906 -0.00038783 0.00709390
v -0.01114356 0.00038618 0.00693666
v -0.01121653 0.00038618 0.00680758
v -0.01119922 0.00090242 0.00677648
v -0.01154860 0.00141796 0.00606303
v -0.01113738 0.00064465 0.00692668
v -0.01112563 0.00090242 0.00690556
v -0.01063278 -0.00331740 0.00694605
v -0.01082139 -0.00295358 0.00681755
v -0.01085107 -0.00270775 0.00687857
v -0.01092651 -0.00270775 0.00674949
v -0.01089621 -0.00229124 0.00695426
v -0.01103596 -0.00193444 0.00683574
v -0.01156530 0.00158512 0.00599731
v -0.01155478 0.00167572 0.00599790
v -0.01142245 0.00182533 0.00619856
v -0.01152881 0.00183657 0.00599790
v -0.01151397 0.00192436 0.00599790
v -0.01146326 0.00218424 0.00599790
v -0.01141874 0.00258037 0.00593395
v -0.01156839 -0.00430001 0.00447125
v -0.01155231 -0.00430001 0.00451408
v -0.01142369 -0.00430001 0.00482328
v -0.01110522 -0.00425928 0.00554671
v -0.01137978 -0.00430001 0.00491892
v -0.01110646 -0.00430001 0.00550799
v -0.01097227 -0.00425928 0.00581250
v -0.01092280 -0.00417569 0.00596739
v -0.01094506 -0.00397201 0.00605775
v -0.01105513 -0.00374023 0.00599790
v -0.01093022 -0.00410756 0.00599790
v -0.01090239 -0.00386876 0.00619152
v -0.01062969 -0.00382240 0.00668202
v -0.01057280 -0.00373742 0.00682283
v -0.01060681 -0.00348176 0.00690204
v -0.01135690 0.00270259 0.00599790
v -0.01120169 0.00287467 0.00619973
v -0.01131547 0.00287467 0.00599790
v -0.01090672 0.00287467 0.00671488
v -0.01089436 0.00287467 0.00673541
v -0.01074471 0.00287467 0.00697421
v -0.01069400 0.00287467 0.00705224
v -0.01060866 0.00287467 0.00717428
v -0.01040645 0.00287467 0.00745180
v -0.01007809 0.00287467 0.00789771
v -0.00998348 0.00287467 0.00802151
v -0.00993154 0.00287467 0.00808605
v -0.00982951 0.00287467 0.00820750
v -0.00975777 0.00287467 0.00828730
v -0.00970212 0.00287467 0.00834890
v -0.00920309 0.00287467 0.00890101
v -0.00912517 0.00287467 0.00898667
v -0.00909240 0.00287467 0.00902246
v -0.00905653 0.00287467 0.00904417
v -0.00909858 0.00283884 0.00902833
v -0.00911899 0.00270750 0.00904593
v -0.00915733 0.00244973 0.00907410
v -0.00896872 0.00270750 0.00910284
v -0.00896872 0.00244973 0.00913042
v -0.00896872 0.00219196 0.00914157
v -0.00690519 -0.00430001 0.00914157
v -0.01095434 -0.00167667 0.00704286
v -0.01093269 -0.00193444 0.00701000
v -0.01090858 -0.00090266 0.00723237
v -0.01089374 -0.00120468 0.00721066
v -0.01092095 -0.00064630 0.00724997
v -0.01088261 -0.00141820 0.00719541
v -0.01092651 -0.00038783 0.00725760
v -0.01103906 0.00038618 0.00709390
v -0.01102793 0.00064465 0.00709390
v -0.01118623 0.00115948 0.00675360
v -0.01117324 0.00141796 0.00673013
v -0.01116459 0.00157739 0.00671488
v -0.01151954 0.00167572 0.00606303
v -0.01100319 0.00090242 0.00709390
v -0.01097042 0.00141796 0.00706633
v -0.01109966 0.00141796 0.00685921
v -0.01065999 -0.00314532 0.00698770
v -0.01040583 -0.00391722 0.00699357
v -0.01043614 -0.00374023 0.00703699
v -0.01068720 -0.00296622 0.00702701
v -0.01070760 -0.00268668 0.00710388
v -0.01087890 -0.00245068 0.00692551
v -0.01064638 -0.00258694 0.00722533
v -0.01091352 -0.00211987 0.00698184
v -0.01115284 0.00174947 0.00669317
v -0.01103596 0.00193420 0.00683574
v -0.01113491 0.00193420 0.00666325
v -0.01095310 0.00244973 0.00679702
v -0.01145832 0.00219196 0.00600436
v -0.01147378 0.00192015 0.00607418
v -0.01138535 0.00256703 0.00599731
v -0.01136927 0.00264359 0.00599790
v -0.01108667 -0.00430001 0.00554964
v -0.01096361 -0.00430001 0.00579548
v -0.01093331 -0.00430001 0.00585415
v -0.01085787 -0.00430001 0.00598734
v -0.01085478 -0.00429369 0.00599731
v -0.01089312 -0.00420309 0.00599790
v -0.01091414 -0.00415252 0.00599790
v -0.01087086 -0.00404154 0.00613989
v -0.01059568 -0.00399800 0.00662687
v -0.01046273 -0.00400151 0.00684572
v -0.01120293 0.00270750 0.00626603
v -0.01090858 0.00285921 0.00671898
v -0.01085107 0.00270750 0.00687857
v -0.01070760 0.00268713 0.00710388
v -0.01062474 0.00275877 0.00719658
v -0.01038976 0.00284868 0.00748583
v -0.01009294 0.00270750 0.00794759
v -0.00994700 0.00268854 0.00813534
v -0.00987341 0.00258950 0.00825796
v -0.00937500 0.00264148 0.00879188
v -0.00928595 0.00244973 0.00895088
v -0.00931378 0.00219196 0.00898550
v -0.00935706 0.00181198 0.00902950
v -0.00937067 0.00167572 0.00904241
v -0.00939355 0.00141796 0.00906177
v -0.00918515 0.00219196 0.00908407
v -0.00922658 0.00141796 0.00911810
v -0.00922658 0.00115948 0.00912983
v -0.00922658 0.00090242 0.00913687
v -0.00922658 0.00064465 0.00914040
v -0.00922658 0.00038618 0.00914157
v -0.00793788 -0.00430001 0.00914157
v -0.01086591 -0.00167667 0.00717194
v -0.01066061 -0.00245068 0.00724528
v -0.01084179 -0.00193444 0.00713849
v -0.01063773 -0.00176658 0.00747117
v -0.01081953 -0.00113515 0.00732624
v -0.01068905 -0.00090266 0.00754451
v -0.01066308 -0.00141820 0.00750754
v -0.01046705 -0.00066667 0.00789243
v -0.01039347 -0.00059433 0.00800626
v -0.01083623 -0.00038783 0.00738668
v -0.01065257 -0.00159520 0.00749229
v -0.01092651 0.00038618 0.00725760
v -0.01092095 0.00064465 0.00724997
v -0.01090858 0.00090242 0.00723237
v -0.01109471 0.00166870 0.00681462
v -0.01088261 0.00141796 0.00719541
v -0.01095434 0.00167572 0.00704286
v -0.01037244 -0.00356674 0.00720421
v -0.01059506 -0.00296622 0.00715609
v -0.00990247 -0.00369036 0.00778154
v -0.01034338 -0.00374023 0.00716607
v -0.01036935 -0.00408930 0.00693842
v -0.01018384 -0.00430001 0.00707219
v -0.01011334 -0.00430001 0.00716724
v -0.01007686 -0.00430001 0.00721594
v -0.01013375 -0.00413987 0.00723061
v -0.01016405 -0.00399800 0.00726992
v -0.01062536 -0.00275902 0.00719658
v -0.01011705 -0.00252724 0.00798103
v -0.01043923 -0.00245068 0.00755507
v -0.01093208 0.00193420 0.00701000
v -0.01091352 0.00211892 0.00698184
v -0.01089559 0.00229100 0.00695426
v -0.01092651 0.00270750 0.00674949
v -0.01081458 -0.00430001 0.00605951
v -0.01064700 -0.00413285 0.00645320
v -0.01087890 0.00244973 0.00692551
v -0.01064638 0.00258669 0.00722533
v -0.01011767 0.00252699 0.00798103
v -0.01003419 0.00244482 0.00810483
v -0.00988949 0.00244973 0.00827556
v -0.00943127 0.00219196 0.00885642
v -0.00940159 0.00244973 0.00882180
v -0.00956051 0.00219196 0.00871091
v -0.00996988 0.00167572 0.00836651
v -0.00986970 0.00153806 0.00851084
v -0.00951661 0.00167643 0.00887930
v -0.00962111 0.00159074 0.00878015
v -0.00952217 0.00141796 0.00892389
v -0.00953825 0.00115948 0.00894150
v -0.00940963 0.00115948 0.00907292
v -0.00942138 0.00090242 0.00907996
v -0.00943251 0.00064465 0.00908348
v -0.00943807 0.00038618 0.00908407
v -0.00943869 0.00012841 0.00908407
v -0.00922658 -0.00038783 0.00914157
v -0.00819513 -0.00430001 0.00913335
v -0.00819513 -0.00399800 0.00914157
v -0.00819513 -0.00425576 0.00913805
v -0.01059506 -0.00219221 0.00741132
v -0.01062103 -0.00193444 0.00744828
v -0.01030751 -0.00193444 0.00788598
v -0.01033287 -0.00167667 0.00792118
v -0.01036564 -0.00116043 0.00796636
v -0.01035204 -0.00141820 0.00794817
v -0.01033287 -0.00064490 0.00807549
v -0.01015786 -0.00064419 0.00828789
v -0.01029329 -0.00038783 0.00814003
v -0.01039718 -0.00038783 0.00801095
v -0.01049921 -0.00038783 0.00786720
v -0.01022341 -0.00141820 0.00811363
v -0.01083623 0.00038618 0.00738668
v -0.01039347 0.00059267 0.00800626
v -0.01046705 0.00066502 0.00789243
v -0.01046953 0.00090242 0.00785606
v -0.01081953 0.00113490 0.00732624
v -0.01066308 0.00141796 0.00750754
v -0.01065257 0.00159425 0.00749229
v -0.01086591 0.00167572 0.00717194
v -0.01013746 -0.00363557 0.00749287
v -0.00993834 -0.00348176 0.00783083
v -0.01016219 -0.00348176 0.00752690
v -0.01036317 -0.00302030 0.00744946
v -0.01038976 -0.00284892 0.00748583
v -0.00984249 -0.00348176 0.00795991
v -0.00980848 -0.00376200 0.00786720
v -0.00966625 -0.00374023 0.00806024
v -0.01033596 -0.00430001 0.00684689
v -0.00993525 -0.00430001 0.00740193
v -0.01006634 -0.00399800 0.00739900
v -0.01009232 -0.00270775 0.00794759
v -0.00994700 -0.00268878 0.00813534
v -0.00987341 -0.00258975 0.00825796
v -0.01003419 -0.00244506 0.00810483
v -0.01013499 -0.00235586 0.00800508
v -0.01020424 -0.00244506 0.00788363
v -0.01084179 0.00193420 0.00713849
v -0.01066061 0.00244973 0.00724528
v -0.01047324 -0.00430001 0.00662159
v -0.01071379 0.00193420 0.00731920
v -0.01030751 0.00193420 0.00788598
v -0.01013499 0.00235491 0.00800508
v -0.01004594 0.00219196 0.00815529
v -0.01007191 0.00193420 0.00818814
v -0.00991670 0.00219196 0.00830666
v -0.01009850 0.00167572 0.00821983
v -0.01011829 0.00141796 0.00824271
v -0.00955000 0.00090242 0.00895675
v -0.01012633 0.00126765 0.00825151
v -0.01014488 0.00090242 0.00827322
v -0.01004594 0.00064465 0.00841696
v -0.00967553 0.00064465 0.00884234
v -0.00956175 0.00064465 0.00897142
v -0.00956669 0.00038618 0.00898022
v -0.00956793 0.00012841 0.00898081
v -0.00943869 -0.00012936 0.00908407
v -0.00943807 -0.00038783 0.00908407
v -0.00922658 -0.00064419 0.00914040
v -0.00896872 -0.00219221 0.00914157
v -0.00843506 -0.00430001 0.00906999
v -0.00845299 -0.00399800 0.00911399
v -0.00845608 -0.00423820 0.00907468
v -0.00871148 -0.00296622 0.00914157
v -0.00845299 -0.00374023 0.00913746
v -0.01020424 -0.00167667 0.00809075
v -0.01017827 -0.00193444 0.00805906
v -0.01011829 -0.00141820 0.00824271
v -0.01013499 -0.00109652 0.00826148
v -0.01004594 -0.00064490 0.00841696
v -0.00992350 -0.00038783 0.00857362
v -0.01016405 -0.00038783 0.00829551
v -0.01029329 0.00038618 0.00814003
v -0.01039718 0.00038618 0.00801095
v -0.01049921 0.00038618 0.00786720
v -0.01038481 0.00076475 0.00799452
v -0.01015786 0.00064465 0.00828789
v -0.01030566 0.00066502 0.00810541
v -0.01022341 0.00141796 0.00811363
v -0.01035204 0.00141796 0.00794817
v -0.01042501 0.00167572 0.00779269
v -0.01063773 0.00176633 0.00747117
v -0.00986599 -0.00333918 0.00798983
v -0.00997050 -0.00324155 0.00788950
v -0.01006820 -0.00299080 0.00786310
v -0.00969903 -0.00347192 0.00813710
v -0.00963039 -0.00391090 0.00801741
v -0.00993710 -0.00399800 0.00756856
v -0.00970150 -0.00399729 0.00787777
v -0.00941890 -0.00430001 0.00807021
v -0.00955371 -0.00374023 0.00818873
v -0.00959143 -0.00355059 0.00823156
v -0.00957597 -0.00430001 0.00787366
v -0.00989258 -0.00316710 0.00802445
v -0.00992474 -0.00296622 0.00806200
v -0.00937438 -0.00264172 0.00879188
v -0.00928533 -0.00245068 0.00895088
v -0.00940159 -0.00245068 0.00882180
v -0.00943127 -0.00219221 0.00885642
v -0.00988949 -0.00245068 0.00827556
v -0.00984682 -0.00276183 0.00822745
v -0.00964585 -0.00322399 0.00829082
v -0.00940097 -0.00322399 0.00856247
v -0.00973551 -0.00268878 0.00837648
v -0.01004594 -0.00219221 0.00815529
v -0.01033287 0.00167572 0.00792118
v -0.01017827 0.00193420 0.00805906
v -0.01020424 0.00167572 0.00809075
v -0.00992350 0.00038618 0.00857362
v -0.00968233 0.00038618 0.00885114
v -0.00968357 0.00012841 0.00885173
v -0.00956793 -0.00012936 0.00898081
v -0.00956669 -0.00038783 0.00898022
v -0.00943312 -0.00064630 0.00908348
v -0.00922597 -0.00090266 0.00913687
v -0.00922597 -0.00116043 0.00912983
v -0.00896872 -0.00245068 0.00913042
v -0.00871148 -0.00322399 0.00913159
v -0.00852905 -0.00430001 0.00900428
v -0.00861995 -0.00399800 0.00905708
v -0.00858904 -0.00414058 0.00903420
v -0.00890626 -0.00322399 0.00907527
v -0.00867314 -0.00374023 0.00908055
v -0.01007253 -0.00193444 0.00818814
v -0.01009788 -0.00167667 0.00821983
v -0.00952217 -0.00141820 0.00892389
v -0.00953763 -0.00116043 0.00894150
v -0.00986908 -0.00153901 0.00851084
v -0.01003295 -0.00090266 0.00840171
v -0.00967553 -0.00064490 0.00884293
v -0.00968233 -0.00038783 0.00885114
v -0.00968357 -0.00012936 0.00885173
v -0.01005274 -0.00012936 0.00842459
v -0.01016405 0.00038618 0.00829551
v -0.00962111 -0.00337921 0.00826383
v -0.00955680 -0.00425576 0.00792294
v -0.00954443 -0.00430001 0.00791355
v -0.00933047 -0.00430001 0.00816995
v -0.00931501 -0.00425576 0.00820985
v -0.00942509 -0.00374023 0.00832837
v -0.00934655 -0.00410686 0.00824505
v -0.00912208 -0.00341363 0.00879775
v -0.00937190 -0.00339817 0.00853079
v -0.00981466 -0.00296622 0.00819108
v -0.00926431 -0.00271969 0.00888634
v -0.00915671 -0.00245068 0.00907410
v -0.00931378 -0.00219221 0.00898550
v -0.00909796 -0.00283909 0.00902833
v -0.00911837 -0.00270775 0.00904593
v -0.00967429 -0.00219221 0.00858183
v -0.00935645 -0.00181293 0.00902950
v -0.00991670 -0.00219221 0.00830666
v -0.00915485 -0.00322399 0.00883354
v -0.01005274 0.00012841 0.00842459
v -0.00956175 -0.00064490 0.00897142
v -0.00942199 -0.00090266 0.00907996
v -0.00940901 -0.00116043 0.00907292
v -0.00922597 -0.00141820 0.00911810
v -0.00918454 -0.00219221 0.00908407
v -0.00856554 -0.00430001 0.00897377
v -0.00887102 -0.00342557 0.00905297
v -0.00883206 -0.00359765 0.00902188
v -0.00897923 -0.00350564 0.00890923
v -0.00874858 -0.00399800 0.00893093
v -0.00884195 -0.00413074 0.00877135
v -0.00907879 -0.00430001 0.00843985
v -0.00879743 -0.00430001 0.00873614
v -0.00996988 -0.00167667 0.00836651
v -0.00962111 -0.00159169 0.00878015
v -0.00937067 -0.00167667 0.00904241
v -0.00939293 -0.00141820 0.00906177
v -0.00955000 -0.00090266 0.00895675
v -0.00930326 -0.00430001 0.00819988
v -0.00918515 -0.00425576 0.00834832
v -0.00917526 -0.00430001 0.00833776
v -0.00901695 -0.00401907 0.00863640
v -0.00903551 -0.00322399 0.00896262
v -0.00951661 -0.00167737 0.00887930
v -0.00970954 -0.00167737 0.00866104
f 1 2 3
f 1 3 8
f 1 8 4
f 1 4 9
f 1 9 18
f 1 18 32
f 1 32 51
f 1 51 75
f 1 75 74
f 1 74 106
f 1 106 109
f 1 109 147
f 1 147 191
f 1 191 232
f 1 232 287
f 1 287 311
f 1 311 257
f 1 257 209
f 1 209 208
f 1 208 166
f 1 166 165
f 1 165 164
f 1 164 121
f 1 121 86
f 1 86 60
f 1 60 39
f 1 39 33
f 1 33 19
f 1 19 10
f 1 10 5
f 1 5 2
f 2 5 6
f 2 6 3
f 3 6 7
f 3 7 16
f 3 16 8
f 4 8 9
f 5 10 6
f 6 11 12
f 6 12 7
f 6 10 13
f 6 13 14
f 6 14 11
f 7 12 15
f 7 15 27
f 7 27 16
f 8 16 17
f 8 17 9
f 9 17 18
f 10 19 13
f 11 20 21
f 11 21 12
f 11 14 20
f 12 21 22
f 12 22 15
f 13 23 24
f 13 24 14
f 13 19 23
f 14 24 25
f 14 25 26
f 14 26 20
f 15 22 38
f 15 38 27
f 16 27 28
f 16 28 17
f 17 28 29
f 17 29 30
f 17 30 18
f 18 30 31
f 18 31 32
f 19 33 23
f 20 34 35
f 20 35 21
f 20 26 36
f 20 36 34
f 21 35 22
f 22 35 37
f 22 37 58
f 22 58 38
f 23 33 39
f 23 39 40
f 23 40 41
f 23 41 24
f 24 41 25
f 25 41 42
f 25 42 43
f 25 43 44
f 25 44 45
f 25 45 26
f 26 45 36
f 27 38 28
f 28 46 29
f 28 38 46
f 29 47 48
f 29 48 30
f 29 46 47
f 30 48 31
f 31 49 50
f 31 50 75
f 31 75 51
f 31 51 32
f 31 48 49
f 34 52 53
f 34 53 37
f 34 37 35
f 34 36 54
f 34 54 55
f 34 55 52
f 36 56 57
f 36 57 54
f 36 45 56
f 37 53 80
f 37 80 58
f 38 58 59
f 38 59 46
f 39 60 61
f 39 61 40
f 40 61 62
f 40 62 63
f 40 63 41
f 41 63 42
f 42 63 64
f 42 64 43
f 43 64 65
f 43 65 44
f 44 65 66
f 44 66 45
f 45 66 67
f 45 67 56
f 46 59 47
f 47 68 69
f 47 69 48
f 47 59 68
f 48 69 49
f 49 69 70
f 49 70 71
f 49 71 50
f 50 71 72
f 50 72 73
f 50 73 74
f 50 74 75
f 52 55 76
f 52 76 77
f 52 77 78
f 52 78 79
f 52 79 53
f 53 79 115
f 53 115 80
f 54 81 82
f 54 82 76
f 54 76 55
f 54 57 83
f 54 83 84
f 54 84 81
f 56 67 83
f 56 83 57
f 58 80 85
f 58 85 59
f 59 85 68
f 60 86 61
f 61 86 87
f 61 87 88
f 61 88 89
f 61 89 90
f 61 90 62
f 62 91 64
f 62 64 63
f 62 90 92
f 62 92 91
f 64 91 65
f 65 91 93
f 65 93 94
f 65 94 95
f 65 95 66
f 66 95 96
f 66 96 97
f 66 97 98
f 66 98 67
f 67 98 83
f 68 85 99
f 68 99 100
f 68 100 69
f 69 100 101
f 69 101 102
f 69 102 70
f 70 102 103
f 70 103 71
f 71 103 72
f 72 103 104
f 72 104 105
f 72 105 73
f 73 106 74
f 73 105 107
f 73 107 108
f 73 108 109
f 73 109 106
f 76 82 110
f 76 110 111
f 76 111 112
f 76 112 77
f 77 112 78
f 78 112 113
f 78 113 114
f 78 114 79
f 79 114 155
f 79 155 115
f 80 115 116
f 80 116 85
f 81 110 82
f 81 84 110
f 83 98 117
f 83 117 118
f 83 118 84
f 84 119 110
f 84 118 119
f 85 116 120
f 85 120 99
f 86 121 122
f 86 122 87
f 87 89 88
f 87 122 89
f 89 122 92
f 89 92 90
f 91 92 123
f 91 123 93
f 92 122 124
f 92 124 125
f 92 125 126
f 92 126 127
f 92 127 123
f 93 123 127
f 93 127 128
f 93 128 94
f 94 128 129
f 94 129 130
f 94 130 96
f 94 96 131
f 94 131 95
f 95 131 96
f 96 132 133
f 96 133 134
f 96 134 135
f 96 135 97
f 96 130 132
f 97 135 136
f 97 136 137
f 97 137 98
f 98 137 117
f 99 120 138
f 99 138 139
f 99 139 100
f 100 139 140
f 100 140 141
f 100 141 101
f 101 141 142
f 101 142 102
f 102 142 103
f 103 142 143
f 103 143 144
f 103 144 104
f 104 144 145
f 104 145 146
f 104 146 105
f 105 146 107
f 107 146 108
f 108 146 145
f 108 145 144
f 108 144 190
f 108 190 188
f 108 188 185
f 108 185 226
f 108 226 275
f 108 275 277
f 108 277 328
f 108 328 329
f 108 329 278
f 108 278 229
f 108 229 191
f 108 191 147
f 108 147 109
f 110 119 148
f 110 148 149
f 110 149 150
f 110 150 151
f 110 151 111
f 111 151 152
f 111 152 112
f 112 152 113
f 113 152 153
f 113 153 198
f 113 198 154
f 113 154 155
f 113 155 114
f 115 155 156
f 115 156 116
f 116 156 157
f 116 157 158
f 116 158 120
f 117 137 159
f 117 159 160
f 117 160 118
f 118 160 119
f 119 160 161
f 119 161 148
f 120 162 163
f 120 163 138
f 120 158 162
f 121 164 124
f 121 124 122
f 124 165 166
f 124 166 167
f 124 167 168
f 124 168 169
f 124 169 125
f 124 164 165
f 125 169 126
f 126 170 127
f 126 169 171
f 126 171 170
f 127 170 128
f 128 170 130
f 128 130 129
f 130 170 172
f 130 172 173
f 130 173 174
f 130 174 175
f 130 175 132
f 132 175 133
f 133 175 176
f 133 176 134
f 134 176 177
f 134 177 178
f 134 178 179
f 134 179 180
f 134 180 181
f 134 181 135
f 135 181 136
f 136 181 182
f 136 182 137
f 137 182 159
f 138 163 139
f 139 163 140
f 140 163 183
f 140 183 141
f 141 184 142
f 141 183 185
f 141 185 184
f 142 184 186
f 142 186 187
f 142 187 188
f 142 188 143
f 143 188 189
f 143 189 144
f 144 189 190
f 148 192 193
f 148 193 150
f 148 150 149
f 148 161 205
f 148 205 192
f 150 194 152
f 150 152 151
f 150 193 194
f 152 194 195
f 152 195 196
f 152 196 153
f 153 196 197
f 153 197 241
f 153 241 198
f 154 198 199
f 154 199 200
f 154 200 156
f 154 156 155
f 156 200 157
f 157 200 158
f 158 201 162
f 158 200 201
f 159 182 179
f 159 179 178
f 159 178 202
f 159 202 203
f 159 203 204
f 159 204 205
f 159 205 161
f 159 161 160
f 162 201 206
f 162 206 207
f 162 207 163
f 163 207 183
f 166 208 167
f 167 208 209
f 167 209 168
f 168 209 210
f 168 210 211
f 168 211 169
f 169 212 213
f 169 213 170
f 169 170 171
f 169 211 212
f 170 213 214
f 170 214 172
f 172 214 215
f 172 215 173
f 173 215 216
f 173 216 174
f 174 217 218
f 174 218 219
f 174 219 175
f 174 216 220
f 174 220 221
f 174 221 217
f 175 219 176
f 176 219 177
f 177 219 222
f 177 222 202
f 177 202 178
f 179 182 181
f 179 181 180
f 183 223 224
f 183 224 225
f 183 225 185
f 183 207 223
f 184 185 186
f 185 188 187
f 185 187 186
f 185 225 227
f 185 227 228
f 185 228 226
f 188 190 189
f 191 229 230
f 191 230 231
f 191 231 232
f 192 233 193
f 192 205 233
f 193 233 234
f 193 234 194
f 194 234 235
f 194 235 236
f 194 236 237
f 194 237 238
f 194 238 239
f 194 239 195
f 195 239 196
f 196 239 240
f 196 240 197
f 197 240 295
f 197 295 241
f 198 241 242
f 198 242 199
f 199 242 243
f 199 243 244
f 199 244 201
f 199 201 200
f 201 244 245
f 201 245 246
f 201 246 206
f 202 222 247
f 202 247 248
f 202 248 249
f 202 249 250
f 202 250 203
f 203 250 251
f 203 251 204
f 204 252 205
f 204 251 252
f 205 252 253
f 205 253 233
f 206 246 254
f 206 254 255
f 206 255 207
f 207 255 256
f 207 256 223
f 209 257 210
f 210 257 258
f 210 258 311
f 210 311 287
f 210 287 231
f 210 231 286
f 210 286 336
f 210 336 335
f 210 335 406
f 210 406 470
f 210 470 527
f 210 527 590
f 210 590 648
f 210 648 689
f 210 689 696
f 210 696 695
f 210 695 704
f 210 704 702
f 210 702 667
f 210 667 619
f 210 619 666
f 210 666 622
f 210 622 559
f 210 559 495
f 210 495 494
f 210 494 493
f 210 493 558
f 210 558 569
f 210 569 505
f 210 505 442
f 210 442 441
f 210 441 440
f 210 440 439
f 210 439 371
f 210 371 370
f 210 370 368
f 210 368 315
f 210 315 367
f 210 367 366
f 210 366 312
f 210 312 259
f 210 259 211
f 211 259 260
f 211 260 261
f 211 261 212
f 212 261 260
f 212 260 213
f 213 260 214
f 214 260 262
f 214 262 215
f 215 262 216
f 216 262 263
f 216 263 264
f 216 264 265
f 216 265 220
f 217 219 218
f 217 221 266
f 217 266 267
f 217 267 219
f 219 267 268
f 219 268 269
f 219 269 222
f 220 266 221
f 220 265 266
f 222 269 270
f 222 270 271
f 222 271 247
f 223 272 273
f 223 273 224
f 223 256 272
f 224 273 274
f 224 274 227
f 224 227 225
f 226 228 275
f 227 274 228
f 228 276 277
f 228 277 275
f 228 274 273
f 228 273 272
f 228 272 276
f 229 278 333
f 229 333 279
f 229 279 280
f 229 280 281
f 229 281 282
f 229 282 283
f 229 283 284
f 229 284 285
f 229 285 230
f 230 285 231
f 231 287 232
f 231 285 286
f 233 253 288
f 233 288 234
f 234 288 289
f 234 289 290
f 234 290 235
f 235 290 291
f 235 291 236
f 236 291 292
f 236 292 293
f 236 293 294
f 236 294 237
f 237 294 239
f 237 239 238
f 239 294 240
f 240 294 348
f 240 348 295
f 241 295 242
f 242 296 243
f 242 295 296
f 243 297 298
f 243 298 244
f 243 296 299
f 243 299 297
f 244 298 245
f 245 298 246
f 246 300 309
f 246 309 254
f 246 298 300
f 247 271 301
f 247 301 248
f 248 302 303
f 248 303 249
f 248 301 302
f 249 303 304
f 249 304 305
f 249 305 250
f 250 305 306
f 250 306 251
f 251 306 252
f 252 307 288
f 252 288 253
f 252 306 304
f 252 304 308
f 252 308 307
f 254 309 256
f 254 256 255
f 256 310 276
f 256 276 272
f 256 309 310
f 257 311 258
f 259 312 260
f 260 312 313
f 260 313 314
f 260 314 262
f 262 314 263
f 263 314 315
f 263 315 264
f 264 315 316
f 264 316 317
f 264 317 265
f 265 317 318
f 265 318 266
f 266 318 267
f 267 319 268
f 267 318 317
f 267 317 320
f 267 320 319
f 268 319 321
f 268 321 269
f 269 321 270
f 270 321 322
f 270 322 271
f 271 322 323
f 271 323 324
f 271 324 325
f 271 325 302
f 271 302 326
f 271 326 301
f 276 327 328
f 276 328 277
f 276 310 327
f 278 329 330
f 278 330 331
f 278 331 332
f 278 332 333
f 279 333 405
f 279 405 469
f 279 469 526
f 279 526 589
f 279 589 593
f 279 593 528
f 279 528 470
f 279 470 406
f 279 406 334
f 279 334 280
f 280 334 335
f 280 335 281
f 281 335 282
f 282 335 336
f 282 336 283
f 283 336 284
f 284 336 286
f 284 286 285
f 288 307 289
f 289 337 338
f 289 338 290
f 289 307 339
f 289 339 340
f 289 340 337
f 290 338 341
f 290 341 291
f 291 341 342
f 291 342 292
f 292 343 344
f 292 344 293
f 292 342 345
f 292 345 343
f 293 344 346
f 293 346 414
f 293 414 347
f 293 347 348
f 293 348 294
f 295 348 296
f 296 348 299
f 297 299 349
f 297 349 350
f 297 350 298
f 298 350 300
f 299 351 352
f 299 352 349
f 299 348 347
f 299 347 351
f 300 350 309
f 301 326 302
f 302 325 353
f 302 353 354
f 302 354 355
f 302 355 356
f 302 356 303
f 303 356 304
f 304 357 308
f 304 306 305
f 304 356 357
f 307 308 339
f 308 358 339
f 308 357 358
f 309 350 359
f 309 359 360
f 309 360 361
f 309 361 362
f 309 362 363
f 309 363 310
f 310 363 364
f 310 364 365
f 310 365 327
f 312 366 314
f 312 314 313
f 314 366 367
f 314 367 315
f 315 368 316
f 316 369 317
f 316 368 370
f 316 370 371
f 316 371 369
f 317 369 372
f 317 372 373
f 317 373 320
f 319 374 375
f 319 375 321
f 319 320 374
f 320 373 376
f 320 376 374
f 321 375 322
f 322 375 374
f 322 374 377
f 322 377 323
f 323 377 378
f 323 378 324
f 324 378 379
f 324 379 380
f 324 380 353
f 324 353 325
f 327 365 381
f 327 381 382
f 327 382 383
f 327 383 329
f 327 329 328
f 329 383 382
f 329 382 384
f 329 384 385
f 329 385 386
f 329 386 387
f 329 387 388
f 329 388 389
f 329 389 390
f 329 390 391
f 329 391 392
f 329 392 393
f 329 393 394
f 329 394 395
f 329 395 396
f 329 396 397
f 329 397 398
f 329 398 399
f 329 399 330
f 330 399 400
f 330 400 401
f 330 401 402
f 330 402 331
f 331 402 403
f 331 403 332
f 332 403 404
f 332 404 333
f 333 404 405
f 334 406 335
f 337 340 407
f 337 407 345
f 337 345 342
f 337 342 341
f 337 341 338
f 339 358 408
f 339 408 340
f 340 408 407
f 343 409 344
f 343 345 410
f 343 410 409
f 344 409 411
f 344 411 346
f 345 412 410
f 345 407 412
f 346 411 413
f 346 413 482
f 346 482 414
f 347 414 415
f 347 415 351
f 349 352 416
f 349 416 350
f 350 417 418
f 350 418 419
f 350 419 360
f 350 360 359
f 350 416 417
f 351 415 420
f 351 420 421
f 351 421 352
f 352 421 422
f 352 422 416
f 353 423 354
f 353 380 424
f 353 424 425
f 353 425 423
f 354 426 355
f 354 423 426
f 355 426 427
f 355 427 428
f 355 428 356
f 356 428 357
f 357 428 427
f 357 427 429
f 357 429 430
f 357 430 358
f 358 430 408
f 360 419 361
f 361 419 418
f 361 418 431
f 361 431 432
f 361 432 433
f 361 433 434
f 361 434 435
f 361 435 436
f 361 436 362
f 362 436 363
f 363 436 435
f 363 435 364
f 364 435 365
f 365 437 438
f 365 438 381
f 365 435 437
f 369 371 439
f 369 439 372
f 372 439 440
f 372 440 441
f 372 441 373
f 373 441 442
f 373 442 443
f 373 443 444
f 373 444 445
f 373 445 376
f 374 378 377
f 374 376 445
f 374 445 446
f 374 446 378
f 378 446 445
f 378 445 447
f 378 447 448
f 378 448 424
f 378 424 379
f 379 424 380
f 381 438 449
f 381 449 382
f 382 449 450
f 382 450 384
f 384 450 385
f 385 450 451
f 385 451 386
f 386 451 387
f 387 451 452
f 387 452 453
f 387 453 388
f 388 453 454
f 388 454 389
f 389 454 390
f 390 454 455
f 390 455 391
f 391 455 392
f 392 455 456
f 392 456 393
f 393 456 457
f 393 457 394
f 394 457 458
f 394 458 395
f 395 458 396
f 396 458 400
f 396 400 397
f 397 400 398
f 398 400 399
f 400 458 459
f 400 459 401
f 401 459 402
f 402 404 403
f 402 459 460
f 402 460 461
f 402 461 462
f 402 462 463
f 402 463 464
f 402 464 404
f 404 464 465
f 404 465 466
f 404 466 405
f 405 466 467
f 405 467 468
f 405 468 469
f 407 408 471
f 407 471 412
f 408 430 429
f 408 429 472
f 408 472 473
f 408 473 474
f 408 474 471
f 409 410 475
f 409 475 476
f 409 476 411
f 410 412 477
f 410 477 475
f 411 476 478
f 411 478 479
f 411 479 480
f 411 480 413
f 412 471 481
f 412 481 477
f 413 480 542
f 413 542 482
f 414 482 483
f 414 483 415
f 415 483 484
f 415 484 420
f 416 422 417
f 417 422 418
f 418 485 431
f 418 422 485
f 420 484 486
f 420 486 421
f 421 486 487
f 421 487 422
f 422 487 485
f 423 425 488
f 423 488 489
f 423 489 426
f 424 490 491
f 424 491 425
f 424 448 492
f 424 492 493
f 424 493 494
f 424 494 495
f 424 495 496
f 424 496 497
f 424 497 490
f 425 491 488
f 426 489 498
f 426 498 427
f 427 498 429
f 429 498 499
f 429 499 500
f 429 500 472
f 431 485 432
f 432 501 502
f 432 502 503
f 432 503 433
f 432 485 501
f 433 503 434
f 434 503 504
f 434 504 449
f 434 449 438
f 434 438 437
f 434 437 435
f 442 505 443
f 443 505 444
f 444 506 445
f 444 505 506
f 445 506 448
f 445 448 447
f 448 506 492
f 449 504 450
f 450 504 451
f 451 504 507
f 451 507 452
f 452 507 503
f 452 503 508
f 452 508 453
f 453 508 509
f 453 509 455
f 453 455 454
f 455 509 456
f 456 509 457
f 457 509 510
f 457 510 511
f 457 511 512
f 457 512 513
f 457 513 459
f 457 459 458
f 459 513 512
f 459 512 460
f 460 512 461
f 461 512 514
f 461 514 515
f 461 515 516
f 461 516 517
f 461 517 462
f 462 517 518
f 462 518 519
f 462 519 463
f 463 519 520
f 463 520 521
f 463 521 464
f 464 521 465
f 465 521 466
f 466 521 522
f 466 522 467
f 467 522 523
f 467 523 468
f 468 523 524
f 468 524 469
f 469 524 525
f 469 525 586
f 469 586 526
f 470 528 529
f 470 529 527
f 471 474 481
f 472 500 530
f 472 530 473
f 473 531 474
f 473 530 531
f 474 531 532
f 474 532 533
f 474 533 481
f 475 477 534
f 475 534 476
f 476 534 478
f 477 535 534
f 477 481 535
f 478 534 479
f 479 536 537
f 479 537 538
f 479 538 539
f 479 539 540
f 479 540 480
f 479 534 541
f 479 541 536
f 480 540 604
f 480 604 542
f 481 533 535
f 482 542 483
f 483 542 543
f 483 543 544
f 483 544 484
f 484 544 545
f 484 545 546
f 484 546 486
f 485 487 501
f 486 547 548
f 486 548 549
f 486 549 487
f 486 546 547
f 487 549 501
f 488 491 550
f 488 550 551
f 488 551 552
f 488 552 553
f 488 553 489
f 489 554 498
f 489 553 554
f 490 555 550
f 490 550 491
f 490 497 556
f 490 556 557
f 490 557 555
f 492 506 558
f 492 558 493
f 495 559 560
f 495 560 496
f 496 560 497
f 497 560 556
f 498 554 561
f 498 561 499
f 499 561 562
f 499 562 563
f 499 563 564
f 499 564 565
f 499 565 566
f 499 566 500
f 500 566 532
f 500 532 530
f 501 567 568
f 501 568 508
f 501 508 502
f 501 549 567
f 502 508 503
f 503 507 504
f 505 569 506
f 506 569 558
f 508 568 509
f 509 568 570
f 509 570 571
f 509 571 572
f 509 572 510
f 510 572 573
f 510 573 511
f 511 573 574
f 511 574 575
f 511 575 514
f 511 514 512
f 514 575 515
f 515 575 576
f 515 576 516
f 516 577 520
f 516 520 519
f 516 519 518
f 516 518 517
f 516 576 577
f 520 578 521
f 520 577 579
f 520 579 580
f 520 580 581
f 520 581 582
f 520 582 578
f 521 578 583
f 521 583 522
f 522 583 523
f 523 583 584
f 523 584 524
f 524 584 585
f 524 585 525
f 525 585 641
f 525 641 586
f 526 586 587
f 526 587 588
f 526 588 589
f 527 529 591
f 527 591 592
f 527 592 590
f 528 593 529
f 529 593 594
f 529 594 591
f 530 532 531
f 532 566 565
f 532 565 533
f 533 595 535
f 533 565 596
f 533 596 595
f 534 535 541
f 535 595 541
f 536 541 597
f 536 597 598
f 536 598 537
f 537 599 600
f 537 600 601
f 537 601 538
f 537 598 599
f 538 601 663
f 538 663 602
f 538 602 603
f 538 603 539
f 539 603 604
f 539 604 540
f 541 595 597
f 542 604 543
f 543 605 545
f 543 545 544
f 543 604 603
f 543 603 602
f 543 602 606
f 543 606 607
f 543 607 608
f 543 608 605
f 545 605 609
f 545 609 547
f 545 547 546
f 547 609 548
f 548 609 610
f 548 610 611
f 548 611 549
f 549 611 567
f 550 555 551
f 551 555 612
f 551 612 552
f 552 612 613
f 552 613 614
f 552 614 553
f 553 614 554
f 554 614 561
f 555 615 612
f 555 557 615
f 556 616 557
f 556 560 617
f 556 617 618
f 556 618 616
f 557 616 619
f 557 619 620
f 557 620 621
f 557 621 615
f 559 622 560
f 560 622 617
f 561 614 612
f 561 612 623
f 561 623 624
f 561 624 562
f 562 624 563
f 563 625 626
f 563 626 627
f 563 627 628
f 563 628 629
f 563 629 564
f 563 624 630
f 563 630 631
f 563 631 632
f 563 632 633
f 563 633 625
f 564 629 634
f 564 634 565
f 565 634 596
f 567 611 570
f 567 570 568
f 570 611 610
f 570 610 571
f 571 610 635
f 571 635 572
f 572 635 636
f 572 636 573
f 573 636 574
f 574 636 576
f 574 576 575
f 576 637 577
f 576 636 637
f 577 637 608
f 577 608 579
f 578 582 583
f 579 607 580
f 579 608 607
f 580 607 606
f 580 606 581
f 581 606 638
f 581 638 639
f 581 639 582
f 582 639 583
f 583 639 584
f 584 639 640
f 584 640 585
f 585 640 661
f 585 661 641
f 586 641 587
f 587 641 642
f 587 642 643
f 587 643 588
f 588 643 644
f 588 644 589
f 589 645 646
f 589 646 647
f 589 647 593
f 589 644 645
f 590 592 649
f 590 649 650
f 590 650 648
f 591 594 647
f 591 647 651
f 591 651 652
f 591 652 592
f 592 652 649
f 593 647 594
f 595 596 653
f 595 653 654
f 595 654 597
f 596 634 653
f 597 655 656
f 597 656 598
f 597 654 657
f 597 657 655
f 598 656 658
f 598 658 599
f 599 659 660
f 599 660 600
f 599 658 656
f 599 656 659
f 600 660 661
f 600 661 601
f 601 661 662
f 601 662 683
f 601 683 663
f 602 663 606
f 605 608 609
f 606 663 638
f 608 637 609
f 609 637 635
f 609 635 610
f 612 614 613
f 612 615 623
f 615 621 664
f 615 664 623
f 616 618 665
f 616 665 619
f 617 622 618
f 618 622 665
f 619 665 666
f 619 667 668
f 619 668 620
f 620 669 621
f 620 668 670
f 620 670 669
f 621 669 671
f 621 671 672
f 621 672 664
f 622 666 665
f 623 664 624
f 624 673 630
f 624 664 673
f 625 633 632
f 625 632 674
f 625 674 626
f 626 675 676
f 626 676 628
f 626 628 627
f 626 674 677
f 626 677 678
f 626 678 675
f 628 679 629
f 628 676 680
f 628 680 679
f 629 679 681
f 629 681 653
f 629 653 634
f 630 673 664
f 630 664 631
f 631 664 632
f 632 664 682
f 632 682 674
f 635 637 636
f 638 663 640
f 638 640 639
f 640 683 662
f 640 662 661
f 640 663 683
f 641 661 660
f 641 660 642
f 642 660 684
f 642 684 643
f 643 685 644
f 643 684 685
f 644 685 645
f 645 686 687
f 645 687 646
f 645 685 686
f 646 687 688
f 646 688 675
f 646 675 651
f 646 651 647
f 648 650 689
f 649 652 651
f 649 651 690
f 649 690 650
f 650 690 691
f 650 691 692
f 650 692 693
f 650 693 694
f 650 694 695
f 650 695 696
f 650 696 689
f 651 675 678
f 651 678 690
f 653 681 654
f 654 681 697
f 654 697 657
f 655 657 698
f 655 698 699
f 655 699 700
f 655 700 656
f 656 700 701
f 656 701 659
f 657 697 698
f 659 701 684
f 659 684 660
f 664 672 682
f 667 702 668
f 668 703 670
f 668 702 704
f 668 704 703
f 669 692 671
f 669 670 705
f 669 705 692
f 670 703 694
f 670 694 705
f 671 706 682
f 671 682 672
f 671 692 706
f 674 682 677
f 675 688 700
f 675 700 699
f 675 699 680
f 675 680 676
f 677 682 706
f 677 706 690
f 677 690 678
f 679 680 697
f 679 697 681
f 680 699 707
f 680 707 708
f 680 708 697
f 684 701 686
f 684 686 685
f 686 700 688
f 686 688 687
f 686 701 700
f 690 706 692
f 690 692 691
f 692 705 693
f 693 705 694
f 694 703 704
f 694 704 695
f 697 708 698
f 698 708 707
f 698 707 699

