# https://github.com/mikedh/trimesh
v 0.02332338 -0.00410783 0.00904763
v 0.04450556 -0.00415069 0.00904763
v 0.04450556 -0.00415069 0.00775368
v 0.02322228 -0.00410783 0.00843201
v 0.01001880 -0.00410783 0.00904763
v 0.05133174 -0.00827760 0.00904763
v 0.05133174 -0.00827760 0.00718279
v 0.05133174 -0.00893499 0.00514128
v 0.04133106 -0.00415069 0.00514128
v 0.02056541 -0.00410783 0.00514128
v 0.02304839 -0.00410783 0.00781715
v 0.01348446 -0.00410783 0.00514128
v 0.01001880 -0.00430154 0.00904763
v 0.05133174 -0.01025063 0.00904763
v 0.05133174 -0.01036291 0.00514128
v 0.01348446 -0.00760906 0.00514128
v 0.01002285 -0.00496321 0.00904763
v 0.01348851 -0.00985208 0.00514128
v 0.05133174 -0.01035434 0.00843201
v 0.03897749 -0.01285534 0.00904763
v 0.05133174 -0.01036291 0.00777012
v 0.03897749 -0.01285962 0.00514128
v 0.01003094 -0.00628571 0.00904763
v 0.01349255 -0.01025491 0.00514128
v 0.03831428 -0.01286305 0.00904763
v 0.03897749 -0.01285619 0.00843201
v 0.03897749 -0.01285876 0.00644786
v 0.03897749 -0.01285962 0.00578597
v 0.03831428 -0.01286305 0.00514128
v 0.01004711 -0.00652398 0.00904763
v 0.01354512 -0.01091573 0.00514128
v 0.02440716 -0.01286391 0.00904763
v 0.02440716 -0.01286391 0.00514128
v 0.01011990 -0.00694567 0.00904763
v 0.01383629 -0.01146427 0.00514128
v 0.01349660 -0.01126457 0.00541965
v 0.01153124 -0.01124143 0.00810164
v 0.01843021 -0.01286391 0.00904763
v 0.01649316 -0.01286391 0.00514128
v 0.01139779 -0.01146941 0.00904763
v 0.01141397 -0.01140942 0.00854328
v 0.01462890 -0.01231622 0.00514128
v 0.01479875 -0.01260249 0.00533285
v 0.01450758 -0.01286219 0.00904763
v 0.01649316 -0.01286391 0.00843201
v 0.01582591 -0.01286391 0.00578597
v 0.01582591 -0.01286219 0.00514128
v 0.01284957 -0.01257507 0.00874632
v 0.01284552 -0.01257764 0.00904763
v 0.01294258 -0.01249193 0.00830430
v 0.01508587 -0.01269420 0.00514128
v 0.01338337 -0.01264192 0.00793377
v 0.01384842 -0.01286133 0.00904763
v 0.01516675 -0.01286391 0.00777012
v 0.01516675 -0.01286391 0.00710823
v 0.01516675 -0.01280134 0.00578597
v 0.01512631 -0.01270877 0.00514128
v 0.01384842 -0.01284334 0.00843201
v 0.01316904 -0.01267449 0.00848745
v 0.01313669 -0.01270449 0.00904763
v 0.01318117 -0.01272077 0.00904763
f 1 2 3
f 1 3 4
f 1 4 11
f 1 11 10
f 1 10 12
f 1 12 5
f 1 5 13
f 1 13 17
f 1 17 23
f 1 23 30
f 1 30 34
f 1 34 40
f 1 40 49
f 1 49 60
f 1 60 61
f 1 61 53
f 1 53 44
f 1 44 38
f 1 38 32
f 1 32 25
f 1 25 20
f 1 20 14
f 1 14 6
f 1 6 2
f 2 6 7
f 2 7 3
f 3 7 8
f 3 8 9
f 3 9 10
f 3 10 11
f 3 11 4
f 5 12 16
f 5 16 13
f 6 14 19
f 6 19 21
f 6 21 15
f 6 15 8
f 6 8 7
f 8 15 22
f 8 22 29
f 8 29 33
f 8 33 39
f 8 39 47
f 8 47 57
f 8 57 51
f 8 51 42
f 8 42 35
f 8 35 31
f 8 31 24
f 8 24 18
f 8 18 16
f 8 16 12
f 8 12 10
f 8 10 9
f 13 16 18
f 13 18 17
f 14 20 19
f 15 21 28
f 15 28 22
f 17 18 23
f 18 24 23
f 19 20 21
f 20 25 26
f 20 26 21
f 21 26 27
f 21 27 28
f 22 28 25
f 22 25 29
f 23 24 30
f 24 31 30
f 25 28 27
f 25 27 26
f 25 32 33
f 25 33 29
f 30 31 34
f 31 35 36
f 31 36 37
f 31 37 34
f 32 38 45
f 32 45 54
f 32 54 55
f 32 55 46
f 32 46 39
f 32 39 33
f 34 37 41
f 34 41 40
f 35 42 37
f 35 37 36
f 37 42 43
f 37 43 41
f 38 44 45
f 39 46 47
f 40 41 48
f 40 48 49
f 41 50 48
f 41 43 50
f 42 51 43
f 43 51 52
f 43 52 50
f 44 53 54
f 44 54 45
f 46 55 47
f 47 56 57
f 47 55 53
f 47 53 58
f 47 58 56
f 48 50 52
f 48 52 59
f 48 59 60
f 48 60 49
f 51 57 52
f 52 57 59
f 53 55 54
f 53 61 58
f 56 58 57
f 57 58 59
f 58 61 59
f 59 61 60

