# https://github.com/mikedh/trimesh
v 0.01962627 -0.05239993 0.00276132
v 0.01904716 -0.05212138 0.00276132
v 0.01962627 -0.04141486 0.00276132
v 0.01962627 -0.05204304 0.00378050
v 0.01547555 -0.04545896 0.02200322
v 0.01528435 -0.04544330 0.02200322
v 0.01403099 -0.04532318 0.02200322
v 0.01277763 -0.04519435 0.02200322
v 0.01195975 -0.04510382 0.02200322
v 0.01152428 -0.04505334 0.02200322
v 0.01108240 -0.04491581 0.02200322
v 0.01849459 -0.05182891 0.00276132
v 0.01152519 -0.04115024 0.00276132
v 0.01028007 -0.04094656 0.00276509
v 0.01962627 -0.03815416 0.00419118
v 0.01962627 -0.05189681 0.00415350
v 0.01547555 -0.04089782 0.02200322
v 0.01962627 -0.05177668 0.00443420
v 0.01962627 -0.04578103 0.01701284
v 0.01108240 -0.04082992 0.02200322
v 0.01028007 -0.04466512 0.01701284
v 0.01692927 -0.05079656 0.00276132
v 0.01786791 -0.05143199 0.00276132
v 0.01794750 -0.05148421 0.00276132
v 0.01028007 -0.04327588 0.00276132
v 0.01277855 -0.03525731 0.00932286
v 0.01399988 -0.03511977 0.00892347
v 0.01439785 -0.03549233 0.00837338
v 0.01962627 -0.03784602 0.00434754
v 0.01028007 -0.04093089 0.01152699
v 0.01189022 -0.03513370 0.01278919
v 0.01189113 -0.03513718 0.01153829
v 0.01199085 -0.03529212 0.01028552
v 0.01210978 -0.03548884 0.00960544
v 0.01472079 -0.03620261 0.02200322
v 0.01962627 -0.04189535 0.01701284
v 0.01164321 -0.03620261 0.02200322
v 0.01028007 -0.04092741 0.01700718
v 0.01028007 -0.04345171 0.01701284
v 0.01028007 -0.04467208 0.00276132
v 0.01558716 -0.04966497 0.00276132
v 0.01630533 -0.05029344 0.00276132
v 0.01277855 -0.03478552 0.01028552
v 0.01403099 -0.03461491 0.01028552
v 0.01528343 -0.03494220 0.00903462
v 0.01962627 -0.03494220 0.00903462
v 0.01028007 -0.04092915 0.01277600
v 0.01277855 -0.03462710 0.01278919
v 0.01277855 -0.03463058 0.01153829
v 0.01188930 -0.03513196 0.01701284
v 0.01451037 -0.03544358 0.02200322
v 0.01962627 -0.03529735 0.01104660
v 0.01172738 -0.03583877 0.02200322
v 0.01028007 -0.04092741 0.01653810
v 0.01189662 -0.03514066 0.02200322
v 0.01188930 -0.03513196 0.02156805
v 0.01277763 -0.03462536 0.01701284
v 0.01277763 -0.03462536 0.02156805
v 0.01962627 -0.03479074 0.01028552
v 0.01409686 -0.03506233 0.02200322
v 0.01962627 -0.03506233 0.01069432
v 0.01277763 -0.03463406 0.02200322
f 1 2 12
f 1 12 24
f 1 24 23
f 1 23 22
f 1 22 42
f 1 42 41
f 1 41 40
f 1 40 25
f 1 25 13
f 1 13 3
f 1 3 15
f 1 15 29
f 1 29 46
f 1 46 59
f 1 59 61
f 1 61 52
f 1 52 36
f 1 36 19
f 1 19 18
f 1 18 16
f 1 16 4
f 1 4 5
f 1 5 6
f 1 6 7
f 1 7 8
f 1 8 9
f 1 9 10
f 1 10 11
f 1 11 2
f 2 11 12
f 3 13 14
f 3 14 15
f 4 16 5
f 5 17 35
f 5 35 51
f 5 51 60
f 5 60 62
f 5 62 55
f 5 55 53
f 5 53 37
f 5 37 20
f 5 20 11
f 5 11 10
f 5 10 9
f 5 9 8
f 5 8 7
f 5 7 6
f 5 16 18
f 5 18 19
f 5 19 36
f 5 36 17
f 11 20 39
f 11 39 21
f 11 21 22
f 11 22 23
f 11 23 24
f 11 24 12
f 13 25 14
f 14 26 27
f 14 27 28
f 14 28 29
f 14 29 15
f 14 25 40
f 14 40 21
f 14 21 39
f 14 39 38
f 14 38 54
f 14 54 47
f 14 47 30
f 14 30 31
f 14 31 32
f 14 32 33
f 14 33 34
f 14 34 26
f 17 36 35
f 20 37 38
f 20 38 39
f 21 40 41
f 21 41 42
f 21 42 22
f 26 34 43
f 26 43 27
f 27 43 44
f 27 44 45
f 27 45 29
f 27 29 28
f 29 45 46
f 30 47 31
f 31 48 49
f 31 49 32
f 31 47 50
f 31 50 57
f 31 57 48
f 32 49 43
f 32 43 33
f 33 43 34
f 35 36 51
f 36 52 51
f 37 53 38
f 38 53 55
f 38 55 56
f 38 56 50
f 38 50 54
f 43 49 44
f 44 49 48
f 44 48 57
f 44 57 58
f 44 58 59
f 44 59 46
f 44 46 45
f 47 54 50
f 50 56 58
f 50 58 57
f 51 52 61
f 51 61 59
f 51 59 60
f 55 62 56
f 56 62 58
f 58 62 59
f 59 62 60

