# https://github.com/mikedh/trimesh
v 0.05025323 -0.00720047 -0.00106967
v 0.05023953 -0.00795060 -0.00106967
v 0.05022125 -0.00795060 -0.00137145
v 0.05023039 -0.00737674 -0.00137145
v 0.05023039 -0.00720047 -0.00137145
v 0.00714900 -0.00720047 -0.00106967
v 0.05022125 -0.00825256 -0.00106967
v 0.05017557 -0.00852497 -0.00137145
v 0.05012074 -0.00852497 -0.00194533
v 0.05016186 -0.00795060 -0.00194533
v 0.05017557 -0.00737674 -0.00194533
v 0.05017557 -0.00720047 -0.00194533
v 0.00714900 -0.00720047 -0.00261657
v 0.00487386 -0.00893559 -0.00106967
v 0.05019841 -0.00852497 -0.00106967
v 0.05014359 -0.00882643 -0.00106967
v 0.05004308 -0.00896964 -0.00194533
v 0.05002023 -0.00888451 -0.00236112
v 0.05002023 -0.00858807 -0.00261657
v 0.05003851 -0.00851746 -0.00253919
v 0.05007962 -0.00795060 -0.00251935
v 0.05008876 -0.00737674 -0.00251935
v 0.05007506 -0.00724053 -0.00261657
v 0.05007506 -0.00720047 -0.00261657
v 0.00487386 -0.00893559 -0.00261657
v 0.00456777 -0.00917395 -0.00261657
v 0.00450838 -0.00922253 -0.00106967
v 0.05008420 -0.00911186 -0.00106967
v 0.04998369 -0.00933219 -0.00149077
v 0.04996084 -0.00925658 -0.00194533
v 0.04993343 -0.00908482 -0.00253919
v 0.04999739 -0.00876383 -0.00261657
v 0.05002937 -0.00846839 -0.00261657
v 0.05006135 -0.00795060 -0.00261657
v 0.05006592 -0.00781289 -0.00261657
v 0.05003394 -0.00839477 -0.00261657
v 0.00450838 -0.00922253 -0.00261657
v 0.00445813 -0.00928712 -0.00261657
v 0.00437132 -0.00940330 -0.00106967
v 0.05000196 -0.00939529 -0.00106967
v 0.05000196 -0.00939128 -0.00110813
v 0.04979637 -0.00967270 -0.00194533
v 0.04971871 -0.00967270 -0.00251935
v 0.04973698 -0.00957556 -0.00261657
v 0.04991516 -0.00908682 -0.00261657
v 0.00422056 -0.00960360 -0.00261657
v 0.00422056 -0.00960360 -0.00106967
v 0.04994714 -0.00952448 -0.00106967
v 0.04988318 -0.00966419 -0.00106967
v 0.04954511 -0.01016896 -0.00194533
v 0.04950856 -0.01010636 -0.00251935
v 0.04970044 -0.00967270 -0.00261657
v 0.04949942 -0.01009134 -0.00261657
v 0.00402411 -0.00989003 -0.00261657
v 0.00402411 -0.00989003 -0.00106967
v 0.04957709 -0.01021252 -0.00137145
v 0.04957252 -0.01025859 -0.00106967
v 0.04937150 -0.01045589 -0.00194533
v 0.04933039 -0.01039379 -0.00251935
v 0.04947201 -0.01013991 -0.00261657
v 0.00379112 -0.01024607 -0.00261657
v 0.00379112 -0.01024607 -0.00106967
v 0.04949485 -0.01039079 -0.00106967
v 0.04939891 -0.01049945 -0.00137145
v 0.04903800 -0.01086651 -0.00190656
v 0.04904714 -0.01076736 -0.00251935
v 0.04932125 -0.01037827 -0.00261657
v 0.04903800 -0.01075684 -0.00261657
v 0.00375457 -0.01034322 -0.00261657
v 0.00369061 -0.01051848 -0.00106967
v 0.04941262 -0.01051999 -0.00106967
v 0.04883241 -0.01108885 -0.00207191
v 0.04912937 -0.01082044 -0.00137145
v 0.04879587 -0.01105479 -0.00251935
v 0.04878673 -0.01104428 -0.00261657
v 0.00358553 -0.01082044 -0.00261657
v 0.00358096 -0.01082044 -0.00106967
v 0.04917962 -0.01079390 -0.00106967
v 0.04885069 -0.01111038 -0.00168943
v 0.04860856 -0.01128614 -0.00190656
v 0.04850805 -0.01129566 -0.00251935
v 0.04849891 -0.01128815 -0.00261657
v 0.00359467 -0.01091759 -0.00261657
v 0.00364949 -0.01139431 -0.00261657
v 0.00361294 -0.01109235 -0.00106967
v 0.04887810 -0.01113341 -0.00106967
v 0.04873647 -0.01124959 -0.00106967
v 0.04856287 -0.01136626 -0.00137145
v 0.04820195 -0.01163818 -0.00137145
v 0.04816540 -0.01161564 -0.00194533
v 0.04811972 -0.01158259 -0.00251935
v 0.04843495 -0.01133672 -0.00261657
v 0.00369061 -0.01148194 -0.00261657
v 0.00364949 -0.01139431 -0.00106967
v 0.04856287 -0.01138629 -0.00106967
v 0.04839383 -0.01151549 -0.00106967
v 0.04821566 -0.01164669 -0.00106967
v 0.04791414 -0.01179191 -0.00137145
v 0.04788216 -0.01177488 -0.00194533
v 0.04783190 -0.01175235 -0.00251935
v 0.04811058 -0.01157508 -0.00261657
v 0.04782276 -0.01174734 -0.00261657
v 0.00390990 -0.01191309 -0.00106967
v 0.00377284 -0.01164018 -0.00106967
v 0.00390990 -0.01191209 -0.00261657
v 0.00390990 -0.01191309 -0.00137145
v 0.04792784 -0.01179892 -0.00106967
v 0.04741616 -0.01200974 -0.00137145
v 0.04741616 -0.01198270 -0.00194533
v 0.04741616 -0.01194614 -0.00251935
v 0.04776337 -0.01177688 -0.00261657
v 0.00408350 -0.01206432 -0.00106967
v 0.00424340 -0.01219902 -0.00261657
v 0.04769028 -0.01190207 -0.00106967
v 0.04741616 -0.01202075 -0.00106967
v 0.04684053 -0.01217298 -0.00194533
v 0.04684053 -0.01214995 -0.00251935
v 0.04684053 -0.01214344 -0.00261657
v 0.04731566 -0.01197468 -0.00261657
v 0.04741616 -0.01193813 -0.00261657
v 0.00424340 -0.01220052 -0.00106967
v 0.00453122 -0.01228515 -0.00261657
v 0.04712834 -0.01210788 -0.00106967
v 0.04682225 -0.01219602 -0.00106967
v 0.04678570 -0.01219952 -0.00139431
v 0.04654814 -0.01225461 -0.00160085
v 0.04652073 -0.01225210 -0.00194533
v 0.04644763 -0.01224259 -0.00251935
v 0.04643392 -0.01223958 -0.00261657
v 0.00453122 -0.01228515 -0.00106967
v 0.00494239 -0.01231570 -0.00261657
v 0.00474594 -0.01230118 -0.00106967
v 0.04656184 -0.01225711 -0.00106967
v 0.04655728 -0.01225661 -0.00121821
v 0.04629230 -0.01228265 -0.00106967
v 0.04631971 -0.01227714 -0.00139431
v 0.04623748 -0.01227864 -0.00194533
v 0.04615981 -0.01227364 -0.00251935
v 0.04614611 -0.01227263 -0.00261657
v 0.00494239 -0.01231570 -0.00106967
v 0.04502225 -0.01231570 -0.00261657
v 0.04645677 -0.01226713 -0.00106967
v 0.04599535 -0.01229917 -0.00106967
v 0.04569382 -0.01230869 -0.00194533
v 0.04569382 -0.01230368 -0.00251935
v 0.04569382 -0.01230268 -0.00261657
v 0.04608215 -0.01227764 -0.00261657
v 0.04511819 -0.01231570 -0.00106967
v 0.04511819 -0.01231520 -0.00261657
v 0.04511819 -0.01231570 -0.00251935
v 0.04569382 -0.01231320 -0.00106967
v 0.04569382 -0.01231219 -0.00137145
v 0.04559331 -0.01230568 -0.00261657
v 0.04541971 -0.01231470 -0.00106967
f 1 2 3
f 1 3 4
f 1 4 5
f 1 5 12
f 1 12 24
f 1 24 13
f 1 13 6
f 1 6 14
f 1 14 27
f 1 27 39
f 1 39 47
f 1 47 55
f 1 55 62
f 1 62 70
f 1 70 77
f 1 77 85
f 1 85 94
f 1 94 104
f 1 104 103
f 1 103 112
f 1 112 121
f 1 121 130
f 1 130 132
f 1 132 140
f 1 140 148
f 1 148 154
f 1 154 151
f 1 151 143
f 1 143 135
f 1 135 142
f 1 142 133
f 1 133 124
f 1 124 123
f 1 123 115
f 1 115 114
f 1 114 107
f 1 107 97
f 1 97 96
f 1 96 95
f 1 95 87
f 1 87 86
f 1 86 78
f 1 78 71
f 1 71 63
f 1 63 57
f 1 57 49
f 1 49 48
f 1 48 40
f 1 40 28
f 1 28 16
f 1 16 15
f 1 15 7
f 1 7 2
f 2 7 3
f 3 7 8
f 3 8 9
f 3 9 10
f 3 10 11
f 3 11 4
f 4 11 12
f 4 12 5
f 6 13 25
f 6 25 14
f 7 15 8
f 8 15 16
f 8 16 17
f 8 17 18
f 8 18 9
f 9 18 19
f 9 19 20
f 9 20 10
f 10 20 21
f 10 21 11
f 11 21 22
f 11 22 23
f 11 23 24
f 11 24 12
f 13 24 23
f 13 23 35
f 13 35 34
f 13 34 36
f 13 36 33
f 13 33 19
f 13 19 32
f 13 32 45
f 13 45 44
f 13 44 52
f 13 52 53
f 13 53 60
f 13 60 67
f 13 67 68
f 13 68 75
f 13 75 82
f 13 82 92
f 13 92 101
f 13 101 102
f 13 102 111
f 13 111 120
f 13 120 119
f 13 119 118
f 13 118 129
f 13 129 139
f 13 139 147
f 13 147 146
f 13 146 153
f 13 153 149
f 13 149 141
f 13 141 131
f 13 131 122
f 13 122 113
f 13 113 105
f 13 105 93
f 13 93 84
f 13 84 83
f 13 83 76
f 13 76 69
f 13 69 61
f 13 61 54
f 13 54 46
f 13 46 38
f 13 38 37
f 13 37 26
f 13 26 25
f 14 25 26
f 14 26 27
f 16 28 17
f 17 28 29
f 17 29 30
f 17 30 18
f 18 30 31
f 18 31 32
f 18 32 19
f 19 33 20
f 20 33 21
f 21 34 35
f 21 35 23
f 21 23 22
f 21 33 36
f 21 36 34
f 26 37 27
f 27 37 38
f 27 38 39
f 28 40 41
f 28 41 29
f 29 41 42
f 29 42 30
f 30 42 43
f 30 43 31
f 31 43 44
f 31 44 45
f 31 45 32
f 38 46 47
f 38 47 39
f 40 48 41
f 41 48 42
f 42 48 49
f 42 49 50
f 42 50 51
f 42 51 43
f 43 52 44
f 43 51 53
f 43 53 52
f 46 54 55
f 46 55 47
f 49 56 50
f 49 57 56
f 50 58 51
f 50 56 58
f 51 58 59
f 51 59 60
f 51 60 53
f 54 61 62
f 54 62 55
f 56 57 63
f 56 63 64
f 56 64 58
f 58 64 65
f 58 65 66
f 58 66 59
f 59 67 60
f 59 66 68
f 59 68 67
f 61 69 62
f 62 69 70
f 63 71 64
f 64 71 65
f 65 72 66
f 65 71 73
f 65 73 72
f 66 72 74
f 66 74 75
f 66 75 68
f 69 76 77
f 69 77 70
f 71 78 73
f 72 73 79
f 72 79 80
f 72 80 81
f 72 81 74
f 73 78 79
f 74 81 82
f 74 82 75
f 76 83 77
f 77 83 84
f 77 84 85
f 78 86 79
f 79 86 87
f 79 87 88
f 79 88 80
f 80 88 89
f 80 89 90
f 80 90 81
f 81 90 91
f 81 91 92
f 81 92 82
f 84 93 94
f 84 94 85
f 87 95 88
f 88 95 96
f 88 96 89
f 89 96 97
f 89 97 98
f 89 98 99
f 89 99 90
f 90 99 100
f 90 100 91
f 91 101 92
f 91 100 102
f 91 102 101
f 93 103 104
f 93 104 94
f 93 105 106
f 93 106 103
f 97 107 98
f 98 108 109
f 98 109 99
f 98 107 108
f 99 109 110
f 99 110 111
f 99 111 100
f 100 111 102
f 103 106 112
f 105 113 112
f 105 112 106
f 107 114 108
f 108 115 116
f 108 116 117
f 108 117 109
f 108 114 115
f 109 117 110
f 110 117 118
f 110 118 119
f 110 119 120
f 110 120 111
f 112 113 121
f 113 122 121
f 115 123 116
f 116 124 125
f 116 125 126
f 116 126 127
f 116 127 117
f 116 123 124
f 117 127 128
f 117 128 129
f 117 129 118
f 121 122 130
f 122 131 132
f 122 132 130
f 124 133 134
f 124 134 126
f 124 126 125
f 126 135 136
f 126 136 137
f 126 137 127
f 126 134 135
f 127 137 138
f 127 138 139
f 127 139 128
f 128 139 129
f 131 140 132
f 131 141 150
f 131 150 148
f 131 148 140
f 133 142 134
f 134 142 135
f 135 137 136
f 135 143 137
f 137 143 144
f 137 144 145
f 137 145 146
f 137 146 147
f 137 147 138
f 138 147 139
f 141 149 150
f 143 151 152
f 143 152 144
f 144 152 149
f 144 149 153
f 144 153 145
f 145 153 146
f 148 150 154
f 149 152 150
f 150 152 151
f 150 151 154

