# https://github.com/mikedh/trimesh
v -0.01076982 0.00287537 0.00314760
v -0.00714660 0.00193349 0.00265163
v -0.00714660 0.00206624 0.00258061
v -0.00714660 0.00207467 0.00257474
v -0.00714660 0.00219477 0.00248376
v -0.00714660 0.00235702 0.00235522
v -0.00714660 0.00248555 0.00219499
v -0.00714660 0.00258108 0.00206645
v -0.00714660 0.00265412 0.00193380
v -0.00714660 0.00275596 0.00167554
v -0.00714660 0.00281075 0.00141846
v -0.00714660 0.00281286 0.00140790
v -0.00714660 0.00283603 0.00126410
v -0.00714660 0.00283884 0.00113556
v -0.00714660 0.00284095 0.00090195
v -0.01023579 0.00287537 0.00143548
v -0.01240926 0.00287537 0.00314760
v -0.01065951 0.00167783 0.00314760
v -0.00714660 0.00090172 0.00284121
v -0.00714660 0.00115035 0.00283886
v -0.00714660 0.00127959 0.00283593
v -0.00714660 0.00141796 0.00281187
v -0.00714660 0.00167572 0.00275376
v -0.00714660 0.00169258 0.00274730
v -0.00714660 0.00284095 -0.00090231
v -0.01015058 0.00287537 -0.00116878
v -0.01016984 0.00287537 0.00116490
v -0.01241276 0.00287537 0.00313351
v -0.01245887 0.00263586 0.00314760
v -0.01034026 -0.00430001 0.00314760
v -0.00714660 -0.00090196 0.00284121
v -0.00714660 0.00283884 -0.00115058
v -0.01074472 0.00287537 -0.00284861
v -0.01023229 0.00287537 -0.00143877
v -0.01243669 0.00287537 0.00302434
v -0.01258902 0.00219196 0.00296623
v -0.01254875 0.00219196 0.00314760
v -0.01199546 -0.00430001 0.00314760
v -0.01042723 -0.00430001 -0.00284861
v -0.00714660 -0.00284120 -0.00090231
v -0.00714660 -0.00284120 0.00090195
v -0.00714660 -0.00283909 0.00115082
v -0.00714660 -0.00283628 0.00127936
v -0.00714660 -0.00281170 0.00141846
v -0.00714660 -0.00275340 0.00167554
v -0.00714660 -0.00274778 0.00169257
v -0.00714660 -0.00265156 0.00193380
v -0.00714660 -0.00264734 0.00194202
v -0.00714660 -0.00258062 0.00206645
v -0.00714660 -0.00257500 0.00207467
v -0.00714660 -0.00248369 0.00219499
v -0.00714660 -0.00235516 0.00235757
v -0.00714660 -0.00219502 0.00248553
v -0.00714660 -0.00206649 0.00258061
v -0.00714660 -0.00193374 0.00265398
v -0.00714660 -0.00167597 0.00275611
v -0.00714660 -0.00141820 0.00281128
v -0.00714660 -0.00126368 0.00283593
v -0.00714660 -0.00113585 0.00283886
v -0.00714660 0.00283603 -0.00127971
v -0.01247404 0.00287537 -0.00284861
v -0.00714660 0.00281145 -0.00141823
v -0.00714660 0.00275386 -0.00167590
v -0.00714660 0.00274754 -0.00169233
v -0.00714660 0.00265131 -0.00193357
v -0.00714660 0.00264710 -0.00194237
v -0.00714660 0.00258108 -0.00206621
v -0.00714660 0.00257475 -0.00207502
v -0.00714660 0.00248415 -0.00219534
v -0.00714660 0.00235491 -0.00235734
v -0.00714660 0.00219477 -0.00248529
v -0.00714660 0.00206624 -0.00258096
v -0.00714660 0.00193349 -0.00265374
v -0.00714660 0.00167572 -0.00275587
v -0.00714660 0.00141796 -0.00281104
v -0.00714660 0.00140812 -0.00281280
v -0.00714660 0.00126344 -0.00283628
v -0.00714660 0.00113560 -0.00283922
v -0.00714660 0.00090172 -0.00284098
v -0.01007296 0.00137090 -0.00284861
v -0.01246354 0.00287537 0.00289815
v -0.01272267 0.00213297 0.00238927
v -0.01270399 0.00203815 0.00256124
v -0.01259544 0.00193420 0.00314760
v -0.01200188 -0.00428316 0.00314760
v -0.01203690 -0.00430001 0.00296212
v -0.00998483 -0.00118150 -0.00284861
v -0.00714660 -0.00090196 -0.00284098
v -0.00714660 -0.00115060 -0.00283922
v -0.00714660 -0.00127913 -0.00283628
v -0.00714660 -0.00141820 -0.00281163
v -0.00714660 -0.00167597 -0.00275352
v -0.00714660 -0.00169212 -0.00274765
v -0.00714660 -0.00193374 -0.00265140
v -0.00714660 -0.00194217 -0.00264729
v -0.00714660 -0.00206649 -0.00258096
v -0.00714660 -0.00219502 -0.00248412
v -0.00714660 -0.00235727 -0.00235499
v -0.00714660 -0.00248580 -0.00219534
v -0.00714660 -0.00258062 -0.00206621
v -0.00714660 -0.00265366 -0.00193357
v -0.00714660 -0.00275551 -0.00167590
v -0.00714660 -0.00281100 -0.00141823
v -0.00714660 -0.00283628 -0.00126386
v -0.00714660 -0.00283909 -0.00113591
v -0.01206141 -0.00430001 -0.00284861
v -0.01261178 0.00287537 -0.00219241
v -0.01256100 0.00245044 -0.00284861
v -0.01272267 0.00213297 -0.00238903
v -0.00999709 0.00117494 -0.00284861
v -0.01000350 0.00120303 -0.00284861
v -0.01257676 0.00287537 0.00235933
v -0.01272267 0.00239354 0.00213395
v -0.01274485 0.00220812 0.00220849
v -0.01279679 0.00193420 0.00219205
v -0.01261178 0.00287537 0.00219205
v -0.01263454 0.00193420 0.00296623
v -0.01271683 0.00186607 0.00262287
v -0.01262929 0.00167572 0.00314760
v -0.01200713 -0.00426841 0.00314760
v -0.01219973 -0.00430001 0.00221964
v -0.01205149 -0.00425576 0.00296623
v -0.01218514 -0.00430001 -0.00228749
v -0.01207717 -0.00425576 -0.00284861
v -0.01265555 0.00287537 -0.00193885
v -0.01272267 0.00239354 -0.00213371
v -0.01270574 0.00256562 -0.00204215
v -0.01261353 0.00219196 -0.00284861
v -0.01270399 0.00203815 -0.00256101
v -0.01279679 0.00193420 -0.00219241
v -0.01274485 0.00220812 -0.00220884
v -0.01279562 0.00219196 0.00193439
v -0.01270574 0.00256562 0.00204180
v -0.01283998 0.00193420 0.00193439
v -0.01287208 0.00167572 0.00193439
v -0.01282831 0.00167572 0.00219205
v -0.01262695 0.00287537 0.00210577
v -0.01277520 0.00167572 0.00245031
v -0.01272851 0.00167572 0.00267628
v -0.01266781 0.00167572 0.00296623
v -0.01270750 0.00102604 0.00309301
v -0.01268999 0.00108222 0.00314760
v -0.01220498 -0.00363838 0.00314760
v -0.01221432 -0.00430001 0.00215097
v -0.01229370 -0.00348246 0.00296623
v -0.01244953 -0.00360959 0.00205940
v -0.01221432 -0.00430001 -0.00215073
v -0.01244953 -0.00360959 -0.00205917
v -0.01245770 -0.00337781 -0.00235734
v -0.01231879 -0.00348246 -0.00284861
v -0.01268648 0.00287537 -0.00167648
v -0.01279562 0.00219196 -0.00193415
v -0.01271625 0.00261971 -0.00187018
v -0.01265905 0.00193911 -0.00284861
v -0.01273843 0.00194473 -0.00246534
v -0.01271683 0.00186607 -0.00262322
v -0.01282831 0.00167572 -0.00219241
v -0.01287208 0.00167572 -0.00193415
v -0.01283998 0.00193420 -0.00193415
v -0.01282597 0.00219196 0.00167672
v -0.01265555 0.00287537 0.00193908
v -0.01271625 0.00261971 0.00187041
v -0.01287033 0.00193420 0.00167672
v -0.01290126 0.00167572 0.00167672
v -0.01296196 0.00099092 0.00176535
v -0.01297013 0.00081884 0.00184165
v -0.01292402 0.00116019 0.00193439
v -0.01290710 0.00090242 0.00219205
v -0.01280029 0.00090242 0.00270798
v -0.01273901 0.00092489 0.00299088
v -0.01271625 0.00085396 0.00313234
v -0.01271158 0.00086590 0.00314760
v -0.01225109 -0.00348808 0.00314760
v -0.01224992 -0.00430001 0.00193439
v -0.01232871 -0.00322399 0.00314760
v -0.01236899 -0.00322399 0.00296623
v -0.01245770 -0.00337781 0.00235640
v -0.01247521 -0.00343470 0.00219205
v -0.01253415 -0.00322399 0.00219205
v -0.01257851 -0.00322399 0.00193439
v -0.01249505 -0.00350634 0.00195786
v -0.01242385 -0.00373531 0.00195786
v -0.01234506 -0.00399800 0.00193439
v -0.01226393 -0.00425576 0.00193439
v -0.01224350 -0.00430001 -0.00198111
v -0.01242385 -0.00373531 -0.00195763
v -0.01249505 -0.00350634 -0.00195763
v -0.01257851 -0.00322399 -0.00193415
v -0.01253415 -0.00322399 -0.00219241
v -0.01247521 -0.00343470 -0.00219241
v -0.01234506 -0.00399800 -0.00193415
v -0.01243902 -0.00331178 -0.00252931
v -0.01239408 -0.00322469 -0.00284861
v -0.01271625 0.00287537 -0.00139182
v -0.01277345 0.00245044 -0.00167648
v -0.01282597 0.00219196 -0.00167648
v -0.01269232 0.00167572 -0.00284861
v -0.01272851 0.00167572 -0.00267663
v -0.01290710 0.00090242 -0.00219241
v -0.01292402 0.00116019 -0.00193415
v -0.01297013 0.00081884 -0.00184200
v -0.01296196 0.00099092 -0.00176570
v -0.01290126 0.00167572 -0.00167648
v -0.01287033 0.00193420 -0.00167648
v -0.01290652 0.00219196 0.00090254
v -0.01292402 0.00193420 0.00116080
v -0.01277345 0.00245044 0.00167672
v -0.01268648 0.00287537 0.00167672
v -0.01296254 0.00176844 0.00099469
v -0.01292869 0.00167572 0.00141846
v -0.01298005 0.00090382 0.00167789
v -0.01307810 0.00064395 0.00090254
v -0.01299873 0.00064395 0.00167672
v -0.01297597 0.00064395 0.00188391
v -0.01295963 0.00064395 0.00201245
v -0.01295029 0.00090382 0.00192969
v -0.01306001 0.00090242 0.00090254
v -0.01292578 0.00064395 0.00219205
v -0.01281955 0.00064395 0.00270798
v -0.01271975 0.00076124 0.00314760
v -0.01228027 -0.00430001 0.00167672
v -0.01229486 -0.00425576 0.00167672
v -0.01237249 -0.00304278 0.00314760
v -0.01244369 -0.00306385 0.00280717
v -0.01247988 -0.00322539 0.00244561
v -0.01243902 -0.00331178 0.00252896
v -0.01246178 -0.00314041 0.00263520
v -0.01259310 -0.00296552 0.00219205
v -0.01258376 -0.00320292 0.00193439
v -0.01260944 -0.00322399 0.00167672
v -0.01253707 -0.00348246 0.00167672
v -0.01246062 -0.00364611 0.00188743
v -0.01243319 -0.00381468 0.00167672
v -0.01224992 -0.00430001 -0.00193415
v -0.01226393 -0.00425576 -0.00193415
v -0.01246062 -0.00364611 -0.00188720
v -0.01253707 -0.00348246 -0.00167648
v -0.01260944 -0.00322399 -0.00167648
v -0.01258376 -0.00320292 -0.00193415
v -0.01243260 -0.00320292 -0.00269483
v -0.01259310 -0.00296552 -0.00219241
v -0.01246178 -0.00314041 -0.00263496
v -0.01227327 -0.00430001 -0.00174222
v -0.01243319 -0.00381468 -0.00167648
v -0.01242443 -0.00310529 -0.00284861
v -0.01276703 0.00287537 -0.00090231
v -0.01285399 0.00245044 -0.00090231
v -0.01292402 0.00193420 -0.00116056
v -0.01290652 0.00219196 -0.00090231
v -0.01276994 0.00091366 -0.00284861
v -0.01280029 0.00090242 -0.00270833
v -0.01295029 0.00090382 -0.00193063
v -0.01279037 0.00064395 -0.00284861
v -0.01292578 0.00064395 -0.00219241
v -0.01295963 0.00064395 -0.00201280
v -0.01297597 0.00064395 -0.00188367
v -0.01299873 0.00064395 -0.00167648
v -0.01307810 0.00064395 -0.00090231
v -0.01306001 0.00090242 -0.00090231
v -0.01298005 0.00090382 -0.00167825
v -0.01292869 0.00167572 -0.00141823
v -0.01296254 0.00176844 -0.00099563
v -0.01292578 0.00219196 0.00064429
v -0.01295904 0.00201075 0.00064429
v -0.01295029 0.00193139 0.00090606
v -0.01285399 0.00245044 0.00090254
v -0.01297072 0.00184289 0.00082272
v -0.01274193 0.00287537 0.00114377
v -0.01298064 0.00167924 0.00090606
v -0.01309678 0.00064395 0.00064429
v -0.01308452 0.00038688 0.00090254
v -0.01300515 0.00038688 0.00167672
v -0.01297889 0.00038688 0.00190739
v -0.01296254 0.00038688 0.00203593
v -0.01300748 0.00141866 0.00090254
v -0.01305243 0.00116019 0.00064429
v -0.01307810 0.00090242 0.00064429
v -0.01293220 0.00038688 0.00219205
v -0.01282597 0.00038688 0.00270798
v -0.01276586 0.00064395 0.00296623
v -0.01272792 0.00064395 0.00314760
v -0.01236315 -0.00430001 0.00090254
v -0.01235031 -0.00425576 0.00116080
v -0.01239000 -0.00296833 0.00314760
v -0.01242735 -0.00297324 0.00297210
v -0.01246178 -0.00289177 0.00289052
v -0.01264621 -0.00270845 0.00219205
v -0.01270574 -0.00256517 0.00204180
v -0.01263746 -0.00296552 0.00193439
v -0.01268415 -0.00325349 0.00090254
v -0.01266722 -0.00296552 0.00167672
v -0.01270808 -0.00309475 0.00103167
v -0.01271508 -0.00312425 0.00090254
v -0.01269641 -0.00320292 0.00090254
v -0.01261995 -0.00348246 0.00090254
v -0.01261995 -0.00348246 -0.00090231
v -0.01268415 -0.00325349 -0.00090231
v -0.01269641 -0.00320292 -0.00090231
v -0.01271508 -0.00312425 -0.00090231
v -0.01270808 -0.00309475 -0.00103202
v -0.01266722 -0.00296552 -0.00167648
v -0.01263746 -0.00296552 -0.00193415
v -0.01246645 -0.00291143 -0.00284861
v -0.01244369 -0.00306385 -0.00280694
v -0.01270574 -0.00256517 -0.00204215
v -0.01264621 -0.00270845 -0.00219241
v -0.01235848 -0.00430001 -0.00094633
v -0.01235031 -0.00425576 -0.00116056
v -0.01229486 -0.00425576 -0.00167648
v -0.01243961 -0.00304067 -0.00284861
v -0.01278570 0.00287537 -0.00064464
v -0.01292578 0.00219196 -0.00064464
v -0.01295029 0.00193139 -0.00090642
v -0.01297072 0.00184289 -0.00082366
v -0.01295904 0.00201075 -0.00064464
v -0.01279679 0.00038688 -0.00284861
v -0.01293220 0.00038688 -0.00219241
v -0.01296254 0.00038688 -0.00203628
v -0.01297889 0.00038688 -0.00190715
v -0.01300515 0.00038688 -0.00167648
v -0.01309678 0.00064395 -0.00064464
v -0.01308452 0.00038688 -0.00090231
v -0.01307810 0.00090242 -0.00064464
v -0.01305243 0.00116019 -0.00064464
v -0.01298064 0.00167924 -0.00090642
v -0.01293103 0.00219196 0.00038603
v -0.01296138 0.00203112 0.00038603
v -0.01276703 0.00287537 0.00090254
v -0.01278570 0.00287537 0.00064429
v -0.01297655 0.00188222 0.00064429
v -0.01299931 0.00167572 0.00064429
v -0.01310203 0.00064395 0.00038603
v -0.01310262 0.00038688 0.00064429
v -0.01308452 -0.00038713 0.00090254
v -0.01300515 -0.00038713 0.00167672
v -0.01297889 -0.00038713 0.00190739
v -0.01296254 -0.00038713 0.00203593
v -0.01308336 0.00090242 0.00038603
v -0.01300515 0.00167572 0.00038603
v -0.01303141 0.00141866 0.00038603
v -0.01293220 -0.00038713 0.00219205
v -0.01282597 -0.00038713 0.00270798
v -0.01277228 0.00038688 0.00296623
v -0.01272851 0.00062007 0.00314760
v -0.01238299 -0.00430001 0.00064429
v -0.01237774 -0.00425576 0.00090254
v -0.01244311 -0.00280327 0.00306249
v -0.01245887 -0.00263540 0.00314760
v -0.01258902 -0.00219221 0.00296623
v -0.01272267 -0.00213251 0.00238927
v -0.01274485 -0.00220836 0.00220849
v -0.01272267 -0.00239309 0.00213395
v -0.01279562 -0.00219221 0.00193439
v -0.01271625 -0.00261995 0.00187041
v -0.01269349 -0.00329352 0.00064429
v -0.01271683 -0.00287983 0.00137327
v -0.01282597 -0.00219221 0.00167672
v -0.01280088 -0.00270845 0.00090254
v -0.01276703 -0.00296552 0.00064429
v -0.01272442 -0.00316429 0.00064429
v -0.01263921 -0.00348246 0.00064429
v -0.01248396 -0.00397833 0.00064429
v -0.01263921 -0.00348246 -0.00064464
v -0.01269349 -0.00329352 -0.00064464
v -0.01237774 -0.00425576 -0.00090231
v -0.01248396 -0.00397833 -0.00064464
v -0.01270516 -0.00320292 -0.00078257
v -0.01272442 -0.00316429 -0.00064464
v -0.01276703 -0.00296552 -0.00064464
v -0.01280088 -0.00270845 -0.00090231
v -0.01271683 -0.00287983 -0.00137303
v -0.01282597 -0.00219221 -0.00167648
v -0.01271625 -0.00261995 -0.00187018
v -0.01272267 -0.00213251 -0.00238903
v -0.01261353 -0.00219221 -0.00284861
v -0.01279562 -0.00219221 -0.00193415
v -0.01272267 -0.00239309 -0.00213371
v -0.01274485 -0.00220836 -0.00220884
v -0.01236315 -0.00430001 -0.00090231
v -0.01278920 0.00287537 -0.00047795
v -0.01296138 0.00203112 -0.00038638
v -0.01293103 0.00219196 -0.00038638
v -0.01299931 0.00167572 -0.00064464
v -0.01297655 0.00188222 -0.00064464
v -0.01279679 -0.00038713 -0.00284861
v -0.01293220 -0.00038713 -0.00219241
v -0.01296254 -0.00038713 -0.00203628
v -0.01297889 -0.00038713 -0.00190715
v -0.01300515 -0.00038713 -0.00167648
v -0.01310262 0.00038688 -0.00064464
v -0.01310203 0.00064395 -0.00038638
v -0.01308452 -0.00038713 -0.00090231
v -0.01308336 0.00090242 -0.00038638
v -0.01303141 0.00141866 -0.00038638
v -0.01300515 0.00167572 -0.00038638
v -0.01279096 0.00287537 0.00038603
v -0.01297889 0.00190189 0.00038603
v -0.01310787 0.00038688 0.00038603
v -0.01310262 -0.00038713 0.00064429
v -0.01309678 -0.00064490 0.00064429
v -0.01307810 -0.00064490 0.00090254
v -0.01299873 -0.00064490 0.00167672
v -0.01297597 -0.00064490 0.00188391
v -0.01295963 -0.00064490 0.00201245
v -0.01292578 -0.00064490 0.00219205
v -0.01281955 -0.00064490 0.00270798
v -0.01277228 -0.00038713 0.00296623
v -0.01273376 0.00038688 0.00314760
v -0.01238883 -0.00430001 0.00038603
v -0.01239700 -0.00425576 0.00064429
v -0.01254875 -0.00219221 0.00314760
v -0.01258201 -0.00201030 0.00314760
v -0.01270399 -0.00203699 0.00256124
v -0.01279679 -0.00193374 0.00219205
v -0.01283998 -0.00193374 0.00193439
v -0.01269641 -0.00330546 0.00038603
v -0.01290652 -0.00219221 0.00090254
v -0.01287033 -0.00193374 0.00167672
v -0.01292402 -0.00193374 0.00116080
v -0.01292578 -0.00219221 0.00064429
v -0.01277228 -0.00296552 0.00038603
v -0.01272092 -0.00320292 0.00038603
v -0.01264505 -0.00348246 0.00038603
v -0.01240284 -0.00425576 0.00038603
v -0.01264505 -0.00348246 -0.00038638
v -0.01269641 -0.00330546 -0.00038638
v -0.01238299 -0.00430001 -0.00064464
v -0.01239700 -0.00425576 -0.00064464
v -0.01240284 -0.00425576 -0.00038638
v -0.01272092 -0.00320292 -0.00038638
v -0.01277228 -0.00296552 -0.00038638
v -0.01292578 -0.00219221 -0.00064464
v -0.01290652 -0.00219221 -0.00090231
v -0.01292402 -0.00193374 -0.00116056
v -0.01287033 -0.00193374 -0.00167648
v -0.01279679 -0.00193374 -0.00219241
v -0.01270399 -0.00203699 -0.00256101
v -0.01265905 -0.00193795 -0.00284861
v -0.01283998 -0.00193374 -0.00193415
v -0.01279096 0.00287537 -0.00038638
v -0.01297889 0.00190189 -0.00038638
v -0.01279037 -0.00064490 -0.00284861
v -0.01292578 -0.00064490 -0.00219241
v -0.01295963 -0.00064490 -0.00201280
v -0.01297597 -0.00064490 -0.00188367
v -0.01299873 -0.00064490 -0.00167648
v -0.01310787 0.00038688 -0.00038638
v -0.01310262 -0.00038713 -0.00064464
v -0.01307810 -0.00064490 -0.00090231
v -0.01309678 -0.00064490 -0.00064464
v -0.01310787 -0.00038713 0.00038603
v -0.01310203 -0.00064490 0.00038603
v -0.01307810 -0.00090196 0.00064429
v -0.01306001 -0.00090196 0.00090254
v -0.01297013 -0.00081838 0.00184165
v -0.01295029 -0.00090407 0.00192969
v -0.01290710 -0.00090196 0.00219205
v -0.01271625 -0.00085420 0.00313234
v -0.01271450 -0.00083524 0.00314760
v -0.01276586 -0.00064490 0.00296623
v -0.01272792 -0.00064490 0.00314760
v -0.01273317 -0.00042716 0.00314760
v -0.01273376 -0.00038713 0.00314760
v -0.01238883 -0.00430001 -0.00038638
v -0.01259544 -0.00193374 0.00314760
v -0.01263454 -0.00193374 0.00296623
v -0.01271683 -0.00186561 0.00262287
v -0.01282831 -0.00167667 0.00219205
v -0.01287208 -0.00167667 0.00193439
v -0.01295029 -0.00193093 0.00090606
v -0.01295904 -0.00201030 0.00064429
v -0.01290126 -0.00167667 0.00167672
v -0.01292869 -0.00167667 0.00141846
v -0.01296254 -0.00176868 0.00099469
v -0.01297072 -0.00184243 0.00082272
v -0.01296138 -0.00203067 0.00038603
v -0.01293103 -0.00219221 0.00038603
v -0.01293103 -0.00219221 -0.00038638
v -0.01296138 -0.00203067 -0.00038638
v -0.01295904 -0.00201030 -0.00064464
v -0.01295029 -0.00193093 -0.00090642
v -0.01297072 -0.00184243 -0.00082366
v -0.01296254 -0.00176868 -0.00099563
v -0.01290126 -0.00167667 -0.00167648
v -0.01287208 -0.00167667 -0.00193415
v -0.01273843 -0.00194427 -0.00246534
v -0.01282831 -0.00167667 -0.00219241
v -0.01271683 -0.00186561 -0.00262322
v -0.01269232 -0.00167667 -0.00284861
v -0.01280029 -0.00090196 -0.00270833
v -0.01290710 -0.00090196 -0.00219241
v -0.01276994 -0.00091320 -0.00284861
v -0.01295029 -0.00090407 -0.00193063
v -0.01297013 -0.00081838 -0.00184200
v -0.01310787 -0.00038713 -0.00038638
v -0.01306001 -0.00090196 -0.00090231
v -0.01310203 -0.00064490 -0.00038638
v -0.01307810 -0.00090196 -0.00064464
v -0.01308336 -0.00090196 0.00038603
v -0.01305243 -0.00116043 0.00064429
v -0.01298064 -0.00168018 0.00090606
v -0.01298005 -0.00090407 0.00167789
v -0.01296196 -0.00099046 0.00176535
v -0.01292402 -0.00116043 0.00193439
v -0.01280029 -0.00090196 0.00270798
v -0.01288084 -0.00116043 0.00219205
v -0.01277520 -0.00167667 0.00245031
v -0.01272851 -0.00167667 0.00267628
v -0.01273901 -0.00092514 0.00299088
v -0.01270750 -0.00102628 0.00309301
v -0.01269991 -0.00098344 0.00314760
v -0.01271975 -0.00076079 0.00314760
v -0.01262929 -0.00167667 0.00314760
v -0.01266781 -0.00167667 0.00296623
v -0.01297655 -0.00188247 0.00064429
v -0.01299931 -0.00167667 0.00064429
v -0.01297889 -0.00190213 0.00038603
v -0.01297889 -0.00190213 -0.00038638
v -0.01297655 -0.00188247 -0.00064464
v -0.01298064 -0.00168018 -0.00090642
v -0.01299931 -0.00167667 -0.00064464
v -0.01305243 -0.00116043 -0.00064464
v -0.01292869 -0.00167667 -0.00141823
v -0.01296196 -0.00099046 -0.00176570
v -0.01292402 -0.00116043 -0.00193415
v -0.01288084 -0.00116043 -0.00219241
v -0.01272851 -0.00167667 -0.00267663
v -0.01298005 -0.00090407 -0.00167825
v -0.01308336 -0.00090196 -0.00038638
v -0.01305768 -0.00116043 0.00038603
v -0.01300515 -0.00167667 0.00038603
v -0.01300515 -0.00167667 -0.00038638
v -0.01305768 -0.00116043 -0.00038638
f 1 2 3
f 1 3 4
f 1 4 5
f 1 5 6
f 1 6 7
f 1 7 8
f 1 8 9
f 1 9 10
f 1 10 11
f 1 11 12
f 1 12 13
f 1 13 14
f 1 14 15
f 1 15 16
f 1 16 27
f 1 27 26
f 1 26 34
f 1 34 33
f 1 33 61
f 1 61 107
f 1 107 125
f 1 125 151
f 1 151 194
f 1 194 246
f 1 246 311
f 1 311 380
f 1 380 440
f 1 440 396
f 1 396 329
f 1 329 328
f 1 328 268
f 1 268 208
f 1 208 161
f 1 161 137
f 1 137 116
f 1 116 112
f 1 112 81
f 1 81 35
f 1 35 28
f 1 28 17
f 1 17 29
f 1 29 37
f 1 37 84
f 1 84 119
f 1 119 142
f 1 142 172
f 1 172 220
f 1 220 281
f 1 281 344
f 1 344 408
f 1 408 463
f 1 463 462
f 1 462 461
f 1 461 512
f 1 512 459
f 1 459 511
f 1 511 513
f 1 513 465
f 1 465 412
f 1 412 411
f 1 411 348
f 1 348 284
f 1 284 223
f 1 223 175
f 1 175 173
f 1 173 143
f 1 143 120
f 1 120 85
f 1 85 38
f 1 38 30
f 1 30 18
f 1 18 19
f 1 19 20
f 1 20 21
f 1 21 22
f 1 22 23
f 1 23 24
f 1 24 2
f 2 24 23
f 2 23 22
f 2 22 21
f 2 21 20
f 2 20 19
f 2 19 31
f 2 31 59
f 2 59 58
f 2 58 57
f 2 57 56
f 2 56 55
f 2 55 54
f 2 54 53
f 2 53 52
f 2 52 51
f 2 51 50
f 2 50 49
f 2 49 48
f 2 48 47
f 2 47 46
f 2 46 45
f 2 45 44
f 2 44 43
f 2 43 42
f 2 42 41
f 2 41 40
f 2 40 105
f 2 105 104
f 2 104 103
f 2 103 102
f 2 102 101
f 2 101 100
f 2 100 99
f 2 99 98
f 2 98 97
f 2 97 96
f 2 96 95
f 2 95 94
f 2 94 93
f 2 93 92
f 2 92 91
f 2 91 90
f 2 90 89
f 2 89 88
f 2 88 79
f 2 79 78
f 2 78 77
f 2 77 76
f 2 76 75
f 2 75 74
f 2 74 73
f 2 73 72
f 2 72 71
f 2 71 70
f 2 70 69
f 2 69 68
f 2 68 67
f 2 67 66
f 2 66 65
f 2 65 64
f 2 64 63
f 2 63 62
f 2 62 60
f 2 60 32
f 2 32 25
f 2 25 15
f 2 15 14
f 2 14 13
f 2 13 12
f 2 12 11
f 2 11 10
f 2 10 9
f 2 9 8
f 2 8 7
f 2 7 6
f 2 6 5
f 2 5 4
f 2 4 3
f 15 25 26
f 15 26 27
f 15 27 16
f 17 28 29
f 18 30 19
f 19 30 31
f 25 32 33
f 25 33 34
f 25 34 26
f 28 35 29
f 29 35 36
f 29 36 37
f 30 38 86
f 30 86 121
f 30 121 144
f 30 144 174
f 30 174 221
f 30 221 282
f 30 282 345
f 30 345 409
f 30 409 464
f 30 464 427
f 30 427 379
f 30 379 307
f 30 307 243
f 30 243 234
f 30 234 185
f 30 185 147
f 30 147 123
f 30 123 106
f 30 106 39
f 30 39 40
f 30 40 41
f 30 41 42
f 30 42 43
f 30 43 44
f 30 44 45
f 30 45 46
f 30 46 47
f 30 47 48
f 30 48 49
f 30 49 50
f 30 50 51
f 30 51 52
f 30 52 53
f 30 53 54
f 30 54 55
f 30 55 56
f 30 56 57
f 30 57 58
f 30 58 59
f 30 59 31
f 32 60 33
f 33 60 62
f 33 62 63
f 33 63 64
f 33 64 65
f 33 65 66
f 33 66 67
f 33 67 68
f 33 68 69
f 33 69 70
f 33 70 71
f 33 71 72
f 33 72 73
f 33 73 74
f 33 74 75
f 33 75 76
f 33 76 77
f 33 77 78
f 33 78 79
f 33 79 80
f 33 80 111
f 33 111 110
f 33 110 87
f 33 87 39
f 33 39 106
f 33 106 124
f 33 124 150
f 33 150 193
f 33 193 245
f 33 245 310
f 33 310 303
f 33 303 375
f 33 375 438
f 33 438 489
f 33 489 492
f 33 492 442
f 33 442 385
f 33 385 316
f 33 316 253
f 33 253 250
f 33 250 197
f 33 197 154
f 33 154 128
f 33 128 108
f 33 108 61
f 35 81 36
f 36 82 83
f 36 83 84
f 36 84 37
f 36 81 82
f 38 85 86
f 39 87 88
f 39 88 89
f 39 89 90
f 39 90 91
f 39 91 92
f 39 92 93
f 39 93 94
f 39 94 95
f 39 95 96
f 39 96 97
f 39 97 98
f 39 98 99
f 39 99 100
f 39 100 101
f 39 101 102
f 39 102 103
f 39 103 104
f 39 104 105
f 39 105 40
f 61 108 109
f 61 109 107
f 79 110 111
f 79 111 80
f 79 88 87
f 79 87 110
f 81 112 82
f 82 113 114
f 82 114 115
f 82 115 83
f 82 112 116
f 82 116 113
f 83 117 84
f 83 115 118
f 83 118 117
f 84 117 119
f 85 120 86
f 86 120 122
f 86 122 121
f 106 123 124
f 107 109 126
f 107 126 127
f 107 127 125
f 108 128 109
f 109 129 130
f 109 130 131
f 109 131 126
f 109 128 129
f 113 132 114
f 113 116 133
f 113 133 132
f 114 132 115
f 115 134 135
f 115 135 136
f 115 136 118
f 115 132 134
f 116 137 133
f 117 118 119
f 118 136 138
f 118 138 139
f 118 139 140
f 118 140 119
f 119 140 141
f 119 141 142
f 120 143 122
f 121 122 145
f 121 145 146
f 121 146 144
f 122 143 145
f 123 147 148
f 123 148 149
f 123 149 150
f 123 150 124
f 125 127 152
f 125 152 153
f 125 153 151
f 126 131 152
f 126 152 127
f 128 154 129
f 129 154 155
f 129 155 130
f 130 156 157
f 130 157 158
f 130 158 159
f 130 159 152
f 130 152 131
f 130 155 156
f 132 160 163
f 132 163 134
f 132 133 161
f 132 161 162
f 132 162 160
f 133 137 161
f 134 163 135
f 135 164 165
f 135 165 166
f 135 166 167
f 135 167 168
f 135 168 136
f 135 163 164
f 136 168 138
f 138 168 139
f 139 168 169
f 139 169 141
f 139 141 140
f 141 169 170
f 141 170 171
f 141 171 142
f 142 171 172
f 143 173 145
f 144 146 174
f 145 173 175
f 145 175 176
f 145 176 177
f 145 177 146
f 146 177 178
f 146 178 179
f 146 179 180
f 146 180 181
f 146 181 182
f 146 182 183
f 146 183 184
f 146 184 174
f 147 185 148
f 148 186 187
f 148 187 188
f 148 188 189
f 148 189 190
f 148 190 149
f 148 185 191
f 148 191 186
f 149 190 189
f 149 189 192
f 149 192 193
f 149 193 150
f 151 153 195
f 151 195 194
f 152 159 204
f 152 204 196
f 152 196 153
f 153 196 195
f 154 156 155
f 154 197 156
f 156 197 198
f 156 198 157
f 157 198 199
f 157 199 158
f 158 199 200
f 158 200 201
f 158 201 202
f 158 202 203
f 158 203 204
f 158 204 159
f 160 205 206
f 160 206 163
f 160 162 207
f 160 207 266
f 160 266 205
f 161 208 162
f 162 208 207
f 163 206 209
f 163 209 210
f 163 210 164
f 164 210 165
f 165 210 211
f 165 211 166
f 166 212 213
f 166 213 214
f 166 214 215
f 166 215 216
f 166 216 167
f 166 211 217
f 166 217 212
f 167 216 168
f 168 216 215
f 168 215 218
f 168 218 219
f 168 219 171
f 168 171 169
f 169 171 170
f 171 219 220
f 171 220 172
f 174 184 222
f 174 222 221
f 175 223 224
f 175 224 176
f 176 225 226
f 176 226 177
f 176 224 227
f 176 227 225
f 177 226 179
f 177 179 178
f 179 226 225
f 179 225 227
f 179 227 228
f 179 228 229
f 179 229 180
f 180 230 231
f 180 231 181
f 180 229 230
f 181 231 232
f 181 232 182
f 182 232 183
f 183 233 222
f 183 222 184
f 183 232 231
f 183 231 233
f 185 234 235
f 185 235 191
f 186 236 187
f 186 191 236
f 187 236 237
f 187 237 188
f 188 238 239
f 188 239 189
f 188 237 238
f 189 240 193
f 189 193 192
f 189 239 241
f 189 241 242
f 189 242 240
f 191 235 243
f 191 243 244
f 191 244 237
f 191 237 236
f 193 240 242
f 193 242 245
f 194 195 247
f 194 247 246
f 195 196 249
f 195 249 247
f 196 204 248
f 196 248 249
f 197 250 198
f 198 250 251
f 198 251 199
f 199 252 200
f 199 251 253
f 199 253 254
f 199 254 255
f 199 255 252
f 200 252 201
f 201 255 256
f 201 256 257
f 201 257 258
f 201 258 259
f 201 259 260
f 201 260 202
f 201 252 255
f 202 260 261
f 202 261 203
f 203 261 262
f 203 262 204
f 204 262 248
f 205 263 264
f 205 264 265
f 205 265 206
f 205 266 263
f 206 265 267
f 206 267 209
f 207 208 268
f 207 268 266
f 209 267 269
f 209 269 217
f 209 217 210
f 210 217 211
f 212 270 271
f 212 271 272
f 212 272 213
f 212 217 270
f 213 272 214
f 214 272 273
f 214 273 274
f 214 274 215
f 215 274 218
f 217 269 275
f 217 275 267
f 217 267 276
f 217 276 277
f 217 277 270
f 218 274 278
f 218 278 279
f 218 279 219
f 219 279 343
f 219 343 280
f 219 280 220
f 220 280 281
f 221 222 283
f 221 283 282
f 222 233 283
f 223 284 224
f 224 284 285
f 224 285 286
f 224 286 228
f 224 228 227
f 228 286 287
f 228 287 288
f 228 288 289
f 228 289 229
f 229 289 230
f 230 290 231
f 230 289 291
f 230 291 292
f 230 292 293
f 230 293 294
f 230 294 290
f 231 290 295
f 231 295 233
f 233 295 283
f 234 243 235
f 237 296 297
f 237 297 238
f 237 244 296
f 238 297 298
f 238 298 299
f 238 299 300
f 238 300 301
f 238 301 302
f 238 302 239
f 239 302 241
f 241 303 304
f 241 304 242
f 241 302 305
f 241 305 306
f 241 306 303
f 242 304 245
f 243 307 308
f 243 308 309
f 243 309 244
f 244 309 308
f 244 308 296
f 245 304 310
f 246 247 312
f 246 312 311
f 247 249 312
f 248 313 249
f 248 262 314
f 248 314 313
f 249 313 315
f 249 315 312
f 250 253 251
f 253 316 317
f 253 317 254
f 254 317 318
f 254 318 255
f 255 318 319
f 255 319 256
f 256 319 320
f 256 320 257
f 257 320 322
f 257 322 258
f 258 321 259
f 258 322 321
f 259 323 324
f 259 324 314
f 259 314 325
f 259 325 262
f 259 262 261
f 259 261 260
f 259 321 323
f 262 325 314
f 263 326 327
f 263 327 264
f 263 266 328
f 263 328 329
f 263 329 396
f 263 396 326
f 264 327 330
f 264 330 267
f 264 267 265
f 266 268 328
f 267 331 276
f 267 275 269
f 267 330 331
f 270 332 398
f 270 398 333
f 270 333 271
f 270 277 338
f 270 338 332
f 271 333 399
f 271 399 334
f 271 334 335
f 271 335 272
f 272 335 336
f 272 336 273
f 273 336 337
f 273 337 274
f 274 337 341
f 274 341 278
f 276 338 277
f 276 331 339
f 276 339 340
f 276 340 338
f 278 341 342
f 278 342 279
f 279 342 407
f 279 407 343
f 280 343 281
f 281 343 344
f 282 283 346
f 282 346 345
f 283 295 346
f 284 347 285
f 284 348 347
f 285 347 286
f 286 347 349
f 286 349 350
f 286 350 287
f 287 350 351
f 287 351 352
f 287 352 288
f 288 352 353
f 288 353 354
f 288 354 289
f 289 354 291
f 290 355 295
f 290 294 355
f 291 356 292
f 291 354 357
f 291 357 356
f 292 356 358
f 292 358 293
f 293 359 360
f 293 360 294
f 293 358 359
f 294 360 355
f 295 355 361
f 295 361 362
f 295 362 346
f 296 363 364
f 296 364 297
f 296 308 365
f 296 365 366
f 296 366 363
f 297 364 298
f 298 367 368
f 298 368 299
f 298 364 367
f 299 368 369
f 299 369 370
f 299 370 300
f 300 370 371
f 300 371 301
f 301 371 372
f 301 372 373
f 301 373 302
f 302 373 305
f 303 310 304
f 303 306 374
f 303 374 375
f 305 373 376
f 305 376 377
f 305 377 306
f 306 377 378
f 306 378 374
f 307 379 365
f 307 365 308
f 311 312 380
f 312 315 381
f 312 381 382
f 312 382 380
f 313 314 315
f 314 324 383
f 314 383 384
f 314 384 315
f 315 384 381
f 316 385 386
f 316 386 317
f 317 386 387
f 317 387 318
f 318 387 388
f 318 388 319
f 319 388 389
f 319 389 320
f 320 389 392
f 320 392 322
f 321 322 390
f 321 390 447
f 321 447 391
f 321 391 393
f 321 393 323
f 322 392 448
f 322 448 390
f 323 393 324
f 324 393 394
f 324 394 395
f 324 395 383
f 326 382 381
f 326 381 327
f 326 396 440
f 326 440 382
f 327 381 441
f 327 441 397
f 327 397 330
f 330 397 339
f 330 339 331
f 332 391 447
f 332 447 398
f 332 338 393
f 332 393 391
f 333 398 451
f 333 451 399
f 334 399 400
f 334 400 401
f 334 401 402
f 334 402 335
f 335 402 403
f 335 403 336
f 336 403 404
f 336 404 337
f 337 404 405
f 337 405 341
f 338 340 394
f 338 394 393
f 339 395 394
f 339 394 340
f 339 397 441
f 339 441 395
f 341 405 406
f 341 406 342
f 342 406 460
f 342 460 407
f 343 407 463
f 343 463 408
f 343 408 344
f 345 346 410
f 345 410 424
f 345 424 409
f 346 362 410
f 347 348 349
f 348 411 349
f 349 411 412
f 349 412 413
f 349 413 350
f 350 413 414
f 350 414 351
f 351 414 353
f 351 353 352
f 353 414 415
f 353 415 418
f 353 418 357
f 353 357 354
f 355 360 416
f 355 416 361
f 356 357 358
f 357 417 358
f 357 418 419
f 357 419 417
f 358 417 420
f 358 420 359
f 359 421 360
f 359 420 477
f 359 477 421
f 360 422 416
f 360 421 422
f 361 416 423
f 361 423 362
f 362 424 410
f 362 423 424
f 363 425 426
f 363 426 364
f 363 366 425
f 364 426 368
f 364 368 367
f 365 379 427
f 365 427 428
f 365 428 366
f 366 428 429
f 366 429 425
f 368 426 430
f 368 430 431
f 368 431 369
f 369 431 478
f 369 478 432
f 369 432 370
f 370 432 433
f 370 433 372
f 370 372 371
f 372 433 434
f 372 434 435
f 372 435 439
f 372 439 376
f 372 376 373
f 374 378 436
f 374 436 437
f 374 437 375
f 375 437 438
f 376 378 377
f 376 439 436
f 376 436 378
f 380 382 440
f 381 384 441
f 383 395 384
f 384 395 441
f 385 442 443
f 385 443 386
f 386 443 387
f 387 443 444
f 387 444 445
f 387 445 388
f 388 445 389
f 389 445 446
f 389 446 449
f 389 449 392
f 390 448 495
f 390 495 447
f 392 449 450
f 392 450 448
f 398 447 495
f 398 495 451
f 399 451 452
f 399 452 400
f 400 452 499
f 400 499 453
f 400 453 454
f 400 454 401
f 401 454 455
f 401 455 402
f 402 455 403
f 403 455 404
f 404 455 456
f 404 456 457
f 404 457 405
f 405 457 406
f 406 457 458
f 406 458 459
f 406 459 460
f 407 460 461
f 407 461 462
f 407 462 463
f 409 424 429
f 409 429 464
f 412 465 413
f 413 465 466
f 413 466 467
f 413 467 414
f 414 467 468
f 414 468 469
f 414 469 415
f 415 469 418
f 416 426 425
f 416 425 423
f 416 422 430
f 416 430 426
f 417 419 470
f 417 470 471
f 417 471 420
f 418 469 472
f 418 472 473
f 418 473 474
f 418 474 419
f 419 474 475
f 419 475 470
f 420 471 476
f 420 476 477
f 421 431 430
f 421 430 422
f 421 477 478
f 421 478 431
f 423 425 429
f 423 429 424
f 427 464 429
f 427 429 428
f 432 478 479
f 432 479 480
f 432 480 433
f 433 480 481
f 433 481 434
f 434 481 482
f 434 482 483
f 434 483 435
f 435 483 484
f 435 484 485
f 435 485 439
f 436 486 437
f 436 439 485
f 436 485 487
f 436 487 488
f 436 488 486
f 437 486 438
f 438 486 488
f 438 488 489
f 442 490 491
f 442 491 443
f 442 492 490
f 443 491 444
f 444 491 493
f 444 493 494
f 444 494 445
f 445 494 446
f 446 494 449
f 448 450 497
f 448 497 495
f 449 494 496
f 449 496 450
f 450 496 498
f 450 498 529
f 450 529 497
f 451 495 497
f 451 497 452
f 452 497 529
f 452 529 499
f 453 499 530
f 453 530 500
f 453 500 454
f 454 500 475
f 454 475 501
f 454 501 473
f 454 473 502
f 454 502 455
f 455 502 503
f 455 503 469
f 455 469 504
f 455 504 456
f 456 504 457
f 457 505 458
f 457 504 469
f 457 469 506
f 457 506 507
f 457 507 508
f 457 508 505
f 458 505 509
f 458 509 510
f 458 510 511
f 458 511 459
f 459 512 460
f 460 512 461
f 465 513 466
f 466 513 467
f 467 513 514
f 467 514 508
f 467 508 507
f 467 507 468
f 468 507 506
f 468 506 469
f 469 503 472
f 470 475 471
f 471 475 515
f 471 515 476
f 472 503 473
f 473 501 474
f 473 503 502
f 474 501 475
f 475 500 516
f 475 516 515
f 476 479 478
f 476 478 477
f 476 515 517
f 476 517 518
f 476 518 479
f 479 518 519
f 479 519 480
f 480 519 482
f 480 482 481
f 482 520 483
f 482 519 521
f 482 521 522
f 482 522 496
f 482 496 520
f 483 520 496
f 483 496 523
f 483 523 484
f 484 523 524
f 484 524 485
f 485 524 494
f 485 494 493
f 485 493 525
f 485 525 491
f 485 491 526
f 485 526 487
f 487 527 488
f 487 526 527
f 488 527 489
f 489 527 492
f 490 492 527
f 490 527 491
f 491 527 526
f 491 525 493
f 494 524 528
f 494 528 496
f 496 528 523
f 496 522 498
f 498 522 533
f 498 533 529
f 499 529 533
f 499 533 530
f 500 530 531
f 500 531 516
f 505 508 509
f 508 514 510
f 508 510 509
f 510 514 513
f 510 513 511
f 515 516 531
f 515 531 517
f 517 531 532
f 517 532 518
f 518 532 519
f 519 532 521
f 521 532 522
f 522 532 533
f 523 528 524
f 530 533 532
f 530 532 531

