# https://github.com/mikedh/trimesh
v 0.00361067 -0.01108456 -0.00106967
v 0.00364619 -0.01139453 -0.00106967
v 0.00361067 -0.01108456 -0.00106115
v 0.04892170 -0.01108456 -0.00106967
v 0.00377053 -0.01164056 -0.00106967
v 0.00364619 -0.01139453 0.00684676
v 0.00361511 -0.01108456 0.00684676
v 0.04894390 -0.01108456 -0.00079923
v 0.04889062 -0.01114404 -0.00079690
v 0.04887730 -0.01113392 -0.00106967
v 0.00385490 -0.01180697 -0.00106967
v 0.00385490 -0.01180697 0.00684676
v 0.04686574 -0.01108456 0.00684676
v 0.04897499 -0.01108456 -0.00022270
v 0.04890394 -0.01115825 -0.00022270
v 0.04856202 -0.01143116 -0.00022270
v 0.04856202 -0.01140450 -0.00079690
v 0.04873520 -0.01124969 -0.00106967
v 0.04791371 -0.01180697 -0.00106967
v 0.04544478 -0.01180697 0.00684676
v 0.04671476 -0.01119015 0.00684676
v 0.04716326 -0.01113435 0.00642677
v 0.04694567 -0.01108456 0.00675378
v 0.04897055 -0.01108456 0.00035073
v 0.04890394 -0.01115733 0.00035073
v 0.04856202 -0.01143116 0.00035073
v 0.04825118 -0.01166828 0.00035073
v 0.04825118 -0.01166736 -0.00022270
v 0.04856202 -0.01138653 -0.00106967
v 0.04822898 -0.01165492 -0.00079690
v 0.04839328 -0.01151546 -0.00106967
v 0.04793147 -0.01179926 -0.00106967
v 0.04794035 -0.01180697 -0.00080078
v 0.04564016 -0.01180697 0.00666544
v 0.04560463 -0.01175527 0.00684676
v 0.04644389 -0.01134467 0.00684676
v 0.04626627 -0.01154269 0.00666621
v 0.04682578 -0.01123809 0.00663599
v 0.04728759 -0.01121483 0.00609046
v 0.04768280 -0.01109375 0.00577352
v 0.04767392 -0.01108456 0.00580297
v 0.04730979 -0.01108456 0.00630821
v 0.04719878 -0.01108456 0.00645621
v 0.04681245 -0.01151206 0.00607651
v 0.04895278 -0.01108456 0.00080948
v 0.04889062 -0.01114524 0.00092494
v 0.04856202 -0.01140810 0.00092494
v 0.04823342 -0.01165732 0.00092494
v 0.04794923 -0.01180697 0.00092261
v 0.04798475 -0.01180697 0.00035073
v 0.04798475 -0.01180697 0.00031431
v 0.04798031 -0.01180697 -0.00025524
v 0.04821566 -0.01164714 -0.00106967
v 0.04569344 -0.01180697 0.00660887
v 0.04569344 -0.01178865 0.00666621
v 0.04607533 -0.01171814 0.00647558
v 0.04587551 -0.01165124 0.00684676
v 0.04626183 -0.01144834 0.00684676
v 0.04645721 -0.01163879 0.00625861
v 0.04591103 -0.01163596 0.00684676
v 0.04701672 -0.01162295 0.00551625
v 0.04746077 -0.01132847 0.00555577
v 0.04769612 -0.01108456 0.00576577
v 0.04768724 -0.01108456 0.00578127
v 0.04778493 -0.01117119 0.00539149
v 0.04800695 -0.01108456 0.00513810
v 0.04891282 -0.01108456 0.00143405
v 0.04886841 -0.01112692 0.00149914
v 0.04856202 -0.01137402 0.00149914
v 0.04890838 -0.01108456 0.00149914
v 0.04820678 -0.01164155 0.00149914
v 0.04791814 -0.01179381 0.00149914
v 0.04789150 -0.01180697 0.00149914
v 0.04594212 -0.01180697 0.00634230
v 0.04618190 -0.01180697 0.00607883
v 0.04626627 -0.01177818 0.00607651
v 0.04660375 -0.01170456 0.00587658
v 0.04712329 -0.01167854 0.00521791
v 0.04789150 -0.01125238 0.00494205
v 0.04826006 -0.01109199 0.00460109
v 0.04740749 -0.01156602 0.00499319
v 0.04825118 -0.01108456 0.00463518
v 0.04885509 -0.01111334 0.00183080
v 0.04860642 -0.01128717 0.00204235
v 0.04887730 -0.01108456 0.00185560
v 0.04816681 -0.01161468 0.00207335
v 0.04787818 -0.01177394 0.00207335
v 0.04781601 -0.01180697 0.00199353
v 0.04626627 -0.01180697 0.00597732
v 0.04645721 -0.01180697 0.00572005
v 0.04660819 -0.01180697 0.00551625
v 0.04672809 -0.01176008 0.00551625
v 0.04692791 -0.01180697 0.00502729
v 0.04696343 -0.01180697 0.00495832
v 0.04721210 -0.01172472 0.00483511
v 0.04760287 -0.01162359 0.00436862
v 0.04826895 -0.01108456 0.00459489
v 0.04803360 -0.01131065 0.00439341
v 0.04831335 -0.01114064 0.00421829
v 0.04839772 -0.01108456 0.00411600
v 0.04882401 -0.01108456 0.00221515
v 0.04849985 -0.01129000 0.00264678
v 0.04811353 -0.01157691 0.00264678
v 0.04776717 -0.01172012 0.00322021
v 0.04782489 -0.01174926 0.00264678
v 0.04770056 -0.01180697 0.00264678
v 0.04780269 -0.01180697 0.00207335
v 0.04683910 -0.01180697 0.00516444
v 0.04723875 -0.01180697 0.00436862
v 0.04731423 -0.01177486 0.00436862
v 0.04767392 -0.01166609 0.00398736
v 0.04794479 -0.01150916 0.00379519
v 0.04837552 -0.01119064 0.00379441
v 0.04856202 -0.01108456 0.00349142
v 0.04874408 -0.01108456 0.00264678
v 0.04844657 -0.01124743 0.00322021
v 0.04805580 -0.01153434 0.00322021
v 0.04772720 -0.01169601 0.00360456
v 0.04758955 -0.01180697 0.00322021
v 0.04744745 -0.01180697 0.00378744
v 0.04745633 -0.01180272 0.00379519
v 0.04862863 -0.01108456 0.00322021
v 0.04754958 -0.01180697 0.00338836
f 1 2 6
f 1 6 3
f 1 3 7
f 1 7 13
f 1 13 23
f 1 23 43
f 1 43 42
f 1 42 41
f 1 41 64
f 1 64 63
f 1 63 66
f 1 66 82
f 1 82 97
f 1 97 100
f 1 100 114
f 1 114 122
f 1 122 115
f 1 115 101
f 1 101 85
f 1 85 70
f 1 70 67
f 1 67 45
f 1 45 24
f 1 24 14
f 1 14 8
f 1 8 4
f 1 4 10
f 1 10 18
f 1 18 29
f 1 29 31
f 1 31 53
f 1 53 32
f 1 32 19
f 1 19 11
f 1 11 5
f 1 5 2
f 2 5 6
f 3 6 7
f 4 8 9
f 4 9 10
f 5 11 12
f 5 12 6
f 6 12 20
f 6 20 35
f 6 35 57
f 6 57 60
f 6 60 58
f 6 58 36
f 6 36 21
f 6 21 13
f 6 13 7
f 8 14 9
f 9 15 16
f 9 16 17
f 9 17 18
f 9 18 10
f 9 14 15
f 11 19 33
f 11 33 52
f 11 52 51
f 11 51 50
f 11 50 49
f 11 49 73
f 11 73 88
f 11 88 107
f 11 107 106
f 11 106 119
f 11 119 123
f 11 123 120
f 11 120 109
f 11 109 94
f 11 94 93
f 11 93 108
f 11 108 91
f 11 91 90
f 11 90 89
f 11 89 75
f 11 75 74
f 11 74 54
f 11 54 34
f 11 34 20
f 11 20 12
f 13 21 22
f 13 22 23
f 14 24 25
f 14 25 15
f 15 25 26
f 15 26 16
f 16 26 27
f 16 27 28
f 16 28 17
f 17 29 18
f 17 28 30
f 17 30 31
f 17 31 29
f 19 32 33
f 20 34 35
f 21 36 37
f 21 37 38
f 21 38 22
f 22 39 40
f 22 40 41
f 22 41 42
f 22 42 43
f 22 43 23
f 22 38 44
f 22 44 39
f 24 45 25
f 25 45 46
f 25 46 26
f 26 46 47
f 26 47 27
f 27 48 49
f 27 49 50
f 27 50 51
f 27 51 28
f 27 47 48
f 28 51 52
f 28 52 33
f 28 33 30
f 30 33 32
f 30 32 53
f 30 53 31
f 34 54 55
f 34 55 35
f 35 55 56
f 35 56 57
f 36 58 37
f 37 59 38
f 37 58 60
f 37 60 59
f 38 59 44
f 39 44 61
f 39 61 62
f 39 62 40
f 40 63 64
f 40 64 41
f 40 62 65
f 40 65 66
f 40 66 63
f 44 59 61
f 45 67 46
f 46 68 69
f 46 69 47
f 46 67 70
f 46 70 68
f 47 69 48
f 48 71 72
f 48 72 49
f 48 69 71
f 49 72 73
f 54 74 55
f 55 74 56
f 56 60 57
f 56 74 75
f 56 75 76
f 56 76 59
f 56 59 60
f 59 76 77
f 59 77 78
f 59 78 61
f 61 78 62
f 62 78 65
f 65 79 80
f 65 80 66
f 65 78 81
f 65 81 79
f 66 80 82
f 68 70 83
f 68 83 69
f 69 83 84
f 69 84 71
f 70 85 83
f 71 86 87
f 71 87 72
f 71 84 86
f 72 87 73
f 73 87 88
f 75 89 76
f 76 89 77
f 77 89 90
f 77 90 91
f 77 91 92
f 77 92 78
f 78 92 93
f 78 93 94
f 78 94 95
f 78 95 96
f 78 96 81
f 79 81 96
f 79 96 80
f 80 97 82
f 80 96 98
f 80 98 99
f 80 99 100
f 80 100 97
f 83 85 101
f 83 101 102
f 83 102 84
f 84 102 86
f 86 103 104
f 86 104 105
f 86 105 87
f 86 102 103
f 87 105 106
f 87 106 107
f 87 107 88
f 91 108 92
f 92 108 93
f 94 109 110
f 94 110 95
f 95 110 96
f 96 110 111
f 96 111 98
f 98 112 113
f 98 113 99
f 98 111 112
f 99 113 100
f 100 113 114
f 101 115 116
f 101 116 102
f 102 116 103
f 103 116 117
f 103 117 118
f 103 118 104
f 104 118 119
f 104 119 105
f 105 119 106
f 109 120 121
f 109 121 110
f 110 121 111
f 111 121 118
f 111 118 117
f 111 117 112
f 112 117 116
f 112 116 113
f 113 116 122
f 113 122 114
f 115 122 116
f 118 121 123
f 118 123 119
f 120 123 121

