# https://github.com/mikedh/trimesh
v 0.04589318 0.00630350 -0.02868667
v 0.04589318 0.00630350 -0.02580601
v 0.04589318 0.02083356 -0.02868667
v 0.06916662 0.00630350 -0.02868667
v 0.05285983 0.00539414 -0.00854803
v 0.05166868 0.00539414 -0.00852780
v 0.05037645 0.00539565 -0.00720737
v 0.04971275 0.00545012 -0.00675375
v 0.04681181 0.00657434 0.00082786
v 0.04668434 0.00669992 0.00082786
v 0.04604702 0.00777118 0.00082786
v 0.04602064 0.00860791 0.00082786
v 0.04589318 0.00789525 -0.02580312
v 0.04971275 0.00545012 -0.00651394
v 0.04589318 0.02083356 -0.02580890
v 0.07042369 0.02083356 -0.02868667
v 0.07042369 0.01863658 -0.02868667
v 0.07042369 0.01177932 -0.02868378
v 0.07041929 0.00630350 -0.02868090
v 0.07290267 0.00539414 -0.00853936
v 0.05158517 0.00537598 -0.00730850
v 0.07298179 0.00537598 -0.00731717
v 0.07162362 0.00537598 -0.00731717
v 0.05037645 0.00539565 -0.00606320
v 0.04706234 0.00653197 0.00082786
v 0.04603383 0.00922676 0.00082786
v 0.04589318 0.00986074 -0.02580312
v 0.05079401 0.00541986 -0.00515017
v 0.04785791 0.00640487 0.00082786
v 0.04607339 0.00936294 0.00082786
v 0.04697883 0.01055827 0.00082786
v 0.04788867 0.01064149 0.00082786
v 0.04855237 0.01068688 0.00082786
v 0.08217249 0.02083356 -0.02449136
v 0.07167637 0.02083356 -0.02866356
v 0.07167637 0.01988941 -0.02866933
v 0.07167637 0.01177932 -0.02866933
v 0.07167637 0.00630350 -0.02866356
v 0.07292904 0.00630350 -0.02862311
v 0.07418172 0.00630350 -0.02853932
v 0.07543880 0.00630350 -0.02843241
v 0.07668708 0.00630350 -0.02831395
v 0.07794415 0.00630350 -0.02814637
v 0.08045390 0.00630350 -0.02775342
v 0.08170218 0.00630350 -0.02754250
v 0.08217249 0.00630350 -0.02744426
v 0.07423447 0.00538809 -0.00728828
v 0.05158517 0.00537598 -0.00596496
v 0.07298179 0.00537598 -0.00595340
v 0.05165550 0.00539263 -0.00473989
v 0.05209943 0.00544710 -0.00408979
v 0.04911937 0.00631560 0.00082786
v 0.04980944 0.01068990 0.00082786
v 0.07612008 0.01068990 0.00082786
v 0.07737715 0.01067780 0.00082786
v 0.07861225 0.01064300 0.00082786
v 0.07963197 0.01061274 0.00082786
v 0.08045390 0.01058399 0.00082786
v 0.08073960 0.01056583 0.00082786
v 0.08126704 0.01052801 0.00082786
v 0.09079619 0.00969884 0.00082786
v 0.09079619 0.01054616 -0.00153850
v 0.09079619 0.01064754 -0.00224928
v 0.09079619 0.01068990 -0.00350036
v 0.08217249 0.02083356 -0.02744137
v 0.07293344 0.02083356 -0.02862311
v 0.07293344 0.01988941 -0.02862600
v 0.07226534 0.01177932 -0.02864911
v 0.07293344 0.01177932 -0.02862600
v 0.07352242 0.01177932 -0.02858843
v 0.07418612 0.01177932 -0.02854221
v 0.07477510 0.01177932 -0.02849309
v 0.07543880 0.01177932 -0.02843530
v 0.07669147 0.01177932 -0.02831684
v 0.07794415 0.01612941 -0.02815503
v 0.07794415 0.01177932 -0.02815214
v 0.08045390 0.01177932 -0.02775631
v 0.08104288 0.01177932 -0.02765807
v 0.08170658 0.01177932 -0.02754539
v 0.08217249 0.01177932 -0.02744715
v 0.08800953 0.00860791 -0.01477165
v 0.08742934 0.00785894 -0.01556910
v 0.09079619 0.00765619 -0.00678264
v 0.09079619 0.00699195 -0.00589851
v 0.09079619 0.00688149 -0.00574537
v 0.09079619 0.00662124 -0.00506349
v 0.09079619 0.00653349 -0.00476589
v 0.09079619 0.00649566 -0.00459542
v 0.09079619 0.00635494 -0.00350036
v 0.09079619 0.00632771 -0.00319409
v 0.07423447 0.00538809 -0.00597941
v 0.09079619 0.00631409 -0.00224928
v 0.09079619 0.00631258 -0.00194012
v 0.07162362 0.00537598 -0.00595340
v 0.05286862 0.00539263 -0.00471966
v 0.07291146 0.00539263 -0.00472833
v 0.07212030 0.00544558 -0.00408690
v 0.05037645 0.00631258 0.00082786
v 0.09079619 0.00631258 0.00082786
v 0.09079619 0.01068385 -0.00475433
v 0.08217249 0.02048404 -0.02744426
v 0.08170658 0.02083356 -0.02753961
v 0.09079619 0.01062636 -0.00598519
v 0.09079619 0.01053708 -0.00689822
v 0.09079619 0.00986074 -0.00730850
v 0.08863806 0.00946431 -0.01304672
v 0.07418612 0.02083356 -0.02854509
v 0.07543880 0.01236942 -0.02843530
v 0.07575086 0.02083356 -0.02840641
v 0.07669147 0.02083356 -0.02831684
v 0.07794415 0.02083356 -0.02815503
v 0.08045390 0.01863658 -0.02775631
v 0.08170658 0.01236942 -0.02754539
v 0.08217249 0.01362225 -0.02744715
v 0.09079619 0.00860791 -0.00732584
v 0.09079619 0.00850654 -0.00729117
v 0.09079619 0.00779993 -0.00690688
v 0.07248511 0.00544558 -0.00408690
v 0.08076597 0.02083356 -0.02770141
v 0.08045390 0.02083356 -0.02775342
f 1 2 13
f 1 13 27
f 1 27 15
f 1 15 3
f 1 3 16
f 1 16 17
f 1 17 4
f 1 4 5
f 1 5 6
f 1 6 7
f 1 7 8
f 1 8 14
f 1 14 2
f 2 9 10
f 2 10 11
f 2 11 12
f 2 12 13
f 2 14 9
f 3 15 34
f 3 34 65
f 3 65 102
f 3 102 119
f 3 119 120
f 3 120 111
f 3 111 110
f 3 110 109
f 3 109 107
f 3 107 66
f 3 66 35
f 3 35 16
f 4 17 18
f 4 18 19
f 4 19 20
f 4 20 5
f 5 21 6
f 5 20 22
f 5 22 23
f 5 23 21
f 6 21 7
f 7 24 14
f 7 14 8
f 7 21 48
f 7 48 24
f 9 14 25
f 9 25 29
f 9 29 52
f 9 52 98
f 9 98 99
f 9 99 61
f 9 61 60
f 9 60 59
f 9 59 58
f 9 58 57
f 9 57 56
f 9 56 55
f 9 55 54
f 9 54 53
f 9 53 33
f 9 33 32
f 9 32 31
f 9 31 30
f 9 30 26
f 9 26 12
f 9 12 11
f 9 11 10
f 12 26 15
f 12 15 27
f 12 27 13
f 14 24 28
f 14 28 29
f 14 29 25
f 15 26 30
f 15 30 31
f 15 31 32
f 15 32 33
f 15 33 34
f 16 35 36
f 16 36 37
f 16 37 17
f 17 37 18
f 18 37 19
f 19 37 38
f 19 38 20
f 20 38 39
f 20 39 40
f 20 40 41
f 20 41 42
f 20 42 43
f 20 43 44
f 20 44 45
f 20 45 46
f 20 46 47
f 20 47 22
f 21 23 22
f 21 22 49
f 21 49 94
f 21 94 48
f 22 47 91
f 22 91 49
f 24 48 50
f 24 50 28
f 28 50 29
f 29 50 51
f 29 51 52
f 33 53 34
f 34 54 55
f 34 55 56
f 34 56 57
f 34 57 58
f 34 58 59
f 34 59 60
f 34 60 61
f 34 61 62
f 34 62 63
f 34 63 64
f 34 64 65
f 34 53 54
f 35 66 36
f 36 66 67
f 36 67 68
f 36 68 37
f 37 68 39
f 37 39 38
f 39 69 70
f 39 70 40
f 39 68 69
f 40 70 71
f 40 71 72
f 40 72 41
f 41 72 73
f 41 73 74
f 41 74 42
f 42 74 75
f 42 75 76
f 42 76 43
f 43 76 44
f 44 77 78
f 44 78 45
f 44 76 75
f 44 75 77
f 45 78 79
f 45 79 46
f 46 79 80
f 46 80 81
f 46 81 82
f 46 82 83
f 46 83 84
f 46 84 85
f 46 85 86
f 46 86 87
f 46 87 88
f 46 88 89
f 46 89 90
f 46 90 47
f 47 90 92
f 47 92 93
f 47 93 99
f 47 99 91
f 48 94 95
f 48 95 50
f 49 91 96
f 49 96 95
f 49 95 94
f 50 95 51
f 51 95 97
f 51 97 98
f 51 98 52
f 61 99 93
f 61 93 92
f 61 92 90
f 61 90 89
f 61 89 88
f 61 88 87
f 61 87 86
f 61 86 85
f 61 85 84
f 61 84 83
f 61 83 117
f 61 117 116
f 61 116 115
f 61 115 105
f 61 105 104
f 61 104 103
f 61 103 100
f 61 100 64
f 61 64 63
f 61 63 62
f 64 100 65
f 65 101 102
f 65 100 103
f 65 103 104
f 65 104 105
f 65 105 106
f 65 106 81
f 65 81 101
f 66 107 67
f 67 107 70
f 67 70 69
f 67 69 68
f 70 107 71
f 71 107 72
f 72 107 73
f 73 108 109
f 73 109 74
f 73 107 108
f 74 109 110
f 74 110 111
f 74 111 75
f 75 111 112
f 75 112 77
f 77 112 78
f 78 113 79
f 78 112 113
f 79 113 114
f 79 114 80
f 80 114 81
f 81 106 105
f 81 105 115
f 81 115 116
f 81 116 117
f 81 117 83
f 81 83 82
f 81 114 101
f 91 99 96
f 95 96 118
f 95 118 97
f 96 99 118
f 97 118 99
f 97 99 98
f 101 114 113
f 101 113 102
f 102 113 119
f 107 109 108
f 111 120 112
f 112 120 119
f 112 119 113

