# https://github.com/mikedh/trimesh
v -0.01026076 0.00290494 0.00116767
v -0.01027024 0.00290494 0.00105287
v -0.01026482 0.00290494 0.00132171
v -0.00135093 0.00284149 0.00090325
v -0.00135093 0.00284149 -0.00000008
v -0.01037183 0.00290494 -0.00016623
v -0.01029191 0.00290494 0.00141851
v -0.00135093 0.00283933 0.00107087
v -0.00122089 0.00283809 0.00105759
v -0.00121819 0.00283933 0.00090325
v -0.01075515 0.00290494 0.00284861
v -0.00121819 0.00283933 -0.00000008
v -0.01278959 0.00290494 -0.00016623
v -0.01003185 0.00284861 -0.00016623
v -0.00135093 0.00283097 0.00119954
v -0.00135093 0.00279723 0.00141880
v -0.00135093 0.00274493 0.00167643
v -0.00117349 0.00262545 0.00188301
v 0.00089346 0.00214726 0.00034785
v 0.00089346 0.00216985 0.00016193
v 0.00089346 0.00217140 0.00012947
v -0.01246722 0.00290494 0.00284861
v -0.01013750 0.00144435 0.00284861
v -0.00135093 0.00090363 0.00284153
v -0.00135093 0.00107015 0.00283917
v -0.00122089 0.00105746 0.00283828
v -0.00135093 0.00119891 0.00283031
v -0.00135093 0.00141897 0.00279755
v -0.00135093 0.00167618 0.00274444
v -0.00135093 0.00192131 0.00264823
v -0.00135093 0.00205069 0.00257003
v -0.00135093 0.00219214 0.00247441
v -0.00135093 0.00235494 0.00235489
v -0.00135093 0.00247472 0.00219229
v -0.00135093 0.00257005 0.00205122
v -0.00135093 0.00264867 0.00192167
v 0.00089346 0.00216149 -0.00000451
v -0.01279365 0.00288730 -0.00016623
v -0.01278959 0.00290494 0.00038740
v -0.01003185 0.00192317 -0.00016623
v -0.00119380 0.00234318 0.00234338
v 0.00089346 0.00164399 0.00139047
v 0.00089346 0.00184672 0.00107294
v 0.00089346 0.00191791 0.00093866
v 0.00089346 0.00192472 0.00092420
v 0.00089346 0.00213859 0.00037530
v -0.01260673 0.00290494 0.00218933
v -0.01261486 0.00218718 0.00284861
v -0.01271645 0.00144435 0.00284861
v -0.01003185 -0.00025704 0.00284831
v -0.00135093 0.00000048 0.00284153
v -0.00121819 0.00090363 0.00283917
v 0.00089346 0.00014007 0.00215923
v -0.00117349 0.00188293 0.00262521
v 0.00089346 0.00085380 -0.00000451
v -0.01281668 0.00278362 -0.00016623
v -0.01281668 0.00278362 0.00012947
v -0.01278553 0.00290494 0.00055886
v -0.01281668 0.00278269 0.00038740
v -0.01269884 0.00192317 -0.00016623
v 0.00089346 0.00135583 0.00167525
v 0.00089346 0.00139576 0.00164869
v 0.00089346 0.00161861 0.00141939
v -0.01265008 0.00290494 0.00193436
v -0.01280043 0.00217635 0.00192492
v -0.01275166 0.00219214 0.00219258
v -0.01265956 0.00193431 0.00284861
v -0.01270561 0.00155887 0.00284861
v -0.01277198 0.00090302 0.00284831
v -0.01279230 0.00064488 0.00284831
v -0.01280313 0.00038706 0.00284831
v -0.01280449 0.00021342 0.00284831
v -0.01280449 -0.00012890 0.00284831
v -0.01280313 -0.00025704 0.00284831
v 0.00089346 0.00000326 0.00215923
v -0.00121819 0.00000048 0.00283917
v -0.01003185 -0.00025704 0.00191518
v 0.00089346 0.00044308 0.00207719
v 0.00089346 0.00064550 0.00201492
v 0.00089346 0.00089342 0.00193820
v 0.00089346 0.00091942 0.00192816
v 0.00089346 0.00000326 0.00085780
v -0.00289911 0.00000048 0.00092095
v -0.00289911 0.00091354 -0.00000008
v -0.01284106 0.00267312 -0.00016623
v -0.01284512 0.00265393 0.00038740
v -0.01278282 0.00290494 0.00064503
v -0.01269884 -0.00025704 0.00191842
v -0.01279772 -0.00025704 0.00195030
v -0.01289795 0.00199374 -0.00016623
v -0.01267988 0.00290494 0.00167673
v -0.01284106 0.00212250 0.00167673
v -0.01283158 0.00208071 0.00183196
v -0.01282074 0.00200983 0.00200430
v -0.01280043 0.00192843 0.00218019
v -0.01283293 0.00183805 0.00208605
v -0.01269207 0.00167680 0.00284861
v -0.01284241 0.00167680 0.00212943
v -0.01290878 0.00090302 0.00219258
v -0.01283293 0.00081635 0.00259983
v -0.01292910 0.00064488 0.00219258
v -0.01284512 0.00038706 0.00265443
v -0.01289253 0.00012923 0.00245051
v -0.01284648 0.00012923 0.00266180
v -0.01281803 0.00012923 0.00279106
v -0.01281803 -0.00012890 0.00279136
v -0.01281803 -0.00025704 0.00278752
v -0.01024992 -0.00025704 0.00191518
v -0.01244149 -0.00025704 0.00191547
v -0.01257152 -0.00025704 0.00191577
v -0.01288982 0.00245027 -0.00016623
v -0.01288982 0.00245027 0.00012947
v -0.01288847 0.00245027 0.00038740
v -0.01276792 0.00290494 0.00082622
v -0.01287763 0.00245027 0.00064503
v -0.01283293 0.00260069 0.00081678
v -0.01289524 -0.00025704 0.00199250
v -0.01291962 -0.00025704 0.00208900
v -0.01294265 0.00219214 -0.00016623
v -0.01276115 0.00290494 0.00090295
v -0.01287628 0.00193431 0.00167673
v -0.01290743 0.00219214 0.00090295
v -0.01290472 0.00193431 0.00141851
v -0.01284512 0.00192843 0.00192492
v -0.01287899 0.00167680 0.00193436
v -0.01293317 0.00116084 0.00193436
v -0.01293994 0.00038706 0.00219258
v -0.01288711 0.00038706 0.00245051
v -0.01289389 -0.00012890 0.00245051
v -0.01289118 -0.00025704 0.00245051
v -0.01294400 0.00219214 -0.00012875
v -0.01294400 0.00219214 0.00012947
v -0.01294129 0.00219214 0.00038740
v -0.01293046 0.00219214 0.00064503
v -0.01294129 -0.00025704 0.00219258
v -0.01291691 0.00167680 0.00167673
v -0.01293046 0.00193431 0.00116117
v -0.01293723 0.00167680 0.00141851
v -0.01291691 -0.00025704 0.00232243
f 1 2 6
f 1 6 13
f 1 13 39
f 1 39 58
f 1 58 87
f 1 87 114
f 1 114 120
f 1 120 91
f 1 91 64
f 1 64 47
f 1 47 22
f 1 22 11
f 1 11 7
f 1 7 3
f 1 3 4
f 1 4 5
f 1 5 2
f 2 5 6
f 3 7 4
f 4 8 9
f 4 9 10
f 4 10 12
f 4 12 5
f 4 7 11
f 4 11 8
f 5 12 6
f 6 12 14
f 6 14 40
f 6 40 60
f 6 60 90
f 6 90 119
f 6 119 111
f 6 111 85
f 6 85 56
f 6 56 38
f 6 38 13
f 8 11 9
f 9 11 15
f 9 15 16
f 9 16 17
f 9 17 18
f 9 18 19
f 9 19 20
f 9 20 21
f 9 21 10
f 10 21 12
f 11 22 48
f 11 48 67
f 11 67 97
f 11 97 68
f 11 68 49
f 11 49 23
f 11 23 24
f 11 24 25
f 11 25 26
f 11 26 27
f 11 27 28
f 11 28 29
f 11 29 30
f 11 30 31
f 11 31 32
f 11 32 33
f 11 33 34
f 11 34 35
f 11 35 36
f 11 36 17
f 11 17 16
f 11 16 15
f 12 21 37
f 12 37 14
f 13 38 39
f 14 37 55
f 14 55 40
f 17 36 18
f 18 41 42
f 18 42 43
f 18 43 44
f 18 44 45
f 18 45 46
f 18 46 19
f 18 36 35
f 18 35 41
f 19 46 45
f 19 45 44
f 19 44 43
f 19 43 42
f 19 42 63
f 19 63 62
f 19 62 61
f 19 61 81
f 19 81 80
f 19 80 79
f 19 79 78
f 19 78 53
f 19 53 75
f 19 75 82
f 19 82 55
f 19 55 37
f 19 37 21
f 19 21 20
f 22 47 48
f 23 49 74
f 23 74 50
f 23 50 51
f 23 51 24
f 24 51 76
f 24 76 52
f 24 52 26
f 24 26 25
f 26 29 28
f 26 28 27
f 26 52 53
f 26 53 54
f 26 54 29
f 29 54 30
f 30 54 31
f 31 54 41
f 31 41 32
f 32 41 33
f 33 41 34
f 34 41 35
f 38 56 57
f 38 57 39
f 39 57 59
f 39 59 58
f 40 55 60
f 41 54 61
f 41 61 62
f 41 62 63
f 41 63 42
f 47 64 65
f 47 65 66
f 47 66 48
f 48 66 67
f 49 68 69
f 49 69 70
f 49 70 71
f 49 71 72
f 49 72 73
f 49 73 74
f 50 75 76
f 50 76 51
f 50 74 107
f 50 107 130
f 50 130 139
f 50 139 135
f 50 135 118
f 50 118 117
f 50 117 89
f 50 89 88
f 50 88 110
f 50 110 109
f 50 109 108
f 50 108 77
f 50 77 82
f 50 82 75
f 52 76 75
f 52 75 53
f 53 78 54
f 54 78 79
f 54 79 80
f 54 80 81
f 54 81 61
f 55 82 83
f 55 83 84
f 55 84 60
f 56 85 57
f 57 85 86
f 57 86 59
f 58 59 86
f 58 86 87
f 60 88 89
f 60 89 90
f 60 84 88
f 64 91 92
f 64 92 93
f 64 93 65
f 65 93 94
f 65 94 66
f 66 94 95
f 66 95 67
f 67 95 96
f 67 96 97
f 68 97 98
f 68 98 99
f 68 99 100
f 68 100 69
f 69 100 70
f 70 100 101
f 70 101 102
f 70 102 71
f 71 102 103
f 71 103 104
f 71 104 105
f 71 105 72
f 72 105 106
f 72 106 73
f 73 106 107
f 73 107 74
f 77 108 82
f 82 108 109
f 82 109 110
f 82 110 83
f 83 110 88
f 83 88 84
f 85 111 112
f 85 112 86
f 86 112 113
f 86 113 87
f 87 113 115
f 87 115 116
f 87 116 114
f 89 117 90
f 90 117 118
f 90 118 119
f 91 120 116
f 91 116 92
f 92 121 93
f 92 116 122
f 92 122 123
f 92 123 121
f 93 121 124
f 93 124 94
f 94 124 96
f 94 96 95
f 96 124 125
f 96 125 98
f 96 98 97
f 98 125 126
f 98 126 99
f 99 126 101
f 99 101 100
f 101 126 127
f 101 127 128
f 101 128 102
f 102 128 103
f 103 129 104
f 103 128 127
f 103 127 129
f 104 129 105
f 105 129 106
f 106 129 107
f 107 129 130
f 111 119 131
f 111 131 132
f 111 132 112
f 112 132 113
f 113 132 133
f 113 133 134
f 113 134 115
f 114 116 120
f 115 134 116
f 116 134 122
f 118 135 119
f 119 135 131
f 121 123 136
f 121 136 124
f 122 134 137
f 122 137 123
f 123 137 136
f 124 136 125
f 125 136 126
f 126 136 138
f 126 138 127
f 127 138 132
f 127 132 135
f 127 135 129
f 129 135 139
f 129 139 130
f 131 135 132
f 132 138 133
f 133 138 137
f 133 137 134
f 136 137 138

