# https://github.com/mikedh/trimesh
v -0.00254748 0.00207463 0.01123851
v -0.00254748 0.00274666 0.01010871
v 0.00254886 0.00204753 0.01123851
v -0.00254748 0.00726941 0.01123851
v -0.00254748 0.00301325 0.00980352
v 0.00254886 0.00280916 0.01008294
v 0.00254886 0.00279090 0.01010871
v 0.00254886 0.00725060 0.01123851
v -0.00240629 0.00731698 0.01123851
v -0.00254748 0.00726498 0.01068250
v 0.00254886 0.00312166 0.00979939
v 0.00254886 0.00307078 0.00980280
v -0.00254748 0.00324058 0.00979483
v 0.00254886 0.00726498 0.01085688
v 0.00254586 0.00726830 0.01123851
v -0.00194679 0.00745083 0.01123851
v -0.00240030 0.00731421 0.01068250
v -0.00234193 0.00729485 0.01025760
v -0.00254748 0.00710624 0.01015710
v -0.00252054 0.00352986 0.00978487
v 0.00254886 0.00353373 0.00978700
v -0.00254748 0.00352986 0.00978487
v 0.00254886 0.00726388 0.01068250
v 0.00246005 0.00729706 0.01068250
v 0.00246404 0.00729817 0.01123851
v -0.00194679 0.00744530 0.01068250
v -0.00137255 0.00758136 0.01123851
v -0.00174074 0.00727383 0.00981206
v -0.00212341 0.00716266 0.00987497
v -0.00254748 0.00708412 0.01008408
v -0.00137255 0.00757528 0.01068250
v -0.00193781 0.00734076 0.01008323
v 0.00254886 0.00362610 0.00978430
v -0.00254748 0.00410398 0.00978430
v 0.00254886 0.00724784 0.01044350
v 0.00242413 0.00728379 0.01029333
v 0.00207090 0.00741156 0.01068250
v 0.00208288 0.00741322 0.01123851
v -0.00079881 0.00765880 0.01123851
v -0.00079881 0.00765382 0.01068250
v -0.00137255 0.00744308 0.01010871
v -0.00079881 0.00749176 0.01010871
v -0.00022457 0.00751886 0.01010871
v -0.00137255 0.00728711 0.00980522
v -0.00137255 0.00697294 0.00978658
v -0.00254748 0.00677991 0.00980337
v 0.00254886 0.00639937 0.00978430
v -0.00254748 0.00582525 0.00978430
v 0.00254886 0.00714883 0.01017760
v 0.00221259 0.00714275 0.00991070
v 0.00182993 0.00726886 0.00981533
v 0.00204097 0.00732472 0.01010472
v 0.00149666 0.00755260 0.01068250
v 0.00207090 0.00741654 0.01123851
v -0.00022457 0.00769807 0.01123851
v -0.00022457 0.00769585 0.01068250
v 0.00034868 0.00751554 0.01010871
v 0.00034868 0.00730149 0.00980309
v -0.00022457 0.00730204 0.00980309
v -0.00079881 0.00729651 0.00980309
v -0.00252054 0.00639937 0.00978430
v -0.00254748 0.00639937 0.00978458
v -0.00079881 0.00697294 0.00978430
v 0.00092292 0.00697294 0.00978430
v 0.00149666 0.00697294 0.00978886
v 0.00254886 0.00648842 0.00978729
v 0.00254886 0.00707859 0.01006800
v 0.00254886 0.00684739 0.00982700
v 0.00149666 0.00728324 0.00980750
v 0.00092292 0.00748512 0.01010871
v 0.00149666 0.00742760 0.01010871
v 0.00254886 0.00679429 0.00980295
v 0.00092292 0.00764220 0.01068250
v 0.00149666 0.00755702 0.01123851
v 0.00034868 0.00769309 0.01123851
v 0.00034868 0.00769032 0.01068250
v 0.00092292 0.00729540 0.00980309
v 0.00092292 0.00764608 0.01123851
v 0.00094088 0.00764331 0.01123851
f 1 2 3
f 1 3 8
f 1 8 15
f 1 15 25
f 1 25 38
f 1 38 54
f 1 54 74
f 1 74 79
f 1 79 78
f 1 78 75
f 1 75 55
f 1 55 39
f 1 39 27
f 1 27 16
f 1 16 9
f 1 9 4
f 1 4 10
f 1 10 19
f 1 19 30
f 1 30 46
f 1 46 62
f 1 62 48
f 1 48 34
f 1 34 22
f 1 22 13
f 1 13 5
f 1 5 2
f 2 5 6
f 2 6 7
f 2 7 3
f 3 7 6
f 3 6 12
f 3 12 11
f 3 11 21
f 3 21 33
f 3 33 47
f 3 47 66
f 3 66 72
f 3 72 68
f 3 68 67
f 3 67 49
f 3 49 35
f 3 35 23
f 3 23 14
f 3 14 8
f 4 9 10
f 5 11 12
f 5 12 6
f 5 13 11
f 8 14 15
f 9 16 17
f 9 17 10
f 10 18 19
f 10 17 18
f 11 13 20
f 11 20 21
f 13 22 20
f 14 23 24
f 14 24 15
f 15 24 25
f 16 26 17
f 16 27 26
f 17 26 18
f 18 28 29
f 18 29 30
f 18 30 19
f 18 26 31
f 18 31 32
f 18 32 28
f 20 22 33
f 20 33 21
f 22 34 33
f 23 35 24
f 24 35 36
f 24 36 37
f 24 37 38
f 24 38 25
f 26 27 31
f 27 39 40
f 27 40 31
f 28 32 41
f 28 41 42
f 28 42 43
f 28 43 44
f 28 44 45
f 28 45 46
f 28 46 29
f 29 46 30
f 31 40 41
f 31 41 32
f 33 34 48
f 33 48 61
f 33 61 63
f 33 63 64
f 33 64 47
f 35 49 36
f 36 49 50
f 36 50 51
f 36 51 52
f 36 52 53
f 36 53 37
f 37 53 54
f 37 54 38
f 39 55 56
f 39 56 40
f 40 56 42
f 40 42 41
f 42 56 43
f 43 56 57
f 43 57 58
f 43 58 59
f 43 59 60
f 43 60 44
f 44 60 45
f 45 61 62
f 45 62 46
f 45 60 63
f 45 63 61
f 47 64 65
f 47 65 66
f 48 62 61
f 49 67 50
f 50 67 68
f 50 68 51
f 51 69 70
f 51 70 71
f 51 71 52
f 51 68 72
f 51 72 69
f 52 71 53
f 53 73 74
f 53 74 54
f 53 71 73
f 55 75 56
f 56 75 76
f 56 76 57
f 57 76 70
f 57 70 69
f 57 69 77
f 57 77 58
f 58 77 64
f 58 64 59
f 59 64 63
f 59 63 60
f 64 77 65
f 65 77 69
f 65 69 72
f 65 72 66
f 70 76 73
f 70 73 71
f 73 78 79
f 73 79 74
f 73 76 78
f 75 78 76

