# https://github.com/mikedh/trimesh
v 0.00623296 0.00941507 0.00284861
v 0.00623296 0.00947191 0.00284861
v 0.00623855 0.00929622 0.00284861
v 0.00393091 0.00941507 0.00560530
v 0.00623376 0.00967285 0.00284861
v 0.00393091 0.00960683 0.00560530
v 0.00624654 0.00926005 0.00284861
v 0.00393091 0.00923307 0.00563795
v 0.00624734 0.00984968 0.00284861
v 0.00393091 0.00967285 0.00560653
v 0.00632165 0.00912800 0.00284861
v 0.00393091 0.00908954 0.00573220
v 0.00629289 0.00992432 0.00284861
v 0.00393091 0.00984624 0.00562809
v 0.00393091 0.00988758 0.00563918
v 0.00637918 0.00904188 0.00284861
v 0.00393091 0.00896036 0.00586033
v 0.00634642 0.00998633 0.00284861
v 0.00393091 0.00995475 0.00571803
v 0.00624574 0.01006728 0.00305744
v 0.00644870 0.00896553 0.00284861
v 0.01046789 0.00420370 0.00284922
v 0.00393091 0.00860268 0.00628477
v 0.00644790 0.01006441 0.00284861
v 0.00393091 0.01000412 0.00580612
v 0.00413626 0.01006383 0.00565643
v 0.00604358 0.01006728 0.00368393
v 0.00629608 0.01006670 0.00322500
v 0.00646788 0.01006441 0.00284861
v 0.00442552 0.01006728 0.00539647
v 0.00469080 0.01006843 0.00514144
v 0.00477230 0.01006843 0.00521228
v 0.00664766 0.00878123 0.00284861
v 0.01209395 0.00420370 0.00284922
v 0.00819941 0.00420313 0.00710839
v 0.00675633 0.00420313 0.00849629
v 0.00665645 0.00420313 0.00859362
v 0.00663088 0.00420313 0.00862011
v 0.00650463 0.00420313 0.00879013
v 0.00393091 0.00668222 0.00873900
v 0.00393091 0.00849187 0.00642091
v 0.00686740 0.00857914 0.00284861
v 0.00693292 0.00852000 0.00284861
v 0.00698726 0.00847465 0.00284861
v 0.00716145 0.00836097 0.00284861
v 0.00819941 0.00770359 0.00284861
v 0.00393091 0.01004718 0.00594658
v 0.00413626 0.01006383 0.00569832
v 0.00612988 0.01004259 0.00375847
v 0.00621458 0.01005120 0.00353239
v 0.00626332 0.01006039 0.00335991
v 0.00527970 0.01006728 0.00470098
v 0.00552740 0.01006670 0.00443486
v 0.00576232 0.01006326 0.00415149
v 0.00651822 0.01006096 0.00284861
v 0.00450622 0.01006728 0.00546177
v 0.00494410 0.01005637 0.00513220
v 0.00502720 0.01006728 0.00496033
v 0.01207717 0.00425710 0.00284922
v 0.01205160 0.00425710 0.00296688
v 0.01206918 0.00420370 0.00296319
v 0.00819941 0.00420313 0.00912709
v 0.00819941 0.00950865 0.00284861
v 0.00648066 0.00420313 0.00888561
v 0.00393091 0.00667303 0.00876980
v 0.00393091 0.01003398 0.00606239
v 0.00422895 0.01006383 0.00569832
v 0.00613068 0.01001274 0.00399934
v 0.00638877 0.00996336 0.00399934
v 0.00638877 0.00999322 0.00374122
v 0.00664686 0.00996968 0.00348249
v 0.00664686 0.00999723 0.00322500
v 0.00647667 0.01005235 0.00301801
v 0.00519899 0.01005522 0.00487285
v 0.00561610 0.00996106 0.00503055
v 0.00587339 0.00995532 0.00477244
v 0.00569920 0.01005120 0.00432336
v 0.00536280 0.01004259 0.00478107
v 0.00535720 0.01000585 0.00503055
v 0.00587339 0.00999207 0.00451433
v 0.00613068 0.00997944 0.00425745
v 0.00652381 0.01005981 0.00284861
v 0.00662289 0.01002996 0.00294594
v 0.00440075 0.01005178 0.00563425
v 0.00484182 0.00995762 0.00580428
v 0.00484182 0.01000240 0.00554616
v 0.00509991 0.01000642 0.00528867
v 0.00510790 0.01004489 0.00503979
v 0.01203562 0.00437479 0.00284922
v 0.01195092 0.00442647 0.00316648
v 0.01198368 0.00427547 0.00324163
v 0.01200765 0.00420370 0.00323732
v 0.01193015 0.00437365 0.00333834
v 0.00819301 0.00420313 0.00913818
v 0.01195811 0.00420370 0.00342028
v 0.01195651 0.00420370 0.00342582
v 0.01190857 0.00420370 0.00356997
v 0.01169603 0.00420370 0.00420632
v 0.01165847 0.00420370 0.00431720
v 0.01158736 0.00420370 0.00451741
v 0.01148348 0.00420370 0.00477183
v 0.01144832 0.00420370 0.00485252
v 0.01119423 0.00420370 0.00540694
v 0.01115587 0.00420370 0.00549011
v 0.01111512 0.00420370 0.00557265
v 0.01099686 0.00420370 0.00580859
v 0.01093933 0.00420370 0.00591762
v 0.00859334 0.00929393 0.00284922
v 0.00871319 0.00921183 0.00284922
v 0.00879310 0.00915499 0.00284922
v 0.00890177 0.00907633 0.00284922
v 0.00897208 0.00902294 0.00284922
v 0.00911351 0.00891385 0.00284922
v 0.00920540 0.00884151 0.00284922
v 0.00932446 0.00874162 0.00284922
v 0.00945311 0.00861186 0.00284922
v 0.00963369 0.00842584 0.00284922
v 0.00970640 0.00834949 0.00284922
v 0.00983505 0.00821169 0.00284922
v 0.00993094 0.00809285 0.00284922
v 0.01006837 0.00791946 0.00284922
v 0.01016745 0.00779028 0.00284922
v 0.01030010 0.00760427 0.00284922
v 0.01064528 0.00710592 0.00284922
v 0.01069322 0.00703588 0.00284922
v 0.01082667 0.00683953 0.00284922
v 0.01090817 0.00671724 0.00284922
v 0.01098328 0.00658347 0.00284922
v 0.01106398 0.00643821 0.00284922
v 0.01145152 0.00573605 0.00284922
v 0.01154261 0.00554659 0.00284922
v 0.01164249 0.00532153 0.00284922
v 0.01192775 0.00465440 0.00284922
v 0.01193334 0.00464119 0.00284922
v 0.01198528 0.00451431 0.00284922
v 0.00810192 0.00956434 0.00284861
v 0.00647427 0.00420313 0.00894044
v 0.00393091 0.00665466 0.00889855
v 0.00393091 0.00998460 0.00631989
v 0.00406835 0.01001733 0.00606177
v 0.00432564 0.00998288 0.00606177
v 0.00431925 0.01003398 0.00579257
v 0.00638877 0.00992604 0.00425745
v 0.00664686 0.00990250 0.00399934
v 0.00664686 0.00993925 0.00374122
v 0.00613068 0.00994327 0.00451433
v 0.00690416 0.00994269 0.00322500
v 0.00535720 0.00996451 0.00528867
v 0.00561610 0.00991571 0.00528867
v 0.00587339 0.00990997 0.00503055
v 0.00613068 0.00989906 0.00477244
v 0.00690416 0.00997829 0.00284861
v 0.00690416 0.00996738 0.00296688
v 0.00458373 0.00999494 0.00580428
v 0.00484182 0.00990365 0.00606177
v 0.00509991 0.00991111 0.00580428
v 0.00535720 0.00991686 0.00554616
v 0.00509991 0.00996221 0.00554616
v 0.00458373 0.00994614 0.00606177
v 0.01191496 0.00459813 0.00301062
v 0.01189659 0.00451373 0.00324163
v 0.01196530 0.00451373 0.00294163
v 0.01168564 0.00492309 0.00338085
v 0.01182467 0.00451431 0.00348311
v 0.01170002 0.00444139 0.00393897
v 0.01167046 0.00436963 0.00411084
v 0.01164888 0.00427317 0.00427470
v 0.00793652 0.00420313 0.00914126
v 0.01089379 0.00420370 0.00599524
v 0.01067644 0.00420370 0.00635438
v 0.01042475 0.00420370 0.00676958
v 0.01035443 0.00420370 0.00688354
v 0.01020900 0.00420370 0.00709299
v 0.01017145 0.00420370 0.00714351
v 0.01005639 0.00420370 0.00729689
v 0.00963689 0.00420370 0.00784885
v 0.00956817 0.00420370 0.00793756
v 0.00944112 0.00420370 0.00809156
v 0.00932606 0.00420370 0.00822216
v 0.00919821 0.00420370 0.00835953
v 0.00889458 0.00420370 0.00868109
v 0.00866924 0.00420370 0.00891641
v 0.00850384 0.00420370 0.00905995
v 0.00845430 0.00420370 0.00908027
v 0.00820021 0.00420428 0.00913756
v 0.00819301 0.00425652 0.00913818
v 0.01156978 0.00425710 0.00451494
v 0.01146750 0.00425021 0.00477183
v 0.01143714 0.00443048 0.00468435
v 0.01110553 0.00425997 0.00554740
v 0.01097289 0.00425997 0.00581352
v 0.01088659 0.00434838 0.00590407
v 0.00859094 0.00929163 0.00287079
v 0.00869002 0.00920436 0.00296072
v 0.00856297 0.00927498 0.00304266
v 0.00888499 0.00906313 0.00296688
v 0.00901443 0.00896438 0.00296688
v 0.00917744 0.00883520 0.00296688
v 0.00913669 0.00880362 0.00322500
v 0.00930688 0.00872439 0.00296688
v 0.00943553 0.00859521 0.00296688
v 0.00965127 0.00829437 0.00322500
v 0.00968883 0.00833284 0.00296688
v 0.00962650 0.00826853 0.00338886
v 0.00979830 0.00811696 0.00325025
v 0.00987021 0.00799582 0.00335313
v 0.01013469 0.00774550 0.00311658
v 0.01067884 0.00701464 0.00296688
v 0.01090737 0.00671552 0.00285908
v 0.01081708 0.00681541 0.00295395
v 0.01095611 0.00658749 0.00295395
v 0.01115427 0.00618043 0.00306914
v 0.01143793 0.00571079 0.00296688
v 0.01151544 0.00554659 0.00296688
v 0.01142115 0.00568094 0.00310672
v 0.01156978 0.00528881 0.00322500
v 0.01163130 0.00528077 0.00297489
v 0.01166966 0.00514413 0.00306668
v 0.00794691 0.00963266 0.00284861
v 0.00809233 0.00955917 0.00290651
v 0.00649265 0.00420313 0.00904639
v 0.00393091 0.00667992 0.00905194
v 0.00393091 0.00995590 0.00645603
v 0.00406835 0.00996738 0.00631989
v 0.00638877 0.00988011 0.00451433
v 0.00666444 0.00984796 0.00427100
v 0.00690256 0.00982901 0.00397469
v 0.00690416 0.00986920 0.00374122
v 0.00690416 0.00990997 0.00348249
v 0.00716225 0.00987035 0.00322500
v 0.00716225 0.00990193 0.00296688
v 0.00716225 0.00991628 0.00284861
v 0.00702241 0.00995130 0.00284861
v 0.00563208 0.00984853 0.00556341
v 0.00588537 0.00984509 0.00529914
v 0.00613707 0.00984107 0.00503363
v 0.00629688 0.00981409 0.00494986
v 0.00638478 0.00983016 0.00475704
v 0.00432564 0.00993064 0.00631989
v 0.00458373 0.00988528 0.00631989
v 0.00483223 0.00983303 0.00631989
v 0.00502320 0.00981524 0.00623364
v 0.00510551 0.00984222 0.00606855
v 0.00536999 0.00984681 0.00581844
v 0.01179031 0.00477267 0.00322500
v 0.01143953 0.00546449 0.00341720
v 0.01148348 0.00530373 0.00349543
v 0.01141077 0.00539961 0.00358968
v 0.01165607 0.00485419 0.00355334
v 0.01171920 0.00477037 0.00347325
v 0.01155939 0.00451431 0.00425683
v 0.01139559 0.00484845 0.00431967
v 0.01146830 0.00451546 0.00451248
v 0.00793652 0.00451488 0.00914126
v 0.00535720 0.00721501 0.00914188
v 0.00716225 0.00420313 0.00914126
v 0.01064129 0.00489381 0.00592748
v 0.01067804 0.00472157 0.00598847
v 0.01017385 0.00477267 0.00678128
v 0.01012510 0.00463487 0.00695808
v 0.01016106 0.00446321 0.00700921
v 0.01009794 0.00431279 0.00718108
v 0.00992614 0.00451431 0.00729443
v 0.00968723 0.00450340 0.00761415
v 0.00958575 0.00458091 0.00770285
v 0.00948507 0.00451660 0.00786795
v 0.00938519 0.00445230 0.00803181
v 0.00942834 0.00425710 0.00808109
v 0.00931487 0.00425710 0.00820984
v 0.00918543 0.00425710 0.00834844
v 0.00906397 0.00425710 0.00847719
v 0.00913828 0.00446666 0.00829731
v 0.00854300 0.00431336 0.00898910
v 0.00888339 0.00446895 0.00855850
v 0.00835922 0.00451431 0.00905317
v 0.00845510 0.00423930 0.00907473
v 0.00820021 0.00451431 0.00910800
v 0.00819301 0.00451488 0.00910984
v 0.00820021 0.00425652 0.00913695
v 0.00793652 0.00477267 0.00913387
v 0.00767843 0.00503045 0.00914126
v 0.01140038 0.00460215 0.00459688
v 0.01115507 0.00514757 0.00463014
v 0.01119183 0.00497533 0.00471146
v 0.01123737 0.00478644 0.00478784
v 0.01136043 0.00451546 0.00477183
v 0.01111192 0.00452349 0.00529421
v 0.01089538 0.00462741 0.00566074
v 0.01093214 0.00445517 0.00573282
v 0.01068044 0.00503102 0.00574391
v 0.00846709 0.00934330 0.00296072
v 0.00885702 0.00904188 0.00314183
v 0.00839677 0.00932608 0.00322500
v 0.00832006 0.00928417 0.00360385
v 0.00852542 0.00925202 0.00322500
v 0.00872598 0.00911193 0.00322685
v 0.00910952 0.00878008 0.00338455
v 0.00926533 0.00868363 0.00322500
v 0.00939638 0.00855502 0.00322500
v 0.00952582 0.00842355 0.00322500
v 0.00970321 0.00813706 0.00347818
v 0.00936921 0.00852632 0.00338824
v 0.00948027 0.00837991 0.00347449
v 0.00942514 0.00832480 0.00374122
v 0.00934843 0.00824729 0.00411268
v 0.00959214 0.00823064 0.00356073
v 0.00966326 0.00805783 0.00374122
v 0.00984464 0.00796310 0.00348311
v 0.00994612 0.00783449 0.00348311
v 0.01010992 0.00771220 0.00328845
v 0.01063330 0.00694861 0.00331309
v 0.01065647 0.00698249 0.00314122
v 0.01072199 0.00685273 0.00322623
v 0.01088659 0.00667935 0.00303095
v 0.01103761 0.00632052 0.00322500
v 0.01145871 0.00554889 0.00320590
v 0.01133965 0.00578198 0.00320590
v 0.01139878 0.00563673 0.00327921
v 0.00795730 0.00960568 0.00298229
v 0.00779589 0.00969524 0.00284861
v 0.00767843 0.00968319 0.00322500
v 0.00789817 0.00958960 0.00322500
v 0.00784543 0.00956434 0.00348249
v 0.00820021 0.00943229 0.00322500
v 0.00664766 0.00420313 0.00910492
v 0.00393091 0.00683206 0.00910553
v 0.00393091 0.00992891 0.00657738
v 0.00406835 0.00991054 0.00657738
v 0.00658214 0.00982270 0.00451433
v 0.00676272 0.00979744 0.00436587
v 0.00681546 0.00981524 0.00419400
v 0.00698726 0.00978653 0.00404492
v 0.00707195 0.00981524 0.00374122
v 0.00716624 0.00983246 0.00346278
v 0.00729569 0.00980318 0.00336360
v 0.00737799 0.00983303 0.00296688
v 0.00740755 0.00983935 0.00284861
v 0.00729409 0.00987552 0.00284861
v 0.00555697 0.00982098 0.00574144
v 0.00572876 0.00979744 0.00565951
v 0.00580707 0.00982040 0.00548764
v 0.00622736 0.00979227 0.00512173
v 0.00605637 0.00981753 0.00521906
v 0.00638478 0.00976586 0.00503363
v 0.00646868 0.00978653 0.00483281
v 0.00434641 0.00985255 0.00659956
v 0.00458373 0.00982557 0.00652256
v 0.00491134 0.00978825 0.00640551
v 0.00473954 0.00980835 0.00646711
v 0.00509991 0.00968778 0.00657738
v 0.00510551 0.00976758 0.00631989
v 0.00535720 0.00970271 0.00631989
v 0.00529168 0.00981811 0.00599031
v 0.01137161 0.00554889 0.00349543
v 0.01117984 0.00545530 0.00418414
v 0.01114948 0.00539330 0.00435601
v 0.01122139 0.00529972 0.00426484
v 0.01143234 0.00467679 0.00442439
v 0.00535720 0.00735108 0.00914188
v 0.00393091 0.00721501 0.00914188
v 0.00690416 0.00425652 0.00914126
v 0.00690416 0.00420313 0.00914003
v 0.01061092 0.00503102 0.00587265
v 0.01048068 0.00504423 0.00607779
v 0.01014108 0.00492538 0.00672584
v 0.01036482 0.00485075 0.00641229
v 0.01009394 0.00477267 0.00691003
v 0.00991416 0.00498337 0.00702215
v 0.00995730 0.00477037 0.00710223
v 0.00988939 0.00468310 0.00724576
v 0.01006757 0.00453555 0.00709422
v 0.00984863 0.00485534 0.00719402
v 0.00934604 0.00462397 0.00798437
v 0.00924136 0.00454589 0.00814146
v 0.00909434 0.00463889 0.00825111
v 0.00862769 0.00447067 0.00881785
v 0.00832326 0.00464464 0.00902791
v 0.00810352 0.00496557 0.00905748
v 0.00795170 0.00504365 0.00909075
v 0.00767843 0.00528823 0.00911970
v 0.00742034 0.00554659 0.00913387
v 0.00716225 0.00580437 0.00913941
v 0.00690416 0.00606216 0.00914126
v 0.01112471 0.00504882 0.00478784
v 0.01118703 0.00522163 0.00445827
v 0.01112471 0.00529972 0.00453281
v 0.01102563 0.00528881 0.00477306
v 0.01090257 0.00515963 0.00515992
v 0.01086981 0.00503102 0.00534780
v 0.01077633 0.00503102 0.00554678
v 0.01064928 0.00516996 0.00568662
v 0.00878750 0.00899021 0.00348311
v 0.00820021 0.00937086 0.00350282
v 0.00781507 0.00954827 0.00362849
v 0.00816105 0.00933814 0.00374122
v 0.00820021 0.00931689 0.00374122
v 0.00829050 0.00926637 0.00374122
v 0.00847667 0.00913030 0.00376402
v 0.00861491 0.00905279 0.00369379
v 0.00922138 0.00863712 0.00347264
v 0.00873077 0.00886850 0.00401289
v 0.00883065 0.00876286 0.00410837
v 0.00916705 0.00858201 0.00374122
v 0.00909034 0.00850565 0.00411145
v 0.00923737 0.00839427 0.00402644
v 0.00918942 0.00834661 0.00425683
v 0.00931887 0.00821284 0.00425683
v 0.00942754 0.00808366 0.00425683
v 0.00959374 0.00797171 0.00408065
v 0.00966166 0.00779832 0.00425683
v 0.00986941 0.00773689 0.00386689
v 0.00990377 0.00778052 0.00369564
v 0.01007556 0.00766340 0.00348311
v 0.01016665 0.00753480 0.00348311
v 0.01040157 0.00724429 0.00339379
v 0.01060293 0.00690498 0.00348311
v 0.01069083 0.00677637 0.00348311
v 0.01086102 0.00663571 0.00322500
v 0.01093374 0.00650711 0.00322500
v 0.01091296 0.00646807 0.00338270
v 0.01117984 0.00596857 0.00340796
v 0.01123338 0.00581758 0.00348927
v 0.00767284 0.00974290 0.00284861
v 0.00767843 0.00972452 0.00296688
v 0.00739717 0.00975093 0.00346278
v 0.00742034 0.00969352 0.00374122
v 0.00767843 0.00963783 0.00348249
v 0.00768402 0.00958731 0.00372521
v 0.00664686 0.00425652 0.00911539
v 0.00406835 0.00683666 0.00912832
v 0.00393091 0.00709444 0.00914126
v 0.00393091 0.00989332 0.00671291
v 0.00393091 0.00985657 0.00683796
v 0.00405556 0.00983476 0.00683981
v 0.00427450 0.00981925 0.00675726
v 0.00662849 0.00975208 0.00475704
v 0.00690416 0.00971821 0.00451433
v 0.00690256 0.00976988 0.00427100
v 0.00716225 0.00968319 0.00425745
v 0.00713748 0.00974806 0.00397469
v 0.00725494 0.00978940 0.00353670
v 0.00745390 0.00976701 0.00322500
v 0.00753141 0.00979572 0.00284861
v 0.00563208 0.00977849 0.00581844
v 0.00546348 0.00979572 0.00591270
v 0.00587339 0.00971591 0.00580428
v 0.00588537 0.00977792 0.00556341
v 0.00613707 0.00977275 0.00529914
v 0.00638877 0.00969984 0.00528867
v 0.00664686 0.00968146 0.00503055
v 0.00444629 0.00979973 0.00670059
v 0.00483223 0.00975553 0.00656321
v 0.00458373 0.00972510 0.00683550
v 0.00484182 0.00966194 0.00683550
v 0.00509432 0.00959133 0.00683981
v 0.00529328 0.00956606 0.00675603
v 0.00537079 0.00960510 0.00659217
v 0.00563527 0.00961257 0.00634021
v 0.00587339 0.00963553 0.00606177
v 0.00561610 0.00971132 0.00606177
v 0.01119103 0.00573031 0.00374122
v 0.01113430 0.00562697 0.00405539
v 0.01110393 0.00554372 0.00426484
v 0.01099047 0.00556726 0.00453404
v 0.00509991 0.00761001 0.00914188
v 0.00393091 0.00812558 0.00914188
v 0.01043114 0.00524115 0.00600325
v 0.01037680 0.00513953 0.00617512
v 0.01009554 0.00509762 0.00665377
v 0.01000525 0.00504021 0.00684350
v 0.00986861 0.00515561 0.00696055
v 0.00981428 0.00505399 0.00710223
v 0.00960812 0.00489208 0.00747369
v 0.00930528 0.00477267 0.00793386
v 0.00907915 0.00512633 0.00797267
v 0.00912630 0.00495466 0.00802934
v 0.00917664 0.00477267 0.00808355
v 0.00905758 0.00477267 0.00821230
v 0.00882746 0.00513839 0.00824187
v 0.00883784 0.00464062 0.00851046
v 0.00858055 0.00464291 0.00876980
v 0.00839757 0.00474740 0.00889670
v 0.00827611 0.00481630 0.00897986
v 0.00804759 0.00513724 0.00901436
v 0.00781906 0.00543464 0.00903777
v 0.00758734 0.00572744 0.00905502
v 0.00786780 0.00528823 0.00906364
v 0.00767523 0.00553109 0.00907288
v 0.00742993 0.00580954 0.00908828
v 0.00717903 0.00607823 0.00909444
v 0.00664686 0.00657887 0.00911354
v 0.00638877 0.00657887 0.00914126
v 0.01093454 0.00547712 0.00477306
v 0.01090337 0.00541913 0.00490304
v 0.01060373 0.00534220 0.00559360
v 0.01038399 0.00567175 0.00567183
v 0.01043194 0.00550009 0.00575807
v 0.01051744 0.00529168 0.00580797
v 0.00870440 0.00896495 0.00376402
v 0.00777352 0.00952702 0.00380098
v 0.00791495 0.00947191 0.00372521
v 0.00810112 0.00930541 0.00399934
v 0.00823057 0.00922790 0.00399872
v 0.00842074 0.00909872 0.00399872
v 0.00820021 0.00924627 0.00399872
v 0.00857895 0.00902638 0.00386504
v 0.00854939 0.00900629 0.00399872
v 0.00866445 0.00883290 0.00425683
v 0.00861411 0.00879501 0.00444841
v 0.00879310 0.00872956 0.00425683
v 0.00892973 0.00860095 0.00425683
v 0.00905838 0.00847522 0.00425683
v 0.00913029 0.00828805 0.00451494
v 0.00909833 0.00825533 0.00464677
v 0.00927252 0.00812213 0.00452850
v 0.00938599 0.00803371 0.00445149
v 0.00955698 0.00792750 0.00425683
v 0.00962810 0.00775641 0.00441946
v 0.00984304 0.00770244 0.00399872
v 0.00986621 0.00747394 0.00437449
v 0.00999885 0.00734993 0.00425437
v 0.01056058 0.00682403 0.00373937
v 0.01065887 0.00672930 0.00365190
v 0.01038879 0.00671092 0.00439174
v 0.01082347 0.00656395 0.00347449
v 0.01064768 0.00645544 0.00413671
v 0.01061652 0.00639975 0.00430919
v 0.01088180 0.00641238 0.00355457
v 0.01111991 0.00586006 0.00374122
v 0.00742034 0.00963783 0.00399934
v 0.00759213 0.00956492 0.00399934
v 0.00393091 0.00982729 0.00692975
v 0.00405556 0.00975438 0.00707513
v 0.00413307 0.00978997 0.00692790
v 0.00393091 0.00976529 0.00711147
v 0.00432564 0.00969409 0.00709361
v 0.00434641 0.00977562 0.00683981
v 0.00690416 0.00965505 0.00477244
v 0.00718382 0.00960970 0.00453404
v 0.00742034 0.00958271 0.00423589
v 0.00615545 0.00961659 0.00582953
v 0.00613068 0.00970902 0.00554616
v 0.00640795 0.00961085 0.00556464
v 0.00665965 0.00960223 0.00529914
v 0.00690416 0.00958673 0.00502070
v 0.00484182 0.00958042 0.00704679
v 0.00460930 0.00961544 0.00711825
v 0.00500563 0.00955573 0.00698888
v 0.00517742 0.00952702 0.00692790
v 0.00537079 0.00950176 0.00683981
v 0.00546508 0.00953564 0.00668827
v 0.00556256 0.00957123 0.00651640
v 0.00587339 0.00956779 0.00624904
v 0.00600283 0.00954425 0.00619052
v 0.00606596 0.00956893 0.00606177
v 0.01096330 0.00581012 0.00425190
v 0.01093134 0.00572802 0.00446073
v 0.01089778 0.00566773 0.00463322
v 0.00484182 0.00786664 0.00913756
v 0.00432564 0.00812558 0.00914126
v 0.00406835 0.00812558 0.00914188
v 0.00613068 0.00683666 0.00914126
v 0.00587339 0.00709444 0.00914003
v 0.00393091 0.00838336 0.00913140
v 0.01038399 0.00541339 0.00592933
v 0.01014987 0.00519867 0.00648190
v 0.00982866 0.00559884 0.00664022
v 0.00960892 0.00592666 0.00669997
v 0.00960093 0.00565453 0.00694638
v 0.00964887 0.00548286 0.00701106
v 0.00958175 0.00536057 0.00718293
v 0.00967284 0.00503102 0.00729689
v 0.00956977 0.00503102 0.00742626
v 0.00922298 0.00502528 0.00786363
v 0.00909993 0.00542315 0.00774228
v 0.00903361 0.00528881 0.00791723
v 0.00885942 0.00545014 0.00801887
v 0.00890496 0.00528881 0.00806877
v 0.00878431 0.00528881 0.00819813
v 0.00857016 0.00514068 0.00850121
v 0.00831287 0.00514183 0.00876056
v 0.00820021 0.00505801 0.00891641
v 0.00799725 0.00528823 0.00896508
v 0.00820021 0.00528881 0.00877288
v 0.00775913 0.00560745 0.00898233
v 0.00752182 0.00589968 0.00900450
v 0.00735002 0.00600187 0.00906241
v 0.00710392 0.00627459 0.00906549
v 0.00692893 0.00634520 0.00909629
v 0.00683863 0.00657887 0.00905687
v 0.00634163 0.00704392 0.00906549
v 0.00615146 0.00711568 0.00909506
v 0.01086422 0.00560573 0.00477306
v 0.01059814 0.00607421 0.00478846
v 0.01051584 0.00554659 0.00554678
v 0.01064608 0.00542086 0.00542173
v 0.01011791 0.00617182 0.00565335
v 0.01016506 0.00599958 0.00574206
v 0.01011791 0.00591288 0.00591393
v 0.00772078 0.00950004 0.00399934
v 0.00793652 0.00939095 0.00399934
v 0.00806676 0.00928704 0.00413240
v 0.00820021 0.00915843 0.00425252
v 0.00836960 0.00906083 0.00421186
v 0.00801802 0.00925948 0.00430488
v 0.00845430 0.00897471 0.00428147
v 0.00856777 0.00875884 0.00462028
v 0.00847028 0.00886735 0.00452665
v 0.00839597 0.00882314 0.00477306
v 0.00834723 0.00878927 0.00494678
v 0.00888099 0.00855158 0.00446258
v 0.00915986 0.00811926 0.00474903
v 0.00934524 0.00798434 0.00462398
v 0.00883385 0.00850737 0.00463507
v 0.00861491 0.00854354 0.00496094
v 0.00856617 0.00849819 0.00513281
v 0.00882985 0.00824442 0.00514329
v 0.00958815 0.00770876 0.00459133
v 0.00969762 0.00761690 0.00450940
v 0.00980389 0.00760656 0.00427593
v 0.00983665 0.00743203 0.00451494
v 0.00992694 0.00730342 0.00451494
v 0.01006677 0.00709329 0.00453158
v 0.01062690 0.00667935 0.00382439
v 0.01012191 0.00695550 0.00462829
v 0.01035283 0.00665983 0.00456361
v 0.01043753 0.00657600 0.00449277
v 0.01041116 0.00648759 0.00469421
v 0.01058296 0.00631592 0.00452049
v 0.01066446 0.00622693 0.00443794
v 0.00733404 0.00956549 0.00446012
v 0.00755458 0.00954654 0.00413671
v 0.00393091 0.00972854 0.00721435
v 0.00393091 0.00967917 0.00735172
v 0.00453978 0.00956951 0.00727595
v 0.00406835 0.00964989 0.00735172
v 0.00431685 0.00959018 0.00735788
v 0.00710631 0.00957640 0.00477244
v 0.00728450 0.00954080 0.00463199
v 0.00633444 0.00957468 0.00575992
v 0.00658294 0.00957123 0.00549072
v 0.00675553 0.00953506 0.00539216
v 0.00681866 0.00956319 0.00522029
v 0.00471238 0.00954367 0.00722236
v 0.00484182 0.00943976 0.00735172
v 0.00548505 0.00928589 0.00722112
v 0.00561610 0.00932206 0.00704063
v 0.00576472 0.00929335 0.00698149
v 0.00585980 0.00932550 0.00682564
v 0.00587339 0.00942770 0.00657738
v 0.00563527 0.00951210 0.00659217
v 0.00573515 0.00953965 0.00643939
v 0.00612269 0.00933239 0.00657369
v 0.00629928 0.00930139 0.00648498
v 0.00638637 0.00933526 0.00631681
v 0.00619380 0.00951726 0.00606177
v 0.00625773 0.00954252 0.00593118
v 0.01071720 0.00607421 0.00452049
v 0.01063090 0.00616665 0.00460981
v 0.01046310 0.00632741 0.00477737
v 0.01067804 0.00599499 0.00471330
v 0.00458373 0.00812558 0.00912155
v 0.00561610 0.00735108 0.00913387
v 0.00535720 0.00761001 0.00912586
v 0.00406835 0.00838336 0.00912093
v 0.00393091 0.00858488 0.00907473
v 0.01016426 0.00574122 0.00599031
v 0.00974636 0.00581241 0.00658416
v 0.00943233 0.00605756 0.00683057
v 0.00937880 0.00596857 0.00699443
v 0.00956577 0.00582619 0.00685090
v 0.00989098 0.00596800 0.00622132
v 0.00994292 0.00605756 0.00605869
v 0.00989658 0.00622980 0.00597245
v 0.00941795 0.00578600 0.00708560
v 0.00936202 0.00568725 0.00723098
v 0.00940117 0.00554659 0.00728026
v 0.00880348 0.00562180 0.00795357
v 0.00863169 0.00574811 0.00804844
v 0.00870440 0.00553798 0.00811990
v 0.00860612 0.00545416 0.00827822
v 0.00912071 0.00571137 0.00750942
v 0.00865566 0.00528881 0.00832811
v 0.00826333 0.00528881 0.00871313
v 0.00778950 0.00590887 0.00875440
v 0.00768882 0.00581873 0.00890656
v 0.00820021 0.00552190 0.00862011
v 0.00820021 0.00582102 0.00842298
v 0.00727571 0.00617469 0.00901498
v 0.00808275 0.00621488 0.00827144
v 0.00791415 0.00629468 0.00836384
v 0.00717903 0.00634520 0.00897247
v 0.00703040 0.00644682 0.00902545
v 0.00677631 0.00670863 0.00902853
v 0.00664686 0.00676948 0.00905687
v 0.00625134 0.00721501 0.00902175
v 0.00607954 0.00728390 0.00906426
v 0.00651422 0.00696182 0.00902545
v 0.00588058 0.00736199 0.00909013
v 0.01036721 0.00641754 0.00486669
v 0.01006757 0.00632511 0.00555910
v 0.00988859 0.00647553 0.00570695
v 0.00994212 0.00631765 0.00579812
v 0.01007876 0.00607651 0.00581906
v 0.00770000 0.00936110 0.00453404
v 0.00780068 0.00928187 0.00463199
v 0.00820021 0.00906255 0.00451494
v 0.00793412 0.00923192 0.00453404
v 0.00795570 0.00912513 0.00478723
v 0.00832246 0.00902753 0.00438435
v 0.00820021 0.00896725 0.00476135
v 0.00866685 0.00859177 0.00477306
v 0.00829929 0.00875080 0.00511926
v 0.00819941 0.00895749 0.00478723
v 0.00820580 0.00885529 0.00503179
v 0.00912470 0.00802970 0.00495109
v 0.00930369 0.00793439 0.00477306
v 0.00941076 0.00780579 0.00477306
v 0.00955379 0.00761690 0.00479770
v 0.00965846 0.00753652 0.00472809
v 0.00851823 0.00845685 0.00528867
v 0.00865886 0.00832709 0.00528867
v 0.00860772 0.00828002 0.00545930
v 0.00878830 0.00819792 0.00528867
v 0.00890097 0.00806874 0.00528867
v 0.00989098 0.00725118 0.00468189
v 0.01030888 0.00657600 0.00477737
v 0.01015067 0.00648185 0.00520181
v 0.01010593 0.00641410 0.00537368
v 0.00742034 0.00950176 0.00453404
v 0.00750663 0.00952243 0.00430858
v 0.00393091 0.00962233 0.00749341
v 0.00406835 0.00957238 0.00753837
v 0.00422416 0.00955114 0.00749525
v 0.00439595 0.00952702 0.00744782
v 0.00460930 0.00950922 0.00735788
v 0.00705118 0.00955286 0.00492706
v 0.00742673 0.00934101 0.00502871
v 0.00757615 0.00929852 0.00494185
v 0.00762889 0.00932608 0.00477244
v 0.00665965 0.00951095 0.00556464
v 0.00704718 0.00929278 0.00569216
v 0.00710232 0.00931919 0.00554616
v 0.00728370 0.00928187 0.00540694
v 0.00690416 0.00949717 0.00529914
v 0.00481945 0.00932378 0.00760367
v 0.00502001 0.00930254 0.00751373
v 0.00519180 0.00927211 0.00745460
v 0.00538277 0.00924570 0.00736158
v 0.00563447 0.00912915 0.00737205
v 0.00561610 0.00925891 0.00716938
v 0.00585980 0.00919747 0.00707759
v 0.00593651 0.00925603 0.00690511
v 0.00620419 0.00926178 0.00665685
v 0.00603240 0.00929795 0.00673324
v 0.00647107 0.00926579 0.00640058
v 0.00655098 0.00930082 0.00622871
v 0.00638877 0.00943631 0.00606177
v 0.00640795 0.00951726 0.00582953
v 0.00483063 0.00812959 0.00907658
v 0.00458373 0.00830585 0.00906426
v 0.00431685 0.00839082 0.00908089
v 0.00512069 0.00788903 0.00909321
v 0.00560810 0.00760886 0.00907904
v 0.00535720 0.00781497 0.00906980
v 0.00406835 0.00855847 0.00906426
v 0.00393091 0.00871348 0.00896446
v 0.00960892 0.00618502 0.00644186
v 0.00904480 0.00659610 0.00685398
v 0.00908794 0.00643649 0.00695131
v 0.00931887 0.00614024 0.00691250
v 0.00885622 0.00673102 0.00698642
v 0.00889857 0.00655763 0.00708067
v 0.00907596 0.00616148 0.00719772
v 0.00913589 0.00598924 0.00726733
v 0.00930768 0.00585949 0.00716630
v 0.00983745 0.00640147 0.00587881
v 0.00960652 0.00669772 0.00592255
v 0.00937480 0.00699339 0.00596259
v 0.00966725 0.00626999 0.00626999
v 0.00887620 0.00572974 0.00778232
v 0.00857176 0.00592035 0.00798499
v 0.00834004 0.00621602 0.00801456
v 0.00839357 0.00606273 0.00806877
v 0.00854699 0.00562639 0.00822093
v 0.00844551 0.00553683 0.00837678
v 0.00896969 0.00580667 0.00761106
v 0.00813708 0.00606216 0.00832257
v 0.00831527 0.00592207 0.00824618
v 0.00820021 0.00606273 0.00826220
v 0.00801243 0.00638711 0.00820614
v 0.00826653 0.00606273 0.00819752
v 0.00820021 0.00629066 0.00809834
v 0.00784064 0.00648816 0.00828314
v 0.00766884 0.00656796 0.00837493
v 0.00759533 0.00676087 0.00829423
v 0.00732525 0.00674594 0.00854187
v 0.00705438 0.00672930 0.00878828
v 0.00696728 0.00657887 0.00897555
v 0.00653180 0.00723625 0.00878212
v 0.00716864 0.00709961 0.00838787
v 0.00709113 0.00727816 0.00830039
v 0.00682904 0.00753193 0.00829731
v 0.00626412 0.00748427 0.00877350
v 0.00597167 0.00745557 0.00900635
v 0.00551701 0.00776158 0.00904578
v 0.00579908 0.00752332 0.00905687
v 0.00654938 0.00750896 0.00853818
v 0.00656536 0.00777823 0.00828992
v 0.00992135 0.00656796 0.00552522
v 0.00982946 0.00664719 0.00559668
v 0.00959773 0.00694287 0.00564657
v 0.00965686 0.00677178 0.00575130
v 0.00956018 0.00684871 0.00582460
v 0.00775753 0.00925891 0.00477244
v 0.00805478 0.00902064 0.00488333
v 0.00787979 0.00907748 0.00503055
v 0.00824415 0.00870257 0.00528867
v 0.00838958 0.00857340 0.00528867
v 0.00811471 0.00880477 0.00528867
v 0.00806916 0.00877377 0.00542419
v 0.00800843 0.00899021 0.00503055
v 0.00885622 0.00801649 0.00544698
v 0.00930129 0.00741538 0.00554678
v 0.00939158 0.00752446 0.00522460
v 0.00961212 0.00747853 0.00489934
v 0.00975195 0.00736486 0.00479092
v 0.00834084 0.00852747 0.00544267
v 0.00844471 0.00837704 0.00553692
v 0.00831687 0.00824844 0.00592440
v 0.00854939 0.00822433 0.00563117
v 0.00870680 0.00812041 0.00553939
v 0.01004360 0.00657198 0.00528805
v 0.00958335 0.00717941 0.00536136
v 0.00954100 0.00709387 0.00555540
v 0.00968563 0.00709387 0.00528066
v 0.00393091 0.00958444 0.00758150
v 0.00406835 0.00950808 0.00766774
v 0.00393091 0.00954080 0.00767698
v 0.00458373 0.00930713 0.00777924
v 0.00471877 0.00928761 0.00774105
v 0.00718382 0.00936225 0.00530838
v 0.00751622 0.00926867 0.00511372
v 0.00664686 0.00942425 0.00580428
v 0.00689297 0.00932263 0.00578949
v 0.00672277 0.00926005 0.00613200
v 0.00697128 0.00925431 0.00586465
v 0.00714547 0.00919345 0.00578949
v 0.00723176 0.00925316 0.00554616
v 0.00742673 0.00923938 0.00530838
v 0.00489056 0.00925718 0.00768560
v 0.00510311 0.00921986 0.00760367
v 0.00535481 0.00910217 0.00761415
v 0.00556016 0.00906198 0.00753221
v 0.00573196 0.00902236 0.00747061
v 0.00587339 0.00906887 0.00728642
v 0.00601162 0.00903270 0.00723098
v 0.00637439 0.00908035 0.00682564
v 0.00612269 0.00920781 0.00682564
v 0.00638637 0.00921699 0.00657369
v 0.00663807 0.00908552 0.00656753
v 0.00664047 0.00921470 0.00631681
v 0.00504797 0.00804577 0.00906056
v 0.00473715 0.00826739 0.00903962
v 0.00422496 0.00852574 0.00904085
v 0.00406835 0.00868765 0.00893489
v 0.00420818 0.00877434 0.00877658
v 0.00393091 0.00876573 0.00890348
v 0.00908555 0.00694919 0.00643200
v 0.00878830 0.00690268 0.00689463
v 0.00861571 0.00700602 0.00700367
v 0.00869881 0.00682345 0.00708129
v 0.00861091 0.00674365 0.00725562
v 0.00835282 0.00648701 0.00777308
v 0.00878271 0.00662940 0.00715829
v 0.00884424 0.00645716 0.00722852
v 0.00878191 0.00632052 0.00741332
v 0.00877232 0.00608110 0.00761969
v 0.00941555 0.00708526 0.00579011
v 0.00931168 0.00716448 0.00586649
v 0.00858535 0.00619823 0.00774351
v 0.00852222 0.00606273 0.00792708
v 0.00843273 0.00629238 0.00784454
v 0.00827532 0.00638769 0.00794433
v 0.00810272 0.00649505 0.00803427
v 0.00776712 0.00666097 0.00821785
v 0.00752102 0.00693311 0.00822893
v 0.00734922 0.00702382 0.00830286
v 0.00725414 0.00721501 0.00822216
v 0.00700164 0.00744925 0.00822832
v 0.00673715 0.00770359 0.00822462
v 0.00636720 0.00785057 0.00836815
v 0.00627531 0.00775124 0.00852401
v 0.00552900 0.00803027 0.00880060
v 0.00568961 0.00769498 0.00898849
v 0.00535720 0.00794415 0.00898233
v 0.00521977 0.00798893 0.00902298
v 0.00657335 0.00804233 0.00804043
v 0.00645909 0.00794932 0.00821230
v 0.00665485 0.00787411 0.00813222
v 0.00936521 0.00723568 0.00569462
v 0.00766804 0.00921183 0.00502871
v 0.00768003 0.00909528 0.00528066
v 0.00782785 0.00904131 0.00518949
v 0.00792294 0.00893682 0.00528066
v 0.00753380 0.00901777 0.00565458
v 0.00768402 0.00884955 0.00580304
v 0.00783504 0.00878984 0.00571495
v 0.00777352 0.00874334 0.00588682
v 0.00786221 0.00856077 0.00606177
v 0.00820021 0.00860957 0.00550797
v 0.00880508 0.00795563 0.00561885
v 0.00905039 0.00768292 0.00559421
v 0.00820021 0.00838623 0.00586834
v 0.00826733 0.00819849 0.00606116
v 0.00857496 0.00798893 0.00592502
v 0.00847588 0.00815026 0.00583877
v 0.00781347 0.00851828 0.00619853
v 0.00808275 0.00827026 0.00621516
v 0.00863249 0.00805266 0.00575315
v 0.00406835 0.00940646 0.00786733
v 0.00431445 0.00933526 0.00787226
v 0.00393091 0.00952702 0.00770408
v 0.00422016 0.00929278 0.00800717
v 0.00439196 0.00926579 0.00796035
v 0.00458373 0.00923192 0.00790799
v 0.00481945 0.00918542 0.00784392
v 0.00689297 0.00920551 0.00605253
v 0.00714547 0.00906829 0.00603898
v 0.00729649 0.00903155 0.00594042
v 0.00734842 0.00906542 0.00580428
v 0.00743712 0.00912226 0.00555910
v 0.00497127 0.00902811 0.00799669
v 0.00507434 0.00907346 0.00785809
v 0.00526691 0.00904590 0.00776569
v 0.00535481 0.00894486 0.00785809
v 0.00587738 0.00885702 0.00761846
v 0.00587339 0.00898906 0.00741579
v 0.00607475 0.00880994 0.00753961
v 0.00612908 0.00889778 0.00734987
v 0.00634402 0.00881510 0.00729689
v 0.00664686 0.00881223 0.00703262
v 0.00654618 0.00904361 0.00673324
v 0.00671878 0.00899653 0.00664761
v 0.00679948 0.00904188 0.00647512
v 0.00689297 0.00907748 0.00630325
v 0.00472436 0.00851828 0.00877658
v 0.00439675 0.00848211 0.00899465
v 0.00490894 0.00821744 0.00899280
v 0.00523096 0.00825590 0.00877165
v 0.00512069 0.00843560 0.00864228
v 0.00489536 0.00847407 0.00872853
v 0.00430247 0.00863023 0.00888623
v 0.00413706 0.00900801 0.00848273
v 0.00396527 0.00903729 0.00852462
v 0.00393091 0.00881855 0.00883510
v 0.00470998 0.00876860 0.00851046
v 0.00432564 0.00897184 0.00843284
v 0.00432564 0.00906255 0.00830409
v 0.00913908 0.00727185 0.00599093
v 0.00885143 0.00697962 0.00672338
v 0.00869721 0.00707837 0.00681825
v 0.00854220 0.00717712 0.00691188
v 0.00829689 0.00744925 0.00692913
v 0.00837040 0.00727759 0.00701784
v 0.00820021 0.00737404 0.00711578
v 0.00853900 0.00691474 0.00717615
v 0.00844951 0.00683379 0.00734864
v 0.00820021 0.00658347 0.00785193
v 0.00820021 0.00657658 0.00785809
v 0.00820021 0.00655993 0.00787287
v 0.00859893 0.00647438 0.00750141
v 0.00921739 0.00733959 0.00579134
v 0.00803001 0.00666671 0.00795850
v 0.00778550 0.00693943 0.00797205
v 0.00785821 0.00676776 0.00804598
v 0.00768962 0.00684986 0.00813838
v 0.00761291 0.00703760 0.00805768
v 0.00753620 0.00720869 0.00798314
v 0.00744271 0.00711683 0.00814454
v 0.00710312 0.00754743 0.00805645
v 0.00728370 0.00721501 0.00819690
v 0.00736441 0.00729252 0.00805953
v 0.00692094 0.00762551 0.00814084
v 0.00684103 0.00779775 0.00805275
v 0.00628729 0.00801821 0.00827390
v 0.00570958 0.00822892 0.00848766
v 0.00540355 0.00820194 0.00871867
v 0.00533403 0.00811983 0.00883695
v 0.00512069 0.00812959 0.00895337
v 0.00646388 0.00821399 0.00794988
v 0.00629209 0.00827600 0.00802072
v 0.00637519 0.00811639 0.00811620
v 0.00674515 0.00797056 0.00796836
v 0.00665405 0.00813247 0.00787411
v 0.00912230 0.00751126 0.00571619
v 0.00747707 0.00898332 0.00580428
v 0.00760172 0.00880649 0.00600202
v 0.00753460 0.00875941 0.00617327
v 0.00768402 0.00869913 0.00607717
v 0.00887859 0.00778397 0.00573528
v 0.00820021 0.00813247 0.00624288
v 0.00801722 0.00820940 0.00638826
v 0.00882026 0.00771622 0.00590654
v 0.00872678 0.00788674 0.00583015
v 0.00820021 0.00810778 0.00627615
v 0.00833924 0.00801362 0.00621147
v 0.00827452 0.00794128 0.00638395
v 0.00835043 0.00776962 0.00648560
v 0.00836081 0.00752446 0.00675788
v 0.00766485 0.00857052 0.00629894
v 0.00774075 0.00845857 0.00637102
v 0.00784623 0.00828633 0.00649360
v 0.00406835 0.00931402 0.00804844
v 0.00393091 0.00944664 0.00785994
v 0.00393091 0.00928359 0.00817534
v 0.00393091 0.00926235 0.00821230
v 0.00406835 0.00923938 0.00817719
v 0.00431445 0.00919805 0.00810573
v 0.00456775 0.00909183 0.00812791
v 0.00704878 0.00903729 0.00620777
v 0.00728690 0.00876745 0.00644371
v 0.00703839 0.00877377 0.00671229
v 0.00484182 0.00896323 0.00816117
v 0.00503359 0.00879558 0.00828807
v 0.00520539 0.00875884 0.00823879
v 0.00535720 0.00881223 0.00805830
v 0.00514306 0.00898964 0.00793756
v 0.00596528 0.00874908 0.00771024
v 0.00550183 0.00877779 0.00800717
v 0.00579348 0.00879444 0.00777185
v 0.00624654 0.00876171 0.00746876
v 0.00651582 0.00876860 0.00722112
v 0.00678350 0.00877434 0.00697102
v 0.00688338 0.00880764 0.00681332
v 0.00482264 0.00859119 0.00864228
v 0.00522057 0.00850737 0.00850738
v 0.00553779 0.00828576 0.00854742
v 0.00533403 0.00832308 0.00863674
v 0.00504877 0.00855273 0.00855666
v 0.00405796 0.00909987 0.00839033
v 0.00393091 0.00904131 0.00853140
v 0.00484182 0.00873530 0.00847226
v 0.00906557 0.00744351 0.00588744
v 0.00820021 0.00763297 0.00684597
v 0.00804679 0.00771967 0.00694391
v 0.00812430 0.00754800 0.00703201
v 0.00804679 0.00746016 0.00720388
v 0.00819941 0.00711626 0.00735850
v 0.00897208 0.00761403 0.00581167
v 0.00795330 0.00711396 0.00762770
v 0.00780068 0.00721501 0.00769792
v 0.00753300 0.00721501 0.00798006
v 0.00727491 0.00746418 0.00798068
v 0.00779269 0.00746590 0.00746568
v 0.00701283 0.00771909 0.00797698
v 0.00617383 0.00818988 0.00819197
v 0.00600283 0.00825475 0.00825296
v 0.00673556 0.00822260 0.00770224
v 0.00656376 0.00828748 0.00777924
v 0.00636800 0.00836728 0.00784947
v 0.00627211 0.00852115 0.00774721
v 0.00613068 0.00856708 0.00780080
v 0.00613068 0.00845627 0.00793078
v 0.00598525 0.00850163 0.00798437
v 0.00701203 0.00797688 0.00771949
v 0.00684023 0.00805151 0.00779649
v 0.00700404 0.00823122 0.00745398
v 0.00756896 0.00852861 0.00647143
v 0.00743792 0.00872037 0.00634206
v 0.00794052 0.00812959 0.00658169
v 0.00810192 0.00803716 0.00649730
v 0.00777272 0.00822260 0.00666609
v 0.00820021 0.00787238 0.00656445
v 0.00828650 0.00769613 0.00665747
v 0.00767044 0.00837762 0.00656876
v 0.00760092 0.00829552 0.00676588
v 0.00741235 0.00858545 0.00656568
v 0.00695529 0.00871348 0.00688416
v 0.00707116 0.00854124 0.00700182
v 0.00724295 0.00847465 0.00691188
v 0.00732126 0.00853493 0.00673940
v 0.00535720 0.00846833 0.00846241
v 0.00535720 0.00858430 0.00833304
v 0.00535720 0.00871291 0.00818704
v 0.00614826 0.00870544 0.00761846
v 0.00581346 0.00855560 0.00804536
v 0.00636959 0.00857340 0.00759566
v 0.00663408 0.00858717 0.00734310
v 0.00664686 0.00872210 0.00716260
v 0.00688178 0.00862449 0.00707266
v 0.00552021 0.00853378 0.00827760
v 0.00587339 0.00829437 0.00830039
v 0.00811391 0.00779373 0.00677204
v 0.00803400 0.00796482 0.00666979
v 0.00786221 0.00805094 0.00677020
v 0.00778790 0.00797745 0.00694207
v 0.00787579 0.00780579 0.00703447
v 0.00727571 0.00798032 0.00746445
v 0.00779109 0.00772254 0.00720634
v 0.00709832 0.00830241 0.00728211
v 0.00663807 0.00837704 0.00760182
v 0.00727012 0.00823696 0.00720203
v 0.00742353 0.00838508 0.00683796
v 0.00752501 0.00823351 0.00693775
v 0.00769441 0.00814165 0.00685398
v 0.00735402 0.00830298 0.00703016
v 0.00698006 0.00847407 0.00717369
v 0.00680827 0.00853608 0.00725131
v 0.00761610 0.00806127 0.00703262
v 0.00736041 0.00806414 0.00729258
f 1 2 5
f 1 5 9
f 1 9 13
f 1 13 18
f 1 18 24
f 1 24 29
f 1 29 55
f 1 55 82
f 1 82 152
f 1 152 233
f 1 233 232
f 1 232 338
f 1 338 337
f 1 337 443
f 1 443 423
f 1 423 320
f 1 320 219
f 1 219 136
f 1 136 63
f 1 63 46
f 1 46 45
f 1 45 44
f 1 44 43
f 1 43 42
f 1 42 33
f 1 33 21
f 1 21 16
f 1 16 11
f 1 11 7
f 1 7 3
f 1 3 4
f 1 4 6
f 1 6 2
f 2 6 5
f 3 7 8
f 3 8 4
f 4 8 12
f 4 12 17
f 4 17 23
f 4 23 41
f 4 41 40
f 4 40 65
f 4 65 138
f 4 138 222
f 4 222 326
f 4 326 431
f 4 431 360
f 4 360 466
f 4 466 564
f 4 564 666
f 4 666 767
f 4 767 868
f 4 868 956
f 4 956 1042
f 4 1042 1017
f 4 1017 1016
f 4 1016 1015
f 4 1015 923
f 4 923 839
f 4 839 837
f 4 837 732
f 4 732 634
f 4 634 633
f 4 633 535
f 4 535 532
f 4 532 433
f 4 433 432
f 4 432 327
f 4 327 223
f 4 223 139
f 4 139 66
f 4 66 47
f 4 47 25
f 4 25 19
f 4 19 15
f 4 15 14
f 4 14 10
f 4 10 6
f 5 6 10
f 5 10 9
f 7 11 12
f 7 12 8
f 9 10 14
f 9 14 15
f 9 15 13
f 11 16 12
f 12 16 17
f 13 15 18
f 15 19 20
f 15 20 18
f 16 21 22
f 16 22 17
f 17 22 23
f 18 20 24
f 19 25 26
f 19 26 20
f 20 27 28
f 20 28 29
f 20 29 24
f 20 26 30
f 20 30 31
f 20 31 32
f 20 32 27
f 21 33 22
f 22 34 35
f 22 35 36
f 22 36 37
f 22 37 38
f 22 38 39
f 22 39 40
f 22 40 41
f 22 41 23
f 22 33 42
f 22 42 43
f 22 43 44
f 22 44 45
f 22 45 46
f 22 46 34
f 25 47 26
f 26 47 48
f 26 48 30
f 27 49 50
f 27 50 51
f 27 51 28
f 27 32 52
f 27 52 53
f 27 53 54
f 27 54 49
f 28 51 55
f 28 55 29
f 30 56 32
f 30 32 31
f 30 48 56
f 32 56 57
f 32 57 58
f 32 58 52
f 34 59 60
f 34 60 61
f 34 61 62
f 34 62 35
f 34 46 63
f 34 63 59
f 35 62 94
f 35 94 168
f 35 168 256
f 35 256 362
f 35 362 325
f 35 325 221
f 35 221 137
f 35 137 64
f 35 64 39
f 35 39 38
f 35 38 37
f 35 37 36
f 39 64 65
f 39 65 40
f 47 66 67
f 47 67 48
f 48 67 56
f 49 54 68
f 49 68 69
f 49 69 70
f 49 70 50
f 50 70 51
f 51 70 71
f 51 71 72
f 51 72 73
f 51 73 55
f 52 74 53
f 52 58 57
f 52 57 74
f 53 75 76
f 53 76 77
f 53 77 54
f 53 74 78
f 53 78 79
f 53 79 75
f 54 77 80
f 54 80 81
f 54 81 68
f 55 73 72
f 55 72 83
f 55 83 82
f 56 67 84
f 56 84 85
f 56 85 86
f 56 86 57
f 57 86 87
f 57 87 88
f 57 88 74
f 59 63 89
f 59 89 90
f 59 90 60
f 60 91 92
f 60 92 61
f 60 90 93
f 60 93 91
f 61 92 62
f 62 92 95
f 62 95 96
f 62 96 97
f 62 97 98
f 62 98 99
f 62 99 100
f 62 100 101
f 62 101 102
f 62 102 103
f 62 103 104
f 62 104 105
f 62 105 106
f 62 106 107
f 62 107 94
f 63 108 109
f 63 109 110
f 63 110 111
f 63 111 112
f 63 112 113
f 63 113 114
f 63 114 115
f 63 115 116
f 63 116 117
f 63 117 118
f 63 118 119
f 63 119 120
f 63 120 121
f 63 121 122
f 63 122 123
f 63 123 124
f 63 124 125
f 63 125 126
f 63 126 127
f 63 127 128
f 63 128 129
f 63 129 130
f 63 130 131
f 63 131 132
f 63 132 133
f 63 133 134
f 63 134 135
f 63 135 89
f 63 136 108
f 64 137 138
f 64 138 65
f 66 139 140
f 66 140 67
f 67 140 141
f 67 141 142
f 67 142 84
f 68 81 69
f 69 143 144
f 69 144 145
f 69 145 71
f 69 71 70
f 69 81 146
f 69 146 143
f 71 145 147
f 71 147 72
f 72 147 83
f 74 88 78
f 75 79 148
f 75 148 149
f 75 149 150
f 75 150 76
f 76 80 77
f 76 150 151
f 76 151 146
f 76 146 80
f 78 88 79
f 79 88 87
f 79 87 148
f 80 146 81
f 82 83 152
f 83 147 153
f 83 153 152
f 84 154 85
f 84 142 154
f 85 155 156
f 85 156 157
f 85 157 158
f 85 158 86
f 85 154 159
f 85 159 155
f 86 158 87
f 87 158 148
f 89 135 90
f 90 160 161
f 90 161 93
f 90 135 162
f 90 162 160
f 91 93 92
f 92 93 95
f 93 97 96
f 93 96 95
f 93 161 163
f 93 163 164
f 93 164 165
f 93 165 166
f 93 166 167
f 93 167 98
f 93 98 97
f 94 107 169
f 94 169 170
f 94 170 171
f 94 171 172
f 94 172 173
f 94 173 174
f 94 174 175
f 94 175 176
f 94 176 177
f 94 177 178
f 94 178 179
f 94 179 180
f 94 180 181
f 94 181 182
f 94 182 183
f 94 183 184
f 94 184 185
f 94 185 186
f 94 186 254
f 94 254 168
f 98 167 99
f 99 167 187
f 99 187 100
f 100 187 188
f 100 188 101
f 101 188 102
f 102 188 103
f 103 188 189
f 103 189 104
f 104 189 190
f 104 190 105
f 105 190 191
f 105 191 106
f 106 191 107
f 107 191 192
f 107 192 169
f 108 193 109
f 108 136 193
f 109 194 110
f 109 193 195
f 109 195 194
f 110 194 196
f 110 196 111
f 111 196 112
f 112 196 197
f 112 197 113
f 113 197 114
f 114 198 115
f 114 197 198
f 115 198 199
f 115 199 200
f 115 200 201
f 115 201 116
f 116 201 117
f 117 202 203
f 117 203 118
f 117 201 202
f 118 203 119
f 119 203 202
f 119 202 204
f 119 204 205
f 119 205 206
f 119 206 120
f 120 206 207
f 120 207 121
f 121 207 122
f 122 207 123
f 123 207 208
f 123 208 124
f 124 208 125
f 125 208 126
f 126 209 127
f 126 208 210
f 126 210 209
f 127 209 128
f 128 211 129
f 128 209 211
f 129 211 212
f 129 212 213
f 129 213 130
f 130 213 131
f 131 214 132
f 131 213 215
f 131 215 214
f 132 214 216
f 132 216 217
f 132 217 218
f 132 218 133
f 133 160 134
f 133 218 160
f 134 160 162
f 134 162 135
f 136 219 220
f 136 220 193
f 137 221 222
f 137 222 138
f 139 223 224
f 139 224 140
f 140 224 141
f 141 224 159
f 141 159 154
f 141 154 142
f 143 225 144
f 143 146 151
f 143 151 225
f 144 225 226
f 144 226 227
f 144 227 228
f 144 228 229
f 144 229 145
f 145 229 147
f 147 229 230
f 147 230 231
f 147 231 232
f 147 232 233
f 147 233 153
f 148 157 149
f 148 158 157
f 149 157 234
f 149 234 150
f 150 235 236
f 150 236 151
f 150 234 235
f 151 236 237
f 151 237 238
f 151 238 225
f 152 153 233
f 155 159 239
f 155 239 240
f 155 240 241
f 155 241 242
f 155 242 243
f 155 243 244
f 155 244 156
f 156 244 157
f 157 244 234
f 159 224 239
f 160 218 161
f 161 245 163
f 161 218 245
f 163 216 246
f 163 246 247
f 163 247 248
f 163 248 249
f 163 249 250
f 163 250 164
f 163 245 216
f 164 250 165
f 165 251 166
f 165 250 249
f 165 249 248
f 165 248 252
f 165 252 251
f 166 251 253
f 166 253 187
f 166 187 167
f 168 254 359
f 168 359 255
f 168 255 360
f 168 360 256
f 169 192 257
f 169 257 258
f 169 258 170
f 170 258 171
f 171 259 260
f 171 260 172
f 171 258 259
f 172 260 261
f 172 261 173
f 173 261 262
f 173 262 174
f 174 262 175
f 175 262 263
f 175 263 176
f 176 264 265
f 176 265 177
f 176 263 264
f 177 265 266
f 177 266 267
f 177 267 268
f 177 268 178
f 178 268 179
f 179 269 180
f 179 268 269
f 180 269 270
f 180 270 271
f 180 271 181
f 181 271 272
f 181 272 182
f 182 273 183
f 182 272 274
f 182 274 273
f 183 273 275
f 183 275 276
f 183 276 184
f 184 276 277
f 184 277 278
f 184 278 279
f 184 279 185
f 185 279 186
f 186 279 280
f 186 280 281
f 186 281 254
f 187 253 189
f 187 189 188
f 189 253 282
f 189 282 283
f 189 283 284
f 189 284 285
f 189 285 286
f 189 286 190
f 190 286 285
f 190 285 287
f 190 287 288
f 190 288 289
f 190 289 191
f 191 289 290
f 191 290 257
f 191 257 192
f 193 291 195
f 193 220 291
f 194 292 196
f 194 195 292
f 195 293 294
f 195 294 295
f 195 295 296
f 195 296 292
f 195 291 220
f 195 220 293
f 196 292 197
f 197 292 199
f 197 199 198
f 199 297 200
f 199 292 297
f 200 297 298
f 200 298 299
f 200 299 201
f 201 299 300
f 201 300 202
f 202 300 204
f 204 301 206
f 204 206 205
f 204 300 299
f 204 299 302
f 204 302 303
f 204 303 304
f 204 304 305
f 204 305 306
f 204 306 301
f 206 301 307
f 206 307 308
f 206 308 309
f 206 309 310
f 206 310 207
f 207 310 311
f 207 311 312
f 207 312 208
f 208 312 210
f 209 210 313
f 209 313 314
f 209 314 211
f 210 312 313
f 211 314 212
f 212 215 213
f 212 314 315
f 212 315 215
f 214 215 316
f 214 316 216
f 215 317 318
f 215 318 316
f 215 315 317
f 216 245 218
f 216 218 217
f 216 316 246
f 219 319 220
f 219 320 321
f 219 321 319
f 220 319 322
f 220 322 323
f 220 323 324
f 220 324 293
f 221 325 222
f 222 325 326
f 223 327 328
f 223 328 224
f 224 328 239
f 225 238 329
f 225 329 226
f 226 330 331
f 226 331 227
f 226 329 330
f 227 331 332
f 227 332 333
f 227 333 228
f 228 333 334
f 228 334 229
f 229 334 230
f 230 334 335
f 230 335 336
f 230 336 337
f 230 337 338
f 230 338 231
f 231 338 232
f 234 244 339
f 234 339 340
f 234 340 341
f 234 341 235
f 235 341 236
f 236 342 237
f 236 341 343
f 236 343 342
f 237 342 344
f 237 344 345
f 237 345 238
f 238 345 329
f 239 328 240
f 240 328 346
f 240 346 347
f 240 347 241
f 241 348 242
f 241 347 349
f 241 349 348
f 242 350 351
f 242 351 352
f 242 352 353
f 242 353 243
f 242 348 350
f 243 353 244
f 244 353 339
f 246 316 318
f 246 318 354
f 246 354 355
f 246 355 248
f 246 248 247
f 248 355 356
f 248 356 357
f 248 357 252
f 251 252 358
f 251 358 253
f 252 357 356
f 252 356 358
f 253 358 282
f 254 281 359
f 255 359 465
f 255 465 561
f 255 561 466
f 255 466 360
f 256 361 362
f 256 360 361
f 257 290 363
f 257 363 364
f 257 364 365
f 257 365 366
f 257 366 259
f 257 259 258
f 259 366 365
f 259 365 260
f 260 365 367
f 260 367 368
f 260 368 369
f 260 369 370
f 260 370 371
f 260 371 261
f 261 371 262
f 262 371 263
f 263 371 370
f 263 370 265
f 263 265 264
f 265 370 372
f 265 372 373
f 265 373 266
f 266 373 267
f 267 373 374
f 267 374 272
f 267 272 269
f 267 269 268
f 269 272 270
f 270 272 271
f 272 374 375
f 272 375 274
f 273 274 376
f 273 376 377
f 273 377 275
f 274 375 376
f 275 377 378
f 275 378 276
f 276 378 277
f 277 378 379
f 277 379 278
f 278 379 280
f 278 280 279
f 280 379 380
f 280 380 381
f 280 381 281
f 281 381 382
f 281 382 383
f 281 383 359
f 282 358 283
f 283 384 284
f 283 358 385
f 283 385 386
f 283 386 387
f 283 387 388
f 283 388 384
f 284 384 285
f 285 384 389
f 285 389 288
f 285 288 287
f 288 389 390
f 288 390 391
f 288 391 290
f 288 290 289
f 290 391 363
f 292 296 392
f 292 392 297
f 293 324 294
f 294 324 393
f 294 393 394
f 294 394 395
f 294 395 396
f 294 396 397
f 294 397 295
f 295 398 296
f 295 397 398
f 296 398 399
f 296 399 392
f 297 400 302
f 297 302 298
f 297 392 401
f 297 401 402
f 297 402 400
f 298 302 299
f 301 306 307
f 302 400 403
f 302 403 404
f 302 404 405
f 302 405 304
f 302 304 303
f 304 405 406
f 304 406 305
f 305 406 407
f 305 407 306
f 306 407 307
f 307 407 408
f 307 408 409
f 307 409 410
f 307 410 308
f 308 411 412
f 308 412 309
f 308 410 411
f 309 413 310
f 309 412 413
f 310 414 415
f 310 415 311
f 310 413 414
f 311 416 417
f 311 417 313
f 311 313 312
f 311 415 416
f 313 417 418
f 313 418 314
f 314 418 419
f 314 419 315
f 315 419 420
f 315 420 317
f 317 420 318
f 318 420 421
f 318 421 422
f 318 422 354
f 319 321 322
f 320 423 424
f 320 424 321
f 321 424 425
f 321 425 426
f 321 426 427
f 321 427 322
f 322 427 323
f 323 394 324
f 323 427 428
f 323 428 394
f 324 394 393
f 325 429 326
f 325 362 429
f 326 429 430
f 326 430 431
f 327 432 328
f 328 432 433
f 328 433 434
f 328 434 435
f 328 435 346
f 329 436 437
f 329 437 330
f 329 345 436
f 330 437 438
f 330 438 331
f 331 438 332
f 332 438 439
f 332 439 440
f 332 440 333
f 333 440 426
f 333 426 441
f 333 441 334
f 334 441 335
f 335 425 442
f 335 442 443
f 335 443 336
f 335 441 425
f 336 443 337
f 339 444 340
f 339 353 445
f 339 445 444
f 340 444 446
f 340 446 447
f 340 447 341
f 341 447 343
f 342 343 448
f 342 448 449
f 342 449 344
f 343 447 448
f 344 449 450
f 344 450 345
f 345 450 436
f 346 435 347
f 347 435 451
f 347 451 349
f 348 349 452
f 348 452 350
f 349 451 453
f 349 453 452
f 350 452 453
f 350 453 454
f 350 454 455
f 350 455 456
f 350 456 457
f 350 457 352
f 350 352 351
f 352 457 458
f 352 458 459
f 352 459 460
f 352 460 353
f 353 460 445
f 354 422 461
f 354 461 355
f 355 461 462
f 355 462 463
f 355 463 356
f 356 385 358
f 356 463 464
f 356 464 386
f 356 386 385
f 359 383 465
f 360 431 361
f 361 431 362
f 362 431 430
f 362 430 429
f 363 467 468
f 363 468 364
f 363 391 467
f 364 468 365
f 365 468 469
f 365 469 470
f 365 470 368
f 365 368 367
f 368 471 472
f 368 472 372
f 368 372 369
f 368 470 471
f 369 372 370
f 372 472 473
f 372 473 373
f 373 474 475
f 373 475 476
f 373 476 477
f 373 477 375
f 373 375 374
f 373 473 474
f 375 478 479
f 375 479 480
f 375 480 376
f 375 477 478
f 376 481 482
f 376 482 377
f 376 480 481
f 377 482 483
f 377 483 378
f 378 484 485
f 378 485 486
f 378 486 487
f 378 487 379
f 378 483 484
f 379 487 488
f 379 488 489
f 379 489 380
f 380 489 381
f 381 489 490
f 381 490 491
f 381 491 382
f 382 491 383
f 383 491 492
f 383 492 465
f 384 388 389
f 386 464 493
f 386 493 387
f 387 493 494
f 387 494 391
f 387 391 388
f 388 391 390
f 388 390 389
f 391 495 496
f 391 496 497
f 391 497 498
f 391 498 467
f 391 494 495
f 392 399 499
f 392 499 401
f 394 428 500
f 394 500 501
f 394 501 395
f 395 501 502
f 395 502 396
f 396 502 397
f 397 503 504
f 397 504 398
f 397 502 505
f 397 505 503
f 398 506 399
f 398 504 506
f 399 506 401
f 399 401 499
f 400 402 403
f 401 506 507
f 401 507 402
f 402 507 508
f 402 508 509
f 402 509 510
f 402 510 511
f 402 511 512
f 402 512 406
f 402 406 404
f 402 404 403
f 404 406 405
f 406 512 513
f 406 513 407
f 407 513 514
f 407 514 515
f 407 515 516
f 407 516 408
f 408 516 517
f 408 517 409
f 409 517 410
f 410 517 518
f 410 518 519
f 410 519 411
f 411 519 520
f 411 520 413
f 411 413 412
f 413 520 414
f 414 520 521
f 414 521 416
f 414 416 415
f 416 522 523
f 416 523 417
f 416 521 524
f 416 524 522
f 417 523 525
f 417 525 420
f 417 420 418
f 418 420 419
f 420 525 526
f 420 526 527
f 420 527 528
f 420 528 529
f 420 529 421
f 421 461 422
f 421 529 461
f 423 443 424
f 424 443 442
f 424 442 425
f 425 441 426
f 426 530 428
f 426 428 427
f 426 440 439
f 426 439 530
f 428 530 531
f 428 531 500
f 433 532 434
f 434 533 534
f 434 534 435
f 434 532 535
f 434 535 533
f 435 534 536
f 435 536 537
f 435 537 453
f 435 453 451
f 436 450 437
f 437 538 539
f 437 539 439
f 437 439 438
f 437 450 538
f 439 539 540
f 439 540 530
f 444 445 460
f 444 460 446
f 446 459 541
f 446 541 542
f 446 542 447
f 446 460 459
f 447 542 448
f 448 542 449
f 449 543 544
f 449 544 450
f 449 542 541
f 449 541 543
f 450 544 545
f 450 545 538
f 453 537 536
f 453 536 454
f 454 546 455
f 454 536 547
f 454 547 546
f 455 546 548
f 455 548 456
f 456 549 550
f 456 550 551
f 456 551 552
f 456 552 457
f 456 548 549
f 457 552 458
f 458 552 553
f 458 553 459
f 459 553 554
f 459 554 555
f 459 555 541
f 461 529 556
f 461 556 462
f 462 556 463
f 463 556 557
f 463 557 464
f 464 557 558
f 464 558 493
f 465 559 560
f 465 560 561
f 465 492 562
f 465 562 563
f 465 563 559
f 466 561 564
f 467 498 565
f 467 565 566
f 467 566 469
f 467 469 468
f 469 471 470
f 469 566 471
f 471 566 565
f 471 565 567
f 471 567 568
f 471 568 569
f 471 569 570
f 471 570 472
f 472 570 571
f 472 571 572
f 472 572 473
f 473 572 573
f 473 573 574
f 473 574 474
f 474 574 475
f 475 574 575
f 475 575 576
f 475 576 577
f 475 577 476
f 476 577 578
f 476 578 478
f 476 478 477
f 478 578 479
f 479 578 579
f 479 579 580
f 479 580 482
f 479 482 480
f 480 482 481
f 482 581 483
f 482 580 581
f 483 581 582
f 483 582 484
f 484 583 485
f 484 582 581
f 484 581 584
f 484 584 583
f 485 583 585
f 485 585 486
f 486 586 587
f 486 587 489
f 486 489 488
f 486 488 487
f 486 585 586
f 489 587 490
f 490 588 589
f 490 589 491
f 490 587 588
f 491 589 588
f 491 588 590
f 491 590 591
f 491 591 592
f 491 592 563
f 491 563 562
f 491 562 492
f 493 558 593
f 493 593 494
f 494 593 594
f 494 594 595
f 494 595 596
f 494 596 495
f 495 596 595
f 495 595 496
f 496 597 598
f 496 598 497
f 496 595 597
f 497 598 599
f 497 599 565
f 497 565 498
f 500 600 601
f 500 601 502
f 500 502 501
f 500 531 600
f 502 601 602
f 502 602 505
f 503 603 604
f 503 604 504
f 503 505 602
f 503 602 605
f 503 605 603
f 504 604 507
f 504 507 506
f 507 604 508
f 508 604 606
f 508 606 509
f 509 607 510
f 509 606 608
f 509 608 609
f 509 609 610
f 509 610 607
f 510 607 611
f 510 611 511
f 511 611 513
f 511 513 512
f 513 611 514
f 514 612 613
f 514 613 515
f 514 611 614
f 514 614 615
f 514 615 616
f 514 616 617
f 514 617 612
f 515 613 516
f 516 618 518
f 516 518 517
f 516 613 618
f 518 619 520
f 518 520 620
f 518 620 519
f 518 618 619
f 519 620 520
f 520 619 621
f 520 621 622
f 520 622 623
f 520 623 524
f 520 524 521
f 522 524 523
f 523 524 624
f 523 624 525
f 524 623 625
f 524 625 626
f 524 626 627
f 524 627 624
f 525 624 526
f 526 624 627
f 526 627 527
f 527 627 628
f 527 628 629
f 527 629 630
f 527 630 556
f 527 556 528
f 528 556 529
f 530 540 531
f 531 540 631
f 531 631 632
f 531 632 600
f 533 535 633
f 533 633 634
f 533 634 536
f 533 536 534
f 536 635 547
f 536 634 636
f 536 636 637
f 536 637 635
f 538 545 638
f 538 638 539
f 539 638 639
f 539 639 631
f 539 631 540
f 541 640 543
f 541 555 640
f 543 641 544
f 543 640 641
f 544 642 643
f 544 643 545
f 544 641 642
f 545 643 638
f 546 547 635
f 546 635 644
f 546 644 548
f 548 644 645
f 548 645 549
f 549 646 550
f 549 645 646
f 550 646 647
f 550 647 551
f 551 647 648
f 551 648 649
f 551 649 650
f 551 650 651
f 551 651 652
f 551 652 552
f 552 652 553
f 553 652 554
f 554 652 650
f 554 650 653
f 554 653 654
f 554 654 655
f 554 655 656
f 554 656 657
f 554 657 555
f 555 657 640
f 556 630 557
f 557 630 658
f 557 658 558
f 558 658 659
f 558 659 660
f 558 660 661
f 558 661 594
f 558 594 593
f 559 662 560
f 559 563 663
f 559 663 664
f 559 664 662
f 560 662 665
f 560 665 564
f 560 564 561
f 563 592 663
f 564 665 666
f 565 599 667
f 565 667 567
f 567 668 568
f 567 667 668
f 568 669 670
f 568 670 671
f 568 671 569
f 568 668 599
f 568 599 672
f 568 672 673
f 568 673 674
f 568 674 669
f 569 671 670
f 569 670 675
f 569 675 676
f 569 676 570
f 570 676 571
f 571 677 573
f 571 573 572
f 571 676 677
f 573 677 575
f 573 575 574
f 575 677 676
f 575 676 577
f 575 577 576
f 577 678 679
f 577 679 680
f 577 680 681
f 577 681 579
f 577 579 578
f 577 676 682
f 577 682 678
f 579 681 683
f 579 683 581
f 579 581 580
f 581 684 584
f 581 683 681
f 581 681 684
f 583 584 585
f 584 684 585
f 585 685 686
f 585 686 586
f 585 684 687
f 585 687 688
f 585 688 685
f 586 689 587
f 586 686 685
f 586 685 690
f 586 690 691
f 586 691 692
f 586 692 689
f 587 689 693
f 587 693 588
f 588 693 590
f 590 693 694
f 590 694 695
f 590 695 591
f 591 696 697
f 591 697 592
f 591 695 694
f 591 694 698
f 591 698 696
f 592 697 699
f 592 699 664
f 592 664 663
f 594 661 660
f 594 660 597
f 594 597 595
f 597 700 701
f 597 701 702
f 597 702 703
f 597 703 674
f 597 674 704
f 597 704 599
f 597 599 598
f 597 660 700
f 599 704 674
f 599 674 673
f 599 673 672
f 599 668 667
f 600 632 601
f 601 632 705
f 601 705 602
f 602 705 706
f 602 706 605
f 603 707 604
f 603 605 708
f 603 708 709
f 603 709 707
f 604 710 606
f 604 707 710
f 605 706 708
f 606 710 711
f 606 711 608
f 607 712 611
f 607 610 713
f 607 713 712
f 608 711 609
f 609 711 610
f 610 711 714
f 610 714 715
f 610 715 713
f 611 712 614
f 612 617 716
f 612 716 613
f 613 716 717
f 613 717 718
f 613 718 719
f 613 719 720
f 613 720 618
f 614 712 615
f 615 712 713
f 615 713 616
f 616 721 722
f 616 722 617
f 616 713 721
f 617 722 723
f 617 723 724
f 617 724 725
f 617 725 716
f 618 720 619
f 619 720 621
f 621 726 625
f 621 625 622
f 621 720 726
f 622 625 623
f 625 727 628
f 625 628 626
f 625 726 727
f 626 628 627
f 628 727 728
f 628 728 729
f 628 729 700
f 628 700 660
f 628 660 659
f 628 659 629
f 629 659 658
f 629 658 630
f 631 639 730
f 631 730 731
f 631 731 632
f 632 731 705
f 634 732 636
f 635 637 733
f 635 733 734
f 635 734 735
f 635 735 736
f 635 736 644
f 636 732 733
f 636 733 637
f 638 643 737
f 638 737 639
f 639 738 739
f 639 739 740
f 639 740 706
f 639 706 730
f 639 737 738
f 640 657 641
f 641 741 642
f 641 657 741
f 642 741 742
f 642 742 743
f 642 743 744
f 642 744 745
f 642 745 643
f 643 745 737
f 644 736 746
f 644 746 645
f 645 747 646
f 645 746 747
f 646 748 749
f 646 749 750
f 646 750 751
f 646 751 648
f 646 648 647
f 646 747 748
f 648 751 752
f 648 752 753
f 648 753 754
f 648 754 755
f 648 755 649
f 649 755 653
f 649 653 650
f 650 652 651
f 653 755 654
f 654 755 754
f 654 754 756
f 654 756 655
f 655 756 757
f 655 757 758
f 655 758 656
f 656 758 657
f 657 758 759
f 657 759 741
f 662 760 761
f 662 761 762
f 662 762 665
f 662 664 763
f 662 763 760
f 664 699 764
f 664 764 765
f 664 765 763
f 665 762 766
f 665 766 666
f 666 766 767
f 669 674 768
f 669 768 769
f 669 769 770
f 669 770 771
f 669 771 670
f 670 771 770
f 670 770 772
f 670 772 773
f 670 773 774
f 670 774 775
f 670 775 682
f 670 682 776
f 670 776 676
f 670 676 675
f 674 703 777
f 674 777 778
f 674 778 779
f 674 779 780
f 674 780 768
f 676 776 682
f 678 682 781
f 678 781 782
f 678 782 679
f 679 782 783
f 679 783 784
f 679 784 785
f 679 785 680
f 680 785 681
f 681 785 786
f 681 786 687
f 681 687 684
f 682 775 787
f 682 787 781
f 685 688 788
f 685 788 690
f 687 786 688
f 688 786 785
f 688 785 789
f 688 789 790
f 688 790 788
f 689 692 693
f 690 791 691
f 690 788 790
f 690 790 792
f 690 792 783
f 690 783 793
f 690 793 791
f 691 791 794
f 691 794 795
f 691 795 692
f 692 795 796
f 692 796 797
f 692 797 693
f 693 797 798
f 693 798 799
f 693 799 694
f 694 800 698
f 694 799 798
f 694 798 801
f 694 801 802
f 694 802 803
f 694 803 800
f 696 804 805
f 696 805 806
f 696 806 807
f 696 807 697
f 696 698 800
f 696 800 808
f 696 808 809
f 696 809 804
f 697 807 764
f 697 764 699
f 700 729 701
f 701 729 702
f 702 777 703
f 702 729 728
f 702 728 810
f 702 810 811
f 702 811 812
f 702 812 813
f 702 813 814
f 702 814 778
f 702 778 777
f 705 731 730
f 705 730 706
f 706 740 815
f 706 815 708
f 707 711 710
f 707 709 816
f 707 816 711
f 708 815 709
f 709 815 817
f 709 817 816
f 711 816 714
f 713 818 819
f 713 819 723
f 713 723 721
f 713 715 820
f 713 820 821
f 713 821 818
f 714 816 715
f 715 816 822
f 715 822 820
f 716 725 823
f 716 823 824
f 716 824 825
f 716 825 718
f 716 718 717
f 718 825 826
f 718 826 719
f 719 826 720
f 720 826 827
f 720 827 726
f 721 723 722
f 723 819 828
f 723 828 829
f 723 829 830
f 723 830 831
f 723 831 832
f 723 832 724
f 724 832 823
f 724 823 725
f 726 833 727
f 726 827 834
f 726 834 835
f 726 835 836
f 726 836 811
f 726 811 833
f 727 833 728
f 728 833 810
f 732 837 733
f 733 838 734
f 733 837 839
f 733 839 838
f 734 838 735
f 735 840 841
f 735 841 736
f 735 838 840
f 736 841 746
f 737 842 738
f 737 745 842
f 738 842 744
f 738 744 739
f 739 744 843
f 739 843 815
f 739 815 740
f 741 759 758
f 741 758 844
f 741 844 845
f 741 845 742
f 742 845 757
f 742 757 756
f 742 756 846
f 742 846 847
f 742 847 848
f 742 848 849
f 742 849 744
f 742 744 743
f 744 850 843
f 744 842 745
f 744 849 850
f 746 841 747
f 747 841 851
f 747 851 748
f 748 851 852
f 748 852 749
f 749 852 750
f 750 853 854
f 750 854 855
f 750 855 856
f 750 856 751
f 750 852 853
f 751 856 752
f 752 856 857
f 752 857 858
f 752 858 859
f 752 859 753
f 753 859 754
f 754 859 860
f 754 860 756
f 756 860 861
f 756 861 862
f 756 862 846
f 757 844 758
f 757 845 844
f 760 863 761
f 760 763 863
f 761 863 864
f 761 864 865
f 761 865 766
f 761 766 762
f 763 765 863
f 764 807 806
f 764 806 765
f 765 806 863
f 766 865 767
f 767 865 866
f 767 866 867
f 767 867 868
f 768 780 769
f 769 869 772
f 769 772 770
f 769 780 779
f 769 779 869
f 772 869 870
f 772 870 871
f 772 871 872
f 772 872 873
f 772 873 874
f 772 874 875
f 772 875 773
f 773 875 876
f 773 876 774
f 774 876 877
f 774 877 878
f 774 878 787
f 774 787 775
f 778 814 879
f 778 879 779
f 779 879 880
f 779 880 869
f 781 787 782
f 782 787 878
f 782 878 881
f 782 881 882
f 782 882 783
f 783 882 881
f 783 881 883
f 783 883 874
f 783 874 884
f 783 884 793
f 783 792 784
f 784 792 785
f 785 792 789
f 789 792 790
f 791 793 885
f 791 885 886
f 791 886 794
f 793 884 885
f 794 886 795
f 795 886 796
f 796 886 887
f 796 887 797
f 797 887 798
f 798 887 888
f 798 888 801
f 800 803 808
f 801 888 889
f 801 889 802
f 802 889 890
f 802 890 803
f 803 890 891
f 803 891 808
f 804 809 892
f 804 892 893
f 804 893 894
f 804 894 805
f 805 894 895
f 805 895 806
f 806 895 894
f 806 894 896
f 806 896 897
f 806 897 863
f 808 891 809
f 809 898 899
f 809 899 892
f 809 891 900
f 809 900 898
f 810 833 811
f 811 836 835
f 811 835 812
f 812 835 901
f 812 901 879
f 812 879 813
f 813 879 814
f 815 843 902
f 815 902 817
f 816 817 822
f 817 902 903
f 817 903 904
f 817 904 820
f 817 820 822
f 818 828 819
f 818 821 828
f 820 904 905
f 820 905 821
f 821 905 906
f 821 906 907
f 821 907 908
f 821 908 909
f 821 909 910
f 821 910 911
f 821 911 828
f 823 832 912
f 823 912 913
f 823 913 824
f 824 913 901
f 824 901 826
f 824 826 825
f 826 834 827
f 826 901 834
f 828 911 914
f 828 914 830
f 828 830 829
f 830 915 916
f 830 916 917
f 830 917 831
f 830 914 918
f 830 918 919
f 830 919 915
f 831 916 920
f 831 920 832
f 831 917 916
f 832 920 912
f 834 901 835
f 838 921 922
f 838 922 840
f 838 839 923
f 838 923 921
f 840 922 924
f 840 924 841
f 841 924 925
f 841 925 926
f 841 926 927
f 841 927 851
f 843 903 902
f 843 850 903
f 846 862 928
f 846 928 847
f 847 928 848
f 848 929 930
f 848 930 931
f 848 931 849
f 848 928 929
f 849 931 932
f 849 932 850
f 850 932 903
f 851 933 934
f 851 934 852
f 851 927 933
f 852 934 853
f 853 935 854
f 853 934 935
f 854 935 936
f 854 936 855
f 855 936 937
f 855 937 938
f 855 938 856
f 856 938 857
f 857 938 939
f 857 939 940
f 857 940 941
f 857 941 942
f 857 942 858
f 858 942 943
f 858 943 860
f 858 860 859
f 860 943 861
f 861 944 945
f 861 945 862
f 861 943 944
f 862 945 946
f 862 946 929
f 862 929 928
f 863 897 864
f 864 947 948
f 864 948 865
f 864 897 949
f 864 949 950
f 864 950 951
f 864 951 952
f 864 952 947
f 865 953 867
f 865 867 866
f 865 948 953
f 867 954 955
f 867 955 956
f 867 956 868
f 867 953 957
f 867 957 958
f 867 958 959
f 867 959 954
f 869 880 960
f 869 960 961
f 869 961 870
f 870 961 962
f 870 962 963
f 870 963 871
f 871 963 964
f 871 964 965
f 871 965 966
f 871 966 967
f 871 967 872
f 872 967 873
f 873 967 968
f 873 968 969
f 873 969 874
f 874 969 970
f 874 970 971
f 874 971 884
f 874 883 972
f 874 972 875
f 875 972 876
f 876 972 881
f 876 881 877
f 877 881 878
f 879 901 880
f 880 901 973
f 880 973 960
f 881 972 883
f 884 971 885
f 885 974 975
f 885 975 976
f 885 976 886
f 885 971 970
f 885 970 974
f 886 976 977
f 886 977 887
f 887 977 978
f 887 978 979
f 887 979 980
f 887 980 888
f 888 980 889
f 889 981 890
f 889 980 982
f 889 982 983
f 889 983 981
f 890 984 891
f 890 981 984
f 891 984 985
f 891 985 900
f 892 986 893
f 892 899 986
f 893 986 894
f 894 987 988
f 894 988 989
f 894 989 896
f 894 986 987
f 896 989 897
f 897 989 990
f 897 990 949
f 898 991 992
f 898 992 993
f 898 993 986
f 898 986 899
f 898 900 994
f 898 994 995
f 898 995 991
f 900 985 994
f 901 913 996
f 901 996 973
f 903 932 906
f 903 906 904
f 904 906 905
f 906 932 931
f 906 931 997
f 906 997 907
f 907 997 998
f 907 998 908
f 908 998 909
f 909 918 910
f 909 998 999
f 909 999 1000
f 909 1000 918
f 910 918 914
f 910 914 911
f 912 920 1001
f 912 1001 996
f 912 996 913
f 915 1002 916
f 915 919 1003
f 915 1003 1002
f 916 960 1004
f 916 1004 1050
f 916 1050 1005
f 916 1005 920
f 916 1002 1006
f 916 1006 1007
f 916 1007 1008
f 916 1008 1009
f 916 1009 1010
f 916 1010 960
f 918 1000 999
f 918 999 1011
f 918 1011 1012
f 918 1012 1013
f 918 1013 1003
f 918 1003 919
f 920 1005 1001
f 921 1014 924
f 921 924 922
f 921 923 1014
f 923 1015 1014
f 924 1014 1016
f 924 1016 1017
f 924 1017 1018
f 924 1018 925
f 925 1018 926
f 926 1018 1019
f 926 1019 959
f 926 959 1020
f 926 1020 933
f 926 933 927
f 929 946 1021
f 929 1021 930
f 930 1022 999
f 930 999 998
f 930 998 931
f 930 1021 1023
f 930 1023 1022
f 931 998 997
f 933 1024 957
f 933 957 1025
f 933 1025 1026
f 933 1026 1027
f 933 1027 1028
f 933 1028 934
f 933 1020 959
f 933 959 1024
f 934 1028 1027
f 934 1027 935
f 935 1027 936
f 936 1027 937
f 937 1029 939
f 937 939 938
f 937 1027 1030
f 937 1030 1031
f 937 1031 1029
f 939 1029 1032
f 939 1032 940
f 940 1032 941
f 941 1032 1033
f 941 1033 942
f 942 1034 943
f 942 1033 1034
f 943 1034 944
f 944 1034 1035
f 944 1035 1023
f 944 1023 945
f 945 1023 1021
f 945 1021 946
f 947 952 1036
f 947 1036 957
f 947 957 953
f 947 953 948
f 949 990 950
f 950 1037 951
f 950 990 989
f 950 989 988
f 950 988 1038
f 950 1038 1039
f 950 1039 1037
f 951 1040 952
f 951 1037 1040
f 952 1040 1036
f 954 1041 955
f 954 959 1041
f 955 1041 1017
f 955 1017 1042
f 955 1042 956
f 957 1036 1040
f 957 1040 1043
f 957 1043 1026
f 957 1026 1025
f 957 1024 959
f 957 959 958
f 959 1019 1018
f 959 1018 1041
f 960 973 1044
f 960 1044 1004
f 960 1010 961
f 961 1010 962
f 962 1010 964
f 962 964 963
f 964 1010 1045
f 964 1045 1046
f 964 1046 1047
f 964 1047 965
f 965 1047 966
f 966 1047 1048
f 966 1048 967
f 967 1048 1049
f 967 1049 968
f 968 1049 969
f 969 1049 975
f 969 975 974
f 969 974 970
f 973 996 1050
f 973 1050 1044
f 975 1049 1051
f 975 1051 1048
f 975 1048 1052
f 975 1052 979
f 975 979 978
f 975 978 976
f 976 978 977
f 979 1053 1054
f 979 1054 983
f 979 983 980
f 979 1052 1048
f 979 1048 1055
f 979 1055 1053
f 980 983 982
f 981 1056 985
f 981 985 984
f 981 983 1054
f 981 1054 1056
f 985 1056 994
f 986 1057 1058
f 986 1058 987
f 986 993 1057
f 987 1038 988
f 987 1058 1038
f 991 995 1059
f 991 1059 1060
f 991 1060 1061
f 991 1061 992
f 992 1061 1062
f 992 1062 1063
f 992 1063 1064
f 992 1064 1065
f 992 1065 1058
f 992 1058 1057
f 992 1057 993
f 994 1056 1066
f 994 1066 1067
f 994 1067 995
f 995 1067 1068
f 995 1068 1059
f 996 1001 1050
f 999 1069 1011
f 999 1022 1070
f 999 1070 1069
f 1001 1005 1050
f 1002 1003 1006
f 1003 1071 1072
f 1003 1072 1006
f 1003 1013 1073
f 1003 1073 1071
f 1004 1044 1050
f 1006 1072 1007
f 1007 1072 1008
f 1008 1074 1009
f 1008 1072 1074
f 1009 1074 1075
f 1009 1075 1010
f 1010 1075 1045
f 1011 1069 1012
f 1012 1069 1076
f 1012 1076 1013
f 1013 1076 1077
f 1013 1077 1073
f 1014 1015 1016
f 1017 1041 1018
f 1022 1078 1070
f 1022 1023 1078
f 1023 1035 1034
f 1023 1034 1079
f 1023 1079 1080
f 1023 1080 1081
f 1023 1081 1082
f 1023 1082 1078
f 1026 1037 1083
f 1026 1083 1038
f 1026 1038 1084
f 1026 1084 1085
f 1026 1085 1030
f 1026 1030 1027
f 1026 1043 1040
f 1026 1040 1037
f 1029 1065 1064
f 1029 1064 1063
f 1029 1063 1062
f 1029 1062 1086
f 1029 1086 1032
f 1029 1031 1030
f 1029 1030 1085
f 1029 1085 1087
f 1029 1087 1065
f 1032 1086 1062
f 1032 1062 1088
f 1032 1088 1033
f 1033 1089 1090
f 1033 1090 1034
f 1033 1088 1089
f 1034 1090 1091
f 1034 1091 1080
f 1034 1080 1079
f 1037 1039 1038
f 1037 1038 1083
f 1038 1092 1085
f 1038 1085 1084
f 1038 1058 1093
f 1038 1093 1092
f 1045 1075 1094
f 1045 1094 1046
f 1046 1048 1047
f 1046 1094 1095
f 1046 1095 1096
f 1046 1096 1097
f 1046 1097 1098
f 1046 1098 1055
f 1046 1055 1048
f 1048 1051 1049
f 1053 1099 1054
f 1053 1055 1099
f 1054 1099 1056
f 1055 1098 1100
f 1055 1100 1099
f 1056 1099 1066
f 1058 1065 1093
f 1059 1068 1060
f 1060 1068 1101
f 1060 1101 1102
f 1060 1102 1062
f 1060 1062 1061
f 1062 1102 1088
f 1065 1087 1093
f 1066 1099 1103
f 1066 1103 1068
f 1066 1068 1067
f 1068 1103 1101
f 1069 1077 1076
f 1069 1070 1078
f 1069 1078 1082
f 1069 1082 1104
f 1069 1104 1077
f 1071 1095 1072
f 1071 1073 1096
f 1071 1096 1095
f 1072 1095 1094
f 1072 1094 1074
f 1073 1077 1105
f 1073 1105 1106
f 1073 1106 1096
f 1074 1094 1075
f 1077 1104 1105
f 1080 1101 1103
f 1080 1103 1107
f 1080 1107 1081
f 1080 1091 1108
f 1080 1108 1101
f 1081 1107 1104
f 1081 1104 1082
f 1085 1092 1087
f 1087 1092 1093
f 1088 1102 1089
f 1089 1102 1109
f 1089 1109 1090
f 1090 1109 1108
f 1090 1108 1091
f 1096 1106 1097
f 1097 1106 1105
f 1097 1105 1110
f 1097 1110 1098
f 1098 1110 1111
f 1098 1111 1100
f 1099 1100 1111
f 1099 1111 1103
f 1101 1108 1109
f 1101 1109 1102
f 1103 1111 1110
f 1103 1110 1105
f 1103 1105 1107
f 1104 1107 1105

