# https://github.com/mikedh/trimesh
v 0.05160046 0.00001839 -0.00972036
v 0.05158405 0.00001839 -0.00992896
v 0.05159061 0.00001839 -0.00960247
v 0.06466412 -0.00006586 -0.00960202
v 0.05156435 0.00001839 -0.01011736
v 0.04562334 0.00001839 -0.00960247
v 0.06466741 -0.00036075 -0.00960202
v 0.06465428 -0.00006586 -0.00963076
v 0.05695722 -0.00006586 -0.00960202
v 0.05117376 0.00001839 -0.01027499
v 0.06439497 -0.00006586 -0.00999094
v 0.06403391 -0.00006586 -0.01021459
v 0.04514084 0.00001839 -0.01040949
v 0.03113514 -0.00140024 -0.01060463
v 0.04532793 -0.00951348 -0.00960225
v 0.04729076 -0.00495818 -0.00960225
v 0.05406220 -0.00274258 -0.00960202
v 0.06463458 -0.00090611 -0.00960202
v 0.06465428 -0.00036075 -0.00963076
v 0.05079629 0.00001839 -0.01033899
v 0.06341356 -0.00006586 -0.01037267
v 0.06439497 -0.00036075 -0.00999094
v 0.06403391 -0.00036075 -0.01021459
v 0.06341356 -0.00036075 -0.01037289
v 0.03113514 -0.00140024 -0.01189555
v 0.04825248 0.00001839 -0.01040949
v 0.03113514 -0.00467924 -0.01060463
v 0.04532793 -0.01161296 -0.00960225
v 0.05406220 -0.00495704 -0.00960202
v 0.06462145 -0.00108144 -0.00960202
v 0.05045493 0.00001839 -0.01039647
v 0.05045493 -0.00828044 -0.01185917
v 0.05045493 -0.00755975 -0.01183762
v 0.04541983 -0.00140024 -0.01189555
v 0.06311815 -0.00006586 -0.01038255
v 0.06436215 -0.00108144 -0.00995299
v 0.06395186 -0.00180100 -0.01018764
v 0.06400438 -0.00108144 -0.01020673
v 0.06341356 -0.00108144 -0.01036436
v 0.03113514 -0.00467924 -0.01189555
v 0.03678403 -0.00557413 -0.01189577
v 0.03113514 -0.00524281 -0.01070253
v 0.03614069 -0.01116437 -0.01040972
v 0.03599299 -0.01087518 -0.01040972
v 0.03577964 -0.01043912 -0.01040972
v 0.04614523 -0.01161182 -0.00960225
v 0.06336432 -0.00495704 -0.00960202
v 0.03678403 -0.01141143 -0.01040972
v 0.04532793 -0.01160612 -0.00972036
v 0.04542312 -0.01160612 -0.00972036
v 0.06453939 -0.00165982 -0.00960202
v 0.06269472 -0.00006586 -0.01039625
v 0.06341356 -0.00180100 -0.01034595
v 0.06269472 -0.00324012 -0.01038412
v 0.06269472 -0.00396082 -0.01035134
v 0.05045493 -0.00899886 -0.01182235
v 0.04614195 -0.00899886 -0.01188949
v 0.04614195 -0.00828044 -0.01189577
v 0.04758289 -0.00612063 -0.01189577
v 0.04703474 -0.00557413 -0.01189577
v 0.06431291 -0.00180100 -0.00987642
v 0.06388293 -0.00252056 -0.01015329
v 0.06341356 -0.00252056 -0.01030935
v 0.03626214 -0.01021369 -0.01159017
v 0.03113514 -0.00531568 -0.01170783
v 0.03678403 -0.00828044 -0.01189577
v 0.03678403 -0.00899886 -0.01188949
v 0.03678403 -0.00971956 -0.01180730
v 0.03113514 -0.00551948 -0.01115971
v 0.03621619 -0.01094235 -0.01096772
v 0.04614523 -0.01160499 -0.00972036
v 0.04626339 -0.01160726 -0.00960225
v 0.06222535 -0.00670242 -0.00960225
v 0.06237306 -0.00653050 -0.00960225
v 0.06256015 -0.00628230 -0.00960225
v 0.06277678 -0.00598514 -0.00960225
v 0.06301311 -0.00564016 -0.00960225
v 0.06360721 -0.00456880 -0.00960202
v 0.04690016 -0.01157766 -0.00960225
v 0.04732687 -0.01154464 -0.00960225
v 0.04738595 -0.01153895 -0.00960225
v 0.04742534 -0.01153440 -0.00960225
v 0.04985754 -0.01122813 -0.00960225
v 0.05057309 -0.01112680 -0.00960225
v 0.05621541 -0.01023760 -0.00960225
v 0.05632044 -0.01022052 -0.00960225
v 0.05677341 -0.01011008 -0.00960225
v 0.05693752 -0.01006795 -0.00960225
v 0.05754804 -0.00987213 -0.00960225
v 0.05859510 -0.00947250 -0.00960225
v 0.05878875 -0.00938255 -0.00960225
v 0.05899882 -0.00927211 -0.00960225
v 0.05992116 -0.00874725 -0.00960225
v 0.06013779 -0.00861176 -0.00960225
v 0.06039710 -0.00841593 -0.00960225
v 0.06076472 -0.00813129 -0.00960225
v 0.06096494 -0.00797531 -0.00960225
v 0.06111592 -0.00783641 -0.00960225
v 0.06156889 -0.00741401 -0.00960225
v 0.06170018 -0.00728650 -0.00960225
v 0.06183147 -0.00714646 -0.00960225
v 0.03678403 -0.01137386 -0.01049190
v 0.03694815 -0.01141257 -0.01040972
v 0.04532793 -0.01154237 -0.01014161
v 0.04614523 -0.01154237 -0.01014183
v 0.06451642 -0.00180100 -0.00960202
v 0.06346607 -0.00326744 -0.01021751
v 0.06327898 -0.00396082 -0.01019303
v 0.06275381 -0.00473161 -0.01023255
v 0.06197590 -0.00540107 -0.01033000
v 0.05096040 -0.00953626 -0.01159735
v 0.05040569 -0.00975372 -0.01162991
v 0.04973610 -0.00971956 -0.01169144
v 0.04614195 -0.00971956 -0.01180708
v 0.06125707 -0.00612063 -0.01035291
v 0.06053495 -0.00683905 -0.01035762
v 0.06052839 -0.00756089 -0.01020426
v 0.04470100 -0.00971956 -0.01180730
v 0.06444421 -0.00211069 -0.00960202
v 0.06428009 -0.00253536 -0.00968959
v 0.06382057 -0.00304429 -0.01011421
v 0.03678403 -0.01028086 -0.01162564
v 0.03678403 -0.01064064 -0.01141188
v 0.03678403 -0.01101408 -0.01105192
v 0.04670651 -0.01153440 -0.01012140
v 0.04691329 -0.01156628 -0.00977582
v 0.06220566 -0.00633012 -0.00996826
v 0.06197590 -0.00683905 -0.00974349
v 0.06265534 -0.00606143 -0.00968353
v 0.06318379 -0.00536578 -0.00960225
v 0.06290808 -0.00540107 -0.00991796
v 0.06375820 -0.00425911 -0.00960202
v 0.06334463 -0.00495818 -0.00968061
v 0.06303281 -0.00500714 -0.01006526
v 0.04718573 -0.01151618 -0.01005291
v 0.04973938 -0.01123610 -0.00972036
v 0.05045821 -0.01113591 -0.00972036
v 0.05621541 -0.01023304 -0.00962133
v 0.05621541 -0.00997118 -0.00998128
v 0.05693752 -0.00988237 -0.00985059
v 0.05803710 -0.00936889 -0.01008749
v 0.05831610 -0.00951348 -0.00972081
v 0.05851960 -0.00924137 -0.00996107
v 0.05946820 -0.00864705 -0.01008570
v 0.05975048 -0.00878140 -0.00969274
v 0.05994742 -0.00847855 -0.00991437
v 0.06049885 -0.00824970 -0.00970846
v 0.06076144 -0.00780226 -0.00998263
v 0.06126363 -0.00756430 -0.00975067
v 0.06150652 -0.00708725 -0.00999857
v 0.03750286 -0.01137500 -0.01049392
v 0.03894380 -0.01137614 -0.01049819
v 0.03912433 -0.01141713 -0.01040972
v 0.04038474 -0.01141940 -0.01040972
v 0.04614195 -0.01138183 -0.01050201
v 0.04627980 -0.01141940 -0.01040949
v 0.06314769 -0.00452553 -0.01013891
v 0.06374179 -0.00352475 -0.01005606
v 0.06268488 -0.00495818 -0.01021369
v 0.06254702 -0.00540107 -0.01017709
v 0.06196933 -0.00610241 -0.01019707
v 0.05060919 -0.01001672 -0.01148508
v 0.05975048 -0.00825540 -0.01016653
v 0.05909729 -0.00873586 -0.01013757
v 0.05012669 -0.01008617 -0.01152437
v 0.04973610 -0.01011008 -0.01154009
v 0.04901398 -0.01015221 -0.01156502
v 0.04829844 -0.01019319 -0.01158657
v 0.04758289 -0.01023304 -0.01160544
v 0.04686078 -0.01026606 -0.01161981
v 0.04614195 -0.01028086 -0.01162542
v 0.06126363 -0.00684360 -0.01021189
v 0.06027893 -0.00799809 -0.01012567
v 0.06102730 -0.00732179 -0.01014004
v 0.04038474 -0.01028086 -0.01162564
v 0.06436215 -0.00246022 -0.00960202
v 0.06401750 -0.00326744 -0.00977762
v 0.04038474 -0.01064178 -0.01141322
v 0.03894380 -0.01101636 -0.01105305
v 0.04038474 -0.01137728 -0.01050021
v 0.04691329 -0.01139663 -0.01039288
v 0.06240260 -0.00584966 -0.01012005
v 0.06172644 -0.00660679 -0.01013667
v 0.06389277 -0.00396082 -0.00960202
v 0.06364004 -0.00396082 -0.00993749
v 0.04758289 -0.01130555 -0.01044026
v 0.04829844 -0.01121902 -0.01044026
v 0.04973610 -0.01104369 -0.01044026
v 0.04973938 -0.01105166 -0.01040949
v 0.05044180 -0.01094577 -0.01040949
v 0.05043851 -0.01092528 -0.01047955
v 0.05066499 -0.01077044 -0.01074564
v 0.05039912 -0.01042773 -0.01115252
v 0.04614195 -0.01102091 -0.01105327
v 0.04686078 -0.01100725 -0.01103957
v 0.04679513 -0.01139436 -0.01040972
v 0.04973610 -0.01046986 -0.01121719
v 0.04901398 -0.01051199 -0.01127041
v 0.04829844 -0.01055297 -0.01131959
v 0.04758289 -0.01059282 -0.01136405
v 0.05018906 -0.01081370 -0.01081997
v 0.04686078 -0.01062698 -0.01139952
v 0.04614195 -0.01064064 -0.01141322
v 0.04470100 -0.01064178 -0.01141322
v 0.06392232 -0.00387315 -0.00960202
v 0.04758289 -0.01097309 -0.01100410
v 0.04714634 -0.01136475 -0.01040972
v 0.04829844 -0.01092983 -0.01095964
v 0.04901398 -0.01088543 -0.01091046
v 0.04973610 -0.01084216 -0.01085724
f 1 2 5
f 1 5 10
f 1 10 20
f 1 20 31
f 1 31 26
f 1 26 13
f 1 13 6
f 1 6 3
f 1 3 4
f 1 4 2
f 2 4 5
f 3 6 9
f 3 9 4
f 4 7 8
f 4 8 5
f 4 9 17
f 4 17 29
f 4 29 47
f 4 47 78
f 4 78 132
f 4 132 184
f 4 184 205
f 4 205 176
f 4 176 119
f 4 119 106
f 4 106 51
f 4 51 30
f 4 30 18
f 4 18 7
f 5 8 11
f 5 11 12
f 5 12 10
f 6 13 14
f 6 14 15
f 6 15 16
f 6 16 17
f 6 17 9
f 7 18 19
f 7 19 8
f 8 19 22
f 8 22 11
f 10 12 21
f 10 21 20
f 11 22 23
f 11 23 12
f 12 23 24
f 12 24 21
f 13 25 14
f 13 26 34
f 13 34 25
f 14 25 40
f 14 40 65
f 14 65 69
f 14 69 42
f 14 42 27
f 14 27 28
f 14 28 15
f 15 28 29
f 15 29 17
f 15 17 16
f 18 30 22
f 18 22 19
f 20 21 31
f 21 24 32
f 21 32 33
f 21 33 34
f 21 34 35
f 21 35 31
f 22 36 37
f 22 37 38
f 22 38 23
f 22 30 36
f 23 38 39
f 23 39 24
f 24 39 32
f 25 34 60
f 25 60 41
f 25 41 66
f 25 66 40
f 26 31 34
f 27 42 43
f 27 43 44
f 27 44 45
f 27 45 28
f 28 46 47
f 28 47 29
f 28 45 44
f 28 44 43
f 28 43 48
f 28 48 49
f 28 49 50
f 28 50 46
f 30 51 36
f 31 35 52
f 31 52 34
f 32 39 53
f 32 53 54
f 32 54 55
f 32 55 56
f 32 56 57
f 32 57 58
f 32 58 59
f 32 59 34
f 32 34 33
f 34 59 60
f 34 52 35
f 36 51 61
f 36 61 62
f 36 62 37
f 37 62 63
f 37 63 53
f 37 53 38
f 38 53 39
f 40 64 65
f 40 66 67
f 40 67 68
f 40 68 64
f 41 60 59
f 41 59 58
f 41 58 66
f 42 69 43
f 43 70 48
f 43 69 65
f 43 65 70
f 46 71 72
f 46 72 47
f 46 50 71
f 47 73 74
f 47 74 75
f 47 75 76
f 47 76 77
f 47 77 78
f 47 72 79
f 47 79 80
f 47 80 81
f 47 81 82
f 47 82 83
f 47 83 84
f 47 84 85
f 47 85 86
f 47 86 87
f 47 87 88
f 47 88 89
f 47 89 90
f 47 90 91
f 47 91 92
f 47 92 93
f 47 93 94
f 47 94 95
f 47 95 96
f 47 96 97
f 47 97 98
f 47 98 99
f 47 99 100
f 47 100 101
f 47 101 73
f 48 70 102
f 48 102 103
f 48 103 104
f 48 104 49
f 49 104 105
f 49 105 50
f 50 105 71
f 51 106 61
f 53 63 55
f 53 55 54
f 55 63 107
f 55 107 108
f 55 108 109
f 55 109 110
f 55 110 56
f 56 111 112
f 56 112 113
f 56 113 114
f 56 114 57
f 56 110 115
f 56 115 116
f 56 116 117
f 56 117 111
f 57 114 118
f 57 118 68
f 57 68 67
f 57 67 66
f 57 66 58
f 61 106 119
f 61 119 120
f 61 120 121
f 61 121 62
f 62 121 107
f 62 107 63
f 64 70 65
f 64 68 122
f 64 122 123
f 64 123 70
f 68 118 175
f 68 175 122
f 70 123 124
f 70 124 102
f 71 105 125
f 71 125 126
f 71 126 72
f 72 126 79
f 73 127 74
f 73 101 128
f 73 128 127
f 74 127 75
f 75 127 129
f 75 129 76
f 76 129 77
f 77 130 78
f 77 129 131
f 77 131 130
f 78 130 133
f 78 133 134
f 78 134 132
f 79 126 80
f 80 126 135
f 80 135 81
f 81 135 82
f 82 136 83
f 82 135 136
f 83 136 137
f 83 137 84
f 84 137 85
f 85 137 138
f 85 138 86
f 86 138 87
f 87 138 139
f 87 139 88
f 88 139 140
f 88 140 141
f 88 141 89
f 89 141 142
f 89 142 90
f 90 142 143
f 90 143 91
f 91 143 144
f 91 144 92
f 92 144 145
f 92 145 93
f 93 145 144
f 93 144 94
f 94 144 146
f 94 146 147
f 94 147 95
f 95 147 96
f 96 147 97
f 97 147 148
f 97 148 149
f 97 149 98
f 98 149 99
f 99 149 150
f 99 150 100
f 100 150 101
f 101 150 128
f 102 124 151
f 102 151 103
f 103 151 152
f 103 152 153
f 103 153 104
f 104 153 154
f 104 154 155
f 104 155 105
f 105 155 156
f 105 156 125
f 107 121 108
f 108 157 109
f 108 121 158
f 108 158 157
f 109 159 110
f 109 157 159
f 110 159 160
f 110 160 161
f 110 161 115
f 111 162 112
f 111 117 163
f 111 163 164
f 111 164 162
f 112 162 165
f 112 165 113
f 113 165 166
f 113 166 167
f 113 167 168
f 113 168 169
f 113 169 170
f 113 170 114
f 114 170 171
f 114 171 118
f 115 161 172
f 115 172 116
f 116 172 117
f 117 173 163
f 117 172 174
f 117 174 173
f 118 171 175
f 119 176 120
f 120 176 177
f 120 177 158
f 120 158 121
f 122 175 204
f 122 204 178
f 122 178 123
f 123 178 179
f 123 179 124
f 124 179 180
f 124 180 152
f 124 152 151
f 125 181 135
f 125 135 126
f 125 156 181
f 127 182 131
f 127 131 129
f 127 128 150
f 127 150 183
f 127 183 182
f 130 131 134
f 130 134 133
f 131 182 134
f 132 134 185
f 132 185 184
f 134 182 160
f 134 160 157
f 134 157 158
f 134 158 185
f 135 181 186
f 135 186 187
f 135 187 188
f 135 188 189
f 135 189 137
f 135 137 136
f 137 190 138
f 137 189 188
f 137 188 190
f 138 190 191
f 138 191 192
f 138 192 139
f 139 141 140
f 139 192 141
f 141 192 193
f 141 193 162
f 141 162 164
f 141 164 144
f 141 144 143
f 141 143 142
f 144 164 163
f 144 163 173
f 144 173 148
f 144 148 146
f 146 148 147
f 148 174 150
f 148 150 149
f 148 173 174
f 150 174 183
f 152 180 154
f 152 154 153
f 154 180 155
f 155 194 195
f 155 195 196
f 155 196 156
f 155 180 179
f 155 179 194
f 156 196 181
f 157 160 159
f 158 177 184
f 158 184 185
f 160 182 161
f 161 183 172
f 161 182 183
f 162 193 165
f 165 197 198
f 165 198 199
f 165 199 200
f 165 200 166
f 165 193 201
f 165 201 197
f 166 200 202
f 166 202 167
f 167 202 168
f 168 202 169
f 169 202 170
f 170 202 203
f 170 203 171
f 171 203 204
f 171 204 175
f 172 183 174
f 176 205 177
f 177 205 184
f 178 204 194
f 178 194 179
f 181 196 195
f 181 195 206
f 181 206 207
f 181 207 186
f 186 206 208
f 186 208 209
f 186 209 210
f 186 210 201
f 186 201 187
f 186 207 206
f 187 201 188
f 188 201 191
f 188 191 190
f 191 201 192
f 192 201 193
f 194 203 202
f 194 202 195
f 194 204 203
f 195 202 200
f 195 200 206
f 197 201 210
f 197 210 209
f 197 209 198
f 198 209 208
f 198 208 199
f 199 208 206
f 199 206 200

