# https://github.com/mikedh/trimesh
v 0.00135070 -0.00090349 -0.00284188
v 0.00135070 -0.00107051 -0.00283965
v 0.00121915 -0.00105717 -0.00283881
v 0.00121827 -0.00090349 -0.00283965
v 0.00135070 -0.00000280 -0.00284188
v 0.00367027 -0.00090349 -0.00284188
v 0.00521987 -0.00113554 -0.00283965
v 0.00496117 -0.00113499 -0.00283965
v 0.00470334 -0.00113276 -0.00283965
v 0.00160852 -0.00120085 -0.00283240
v 0.00135070 -0.00119918 -0.00283073
v 0.00470334 -0.00126199 -0.00283686
v 0.00444551 -0.00125643 -0.00283658
v 0.00135070 -0.00141956 -0.00279813
v 0.00135070 -0.00167662 -0.00274492
v 0.00117267 -0.00188338 -0.00262567
v -0.00089346 -0.00016010 -0.00215591
v -0.00089346 -0.00013981 -0.00215953
v 0.00121827 -0.00000280 -0.00283965
v 0.00806563 -0.00000280 -0.00284188
v 0.00806563 -0.00090321 -0.00284188
v 0.00806563 -0.00113554 -0.00283965
v 0.00521987 -0.00126421 -0.00283686
v 0.00496117 -0.00126393 -0.00283686
v 0.00160852 -0.00141956 -0.00280176
v 0.00805686 -0.00141928 -0.00281541
v 0.00418768 -0.00141928 -0.00280789
v 0.00367027 -0.00141956 -0.00280677
v 0.00315549 -0.00141956 -0.00280566
v 0.00160852 -0.00167662 -0.00274742
v 0.00135070 -0.00192257 -0.00264851
v 0.00119284 -0.00234387 -0.00234398
v -0.00089346 -0.00139594 -0.00164881
v -0.00089346 -0.00091878 -0.00192855
v -0.00089346 -0.00064504 -0.00201492
v 0.00135070 -0.00205152 -0.00257022
v -0.00089346 -0.00012730 -0.00215953
v 0.00016679 -0.00000280 -0.00207734
v 0.00806563 -0.00000280 -0.00193357
v 0.00806563 -0.00126421 -0.00283686
v 0.00806563 -0.00141928 -0.00281541
v 0.00805686 -0.00167662 -0.00275940
v 0.00238201 -0.00167662 -0.00274910
v 0.00186635 -0.00192368 -0.00264963
v 0.00805686 -0.00207069 -0.00258415
v 0.00160852 -0.00205207 -0.00257161
v 0.00135070 -0.00219241 -0.00247493
v 0.00135070 -0.00235527 -0.00235540
v 0.00135070 -0.00247449 -0.00219241
v 0.00135070 -0.00256981 -0.00205087
v 0.00117267 -0.00262511 -0.00188314
v -0.00089346 -0.00167273 -0.00135264
v -0.00089346 -0.00164411 -0.00139053
v -0.00089346 -0.00142401 -0.00162011
v -0.00089346 -0.00012730 -0.00085752
v 0.00016679 -0.00000280 -0.00092049
v 0.00806563 -0.00192535 0.00000259
v 0.00315549 -0.00000280 -0.00094668
v 0.00315549 -0.00093990 0.00000259
v 0.00806563 -0.00167662 -0.00275940
v 0.00805686 -0.00193424 -0.00265659
v 0.00238201 -0.00192507 -0.00265018
v 0.00392986 -0.00192896 -0.00265130
v 0.00806563 -0.00193896 -0.00265409
v 0.00806563 -0.00207069 -0.00258415
v 0.00805686 -0.00219964 -0.00248691
v 0.00160852 -0.00219241 -0.00247660
v 0.00160852 -0.00247532 -0.00219241
v 0.00805686 -0.00235582 -0.00235819
v 0.00805686 -0.00248477 -0.00219854
v 0.00805686 -0.00258370 -0.00206953
v 0.00728250 -0.00258231 -0.00206730
v 0.00160852 -0.00257120 -0.00205114
v 0.00135070 -0.00264873 -0.00192214
v -0.00089346 -0.00214767 -0.00034736
v -0.00089346 -0.00192507 -0.00092384
v 0.00135070 -0.00274489 -0.00167640
v 0.00121915 -0.00283882 -0.00105702
v -0.00089346 -0.00085319 0.00000454
v 0.00276612 -0.00000280 -0.00092049
v 0.00806563 -0.00284188 0.00000259
v 0.00016679 -0.00091322 0.00000454
v 0.00289767 -0.00000280 -0.00092077
v 0.00289767 -0.00091350 0.00000259
v 0.00806563 -0.00193424 -0.00265659
v 0.00806563 -0.00219964 -0.00248691
v 0.00806563 -0.00235582 -0.00235819
v 0.00806563 -0.00248477 -0.00219854
v 0.00806563 -0.00258370 -0.00206953
v 0.00805686 -0.00265457 -0.00193440
v 0.00160852 -0.00274683 -0.00167640
v 0.00806563 -0.00265818 -0.00192604
v -0.00089346 -0.00217185 -0.00012920
v 0.00135070 -0.00279769 -0.00141867
v 0.00160852 -0.00280103 -0.00141867
v 0.00135070 -0.00283021 -0.00119884
v 0.00135070 -0.00283965 -0.00107011
v 0.00135070 -0.00284188 -0.00090322
v 0.00121827 -0.00283965 -0.00090322
v -0.00089346 -0.00216351 0.00000454
v 0.00016679 -0.00206541 0.00000454
v 0.00135070 -0.00284188 0.00000259
v 0.00806563 -0.00284188 -0.00090322
v 0.00806563 -0.00265457 -0.00193440
v 0.00805686 -0.00275739 -0.00167640
v 0.00805686 -0.00281548 -0.00141895
v 0.00806563 -0.00275739 -0.00167640
v -0.00089346 -0.00217046 -0.00008685
v 0.00121827 -0.00283965 0.00000259
v 0.00160852 -0.00283215 -0.00119939
v 0.00547683 -0.00283715 -0.00127992
v 0.00521987 -0.00283715 -0.00127462
v 0.00263984 -0.00283437 -0.00121472
v 0.00547683 -0.00283965 -0.00115091
v 0.00573553 -0.00283965 -0.00115286
v 0.00599248 -0.00283965 -0.00115314
v 0.00806563 -0.00283965 -0.00115314
v 0.00806563 -0.00281548 -0.00141895
v 0.00599248 -0.00283715 -0.00128215
v 0.00573553 -0.00283715 -0.00128187
v 0.00806563 -0.00283743 -0.00127797
v 0.00806563 -0.00283715 -0.00128215
f 1 2 3
f 1 3 4
f 1 4 19
f 1 19 5
f 1 5 20
f 1 20 21
f 1 21 6
f 1 6 22
f 1 22 7
f 1 7 8
f 1 8 9
f 1 9 2
f 2 10 11
f 2 11 3
f 2 9 12
f 2 12 13
f 2 13 10
f 3 11 14
f 3 14 15
f 3 15 16
f 3 16 17
f 3 17 18
f 3 18 4
f 4 18 37
f 4 37 19
f 5 19 38
f 5 38 56
f 5 56 80
f 5 80 83
f 5 83 58
f 5 58 39
f 5 39 20
f 6 21 22
f 7 22 40
f 7 40 23
f 7 23 24
f 7 24 8
f 8 24 12
f 8 12 9
f 10 25 11
f 10 13 25
f 11 25 14
f 12 24 26
f 12 26 27
f 12 27 28
f 12 28 29
f 12 29 25
f 12 25 13
f 14 25 15
f 15 25 30
f 15 30 31
f 15 31 16
f 16 32 33
f 16 33 34
f 16 34 35
f 16 35 17
f 16 31 36
f 16 36 32
f 17 35 34
f 17 34 33
f 17 33 54
f 17 54 53
f 17 53 52
f 17 52 76
f 17 76 75
f 17 75 93
f 17 93 108
f 17 108 100
f 17 100 79
f 17 79 55
f 17 55 37
f 17 37 18
f 19 37 38
f 20 39 57
f 20 57 81
f 20 81 103
f 20 103 117
f 20 117 121
f 20 121 122
f 20 122 118
f 20 118 107
f 20 107 92
f 20 92 104
f 20 104 89
f 20 89 88
f 20 88 87
f 20 87 86
f 20 86 65
f 20 65 64
f 20 64 85
f 20 85 60
f 20 60 41
f 20 41 40
f 20 40 22
f 20 22 21
f 23 40 41
f 23 41 26
f 23 26 24
f 25 29 30
f 26 41 60
f 26 60 42
f 26 42 43
f 26 43 27
f 27 43 28
f 28 43 30
f 28 30 29
f 30 43 44
f 30 44 31
f 31 44 45
f 31 45 46
f 31 46 36
f 32 36 47
f 32 47 48
f 32 48 49
f 32 49 50
f 32 50 51
f 32 51 52
f 32 52 53
f 32 53 54
f 32 54 33
f 36 46 47
f 37 55 56
f 37 56 38
f 39 58 59
f 39 59 57
f 42 60 85
f 42 85 61
f 42 61 62
f 42 62 43
f 43 62 44
f 44 62 45
f 45 63 61
f 45 61 64
f 45 64 65
f 45 65 86
f 45 86 66
f 45 66 48
f 45 48 67
f 45 67 46
f 45 62 63
f 46 67 47
f 47 67 48
f 48 68 49
f 48 66 69
f 48 69 70
f 48 70 71
f 48 71 68
f 49 68 71
f 49 71 72
f 49 72 73
f 49 73 50
f 50 73 74
f 50 74 51
f 51 75 76
f 51 76 52
f 51 74 77
f 51 77 78
f 51 78 75
f 55 79 56
f 56 79 80
f 57 59 82
f 57 82 101
f 57 101 81
f 58 83 84
f 58 84 59
f 59 84 82
f 61 85 64
f 61 63 62
f 66 86 87
f 66 87 69
f 69 87 88
f 69 88 70
f 70 88 89
f 70 89 71
f 71 89 104
f 71 104 90
f 71 90 74
f 71 74 72
f 72 74 73
f 74 91 77
f 74 90 92
f 74 92 91
f 75 78 93
f 77 94 78
f 77 91 95
f 77 95 94
f 78 94 96
f 78 96 97
f 78 97 98
f 78 98 99
f 78 99 93
f 79 100 101
f 79 101 82
f 79 82 84
f 79 84 83
f 79 83 80
f 81 101 100
f 81 100 102
f 81 102 98
f 81 98 103
f 90 104 92
f 91 92 105
f 91 105 106
f 91 106 95
f 92 107 105
f 93 99 109
f 93 109 108
f 94 95 96
f 95 110 96
f 95 106 111
f 95 111 112
f 95 112 110
f 96 110 97
f 97 110 113
f 97 113 112
f 97 112 111
f 97 111 114
f 97 114 98
f 98 102 109
f 98 109 99
f 98 114 115
f 98 115 116
f 98 116 117
f 98 117 103
f 100 108 109
f 100 109 102
f 105 107 118
f 105 118 106
f 106 118 122
f 106 122 119
f 106 119 120
f 106 120 111
f 110 112 113
f 111 120 115
f 111 115 114
f 115 120 121
f 115 121 116
f 116 121 117
f 119 122 121
f 119 121 120

