# https://github.com/mikedh/trimesh
v 0.00016599 0.00812576 -0.00914188
v 0.00016599 0.00802004 -0.00912571
v 0.00016599 0.00889929 -0.00914188
v 0.00432812 0.00695342 -0.00914188
v 0.00432812 0.00683619 -0.00914037
v 0.00418756 0.00683619 -0.00913925
v 0.00432812 0.00669558 -0.00913173
v 0.00016599 0.00786792 -0.00909601
v 0.00016599 0.00905176 -0.00911819
v 0.00160823 0.00889929 -0.00914188
v 0.00432812 0.00798551 -0.00914188
v 0.00432812 0.00657907 -0.00910465
v 0.00016599 0.00780966 -0.00907270
v 0.00432812 0.00647478 -0.00907495
v 0.00016599 0.00915749 -0.00910052
v 0.00186612 0.00889929 -0.00914150
v 0.00289769 0.00864145 -0.00914188
v 0.00432812 0.00812576 -0.00913812
v 0.00418756 0.00812576 -0.00914188
v 0.00016599 0.00773091 -0.00903924
v 0.00432812 0.00642084 -0.00905014
v 0.00016599 0.00924200 -0.00906706
v 0.00031836 0.00915749 -0.00909864
v 0.00057625 0.00915749 -0.00909413
v 0.00186612 0.00910427 -0.00908473
v 0.00212402 0.00889929 -0.00913511
v 0.00315559 0.00864145 -0.00913699
v 0.00367137 0.00838360 -0.00914188
v 0.00432812 0.00826349 -0.00911255
v 0.00392967 0.00838360 -0.00913323
v 0.00016599 0.00772767 -0.00897946
v 0.00432812 0.00640717 -0.00901292
v 0.00432812 0.00639890 -0.00889937
v 0.00016599 0.00929990 -0.00904412
v 0.00031836 0.00929810 -0.00904187
v 0.00057625 0.00929414 -0.00903736
v 0.00212402 0.00908808 -0.00907834
v 0.00078281 0.00929019 -0.00903285
v 0.00095474 0.00928551 -0.00902758
v 0.00238191 0.00889929 -0.00912007
v 0.00315559 0.00884031 -0.00908022
v 0.00341348 0.00864145 -0.00911556
v 0.00432812 0.00837317 -0.00908398
v 0.00392967 0.00858283 -0.00907646
v 0.00016599 0.00772587 -0.00889937
v 0.00432812 0.00642695 -0.00874372
v 0.00016599 0.00773414 -0.00875839
v 0.00016599 0.00935168 -0.00895765
v 0.00031836 0.00938261 -0.00889937
v 0.00057625 0.00937470 -0.00889937
v 0.00186612 0.00923337 -0.00894938
v 0.00238191 0.00906507 -0.00906330
v 0.00085492 0.00934952 -0.00892456
v 0.00083455 0.00956457 -0.00854822
v 0.00109245 0.00955630 -0.00853355
v 0.00109245 0.00948258 -0.00866251
v 0.00109245 0.00935348 -0.00888810
v 0.00135034 0.00934125 -0.00886666
v 0.00160823 0.00932831 -0.00884373
v 0.00186612 0.00931536 -0.00882042
v 0.00341348 0.00880435 -0.00905879
v 0.00258236 0.00904493 -0.00904563
v 0.00432812 0.00848034 -0.00903209
v 0.00413419 0.00854471 -0.00905503
v 0.00432812 0.00894424 -0.00558293
v 0.00016599 0.00846164 -0.00756731
v 0.00016599 0.00841992 -0.00761994
v 0.00016599 0.00834369 -0.00773085
v 0.00016599 0.00829082 -0.00780793
v 0.00016599 0.00792474 -0.00841437
v 0.00016599 0.00779564 -0.00862943
v 0.00016599 0.00938620 -0.00889937
v 0.00016599 0.00945381 -0.00878057
v 0.00031836 0.00950020 -0.00869221
v 0.00057625 0.00949589 -0.00868507
v 0.00083455 0.00949121 -0.00867718
v 0.00212402 0.00929954 -0.00879260
v 0.00212402 0.00921719 -0.00892156
v 0.00083455 0.00964261 -0.00838354
v 0.00109245 0.00962858 -0.00838354
v 0.00057625 0.00956853 -0.00855611
v 0.00125989 0.00954803 -0.00851927
v 0.00160823 0.00959873 -0.00835910
v 0.00186612 0.00958795 -0.00833617
v 0.00134749 0.00948222 -0.00861965
v 0.00186612 0.00941749 -0.00864146
v 0.00275469 0.00902264 -0.00902382
v 0.00356952 0.00877918 -0.00903736
v 0.00236520 0.00920532 -0.00887606
v 0.00265691 0.00911649 -0.00892231
v 0.00432812 0.00850048 -0.00901743
v 0.00430612 0.00850587 -0.00902345
v 0.00374145 0.00874645 -0.00900277
v 0.00392967 0.00871193 -0.00896141
v 0.00420834 0.00865116 -0.00890802
v 0.00432812 0.00904241 -0.00546450
v 0.00016599 0.00852277 -0.00749098
v 0.00016599 0.00950200 -0.00869560
v 0.00016599 0.00954479 -0.00861965
v 0.00031836 0.00957248 -0.00856326
v 0.00186612 0.00951782 -0.00846513
v 0.00212402 0.00938513 -0.00864146
v 0.00226783 0.00928875 -0.00877455
v 0.00057625 0.00964980 -0.00838354
v 0.00082966 0.00976092 -0.00810119
v 0.00109245 0.00973898 -0.00812562
v 0.00160823 0.00970374 -0.00812562
v 0.00160823 0.00953077 -0.00848806
v 0.00186612 0.00968288 -0.00812562
v 0.00212402 0.00965412 -0.00812562
v 0.00212402 0.00957212 -0.00830534
v 0.00289769 0.00909959 -0.00887042
v 0.00315559 0.00906651 -0.00882268
v 0.00315559 0.00896941 -0.00895163
v 0.00341185 0.00894352 -0.00888434
v 0.00366200 0.00884499 -0.00890990
v 0.00392967 0.00881658 -0.00883245
v 0.00411097 0.00878745 -0.00879260
v 0.00428290 0.00875796 -0.00875538
v 0.00244017 0.00927400 -0.00874936
v 0.00263980 0.00925530 -0.00871853
v 0.00289769 0.00922833 -0.00867906
v 0.00432812 0.00871157 -0.00878320
v 0.00432812 0.00906039 -0.00544720
v 0.00016599 0.00903882 -0.00697289
v 0.00016599 0.00891835 -0.00709170
v 0.00016599 0.00857564 -0.00743760
v 0.00016599 0.00957428 -0.00856664
v 0.00031836 0.00965663 -0.00838354
v 0.00212402 0.00950092 -0.00843430
v 0.00236520 0.00933945 -0.00865462
v 0.00057625 0.00975445 -0.00813314
v 0.00074044 0.00980335 -0.00799892
v 0.00091237 0.00980084 -0.00799291
v 0.00109245 0.00979580 -0.00797975
v 0.00160823 0.00977818 -0.00793426
v 0.00186612 0.00976811 -0.00790718
v 0.00213013 0.00976236 -0.00785116
v 0.00238191 0.00972784 -0.00786771
v 0.00263980 0.00969799 -0.00786771
v 0.00263980 0.00959622 -0.00809931
v 0.00289769 0.00957680 -0.00805833
v 0.00232406 0.00955594 -0.00827564
v 0.00306147 0.00929378 -0.00852491
v 0.00315070 0.00920640 -0.00862304
v 0.00323340 0.00927472 -0.00849220
v 0.00341185 0.00910966 -0.00865537
v 0.00332507 0.00904134 -0.00878809
v 0.00404008 0.00902264 -0.00850460
v 0.00394434 0.00895862 -0.00863319
v 0.00419286 0.00885973 -0.00865800
v 0.00418756 0.00899854 -0.00846964
v 0.00432812 0.00890252 -0.00853092
v 0.00432812 0.00883995 -0.00861777
v 0.00432812 0.00874717 -0.00874335
v 0.00289769 0.00930817 -0.00855010
v 0.00432812 0.00920172 -0.00535095
v 0.00016599 0.00907981 -0.00694996
v 0.00016599 0.00965987 -0.00838354
v 0.00031836 0.00975732 -0.00814066
v 0.00263980 0.00953005 -0.00822826
v 0.00263980 0.00944410 -0.00838354
v 0.00289769 0.00940095 -0.00838354
v 0.00057625 0.00980515 -0.00800381
v 0.00057625 0.00985766 -0.00786771
v 0.00082966 0.00984219 -0.00789102
v 0.00109245 0.00984543 -0.00785079
v 0.00160823 0.00982817 -0.00780530
v 0.00186612 0.00981738 -0.00777823
v 0.00204824 0.00980839 -0.00775454
v 0.00222057 0.00979868 -0.00772860
v 0.00238191 0.00983824 -0.00757558
v 0.00263980 0.00977495 -0.00766506
v 0.00282436 0.00981091 -0.00750414
v 0.00290503 0.00976380 -0.00759776
v 0.00289769 0.00966167 -0.00786771
v 0.00308877 0.00955846 -0.00802336
v 0.00289769 0.00950811 -0.00818766
v 0.00315070 0.00934449 -0.00839708
v 0.00316699 0.00949157 -0.00811585
v 0.00341348 0.00932399 -0.00832376
v 0.00378056 0.00928156 -0.00824594
v 0.00341348 0.00924955 -0.00845272
v 0.00367137 0.00908089 -0.00858393
v 0.00394434 0.00912405 -0.00840460
v 0.00418756 0.00909024 -0.00834030
v 0.00432812 0.00906363 -0.00830459
v 0.00432812 0.00930349 -0.00532087
v 0.00016599 0.00915785 -0.00690785
v 0.00016599 0.00975876 -0.00814367
v 0.00016599 0.00980947 -0.00801471
v 0.00031836 0.00980803 -0.00801133
v 0.00083455 0.00993317 -0.00760941
v 0.00031836 0.00986305 -0.00786771
v 0.00109245 0.00992311 -0.00760941
v 0.00160823 0.00989542 -0.00760941
v 0.00186612 0.00987779 -0.00760941
v 0.00213013 0.00984543 -0.00762934
v 0.00263980 0.00988571 -0.00735150
v 0.00263980 0.00982313 -0.00753610
v 0.00290503 0.00984615 -0.00736955
v 0.00315559 0.00983176 -0.00730413
v 0.00299629 0.00979760 -0.00746730
v 0.00315559 0.00972100 -0.00760941
v 0.00341348 0.00967857 -0.00760941
v 0.00316699 0.00960485 -0.00788688
v 0.00341348 0.00958687 -0.00782409
v 0.00367137 0.00955990 -0.00776845
v 0.00380337 0.00954515 -0.00774025
v 0.00367137 0.00949193 -0.00789779
v 0.00368563 0.00935672 -0.00814630
v 0.00392967 0.00933262 -0.00808314
v 0.00392967 0.00926106 -0.00821210
v 0.00420427 0.00922977 -0.00812262
v 0.00432812 0.00917763 -0.00813277
v 0.00432812 0.00941533 -0.00530132
v 0.00016599 0.00941533 -0.00684243
v 0.00016599 0.00927185 -0.00687702
v 0.00016599 0.00986521 -0.00786771
v 0.00057625 0.00993857 -0.00760941
v 0.00083455 0.00999467 -0.00735150
v 0.00109245 0.00998640 -0.00735150
v 0.00031836 0.00994252 -0.00760941
v 0.00135034 0.00997633 -0.00735150
v 0.00160823 0.00996590 -0.00735150
v 0.00186612 0.00995152 -0.00735150
v 0.00212402 0.00993246 -0.00735150
v 0.00238191 0.00991016 -0.00735150
v 0.00263980 0.00995583 -0.00709396
v 0.00289769 0.00992994 -0.00709396
v 0.00315559 0.00989901 -0.00709396
v 0.00343752 0.00985262 -0.00711915
v 0.00353937 0.00980192 -0.00722141
v 0.00343752 0.00977207 -0.00734736
v 0.00367137 0.00973179 -0.00735150
v 0.00367137 0.00963110 -0.00760941
v 0.00390563 0.00958111 -0.00760866
v 0.00413012 0.00956457 -0.00752181
v 0.00397530 0.00952178 -0.00769401
v 0.00412971 0.00930673 -0.00803464
v 0.00430164 0.00928192 -0.00798802
v 0.00432812 0.00925495 -0.00801434
v 0.00432812 0.00954012 -0.00530320
v 0.00016599 0.00967317 -0.00684469
v 0.00016599 0.00994432 -0.00760941
v 0.00057625 0.00999934 -0.00735150
v 0.00083455 0.01004214 -0.00714321
v 0.00109245 0.01006767 -0.00699771
v 0.00130715 0.01006371 -0.00697966
v 0.00031836 0.01000294 -0.00735150
v 0.00137600 0.01003854 -0.00707704
v 0.00160823 0.01002416 -0.00709396
v 0.00186612 0.01000905 -0.00709396
v 0.00212402 0.00999215 -0.00709396
v 0.00238191 0.00997489 -0.00709396
v 0.00238069 0.01003566 -0.00681837
v 0.00263980 0.01001157 -0.00683604
v 0.00289769 0.00998856 -0.00683604
v 0.00315559 0.00996482 -0.00683604
v 0.00341348 0.00993713 -0.00683604
v 0.00367137 0.00990189 -0.00683604
v 0.00367137 0.00983464 -0.00705711
v 0.00367137 0.00978969 -0.00718607
v 0.00394352 0.00977027 -0.00709133
v 0.00392967 0.00968145 -0.00735150
v 0.00420468 0.00960952 -0.00737255
v 0.00432812 0.00959514 -0.00733646
v 0.00432812 0.00953652 -0.00746467
v 0.00420468 0.00950020 -0.00760866
v 0.00420427 0.00935995 -0.00788801
v 0.00432812 0.00946424 -0.00760904
v 0.00432812 0.00934269 -0.00785116
v 0.00432812 0.00927724 -0.00798012
v 0.00432812 0.00967317 -0.00530621
v 0.00016599 0.00993138 -0.00688981
v 0.00016599 0.01000438 -0.00735150
v 0.00057625 0.01004465 -0.00715111
v 0.00083455 0.01007091 -0.00701425
v 0.00212402 0.01006839 -0.00674543
v 0.00212402 0.01004034 -0.00687439
v 0.00229391 0.01006299 -0.00672024
v 0.00284880 0.01006767 -0.00648526
v 0.00292010 0.01004250 -0.00657399
v 0.00315559 0.01001912 -0.00657812
v 0.00341348 0.00999215 -0.00657812
v 0.00367137 0.00996266 -0.00657812
v 0.00392967 0.00992958 -0.00657812
v 0.00418756 0.00989002 -0.00657812
v 0.00394352 0.00984939 -0.00685522
v 0.00418756 0.00982781 -0.00678190
v 0.00386693 0.00981522 -0.00700335
v 0.00418756 0.00972136 -0.00709396
v 0.00432812 0.00969152 -0.00709396
v 0.00432812 0.00952034 -0.00749700
v 0.00432812 0.00993497 -0.00535960
v 0.00016599 0.01007127 -0.00694996
v 0.00431142 0.01006264 -0.00541374
v 0.00016599 0.01004681 -0.00715336
v 0.00031836 0.01004645 -0.00715336
v 0.00057625 0.01007235 -0.00702215
v 0.00335440 0.01006803 -0.00623110
v 0.00342978 0.01004214 -0.00631833
v 0.00392967 0.00998460 -0.00632021
v 0.00418756 0.00995223 -0.00632021
v 0.00432812 0.00993030 -0.00632021
v 0.00432812 0.00986197 -0.00658151
v 0.00432812 0.00981342 -0.00674017
v 0.00432812 0.00977099 -0.00686386
v 0.00432812 0.01006264 -0.00541073
v 0.00057625 0.01007235 -0.00694658
v 0.00016599 0.01007127 -0.00702440
v 0.00403560 0.01006803 -0.00566000
v 0.00031836 0.01007163 -0.00702440
v 0.00413093 0.01006803 -0.00572617
v 0.00384330 0.01006551 -0.00596040
v 0.00392926 0.01003674 -0.00605289
v 0.00418756 0.01000186 -0.00606229
v 0.00432812 0.00998244 -0.00606229
v 0.00432812 0.01006443 -0.00551826
v 0.00430286 0.01005868 -0.00564233
v 0.00432812 0.01005688 -0.00563406
v 0.00420508 0.01004573 -0.00580889
v 0.00401523 0.01005472 -0.00589837
v 0.00432812 0.01002955 -0.00580663
f 1 2 8
f 1 8 13
f 1 13 20
f 1 20 31
f 1 31 45
f 1 45 47
f 1 47 71
f 1 71 70
f 1 70 69
f 1 69 68
f 1 68 67
f 1 67 66
f 1 66 97
f 1 97 127
f 1 127 126
f 1 126 125
f 1 125 158
f 1 158 189
f 1 189 218
f 1 218 217
f 1 217 244
f 1 244 275
f 1 275 296
f 1 296 311
f 1 311 298
f 1 298 276
f 1 276 245
f 1 245 219
f 1 219 191
f 1 191 190
f 1 190 159
f 1 159 128
f 1 128 99
f 1 99 98
f 1 98 73
f 1 73 72
f 1 72 48
f 1 48 34
f 1 34 22
f 1 22 15
f 1 15 9
f 1 9 3
f 1 3 10
f 1 10 17
f 1 17 28
f 1 28 19
f 1 19 11
f 1 11 4
f 1 4 5
f 1 5 6
f 1 6 7
f 1 7 2
f 2 7 8
f 3 9 10
f 4 11 18
f 4 18 29
f 4 29 43
f 4 43 63
f 4 63 91
f 4 91 123
f 4 123 155
f 4 155 154
f 4 154 153
f 4 153 187
f 4 187 215
f 4 215 242
f 4 242 273
f 4 273 272
f 4 272 271
f 4 271 294
f 4 294 268
f 4 268 267
f 4 267 293
f 4 293 308
f 4 308 307
f 4 307 306
f 4 306 305
f 4 305 318
f 4 318 324
f 4 324 321
f 4 321 319
f 4 319 309
f 4 309 295
f 4 295 274
f 4 274 243
f 4 243 216
f 4 216 188
f 4 188 157
f 4 157 124
f 4 124 96
f 4 96 65
f 4 65 46
f 4 46 33
f 4 33 32
f 4 32 21
f 4 21 14
f 4 14 12
f 4 12 7
f 4 7 5
f 5 7 6
f 7 12 8
f 8 12 14
f 8 14 13
f 9 15 10
f 10 15 16
f 10 16 17
f 11 19 18
f 13 14 20
f 14 21 20
f 15 22 23
f 15 23 16
f 16 23 24
f 16 24 25
f 16 25 26
f 16 26 27
f 16 27 17
f 17 27 28
f 18 19 28
f 18 28 30
f 18 30 29
f 20 21 32
f 20 32 33
f 20 33 31
f 22 34 23
f 23 34 24
f 24 34 35
f 24 35 36
f 24 36 25
f 25 37 26
f 25 36 38
f 25 38 39
f 25 39 37
f 26 37 40
f 26 40 27
f 27 41 42
f 27 42 30
f 27 30 28
f 27 40 41
f 29 30 43
f 30 44 43
f 30 42 44
f 31 33 45
f 33 46 47
f 33 47 45
f 34 48 35
f 35 49 36
f 35 48 49
f 36 49 50
f 36 50 38
f 37 51 52
f 37 52 41
f 37 41 40
f 37 39 51
f 38 50 53
f 38 53 39
f 39 53 54
f 39 54 55
f 39 55 56
f 39 56 57
f 39 57 58
f 39 58 59
f 39 59 60
f 39 60 51
f 41 61 44
f 41 44 42
f 41 52 62
f 41 62 61
f 43 44 64
f 43 64 63
f 44 61 64
f 46 65 66
f 46 66 67
f 46 67 68
f 46 68 69
f 46 69 70
f 46 70 71
f 46 71 47
f 48 72 49
f 49 72 73
f 49 73 74
f 49 74 50
f 50 74 75
f 50 75 54
f 50 54 76
f 50 76 53
f 51 60 77
f 51 77 78
f 51 78 52
f 52 78 62
f 53 76 54
f 54 79 80
f 54 80 55
f 54 75 81
f 54 81 79
f 55 82 58
f 55 58 56
f 55 80 83
f 55 83 84
f 55 84 82
f 56 58 57
f 58 82 85
f 58 85 59
f 59 85 86
f 59 86 60
f 60 86 77
f 61 62 87
f 61 87 88
f 61 88 64
f 62 78 89
f 62 89 90
f 62 90 87
f 63 64 92
f 63 92 91
f 64 88 93
f 64 93 94
f 64 94 95
f 64 95 92
f 65 96 97
f 65 97 66
f 73 98 74
f 74 98 99
f 74 99 100
f 74 100 81
f 74 81 75
f 77 86 101
f 77 101 102
f 77 102 103
f 77 103 78
f 78 103 89
f 79 81 100
f 79 100 104
f 79 104 105
f 79 105 106
f 79 106 80
f 80 106 107
f 80 107 83
f 82 84 108
f 82 108 85
f 83 107 109
f 83 109 84
f 84 109 110
f 84 110 111
f 84 111 101
f 84 101 108
f 85 108 101
f 85 101 86
f 87 90 112
f 87 112 113
f 87 113 114
f 87 114 88
f 88 114 115
f 88 115 116
f 88 116 117
f 88 117 118
f 88 118 119
f 88 119 93
f 89 103 120
f 89 120 121
f 89 121 90
f 90 122 112
f 90 121 122
f 91 92 123
f 92 95 119
f 92 119 123
f 93 119 94
f 94 119 95
f 96 124 125
f 96 125 126
f 96 126 127
f 96 127 97
f 99 128 100
f 100 128 129
f 100 129 104
f 101 111 130
f 101 130 102
f 102 130 103
f 103 131 120
f 103 130 131
f 104 132 105
f 104 129 132
f 105 132 133
f 105 133 134
f 105 134 106
f 106 134 135
f 106 135 107
f 107 136 137
f 107 137 109
f 107 135 136
f 109 137 138
f 109 138 139
f 109 139 110
f 110 139 140
f 110 140 141
f 110 141 111
f 111 141 142
f 111 142 143
f 111 143 130
f 112 122 144
f 112 144 145
f 112 145 113
f 113 145 146
f 113 146 147
f 113 147 148
f 113 148 115
f 113 115 114
f 115 148 149
f 115 149 150
f 115 150 116
f 116 150 117
f 117 150 149
f 117 149 118
f 118 149 151
f 118 151 119
f 119 151 152
f 119 152 153
f 119 153 154
f 119 154 155
f 119 155 123
f 120 131 156
f 120 156 144
f 120 144 121
f 121 144 122
f 124 157 125
f 125 157 158
f 128 159 129
f 129 159 160
f 129 160 132
f 130 143 131
f 131 143 161
f 131 161 162
f 131 162 163
f 131 163 156
f 132 164 133
f 132 160 192
f 132 192 164
f 133 164 165
f 133 165 166
f 133 166 134
f 134 167 135
f 134 166 167
f 135 167 168
f 135 168 136
f 136 168 137
f 137 169 170
f 137 170 138
f 137 168 169
f 138 170 139
f 139 170 171
f 139 171 172
f 139 172 173
f 139 173 140
f 140 173 174
f 140 174 175
f 140 175 176
f 140 176 141
f 141 176 142
f 142 176 177
f 142 177 178
f 142 178 161
f 142 161 143
f 144 177 179
f 144 179 146
f 144 146 145
f 144 156 163
f 144 163 178
f 144 178 177
f 146 179 180
f 146 180 181
f 146 181 182
f 146 182 183
f 146 183 147
f 147 184 148
f 147 183 185
f 147 185 184
f 148 184 149
f 149 184 185
f 149 185 186
f 149 186 152
f 149 152 151
f 152 186 187
f 152 187 153
f 157 188 189
f 157 189 158
f 159 190 160
f 160 190 191
f 160 191 192
f 161 178 163
f 161 163 162
f 164 192 165
f 165 193 166
f 165 192 194
f 165 194 193
f 166 193 167
f 167 193 195
f 167 195 196
f 167 196 168
f 168 196 197
f 168 197 169
f 169 197 198
f 169 198 170
f 170 198 172
f 170 172 171
f 172 198 197
f 172 197 199
f 172 199 200
f 172 200 173
f 173 200 174
f 174 201 202
f 174 202 203
f 174 203 204
f 174 204 175
f 174 200 199
f 174 199 201
f 175 204 176
f 176 204 205
f 176 205 206
f 176 206 177
f 177 180 179
f 177 206 207
f 177 207 208
f 177 208 209
f 177 209 210
f 177 210 180
f 180 210 211
f 180 211 181
f 181 211 182
f 182 211 209
f 182 209 212
f 182 212 213
f 182 213 183
f 183 213 185
f 185 213 186
f 186 213 214
f 186 214 187
f 187 214 215
f 188 216 217
f 188 217 218
f 188 218 189
f 191 219 194
f 191 194 192
f 193 194 220
f 193 220 221
f 193 221 222
f 193 222 224
f 193 224 195
f 194 219 223
f 194 223 220
f 195 224 225
f 195 225 196
f 196 225 226
f 196 226 197
f 197 226 227
f 197 227 228
f 197 228 199
f 199 228 229
f 199 229 230
f 199 230 231
f 199 231 201
f 201 231 232
f 201 232 202
f 202 232 233
f 202 233 203
f 203 233 204
f 204 233 234
f 204 234 205
f 205 234 235
f 205 235 236
f 205 236 207
f 205 207 206
f 207 236 208
f 208 236 209
f 209 211 210
f 209 236 237
f 209 237 238
f 209 238 239
f 209 239 240
f 209 240 212
f 212 240 213
f 213 240 241
f 213 241 214
f 214 241 215
f 215 241 242
f 216 243 244
f 216 244 217
f 219 245 223
f 220 246 221
f 220 223 246
f 221 247 248
f 221 248 222
f 221 246 247
f 222 248 249
f 222 249 224
f 223 245 250
f 223 250 246
f 224 251 225
f 224 249 251
f 225 251 249
f 225 249 252
f 225 252 226
f 226 252 253
f 226 253 254
f 226 254 255
f 226 255 229
f 226 229 227
f 227 229 228
f 229 255 256
f 229 256 257
f 229 257 258
f 229 258 259
f 229 259 230
f 230 259 260
f 230 260 231
f 231 260 261
f 231 261 232
f 232 261 262
f 232 262 233
f 233 262 263
f 233 263 235
f 233 235 234
f 235 263 264
f 235 264 265
f 235 265 236
f 236 265 237
f 237 265 266
f 237 266 238
f 238 266 267
f 238 267 268
f 238 268 269
f 238 269 239
f 239 269 270
f 239 270 240
f 240 270 241
f 241 270 269
f 241 269 271
f 241 271 272
f 241 272 273
f 241 273 242
f 243 274 244
f 244 274 275
f 245 276 250
f 246 250 277
f 246 277 247
f 247 278 248
f 247 277 278
f 248 278 279
f 248 279 249
f 249 279 252
f 250 276 277
f 252 279 253
f 253 279 280
f 253 280 254
f 254 280 281
f 254 281 256
f 254 256 255
f 256 281 257
f 257 281 282
f 257 282 283
f 257 283 258
f 258 283 259
f 259 283 284
f 259 284 285
f 259 285 260
f 260 285 286
f 260 286 287
f 260 287 261
f 261 287 288
f 261 288 289
f 261 289 262
f 262 289 290
f 262 290 291
f 262 291 264
f 262 264 263
f 264 290 292
f 264 292 265
f 264 291 290
f 265 292 293
f 265 293 266
f 266 293 267
f 268 294 269
f 269 294 271
f 274 295 275
f 275 295 297
f 275 297 296
f 276 298 299
f 276 299 277
f 277 299 300
f 277 300 278
f 278 300 279
f 279 281 280
f 279 300 301
f 279 301 282
f 279 282 281
f 282 301 284
f 282 284 283
f 284 301 285
f 285 302 286
f 285 301 302
f 286 302 303
f 286 303 304
f 286 304 287
f 287 304 288
f 288 290 289
f 288 304 305
f 288 305 306
f 288 306 290
f 290 306 307
f 290 307 292
f 292 307 308
f 292 308 293
f 295 309 297
f 296 310 300
f 296 300 311
f 296 297 312
f 296 312 310
f 297 309 312
f 298 311 313
f 298 313 300
f 298 300 299
f 300 313 311
f 300 310 314
f 300 314 301
f 301 314 315
f 301 315 303
f 301 303 302
f 303 316 304
f 303 315 316
f 304 316 317
f 304 317 318
f 304 318 305
f 309 319 312
f 310 312 314
f 312 319 314
f 314 319 320
f 314 320 321
f 314 321 322
f 314 322 323
f 314 323 315
f 315 323 317
f 315 317 316
f 317 322 324
f 317 324 318
f 317 323 322
f 319 321 320
f 321 324 322

