# https://github.com/mikedh/trimesh
v 0.04537711 0.04641621 -0.01871195
v 0.04410281 0.04591538 -0.02230360
v 0.04285285 0.04596045 -0.02230360
v 0.04034483 0.04603558 -0.02230360
v 0.03908676 0.04606563 -0.02230360
v 0.03783680 0.04608817 -0.02230360
v 0.03657873 0.04610569 -0.02230360
v 0.03532878 0.04611571 -0.02230360
v 0.03407071 0.04612322 -0.02230360
v 0.03282075 0.04612322 -0.02230360
v 0.03156268 0.04612072 -0.02230360
v 0.03908676 0.04639367 -0.01871195
v 0.04608325 0.04638867 -0.01871195
v 0.04535276 0.04586029 -0.02230360
v 0.04608325 0.04575260 -0.02273284
v 0.04608325 0.04568499 -0.02305623
v 0.04535276 0.04570252 -0.02307877
v 0.04410281 0.04573257 -0.02311209
v 0.04285285 0.04575511 -0.02313659
v 0.04159478 0.04577514 -0.02315717
v 0.04034483 0.04579267 -0.02317481
v 0.03908676 0.04580770 -0.02318853
v 0.03783680 0.04582022 -0.02320029
v 0.03657873 0.04582773 -0.02320617
v 0.03407071 0.04583274 -0.02320911
v 0.03282075 0.04583274 -0.02321009
v 0.03156268 0.04583274 -0.02321009
v 0.03031273 0.04583024 -0.02320911
v 0.03031273 0.04611571 -0.02230360
v 0.03783680 0.04637865 -0.01871195
v 0.03031273 0.04617832 -0.02104922
v 0.04608325 0.04582773 -0.02230360
v 0.04608325 0.04191871 -0.01871195
v 0.09582170 0.02083357 -0.02272598
v 0.09581358 0.02616495 -0.02272598
v 0.09579735 0.03427848 -0.02272598
v 0.08889825 0.03907397 -0.02452033
v 0.04608325 0.04348883 -0.02598444
v 0.08676359 0.03907397 -0.02530433
v 0.08620355 0.03907397 -0.02547386
v 0.08582206 0.03907397 -0.02558656
v 0.08242122 0.03907397 -0.02656655
v 0.08214525 0.03907397 -0.02664201
v 0.08193422 0.03907397 -0.02669101
v 0.08140664 0.03907397 -0.02680371
v 0.08044888 0.03907397 -0.02697520
v 0.07669902 0.03907397 -0.02763180
v 0.07544095 0.03907397 -0.02782583
v 0.04535276 0.04350135 -0.02600012
v 0.04410281 0.04304810 -0.02665181
v 0.04285285 0.04307064 -0.02667533
v 0.04217918 0.04308316 -0.02668709
v 0.03783680 0.04369417 -0.02606186
v 0.03657873 0.04371671 -0.02606186
v 0.03532878 0.04371171 -0.02606186
v 0.03407071 0.04370419 -0.02606186
v 0.03156268 0.04368666 -0.02606186
v 0.02906277 0.04366913 -0.02606186
v 0.02780470 0.04365911 -0.02606186
v 0.02655475 0.04364910 -0.02606186
v 0.02906277 0.04582272 -0.02320225
v 0.02906277 0.04609818 -0.02230360
v 0.03407071 0.04632356 -0.01871195
v 0.02906277 0.04615828 -0.02104922
v 0.01290265 0.04120252 -0.01871195
v 0.09513991 0.02083357 -0.02306113
v 0.09513991 0.02365577 -0.02306407
v 0.09577300 0.02365577 -0.02275048
v 0.09577300 0.02616495 -0.02274950
v 0.08829762 0.02083357 -0.02272598
v 0.09513991 0.03117080 -0.02306309
v 0.09545645 0.03427848 -0.02289748
v 0.09153614 0.03621921 -0.02452033
v 0.09083000 0.03744125 -0.02452033
v 0.09047287 0.03781938 -0.02452033
v 0.08949888 0.03869584 -0.02452033
v 0.08932843 0.03881855 -0.02452033
v 0.08922291 0.03888616 -0.02452033
v 0.04608325 0.04301054 -0.02661163
v 0.08755090 0.03821003 -0.02550914
v 0.08671489 0.03846045 -0.02563556
v 0.08797296 0.03865327 -0.02511813
v 0.08294879 0.03892122 -0.02649403
v 0.08294879 0.03829517 -0.02678999
v 0.08165014 0.03873591 -0.02690563
v 0.08044888 0.03869334 -0.02715454
v 0.07669091 0.03885110 -0.02775723
v 0.07544095 0.03905144 -0.02783759
v 0.07523804 0.03907397 -0.02784543
v 0.04608325 0.04264493 -0.02690856
v 0.04608325 0.04238449 -0.02711632
v 0.04134317 0.04309568 -0.02670081
v 0.03783680 0.04314827 -0.02675275
v 0.03657873 0.04315828 -0.02676353
v 0.03532878 0.04315828 -0.02676255
v 0.03156268 0.04314576 -0.02675079
v 0.02780470 0.04313324 -0.02673805
v 0.02655475 0.04312823 -0.02673315
v 0.02655475 0.04579267 -0.02317677
v 0.02780470 0.04580770 -0.02319049
v 0.02529668 0.04310820 -0.02671355
v 0.02529668 0.04360903 -0.02606186
v 0.02529668 0.04577514 -0.02315815
v 0.02780470 0.04606813 -0.02230360
v 0.03282075 0.04629852 -0.01871195
v 0.02906277 0.04622088 -0.01871195
v 0.02780470 0.04612823 -0.02104922
v 0.01290265 0.04520419 -0.01871195
v 0.01290265 0.02083357 -0.02581000
v 0.02655475 0.02417163 -0.02407346
v 0.09424708 0.02083357 -0.02347763
v 0.09424708 0.02365577 -0.02348155
v 0.09424708 0.02616495 -0.02348449
v 0.09513991 0.02616495 -0.02306407
v 0.09424708 0.03427848 -0.02348449
v 0.09470973 0.03427848 -0.02326399
v 0.09512367 0.03427848 -0.02306113
v 0.09175529 0.03520753 -0.02452033
v 0.09173906 0.03493207 -0.02454974
v 0.08946641 0.03618916 -0.02529355
v 0.08867911 0.03693541 -0.02546504
v 0.08914987 0.03738866 -0.02517105
v 0.08838691 0.03776930 -0.02535725
v 0.08928785 0.03877347 -0.02456247
v 0.07435333 0.03907397 -0.02791207
v 0.07352544 0.03907397 -0.02797283
v 0.07266508 0.03907397 -0.02803065
v 0.08671489 0.03744125 -0.02598150
v 0.08362247 0.03809484 -0.02669983
v 0.08797296 0.03738866 -0.02560224
v 0.08170696 0.03744125 -0.02730644
v 0.07919893 0.03869334 -0.02737700
v 0.07734023 0.03808232 -0.02794735
v 0.07783534 0.03857815 -0.02766511
v 0.07669091 0.03822506 -0.02799635
v 0.07544095 0.03842539 -0.02806691
v 0.07167485 0.03907397 -0.02809631
v 0.04608325 0.04145544 -0.02774253
v 0.03783680 0.04245711 -0.02725940
v 0.03908676 0.04245711 -0.02723000
v 0.07042490 0.03907397 -0.02816687
v 0.03657873 0.04245711 -0.02727606
v 0.03532878 0.04245711 -0.02727508
v 0.02780470 0.04245711 -0.02723588
v 0.02655475 0.04245711 -0.02722706
v 0.02529668 0.04245711 -0.02719570
v 0.02457430 0.04308816 -0.02669395
v 0.02278865 0.04240703 -0.02712906
v 0.01903067 0.04228432 -0.02705948
v 0.01777260 0.04224175 -0.02703498
v 0.02373829 0.04306312 -0.02666847
v 0.02278865 0.04351137 -0.02600992
v 0.02028062 0.04564743 -0.02300821
v 0.02153870 0.04568249 -0.02305133
v 0.02278865 0.04571504 -0.02309249
v 0.02404672 0.04575010 -0.02312973
v 0.02655475 0.04603808 -0.02230360
v 0.02655475 0.04609818 -0.02104922
v 0.02529668 0.04606062 -0.02104922
v 0.02780470 0.04618082 -0.01871195
v 0.01290265 0.04520419 -0.01994281
v 0.01401462 0.04531688 -0.01871195
v 0.01401462 0.04531938 -0.01979581
v 0.01290265 0.02083357 -0.02868822
v 0.09341107 0.02083357 -0.02385002
v 0.09314323 0.02616495 -0.02397546
v 0.09314323 0.03427848 -0.02397742
v 0.09181211 0.03493207 -0.02452033
v 0.09251013 0.03427848 -0.02424692
v 0.09173906 0.03428098 -0.02454974
v 0.09047287 0.02083357 -0.02501915
v 0.09005081 0.03428098 -0.02517105
v 0.09047287 0.03493207 -0.02501523
v 0.08884144 0.03618916 -0.02552384
v 0.08797296 0.03618916 -0.02582372
v 0.07167485 0.03869334 -0.02822567
v 0.08671489 0.03618916 -0.02621081
v 0.08477502 0.03669250 -0.02667043
v 0.08388220 0.03744125 -0.02677235
v 0.08294879 0.03744125 -0.02701930
v 0.08294879 0.03618916 -0.02721236
v 0.08170696 0.03618916 -0.02747892
v 0.08044888 0.03744125 -0.02753576
v 0.07817624 0.03769167 -0.02787679
v 0.07783534 0.03734108 -0.02799635
v 0.07669091 0.03744125 -0.02815511
v 0.07544095 0.03744125 -0.02828741
v 0.07418288 0.03744125 -0.02836973
v 0.07167485 0.03744125 -0.02851868
v 0.07042490 0.03869334 -0.02830113
v 0.04608325 0.04109234 -0.02793461
v 0.04535276 0.04146797 -0.02775037
v 0.03783680 0.04159818 -0.02782191
v 0.04159478 0.04153307 -0.02778859
v 0.06917495 0.03869334 -0.02834523
v 0.06917495 0.03907397 -0.02820901
v 0.04608325 0.04082940 -0.02807181
v 0.03657873 0.04160820 -0.02782877
v 0.03532878 0.04160820 -0.02782779
v 0.03031273 0.04159067 -0.02781897
v 0.02780470 0.04158065 -0.02781407
v 0.02655475 0.04157314 -0.02781015
v 0.02529668 0.04155060 -0.02779839
v 0.02404672 0.04151304 -0.02777781
v 0.02028062 0.04140285 -0.02771020
v 0.01777260 0.04132773 -0.02766120
v 0.01652264 0.04219918 -0.02700656
v 0.02278865 0.04303307 -0.02663711
v 0.02028062 0.04343875 -0.02591976
v 0.01903067 0.04561237 -0.02296117
v 0.01837323 0.04559484 -0.02293373
v 0.02529668 0.04600302 -0.02230360
v 0.02655475 0.04613324 -0.01871195
v 0.02404672 0.04600803 -0.02104922
v 0.02404672 0.04602556 -0.01979581
v 0.01290265 0.04519417 -0.02104922
v 0.01526457 0.04544209 -0.01871195
v 0.01526457 0.04544209 -0.01979581
v 0.01401462 0.04530436 -0.02104922
v 0.01290265 0.03618916 -0.02868822
v 0.01526457 0.02866913 -0.02872350
v 0.04608325 0.02083357 -0.02868920
v 0.09250202 0.02083357 -0.02424692
v 0.09251013 0.02240118 -0.02424692
v 0.09173094 0.02083357 -0.02455170
v 0.08959628 0.02083357 -0.02534157
v 0.08959628 0.02114659 -0.02534157
v 0.08897130 0.02365577 -0.02556892
v 0.08958816 0.03242789 -0.02534058
v 0.08896318 0.03427848 -0.02556696
v 0.08958816 0.03493207 -0.02533862
v 0.08895507 0.03493207 -0.02556696
v 0.08797296 0.03493207 -0.02590702
v 0.08671489 0.03493207 -0.02629411
v 0.08498606 0.03585611 -0.02673315
v 0.08429615 0.03623925 -0.02686446
v 0.08420687 0.03493207 -0.02697716
v 0.08294879 0.03493207 -0.02727606
v 0.08170696 0.03493207 -0.02753674
v 0.08044888 0.03618916 -0.02770039
v 0.07861454 0.03685527 -0.02795029
v 0.07669091 0.03618916 -0.02829525
v 0.07544095 0.03618916 -0.02840795
v 0.07418288 0.03618916 -0.02848537
v 0.07293292 0.03618916 -0.02855396
v 0.07042490 0.03744125 -0.02858336
v 0.04410281 0.04086446 -0.02808749
v 0.04034483 0.04092957 -0.02811689
v 0.03783680 0.04097214 -0.02813453
v 0.06917495 0.03744125 -0.02861374
v 0.06791687 0.03869334 -0.02837365
v 0.06740553 0.03907397 -0.02825311
v 0.06863925 0.03907397 -0.02822371
v 0.04608325 0.04032356 -0.02825605
v 0.06617181 0.03907397 -0.02828055
v 0.06493809 0.03907397 -0.02830701
v 0.03657873 0.04098466 -0.02813943
v 0.03532878 0.04098215 -0.02813943
v 0.03407071 0.04097965 -0.02813747
v 0.03156268 0.04096963 -0.02813355
v 0.02780470 0.04095461 -0.02812767
v 0.02655475 0.04094960 -0.02812473
v 0.02529668 0.04092456 -0.02811493
v 0.02404672 0.04088950 -0.02809827
v 0.02278865 0.04085194 -0.02808161
v 0.02153870 0.04081437 -0.02806397
v 0.01903067 0.04073925 -0.02802673
v 0.01777260 0.04070169 -0.02800713
v 0.01652264 0.04065911 -0.02798557
v 0.01652264 0.04128516 -0.02763278
v 0.01526457 0.04214159 -0.02696638
v 0.01652264 0.04282773 -0.02639799
v 0.01777260 0.04287030 -0.02645189
v 0.02153870 0.04299300 -0.02659301
v 0.01903067 0.04340119 -0.02587272
v 0.01810538 0.04561237 -0.02230360
v 0.01903067 0.04567498 -0.02230360
v 0.02028062 0.04575511 -0.02230360
v 0.02153870 0.04582523 -0.02230360
v 0.02404672 0.04595044 -0.02230360
v 0.01777260 0.04336362 -0.02582470
v 0.01652264 0.04332356 -0.02577178
v 0.01526457 0.04326846 -0.02569730
v 0.01290265 0.04314325 -0.02552090
v 0.01290265 0.04469585 -0.02329731
v 0.01290265 0.04511655 -0.02230360
v 0.01720444 0.04558733 -0.02145983
v 0.02529668 0.04608316 -0.01871195
v 0.02153870 0.04589033 -0.02104922
v 0.02278865 0.04596546 -0.01979581
v 0.02404672 0.04603057 -0.01871195
v 0.01643336 0.04554726 -0.01871195
v 0.01644148 0.04554726 -0.01979581
v 0.01662004 0.04554977 -0.02104432
v 0.01526457 0.04542706 -0.02104922
v 0.01290265 0.03744376 -0.02866666
v 0.01526457 0.03618916 -0.02872252
v 0.01526457 0.03579851 -0.02872350
v 0.06917495 0.02083357 -0.02868920
v 0.08897130 0.02083357 -0.02556892
v 0.08822458 0.02083357 -0.02582274
v 0.08797296 0.02616495 -0.02590800
v 0.08703144 0.02083357 -0.02619709
v 0.08671489 0.03428098 -0.02629411
v 0.08570032 0.03493207 -0.02657929
v 0.08507534 0.03493207 -0.02675471
v 0.08420687 0.02616495 -0.02697912
v 0.08361436 0.03428098 -0.02712122
v 0.08294879 0.03117080 -0.02727802
v 0.08294879 0.02491036 -0.02727900
v 0.08170696 0.02114659 -0.02753870
v 0.08044888 0.03493207 -0.02775625
v 0.07794086 0.03618916 -0.02811787
v 0.07669091 0.03493207 -0.02832661
v 0.07794086 0.03493207 -0.02816393
v 0.07544095 0.03493207 -0.02843146
v 0.07418288 0.03493207 -0.02850693
v 0.07167485 0.03618916 -0.02861864
v 0.07042490 0.03618916 -0.02866863
v 0.04608325 0.03995043 -0.02839129
v 0.04285285 0.03995043 -0.02842853
v 0.04034483 0.03995043 -0.02845499
v 0.03908676 0.03995043 -0.02846773
v 0.03783680 0.03995043 -0.02847949
v 0.06917495 0.03618916 -0.02868724
v 0.06791687 0.03744125 -0.02862452
v 0.04912697 0.03869334 -0.02861963
v 0.05163500 0.03869334 -0.02859610
v 0.05664294 0.03869334 -0.02854515
v 0.05914284 0.03869334 -0.02851966
v 0.06039280 0.03869334 -0.02850399
v 0.06164275 0.03869334 -0.02848732
v 0.06290894 0.03869334 -0.02846871
v 0.06415889 0.03869334 -0.02844715
v 0.06540885 0.03869334 -0.02842461
v 0.06666692 0.03869334 -0.02839912
v 0.03657873 0.03995043 -0.02848635
v 0.03532878 0.03995043 -0.02848732
v 0.03156268 0.03995043 -0.02848046
v 0.02906277 0.03995043 -0.02847360
v 0.02780470 0.03995043 -0.02846968
v 0.02655475 0.03995043 -0.02846479
v 0.02529668 0.03995043 -0.02845204
v 0.02404672 0.03995043 -0.02843245
v 0.02153870 0.03995043 -0.02838933
v 0.02028062 0.03995043 -0.02836385
v 0.01903067 0.03995043 -0.02833347
v 0.01777260 0.03995043 -0.02830113
v 0.01652264 0.03995043 -0.02826487
v 0.01290265 0.03984526 -0.02817667
v 0.01554054 0.04061404 -0.02796205
v 0.01470453 0.04057147 -0.02793951
v 0.01518341 0.04110235 -0.02766120
v 0.01401462 0.04120252 -0.02752106
v 0.01290265 0.04120252 -0.02744266
v 0.01401462 0.04207648 -0.02691641
v 0.01290265 0.04201888 -0.02686839
v 0.01526457 0.04276763 -0.02632351
v 0.02028062 0.04581771 -0.02104922
v 0.01401462 0.04270252 -0.02623139
v 0.01290265 0.04264493 -0.02614809
v 0.01710704 0.04559484 -0.02062390
v 0.01768332 0.04562990 -0.02104432
v 0.01903067 0.04572756 -0.02104922
v 0.02153870 0.04590286 -0.01979581
v 0.02278865 0.04597047 -0.01871195
v 0.01696906 0.04559234 -0.01871195
v 0.01706646 0.04559735 -0.01979581
v 0.01290265 0.03869584 -0.02852751
v 0.01401462 0.03869584 -0.02854613
v 0.01526457 0.03869584 -0.02856671
v 0.02028062 0.03869584 -0.02863040
v 0.02153870 0.03869584 -0.02864510
v 0.01526457 0.03744376 -0.02869312
v 0.02153870 0.03744376 -0.02869704
v 0.04786890 0.03744125 -0.02868920
v 0.06791687 0.03618916 -0.02868822
v 0.06917495 0.03493207 -0.02868920
v 0.07043302 0.02083357 -0.02868626
v 0.08797296 0.02083357 -0.02590800
v 0.08671489 0.02083357 -0.02629117
v 0.08671489 0.02114659 -0.02629215
v 0.08671489 0.02365577 -0.02629313
v 0.08522955 0.02083357 -0.02671159
v 0.08507534 0.02083357 -0.02675373
v 0.08420687 0.02083357 -0.02697912
v 0.08326534 0.02083357 -0.02720452
v 0.08294879 0.02083357 -0.02727900
v 0.08170696 0.02083357 -0.02753870
v 0.08076543 0.02083357 -0.02770138
v 0.08044888 0.02083357 -0.02775331
v 0.07893920 0.03427848 -0.02800223
v 0.07893920 0.03493207 -0.02800223
v 0.07699122 0.02083357 -0.02827761
v 0.07668279 0.02083357 -0.02831681
v 0.07574938 0.02083357 -0.02840501
v 0.07544095 0.02083357 -0.02843343
v 0.07544095 0.02616495 -0.02843637
v 0.07544095 0.02741704 -0.02843637
v 0.07417476 0.02240118 -0.02854613
v 0.07794086 0.03367998 -0.02816393
v 0.07794086 0.02365577 -0.02815903
v 0.07417476 0.02616495 -0.02854318
v 0.07417476 0.03242789 -0.02852065
v 0.07417476 0.03367998 -0.02851574
v 0.07357414 0.03428098 -0.02854221
v 0.07167485 0.03428098 -0.02863824
v 0.07167485 0.03493207 -0.02863335
v 0.07042490 0.03493207 -0.02867646
v 0.04786890 0.03869334 -0.02862746
v 0.07043302 0.03427848 -0.02867940
v 0.07043302 0.03242789 -0.02868332
v 0.04912697 0.03744125 -0.02868822
v 0.05037693 0.03744125 -0.02868626
v 0.05414303 0.03744125 -0.02867744
v 0.06164275 0.03744125 -0.02865882
v 0.06290894 0.03744125 -0.02865392
v 0.06415889 0.03744125 -0.02864902
v 0.06540885 0.03744125 -0.02864216
v 0.06666692 0.03744125 -0.02863432
v 0.04608325 0.03869584 -0.02863530
v 0.04410281 0.03869584 -0.02864216
v 0.04285285 0.03869584 -0.02864608
v 0.03783680 0.03869584 -0.02865882
v 0.03532878 0.03869584 -0.02866274
v 0.02906277 0.03869584 -0.02865980
v 0.02780470 0.03869584 -0.02865784
v 0.01290265 0.04047130 -0.02789051
v 0.02028062 0.04583024 -0.01979581
v 0.01777260 0.04564993 -0.01979581
v 0.02153870 0.04590536 -0.01871195
v 0.01777260 0.04565244 -0.01871195
v 0.07043302 0.02741704 -0.02868626
v 0.07074145 0.02083357 -0.02868136
v 0.07794086 0.02083357 -0.02815609
v 0.07449131 0.02083357 -0.02851771
v 0.07417476 0.02083357 -0.02854515
v 0.07293292 0.02083357 -0.02862158
v 0.07293292 0.02741704 -0.02861570
v 0.07293292 0.02867163 -0.02860982
v 0.07293292 0.02992122 -0.02860394
v 0.07166674 0.03242789 -0.02864804
v 0.07106611 0.03428098 -0.02865882
v 0.07166674 0.03117080 -0.02865392
v 0.07166674 0.02867163 -0.02866274
v 0.07166674 0.02741704 -0.02866568
v 0.01903067 0.04574259 -0.01871195
v 0.02028062 0.04583024 -0.01871195
v 0.07166674 0.02083357 -0.02866568
f 1 2 3
f 1 3 4
f 1 4 5
f 1 5 6
f 1 6 7
f 1 7 8
f 1 8 9
f 1 9 10
f 1 10 11
f 1 11 12
f 1 12 30
f 1 30 63
f 1 63 105
f 1 105 106
f 1 106 160
f 1 160 213
f 1 213 288
f 1 288 291
f 1 291 366
f 1 366 431
f 1 431 448
f 1 448 447
f 1 447 432
f 1 432 367
f 1 367 292
f 1 292 217
f 1 217 162
f 1 162 108
f 1 108 65
f 1 65 33
f 1 33 13
f 1 13 2
f 2 13 14
f 2 14 15
f 2 15 16
f 2 16 3
f 3 16 17
f 3 17 18
f 3 18 4
f 4 18 5
f 5 18 19
f 5 19 20
f 5 20 21
f 5 21 6
f 6 21 22
f 6 22 7
f 7 22 23
f 7 23 8
f 8 23 24
f 8 24 9
f 9 25 26
f 9 26 27
f 9 27 10
f 9 24 25
f 10 27 11
f 11 27 28
f 11 28 29
f 11 29 12
f 12 29 31
f 12 31 30
f 13 32 14
f 13 33 34
f 13 34 35
f 13 35 36
f 13 36 37
f 13 37 32
f 14 32 15
f 15 32 37
f 15 37 16
f 16 38 17
f 16 37 39
f 16 39 40
f 16 40 41
f 16 41 42
f 16 42 43
f 16 43 44
f 16 44 45
f 16 45 46
f 16 46 47
f 16 47 48
f 16 48 38
f 17 38 18
f 18 38 49
f 18 49 19
f 19 49 50
f 19 50 51
f 19 51 52
f 19 52 53
f 19 53 20
f 20 53 21
f 21 53 22
f 22 53 54
f 22 54 23
f 23 54 24
f 24 54 25
f 25 54 26
f 26 54 27
f 27 54 28
f 28 54 55
f 28 55 56
f 28 56 57
f 28 57 58
f 28 58 59
f 28 59 60
f 28 60 61
f 28 61 29
f 29 61 62
f 29 62 31
f 30 31 63
f 31 62 64
f 31 64 63
f 33 65 34
f 34 66 67
f 34 67 68
f 34 68 69
f 34 69 35
f 34 65 70
f 34 70 109
f 34 109 164
f 34 164 222
f 34 222 299
f 34 299 379
f 34 379 434
f 34 434 449
f 34 449 438
f 34 438 437
f 34 437 436
f 34 436 397
f 34 397 396
f 34 396 395
f 34 395 394
f 34 394 435
f 34 435 391
f 34 391 390
f 34 390 389
f 34 389 388
f 34 388 387
f 34 387 386
f 34 386 385
f 34 385 384
f 34 384 381
f 34 381 303
f 34 303 380
f 34 380 301
f 34 301 300
f 34 300 226
f 34 226 171
f 34 171 225
f 34 225 223
f 34 223 165
f 34 165 111
f 34 111 66
f 35 69 36
f 36 69 71
f 36 71 72
f 36 72 73
f 36 73 74
f 36 74 75
f 36 75 76
f 36 76 77
f 36 77 78
f 36 78 37
f 37 78 39
f 38 79 50
f 38 50 49
f 38 48 79
f 39 80 81
f 39 81 40
f 39 78 82
f 39 82 80
f 40 81 41
f 41 81 83
f 41 83 42
f 42 83 84
f 42 84 43
f 43 84 85
f 43 85 44
f 44 85 45
f 45 85 86
f 45 86 87
f 45 87 46
f 46 87 47
f 47 87 48
f 48 87 88
f 48 88 89
f 48 89 79
f 50 79 90
f 50 90 51
f 51 90 91
f 51 91 52
f 52 92 53
f 52 91 92
f 53 93 54
f 53 92 93
f 54 94 95
f 54 95 55
f 54 93 94
f 55 95 96
f 55 96 56
f 56 96 97
f 56 97 57
f 57 97 58
f 58 97 98
f 58 98 59
f 59 98 60
f 60 99 100
f 60 100 61
f 60 98 101
f 60 101 102
f 60 102 103
f 60 103 99
f 61 100 62
f 62 100 99
f 62 99 103
f 62 103 104
f 62 104 107
f 62 107 64
f 63 64 105
f 64 106 105
f 64 107 106
f 65 108 161
f 65 161 216
f 65 216 286
f 65 286 285
f 65 285 284
f 65 284 361
f 65 361 357
f 65 357 355
f 65 355 428
f 65 428 350
f 65 350 369
f 65 369 296
f 65 296 220
f 65 220 164
f 65 164 109
f 65 109 110
f 65 110 70
f 66 111 112
f 66 112 113
f 66 113 67
f 67 113 115
f 67 115 114
f 67 114 68
f 68 114 71
f 68 71 69
f 70 110 109
f 71 114 115
f 71 115 116
f 71 116 117
f 71 117 72
f 72 117 73
f 73 117 116
f 73 116 115
f 73 115 118
f 73 118 119
f 73 119 120
f 73 120 121
f 73 121 74
f 74 121 122
f 74 122 123
f 74 123 75
f 75 123 80
f 75 80 76
f 76 124 77
f 76 80 124
f 77 124 78
f 78 124 82
f 79 89 125
f 79 125 126
f 79 126 127
f 79 127 90
f 80 128 129
f 80 129 81
f 80 82 124
f 80 123 130
f 80 130 128
f 81 129 83
f 83 129 84
f 84 129 131
f 84 131 85
f 85 131 86
f 86 132 87
f 86 131 133
f 86 133 134
f 86 134 132
f 87 132 134
f 87 134 133
f 87 133 135
f 87 135 88
f 88 136 89
f 88 135 136
f 89 136 125
f 90 127 137
f 90 137 91
f 91 138 139
f 91 139 140
f 91 140 93
f 91 93 92
f 91 137 141
f 91 141 138
f 93 140 139
f 93 139 94
f 94 139 142
f 94 142 143
f 94 143 95
f 95 143 144
f 95 144 96
f 96 144 97
f 97 144 98
f 98 144 145
f 98 145 146
f 98 146 101
f 101 147 102
f 101 146 148
f 101 148 149
f 101 149 150
f 101 150 147
f 102 147 151
f 102 151 152
f 102 152 153
f 102 153 154
f 102 154 155
f 102 155 156
f 102 156 103
f 103 157 104
f 103 156 157
f 104 157 158
f 104 158 107
f 106 107 158
f 106 158 159
f 106 159 160
f 108 162 163
f 108 163 161
f 111 165 112
f 112 165 166
f 112 166 113
f 113 166 167
f 113 167 115
f 115 167 168
f 115 168 118
f 118 168 119
f 119 168 169
f 119 169 224
f 119 224 170
f 119 170 171
f 119 171 172
f 119 172 173
f 119 173 174
f 119 174 120
f 120 174 121
f 121 174 175
f 121 175 130
f 121 130 123
f 121 123 122
f 125 136 126
f 126 136 127
f 127 176 137
f 127 136 176
f 128 130 175
f 128 175 177
f 128 177 178
f 128 178 179
f 128 179 129
f 129 179 180
f 129 180 131
f 131 180 181
f 131 181 182
f 131 182 183
f 131 183 133
f 133 183 184
f 133 184 185
f 133 185 186
f 133 186 135
f 135 186 187
f 135 187 136
f 136 187 188
f 136 188 189
f 136 189 190
f 136 190 176
f 137 176 190
f 137 190 141
f 138 191 192
f 138 192 139
f 138 141 191
f 139 193 142
f 139 192 194
f 139 194 193
f 141 190 195
f 141 195 196
f 141 196 197
f 141 197 191
f 142 193 198
f 142 198 199
f 142 199 143
f 143 199 200
f 143 200 201
f 143 201 144
f 144 201 145
f 145 201 202
f 145 202 203
f 145 203 146
f 146 203 204
f 146 204 205
f 146 205 206
f 146 206 148
f 147 150 207
f 147 207 151
f 148 206 149
f 149 206 150
f 150 206 270
f 150 270 207
f 151 208 209
f 151 209 152
f 151 207 208
f 152 209 153
f 153 209 210
f 153 210 211
f 153 211 212
f 153 212 154
f 154 156 155
f 154 212 156
f 156 212 157
f 157 212 158
f 158 212 159
f 159 213 160
f 159 212 280
f 159 280 214
f 159 214 215
f 159 215 213
f 161 163 216
f 162 217 163
f 163 217 218
f 163 218 295
f 163 295 219
f 163 219 216
f 164 220 298
f 164 298 221
f 164 221 222
f 165 223 224
f 165 224 166
f 166 224 167
f 167 224 169
f 167 169 168
f 170 224 225
f 170 225 171
f 171 226 227
f 171 227 172
f 172 227 228
f 172 228 229
f 172 229 230
f 172 230 231
f 172 231 173
f 173 231 174
f 174 232 233
f 174 233 175
f 174 231 232
f 175 233 234
f 175 234 177
f 177 234 235
f 177 235 178
f 178 235 236
f 178 236 180
f 178 180 179
f 180 236 181
f 181 236 235
f 181 235 237
f 181 237 238
f 181 238 182
f 182 238 239
f 182 239 240
f 182 240 241
f 182 241 183
f 183 241 184
f 184 241 185
f 185 241 186
f 186 241 242
f 186 242 187
f 187 243 188
f 187 242 243
f 188 243 244
f 188 244 189
f 189 245 246
f 189 246 190
f 189 244 245
f 190 246 195
f 191 197 194
f 191 194 192
f 193 247 248
f 193 248 249
f 193 249 198
f 193 194 197
f 193 197 247
f 195 246 250
f 195 250 251
f 195 251 252
f 195 252 253
f 195 253 196
f 196 253 197
f 197 254 247
f 197 253 252
f 197 252 255
f 197 255 256
f 197 256 254
f 198 249 257
f 198 257 199
f 199 257 258
f 199 258 259
f 199 259 200
f 200 259 260
f 200 260 261
f 200 261 201
f 201 261 262
f 201 262 202
f 202 262 263
f 202 263 203
f 203 263 264
f 203 264 265
f 203 265 266
f 203 266 267
f 203 267 268
f 203 268 204
f 204 268 205
f 205 268 269
f 205 269 206
f 206 269 270
f 207 270 271
f 207 271 272
f 207 272 273
f 207 273 274
f 207 274 208
f 208 274 275
f 208 275 209
f 209 275 211
f 209 211 210
f 211 276 277
f 211 277 278
f 211 278 279
f 211 279 280
f 211 280 212
f 211 275 281
f 211 281 282
f 211 282 283
f 211 283 284
f 211 284 285
f 211 285 286
f 211 286 287
f 211 287 276
f 213 215 288
f 214 280 289
f 214 289 215
f 215 289 290
f 215 290 366
f 215 366 291
f 215 291 288
f 216 219 286
f 217 292 218
f 218 292 293
f 218 293 294
f 218 294 295
f 219 295 286
f 220 296 297
f 220 297 298
f 221 298 378
f 221 378 299
f 221 299 222
f 223 225 224
f 226 300 228
f 226 228 227
f 228 300 301
f 228 301 302
f 228 302 233
f 228 233 230
f 228 230 229
f 230 233 232
f 230 232 231
f 233 302 234
f 234 302 303
f 234 303 304
f 234 304 305
f 234 305 235
f 235 305 306
f 235 306 237
f 237 306 307
f 237 307 308
f 237 308 238
f 238 308 309
f 238 309 239
f 239 309 310
f 239 310 311
f 239 311 312
f 239 312 240
f 240 312 313
f 240 313 241
f 241 313 242
f 242 314 243
f 242 313 315
f 242 315 314
f 243 314 316
f 243 316 244
f 244 316 317
f 244 317 245
f 245 318 246
f 245 317 318
f 246 319 250
f 246 318 319
f 247 254 248
f 248 254 320
f 248 320 249
f 249 320 321
f 249 321 322
f 249 322 323
f 249 323 324
f 249 324 257
f 250 325 326
f 250 326 327
f 250 327 328
f 250 328 329
f 250 329 330
f 250 330 331
f 250 331 332
f 250 332 333
f 250 333 334
f 250 334 335
f 250 335 336
f 250 336 251
f 250 319 325
f 251 336 256
f 251 256 255
f 251 255 252
f 254 256 320
f 256 336 335
f 256 335 320
f 257 324 337
f 257 337 338
f 257 338 258
f 258 338 339
f 258 339 259
f 259 339 340
f 259 340 260
f 260 340 261
f 261 341 262
f 261 340 341
f 262 341 342
f 262 342 343
f 262 343 263
f 263 343 344
f 263 344 345
f 263 345 346
f 263 346 264
f 264 346 347
f 264 347 265
f 265 347 348
f 265 348 266
f 266 348 267
f 267 348 268
f 268 348 349
f 268 349 269
f 269 349 350
f 269 350 351
f 269 351 270
f 270 351 352
f 270 352 353
f 270 353 354
f 270 354 271
f 271 354 355
f 271 355 356
f 271 356 272
f 272 356 357
f 272 357 358
f 272 358 283
f 272 283 282
f 272 282 273
f 273 281 274
f 273 282 281
f 274 281 275
f 276 359 277
f 276 287 359
f 277 359 278
f 278 359 289
f 278 289 279
f 279 289 280
f 283 358 360
f 283 360 361
f 283 361 284
f 286 295 287
f 287 295 294
f 287 294 362
f 287 362 363
f 287 363 364
f 287 364 359
f 289 359 429
f 289 429 365
f 289 365 290
f 290 365 366
f 292 367 293
f 293 367 368
f 293 368 362
f 293 362 294
f 296 369 370
f 296 370 371
f 296 371 372
f 296 372 373
f 296 373 374
f 296 374 297
f 297 374 375
f 297 375 376
f 297 376 377
f 297 377 298
f 298 377 378
f 299 378 433
f 299 433 379
f 301 380 302
f 302 380 303
f 303 381 382
f 303 382 383
f 303 383 304
f 304 383 384
f 304 384 305
f 305 384 306
f 306 385 386
f 306 386 307
f 306 384 385
f 307 386 308
f 308 386 387
f 308 387 310
f 308 310 309
f 310 387 388
f 310 388 389
f 310 389 311
f 311 389 312
f 312 389 390
f 312 390 391
f 312 391 392
f 312 392 393
f 312 393 313
f 313 393 315
f 314 394 395
f 314 395 396
f 314 396 397
f 314 397 398
f 314 398 399
f 314 399 400
f 314 400 316
f 314 315 401
f 314 401 402
f 314 402 394
f 315 393 392
f 315 392 401
f 316 400 403
f 316 403 404
f 316 404 405
f 316 405 317
f 317 405 406
f 317 406 407
f 317 407 408
f 317 408 318
f 318 408 319
f 319 409 325
f 319 408 407
f 319 407 409
f 320 335 334
f 320 334 333
f 320 333 332
f 320 332 331
f 320 331 330
f 320 330 321
f 321 330 322
f 322 330 329
f 322 329 328
f 322 328 323
f 323 328 324
f 324 328 327
f 324 327 410
f 324 410 337
f 325 409 411
f 325 411 412
f 325 412 378
f 325 378 377
f 325 377 376
f 325 376 413
f 325 413 414
f 325 414 415
f 325 415 416
f 325 416 417
f 325 417 418
f 325 418 419
f 325 419 420
f 325 420 326
f 326 420 327
f 327 420 419
f 327 419 410
f 337 410 421
f 337 421 422
f 337 422 423
f 337 423 424
f 337 424 425
f 337 425 338
f 338 425 426
f 338 426 427
f 338 427 339
f 339 427 373
f 339 373 340
f 340 373 341
f 341 373 342
f 342 373 343
f 343 373 372
f 343 372 371
f 343 371 344
f 344 371 370
f 344 370 369
f 344 369 345
f 345 369 346
f 346 369 347
f 347 369 348
f 348 369 349
f 349 369 350
f 350 428 352
f 350 352 351
f 352 428 353
f 353 428 354
f 354 428 355
f 355 357 356
f 357 361 360
f 357 360 358
f 359 364 362
f 359 362 429
f 362 368 430
f 362 430 429
f 362 364 363
f 365 431 366
f 365 429 431
f 367 432 368
f 368 432 430
f 373 427 374
f 374 427 426
f 374 426 375
f 375 426 425
f 375 425 376
f 376 425 413
f 378 412 433
f 379 433 434
f 381 384 382
f 382 384 383
f 391 402 401
f 391 401 392
f 391 435 402
f 394 402 435
f 397 436 398
f 398 436 400
f 398 400 399
f 400 436 437
f 400 437 438
f 400 438 403
f 403 438 439
f 403 439 404
f 404 439 405
f 405 439 440
f 405 440 441
f 405 441 406
f 406 441 407
f 407 442 443
f 407 443 409
f 407 441 442
f 409 443 411
f 410 419 418
f 410 418 421
f 411 443 442
f 411 442 444
f 411 444 445
f 411 445 446
f 411 446 412
f 412 446 433
f 413 425 424
f 413 424 414
f 414 424 415
f 415 424 416
f 416 424 423
f 416 423 422
f 416 422 421
f 416 421 417
f 417 421 418
f 429 430 432
f 429 432 447
f 429 447 448
f 429 448 431
f 433 446 434
f 434 446 449
f 438 449 446
f 438 446 439
f 439 446 445
f 439 445 444
f 439 444 442
f 439 442 440
f 440 442 441

