# https://github.com/mikedh/trimesh
v 0.00221964 0.00008104 -0.00977784
v 0.00273320 0.00008104 -0.01013684
v 0.00086332 0.00008104 -0.00977784
v 0.00221964 -0.00048865 -0.00977784
v 0.00273320 -0.00680218 -0.00978202
v 0.00273320 -0.00499185 -0.00978441
v 0.00273320 -0.00450613 -0.00979248
v 0.00273320 -0.00441804 -0.00979576
v 0.00273320 0.00008104 -0.01281106
v 0.00086360 0.00008104 -0.00998691
v -0.00012877 -0.00084924 -0.00978053
v 0.00008276 -0.00084924 -0.00977784
v 0.00212943 -0.00106329 -0.00977784
v -0.00012877 -0.00680218 -0.00978441
v 0.00273320 -0.00737599 -0.00985908
v 0.00195488 -0.00152595 -0.00977784
v 0.00137100 -0.00208165 -0.00977784
v 0.00092328 -0.00223560 -0.00977784
v 0.00034920 -0.00235415 -0.00977784
v -0.00012877 -0.00236485 -0.00977784
v 0.00264494 0.00008104 -0.01281047
v 0.00273320 -0.00106329 -0.01281554
v 0.00264494 -0.00106329 -0.01281554
v -0.00012877 -0.00278471 -0.01281554
v 0.00086528 0.00008104 -0.01056064
v -0.00012877 -0.00085253 -0.01116334
v -0.00012877 -0.00227264 -0.00977784
v -0.00012877 -0.00737599 -0.00998183
v 0.00034920 -0.00737599 -0.00995854
v 0.00273320 -0.00807411 -0.01010010
v 0.00218966 0.00008104 -0.01268473
v -0.00012877 -0.00226853 -0.01268981
v 0.00273320 -0.00631481 -0.01282898
v -0.00012877 -0.00622837 -0.01281554
v 0.00089386 0.00008104 -0.01112959
v -0.00012877 -0.00089370 -0.01126907
v 0.00106561 0.00008104 -0.01158565
v -0.00012877 -0.00767977 -0.01022375
v 0.00273320 -0.00830873 -0.01055556
v 0.00190276 0.00008104 -0.01244640
v -0.00012877 -0.00198121 -0.01251748
v 0.00273320 -0.00739492 -0.01280389
v -0.00012877 -0.00680218 -0.01279792
v -0.00012877 -0.00111268 -0.01166629
v 0.00132701 0.00008104 -0.01187266
v -0.00012877 -0.00769706 -0.01055556
v 0.00273320 -0.00832355 -0.01112959
v 0.00161391 0.00008104 -0.01215938
v -0.00012877 -0.00166838 -0.01222329
v -0.00012877 -0.00142552 -0.01198586
v 0.00273320 -0.00774810 -0.01270713
v -0.00012877 -0.00725415 -0.01267218
v -0.00012877 -0.00769953 -0.01160715
v 0.00273320 -0.00832931 -0.01148888
v 0.00273320 -0.00816878 -0.01249687
v -0.00012877 -0.00730189 -0.01261663
v -0.00012877 -0.00769870 -0.01170332
v 0.00273320 -0.00832437 -0.01206590
v -0.00012877 -0.00768141 -0.01204440
v -0.00012877 -0.00756533 -0.01228362
v -0.00012877 -0.00754146 -0.01233141
v -0.00012877 -0.00768553 -0.01198616
f 1 2 9
f 1 9 21
f 1 21 31
f 1 31 40
f 1 40 48
f 1 48 45
f 1 45 37
f 1 37 35
f 1 35 25
f 1 25 10
f 1 10 3
f 1 3 12
f 1 12 27
f 1 27 20
f 1 20 19
f 1 19 18
f 1 18 17
f 1 17 16
f 1 16 13
f 1 13 4
f 1 4 5
f 1 5 6
f 1 6 7
f 1 7 8
f 1 8 2
f 2 8 7
f 2 7 6
f 2 6 5
f 2 5 15
f 2 15 30
f 2 30 39
f 2 39 47
f 2 47 54
f 2 54 58
f 2 58 55
f 2 55 51
f 2 51 42
f 2 42 33
f 2 33 22
f 2 22 9
f 3 10 11
f 3 11 12
f 4 13 5
f 5 14 15
f 5 13 16
f 5 16 17
f 5 17 18
f 5 18 19
f 5 19 20
f 5 20 14
f 9 22 23
f 9 23 24
f 9 24 21
f 10 25 26
f 10 26 11
f 11 26 36
f 11 36 44
f 11 44 50
f 11 50 49
f 11 49 41
f 11 41 32
f 11 32 24
f 11 24 34
f 11 34 43
f 11 43 52
f 11 52 56
f 11 56 61
f 11 61 60
f 11 60 59
f 11 59 62
f 11 62 57
f 11 57 53
f 11 53 46
f 11 46 38
f 11 38 28
f 11 28 14
f 11 14 20
f 11 20 27
f 11 27 12
f 14 28 29
f 14 29 15
f 15 29 30
f 21 24 32
f 21 32 31
f 22 33 23
f 23 33 24
f 24 33 34
f 25 35 26
f 26 35 37
f 26 37 36
f 28 38 30
f 28 30 29
f 30 38 39
f 31 32 41
f 31 41 40
f 33 42 34
f 34 42 43
f 36 37 44
f 37 45 44
f 38 46 39
f 39 46 47
f 40 41 49
f 40 49 50
f 40 50 44
f 40 44 48
f 42 51 43
f 43 51 52
f 44 45 48
f 46 53 54
f 46 54 47
f 51 55 52
f 52 55 56
f 53 57 58
f 53 58 54
f 55 58 59
f 55 59 60
f 55 60 61
f 55 61 56
f 57 62 58
f 58 62 59

