# https://github.com/mikedh/trimesh
v 0.04360377 0.01286139 -0.00877156
v 0.04264065 0.01286139 -0.00779840
v 0.04360377 0.01285887 -0.00810990
v 0.04426651 0.01272290 -0.00877156
v 0.04360377 0.01285132 -0.00943251
v 0.04096235 0.01286139 -0.00943251
v 0.04329386 0.01284880 -0.00779840
v 0.01516318 0.01286139 -0.00779840
v 0.04362761 0.01279844 -0.00779840
v 0.04426651 0.01266751 -0.00779840
v 0.04426651 0.01271787 -0.00810990
v 0.05417423 0.01014962 -0.00779840
v 0.04432849 0.01268514 -0.00944396
v 0.04420929 0.01268010 -0.01009488
v 0.04360377 0.01279844 -0.01009488
v 0.04294580 0.01280600 -0.01008342
v 0.04228306 0.01281103 -0.01009488
v 0.04162032 0.01281607 -0.01008342
v 0.04096235 0.01281858 -0.01008342
v 0.04029484 0.01281858 -0.01009488
v 0.03831139 0.01282110 -0.01008342
v 0.03235627 0.01282362 -0.01008342
v 0.03038235 0.01282362 -0.01009488
v 0.02508997 0.01282614 -0.01008342
v 0.03149804 0.01286139 -0.00943251
v 0.01450998 0.01286139 -0.00810990
v 0.01450998 0.01285132 -0.00779840
v 0.05468440 0.00999855 -0.00779840
v 0.04408533 0.01262722 -0.01057609
v 0.04360377 0.01265744 -0.01066274
v 0.04294580 0.01266248 -0.01068422
v 0.04228306 0.01266751 -0.01070427
v 0.04096235 0.01267255 -0.01074007
v 0.03632794 0.01282110 -0.01009488
v 0.04029484 0.01267255 -0.01074867
v 0.03301901 0.01267758 -0.01075583
v 0.02906164 0.01268010 -0.01075583
v 0.02508044 0.01282614 -0.01008342
v 0.01384724 0.01286139 -0.00940171
v 0.01384724 0.01285887 -0.00877156
v 0.01384724 0.01280600 -0.00810990
v 0.01384247 0.01274808 -0.00779840
v 0.05481790 0.00991294 -0.00779840
v 0.05464148 0.00997840 -0.00787073
v 0.04402335 0.01194739 -0.01179200
v 0.04360377 0.01252903 -0.01099357
v 0.05415993 0.01004639 -0.00809844
v 0.05391199 0.00994315 -0.00847224
v 0.04294580 0.01254665 -0.01099357
v 0.04228306 0.01254665 -0.01103510
v 0.04162032 0.01257687 -0.01099357
v 0.04095758 0.01256176 -0.01107090
v 0.04079547 0.01258946 -0.01099357
v 0.04029484 0.01259449 -0.01099357
v 0.03813021 0.01259701 -0.01099357
v 0.03595604 0.01259953 -0.01099357
v 0.03566520 0.01267507 -0.01075583
v 0.03349103 0.01260205 -0.01099357
v 0.01384247 0.01268010 -0.01075583
v 0.01384247 0.01282362 -0.01009488
v 0.01322264 0.01269521 -0.01009488
v 0.01318927 0.01271283 -0.00940171
v 0.01319880 0.01271032 -0.00877156
v 0.01332277 0.01265996 -0.00810990
v 0.01343720 0.01261212 -0.00779840
v 0.05500861 0.00973920 -0.00779840
v 0.05435541 0.00973165 -0.00831184
v 0.04394706 0.00992553 -0.01373688
v 0.04360377 0.01197761 -0.01182422
v 0.04360377 0.01226968 -0.01141820
v 0.05310145 0.00984747 -0.00904439
v 0.04528207 0.00994315 -0.01308954
v 0.04492925 0.01003631 -0.01318048
v 0.04228306 0.01232004 -0.01141820
v 0.04162032 0.01234270 -0.01141820
v 0.05415993 0.00954281 -0.00857034
v 0.05354486 0.00961079 -0.00892337
v 0.04095758 0.01236285 -0.01141820
v 0.04029484 0.01237292 -0.01141820
v 0.04029484 0.01256428 -0.01108021
v 0.03235627 0.01256931 -0.01109167
v 0.01384247 0.01260205 -0.01099357
v 0.01351348 0.01256428 -0.01109024
v 0.01347057 0.01258442 -0.01099357
v 0.01337998 0.01262471 -0.01075583
v 0.01289365 0.01253910 -0.01008342
v 0.01285551 0.01256176 -0.00940171
v 0.01286505 0.01255672 -0.00877156
v 0.01145375 0.01133303 -0.00833618
v 0.01336568 0.01255924 -0.00779840
v 0.05520886 0.00949749 -0.00779840
v 0.05526131 0.00937159 -0.00784208
v 0.05481790 0.00955036 -0.00807696
v 0.05454613 0.00929102 -0.00845792
v 0.04360377 0.00995071 -0.01376123
v 0.04492925 0.00958561 -0.01333158
v 0.04432849 0.00958561 -0.01361013
v 0.04399474 0.00958561 -0.01375765
v 0.04130087 0.00860363 -0.01506020
v 0.04294103 0.00997588 -0.01378414
v 0.04162032 0.01202797 -0.01188079
v 0.05333508 0.00940684 -0.00917973
v 0.05287259 0.00892341 -0.00951414
v 0.04095758 0.01203804 -0.01189655
v 0.04029484 0.01204307 -0.01190442
v 0.03566520 0.01204811 -0.01190586
v 0.03566520 0.01237795 -0.01141892
v 0.03302378 0.01237795 -0.01142178
v 0.03235627 0.01237795 -0.01142250
v 0.01384247 0.01256931 -0.01109167
v 0.01333230 0.01200027 -0.01185788
v 0.01084822 0.00927591 -0.01441501
v 0.01310344 0.01236033 -0.01099357
v 0.01304623 0.01244090 -0.01075583
v 0.01384247 0.01237795 -0.01142250
v 0.01384247 0.01204811 -0.01191373
v 0.01288889 0.01253406 -0.01009488
v 0.01288889 0.01253658 -0.01008342
v 0.01143468 0.01143374 -0.00940171
v 0.01140607 0.01144633 -0.00877156
v 0.00680980 0.00694183 -0.01008271
v 0.01202590 0.01136828 -0.00779840
v 0.05528515 0.00939677 -0.00779840
v 0.05531853 0.00930109 -0.00779840
v 0.05539481 0.00892341 -0.00779840
v 0.05530422 0.00892341 -0.00788219
v 0.05456996 0.00892341 -0.00847725
v 0.05419330 0.00892341 -0.00873934
v 0.05374512 0.00892341 -0.00903222
v 0.05490372 0.00892341 -0.00821302
v 0.04227829 0.00928850 -0.01442289
v 0.04162032 0.00931368 -0.01444580
v 0.04492925 0.00892844 -0.01340104
v 0.04440001 0.00892844 -0.01364379
v 0.04407103 0.00892844 -0.01379202
v 0.04300301 0.00892844 -0.01427179
v 0.04166800 0.00826876 -0.01493346
v 0.04133901 0.00826876 -0.01507309
v 0.04095758 0.00826876 -0.01509744
v 0.04095758 0.00861622 -0.01506879
v 0.04095758 0.01169812 -0.01222809
v 0.05341613 0.00892341 -0.00922771
v 0.05287259 0.00826372 -0.00952416
v 0.04281707 0.00694183 -0.01449521
v 0.04492925 0.00826876 -0.01343398
v 0.05342567 0.00826372 -0.00923558
v 0.04029484 0.01170316 -0.01223454
v 0.03896936 0.01170568 -0.01223525
v 0.03302378 0.01171071 -0.01223812
v 0.02311129 0.01204811 -0.01191230
v 0.01516795 0.01204811 -0.01191373
v 0.01143468 0.01142871 -0.00943179
v 0.01119628 0.00929857 -0.01443721
v 0.01086253 0.00860363 -0.01506020
v 0.01384247 0.01171071 -0.01224385
v 0.00955612 0.00598755 -0.01507667
v 0.00676212 0.00627962 -0.01008271
v 0.01171121 0.01025285 -0.00779840
v 0.01178273 0.01091506 -0.00779840
v 0.01186855 0.01111145 -0.00779840
v 0.05539958 0.00874464 -0.00779840
v 0.05530899 0.00826372 -0.00788648
v 0.05491326 0.00826372 -0.00821731
v 0.05458427 0.00826372 -0.00848656
v 0.05419330 0.00826372 -0.00875079
v 0.05375465 0.00826372 -0.00903508
v 0.04029484 0.00862881 -0.01507667
v 0.04029484 0.00895866 -0.01477806
v 0.04445246 0.00826876 -0.01366456
v 0.04412347 0.00826876 -0.01382138
v 0.04227829 0.00760403 -0.01472436
v 0.04307453 0.00826876 -0.01430473
v 0.04274555 0.00826876 -0.01445368
v 0.04227829 0.00826876 -0.01466278
v 0.04170614 0.00760403 -0.01496639
v 0.04172998 0.00694183 -0.01498716
v 0.04137716 0.00760403 -0.01508383
v 0.04095758 0.00760403 -0.01511319
v 0.04029484 0.00826876 -0.01510531
v 0.05342567 0.00160390 -0.00923701
v 0.05287259 -0.00826624 -0.00952345
v 0.04281707 -0.00694183 -0.01449521
v 0.04227829 0.00627962 -0.01476088
v 0.04227829 0.00694183 -0.01475730
v 0.04360377 0.00760403 -0.01409635
v 0.02112307 0.01171071 -0.01224385
v 0.01185902 0.00931368 -0.01444723
v 0.01119628 0.00894859 -0.01476732
v 0.01119628 0.00861622 -0.01506951
v 0.01119628 0.00826876 -0.01509099
v 0.00955612 0.00561993 -0.01510531
v 0.01185902 0.00895866 -0.01477806
v 0.00675259 0.00580877 -0.01008271
v 0.01169214 0.00906441 -0.00779912
v 0.01171121 0.01024530 -0.00779840
v 0.05540435 0.00826372 -0.00779840
v 0.05540912 -0.00826624 -0.00779840
v 0.05530899 -0.00826624 -0.00788720
v 0.05492279 -0.00562245 -0.00821516
v 0.05458904 -0.00032984 -0.00848728
v 0.05419330 -0.00826624 -0.00875223
v 0.05458904 -0.00628214 -0.00848942
v 0.05375465 -0.00826624 -0.00903508
v 0.01185902 0.00862881 -0.01507667
v 0.04312698 0.00760403 -0.01432550
v 0.04279799 0.00760403 -0.01448232
v 0.04173475 0.00627962 -0.01499074
v 0.04139623 0.00694183 -0.01508455
v 0.04095758 0.00694183 -0.01511391
v 0.04029484 0.00760403 -0.01511391
v 0.01185902 0.00826876 -0.01510531
v 0.05342090 -0.00760403 -0.00923701
v 0.05342090 -0.00826624 -0.00923487
v 0.05287259 -0.00892844 -0.00950984
v 0.04492925 -0.00826876 -0.01343398
v 0.04227829 -0.00694183 -0.01475730
v 0.04227829 -0.00628214 -0.01476088
v 0.04360377 -0.00760151 -0.01409635
v 0.00955612 0.00495773 -0.01511391
v 0.00674305 0.00495521 -0.01008271
v 0.01168737 0.00160138 -0.00779984
v 0.01169214 0.00160138 -0.00779912
v 0.00673828 0.00429552 -0.01008271
v 0.00670014 -0.00363332 -0.01008271
v 0.01169214 -0.00892592 -0.00779984
v 0.01171121 -0.01025034 -0.00779984
v 0.01175412 -0.01071363 -0.00779984
v 0.01177796 -0.01091254 -0.00779984
v 0.01202113 -0.01136576 -0.00779984
v 0.03224661 -0.01286139 -0.00779840
v 0.05539481 -0.00892844 -0.00779840
v 0.05530422 -0.00892844 -0.00788147
v 0.05491326 -0.00826624 -0.00821803
v 0.05492279 -0.00694183 -0.00821516
v 0.05419330 -0.00892844 -0.00873576
v 0.05374512 -0.00892844 -0.00903007
v 0.05458904 -0.00760403 -0.00848942
v 0.05458427 -0.00826624 -0.00848871
v 0.04173475 -0.00628214 -0.01499074
v 0.04140100 0.00627962 -0.01508455
v 0.04095758 -0.00694183 -0.01511391
v 0.01185902 0.00760403 -0.01511391
v 0.05341136 -0.00892844 -0.00922556
v 0.04528207 -0.00994315 -0.01308954
v 0.04492925 -0.00958813 -0.01333158
v 0.04492925 -0.00892844 -0.01340104
v 0.05333031 -0.00940936 -0.00917973
v 0.04445246 -0.00826876 -0.01366456
v 0.04312698 -0.00760151 -0.01432550
v 0.04279799 -0.00760151 -0.01448232
v 0.04227829 -0.00760151 -0.01472436
v 0.04170614 -0.00760151 -0.01496639
v 0.04172998 -0.00694183 -0.01498716
v 0.00955612 -0.00495773 -0.01511391
v 0.01168737 -0.00694183 -0.00779984
v 0.00672398 -0.00545879 -0.01008271
v 0.00955612 -0.00530520 -0.01511104
v 0.00955612 -0.00561742 -0.01510531
v 0.00674305 -0.00675802 -0.01008271
v 0.00677642 -0.00693931 -0.01008271
v 0.01145375 -0.01132799 -0.00833618
v 0.01343243 -0.01261464 -0.00779984
v 0.04193977 -0.01286139 -0.00779840
v 0.01357070 -0.01267507 -0.00779984
v 0.01384247 -0.01274808 -0.00779984
v 0.01415238 -0.01281858 -0.00779984
v 0.01450998 -0.01284628 -0.00779984
v 0.01481989 -0.01285383 -0.00779984
v 0.01516795 -0.01286139 -0.00779984
v 0.05528038 -0.00939677 -0.00779840
v 0.05525654 -0.00937411 -0.00784137
v 0.05454613 -0.00929102 -0.00845720
v 0.05489895 -0.00892844 -0.00821230
v 0.05456996 -0.00892844 -0.00847653
v 0.04139623 -0.00694183 -0.01508455
v 0.04140100 -0.00628214 -0.01508455
v 0.04095758 -0.00760151 -0.01511319
v 0.04029484 -0.00760151 -0.01511391
v 0.05310145 -0.00984999 -0.00904439
v 0.04403288 -0.01194991 -0.01179558
v 0.04492925 -0.01003631 -0.01318048
v 0.04394706 -0.00992553 -0.01373688
v 0.04432849 -0.00958813 -0.01361013
v 0.04440001 -0.00892844 -0.01364379
v 0.04412347 -0.00826876 -0.01382138
v 0.05415516 -0.00954029 -0.00856891
v 0.05354486 -0.00961331 -0.00892194
v 0.04307453 -0.00826876 -0.01430473
v 0.04274555 -0.00826876 -0.01445368
v 0.04227829 -0.00826876 -0.01466278
v 0.04166800 -0.00826876 -0.01493346
v 0.04133901 -0.00826876 -0.01507309
v 0.04137716 -0.00760151 -0.01508383
v 0.01185902 -0.00760151 -0.01511391
v 0.01185902 -0.00826876 -0.01510531
v 0.00955612 -0.00581885 -0.01509028
v 0.01119628 -0.00826876 -0.01509099
v 0.01086253 -0.00860112 -0.01506020
v 0.00955612 -0.00599006 -0.01507667
v 0.00955612 -0.00616380 -0.01495422
v 0.01084822 -0.00927843 -0.01441501
v 0.01289365 -0.01253154 -0.01024741
v 0.01143944 -0.01143123 -0.00943179
v 0.01140607 -0.01144130 -0.00877156
v 0.01285551 -0.01255924 -0.00855029
v 0.01331800 -0.01265996 -0.00810990
v 0.04361331 -0.01285383 -0.00877156
v 0.04361331 -0.01285383 -0.00810990
v 0.04294103 -0.01284628 -0.00779840
v 0.04097188 -0.01286139 -0.00877156
v 0.01384247 -0.01280600 -0.00810990
v 0.01384247 -0.01285383 -0.00877156
v 0.01450998 -0.01286139 -0.00877156
v 0.05500861 -0.00973920 -0.00779840
v 0.05481790 -0.00955288 -0.00807624
v 0.05435064 -0.00973165 -0.00831184
v 0.04095758 -0.00826876 -0.01509744
v 0.04029484 -0.00826876 -0.01510531
v 0.05391199 -0.00994567 -0.00847224
v 0.04360377 -0.01252651 -0.01099357
v 0.04360377 -0.01226968 -0.01141820
v 0.04360377 -0.01198013 -0.01182852
v 0.04426174 -0.01208588 -0.01141319
v 0.04408056 -0.01262471 -0.01057537
v 0.04360377 -0.00995071 -0.01376123
v 0.04227829 -0.00929354 -0.01442289
v 0.04130087 -0.00860363 -0.01506020
v 0.04399474 -0.00958813 -0.01375765
v 0.04300301 -0.00892844 -0.01427179
v 0.04407103 -0.00892844 -0.01379202
v 0.01185902 -0.00862881 -0.01507667
v 0.01119628 -0.00861622 -0.01506951
v 0.01119628 -0.00894859 -0.01476732
v 0.01119628 -0.00930109 -0.01443721
v 0.01384247 -0.01204811 -0.01191373
v 0.01333230 -0.01200279 -0.01185788
v 0.01351348 -0.01256931 -0.01109024
v 0.01337045 -0.01253658 -0.01099357
v 0.01304623 -0.01245097 -0.01075583
v 0.01337521 -0.01262471 -0.01075583
v 0.01315112 -0.01267255 -0.01008342
v 0.01310344 -0.01265240 -0.01008342
v 0.01284598 -0.01256680 -0.00980558
v 0.01284598 -0.01257183 -0.00966666
v 0.01284598 -0.01257183 -0.00943179
v 0.01285074 -0.01256931 -0.00892337
v 0.01311775 -0.01268262 -0.00877084
v 0.04361331 -0.01284628 -0.00943251
v 0.04426174 -0.01273046 -0.00877156
v 0.04162509 -0.01285383 -0.00943251
v 0.04426174 -0.01272542 -0.00810990
v 0.04402335 -0.01272039 -0.00779840
v 0.04362761 -0.01279341 -0.00779840
v 0.02375972 -0.01286139 -0.00877228
v 0.03897890 -0.01285383 -0.00943609
v 0.01384247 -0.01285383 -0.00943179
v 0.01318450 -0.01271535 -0.00943179
v 0.05468440 -0.00999855 -0.00779840
v 0.05464148 -0.00998092 -0.00787073
v 0.04095758 -0.00861622 -0.01506879
v 0.04029484 -0.00862881 -0.01507667
v 0.04360377 -0.01252903 -0.01098855
v 0.04162032 -0.01255924 -0.01105873
v 0.04228306 -0.01232004 -0.01141820
v 0.04162032 -0.01202545 -0.01188437
v 0.04294103 -0.00997588 -0.01378414
v 0.04427128 -0.01265492 -0.01008342
v 0.04361807 -0.01278837 -0.01008342
v 0.04360377 -0.01278837 -0.01009488
v 0.04360377 -0.01264989 -0.01065772
v 0.05448891 -0.01006149 -0.00779840
v 0.04162032 -0.00931116 -0.01444580
v 0.01185902 -0.00895866 -0.01477806
v 0.01384247 -0.01171575 -0.01224385
v 0.01384247 -0.01237795 -0.01142250
v 0.02178581 -0.01171827 -0.01224528
v 0.02376926 -0.01204811 -0.01191373
v 0.02376926 -0.01237795 -0.01142536
v 0.01979759 -0.01237795 -0.01142465
v 0.01360407 -0.01260205 -0.01099357
v 0.01347057 -0.01258694 -0.01099357
v 0.01384247 -0.01257183 -0.01109167
v 0.01384247 -0.01282362 -0.01009488
v 0.01316543 -0.01269773 -0.00966738
v 0.01296994 -0.01262471 -0.00966666
v 0.04029484 -0.01280096 -0.01009488
v 0.04426174 -0.01272039 -0.00943251
v 0.05384047 -0.01024278 -0.00779840
v 0.01385201 -0.01282614 -0.01008342
v 0.01781414 -0.01282362 -0.01009488
v 0.01914439 -0.01282362 -0.01008342
v 0.02839890 -0.01281355 -0.01009488
v 0.03434926 -0.01280851 -0.01008342
v 0.03831139 -0.01280348 -0.01009488
v 0.04426174 -0.01267255 -0.00779840
v 0.04029484 -0.00895866 -0.01477806
v 0.04114830 -0.01256428 -0.01107735
v 0.04094328 -0.01240565 -0.01135304
v 0.04162032 -0.01234270 -0.01141820
v 0.04095758 -0.01203552 -0.01190084
v 0.04095758 -0.01169561 -0.01223096
v 0.05417423 -0.01015214 -0.00779840
v 0.04029484 -0.01265744 -0.01075583
v 0.04093851 -0.01263730 -0.01081598
v 0.04079070 -0.01259449 -0.01099357
v 0.04070488 -0.01256931 -0.01109024
v 0.04029484 -0.01170568 -0.01223883
v 0.03367698 -0.01257435 -0.01109597
v 0.02376926 -0.01171827 -0.01224528
v 0.03038235 -0.01204559 -0.01191230
v 0.03632794 -0.01237292 -0.01142751
v 0.03104032 -0.01237544 -0.01142608
v 0.03698591 -0.01257435 -0.01109597
v 0.01384247 -0.01268010 -0.01075583
v 0.03566520 -0.01266499 -0.01075583
v 0.03896936 -0.01265996 -0.01075583
v 0.01781414 -0.01268010 -0.01075583
v 0.02112307 -0.01267758 -0.01075583
v 0.02707819 -0.01267255 -0.01075583
v 0.03896936 -0.01170819 -0.01223883
v 0.03104032 -0.01171575 -0.01224241
v 0.04029484 -0.01237040 -0.01142250
v 0.04029484 -0.01204056 -0.01190800
v 0.04029484 -0.01259701 -0.01099357
v 0.04029484 -0.01257183 -0.01109167
v 0.03765342 -0.01204307 -0.01190944
v 0.03765342 -0.01237292 -0.01142608
f 1 2 3
f 1 3 4
f 1 4 5
f 1 5 6
f 1 6 25
f 1 25 39
f 1 39 26
f 1 26 8
f 1 8 2
f 2 7 3
f 2 8 27
f 2 27 42
f 2 42 65
f 2 65 90
f 2 90 122
f 2 122 160
f 2 160 159
f 2 159 158
f 2 158 195
f 2 195 230
f 2 230 263
f 2 263 309
f 2 309 353
f 2 353 352
f 2 352 395
f 2 395 388
f 2 388 402
f 2 402 371
f 2 371 358
f 2 358 314
f 2 314 270
f 2 270 231
f 2 231 197
f 2 197 196
f 2 196 161
f 2 161 125
f 2 125 124
f 2 124 123
f 2 123 91
f 2 91 66
f 2 66 43
f 2 43 28
f 2 28 12
f 2 12 10
f 2 10 9
f 2 9 7
f 3 9 10
f 3 10 11
f 3 11 4
f 3 7 9
f 4 11 12
f 4 12 13
f 4 13 5
f 5 13 14
f 5 14 15
f 5 15 16
f 5 16 17
f 5 17 18
f 5 18 19
f 5 19 6
f 6 19 20
f 6 20 21
f 6 21 22
f 6 22 23
f 6 23 24
f 6 24 38
f 6 38 25
f 8 26 27
f 10 12 11
f 12 28 14
f 12 14 13
f 14 29 15
f 14 28 29
f 15 30 31
f 15 31 32
f 15 32 33
f 15 33 17
f 15 17 16
f 15 29 30
f 17 33 20
f 17 20 19
f 17 19 18
f 20 34 21
f 20 33 35
f 20 35 36
f 20 36 37
f 20 37 34
f 21 34 23
f 21 23 22
f 23 37 24
f 23 34 37
f 24 37 59
f 24 59 38
f 25 38 39
f 26 39 40
f 26 40 27
f 27 40 41
f 27 41 42
f 28 43 44
f 28 44 29
f 29 45 46
f 29 46 30
f 29 44 47
f 29 47 48
f 29 48 45
f 30 46 49
f 30 49 50
f 30 50 51
f 30 51 31
f 31 51 52
f 31 52 32
f 32 52 33
f 33 52 53
f 33 53 54
f 33 54 35
f 35 54 55
f 35 55 56
f 35 56 57
f 35 57 36
f 36 57 58
f 36 58 37
f 37 58 82
f 37 82 59
f 38 59 60
f 38 60 39
f 39 60 61
f 39 61 62
f 39 62 40
f 40 62 63
f 40 63 41
f 41 63 64
f 41 64 42
f 42 64 65
f 43 66 67
f 43 67 48
f 43 48 44
f 44 48 47
f 45 68 69
f 45 69 70
f 45 70 46
f 45 48 71
f 45 71 72
f 45 72 73
f 45 73 68
f 46 70 74
f 46 74 75
f 46 75 50
f 46 50 49
f 48 67 76
f 48 76 77
f 48 77 71
f 50 75 78
f 50 78 52
f 50 52 51
f 52 78 79
f 52 79 80
f 52 80 54
f 52 54 53
f 54 80 55
f 55 80 56
f 56 58 57
f 56 80 81
f 56 81 58
f 58 81 110
f 58 110 82
f 59 82 83
f 59 83 84
f 59 84 60
f 60 84 85
f 60 85 61
f 61 85 86
f 61 86 87
f 61 87 62
f 62 87 63
f 63 87 88
f 63 88 64
f 64 88 89
f 64 89 90
f 64 90 65
f 66 91 92
f 66 92 93
f 66 93 67
f 67 94 76
f 67 93 94
f 68 95 69
f 68 73 72
f 68 72 96
f 68 96 97
f 68 97 98
f 68 98 99
f 68 99 95
f 69 95 100
f 69 100 101
f 69 101 70
f 70 101 74
f 71 77 102
f 71 102 72
f 72 103 96
f 72 102 103
f 74 101 75
f 75 101 104
f 75 104 78
f 76 94 102
f 76 102 77
f 78 104 105
f 78 105 79
f 79 105 106
f 79 106 107
f 79 107 81
f 79 81 80
f 81 108 109
f 81 109 115
f 81 115 110
f 81 107 108
f 82 110 83
f 83 111 112
f 83 112 113
f 83 113 114
f 83 114 84
f 83 110 115
f 83 115 116
f 83 116 111
f 84 114 85
f 85 114 117
f 85 117 86
f 86 117 118
f 86 118 87
f 87 118 119
f 87 119 120
f 87 120 88
f 88 120 89
f 89 120 121
f 89 121 122
f 89 122 90
f 91 123 92
f 92 123 124
f 92 124 125
f 92 125 126
f 92 126 94
f 92 94 93
f 94 127 128
f 94 128 129
f 94 129 102
f 94 126 130
f 94 130 127
f 95 99 131
f 95 131 132
f 95 132 100
f 96 103 133
f 96 133 97
f 97 134 135
f 97 135 136
f 97 136 98
f 97 133 134
f 98 136 99
f 99 132 131
f 99 136 137
f 99 137 138
f 99 138 139
f 99 139 140
f 99 140 132
f 100 132 141
f 100 141 101
f 101 141 104
f 102 129 142
f 102 142 103
f 103 143 144
f 103 144 145
f 103 145 133
f 103 142 146
f 103 146 143
f 104 141 105
f 105 147 148
f 105 148 106
f 105 141 147
f 106 148 149
f 106 149 150
f 106 150 109
f 106 109 108
f 106 108 107
f 109 150 151
f 109 151 116
f 109 116 115
f 111 116 112
f 112 152 117
f 112 117 114
f 112 114 113
f 112 116 153
f 112 153 154
f 112 154 121
f 112 121 152
f 116 155 153
f 116 151 186
f 116 186 155
f 117 152 118
f 118 152 119
f 119 152 121
f 119 121 120
f 121 156 157
f 121 157 158
f 121 158 159
f 121 159 160
f 121 160 122
f 121 154 156
f 125 161 126
f 126 161 162
f 126 162 163
f 126 163 130
f 127 130 164
f 127 164 128
f 128 164 165
f 128 165 129
f 129 166 146
f 129 146 142
f 129 165 166
f 130 163 164
f 132 140 167
f 132 167 168
f 132 168 147
f 132 147 141
f 133 145 169
f 133 169 170
f 133 170 171
f 133 171 134
f 134 171 172
f 134 172 173
f 134 173 135
f 135 173 136
f 136 173 174
f 136 174 137
f 137 174 171
f 137 171 138
f 138 171 175
f 138 175 176
f 138 176 177
f 138 177 178
f 138 178 139
f 139 178 179
f 139 179 167
f 139 167 140
f 143 146 180
f 143 180 181
f 143 181 182
f 143 182 144
f 144 182 217
f 144 217 183
f 144 183 184
f 144 184 185
f 144 185 145
f 145 185 169
f 146 166 180
f 147 168 148
f 148 168 149
f 149 186 150
f 149 168 186
f 150 186 151
f 153 187 188
f 153 188 154
f 153 155 187
f 154 188 189
f 154 189 190
f 154 190 191
f 154 191 156
f 155 186 168
f 155 168 192
f 155 192 187
f 156 191 157
f 157 193 158
f 157 191 193
f 158 193 194
f 158 194 222
f 158 222 195
f 161 196 162
f 162 196 197
f 162 197 198
f 162 198 199
f 162 199 163
f 163 199 200
f 163 200 164
f 164 200 165
f 165 201 166
f 165 200 202
f 165 202 201
f 166 203 180
f 166 201 203
f 167 179 211
f 167 211 204
f 167 204 192
f 167 192 168
f 169 185 184
f 169 184 205
f 169 205 206
f 169 206 170
f 170 206 171
f 171 184 175
f 171 174 173
f 171 173 172
f 171 206 184
f 175 184 176
f 176 207 208
f 176 208 177
f 176 184 207
f 177 208 178
f 178 209 210
f 178 210 179
f 178 208 209
f 179 210 242
f 179 242 211
f 180 203 212
f 180 212 181
f 181 212 213
f 181 213 214
f 181 214 215
f 181 215 182
f 182 216 217
f 182 215 218
f 182 218 216
f 183 217 239
f 183 239 207
f 183 207 184
f 184 206 205
f 187 192 188
f 188 192 189
f 189 192 204
f 189 204 211
f 189 211 190
f 190 211 191
f 191 219 220
f 191 220 193
f 191 211 219
f 193 220 194
f 194 221 255
f 194 255 222
f 194 220 223
f 194 223 224
f 194 224 221
f 195 222 225
f 195 225 226
f 195 226 227
f 195 227 228
f 195 228 229
f 195 229 230
f 197 231 232
f 197 232 198
f 198 232 233
f 198 233 234
f 198 234 199
f 199 234 237
f 199 237 202
f 199 202 200
f 201 235 236
f 201 236 203
f 201 202 237
f 201 237 238
f 201 238 235
f 203 236 213
f 203 213 212
f 207 239 276
f 207 276 240
f 207 240 208
f 208 240 209
f 209 241 278
f 209 278 294
f 209 294 254
f 209 254 219
f 209 219 242
f 209 242 210
f 209 240 276
f 209 276 241
f 211 242 219
f 213 236 243
f 213 243 214
f 214 244 245
f 214 245 246
f 214 246 215
f 214 243 247
f 214 247 244
f 215 246 248
f 215 248 218
f 216 218 248
f 216 248 249
f 216 249 250
f 216 250 251
f 216 251 252
f 216 252 253
f 216 253 239
f 216 239 217
f 219 254 224
f 219 224 223
f 219 223 220
f 221 224 255
f 222 255 225
f 224 256 225
f 224 225 255
f 224 254 257
f 224 257 258
f 224 258 256
f 225 256 226
f 226 256 259
f 226 259 227
f 227 259 228
f 228 259 260
f 228 260 229
f 229 260 261
f 229 261 262
f 229 262 230
f 230 262 264
f 230 264 265
f 230 265 266
f 230 266 267
f 230 267 268
f 230 268 269
f 230 269 313
f 230 313 354
f 230 354 310
f 230 310 263
f 231 270 271
f 231 271 232
f 232 271 272
f 232 272 273
f 232 273 238
f 232 238 233
f 233 238 237
f 233 237 234
f 235 238 274
f 235 274 272
f 235 272 236
f 236 247 243
f 236 272 247
f 238 273 274
f 239 253 275
f 239 275 276
f 241 277 278
f 241 276 275
f 241 275 277
f 244 279 280
f 244 280 281
f 244 281 282
f 244 282 245
f 244 247 279
f 245 282 283
f 245 283 246
f 246 283 284
f 246 284 251
f 246 251 285
f 246 285 248
f 247 272 286
f 247 286 287
f 247 287 279
f 248 285 250
f 248 250 249
f 250 285 251
f 251 284 288
f 251 288 289
f 251 289 290
f 251 290 291
f 251 291 292
f 251 292 252
f 252 292 253
f 253 292 293
f 253 293 275
f 254 294 257
f 256 258 259
f 257 294 295
f 257 295 258
f 258 296 259
f 258 295 297
f 258 297 298
f 258 298 296
f 259 296 299
f 259 299 260
f 260 299 300
f 260 300 298
f 260 298 301
f 260 301 302
f 260 302 303
f 260 303 304
f 260 304 261
f 261 304 305
f 261 305 262
f 262 305 306
f 262 306 264
f 263 307 308
f 263 308 309
f 263 310 307
f 264 306 311
f 264 311 265
f 265 311 266
f 266 311 312
f 266 312 267
f 267 312 268
f 268 312 269
f 269 312 313
f 270 314 271
f 271 314 315
f 271 315 272
f 272 316 286
f 272 274 273
f 272 315 316
f 275 293 277
f 277 317 318
f 277 318 278
f 277 293 292
f 277 292 317
f 278 318 295
f 278 295 294
f 279 287 319
f 279 319 280
f 280 320 321
f 280 321 322
f 280 322 282
f 280 282 281
f 280 319 323
f 280 323 324
f 280 324 320
f 282 322 325
f 282 325 326
f 282 326 327
f 282 327 328
f 282 328 283
f 283 328 329
f 283 329 289
f 283 289 330
f 283 330 284
f 284 330 289
f 284 289 288
f 286 316 319
f 286 319 287
f 289 329 290
f 290 329 291
f 291 329 327
f 291 327 292
f 292 327 317
f 295 331 332
f 295 332 297
f 295 318 361
f 295 361 331
f 296 298 299
f 297 332 298
f 298 332 333
f 298 333 334
f 298 334 301
f 298 300 299
f 301 334 335
f 301 335 336
f 301 336 337
f 301 337 338
f 301 338 339
f 301 339 302
f 302 339 340
f 302 340 341
f 302 341 342
f 302 342 343
f 302 343 303
f 303 343 304
f 304 343 344
f 304 344 345
f 304 345 346
f 304 346 305
f 305 346 347
f 305 347 306
f 306 347 311
f 307 348 349
f 307 349 308
f 307 310 350
f 307 350 348
f 308 349 351
f 308 351 352
f 308 352 353
f 308 353 309
f 310 354 355
f 310 355 350
f 311 347 312
f 312 356 313
f 312 347 357
f 312 357 356
f 313 355 354
f 313 356 355
f 314 358 359
f 314 359 319
f 314 319 316
f 314 316 315
f 317 360 361
f 317 361 318
f 317 327 360
f 319 359 324
f 319 324 323
f 320 324 362
f 320 362 363
f 320 363 364
f 320 364 321
f 321 364 365
f 321 365 322
f 322 365 366
f 322 366 325
f 324 367 368
f 324 368 369
f 324 369 370
f 324 370 362
f 324 359 358
f 324 358 371
f 324 371 367
f 325 366 326
f 326 366 372
f 326 372 327
f 327 329 328
f 327 372 360
f 331 373 332
f 331 361 396
f 331 396 373
f 332 373 333
f 333 373 334
f 334 373 374
f 334 374 335
f 335 375 337
f 335 337 336
f 335 374 376
f 335 376 409
f 335 409 377
f 335 377 378
f 335 378 379
f 335 379 375
f 337 380 381
f 337 381 338
f 337 375 382
f 337 382 380
f 338 381 340
f 338 340 339
f 340 381 383
f 340 383 341
f 341 383 357
f 341 357 384
f 341 384 385
f 341 385 343
f 341 343 342
f 343 385 344
f 344 385 345
f 345 385 357
f 345 357 347
f 345 347 346
f 348 350 386
f 348 386 369
f 348 369 368
f 348 368 387
f 348 387 349
f 349 388 351
f 349 387 388
f 350 355 389
f 350 389 390
f 350 390 391
f 350 391 392
f 350 392 393
f 350 393 394
f 350 394 386
f 351 395 352
f 351 388 395
f 355 356 389
f 356 383 389
f 356 357 383
f 357 385 384
f 360 372 361
f 361 372 396
f 362 370 363
f 363 397 398
f 363 398 364
f 363 370 397
f 364 399 365
f 364 398 399
f 365 399 400
f 365 400 401
f 365 401 366
f 366 401 372
f 367 387 368
f 367 371 402
f 367 402 387
f 369 386 403
f 369 403 404
f 369 404 370
f 370 404 405
f 370 405 406
f 370 406 397
f 372 401 407
f 372 407 396
f 373 396 409
f 373 409 376
f 373 376 374
f 375 379 408
f 375 408 382
f 377 409 410
f 377 410 411
f 377 411 412
f 377 412 378
f 378 412 413
f 378 413 408
f 378 408 379
f 380 382 414
f 380 414 383
f 380 383 381
f 382 408 414
f 383 414 389
f 386 394 415
f 386 415 416
f 386 416 403
f 387 402 388
f 389 417 390
f 389 414 417
f 390 417 418
f 390 418 419
f 390 419 415
f 390 415 392
f 390 392 391
f 392 415 394
f 392 394 393
f 396 407 420
f 396 420 421
f 396 421 409
f 397 406 398
f 398 406 422
f 398 422 400
f 398 400 399
f 400 422 423
f 400 423 407
f 400 407 401
f 403 416 424
f 403 424 405
f 403 405 404
f 405 424 425
f 405 425 406
f 406 425 422
f 407 423 420
f 408 413 417
f 408 417 414
f 409 421 426
f 409 426 410
f 410 426 411
f 411 426 427
f 411 427 413
f 411 413 412
f 413 415 419
f 413 419 418
f 413 418 417
f 413 427 425
f 413 425 415
f 415 425 424
f 415 424 416
f 420 423 426
f 420 426 421
f 422 425 427
f 422 427 423
f 423 427 426

