# https://github.com/mikedh/trimesh
v 0.01292643 -0.04765392 -0.00224722
v 0.00472334 -0.04177833 0.00276742
v 0.00472162 -0.04177833 -0.00825580
v 0.00472162 -0.04177833 -0.01980346
v 0.00472334 -0.04177602 -0.02105213
v 0.00535038 -0.04216418 -0.02105213
v 0.00541910 -0.04212953 -0.02230579
v 0.00650655 -0.04271870 -0.02230579
v 0.01292643 -0.04754764 -0.00350088
v 0.01292815 -0.04590719 -0.00825580
v 0.01292643 -0.04760309 -0.00099356
v 0.00534694 -0.04215956 0.02532331
v 0.00472334 -0.04177371 0.02532331
v 0.00400525 -0.04123768 0.02532331
v 0.00458762 -0.04167667 -0.01501858
v 0.00400181 -0.04122381 -0.01501358
v 0.00400525 -0.04122381 -0.01980346
v 0.00400525 -0.04120995 -0.02105213
v 0.00479205 -0.04172519 -0.02230579
v 0.00545861 -0.04210642 -0.02253554
v 0.00635021 -0.04258700 -0.02253554
v 0.00650655 -0.04267018 -0.02253554
v 0.01033065 -0.04463179 -0.02230579
v 0.01292643 -0.04753840 -0.00356082
v 0.01292815 -0.04520711 -0.01501358
v 0.01151945 -0.04498068 -0.02230579
v 0.01277354 -0.04510545 -0.02230579
v 0.01291784 -0.04511700 -0.02230579
v 0.01292815 -0.04130468 -0.00825580
v 0.01292643 -0.04654950 0.00276742
v 0.01292643 -0.04678980 0.00215807
v 0.01292643 -0.04703471 0.00151875
v 0.01292643 -0.04733045 0.00048486
v 0.01292643 -0.04739977 0.00022014
v 0.01292643 -0.04751991 -0.00047412
v 0.01107794 -0.04488364 0.02406466
v 0.01041139 -0.04465028 0.02406466
v 0.00714733 -0.04308838 0.02532331
v 0.00650483 -0.04278340 0.02532331
v 0.00541910 -0.04211566 0.02657697
v 0.00479377 -0.04172750 0.02657697
v 0.00331807 -0.04064619 0.02631725
v 0.00328887 -0.04067392 0.02532331
v 0.00367540 -0.04096504 -0.01501358
v 0.00329746 -0.04066005 -0.01980346
v 0.00331636 -0.04064388 -0.02105213
v 0.00334728 -0.04061615 -0.02182630
v 0.00391591 -0.04101356 -0.02227082
v 0.00359638 -0.04068547 -0.02253554
v 0.00469242 -0.04158194 -0.02253554
v 0.00483329 -0.04169284 -0.02253554
v 0.00494323 -0.04177371 -0.02253554
v 0.01039077 -0.04459945 -0.02253554
v 0.01125489 -0.04485591 -0.02253554
v 0.01291784 -0.04502227 -0.02253554
v 0.01292815 -0.04130468 -0.01501358
v 0.01151945 -0.04489981 -0.02253554
v 0.01247462 -0.04499223 -0.02253554
v 0.01292643 -0.04130699 0.00276742
v 0.01288005 -0.03369622 -0.00977418
v 0.01107794 -0.04349503 0.02848993
v 0.01107794 -0.04464797 0.02526837
v 0.01063472 -0.04454168 0.02506858
v 0.00774517 -0.04296131 0.02795051
v 0.00727618 -0.04304217 0.02657697
v 0.00650483 -0.04269329 0.02657697
v 0.00560120 -0.04200707 0.02782564
v 0.00497587 -0.04160042 0.02782564
v 0.00411519 -0.04097659 0.02782564
v 0.00338851 -0.04057456 0.02715136
v 0.00388499 -0.04102973 0.02666688
v 0.00210865 -0.03935231 0.02605753
v 0.00266011 -0.03998770 0.02532331
v -0.00351583 -0.03376322 0.00025510
v 0.00267042 -0.04001773 -0.01980346
v 0.00268588 -0.04000156 -0.02105213
v 0.00211209 -0.03934538 -0.02172141
v 0.00325795 -0.04036200 -0.02253554
v 0.01291784 -0.04010322 -0.02253554
v 0.01288005 -0.03369622 -0.01729614
v 0.01106592 -0.03317405 0.02532331
v 0.01107794 -0.04037124 0.02848993
v 0.01283023 -0.03346748 -0.01501358
v 0.01259144 -0.03244162 -0.00977418
v 0.01026536 -0.04340492 0.02848993
v 0.00912810 -0.04321546 0.02848993
v 0.00841688 -0.04308145 0.02848993
v 0.00838939 -0.04308838 0.02844997
v 0.00650483 -0.04246686 0.02782564
v 0.00573863 -0.04191927 0.02848993
v 0.00426637 -0.04085875 0.02848993
v 0.00348987 -0.04048445 0.02782564
v 0.00217566 -0.03927606 0.02688664
v 0.00290405 -0.03986062 0.02782564
v 0.00227701 -0.03915592 0.02782564
v 0.00176163 -0.03880010 0.02651704
v -0.00351583 -0.03362690 0.00276242
v -0.00351583 -0.03372626 0.00151376
v -0.00462217 -0.02837284 -0.01501858
v -0.00351583 -0.03375398 -0.00099356
v 0.00207430 -0.03938928 -0.01980346
v 0.00208804 -0.03937311 -0.02105213
v -0.00351583 -0.03367080 -0.00224722
v -0.00351583 -0.03353911 -0.00350088
v 0.00160874 -0.03870537 -0.02105213
v 0.00101606 -0.03781583 -0.02105213
v 0.00178225 -0.03870537 -0.02215095
v 0.00182176 -0.03875158 -0.02220589
v 0.00218768 -0.03916747 -0.02253554
v 0.00225983 -0.03925296 -0.02253554
v 0.01186475 -0.03369622 -0.02253554
v 0.01282336 -0.03369622 -0.01854980
v 0.01256051 -0.03244162 -0.01854980
v 0.01259144 -0.03244162 -0.01729614
v 0.01113120 -0.03038990 -0.00977418
v 0.01100751 -0.03317405 0.02603755
v 0.01224442 -0.03165605 -0.00977418
v 0.01175996 -0.03103222 -0.00977418
v 0.01099548 -0.03317405 0.02610248
v 0.01026708 -0.03317405 0.02634222
v 0.00302431 -0.03317405 0.02848993
v 0.01252959 -0.03229837 -0.01501358
v 0.00371492 -0.04038741 0.02848993
v 0.00303462 -0.03971506 0.02848993
v 0.00179428 -0.03852977 0.02782564
v 0.00236634 -0.03895029 0.02848993
v 0.00189392 -0.03839115 0.02848993
v 0.00101434 -0.03782970 0.02532331
v 0.00105729 -0.03775345 0.02657697
v -0.00351583 -0.03050542 0.00276242
v 0.00070168 -0.03712730 0.02657697
v 0.00025845 -0.03620311 0.02657697
v -0.00022601 -0.03489768 0.02661693
v -0.00041669 -0.03444020 0.02622735
v -0.00036344 -0.03421377 0.02706645
v -0.00043731 -0.03395961 0.02681672
v -0.00049572 -0.03375398 0.02661693
v -0.00057474 -0.03317405 0.02660195
v -0.00351583 -0.02404990 -0.01501358
v -0.00046308 -0.02837284 -0.02253554
v -0.00045792 -0.02993704 -0.02253554
v -0.00044418 -0.03118933 -0.02253554
v -0.00037031 -0.03244162 -0.02253554
v -0.00028613 -0.03302155 -0.02253554
v -0.00016416 -0.03374012 -0.02253554
v -0.00011262 -0.03396423 -0.02253554
v 0.00012102 -0.03496006 -0.02253554
v 0.00018286 -0.03517956 -0.02253554
v 0.00056080 -0.03626549 -0.02253554
v 0.00053847 -0.03631170 -0.02241068
v 0.00076696 -0.03703026 -0.02206105
v 0.00068278 -0.03718738 -0.02105213
v -0.00351583 -0.03272812 -0.00726187
v -0.00351583 -0.03298921 -0.00632287
v -0.00351583 -0.03314170 -0.00568855
v -0.00351583 -0.03333116 -0.00475454
v 0.00108134 -0.03744846 -0.02241068
v 0.00179428 -0.03870537 -0.02221588
v 0.00189735 -0.03870537 -0.02253554
v 0.01148509 -0.03244162 -0.02253554
v 0.01219975 -0.03172537 -0.01924406
v 0.01223411 -0.03166991 -0.01854980
v 0.01224270 -0.03165836 -0.01729614
v 0.01224442 -0.03165605 -0.01501358
v 0.01026880 -0.02987697 -0.00977418
v 0.01175824 -0.03102991 -0.01729614
v 0.01113120 -0.03038990 -0.01729614
v 0.00093875 -0.02421625 -0.01501358
v 0.01184929 -0.03114543 -0.01501358
v 0.00024127 -0.02405452 -0.01501358
v -0.00020367 -0.03317405 0.02848993
v 0.00006948 -0.02404990 -0.01501358
v 0.00111054 -0.03741843 0.02794551
v 0.00088206 -0.03679459 0.02848993
v 0.00087347 -0.03682232 0.02843998
v 0.00078757 -0.03697481 0.02760587
v -0.00044418 -0.03317405 0.02757590
v -0.00040639 -0.03317405 0.02781565
v 0.00055393 -0.03632094 0.02794551
v 0.00000248 -0.03495082 0.02782564
v -0.00043215 -0.03337968 0.02749099
v -0.00029644 -0.03375398 0.02788058
v -0.00033595 -0.03317405 0.02816528
v 0.00356546 -0.02837284 -0.02253554
v 0.00062265 -0.03643415 -0.02253554
v 0.00102980 -0.03728673 -0.02253554
v 0.00117754 -0.03753857 -0.02253554
v 0.01104015 -0.03166067 -0.02253554
v 0.01103500 -0.03045690 -0.01929401
v 0.01174621 -0.03104146 -0.01854980
v 0.01111917 -0.03039683 -0.01854980
v 0.01026536 -0.02989776 -0.01854980
v 0.00948714 -0.03060477 -0.02253554
v -0.00010918 -0.03372626 0.02848993
v 0.00063468 -0.03612686 0.02848993
v 0.00023784 -0.03500858 0.02848993
v 0.00004027 -0.03429926 0.02848993
v -0.00017103 -0.03395961 0.02811033
v 0.01026536 -0.03107381 -0.02253554
v -0.00004906 -0.03395961 0.02848993
f 1 2 3
f 1 3 4
f 1 4 5
f 1 5 6
f 1 6 7
f 1 7 8
f 1 8 9
f 1 9 10
f 1 10 11
f 1 11 12
f 1 12 13
f 1 13 2
f 2 13 14
f 2 14 3
f 3 14 4
f 4 15 16
f 4 16 17
f 4 17 5
f 4 14 15
f 5 17 18
f 5 18 19
f 5 19 7
f 5 7 6
f 7 19 20
f 7 20 8
f 8 20 21
f 8 21 22
f 8 22 23
f 8 23 9
f 9 24 25
f 9 25 10
f 9 23 26
f 9 26 27
f 9 27 28
f 9 28 24
f 10 29 59
f 10 59 30
f 10 30 31
f 10 31 32
f 10 32 33
f 10 33 34
f 10 34 35
f 10 35 11
f 10 25 56
f 10 56 29
f 11 35 36
f 11 36 37
f 11 37 38
f 11 38 39
f 11 39 12
f 12 39 40
f 12 40 13
f 13 40 41
f 13 41 14
f 14 41 42
f 14 42 43
f 14 43 16
f 14 16 15
f 16 44 17
f 16 43 44
f 17 44 45
f 17 45 18
f 18 45 46
f 18 46 47
f 18 47 19
f 19 47 48
f 19 48 49
f 19 49 50
f 19 50 51
f 19 51 52
f 19 52 20
f 20 52 51
f 20 51 50
f 20 50 49
f 20 49 78
f 20 78 110
f 20 110 109
f 20 109 159
f 20 159 187
f 20 187 186
f 20 186 185
f 20 185 149
f 20 149 148
f 20 148 147
f 20 147 146
f 20 146 145
f 20 145 144
f 20 144 143
f 20 143 142
f 20 142 141
f 20 141 140
f 20 140 184
f 20 184 193
f 20 193 199
f 20 199 188
f 20 188 160
f 20 160 111
f 20 111 79
f 20 79 55
f 20 55 58
f 20 58 57
f 20 57 54
f 20 54 53
f 20 53 22
f 20 22 21
f 22 53 23
f 23 53 54
f 23 54 26
f 24 28 25
f 25 28 55
f 25 55 79
f 25 79 56
f 26 54 57
f 26 57 27
f 27 57 58
f 27 58 28
f 28 58 55
f 29 56 80
f 29 80 60
f 29 60 59
f 30 59 82
f 30 82 61
f 30 61 31
f 31 61 32
f 32 61 62
f 32 62 33
f 33 62 34
f 34 62 36
f 34 36 35
f 36 62 63
f 36 63 37
f 37 63 64
f 37 64 65
f 37 65 38
f 38 65 66
f 38 66 39
f 39 66 40
f 40 66 67
f 40 67 41
f 41 67 68
f 41 68 69
f 41 69 70
f 41 70 71
f 41 71 42
f 42 72 43
f 42 71 70
f 42 70 72
f 43 72 73
f 43 73 74
f 43 74 45
f 43 45 44
f 45 75 76
f 45 76 46
f 45 74 75
f 46 76 47
f 47 77 78
f 47 78 49
f 47 49 48
f 47 76 77
f 56 79 80
f 59 81 82
f 59 60 81
f 60 80 83
f 60 83 84
f 60 84 81
f 61 82 121
f 61 121 171
f 61 171 194
f 61 194 200
f 61 200 197
f 61 197 196
f 61 196 195
f 61 195 174
f 61 174 127
f 61 127 126
f 61 126 124
f 61 124 123
f 61 123 91
f 61 91 90
f 61 90 87
f 61 87 86
f 61 86 85
f 61 85 62
f 62 85 86
f 62 86 87
f 62 87 88
f 62 88 63
f 63 88 64
f 64 88 89
f 64 89 65
f 65 89 66
f 66 89 67
f 67 89 90
f 67 90 68
f 68 90 91
f 68 91 69
f 69 92 70
f 69 91 92
f 70 93 72
f 70 92 94
f 70 94 95
f 70 95 93
f 72 93 96
f 72 96 97
f 72 97 98
f 72 98 74
f 72 74 73
f 74 98 99
f 74 99 100
f 74 100 75
f 75 101 102
f 75 102 76
f 75 100 101
f 76 102 77
f 77 102 103
f 77 103 104
f 77 104 105
f 77 105 106
f 77 106 107
f 77 107 108
f 77 108 109
f 77 109 110
f 77 110 78
f 79 111 112
f 79 112 80
f 80 112 113
f 80 113 114
f 80 114 83
f 81 115 116
f 81 116 82
f 81 84 117
f 81 117 118
f 81 118 115
f 82 116 119
f 82 119 120
f 82 120 121
f 83 114 84
f 84 122 117
f 84 114 122
f 87 90 88
f 88 90 89
f 91 123 92
f 92 123 124
f 92 124 94
f 93 95 125
f 93 125 96
f 94 124 95
f 95 124 126
f 95 126 127
f 95 127 125
f 96 128 97
f 96 125 129
f 96 129 128
f 97 130 99
f 97 99 98
f 97 128 129
f 97 129 131
f 97 131 132
f 97 132 133
f 97 133 134
f 97 134 135
f 97 135 136
f 97 136 137
f 97 137 138
f 97 138 130
f 99 139 140
f 99 140 141
f 99 141 142
f 99 142 143
f 99 143 144
f 99 144 145
f 99 145 146
f 99 146 147
f 99 147 148
f 99 148 149
f 99 149 150
f 99 150 151
f 99 151 152
f 99 152 153
f 99 153 154
f 99 154 155
f 99 155 156
f 99 156 104
f 99 104 103
f 99 103 100
f 99 130 139
f 100 103 102
f 100 102 101
f 104 156 106
f 104 106 105
f 106 152 151
f 106 151 157
f 106 157 158
f 106 158 107
f 106 156 155
f 106 155 154
f 106 154 152
f 107 158 108
f 108 158 109
f 109 158 159
f 111 160 161
f 111 161 113
f 111 113 112
f 113 162 114
f 113 161 162
f 114 162 163
f 114 163 164
f 114 164 122
f 115 165 116
f 115 118 166
f 115 166 167
f 115 167 168
f 115 168 165
f 116 165 168
f 116 168 119
f 117 122 164
f 117 164 169
f 117 169 118
f 118 169 166
f 119 168 170
f 119 170 120
f 120 170 121
f 121 170 172
f 121 172 139
f 121 139 171
f 125 127 173
f 125 173 129
f 127 174 175
f 127 175 173
f 129 176 131
f 129 173 176
f 130 138 177
f 130 177 178
f 130 178 139
f 131 176 132
f 132 176 179
f 132 179 180
f 132 180 133
f 133 135 134
f 133 180 135
f 135 181 136
f 135 180 182
f 135 182 181
f 136 181 137
f 137 181 138
f 138 181 177
f 139 172 184
f 139 184 140
f 139 178 183
f 139 183 171
f 149 185 150
f 150 185 151
f 151 185 186
f 151 186 157
f 152 154 153
f 157 186 187
f 157 187 159
f 157 159 158
f 160 188 161
f 161 189 190
f 161 190 162
f 161 188 189
f 162 190 166
f 162 166 163
f 163 166 164
f 164 166 169
f 166 190 191
f 166 191 167
f 167 191 168
f 168 191 192
f 168 192 189
f 168 189 193
f 168 193 184
f 168 184 170
f 170 184 172
f 171 183 194
f 173 175 176
f 174 195 175
f 175 180 179
f 175 179 176
f 175 195 180
f 177 181 178
f 178 181 182
f 178 182 183
f 180 195 196
f 180 196 197
f 180 197 198
f 180 198 182
f 182 198 194
f 182 194 183
f 188 199 189
f 189 192 191
f 189 191 190
f 189 199 193
f 194 198 200
f 197 200 198

