# https://github.com/mikedh/trimesh
v 0.02839380 -0.00666341 -0.00508345
v 0.02839380 -0.00666341 -0.00480129
v 0.02839380 -0.00451643 -0.00508345
v 0.03500961 -0.00666382 -0.00508345
v 0.03832004 -0.00681902 -0.00083127
v 0.03765745 -0.00681615 -0.00016943
v 0.02839380 -0.00664334 -0.00408599
v 0.02839380 -0.00448449 -0.00480030
v 0.03977370 -0.00263562 -0.00508345
v 0.03698730 -0.00666382 -0.00508345
v 0.03765745 -0.00681123 -0.00002637
v 0.03898137 -0.00666341 -0.00508345
v 0.03964270 -0.00666300 -0.00508345
v 0.04027253 -0.00665071 -0.00508345
v 0.03898137 -0.00678667 -0.00083127
v 0.03943485 -0.00672565 -0.00002637
v 0.03302688 -0.00666341 -0.00002637
v 0.02839380 -0.00663761 -0.00399442
v 0.02839380 -0.00453445 -0.00421915
v 0.03848505 -0.00263562 -0.00002637
v 0.03842207 -0.00263562 -0.00149310
v 0.03853418 -0.00263562 -0.00217127
v 0.03874581 -0.00263562 -0.00280044
v 0.03898893 -0.00263562 -0.00347712
v 0.03921818 -0.00263562 -0.00400729
v 0.03938068 -0.00263562 -0.00433845
v 0.03961624 -0.00263562 -0.00480030
v 0.04126138 -0.00263562 -0.00508345
v 0.04064288 -0.00663188 -0.00508345
v 0.04073861 -0.00653605 -0.00508345
v 0.04116942 -0.00606923 -0.00508345
v 0.03959357 -0.00628544 -0.00002637
v 0.03273842 -0.00664498 -0.00002637
v 0.02839380 -0.00662328 -0.00380136
v 0.03265906 -0.00663966 -0.00002637
v 0.02839380 -0.00471094 -0.00388848
v 0.03267795 -0.00461512 -0.00002637
v 0.03963136 -0.00263562 -0.00002637
v 0.04126264 -0.00562370 -0.00508345
v 0.03962758 -0.00562370 -0.00002637
v 0.03261875 -0.00656349 -0.00002637
v 0.03248396 -0.00628544 -0.00002637
v 0.02839380 -0.00634400 -0.00369840
v 0.02839380 -0.00504058 -0.00369493
v 0.03250790 -0.00496237 -0.00002637
v 0.03963136 -0.00297755 -0.00002637
v 0.03962884 -0.00510446 -0.00002637
v 0.03245373 -0.00614253 -0.00002637
v 0.03235044 -0.00562370 -0.00002637
v 0.02839380 -0.00562493 -0.00358108
f 1 2 7
f 1 7 18
f 1 18 34
f 1 34 43
f 1 43 50
f 1 50 44
f 1 44 36
f 1 36 19
f 1 19 8
f 1 8 3
f 1 3 9
f 1 9 28
f 1 28 39
f 1 39 31
f 1 31 30
f 1 30 29
f 1 29 14
f 1 14 13
f 1 13 12
f 1 12 10
f 1 10 4
f 1 4 5
f 1 5 6
f 1 6 2
f 2 6 7
f 3 8 9
f 4 10 5
f 5 11 6
f 5 10 12
f 5 12 13
f 5 13 14
f 5 14 15
f 5 15 16
f 5 16 11
f 6 11 17
f 6 17 7
f 7 17 18
f 8 19 20
f 8 20 21
f 8 21 22
f 8 22 23
f 8 23 24
f 8 24 25
f 8 25 26
f 8 26 27
f 8 27 9
f 9 27 26
f 9 26 25
f 9 25 24
f 9 24 23
f 9 23 22
f 9 22 21
f 9 21 20
f 9 20 38
f 9 38 28
f 11 16 32
f 11 32 40
f 11 40 47
f 11 47 46
f 11 46 38
f 11 38 20
f 11 20 37
f 11 37 45
f 11 45 49
f 11 49 48
f 11 48 42
f 11 42 41
f 11 41 35
f 11 35 33
f 11 33 17
f 14 29 15
f 15 29 16
f 16 29 30
f 16 30 31
f 16 31 32
f 17 33 18
f 18 33 35
f 18 35 34
f 19 36 37
f 19 37 20
f 28 38 39
f 31 39 32
f 32 39 40
f 34 35 41
f 34 41 42
f 34 42 43
f 36 44 37
f 37 44 45
f 38 46 39
f 39 46 47
f 39 47 40
f 42 48 43
f 43 48 49
f 43 49 50
f 44 50 49
f 44 49 45

