# https://github.com/mikedh/trimesh
v 0.04397695 0.01164600 0.00900056
v 0.04397695 0.01160952 0.00972020
v 0.04469750 0.01160040 0.00972020
v 0.04469750 0.01162776 0.00900056
v 0.04469750 0.01162776 0.00886577
v 0.04410896 0.01164144 0.00886577
v 0.04397695 0.01164372 0.00886577
v 0.02238783 0.01164600 0.00886577
v 0.02166728 0.01164600 0.00900056
v 0.02814676 0.01160952 0.00972020
v 0.03677141 0.01154568 0.01015030
v 0.04180979 0.01154568 0.01014942
v 0.04397695 0.01154568 0.01014897
v 0.04469750 0.01154568 0.01014720
v 0.04511553 0.01153428 0.01012326
v 0.04518154 0.01155480 0.00972020
v 0.05550031 0.01052654 0.00886621
v 0.04479101 0.01161636 0.00886577
v 0.02166728 0.01164600 0.00886577
v 0.01590285 0.01164144 0.00900056
v 0.01590285 0.01160496 0.00972109
v 0.02526455 0.01154568 0.01014942
v 0.02670566 0.01154568 0.01015030
v 0.03677141 0.01138381 0.01050990
v 0.04397695 0.01138381 0.01050901
v 0.04469750 0.01138381 0.01050680
v 0.04537955 0.01135417 0.01039329
v 0.05621536 0.01023243 0.00961955
v 0.05550031 0.01052198 0.00900056
v 0.05563232 0.01050830 0.00886621
v 0.04520904 0.01156392 0.00886577
v 0.01954412 0.01164372 0.00886577
v 0.01590285 0.01164144 0.00886621
v 0.01531980 0.01161864 0.00886621
v 0.01518229 0.01161180 0.00900056
v 0.01518229 0.01159128 0.00972109
v 0.01518229 0.01154112 0.01014232
v 0.02526455 0.01138381 0.01050901
v 0.02670566 0.01138381 0.01050990
v 0.04325639 0.01102357 0.01105529
v 0.04469750 0.01102357 0.01102336
v 0.04541806 0.01099165 0.01101848
v 0.05550031 0.01003863 0.01004965
v 0.05621536 0.00997024 0.00997959
v 0.05693592 0.01015263 0.00949230
v 0.05621536 0.01041483 0.00900056
v 0.05621536 0.01041939 0.00886621
v 0.04557207 0.01145220 0.00886577
v 0.05635288 0.01038975 0.00886621
v 0.05693592 0.01025751 0.00886621
v 0.05703493 0.01023015 0.00886621
v 0.05741995 0.01011615 0.00886621
v 0.01954412 -0.01164372 0.00886577
v 0.01137601 0.00467618 0.00886621
v 0.01138151 0.00539665 0.00886621
v 0.01141451 0.00611711 0.00886621
v 0.01186005 0.00899670 0.00886621
v 0.01207456 0.00973768 0.00886621
v 0.01243209 0.01032135 0.00886621
v 0.01248159 0.01038975 0.00886621
v 0.01278961 0.01068158 0.00886621
v 0.01315264 0.01095062 0.00886621
v 0.01325715 0.01100761 0.00886621
v 0.01374669 0.01126069 0.00886621
v 0.01431873 0.01146816 0.00886621
v 0.01461025 0.01153428 0.00886621
v 0.01468176 0.01154796 0.00886621
v 0.01518229 0.01161180 0.00886621
v 0.01467626 0.01155024 0.00900056
v 0.01468726 0.01154568 0.00972109
v 0.01474226 0.01153428 0.01012193
v 0.01518229 0.01137469 0.01050192
v 0.02526455 0.01102357 0.01105307
v 0.01446724 0.01101673 0.01104996
v 0.04253584 0.01063598 0.01141400
v 0.04325639 0.01063142 0.01141444
v 0.02526455 0.01063826 0.01141222
v 0.04588559 0.01013895 0.01154081
v 0.05693592 0.00952337 0.01017957
v 0.05765647 0.00941849 0.01012281
v 0.05803600 0.00936605 0.01008645
v 0.05693592 0.00988132 0.00985234
v 0.05734845 0.01009335 0.00939076
v 0.05693592 0.01025067 0.00900056
v 0.04568208 0.01139065 0.00886577
v 0.05778298 0.00999987 0.00886621
v 0.05837703 0.00976732 0.00886621
v 0.05849803 0.00971260 0.00886621
v 0.05898757 0.00948461 0.00886621
v 0.05935060 0.00929993 0.00886621
v 0.05740895 0.01011159 0.00900056
v 0.02153527 -0.01164600 0.00886577
v 0.01590285 -0.01164144 0.00886621
v 0.01576534 -0.01163688 0.00886621
v 0.01518229 -0.01161180 0.00886621
v 0.01468726 -0.01155024 0.00886621
v 0.01432423 -0.01146133 0.00886621
v 0.01421422 -0.01142485 0.00886621
v 0.01374669 -0.01125385 0.00886621
v 0.01315814 -0.01094834 0.00886621
v 0.01286112 -0.01074314 0.00886621
v 0.01279512 -0.01068614 0.00886621
v 0.01243759 -0.01032591 0.00886621
v 0.01213507 -0.00982888 0.00886621
v 0.01210757 -0.00973540 0.00886621
v 0.01193705 -0.00899670 0.00886621
v 0.01140351 -0.00593700 0.00886621
v 0.01138151 -0.00539665 0.00886621
v 0.01137601 -0.00518689 0.00886621
v 0.01086447 -0.00323753 0.00893627
v 0.01086447 0.00323753 0.00893760
v 0.01086447 0.00467618 0.00893804
v 0.01086447 0.00539665 0.00893893
v 0.01086447 0.00611711 0.00895622
v 0.00865881 0.00467618 0.00973528
v 0.00865881 0.00471266 0.00974149
v 0.00865881 0.00541717 0.00991619
v 0.00865881 0.00543997 0.00992772
v 0.00865881 0.00548101 0.00995565
v 0.00865881 0.00588456 0.01034540
v 0.00865881 0.00593472 0.01040748
v 0.01241009 0.01034187 0.00900056
v 0.01278961 0.01070210 0.00900056
v 0.01314714 0.01095062 0.00900056
v 0.01314714 0.01095062 0.01044073
v 0.01374669 0.01126069 0.00972109
v 0.01431323 0.01146816 0.00900056
v 0.01432423 0.01146816 0.00972109
v 0.01374669 0.01121509 0.01044073
v 0.01448374 0.01138609 0.01039329
v 0.01374669 0.01098253 0.01104110
v 0.01446724 0.01063826 0.01140912
v 0.01374669 0.01064282 0.01139981
v 0.04253584 0.01027803 0.01162107
v 0.01374669 0.01028259 0.01162727
v 0.04325639 0.01027119 0.01161353
v 0.04325639 0.00971944 0.01171196
v 0.04541806 0.00755805 0.01187780
v 0.04654564 0.00950740 0.01156165
v 0.05981813 0.00755805 0.01033831
v 0.05909758 0.00827623 0.01028421
v 0.05765647 0.00899898 0.01027313
v 0.05831652 0.00899898 0.01018134
v 0.05909758 0.00873222 0.01013478
v 0.05947161 0.00864330 0.01008557
v 0.05851454 0.00923837 0.00996275
v 0.05831652 0.00951196 0.00972153
v 0.05888306 0.00942989 0.00948254
v 0.05837703 0.00976276 0.00900056
v 0.05777198 0.00999531 0.00900056
v 0.04613311 0.01112617 0.00886577
v 0.05898207 0.00948233 0.00900056
v 0.05934510 0.00929537 0.00900056
v 0.05981813 0.00901494 0.00900056
v 0.05981813 0.00902177 0.00886621
v 0.02238783 -0.01164600 0.00886577
v 0.02166728 -0.01164600 0.00900056
v 0.01865305 -0.01164372 0.00886621
v 0.01590285 -0.01164144 0.00900056
v 0.01518229 -0.01161408 0.00900056
v 0.01468176 -0.01155024 0.00900056
v 0.01432423 -0.01146133 0.00900056
v 0.01433523 -0.01146133 0.00972109
v 0.01374669 -0.01125385 0.00972109
v 0.01315264 -0.01094834 0.00900056
v 0.01278961 -0.01069526 0.00900056
v 0.01241559 -0.01033503 0.00900056
v 0.00865881 -0.00593928 0.01040437
v 0.00865881 -0.00574092 0.01008867
v 0.00865881 -0.00541945 0.00991397
v 0.00865881 -0.00467618 0.00973528
v 0.01086447 -0.00611711 0.00898371
v 0.01086447 -0.00539665 0.00893849
v 0.01086447 -0.00467618 0.00893716
v 0.01086447 -0.00395572 0.00893627
v 0.00865881 0.00400360 0.00973439
v 0.00865881 0.00594840 0.01045004
v 0.00865881 0.00613535 0.01115904
v 0.01203606 0.00995884 0.00972109
v 0.01239909 0.01034415 0.00972109
v 0.01278411 0.01070438 0.00972109
v 0.01322415 0.01089818 0.01095375
v 0.01278961 0.01070438 0.01044073
v 0.01252010 0.01018683 0.01159269
v 0.01302613 0.01026207 0.01162816
v 0.01230558 0.00671218 0.01314504
v 0.01230558 0.00611711 0.01336230
v 0.01158503 0.00673498 0.01312952
v 0.04108923 0.00971944 0.01178557
v 0.01374669 0.00539665 0.01338935
v 0.01446724 0.00467618 0.01339556
v 0.01590285 0.00323753 0.01339556
v 0.01662340 0.00179660 0.01339556
v 0.04541806 0.00683986 0.01189376
v 0.05550031 0.00035795 0.01148716
v 0.05550031 0.00107842 0.01142198
v 0.06125374 0.00611711 0.01035338
v 0.06053869 0.00683758 0.01035560
v 0.06052769 0.00755805 0.01020262
v 0.05975213 0.00825343 0.01016715
v 0.06028017 0.00799580 0.01012547
v 0.06075870 0.00779744 0.00998403
v 0.05995014 0.00847687 0.00991353
v 0.06023616 0.00868206 0.00943377
v 0.05975213 0.00878010 0.00969227
v 0.04652364 0.01083206 0.00886577
v 0.06029117 0.00872082 0.00886621
v 0.06028567 0.00871854 0.00900056
v 0.04613311 -0.01164372 0.00886577
v 0.04613311 -0.01164600 0.00900056
v 0.02526455 -0.01160724 0.00972020
v 0.01590285 -0.01160496 0.00972109
v 0.01518229 -0.01159128 0.00972109
v 0.01469276 -0.01154796 0.00972109
v 0.01374669 -0.01121509 0.01044073
v 0.01474226 -0.01153428 0.01012503
v 0.01315814 -0.01094834 0.01044073
v 0.01279512 -0.01069526 0.01044073
v 0.01239909 -0.01033503 0.01044073
v 0.01239909 -0.01033047 0.00972109
v 0.01203606 -0.00995656 0.00972109
v 0.00865881 -0.00613763 0.01115904
v 0.00865881 -0.00395572 0.00973439
v 0.01016042 -0.00539665 0.00920009
v 0.00865881 0.00613307 0.01120516
v 0.01206356 0.00995884 0.01115904
v 0.01203606 0.00995884 0.01044073
v 0.01239909 0.01034415 0.01044073
v 0.01242109 0.01029171 0.01115904
v 0.01183804 0.00951653 0.01162461
v 0.00865881 0.00588456 0.01238638
v 0.00865881 0.00586404 0.01240988
v 0.00865881 0.00554257 0.01274642
v 0.00865881 0.00518233 0.01309094
v 0.01110099 0.00664150 0.01305192
v 0.01158503 0.00611711 0.01334811
v 0.01158503 0.00539665 0.01339556
v 0.01302613 0.00539665 0.01339556
v 0.00865881 0.00467618 0.01330821
v 0.01662340 -0.00179660 0.01339556
v 0.05045643 -0.00827851 0.01186848
v 0.05550031 -0.00036023 0.01148893
v 0.06341540 0.00035795 0.01037466
v 0.06341540 0.00107842 0.01036757
v 0.06341540 0.00179660 0.01034717
v 0.06269485 0.00323753 0.01038220
v 0.06269485 0.00395800 0.01034806
v 0.06197430 0.00467846 0.01038486
v 0.06197430 0.00539665 0.01033077
v 0.06197430 0.00610116 0.01019775
v 0.06126474 0.00684442 0.01021194
v 0.06102822 0.00731865 0.01013922
v 0.06150676 0.00708609 0.00999910
v 0.06125924 0.00756260 0.00975169
v 0.06101722 0.00802088 0.00950427
v 0.06050018 0.00824659 0.00970912
v 0.06109423 0.00808471 0.00900056
v 0.06064870 0.00844495 0.00900056
v 0.04823427 0.00874134 0.00886577
v 0.06073670 0.00838339 0.00886621
v 0.06109973 0.00808927 0.00886621
v 0.06145726 0.00776780 0.00886621
v 0.06182578 0.00740985 0.00886621
v 0.06218331 0.00703138 0.00886621
v 0.06224381 0.00696526 0.00886621
v 0.06249133 0.00667114 0.00886621
v 0.04685366 -0.01161636 0.00886577
v 0.04685366 -0.01161636 0.00900056
v 0.04613311 -0.01160724 0.00972020
v 0.02526455 -0.01154568 0.01014942
v 0.01518229 -0.01154112 0.01014720
v 0.01374669 -0.01098481 0.01104110
v 0.01322965 -0.01089818 0.01095330
v 0.01448924 -0.01138609 0.01039550
v 0.01518229 -0.01137925 0.01050680
v 0.01242659 -0.01029171 0.01115904
v 0.01206356 -0.00995428 0.01115904
v 0.01203606 -0.00995656 0.01044073
v 0.00865881 -0.00607608 0.01187957
v 0.00865881 0.00607608 0.01187957
v 0.00865881 0.00395572 0.01339556
v 0.01590285 -0.00323753 0.01339556
v 0.05045643 -0.00899670 0.01182902
v 0.06269485 -0.00395800 0.01035072
v 0.06269485 -0.00323753 0.01038265
v 0.06341540 -0.00179888 0.01034451
v 0.01446724 -0.00467618 0.01339556
v 0.01374669 -0.00539665 0.01338935
v 0.04973588 -0.00899670 0.01186183
v 0.06341540 -0.00107614 0.01036580
v 0.06341540 -0.00036023 0.01037466
v 0.06403695 0.00035795 0.01021681
v 0.06400945 0.00107842 0.01020928
v 0.06395444 0.00179660 0.01018888
v 0.06341540 0.00251935 0.01030860
v 0.06347041 0.00326261 0.01021637
v 0.06327789 0.00395800 0.01019021
v 0.06275535 0.00472862 0.01023145
v 0.06255184 0.00539665 0.01017824
v 0.06172678 0.00660502 0.01013744
v 0.06240333 0.00584808 0.01012060
v 0.06220531 0.00632915 0.00996807
v 0.06197430 0.00683986 0.00974370
v 0.06174328 0.00732549 0.00951934
v 0.06145726 0.00776552 0.00900056
v 0.04823427 -0.01146133 0.00886577
v 0.06285436 0.00619463 0.00886621
v 0.06310738 0.00583212 0.00886621
v 0.06337140 0.00539665 0.00886621
v 0.06368492 0.00484490 0.00886621
v 0.06385544 0.00448467 0.00886621
v 0.06408095 0.00395800 0.00886621
v 0.06433947 0.00323753 0.00886621
v 0.06444948 0.00286362 0.00886621
v 0.06456499 0.00242587 0.00886621
v 0.06467500 0.00192200 0.00886621
v 0.06469700 0.00179660 0.00886621
v 0.06477400 0.00121294 0.00886621
v 0.06479051 0.00107842 0.00886621
v 0.06483451 0.00049247 0.00886621
v 0.06484001 0.00035795 0.00886621
v 0.06485101 -0.00036023 0.00886621
v 0.06182028 0.00740529 0.00900056
v 0.06218331 0.00702682 0.00900056
v 0.06249133 0.00666658 0.00900056
v 0.04755772 -0.01154568 0.00886577
v 0.04749171 -0.01155252 0.00900056
v 0.04738720 -0.01154112 0.00958319
v 0.04691417 -0.01156620 0.00978184
v 0.04671615 -0.01153656 0.01012459
v 0.04613311 -0.01154340 0.01014587
v 0.03749746 -0.01154568 0.01014720
v 0.03462075 -0.01154568 0.01014853
v 0.02598510 -0.01154568 0.01014942
v 0.02526455 -0.01138381 0.01050901
v 0.01446724 -0.01102129 0.01105307
v 0.01374669 -0.01064510 0.01139981
v 0.01252010 -0.01018683 0.01159313
v 0.01183804 -0.00951424 0.01162417
v 0.00865881 -0.00588456 0.01238904
v 0.00865881 -0.00589824 0.01235489
v 0.00865881 -0.00395572 0.01339556
v 0.05039043 -0.00975820 0.01162772
v 0.05096247 -0.00954160 0.01159934
v 0.06052769 -0.00755805 0.01020484
v 0.06053869 -0.00683758 0.01035782
v 0.06125374 -0.00611939 0.01035427
v 0.06197430 -0.00539665 0.01033165
v 0.04901533 -0.00971944 0.01172349
v 0.04973588 -0.00971944 0.01168802
v 0.06275535 -0.00472862 0.01023278
v 0.06328339 -0.00395800 0.01019243
v 0.06347041 -0.00326489 0.01021681
v 0.06341540 -0.00251707 0.01030771
v 0.06395444 -0.00179888 0.01018666
v 0.06400395 -0.00107614 0.01020839
v 0.01302613 -0.00539665 0.01339556
v 0.01230558 -0.00611711 0.01336097
v 0.06403695 -0.00036023 0.01021637
v 0.06439998 -0.00036023 0.00999024
v 0.06439448 0.00035795 0.00998979
v 0.06436697 0.00107842 0.00995388
v 0.06388294 0.00251935 0.01015341
v 0.06382243 0.00303918 0.01011483
v 0.06314588 0.00452343 0.01013700
v 0.06303588 0.00500450 0.01006606
v 0.06290937 0.00539665 0.00991707
v 0.06265085 0.00606012 0.00968252
v 0.06242533 0.00659134 0.00948786
v 0.04823427 -0.01146133 0.00900056
v 0.06480700 -0.00094390 0.00886621
v 0.06479601 -0.00107614 0.00886621
v 0.06470250 -0.00179888 0.00886621
v 0.06457049 -0.00244639 0.00886621
v 0.06447698 -0.00280434 0.00886621
v 0.06434497 -0.00323753 0.00886621
v 0.06408095 -0.00395800 0.00886621
v 0.06389944 -0.00438435 0.00886621
v 0.06385544 -0.00448695 0.00886621
v 0.06367942 -0.00484718 0.00886621
v 0.06337140 -0.00539665 0.00886621
v 0.06310738 -0.00583440 0.00886621
v 0.06285436 -0.00619463 0.00886621
v 0.06256284 -0.00657994 0.00886621
v 0.06243633 -0.00673954 0.00886621
v 0.06218881 -0.00702910 0.00886621
v 0.06189729 -0.00734601 0.00886621
v 0.06183128 -0.00741441 0.00886621
v 0.06146276 -0.00777464 0.00886621
v 0.06109973 -0.00808699 0.00886621
v 0.06101722 -0.00815539 0.00886621
v 0.06065420 -0.00844951 0.00886621
v 0.06029117 -0.00872082 0.00886621
v 0.05981813 -0.00901949 0.00886621
v 0.05934510 -0.00929765 0.00886621
v 0.05905358 -0.00945041 0.00886621
v 0.05898757 -0.00948461 0.00886621
v 0.05887206 -0.00953932 0.00886621
v 0.05837703 -0.00976276 0.00886621
v 0.05827252 -0.00980608 0.00886621
v 0.05778298 -0.00999759 0.00886621
v 0.05742545 -0.01012299 0.00886621
v 0.05693592 -0.01025523 0.00886621
v 0.05621536 -0.01041255 0.00886621
v 0.05608335 -0.01043763 0.00886621
v 0.05550031 -0.01053566 0.00886621
v 0.05477976 -0.01063370 0.00886621
v 0.05464225 -0.01065194 0.00886621
v 0.05045643 -0.01118317 0.00886621
v 0.04960387 -0.01129033 0.00886621
v 0.06284886 0.00619007 0.00900056
v 0.06310188 0.00582756 0.00900056
v 0.06336590 0.00539665 0.00900056
v 0.06367942 0.00484034 0.00900056
v 0.06384993 0.00448011 0.00900056
v 0.06407545 0.00395800 0.00900056
v 0.06433397 0.00323753 0.00900056
v 0.06447148 0.00277698 0.00900056
v 0.06456499 0.00241675 0.00900056
v 0.06469150 0.00179660 0.00900056
v 0.06478501 0.00107842 0.00900056
v 0.06484001 0.00035795 0.00900056
v 0.06484001 -0.00036023 0.00900056
v 0.06479051 -0.00107614 0.00900056
v 0.06307988 0.00578880 0.00939741
v 0.04718919 -0.01151604 0.01006340
v 0.04901533 -0.01136329 0.00900056
v 0.05045643 -0.01118089 0.00900056
v 0.04973588 -0.01123561 0.00972020
v 0.04613311 -0.01138153 0.01050547
v 0.04691417 -0.01139521 0.01039417
v 0.04037418 -0.01138381 0.01050680
v 0.02958787 -0.01138381 0.01050857
v 0.02598510 -0.01138381 0.01050901
v 0.03390019 -0.01102357 0.01105484
v 0.02526455 -0.01102357 0.01105307
v 0.01446724 -0.01064510 0.01141134
v 0.01374669 -0.01028487 0.01163038
v 0.01302613 -0.01026435 0.01163038
v 0.01158503 -0.00673498 0.01312819
v 0.01110099 -0.00664150 0.01305148
v 0.00865881 -0.00518917 0.01309715
v 0.00865881 -0.00521197 0.01307542
v 0.00865881 -0.00554941 0.01274908
v 0.00865881 -0.00400360 0.01339068
v 0.01158503 -0.00611711 0.01334634
v 0.01158503 -0.00539665 0.01339556
v 0.05010441 -0.01007967 0.01151997
v 0.05058294 -0.01002267 0.01148849
v 0.05909758 -0.00873222 0.01013390
v 0.05947161 -0.00864558 0.01008557
v 0.05975213 -0.00825115 0.01016715
v 0.06028017 -0.00799808 0.01012592
v 0.06102822 -0.00731865 0.01014144
v 0.06126474 -0.00684214 0.01021282
v 0.06197430 -0.00609887 0.01019863
v 0.06254634 -0.00539665 0.01017735
v 0.04685366 -0.01026891 0.01161974
v 0.04757422 -0.01023471 0.01160599
v 0.04541806 -0.00971944 0.01180685
v 0.04830027 -0.01018683 0.01158515
v 0.06315138 -0.00452343 0.01013922
v 0.06373993 -0.00352025 0.01005586
v 0.06382243 -0.00304146 0.01011483
v 0.06388294 -0.00251707 0.01015208
v 0.06436697 -0.00107614 0.00995255
v 0.01230558 -0.00671218 0.01314326
v 0.04613311 -0.01028031 0.01162461
v 0.06463099 -0.00107614 0.00959250
v 0.06465300 -0.00036023 0.00963019
v 0.06465300 0.00035795 0.00962975
v 0.06463099 0.00107842 0.00959428
v 0.06431747 0.00179660 0.00987672
v 0.06373993 0.00351797 0.01005497
v 0.06427897 0.00253303 0.00968872
v 0.06364092 0.00395800 0.00993614
v 0.06381693 0.00440715 0.00943377
v 0.06319539 0.00539665 0.00955748
v 0.06469700 -0.00179888 0.00900056
v 0.06456499 -0.00243727 0.00900056
v 0.06447698 -0.00279750 0.00900056
v 0.06433947 -0.00323753 0.00900056
v 0.06407545 -0.00395800 0.00900056
v 0.06384993 -0.00448239 0.00900056
v 0.06367942 -0.00484262 0.00900056
v 0.06336590 -0.00539665 0.00900056
v 0.06310188 -0.00582984 0.00900056
v 0.06284886 -0.00619007 0.00900056
v 0.06249133 -0.00666658 0.00900056
v 0.06218331 -0.00702682 0.00900056
v 0.06182578 -0.00741213 0.00900056
v 0.06145726 -0.00777236 0.00900056
v 0.06109973 -0.00808699 0.00900056
v 0.06064870 -0.00844495 0.00900056
v 0.06029117 -0.00871854 0.00900056
v 0.05981813 -0.00901494 0.00900056
v 0.05934510 -0.00929537 0.00900056
v 0.05898207 -0.00948233 0.00900056
v 0.05837703 -0.00976048 0.00900056
v 0.05777748 -0.00999531 0.00900056
v 0.05741995 -0.01011843 0.00900056
v 0.05693592 -0.01025067 0.00900056
v 0.05621536 -0.01041027 0.00900056
v 0.05550031 -0.01053110 0.00900056
v 0.05477976 -0.01062914 0.00900056
v 0.06453199 0.00230503 0.00942800
v 0.06458149 0.00179660 0.00951668
v 0.06458149 -0.00179888 0.00951624
v 0.04757422 -0.01130629 0.01044029
v 0.05045643 -0.01113757 0.00972020
v 0.04973588 -0.01104409 0.01044029
v 0.04901533 -0.01113301 0.01044029
v 0.04830027 -0.01121965 0.01044029
v 0.04685366 -0.01100761 0.01103932
v 0.04613311 -0.01102129 0.01105307
v 0.04108923 -0.01102357 0.01105440
v 0.04757422 -0.01097114 0.01100385
v 0.03893307 -0.01102357 0.01105484
v 0.03390019 -0.01064282 0.01141400
v 0.01518229 -0.01028487 0.01163038
v 0.00865881 -0.00467618 0.01331486
v 0.00865881 -0.00471038 0.01330067
v 0.05019241 -0.01081382 0.01082161
v 0.05039043 -0.01042395 0.01115505
v 0.04823427 -0.01022331 0.01156608
v 0.04685366 -0.01062914 0.01139803
v 0.04757422 -0.01059494 0.01136301
v 0.04830027 -0.01054706 0.01131867
v 0.04901533 -0.01050146 0.01127122
v 0.04973588 -0.01045815 0.01121890
v 0.04973588 -0.01084346 0.01085930
v 0.05067645 -0.01077050 0.01074756
v 0.05803600 -0.00936605 0.01008778
v 0.05975213 -0.00878010 0.00969227
v 0.06023616 -0.00868206 0.00943377
v 0.05995014 -0.00847687 0.00991353
v 0.06075870 -0.00780200 0.00998225
v 0.05852004 -0.00923381 0.00996097
v 0.05888306 -0.00942989 0.00948077
v 0.06150676 -0.00708609 0.00999866
v 0.06172678 -0.00660730 0.01013744
v 0.06240333 -0.00584580 0.01011971
v 0.06303588 -0.00500222 0.01006473
v 0.04613311 -0.01064054 0.01141222
v 0.04823427 -0.01019139 0.01158692
v 0.06364092 -0.00395800 0.00993703
v 0.06391044 -0.00395800 0.00957699
v 0.06401495 -0.00326489 0.00977740
v 0.06427897 -0.00253531 0.00969005
v 0.06431197 -0.00179888 0.00987628
v 0.03534130 -0.01064282 0.01141400
v 0.06401495 0.00326261 0.00977696
v 0.06391044 0.00395800 0.00957610
v 0.06453199 -0.00230275 0.00942978
v 0.06381693 -0.00440715 0.00943377
v 0.06307988 -0.00579108 0.00940007
v 0.06242533 -0.00658906 0.00948875
v 0.06174328 -0.00732549 0.00951846
v 0.06101722 -0.00801860 0.00950205
v 0.05734845 -0.01009335 0.00939164
v 0.05693592 -0.01015035 0.00949097
v 0.05044543 -0.01092782 0.01048064
v 0.04823427 -0.01093238 0.01096306
v 0.04901533 -0.01088450 0.01091162
v 0.05621536 -0.01023015 0.00962133
v 0.05621536 -0.00997252 0.00998137
v 0.05693592 -0.00988360 0.00985101
v 0.05831652 -0.00951196 0.00972065
v 0.06050018 -0.00824887 0.00970823
v 0.06126474 -0.00756260 0.00975035
v 0.06197430 -0.00683758 0.00974326
v 0.06220531 -0.00632915 0.00996851
v 0.06290937 -0.00539665 0.00991841
v 0.06319539 -0.00539665 0.00955836
v 0.06265085 -0.00605784 0.00968384
f 1 2 3
f 1 3 4
f 1 4 5
f 1 5 6
f 1 6 7
f 1 7 8
f 1 8 19
f 1 19 9
f 1 9 10
f 1 10 2
f 2 10 23
f 2 23 11
f 2 11 12
f 2 12 13
f 2 13 14
f 2 14 3
f 3 14 15
f 3 15 16
f 3 16 4
f 4 16 17
f 4 17 5
f 5 18 31
f 5 31 48
f 5 48 85
f 5 85 151
f 5 151 206
f 5 206 259
f 5 259 306
f 5 306 326
f 5 326 267
f 5 267 209
f 5 209 156
f 5 156 92
f 5 92 53
f 5 53 32
f 5 32 19
f 5 19 8
f 5 8 7
f 5 7 6
f 5 17 18
f 9 19 33
f 9 33 20
f 9 20 21
f 9 21 10
f 10 22 23
f 10 21 22
f 11 23 39
f 11 39 24
f 11 24 25
f 11 25 12
f 12 25 13
f 13 25 14
f 14 25 26
f 14 26 15
f 15 26 27
f 15 27 28
f 15 28 29
f 15 29 16
f 16 29 17
f 17 29 30
f 17 30 31
f 17 31 18
f 19 32 33
f 20 33 34
f 20 34 35
f 20 35 36
f 20 36 21
f 21 36 37
f 21 37 22
f 22 38 39
f 22 39 23
f 22 37 38
f 24 39 40
f 24 40 25
f 25 40 26
f 26 41 42
f 26 42 27
f 26 40 41
f 27 42 28
f 28 43 44
f 28 44 45
f 28 45 46
f 28 46 29
f 28 42 43
f 29 46 30
f 30 46 47
f 30 47 31
f 31 47 49
f 31 49 50
f 31 50 51
f 31 51 52
f 31 52 48
f 32 53 109
f 32 109 54
f 32 54 55
f 32 55 56
f 32 56 57
f 32 57 58
f 32 58 59
f 32 59 60
f 32 60 61
f 32 61 62
f 32 62 63
f 32 63 64
f 32 64 65
f 32 65 66
f 32 66 67
f 32 67 68
f 32 68 34
f 32 34 33
f 34 68 35
f 35 68 69
f 35 69 70
f 35 70 36
f 36 70 71
f 36 71 37
f 37 71 72
f 37 72 38
f 38 73 39
f 38 72 74
f 38 74 73
f 39 73 40
f 40 75 76
f 40 76 41
f 40 73 77
f 40 77 75
f 41 76 42
f 42 76 78
f 42 78 79
f 42 79 43
f 43 79 44
f 44 79 80
f 44 80 81
f 44 81 82
f 44 82 45
f 45 82 81
f 45 81 83
f 45 83 46
f 46 83 84
f 46 84 50
f 46 50 49
f 46 49 47
f 48 52 86
f 48 86 87
f 48 87 88
f 48 88 89
f 48 89 90
f 48 90 85
f 50 84 51
f 51 84 91
f 51 91 52
f 52 91 150
f 52 150 86
f 53 92 93
f 53 93 94
f 53 94 95
f 53 95 96
f 53 96 97
f 53 97 98
f 53 98 99
f 53 99 100
f 53 100 101
f 53 101 102
f 53 102 103
f 53 103 104
f 53 104 105
f 53 105 106
f 53 106 107
f 53 107 108
f 53 108 109
f 54 109 175
f 54 175 110
f 54 110 111
f 54 111 112
f 54 112 55
f 55 112 113
f 55 113 56
f 56 113 114
f 56 114 57
f 57 114 115
f 57 115 58
f 58 115 116
f 58 116 117
f 58 117 118
f 58 118 119
f 58 119 59
f 59 119 120
f 59 120 121
f 59 121 60
f 60 121 122
f 60 122 123
f 60 123 61
f 61 123 62
f 62 123 124
f 62 124 63
f 63 124 125
f 63 125 126
f 63 126 64
f 64 126 127
f 64 127 65
f 65 127 66
f 66 69 67
f 66 127 69
f 67 69 68
f 69 127 128
f 69 128 70
f 70 128 71
f 71 128 129
f 71 129 130
f 71 130 72
f 72 130 131
f 72 131 74
f 73 74 132
f 73 132 77
f 74 131 133
f 74 133 132
f 75 134 76
f 75 77 135
f 75 135 134
f 76 136 78
f 76 134 136
f 77 132 135
f 78 136 137
f 78 137 138
f 78 138 139
f 78 139 140
f 78 140 141
f 78 141 142
f 78 142 143
f 78 143 80
f 78 80 79
f 80 143 81
f 81 143 144
f 81 144 145
f 81 145 146
f 81 146 147
f 81 147 83
f 83 91 84
f 83 147 148
f 83 148 149
f 83 149 150
f 83 150 91
f 85 90 151
f 86 150 149
f 86 149 87
f 87 149 88
f 88 149 152
f 88 152 89
f 89 152 90
f 90 152 153
f 90 153 154
f 90 154 155
f 90 155 151
f 92 156 210
f 92 210 157
f 92 157 158
f 92 158 93
f 93 159 94
f 93 158 159
f 94 159 160
f 94 160 95
f 95 160 96
f 96 160 161
f 96 161 97
f 97 162 98
f 97 161 162
f 98 162 163
f 98 163 164
f 98 164 99
f 99 164 165
f 99 165 100
f 100 165 101
f 101 165 166
f 101 166 102
f 102 166 167
f 102 167 103
f 103 167 168
f 103 168 169
f 103 169 104
f 104 169 170
f 104 170 171
f 104 171 105
f 105 171 172
f 105 172 106
f 106 172 173
f 106 173 107
f 107 173 108
f 108 173 109
f 109 173 174
f 109 174 175
f 110 175 223
f 110 223 176
f 110 176 111
f 111 176 112
f 112 176 113
f 113 176 115
f 113 115 114
f 115 176 223
f 115 223 171
f 115 171 170
f 115 170 169
f 115 169 168
f 115 168 222
f 115 222 279
f 115 279 341
f 115 341 340
f 115 340 444
f 115 444 443
f 115 443 442
f 115 442 522
f 115 522 521
f 115 521 445
f 115 445 342
f 115 342 281
f 115 281 239
f 115 239 234
f 115 234 233
f 115 233 232
f 115 232 231
f 115 231 280
f 115 280 225
f 115 225 178
f 115 178 177
f 115 177 121
f 115 121 120
f 115 120 119
f 115 119 118
f 115 118 117
f 115 117 116
f 121 177 122
f 122 177 178
f 122 178 179
f 122 179 180
f 122 180 123
f 123 180 181
f 123 181 124
f 124 181 125
f 125 182 129
f 125 129 126
f 125 181 183
f 125 183 182
f 126 129 128
f 126 128 127
f 129 182 131
f 129 131 130
f 131 182 184
f 131 184 133
f 132 133 135
f 133 184 185
f 133 185 135
f 134 135 186
f 134 186 187
f 134 187 136
f 135 185 188
f 135 188 186
f 136 187 189
f 136 189 137
f 137 189 187
f 137 187 190
f 137 190 138
f 138 190 191
f 138 191 192
f 138 192 193
f 138 193 194
f 138 194 195
f 138 195 196
f 138 196 197
f 138 197 139
f 139 197 198
f 139 198 140
f 140 198 199
f 140 199 200
f 140 200 141
f 141 200 144
f 141 144 143
f 141 143 142
f 144 200 145
f 145 200 201
f 145 201 202
f 145 202 203
f 145 203 204
f 145 204 205
f 145 205 148
f 145 148 146
f 146 148 147
f 148 205 204
f 148 204 153
f 148 153 152
f 148 152 149
f 151 155 207
f 151 207 206
f 153 204 154
f 154 204 208
f 154 208 155
f 155 208 207
f 156 209 210
f 157 210 269
f 157 269 211
f 157 211 212
f 157 212 159
f 157 159 158
f 159 212 213
f 159 213 160
f 160 213 214
f 160 214 161
f 161 214 163
f 161 163 162
f 163 215 164
f 163 214 216
f 163 216 215
f 164 215 217
f 164 217 165
f 165 217 218
f 165 218 166
f 166 218 219
f 166 219 220
f 166 220 167
f 167 220 221
f 167 221 222
f 167 222 168
f 171 223 175
f 171 175 174
f 171 174 173
f 171 173 224
f 171 224 172
f 172 224 173
f 178 225 226
f 178 226 227
f 178 227 179
f 179 227 228
f 179 228 180
f 180 228 181
f 181 228 183
f 182 183 229
f 182 229 184
f 183 228 229
f 184 229 226
f 184 226 230
f 184 230 231
f 184 231 232
f 184 232 233
f 184 233 234
f 184 234 235
f 184 235 188
f 184 188 185
f 186 188 187
f 187 188 236
f 187 236 237
f 187 237 238
f 187 238 190
f 188 235 234
f 188 234 239
f 188 239 236
f 190 238 191
f 191 238 237
f 191 237 281
f 191 281 342
f 191 342 447
f 191 447 357
f 191 357 287
f 191 287 282
f 191 282 240
f 191 240 193
f 191 193 192
f 193 240 241
f 193 241 194
f 194 241 195
f 195 241 242
f 195 242 243
f 195 243 244
f 195 244 245
f 195 245 246
f 195 246 247
f 195 247 248
f 195 248 249
f 195 249 197
f 195 197 196
f 197 249 250
f 197 250 251
f 197 251 198
f 198 251 199
f 199 201 200
f 199 251 252
f 199 252 201
f 201 252 202
f 202 252 253
f 202 253 254
f 202 254 255
f 202 255 256
f 202 256 203
f 203 256 204
f 204 256 255
f 204 255 257
f 204 257 258
f 204 258 208
f 206 207 260
f 206 260 261
f 206 261 262
f 206 262 263
f 206 263 264
f 206 264 265
f 206 265 266
f 206 266 259
f 207 208 258
f 207 258 260
f 209 267 210
f 210 267 268
f 210 268 269
f 211 269 334
f 211 334 270
f 211 270 212
f 212 270 271
f 212 271 213
f 213 271 216
f 213 216 214
f 215 272 273
f 215 273 217
f 215 216 274
f 215 274 272
f 216 271 275
f 216 275 274
f 217 273 218
f 218 273 276
f 218 276 219
f 219 276 277
f 219 277 278
f 219 278 221
f 219 221 220
f 221 278 222
f 222 278 277
f 222 277 279
f 225 280 226
f 226 229 228
f 226 228 227
f 226 280 231
f 226 231 230
f 236 239 281
f 236 281 237
f 240 282 241
f 241 283 284
f 241 284 285
f 241 285 286
f 241 286 242
f 241 282 287
f 241 287 288
f 241 288 289
f 241 289 283
f 242 286 290
f 242 290 291
f 242 291 243
f 243 291 292
f 243 292 244
f 244 292 293
f 244 293 245
f 245 293 294
f 245 294 295
f 245 295 247
f 245 247 246
f 247 295 296
f 247 296 297
f 247 297 298
f 247 298 249
f 247 249 248
f 249 298 299
f 249 299 250
f 250 300 251
f 250 299 301
f 250 301 300
f 251 300 252
f 252 300 253
f 253 300 302
f 253 302 303
f 253 303 304
f 253 304 254
f 254 304 255
f 255 304 305
f 255 305 257
f 257 305 261
f 257 261 260
f 257 260 258
f 259 266 307
f 259 307 308
f 259 308 309
f 259 309 310
f 259 310 311
f 259 311 312
f 259 312 313
f 259 313 314
f 259 314 315
f 259 315 316
f 259 316 317
f 259 317 318
f 259 318 319
f 259 319 320
f 259 320 321
f 259 321 322
f 259 322 306
f 261 305 262
f 262 305 263
f 263 323 324
f 263 324 264
f 263 305 323
f 264 324 265
f 265 325 266
f 265 324 325
f 266 325 307
f 267 326 327
f 267 327 268
f 268 327 328
f 268 328 329
f 268 329 269
f 269 329 330
f 269 330 331
f 269 331 332
f 269 332 333
f 269 333 334
f 270 334 434
f 270 434 335
f 270 335 275
f 270 275 271
f 272 274 275
f 272 275 336
f 272 336 337
f 272 337 338
f 272 338 273
f 273 338 276
f 275 335 336
f 276 338 277
f 277 339 340
f 277 340 341
f 277 341 279
f 277 338 339
f 283 343 344
f 283 344 345
f 283 345 346
f 283 346 347
f 283 347 348
f 283 348 284
f 283 289 349
f 283 349 350
f 283 350 343
f 284 348 351
f 284 351 352
f 284 352 353
f 284 353 354
f 284 354 286
f 284 286 285
f 286 354 355
f 286 355 356
f 286 356 290
f 287 357 288
f 288 357 358
f 288 358 289
f 289 358 349
f 290 356 359
f 290 359 291
f 291 359 292
f 292 359 360
f 292 360 361
f 292 361 293
f 293 361 362
f 293 362 294
f 294 363 295
f 294 362 363
f 295 363 296
f 296 363 364
f 296 364 297
f 297 365 298
f 297 364 365
f 298 365 299
f 299 365 366
f 299 366 301
f 300 301 302
f 301 366 367
f 301 367 302
f 302 367 368
f 302 368 369
f 302 369 303
f 303 369 304
f 304 323 305
f 304 369 324
f 304 324 323
f 306 370 326
f 306 322 371
f 306 371 372
f 306 372 373
f 306 373 374
f 306 374 375
f 306 375 376
f 306 376 377
f 306 377 378
f 306 378 379
f 306 379 380
f 306 380 381
f 306 381 382
f 306 382 383
f 306 383 384
f 306 384 385
f 306 385 386
f 306 386 387
f 306 387 388
f 306 388 389
f 306 389 390
f 306 390 391
f 306 391 392
f 306 392 393
f 306 393 394
f 306 394 395
f 306 395 396
f 306 396 397
f 306 397 398
f 306 398 399
f 306 399 400
f 306 400 401
f 306 401 402
f 306 402 403
f 306 403 404
f 306 404 405
f 306 405 406
f 306 406 407
f 306 407 408
f 306 408 409
f 306 409 410
f 306 410 370
f 307 411 412
f 307 412 308
f 307 325 411
f 308 412 413
f 308 413 309
f 309 413 310
f 310 413 414
f 310 414 415
f 310 415 311
f 311 415 416
f 311 416 312
f 312 416 417
f 312 417 313
f 313 417 418
f 313 418 314
f 314 418 315
f 315 418 419
f 315 419 316
f 316 420 317
f 316 419 420
f 317 420 318
f 318 421 319
f 318 420 421
f 319 421 422
f 319 422 320
f 320 422 321
f 321 422 322
f 322 422 423
f 322 423 424
f 322 424 371
f 324 369 325
f 325 369 425
f 325 425 411
f 326 370 327
f 327 370 328
f 328 426 329
f 328 370 427
f 328 427 428
f 328 428 429
f 328 429 426
f 329 426 330
f 330 430 331
f 330 426 431
f 330 431 430
f 331 430 432
f 331 432 332
f 332 432 333
f 333 432 433
f 333 433 434
f 333 434 334
f 335 434 518
f 335 518 435
f 335 435 436
f 335 436 336
f 336 437 337
f 336 436 435
f 336 435 437
f 337 438 439
f 337 439 338
f 337 437 438
f 338 440 441
f 338 441 442
f 338 442 443
f 338 443 444
f 338 444 340
f 338 340 339
f 338 439 440
f 342 445 446
f 342 446 447
f 343 350 448
f 343 448 449
f 343 449 344
f 344 449 450
f 344 450 451
f 344 451 452
f 344 452 345
f 345 452 453
f 345 453 454
f 345 454 455
f 345 455 346
f 346 455 347
f 347 455 456
f 347 456 348
f 348 456 457
f 348 457 351
f 349 458 459
f 349 459 350
f 349 358 460
f 349 460 458
f 350 459 461
f 350 461 448
f 351 457 462
f 351 462 352
f 352 462 463
f 352 463 464
f 352 464 353
f 353 464 465
f 353 465 354
f 354 465 355
f 355 465 466
f 355 466 360
f 355 360 356
f 356 360 359
f 357 447 358
f 358 447 446
f 358 446 440
f 358 440 467
f 358 467 468
f 358 468 458
f 358 458 460
f 360 466 469
f 360 469 470
f 360 470 471
f 360 471 361
f 361 471 472
f 361 472 362
f 362 472 473
f 362 473 363
f 363 473 364
f 364 474 365
f 364 473 475
f 364 475 474
f 365 474 366
f 366 474 476
f 366 476 477
f 366 477 478
f 366 478 425
f 366 425 367
f 367 425 368
f 368 425 369
f 370 410 427
f 371 424 372
f 372 424 479
f 372 479 373
f 373 479 374
f 374 479 480
f 374 480 481
f 374 481 375
f 375 481 376
f 376 481 482
f 376 482 483
f 376 483 377
f 377 483 378
f 378 483 379
f 379 483 484
f 379 484 485
f 379 485 380
f 380 485 381
f 381 485 486
f 381 486 382
f 382 486 487
f 382 487 488
f 382 488 383
f 383 488 489
f 383 489 384
f 384 489 385
f 385 489 386
f 386 489 490
f 386 490 387
f 387 490 491
f 387 491 388
f 388 491 492
f 388 492 389
f 389 492 493
f 389 493 390
f 390 493 391
f 391 493 392
f 392 493 494
f 392 494 495
f 392 495 393
f 393 495 394
f 394 495 496
f 394 496 497
f 394 497 395
f 395 497 396
f 396 497 397
f 397 497 498
f 397 498 398
f 398 498 499
f 398 499 399
f 399 499 400
f 400 499 500
f 400 500 401
f 401 500 402
f 402 500 501
f 402 501 502
f 402 502 403
f 403 502 503
f 403 503 404
f 404 503 405
f 405 503 504
f 405 504 406
f 406 504 505
f 406 505 407
f 407 505 408
f 408 505 428
f 408 428 409
f 409 428 427
f 409 427 410
f 411 425 412
f 412 425 413
f 413 425 414
f 414 477 415
f 414 425 477
f 415 477 416
f 416 477 417
f 417 506 418
f 417 477 506
f 418 506 419
f 419 506 420
f 420 506 507
f 420 507 421
f 421 507 472
f 421 472 422
f 422 472 471
f 422 471 470
f 422 470 423
f 423 470 469
f 423 469 424
f 424 469 508
f 424 508 479
f 425 478 477
f 426 509 431
f 426 429 510
f 426 510 511
f 426 511 512
f 426 512 513
f 426 513 509
f 428 505 429
f 429 505 504
f 429 504 510
f 430 431 514
f 430 514 515
f 430 515 516
f 430 516 432
f 431 509 517
f 431 517 514
f 432 516 518
f 432 518 433
f 433 518 434
f 435 519 437
f 435 518 551
f 435 551 519
f 437 519 438
f 438 519 551
f 438 551 520
f 438 520 467
f 438 467 440
f 438 440 439
f 440 446 521
f 440 521 522
f 440 522 442
f 440 442 441
f 445 521 446
f 448 523 524
f 448 524 449
f 448 461 525
f 448 525 526
f 448 526 527
f 448 527 528
f 448 528 529
f 448 529 530
f 448 530 531
f 448 531 523
f 449 524 532
f 449 532 533
f 449 533 450
f 450 533 451
f 451 534 535
f 451 535 536
f 451 536 537
f 451 537 453
f 451 453 452
f 451 533 538
f 451 538 539
f 451 539 534
f 453 537 454
f 454 537 540
f 454 540 541
f 454 541 455
f 455 541 456
f 456 541 542
f 456 542 457
f 457 542 543
f 457 543 462
f 458 526 459
f 458 468 544
f 458 544 526
f 459 526 525
f 459 525 545
f 459 545 461
f 461 545 525
f 462 543 463
f 463 546 547
f 463 547 548
f 463 548 549
f 463 549 464
f 463 543 546
f 464 549 550
f 464 550 465
f 465 550 466
f 466 550 508
f 466 508 469
f 467 520 468
f 468 551 544
f 468 520 551
f 472 507 473
f 473 507 506
f 473 506 475
f 474 475 552
f 474 552 553
f 474 553 476
f 475 506 552
f 476 553 477
f 477 553 506
f 479 508 554
f 479 554 480
f 480 554 481
f 481 554 482
f 482 554 555
f 482 555 483
f 483 555 484
f 484 555 485
f 485 555 556
f 485 556 486
f 486 556 487
f 487 556 488
f 488 556 489
f 489 557 490
f 489 556 557
f 490 558 491
f 490 557 558
f 491 558 492
f 492 559 493
f 492 558 559
f 493 559 535
f 493 535 494
f 494 535 495
f 495 535 496
f 496 535 497
f 497 535 539
f 497 539 498
f 498 539 499
f 499 539 560
f 499 560 500
f 500 560 501
f 501 560 502
f 502 560 503
f 503 560 561
f 503 561 504
f 504 562 510
f 504 561 562
f 506 553 552
f 508 550 554
f 509 563 517
f 509 513 523
f 509 523 531
f 509 531 563
f 510 562 511
f 511 562 523
f 511 523 512
f 512 523 513
f 514 517 527
f 514 527 526
f 514 526 515
f 515 526 544
f 515 544 516
f 516 551 518
f 516 544 551
f 517 563 527
f 523 562 532
f 523 532 524
f 527 563 528
f 528 563 564
f 528 564 531
f 528 531 529
f 529 531 530
f 531 564 563
f 532 562 565
f 532 565 561
f 532 561 566
f 532 566 533
f 533 567 561
f 533 561 560
f 533 560 568
f 533 568 539
f 533 539 538
f 533 566 567
f 534 539 535
f 535 559 569
f 535 569 536
f 536 569 537
f 537 559 570
f 537 570 540
f 537 569 559
f 539 568 560
f 540 558 571
f 540 571 572
f 540 572 541
f 540 570 558
f 541 572 542
f 542 572 573
f 542 573 543
f 543 573 556
f 543 556 574
f 543 574 555
f 543 555 546
f 546 555 547
f 547 555 554
f 547 554 548
f 548 554 549
f 549 554 550
f 555 574 556
f 556 573 575
f 556 575 557
f 557 575 572
f 557 572 571
f 557 571 558
f 558 570 559
f 561 567 566
f 561 565 562
f 572 575 573

