# https://github.com/mikedh/trimesh
v 0.01029359 -0.00429918 0.00330227
v 0.00928004 -0.00429960 0.00554128
v 0.00648787 -0.00429960 0.00870402
v 0.01086862 -0.00005380 0.00330227
v 0.01196089 -0.00429918 0.00330227
v 0.01109065 -0.00429960 0.00554128
v 0.00646880 -0.00429960 0.00874289
v 0.00775972 -0.00064199 0.00870002
v 0.00775911 -0.00064199 0.00870173
v 0.01022778 -0.00005380 0.00554071
v 0.01269953 -0.00005380 0.00330227
v 0.01217922 -0.00360457 0.00330227
v 0.01218353 -0.00358171 0.00331542
v 0.01194183 -0.00429918 0.00337487
v 0.01106912 -0.00429960 0.00558530
v 0.01191415 -0.00429918 0.00345832
v 0.01165523 -0.00429918 0.00422771
v 0.01155314 -0.00429918 0.00451409
v 0.01153653 -0.00429918 0.00455696
v 0.01145904 -0.00429918 0.00474674
v 0.01140307 -0.00429918 0.00486907
v 0.01115461 -0.00429918 0.00540524
v 0.01110541 -0.00425928 0.00554700
v 0.00641776 -0.00429960 0.00890809
v 0.00770929 -0.00064199 0.00889894
v 0.00775726 -0.00064199 0.00907900
v 0.00775972 -0.00064199 0.00908014
v 0.00793685 -0.00064199 0.00913616
v 0.00819515 -0.00064199 0.00914188
v 0.01188832 -0.00005380 0.00554071
v 0.01269953 -0.00005380 0.00330456
v 0.01269953 -0.00038718 0.00330227
v 0.01219029 -0.00356882 0.00330227
v 0.01226840 -0.00330279 0.00330227
v 0.01220997 -0.00341003 0.00340745
v 0.01195720 -0.00420066 0.00342403
v 0.01190923 -0.00427466 0.00349891
v 0.01096395 -0.00429960 0.00579622
v 0.01164908 -0.00427216 0.00427402
v 0.01156974 -0.00425595 0.00451409
v 0.01146765 -0.00424930 0.00477075
v 0.01118044 -0.00417572 0.00546126
v 0.01114046 -0.00406723 0.00563331
v 0.01097256 -0.00425928 0.00581280
v 0.00644359 -0.00429960 0.00902470
v 0.00646265 -0.00429960 0.00906356
v 0.00660349 -0.00429960 0.00911044
v 0.00664716 -0.00429960 0.00911958
v 0.00686119 -0.00429960 0.00914188
v 0.00793685 -0.00116118 0.00914188
v 0.00897192 -0.00064199 0.00914188
v 0.01113862 -0.00064199 0.00692687
v 0.01121303 -0.00064199 0.00679540
v 0.01141291 -0.00064199 0.00643872
v 0.01161402 -0.00064199 0.00607974
v 0.01168721 -0.00064199 0.00594884
v 0.01175855 -0.00064199 0.00580422
v 0.01188832 -0.00038718 0.00554071
v 0.01190308 -0.00005380 0.00550699
v 0.00922653 -0.00064199 0.00914073
v 0.00922899 -0.00064199 0.00914016
v 0.00943318 -0.00064199 0.00908414
v 0.00956172 -0.00064199 0.00897211
v 0.00967734 -0.00064199 0.00884121
v 0.00991843 -0.00064199 0.00856397
v 0.01015951 -0.00064199 0.00828617
v 0.01033541 -0.00064199 0.00807296
v 0.01039137 -0.00064199 0.00800322
v 0.01092152 -0.00064199 0.00724984
v 0.01102853 -0.00064199 0.00709378
v 0.01269830 -0.00005380 0.00331028
v 0.01269830 -0.00038718 0.00331028
v 0.01269645 -0.00052186 0.00330227
v 0.01228931 -0.00322505 0.00330227
v 0.01223642 -0.00322838 0.00348919
v 0.01218168 -0.00331650 0.00357951
v 0.01195105 -0.00314981 0.00443407
v 0.01192461 -0.00332149 0.00435576
v 0.01207774 -0.00348236 0.00374070
v 0.01208205 -0.00373967 0.00348290
v 0.01192891 -0.00411005 0.00359608
v 0.01183112 -0.00399781 0.00399907
v 0.01167184 -0.00411212 0.00437233
v 0.01093320 -0.00429960 0.00585453
v 0.01164785 -0.00401485 0.00452667
v 0.01155314 -0.00399781 0.00477246
v 0.01143013 -0.00415868 0.00492794
v 0.01139139 -0.00404146 0.00510000
v 0.01120873 -0.00398742 0.00554128
v 0.01116814 -0.00389514 0.00569219
v 0.01108819 -0.00398783 0.00578879
v 0.01092275 -0.00417572 0.00596771
v 0.01089692 -0.00429960 0.00592198
v 0.00793685 -0.00429960 0.00914188
v 0.00896884 -0.00193519 0.00914188
v 0.00922653 -0.00064532 0.00914073
v 0.01113862 -0.00064532 0.00692687
v 0.01119950 -0.00090346 0.00677654
v 0.01167983 -0.00080660 0.00593970
v 0.01161402 -0.00064532 0.00607974
v 0.01172780 -0.00089681 0.00582366
v 0.01185572 -0.00090346 0.00554643
v 0.01187971 -0.00064199 0.00554128
v 0.01188463 -0.00050315 0.00554071
v 0.01193691 -0.00055262 0.00542296
v 0.01223396 -0.00038718 0.00473988
v 0.01219460 -0.00005380 0.00483134
v 0.00922653 -0.00090346 0.00913673
v 0.00922653 -0.00116118 0.00912987
v 0.00942211 -0.00090346 0.00908014
v 0.00940919 -0.00116118 0.00907328
v 0.00955065 -0.00090346 0.00895667
v 0.00953835 -0.00116118 0.00894181
v 0.00980465 -0.00064532 0.00869487
v 0.01004573 -0.00064532 0.00841707
v 0.01013553 -0.00109717 0.00826159
v 0.01030650 -0.00066610 0.00810554
v 0.01011892 -0.00141891 0.00824330
v 0.01022347 -0.00141891 0.00811411
v 0.01038522 -0.00076545 0.00799522
v 0.01061093 -0.00064532 0.00769112
v 0.01092152 -0.00064532 0.00724984
v 0.01102853 -0.00064532 0.00709378
v 0.01264786 -0.00005380 0.00348290
v 0.01264786 -0.00038718 0.00348290
v 0.01264110 -0.00064490 0.00348290
v 0.01269276 -0.00064490 0.00330227
v 0.01230284 -0.00296608 0.00348290
v 0.01235204 -0.00296608 0.00330227
v 0.01220628 -0.00314483 0.00365610
v 0.01192092 -0.00303259 0.00460612
v 0.01189632 -0.00323129 0.00451809
v 0.01169890 -0.00394045 0.00444893
v 0.01217861 -0.00302927 0.00382816
v 0.01205314 -0.00296608 0.00425687
v 0.01166815 -0.00384276 0.00462098
v 0.01169459 -0.00367108 0.00468501
v 0.01163124 -0.00375048 0.00477132
v 0.01165646 -0.00354679 0.00485706
v 0.01144920 -0.00397204 0.00502054
v 0.01128868 -0.00373427 0.00554071
v 0.01142152 -0.00310450 0.00568133
v 0.01119274 -0.00374009 0.00574020
v 0.01112693 -0.00374009 0.00586939
v 0.01094550 -0.00397245 0.00605745
v 0.01087109 -0.00404146 0.00613976
v 0.01059617 -0.00399781 0.00662678
v 0.01046333 -0.00400114 0.00684570
v 0.01064722 -0.00413249 0.00645301
v 0.01081512 -0.00429960 0.00605916
v 0.00815087 -0.00429960 0.00913902
v 0.00819515 -0.00399781 0.00914188
v 0.00871115 -0.00296608 0.00914188
v 0.00896884 -0.00219249 0.00914130
v 0.01100393 -0.00090346 0.00709378
v 0.01097072 -0.00141891 0.00706635
v 0.01112632 -0.00090346 0.00690572
v 0.01118659 -0.00116118 0.00675310
v 0.01140123 -0.00090346 0.00641814
v 0.01154883 -0.00141891 0.00606259
v 0.01167122 -0.00097870 0.00592312
v 0.01171181 -0.00141891 0.00574935
v 0.01214663 -0.00142431 0.00475360
v 0.01221920 -0.00090304 0.00470673
v 0.01193076 -0.00072513 0.00540981
v 0.01169828 -0.00167705 0.00572134
v 0.01180652 -0.00141142 0.00554128
v 0.01217430 -0.00064490 0.00485992
v 0.01222965 -0.00064490 0.00473073
v 0.01225917 -0.00005380 0.00467414
v 0.01223396 -0.00005380 0.00473988
v 0.01231945 -0.00038718 0.00451409
v 0.00896884 -0.00245063 0.00913044
v 0.00922653 -0.00141891 0.00911844
v 0.00939320 -0.00141891 0.00906185
v 0.00918533 -0.00219249 0.00908471
v 0.00952174 -0.00141891 0.00892466
v 0.01009863 -0.00167705 0.00821986
v 0.01020441 -0.00167705 0.00809125
v 0.00986922 -0.00153987 0.00851081
v 0.01035263 -0.00141891 0.00794778
v 0.01037846 -0.00090346 0.00798550
v 0.01090922 -0.00090346 0.00723212
v 0.01244737 -0.00005380 0.00411854
v 0.01244737 -0.00038718 0.00411854
v 0.01262080 -0.00090304 0.00348290
v 0.01269215 -0.00065488 0.00330227
v 0.01240370 -0.00038718 0.00425687
v 0.01239632 -0.00064490 0.00425687
v 0.01244122 -0.00253543 0.00331542
v 0.01245905 -0.00236376 0.00338058
v 0.01235573 -0.00270836 0.00348290
v 0.01210665 -0.00270836 0.00425687
v 0.01243876 -0.00256121 0.00330227
v 0.01196827 -0.00295444 0.00451809
v 0.01193937 -0.00286091 0.00465471
v 0.01187479 -0.00295444 0.00475360
v 0.01167122 -0.00307333 0.00514744
v 0.01179484 -0.00322422 0.00477246
v 0.01171919 -0.00346948 0.00477132
v 0.01145412 -0.00320427 0.00554128
v 0.01143936 -0.00296608 0.00571905
v 0.01137478 -0.00296608 0.00584824
v 0.01133850 -0.00320385 0.00578250
v 0.01115153 -0.00358337 0.00591740
v 0.01151870 -0.00296608 0.00554643
v 0.01101869 -0.00374009 0.00606259
v 0.01090245 -0.00386936 0.00619178
v 0.01063000 -0.00382239 0.00668222
v 0.01040613 -0.00391717 0.00699375
v 0.01036985 -0.00408926 0.00693831
v 0.01033602 -0.00429960 0.00684685
v 0.01047317 -0.00429960 0.00662163
v 0.00819515 -0.00429960 0.00913330
v 0.00819515 -0.00425595 0.00913845
v 0.00845284 -0.00374009 0.00913787
v 0.00871115 -0.00322422 0.00913216
v 0.01088277 -0.00141891 0.00719553
v 0.01095473 -0.00167705 0.00704291
v 0.01109987 -0.00141891 0.00685885
v 0.01117306 -0.00141891 0.00673024
v 0.01151993 -0.00167705 0.00606259
v 0.01164846 -0.00141891 0.00587853
v 0.01116445 -0.00157894 0.00671423
v 0.01211280 -0.00167746 0.00477246
v 0.01219706 -0.00134117 0.00465528
v 0.01229054 -0.00090304 0.00451409
v 0.01231145 -0.00064490 0.00451409
v 0.01168598 -0.00185454 0.00569619
v 0.01193322 -0.00179759 0.00515716
v 0.01177823 -0.00167746 0.00554128
v 0.01163432 -0.00167705 0.00585053
v 0.01231945 -0.00005380 0.00451409
v 0.00890611 -0.00322422 0.00907557
v 0.00915704 -0.00245063 0.00907385
v 0.00937045 -0.00167705 0.00904241
v 0.00951744 -0.00167788 0.00887951
v 0.00962137 -0.00159225 0.00878004
v 0.00994303 -0.00193519 0.00833704
v 0.00991720 -0.00219249 0.00830675
v 0.01007218 -0.00193519 0.00818842
v 0.01017858 -0.00193519 0.00805924
v 0.00970994 -0.00167788 0.00866115
v 0.01033295 -0.00167705 0.00792148
v 0.01065214 -0.00159557 0.00749163
v 0.01240370 -0.00005380 0.00425687
v 0.01259497 -0.00116160 0.00348290
v 0.01266017 -0.00099948 0.00330227
v 0.01266816 -0.00091925 0.00330227
v 0.01237603 -0.00090304 0.00425687
v 0.01244675 -0.00252296 0.00330227
v 0.01249534 -0.00227771 0.00330227
v 0.01247628 -0.00219249 0.00343546
v 0.01243507 -0.00219249 0.00356464
v 0.01241170 -0.00245022 0.00347319
v 0.01221797 -0.00217213 0.00425229
v 0.01217615 -0.00224321 0.00433575
v 0.01219337 -0.00207153 0.00439062
v 0.01213802 -0.00217213 0.00449123
v 0.01216200 -0.00193519 0.00455582
v 0.01202485 -0.00219249 0.00477246
v 0.01165584 -0.00270836 0.00537037
v 0.01169152 -0.00290165 0.00519374
v 0.01152300 -0.00295818 0.00554128
v 0.01140123 -0.00275284 0.00589968
v 0.01157774 -0.00270794 0.00554643
v 0.01145965 -0.00268342 0.00580994
v 0.01124071 -0.00298146 0.00608317
v 0.01120811 -0.00322422 0.00601458
v 0.01117859 -0.00341128 0.00596428
v 0.01068351 -0.00348195 0.00677311
v 0.01063307 -0.00331775 0.00694574
v 0.01057280 -0.00373801 0.00682284
v 0.01043688 -0.00374009 0.00703662
v 0.01034340 -0.00374009 0.00716581
v 0.00990244 -0.00369062 0.00778201
v 0.00980895 -0.00376212 0.00786775
v 0.01016443 -0.00399781 0.00726984
v 0.01030220 -0.00400114 0.00708521
v 0.01011400 -0.00429960 0.00716695
v 0.01018473 -0.00429960 0.00707149
v 0.00839811 -0.00429960 0.00908300
v 0.00845284 -0.00399781 0.00911387
v 0.01086555 -0.00167705 0.00717152
v 0.01109434 -0.00166956 0.00681484
v 0.01093259 -0.00193519 0.00700976
v 0.01147380 -0.00192147 0.00607403
v 0.01143259 -0.00167705 0.00621693
v 0.01142214 -0.00182628 0.00619864
v 0.01115215 -0.00175104 0.00669308
v 0.01207528 -0.00193519 0.00477246
v 0.01218045 -0.00167746 0.00460955
v 0.01218845 -0.00151285 0.00463356
v 0.01222473 -0.00167746 0.00448037
v 0.01162202 -0.00193809 0.00579108
v 0.01166815 -0.00202622 0.00565846
v 0.01172903 -0.00193809 0.00556186
v 0.01184957 -0.00193519 0.00528863
v 0.01192030 -0.00193519 0.00512743
v 0.01197688 -0.00193519 0.00499825
v 0.00867302 -0.00374009 0.00908071
v 0.00862013 -0.00399781 0.00905728
v 0.00887044 -0.00342583 0.00905328
v 0.00911952 -0.00270794 0.00904642
v 0.00928558 -0.00245063 0.00895096
v 0.00931387 -0.00219249 0.00898583
v 0.00935692 -0.00181381 0.00902927
v 0.00943871 -0.00191399 0.00891380
v 0.00980342 -0.00219249 0.00843593
v 0.00989014 -0.00245063 0.00827588
v 0.01004573 -0.00219249 0.00815584
v 0.01015213 -0.00219249 0.00802666
v 0.01013553 -0.00235627 0.00800551
v 0.01030773 -0.00193519 0.00788604
v 0.01039998 -0.00193519 0.00775743
v 0.01063799 -0.00176725 0.00747105
v 0.01042520 -0.00167705 0.00779230
v 0.01072348 -0.00167954 0.00737159
v 0.01254270 -0.00167746 0.00348290
v 0.01263618 -0.00123933 0.00330227
v 0.01237910 -0.00167746 0.00399907
v 0.01229731 -0.00167746 0.00425687
v 0.01254085 -0.00203038 0.00330227
v 0.01244860 -0.00205573 0.00360751
v 0.01255684 -0.00194059 0.00330227
v 0.01249780 -0.00195597 0.00350634
v 0.01220628 -0.00193519 0.00442721
v 0.01172288 -0.00201292 0.00554128
v 0.01163309 -0.00245146 0.00554128
v 0.01158143 -0.00270212 0.00554128
v 0.01133911 -0.00268342 0.00603744
v 0.01120319 -0.00270794 0.00626609
v 0.01117982 -0.00290539 0.00622550
v 0.01141845 -0.00258116 0.00593398
v 0.01090922 -0.00285967 0.00671881
v 0.01115522 -0.00307749 0.00618263
v 0.01071733 -0.00322879 0.00685028
v 0.01082188 -0.00295361 0.00681712
v 0.01066013 -0.00314566 0.00698746
v 0.01037292 -0.00356675 0.00720353
v 0.01013737 -0.00363575 0.00749277
v 0.00984339 -0.00348195 0.00795978
v 0.00986799 -0.00386271 0.00773456
v 0.00966627 -0.00374009 0.00805981
v 0.00963060 -0.00391093 0.00801751
v 0.00959370 -0.00408261 0.00797178
v 0.00955741 -0.00425595 0.00792320
v 0.01007710 -0.00429960 0.00721554
v 0.00843439 -0.00429960 0.00906985
v 0.00845592 -0.00423808 0.00907500
v 0.01084218 -0.00193519 0.00713837
v 0.01103652 -0.00193519 0.00683599
v 0.01091352 -0.00212016 0.00698232
v 0.01064660 -0.00258739 0.00722526
v 0.01134588 -0.00192147 0.00629867
v 0.01145842 -0.00219249 0.00600429
v 0.01143198 -0.00245063 0.00595742
v 0.00858876 -0.00414081 0.00903441
v 0.00897868 -0.00350606 0.00890980
v 0.00912260 -0.00341377 0.00879776
v 0.00903465 -0.00322422 0.00896239
v 0.00909861 -0.00283971 0.00902870
v 0.00883169 -0.00359792 0.00902184
v 0.00937475 -0.00264185 0.00879205
v 0.00987353 -0.00259030 0.00825816
v 0.00940181 -0.00245063 0.00882234
v 0.00943195 -0.00219249 0.00885664
v 0.01003405 -0.00244565 0.00810497
v 0.01011769 -0.00252753 0.00798150
v 0.01020441 -0.00244565 0.00788433
v 0.01056850 -0.00245063 0.00737388
v 0.01068720 -0.00219249 0.00728185
v 0.01062139 -0.00193519 0.00744761
v 0.01246336 -0.00188406 0.00365210
v 0.01259128 -0.00167746 0.00330227
v 0.01226102 -0.00193519 0.00425687
v 0.01135879 -0.00245063 0.00608660
v 0.01089630 -0.00229184 0.00695431
v 0.01095350 -0.00245063 0.00679655
v 0.01092644 -0.00270794 0.00674910
v 0.01085079 -0.00270794 0.00687829
v 0.01068781 -0.00296608 0.00702691
v 0.01059556 -0.00296608 0.00715609
v 0.01030220 -0.00348112 0.00733672
v 0.00993872 -0.00348195 0.00783117
v 0.00986615 -0.00333895 0.00799007
v 0.00969887 -0.00347197 0.00813755
v 0.00959124 -0.00355095 0.00823187
v 0.00955434 -0.00374009 0.00818900
v 0.00942826 -0.00425595 0.00808096
v 0.00941903 -0.00429960 0.00807010
v 0.00954511 -0.00429960 0.00791348
v 0.00975483 -0.00429960 0.00763853
v 0.00951867 -0.00429960 0.00794720
v 0.00854694 -0.00429960 0.00899268
v 0.01120873 -0.00193519 0.00653417
v 0.01076653 -0.00245063 0.00709378
v 0.01062508 -0.00275949 0.00719610
v 0.01070749 -0.00268716 0.00710350
v 0.00856539 -0.00429960 0.00897439
v 0.00880586 -0.00429960 0.00872688
v 0.00905371 -0.00429960 0.00846680
v 0.00906417 -0.00425595 0.00847766
v 0.00884153 -0.00413083 0.00877204
v 0.00874867 -0.00399781 0.00893095
v 0.00892518 -0.00374009 0.00886121
v 0.00905433 -0.00374009 0.00872403
v 0.00915458 -0.00322422 0.00883378
v 0.00942518 -0.00374009 0.00832847
v 0.00937229 -0.00339798 0.00853082
v 0.00928435 -0.00322422 0.00869144
v 0.00973577 -0.00268924 0.00837649
v 0.00964597 -0.00322422 0.00829074
v 0.00984708 -0.00276198 0.00822787
v 0.00994733 -0.00268924 0.00813526
v 0.01009309 -0.00270794 0.00794778
v 0.01087908 -0.00245063 0.00692573
v 0.01039014 -0.00284886 0.00748534
v 0.01015521 -0.00292202 0.00777458
v 0.01006849 -0.00299144 0.00786318
v 0.00989321 -0.00316727 0.00802437
v 0.00979173 -0.00324168 0.00811640
v 0.00962137 -0.00337927 0.00826388
v 0.00938336 -0.00393546 0.00828446
v 0.00934646 -0.00410714 0.00824501
v 0.00931510 -0.00425595 0.00821015
v 0.00930403 -0.00429960 0.00819986
v 0.00917610 -0.00429960 0.00833762
v 0.00918594 -0.00425595 0.00834848
v 0.00981510 -0.00296608 0.00819128
v 0.00992458 -0.00296608 0.00806210
v 0.00927820 -0.00429960 0.00822844
f 1 2 3
f 1 3 4
f 1 4 11
f 1 11 32
f 1 32 73
f 1 73 127
f 1 127 187
f 1 187 249
f 1 249 248
f 1 248 320
f 1 320 375
f 1 375 325
f 1 325 323
f 1 323 252
f 1 252 251
f 1 251 194
f 1 194 129
f 1 129 74
f 1 74 34
f 1 34 33
f 1 33 12
f 1 12 5
f 1 5 6
f 1 6 2
f 2 6 15
f 2 15 38
f 2 38 84
f 2 84 93
f 2 93 150
f 2 150 213
f 2 213 212
f 2 212 281
f 2 281 280
f 2 280 348
f 2 348 393
f 2 393 392
f 2 392 394
f 2 394 391
f 2 391 427
f 2 427 432
f 2 432 428
f 2 428 402
f 2 402 401
f 2 401 400
f 2 400 395
f 2 395 349
f 2 349 282
f 2 282 214
f 2 214 151
f 2 151 94
f 2 94 49
f 2 49 48
f 2 48 47
f 2 47 46
f 2 46 45
f 2 45 24
f 2 24 7
f 2 7 3
f 3 7 8
f 3 8 4
f 4 8 9
f 4 9 10
f 4 10 30
f 4 30 59
f 4 59 107
f 4 107 171
f 4 171 170
f 4 170 233
f 4 233 246
f 4 246 184
f 4 184 124
f 4 124 71
f 4 71 31
f 4 31 11
f 5 12 13
f 5 13 14
f 5 14 6
f 6 14 16
f 6 16 17
f 6 17 18
f 6 18 19
f 6 19 20
f 6 20 21
f 6 21 22
f 6 22 23
f 6 23 15
f 7 24 9
f 7 9 8
f 9 25 10
f 9 24 25
f 10 25 26
f 10 26 27
f 10 27 28
f 10 28 29
f 10 29 51
f 10 51 30
f 11 31 32
f 12 33 13
f 13 33 34
f 13 34 35
f 13 35 14
f 14 36 37
f 14 37 16
f 14 35 36
f 15 23 38
f 16 37 17
f 17 39 40
f 17 40 18
f 17 37 39
f 18 40 19
f 19 40 41
f 19 41 20
f 20 41 21
f 21 41 42
f 21 42 22
f 22 42 23
f 23 42 43
f 23 43 44
f 23 44 38
f 24 45 25
f 25 45 26
f 26 45 46
f 26 46 27
f 27 46 47
f 27 47 28
f 28 47 48
f 28 48 49
f 28 49 50
f 28 50 29
f 29 50 49
f 29 49 94
f 29 94 152
f 29 152 153
f 29 153 95
f 29 95 51
f 30 52 53
f 30 53 54
f 30 54 55
f 30 55 56
f 30 56 57
f 30 57 58
f 30 58 59
f 30 51 60
f 30 60 61
f 30 61 62
f 30 62 63
f 30 63 64
f 30 64 65
f 30 65 66
f 30 66 67
f 30 67 68
f 30 68 69
f 30 69 70
f 30 70 52
f 31 71 72
f 31 72 32
f 32 72 73
f 34 74 75
f 34 75 35
f 35 75 76
f 35 76 77
f 35 77 78
f 35 78 79
f 35 79 80
f 35 80 36
f 36 80 79
f 36 79 81
f 36 81 37
f 37 81 82
f 37 82 83
f 37 83 39
f 38 44 84
f 39 83 40
f 40 83 85
f 40 85 41
f 41 85 86
f 41 86 87
f 41 87 42
f 42 87 43
f 43 87 88
f 43 88 89
f 43 89 90
f 43 90 91
f 43 91 92
f 43 92 44
f 44 92 93
f 44 93 84
f 51 95 96
f 51 96 60
f 52 97 53
f 52 70 123
f 52 123 97
f 53 97 98
f 53 98 99
f 53 99 100
f 53 100 54
f 54 100 55
f 55 100 56
f 56 100 99
f 56 99 57
f 57 99 101
f 57 101 102
f 57 102 103
f 57 103 104
f 57 104 58
f 58 104 105
f 58 105 106
f 58 106 59
f 59 106 107
f 60 96 61
f 61 96 108
f 61 108 62
f 62 108 109
f 62 109 110
f 62 110 63
f 63 110 111
f 63 111 112
f 63 112 64
f 64 112 113
f 64 113 114
f 64 114 65
f 65 114 115
f 65 115 66
f 66 115 116
f 66 116 117
f 66 117 67
f 67 117 118
f 67 118 119
f 67 119 68
f 68 119 120
f 68 120 121
f 68 121 122
f 68 122 69
f 69 122 123
f 69 123 70
f 71 124 125
f 71 125 72
f 72 125 126
f 72 126 127
f 72 127 73
f 74 128 75
f 74 129 128
f 75 128 130
f 75 130 76
f 76 130 77
f 77 131 132
f 77 132 133
f 77 133 78
f 77 130 134
f 77 134 135
f 77 135 131
f 78 133 83
f 78 83 82
f 78 82 79
f 79 82 81
f 83 133 85
f 85 133 136
f 85 136 86
f 86 136 137
f 86 137 138
f 86 138 139
f 86 139 140
f 86 140 88
f 86 88 87
f 88 140 89
f 89 140 141
f 89 141 90
f 90 141 142
f 90 142 143
f 90 143 144
f 90 144 91
f 91 145 92
f 91 144 145
f 92 146 147
f 92 147 148
f 92 148 149
f 92 149 150
f 92 150 93
f 92 145 146
f 94 151 152
f 95 153 154
f 95 154 96
f 96 154 108
f 97 123 155
f 97 155 156
f 97 156 157
f 97 157 98
f 98 157 158
f 98 158 159
f 98 159 99
f 99 160 161
f 99 161 101
f 99 159 160
f 101 161 162
f 101 162 102
f 102 163 164
f 102 164 165
f 102 165 103
f 102 162 166
f 102 166 167
f 102 167 163
f 103 165 168
f 103 168 105
f 103 105 104
f 105 168 169
f 105 169 106
f 106 170 171
f 106 171 107
f 106 169 172
f 106 172 170
f 108 154 109
f 109 154 173
f 109 173 174
f 109 174 111
f 109 111 110
f 111 175 113
f 111 113 112
f 111 174 176
f 111 176 175
f 113 175 177
f 113 177 118
f 113 118 116
f 113 116 114
f 114 116 115
f 116 118 117
f 118 178 179
f 118 179 119
f 118 177 180
f 118 180 178
f 119 179 181
f 119 181 182
f 119 182 120
f 120 182 183
f 120 183 121
f 121 183 122
f 122 183 123
f 123 183 155
f 124 184 185
f 124 185 125
f 125 185 126
f 126 186 187
f 126 187 127
f 126 185 188
f 126 188 189
f 126 189 250
f 126 250 186
f 128 129 190
f 128 190 191
f 128 191 192
f 128 192 193
f 128 193 134
f 128 134 130
f 129 194 190
f 131 135 195
f 131 195 196
f 131 196 197
f 131 197 198
f 131 198 199
f 131 199 137
f 131 137 132
f 132 137 136
f 132 136 133
f 134 193 135
f 135 193 195
f 137 199 200
f 137 200 138
f 138 200 139
f 139 200 201
f 139 201 141
f 139 141 140
f 141 201 142
f 142 202 203
f 142 203 204
f 142 204 205
f 142 205 143
f 142 201 199
f 142 199 198
f 142 198 206
f 142 206 202
f 143 205 144
f 144 205 145
f 145 205 207
f 145 207 208
f 145 208 209
f 145 209 146
f 146 209 147
f 147 209 148
f 148 210 211
f 148 211 149
f 148 209 210
f 149 211 212
f 149 212 213
f 149 213 150
f 151 214 215
f 151 215 152
f 152 215 153
f 153 215 216
f 153 216 217
f 153 217 154
f 154 217 173
f 155 183 218
f 155 218 156
f 156 218 219
f 156 219 220
f 156 220 157
f 157 220 221
f 157 221 158
f 158 221 160
f 158 160 159
f 160 222 223
f 160 223 161
f 160 221 224
f 160 224 222
f 161 223 162
f 162 223 166
f 163 167 225
f 163 225 226
f 163 226 164
f 164 227 228
f 164 228 169
f 164 169 168
f 164 168 165
f 164 226 227
f 166 229 230
f 166 230 231
f 166 231 167
f 166 223 232
f 166 232 229
f 167 231 230
f 167 230 225
f 169 228 172
f 170 172 233
f 172 228 189
f 172 189 188
f 172 188 246
f 172 246 233
f 173 217 234
f 173 234 235
f 173 235 176
f 173 176 174
f 175 236 177
f 175 176 235
f 175 235 236
f 177 236 237
f 177 237 238
f 177 238 180
f 178 239 240
f 178 240 241
f 178 241 242
f 178 242 179
f 178 180 243
f 178 243 239
f 179 244 181
f 179 242 244
f 180 238 237
f 180 237 243
f 181 244 245
f 181 245 218
f 181 218 182
f 182 218 183
f 184 246 188
f 184 188 185
f 186 247 248
f 186 248 249
f 186 249 187
f 186 250 247
f 189 228 250
f 190 194 251
f 190 251 252
f 190 252 191
f 191 252 253
f 191 253 254
f 191 254 255
f 191 255 192
f 192 255 254
f 192 254 256
f 192 256 193
f 193 256 257
f 193 257 258
f 193 258 195
f 195 258 259
f 195 259 196
f 196 259 260
f 196 260 261
f 196 261 262
f 196 262 263
f 196 263 197
f 197 263 198
f 198 263 264
f 198 264 206
f 199 201 200
f 202 265 203
f 202 206 264
f 202 264 266
f 202 266 267
f 202 267 265
f 203 265 268
f 203 268 269
f 203 269 204
f 204 269 270
f 204 270 205
f 205 270 207
f 207 271 209
f 207 209 208
f 207 270 269
f 207 269 271
f 209 271 272
f 209 272 273
f 209 273 210
f 210 273 272
f 210 272 274
f 210 274 275
f 210 275 276
f 210 276 277
f 210 277 278
f 210 278 279
f 210 279 280
f 210 280 281
f 210 281 211
f 211 281 212
f 214 282 283
f 214 283 215
f 215 283 216
f 216 283 217
f 217 283 234
f 218 245 284
f 218 284 219
f 219 285 220
f 219 284 286
f 219 286 285
f 220 224 221
f 220 285 224
f 222 287 232
f 222 232 223
f 222 224 288
f 222 288 289
f 222 289 287
f 224 285 290
f 224 290 289
f 224 289 288
f 225 230 291
f 225 291 292
f 225 292 293
f 225 293 226
f 226 293 227
f 227 293 292
f 227 292 294
f 227 294 250
f 227 250 228
f 229 232 295
f 229 295 265
f 229 265 267
f 229 267 296
f 229 296 297
f 229 297 298
f 229 298 299
f 229 299 230
f 230 299 300
f 230 300 291
f 232 287 295
f 234 283 301
f 234 301 302
f 234 302 303
f 234 303 304
f 234 304 235
f 235 304 305
f 235 305 306
f 235 306 307
f 235 307 236
f 236 307 237
f 237 307 308
f 237 308 309
f 237 309 243
f 239 243 309
f 239 309 240
f 240 309 310
f 240 310 241
f 241 310 311
f 241 311 312
f 241 312 242
f 242 312 244
f 244 312 313
f 244 313 314
f 244 314 315
f 244 315 316
f 244 316 317
f 244 317 245
f 245 318 284
f 245 317 318
f 247 319 320
f 247 320 248
f 247 250 319
f 250 321 319
f 250 294 322
f 250 322 321
f 252 323 253
f 253 324 254
f 253 323 325
f 253 325 326
f 253 326 324
f 254 324 256
f 256 324 258
f 256 258 257
f 258 327 260
f 258 260 259
f 258 324 327
f 260 327 292
f 260 292 291
f 260 291 261
f 261 291 300
f 261 300 299
f 261 299 298
f 261 298 297
f 261 297 328
f 261 328 262
f 262 328 329
f 262 329 330
f 262 330 263
f 263 330 264
f 264 330 266
f 265 331 332
f 265 332 333
f 265 333 268
f 265 295 334
f 265 334 331
f 266 330 267
f 267 330 296
f 268 333 335
f 268 335 336
f 268 336 269
f 269 336 335
f 269 335 337
f 269 337 271
f 271 337 272
f 272 337 338
f 272 338 339
f 272 339 274
f 274 340 275
f 274 339 340
f 275 340 341
f 275 341 276
f 276 341 342
f 276 342 277
f 277 343 278
f 277 342 344
f 277 344 345
f 277 345 346
f 277 346 347
f 277 347 343
f 278 348 280
f 278 280 279
f 278 343 347
f 278 347 348
f 282 349 350
f 282 350 283
f 283 350 301
f 284 318 316
f 284 316 351
f 284 351 286
f 285 286 352
f 285 352 290
f 286 353 352
f 286 351 354
f 286 354 353
f 287 289 355
f 287 355 356
f 287 356 295
f 289 290 352
f 289 352 355
f 292 327 294
f 294 327 322
f 295 356 357
f 295 357 334
f 296 328 297
f 296 330 329
f 296 329 328
f 301 350 302
f 302 350 349
f 302 349 358
f 302 358 303
f 303 359 360
f 303 360 361
f 303 361 362
f 303 362 304
f 303 358 363
f 303 363 359
f 304 362 305
f 305 364 365
f 305 365 366
f 305 366 367
f 305 367 306
f 305 362 364
f 306 367 307
f 307 367 308
f 308 367 309
f 309 367 310
f 310 367 365
f 310 365 368
f 310 368 311
f 311 368 313
f 311 313 312
f 313 369 370
f 313 370 314
f 313 368 369
f 314 370 315
f 315 370 371
f 315 371 372
f 315 372 373
f 315 373 316
f 316 373 351
f 316 318 317
f 319 374 326
f 319 326 325
f 319 325 375
f 319 375 320
f 319 321 374
f 321 322 374
f 322 327 374
f 324 326 374
f 324 374 376
f 324 376 327
f 327 376 374
f 331 334 357
f 331 357 356
f 331 356 377
f 331 377 378
f 331 378 379
f 331 379 332
f 332 379 380
f 332 380 335
f 332 335 333
f 335 380 381
f 335 381 382
f 335 382 338
f 335 338 337
f 338 382 339
f 339 383 340
f 339 382 383
f 340 384 385
f 340 385 341
f 340 383 384
f 341 385 342
f 342 386 387
f 342 387 344
f 342 385 386
f 344 388 389
f 344 389 345
f 344 387 388
f 345 389 390
f 345 390 391
f 345 391 346
f 346 391 347
f 347 392 393
f 347 393 348
f 347 391 394
f 347 394 392
f 349 395 358
f 351 373 372
f 351 372 354
f 352 353 378
f 352 378 396
f 352 396 355
f 353 354 397
f 353 397 378
f 354 398 399
f 354 399 397
f 354 372 371
f 354 371 370
f 354 370 369
f 354 369 398
f 355 377 356
f 355 396 378
f 355 378 377
f 358 395 400
f 358 400 401
f 358 401 402
f 358 402 403
f 358 403 404
f 358 404 405
f 358 405 359
f 358 359 363
f 359 405 406
f 359 406 407
f 359 407 360
f 360 408 361
f 360 407 409
f 360 409 388
f 360 388 410
f 360 410 408
f 361 408 362
f 362 408 411
f 362 411 364
f 364 411 412
f 364 412 365
f 365 367 366
f 365 412 411
f 365 411 413
f 365 413 414
f 365 414 415
f 365 415 369
f 365 369 368
f 369 415 416
f 369 416 398
f 378 417 380
f 378 380 379
f 378 397 399
f 378 399 417
f 380 417 381
f 381 399 382
f 381 417 399
f 382 399 398
f 382 398 383
f 383 398 418
f 383 418 419
f 383 419 420
f 383 420 384
f 384 420 385
f 385 420 386
f 386 421 422
f 386 422 387
f 386 420 416
f 386 416 421
f 387 422 423
f 387 423 388
f 388 423 410
f 388 409 389
f 389 409 424
f 389 424 425
f 389 425 426
f 389 426 390
f 390 426 391
f 391 426 427
f 398 416 418
f 402 428 403
f 403 428 429
f 403 429 404
f 404 429 407
f 404 407 406
f 404 406 405
f 407 429 424
f 407 424 409
f 408 410 411
f 410 423 411
f 411 423 413
f 413 423 414
f 414 423 430
f 414 430 431
f 414 431 415
f 415 431 416
f 416 420 419
f 416 419 418
f 416 431 421
f 421 430 422
f 421 431 430
f 422 430 423
f 424 429 425
f 425 429 426
f 426 429 432
f 426 432 427
f 428 432 429

