# https://github.com/mikedh/trimesh
v -0.01488668 -0.01270182 -0.02355597
v -0.01487763 -0.00769135 -0.02480779
v -0.01486859 -0.00894514 -0.02480779
v -0.01480978 -0.01395560 -0.02355597
v -0.01483013 -0.01646317 -0.02230150
v -0.01483013 -0.01897075 -0.02104968
v -0.01483918 0.02583339 -0.01510153
v -0.01484823 0.02489772 -0.01603575
v -0.01485728 0.02364862 -0.01728890
v -0.01488216 0.00860786 -0.02480647
v -0.01480300 -0.00142242 -0.02606227
v -0.01476907 -0.01019425 -0.02480779
v -0.01477811 -0.00267621 -0.02606227
v -0.01471027 -0.00392999 -0.02606227
v -0.01452480 -0.00894514 -0.02578453
v -0.01446600 -0.01395560 -0.02443836
v -0.01448409 -0.01646317 -0.02325564
v -0.01448635 -0.01897075 -0.02203173
v -0.01471479 -0.01953682 -0.02106828
v -0.01469217 -0.01953682 -0.01975932
v -0.01454742 0.02458896 -0.01510153
v -0.01459718 0.02719945 -0.01510153
v -0.01460397 0.02622168 -0.01609954
v -0.01438684 -0.01953682 -0.01897660
v -0.01484145 0.02239483 -0.01854338
v -0.01485954 0.01863347 -0.02104968
v -0.01460849 0.02497726 -0.01736598
v -0.01486859 0.01236922 -0.02355332
v -0.01483918 0.01362301 -0.02355332
v -0.01480752 0.00986165 -0.02480647
v -0.01459492 0.00887921 -0.02559982
v -0.01473515 0.00359740 -0.02606227
v -0.01478943 0.00234361 -0.02606227
v -0.01480300 0.00112725 -0.02606227
v -0.01445695 -0.00142242 -0.02689815
v -0.01443433 -0.00267621 -0.02687556
v -0.01436648 -0.00392999 -0.02680911
v -0.01427827 -0.00494051 -0.02674134
v -0.01442529 -0.01019425 -0.02562905
v -0.01432577 -0.01480238 -0.02428155
v -0.01435291 -0.01737077 -0.02305897
v -0.01429411 -0.01105973 -0.02550414
v -0.01440041 -0.01953682 -0.02188821
v -0.01441398 0.02427083 -0.01510153
v -0.01357261 -0.01953682 -0.01878656
v -0.01441850 0.02708249 -0.01572346
v -0.01442755 0.02584742 -0.01699920
v -0.01454063 0.02734448 -0.01510153
v -0.01459266 0.02369540 -0.01860185
v -0.01478264 0.02114105 -0.01979520
v -0.01473062 0.02083228 -0.02014470
v -0.01458813 0.01994808 -0.02112409
v -0.01451349 0.01863347 -0.02213406
v -0.01485275 0.01612590 -0.02230017
v -0.01442755 0.02461235 -0.01822444
v -0.01451349 0.01612590 -0.02333405
v -0.01449540 0.01362301 -0.02449019
v -0.01449540 0.00986165 -0.02559982
v -0.01453385 0.00860319 -0.02581909
v -0.01444338 0.00234361 -0.02688619
v -0.01445695 0.00113193 -0.02689682
v -0.01445695 0.00108515 -0.02689815
v -0.01357261 -0.00142242 -0.02710944
v -0.01357261 -0.00267621 -0.02706426
v 0.00648679 -0.01953682 -0.02855263
v -0.01357261 -0.00894514 -0.02615530
v 0.00523152 -0.01953682 -0.02825495
v 0.00579243 -0.01953682 -0.02838917
v -0.01426470 0.02413516 -0.01510153
v 0.00021045 -0.01953682 -0.01868158
v -0.01356809 0.02395271 -0.01510153
v -0.01369248 0.02791991 -0.01510153
v -0.00060378 0.02825675 -0.02207426
v -0.01440041 0.02331178 -0.01938723
v -0.01451349 0.02233869 -0.01980051
v -0.01439362 0.01957381 -0.02187891
v -0.01438910 0.01715981 -0.02311212
v -0.01436195 0.01457738 -0.02432806
v -0.01433029 0.01084877 -0.02553736
v -0.01446374 0.00985697 -0.02567822
v -0.01428506 0.00484651 -0.02674798
v -0.01438910 0.00359740 -0.02683303
v -0.01357035 0.00234361 -0.02708685
v -0.01357261 0.00108515 -0.02710944
v 0.00773979 -0.01953682 -0.02866824
v 0.00704544 -0.01953682 -0.02860445
v 0.00146798 -0.01953682 -0.01876530
v 0.00122597 0.02427083 -0.01510153
v 0.00021498 0.02395271 -0.01510153
v -0.01356809 0.02795734 -0.01510153
v -0.00473824 0.02825675 -0.01510153
v 0.00348772 0.02825675 -0.02207426
v 0.00121466 0.02083228 -0.02559982
v -0.01428732 0.02188022 -0.02049553
v -0.01356583 0.01362301 -0.02481311
v -0.01420816 0.01068971 -0.02559982
v -0.01357035 0.00860319 -0.02622307
v -0.01421495 0.00555761 -0.02670014
v -0.01357035 0.00359740 -0.02697921
v 0.00773979 0.00112725 -0.02865761
v 0.00773979 -0.01897075 -0.02866824
v 0.00821928 -0.01953682 -0.02867621
v 0.00202663 -0.01953682 -0.01907494
v 0.00193616 0.02615619 -0.01510153
v 0.00156297 0.02491176 -0.01510153
v 0.00198592 0.02825675 -0.01510153
v 0.00648000 0.02082760 -0.02559982
v 0.00631263 0.02083228 -0.02559982
v 0.00348772 0.02825675 -0.01979520
v -0.01357035 0.00985697 -0.02592274
v 0.00821928 0.00112725 -0.02866957
v 0.00821928 -0.01771696 -0.02867621
v 0.00821928 -0.01953682 -0.02579251
v 0.00216912 -0.01953682 -0.01918656
v 0.00198592 0.02740997 -0.01510153
v 0.00334297 0.02825675 -0.01873873
v 0.00821928 -0.00846327 -0.02578719
v 0.00821928 0.00112725 -0.02578852
v 0.00341760 0.02825675 -0.01894338
v 0.00821928 -0.01897075 -0.02579118
v 0.00821928 -0.01520939 -0.02578852
v 0.00821928 -0.01019425 -0.02578719
f 1 2 3
f 1 3 4
f 1 4 5
f 1 5 6
f 1 6 7
f 1 7 8
f 1 8 9
f 1 9 10
f 1 10 2
f 2 11 3
f 2 10 11
f 3 12 4
f 3 11 13
f 3 13 14
f 3 14 15
f 3 15 12
f 4 12 16
f 4 16 17
f 4 17 5
f 5 17 18
f 5 18 6
f 6 18 19
f 6 19 20
f 6 20 7
f 7 21 44
f 7 44 69
f 7 69 71
f 7 71 89
f 7 89 88
f 7 88 105
f 7 105 104
f 7 104 115
f 7 115 106
f 7 106 91
f 7 91 90
f 7 90 72
f 7 72 48
f 7 48 22
f 7 22 23
f 7 23 8
f 7 20 24
f 7 24 21
f 8 23 9
f 9 25 26
f 9 26 10
f 9 23 27
f 9 27 25
f 10 26 28
f 10 28 29
f 10 29 30
f 10 30 31
f 10 31 32
f 10 32 33
f 10 33 34
f 10 34 11
f 11 34 62
f 11 62 35
f 11 35 13
f 12 15 16
f 13 35 36
f 13 36 14
f 14 36 15
f 15 36 37
f 15 37 38
f 15 38 39
f 15 39 16
f 16 40 41
f 16 41 17
f 16 39 42
f 16 42 40
f 17 41 18
f 18 43 19
f 18 41 43
f 19 43 67
f 19 67 68
f 19 68 65
f 19 65 86
f 19 86 85
f 19 85 102
f 19 102 113
f 19 113 114
f 19 114 103
f 19 103 87
f 19 87 70
f 19 70 45
f 19 45 24
f 19 24 20
f 21 24 45
f 21 45 44
f 22 46 47
f 22 47 23
f 22 48 46
f 23 47 27
f 25 27 49
f 25 49 50
f 25 50 26
f 26 50 51
f 26 51 52
f 26 52 53
f 26 53 54
f 26 54 28
f 27 47 55
f 27 55 49
f 28 54 29
f 29 54 53
f 29 53 56
f 29 56 57
f 29 57 30
f 30 58 31
f 30 57 58
f 31 58 59
f 31 59 32
f 32 60 33
f 32 59 60
f 33 60 61
f 33 61 62
f 33 62 34
f 35 62 84
f 35 84 63
f 35 63 36
f 36 64 37
f 36 63 64
f 37 64 38
f 38 65 66
f 38 66 42
f 38 42 39
f 38 64 65
f 40 42 67
f 40 67 41
f 41 67 43
f 42 66 68
f 42 68 67
f 44 45 69
f 45 70 71
f 45 71 69
f 46 48 72
f 46 72 73
f 46 73 47
f 47 73 55
f 49 74 75
f 49 75 50
f 49 55 74
f 50 75 51
f 51 75 52
f 52 76 53
f 52 75 76
f 53 76 77
f 53 77 56
f 55 73 74
f 56 77 78
f 56 78 57
f 57 78 79
f 57 79 80
f 57 80 58
f 58 80 59
f 59 80 81
f 59 81 82
f 59 82 60
f 60 82 83
f 60 83 84
f 60 84 62
f 60 62 61
f 63 84 101
f 63 101 85
f 63 85 86
f 63 86 65
f 63 65 64
f 65 68 66
f 70 87 88
f 70 88 89
f 70 89 71
f 72 90 73
f 73 90 91
f 73 91 106
f 73 106 116
f 73 116 119
f 73 119 109
f 73 109 92
f 73 92 108
f 73 108 93
f 73 93 78
f 73 78 77
f 73 77 76
f 73 76 94
f 73 94 74
f 74 94 76
f 74 76 75
f 78 95 79
f 78 93 95
f 79 95 93
f 79 93 96
f 79 96 97
f 79 97 98
f 79 98 80
f 80 98 81
f 81 83 82
f 81 98 83
f 83 98 99
f 83 99 100
f 83 100 84
f 84 100 101
f 85 101 112
f 85 112 102
f 87 103 104
f 87 104 105
f 87 105 88
f 92 107 108
f 92 109 107
f 93 98 97
f 93 97 110
f 93 110 96
f 93 108 111
f 93 111 100
f 93 100 98
f 96 110 97
f 98 100 99
f 100 111 101
f 101 111 112
f 102 112 111
f 102 111 118
f 102 118 117
f 102 117 122
f 102 122 121
f 102 121 120
f 102 120 113
f 103 114 104
f 104 114 113
f 104 113 115
f 106 115 122
f 106 122 117
f 106 117 118
f 106 118 116
f 107 111 108
f 107 109 119
f 107 119 116
f 107 116 118
f 107 118 111
f 113 120 115
f 115 120 121
f 115 121 122

