# https://github.com/mikedh/trimesh
v 0.00455879 0.00623262 -0.00889858
v 0.00455879 0.00634633 -0.00866039
v 0.00455879 0.00623475 -0.00892576
v 0.00770936 -0.00064165 -0.00889858
v 0.00455879 0.00897957 -0.00535508
v 0.00776040 -0.00064165 -0.00869823
v 0.00455879 0.00632826 -0.00908508
v 0.00775726 -0.00064165 -0.00907868
v 0.00998511 -0.00078830 -0.00592577
v 0.00455879 0.00912409 -0.00522666
v 0.01094159 -0.00078830 -0.00369790
v 0.00455879 0.00634101 -0.00908934
v 0.00793709 -0.00064165 -0.00913517
v 0.00455879 0.00657586 -0.00913570
v 0.00455879 0.00660243 -0.00913996
v 0.01168682 -0.00078830 -0.00592577
v 0.00819309 -0.00064165 -0.00914103
v 0.00455879 0.00913365 -0.00521920
v 0.01256163 -0.00078830 -0.00369790
v 0.01066438 0.00287890 -0.00369790
v 0.00538413 0.00941526 -0.00423555
v 0.00544145 0.00920273 -0.00423555
v 0.00455879 0.00683515 -0.00914050
v 0.00896817 -0.00064165 -0.00914103
v 0.00922653 -0.00064165 -0.00914050
v 0.00943306 -0.00064165 -0.00908348
v 0.00956184 -0.00064165 -0.00897158
v 0.00967493 -0.00064165 -0.00884370
v 0.01015709 -0.00064165 -0.00828899
v 0.01033378 -0.00064165 -0.00807318
v 0.01044372 -0.00064165 -0.00792825
v 0.01092117 -0.00064165 -0.00724939
v 0.01102718 -0.00064165 -0.00709486
v 0.01113712 -0.00064165 -0.00692808
v 0.01121094 -0.00064165 -0.00679753
v 0.01161222 -0.00064165 -0.00608243
v 0.01168525 -0.00064165 -0.00595082
v 0.01175829 -0.00064378 -0.00580428
v 0.01174022 -0.00078830 -0.00581547
v 0.00767952 0.00245066 -0.00914103
v 0.00455879 0.00941526 -0.00511530
v 0.01238494 -0.00078830 -0.00425687
v 0.01257263 -0.00064378 -0.00369790
v 0.01225144 0.00287890 -0.00369790
v 0.00563306 0.01006453 -0.00423555
v 0.00561029 0.01004966 -0.00423555
v 0.00546658 0.00994233 -0.00423555
v 0.00543674 0.00990089 -0.00423555
v 0.00538491 0.00969580 -0.00423555
v 0.00538413 0.00967242 -0.00423555
v 0.00538334 0.00945457 -0.00423555
v 0.00455879 0.00789248 -0.00914050
v 0.00922653 -0.00038662 -0.00914103
v 0.00943855 -0.00038662 -0.00908455
v 0.00956656 -0.00038662 -0.00897957
v 0.00968356 -0.00038662 -0.00885062
v 0.01016416 -0.00038662 -0.00829539
v 0.01039425 -0.00059171 -0.00800604
v 0.01083636 -0.00038662 -0.00738633
v 0.01092588 -0.00038662 -0.00725738
v 0.01103896 -0.00038662 -0.00709326
v 0.01114341 -0.00038662 -0.00693554
v 0.01121565 -0.00038662 -0.00680712
v 0.01134444 -0.00038662 -0.00657746
v 0.01148893 -0.00038662 -0.00631902
v 0.01168997 -0.00038662 -0.00595934
v 0.01181247 -0.00078830 -0.00566094
v 0.01176692 -0.00038662 -0.00580428
v 0.01188236 -0.00038662 -0.00555544
v 0.01188707 -0.00064059 -0.00552400
v 0.00767952 0.00287890 -0.00914103
v 0.00455879 0.00956934 -0.00511423
v 0.01234725 -0.00078830 -0.00437143
v 0.01231113 -0.00064378 -0.00451530
v 0.01239594 -0.00064378 -0.00425687
v 0.01258048 -0.00038662 -0.00369790
v 0.01240143 0.00214886 -0.00369790
v 0.01220197 0.00287890 -0.00385243
v 0.01206141 0.00296073 -0.00423555
v 0.01205983 0.00296710 -0.00423555
v 0.01194989 0.00315094 -0.00443484
v 0.01199151 0.00323170 -0.00423555
v 0.01197110 0.00329759 -0.00423555
v 0.01190513 0.00351012 -0.00423555
v 0.01174729 0.00401381 -0.00423555
v 0.01171588 0.00411158 -0.00423555
v 0.01167504 0.00423378 -0.00423555
v 0.01165306 0.00429648 -0.00423555
v 0.01157531 0.00449413 -0.00423555
v 0.01146223 0.00475873 -0.00423555
v 0.01123057 0.00529856 -0.00423555
v 0.01120544 0.00535488 -0.00423555
v 0.01113084 0.00551108 -0.00423555
v 0.01096907 0.00580756 -0.00423555
v 0.01084500 0.00603285 -0.00423555
v 0.01068873 0.00631551 -0.00423555
v 0.01054659 0.00655354 -0.00423555
v 0.01042880 0.00673632 -0.00423555
v 0.01041702 0.00675438 -0.00423555
v 0.01000317 0.00735266 -0.00423555
v 0.00996234 0.00741004 -0.00423555
v 0.00985475 0.00755881 -0.00423555
v 0.00980764 0.00762044 -0.00423555
v 0.00967493 0.00778940 -0.00423555
v 0.00943149 0.00808695 -0.00423555
v 0.00932233 0.00821765 -0.00423555
v 0.00919355 0.00835048 -0.00423555
v 0.00906319 0.00847906 -0.00423555
v 0.00891477 0.00862358 -0.00423555
v 0.00879776 0.00873410 -0.00423555
v 0.00868704 0.00882230 -0.00423555
v 0.00839805 0.00903058 -0.00423555
v 0.00828026 0.00911028 -0.00423555
v 0.00819859 0.00916447 -0.00423555
v 0.00817268 0.00918147 -0.00423555
v 0.00793709 0.00932387 -0.00423555
v 0.00765596 0.00946733 -0.00423555
v 0.00742194 0.00958209 -0.00423555
v 0.00716123 0.00968836 -0.00423555
v 0.00714631 0.00969367 -0.00423555
v 0.00691700 0.00977337 -0.00423555
v 0.00673560 0.00983288 -0.00423555
v 0.00666414 0.00985519 -0.00423555
v 0.00638929 0.00992852 -0.00423555
v 0.00613251 0.00998165 -0.00423555
v 0.00584823 0.01003478 -0.00423555
v 0.00564720 0.01006453 -0.00423555
v 0.00562600 0.01006560 -0.00425207
v 0.00546501 0.01006666 -0.00435225
v 0.00469072 0.01006772 -0.00514141
v 0.00455879 0.00996465 -0.00520055
v 0.00455879 0.00992958 -0.00517977
v 0.00455879 0.00967242 -0.00511476
v 0.00455879 0.00979462 -0.00514354
v 0.00455879 0.00812520 -0.00912291
v 0.00484150 0.00786698 -0.00913730
v 0.00509986 0.00760875 -0.00914050
v 0.00871059 0.00287890 -0.00914103
v 0.00922653 0.00038806 -0.00914103
v 0.00943855 0.00038806 -0.00908455
v 0.00956734 -0.00012839 -0.00898064
v 0.00968356 -0.00012839 -0.00885169
v 0.01016416 0.00038806 -0.00829539
v 0.01029294 -0.00038662 -0.00813979
v 0.01039739 -0.00038662 -0.00801084
v 0.01049947 -0.00038662 -0.00786697
v 0.01083636 0.00038806 -0.00738633
v 0.01092588 0.00038806 -0.00725738
v 0.01103896 0.00038806 -0.00709326
v 0.01114341 0.00038806 -0.00693554
v 0.01121565 0.00038806 -0.00680712
v 0.01134444 0.00038806 -0.00657746
v 0.01148893 0.00038806 -0.00631902
v 0.01168997 0.00038806 -0.00595934
v 0.01186901 -0.00078830 -0.00553679
v 0.01176692 0.00038806 -0.00580428
v 0.01223338 -0.00038662 -0.00474070
v 0.01193576 -0.00055239 -0.00542329
v 0.01188236 0.00038806 -0.00555544
v 0.01222946 -0.00064378 -0.00473111
v 0.01193026 -0.00072348 -0.00540997
v 0.01192791 -0.00078830 -0.00540304
v 0.01229935 -0.00078830 -0.00451530
v 0.01222396 -0.00078830 -0.00471779
v 0.01231898 -0.00038662 -0.00451530
v 0.01240300 -0.00038662 -0.00425687
v 0.01244698 -0.00038662 -0.00411886
v 0.01258048 0.00038806 -0.00369790
v 0.01243049 0.00198734 -0.00369790
v 0.01226087 0.00193421 -0.00425687
v 0.01219333 0.00207129 -0.00439061
v 0.01210617 0.00270888 -0.00425687
v 0.01201115 0.00287890 -0.00443750
v 0.01196796 0.00295648 -0.00451903
v 0.01192005 0.00303405 -0.00460695
v 0.01189571 0.00323170 -0.00451903
v 0.01192398 0.00332309 -0.00435651
v 0.01198209 0.00323170 -0.00426539
v 0.01167112 0.00411370 -0.00437303
v 0.01156982 0.00425716 -0.00451530
v 0.01146773 0.00451645 -0.00451264
v 0.01155882 0.00451538 -0.00425687
v 0.01143161 0.00467584 -0.00442525
v 0.01114890 0.00539313 -0.00435651
v 0.01110336 0.00554190 -0.00426539
v 0.01088348 0.00589895 -0.00433466
v 0.01061648 0.00639946 -0.00430962
v 0.01054659 0.00655461 -0.00423662
v 0.01041466 0.00674695 -0.00425687
v 0.00986496 0.00747486 -0.00437463
v 0.00980293 0.00760663 -0.00427605
v 0.00962702 0.00775540 -0.00441939
v 0.00938437 0.00803275 -0.00445189
v 0.00931762 0.00821234 -0.00425687
v 0.00912994 0.00828779 -0.00451530
v 0.00892890 0.00860020 -0.00425687
v 0.00888022 0.00855132 -0.00446308
v 0.00856767 0.00875854 -0.00462081
v 0.00861322 0.00879467 -0.00444869
v 0.00866348 0.00883186 -0.00425687
v 0.00845381 0.00897426 -0.00428191
v 0.00815775 0.00909221 -0.00451530
v 0.00819545 0.00915916 -0.00425846
v 0.00801954 0.00925905 -0.00430482
v 0.00780202 0.00928136 -0.00463253
v 0.00770150 0.00936106 -0.00453395
v 0.00750754 0.00952152 -0.00430909
v 0.00733556 0.00956509 -0.00446095
v 0.00716358 0.00968304 -0.00425687
v 0.00690601 0.00971811 -0.00451530
v 0.00676387 0.00979675 -0.00436663
v 0.00666571 0.00984882 -0.00427125
v 0.00638929 0.00992533 -0.00425687
v 0.00613251 0.00994233 -0.00451530
v 0.00587415 0.00999227 -0.00451530
v 0.00569903 0.01005072 -0.00432347
v 0.00552705 0.01006666 -0.00443484
v 0.00537235 0.01006772 -0.00452809
v 0.00520901 0.01006772 -0.00462081
v 0.00455879 0.01006772 -0.00532578
v 0.00458392 0.00812520 -0.00912078
v 0.00455879 0.00814964 -0.00911705
v 0.00535821 0.00760875 -0.00912558
v 0.00561579 0.00735159 -0.00913410
v 0.00587415 0.00709337 -0.00913996
v 0.00613251 0.00683515 -0.00914050
v 0.00896817 0.00219350 -0.00914103
v 0.00690601 0.00606154 -0.00914050
v 0.00767952 0.00502971 -0.00914050
v 0.00845302 0.00348355 -0.00914050
v 0.00870902 0.00296710 -0.00914050
v 0.00922653 0.00064628 -0.00914050
v 0.00943306 0.00064628 -0.00908348
v 0.00956656 0.00038806 -0.00897957
v 0.00956734 0.00012983 -0.00898064
v 0.00968356 0.00012983 -0.00885169
v 0.00968356 0.00038806 -0.00885062
v 0.01015787 0.00064628 -0.00828739
v 0.01039425 0.00059421 -0.00800604
v 0.01029294 0.00038806 -0.00813979
v 0.01039739 0.00038806 -0.00801084
v 0.01049947 0.00038806 -0.00786697
v 0.01092117 0.00064628 -0.00724939
v 0.01102797 0.00064628 -0.00709326
v 0.01113791 0.00064628 -0.00692648
v 0.01121094 0.00064628 -0.00679753
v 0.01168525 0.00064628 -0.00595082
v 0.01175829 0.00064522 -0.00580428
v 0.01223338 0.00038806 -0.00474070
v 0.01188707 0.00064203 -0.00552400
v 0.01193576 0.00055277 -0.00542329
v 0.01219962 -0.00078830 -0.00477533
v 0.01231898 0.00038806 -0.00451530
v 0.01240300 0.00038806 -0.00425687
v 0.01244698 0.00038806 -0.00411886
v 0.01239594 0.00064522 -0.00425687
v 0.01257263 0.00064522 -0.00369790
v 0.01244148 0.00192146 -0.00369790
v 0.01242264 0.00195546 -0.00373999
v 0.01229699 0.00167705 -0.00425687
v 0.01220590 0.00193421 -0.00442791
v 0.01216114 0.00193421 -0.00455686
v 0.01213758 0.00217224 -0.00449186
v 0.01194440 0.00287890 -0.00463040
v 0.01187451 0.00295648 -0.00475402
v 0.01167033 0.00307443 -0.00514833
v 0.01179441 0.00322533 -0.00477320
v 0.01169468 0.00367164 -0.00468528
v 0.01193890 0.00286190 -0.00465544
v 0.01166719 0.00384485 -0.00462187
v 0.01164756 0.00401594 -0.00452756
v 0.01143710 0.00443037 -0.00468475
v 0.01146694 0.00425078 -0.00477214
v 0.01140020 0.00460252 -0.00459736
v 0.01118581 0.00522098 -0.00445882
v 0.01115440 0.00514660 -0.00463093
v 0.01112378 0.00529856 -0.00453289
v 0.01098949 0.00556634 -0.00453395
v 0.01093060 0.00572680 -0.00446095
v 0.01066438 0.00622731 -0.00443804
v 0.01058193 0.00631551 -0.00452063
v 0.01041074 0.00648660 -0.00469434
v 0.01043744 0.00657373 -0.00449292
v 0.01038796 0.00670975 -0.00439221
v 0.00992622 0.00730377 -0.00451530
v 0.00983591 0.00743235 -0.00451530
v 0.00969691 0.00761725 -0.00450944
v 0.00958776 0.00770864 -0.00459150
v 0.00934432 0.00798387 -0.00462400
v 0.00927207 0.00812095 -0.00452915
v 0.00909853 0.00825484 -0.00464692
v 0.00866583 0.00859170 -0.00477320
v 0.00829989 0.00875004 -0.00511956
v 0.00834701 0.00878829 -0.00494745
v 0.00839570 0.00882336 -0.00477320
v 0.00819231 0.00896257 -0.00478812
v 0.00795672 0.00912515 -0.00478812
v 0.00793552 0.00923142 -0.00453395
v 0.00805567 0.00902101 -0.00488404
v 0.00763004 0.00932599 -0.00477320
v 0.00775883 0.00925798 -0.00477320
v 0.00728530 0.00953959 -0.00463306
v 0.00718479 0.00960866 -0.00453395
v 0.00690601 0.00965435 -0.00477320
v 0.00664765 0.00968198 -0.00503111
v 0.00662959 0.00975212 -0.00475775
v 0.00671205 0.00978081 -0.00451530
v 0.00658247 0.00982225 -0.00451530
v 0.00638615 0.00982969 -0.00475775
v 0.00638929 0.00987963 -0.00451530
v 0.00613251 0.00989876 -0.00477320
v 0.00587415 0.00995508 -0.00477320
v 0.00527890 0.01006772 -0.00470127
v 0.00561579 0.01000078 -0.00477320
v 0.00536214 0.01004222 -0.00478173
v 0.00455879 0.01006772 -0.00537160
v 0.00455879 0.00831329 -0.00906590
v 0.00458392 0.00830479 -0.00906430
v 0.00483050 0.00812839 -0.00907655
v 0.00512027 0.00788823 -0.00909254
v 0.00560794 0.00760875 -0.00907815
v 0.00588043 0.00736222 -0.00908988
v 0.00615292 0.00711356 -0.00909520
v 0.00535821 0.00781491 -0.00906909
v 0.00664765 0.00657692 -0.00911279
v 0.00870902 0.00322533 -0.00913144
v 0.00896817 0.00245066 -0.00913037
v 0.00922653 0.00116060 -0.00912931
v 0.00922653 0.00090344 -0.00913677
v 0.00700260 0.00596590 -0.00913996
v 0.00716358 0.00580331 -0.00913890
v 0.00742116 0.00554615 -0.00913304
v 0.00793709 0.00477148 -0.00913463
v 0.00819466 0.00425716 -0.00913783
v 0.00845302 0.00374177 -0.00913730
v 0.00942206 0.00090344 -0.00907975
v 0.00956184 0.00064628 -0.00897158
v 0.00967650 0.00064628 -0.00884210
v 0.01004558 0.00064628 -0.00841688
v 0.01030629 0.00066647 -0.00810516
v 0.01014452 0.00090344 -0.00827301
v 0.01011861 0.00141882 -0.00824263
v 0.01022305 0.00141882 -0.00811368
v 0.01038561 0.00076636 -0.00799432
v 0.01081830 0.00090344 -0.00736076
v 0.01090861 0.00090344 -0.00723180
v 0.01089369 0.00120523 -0.00721049
v 0.01100284 0.00090344 -0.00709326
v 0.01096986 0.00141882 -0.00706555
v 0.01112613 0.00090344 -0.00690516
v 0.01119916 0.00090344 -0.00677621
v 0.01140098 0.00090344 -0.00641866
v 0.01167897 0.00080674 -0.00593963
v 0.01168525 0.00081843 -0.00592577
v 0.01172766 0.00089813 -0.00582400
v 0.01185488 0.00090344 -0.00554691
v 0.01222946 0.00064522 -0.00473111
v 0.01193026 0.00072492 -0.00540997
v 0.01231113 0.00064522 -0.00451530
v 0.01237552 0.00090344 -0.00425687
v 0.01255221 0.00090344 -0.00369790
v 0.01247446 0.00167705 -0.00369790
v 0.01222396 0.00167705 -0.00448120
v 0.01217998 0.00167705 -0.00461015
v 0.01207475 0.00193421 -0.00477320
v 0.01202371 0.00219350 -0.00477320
v 0.01169389 0.00287890 -0.00520055
v 0.01163264 0.00297986 -0.00528368
v 0.01151799 0.00296710 -0.00554691
v 0.01142061 0.00310631 -0.00568172
v 0.01168290 0.00337622 -0.00491707
v 0.01139156 0.00404250 -0.00510091
v 0.01155254 0.00399894 -0.00477320
v 0.01157767 0.00270888 -0.00554691
v 0.01118032 0.00417640 -0.00546219
v 0.01114419 0.00434961 -0.00538386
v 0.01135936 0.00451645 -0.00477214
v 0.01123686 0.00478530 -0.00478759
v 0.01119131 0.00497445 -0.00471139
v 0.01142925 0.00416046 -0.00492880
v 0.01112378 0.00504883 -0.00478759
v 0.01090154 0.00515935 -0.00516059
v 0.01102561 0.00528793 -0.00477320
v 0.01093452 0.00547602 -0.00477320
v 0.01089761 0.00566729 -0.00463306
v 0.01062983 0.00616674 -0.00461015
v 0.01015002 0.00648022 -0.00520215
v 0.01030786 0.00657373 -0.00477747
v 0.01008406 0.00690103 -0.00477320
v 0.01012175 0.00695416 -0.00462827
v 0.01035263 0.00665875 -0.00456379
v 0.01046257 0.00632614 -0.00477747
v 0.01036755 0.00641752 -0.00486645
v 0.00965686 0.00753649 -0.00472791
v 0.00988931 0.00725064 -0.00468155
v 0.00930270 0.00793499 -0.00477320
v 0.00912366 0.00802850 -0.00495171
v 0.00915899 0.00811883 -0.00474869
v 0.00955321 0.00761725 -0.00479718
v 0.00882917 0.00824316 -0.00514354
v 0.00872159 0.00839405 -0.00505295
v 0.00856610 0.00849819 -0.00513341
v 0.00861401 0.00854282 -0.00496183
v 0.00885509 0.00801681 -0.00544727
v 0.00807137 0.00877342 -0.00542489
v 0.00811613 0.00880530 -0.00528901
v 0.00820566 0.00885418 -0.00503270
v 0.00851899 0.00845568 -0.00528901
v 0.00860694 0.00827928 -0.00545952
v 0.00838941 0.00857258 -0.00528901
v 0.00824492 0.00870222 -0.00528901
v 0.00788055 0.00907733 -0.00503111
v 0.00800934 0.00899020 -0.00503111
v 0.00757664 0.00929836 -0.00494212
v 0.00751775 0.00926861 -0.00511370
v 0.00767009 0.00921229 -0.00502951
v 0.00705286 0.00955234 -0.00492773
v 0.00710704 0.00957572 -0.00477320
v 0.00723662 0.00951727 -0.00477320
v 0.00690601 0.00958528 -0.00502045
v 0.00666179 0.00960228 -0.00529913
v 0.00638929 0.00969898 -0.00528901
v 0.00638615 0.00976487 -0.00503430
v 0.00647018 0.00978612 -0.00483342
v 0.00629820 0.00981269 -0.00495011
v 0.00613800 0.00984032 -0.00503430
v 0.00587415 0.00990939 -0.00503111
v 0.00561579 0.00996039 -0.00503111
v 0.00502761 0.01006772 -0.00496077
v 0.00519880 0.01005497 -0.00487338
v 0.00535821 0.01000503 -0.00503111
v 0.00477239 0.01006772 -0.00521228
v 0.00455879 0.01006347 -0.00543874
v 0.00455879 0.00832923 -0.00905524
v 0.00473705 0.00826653 -0.00903872
v 0.00504881 0.00804550 -0.00906057
v 0.00579954 0.00752268 -0.00905631
v 0.00608068 0.00728358 -0.00906430
v 0.00551684 0.00776177 -0.00904511
v 0.00634296 0.00704342 -0.00906536
v 0.00684005 0.00657692 -0.00905631
v 0.00710469 0.00627407 -0.00906536
v 0.00693035 0.00634420 -0.00909574
v 0.00718007 0.00607748 -0.00909414
v 0.00890378 0.00322533 -0.00907496
v 0.00845302 0.00399894 -0.00911385
v 0.00915664 0.00245066 -0.00907389
v 0.00918491 0.00219350 -0.00908401
v 0.00922653 0.00141882 -0.00911812
v 0.00940871 0.00116060 -0.00907282
v 0.00743058 0.00580969 -0.00908774
v 0.00767952 0.00528793 -0.00912025
v 0.00795358 0.00504246 -0.00909041
v 0.00819466 0.00451538 -0.00911012
v 0.00939301 0.00141882 -0.00906163
v 0.00955006 0.00090344 -0.00895613
v 0.00953750 0.00116060 -0.00894121
v 0.00964980 0.00116060 -0.00881226
v 0.00952258 0.00141882 -0.00892362
v 0.00986968 0.00153890 -0.00851066
v 0.01009819 0.00167705 -0.00821972
v 0.01020421 0.00167705 -0.00809077
v 0.01035184 0.00141882 -0.00794743
v 0.01044293 0.00141882 -0.00781901
v 0.01066281 0.00141882 -0.00750676
v 0.01088191 0.00141882 -0.00719504
v 0.01109943 0.00141882 -0.00685880
v 0.01095415 0.00167705 -0.00704211
v 0.01118660 0.00116060 -0.00675330
v 0.01154861 0.00141882 -0.00606272
v 0.01167112 0.00097889 -0.00592311
v 0.01171195 0.00141882 -0.00574940
v 0.01180305 0.00141882 -0.00554691
v 0.01215093 0.00116060 -0.00480571
v 0.01221925 0.00090344 -0.00470713
v 0.01229071 0.00090344 -0.00451530
v 0.01211245 0.00167705 -0.00477320
v 0.01218784 0.00151340 -0.00463413
v 0.01193262 0.00179713 -0.00515739
v 0.01197659 0.00193421 -0.00499860
v 0.01172844 0.00193846 -0.00556183
v 0.01166798 0.00202666 -0.00565828
v 0.01153841 0.00287890 -0.00554691
v 0.01143946 0.00296710 -0.00571956
v 0.01148658 0.00287890 -0.00566094
v 0.01133816 0.00320514 -0.00578297
v 0.01119288 0.00374177 -0.00574087
v 0.01116775 0.00389692 -0.00569291
v 0.01139391 0.00327740 -0.00562311
v 0.01145360 0.00320514 -0.00554105
v 0.01137428 0.00296710 -0.00584851
v 0.01114027 0.00406907 -0.00563377
v 0.01120544 0.00398937 -0.00554744
v 0.01145988 0.00268444 -0.00581014
v 0.01110493 0.00426035 -0.00554744
v 0.01098242 0.00453026 -0.00556396
v 0.01092981 0.00502971 -0.00521920
v 0.01064946 0.00516891 -0.00568652
v 0.01090233 0.00541757 -0.00490375
v 0.01060706 0.00560885 -0.00528901
v 0.01027488 0.00596590 -0.00556396
v 0.01058586 0.00596590 -0.00493306
v 0.01059763 0.00607323 -0.00478866
v 0.01067773 0.00599459 -0.00471352
v 0.00992072 0.00656736 -0.00552506
v 0.01010526 0.00641327 -0.00537427
v 0.00980607 0.00709762 -0.00504443
v 0.01021599 0.00607641 -0.00555970
v 0.01011625 0.00617099 -0.00565348
v 0.00975110 0.00736434 -0.00479079
v 0.00961053 0.00747911 -0.00489949
v 0.00962781 0.00724320 -0.00518990
v 0.00902864 0.00791586 -0.00528901
v 0.00930034 0.00741535 -0.00554691
v 0.00865798 0.00832710 -0.00528901
v 0.00878677 0.00819746 -0.00528901
v 0.00904905 0.00768314 -0.00559434
v 0.00912208 0.00751099 -0.00571583
v 0.00880404 0.00795624 -0.00561885
v 0.00870510 0.00811989 -0.00553945
v 0.00833994 0.00852688 -0.00544300
v 0.00817582 0.00862358 -0.00551974
v 0.00804781 0.00849607 -0.00590766
v 0.00786327 0.00855982 -0.00606272
v 0.00777454 0.00874260 -0.00588741
v 0.00760334 0.00880636 -0.00600304
v 0.00768580 0.00884886 -0.00580322
v 0.00768109 0.00896576 -0.00555970
v 0.00759628 0.00905714 -0.00548244
v 0.00792374 0.00893706 -0.00528048
v 0.00782872 0.00904120 -0.00518936
v 0.00854961 0.00822403 -0.00563164
v 0.00844438 0.00837705 -0.00553679
v 0.00734656 0.00931112 -0.00523519
v 0.00742823 0.00934087 -0.00502951
v 0.00742823 0.00923886 -0.00530819
v 0.00728530 0.00928136 -0.00540730
v 0.00768109 0.00909434 -0.00528048
v 0.00743843 0.00912197 -0.00555970
v 0.00681963 0.00956296 -0.00521974
v 0.00690601 0.00949602 -0.00529913
v 0.00640814 0.00961078 -0.00556503
v 0.00675602 0.00953427 -0.00539185
v 0.00658404 0.00957040 -0.00549149
v 0.00613251 0.00970855 -0.00554691
v 0.00613800 0.00977231 -0.00529913
v 0.00622831 0.00979143 -0.00512222
v 0.00588593 0.00984563 -0.00529913
v 0.00605633 0.00981694 -0.00521974
v 0.00563228 0.00984882 -0.00556343
v 0.00561579 0.00991470 -0.00528901
v 0.00535821 0.00996465 -0.00528901
v 0.00510771 0.01004434 -0.00504016
v 0.00494437 0.01005497 -0.00513235
v 0.00455879 0.01004222 -0.00556130
v 0.00509986 0.01000609 -0.00528901
v 0.00484150 0.01000184 -0.00554691
v 0.00458942 0.01004009 -0.00554798
v 0.00455879 0.00843975 -0.00895027
v 0.00458392 0.00843337 -0.00894387
v 0.00481637 0.00836961 -0.00888419
v 0.00509986 0.00828991 -0.00880906
v 0.00523178 0.00825484 -0.00877123
v 0.00490982 0.00821659 -0.00899236
v 0.00522000 0.00798918 -0.00902273
v 0.00625265 0.00721451 -0.00902220
v 0.00535821 0.00794349 -0.00898224
v 0.00552941 0.00802850 -0.00879947
v 0.00560951 0.00786166 -0.00889432
v 0.00568882 0.00769483 -0.00898863
v 0.00597152 0.00745573 -0.00900568
v 0.00677801 0.00670763 -0.00902806
v 0.00664765 0.00676820 -0.00905631
v 0.00703166 0.00644622 -0.00902593
v 0.00735127 0.00600203 -0.00906270
v 0.00736697 0.00596590 -0.00906750
v 0.00867133 0.00374177 -0.00908082
v 0.00861793 0.00399894 -0.00905684
v 0.00886922 0.00342723 -0.00905257
v 0.00911894 0.00270888 -0.00904618
v 0.00845538 0.00424016 -0.00907442
v 0.00928542 0.00245066 -0.00895080
v 0.00931448 0.00219350 -0.00898544
v 0.00935688 0.00181413 -0.00902913
v 0.00937102 0.00167705 -0.00904245
v 0.00758842 0.00572680 -0.00905524
v 0.00767638 0.00553021 -0.00907229
v 0.00786955 0.00528793 -0.00906323
v 0.00810514 0.00496488 -0.00905684
v 0.00962153 0.00159204 -0.00877975
v 0.00985554 0.00167705 -0.00849521
v 0.00982963 0.00193527 -0.00846537
v 0.00991601 0.00219350 -0.00830604
v 0.01007228 0.00193527 -0.00818828
v 0.01017829 0.00193527 -0.00805880
v 0.01033299 0.00167705 -0.00792132
v 0.01065260 0.00159522 -0.00749184
v 0.01086542 0.00167705 -0.00717106
v 0.01117325 0.00141882 -0.00672985
v 0.01109393 0.00166961 -0.00681404
v 0.01116461 0.00157928 -0.00671440
v 0.01093217 0.00193527 -0.00700907
v 0.01151956 0.00167705 -0.00606272
v 0.01161536 0.00148577 -0.00592577
v 0.01164835 0.00141882 -0.00587835
v 0.01169782 0.00167705 -0.00572116
v 0.01177556 0.00167705 -0.00554691
v 0.01194204 0.00162604 -0.00517817
v 0.01219726 0.00134125 -0.00465597
v 0.01168525 0.00185451 -0.00569611
v 0.01138527 0.00287890 -0.00586982
v 0.01140098 0.00275351 -0.00589966
v 0.01117796 0.00341235 -0.00596467
v 0.01115048 0.00358450 -0.00591725
v 0.01112613 0.00374177 -0.00586982
v 0.01108844 0.00398937 -0.00578883
v 0.01124078 0.00298198 -0.00608350
v 0.01120702 0.00322533 -0.00601476
v 0.01092353 0.00417746 -0.00596840
v 0.01097143 0.00426035 -0.00581334
v 0.01162165 0.00193846 -0.00579096
v 0.01093138 0.00445587 -0.00573288
v 0.01089447 0.00462696 -0.00566094
v 0.01086934 0.00479273 -0.00556396
v 0.01043037 0.00524011 -0.00600464
v 0.01051675 0.00529112 -0.00580854
v 0.01043115 0.00549940 -0.00575792
v 0.01038325 0.00567154 -0.00567213
v 0.01060392 0.00534106 -0.00559380
v 0.01067930 0.00502971 -0.00574407
v 0.01064083 0.00489262 -0.00592790
v 0.01061020 0.00502971 -0.00587249
v 0.01051439 0.00554615 -0.00554691
v 0.00988774 0.00647384 -0.00570677
v 0.00982884 0.00664599 -0.00559647
v 0.01006600 0.00632401 -0.00555970
v 0.00958226 0.00717944 -0.00536148
v 0.00959640 0.00694247 -0.00564709
v 0.00989559 0.00622944 -0.00597320
v 0.00994035 0.00631764 -0.00579789
v 0.01016494 0.00599884 -0.00574194
v 0.01007778 0.00607641 -0.00581867
v 0.00936474 0.00723576 -0.00569451
v 0.00921632 0.00733990 -0.00579149
v 0.00906476 0.00744404 -0.00588794
v 0.00887708 0.00778409 -0.00573501
v 0.00857396 0.00798918 -0.00592524
v 0.00863128 0.00805188 -0.00575366
v 0.00831717 0.00824741 -0.00592471
v 0.00799284 0.00844718 -0.00606272
v 0.00781458 0.00851626 -0.00619966
v 0.00753581 0.00875960 -0.00617462
v 0.00768580 0.00869903 -0.00607870
v 0.00741802 0.00889562 -0.00605739
v 0.00729865 0.00903164 -0.00594016
v 0.00747848 0.00898276 -0.00580481
v 0.00753502 0.00901676 -0.00565402
v 0.00723269 0.00925267 -0.00554691
v 0.00704815 0.00929199 -0.00569291
v 0.00710390 0.00931856 -0.00554691
v 0.00734970 0.00906458 -0.00580481
v 0.00633511 0.00957359 -0.00575952
v 0.00615606 0.00961610 -0.00582933
v 0.00666179 0.00951089 -0.00556503
v 0.00625894 0.00954277 -0.00593163
v 0.00587415 0.00971492 -0.00580481
v 0.00588593 0.00977762 -0.00556343
v 0.00572965 0.00979675 -0.00565988
v 0.00536999 0.00984669 -0.00581814
v 0.00535821 0.00991683 -0.00554691
v 0.00555768 0.00982119 -0.00574087
v 0.00509986 0.00996146 -0.00554691
v 0.00458392 0.00999546 -0.00580481
v 0.00455879 0.01000290 -0.00578190
v 0.00484150 0.00995721 -0.00580481
v 0.00455879 0.00855982 -0.00882131
v 0.00489647 0.00847269 -0.00872807
v 0.00512106 0.00843549 -0.00864174
v 0.00482344 0.00859064 -0.00864174
v 0.00540376 0.00820171 -0.00871901
v 0.00533387 0.00811883 -0.00883730
v 0.00512027 0.00812839 -0.00895293
v 0.00522079 0.00850775 -0.00850746
v 0.00533387 0.00832285 -0.00863588
v 0.00615292 0.00736222 -0.00896146
v 0.00626443 0.00748336 -0.00877283
v 0.00656598 0.00777771 -0.00828899
v 0.00655106 0.00750993 -0.00853730
v 0.00653379 0.00723576 -0.00878135
v 0.00570138 0.00796262 -0.00873926
v 0.00571002 0.00822934 -0.00848668
v 0.00613251 0.00766507 -0.00870355
v 0.00681335 0.00725702 -0.00854103
v 0.00716987 0.00709974 -0.00838757
v 0.00705521 0.00672782 -0.00878775
v 0.00696962 0.00657692 -0.00897478
v 0.00736226 0.00631976 -0.00883091
v 0.00744943 0.00609448 -0.00892309
v 0.00727667 0.00617418 -0.00901474
v 0.00741173 0.00596590 -0.00904245
v 0.00752246 0.00693185 -0.00822931
v 0.00835957 0.00451538 -0.00905311
v 0.00858652 0.00414239 -0.00903393
v 0.00912130 0.00341554 -0.00879734
v 0.00903335 0.00322533 -0.00896199
v 0.00909774 0.00284065 -0.00902860
v 0.00882917 0.00359938 -0.00902167
v 0.00897759 0.00350693 -0.00890924
v 0.00940165 0.00245066 -0.00882185
v 0.00943149 0.00219350 -0.00885648
v 0.00937495 0.00264300 -0.00879148
v 0.00987439 0.00259093 -0.00825755
v 0.00776040 0.00560566 -0.00898224
v 0.00782008 0.00543351 -0.00903766
v 0.00752324 0.00589895 -0.00900355
v 0.00805017 0.00513597 -0.00901368
v 0.00827712 0.00481505 -0.00897957
v 0.00832423 0.00464396 -0.00902753
v 0.00980293 0.00219350 -0.00843499
v 0.00988931 0.00245066 -0.00827514
v 0.01004558 0.00219350 -0.00815524
v 0.01013589 0.00235608 -0.00800498
v 0.01030708 0.00193527 -0.00788562
v 0.01039974 0.00193527 -0.00775667
v 0.01071307 0.00193527 -0.00731866
v 0.01063690 0.00176737 -0.00747106
v 0.01084186 0.00193527 -0.00713802
v 0.01103661 0.00193527 -0.00683536
v 0.01115204 0.00175037 -0.00669255
v 0.01142218 0.00182582 -0.00619913
v 0.01143239 0.00167705 -0.00621724
v 0.01091332 0.00212017 -0.00698189
v 0.01163421 0.00167705 -0.00585011
v 0.01142454 0.00257286 -0.00592577
v 0.01141826 0.00258136 -0.00593430
v 0.01138920 0.00274076 -0.00592577
v 0.01118032 0.00290653 -0.00622684
v 0.01113241 0.00322533 -0.00614371
v 0.01084735 0.00374177 -0.00635579
v 0.01101776 0.00374177 -0.00606272
v 0.01094473 0.00397450 -0.00605739
v 0.01090939 0.00285978 -0.00671866
v 0.01115440 0.00307868 -0.00618261
v 0.01088583 0.00434961 -0.00590499
v 0.01062905 0.00382360 -0.00668243
v 0.01040602 0.00391924 -0.00699308
v 0.01046257 0.00400319 -0.00684495
v 0.01036990 0.00409032 -0.00693767
v 0.01040131 0.00467797 -0.00647408
v 0.01147401 0.00192146 -0.00607444
v 0.01151799 0.00209998 -0.00592577
v 0.01048063 0.00504352 -0.00607977
v 0.01037618 0.00513810 -0.00617675
v 0.01034477 0.00531131 -0.00607977
v 0.01038325 0.00541226 -0.00593004
v 0.01036362 0.00485012 -0.00641387
v 0.01041702 0.00496701 -0.00624176
v 0.00983748 0.00640158 -0.00587888
v 0.00941500 0.00708487 -0.00579043
v 0.00953986 0.00709337 -0.00555544
v 0.00966629 0.00626982 -0.00627106
v 0.00975188 0.00633464 -0.00607817
v 0.00960582 0.00669700 -0.00592311
v 0.01011704 0.00591170 -0.00591405
v 0.01005265 0.00596590 -0.00596840
v 0.00994192 0.00605729 -0.00606059
v 0.00960739 0.00592552 -0.00670001
v 0.00959797 0.00596590 -0.00667550
v 0.00956970 0.00608385 -0.00660037
v 0.00931055 0.00716457 -0.00586663
v 0.00913858 0.00727189 -0.00599185
v 0.00863442 0.00780216 -0.00606272
v 0.00835015 0.00777028 -0.00648634
v 0.00827555 0.00794136 -0.00638509
v 0.00833916 0.00801362 -0.00621298
v 0.00801876 0.00820915 -0.00638882
v 0.00826769 0.00819746 -0.00606272
v 0.00808394 0.00826972 -0.00621671
v 0.00784678 0.00828566 -0.00649486
v 0.00766538 0.00857045 -0.00629984
v 0.00743922 0.00872028 -0.00634353
v 0.00728844 0.00876704 -0.00644477
v 0.00736383 0.00881380 -0.00627319
v 0.00714709 0.00906777 -0.00604140
v 0.00714631 0.00919316 -0.00578936
v 0.00722169 0.00898595 -0.00611227
v 0.00697276 0.00899126 -0.00638083
v 0.00680078 0.00929624 -0.00596147
v 0.00689423 0.00932281 -0.00578936
v 0.00697276 0.00925373 -0.00586503
v 0.00672382 0.00925905 -0.00613359
v 0.00587415 0.00963629 -0.00606272
v 0.00606576 0.00956934 -0.00606272
v 0.00655263 0.00930049 -0.00623003
v 0.00619454 0.00951727 -0.00606272
v 0.00600372 0.00954384 -0.00619220
v 0.00638772 0.00933556 -0.00631795
v 0.00561579 0.00971067 -0.00606272
v 0.00510535 0.00984244 -0.00607071
v 0.00509986 0.00991045 -0.00580481
v 0.00546344 0.00979568 -0.00591298
v 0.00458392 0.00994658 -0.00606272
v 0.00455879 0.00995508 -0.00603714
v 0.00484150 0.00990301 -0.00606272
v 0.00455879 0.00870647 -0.00865879
v 0.00471035 0.00876810 -0.00851013
v 0.00520587 0.00875854 -0.00823944
v 0.00504881 0.00855239 -0.00855595
v 0.00553726 0.00828566 -0.00854689
v 0.00627621 0.00775115 -0.00852292
v 0.00636888 0.00784997 -0.00836732
v 0.00645997 0.00794986 -0.00821173
v 0.00665629 0.00787335 -0.00813233
v 0.00673796 0.00770333 -0.00822505
v 0.00672382 0.00742810 -0.00846856
v 0.00628799 0.00801787 -0.00827354
v 0.00600293 0.00825378 -0.00825382
v 0.00682984 0.00753118 -0.00829698
v 0.00700260 0.00744936 -0.00822771
v 0.00726489 0.00719538 -0.00823091
v 0.00735048 0.00702323 -0.00830285
v 0.00784128 0.00648766 -0.00828313
v 0.00754759 0.00618799 -0.00876696
v 0.00749890 0.00596590 -0.00897584
v 0.00744393 0.00711568 -0.00814405
v 0.00753738 0.00720814 -0.00798260
v 0.00761434 0.00703705 -0.00805720
v 0.00769130 0.00684896 -0.00813766
v 0.00776825 0.00665981 -0.00821759
v 0.00854254 0.00431348 -0.00898863
v 0.00888336 0.00446863 -0.00855808
v 0.00913622 0.00446756 -0.00829752
v 0.00906319 0.00425716 -0.00847709
v 0.00874672 0.00399894 -0.00893055
v 0.00937102 0.00339960 -0.00853038
v 0.00915350 0.00322533 -0.00883304
v 0.00930270 0.00374177 -0.00845737
v 0.00942363 0.00374177 -0.00832789
v 0.00955321 0.00374177 -0.00818881
v 0.00959090 0.00355262 -0.00823091
v 0.00912758 0.00287890 -0.00898330
v 0.00918491 0.00425716 -0.00834814
v 0.00975659 0.00287890 -0.00828846
v 0.00982963 0.00287890 -0.00820693
v 0.00993171 0.00287890 -0.00808544
v 0.00994663 0.00268975 -0.00813500
v 0.01011704 0.00252823 -0.00798100
v 0.01003380 0.00244534 -0.00810462
v 0.00792217 0.00552384 -0.00888366
v 0.00779103 0.00590852 -0.00875364
v 0.00799834 0.00528793 -0.00896465
v 0.00781694 0.00620074 -0.00851972
v 0.00808394 0.00621456 -0.00827141
v 0.00813577 0.00528793 -0.00883517
v 0.00831403 0.00514128 -0.00876004
v 0.00820958 0.00505308 -0.00891083
v 0.00909381 0.00463865 -0.00825116
v 0.00862735 0.00447075 -0.00881705
v 0.01064632 0.00258774 -0.00722488
v 0.01066046 0.00245066 -0.00724513
v 0.01113555 0.00193527 -0.00666271
v 0.01089526 0.00229126 -0.00695365
v 0.01095337 0.00245066 -0.00679646
v 0.01076647 0.00245066 -0.00709326
v 0.01133894 0.00268444 -0.00603767
v 0.01112927 0.00270888 -0.00639575
v 0.01063219 0.00331990 -0.00694566
v 0.01090154 0.00387036 -0.00619220
v 0.01089212 0.00287890 -0.00673785
v 0.01092588 0.00270888 -0.00674904
v 0.01085050 0.00270888 -0.00687799
v 0.01068716 0.00296710 -0.00702612
v 0.01057251 0.00373965 -0.00682204
v 0.01043665 0.00374177 -0.00703625
v 0.01034320 0.00374177 -0.00716466
v 0.00990187 0.00369289 -0.00778171
v 0.00980842 0.00376303 -0.00786697
v 0.00986732 0.00386398 -0.00773429
v 0.01016337 0.00399894 -0.00726910
v 0.01009741 0.00431348 -0.00718118
v 0.01012411 0.00463546 -0.00695845
v 0.01017358 0.00477148 -0.00678101
v 0.01013981 0.00492450 -0.00672612
v 0.01000474 0.00504033 -0.00684335
v 0.01020421 0.00528580 -0.00632222
v 0.01007071 0.00581713 -0.00607124
v 0.00937416 0.00699242 -0.00596307
v 0.00923202 0.00633039 -0.00684602
v 0.00923045 0.00684258 -0.00632808
v 0.00931841 0.00614017 -0.00691209
v 0.00989009 0.00596590 -0.00622364
v 0.00937887 0.00596802 -0.00699468
v 0.00955478 0.00596590 -0.00673944
v 0.00983512 0.00586920 -0.00639469
v 0.00974560 0.00581075 -0.00658492
v 0.00960032 0.00565454 -0.00694619
v 0.00956577 0.00582563 -0.00685028
v 0.00943149 0.00605729 -0.00682950
v 0.00908439 0.00694885 -0.00643305
v 0.00885038 0.00697860 -0.00672293
v 0.00877734 0.00715075 -0.00662435
v 0.00853312 0.00742385 -0.00664087
v 0.00863913 0.00759388 -0.00629877
v 0.00828733 0.00769589 -0.00665845
v 0.00810278 0.00803700 -0.00649806
v 0.00811535 0.00779365 -0.00677142
v 0.00803525 0.00796474 -0.00667017
v 0.00794102 0.00812945 -0.00658225
v 0.00777296 0.00822190 -0.00666698
v 0.00760177 0.00829522 -0.00676555
v 0.00767166 0.00837705 -0.00656946
v 0.00757036 0.00852688 -0.00647195
v 0.00749419 0.00846737 -0.00664406
v 0.00741330 0.00858533 -0.00656627
v 0.00732221 0.00853538 -0.00673944
v 0.00703951 0.00877342 -0.00671227
v 0.00680078 0.00904227 -0.00647621
v 0.00689423 0.00907733 -0.00630463
v 0.00664215 0.00921442 -0.00631795
v 0.00689423 0.00920485 -0.00605366
v 0.00647253 0.00926436 -0.00640161
v 0.00587415 0.00956722 -0.00625028
v 0.00556317 0.00957147 -0.00651724
v 0.00563621 0.00961185 -0.00634140
v 0.00535821 0.00970217 -0.00632062
v 0.00629977 0.00930155 -0.00648527
v 0.00576499 0.00929411 -0.00698136
v 0.00563621 0.00951196 -0.00659344
v 0.00519488 0.00979250 -0.00616183
v 0.00502290 0.00981481 -0.00623536
v 0.00455879 0.00994977 -0.00606272
v 0.00455879 0.00988920 -0.00632062
v 0.00483207 0.00983288 -0.00632115
v 0.00458392 0.00988495 -0.00632062
v 0.00455879 0.00879786 -0.00854903
v 0.00503389 0.00879573 -0.00828793
v 0.00455879 0.00892112 -0.00837638
v 0.00497107 0.00902739 -0.00799645
v 0.00535821 0.00881167 -0.00805720
v 0.00550192 0.00877767 -0.00800658
v 0.00535821 0.00871285 -0.00818615
v 0.00552077 0.00853326 -0.00827780
v 0.00637673 0.00811564 -0.00811581
v 0.00657384 0.00804125 -0.00804015
v 0.00684162 0.00779790 -0.00805240
v 0.00674660 0.00797005 -0.00796821
v 0.00692329 0.00762469 -0.00814032
v 0.00617491 0.00818896 -0.00819201
v 0.00610581 0.00831223 -0.00811315
v 0.00629270 0.00827503 -0.00802043
v 0.00598566 0.00850138 -0.00798366
v 0.00736540 0.00729208 -0.00805933
v 0.00801326 0.00638671 -0.00820587
v 0.00791510 0.00629426 -0.00836306
v 0.00779103 0.00720282 -0.00771990
v 0.00770307 0.00711994 -0.00789148
v 0.00778553 0.00693822 -0.00797194
v 0.00727667 0.00746423 -0.00797993
v 0.00719107 0.00789354 -0.00763464
v 0.00727667 0.00798068 -0.00746466
v 0.00753659 0.00746636 -0.00772416
v 0.00779417 0.00746530 -0.00746573
v 0.00804860 0.00745998 -0.00720356
v 0.00785935 0.00676607 -0.00804548
v 0.00810436 0.00649403 -0.00803375
v 0.00938437 0.00445269 -0.00803215
v 0.00931291 0.00425716 -0.00820960
v 0.00924066 0.00454514 -0.00814192
v 0.00962074 0.00338047 -0.00826395
v 0.00940008 0.00322533 -0.00856181
v 0.00934589 0.00410839 -0.00824476
v 0.00942756 0.00425716 -0.00808064
v 0.00963016 0.00391180 -0.00801723
v 0.00966550 0.00374177 -0.00805986
v 0.00969927 0.00347399 -0.00813713
v 0.00964587 0.00322533 -0.00829059
v 0.00989245 0.00316901 -0.00802416
v 0.01009270 0.00270888 -0.00794743
v 0.01062512 0.00275989 -0.00719610
v 0.00826141 0.00596590 -0.00827034
v 0.00826455 0.00528793 -0.00871261
v 0.00818053 0.00630063 -0.00810995
v 0.00833994 0.00621562 -0.00801457
v 0.00826691 0.00606154 -0.00819734
v 0.00878284 0.00528793 -0.00819787
v 0.00882682 0.00513810 -0.00824210
v 0.00860537 0.00545264 -0.00827780
v 0.00912523 0.00495426 -0.00802896
v 0.00917548 0.00477148 -0.00808331
v 0.00934432 0.00462484 -0.00798420
v 0.01070757 0.00268763 -0.00710339
v 0.01087877 0.00245066 -0.00692488
v 0.01082144 0.00295435 -0.00681671
v 0.01065967 0.00314669 -0.00698722
v 0.01069344 0.00287890 -0.00705117
v 0.01059449 0.00296710 -0.00715507
v 0.01060784 0.00287890 -0.00717266
v 0.01037226 0.00356856 -0.00720356
v 0.01013667 0.00363657 -0.00749237
v 0.00984298 0.00348355 -0.00795969
v 0.00959325 0.00408501 -0.00797141
v 0.00992464 0.00451538 -0.00729415
v 0.01006600 0.00453557 -0.00709433
v 0.00988774 0.00468222 -0.00724619
v 0.00995684 0.00477042 -0.00710179
v 0.00991365 0.00498189 -0.00702239
v 0.01009348 0.00477148 -0.00690996
v 0.00986732 0.00515510 -0.00696058
v 0.00991679 0.00552596 -0.00656413
v 0.00904356 0.00659499 -0.00685348
v 0.00908675 0.00643559 -0.00695099
v 0.00941735 0.00578525 -0.00708580
v 0.00936081 0.00568642 -0.00723127
v 0.00911973 0.00571086 -0.00750942
v 0.00914407 0.00596590 -0.00727497
v 0.00907497 0.00616143 -0.00719770
v 0.00885587 0.00672994 -0.00698616
v 0.00964744 0.00548239 -0.00701067
v 0.00953907 0.00555890 -0.00709539
v 0.00878677 0.00690103 -0.00689504
v 0.00869646 0.00707743 -0.00681777
v 0.00829754 0.00744936 -0.00692914
v 0.00820644 0.00762257 -0.00685028
v 0.00804860 0.00772033 -0.00694353
v 0.00786327 0.00804975 -0.00677088
v 0.00769601 0.00814114 -0.00685401
v 0.00752639 0.00823253 -0.00693767
v 0.00742508 0.00838449 -0.00683856
v 0.00724447 0.00847481 -0.00691156
v 0.00695705 0.00871285 -0.00688385
v 0.00678429 0.00877448 -0.00697124
v 0.00688481 0.00880742 -0.00681298
v 0.00671990 0.00899551 -0.00664833
v 0.00707249 0.00854176 -0.00700161
v 0.00663901 0.00908477 -0.00656840
v 0.00638772 0.00921654 -0.00657426
v 0.00620554 0.00926011 -0.00665738
v 0.00546580 0.00953534 -0.00668829
v 0.00529382 0.00956615 -0.00675596
v 0.00537078 0.00960441 -0.00659344
v 0.00509986 0.00968729 -0.00657799
v 0.00510535 0.00976699 -0.00632115
v 0.00593618 0.00925586 -0.00690463
v 0.00585923 0.00919741 -0.00707728
v 0.00561579 0.00925905 -0.00716946
v 0.00548622 0.00928455 -0.00722115
v 0.00561579 0.00932068 -0.00704051
v 0.00491139 0.00978825 -0.00640694
v 0.00455879 0.00982756 -0.00653163
v 0.00473941 0.00980737 -0.00646822
v 0.00455879 0.00901676 -0.00823890
v 0.00456822 0.00909115 -0.00812807
v 0.00484150 0.00905289 -0.00803162
v 0.00458392 0.00923142 -0.00790800
v 0.00481951 0.00918572 -0.00784299
v 0.00489097 0.00925692 -0.00768526
v 0.00507473 0.00907308 -0.00785738
v 0.00514305 0.00898913 -0.00793731
v 0.00535507 0.00894450 -0.00785738
v 0.00543910 0.00900614 -0.00770445
v 0.00563385 0.00897426 -0.00761440
v 0.00579405 0.00879361 -0.00777212
v 0.00596602 0.00874898 -0.00771084
v 0.00573280 0.00902208 -0.00747106
v 0.00587729 0.00885630 -0.00761813
v 0.00588985 0.00865227 -0.00787816
v 0.00559773 0.00862996 -0.00811208
v 0.00646468 0.00821446 -0.00795063
v 0.00701438 0.00771821 -0.00797674
v 0.00701281 0.00797643 -0.00771883
v 0.00665472 0.00813158 -0.00787390
v 0.00673639 0.00822296 -0.00770232
v 0.00700496 0.00823040 -0.00745347
v 0.00710390 0.00754606 -0.00805560
v 0.00613251 0.00845568 -0.00792985
v 0.00613251 0.00856620 -0.00780143
v 0.00627307 0.00852051 -0.00774814
v 0.00636966 0.00836748 -0.00784938
v 0.00795437 0.00711356 -0.00762718
v 0.00819388 0.00657586 -0.00786537
v 0.00803054 0.00666618 -0.00795809
v 0.00710469 0.00805825 -0.00754672
v 0.00727195 0.00823678 -0.00720143
v 0.00736305 0.00806463 -0.00729255
v 0.00744943 0.00789567 -0.00737887
v 0.00753581 0.00772352 -0.00746573
v 0.00770779 0.00763745 -0.00737940
v 0.00779260 0.00772246 -0.00720676
v 0.00787662 0.00755137 -0.00729362
v 0.00812556 0.00754818 -0.00703145
v 0.00837057 0.00727827 -0.00701760
v 0.00861558 0.00700517 -0.00700427
v 0.00853783 0.00691484 -0.00717585
v 0.00827633 0.00638671 -0.00794423
v 0.00958462 0.00458020 -0.00770285
v 0.00986496 0.00334009 -0.00799006
v 0.01007778 0.00287890 -0.00789681
v 0.01038561 0.00287890 -0.00747905
v 0.01038953 0.00284915 -0.00748544
v 0.00831638 0.00592127 -0.00824636
v 0.00854726 0.00562585 -0.00822025
v 0.00859830 0.00647384 -0.00750090
v 0.00864070 0.00629851 -0.00759575
v 0.00852291 0.00606154 -0.00792718
v 0.00855589 0.00596590 -0.00796608
v 0.00862971 0.00574699 -0.00804867
v 0.00839413 0.00606154 -0.00806892
v 0.00890378 0.00528793 -0.00806892
v 0.00885823 0.00544839 -0.00801883
v 0.00870353 0.00553659 -0.00811954
v 0.00907732 0.00512534 -0.00797301
v 0.00930427 0.00477148 -0.00793358
v 0.00960660 0.00489156 -0.00747372
v 0.00984769 0.00485437 -0.00719397
v 0.01045236 0.00294904 -0.00735809
v 0.01015473 0.00292354 -0.00777372
v 0.01006757 0.00299261 -0.00786271
v 0.00981392 0.00505308 -0.00710179
v 0.00958148 0.00536019 -0.00718278
v 0.00940086 0.00554615 -0.00728029
v 0.00909931 0.00542182 -0.00774175
v 0.00880247 0.00562160 -0.00795382
v 0.00887550 0.00572893 -0.00778224
v 0.00896895 0.00580544 -0.00761066
v 0.00889121 0.00631976 -0.00728402
v 0.00884331 0.00645684 -0.00722807
v 0.00878206 0.00662793 -0.00715827
v 0.00835329 0.00648553 -0.00777265
v 0.00861008 0.00674269 -0.00725578
v 0.00869882 0.00682239 -0.00708154
v 0.00854176 0.00717626 -0.00691209
v 0.00787662 0.00780534 -0.00703465
v 0.00778867 0.00797749 -0.00694246
v 0.00735519 0.00830160 -0.00702932
v 0.00761748 0.00806038 -0.00703411
v 0.00651729 0.00876917 -0.00722061
v 0.00664765 0.00881167 -0.00703305
v 0.00654714 0.00904333 -0.00673252
v 0.00698140 0.00847269 -0.00717372
v 0.00680942 0.00853538 -0.00725152
v 0.00709998 0.00830160 -0.00728136
v 0.00637594 0.00907946 -0.00682523
v 0.00611130 0.00907096 -0.00707728
v 0.00517760 0.00952577 -0.00692754
v 0.00500562 0.00955446 -0.00698882
v 0.00484150 0.00957997 -0.00704690
v 0.00509514 0.00959059 -0.00683909
v 0.00484150 0.00966179 -0.00683483
v 0.00458392 0.00972449 -0.00683483
v 0.00587415 0.00906883 -0.00728616
v 0.00538256 0.00924630 -0.00736129
v 0.00563385 0.00912940 -0.00737141
v 0.00519252 0.00927180 -0.00745401
v 0.00501976 0.00930155 -0.00751369
v 0.00484150 0.00943970 -0.00735063
v 0.00458392 0.00978400 -0.00665259
v 0.00455879 0.00973830 -0.00681031
v 0.00455879 0.00909965 -0.00811901
v 0.00455879 0.00923567 -0.00791439
v 0.00471899 0.00928774 -0.00774121
v 0.00510378 0.00921867 -0.00760320
v 0.00535507 0.00910178 -0.00761440
v 0.00526712 0.00904545 -0.00776519
v 0.00607596 0.00880955 -0.00753926
v 0.00624794 0.00876066 -0.00746786
v 0.00614900 0.00870541 -0.00761813
v 0.00587415 0.00898807 -0.00741511
v 0.00556003 0.00906139 -0.00753234
v 0.00656441 0.00828672 -0.00777851
v 0.00683298 0.00829416 -0.00753020
v 0.00753502 0.00798068 -0.00720623
v 0.00762141 0.00780853 -0.00729362
v 0.00903256 0.00528793 -0.00791706
v 0.00942992 0.00501695 -0.00760800
v 0.00967178 0.00502971 -0.00729681
v 0.00612936 0.00889775 -0.00734957
v 0.00618355 0.00898701 -0.00715347
v 0.00601157 0.00903164 -0.00723021
v 0.00471193 0.00954277 -0.00722168
v 0.00455879 0.00958209 -0.00723287
v 0.00460905 0.00961503 -0.00711884
v 0.00455879 0.00962885 -0.00711404
v 0.00455879 0.00972980 -0.00683536
v 0.00481951 0.00932387 -0.00760320
v 0.00455879 0.00930899 -0.00778757
v 0.00458392 0.00930687 -0.00777851
v 0.00455879 0.00940994 -0.00758775
v 0.00455879 0.00955340 -0.00729735
v 0.00460905 0.00950877 -0.00735756
v 0.00455879 0.00956615 -0.00726964
f 1 2 5
f 1 5 10
f 1 10 18
f 1 18 41
f 1 41 72
f 1 72 133
f 1 133 134
f 1 134 132
f 1 132 131
f 1 131 220
f 1 220 316
f 1 316 433
f 1 433 555
f 1 555 674
f 1 674 803
f 1 803 931
f 1 931 932
f 1 932 1049
f 1 1049 1157
f 1 1157 1183
f 1 1183 1182
f 1 1182 1180
f 1 1180 1190
f 1 1190 1188
f 1 1188 1187
f 1 1187 1185
f 1 1185 1159
f 1 1159 1158
f 1 1158 1051
f 1 1051 937
f 1 937 935
f 1 935 805
f 1 805 676
f 1 676 559
f 1 559 434
f 1 434 317
f 1 317 222
f 1 222 135
f 1 135 52
f 1 52 23
f 1 23 15
f 1 15 14
f 1 14 12
f 1 12 7
f 1 7 3
f 1 3 4
f 1 4 2
f 2 4 6
f 2 6 5
f 3 7 8
f 3 8 4
f 4 8 9
f 4 9 6
f 5 6 10
f 6 9 11
f 6 11 10
f 7 12 8
f 8 13 9
f 8 12 14
f 8 14 15
f 8 15 13
f 9 16 39
f 9 39 67
f 9 67 155
f 9 155 162
f 9 162 252
f 9 252 164
f 9 164 163
f 9 163 73
f 9 73 42
f 9 42 19
f 9 19 11
f 9 13 17
f 9 17 24
f 9 24 16
f 10 11 18
f 11 19 43
f 11 43 76
f 11 76 168
f 11 168 257
f 11 257 361
f 11 361 362
f 11 362 258
f 11 258 169
f 11 169 77
f 11 77 44
f 11 44 20
f 11 20 21
f 11 21 22
f 11 22 18
f 13 15 17
f 15 23 17
f 16 24 25
f 16 25 26
f 16 26 27
f 16 27 28
f 16 28 29
f 16 29 30
f 16 30 31
f 16 31 32
f 16 32 33
f 16 33 34
f 16 34 35
f 16 35 36
f 16 36 37
f 16 37 38
f 16 38 39
f 17 40 71
f 17 71 138
f 17 138 227
f 17 227 139
f 17 139 53
f 17 53 24
f 17 23 40
f 18 22 41
f 19 42 75
f 19 75 43
f 20 44 127
f 20 127 45
f 20 45 46
f 20 46 47
f 20 47 48
f 20 48 49
f 20 49 50
f 20 50 51
f 20 51 21
f 21 51 41
f 21 41 22
f 23 52 71
f 23 71 40
f 24 53 25
f 25 53 54
f 25 54 26
f 26 54 55
f 26 55 27
f 27 55 56
f 27 56 28
f 28 56 29
f 29 56 57
f 29 57 58
f 29 58 30
f 30 58 31
f 31 58 32
f 32 58 59
f 32 59 60
f 32 60 61
f 32 61 33
f 33 61 62
f 33 62 34
f 34 62 35
f 35 62 63
f 35 63 36
f 36 63 64
f 36 64 65
f 36 65 66
f 36 66 37
f 37 66 38
f 38 67 39
f 38 66 68
f 38 68 69
f 38 69 70
f 38 70 67
f 41 51 72
f 42 73 74
f 42 74 75
f 43 75 76
f 44 77 78
f 44 78 79
f 44 79 80
f 44 80 81
f 44 81 82
f 44 82 83
f 44 83 84
f 44 84 85
f 44 85 86
f 44 86 87
f 44 87 88
f 44 88 89
f 44 89 90
f 44 90 91
f 44 91 92
f 44 92 93
f 44 93 94
f 44 94 95
f 44 95 96
f 44 96 97
f 44 97 98
f 44 98 99
f 44 99 100
f 44 100 101
f 44 101 102
f 44 102 103
f 44 103 104
f 44 104 105
f 44 105 106
f 44 106 107
f 44 107 108
f 44 108 109
f 44 109 110
f 44 110 111
f 44 111 112
f 44 112 113
f 44 113 114
f 44 114 115
f 44 115 116
f 44 116 117
f 44 117 118
f 44 118 119
f 44 119 120
f 44 120 121
f 44 121 122
f 44 122 123
f 44 123 124
f 44 124 125
f 44 125 126
f 44 126 127
f 45 127 128
f 45 128 129
f 45 129 46
f 46 129 47
f 47 129 130
f 47 130 131
f 47 131 48
f 48 131 132
f 48 132 49
f 49 133 50
f 49 132 134
f 49 134 133
f 50 133 72
f 50 72 51
f 52 135 136
f 52 136 137
f 52 137 138
f 52 138 71
f 53 139 140
f 53 140 54
f 54 140 235
f 54 235 141
f 54 141 55
f 55 141 56
f 56 141 142
f 56 142 57
f 57 142 236
f 57 236 143
f 57 143 240
f 57 240 144
f 57 144 58
f 58 144 145
f 58 145 146
f 58 146 59
f 59 146 242
f 59 242 147
f 59 147 148
f 59 148 60
f 60 148 149
f 60 149 61
f 61 149 150
f 61 150 62
f 62 150 151
f 62 151 63
f 63 151 152
f 63 152 64
f 64 152 153
f 64 153 65
f 65 153 154
f 65 154 66
f 66 154 156
f 66 156 68
f 67 70 155
f 68 156 159
f 68 159 69
f 69 157 158
f 69 158 70
f 69 159 249
f 69 249 157
f 70 158 160
f 70 160 161
f 70 161 162
f 70 162 155
f 73 163 74
f 74 163 164
f 74 164 160
f 74 160 165
f 74 165 75
f 75 165 166
f 75 166 167
f 75 167 76
f 76 167 255
f 76 255 168
f 77 169 170
f 77 170 171
f 77 171 172
f 77 172 78
f 78 172 79
f 79 173 174
f 79 174 81
f 79 81 80
f 79 172 171
f 79 171 173
f 81 175 176
f 81 176 177
f 81 177 178
f 81 178 82
f 81 174 175
f 82 178 83
f 83 178 84
f 84 179 85
f 84 178 177
f 84 177 179
f 85 179 86
f 86 179 87
f 87 179 88
f 88 179 180
f 88 180 89
f 89 180 181
f 89 181 182
f 89 182 90
f 90 182 183
f 90 183 184
f 90 184 91
f 91 184 92
f 92 184 93
f 93 184 185
f 93 185 94
f 94 185 186
f 94 186 95
f 95 186 187
f 95 187 96
f 96 187 188
f 96 188 97
f 97 188 98
f 98 188 189
f 98 189 99
f 99 189 100
f 100 189 190
f 100 190 101
f 101 190 102
f 102 190 191
f 102 191 103
f 103 191 104
f 104 191 192
f 104 192 105
f 105 192 193
f 105 193 106
f 106 193 194
f 106 194 195
f 106 195 107
f 107 195 108
f 108 195 196
f 108 196 109
f 109 196 197
f 109 197 110
f 110 198 199
f 110 199 111
f 110 197 198
f 111 199 200
f 111 200 112
f 112 200 201
f 112 201 202
f 112 202 113
f 113 202 203
f 113 203 114
f 114 203 115
f 115 203 204
f 115 204 116
f 116 204 205
f 116 205 206
f 116 206 117
f 117 206 207
f 117 207 118
f 118 207 208
f 118 208 209
f 118 209 119
f 119 209 120
f 120 209 210
f 120 210 121
f 121 210 211
f 121 211 212
f 121 212 122
f 122 212 123
f 123 212 213
f 123 213 124
f 124 213 214
f 124 214 125
f 125 214 215
f 125 215 126
f 126 215 216
f 126 216 127
f 127 216 217
f 127 217 128
f 128 217 218
f 128 218 129
f 129 218 219
f 129 219 130
f 130 219 218
f 130 218 313
f 130 313 429
f 130 429 432
f 130 432 316
f 130 316 220
f 130 220 131
f 135 221 136
f 135 222 221
f 136 221 223
f 136 223 224
f 136 224 225
f 136 225 137
f 137 225 226
f 137 226 138
f 138 226 228
f 138 228 229
f 138 229 230
f 138 230 231
f 138 231 227
f 139 232 140
f 139 227 232
f 140 232 233
f 140 233 234
f 140 234 235
f 141 235 236
f 141 236 142
f 143 236 237
f 143 237 238
f 143 238 239
f 143 239 240
f 144 240 241
f 144 241 145
f 145 241 242
f 145 242 146
f 147 242 239
f 147 239 243
f 147 243 148
f 148 243 149
f 149 243 244
f 149 244 150
f 150 244 245
f 150 245 246
f 150 246 151
f 151 246 152
f 152 246 247
f 152 247 153
f 153 247 154
f 154 247 248
f 154 248 156
f 156 248 159
f 157 165 160
f 157 160 158
f 157 249 253
f 157 253 165
f 159 248 250
f 159 250 251
f 159 251 249
f 160 164 252
f 160 252 161
f 161 252 162
f 165 253 254
f 165 254 166
f 166 254 255
f 166 255 167
f 168 255 256
f 168 256 257
f 169 258 259
f 169 259 170
f 170 258 260
f 170 260 261
f 170 261 171
f 170 259 258
f 171 261 262
f 171 262 263
f 171 263 174
f 171 174 173
f 174 264 175
f 174 263 264
f 175 265 266
f 175 266 267
f 175 267 268
f 175 268 176
f 175 264 269
f 175 269 265
f 176 268 270
f 176 270 271
f 176 271 179
f 176 179 177
f 179 271 180
f 180 272 181
f 180 271 273
f 180 273 272
f 181 274 183
f 181 183 182
f 181 272 274
f 183 274 275
f 183 275 184
f 184 275 276
f 184 276 277
f 184 277 278
f 184 278 185
f 185 278 279
f 185 279 186
f 186 279 280
f 186 280 187
f 187 280 281
f 187 281 282
f 187 282 283
f 187 283 188
f 188 283 284
f 188 284 189
f 189 284 190
f 190 284 285
f 190 285 286
f 190 286 287
f 190 287 192
f 190 192 191
f 192 287 288
f 192 288 193
f 193 289 290
f 193 290 194
f 193 288 289
f 194 291 195
f 194 290 291
f 195 291 197
f 195 197 196
f 197 291 292
f 197 292 198
f 198 292 293
f 198 293 294
f 198 294 295
f 198 295 199
f 199 295 201
f 199 201 200
f 201 295 296
f 201 296 202
f 202 297 298
f 202 298 204
f 202 204 203
f 202 296 299
f 202 299 297
f 204 298 205
f 205 300 206
f 205 298 301
f 205 301 300
f 206 302 208
f 206 208 207
f 206 300 302
f 208 302 303
f 208 303 209
f 209 303 210
f 210 303 304
f 210 304 305
f 210 305 306
f 210 306 307
f 210 307 211
f 211 307 308
f 211 308 212
f 212 308 309
f 212 309 310
f 212 310 213
f 213 311 214
f 213 310 311
f 214 312 215
f 214 311 312
f 215 312 217
f 215 217 216
f 217 313 218
f 217 312 314
f 217 314 315
f 217 315 313
f 221 222 317
f 221 317 318
f 221 318 319
f 221 319 320
f 221 320 223
f 223 321 322
f 223 322 323
f 223 323 224
f 223 320 324
f 223 324 321
f 224 323 225
f 225 323 325
f 225 325 226
f 226 325 228
f 227 231 326
f 227 326 327
f 227 327 328
f 227 328 329
f 227 329 232
f 228 330 229
f 228 325 330
f 229 330 331
f 229 331 332
f 229 332 333
f 229 333 334
f 229 334 230
f 230 334 231
f 231 334 335
f 231 335 326
f 232 329 233
f 233 329 336
f 233 336 337
f 233 337 234
f 234 337 237
f 234 237 235
f 235 237 236
f 237 337 338
f 237 338 339
f 237 339 238
f 238 340 239
f 238 339 341
f 238 341 340
f 239 340 342
f 239 342 343
f 239 343 344
f 239 344 345
f 239 345 243
f 239 242 241
f 239 241 240
f 243 345 346
f 243 346 244
f 244 346 347
f 244 347 348
f 244 348 245
f 245 348 349
f 245 349 350
f 245 350 351
f 245 351 246
f 246 351 352
f 246 352 353
f 246 353 247
f 247 353 354
f 247 354 248
f 248 354 355
f 248 355 356
f 248 356 250
f 249 251 357
f 249 357 253
f 250 358 357
f 250 357 251
f 250 356 358
f 253 357 359
f 253 359 256
f 253 256 254
f 254 256 255
f 256 359 476
f 256 476 360
f 256 360 361
f 256 361 257
f 258 362 260
f 260 363 261
f 260 362 360
f 260 360 363
f 261 363 364
f 261 364 262
f 262 364 365
f 262 365 366
f 262 366 269
f 262 269 263
f 263 269 264
f 265 367 368
f 265 368 266
f 265 269 367
f 266 368 369
f 266 369 370
f 266 370 267
f 267 370 371
f 267 371 268
f 268 372 373
f 268 373 270
f 268 371 372
f 269 366 374
f 269 374 367
f 270 373 271
f 271 373 273
f 272 273 375
f 272 375 376
f 272 376 377
f 272 377 378
f 272 378 379
f 272 379 276
f 272 276 274
f 273 373 380
f 273 380 375
f 274 276 275
f 276 379 381
f 276 381 382
f 276 382 383
f 276 383 277
f 277 383 384
f 277 384 385
f 277 385 278
f 278 385 279
f 279 385 280
f 280 386 281
f 280 385 386
f 281 386 282
f 282 387 388
f 282 388 389
f 282 389 390
f 282 390 391
f 282 391 283
f 282 386 392
f 282 392 393
f 282 393 387
f 283 391 284
f 284 391 390
f 284 390 285
f 285 390 286
f 286 394 287
f 286 390 395
f 286 395 394
f 287 394 288
f 288 394 289
f 289 396 397
f 289 397 398
f 289 398 291
f 289 291 290
f 289 394 399
f 289 399 396
f 291 400 401
f 291 401 402
f 291 402 403
f 291 403 292
f 291 398 397
f 291 397 404
f 291 404 400
f 292 403 293
f 293 405 406
f 293 406 407
f 293 407 294
f 293 403 402
f 293 402 408
f 293 408 409
f 293 409 410
f 293 410 411
f 293 411 405
f 294 407 299
f 294 299 296
f 294 296 295
f 297 299 412
f 297 412 301
f 297 301 298
f 299 407 413
f 299 413 412
f 300 301 414
f 300 414 302
f 301 415 414
f 301 412 416
f 301 416 415
f 302 417 418
f 302 418 303
f 302 414 419
f 302 419 417
f 303 418 304
f 304 418 420
f 304 420 421
f 304 421 305
f 305 421 422
f 305 422 423
f 305 423 424
f 305 424 306
f 306 424 307
f 307 424 308
f 308 424 309
f 309 424 425
f 309 425 426
f 309 426 311
f 309 311 310
f 311 426 427
f 311 427 312
f 312 428 314
f 312 427 551
f 312 551 428
f 313 315 430
f 313 430 429
f 314 428 552
f 314 552 431
f 314 431 315
f 315 431 430
f 316 432 433
f 317 434 318
f 318 434 435
f 318 435 436
f 318 436 319
f 319 436 320
f 320 436 324
f 321 437 438
f 321 438 322
f 321 324 439
f 321 439 437
f 322 438 323
f 323 440 325
f 323 438 440
f 324 436 439
f 325 441 442
f 325 442 443
f 325 443 444
f 325 444 332
f 325 332 331
f 325 331 330
f 325 440 441
f 326 445 327
f 326 335 446
f 326 446 445
f 327 447 448
f 327 448 449
f 327 449 328
f 327 445 447
f 328 449 450
f 328 450 336
f 328 336 329
f 332 444 451
f 332 451 452
f 332 452 333
f 333 452 453
f 333 453 454
f 333 454 446
f 333 446 334
f 334 446 335
f 336 450 337
f 337 450 455
f 337 455 456
f 337 456 338
f 338 456 457
f 338 457 458
f 338 458 342
f 338 342 341
f 338 341 339
f 340 341 342
f 342 458 457
f 342 457 459
f 342 459 460
f 342 460 461
f 342 461 462
f 342 462 343
f 343 463 344
f 343 462 463
f 344 463 464
f 344 464 347
f 344 347 345
f 345 347 346
f 347 464 465
f 347 465 466
f 347 466 349
f 347 349 348
f 349 467 350
f 349 466 468
f 349 468 467
f 350 467 469
f 350 469 351
f 351 469 352
f 352 469 470
f 352 470 471
f 352 471 353
f 353 471 354
f 354 471 355
f 355 471 472
f 355 472 356
f 356 472 473
f 356 473 474
f 356 474 475
f 356 475 358
f 357 358 475
f 357 475 359
f 359 475 476
f 360 476 363
f 360 362 361
f 363 476 364
f 364 477 365
f 364 476 478
f 364 478 477
f 365 477 479
f 365 479 480
f 365 480 366
f 366 480 481
f 366 481 482
f 366 482 374
f 367 483 369
f 367 369 368
f 367 374 483
f 369 484 370
f 369 483 485
f 369 485 484
f 370 486 487
f 370 487 488
f 370 488 489
f 370 489 490
f 370 490 371
f 370 484 491
f 370 491 486
f 371 490 489
f 371 489 372
f 372 492 380
f 372 380 373
f 372 489 493
f 372 493 492
f 374 482 494
f 374 494 485
f 374 485 483
f 375 380 492
f 375 492 495
f 375 495 376
f 376 495 496
f 376 496 377
f 377 496 378
f 378 496 497
f 378 497 381
f 378 381 379
f 381 497 382
f 382 497 498
f 382 498 383
f 383 498 499
f 383 499 384
f 384 499 500
f 384 500 501
f 384 501 502
f 384 502 503
f 384 503 385
f 385 503 504
f 385 504 386
f 386 504 392
f 387 505 389
f 387 389 388
f 387 393 506
f 387 506 505
f 389 507 395
f 389 395 390
f 389 505 507
f 392 504 503
f 392 503 508
f 392 508 393
f 393 509 506
f 393 508 509
f 394 395 510
f 394 510 511
f 394 511 399
f 395 507 512
f 395 512 510
f 396 513 404
f 396 404 397
f 396 399 514
f 396 514 513
f 399 511 514
f 400 409 515
f 400 515 402
f 400 402 401
f 400 404 516
f 400 516 409
f 402 515 408
f 404 513 514
f 404 514 517
f 404 517 518
f 404 518 519
f 404 519 520
f 404 520 516
f 405 411 521
f 405 521 522
f 405 522 523
f 405 523 524
f 405 524 525
f 405 525 526
f 405 526 527
f 405 527 528
f 405 528 529
f 405 529 530
f 405 530 406
f 406 530 531
f 406 531 412
f 406 412 413
f 406 413 407
f 408 515 409
f 409 516 520
f 409 520 532
f 409 532 533
f 409 533 521
f 409 521 411
f 409 411 410
f 412 531 416
f 414 534 535
f 414 535 419
f 414 415 534
f 415 416 536
f 415 536 537
f 415 537 534
f 416 531 538
f 416 538 539
f 416 539 536
f 417 540 418
f 417 419 534
f 417 534 541
f 417 541 540
f 418 540 420
f 419 535 534
f 420 540 421
f 421 542 422
f 421 540 543
f 421 543 544
f 421 544 542
f 422 545 546
f 422 546 547
f 422 547 423
f 422 542 545
f 423 547 425
f 423 425 424
f 425 547 426
f 426 548 427
f 426 547 549
f 426 549 548
f 427 548 550
f 427 550 551
f 428 551 552
f 429 430 553
f 429 553 554
f 429 554 432
f 430 431 553
f 431 552 553
f 432 554 433
f 433 554 556
f 433 556 557
f 433 557 558
f 433 558 555
f 434 559 435
f 435 559 560
f 435 560 561
f 435 561 562
f 435 562 563
f 435 563 564
f 435 564 565
f 435 565 436
f 436 565 439
f 437 566 438
f 437 439 566
f 438 566 440
f 439 565 567
f 439 567 568
f 439 568 569
f 439 569 570
f 439 570 571
f 439 571 566
f 440 566 572
f 440 572 573
f 440 573 441
f 441 573 572
f 441 572 574
f 441 574 442
f 442 574 575
f 442 575 576
f 442 576 444
f 442 444 443
f 444 576 451
f 445 446 577
f 445 577 578
f 445 578 579
f 445 579 580
f 445 580 447
f 446 454 581
f 446 581 577
f 447 580 582
f 447 582 583
f 447 583 584
f 447 584 585
f 447 585 455
f 447 455 448
f 448 455 450
f 448 450 449
f 451 586 587
f 451 587 453
f 451 453 452
f 451 576 586
f 453 587 588
f 453 588 589
f 453 589 454
f 454 589 581
f 455 459 457
f 455 457 456
f 455 585 459
f 459 585 590
f 459 590 460
f 460 590 584
f 460 584 591
f 460 591 461
f 461 591 592
f 461 592 593
f 461 593 594
f 461 594 462
f 462 594 595
f 462 595 596
f 462 596 463
f 463 596 597
f 463 597 464
f 464 597 465
f 465 597 466
f 466 597 598
f 466 598 468
f 467 599 469
f 467 468 600
f 467 600 601
f 467 601 599
f 468 598 602
f 468 602 600
f 469 599 470
f 470 599 601
f 470 601 603
f 470 603 604
f 470 604 605
f 470 605 471
f 471 605 472
f 472 605 733
f 472 733 606
f 472 606 473
f 473 606 607
f 473 607 608
f 473 608 474
f 474 608 477
f 474 477 609
f 474 609 475
f 475 609 476
f 476 609 478
f 477 608 479
f 477 478 609
f 479 610 480
f 479 608 607
f 479 607 610
f 480 610 481
f 481 610 482
f 482 610 494
f 484 611 491
f 484 485 494
f 484 494 612
f 484 612 611
f 486 491 613
f 486 613 614
f 486 614 615
f 486 615 487
f 487 615 616
f 487 616 488
f 488 616 492
f 488 492 493
f 488 493 489
f 491 611 617
f 491 617 618
f 491 618 613
f 492 619 620
f 492 620 495
f 492 616 619
f 494 610 621
f 494 621 612
f 495 620 622
f 495 622 623
f 495 623 496
f 496 623 498
f 496 498 624
f 496 624 497
f 497 624 498
f 498 625 626
f 498 626 627
f 498 627 628
f 498 628 629
f 498 629 499
f 498 623 622
f 498 622 630
f 498 630 631
f 498 631 632
f 498 632 625
f 499 633 500
f 499 629 633
f 500 633 501
f 501 508 502
f 501 633 628
f 501 628 508
f 502 508 503
f 505 506 634
f 505 634 635
f 505 635 507
f 506 509 636
f 506 636 634
f 507 637 512
f 507 635 638
f 507 638 637
f 508 628 509
f 509 639 640
f 509 640 634
f 509 634 636
f 509 628 641
f 509 641 642
f 509 642 639
f 510 512 511
f 511 512 643
f 511 643 514
f 512 637 643
f 514 643 517
f 517 643 518
f 518 643 644
f 518 644 645
f 518 645 646
f 518 646 519
f 519 646 647
f 519 647 648
f 519 648 520
f 520 648 532
f 521 533 523
f 521 523 522
f 523 533 649
f 523 649 650
f 523 650 524
f 524 650 651
f 524 651 525
f 525 652 526
f 525 651 653
f 525 653 652
f 526 654 655
f 526 655 656
f 526 656 527
f 526 652 654
f 527 656 657
f 527 657 529
f 527 529 528
f 529 539 538
f 529 538 531
f 529 531 530
f 529 657 539
f 532 649 533
f 532 648 647
f 532 647 649
f 534 537 541
f 536 658 537
f 536 539 658
f 537 658 659
f 537 659 660
f 537 660 541
f 539 657 656
f 539 656 661
f 539 661 658
f 540 541 543
f 541 660 543
f 542 544 662
f 542 662 663
f 542 663 545
f 543 664 544
f 543 660 659
f 543 659 664
f 544 664 665
f 544 665 662
f 545 666 667
f 545 667 546
f 545 663 666
f 546 667 549
f 546 549 547
f 548 549 667
f 548 667 668
f 548 668 550
f 550 669 670
f 550 670 551
f 550 668 671
f 550 671 669
f 551 670 552
f 552 672 556
f 552 556 553
f 552 670 672
f 553 556 554
f 555 558 673
f 555 673 674
f 556 672 675
f 556 675 557
f 557 675 558
f 558 675 673
f 559 676 560
f 560 676 561
f 561 677 678
f 561 678 562
f 561 676 679
f 561 679 677
f 562 678 563
f 563 680 681
f 563 681 682
f 563 682 564
f 563 678 683
f 563 683 684
f 563 684 680
f 564 682 565
f 565 682 681
f 565 681 567
f 566 571 685
f 566 685 686
f 566 686 687
f 566 687 688
f 566 688 689
f 566 689 572
f 567 681 680
f 567 680 568
f 568 690 569
f 568 680 691
f 568 691 690
f 569 690 571
f 569 571 570
f 571 690 692
f 571 692 685
f 572 689 693
f 572 693 694
f 572 694 695
f 572 695 696
f 572 696 574
f 574 697 698
f 574 698 699
f 574 699 700
f 574 700 575
f 574 696 695
f 574 695 701
f 574 701 697
f 575 700 586
f 575 586 576
f 577 581 578
f 578 581 702
f 578 702 703
f 578 703 579
f 579 704 705
f 579 705 706
f 579 706 580
f 579 703 707
f 579 707 708
f 579 708 704
f 580 706 582
f 581 589 702
f 582 709 710
f 582 710 583
f 582 706 711
f 582 711 712
f 582 712 709
f 583 710 584
f 584 592 591
f 584 590 585
f 584 710 592
f 586 713 714
f 586 714 589
f 586 589 588
f 586 588 587
f 586 700 715
f 586 715 713
f 589 714 716
f 589 716 717
f 589 717 718
f 589 718 702
f 592 710 719
f 592 719 593
f 593 719 720
f 593 720 594
f 594 720 721
f 594 721 722
f 594 722 595
f 595 722 596
f 596 722 723
f 596 723 724
f 596 724 725
f 596 725 726
f 596 726 597
f 597 726 598
f 598 726 727
f 598 727 602
f 600 602 728
f 600 728 729
f 600 729 601
f 601 729 730
f 601 730 731
f 601 731 603
f 602 727 732
f 602 732 728
f 603 731 730
f 603 730 733
f 603 733 604
f 604 733 605
f 606 733 610
f 606 610 607
f 610 733 621
f 611 612 617
f 612 621 734
f 612 734 735
f 612 735 736
f 612 736 737
f 612 737 617
f 613 618 738
f 613 738 739
f 613 739 740
f 613 740 614
f 614 740 615
f 615 741 616
f 615 740 741
f 616 741 619
f 617 737 742
f 617 742 743
f 617 743 618
f 618 743 738
f 619 744 620
f 619 741 745
f 619 745 746
f 619 746 747
f 619 747 748
f 619 748 749
f 619 749 631
f 619 631 744
f 620 744 622
f 621 733 750
f 621 750 751
f 621 751 734
f 622 744 631
f 622 631 630
f 625 632 752
f 625 752 753
f 625 753 754
f 625 754 755
f 625 755 626
f 626 755 627
f 627 641 628
f 627 755 764
f 627 764 641
f 628 633 629
f 631 749 756
f 631 756 757
f 631 757 752
f 631 752 632
f 634 640 758
f 634 758 759
f 634 759 638
f 634 638 635
f 637 638 760
f 637 760 643
f 638 759 643
f 638 643 760
f 639 761 762
f 639 762 763
f 639 763 758
f 639 758 640
f 639 642 764
f 639 764 765
f 639 765 766
f 639 766 767
f 639 767 768
f 639 768 769
f 639 769 761
f 641 764 642
f 643 759 770
f 643 770 644
f 644 770 771
f 644 771 645
f 645 771 647
f 645 647 646
f 647 772 773
f 647 773 774
f 647 774 775
f 647 775 776
f 647 776 777
f 647 777 649
f 647 771 772
f 649 777 778
f 649 778 650
f 650 778 651
f 651 778 776
f 651 776 779
f 651 779 780
f 651 780 652
f 651 652 653
f 652 780 781
f 652 781 782
f 652 782 783
f 652 783 654
f 654 783 655
f 655 784 785
f 655 785 661
f 655 661 656
f 655 783 786
f 655 786 787
f 655 787 784
f 658 661 785
f 658 785 659
f 659 788 789
f 659 789 664
f 659 785 790
f 659 790 791
f 659 791 788
f 662 665 663
f 663 792 666
f 663 665 793
f 663 793 792
f 664 789 794
f 664 794 665
f 665 795 796
f 665 796 793
f 665 794 797
f 665 797 795
f 666 792 798
f 666 798 671
f 666 671 668
f 666 668 667
f 669 799 800
f 669 800 670
f 669 671 799
f 670 800 675
f 670 675 672
f 671 798 801
f 671 801 799
f 673 675 802
f 673 802 803
f 673 803 674
f 675 800 804
f 675 804 802
f 676 805 806
f 676 806 679
f 677 679 678
f 678 679 683
f 679 806 807
f 679 807 808
f 679 808 683
f 680 684 809
f 680 809 691
f 683 808 807
f 683 807 809
f 683 809 684
f 685 692 686
f 686 692 810
f 686 810 811
f 686 811 812
f 686 812 687
f 687 812 813
f 687 813 814
f 687 814 688
f 688 815 689
f 688 814 815
f 689 815 693
f 690 691 816
f 690 816 692
f 691 809 817
f 691 817 816
f 692 816 811
f 692 811 810
f 693 815 818
f 693 818 819
f 693 819 694
f 694 819 820
f 694 820 821
f 694 821 695
f 695 821 701
f 697 701 822
f 697 822 823
f 697 823 698
f 698 824 699
f 698 823 824
f 699 824 715
f 699 715 700
f 701 821 825
f 701 825 826
f 701 826 827
f 701 827 828
f 701 828 829
f 701 829 822
f 702 718 703
f 703 718 830
f 703 830 831
f 703 831 832
f 703 832 833
f 703 833 834
f 703 834 708
f 703 708 707
f 704 835 836
f 704 836 705
f 704 708 837
f 704 837 838
f 704 838 839
f 704 839 840
f 704 840 835
f 705 836 841
f 705 841 706
f 706 841 711
f 708 834 842
f 708 842 837
f 709 712 710
f 710 712 720
f 710 720 719
f 711 841 843
f 711 843 712
f 712 843 844
f 712 844 845
f 712 845 846
f 712 846 847
f 712 847 848
f 712 848 721
f 712 721 720
f 713 849 714
f 713 715 850
f 713 850 849
f 714 849 851
f 714 851 716
f 715 824 852
f 715 852 853
f 715 853 850
f 716 851 854
f 716 854 855
f 716 855 856
f 716 856 717
f 717 856 855
f 717 855 718
f 718 855 857
f 718 857 858
f 718 858 830
f 721 848 722
f 722 848 847
f 722 847 859
f 722 859 860
f 722 860 724
f 722 724 723
f 724 860 725
f 725 727 726
f 725 860 727
f 727 860 732
f 728 861 730
f 728 730 729
f 728 732 862
f 728 862 863
f 728 863 861
f 730 861 750
f 730 750 733
f 732 860 859
f 732 859 864
f 732 864 862
f 734 751 750
f 734 750 735
f 735 865 736
f 735 750 865
f 736 865 737
f 737 865 866
f 737 866 742
f 738 743 742
f 738 742 739
f 739 867 745
f 739 745 868
f 739 868 740
f 739 742 867
f 740 868 741
f 741 868 745
f 742 869 867
f 742 866 870
f 742 870 871
f 742 871 872
f 742 872 869
f 745 867 873
f 745 873 746
f 746 873 867
f 746 867 874
f 746 874 875
f 746 875 876
f 746 876 877
f 746 877 878
f 746 878 879
f 746 879 880
f 746 880 881
f 746 881 748
f 746 748 747
f 748 881 749
f 749 881 882
f 749 882 756
f 750 861 865
f 752 757 883
f 752 883 753
f 753 883 884
f 753 884 754
f 754 884 885
f 754 885 886
f 754 886 755
f 755 886 764
f 756 882 883
f 756 883 757
f 758 763 759
f 759 763 887
f 759 887 770
f 761 888 889
f 761 889 887
f 761 887 763
f 761 763 762
f 761 769 890
f 761 890 888
f 764 886 765
f 765 886 891
f 765 891 766
f 766 891 767
f 767 892 893
f 767 893 768
f 767 891 894
f 767 894 895
f 767 895 896
f 767 896 897
f 767 897 892
f 768 893 769
f 769 893 898
f 769 898 890
f 770 887 899
f 770 899 771
f 771 899 900
f 771 900 901
f 771 901 902
f 771 902 903
f 771 903 772
f 772 904 773
f 772 903 904
f 773 904 774
f 774 905 775
f 774 904 906
f 774 906 905
f 775 905 776
f 776 905 907
f 776 907 908
f 776 908 909
f 776 909 779
f 776 778 777
f 779 909 910
f 779 910 911
f 779 911 780
f 780 911 912
f 780 912 781
f 781 912 913
f 781 913 914
f 781 914 782
f 782 914 915
f 782 915 916
f 782 916 783
f 783 916 786
f 784 787 917
f 784 917 918
f 784 918 919
f 784 919 920
f 784 920 785
f 785 920 790
f 786 916 787
f 787 916 917
f 788 794 789
f 788 791 794
f 790 919 791
f 790 920 919
f 791 919 921
f 791 921 794
f 792 793 796
f 792 796 922
f 792 922 923
f 792 923 924
f 792 924 925
f 792 925 798
f 794 921 797
f 795 797 796
f 796 923 922
f 796 797 926
f 796 926 927
f 796 927 928
f 796 928 923
f 797 921 926
f 798 925 801
f 799 804 800
f 799 801 929
f 799 929 930
f 799 930 804
f 801 925 929
f 802 931 803
f 802 804 934
f 802 934 932
f 802 932 931
f 804 930 933
f 804 933 934
f 805 935 806
f 806 936 807
f 806 935 937
f 806 937 938
f 806 938 936
f 807 936 938
f 807 938 939
f 807 939 940
f 807 940 941
f 807 941 942
f 807 942 809
f 809 942 817
f 811 816 812
f 812 816 943
f 812 943 944
f 812 944 813
f 813 945 814
f 813 944 946
f 813 946 945
f 814 945 947
f 814 947 819
f 814 819 818
f 814 818 815
f 816 817 948
f 816 948 943
f 817 949 950
f 817 950 948
f 817 942 951
f 817 951 949
f 819 947 820
f 820 952 826
f 820 826 825
f 820 825 821
f 820 947 952
f 822 829 953
f 822 953 954
f 822 954 823
f 823 954 852
f 823 852 824
f 826 955 956
f 826 956 957
f 826 957 827
f 826 952 958
f 826 958 959
f 826 959 960
f 826 960 961
f 826 961 962
f 826 962 963
f 826 963 955
f 827 957 964
f 827 964 828
f 828 964 965
f 828 965 829
f 829 965 953
f 830 858 831
f 831 858 857
f 831 857 832
f 832 966 967
f 832 967 842
f 832 842 833
f 832 857 968
f 832 968 966
f 833 842 834
f 835 969 836
f 835 840 969
f 836 969 970
f 836 970 841
f 837 842 971
f 837 971 838
f 838 971 839
f 839 971 972
f 839 972 973
f 839 973 974
f 839 974 840
f 840 974 975
f 840 975 969
f 841 970 976
f 841 976 843
f 842 967 971
f 843 976 844
f 844 976 969
f 844 969 975
f 844 975 977
f 844 977 845
f 845 978 846
f 845 977 978
f 846 978 847
f 847 978 979
f 847 979 859
f 849 850 980
f 849 980 981
f 849 981 854
f 849 854 851
f 850 853 980
f 852 954 853
f 853 954 953
f 853 953 965
f 853 965 982
f 853 982 983
f 853 983 984
f 853 984 980
f 854 981 855
f 855 985 986
f 855 986 857
f 855 981 987
f 855 987 985
f 857 988 989
f 857 989 990
f 857 990 968
f 857 986 988
f 859 979 991
f 859 991 864
f 861 863 865
f 862 864 991
f 862 991 992
f 862 992 863
f 863 992 870
f 863 870 866
f 863 866 865
f 867 993 994
f 867 994 874
f 867 869 993
f 869 872 993
f 870 992 871
f 871 992 991
f 871 991 995
f 871 995 872
f 872 996 994
f 872 994 993
f 872 995 979
f 872 979 997
f 872 997 996
f 874 998 875
f 874 994 998
f 875 998 999
f 875 999 876
f 876 999 1000
f 876 1000 877
f 877 973 1001
f 877 1001 878
f 877 1000 974
f 877 974 973
f 878 1001 880
f 878 880 879
f 880 1001 1002
f 880 1002 1003
f 880 1003 881
f 881 1003 1004
f 881 1004 1005
f 881 1005 1006
f 881 1006 1007
f 881 1007 883
f 881 883 882
f 883 1007 884
f 884 1008 885
f 884 1007 1006
f 884 1006 1008
f 885 1008 1009
f 885 1009 886
f 886 1009 894
f 886 894 891
f 887 889 899
f 888 1010 889
f 888 890 1010
f 889 1010 899
f 890 898 892
f 890 892 1011
f 890 1011 1010
f 892 898 893
f 892 897 896
f 892 896 1012
f 892 1012 1013
f 892 1013 1014
f 892 1014 1015
f 892 1015 1016
f 892 1016 1017
f 892 1017 1011
f 894 1009 895
f 895 1009 896
f 896 1009 1008
f 896 1008 1018
f 896 1018 1019
f 896 1019 1012
f 899 1020 900
f 899 1010 1017
f 899 1017 1020
f 900 1020 1021
f 900 1021 901
f 901 1021 902
f 902 1022 904
f 902 904 903
f 902 1021 1022
f 904 1023 906
f 904 1022 1023
f 905 906 907
f 906 1023 1024
f 906 1024 907
f 907 1025 908
f 907 1024 1025
f 908 1025 909
f 909 1025 1026
f 909 1026 1027
f 909 1027 910
f 910 1027 1028
f 910 1028 913
f 910 913 911
f 911 913 912
f 913 915 914
f 913 1028 915
f 915 1028 1029
f 915 1029 916
f 916 1030 1031
f 916 1031 1032
f 916 1032 1033
f 916 1033 917
f 916 1029 1034
f 916 1034 1030
f 917 1035 919
f 917 919 918
f 917 1033 1035
f 919 1035 921
f 921 1035 1036
f 921 1036 1037
f 921 1037 926
f 923 928 1038
f 923 1038 1039
f 923 1039 1040
f 923 1040 924
f 924 1040 925
f 925 1040 1041
f 925 1041 1042
f 925 1042 930
f 925 930 929
f 926 1037 927
f 927 1037 1043
f 927 1043 1044
f 927 1044 1045
f 927 1045 1046
f 927 1046 1047
f 927 1047 1038
f 927 1038 928
f 930 1042 1041
f 930 1041 1048
f 930 1048 933
f 932 934 1049
f 933 1048 1050
f 933 1050 1049
f 933 1049 934
f 937 1051 1052
f 937 1052 938
f 938 1052 1053
f 938 1053 1054
f 938 1054 1055
f 938 1055 1056
f 938 1056 1057
f 938 1057 1058
f 938 1058 939
f 939 1058 1057
f 939 1057 1059
f 939 1059 1060
f 939 1060 1061
f 939 1061 940
f 940 1062 1063
f 940 1063 941
f 940 1061 1064
f 940 1064 1065
f 940 1065 1062
f 941 1063 1066
f 941 1066 1067
f 941 1067 942
f 942 1067 951
f 943 948 950
f 943 950 1068
f 943 1068 944
f 944 1068 946
f 945 1069 947
f 945 946 1069
f 946 1070 1069
f 946 1068 1071
f 946 1071 1072
f 946 1072 1073
f 946 1073 1070
f 947 1069 1074
f 947 1074 952
f 949 951 1075
f 949 1075 950
f 950 1075 1076
f 950 1076 1077
f 950 1077 1078
f 950 1078 1068
f 951 1067 1066
f 951 1066 1063
f 951 1063 1075
f 952 1074 958
f 955 957 956
f 955 963 957
f 957 963 1079
f 957 1079 1080
f 957 1080 1081
f 957 1081 965
f 957 965 964
f 958 1074 1069
f 958 1069 959
f 959 1069 1070
f 959 1070 960
f 960 1070 1082
f 960 1082 1083
f 960 1083 1084
f 960 1084 1085
f 960 1085 961
f 961 1085 1086
f 961 1086 1087
f 961 1087 962
f 962 1087 1088
f 962 1088 1089
f 962 1089 963
f 963 1089 1024
f 963 1024 1090
f 963 1090 1091
f 963 1091 1092
f 963 1092 1093
f 963 1093 1080
f 963 1080 1079
f 965 1081 1080
f 965 1080 1094
f 965 1094 982
f 966 1001 973
f 966 973 972
f 966 972 967
f 966 968 990
f 966 990 1095
f 966 1095 1001
f 967 972 971
f 969 976 970
f 974 1000 975
f 975 1000 1096
f 975 1096 977
f 977 1096 978
f 978 1097 1098
f 978 1098 1099
f 978 1099 979
f 978 1096 1097
f 979 1099 1098
f 979 1098 997
f 979 995 991
f 980 984 1100
f 980 1100 1101
f 980 1101 981
f 981 1101 987
f 982 1094 983
f 983 1094 1102
f 983 1102 1103
f 983 1103 1104
f 983 1104 1105
f 983 1105 1106
f 983 1106 1107
f 983 1107 984
f 984 1107 1100
f 985 1108 986
f 985 987 1109
f 985 1109 1108
f 986 1108 988
f 987 1101 1110
f 987 1110 1109
f 988 990 989
f 988 1108 1109
f 988 1109 1111
f 988 1111 990
f 990 1111 1112
f 990 1112 1113
f 990 1113 1114
f 990 1114 1095
f 994 996 998
f 996 997 1098
f 996 1098 1115
f 996 1115 998
f 998 1000 999
f 998 1115 1098
f 998 1098 1000
f 1000 1116 1117
f 1000 1117 1097
f 1000 1097 1096
f 1000 1098 1116
f 1001 1095 1002
f 1002 1095 1004
f 1002 1004 1003
f 1004 1095 1114
f 1004 1114 1005
f 1005 1114 1006
f 1006 1114 1118
f 1006 1118 1008
f 1008 1118 1119
f 1008 1119 1018
f 1010 1011 1017
f 1012 1019 1013
f 1013 1019 1120
f 1013 1120 1121
f 1013 1121 1109
f 1013 1109 1014
f 1014 1109 1122
f 1014 1122 1123
f 1014 1123 1124
f 1014 1124 1015
f 1015 1124 1105
f 1015 1105 1016
f 1016 1103 1125
f 1016 1125 1126
f 1016 1126 1017
f 1016 1105 1104
f 1016 1104 1103
f 1017 1126 1127
f 1017 1127 1128
f 1017 1128 1129
f 1017 1129 1130
f 1017 1130 1092
f 1017 1092 1020
f 1018 1119 1019
f 1019 1119 1120
f 1020 1092 1131
f 1020 1131 1021
f 1021 1131 1022
f 1022 1131 1092
f 1022 1092 1091
f 1022 1091 1090
f 1022 1090 1024
f 1022 1024 1023
f 1024 1088 1132
f 1024 1132 1133
f 1024 1133 1025
f 1024 1089 1088
f 1025 1133 1026
f 1026 1133 1027
f 1027 1083 1134
f 1027 1134 1029
f 1027 1029 1028
f 1027 1133 1135
f 1027 1135 1083
f 1029 1134 1034
f 1030 1034 1031
f 1031 1136 1137
f 1031 1137 1138
f 1031 1138 1033
f 1031 1033 1032
f 1031 1034 1139
f 1031 1139 1140
f 1031 1140 1136
f 1033 1138 1035
f 1034 1134 1083
f 1034 1083 1141
f 1034 1141 1139
f 1035 1138 1036
f 1036 1043 1037
f 1036 1138 1142
f 1036 1142 1143
f 1036 1143 1044
f 1036 1044 1043
f 1038 1047 1039
f 1039 1144 1145
f 1039 1145 1146
f 1039 1146 1147
f 1039 1147 1041
f 1039 1041 1040
f 1039 1047 1046
f 1039 1046 1144
f 1041 1147 1148
f 1041 1148 1149
f 1041 1149 1048
f 1044 1143 1150
f 1044 1150 1045
f 1045 1151 1046
f 1045 1150 1152
f 1045 1152 1151
f 1046 1151 1153
f 1046 1153 1154
f 1046 1154 1155
f 1046 1155 1144
f 1048 1156 1050
f 1048 1149 1156
f 1049 1050 1156
f 1049 1156 1157
f 1051 1158 1052
f 1052 1158 1159
f 1052 1159 1054
f 1052 1054 1053
f 1054 1159 1160
f 1054 1160 1055
f 1055 1160 1056
f 1056 1160 1154
f 1056 1154 1153
f 1056 1153 1161
f 1056 1161 1057
f 1057 1162 1163
f 1057 1163 1059
f 1057 1161 1162
f 1059 1163 1060
f 1060 1064 1061
f 1060 1163 1064
f 1062 1065 1063
f 1063 1065 1164
f 1063 1164 1165
f 1063 1165 1166
f 1063 1166 1077
f 1063 1077 1076
f 1063 1076 1075
f 1064 1167 1164
f 1064 1164 1065
f 1064 1163 1168
f 1064 1168 1152
f 1064 1152 1150
f 1064 1150 1167
f 1068 1078 1169
f 1068 1169 1072
f 1068 1072 1071
f 1070 1073 1082
f 1072 1169 1170
f 1072 1170 1073
f 1073 1170 1141
f 1073 1141 1083
f 1073 1083 1082
f 1077 1140 1170
f 1077 1170 1169
f 1077 1169 1078
f 1077 1166 1165
f 1077 1165 1136
f 1077 1136 1140
f 1080 1129 1128
f 1080 1128 1094
f 1080 1093 1129
f 1083 1135 1171
f 1083 1171 1084
f 1084 1171 1085
f 1085 1172 1087
f 1085 1087 1086
f 1085 1171 1172
f 1087 1172 1088
f 1088 1172 1171
f 1088 1171 1132
f 1092 1130 1129
f 1092 1129 1093
f 1094 1128 1102
f 1097 1117 1116
f 1097 1116 1098
f 1100 1107 1101
f 1101 1107 1106
f 1101 1106 1110
f 1102 1128 1127
f 1102 1127 1126
f 1102 1126 1103
f 1103 1126 1125
f 1105 1124 1123
f 1105 1123 1122
f 1105 1122 1106
f 1106 1122 1109
f 1106 1109 1110
f 1109 1121 1173
f 1109 1173 1111
f 1111 1173 1112
f 1112 1174 1113
f 1112 1173 1121
f 1112 1121 1120
f 1112 1120 1174
f 1113 1174 1119
f 1113 1119 1175
f 1113 1175 1118
f 1113 1118 1114
f 1118 1175 1119
f 1119 1174 1120
f 1132 1171 1135
f 1132 1135 1133
f 1136 1165 1164
f 1136 1164 1176
f 1136 1176 1177
f 1136 1177 1137
f 1137 1177 1143
f 1137 1143 1138
f 1138 1143 1142
f 1139 1141 1140
f 1140 1141 1170
f 1143 1177 1176
f 1143 1176 1178
f 1143 1178 1150
f 1144 1155 1145
f 1145 1179 1146
f 1145 1155 1179
f 1146 1179 1180
f 1146 1180 1181
f 1146 1181 1148
f 1146 1148 1147
f 1148 1181 1149
f 1149 1181 1182
f 1149 1182 1183
f 1149 1183 1157
f 1149 1157 1156
f 1150 1178 1176
f 1150 1176 1164
f 1150 1164 1167
f 1151 1161 1153
f 1151 1152 1162
f 1151 1162 1161
f 1152 1168 1162
f 1154 1160 1184
f 1154 1184 1155
f 1155 1184 1179
f 1159 1185 1186
f 1159 1186 1160
f 1160 1186 1187
f 1160 1187 1188
f 1160 1188 1189
f 1160 1189 1184
f 1162 1168 1163
f 1179 1188 1190
f 1179 1190 1180
f 1179 1184 1189
f 1179 1189 1188
f 1180 1182 1181
f 1185 1187 1186

