# https://github.com/mikedh/trimesh
v -0.00012877 0.00241691 -0.00977784
v -0.00012877 0.00079426 -0.00977784
v 0.00018390 0.00240945 -0.00977784
v 0.00207087 0.00639930 -0.00978439
v -0.00012877 0.00639930 -0.00978439
v -0.00012877 0.00079575 -0.00998154
v 0.00086528 0.00008104 -0.01056080
v 0.00086360 0.00008104 -0.00998719
v 0.00086332 0.00008104 -0.00977784
v 0.00034920 0.00240422 -0.00977784
v 0.00264494 0.00639930 -0.00978885
v 0.00034920 0.00697301 -0.00978944
v -0.00012877 0.00697301 -0.00978914
v 0.00075770 0.00232141 -0.00977784
v 0.00087845 0.00229232 -0.00977784
v 0.00096054 0.00225651 -0.00977784
v 0.00153210 0.00182529 -0.00977784
v 0.00273320 0.00582485 -0.00978439
v -0.00012877 0.00080097 -0.01055545
v 0.00089386 0.00008104 -0.01112965
v 0.00221964 0.00008104 -0.00977784
v 0.00273320 0.00639930 -0.00979539
v 0.00149679 0.00697301 -0.00981531
v 0.00092328 0.00697301 -0.00979509
v 0.00034920 0.00747435 -0.01003149
v -0.00012877 0.00747659 -0.01003120
v 0.00156740 0.00179396 -0.00977784
v 0.00273320 0.00525114 -0.00978439
v 0.00181703 0.00155075 -0.00977784
v 0.00200979 0.00131798 -0.00977784
v 0.00204761 0.00125979 -0.00977784
v 0.00208180 0.00115087 -0.00977784
v 0.00221151 0.00065997 -0.00977784
v 0.00221348 0.00056298 -0.00977784
v 0.00221964 0.00008551 -0.00977784
v -0.00012877 0.00085618 -0.01117812
v 0.00106561 0.00008104 -0.01158551
v 0.00273320 0.00008104 -0.01013706
v 0.00273320 0.00467743 -0.00978676
v 0.00273320 0.00697152 -0.01005053
v 0.00207087 0.00697301 -0.00988876
v 0.00149679 0.00740348 -0.01005736
v 0.00092328 0.00744899 -0.01003714
v 0.00034920 0.00768996 -0.01055545
v -0.00012877 0.00769444 -0.01055545
v -0.00012877 0.00087483 -0.01121738
v 0.00132701 0.00008104 -0.01187276
v -0.00012877 0.00110685 -0.01163071
v -0.00012877 0.00114042 -0.01168096
v 0.00273320 0.00008104 -0.01281124
v 0.00273320 0.00719533 -0.01055545
v 0.00242165 0.00728262 -0.01021378
v 0.00207087 0.00733186 -0.01013081
v 0.00149679 0.00754747 -0.01055545
v 0.00092328 0.00763998 -0.01055545
v 0.00034920 0.00769444 -0.01112965
v -0.00012877 0.00769891 -0.01112965
v 0.00161391 0.00008104 -0.01215942
v 0.00190276 0.00008104 -0.01244637
v -0.00012877 0.00141198 -0.01196881
v 0.00273320 0.00057193 -0.01281391
v 0.00264494 0.00008104 -0.01281035
v -0.00012877 0.00295555 -0.01281570
v 0.00273320 0.00719608 -0.01058102
v 0.00245835 0.00729530 -0.01055545
v 0.00207087 0.00740572 -0.01055545
v 0.00149679 0.00755120 -0.01170327
v 0.00092328 0.00764744 -0.01170327
v 0.00092328 0.00764445 -0.01112965
v 0.00207087 0.00741542 -0.01170327
v 0.00034920 0.00769668 -0.01170327
v -0.00012877 0.00770264 -0.01170327
v 0.00218966 0.00008104 -0.01268486
v -0.00012877 0.00147390 -0.01203393
v -0.00012877 0.00171935 -0.01227301
v -0.00012877 0.00200882 -0.01255224
v -0.00012877 0.00205657 -0.01259714
v 0.00273320 0.00114564 -0.01281570
v -0.00012877 0.00238184 -0.01272262
v -0.00012877 0.00286006 -0.01280053
v -0.00012877 0.00639930 -0.01281570
v 0.00273320 0.00720205 -0.01117188
v 0.00246675 0.00729829 -0.01112965
v 0.00092328 0.00751762 -0.01227718
v 0.00243481 0.00728859 -0.01206783
v 0.00207087 0.00733932 -0.01219124
v 0.00155255 0.00739676 -0.01233397
v 0.00247180 0.00730127 -0.01170327
v 0.00034920 0.00756164 -0.01227718
v -0.00012877 0.00756686 -0.01227718
v -0.00012877 0.00232663 -0.01270181
v 0.00273320 0.00573681 -0.01281570
v -0.00012877 0.00687752 -0.01276990
v 0.00092328 0.00639930 -0.01281570
v 0.00273320 0.00720429 -0.01170327
v 0.00178089 0.00725949 -0.01256324
v 0.00139845 0.00729306 -0.01259416
v 0.00092328 0.00732365 -0.01261944
v 0.00273320 0.00720205 -0.01173211
v 0.00273320 0.00706552 -0.01227242
v 0.00263374 0.00710954 -0.01226617
v 0.00207087 0.00720802 -0.01247819
v 0.00034920 0.00734230 -0.01263312
v -0.00012877 0.00753031 -0.01233665
v 0.00264494 0.00582485 -0.01281570
v 0.00273320 0.00582485 -0.01281451
v -0.00012877 0.00697301 -0.01276039
v 0.00149679 0.00639930 -0.01281481
v 0.00273320 0.00680067 -0.01264055
v 0.00264494 0.00681783 -0.01265007
v 0.00207087 0.00692079 -0.01268070
v 0.00155255 0.00702971 -0.01268218
v 0.00092328 0.00697301 -0.01274522
v 0.00273320 0.00702225 -0.01234616
v -0.00012877 0.00734529 -0.01263490
v 0.00034920 0.00697301 -0.01275861
v 0.00207087 0.00639930 -0.01280618
v 0.00273320 0.00631127 -0.01278091
v 0.00273320 0.00676039 -0.01265512
v 0.00273320 0.00640378 -0.01276217
v 0.00264494 0.00639930 -0.01277556
f 1 2 9
f 1 9 21
f 1 21 35
f 1 35 34
f 1 34 33
f 1 33 32
f 1 32 31
f 1 31 30
f 1 30 29
f 1 29 27
f 1 27 17
f 1 17 16
f 1 16 15
f 1 15 14
f 1 14 10
f 1 10 3
f 1 3 4
f 1 4 5
f 1 5 13
f 1 13 26
f 1 26 45
f 1 45 57
f 1 57 72
f 1 72 90
f 1 90 104
f 1 104 115
f 1 115 107
f 1 107 93
f 1 93 81
f 1 81 63
f 1 63 80
f 1 80 79
f 1 79 91
f 1 91 77
f 1 77 76
f 1 76 75
f 1 75 74
f 1 74 60
f 1 60 49
f 1 49 48
f 1 48 46
f 1 46 36
f 1 36 19
f 1 19 6
f 1 6 2
f 2 6 7
f 2 7 8
f 2 8 9
f 3 10 4
f 4 11 12
f 4 12 13
f 4 13 5
f 4 10 14
f 4 14 15
f 4 15 16
f 4 16 17
f 4 17 18
f 4 18 11
f 6 19 7
f 7 20 37
f 7 37 47
f 7 47 58
f 7 58 59
f 7 59 73
f 7 73 62
f 7 62 50
f 7 50 38
f 7 38 21
f 7 21 9
f 7 9 8
f 7 19 20
f 11 22 23
f 11 23 24
f 11 24 12
f 11 18 22
f 12 24 25
f 12 25 26
f 12 26 13
f 17 27 18
f 18 28 39
f 18 39 38
f 18 38 50
f 18 50 61
f 18 61 78
f 18 78 92
f 18 92 106
f 18 106 118
f 18 118 120
f 18 120 119
f 18 119 109
f 18 109 114
f 18 114 100
f 18 100 99
f 18 99 95
f 18 95 82
f 18 82 64
f 18 64 51
f 18 51 40
f 18 40 22
f 18 27 29
f 18 29 30
f 18 30 31
f 18 31 32
f 18 32 33
f 18 33 34
f 18 34 35
f 18 35 21
f 18 21 28
f 19 36 20
f 20 36 37
f 21 38 39
f 21 39 28
f 22 40 41
f 22 41 23
f 23 41 42
f 23 42 43
f 23 43 24
f 24 43 25
f 25 44 45
f 25 45 26
f 25 43 44
f 36 46 37
f 37 46 48
f 37 48 49
f 37 49 47
f 40 51 52
f 40 52 53
f 40 53 41
f 41 53 42
f 42 53 54
f 42 54 55
f 42 55 43
f 43 55 44
f 44 56 57
f 44 57 45
f 44 55 69
f 44 69 56
f 47 49 58
f 49 59 58
f 49 60 59
f 50 62 63
f 50 63 61
f 51 64 65
f 51 65 52
f 52 65 66
f 52 66 54
f 52 54 53
f 54 67 68
f 54 68 69
f 54 69 55
f 54 66 70
f 54 70 67
f 56 69 68
f 56 68 71
f 56 71 72
f 56 72 57
f 59 60 74
f 59 74 75
f 59 75 76
f 59 76 77
f 59 77 73
f 61 63 78
f 62 73 79
f 62 79 80
f 62 80 63
f 63 81 94
f 63 94 105
f 63 105 92
f 63 92 78
f 64 82 83
f 64 83 65
f 65 83 66
f 66 83 70
f 67 84 68
f 67 70 85
f 67 85 86
f 67 86 87
f 67 87 84
f 68 84 71
f 70 83 88
f 70 88 85
f 71 84 89
f 71 89 72
f 72 89 90
f 73 77 91
f 73 91 79
f 81 93 94
f 82 95 88
f 82 88 83
f 84 87 96
f 84 96 97
f 84 97 98
f 84 98 89
f 85 88 95
f 85 95 99
f 85 99 100
f 85 100 101
f 85 101 102
f 85 102 96
f 85 96 86
f 86 96 87
f 89 98 103
f 89 103 104
f 89 104 90
f 92 105 106
f 93 107 108
f 93 108 94
f 94 108 105
f 96 102 109
f 96 109 110
f 96 110 111
f 96 111 97
f 97 111 112
f 97 112 98
f 98 112 113
f 98 113 103
f 100 114 101
f 101 114 102
f 102 114 109
f 103 115 104
f 103 113 116
f 103 116 115
f 105 108 106
f 106 108 117
f 106 117 118
f 107 115 116
f 107 116 108
f 108 116 117
f 109 119 110
f 110 119 120
f 110 120 121
f 110 121 111
f 111 121 113
f 111 113 112
f 113 121 117
f 113 117 116
f 117 121 118
f 118 121 120

