# https://github.com/mikedh/trimesh
v 0.08594822 0.03429217 0.02031629
v 0.08610520 0.00967901 0.02031629
v 0.08610885 0.00967901 0.01795325
v 0.08610520 0.00967901 0.01657564
v 0.08599203 0.00967901 0.01580145
v 0.08569997 0.03429217 0.01946344
v 0.08594092 0.03429217 0.02063429
v 0.08601759 0.00967901 0.02101408
v 0.08298017 0.03350177 0.01540592
v 0.08319921 0.03352346 0.01540592
v 0.08412650 0.03395481 0.01540592
v 0.08417761 0.03404156 0.01540592
v 0.08423967 0.03428976 0.01540592
v 0.08173527 0.00967901 0.01580145
v 0.08421412 0.03429217 0.01540592
v 0.08569997 0.03429217 0.02112533
v 0.08563061 0.03429217 0.02120174
v 0.08546997 0.00967901 0.02131860
v 0.08190685 0.03396685 0.01540592
v 0.06293031 0.00967901 0.01933647
v 0.06211984 0.03429217 0.01700039
v 0.08181193 0.03429217 0.01540592
v 0.08186669 0.03409939 0.01540592
v 0.08452078 0.03429217 0.02160737
v 0.08258224 0.03024379 0.02233326
v 0.08258224 0.00967901 0.02233326
v 0.06224762 0.00967901 0.01947692
v 0.06178032 0.00967901 0.01957356
v 0.06141160 0.00967901 0.01965558
v 0.06115605 0.00967901 0.01971289
v 0.05791419 0.00967901 0.02053990
v 0.05922116 0.03429217 0.01786223
v 0.08246906 0.03230172 0.02226022
v 0.08255303 0.03150168 0.02231303
v 0.08256034 0.03129926 0.02231640
v 0.08035894 0.03429217 0.02233101
v 0.08050132 0.03403915 0.02235910
v 0.08132273 0.03364154 0.02228943
v 0.08173527 0.03273307 0.02234674
v 0.08172797 0.03150168 0.02245461
v 0.08172797 0.03129926 0.02245798
v 0.08173162 0.03024379 0.02247484
v 0.08173162 0.00967901 0.02247484
v 0.05734833 0.00967901 0.02071070
v 0.05696135 0.00967901 0.02082868
v 0.05633707 0.00967901 0.02105229
v 0.05540613 0.00967901 0.02142534
v 0.05423425 0.00967901 0.02194447
v 0.05318648 0.00967901 0.02242764
v 0.05289807 0.00967901 0.02256136
v 0.05166778 0.00967901 0.02314903
v 0.05129175 0.00967901 0.02333331
v 0.05103620 0.00967901 0.02345916
v 0.05065287 0.00967901 0.02368501
v 0.05039002 0.00967901 0.02384008
v 0.04937146 0.00967901 0.02445584
v 0.04941527 0.02147231 0.02445247
v 0.04943352 0.02272297 0.02445135
v 0.04948463 0.02397845 0.02445022
v 0.05103620 0.02773766 0.02347264
v 0.05345299 0.03429217 0.02215010
v 0.05444234 0.03429217 0.02477159
v 0.05247824 0.02854492 0.02598626
v 0.05372679 0.02741234 0.02603458
v 0.05164587 0.02397845 0.02667506
v 0.05164587 0.02272297 0.02678293
v 0.05164587 0.00967901 0.02683575
v 0.04881290 0.00967901 0.02530420
v 0.04912686 0.02147231 0.02533005
v 0.04919257 0.02272297 0.02533005
v 0.04960511 0.02523152 0.02451540
v 0.05193793 0.03150168 0.02315015
v 0.05212047 0.03275475 0.02326140
v 0.05344204 0.03429217 0.02216358
v 0.05441678 0.03429217 0.02477159
v 0.05219713 0.02854492 0.02598626
v 0.05289807 0.02779308 0.02605368
v 0.05055430 0.02523152 0.02628291
v 0.05039002 0.02272297 0.02660540
v 0.05039002 0.02147231 0.02664135
v 0.05038272 0.00967901 0.02685260
v 0.05112747 0.00967901 0.02688406
v 0.04917797 0.00967901 0.02647954
v 0.04947733 0.02147231 0.02621099
v 0.04952479 0.02272297 0.02618065
v 0.04963797 0.02372783 0.02608514
v 0.04945908 0.02407966 0.02543904
v 0.04960511 0.02523152 0.02507722
v 0.04971098 0.02600987 0.02480979
v 0.04971098 0.02600987 0.02462214
v 0.05224459 0.03345599 0.02339623
v 0.05298569 0.03429217 0.02280744
v 0.05372314 0.03429217 0.02470866
v 0.05336537 0.03371865 0.02483676
v 0.05099969 0.02715209 0.02597502
v 0.05083906 0.02648459 0.02610874
v 0.05028050 0.02407966 0.02635257
v 0.04979860 0.00967901 0.02672675
v 0.04978034 0.02456402 0.02593120
v 0.05018923 0.02644844 0.02526937
v 0.05089747 0.02862685 0.02487497
v 0.05224459 0.03345599 0.02349961
v 0.05298569 0.03429217 0.02400975
f 1 2 3
f 1 3 4
f 1 4 5
f 1 5 6
f 1 6 15
f 1 15 22
f 1 22 21
f 1 21 32
f 1 32 61
f 1 61 74
f 1 74 92
f 1 92 103
f 1 103 93
f 1 93 75
f 1 75 62
f 1 62 36
f 1 36 24
f 1 24 17
f 1 17 16
f 1 16 7
f 1 7 2
f 2 7 8
f 2 8 18
f 2 18 26
f 2 26 43
f 2 43 67
f 2 67 82
f 2 82 81
f 2 81 98
f 2 98 83
f 2 83 68
f 2 68 56
f 2 56 55
f 2 55 54
f 2 54 53
f 2 53 52
f 2 52 51
f 2 51 50
f 2 50 49
f 2 49 48
f 2 48 47
f 2 47 46
f 2 46 45
f 2 45 44
f 2 44 31
f 2 31 30
f 2 30 29
f 2 29 28
f 2 28 27
f 2 27 20
f 2 20 14
f 2 14 5
f 2 5 4
f 2 4 3
f 5 9 10
f 5 10 11
f 5 11 12
f 5 12 13
f 5 13 6
f 5 14 9
f 6 13 15
f 7 16 8
f 8 16 17
f 8 17 18
f 9 14 19
f 9 19 23
f 9 23 22
f 9 22 15
f 9 15 13
f 9 13 12
f 9 12 11
f 9 11 10
f 14 20 21
f 14 21 22
f 14 22 23
f 14 23 19
f 17 24 25
f 17 25 18
f 18 25 26
f 20 27 21
f 21 27 28
f 21 28 29
f 21 29 30
f 21 30 31
f 21 31 32
f 24 33 34
f 24 34 35
f 24 35 25
f 24 36 37
f 24 37 38
f 24 38 39
f 24 39 33
f 25 35 40
f 25 40 41
f 25 41 42
f 25 42 43
f 25 43 26
f 31 44 32
f 32 44 45
f 32 45 46
f 32 46 47
f 32 47 48
f 32 48 49
f 32 49 50
f 32 50 51
f 32 51 52
f 32 52 53
f 32 53 54
f 32 54 55
f 32 55 56
f 32 56 57
f 32 57 58
f 32 58 59
f 32 59 60
f 32 60 61
f 33 39 40
f 33 40 34
f 34 40 35
f 36 62 63
f 36 63 37
f 37 39 38
f 37 63 64
f 37 64 65
f 37 65 39
f 39 65 40
f 40 65 66
f 40 66 41
f 41 66 42
f 42 66 67
f 42 67 43
f 56 68 57
f 57 68 58
f 58 68 69
f 58 69 59
f 59 69 70
f 59 70 71
f 59 71 60
f 60 71 72
f 60 72 61
f 61 72 73
f 61 73 74
f 62 75 76
f 62 76 63
f 63 76 65
f 63 65 77
f 63 77 64
f 64 77 65
f 65 78 79
f 65 79 66
f 65 76 78
f 66 79 80
f 66 80 81
f 66 81 82
f 66 82 67
f 68 83 69
f 69 83 84
f 69 84 85
f 69 85 70
f 70 85 86
f 70 86 87
f 70 87 88
f 70 88 89
f 70 89 90
f 70 90 71
f 71 90 73
f 71 73 72
f 73 90 91
f 73 91 74
f 74 91 92
f 75 93 94
f 75 94 76
f 76 94 95
f 76 95 96
f 76 96 78
f 78 86 97
f 78 97 79
f 78 96 86
f 79 97 85
f 79 85 84
f 79 84 83
f 79 83 80
f 80 83 98
f 80 98 81
f 85 97 86
f 86 96 99
f 86 99 87
f 87 99 88
f 88 99 89
f 89 99 100
f 89 100 101
f 89 101 102
f 89 102 91
f 89 91 90
f 91 102 103
f 91 103 92
f 93 103 94
f 94 103 95
f 95 101 99
f 95 99 96
f 95 103 101
f 99 101 100
f 101 103 102

