# https://github.com/mikedh/trimesh
v 0.10429912 0.01367599 -0.00225244
v 0.10680653 0.01363674 -0.00099870
v 0.10808290 0.01353643 -0.00102602
v 0.10680653 0.01349864 -0.00205305
v 0.10567339 0.01353498 -0.00237354
v 0.10533436 0.01343177 -0.00301270
v 0.10429912 0.01349718 -0.00311012
v 0.10304632 0.01350300 -0.00316839
v 0.10179171 0.01350300 -0.00319571
v 0.10053891 0.01350300 -0.00319662
v 0.09928611 0.01350300 -0.00319662
v 0.09928611 0.01363674 -0.00225244
v 0.10807021 0.01357132 -0.00033041
v 0.10767679 0.01343467 -0.00178445
v 0.10905287 0.01347393 -0.00033041
v 0.10891508 0.01344340 -0.00062632
v 0.10617198 0.01329221 -0.00287158
v 0.09758912 0.00357546 -0.00963194
v 0.09686572 0.00382405 -0.00963194
v 0.09114382 0.00983959 -0.00685860
v 0.09846843 0.01344340 -0.00309100
v 0.09840860 0.01347829 -0.00225244
v 0.09851738 0.01340851 -0.00153771
v 0.09928611 0.01345212 -0.00149310
v 0.10687543 0.01352335 -0.00033041
v 0.10848177 0.01269472 -0.00144029
v 0.10799225 0.00624597 -0.00477176
v 0.10937741 0.01301164 -0.00033041
v 0.10909095 0.01269472 -0.00081388
v 0.10345063 0.00082645 -0.00917487
v 0.09783932 0.00344172 -0.00963194
v 0.09552408 0.00396070 -0.00963194
v 0.09538448 0.00392872 -0.00963194
v 0.09429485 0.00363506 -0.00963194
v 0.09406641 0.00352894 -0.00963194
v 0.09364579 0.00331379 -0.00963194
v 0.09313814 0.00285441 -0.00963194
v 0.09298404 0.00270031 -0.00963194
v 0.09284081 0.00255203 -0.00963194
v 0.09238574 0.00199671 -0.00963194
v 0.09219718 0.00155768 -0.00963194
v 0.09211741 0.00134979 -0.00963194
v 0.09188897 0.00030020 -0.00963194
v 0.09185996 0.00015919 -0.00963194
v 0.09114382 0.00893246 -0.00701429
v 0.09114382 0.01031932 -0.00599819
v 0.09114563 0.01065223 -0.00475992
v 0.09114563 0.01068857 -0.00350618
v 0.09114563 0.01066531 -0.00288705
v 0.09114563 0.01064060 -0.00225244
v 0.10601787 0.01339106 -0.00033041
v 0.09114563 0.00991809 -0.00033041
v 0.10856154 0.00517456 -0.00477176
v 0.10952244 0.01269472 -0.00033041
v 0.10345063 0.00060984 -0.00919035
v 0.09975750 0.00132944 -0.00963194
v 0.09907761 0.00228891 -0.00963194
v 0.09887455 0.00253749 -0.00963194
v 0.09827082 0.00311463 -0.00963194
v 0.09202313 -0.00109538 -0.00963194
v 0.09156263 -0.00109538 -0.00852023
v 0.09142121 0.00015919 -0.00852023
v 0.09114382 0.00831753 -0.00686770
v 0.09126166 0.00015919 -0.00726649
v 0.09114382 0.01064641 -0.00477267
v 0.09114563 0.00630993 -0.00033041
v 0.10964754 0.01143870 -0.00033041
v 0.10966205 0.01044725 -0.00033041
v 0.10966567 0.01018558 -0.00033041
v 0.10857423 0.00393308 -0.00477176
v 0.10345063 0.00015919 -0.00920765
v 0.10025608 0.00015919 -0.00963194
v 0.09204852 -0.00116516 -0.00963194
v 0.09162608 -0.00117389 -0.00860218
v 0.09159707 -0.00117389 -0.00851386
v 0.09137407 -0.00109538 -0.00726649
v 0.09114382 0.00812855 -0.00678485
v 0.09116739 0.00015773 -0.00033041
v 0.09114382 0.00771714 -0.00648894
v 0.09114382 0.00664429 -0.00477267
v 0.10959134 0.00893246 -0.00033041
v 0.10857423 -0.00117389 -0.00477176
v 0.10345063 -0.00053860 -0.00918034
v 0.10014911 -0.00035980 -0.00963194
v 0.09205214 -0.00117389 -0.00963194
v 0.09138495 -0.00117534 -0.00477176
v 0.09141033 -0.00117389 -0.00726649
v 0.09139583 -0.00117389 -0.00609197
v 0.09135957 -0.00109538 -0.00601275
v 0.09117101 0.00011994 -0.00033041
v 0.09114382 0.00680711 -0.00532625
v 0.09114382 0.00694376 -0.00560850
v 0.09114382 0.00710221 -0.00582155
v 0.10886794 -0.00117534 -0.00033041
v 0.10857423 -0.00117534 -0.00475992
v 0.10855973 -0.00117534 -0.00477176
v 0.10345063 -0.00117389 -0.00807409
v 0.10345063 -0.00116080 -0.00811507
v 0.10345063 -0.00102851 -0.00852023
v 0.09977562 -0.00117389 -0.00963194
v 0.09990254 -0.00105613 -0.00963194
v 0.09133600 -0.00117534 -0.00033041
v 0.09132330 -0.00114917 -0.00033041
v 0.09130880 -0.00111574 -0.00033041
f 1 2 3
f 1 3 4
f 1 4 5
f 1 5 6
f 1 6 7
f 1 7 8
f 1 8 9
f 1 9 10
f 1 10 11
f 1 11 12
f 1 12 2
f 2 13 3
f 2 12 13
f 3 14 4
f 3 13 15
f 3 15 16
f 3 16 14
f 4 14 6
f 4 6 5
f 6 14 17
f 6 17 18
f 6 18 19
f 6 19 7
f 7 19 20
f 7 20 8
f 8 20 9
f 9 20 10
f 10 20 11
f 11 21 12
f 11 20 21
f 12 21 22
f 12 22 23
f 12 23 24
f 12 24 25
f 12 25 13
f 13 25 51
f 13 51 52
f 13 52 66
f 13 66 78
f 13 78 90
f 13 90 104
f 13 104 103
f 13 103 102
f 13 102 94
f 13 94 81
f 13 81 69
f 13 69 68
f 13 68 67
f 13 67 54
f 13 54 28
f 13 28 15
f 14 16 26
f 14 26 27
f 14 27 17
f 15 28 16
f 16 28 29
f 16 29 26
f 17 27 30
f 17 30 31
f 17 31 18
f 18 31 59
f 18 59 58
f 18 58 57
f 18 57 56
f 18 56 72
f 18 72 84
f 18 84 101
f 18 101 100
f 18 100 85
f 18 85 73
f 18 73 60
f 18 60 44
f 18 44 43
f 18 43 42
f 18 42 41
f 18 41 40
f 18 40 39
f 18 39 38
f 18 38 37
f 18 37 36
f 18 36 35
f 18 35 34
f 18 34 33
f 18 33 32
f 18 32 19
f 19 32 20
f 20 33 34
f 20 34 35
f 20 35 36
f 20 36 37
f 20 37 38
f 20 38 39
f 20 39 40
f 20 40 41
f 20 41 42
f 20 42 43
f 20 43 44
f 20 44 45
f 20 45 63
f 20 63 77
f 20 77 79
f 20 79 93
f 20 93 92
f 20 92 91
f 20 91 80
f 20 80 65
f 20 65 46
f 20 46 21
f 20 32 33
f 21 46 47
f 21 47 22
f 22 47 48
f 22 48 49
f 22 49 50
f 22 50 23
f 23 51 25
f 23 25 24
f 23 50 52
f 23 52 51
f 26 29 53
f 26 53 27
f 27 53 30
f 28 54 29
f 29 54 53
f 30 55 56
f 30 56 57
f 30 57 58
f 30 58 59
f 30 59 31
f 30 53 55
f 44 60 61
f 44 61 62
f 44 62 45
f 45 62 64
f 45 64 63
f 46 65 47
f 47 65 48
f 48 65 49
f 49 65 50
f 50 65 52
f 52 65 80
f 52 80 66
f 53 54 67
f 53 67 68
f 53 68 69
f 53 69 70
f 53 70 71
f 53 71 55
f 55 71 72
f 55 72 56
f 60 73 61
f 61 73 74
f 61 74 75
f 61 75 76
f 61 76 62
f 62 76 64
f 63 64 77
f 64 78 79
f 64 79 77
f 64 76 78
f 66 80 78
f 69 81 82
f 69 82 70
f 70 82 71
f 71 83 84
f 71 84 72
f 71 82 83
f 73 85 74
f 74 86 75
f 74 85 86
f 75 86 87
f 75 87 76
f 76 87 88
f 76 88 89
f 76 89 90
f 76 90 78
f 78 80 91
f 78 91 92
f 78 92 93
f 78 93 79
f 81 94 82
f 82 94 95
f 82 95 96
f 82 96 97
f 82 97 98
f 82 98 99
f 82 99 83
f 83 99 100
f 83 100 101
f 83 101 84
f 85 100 96
f 85 96 86
f 86 88 87
f 86 96 95
f 86 95 94
f 86 94 102
f 86 102 88
f 88 102 103
f 88 103 89
f 89 103 104
f 89 104 90
f 96 100 97
f 97 100 98
f 98 100 99

