# https://github.com/mikedh/trimesh
v -0.00535729 0.00716202 -0.00914188
v -0.00535729 0.00735130 -0.00914188
v -0.00407422 0.00716202 -0.00914188
v -0.00793581 0.00452787 -0.00914126
v -0.00509959 0.00760945 -0.00914188
v -0.00767811 0.00503117 -0.00914126
v -0.00690425 0.00606270 -0.00914126
v -0.00407422 0.00786707 -0.00914188
v -0.00407422 0.00709423 -0.00914126
v -0.00432573 0.00683608 -0.00914126
v -0.00664655 0.00452787 -0.00914126
v -0.00793581 0.00477301 -0.00913387
v -0.00835602 0.00452733 -0.00905071
v -0.00819273 0.00452787 -0.00910738
v -0.00484190 0.00786707 -0.00913756
v -0.00432573 0.00812522 -0.00914126
v -0.00458342 0.00786707 -0.00914188
v -0.00613115 0.00683608 -0.00914126
v -0.00587346 0.00709423 -0.00914003
v -0.00742041 0.00554693 -0.00913387
v -0.00716194 0.00580509 -0.00913941
v -0.00664655 0.00657846 -0.00911354
v -0.00407422 0.00812522 -0.00914126
v -0.00407422 0.00683608 -0.00912894
v -0.00638421 0.00452787 -0.00908828
v -0.00820821 0.00452733 -0.00903038
v -0.00795206 0.00504364 -0.00909075
v -0.00767811 0.00528878 -0.00911970
v -0.00832351 0.00464448 -0.00902791
v -0.00810296 0.00496554 -0.00905687
v -0.00819118 0.00474806 -0.00906857
v -0.00820821 0.00452896 -0.00910184
v -0.00850847 0.00452733 -0.00890656
v -0.00458342 0.00812522 -0.00912155
v -0.00561576 0.00735130 -0.00913387
v -0.00535729 0.00760945 -0.00912586
v -0.00407422 0.00838337 -0.00911970
v -0.00615128 0.00711538 -0.00909506
v -0.00742970 0.00580997 -0.00908828
v -0.00717897 0.00607788 -0.00909444
v -0.00710390 0.00627475 -0.00906611
v -0.00683847 0.00657846 -0.00905625
v -0.00634165 0.00704379 -0.00906611
v -0.00407422 0.00664083 -0.00907227
v -0.00636873 0.00452787 -0.00908274
v -0.00820821 0.00452733 -0.00689895
v -0.00626890 0.00452787 -0.00889855
v -0.00786771 0.00528878 -0.00906364
v -0.00767579 0.00553120 -0.00907288
v -0.00827631 0.00481640 -0.00898048
v -0.00804802 0.00513746 -0.00901436
v -0.00781895 0.00543521 -0.00903777
v -0.00758757 0.00572753 -0.00905563
v -0.00869807 0.00452733 -0.00871436
v -0.00873289 0.00455608 -0.00866384
v -0.00512049 0.00788876 -0.00909321
v -0.00483029 0.00812902 -0.00907658
v -0.00458342 0.00830528 -0.00906426
v -0.00431721 0.00839042 -0.00908089
v -0.00588042 0.00736269 -0.00909013
v -0.00560802 0.00760945 -0.00907904
v -0.00535729 0.00781500 -0.00906980
v -0.00407422 0.00855747 -0.00906364
v -0.00613270 0.00716202 -0.00908705
v -0.00734999 0.00600250 -0.00906364
v -0.00703039 0.00644668 -0.00902545
v -0.00677578 0.00670808 -0.00902853
v -0.00664655 0.00676991 -0.00905625
v -0.00625188 0.00721626 -0.00902175
v -0.00608008 0.00728459 -0.00906426
v -0.00651422 0.00696190 -0.00902545
v -0.00407422 0.00657358 -0.00889855
v -0.00623563 0.00460760 -0.00905009
v -0.01032473 0.00452733 -0.00284922
v -0.00628051 0.00452787 -0.00882955
v -0.00872283 0.00505340 -0.00839588
v -0.00846591 0.00505557 -0.00865460
v -0.00831268 0.00514180 -0.00875994
v -0.00820821 0.00505394 -0.00891148
v -0.00820821 0.00505069 -0.00891333
v -0.00826315 0.00528878 -0.00871313
v -0.00775937 0.00560713 -0.00898233
v -0.00752179 0.00589945 -0.00900389
v -0.00895731 0.00452733 -0.00845070
v -0.00909428 0.00463851 -0.00825111
v -0.00504774 0.00804550 -0.00906056
v -0.00473665 0.00826677 -0.00903962
v -0.00422513 0.00852601 -0.00904085
v -0.00579917 0.00752322 -0.00905687
v -0.00551671 0.00776185 -0.00904578
v -0.00407422 0.00868600 -0.00893366
v -0.00727570 0.00617442 -0.00901498
v -0.00717897 0.00634472 -0.00897247
v -0.00732523 0.00674605 -0.00854249
v -0.00705438 0.00672869 -0.00878828
v -0.00696770 0.00657846 -0.00897555
v -0.00696616 0.00690061 -0.00871621
v -0.00671155 0.00716202 -0.00870204
v -0.00633855 0.00716202 -0.00899896
v -0.00654982 0.00750966 -0.00853818
v -0.00656529 0.00777758 -0.00828992
v -0.00626426 0.00748417 -0.00877350
v -0.00597096 0.00745597 -0.00900635
v -0.00407422 0.00663541 -0.00870573
v -0.00820743 0.00769677 -0.00284861
v -0.01197925 0.00452733 -0.00284922
v -0.00638963 0.00452787 -0.00864475
v -0.00407422 0.00663975 -0.00869526
v -0.00407422 0.00855909 -0.00624596
v -0.00407422 0.00891107 -0.00582029
v -0.00407422 0.00903473 -0.00567368
v -0.00637879 0.00904232 -0.00284861
v -0.00644921 0.00896476 -0.00284861
v -0.00664810 0.00878091 -0.00284861
v -0.00686787 0.00857916 -0.00284861
v -0.00693288 0.00852059 -0.00284861
v -0.00698705 0.00847449 -0.00284861
v -0.00716194 0.00836114 -0.00284861
v -0.00623640 0.00461194 -0.00874085
v -0.00887451 0.00496663 -0.00829054
v -0.00882730 0.00513855 -0.00824187
v -0.00857038 0.00514018 -0.00850121
v -0.00865550 0.00528878 -0.00832873
v -0.00860598 0.00545365 -0.00827822
v -0.00844579 0.00553663 -0.00837678
v -0.00828482 0.00561961 -0.00847534
v -0.00778955 0.00590922 -0.00875440
v -0.00768895 0.00581864 -0.00890717
v -0.00820821 0.00582841 -0.00841066
v -0.00744827 0.00609524 -0.00892319
v -0.00808284 0.00621510 -0.00827144
v -0.00781663 0.00620208 -0.00851970
v -0.00903315 0.00452733 -0.00837185
v -0.00921888 0.00452733 -0.00817657
v -0.00924209 0.00454577 -0.00814208
v -0.00934579 0.00462441 -0.00798437
v -0.00917631 0.00477247 -0.00808355
v -0.00905714 0.00477247 -0.00821230
v -0.00522032 0.00798909 -0.00902298
v -0.00472349 0.00851787 -0.00877658
v -0.00458342 0.00843435 -0.00894352
v -0.00490845 0.00821742 -0.00899280
v -0.00523115 0.00825592 -0.00877165
v -0.00512049 0.00843544 -0.00864228
v -0.00489607 0.00847340 -0.00872853
v -0.00430251 0.00862905 -0.00888623
v -0.00420810 0.00877494 -0.00877658
v -0.00458342 0.00855313 -0.00881539
v -0.00568928 0.00769514 -0.00898849
v -0.00552909 0.00802977 -0.00880060
v -0.00535729 0.00794408 -0.00898233
v -0.00407422 0.00869142 -0.00892750
v -0.00784062 0.00648844 -0.00828376
v -0.00759531 0.00676123 -0.00829423
v -0.00752102 0.00693316 -0.00822893
v -0.00722927 0.00716202 -0.00828746
v -0.00734922 0.00702427 -0.00830286
v -0.00709152 0.00727863 -0.00830039
v -0.00682918 0.00753190 -0.00829731
v -0.00653202 0.00723741 -0.00878212
v -0.00673709 0.00770382 -0.00822462
v -0.00645927 0.00795004 -0.00821230
v -0.00665506 0.00787412 -0.00813222
v -0.00657303 0.00804224 -0.00804043
v -0.00628748 0.00801838 -0.00827390
v -0.00613115 0.00753624 -0.00882093
v -0.00820743 0.00950439 -0.00284861
v -0.01193746 0.00463092 -0.00284922
v -0.01196378 0.00452733 -0.00292130
v -0.00407422 0.00917682 -0.00556649
v -0.00632230 0.00912747 -0.00284861
v -0.00878474 0.00528878 -0.00819813
v -0.00890546 0.00528878 -0.00806877
v -0.00885903 0.00544985 -0.00801949
v -0.00870426 0.00553771 -0.00811990
v -0.00854639 0.00562611 -0.00822093
v -0.00837459 0.00575031 -0.00830347
v -0.00813701 0.00606270 -0.00832318
v -0.00810296 0.00649494 -0.00803427
v -0.00801242 0.00638702 -0.00820614
v -0.00791414 0.00629482 -0.00836384
v -0.00826702 0.00606270 -0.00819813
v -0.00834054 0.00621564 -0.00801456
v -0.00820821 0.00628614 -0.00809341
v -0.00817880 0.00630133 -0.00811066
v -0.00926918 0.00452733 -0.00812113
v -0.00947038 0.00452733 -0.00787965
v -0.00948818 0.00452733 -0.00785747
v -0.00950289 0.00452733 -0.00783899
v -0.00958492 0.00458048 -0.00770285
v -0.00984880 0.00485545 -0.00719402
v -0.00960736 0.00489233 -0.00747369
v -0.00930555 0.00477247 -0.00793448
v -0.00907881 0.00512662 -0.00797329
v -0.00912601 0.00495470 -0.00802934
v -0.00512049 0.00812902 -0.00895337
v -0.00533330 0.00811925 -0.00883695
v -0.00482255 0.00859109 -0.00864228
v -0.00522109 0.00850757 -0.00850738
v -0.00540295 0.00820169 -0.00871867
v -0.00553760 0.00828575 -0.00854742
v -0.00533330 0.00832317 -0.00863674
v -0.00504852 0.00855313 -0.00855666
v -0.00470956 0.00876844 -0.00851046
v -0.00432573 0.00897236 -0.00843284
v -0.00413690 0.00900707 -0.00848273
v -0.00407422 0.00908028 -0.00841066
v -0.00407422 0.00894958 -0.00859362
v -0.00407422 0.00879610 -0.00880430
v -0.00459039 0.00890185 -0.00838725
v -0.00570940 0.00822935 -0.00848766
v -0.00776711 0.00666036 -0.00821846
v -0.00785842 0.00676774 -0.00804598
v -0.00761311 0.00703783 -0.00805768
v -0.00753649 0.00720975 -0.00798314
v -0.00748774 0.00716202 -0.00806692
v -0.00744286 0.00711701 -0.00814454
v -0.00726332 0.00719673 -0.00823078
v -0.00734148 0.00716202 -0.00819382
v -0.00700098 0.00744946 -0.00822832
v -0.00692127 0.00762518 -0.00814084
v -0.00684079 0.00779819 -0.00805275
v -0.00637570 0.00811654 -0.00811620
v -0.00674483 0.00797011 -0.00796836
v -0.00665429 0.00813227 -0.00787411
v -0.00646392 0.00821471 -0.00794988
v -0.00629212 0.00827599 -0.00802072
v -0.00617372 0.00818976 -0.00819197
v -0.00610562 0.00811275 -0.00831456
v -0.00859359 0.00929342 -0.00284922
v -0.00871277 0.00921153 -0.00284922
v -0.00879325 0.00915458 -0.00284922
v -0.00890237 0.00907649 -0.00284922
v -0.00911363 0.00891378 -0.00284922
v -0.00920495 0.00884165 -0.00284922
v -0.00932412 0.00874186 -0.00284922
v -0.00945336 0.00861170 -0.00284922
v -0.00958105 0.00847991 -0.00284922
v -0.00963289 0.00842622 -0.00284922
v -0.00970641 0.00834975 -0.00284922
v -0.00983487 0.00821199 -0.00284922
v -0.00993083 0.00809268 -0.00284922
v -0.01000512 0.00799885 -0.00284922
v -0.01006781 0.00791967 -0.00284922
v -0.01016764 0.00779060 -0.00284922
v -0.01029997 0.00760403 -0.00284922
v -0.01042920 0.00741747 -0.00284922
v -0.01069309 0.00703620 -0.00284922
v -0.01082697 0.00683987 -0.00284922
v -0.01090900 0.00671730 -0.00284922
v -0.01098329 0.00658389 -0.00284922
v -0.01133772 0.00594176 -0.00284922
v -0.01141278 0.00580563 -0.00284922
v -0.01145070 0.00573567 -0.00284922
v -0.01154279 0.00554639 -0.00284922
v -0.01164262 0.00532132 -0.00284922
v -0.01166893 0.00526058 -0.00284922
v -0.00810142 0.00956351 -0.00284861
v -0.01191502 0.00459838 -0.00301124
v -0.01189490 0.00452733 -0.00322315
v -0.00407422 0.00939592 -0.00549688
v -0.00624646 0.00925980 -0.00284861
v -0.00903392 0.00528878 -0.00791723
v -0.00909970 0.00542274 -0.00774228
v -0.00936204 0.00568740 -0.00723098
v -0.00912060 0.00571126 -0.00750942
v -0.00880331 0.00562177 -0.00795357
v -0.00863151 0.00574814 -0.00804844
v -0.00831500 0.00592223 -0.00824618
v -0.00802945 0.00666687 -0.00795850
v -0.00778490 0.00693966 -0.00797205
v -0.00820821 0.00632736 -0.00806138
v -0.00827631 0.00638756 -0.00794495
v -0.00820821 0.00659148 -0.00783591
v -0.00857193 0.00592006 -0.00798499
v -0.00852240 0.00606270 -0.00792770
v -0.00852549 0.00637020 -0.00767328
v -0.00965456 0.00452733 -0.00764248
v -0.00988904 0.00468353 -0.00724638
v -0.00995714 0.00477084 -0.00710223
v -0.00991458 0.00498344 -0.00702215
v -0.00981398 0.00505394 -0.00710223
v -0.00967314 0.00503062 -0.00729689
v -0.00948509 0.00529095 -0.00735295
v -0.00520484 0.00875867 -0.00823879
v -0.00535729 0.00846852 -0.00846241
v -0.00552058 0.00853306 -0.00827760
v -0.00535729 0.00871257 -0.00818704
v -0.00535729 0.00858404 -0.00833304
v -0.00600269 0.00825430 -0.00825296
v -0.00587346 0.00829443 -0.00830039
v -0.00561499 0.00838283 -0.00838232
v -0.00503304 0.00879555 -0.00828807
v -0.00497113 0.00902768 -0.00799669
v -0.00484190 0.00896259 -0.00816117
v -0.00432573 0.00906238 -0.00830409
v -0.00407422 0.00910577 -0.00837308
v -0.00727570 0.00798096 -0.00746445
v -0.00727493 0.00746465 -0.00798068
v -0.00736392 0.00729381 -0.00805953
v -0.00770210 0.00712080 -0.00789197
v -0.00779032 0.00720433 -0.00772072
v -0.00804647 0.00746031 -0.00720388
v -0.00779264 0.00746519 -0.00746568
v -0.00710236 0.00754654 -0.00805645
v -0.00701259 0.00771901 -0.00797698
v -0.00692669 0.00788767 -0.00788643
v -0.00701181 0.00797662 -0.00771949
v -0.00684002 0.00805092 -0.00779649
v -0.00700330 0.00823098 -0.00745398
v -0.00673554 0.00822284 -0.00770224
v -0.00656375 0.00828738 -0.00777924
v -0.00627200 0.00852113 -0.00774721
v -0.00613115 0.00856723 -0.00780080
v -0.00613115 0.00845605 -0.00793078
v -0.00598567 0.00850160 -0.00798437
v -0.00610562 0.00831287 -0.00811374
v -0.00846049 0.00936718 -0.00284922
v -0.00859050 0.00929234 -0.00287079
v -0.00868955 0.00920448 -0.00296072
v -0.00888534 0.00906293 -0.00296688
v -0.00901380 0.00896422 -0.00296688
v -0.00917786 0.00883569 -0.00296688
v -0.00943556 0.00859543 -0.00296688
v -0.00913685 0.00880315 -0.00322561
v -0.00930710 0.00872451 -0.00296688
v -0.00965069 0.00829443 -0.00322561
v -0.00979850 0.00811708 -0.00325025
v -0.00987047 0.00799614 -0.00335313
v -0.00989446 0.00802543 -0.00318126
v -0.00962593 0.00826840 -0.00338886
v -0.01013359 0.00774558 -0.00311658
v -0.01015293 0.00777053 -0.00296688
v -0.01036575 0.00745001 -0.00301247
v -0.01067839 0.00701505 -0.00296688
v -0.01065672 0.00698305 -0.00314122
v -0.01081691 0.00681547 -0.00295395
v -0.01088656 0.00667988 -0.00303157
v -0.01095620 0.00658768 -0.00295395
v -0.01115431 0.00617984 -0.00306914
v -0.01142130 0.00568035 -0.00310734
v -0.01143755 0.00571072 -0.00296688
v -0.01163179 0.00528064 -0.00297489
v -0.01151571 0.00554639 -0.00296688
v -0.01166971 0.00514397 -0.00306668
v -0.00794664 0.00963238 -0.00284861
v -0.00809213 0.00955863 -0.00290651
v -0.01179043 0.00477247 -0.00322561
v -0.01168518 0.00492324 -0.00338085
v -0.01189026 0.00452733 -0.00324040
v -0.00407422 0.00941436 -0.00549565
v -0.00623872 0.00929613 -0.00284861
v -0.00962903 0.00518899 -0.00724268
v -0.00958105 0.00536091 -0.00718293
v -0.00954003 0.00555941 -0.00709546
v -0.00960117 0.00565486 -0.00694638
v -0.00941853 0.00578556 -0.00708560
v -0.00930787 0.00585932 -0.00716691
v -0.00937907 0.00596833 -0.00699443
v -0.00913530 0.00598894 -0.00726794
v -0.00906256 0.00588318 -0.00743981
v -0.00887683 0.00572970 -0.00778170
v -0.00786461 0.00703240 -0.00780018
v -0.00859901 0.00647433 -0.00750141
v -0.00878319 0.00662944 -0.00715891
v -0.00835292 0.00648681 -0.00777246
v -0.00861062 0.00674388 -0.00725624
v -0.00853865 0.00691580 -0.00717615
v -0.00836685 0.00701668 -0.00726979
v -0.00884433 0.00645698 -0.00722852
v -0.00992309 0.00452733 -0.00729012
v -0.01006858 0.00452733 -0.00709730
v -0.01012507 0.00463526 -0.00695870
v -0.01009412 0.00477247 -0.00691003
v -0.01000512 0.00504039 -0.00684350
v -0.00986892 0.00515536 -0.00696055
v -0.00550200 0.00877766 -0.00800717
v -0.00535729 0.00881182 -0.00805830
v -0.00581387 0.00855530 -0.00804536
v -0.00596555 0.00874891 -0.00771024
v -0.00514293 0.00898971 -0.00793756
v -0.00507405 0.00907269 -0.00785809
v -0.00489065 0.00925708 -0.00768560
v -0.00481945 0.00918550 -0.00784392
v -0.00458342 0.00923160 -0.00790799
v -0.00456795 0.00909113 -0.00812791
v -0.00431412 0.00919851 -0.00810573
v -0.00407422 0.00924190 -0.00817103
v -0.00779110 0.00772226 -0.00720634
v -0.00736083 0.00806448 -0.00729258
v -0.00727028 0.00823640 -0.00720203
v -0.00710390 0.00805905 -0.00754638
v -0.00800468 0.00716202 -0.00752790
v -0.00804647 0.00772009 -0.00694391
v -0.00829333 0.00718751 -0.00718971
v -0.00820821 0.00736811 -0.00711209
v -0.00812386 0.00754817 -0.00703201
v -0.00787545 0.00780578 -0.00703447
v -0.00709849 0.00830202 -0.00728211
v -0.00637028 0.00857374 -0.00759566
v -0.00663804 0.00837687 -0.00760182
v -0.00624646 0.00876139 -0.00746876
v -0.00614818 0.00870607 -0.00761846
v -0.00846668 0.00934386 -0.00296072
v -0.00856264 0.00927552 -0.00304266
v -0.00885671 0.00904232 -0.00314122
v -0.00952533 0.00842405 -0.00322561
v -0.00939609 0.00855475 -0.00322561
v -0.00910899 0.00878037 -0.00338455
v -0.00926608 0.00868329 -0.00322561
v -0.00959188 0.00823098 -0.00356073
v -0.00966308 0.00805797 -0.00374061
v -0.00984493 0.00796360 -0.00348311
v -0.00994631 0.00783398 -0.00348311
v -0.01010960 0.00771250 -0.00328845
v -0.00936901 0.00852601 -0.00338824
v -0.00948044 0.00837958 -0.00347449
v -0.00934889 0.00824725 -0.00411268
v -0.01063350 0.00694943 -0.00331370
v -0.01072172 0.00685235 -0.00322685
v -0.01086102 0.00663595 -0.00322561
v -0.01093376 0.00650687 -0.00322561
v -0.01120616 0.00601551 -0.00322561
v -0.01134004 0.00578177 -0.00320590
v -0.01139886 0.00563642 -0.00327921
v -0.01145844 0.00554910 -0.00320590
v -0.01156988 0.00528878 -0.00322561
v -0.00795748 0.00960635 -0.00298229
v -0.00779574 0.00969475 -0.00284861
v -0.00767811 0.00968336 -0.00322500
v -0.00789866 0.00958900 -0.00322500
v -0.00784527 0.00956351 -0.00348249
v -0.00805731 0.00953964 -0.00307900
v -0.00820821 0.00942738 -0.00322561
v -0.00839703 0.00932650 -0.00322561
v -0.01171924 0.00477030 -0.00347325
v -0.01181906 0.00452733 -0.00348249
v -0.01182293 0.00452733 -0.00347017
v -0.01143987 0.00546395 -0.00341781
v -0.01148398 0.00530342 -0.00349543
v -0.00623331 0.00941436 -0.00284861
v -0.00407422 0.00967252 -0.00549873
v -0.00623408 0.00967252 -0.00284861
v -0.00623331 0.00947131 -0.00284861
v -0.00964837 0.00548239 -0.00701106
v -0.00960890 0.00592657 -0.00669997
v -0.00956634 0.00582624 -0.00685028
v -0.00943246 0.00605782 -0.00682995
v -0.00931871 0.00614025 -0.00691250
v -0.00908809 0.00643637 -0.00695131
v -0.00885671 0.00673086 -0.00698704
v -0.00889927 0.00655731 -0.00708129
v -0.00922739 0.00606487 -0.00709607
v -0.00869961 0.00682306 -0.00708190
v -0.00861604 0.00700637 -0.00700367
v -0.01007709 0.00452733 -0.00708498
v -0.01022103 0.00452733 -0.00687369
v -0.01022877 0.00453547 -0.00685767
v -0.01036188 0.00452733 -0.00664453
v -0.01064124 0.00489341 -0.00592748
v -0.01017383 0.00477247 -0.00678128
v -0.01014055 0.00492541 -0.00672584
v -0.01037658 0.00513963 -0.00617512
v -0.01014984 0.00519875 -0.00648190
v -0.00983565 0.00587017 -0.00639381
v -0.01038432 0.00541352 -0.00592994
v -0.00579375 0.00879393 -0.00777185
v -0.00587733 0.00885629 -0.00761846
v -0.00573261 0.00902171 -0.00747061
v -0.00535497 0.00894470 -0.00785809
v -0.00607544 0.00880965 -0.00753961
v -0.00526752 0.00904557 -0.00776569
v -0.00510346 0.00921966 -0.00760367
v -0.00519168 0.00927227 -0.00745460
v -0.00501988 0.00930210 -0.00751373
v -0.00471885 0.00928746 -0.00774105
v -0.00439228 0.00926630 -0.00796035
v -0.00421971 0.00929234 -0.00800717
v -0.00407422 0.00931403 -0.00804536
v -0.00761620 0.00806122 -0.00703262
v -0.00707140 0.00854120 -0.00700182
v -0.00752566 0.00823315 -0.00693775
v -0.00735386 0.00830311 -0.00703016
v -0.00803332 0.00796523 -0.00666979
v -0.00786307 0.00805038 -0.00677020
v -0.00778800 0.00797770 -0.00694207
v -0.00829643 0.00745001 -0.00692913
v -0.00820821 0.00761759 -0.00685274
v -0.00820821 0.00762084 -0.00684905
v -0.00811380 0.00779331 -0.00677204
v -0.00836995 0.00727808 -0.00701784
v -0.00698008 0.00847340 -0.00717369
v -0.00680829 0.00853523 -0.00725131
v -0.00651577 0.00876898 -0.00722112
v -0.00634397 0.00881508 -0.00729689
v -0.00612961 0.00889806 -0.00734987
v -0.00831965 0.00928366 -0.00360385
v -0.00852627 0.00925166 -0.00322561
v -0.00872592 0.00911228 -0.00322685
v -0.00865860 0.00908516 -0.00348311
v -0.00882266 0.00901574 -0.00331370
v -0.00922120 0.00863719 -0.00347202
v -0.00878706 0.00899025 -0.00348311
v -0.00870426 0.00896531 -0.00376402
v -0.00873057 0.00886877 -0.00401289
v -0.00883117 0.00876301 -0.00410837
v -0.00907262 0.00874837 -0.00355642
v -0.00962903 0.00801621 -0.00390816
v -0.00931871 0.00821308 -0.00425683
v -0.00986970 0.00773690 -0.00386751
v -0.00990375 0.00778083 -0.00369564
v -0.00966153 0.00779819 -0.00425683
v -0.01007555 0.00766369 -0.00348311
v -0.01040212 0.00724446 -0.00339379
v -0.00916703 0.00858187 -0.00374061
v -0.00909042 0.00850594 -0.00411145
v -0.00923745 0.00839476 -0.00402644
v -0.00918947 0.00834649 -0.00425683
v -0.01069154 0.00677642 -0.00348311
v -0.01091287 0.00646783 -0.00338270
v -0.01117985 0.00596833 -0.00340796
v -0.01123325 0.00581810 -0.00348927
v -0.01137177 0.00554910 -0.00349543
v -0.00767811 0.00963835 -0.00348249
v -0.00767192 0.00974302 -0.00284861
v -0.00767811 0.00972404 -0.00296688
v -0.00739720 0.00975062 -0.00346278
v -0.00742041 0.00969313 -0.00374122
v -0.00781509 0.00954778 -0.00362849
v -0.00768353 0.00958737 -0.00372521
v -0.00797450 0.00949517 -0.00348249
v -0.00821827 0.00936067 -0.00350405
v -0.01166352 0.00461356 -0.00383178
v -0.01163953 0.00452733 -0.00400858
v -0.01117985 0.00545528 -0.00418414
v -0.01114967 0.00539345 -0.00435601
v -0.01141046 0.00539942 -0.00358968
v -0.01131760 0.00528878 -0.00399934
v -0.01145070 0.00497747 -0.00399934
v -0.00407422 0.00992959 -0.00557080
v -0.00624723 0.00984932 -0.00284861
v -0.00960890 0.00618527 -0.00644186
v -0.01011733 0.00591301 -0.00591393
v -0.00994321 0.00605727 -0.00605869
v -0.00989601 0.00622974 -0.00597245
v -0.00937829 0.00622540 -0.00674063
v -0.00904476 0.00659582 -0.00685336
v -0.00908500 0.00694943 -0.00643200
v -0.00878783 0.00690333 -0.00689463
v -0.00854252 0.00717775 -0.00691188
v -0.01023187 0.00452733 -0.00685706
v -0.01027598 0.00452733 -0.00678498
v -0.01071476 0.00452733 -0.00606300
v -0.01085715 0.00452733 -0.00581475
v -0.01085947 0.00452733 -0.00581044
v -0.01067993 0.00503062 -0.00574329
v -0.01061106 0.00503062 -0.00587265
v -0.01048105 0.00504472 -0.00607841
v -0.01043075 0.00524159 -0.00600325
v -0.01007090 0.00581810 -0.00606978
v -0.01051742 0.00529149 -0.00580797
v -0.01043230 0.00549975 -0.00575746
v -0.01022258 0.00581810 -0.00581906
v -0.00587346 0.00898863 -0.00741579
v -0.00587346 0.00906943 -0.00728642
v -0.00563433 0.00912963 -0.00737205
v -0.00556004 0.00906184 -0.00753221
v -0.00601198 0.00903256 -0.00723098
v -0.00535497 0.00910198 -0.00761415
v -0.00538283 0.00924624 -0.00736158
v -0.00548498 0.00928529 -0.00722112
v -0.00484190 0.00943931 -0.00735172
v -0.00481945 0.00932379 -0.00760367
v -0.00458342 0.00930644 -0.00777924
v -0.00460896 0.00950927 -0.00735788
v -0.00439615 0.00952717 -0.00744782
v -0.00431412 0.00933518 -0.00787226
v -0.00407422 0.00940840 -0.00785994
v -0.00724320 0.00847503 -0.00691188
v -0.00703813 0.00877332 -0.00671229
v -0.00695532 0.00871312 -0.00688416
v -0.00678352 0.00877494 -0.00697102
v -0.00769436 0.00814203 -0.00685398
v -0.00777252 0.00822284 -0.00666609
v -0.00760072 0.00829552 -0.00676588
v -0.00742351 0.00838500 -0.00683796
v -0.00810142 0.00803736 -0.00649730
v -0.00794045 0.00813010 -0.00658169
v -0.00836066 0.00752431 -0.00675726
v -0.00828637 0.00769623 -0.00665747
v -0.00827476 0.00794137 -0.00638395
v -0.00664655 0.00872179 -0.00716260
v -0.00645076 0.00899242 -0.00690511
v -0.00820821 0.00935688 -0.00354471
v -0.00816100 0.00933735 -0.00374122
v -0.00820821 0.00931186 -0.00374061
v -0.00829101 0.00926630 -0.00374061
v -0.00847674 0.00913018 -0.00376402
v -0.00861526 0.00905262 -0.00369317
v -0.00857889 0.00902659 -0.00386504
v -0.00855026 0.00900598 -0.00399934
v -0.00888070 0.00855150 -0.00446320
v -0.00892945 0.00860085 -0.00425683
v -0.00905869 0.00847557 -0.00425683
v -0.00866402 0.00883243 -0.00425683
v -0.00861371 0.00879501 -0.00444841
v -0.00856728 0.00875922 -0.00462028
v -0.00879248 0.00872993 -0.00425683
v -0.00942782 0.00808346 -0.00425683
v -0.00959343 0.00797228 -0.00408065
v -0.00962825 0.00775643 -0.00441946
v -0.00938603 0.00803411 -0.00445149
v -0.00913066 0.00828792 -0.00451494
v -0.00909815 0.00825592 -0.00464677
v -0.00927305 0.00812197 -0.00452850
v -0.00984339 0.00770219 -0.00399934
v -0.00986660 0.00747387 -0.00437511
v -0.01016609 0.00753461 -0.00348311
v -0.01065981 0.00672978 -0.00365190
v -0.01060255 0.00690550 -0.00348311
v -0.01030306 0.00733883 -0.00348126
v -0.01082387 0.00656382 -0.00347449
v -0.01064743 0.00645535 -0.00413732
v -0.01061648 0.00639949 -0.00430919
v -0.01098948 0.00608385 -0.00375970
v -0.01096317 0.00580997 -0.00425190
v -0.01116515 0.00568414 -0.00388352
v -0.00753108 0.00979509 -0.00284861
v -0.00750709 0.00978641 -0.00296688
v -0.00732523 0.00981407 -0.00322500
v -0.00745369 0.00976689 -0.00322500
v -0.00729582 0.00980322 -0.00336360
v -0.00716659 0.00983251 -0.00346278
v -0.00725481 0.00978858 -0.00353670
v -0.00742041 0.00963781 -0.00399934
v -0.00720064 0.00977014 -0.00374122
v -0.00713718 0.00974736 -0.00397469
v -0.00716194 0.00968282 -0.00425745
v -0.00777330 0.00952663 -0.00380098
v -0.00791491 0.00947185 -0.00372521
v -0.00759221 0.00956459 -0.00399934
v -0.01139576 0.00484840 -0.00431967
v -0.01155440 0.00452733 -0.00425622
v -0.01110401 0.00554314 -0.00426484
v -0.01099025 0.00556754 -0.00453404
v -0.01112491 0.00530017 -0.00453219
v -0.01118682 0.00522153 -0.00445827
v -0.01143213 0.00467648 -0.00442439
v -0.01122164 0.00530017 -0.00426484
v -0.00407422 0.00993176 -0.00557265
v -0.00629289 0.00992362 -0.00284861
v -0.00975207 0.00633604 -0.00607717
v -0.00966617 0.00652586 -0.00601064
v -0.01007941 0.00607626 -0.00581906
v -0.01011733 0.00617171 -0.00565335
v -0.00994167 0.00631760 -0.00579750
v -0.00983797 0.00640166 -0.00587881
v -0.00960581 0.00669778 -0.00592317
v -0.00923126 0.00684367 -0.00632666
v -0.00908732 0.00669290 -0.00669196
v -0.00885129 0.00697980 -0.00672276
v -0.00937442 0.00699390 -0.00596259
v -0.00931097 0.00716528 -0.00586649
v -0.00913917 0.00727266 -0.00599093
v -0.01089507 0.00462712 -0.00566013
v -0.01098019 0.00452733 -0.00556957
v -0.01064975 0.00517055 -0.00568600
v -0.01038432 0.00567167 -0.00567122
v -0.01016454 0.00599979 -0.00574144
v -0.00585953 0.00919743 -0.00707759
v -0.00561576 0.00925817 -0.00716938
v -0.00611103 0.00907052 -0.00707759
v -0.00637492 0.00908028 -0.00682564
v -0.00576434 0.00929342 -0.00698149
v -0.00561576 0.00932162 -0.00704063
v -0.00537045 0.00950114 -0.00683981
v -0.00517775 0.00952663 -0.00692790
v -0.00471266 0.00954344 -0.00722236
v -0.00454009 0.00956947 -0.00727595
v -0.00422358 0.00955103 -0.00749525
v -0.00407422 0.00950656 -0.00766527
v -0.00749316 0.00846744 -0.00664330
v -0.00741268 0.00858512 -0.00656568
v -0.00689341 0.00893765 -0.00656753
v -0.00671852 0.00899622 -0.00664761
v -0.00688335 0.00880748 -0.00681332
v -0.00728731 0.00876681 -0.00644371
v -0.00729737 0.00903093 -0.00594042
v -0.00654595 0.00904340 -0.00673324
v -0.00801784 0.00820928 -0.00638826
v -0.00784604 0.00828630 -0.00649360
v -0.00767115 0.00837687 -0.00656876
v -0.00756900 0.00852818 -0.00647143
v -0.00833899 0.00801404 -0.00621208
v -0.00877777 0.00715172 -0.00662297
v -0.00857502 0.00798909 -0.00592563
v -0.00810064 0.00930535 -0.00399934
v -0.00823065 0.00922780 -0.00399934
v -0.00842102 0.00909872 -0.00399934
v -0.00820821 0.00924136 -0.00399934
v -0.00845430 0.00897453 -0.00428209
v -0.00836917 0.00906076 -0.00421186
v -0.00866711 0.00859218 -0.00477306
v -0.00883427 0.00850757 -0.00463507
v -0.00846978 0.00886768 -0.00452665
v -0.00839626 0.00882321 -0.00477306
v -0.00834751 0.00878904 -0.00494739
v -0.00829875 0.00875054 -0.00511926
v -0.00955706 0.00792727 -0.00425683
v -0.00958878 0.00770924 -0.00459133
v -0.00969790 0.00761759 -0.00450878
v -0.00980392 0.00760728 -0.00427593
v -0.00934502 0.00798421 -0.00462336
v -0.00861449 0.00854336 -0.00496156
v -0.00872206 0.00839476 -0.00505273
v -0.00882962 0.00824453 -0.00514390
v -0.00904940 0.00820169 -0.00481864
v -0.00916006 0.00811925 -0.00474903
v -0.00983720 0.00743265 -0.00451494
v -0.01012198 0.00695593 -0.00462829
v -0.01015758 0.00700691 -0.00445642
v -0.01038896 0.00671080 -0.00439174
v -0.01043771 0.00657575 -0.00449215
v -0.01062654 0.00667934 -0.00382377
v -0.01041140 0.00648735 -0.00469421
v -0.01058320 0.00631651 -0.00452049
v -0.01066446 0.00622703 -0.00443794
v -0.01088346 0.00590000 -0.00433383
v -0.01093144 0.00572753 -0.00446073
v -0.00740803 0.00983956 -0.00284861
v -0.00737863 0.00983305 -0.00296688
v -0.00716194 0.00986993 -0.00322500
v -0.00690425 0.00990952 -0.00348249
v -0.00690425 0.00986939 -0.00374122
v -0.00707217 0.00981461 -0.00374122
v -0.00742041 0.00958195 -0.00423589
v -0.00718439 0.00960961 -0.00453404
v -0.00698782 0.00978587 -0.00404492
v -0.00681603 0.00981570 -0.00419400
v -0.00690270 0.00977014 -0.00427100
v -0.00690425 0.00971807 -0.00451433
v -0.00772145 0.00950005 -0.00399934
v -0.00793581 0.00939050 -0.00399934
v -0.00733452 0.00956459 -0.00446012
v -0.00755429 0.00954615 -0.00413671
v -0.01145922 0.00452733 -0.00452418
v -0.01089816 0.00566733 -0.00463260
v -0.01093454 0.00547697 -0.00477306
v -0.01115509 0.00514723 -0.00463014
v -0.01102585 0.00528878 -0.00477306
v -0.00407422 0.01005161 -0.00577224
v -0.00413613 0.01006355 -0.00565643
v -0.00624569 0.01006788 -0.00305744
v -0.00634629 0.00998653 -0.00284861
v -0.01006703 0.00632519 -0.00555910
v -0.00988827 0.00647542 -0.00570695
v -0.01035104 0.00582298 -0.00557019
v -0.01041682 0.00624601 -0.00496341
v -0.01036807 0.00641793 -0.00486669
v -0.00974743 0.00658660 -0.00581536
v -0.00956015 0.00684909 -0.00582460
v -0.00941544 0.00708555 -0.00579011
v -0.00936591 0.00723632 -0.00569462
v -0.00921733 0.00733991 -0.00579134
v -0.00906643 0.00744404 -0.00588805
v -0.00882034 0.00771684 -0.00590715
v -0.01086953 0.00479362 -0.00556341
v -0.01098174 0.00453059 -0.00556341
v -0.01135475 0.00452733 -0.00477244
v -0.01077589 0.00503062 -0.00554616
v -0.01090203 0.00516024 -0.00515992
v -0.01090281 0.00541894 -0.00490304
v -0.01060332 0.00534247 -0.00559360
v -0.01064588 0.00542111 -0.00542173
v -0.00612342 0.00920773 -0.00682564
v -0.00593614 0.00925546 -0.00690511
v -0.00638653 0.00921641 -0.00657369
v -0.00620390 0.00926142 -0.00665685
v -0.00603287 0.00929776 -0.00673324
v -0.00585953 0.00932488 -0.00682564
v -0.00561576 0.00941436 -0.00683550
v -0.00546486 0.00953585 -0.00668827
v -0.00529306 0.00956622 -0.00675603
v -0.00500518 0.00955537 -0.00698888
v -0.00484190 0.00957978 -0.00704679
v -0.00432573 0.00969367 -0.00709361
v -0.00431644 0.00959008 -0.00735788
v -0.00407422 0.00957218 -0.00753406
v -0.00460896 0.00961503 -0.00711825
v -0.00743744 0.00872017 -0.00634206
v -0.00679977 0.00904232 -0.00647512
v -0.00663804 0.00908516 -0.00656753
v -0.00753495 0.00875976 -0.00617327
v -0.00736315 0.00881345 -0.00627060
v -0.00760150 0.00880586 -0.00600202
v -0.00747768 0.00898320 -0.00580428
v -0.00734844 0.00906455 -0.00580428
v -0.00714492 0.00919309 -0.00578949
v -0.00697157 0.00925437 -0.00586465
v -0.00689341 0.00920502 -0.00605253
v -0.00714569 0.00906781 -0.00603898
v -0.00689341 0.00907757 -0.00630325
v -0.00791569 0.00836439 -0.00629278
v -0.00826780 0.00819844 -0.00606116
v -0.00808284 0.00827002 -0.00621516
v -0.00781354 0.00851787 -0.00619853
v -0.00774079 0.00845822 -0.00637102
v -0.00766418 0.00857048 -0.00629894
v -0.00887838 0.00778409 -0.00573528
v -0.00863306 0.00805255 -0.00575315
v -0.00854948 0.00822447 -0.00563117
v -0.00847674 0.00815071 -0.00583877
v -0.00806659 0.00928691 -0.00413240
v -0.00820821 0.00915241 -0.00425498
v -0.00801939 0.00925871 -0.00430488
v -0.00832197 0.00902768 -0.00438435
v -0.00820821 0.00897073 -0.00473794
v -0.00815636 0.00909167 -0.00451433
v -0.00820821 0.00905642 -0.00451494
v -0.00820821 0.00895175 -0.00478599
v -0.00820821 0.00885467 -0.00502871
v -0.00824458 0.00870227 -0.00528867
v -0.00838929 0.00857319 -0.00528867
v -0.00860752 0.00828033 -0.00545869
v -0.00851853 0.00845659 -0.00528867
v -0.00856651 0.00849781 -0.00513343
v -0.00811457 0.00880532 -0.00528867
v -0.00806891 0.00877332 -0.00542419
v -0.00965843 0.00753678 -0.00472747
v -0.00955396 0.00761759 -0.00479708
v -0.00912447 0.00802977 -0.00495109
v -0.00930400 0.00793432 -0.00477306
v -0.00865860 0.00832751 -0.00528867
v -0.00878783 0.00819789 -0.00528867
v -0.00890082 0.00806882 -0.00528867
v -0.00989059 0.00725151 -0.00468127
v -0.01008483 0.00690224 -0.00477306
v -0.01030848 0.00657575 -0.00477675
v -0.01035336 0.00665927 -0.00456423
v -0.01015061 0.00648139 -0.00520181
v -0.01046325 0.00632736 -0.00477675
v -0.01063118 0.00616737 -0.00460981
v -0.00729427 0.00987535 -0.00284861
v -0.00716194 0.00990193 -0.00296688
v -0.00690425 0.00994206 -0.00322500
v -0.00664655 0.00993826 -0.00374122
v -0.00664655 0.00990247 -0.00399934
v -0.00690270 0.00982817 -0.00397469
v -0.00690425 0.00965462 -0.00477244
v -0.00710622 0.00957598 -0.00477244
v -0.00728421 0.00954019 -0.00463199
v -0.00666512 0.00984824 -0.00427100
v -0.00676263 0.00979726 -0.00436587
v -0.00671078 0.00978099 -0.00451433
v -0.00662798 0.00975224 -0.00475704
v -0.00664655 0.00968120 -0.00503055
v -0.00780116 0.00928257 -0.00463199
v -0.00742041 0.00950114 -0.00453404
v -0.00750631 0.00952175 -0.00430858
v -0.01140040 0.00460217 -0.00459626
v -0.01136558 0.00452733 -0.00474718
v -0.01067839 0.00599545 -0.00471269
v -0.01086411 0.00560605 -0.00477306
v -0.01112491 0.00504906 -0.00478723
v -0.00407422 0.01001745 -0.00605438
v -0.00413613 0.01006355 -0.00569832
v -0.00442556 0.01006680 -0.00539647
v -0.00604371 0.01006788 -0.00368393
v -0.00629599 0.01006571 -0.00322500
v -0.00646779 0.01006463 -0.00284861
v -0.00644767 0.01006463 -0.00284861
v -0.00469022 0.01006788 -0.00514144
v -0.01010573 0.00641413 -0.00537368
v -0.00982946 0.00664734 -0.00559606
v -0.00959730 0.00694346 -0.00564657
v -0.00992155 0.00656816 -0.00552522
v -0.00954081 0.00709423 -0.00555479
v -0.00962825 0.00724392 -0.00518887
v -0.00961200 0.00747875 -0.00489934
v -0.00915852 0.00760240 -0.00552399
v -0.00905017 0.00768321 -0.00559421
v -0.00912292 0.00751129 -0.00571619
v -0.00647166 0.00926522 -0.00640058
v -0.00629908 0.00930156 -0.00648498
v -0.00612342 0.00933193 -0.00657369
v -0.00563588 0.00951198 -0.00659217
v -0.00600347 0.00954398 -0.00619052
v -0.00556314 0.00957164 -0.00651640
v -0.00537045 0.00960473 -0.00659217
v -0.00509959 0.00968770 -0.00657738
v -0.00509495 0.00959117 -0.00683981
v -0.00484190 0.00966167 -0.00683550
v -0.00434662 0.00977556 -0.00683981
v -0.00427465 0.00981895 -0.00675726
v -0.00413303 0.00978912 -0.00692790
v -0.00407422 0.00976255 -0.00703878
v -0.00407422 0.00974953 -0.00707574
v -0.00407422 0.00965137 -0.00734371
v -0.00458342 0.00972458 -0.00683550
v -0.00664113 0.00921478 -0.00631681
v -0.00768353 0.00869956 -0.00607717
v -0.00777407 0.00874295 -0.00588682
v -0.00768353 0.00884924 -0.00580304
v -0.00783521 0.00878959 -0.00571495
v -0.00753340 0.00901791 -0.00565458
v -0.00743667 0.00912258 -0.00555910
v -0.00723159 0.00925275 -0.00554616
v -0.00704741 0.00929234 -0.00569216
v -0.00672316 0.00925980 -0.00613200
v -0.00831655 0.00824779 -0.00592440
v -0.00813779 0.00831884 -0.00606177
v -0.00786229 0.00856072 -0.00606177
v -0.00820821 0.00840019 -0.00583385
v -0.00880486 0.00795601 -0.00561885
v -0.00870658 0.00812088 -0.00553939
v -0.00844501 0.00837687 -0.00553692
v -0.00837769 0.00830202 -0.00575191
v -0.00793426 0.00923160 -0.00453404
v -0.00795593 0.00912475 -0.00478723
v -0.00805421 0.00902062 -0.00488333
v -0.00810219 0.00905371 -0.00471146
v -0.00800855 0.00899080 -0.00503055
v -0.00834054 0.00852764 -0.00544267
v -0.00788009 0.00907757 -0.00503055
v -0.00782824 0.00904123 -0.00518949
v -0.00792265 0.00893710 -0.00528066
v -0.00820821 0.00860519 -0.00550427
v -0.00885593 0.00801621 -0.00544698
v -0.00903005 0.00791533 -0.00528867
v -0.00990529 0.00701451 -0.00496710
v -0.00968552 0.00709423 -0.00528066
v -0.00716194 0.00991549 -0.00284861
v -0.00702187 0.00995074 -0.00284861
v -0.00690425 0.00996701 -0.00296688
v -0.00662333 0.01002938 -0.00294594
v -0.00664655 0.00999684 -0.00322500
v -0.00664655 0.00996918 -0.00348249
v -0.00638808 0.00996267 -0.00399934
v -0.00638808 0.00992579 -0.00425745
v -0.00638808 0.00987969 -0.00451433
v -0.00690425 0.00958629 -0.00502070
v -0.00681835 0.00956351 -0.00522029
v -0.00705128 0.00955212 -0.00492706
v -0.00742661 0.00934115 -0.00502871
v -0.00757596 0.00929885 -0.00494185
v -0.00762858 0.00932596 -0.00477244
v -0.00658154 0.00982220 -0.00451433
v -0.00638498 0.00982980 -0.00475704
v -0.00646856 0.00978587 -0.00483281
v -0.00638498 0.00976526 -0.00503363
v -0.00638808 0.00969964 -0.00528867
v -0.00665971 0.00960201 -0.00529914
v -0.00775782 0.00925817 -0.00477244
v -0.00407422 0.01001636 -0.00606177
v -0.00422899 0.01006355 -0.00569832
v -0.00450604 0.01006680 -0.00546177
v -0.00459813 0.01006788 -0.00530407
v -0.00626349 0.01006029 -0.00335991
v -0.00527913 0.01006788 -0.00470098
v -0.00552677 0.01006680 -0.00443486
v -0.00576202 0.01006300 -0.00415149
v -0.00613115 0.01001311 -0.00399934
v -0.00638808 0.00999250 -0.00374122
v -0.00652041 0.01006029 -0.00284861
v -0.00655136 0.00930047 -0.00622871
v -0.00638653 0.00933518 -0.00631681
v -0.00679977 0.00929668 -0.00596075
v -0.00619384 0.00951741 -0.00606177
v -0.00625729 0.00954290 -0.00593118
v -0.00606615 0.00956893 -0.00606177
v -0.00587346 0.00963564 -0.00606177
v -0.00587346 0.00956730 -0.00624904
v -0.00563588 0.00961178 -0.00634021
v -0.00535729 0.00970235 -0.00631989
v -0.00510578 0.00976797 -0.00631989
v -0.00491154 0.00978804 -0.00640551
v -0.00483261 0.00975550 -0.00656321
v -0.00444645 0.00979943 -0.00670059
v -0.00458342 0.00982546 -0.00652256
v -0.00434662 0.00985203 -0.00659956
v -0.00407422 0.00991061 -0.00657122
v -0.00407422 0.00983305 -0.00683303
v -0.00407422 0.00982329 -0.00686198
v -0.00767966 0.00909493 -0.00528066
v -0.00742661 0.00923919 -0.00530838
v -0.00728344 0.00928149 -0.00540694
v -0.00689341 0.00932325 -0.00578949
v -0.00710236 0.00931837 -0.00554616
v -0.00675489 0.00953476 -0.00539216
v -0.00766883 0.00921207 -0.00502871
v -0.00690425 0.00997786 -0.00284861
v -0.00647630 0.01005216 -0.00301801
v -0.00613115 0.00997894 -0.00425745
v -0.00613115 0.00994260 -0.00451433
v -0.00613115 0.00989922 -0.00477244
v -0.00690425 0.00949680 -0.00529914
v -0.00699014 0.00952337 -0.00509955
v -0.00718361 0.00936230 -0.00530838
v -0.00734458 0.00931078 -0.00523446
v -0.00751637 0.00926847 -0.00511372
v -0.00629676 0.00981353 -0.00494986
v -0.00622711 0.00979183 -0.00512173
v -0.00640820 0.00961015 -0.00556464
v -0.00613812 0.00977231 -0.00529914
v -0.00613115 0.00970831 -0.00554616
v -0.00615514 0.00961611 -0.00582953
v -0.00658309 0.00957056 -0.00549072
v -0.00407422 0.00996647 -0.00631989
v -0.00432573 0.00998219 -0.00606177
v -0.00431954 0.01003372 -0.00579257
v -0.00440079 0.01005216 -0.00563425
v -0.00458884 0.01003968 -0.00554801
v -0.00467784 0.01005433 -0.00538415
v -0.00477225 0.01006788 -0.00521228
v -0.00494405 0.01005541 -0.00513220
v -0.00519865 0.01005541 -0.00487285
v -0.00536271 0.01004239 -0.00478107
v -0.00545170 0.01005378 -0.00460612
v -0.00561576 0.01000063 -0.00477244
v -0.00587346 0.00995508 -0.00477244
v -0.00587346 0.00999196 -0.00451433
v -0.00569934 0.01005107 -0.00432336
v -0.00585798 0.01003209 -0.00424513
v -0.00640820 0.00951741 -0.00582953
v -0.00633468 0.00957381 -0.00575992
v -0.00650648 0.00953856 -0.00566259
v -0.00587346 0.00971591 -0.00580428
v -0.00561576 0.00971102 -0.00606177
v -0.00529151 0.00981787 -0.00599031
v -0.00519478 0.00979292 -0.00615972
v -0.00502298 0.00981515 -0.00623364
v -0.00483261 0.00983359 -0.00631989
v -0.00458342 0.00988512 -0.00631989
v -0.00432573 0.00993013 -0.00631989
v -0.00665971 0.00951036 -0.00556464
v -0.00613812 0.00984010 -0.00503363
v -0.00587346 0.00990952 -0.00503055
v -0.00605609 0.00981732 -0.00521906
v -0.00597948 0.00979454 -0.00539216
v -0.00588507 0.00977719 -0.00556341
v -0.00458342 0.00994640 -0.00606177
v -0.00458342 0.00999521 -0.00580428
v -0.00484190 0.00995670 -0.00580428
v -0.00484190 0.01000172 -0.00554616
v -0.00509959 0.01000606 -0.00528867
v -0.00485196 0.01004294 -0.00529421
v -0.00510811 0.01004402 -0.00503979
v -0.00535729 0.00996484 -0.00528867
v -0.00535729 0.01000497 -0.00503055
v -0.00561576 0.00996104 -0.00503055
v -0.00572875 0.00979726 -0.00565951
v -0.00555695 0.00982058 -0.00574144
v -0.00563201 0.00977773 -0.00581844
v -0.00536967 0.00984661 -0.00581844
v -0.00510578 0.00984227 -0.00606855
v -0.00484190 0.00990301 -0.00606177
v -0.00588507 0.00984552 -0.00529914
v -0.00561576 0.00991549 -0.00528867
v -0.00580691 0.00982003 -0.00548764
v -0.00509959 0.00991115 -0.00580428
v -0.00509959 0.00996213 -0.00554616
v -0.00535729 0.00991657 -0.00554616
v -0.00563201 0.00984878 -0.00556341
f 1 2 5
f 1 5 17
f 1 17 8
f 1 8 3
f 1 3 11
f 1 11 4
f 1 4 2
f 2 4 6
f 2 6 7
f 2 7 5
f 3 8 23
f 3 23 37
f 3 37 63
f 3 63 91
f 3 91 152
f 3 152 209
f 3 209 208
f 3 208 207
f 3 207 297
f 3 297 388
f 3 388 479
f 3 479 578
f 3 578 681
f 3 681 788
f 3 788 898
f 3 898 897
f 3 897 896
f 3 896 983
f 3 983 982
f 3 982 981
f 3 981 1008
f 3 1008 954
f 3 954 865
f 3 865 751
f 3 751 650
f 3 650 540
f 3 540 442
f 3 442 351
f 3 351 261
f 3 261 170
f 3 170 111
f 3 111 110
f 3 110 109
f 3 109 108
f 3 108 104
f 3 104 72
f 3 72 44
f 3 44 24
f 3 24 9
f 3 9 10
f 3 10 11
f 4 12 6
f 4 11 13
f 4 13 14
f 4 14 12
f 5 15 16
f 5 16 17
f 5 7 18
f 5 18 19
f 5 19 15
f 6 12 20
f 6 20 21
f 6 21 7
f 7 21 22
f 7 22 18
f 8 17 16
f 8 16 23
f 9 24 10
f 10 24 11
f 11 25 26
f 11 26 13
f 11 24 25
f 12 27 28
f 12 28 20
f 12 14 27
f 13 29 30
f 13 30 31
f 13 31 32
f 13 32 14
f 13 26 46
f 13 46 74
f 13 74 106
f 13 106 169
f 13 169 260
f 13 260 350
f 13 350 438
f 13 438 437
f 13 437 534
f 13 534 643
f 13 643 746
f 13 746 861
f 13 861 769
f 13 769 666
f 13 666 555
f 13 555 554
f 13 554 553
f 13 553 459
f 13 459 552
f 13 552 551
f 13 551 457
f 13 457 456
f 13 456 372
f 13 372 371
f 13 371 278
f 13 278 189
f 13 189 188
f 13 188 187
f 13 187 186
f 13 186 134
f 13 134 133
f 13 133 84
f 13 84 54
f 13 54 33
f 13 33 29
f 14 32 31
f 14 31 27
f 15 34 16
f 15 19 35
f 15 35 36
f 15 36 34
f 16 37 23
f 16 34 37
f 18 22 19
f 19 22 38
f 19 38 35
f 20 28 39
f 20 39 40
f 20 40 22
f 20 22 21
f 22 40 41
f 22 41 42
f 22 42 43
f 22 43 38
f 24 44 25
f 25 45 26
f 25 44 45
f 26 45 47
f 26 47 46
f 27 31 30
f 27 30 48
f 27 48 49
f 27 49 39
f 27 39 28
f 29 33 50
f 29 50 30
f 30 51 52
f 30 52 53
f 30 53 48
f 30 50 51
f 33 54 55
f 33 55 50
f 34 36 56
f 34 56 57
f 34 57 58
f 34 58 59
f 34 59 37
f 35 38 36
f 36 38 60
f 36 60 61
f 36 61 62
f 36 62 56
f 37 59 63
f 38 43 64
f 38 64 60
f 39 65 40
f 39 49 53
f 39 53 65
f 40 65 41
f 41 66 42
f 41 65 66
f 42 66 67
f 42 67 68
f 42 68 43
f 43 69 70
f 43 70 64
f 43 68 67
f 43 67 71
f 43 71 69
f 44 72 73
f 44 73 45
f 45 73 47
f 46 47 75
f 46 75 74
f 47 73 72
f 47 72 75
f 48 53 49
f 50 55 76
f 50 76 77
f 50 77 78
f 50 78 79
f 50 79 80
f 50 80 51
f 51 80 79
f 51 79 78
f 51 78 81
f 51 81 52
f 52 81 82
f 52 82 53
f 53 83 65
f 53 82 83
f 54 84 55
f 55 84 85
f 55 85 76
f 56 86 57
f 56 62 86
f 57 86 58
f 58 86 87
f 58 87 88
f 58 88 63
f 58 63 59
f 60 64 70
f 60 70 61
f 61 89 90
f 61 90 62
f 61 70 89
f 62 90 86
f 63 88 91
f 65 83 92
f 65 92 66
f 66 92 93
f 66 93 94
f 66 94 95
f 66 95 96
f 66 96 67
f 67 96 95
f 67 95 97
f 67 97 98
f 67 98 99
f 67 99 71
f 69 71 99
f 69 99 100
f 69 100 101
f 69 101 102
f 69 102 103
f 69 103 90
f 69 90 89
f 69 89 70
f 72 104 75
f 74 105 106
f 74 75 107
f 74 107 108
f 74 108 109
f 74 109 110
f 74 110 111
f 74 111 112
f 74 112 113
f 74 113 114
f 74 114 115
f 74 115 116
f 74 116 117
f 74 117 118
f 74 118 105
f 75 104 108
f 75 108 119
f 75 119 107
f 76 85 120
f 76 120 121
f 76 121 122
f 76 122 77
f 77 122 78
f 78 122 123
f 78 123 124
f 78 124 81
f 81 124 125
f 81 125 126
f 81 126 82
f 82 127 128
f 82 128 83
f 82 126 129
f 82 129 127
f 83 130 92
f 83 128 127
f 83 127 131
f 83 131 132
f 83 132 130
f 84 133 85
f 85 134 135
f 85 135 136
f 85 136 137
f 85 137 138
f 85 138 121
f 85 121 120
f 85 133 134
f 86 90 139
f 86 139 87
f 87 140 141
f 87 141 88
f 87 139 142
f 87 142 143
f 87 143 144
f 87 144 145
f 87 145 140
f 88 146 147
f 88 147 91
f 88 141 148
f 88 148 146
f 90 103 149
f 90 149 150
f 90 150 151
f 90 151 139
f 91 147 152
f 92 130 93
f 93 130 132
f 93 132 153
f 93 153 154
f 93 154 94
f 94 154 155
f 94 155 95
f 95 156 97
f 95 155 157
f 95 157 156
f 97 156 98
f 98 156 158
f 98 158 159
f 98 159 160
f 98 160 99
f 99 160 100
f 100 160 159
f 100 159 161
f 100 161 101
f 101 162 102
f 101 161 163
f 101 163 164
f 101 164 162
f 102 165 166
f 102 166 103
f 102 162 165
f 103 166 150
f 103 150 149
f 105 167 106
f 105 118 117
f 105 117 116
f 105 116 115
f 105 115 114
f 105 114 113
f 105 113 112
f 105 112 171
f 105 171 262
f 105 262 352
f 105 352 441
f 105 441 444
f 105 444 443
f 105 443 541
f 105 541 651
f 105 651 754
f 105 754 871
f 105 871 870
f 105 870 964
f 105 964 991
f 105 991 933
f 105 933 932
f 105 932 843
f 105 843 730
f 105 730 628
f 105 628 525
f 105 525 429
f 105 429 346
f 105 346 258
f 105 258 167
f 106 168 169
f 106 167 168
f 107 119 108
f 111 170 171
f 111 171 112
f 121 172 122
f 121 138 173
f 121 173 172
f 122 172 123
f 123 172 124
f 124 172 174
f 124 174 175
f 124 175 176
f 124 176 177
f 124 177 125
f 125 177 129
f 125 129 126
f 127 129 178
f 127 178 131
f 129 177 178
f 131 179 180
f 131 180 181
f 131 181 132
f 131 178 182
f 131 182 183
f 131 183 184
f 131 184 185
f 131 185 179
f 132 181 153
f 134 186 135
f 135 186 136
f 136 187 188
f 136 188 189
f 136 189 190
f 136 190 191
f 136 191 192
f 136 192 193
f 136 193 194
f 136 194 195
f 136 195 137
f 136 186 187
f 137 195 173
f 137 173 138
f 139 196 142
f 139 151 197
f 139 197 196
f 140 145 198
f 140 198 148
f 140 148 141
f 142 196 143
f 143 199 144
f 143 196 197
f 143 197 200
f 143 200 201
f 143 201 202
f 143 202 199
f 144 199 203
f 144 203 145
f 145 203 198
f 146 148 204
f 146 204 147
f 147 205 206
f 147 206 207
f 147 207 208
f 147 208 209
f 147 209 152
f 147 204 210
f 147 210 205
f 148 198 204
f 150 211 200
f 150 200 197
f 150 197 151
f 150 166 165
f 150 165 211
f 153 181 180
f 153 180 212
f 153 212 154
f 154 212 155
f 155 212 213
f 155 213 214
f 155 214 215
f 155 215 216
f 155 216 217
f 155 217 157
f 156 218 158
f 156 157 218
f 157 217 219
f 157 219 218
f 158 218 220
f 158 220 159
f 159 220 161
f 161 220 221
f 161 221 222
f 161 222 163
f 162 164 223
f 162 223 165
f 163 222 164
f 164 222 224
f 164 224 225
f 164 225 226
f 164 226 227
f 164 227 223
f 165 228 229
f 165 229 211
f 165 223 228
f 167 230 231
f 167 231 232
f 167 232 233
f 167 233 234
f 167 234 235
f 167 235 236
f 167 236 237
f 167 237 238
f 167 238 239
f 167 239 240
f 167 240 241
f 167 241 242
f 167 242 243
f 167 243 244
f 167 244 245
f 167 245 246
f 167 246 247
f 167 247 248
f 167 248 249
f 167 249 250
f 167 250 251
f 167 251 252
f 167 252 253
f 167 253 254
f 167 254 255
f 167 255 256
f 167 256 257
f 167 257 168
f 167 258 230
f 168 259 169
f 168 257 259
f 169 259 260
f 170 261 262
f 170 262 171
f 172 173 174
f 173 195 174
f 174 195 194
f 174 194 263
f 174 263 264
f 174 264 265
f 174 265 266
f 174 266 267
f 174 267 268
f 174 268 175
f 175 268 176
f 176 268 182
f 176 182 269
f 176 269 177
f 177 269 178
f 178 269 182
f 179 270 271
f 179 271 213
f 179 213 212
f 179 212 180
f 179 185 272
f 179 272 273
f 179 273 274
f 179 274 270
f 182 268 183
f 183 268 275
f 183 275 276
f 183 276 277
f 183 277 273
f 183 273 272
f 183 272 184
f 184 272 185
f 189 278 190
f 190 278 279
f 190 279 191
f 191 279 280
f 191 280 281
f 191 281 282
f 191 282 283
f 191 283 192
f 192 283 193
f 193 283 284
f 193 284 194
f 194 284 263
f 198 203 204
f 199 285 203
f 199 202 201
f 199 201 286
f 199 286 285
f 200 211 201
f 201 287 288
f 201 288 289
f 201 289 285
f 201 285 286
f 201 211 290
f 201 290 291
f 201 291 292
f 201 292 287
f 203 285 204
f 204 285 293
f 204 293 294
f 204 294 295
f 204 295 210
f 205 296 206
f 205 210 294
f 205 294 296
f 206 296 207
f 207 296 297
f 210 295 294
f 211 229 228
f 211 228 290
f 213 271 214
f 214 271 215
f 215 298 299
f 215 299 300
f 215 300 219
f 215 219 216
f 215 271 301
f 215 301 302
f 215 302 303
f 215 303 304
f 215 304 298
f 216 219 217
f 218 221 220
f 218 219 300
f 218 300 221
f 221 300 305
f 221 305 306
f 221 306 222
f 222 306 224
f 223 227 228
f 224 306 307
f 224 307 308
f 224 308 309
f 224 309 225
f 225 309 310
f 225 310 311
f 225 311 226
f 226 311 312
f 226 312 313
f 226 313 227
f 227 313 314
f 227 314 315
f 227 315 316
f 227 316 317
f 227 317 290
f 227 290 228
f 230 318 319
f 230 319 231
f 230 258 318
f 231 320 232
f 231 319 320
f 232 320 233
f 233 321 322
f 233 322 234
f 233 320 321
f 234 323 235
f 234 322 323
f 235 323 236
f 236 324 237
f 236 323 325
f 236 325 326
f 236 326 324
f 237 324 238
f 238 324 239
f 239 327 240
f 239 324 327
f 240 327 241
f 241 328 329
f 241 329 330
f 241 330 242
f 241 327 331
f 241 331 328
f 242 330 332
f 242 332 243
f 243 332 244
f 244 332 333
f 244 333 245
f 245 333 246
f 246 333 332
f 246 332 334
f 246 334 247
f 247 334 335
f 247 335 248
f 248 335 249
f 249 335 336
f 249 336 337
f 249 337 250
f 250 337 338
f 250 338 251
f 251 339 340
f 251 340 341
f 251 341 252
f 251 338 339
f 252 341 342
f 252 342 253
f 253 342 254
f 254 342 255
f 255 343 256
f 255 342 341
f 255 341 344
f 255 344 343
f 256 343 257
f 257 345 259
f 257 343 345
f 258 346 347
f 258 347 318
f 259 345 348
f 259 348 260
f 260 348 349
f 260 349 350
f 261 351 352
f 261 352 262
f 263 284 264
f 264 284 265
f 265 284 353
f 265 353 354
f 265 354 355
f 265 355 356
f 265 356 357
f 265 357 358
f 265 358 266
f 266 358 359
f 266 359 360
f 266 360 361
f 266 361 362
f 266 362 267
f 267 275 268
f 267 362 275
f 270 274 271
f 271 274 363
f 271 363 302
f 271 302 301
f 273 277 364
f 273 364 365
f 273 365 366
f 273 366 274
f 274 366 367
f 274 367 368
f 274 368 369
f 274 369 363
f 275 362 276
f 276 362 361
f 276 361 370
f 276 370 277
f 277 370 365
f 277 365 364
f 278 371 279
f 279 371 372
f 279 372 373
f 279 373 280
f 280 373 281
f 281 373 374
f 281 374 375
f 281 375 376
f 281 376 282
f 282 376 355
f 282 355 354
f 282 354 353
f 282 353 283
f 283 353 284
f 285 294 293
f 285 289 288
f 285 288 377
f 285 377 378
f 285 378 294
f 287 292 379
f 287 379 288
f 288 379 380
f 288 380 377
f 290 317 291
f 291 379 292
f 291 317 316
f 291 316 379
f 294 378 381
f 294 381 382
f 294 382 383
f 294 383 384
f 294 384 385
f 294 385 386
f 294 386 296
f 296 386 387
f 296 387 388
f 296 388 297
f 298 304 389
f 298 389 390
f 298 390 391
f 298 391 392
f 298 392 308
f 298 308 306
f 298 306 299
f 299 306 300
f 300 306 305
f 302 363 393
f 302 393 303
f 303 394 304
f 303 393 369
f 303 369 395
f 303 395 396
f 303 396 397
f 303 397 394
f 304 394 398
f 304 398 389
f 306 308 307
f 308 392 310
f 308 310 309
f 310 392 391
f 310 391 399
f 310 399 312
f 310 312 311
f 312 400 313
f 312 399 401
f 312 401 400
f 313 402 403
f 313 403 380
f 313 380 314
f 313 400 402
f 314 380 315
f 315 380 316
f 316 380 379
f 318 347 319
f 319 347 404
f 319 404 405
f 319 405 320
f 320 405 406
f 320 406 321
f 321 406 322
f 322 406 325
f 322 325 323
f 324 407 327
f 324 326 408
f 324 408 407
f 325 409 326
f 325 406 409
f 326 409 410
f 326 410 408
f 327 407 331
f 328 331 329
f 329 331 411
f 329 411 412
f 329 412 413
f 329 413 414
f 329 414 415
f 329 415 332
f 329 332 330
f 331 407 408
f 331 408 416
f 331 416 417
f 331 417 418
f 331 418 411
f 332 415 419
f 332 419 336
f 332 336 334
f 334 336 335
f 336 419 420
f 336 420 337
f 337 420 338
f 338 421 422
f 338 422 423
f 338 423 340
f 338 340 339
f 338 420 421
f 340 423 341
f 341 423 424
f 341 424 425
f 341 425 426
f 341 426 344
f 343 344 427
f 343 427 345
f 344 426 427
f 345 427 348
f 346 428 347
f 346 429 430
f 346 430 428
f 347 428 431
f 347 431 432
f 347 432 433
f 347 433 434
f 347 434 435
f 347 435 405
f 347 405 404
f 348 427 349
f 349 436 437
f 349 437 438
f 349 438 350
f 349 427 439
f 349 439 440
f 349 440 436
f 351 441 352
f 351 442 443
f 351 443 444
f 351 444 441
f 355 376 445
f 355 445 356
f 356 446 447
f 356 447 359
f 356 359 357
f 356 445 376
f 356 376 446
f 357 359 358
f 359 447 446
f 359 446 448
f 359 448 449
f 359 449 450
f 359 450 451
f 359 451 452
f 359 452 453
f 359 453 360
f 360 453 452
f 360 452 370
f 360 370 361
f 363 369 393
f 365 367 366
f 365 370 452
f 365 452 451
f 365 451 367
f 367 451 454
f 367 454 368
f 368 454 455
f 368 455 396
f 368 396 395
f 368 395 369
f 372 456 373
f 373 456 457
f 373 457 458
f 373 458 459
f 373 459 460
f 373 460 461
f 373 461 462
f 373 462 374
f 374 462 375
f 375 462 463
f 375 463 464
f 375 464 376
f 376 465 446
f 376 464 466
f 376 466 465
f 377 467 468
f 377 468 469
f 377 469 470
f 377 470 378
f 377 380 467
f 378 470 381
f 380 471 468
f 380 468 467
f 380 403 402
f 380 402 471
f 381 472 382
f 381 470 472
f 382 472 473
f 382 473 383
f 383 473 474
f 383 474 475
f 383 475 476
f 383 476 384
f 384 476 385
f 385 476 477
f 385 477 387
f 385 387 386
f 387 477 388
f 388 477 478
f 388 478 479
f 389 398 390
f 390 398 480
f 390 480 391
f 391 481 399
f 391 480 482
f 391 482 483
f 391 483 481
f 394 484 485
f 394 485 486
f 394 486 398
f 394 397 487
f 394 487 488
f 394 488 489
f 394 489 490
f 394 490 484
f 396 455 491
f 396 491 397
f 397 491 487
f 398 486 480
f 399 481 492
f 399 492 493
f 399 493 401
f 400 401 493
f 400 493 494
f 400 494 402
f 402 494 495
f 402 495 496
f 402 496 471
f 405 435 497
f 405 497 498
f 405 498 499
f 405 499 406
f 406 499 500
f 406 500 501
f 406 501 409
f 408 410 416
f 409 502 416
f 409 416 410
f 409 501 503
f 409 503 504
f 409 504 505
f 409 505 506
f 409 506 507
f 409 507 502
f 411 508 412
f 411 418 509
f 411 509 508
f 412 508 413
f 413 510 511
f 413 511 414
f 413 508 512
f 413 512 510
f 414 511 513
f 414 513 415
f 415 513 514
f 415 514 419
f 416 502 506
f 416 506 515
f 416 515 516
f 416 516 517
f 416 517 417
f 417 517 418
f 418 517 518
f 418 518 509
f 419 514 519
f 419 519 421
f 419 421 420
f 421 520 422
f 421 519 520
f 422 520 423
f 423 521 425
f 423 425 424
f 423 520 521
f 425 521 522
f 425 522 523
f 425 523 439
f 425 439 426
f 426 439 427
f 428 430 524
f 428 524 431
f 429 525 526
f 429 526 430
f 430 526 527
f 430 527 528
f 430 528 524
f 431 524 432
f 432 529 433
f 432 524 530
f 432 530 529
f 433 529 531
f 433 531 434
f 434 532 435
f 434 531 532
f 435 532 497
f 436 440 533
f 436 533 437
f 437 533 534
f 439 523 535
f 439 535 536
f 439 536 537
f 439 537 440
f 440 537 538
f 440 538 539
f 440 539 533
f 442 540 541
f 442 541 443
f 446 542 448
f 446 465 543
f 446 543 544
f 446 544 545
f 446 545 542
f 448 546 450
f 448 450 449
f 448 542 546
f 450 547 451
f 450 546 547
f 451 547 548
f 451 548 549
f 451 549 455
f 451 455 454
f 455 550 487
f 455 487 491
f 455 549 550
f 457 551 458
f 458 551 552
f 458 552 459
f 459 553 460
f 460 553 554
f 460 554 555
f 460 555 556
f 460 556 557
f 460 557 558
f 460 558 462
f 460 462 461
f 462 558 463
f 463 558 559
f 463 559 464
f 464 559 466
f 465 560 543
f 465 466 560
f 466 559 561
f 466 561 562
f 466 562 563
f 466 563 543
f 466 543 560
f 468 471 564
f 468 564 469
f 469 564 565
f 469 565 566
f 469 566 567
f 469 567 470
f 470 567 472
f 471 496 568
f 471 568 565
f 471 565 564
f 472 567 566
f 472 566 569
f 472 569 473
f 473 569 566
f 473 566 570
f 473 570 474
f 474 570 571
f 474 571 475
f 475 571 572
f 475 572 573
f 475 573 476
f 476 574 478
f 476 478 477
f 476 573 575
f 476 575 576
f 476 576 574
f 478 574 577
f 478 577 479
f 479 577 578
f 480 486 482
f 481 483 579
f 481 579 580
f 481 580 581
f 481 581 582
f 481 582 492
f 482 486 583
f 482 583 584
f 482 584 585
f 482 585 586
f 482 586 579
f 482 579 483
f 484 490 587
f 484 587 588
f 484 588 485
f 485 584 583
f 485 583 486
f 485 588 584
f 487 550 589
f 487 589 590
f 487 590 489
f 487 489 488
f 489 590 490
f 490 590 591
f 490 591 587
f 492 582 592
f 492 592 493
f 493 592 494
f 494 592 582
f 494 582 593
f 494 593 568
f 494 568 496
f 494 496 495
f 497 532 594
f 497 594 595
f 497 595 596
f 497 596 597
f 497 597 498
f 498 500 499
f 498 597 500
f 500 504 503
f 500 503 501
f 500 597 598
f 500 598 599
f 500 599 504
f 502 507 506
f 504 599 600
f 504 600 505
f 505 600 601
f 505 601 506
f 506 602 603
f 506 603 604
f 506 604 516
f 506 516 515
f 506 601 605
f 506 605 606
f 506 606 607
f 506 607 608
f 506 608 602
f 508 509 609
f 508 609 610
f 508 610 611
f 508 611 512
f 509 612 609
f 509 518 613
f 509 613 614
f 509 614 615
f 509 615 612
f 510 616 617
f 510 617 513
f 510 513 511
f 510 512 611
f 510 611 616
f 513 618 514
f 513 617 618
f 514 619 620
f 514 620 519
f 514 618 621
f 514 621 617
f 514 617 619
f 516 518 517
f 516 604 518
f 518 604 613
f 519 620 619
f 519 619 622
f 519 622 520
f 520 622 623
f 520 623 624
f 520 624 625
f 520 625 521
f 521 625 626
f 521 626 627
f 521 627 522
f 522 627 535
f 522 535 523
f 524 528 530
f 525 628 526
f 526 628 629
f 526 629 630
f 526 630 631
f 526 631 527
f 527 630 632
f 527 632 633
f 527 633 634
f 527 634 528
f 527 631 630
f 528 635 530
f 528 634 636
f 528 636 637
f 528 637 638
f 528 638 635
f 529 639 640
f 529 640 595
f 529 595 594
f 529 594 532
f 529 532 531
f 529 530 639
f 530 635 641
f 530 641 639
f 533 539 642
f 533 642 534
f 534 642 643
f 535 627 644
f 535 644 536
f 536 644 645
f 536 645 646
f 536 646 647
f 536 647 648
f 536 648 642
f 536 642 649
f 536 649 537
f 537 649 538
f 538 649 539
f 539 649 642
f 540 650 651
f 540 651 541
f 542 545 652
f 542 652 653
f 542 653 546
f 543 563 654
f 543 654 545
f 543 545 544
f 545 654 655
f 545 655 656
f 545 656 657
f 545 657 658
f 545 658 653
f 545 653 652
f 546 653 659
f 546 659 660
f 546 660 547
f 547 660 548
f 548 661 549
f 548 660 659
f 548 659 662
f 548 662 663
f 548 663 664
f 548 664 661
f 549 661 550
f 550 661 589
f 555 665 556
f 555 666 665
f 556 667 557
f 556 665 667
f 557 559 558
f 557 667 559
f 559 667 561
f 561 667 562
f 562 668 669
f 562 669 563
f 562 667 668
f 563 669 654
f 565 670 671
f 565 671 566
f 565 568 670
f 566 671 571
f 566 571 570
f 568 672 670
f 568 593 673
f 568 673 672
f 571 671 674
f 571 674 675
f 571 675 676
f 571 676 677
f 571 677 572
f 572 677 678
f 572 678 573
f 573 678 575
f 574 576 577
f 575 678 679
f 575 679 576
f 576 679 680
f 576 680 578
f 576 578 577
f 578 680 681
f 579 586 682
f 579 682 683
f 579 683 580
f 580 684 685
f 580 685 686
f 580 686 582
f 580 582 581
f 580 683 687
f 580 687 688
f 580 688 684
f 582 685 689
f 582 689 673
f 582 673 593
f 582 686 685
f 584 588 690
f 584 690 691
f 584 691 585
f 585 692 693
f 585 693 682
f 585 682 586
f 585 691 692
f 587 690 588
f 587 591 694
f 587 694 690
f 589 661 695
f 589 695 696
f 589 696 590
f 590 696 591
f 591 696 694
f 595 640 697
f 595 697 596
f 596 697 597
f 597 698 699
f 597 699 598
f 597 697 700
f 597 700 698
f 598 600 599
f 598 699 600
f 600 699 601
f 601 701 605
f 601 699 702
f 601 702 701
f 602 608 607
f 602 607 703
f 602 703 704
f 602 704 614
f 602 614 613
f 602 613 603
f 603 613 604
f 605 701 606
f 606 701 705
f 606 705 706
f 606 706 707
f 606 707 607
f 607 707 708
f 607 708 703
f 609 612 709
f 609 709 610
f 610 709 611
f 611 709 612
f 611 612 710
f 611 710 711
f 611 711 617
f 611 617 712
f 611 712 616
f 612 615 713
f 612 713 710
f 614 704 703
f 614 703 714
f 614 714 715
f 614 715 716
f 614 716 717
f 614 717 718
f 614 718 713
f 614 713 615
f 616 712 617
f 617 621 618
f 617 711 719
f 617 719 720
f 617 720 721
f 617 721 722
f 617 722 619
f 619 623 622
f 619 722 723
f 619 723 724
f 619 724 623
f 623 724 723
f 623 723 624
f 624 723 725
f 624 725 726
f 624 726 727
f 624 727 728
f 624 728 626
f 624 626 625
f 626 644 627
f 626 728 729
f 626 729 644
f 628 730 731
f 628 731 629
f 629 731 630
f 630 731 732
f 630 732 633
f 630 633 632
f 633 732 733
f 633 733 734
f 633 734 735
f 633 735 634
f 634 735 636
f 635 736 641
f 635 638 737
f 635 737 736
f 636 735 738
f 636 738 637
f 637 738 638
f 638 738 739
f 638 739 740
f 638 740 741
f 638 741 737
f 639 742 743
f 639 743 697
f 639 697 640
f 639 641 742
f 641 736 744
f 641 744 745
f 641 745 742
f 642 648 643
f 643 648 746
f 644 729 645
f 645 729 747
f 645 747 748
f 645 748 646
f 646 749 647
f 646 748 750
f 646 750 749
f 647 749 746
f 647 746 648
f 650 751 752
f 650 752 753
f 650 753 754
f 650 754 651
f 653 658 662
f 653 662 659
f 654 669 655
f 655 755 756
f 655 756 656
f 655 669 668
f 655 668 757
f 655 757 758
f 655 758 759
f 655 759 755
f 656 756 657
f 657 756 760
f 657 760 761
f 657 761 658
f 658 761 662
f 661 664 695
f 662 761 762
f 662 762 663
f 663 762 763
f 663 763 764
f 663 764 664
f 664 764 765
f 664 765 766
f 664 766 696
f 664 696 695
f 665 767 667
f 665 666 768
f 665 768 767
f 666 769 768
f 667 767 770
f 667 770 771
f 667 771 750
f 667 750 772
f 667 772 773
f 667 773 668
f 668 773 774
f 668 774 757
f 670 674 671
f 670 672 775
f 670 775 776
f 670 776 674
f 672 673 775
f 673 689 777
f 673 777 775
f 674 776 778
f 674 778 779
f 674 779 780
f 674 780 781
f 674 781 675
f 675 781 782
f 675 782 676
f 676 782 783
f 676 783 677
f 677 784 678
f 677 783 784
f 678 784 785
f 678 785 679
f 679 786 787
f 679 787 788
f 679 788 680
f 679 785 789
f 679 789 786
f 680 788 681
f 682 693 683
f 683 693 790
f 683 790 687
f 684 791 685
f 684 688 791
f 685 791 792
f 685 792 689
f 687 790 793
f 687 793 794
f 687 794 688
f 688 794 793
f 688 793 795
f 688 795 796
f 688 796 797
f 688 797 798
f 688 798 799
f 688 799 800
f 688 800 801
f 688 801 802
f 688 802 791
f 689 792 777
f 690 803 691
f 690 694 696
f 690 696 804
f 690 804 805
f 690 805 803
f 691 806 807
f 691 807 692
f 691 803 806
f 692 807 693
f 693 793 790
f 693 807 808
f 693 808 793
f 696 766 809
f 696 809 810
f 696 810 811
f 696 811 812
f 696 812 804
f 697 743 813
f 697 813 700
f 698 814 702
f 698 702 699
f 698 700 813
f 698 813 815
f 698 815 814
f 701 702 816
f 701 816 817
f 701 817 705
f 702 814 818
f 702 818 819
f 702 819 816
f 703 708 714
f 705 817 706
f 706 817 707
f 707 817 820
f 707 820 821
f 707 821 708
f 708 822 823
f 708 823 824
f 708 824 825
f 708 825 826
f 708 826 714
f 708 821 827
f 708 827 828
f 708 828 822
f 710 829 711
f 710 713 829
f 711 829 719
f 713 830 829
f 713 718 831
f 713 831 832
f 713 832 830
f 714 826 715
f 715 826 716
f 716 826 833
f 716 833 824
f 716 824 834
f 716 834 835
f 716 835 831
f 716 831 717
f 717 831 718
f 719 836 720
f 719 829 836
f 720 836 837
f 720 837 838
f 720 838 725
f 720 725 839
f 720 839 722
f 720 722 721
f 722 839 723
f 723 839 725
f 725 838 840
f 725 840 759
f 725 759 841
f 725 841 842
f 725 842 726
f 726 842 727
f 727 729 728
f 727 842 729
f 729 842 747
f 730 843 732
f 730 732 731
f 732 844 845
f 732 845 733
f 732 843 844
f 733 845 846
f 733 846 847
f 733 847 734
f 734 848 735
f 734 847 739
f 734 739 848
f 735 848 738
f 736 737 744
f 737 741 849
f 737 849 850
f 737 850 851
f 737 851 744
f 738 848 739
f 739 847 852
f 739 852 853
f 739 853 741
f 739 741 740
f 741 853 854
f 741 854 855
f 741 855 856
f 741 856 849
f 742 857 813
f 742 813 743
f 742 745 857
f 744 851 858
f 744 858 859
f 744 859 745
f 745 859 857
f 746 749 860
f 746 860 861
f 747 862 863
f 747 863 748
f 747 842 862
f 748 863 772
f 748 772 750
f 749 750 771
f 749 771 864
f 749 864 769
f 749 769 860
f 751 865 866
f 751 866 752
f 752 866 867
f 752 867 753
f 753 868 869
f 753 869 870
f 753 870 871
f 753 871 754
f 753 867 872
f 753 872 957
f 753 957 1014
f 753 1014 959
f 753 959 868
f 755 759 873
f 755 873 756
f 756 874 875
f 756 875 763
f 756 763 761
f 756 761 760
f 756 873 876
f 756 876 874
f 757 774 863
f 757 863 758
f 758 863 862
f 758 862 841
f 758 841 759
f 759 840 873
f 761 763 762
f 763 875 877
f 763 877 878
f 763 878 879
f 763 879 880
f 763 880 881
f 763 881 882
f 763 882 764
f 764 882 765
f 765 882 809
f 765 809 766
f 767 768 769
f 767 769 864
f 767 864 771
f 767 771 770
f 769 861 860
f 772 863 774
f 772 774 773
f 775 777 778
f 775 778 776
f 777 792 883
f 777 883 778
f 778 884 779
f 778 883 884
f 779 884 885
f 779 885 780
f 780 886 781
f 780 885 887
f 780 887 886
f 781 886 782
f 782 888 783
f 782 886 887
f 782 887 888
f 783 888 889
f 783 889 890
f 783 890 891
f 783 891 784
f 784 891 785
f 785 892 789
f 785 891 892
f 786 893 894
f 786 894 895
f 786 895 896
f 786 896 897
f 786 897 898
f 786 898 787
f 786 789 892
f 786 892 899
f 786 899 893
f 787 898 788
f 791 802 900
f 791 900 792
f 792 900 883
f 793 808 806
f 793 806 901
f 793 901 902
f 793 902 795
f 795 903 796
f 795 902 904
f 795 904 903
f 796 903 905
f 796 905 797
f 797 905 906
f 797 906 907
f 797 907 798
f 798 907 908
f 798 908 799
f 799 908 909
f 799 909 900
f 799 900 800
f 800 900 802
f 800 802 801
f 803 805 806
f 804 812 910
f 804 910 805
f 805 910 911
f 805 911 806
f 806 912 902
f 806 902 901
f 806 808 807
f 806 911 913
f 806 913 912
f 809 882 914
f 809 914 810
f 810 914 915
f 810 915 811
f 811 916 917
f 811 917 910
f 811 910 812
f 811 915 824
f 811 824 916
f 813 857 815
f 814 815 918
f 814 918 919
f 814 919 818
f 815 857 918
f 816 819 817
f 817 819 920
f 817 920 820
f 818 919 819
f 819 919 921
f 819 921 920
f 820 920 821
f 821 920 922
f 821 922 827
f 822 923 824
f 822 824 823
f 822 828 923
f 824 923 916
f 824 915 834
f 824 833 825
f 825 833 826
f 827 922 924
f 827 924 925
f 827 925 926
f 827 926 828
f 828 926 905
f 828 905 903
f 828 903 904
f 828 904 902
f 828 902 912
f 828 912 927
f 828 927 923
f 829 830 879
f 829 879 836
f 830 832 880
f 830 880 879
f 831 880 832
f 831 835 928
f 831 928 929
f 831 929 880
f 834 915 928
f 834 928 835
f 836 930 837
f 836 879 878
f 836 878 931
f 836 931 930
f 837 930 876
f 837 876 838
f 838 876 840
f 840 876 873
f 841 862 842
f 843 932 844
f 844 932 845
f 845 932 933
f 845 933 934
f 845 934 935
f 845 935 936
f 845 936 937
f 845 937 846
f 846 937 938
f 846 938 847
f 847 938 939
f 847 939 940
f 847 940 852
f 849 941 850
f 849 856 941
f 850 941 942
f 850 942 943
f 850 943 851
f 851 944 945
f 851 945 946
f 851 946 857
f 851 857 858
f 851 943 944
f 852 940 947
f 852 947 853
f 853 947 854
f 854 947 948
f 854 948 855
f 855 948 949
f 855 949 950
f 855 950 856
f 856 950 951
f 856 951 952
f 856 952 941
f 857 859 858
f 857 946 945
f 857 945 953
f 857 953 919
f 857 919 918
f 865 954 955
f 865 955 866
f 866 955 956
f 866 956 867
f 867 956 957
f 867 957 872
f 868 958 869
f 868 959 960
f 868 960 961
f 868 961 962
f 868 962 938
f 868 938 963
f 868 963 958
f 869 958 964
f 869 964 870
f 874 876 931
f 874 931 875
f 875 931 877
f 876 930 931
f 877 931 878
f 880 929 928
f 880 928 881
f 881 928 914
f 881 914 882
f 883 965 966
f 883 966 884
f 883 900 909
f 883 909 967
f 883 967 965
f 884 887 885
f 884 966 887
f 887 966 968
f 887 968 969
f 887 969 970
f 887 970 971
f 887 971 972
f 887 972 888
f 888 972 971
f 888 971 973
f 888 973 889
f 889 973 974
f 889 974 890
f 890 975 976
f 890 976 977
f 890 977 899
f 890 899 892
f 890 892 891
f 890 974 975
f 893 899 894
f 894 899 978
f 894 978 979
f 894 979 980
f 894 980 981
f 894 981 982
f 894 982 983
f 894 983 895
f 895 983 896
f 899 977 978
f 905 926 925
f 905 925 984
f 905 984 906
f 906 984 985
f 906 985 907
f 907 985 986
f 907 986 908
f 908 987 967
f 908 967 909
f 908 986 988
f 908 988 989
f 908 989 987
f 910 917 913
f 910 913 911
f 912 913 927
f 913 917 916
f 913 916 923
f 913 923 927
f 914 928 915
f 919 953 924
f 919 924 920
f 919 920 921
f 920 924 922
f 924 953 990
f 924 990 925
f 925 990 984
f 933 991 934
f 934 991 935
f 935 964 936
f 935 991 964
f 936 964 992
f 936 992 958
f 936 958 937
f 937 958 963
f 937 963 938
f 938 962 993
f 938 993 994
f 938 994 939
f 939 994 995
f 939 995 940
f 940 995 948
f 940 948 947
f 941 952 942
f 942 996 997
f 942 997 943
f 942 952 989
f 942 989 996
f 943 997 944
f 944 997 998
f 944 998 999
f 944 999 945
f 945 999 986
f 945 986 1000
f 945 1000 953
f 948 995 1001
f 948 1001 949
f 949 1001 950
f 950 1001 1002
f 950 1002 951
f 951 1003 952
f 951 1002 1004
f 951 1004 1005
f 951 1005 1006
f 951 1006 1003
f 952 1003 1007
f 952 1007 989
f 953 1000 990
f 954 1008 1009
f 954 1009 1010
f 954 1010 955
f 955 1010 1011
f 955 1011 956
f 956 1011 1012
f 956 1012 1013
f 956 1013 1014
f 956 1014 957
f 958 992 964
f 959 1014 1015
f 959 1015 1016
f 959 1016 1017
f 959 1017 1018
f 959 1018 960
f 960 1018 1019
f 960 1019 1020
f 960 1020 1021
f 960 1021 1022
f 960 1022 961
f 961 1022 1023
f 961 1023 993
f 961 993 962
f 965 1024 969
f 965 969 966
f 965 967 987
f 965 987 1024
f 966 969 968
f 969 1025 970
f 969 1024 1026
f 969 1026 1007
f 969 1007 1025
f 970 1025 1006
f 970 1006 971
f 971 1006 1027
f 971 1027 1028
f 971 1028 974
f 971 974 973
f 974 1028 1029
f 974 1029 1030
f 974 1030 975
f 975 1030 1031
f 975 1031 976
f 976 1031 1032
f 976 1032 977
f 977 1032 979
f 977 979 978
f 979 1032 980
f 980 1033 981
f 980 1032 1033
f 981 1033 1034
f 981 1034 1008
f 984 990 985
f 985 990 1000
f 985 1000 986
f 986 999 998
f 986 998 996
f 986 996 989
f 986 989 988
f 987 989 1035
f 987 1035 1024
f 989 1007 1026
f 989 1026 1035
f 993 1023 1021
f 993 1021 994
f 994 1021 1020
f 994 1020 995
f 995 1036 1001
f 995 1020 1037
f 995 1037 1036
f 996 998 997
f 1001 1036 1002
f 1002 1036 1038
f 1002 1038 1004
f 1003 1006 1025
f 1003 1025 1007
f 1004 1038 1039
f 1004 1039 1040
f 1004 1040 1005
f 1005 1040 1027
f 1005 1027 1006
f 1008 1034 1041
f 1008 1041 1009
f 1009 1041 1042
f 1009 1042 1010
f 1010 1042 1011
f 1011 1042 1012
f 1012 1043 1044
f 1012 1044 1013
f 1012 1042 1043
f 1013 1044 1045
f 1013 1045 1046
f 1013 1046 1015
f 1013 1015 1014
f 1015 1045 1047
f 1015 1047 1016
f 1015 1046 1045
f 1016 1047 1048
f 1016 1048 1049
f 1016 1049 1017
f 1017 1049 1050
f 1017 1050 1019
f 1017 1019 1018
f 1019 1050 1020
f 1020 1050 1058
f 1020 1058 1037
f 1021 1023 1022
f 1024 1035 1026
f 1027 1051 1052
f 1027 1052 1053
f 1027 1053 1028
f 1027 1040 1051
f 1028 1053 1052
f 1028 1052 1029
f 1029 1052 1054
f 1029 1054 1055
f 1029 1055 1031
f 1029 1031 1030
f 1031 1055 1056
f 1031 1056 1032
f 1032 1056 1033
f 1033 1056 1034
f 1034 1056 1041
f 1036 1037 1057
f 1036 1057 1038
f 1037 1058 1057
f 1038 1057 1059
f 1038 1059 1039
f 1039 1059 1040
f 1040 1059 1051
f 1041 1056 1043
f 1041 1043 1042
f 1043 1056 1060
f 1043 1060 1062
f 1043 1062 1061
f 1043 1061 1044
f 1044 1061 1045
f 1045 1061 1048
f 1045 1048 1047
f 1048 1062 1058
f 1048 1058 1050
f 1048 1050 1049
f 1048 1061 1062
f 1051 1059 1063
f 1051 1063 1052
f 1052 1063 1054
f 1054 1063 1062
f 1054 1062 1060
f 1054 1060 1055
f 1055 1060 1056
f 1057 1058 1063
f 1057 1063 1059
f 1058 1062 1063

