# https://github.com/mikedh/trimesh
v 0.03831839 0.01286391 0.00909413
v 0.03831839 0.01286139 0.00975558
v 0.03897699 0.01285383 0.00909413
v 0.03831839 0.01286391 0.00904851
v 0.03500833 0.01286391 0.01041753
v 0.03567034 0.01286139 0.01041753
v 0.03831839 0.01284880 0.01010118
v 0.03897699 0.01284124 0.00975558
v 0.03902135 0.01284376 0.00904851
v 0.03897699 0.01285383 0.00904851
v 0.02680825 0.01286391 0.00904851
v 0.02178515 0.01286391 0.01041753
v 0.03500492 0.01282361 0.01107947
v 0.03567034 0.01285131 0.01060495
v 0.03831498 0.01283620 0.01041753
v 0.03897699 0.01281354 0.01010118
v 0.03923975 0.01274302 0.01010118
v 0.03951957 0.01269518 0.00975558
v 0.03956393 0.01270777 0.00909413
v 0.03956393 0.01270777 0.00904851
v 0.01454737 0.01286139 0.00904851
v 0.02178515 0.01286391 0.01010118
v 0.01384441 0.01286139 0.00975558
v 0.01384441 0.01284376 0.01041753
v 0.02178174 0.01282361 0.01107947
v 0.03500492 0.01268510 0.01174092
v 0.03567034 0.01282109 0.01107947
v 0.03831498 0.01280598 0.01060495
v 0.03879272 0.01277073 0.01060495
v 0.03897699 0.01278584 0.01041753
v 0.03942743 0.01265236 0.01041753
v 0.03947521 0.01267251 0.01010118
v 0.03985058 0.01237030 0.00975558
v 0.03989494 0.01245089 0.00909413
v 0.03989494 0.01245089 0.00904851
v 0.01388877 0.01285635 0.00904851
v 0.01384441 0.01285635 0.00909413
v 0.01323017 0.01272288 0.00904851
v 0.01318240 0.01271280 0.00909413
v 0.01318240 0.01271532 0.00946254
v 0.01318240 0.01271532 0.00975558
v 0.01314828 0.01269518 0.01010118
v 0.01312780 0.01268006 0.01035802
v 0.01331548 0.01265236 0.01107947
v 0.01384441 0.01273043 0.01107947
v 0.02178174 0.01268510 0.01174092
v 0.03500492 0.01257429 0.01208156
v 0.03567034 0.01257429 0.01208008
v 0.03567034 0.01268258 0.01174092
v 0.03831498 0.01272791 0.01107947
v 0.03895311 0.01265488 0.01106410
v 0.03897017 0.01274806 0.01060495
v 0.03935236 0.01260451 0.01083354
v 0.04062861 0.01123955 0.01006598
v 0.04066615 0.01128740 0.00962517
v 0.04066615 0.01128740 0.00938023
v 0.04081971 0.01088949 0.00904851
v 0.01384441 0.01285383 0.00904851
v 0.01318240 0.01271029 0.00904851
v 0.01284798 0.01257177 0.00904851
v 0.01284798 0.01257177 0.00909413
v 0.01285481 0.01257177 0.01010118
v 0.01287528 0.01254407 0.01053901
v 0.01298789 0.01247356 0.01107947
v 0.01344516 0.01259696 0.01146623
v 0.01384441 0.01260955 0.01149399
v 0.02140295 0.01257429 0.01207809
v 0.02178174 0.01257429 0.01208156
v 0.03500492 0.01238290 0.01241130
v 0.03567034 0.01238038 0.01241031
v 0.03600476 0.01257177 0.01207661
v 0.03831498 0.01260955 0.01149003
v 0.03872106 0.01259444 0.01146028
v 0.03916468 0.01247104 0.01127483
v 0.03937284 0.01202780 0.01150738
v 0.03947180 0.01224438 0.01106410
v 0.04072757 0.01079631 0.01024299
v 0.04075146 0.01085675 0.01010118
v 0.04079582 0.01097512 0.00980963
v 0.04081971 0.01090964 0.00913330
v 0.04107905 0.01025486 0.00904851
v 0.01139770 0.01146872 0.00904851
v 0.01139770 0.01147124 0.00909413
v 0.01284798 0.01256674 0.01010118
v 0.00684892 0.00730835 0.01010118
v 0.01284798 0.01191196 0.01207809
v 0.01320629 0.01232749 0.01170770
v 0.01317899 0.01201269 0.01220404
v 0.01384441 0.01211091 0.01232700
v 0.01384441 0.01243830 0.01182422
v 0.02178174 0.01238290 0.01241130
v 0.03500492 0.01205299 0.01290119
v 0.03567034 0.01204795 0.01289970
v 0.03831498 0.01241815 0.01182026
v 0.03876201 0.01201521 0.01217230
v 0.03831498 0.01208824 0.01227296
v 0.03884732 0.01157701 0.01228535
v 0.03917833 0.01157701 0.01190009
v 0.04057060 0.01024982 0.01067586
v 0.04059790 0.01034300 0.01060495
v 0.04078217 0.01025486 0.01034464
v 0.04087431 0.01025486 0.01010118
v 0.04100398 0.01025486 0.00975558
v 0.04107564 0.01025486 0.00909413
v 0.04135887 0.00893019 0.00904851
v 0.01012145 0.00694570 0.00904851
v 0.00659640 0.00694067 0.01010118
v 0.01285139 0.01124962 0.01273558
v 0.01317899 0.01170797 0.01253526
v 0.01384441 0.01183137 0.01265773
v 0.02178174 0.01205299 0.01290119
v 0.03500492 0.01172056 0.01323241
v 0.03567034 0.01171804 0.01323043
v 0.03613785 0.01200262 0.01284317
v 0.03815801 0.01140324 0.01283078
v 0.03609349 0.01134028 0.01346198
v 0.03825356 0.01091468 0.01292350
v 0.03858456 0.01091468 0.01267855
v 0.04059449 0.00959001 0.01069867
v 0.04064567 0.00976378 0.01060545
v 0.04078558 0.00959253 0.01036794
v 0.04139300 0.00827037 0.00904851
v 0.01003614 0.00628085 0.00904851
v 0.00658958 0.00679460 0.01010118
v 0.01018970 0.00562103 0.01336033
v 0.01018970 0.00594087 0.01330183
v 0.01018970 0.00628337 0.01317588
v 0.01348269 0.01060995 0.01340595
v 0.01317899 0.01137554 0.01282979
v 0.01384441 0.01149894 0.01292251
v 0.02112314 0.01136547 0.01348033
v 0.02178174 0.01172056 0.01323241
v 0.03500492 0.01139065 0.01349768
v 0.03567034 0.01138813 0.01349719
v 0.03761202 0.01086683 0.01322596
v 0.03567034 0.01091468 0.01374907
v 0.03600476 0.00993251 0.01405848
v 0.03736632 0.01061247 0.01340645
v 0.03826379 0.01024982 0.01296961
v 0.03777582 0.01024982 0.01330034
v 0.03859821 0.01024982 0.01267905
v 0.04059449 0.00893019 0.01069916
v 0.04065250 0.00911907 0.01060495
v 0.04064909 0.00959001 0.01060545
v 0.03859821 0.00959001 0.01268054
v 0.04065250 -0.00893019 0.01060545
v 0.04078558 -0.00893019 0.01036844
v 0.04139300 0.00539690 0.00904851
v 0.01002931 0.00561852 0.00904851
v 0.00653157 0.00363403 0.01010118
v 0.00654863 0.00482271 0.01010118
v 0.00657251 0.00613730 0.01010118
v 0.01018970 0.00527853 0.01336331
v 0.01384441 0.00893019 0.01361321
v 0.01384441 0.00959001 0.01359735
v 0.01337350 0.01024982 0.01344959
v 0.01384441 0.01024982 0.01350512
v 0.02138931 0.00994006 0.01405947
v 0.02115043 0.01019442 0.01397914
v 0.02178174 0.01028004 0.01398460
v 0.02112314 0.01091468 0.01372428
v 0.01384441 0.01095497 0.01325323
v 0.02178174 0.01091468 0.01375750
v 0.02178174 0.01139065 0.01349768
v 0.03500492 0.01091468 0.01375750
v 0.03500492 0.01028004 0.01398460
v 0.03567034 0.01027501 0.01397716
v 0.03602182 0.00959001 0.01407186
v 0.03750623 0.00959001 0.01348727
v 0.03744140 0.01024982 0.01344612
v 0.03567034 0.00994258 0.01406145
v 0.03567034 0.00959001 0.01408872
v 0.03783383 0.00959001 0.01330034
v 0.03784748 0.00694319 0.01330232
v 0.03784748 0.00628337 0.01330530
v 0.03784748 0.00562103 0.01330629
v 0.03826379 0.00694319 0.01297160
v 0.04059449 -0.00959001 0.01069916
v 0.03859821 -0.00893019 0.01268252
v 0.04064909 -0.00959001 0.01060545
v 0.04078558 -0.00959253 0.01036794
v 0.04138617 -0.00827037 0.00904851
v 0.01001907 -0.00297421 0.00904851
v 0.00653157 0.00350307 0.01010118
v 0.01018970 -0.00496122 0.01336331
v 0.01384441 -0.00893019 0.01361321
v 0.02112314 0.00893019 0.01409021
v 0.02078530 0.00932054 0.01405947
v 0.02115043 0.00955979 0.01407186
v 0.02094910 0.00975874 0.01404509
v 0.02178174 0.00959001 0.01409071
v 0.02178174 0.00994762 0.01406145
v 0.03500492 0.00994762 0.01406145
v 0.03604230 0.00893019 0.01408327
v 0.03567034 0.00893019 0.01411203
v 0.03750965 0.00893019 0.01349520
v 0.03500492 0.00959001 0.01409071
v 0.03751988 0.00694319 0.01349520
v 0.03784748 -0.00562103 0.01330629
v 0.03826379 -0.00694319 0.01297160
v 0.04057742 -0.01024982 0.01068379
v 0.04062861 -0.01025486 0.01060495
v 0.04078217 -0.01025486 0.01035257
v 0.03859821 -0.01024982 0.01268054
v 0.03858798 -0.01091468 0.01268103
v 0.03826379 -0.01024982 0.01296961
v 0.04138276 -0.00850710 0.00904851
v 0.01001907 -0.00384054 0.00904851
v 0.01002590 -0.00562103 0.00904851
v 0.00656569 -0.00429636 0.01010118
v 0.01018970 -0.00562103 0.01336083
v 0.01384441 -0.00959001 0.01359735
v 0.02078530 -0.00932054 0.01405947
v 0.02112314 -0.00893019 0.01409021
v 0.02178174 0.00893019 0.01411352
v 0.03604230 -0.00893019 0.01408327
v 0.03500492 0.00893019 0.01411352
v 0.03567034 -0.00893019 0.01411203
v 0.03751988 -0.00694319 0.01349520
v 0.03784748 -0.00628337 0.01330530
v 0.03884732 -0.01157701 0.01228535
v 0.03917833 -0.01157701 0.01190554
v 0.03937284 -0.01203284 0.01151284
v 0.04072757 -0.01080387 0.01025440
v 0.04101080 -0.01025486 0.00975558
v 0.04136228 -0.00893019 0.00904851
v 0.03825697 -0.01091468 0.01292152
v 0.03783383 -0.00959001 0.01330034
v 0.03777582 -0.01024982 0.01330034
v 0.01003272 -0.00628337 0.00904851
v 0.00657251 -0.00501914 0.01010118
v 0.00661688 -0.00640677 0.01010118
v 0.00664076 -0.00702126 0.01010118
v 0.01018970 -0.00628337 0.01317489
v 0.01347928 -0.01060995 0.01340595
v 0.01337008 -0.01024982 0.01344959
v 0.01384441 -0.01024982 0.01350512
v 0.02138931 -0.00994006 0.01405947
v 0.02094910 -0.00975874 0.01404509
v 0.02115043 -0.00955979 0.01407186
v 0.02178174 -0.00893019 0.01411352
v 0.03602182 -0.00959001 0.01407186
v 0.03750623 -0.00959001 0.01348777
v 0.03750965 -0.00893019 0.01349520
v 0.03500492 -0.00893019 0.01411352
v 0.03500492 -0.00959001 0.01409071
v 0.03567034 -0.00959001 0.01408872
v 0.03815801 -0.01140324 0.01282879
v 0.03876201 -0.01201521 0.01217032
v 0.03916468 -0.01247356 0.01127483
v 0.03935236 -0.01260451 0.01083354
v 0.03947180 -0.01224690 0.01106460
v 0.04063202 -0.01124459 0.01008432
v 0.04064226 -0.01120177 0.01010118
v 0.04076170 -0.01086683 0.01010118
v 0.04081971 -0.01098016 0.00982054
v 0.04097327 -0.01091720 0.00909413
v 0.04098692 -0.01086935 0.00904851
v 0.03736291 -0.01060995 0.01340595
v 0.03744140 -0.01024982 0.01344612
v 0.01004979 -0.00652262 0.00904851
v 0.01012145 -0.00694319 0.00904851
v 0.01139770 -0.01146872 0.00904851
v 0.00687622 -0.00729576 0.01010118
v 0.01285139 -0.01124710 0.01273359
v 0.01317899 -0.01137302 0.01282830
v 0.01384441 -0.01149894 0.01292251
v 0.01384441 -0.01095497 0.01325323
v 0.02112314 -0.01091468 0.01372428
v 0.02178174 -0.01028004 0.01398460
v 0.02115043 -0.01019442 0.01397914
v 0.02178174 -0.00994762 0.01406145
v 0.02178174 -0.00959001 0.01409071
v 0.03600476 -0.00993251 0.01405848
v 0.03500492 -0.00994762 0.01406145
v 0.03567034 -0.00994258 0.01406145
v 0.03831498 -0.01209076 0.01227445
v 0.03760861 -0.01086431 0.01322398
v 0.03609349 -0.01134028 0.01346198
v 0.03872106 -0.01259696 0.01146325
v 0.03895652 -0.01265740 0.01106460
v 0.03897699 -0.01279339 0.01041753
v 0.03942743 -0.01265740 0.01041753
v 0.04070027 -0.01132266 0.00964352
v 0.04097327 -0.01091720 0.00904851
v 0.04074122 -0.01136799 0.00909413
v 0.04075828 -0.01133777 0.00904851
v 0.01284457 -0.01257429 0.00904851
v 0.01139770 -0.01147376 0.00909413
v 0.01287528 -0.01254407 0.01058661
v 0.01299130 -0.01246348 0.01107947
v 0.01285139 -0.01190944 0.01207363
v 0.01317899 -0.01170545 0.01253129
v 0.01384441 -0.01183137 0.01265773
v 0.02112314 -0.01136547 0.01348033
v 0.02178174 -0.01091468 0.01375750
v 0.03500492 -0.01028004 0.01398460
v 0.03567034 -0.01027501 0.01397716
v 0.03567034 -0.01091468 0.01374907
v 0.03567034 -0.01171804 0.01323043
v 0.03614467 -0.01200262 0.01284317
v 0.03567034 -0.01204795 0.01289970
v 0.03831498 -0.01242067 0.01182274
v 0.03567034 -0.01138813 0.01349719
v 0.03600476 -0.01257177 0.01207661
v 0.03831498 -0.01273043 0.01107947
v 0.03950592 -0.01270021 0.00975558
v 0.03946838 -0.01267755 0.01010118
v 0.03831498 -0.01281102 0.01060495
v 0.03831498 -0.01284124 0.01041753
v 0.03897699 -0.01284628 0.00975558
v 0.03988129 -0.01245845 0.00909413
v 0.03962536 -0.01250630 0.01010118
v 0.03983693 -0.01234260 0.00975558
v 0.04074122 -0.01136799 0.00904851
v 0.03988129 -0.01246097 0.00904851
v 0.01284457 -0.01257681 0.00909413
v 0.01313804 -0.01270273 0.00904851
v 0.01284457 -0.01257681 0.00975558
v 0.01284457 -0.01257429 0.01014531
v 0.01313121 -0.01268258 0.01038629
v 0.01318922 -0.01267251 0.01060545
v 0.01331890 -0.01265236 0.01107947
v 0.01344857 -0.01259696 0.01146623
v 0.01317899 -0.01201018 0.01220057
v 0.01384441 -0.01211091 0.01232700
v 0.02178174 -0.01205299 0.01290119
v 0.02178174 -0.01172056 0.01323241
v 0.02178174 -0.01139065 0.01349768
v 0.03500492 -0.01091468 0.01375750
v 0.03500492 -0.01172056 0.01323241
v 0.03500492 -0.01205299 0.01290119
v 0.03567034 -0.01238038 0.01241031
v 0.03500492 -0.01139065 0.01349768
v 0.03567034 -0.01257429 0.01208008
v 0.03567034 -0.01268258 0.01174092
v 0.03567034 -0.01282109 0.01107947
v 0.03955028 -0.01270777 0.00909413
v 0.03567034 -0.01285131 0.01060495
v 0.03567034 -0.01286139 0.01041753
v 0.03831839 -0.01286391 0.00975558
v 0.03893263 -0.01285635 0.00904851
v 0.03897699 -0.01285383 0.00909413
v 0.03957417 -0.01269014 0.00904851
v 0.01318240 -0.01272288 0.00909413
v 0.01302884 -0.01265740 0.00946254
v 0.01318240 -0.01271784 0.00904851
v 0.01318240 -0.01272288 0.00975558
v 0.01315169 -0.01270021 0.01010118
v 0.01352364 -0.01278584 0.01010118
v 0.01384441 -0.01284376 0.01041753
v 0.01384441 -0.01273043 0.01107947
v 0.01384441 -0.01260955 0.01149399
v 0.01384441 -0.01243830 0.01182422
v 0.02178174 -0.01238290 0.01241130
v 0.03500492 -0.01238290 0.01241130
v 0.03500492 -0.01257429 0.01208156
v 0.03500492 -0.01268510 0.01174092
v 0.03500492 -0.01282361 0.01107947
v 0.03955028 -0.01270777 0.00904851
v 0.03500833 -0.01286391 0.01041753
v 0.03831839 -0.01286391 0.00904851
v 0.03897699 -0.01285383 0.00904851
v 0.01384441 -0.01285887 0.00904851
v 0.01384441 -0.01286139 0.00909413
v 0.01384441 -0.01286139 0.00975558
v 0.02178515 -0.01286391 0.01041753
v 0.02178174 -0.01282361 0.01107947
v 0.02178174 -0.01268510 0.01174092
v 0.02140295 -0.01257429 0.01207809
v 0.02178174 -0.01257429 0.01208156
v 0.02680825 -0.01286391 0.00904851
v 0.01450642 -0.01286139 0.00904851
v 0.02146779 -0.01286391 0.01010118
f 1 2 3
f 1 3 10
f 1 10 4
f 1 4 11
f 1 11 22
f 1 22 12
f 1 12 5
f 1 5 2
f 2 5 6
f 2 6 7
f 2 7 8
f 2 8 3
f 3 9 10
f 3 8 9
f 4 10 9
f 4 9 20
f 4 20 35
f 4 35 57
f 4 57 81
f 4 81 105
f 4 105 122
f 4 122 148
f 4 148 182
f 4 182 207
f 4 207 226
f 4 226 258
f 4 258 285
f 4 285 287
f 4 287 315
f 4 315 316
f 4 316 344
f 4 344 360
f 4 360 363
f 4 363 342
f 4 342 362
f 4 362 372
f 4 372 373
f 4 373 364
f 4 364 347
f 4 347 318
f 4 318 288
f 4 288 263
f 4 263 262
f 4 262 261
f 4 261 230
f 4 230 209
f 4 209 208
f 4 208 183
f 4 183 149
f 4 149 123
f 4 123 106
f 4 106 82
f 4 82 60
f 4 60 59
f 4 59 38
f 4 38 58
f 4 58 36
f 4 36 21
f 4 21 11
f 5 12 25
f 5 25 13
f 5 13 14
f 5 14 6
f 6 14 15
f 6 15 7
f 7 15 8
f 8 15 16
f 8 16 17
f 8 17 18
f 8 18 19
f 8 19 9
f 9 19 20
f 11 21 22
f 12 22 23
f 12 23 24
f 12 24 25
f 13 25 46
f 13 46 26
f 13 26 49
f 13 49 27
f 13 27 14
f 14 27 15
f 15 27 28
f 15 28 29
f 15 29 30
f 15 30 16
f 16 30 17
f 17 31 32
f 17 32 18
f 17 30 31
f 18 33 34
f 18 34 19
f 18 32 33
f 19 34 35
f 19 35 20
f 21 36 23
f 21 23 22
f 23 36 37
f 23 37 38
f 23 38 39
f 23 39 40
f 23 40 41
f 23 41 24
f 24 41 42
f 24 42 43
f 24 43 44
f 24 44 45
f 24 45 25
f 25 45 46
f 26 46 68
f 26 68 47
f 26 47 48
f 26 48 49
f 27 49 50
f 27 50 28
f 28 50 29
f 29 50 51
f 29 51 52
f 29 52 30
f 30 53 31
f 30 52 53
f 31 53 33
f 31 33 32
f 33 53 54
f 33 54 55
f 33 55 34
f 34 55 56
f 34 56 35
f 35 56 57
f 36 58 37
f 37 58 38
f 38 59 39
f 39 59 60
f 39 60 40
f 40 60 61
f 40 61 41
f 41 61 62
f 41 62 42
f 42 62 43
f 43 62 63
f 43 63 44
f 44 63 64
f 44 64 65
f 44 65 45
f 45 65 66
f 45 66 46
f 46 66 67
f 46 67 68
f 47 68 91
f 47 91 69
f 47 69 48
f 48 69 70
f 48 70 71
f 48 71 49
f 49 71 50
f 50 72 73
f 50 73 51
f 50 71 72
f 51 73 53
f 51 53 52
f 53 73 74
f 53 74 75
f 53 75 76
f 53 76 54
f 54 77 78
f 54 78 79
f 54 79 55
f 54 76 75
f 54 75 77
f 55 79 56
f 56 79 80
f 56 80 57
f 57 80 81
f 60 82 83
f 60 83 61
f 61 83 84
f 61 84 62
f 62 84 63
f 63 84 83
f 63 83 85
f 63 85 64
f 64 85 86
f 64 86 87
f 64 87 65
f 65 87 88
f 65 88 89
f 65 89 90
f 65 90 66
f 66 90 67
f 67 90 91
f 67 91 68
f 69 91 111
f 69 111 92
f 69 92 70
f 70 92 93
f 70 93 71
f 71 93 94
f 71 94 73
f 71 73 72
f 73 95 74
f 73 94 96
f 73 96 95
f 74 95 75
f 75 95 97
f 75 97 98
f 75 98 99
f 75 99 100
f 75 100 77
f 77 101 102
f 77 102 103
f 77 103 78
f 77 100 101
f 78 103 79
f 79 103 104
f 79 104 81
f 79 81 80
f 81 104 105
f 82 106 107
f 82 107 85
f 82 85 83
f 85 107 108
f 85 108 86
f 86 108 109
f 86 109 88
f 86 88 87
f 88 109 110
f 88 110 89
f 89 110 111
f 89 111 91
f 89 91 90
f 92 111 132
f 92 132 112
f 92 112 113
f 92 113 93
f 93 113 114
f 93 114 96
f 93 96 94
f 95 96 115
f 95 115 97
f 96 114 113
f 96 113 116
f 96 116 115
f 97 115 117
f 97 117 118
f 97 118 99
f 97 99 98
f 99 118 119
f 99 119 120
f 99 120 101
f 99 101 100
f 101 120 121
f 101 121 122
f 101 122 105
f 101 105 102
f 102 105 103
f 103 105 104
f 106 123 107
f 107 123 124
f 107 124 125
f 107 125 126
f 107 126 127
f 107 127 108
f 108 128 129
f 108 129 109
f 108 127 128
f 109 129 110
f 110 129 130
f 110 130 131
f 110 131 132
f 110 132 111
f 112 132 164
f 112 164 133
f 112 133 134
f 112 134 113
f 113 134 116
f 115 116 135
f 115 135 117
f 116 134 136
f 116 136 137
f 116 137 138
f 116 138 135
f 117 139 118
f 117 135 138
f 117 138 140
f 117 140 139
f 118 141 119
f 118 139 141
f 119 142 143
f 119 143 144
f 119 144 120
f 119 141 145
f 119 145 142
f 120 144 121
f 121 144 143
f 121 143 146
f 121 146 147
f 121 147 122
f 122 147 148
f 123 149 150
f 123 150 151
f 123 151 152
f 123 152 124
f 124 152 125
f 125 152 151
f 125 151 150
f 125 150 153
f 125 153 154
f 125 154 155
f 125 155 156
f 125 156 126
f 126 156 128
f 126 128 127
f 128 156 157
f 128 157 158
f 128 158 159
f 128 159 160
f 128 160 161
f 128 161 162
f 128 162 130
f 128 130 129
f 130 162 131
f 131 162 161
f 131 161 163
f 131 163 164
f 131 164 132
f 133 164 163
f 133 163 165
f 133 165 134
f 134 165 136
f 136 165 166
f 136 166 167
f 136 167 137
f 137 168 169
f 137 169 170
f 137 170 138
f 137 167 171
f 137 171 172
f 137 172 168
f 138 170 140
f 139 140 173
f 139 173 174
f 139 174 175
f 139 175 176
f 139 176 177
f 139 177 145
f 139 145 141
f 140 170 169
f 140 169 173
f 142 178 146
f 142 146 143
f 142 145 179
f 142 179 178
f 145 177 179
f 146 180 181
f 146 181 147
f 146 178 180
f 147 181 148
f 148 181 182
f 149 183 150
f 150 183 208
f 150 208 184
f 150 184 185
f 150 185 153
f 153 185 186
f 153 186 154
f 154 186 214
f 154 214 187
f 154 187 188
f 154 188 155
f 155 157 156
f 155 188 189
f 155 189 190
f 155 190 158
f 155 158 157
f 158 190 189
f 158 189 191
f 158 191 192
f 158 192 160
f 158 160 159
f 160 163 161
f 160 192 193
f 160 193 166
f 160 166 165
f 160 165 163
f 166 193 171
f 166 171 167
f 168 194 169
f 168 172 195
f 168 195 194
f 169 194 196
f 169 196 173
f 171 193 197
f 171 197 172
f 172 197 195
f 173 175 174
f 173 196 175
f 175 196 198
f 175 198 176
f 176 199 200
f 176 200 177
f 176 198 219
f 176 219 199
f 177 200 179
f 178 201 202
f 178 202 203
f 178 203 180
f 178 179 204
f 178 204 205
f 178 205 201
f 179 200 206
f 179 206 204
f 180 203 181
f 181 203 207
f 181 207 182
f 184 208 209
f 184 209 210
f 184 210 211
f 184 211 185
f 185 211 186
f 186 211 212
f 186 212 213
f 186 213 214
f 187 189 188
f 187 214 241
f 187 241 215
f 187 215 189
f 189 215 191
f 191 215 217
f 191 217 197
f 191 197 193
f 191 193 192
f 194 195 218
f 194 218 216
f 194 216 219
f 194 219 198
f 194 198 196
f 195 197 217
f 195 217 245
f 195 245 218
f 199 220 206
f 199 206 200
f 199 219 220
f 201 205 221
f 201 221 222
f 201 222 223
f 201 223 224
f 201 224 202
f 202 224 203
f 203 224 225
f 203 225 226
f 203 226 207
f 204 206 205
f 205 206 227
f 205 227 221
f 206 220 228
f 206 228 229
f 206 229 227
f 209 230 231
f 209 231 210
f 210 231 211
f 211 231 232
f 211 232 233
f 211 233 234
f 211 234 235
f 211 235 236
f 211 236 212
f 212 236 237
f 212 237 238
f 212 238 239
f 212 239 240
f 212 240 213
f 213 240 214
f 214 240 241
f 215 241 245
f 215 245 217
f 216 218 242
f 216 242 243
f 216 243 244
f 216 244 219
f 218 245 246
f 218 246 247
f 218 247 242
f 219 244 220
f 220 244 228
f 221 227 248
f 221 248 249
f 221 249 223
f 221 223 222
f 223 249 250
f 223 250 251
f 223 251 252
f 223 252 253
f 223 253 254
f 223 254 224
f 224 254 255
f 224 255 225
f 225 256 257
f 225 257 226
f 225 255 256
f 226 257 258
f 227 229 259
f 227 259 248
f 228 244 243
f 228 243 229
f 229 243 260
f 229 260 259
f 230 261 233
f 230 233 232
f 230 232 231
f 233 261 262
f 233 262 263
f 233 263 264
f 233 264 265
f 233 265 234
f 234 265 235
f 235 265 266
f 235 266 267
f 235 267 268
f 235 268 269
f 235 269 270
f 235 270 271
f 235 271 238
f 235 238 237
f 235 237 236
f 238 240 239
f 238 271 270
f 238 270 272
f 238 272 273
f 238 273 240
f 240 273 241
f 241 273 246
f 241 246 245
f 242 274 243
f 242 247 274
f 243 274 260
f 246 273 272
f 246 272 275
f 246 275 276
f 246 276 247
f 247 276 274
f 248 277 249
f 248 259 278
f 248 278 279
f 248 279 277
f 249 277 280
f 249 280 250
f 250 280 251
f 251 280 281
f 251 281 282
f 251 282 283
f 251 283 284
f 251 284 253
f 251 253 252
f 253 284 256
f 253 256 254
f 254 256 255
f 256 284 257
f 257 285 258
f 257 284 286
f 257 286 287
f 257 287 285
f 259 260 274
f 259 274 279
f 259 279 278
f 263 288 289
f 263 289 264
f 264 289 290
f 264 290 291
f 264 291 292
f 264 292 265
f 265 292 293
f 265 293 266
f 266 293 294
f 266 294 267
f 267 294 295
f 267 295 268
f 268 295 269
f 269 295 296
f 269 296 270
f 270 296 330
f 270 330 297
f 270 297 275
f 270 275 272
f 274 276 298
f 274 298 299
f 274 299 279
f 275 297 276
f 276 297 298
f 277 279 300
f 277 300 301
f 277 301 302
f 277 302 303
f 277 303 280
f 279 299 304
f 279 304 300
f 280 303 305
f 280 305 306
f 280 306 281
f 281 306 282
f 282 307 308
f 282 308 283
f 282 306 309
f 282 309 310
f 282 310 311
f 282 311 307
f 283 308 312
f 283 312 313
f 283 313 284
f 284 313 314
f 284 314 312
f 284 312 286
f 286 315 287
f 286 312 316
f 286 316 315
f 288 317 289
f 288 318 317
f 289 317 319
f 289 319 320
f 289 320 290
f 290 321 322
f 290 322 323
f 290 323 291
f 290 320 321
f 291 323 324
f 291 324 292
f 292 324 325
f 292 325 293
f 293 325 294
f 294 325 326
f 294 326 327
f 294 327 328
f 294 328 295
f 295 328 329
f 295 329 296
f 296 329 334
f 296 334 330
f 297 330 299
f 297 299 298
f 299 330 304
f 300 304 331
f 300 331 332
f 300 332 302
f 300 302 301
f 302 332 333
f 302 333 305
f 302 305 303
f 304 330 334
f 304 334 331
f 305 333 335
f 305 335 336
f 305 336 306
f 306 336 337
f 306 337 309
f 307 338 312
f 307 312 308
f 307 311 338
f 309 337 310
f 310 337 339
f 310 339 340
f 310 340 341
f 310 341 311
f 311 341 342
f 311 342 343
f 311 343 338
f 312 314 313
f 312 338 316
f 316 338 344
f 317 318 345
f 317 345 346
f 317 346 319
f 318 347 345
f 319 346 348
f 319 348 320
f 320 348 349
f 320 349 321
f 321 349 350
f 321 350 351
f 321 351 323
f 321 323 322
f 323 351 352
f 323 352 324
f 324 352 353
f 324 353 354
f 324 354 326
f 324 326 325
f 326 354 355
f 326 355 327
f 327 355 356
f 327 356 332
f 327 332 331
f 327 331 328
f 328 331 334
f 328 334 329
f 332 356 333
f 333 356 335
f 335 356 357
f 335 357 358
f 335 358 336
f 336 358 359
f 336 359 337
f 337 359 339
f 338 360 344
f 338 343 363
f 338 363 360
f 339 359 361
f 339 361 340
f 340 361 341
f 341 362 342
f 341 361 367
f 341 367 374
f 341 374 372
f 341 372 362
f 342 363 343
f 345 347 364
f 345 364 365
f 345 365 366
f 345 366 348
f 345 348 346
f 348 366 350
f 348 350 349
f 350 366 351
f 351 366 367
f 351 367 368
f 351 368 352
f 352 368 369
f 352 369 353
f 353 369 370
f 353 370 354
f 354 370 355
f 355 370 371
f 355 371 357
f 355 357 356
f 357 371 369
f 357 369 358
f 358 369 368
f 358 368 359
f 359 368 367
f 359 367 361
f 364 373 365
f 365 373 372
f 365 372 374
f 365 374 366
f 366 374 367
f 369 371 370

