# https://github.com/mikedh/trimesh
v -0.01269774 0.00016357 0.00330227
v -0.01264774 0.00016357 0.00348290
v -0.01269774 0.00038734 0.00330227
v -0.01085482 0.00016357 0.00330227
v -0.01264774 0.00038734 0.00348290
v -0.01240409 0.00016357 0.00425687
v -0.01269584 0.00046481 0.00330227
v -0.01016436 0.00458527 0.00330227
v -0.00630701 0.00458483 0.00869087
v -0.00783096 0.00018261 0.00864629
v -0.00773413 0.00018261 0.00889894
v -0.01022764 0.00016357 0.00554071
v -0.01258572 0.00064530 0.00365839
v -0.01264078 0.00064530 0.00348290
v -0.01240409 0.00038734 0.00425687
v -0.01233194 0.00016357 0.00447751
v -0.01233763 0.00038734 0.00446036
v -0.01269014 0.00064530 0.00330227
v -0.00914860 0.00458527 0.00554071
v -0.01184906 0.00458527 0.00330227
v -0.00623296 0.00458483 0.00889894
v -0.00626144 0.00458483 0.00899669
v -0.00781134 0.00018261 0.00904642
v -0.00783160 0.00018261 0.00908471
v -0.00805753 0.00018261 0.00914188
v -0.01188830 0.00016357 0.00554071
v -0.01257812 0.00084742 0.00363552
v -0.01239586 0.00064530 0.00425687
v -0.01261167 0.00092144 0.00350634
v -0.01266862 0.00090802 0.00330227
v -0.01233447 0.00064530 0.00444950
v -0.01229460 0.00016357 0.00458955
v -0.01229460 0.00038734 0.00458955
v -0.00669686 0.00458483 0.00914188
v -0.00651016 0.00458483 0.00912701
v -0.00643422 0.00458483 0.00911387
v -0.00630511 0.00458483 0.00907328
v -0.01096873 0.00458527 0.00554071
v -0.01187754 0.00451169 0.00330227
v -0.01181678 0.00458527 0.00341660
v -0.00908911 0.00018261 0.00914188
v -0.01107442 0.00018261 0.00704291
v -0.01119973 0.00018261 0.00683599
v -0.01127694 0.00018261 0.00669937
v -0.01163262 0.00018261 0.00606259
v -0.01175033 0.00018261 0.00584024
v -0.01181362 0.00018261 0.00571105
v -0.01188830 0.00038734 0.00554071
v -0.01221992 0.00016357 0.00477246
v -0.00929353 0.00018261 0.00911787
v -0.00934669 0.00018261 0.00911101
v -0.00947136 0.00018261 0.00906642
v -0.00950301 0.00018261 0.00905442
v -0.00960553 0.00018261 0.00894067
v -0.00963211 0.00018261 0.00891094
v -0.00998462 0.00018261 0.00850395
v -0.01022448 0.00018261 0.00822615
v -0.01030802 0.00018261 0.00812326
v -0.01032890 0.00018261 0.00809697
v -0.01043143 0.00018261 0.00796149
v -0.01045801 0.00018261 0.00792605
v -0.01054851 0.00018261 0.00779744
v -0.01096114 0.00018261 0.00720868
v -0.01098709 0.00018261 0.00717152
v -0.01105670 0.00018261 0.00706921
v -0.01237561 0.00090326 0.00425687
v -0.01254965 0.00141918 0.00354406
v -0.01260344 0.00116122 0.00345604
v -0.01231612 0.00106124 0.00439463
v -0.01266103 0.00098982 0.00330227
v -0.01229017 0.00064530 0.00457811
v -0.01228004 0.00090326 0.00454725
v -0.01232371 0.00090326 0.00441863
v -0.01221992 0.00038734 0.00477246
v -0.01221169 0.00064530 0.00477246
v -0.00779932 0.00458483 0.00914188
v -0.01096873 0.00458483 0.00554128
v -0.01094089 0.00458483 0.00559844
v -0.01083900 0.00458483 0.00580251
v -0.01082317 0.00458483 0.00583223
v -0.01079849 0.00458483 0.00587853
v -0.01076748 0.00458483 0.00593627
v -0.01068711 0.00458483 0.00606888
v -0.01055484 0.00458483 0.00628667
v -0.01033776 0.00458483 0.00664335
v -0.01019473 0.00458483 0.00687771
v -0.01015929 0.00458483 0.00693259
v -0.01005867 0.00458483 0.00707606
v -0.00997070 0.00458483 0.00719553
v -0.00970046 0.00458483 0.00754936
v -0.00951503 0.00458483 0.00779001
v -0.00940997 0.00458483 0.00792205
v -0.00936694 0.00458483 0.00797521
v -0.00927201 0.00458483 0.00808611
v -0.00916695 0.00458483 0.00820214
v -0.00914670 0.00458483 0.00822386
v -0.00904101 0.00458483 0.00833361
v -0.00891380 0.00458483 0.00846451
v -0.00889861 0.00458483 0.00847995
v -0.00848978 0.00458483 0.00889437
v -0.00840118 0.00458483 0.00898411
v -0.00838915 0.00458483 0.00899440
v -0.00828473 0.00458483 0.00906928
v -0.00824802 0.00458483 0.00908014
v -0.00806386 0.00458483 0.00912644
v -0.00798665 0.00458483 0.00913902
v -0.01132504 0.00458527 0.00478275
v -0.01183260 0.00450649 0.00346690
v -0.01197437 0.00424290 0.00330227
v -0.01191994 0.00425589 0.00348290
v -0.01180982 0.00441560 0.00364981
v -0.01177248 0.00458527 0.00354864
v -0.00908911 0.00141918 0.00914188
v -0.01107442 0.00038734 0.00704291
v -0.01119973 0.00038734 0.00683599
v -0.01127694 0.00038734 0.00669937
v -0.01163262 0.00038734 0.00606259
v -0.01175033 0.00038734 0.00584024
v -0.01181362 0.00038734 0.00571105
v -0.01198892 0.00064530 0.00528863
v -0.01188007 0.00063967 0.00554071
v -0.00934669 0.00038734 0.00911044
v -0.00950237 0.00038734 0.00905385
v -0.00963085 0.00038734 0.00891094
v -0.01022448 0.00038734 0.00822615
v -0.01032890 0.00038734 0.00809697
v -0.01045801 0.00038734 0.00792605
v -0.01054851 0.00038734 0.00779744
v -0.01098709 0.00038734 0.00717152
v -0.01237940 0.00167714 0.00399907
v -0.01254332 0.00170181 0.00347319
v -0.01257939 0.00163256 0.00338115
v -0.01223891 0.00141918 0.00451409
v -0.01221233 0.00167714 0.00451409
v -0.01230726 0.00123307 0.00436776
v -0.01257053 0.00180482 0.00335315
v -0.01258698 0.00175462 0.00330227
v -0.01219081 0.00090326 0.00477246
v -0.01213891 0.00141918 0.00477246
v -0.00805753 0.00425589 0.00914188
v -0.01099975 0.00451255 0.00554128
v -0.01101240 0.00436020 0.00565275
v -0.01104848 0.00418794 0.00572591
v -0.01097127 0.00426714 0.00580880
v -0.01100354 0.00407151 0.00589797
v -0.01079470 0.00445499 0.00598257
v -0.01083140 0.00425026 0.00606602
v -0.01077951 0.00416067 0.00621521
v -0.01034346 0.00427190 0.00685485
v -0.01028966 0.00451385 0.00677311
v -0.01024157 0.00436842 0.00695317
v -0.01027827 0.00419616 0.00700518
v -0.01021499 0.00404597 0.00717724
v -0.00970299 0.00431389 0.00769855
v -0.00967388 0.00453766 0.00761109
v -0.00953085 0.00451385 0.00781116
v -0.00943149 0.00451385 0.00794034
v -0.00928593 0.00448875 0.00812440
v -0.00917518 0.00455800 0.00820957
v -0.00896570 0.00439482 0.00851825
v -0.00891887 0.00456709 0.00846966
v -0.00840498 0.00457098 0.00898811
v -0.00845244 0.00439872 0.00903498
v -0.00848978 0.00425589 0.00906071
v -0.00831574 0.00425589 0.00911730
v -0.00805753 0.00451385 0.00913787
v -0.00831574 0.00399793 0.00914073
v -0.01133706 0.00458527 0.00475589
v -0.01135099 0.00452251 0.00478275
v -0.01130542 0.00444243 0.00495366
v -0.01109594 0.00426714 0.00555900
v -0.01202563 0.00409185 0.00330227
v -0.01206487 0.00390054 0.00338344
v -0.01178071 0.00407497 0.00407852
v -0.01180919 0.00416413 0.00390647
v -0.01178071 0.00433639 0.00382187
v -0.01154971 0.00440954 0.00441463
v -0.01151300 0.00458180 0.00430946
v -0.01155541 0.00458527 0.00418141
v -0.00883153 0.00245016 0.00914188
v -0.00908911 0.00167714 0.00914016
v -0.01106936 0.00064530 0.00703434
v -0.01127188 0.00064530 0.00669023
v -0.01118897 0.00064530 0.00683599
v -0.01162312 0.00064530 0.00606259
v -0.01174590 0.00064530 0.00583052
v -0.01180855 0.00064530 0.00570133
v -0.01187944 0.00064530 0.00554128
v -0.01180223 0.00082535 0.00568647
v -0.00934669 0.00064530 0.00910415
v -0.00929922 0.00167714 0.00908357
v -0.00949478 0.00064530 0.00904699
v -0.00973970 0.00057821 0.00877719
v -0.01021815 0.00064530 0.00821815
v -0.01032257 0.00064530 0.00808954
v -0.01045168 0.00064530 0.00791748
v -0.01076685 0.00053666 0.00748305
v -0.01098139 0.00064530 0.00716352
v -0.01229776 0.00141918 0.00433804
v -0.01232561 0.00167714 0.00416770
v -0.01231675 0.00182993 0.00414083
v -0.01228447 0.00167714 0.00429631
v -0.01210347 0.00168017 0.00479304
v -0.01209335 0.00193554 0.00473131
v -0.01217562 0.00193554 0.00451409
v -0.01250851 0.00193554 0.00348290
v -0.01256040 0.00193554 0.00330799
v -0.01256167 0.00193554 0.00330227
v -0.01196740 0.00090326 0.00528863
v -0.01184336 0.00104695 0.00554128
v -0.00857395 0.00322404 0.00914188
v -0.01130036 0.00417452 0.00520117
v -0.01126049 0.00406328 0.00537323
v -0.01121366 0.00398581 0.00552985
v -0.01107696 0.00399014 0.00580880
v -0.01103329 0.00389924 0.00595113
v -0.01076052 0.00385510 0.00644100
v -0.01048649 0.00380792 0.00693259
v -0.01053775 0.00394556 0.00676053
v -0.01045864 0.00401784 0.00684227
v -0.01030738 0.00397499 0.00709264
v -0.01025106 0.00387371 0.00722583
v -0.00971059 0.00381658 0.00796721
v -0.00946503 0.00436193 0.00798322
v -0.00921885 0.00438574 0.00825473
v -0.00881381 0.00448225 0.00862342
v -0.00866888 0.00404900 0.00899268
v -0.00861825 0.00425589 0.00894181
v -0.00870939 0.00439656 0.00877662
v -0.00870622 0.00387674 0.00903098
v -0.00873533 0.00373997 0.00905385
v -0.00878786 0.00348201 0.00907957
v -0.00857902 0.00397672 0.00907443
v -0.00857395 0.00373997 0.00911044
v -0.00857395 0.00348201 0.00913616
v -0.00883153 0.00270812 0.00913959
v -0.01140921 0.00458527 0.00458497
v -0.01151743 0.00432860 0.00458669
v -0.01147250 0.00424810 0.00476103
v -0.01122568 0.00425892 0.00528749
v -0.01204335 0.00403645 0.00330227
v -0.01211043 0.00381874 0.00330227
v -0.01230599 0.00317946 0.00330227
v -0.01231422 0.00310156 0.00335886
v -0.01216233 0.00348244 0.00348290
v -0.01208512 0.00346945 0.00372984
v -0.01174970 0.00399273 0.00425001
v -0.01166046 0.00425589 0.00425687
v -0.01157629 0.00424810 0.00450609
v -0.01147566 0.00450303 0.00450609
v -0.01143833 0.00458527 0.00451238
v -0.01151174 0.00458527 0.00430774
v -0.00908911 0.00193510 0.00913102
v -0.01105797 0.00090326 0.00701776
v -0.01116619 0.00090326 0.00683599
v -0.01153958 0.00078250 0.00619292
v -0.01159275 0.00088248 0.00607974
v -0.01174527 0.00090802 0.00578536
v -0.01171046 0.00116122 0.00580422
v -0.01168388 0.00141918 0.00580422
v -0.01179337 0.00099718 0.00566761
v -0.01184589 0.00090802 0.00556758
v -0.00927581 0.00193510 0.00907443
v -0.00947579 0.00103310 0.00902812
v -0.00948149 0.00090326 0.00903498
v -0.00964414 0.00065655 0.00887779
v -0.00995108 0.00116122 0.00846623
v -0.01007639 0.00090326 0.00835191
v -0.01020549 0.00090326 0.00820271
v -0.01030992 0.00090326 0.00807353
v -0.01028397 0.00141918 0.00804152
v -0.01043902 0.00090326 0.00789976
v -0.01075925 0.00070849 0.00747219
v -0.01054218 0.00064530 0.00778887
v -0.01096937 0.00090326 0.00714694
v -0.01226928 0.00192385 0.00423858
v -0.01230219 0.00200176 0.00409396
v -0.01180539 0.00141918 0.00554128
v -0.01181488 0.00167714 0.00545840
v -0.01205094 0.00176890 0.00489250
v -0.01180412 0.00184335 0.00543439
v -0.01203702 0.00193554 0.00486049
v -0.01207246 0.00215022 0.00468329
v -0.01211170 0.00221903 0.00454039
v -0.01221169 0.00219350 0.00425687
v -0.01205474 0.00232205 0.00464328
v -0.01246104 0.00219350 0.00348290
v -0.01251167 0.00218701 0.00330227
v -0.01178514 0.00116122 0.00564817
v -0.01154971 0.00415677 0.00466729
v -0.01132441 0.00398581 0.00528749
v -0.01121872 0.00395378 0.00554128
v -0.01125353 0.00373997 0.00561388
v -0.01127631 0.00359497 0.00566475
v -0.01115986 0.00373997 0.00580422
v -0.01105860 0.00373997 0.00599400
v -0.01098329 0.00373997 0.00612318
v -0.01071305 0.00375771 0.00657533
v -0.01125922 0.00328247 0.00589168
v -0.01128580 0.00311065 0.00594141
v -0.01041244 0.00372915 0.00707492
v -0.01056496 0.00372915 0.00684227
v -0.01051497 0.00363609 0.00697660
v -0.01027448 0.00373997 0.00725727
v -0.00998272 0.00358415 0.00772713
v -0.00974729 0.00364475 0.00801351
v -0.00950237 0.00418967 0.00802837
v -0.00888279 0.00376377 0.00889551
v -0.00943023 0.00399793 0.00820443
v -0.00946377 0.00384125 0.00824158
v -0.00903974 0.00348201 0.00885550
v -0.00891697 0.00348201 0.00898411
v -0.00894798 0.00332662 0.00901841
v -0.00898026 0.00315436 0.00904585
v -0.00901000 0.00296608 0.00906814
v -0.00883153 0.00296608 0.00912416
v -0.01232118 0.00312536 0.00330227
v -0.01233890 0.00304442 0.00330227
v -0.01232814 0.00296608 0.00340288
v -0.01228700 0.00296608 0.00353149
v -0.01207499 0.00296608 0.00419056
v -0.01205917 0.00311065 0.00414197
v -0.01225346 0.00320197 0.00346004
v -0.01203322 0.00328247 0.00406195
v -0.01190665 0.00348244 0.00425687
v -0.01165730 0.00399793 0.00451409
v -0.01180602 0.00363998 0.00441177
v -0.00908911 0.00219306 0.00911272
v -0.01104531 0.00116122 0.00699890
v -0.01111366 0.00141918 0.00683599
v -0.01131934 0.00116122 0.00651703
v -0.01103265 0.00141918 0.00697889
v -0.01102506 0.00156071 0.00696746
v -0.01150731 0.00141918 0.00613576
v -0.01159275 0.00116122 0.00603001
v -0.01157945 0.00141918 0.00600658
v -0.01156553 0.00167714 0.00598085
v -0.01165667 0.00167714 0.00580422
v -0.00924922 0.00219306 0.00905613
v -0.00944731 0.00141918 0.00900297
v -0.00946314 0.00120493 0.00901841
v -0.00904734 0.00270812 0.00908300
v -0.00956566 0.00141918 0.00887379
v -0.00955996 0.00113568 0.00891895
v -0.01004981 0.00141918 0.00832104
v -0.01006310 0.00116122 0.00833704
v -0.01019220 0.00116122 0.00818671
v -0.01042763 0.00140533 0.00784317
v -0.01017891 0.00141918 0.00817013
v -0.01026435 0.00167714 0.00801694
v -0.01050041 0.00148281 0.00772885
v -0.01050927 0.00131054 0.00774142
v -0.01081431 0.00141918 0.00729271
v -0.01094342 0.00141918 0.00710808
v -0.01232941 0.00214589 0.00392190
v -0.01175856 0.00167714 0.00558758
v -0.01177881 0.00167714 0.00554128
v -0.01160287 0.00194722 0.00582480
v -0.01174400 0.00193164 0.00553099
v -0.01191867 0.00270812 0.00477246
v -0.01168768 0.00218657 0.00554128
v -0.01208638 0.00245016 0.00447694
v -0.01206677 0.00263800 0.00442149
v -0.01204905 0.00281027 0.00436890
v -0.01185412 0.00297431 0.00478904
v -0.01196614 0.00296608 0.00451409
v -0.01201993 0.00271764 0.00451009
v -0.01177564 0.00354217 0.00458383
v -0.01180223 0.00337034 0.00465528
v -0.01157502 0.00399793 0.00472388
v -0.01153769 0.00386505 0.00489879
v -0.01176678 0.00322448 0.00483477
v -0.01144845 0.00322188 0.00554128
v -0.01130289 0.00342314 0.00571963
v -0.01119720 0.00320760 0.00604202
v -0.01081368 0.00294487 0.00683656
v -0.01132567 0.00320760 0.00580537
v -0.01139592 0.00296608 0.00580422
v -0.01130605 0.00296608 0.00597742
v -0.01103962 0.00289164 0.00647759
v -0.01076748 0.00284489 0.00696803
v -0.01044598 0.00348201 0.00713951
v -0.01031688 0.00348201 0.00731557
v -0.01000994 0.00341232 0.00776372
v -0.00994475 0.00322404 0.00793291
v -0.00991627 0.00349196 0.00785689
v -0.00977451 0.00348201 0.00804724
v -0.00966376 0.00348201 0.00817642
v -0.00949984 0.00366898 0.00828045
v -0.00960553 0.00374300 0.00812783
v -0.00920239 0.00330412 0.00875375
v -0.00909101 0.00322967 0.00890065
v -0.00913847 0.00296608 0.00894067
v -0.00920176 0.00253586 0.00901441
v -0.00922961 0.00236489 0.00903956
v -0.01203322 0.00296608 0.00431917
v -0.01189842 0.00322448 0.00451409
v -0.01199778 0.00320760 0.00423915
v -0.01079723 0.00167714 0.00726813
v -0.01093836 0.00165896 0.00706978
v -0.01101177 0.00173254 0.00694516
v -0.01128137 0.00181088 0.00645072
v -0.01155161 0.00186931 0.00595627
v -0.00940491 0.00193510 0.00894753
v -0.00942769 0.00167714 0.00897725
v -0.00954414 0.00167714 0.00884807
v -0.00978717 0.00167714 0.00857312
v -0.01002955 0.00167714 0.00829817
v -0.00969477 0.00141918 0.00872688
v -0.01015866 0.00167714 0.00814555
v -0.01025106 0.00181608 0.00799922
v -0.01037194 0.00167714 0.00786718
v -0.01048522 0.00167714 0.00770770
v -0.01153389 0.00204114 0.00592426
v -0.01151870 0.00219306 0.00589397
v -0.01158262 0.00219306 0.00576478
v -0.01154212 0.00259299 0.00568133
v -0.01180982 0.00289423 0.00493080
v -0.01158389 0.00269167 0.00554128
v -0.01152439 0.00276482 0.00564189
v -0.01179020 0.00306650 0.00488678
v -0.01182501 0.00322448 0.00470558
v -0.01154085 0.00310026 0.00542067
v -0.01147313 0.00313661 0.00554128
v -0.01149971 0.00296608 0.00558873
v -0.01147187 0.00269081 0.00578250
v -0.01133706 0.00270812 0.00603173
v -0.01106050 0.00270812 0.00651531
v -0.01098645 0.00270812 0.00664450
v -0.01087570 0.00270812 0.00683599
v -0.01078330 0.00270812 0.00699204
v -0.01069217 0.00270812 0.00712122
v -0.01025929 0.00261766 0.00775343
v -0.01016436 0.00270552 0.00785003
v -0.01053332 0.00292237 0.00725898
v -0.01048649 0.00322404 0.00719439
v -0.01020866 0.00296608 0.00768312
v -0.01006753 0.00295786 0.00787861
v -0.00997323 0.00303880 0.00797235
v -0.00970616 0.00322404 0.00822386
v -0.01000044 0.00286653 0.00800779
v -0.00981564 0.00322404 0.00809468
v -0.00945238 0.00327815 0.00848681
v -0.00953465 0.00348201 0.00831932
v -0.00922961 0.00313229 0.00878290
v -0.00967008 0.00270812 0.00844279
v -0.00929542 0.00270812 0.00885607
v -0.00934289 0.00243241 0.00889322
v -0.00970616 0.00245016 0.00848166
v -0.00947706 0.00232984 0.00877261
v -0.00937833 0.00219306 0.00891723
v -0.01077951 0.00187711 0.00724298
v -0.01085229 0.00195198 0.00711722
v -0.01081052 0.00245016 0.00703205
v -0.01099215 0.00193510 0.00691201
v -0.01106683 0.00193510 0.00678340
v -0.01142503 0.00219306 0.00606259
v -0.00972514 0.00228266 0.00850338
v -0.01000804 0.00188966 0.00827360
v -0.00997703 0.00219306 0.00823816
v -0.01005677 0.00245016 0.00807810
v -0.01018587 0.00245016 0.00790833
v -0.01030485 0.00219306 0.00781630
v -0.01043396 0.00219306 0.00763625
v -0.01069660 0.00195198 0.00733786
v -0.01155794 0.00296608 0.00545954
v -0.01102569 0.00233503 0.00671195
v -0.01100797 0.00250643 0.00668051
v -0.01094722 0.00243198 0.00681312
v -0.01072065 0.00245016 0.00716066
v -0.01049345 0.00251205 0.00746133
v -0.01002449 0.00270812 0.00803809
v -0.01023524 0.00278949 0.00771970
v -0.00991564 0.00270812 0.00816727
v -0.00972831 0.00308078 0.00824959
v -0.00975552 0.00290895 0.00827874
v -0.00978653 0.00270812 0.00831361
v -0.00945491 0.00250123 0.00874746
v -0.00982134 0.00245016 0.00835248
v -0.00994981 0.00245016 0.00820729
v -0.01074723 0.00219306 0.00719782
v -0.01057762 0.00243544 0.00736587
f 1 2 5
f 1 5 3
f 1 3 7
f 1 7 18
f 1 18 30
f 1 30 70
f 1 70 137
f 1 137 208
f 1 208 288
f 1 288 318
f 1 318 317
f 1 317 243
f 1 243 242
f 1 242 241
f 1 241 172
f 1 172 109
f 1 109 39
f 1 39 20
f 1 20 8
f 1 8 4
f 1 4 12
f 1 12 26
f 1 26 49
f 1 49 32
f 1 32 16
f 1 16 6
f 1 6 2
f 2 6 15
f 2 15 5
f 3 5 7
f 4 8 9
f 4 9 10
f 4 10 11
f 4 11 12
f 5 13 14
f 5 14 7
f 5 15 13
f 6 16 17
f 6 17 15
f 7 14 18
f 8 19 9
f 8 20 40
f 8 40 112
f 8 112 179
f 8 179 252
f 8 252 251
f 8 251 237
f 8 237 168
f 8 168 107
f 8 107 38
f 8 38 19
f 9 21 11
f 9 11 10
f 9 19 21
f 11 21 22
f 11 22 23
f 11 23 12
f 12 23 24
f 12 24 25
f 12 25 41
f 12 41 26
f 13 27 14
f 13 15 28
f 13 28 27
f 14 27 29
f 14 29 30
f 14 30 18
f 15 17 31
f 15 31 28
f 16 32 33
f 16 33 17
f 17 33 31
f 19 34 35
f 19 35 36
f 19 36 37
f 19 37 22
f 19 22 21
f 19 38 76
f 19 76 34
f 20 39 40
f 22 37 24
f 22 24 23
f 24 37 36
f 24 36 25
f 25 36 35
f 25 35 34
f 25 34 76
f 25 76 140
f 25 140 211
f 25 211 180
f 25 180 113
f 25 113 41
f 26 42 43
f 26 43 44
f 26 44 45
f 26 45 46
f 26 46 47
f 26 47 119
f 26 119 48
f 26 48 74
f 26 74 49
f 26 41 50
f 26 50 51
f 26 51 52
f 26 52 53
f 26 53 54
f 26 54 55
f 26 55 56
f 26 56 57
f 26 57 58
f 26 58 59
f 26 59 60
f 26 60 61
f 26 61 62
f 26 62 63
f 26 63 64
f 26 64 65
f 26 65 42
f 27 28 31
f 27 31 66
f 27 66 29
f 29 67 68
f 29 68 30
f 29 66 69
f 29 69 67
f 30 68 70
f 31 33 71
f 31 71 72
f 31 72 73
f 31 73 66
f 32 49 74
f 32 74 33
f 33 74 75
f 33 75 71
f 38 77 78
f 38 78 79
f 38 79 80
f 38 80 81
f 38 81 82
f 38 82 83
f 38 83 84
f 38 84 85
f 38 85 86
f 38 86 87
f 38 87 88
f 38 88 89
f 38 89 90
f 38 90 91
f 38 91 92
f 38 92 93
f 38 93 94
f 38 94 95
f 38 95 96
f 38 96 97
f 38 97 98
f 38 98 99
f 38 99 100
f 38 100 101
f 38 101 102
f 38 102 103
f 38 103 104
f 38 104 105
f 38 105 106
f 38 106 76
f 38 107 77
f 39 108 40
f 39 109 110
f 39 110 108
f 40 108 111
f 40 111 112
f 41 113 50
f 42 114 115
f 42 115 43
f 42 65 114
f 43 115 116
f 43 116 44
f 44 116 117
f 44 117 45
f 45 117 118
f 45 118 46
f 46 118 119
f 46 119 47
f 48 120 74
f 48 119 121
f 48 121 120
f 50 113 51
f 51 113 122
f 51 122 52
f 52 122 123
f 52 123 53
f 53 123 54
f 54 123 124
f 54 124 55
f 55 124 125
f 55 125 56
f 56 125 57
f 57 125 58
f 58 125 126
f 58 126 59
f 59 126 60
f 60 126 127
f 60 127 61
f 61 127 128
f 61 128 62
f 62 128 63
f 63 128 129
f 63 129 64
f 64 129 65
f 65 129 114
f 66 73 69
f 67 130 131
f 67 131 132
f 67 132 68
f 67 69 130
f 68 132 70
f 69 73 72
f 69 72 133
f 69 133 134
f 69 134 135
f 69 135 130
f 70 132 136
f 70 136 137
f 71 75 138
f 71 138 72
f 72 138 139
f 72 139 134
f 72 134 133
f 74 120 75
f 75 120 138
f 76 106 140
f 77 107 141
f 77 141 142
f 77 142 78
f 78 142 79
f 79 142 143
f 79 143 144
f 79 144 80
f 80 144 81
f 81 144 82
f 82 144 145
f 82 145 146
f 82 146 147
f 82 147 148
f 82 148 83
f 83 148 84
f 84 148 149
f 84 149 150
f 84 150 85
f 85 150 86
f 86 150 151
f 86 151 87
f 87 151 88
f 88 151 152
f 88 152 89
f 89 152 153
f 89 153 154
f 89 154 155
f 89 155 90
f 90 155 156
f 90 156 157
f 90 157 91
f 91 157 92
f 92 157 93
f 93 157 94
f 94 157 158
f 94 158 159
f 94 159 95
f 95 159 96
f 96 159 97
f 97 159 160
f 97 160 161
f 97 161 98
f 98 161 99
f 99 161 100
f 100 161 162
f 100 162 101
f 101 162 102
f 102 162 163
f 102 163 103
f 103 163 164
f 103 164 165
f 103 165 104
f 104 165 105
f 105 165 166
f 105 166 106
f 106 166 167
f 106 167 140
f 107 168 169
f 107 169 170
f 107 170 171
f 107 171 142
f 107 142 141
f 108 110 111
f 109 172 110
f 110 172 173
f 110 173 174
f 110 174 175
f 110 175 176
f 110 176 111
f 111 176 177
f 111 177 178
f 111 178 112
f 112 178 179
f 113 180 181
f 113 181 122
f 114 129 182
f 114 182 115
f 115 183 116
f 115 182 184
f 115 184 183
f 116 183 185
f 116 185 117
f 117 185 118
f 118 185 186
f 118 186 119
f 119 186 187
f 119 187 121
f 120 121 188
f 120 188 189
f 120 189 138
f 121 187 188
f 122 190 123
f 122 181 190
f 123 190 191
f 123 191 192
f 123 192 124
f 124 192 193
f 124 193 125
f 125 194 195
f 125 195 126
f 125 193 194
f 126 195 127
f 127 195 196
f 127 196 197
f 127 197 128
f 128 197 129
f 129 197 198
f 129 198 182
f 130 136 131
f 130 135 199
f 130 199 200
f 130 200 201
f 130 201 136
f 131 136 132
f 134 202 199
f 134 199 135
f 134 139 203
f 134 203 204
f 134 204 205
f 134 205 201
f 134 201 202
f 136 201 206
f 136 206 207
f 136 207 208
f 136 208 137
f 138 189 209
f 138 209 139
f 139 209 210
f 139 210 203
f 140 167 211
f 142 171 143
f 143 145 144
f 143 171 212
f 143 212 213
f 143 213 214
f 143 214 215
f 143 215 145
f 145 215 216
f 145 216 217
f 145 217 218
f 145 218 219
f 145 219 148
f 145 148 147
f 145 147 146
f 148 219 220
f 148 220 149
f 149 220 151
f 149 151 150
f 151 220 218
f 151 218 152
f 152 218 221
f 152 221 153
f 153 221 222
f 153 222 223
f 153 223 154
f 154 223 224
f 154 224 155
f 155 224 156
f 156 224 157
f 157 224 158
f 158 224 225
f 158 225 159
f 159 225 160
f 160 226 161
f 160 225 227
f 160 227 228
f 160 228 229
f 160 229 162
f 160 162 226
f 161 226 162
f 162 229 163
f 163 229 228
f 163 228 227
f 163 227 230
f 163 230 164
f 164 230 231
f 164 231 232
f 164 232 233
f 164 233 165
f 165 167 166
f 165 233 234
f 165 234 235
f 165 235 167
f 167 235 236
f 167 236 211
f 168 237 238
f 168 238 169
f 169 239 170
f 169 238 239
f 170 239 212
f 170 212 240
f 170 240 171
f 171 240 212
f 172 241 173
f 173 241 242
f 173 242 243
f 173 243 244
f 173 244 245
f 173 245 246
f 173 246 174
f 174 247 248
f 174 248 176
f 174 176 175
f 174 246 247
f 176 248 177
f 177 248 249
f 177 249 238
f 177 238 250
f 177 250 251
f 177 251 178
f 178 252 179
f 178 251 252
f 180 236 181
f 180 211 236
f 181 236 253
f 181 253 191
f 181 191 190
f 182 198 254
f 182 254 184
f 183 184 255
f 183 255 256
f 183 256 185
f 184 254 255
f 185 256 257
f 185 257 186
f 186 257 258
f 186 258 189
f 186 189 187
f 187 189 188
f 189 258 259
f 189 259 260
f 189 260 261
f 189 261 262
f 189 262 209
f 191 263 264
f 191 264 265
f 191 265 192
f 191 253 263
f 192 265 264
f 192 264 266
f 192 266 193
f 193 266 264
f 193 264 267
f 193 267 268
f 193 268 194
f 194 268 269
f 194 269 195
f 195 270 196
f 195 269 270
f 196 270 271
f 196 271 272
f 196 272 273
f 196 273 274
f 196 274 197
f 197 274 273
f 197 273 198
f 198 273 275
f 198 275 254
f 199 202 200
f 200 202 201
f 201 205 276
f 201 276 277
f 201 277 206
f 203 210 278
f 203 278 279
f 203 279 280
f 203 280 204
f 204 280 281
f 204 281 282
f 204 282 283
f 204 283 205
f 205 284 285
f 205 285 276
f 205 283 286
f 205 286 284
f 206 287 207
f 206 277 287
f 207 287 244
f 207 244 288
f 207 288 208
f 209 262 210
f 210 262 261
f 210 261 289
f 210 289 278
f 212 239 290
f 212 290 213
f 213 290 291
f 213 291 292
f 213 292 214
f 214 292 215
f 215 292 293
f 215 293 294
f 215 294 295
f 215 295 216
f 216 296 297
f 216 297 298
f 216 298 217
f 216 295 299
f 216 299 300
f 216 300 296
f 217 298 218
f 218 301 222
f 218 222 221
f 218 220 219
f 218 298 302
f 218 302 303
f 218 303 301
f 222 301 304
f 222 304 305
f 222 305 306
f 222 306 223
f 223 306 224
f 224 306 307
f 224 307 225
f 225 308 227
f 225 307 309
f 225 309 310
f 225 310 308
f 227 308 230
f 230 308 311
f 230 311 312
f 230 312 313
f 230 313 231
f 231 313 314
f 231 314 232
f 232 314 315
f 232 315 316
f 232 316 234
f 232 234 233
f 234 316 235
f 235 316 236
f 236 316 253
f 237 251 238
f 238 249 290
f 238 290 239
f 238 251 250
f 243 317 244
f 244 317 318
f 244 318 288
f 244 287 319
f 244 319 320
f 244 320 321
f 244 321 322
f 244 322 323
f 244 323 245
f 245 323 322
f 245 322 324
f 245 324 246
f 246 324 325
f 246 325 247
f 247 326 248
f 247 325 327
f 247 327 326
f 248 326 249
f 249 326 290
f 253 316 328
f 253 328 263
f 254 275 329
f 254 329 255
f 255 330 331
f 255 331 256
f 255 329 332
f 255 332 333
f 255 333 330
f 256 334 335
f 256 335 257
f 256 331 334
f 257 335 258
f 258 335 259
f 259 335 336
f 259 336 260
f 260 336 337
f 260 337 338
f 260 338 261
f 261 338 289
f 263 339 340
f 263 340 341
f 263 341 264
f 263 328 342
f 263 342 339
f 264 341 343
f 264 343 344
f 264 344 267
f 267 345 346
f 267 346 268
f 267 344 345
f 268 346 269
f 269 346 345
f 269 345 347
f 269 347 271
f 269 271 270
f 271 348 272
f 271 347 349
f 271 349 350
f 271 350 351
f 271 351 348
f 272 348 352
f 272 352 275
f 272 275 273
f 275 352 353
f 275 353 354
f 275 354 329
f 276 285 277
f 277 355 287
f 277 285 355
f 278 289 356
f 278 356 357
f 278 357 279
f 279 357 280
f 280 357 356
f 280 356 281
f 281 283 282
f 281 356 338
f 281 338 358
f 281 358 359
f 281 359 283
f 283 360 286
f 283 359 361
f 283 361 360
f 284 286 362
f 284 362 285
f 285 362 363
f 285 363 364
f 285 364 321
f 285 321 355
f 286 360 365
f 286 365 366
f 286 366 367
f 286 367 362
f 287 355 321
f 287 321 320
f 287 320 319
f 289 338 356
f 290 326 368
f 290 368 369
f 290 369 370
f 290 370 291
f 291 294 293
f 291 293 292
f 291 370 371
f 291 371 294
f 294 371 372
f 294 372 373
f 294 373 374
f 294 374 295
f 295 374 299
f 296 300 375
f 296 375 297
f 297 375 298
f 298 376 302
f 298 375 376
f 299 374 377
f 299 377 300
f 300 377 378
f 300 378 379
f 300 379 380
f 300 380 381
f 300 381 376
f 300 376 375
f 301 305 304
f 301 303 305
f 302 376 303
f 303 376 381
f 303 381 382
f 303 382 305
f 305 382 383
f 305 383 384
f 305 384 385
f 305 385 386
f 305 386 306
f 306 386 387
f 306 387 388
f 306 388 389
f 306 389 390
f 306 390 309
f 306 309 307
f 308 310 311
f 309 390 310
f 310 390 389
f 310 389 311
f 311 391 313
f 311 313 312
f 311 389 391
f 313 391 392
f 313 392 314
f 314 392 393
f 314 393 394
f 314 394 395
f 314 395 315
f 315 395 339
f 315 339 342
f 315 342 316
f 316 342 328
f 321 364 396
f 321 396 322
f 322 396 366
f 322 366 397
f 322 397 398
f 322 398 324
f 324 398 325
f 325 398 327
f 326 327 368
f 327 398 397
f 327 397 368
f 329 354 332
f 330 334 331
f 330 333 334
f 332 354 333
f 333 354 353
f 333 353 351
f 333 351 399
f 333 399 400
f 333 400 401
f 333 401 402
f 333 402 337
f 333 337 334
f 334 337 336
f 334 336 335
f 337 402 403
f 337 403 338
f 338 403 358
f 339 404 405
f 339 405 340
f 339 395 404
f 340 405 343
f 340 343 341
f 343 405 406
f 343 406 407
f 343 407 408
f 343 408 409
f 343 409 344
f 344 409 345
f 345 409 408
f 345 408 349
f 345 349 347
f 348 351 352
f 349 408 410
f 349 410 350
f 350 411 412
f 350 412 351
f 350 410 411
f 351 353 352
f 351 412 413
f 351 413 399
f 358 403 414
f 358 414 415
f 358 415 416
f 358 416 359
f 359 416 417
f 359 417 361
f 360 418 365
f 360 361 419
f 360 419 420
f 360 420 418
f 361 417 420
f 361 420 419
f 362 367 363
f 363 367 364
f 364 367 366
f 364 366 396
f 365 418 421
f 365 421 422
f 365 422 366
f 366 422 397
f 368 397 369
f 369 397 422
f 369 422 372
f 369 372 371
f 369 371 370
f 372 423 373
f 372 422 423
f 373 377 374
f 373 423 424
f 373 424 425
f 373 425 377
f 377 425 378
f 378 426 379
f 378 425 420
f 378 420 426
f 379 426 427
f 379 427 380
f 380 428 429
f 380 429 381
f 380 427 428
f 381 429 430
f 381 430 431
f 381 431 432
f 381 432 433
f 381 433 434
f 381 434 435
f 381 435 436
f 381 436 382
f 382 436 383
f 383 436 385
f 383 385 384
f 385 387 386
f 385 436 437
f 385 437 438
f 385 438 439
f 385 439 387
f 387 440 388
f 387 439 441
f 387 441 442
f 387 442 440
f 388 440 443
f 388 443 444
f 388 444 389
f 389 444 391
f 391 445 393
f 391 393 392
f 391 444 443
f 391 443 445
f 393 445 446
f 393 446 447
f 393 447 394
f 394 447 395
f 395 447 448
f 395 448 449
f 395 449 450
f 395 450 451
f 395 451 404
f 399 413 452
f 399 452 400
f 400 452 401
f 401 452 453
f 401 453 454
f 401 454 455
f 401 455 456
f 401 456 402
f 402 456 403
f 403 456 457
f 403 457 427
f 403 427 414
f 404 451 458
f 404 458 459
f 404 459 408
f 404 408 407
f 404 407 406
f 404 406 405
f 408 459 410
f 410 459 460
f 410 460 461
f 410 461 411
f 411 461 462
f 411 462 463
f 411 463 464
f 411 464 465
f 411 465 452
f 411 452 412
f 412 452 413
f 414 427 415
f 415 417 416
f 415 427 426
f 415 426 417
f 417 426 420
f 418 420 421
f 420 425 466
f 420 466 421
f 421 466 425
f 421 425 423
f 421 423 422
f 423 425 424
f 427 457 467
f 427 467 428
f 428 467 468
f 428 468 429
f 429 469 430
f 429 468 469
f 430 469 431
f 431 454 470
f 431 470 432
f 431 469 455
f 431 455 454
f 432 470 471
f 432 471 433
f 433 471 462
f 433 462 472
f 433 472 434
f 434 472 441
f 434 441 473
f 434 473 435
f 435 473 441
f 435 441 437
f 435 437 436
f 437 441 438
f 438 441 439
f 440 442 474
f 440 474 475
f 440 475 443
f 441 472 442
f 442 472 474
f 443 475 446
f 443 446 445
f 446 475 476
f 446 476 477
f 446 477 478
f 446 478 447
f 447 478 448
f 448 478 449
f 449 477 479
f 449 479 450
f 449 478 477
f 450 479 480
f 450 480 458
f 450 458 451
f 452 465 481
f 452 481 453
f 453 481 454
f 454 481 470
f 455 469 456
f 456 469 467
f 456 467 457
f 458 480 460
f 458 460 459
f 460 480 461
f 461 480 472
f 461 472 462
f 462 471 464
f 462 464 463
f 464 471 482
f 464 482 465
f 465 482 481
f 467 469 468
f 470 482 471
f 470 481 482
f 472 480 474
f 474 477 476
f 474 476 475
f 474 480 477
f 477 480 479

