# https://github.com/mikedh/trimesh
v -0.00378894 -0.00735083 0.00914188
v -0.00378894 -0.00812455 0.00914188
v -0.00378894 -0.00709443 0.00913984
v -0.00380998 -0.00709443 0.00914188
v -0.00406756 -0.00812455 0.00914188
v -0.00378894 -0.00838264 0.00913984
v -0.00378894 -0.00683634 0.00908371
v -0.00664750 -0.00430001 0.00911942
v -0.00664750 -0.00451519 0.00914188
v -0.00509954 -0.00760893 0.00914188
v -0.00432597 -0.00812455 0.00914085
v -0.00380998 -0.00838264 0.00913984
v -0.00378894 -0.00861193 0.00908269
v -0.00378894 -0.00673694 0.00889798
v -0.00390089 -0.00668950 0.00904799
v -0.00646232 -0.00430001 0.00906228
v -0.00690508 -0.00430001 0.00914188
v -0.00613151 -0.00683747 0.00914188
v -0.00587394 -0.00709443 0.00914085
v -0.00484112 -0.00786645 0.00913677
v -0.00458355 -0.00812455 0.00912045
v -0.00406756 -0.00838264 0.00912045
v -0.00380998 -0.00860742 0.00908269
v -0.00378894 -0.00874013 0.00899390
v -0.00641855 -0.00430001 0.00890716
v -0.00378894 -0.00674089 0.00886634
v -0.00791012 -0.00430001 0.00914188
v -0.00638993 -0.00657937 0.00914188
v -0.00664750 -0.00657937 0.00911228
v -0.00561637 -0.00735083 0.00913371
v -0.00615172 -0.00711589 0.00909493
v -0.00535795 -0.00760893 0.00912555
v -0.00512058 -0.00788848 0.00909187
v -0.00483102 -0.00812850 0.00907656
v -0.00458355 -0.00830527 0.00906432
v -0.00431671 -0.00838998 0.00908065
v -0.00406756 -0.00855828 0.00906330
v -0.00422496 -0.00852609 0.00903983
v -0.00406756 -0.00868761 0.00893369
v -0.00420813 -0.00877458 0.00877551
v -0.00378894 -0.00882711 0.00888369
v -0.00647410 -0.00430001 0.00872143
v -0.00378894 -0.00685159 0.00864897
v -0.01074175 -0.00430001 -0.00128361
v -0.01011296 -0.00430058 0.00716618
v -0.00964580 -0.00430058 0.00778154
v -0.00954479 -0.00430058 0.00791319
v -0.00941853 -0.00430058 0.00806932
v -0.00933014 -0.00430058 0.00816933
v -0.00917526 -0.00430058 0.00833670
v -0.00907846 -0.00430058 0.00843977
v -0.00879479 -0.00430058 0.00873571
v -0.00856416 -0.00430058 0.00897349
v -0.00852712 -0.00430058 0.00900411
v -0.00843368 -0.00430058 0.00906942
v -0.00819379 -0.00430058 0.00913269
v -0.00793621 -0.00430058 0.00914188
v -0.01166851 -0.00430001 0.00418528
v -0.00690508 -0.00606262 0.00914188
v -0.00717949 -0.00607843 0.00909391
v -0.00710373 -0.00627553 0.00906534
v -0.00683942 -0.00657937 0.00905615
v -0.00634279 -0.00704417 0.00906534
v -0.00716349 -0.00580453 0.00913984
v -0.00608017 -0.00728362 0.00906432
v -0.00588068 -0.00736156 0.00908983
v -0.00560795 -0.00760893 0.00907758
v -0.00535795 -0.00781506 0.00906942
v -0.00504819 -0.00804492 0.00906024
v -0.00473675 -0.00826687 0.00903880
v -0.00439752 -0.00848147 0.00899492
v -0.00430241 -0.00862888 0.00888573
v -0.00470981 -0.00876837 0.00851018
v -0.00432597 -0.00897281 0.00843262
v -0.00413742 -0.00900783 0.00848263
v -0.00396487 -0.00903720 0.00852345
v -0.00380998 -0.00896717 0.00868571
v -0.00378894 -0.00884010 0.00886634
v -0.00378894 -0.00852496 0.00646305
v -0.00682343 -0.00910723 -0.00128361
v -0.00695222 -0.00894627 -0.00128361
v -0.01232254 -0.00430001 -0.00128361
v -0.01018451 -0.00430058 0.00707025
v -0.01009697 -0.00431300 0.00718148
v -0.00992526 -0.00451519 0.00729374
v -0.00988906 -0.00468348 0.00724578
v -0.00962223 -0.00440901 0.00775093
v -0.00958435 -0.00458070 0.00770194
v -0.00938486 -0.00445250 0.00803157
v -0.00913738 -0.00446718 0.00829690
v -0.00879984 -0.00430397 0.00872959
v -0.00854227 -0.00431357 0.00898880
v -0.00888318 -0.00446888 0.00855815
v -0.00835877 -0.00451519 0.00905309
v -0.00819379 -0.00451519 0.00910922
v -0.00810372 -0.00496586 0.00905615
v -0.00793621 -0.00477271 0.00913371
v -0.00767948 -0.00503137 0.00914188
v -0.00793621 -0.00451519 0.00914188
v -0.01191345 -0.00430001 0.00345868
v -0.01166935 -0.00430058 0.00418630
v -0.01156834 -0.00430058 0.00447102
v -0.01155235 -0.00430058 0.00451388
v -0.01145807 -0.00430058 0.00474656
v -0.01142356 -0.00430058 0.00482309
v -0.01137979 -0.00430058 0.00491902
v -0.01112306 -0.00430058 0.00547214
v -0.01108602 -0.00430058 0.00554969
v -0.01096397 -0.00430058 0.00579564
v -0.01093198 -0.00430058 0.00585381
v -0.01085707 -0.00430058 0.00598749
v -0.01081414 -0.00430058 0.00605893
v -0.01047239 -0.00430058 0.00662123
v -0.01033518 -0.00430058 0.00684574
v -0.00743033 -0.00581017 0.00908779
v -0.00735120 -0.00600219 0.00906228
v -0.00742107 -0.00554643 0.00913269
v -0.00703134 -0.00644722 0.00902554
v -0.00677713 -0.00670870 0.00902758
v -0.00664750 -0.00677026 0.00905615
v -0.00651451 -0.00696284 0.00902452
v -0.00625273 -0.00721416 0.00902146
v -0.00579987 -0.00752252 0.00905615
v -0.00551704 -0.00776141 0.00904493
v -0.00521991 -0.00798844 0.00902248
v -0.00490846 -0.00821660 0.00899186
v -0.00523169 -0.00825501 0.00877041
v -0.00509954 -0.00829059 0.00880817
v -0.00489668 -0.00847357 0.00872857
v -0.00458355 -0.00843403 0.00894390
v -0.00458355 -0.00855320 0.00881429
v -0.00504903 -0.00855320 0.00855611
v -0.00520560 -0.00875877 0.00823873
v -0.00503388 -0.00879604 0.00828771
v -0.00497075 -0.00902760 0.00799585
v -0.00484112 -0.00896321 0.00816015
v -0.00464415 -0.00900162 0.00821526
v -0.00432597 -0.00906261 0.00830302
v -0.00405746 -0.00909932 0.00839078
v -0.00387732 -0.00927044 0.00822750
v -0.00378894 -0.00906374 0.00856121
v -0.00378894 -0.00895869 0.00870510
v -0.00378894 -0.00864469 0.00632324
v -0.00675356 -0.00923599 -0.00128361
v -0.01236295 -0.00430001 -0.00090195
v -0.01224678 -0.00452309 -0.00128361
v -0.01229056 -0.00451462 -0.00090195
v -0.01016094 -0.00446379 0.00700902
v -0.01006667 -0.00453552 0.00709474
v -0.01012391 -0.00463491 0.00695799
v -0.00995640 -0.00477046 0.00710188
v -0.00984782 -0.00485573 0.00719373
v -0.00934529 -0.00462418 0.00798360
v -0.00924176 -0.00454568 0.00814076
v -0.00909445 -0.00463887 0.00825097
v -0.00832257 -0.00464451 0.00902758
v -0.00862729 -0.00447057 0.00881736
v -0.00795221 -0.00504323 0.00908983
v -0.00827544 -0.00481677 0.00897962
v -0.00804901 -0.00513698 0.00901329
v -0.00781921 -0.00543517 0.00903676
v -0.00758857 -0.00572772 0.00905411
v -0.00786803 -0.00528947 0.00906228
v -0.00767612 -0.00553175 0.00907248
v -0.00791096 -0.00516522 0.00907656
v -0.00767948 -0.00528947 0.00911942
v -0.01196985 -0.00430001 0.00326580
v -0.01193029 -0.00437400 0.00333826
v -0.01166093 -0.00432486 0.00418630
v -0.01146817 -0.00451575 0.00451184
v -0.01143703 -0.00443047 0.00468431
v -0.01112474 -0.00504945 0.00478738
v -0.01089494 -0.00462701 0.00565991
v -0.01093198 -0.00445532 0.00573134
v -0.01064074 -0.00489414 0.00592728
v -0.01088569 -0.00434858 0.00590381
v -0.01062559 -0.00459933 0.00615996
v -0.01035791 -0.00451519 0.00666001
v -0.01060959 -0.00430510 0.00639263
v -0.00752292 -0.00589941 0.00900309
v -0.00727713 -0.00617444 0.00901431
v -0.00744884 -0.00609538 0.00892349
v -0.00730238 -0.00646134 0.00877756
v -0.00752208 -0.00693404 0.00822852
v -0.00705575 -0.00672903 0.00878776
v -0.00696821 -0.00657937 0.00897451
v -0.00696653 -0.00690185 0.00871530
v -0.00663067 -0.00707975 0.00883572
v -0.00641266 -0.00711589 0.00897757
v -0.00672326 -0.00742820 0.00846834
v -0.00654986 -0.00750840 0.00853774
v -0.00673757 -0.00770324 0.00822444
v -0.00656585 -0.00777722 0.00828873
v -0.00626451 -0.00748298 0.00877245
v -0.00615172 -0.00736156 0.00896125
v -0.00597074 -0.00745475 0.00900513
v -0.00568960 -0.00769477 0.00898778
v -0.00552967 -0.00802910 0.00879899
v -0.00535795 -0.00794326 0.00898166
v -0.00533354 -0.00811890 0.00883674
v -0.00512058 -0.00812850 0.00895308
v -0.00540341 -0.00820136 0.00871837
v -0.00553809 -0.00828494 0.00854692
v -0.00533354 -0.00832278 0.00863570
v -0.00522075 -0.00850689 0.00850712
v -0.00535795 -0.00858370 0.00833261
v -0.00535795 -0.00871246 0.00818668
v -0.00550273 -0.00877797 0.00800605
v -0.00535795 -0.00881186 0.00805708
v -0.00514331 -0.00898976 0.00793666
v -0.00507428 -0.00907334 0.00785706
v -0.00489078 -0.00925745 0.00768561
v -0.00482008 -0.00918573 0.00784277
v -0.00484112 -0.00905301 0.00803157
v -0.00456840 -0.00909141 0.00812749
v -0.00431419 -0.00919872 0.00810606
v -0.00406756 -0.00923938 0.00817852
v -0.00439163 -0.00926592 0.00796115
v -0.00422076 -0.00929190 0.00800707
v -0.00406756 -0.00931336 0.00804891
v -0.00378894 -0.00949917 0.00783257
v -0.00378894 -0.00933369 0.00814688
v -0.00378894 -0.00920832 0.00835302
v -0.00378894 -0.00920097 0.00836425
v -0.00378894 -0.00900500 0.00590381
v -0.00673084 -0.00941502 -0.00128361
v -0.00378894 -0.00913998 0.00579870
v -0.00378894 -0.00938000 0.00571298
v -0.01238231 -0.00430001 -0.00064478
v -0.01231076 -0.00451462 -0.00064478
v -0.01219712 -0.00465525 -0.00128361
v -0.01221817 -0.00470494 -0.00090195
v -0.01017357 -0.00477271 0.00678043
v -0.01009276 -0.00477271 0.00691003
v -0.00991431 -0.00498337 0.00702228
v -0.00967273 -0.00503081 0.00729680
v -0.00960708 -0.00489244 0.00747335
v -0.00930489 -0.00477271 0.00793360
v -0.00907762 -0.00512682 0.00797238
v -0.00912560 -0.00495457 0.00802850
v -0.00917610 -0.00477271 0.00808259
v -0.00905742 -0.00477271 0.00821220
v -0.00882762 -0.00513868 0.00824179
v -0.00857005 -0.00514094 0.00850100
v -0.00846567 -0.00505566 0.00865407
v -0.00820810 -0.00505340 0.00891022
v -0.00831247 -0.00514207 0.00875919
v -0.00791096 -0.00551537 0.00889900
v -0.00826281 -0.00528890 0.00871224
v -0.00813402 -0.00528890 0.00883470
v -0.00775945 -0.00560686 0.00898166
v -0.01203635 -0.00430001 0.00296271
v -0.01217776 -0.00434237 0.00225754
v -0.01219712 -0.00439885 0.00208610
v -0.01194965 -0.00442595 0.00316579
v -0.01189578 -0.00451349 0.00324131
v -0.01178972 -0.00477271 0.00322498
v -0.01168534 -0.00492294 0.00338010
v -0.01171901 -0.00477046 0.00347296
v -0.01182339 -0.00451462 0.00348215
v -0.01167019 -0.00436948 0.00410976
v -0.01155908 -0.00451519 0.00425671
v -0.01143114 -0.00467671 0.00442408
v -0.01136127 -0.00476650 0.00451184
v -0.01139999 -0.00460272 0.00459654
v -0.01115420 -0.00514771 0.00463022
v -0.01090168 -0.00516014 0.00515986
v -0.01077542 -0.00503081 0.00554561
v -0.01064915 -0.00517030 0.00568542
v -0.01067946 -0.00503081 0.00574257
v -0.01061043 -0.00503081 0.00587217
v -0.01047996 -0.00504493 0.00607832
v -0.01041599 -0.00496756 0.00624160
v -0.01013990 -0.00492576 0.00672532
v -0.01036380 -0.00485065 0.00641304
v -0.00768958 -0.00581921 0.00890614
v -0.00778975 -0.00590957 0.00875306
v -0.00808352 -0.00621567 0.00827138
v -0.00781584 -0.00620268 0.00851937
v -0.00754733 -0.00618856 0.00876735
v -0.00759615 -0.00676122 0.00829384
v -0.00801281 -0.00638792 0.00820607
v -0.00769127 -0.00685046 0.00813770
v -0.00761383 -0.00703796 0.00805708
v -0.00744379 -0.00711815 0.00814382
v -0.00734952 -0.00702497 0.00830302
v -0.00716939 -0.00710121 0.00838670
v -0.00683016 -0.00753099 0.00829588
v -0.00700188 -0.00744853 0.00822750
v -0.00692191 -0.00762417 0.00813974
v -0.00684195 -0.00779755 0.00805198
v -0.00665592 -0.00787380 0.00813158
v -0.00657427 -0.00804209 0.00803973
v -0.00645979 -0.00794891 0.00821117
v -0.00628808 -0.00801724 0.00827343
v -0.00582259 -0.00805678 0.00856631
v -0.00570896 -0.00822846 0.00848671
v -0.00600273 -0.00825388 0.00825404
v -0.00561553 -0.00838264 0.00838262
v -0.00552125 -0.00853343 0.00827751
v -0.00581334 -0.00855489 0.00804483
v -0.00596569 -0.00874917 0.00771011
v -0.00579398 -0.00879378 0.00777134
v -0.00559869 -0.00882824 0.00786114
v -0.00563489 -0.00897394 0.00761418
v -0.00535543 -0.00894514 0.00785706
v -0.00526704 -0.00904567 0.00776521
v -0.00535543 -0.00910271 0.00761418
v -0.00510375 -0.00922018 0.00760295
v -0.00471907 -0.00928738 0.00774072
v -0.00519213 -0.00927270 0.00745396
v -0.00502041 -0.00930263 0.00751315
v -0.00458355 -0.00923204 0.00790706
v -0.00458355 -0.00930715 0.00777848
v -0.00406756 -0.00950820 0.00766724
v -0.00389500 -0.00953192 0.00771419
v -0.00378894 -0.00958783 0.00765092
v -0.00673084 -0.00955000 -0.00128361
v -0.00378894 -0.00941502 0.00570889
v -0.01238820 -0.00430001 -0.00038659
v -0.01222827 -0.00472866 -0.00064478
v -0.01223079 -0.00473544 -0.00038659
v -0.01231581 -0.00451462 -0.00038659
v -0.01181581 -0.00554643 -0.00128361
v -0.01185874 -0.00554643 -0.00090195
v -0.01193113 -0.00541315 -0.00072846
v -0.00969378 -0.00528043 0.00709576
v -0.00981330 -0.00505396 0.00710188
v -0.01000438 -0.00504041 0.00684268
v -0.00986802 -0.00515562 0.00696003
v -0.00936213 -0.00568762 0.00723047
v -0.00927543 -0.00529963 0.00760806
v -0.00931920 -0.00509576 0.00769378
v -0.00958098 -0.00536119 0.00718250
v -0.00909950 -0.00542331 0.00774174
v -0.00903301 -0.00528890 0.00791625
v -0.00885877 -0.00545042 0.00801932
v -0.00890422 -0.00528890 0.00806830
v -0.00878385 -0.00528890 0.00819791
v -0.00860540 -0.00545438 0.00827751
v -0.00791096 -0.00552949 0.00888981
v -0.00791096 -0.00584801 0.00867959
v -0.01216934 -0.00430001 0.00235551
v -0.01219881 -0.00430001 0.00222080
v -0.01221396 -0.00430001 0.00215141
v -0.01213904 -0.00449655 0.00217998
v -0.01224931 -0.00430001 0.00193506
v -0.01220806 -0.00442878 0.00193506
v -0.01215840 -0.00455867 0.00193506
v -0.01207086 -0.00477271 0.00193506
v -0.01202372 -0.00477271 0.00219223
v -0.01196396 -0.00451349 0.00294128
v -0.01191430 -0.00459820 0.00301068
v -0.01156918 -0.00528834 0.00322498
v -0.01166851 -0.00514489 0.00306680
v -0.01143955 -0.00546454 0.00341684
v -0.01148332 -0.00530359 0.00349440
v -0.01141009 -0.00539960 0.00358930
v -0.01147575 -0.00476820 0.00418630
v -0.01155403 -0.00458521 0.00418528
v -0.01173164 -0.00452196 0.00374340
v -0.01114915 -0.00539395 0.00435570
v -0.01139494 -0.00484839 0.00431896
v -0.01118619 -0.00522170 0.00445775
v -0.01102457 -0.00528890 0.00477207
v -0.01112474 -0.00530020 0.00453225
v -0.01090252 -0.00541936 0.00490269
v -0.01060370 -0.00534255 0.00559358
v -0.01038401 -0.00567237 0.00567113
v -0.01043198 -0.00550012 0.00575686
v -0.01051700 -0.00529229 0.00580788
v -0.01043030 -0.00524146 0.00600382
v -0.01037643 -0.00513981 0.00617526
v -0.01009445 -0.00509689 0.00665490
v -0.00791096 -0.00629135 0.00836935
v -0.00813739 -0.00606262 0.00832241
v -0.00826618 -0.00606262 0.00819791
v -0.00833941 -0.00621623 0.00801422
v -0.00817948 -0.00630151 0.00810912
v -0.00810372 -0.00649522 0.00803361
v -0.00791096 -0.00664037 0.00809994
v -0.00785877 -0.00676800 0.00804585
v -0.00778554 -0.00694025 0.00797136
v -0.00753639 -0.00720851 0.00798258
v -0.00726366 -0.00719439 0.00823056
v -0.00736467 -0.00729210 0.00805912
v -0.00710289 -0.00754624 0.00805606
v -0.00701366 -0.00771849 0.00797646
v -0.00674515 -0.00796924 0.00796829
v -0.00637562 -0.00811608 0.00811627
v -0.00665508 -0.00813189 0.00787339
v -0.00646485 -0.00821434 0.00795095
v -0.00617444 -0.00819006 0.00819178
v -0.00629229 -0.00827534 0.00802034
v -0.00598589 -0.00850124 0.00798360
v -0.00569212 -0.00847978 0.00821730
v -0.00613151 -0.00856675 0.00780093
v -0.00627209 -0.00852044 0.00774786
v -0.00614919 -0.00870625 0.00761826
v -0.00624683 -0.00876159 0.00746825
v -0.00607512 -0.00880903 0.00753866
v -0.00587647 -0.00885591 0.00761826
v -0.00573253 -0.00902195 0.00747131
v -0.00543960 -0.00900613 0.00770398
v -0.00556081 -0.00906204 0.00753152
v -0.00563489 -0.00912925 0.00737130
v -0.00538320 -0.00924672 0.00736109
v -0.00482008 -0.00932409 0.00760295
v -0.00460964 -0.00950933 0.00735701
v -0.00439668 -0.00952740 0.00744682
v -0.00548590 -0.00928569 0.00722026
v -0.00471233 -0.00954378 0.00722128
v -0.00422412 -0.00955112 0.00749478
v -0.00406756 -0.00957146 0.00753764
v -0.00380914 -0.00959743 0.00762030
v -0.00378894 -0.00960139 0.00761928
v -0.00673168 -0.00967311 -0.00128361
v -0.00378894 -0.00967311 0.00570889
v -0.01238820 -0.00430001 0.00038797
v -0.01197911 -0.00531149 -0.00064376
v -0.01193534 -0.00542162 -0.00055701
v -0.01188147 -0.00555264 -0.00038659
v -0.01223079 -0.00473544 0.00038797
v -0.01231581 -0.00451462 0.00038797
v -0.01177288 -0.00564018 -0.00128361
v -0.01171901 -0.00575765 -0.00128361
v -0.01172575 -0.00577121 -0.00116013
v -0.01172911 -0.00582203 -0.00089174
v -0.01175773 -0.00580453 -0.00064478
v -0.01188820 -0.00552328 -0.00064376
v -0.00953889 -0.00555999 0.00709576
v -0.00964832 -0.00548318 0.00701004
v -0.01014916 -0.00519854 0.00648244
v -0.01038401 -0.00541371 0.00592932
v -0.00974596 -0.00581243 0.00658449
v -0.00960118 -0.00565487 0.00694575
v -0.00912055 -0.00571134 0.00750907
v -0.00941853 -0.00578645 0.00708556
v -0.00930741 -0.00585987 0.00716618
v -0.00880237 -0.00562211 0.00795299
v -0.00863065 -0.00574862 0.00804891
v -0.00870388 -0.00553853 0.00811933
v -0.00854648 -0.00562663 0.00822036
v -0.00837476 -0.00575031 0.00830302
v -0.01197069 -0.00477441 0.00243001
v -0.01227961 -0.00430001 0.00167687
v -0.01222237 -0.00447057 0.00167687
v -0.01217524 -0.00459990 0.00167687
v -0.01210285 -0.00477271 0.00167687
v -0.01193029 -0.00515167 0.00177382
v -0.01192019 -0.00512625 0.00193506
v -0.01167272 -0.00566842 0.00204324
v -0.01195133 -0.00494271 0.00219223
v -0.01145807 -0.00554926 0.00320559
v -0.01163147 -0.00528043 0.00297496
v -0.01139915 -0.00563623 0.00327907
v -0.01137137 -0.00554926 0.00349440
v -0.01117945 -0.00545438 0.00418528
v -0.01124932 -0.00529681 0.00418630
v -0.01110370 -0.00554361 0.00426488
v -0.01093114 -0.00572828 0.00446081
v -0.01098922 -0.00556789 0.00453327
v -0.01093366 -0.00547697 0.00477207
v -0.01089747 -0.00566785 0.00463226
v -0.01060791 -0.00560968 0.00528844
v -0.01086380 -0.00560630 0.00477207
v -0.01073754 -0.00582203 0.00478840
v -0.01021566 -0.00607674 0.00555888
v -0.01011633 -0.00617218 0.00565277
v -0.01016431 -0.00599993 0.00574155
v -0.01060707 -0.00582203 0.00505271
v -0.00831416 -0.00592256 0.00824587
v -0.00857089 -0.00592030 0.00798462
v -0.00852207 -0.00606262 0.00792645
v -0.00852459 -0.00637041 0.00767337
v -0.00835288 -0.00648732 0.00777236
v -0.00827460 -0.00638792 0.00794380
v -0.00819210 -0.00657711 0.00786522
v -0.00803049 -0.00666691 0.00795809
v -0.00791096 -0.00687022 0.00789992
v -0.00853890 -0.00691540 0.00717638
v -0.00791096 -0.00713792 0.00765194
v -0.00770221 -0.00712154 0.00789074
v -0.00779059 -0.00720230 0.00772031
v -0.00804732 -0.00745926 0.00720291
v -0.00779312 -0.00746435 0.00746518
v -0.00727629 -0.00797997 0.00746416
v -0.00727629 -0.00772188 0.00772235
v -0.00727544 -0.00746435 0.00797952
v -0.00718959 -0.00789300 0.00763459
v -0.00701282 -0.00797658 0.00771827
v -0.00684110 -0.00805056 0.00779583
v -0.00673589 -0.00822282 0.00770194
v -0.00656417 -0.00828720 0.00777848
v -0.00637141 -0.00857297 0.00759479
v -0.00641434 -0.00872206 0.00736926
v -0.00651619 -0.00876837 0.00722026
v -0.00612899 -0.00889883 0.00734885
v -0.00601199 -0.00903268 0.00723047
v -0.00587394 -0.00906939 0.00728558
v -0.00587394 -0.00898863 0.00741518
v -0.00561637 -0.00925858 0.00716924
v -0.00454062 -0.00956920 0.00727537
v -0.00576451 -0.00929416 0.00698044
v -0.00561637 -0.00932240 0.00704065
v -0.00529398 -0.00956694 0.00675491
v -0.00517782 -0.00952628 0.00692738
v -0.00500610 -0.00955564 0.00698861
v -0.00484112 -0.00958049 0.00704678
v -0.00460964 -0.00961551 0.00711821
v -0.00431671 -0.00959066 0.00735701
v -0.00406756 -0.00965052 0.00735089
v -0.00380998 -0.00970530 0.00735089
v -0.00378894 -0.00970135 0.00737130
v -0.00673757 -0.00976799 -0.00128361
v -0.00378894 -0.00999389 0.00584156
v -0.00675525 -0.00989732 -0.00128361
v -0.01238399 -0.00430001 0.00060228
v -0.01231076 -0.00451462 0.00064616
v -0.01176278 -0.00580453 -0.00038659
v -0.01188147 -0.00555264 0.00038797
v -0.01193534 -0.00542162 0.00055840
v -0.01222827 -0.00472866 0.00064616
v -0.01165083 -0.00588698 -0.00128361
v -0.01165841 -0.00589997 -0.00116013
v -0.01167861 -0.00593837 -0.00079887
v -0.01168282 -0.00594684 -0.00064478
v -0.01168703 -0.00595249 -0.00038659
v -0.01011633 -0.00591352 0.00591299
v -0.01016431 -0.00574127 0.00598953
v -0.00960876 -0.00592651 0.00669981
v -0.00988990 -0.00596831 0.00622221
v -0.00956583 -0.00582599 0.00684982
v -0.00937896 -0.00596943 0.00699371
v -0.00913486 -0.00598977 0.00726721
v -0.00872409 -0.00582542 0.00788359
v -0.01180403 -0.00528834 0.00219223
v -0.01171228 -0.00550351 0.00219223
v -0.01236295 -0.00430001 0.00090333
v -0.01229056 -0.00451462 0.00090333
v -0.01218534 -0.00462701 0.00149012
v -0.01219460 -0.00465073 0.00131868
v -0.01221817 -0.00470494 0.00090333
v -0.01177204 -0.00554643 0.00167687
v -0.01172911 -0.00556846 0.00194833
v -0.01183012 -0.00554643 0.00116152
v -0.01168450 -0.00569270 0.00187179
v -0.01162221 -0.00578928 0.00194833
v -0.01140673 -0.00617105 0.00198711
v -0.01128299 -0.00632071 0.00219223
v -0.01145723 -0.00600445 0.00219223
v -0.01156666 -0.00580453 0.00219223
v -0.01142103 -0.00568028 0.00310660
v -0.01165588 -0.00563228 0.00219223
v -0.01151531 -0.00554643 0.00296679
v -0.01091262 -0.00646755 0.00338214
v -0.01117945 -0.00596831 0.00340765
v -0.01123333 -0.00581752 0.00348929
v -0.01133938 -0.00578194 0.00320559
v -0.01116514 -0.00568423 0.00388321
v -0.01111548 -0.00557523 0.00418630
v -0.01088400 -0.00589997 0.00433427
v -0.01066431 -0.00622809 0.00443734
v -0.01063064 -0.00616766 0.00460981
v -0.01046229 -0.00632806 0.00477717
v -0.01006667 -0.00632580 0.00555888
v -0.00988822 -0.00647546 0.00570583
v -0.00994125 -0.00631789 0.00579666
v -0.00989579 -0.00623035 0.00597218
v -0.01007845 -0.00607674 0.00581809
v -0.01036717 -0.00641842 0.00486596
v -0.00858520 -0.00619816 0.00774276
v -0.00884446 -0.00645795 0.00722843
v -0.00859867 -0.00647489 0.00750090
v -0.00885624 -0.00673129 0.00698657
v -0.00861045 -0.00674428 0.00725496
v -0.00869883 -0.00682391 0.00708045
v -0.00861550 -0.00700633 0.00700392
v -0.00820894 -0.00736834 0.00711005
v -0.00804312 -0.00719496 0.00745498
v -0.00791096 -0.00758464 0.00722230
v -0.00812476 -0.00754737 0.00703045
v -0.00804817 -0.00771962 0.00694269
v -0.00791096 -0.00766145 0.00714475
v -0.00779143 -0.00772188 0.00720598
v -0.00710373 -0.00805904 0.00754683
v -0.00736130 -0.00806355 0.00729272
v -0.00727124 -0.00823581 0.00720087
v -0.00700440 -0.00823072 0.00745294
v -0.00683269 -0.00829454 0.00752948
v -0.00654060 -0.00852835 0.00749988
v -0.00664750 -0.00881186 0.00703249
v -0.00698083 -0.00847357 0.00717332
v -0.00678387 -0.00877458 0.00697126
v -0.00618370 -0.00898750 0.00715291
v -0.00611131 -0.00907108 0.00707739
v -0.00585879 -0.00919815 0.00707739
v -0.00432597 -0.00969457 0.00709270
v -0.00593623 -0.00925576 0.00690391
v -0.00620475 -0.00926084 0.00665694
v -0.00629986 -0.00930150 0.00648550
v -0.00612394 -0.00933256 0.00657428
v -0.00561637 -0.00941502 0.00683451
v -0.00546570 -0.00953588 0.00668756
v -0.00556250 -0.00957146 0.00651713
v -0.00537058 -0.00960478 0.00659265
v -0.00509954 -0.00968723 0.00657734
v -0.00509449 -0.00959179 0.00683859
v -0.00484112 -0.00966238 0.00683451
v -0.00405577 -0.00975444 0.00707433
v -0.00378894 -0.00977816 0.00715189
v -0.00378894 -0.01003456 0.00588442
v -0.00691602 -0.01001987 -0.00128361
v -0.01238231 -0.00430001 0.00064616
v -0.01236631 -0.00430001 0.00086047
v -0.01176278 -0.00580453 0.00038797
v -0.01175773 -0.00580453 0.00064616
v -0.01188820 -0.00552328 0.00064514
v -0.01197911 -0.00531149 0.00064514
v -0.01193113 -0.00541315 0.00072984
v -0.01160117 -0.00597734 -0.00128361
v -0.01122996 -0.00664940 -0.00128361
v -0.01140167 -0.00641898 -0.00090195
v -0.01131329 -0.00657881 -0.00090195
v -0.01120134 -0.00677986 -0.00090195
v -0.01121228 -0.00679793 -0.00064478
v -0.01133433 -0.00657881 -0.00064478
v -0.01161211 -0.00607617 -0.00064478
v -0.01134107 -0.00657881 -0.00038659
v -0.01168703 -0.00595249 0.00038797
v -0.00994209 -0.00605754 0.00605995
v -0.00957004 -0.00608521 0.00659980
v -0.00943199 -0.00605810 0.00682941
v -0.00889917 -0.00655791 0.00708045
v -0.00907594 -0.00616145 0.00719679
v -0.00931836 -0.00614112 0.00691207
v -0.00908688 -0.00643705 0.00695085
v -0.01185874 -0.00554643 0.00090333
v -0.01169713 -0.00571586 0.00167687
v -0.01162726 -0.00584462 0.00167687
v -0.01141935 -0.00619364 0.00181566
v -0.01146986 -0.00607617 0.00191465
v -0.01113905 -0.00666917 0.00193506
v -0.01111464 -0.00662455 0.00219223
v -0.01109107 -0.00656074 0.00244327
v -0.01115420 -0.00618009 0.00306884
v -0.01136632 -0.00583954 0.00296679
v -0.01093366 -0.00650652 0.00322498
v -0.01086127 -0.00663641 0.00322498
v -0.01082424 -0.00656412 0.00347399
v -0.01063821 -0.00643988 0.00418630
v -0.01061633 -0.00639978 0.00430876
v -0.01058182 -0.00631620 0.00452000
v -0.01041094 -0.00648788 0.00469349
v -0.01010539 -0.00641503 0.00537315
v -0.00965674 -0.00677195 0.00575073
v -0.00974765 -0.00658728 0.00581401
v -0.00983687 -0.00640204 0.00587830
v -0.00992105 -0.00656864 0.00552418
v -0.00982845 -0.00664771 0.00559562
v -0.00959698 -0.00694364 0.00564562
v -0.00960539 -0.00669854 0.00592218
v -0.00966600 -0.00652629 0.00601096
v -0.00878217 -0.00662964 0.00715801
v -0.00904395 -0.00659632 0.00685288
v -0.00908519 -0.00694985 0.00643243
v -0.00885119 -0.00697979 0.00672328
v -0.00878722 -0.00690298 0.00689472
v -0.00836971 -0.00727741 0.00701718
v -0.00854143 -0.00717745 0.00691207
v -0.00829648 -0.00744910 0.00692942
v -0.00828638 -0.00769590 0.00665796
v -0.00811466 -0.00779247 0.00677124
v -0.00810204 -0.00803701 0.00649774
v -0.00803470 -0.00796472 0.00666919
v -0.00786298 -0.00805056 0.00677022
v -0.00778807 -0.00797658 0.00694166
v -0.00761719 -0.00806130 0.00703249
v -0.00787561 -0.00780546 0.00703351
v -0.00752628 -0.00823242 0.00693758
v -0.00735457 -0.00830245 0.00702943
v -0.00707174 -0.00854134 0.00700085
v -0.00709952 -0.00830132 0.00728149
v -0.00690676 -0.00838377 0.00735191
v -0.00654734 -0.00904341 0.00673246
v -0.00637478 -0.00908068 0.00682533
v -0.00695558 -0.00871359 0.00688350
v -0.00703891 -0.00877345 0.00671205
v -0.00688403 -0.00880790 0.00681206
v -0.00671905 -0.00899597 0.00664776
v -0.00612394 -0.00920832 0.00682533
v -0.00458355 -0.00972563 0.00683451
v -0.00434618 -0.00977590 0.00683961
v -0.00427463 -0.00981938 0.00675593
v -0.00413321 -0.00979002 0.00692840
v -0.00638741 -0.00921679 0.00657428
v -0.00647242 -0.00926536 0.00640080
v -0.00638741 -0.00933595 0.00631711
v -0.00600357 -0.00954378 0.00619159
v -0.00563573 -0.00951272 0.00659265
v -0.00587394 -0.00951385 0.00637835
v -0.00573505 -0.00954039 0.00643958
v -0.00587394 -0.00956694 0.00624976
v -0.00563573 -0.00961212 0.00634059
v -0.00535795 -0.00970304 0.00632018
v -0.00491183 -0.00978832 0.00640692
v -0.00510543 -0.00976743 0.00632018
v -0.00502294 -0.00981543 0.00623445
v -0.00378894 -0.00981769 0.00703759
v -0.00378894 -0.01005941 0.00596810
v -0.00703218 -0.01006054 -0.00104482
v -0.00715087 -0.01002552 -0.00128361
v -0.01168282 -0.00594684 0.00064616
v -0.01167861 -0.00593837 0.00080026
v -0.01172911 -0.00582203 0.00089313
v -0.01117945 -0.00674033 -0.00128361
v -0.01112558 -0.00690863 -0.00090195
v -0.01113652 -0.00692783 -0.00064478
v -0.01114073 -0.00693235 -0.00038659
v -0.01121481 -0.00680358 -0.00038659
v -0.01134107 -0.00657881 0.00038797
v -0.01161211 -0.00607617 0.00064616
v -0.00937812 -0.00622527 0.00674063
v -0.00914664 -0.00652177 0.00677940
v -0.01172575 -0.00577121 0.00116152
v -0.01164325 -0.00587230 0.00141971
v -0.01166851 -0.00592087 0.00097375
v -0.01115252 -0.00669402 0.00174015
v -0.01153888 -0.00606205 0.00141971
v -0.01103888 -0.00683634 0.00193506
v -0.01097575 -0.00685384 0.00219733
v -0.01092441 -0.00674315 0.00270861
v -0.01090673 -0.00671491 0.00285862
v -0.01095555 -0.00658728 0.00295353
v -0.01088569 -0.00667933 0.00303109
v -0.01072155 -0.00685271 0.00322600
v -0.01063316 -0.00694872 0.00331275
v -0.01069040 -0.00677591 0.00348215
v -0.01065841 -0.00672960 0.00365155
v -0.01062643 -0.00667933 0.00382300
v -0.01043704 -0.00657598 0.00449245
v -0.01035286 -0.00666013 0.00456287
v -0.01012138 -0.00695607 0.00462818
v -0.01030741 -0.00657598 0.00477717
v -0.01015000 -0.00648167 0.00520170
v -0.00941516 -0.00708539 0.00578951
v -0.00955994 -0.00684933 0.00582319
v -0.01009108 -0.00665392 0.00508843
v -0.00958267 -0.00718027 0.00536090
v -0.00936465 -0.00723506 0.00569359
v -0.00953974 -0.00709443 0.00555480
v -0.00937391 -0.00699334 0.00596198
v -0.00942694 -0.00682900 0.00605382
v -0.00937560 -0.00673863 0.00622221
v -0.00914496 -0.00677817 0.00652020
v -0.00931078 -0.00716503 0.00586605
v -0.00913907 -0.00727120 0.00599055
v -0.00869715 -0.00707918 0.00681716
v -0.00877796 -0.00715147 0.00662429
v -0.00857510 -0.00798901 0.00592422
v -0.00833857 -0.00801329 0.00621302
v -0.00801870 -0.00820870 0.00638855
v -0.00794126 -0.00812963 0.00658245
v -0.00817864 -0.00811156 0.00630079
v -0.00791096 -0.00809857 0.00665592
v -0.00791096 -0.00814657 0.00659673
v -0.00777207 -0.00822169 0.00666511
v -0.00784615 -0.00828607 0.00649468
v -0.00760120 -0.00829567 0.00676512
v -0.00742443 -0.00838490 0.00683859
v -0.00724346 -0.00847470 0.00691105
v -0.00663909 -0.00908520 0.00656816
v -0.00722831 -0.00872093 0.00657734
v -0.00728723 -0.00876724 0.00644468
v -0.00736383 -0.00881412 0.00627221
v -0.00722157 -0.00898580 0.00611199
v -0.00689329 -0.00893780 0.00656816
v -0.00680070 -0.00904228 0.00647631
v -0.00458355 -0.00982616 0.00652326
v -0.00444634 -0.00980018 0.00669981
v -0.00405577 -0.00983520 0.00683961
v -0.00434618 -0.00985327 0.00659980
v -0.00664161 -0.00921509 0.00631711
v -0.00672410 -0.00926028 0.00613240
v -0.00655155 -0.00930094 0.00622935
v -0.00638993 -0.00943535 0.00606199
v -0.00625862 -0.00954265 0.00593034
v -0.00619465 -0.00951780 0.00606199
v -0.00606586 -0.00956920 0.00606199
v -0.00587394 -0.00963584 0.00606199
v -0.00561637 -0.00971152 0.00606199
v -0.00519550 -0.00979341 0.00616098
v -0.00483270 -0.00983407 0.00632018
v -0.00510543 -0.00984254 0.00607015
v -0.00378894 -0.00982221 0.00702433
v -0.00378894 -0.01005941 0.00600790
v -0.00413658 -0.01006392 0.00569869
v -0.00442614 -0.01006731 0.00539560
v -0.00701787 -0.01006562 -0.00064478
v -0.00702545 -0.01006279 -0.00090195
v -0.00703639 -0.01006054 -0.00104482
v -0.00742107 -0.00996340 -0.00128361
v -0.00713908 -0.01003399 -0.00114278
v -0.01133433 -0.00657881 0.00064616
v -0.01121228 -0.00679793 0.00064616
v -0.01120134 -0.00677986 0.00090333
v -0.01131329 -0.00657881 0.00090333
v -0.01140167 -0.00641898 0.00090333
v -0.01110201 -0.00687022 -0.00128361
v -0.01104057 -0.00696510 -0.00128361
v -0.01097323 -0.00706845 -0.00128361
v -0.01098080 -0.00707918 -0.00116013
v -0.01098249 -0.00711815 -0.00091929
v -0.01102541 -0.00709387 -0.00064478
v -0.01103131 -0.00709387 -0.00038659
v -0.01114073 -0.00693235 0.00038797
v -0.01121481 -0.00680358 0.00038797
v -0.01109023 -0.00681262 0.00166361
v -0.01125353 -0.00657881 0.00141971
v -0.01112558 -0.00690863 0.00090333
v -0.01093114 -0.00700689 0.00193506
v -0.01091430 -0.00698317 0.00211365
v -0.01089242 -0.00695155 0.00228612
v -0.01081666 -0.00681544 0.00295353
v -0.01065589 -0.00698317 0.00314130
v -0.01013317 -0.00774503 0.00311579
v -0.01010876 -0.00771228 0.00328825
v -0.01040084 -0.00724466 0.00339337
v -0.01060202 -0.00690580 0.00348215
v -0.01056077 -0.00682335 0.00373932
v -0.01042441 -0.00677308 0.00418630
v -0.01038821 -0.00671096 0.00439142
v -0.00988990 -0.00725030 0.00468124
v -0.01017357 -0.00677365 0.00477207
v -0.00986549 -0.00747395 0.00437407
v -0.00983603 -0.00743216 0.00451388
v -0.00961213 -0.00747790 0.00489861
v -0.00912307 -0.00751066 0.00571502
v -0.00921651 -0.00733897 0.00579053
v -0.00934277 -0.00746548 0.00539662
v -0.00915843 -0.00760158 0.00552316
v -0.00906583 -0.00744345 0.00588748
v -0.00887728 -0.00778400 0.00573441
v -0.00863318 -0.00805169 0.00575278
v -0.00854900 -0.00822395 0.00563031
v -0.00847577 -0.00814996 0.00583850
v -0.00808352 -0.00827026 0.00621609
v -0.00791096 -0.00835779 0.00631099
v -0.00767191 -0.00837699 0.00656918
v -0.00781332 -0.00851762 0.00619874
v -0.00774093 -0.00845832 0.00637120
v -0.00749346 -0.00846736 0.00664368
v -0.00757006 -0.00852722 0.00647121
v -0.00743790 -0.00871980 0.00634263
v -0.00753554 -0.00875934 0.00617424
v -0.00729733 -0.00903155 0.00593953
v -0.00714666 -0.00906826 0.00604056
v -0.00406756 -0.00991087 0.00657734
v -0.00380998 -0.00987925 0.00683451
v -0.00458355 -0.00988546 0.00632018
v -0.00689329 -0.00920549 0.00605280
v -0.00697242 -0.00925463 0.00586401
v -0.00704817 -0.00929303 0.00569257
v -0.00666097 -0.00951046 0.00556500
v -0.00650693 -0.00953926 0.00566297
v -0.00633522 -0.00957484 0.00575890
v -0.00615593 -0.00961664 0.00582829
v -0.00587394 -0.00971603 0.00580380
v -0.00563236 -0.00977872 0.00581707
v -0.00555745 -0.00982108 0.00574053
v -0.00546317 -0.00979623 0.00591197
v -0.00484112 -0.00990353 0.00606199
v -0.00536974 -0.00984649 0.00581707
v -0.00509954 -0.00991200 0.00580380
v -0.00378894 -0.00987586 0.00685492
v -0.00378894 -0.01004359 0.00610077
v -0.00383524 -0.01004529 0.00606403
v -0.00422917 -0.01006392 0.00569869
v -0.00450611 -0.01006731 0.00546193
v -0.00477210 -0.01006788 0.00521191
v -0.00469045 -0.01006788 0.00514047
v -0.00701535 -0.01006901 -0.00012840
v -0.00706080 -0.01006562 -0.00064478
v -0.00704649 -0.01006279 -0.00090195
v -0.00767948 -0.00989167 -0.00128361
v -0.00742107 -0.00996792 -0.00116013
v -0.00767948 -0.00991031 -0.00090195
v -0.00767948 -0.00989789 -0.00116013
v -0.00742107 -0.00997639 -0.00090195
v -0.01113652 -0.00692783 0.00064616
v -0.01040000 -0.00789469 -0.00128361
v -0.01036549 -0.00796698 -0.00116013
v -0.01038906 -0.00799974 -0.00079173
v -0.01060033 -0.00767500 -0.00090195
v -0.01083434 -0.00733332 -0.00091929
v -0.01091094 -0.00723449 -0.00084582
v -0.01048922 -0.00786758 -0.00064478
v -0.01061464 -0.00769590 -0.00038659
v -0.01103131 -0.00709387 0.00038797
v -0.01102541 -0.00709387 0.00064616
v -0.01094882 -0.00703287 0.00167687
v -0.01098249 -0.00711815 0.00092170
v -0.01098080 -0.00707918 0.00116152
v -0.01063737 -0.00746943 0.00174729
v -0.01040421 -0.00776593 0.00193506
v -0.01039158 -0.00774673 0.00208712
v -0.01085959 -0.00716220 0.00167687
v -0.01037054 -0.00771566 0.00225856
v -0.01067862 -0.00701536 0.00296679
v -0.01028973 -0.00758464 0.00294230
v -0.00986970 -0.00799635 0.00335254
v -0.01015253 -0.00777045 0.00296679
v -0.01013569 -0.00800595 0.00234837
v -0.00994630 -0.00783483 0.00348215
v -0.01007424 -0.00766371 0.00348215
v -0.01016599 -0.00753494 0.00348215
v -0.01020556 -0.00708991 0.00418528
v -0.01009781 -0.00717858 0.00430570
v -0.00965842 -0.00753664 0.00472717
v -0.01010371 -0.00744571 0.00380667
v -0.00986886 -0.00773712 0.00386688
v -0.00981583 -0.00763829 0.00418528
v -0.00980320 -0.00760667 0.00427610
v -0.00962728 -0.00775633 0.00441897
v -0.00969714 -0.00761740 0.00450878
v -0.00955320 -0.00761740 0.00479656
v -0.00930321 -0.00793423 0.00477207
v -0.00902964 -0.00791502 0.00528844
v -0.00904984 -0.00768291 0.00559358
v -0.00880405 -0.00795569 0.00561807
v -0.00885540 -0.00801612 0.00544662
v -0.00870641 -0.00812003 0.00553847
v -0.00860708 -0.00827929 0.00545887
v -0.00837729 -0.00830188 0.00575175
v -0.00831584 -0.00824766 0.00592422
v -0.00844463 -0.00837643 0.00553643
v -0.00791096 -0.00851875 0.00606199
v -0.00766517 -0.00857014 0.00629875
v -0.00786298 -0.00856054 0.00606199
v -0.00777376 -0.00874239 0.00588748
v -0.00768453 -0.00869947 0.00607730
v -0.00760204 -0.00880565 0.00600178
v -0.00747831 -0.00898354 0.00580380
v -0.00734952 -0.00906487 0.00580380
v -0.00714582 -0.00919363 0.00578849
v -0.00378894 -0.00994420 0.00659775
v -0.00432597 -0.00993008 0.00632018
v -0.00406756 -0.00996792 0.00632018
v -0.00378894 -0.00988207 0.00683451
v -0.00723167 -0.00925237 0.00554561
v -0.00728470 -0.00928230 0.00540682
v -0.00675525 -0.00953531 0.00539152
v -0.00658437 -0.00957089 0.00549051
v -0.00640845 -0.00961099 0.00556500
v -0.00638993 -0.00970022 0.00528844
v -0.00613151 -0.00970869 0.00554561
v -0.00572916 -0.00979792 0.00565889
v -0.00563236 -0.00984875 0.00556296
v -0.00458355 -0.00994645 0.00606199
v -0.00484112 -0.00995719 0.00580380
v -0.00535795 -0.00991652 0.00554561
v -0.00509954 -0.00996283 0.00554561
v -0.00378894 -0.01000124 0.00631916
v -0.00406756 -0.01001705 0.00606199
v -0.00440089 -0.01005206 0.00563338
v -0.00432597 -0.00998260 0.00606199
v -0.00458355 -0.00999502 0.00580380
v -0.00458944 -0.01004020 0.00554663
v -0.00485122 -0.01004303 0.00529355
v -0.00494381 -0.01005602 0.00513231
v -0.00502630 -0.01006731 0.00495984
v -0.00527967 -0.01006731 0.00470063
v -0.00604397 -0.01006788 0.00368421
v -0.00683016 -0.01006957 0.00167687
v -0.00676114 -0.01006957 0.00167687
v -0.00707511 -0.01006901 -0.00012840
v -0.00742107 -0.00998260 -0.00064478
v -0.00742107 -0.00998938 -0.00012840
v -0.00786972 -0.00982560 -0.00128361
v -0.00789918 -0.00983689 -0.00090195
v -0.00787982 -0.00982955 -0.00116013
v -0.00767948 -0.00991709 -0.00064478
v -0.00790928 -0.00984141 -0.00064478
v -0.01035707 -0.00795512 -0.00128361
v -0.01028131 -0.00805734 -0.00128361
v -0.01028468 -0.00813471 -0.00064478
v -0.01039242 -0.00800538 -0.00064478
v -0.01013064 -0.00825614 -0.00128361
v -0.01013737 -0.00826461 -0.00116013
v -0.01014832 -0.00827647 -0.00090195
v -0.01039663 -0.00800990 -0.00038659
v -0.01039663 -0.00801047 -0.00012840
v -0.01061464 -0.00769590 0.00038797
v -0.01048922 -0.00786758 0.00064616
v -0.01038906 -0.00799974 0.00079414
v -0.01091094 -0.00723449 0.00084822
v -0.01083434 -0.00733332 0.00092170
v -0.01060033 -0.00767500 0.00090333
v -0.01034949 -0.00794383 0.00141971
v -0.01042273 -0.00779078 0.00167687
v -0.01033182 -0.00792011 0.00167687
v -0.01031246 -0.00789469 0.00193506
v -0.01029562 -0.00784669 0.00218100
v -0.01015505 -0.00803080 0.00219223
v -0.00987138 -0.00825614 0.00258717
v -0.00984697 -0.00822790 0.00275861
v -0.00979731 -0.00811664 0.00325049
v -0.00962559 -0.00826800 0.00338826
v -0.00959108 -0.00823072 0.00356073
v -0.00966263 -0.00805847 0.00374034
v -0.00989074 -0.00827647 0.00245042
v -0.00958772 -0.00770832 0.00459144
v -0.00934445 -0.00798392 0.00462307
v -0.00967273 -0.00782014 0.00418528
v -0.00955657 -0.00792688 0.00425671
v -0.00938570 -0.00803362 0.00445163
v -0.00912391 -0.00802910 0.00495066
v -0.00890085 -0.00806807 0.00528844
v -0.00878722 -0.00819740 0.00528844
v -0.00882930 -0.00824371 0.00514251
v -0.00865843 -0.00832673 0.00528844
v -0.00851786 -0.00845606 0.00528844
v -0.00838907 -0.00857353 0.00528844
v -0.00824429 -0.00870229 0.00528844
v -0.00833941 -0.00852722 0.00544152
v -0.00817443 -0.00862436 0.00551908
v -0.00807089 -0.00877345 0.00542417
v -0.00783521 -0.00879040 0.00571502
v -0.00768453 -0.00884970 0.00580176
v -0.00768117 -0.00896660 0.00555888
v -0.00753470 -0.00901743 0.00565277
v -0.00743706 -0.00912247 0.00555888
v -0.00378894 -0.00994871 0.00657734
v -0.00742696 -0.00923938 0.00530783
v -0.00751787 -0.00926931 0.00511292
v -0.00757679 -0.00929924 0.00494147
v -0.00742696 -0.00934160 0.00502822
v -0.00723588 -0.00951780 0.00477207
v -0.00690508 -0.00949747 0.00529865
v -0.00681922 -0.00956411 0.00521905
v -0.00666097 -0.00960252 0.00529865
v -0.00613741 -0.00977307 0.00529865
v -0.00664750 -0.00968158 0.00503026
v -0.00638572 -0.00976517 0.00503332
v -0.00629734 -0.00981374 0.00494964
v -0.00622747 -0.00979228 0.00512108
v -0.00580744 -0.00981995 0.00548744
v -0.00588488 -0.00984593 0.00529865
v -0.00587394 -0.00991031 0.00503026
v -0.00561637 -0.00991539 0.00528844
v -0.00535795 -0.00996509 0.00528844
v -0.00509954 -0.01000575 0.00528844
v -0.00510795 -0.01004416 0.00503944
v -0.00519886 -0.01005545 0.00487310
v -0.00552714 -0.01006675 0.00443428
v -0.00576199 -0.01006336 0.00415058
v -0.00613151 -0.01001366 0.00399750
v -0.00638909 -0.00996340 0.00399750
v -0.00638909 -0.00999276 0.00374034
v -0.00626367 -0.01006054 0.00336071
v -0.00629734 -0.01006562 0.00322498
v -0.00654986 -0.01006562 0.00270861
v -0.00680996 -0.01006731 0.00193506
v -0.00706080 -0.01006562 0.00064616
v -0.00707511 -0.01006901 0.00012979
v -0.00767948 -0.00992612 -0.00012840
v -0.00742107 -0.00998938 0.00012979
v -0.00799850 -0.00977533 -0.00128361
v -0.00800945 -0.00977985 -0.00116013
v -0.00803891 -0.00979115 -0.00064478
v -0.00819379 -0.00972055 -0.00090195
v -0.00792359 -0.00984649 -0.00012840
v -0.00805322 -0.00979679 -0.00012840
v -0.01017020 -0.00830019 -0.00012840
v -0.00987896 -0.00852214 -0.00128361
v -0.00988738 -0.00853117 -0.00116013
v -0.01001701 -0.00839337 -0.00116013
v -0.00990000 -0.00854473 -0.00090195
v -0.01002879 -0.00840580 -0.00090195
v -0.01004394 -0.00842161 -0.00038659
v -0.01029815 -0.00814036 -0.00012840
v -0.01029899 -0.00814036 0.00012979
v -0.01039663 -0.00801047 0.00012979
v -0.01039663 -0.00800990 0.00038797
v -0.01039242 -0.00800595 0.00064616
v -0.01029057 -0.00813471 0.00064616
v -0.01015168 -0.00828099 0.00090333
v -0.01013737 -0.00826517 0.00116152
v -0.01012896 -0.00825557 0.00129725
v -0.01024596 -0.00812568 0.00116152
v -0.01020219 -0.00814206 0.00139828
v -0.01020219 -0.00809010 0.00167687
v -0.01018367 -0.00806468 0.00193506
v -0.01005068 -0.00815956 0.00219223
v -0.00956415 -0.00846171 0.00296679
v -0.00965001 -0.00829454 0.00322498
v -0.00963738 -0.00853908 0.00245042
v -0.00952458 -0.00842330 0.00322498
v -0.00939580 -0.00855489 0.00322498
v -0.00936802 -0.00852666 0.00338724
v -0.00947997 -0.00837982 0.00347399
v -0.00934782 -0.00824710 0.00411180
v -0.00933267 -0.00822959 0.00418630
v -0.00942778 -0.00808332 0.00425671
v -0.00959277 -0.00797263 0.00407915
v -0.00992189 -0.00830922 0.00219223
v -0.00979984 -0.00843912 0.00219223
v -0.00967021 -0.00857409 0.00219223
v -0.00927206 -0.00812172 0.00452817
v -0.00909782 -0.00825501 0.00464655
v -0.00916011 -0.00811947 0.00474860
v -0.00931752 -0.00821265 0.00425671
v -0.00904900 -0.00820136 0.00481799
v -0.00872156 -0.00839450 0.00505169
v -0.00856584 -0.00849785 0.00513231
v -0.00829901 -0.00875030 0.00511904
v -0.00811466 -0.00880508 0.00528844
v -0.00791096 -0.00895135 0.00526803
v -0.00759531 -0.00905753 0.00548132
v -0.00768117 -0.00909480 0.00527926
v -0.00766938 -0.00921171 0.00502822
v -0.00775776 -0.00925858 0.00477207
v -0.00780153 -0.00928230 0.00463124
v -0.00762898 -0.00932635 0.00477207
v -0.00728555 -0.00954039 0.00463226
v -0.00705238 -0.00955225 0.00492617
v -0.00710625 -0.00957654 0.00477207
v -0.00690508 -0.00958670 0.00502005
v -0.00690508 -0.00965504 0.00477207
v -0.00605576 -0.00981769 0.00521905
v -0.00690508 -0.00971829 0.00451388
v -0.00662899 -0.00975274 0.00475676
v -0.00646990 -0.00978663 0.00483228
v -0.00613741 -0.00984085 0.00503332
v -0.00638572 -0.00983068 0.00475676
v -0.00613151 -0.00989901 0.00477207
v -0.00587394 -0.00995549 0.00477207
v -0.00561637 -0.00996114 0.00503026
v -0.00535795 -0.01000519 0.00503026
v -0.00536300 -0.01004246 0.00478125
v -0.00569970 -0.01005094 0.00432305
v -0.00574936 -0.01006110 0.00418528
v -0.00561637 -0.01000067 0.00477207
v -0.00613151 -0.00997978 0.00425671
v -0.00638993 -0.00993685 0.00418630
v -0.00664750 -0.00993911 0.00374034
v -0.00664750 -0.00996905 0.00348215
v -0.00664750 -0.00999785 0.00322498
v -0.00647831 -0.01005263 0.00301782
v -0.00652208 -0.01006054 0.00284637
v -0.00690592 -0.01001084 0.00245042
v -0.00678639 -0.01006223 0.00209732
v -0.00693875 -0.01003908 0.00193506
v -0.00716349 -0.01000462 0.00167687
v -0.00716349 -0.01001648 0.00141971
v -0.00703639 -0.01006054 0.00104416
v -0.00704649 -0.01006279 0.00090333
v -0.00742107 -0.00998260 0.00064616
v -0.00767948 -0.00992612 0.00012979
v -0.00819379 -0.00969853 -0.00128361
v -0.00819379 -0.00970700 -0.00116013
v -0.00819379 -0.00972902 -0.00064478
v -0.00843200 -0.00960026 -0.00116013
v -0.00845136 -0.00961494 -0.00064478
v -0.00847409 -0.00959461 -0.00088868
v -0.00792359 -0.00984649 0.00012979
v -0.00805322 -0.00979679 0.00012979
v -0.00819379 -0.00974032 -0.00012840
v -0.00992189 -0.00856788 -0.00012840
v -0.01005152 -0.00843065 0.00012979
v -0.01017020 -0.00830188 0.00012979
v -0.00962728 -0.00878306 -0.00128361
v -0.00976364 -0.00865994 -0.00116013
v -0.00977627 -0.00867349 -0.00090195
v -0.01029562 -0.00813923 0.00038797
v -0.01016094 -0.00829002 0.00064616
v -0.01016684 -0.00829736 0.00038797
v -0.01003131 -0.00840975 0.00090333
v -0.00988906 -0.00853230 0.00116152
v -0.01003973 -0.00841992 0.00064616
v -0.00987643 -0.00851818 0.00132684
v -0.00999512 -0.00837982 0.00139828
v -0.00994630 -0.00833464 0.00193506
v -0.01011465 -0.00823919 0.00146869
v -0.01009697 -0.00821886 0.00167687
v -0.01007424 -0.00819345 0.00193506
v -0.00947661 -0.00863509 0.00268717
v -0.00943452 -0.00859499 0.00296679
v -0.00951028 -0.00866784 0.00245042
v -0.00936129 -0.00877571 0.00260451
v -0.00926449 -0.00868366 0.00322498
v -0.00930573 -0.00872376 0.00296679
v -0.00910876 -0.00878023 0.00338418
v -0.00922072 -0.00863791 0.00347092
v -0.00916684 -0.00858144 0.00374034
v -0.00933267 -0.00849108 0.00355971
v -0.00907425 -0.00848995 0.00418630
v -0.00920388 -0.00836062 0.00418630
v -0.00918873 -0.00834650 0.00425671
v -0.00913065 -0.00828776 0.00451388
v -0.00982509 -0.00846340 0.00193506
v -0.00969546 -0.00860064 0.00193506
v -0.00954226 -0.00870286 0.00219223
v -0.00956920 -0.00872940 0.00193506
v -0.00866685 -0.00859160 0.00477207
v -0.00861466 -0.00854247 0.00496086
v -0.00888065 -0.00855094 0.00446286
v -0.00856752 -0.00875877 0.00462001
v -0.00834699 -0.00878870 0.00494658
v -0.00820473 -0.00885478 0.00503230
v -0.00800860 -0.00899089 0.00503026
v -0.00787982 -0.00907786 0.00503026
v -0.00782847 -0.00904115 0.00518844
v -0.00791096 -0.00915579 0.00478431
v -0.00791096 -0.00924107 0.00455164
v -0.00801870 -0.00925915 0.00430468
v -0.00805322 -0.00927835 0.00418630
v -0.00806837 -0.00928682 0.00413119
v -0.00799766 -0.00930828 0.00418528
v -0.00765676 -0.00946754 0.00423630
v -0.00750777 -0.00952232 0.00430774
v -0.00733521 -0.00956524 0.00445979
v -0.00718454 -0.00960986 0.00453327
v -0.00716349 -0.00968384 0.00425671
v -0.00690339 -0.00977082 0.00427100
v -0.00676282 -0.00979792 0.00436591
v -0.00671148 -0.00978155 0.00451388
v -0.00658269 -0.00982221 0.00451388
v -0.00666518 -0.00984875 0.00427100
v -0.00638993 -0.00987981 0.00451388
v -0.00638993 -0.00992612 0.00425671
v -0.00613151 -0.00994307 0.00451388
v -0.00645979 -0.00992048 0.00418630
v -0.00690592 -0.00991031 0.00348215
v -0.00690592 -0.00994250 0.00322498
v -0.00664750 -0.00990297 0.00399750
v -0.00690592 -0.00996735 0.00296679
v -0.00662393 -0.01002947 0.00294638
v -0.00690592 -0.00998994 0.00270861
v -0.00716349 -0.00995436 0.00245042
v -0.00688572 -0.01003456 0.00218713
v -0.00716349 -0.00998881 0.00193506
v -0.00716349 -0.00997243 0.00219223
v -0.00742107 -0.00994533 0.00167687
v -0.00742107 -0.00995775 0.00141971
v -0.00742107 -0.00997639 0.00090333
v -0.00742107 -0.00996792 0.00116152
v -0.00767948 -0.00991709 0.00064616
v -0.00842274 -0.00959574 -0.00128361
v -0.00845136 -0.00962906 -0.00012840
v -0.00857510 -0.00954096 -0.00096522
v -0.00858772 -0.00954717 -0.00064478
v -0.00858267 -0.00954435 -0.00079377
v -0.00860203 -0.00955621 -0.00012840
v -0.00790928 -0.00984141 0.00064616
v -0.00819379 -0.00974032 0.00012979
v -0.00803891 -0.00979115 0.00064616
v -0.00819379 -0.00972902 0.00064616
v -0.00979647 -0.00869665 -0.00012840
v -0.00992273 -0.00856845 0.00012979
v -0.01004731 -0.00842613 0.00038797
v -0.00956920 -0.00883049 -0.00128361
v -0.00963485 -0.00879096 -0.00116013
v -0.00964664 -0.00880113 -0.00090195
v -0.00990253 -0.00854642 0.00090333
v -0.00976364 -0.00866050 0.00116152
v -0.00962223 -0.00877854 0.00135337
v -0.00960792 -0.00876668 0.00152482
v -0.00991768 -0.00856224 0.00038797
v -0.00991095 -0.00855489 0.00064616
v -0.00933519 -0.00875199 0.00277596
v -0.00888486 -0.00906317 0.00296679
v -0.00901280 -0.00896378 0.00296679
v -0.00917695 -0.00883501 0.00296679
v -0.00913570 -0.00880339 0.00322498
v -0.00938149 -0.00879322 0.00245042
v -0.00920304 -0.00893554 0.00243919
v -0.00885708 -0.00904228 0.00314130
v -0.00870388 -0.00896491 0.00376381
v -0.00873082 -0.00886777 0.00401179
v -0.00883099 -0.00876216 0.00410772
v -0.00907173 -0.00874860 0.00355563
v -0.00905826 -0.00847526 0.00425671
v -0.00892947 -0.00860064 0.00425671
v -0.00941432 -0.00882033 0.00219223
v -0.00879227 -0.00872940 0.00425671
v -0.00861382 -0.00879492 0.00444755
v -0.00805490 -0.00902082 0.00488330
v -0.00846904 -0.00886777 0.00452613
v -0.00819042 -0.00896321 0.00478738
v -0.00791096 -0.00909650 0.00493331
v -0.00795642 -0.00912473 0.00478738
v -0.00815591 -0.00909198 0.00451388
v -0.00819463 -0.00915975 0.00425773
v -0.00820389 -0.00917895 0.00418630
v -0.00822998 -0.00922752 0.00399750
v -0.00810204 -0.00930602 0.00399750
v -0.00793790 -0.00939130 0.00399750
v -0.00759362 -0.00956524 0.00399750
v -0.00755490 -0.00954661 0.00413527
v -0.00745726 -0.00957880 0.00418630
v -0.00742107 -0.00959461 0.00418528
v -0.00697073 -0.00976460 0.00418630
v -0.00742107 -0.00963810 0.00399750
v -0.00742107 -0.00969344 0.00374034
v -0.00713908 -0.00974766 0.00397403
v -0.00698925 -0.00978606 0.00404445
v -0.00690339 -0.00978776 0.00418630
v -0.00682006 -0.00981656 0.00418528
v -0.00666013 -0.00986569 0.00418528
v -0.00690592 -0.00986965 0.00374034
v -0.00716770 -0.00983294 0.00346276
v -0.00716349 -0.00987021 0.00322498
v -0.00716349 -0.00990240 0.00296679
v -0.00716349 -0.00993177 0.00270861
v -0.00742107 -0.00990692 0.00219223
v -0.00742107 -0.00992838 0.00193506
v -0.00767948 -0.00986965 0.00167687
v -0.00767948 -0.00988433 0.00141971
v -0.00767948 -0.00989789 0.00116152
v -0.00767948 -0.00990975 0.00090333
v -0.00848924 -0.00956073 -0.00128361
v -0.00856163 -0.00953249 -0.00116013
v -0.00845136 -0.00962906 0.00012979
v -0.00893116 -0.00933934 -0.00090195
v -0.00891516 -0.00933087 -0.00116013
v -0.00871062 -0.00944834 -0.00116013
v -0.00893873 -0.00934386 -0.00064478
v -0.00873082 -0.00948166 -0.00012840
v -0.00860203 -0.00955621 0.00012979
v -0.00789918 -0.00983689 0.00090333
v -0.00819379 -0.00972055 0.00090333
v -0.00845136 -0.00961494 0.00064616
v -0.00966768 -0.00881863 -0.00012840
v -0.00979647 -0.00869721 0.00012979
v -0.00921987 -0.00910610 -0.00128361
v -0.00934277 -0.00901856 -0.00121422
v -0.00924428 -0.00910553 -0.00114074
v -0.00945809 -0.00893554 -0.00114074
v -0.00935539 -0.00902872 -0.00104175
v -0.00948923 -0.00892989 -0.00090195
v -0.00949681 -0.00893554 -0.00064478
v -0.00951112 -0.00894740 -0.00012840
v -0.00977627 -0.00867519 0.00090333
v -0.00963570 -0.00879096 0.00116152
v -0.00934277 -0.00901856 0.00121561
v -0.00928132 -0.00897112 0.00193506
v -0.00945809 -0.00893554 0.00114213
v -0.00944041 -0.00884179 0.00193506
v -0.00978973 -0.00869156 0.00038797
v -0.00978300 -0.00868366 0.00064616
v -0.00910287 -0.00903324 0.00234428
v -0.00898250 -0.00910440 0.00243919
v -0.00892190 -0.00909141 0.00270861
v -0.00878048 -0.00924841 0.00245042
v -0.00868957 -0.00920493 0.00296067
v -0.00925270 -0.00894909 0.00219223
v -0.00912391 -0.00904962 0.00219223
v -0.00872493 -0.00911231 0.00322600
v -0.00865843 -0.00908464 0.00348215
v -0.00857931 -0.00902647 0.00386484
v -0.00856331 -0.00927496 0.00304231
v -0.00854985 -0.00900613 0.00399750
v -0.00868368 -0.00884348 0.00418528
v -0.00866348 -0.00883275 0.00425671
v -0.00845389 -0.00897451 0.00428121
v -0.00832173 -0.00902760 0.00438428
v -0.00810204 -0.00905414 0.00471084
v -0.00836887 -0.00906035 0.00421181
v -0.00837560 -0.00906543 0.00418528
v -0.00842022 -0.00909819 0.00399750
v -0.00829059 -0.00926592 0.00374034
v -0.00816096 -0.00933821 0.00374034
v -0.00791601 -0.00947206 0.00372503
v -0.00777460 -0.00952684 0.00380055
v -0.00768453 -0.00958727 0.00372503
v -0.00767948 -0.00963866 0.00348215
v -0.00739918 -0.00975105 0.00346276
v -0.00725608 -0.00978945 0.00353624
v -0.00720221 -0.00977082 0.00374034
v -0.00707258 -0.00981543 0.00374034
v -0.00690424 -0.00982842 0.00397403
v -0.00729733 -0.00980357 0.00336377
v -0.00737898 -0.00983350 0.00296679
v -0.00744127 -0.00984649 0.00271881
v -0.00742107 -0.00988433 0.00245042
v -0.00769716 -0.00984197 0.00193098
v -0.00781921 -0.00980583 0.00184220
v -0.00783521 -0.00981204 0.00167687
v -0.00785793 -0.00982108 0.00141971
v -0.00787982 -0.00982955 0.00116152
v -0.00855069 -0.00952684 -0.00128361
v -0.00905994 -0.00926310 -0.00090195
v -0.00908183 -0.00927778 -0.00012840
v -0.00904479 -0.00925237 -0.00116013
v -0.00897156 -0.00928399 -0.00128361
v -0.00890422 -0.00932466 -0.00128361
v -0.00871062 -0.00943591 -0.00128361
v -0.00863149 -0.00948110 -0.00128361
v -0.00873082 -0.00948166 0.00012979
v -0.00858772 -0.00954717 0.00064616
v -0.00800945 -0.00977985 0.00116152
v -0.00819379 -0.00970700 0.00116152
v -0.00843200 -0.00960026 0.00116152
v -0.00847409 -0.00959461 0.00089006
v -0.00858267 -0.00954435 0.00079516
v -0.00966768 -0.00881863 0.00012979
v -0.00911634 -0.00918347 -0.00128361
v -0.00922492 -0.00913942 -0.00090195
v -0.00936044 -0.00903211 -0.00090195
v -0.00938233 -0.00905019 -0.00012840
v -0.00951112 -0.00894740 0.00012979
v -0.00964748 -0.00880113 0.00090333
v -0.00935539 -0.00902872 0.00104314
v -0.00915253 -0.00907221 0.00193506
v -0.00924428 -0.00910553 0.00114213
v -0.00896735 -0.00916653 0.00219223
v -0.00881836 -0.00927326 0.00219223
v -0.00859025 -0.00929134 0.00286985
v -0.00883856 -0.00928569 0.00205854
v -0.00852628 -0.00925124 0.00322498
v -0.00847661 -0.00913095 0.00376381
v -0.00846651 -0.00934386 0.00296067
v -0.00809278 -0.00955903 0.00290658
v -0.00839665 -0.00932635 0.00322498
v -0.00831921 -0.00928399 0.00360359
v -0.00781584 -0.00954830 0.00362808
v -0.00784699 -0.00956355 0.00348215
v -0.00790002 -0.00958953 0.00322498
v -0.00767948 -0.00968384 0.00322498
v -0.00767948 -0.00972451 0.00296679
v -0.00745558 -0.00976743 0.00322498
v -0.00753975 -0.00979849 0.00281168
v -0.00757258 -0.00981035 0.00263921
v -0.00760288 -0.00982108 0.00245042
v -0.00763992 -0.00983576 0.00219223
v -0.00776871 -0.00978719 0.00219223
v -0.00791770 -0.00975896 0.00193098
v -0.00796483 -0.00976291 0.00167687
v -0.00922492 -0.00917104 -0.00012840
v -0.00922492 -0.00915015 -0.00064478
v -0.00908183 -0.00927778 0.00012979
v -0.00903301 -0.00924390 -0.00128361
v -0.00893873 -0.00934386 0.00064616
v -0.00893116 -0.00933934 0.00090333
v -0.00819379 -0.00968893 0.00141971
v -0.00857510 -0.00954096 0.00096762
v -0.00841096 -0.00959122 0.00141971
v -0.00938233 -0.00905019 0.00012979
v -0.00949681 -0.00893554 0.00064616
v -0.00948923 -0.00892989 0.00090333
v -0.00936044 -0.00903211 0.00090333
v -0.00922492 -0.00913942 0.00090333
v -0.00894967 -0.00921792 0.00195751
v -0.00904479 -0.00925237 0.00116152
v -0.00905994 -0.00926310 0.00090333
v -0.00845136 -0.00939638 0.00270861
v -0.00825439 -0.00950594 0.00270861
v -0.00887055 -0.00930546 0.00167687
v -0.00871062 -0.00939864 0.00167687
v -0.00851786 -0.00950820 0.00167687
v -0.00836298 -0.00956581 0.00193506
v -0.00833941 -0.00955338 0.00212079
v -0.00843621 -0.00948674 0.00220141
v -0.00812561 -0.00957654 0.00270861
v -0.00793790 -0.00966069 0.00270861
v -0.00795894 -0.00960647 0.00298210
v -0.00805911 -0.00953983 0.00307905
v -0.00766770 -0.00976460 0.00271881
v -0.00773167 -0.00977251 0.00245042
v -0.00793790 -0.00972281 0.00219223
v -0.00819379 -0.00964487 0.00193506
v -0.00819379 -0.00966972 0.00167687
v -0.00922492 -0.00917104 0.00012979
v -0.00891516 -0.00933087 0.00116152
v -0.00856163 -0.00953249 0.00116152
v -0.00871062 -0.00944834 0.00116152
v -0.00838907 -0.00957993 0.00167687
v -0.00922492 -0.00915015 0.00064616
v -0.00853974 -0.00952063 0.00141971
v -0.00816264 -0.00959405 0.00245042
v -0.00793790 -0.00969401 0.00245042
f 1 2 6
f 1 6 13
f 1 13 24
f 1 24 41
f 1 41 78
f 1 78 142
f 1 142 141
f 1 141 224
f 1 224 223
f 1 223 222
f 1 222 221
f 1 221 317
f 1 317 416
f 1 416 514
f 1 514 611
f 1 611 709
f 1 709 795
f 1 795 875
f 1 875 949
f 1 949 946
f 1 946 1033
f 1 1033 963
f 1 963 876
f 1 876 796
f 1 796 710
f 1 710 612
f 1 612 516
f 1 516 418
f 1 418 319
f 1 319 228
f 1 228 227
f 1 227 225
f 1 225 143
f 1 143 79
f 1 79 43
f 1 43 26
f 1 26 14
f 1 14 7
f 1 7 3
f 1 3 4
f 1 4 9
f 1 9 17
f 1 17 27
f 1 27 57
f 1 57 99
f 1 99 98
f 1 98 59
f 1 59 28
f 1 28 18
f 1 18 10
f 1 10 5
f 1 5 2
f 2 5 12
f 2 12 6
f 3 7 8
f 3 8 4
f 4 8 9
f 5 10 11
f 5 11 12
f 6 12 13
f 7 14 15
f 7 15 16
f 7 16 8
f 8 17 9
f 8 16 25
f 8 25 42
f 8 42 44
f 8 44 82
f 8 82 145
f 8 145 229
f 8 229 320
f 8 320 419
f 8 419 518
f 8 518 614
f 8 614 615
f 8 615 539
f 8 539 446
f 8 446 347
f 8 347 345
f 8 345 344
f 8 344 343
f 8 343 252
f 8 252 167
f 8 167 100
f 8 100 58
f 8 58 27
f 8 27 17
f 10 18 19
f 10 19 20
f 10 20 11
f 11 20 21
f 11 21 22
f 11 22 12
f 12 22 23
f 12 23 13
f 13 23 24
f 14 25 16
f 14 16 15
f 14 26 25
f 18 28 29
f 18 29 19
f 19 30 20
f 19 29 31
f 19 31 30
f 20 30 32
f 20 32 21
f 21 33 34
f 21 34 35
f 21 35 36
f 21 36 22
f 21 32 33
f 22 36 37
f 22 37 23
f 23 37 24
f 24 37 38
f 24 38 39
f 24 39 40
f 24 40 41
f 25 26 42
f 26 43 44
f 26 44 42
f 27 45 46
f 27 46 47
f 27 47 48
f 27 48 49
f 27 49 50
f 27 50 51
f 27 51 52
f 27 52 53
f 27 53 54
f 27 54 55
f 27 55 56
f 27 56 57
f 27 58 45
f 28 59 29
f 29 60 61
f 29 61 62
f 29 62 63
f 29 63 31
f 29 59 64
f 29 64 60
f 30 31 32
f 31 63 65
f 31 65 66
f 31 66 32
f 32 66 67
f 32 67 68
f 32 68 33
f 33 68 34
f 34 68 69
f 34 69 35
f 35 69 70
f 35 70 38
f 35 38 37
f 35 37 36
f 38 70 71
f 38 71 72
f 38 72 40
f 38 40 39
f 40 73 74
f 40 74 75
f 40 75 76
f 40 76 77
f 40 77 78
f 40 78 41
f 40 72 73
f 43 79 80
f 43 80 81
f 43 81 44
f 44 81 80
f 44 80 144
f 44 144 226
f 44 226 318
f 44 318 417
f 44 417 515
f 44 515 517
f 44 517 613
f 44 613 712
f 44 712 802
f 44 802 885
f 44 885 979
f 44 979 1068
f 44 1068 1160
f 44 1160 1249
f 44 1249 1322
f 44 1322 1392
f 44 1392 1399
f 44 1399 1398
f 44 1398 1397
f 44 1397 1396
f 44 1396 1443
f 44 1443 1408
f 44 1408 1336
f 44 1336 1262
f 44 1262 1172
f 44 1172 1075
f 44 1075 988
f 44 988 985
f 44 985 984
f 44 984 891
f 44 891 811
f 44 811 810
f 44 810 809
f 44 809 716
f 44 716 622
f 44 622 621
f 44 621 524
f 44 524 426
f 44 426 425
f 44 425 324
f 44 324 231
f 44 231 146
f 44 146 82
f 45 83 84
f 45 84 46
f 45 58 83
f 46 84 85
f 46 85 86
f 46 86 87
f 46 87 47
f 47 87 88
f 47 88 89
f 47 89 48
f 48 89 49
f 49 90 50
f 49 89 90
f 50 90 51
f 51 90 91
f 51 91 52
f 52 91 53
f 53 92 54
f 53 91 93
f 53 93 92
f 54 92 94
f 54 94 55
f 55 95 56
f 55 94 96
f 55 96 95
f 56 97 98
f 56 98 99
f 56 99 57
f 56 95 97
f 58 100 101
f 58 101 102
f 58 102 103
f 58 103 104
f 58 104 105
f 58 105 106
f 58 106 107
f 58 107 108
f 58 108 109
f 58 109 110
f 58 110 111
f 58 111 112
f 58 112 113
f 58 113 114
f 58 114 83
f 59 98 64
f 60 115 116
f 60 116 61
f 60 64 117
f 60 117 115
f 61 116 118
f 61 118 62
f 62 118 119
f 62 119 120
f 62 120 63
f 63 120 119
f 63 119 121
f 63 121 122
f 63 122 65
f 64 98 117
f 65 122 123
f 65 123 67
f 65 67 66
f 67 123 124
f 67 124 68
f 68 124 69
f 69 124 125
f 69 125 70
f 70 125 126
f 70 126 127
f 70 127 128
f 70 128 129
f 70 129 130
f 70 130 71
f 71 130 129
f 71 129 131
f 71 131 73
f 71 73 72
f 73 131 129
f 73 129 132
f 73 132 133
f 73 133 134
f 73 134 135
f 73 135 136
f 73 136 137
f 73 137 74
f 74 137 138
f 74 138 75
f 75 138 139
f 75 139 76
f 76 139 140
f 76 140 141
f 76 141 77
f 77 141 142
f 77 142 78
f 79 143 144
f 79 144 80
f 82 146 147
f 82 147 145
f 83 114 148
f 83 148 84
f 84 148 149
f 84 149 86
f 84 86 85
f 86 149 150
f 86 150 151
f 86 151 152
f 86 152 88
f 86 88 87
f 88 153 89
f 88 152 153
f 89 153 154
f 89 154 90
f 90 154 155
f 90 155 93
f 90 93 91
f 92 156 94
f 92 93 157
f 92 157 156
f 93 155 157
f 94 156 96
f 95 158 97
f 95 96 158
f 96 156 159
f 96 159 160
f 96 160 161
f 96 161 162
f 96 162 163
f 96 163 164
f 96 164 165
f 96 165 158
f 97 158 166
f 97 166 117
f 97 117 98
f 100 167 168
f 100 168 101
f 101 169 102
f 101 168 169
f 102 170 103
f 102 169 170
f 103 170 171
f 103 171 104
f 104 171 105
f 105 171 106
f 106 171 107
f 107 171 172
f 107 172 173
f 107 173 108
f 108 173 174
f 108 174 109
f 109 174 175
f 109 175 176
f 109 176 110
f 110 176 111
f 111 176 175
f 111 175 112
f 112 175 177
f 112 177 178
f 112 178 179
f 112 179 113
f 113 179 178
f 113 178 114
f 114 178 150
f 114 150 148
f 115 117 166
f 115 166 164
f 115 164 162
f 115 162 116
f 116 162 180
f 116 180 181
f 116 181 118
f 118 181 182
f 118 182 183
f 118 183 184
f 118 184 185
f 118 185 186
f 118 186 119
f 119 186 185
f 119 185 187
f 119 187 188
f 119 188 121
f 121 188 189
f 121 189 122
f 122 124 123
f 122 189 188
f 122 188 190
f 122 190 191
f 122 191 192
f 122 192 193
f 122 193 194
f 122 194 195
f 122 195 196
f 122 196 124
f 124 196 197
f 124 197 198
f 124 198 199
f 124 199 125
f 125 199 200
f 125 200 201
f 125 201 126
f 126 201 127
f 127 201 200
f 127 200 202
f 127 202 203
f 127 203 204
f 127 204 205
f 127 205 132
f 127 132 128
f 128 132 129
f 132 205 133
f 133 205 203
f 133 203 206
f 133 206 207
f 133 207 208
f 133 208 209
f 133 209 210
f 133 210 135
f 133 135 134
f 135 210 211
f 135 211 212
f 135 212 213
f 135 213 214
f 135 214 137
f 135 137 136
f 137 214 215
f 137 215 138
f 138 215 216
f 138 216 217
f 138 217 139
f 139 217 140
f 140 217 218
f 140 218 219
f 140 219 220
f 140 220 221
f 140 221 222
f 140 222 223
f 140 223 224
f 140 224 141
f 143 225 144
f 144 225 227
f 144 227 228
f 144 228 226
f 145 147 230
f 145 230 229
f 146 231 147
f 147 232 230
f 147 231 232
f 148 150 149
f 150 178 233
f 150 233 234
f 150 234 235
f 150 235 151
f 151 235 152
f 152 235 236
f 152 236 237
f 152 237 153
f 153 238 239
f 153 239 240
f 153 240 241
f 153 241 155
f 153 155 154
f 153 237 238
f 155 241 242
f 155 242 243
f 155 243 157
f 156 157 159
f 157 243 244
f 157 244 245
f 157 245 159
f 158 165 164
f 158 164 166
f 159 246 160
f 159 245 247
f 159 247 246
f 160 248 161
f 160 246 247
f 160 247 249
f 160 249 250
f 160 250 248
f 161 248 251
f 161 251 162
f 162 164 163
f 162 251 180
f 167 252 253
f 167 253 168
f 168 253 254
f 168 254 255
f 168 255 256
f 168 256 257
f 168 257 258
f 168 258 259
f 168 259 260
f 168 260 261
f 168 261 169
f 169 261 170
f 170 261 262
f 170 262 263
f 170 263 264
f 170 264 265
f 170 265 171
f 171 265 266
f 171 266 172
f 172 266 267
f 172 267 173
f 173 268 269
f 173 269 174
f 173 267 268
f 174 269 270
f 174 270 175
f 175 271 272
f 175 272 273
f 175 273 274
f 175 274 275
f 175 275 178
f 175 178 177
f 175 270 269
f 175 269 271
f 178 275 233
f 180 251 276
f 180 276 277
f 180 277 278
f 180 278 279
f 180 279 182
f 180 182 181
f 182 279 280
f 182 280 183
f 183 280 281
f 183 281 184
f 184 282 283
f 184 283 284
f 184 284 285
f 184 285 286
f 184 286 185
f 184 281 282
f 185 286 287
f 185 287 187
f 187 287 188
f 188 287 190
f 190 287 288
f 190 288 192
f 190 192 191
f 192 288 289
f 192 289 290
f 192 290 291
f 192 291 292
f 192 292 193
f 193 292 293
f 193 293 294
f 193 294 194
f 194 294 295
f 194 295 197
f 194 197 195
f 195 197 196
f 197 295 198
f 198 295 296
f 198 296 297
f 198 297 202
f 198 202 200
f 198 200 199
f 202 297 203
f 203 297 298
f 203 298 299
f 203 299 300
f 203 300 206
f 203 205 204
f 206 300 207
f 207 300 301
f 207 301 302
f 207 302 208
f 208 302 303
f 208 303 304
f 208 304 305
f 208 305 306
f 208 306 209
f 209 306 210
f 210 306 307
f 210 307 211
f 211 307 308
f 211 308 309
f 211 309 212
f 212 310 213
f 212 309 311
f 212 311 312
f 212 312 310
f 213 310 313
f 213 313 214
f 214 313 215
f 215 313 216
f 216 313 218
f 216 218 217
f 218 313 310
f 218 310 219
f 219 310 314
f 219 314 315
f 219 315 220
f 220 315 316
f 220 316 221
f 221 316 317
f 226 228 319
f 226 319 418
f 226 418 318
f 229 230 320
f 230 321 322
f 230 322 323
f 230 323 320
f 230 232 321
f 231 324 325
f 231 325 232
f 232 325 326
f 232 326 321
f 233 274 234
f 233 275 274
f 234 274 235
f 235 327 328
f 235 328 236
f 235 274 329
f 235 329 330
f 235 330 327
f 236 331 332
f 236 332 333
f 236 333 238
f 236 238 237
f 236 328 327
f 236 327 334
f 236 334 331
f 238 333 335
f 238 335 239
f 239 335 336
f 239 336 337
f 239 337 240
f 240 337 338
f 240 338 242
f 240 242 241
f 242 338 243
f 243 338 339
f 243 339 244
f 244 247 245
f 244 339 247
f 247 339 340
f 247 340 249
f 248 341 251
f 248 250 341
f 249 340 341
f 249 341 250
f 251 341 342
f 251 342 277
f 251 277 276
f 252 343 253
f 253 343 344
f 253 344 345
f 253 345 254
f 254 346 255
f 254 345 347
f 254 347 348
f 254 348 349
f 254 349 350
f 254 350 351
f 254 351 346
f 255 352 353
f 255 353 256
f 255 346 352
f 256 353 257
f 257 354 258
f 257 353 355
f 257 355 354
f 258 354 356
f 258 356 357
f 258 357 358
f 258 358 259
f 259 358 359
f 259 359 360
f 259 360 361
f 259 361 260
f 260 361 261
f 261 361 262
f 262 362 363
f 262 363 263
f 262 361 360
f 262 360 359
f 262 359 362
f 263 363 362
f 263 362 364
f 263 364 264
f 264 364 266
f 264 266 265
f 266 365 267
f 266 364 366
f 266 366 365
f 267 365 367
f 267 367 269
f 267 269 268
f 269 368 369
f 269 369 370
f 269 370 371
f 269 371 372
f 269 372 271
f 269 367 368
f 271 372 373
f 271 373 272
f 272 373 274
f 272 274 273
f 274 374 329
f 274 373 374
f 277 342 278
f 278 375 279
f 278 342 376
f 278 376 377
f 278 377 378
f 278 378 379
f 278 379 380
f 278 380 282
f 278 282 375
f 279 375 280
f 280 375 281
f 281 375 282
f 282 380 381
f 282 381 283
f 283 381 382
f 283 382 284
f 284 382 383
f 284 383 384
f 284 384 285
f 285 385 286
f 285 384 386
f 285 386 385
f 286 385 287
f 287 385 289
f 287 289 288
f 289 385 386
f 289 386 387
f 289 387 290
f 290 387 291
f 291 387 388
f 291 388 389
f 291 389 293
f 291 293 292
f 293 390 295
f 293 295 294
f 293 389 391
f 293 391 392
f 293 392 390
f 295 390 393
f 295 393 298
f 295 298 297
f 295 297 296
f 298 393 394
f 298 394 395
f 298 395 396
f 298 396 299
f 299 396 300
f 300 396 395
f 300 395 301
f 301 395 302
f 302 397 398
f 302 398 399
f 302 399 400
f 302 400 401
f 302 401 402
f 302 402 303
f 302 395 397
f 303 402 304
f 304 402 403
f 304 403 305
f 305 404 306
f 305 403 404
f 306 404 307
f 307 404 405
f 307 405 308
f 308 405 406
f 308 406 407
f 308 407 309
f 309 407 311
f 310 312 408
f 310 408 409
f 310 409 410
f 310 410 314
f 311 407 411
f 311 411 312
f 312 411 412
f 312 412 408
f 314 410 315
f 315 410 413
f 315 413 316
f 316 413 414
f 316 414 415
f 316 415 317
f 317 415 416
f 318 418 417
f 320 323 424
f 320 424 419
f 321 326 420
f 321 420 421
f 321 421 322
f 322 421 422
f 322 422 521
f 322 521 423
f 322 423 424
f 322 424 323
f 324 425 325
f 325 425 426
f 325 426 427
f 325 427 428
f 325 428 429
f 325 429 430
f 325 430 326
f 326 430 420
f 327 431 334
f 327 330 432
f 327 432 431
f 329 374 330
f 330 374 433
f 330 433 434
f 330 434 435
f 330 435 436
f 330 436 432
f 331 437 337
f 331 337 335
f 331 335 332
f 331 334 431
f 331 431 438
f 331 438 439
f 331 439 437
f 332 335 333
f 335 337 336
f 337 440 441
f 337 441 442
f 337 442 340
f 337 340 339
f 337 339 338
f 337 437 440
f 340 442 443
f 340 443 444
f 340 444 341
f 341 444 342
f 342 444 376
f 346 351 445
f 346 445 353
f 346 353 352
f 347 446 348
f 348 446 447
f 348 447 448
f 348 448 349
f 349 448 350
f 350 448 449
f 350 449 450
f 350 450 451
f 350 451 452
f 350 452 351
f 351 453 445
f 351 452 453
f 353 445 355
f 354 454 356
f 354 355 455
f 354 455 454
f 355 445 455
f 356 454 456
f 356 456 457
f 356 457 458
f 356 458 362
f 356 362 358
f 356 358 357
f 358 362 459
f 358 459 359
f 359 459 362
f 362 458 460
f 362 460 461
f 362 461 462
f 362 462 366
f 362 366 364
f 365 366 463
f 365 463 367
f 366 462 464
f 366 464 463
f 367 465 368
f 367 463 464
f 367 464 466
f 367 466 467
f 367 467 465
f 368 465 369
f 369 468 469
f 369 469 470
f 369 470 370
f 369 465 471
f 369 471 468
f 370 470 434
f 370 434 371
f 371 434 372
f 372 434 433
f 372 433 373
f 373 433 374
f 376 444 472
f 376 472 377
f 377 472 443
f 377 443 441
f 377 441 378
f 378 441 473
f 378 473 474
f 378 474 475
f 378 475 476
f 378 476 477
f 378 477 380
f 378 380 379
f 380 477 476
f 380 476 478
f 380 478 479
f 380 479 383
f 380 383 382
f 380 382 381
f 383 479 480
f 383 480 481
f 383 481 482
f 383 482 483
f 383 483 384
f 384 483 484
f 384 484 485
f 384 485 486
f 384 486 487
f 384 487 488
f 384 488 489
f 384 489 386
f 386 489 388
f 386 388 387
f 388 489 488
f 388 488 490
f 388 490 491
f 388 491 389
f 389 491 492
f 389 492 391
f 390 392 394
f 390 394 393
f 391 492 493
f 391 493 392
f 392 493 494
f 392 494 398
f 392 398 394
f 394 398 397
f 394 397 395
f 398 494 495
f 398 495 400
f 398 400 399
f 400 495 496
f 400 496 497
f 400 497 498
f 400 498 401
f 401 498 499
f 401 499 500
f 401 500 501
f 401 501 402
f 402 501 403
f 403 501 500
f 403 500 406
f 403 406 405
f 403 405 404
f 406 500 502
f 406 502 407
f 407 502 411
f 408 412 409
f 409 412 503
f 409 503 410
f 410 503 413
f 411 502 504
f 411 504 505
f 411 505 506
f 411 506 507
f 411 507 508
f 411 508 412
f 412 508 509
f 412 509 510
f 412 510 503
f 413 503 511
f 413 511 414
f 414 511 415
f 415 511 512
f 415 512 513
f 415 513 514
f 415 514 416
f 417 418 515
f 418 516 517
f 418 517 515
f 419 424 519
f 419 519 518
f 420 430 421
f 421 430 422
f 422 430 429
f 422 429 520
f 422 520 616
f 422 616 521
f 423 521 522
f 423 522 523
f 423 523 519
f 423 519 424
f 426 524 525
f 426 525 427
f 427 525 428
f 428 526 429
f 428 525 526
f 429 526 527
f 429 527 528
f 429 528 520
f 431 432 436
f 431 436 438
f 434 529 530
f 434 530 435
f 434 470 529
f 435 531 436
f 435 530 532
f 435 532 531
f 436 531 533
f 436 533 534
f 436 534 438
f 437 439 534
f 437 534 535
f 437 535 536
f 437 536 440
f 438 534 439
f 440 536 473
f 440 473 441
f 441 443 442
f 443 472 444
f 445 453 537
f 445 537 538
f 445 538 455
f 446 539 447
f 447 539 540
f 447 540 448
f 448 540 541
f 448 541 449
f 449 541 542
f 449 542 543
f 449 543 450
f 450 544 545
f 450 545 451
f 450 543 546
f 450 546 544
f 451 545 452
f 452 545 547
f 452 547 548
f 452 548 549
f 452 549 550
f 452 550 551
f 452 551 552
f 452 552 553
f 452 553 554
f 452 554 538
f 452 538 537
f 452 537 453
f 454 455 555
f 454 555 553
f 454 553 456
f 455 538 554
f 455 554 555
f 456 556 557
f 456 557 558
f 456 558 457
f 456 553 559
f 456 559 556
f 457 558 458
f 458 560 561
f 458 561 460
f 458 558 560
f 460 561 461
f 461 561 562
f 461 562 563
f 461 563 564
f 461 564 464
f 461 464 462
f 464 564 565
f 464 565 467
f 464 467 466
f 465 467 471
f 467 565 471
f 468 471 469
f 469 566 567
f 469 567 568
f 469 568 569
f 469 569 570
f 469 570 470
f 469 471 565
f 469 565 571
f 469 571 566
f 470 570 529
f 473 536 474
f 474 536 572
f 474 572 475
f 475 572 573
f 475 573 574
f 475 574 476
f 476 574 575
f 476 575 576
f 476 576 481
f 476 481 478
f 478 481 479
f 479 481 480
f 481 576 577
f 481 577 578
f 481 578 579
f 481 579 485
f 481 485 580
f 481 580 482
f 482 484 483
f 482 580 485
f 482 485 484
f 485 581 486
f 485 579 582
f 485 582 583
f 485 583 581
f 486 581 584
f 486 584 585
f 486 585 487
f 487 586 491
f 487 491 490
f 487 490 488
f 487 585 587
f 487 587 588
f 487 588 586
f 491 586 492
f 492 586 589
f 492 589 493
f 493 589 494
f 494 589 590
f 494 590 591
f 494 591 495
f 495 591 497
f 495 497 496
f 497 592 498
f 497 591 593
f 497 593 594
f 497 594 592
f 498 592 499
f 499 592 595
f 499 595 596
f 499 596 597
f 499 597 500
f 500 597 502
f 502 597 504
f 503 510 598
f 503 598 511
f 504 599 600
f 504 600 601
f 504 601 602
f 504 602 603
f 504 603 505
f 504 597 599
f 505 603 604
f 505 604 506
f 506 604 605
f 506 605 606
f 506 606 607
f 506 607 608
f 506 608 508
f 506 508 507
f 508 608 509
f 509 608 609
f 509 609 510
f 510 609 598
f 511 598 512
f 512 598 513
f 513 598 610
f 513 610 611
f 513 611 514
f 516 612 517
f 517 612 613
f 518 519 614
f 519 523 543
f 519 543 540
f 519 540 539
f 519 539 615
f 519 615 614
f 520 528 630
f 520 630 616
f 521 616 617
f 521 617 618
f 521 618 522
f 522 618 619
f 522 619 523
f 523 619 620
f 523 620 543
f 524 621 525
f 525 621 622
f 525 622 623
f 525 623 526
f 526 623 624
f 526 624 625
f 526 625 626
f 526 626 627
f 526 627 628
f 526 628 527
f 527 628 528
f 528 629 721
f 528 721 630
f 528 628 629
f 529 570 569
f 529 569 631
f 529 631 532
f 529 532 530
f 531 632 633
f 531 633 534
f 531 534 533
f 531 532 631
f 531 631 569
f 531 569 632
f 534 575 634
f 534 634 573
f 534 573 635
f 534 635 535
f 534 633 636
f 534 636 637
f 534 637 575
f 535 573 536
f 535 635 573
f 536 573 572
f 540 543 542
f 540 542 541
f 543 620 638
f 543 638 546
f 544 639 547
f 544 547 545
f 544 546 639
f 546 638 639
f 547 639 548
f 548 639 640
f 548 640 641
f 548 641 642
f 548 642 549
f 549 642 643
f 549 643 644
f 549 644 550
f 550 644 645
f 550 645 646
f 550 646 647
f 550 647 551
f 551 647 553
f 551 553 552
f 553 646 648
f 553 648 559
f 553 555 554
f 553 647 646
f 556 559 648
f 556 648 649
f 556 649 650
f 556 650 651
f 556 651 652
f 556 652 562
f 556 562 557
f 557 562 558
f 558 562 560
f 560 562 561
f 562 652 563
f 563 652 653
f 563 653 564
f 564 654 565
f 564 653 654
f 565 654 571
f 566 655 567
f 566 571 655
f 567 656 657
f 567 657 658
f 567 658 568
f 567 655 659
f 567 659 660
f 567 660 661
f 567 661 656
f 568 658 569
f 569 658 662
f 569 662 663
f 569 663 632
f 571 654 655
f 573 634 575
f 573 575 664
f 573 664 574
f 574 664 575
f 575 578 577
f 575 577 576
f 575 637 665
f 575 665 666
f 575 666 667
f 575 667 668
f 575 668 578
f 578 669 579
f 578 668 670
f 578 670 671
f 578 671 669
f 579 669 582
f 581 583 584
f 582 669 671
f 582 671 583
f 583 671 672
f 583 672 673
f 583 673 674
f 583 674 675
f 583 675 676
f 583 676 677
f 583 677 678
f 583 678 679
f 583 679 584
f 584 679 585
f 585 679 587
f 586 588 589
f 587 679 678
f 587 678 588
f 588 678 680
f 588 680 681
f 588 681 682
f 588 682 683
f 588 683 589
f 589 683 590
f 590 683 684
f 590 684 591
f 591 684 593
f 592 596 595
f 592 594 685
f 592 685 686
f 592 686 596
f 593 682 594
f 593 684 683
f 593 683 682
f 594 687 688
f 594 688 689
f 594 689 690
f 594 690 685
f 594 682 687
f 596 686 691
f 596 691 597
f 597 691 599
f 598 609 692
f 598 692 693
f 598 693 694
f 598 694 695
f 598 695 610
f 599 691 600
f 600 696 697
f 600 697 601
f 600 691 696
f 601 697 698
f 601 698 699
f 601 699 602
f 602 700 603
f 602 699 701
f 602 701 700
f 603 700 604
f 604 700 702
f 604 702 605
f 605 702 699
f 605 699 703
f 605 703 704
f 605 704 606
f 606 704 705
f 606 705 607
f 607 706 692
f 607 692 609
f 607 609 608
f 607 705 707
f 607 707 708
f 607 708 706
f 610 709 611
f 610 695 709
f 612 710 613
f 613 711 712
f 613 710 711
f 616 630 617
f 617 713 714
f 617 714 715
f 617 715 638
f 617 638 618
f 617 630 713
f 618 620 619
f 618 638 620
f 622 716 624
f 622 624 623
f 624 716 625
f 625 717 718
f 625 718 626
f 625 716 717
f 626 718 719
f 626 719 720
f 626 720 629
f 626 629 627
f 627 629 628
f 629 720 817
f 629 817 721
f 630 721 722
f 630 722 713
f 632 723 633
f 632 663 723
f 633 723 636
f 636 723 724
f 636 724 637
f 637 724 665
f 638 725 639
f 638 715 725
f 639 726 640
f 639 725 727
f 639 727 726
f 640 726 641
f 641 728 643
f 641 643 642
f 641 726 729
f 641 729 728
f 643 728 730
f 643 730 644
f 644 731 732
f 644 732 733
f 644 733 645
f 644 730 731
f 645 733 734
f 645 734 646
f 646 734 735
f 646 735 648
f 648 735 649
f 649 736 737
f 649 737 738
f 649 738 650
f 649 735 736
f 650 738 739
f 650 739 740
f 650 740 651
f 651 741 652
f 651 740 741
f 652 741 654
f 652 654 653
f 654 741 742
f 654 742 743
f 654 743 744
f 654 744 745
f 654 745 655
f 655 745 659
f 656 661 746
f 656 746 747
f 656 747 657
f 657 747 662
f 657 662 658
f 659 745 748
f 659 748 749
f 659 749 661
f 659 661 660
f 661 750 746
f 661 749 751
f 661 751 750
f 662 747 746
f 662 746 752
f 662 752 663
f 663 752 753
f 663 753 754
f 663 754 723
f 665 724 666
f 666 724 755
f 666 755 754
f 666 754 753
f 666 753 752
f 666 752 756
f 666 756 757
f 666 757 667
f 667 758 668
f 667 757 759
f 667 759 758
f 668 758 670
f 670 758 671
f 671 758 672
f 672 758 759
f 672 759 760
f 672 760 761
f 672 761 673
f 673 761 674
f 674 762 763
f 674 763 675
f 674 761 764
f 674 764 762
f 675 763 765
f 675 765 676
f 676 680 677
f 676 765 680
f 677 680 678
f 680 765 763
f 680 763 766
f 680 766 767
f 680 767 768
f 680 768 769
f 680 769 770
f 680 770 681
f 681 770 771
f 681 771 682
f 682 771 688
f 682 688 687
f 685 690 772
f 685 772 696
f 685 696 686
f 686 696 691
f 688 773 774
f 688 774 775
f 688 775 776
f 688 776 777
f 688 777 690
f 688 690 689
f 688 771 773
f 690 777 778
f 690 778 772
f 692 706 779
f 692 779 780
f 692 780 694
f 692 694 693
f 694 781 695
f 694 780 782
f 694 782 781
f 695 781 709
f 696 772 697
f 697 772 783
f 697 783 784
f 697 784 785
f 697 785 698
f 698 785 786
f 698 786 787
f 698 787 788
f 698 788 699
f 699 789 790
f 699 790 703
f 699 702 701
f 699 788 789
f 700 701 702
f 703 790 704
f 704 790 705
f 705 708 707
f 705 790 791
f 705 791 792
f 705 792 708
f 706 708 793
f 706 793 779
f 708 792 794
f 708 794 793
f 709 781 795
f 710 796 797
f 710 797 798
f 710 798 799
f 710 799 800
f 710 800 711
f 711 800 884
f 711 884 801
f 711 801 712
f 712 801 803
f 712 803 802
f 713 722 714
f 714 722 804
f 714 804 805
f 714 805 806
f 714 806 807
f 714 807 808
f 714 808 727
f 714 727 715
f 715 727 725
f 716 809 717
f 717 809 810
f 717 810 811
f 717 811 812
f 717 812 813
f 717 813 814
f 717 814 718
f 718 814 719
f 719 814 815
f 719 815 899
f 719 899 816
f 719 816 817
f 719 817 720
f 721 817 805
f 721 805 804
f 721 804 722
f 723 754 724
f 724 754 755
f 726 727 729
f 727 808 729
f 728 818 730
f 728 729 819
f 728 819 807
f 728 807 806
f 728 806 820
f 728 820 818
f 729 808 819
f 730 818 821
f 730 821 822
f 730 822 731
f 731 733 732
f 731 822 733
f 733 822 823
f 733 823 824
f 733 824 735
f 733 735 734
f 735 824 736
f 736 824 825
f 736 825 737
f 737 825 826
f 737 826 827
f 737 827 828
f 737 828 829
f 737 829 738
f 738 829 739
f 739 830 831
f 739 831 832
f 739 832 740
f 739 829 830
f 740 832 741
f 741 832 742
f 742 832 743
f 743 833 834
f 743 834 744
f 743 832 835
f 743 835 836
f 743 836 833
f 744 834 748
f 744 748 745
f 746 750 756
f 746 756 752
f 748 834 749
f 749 750 751
f 749 834 833
f 749 833 837
f 749 837 750
f 750 838 839
f 750 839 756
f 750 837 840
f 750 840 841
f 750 841 838
f 756 842 757
f 756 839 842
f 757 842 760
f 757 760 759
f 760 842 843
f 760 843 844
f 760 844 845
f 760 845 846
f 760 846 847
f 760 847 762
f 760 762 764
f 760 764 761
f 762 768 763
f 762 847 848
f 762 848 768
f 763 768 766
f 766 768 767
f 768 849 769
f 768 848 850
f 768 850 851
f 768 851 849
f 769 849 852
f 769 852 770
f 770 852 773
f 770 773 771
f 772 778 783
f 773 852 774
f 774 852 853
f 774 853 854
f 774 854 855
f 774 855 775
f 775 855 856
f 775 856 776
f 776 856 857
f 776 857 778
f 776 778 777
f 778 857 783
f 779 782 780
f 779 793 782
f 781 782 858
f 781 858 859
f 781 859 795
f 782 793 860
f 782 860 858
f 783 857 861
f 783 861 862
f 783 862 784
f 784 862 863
f 784 863 785
f 785 863 864
f 785 864 865
f 785 865 786
f 786 865 787
f 787 789 788
f 787 865 866
f 787 866 789
f 789 866 867
f 789 867 790
f 790 867 868
f 790 868 791
f 791 868 869
f 791 869 870
f 791 870 871
f 791 871 792
f 792 871 794
f 793 794 872
f 793 872 860
f 794 871 870
f 794 870 873
f 794 873 874
f 794 874 872
f 795 859 875
f 796 876 877
f 796 877 878
f 796 878 797
f 797 878 879
f 797 879 798
f 798 879 880
f 798 880 881
f 798 881 882
f 798 882 799
f 799 882 976
f 799 976 883
f 799 883 884
f 799 884 800
f 801 884 803
f 802 803 886
f 802 886 887
f 802 887 888
f 802 888 885
f 803 884 889
f 803 889 886
f 805 817 816
f 805 816 890
f 805 890 806
f 806 890 820
f 807 819 808
f 811 891 892
f 811 892 893
f 811 893 894
f 811 894 812
f 812 894 895
f 812 895 813
f 813 895 896
f 813 896 814
f 814 896 893
f 814 893 897
f 814 897 898
f 814 898 815
f 815 898 993
f 815 993 899
f 816 899 900
f 816 900 890
f 818 901 821
f 818 820 901
f 820 890 900
f 820 900 902
f 820 902 903
f 820 903 901
f 821 904 905
f 821 905 906
f 821 906 822
f 821 901 907
f 821 907 904
f 822 906 908
f 822 908 909
f 822 909 823
f 823 909 824
f 824 909 825
f 825 909 910
f 825 910 826
f 826 911 827
f 826 910 908
f 826 908 906
f 826 906 912
f 826 912 913
f 826 913 911
f 827 911 914
f 827 914 915
f 827 915 916
f 827 916 828
f 828 916 829
f 829 916 917
f 829 917 830
f 830 917 831
f 831 917 918
f 831 918 832
f 832 918 835
f 833 919 837
f 833 836 919
f 835 918 920
f 835 920 916
f 835 916 915
f 835 915 921
f 835 921 922
f 835 922 923
f 835 923 924
f 835 924 925
f 835 925 836
f 836 925 919
f 837 919 926
f 837 926 927
f 837 927 928
f 837 928 840
f 838 843 842
f 838 842 839
f 838 841 929
f 838 929 930
f 838 930 843
f 840 928 841
f 841 931 929
f 841 928 931
f 843 930 844
f 844 930 932
f 844 932 933
f 844 933 845
f 845 934 935
f 845 935 846
f 845 933 936
f 845 936 934
f 846 935 847
f 847 935 934
f 847 934 937
f 847 937 850
f 847 850 848
f 849 851 938
f 849 938 853
f 849 853 852
f 850 937 939
f 850 939 940
f 850 940 941
f 850 941 855
f 850 855 938
f 850 938 851
f 853 938 855
f 853 855 854
f 855 941 940
f 855 940 942
f 855 942 856
f 856 942 943
f 856 943 944
f 856 944 945
f 856 945 857
f 857 945 862
f 857 862 861
f 858 946 859
f 858 860 947
f 858 947 948
f 858 948 946
f 859 949 875
f 859 946 949
f 860 872 947
f 862 945 863
f 863 945 950
f 863 950 951
f 863 951 952
f 863 952 864
f 864 952 953
f 864 953 865
f 865 953 866
f 866 953 954
f 866 954 867
f 867 954 955
f 867 955 956
f 867 956 868
f 868 956 957
f 868 957 869
f 869 957 870
f 870 957 958
f 870 958 873
f 872 959 947
f 872 874 960
f 872 960 959
f 873 958 961
f 873 961 874
f 874 961 962
f 874 962 960
f 876 963 877
f 877 963 948
f 877 948 964
f 877 964 878
f 878 965 879
f 878 964 966
f 878 966 967
f 878 967 965
f 879 968 962
f 879 962 969
f 879 969 970
f 879 970 880
f 879 965 968
f 880 970 971
f 880 971 972
f 880 972 973
f 880 973 974
f 880 974 975
f 880 975 881
f 881 975 882
f 882 975 974
f 882 974 976
f 883 977 884
f 883 976 978
f 883 978 977
f 884 977 889
f 885 888 980
f 885 980 981
f 885 981 979
f 886 889 887
f 887 889 982
f 887 982 983
f 887 983 980
f 887 980 888
f 889 977 982
f 891 984 892
f 892 984 985
f 892 985 893
f 893 986 987
f 893 987 897
f 893 896 895
f 893 895 894
f 893 985 988
f 893 988 989
f 893 989 990
f 893 990 986
f 897 987 991
f 897 991 898
f 898 991 992
f 898 992 1083
f 898 1083 993
f 899 993 900
f 900 993 994
f 900 994 995
f 900 995 996
f 900 996 902
f 901 903 907
f 902 997 903
f 902 996 997
f 903 997 998
f 903 998 907
f 904 907 999
f 904 999 1000
f 904 1000 905
f 905 1000 1001
f 905 1001 1002
f 905 1002 906
f 906 1003 912
f 906 1002 1004
f 906 1004 1003
f 907 998 995
f 907 995 999
f 908 910 909
f 911 913 1005
f 911 1005 1006
f 911 1006 1007
f 911 1007 1008
f 911 1008 1009
f 911 1009 1010
f 911 1010 921
f 911 921 914
f 912 1003 913
f 913 1004 1011
f 913 1011 1005
f 913 1003 1004
f 914 921 915
f 916 920 917
f 917 920 918
f 919 925 1012
f 919 1012 1013
f 919 1013 926
f 921 1014 924
f 921 924 922
f 921 1010 1014
f 922 924 923
f 924 1014 1015
f 924 1015 1016
f 924 1016 1012
f 924 1012 925
f 926 1013 927
f 927 1013 1017
f 927 1017 928
f 928 1017 1018
f 928 1018 931
f 929 931 930
f 930 931 932
f 931 1018 1019
f 931 1019 932
f 932 1019 933
f 933 1019 1020
f 933 1020 1021
f 933 1021 1022
f 933 1022 1023
f 933 1023 1024
f 933 1024 1025
f 933 1025 936
f 934 936 937
f 936 1025 1026
f 936 1026 937
f 937 1026 1027
f 937 1027 939
f 939 1027 940
f 940 1027 1028
f 940 1028 942
f 942 1028 1029
f 942 1029 943
f 943 1029 1030
f 943 1030 1031
f 943 1031 1032
f 943 1032 944
f 944 1032 950
f 944 950 945
f 946 948 1033
f 947 959 948
f 948 959 966
f 948 966 964
f 948 963 1033
f 950 1032 951
f 951 1032 1034
f 951 1034 1035
f 951 1035 1036
f 951 1036 1037
f 951 1037 1038
f 951 1038 1039
f 951 1039 952
f 952 1039 1040
f 952 1040 1041
f 952 1041 953
f 953 1041 954
f 954 1041 955
f 955 1042 956
f 955 1041 1043
f 955 1043 1044
f 955 1044 1045
f 955 1045 1046
f 955 1046 1042
f 956 1042 957
f 957 1042 1047
f 957 1047 958
f 958 1047 1048
f 958 1048 1049
f 958 1049 1050
f 958 1050 961
f 959 960 967
f 959 967 966
f 960 962 968
f 960 968 967
f 961 1050 1051
f 961 1051 962
f 962 1051 1052
f 962 1052 970
f 962 970 969
f 965 967 968
f 970 1053 1054
f 970 1054 972
f 970 972 971
f 970 1052 1051
f 970 1051 1053
f 972 1054 1055
f 972 1055 973
f 973 1055 1056
f 973 1056 1057
f 973 1057 1058
f 973 1058 1059
f 973 1059 1060
f 973 1060 1061
f 973 1061 1062
f 973 1062 974
f 974 1062 1063
f 974 1063 1064
f 974 1064 1065
f 974 1065 976
f 976 1065 1067
f 976 1067 978
f 977 978 1066
f 977 1066 982
f 978 1067 1159
f 978 1159 1066
f 979 981 1069
f 979 1069 1068
f 980 983 1070
f 980 1070 1071
f 980 1071 1069
f 980 1069 981
f 982 1066 1072
f 982 1072 983
f 983 1072 1073
f 983 1073 1070
f 986 1074 987
f 986 990 1074
f 987 1074 991
f 988 1075 1076
f 988 1076 1077
f 988 1077 989
f 989 1077 1078
f 989 1078 1079
f 989 1079 990
f 990 1079 1080
f 990 1080 1074
f 991 1074 1081
f 991 1081 1082
f 991 1082 992
f 992 1082 1083
f 993 1083 1084
f 993 1084 994
f 994 1085 995
f 994 1084 1085
f 995 998 997
f 995 997 996
f 995 1085 1086
f 995 1086 1087
f 995 1087 1088
f 995 1088 1089
f 995 1089 1090
f 995 1090 999
f 999 1091 1001
f 999 1001 1000
f 999 1090 1091
f 1001 1092 1093
f 1001 1093 1002
f 1001 1091 1092
f 1002 1093 1004
f 1004 1094 1011
f 1004 1093 1094
f 1005 1095 1096
f 1005 1096 1006
f 1005 1011 1097
f 1005 1097 1095
f 1006 1096 1008
f 1006 1008 1007
f 1008 1096 1098
f 1008 1098 1099
f 1008 1099 1100
f 1008 1100 1101
f 1008 1101 1102
f 1008 1102 1009
f 1009 1102 1103
f 1009 1103 1104
f 1009 1104 1010
f 1010 1104 1105
f 1010 1105 1014
f 1011 1094 1106
f 1011 1106 1107
f 1011 1107 1108
f 1011 1108 1097
f 1012 1016 1013
f 1013 1016 1109
f 1013 1109 1110
f 1013 1110 1111
f 1013 1111 1017
f 1014 1105 1015
f 1015 1104 1016
f 1015 1105 1104
f 1016 1104 1112
f 1016 1112 1109
f 1017 1111 1018
f 1018 1111 1020
f 1018 1020 1019
f 1020 1111 1113
f 1020 1113 1110
f 1020 1110 1114
f 1020 1114 1021
f 1021 1114 1115
f 1021 1115 1022
f 1022 1115 1116
f 1022 1116 1023
f 1023 1116 1024
f 1024 1027 1025
f 1024 1116 1027
f 1025 1027 1026
f 1027 1030 1029
f 1027 1029 1028
f 1027 1116 1117
f 1027 1117 1118
f 1027 1118 1030
f 1030 1119 1031
f 1030 1118 1120
f 1030 1120 1119
f 1031 1119 1032
f 1032 1119 1120
f 1032 1120 1035
f 1032 1035 1034
f 1035 1120 1121
f 1035 1121 1122
f 1035 1122 1036
f 1036 1122 1123
f 1036 1123 1124
f 1036 1124 1125
f 1036 1125 1038
f 1036 1038 1037
f 1038 1125 1126
f 1038 1126 1040
f 1038 1040 1039
f 1040 1126 1127
f 1040 1127 1128
f 1040 1128 1041
f 1041 1128 1129
f 1041 1129 1043
f 1042 1046 1130
f 1042 1130 1047
f 1043 1129 1131
f 1043 1131 1132
f 1043 1132 1133
f 1043 1133 1044
f 1044 1133 1045
f 1045 1134 1046
f 1045 1133 1135
f 1045 1135 1134
f 1046 1134 1130
f 1047 1130 1048
f 1048 1130 1134
f 1048 1134 1049
f 1049 1134 1136
f 1049 1136 1137
f 1049 1137 1138
f 1049 1138 1050
f 1050 1138 1051
f 1051 1138 1139
f 1051 1139 1054
f 1051 1054 1053
f 1054 1139 1140
f 1054 1140 1055
f 1055 1141 1142
f 1055 1142 1056
f 1055 1140 1143
f 1055 1143 1137
f 1055 1137 1141
f 1056 1142 1144
f 1056 1144 1057
f 1057 1144 1058
f 1058 1144 1145
f 1058 1145 1146
f 1058 1146 1147
f 1058 1147 1059
f 1059 1147 1148
f 1059 1148 1060
f 1060 1148 1149
f 1060 1149 1150
f 1060 1150 1061
f 1061 1150 1062
f 1062 1150 1151
f 1062 1151 1152
f 1062 1152 1063
f 1063 1152 1153
f 1063 1153 1154
f 1063 1154 1155
f 1063 1155 1156
f 1063 1156 1157
f 1063 1157 1064
f 1064 1157 1158
f 1064 1158 1067
f 1064 1067 1065
f 1066 1159 1166
f 1066 1166 1072
f 1067 1158 1159
f 1068 1069 1160
f 1069 1161 1160
f 1069 1071 1161
f 1070 1073 1162
f 1070 1162 1071
f 1071 1163 1161
f 1071 1162 1164
f 1071 1164 1165
f 1071 1165 1163
f 1072 1166 1167
f 1072 1167 1073
f 1073 1167 1256
f 1073 1256 1168
f 1073 1168 1162
f 1074 1080 1169
f 1074 1169 1170
f 1074 1170 1171
f 1074 1171 1081
f 1075 1172 1173
f 1075 1173 1076
f 1076 1173 1174
f 1076 1174 1078
f 1076 1078 1077
f 1078 1174 1169
f 1078 1169 1080
f 1078 1080 1079
f 1081 1171 1082
f 1082 1171 1175
f 1082 1175 1084
f 1082 1084 1083
f 1084 1175 1085
f 1085 1175 1086
f 1086 1176 1087
f 1086 1175 1177
f 1086 1177 1176
f 1087 1178 1179
f 1087 1179 1088
f 1087 1176 1180
f 1087 1180 1178
f 1088 1179 1089
f 1089 1181 1182
f 1089 1182 1183
f 1089 1183 1184
f 1089 1184 1093
f 1089 1093 1092
f 1089 1092 1091
f 1089 1091 1090
f 1089 1179 1181
f 1093 1184 1185
f 1093 1185 1186
f 1093 1186 1094
f 1094 1186 1106
f 1095 1097 1187
f 1095 1187 1188
f 1095 1188 1096
f 1096 1188 1098
f 1097 1189 1190
f 1097 1190 1187
f 1097 1108 1189
f 1098 1188 1099
f 1099 1191 1100
f 1099 1188 1192
f 1099 1192 1191
f 1100 1191 1193
f 1100 1193 1194
f 1100 1194 1195
f 1100 1195 1196
f 1100 1196 1101
f 1101 1196 1197
f 1101 1197 1198
f 1101 1198 1102
f 1102 1198 1199
f 1102 1199 1103
f 1103 1199 1200
f 1103 1200 1112
f 1103 1112 1104
f 1106 1186 1183
f 1106 1183 1107
f 1107 1183 1201
f 1107 1201 1202
f 1107 1202 1108
f 1108 1203 1189
f 1108 1202 1204
f 1108 1204 1203
f 1109 1112 1200
f 1109 1200 1110
f 1110 1205 1206
f 1110 1206 1114
f 1110 1113 1111
f 1110 1200 1207
f 1110 1207 1205
f 1114 1206 1115
f 1115 1206 1116
f 1116 1206 1205
f 1116 1205 1208
f 1116 1208 1209
f 1116 1209 1210
f 1116 1210 1117
f 1117 1210 1211
f 1117 1211 1212
f 1117 1212 1118
f 1118 1212 1213
f 1118 1213 1120
f 1120 1213 1212
f 1120 1212 1121
f 1121 1212 1122
f 1122 1214 1123
f 1122 1212 1214
f 1123 1125 1124
f 1123 1214 1215
f 1123 1215 1216
f 1123 1216 1217
f 1123 1217 1218
f 1123 1218 1219
f 1123 1219 1220
f 1123 1220 1221
f 1123 1221 1222
f 1123 1222 1125
f 1125 1222 1223
f 1125 1223 1127
f 1125 1127 1126
f 1127 1223 1129
f 1127 1129 1128
f 1129 1223 1131
f 1131 1224 1225
f 1131 1225 1226
f 1131 1226 1227
f 1131 1227 1132
f 1131 1223 1224
f 1132 1227 1133
f 1133 1227 1135
f 1134 1135 1136
f 1135 1227 1228
f 1135 1228 1229
f 1135 1229 1230
f 1135 1230 1136
f 1136 1230 1231
f 1136 1231 1232
f 1136 1232 1137
f 1137 1143 1138
f 1137 1232 1144
f 1137 1144 1142
f 1137 1142 1141
f 1138 1143 1140
f 1138 1140 1139
f 1144 1232 1145
f 1145 1232 1231
f 1145 1231 1233
f 1145 1233 1146
f 1146 1234 1235
f 1146 1235 1147
f 1146 1233 1236
f 1146 1236 1234
f 1147 1235 1148
f 1148 1235 1237
f 1148 1237 1238
f 1148 1238 1150
f 1148 1150 1149
f 1150 1238 1237
f 1150 1237 1239
f 1150 1239 1151
f 1151 1240 1241
f 1151 1241 1152
f 1151 1239 1240
f 1152 1241 1153
f 1153 1242 1154
f 1153 1241 1243
f 1153 1243 1242
f 1154 1242 1244
f 1154 1244 1245
f 1154 1245 1155
f 1155 1245 1156
f 1156 1246 1157
f 1156 1245 1247
f 1156 1247 1246
f 1157 1246 1158
f 1158 1246 1248
f 1158 1248 1159
f 1159 1248 1166
f 1160 1161 1163
f 1160 1163 1249
f 1162 1168 1250
f 1162 1250 1164
f 1163 1165 1251
f 1163 1251 1249
f 1164 1252 1253
f 1164 1253 1165
f 1164 1250 1254
f 1164 1254 1252
f 1165 1253 1251
f 1166 1248 1255
f 1166 1255 1167
f 1167 1255 1257
f 1167 1257 1258
f 1167 1258 1256
f 1168 1256 1324
f 1168 1324 1250
f 1169 1259 1260
f 1169 1260 1170
f 1169 1174 1259
f 1170 1260 1261
f 1170 1261 1177
f 1170 1177 1171
f 1171 1177 1175
f 1172 1262 1263
f 1172 1263 1173
f 1173 1263 1174
f 1174 1264 1259
f 1174 1263 1264
f 1176 1177 1261
f 1176 1261 1180
f 1178 1180 1265
f 1178 1265 1179
f 1179 1266 1267
f 1179 1267 1268
f 1179 1268 1181
f 1179 1265 1266
f 1180 1261 1269
f 1180 1269 1270
f 1180 1270 1265
f 1181 1268 1202
f 1181 1202 1182
f 1182 1202 1201
f 1182 1201 1183
f 1183 1186 1185
f 1183 1185 1184
f 1187 1190 1271
f 1187 1271 1188
f 1188 1271 1192
f 1189 1203 1190
f 1190 1272 1273
f 1190 1273 1274
f 1190 1274 1275
f 1190 1275 1271
f 1190 1203 1276
f 1190 1276 1277
f 1190 1277 1272
f 1191 1192 1193
f 1192 1271 1275
f 1192 1275 1193
f 1193 1275 1278
f 1193 1278 1279
f 1193 1279 1280
f 1193 1280 1281
f 1193 1281 1282
f 1193 1282 1194
f 1194 1282 1281
f 1194 1281 1195
f 1195 1281 1197
f 1195 1197 1196
f 1197 1281 1283
f 1197 1283 1199
f 1197 1199 1198
f 1199 1283 1200
f 1200 1283 1284
f 1200 1284 1207
f 1202 1268 1204
f 1203 1285 1276
f 1203 1204 1285
f 1204 1268 1285
f 1205 1207 1208
f 1207 1284 1281
f 1207 1281 1286
f 1207 1286 1208
f 1208 1286 1281
f 1208 1281 1287
f 1208 1287 1209
f 1209 1288 1210
f 1209 1287 1289
f 1209 1289 1290
f 1209 1290 1288
f 1210 1288 1211
f 1211 1288 1212
f 1212 1288 1291
f 1212 1291 1214
f 1214 1292 1215
f 1214 1291 1292
f 1215 1292 1293
f 1215 1293 1294
f 1215 1294 1216
f 1216 1294 1217
f 1217 1294 1295
f 1217 1295 1296
f 1217 1296 1218
f 1218 1296 1297
f 1218 1297 1298
f 1218 1298 1219
f 1219 1298 1220
f 1220 1298 1299
f 1220 1299 1300
f 1220 1300 1221
f 1221 1300 1222
f 1222 1300 1299
f 1222 1299 1301
f 1222 1301 1302
f 1222 1302 1224
f 1222 1224 1223
f 1224 1303 1225
f 1224 1302 1304
f 1224 1304 1305
f 1224 1305 1306
f 1224 1306 1307
f 1224 1307 1303
f 1225 1303 1308
f 1225 1308 1309
f 1225 1309 1226
f 1226 1229 1228
f 1226 1228 1227
f 1226 1309 1229
f 1229 1233 1230
f 1229 1309 1310
f 1229 1310 1233
f 1230 1233 1231
f 1233 1310 1236
f 1234 1236 1311
f 1234 1311 1312
f 1234 1312 1313
f 1234 1313 1235
f 1235 1313 1314
f 1235 1314 1315
f 1235 1315 1237
f 1236 1310 1311
f 1237 1315 1240
f 1237 1240 1239
f 1240 1316 1317
f 1240 1317 1243
f 1240 1243 1241
f 1240 1315 1386
f 1240 1386 1316
f 1242 1243 1244
f 1243 1317 1244
f 1244 1318 1319
f 1244 1319 1320
f 1244 1320 1245
f 1244 1317 1318
f 1245 1320 1321
f 1245 1321 1247
f 1246 1321 1248
f 1246 1247 1321
f 1248 1321 1255
f 1249 1251 1323
f 1249 1323 1322
f 1250 1324 1330
f 1250 1330 1254
f 1251 1325 1326
f 1251 1326 1327
f 1251 1327 1323
f 1251 1253 1325
f 1252 1328 1325
f 1252 1325 1253
f 1252 1254 1329
f 1252 1329 1328
f 1254 1330 1400
f 1254 1400 1329
f 1255 1321 1331
f 1255 1331 1257
f 1256 1258 1324
f 1257 1331 1332
f 1257 1332 1258
f 1258 1332 1333
f 1258 1333 1324
f 1259 1334 1335
f 1259 1335 1260
f 1259 1264 1334
f 1260 1335 1269
f 1260 1269 1261
f 1262 1336 1337
f 1262 1337 1338
f 1262 1338 1339
f 1262 1339 1263
f 1263 1339 1340
f 1263 1340 1264
f 1264 1341 1342
f 1264 1342 1343
f 1264 1343 1334
f 1264 1340 1341
f 1265 1270 1344
f 1265 1344 1266
f 1266 1345 1267
f 1266 1344 1345
f 1267 1346 1347
f 1267 1347 1268
f 1267 1345 1348
f 1267 1348 1346
f 1268 1347 1349
f 1268 1349 1285
f 1269 1335 1350
f 1269 1350 1270
f 1270 1350 1351
f 1270 1351 1344
f 1272 1277 1352
f 1272 1352 1353
f 1272 1353 1354
f 1272 1354 1355
f 1272 1355 1356
f 1272 1356 1278
f 1272 1278 1273
f 1273 1278 1275
f 1273 1275 1274
f 1276 1285 1357
f 1276 1357 1277
f 1277 1357 1358
f 1277 1358 1352
f 1278 1359 1360
f 1278 1360 1361
f 1278 1361 1279
f 1278 1356 1362
f 1278 1362 1359
f 1279 1361 1280
f 1280 1363 1281
f 1280 1361 1363
f 1281 1363 1364
f 1281 1364 1365
f 1281 1365 1287
f 1281 1284 1283
f 1285 1349 1347
f 1285 1347 1357
f 1287 1365 1366
f 1287 1366 1289
f 1288 1290 1367
f 1288 1367 1368
f 1288 1368 1292
f 1288 1292 1291
f 1289 1366 1290
f 1290 1366 1367
f 1292 1368 1293
f 1293 1367 1369
f 1293 1369 1294
f 1293 1368 1367
f 1294 1369 1370
f 1294 1370 1295
f 1295 1370 1296
f 1296 1370 1371
f 1296 1371 1372
f 1296 1372 1297
f 1297 1372 1373
f 1297 1373 1374
f 1297 1374 1375
f 1297 1375 1298
f 1298 1375 1299
f 1299 1304 1302
f 1299 1302 1301
f 1299 1375 1376
f 1299 1376 1304
f 1303 1307 1308
f 1304 1376 1305
f 1305 1376 1377
f 1305 1377 1378
f 1305 1378 1379
f 1305 1379 1380
f 1305 1380 1306
f 1306 1380 1307
f 1307 1380 1381
f 1307 1381 1382
f 1307 1382 1309
f 1307 1309 1308
f 1309 1382 1311
f 1309 1311 1310
f 1311 1381 1312
f 1311 1382 1381
f 1312 1381 1379
f 1312 1379 1383
f 1312 1383 1313
f 1313 1383 1384
f 1313 1384 1385
f 1313 1385 1314
f 1314 1385 1386
f 1314 1386 1315
f 1316 1386 1387
f 1316 1387 1318
f 1316 1318 1317
f 1318 1387 1388
f 1318 1388 1389
f 1318 1389 1390
f 1318 1390 1391
f 1318 1391 1319
f 1319 1391 1331
f 1319 1331 1320
f 1320 1331 1321
f 1322 1323 1392
f 1323 1327 1392
f 1324 1333 1330
f 1325 1393 1326
f 1325 1328 1394
f 1325 1394 1393
f 1326 1395 1396
f 1326 1396 1397
f 1326 1397 1398
f 1326 1398 1327
f 1326 1393 1395
f 1327 1398 1399
f 1327 1399 1392
f 1328 1329 1394
f 1329 1400 1442
f 1329 1442 1394
f 1330 1333 1401
f 1330 1401 1400
f 1331 1391 1402
f 1331 1402 1332
f 1332 1402 1403
f 1332 1403 1404
f 1332 1404 1405
f 1332 1405 1333
f 1333 1405 1406
f 1333 1406 1401
f 1334 1343 1412
f 1334 1412 1407
f 1334 1407 1335
f 1335 1407 1350
f 1336 1408 1395
f 1336 1395 1338
f 1336 1338 1337
f 1338 1395 1393
f 1338 1393 1409
f 1338 1409 1340
f 1338 1340 1339
f 1340 1409 1410
f 1340 1410 1341
f 1341 1410 1411
f 1341 1411 1342
f 1342 1411 1343
f 1343 1411 1449
f 1343 1449 1412
f 1344 1351 1413
f 1344 1413 1345
f 1345 1413 1414
f 1345 1414 1348
f 1346 1415 1347
f 1346 1348 1416
f 1346 1416 1415
f 1347 1415 1357
f 1348 1414 1416
f 1350 1413 1351
f 1350 1407 1413
f 1352 1358 1353
f 1353 1358 1417
f 1353 1417 1355
f 1353 1355 1354
f 1355 1417 1418
f 1355 1418 1419
f 1355 1419 1362
f 1355 1362 1356
f 1357 1415 1358
f 1358 1415 1420
f 1358 1420 1417
f 1359 1362 1421
f 1359 1421 1422
f 1359 1422 1360
f 1360 1422 1361
f 1361 1422 1363
f 1362 1419 1423
f 1362 1423 1424
f 1362 1424 1425
f 1362 1425 1426
f 1362 1426 1421
f 1363 1371 1370
f 1363 1370 1364
f 1363 1422 1371
f 1364 1370 1365
f 1365 1370 1366
f 1366 1369 1367
f 1366 1370 1369
f 1371 1422 1372
f 1372 1422 1421
f 1372 1421 1426
f 1372 1426 1373
f 1373 1426 1427
f 1373 1427 1374
f 1374 1427 1375
f 1375 1427 1376
f 1376 1427 1377
f 1377 1428 1429
f 1377 1429 1430
f 1377 1430 1378
f 1377 1427 1428
f 1378 1430 1431
f 1378 1431 1432
f 1378 1432 1383
f 1378 1383 1379
f 1379 1381 1380
f 1383 1432 1384
f 1384 1433 1385
f 1384 1432 1433
f 1385 1433 1434
f 1385 1434 1386
f 1386 1435 1436
f 1386 1436 1387
f 1386 1434 1435
f 1387 1436 1388
f 1388 1436 1437
f 1388 1437 1438
f 1388 1438 1439
f 1388 1439 1389
f 1389 1439 1390
f 1390 1439 1402
f 1390 1402 1391
f 1393 1394 1440
f 1393 1440 1441
f 1393 1441 1409
f 1394 1442 1474
f 1394 1474 1440
f 1395 1408 1443
f 1395 1443 1396
f 1400 1401 1444
f 1400 1444 1442
f 1401 1406 1445
f 1401 1445 1444
f 1402 1439 1403
f 1403 1439 1446
f 1403 1446 1404
f 1404 1447 1405
f 1404 1446 1448
f 1404 1448 1447
f 1405 1447 1406
f 1406 1447 1445
f 1407 1412 1413
f 1409 1441 1411
f 1409 1411 1410
f 1411 1440 1474
f 1411 1474 1449
f 1411 1441 1440
f 1412 1449 1450
f 1412 1450 1413
f 1413 1450 1451
f 1413 1451 1414
f 1414 1451 1452
f 1414 1452 1453
f 1414 1453 1416
f 1415 1454 1420
f 1415 1416 1455
f 1415 1455 1454
f 1416 1453 1456
f 1416 1456 1455
f 1417 1420 1418
f 1418 1420 1419
f 1419 1457 1458
f 1419 1458 1423
f 1419 1420 1457
f 1420 1454 1455
f 1420 1455 1459
f 1420 1459 1460
f 1420 1460 1461
f 1420 1461 1462
f 1420 1462 1463
f 1420 1463 1464
f 1420 1464 1457
f 1423 1458 1424
f 1424 1458 1465
f 1424 1465 1466
f 1424 1466 1467
f 1424 1467 1429
f 1424 1429 1428
f 1424 1428 1468
f 1424 1468 1425
f 1425 1468 1426
f 1426 1468 1427
f 1427 1468 1428
f 1429 1467 1430
f 1430 1467 1466
f 1430 1466 1431
f 1431 1466 1469
f 1431 1469 1433
f 1431 1433 1432
f 1433 1469 1434
f 1434 1469 1470
f 1434 1470 1435
f 1435 1470 1437
f 1435 1437 1436
f 1437 1470 1471
f 1437 1471 1438
f 1438 1472 1473
f 1438 1473 1439
f 1438 1471 1472
f 1439 1473 1446
f 1442 1444 1445
f 1442 1445 1456
f 1442 1456 1474
f 1445 1447 1475
f 1445 1475 1456
f 1446 1473 1448
f 1447 1448 1476
f 1447 1476 1477
f 1447 1477 1475
f 1448 1473 1478
f 1448 1478 1476
f 1449 1474 1479
f 1449 1479 1453
f 1449 1453 1452
f 1449 1452 1451
f 1449 1451 1450
f 1453 1479 1456
f 1455 1456 1475
f 1455 1475 1459
f 1456 1479 1474
f 1457 1464 1458
f 1458 1464 1463
f 1458 1463 1465
f 1459 1475 1460
f 1460 1480 1461
f 1460 1475 1477
f 1460 1477 1480
f 1461 1478 1462
f 1461 1480 1478
f 1462 1472 1463
f 1462 1478 1472
f 1463 1472 1481
f 1463 1481 1465
f 1465 1481 1466
f 1466 1481 1482
f 1466 1482 1469
f 1469 1482 1470
f 1470 1482 1471
f 1471 1482 1472
f 1472 1482 1481
f 1472 1478 1473
f 1476 1478 1480
f 1476 1480 1477

