# https://github.com/mikedh/trimesh
v 0.00385586 -0.01180697 -0.00106967
v 0.00390770 -0.01191358 -0.00106967
v 0.00385154 -0.01180697 0.00666389
v 0.04791322 -0.01180697 -0.00106967
v 0.00390770 -0.01191383 -0.00079690
v 0.00424468 -0.01220052 -0.00106967
v 0.00424036 -0.01220126 -0.00022270
v 0.00423604 -0.01220380 0.00322021
v 0.00385586 -0.01180697 0.00684676
v 0.00390770 -0.01191433 -0.00022270
v 0.00390770 -0.01191478 0.00035073
v 0.00390770 -0.01191568 0.00149914
v 0.00390770 -0.01191687 0.00322021
v 0.00390770 -0.01191792 0.00494205
v 0.00390770 -0.01191851 0.00609046
v 0.00390770 -0.01191876 0.00666389
v 0.00390770 -0.01191881 0.00684676
v 0.04793915 -0.01180697 -0.00080078
v 0.04769290 -0.01190253 -0.00106967
v 0.00437860 -0.01224100 -0.00106967
v 0.00452981 -0.01228557 -0.00106967
v 0.00423604 -0.01220420 0.00379441
v 0.04544207 -0.01180697 0.00684676
v 0.00401139 -0.01200989 0.00684676
v 0.04798235 -0.01180697 -0.00022270
v 0.04796507 -0.01181613 -0.00022270
v 0.04741640 -0.01205112 -0.00022270
v 0.04741640 -0.01203096 -0.00079690
v 0.04741640 -0.01202090 -0.00106967
v 0.00474582 -0.01230141 -0.00106967
v 0.00452549 -0.01228557 0.00092494
v 0.00423604 -0.01220455 0.00436862
v 0.04530383 -0.01185139 0.00684676
v 0.04548959 -0.01180697 0.00680337
v 0.00423604 -0.01220485 0.00494205
v 0.00423604 -0.01220545 0.00609046
v 0.00423604 -0.01220580 0.00684676
v 0.04798667 -0.01180697 0.00035073
v 0.04796507 -0.01181663 0.00035073
v 0.04741640 -0.01205272 0.00035073
v 0.04686774 -0.01220346 -0.00022270
v 0.04682454 -0.01219638 -0.00106967
v 0.04712695 -0.01210789 -0.00106967
v 0.00494455 -0.01231570 -0.00106967
v 0.00452117 -0.01228557 0.00494205
v 0.04511374 -0.01191139 0.00684676
v 0.04511806 -0.01197399 0.00666389
v 0.04569697 -0.01180697 0.00660887
v 0.00443045 -0.01226032 0.00684676
v 0.04794779 -0.01180697 0.00094741
v 0.04741640 -0.01203444 0.00092494
v 0.04684182 -0.01217158 0.00207335
v 0.04685478 -0.01219544 0.00092494
v 0.04686774 -0.01220455 0.00035073
v 0.04657829 -0.01226018 -0.00022270
v 0.04656100 -0.01225724 -0.00106967
v 0.00494455 -0.01231570 0.00684676
v 0.00465510 -0.01229513 0.00684676
v 0.04511806 -0.01231570 -0.00106967
v 0.00452117 -0.01228557 0.00684676
v 0.04454347 -0.01205556 0.00684676
v 0.04454347 -0.01210904 0.00666389
v 0.04511806 -0.01212154 0.00609046
v 0.04569264 -0.01197414 0.00609046
v 0.04594322 -0.01180697 0.00634230
v 0.04789162 -0.01180697 0.00149914
v 0.04741640 -0.01201203 0.00149914
v 0.04684182 -0.01214878 0.00264678
v 0.04651780 -0.01225181 0.00207335
v 0.04654804 -0.01225485 0.00172541
v 0.04678565 -0.01220002 0.00152006
v 0.04656100 -0.01225689 0.00134261
v 0.04656964 -0.01225863 0.00092494
v 0.04657829 -0.01226022 0.00035073
v 0.04656532 -0.01225838 -0.00079690
v 0.04626723 -0.01229025 -0.00022270
v 0.04626723 -0.01228736 -0.00079690
v 0.04629315 -0.01228288 -0.00106967
v 0.03765708 -0.01231570 0.00684676
v 0.04542047 -0.01231510 -0.00106967
v 0.04569264 -0.01231565 -0.00022270
v 0.04511806 -0.01231570 0.00207335
v 0.04396457 -0.01216043 0.00684676
v 0.04456075 -0.01222163 0.00609201
v 0.04396024 -0.01220809 0.00663444
v 0.04476380 -0.01225071 0.00573710
v 0.04512238 -0.01222188 0.00553407
v 0.04569264 -0.01211053 0.00551625
v 0.04626723 -0.01194062 0.00551625
v 0.04626723 -0.01180697 0.00597732
v 0.04618083 -0.01180697 0.00607883
v 0.04780522 -0.01180697 0.00207335
v 0.04741640 -0.01194242 0.00264678
v 0.04741640 -0.01198071 0.00207335
v 0.04684182 -0.01211048 0.00322021
v 0.04644436 -0.01224270 0.00264678
v 0.04601234 -0.01226102 0.00366268
v 0.04606850 -0.01226755 0.00322021
v 0.04615491 -0.01227387 0.00264678
v 0.04622835 -0.01227865 0.00207335
v 0.04631907 -0.01227765 0.00152006
v 0.04626723 -0.01228766 0.00092494
v 0.04626723 -0.01229030 0.00035073
v 0.04569264 -0.01231460 -0.00079690
v 0.04569264 -0.01231351 -0.00106967
v 0.04599506 -0.01229922 -0.00106967
v 0.04052569 -0.01231570 0.00666389
v 0.03880625 -0.01231560 0.00684676
v 0.04569264 -0.01231565 0.00035073
v 0.04511806 -0.01231565 0.00264678
v 0.04396889 -0.01231570 0.00436862
v 0.04348070 -0.01223109 0.00684676
v 0.04414601 -0.01224708 0.00628496
v 0.04349798 -0.01223697 0.00680569
v 0.04438362 -0.01226421 0.00590215
v 0.04456075 -0.01227755 0.00553407
v 0.04493661 -0.01226421 0.00535430
v 0.04531679 -0.01224793 0.00512105
v 0.04566240 -0.01220739 0.00493507
v 0.04626723 -0.01206706 0.00494205
v 0.04689366 -0.01182992 0.00499319
v 0.04684182 -0.01180697 0.00516444
v 0.04660853 -0.01180697 0.00551625
v 0.04770154 -0.01180697 0.00264678
v 0.04741640 -0.01189297 0.00322021
v 0.04684182 -0.01205381 0.00379441
v 0.04626723 -0.01215326 0.00436862
v 0.04622835 -0.01221043 0.00383006
v 0.04635795 -0.01222467 0.00322021
v 0.04596482 -0.01225420 0.00404548
v 0.04574017 -0.01227850 0.00383006
v 0.04569264 -0.01229628 0.00322021
v 0.04569264 -0.01230395 0.00264678
v 0.04569264 -0.01230873 0.00207335
v 0.04569264 -0.01231221 0.00149914
v 0.04569264 -0.01231460 0.00092494
v 0.04110028 -0.01231540 0.00666389
v 0.04167486 -0.01231570 0.00609046
v 0.03938084 -0.01231525 0.00684676
v 0.04511806 -0.01231431 0.00322021
v 0.04454347 -0.01231505 0.00436862
v 0.04339862 -0.01231525 0.00551625
v 0.04339862 -0.01231570 0.00494205
v 0.04339430 -0.01224220 0.00684676
v 0.04319125 -0.01226037 0.00684676
v 0.04376152 -0.01226112 0.00642289
v 0.04396024 -0.01227581 0.00609201
v 0.04454347 -0.01230644 0.00494205
v 0.04512238 -0.01227591 0.00493507
v 0.04396889 -0.01230624 0.00551625
v 0.04544639 -0.01226107 0.00473825
v 0.04585681 -0.01223911 0.00436862
v 0.04684182 -0.01197608 0.00436862
v 0.04723927 -0.01180697 0.00436862
v 0.04709239 -0.01180697 0.00468245
v 0.04696278 -0.01180697 0.00495832
v 0.04692822 -0.01180697 0.00502729
v 0.04758921 -0.01180697 0.00322021
v 0.04755033 -0.01180697 0.00338836
v 0.04745528 -0.01180697 0.00376806
v 0.04744664 -0.01180697 0.00379519
v 0.04556736 -0.01227053 0.00436862
v 0.04511806 -0.01230001 0.00436862
v 0.04511806 -0.01230977 0.00379441
v 0.04052569 -0.01231271 0.00684676
v 0.03995110 -0.01231431 0.00684676
v 0.04282403 -0.01231570 0.00551625
v 0.04167486 -0.01231341 0.00666389
v 0.04282403 -0.01231186 0.00609046
v 0.04300548 -0.01226844 0.00684676
v 0.04282403 -0.01228926 0.00666389
v 0.04334246 -0.01226879 0.00663444
v 0.04339862 -0.01230131 0.00609046
v 0.04110028 -0.01231037 0.00684676
v 0.04224945 -0.01230494 0.00666389
v 0.04167486 -0.01230569 0.00684676
v 0.04282403 -0.01227586 0.00684676
v 0.04223217 -0.01229444 0.00684676
f 1 2 3
f 1 3 9
f 1 9 23
f 1 23 34
f 1 34 48
f 1 48 65
f 1 65 91
f 1 91 90
f 1 90 123
f 1 123 122
f 1 122 157
f 1 157 156
f 1 156 155
f 1 155 154
f 1 154 161
f 1 161 160
f 1 160 159
f 1 159 158
f 1 158 124
f 1 124 92
f 1 92 66
f 1 66 50
f 1 50 38
f 1 38 25
f 1 25 18
f 1 18 4
f 1 4 19
f 1 19 29
f 1 29 43
f 1 43 42
f 1 42 56
f 1 56 78
f 1 78 106
f 1 106 105
f 1 105 80
f 1 80 59
f 1 59 44
f 1 44 30
f 1 30 21
f 1 21 20
f 1 20 6
f 1 6 2
f 2 5 3
f 2 6 7
f 2 7 8
f 2 8 5
f 3 5 10
f 3 10 11
f 3 11 12
f 3 12 13
f 3 13 14
f 3 14 15
f 3 15 16
f 3 16 17
f 3 17 9
f 4 18 19
f 5 8 10
f 6 20 7
f 7 20 21
f 7 21 8
f 8 22 13
f 8 13 12
f 8 12 11
f 8 11 10
f 8 21 22
f 9 17 24
f 9 24 37
f 9 37 49
f 9 49 60
f 9 60 58
f 9 58 57
f 9 57 79
f 9 79 108
f 9 108 139
f 9 139 166
f 9 166 165
f 9 165 174
f 9 174 176
f 9 176 178
f 9 178 177
f 9 177 170
f 9 170 145
f 9 145 144
f 9 144 112
f 9 112 83
f 9 83 61
f 9 61 46
f 9 46 33
f 9 33 23
f 13 22 24
f 13 24 14
f 14 24 15
f 15 24 16
f 16 24 17
f 18 25 26
f 18 26 27
f 18 27 28
f 18 28 19
f 19 28 29
f 21 30 31
f 21 31 22
f 22 32 24
f 22 31 32
f 23 33 34
f 24 32 35
f 24 35 36
f 24 36 37
f 25 38 26
f 26 38 39
f 26 39 40
f 26 40 27
f 27 40 41
f 27 41 42
f 27 42 43
f 27 43 28
f 28 43 29
f 30 44 45
f 30 45 31
f 31 45 37
f 31 37 36
f 31 36 35
f 31 35 32
f 33 46 47
f 33 47 34
f 34 47 48
f 37 45 49
f 38 50 39
f 39 50 40
f 40 51 52
f 40 52 53
f 40 53 54
f 40 54 41
f 40 50 51
f 41 54 55
f 41 55 56
f 41 56 42
f 44 57 58
f 44 58 45
f 44 59 82
f 44 82 111
f 44 111 143
f 44 143 167
f 44 167 138
f 44 138 107
f 44 107 79
f 44 79 57
f 45 58 60
f 45 60 49
f 46 61 47
f 47 61 62
f 47 62 63
f 47 63 64
f 47 64 48
f 48 64 65
f 50 66 67
f 50 67 51
f 51 67 52
f 52 68 69
f 52 69 70
f 52 70 71
f 52 71 53
f 52 67 68
f 53 71 54
f 54 71 70
f 54 70 72
f 54 72 73
f 54 73 74
f 54 74 55
f 55 75 56
f 55 74 103
f 55 103 76
f 55 76 77
f 55 77 75
f 56 75 77
f 56 77 78
f 59 80 81
f 59 81 109
f 59 109 82
f 61 83 62
f 62 84 63
f 62 83 85
f 62 85 84
f 63 84 86
f 63 86 87
f 63 87 88
f 63 88 64
f 64 88 89
f 64 89 90
f 64 90 91
f 64 91 65
f 66 92 93
f 66 93 94
f 66 94 67
f 67 94 68
f 68 95 96
f 68 96 69
f 68 94 93
f 68 93 95
f 69 96 97
f 69 97 98
f 69 98 99
f 69 99 100
f 69 100 70
f 70 100 101
f 70 101 102
f 70 102 72
f 72 102 73
f 73 102 103
f 73 103 74
f 76 103 81
f 76 81 104
f 76 104 105
f 76 105 106
f 76 106 77
f 77 106 78
f 79 107 108
f 80 105 104
f 80 104 81
f 81 103 109
f 82 109 110
f 82 110 111
f 83 112 85
f 84 85 113
f 84 113 86
f 85 112 114
f 85 114 113
f 86 113 115
f 86 115 116
f 86 116 117
f 86 117 118
f 86 118 87
f 87 118 88
f 88 119 120
f 88 120 89
f 88 118 119
f 89 120 121
f 89 121 122
f 89 122 123
f 89 123 90
f 92 124 93
f 93 124 125
f 93 125 95
f 95 126 127
f 95 127 128
f 95 128 129
f 95 129 96
f 95 125 126
f 96 129 130
f 96 130 97
f 97 130 131
f 97 131 98
f 98 131 132
f 98 132 99
f 99 132 100
f 100 132 133
f 100 133 102
f 100 102 101
f 102 133 134
f 102 134 135
f 102 135 103
f 103 135 136
f 103 136 109
f 107 137 108
f 107 138 137
f 108 137 139
f 109 136 110
f 110 136 140
f 110 140 141
f 110 141 111
f 111 141 142
f 111 142 143
f 112 144 114
f 113 114 144
f 113 144 145
f 113 145 146
f 113 146 115
f 115 146 147
f 115 147 116
f 116 148 149
f 116 149 117
f 116 147 150
f 116 150 148
f 117 149 118
f 118 149 151
f 118 151 130
f 118 130 152
f 118 152 119
f 119 152 127
f 119 127 120
f 120 127 153
f 120 153 121
f 121 153 154
f 121 154 155
f 121 155 156
f 121 156 157
f 121 157 122
f 124 158 125
f 125 158 159
f 125 159 160
f 125 160 126
f 126 160 161
f 126 161 153
f 126 153 127
f 127 152 130
f 127 130 128
f 128 130 129
f 130 151 162
f 130 162 131
f 131 162 163
f 131 163 132
f 132 163 164
f 132 164 133
f 133 164 134
f 134 164 140
f 134 140 135
f 135 140 136
f 137 165 166
f 137 166 139
f 137 138 167
f 137 167 142
f 137 142 168
f 137 168 165
f 140 164 141
f 141 164 148
f 141 148 142
f 142 167 143
f 142 148 150
f 142 150 169
f 142 169 168
f 145 170 171
f 145 171 172
f 145 172 146
f 146 172 147
f 147 172 173
f 147 173 150
f 148 164 163
f 148 163 149
f 149 163 162
f 149 162 151
f 150 173 169
f 153 161 154
f 165 168 174
f 168 169 175
f 168 175 176
f 168 176 174
f 169 173 175
f 170 177 171
f 171 173 172
f 171 177 178
f 171 178 175
f 171 175 173
f 175 178 176

