# https://github.com/mikedh/trimesh
v 0.08483651 -0.01231598 0.01907233
v 0.08483267 -0.01231598 0.01781933
v 0.08483267 -0.01231598 0.02032641
v 0.08832781 -0.03640564 0.02032750
v 0.08471745 -0.01231598 0.01694886
v 0.08482115 -0.01231598 0.02080892
v 0.08827020 -0.03640564 0.02018405
v 0.08778626 -0.03640564 0.02120123
v 0.08452540 -0.01231598 0.01649243
v 0.08465215 -0.01231598 0.02107952
v 0.08778242 -0.03640564 0.01941356
v 0.08671083 -0.03640564 0.02150443
v 0.08446779 -0.01231598 0.02122405
v 0.08351143 -0.01231598 0.02180545
v 0.08256275 -0.01231598 0.02234338
v 0.08392624 -0.01231598 0.01575998
v 0.08772096 -0.03640564 0.01936901
v 0.08371883 -0.03159242 0.01587408
v 0.08546641 -0.03640564 0.02167179
v 0.08256275 -0.01905825 0.02234338
v 0.08255890 -0.03025529 0.02234230
v 0.08253586 -0.03150988 0.02232165
v 0.08170240 -0.03150988 0.02246293
v 0.08171008 -0.01231598 0.02248466
v 0.08250513 -0.01905825 0.02235316
v 0.08353831 -0.01231598 0.01571977
v 0.08454077 -0.03640564 0.01803233
v 0.08296219 -0.03159242 0.01583713
v 0.05162496 -0.02273714 0.02679246
v 0.05162496 -0.02399174 0.02668270
v 0.05370284 -0.02742301 0.02604370
v 0.05245457 -0.02855262 0.02599480
v 0.05476290 -0.03465345 0.02471354
v 0.05545041 -0.03640564 0.02390936
v 0.08170240 -0.02900305 0.02248466
v 0.08170240 -0.03025529 0.02248357
v 0.06105801 -0.01231598 0.02346706
v 0.05162496 -0.01906297 0.02679572
v 0.08171008 -0.01905825 0.02248466
v 0.08296219 -0.01231598 0.01569477
v 0.08154493 -0.03640564 0.01803233
v 0.06542117 -0.03640564 0.01869849
v 0.06421900 -0.03640564 0.01875718
v 0.08233614 -0.03159242 0.01589799
v 0.05162496 -0.02148491 0.02679572
v 0.05037285 -0.02148491 0.02665009
v 0.05037285 -0.02273714 0.02661532
v 0.05053800 -0.02524398 0.02629147
v 0.05218187 -0.02855262 0.02599480
v 0.05287706 -0.02780505 0.02606109
v 0.05473602 -0.03465345 0.02471354
v 0.05412917 -0.03640564 0.02382568
v 0.05101811 -0.01231598 0.02346706
v 0.05037285 -0.01906297 0.02665009
v 0.08228621 -0.03159242 0.01590342
v 0.06041275 -0.03640564 0.01916253
v 0.06293233 -0.01231598 0.01918861
v 0.06165717 -0.03640564 0.01901256
v 0.05031140 -0.01906297 0.02662293
v 0.04944721 -0.02023267 0.02621975
v 0.04945489 -0.02148491 0.02621975
v 0.04950482 -0.02273714 0.02618932
v 0.05025762 -0.02409079 0.02636211
v 0.05081838 -0.02649621 0.02611651
v 0.04961621 -0.02374176 0.02609369
v 0.05334948 -0.03372429 0.02484504
v 0.05424439 -0.03409218 0.02481678
v 0.05097970 -0.02716125 0.02598284
v 0.05389872 -0.03455912 0.02465703
v 0.05400242 -0.03640564 0.02374635
v 0.05164416 -0.01231598 0.02316495
v 0.05413301 -0.03640564 0.02101975
v 0.04939344 -0.01906297 0.02446359
v 0.04911306 -0.01906297 0.02528082
v 0.04909386 -0.01906297 0.02533841
v 0.04944721 -0.01906297 0.02621975
v 0.05915296 -0.03640564 0.01939074
v 0.06161492 -0.01231598 0.01943856
v 0.04909002 -0.02023267 0.02533841
v 0.04910154 -0.02148491 0.02533841
v 0.04917451 -0.02273714 0.02533841
v 0.04976600 -0.02457423 0.02593720
v 0.04943953 -0.02409079 0.02544708
v 0.04958164 -0.02524398 0.02508194
v 0.05326114 -0.03527131 0.02379634
v 0.05344166 -0.03603539 0.02354639
v 0.04990811 -0.02524398 0.02571007
v 0.05087984 -0.02863516 0.02488090
v 0.05329187 -0.03640564 0.02297043
v 0.05249298 -0.01231598 0.02277808
v 0.05538512 -0.01231598 0.02146748
v 0.05631075 -0.01231598 0.02106539
v 0.05532750 -0.03640564 0.02050355
v 0.05326498 -0.03640564 0.02165005
v 0.04938960 -0.02023267 0.02446251
v 0.05288090 -0.01231598 0.02260203
v 0.05789317 -0.03640564 0.01969068
v 0.05653352 -0.03640564 0.02004712
v 0.05789701 -0.01231598 0.02053289
v 0.04939344 -0.02148491 0.02446142
v 0.04941265 -0.02273714 0.02446033
v 0.04946642 -0.02399174 0.02446033
v 0.04969302 -0.02601749 0.02481678
v 0.04958164 -0.02524398 0.02452662
v 0.04969302 -0.02601749 0.02463204
v 0.05222412 -0.03346252 0.02350619
v 0.05326114 -0.03640564 0.02290848
v 0.05694065 -0.01231598 0.02083283
v 0.05323042 -0.03640564 0.02177285
v 0.05758975 -0.01231598 0.02062744
v 0.05222412 -0.03346252 0.02340838
v 0.05324578 -0.03640564 0.02284654
f 1 2 5
f 1 5 9
f 1 9 16
f 1 16 26
f 1 26 40
f 1 40 57
f 1 57 78
f 1 78 99
f 1 99 110
f 1 110 108
f 1 108 92
f 1 92 91
f 1 91 96
f 1 96 90
f 1 90 71
f 1 71 53
f 1 53 37
f 1 37 24
f 1 24 15
f 1 15 14
f 1 14 13
f 1 13 10
f 1 10 6
f 1 6 3
f 1 3 4
f 1 4 2
f 2 4 5
f 3 6 4
f 4 7 5
f 4 6 8
f 4 8 12
f 4 12 19
f 4 19 34
f 4 34 52
f 4 52 70
f 4 70 89
f 4 89 107
f 4 107 112
f 4 112 109
f 4 109 94
f 4 94 72
f 4 72 93
f 4 93 98
f 4 98 97
f 4 97 77
f 4 77 56
f 4 56 58
f 4 58 43
f 4 43 42
f 4 42 41
f 4 41 27
f 4 27 17
f 4 17 11
f 4 11 7
f 5 7 9
f 6 10 8
f 7 11 9
f 8 10 13
f 8 13 14
f 8 14 15
f 8 15 12
f 9 11 16
f 11 17 18
f 11 18 16
f 12 15 20
f 12 20 21
f 12 21 22
f 12 22 23
f 12 23 19
f 15 24 25
f 15 25 20
f 16 18 26
f 17 27 18
f 18 28 26
f 18 27 28
f 19 23 29
f 19 29 30
f 19 30 31
f 19 31 32
f 19 32 33
f 19 33 34
f 20 25 21
f 21 25 35
f 21 35 36
f 21 36 23
f 21 23 22
f 23 36 29
f 24 37 38
f 24 38 45
f 24 45 39
f 24 39 25
f 25 39 35
f 26 28 40
f 27 41 28
f 28 41 42
f 28 42 43
f 28 43 44
f 28 44 40
f 29 45 46
f 29 46 47
f 29 47 30
f 29 36 45
f 30 47 48
f 30 48 49
f 30 49 32
f 30 32 50
f 30 50 31
f 31 50 32
f 32 49 51
f 32 51 33
f 33 51 34
f 34 51 52
f 35 39 45
f 35 45 36
f 37 53 38
f 38 53 54
f 38 54 46
f 38 46 45
f 40 44 55
f 40 55 56
f 40 56 57
f 43 58 44
f 44 58 55
f 46 54 59
f 46 59 60
f 46 60 61
f 46 61 47
f 47 61 62
f 47 62 63
f 47 63 48
f 48 64 49
f 48 63 65
f 48 65 64
f 49 66 67
f 49 67 51
f 49 64 68
f 49 68 66
f 51 67 66
f 51 66 69
f 51 69 52
f 52 69 66
f 52 66 70
f 53 71 72
f 53 72 73
f 53 73 74
f 53 74 75
f 53 75 76
f 53 76 59
f 53 59 54
f 55 58 56
f 56 77 57
f 57 77 78
f 59 76 60
f 60 76 79
f 60 79 61
f 61 79 80
f 61 80 62
f 62 65 63
f 62 80 81
f 62 81 65
f 64 65 82
f 64 82 68
f 65 81 83
f 65 83 84
f 65 84 82
f 66 85 86
f 66 86 70
f 66 68 85
f 68 82 87
f 68 87 88
f 68 88 86
f 68 86 85
f 70 86 89
f 71 90 72
f 72 91 92
f 72 92 93
f 72 94 95
f 72 95 73
f 72 90 96
f 72 96 91
f 73 95 74
f 74 95 79
f 74 79 75
f 75 79 76
f 77 97 78
f 78 97 98
f 78 98 99
f 79 95 100
f 79 100 80
f 80 100 101
f 80 101 102
f 80 102 81
f 81 103 84
f 81 84 83
f 81 102 104
f 81 104 105
f 81 105 103
f 82 84 103
f 82 103 87
f 86 88 106
f 86 106 89
f 87 103 88
f 88 103 106
f 89 106 107
f 92 108 98
f 92 98 93
f 94 109 105
f 94 105 104
f 94 104 102
f 94 102 101
f 94 101 100
f 94 100 95
f 98 108 110
f 98 110 99
f 103 105 111
f 103 111 106
f 105 109 111
f 106 111 109
f 106 109 112
f 106 112 107

