# https://github.com/mikedh/trimesh
v 0.00616890 -0.00967233 0.00297836
v 0.00617134 -0.00941425 0.00297836
v 0.00623810 -0.00991913 0.00297836
v 0.00350732 -0.00993401 0.00591291
v 0.00350732 -0.00967233 0.00587188
v 0.00617215 -0.00939578 0.00297836
v 0.00350732 -0.00941425 0.00587611
v 0.00624136 -0.00992529 0.00297836
v 0.00350732 -0.01003201 0.00594850
v 0.00624136 -0.00916694 0.00297836
v 0.00350732 -0.00924955 0.00590326
v 0.00350732 -0.00923570 0.00590748
v 0.00635209 -0.01006177 0.00297836
v 0.00354314 -0.01005972 0.00593342
v 0.00350732 -0.01006126 0.00598048
v 0.00624543 -0.00915924 0.00297836
v 0.00350732 -0.00915514 0.00595574
v 0.00635860 -0.01006639 0.00297836
v 0.00350732 -0.01006331 0.00603116
v 0.00624869 -0.00915411 0.00297836
v 0.00350732 -0.00910948 0.00598470
v 0.00641559 -0.01006587 0.00297836
v 0.00610865 -0.01006792 0.00331743
v 0.00403654 -0.01006792 0.00566012
v 0.00413180 -0.01006792 0.00572648
v 0.00384439 -0.01006485 0.00596117
v 0.00350732 -0.01005920 0.00612347
v 0.00635209 -0.00900275 0.00297836
v 0.00350732 -0.00902687 0.00604866
v 0.00638710 -0.01006074 0.00310928
v 0.00615913 -0.01006587 0.00348274
v 0.00590103 -0.01006639 0.00392497
v 0.00653447 -0.01004330 0.00297836
v 0.00511534 -0.01006382 0.00492648
v 0.00485561 -0.01006279 0.00518048
v 0.00459019 -0.01006177 0.00542965
v 0.00393069 -0.01003663 0.00605288
v 0.00393069 -0.00998378 0.00631955
v 0.00367260 -0.00996223 0.00657777
v 0.00350732 -0.01003252 0.00631834
v 0.00401618 -0.01005407 0.00589843
v 0.01015027 -0.00482621 0.00297836
v 0.00350732 -0.00895811 0.00611683
v 0.00655808 -0.01003868 0.00297836
v 0.00676732 -0.00999558 0.00297836
v 0.00676732 -0.00997044 0.00322452
v 0.00650923 -0.00999712 0.00348274
v 0.00612656 -0.01006023 0.00361909
v 0.00574145 -0.01004740 0.00427972
v 0.00536122 -0.01006126 0.00465800
v 0.00607282 -0.01005048 0.00379103
v 0.00599303 -0.01000584 0.00425680
v 0.00545974 -0.01002996 0.00475574
v 0.00547846 -0.00998532 0.00503025
v 0.00547846 -0.00994324 0.00528847
v 0.00522037 -0.00998634 0.00528847
v 0.00502740 -0.01004945 0.00509843
v 0.00496227 -0.00998327 0.00554730
v 0.00468707 -0.01002944 0.00552799
v 0.00470499 -0.00997762 0.00580491
v 0.00444689 -0.01001405 0.00580491
v 0.00420670 -0.01004535 0.00580914
v 0.00418879 -0.01000122 0.00606193
v 0.00418879 -0.00995145 0.00631955
v 0.00393069 -0.00992888 0.00657777
v 0.00350732 -0.00992375 0.00683539
v 0.00350732 -0.00998070 0.00657777
v 0.00785671 -0.00482621 0.00709602
v 0.01182506 -0.00482621 0.00297836
v 0.00350732 -0.00886524 0.00622362
v 0.00350732 -0.00865488 0.00646555
v 0.00350732 -0.00849428 0.00665439
v 0.00350732 -0.00692782 0.00872498
v 0.00611353 -0.00482724 0.00869964
v 0.00702461 -0.00993914 0.00297836
v 0.00676732 -0.00994273 0.00348274
v 0.00650923 -0.00996941 0.00374156
v 0.00573575 -0.01001662 0.00451441
v 0.00625113 -0.00998891 0.00399918
v 0.00625113 -0.00995556 0.00425680
v 0.00599303 -0.00997044 0.00451441
v 0.00573575 -0.00997814 0.00477263
v 0.00573575 -0.00993760 0.00503025
v 0.00547846 -0.00988937 0.00554730
v 0.00522037 -0.00994068 0.00554730
v 0.00573575 -0.00988886 0.00528847
v 0.00496227 -0.00993760 0.00580491
v 0.00470499 -0.00992580 0.00606193
v 0.00444689 -0.00996531 0.00606193
v 0.00444689 -0.00991143 0.00631955
v 0.00418879 -0.00988937 0.00657777
v 0.00367260 -0.00990117 0.00683539
v 0.00350732 -0.00984627 0.00710024
v 0.00785671 -0.00482621 0.00912981
v 0.00605898 -0.00482724 0.00883841
v 0.00604107 -0.00482724 0.00889874
v 0.01181936 -0.00482621 0.00300430
v 0.01175260 -0.00499656 0.00297836
v 0.00350732 -0.00687908 0.00889934
v 0.00607771 -0.00484571 0.00872016
v 0.00702461 -0.00990989 0.00322452
v 0.00728352 -0.00986525 0.00297836
v 0.00676732 -0.00990989 0.00374156
v 0.00650923 -0.00993606 0.00399918
v 0.00625113 -0.00991656 0.00451441
v 0.00599303 -0.00992939 0.00477263
v 0.00546625 -0.00982780 0.00579405
v 0.00522037 -0.00988578 0.00580491
v 0.00572598 -0.00982934 0.00553764
v 0.00599303 -0.00987860 0.00503025
v 0.00598245 -0.00982626 0.00527037
v 0.00588963 -0.00980933 0.00544594
v 0.00496227 -0.00987706 0.00606193
v 0.00444445 -0.00983806 0.00658320
v 0.00472127 -0.00985038 0.00633885
v 0.00435570 -0.00980984 0.00673161
v 0.00418879 -0.00982677 0.00678048
v 0.00394453 -0.00984884 0.00685469
v 0.00367260 -0.00983396 0.00705680
v 0.00350732 -0.00981754 0.00718833
v 0.00785671 -0.00498219 0.00912317
v 0.00804560 -0.00482621 0.00909783
v 0.00608096 -0.00482724 0.00904535
v 0.00610946 -0.00482724 0.00907129
v 0.00618192 -0.00482724 0.00909482
v 0.00624461 -0.00482724 0.00910568
v 0.00645549 -0.00482724 0.00914127
v 0.00774435 -0.00482724 0.00914127
v 0.00779890 -0.00482724 0.00913946
v 0.00350732 -0.00690012 0.00902906
v 0.01179656 -0.00482621 0.00310144
v 0.01178679 -0.00487803 0.00305076
v 0.01154091 -0.00542345 0.00310626
v 0.01155556 -0.00545526 0.00297836
v 0.00702461 -0.00987295 0.00348274
v 0.00728759 -0.00983190 0.00320280
v 0.00743740 -0.00981087 0.00297836
v 0.00741460 -0.00980266 0.00310204
v 0.00702868 -0.00983293 0.00372286
v 0.00676732 -0.00986782 0.00399918
v 0.00650923 -0.00989450 0.00425680
v 0.00651900 -0.00984114 0.00451622
v 0.00627555 -0.00985397 0.00479677
v 0.00537181 -0.00980779 0.00595454
v 0.00520245 -0.00982472 0.00604986
v 0.00563479 -0.00980882 0.00570114
v 0.00580577 -0.00978624 0.00561728
v 0.00619251 -0.00982267 0.00503025
v 0.00637733 -0.00980061 0.00489812
v 0.00632196 -0.00978419 0.00503025
v 0.00623240 -0.00975032 0.00527037
v 0.00598245 -0.00975699 0.00553764
v 0.00510475 -0.00980522 0.00620130
v 0.00496227 -0.00982164 0.00625499
v 0.00464636 -0.00981805 0.00650115
v 0.00452831 -0.00979137 0.00667370
v 0.00444445 -0.00976007 0.00682453
v 0.00418879 -0.00972056 0.00709300
v 0.00386800 -0.00981446 0.00700250
v 0.00367260 -0.00978983 0.00718591
v 0.00354070 -0.00980061 0.00722091
v 0.00350732 -0.00976007 0.00734760
v 0.00779890 -0.00503093 0.00913041
v 0.00785671 -0.00503093 0.00911533
v 0.00801466 -0.00503093 0.00907370
v 0.00807328 -0.00482621 0.00909059
v 0.00607038 -0.00484519 0.00906465
v 0.00350732 -0.00691756 0.00906646
v 0.00350732 -0.00699298 0.00908939
v 0.00350732 -0.00708175 0.00911292
v 0.00367260 -0.00709458 0.00913886
v 0.00350732 -0.00725928 0.00914067
v 0.00350732 -0.00735215 0.00914188
v 0.00393069 -0.00709458 0.00914188
v 0.00446806 -0.00681494 0.00914188
v 0.00728352 -0.00554710 0.00914127
v 0.00754162 -0.00528902 0.00914067
v 0.00601501 -0.00681494 0.00914188
v 0.01176644 -0.00482621 0.00322753
v 0.01176562 -0.00482980 0.00322512
v 0.01168013 -0.00503093 0.00322512
v 0.01152055 -0.00537419 0.00327821
v 0.01146926 -0.00552401 0.00320521
v 0.01150183 -0.00557327 0.00297836
v 0.00751638 -0.00974981 0.00320280
v 0.00737552 -0.00978880 0.00327399
v 0.00732504 -0.00977136 0.00348274
v 0.00719640 -0.00981651 0.00348274
v 0.00756604 -0.00976366 0.00297836
v 0.00726154 -0.00975135 0.00372286
v 0.00711742 -0.00978880 0.00379646
v 0.00706287 -0.00977136 0.00399918
v 0.00693342 -0.00981497 0.00399918
v 0.00689678 -0.00980163 0.00412889
v 0.00676000 -0.00982472 0.00423206
v 0.00644002 -0.00982113 0.00472618
v 0.00666881 -0.00981138 0.00443236
v 0.00661181 -0.00979291 0.00460370
v 0.00546625 -0.00975494 0.00604986
v 0.00527655 -0.00978265 0.00612588
v 0.00572598 -0.00975699 0.00579405
v 0.00599303 -0.00967849 0.00580491
v 0.00651900 -0.00977957 0.00479677
v 0.00650923 -0.00972723 0.00503025
v 0.00625113 -0.00967131 0.00554730
v 0.00520245 -0.00974981 0.00630024
v 0.00496227 -0.00972005 0.00657777
v 0.00472127 -0.00977495 0.00658320
v 0.00470499 -0.00969747 0.00683539
v 0.00444689 -0.00966618 0.00709300
v 0.00394453 -0.00976931 0.00709059
v 0.00393069 -0.00968054 0.00735062
v 0.00367260 -0.00973134 0.00735062
v 0.00350732 -0.00966105 0.00760944
v 0.00780704 -0.00529004 0.00908637
v 0.00728352 -0.00580518 0.00912317
v 0.00795929 -0.00520487 0.00905138
v 0.00820437 -0.00482621 0.00904112
v 0.00772644 -0.00550144 0.00906465
v 0.00350732 -0.00838294 0.00914188
v 0.00676732 -0.00632033 0.00913464
v 0.00547846 -0.00735215 0.00914188
v 0.01169560 -0.00482621 0.00347308
v 0.01155719 -0.00520230 0.00340732
v 0.01149206 -0.00528850 0.00348937
v 0.01136016 -0.00556711 0.00350144
v 0.01130723 -0.00572360 0.00342783
v 0.01132678 -0.00580775 0.00320159
v 0.01138295 -0.00580467 0.00297836
v 0.00779808 -0.00967490 0.00297836
v 0.00779808 -0.00963488 0.00322452
v 0.00754080 -0.00969337 0.00348274
v 0.00728270 -0.00969337 0.00399918
v 0.00699937 -0.00974622 0.00423206
v 0.00676732 -0.00970414 0.00477263
v 0.00547846 -0.00966977 0.00631955
v 0.00573575 -0.00967490 0.00606193
v 0.00616808 -0.00956202 0.00597867
v 0.00599303 -0.00959229 0.00606314
v 0.00625276 -0.00959127 0.00580371
v 0.00650923 -0.00965745 0.00528847
v 0.00676732 -0.00964001 0.00503025
v 0.00650434 -0.00958306 0.00553644
v 0.00522037 -0.00965386 0.00657777
v 0.00470661 -0.00959742 0.00710326
v 0.00444689 -0.00958100 0.00730115
v 0.00420589 -0.00960871 0.00737234
v 0.00390708 -0.00958100 0.00760824
v 0.00367260 -0.00963026 0.00760944
v 0.00350732 -0.00957639 0.00780251
v 0.00756523 -0.00557122 0.00909542
v 0.00727538 -0.00604993 0.00907129
v 0.00748788 -0.00580518 0.00906646
v 0.00702542 -0.00631673 0.00908094
v 0.00789904 -0.00537676 0.00900070
v 0.00806025 -0.00529415 0.00890236
v 0.00814330 -0.00503093 0.00898803
v 0.00818401 -0.00489907 0.00902664
v 0.00766700 -0.00567229 0.00902604
v 0.00831102 -0.00482621 0.00893856
v 0.00743089 -0.00595552 0.00904173
v 0.00350732 -0.00854816 0.00912498
v 0.00367260 -0.00838294 0.00914188
v 0.00650923 -0.00657841 0.00913403
v 0.00676977 -0.00658097 0.00908456
v 0.00470499 -0.00786729 0.00914188
v 0.00522037 -0.00760972 0.00913946
v 0.00625113 -0.00683649 0.00913283
v 0.01158569 -0.00482621 0.00379345
v 0.01153521 -0.00489240 0.00385860
v 0.01126734 -0.00512791 0.00434609
v 0.01132270 -0.00528491 0.00398772
v 0.01128932 -0.00543525 0.00389480
v 0.01127630 -0.00566665 0.00359978
v 0.01101169 -0.00565485 0.00435453
v 0.01123477 -0.00580775 0.00350144
v 0.01104018 -0.00622284 0.00340249
v 0.01126001 -0.00589600 0.00327218
v 0.01128200 -0.00593551 0.00310023
v 0.01129665 -0.00596168 0.00297836
v 0.00800570 -0.00958408 0.00297836
v 0.00785671 -0.00960871 0.00322512
v 0.00785671 -0.00959742 0.00328726
v 0.00780378 -0.00958716 0.00346584
v 0.00754080 -0.00964206 0.00374156
v 0.00728270 -0.00963847 0.00425680
v 0.00702461 -0.00967285 0.00451441
v 0.00546625 -0.00958254 0.00657234
v 0.00573249 -0.00958973 0.00631774
v 0.00564456 -0.00955843 0.00648365
v 0.00590754 -0.00956048 0.00623026
v 0.00641478 -0.00955894 0.00571743
v 0.00633987 -0.00952713 0.00588878
v 0.00663624 -0.00928546 0.00618923
v 0.00646445 -0.00932035 0.00627309
v 0.00637651 -0.00928444 0.00644504
v 0.00675430 -0.00957331 0.00526796
v 0.00703763 -0.00960050 0.00477867
v 0.00694889 -0.00956818 0.00503025
v 0.00690248 -0.00954663 0.00516781
v 0.00522037 -0.00957587 0.00678048
v 0.00491342 -0.00956972 0.00702422
v 0.00479292 -0.00953123 0.00719617
v 0.00462112 -0.00955740 0.00724926
v 0.00413098 -0.00956407 0.00752196
v 0.00380449 -0.00954457 0.00773916
v 0.00367260 -0.00955894 0.00776872
v 0.00350732 -0.00951020 0.00793282
v 0.00718582 -0.00622797 0.00904957
v 0.00693993 -0.00649683 0.00905681
v 0.00785671 -0.00551683 0.00894942
v 0.00850561 -0.00554659 0.00831292
v 0.00842420 -0.00538856 0.00849391
v 0.00821983 -0.00521103 0.00880402
v 0.00868636 -0.00539266 0.00823931
v 0.00853167 -0.00503093 0.00860130
v 0.00878814 -0.00503093 0.00834187
v 0.00897377 -0.00482621 0.00826827
v 0.00835418 -0.00482621 0.00889512
v 0.00873603 -0.00522078 0.00828818
v 0.00761734 -0.00580518 0.00898200
v 0.00769794 -0.00596937 0.00879678
v 0.00787055 -0.00585085 0.00871593
v 0.00711172 -0.00640037 0.00899044
v 0.00735761 -0.00612740 0.00897958
v 0.00752940 -0.00604839 0.00888848
v 0.00350732 -0.00864462 0.00910145
v 0.00393069 -0.00838294 0.00913283
v 0.00444689 -0.00812537 0.00913464
v 0.00653202 -0.00681494 0.00908335
v 0.00655645 -0.00681494 0.00907611
v 0.00668428 -0.00675235 0.00905621
v 0.00496227 -0.00786729 0.00912679
v 0.00573575 -0.00735215 0.00912016
v 0.00599303 -0.00709458 0.00912860
v 0.00650841 -0.00683752 0.00908335
v 0.01143099 -0.00482621 0.00424232
v 0.01124047 -0.00503709 0.00452648
v 0.01113544 -0.00528850 0.00451502
v 0.01122907 -0.00528491 0.00425861
v 0.01125920 -0.00536855 0.00406675
v 0.01140575 -0.00482621 0.00431471
v 0.01130398 -0.00495551 0.00444925
v 0.01105158 -0.00547065 0.00451502
v 0.01109473 -0.00556044 0.00426343
v 0.01104262 -0.00571129 0.00418259
v 0.01085129 -0.00582366 0.00453131
v 0.01057691 -0.00632956 0.00451803
v 0.01074463 -0.00615460 0.00432919
v 0.01102634 -0.00593910 0.00387912
v 0.01075929 -0.00643885 0.00385378
v 0.01096039 -0.00631365 0.00348636
v 0.01077313 -0.00671951 0.00337474
v 0.01099459 -0.00639780 0.00322512
v 0.01101494 -0.00643526 0.00306222
v 0.01108496 -0.00634444 0.00297836
v 0.00813516 -0.00951635 0.00297836
v 0.00796092 -0.00956151 0.00322512
v 0.00793405 -0.00954765 0.00336871
v 0.00785671 -0.00957125 0.00342663
v 0.00771504 -0.00956715 0.00374156
v 0.00754650 -0.00958767 0.00398410
v 0.00745450 -0.00956459 0.00425680
v 0.00741705 -0.00954611 0.00439375
v 0.00727782 -0.00957844 0.00449330
v 0.00554441 -0.00952200 0.00665439
v 0.00537262 -0.00955124 0.00672317
v 0.00581635 -0.00952456 0.00640280
v 0.00594092 -0.00931676 0.00677928
v 0.00584811 -0.00928033 0.00695002
v 0.00665904 -0.00955330 0.00544292
v 0.00671196 -0.00906894 0.00651985
v 0.00653365 -0.00925724 0.00634247
v 0.00675430 -0.00947633 0.00553644
v 0.00703356 -0.00934704 0.00555152
v 0.00688131 -0.00927828 0.00591593
v 0.00678361 -0.00925160 0.00608667
v 0.00695703 -0.00906535 0.00626344
v 0.00688375 -0.00902071 0.00643478
v 0.00652551 -0.00912641 0.00659406
v 0.00601339 -0.00924955 0.00685348
v 0.00611353 -0.00928187 0.00669843
v 0.00718826 -0.00955997 0.00469601
v 0.00713208 -0.00953277 0.00486796
v 0.00707834 -0.00950712 0.00503025
v 0.00728108 -0.00932959 0.00527460
v 0.00719396 -0.00930445 0.00546887
v 0.00508521 -0.00954150 0.00695907
v 0.00498425 -0.00950968 0.00710326
v 0.00470661 -0.00948711 0.00734278
v 0.00510231 -0.00928957 0.00748757
v 0.00496227 -0.00931317 0.00753463
v 0.00420589 -0.00935935 0.00788757
v 0.00397629 -0.00952097 0.00769270
v 0.00413098 -0.00930599 0.00803418
v 0.00393069 -0.00933216 0.00808245
v 0.00378170 -0.00928085 0.00824595
v 0.00350732 -0.00931317 0.00830326
v 0.00685688 -0.00666871 0.00899648
v 0.00822391 -0.00598836 0.00828999
v 0.00839570 -0.00586419 0.00820733
v 0.00863426 -0.00554659 0.00818742
v 0.00875883 -0.00554659 0.00805831
v 0.00893958 -0.00538137 0.00797083
v 0.00883780 -0.00530082 0.00813373
v 0.00891759 -0.00503093 0.00820975
v 0.00895505 -0.00489343 0.00824957
v 0.00906415 -0.00482621 0.00817234
v 0.00789660 -0.00615203 0.00848486
v 0.00816366 -0.00616024 0.00823328
v 0.00703763 -0.00659124 0.00890719
v 0.00713452 -0.00668616 0.00875455
v 0.00730794 -0.00660765 0.00866284
v 0.00792103 -0.00644141 0.00824776
v 0.00350732 -0.00874723 0.00906646
v 0.00393069 -0.00858202 0.00907672
v 0.00444689 -0.00834189 0.00907792
v 0.00472046 -0.00814384 0.00909059
v 0.00624706 -0.00709304 0.00907974
v 0.00642292 -0.00700632 0.00905440
v 0.00521630 -0.00787396 0.00908215
v 0.00549800 -0.00763075 0.00909482
v 0.01102553 -0.00542293 0.00464956
v 0.01133736 -0.00482621 0.00450838
v 0.01127222 -0.00488111 0.00462060
v 0.01075847 -0.00592217 0.00462844
v 0.01049142 -0.00642192 0.00460551
v 0.01052480 -0.00647836 0.00443357
v 0.01069008 -0.00630596 0.00424835
v 0.01081791 -0.00657944 0.00347007
v 0.01047513 -0.00665948 0.00425680
v 0.01053538 -0.00674824 0.00394307
v 0.01030660 -0.00704788 0.00399858
v 0.01025042 -0.00748247 0.00335785
v 0.01070555 -0.00687959 0.00322512
v 0.01079267 -0.00674978 0.00322512
v 0.01089363 -0.00657841 0.00322512
v 0.01095876 -0.00657071 0.00297836
v 0.00814574 -0.00951071 0.00297836
v 0.00809038 -0.00949224 0.00322512
v 0.00789416 -0.00952662 0.00354066
v 0.00785671 -0.00953534 0.00358289
v 0.00843641 -0.00928187 0.00333432
v 0.00827846 -0.00933626 0.00348334
v 0.00822228 -0.00930548 0.00374096
v 0.00763606 -0.00952610 0.00406011
v 0.00758395 -0.00950096 0.00425680
v 0.00728270 -0.00940861 0.00503025
v 0.00793080 -0.00928752 0.00439134
v 0.00785671 -0.00930907 0.00444684
v 0.00779646 -0.00932600 0.00449209
v 0.00770852 -0.00930496 0.00470506
v 0.00765397 -0.00927726 0.00487701
v 0.00755709 -0.00935422 0.00478349
v 0.00522037 -0.00951841 0.00690959
v 0.00567713 -0.00931009 0.00701638
v 0.00618762 -0.00906330 0.00702664
v 0.00609399 -0.00901404 0.00719858
v 0.00592220 -0.00905663 0.00726555
v 0.00575203 -0.00923723 0.00709843
v 0.00556233 -0.00926853 0.00718893
v 0.00662321 -0.00901917 0.00669240
v 0.00645060 -0.00906638 0.00677204
v 0.00626497 -0.00912179 0.00684926
v 0.00678524 -0.00898531 0.00659406
v 0.00712475 -0.00927161 0.00564081
v 0.00703356 -0.00923826 0.00582000
v 0.00703601 -0.00911512 0.00606977
v 0.00720129 -0.00905663 0.00599013
v 0.00703601 -0.00897864 0.00633704
v 0.00719396 -0.00879598 0.00649572
v 0.00703031 -0.00885139 0.00658018
v 0.00694726 -0.00880008 0.00675575
v 0.00742356 -0.00929213 0.00517927
v 0.00736575 -0.00926186 0.00535122
v 0.00479617 -0.00927366 0.00771684
v 0.00520083 -0.00918900 0.00758833
v 0.00496227 -0.00924288 0.00766314
v 0.00547684 -0.00934139 0.00709843
v 0.00527410 -0.00925468 0.00742362
v 0.00430278 -0.00928085 0.00798773
v 0.00420589 -0.00922903 0.00812227
v 0.00393069 -0.00926032 0.00821095
v 0.00394535 -0.00912384 0.00840462
v 0.00350732 -0.00909921 0.00862905
v 0.00350732 -0.00923929 0.00842453
v 0.00659472 -0.00692423 0.00899346
v 0.00679419 -0.00681494 0.00892589
v 0.00715406 -0.00696528 0.00851201
v 0.00743007 -0.00698529 0.00827068
v 0.00848037 -0.00598630 0.00803478
v 0.00832242 -0.00607302 0.00813433
v 0.00871160 -0.00569025 0.00800703
v 0.00890050 -0.00556968 0.00787792
v 0.00898761 -0.00520949 0.00802754
v 0.00920093 -0.00564664 0.00746042
v 0.00944274 -0.00561585 0.00718109
v 0.00970980 -0.00511662 0.00719255
v 0.00920663 -0.00488162 0.00798230
v 0.00909753 -0.00482621 0.00813675
v 0.00799105 -0.00626953 0.00831231
v 0.00818401 -0.00644757 0.00799436
v 0.00824833 -0.00627569 0.00806133
v 0.00808794 -0.00635881 0.00815485
v 0.00799919 -0.00657841 0.00806435
v 0.00760268 -0.00688626 0.00819225
v 0.00350732 -0.00878879 0.00904595
v 0.00413505 -0.00854456 0.00905500
v 0.00464474 -0.00829161 0.00905681
v 0.00496227 -0.00806996 0.00907008
v 0.00597675 -0.00734496 0.00906827
v 0.00615913 -0.00725466 0.00904957
v 0.00633092 -0.00717821 0.00899044
v 0.00542636 -0.00779238 0.00906345
v 0.01080651 -0.00575028 0.00472799
v 0.01053946 -0.00625003 0.00470929
v 0.01104914 -0.00526336 0.00475091
v 0.01077068 -0.00517101 0.00542965
v 0.01067298 -0.00527003 0.00552799
v 0.01076906 -0.00542498 0.00516781
v 0.01066484 -0.00552504 0.00526796
v 0.01131538 -0.00482621 0.00456690
v 0.01128362 -0.00482621 0.00464714
v 0.01122256 -0.00482621 0.00478168
v 0.01113870 -0.00503093 0.00477324
v 0.01045559 -0.00632956 0.00478651
v 0.01024065 -0.00617563 0.00540009
v 0.01023088 -0.00642038 0.00512558
v 0.01027484 -0.00648862 0.00495303
v 0.01031474 -0.00657636 0.00476177
v 0.01026182 -0.00672567 0.00466766
v 0.01043117 -0.00657020 0.00451803
v 0.01029438 -0.00677338 0.00451502
v 0.01023739 -0.00694886 0.00435634
v 0.01017714 -0.00708688 0.00426464
v 0.00994917 -0.00741987 0.00425680
v 0.01024391 -0.00721618 0.00385740
v 0.01017877 -0.00763742 0.00322512
v 0.01037743 -0.00735215 0.00322512
v 0.01001268 -0.00751069 0.00392557
v 0.01011771 -0.00760613 0.00347731
v 0.01001838 -0.00777339 0.00342421
v 0.01004931 -0.00781649 0.00322512
v 0.01066484 -0.00703147 0.00297836
v 0.01073730 -0.00692577 0.00297836
v 0.01050526 -0.00722080 0.00308937
v 0.01082361 -0.00679698 0.00297836
v 0.00831591 -0.00941784 0.00297836
v 0.00805700 -0.00939167 0.00374096
v 0.00784449 -0.00950096 0.00374156
v 0.00849992 -0.00931728 0.00297836
v 0.00862123 -0.00924442 0.00297836
v 0.00862774 -0.00924031 0.00297836
v 0.00840791 -0.00926443 0.00348334
v 0.00835092 -0.00922749 0.00374096
v 0.00818890 -0.00928752 0.00387731
v 0.00785671 -0.00934550 0.00431652
v 0.00747404 -0.00931574 0.00503025
v 0.00814493 -0.00926238 0.00404865
v 0.00809282 -0.00922749 0.00425680
v 0.00803257 -0.00918695 0.00449269
v 0.00788113 -0.00926032 0.00456328
v 0.00785671 -0.00927931 0.00454277
v 0.00752208 -0.00919670 0.00527460
v 0.00785671 -0.00925109 0.00462663
v 0.00779646 -0.00922697 0.00478349
v 0.00626497 -0.00897607 0.00710386
v 0.00615505 -0.00878777 0.00750628
v 0.00600199 -0.00896273 0.00735243
v 0.00642211 -0.00879495 0.00726193
v 0.00624543 -0.00883908 0.00734941
v 0.00580821 -0.00900121 0.00743871
v 0.00572761 -0.00909460 0.00735243
v 0.00676977 -0.00885139 0.00683961
v 0.00728108 -0.00922338 0.00555152
v 0.00728515 -0.00910024 0.00580250
v 0.00728515 -0.00896376 0.00606977
v 0.00744473 -0.00904790 0.00571562
v 0.00753429 -0.00894785 0.00580250
v 0.00753103 -0.00882368 0.00604624
v 0.00728108 -0.00883908 0.00631231
v 0.00711905 -0.00874621 0.00666827
v 0.00768247 -0.00877905 0.00595031
v 0.00685688 -0.00874467 0.00692769
v 0.00668590 -0.00879752 0.00700793
v 0.00753429 -0.00908023 0.00552678
v 0.00470499 -0.00907766 0.00806857
v 0.00445910 -0.00912179 0.00814278
v 0.00444689 -0.00925571 0.00794489
v 0.00496064 -0.00910640 0.00787672
v 0.00545241 -0.00906945 0.00759677
v 0.00522037 -0.00905868 0.00778380
v 0.00438094 -0.00905304 0.00828999
v 0.00418879 -0.00908946 0.00833946
v 0.00404142 -0.00902174 0.00850417
v 0.00386963 -0.00904893 0.00854157
v 0.00367260 -0.00908023 0.00858381
v 0.00350732 -0.00900378 0.00875997
v 0.00651737 -0.00710330 0.00890598
v 0.00717197 -0.00724081 0.00826827
v 0.00734377 -0.00715717 0.00819708
v 0.00744391 -0.00725569 0.00802513
v 0.00752289 -0.00707559 0.00810899
v 0.00842094 -0.00615768 0.00796902
v 0.00891108 -0.00580467 0.00768064
v 0.00895667 -0.00567127 0.00773493
v 0.00857319 -0.00606327 0.00786767
v 0.00922210 -0.00482621 0.00799979
v 0.00921640 -0.00593089 0.00722030
v 0.00927014 -0.00575901 0.00728848
v 0.00945903 -0.00590729 0.00694097
v 0.00950951 -0.00573540 0.00700854
v 0.00972934 -0.00541011 0.00695846
v 0.00999558 -0.00491087 0.00697113
v 0.00975702 -0.00494422 0.00725168
v 0.00945414 -0.00482621 0.00771141
v 0.00944763 -0.00485033 0.00770296
v 0.00928479 -0.00482621 0.00792257
v 0.00850399 -0.00683649 0.00728787
v 0.00869206 -0.00669539 0.00721246
v 0.00843397 -0.00643577 0.00772709
v 0.00834115 -0.00635573 0.00789602
v 0.00785671 -0.00671848 0.00808667
v 0.00793894 -0.00672002 0.00800703
v 0.00785671 -0.00689755 0.00793343
v 0.00769224 -0.00699298 0.00801910
v 0.00350732 -0.00884421 0.00897536
v 0.00357082 -0.00877853 0.00903750
v 0.00430766 -0.00850557 0.00902363
v 0.00374262 -0.00874621 0.00900251
v 0.00393069 -0.00871132 0.00896148
v 0.00481734 -0.00824287 0.00901880
v 0.00512755 -0.00801916 0.00904595
v 0.00587986 -0.00749222 0.00903750
v 0.00605165 -0.00742603 0.00897838
v 0.00625194 -0.00735317 0.00889874
v 0.00634476 -0.00745066 0.00874429
v 0.00664601 -0.00774569 0.00826043
v 0.00663054 -0.00747324 0.00850598
v 0.00529934 -0.00796477 0.00899889
v 0.00559815 -0.00772978 0.00902182
v 0.01102308 -0.00516023 0.00490235
v 0.01072998 -0.00507814 0.00560160
v 0.01079511 -0.00500784 0.00552799
v 0.01054353 -0.00526849 0.00578440
v 0.01051259 -0.00542704 0.00568546
v 0.01037662 -0.00580159 0.00554307
v 0.01083826 -0.00482621 0.00560039
v 0.01105077 -0.00503093 0.00496147
v 0.01024553 -0.00592679 0.00566796
v 0.01021052 -0.00607866 0.00556781
v 0.01002570 -0.00624541 0.00573915
v 0.00996871 -0.00641730 0.00563297
v 0.01017226 -0.00657636 0.00503628
v 0.00972364 -0.00695091 0.00539828
v 0.00981483 -0.00709868 0.00502844
v 0.00978877 -0.00734342 0.00475393
v 0.00973992 -0.00748812 0.00465499
v 0.00997034 -0.00719360 0.00459465
v 0.01000616 -0.00724440 0.00442331
v 0.00976923 -0.00752762 0.00451502
v 0.00998499 -0.00772978 0.00359616
v 0.01020564 -0.00769232 0.00297836
v 0.00974562 -0.00801095 0.00364201
v 0.00977575 -0.00804892 0.00348334
v 0.00995080 -0.00794528 0.00322512
v 0.00997767 -0.00797914 0.00304593
v 0.01005339 -0.00790166 0.00297836
v 0.01060540 -0.00711715 0.00297836
v 0.01045722 -0.00733060 0.00297836
v 0.00859680 -0.00912692 0.00350325
v 0.00883210 -0.00909460 0.00297836
v 0.00853900 -0.00909819 0.00374096
v 0.00831591 -0.00908536 0.00423266
v 0.00818727 -0.00902892 0.00464594
v 0.00805130 -0.00907869 0.00474850
v 0.00785671 -0.00919260 0.00477565
v 0.00772237 -0.00906278 0.00528847
v 0.00785671 -0.00909460 0.00501095
v 0.00604432 -0.00872004 0.00767822
v 0.00587253 -0.00877392 0.00774398
v 0.00597268 -0.00881855 0.00759919
v 0.00632766 -0.00873595 0.00743267
v 0.00625276 -0.00864205 0.00761065
v 0.00659472 -0.00874108 0.00718048
v 0.00534982 -0.00902789 0.00773855
v 0.00761652 -0.00899506 0.00559979
v 0.00773784 -0.00881650 0.00580491
v 0.00736575 -0.00873492 0.00639436
v 0.00729736 -0.00865385 0.00659406
v 0.00740158 -0.00850300 0.00669300
v 0.00722897 -0.00857432 0.00678893
v 0.00715162 -0.00850967 0.00696148
v 0.00704903 -0.00865950 0.00685891
v 0.00761001 -0.00872363 0.00612105
v 0.00792021 -0.00876365 0.00566374
v 0.00786811 -0.00872158 0.00580431
v 0.00795929 -0.00853995 0.00597384
v 0.00785671 -0.00859433 0.00601789
v 0.00697901 -0.00857227 0.00704353
v 0.00688945 -0.00850711 0.00721608
v 0.00767596 -0.00903200 0.00542784
v 0.00445910 -0.00896068 0.00837807
v 0.00504613 -0.00900942 0.00796963
v 0.00496064 -0.00894426 0.00811382
v 0.00541170 -0.00880111 0.00803961
v 0.00522037 -0.00897299 0.00791231
v 0.00444689 -0.00882163 0.00858260
v 0.00418879 -0.00899762 0.00846918
v 0.00411226 -0.00878674 0.00879255
v 0.00366282 -0.00884421 0.00890960
v 0.00419449 -0.00885909 0.00865801
v 0.00350732 -0.00890527 0.00889331
v 0.00708160 -0.00741218 0.00819406
v 0.00726316 -0.00733367 0.00811020
v 0.00690981 -0.00749325 0.00826525
v 0.00681862 -0.00766564 0.00819104
v 0.00753022 -0.00734188 0.00785620
v 0.00761652 -0.00716538 0.00794187
v 0.00692121 -0.00776262 0.00801910
v 0.00709381 -0.00768104 0.00793886
v 0.00735517 -0.00742706 0.00794187
v 0.00867985 -0.00641781 0.00745439
v 0.00898436 -0.00622746 0.00725168
v 0.00892492 -0.00639934 0.00718169
v 0.00917081 -0.00606275 0.00716661
v 0.00927746 -0.00606275 0.00703689
v 0.00922780 -0.00620693 0.00697777
v 0.00941018 -0.00607353 0.00684685
v 0.00951602 -0.00599503 0.00676902
v 0.00974725 -0.00621104 0.00621095
v 0.00997767 -0.00616794 0.00591110
v 0.00974399 -0.00595090 0.00646495
v 0.00968863 -0.00585341 0.00663750
v 0.00959907 -0.00579441 0.00682634
v 0.00969107 -0.00554659 0.00689934
v 0.01002570 -0.00599605 0.00598772
v 0.01051177 -0.00516895 0.00594126
v 0.01000372 -0.00518178 0.00672558
v 0.01054271 -0.00503093 0.00599194
v 0.01022029 -0.00483545 0.00665982
v 0.01008514 -0.00482621 0.00688667
v 0.01001430 -0.00482621 0.00699587
v 0.00978552 -0.00482621 0.00728968
v 0.00812865 -0.00741320 0.00715937
v 0.00837372 -0.00714127 0.00714489
v 0.00864321 -0.00685856 0.00711291
v 0.00812295 -0.00714896 0.00741156
v 0.00869613 -0.00695912 0.00695786
v 0.00876453 -0.00678724 0.00703991
v 0.00893632 -0.00667436 0.00693131
v 0.00899657 -0.00650247 0.00700914
v 0.00875313 -0.00652300 0.00728245
v 0.00785671 -0.00714435 0.00770416
v 0.00795034 -0.00724953 0.00750507
v 0.00778180 -0.00707559 0.00784896
v 0.00428405 -0.00875750 0.00875515
v 0.00420996 -0.00865077 0.00890719
v 0.00444689 -0.00858972 0.00885590
v 0.00444689 -0.00847068 0.00898441
v 0.00472453 -0.00839423 0.00891080
v 0.00496227 -0.00832548 0.00884685
v 0.00513569 -0.00827827 0.00879557
v 0.00530748 -0.00822953 0.00874610
v 0.00521792 -0.00812434 0.00889753
v 0.00561362 -0.00800120 0.00877445
v 0.00589370 -0.00776210 0.00879135
v 0.00617297 -0.00752095 0.00880703
v 0.00650923 -0.00780110 0.00831111
v 0.00665415 -0.00800993 0.00800945
v 0.00673638 -0.00784009 0.00809994
v 0.00674615 -0.00759176 0.00831292
v 0.00650923 -0.00792988 0.00819225
v 0.00547846 -0.00804636 0.00881608
v 0.00549800 -0.00787396 0.00895786
v 0.01066891 -0.00500784 0.00578078
v 0.01076661 -0.00490625 0.00567942
v 0.01029276 -0.00575490 0.00575484
v 0.01046455 -0.00534084 0.00585740
v 0.01078371 -0.00482621 0.00571200
v 0.00992556 -0.00632700 0.00581638
v 0.00973748 -0.00671335 0.00568304
v 0.01005094 -0.00657225 0.00527279
v 0.00954859 -0.00709509 0.00553945
v 0.00970898 -0.00718745 0.00511291
v 0.00944519 -0.00718129 0.00562030
v 0.00949160 -0.00724440 0.00544835
v 0.00934911 -0.00735420 0.00554971
v 0.00947206 -0.00747631 0.00515393
v 0.00952009 -0.00753532 0.00498199
v 0.00945007 -0.00770720 0.00485529
v 0.00920744 -0.00798427 0.00488304
v 0.00949730 -0.00776467 0.00468334
v 0.00943216 -0.00794374 0.00451502
v 0.00946717 -0.00798581 0.00436720
v 0.00966746 -0.00765641 0.00451502
v 0.00970898 -0.00770772 0.00432678
v 0.00990357 -0.00733932 0.00451140
v 0.00974399 -0.00775184 0.00415483
v 0.00977575 -0.00779186 0.00399858
v 0.00967479 -0.00792065 0.00399858
v 0.00971143 -0.00796785 0.00381396
v 0.00954615 -0.00808278 0.00399858
v 0.00946880 -0.00824595 0.00385197
v 0.00966746 -0.00817822 0.00348334
v 0.00970654 -0.00822388 0.00327399
v 0.00980506 -0.00813307 0.00320280
v 0.00973504 -0.00825621 0.00310144
v 0.00991253 -0.00808176 0.00297836
v 0.00876697 -0.00907664 0.00322512
v 0.00872952 -0.00904893 0.00343025
v 0.00869858 -0.00902533 0.00360219
v 0.00887851 -0.00906022 0.00297836
v 0.00895179 -0.00876314 0.00385016
v 0.00860739 -0.00896119 0.00399858
v 0.00847875 -0.00905252 0.00399858
v 0.00834929 -0.00896068 0.00451502
v 0.00847630 -0.00879598 0.00471110
v 0.00843315 -0.00876160 0.00488244
v 0.00813353 -0.00899352 0.00481788
v 0.00796174 -0.00905098 0.00495363
v 0.00785671 -0.00902636 0.00516902
v 0.00785671 -0.00897402 0.00528847
v 0.00635046 -0.00849326 0.00771563
v 0.00617867 -0.00854816 0.00778018
v 0.00596779 -0.00862461 0.00784836
v 0.00573575 -0.00857945 0.00807460
v 0.00558431 -0.00875647 0.00797868
v 0.00546707 -0.00889398 0.00785801
v 0.00652388 -0.00865231 0.00736450
v 0.00645386 -0.00856458 0.00754368
v 0.00671766 -0.00856817 0.00729572
v 0.00779727 -0.00889860 0.00554609
v 0.00785671 -0.00883343 0.00560280
v 0.00747322 -0.00856252 0.00652045
v 0.00743252 -0.00827160 0.00698622
v 0.00755220 -0.00844708 0.00659587
v 0.00752777 -0.00831521 0.00681487
v 0.00717849 -0.00827314 0.00724685
v 0.00727131 -0.00832650 0.00708154
v 0.00805130 -0.00895504 0.00503628
v 0.00825566 -0.00881907 0.00503086
v 0.00820355 -0.00878418 0.00518711
v 0.00838511 -0.00871953 0.00503086
v 0.00823205 -0.00855380 0.00554669
v 0.00813109 -0.00846401 0.00585137
v 0.00799349 -0.00830854 0.00626887
v 0.00788927 -0.00848043 0.00614458
v 0.00822716 -0.00829161 0.00599315
v 0.00816610 -0.00823517 0.00616389
v 0.00701158 -0.00832291 0.00733976
v 0.00691632 -0.00826904 0.00749843
v 0.00662484 -0.00850300 0.00746827
v 0.00510964 -0.00877853 0.00826525
v 0.00520571 -0.00883395 0.00812589
v 0.00528224 -0.00873492 0.00821095
v 0.00461624 -0.00878726 0.00853433
v 0.00761571 -0.00742706 0.00768426
v 0.00795604 -0.00751120 0.00725349
v 0.00769875 -0.00725569 0.00776993
v 0.00718419 -0.00802635 0.00750990
v 0.00735598 -0.00794117 0.00742423
v 0.00682594 -0.00793399 0.00793403
v 0.00692202 -0.00802019 0.00776208
v 0.00700751 -0.00785087 0.00785077
v 0.00709381 -0.00793912 0.00768184
v 0.00916836 -0.00637882 0.00689210
v 0.00927095 -0.00630391 0.00681789
v 0.00945903 -0.00616691 0.00668093
v 0.00979285 -0.00630647 0.00604805
v 0.00974644 -0.00646758 0.00595273
v 0.00968700 -0.00663998 0.00585499
v 0.01024472 -0.00566819 0.00592679
v 0.01071369 -0.00482621 0.00584353
v 0.01068845 -0.00482621 0.00588938
v 0.01058668 -0.00482621 0.00606314
v 0.01050852 -0.00482621 0.00619225
v 0.01023006 -0.00482621 0.00665017
v 0.00820599 -0.00750402 0.00698802
v 0.00845106 -0.00723208 0.00697354
v 0.00899331 -0.00700684 0.00649632
v 0.00893143 -0.00692936 0.00666887
v 0.00884839 -0.00685856 0.00685831
v 0.00864240 -0.00710946 0.00685710
v 0.00921966 -0.00722593 0.00593644
v 0.00922536 -0.00697503 0.00620069
v 0.00922617 -0.00671951 0.00646072
v 0.00908206 -0.00656866 0.00682573
v 0.00444689 -0.00871850 0.00871171
v 0.00478803 -0.00874723 0.00848486
v 0.00470987 -0.00864462 0.00864414
v 0.00463252 -0.00854200 0.00880281
v 0.00480432 -0.00849633 0.00875334
v 0.00512429 -0.00852969 0.00853132
v 0.00529690 -0.00848248 0.00848124
v 0.00521630 -0.00838089 0.00863810
v 0.00547846 -0.00830444 0.00856631
v 0.00562258 -0.00826442 0.00852287
v 0.00547846 -0.00817514 0.00869542
v 0.00570318 -0.00810126 0.00861880
v 0.00590591 -0.00802891 0.00854218
v 0.00578460 -0.00793399 0.00871412
v 0.00607771 -0.00796016 0.00848004
v 0.00636756 -0.00798632 0.00824534
v 0.00664927 -0.00826185 0.00774760
v 0.00673720 -0.00810023 0.00784112
v 0.00619576 -0.00805303 0.00830809
v 0.00608096 -0.00822542 0.00822423
v 0.00636837 -0.00824646 0.00798773
v 0.00650923 -0.00819413 0.00793282
v 0.00978226 -0.00656353 0.00578319
v 0.00950625 -0.00700992 0.00572829
v 0.00939471 -0.00709509 0.00581034
v 0.00926118 -0.00727672 0.00580431
v 0.00920337 -0.00746400 0.00565167
v 0.00925222 -0.00752301 0.00547912
v 0.00918220 -0.00769540 0.00535423
v 0.00923024 -0.00775389 0.00518229
v 0.00916674 -0.00793399 0.00503086
v 0.00898843 -0.00803096 0.00520883
v 0.00902344 -0.00812024 0.00500672
v 0.00913824 -0.00812588 0.00478772
v 0.00925385 -0.00803968 0.00471110
v 0.00928805 -0.00812588 0.00449390
v 0.00939471 -0.00812178 0.00427128
v 0.00950462 -0.00803353 0.00419526
v 0.00943786 -0.00821157 0.00399858
v 0.00925222 -0.00828853 0.00425680
v 0.00930922 -0.00834549 0.00399858
v 0.00921070 -0.00850557 0.00385257
v 0.00935644 -0.00839320 0.00376569
v 0.00953882 -0.00831727 0.00348334
v 0.00959256 -0.00837011 0.00318892
v 0.00947857 -0.00851532 0.00310445
v 0.00949892 -0.00853635 0.00297836
v 0.00963896 -0.00839269 0.00297836
v 0.00975295 -0.00827519 0.00297836
v 0.00893306 -0.00900788 0.00302180
v 0.00882152 -0.00896017 0.00350325
v 0.00898191 -0.00878931 0.00367761
v 0.00901041 -0.00896171 0.00297836
v 0.00900064 -0.00855175 0.00421215
v 0.00879709 -0.00860100 0.00451502
v 0.00869288 -0.00876314 0.00436962
v 0.00873440 -0.00879598 0.00419767
v 0.00878488 -0.00883189 0.00399858
v 0.00921884 -0.00877135 0.00309963
v 0.00928072 -0.00857381 0.00348334
v 0.00924408 -0.00853789 0.00368002
v 0.00917895 -0.00847427 0.00399858
v 0.00922129 -0.00825775 0.00439315
v 0.00852678 -0.00883189 0.00451502
v 0.00874336 -0.00855123 0.00472377
v 0.00869858 -0.00850916 0.00489511
v 0.00874010 -0.00828956 0.00521969
v 0.00852841 -0.00859023 0.00503086
v 0.00650923 -0.00831060 0.00780251
v 0.00627393 -0.00839782 0.00788395
v 0.00560466 -0.00851070 0.00825258
v 0.00550777 -0.00865950 0.00814580
v 0.00735028 -0.00819772 0.00715876
v 0.00767677 -0.00826031 0.00671472
v 0.00760512 -0.00819413 0.00688727
v 0.00769550 -0.00802173 0.00699165
v 0.00752289 -0.00810998 0.00707611
v 0.00785671 -0.00826955 0.00648787
v 0.00726723 -0.00811152 0.00733554
v 0.00708811 -0.00819772 0.00741880
v 0.00847305 -0.00853892 0.00520461
v 0.00850480 -0.00830906 0.00554669
v 0.00829393 -0.00836447 0.00577294
v 0.00792103 -0.00824851 0.00644081
v 0.00845595 -0.00826493 0.00569451
v 0.00839977 -0.00821054 0.00586645
v 0.00848363 -0.00803866 0.00598772
v 0.00824833 -0.00806329 0.00627369
v 0.00818401 -0.00799402 0.00644564
v 0.00808875 -0.00815616 0.00635756
v 0.00682106 -0.00819156 0.00767038
v 0.00674778 -0.00831419 0.00759436
v 0.00520327 -0.00863230 0.00837325
v 0.00496227 -0.00857330 0.00857777
v 0.00543206 -0.00856252 0.00830930
v 0.00785671 -0.00766821 0.00719677
v 0.00787218 -0.00768309 0.00716600
v 0.00795522 -0.00776570 0.00699345
v 0.00804153 -0.00759330 0.00707671
v 0.00744147 -0.00802532 0.00725168
v 0.00785671 -0.00769079 0.00717385
v 0.00951439 -0.00676415 0.00599134
v 0.00945496 -0.00693603 0.00590024
v 0.00812783 -0.00767591 0.00689149
v 0.00819541 -0.00774928 0.00671955
v 0.00825403 -0.00759740 0.00681729
v 0.00872870 -0.00777031 0.00597083
v 0.00881989 -0.00759689 0.00604866
v 0.00915371 -0.00740602 0.00580431
v 0.00926281 -0.00707457 0.00603900
v 0.00865543 -0.00794220 0.00586464
v 0.00877592 -0.00786062 0.00578923
v 0.00895830 -0.00773696 0.00567339
v 0.00926688 -0.00681802 0.00630024
v 0.00579355 -0.00820080 0.00845952
v 0.00619739 -0.00830187 0.00805168
v 0.00893713 -0.00797042 0.00538078
v 0.00871242 -0.00800890 0.00569330
v 0.00875801 -0.00805764 0.00554669
v 0.00883862 -0.00813409 0.00530054
v 0.00891189 -0.00820336 0.00507671
v 0.00896156 -0.00825570 0.00490476
v 0.00917895 -0.00821157 0.00456509
v 0.00940936 -0.00844656 0.00348334
v 0.00935644 -0.00867694 0.00297836
v 0.00909672 -0.00889706 0.00297836
v 0.00895912 -0.00851121 0.00438410
v 0.00892574 -0.00848043 0.00451502
v 0.00923920 -0.00878777 0.00297836
v 0.00899657 -0.00828853 0.00477324
v 0.00909102 -0.00833420 0.00449390
v 0.00882966 -0.00843528 0.00479496
v 0.00882803 -0.00832599 0.00500672
v 0.00868474 -0.00823774 0.00539164
v 0.00857889 -0.00838859 0.00529813
v 0.00793975 -0.00800839 0.00672075
v 0.00786811 -0.00793758 0.00689270
v 0.00761408 -0.00794015 0.00716419
v 0.00785671 -0.00781598 0.00704293
v 0.00863344 -0.00818694 0.00554669
v 0.00842012 -0.00796888 0.00615846
v 0.00890050 -0.00787755 0.00557083
f 1 2 6
f 1 6 10
f 1 10 16
f 1 16 20
f 1 20 28
f 1 28 42
f 1 42 69
f 1 69 98
f 1 98 134
f 1 134 184
f 1 184 229
f 1 229 280
f 1 280 356
f 1 356 438
f 1 438 547
f 1 547 545
f 1 545 544
f 1 544 669
f 1 669 670
f 1 670 663
f 1 663 668
f 1 668 809
f 1 809 937
f 1 937 936
f 1 936 935
f 1 935 1013
f 1 1013 1017
f 1 1017 1014
f 1 1014 941
f 1 941 813
f 1 813 672
f 1 672 553
f 1 553 552
f 1 552 551
f 1 551 548
f 1 548 439
f 1 439 357
f 1 357 281
f 1 281 230
f 1 230 189
f 1 189 137
f 1 137 102
f 1 102 75
f 1 75 45
f 1 45 44
f 1 44 33
f 1 33 22
f 1 22 18
f 1 18 13
f 1 13 8
f 1 8 3
f 1 3 4
f 1 4 5
f 1 5 2
f 2 5 7
f 2 7 6
f 3 8 9
f 3 9 4
f 4 9 15
f 4 15 19
f 4 19 27
f 4 27 40
f 4 40 67
f 4 67 66
f 4 66 93
f 4 93 120
f 4 120 162
f 4 162 214
f 4 214 250
f 4 250 308
f 4 308 398
f 4 398 486
f 4 486 485
f 4 485 598
f 4 598 713
f 4 713 627
f 4 627 507
f 4 507 415
f 4 415 327
f 4 327 262
f 4 262 220
f 4 220 173
f 4 173 172
f 4 172 170
f 4 170 169
f 4 169 168
f 4 168 130
f 4 130 99
f 4 99 73
f 4 73 72
f 4 72 71
f 4 71 70
f 4 70 43
f 4 43 29
f 4 29 21
f 4 21 17
f 4 17 12
f 4 12 11
f 4 11 7
f 4 7 5
f 6 7 11
f 6 11 12
f 6 12 10
f 8 13 14
f 8 14 9
f 9 14 15
f 10 12 16
f 12 17 16
f 13 18 14
f 14 18 15
f 15 18 19
f 16 17 21
f 16 21 20
f 18 22 23
f 18 23 19
f 19 23 24
f 19 24 25
f 19 25 26
f 19 26 27
f 20 21 28
f 21 29 28
f 22 30 31
f 22 31 32
f 22 32 23
f 22 33 30
f 23 32 25
f 23 25 24
f 25 32 34
f 25 34 35
f 25 35 36
f 25 36 26
f 26 37 38
f 26 38 39
f 26 39 40
f 26 40 27
f 26 36 41
f 26 41 37
f 28 29 42
f 29 43 42
f 30 33 44
f 30 44 45
f 30 45 46
f 30 46 47
f 30 47 48
f 30 48 31
f 31 48 32
f 32 49 50
f 32 50 34
f 32 48 51
f 32 51 52
f 32 52 49
f 34 50 53
f 34 53 54
f 34 54 55
f 34 55 56
f 34 56 57
f 34 57 35
f 35 57 56
f 35 56 58
f 35 58 36
f 36 58 59
f 36 59 60
f 36 60 61
f 36 61 62
f 36 62 41
f 37 41 63
f 37 63 64
f 37 64 38
f 38 64 39
f 39 64 65
f 39 65 66
f 39 66 67
f 39 67 40
f 41 62 63
f 42 68 94
f 42 94 122
f 42 122 166
f 42 166 218
f 42 218 260
f 42 260 319
f 42 319 318
f 42 318 408
f 42 408 500
f 42 500 608
f 42 608 618
f 42 618 616
f 42 616 744
f 42 744 743
f 42 743 742
f 42 742 878
f 42 878 877
f 42 877 876
f 42 876 875
f 42 875 874
f 42 874 780
f 42 780 648
f 42 648 524
f 42 524 523
f 42 523 522
f 42 522 424
f 42 424 342
f 42 342 337
f 42 337 269
f 42 269 223
f 42 223 179
f 42 179 131
f 42 131 97
f 42 97 69
f 42 43 70
f 42 70 71
f 42 71 72
f 42 72 73
f 42 73 74
f 42 74 68
f 45 75 46
f 46 75 76
f 46 76 77
f 46 77 47
f 47 77 48
f 48 77 51
f 49 52 78
f 49 78 50
f 50 78 53
f 51 77 79
f 51 79 52
f 52 79 80
f 52 80 81
f 52 81 78
f 53 78 82
f 53 82 54
f 54 82 83
f 54 83 55
f 55 84 85
f 55 85 56
f 55 83 86
f 55 86 84
f 56 85 58
f 58 85 87
f 58 87 60
f 58 60 59
f 60 88 89
f 60 89 61
f 60 87 88
f 61 89 63
f 61 63 62
f 63 89 64
f 64 89 88
f 64 88 90
f 64 90 91
f 64 91 65
f 65 92 66
f 65 91 92
f 66 92 93
f 68 74 95
f 68 95 96
f 68 96 94
f 69 97 98
f 73 99 95
f 73 95 100
f 73 100 74
f 74 100 95
f 75 101 76
f 75 102 101
f 76 101 103
f 76 103 77
f 77 103 104
f 77 104 80
f 77 80 79
f 78 81 82
f 80 104 105
f 80 105 81
f 81 106 83
f 81 83 82
f 81 105 106
f 83 106 86
f 84 107 108
f 84 108 87
f 84 87 85
f 84 86 109
f 84 109 107
f 86 106 110
f 86 110 111
f 86 111 112
f 86 112 109
f 87 108 113
f 87 113 88
f 88 113 90
f 90 114 91
f 90 113 115
f 90 115 114
f 91 114 116
f 91 116 117
f 91 117 118
f 91 118 92
f 92 119 93
f 92 118 119
f 93 119 120
f 94 121 122
f 94 96 123
f 94 123 124
f 94 124 125
f 94 125 126
f 94 126 127
f 94 127 128
f 94 128 129
f 94 129 121
f 95 99 96
f 96 99 130
f 96 130 123
f 97 131 132
f 97 132 98
f 98 132 133
f 98 133 134
f 101 135 103
f 101 102 136
f 101 136 135
f 102 137 138
f 102 138 136
f 103 135 139
f 103 139 140
f 103 140 141
f 103 141 104
f 104 141 105
f 105 141 142
f 105 142 143
f 105 143 110
f 105 110 106
f 107 144 145
f 107 145 108
f 107 109 146
f 107 146 144
f 108 145 113
f 109 112 147
f 109 147 146
f 110 143 111
f 111 143 148
f 111 148 149
f 111 149 150
f 111 150 151
f 111 151 112
f 112 152 147
f 112 151 152
f 113 145 153
f 113 153 154
f 113 154 115
f 114 115 155
f 114 155 156
f 114 156 116
f 115 154 155
f 116 156 157
f 116 157 158
f 116 158 117
f 117 158 159
f 117 159 119
f 117 119 118
f 119 159 160
f 119 160 120
f 120 160 161
f 120 161 162
f 121 129 163
f 121 163 164
f 121 164 165
f 121 165 166
f 121 166 122
f 123 167 124
f 123 130 168
f 123 168 167
f 124 167 168
f 124 168 125
f 125 168 169
f 125 169 170
f 125 170 126
f 126 170 127
f 127 170 171
f 127 171 172
f 127 172 173
f 127 173 174
f 127 174 175
f 127 175 178
f 127 178 128
f 128 176 177
f 128 177 129
f 128 178 176
f 129 177 163
f 131 179 180
f 131 180 132
f 132 180 181
f 132 181 133
f 133 182 183
f 133 183 184
f 133 184 134
f 133 181 182
f 135 136 139
f 136 138 185
f 136 185 186
f 136 186 187
f 136 187 188
f 136 188 139
f 137 189 138
f 138 189 185
f 139 188 190
f 139 190 191
f 139 191 192
f 139 192 193
f 139 193 140
f 140 193 194
f 140 194 195
f 140 195 141
f 141 195 142
f 142 196 143
f 142 195 197
f 142 197 198
f 142 198 196
f 143 196 149
f 143 149 148
f 144 199 145
f 144 146 199
f 145 199 200
f 145 200 153
f 146 147 199
f 147 201 199
f 147 152 202
f 147 202 201
f 149 196 203
f 149 203 204
f 149 204 150
f 150 204 151
f 151 204 205
f 151 205 152
f 152 205 202
f 153 200 206
f 153 206 207
f 153 207 208
f 153 208 154
f 154 208 155
f 155 208 156
f 156 208 207
f 156 207 209
f 156 209 157
f 157 210 158
f 157 209 210
f 158 211 159
f 158 210 212
f 158 212 160
f 158 160 211
f 159 211 160
f 160 212 213
f 160 213 161
f 161 213 162
f 162 213 214
f 163 215 164
f 163 177 216
f 163 216 215
f 164 215 165
f 165 217 218
f 165 218 166
f 165 215 219
f 165 219 217
f 170 172 171
f 173 220 263
f 173 263 266
f 173 266 222
f 173 222 178
f 173 178 175
f 173 175 174
f 176 221 177
f 176 178 221
f 177 221 216
f 178 222 221
f 179 223 224
f 179 224 180
f 180 224 182
f 180 182 181
f 182 224 225
f 182 225 226
f 182 226 227
f 182 227 183
f 183 227 228
f 183 228 184
f 184 228 229
f 185 189 230
f 185 230 231
f 185 231 232
f 185 232 186
f 186 232 187
f 187 190 188
f 187 232 190
f 190 192 191
f 190 232 233
f 190 233 192
f 192 233 234
f 192 234 194
f 192 194 193
f 194 234 195
f 195 234 197
f 196 198 203
f 197 234 198
f 198 234 235
f 198 235 203
f 199 236 206
f 199 206 200
f 199 201 202
f 199 202 237
f 199 237 236
f 202 238 239
f 202 239 237
f 202 205 240
f 202 240 238
f 203 235 204
f 204 241 205
f 204 235 242
f 204 242 241
f 205 241 243
f 205 243 240
f 206 244 207
f 206 236 244
f 207 244 209
f 209 245 210
f 209 244 245
f 210 246 247
f 210 247 212
f 210 245 246
f 212 248 249
f 212 249 213
f 212 247 248
f 213 249 214
f 214 249 250
f 215 216 251
f 215 251 219
f 216 252 253
f 216 253 251
f 216 221 254
f 216 254 252
f 217 255 256
f 217 256 257
f 217 257 258
f 217 258 218
f 217 219 259
f 217 259 255
f 218 258 260
f 219 251 253
f 219 253 261
f 219 261 259
f 220 262 263
f 221 264 265
f 221 265 254
f 221 222 264
f 222 266 267
f 222 267 268
f 222 268 264
f 223 269 270
f 223 270 224
f 224 270 271
f 224 271 225
f 225 271 272
f 225 272 273
f 225 273 226
f 226 273 274
f 226 274 227
f 227 274 275
f 227 275 276
f 227 276 277
f 227 277 278
f 227 278 228
f 228 278 279
f 228 279 229
f 229 279 280
f 230 281 231
f 231 282 283
f 231 283 284
f 231 284 232
f 231 281 282
f 232 284 285
f 232 285 233
f 233 286 234
f 233 285 286
f 234 287 235
f 234 286 287
f 235 287 242
f 236 288 244
f 236 237 289
f 236 289 290
f 236 290 288
f 237 239 289
f 238 291 289
f 238 289 239
f 238 240 292
f 238 292 293
f 238 293 294
f 238 294 295
f 238 295 296
f 238 296 291
f 240 243 292
f 241 242 297
f 241 297 243
f 242 287 298
f 242 298 299
f 242 299 300
f 242 300 297
f 243 297 292
f 244 288 301
f 244 301 302
f 244 302 245
f 245 302 303
f 245 303 304
f 245 304 246
f 246 305 247
f 246 304 305
f 247 305 248
f 248 306 249
f 248 305 306
f 249 306 307
f 249 307 250
f 250 307 308
f 252 309 261
f 252 261 253
f 252 254 309
f 254 265 310
f 254 310 309
f 255 311 256
f 255 259 311
f 256 311 312
f 256 312 313
f 256 313 314
f 256 314 257
f 257 314 315
f 257 315 258
f 258 316 317
f 258 317 318
f 258 318 319
f 258 319 260
f 258 315 320
f 258 320 316
f 259 321 322
f 259 322 323
f 259 323 311
f 259 261 321
f 261 309 324
f 261 324 325
f 261 325 326
f 261 326 322
f 261 322 321
f 262 327 328
f 262 328 263
f 263 328 329
f 263 329 266
f 264 268 265
f 265 268 330
f 265 330 331
f 265 331 332
f 265 332 310
f 266 329 267
f 267 333 334
f 267 334 335
f 267 335 268
f 267 329 333
f 268 336 330
f 268 335 336
f 269 337 270
f 270 337 271
f 271 338 339
f 271 339 340
f 271 340 341
f 271 341 272
f 271 337 342
f 271 342 343
f 271 343 338
f 272 341 273
f 273 341 344
f 273 344 274
f 274 344 345
f 274 345 275
f 275 346 276
f 275 345 344
f 275 344 347
f 275 347 348
f 275 348 349
f 275 349 346
f 276 346 350
f 276 350 351
f 276 351 352
f 276 352 277
f 277 352 353
f 277 353 278
f 278 353 354
f 278 354 279
f 279 354 355
f 279 355 280
f 280 355 356
f 281 357 358
f 281 358 282
f 282 358 359
f 282 359 283
f 283 359 360
f 283 360 284
f 284 360 361
f 284 361 285
f 285 361 362
f 285 362 286
f 286 362 363
f 286 363 364
f 286 364 365
f 286 365 298
f 286 298 287
f 288 290 366
f 288 366 367
f 288 367 301
f 289 291 290
f 290 291 368
f 290 368 369
f 290 369 370
f 290 370 366
f 291 296 368
f 292 297 371
f 292 371 294
f 292 294 293
f 294 372 373
f 294 373 296
f 294 296 295
f 294 371 374
f 294 374 375
f 294 375 376
f 294 376 377
f 294 377 378
f 294 378 379
f 294 379 372
f 296 373 372
f 296 372 380
f 296 380 381
f 296 381 382
f 296 382 369
f 296 369 368
f 297 300 371
f 298 365 299
f 299 365 383
f 299 383 384
f 299 384 385
f 299 385 300
f 300 385 386
f 300 386 387
f 300 387 375
f 300 375 371
f 301 367 302
f 302 367 388
f 302 388 389
f 302 389 303
f 303 390 304
f 303 389 391
f 303 391 392
f 303 392 390
f 304 390 305
f 305 390 393
f 305 393 394
f 305 394 306
f 306 394 395
f 306 395 396
f 306 396 397
f 306 397 308
f 306 308 307
f 308 397 398
f 309 310 324
f 310 332 399
f 310 399 324
f 311 323 400
f 311 400 312
f 312 400 401
f 312 401 402
f 312 402 315
f 312 315 313
f 313 315 314
f 315 402 403
f 315 403 404
f 315 404 405
f 315 405 406
f 315 406 320
f 316 320 317
f 317 320 407
f 317 407 318
f 318 407 408
f 320 406 407
f 322 326 409
f 322 409 410
f 322 410 323
f 323 410 400
f 324 411 412
f 324 412 413
f 324 413 326
f 324 326 325
f 324 399 411
f 326 413 414
f 326 414 409
f 327 415 416
f 327 416 328
f 328 416 417
f 328 417 329
f 329 417 418
f 329 418 333
f 330 336 331
f 331 336 419
f 331 419 420
f 331 420 332
f 332 420 399
f 333 421 422
f 333 422 334
f 333 418 421
f 334 422 419
f 334 419 335
f 335 419 336
f 338 423 339
f 338 343 424
f 338 424 425
f 338 425 423
f 339 423 340
f 340 423 341
f 341 423 344
f 342 424 343
f 344 423 347
f 346 349 351
f 346 351 350
f 347 423 426
f 347 426 427
f 347 427 348
f 348 427 428
f 348 428 429
f 348 429 349
f 349 429 351
f 351 429 428
f 351 428 353
f 351 353 430
f 351 430 352
f 352 430 353
f 353 428 431
f 353 431 432
f 353 432 433
f 353 433 434
f 353 434 435
f 353 435 436
f 353 436 437
f 353 437 354
f 354 437 355
f 355 437 438
f 355 438 356
f 357 439 358
f 358 439 440
f 358 440 359
f 359 441 442
f 359 442 361
f 359 361 360
f 359 440 443
f 359 443 444
f 359 444 445
f 359 445 441
f 361 446 363
f 361 363 362
f 361 442 446
f 363 446 447
f 363 447 364
f 364 448 385
f 364 385 384
f 364 384 383
f 364 383 365
f 364 447 449
f 364 449 450
f 364 450 451
f 364 451 452
f 364 452 453
f 364 453 454
f 364 454 448
f 366 370 367
f 367 455 388
f 367 370 456
f 367 456 455
f 369 382 370
f 370 382 381
f 370 381 457
f 370 457 458
f 370 458 459
f 370 459 460
f 370 460 461
f 370 461 456
f 371 375 374
f 372 462 463
f 372 463 464
f 372 464 380
f 372 379 465
f 372 465 462
f 375 387 466
f 375 466 376
f 376 466 467
f 376 467 377
f 377 467 468
f 377 468 378
f 378 468 469
f 378 469 470
f 378 470 379
f 379 470 471
f 379 471 472
f 379 472 473
f 379 473 465
f 380 464 381
f 381 464 457
f 385 448 474
f 385 474 386
f 386 474 475
f 386 475 387
f 387 475 466
f 388 455 389
f 389 455 391
f 390 392 476
f 390 476 393
f 391 477 478
f 391 478 476
f 391 476 392
f 391 455 479
f 391 479 456
f 391 456 461
f 391 461 480
f 391 480 477
f 393 481 395
f 393 395 394
f 393 476 481
f 395 481 482
f 395 482 483
f 395 483 397
f 395 397 396
f 397 483 484
f 397 484 485
f 397 485 486
f 397 486 398
f 399 420 487
f 399 487 488
f 399 488 489
f 399 489 490
f 399 490 412
f 399 412 411
f 400 410 401
f 401 491 402
f 401 410 492
f 401 492 491
f 402 493 403
f 402 491 493
f 403 493 494
f 403 494 404
f 404 495 405
f 404 494 496
f 404 496 497
f 404 497 498
f 404 498 499
f 404 499 495
f 405 495 406
f 406 495 500
f 406 500 408
f 406 408 407
f 409 414 501
f 409 501 410
f 410 502 503
f 410 503 492
f 410 501 504
f 410 504 502
f 412 490 413
f 413 490 414
f 414 505 502
f 414 502 504
f 414 504 501
f 414 490 506
f 414 506 505
f 415 507 416
f 416 507 508
f 416 508 417
f 417 509 510
f 417 510 418
f 417 508 509
f 418 510 421
f 419 422 511
f 419 511 512
f 419 512 420
f 420 512 513
f 420 513 487
f 421 510 514
f 421 514 422
f 422 514 511
f 423 515 516
f 423 516 426
f 423 425 517
f 423 517 518
f 423 518 519
f 423 519 520
f 423 520 521
f 423 521 515
f 424 522 425
f 425 522 523
f 425 523 524
f 425 524 525
f 425 525 517
f 426 516 427
f 427 526 527
f 427 527 528
f 427 528 529
f 427 529 530
f 427 530 531
f 427 531 532
f 427 532 428
f 427 516 526
f 428 532 431
f 431 532 533
f 431 533 534
f 431 534 432
f 432 534 433
f 433 534 535
f 433 535 536
f 433 536 537
f 433 537 434
f 434 538 539
f 434 539 435
f 434 537 536
f 434 536 540
f 434 540 541
f 434 541 542
f 434 542 543
f 434 543 538
f 435 544 545
f 435 545 436
f 435 539 546
f 435 546 544
f 436 547 438
f 436 438 437
f 436 545 547
f 439 548 443
f 439 443 440
f 441 445 549
f 441 549 442
f 442 549 550
f 442 550 446
f 443 551 552
f 443 552 553
f 443 553 554
f 443 554 444
f 443 548 551
f 444 554 445
f 445 554 555
f 445 555 556
f 445 556 549
f 446 550 549
f 446 549 557
f 446 557 447
f 447 557 449
f 448 454 558
f 448 558 474
f 449 549 556
f 449 556 559
f 449 559 560
f 449 560 561
f 449 561 562
f 449 562 450
f 449 557 549
f 450 562 563
f 450 563 451
f 451 563 452
f 452 563 562
f 452 562 453
f 453 564 475
f 453 475 474
f 453 474 558
f 453 558 454
f 453 562 565
f 453 565 566
f 453 566 564
f 455 456 479
f 457 464 463
f 457 463 462
f 457 462 567
f 457 567 458
f 458 568 569
f 458 569 459
f 458 567 570
f 458 570 571
f 458 571 568
f 459 572 573
f 459 573 460
f 459 569 572
f 460 573 461
f 461 573 477
f 461 477 480
f 462 465 574
f 462 574 567
f 465 473 574
f 466 475 575
f 466 575 576
f 466 576 467
f 467 576 468
f 468 576 469
f 469 577 470
f 469 576 578
f 469 578 579
f 469 579 577
f 470 577 580
f 470 580 581
f 470 581 471
f 471 582 472
f 471 581 580
f 471 580 583
f 471 583 582
f 472 582 473
f 473 584 585
f 473 585 574
f 473 582 584
f 475 564 586
f 475 586 575
f 476 587 588
f 476 588 589
f 476 589 481
f 476 478 590
f 476 590 587
f 477 573 591
f 477 591 592
f 477 592 478
f 478 592 590
f 481 589 482
f 482 589 588
f 482 588 593
f 482 593 594
f 482 594 483
f 483 594 484
f 484 594 595
f 484 595 596
f 484 596 597
f 484 597 485
f 485 597 598
f 487 513 599
f 487 599 488
f 488 599 600
f 488 600 489
f 489 600 490
f 490 600 601
f 490 601 602
f 490 602 603
f 490 603 506
f 491 492 503
f 491 503 604
f 491 604 493
f 493 605 606
f 493 606 494
f 493 604 607
f 493 607 605
f 494 606 496
f 495 499 608
f 495 608 500
f 496 609 610
f 496 610 611
f 496 611 612
f 496 612 497
f 496 606 609
f 497 612 613
f 497 613 614
f 497 614 498
f 498 614 615
f 498 615 616
f 498 616 617
f 498 617 499
f 499 617 616
f 499 616 618
f 499 618 608
f 502 619 620
f 502 620 621
f 502 621 622
f 502 622 604
f 502 604 503
f 502 505 623
f 502 623 624
f 502 624 625
f 502 625 619
f 505 506 623
f 506 603 626
f 506 626 624
f 506 624 623
f 507 627 628
f 507 628 508
f 508 629 509
f 508 628 630
f 508 630 631
f 508 631 629
f 509 629 632
f 509 632 633
f 509 633 510
f 510 633 514
f 511 514 512
f 512 514 634
f 512 634 635
f 512 635 636
f 512 636 513
f 513 636 637
f 513 637 638
f 513 638 639
f 513 639 599
f 514 633 640
f 514 640 641
f 514 641 634
f 515 521 527
f 515 527 516
f 516 527 526
f 517 525 642
f 517 642 518
f 518 643 519
f 518 642 644
f 518 644 643
f 519 643 645
f 519 645 646
f 519 646 520
f 520 646 521
f 521 646 647
f 521 647 527
f 524 648 644
f 524 644 649
f 524 649 642
f 524 642 525
f 527 650 651
f 527 651 652
f 527 652 528
f 527 647 650
f 528 652 653
f 528 653 529
f 529 653 654
f 529 654 530
f 530 654 531
f 531 533 532
f 531 654 655
f 531 655 656
f 531 656 657
f 531 657 658
f 531 658 659
f 531 659 533
f 533 659 660
f 533 660 534
f 534 660 536
f 534 536 535
f 536 660 661
f 536 661 662
f 536 662 540
f 538 663 546
f 538 546 539
f 538 543 663
f 540 662 541
f 541 662 542
f 542 662 664
f 542 664 665
f 542 665 666
f 542 666 543
f 543 666 667
f 543 667 668
f 543 668 663
f 544 546 669
f 546 663 670
f 546 670 669
f 553 671 554
f 553 672 671
f 554 671 673
f 554 673 555
f 555 673 674
f 555 674 560
f 555 560 559
f 555 559 556
f 560 674 561
f 561 674 675
f 561 675 562
f 562 675 676
f 562 676 677
f 562 677 565
f 564 678 586
f 564 566 677
f 564 677 679
f 564 679 678
f 565 677 566
f 567 574 570
f 568 680 681
f 568 681 682
f 568 682 569
f 568 571 570
f 568 570 683
f 568 683 684
f 568 684 680
f 569 682 572
f 570 574 585
f 570 585 584
f 570 584 685
f 570 685 683
f 572 682 681
f 572 681 686
f 572 686 573
f 573 686 591
f 575 586 578
f 575 578 576
f 577 579 580
f 578 586 687
f 578 687 688
f 578 688 579
f 579 688 583
f 579 583 580
f 582 583 689
f 582 689 690
f 582 690 691
f 582 691 692
f 582 692 693
f 582 693 694
f 582 694 584
f 583 695 689
f 583 688 696
f 583 696 697
f 583 697 698
f 583 698 699
f 583 699 695
f 584 694 700
f 584 700 701
f 584 701 685
f 586 678 702
f 586 702 687
f 587 703 593
f 587 593 588
f 587 590 704
f 587 704 705
f 587 705 703
f 590 592 704
f 591 686 592
f 592 686 706
f 592 706 707
f 592 707 704
f 593 703 708
f 593 708 594
f 594 708 709
f 594 709 595
f 595 710 711
f 595 711 598
f 595 598 596
f 595 709 712
f 595 712 710
f 596 598 597
f 598 711 713
f 599 639 600
f 600 714 715
f 600 715 601
f 600 639 716
f 600 716 717
f 600 717 714
f 601 715 602
f 602 718 719
f 602 719 603
f 602 715 720
f 602 720 721
f 602 721 722
f 602 722 718
f 603 719 626
f 604 621 723
f 604 723 607
f 604 622 621
f 605 607 609
f 605 609 606
f 607 723 724
f 607 724 609
f 609 724 725
f 609 725 726
f 609 726 727
f 609 727 611
f 609 611 610
f 611 727 728
f 611 728 729
f 611 729 730
f 611 730 731
f 611 731 732
f 611 732 733
f 611 733 734
f 611 734 735
f 611 735 613
f 611 613 612
f 613 735 736
f 613 736 734
f 613 734 737
f 613 737 738
f 613 738 739
f 613 739 614
f 614 739 738
f 614 738 740
f 614 740 741
f 614 741 742
f 614 742 743
f 614 743 744
f 614 744 616
f 614 616 615
f 619 745 746
f 619 746 747
f 619 747 620
f 619 625 748
f 619 748 745
f 620 723 621
f 620 747 749
f 620 749 750
f 620 750 751
f 620 751 752
f 620 752 725
f 620 725 753
f 620 753 723
f 624 626 625
f 625 754 755
f 625 755 748
f 625 626 719
f 625 719 756
f 625 756 754
f 627 713 628
f 628 713 711
f 628 711 710
f 628 710 757
f 628 757 630
f 629 631 758
f 629 758 757
f 629 757 759
f 629 759 760
f 629 760 632
f 630 757 631
f 631 757 758
f 632 760 761
f 632 761 762
f 632 762 763
f 632 763 764
f 632 764 765
f 632 765 640
f 632 640 633
f 634 641 766
f 634 766 635
f 635 766 767
f 635 767 768
f 635 768 636
f 636 768 637
f 637 769 638
f 637 768 769
f 638 770 771
f 638 771 720
f 638 720 717
f 638 717 772
f 638 772 639
f 638 769 773
f 638 773 770
f 639 772 716
f 640 764 774
f 640 774 766
f 640 766 775
f 640 775 641
f 640 765 764
f 641 775 766
f 642 649 644
f 643 776 738
f 643 738 645
f 643 644 777
f 643 777 776
f 644 648 777
f 645 738 646
f 646 778 650
f 646 650 647
f 646 738 779
f 646 779 732
f 646 732 778
f 648 780 777
f 650 778 732
f 650 732 652
f 650 652 651
f 652 732 781
f 652 781 782
f 652 782 653
f 653 783 654
f 653 782 655
f 653 655 783
f 654 783 655
f 655 782 784
f 655 784 785
f 655 785 656
f 656 785 657
f 657 785 658
f 658 785 784
f 658 784 786
f 658 786 787
f 658 787 788
f 658 788 789
f 658 789 790
f 658 790 791
f 658 791 792
f 658 792 793
f 658 793 794
f 658 794 795
f 658 795 796
f 658 796 797
f 658 797 661
f 658 661 798
f 658 798 659
f 659 798 660
f 660 798 661
f 661 797 662
f 662 797 799
f 662 799 800
f 662 800 801
f 662 801 802
f 662 802 664
f 664 802 803
f 664 803 804
f 664 804 665
f 665 804 805
f 665 805 806
f 665 806 666
f 666 806 807
f 666 807 667
f 667 807 808
f 667 808 809
f 667 809 668
f 671 672 810
f 671 810 811
f 671 811 812
f 671 812 673
f 672 813 810
f 673 812 814
f 673 814 815
f 673 815 816
f 673 816 674
f 674 816 815
f 674 815 817
f 674 817 675
f 675 817 818
f 675 818 819
f 675 819 820
f 675 820 676
f 676 821 677
f 676 820 821
f 677 821 679
f 678 679 821
f 678 821 822
f 678 822 823
f 678 823 702
f 680 684 824
f 680 824 825
f 680 825 681
f 681 825 826
f 681 826 827
f 681 827 828
f 681 828 706
f 681 706 829
f 681 829 686
f 683 685 830
f 683 830 831
f 683 831 684
f 684 831 824
f 685 701 832
f 685 832 830
f 686 829 706
f 687 702 823
f 687 823 833
f 687 833 834
f 687 834 696
f 687 696 688
f 689 691 690
f 689 695 835
f 689 835 691
f 691 836 692
f 691 835 699
f 691 699 837
f 691 837 838
f 691 838 836
f 692 836 693
f 693 839 701
f 693 701 700
f 693 700 694
f 693 836 840
f 693 840 839
f 695 699 835
f 696 834 823
f 696 823 841
f 696 841 842
f 696 842 843
f 696 843 819
f 696 819 844
f 696 844 845
f 696 845 846
f 696 846 698
f 696 698 697
f 698 847 848
f 698 848 699
f 698 846 849
f 698 849 850
f 698 850 847
f 699 848 837
f 701 839 851
f 701 851 852
f 701 852 853
f 701 853 832
f 703 705 854
f 703 854 708
f 704 855 854
f 704 854 705
f 704 707 855
f 706 856 854
f 706 854 855
f 706 855 707
f 706 828 856
f 708 854 857
f 708 857 757
f 708 757 709
f 709 757 712
f 710 712 757
f 714 717 720
f 714 720 715
f 716 772 717
f 718 858 859
f 718 859 860
f 718 860 719
f 718 722 861
f 718 861 862
f 718 862 858
f 719 860 756
f 720 771 770
f 720 770 863
f 720 863 864
f 720 864 865
f 720 865 721
f 721 866 861
f 721 861 722
f 721 865 866
f 723 753 725
f 723 725 724
f 725 752 728
f 725 728 726
f 726 728 727
f 728 867 729
f 728 752 751
f 728 751 867
f 729 868 869
f 729 869 870
f 729 870 730
f 729 867 868
f 730 870 731
f 731 870 732
f 732 737 734
f 732 734 733
f 732 870 871
f 732 871 872
f 732 872 781
f 732 779 873
f 732 873 737
f 734 736 735
f 737 873 738
f 738 873 779
f 738 776 874
f 738 874 875
f 738 875 740
f 740 876 877
f 740 877 741
f 740 875 876
f 741 877 878
f 741 878 742
f 745 879 880
f 745 880 746
f 745 748 755
f 745 755 859
f 745 859 879
f 746 880 747
f 747 880 749
f 749 881 882
f 749 882 883
f 749 883 751
f 749 751 750
f 749 880 884
f 749 884 885
f 749 885 881
f 751 883 882
f 751 882 886
f 751 886 887
f 751 887 888
f 751 888 867
f 754 756 860
f 754 860 755
f 755 860 859
f 757 857 889
f 757 889 759
f 759 889 890
f 759 890 891
f 759 891 892
f 759 892 761
f 759 761 760
f 761 893 894
f 761 894 762
f 761 892 893
f 762 894 895
f 762 895 896
f 762 896 897
f 762 897 763
f 763 897 764
f 764 897 898
f 764 898 899
f 764 899 774
f 766 898 900
f 766 900 901
f 766 901 902
f 766 902 767
f 766 774 898
f 767 902 901
f 767 901 768
f 768 901 903
f 768 903 769
f 769 903 904
f 769 904 773
f 770 905 906
f 770 906 864
f 770 864 863
f 770 773 904
f 770 904 907
f 770 907 908
f 770 908 909
f 770 909 910
f 770 910 905
f 774 899 898
f 776 777 874
f 777 780 874
f 781 872 911
f 781 911 782
f 782 912 786
f 782 786 784
f 782 911 912
f 786 913 885
f 786 885 914
f 786 914 915
f 786 915 788
f 786 788 787
f 786 912 913
f 788 915 789
f 789 915 916
f 789 916 917
f 789 917 790
f 790 917 918
f 790 918 791
f 791 918 919
f 791 919 792
f 792 919 920
f 792 920 921
f 792 921 922
f 792 922 923
f 792 923 793
f 793 923 794
f 794 923 924
f 794 924 795
f 795 924 925
f 795 925 926
f 795 926 796
f 796 926 797
f 797 801 799
f 797 926 801
f 799 801 800
f 801 803 802
f 801 926 803
f 803 926 927
f 803 927 804
f 804 927 928
f 804 928 929
f 804 929 930
f 804 930 931
f 804 931 932
f 804 932 806
f 804 806 805
f 806 932 933
f 806 933 808
f 806 808 807
f 808 933 934
f 808 934 935
f 808 935 936
f 808 936 937
f 808 937 809
f 810 813 938
f 810 938 811
f 811 938 812
f 812 938 939
f 812 939 940
f 812 940 814
f 813 941 938
f 814 942 943
f 814 943 944
f 814 944 945
f 814 945 946
f 814 946 815
f 814 940 947
f 814 947 948
f 814 948 949
f 814 949 930
f 814 930 929
f 814 929 950
f 814 950 928
f 814 928 951
f 814 951 942
f 815 952 817
f 815 946 952
f 817 952 818
f 818 952 944
f 818 944 819
f 819 944 943
f 819 943 953
f 819 953 954
f 819 954 955
f 819 955 956
f 819 956 844
f 819 843 842
f 819 842 820
f 820 842 841
f 820 841 821
f 821 841 823
f 821 823 822
f 823 834 833
f 824 831 905
f 824 905 957
f 824 957 909
f 824 909 958
f 824 958 825
f 825 958 959
f 825 959 827
f 825 827 826
f 827 959 828
f 828 959 960
f 828 960 856
f 830 832 853
f 830 853 831
f 831 853 905
f 836 961 839
f 836 839 840
f 836 838 962
f 836 962 963
f 836 963 964
f 836 964 965
f 836 965 961
f 837 848 847
f 837 847 838
f 838 847 966
f 838 966 962
f 839 961 967
f 839 967 968
f 839 968 852
f 839 852 851
f 844 956 955
f 844 955 969
f 844 969 845
f 845 969 970
f 845 970 971
f 845 971 846
f 846 971 849
f 847 850 972
f 847 972 966
f 849 971 973
f 849 973 974
f 849 974 850
f 850 974 975
f 850 975 976
f 850 976 977
f 850 977 978
f 850 978 972
f 852 979 905
f 852 905 980
f 852 980 853
f 852 968 979
f 853 980 905
f 854 856 981
f 854 981 982
f 854 982 892
f 854 892 891
f 854 891 890
f 854 890 857
f 856 960 983
f 856 983 898
f 856 898 981
f 857 890 889
f 858 862 984
f 858 984 859
f 859 984 985
f 859 985 986
f 859 986 987
f 859 987 879
f 861 866 864
f 861 864 968
f 861 968 967
f 861 967 988
f 861 988 862
f 862 988 989
f 862 989 984
f 864 906 979
f 864 979 968
f 864 866 865
f 867 888 868
f 868 888 887
f 868 887 871
f 868 871 869
f 869 871 870
f 871 990 991
f 871 991 872
f 871 887 990
f 872 912 911
f 872 991 912
f 879 987 986
f 879 986 992
f 879 992 993
f 879 993 994
f 879 994 880
f 880 994 884
f 881 885 882
f 882 885 886
f 884 994 995
f 884 995 996
f 884 996 885
f 885 997 915
f 885 915 914
f 885 913 991
f 885 991 998
f 885 998 886
f 885 996 995
f 885 995 999
f 885 999 1000
f 885 1000 1001
f 885 1001 997
f 886 998 991
f 886 991 990
f 886 990 1002
f 886 1002 887
f 887 1002 990
f 892 982 893
f 893 982 894
f 894 982 981
f 894 981 895
f 895 897 896
f 895 981 898
f 895 898 897
f 898 1003 901
f 898 901 900
f 898 983 959
f 898 959 1004
f 898 1004 909
f 898 909 908
f 898 908 1003
f 901 1003 907
f 901 907 904
f 901 904 903
f 905 979 906
f 905 910 909
f 905 909 957
f 907 1003 908
f 909 1004 958
f 912 991 913
f 915 997 1001
f 915 1001 1005
f 915 1005 920
f 915 920 917
f 915 917 916
f 917 920 918
f 918 920 919
f 920 1005 1006
f 920 1006 1007
f 920 1007 1008
f 920 1008 1009
f 920 1009 921
f 921 1009 1010
f 921 1010 922
f 922 1011 923
f 922 1010 1011
f 923 1011 924
f 924 1011 951
f 924 951 925
f 925 951 927
f 925 927 926
f 927 951 928
f 928 950 929
f 930 949 931
f 931 949 932
f 932 949 1012
f 932 1012 934
f 932 934 933
f 934 1012 948
f 934 948 947
f 934 947 1013
f 934 1013 935
f 938 941 1014
f 938 1014 939
f 939 1014 947
f 939 947 940
f 942 1015 943
f 942 951 1015
f 943 1015 1016
f 943 1016 953
f 944 952 945
f 945 952 946
f 947 1014 1017
f 947 1017 1013
f 948 1012 949
f 951 1011 1018
f 951 1018 1019
f 951 1019 1015
f 953 1016 1018
f 953 1018 1020
f 953 1020 954
f 954 1020 1018
f 954 1018 1010
f 954 1010 1021
f 954 1021 955
f 955 1021 1010
f 955 1010 1009
f 955 1009 1022
f 955 1022 970
f 955 970 1023
f 955 1023 969
f 958 1004 959
f 959 983 960
f 961 965 988
f 961 988 967
f 962 966 972
f 962 972 963
f 963 972 978
f 963 978 1024
f 963 1024 1025
f 963 1025 964
f 964 1026 965
f 964 1025 986
f 964 986 1027
f 964 1027 1026
f 965 1026 988
f 969 1023 970
f 970 973 971
f 970 1022 973
f 973 1022 974
f 974 1022 1028
f 974 1028 1006
f 974 1006 975
f 975 1029 977
f 975 977 976
f 975 1006 999
f 975 999 995
f 975 995 1029
f 977 1029 993
f 977 993 992
f 977 992 986
f 977 986 1025
f 977 1025 1024
f 977 1024 978
f 984 989 985
f 985 989 1026
f 985 1026 1027
f 985 1027 986
f 988 1026 989
f 993 1029 994
f 994 1029 995
f 999 1006 1000
f 1000 1006 1001
f 1001 1006 1030
f 1001 1030 1005
f 1005 1030 1006
f 1006 1028 1022
f 1006 1022 1007
f 1007 1022 1008
f 1008 1022 1009
f 1010 1018 1011
f 1015 1019 1016
f 1016 1019 1018

