# https://github.com/mikedh/trimesh
v -0.00407940 0.00941518 0.00549700
v -0.00407940 0.00917624 0.00556444
v -0.00407940 0.00966920 0.00550271
v 0.00404519 0.00967332 0.00551948
v 0.00404519 0.00952591 0.00551805
v 0.00404519 0.00941518 0.00551805
v -0.00407940 0.00917282 0.00556658
v 0.00404519 0.00917899 0.00559013
v -0.00407940 0.00968429 0.00550307
v 0.00404519 0.00993111 0.00557693
v -0.00407940 0.00916733 0.00557051
v 0.00404519 0.00904323 0.00568362
v -0.00407940 0.00977479 0.00552983
v 0.00404519 0.01005658 0.00564651
v -0.00407940 0.00994962 0.00558299
v -0.00407940 0.00891468 0.00581243
v 0.00404519 0.00892531 0.00582135
v -0.00407940 0.00890782 0.00581992
v 0.00404519 0.01006789 0.00565543
v -0.00407940 0.00998527 0.00561618
v 0.00404519 0.00856056 0.00626380
v -0.00407940 0.00855782 0.00624524
v 0.00057617 0.01007235 0.00694674
v 0.00057617 0.01007235 0.00702239
v 0.00335409 0.01006789 0.00623133
v 0.00404519 0.01006720 0.00576889
v -0.00407940 0.01005315 0.00575284
v -0.00376527 0.01006789 0.00591983
v 0.00404519 0.00846971 0.00638083
v -0.00407940 0.00663843 0.00869372
v -0.00045531 0.01007200 0.00694781
v 0.00057617 0.01004458 0.00715120
v 0.00083384 0.01007097 0.00701454
v 0.00212379 0.01006823 0.00674550
v -0.00045531 0.01007200 0.00702382
v 0.00016581 0.01005726 0.00710089
v 0.00005924 0.01004698 0.00715370
v 0.00016581 0.01004663 0.00715370
v 0.00016581 0.01002195 0.00727073
v 0.00284670 0.01006755 0.00648502
v 0.00315527 0.01001818 0.00657815
v 0.00341294 0.00999179 0.00657815
v 0.00342964 0.01004218 0.00631839
v 0.00384239 0.01006549 0.00596051
v 0.00404519 0.01005795 0.00585382
v -0.00407940 0.01005315 0.00576533
v -0.00376527 0.01006789 0.00597977
v 0.00404519 0.00690068 0.00846428
v -0.00407940 0.00657021 0.00889888
v 0.00031850 0.01000276 0.00735173
v 0.00057617 0.00999933 0.00735173
v 0.00083384 0.01004218 0.00714371
v 0.00016581 0.01000413 0.00735173
v 0.00109231 0.01006755 0.00699813
v 0.00130704 0.01006343 0.00698064
v 0.00160765 0.01002401 0.00709447
v 0.00186612 0.01000893 0.00709447
v 0.00229318 0.01006275 0.00672052
v -0.00071298 0.01007166 0.00701989
v -0.00019764 0.01004663 0.00715370
v 0.00005924 0.01000481 0.00735137
v 0.00263913 0.01001133 0.00683613
v 0.00289760 0.00998767 0.00683613
v 0.00315527 0.00996368 0.00683613
v 0.00237987 0.01003566 0.00681829
v 0.00341294 0.00993694 0.00683613
v 0.00367141 0.00996265 0.00657815
v 0.00367141 0.01001407 0.00632018
v 0.00392908 0.00998424 0.00632018
v 0.00404519 0.00997019 0.00632018
v 0.00392908 0.01003669 0.00605292
v 0.00404519 0.01002092 0.00605720
v 0.00404519 0.01005315 0.00588415
v -0.00407940 0.01001612 0.00606255
v -0.00406668 0.01001784 0.00606255
v -0.00344636 0.01006275 0.00620528
v -0.00294056 0.01006343 0.00646576
v -0.00277673 0.01006789 0.00649394
v -0.00200292 0.01006960 0.00675799
v -0.00383446 0.01004595 0.00606434
v 0.00404519 0.00690068 0.00911690
v -0.00407940 0.00663020 0.00905838
v 0.00031850 0.00994242 0.00760935
v 0.00016581 0.00996916 0.00750373
v 0.00057617 0.00993831 0.00760935
v 0.00083384 0.00999453 0.00735173
v 0.00109231 0.01003841 0.00712729
v 0.00005924 0.00994551 0.00760935
v 0.00137543 0.01003875 0.00707770
v 0.00160765 0.00996607 0.00735173
v 0.00186612 0.00995133 0.00735173
v 0.00212379 0.00999213 0.00709447
v -0.00097144 0.01006926 0.00700705
v -0.00071298 0.01004355 0.00714870
v -0.00045531 0.01004526 0.00715263
v -0.00019764 0.01000413 0.00735137
v 0.00263913 0.00995545 0.00709447
v 0.00289760 0.00992939 0.00709447
v 0.00238146 0.00997499 0.00709447
v 0.00367141 0.00990163 0.00683613
v 0.00392908 0.00992939 0.00657815
v 0.00315527 0.00989854 0.00709447
v 0.00404519 0.00993968 0.00646290
v -0.00407940 0.01001372 0.00607504
v -0.00406668 0.00996813 0.00632053
v -0.00380821 0.00999898 0.00632053
v -0.00355054 0.00997602 0.00657851
v -0.00329207 0.01000447 0.00657851
v -0.00302963 0.01003464 0.00656245
v -0.00303440 0.00997636 0.00683613
v -0.00277673 0.00999967 0.00683613
v -0.00238943 0.01006000 0.00670732
v -0.00226060 0.01006446 0.00672695
v -0.00139533 0.01006172 0.00697279
v -0.00122912 0.01006480 0.00698671
v 0.00404519 0.00709437 0.00914188
v -0.00407940 0.00683623 0.00912903
v -0.00407940 0.00682252 0.00912653
v -0.00407940 0.00663912 0.00907301
v 0.00031850 0.00986289 0.00786733
v 0.00016581 0.00989786 0.00776171
v 0.00083384 0.00993316 0.00760935
v 0.00109231 0.00998664 0.00735173
v 0.00134998 0.00997670 0.00735173
v -0.00019764 0.00994448 0.00760935
v 0.00005924 0.00986666 0.00786733
v 0.00160765 0.00989511 0.00760935
v 0.00109231 0.00992322 0.00760935
v 0.00186612 0.00987763 0.00760935
v 0.00212379 0.00993214 0.00735173
v -0.00097144 0.01004012 0.00713586
v -0.00071298 0.00999761 0.00735137
v -0.00045531 0.01000104 0.00735137
v 0.00263913 0.00988551 0.00735173
v 0.00238146 0.00991020 0.00735173
v 0.00343759 0.00985226 0.00711909
v 0.00367141 0.00983444 0.00705736
v 0.00394339 0.00984918 0.00685540
v 0.00404519 0.00986597 0.00674015
v 0.00404519 0.00991157 0.00657815
v 0.00290476 0.00984609 0.00736921
v -0.00407940 0.00996642 0.00632053
v -0.00380821 0.00994619 0.00657851
v -0.00329207 0.00995065 0.00683613
v -0.00277673 0.00994242 0.00709411
v -0.00251827 0.00996539 0.00709411
v -0.00249282 0.01002915 0.00681044
v -0.00226060 0.00998356 0.00709411
v -0.00200292 0.01000001 0.00709411
v -0.00174525 0.01001612 0.00709411
v -0.00148361 0.01003498 0.00707306
v -0.00148679 0.00997122 0.00735137
v -0.00122912 0.01003532 0.00711588
v 0.00404519 0.00812588 0.00914188
v 0.00392908 0.00709437 0.00914188
v -0.00407940 0.00708202 0.00914152
v 0.00031850 0.00980804 0.00801148
v 0.00057617 0.00985740 0.00786733
v 0.00016581 0.00986529 0.00786733
v 0.00016581 0.00983204 0.00795582
v 0.00082907 0.00984198 0.00789088
v 0.00109231 0.00984541 0.00785020
v -0.00019764 0.00986529 0.00786733
v -0.00071298 0.00993659 0.00760935
v -0.00019764 0.00980941 0.00801505
v 0.00005924 0.00981010 0.00801684
v 0.00134998 0.00983684 0.00782772
v 0.00160765 0.00982792 0.00780489
v 0.00186612 0.00981730 0.00777813
v 0.00212936 0.00984506 0.00762933
v 0.00238146 0.00983786 0.00757545
v -0.00097144 0.00999076 0.00735137
v 0.00263913 0.00982278 0.00753585
v 0.00282364 0.00981078 0.00750373
v 0.00353939 0.00980187 0.00722185
v 0.00315527 0.00983169 0.00730463
v 0.00367141 0.00978953 0.00718617
v 0.00394339 0.00976999 0.00709161
v 0.00386625 0.00981524 0.00700348
v 0.00404519 0.00984026 0.00682471
v -0.00407940 0.00990814 0.00657922
v -0.00406668 0.00991054 0.00657851
v -0.00355054 0.00991842 0.00683613
v -0.00329207 0.00988243 0.00709411
v -0.00303440 0.00991397 0.00709411
v -0.00251827 0.00989820 0.00735137
v -0.00226060 0.00992117 0.00735137
v -0.00200292 0.00994139 0.00735137
v -0.00174525 0.00995853 0.00735137
v -0.00097144 0.00992837 0.00760935
v -0.00122912 0.00998116 0.00735137
v 0.00404519 0.00839224 0.00911511
v 0.00392908 0.00838367 0.00913331
v 0.00367141 0.00838367 0.00914188
v 0.00016581 0.00812588 0.00914188
v -0.00407940 0.00811388 0.00914152
v 0.00031850 0.00975730 0.00814029
v 0.00057617 0.00980530 0.00800399
v 0.00016581 0.00980941 0.00801470
v 0.00016581 0.00975868 0.00814386
v 0.00091178 0.00980050 0.00799257
v 0.00074000 0.00980290 0.00799864
v 0.00109231 0.00979570 0.00797937
v -0.00071298 0.00985500 0.00786733
v -0.00019764 0.00975868 0.00814386
v -0.00045531 0.00980667 0.00800792
v 0.00005924 0.00975936 0.00814565
v 0.00134998 0.00978679 0.00795689
v 0.00160765 0.00977787 0.00793405
v 0.00186612 0.00976793 0.00790694
v 0.00204824 0.00980804 0.00775422
v 0.00212936 0.00976245 0.00785092
v 0.00238146 0.00972782 0.00786733
v 0.00263913 0.00977479 0.00766466
v 0.00263913 0.00969766 0.00786733
v 0.00290476 0.00976382 0.00759793
v 0.00315527 0.00972097 0.00760935
v 0.00299542 0.00979741 0.00746734
v 0.00343759 0.00977204 0.00734709
v 0.00367141 0.00973159 0.00735173
v 0.00392908 0.00968154 0.00735173
v 0.00404519 0.00969937 0.00723648
v 0.00404519 0.00974976 0.00709268
v 0.00404519 0.00979947 0.00694674
v -0.00407940 0.00983341 0.00683149
v -0.00405395 0.00983512 0.00684077
v -0.00380821 0.00987900 0.00683613
v -0.00354656 0.00983992 0.00710410
v -0.00345749 0.00980873 0.00724112
v -0.00329207 0.00982175 0.00727680
v -0.00277673 0.00986906 0.00735137
v -0.00251827 0.00983067 0.00755619
v -0.00200292 0.00986495 0.00760935
v -0.00174525 0.00988654 0.00760935
v -0.00148679 0.00990231 0.00760935
v -0.00122912 0.00991568 0.00760935
v -0.00094759 0.00983958 0.00788588
v 0.00404519 0.00856124 0.00906445
v 0.00392908 0.00858284 0.00907694
v 0.00341294 0.00864112 0.00911619
v 0.00315527 0.00864112 0.00913652
v 0.00289760 0.00864112 0.00914188
v 0.00016581 0.00889925 0.00914188
v -0.00407940 0.00812622 0.00914116
v -0.00406668 0.00812622 0.00914152
v 0.00031850 0.00965652 0.00838329
v 0.00057617 0.00975422 0.00813280
v 0.00005924 0.00966166 0.00838329
v 0.00016581 0.00965960 0.00838329
v 0.00082907 0.00976073 0.00810104
v 0.00109231 0.00973914 0.00812531
v -0.00084500 0.00980221 0.00799685
v -0.00019764 0.00965995 0.00838329
v -0.00045531 0.00975593 0.00813673
v 0.00160765 0.00970348 0.00812531
v 0.00186612 0.00968291 0.00812531
v 0.00212379 0.00965412 0.00812531
v 0.00263913 0.00959618 0.00809926
v 0.00289760 0.00966132 0.00786733
v 0.00341294 0.00967812 0.00760935
v 0.00367141 0.00963081 0.00760935
v 0.00390522 0.00958110 0.00760828
v 0.00404519 0.00959447 0.00749838
v 0.00404519 0.00965103 0.00735994
v -0.00407940 0.00979501 0.00694425
v -0.00380821 0.00982072 0.00701918
v -0.00362927 0.00979296 0.00719687
v -0.00329207 0.00969937 0.00760935
v -0.00329207 0.00977479 0.00740525
v -0.00354656 0.00975868 0.00733639
v -0.00301373 0.00975113 0.00758545
v -0.00291352 0.00980324 0.00748375
v -0.00301373 0.00983375 0.00735780
v -0.00277673 0.00981352 0.00751123
v -0.00251827 0.00971342 0.00786733
v -0.00231070 0.00979364 0.00771568
v -0.00223912 0.00983684 0.00762148
v -0.00277673 0.00976587 0.00764040
v -0.00200292 0.00981044 0.00775993
v -0.00174525 0.00982278 0.00779204
v -0.00148679 0.00983238 0.00781630
v -0.00122912 0.00984095 0.00783843
v -0.00101678 0.00979741 0.00798437
v 0.00404519 0.00868671 0.00893956
v 0.00392908 0.00871208 0.00896204
v 0.00374457 0.00874636 0.00900343
v 0.00357279 0.00878064 0.00903876
v 0.00341294 0.00880498 0.00905945
v 0.00315527 0.00883961 0.00907979
v 0.00238146 0.00889925 0.00911975
v 0.00212379 0.00889925 0.00913545
v 0.00186612 0.00889925 0.00914116
v 0.00160765 0.00889925 0.00914188
v 0.00005924 0.00915739 0.00910191
v -0.00174525 0.00889925 0.00914152
v -0.00277673 0.00864146 0.00914152
v -0.00355054 0.00838333 0.00914152
v -0.00407940 0.00837099 0.00912189
v -0.00380821 0.00838333 0.00914009
v 0.00031850 0.00957219 0.00856276
v 0.00057617 0.00964966 0.00838329
v 0.00016581 0.00957424 0.00856633
v 0.00005924 0.00957527 0.00856847
v 0.00083384 0.00964246 0.00838329
v 0.00109231 0.00962841 0.00838329
v -0.00094759 0.00975628 0.00809962
v -0.00071298 0.00975285 0.00812959
v -0.00045531 0.00965343 0.00838329
v -0.00019764 0.00957424 0.00856669
v 0.00160765 0.00959858 0.00835902
v 0.00186612 0.00958796 0.00833619
v 0.00212379 0.00957184 0.00830514
v 0.00289760 0.00957664 0.00805823
v 0.00232340 0.00955573 0.00827588
v 0.00308847 0.00955847 0.00802326
v 0.00316720 0.00960475 0.00788695
v 0.00341294 0.00958659 0.00782415
v 0.00367141 0.00955985 0.00776849
v 0.00380263 0.00954511 0.00773995
v 0.00404519 0.00957082 0.00755440
v -0.00407940 0.00976587 0.00702881
v -0.00380821 0.00977616 0.00714799
v -0.00380821 0.00970520 0.00735137
v -0.00355054 0.00965549 0.00760935
v -0.00303440 0.00963698 0.00786733
v -0.00277673 0.00967983 0.00786733
v -0.00200292 0.00966852 0.00812531
v -0.00200292 0.00976142 0.00788910
v -0.00174525 0.00977342 0.00792085
v -0.00148679 0.00978233 0.00794547
v -0.00174525 0.00969423 0.00812531
v -0.00122912 0.00972954 0.00812531
v 0.00404519 0.00876007 0.00885464
v 0.00366425 0.00884749 0.00890995
v 0.00341294 0.00894451 0.00888426
v 0.00315527 0.00906689 0.00882324
v 0.00315527 0.00896884 0.00895241
v 0.00275445 0.00902301 0.00902377
v 0.00404519 0.00879881 0.00880754
v 0.00392908 0.00881801 0.00883323
v 0.00258267 0.00904392 0.00904447
v 0.00238146 0.00906517 0.00906302
v 0.00212379 0.00908780 0.00907872
v 0.00186612 0.00910391 0.00908407
v 0.00057617 0.00915739 0.00909549
v 0.00031850 0.00915739 0.00909941
v 0.00005924 0.00930103 0.00904518
v -0.00019764 0.00915739 0.00910049
v -0.00200292 0.00889925 0.00913866
v -0.00303440 0.00864146 0.00914116
v -0.00407940 0.00838367 0.00911868
v -0.00406668 0.00838333 0.00912082
v -0.00329207 0.00864146 0.00912832
v 0.00031850 0.00938330 0.00889888
v 0.00057617 0.00949643 0.00868479
v 0.00057617 0.00956842 0.00855563
v 0.00005924 0.00950294 0.00869728
v 0.00083384 0.00956430 0.00854778
v 0.00109231 0.00955608 0.00853315
v -0.00097144 0.00963526 0.00838329
v -0.00071298 0.00964658 0.00838329
v -0.00019764 0.00950191 0.00869550
v -0.00071298 0.00956670 0.00855242
v 0.00125932 0.00954819 0.00851923
v 0.00186612 0.00951768 0.00846500
v 0.00212379 0.00950054 0.00843431
v 0.00263913 0.00952968 0.00822807
v 0.00289760 0.00950808 0.00818739
v 0.00226773 0.00928868 0.00877436
v 0.00236476 0.00933942 0.00865411
v 0.00263913 0.00944398 0.00838329
v 0.00306143 0.00929348 0.00852458
v 0.00315050 0.00934422 0.00839684
v 0.00316720 0.00949128 0.00811567
v 0.00341294 0.00942992 0.00812531
v 0.00367141 0.00949163 0.00789766
v 0.00378036 0.00928149 0.00824591
v 0.00392908 0.00933222 0.00808320
v 0.00404519 0.00931782 0.00805502
v 0.00404519 0.00941587 0.00786376
v 0.00397520 0.00952179 0.00769392
v 0.00404519 0.00954099 0.00761649
v -0.00407940 0.00974873 0.00707734
v -0.00406668 0.00965069 0.00735137
v -0.00380742 0.00959721 0.00762113
v -0.00372153 0.00955539 0.00775957
v -0.00355054 0.00957424 0.00779668
v -0.00303440 0.00956293 0.00803254
v -0.00277673 0.00958693 0.00807928
v -0.00327537 0.00958933 0.00787554
v -0.00226060 0.00963492 0.00812531
v -0.00200292 0.00958007 0.00832049
v -0.00174525 0.00959413 0.00834832
v -0.00148679 0.00971240 0.00812531
v -0.00148679 0.00960338 0.00837008
v 0.00349883 0.00901478 0.00875188
v 0.00332705 0.00904186 0.00878827
v 0.00394498 0.00895993 0.00863377
v 0.00367141 0.00898770 0.00871441
v 0.00341294 0.00911008 0.00865589
v 0.00323321 0.00927463 0.00849176
v 0.00315050 0.00920675 0.00862271
v 0.00289760 0.00909911 0.00887070
v 0.00265663 0.00911591 0.00892243
v 0.00404519 0.00892017 0.00864340
v 0.00236476 0.00920504 0.00887605
v 0.00212379 0.00921669 0.00892101
v 0.00186612 0.00923281 0.00894955
v 0.00095234 0.00928491 0.00902698
v 0.00078056 0.00929108 0.00903376
v 0.00057617 0.00929520 0.00903876
v 0.00031850 0.00929897 0.00904304
v 0.00016581 0.00930000 0.00904447
v 0.00005924 0.00938878 0.00889888
v -0.00019764 0.00929965 0.00904375
v -0.00045531 0.00915739 0.00909620
v -0.00071298 0.00915739 0.00909157
v -0.00174525 0.00910974 0.00908479
v -0.00200292 0.00909637 0.00908193
v -0.00226060 0.00889925 0.00912796
v -0.00407940 0.00855096 0.00906516
v -0.00380821 0.00860649 0.00908300
v -0.00303440 0.00885572 0.00908443
v -0.00329207 0.00882246 0.00907158
v 0.00057617 0.00937610 0.00889888
v 0.00083384 0.00949128 0.00867694
v 0.00085373 0.00935005 0.00892422
v 0.00109231 0.00935348 0.00888782
v -0.00125138 0.00960270 0.00840826
v -0.00097144 0.00956019 0.00854064
v -0.00071298 0.00949403 0.00868123
v -0.00071298 0.00937062 0.00889888
v -0.00019764 0.00938639 0.00889888
v -0.00087283 0.00928868 0.00903091
v 0.00134998 0.00934113 0.00886641
v 0.00160765 0.00932811 0.00884394
v 0.00186612 0.00931542 0.00882039
v 0.00212379 0.00929931 0.00879220
v 0.00212379 0.00938467 0.00864126
v 0.00289760 0.00940078 0.00838329
v 0.00243952 0.00927394 0.00874902
v 0.00289760 0.00930788 0.00854992
v 0.00263913 0.00925509 0.00871798
v 0.00289760 0.00922835 0.00867873
v 0.00368493 0.00935656 0.00814600
v 0.00392908 0.00926092 0.00821201
v 0.00341294 0.00924960 0.00845251
v 0.00404519 0.00928731 0.00810925
v 0.00404519 0.00951528 0.00766787
v -0.00407940 0.00964761 0.00735173
v -0.00407940 0.00957082 0.00753513
v -0.00355054 0.00950637 0.00792549
v -0.00389331 0.00953242 0.00771497
v -0.00406668 0.00931405 0.00804966
v -0.00387581 0.00927120 0.00822771
v -0.00335093 0.00952865 0.00796688
v -0.00317914 0.00954751 0.00800256
v -0.00303440 0.00949471 0.00816135
v -0.00277673 0.00951939 0.00820845
v -0.00258905 0.00953482 0.00823735
v -0.00226060 0.00956087 0.00828445
v -0.00250872 0.00959481 0.00814101
v -0.00200292 0.00950877 0.00844930
v -0.00174525 0.00952454 0.00847749
v -0.00117901 0.00955196 0.00852566
v 0.00367141 0.00908129 0.00858560
v 0.00404519 0.00902232 0.00850425
v 0.00394498 0.00912448 0.00840434
v -0.00045531 0.00929588 0.00903947
v -0.00071298 0.00929177 0.00903483
v -0.00226060 0.00907614 0.00907123
v -0.00407940 0.00855679 0.00906231
v -0.00406668 0.00855919 0.00906409
v -0.00348930 0.00879195 0.00904875
v -0.00251827 0.00905112 0.00905089
v -0.00267414 0.00903466 0.00903519
v -0.00096429 0.00934491 0.00892029
v -0.00122912 0.00934696 0.00887676
v -0.00104461 0.00927840 0.00902056
v 0.00404519 0.00911042 0.00837829
v 0.00404519 0.00924789 0.00817419
v -0.00407940 0.00950671 0.00766359
v -0.00406668 0.00950843 0.00766751
v -0.00370403 0.00929143 0.00826304
v -0.00355054 0.00939975 0.00812531
v -0.00406668 0.00940730 0.00786733
v -0.00407940 0.00931234 0.00804609
v -0.00406668 0.00924035 0.00817847
v -0.00405554 0.00909980 0.00839149
v -0.00396250 0.00903672 0.00852351
v -0.00380821 0.00906072 0.00855598
v -0.00355054 0.00910014 0.00860986
v -0.00329207 0.00926537 0.00847749
v -0.00315131 0.00928354 0.00850746
v -0.00305270 0.00935862 0.00840612
v -0.00277673 0.00942341 0.00838329
v -0.00297953 0.00930137 0.00853779
v -0.00250872 0.00947826 0.00836223
v -0.00226696 0.00935073 0.00866124
v -0.00226060 0.00948923 0.00841362
v -0.00218504 0.00929486 0.00878435
v -0.00200292 0.00940113 0.00864126
v -0.00200292 0.00930720 0.00880611
v -0.00174525 0.00932194 0.00883216
v -0.00174525 0.00923863 0.00896133
v -0.00200292 0.00922527 0.00893528
v -0.00366109 0.00876110 0.00902020
v -0.00380821 0.00873539 0.00898880
v -0.00407940 0.00867540 0.00894277
v -0.00303440 0.00898496 0.00897417
v -0.00331434 0.00896542 0.00889389
v -0.00356565 0.00886806 0.00891994
v -0.00226696 0.00921807 0.00888176
v -0.00251827 0.00916047 0.00889888
v -0.00276639 0.00910014 0.00891280
v -0.00303440 0.00908231 0.00884536
v -0.00407940 0.00949951 0.00767786
v -0.00407940 0.00940353 0.00786769
v -0.00407940 0.00923795 0.00817490
v -0.00407940 0.00923178 0.00818454
v -0.00407940 0.00909671 0.00838400
v -0.00407940 0.00907306 0.00841825
v -0.00407940 0.00891022 0.00864590
v -0.00406668 0.00879744 0.00880576
v -0.00324197 0.00905249 0.00880433
v -0.00331434 0.00912928 0.00866517
v -0.00305270 0.00922458 0.00863092
v -0.00277673 0.00924206 0.00869907
v -0.00277673 0.00931919 0.00856990
v -0.00235682 0.00928080 0.00876080
v -0.00251827 0.00926675 0.00873689
v -0.00407940 0.00879538 0.00880290
v -0.00406668 0.00868808 0.00893457
v -0.00407940 0.00868500 0.00893207
f 1 2 7
f 1 7 11
f 1 11 16
f 1 16 18
f 1 18 22
f 1 22 30
f 1 30 49
f 1 49 82
f 1 82 119
f 1 119 118
f 1 118 117
f 1 117 156
f 1 156 196
f 1 196 244
f 1 244 298
f 1 298 351
f 1 351 421
f 1 421 472
f 1 472 509
f 1 509 534
f 1 534 532
f 1 532 523
f 1 523 522
f 1 522 521
f 1 521 520
f 1 520 519
f 1 519 487
f 1 487 518
f 1 518 517
f 1 517 482
f 1 482 451
f 1 451 450
f 1 450 383
f 1 383 321
f 1 321 265
f 1 265 225
f 1 225 181
f 1 181 142
f 1 142 104
f 1 104 74
f 1 74 46
f 1 46 27
f 1 27 20
f 1 20 15
f 1 15 13
f 1 13 9
f 1 9 3
f 1 3 4
f 1 4 5
f 1 5 6
f 1 6 2
f 2 6 8
f 2 8 7
f 3 9 4
f 4 10 14
f 4 14 19
f 4 19 26
f 4 26 45
f 4 45 73
f 4 73 72
f 4 72 70
f 4 70 103
f 4 103 140
f 4 140 139
f 4 139 180
f 4 180 224
f 4 224 223
f 4 223 222
f 4 222 264
f 4 264 263
f 4 263 320
f 4 320 382
f 4 382 449
f 4 449 380
f 4 380 379
f 4 379 448
f 4 448 481
f 4 481 480
f 4 480 467
f 4 467 405
f 4 405 339
f 4 339 333
f 4 333 284
f 4 284 238
f 4 238 192
f 4 192 154
f 4 154 116
f 4 116 81
f 4 81 48
f 4 48 29
f 4 29 21
f 4 21 17
f 4 17 12
f 4 12 8
f 4 8 6
f 4 6 5
f 4 9 10
f 7 8 12
f 7 12 11
f 9 13 10
f 10 13 15
f 10 15 14
f 11 12 16
f 12 17 18
f 12 18 16
f 14 15 19
f 15 20 19
f 17 21 18
f 18 21 22
f 19 23 24
f 19 24 25
f 19 25 26
f 19 20 27
f 19 27 28
f 19 28 23
f 21 29 30
f 21 30 22
f 23 28 31
f 23 31 35
f 23 35 24
f 24 32 33
f 24 33 34
f 24 34 25
f 24 35 36
f 24 36 37
f 24 37 38
f 24 38 39
f 24 39 32
f 25 40 41
f 25 41 42
f 25 42 43
f 25 43 44
f 25 44 26
f 25 34 40
f 26 44 45
f 27 46 47
f 27 47 28
f 28 47 35
f 28 35 31
f 29 48 30
f 30 48 49
f 32 50 51
f 32 51 52
f 32 52 33
f 32 39 53
f 32 53 50
f 33 52 54
f 33 54 34
f 34 54 55
f 34 55 56
f 34 56 57
f 34 57 58
f 34 58 40
f 35 47 59
f 35 59 60
f 35 60 37
f 35 37 36
f 37 60 61
f 37 61 39
f 37 39 38
f 39 61 53
f 40 62 63
f 40 63 64
f 40 64 41
f 40 58 65
f 40 65 62
f 41 64 42
f 42 64 66
f 42 66 67
f 42 67 43
f 43 67 68
f 43 68 44
f 44 69 70
f 44 70 71
f 44 71 72
f 44 72 73
f 44 73 45
f 44 68 69
f 46 74 75
f 46 75 47
f 47 76 77
f 47 77 78
f 47 78 79
f 47 79 59
f 47 75 80
f 47 80 76
f 48 81 49
f 49 81 82
f 50 83 51
f 50 53 84
f 50 84 83
f 51 83 85
f 51 85 86
f 51 86 52
f 52 86 87
f 52 87 54
f 53 61 88
f 53 88 84
f 54 87 55
f 55 87 89
f 55 89 56
f 56 89 90
f 56 90 91
f 56 91 57
f 57 91 92
f 57 92 58
f 58 92 65
f 59 79 93
f 59 93 94
f 59 94 95
f 59 95 60
f 60 95 96
f 60 96 61
f 61 96 88
f 62 97 63
f 62 65 97
f 63 97 64
f 64 97 98
f 64 98 66
f 65 92 99
f 65 99 97
f 66 100 101
f 66 101 67
f 66 98 102
f 66 102 100
f 67 101 103
f 67 103 70
f 67 70 69
f 67 69 68
f 70 72 71
f 74 104 75
f 75 105 80
f 75 104 105
f 76 80 106
f 76 106 107
f 76 107 108
f 76 108 77
f 77 108 109
f 77 109 110
f 77 110 111
f 77 111 112
f 77 112 113
f 77 113 78
f 78 113 79
f 79 113 114
f 79 114 115
f 79 115 93
f 80 105 106
f 81 116 117
f 81 117 118
f 81 118 119
f 81 119 82
f 83 120 85
f 83 84 88
f 83 88 121
f 83 121 120
f 85 120 122
f 85 122 86
f 86 122 123
f 86 123 87
f 87 123 124
f 87 124 89
f 88 96 125
f 88 125 126
f 88 126 121
f 89 124 90
f 90 127 91
f 90 124 128
f 90 128 127
f 91 127 129
f 91 129 130
f 91 130 99
f 91 99 92
f 93 115 131
f 93 131 94
f 94 132 133
f 94 133 96
f 94 96 95
f 94 131 132
f 96 133 125
f 97 134 98
f 97 99 130
f 97 130 135
f 97 135 134
f 98 134 102
f 100 102 136
f 100 136 137
f 100 137 138
f 100 138 139
f 100 139 140
f 100 140 101
f 101 140 103
f 102 134 141
f 102 141 136
f 104 142 105
f 105 143 106
f 105 142 143
f 106 143 107
f 107 144 108
f 107 143 144
f 108 144 109
f 109 144 110
f 110 145 111
f 110 144 145
f 111 145 146
f 111 146 147
f 111 147 112
f 112 147 146
f 112 146 148
f 112 148 113
f 113 148 149
f 113 149 150
f 113 150 114
f 114 151 152
f 114 152 153
f 114 153 115
f 114 150 151
f 115 153 131
f 116 154 194
f 116 194 242
f 116 242 293
f 116 293 243
f 116 243 195
f 116 195 155
f 116 155 156
f 116 156 117
f 120 157 158
f 120 158 122
f 120 121 159
f 120 159 160
f 120 160 157
f 121 126 159
f 122 158 161
f 122 161 162
f 122 162 128
f 122 128 123
f 123 128 124
f 125 163 126
f 125 133 132
f 125 132 164
f 125 164 163
f 126 163 165
f 126 165 166
f 126 166 160
f 126 160 159
f 127 167 168
f 127 168 129
f 127 128 162
f 127 162 167
f 129 168 169
f 129 169 170
f 129 170 171
f 129 171 134
f 129 134 135
f 129 135 130
f 131 172 132
f 131 153 172
f 132 172 164
f 134 173 174
f 134 174 141
f 134 171 173
f 136 175 137
f 136 141 176
f 136 176 175
f 137 177 178
f 137 178 179
f 137 179 180
f 137 180 138
f 137 175 177
f 138 180 139
f 141 174 176
f 142 181 182
f 142 182 143
f 143 182 183
f 143 183 144
f 144 183 184
f 144 184 185
f 144 185 145
f 145 185 186
f 145 186 187
f 145 187 146
f 146 187 188
f 146 188 148
f 148 188 189
f 148 189 149
f 149 189 150
f 150 189 151
f 151 189 152
f 152 190 191
f 152 191 153
f 152 189 190
f 153 191 172
f 154 192 193
f 154 193 194
f 155 195 156
f 156 195 243
f 156 243 196
f 157 197 198
f 157 198 158
f 157 160 199
f 157 199 200
f 157 200 197
f 158 198 161
f 160 166 199
f 161 201 162
f 161 198 202
f 161 202 201
f 162 203 167
f 162 201 203
f 163 164 204
f 163 204 165
f 164 172 190
f 164 190 204
f 165 205 207
f 165 207 166
f 165 204 206
f 165 206 254
f 165 254 205
f 166 207 200
f 166 200 199
f 167 208 209
f 167 209 168
f 167 203 208
f 168 209 210
f 168 210 169
f 169 210 211
f 169 211 170
f 170 211 171
f 171 211 212
f 171 212 213
f 171 213 214
f 171 214 173
f 172 191 190
f 173 214 174
f 174 214 215
f 174 215 216
f 174 216 217
f 174 217 218
f 174 218 176
f 175 219 220
f 175 220 177
f 175 176 217
f 175 217 219
f 176 218 217
f 177 220 178
f 178 220 221
f 178 221 222
f 178 222 223
f 178 223 179
f 179 223 224
f 179 224 180
f 181 225 226
f 181 226 227
f 181 227 182
f 182 227 183
f 183 227 184
f 184 227 228
f 184 228 229
f 184 229 230
f 184 230 231
f 184 231 185
f 185 231 186
f 186 231 232
f 186 232 233
f 186 233 187
f 187 233 234
f 187 234 188
f 188 234 189
f 189 234 235
f 189 235 236
f 189 236 190
f 190 237 204
f 190 236 237
f 192 238 239
f 192 239 193
f 193 239 240
f 193 240 241
f 193 241 194
f 194 241 242
f 196 243 245
f 196 245 244
f 197 246 247
f 197 247 198
f 197 200 248
f 197 248 249
f 197 249 246
f 198 247 250
f 198 250 202
f 200 207 248
f 201 251 203
f 201 202 250
f 201 250 251
f 203 251 208
f 204 237 252
f 204 252 206
f 205 253 248
f 205 248 207
f 205 254 253
f 206 252 254
f 208 251 209
f 209 255 210
f 209 251 255
f 210 255 256
f 210 256 212
f 210 212 211
f 212 256 213
f 213 256 257
f 213 257 215
f 213 215 214
f 215 258 259
f 215 259 216
f 215 257 258
f 216 259 217
f 217 259 260
f 217 260 220
f 217 220 219
f 220 261 221
f 220 260 261
f 221 262 263
f 221 263 264
f 221 264 222
f 221 261 262
f 225 265 226
f 226 266 228
f 226 228 227
f 226 265 266
f 228 267 229
f 228 266 267
f 229 268 269
f 229 269 230
f 229 267 270
f 229 270 268
f 230 269 271
f 230 271 272
f 230 272 273
f 230 273 231
f 231 274 232
f 231 273 274
f 232 275 276
f 232 276 277
f 232 277 233
f 232 274 278
f 232 278 275
f 233 279 280
f 233 280 234
f 233 277 279
f 234 280 281
f 234 281 282
f 234 282 235
f 235 282 236
f 236 282 237
f 237 282 283
f 237 283 252
f 238 284 285
f 238 285 286
f 238 286 287
f 238 287 288
f 238 288 239
f 239 288 289
f 239 289 240
f 240 289 241
f 241 289 290
f 241 290 291
f 241 291 292
f 241 292 242
f 242 292 293
f 243 293 294
f 243 294 295
f 243 295 296
f 243 296 297
f 243 297 245
f 244 245 299
f 244 299 298
f 245 297 299
f 246 300 301
f 246 301 247
f 246 249 302
f 246 302 300
f 247 301 250
f 248 253 303
f 248 303 302
f 248 302 249
f 250 304 251
f 250 301 304
f 251 304 305
f 251 305 255
f 252 283 306
f 252 306 307
f 252 307 254
f 253 254 307
f 253 307 308
f 253 308 309
f 253 309 303
f 255 305 310
f 255 310 256
f 256 310 311
f 256 311 257
f 257 311 312
f 257 312 258
f 258 313 259
f 258 312 314
f 258 314 313
f 259 313 315
f 259 315 316
f 259 316 260
f 260 316 317
f 260 317 261
f 261 317 318
f 261 318 319
f 261 319 262
f 262 319 320
f 262 320 263
f 265 321 266
f 266 321 322
f 266 322 267
f 267 322 323
f 267 323 270
f 268 270 324
f 268 324 325
f 268 325 326
f 268 326 271
f 268 271 269
f 270 323 324
f 271 326 278
f 271 278 274
f 271 274 272
f 272 274 273
f 275 278 326
f 275 326 327
f 275 327 328
f 275 328 276
f 276 328 279
f 276 279 277
f 279 328 280
f 280 329 281
f 280 328 329
f 281 330 282
f 281 329 331
f 281 331 330
f 282 330 332
f 282 332 283
f 283 332 306
f 284 333 285
f 285 333 286
f 286 333 287
f 287 334 335
f 287 335 336
f 287 336 337
f 287 337 338
f 287 338 288
f 287 333 339
f 287 339 340
f 287 340 334
f 288 338 341
f 288 341 289
f 289 341 342
f 289 342 343
f 289 343 290
f 290 343 291
f 291 343 344
f 291 344 292
f 292 344 345
f 292 345 346
f 292 346 294
f 292 294 293
f 294 347 348
f 294 348 295
f 294 346 347
f 295 348 349
f 295 349 350
f 295 350 296
f 296 350 297
f 297 350 299
f 298 299 352
f 298 352 351
f 299 350 353
f 299 353 352
f 300 354 355
f 300 355 356
f 300 356 301
f 300 302 354
f 301 356 304
f 302 303 357
f 302 357 354
f 303 309 362
f 303 362 357
f 304 356 358
f 304 358 305
f 305 359 310
f 305 358 359
f 306 332 360
f 306 360 361
f 306 361 307
f 307 361 308
f 308 361 309
f 309 361 363
f 309 363 362
f 310 359 311
f 311 359 364
f 311 364 365
f 311 365 312
f 312 366 314
f 312 365 366
f 313 314 367
f 313 367 368
f 313 368 315
f 314 366 369
f 314 369 370
f 314 370 371
f 314 371 367
f 315 317 316
f 315 368 372
f 315 372 373
f 315 373 374
f 315 374 375
f 315 375 376
f 315 376 319
f 315 319 318
f 315 318 317
f 319 377 378
f 319 378 379
f 319 379 380
f 319 380 381
f 319 381 382
f 319 382 320
f 319 376 377
f 321 383 323
f 321 323 322
f 323 383 384
f 323 384 385
f 323 385 324
f 324 385 386
f 324 386 387
f 324 387 325
f 325 388 389
f 325 389 326
f 325 387 390
f 325 390 388
f 326 389 391
f 326 391 327
f 327 391 392
f 327 392 393
f 327 393 331
f 327 331 328
f 328 331 329
f 330 394 332
f 330 331 394
f 331 393 395
f 331 395 360
f 331 360 394
f 332 394 360
f 334 396 397
f 334 397 335
f 334 340 398
f 334 398 399
f 334 399 396
f 335 397 336
f 336 397 400
f 336 400 401
f 336 401 402
f 336 402 403
f 336 403 338
f 336 338 337
f 338 403 404
f 338 404 341
f 339 405 340
f 340 405 398
f 341 404 406
f 341 406 407
f 341 407 342
f 342 407 408
f 342 408 343
f 343 408 409
f 343 409 410
f 343 410 344
f 344 410 411
f 344 411 345
f 345 411 412
f 345 412 346
f 346 412 413
f 346 413 347
f 347 414 415
f 347 415 348
f 347 413 412
f 347 412 414
f 348 415 416
f 348 416 349
f 349 416 417
f 349 417 418
f 349 418 419
f 349 419 420
f 349 420 350
f 350 420 353
f 351 352 421
f 352 353 422
f 352 422 421
f 353 420 423
f 353 423 424
f 353 424 422
f 354 412 411
f 354 411 425
f 354 425 355
f 354 357 414
f 354 414 412
f 355 425 358
f 355 358 356
f 357 362 414
f 358 426 359
f 358 425 426
f 359 426 427
f 359 427 409
f 359 409 428
f 359 428 364
f 360 395 429
f 360 429 430
f 360 430 363
f 360 363 361
f 362 363 431
f 362 431 432
f 362 432 433
f 362 433 414
f 363 430 434
f 363 434 431
f 364 428 435
f 364 435 436
f 364 436 437
f 364 437 365
f 365 437 438
f 365 438 439
f 365 439 366
f 366 439 369
f 367 371 440
f 367 440 368
f 368 440 372
f 369 439 438
f 369 438 407
f 369 407 406
f 369 406 441
f 369 441 370
f 370 441 440
f 370 440 371
f 372 402 401
f 372 401 373
f 372 440 442
f 372 442 441
f 372 441 443
f 372 443 444
f 372 444 402
f 373 401 374
f 374 401 377
f 374 377 375
f 375 377 445
f 375 445 376
f 376 445 377
f 377 446 379
f 377 379 378
f 377 401 447
f 377 447 446
f 379 446 448
f 380 449 381
f 381 449 382
f 383 450 384
f 384 450 451
f 384 451 385
f 385 451 386
f 386 452 387
f 386 451 453
f 386 453 454
f 386 454 455
f 386 455 452
f 387 452 456
f 387 456 457
f 387 457 388
f 387 388 390
f 388 458 459
f 388 459 389
f 388 457 458
f 389 459 460
f 389 460 461
f 389 461 392
f 389 392 462
f 389 462 391
f 391 462 392
f 392 461 463
f 392 463 464
f 392 464 393
f 393 464 465
f 393 465 395
f 395 465 429
f 396 399 466
f 396 466 397
f 397 466 400
f 398 466 399
f 398 405 467
f 398 467 466
f 400 447 401
f 400 466 468
f 400 468 447
f 402 444 403
f 403 444 404
f 404 444 443
f 404 443 406
f 406 443 441
f 407 438 408
f 408 438 437
f 408 437 409
f 409 437 436
f 409 436 435
f 409 435 428
f 409 427 410
f 410 425 411
f 410 427 426
f 410 426 425
f 414 433 415
f 415 433 469
f 415 469 417
f 415 417 416
f 417 469 470
f 417 470 418
f 418 434 419
f 418 470 434
f 419 471 420
f 419 434 471
f 420 471 423
f 421 422 473
f 421 473 472
f 422 424 473
f 423 471 424
f 424 474 473
f 424 471 475
f 424 475 476
f 424 476 474
f 429 465 430
f 430 465 477
f 430 477 434
f 431 434 432
f 432 434 470
f 432 470 433
f 433 470 469
f 434 477 478
f 434 478 479
f 434 479 471
f 440 441 442
f 446 468 480
f 446 480 481
f 446 481 448
f 446 447 468
f 451 482 483
f 451 483 453
f 452 455 484
f 452 484 485
f 452 485 456
f 453 483 486
f 453 486 454
f 454 486 487
f 454 487 455
f 455 487 488
f 455 488 489
f 455 489 490
f 455 490 491
f 455 491 492
f 455 492 493
f 455 493 494
f 455 494 484
f 456 485 458
f 456 458 457
f 458 485 494
f 458 494 495
f 458 495 459
f 459 496 460
f 459 495 497
f 459 497 496
f 460 496 498
f 460 498 499
f 460 499 500
f 460 500 461
f 461 500 463
f 463 500 499
f 463 499 501
f 463 501 502
f 463 502 464
f 464 502 503
f 464 503 504
f 464 504 478
f 464 478 465
f 465 478 477
f 466 467 468
f 467 480 468
f 471 479 505
f 471 505 506
f 471 506 475
f 472 473 474
f 472 474 507
f 472 507 508
f 472 508 509
f 474 476 510
f 474 510 511
f 474 511 512
f 474 512 507
f 475 506 513
f 475 513 476
f 476 513 514
f 476 514 515
f 476 515 516
f 476 516 510
f 478 504 479
f 479 504 505
f 482 517 483
f 483 517 518
f 483 518 486
f 484 494 485
f 486 518 487
f 487 519 488
f 488 519 520
f 488 520 521
f 488 521 489
f 489 521 522
f 489 522 490
f 490 522 523
f 490 523 524
f 490 524 491
f 491 524 511
f 491 511 492
f 492 511 525
f 492 525 526
f 492 526 493
f 493 526 516
f 493 516 494
f 494 516 527
f 494 527 528
f 494 528 497
f 494 497 495
f 496 497 529
f 496 529 530
f 496 530 499
f 496 499 498
f 497 528 531
f 497 531 529
f 499 530 501
f 501 530 513
f 501 513 506
f 501 506 503
f 501 503 502
f 503 506 504
f 504 506 505
f 507 512 524
f 507 524 532
f 507 532 508
f 508 532 533
f 508 533 509
f 509 533 534
f 510 516 511
f 511 524 512
f 511 516 525
f 513 530 531
f 513 531 514
f 514 531 528
f 514 528 515
f 515 528 527
f 515 527 516
f 516 526 525
f 523 532 524
f 529 531 530
f 532 534 533

