# https://github.com/mikedh/trimesh
v 0.04622824 -0.01049283 -0.00779687
v 0.04622824 -0.00893486 -0.00779687
v 0.05252002 -0.01035805 -0.00779687
v 0.04030371 -0.01286009 -0.00508166
v 0.03964793 -0.01286336 -0.00508166
v 0.03699106 -0.01286336 -0.00508293
v 0.02055525 -0.01286336 -0.00508293
v 0.04807568 -0.00871985 -0.00779687
v 0.02055525 -0.01030839 -0.00508293
v 0.02839843 -0.00893704 -0.00508293
v 0.05318330 -0.01033185 -0.00779687
v 0.04030371 -0.01285790 -0.00479798
v 0.03898465 -0.01285900 0.00514090
v 0.03832137 -0.01286336 0.00514090
v 0.03964793 -0.01286336 -0.00413691
v 0.04098572 -0.01277823 -0.00508166
v 0.02055525 -0.01286336 -0.00002484
v 0.05611371 -0.00728902 -0.00002737
v 0.05539423 -0.00871985 -0.00779687
v 0.02055525 -0.00910020 -0.00083028
v 0.02055525 -0.00893704 -0.00016921
v 0.05384283 -0.01024672 -0.00779687
v 0.03899964 -0.01285627 0.00514090
v 0.05750023 -0.01032094 0.00115294
v 0.05750023 -0.01030075 0.00181528
v 0.05684070 -0.01034113 0.00313742
v 0.05684070 -0.01030620 0.00379723
v 0.05617742 -0.01029856 0.00512191
v 0.05618117 -0.01029529 0.00513837
v 0.02058149 -0.01286336 0.00514090
v 0.05419508 -0.01027510 -0.00744354
v 0.05485461 -0.01029147 -0.00678373
v 0.05551789 -0.01028165 -0.00612013
v 0.05617742 -0.01032967 -0.00479798
v 0.05684070 -0.01032858 -0.00347584
v 0.05750023 -0.01028492 -0.00215369
v 0.05750023 -0.01031057 -0.00149135
v 0.05750023 -0.01032640 -0.00083408
v 0.05750023 -0.01033349 -0.00017174
v 0.05750023 -0.01033294 -0.00002737
v 0.05750023 -0.01032967 0.00049060
v 0.02055525 -0.00893704 -0.00002484
v 0.05418384 -0.00728902 0.00513837
v 0.05883803 -0.00728902 -0.00002737
v 0.05563780 -0.00871985 -0.00756892
v 0.05539048 -0.00893322 -0.00779687
v 0.05752271 -0.00842790 -0.00508040
v 0.05448737 -0.01006882 -0.00779687
v 0.05486210 -0.01008629 -0.00745747
v 0.03958422 -0.01271329 0.00514090
v 0.05813727 -0.01010975 0.00049060
v 0.05810730 -0.01010102 0.00115294
v 0.05805858 -0.01008083 0.00181528
v 0.05750023 -0.01025600 0.00247635
v 0.05684070 -0.01022217 0.00446083
v 0.05750023 -0.01017524 0.00313742
v 0.05684819 -0.01007101 0.00509404
v 0.05682945 -0.01006555 0.00513837
v 0.02058149 -0.01242189 0.00514090
v 0.05552913 -0.01009065 -0.00679133
v 0.05617742 -0.01006555 -0.00609860
v 0.05617742 -0.01024127 -0.00545906
v 0.05684070 -0.01026910 -0.00413564
v 0.05750023 -0.01022435 -0.00281350
v 0.05802485 -0.01006773 -0.00215369
v 0.05808481 -0.01009065 -0.00149135
v 0.05812603 -0.01010648 -0.00083408
v 0.05814477 -0.01011412 -0.00017174
v 0.05814477 -0.01011303 -0.00002737
v 0.02058149 -0.01033294 0.00513584
v 0.02058149 -0.00893868 0.00049186
v 0.02839843 -0.00893704 0.00514090
v 0.05750772 -0.00728902 0.00513837
v 0.05881929 -0.00728902 0.00049060
v 0.05883803 -0.00827183 -0.00002737
v 0.05883428 -0.00842790 -0.00017174
v 0.05879681 -0.00842790 -0.00083408
v 0.05874809 -0.00842790 -0.00133432
v 0.05872936 -0.00842790 -0.00149135
v 0.05864317 -0.00842790 -0.00199666
v 0.05861318 -0.00842790 -0.00215369
v 0.05851950 -0.00842790 -0.00257035
v 0.05842582 -0.00842790 -0.00290215
v 0.05824220 -0.00842790 -0.00347584
v 0.05804734 -0.00842790 -0.00397861
v 0.05797989 -0.00842790 -0.00414958
v 0.05783749 -0.00842790 -0.00447631
v 0.05773631 -0.00842790 -0.00467894
v 0.05768010 -0.00842790 -0.00479039
v 0.05596382 -0.00871985 -0.00723965
v 0.05596382 -0.00893322 -0.00723458
v 0.05563405 -0.00893322 -0.00756638
v 0.05528555 -0.00940307 -0.00779687
v 0.05733535 -0.00893322 -0.00540207
v 0.05733535 -0.00871985 -0.00540713
v 0.05727164 -0.00871985 -0.00551351
v 0.05713673 -0.00871985 -0.00573640
v 0.05687442 -0.00871985 -0.00612013
v 0.05657464 -0.00871985 -0.00653172
v 0.05629733 -0.00871985 -0.00686352
v 0.05467848 -0.01000389 -0.00779687
v 0.05531553 -0.00999952 -0.00724471
v 0.03991024 -0.01249829 0.00514090
v 0.05847453 -0.00990075 -0.00002737
v 0.05846704 -0.00989365 0.00049060
v 0.05798738 -0.01004318 0.00247635
v 0.05843706 -0.00985109 0.00115294
v 0.05751522 -0.01006009 0.00374530
v 0.05729787 -0.01001698 0.00446083
v 0.05789745 -0.00997824 0.00313742
v 0.05720419 -0.00995423 0.00485596
v 0.05689691 -0.01000825 0.00513837
v 0.02109862 -0.01034277 0.00514090
v 0.05595258 -0.00999352 -0.00657604
v 0.05655965 -0.00996459 -0.00586305
v 0.05668706 -0.01003717 -0.00545906
v 0.05660836 -0.01016378 -0.00508040
v 0.05688566 -0.01011194 -0.00483218
v 0.05737282 -0.01005682 -0.00413564
v 0.05754520 -0.01009393 -0.00348724
v 0.05794616 -0.01001589 -0.00281350
v 0.05841832 -0.00981507 -0.00149135
v 0.05845954 -0.00988056 -0.00083408
v 0.05847453 -0.00990293 -0.00017174
v 0.02905421 -0.00893704 0.00514090
v 0.04162652 -0.01037605 0.00514090
v 0.05750398 -0.00827183 0.00513837
v 0.05751897 -0.00728902 0.00512191
v 0.04162652 -0.00893758 0.00514090
v 0.05881929 -0.00827183 0.00049060
v 0.05877058 -0.00728902 0.00115294
v 0.05880430 -0.00893322 0.00049060
v 0.05881929 -0.00893322 -0.00002737
v 0.05881929 -0.00893322 -0.00017174
v 0.05878931 -0.00893322 -0.00083408
v 0.05872186 -0.00893322 -0.00149135
v 0.05860195 -0.00893322 -0.00215369
v 0.05851575 -0.00893322 -0.00256021
v 0.05842207 -0.00893322 -0.00289075
v 0.05823096 -0.00893322 -0.00347584
v 0.05794991 -0.00891248 -0.00419010
v 0.05783749 -0.00867783 -0.00447631
v 0.05769134 -0.00891248 -0.00473593
v 0.05591511 -0.00937960 -0.00718519
v 0.05629359 -0.00893322 -0.00685845
v 0.05654091 -0.00932230 -0.00648992
v 0.05508320 -0.00981944 -0.00768543
v 0.05500450 -0.00974577 -0.00779687
v 0.05550664 -0.00959952 -0.00743468
v 0.05727164 -0.00944618 -0.00530075
v 0.05713299 -0.00893322 -0.00573134
v 0.05782250 -0.00911930 -0.00444718
v 0.05686318 -0.00893322 -0.00612013
v 0.05657089 -0.00893322 -0.00652665
v 0.05575772 -0.00981944 -0.00701929
v 0.05726040 -0.00961971 0.00513837
v 0.05864691 -0.00957060 -0.00002737
v 0.05863942 -0.00956241 0.00049060
v 0.05861694 -0.00951985 0.00115294
v 0.05839209 -0.00976378 0.00181528
v 0.05784124 -0.00993294 0.00349329
v 0.05774755 -0.00979816 0.00393400
v 0.05763513 -0.00958370 0.00445070
v 0.05731286 -0.00957496 0.00509404
v 0.05639476 -0.00976269 -0.00630376
v 0.05667207 -0.00956296 -0.00609860
v 0.05702806 -0.00963772 -0.00549578
v 0.05713673 -0.00988711 -0.00507533
v 0.05725665 -0.00999024 -0.00463462
v 0.05787496 -0.00996132 -0.00327448
v 0.05835837 -0.00969829 -0.00215369
v 0.05854199 -0.00936814 -0.00215369
v 0.05859820 -0.00948438 -0.00149135
v 0.05863192 -0.00954932 -0.00083408
v 0.05864691 -0.00957169 -0.00017174
v 0.05730162 -0.00955041 0.00513837
v 0.05748149 -0.00895068 0.00513837
v 0.05748524 -0.00893322 0.00513837
v 0.05751522 -0.00827183 0.00512191
v 0.05776254 -0.00827183 0.00463940
v 0.05776254 -0.00728902 0.00464066
v 0.05877058 -0.00760989 0.00115294
v 0.05876683 -0.00827183 0.00115294
v 0.05868439 -0.00728902 0.00181528
v 0.05875184 -0.00893322 0.00115294
v 0.05850451 -0.00928902 -0.00251842
v 0.05791993 -0.00943799 -0.00400647
v 0.05615493 -0.00957169 -0.00675461
v 0.05741404 -0.00963772 -0.00483218
v 0.05857196 -0.00943254 0.00181528
v 0.05852700 -0.00933704 0.00227752
v 0.05833963 -0.00957169 0.00248901
v 0.05814102 -0.00959406 0.00313742
v 0.05794241 -0.00958370 0.00374530
v 0.05787496 -0.00935832 0.00422274
v 0.05779627 -0.00987947 -0.00371519
v 0.05828717 -0.00954331 -0.00276791
v 0.05775505 -0.00893322 0.00462167
v 0.05791618 -0.00827183 0.00430886
v 0.05791618 -0.00728902 0.00430886
v 0.05868439 -0.00827183 0.00181528
v 0.05862068 -0.00728902 0.00211415
v 0.05866565 -0.00893322 0.00181528
v 0.05800987 -0.00963335 -0.00348724
v 0.05772507 -0.00963335 -0.00419010
v 0.05855323 -0.00893322 0.00236617
v 0.05846704 -0.00893322 0.00269544
v 0.05833963 -0.00893322 0.00313742
v 0.05790494 -0.00893322 0.00429113
v 0.05811479 -0.00893322 0.00379723
v 0.05813353 -0.00827183 0.00379723
v 0.05802485 -0.00728902 0.00405938
v 0.05856073 -0.00827183 0.00239023
v 0.05855697 -0.00728902 0.00239530
v 0.05835837 -0.00827183 0.00313742
v 0.05836211 -0.00728902 0.00313742
v 0.05813353 -0.00728902 0.00379723
v 0.05847453 -0.00728902 0.00272583
v 0.05841832 -0.00728902 0.00293859
f 1 2 8
f 1 8 19
f 1 19 46
f 1 46 93
f 1 93 148
f 1 148 101
f 1 101 48
f 1 48 22
f 1 22 11
f 1 11 3
f 1 3 4
f 1 4 5
f 1 5 6
f 1 6 7
f 1 7 9
f 1 9 2
f 2 9 10
f 2 10 8
f 3 11 4
f 4 12 13
f 4 13 14
f 4 14 15
f 4 15 5
f 4 11 16
f 4 16 12
f 5 15 14
f 5 14 30
f 5 30 17
f 5 17 7
f 5 7 6
f 7 17 42
f 7 42 21
f 7 21 20
f 7 20 9
f 8 10 18
f 8 18 44
f 8 44 19
f 9 20 10
f 10 20 21
f 10 21 18
f 11 22 16
f 12 16 13
f 13 23 50
f 13 50 103
f 13 103 126
f 13 126 129
f 13 129 125
f 13 125 72
f 13 72 113
f 13 113 59
f 13 59 30
f 13 30 14
f 13 16 24
f 13 24 25
f 13 25 26
f 13 26 27
f 13 27 28
f 13 28 29
f 13 29 23
f 16 22 31
f 16 31 32
f 16 32 33
f 16 33 34
f 16 34 35
f 16 35 36
f 16 36 37
f 16 37 38
f 16 38 39
f 16 39 40
f 16 40 41
f 16 41 24
f 17 30 59
f 17 59 42
f 18 21 43
f 18 43 73
f 18 73 128
f 18 128 181
f 18 181 200
f 18 200 212
f 18 212 217
f 18 217 216
f 18 216 219
f 18 219 218
f 18 218 214
f 18 214 202
f 18 202 184
f 18 184 131
f 18 131 74
f 18 74 44
f 19 45 46
f 19 44 47
f 19 47 45
f 21 42 43
f 22 48 49
f 22 49 31
f 23 29 50
f 24 41 51
f 24 51 52
f 24 52 25
f 25 52 53
f 25 53 54
f 25 54 27
f 25 27 26
f 27 55 28
f 27 54 56
f 27 56 55
f 28 55 29
f 29 55 57
f 29 57 58
f 29 58 50
f 31 49 32
f 32 49 60
f 32 60 33
f 33 60 61
f 33 61 62
f 33 62 34
f 34 62 63
f 34 63 35
f 35 63 36
f 36 64 65
f 36 65 66
f 36 66 67
f 36 67 37
f 36 63 64
f 37 67 38
f 38 67 68
f 38 68 39
f 39 68 40
f 40 68 41
f 41 68 69
f 41 69 51
f 42 59 70
f 42 70 71
f 42 71 43
f 43 71 72
f 43 72 125
f 43 125 73
f 44 74 130
f 44 130 75
f 44 75 76
f 44 76 77
f 44 77 78
f 44 78 79
f 44 79 80
f 44 80 81
f 44 81 82
f 44 82 83
f 44 83 84
f 44 84 85
f 44 85 86
f 44 86 87
f 44 87 88
f 44 88 89
f 44 89 47
f 45 90 91
f 45 91 92
f 45 92 46
f 45 47 90
f 46 92 93
f 47 89 94
f 47 94 95
f 47 95 96
f 47 96 97
f 47 97 98
f 47 98 99
f 47 99 100
f 47 100 90
f 48 101 49
f 49 101 102
f 49 102 60
f 50 58 103
f 51 69 104
f 51 104 105
f 51 105 52
f 52 105 53
f 53 106 54
f 53 105 107
f 53 107 106
f 54 106 56
f 55 56 108
f 55 108 109
f 55 109 57
f 56 106 110
f 56 110 108
f 57 109 111
f 57 111 58
f 58 111 112
f 58 112 103
f 59 113 70
f 60 114 61
f 60 102 114
f 61 115 116
f 61 116 62
f 61 114 115
f 62 116 117
f 62 117 63
f 63 117 118
f 63 118 119
f 63 119 64
f 64 119 120
f 64 120 121
f 64 121 65
f 65 121 122
f 65 122 123
f 65 123 66
f 66 123 67
f 67 123 124
f 67 124 68
f 68 124 69
f 69 124 104
f 70 113 72
f 70 72 71
f 73 126 127
f 73 127 179
f 73 179 128
f 73 125 129
f 73 129 126
f 74 131 182
f 74 182 130
f 75 130 132
f 75 132 133
f 75 133 76
f 76 133 134
f 76 134 135
f 76 135 77
f 77 135 78
f 78 135 136
f 78 136 79
f 79 136 80
f 80 136 137
f 80 137 81
f 81 137 138
f 81 138 82
f 82 138 83
f 83 138 139
f 83 139 84
f 84 139 140
f 84 140 85
f 85 141 86
f 85 140 141
f 86 141 142
f 86 142 87
f 87 142 88
f 88 142 89
f 89 142 143
f 89 143 94
f 90 100 91
f 91 144 92
f 91 100 145
f 91 145 146
f 91 146 144
f 92 144 93
f 93 147 148
f 93 144 149
f 93 149 147
f 94 150 151
f 94 151 97
f 94 97 96
f 94 96 95
f 94 143 152
f 94 152 150
f 97 151 98
f 98 151 153
f 98 153 154
f 98 154 99
f 99 154 145
f 99 145 100
f 101 148 147
f 101 147 102
f 102 147 155
f 102 155 114
f 103 112 156
f 103 156 126
f 104 124 157
f 104 157 105
f 105 157 158
f 105 158 159
f 105 159 107
f 106 107 160
f 106 160 110
f 107 159 190
f 107 190 160
f 108 110 161
f 108 161 109
f 109 161 111
f 110 160 161
f 111 156 112
f 111 161 162
f 111 162 163
f 111 163 164
f 111 164 156
f 114 155 165
f 114 165 115
f 115 165 166
f 115 166 167
f 115 167 168
f 115 168 169
f 115 169 116
f 116 169 118
f 116 118 117
f 118 169 119
f 119 170 121
f 119 121 120
f 119 169 170
f 121 170 171
f 121 171 122
f 122 171 172
f 122 172 173
f 122 173 123
f 123 173 174
f 123 174 175
f 123 175 124
f 124 175 157
f 126 156 176
f 126 176 177
f 126 177 178
f 126 178 127
f 127 178 179
f 128 179 180
f 128 180 181
f 130 182 183
f 130 183 185
f 130 185 132
f 131 184 201
f 131 201 182
f 132 185 159
f 132 159 158
f 132 158 133
f 133 158 157
f 133 157 175
f 133 175 134
f 134 175 174
f 134 174 135
f 135 174 173
f 135 173 136
f 136 173 172
f 136 172 186
f 136 186 137
f 137 186 138
f 138 186 139
f 139 186 140
f 140 186 187
f 140 187 152
f 140 152 141
f 141 152 142
f 142 152 143
f 144 155 149
f 144 146 188
f 144 188 155
f 145 154 146
f 146 166 165
f 146 165 188
f 146 154 153
f 146 153 151
f 146 151 150
f 146 150 166
f 147 149 155
f 150 152 187
f 150 187 189
f 150 189 168
f 150 168 167
f 150 167 166
f 155 188 165
f 156 164 176
f 159 185 190
f 160 190 191
f 160 191 192
f 160 192 161
f 161 192 193
f 161 193 194
f 161 194 162
f 162 194 195
f 162 195 163
f 163 195 164
f 164 195 176
f 168 189 196
f 168 196 169
f 169 196 170
f 170 196 197
f 170 197 171
f 171 197 186
f 171 186 172
f 176 195 177
f 177 195 178
f 178 195 198
f 178 198 179
f 179 198 180
f 180 198 199
f 180 199 181
f 181 199 200
f 182 201 183
f 183 201 185
f 184 202 201
f 185 201 203
f 185 203 190
f 186 197 204
f 186 204 187
f 187 204 196
f 187 196 205
f 187 205 189
f 189 205 196
f 190 203 191
f 191 206 207
f 191 207 208
f 191 208 195
f 191 195 193
f 191 193 192
f 191 203 206
f 193 195 194
f 195 209 198
f 195 208 210
f 195 210 209
f 196 204 197
f 198 209 199
f 199 209 210
f 199 210 211
f 199 211 212
f 199 212 200
f 201 202 213
f 201 213 206
f 201 206 203
f 202 214 213
f 206 213 207
f 207 215 208
f 207 213 215
f 208 215 211
f 208 211 210
f 211 215 216
f 211 216 217
f 211 217 212
f 213 218 219
f 213 219 215
f 213 214 218
f 215 219 216

