# https://github.com/mikedh/trimesh
v 0.05023235 0.00054288 0.00837504
v 0.05023235 0.00054288 0.00904763
v 0.05023235 0.00503524 0.00834636
v 0.05133175 -0.01036391 0.00514128
v 0.05023235 0.00503675 0.00904763
v 0.05133175 -0.01036391 0.00777012
v 0.05133175 -0.01035336 0.00843201
v 0.05133175 -0.01024934 0.00904763
v 0.05023235 0.00503675 0.00838039
v 0.05513045 0.00503675 0.00514128
v 0.05133175 -0.00893329 0.00514128
v 0.05419860 -0.01036391 0.00514128
v 0.05373374 0.00503675 0.00904763
v 0.05221440 -0.01036391 0.00777012
v 0.05155277 -0.01035034 0.00843201
v 0.05221440 -0.01032471 0.00843201
v 0.05155277 -0.01023275 0.00904763
v 0.05750392 0.00503675 0.00514128
v 0.05487663 -0.01036240 0.00514128
v 0.05419860 -0.01036391 0.00578597
v 0.05402392 0.00503675 0.00886256
v 0.05373445 0.00496138 0.00904763
v 0.05353767 -0.01036391 0.00644748
v 0.05419860 -0.01036089 0.00644748
v 0.05353767 -0.01035939 0.00710861
v 0.05287604 -0.01035185 0.00777012
v 0.05353767 -0.01030964 0.00777012
v 0.05287604 -0.01024632 0.00843201
v 0.05221298 -0.01011818 0.00904763
v 0.05729003 0.00503675 0.00553284
v 0.05750535 0.00429958 0.00514128
v 0.05552187 -0.01035637 0.00514128
v 0.05486023 -0.01036089 0.00578597
v 0.05402677 0.00363779 0.00886448
v 0.05435545 0.00503675 0.00864996
v 0.05402820 0.00297599 0.00886524
v 0.05373944 0.00324734 0.00904763
v 0.05403461 -0.00231685 0.00887251
v 0.05403105 0.00054288 0.00886868
v 0.05486023 -0.01033527 0.00644748
v 0.05419860 -0.01032924 0.00710861
v 0.05486023 -0.01020863 0.00710861
v 0.05425421 -0.01012874 0.00782709
v 0.05353197 -0.01008502 0.00845189
v 0.05287604 -0.01003678 0.00892833
v 0.05247749 -0.01006994 0.00904763
v 0.05726151 0.00503675 0.00558446
v 0.05726151 0.00496138 0.00558484
v 0.05726222 0.00429958 0.00558522
v 0.05751034 0.00054288 0.00514128
v 0.05618422 -0.01029456 0.00514128
v 0.05552187 -0.01032622 0.00578597
v 0.05435830 0.00363779 0.00865111
v 0.05479963 0.00503675 0.00831921
v 0.05374943 -0.00033147 0.00904763
v 0.05375299 -0.00165506 0.00904763
v 0.05375584 -0.00297714 0.00904763
v 0.05375727 -0.00363893 0.00904763
v 0.05375798 -0.00400978 0.00904763
v 0.05403461 -0.00297714 0.00887327
v 0.05552187 -0.01020713 0.00644748
v 0.05546839 -0.01000814 0.00705584
v 0.05486023 -0.01001417 0.00760761
v 0.05407026 -0.01001567 0.00824503
v 0.05330739 -0.00996743 0.00881821
v 0.05288673 -0.00989206 0.00904763
v 0.05705475 0.00503675 0.00587812
v 0.05702980 0.00429958 0.00591598
v 0.05703265 0.00165391 0.00591751
v 0.05726294 0.00165391 0.00558675
v 0.05751462 -0.00297714 0.00514128
v 0.05751390 -0.00231685 0.00514128
v 0.05703408 0.00054288 0.00591751
v 0.05683587 -0.01006542 0.00514128
v 0.05623341 -0.01012120 0.00583185
v 0.05480320 0.00231571 0.00832036
v 0.05480106 0.00363779 0.00832036
v 0.05403461 -0.00363893 0.00887404
v 0.05436258 0.00032882 0.00865111
v 0.05481674 -0.00694489 0.00832036
v 0.05513045 0.00503675 0.00804543
v 0.05514685 -0.00694489 0.00806225
v 0.05514613 -0.00628460 0.00806149
v 0.05514114 -0.00297714 0.00805728
v 0.05513686 0.00054288 0.00805193
v 0.05513330 0.00297599 0.00804849
v 0.05375941 -0.00665243 0.00904763
v 0.05403533 -0.00826999 0.00887710
v 0.05601168 -0.01001266 0.00644748
v 0.05587122 -0.00993879 0.00679965
v 0.05521173 -0.00993728 0.00745925
v 0.05451088 -0.00990864 0.00808520
v 0.05374800 -0.00982121 0.00868591
v 0.05334018 -0.00960262 0.00904763
v 0.05702837 0.00503675 0.00591521
v 0.05702837 0.00496138 0.00591559
v 0.05670041 0.00363779 0.00636718
v 0.05670254 0.00165391 0.00637024
v 0.05670326 0.00054288 0.00637215
v 0.05670468 -0.00231685 0.00637712
v 0.05703479 -0.00165506 0.00591751
v 0.05726365 -0.00165506 0.00558675
v 0.05751533 -0.00430073 0.00514128
v 0.05670468 -0.00297714 0.00637827
v 0.05670682 -0.00826999 0.00638209
v 0.05690218 -0.01000814 0.00514128
v 0.05663838 -0.01000814 0.00564220
v 0.05436329 -0.00033147 0.00865111
v 0.05436614 -0.00363893 0.00865111
v 0.05436614 -0.00694489 0.00865111
v 0.05436543 -0.00760819 0.00864843
v 0.05436686 -0.00826999 0.00864346
v 0.05481460 -0.00760819 0.00831768
v 0.05514542 -0.00760819 0.00806187
v 0.05548622 0.00503675 0.00771467
v 0.05548836 0.00363779 0.00771658
v 0.05549050 -0.00760819 0.00773112
v 0.05549050 -0.00694489 0.00773150
v 0.05582060 0.00231571 0.00740877
v 0.05581989 0.00297599 0.00740839
v 0.05548907 0.00297599 0.00771773
v 0.05375941 -0.00694489 0.00904763
v 0.05375870 -0.00826999 0.00904763
v 0.05402178 -0.00893178 0.00886715
v 0.05648723 -0.00989507 0.00608308
v 0.05634463 -0.00964181 0.00647310
v 0.05599171 -0.00959207 0.00693271
v 0.05567516 -0.00959207 0.00726309
v 0.05534505 -0.00959207 0.00758619
v 0.05489374 -0.00964935 0.00794410
v 0.05469625 -0.00946694 0.00822859
v 0.05423496 -0.00964483 0.00845725
v 0.05395975 -0.00938101 0.00882356
v 0.05353197 -0.00959810 0.00894707
v 0.05353482 -0.00928604 0.00904763
v 0.05669827 0.00503675 0.00636450
v 0.05669827 0.00496138 0.00636489
v 0.05648010 0.00503675 0.00665817
v 0.05645728 0.00054288 0.00670291
v 0.05646156 -0.00363893 0.00670979
v 0.05646299 -0.00496101 0.00671170
v 0.05646441 -0.00628460 0.00671323
v 0.05646513 -0.00694489 0.00671361
v 0.05703764 -0.00826999 0.00591368
v 0.05726365 -0.00694489 0.00558675
v 0.05751533 -0.00694489 0.00514128
v 0.05646085 -0.00826999 0.00671285
v 0.05670041 -0.00893178 0.00636489
v 0.05726579 -0.00961920 0.00514128
v 0.05707899 -0.00978201 0.00529997
v 0.05435189 -0.00893178 0.00863237
v 0.05480890 -0.00826999 0.00831271
v 0.05513972 -0.00826999 0.00805843
v 0.05581632 0.00503675 0.00740533
v 0.05581775 0.00429958 0.00740648
v 0.05581632 0.00496138 0.00740571
v 0.05548479 -0.00826999 0.00772767
v 0.05582060 -0.00760819 0.00740724
v 0.05582132 -0.00694489 0.00740877
v 0.05582132 -0.00033147 0.00740877
v 0.05612647 0.00054288 0.00707840
v 0.05612433 0.00231571 0.00707840
v 0.05613359 -0.00628460 0.00707840
v 0.05612361 0.00297599 0.00707802
v 0.05612148 0.00496138 0.00707534
v 0.05372590 -0.00893178 0.00904763
v 0.05685512 -0.00961769 0.00580012
v 0.05663125 -0.00945488 0.00626967
v 0.05644730 -0.00893178 0.00669564
v 0.05611648 -0.00893178 0.00706081
v 0.05580492 -0.00893178 0.00739118
v 0.05547410 -0.00893178 0.00771429
v 0.05512332 -0.00893178 0.00804505
v 0.05479250 -0.00893178 0.00830162
v 0.05645229 0.00503675 0.00669526
v 0.05645229 0.00496138 0.00669564
v 0.05645372 0.00363779 0.00669794
v 0.05613359 -0.00694489 0.00707840
v 0.05703122 -0.00893178 0.00589571
v 0.05725937 -0.00826999 0.00558293
v 0.05726294 -0.00760819 0.00558560
v 0.05751319 -0.00760819 0.00514128
v 0.05613003 -0.00826999 0.00707113
v 0.05613217 -0.00760819 0.00707687
v 0.05721446 -0.00934031 0.00551754
v 0.05730714 -0.00954835 0.00514128
v 0.05612148 0.00503675 0.00707496
v 0.05581561 -0.00826999 0.00740151
v 0.05615855 0.00503675 0.00703251
v 0.05724511 -0.00893178 0.00556496
v 0.05748895 -0.00893178 0.00514128
v 0.05751034 -0.00826999 0.00514128
v 0.05748610 -0.00894836 0.00514128
f 1 2 5
f 1 5 9
f 1 9 3
f 1 3 4
f 1 4 6
f 1 6 2
f 2 6 7
f 2 7 8
f 2 8 17
f 2 17 29
f 2 29 46
f 2 46 66
f 2 66 94
f 2 94 135
f 2 135 166
f 2 166 123
f 2 123 122
f 2 122 87
f 2 87 59
f 2 59 58
f 2 58 57
f 2 57 56
f 2 56 55
f 2 55 37
f 2 37 22
f 2 22 13
f 2 13 5
f 3 9 10
f 3 10 11
f 3 11 4
f 4 12 20
f 4 20 23
f 4 23 14
f 4 14 6
f 4 11 10
f 4 10 18
f 4 18 31
f 4 31 50
f 4 50 72
f 4 72 71
f 4 71 103
f 4 103 146
f 4 146 182
f 4 182 192
f 4 192 191
f 4 191 193
f 4 193 186
f 4 186 149
f 4 149 106
f 4 106 74
f 4 74 51
f 4 51 32
f 4 32 19
f 4 19 12
f 5 13 21
f 5 21 35
f 5 35 54
f 5 54 81
f 5 81 115
f 5 115 154
f 5 154 187
f 5 187 189
f 5 189 175
f 5 175 138
f 5 138 136
f 5 136 95
f 5 95 67
f 5 67 47
f 5 47 30
f 5 30 18
f 5 18 10
f 5 10 9
f 6 14 7
f 7 14 15
f 7 15 8
f 8 15 16
f 8 16 17
f 12 19 20
f 13 22 21
f 14 23 24
f 14 24 25
f 14 25 26
f 14 26 15
f 15 26 16
f 16 27 28
f 16 28 17
f 16 26 27
f 17 28 29
f 18 30 31
f 19 32 33
f 19 33 20
f 20 33 23
f 21 22 34
f 21 34 35
f 22 36 34
f 22 37 38
f 22 38 39
f 22 39 36
f 23 33 24
f 24 33 40
f 24 40 25
f 25 40 41
f 25 41 26
f 26 41 27
f 27 41 42
f 27 42 43
f 27 43 28
f 28 43 44
f 28 44 45
f 28 45 46
f 28 46 29
f 30 47 48
f 30 48 49
f 30 49 50
f 30 50 31
f 32 40 33
f 32 51 52
f 32 52 40
f 34 36 35
f 35 53 54
f 35 36 39
f 35 39 38
f 35 38 53
f 37 55 38
f 38 55 56
f 38 56 57
f 38 57 58
f 38 58 59
f 38 59 60
f 38 60 53
f 40 52 61
f 40 61 42
f 40 42 41
f 42 61 62
f 42 62 63
f 42 63 43
f 43 63 64
f 43 64 44
f 44 64 65
f 44 65 45
f 45 65 66
f 45 66 46
f 47 67 48
f 48 68 69
f 48 69 49
f 48 67 68
f 49 70 71
f 49 71 72
f 49 72 50
f 49 69 73
f 49 73 70
f 51 74 75
f 51 75 61
f 51 61 52
f 53 76 77
f 53 77 54
f 53 60 78
f 53 78 79
f 53 79 80
f 53 80 76
f 54 77 82
f 54 82 83
f 54 83 84
f 54 84 85
f 54 85 86
f 54 86 81
f 59 78 60
f 59 87 88
f 59 88 78
f 61 75 89
f 61 89 62
f 62 89 90
f 62 90 91
f 62 91 63
f 63 91 92
f 63 92 64
f 64 92 65
f 65 92 93
f 65 93 94
f 65 94 66
f 67 95 96
f 67 96 68
f 68 96 97
f 68 97 98
f 68 98 99
f 68 99 100
f 68 100 69
f 69 100 73
f 70 73 101
f 70 101 102
f 70 102 103
f 70 103 71
f 73 100 104
f 73 104 105
f 73 105 101
f 74 106 107
f 74 107 75
f 75 107 89
f 76 80 82
f 76 82 77
f 78 88 79
f 79 88 108
f 79 108 80
f 80 109 110
f 80 110 111
f 80 111 112
f 80 112 113
f 80 113 114
f 80 114 82
f 80 108 109
f 81 86 85
f 81 85 116
f 81 116 115
f 82 114 117
f 82 117 118
f 82 118 119
f 82 119 120
f 82 120 83
f 83 120 121
f 83 121 85
f 83 85 84
f 85 121 116
f 87 122 88
f 88 122 123
f 88 123 124
f 88 124 112
f 88 112 111
f 88 111 110
f 88 110 109
f 88 109 108
f 89 107 90
f 90 107 125
f 90 125 126
f 90 126 127
f 90 127 128
f 90 128 91
f 91 128 129
f 91 129 130
f 91 130 92
f 92 130 131
f 92 131 132
f 92 132 93
f 93 132 133
f 93 133 134
f 93 134 94
f 94 134 133
f 94 133 135
f 95 136 137
f 95 137 96
f 96 137 97
f 97 137 138
f 97 138 139
f 97 139 140
f 97 140 98
f 98 140 141
f 98 141 142
f 98 142 99
f 99 142 100
f 100 142 143
f 100 143 104
f 101 105 144
f 101 144 102
f 102 144 145
f 102 145 146
f 102 146 103
f 104 143 105
f 105 143 147
f 105 147 148
f 105 148 144
f 106 149 150
f 106 150 107
f 107 150 125
f 112 124 151
f 112 151 152
f 112 152 113
f 113 152 153
f 113 153 114
f 114 153 157
f 114 157 117
f 115 116 120
f 115 120 155
f 115 155 156
f 115 156 154
f 116 121 120
f 117 157 158
f 117 158 159
f 117 159 118
f 118 159 160
f 118 160 119
f 119 161 162
f 119 162 164
f 119 164 120
f 119 160 163
f 119 163 161
f 120 164 165
f 120 165 155
f 123 166 124
f 124 166 133
f 124 133 151
f 125 150 167
f 125 167 168
f 125 168 126
f 126 168 127
f 127 168 169
f 127 169 170
f 127 170 171
f 127 171 128
f 128 171 129
f 129 171 172
f 129 172 173
f 129 173 131
f 129 131 130
f 131 133 132
f 131 173 133
f 133 173 174
f 133 174 151
f 133 166 135
f 136 138 137
f 138 175 176
f 138 176 177
f 138 177 139
f 139 177 165
f 139 165 140
f 140 165 141
f 141 165 164
f 141 164 142
f 142 164 162
f 142 162 143
f 143 163 178
f 143 178 147
f 143 162 161
f 143 161 163
f 144 148 179
f 144 179 180
f 144 180 181
f 144 181 145
f 145 181 146
f 146 181 182
f 147 183 170
f 147 170 169
f 147 169 148
f 147 178 184
f 147 184 183
f 148 169 168
f 148 168 185
f 148 185 179
f 149 186 185
f 149 185 150
f 150 185 167
f 151 174 152
f 152 174 153
f 153 174 173
f 153 173 172
f 153 172 157
f 154 156 165
f 154 165 187
f 155 165 156
f 157 188 158
f 157 172 171
f 157 171 188
f 158 184 178
f 158 178 159
f 158 188 183
f 158 183 184
f 159 178 163
f 159 163 160
f 165 176 189
f 165 189 187
f 165 177 176
f 167 185 168
f 170 183 171
f 171 183 188
f 175 189 176
f 179 190 180
f 179 185 190
f 180 190 191
f 180 191 192
f 180 192 181
f 181 192 182
f 185 193 191
f 185 191 190
f 185 186 193

