# https://github.com/mikedh/trimesh
v 0.00669129 0.01006816 -0.00219365
v 0.00668886 0.01006746 -0.00216222
v 0.00682037 0.01004558 -0.00219365
v 0.00666775 0.01006605 -0.00240205
v 0.00642015 0.01006675 -0.00296780
v 0.00590303 0.01006675 -0.00392576
v 0.00611004 0.01006746 -0.00331764
v 0.00662310 0.01006816 -0.00219365
v 0.00702576 0.01000535 -0.00216222
v 0.00662553 0.01006746 -0.00216222
v 0.01149231 0.00595445 -0.00216154
v 0.00654923 0.01004135 -0.00296780
v 0.00638768 0.01006111 -0.00310992
v 0.00702576 0.01000324 -0.00219365
v 0.00702576 0.00996371 -0.00270953
v 0.00676841 0.01001947 -0.00270953
v 0.00615956 0.01006605 -0.00348368
v 0.00612709 0.01006040 -0.00361896
v 0.00625210 0.00998912 -0.00399887
v 0.00599476 0.01000606 -0.00425714
v 0.00574148 0.01004770 -0.00428037
v 0.00536155 0.01006111 -0.00465823
v 0.00511557 0.01006393 -0.00492744
v 0.00432812 0.01006393 -0.00551915
v 0.00432812 0.01006252 -0.00541188
v 0.00725387 0.00995454 -0.00216222
v 0.00656465 0.00995595 -0.00216222
v 0.00975505 0.00595445 -0.00216154
v 0.01157674 0.00579848 -0.00216154
v 0.01149231 0.00595515 -0.00216222
v 0.01114567 0.00657831 -0.00216222
v 0.01104907 0.00675122 -0.00216222
v 0.01096789 0.00687966 -0.00216222
v 0.01082014 0.00710267 -0.00216222
v 0.01066752 0.00732216 -0.00216222
v 0.01044184 0.00764538 -0.00216222
v 0.01029815 0.00785004 -0.00216222
v 0.01021940 0.00795802 -0.00216222
v 0.01007328 0.00813657 -0.00216222
v 0.01006110 0.00815069 -0.00216222
v 0.00985652 0.00837652 -0.00216222
v 0.00963003 0.00861294 -0.00216222
v 0.00957239 0.00867293 -0.00216222
v 0.00940272 0.00882960 -0.00216222
v 0.00934022 0.00887900 -0.00216222
v 0.00905690 0.00909990 -0.00216222
v 0.00887667 0.00923046 -0.00216222
v 0.00876383 0.00930385 -0.00216222
v 0.00874841 0.00931303 -0.00216222
v 0.00839203 0.00951487 -0.00216222
v 0.00827918 0.00957697 -0.00216222
v 0.00826376 0.00958474 -0.00216222
v 0.00805756 0.00967860 -0.00216222
v 0.00783513 0.00976611 -0.00216222
v 0.00770605 0.00981481 -0.00216222
v 0.00754288 0.00987338 -0.00216222
v 0.00728472 0.00994748 -0.00216222
v 0.00676841 0.00999618 -0.00296780
v 0.00676841 0.00997077 -0.00322540
v 0.00651026 0.00999688 -0.00348368
v 0.00728472 0.00994537 -0.00219365
v 0.00702576 0.00994043 -0.00296780
v 0.00728472 0.00992278 -0.00245125
v 0.00651026 0.00996936 -0.00374127
v 0.00622937 0.01002794 -0.00371941
v 0.00625210 0.00995525 -0.00425714
v 0.00651026 0.00993619 -0.00399887
v 0.00599476 0.00997007 -0.00451474
v 0.00573580 0.01001664 -0.00451474
v 0.00532096 0.01004558 -0.00481606
v 0.00547845 0.00998559 -0.00503129
v 0.00547845 0.00994325 -0.00528957
v 0.00522030 0.00998630 -0.00528957
v 0.00494997 0.01003217 -0.00527522
v 0.00485499 0.01006322 -0.00518025
v 0.00459034 0.01006181 -0.00543101
v 0.00432812 0.01005687 -0.00563531
v 0.00432812 0.00993407 -0.00536063
v 0.00655653 0.00993055 -0.00216222
v 0.01054250 0.00285840 -0.00216154
v 0.00650458 0.00970471 -0.00216222
v 0.00649970 0.00967225 -0.00216222
v 0.00649808 0.00944571 -0.00216222
v 0.00649808 0.00941465 -0.00216222
v 0.01160678 0.00573779 -0.00216154
v 0.01158730 0.00576602 -0.00219297
v 0.01154183 0.00568062 -0.00259337
v 0.01129261 0.00595515 -0.00301017
v 0.01101497 0.00643576 -0.00306278
v 0.01113999 0.00657831 -0.00219365
v 0.01104582 0.00674557 -0.00219365
v 0.01096464 0.00687472 -0.00219365
v 0.01083556 0.00706809 -0.00219365
v 0.01082501 0.00679850 -0.00296780
v 0.01073815 0.00692765 -0.00296780
v 0.01050516 0.00722053 -0.00309011
v 0.01030221 0.00755787 -0.00296780
v 0.01025756 0.00775054 -0.00261387
v 0.01043859 0.00764115 -0.00219365
v 0.01031032 0.00782393 -0.00219365
v 0.01021615 0.00795308 -0.00219365
v 0.01005461 0.00807517 -0.00245125
v 0.00994745 0.00820362 -0.00245125
v 0.00997180 0.00823326 -0.00224490
v 0.00985571 0.00837652 -0.00216701
v 0.00953667 0.00857624 -0.00270953
v 0.00946199 0.00875832 -0.00227496
v 0.00927771 0.00882043 -0.00270953
v 0.00914863 0.00897498 -0.00245125
v 0.00936457 0.00885430 -0.00219092
v 0.00901955 0.00907520 -0.00245125
v 0.00881579 0.00921987 -0.00247653
v 0.00870051 0.00928551 -0.00257902
v 0.00838878 0.00951275 -0.00219365
v 0.00825970 0.00958332 -0.00219365
v 0.00805756 0.00967507 -0.00219365
v 0.00783188 0.00976470 -0.00219365
v 0.00770361 0.00981339 -0.00219365
v 0.00754288 0.00987056 -0.00219365
v 0.00676841 0.00994254 -0.00348368
v 0.00702576 0.00991008 -0.00322540
v 0.00728472 0.00989596 -0.00270953
v 0.00728472 0.00986703 -0.00296780
v 0.00676841 0.00991008 -0.00374127
v 0.00625210 0.00991714 -0.00451474
v 0.00651026 0.00989455 -0.00425714
v 0.00599476 0.00992913 -0.00477302
v 0.00573580 0.00993831 -0.00503129
v 0.00573580 0.00997218 -0.00481606
v 0.00547845 0.00988961 -0.00554717
v 0.00522030 0.00994113 -0.00554717
v 0.00573580 0.00988891 -0.00528957
v 0.00496214 0.00998347 -0.00554717
v 0.00470480 0.00997783 -0.00580408
v 0.00444665 0.01001312 -0.00580408
v 0.00432812 0.01002864 -0.00580613
v 0.00432812 0.00967295 -0.00530734
v 0.01262154 0.00285840 -0.00216154
v 0.00657277 0.00915000 -0.00216222
v 0.00658007 0.00913589 -0.00216222
v 0.00659469 0.00911119 -0.00216222
v 0.00664177 0.00903285 -0.00216222
v 0.00432812 0.00905967 -0.00544809
v 0.00432812 0.00904132 -0.00546586
v 0.00432812 0.00894393 -0.00558406
v 0.00432812 0.00642729 -0.00874353
v 0.00729690 0.00285840 -0.00864172
v 0.00432812 0.00953957 -0.00530392
v 0.00432812 0.00941465 -0.00530187
v 0.00432812 0.00930315 -0.00532169
v 0.00432812 0.00920082 -0.00535175
v 0.01170988 0.00552042 -0.00216154
v 0.01169202 0.00554583 -0.00219297
v 0.01154102 0.00542232 -0.00310651
v 0.01152154 0.00563828 -0.00276487
v 0.01132671 0.00580695 -0.00320148
v 0.01138516 0.00580413 -0.00296712
v 0.01128206 0.00593469 -0.00309968
v 0.01099386 0.00639835 -0.00322540
v 0.01089320 0.00657831 -0.00322540
v 0.01096302 0.00656561 -0.00297327
v 0.01098494 0.00663901 -0.00270953
v 0.01100767 0.00667994 -0.00251684
v 0.01119925 0.00603843 -0.00320217
v 0.01102796 0.00671593 -0.00234534
v 0.01079254 0.00674981 -0.00322540
v 0.01070486 0.00687896 -0.00322540
v 0.01026892 0.00750918 -0.00322540
v 0.01021210 0.00768702 -0.00296780
v 0.01007084 0.00788321 -0.00296302
v 0.01018368 0.00790862 -0.00245125
v 0.01000021 0.00800883 -0.00287419
v 0.01002132 0.00803495 -0.00270953
v 0.00991660 0.00816410 -0.00270953
v 0.00975343 0.00827631 -0.00296780
v 0.00978752 0.00831159 -0.00270953
v 0.00966575 0.00844145 -0.00270953
v 0.00950014 0.00853813 -0.00296780
v 0.00940678 0.00870469 -0.00270953
v 0.00944007 0.00873715 -0.00245125
v 0.00924036 0.00878938 -0.00296780
v 0.00911372 0.00894958 -0.00270953
v 0.00898546 0.00904767 -0.00270953
v 0.00883040 0.00916271 -0.00270953
v 0.00867778 0.00927139 -0.00270953
v 0.00843586 0.00928127 -0.00333472
v 0.00854870 0.00934338 -0.00270953
v 0.00820044 0.00955157 -0.00262002
v 0.00822561 0.00956568 -0.00245125
v 0.00835549 0.00949440 -0.00245125
v 0.00805756 0.00964331 -0.00245125
v 0.00778074 0.00975623 -0.00244305
v 0.00768170 0.00980563 -0.00235217
v 0.00755505 0.00983951 -0.00244305
v 0.00702576 0.00987268 -0.00348368
v 0.00728797 0.00983245 -0.00320353
v 0.00748767 0.00982892 -0.00270953
v 0.00744059 0.00981198 -0.00296780
v 0.00741542 0.00980210 -0.00310309
v 0.00702981 0.00983245 -0.00372282
v 0.00676841 0.00986773 -0.00399887
v 0.00652000 0.00984162 -0.00451679
v 0.00629594 0.00984445 -0.00481606
v 0.00627646 0.00985362 -0.00479693
v 0.00626996 0.00985150 -0.00481606
v 0.00599395 0.00987832 -0.00503129
v 0.00599476 0.00992067 -0.00481606
v 0.00572686 0.00982963 -0.00553828
v 0.00546628 0.00982821 -0.00579315
v 0.00522030 0.00988608 -0.00580408
v 0.00496214 0.00993760 -0.00580408
v 0.00598340 0.00982610 -0.00527112
v 0.00589004 0.00980916 -0.00544604
v 0.00470480 0.00992631 -0.00606167
v 0.00444665 0.00996583 -0.00606167
v 0.00432812 0.00998206 -0.00606167
v 0.01261585 0.00285840 -0.00219092
v 0.01258988 0.00301366 -0.00216154
v 0.00432812 0.00639906 -0.00889863
v 0.00718000 0.00285840 -0.00889931
v 0.01177239 0.00536093 -0.00219297
v 0.01177563 0.00536798 -0.00216154
v 0.01151992 0.00537363 -0.00327801
v 0.01146958 0.00552395 -0.00320558
v 0.01168796 0.00528823 -0.00270884
v 0.01190877 0.00477234 -0.00270884
v 0.01178619 0.00487750 -0.00305116
v 0.01182028 0.00470036 -0.00322471
v 0.01130722 0.00572297 -0.00342765
v 0.01125933 0.00589516 -0.00327186
v 0.01123416 0.00595515 -0.00324316
v 0.01106530 0.00626920 -0.00322540
v 0.01104014 0.00622333 -0.00340305
v 0.01077224 0.00671875 -0.00337572
v 0.01025025 0.00748306 -0.00335795
v 0.01017800 0.00763833 -0.00322540
v 0.01004892 0.00781688 -0.00322540
v 0.00997748 0.00797990 -0.00304638
v 0.00989630 0.00810623 -0.00296302
v 0.00973394 0.00825584 -0.00310173
v 0.00947822 0.00851485 -0.00310446
v 0.00936863 0.00866728 -0.00296780
v 0.00921763 0.00877103 -0.00309968
v 0.00906420 0.00892840 -0.00294867
v 0.00896273 0.00903074 -0.00285028
v 0.00884014 0.00909707 -0.00294867
v 0.00862989 0.00924034 -0.00296780
v 0.00840826 0.00926433 -0.00348368
v 0.00827918 0.00933632 -0.00348368
v 0.00793498 0.00954733 -0.00336889
v 0.00809085 0.00949158 -0.00322540
v 0.00816959 0.00953463 -0.00279220
v 0.00796096 0.00956145 -0.00322540
v 0.00800885 0.00958474 -0.00296780
v 0.00807299 0.00959673 -0.00270748
v 0.00780022 0.00967648 -0.00296780
v 0.00780022 0.00971318 -0.00270953
v 0.00761675 0.00978164 -0.00270953
v 0.00751771 0.00974988 -0.00320353
v 0.00737727 0.00978869 -0.00327459
v 0.00732694 0.00977105 -0.00348368
v 0.00719786 0.00981622 -0.00348368
v 0.00756967 0.00976399 -0.00296780
v 0.00711830 0.00978869 -0.00379730
v 0.00693483 0.00981481 -0.00399887
v 0.00676029 0.00982469 -0.00423186
v 0.00689749 0.00980140 -0.00412937
v 0.00666937 0.00981128 -0.00443206
v 0.00661255 0.00979293 -0.00460356
v 0.00644125 0.00982116 -0.00472655
v 0.00637875 0.00980069 -0.00489874
v 0.00619365 0.00982327 -0.00503129
v 0.00580723 0.00978587 -0.00561823
v 0.00563513 0.00980916 -0.00570022
v 0.00546628 0.00975552 -0.00604869
v 0.00537129 0.00980775 -0.00595372
v 0.00520325 0.00982469 -0.00604869
v 0.00496214 0.00987762 -0.00606167
v 0.00606214 0.00978375 -0.00534560
v 0.00598340 0.00975694 -0.00553828
v 0.00444665 0.00991149 -0.00631995
v 0.00432812 0.00992984 -0.00631995
v 0.01259475 0.00296285 -0.00218955
v 0.01245187 0.00285840 -0.00296712
v 0.01242995 0.00296708 -0.00296712
v 0.01255984 0.00304542 -0.00227291
v 0.01253630 0.00321832 -0.00218955
v 0.01254847 0.00319009 -0.00216154
v 0.00432812 0.00640753 -0.00901205
v 0.00718649 0.00285840 -0.00891503
v 0.00432812 0.00642164 -0.00904964
v 0.01205814 0.00470742 -0.00216154
v 0.01191364 0.00502994 -0.00219297
v 0.01205327 0.00463967 -0.00231596
v 0.01155645 0.00520143 -0.00340715
v 0.01149231 0.00528753 -0.00348914
v 0.01135918 0.00556700 -0.00350212
v 0.01180243 0.00465660 -0.00337094
v 0.01195748 0.00451475 -0.00296712
v 0.01184545 0.00478364 -0.00296575
v 0.01189822 0.00451475 -0.00322471
v 0.01127637 0.00566651 -0.00359983
v 0.01101173 0.00565451 -0.00435417
v 0.01115623 0.00595445 -0.00349324
v 0.01092730 0.00595515 -0.00412800
v 0.01075844 0.00643928 -0.00385401
v 0.01095977 0.00631437 -0.00348641
v 0.01081770 0.00657902 -0.00347001
v 0.01052464 0.00647810 -0.00443343
v 0.01047431 0.00665877 -0.00425714
v 0.01050110 0.00669970 -0.00411502
v 0.01044671 0.00683450 -0.00401731
v 0.01053357 0.00700458 -0.00348368
v 0.00997992 0.00746401 -0.00409794
v 0.00998479 0.00773007 -0.00359642
v 0.01001807 0.00777383 -0.00342491
v 0.00994988 0.00794602 -0.00322540
v 0.00980457 0.00813234 -0.00320285
v 0.00970634 0.00822338 -0.00327391
v 0.00959188 0.00837017 -0.00318918
v 0.00953748 0.00831724 -0.00348368
v 0.00940841 0.00844568 -0.00348368
v 0.00924280 0.00853813 -0.00368046
v 0.00927933 0.00857342 -0.00348368
v 0.00895055 0.00876326 -0.00384991
v 0.00898140 0.00878867 -0.00367773
v 0.00882066 0.00895946 -0.00350281
v 0.00869727 0.00902509 -0.00360257
v 0.00859498 0.00912601 -0.00350281
v 0.00853815 0.00909778 -0.00374127
v 0.00835062 0.00922693 -0.00374127
v 0.00822236 0.00930527 -0.00374127
v 0.00789520 0.00952616 -0.00354107
v 0.00771741 0.00956639 -0.00374127
v 0.00780671 0.00958685 -0.00346659
v 0.00780022 0.00963484 -0.00322540
v 0.00754288 0.00969342 -0.00348368
v 0.00726280 0.00975129 -0.00372282
v 0.00706391 0.00977034 -0.00399887
v 0.00728472 0.00969342 -0.00399887
v 0.00700059 0.00974564 -0.00423186
v 0.00684148 0.00978305 -0.00430156
v 0.00676029 0.00976329 -0.00451679
v 0.00676841 0.00970400 -0.00477302
v 0.00649321 0.00978375 -0.00481606
v 0.00632273 0.00978446 -0.00503129
v 0.00651026 0.00972729 -0.00503129
v 0.00572686 0.00975764 -0.00579315
v 0.00599395 0.00967860 -0.00580408
v 0.00520325 0.00974988 -0.00630014
v 0.00527631 0.00978305 -0.00612590
v 0.00573580 0.00967507 -0.00606167
v 0.00547845 0.00967013 -0.00631995
v 0.00510502 0.00980493 -0.00620174
v 0.00496214 0.00982186 -0.00625504
v 0.00472104 0.00985009 -0.00633908
v 0.00623343 0.00975058 -0.00527112
v 0.00625210 0.00967154 -0.00554717
v 0.00444421 0.00983880 -0.00658369
v 0.00432812 0.00986138 -0.00658096
v 0.01241940 0.00285840 -0.00311607
v 0.01237312 0.00296708 -0.00322471
v 0.01231386 0.00310258 -0.00336000
v 0.01232929 0.00315904 -0.00322471
v 0.01247866 0.00322538 -0.00245125
v 0.01230980 0.00334606 -0.00308533
v 0.01246080 0.00348297 -0.00219297
v 0.01247298 0.00346180 -0.00216154
v 0.01253792 0.00322820 -0.00216154
v 0.00728553 0.00285840 -0.00908858
v 0.00712723 0.00302213 -0.00905715
v 0.00432812 0.00647457 -0.00907492
v 0.01208331 0.00464743 -0.00216154
v 0.01211497 0.00453804 -0.00221552
v 0.01206788 0.00442018 -0.00264188
v 0.01177320 0.00458744 -0.00354312
v 0.01132265 0.00528471 -0.00398793
v 0.01125933 0.00536798 -0.00406651
v 0.01128855 0.00543432 -0.00389432
v 0.01183246 0.00450699 -0.00346728
v 0.01204921 0.00436937 -0.00281407
v 0.01203217 0.00431644 -0.00296712
v 0.01200294 0.00423740 -0.00320763
v 0.01191933 0.00425716 -0.00348299
v 0.01105069 0.00547031 -0.00451405
v 0.01098088 0.00559876 -0.00451405
v 0.01080228 0.00595515 -0.00446964
v 0.01079173 0.00598338 -0.00445666
v 0.01074383 0.00615487 -0.00432957
v 0.01068944 0.00630661 -0.00424894
v 0.01057578 0.00633060 -0.00451747
v 0.01049055 0.00642235 -0.00460561
v 0.01042966 0.00656985 -0.00451747
v 0.01029409 0.00677310 -0.00451474
v 0.01023726 0.00694882 -0.00435622
v 0.00994907 0.00742025 -0.00425714
v 0.00980944 0.00761715 -0.00424758
v 0.00970796 0.00770819 -0.00432684
v 0.00974287 0.00775265 -0.00415465
v 0.00967387 0.00792132 -0.00399887
v 0.00971040 0.00796861 -0.00381370
v 0.00974449 0.00801095 -0.00364220
v 0.00977534 0.00804906 -0.00348368
v 0.00966656 0.00817750 -0.00348368
v 0.00946767 0.00824596 -0.00385196
v 0.00950014 0.00827984 -0.00367978
v 0.00935564 0.00839275 -0.00376587
v 0.00920951 0.00850497 -0.00385196
v 0.00930856 0.00834476 -0.00399887
v 0.00917785 0.00847391 -0.00399887
v 0.00925173 0.00828830 -0.00425714
v 0.00922007 0.00825725 -0.00439380
v 0.00900007 0.00855084 -0.00421205
v 0.00869239 0.00876326 -0.00436988
v 0.00878413 0.00883172 -0.00399887
v 0.00860634 0.00896087 -0.00399887
v 0.00866723 0.00900392 -0.00374127
v 0.00847727 0.00905261 -0.00399887
v 0.00831572 0.00908508 -0.00423323
v 0.00809409 0.00922764 -0.00425714
v 0.00814605 0.00926222 -0.00404874
v 0.00818826 0.00928762 -0.00387656
v 0.00793092 0.00928762 -0.00439175
v 0.00805756 0.00939137 -0.00374127
v 0.00784649 0.00950075 -0.00374127
v 0.00768007 0.00954804 -0.00388817
v 0.00745601 0.00956498 -0.00425714
v 0.00754775 0.00958756 -0.00398383
v 0.00754288 0.00964190 -0.00374127
v 0.00728472 0.00963767 -0.00425714
v 0.00702576 0.00967295 -0.00451474
v 0.00676841 0.00969342 -0.00481606
v 0.00651919 0.00977528 -0.00481606
v 0.00651026 0.00965743 -0.00528957
v 0.00676841 0.00963978 -0.00503129
v 0.00616930 0.00956215 -0.00597763
v 0.00599395 0.00959250 -0.00606304
v 0.00625454 0.00959109 -0.00580271
v 0.00522030 0.00965390 -0.00657755
v 0.00496214 0.00971953 -0.00657755
v 0.00496214 0.00978164 -0.00638350
v 0.00573336 0.00958897 -0.00631790
v 0.00564568 0.00955862 -0.00648394
v 0.00546628 0.00958262 -0.00657276
v 0.00481845 0.00979857 -0.00643747
v 0.00464635 0.00981833 -0.00650170
v 0.00650539 0.00958332 -0.00553623
v 0.00444421 0.00976046 -0.00682489
v 0.00435572 0.00981057 -0.00673128
v 0.00432812 0.00981339 -0.00673948
v 0.00472104 0.00977528 -0.00658369
v 0.00452864 0.00979081 -0.00667320
v 0.01239504 0.00285840 -0.00322471
v 0.01229438 0.00328819 -0.00322471
v 0.01236988 0.00285840 -0.00332857
v 0.01232848 0.00296708 -0.00340305
v 0.01207519 0.00296708 -0.00419018
v 0.01205896 0.00311175 -0.00414167
v 0.01225298 0.00320279 -0.00346113
v 0.01216206 0.00348297 -0.00348299
v 0.01206464 0.00390147 -0.00338392
v 0.01235851 0.00324584 -0.00298625
v 0.01221320 0.00374127 -0.00296712
v 0.01223512 0.00348297 -0.00322471
v 0.01205733 0.00413789 -0.00310924
v 0.01233741 0.00389865 -0.00216154
v 0.01221888 0.00425716 -0.00219297
v 0.00736834 0.00285840 -0.00910976
v 0.00432812 0.00657902 -0.00910430
v 0.00432812 0.00669547 -0.00913163
v 0.01212633 0.00453381 -0.00216154
v 0.01157106 0.00450346 -0.00423664
v 0.01180892 0.00441595 -0.00364971
v 0.01122929 0.00528471 -0.00425851
v 0.01151261 0.00458180 -0.00430907
v 0.01113593 0.00528823 -0.00451405
v 0.01102471 0.00542232 -0.00464934
v 0.01208006 0.00399251 -0.00320763
v 0.01203704 0.00407367 -0.00328143
v 0.01191608 0.00399886 -0.00374127
v 0.01177969 0.00407579 -0.00407813
v 0.01183571 0.00425363 -0.00373785
v 0.01177969 0.00433691 -0.00382190
v 0.01074951 0.00595445 -0.00460698
v 0.01071704 0.00606666 -0.00453114
v 0.01031438 0.00657549 -0.00476140
v 0.01026080 0.00672581 -0.00466779
v 0.01075844 0.00592198 -0.00462816
v 0.01053925 0.00625015 -0.00470947
v 0.01045564 0.00633060 -0.00478668
v 0.01023077 0.00642023 -0.00512559
v 0.01027461 0.00648798 -0.00495408
v 0.01030383 0.00655079 -0.00481606
v 0.00997018 0.00719371 -0.00459536
v 0.01000590 0.00724453 -0.00442318
v 0.00976804 0.00752823 -0.00451474
v 0.00973800 0.00748871 -0.00465549
v 0.00966575 0.00765738 -0.00451474
v 0.00950420 0.00803354 -0.00419497
v 0.00954479 0.00808223 -0.00399887
v 0.00943682 0.00821138 -0.00399887
v 0.00917867 0.00821138 -0.00456530
v 0.00899601 0.00828830 -0.00477302
v 0.00909018 0.00833418 -0.00449356
v 0.00939379 0.00812175 -0.00427149
v 0.00946605 0.00798625 -0.00436715
v 0.00895785 0.00851061 -0.00438423
v 0.00879631 0.00860024 -0.00451474
v 0.00843343 0.00876115 -0.00488302
v 0.00847564 0.00879502 -0.00471084
v 0.00852597 0.00883101 -0.00451474
v 0.00834900 0.00896016 -0.00451474
v 0.00818745 0.00902862 -0.00464593
v 0.00803321 0.00918670 -0.00449287
v 0.00788302 0.00926010 -0.00456393
v 0.00779778 0.00932573 -0.00449287
v 0.00741786 0.00954592 -0.00439380
v 0.00758509 0.00950005 -0.00425714
v 0.00780022 0.00939066 -0.00425714
v 0.00778074 0.00947182 -0.00398383
v 0.00763623 0.00952616 -0.00406036
v 0.00727985 0.00957838 -0.00449424
v 0.00703874 0.00960097 -0.00477848
v 0.00675542 0.00957344 -0.00526839
v 0.00695107 0.00956780 -0.00503129
v 0.00690398 0.00954663 -0.00516863
v 0.00608081 0.00952687 -0.00614982
v 0.00590871 0.00956004 -0.00623112
v 0.00634140 0.00952687 -0.00588812
v 0.00663771 0.00928551 -0.00618876
v 0.00646642 0.00932009 -0.00627349
v 0.00641609 0.00955862 -0.00571594
v 0.00522030 0.00957627 -0.00678048
v 0.00498487 0.00961367 -0.00685837
v 0.00470480 0.00969765 -0.00683582
v 0.00554502 0.00952193 -0.00665544
v 0.00594199 0.00931656 -0.00677911
v 0.00584945 0.00927986 -0.00695130
v 0.00537292 0.00955157 -0.00672377
v 0.00444665 0.00966660 -0.00709342
v 0.00432812 0.00969060 -0.00709342
v 0.01233822 0.00285840 -0.00344200
v 0.01224324 0.00285840 -0.00373785
v 0.01204434 0.00285840 -0.00435349
v 0.01203298 0.00296708 -0.00431864
v 0.01196560 0.00296708 -0.00451405
v 0.01189822 0.00322538 -0.00451405
v 0.01199726 0.00320915 -0.00423938
v 0.01206139 0.00337570 -0.00388954
v 0.01177888 0.00381325 -0.00433162
v 0.01223268 0.00423175 -0.00216154
v 0.00754288 0.00285840 -0.00914119
v 0.00432812 0.00683591 -0.00914051
v 0.01154914 0.00440960 -0.00441498
v 0.01126663 0.00512662 -0.00434597
v 0.01130398 0.00495513 -0.00444846
v 0.01127150 0.00488103 -0.00462133
v 0.01104826 0.00526283 -0.00475047
v 0.01102309 0.00515979 -0.00490216
v 0.01076981 0.00517038 -0.00542896
v 0.01067888 0.00527765 -0.00550617
v 0.01076899 0.00542444 -0.00516795
v 0.01080309 0.00548584 -0.00503061
v 0.01065047 0.00595515 -0.00481606
v 0.01174885 0.00399322 -0.00424963
v 0.01166036 0.00425716 -0.00425646
v 0.01024700 0.00663407 -0.00481606
v 0.01017881 0.00673287 -0.00481606
v 0.00992390 0.00710197 -0.00481606
v 0.01003025 0.00702151 -0.00471835
v 0.01056604 0.00610759 -0.00481606
v 0.01023970 0.00617605 -0.00540026
v 0.01028272 0.00624874 -0.00522808
v 0.01002538 0.00624521 -0.00573848
v 0.00996855 0.00641741 -0.00563394
v 0.00977616 0.00731369 -0.00481606
v 0.00975343 0.00725229 -0.00494110
v 0.00944413 0.00718101 -0.00562096
v 0.00949040 0.00724453 -0.00544878
v 0.00947173 0.00747671 -0.00515497
v 0.00951962 0.00753599 -0.00498278
v 0.00944981 0.00770749 -0.00485638
v 0.00949608 0.00776465 -0.00468351
v 0.00953748 0.00781546 -0.00451474
v 0.00943114 0.00794391 -0.00451474
v 0.00925335 0.00803989 -0.00471152
v 0.00896029 0.00825584 -0.00490489
v 0.00898464 0.00827772 -0.00481606
v 0.00882959 0.00843439 -0.00479488
v 0.00874273 0.00855084 -0.00472382
v 0.00892538 0.00848026 -0.00451474
v 0.00869727 0.00850849 -0.00489601
v 0.00873948 0.00828901 -0.00522056
v 0.00847321 0.00853884 -0.00520553
v 0.00838472 0.00871880 -0.00503129
v 0.00791955 0.00876326 -0.00566264
v 0.00820369 0.00878373 -0.00518845
v 0.00825564 0.00881831 -0.00503129
v 0.00814199 0.00898910 -0.00481606
v 0.00805188 0.00907802 -0.00474842
v 0.00779778 0.00922764 -0.00478395
v 0.00765491 0.00927774 -0.00487824
v 0.00771092 0.00930527 -0.00470537
v 0.00736184 0.00951910 -0.00456598
v 0.00718974 0.00956004 -0.00469649
v 0.00713291 0.00953322 -0.00486867
v 0.00703469 0.00934690 -0.00555263
v 0.00683255 0.00951487 -0.00534082
v 0.00707933 0.00950711 -0.00503129
v 0.00728229 0.00932997 -0.00527522
v 0.00719542 0.00930527 -0.00546927
v 0.00627646 0.00936737 -0.00634318
v 0.00653542 0.00925798 -0.00634318
v 0.00637712 0.00928409 -0.00644499
v 0.00712642 0.00927139 -0.00564146
v 0.00703469 0.00923893 -0.00581843
v 0.00678465 0.00925163 -0.00608627
v 0.00695756 0.00906532 -0.00626324
v 0.00678627 0.00912601 -0.00633772
v 0.00671321 0.00906885 -0.00652015
v 0.00491344 0.00956992 -0.00702372
v 0.00470642 0.00959673 -0.00710298
v 0.00611410 0.00928198 -0.00669849
v 0.00575284 0.00923752 -0.00709888
v 0.00556288 0.00926857 -0.00718908
v 0.00567735 0.00931021 -0.00701689
v 0.00546628 0.00947464 -0.00682011
v 0.00627646 0.00925445 -0.00659873
v 0.00601424 0.00924951 -0.00685359
v 0.00626590 0.00912178 -0.00685017
v 0.00618878 0.00906320 -0.00702577
v 0.00609543 0.00901380 -0.00719796
v 0.00592332 0.00905614 -0.00726629
v 0.00547764 0.00934196 -0.00709888
v 0.00508554 0.00954169 -0.00696018
v 0.00444665 0.00958121 -0.00730182
v 0.00432812 0.00959462 -0.00733598
v 0.01198914 0.00285840 -0.00451269
v 0.01188198 0.00285840 -0.00478190
v 0.01185357 0.00297555 -0.00479010
v 0.01182434 0.00322538 -0.00470605
v 0.01180161 0.00337146 -0.00465549
v 0.01177563 0.00354366 -0.00458307
v 0.01180567 0.00364105 -0.00441225
v 0.01165711 0.00399886 -0.00451405
v 0.00754288 0.00296708 -0.00914188
v 0.00765166 0.00285840 -0.00914188
v 0.00432812 0.00695376 -0.00914188
v 0.01157593 0.00424869 -0.00450654
v 0.01151667 0.00432985 -0.00458648
v 0.01147527 0.00450346 -0.00450654
v 0.01135106 0.00452322 -0.00478327
v 0.01130803 0.00470883 -0.00470332
v 0.01099062 0.00502994 -0.00509074
v 0.01072922 0.00507722 -0.00560251
v 0.01054331 0.00526777 -0.00578426
v 0.01051165 0.00542656 -0.00568519
v 0.01053357 0.00554794 -0.00550617
v 0.01028759 0.00600385 -0.00549660
v 0.01021615 0.00666018 -0.00484066
v 0.00977291 0.00676533 -0.00554717
v 0.00954804 0.00709421 -0.00553965
v 0.01021047 0.00607866 -0.00556835
v 0.00997667 0.00616828 -0.00590999
v 0.00992472 0.00632707 -0.00581638
v 0.01023807 0.00595515 -0.00565034
v 0.01008139 0.00607442 -0.00581638
v 0.00973719 0.00671311 -0.00568177
v 0.00939379 0.00709421 -0.00580954
v 0.00921926 0.00722547 -0.00593595
v 0.00926066 0.00727628 -0.00580408
v 0.00920302 0.00746401 -0.00565171
v 0.00934833 0.00735391 -0.00555058
v 0.00950501 0.00700881 -0.00572755
v 0.00925173 0.00752400 -0.00548021
v 0.00918191 0.00769549 -0.00535517
v 0.00916649 0.00793473 -0.00503129
v 0.00920708 0.00798413 -0.00488371
v 0.00902199 0.00811963 -0.00500738
v 0.00891158 0.00820291 -0.00507707
v 0.00882715 0.00832571 -0.00500738
v 0.00880199 0.00844992 -0.00481606
v 0.00868346 0.00823749 -0.00539206
v 0.00845616 0.00826502 -0.00569339
v 0.00841719 0.00848803 -0.00537771
v 0.00823210 0.00855366 -0.00554717
v 0.00786841 0.00872162 -0.00580408
v 0.00768413 0.00877949 -0.00594893
v 0.00773933 0.00881690 -0.00580408
v 0.00779941 0.00889876 -0.00554648
v 0.00813144 0.00846333 -0.00585122
v 0.00795933 0.00853955 -0.00597285
v 0.00785217 0.00897710 -0.00528957
v 0.00805107 0.00895452 -0.00503676
v 0.00796096 0.00905050 -0.00495408
v 0.00802265 0.00906885 -0.00481606
v 0.00779941 0.00921352 -0.00481606
v 0.00752339 0.00919658 -0.00527522
v 0.00736753 0.00926151 -0.00535175
v 0.00742516 0.00929186 -0.00518025
v 0.00728391 0.00940830 -0.00503129
v 0.00721897 0.00950852 -0.00481606
v 0.00652731 0.00912672 -0.00659463
v 0.00728229 0.00922340 -0.00555263
v 0.00728635 0.00910060 -0.00580203
v 0.00703712 0.00911472 -0.00606919
v 0.00720273 0.00905685 -0.00598925
v 0.00703712 0.00897922 -0.00633772
v 0.00688450 0.00902086 -0.00643542
v 0.00678627 0.00898557 -0.00659463
v 0.00662391 0.00901944 -0.00669234
v 0.00645181 0.00906602 -0.00677365
v 0.00498487 0.00950993 -0.00710298
v 0.00479329 0.00953110 -0.00719591
v 0.00462200 0.00955721 -0.00725057
v 0.00572930 0.00909496 -0.00735170
v 0.00547764 0.00921423 -0.00734281
v 0.00527469 0.00925516 -0.00742344
v 0.00510259 0.00928974 -0.00748767
v 0.00652731 0.00898063 -0.00685017
v 0.00626590 0.00897569 -0.00710435
v 0.00642340 0.00879502 -0.00726150
v 0.00624561 0.00883878 -0.00734896
v 0.00615631 0.00878867 -0.00750543
v 0.00600288 0.00896299 -0.00735170
v 0.00572930 0.00893828 -0.00759699
v 0.00432812 0.00953604 -0.00746444
v 0.01183084 0.00285840 -0.00490011
v 0.01180892 0.00289509 -0.00493154
v 0.01151261 0.00285840 -0.00561823
v 0.01178944 0.00306729 -0.00488781
v 0.01154021 0.00310117 -0.00542144
v 0.01157512 0.00399886 -0.00472382
v 0.01154914 0.00415765 -0.00466711
v 0.00857225 0.00285840 -0.00914188
v 0.00432812 0.00798555 -0.00914188
v 0.01147202 0.00424869 -0.00476140
v 0.01130560 0.00444277 -0.00495340
v 0.01099468 0.00456274 -0.00550617
v 0.01076656 0.00490573 -0.00567904
v 0.01051165 0.00516826 -0.00594005
v 0.01014553 0.00595515 -0.00582048
v 0.01021372 0.00595515 -0.00569544
v 0.01002538 0.00599538 -0.00598720
v 0.00974531 0.00595515 -0.00645934
v 0.00945793 0.00590646 -0.00694105
v 0.00951557 0.00599538 -0.00676955
v 0.00974612 0.00621204 -0.00621131
v 0.00979158 0.00630731 -0.00604732
v 0.00974531 0.00646751 -0.00595167
v 0.01024457 0.00566792 -0.00592570
v 0.00945468 0.00693542 -0.00589905
v 0.00872811 0.00777030 -0.00597011
v 0.00865505 0.00794250 -0.00586421
v 0.00902442 0.00755717 -0.00580408
v 0.00926147 0.00707374 -0.00603776
v 0.00922413 0.00697423 -0.00620106
v 0.00899276 0.00700599 -0.00649692
v 0.00875896 0.00703351 -0.00678594
v 0.00839284 0.00742096 -0.00683582
v 0.00895704 0.00773713 -0.00567289
v 0.00889940 0.00787827 -0.00557176
v 0.00893675 0.00797072 -0.00538113
v 0.00898708 0.00803071 -0.00520963
v 0.00871269 0.00800954 -0.00569202
v 0.00863313 0.00818597 -0.00554717
v 0.00839933 0.00821067 -0.00586557
v 0.00822723 0.00829113 -0.00599266
v 0.00761107 0.00872304 -0.00612112
v 0.00736753 0.00873433 -0.00639443
v 0.00711992 0.00874633 -0.00666910
v 0.00719461 0.00879643 -0.00649692
v 0.00728229 0.00883878 -0.00631312
v 0.00753557 0.00894817 -0.00580203
v 0.00778723 0.00863129 -0.00604732
v 0.00744627 0.00904838 -0.00571457
v 0.00761675 0.00899474 -0.00560046
v 0.00767764 0.00903215 -0.00542896
v 0.00772391 0.00906320 -0.00528957
v 0.00816634 0.00823467 -0.00616416
v 0.00799343 0.00830807 -0.00626939
v 0.00788952 0.00848026 -0.00614503
v 0.00781158 0.00911331 -0.00503676
v 0.00753557 0.00908014 -0.00552804
v 0.00703063 0.00885148 -0.00658096
v 0.00694863 0.00880067 -0.00675588
v 0.00677085 0.00885148 -0.00683924
v 0.00496214 0.00931303 -0.00753413
v 0.00479572 0.00927421 -0.00771657
v 0.00470805 0.00934761 -0.00762159
v 0.00444665 0.00951910 -0.00743027
v 0.00535019 0.00902791 -0.00773843
v 0.00545247 0.00906955 -0.00759699
v 0.00520163 0.00918882 -0.00758811
v 0.00496214 0.00924316 -0.00766327
v 0.00650945 0.00884654 -0.00709410
v 0.00632841 0.00873645 -0.00743369
v 0.00668723 0.00879784 -0.00700869
v 0.00685852 0.00874421 -0.00692807
v 0.00659550 0.00874068 -0.00718019
v 0.00604509 0.00872021 -0.00767762
v 0.00587299 0.00877455 -0.00774390
v 0.00597284 0.00881902 -0.00759904
v 0.00625454 0.00864188 -0.00761066
v 0.00546709 0.00889453 -0.00785869
v 0.00432812 0.00934196 -0.00785117
v 0.01146471 0.00285840 -0.00571525
v 0.01139490 0.00296708 -0.00580339
v 0.01149881 0.00296708 -0.00558953
v 0.01132589 0.00320915 -0.00580476
v 0.01146228 0.00320209 -0.00552257
v 0.01127556 0.00359589 -0.00566332
v 0.01128774 0.00389230 -0.00543374
v 0.01126014 0.00406449 -0.00537293
v 0.01129910 0.00417529 -0.00520211
v 0.00857225 0.00322538 -0.00914188
v 0.00868103 0.00285840 -0.00914051
v 0.00432812 0.00812457 -0.00913778
v 0.00470480 0.00786769 -0.00914188
v 0.01122523 0.00425998 -0.00528752
v 0.01109534 0.00426775 -0.00555878
v 0.01101173 0.00436090 -0.00565239
v 0.01072678 0.00477234 -0.00586147
v 0.01104826 0.00418941 -0.00572482
v 0.01097113 0.00426775 -0.00580818
v 0.01075763 0.00462696 -0.00592024
v 0.01054250 0.00502994 -0.00599061
v 0.00999534 0.00490996 -0.00697180
v 0.01005055 0.00527553 -0.00657003
v 0.01003675 0.00595515 -0.00600496
v 0.00973638 0.00568062 -0.00671147
v 0.00959837 0.00579354 -0.00682694
v 0.00969010 0.00554583 -0.00689937
v 0.00972826 0.00540962 -0.00695745
v 0.00950907 0.00573426 -0.00700938
v 0.00926959 0.00575825 -0.00728815
v 0.00940354 0.00595515 -0.00697111
v 0.00944413 0.00595515 -0.00691440
v 0.00940922 0.00607372 -0.00684744
v 0.00945793 0.00616758 -0.00668209
v 0.00968686 0.00638424 -0.00612385
v 0.00951394 0.00676392 -0.00598993
v 0.00841963 0.00796931 -0.00615870
v 0.00848214 0.00803848 -0.00598720
v 0.00899520 0.00675757 -0.00675930
v 0.00893025 0.00692906 -0.00666910
v 0.00926634 0.00681756 -0.00630014
v 0.00869564 0.00695870 -0.00695745
v 0.00825402 0.00759810 -0.00681806
v 0.00845129 0.00723182 -0.00697384
v 0.00747468 0.00856213 -0.00652152
v 0.00729852 0.00865387 -0.00659531
v 0.00705011 0.00865881 -0.00685905
v 0.00740243 0.00850285 -0.00669370
v 0.00723033 0.00857342 -0.00679004
v 0.00715240 0.00850991 -0.00696223
v 0.00818339 0.00799472 -0.00644567
v 0.00808841 0.00815563 -0.00635821
v 0.00792118 0.00824808 -0.00644157
v 0.00824834 0.00806318 -0.00627417
v 0.00773609 0.00830807 -0.00657755
v 0.00445882 0.00912248 -0.00814293
v 0.00432812 0.00927633 -0.00797963
v 0.00496133 0.00910625 -0.00787713
v 0.00541188 0.00880137 -0.00803975
v 0.00522030 0.00897287 -0.00791266
v 0.00522030 0.00905826 -0.00778284
v 0.00652487 0.00865246 -0.00736536
v 0.00645424 0.00856425 -0.00754370
v 0.00635196 0.00849297 -0.00771520
v 0.00671889 0.00856848 -0.00729635
v 0.00698029 0.00857201 -0.00704354
v 0.00617985 0.00854801 -0.00778011
v 0.00560428 0.00851061 -0.00825225
v 0.00558399 0.00875621 -0.00797826
v 0.01142493 0.00285840 -0.00579520
v 0.01130560 0.00296708 -0.00597695
v 0.01128530 0.00311175 -0.00594073
v 0.01130235 0.00342369 -0.00571799
v 0.01125851 0.00328395 -0.00589017
v 0.01115947 0.00374127 -0.00580339
v 0.01107667 0.00399180 -0.00580818
v 0.01121305 0.00398686 -0.00553008
v 0.00857225 0.00348297 -0.00913573
v 0.00883040 0.00285840 -0.00913026
v 0.00805837 0.00425716 -0.00914188
v 0.00831572 0.00399886 -0.00914051
v 0.00432812 0.00826290 -0.00911250
v 0.00444665 0.00812457 -0.00913436
v 0.00522030 0.00761010 -0.00913914
v 0.00547845 0.00735180 -0.00914188
v 0.01100280 0.00407226 -0.00589769
v 0.01083150 0.00425151 -0.00606509
v 0.01049704 0.00487820 -0.00617373
v 0.01015689 0.00475823 -0.00681806
v 0.01021940 0.00483515 -0.00666022
v 0.01024132 0.00436937 -0.00695335
v 0.01002457 0.00477234 -0.00701279
v 0.00996855 0.00459168 -0.00719318
v 0.00973069 0.00463967 -0.00747742
v 0.00949284 0.00467848 -0.00776234
v 0.00975586 0.00494384 -0.00725194
v 0.00970796 0.00511604 -0.00719249
v 0.00944169 0.00561499 -0.00718088
v 0.00955291 0.00553595 -0.00709478
v 0.00919977 0.00564604 -0.00746034
v 0.00921520 0.00593045 -0.00722051
v 0.00920708 0.00595445 -0.00721094
v 0.00927689 0.00606242 -0.00703739
v 0.00922737 0.00620710 -0.00697794
v 0.00927040 0.00630449 -0.00681806
v 0.00940841 0.00633131 -0.00658848
v 0.00819557 0.00774983 -0.00672035
v 0.00908125 0.00656843 -0.00682626
v 0.00893512 0.00667429 -0.00693148
v 0.00884664 0.00685778 -0.00685837
v 0.00876383 0.00678721 -0.00704012
v 0.00869239 0.00669476 -0.00721231
v 0.00820612 0.00750424 -0.00698751
v 0.00820206 0.00724170 -0.00723964
v 0.00812819 0.00741320 -0.00715970
v 0.00767764 0.00826008 -0.00671557
v 0.00752826 0.00831442 -0.00681464
v 0.00743409 0.00827137 -0.00698751
v 0.00717919 0.00827278 -0.00724647
v 0.00689018 0.00850708 -0.00721572
v 0.00812738 0.00767714 -0.00689185
v 0.00795609 0.00776606 -0.00699434
v 0.00786841 0.00793826 -0.00689322
v 0.00794066 0.00800883 -0.00672103
v 0.00760539 0.00819303 -0.00688707
v 0.00470480 0.00907731 -0.00806845
v 0.00438170 0.00905261 -0.00829052
v 0.00432812 0.00910554 -0.00824064
v 0.00432812 0.00917682 -0.00813200
v 0.00504576 0.00900956 -0.00797006
v 0.00528200 0.00873503 -0.00821126
v 0.00510989 0.00877808 -0.00826455
v 0.00520569 0.00883454 -0.00812516
v 0.00662635 0.00850285 -0.00746785
v 0.00665070 0.00826219 -0.00774731
v 0.00651026 0.00831018 -0.00780334
v 0.00636982 0.00824596 -0.00798782
v 0.00619852 0.00830171 -0.00805205
v 0.00679033 0.00846121 -0.00736946
v 0.00606458 0.00847391 -0.00795230
v 0.00562295 0.00826431 -0.00852283
v 0.00543299 0.00856284 -0.00830896
v 0.00550849 0.00865952 -0.00814566
v 0.01131859 0.00285840 -0.00599881
v 0.01103933 0.00289298 -0.00647779
v 0.01095490 0.00348368 -0.00630765
v 0.01105800 0.00374127 -0.00599266
v 0.01103283 0.00390006 -0.00594962
v 0.00857225 0.00374127 -0.00911045
v 0.00883040 0.00296708 -0.00912343
v 0.00831572 0.00425716 -0.00911728
v 0.00892051 0.00285840 -0.00910635
v 0.00780022 0.00477234 -0.00914188
v 0.00754288 0.00528823 -0.00914051
v 0.00805837 0.00451475 -0.00913778
v 0.00432812 0.00837299 -0.00908380
v 0.00444665 0.00834124 -0.00907833
v 0.00472023 0.00814363 -0.00909063
v 0.00496214 0.00786769 -0.00912616
v 0.00573580 0.00735180 -0.00912001
v 0.00599395 0.00709421 -0.00912958
v 0.00625210 0.00683591 -0.00913231
v 0.00651026 0.00657831 -0.00913368
v 0.00676841 0.00632072 -0.00913436
v 0.00687638 0.00595515 -0.00914188
v 0.01076006 0.00385630 -0.00644089
v 0.01048649 0.00380902 -0.00693148
v 0.01053763 0.00394664 -0.00675930
v 0.01077874 0.00416189 -0.00621404
v 0.01045807 0.00401933 -0.00684129
v 0.01028922 0.00451475 -0.00677296
v 0.01053357 0.00470600 -0.00623522
v 0.01027785 0.00419717 -0.00700459
v 0.01021372 0.00404685 -0.00717746
v 0.01000590 0.00442018 -0.00724101
v 0.00986870 0.00452957 -0.00735990
v 0.00967306 0.00453804 -0.00761134
v 0.00943033 0.00451475 -0.00794000
v 0.00925335 0.00470953 -0.00803702
v 0.00934996 0.00477940 -0.00787235
v 0.00920627 0.00488103 -0.00798236
v 0.00908287 0.00527906 -0.00786142
v 0.00893837 0.00538069 -0.00797143
v 0.00895623 0.00567074 -0.00773433
v 0.00892376 0.00639906 -0.00718156
v 0.00916974 0.00606242 -0.00716653
v 0.00891077 0.00580413 -0.00768103
v 0.00865180 0.00595445 -0.00786347
v 0.00843424 0.00643576 -0.00772750
v 0.00899520 0.00650210 -0.00700938
v 0.00818420 0.00644775 -0.00799466
v 0.00795609 0.00751200 -0.00725330
v 0.00804214 0.00759457 -0.00707702
v 0.00787247 0.00715702 -0.00767693
v 0.00735129 0.00819727 -0.00715901
v 0.00769631 0.00802154 -0.00699229
v 0.00708989 0.00819727 -0.00741866
v 0.00691778 0.00826854 -0.00749792
v 0.00701277 0.00832289 -0.00733940
v 0.00787328 0.00768349 -0.00716585
v 0.00744302 0.00802577 -0.00725194
v 0.00445882 0.00896087 -0.00837934
v 0.00432812 0.00906320 -0.00830418
v 0.00496133 0.00894464 -0.00811286
v 0.00529742 0.00848309 -0.00848047
v 0.00520325 0.00863200 -0.00837251
v 0.00496214 0.00870186 -0.00843537
v 0.00478760 0.00874703 -0.00848525
v 0.00461631 0.00878726 -0.00853445
v 0.00665557 0.00800954 -0.00800901
v 0.00651026 0.00819303 -0.00793248
v 0.00682199 0.00819162 -0.00767010
v 0.00673919 0.00810058 -0.00784092
v 0.00651026 0.00806459 -0.00806299
v 0.00608244 0.00822479 -0.00822355
v 0.00547845 0.00830454 -0.00856588
v 0.00579506 0.00820079 -0.00845929
v 0.00590709 0.00802860 -0.00854196
v 0.00570413 0.00810058 -0.00861849
v 0.00561402 0.00800107 -0.00877427
v 0.00547845 0.00804553 -0.00881595
v 0.00547845 0.00817398 -0.00869501
v 0.00530797 0.00822902 -0.00874558
v 0.01104339 0.00285840 -0.00648462
v 0.01077305 0.00285840 -0.00695130
v 0.01084936 0.00375891 -0.00634045
v 0.00857874 0.00397769 -0.00907492
v 0.00878656 0.00348297 -0.00907970
v 0.00900819 0.00296708 -0.00906740
v 0.00902361 0.00285840 -0.00907423
v 0.00780022 0.00502994 -0.00913026
v 0.00808273 0.00479634 -0.00909336
v 0.00801535 0.00502994 -0.00907423
v 0.00831734 0.00449711 -0.00907492
v 0.00848863 0.00425716 -0.00906057
v 0.00728391 0.00554583 -0.00914188
v 0.00702576 0.00606242 -0.00912958
v 0.00713454 0.00595515 -0.00912684
v 0.00728391 0.00580413 -0.00912343
v 0.00432812 0.00847956 -0.00903187
v 0.00464473 0.00829042 -0.00905715
v 0.00496214 0.00806882 -0.00906945
v 0.00521624 0.00787475 -0.00908243
v 0.00549794 0.00763056 -0.00909473
v 0.00597771 0.00734474 -0.00906945
v 0.00624886 0.00709279 -0.00907902
v 0.00650945 0.00683661 -0.00908312
v 0.00677085 0.00658043 -0.00908448
v 0.00702657 0.00631719 -0.00908107
v 0.01056442 0.00373068 -0.00684129
v 0.01041180 0.00373068 -0.00707429
v 0.01025106 0.00387536 -0.00722461
v 0.01030708 0.00397628 -0.00709205
v 0.01051409 0.00363753 -0.00697590
v 0.01001320 0.00392335 -0.00751022
v 0.00960243 0.00425292 -0.00786484
v 0.00946442 0.00436302 -0.00798304
v 0.00928420 0.00448935 -0.00812448
v 0.00917461 0.00455851 -0.00820921
v 0.00891645 0.00502994 -0.00820989
v 0.00898627 0.00520849 -0.00802746
v 0.00889940 0.00556912 -0.00787713
v 0.00883690 0.00530023 -0.00813405
v 0.00868590 0.00539198 -0.00823927
v 0.00875815 0.00554583 -0.00805820
v 0.00871188 0.00568909 -0.00800627
v 0.00877195 0.00578648 -0.00785800
v 0.00842044 0.00615840 -0.00796938
v 0.00824915 0.00627626 -0.00806162
v 0.00816310 0.00616052 -0.00823312
v 0.00808841 0.00635883 -0.00815454
v 0.00792037 0.00644140 -0.00824815
v 0.00786354 0.00657831 -0.00819349
v 0.00769387 0.00699258 -0.00801926
v 0.00786679 0.00689166 -0.00792838
v 0.00769955 0.00725441 -0.00776986
v 0.00770199 0.00751200 -0.00751158
v 0.00778317 0.00707444 -0.00784912
v 0.00761675 0.00716478 -0.00794205
v 0.00726767 0.00811187 -0.00733530
v 0.00692347 0.00801942 -0.00776234
v 0.00718487 0.00802577 -0.00750953
v 0.00744546 0.00751270 -0.00776986
v 0.00735697 0.00794108 -0.00742412
v 0.00444665 0.00882184 -0.00858227
v 0.00432812 0.00890229 -0.00853103
v 0.00521624 0.00838076 -0.00863830
v 0.00512450 0.00852967 -0.00853171
v 0.00496214 0.00857272 -0.00857886
v 0.00463255 0.00854237 -0.00880297
v 0.00444665 0.00871880 -0.00871141
v 0.00432812 0.00874703 -0.00874284
v 0.00664745 0.00774630 -0.00826045
v 0.00636900 0.00798696 -0.00824474
v 0.00682686 0.00793473 -0.00793453
v 0.00692266 0.00776324 -0.00801857
v 0.00673756 0.00784016 -0.00809988
v 0.00619690 0.00805259 -0.00830760
v 0.00513587 0.00827772 -0.00879546
v 0.00598746 0.00786134 -0.00863557
v 0.00578613 0.00793473 -0.00871415
v 0.00605321 0.00742590 -0.00897857
v 0.00588111 0.00749294 -0.00903734
v 0.00559779 0.00773007 -0.00902230
v 0.00549794 0.00787475 -0.00895739
v 0.00529985 0.00796508 -0.00899907
v 0.00481764 0.00824243 -0.00901889
v 0.01076494 0.00285840 -0.00696428
v 0.00873461 0.00374127 -0.00905373
v 0.00897815 0.00315551 -0.00904485
v 0.00907881 0.00285840 -0.00903255
v 0.00780834 0.00528965 -0.00908653
v 0.00796014 0.00520425 -0.00905100
v 0.00823291 0.00472718 -0.00906057
v 0.00772797 0.00549995 -0.00906398
v 0.00845210 0.00439972 -0.00903460
v 0.00870538 0.00387818 -0.00903119
v 0.00727985 0.00595515 -0.00909200
v 0.00735941 0.00595515 -0.00907013
v 0.00749011 0.00580413 -0.00906672
v 0.00756723 0.00556982 -0.00909541
v 0.00432812 0.00850002 -0.00901684
v 0.00512775 0.00801942 -0.00904553
v 0.00542568 0.00779288 -0.00906330
v 0.00616037 0.00725370 -0.00905032
v 0.00642421 0.00700599 -0.00905373
v 0.00668561 0.00675192 -0.00905578
v 0.00694133 0.00649574 -0.00905647
v 0.00727742 0.00604972 -0.00907218
v 0.01031682 0.00348297 -0.00731548
v 0.00998235 0.00358530 -0.00772613
v 0.00974693 0.00364599 -0.00801379
v 0.01053844 0.00348297 -0.00701006
v 0.01044508 0.00348297 -0.00713920
v 0.00967143 0.00399886 -0.00791608
v 0.00950095 0.00419082 -0.00802746
v 0.00921682 0.00438701 -0.00825430
v 0.00896435 0.00439619 -0.00851805
v 0.00900169 0.00472083 -0.00829803
v 0.00895461 0.00489302 -0.00824884
v 0.00873623 0.00521978 -0.00828847
v 0.00850568 0.00554583 -0.00831306
v 0.00845616 0.00569121 -0.00826455
v 0.00863394 0.00554583 -0.00818734
v 0.00818502 0.00489867 -0.00902572
v 0.00822155 0.00521060 -0.00880434
v 0.00849107 0.00595515 -0.00804590
v 0.00847970 0.00598620 -0.00803497
v 0.00799180 0.00626920 -0.00831238
v 0.00836442 0.00595445 -0.00817573
v 0.00827025 0.00595515 -0.00826797
v 0.00822398 0.00598832 -0.00829052
v 0.00766871 0.00567215 -0.00902572
v 0.00771985 0.00595515 -0.00878726
v 0.00789764 0.00615205 -0.00848457
v 0.00752908 0.00604831 -0.00888838
v 0.00745601 0.00624239 -0.00880776
v 0.00767682 0.00671381 -0.00825909
v 0.00760295 0.00688531 -0.00819144
v 0.00743085 0.00698482 -0.00827002
v 0.00752339 0.00707444 -0.00810876
v 0.00744627 0.00725441 -0.00802541
v 0.00753070 0.00734051 -0.00785595
v 0.00709557 0.00793967 -0.00768172
v 0.00735697 0.00742661 -0.00794136
v 0.00432812 0.00883948 -0.00861780
v 0.00496214 0.00832500 -0.00884670
v 0.00472510 0.00839346 -0.00891093
v 0.00444665 0.00847038 -0.00898472
v 0.00444665 0.00858965 -0.00885490
v 0.00663122 0.00747318 -0.00850575
v 0.00644125 0.00727911 -0.00881869
v 0.00633166 0.00717748 -0.00899019
v 0.00634546 0.00745060 -0.00874421
v 0.00626590 0.00762068 -0.00865060
v 0.00651026 0.00780135 -0.00831033
v 0.00681956 0.00766585 -0.00819076
v 0.00691048 0.00749365 -0.00826523
v 0.00709476 0.00768137 -0.00793863
v 0.00726524 0.00733345 -0.00810945
v 0.00700302 0.00758751 -0.00810603
v 0.00708258 0.00741178 -0.00819417
v 0.00589491 0.00776253 -0.00879067
v 0.00625292 0.00735250 -0.00889863
v 0.01075357 0.00285840 -0.00697999
v 0.01053276 0.00292332 -0.00725877
v 0.01050678 0.00309482 -0.00722187
v 0.00894649 0.00332771 -0.00901820
v 0.00909018 0.00323032 -0.00890000
v 0.00913726 0.00296708 -0.00894031
v 0.00915350 0.00285840 -0.00895944
v 0.00814442 0.00502994 -0.00898746
v 0.00790088 0.00537575 -0.00900112
v 0.00743247 0.00595445 -0.00904144
v 0.00870782 0.00439831 -0.00877701
v 0.00861771 0.00425716 -0.00894168
v 0.00866804 0.00405038 -0.00899292
v 0.00840420 0.00457121 -0.00898746
v 0.00924686 0.00368199 -0.00854401
v 0.00903822 0.00348297 -0.00885558
v 0.00891483 0.00348297 -0.00898404
v 0.00659550 0.00692342 -0.00899361
v 0.00685771 0.00666865 -0.00899634
v 0.00711262 0.00639976 -0.00899087
v 0.00718649 0.00622827 -0.00904964
v 0.01000996 0.00341381 -0.00776371
v 0.00991660 0.00349285 -0.00785664
v 0.00977453 0.00348297 -0.00804659
v 0.00966331 0.00348297 -0.00817573
v 0.00949933 0.00366999 -0.00828027
v 0.00946280 0.00384219 -0.00824132
v 0.00942951 0.00399886 -0.00820374
v 0.00954236 0.00399886 -0.00807460
v 0.00866155 0.00502994 -0.00847090
v 0.00823616 0.00595445 -0.00830145
v 0.00761837 0.00580413 -0.00898199
v 0.00769874 0.00596927 -0.00879682
v 0.00735860 0.00612735 -0.00897994
v 0.00730908 0.00660654 -0.00866290
v 0.00740730 0.00669970 -0.00850643
v 0.00713616 0.00668629 -0.00875446
v 0.00715564 0.00696506 -0.00851190
v 0.00726930 0.00708009 -0.00832331
v 0.00734480 0.00715631 -0.00819759
v 0.00661417 0.00719865 -0.00874968
v 0.00651919 0.00710197 -0.00890546
v 0.00717269 0.00723959 -0.00826797
v 0.01054250 0.00285840 -0.00727107
v 0.01022427 0.00285840 -0.00770563
v 0.01000103 0.00285840 -0.00800969
v 0.00920140 0.00330513 -0.00875309
v 0.00922819 0.00313363 -0.00878316
v 0.00920383 0.00285840 -0.00890478
v 0.00678140 0.00684790 -0.00890888
v 0.00703874 0.00659102 -0.00890751
v 0.00994420 0.00322538 -0.00793248
v 0.00970553 0.00322538 -0.00822287
v 0.00993446 0.00285840 -0.00808827
v 0.00955859 0.00320632 -0.00839369
v 0.00945143 0.00327972 -0.00848593
v 0.00953343 0.00348297 -0.00831921
v 0.00976317 0.00285840 -0.00828778
v 0.00972826 0.00308211 -0.00824884
v 0.00988656 0.00285840 -0.00814430
f 1 2 3
f 1 3 4
f 1 4 5
f 1 5 6
f 1 6 7
f 1 7 8
f 1 8 10
f 1 10 2
f 2 9 3
f 2 10 28
f 2 28 11
f 2 11 9
f 3 9 4
f 4 12 13
f 4 13 5
f 4 9 14
f 4 14 15
f 4 15 16
f 4 16 12
f 5 13 17
f 5 17 6
f 6 17 18
f 6 18 19
f 6 19 20
f 6 20 21
f 6 21 22
f 6 22 23
f 6 23 24
f 6 24 7
f 7 24 8
f 8 24 25
f 8 25 10
f 9 11 26
f 9 26 14
f 10 25 27
f 10 27 28
f 11 28 80
f 11 80 138
f 11 138 218
f 11 218 288
f 11 288 369
f 11 369 368
f 11 368 466
f 11 466 551
f 11 551 471
f 11 471 373
f 11 373 292
f 11 292 222
f 11 222 152
f 11 152 85
f 11 85 29
f 11 29 30
f 11 30 31
f 11 31 32
f 11 32 33
f 11 33 34
f 11 34 35
f 11 35 36
f 11 36 37
f 11 37 38
f 11 38 39
f 11 39 40
f 11 40 41
f 11 41 42
f 11 42 43
f 11 43 44
f 11 44 45
f 11 45 46
f 11 46 47
f 11 47 48
f 11 48 49
f 11 49 50
f 11 50 51
f 11 51 52
f 11 52 53
f 11 53 54
f 11 54 55
f 11 55 56
f 11 56 57
f 11 57 26
f 12 16 58
f 12 58 13
f 13 58 59
f 13 59 60
f 13 60 18
f 13 18 17
f 14 26 61
f 14 61 15
f 15 62 58
f 15 58 16
f 15 61 63
f 15 63 62
f 18 60 64
f 18 64 65
f 18 65 19
f 19 66 20
f 19 65 64
f 19 64 67
f 19 67 66
f 20 68 69
f 20 69 21
f 20 66 68
f 21 69 22
f 22 70 23
f 22 69 70
f 23 70 71
f 23 71 72
f 23 72 73
f 23 73 74
f 23 74 75
f 23 75 24
f 24 75 76
f 24 76 77
f 24 77 136
f 24 136 216
f 24 216 282
f 24 282 360
f 24 360 450
f 24 450 541
f 24 541 637
f 24 637 727
f 24 727 806
f 24 806 863
f 24 863 935
f 24 935 934
f 24 934 1009
f 24 1009 1092
f 24 1092 1172
f 24 1172 1098
f 24 1098 1128
f 24 1128 1046
f 24 1046 962
f 24 962 888
f 24 888 818
f 24 818 736
f 24 736 648
f 24 648 553
f 24 553 470
f 24 470 469
f 24 469 372
f 24 372 291
f 24 291 289
f 24 289 219
f 24 219 146
f 24 146 145
f 24 145 144
f 24 144 143
f 24 143 151
f 24 151 150
f 24 150 149
f 24 149 148
f 24 148 137
f 24 137 78
f 24 78 25
f 25 78 79
f 25 79 27
f 26 57 61
f 27 79 28
f 28 79 81
f 28 81 82
f 28 82 83
f 28 83 84
f 28 84 80
f 29 85 86
f 29 86 30
f 30 86 87
f 30 87 88
f 30 88 89
f 30 89 90
f 30 90 31
f 31 90 32
f 32 90 91
f 32 91 92
f 32 92 33
f 33 92 34
f 34 92 93
f 34 93 94
f 34 94 95
f 34 95 96
f 34 96 97
f 34 97 98
f 34 98 99
f 34 99 35
f 35 99 36
f 36 99 100
f 36 100 37
f 37 100 101
f 37 101 38
f 38 101 39
f 39 102 103
f 39 103 104
f 39 104 40
f 39 101 102
f 40 104 105
f 40 105 41
f 41 105 42
f 42 105 106
f 42 106 43
f 43 106 107
f 43 107 44
f 44 107 108
f 44 108 109
f 44 109 110
f 44 110 45
f 45 110 109
f 45 109 46
f 46 109 111
f 46 111 112
f 46 112 47
f 47 112 113
f 47 113 48
f 48 113 49
f 49 113 114
f 49 114 50
f 50 114 51
f 51 115 52
f 51 114 115
f 52 115 53
f 53 115 116
f 53 116 117
f 53 117 54
f 54 117 118
f 54 118 55
f 55 118 56
f 56 118 119
f 56 119 63
f 56 63 61
f 56 61 57
f 58 62 59
f 59 62 120
f 59 120 64
f 59 64 60
f 62 121 120
f 62 63 122
f 62 122 123
f 62 123 121
f 63 119 122
f 64 120 124
f 64 124 67
f 66 67 125
f 66 125 68
f 67 126 125
f 67 124 126
f 68 127 128
f 68 128 129
f 68 129 69
f 68 125 127
f 69 129 70
f 70 129 71
f 71 129 128
f 71 128 72
f 72 130 131
f 72 131 73
f 72 128 132
f 72 132 130
f 73 131 133
f 73 133 74
f 74 133 76
f 74 76 75
f 76 134 135
f 76 135 136
f 76 136 77
f 76 133 134
f 78 137 82
f 78 82 81
f 78 81 79
f 80 84 139
f 80 139 140
f 80 140 141
f 80 141 142
f 80 142 143
f 80 143 144
f 80 144 145
f 80 145 146
f 80 146 147
f 80 147 220
f 80 220 290
f 80 290 370
f 80 370 468
f 80 468 552
f 80 552 647
f 80 647 735
f 80 735 817
f 80 817 885
f 80 885 958
f 80 958 1036
f 80 1036 1117
f 80 1117 1197
f 80 1197 1239
f 80 1239 1248
f 80 1248 1250
f 80 1250 1244
f 80 1244 1236
f 80 1236 1235
f 80 1235 1234
f 80 1234 1191
f 80 1191 1114
f 80 1114 1031
f 80 1031 1030
f 80 1030 950
f 80 950 876
f 80 876 807
f 80 807 730
f 80 730 728
f 80 728 639
f 80 639 638
f 80 638 544
f 80 544 543
f 80 543 542
f 80 542 455
f 80 455 453
f 80 453 361
f 80 361 284
f 80 284 217
f 80 217 138
f 82 137 148
f 82 148 149
f 82 149 83
f 83 149 84
f 84 149 150
f 84 150 151
f 84 151 139
f 85 152 153
f 85 153 86
f 86 153 87
f 87 153 154
f 87 154 155
f 87 155 156
f 87 156 157
f 87 157 88
f 88 157 158
f 88 158 89
f 89 159 160
f 89 160 161
f 89 161 162
f 89 162 163
f 89 163 90
f 89 158 164
f 89 164 159
f 90 163 165
f 90 165 91
f 91 165 92
f 92 165 94
f 92 94 93
f 94 166 95
f 94 165 166
f 95 166 167
f 95 167 96
f 96 168 97
f 96 167 168
f 97 168 169
f 97 169 98
f 98 169 170
f 98 170 171
f 98 171 100
f 98 100 99
f 100 171 101
f 101 171 172
f 101 172 173
f 101 173 102
f 102 173 174
f 102 174 103
f 103 174 175
f 103 175 176
f 103 176 104
f 104 176 177
f 104 177 105
f 105 177 106
f 106 178 179
f 106 179 180
f 106 180 107
f 106 177 175
f 106 175 178
f 107 180 108
f 108 180 179
f 108 179 181
f 108 181 182
f 108 182 109
f 109 182 111
f 111 182 183
f 111 183 184
f 111 184 113
f 111 113 112
f 113 184 185
f 113 185 186
f 113 186 187
f 113 187 188
f 113 188 189
f 113 189 190
f 113 190 114
f 114 190 189
f 114 189 115
f 115 189 191
f 115 191 116
f 116 191 192
f 116 192 117
f 117 192 193
f 117 193 118
f 118 193 119
f 119 193 194
f 119 194 122
f 120 121 124
f 121 195 124
f 121 123 196
f 121 196 195
f 122 194 123
f 123 194 197
f 123 197 198
f 123 198 199
f 123 199 196
f 124 195 200
f 124 200 201
f 124 201 126
f 125 126 202
f 125 202 203
f 125 203 204
f 125 204 205
f 125 205 206
f 125 206 207
f 125 207 127
f 126 201 202
f 127 207 132
f 127 132 128
f 130 132 208
f 130 208 209
f 130 209 210
f 130 210 211
f 130 211 131
f 131 211 133
f 132 207 206
f 132 206 212
f 132 212 213
f 132 213 208
f 133 211 134
f 134 214 215
f 134 215 216
f 134 216 135
f 134 211 214
f 135 216 136
f 138 217 218
f 139 151 143
f 139 143 140
f 140 143 141
f 141 143 142
f 146 219 220
f 146 220 147
f 152 221 153
f 152 222 221
f 153 221 154
f 154 223 224
f 154 224 155
f 154 221 225
f 154 225 226
f 154 226 227
f 154 227 228
f 154 228 223
f 155 224 156
f 156 229 230
f 156 230 231
f 156 231 164
f 156 164 158
f 156 158 157
f 156 224 229
f 159 164 232
f 159 232 231
f 159 231 230
f 159 230 233
f 159 233 234
f 159 234 160
f 160 234 166
f 160 166 161
f 161 166 162
f 162 166 163
f 163 166 165
f 164 231 232
f 166 234 167
f 167 234 235
f 167 235 168
f 168 235 236
f 168 236 169
f 169 236 237
f 169 237 170
f 170 237 238
f 170 238 171
f 171 238 172
f 172 238 239
f 172 239 174
f 172 174 173
f 174 239 175
f 175 239 240
f 175 240 178
f 175 177 176
f 178 241 242
f 178 242 179
f 178 240 241
f 179 242 181
f 181 243 244
f 181 244 245
f 181 245 182
f 181 242 243
f 182 245 183
f 183 245 184
f 184 246 185
f 184 245 246
f 185 246 247
f 185 247 248
f 185 248 186
f 186 248 249
f 186 249 250
f 186 250 251
f 186 251 252
f 186 252 187
f 187 252 188
f 188 252 253
f 188 253 254
f 188 254 255
f 188 255 191
f 188 191 189
f 191 255 254
f 191 254 256
f 191 256 257
f 191 257 192
f 192 257 193
f 193 258 198
f 193 198 197
f 193 197 194
f 193 257 258
f 195 196 200
f 196 199 259
f 196 259 260
f 196 260 261
f 196 261 262
f 196 262 200
f 198 258 263
f 198 263 259
f 198 259 199
f 200 264 265
f 200 265 201
f 200 262 264
f 201 266 202
f 201 265 267
f 201 267 266
f 202 266 268
f 202 268 269
f 202 269 270
f 202 270 203
f 203 205 204
f 203 270 271
f 203 271 272
f 203 272 206
f 203 206 205
f 206 272 212
f 208 213 273
f 208 273 274
f 208 274 209
f 209 275 276
f 209 276 277
f 209 277 210
f 209 274 275
f 210 277 278
f 210 278 211
f 211 278 214
f 212 272 279
f 212 279 213
f 213 279 280
f 213 280 273
f 214 281 282
f 214 282 215
f 214 278 281
f 215 282 216
f 217 283 218
f 217 284 285
f 217 285 283
f 218 286 287
f 218 287 288
f 218 283 286
f 219 289 220
f 220 289 291
f 220 291 290
f 221 222 292
f 221 292 293
f 221 293 294
f 221 294 226
f 221 226 225
f 223 295 296
f 223 296 297
f 223 297 229
f 223 229 224
f 223 228 298
f 223 298 295
f 226 294 299
f 226 299 300
f 226 300 227
f 227 300 228
f 228 300 301
f 228 301 298
f 229 297 302
f 229 302 303
f 229 303 304
f 229 304 233
f 229 233 230
f 233 304 305
f 233 305 306
f 233 306 307
f 233 307 308
f 233 308 234
f 234 308 306
f 234 306 309
f 234 309 310
f 234 310 311
f 234 311 312
f 234 312 313
f 234 313 235
f 235 313 314
f 235 314 315
f 235 315 316
f 235 316 237
f 235 237 236
f 237 316 317
f 237 317 238
f 238 317 318
f 238 318 240
f 238 240 239
f 240 318 319
f 240 319 320
f 240 320 241
f 241 320 321
f 241 321 322
f 241 322 323
f 241 323 324
f 241 324 243
f 241 243 242
f 243 325 326
f 243 326 327
f 243 327 328
f 243 328 244
f 243 324 325
f 244 328 246
f 244 246 245
f 246 328 329
f 246 329 248
f 246 248 247
f 248 329 328
f 248 328 330
f 248 330 331
f 248 331 332
f 248 332 249
f 249 332 250
f 250 333 334
f 250 334 335
f 250 335 336
f 250 336 253
f 250 253 252
f 250 252 251
f 250 332 333
f 253 336 254
f 254 336 256
f 256 263 257
f 256 336 259
f 256 259 263
f 257 263 258
f 259 336 337
f 259 337 260
f 260 337 261
f 261 338 262
f 261 337 338
f 262 338 264
f 264 339 265
f 264 338 340
f 264 340 339
f 265 339 341
f 265 341 267
f 266 267 341
f 266 341 342
f 266 342 343
f 266 343 269
f 266 269 268
f 269 343 344
f 269 344 270
f 270 345 271
f 270 344 345
f 271 346 272
f 271 345 347
f 271 347 346
f 272 346 279
f 273 348 275
f 273 275 274
f 273 280 349
f 273 349 348
f 275 350 351
f 275 351 277
f 275 277 276
f 275 348 349
f 275 349 352
f 275 352 353
f 275 353 350
f 277 351 354
f 277 354 278
f 278 354 355
f 278 355 356
f 278 356 281
f 279 346 357
f 279 357 358
f 279 358 280
f 280 358 349
f 281 356 359
f 281 359 360
f 281 360 282
f 283 285 286
f 284 361 285
f 285 361 362
f 285 362 363
f 285 363 286
f 286 363 364
f 286 364 287
f 287 365 366
f 287 366 367
f 287 367 368
f 287 368 369
f 287 369 288
f 287 364 365
f 290 291 371
f 290 371 370
f 291 372 370
f 291 370 371
f 292 294 293
f 292 373 294
f 294 373 374
f 294 374 375
f 294 375 299
f 295 298 296
f 296 298 376
f 296 376 377
f 296 377 378
f 296 378 379
f 296 379 297
f 297 379 302
f 298 301 380
f 298 380 376
f 299 301 300
f 299 375 381
f 299 381 301
f 301 381 382
f 301 382 383
f 301 383 384
f 301 384 380
f 302 379 385
f 302 385 303
f 303 386 387
f 303 387 388
f 303 388 389
f 303 389 390
f 303 390 305
f 303 305 304
f 303 385 386
f 305 390 306
f 306 390 309
f 306 308 307
f 309 391 392
f 309 392 393
f 309 393 310
f 309 390 391
f 310 393 394
f 310 394 395
f 310 395 312
f 310 312 311
f 312 395 396
f 312 396 314
f 312 314 313
f 314 396 315
f 315 396 397
f 315 397 398
f 315 398 399
f 315 399 400
f 315 400 401
f 315 401 316
f 316 401 402
f 316 402 403
f 316 403 317
f 317 403 319
f 317 319 318
f 319 403 404
f 319 404 405
f 319 405 406
f 319 406 321
f 319 321 320
f 321 406 407
f 321 407 323
f 321 323 322
f 323 408 325
f 323 325 324
f 323 407 408
f 325 408 409
f 325 409 410
f 325 410 411
f 325 411 412
f 325 412 413
f 325 413 414
f 325 414 415
f 325 415 416
f 325 416 330
f 325 330 417
f 325 417 328
f 325 328 326
f 326 328 327
f 328 417 330
f 330 416 418
f 330 418 419
f 330 419 331
f 331 419 420
f 331 420 421
f 331 421 422
f 331 422 332
f 332 422 423
f 332 423 424
f 332 424 333
f 333 425 334
f 333 424 425
f 334 426 427
f 334 427 428
f 334 428 429
f 334 429 335
f 334 425 426
f 335 429 337
f 335 337 336
f 337 429 340
f 337 340 338
f 339 340 341
f 340 430 341
f 340 429 428
f 340 428 430
f 341 430 431
f 341 431 344
f 341 344 343
f 341 343 342
f 344 432 347
f 344 347 433
f 344 433 345
f 344 431 432
f 345 433 347
f 346 347 357
f 347 434 358
f 347 358 357
f 347 432 435
f 347 435 434
f 349 436 437
f 349 437 352
f 349 358 438
f 349 438 436
f 350 353 439
f 350 439 440
f 350 440 441
f 350 441 354
f 350 354 351
f 352 437 353
f 353 437 442
f 353 442 443
f 353 443 444
f 353 444 439
f 354 441 445
f 354 445 355
f 355 445 446
f 355 446 359
f 355 359 356
f 358 434 447
f 358 447 438
f 359 448 449
f 359 449 450
f 359 450 360
f 359 446 451
f 359 451 452
f 359 452 448
f 361 453 362
f 362 453 363
f 363 454 364
f 363 453 455
f 363 455 456
f 363 456 457
f 363 457 458
f 363 458 459
f 363 459 460
f 363 460 461
f 363 461 454
f 364 462 365
f 364 454 366
f 364 366 462
f 365 462 366
f 366 463 367
f 366 454 464
f 366 464 465
f 366 465 463
f 367 466 368
f 367 463 467
f 367 467 466
f 370 372 469
f 370 469 470
f 370 470 468
f 373 471 374
f 374 471 467
f 374 467 375
f 375 467 381
f 376 472 377
f 376 380 473
f 376 473 472
f 377 474 378
f 377 472 475
f 377 475 474
f 378 474 476
f 378 476 477
f 378 477 385
f 378 385 379
f 380 384 473
f 381 465 382
f 381 467 463
f 381 463 465
f 382 465 383
f 383 465 478
f 383 478 479
f 383 479 384
f 384 480 481
f 384 481 482
f 384 482 483
f 384 483 473
f 384 479 461
f 384 461 480
f 385 477 386
f 386 477 484
f 386 484 387
f 387 484 485
f 387 485 388
f 388 485 391
f 388 391 389
f 389 391 390
f 391 485 392
f 392 486 487
f 392 487 393
f 392 485 484
f 392 484 488
f 392 488 489
f 392 489 490
f 392 490 491
f 392 491 492
f 392 492 493
f 392 493 486
f 393 487 394
f 394 487 494
f 394 494 495
f 394 495 395
f 395 495 396
f 396 495 496
f 396 496 397
f 397 496 398
f 398 496 497
f 398 497 498
f 398 498 499
f 398 499 400
f 398 400 399
f 400 499 500
f 400 500 401
f 401 500 402
f 402 500 405
f 402 405 403
f 403 405 404
f 405 500 501
f 405 501 411
f 405 411 409
f 405 409 408
f 405 408 407
f 405 407 406
f 409 411 410
f 411 501 412
f 412 502 503
f 412 503 504
f 412 504 413
f 412 501 505
f 412 505 506
f 412 506 502
f 413 507 508
f 413 508 414
f 413 504 507
f 414 508 509
f 414 509 510
f 414 510 511
f 414 511 512
f 414 512 415
f 415 512 416
f 416 512 419
f 416 419 418
f 419 512 513
f 419 513 420
f 420 513 514
f 420 514 515
f 420 515 423
f 420 423 421
f 421 423 422
f 423 515 516
f 423 516 517
f 423 517 518
f 423 518 519
f 423 519 424
f 424 519 520
f 424 520 425
f 425 520 521
f 425 521 426
f 426 521 427
f 427 517 430
f 427 430 428
f 427 521 518
f 427 518 517
f 430 517 522
f 430 522 523
f 430 523 431
f 431 523 435
f 431 435 432
f 434 435 524
f 434 524 447
f 435 523 525
f 435 525 526
f 435 526 524
f 436 527 528
f 436 528 437
f 436 438 529
f 436 529 530
f 436 530 531
f 436 531 527
f 437 528 443
f 437 443 442
f 438 447 532
f 438 532 529
f 439 444 533
f 439 533 534
f 439 534 535
f 439 535 440
f 440 535 451
f 440 451 441
f 441 451 445
f 443 536 444
f 443 528 527
f 443 527 537
f 443 537 538
f 443 538 536
f 444 539 533
f 444 536 539
f 445 451 446
f 447 524 532
f 448 452 535
f 448 535 540
f 448 540 541
f 448 541 450
f 448 450 449
f 451 535 452
f 454 461 464
f 455 542 456
f 456 543 457
f 456 542 543
f 457 543 544
f 457 544 545
f 457 545 458
f 458 545 546
f 458 546 547
f 458 547 548
f 458 548 549
f 458 549 460
f 458 460 459
f 460 549 461
f 461 549 550
f 461 550 480
f 461 479 464
f 464 478 465
f 464 479 478
f 466 467 551
f 467 471 551
f 468 470 552
f 470 553 552
f 472 473 554
f 472 554 475
f 473 483 554
f 474 475 555
f 474 555 476
f 475 554 555
f 476 555 556
f 476 556 557
f 476 557 477
f 477 558 559
f 477 559 560
f 477 560 561
f 477 561 562
f 477 562 563
f 477 563 564
f 477 564 489
f 477 489 488
f 477 488 484
f 477 557 558
f 480 550 481
f 481 550 565
f 481 565 566
f 481 566 482
f 482 566 483
f 483 566 554
f 486 493 487
f 487 493 567
f 487 567 568
f 487 568 569
f 487 569 570
f 487 570 497
f 487 497 494
f 489 564 571
f 489 571 572
f 489 572 490
f 490 572 573
f 490 573 491
f 491 573 572
f 491 572 574
f 491 574 575
f 491 575 492
f 492 575 493
f 493 575 567
f 494 497 495
f 495 497 496
f 497 570 569
f 497 569 576
f 497 576 577
f 497 577 578
f 497 578 579
f 497 579 580
f 497 580 581
f 497 581 582
f 497 582 583
f 497 583 584
f 497 584 498
f 498 584 506
f 498 506 499
f 499 506 505
f 499 505 501
f 499 501 500
f 502 506 585
f 502 585 586
f 502 586 587
f 502 587 588
f 502 588 503
f 503 588 589
f 503 589 590
f 503 590 591
f 503 591 504
f 504 591 507
f 506 584 585
f 507 591 508
f 508 590 509
f 508 591 590
f 509 590 592
f 509 592 593
f 509 593 594
f 509 594 595
f 509 595 596
f 509 596 597
f 509 597 598
f 509 598 599
f 509 599 513
f 509 513 510
f 510 513 512
f 510 512 511
f 513 599 600
f 513 600 515
f 513 515 514
f 515 601 602
f 515 602 603
f 515 603 516
f 515 600 601
f 516 603 517
f 517 604 605
f 517 605 522
f 517 603 604
f 518 521 519
f 519 521 520
f 522 605 525
f 522 525 523
f 524 526 532
f 525 605 606
f 525 606 526
f 526 607 608
f 526 608 532
f 526 606 609
f 526 609 610
f 526 610 611
f 526 611 607
f 527 531 612
f 527 612 537
f 529 532 530
f 530 613 614
f 530 614 531
f 530 532 608
f 530 608 607
f 530 607 615
f 530 615 616
f 530 616 617
f 530 617 618
f 530 618 619
f 530 619 620
f 530 620 613
f 531 614 612
f 533 539 621
f 533 621 534
f 534 621 622
f 534 622 535
f 535 622 540
f 536 538 539
f 537 612 623
f 537 623 538
f 538 624 625
f 538 625 626
f 538 626 627
f 538 627 539
f 538 623 628
f 538 628 629
f 538 629 630
f 538 630 631
f 538 631 632
f 538 632 633
f 538 633 624
f 539 627 634
f 539 634 635
f 539 635 621
f 540 622 636
f 540 636 637
f 540 637 541
f 544 638 546
f 544 546 545
f 546 638 639
f 546 639 640
f 546 640 641
f 546 641 547
f 547 641 642
f 547 642 643
f 547 643 644
f 547 644 548
f 548 644 550
f 548 550 549
f 550 644 645
f 550 645 565
f 552 646 647
f 552 553 648
f 552 648 646
f 554 566 649
f 554 649 650
f 554 650 651
f 554 651 556
f 554 556 555
f 556 651 557
f 557 651 650
f 557 650 652
f 557 652 653
f 557 653 558
f 558 653 559
f 559 654 655
f 559 655 560
f 559 653 652
f 559 652 654
f 560 655 561
f 561 655 656
f 561 656 657
f 561 657 562
f 562 657 658
f 562 658 659
f 562 659 563
f 563 659 564
f 564 659 571
f 565 645 566
f 566 645 649
f 567 660 568
f 567 575 660
f 568 660 569
f 569 660 575
f 569 575 661
f 569 661 662
f 569 662 577
f 569 577 576
f 571 659 572
f 572 659 663
f 572 663 574
f 574 664 665
f 574 665 575
f 574 663 666
f 574 666 667
f 574 667 664
f 575 665 668
f 575 668 661
f 577 662 578
f 578 669 670
f 578 670 671
f 578 671 672
f 578 672 673
f 578 673 579
f 578 662 661
f 578 661 668
f 578 668 674
f 578 674 669
f 579 673 580
f 580 673 675
f 580 675 581
f 581 675 676
f 581 676 582
f 582 676 677
f 582 677 678
f 582 678 583
f 583 585 584
f 583 678 586
f 583 586 585
f 586 678 679
f 586 679 587
f 587 679 680
f 587 680 593
f 587 593 681
f 587 681 592
f 587 592 588
f 588 592 682
f 588 682 589
f 589 682 590
f 590 682 592
f 592 681 593
f 593 683 684
f 593 684 685
f 593 685 594
f 593 680 683
f 594 685 686
f 594 686 595
f 595 686 596
f 596 687 688
f 596 688 689
f 596 689 690
f 596 690 597
f 596 686 691
f 596 691 692
f 596 692 687
f 597 690 598
f 598 690 693
f 598 693 694
f 598 694 599
f 599 694 695
f 599 695 696
f 599 696 600
f 600 696 697
f 600 697 601
f 601 697 602
f 602 697 698
f 602 698 699
f 602 699 700
f 602 700 701
f 602 701 702
f 602 702 604
f 602 604 603
f 604 702 606
f 604 606 605
f 606 702 609
f 607 611 615
f 609 702 701
f 609 701 700
f 609 700 610
f 610 700 699
f 610 699 611
f 611 699 615
f 612 614 623
f 613 620 703
f 613 703 628
f 613 628 614
f 614 628 623
f 615 699 704
f 615 704 705
f 615 705 616
f 616 705 706
f 616 706 617
f 617 706 618
f 618 706 705
f 618 705 707
f 618 707 708
f 618 708 709
f 618 709 619
f 619 709 620
f 620 709 710
f 620 710 711
f 620 711 712
f 620 712 703
f 621 635 713
f 621 713 714
f 621 714 622
f 622 715 636
f 622 714 715
f 624 633 716
f 624 716 717
f 624 717 625
f 625 717 718
f 625 718 719
f 625 719 626
f 626 719 634
f 626 634 627
f 628 703 630
f 628 630 629
f 630 703 712
f 630 712 631
f 631 712 711
f 631 711 720
f 631 720 721
f 631 721 632
f 632 721 722
f 632 722 723
f 632 723 724
f 632 724 725
f 632 725 633
f 633 725 726
f 633 726 716
f 634 719 713
f 634 713 635
f 636 715 727
f 636 727 637
f 639 728 640
f 640 728 729
f 640 729 730
f 640 730 731
f 640 731 641
f 641 731 732
f 641 732 642
f 642 732 733
f 642 733 734
f 642 734 643
f 643 734 645
f 643 645 644
f 645 734 649
f 646 648 736
f 646 736 819
f 646 819 891
f 646 891 971
f 646 971 1042
f 646 1042 959
f 646 959 886
f 646 886 816
f 646 816 735
f 646 735 647
f 649 734 650
f 650 737 652
f 650 734 737
f 652 738 654
f 652 737 738
f 654 739 740
f 654 740 655
f 654 738 739
f 655 740 741
f 655 741 656
f 656 741 657
f 657 741 742
f 657 742 743
f 657 743 666
f 657 666 659
f 657 659 658
f 659 666 663
f 664 744 745
f 664 745 746
f 664 746 747
f 664 747 748
f 664 748 749
f 664 749 750
f 664 750 665
f 664 667 742
f 664 742 751
f 664 751 744
f 665 750 752
f 665 752 668
f 666 743 667
f 667 743 742
f 668 752 674
f 669 674 752
f 669 752 670
f 670 753 754
f 670 754 755
f 670 755 672
f 670 672 671
f 670 752 756
f 670 756 757
f 670 757 758
f 670 758 759
f 670 759 760
f 670 760 753
f 672 676 675
f 672 675 673
f 672 755 761
f 672 761 762
f 672 762 763
f 672 763 764
f 672 764 676
f 676 764 677
f 677 764 678
f 678 764 679
f 679 764 680
f 680 764 765
f 680 765 683
f 683 765 766
f 683 766 767
f 683 767 684
f 684 767 768
f 684 768 691
f 684 691 685
f 685 691 686
f 687 692 688
f 688 769 770
f 688 770 771
f 688 771 772
f 688 772 773
f 688 773 708
f 688 708 774
f 688 774 689
f 688 692 775
f 688 775 769
f 689 774 776
f 689 776 777
f 689 777 690
f 690 777 778
f 690 778 779
f 690 779 693
f 691 768 692
f 692 768 780
f 692 780 781
f 692 781 782
f 692 782 775
f 693 779 694
f 694 779 695
f 695 779 696
f 696 779 783
f 696 783 697
f 697 783 779
f 697 779 698
f 698 779 784
f 698 784 699
f 699 784 704
f 704 784 776
f 704 776 705
f 705 776 707
f 707 776 708
f 708 773 772
f 708 772 709
f 708 776 774
f 709 772 785
f 709 785 786
f 709 786 710
f 710 786 711
f 711 786 787
f 711 787 720
f 713 719 714
f 714 719 788
f 714 788 715
f 715 788 789
f 715 789 790
f 715 790 791
f 715 791 727
f 716 726 792
f 716 792 793
f 716 793 794
f 716 794 717
f 717 794 718
f 718 794 719
f 719 794 795
f 719 795 789
f 719 789 788
f 720 787 796
f 720 796 721
f 721 796 722
f 722 797 724
f 722 724 723
f 722 796 798
f 722 798 799
f 722 799 800
f 722 800 797
f 724 801 802
f 724 802 803
f 724 803 725
f 724 797 804
f 724 804 801
f 725 803 802
f 725 802 726
f 726 802 805
f 726 805 792
f 727 791 806
f 728 730 729
f 730 807 808
f 730 808 809
f 730 809 731
f 731 809 732
f 732 809 810
f 732 810 811
f 732 811 812
f 732 812 813
f 732 813 733
f 733 813 814
f 733 814 734
f 734 814 815
f 734 815 737
f 735 816 817
f 736 818 819
f 737 815 738
f 738 815 820
f 738 820 821
f 738 821 822
f 738 822 739
f 739 822 740
f 740 823 741
f 740 822 824
f 740 824 825
f 740 825 823
f 741 751 742
f 741 823 826
f 741 826 827
f 741 827 828
f 741 828 829
f 741 829 830
f 741 830 751
f 744 830 745
f 744 751 830
f 745 830 831
f 745 831 832
f 745 832 746
f 746 832 833
f 746 833 834
f 746 834 835
f 746 835 836
f 746 836 837
f 746 837 838
f 746 838 747
f 747 838 839
f 747 839 840
f 747 840 748
f 748 840 841
f 748 841 749
f 749 841 750
f 750 841 842
f 750 842 752
f 752 842 757
f 752 757 756
f 753 843 754
f 753 760 843
f 754 843 844
f 754 844 765
f 754 765 755
f 755 765 761
f 757 845 846
f 757 846 758
f 757 842 847
f 757 847 845
f 758 846 848
f 758 848 759
f 759 848 760
f 760 849 843
f 760 848 850
f 760 850 849
f 761 765 762
f 762 765 763
f 763 765 764
f 765 844 767
f 765 767 766
f 767 780 768
f 767 844 780
f 769 775 770
f 770 851 852
f 770 852 771
f 770 775 851
f 771 853 799
f 771 799 786
f 771 786 785
f 771 785 772
f 771 852 854
f 771 854 855
f 771 855 856
f 771 856 853
f 775 782 851
f 776 784 777
f 777 784 778
f 778 784 779
f 780 857 858
f 780 858 859
f 780 859 781
f 780 844 860
f 780 860 857
f 781 859 861
f 781 861 782
f 782 861 854
f 782 854 851
f 786 799 798
f 786 798 787
f 787 798 796
f 789 862 863
f 789 863 806
f 789 806 790
f 789 795 864
f 789 864 862
f 790 806 791
f 792 805 865
f 792 865 866
f 792 866 867
f 792 867 794
f 792 794 793
f 794 867 795
f 795 867 864
f 797 800 868
f 797 868 869
f 797 869 870
f 797 870 804
f 799 871 800
f 799 853 856
f 799 856 872
f 799 872 871
f 800 871 868
f 801 804 870
f 801 870 802
f 802 870 873
f 802 873 874
f 802 874 875
f 802 875 865
f 802 865 805
f 807 876 808
f 808 876 877
f 808 877 878
f 808 878 810
f 808 810 809
f 810 879 811
f 810 878 880
f 810 880 881
f 810 881 879
f 811 879 812
f 812 881 882
f 812 882 883
f 812 883 813
f 812 879 881
f 813 883 814
f 814 883 824
f 814 824 815
f 815 824 821
f 815 821 820
f 816 884 885
f 816 885 817
f 816 886 887
f 816 887 884
f 818 888 889
f 818 889 819
f 819 889 890
f 819 890 891
f 821 824 822
f 823 825 826
f 824 883 882
f 824 882 892
f 824 892 825
f 825 892 826
f 826 892 893
f 826 893 827
f 827 894 895
f 827 895 896
f 827 896 828
f 827 893 894
f 828 896 895
f 828 895 897
f 828 897 898
f 828 898 899
f 828 899 900
f 828 900 901
f 828 901 902
f 828 902 903
f 828 903 904
f 828 904 905
f 828 905 835
f 828 835 834
f 828 834 831
f 828 831 829
f 829 831 830
f 831 834 833
f 831 833 832
f 835 905 904
f 835 904 906
f 835 906 836
f 836 906 907
f 836 907 837
f 837 907 908
f 837 908 909
f 837 909 910
f 837 910 838
f 838 910 839
f 839 910 911
f 839 911 840
f 840 911 912
f 840 912 841
f 841 912 847
f 841 847 842
f 843 849 913
f 843 913 857
f 843 857 860
f 843 860 844
f 845 914 915
f 845 915 846
f 845 847 912
f 845 912 914
f 846 915 916
f 846 916 848
f 848 916 915
f 848 915 917
f 848 917 918
f 848 918 850
f 849 919 913
f 849 850 919
f 850 918 920
f 850 920 921
f 850 921 919
f 851 854 852
f 854 861 922
f 854 922 923
f 854 923 924
f 854 924 855
f 855 924 856
f 856 924 925
f 856 925 926
f 856 926 872
f 857 927 928
f 857 928 929
f 857 929 930
f 857 930 858
f 857 913 927
f 858 930 859
f 859 931 922
f 859 922 861
f 859 930 931
f 862 864 932
f 862 932 933
f 862 933 934
f 862 934 935
f 862 935 863
f 864 867 936
f 864 936 932
f 865 937 938
f 865 938 939
f 865 939 866
f 865 875 937
f 866 939 936
f 866 936 867
f 868 871 940
f 868 940 869
f 869 940 941
f 869 941 870
f 870 941 942
f 870 942 943
f 870 943 944
f 870 944 873
f 871 872 926
f 871 926 945
f 871 945 940
f 873 944 946
f 873 946 874
f 874 947 948
f 874 948 949
f 874 949 875
f 874 946 944
f 874 944 947
f 875 949 937
f 876 950 877
f 877 950 951
f 877 951 878
f 878 951 952
f 878 952 953
f 878 953 954
f 878 954 880
f 880 954 881
f 881 954 882
f 882 954 892
f 884 955 956
f 884 956 885
f 884 887 957
f 884 957 955
f 885 956 958
f 886 959 887
f 887 959 960
f 887 960 961
f 887 961 957
f 888 962 963
f 888 963 889
f 889 963 964
f 889 964 965
f 889 965 890
f 890 965 966
f 890 966 967
f 890 967 968
f 890 968 891
f 891 968 969
f 891 969 970
f 891 970 971
f 892 954 972
f 892 972 973
f 892 973 974
f 892 974 975
f 892 975 893
f 893 975 976
f 893 976 897
f 893 897 977
f 893 977 978
f 893 978 894
f 894 978 977
f 894 977 895
f 895 977 897
f 897 976 973
f 897 973 979
f 897 979 898
f 898 979 899
f 899 979 980
f 899 980 981
f 899 981 982
f 899 982 900
f 900 982 983
f 900 983 984
f 900 984 901
f 901 984 985
f 901 985 986
f 901 986 902
f 902 986 987
f 902 987 904
f 902 904 903
f 904 987 988
f 904 988 989
f 904 989 906
f 906 989 990
f 906 990 907
f 907 990 908
f 908 991 992
f 908 992 910
f 908 910 909
f 908 990 993
f 908 993 994
f 908 994 995
f 908 995 991
f 910 992 991
f 910 991 918
f 910 918 996
f 910 996 915
f 910 915 911
f 911 915 914
f 911 914 912
f 913 919 927
f 915 996 918
f 915 918 917
f 918 991 995
f 918 995 997
f 918 997 920
f 919 921 998
f 919 998 999
f 919 999 928
f 919 928 927
f 920 997 1000
f 920 1000 921
f 921 1000 998
f 922 931 924
f 922 924 923
f 924 1001 925
f 924 931 1002
f 924 1002 1001
f 925 1001 1003
f 925 1003 1004
f 925 1004 1005
f 925 1005 926
f 926 1005 945
f 928 999 998
f 928 998 1006
f 928 1006 1007
f 928 1007 1002
f 928 1002 929
f 929 1002 931
f 929 931 930
f 932 1008 933
f 932 936 1008
f 933 1008 1009
f 933 1009 934
f 936 938 1010
f 936 1010 1008
f 936 939 938
f 937 949 948
f 937 948 947
f 937 947 1011
f 937 1011 1012
f 937 1012 938
f 938 1012 1013
f 938 1013 1014
f 938 1014 1015
f 938 1015 1008
f 938 1008 1010
f 940 945 1004
f 940 1004 941
f 941 1016 1017
f 941 1017 943
f 941 943 942
f 941 1004 1018
f 941 1018 1019
f 941 1019 1016
f 943 1017 1016
f 943 1016 1020
f 943 1020 1021
f 943 1021 947
f 943 947 944
f 945 1005 1004
f 947 1022 1011
f 947 1021 1023
f 947 1023 1024
f 947 1024 1025
f 947 1025 1026
f 947 1026 1027
f 947 1027 1028
f 947 1028 1029
f 947 1029 1022
f 950 1030 951
f 951 1030 1031
f 951 1031 952
f 952 1031 972
f 952 972 1032
f 952 1032 953
f 953 1032 972
f 953 972 954
f 955 1033 1034
f 955 1034 956
f 955 957 1033
f 956 1034 1035
f 956 1035 1036
f 956 1036 958
f 957 961 1037
f 957 1037 1038
f 957 1038 1039
f 957 1039 1040
f 957 1040 1041
f 957 1041 1033
f 959 1042 960
f 960 1037 961
f 960 1042 970
f 960 970 1043
f 960 1043 1044
f 960 1044 1045
f 960 1045 1037
f 962 1046 963
f 963 1047 1048
f 963 1048 964
f 963 1046 1047
f 964 1048 1049
f 964 1049 965
f 965 1049 1050
f 965 1050 966
f 966 1050 1051
f 966 1051 1052
f 966 1052 967
f 967 1052 1053
f 967 1053 968
f 968 1053 1054
f 968 1054 969
f 969 1054 970
f 970 1054 1055
f 970 1055 1043
f 970 1042 971
f 972 1031 1056
f 972 1056 973
f 973 1057 1058
f 973 1058 1059
f 973 1059 979
f 973 976 974
f 973 1056 1060
f 973 1060 1057
f 974 976 975
f 979 1059 980
f 980 1059 1058
f 980 1058 1061
f 980 1061 982
f 980 982 981
f 982 1061 1062
f 982 1062 983
f 983 1062 1063
f 983 1063 984
f 984 1063 1064
f 984 1064 985
f 985 1065 1066
f 985 1066 1067
f 985 1067 987
f 985 987 986
f 985 1064 1065
f 987 1067 989
f 987 989 988
f 989 1068 990
f 989 1067 1069
f 989 1069 1070
f 989 1070 1071
f 989 1071 1072
f 989 1072 1068
f 990 1068 1072
f 990 1072 1073
f 990 1073 993
f 993 1073 994
f 994 1073 1072
f 994 1072 1074
f 994 1074 995
f 995 1074 997
f 997 1075 1076
f 997 1076 1077
f 997 1077 1078
f 997 1078 1079
f 997 1079 1080
f 997 1080 1081
f 997 1081 1000
f 997 1074 1075
f 998 1000 1082
f 998 1082 1083
f 998 1083 1006
f 1000 1081 1084
f 1000 1084 1085
f 1000 1085 1082
f 1001 1002 1007
f 1001 1007 1086
f 1001 1086 1003
f 1003 1087 1018
f 1003 1018 1004
f 1003 1086 1088
f 1003 1088 1087
f 1006 1083 1089
f 1006 1089 1007
f 1007 1089 1090
f 1007 1090 1088
f 1007 1088 1086
f 1008 1015 1091
f 1008 1091 1009
f 1009 1091 1092
f 1011 1093 1094
f 1011 1094 1012
f 1011 1022 1093
f 1012 1094 1095
f 1012 1095 1013
f 1013 1095 1096
f 1013 1096 1014
f 1014 1096 1097
f 1014 1097 1015
f 1015 1097 1098
f 1015 1098 1091
f 1016 1099 1100
f 1016 1100 1020
f 1016 1019 1087
f 1016 1087 1101
f 1016 1101 1102
f 1016 1102 1103
f 1016 1103 1099
f 1018 1087 1019
f 1020 1100 1021
f 1021 1104 1023
f 1021 1100 1104
f 1022 1029 1105
f 1022 1105 1093
f 1023 1104 1100
f 1023 1100 1024
f 1024 1106 1107
f 1024 1107 1026
f 1024 1026 1025
f 1024 1100 1106
f 1026 1107 1108
f 1026 1108 1109
f 1026 1109 1110
f 1026 1110 1111
f 1026 1111 1112
f 1026 1112 1027
f 1027 1112 1028
f 1028 1112 1029
f 1029 1112 1113
f 1029 1113 1105
f 1031 1114 1060
f 1031 1060 1056
f 1033 1041 1115
f 1033 1115 1034
f 1034 1115 1116
f 1034 1116 1035
f 1035 1116 1117
f 1035 1117 1036
f 1037 1118 1039
f 1037 1039 1038
f 1037 1045 1118
f 1039 1119 1120
f 1039 1120 1040
f 1039 1118 1121
f 1039 1121 1119
f 1040 1120 1041
f 1041 1122 1123
f 1041 1123 1115
f 1041 1120 1122
f 1043 1055 1044
f 1044 1055 1045
f 1045 1055 1124
f 1045 1124 1125
f 1045 1125 1126
f 1045 1126 1127
f 1045 1127 1118
f 1046 1128 1047
f 1047 1128 1113
f 1047 1113 1129
f 1047 1129 1048
f 1048 1129 1130
f 1048 1130 1049
f 1049 1130 1050
f 1050 1130 1051
f 1051 1131 1052
f 1051 1130 1131
f 1052 1132 1053
f 1052 1131 1132
f 1053 1132 1133
f 1053 1133 1054
f 1054 1133 1134
f 1054 1134 1055
f 1055 1134 1135
f 1055 1135 1124
f 1057 1060 1136
f 1057 1136 1137
f 1057 1137 1058
f 1058 1137 1138
f 1058 1138 1061
f 1060 1114 1139
f 1060 1139 1140
f 1060 1140 1136
f 1061 1138 1141
f 1061 1141 1062
f 1062 1141 1138
f 1062 1138 1063
f 1063 1142 1143
f 1063 1143 1064
f 1063 1138 1142
f 1064 1143 1065
f 1065 1143 1144
f 1065 1144 1145
f 1065 1145 1146
f 1065 1146 1066
f 1066 1146 1147
f 1066 1147 1069
f 1066 1069 1067
f 1069 1147 1070
f 1070 1148 1149
f 1070 1149 1150
f 1070 1150 1071
f 1070 1147 1151
f 1070 1151 1152
f 1070 1152 1148
f 1071 1150 1072
f 1072 1150 1153
f 1072 1153 1154
f 1072 1154 1074
f 1074 1154 1075
f 1075 1154 1153
f 1075 1153 1076
f 1076 1155 1077
f 1076 1153 1156
f 1076 1156 1157
f 1076 1157 1158
f 1076 1158 1159
f 1076 1159 1160
f 1076 1160 1161
f 1076 1161 1155
f 1077 1155 1078
f 1078 1161 1162
f 1078 1162 1163
f 1078 1163 1164
f 1078 1164 1079
f 1078 1155 1161
f 1079 1164 1165
f 1079 1165 1080
f 1080 1165 1166
f 1080 1166 1167
f 1080 1167 1168
f 1080 1168 1085
f 1080 1085 1084
f 1080 1084 1081
f 1082 1085 1169
f 1082 1169 1083
f 1083 1169 1089
f 1085 1168 1169
f 1087 1088 1170
f 1087 1170 1102
f 1087 1102 1101
f 1088 1090 1089
f 1088 1089 1171
f 1088 1171 1170
f 1089 1168 1171
f 1089 1169 1168
f 1091 1098 1172
f 1091 1172 1092
f 1093 1105 1173
f 1093 1173 1094
f 1094 1173 1174
f 1094 1174 1096
f 1094 1096 1095
f 1096 1174 1175
f 1096 1175 1176
f 1096 1176 1097
f 1097 1176 1098
f 1098 1176 1128
f 1099 1177 1178
f 1099 1178 1179
f 1099 1179 1180
f 1099 1180 1181
f 1099 1181 1106
f 1099 1106 1182
f 1099 1182 1100
f 1099 1103 1102
f 1099 1102 1183
f 1099 1183 1184
f 1099 1184 1177
f 1100 1182 1106
f 1102 1170 1185
f 1102 1185 1168
f 1102 1168 1186
f 1102 1186 1187
f 1102 1187 1188
f 1102 1188 1183
f 1105 1113 1173
f 1106 1108 1189
f 1106 1189 1107
f 1106 1181 1108
f 1107 1189 1108
f 1108 1131 1109
f 1108 1181 1180
f 1108 1180 1190
f 1108 1190 1131
f 1109 1131 1130
f 1109 1130 1110
f 1110 1130 1112
f 1110 1112 1111
f 1112 1130 1129
f 1112 1129 1113
f 1113 1128 1175
f 1113 1175 1174
f 1113 1174 1173
f 1114 1191 1192
f 1114 1192 1193
f 1114 1193 1139
f 1115 1123 1194
f 1115 1194 1116
f 1116 1194 1195
f 1116 1195 1196
f 1116 1196 1197
f 1116 1197 1117
f 1118 1127 1126
f 1118 1126 1121
f 1119 1198 1151
f 1119 1151 1120
f 1119 1121 1159
f 1119 1159 1199
f 1119 1199 1198
f 1120 1151 1122
f 1121 1126 1200
f 1121 1200 1159
f 1122 1201 1202
f 1122 1202 1203
f 1122 1203 1123
f 1122 1151 1204
f 1122 1204 1201
f 1123 1203 1205
f 1123 1205 1206
f 1123 1206 1207
f 1123 1207 1194
f 1124 1135 1125
f 1125 1200 1126
f 1125 1135 1200
f 1128 1176 1175
f 1131 1190 1179
f 1131 1179 1132
f 1132 1179 1208
f 1132 1208 1209
f 1132 1209 1133
f 1133 1209 1134
f 1134 1210 1211
f 1134 1211 1135
f 1134 1209 1210
f 1135 1211 1200
f 1136 1140 1193
f 1136 1193 1212
f 1136 1212 1213
f 1136 1213 1137
f 1137 1213 1138
f 1138 1213 1214
f 1138 1214 1215
f 1138 1215 1216
f 1138 1216 1217
f 1138 1217 1218
f 1138 1218 1219
f 1138 1219 1142
f 1139 1193 1140
f 1142 1219 1218
f 1142 1218 1143
f 1143 1203 1144
f 1143 1218 1217
f 1143 1217 1203
f 1144 1203 1202
f 1144 1202 1201
f 1144 1201 1220
f 1144 1220 1147
f 1144 1147 1145
f 1145 1147 1146
f 1147 1220 1151
f 1148 1152 1221
f 1148 1221 1149
f 1149 1221 1157
f 1149 1157 1156
f 1149 1156 1150
f 1150 1156 1153
f 1151 1198 1152
f 1151 1220 1204
f 1152 1198 1199
f 1152 1199 1221
f 1157 1221 1158
f 1158 1221 1159
f 1159 1222 1160
f 1159 1221 1199
f 1159 1200 1222
f 1160 1222 1223
f 1160 1223 1161
f 1161 1223 1162
f 1162 1223 1200
f 1162 1200 1224
f 1162 1224 1163
f 1163 1224 1164
f 1164 1224 1225
f 1164 1225 1226
f 1164 1226 1166
f 1164 1166 1165
f 1166 1226 1227
f 1166 1227 1228
f 1166 1228 1229
f 1166 1229 1230
f 1166 1230 1168
f 1166 1168 1167
f 1168 1230 1186
f 1168 1185 1171
f 1170 1171 1185
f 1177 1231 1178
f 1177 1184 1231
f 1178 1231 1179
f 1179 1190 1180
f 1179 1231 1232
f 1179 1232 1208
f 1183 1188 1184
f 1184 1188 1233
f 1184 1233 1228
f 1184 1228 1231
f 1186 1230 1188
f 1186 1188 1187
f 1188 1230 1233
f 1191 1234 1192
f 1192 1234 1235
f 1192 1235 1236
f 1192 1236 1212
f 1192 1212 1193
f 1194 1207 1206
f 1194 1206 1237
f 1194 1237 1195
f 1195 1237 1196
f 1196 1237 1238
f 1196 1238 1239
f 1196 1239 1197
f 1200 1211 1210
f 1200 1210 1224
f 1200 1223 1222
f 1201 1204 1220
f 1203 1217 1205
f 1205 1217 1216
f 1205 1216 1206
f 1206 1216 1237
f 1208 1232 1231
f 1208 1231 1240
f 1208 1240 1209
f 1209 1241 1210
f 1209 1240 1228
f 1209 1228 1227
f 1209 1227 1241
f 1210 1241 1227
f 1210 1227 1225
f 1210 1225 1224
f 1212 1236 1242
f 1212 1242 1213
f 1213 1242 1214
f 1214 1243 1215
f 1214 1242 1236
f 1214 1236 1244
f 1214 1244 1243
f 1215 1245 1246
f 1215 1246 1237
f 1215 1237 1247
f 1215 1247 1216
f 1215 1243 1245
f 1216 1247 1237
f 1225 1227 1226
f 1228 1233 1229
f 1228 1240 1231
f 1229 1233 1230
f 1237 1246 1245
f 1237 1245 1238
f 1238 1245 1239
f 1239 1245 1248
f 1243 1244 1249
f 1243 1249 1245
f 1244 1250 1249
f 1245 1249 1248
f 1248 1249 1250

