# https://github.com/mikedh/trimesh
v 0.07819574 -0.00117252 -0.02811226
v 0.08048036 -0.00117252 -0.02776943
v 0.09272139 -0.03404453 -0.02417653
v 0.08366127 -0.03404453 -0.02417653
v 0.07819574 -0.00117252 -0.02519818
v 0.07819574 0.01868766 -0.02812140
v 0.07964674 0.01896020 -0.02792027
v 0.08173705 -0.00117252 -0.02755230
v 0.08048036 0.01896020 -0.02778086
v 0.09316953 -0.03404453 -0.02398683
v 0.08181540 -0.00117252 -0.02753630
v 0.08299062 -0.00117252 -0.02728946
v 0.08424418 -0.00117252 -0.02698777
v 0.08510287 -0.00117252 -0.02676150
v 0.08514361 -0.00117252 -0.02675007
v 0.08572965 -0.00117252 -0.02658551
v 0.08674817 -0.00117252 -0.02629524
v 0.08800486 -0.00117252 -0.02591356
v 0.08900458 -0.00117252 -0.02557758
v 0.09051198 -0.00117252 -0.02503133
v 0.09177181 -0.00117252 -0.02455822
v 0.09176555 0.00643053 -0.02456279
v 0.09254588 0.00396374 -0.02425196
v 0.10856013 -0.03404453 -0.01030321
v 0.09205386 -0.00117252 -0.00963812
v 0.09202879 -0.00109565 -0.00963812
v 0.07819574 0.00724814 -0.02166242
v 0.07819574 0.01907899 -0.02812140
v 0.07964674 0.01907899 -0.02792027
v 0.08076241 0.02745772 -0.02773514
v 0.08173705 0.01269187 -0.02755230
v 0.09316953 -0.03368814 -0.02398683
v 0.09347352 -0.00644154 -0.02385427
v 0.09427267 -0.03117941 -0.02349315
v 0.09427267 -0.03404453 -0.02348858
v 0.08299062 0.01907899 -0.02728946
v 0.08424418 0.03138503 -0.02699005
v 0.08512480 0.03023899 -0.02676378
v 0.08574532 0.02146892 -0.02659237
v 0.08574218 0.01896020 -0.02659237
v 0.08675443 0.01908598 -0.02630210
v 0.08800486 0.00768140 -0.02591584
v 0.08901398 0.01896020 -0.02558215
v 0.08900458 0.00142007 -0.02557987
v 0.08964703 0.02647939 -0.02535588
v 0.09051198 0.01394274 -0.02503590
v 0.09051198 0.03023899 -0.02504047
v 0.09164332 0.01907899 -0.02461079
v 0.09176555 0.03399858 -0.02456279
v 0.09183449 0.03138503 -0.02453537
v 0.09254588 0.01019013 -0.02425196
v 0.10904588 -0.03404453 -0.01030321
v 0.10344873 -0.00117252 -0.00477217
v 0.09186269 0.00016221 -0.00963812
v 0.07819574 0.01028797 -0.02166242
v 0.07819574 0.01907899 -0.02517989
v 0.08076241 0.03138503 -0.02773286
v 0.08174019 0.03138503 -0.02754773
v 0.08174019 0.02522852 -0.02755001
v 0.09347352 -0.00627383 -0.02385427
v 0.09317267 0.00893227 -0.02398455
v 0.09427267 -0.00627383 -0.02349544
v 0.09517210 -0.02616196 -0.02307261
v 0.09515956 -0.03404453 -0.02306804
v 0.09519403 -0.00627383 -0.02307261
v 0.08299062 0.03138503 -0.02728717
v 0.09127979 0.03649333 -0.02460850
v 0.08512480 0.03138503 -0.02676378
v 0.08583933 0.03138503 -0.02656722
v 0.08675443 0.02898812 -0.02630210
v 0.08800486 0.01907899 -0.02591584
v 0.08902338 0.03023899 -0.02557987
v 0.08964703 0.03138503 -0.02535588
v 0.09051198 0.03138503 -0.02504047
v 0.09253962 0.03399858 -0.02425196
v 0.09164332 0.03413136 -0.02460850
v 0.09176555 0.03525644 -0.02454451
v 0.10949403 -0.03404453 -0.01047234
v 0.10857267 -0.00117252 -0.00477217
v 0.10344873 0.00144802 -0.00477217
v 0.10371512 0.00516569 -0.00477217
v 0.09189090 0.00030197 -0.00963812
v 0.08076241 0.03138503 -0.02477078
v 0.09211968 0.00135019 -0.00963812
v 0.08834645 0.03733190 -0.02460850
v 0.09066868 0.03733190 -0.02460850
v 0.09427267 0.00266395 -0.02349544
v 0.09316326 0.03399858 -0.02397998
v 0.09580514 -0.02240236 -0.02275720
v 0.09677979 -0.02616196 -0.02225895
v 0.09581455 -0.00737096 -0.02276635
v 0.09677979 -0.03404453 -0.02224752
v 0.09578634 0.00396374 -0.02278006
v 0.09581455 -0.00360437 -0.02276635
v 0.09516270 0.02397765 -0.02307032
v 0.09182822 0.03647936 -0.02440052
v 0.09246440 0.03604610 -0.02421767
v 0.09159945 0.03525644 -0.02460850
v 0.09150230 0.03733190 -0.02432738
v 0.09228890 0.03688467 -0.02414225
v 0.08675443 0.03138503 -0.02629982
v 0.08800799 0.03138503 -0.02591356
v 0.08902338 0.03138503 -0.02557987
v 0.09251455 0.03525644 -0.02424282
v 0.09314446 0.03525644 -0.02397312
v 0.10967266 -0.03404453 -0.01054091
v 0.10857267 0.00392880 -0.00477217
v 0.11005187 -0.03404453 -0.01098888
v 0.11019916 -0.03404453 -0.01116715
v 0.11019916 -0.00485524 -0.01115801
v 0.10431682 0.00624186 -0.00477217
v 0.10810571 0.03734588 -0.00985296
v 0.09238606 0.00198611 -0.00963812
v 0.09220116 0.00155284 -0.00963812
v 0.08933364 0.03733190 -0.02130131
v 0.08834645 0.03733190 -0.02196869
v 0.09734076 0.03734588 -0.01786840
v 0.10338606 0.03734588 -0.01786840
v 0.09426953 0.03399858 -0.02347944
v 0.09677979 -0.01112357 -0.02227495
v 0.09764161 -0.03404453 -0.02180641
v 0.09677979 -0.00360437 -0.02227952
v 0.09677979 -0.00862183 -0.02227724
v 0.09677352 0.00396374 -0.02227952
v 0.09514076 0.03399858 -0.02306347
v 0.09293762 0.03647936 -0.02393884
v 0.09426953 0.03650731 -0.02334002
v 0.09426953 0.03525644 -0.02346344
v 0.09164332 0.03733190 -0.02427481
v 0.09490258 0.03714323 -0.02293776
v 0.10856013 0.00516569 -0.00477217
v 0.11019916 -0.00117950 -0.01115801
v 0.11019603 0.03525644 -0.01116715
v 0.11018663 0.03650731 -0.01116715
v 0.11020543 -0.03404453 -0.01228708
v 0.11020856 -0.03368814 -0.01228708
v 0.11020230 -0.02093486 -0.01135914
v 0.10555158 0.00668211 -0.00477217
v 0.10681768 0.00668211 -0.00477217
v 0.10917751 0.03734588 -0.00990553
v 0.09794560 0.03734588 -0.01741358
v 0.10495301 0.03734588 -0.01677134
v 0.10320429 0.03733190 -0.01800325
v 0.10133022 0.03733190 -0.01928087
v 0.09966925 0.03733190 -0.02029109
v 0.09759147 0.03733190 -0.02149786
v 0.09732509 0.03733190 -0.02164185
v 0.09713705 0.03733190 -0.02174242
v 0.09509062 0.03733190 -0.02276863
v 0.09482110 0.03733190 -0.02289891
v 0.09463307 0.03733190 -0.02298576
v 0.09512822 0.03525644 -0.02305433
v 0.09764474 -0.03243028 -0.02180641
v 0.09826839 -0.03404453 -0.02147272
v 0.09765415 -0.01191322 -0.02181784
v 0.09689574 -0.00627383 -0.02221781
v 0.09766041 0.00396374 -0.02181784
v 0.09766041 0.00266395 -0.02181784
v 0.09677352 0.00893227 -0.02227038
v 0.09759147 0.03525644 -0.02178127
v 0.09822452 0.03399858 -0.02145901
v 0.09823079 0.03149684 -0.02146358
v 0.09761027 0.02773725 -0.02179499
v 0.09501540 0.03650731 -0.02299490
v 0.09740030 0.03713624 -0.02168071
v 0.10798976 0.00623487 -0.00477217
v 0.10981369 0.03734588 -0.01056605
v 0.11019916 0.01908598 -0.01127914
v 0.11020856 0.02271979 -0.01228708
v 0.11020543 0.03400557 -0.01228708
v 0.11018663 0.03650731 -0.01219108
v 0.11013648 0.03734588 -0.01119458
v 0.10994845 -0.03404453 -0.01292246
v 0.10995158 -0.03368814 -0.01292246
v 0.10505956 0.03734588 -0.01669134
v 0.10501255 0.03730396 -0.01674391
v 0.10360229 0.03691262 -0.01787983
v 0.10358976 0.03696853 -0.01786840
v 0.10211996 0.03650731 -0.01898147
v 0.10149318 0.03650731 -0.01938601
v 0.09981341 0.03685672 -0.02037566
v 0.09563905 0.03650731 -0.02267950
v 0.09677352 0.03650731 -0.02210354
v 0.09928064 -0.03368814 -0.02090591
v 0.09928064 -0.03404453 -0.02090362
v 0.09825586 0.00396374 -0.02148872
v 0.09828406 0.00266395 -0.02147272
v 0.09765101 0.00643053 -0.02181784
v 0.09825899 0.01907899 -0.02147272
v 0.09827153 0.01144100 -0.02147501
v 0.09761027 0.01911393 -0.02181327
v 0.09749432 0.03650731 -0.02172870
v 0.09821825 0.03525644 -0.02145444
v 0.09927751 0.03399858 -0.02088991
v 0.09934959 0.03646538 -0.02071163
v 0.09812110 0.03650731 -0.02139044
v 0.10995158 -0.02093486 -0.01292246
v 0.10994531 0.03400557 -0.01292246
v 0.10994218 0.03487908 -0.01291789
v 0.11014588 0.03527740 -0.01240821
v 0.10992965 0.03571765 -0.01290646
v 0.10986070 0.03650731 -0.01281961
v 0.11013648 0.03734588 -0.01204023
v 0.10798349 -0.03404453 -0.01464805
v 0.10649489 0.03734588 -0.01552571
v 0.10654503 0.03650731 -0.01572684
v 0.10576782 0.03650731 -0.01635308
v 0.10514104 0.03650731 -0.01683990
v 0.10419774 0.03650032 -0.01753014
v 0.10382167 0.03617188 -0.01786840
v 0.10312908 0.03650032 -0.01829580
v 0.10371825 0.03607405 -0.01795982
v 0.10222651 0.03525644 -0.01905460
v 0.09994503 0.03602513 -0.02045336
v 0.09937779 -0.00627383 -0.02085105
v 0.10000144 -0.03404453 -0.02048308
v 0.09928064 0.00396374 -0.02090819
v 0.09928064 0.01770234 -0.02090591
v 0.09928064 0.00768140 -0.02090819
v 0.09918036 0.01908598 -0.02096076
v 0.09927751 0.03525644 -0.02087162
v 0.09998264 0.03525644 -0.02047393
v 0.09999517 0.03399858 -0.02048308
v 0.10860714 0.00396374 -0.01409952
v 0.10790514 0.01908598 -0.01470976
v 0.10725643 0.03400557 -0.01526972
v 0.10725329 0.03525644 -0.01526287
v 0.10943135 0.03527740 -0.01335672
v 0.10717495 0.03650731 -0.01520573
v 0.10789888 0.03650731 -0.01457720
v 0.10852566 0.03650731 -0.01402638
v 0.10923392 0.03650731 -0.01340014
v 0.10928406 0.03734588 -0.01306645
v 0.10970087 0.03734588 -0.01266648
v 0.10726583 -0.03404453 -0.01527430
v 0.10726583 -0.01614102 -0.01527430
v 0.10774218 0.03734588 -0.01444235
v 0.10586497 0.03525644 -0.01643079
v 0.10524133 0.03525644 -0.01691304
v 0.10386554 0.03589935 -0.01786840
v 0.10376212 0.03525644 -0.01798954
v 0.10303819 0.03525644 -0.01849693
v 0.10224218 0.03399858 -0.01906375
v 0.10159973 0.03525644 -0.01945458
v 0.10000458 0.00396374 -0.02048308
v 0.10062509 -0.03404453 -0.02009225
v 0.09992936 0.01907899 -0.02052650
v 0.10062195 0.03399858 -0.02008996
v 0.10005158 0.03138503 -0.02044879
v 0.09999831 0.01907899 -0.02048536
v 0.10725956 0.01645147 -0.01527430
v 0.10662965 0.03400557 -0.01581140
v 0.10663278 0.03138503 -0.01581369
v 0.10662338 0.03525644 -0.01580226
v 0.10860714 0.03734588 -0.01367898
v 0.10907409 0.03734588 -0.01326072
v 0.10663905 -0.03404453 -0.01580912
v 0.10663905 -0.03117941 -0.01581140
v 0.10715927 -0.02093486 -0.01536572
v 0.10663591 0.00396374 -0.01581369
v 0.10588378 0.03400557 -0.01643993
v 0.10525386 0.03400557 -0.01692675
v 0.10440144 0.03400557 -0.01755071
v 0.10377153 0.03399858 -0.01800096
v 0.10303819 0.03399858 -0.01851521
v 0.10304446 0.03138503 -0.01851521
v 0.10231426 0.03138503 -0.01901803
v 0.10090714 -0.03404453 -0.01991397
v 0.10161540 0.03399858 -0.01946143
v 0.10062509 -0.03243028 -0.02009225
v 0.10070970 0.03138503 -0.02003511
v 0.10588378 0.03138503 -0.01644221
v 0.10609062 -0.03404453 -0.01626166
v 0.10663905 -0.01739189 -0.01581140
v 0.10587751 -0.02491108 -0.01643993
v 0.10588378 0.02021106 -0.01644221
v 0.10525386 0.01896020 -0.01692675
v 0.10440144 0.02271979 -0.01755299
v 0.10377779 0.02522852 -0.01800325
v 0.10377466 0.03138503 -0.01800325
v 0.10378093 -0.00987270 -0.01800325
v 0.10304446 0.01908598 -0.01851521
v 0.10304133 -0.01238142 -0.01851293
v 0.10246469 -0.03404453 -0.01890147
v 0.10223278 -0.03368814 -0.01905460
v 0.10178776 -0.03404453 -0.01934716
v 0.10160913 -0.03404453 -0.01946372
v 0.10586811 -0.03404453 -0.01643536
v 0.10586811 -0.03368814 -0.01643993
v 0.10524133 -0.03404453 -0.01690847
v 0.10524133 -0.02992155 -0.01691075
v 0.10521939 0.00396374 -0.01694504
v 0.10525386 0.01394973 -0.01692447
v 0.10434190 0.01907899 -0.01759642
v 0.10378093 -0.02093486 -0.01800096
v 0.10378093 -0.01363229 -0.01800325
v 0.10304133 -0.03404453 -0.01850379
v 0.10377466 -0.03404453 -0.01799639
v 0.10377466 -0.03243028 -0.01799868
v 0.10440771 -0.01739189 -0.01753700
f 1 2 3
f 1 3 4
f 1 4 5
f 1 5 27
f 1 27 55
f 1 55 56
f 1 56 28
f 1 28 6
f 1 6 7
f 1 7 2
f 2 8 3
f 2 7 9
f 2 9 8
f 3 10 35
f 3 35 64
f 3 64 92
f 3 92 121
f 3 121 154
f 3 154 185
f 3 185 216
f 3 216 246
f 3 246 268
f 3 268 287
f 3 287 286
f 3 286 284
f 3 284 297
f 3 297 298
f 3 298 290
f 3 290 288
f 3 288 273
f 3 273 257
f 3 257 235
f 3 235 204
f 3 204 173
f 3 173 135
f 3 135 109
f 3 109 108
f 3 108 106
f 3 106 78
f 3 78 52
f 3 52 24
f 3 24 4
f 3 8 11
f 3 11 12
f 3 12 13
f 3 13 14
f 3 14 15
f 3 15 16
f 3 16 17
f 3 17 18
f 3 18 19
f 3 19 20
f 3 20 21
f 3 21 22
f 3 22 23
f 3 23 10
f 4 24 25
f 4 25 26
f 4 26 27
f 4 27 5
f 6 28 29
f 6 29 7
f 7 29 30
f 7 30 9
f 8 9 30
f 8 30 31
f 8 31 11
f 10 23 51
f 10 51 32
f 10 32 60
f 10 60 33
f 10 33 34
f 10 34 35
f 11 31 36
f 11 36 12
f 12 36 37
f 12 37 13
f 13 37 38
f 13 38 14
f 14 38 39
f 14 39 40
f 14 40 15
f 15 40 16
f 16 40 17
f 17 40 41
f 17 41 18
f 18 41 42
f 18 42 43
f 18 43 44
f 18 44 19
f 19 44 20
f 20 44 45
f 20 45 46
f 20 46 21
f 21 46 22
f 22 46 47
f 22 47 48
f 22 48 49
f 22 49 50
f 22 50 23
f 23 50 51
f 24 52 79
f 24 79 53
f 24 53 25
f 25 53 26
f 26 53 54
f 26 54 27
f 27 54 55
f 28 56 83
f 28 83 57
f 28 57 29
f 29 57 30
f 30 57 58
f 30 58 59
f 30 59 31
f 31 59 36
f 32 51 61
f 32 61 60
f 33 60 87
f 33 87 62
f 33 62 34
f 34 63 64
f 34 64 35
f 34 62 65
f 34 65 63
f 36 59 66
f 36 66 37
f 37 66 67
f 37 67 68
f 37 68 38
f 38 68 69
f 38 69 39
f 39 69 41
f 39 41 40
f 41 69 70
f 41 70 71
f 41 71 42
f 42 71 103
f 42 103 72
f 42 72 43
f 43 72 45
f 43 45 44
f 45 72 103
f 45 103 73
f 45 73 74
f 45 74 47
f 45 47 46
f 47 74 48
f 48 74 49
f 49 75 51
f 49 51 50
f 49 74 76
f 49 76 77
f 49 77 75
f 51 75 61
f 52 78 79
f 53 79 107
f 53 107 131
f 53 131 166
f 53 166 139
f 53 139 138
f 53 138 111
f 53 111 81
f 53 81 80
f 53 80 54
f 54 80 81
f 54 81 82
f 54 82 55
f 55 83 56
f 55 82 84
f 55 84 83
f 57 83 116
f 57 116 85
f 57 85 86
f 57 86 58
f 58 66 59
f 58 86 66
f 60 61 87
f 61 75 88
f 61 88 87
f 62 87 65
f 63 89 90
f 63 90 64
f 63 65 91
f 63 91 89
f 64 90 92
f 65 93 94
f 65 94 91
f 65 87 95
f 65 95 93
f 66 86 67
f 67 96 97
f 67 97 98
f 67 98 69
f 67 69 68
f 67 86 99
f 67 99 100
f 67 100 96
f 69 101 70
f 69 98 101
f 70 101 102
f 70 102 71
f 71 102 103
f 73 103 76
f 73 76 74
f 75 77 104
f 75 104 105
f 75 105 88
f 76 98 77
f 76 103 98
f 77 98 97
f 77 97 104
f 78 106 79
f 79 106 108
f 79 108 109
f 79 109 110
f 79 110 132
f 79 132 107
f 81 111 112
f 81 112 113
f 81 113 114
f 81 114 84
f 81 84 82
f 83 84 114
f 83 114 113
f 83 113 112
f 83 112 115
f 83 115 116
f 85 116 117
f 85 117 118
f 85 118 86
f 86 118 99
f 87 88 119
f 87 119 95
f 88 105 119
f 89 91 120
f 89 120 90
f 90 121 92
f 90 120 121
f 91 94 122
f 91 122 123
f 91 123 120
f 93 124 122
f 93 122 94
f 93 95 124
f 95 119 125
f 95 125 124
f 96 100 97
f 97 100 126
f 97 126 127
f 97 127 128
f 97 128 105
f 97 105 104
f 98 103 102
f 98 102 101
f 99 118 129
f 99 129 100
f 100 129 130
f 100 130 126
f 105 128 119
f 107 132 133
f 107 133 134
f 107 134 131
f 109 135 136
f 109 136 137
f 109 137 110
f 110 137 132
f 111 138 112
f 112 138 139
f 112 139 140
f 112 140 167
f 112 167 172
f 112 172 203
f 112 203 234
f 112 234 233
f 112 233 256
f 112 256 255
f 112 255 237
f 112 237 205
f 112 205 175
f 112 175 142
f 112 142 118
f 112 118 117
f 112 117 141
f 112 141 116
f 112 116 115
f 116 141 117
f 118 142 143
f 118 143 144
f 118 144 145
f 118 145 146
f 118 146 147
f 118 147 148
f 118 148 149
f 118 149 150
f 118 150 151
f 118 151 129
f 119 128 152
f 119 152 125
f 120 123 153
f 120 153 121
f 121 153 154
f 122 155 156
f 122 156 123
f 122 124 157
f 122 157 158
f 122 158 155
f 123 156 155
f 123 155 153
f 124 125 159
f 124 159 157
f 125 152 160
f 125 160 161
f 125 161 162
f 125 162 163
f 125 163 159
f 126 130 127
f 127 164 128
f 127 130 164
f 128 164 152
f 129 151 130
f 130 151 150
f 130 150 149
f 130 149 148
f 130 148 165
f 130 165 164
f 131 134 167
f 131 167 140
f 131 140 166
f 132 137 168
f 132 168 133
f 133 168 169
f 133 169 170
f 133 170 171
f 133 171 134
f 134 171 203
f 134 203 172
f 134 172 167
f 135 173 174
f 135 174 136
f 136 174 197
f 136 197 169
f 136 169 137
f 137 169 168
f 139 166 140
f 142 175 176
f 142 176 177
f 142 177 178
f 142 178 143
f 143 178 177
f 143 177 144
f 144 177 179
f 144 179 180
f 144 180 181
f 144 181 145
f 145 181 165
f 145 165 146
f 146 165 147
f 147 165 148
f 152 164 182
f 152 182 183
f 152 183 160
f 153 155 154
f 154 184 185
f 154 155 186
f 154 186 187
f 154 187 184
f 155 158 186
f 157 186 158
f 157 159 188
f 157 188 162
f 157 162 189
f 157 189 190
f 157 190 186
f 159 163 191
f 159 191 188
f 160 183 192
f 160 192 193
f 160 193 161
f 161 193 194
f 161 194 162
f 162 188 191
f 162 191 163
f 162 194 189
f 164 165 182
f 165 181 195
f 165 195 196
f 165 196 192
f 165 192 183
f 165 183 182
f 169 197 198
f 169 198 170
f 170 198 199
f 170 199 200
f 170 200 171
f 171 200 201
f 171 201 202
f 171 202 203
f 173 204 174
f 174 204 197
f 175 205 176
f 176 206 207
f 176 207 208
f 176 208 177
f 176 205 206
f 177 208 209
f 177 209 210
f 177 210 211
f 177 211 179
f 179 211 212
f 179 212 213
f 179 213 214
f 179 214 180
f 180 214 181
f 181 214 195
f 184 215 216
f 184 216 185
f 184 187 217
f 184 217 215
f 186 217 187
f 186 190 218
f 186 218 219
f 186 219 217
f 189 194 190
f 190 194 220
f 190 220 218
f 192 196 214
f 192 214 193
f 193 214 221
f 193 221 194
f 194 221 222
f 194 222 223
f 194 223 218
f 194 218 220
f 195 214 196
f 197 204 224
f 197 224 198
f 198 225 226
f 198 226 227
f 198 227 199
f 198 224 225
f 199 227 228
f 199 228 201
f 199 201 200
f 201 228 227
f 201 227 229
f 201 229 230
f 201 230 231
f 201 231 232
f 201 232 202
f 202 232 233
f 202 233 234
f 202 234 203
f 204 235 236
f 204 236 224
f 205 237 230
f 205 230 229
f 205 229 206
f 206 229 238
f 206 238 207
f 207 238 208
f 208 238 239
f 208 239 212
f 208 212 210
f 208 210 209
f 210 212 211
f 212 239 240
f 212 240 241
f 212 241 242
f 212 242 213
f 213 242 243
f 213 243 244
f 213 244 214
f 214 244 222
f 214 222 221
f 215 217 245
f 215 245 216
f 216 245 246
f 217 219 245
f 218 247 219
f 218 223 247
f 219 247 245
f 222 248 223
f 222 244 248
f 223 248 249
f 223 249 250
f 223 250 247
f 224 236 251
f 224 251 225
f 225 251 226
f 226 252 227
f 226 251 253
f 226 253 252
f 227 254 229
f 227 252 254
f 229 254 238
f 230 237 231
f 231 237 255
f 231 255 232
f 232 255 256
f 232 256 233
f 235 257 258
f 235 258 259
f 235 259 236
f 236 259 260
f 236 260 253
f 236 253 251
f 238 254 261
f 238 261 239
f 239 261 262
f 239 262 263
f 239 263 241
f 239 241 240
f 241 263 264
f 241 264 265
f 241 265 242
f 242 265 243
f 243 265 266
f 243 266 267
f 243 267 268
f 243 268 269
f 243 269 244
f 244 269 248
f 245 268 270
f 245 270 246
f 245 247 250
f 245 250 271
f 245 271 268
f 246 270 268
f 248 269 271
f 248 271 250
f 248 250 249
f 252 261 254
f 252 253 261
f 253 272 261
f 253 260 272
f 257 273 258
f 258 274 259
f 258 273 275
f 258 275 276
f 258 276 272
f 258 272 274
f 259 274 260
f 260 274 272
f 261 272 262
f 262 272 276
f 262 276 277
f 262 277 278
f 262 278 263
f 263 278 279
f 263 279 280
f 263 280 264
f 264 280 265
f 265 280 266
f 266 280 279
f 266 279 281
f 266 281 296
f 266 296 282
f 266 282 267
f 267 282 283
f 267 283 284
f 267 284 285
f 267 285 286
f 267 286 287
f 267 287 268
f 268 271 269
f 273 288 289
f 273 289 275
f 275 289 290
f 275 290 291
f 275 291 292
f 275 292 293
f 275 293 277
f 275 277 276
f 277 294 278
f 277 293 295
f 277 295 296
f 277 296 294
f 278 294 279
f 279 294 281
f 281 294 296
f 282 296 283
f 283 296 295
f 283 295 284
f 284 295 297
f 284 286 285
f 288 290 289
f 290 298 299
f 290 299 295
f 290 295 291
f 291 295 300
f 291 300 292
f 292 300 295
f 292 295 293
f 295 299 297
f 297 299 298

