# https://github.com/mikedh/trimesh
v 0.04743874 0.00880937 -0.00033041
v 0.04743874 0.00893182 -0.00033041
v 0.04747098 0.00768021 -0.00033041
v 0.04600110 0.00704205 0.00086786
v 0.04600110 0.00768021 0.00085997
v 0.04600110 0.00893182 0.00085997
v 0.04600110 0.00957941 0.00086786
v 0.04796738 0.01014929 -0.00033041
v 0.04751610 0.00755776 -0.00033041
v 0.04600110 0.00703851 0.00151199
v 0.04598176 0.00768021 0.00151199
v 0.04798672 0.00668175 -0.00033041
v 0.04663934 0.00687132 0.00064684
v 0.04663934 0.00667822 0.00151199
v 0.04598176 0.00893182 0.00151199
v 0.04600110 0.00959001 0.00151199
v 0.04663934 0.01015047 0.00151199
v 0.04663934 0.00985258 0.00061842
v 0.04839932 0.01039420 -0.00033041
v 0.04600110 0.00704087 0.00276552
v 0.04598821 0.00768021 0.00276552
v 0.04598176 0.00893182 0.00276552
v 0.04914714 0.00634972 -0.00033041
v 0.04789002 0.00632263 0.00151199
v 0.04663934 0.00670412 0.00276552
v 0.04600755 0.00704793 0.00340491
v 0.04600110 0.00959001 0.00401589
v 0.04663934 0.01015518 0.00276552
v 0.04789002 0.01068385 0.00151199
v 0.04914714 0.01064852 -0.00033041
v 0.04599466 0.00880819 0.00414061
v 0.04600110 0.00768021 0.00371434
v 0.04600110 0.00957941 0.00465370
v 0.09158004 0.00173771 -0.00033041
v 0.04789002 0.00638033 0.00276552
v 0.09092246 0.00165765 0.00827693
v 0.09092246 0.00165765 0.01421933
v 0.04663934 0.00689840 0.00366225
v 0.04651040 0.00760368 0.00435689
v 0.04601400 0.00830661 0.00464265
v 0.04663934 0.01013516 0.00401589
v 0.04789002 0.01068738 0.00276552
v 0.08926564 0.01366393 0.01404409
v 0.10686542 0.01352146 -0.00033041
v 0.04600110 0.00914259 0.00465370
v 0.04651040 0.00880819 0.00488893
v 0.07472164 0.00969480 0.01472137
v 0.04663934 0.00983845 0.00481631
v 0.10522793 0.00173653 -0.00033041
v 0.10916693 0.00165765 0.00827693
v 0.08228374 0.00612365 0.01579650
v 0.04789002 0.00717392 0.00453529
v 0.10708461 0.00165765 0.01421933
v 0.04684563 0.00796751 0.00482263
v 0.07479255 0.00826069 0.01469138
v 0.04789002 0.01064970 0.00401589
v 0.08298645 0.01263367 0.01579808
v 0.08847913 0.01342609 0.01480189
v 0.08926564 0.01349084 0.01487925
v 0.09050342 0.01368512 0.01404409
v 0.10805808 0.01360034 0.00025689
v 0.10806453 0.01356973 -0.00033041
v 0.07471519 0.00893300 0.01472453
v 0.07547591 0.00893300 0.01495029
v 0.07672659 0.00893300 0.01518237
v 0.08243202 0.01247825 0.01579808
v 0.04789002 0.01008571 0.00497419
v 0.10886393 0.00173653 -0.00033041
v 0.10926364 0.00173653 0.00276710
v 0.10940547 0.00173653 0.00401589
v 0.10946993 0.00173653 0.00527099
v 0.10942481 0.00173653 0.00620087
v 0.10940547 0.00173653 0.00652294
v 0.11144910 0.00783917 0.00652452
v 0.11142976 0.00787096 0.00676764
v 0.11133951 0.00800401 0.00777962
v 0.10906378 0.00165765 0.00903157
v 0.10544712 0.00612365 0.01579650
v 0.08191627 0.01069562 0.01579808
v 0.08190983 0.00759897 0.01579650
v 0.10713619 0.00165765 0.01414355
v 0.11010172 0.00893300 0.01115340
v 0.10961821 0.00893300 0.01177543
v 0.10964399 0.01018579 0.01182121
v 0.10901866 0.01018579 0.01250166
v 0.08389545 0.01248532 0.01579808
v 0.10178534 0.01269254 0.01520447
v 0.10302957 0.01348849 0.01486504
v 0.10178534 0.01350144 0.01489188
v 0.09050342 0.01350144 0.01489188
v 0.10178534 0.01368512 0.01404409
v 0.11055944 0.01368630 0.00526941
v 0.10930232 0.01364391 0.00151041
v 0.10932166 0.01353088 0.00025689
v 0.10905089 0.01347200 -0.00033041
v 0.08160683 0.00893300 0.01579650
v 0.08161327 0.00919557 0.01579650
v 0.08192272 0.01079570 0.01579808
v 0.08230953 0.01212267 0.01579808
v 0.10958597 0.00893182 -0.00033041
v 0.10975359 0.00893182 -0.00013938
v 0.11020487 0.00893182 0.00048738
v 0.11078508 0.00893182 0.00151199
v 0.11113966 0.00893182 0.00227295
v 0.11126859 0.00813588 0.00312231
v 0.11137174 0.00795338 0.00401589
v 0.11144910 0.00782857 0.00527099
v 0.11177789 0.00893182 0.00527099
v 0.11175855 0.00893182 0.00652452
v 0.11168118 0.00875050 0.00676764
v 0.11172632 0.00893300 0.00676922
v 0.11156514 0.00893300 0.00777962
v 0.11124281 0.00818887 0.00856742
v 0.10883170 0.00165765 0.01014932
v 0.10542778 0.00619312 0.01579650
v 0.08524927 0.01069562 0.01579808
v 0.10901866 0.01069562 0.01250166
v 0.10901221 0.01144093 0.01249850
v 0.10830951 0.01144093 0.01312684
v 0.10825793 0.01269254 0.01307790
v 0.10763259 0.01269254 0.01355626
v 0.10747787 0.00165765 0.01351679
v 0.11061102 0.00893300 0.01028667
v 0.11014040 0.01018579 0.01119919
v 0.11068193 0.01018579 0.01028667
v 0.10985029 0.01069562 0.01156388
v 0.10964399 0.01069562 0.01181964
v 0.08488181 0.01124548 0.01579808
v 0.10518925 0.00630497 0.01579650
v 0.10430604 0.00663230 0.01579650
v 0.10302957 0.01269254 0.01514290
v 0.10429314 0.01361801 0.01404409
v 0.10302957 0.01367217 0.01404409
v 0.10429314 0.01343433 0.01478926
v 0.11055944 0.01368041 0.00652452
v 0.11141042 0.01350262 0.00526941
v 0.11055944 0.01365098 0.00401589
v 0.11027579 0.01349438 0.00151041
v 0.11006949 0.01342844 0.00067525
v 0.10936679 0.01301045 -0.00033041
v 0.10965689 0.01018461 -0.00033041
v 0.10979227 0.01018461 -0.00018516
v 0.11023711 0.01018461 0.00044318
v 0.11084955 0.01018461 0.00151199
v 0.11117834 0.01018461 0.00218612
v 0.11134595 0.00893182 0.00289971
v 0.11161672 0.00893182 0.00401589
v 0.11184236 0.01018461 0.00527099
v 0.11181657 0.01018461 0.00652452
v 0.11177789 0.01018579 0.00676922
v 0.11161672 0.01018579 0.00777962
v 0.11132661 0.01018579 0.00879476
v 0.11128793 0.00893300 0.00872213
v 0.11105585 0.00893300 0.00934890
v 0.10789691 0.00165765 0.01254586
v 0.10832885 0.00165765 0.01153704
v 0.10863829 0.00165765 0.01077766
v 0.10504742 0.01336721 0.01471664
v 0.10429314 0.01269254 0.01497397
v 0.10680740 0.01269254 0.01399357
v 0.10581459 0.01269254 0.01448140
v 0.10896064 0.01269254 0.01244956
v 0.10963755 0.01144093 0.01181490
v 0.10959242 0.01269254 0.01176912
v 0.10753589 0.01338252 0.01348837
v 0.10883814 0.01342491 0.01232484
v 0.11110098 0.01018579 0.00942152
v 0.11014040 0.01069562 0.01119445
v 0.11068193 0.01069562 0.01028667
v 0.11013396 0.01144093 0.01118972
v 0.10549870 0.01349555 0.01406304
v 0.10680740 0.01345788 0.01365098
v 0.10680740 0.01363449 0.01279214
v 0.10930876 0.01364744 0.01028509
v 0.10528595 0.01343433 0.01437405
v 0.11055944 0.01365804 0.00710549
v 0.11140397 0.01349791 0.00652452
v 0.11171987 0.01269254 0.00526941
v 0.11135240 0.01346612 0.00401589
v 0.11126215 0.01339312 0.00311600
v 0.11111387 0.01269254 0.00226821
v 0.11072706 0.01269254 0.00151041
v 0.11018553 0.01269254 0.00051422
v 0.10971491 0.01269254 -0.00011254
v 0.10951506 0.01269254 -0.00033041
v 0.10965689 0.01069444 -0.00033041
v 0.10977938 0.01143976 -0.00017411
v 0.11023066 0.01143976 0.00045265
v 0.11083666 0.01143976 0.00151041
v 0.11117834 0.01143976 0.00218612
v 0.11136529 0.01018461 0.00281288
v 0.11167474 0.01018461 0.00401589
v 0.11182302 0.01069444 0.00601458
v 0.11167474 0.01143976 0.00401589
v 0.11182302 0.01143976 0.00526941
v 0.11180368 0.01143976 0.00652452
v 0.11161027 0.01144093 0.00777962
v 0.11161672 0.01069562 0.00777962
v 0.11132661 0.01069562 0.00879318
v 0.11010172 0.01269254 0.01114393
v 0.11003080 0.01340018 0.01103816
v 0.10799361 0.01349438 0.01276215
v 0.10927653 0.01350380 0.01148810
v 0.11110098 0.01069562 0.00941994
v 0.11110098 0.01144093 0.00941678
v 0.11066904 0.01144093 0.01028509
v 0.11019198 0.01347200 0.01028509
v 0.11055944 0.01362978 0.00777962
v 0.11132661 0.01344610 0.00777962
v 0.11170053 0.01269254 0.00652452
v 0.11159738 0.01269254 0.00401589
v 0.11132661 0.01269254 0.00289655
v 0.10963755 0.01143976 -0.00033041
v 0.11135240 0.01143976 0.00281288
v 0.11136529 0.01069444 0.00281288
v 0.11162961 0.01269254 0.00710549
v 0.11153936 0.01269254 0.00777962
v 0.11129438 0.01269254 0.00871108
v 0.11132661 0.01144093 0.00879002
v 0.11055944 0.01269254 0.01028509
v 0.11102361 0.01269254 0.00933942
v 0.11124281 0.01337428 0.00856110
f 1 2 8
f 1 8 19
f 1 19 30
f 1 30 44
f 1 44 62
f 1 62 95
f 1 95 140
f 1 140 185
f 1 185 213
f 1 213 186
f 1 186 141
f 1 141 100
f 1 100 68
f 1 68 49
f 1 49 34
f 1 34 23
f 1 23 12
f 1 12 9
f 1 9 3
f 1 3 4
f 1 4 5
f 1 5 6
f 1 6 2
f 2 6 7
f 2 7 8
f 3 9 4
f 4 10 11
f 4 11 5
f 4 9 12
f 4 12 13
f 4 13 14
f 4 14 10
f 5 11 15
f 5 15 6
f 6 15 7
f 7 15 16
f 7 16 17
f 7 17 18
f 7 18 8
f 8 18 19
f 10 20 11
f 10 14 20
f 11 20 21
f 11 21 22
f 11 22 15
f 12 23 14
f 12 14 13
f 14 23 24
f 14 24 25
f 14 25 26
f 14 26 20
f 15 22 27
f 15 27 16
f 16 27 28
f 16 28 17
f 17 28 29
f 17 29 19
f 17 19 18
f 19 29 30
f 20 26 21
f 21 31 22
f 21 26 32
f 21 32 31
f 22 31 33
f 22 33 27
f 23 34 24
f 24 35 25
f 24 34 36
f 24 36 37
f 24 37 35
f 25 35 38
f 25 38 26
f 26 39 40
f 26 40 32
f 26 38 39
f 27 33 41
f 27 41 28
f 28 41 42
f 28 42 29
f 29 42 43
f 29 43 30
f 30 43 44
f 31 32 45
f 31 45 33
f 32 40 45
f 33 45 46
f 33 46 47
f 33 47 48
f 33 48 41
f 34 49 36
f 35 37 38
f 36 49 68
f 36 68 50
f 36 50 77
f 36 77 114
f 36 114 157
f 36 157 156
f 36 156 155
f 36 155 122
f 36 122 81
f 36 81 53
f 36 53 37
f 37 51 52
f 37 52 38
f 37 53 78
f 37 78 51
f 38 52 39
f 39 54 40
f 39 52 54
f 40 54 55
f 40 55 46
f 40 46 45
f 41 48 56
f 41 56 42
f 42 56 43
f 43 57 58
f 43 58 59
f 43 59 60
f 43 60 61
f 43 61 62
f 43 62 44
f 43 56 57
f 46 55 63
f 46 63 47
f 47 63 64
f 47 64 65
f 47 65 66
f 47 66 48
f 48 67 56
f 48 66 67
f 50 68 69
f 50 69 70
f 50 70 71
f 50 71 72
f 50 72 73
f 50 73 74
f 50 74 75
f 50 75 76
f 50 76 77
f 51 78 116
f 51 116 79
f 51 79 80
f 51 80 65
f 51 65 64
f 51 64 55
f 51 55 54
f 51 54 52
f 53 81 82
f 53 82 83
f 53 83 84
f 53 84 85
f 53 85 78
f 55 64 63
f 56 67 57
f 57 66 99
f 57 99 98
f 57 98 79
f 57 79 116
f 57 116 128
f 57 128 86
f 57 86 87
f 57 87 88
f 57 88 89
f 57 89 90
f 57 90 59
f 57 59 58
f 57 67 66
f 59 90 60
f 60 90 89
f 60 89 91
f 60 91 92
f 60 92 93
f 60 93 61
f 61 93 62
f 62 93 94
f 62 94 95
f 65 96 97
f 65 97 98
f 65 98 99
f 65 99 66
f 65 80 96
f 68 100 101
f 68 101 102
f 68 102 103
f 68 103 104
f 68 104 105
f 68 105 106
f 68 106 69
f 69 106 70
f 70 106 107
f 70 107 71
f 71 107 74
f 71 74 72
f 72 74 73
f 74 107 108
f 74 108 109
f 74 109 110
f 74 110 75
f 75 110 76
f 76 110 111
f 76 111 112
f 76 112 113
f 76 113 77
f 77 113 114
f 78 115 116
f 78 85 117
f 78 117 118
f 78 118 119
f 78 119 120
f 78 120 121
f 78 121 115
f 79 98 97
f 79 97 96
f 79 96 80
f 81 122 123
f 81 123 82
f 82 124 83
f 82 123 125
f 82 125 124
f 83 124 84
f 84 124 126
f 84 126 127
f 84 127 117
f 84 117 85
f 86 128 115
f 86 115 129
f 86 129 130
f 86 130 87
f 87 130 129
f 87 129 131
f 87 131 88
f 88 132 133
f 88 133 89
f 88 131 134
f 88 134 132
f 89 133 91
f 91 133 135
f 91 135 92
f 92 135 136
f 92 136 137
f 92 137 93
f 93 137 138
f 93 138 94
f 94 138 139
f 94 139 95
f 95 139 140
f 100 141 142
f 100 142 101
f 101 142 102
f 102 142 143
f 102 143 144
f 102 144 103
f 103 144 145
f 103 145 104
f 104 145 146
f 104 146 105
f 105 146 147
f 105 147 106
f 106 147 108
f 106 108 107
f 108 148 109
f 108 147 148
f 109 111 110
f 109 148 149
f 109 149 111
f 111 149 150
f 111 150 151
f 111 151 112
f 112 151 152
f 112 152 153
f 112 153 113
f 113 153 154
f 113 154 122
f 113 122 155
f 113 155 156
f 113 156 157
f 113 157 114
f 115 158 159
f 115 159 131
f 115 131 129
f 115 128 116
f 115 121 160
f 115 160 161
f 115 161 158
f 117 127 118
f 118 162 120
f 118 120 119
f 118 127 163
f 118 163 164
f 118 164 162
f 120 165 121
f 120 162 166
f 120 166 165
f 121 165 160
f 122 154 123
f 123 154 167
f 123 167 125
f 124 168 126
f 124 125 169
f 124 169 168
f 125 167 169
f 126 163 127
f 126 168 170
f 126 170 163
f 131 159 158
f 131 158 134
f 132 134 171
f 132 171 172
f 132 172 173
f 132 173 133
f 133 173 174
f 133 174 135
f 134 158 175
f 134 175 171
f 135 176 177
f 135 177 136
f 135 174 176
f 136 177 178
f 136 178 179
f 136 179 137
f 137 179 138
f 138 179 180
f 138 180 139
f 139 180 181
f 139 181 182
f 139 182 183
f 139 183 184
f 139 184 140
f 140 184 185
f 141 186 142
f 142 186 187
f 142 187 188
f 142 188 143
f 143 188 144
f 144 188 189
f 144 189 190
f 144 190 145
f 145 190 215
f 145 215 191
f 145 191 146
f 146 191 192
f 146 192 147
f 147 192 148
f 148 193 149
f 148 192 194
f 148 194 195
f 148 195 196
f 148 196 193
f 149 193 196
f 149 196 197
f 149 197 198
f 149 198 150
f 150 198 151
f 151 198 152
f 152 199 204
f 152 204 167
f 152 167 153
f 152 198 199
f 153 167 154
f 158 161 160
f 158 160 165
f 158 165 172
f 158 172 175
f 162 164 166
f 163 170 200
f 163 200 164
f 164 200 201
f 164 201 166
f 165 166 202
f 165 202 172
f 166 201 203
f 166 203 202
f 167 204 169
f 168 169 170
f 169 204 205
f 169 205 206
f 169 206 170
f 170 206 200
f 171 175 172
f 172 202 173
f 173 202 203
f 173 203 174
f 174 203 207
f 174 207 208
f 174 208 176
f 176 208 177
f 177 209 210
f 177 210 178
f 177 208 209
f 178 210 196
f 178 196 195
f 178 195 211
f 178 211 179
f 179 211 180
f 180 211 212
f 180 212 181
f 181 189 182
f 181 212 190
f 181 190 189
f 182 189 183
f 183 188 187
f 183 187 184
f 183 189 188
f 184 187 213
f 184 213 185
f 186 213 187
f 190 212 214
f 190 214 215
f 191 215 194
f 191 194 192
f 194 215 214
f 194 214 212
f 194 212 211
f 194 211 195
f 196 210 216
f 196 216 217
f 196 217 197
f 197 217 218
f 197 218 219
f 197 219 198
f 198 219 199
f 199 219 205
f 199 205 204
f 200 206 220
f 200 220 201
f 201 220 221
f 201 221 222
f 201 222 207
f 201 207 203
f 205 221 220
f 205 220 206
f 205 219 218
f 205 218 221
f 207 222 209
f 207 209 208
f 209 222 216
f 209 216 210
f 216 222 217
f 217 222 218
f 218 222 221

