# https://github.com/mikedh/trimesh
v 0.02972918 0.00950495 -0.00672084
v 0.02971858 0.00949975 0.00059692
v 0.02972918 0.01164600 -0.00672084
v 0.04055566 0.00869418 -0.00672084
v 0.02971858 0.00949888 0.00307195
v 0.02971858 0.01164600 0.00059692
v 0.04055566 0.01164600 -0.00672084
v 0.04055566 0.00870400 0.00059692
v 0.02971858 0.01164600 0.00307195
v 0.03965399 0.00964219 0.00307195
v 0.04055566 0.01164600 0.00059692
v 0.03965399 0.01164600 0.00307195
f 1 2 6
f 1 6 3
f 1 3 7
f 1 7 4
f 1 4 2
f 2 5 9
f 2 9 6
f 2 4 5
f 3 6 9
f 3 9 12
f 3 12 11
f 3 11 7
f 4 7 11
f 4 11 8
f 4 8 5
f 5 8 10
f 5 10 12
f 5 12 9
f 8 11 12
f 8 12 10

