# https://github.com/mikedh/trimesh
v 0.04565919 -0.00026296 0.00468077
v 0.04565919 -0.00026296 0.00396002
v 0.04565711 -0.00026296 0.00540038
v 0.05325715 -0.00860859 0.00663037
v 0.04565086 -0.00026296 0.00307254
v 0.04561751 -0.00026296 0.00611943
v 0.05017419 -0.00686481 0.00886577
v 0.05325715 -0.00896738 0.00697344
v 0.05325715 -0.01084709 0.00663037
v 0.04845658 -0.00629878 0.00307254
v 0.04532985 -0.00026296 0.00663037
v 0.04433555 -0.00026296 0.00307254
v 0.04946547 -0.00613387 0.00886577
v 0.05058067 -0.00840357 0.00886577
v 0.05325715 -0.00899746 0.00699499
v 0.05325715 -0.00899078 0.00699159
v 0.04845658 -0.01109223 0.00307254
v 0.05325715 -0.01084709 0.00699499
v 0.05058067 -0.01117691 0.00699499
v 0.04786875 -0.01151006 0.00468077
v 0.04845658 -0.01143764 0.00468077
v 0.04745185 -0.01155352 0.00396002
v 0.04685777 -0.01161034 0.00307254
v 0.04721631 -0.01156243 0.00307254
v 0.04731219 -0.01154795 0.00307254
v 0.03870952 -0.00026296 0.00663037
v 0.04757484 -0.00552773 0.00886577
v 0.04829815 -0.00555781 0.00886577
v 0.04900271 -0.00567258 0.00886577
v 0.04261585 -0.00026296 0.00350239
v 0.03560572 -0.00978077 0.00307254
v 0.05058067 -0.01116577 0.00886577
v 0.05045768 -0.01118248 0.00886577
v 0.05058067 -0.01117357 0.00827942
v 0.04750397 -0.01155463 0.00827942
v 0.04786875 -0.01151006 0.00663037
v 0.04750397 -0.01155463 0.00699499
v 0.04750813 -0.01155352 0.00468077
v 0.04685777 -0.01161703 0.00396002
v 0.04613863 -0.01164600 0.00307254
v 0.03853651 -0.00026296 0.00659067
v 0.03196204 -0.00303296 0.00663037
v 0.03196204 -0.00975403 0.00886577
v 0.04122132 -0.00637344 0.00886577
v 0.04182374 -0.00622747 0.00886577
v 0.04685569 -0.00552773 0.00886577
v 0.03894090 -0.00026296 0.00454013
v 0.03560572 -0.01164600 0.00307254
v 0.03560572 -0.00468091 0.00441197
v 0.04901730 -0.01136410 0.00886577
v 0.04749354 -0.01155352 0.00886577
v 0.04685569 -0.01161592 0.00886577
v 0.04685569 -0.01161703 0.00827942
v 0.04685986 -0.01161814 0.00683962
v 0.04685986 -0.01161814 0.00663037
v 0.04613863 -0.01164600 0.00683962
v 0.03847397 -0.00026296 0.00657593
v 0.03560572 -0.00396111 0.00462406
v 0.03196204 -0.01164600 0.00663037
v 0.03835099 -0.00026296 0.00618181
v 0.03833223 -0.00026296 0.00611943
v 0.03831347 -0.00026296 0.00549849
v 0.03831138 -0.00026296 0.00540038
v 0.03845313 -0.00026296 0.00485769
v 0.03196204 -0.01164489 0.00886577
v 0.04613446 -0.01164489 0.00886577
v 0.03196204 -0.01164600 0.00683962
f 1 2 5
f 1 5 12
f 1 12 30
f 1 30 47
f 1 47 64
f 1 64 63
f 1 63 62
f 1 62 61
f 1 61 60
f 1 60 57
f 1 57 41
f 1 41 26
f 1 26 11
f 1 11 6
f 1 6 3
f 1 3 4
f 1 4 2
f 2 4 5
f 3 6 4
f 4 7 8
f 4 8 16
f 4 16 15
f 4 15 18
f 4 18 9
f 4 9 17
f 4 17 10
f 4 10 5
f 4 6 11
f 4 11 7
f 5 10 17
f 5 17 25
f 5 25 24
f 5 24 23
f 5 23 40
f 5 40 48
f 5 48 31
f 5 31 12
f 7 13 29
f 7 29 28
f 7 28 27
f 7 27 46
f 7 46 45
f 7 45 44
f 7 44 43
f 7 43 65
f 7 65 66
f 7 66 52
f 7 52 51
f 7 51 50
f 7 50 33
f 7 33 32
f 7 32 14
f 7 14 15
f 7 15 16
f 7 16 8
f 7 11 13
f 9 18 19
f 9 19 20
f 9 20 21
f 9 21 22
f 9 22 23
f 9 23 24
f 9 24 25
f 9 25 17
f 11 26 46
f 11 46 27
f 11 27 28
f 11 28 29
f 11 29 13
f 12 31 30
f 14 32 18
f 14 18 15
f 18 32 33
f 18 33 34
f 18 34 35
f 18 35 19
f 19 35 36
f 19 36 20
f 20 36 35
f 20 35 37
f 20 37 38
f 20 38 22
f 20 22 21
f 22 38 23
f 23 38 39
f 23 39 40
f 26 41 42
f 26 42 43
f 26 43 44
f 26 44 45
f 26 45 46
f 30 31 47
f 31 48 59
f 31 59 42
f 31 42 49
f 31 49 47
f 33 50 34
f 34 50 51
f 34 51 35
f 35 51 52
f 35 52 53
f 35 53 54
f 35 54 55
f 35 55 37
f 37 55 38
f 38 55 39
f 39 55 40
f 40 56 67
f 40 67 59
f 40 59 48
f 40 55 54
f 40 54 56
f 41 57 42
f 42 58 49
f 42 59 67
f 42 67 65
f 42 65 43
f 42 57 60
f 42 60 61
f 42 61 62
f 42 62 63
f 42 63 64
f 42 64 47
f 42 47 58
f 47 49 58
f 52 66 53
f 53 66 54
f 54 66 56
f 56 66 65
f 56 65 67

