# https://github.com/mikedh/trimesh
v -0.00676116 0.01006813 0.00167623
v -0.00676116 0.01006813 -0.00167512
v -0.00683076 0.01006813 0.00167623
v -0.00604414 0.01006743 0.00368288
v -0.00598687 0.01006743 0.00356643
v -0.00650379 0.01006743 -0.00249441
v -0.00683076 0.01006813 -0.00167512
v -0.00680974 0.01006672 0.00193408
v -0.00655671 0.01006743 0.00249553
v -0.00707436 0.01006813 0.00012983
v -0.00706784 0.01006743 0.00038768
v -0.00706059 0.01006531 0.00064553
v -0.00576139 0.01006250 0.00415006
v -0.00565119 0.01006461 0.00423185
v -0.00563379 0.01006461 0.00423185
v -0.00655019 0.01006602 0.00270832
v -0.00629644 0.01006602 0.00322402
v -0.00626381 0.01006038 0.00335918
v -0.00613042 0.01004208 0.00375636
v -0.00613187 0.01001250 0.00399688
v -0.00644869 0.01006461 -0.00284792
v -0.00650306 0.01006602 -0.00270721
v -0.00655671 0.01006743 -0.00249441
v -0.00706059 0.01006531 -0.00064372
v -0.00707436 0.01006813 -0.00012802
v -0.00680974 0.01006672 -0.00193366
v -0.00678654 0.01006179 0.00209697
v -0.00704681 0.01006250 0.00090268
v -0.00703666 0.01005968 0.00104547
v -0.00716354 0.01001673 0.00141838
v -0.00716354 0.01000405 0.00167623
v -0.00716354 0.00998856 0.00193408
v -0.00742091 0.00998927 0.00012983
v -0.00742091 0.00998223 0.00064553
v -0.00742091 0.00997659 0.00090268
v -0.00717659 0.01003292 0.00090268
v -0.00707799 0.01005686 0.00084585
v -0.00584622 0.01003574 0.00423185
v -0.01183469 0.00373942 0.00423255
v -0.01016937 0.00373942 0.00423255
v -0.00560769 0.01004701 0.00423185
v -0.00690544 0.01001110 0.00245047
v -0.00667924 0.01003856 0.00270832
v -0.00652264 0.01006038 0.00284557
v -0.00664734 0.00999701 0.00322402
v -0.00636604 0.01002870 0.00345969
v -0.00638924 0.00999208 0.00373972
v -0.00638924 0.00996251 0.00399688
v -0.00613187 0.00998152 0.00423185
v -0.00646826 0.01006461 -0.00284792
v -0.00547139 0.00994491 0.00423185
v -0.00634719 0.00998645 -0.00284792
v -0.01065439 0.00373942 -0.00284861
v -0.00655019 0.01006602 -0.00270721
v -0.00704681 0.01006250 -0.00090226
v -0.00742091 0.00997659 -0.00090226
v -0.00742091 0.00998223 -0.00064372
v -0.00742091 0.00998927 -0.00012802
v -0.00678654 0.01006179 -0.00209586
v -0.00716354 0.00998856 -0.00193366
v -0.00716354 0.01000405 -0.00167512
v -0.00716354 0.01001673 -0.00141727
v -0.00703594 0.01005968 -0.00104158
v -0.00716354 0.00997237 0.00219262
v -0.00716354 0.00995476 0.00245047
v -0.00713961 0.01003292 0.00114320
v -0.00742091 0.00995829 0.00141838
v -0.00742091 0.00994561 0.00167623
v -0.00767973 0.00992519 0.00012983
v -0.00767973 0.00991674 0.00064553
v -0.00767973 0.00990970 0.00090268
v -0.00742091 0.00996814 0.00116053
v -0.01043110 0.00673690 0.00423185
v -0.01054782 0.00655664 0.00423185
v -0.01068702 0.00632146 0.00423185
v -0.01069137 0.00631371 0.00423185
v -0.01070152 0.00629541 0.00423185
v -0.01083347 0.00605600 0.00423185
v -0.01097847 0.00579195 0.00423185
v -0.01110824 0.00555537 0.00423185
v -0.01113289 0.00550819 0.00423185
v -0.01120467 0.00536032 0.00423185
v -0.01123294 0.00529836 0.00423185
v -0.01156717 0.00451607 0.00423185
v -0.01157732 0.00449143 0.00423185
v -0.01165417 0.00429779 0.00423185
v -0.01167737 0.00423090 0.00423185
v -0.01171507 0.00411754 0.00423185
v -0.01174842 0.00401332 0.00423185
v -0.01195721 0.00420274 0.00342295
v -0.01215804 0.00349086 0.00348880
v -0.01199274 0.00323104 0.00423255
v -0.00638924 0.00992942 0.00423185
v -0.00666329 0.00985548 0.00423185
v -0.00674014 0.00983225 0.00423185
v -0.00686121 0.00979282 0.00423185
v -0.00714396 0.00969494 0.00423185
v -0.00716136 0.00968860 0.00423185
v -0.00742163 0.00958298 0.00423185
v -0.00742598 0.00958087 0.00423185
v -0.00765726 0.00946751 0.00423185
v -0.00793638 0.00932527 0.00423185
v -0.00817056 0.00918515 0.00423185
v -0.00829091 0.00910559 0.00423185
v -0.00839603 0.00903376 0.00423185
v -0.00865413 0.00884858 0.00423185
v -0.00869038 0.00882112 0.00423185
v -0.00879913 0.00873521 0.00423185
v -0.00891440 0.00862678 0.00423185
v -0.00917323 0.00837188 0.00423185
v -0.00921528 0.00833034 0.00423185
v -0.00932258 0.00821838 0.00423185
v -0.00943205 0.00808882 0.00423185
v -0.00956038 0.00793321 0.00423185
v -0.00967782 0.00778886 0.00423185
v -0.00980905 0.00762199 0.00423185
v -0.00985907 0.00755650 0.00423185
v -0.00995767 0.00741920 0.00423185
v -0.01000407 0.00735371 0.00423185
v -0.01045140 0.00287545 0.00423255
v -0.00544239 0.00920416 0.00423185
v -0.00538512 0.00941470 0.00423185
v -0.00538512 0.00945906 0.00423185
v -0.00538584 0.00967241 0.00423185
v -0.00538729 0.00969917 0.00423185
v -0.00543732 0.00989843 0.00423185
v -0.00690544 0.00998997 0.00270832
v -0.00690544 0.00996744 0.00296617
v -0.00662414 0.01002940 0.00294538
v -0.00664734 0.00996885 0.00348118
v -0.00690544 0.00994209 0.00322402
v -0.00664734 0.00993857 0.00373972
v -0.00664734 0.00990266 0.00399688
v -0.01223851 0.00373942 -0.00284861
v -0.00651974 0.01006038 -0.00284792
v -0.00652264 0.01006038 -0.00284445
v -0.00629354 0.00992378 -0.00284792
v -0.01074429 0.00287545 -0.00284861
v -0.00624786 0.00984915 -0.00284792
v -0.00623481 0.00967241 -0.00284792
v -0.00623409 0.00947173 -0.00284792
v -0.00623481 0.00941470 -0.00284792
v -0.00623989 0.00929640 -0.00284792
v -0.00667851 0.01003856 -0.00270721
v -0.00690544 0.01001110 -0.00244936
v -0.00742091 0.00996744 -0.00115942
v -0.00767973 0.00990900 -0.00090226
v -0.00767973 0.00991674 -0.00064372
v -0.00767973 0.00992519 -0.00012802
v -0.00716354 0.00995476 -0.00244936
v -0.00716354 0.00997237 -0.00219151
v -0.00742091 0.00994561 -0.00167512
v -0.00742091 0.00995758 -0.00141727
v -0.00742091 0.00992801 0.00193408
v -0.00742091 0.00990618 0.00219262
v -0.00742091 0.00988365 0.00245047
v -0.00716354 0.00993153 0.00270832
v -0.00767973 0.00989773 0.00116053
v -0.00767973 0.00988435 0.00141838
v -0.00767973 0.00986886 0.00167623
v -0.00792406 0.00984703 0.00012983
v -0.00790883 0.00984140 0.00064553
v -0.00790013 0.00983788 0.00084585
v -0.00789796 0.00983647 0.00090268
v -0.01065947 0.00672915 0.00365100
v -0.01062684 0.00667916 0.00382290
v -0.01064715 0.00645524 0.00413551
v -0.01088132 0.00641229 0.00355326
v -0.01097412 0.00629541 0.00347494
v -0.01116479 0.00568352 0.00388251
v -0.01117929 0.00545468 0.00418264
v -0.01140984 0.00539905 0.00358792
v -0.01168534 0.00492376 0.00337929
v -0.01171942 0.00476956 0.00347217
v -0.01169984 0.00444144 0.00393796
v -0.01167012 0.00436961 0.00410986
v -0.01193039 0.00437454 0.00333700
v -0.01169984 0.00419781 0.00419927
v -0.01220951 0.00341059 0.00340632
v -0.01218124 0.00331765 0.00357891
v -0.01223634 0.00322893 0.00348880
v -0.01220589 0.00314584 0.00365516
v -0.01206089 0.00296558 0.00423255
v -0.00690544 0.00986957 0.00373972
v -0.00681699 0.00981535 0.00419373
v -0.00698881 0.00978577 0.00404401
v -0.00713889 0.00974775 0.00397331
v -0.00742091 0.00969283 0.00373972
v -0.00742091 0.00963791 0.00399688
v -0.00759273 0.00956468 0.00399688
v -0.00755503 0.00954637 0.00413551
v -0.00806833 0.00928725 0.00413135
v -0.00823146 0.00922740 0.00399688
v -0.00836993 0.00906052 0.00421106
v -0.00854973 0.00900630 0.00399688
v -0.00883103 0.00876267 0.00410639
v -0.00842213 0.00909854 0.00399688
v -0.00929575 0.00845356 0.00373972
v -0.00934868 0.00824725 0.00411125
v -0.00912538 0.00854087 0.00393865
v -0.00959155 0.00823035 0.00355950
v -0.00966115 0.00805714 0.00373972
v -0.00986922 0.00799658 0.00335225
v -0.00986850 0.00773676 0.00386518
v -0.00989895 0.00751989 0.00420066
v -0.01013675 0.00749313 0.00363367
v -0.01030277 0.00733893 0.00347979
v -0.01017010 0.00287545 0.00116539
v -0.00552432 0.00908728 0.00423185
v -0.00545834 0.00917741 0.00423185
v -0.01207901 0.00287545 0.00423255
v -0.00632254 0.00912741 -0.00284792
v -0.00624786 0.00925979 -0.00284792
v -0.00716354 0.00990196 0.00296617
v -0.00716354 0.00986957 0.00322402
v -0.00690544 0.00990970 0.00348118
v -0.01231899 0.00348312 -0.00284861
v -0.01207684 0.00425695 -0.00284792
v -0.01203479 0.00437525 -0.00284792
v -0.01198476 0.00451396 -0.00284792
v -0.01193691 0.00463155 -0.00284792
v -0.01183977 0.00485969 -0.00284792
v -0.01164184 0.00532089 -0.00284792
v -0.01154252 0.00554621 -0.00284792
v -0.01145044 0.00573562 -0.00284792
v -0.01133807 0.00594123 -0.00284792
v -0.01106329 0.00643835 -0.00284792
v -0.01098282 0.00658340 -0.00284792
v -0.01090814 0.00671648 -0.00284792
v -0.01082622 0.00683970 -0.00284792
v -0.01069354 0.00703615 -0.00284792
v -0.01038615 0.00748046 -0.00284792
v -0.01029915 0.00760438 -0.00284792
v -0.01016720 0.00779098 -0.00284792
v -0.01006715 0.00791983 -0.00284792
v -0.00993012 0.00809375 -0.00284792
v -0.00983442 0.00821205 -0.00284792
v -0.00970610 0.00834935 -0.00284792
v -0.00958140 0.00847891 -0.00284792
v -0.00945235 0.00861199 -0.00284792
v -0.00932403 0.00874155 -0.00284792
v -0.00920440 0.00884083 -0.00284792
v -0.00903113 0.00897743 -0.00284792
v -0.00890208 0.00907601 -0.00284792
v -0.00879405 0.00915417 -0.00284792
v -0.00871358 0.00921120 -0.00284792
v -0.00859395 0.00929359 -0.00284792
v -0.00810386 0.00956397 -0.00284792
v -0.00794798 0.00963227 -0.00284792
v -0.00779718 0.00969494 -0.00284792
v -0.00767393 0.00974282 -0.00284792
v -0.00753256 0.00979493 -0.00284792
v -0.00740931 0.00983929 -0.00284792
v -0.00729549 0.00987590 -0.00284792
v -0.00716354 0.00991533 -0.00284792
v -0.00702361 0.00995124 -0.00284792
v -0.00690544 0.00997730 -0.00284792
v -0.00690544 0.00998997 -0.00270721
v -0.01023172 0.00287545 -0.00143875
v -0.01247341 0.00287545 -0.00284861
v -0.00637981 0.00904221 -0.00284792
v -0.00767973 0.00989773 -0.00115942
v -0.00789796 0.00983647 -0.00090226
v -0.00790883 0.00984140 -0.00064372
v -0.00792406 0.00984703 -0.00012802
v -0.00716354 0.00993153 -0.00270721
v -0.00742091 0.00988365 -0.00244936
v -0.00742091 0.00990618 -0.00219151
v -0.00742091 0.00992801 -0.00193366
v -0.00767973 0.00986886 -0.00167512
v -0.00767973 0.00988435 -0.00141727
v -0.00769713 0.00984140 0.00193062
v -0.00763986 0.00983506 0.00219262
v -0.00760216 0.00982168 0.00245047
v -0.00744121 0.00984633 0.00271803
v -0.00787983 0.00982943 0.00116053
v -0.00785808 0.00982098 0.00141838
v -0.00783561 0.00981183 0.00167623
v -0.00781893 0.00980549 0.00184259
v -0.00819521 0.00974001 0.00012983
v -0.00819521 0.00972874 0.00064553
v -0.00819521 0.00972240 0.00084585
v -0.00802701 0.00978648 0.00090268
v -0.00792913 0.00982661 0.00084585
v -0.00800961 0.00977944 0.00116053
v -0.01040065 0.00724528 0.00339176
v -0.01060220 0.00690448 0.00348118
v -0.01069064 0.00677562 0.00348118
v -0.01082404 0.00656368 0.00347217
v -0.01091177 0.00646862 0.00338137
v -0.01117929 0.00596799 0.00340632
v -0.01123294 0.00581660 0.00348811
v -0.01137142 0.00554833 0.00349435
v -0.01143957 0.00546383 0.00341602
v -0.01148307 0.00530259 0.00349435
v -0.01157007 0.00528850 0.00322402
v -0.01170564 0.00497094 0.00322402
v -0.01182382 0.00451537 0.00348118
v -0.01189631 0.00451326 0.00323996
v -0.01195069 0.00442665 0.00316580
v -0.01219719 0.00439919 0.00208588
v -0.01205074 0.00425695 0.00296617
v -0.01198331 0.00427596 0.00323996
v -0.01217616 0.00381969 0.00302162
v -0.01220299 0.00364718 0.00314292
v -0.01215659 0.00373942 0.00321917
v -0.01218269 0.00358310 0.00331482
v -0.01231101 0.00322470 0.00322402
v -0.01230231 0.00296699 0.00348118
v -0.01217834 0.00303036 0.00382706
v -0.01206234 0.00295854 0.00423255
v -0.00716716 0.00983225 0.00346246
v -0.00707291 0.00981464 0.00373972
v -0.00690326 0.00982802 0.00397331
v -0.00720196 0.00977028 0.00373972
v -0.00767973 0.00963861 0.00348118
v -0.00768481 0.00958721 0.00372378
v -0.00725634 0.00978859 0.00353524
v -0.00739843 0.00975057 0.00346246
v -0.00777471 0.00952665 0.00379933
v -0.00772178 0.00949990 0.00399688
v -0.00793783 0.00939076 0.00399688
v -0.00810241 0.00930556 0.00399688
v -0.00829163 0.00926613 0.00373972
v -0.00857873 0.00902602 0.00386379
v -0.00873098 0.00886829 0.00401143
v -0.00910870 0.00878028 0.00338275
v -0.00907173 0.00874789 0.00355534
v -0.00922035 0.00863734 0.00347147
v -0.00916670 0.00858171 0.00373972
v -0.00847650 0.00913023 0.00376190
v -0.00865848 0.00908446 0.00348118
v -0.00936825 0.00852609 0.00338760
v -0.00947990 0.00837963 0.00347355
v -0.00962562 0.00826838 0.00338760
v -0.00979745 0.00811769 0.00324967
v -0.00989460 0.00802686 0.00318035
v -0.01000262 0.00787125 0.00323373
v -0.01010920 0.00771282 0.00328779
v -0.00994535 0.00783393 0.00348118
v -0.01007440 0.00766423 0.00348118
v -0.01016575 0.00753538 0.00348118
v -0.01015052 0.00287545 -0.00116843
v -0.01220081 0.00287545 0.00385478
v -0.00737958 0.00983295 0.00296617
v -0.00732593 0.00981394 0.00322402
v -0.00729694 0.00980338 0.00336265
v -0.01222184 0.00425625 -0.00217903
v -0.01219501 0.00387954 -0.00284792
v -0.01239366 0.00322540 -0.00284861
v -0.01243934 0.00331342 -0.00252907
v -0.01245746 0.00337890 -0.00235717
v -0.01247559 0.00343594 -0.00219220
v -0.01219719 0.00439919 -0.00208476
v -0.01213846 0.00449706 -0.00217903
v -0.01207176 0.00451537 -0.00244936
v -0.01202391 0.00477308 -0.00219151
v -0.01193401 0.00464422 -0.00283821
v -0.01171217 0.00550256 -0.00219151
v -0.01197026 0.00477449 -0.00242926
v -0.01165634 0.00563071 -0.00219151
v -0.01167302 0.00566803 -0.00204179
v -0.01156644 0.00580392 -0.00219151
v -0.01143449 0.00596235 -0.00238905
v -0.01114739 0.00642567 -0.00252214
v -0.01111404 0.00662494 -0.00219151
v -0.01097629 0.00685378 -0.00219567
v -0.01091467 0.00698334 -0.00211249
v -0.01087262 0.00692067 -0.00244936
v -0.01039195 0.00774732 -0.00208615
v -0.01029552 0.00784731 -0.00217973
v -0.01013530 0.00800644 -0.00234608
v -0.00987212 0.00825641 -0.00258521
v -0.00984747 0.00822754 -0.00275781
v -0.01003162 0.00810572 -0.00243896
v -0.00963795 0.00853876 -0.00244936
v -0.00936173 0.00877605 -0.00260324
v -0.00933490 0.00875211 -0.00277514
v -0.00920368 0.00893519 -0.00243757
v -0.00898255 0.00910418 -0.00243757
v -0.00878100 0.00924852 -0.00244936
v -0.00881943 0.00927317 -0.00219151
v -0.00883900 0.00928514 -0.00205773
v -0.00845258 0.00939569 -0.00270721
v -0.00825611 0.00950553 -0.00270721
v -0.00812633 0.00957594 -0.00270721
v -0.00793783 0.00966044 -0.00270721
v -0.00766668 0.00976395 -0.00271760
v -0.00754053 0.00979774 -0.00280979
v -0.00744121 0.00984633 -0.00271760
v -0.01259304 0.00287545 -0.00228300
v -0.01246616 0.00291277 -0.00284861
v -0.00787983 0.00982943 -0.00115942
v -0.00819521 0.00970691 -0.00115942
v -0.00819521 0.00972029 -0.00090226
v -0.00819521 0.00972874 -0.00064372
v -0.00819521 0.00974001 -0.00012802
v -0.00760216 0.00982168 -0.00244936
v -0.00763986 0.00983506 -0.00219151
v -0.00769641 0.00984140 -0.00192950
v -0.00781821 0.00980549 -0.00184078
v -0.00783488 0.00981183 -0.00167512
v -0.00785808 0.00982098 -0.00141727
v -0.00773121 0.00977240 0.00245047
v -0.00766741 0.00976395 0.00271803
v -0.00757243 0.00980971 0.00263901
v -0.00793783 0.00972240 0.00219262
v -0.00754053 0.00979774 0.00281091
v -0.00796466 0.00976254 0.00167623
v -0.00791753 0.00975831 0.00193062
v -0.00845258 0.00962875 0.00012983
v -0.00845258 0.00961467 0.00064553
v -0.00847143 0.00959848 0.00084585
v -0.00819448 0.00972029 0.00090268
v -0.00819448 0.00970691 0.00116053
v -0.01063337 0.00694884 0.00331205
v -0.01086029 0.00663621 0.00322402
v -0.01093424 0.00650665 0.00322402
v -0.01105097 0.00629541 0.00322402
v -0.01133952 0.00578139 0.00320461
v -0.01139897 0.00563564 0.00327809
v -0.01165634 0.00563071 0.00219193
v -0.01165417 0.00536666 0.00270832
v -0.01163097 0.00528005 0.00297380
v -0.01166867 0.00514345 0.00306529
v -0.01186731 0.00474703 0.00294053
v -0.01145769 0.00554833 0.00320461
v -0.01151497 0.00554621 0.00296617
v -0.01178974 0.00477308 0.00322402
v -0.01191444 0.00459775 0.00300984
v -0.01196519 0.00451326 0.00294053
v -0.01213846 0.00449706 0.00218015
v -0.01220734 0.00442876 0.00193408
v -0.01226389 0.00425695 0.00193408
v -0.01244949 0.00361056 0.00205885
v -0.01247559 0.00343594 0.00219193
v -0.01220516 0.00417035 0.00238185
v -0.01210729 0.00425695 0.00270832
v -0.01202391 0.00477308 0.00219193
v -0.01207104 0.00477308 0.00193408
v -0.01215876 0.00455832 0.00193408
v -0.01229361 0.00348312 0.00296617
v -0.01223199 0.00349086 0.00322610
v -0.01236829 0.00322470 0.00296617
v -0.01244369 0.00306486 0.00280675
v -0.01237336 0.00296699 0.00322402
v -0.01239221 0.00287545 0.00322541
v -0.01232116 0.00287545 0.00348118
v -0.01222184 0.00295361 0.00374041
v -0.00767973 0.00968297 0.00322402
v -0.00795886 0.00960622 0.00298142
v -0.00790013 0.00958932 0.00322402
v -0.00784648 0.00956327 0.00348118
v -0.00781603 0.00954778 0.00362743
v -0.00767973 0.00972452 0.00296617
v -0.00791608 0.00947173 0.00372378
v -0.00816331 0.00933795 0.00373972
v -0.00832136 0.00928373 0.00360248
v -0.00852580 0.00925204 0.00322402
v -0.00872590 0.00911192 0.00322541
v -0.00882233 0.00901546 0.00331274
v -0.00870415 0.00896476 0.00376190
v -0.00913625 0.00880351 0.00322402
v -0.00926530 0.00868381 0.00322402
v -0.00885640 0.00904151 0.00314084
v -0.00939580 0.00855496 0.00322402
v -0.00965027 0.00829443 0.00322402
v -0.00984747 0.00822824 0.00275823
v -0.00992505 0.00806418 0.00296617
v -0.01005410 0.00790153 0.00296617
v -0.01013312 0.00774662 0.00311520
v -0.01033757 0.00741004 0.00322402
v -0.01244949 0.00361056 -0.00205912
v -0.01243934 0.00304233 -0.00284861
v -0.01244369 0.00306486 -0.00280702
v -0.01246181 0.00314091 -0.00263512
v -0.01253431 0.00322470 -0.00219220
v -0.01257854 0.00322470 -0.00193435
v -0.01220806 0.00442876 -0.00193366
v -0.01215876 0.00455832 -0.00193366
v -0.01207104 0.00477308 -0.00193366
v -0.01226389 0.00425695 -0.00193366
v -0.01172884 0.00556804 -0.00194683
v -0.01168534 0.00569267 -0.00186920
v -0.01162227 0.00578843 -0.00194683
v -0.01140694 0.00617078 -0.00198634
v -0.01128297 0.00632076 -0.00219151
v -0.01145697 0.00600460 -0.00219151
v -0.01197534 0.00499770 -0.00193366
v -0.01113942 0.00666930 -0.00193366
v -0.01103864 0.00683618 -0.00193366
v -0.01093134 0.00700658 -0.00193366
v -0.01040500 0.00776563 -0.00193366
v -0.01031220 0.00789448 -0.00193366
v -0.01015632 0.00803108 -0.00219151
v -0.00989097 0.00827612 -0.00244936
v -0.00967057 0.00857326 -0.00219151
v -0.00951035 0.00866762 -0.00244936
v -0.00925298 0.00894927 -0.00219151
v -0.00954298 0.00870212 -0.00219151
v -0.00938130 0.00879295 -0.00244936
v -0.00912393 0.00904926 -0.00219151
v -0.00896805 0.00916614 -0.00219151
v -0.00895065 0.00921754 -0.00195653
v -0.00904490 0.00925204 -0.00115942
v -0.00885350 0.00929429 -0.00188583
v -0.00871068 0.00939780 -0.00167512
v -0.00851855 0.00950764 -0.00167512
v -0.00836413 0.00956538 -0.00193366
v -0.00834093 0.00955271 -0.00211942
v -0.00915293 0.00907179 -0.00193366
v -0.00816403 0.00959355 -0.00244936
v -0.00793783 0.00969283 -0.00244936
v -0.00773121 0.00977240 -0.00244936
v -0.00757243 0.00980971 -0.00263789
v -0.01261189 0.00287545 -0.00219220
v -0.01259304 0.00296699 -0.00219220
v -0.00796466 0.00976254 -0.00167512
v -0.00819521 0.00968860 -0.00141727
v -0.00843373 0.00959988 -0.00115942
v -0.00847505 0.00959496 -0.00088909
v -0.00845258 0.00961467 -0.00064372
v -0.00845258 0.00962875 -0.00012802
v -0.00793783 0.00972240 -0.00219151
v -0.00779428 0.00979634 -0.00201337
v -0.00791753 0.00975831 -0.00192950
v -0.00793783 0.00969283 0.00245047
v -0.00793783 0.00966044 0.00270832
v -0.00819448 0.00964424 0.00193408
v -0.00819448 0.00968860 0.00141838
v -0.00819448 0.00966959 0.00167623
v -0.00860265 0.00955552 0.00012983
v -0.00858815 0.00954707 0.00064553
v -0.00858308 0.00954496 0.00079386
v -0.00847433 0.00959496 0.00088951
v -0.00843301 0.00959988 0.00116053
v -0.01065657 0.00698264 0.00314015
v -0.01072182 0.00685167 0.00322541
v -0.01088639 0.00667916 0.00302994
v -0.01115392 0.00617993 0.00306876
v -0.01142072 0.00568000 0.00310619
v -0.01167302 0.00566803 0.00204290
v -0.01171217 0.00550256 0.00219193
v -0.01193619 0.00490616 0.00233056
v -0.01217544 0.00459986 0.00167623
v -0.01222329 0.00447101 0.00167623
v -0.01229434 0.00425695 0.00167623
v -0.01244586 0.00373942 0.00177119
v -0.01246109 0.00364647 0.00188764
v -0.01249516 0.00350776 0.00195696
v -0.01257854 0.00322470 0.00193408
v -0.01253431 0.00322470 0.00219193
v -0.01245746 0.00337890 0.00235690
v -0.01172957 0.00556804 0.00194794
v -0.01193039 0.00515120 0.00177397
v -0.01210294 0.00477308 0.00167623
v -0.01243934 0.00331342 0.00252880
v -0.01246181 0.00314091 0.00263485
v -0.01259304 0.00296699 0.00219193
v -0.01261189 0.00287545 0.00219193
v -0.01246326 0.00287545 0.00289824
v -0.01243644 0.00287545 0.00302440
v -0.01242701 0.00297403 0.00297241
v -0.01241251 0.00287545 0.00313322
v -0.00809371 0.00955834 0.00290587
v -0.00805891 0.00954003 0.00307777
v -0.00819448 0.00943512 0.00322402
v -0.00839748 0.00932598 0.00322402
v -0.00856278 0.00927528 0.00304172
v -0.00901373 0.00896406 0.00296617
v -0.00917758 0.00883520 0.00296617
v -0.00936100 0.00877605 0.00260366
v -0.00933490 0.00875211 0.00277556
v -0.00930590 0.00872395 0.00296617
v -0.00868965 0.00920416 0.00295993
v -0.00888468 0.00906263 0.00296617
v -0.00943423 0.00859509 0.00296617
v -0.00956400 0.00846201 0.00296617
v -0.00987212 0.00825641 0.00258633
v -0.00994390 0.00813600 0.00268684
v -0.01011427 0.00797828 0.00252603
v -0.01008962 0.00794659 0.00270832
v -0.01013675 0.00800855 0.00235413
v -0.01015270 0.00777267 0.00296617
v -0.01031437 0.00763466 0.00270832
v -0.01249516 0.00350776 -0.00195792
v -0.01260899 0.00322470 -0.00167650
v -0.01253649 0.00348312 -0.00167650
v -0.01263726 0.00296699 -0.00193435
v -0.01217471 0.00459986 -0.00167512
v -0.01229434 0.00425695 -0.00167512
v -0.01222329 0.00447101 -0.00167512
v -0.01193039 0.00515120 -0.00177216
v -0.01210294 0.00477308 -0.00167512
v -0.01246109 0.00364647 -0.00188653
v -0.01245674 0.00373942 -0.00167650
v -0.01169694 0.00571450 -0.00167512
v -0.01162807 0.00584406 -0.00167512
v -0.01141927 0.00619331 -0.00181375
v -0.01147002 0.00607572 -0.00191356
v -0.01177234 0.00554621 -0.00167512
v -0.01185789 0.00554621 -0.00090226
v -0.01115174 0.00669324 -0.00173889
v -0.01134894 0.00629541 -0.00191217
v -0.01108939 0.00681294 -0.00166195
v -0.01094874 0.00703263 -0.00167512
v -0.01063700 0.00747060 -0.00174582
v -0.01042312 0.00779168 -0.00167512
v -0.01033177 0.00792054 -0.00167512
v -0.01018315 0.00806418 -0.00193366
v -0.01005120 0.00815994 -0.00219151
v -0.00992142 0.00830922 -0.00219151
v -0.00980035 0.00843807 -0.00219151
v -0.00969595 0.00860073 -0.00193366
v -0.00956980 0.00872958 -0.00193366
v -0.00941393 0.00882041 -0.00219151
v -0.00928125 0.00897039 -0.00193366
v -0.00919643 0.00910629 -0.00141727
v -0.00924355 0.00910488 -0.00114001
v -0.00906158 0.00926331 -0.00090226
v -0.00891585 0.00933020 -0.00115942
v -0.00871068 0.00944850 -0.00115942
v -0.00854103 0.00952032 -0.00141727
v -0.00839023 0.00957946 -0.00167512
v -0.00819521 0.00964424 -0.00193366
v -0.00821551 0.00960129 -0.00219913
v -0.00962200 0.00877887 -0.00135142
v -0.01265539 0.00287545 -0.00193851
v -0.00819521 0.00966959 -0.00167512
v -0.00841198 0.00959073 -0.00141727
v -0.00856205 0.00953229 -0.00115942
v -0.00857510 0.00954074 -0.00096603
v -0.00858308 0.00954496 -0.00079344
v -0.00858815 0.00954707 -0.00064372
v -0.00860265 0.00955552 -0.00012802
v -0.00816403 0.00959355 0.00245047
v -0.00812633 0.00957594 0.00270832
v -0.00839023 0.00957946 0.00167623
v -0.00836341 0.00956538 0.00193408
v -0.00821551 0.00960129 0.00220025
v -0.00841198 0.00959073 0.00141838
v -0.00908333 0.00927739 0.00012983
v -0.00893398 0.00934006 0.00084585
v -0.00857510 0.00954074 0.00096645
v -0.00893180 0.00933865 0.00090268
v -0.01071095 0.00706150 0.00270832
v -0.01082767 0.00707910 0.00219678
v -0.01091467 0.00698334 0.00211361
v -0.01089292 0.00695165 0.00228551
v -0.01081679 0.00681505 0.00295300
v -0.01090742 0.00671507 0.00285804
v -0.01095599 0.00658762 0.00295300
v -0.01110389 0.00631019 0.00297588
v -0.01141419 0.00592574 0.00256138
v -0.01156644 0.00580392 0.00219193
v -0.01145697 0.00600460 0.00219193
v -0.01130399 0.00629541 0.00215866
v -0.01140694 0.00617078 0.00198607
v -0.01162227 0.00578843 0.00194794
v -0.01168534 0.00569267 0.00187031
v -0.01219501 0.00465056 0.00131718
v -0.01229071 0.00451537 0.00090268
v -0.01237771 0.00425695 0.00090268
v -0.01235016 0.00425695 0.00116053
v -0.01245674 0.00373942 0.00167623
v -0.01253649 0.00348312 0.00167623
v -0.01260899 0.00322470 0.00167623
v -0.01263726 0.00296699 0.00193408
v -0.01177234 0.00554621 0.00167623
v -0.01180134 0.00554621 0.00141838
v -0.01216311 0.00483434 0.00090268
v -0.01220371 0.00467169 0.00116053
v -0.01265539 0.00287545 0.00193893
v -0.00825538 0.00950553 0.00270832
v -0.00846708 0.00934358 0.00295993
v -0.00859033 0.00929148 0.00286983
v -0.00878100 0.00924852 0.00245047
v -0.00905143 0.00899292 0.00270832
v -0.00920295 0.00893519 0.00243800
v -0.00925298 0.00894927 0.00219262
v -0.00938130 0.00879295 0.00245047
v -0.00954298 0.00870212 0.00219262
v -0.00951035 0.00866762 0.00245047
v -0.00963795 0.00853876 0.00245047
v -0.00947700 0.00863452 0.00268614
v -0.00892165 0.00909150 0.00270832
v -0.00976700 0.00840568 0.00245047
v -0.00989097 0.00827612 0.00245047
v -0.01003307 0.00810713 0.00244424
v -0.01015705 0.00803249 0.00219262
v -0.01029697 0.00784731 0.00218084
v -0.01039195 0.00774732 0.00208657
v -0.01259231 0.00348312 -0.00116080
v -0.01266699 0.00296699 -0.00167650
v -0.01270831 0.00309655 -0.00103188
v -0.01267279 0.00319935 -0.00113516
v -0.01268366 0.00325427 -0.00090157
v -0.01267496 0.00287545 -0.00177146
v -0.01219501 0.00465056 -0.00131607
v -0.01237771 0.00425695 -0.00090226
v -0.01229071 0.00451537 -0.00090226
v -0.01220371 0.00467169 -0.00115942
v -0.01216311 0.00483434 -0.00090226
v -0.01248574 0.00373942 -0.00140687
v -0.01167882 0.00593841 -0.00079898
v -0.01172522 0.00577083 -0.00115942
v -0.01172884 0.00582223 -0.00089186
v -0.01138012 0.00629541 -0.00167512
v -0.01192386 0.00539342 -0.00090226
v -0.01188834 0.00552298 -0.00064303
v -0.01175712 0.00580392 -0.00064372
v -0.01193184 0.00541243 -0.00072828
v -0.01121554 0.00659537 -0.00166195
v -0.01116262 0.00671155 -0.00156699
v -0.01109374 0.00685589 -0.00141727
v -0.01096542 0.00705587 -0.00141727
v -0.01112564 0.00690870 -0.00090226
v -0.01037745 0.00798461 -0.00096395
v -0.01034917 0.00794377 -0.00141727
v -0.01065730 0.00750017 -0.00141727
v -0.01020200 0.00814234 -0.00139578
v -0.01020272 0.00809023 -0.00167512
v -0.01012950 0.00825500 -0.00129527
v -0.01011500 0.00823880 -0.00146717
v -0.01007512 0.00819233 -0.00193366
v -0.00982500 0.00846342 -0.00193366
v -0.00994535 0.00833456 -0.00193366
v -0.00960822 0.00876620 -0.00152332
v -0.00999610 0.00837892 -0.00139578
v -0.00987647 0.00851834 -0.00132439
v -0.00944075 0.00884154 -0.00193366
v -0.00934215 0.00901827 -0.00121348
v -0.00935593 0.00902884 -0.00104158
v -0.00922543 0.00913868 -0.00090226
v -0.00922543 0.00914995 -0.00064372
v -0.00906883 0.00926824 -0.00064372
v -0.00893180 0.00933865 -0.00090226
v -0.00988880 0.00853102 -0.00115942
v -0.00976410 0.00866058 -0.00115942
v -0.00963577 0.00879084 -0.00115942
v -0.00868603 0.00948089 -0.00088909
v -0.00893905 0.00934358 -0.00064372
v -0.00908333 0.00927739 -0.00012802
v -0.00834093 0.00955271 0.00211984
v -0.00856133 0.00953229 0.00116053
v -0.00853958 0.00952032 0.00141838
v -0.00851783 0.00950764 0.00167623
v -0.00883828 0.00928514 0.00205885
v -0.00922543 0.00917037 0.00012983
v -0.00906883 0.00926824 0.00064553
v -0.00906085 0.00926331 0.00090268
v -0.00891585 0.00933020 0.00116053
v -0.00870995 0.00944850 0.00116053
v -0.01093062 0.00700658 0.00193408
v -0.01103864 0.00683618 0.00193408
v -0.01113942 0.00666930 0.00193408
v -0.01097629 0.00685378 0.00219678
v -0.01111477 0.00662494 0.00219262
v -0.01121772 0.00633202 0.00244285
v -0.01129674 0.00629541 0.00219262
v -0.01134894 0.00629541 0.00191398
v -0.01147002 0.00607572 0.00191398
v -0.01141927 0.00619331 0.00181555
v -0.01162807 0.00584406 0.00167623
v -0.01169694 0.00571450 0.00167623
v -0.01221749 0.00470478 0.00090268
v -0.01222184 0.00471464 0.00079802
v -0.01222836 0.00472802 0.00064622
v -0.01231029 0.00451537 0.00064622
v -0.01239729 0.00425695 0.00064622
v -0.01253939 0.00374083 0.00090268
v -0.01248574 0.00373942 0.00140729
v -0.01261986 0.00348312 0.00090268
v -0.01268366 0.00325427 0.00090268
v -0.01270831 0.00309655 0.00103161
v -0.01266699 0.00296699 0.00167623
v -0.01268584 0.00287545 0.00167623
v -0.01185789 0.00554621 0.00090268
v -0.01193184 0.00541243 0.00072870
v -0.00845185 0.00939569 0.00270832
v -0.00881943 0.00927317 0.00219262
v -0.00896805 0.00916614 0.00219262
v -0.00898255 0.00910418 0.00243800
v -0.00912393 0.00904926 0.00219262
v -0.00928125 0.00897039 0.00193408
v -0.00941393 0.00882041 0.00219262
v -0.00915293 0.00907179 0.00193408
v -0.00956980 0.00872958 0.00193408
v -0.00967057 0.00857326 0.00219262
v -0.00979962 0.00843807 0.00219262
v -0.00992142 0.00830922 0.00219262
v -0.01005047 0.00816135 0.00219262
v -0.01018315 0.00806418 0.00193408
v -0.01031220 0.00789448 0.00193408
v -0.01040427 0.00776563 0.00193408
v -0.01062322 0.00745088 0.00193408
v -0.01261986 0.00348312 -0.00090157
v -0.01268584 0.00287545 -0.00167650
v -0.01270324 0.00287545 -0.00151431
v -0.01272426 0.00296699 -0.00113516
v -0.01275761 0.00287545 -0.00099376
v -0.01274819 0.00296699 -0.00090157
v -0.01271484 0.00312542 -0.00090157
v -0.01269381 0.00329441 -0.00064372
v -0.01239729 0.00425695 -0.00064372
v -0.01263944 0.00348312 -0.00064372
v -0.01231029 0.00451537 -0.00064372
v -0.01221821 0.00470478 -0.00090226
v -0.01168317 0.00594686 -0.00064372
v -0.01148307 0.00631019 -0.00064372
v -0.01133517 0.00657847 -0.00064372
v -0.01131414 0.00657847 -0.00090226
v -0.01188109 0.00555255 -0.00038587
v -0.01222836 0.00472802 -0.00064372
v -0.01193546 0.00542088 -0.00055569
v -0.01176292 0.00580392 -0.00038587
v -0.01168679 0.00595179 -0.00038587
v -0.01120104 0.00677985 -0.00090226
v -0.01091104 0.00723612 -0.00084542
v -0.01083419 0.00733400 -0.00091959
v -0.01098064 0.00707910 -0.00115942
v -0.01098282 0.00711853 -0.00091959
v -0.01113724 0.00692701 -0.00064372
v -0.01038832 0.00799940 -0.00079205
v -0.01024622 0.00812544 -0.00115942
v -0.01029770 0.00810150 -0.00088701
v -0.01013747 0.00826486 -0.00115942
v -0.01001712 0.00839371 -0.00115942
v -0.00936028 0.00903236 -0.00090226
v -0.00948933 0.00893026 -0.00090226
v -0.00936753 0.00903869 -0.00064372
v -0.00938203 0.00904996 -0.00012802
v -0.00922543 0.00917037 -0.00012802
v -0.00990257 0.00854580 -0.00090226
v -0.01015197 0.00828035 -0.00090226
v -0.00977642 0.00867466 -0.00090226
v -0.00964737 0.00880070 -0.00090226
v -0.00870995 0.00939780 0.00167623
v -0.00885278 0.00929429 0.00188695
v -0.00904418 0.00925204 0.00116053
v -0.00895065 0.00921754 0.00195765
v -0.00922543 0.00914995 0.00064553
v -0.00938203 0.00904996 0.00012983
v -0.00922543 0.00913868 0.00090268
v -0.00935520 0.00902884 0.00104270
v -0.00924355 0.00910488 0.00114113
v -0.01063700 0.00747060 0.00174693
v -0.01094874 0.00703263 0.00167623
v -0.01108939 0.00681294 0.00166306
v -0.01115247 0.00669324 0.00174000
v -0.01137504 0.00629541 0.00171713
v -0.01164329 0.00587223 0.00141838
v -0.01150844 0.00606164 0.00167623
v -0.01168027 0.00593771 0.00079802
v -0.01172884 0.00582223 0.00089229
v -0.01172522 0.00577083 0.00116053
v -0.01188834 0.00552298 0.00064553
v -0.01193546 0.00542088 0.00055819
v -0.01223054 0.00473506 0.00038837
v -0.01231609 0.00451537 0.00038837
v -0.01240309 0.00425695 0.00038837
v -0.01263944 0.00348312 0.00064691
v -0.01269381 0.00329441 0.00064691
v -0.01271484 0.00312542 0.00090268
v -0.01274819 0.00296699 0.00090268
v -0.01272426 0.00296699 0.00113489
v -0.01270324 0.00287545 0.00151404
v -0.01187094 0.00553706 0.00079802
v -0.00932548 0.00900490 0.00141838
v -0.00950673 0.00885984 0.00143017
v -0.00962200 0.00877887 0.00135253
v -0.00960822 0.00876620 0.00152374
v -0.00944075 0.00884154 0.00193408
v -0.00919570 0.00910629 0.00141838
v -0.00959372 0.00875282 0.00167623
v -0.00969522 0.00860073 0.00193408
v -0.00982500 0.00846342 0.00193408
v -0.00994535 0.00833456 0.00193408
v -0.01007512 0.00819233 0.00193408
v -0.01020272 0.00809023 0.00167623
v -0.01011500 0.00823880 0.00146829
v -0.01012950 0.00825500 0.00129639
v -0.01033177 0.00792054 0.00167623
v -0.01042312 0.00779168 0.00167623
v -0.01276631 0.00287545 -0.00090157
v -0.01277864 0.00287545 -0.00073521
v -0.01276704 0.00296699 -0.00064372
v -0.01272426 0.00316555 -0.00064372
v -0.01272716 0.00317752 -0.00038587
v -0.01269599 0.00330638 -0.00038587
v -0.01240309 0.00425695 -0.00038587
v -0.01264451 0.00348312 -0.00038587
v -0.01231609 0.00451537 -0.00038587
v -0.01161574 0.00608135 -0.00038587
v -0.01148669 0.00631583 -0.00038587
v -0.01134097 0.00657847 -0.00038587
v -0.01121482 0.00680379 -0.00038587
v -0.01121192 0.00679815 -0.00064372
v -0.01199419 0.00528850 -0.00038587
v -0.01188109 0.00555255 0.00038837
v -0.01223054 0.00473506 -0.00038587
v -0.01176292 0.00580392 0.00038837
v -0.01168679 0.00595179 0.00038837
v -0.01102487 0.00709389 -0.00064372
v -0.01114014 0.00693264 -0.00038587
v -0.01039340 0.00800574 -0.00064372
v -0.01029045 0.00813530 -0.00064372
v -0.01070080 0.00756214 -0.00064372
v -0.00966115 0.00881267 -0.00038587
v -0.00951108 0.00894716 -0.00012802
v -0.01004032 0.00841906 -0.00064372
v -0.00991055 0.00855425 -0.00064372
v -0.01016067 0.00829020 -0.00064372
v -0.00978367 0.00868311 -0.00064372
v -0.00979020 0.00869085 -0.00038587
v -0.00979672 0.00869719 -0.00012802
v -0.00933128 0.00905841 0.00084585
v -0.00951108 0.00894716 0.00012983
v -0.00949150 0.00893167 0.00084585
v -0.00936753 0.00903869 0.00064553
v -0.00934215 0.00901827 0.00121460
v -0.00948933 0.00893026 0.00090268
v -0.00963577 0.00879084 0.00116053
v -0.00945815 0.00893519 0.00114113
v -0.01096542 0.00705587 0.00141838
v -0.01112637 0.00690870 0.00090268
v -0.01117132 0.00672704 0.00141838
v -0.01131414 0.00657847 0.00090268
v -0.01135619 0.00633836 0.00167623
v -0.01168317 0.00594686 0.00064622
v -0.01175712 0.00580392 0.00064622
v -0.01133517 0.00657847 0.00064553
v -0.01148307 0.00631019 0.00064553
v -0.01199419 0.00528850 0.00038837
v -0.01264451 0.00348312 0.00038837
v -0.01269599 0.00330638 0.00038837
v -0.01272716 0.00317752 0.00038837
v -0.01272426 0.00316555 0.00064691
v -0.01276704 0.00296699 0.00064691
v -0.01277356 0.00287545 0.00081119
v -0.01276631 0.00287545 0.00090268
v -0.01275109 0.00287545 0.00105310
v -0.00976410 0.00865987 0.00116053
v -0.00987647 0.00851834 0.00132550
v -0.00999610 0.00837892 0.00139690
v -0.00996855 0.00835780 0.00167623
v -0.01020200 0.00814234 0.00139690
v -0.00988735 0.00853031 0.00116053
v -0.01001640 0.00839301 0.00116053
v -0.01013747 0.00826415 0.00116053
v -0.01038832 0.00799940 0.00079178
v -0.01024550 0.00812544 0.00116053
v -0.01034917 0.00794377 0.00141838
v -0.01037745 0.00798461 0.00096437
v -0.01042602 0.00793603 0.00084585
v -0.01065730 0.00750017 0.00141838
v -0.01278516 0.00287545 -0.00064372
v -0.01279169 0.00287545 -0.00038587
v -0.01161574 0.00608135 0.00038837
v -0.01148669 0.00631583 0.00038768
v -0.01134097 0.00657847 0.00038768
v -0.01121482 0.00680379 0.00038768
v -0.01103139 0.00709389 -0.00038587
v -0.01114014 0.00693264 0.00038768
v -0.01039630 0.00801067 -0.00038587
v -0.01029552 0.00813952 -0.00038587
v -0.01049562 0.00786773 -0.00038587
v -0.01016720 0.00829654 -0.00038587
v -0.00966767 0.00881830 -0.00012802
v -0.01004685 0.00842540 -0.00038587
v -0.00991780 0.00856129 -0.00038587
v -0.00979672 0.00869578 0.00012983
v -0.00966767 0.00881830 0.00012983
v -0.00992287 0.00856834 -0.00012802
v -0.00965390 0.00880703 0.00064553
v -0.00964882 0.00880211 0.00084585
v -0.00964665 0.00880070 0.00090268
v -0.00977642 0.00867255 0.00090268
v -0.01098354 0.00711853 0.00092071
v -0.01113724 0.00692701 0.00064553
v -0.01118727 0.00681224 0.00084585
v -0.01120104 0.00677985 0.00090268
v -0.01121192 0.00679815 0.00064553
v -0.01279169 0.00287545 0.00038837
v -0.01278516 0.00287545 0.00064691
v -0.00990040 0.00854369 0.00090268
v -0.01014835 0.00827612 0.00090268
v -0.01002872 0.00840568 0.00090268
v -0.01017880 0.00824514 0.00084585
v -0.01039340 0.00800574 0.00064553
v -0.01048910 0.00786773 0.00064553
v -0.01070080 0.00756214 0.00064553
v -0.01102487 0.00709389 0.00064553
v -0.01091104 0.00723612 0.00084585
v -0.01103139 0.00709389 0.00038768
v -0.01039630 0.00801137 -0.00012802
v -0.01029987 0.00814022 -0.00012802
v -0.01017082 0.00830147 -0.00012802
v -0.01005192 0.00843033 -0.00012802
v -0.00992142 0.00856693 0.00012983
v -0.01005120 0.00842892 0.00012983
v -0.01003670 0.00841343 0.00064553
v -0.01015632 0.00828387 0.00064553
v -0.01028465 0.00813459 0.00064553
v -0.01016937 0.00830006 0.00012983
v -0.01039630 0.00801067 0.00038768
v -0.01049562 0.00786773 0.00038768
v -0.01039630 0.00801137 0.00012983
v -0.01029842 0.00814022 0.00012983
v -0.01016357 0.00829161 0.00038768
f 1 2 7
f 1 7 25
f 1 25 10
f 1 10 3
f 1 3 4
f 1 4 5
f 1 5 2
f 2 5 6
f 2 6 23
f 2 23 7
f 3 8 9
f 3 9 4
f 3 10 11
f 3 11 12
f 3 12 8
f 4 13 14
f 4 14 15
f 4 15 5
f 4 9 16
f 4 16 17
f 4 17 18
f 4 18 19
f 4 19 20
f 4 20 13
f 5 15 6
f 6 21 22
f 6 22 54
f 6 54 23
f 6 15 21
f 7 24 25
f 7 23 26
f 7 26 24
f 8 27 16
f 8 16 9
f 8 12 28
f 8 28 29
f 8 29 30
f 8 30 31
f 8 31 32
f 8 32 27
f 10 25 58
f 10 58 33
f 10 33 11
f 11 33 34
f 11 34 12
f 12 34 35
f 12 35 36
f 12 36 37
f 12 37 28
f 13 20 38
f 13 38 14
f 14 38 39
f 14 39 40
f 14 40 15
f 15 40 41
f 15 41 21
f 16 27 42
f 16 42 43
f 16 43 44
f 16 44 17
f 17 44 18
f 18 44 45
f 18 45 46
f 18 46 19
f 19 46 47
f 19 47 48
f 19 48 20
f 20 49 38
f 20 48 49
f 21 50 54
f 21 54 22
f 21 41 51
f 21 51 52
f 21 52 53
f 21 53 134
f 21 134 50
f 23 54 26
f 24 26 55
f 24 55 56
f 24 56 57
f 24 57 58
f 24 58 25
f 26 54 59
f 26 59 60
f 26 60 61
f 26 61 62
f 26 62 63
f 26 63 55
f 27 32 64
f 27 64 65
f 27 65 42
f 28 37 36
f 28 36 66
f 28 66 29
f 29 66 30
f 30 66 67
f 30 67 68
f 30 68 31
f 31 68 32
f 32 68 64
f 33 58 149
f 33 149 69
f 33 69 34
f 34 69 70
f 34 70 35
f 35 70 71
f 35 71 72
f 35 72 36
f 36 72 66
f 38 49 39
f 39 73 74
f 39 74 75
f 39 75 76
f 39 76 77
f 39 77 78
f 39 78 79
f 39 79 80
f 39 80 81
f 39 81 82
f 39 82 83
f 39 83 84
f 39 84 85
f 39 85 86
f 39 86 87
f 39 87 88
f 39 88 89
f 39 89 90
f 39 90 91
f 39 91 92
f 39 92 183
f 39 183 311
f 39 311 211
f 39 211 120
f 39 120 40
f 39 49 93
f 39 93 94
f 39 94 95
f 39 95 96
f 39 96 97
f 39 97 98
f 39 98 99
f 39 99 100
f 39 100 101
f 39 101 102
f 39 102 103
f 39 103 104
f 39 104 105
f 39 105 106
f 39 106 107
f 39 107 108
f 39 108 109
f 39 109 110
f 39 110 111
f 39 111 112
f 39 112 113
f 39 113 114
f 39 114 115
f 39 115 116
f 39 116 117
f 39 117 118
f 39 118 119
f 39 119 73
f 40 120 121
f 40 121 122
f 40 122 123
f 40 123 124
f 40 124 125
f 40 125 126
f 40 126 51
f 40 51 41
f 42 65 127
f 42 127 43
f 43 127 44
f 44 127 128
f 44 128 129
f 44 129 45
f 45 130 46
f 45 129 131
f 45 131 130
f 46 130 47
f 47 130 48
f 48 130 132
f 48 132 133
f 48 133 93
f 48 93 49
f 50 134 135
f 50 135 136
f 50 136 54
f 51 126 137
f 51 137 52
f 52 137 53
f 53 138 260
f 53 260 392
f 53 392 474
f 53 474 350
f 53 350 217
f 53 217 134
f 53 137 139
f 53 139 140
f 53 140 141
f 53 141 142
f 53 142 143
f 53 143 138
f 54 136 144
f 54 144 145
f 54 145 59
f 55 63 62
f 55 62 146
f 55 146 56
f 56 146 147
f 56 147 148
f 56 148 57
f 57 148 149
f 57 149 58
f 59 145 150
f 59 150 151
f 59 151 60
f 60 151 152
f 60 152 61
f 61 152 62
f 62 152 153
f 62 153 146
f 64 68 154
f 64 154 65
f 65 154 155
f 65 155 156
f 65 156 157
f 65 157 128
f 65 128 127
f 66 72 67
f 67 72 71
f 67 71 158
f 67 158 68
f 68 158 159
f 68 159 160
f 68 160 154
f 69 149 265
f 69 265 161
f 69 161 70
f 70 161 162
f 70 162 71
f 71 162 163
f 71 163 164
f 71 164 158
f 73 165 166
f 73 166 74
f 73 119 165
f 74 166 167
f 74 167 75
f 75 167 76
f 76 167 168
f 76 168 77
f 77 168 169
f 77 169 170
f 77 170 78
f 78 170 79
f 79 170 80
f 80 170 171
f 80 171 81
f 81 171 82
f 82 171 83
f 83 171 172
f 83 172 173
f 83 173 174
f 83 174 84
f 84 174 175
f 84 175 176
f 84 176 85
f 85 176 86
f 86 176 177
f 86 177 87
f 87 177 178
f 87 178 88
f 88 178 177
f 88 177 90
f 88 90 89
f 90 177 179
f 90 179 91
f 91 179 180
f 91 180 92
f 92 180 181
f 92 181 182
f 92 182 183
f 93 133 94
f 94 133 95
f 95 133 184
f 95 184 185
f 95 185 96
f 96 186 97
f 96 185 186
f 97 187 188
f 97 188 98
f 97 186 187
f 98 188 189
f 98 189 99
f 99 189 190
f 99 190 191
f 99 191 100
f 100 191 101
f 101 191 192
f 101 192 102
f 102 192 103
f 103 192 193
f 103 193 104
f 104 193 194
f 104 194 105
f 105 194 106
f 106 195 196
f 106 196 107
f 106 194 197
f 106 197 195
f 107 196 108
f 108 196 109
f 109 196 110
f 110 196 111
f 111 198 199
f 111 199 112
f 111 196 200
f 111 200 198
f 112 199 113
f 113 201 202
f 113 202 114
f 113 199 201
f 114 202 203
f 114 203 115
f 115 203 204
f 115 204 116
f 116 204 117
f 117 204 205
f 117 205 118
f 118 205 119
f 119 205 206
f 119 206 207
f 119 207 165
f 120 208 209
f 120 209 210
f 120 210 121
f 120 211 344
f 120 344 448
f 120 448 447
f 120 447 564
f 120 564 562
f 120 562 561
f 120 561 560
f 120 560 673
f 120 673 777
f 120 777 867
f 120 867 942
f 120 942 941
f 120 941 940
f 120 940 985
f 120 985 984
f 120 984 958
f 120 958 957
f 120 957 886
f 120 886 885
f 120 885 801
f 120 801 799
f 120 799 798
f 120 798 698
f 120 698 628
f 120 628 516
f 120 516 391
f 120 391 260
f 120 260 138
f 120 138 259
f 120 259 343
f 120 343 208
f 121 210 212
f 121 212 213
f 121 213 122
f 122 213 143
f 122 143 142
f 122 142 141
f 122 141 123
f 123 141 124
f 124 141 140
f 124 140 125
f 125 140 139
f 125 139 126
f 126 139 137
f 128 157 131
f 128 131 129
f 130 131 132
f 131 157 214
f 131 214 215
f 131 215 216
f 131 216 132
f 132 216 133
f 133 216 184
f 134 217 218
f 134 218 219
f 134 219 220
f 134 220 221
f 134 221 222
f 134 222 223
f 134 223 224
f 134 224 225
f 134 225 226
f 134 226 227
f 134 227 228
f 134 228 229
f 134 229 230
f 134 230 231
f 134 231 232
f 134 232 233
f 134 233 234
f 134 234 235
f 134 235 236
f 134 236 237
f 134 237 238
f 134 238 239
f 134 239 240
f 134 240 241
f 134 241 242
f 134 242 243
f 134 243 244
f 134 244 245
f 134 245 246
f 134 246 247
f 134 247 248
f 134 248 249
f 134 249 250
f 134 250 251
f 134 251 252
f 134 252 253
f 134 253 254
f 134 254 255
f 134 255 256
f 134 256 257
f 134 257 135
f 135 257 136
f 136 257 258
f 136 258 144
f 138 143 213
f 138 213 212
f 138 212 261
f 138 261 259
f 144 258 145
f 145 258 150
f 146 153 147
f 147 262 263
f 147 263 264
f 147 264 148
f 147 153 262
f 148 264 265
f 148 265 149
f 150 258 256
f 150 256 266
f 150 266 267
f 150 267 268
f 150 268 269
f 150 269 151
f 151 269 152
f 152 269 270
f 152 270 271
f 152 271 262
f 152 262 153
f 154 160 155
f 155 160 272
f 155 272 156
f 156 272 273
f 156 273 274
f 156 274 275
f 156 275 214
f 156 214 157
f 158 164 276
f 158 276 159
f 159 276 160
f 160 276 277
f 160 277 278
f 160 278 279
f 160 279 272
f 161 265 397
f 161 397 280
f 161 280 281
f 161 281 162
f 162 281 282
f 162 282 283
f 162 283 284
f 162 284 163
f 163 284 283
f 163 283 164
f 164 283 285
f 164 285 276
f 165 207 286
f 165 286 287
f 165 287 288
f 165 288 289
f 165 289 166
f 166 289 167
f 167 289 290
f 167 290 168
f 168 290 169
f 169 290 291
f 169 291 170
f 170 291 292
f 170 292 293
f 170 293 171
f 171 293 294
f 171 294 172
f 172 294 295
f 172 295 173
f 173 296 297
f 173 297 177
f 173 177 298
f 173 298 174
f 173 295 294
f 173 294 296
f 174 298 175
f 175 298 177
f 175 177 176
f 177 299 300
f 177 300 301
f 177 301 302
f 177 302 303
f 177 303 304
f 177 304 305
f 177 305 306
f 177 306 307
f 177 307 179
f 177 297 299
f 179 307 308
f 179 308 181
f 179 181 180
f 181 308 309
f 181 309 182
f 182 310 183
f 182 309 310
f 183 310 311
f 184 216 312
f 184 312 313
f 184 313 314
f 184 314 185
f 185 314 186
f 186 314 313
f 186 313 187
f 187 313 315
f 187 315 188
f 188 316 317
f 188 317 189
f 188 315 318
f 188 318 319
f 188 319 316
f 189 317 190
f 190 317 320
f 190 320 191
f 191 320 321
f 191 321 322
f 191 322 192
f 192 322 323
f 192 323 324
f 192 324 193
f 193 324 197
f 193 197 194
f 195 325 326
f 195 326 196
f 195 197 325
f 196 326 327
f 196 327 328
f 196 328 329
f 196 329 330
f 196 330 200
f 197 324 331
f 197 331 332
f 197 332 325
f 198 200 330
f 198 330 333
f 198 333 334
f 198 334 199
f 199 334 335
f 199 335 201
f 201 335 203
f 201 203 202
f 203 336 337
f 203 337 338
f 203 338 339
f 203 339 340
f 203 340 204
f 203 335 336
f 204 340 341
f 204 341 205
f 205 341 342
f 205 342 206
f 206 342 207
f 207 342 286
f 208 343 209
f 209 343 210
f 210 343 212
f 211 311 344
f 212 343 261
f 214 275 215
f 215 275 345
f 215 345 346
f 215 346 347
f 215 347 312
f 215 312 216
f 217 348 349
f 217 349 218
f 217 350 351
f 217 351 352
f 217 352 353
f 217 353 348
f 218 349 348
f 218 348 354
f 218 354 219
f 219 354 220
f 220 354 355
f 220 355 356
f 220 356 357
f 220 357 358
f 220 358 221
f 221 358 222
f 222 359 223
f 222 358 360
f 222 360 359
f 223 359 361
f 223 361 224
f 224 361 225
f 225 361 362
f 225 362 363
f 225 363 364
f 225 364 226
f 226 364 365
f 226 365 227
f 227 365 228
f 228 365 366
f 228 366 229
f 229 366 367
f 229 367 368
f 229 368 369
f 229 369 230
f 230 369 231
f 231 369 368
f 231 368 232
f 232 368 370
f 232 370 233
f 233 370 234
f 234 370 371
f 234 371 372
f 234 372 235
f 235 372 236
f 236 373 374
f 236 374 237
f 236 372 375
f 236 375 373
f 237 374 238
f 238 374 373
f 238 373 239
f 239 376 240
f 239 373 376
f 240 376 377
f 240 377 241
f 241 377 378
f 241 378 242
f 242 378 377
f 242 377 243
f 243 377 379
f 243 379 380
f 243 380 244
f 244 381 245
f 244 380 381
f 245 381 246
f 246 381 247
f 247 381 382
f 247 382 383
f 247 383 384
f 247 384 385
f 247 385 248
f 248 385 386
f 248 386 387
f 248 387 249
f 249 387 250
f 250 387 251
f 251 388 389
f 251 389 252
f 251 387 388
f 252 389 253
f 253 389 390
f 253 390 254
f 254 266 255
f 254 390 267
f 254 267 266
f 255 266 256
f 256 258 257
f 259 261 343
f 260 391 392
f 262 271 393
f 262 393 263
f 263 393 394
f 263 394 395
f 263 395 264
f 264 395 396
f 264 396 265
f 265 396 397
f 267 390 398
f 267 398 399
f 267 399 400
f 267 400 268
f 268 400 270
f 268 270 269
f 270 400 401
f 270 401 402
f 270 402 403
f 270 403 393
f 270 393 271
f 272 279 273
f 273 279 274
f 274 404 405
f 274 405 406
f 274 406 275
f 274 279 407
f 274 407 404
f 275 406 408
f 275 408 345
f 276 285 277
f 277 285 409
f 277 409 278
f 278 409 279
f 279 409 410
f 279 410 407
f 280 397 523
f 280 523 411
f 280 411 281
f 281 411 412
f 281 412 282
f 282 412 413
f 282 413 414
f 282 414 283
f 283 414 415
f 283 415 285
f 285 415 409
f 286 416 287
f 286 342 339
f 286 339 416
f 287 416 288
f 288 416 417
f 288 417 289
f 289 417 290
f 290 418 419
f 290 419 420
f 290 420 421
f 290 421 291
f 290 417 418
f 291 421 292
f 292 421 293
f 293 421 294
f 294 421 296
f 296 422 423
f 296 423 424
f 296 424 425
f 296 425 426
f 296 426 297
f 296 421 427
f 296 427 428
f 296 428 422
f 297 426 300
f 297 300 429
f 297 429 299
f 299 429 300
f 300 426 430
f 300 430 431
f 300 431 432
f 300 432 301
f 301 433 434
f 301 434 435
f 301 435 436
f 301 436 437
f 301 437 438
f 301 438 302
f 301 432 439
f 301 439 440
f 301 440 441
f 301 441 433
f 302 438 304
f 302 304 303
f 304 438 442
f 304 442 305
f 305 307 306
f 305 442 443
f 305 443 307
f 307 443 308
f 308 443 442
f 308 442 444
f 308 444 445
f 308 445 446
f 308 446 309
f 309 446 447
f 309 447 448
f 309 448 310
f 310 448 449
f 310 449 311
f 311 449 448
f 311 448 344
f 312 347 318
f 312 318 313
f 313 318 315
f 316 450 451
f 316 451 452
f 316 452 453
f 316 453 454
f 316 454 317
f 316 319 450
f 317 454 320
f 318 347 319
f 319 347 455
f 319 455 450
f 320 454 456
f 320 456 323
f 320 323 322
f 320 322 321
f 323 456 457
f 323 457 324
f 324 458 459
f 324 459 460
f 324 460 331
f 324 457 458
f 325 332 461
f 325 461 462
f 325 462 326
f 326 461 327
f 326 462 461
f 327 463 464
f 327 464 333
f 327 333 329
f 327 329 328
f 327 461 465
f 327 465 463
f 329 333 330
f 331 460 332
f 332 460 461
f 333 466 335
f 333 335 334
f 333 464 466
f 335 466 467
f 335 467 468
f 335 468 336
f 336 468 337
f 337 468 469
f 337 469 470
f 337 470 338
f 338 470 471
f 338 471 339
f 339 341 340
f 339 471 472
f 339 472 416
f 339 342 341
f 345 408 455
f 345 455 346
f 346 455 347
f 348 353 473
f 348 473 354
f 350 474 475
f 350 475 476
f 350 476 351
f 351 476 477
f 351 477 352
f 352 477 353
f 353 477 478
f 353 478 473
f 354 479 480
f 354 480 481
f 354 481 357
f 354 357 355
f 354 473 482
f 354 482 479
f 355 357 356
f 357 360 358
f 357 481 362
f 357 362 359
f 357 359 360
f 359 362 361
f 362 483 484
f 362 484 485
f 362 485 486
f 362 486 487
f 362 487 488
f 362 488 363
f 362 481 489
f 362 489 483
f 363 488 364
f 364 488 487
f 364 487 365
f 365 487 366
f 366 487 486
f 366 486 490
f 366 490 367
f 367 490 368
f 368 490 491
f 368 491 492
f 368 492 370
f 370 492 493
f 370 493 494
f 370 494 495
f 370 495 371
f 371 495 372
f 372 495 375
f 373 496 376
f 373 375 495
f 373 495 496
f 376 497 500
f 376 500 498
f 376 498 377
f 376 496 497
f 377 499 379
f 377 498 500
f 377 500 501
f 377 501 499
f 379 502 380
f 379 499 502
f 380 502 503
f 380 503 381
f 381 503 382
f 382 503 383
f 383 504 505
f 383 505 506
f 383 506 507
f 383 507 508
f 383 508 509
f 383 509 510
f 383 510 385
f 383 385 384
f 383 503 511
f 383 511 504
f 385 510 386
f 386 510 512
f 386 512 387
f 387 512 513
f 387 513 388
f 388 514 398
f 388 398 515
f 388 515 389
f 388 513 514
f 389 515 390
f 390 515 398
f 391 516 517
f 391 517 475
f 391 475 392
f 392 475 474
f 393 403 394
f 394 403 518
f 394 518 519
f 394 519 520
f 394 520 395
f 395 520 521
f 395 521 522
f 395 522 396
f 396 522 523
f 396 523 397
f 398 514 524
f 398 524 525
f 398 525 399
f 399 525 401
f 399 401 400
f 401 525 526
f 401 526 518
f 401 518 402
f 402 518 403
f 404 407 527
f 404 527 405
f 405 408 406
f 405 527 528
f 405 528 455
f 405 455 408
f 407 529 527
f 407 410 529
f 409 415 530
f 409 530 531
f 409 531 410
f 410 531 529
f 411 523 635
f 411 635 532
f 411 532 412
f 412 532 533
f 412 533 534
f 412 534 413
f 413 534 535
f 413 535 536
f 413 536 414
f 414 536 415
f 415 536 530
f 416 537 538
f 416 538 417
f 416 472 537
f 417 538 539
f 417 539 418
f 418 539 540
f 418 540 419
f 419 540 541
f 419 541 420
f 420 541 421
f 421 541 427
f 422 542 543
f 422 543 423
f 422 428 541
f 422 541 542
f 423 543 426
f 423 426 424
f 424 426 425
f 426 543 544
f 426 544 439
f 426 439 430
f 427 541 428
f 430 439 431
f 431 439 432
f 433 441 545
f 433 545 546
f 433 546 547
f 433 547 434
f 434 547 548
f 434 548 549
f 434 549 435
f 435 549 550
f 435 550 551
f 435 551 436
f 436 551 552
f 436 552 553
f 436 553 442
f 436 442 437
f 437 442 438
f 439 544 543
f 439 543 542
f 439 542 440
f 440 542 554
f 440 554 555
f 440 555 556
f 440 556 545
f 440 545 441
f 442 553 557
f 442 557 444
f 444 557 558
f 444 558 445
f 445 558 552
f 445 552 559
f 445 559 560
f 445 560 561
f 445 561 562
f 445 562 563
f 445 563 446
f 446 563 562
f 446 562 564
f 446 564 447
f 450 455 528
f 450 528 451
f 451 528 565
f 451 565 452
f 452 565 453
f 453 565 566
f 453 566 454
f 454 566 457
f 454 457 456
f 457 566 458
f 458 566 567
f 458 567 568
f 458 568 569
f 458 569 459
f 459 569 460
f 460 465 461
f 460 569 465
f 463 465 570
f 463 570 571
f 463 571 572
f 463 572 573
f 463 573 574
f 463 574 464
f 464 574 466
f 465 569 575
f 465 575 576
f 465 576 570
f 466 577 467
f 466 574 577
f 467 577 578
f 467 578 579
f 467 579 468
f 468 579 580
f 468 580 469
f 469 580 581
f 469 581 582
f 469 582 470
f 470 582 471
f 471 583 584
f 471 584 585
f 471 585 537
f 471 537 472
f 471 582 581
f 471 581 583
f 473 478 586
f 473 586 482
f 475 517 477
f 475 477 476
f 477 517 589
f 477 589 478
f 478 587 588
f 478 588 586
f 478 589 587
f 479 590 480
f 479 482 591
f 479 591 592
f 479 592 590
f 480 590 481
f 481 593 489
f 481 590 594
f 481 594 593
f 482 586 595
f 482 595 596
f 482 596 591
f 483 489 593
f 483 593 484
f 484 597 598
f 484 598 599
f 484 599 600
f 484 600 485
f 484 593 601
f 484 601 602
f 484 602 597
f 485 600 486
f 486 600 490
f 490 603 491
f 490 600 604
f 490 604 599
f 490 599 603
f 491 603 605
f 491 605 492
f 492 606 607
f 492 607 493
f 492 605 606
f 493 608 609
f 493 609 494
f 493 607 608
f 494 609 722
f 494 722 610
f 494 610 495
f 495 610 611
f 495 611 496
f 496 612 613
f 496 613 497
f 496 611 612
f 497 614 615
f 497 615 500
f 497 613 614
f 499 501 616
f 499 616 617
f 499 617 511
f 499 511 502
f 500 615 616
f 500 616 501
f 502 511 503
f 504 511 505
f 505 511 618
f 505 618 619
f 505 619 620
f 505 620 621
f 505 621 506
f 506 621 507
f 507 621 622
f 507 622 623
f 507 623 508
f 508 623 624
f 508 624 509
f 509 624 625
f 509 625 626
f 509 626 510
f 510 626 512
f 511 617 627
f 511 627 618
f 512 626 625
f 512 625 513
f 513 524 514
f 513 625 524
f 516 628 589
f 516 589 517
f 518 629 519
f 518 526 629
f 519 629 630
f 519 630 520
f 520 630 631
f 520 631 632
f 520 632 521
f 521 632 633
f 521 633 522
f 522 633 634
f 522 634 635
f 522 635 523
f 524 625 526
f 524 526 525
f 526 625 629
f 527 529 636
f 527 636 528
f 528 636 637
f 528 637 565
f 529 531 638
f 529 638 639
f 529 639 640
f 529 640 636
f 530 536 641
f 530 641 531
f 531 641 638
f 532 635 743
f 532 743 642
f 532 642 533
f 533 642 643
f 533 643 534
f 534 644 535
f 534 643 645
f 534 645 644
f 535 644 536
f 536 644 641
f 537 646 647
f 537 647 648
f 537 648 649
f 537 649 650
f 537 650 538
f 537 585 646
f 538 650 651
f 538 651 539
f 539 651 652
f 539 652 540
f 540 652 653
f 540 653 654
f 540 654 541
f 541 654 655
f 541 655 542
f 542 655 656
f 542 656 657
f 542 657 658
f 542 658 659
f 542 659 660
f 542 660 554
f 545 556 661
f 545 661 662
f 545 662 546
f 546 662 663
f 546 663 664
f 546 664 547
f 547 664 665
f 547 665 548
f 548 665 666
f 548 666 549
f 549 666 550
f 550 666 551
f 551 666 667
f 551 667 668
f 551 668 559
f 551 559 552
f 552 558 557
f 552 557 553
f 554 660 669
f 554 669 555
f 555 669 670
f 555 670 556
f 556 671 672
f 556 672 661
f 556 670 671
f 559 668 673
f 559 673 560
f 565 568 566
f 565 637 674
f 565 674 675
f 565 675 569
f 565 569 568
f 566 568 567
f 569 675 676
f 569 676 677
f 569 677 575
f 570 678 572
f 570 572 571
f 570 576 678
f 572 678 679
f 572 679 680
f 572 680 681
f 572 681 682
f 572 682 683
f 572 683 684
f 572 684 685
f 572 685 573
f 573 685 577
f 573 577 574
f 575 677 576
f 576 677 686
f 576 686 678
f 577 685 578
f 578 685 684
f 578 684 687
f 578 687 579
f 579 688 689
f 579 689 580
f 579 687 688
f 580 689 583
f 580 583 581
f 583 690 691
f 583 691 584
f 583 689 690
f 584 691 692
f 584 692 585
f 585 692 647
f 585 647 646
f 586 588 595
f 587 693 588
f 587 589 694
f 587 694 695
f 587 695 696
f 587 696 697
f 587 697 693
f 588 693 596
f 588 596 595
f 589 628 698
f 589 698 694
f 590 592 699
f 590 699 594
f 591 700 592
f 591 596 700
f 592 700 701
f 592 701 699
f 593 594 601
f 594 699 702
f 594 702 703
f 594 703 601
f 596 693 704
f 596 704 700
f 597 705 598
f 597 602 706
f 597 706 707
f 597 707 705
f 598 705 708
f 598 708 599
f 599 708 603
f 599 604 600
f 601 703 709
f 601 709 602
f 602 710 711
f 602 711 707
f 602 707 706
f 602 709 712
f 602 712 710
f 603 713 714
f 603 714 605
f 603 708 713
f 605 715 606
f 605 714 715
f 606 716 607
f 606 715 717
f 606 717 716
f 607 716 608
f 608 718 719
f 608 719 609
f 608 716 720
f 608 720 718
f 609 719 721
f 609 721 722
f 610 722 723
f 610 723 724
f 610 724 725
f 610 725 611
f 611 725 612
f 612 726 613
f 612 725 727
f 612 727 726
f 613 726 614
f 614 728 615
f 614 726 729
f 614 729 730
f 614 730 728
f 615 731 616
f 615 728 731
f 616 731 617
f 617 731 728
f 617 728 627
f 618 732 619
f 618 627 732
f 619 732 733
f 619 733 620
f 620 733 734
f 620 734 735
f 620 735 736
f 620 736 633
f 620 633 737
f 620 737 621
f 621 737 632
f 621 632 622
f 622 632 631
f 622 631 623
f 623 631 624
f 624 630 629
f 624 629 625
f 624 631 630
f 627 728 730
f 627 730 738
f 627 738 739
f 627 739 740
f 627 740 733
f 627 733 732
f 632 737 741
f 632 741 633
f 633 741 737
f 633 736 742
f 633 742 743
f 633 743 634
f 634 743 635
f 636 640 744
f 636 744 637
f 637 744 674
f 638 641 745
f 638 745 746
f 638 746 747
f 638 747 748
f 638 748 639
f 639 744 640
f 639 748 744
f 641 644 745
f 642 743 833
f 642 833 749
f 642 749 750
f 642 750 643
f 643 750 751
f 643 751 645
f 644 645 752
f 644 752 753
f 644 753 745
f 645 751 752
f 647 692 648
f 648 754 755
f 648 755 756
f 648 756 757
f 648 757 651
f 648 651 649
f 648 692 754
f 649 651 650
f 651 757 758
f 651 758 652
f 652 758 759
f 652 759 653
f 653 759 654
f 654 656 655
f 654 759 760
f 654 760 656
f 656 760 657
f 657 760 758
f 657 758 658
f 658 758 756
f 658 756 761
f 658 761 762
f 658 762 659
f 659 762 660
f 660 762 763
f 660 763 764
f 660 764 765
f 660 765 670
f 660 670 669
f 661 672 662
f 662 672 766
f 662 766 767
f 662 767 768
f 662 768 769
f 662 769 770
f 662 770 663
f 663 770 771
f 663 771 664
f 664 771 772
f 664 772 665
f 665 772 666
f 666 773 667
f 666 772 773
f 667 773 774
f 667 774 775
f 667 775 776
f 667 776 668
f 668 776 777
f 668 777 673
f 670 765 778
f 670 778 671
f 671 778 779
f 671 779 768
f 671 768 767
f 671 767 766
f 671 766 672
f 674 744 748
f 674 748 780
f 674 780 676
f 674 676 675
f 676 780 748
f 676 748 781
f 676 781 677
f 677 781 782
f 677 782 783
f 677 783 686
f 678 686 783
f 678 783 784
f 678 784 679
f 679 784 680
f 680 785 786
f 680 786 681
f 680 784 787
f 680 787 785
f 681 786 682
f 682 786 788
f 682 788 789
f 682 789 684
f 682 684 683
f 684 789 687
f 687 789 688
f 688 789 790
f 688 790 791
f 688 791 792
f 688 792 689
f 689 792 690
f 690 793 794
f 690 794 692
f 690 692 691
f 690 792 793
f 692 794 795
f 692 795 796
f 692 796 754
f 693 697 797
f 693 797 700
f 693 700 704
f 694 698 798
f 694 798 799
f 694 799 695
f 695 799 800
f 695 800 801
f 695 801 802
f 695 802 803
f 695 803 696
f 696 803 697
f 697 803 804
f 697 804 797
f 699 701 702
f 700 805 807
f 700 807 701
f 700 797 806
f 700 806 805
f 701 807 808
f 701 808 702
f 702 808 703
f 703 712 709
f 703 808 712
f 705 707 711
f 705 711 809
f 705 809 810
f 705 810 811
f 705 811 812
f 705 812 708
f 708 812 714
f 708 714 713
f 710 813 711
f 710 712 814
f 710 814 815
f 710 815 813
f 711 816 817
f 711 817 809
f 711 813 816
f 712 808 814
f 714 812 818
f 714 818 717
f 714 717 715
f 716 819 820
f 716 820 720
f 716 717 821
f 716 821 822
f 716 822 819
f 717 823 819
f 717 819 822
f 717 822 821
f 717 818 823
f 718 720 820
f 718 820 824
f 718 824 825
f 718 825 719
f 719 825 721
f 721 825 723
f 721 723 722
f 723 825 824
f 723 824 826
f 723 826 827
f 723 827 828
f 723 828 738
f 723 738 730
f 723 730 729
f 723 729 726
f 723 726 727
f 723 727 724
f 724 727 725
f 733 829 734
f 733 740 830
f 733 830 829
f 734 829 831
f 734 831 832
f 734 832 735
f 735 833 736
f 735 832 833
f 736 833 743
f 736 743 742
f 738 834 739
f 738 828 835
f 738 835 834
f 739 836 740
f 739 834 836
f 740 836 837
f 740 837 830
f 745 753 746
f 746 753 747
f 747 753 838
f 747 838 748
f 748 838 839
f 748 839 840
f 748 840 841
f 748 841 787
f 748 787 782
f 748 782 781
f 749 842 750
f 749 833 832
f 749 832 843
f 749 843 842
f 750 842 751
f 751 842 844
f 751 844 845
f 751 845 846
f 751 846 840
f 751 840 752
f 752 839 838
f 752 838 753
f 752 840 839
f 754 796 847
f 754 847 848
f 754 848 755
f 755 849 850
f 755 850 756
f 755 848 849
f 756 758 757
f 756 850 763
f 756 763 761
f 758 760 759
f 761 763 762
f 763 850 851
f 763 851 764
f 764 852 765
f 764 851 853
f 764 853 852
f 765 852 854
f 765 854 855
f 765 855 856
f 765 856 778
f 768 779 857
f 768 857 858
f 768 858 859
f 768 859 860
f 768 860 769
f 769 860 861
f 769 861 770
f 770 861 862
f 770 862 771
f 771 862 773
f 771 773 772
f 773 862 863
f 773 863 774
f 774 863 864
f 774 864 775
f 775 864 865
f 775 865 866
f 775 866 867
f 775 867 776
f 776 867 777
f 778 856 855
f 778 855 868
f 778 868 779
f 779 868 857
f 782 787 784
f 782 784 783
f 785 787 869
f 785 869 870
f 785 870 871
f 785 871 872
f 785 872 873
f 785 873 786
f 786 873 788
f 787 841 840
f 787 840 874
f 787 874 869
f 788 873 875
f 788 875 876
f 788 876 789
f 789 876 790
f 790 876 791
f 791 876 877
f 791 877 878
f 791 878 879
f 791 879 792
f 792 879 793
f 793 880 883
f 793 883 794
f 793 879 881
f 793 881 882
f 793 882 880
f 794 883 795
f 795 883 884
f 795 884 847
f 795 847 796
f 797 804 806
f 799 801 800
f 801 885 802
f 802 885 886
f 802 886 887
f 802 887 803
f 803 888 804
f 803 887 888
f 804 888 889
f 804 889 890
f 804 890 806
f 805 891 893
f 805 893 807
f 805 806 891
f 806 890 892
f 806 892 891
f 807 893 814
f 807 814 808
f 809 817 894
f 809 894 895
f 809 895 810
f 810 895 811
f 811 896 897
f 811 897 898
f 811 898 812
f 811 895 896
f 812 898 818
f 813 815 899
f 813 899 934
f 813 934 900
f 813 900 902
f 813 902 816
f 814 901 815
f 814 893 901
f 815 901 899
f 816 902 903
f 816 903 817
f 817 903 959
f 817 959 894
f 818 898 823
f 819 824 820
f 819 823 904
f 819 904 824
f 823 898 897
f 823 897 905
f 823 905 904
f 824 906 907
f 824 907 835
f 824 835 826
f 824 904 908
f 824 908 906
f 826 835 827
f 827 835 828
f 829 830 831
f 830 837 909
f 830 909 910
f 830 910 832
f 830 832 831
f 832 910 918
f 832 918 843
f 834 911 912
f 834 912 836
f 834 835 911
f 835 907 913
f 835 913 911
f 836 914 837
f 836 912 914
f 837 914 915
f 837 915 916
f 837 916 909
f 840 846 874
f 842 917 844
f 842 843 917
f 843 918 919
f 843 919 920
f 843 920 917
f 844 917 845
f 845 921 846
f 845 917 919
f 845 919 922
f 845 922 923
f 845 923 924
f 845 924 921
f 846 921 869
f 846 869 874
f 847 925 848
f 847 884 925
f 848 925 926
f 848 926 849
f 849 926 850
f 850 926 927
f 850 927 928
f 850 928 929
f 850 929 851
f 851 929 854
f 851 854 852
f 851 852 853
f 854 930 931
f 854 931 855
f 854 929 928
f 854 928 932
f 854 932 933
f 854 933 930
f 855 931 868
f 857 868 931
f 857 931 900
f 857 900 858
f 858 900 934
f 858 934 859
f 859 901 893
f 859 893 860
f 859 934 899
f 859 899 901
f 860 893 891
f 860 891 861
f 861 891 892
f 861 892 935
f 861 935 862
f 862 935 936
f 862 936 863
f 863 936 937
f 863 937 938
f 863 938 864
f 864 938 939
f 864 939 865
f 865 939 940
f 865 940 941
f 865 941 942
f 865 942 866
f 866 942 867
f 869 921 871
f 869 871 870
f 871 923 943
f 871 943 944
f 871 944 872
f 871 921 924
f 871 924 923
f 872 944 876
f 872 876 875
f 872 875 873
f 876 944 877
f 877 944 945
f 877 945 946
f 877 946 878
f 878 946 881
f 878 881 879
f 880 947 883
f 880 882 947
f 881 946 882
f 882 946 945
f 882 945 944
f 882 944 948
f 882 948 949
f 882 949 950
f 882 950 951
f 882 951 952
f 882 952 947
f 883 953 884
f 883 947 953
f 884 953 954
f 884 954 955
f 884 955 956
f 884 956 925
f 886 957 887
f 887 957 958
f 887 958 889
f 887 889 888
f 889 958 984
f 889 984 937
f 889 937 936
f 889 936 890
f 890 936 935
f 890 935 892
f 894 959 960
f 894 960 895
f 895 960 961
f 895 961 896
f 896 961 962
f 896 962 897
f 897 962 964
f 897 964 905
f 900 931 902
f 902 931 903
f 903 930 959
f 903 931 930
f 904 905 963
f 904 963 908
f 905 964 995
f 905 995 963
f 906 965 966
f 906 966 907
f 906 908 967
f 906 967 965
f 907 966 968
f 907 968 913
f 908 963 967
f 909 969 910
f 909 916 969
f 910 969 973
f 910 973 918
f 911 970 971
f 911 971 912
f 911 913 968
f 911 968 970
f 912 971 914
f 914 971 915
f 915 971 916
f 916 972 973
f 916 973 969
f 916 971 974
f 916 974 972
f 917 920 919
f 918 973 975
f 918 975 919
f 919 975 976
f 919 976 977
f 919 977 922
f 922 977 923
f 923 977 978
f 923 978 943
f 925 956 955
f 925 955 979
f 925 979 926
f 926 979 980
f 926 980 981
f 926 981 982
f 926 982 927
f 927 982 928
f 928 982 983
f 928 983 932
f 930 933 960
f 930 960 959
f 932 983 962
f 932 962 961
f 932 961 960
f 932 960 933
f 937 984 939
f 937 939 938
f 939 984 985
f 939 985 940
f 943 978 986
f 943 986 948
f 943 948 944
f 947 952 954
f 947 954 953
f 948 986 949
f 949 986 950
f 950 987 951
f 950 986 988
f 950 988 987
f 951 954 952
f 951 987 989
f 951 989 990
f 951 990 991
f 951 991 992
f 951 992 993
f 951 993 994
f 951 994 955
f 951 955 954
f 955 994 979
f 962 983 980
f 962 980 964
f 963 995 1008
f 963 1008 996
f 963 996 967
f 964 980 993
f 964 993 995
f 965 996 997
f 965 997 966
f 965 967 996
f 966 998 968
f 966 997 998
f 968 998 999
f 968 999 970
f 970 999 974
f 970 974 971
f 972 974 1000
f 972 1000 978
f 972 978 976
f 972 976 975
f 972 975 973
f 974 999 1001
f 974 1001 1000
f 976 978 977
f 978 1000 986
f 979 993 980
f 979 994 993
f 980 983 981
f 981 983 982
f 986 1000 1001
f 986 1001 1002
f 986 1002 988
f 987 1003 989
f 987 988 1002
f 987 1002 1003
f 989 1003 1004
f 989 1004 990
f 990 1004 1005
f 990 1005 1006
f 990 1006 1007
f 990 1007 991
f 991 1007 992
f 992 1007 995
f 992 995 993
f 995 1007 1008
f 996 1008 997
f 997 1008 1006
f 997 1006 1009
f 997 1009 998
f 998 1009 1005
f 998 1005 1001
f 998 1001 999
f 1001 1005 1010
f 1001 1010 1003
f 1001 1003 1002
f 1003 1010 1004
f 1004 1010 1005
f 1005 1009 1006
f 1006 1008 1007

