# https://github.com/mikedh/trimesh
v -0.00336001 0.01006786 -0.00622190
v -0.00336001 0.01006505 -0.00610559
v -0.00336001 0.01006575 -0.00623754
v -0.00384426 0.01006505 -0.00596094
v -0.00413173 0.01006786 -0.00572636
v -0.00403676 0.01006786 -0.00566039
v -0.00557762 0.01006575 -0.00414982
v -0.00354310 0.01006014 -0.00593357
v -0.00336001 0.00993184 -0.00601812
v -0.00336001 0.00999704 -0.00657865
v -0.00341477 0.00999143 -0.00657865
v -0.00343102 0.01004191 -0.00631867
v -0.00393067 0.00998442 -0.00632062
v -0.00418819 0.00995217 -0.00632062
v -0.00418819 0.01000125 -0.00606259
v -0.00401623 0.01005453 -0.00589839
v -0.00459031 0.01006225 -0.00543021
v -0.00485639 0.01006365 -0.00518049
v -0.00511562 0.01006435 -0.00492685
v -0.00568970 0.01006645 -0.00414982
v -0.00838301 0.00692538 -0.00414933
v -0.00550062 0.00993113 -0.00414982
v -0.00336001 0.00967312 -0.00596778
v -0.00336001 0.00998582 -0.00663241
v -0.00341477 0.00993674 -0.00683522
v -0.00367229 0.00996198 -0.00657865
v -0.00393067 0.00992973 -0.00657865
v -0.00418819 0.00988977 -0.00657865
v -0.00444657 0.00991150 -0.00632062
v -0.00470410 0.00992623 -0.00606259
v -0.00444657 0.00996619 -0.00606259
v -0.00444657 0.01001387 -0.00580456
v -0.00470410 0.00997741 -0.00580456
v -0.00496248 0.00998442 -0.00554652
v -0.00476227 0.01004892 -0.00535251
v -0.00522086 0.00998723 -0.00528898
v -0.00547838 0.00994375 -0.00528898
v -0.00547838 0.00998582 -0.00503095
v -0.00528759 0.01004963 -0.00483009
v -0.00536117 0.01006225 -0.00465807
v -0.00565976 0.01006575 -0.00420993
v -0.00580606 0.01005383 -0.00414982
v -0.01033283 0.00692538 -0.00414933
v -0.01047656 0.00290509 -0.00414933
v -0.00552030 0.00917882 -0.00414982
v -0.00547068 0.00933587 -0.00414982
v -0.00545186 0.00941510 -0.00414982
v -0.00545186 0.00967312 -0.00414982
v -0.00547838 0.00982526 -0.00414982
v -0.00336001 0.00941510 -0.00596436
v -0.00336001 0.00994235 -0.00683522
v -0.00367229 0.00990169 -0.00683522
v -0.00336001 0.00992903 -0.00688898
v -0.00418819 0.00982737 -0.00678097
v -0.00435588 0.00981054 -0.00673162
v -0.00444401 0.00983859 -0.00658452
v -0.00394436 0.00984910 -0.00685428
v -0.00472121 0.00985050 -0.00633968
v -0.00496248 0.00987785 -0.00606259
v -0.00496248 0.00993744 -0.00580456
v -0.00522086 0.00994165 -0.00554652
v -0.00547838 0.00988977 -0.00554652
v -0.00573676 0.00988907 -0.00528898
v -0.00573676 0.00993815 -0.00503095
v -0.00573676 0.00997881 -0.00477291
v -0.00573676 0.01001737 -0.00451488
v -0.00558960 0.01005944 -0.00438147
v -0.00574189 0.01004752 -0.00428031
v -0.00599257 0.01002018 -0.00414982
v -0.00941396 0.00816218 -0.00414982
v -0.00951320 0.00804509 -0.00414982
v -0.00974421 0.00775202 -0.00414982
v -0.00985115 0.00761109 -0.00414982
v -0.00997007 0.00744983 -0.00414982
v -0.01030460 0.00692538 -0.00422362
v -0.01047485 0.00665825 -0.00425734
v -0.01049453 0.00668840 -0.00414933
v -0.00625181 0.00996970 -0.00414982
v -0.00635961 0.00994726 -0.00414982
v -0.00651019 0.00991220 -0.00414982
v -0.00661799 0.00988416 -0.00414982
v -0.00676343 0.00984069 -0.00414982
v -0.00691743 0.00979091 -0.00414982
v -0.00702267 0.00975515 -0.00414982
v -0.00710052 0.00972781 -0.00414982
v -0.00728361 0.00966120 -0.00414982
v -0.00738714 0.00961843 -0.00414982
v -0.00749066 0.00957426 -0.00414982
v -0.00761215 0.00951466 -0.00414982
v -0.00789791 0.00936742 -0.00414982
v -0.00799972 0.00931414 -0.00414982
v -0.00811950 0.00924543 -0.00414982
v -0.00816826 0.00921247 -0.00414982
v -0.00830686 0.00911852 -0.00414982
v -0.00837274 0.00907365 -0.00414982
v -0.00844033 0.00902597 -0.00414982
v -0.00858406 0.00892291 -0.00414982
v -0.00865508 0.00887102 -0.00414982
v -0.00874577 0.00880441 -0.00414982
v -0.00887752 0.00869153 -0.00414982
v -0.00901441 0.00856533 -0.00414982
v -0.00927536 0.00831222 -0.00414982
v -0.00728447 0.00290509 -0.00863314
v -0.00336001 0.00851415 -0.00670816
v -0.00336001 0.00899512 -0.00615397
v -0.00336001 0.00915638 -0.00603620
v -0.00561099 0.00904771 -0.00414982
v -0.01210042 0.00290509 -0.00414933
v -0.00336001 0.00940458 -0.00596583
v -0.00336001 0.00986523 -0.00711133
v -0.00343787 0.00985191 -0.00711818
v -0.00367229 0.00983368 -0.00705660
v -0.00418819 0.00972079 -0.00709325
v -0.00386736 0.00981475 -0.00700284
v -0.00394436 0.00976987 -0.00709032
v -0.00444401 0.00976076 -0.00682447
v -0.00452785 0.00979161 -0.00667297
v -0.00464677 0.00981895 -0.00650242
v -0.00496248 0.00982176 -0.00625562
v -0.00510450 0.00980563 -0.00620236
v -0.00520289 0.00982526 -0.00604939
v -0.00522086 0.00988626 -0.00580456
v -0.00572735 0.00983017 -0.00553773
v -0.00588990 0.00980914 -0.00544536
v -0.00598316 0.00982596 -0.00527090
v -0.00599343 0.00987925 -0.00503095
v -0.00599343 0.00992973 -0.00477291
v -0.00599343 0.00997040 -0.00451488
v -0.00625181 0.00995567 -0.00425685
v -0.00950379 0.00803387 -0.00419527
v -0.00925140 0.00828908 -0.00425685
v -0.00922060 0.00825753 -0.00439319
v -0.00939428 0.00812151 -0.00427151
v -0.00970827 0.00770784 -0.00432478
v -0.00976816 0.00752765 -0.00451488
v -0.00990420 0.00733905 -0.00451146
v -0.01000601 0.00724439 -0.00442301
v -0.01023701 0.00694852 -0.00435605
v -0.01033968 0.00685106 -0.00426516
v -0.01029433 0.00677183 -0.00451537
v -0.01043037 0.00656850 -0.00451781
v -0.01052448 0.00647806 -0.00443376
v -0.01057667 0.00656009 -0.00414933
v -0.00625181 0.00991711 -0.00451488
v -0.00651019 0.00989468 -0.00425685
v -0.00652045 0.00984139 -0.00451684
v -0.00676001 0.00982526 -0.00423192
v -0.00684129 0.00978390 -0.00430132
v -0.00699957 0.00974604 -0.00423192
v -0.00728361 0.00963806 -0.00425685
v -0.00745558 0.00956514 -0.00425685
v -0.00779866 0.00939126 -0.00425685
v -0.00758391 0.00950064 -0.00425685
v -0.00793042 0.00928749 -0.00439173
v -0.00809297 0.00922720 -0.00425685
v -0.00831542 0.00908487 -0.00423290
v -0.00821960 0.00905261 -0.00451488
v -0.00834879 0.00896007 -0.00451488
v -0.00852503 0.00883176 -0.00451488
v -0.00869272 0.00876305 -0.00436925
v -0.00900072 0.00855131 -0.00420896
v -0.00716555 0.00290509 -0.00886772
v -0.00336001 0.00696675 -0.00885061
v -0.00336001 0.00709225 -0.00863265
v -0.01208844 0.00296749 -0.00414933
v -0.01203882 0.00290509 -0.00433944
v -0.00336001 0.00984630 -0.00716949
v -0.00354053 0.00980142 -0.00722080
v -0.00367229 0.00978951 -0.00718562
v -0.00444657 0.00966611 -0.00709325
v -0.00393067 0.00968083 -0.00735129
v -0.00367229 0.00973131 -0.00735129
v -0.00470410 0.00969836 -0.00683522
v -0.00496248 0.00972009 -0.00657865
v -0.00520289 0.00975024 -0.00630107
v -0.00527647 0.00978319 -0.00612661
v -0.00546555 0.00975515 -0.00604939
v -0.00537143 0.00980774 -0.00595459
v -0.00546555 0.00982807 -0.00579429
v -0.00563495 0.00980914 -0.00570144
v -0.00572735 0.00975795 -0.00579429
v -0.00580691 0.00978600 -0.00561738
v -0.00598316 0.00975725 -0.00553773
v -0.00606187 0.00978390 -0.00534469
v -0.00637843 0.00980142 -0.00489851
v -0.00619363 0.00982316 -0.00503095
v -0.00627662 0.00985401 -0.00479637
v -0.00946700 0.00798619 -0.00436729
v -0.00917782 0.00821196 -0.00456522
v -0.00928734 0.00812572 -0.00449387
v -0.00909056 0.00833185 -0.00449387
v -0.00899473 0.00828698 -0.00477291
v -0.00896051 0.00825543 -0.00490340
v -0.00966635 0.00765666 -0.00451488
v -0.00973907 0.00748839 -0.00465514
v -0.00997007 0.00719321 -0.00459503
v -0.01018910 0.00692538 -0.00451488
v -0.01026096 0.00672486 -0.00466833
v -0.01049025 0.00642127 -0.00460578
v -0.01057667 0.00632872 -0.00451781
v -0.01068960 0.00630558 -0.00424903
v -0.01070671 0.00633923 -0.00414933
v -0.00661285 0.00979301 -0.00460382
v -0.00666932 0.00981194 -0.00443180
v -0.00644088 0.00982176 -0.00472649
v -0.00676001 0.00976356 -0.00451684
v -0.00676771 0.00970467 -0.00477291
v -0.00702523 0.00967312 -0.00451488
v -0.00727848 0.00957917 -0.00449387
v -0.00741708 0.00954621 -0.00439368
v -0.00703807 0.00960090 -0.00477878
v -0.00779609 0.00932676 -0.00449240
v -0.00788079 0.00926015 -0.00456375
v -0.00803223 0.00918653 -0.00449240
v -0.00818623 0.00902878 -0.00464585
v -0.00847541 0.00879530 -0.00471085
v -0.00843263 0.00876165 -0.00488287
v -0.00715785 0.00290509 -0.00889850
v -0.00336001 0.00695413 -0.00889899
v -0.01205764 0.00310631 -0.00414933
v -0.01203198 0.00296749 -0.00431989
v -0.01196524 0.00296749 -0.00451537
v -0.01202941 0.00290509 -0.00436680
v -0.00336001 0.00981545 -0.00725990
v -0.00343787 0.00977198 -0.00734689
v -0.00420530 0.00960931 -0.00737181
v -0.00444657 0.00958127 -0.00730144
v -0.00470581 0.00959739 -0.00710303
v -0.00367229 0.00963035 -0.00760932
v -0.00390671 0.00958057 -0.00760834
v -0.00341477 0.00967803 -0.00760932
v -0.00498472 0.00961422 -0.00685819
v -0.00522086 0.00965419 -0.00657865
v -0.00547838 0.00967031 -0.00632062
v -0.00573676 0.00967522 -0.00606259
v -0.00599343 0.00967873 -0.00580456
v -0.00625181 0.00967171 -0.00554652
v -0.00623298 0.00975094 -0.00527090
v -0.00651019 0.00972711 -0.00503095
v -0.00652045 0.00977969 -0.00479637
v -0.00943107 0.00794413 -0.00451488
v -0.00953802 0.00781512 -0.00451488
v -0.00925397 0.00804018 -0.00471134
v -0.00882790 0.00832554 -0.00500602
v -0.00873978 0.00828978 -0.00521958
v -0.00891174 0.00820354 -0.00507542
v -0.00949695 0.00776464 -0.00468348
v -0.00944989 0.00770714 -0.00485550
v -0.00952005 0.00753536 -0.00498208
v -0.00947214 0.00747647 -0.00515410
v -0.00943449 0.00742949 -0.00528898
v -0.00949096 0.00724439 -0.00544829
v -0.00954828 0.00709435 -0.00553919
v -0.00993585 0.00710207 -0.00479197
v -0.01002996 0.00702144 -0.00471818
v -0.01027465 0.00648787 -0.00495324
v -0.01031401 0.00657481 -0.00476167
v -0.01007959 0.00692538 -0.00475043
v -0.01005050 0.00657131 -0.00527285
v -0.01053902 0.00624949 -0.00470938
v -0.01075804 0.00592206 -0.00462875
v -0.01023016 0.00641986 -0.00512526
v -0.01028235 0.00624809 -0.00522789
v -0.01045518 0.00632872 -0.00478660
v -0.01071698 0.00606579 -0.00453150
v -0.01101129 0.00565493 -0.00435459
v -0.01074436 0.00615343 -0.00432966
v -0.01096423 0.00579936 -0.00426418
v -0.01077516 0.00621022 -0.00415764
v -0.01104637 0.00572504 -0.00414933
v -0.00676771 0.00964016 -0.00503095
v -0.00694909 0.00956795 -0.00503095
v -0.00718865 0.00956024 -0.00469668
v -0.00755739 0.00935480 -0.00478415
v -0.00770968 0.00930572 -0.00470547
v -0.00713218 0.00953359 -0.00486821
v -0.00736147 0.00951887 -0.00456570
v -0.00765407 0.00927768 -0.00487749
v -0.00779609 0.00922790 -0.00478415
v -0.00805105 0.00907856 -0.00474848
v -0.00813318 0.00899302 -0.00481787
v -0.00825467 0.00881914 -0.00503095
v -0.00820334 0.00878408 -0.00518782
v -0.00791929 0.00876375 -0.00566332
v -0.00838386 0.00871958 -0.00503095
v -0.00857893 0.00838934 -0.00529826
v -0.00727335 0.00290509 -0.00908959
v -0.00712619 0.00302218 -0.00905684
v -0.00346524 0.00692678 -0.00906222
v -0.00336001 0.00708033 -0.00909203
v -0.01205422 0.00311893 -0.00414933
v -0.01189765 0.00322550 -0.00451537
v -0.01197807 0.00290509 -0.00451390
v -0.01182493 0.00322550 -0.00470645
v -0.01185316 0.00297520 -0.00479002
v -0.01187113 0.00290509 -0.00478562
v -0.01195497 0.00290509 -0.00457646
v -0.00336001 0.00975795 -0.00741921
v -0.00336001 0.00968714 -0.00760932
v -0.00413087 0.00956444 -0.00752135
v -0.00462111 0.00955813 -0.00725013
v -0.00479308 0.00953149 -0.00719588
v -0.00491371 0.00957005 -0.00702386
v -0.00341477 0.00958618 -0.00782386
v -0.00367229 0.00955953 -0.00776814
v -0.00380405 0.00954481 -0.00773980
v -0.00336001 0.00966190 -0.00766992
v -0.00336001 0.00959038 -0.00783754
v -0.00522086 0.00957636 -0.00678049
v -0.00546640 0.00958267 -0.00657377
v -0.00564436 0.00955883 -0.00648433
v -0.00573334 0.00958968 -0.00631867
v -0.00599343 0.00959249 -0.00606405
v -0.00616967 0.00956304 -0.00597853
v -0.00625352 0.00959179 -0.00580358
v -0.00651019 0.00965769 -0.00528898
v -0.00902211 0.00812081 -0.00500602
v -0.00898789 0.00803107 -0.00520883
v -0.00920691 0.00798409 -0.00488336
v -0.00845573 0.00826524 -0.00569411
v -0.00868331 0.00823790 -0.00539161
v -0.00883902 0.00813483 -0.00530022
v -0.00916670 0.00793431 -0.00503095
v -0.00923001 0.00775412 -0.00518244
v -0.00929504 0.00760968 -0.00527676
v -0.00920349 0.00746385 -0.00565159
v -0.00934894 0.00735377 -0.00554994
v -0.00944476 0.00718059 -0.00562032
v -0.00973651 0.00671224 -0.00568287
v -0.00977329 0.00676412 -0.00554701
v -0.00968175 0.00692538 -0.00550840
v -0.00981436 0.00692538 -0.00525624
v -0.00996836 0.00641636 -0.00563302
v -0.01080253 0.00548596 -0.00503095
v -0.01089408 0.00554765 -0.00477487
v -0.01102412 0.00542215 -0.00464976
v -0.01023958 0.00617447 -0.00539991
v -0.01028749 0.00600339 -0.00549619
v -0.01098049 0.00559954 -0.00451537
v -0.01002568 0.00624458 -0.00573907
v -0.01105065 0.00547053 -0.00451537
v -0.01109428 0.00555957 -0.00426418
v -0.01114134 0.00554765 -0.00414933
v -0.00675488 0.00957356 -0.00526796
v -0.00690289 0.00954691 -0.00516827
v -0.00727848 0.00949152 -0.00477878
v -0.00728361 0.00940879 -0.00503095
v -0.00742478 0.00929240 -0.00517951
v -0.00707828 0.00950765 -0.00503095
v -0.00736660 0.00926155 -0.00535153
v -0.00760274 0.00924683 -0.00503095
v -0.00781064 0.00911361 -0.00503583
v -0.00752317 0.00919635 -0.00527481
v -0.00805105 0.00895516 -0.00503583
v -0.00796122 0.00905051 -0.00495373
v -0.00779780 0.00889907 -0.00554603
v -0.00761728 0.00899512 -0.00560028
v -0.00773877 0.00881704 -0.00580456
v -0.00768401 0.00877987 -0.00595019
v -0.00786710 0.00872168 -0.00580456
v -0.00795865 0.00854009 -0.00597364
v -0.00804934 0.00857795 -0.00578110
v -0.00818794 0.00851415 -0.00567945
v -0.00847284 0.00853869 -0.00520492
v -0.00829317 0.00836480 -0.00577279
v -0.00754114 0.00290509 -0.00914090
v -0.00336001 0.00735167 -0.00914090
v -0.01194385 0.00347861 -0.00414933
v -0.01199690 0.00320868 -0.00424023
v -0.01182664 0.00346739 -0.00450511
v -0.01180183 0.00337134 -0.00465611
v -0.01180525 0.00364128 -0.00441225
v -0.01178985 0.00306705 -0.00488727
v -0.01157425 0.00399885 -0.00472453
v -0.01132357 0.00398693 -0.00528849
v -0.01127566 0.00359640 -0.00566430
v -0.01154003 0.00310140 -0.00542142
v -0.01181552 0.00290509 -0.00491317
v -0.00420530 0.00949994 -0.00760834
v -0.00430284 0.00953990 -0.00747199
v -0.00397601 0.00952167 -0.00769337
v -0.00470752 0.00934779 -0.00762202
v -0.00470581 0.00948662 -0.00734249
v -0.00496248 0.00931344 -0.00753406
v -0.00510279 0.00929030 -0.00748812
v -0.00498472 0.00951045 -0.00710303
v -0.00508568 0.00954201 -0.00695984
v -0.00537229 0.00955182 -0.00672380
v -0.00336001 0.00956935 -0.00788055
v -0.00336001 0.00952728 -0.00796411
v -0.00341477 0.00952097 -0.00795287
v -0.00368683 0.00935621 -0.00814591
v -0.00378180 0.00928118 -0.00824560
v -0.00393067 0.00933237 -0.00808287
v -0.00413002 0.00930643 -0.00803400
v -0.00554511 0.00952237 -0.00665538
v -0.00584884 0.00927978 -0.00695104
v -0.00594209 0.00931694 -0.00677902
v -0.00607984 0.00952658 -0.00615055
v -0.00627576 0.00936742 -0.00634408
v -0.00637757 0.00928399 -0.00644573
v -0.00646570 0.00932045 -0.00627371
v -0.00663766 0.00928539 -0.00618965
v -0.00634164 0.00952728 -0.00588910
v -0.00641607 0.00955953 -0.00571708
v -0.00650505 0.00958337 -0.00553577
v -0.00893656 0.00797077 -0.00538085
v -0.00871240 0.00800863 -0.00569264
v -0.00822730 0.00829189 -0.00599319
v -0.00839926 0.00821126 -0.00586613
v -0.00863283 0.00818672 -0.00554652
v -0.00921889 0.00722546 -0.00593650
v -0.00926081 0.00727665 -0.00580456
v -0.00889977 0.00787822 -0.00557096
v -0.00895709 0.00773659 -0.00567310
v -0.00915301 0.00740566 -0.00580456
v -0.00950550 0.00700881 -0.00572832
v -0.00939428 0.00709435 -0.00581042
v -0.00992473 0.00632661 -0.00581677
v -0.01051164 0.00542706 -0.00568531
v -0.01076831 0.00542426 -0.00516827
v -0.01113535 0.00528824 -0.00451537
v -0.01067163 0.00526930 -0.00552795
v -0.01077002 0.00517045 -0.00542972
v -0.01104808 0.00526299 -0.00475043
v -0.01127224 0.00488158 -0.00462093
v -0.01020963 0.00607771 -0.00556803
v -0.01024471 0.00592627 -0.00566772
v -0.00997606 0.00616746 -0.00591060
v -0.01008130 0.00607350 -0.00581677
v -0.01122860 0.00528473 -0.00425929
v -0.01124571 0.00533171 -0.00414933
v -0.00665991 0.00955322 -0.00544292
v -0.00683188 0.00951536 -0.00534029
v -0.00703379 0.00934709 -0.00555190
v -0.00719463 0.00930502 -0.00546882
v -0.00728190 0.00933026 -0.00527481
v -0.00712448 0.00927207 -0.00564084
v -0.00728190 0.00922369 -0.00555190
v -0.00753515 0.00907996 -0.00552697
v -0.00772252 0.00906313 -0.00528898
v -0.00767717 0.00903298 -0.00542826
v -0.00744531 0.00904841 -0.00571512
v -0.00753515 0.00894815 -0.00580260
v -0.00761129 0.00872308 -0.00612221
v -0.00771824 0.00855131 -0.00624829
v -0.00778583 0.00863123 -0.00604793
v -0.00728618 0.00896357 -0.00607041
v -0.00703636 0.00897900 -0.00633821
v -0.00719378 0.00879670 -0.00649753
v -0.00711934 0.00874622 -0.00666857
v -0.00788935 0.00848049 -0.00614567
v -0.00799287 0.00830871 -0.00626980
v -0.00816484 0.00823580 -0.00616521
v -0.00813062 0.00846366 -0.00585147
v -0.00754114 0.00296749 -0.00914188
v -0.00779780 0.00290509 -0.00914188
v -0.00341477 0.00735167 -0.00914139
v -0.00336001 0.00760968 -0.00914139
v -0.01190877 0.00359079 -0.00414933
v -0.01177873 0.00381305 -0.00433211
v -0.01174365 0.00373312 -0.00450511
v -0.01177445 0.00354312 -0.00458428
v -0.01154944 0.00415801 -0.00466784
v -0.01165638 0.00399885 -0.00451537
v -0.01149982 0.00296749 -0.00558855
v -0.01150752 0.00290509 -0.00560517
v -0.01126026 0.00406406 -0.00537401
v -0.01130218 0.00342392 -0.00571952
v -0.01146217 0.00320237 -0.00552307
v -0.01121320 0.00398693 -0.00553040
v -0.01107631 0.00399184 -0.00580895
v -0.01115845 0.00374084 -0.00580456
v -0.00420530 0.00935971 -0.00788788
v -0.00430198 0.00928189 -0.00798757
v -0.00479564 0.00927417 -0.00771634
v -0.00496248 0.00924332 -0.00766307
v -0.00520118 0.00918934 -0.00758830
v -0.00527476 0.00925524 -0.00742361
v -0.00556222 0.00926927 -0.00718904
v -0.00567687 0.00931063 -0.00701702
v -0.00547752 0.00934218 -0.00709912
v -0.00546640 0.00947470 -0.00682007
v -0.00336001 0.00951466 -0.00798806
v -0.00336001 0.00944315 -0.00812294
v -0.00336001 0.00930923 -0.00837364
v -0.00393067 0.00926085 -0.00821139
v -0.00336001 0.00925664 -0.00846405
v -0.00341477 0.00924893 -0.00845232
v -0.00575216 0.00923771 -0.00709912
v -0.00592327 0.00905612 -0.00726674
v -0.00609524 0.00901405 -0.00719832
v -0.00618849 0.00906383 -0.00702630
v -0.00601396 0.00925033 -0.00685330
v -0.00611406 0.00928189 -0.00669790
v -0.00627576 0.00925454 -0.00659918
v -0.00653500 0.00925805 -0.00634408
v -0.00671295 0.00906944 -0.00652099
v -0.00678653 0.00912623 -0.00633821
v -0.00678482 0.00925174 -0.00608751
v -0.00688150 0.00927908 -0.00591549
v -0.00848311 0.00803878 -0.00598782
v -0.00865508 0.00794272 -0.00586467
v -0.00893142 0.00692889 -0.00666857
v -0.00893656 0.00692538 -0.00666515
v -0.00922402 0.00697446 -0.00620236
v -0.00926167 0.00707402 -0.00603864
v -0.00945417 0.00693520 -0.00590034
v -0.00872865 0.00777024 -0.00597071
v -0.00873892 0.00752485 -0.00624292
v -0.00864224 0.00710908 -0.00685721
v -0.00869614 0.00695903 -0.00695739
v -0.00946700 0.00692538 -0.00589057
v -0.00954657 0.00692538 -0.00575666
v -0.00974506 0.00646684 -0.00595214
v -0.01051079 0.00516834 -0.00594090
v -0.01054244 0.00526720 -0.00578452
v -0.01024471 0.00566755 -0.00592673
v -0.01046373 0.00534012 -0.00585733
v -0.01126710 0.00512627 -0.00434628
v -0.01072896 0.00507790 -0.00560126
v -0.01076660 0.00490612 -0.00567945
v -0.01101642 0.00462777 -0.00540285
v -0.01102241 0.00515923 -0.00490242
v -0.01113877 0.00502952 -0.00477291
v -0.01130817 0.00470980 -0.00470352
v -0.01151778 0.00432979 -0.00458721
v -0.01147500 0.00450437 -0.00450706
v -0.01154944 0.00441042 -0.00441567
v -0.01002483 0.00599498 -0.00598733
v -0.00979212 0.00630628 -0.00604793
v -0.00974677 0.00621093 -0.00621164
v -0.00951577 0.00599498 -0.00676925
v -0.00945759 0.00590663 -0.00694078
v -0.00974335 0.00595010 -0.00646625
v -0.01126710 0.00528473 -0.00414933
v -0.00703379 0.00923912 -0.00581970
v -0.00728618 0.00910099 -0.00580260
v -0.00737345 0.00900424 -0.00588715
v -0.00729730 0.00865437 -0.00659625
v -0.00747355 0.00856252 -0.00652245
v -0.00740168 0.00850363 -0.00669350
v -0.00764551 0.00849241 -0.00642032
v -0.00792101 0.00824912 -0.00644182
v -0.00720148 0.00905682 -0.00598977
v -0.00695679 0.00906524 -0.00626393
v -0.00688407 0.00902106 -0.00643595
v -0.00703037 0.00885209 -0.00658159
v -0.00694738 0.00880091 -0.00675556
v -0.00685754 0.00874342 -0.00692758
v -0.00704833 0.00865928 -0.00685721
v -0.00714843 0.00850854 -0.00695935
v -0.00743334 0.00827226 -0.00698672
v -0.00808784 0.00815657 -0.00635825
v -0.00818366 0.00799461 -0.00644671
v -0.00824783 0.00806402 -0.00627517
v -0.00444657 0.00683564 -0.00914188
v -0.00857209 0.00290509 -0.00914188
v -0.00336001 0.00838303 -0.00914139
v -0.01176675 0.00404232 -0.00414933
v -0.01180696 0.00390420 -0.00416009
v -0.01174878 0.00399395 -0.00425049
v -0.01157511 0.00424916 -0.00450706
v -0.01147158 0.00424916 -0.00476167
v -0.01129876 0.00417554 -0.00520199
v -0.01165981 0.00425687 -0.00425734
v -0.01132528 0.00320868 -0.00580504
v -0.01139544 0.00296749 -0.00580456
v -0.01141255 0.00290509 -0.00579967
v -0.01104808 0.00418956 -0.00572588
v -0.01125855 0.00328370 -0.00589154
v -0.01100359 0.00407247 -0.00589790
v -0.01103182 0.00389999 -0.00595068
v -0.00420530 0.00922930 -0.00812196
v -0.00445855 0.00912203 -0.00814298
v -0.00470752 0.00921598 -0.00785709
v -0.00496076 0.00910660 -0.00787712
v -0.00522086 0.00905893 -0.00778330
v -0.00545271 0.00907014 -0.00759661
v -0.00572820 0.00909538 -0.00735226
v -0.00341477 0.00911011 -0.00865562
v -0.00394607 0.00912413 -0.00840443
v -0.00418819 0.00908978 -0.00834041
v -0.00336001 0.00910099 -0.00869032
v -0.00580948 0.00900143 -0.00743876
v -0.00600284 0.00896287 -0.00735226
v -0.00615598 0.00878829 -0.00750620
v -0.00624582 0.00883947 -0.00734884
v -0.00642292 0.00879460 -0.00726136
v -0.00626549 0.00897619 -0.00710449
v -0.00662397 0.00901966 -0.00669203
v -0.00645201 0.00906664 -0.00677316
v -0.00652730 0.00912694 -0.00659576
v -0.00678653 0.00898531 -0.00659576
v -0.00703636 0.00911502 -0.00607041
v -0.00841980 0.00796937 -0.00615984
v -0.00893656 0.00667297 -0.00693100
v -0.00884843 0.00685737 -0.00685819
v -0.00918980 0.00692538 -0.00630303
v -0.00923771 0.00692538 -0.00623314
v -0.00951406 0.00676272 -0.00599124
v -0.00944904 0.00692538 -0.00591842
v -0.00843092 0.00772327 -0.00643204
v -0.00838814 0.00762651 -0.00660211
v -0.00825296 0.00759777 -0.00681763
v -0.00859690 0.00692538 -0.00710009
v -0.00869187 0.00669401 -0.00721250
v -0.00876373 0.00678585 -0.00704047
v -0.00845060 0.00723177 -0.00697303
v -0.01054159 0.00502952 -0.00599173
v -0.01075719 0.00462777 -0.00592087
v -0.01072724 0.00477290 -0.00586222
v -0.01066821 0.00500708 -0.00578110
v -0.00991703 0.00580777 -0.00632013
v -0.00999574 0.00491103 -0.00697108
v -0.01021990 0.00483600 -0.00665978
v -0.01151265 0.00458220 -0.00430963
v -0.01097108 0.00426809 -0.00580895
v -0.01101215 0.00436134 -0.00565306
v -0.01126881 0.00461515 -0.00487603
v -0.01135095 0.00452330 -0.00478318
v -0.01165467 0.00436484 -0.00414933
v -0.01159821 0.00450858 -0.00414933
v -0.00908200 0.00656780 -0.00682593
v -0.00922745 0.00620672 -0.00697792
v -0.00942508 0.00588069 -0.00700235
v -0.00950893 0.00573486 -0.00700920
v -0.00972880 0.00540953 -0.00695788
v -0.00959790 0.00579375 -0.00682642
v -0.00927707 0.00606158 -0.00703754
v -0.00968688 0.00585335 -0.00663779
v -0.01145105 0.00485494 -0.00414933
v -0.00752745 0.00831502 -0.00681470
v -0.00767803 0.00826034 -0.00671500
v -0.00755226 0.00844684 -0.00659674
v -0.00773449 0.00830871 -0.00657865
v -0.00760445 0.00819373 -0.00688702
v -0.00786368 0.00819443 -0.00657865
v -0.00677028 0.00885139 -0.00683913
v -0.00650933 0.00884648 -0.00709374
v -0.00678653 0.00865577 -0.00711036
v -0.00659489 0.00873991 -0.00718024
v -0.00697647 0.00857164 -0.00704047
v -0.00704748 0.00846296 -0.00711329
v -0.00700812 0.00831713 -0.00733662
v -0.00717325 0.00826945 -0.00724035
v -0.00726907 0.00832274 -0.00708104
v -0.00671466 0.00856813 -0.00729362
v -0.00734521 0.00819653 -0.00715874
v -0.00744104 0.00802476 -0.00725061
v -0.00752317 0.00810889 -0.00707517
v -0.00769599 0.00802195 -0.00699209
v -0.00799886 0.00806542 -0.00657865
v -0.00793897 0.00800863 -0.00672086
v -0.00786710 0.00793781 -0.00689289
v -0.00795523 0.00776604 -0.00699405
v -0.00812634 0.00767629 -0.00689191
v -0.00819478 0.00774991 -0.00671989
v -0.00444657 0.00692538 -0.00914188
v -0.00882961 0.00290509 -0.00912770
v -0.00857209 0.00322550 -0.00914188
v -0.00336001 0.00864105 -0.00911988
v -0.00367229 0.00838303 -0.00914139
v -0.01174878 0.00409631 -0.00414933
v -0.01126454 0.00434732 -0.00512624
v -0.01122518 0.00425967 -0.00528849
v -0.01169574 0.00425547 -0.00414933
v -0.01128507 0.00311192 -0.00594188
v -0.01130475 0.00296749 -0.00597707
v -0.01131245 0.00290509 -0.00599026
v -0.01109514 0.00426809 -0.00555874
v -0.01079398 0.00445529 -0.00598293
v -0.01083162 0.00425196 -0.00606601
v -0.01077858 0.00416222 -0.00621506
v -0.01053731 0.00394627 -0.00675996
v -0.01048598 0.00380885 -0.00693149
v -0.01075976 0.00385582 -0.00644182
v -0.01105749 0.00374084 -0.00599417
v -0.00438069 0.00905332 -0.00829056
v -0.00470410 0.00907786 -0.00806821
v -0.00504547 0.00900985 -0.00796998
v -0.00522086 0.00897339 -0.00791231
v -0.00541165 0.00880161 -0.00803937
v -0.00546726 0.00889416 -0.00785855
v -0.00534919 0.00902808 -0.00773833
v -0.00552116 0.00898741 -0.00767431
v -0.00350032 0.00901475 -0.00875141
v -0.00367229 0.00908066 -0.00858525
v -0.00336001 0.00906734 -0.00873821
v -0.00386992 0.00904981 -0.00854224
v -0.00404275 0.00902247 -0.00850461
v -0.00418819 0.00899863 -0.00846943
v -0.00573676 0.00880722 -0.00779405
v -0.00587279 0.00877427 -0.00774420
v -0.00597375 0.00881914 -0.00759906
v -0.00604476 0.00872098 -0.00767774
v -0.00625352 0.00864245 -0.00761078
v -0.00632795 0.00873641 -0.00743339
v -0.00652730 0.00898110 -0.00684939
v -0.00899473 0.00650119 -0.00700969
v -0.00884416 0.00659795 -0.00711085
v -0.00820505 0.00750381 -0.00698769
v -0.00812720 0.00741337 -0.00715972
v -0.00844632 0.00696885 -0.00722569
v -0.00892372 0.00639883 -0.00718171
v -0.00842664 0.00692538 -0.00728775
v -0.00818281 0.00644721 -0.00799441
v -0.00843349 0.00643529 -0.00772709
v -0.01049624 0.00487877 -0.00617499
v -0.01059549 0.00478482 -0.00607872
v -0.00944134 0.00561566 -0.00718122
v -0.00970827 0.00511576 -0.00719246
v -0.00975618 0.00494398 -0.00725159
v -0.00949353 0.00467895 -0.00776228
v -0.00973137 0.00464039 -0.00747835
v -0.01001798 0.00480726 -0.00700235
v -0.01027808 0.00419727 -0.00700529
v -0.01024129 0.00436975 -0.00695251
v -0.01028920 0.00451489 -0.00677267
v -0.01053389 0.00470700 -0.00623559
v -0.01148185 0.00478272 -0.00414933
v -0.00919151 0.00622916 -0.00700235
v -0.00921461 0.00593047 -0.00722031
v -0.00920007 0.00564581 -0.00746027
v -0.00969030 0.00554625 -0.00689875
v -0.00777214 0.00810118 -0.00680394
v -0.00652302 0.00865157 -0.00736350
v -0.00678739 0.00845595 -0.00736839
v -0.00664879 0.00826174 -0.00774664
v -0.00682075 0.00818882 -0.00766552
v -0.00708256 0.00819303 -0.00741237
v -0.00662312 0.00850082 -0.00746564
v -0.00718095 0.00802125 -0.00750620
v -0.00691914 0.00801704 -0.00775984
v -0.00735291 0.00793992 -0.00742264
v -0.00735462 0.00768260 -0.00768165
v -0.00744360 0.00751083 -0.00776863
v -0.00761471 0.00768330 -0.00742459
v -0.00770027 0.00776814 -0.00725257
v -0.00761300 0.00794062 -0.00716411
v -0.00787138 0.00768330 -0.00716607
v -0.00795523 0.00751153 -0.00725306
v -0.00804164 0.00759356 -0.00707664
v -0.00573761 0.00692538 -0.00914188
v -0.00882961 0.00296749 -0.00912379
v -0.00857209 0.00348352 -0.00913601
v -0.00901698 0.00290509 -0.00907101
v -0.00831371 0.00399885 -0.00914041
v -0.00779780 0.00477290 -0.00914188
v -0.00393067 0.00838303 -0.00913357
v -0.00341477 0.00864105 -0.00911598
v -0.00336001 0.00881213 -0.00906320
v -0.00418819 0.00812572 -0.00914139
v -0.00444657 0.00812572 -0.00913455
v -0.00599428 0.00683564 -0.00914188
v -0.01119695 0.00320868 -0.00604157
v -0.01074008 0.00301867 -0.00692221
v -0.01104808 0.00290509 -0.00645550
v -0.01129534 0.00290509 -0.00602105
v -0.01055185 0.00425687 -0.00652294
v -0.01045860 0.00401919 -0.00684157
v -0.01051421 0.00363707 -0.00697597
v -0.01056469 0.00373102 -0.00684157
v -0.01030716 0.00397642 -0.00709228
v -0.01025070 0.00387545 -0.00722520
v -0.01045004 0.00377028 -0.00700235
v -0.01071270 0.00375836 -0.00657572
v -0.01095482 0.00348422 -0.00630889
v -0.00444657 0.00882194 -0.00858232
v -0.00445855 0.00896147 -0.00837902
v -0.00455266 0.00901896 -0.00824120
v -0.00496076 0.00894464 -0.00811317
v -0.00510963 0.00877847 -0.00826466
v -0.00520546 0.00883456 -0.00812538
v -0.00528160 0.00873500 -0.00821139
v -0.00558361 0.00875674 -0.00797829
v -0.00336001 0.00900494 -0.00882422
v -0.00341477 0.00894464 -0.00888384
v -0.00366459 0.00884718 -0.00890974
v -0.00394607 0.00896007 -0.00863314
v -0.00419418 0.00886051 -0.00865758
v -0.00428487 0.00875744 -0.00875483
v -0.00573676 0.00858075 -0.00807651
v -0.00596947 0.00862563 -0.00784878
v -0.00617994 0.00854850 -0.00778134
v -0.00635191 0.00849381 -0.00771537
v -0.00645115 0.00856393 -0.00754334
v -0.00803907 0.00733134 -0.00733223
v -0.00828462 0.00705859 -0.00731854
v -0.00849338 0.00626351 -0.00779698
v -0.00865165 0.00586176 -0.00793821
v -0.00891003 0.00580427 -0.00768116
v -0.00778240 0.00707472 -0.00784927
v -0.00809725 0.00692538 -0.00764548
v -0.00784999 0.00692538 -0.00791378
v -0.00769343 0.00699199 -0.00801982
v -0.00772166 0.00692538 -0.00804817
v -0.00791929 0.00644090 -0.00824805
v -0.00808698 0.00635816 -0.00815471
v -0.00816313 0.00615974 -0.00823339
v -0.00824783 0.00627543 -0.00806136
v -0.00841980 0.00615764 -0.00796900
v -0.00924884 0.00547474 -0.00751989
v -0.00920606 0.00488228 -0.00798220
v -0.00943021 0.00451489 -0.00794017
v -0.00925311 0.00470980 -0.00803742
v -0.00946444 0.00436344 -0.00798317
v -0.00970998 0.00381796 -0.00796705
v -0.01021391 0.00404723 -0.00717731
v -0.00996836 0.00459201 -0.00719344
v -0.00895623 0.00567105 -0.00773491
v -0.00893912 0.00538078 -0.00797095
v -0.00651019 0.00831012 -0.00780333
v -0.00637073 0.00824701 -0.00798855
v -0.00651019 0.00819373 -0.00793235
v -0.00665392 0.00800863 -0.00800761
v -0.00673691 0.00809908 -0.00783901
v -0.00718180 0.00776534 -0.00776472
v -0.00700641 0.00784947 -0.00784829
v -0.00682589 0.00793431 -0.00793186
v -0.00692171 0.00776183 -0.00801836
v -0.00735462 0.00742599 -0.00794066
v -0.00753001 0.00734045 -0.00785562
v -0.00770198 0.00751153 -0.00751158
v -0.00769941 0.00725421 -0.00777010
v -0.00878598 0.00348352 -0.00907932
v -0.00857209 0.00374084 -0.00911011
v -0.00900757 0.00296749 -0.00906759
v -0.00831371 0.00425687 -0.00911695
v -0.00914617 0.00290509 -0.00895080
v -0.00805533 0.00451489 -0.00913748
v -0.00754114 0.00528824 -0.00913992
v -0.00728361 0.00554625 -0.00914188
v -0.00393067 0.00858286 -0.00907639
v -0.00444657 0.00834026 -0.00907737
v -0.00336001 0.00894955 -0.00889802
v -0.00341477 0.00880441 -0.00905929
v -0.00470410 0.00786770 -0.00914139
v -0.00522086 0.00760968 -0.00913992
v -0.00496248 0.00786770 -0.00912624
v -0.00472035 0.00814395 -0.00909007
v -0.00651104 0.00631960 -0.00914188
v -0.00676856 0.00631960 -0.00913406
v -0.00547838 0.00735167 -0.00914139
v -0.01072211 0.00290509 -0.00700235
v -0.01079398 0.00290509 -0.00688898
v -0.01081280 0.00294575 -0.00683620
v -0.01050309 0.00361253 -0.00700235
v -0.01053817 0.00348352 -0.00700969
v -0.01070414 0.00290509 -0.00702874
v -0.01041154 0.00373102 -0.00707468
v -0.00998205 0.00358589 -0.00772709
v -0.01027380 0.00374084 -0.00725746
v -0.00974677 0.00364548 -0.00801347
v -0.00461597 0.00878759 -0.00853491
v -0.00520374 0.00863264 -0.00837266
v -0.00478794 0.00874762 -0.00848458
v -0.00496248 0.00870205 -0.00843522
v -0.00543475 0.00856323 -0.00830913
v -0.00550918 0.00865998 -0.00814640
v -0.00560671 0.00851204 -0.00825342
v -0.00357390 0.00878058 -0.00903876
v -0.00393067 0.00881774 -0.00883253
v -0.00411290 0.00878759 -0.00879246
v -0.00420873 0.00865087 -0.00890730
v -0.00430455 0.00850363 -0.00902166
v -0.00444657 0.00858987 -0.00885403
v -0.00444657 0.00871888 -0.00871084
v -0.00374587 0.00874622 -0.00900309
v -0.00393067 0.00871186 -0.00896155
v -0.00573676 0.00847068 -0.00820553
v -0.00606615 0.00847558 -0.00795336
v -0.00627576 0.00839846 -0.00788494
v -0.00871069 0.00568998 -0.00800712
v -0.00761643 0.00716447 -0.00794212
v -0.00752317 0.00707402 -0.00810828
v -0.00743077 0.00698427 -0.00827004
v -0.00763781 0.00692538 -0.00812685
v -0.00760359 0.00688541 -0.00819136
v -0.00767546 0.00671294 -0.00825880
v -0.00755654 0.00659865 -0.00845037
v -0.00772508 0.00625510 -0.00855984
v -0.00769856 0.00596904 -0.00879637
v -0.00799031 0.00626842 -0.00831256
v -0.00839499 0.00586316 -0.00820651
v -0.00847883 0.00598516 -0.00803497
v -0.00766776 0.00567176 -0.00902557
v -0.00822302 0.00598797 -0.00829008
v -0.00850450 0.00554625 -0.00831256
v -0.00868588 0.00539200 -0.00823974
v -0.00898618 0.00520901 -0.00802764
v -0.00928391 0.00449035 -0.00812392
v -0.00891688 0.00502952 -0.00820944
v -0.00895452 0.00489420 -0.00824951
v -0.00917355 0.00455976 -0.00820895
v -0.00950208 0.00419096 -0.00802862
v -0.00921718 0.00438728 -0.00825440
v -0.00889891 0.00556939 -0.00787810
v -0.00875774 0.00554625 -0.00805843
v -0.00619962 0.00830381 -0.00805355
v -0.00591300 0.00828558 -0.00829008
v -0.00608497 0.00822598 -0.00822557
v -0.00599685 0.00812922 -0.00838439
v -0.00590701 0.00803177 -0.00854322
v -0.00664622 0.00774500 -0.00825978
v -0.00673691 0.00783966 -0.00809899
v -0.00709282 0.00767980 -0.00793675
v -0.00681819 0.00766578 -0.00819038
v -0.00700128 0.00758725 -0.00810632
v -0.00726308 0.00733274 -0.00810975
v -0.00744446 0.00725351 -0.00802520
v -0.00873293 0.00374084 -0.00905342
v -0.00857808 0.00397852 -0.00907444
v -0.00897848 0.00315539 -0.00904560
v -0.00831627 0.00449736 -0.00907395
v -0.00823072 0.00472733 -0.00906075
v -0.00801341 0.00502952 -0.00907346
v -0.00808014 0.00479744 -0.00909301
v -0.00779780 0.00502952 -0.00913015
v -0.00848739 0.00425687 -0.00906026
v -0.00913761 0.00296749 -0.00894053
v -0.00939343 0.00290509 -0.00867957
v -0.00728361 0.00580427 -0.00912282
v -0.00702609 0.00606158 -0.00912917
v -0.00702609 0.00580427 -0.00914188
v -0.00413258 0.00854429 -0.00905489
v -0.00496248 0.00806963 -0.00906955
v -0.00464506 0.00829048 -0.00905635
v -0.00651104 0.00657692 -0.00913357
v -0.00625266 0.00683564 -0.00913210
v -0.00599343 0.00709365 -0.00912966
v -0.00573676 0.00735167 -0.00911988
v -0.00521658 0.00787401 -0.00908226
v -0.00549806 0.00763072 -0.00909447
v -0.00677028 0.00658042 -0.00908421
v -0.01044576 0.00348352 -0.00713870
v -0.01053303 0.00292332 -0.00725843
v -0.01052790 0.00290509 -0.00727260
v -0.00991617 0.00349334 -0.00785660
v -0.01008386 0.00349334 -0.00762838
v -0.00942936 0.00399885 -0.00820406
v -0.00960475 0.00374434 -0.00812734
v -0.00949952 0.00367072 -0.00828030
v -0.00966378 0.00348352 -0.00817621
v -0.00977415 0.00348352 -0.00804719
v -0.00496248 0.00857304 -0.00857841
v -0.00512418 0.00853027 -0.00853149
v -0.00529614 0.00848330 -0.00848067
v -0.00547838 0.00830521 -0.00856619
v -0.00471009 0.00864456 -0.00864389
v -0.00463223 0.00854219 -0.00880223
v -0.00562297 0.00826454 -0.00852270
v -0.00572050 0.00833045 -0.00837853
v -0.00481703 0.00824281 -0.00901824
v -0.00444657 0.00846927 -0.00898305
v -0.00472463 0.00839355 -0.00891023
v -0.00863283 0.00554625 -0.00818696
v -0.00746414 0.00692538 -0.00828519
v -0.00734436 0.00715605 -0.00819722
v -0.00726821 0.00707963 -0.00832380
v -0.00715442 0.00696464 -0.00851194
v -0.00685754 0.00666736 -0.00899624
v -0.00713475 0.00668559 -0.00875385
v -0.00721089 0.00651311 -0.00881836
v -0.00752659 0.00681320 -0.00831500
v -0.00735805 0.00612679 -0.00897963
v -0.00762755 0.00614011 -0.00873186
v -0.00752916 0.00604756 -0.00888775
v -0.00743162 0.00595431 -0.00904169
v -0.00761814 0.00580427 -0.00898158
v -0.00772850 0.00550068 -0.00906417
v -0.00795779 0.00520410 -0.00905098
v -0.00789876 0.00537588 -0.00900064
v -0.00805961 0.00529314 -0.00890241
v -0.00873464 0.00522023 -0.00828812
v -0.00821874 0.00521041 -0.00880370
v -0.00814260 0.00502952 -0.00898745
v -0.00818195 0.00489911 -0.00902654
v -0.00833595 0.00481287 -0.00892098
v -0.00896393 0.00439640 -0.00851781
v -0.00900158 0.00472172 -0.00829741
v -0.00855583 0.00448544 -0.00888189
v -0.00881250 0.00448334 -0.00862288
v -0.00866705 0.00405004 -0.00899233
v -0.00878170 0.00397852 -0.00890339
v -0.00870470 0.00387826 -0.00903094
v -0.00946273 0.00384180 -0.00824120
v -0.00579494 0.00820354 -0.00846210
v -0.00570425 0.00810258 -0.00861897
v -0.00561356 0.00800162 -0.00877437
v -0.00578553 0.00793501 -0.00871524
v -0.00589504 0.00776253 -0.00879099
v -0.00605246 0.00742599 -0.00897816
v -0.00617309 0.00752134 -0.00880663
v -0.00625181 0.00735167 -0.00889850
v -0.00633137 0.00717779 -0.00898989
v -0.00663082 0.00747296 -0.00850559
v -0.00674632 0.00759146 -0.00831207
v -0.00690973 0.00749400 -0.00826515
v -0.00708170 0.00741126 -0.00819380
v -0.00894682 0.00332717 -0.00901824
v -0.00908970 0.00323041 -0.00890046
v -0.00845060 0.00439990 -0.00903436
v -0.00780636 0.00528964 -0.00908616
v -0.00975533 0.00290999 -0.00827883
v -0.00934038 0.00320657 -0.00863461
v -0.00920092 0.00330543 -0.00875287
v -0.00975362 0.00290509 -0.00828177
v -0.00756595 0.00557009 -0.00909496
v -0.00748980 0.00580427 -0.00906662
v -0.00727677 0.00604967 -0.00907150
v -0.00702609 0.00631610 -0.00908079
v -0.00542619 0.00779268 -0.00906320
v -0.00512760 0.00801985 -0.00904560
v -0.00651019 0.00683564 -0.00908274
v -0.00624838 0.00709225 -0.00907932
v -0.00597717 0.00734466 -0.00906906
v -0.00694139 0.00649488 -0.00905635
v -0.00668643 0.00675080 -0.00905538
v -0.01044662 0.00299273 -0.00734738
v -0.01030289 0.00296749 -0.00755361
v -0.01008729 0.00290509 -0.00787273
v -0.00997264 0.00303900 -0.00797193
v -0.00953374 0.00348352 -0.00831891
v -0.00899388 0.00369386 -0.00880712
v -0.00903751 0.00348352 -0.00885501
v -0.00916670 0.00348352 -0.00871671
v -0.00970570 0.00322550 -0.00822361
v -0.00945160 0.00327949 -0.00848604
v -0.00995125 0.00290509 -0.00805110
v -0.00496248 0.00845455 -0.00870742
v -0.00513615 0.00827857 -0.00879539
v -0.00530812 0.00822949 -0.00874554
v -0.00547838 0.00817550 -0.00869521
v -0.00547838 0.00804649 -0.00881591
v -0.00529957 0.00796446 -0.00899869
v -0.00521743 0.00812432 -0.00889704
v -0.00496248 0.00832554 -0.00884621
v -0.00717239 0.00723949 -0.00826808
v -0.00678140 0.00684755 -0.00890877
v -0.00711164 0.00639953 -0.00899038
v -0.00703892 0.00659024 -0.00890730
v -0.00659489 0.00692538 -0.00899233
v -0.00718608 0.00622705 -0.00904951
v -0.00840354 0.00457168 -0.00898745
v -0.00870727 0.00439780 -0.00877682
v -0.00861658 0.00425687 -0.00894151
v -0.00891517 0.00348352 -0.00898403
v -0.00571451 0.00785648 -0.00883351
v -0.00549806 0.00787401 -0.00895764
v -0.00559816 0.00773028 -0.00902166
v -0.00615941 0.00725351 -0.00905000
v -0.00573676 0.00767699 -0.00897474
v -0.00588049 0.00749260 -0.00903729
v -0.00642377 0.00700531 -0.00905391
v -0.00651874 0.00710207 -0.00890583
v -0.00987682 0.00290509 -0.00813858
v -0.00646484 0.00692538 -0.00906759
v -0.01002740 0.00290509 -0.00795385
f 1 2 9
f 1 9 23
f 1 23 50
f 1 50 109
f 1 109 106
f 1 106 105
f 1 105 104
f 1 104 164
f 1 164 163
f 1 163 219
f 1 219 290
f 1 290 367
f 1 367 459
f 1 459 559
f 1 559 662
f 1 662 752
f 1 752 836
f 1 836 777
f 1 777 689
f 1 689 584
f 1 584 488
f 1 488 486
f 1 486 485
f 1 485 484
f 1 484 390
f 1 390 389
f 1 389 308
f 1 308 307
f 1 307 299
f 1 299 298
f 1 298 224
f 1 224 167
f 1 167 110
f 1 110 53
f 1 53 51
f 1 51 24
f 1 24 10
f 1 10 3
f 1 3 4
f 1 4 5
f 1 5 6
f 1 6 7
f 1 7 2
f 2 8 9
f 2 7 8
f 3 10 11
f 3 11 12
f 3 12 4
f 4 13 14
f 4 14 15
f 4 15 16
f 4 16 17
f 4 17 5
f 4 12 13
f 5 17 18
f 5 18 19
f 5 19 20
f 5 20 6
f 6 20 7
f 7 20 21
f 7 21 22
f 7 22 9
f 7 9 8
f 9 22 23
f 10 24 11
f 11 25 26
f 11 26 13
f 11 13 12
f 11 24 25
f 13 26 27
f 13 27 14
f 14 28 29
f 14 29 30
f 14 30 31
f 14 31 15
f 14 27 28
f 15 31 32
f 15 32 16
f 16 32 17
f 17 33 34
f 17 34 35
f 17 35 18
f 17 32 33
f 18 35 34
f 18 34 36
f 18 36 19
f 19 36 37
f 19 37 38
f 19 38 39
f 19 39 40
f 19 40 41
f 19 41 20
f 20 41 42
f 20 42 43
f 20 43 21
f 21 43 77
f 21 77 143
f 21 143 202
f 21 202 270
f 21 270 343
f 21 343 432
f 21 432 536
f 21 536 632
f 21 632 721
f 21 721 623
f 21 623 622
f 21 622 667
f 21 667 664
f 21 664 560
f 21 560 460
f 21 460 368
f 21 368 291
f 21 291 220
f 21 220 165
f 21 165 108
f 21 108 44
f 21 44 45
f 21 45 46
f 21 46 47
f 21 47 48
f 21 48 49
f 21 49 22
f 22 49 23
f 23 49 48
f 23 48 50
f 24 51 25
f 25 52 27
f 25 27 26
f 25 51 53
f 25 53 52
f 27 52 28
f 28 54 55
f 28 55 56
f 28 56 29
f 28 52 57
f 28 57 54
f 29 56 58
f 29 58 59
f 29 59 30
f 30 59 60
f 30 60 31
f 31 60 33
f 31 33 32
f 33 60 34
f 34 60 61
f 34 61 36
f 36 61 37
f 37 61 62
f 37 62 63
f 37 63 64
f 37 64 38
f 38 64 65
f 38 65 39
f 39 65 66
f 39 66 40
f 40 67 41
f 40 66 68
f 40 68 42
f 40 42 67
f 41 67 42
f 42 68 66
f 42 66 69
f 42 69 43
f 43 70 71
f 43 71 72
f 43 72 73
f 43 73 74
f 43 74 75
f 43 75 76
f 43 76 77
f 43 69 78
f 43 78 79
f 43 79 80
f 43 80 81
f 43 81 82
f 43 82 83
f 43 83 84
f 43 84 85
f 43 85 86
f 43 86 87
f 43 87 88
f 43 88 89
f 43 89 90
f 43 90 91
f 43 91 92
f 43 92 93
f 43 93 94
f 43 94 95
f 43 95 96
f 43 96 97
f 43 97 98
f 43 98 99
f 43 99 100
f 43 100 101
f 43 101 102
f 43 102 70
f 44 103 104
f 44 104 105
f 44 105 106
f 44 106 107
f 44 107 45
f 44 108 166
f 44 166 223
f 44 223 293
f 44 293 297
f 44 297 296
f 44 296 378
f 44 378 467
f 44 467 569
f 44 569 670
f 44 670 759
f 44 759 758
f 44 758 846
f 44 846 845
f 44 845 850
f 44 850 938
f 44 938 1022
f 44 1022 1059
f 44 1059 1030
f 44 1030 1057
f 44 1057 1008
f 44 1008 922
f 44 922 830
f 44 830 747
f 44 747 660
f 44 660 558
f 44 558 457
f 44 457 366
f 44 366 287
f 44 287 218
f 44 218 162
f 44 162 103
f 45 107 106
f 45 106 109
f 45 109 46
f 46 109 47
f 47 109 50
f 47 50 48
f 52 53 110
f 52 110 111
f 52 111 112
f 52 112 57
f 54 113 55
f 54 57 114
f 54 114 115
f 54 115 113
f 55 116 117
f 55 117 56
f 55 113 116
f 56 117 118
f 56 118 58
f 57 112 114
f 58 118 119
f 58 119 59
f 59 119 120
f 59 120 121
f 59 121 122
f 59 122 60
f 60 122 61
f 61 122 62
f 62 122 123
f 62 123 63
f 63 124 125
f 63 125 126
f 63 126 127
f 63 127 64
f 63 123 124
f 64 127 128
f 64 128 65
f 65 128 66
f 66 128 69
f 69 128 129
f 69 129 78
f 70 130 71
f 70 102 131
f 70 131 132
f 70 132 133
f 70 133 130
f 71 130 72
f 72 134 73
f 72 130 134
f 73 134 135
f 73 135 74
f 74 136 137
f 74 137 75
f 74 135 136
f 75 138 139
f 75 139 76
f 75 137 138
f 76 139 138
f 76 138 140
f 76 140 141
f 76 141 142
f 76 142 143
f 76 143 77
f 78 129 79
f 79 129 144
f 79 144 80
f 80 144 145
f 80 145 81
f 81 145 146
f 81 146 82
f 82 147 83
f 82 146 147
f 83 147 148
f 83 148 149
f 83 149 84
f 84 149 85
f 85 149 150
f 85 150 86
f 86 150 87
f 87 151 88
f 87 150 151
f 88 151 89
f 89 152 90
f 89 151 153
f 89 153 152
f 90 152 154
f 90 154 91
f 91 154 92
f 92 154 155
f 92 155 93
f 93 155 156
f 93 156 94
f 94 156 95
f 95 156 96
f 96 156 157
f 96 157 158
f 96 158 97
f 97 158 159
f 97 159 160
f 97 160 98
f 98 160 99
f 99 160 100
f 100 160 101
f 101 160 161
f 101 161 132
f 101 132 131
f 101 131 102
f 103 162 163
f 103 163 164
f 103 164 104
f 108 165 166
f 110 167 111
f 111 168 112
f 111 167 168
f 112 169 114
f 112 168 169
f 113 170 116
f 113 115 171
f 113 171 170
f 114 169 115
f 115 169 172
f 115 172 171
f 116 170 173
f 116 173 117
f 117 173 118
f 118 173 174
f 118 174 120
f 118 120 119
f 120 175 176
f 120 176 121
f 120 174 175
f 121 176 177
f 121 177 178
f 121 178 179
f 121 179 122
f 122 179 123
f 123 179 180
f 123 180 181
f 123 181 182
f 123 182 124
f 124 182 183
f 124 183 184
f 124 184 125
f 125 184 185
f 125 185 186
f 125 186 126
f 126 186 187
f 126 187 144
f 126 144 127
f 127 144 128
f 128 144 129
f 130 133 188
f 130 188 134
f 132 189 190
f 132 190 188
f 132 188 133
f 132 161 191
f 132 191 192
f 132 192 193
f 132 193 189
f 134 194 195
f 134 195 135
f 134 188 194
f 135 195 136
f 136 196 197
f 136 197 137
f 136 195 196
f 137 197 138
f 138 197 140
f 140 197 198
f 140 198 141
f 141 198 199
f 141 199 142
f 142 199 200
f 142 200 201
f 142 201 202
f 142 202 143
f 144 187 146
f 144 146 145
f 146 203 204
f 146 204 147
f 146 187 205
f 146 205 203
f 147 204 148
f 148 204 203
f 148 203 206
f 148 206 207
f 148 207 149
f 149 208 150
f 149 207 208
f 150 209 210
f 150 210 151
f 150 208 211
f 150 211 209
f 151 210 153
f 152 153 154
f 153 210 154
f 154 210 212
f 154 212 213
f 154 213 214
f 154 214 155
f 155 214 157
f 155 157 156
f 157 214 215
f 157 215 158
f 158 215 216
f 158 216 159
f 159 216 160
f 160 191 161
f 160 216 217
f 160 217 191
f 162 218 163
f 163 218 219
f 165 220 221
f 165 221 166
f 166 221 222
f 166 222 223
f 167 224 168
f 168 224 225
f 168 225 172
f 168 172 169
f 170 171 226
f 170 226 227
f 170 227 228
f 170 228 173
f 171 172 229
f 171 229 230
f 171 230 226
f 172 225 231
f 172 231 229
f 173 228 232
f 173 232 233
f 173 233 174
f 174 233 175
f 175 233 234
f 175 234 176
f 176 234 177
f 177 234 235
f 177 235 181
f 177 181 178
f 178 181 180
f 178 180 179
f 181 235 236
f 181 236 182
f 182 236 183
f 183 236 237
f 183 237 238
f 183 238 184
f 184 238 185
f 185 239 240
f 185 240 205
f 185 205 187
f 185 187 186
f 185 238 239
f 188 241 242
f 188 242 195
f 188 195 194
f 188 190 241
f 189 243 190
f 189 193 243
f 190 243 241
f 191 217 192
f 192 217 193
f 193 244 245
f 193 245 246
f 193 246 243
f 193 217 244
f 195 242 247
f 195 247 248
f 195 248 249
f 195 249 250
f 195 250 251
f 195 251 252
f 195 252 253
f 195 253 254
f 195 254 255
f 195 255 198
f 195 198 196
f 196 198 197
f 198 256 257
f 198 257 199
f 198 255 254
f 198 254 258
f 198 258 259
f 198 259 256
f 199 260 261
f 199 261 200
f 199 257 256
f 199 256 262
f 199 262 263
f 199 263 264
f 199 264 260
f 200 265 266
f 200 266 267
f 200 267 201
f 200 261 265
f 201 267 266
f 201 266 268
f 201 268 269
f 201 269 202
f 202 269 270
f 203 205 207
f 203 207 206
f 205 240 207
f 207 271 208
f 207 240 239
f 207 239 271
f 208 271 211
f 209 211 272
f 209 272 273
f 209 273 210
f 210 274 275
f 210 275 212
f 210 273 276
f 210 276 277
f 210 277 274
f 211 271 272
f 212 275 213
f 213 275 278
f 213 278 279
f 213 279 280
f 213 280 215
f 213 215 214
f 215 280 217
f 215 217 216
f 217 280 281
f 217 281 282
f 217 282 283
f 217 283 284
f 217 284 285
f 217 285 286
f 217 286 245
f 217 245 244
f 218 287 288
f 218 288 289
f 218 289 219
f 219 289 290
f 220 291 292
f 220 292 222
f 220 222 221
f 222 293 223
f 222 292 294
f 222 294 295
f 222 295 296
f 222 296 297
f 222 297 293
f 224 298 225
f 225 298 299
f 225 299 231
f 226 300 227
f 226 230 300
f 227 300 301
f 227 301 228
f 228 302 303
f 228 303 232
f 228 301 302
f 229 231 304
f 229 304 305
f 229 305 306
f 229 306 230
f 230 306 300
f 231 299 307
f 231 307 308
f 231 308 304
f 232 303 309
f 232 309 233
f 233 309 310
f 233 310 234
f 234 310 311
f 234 311 312
f 234 312 235
f 235 313 236
f 235 312 313
f 236 313 314
f 236 314 315
f 236 315 237
f 237 315 316
f 237 316 239
f 237 239 238
f 239 316 271
f 241 247 242
f 241 243 247
f 243 246 317
f 243 317 318
f 243 318 319
f 243 319 247
f 245 286 320
f 245 320 321
f 245 321 322
f 245 322 246
f 246 322 318
f 246 318 317
f 247 319 248
f 248 319 323
f 248 323 324
f 248 324 249
f 249 324 250
f 250 324 325
f 250 325 326
f 250 326 251
f 251 326 327
f 251 327 252
f 252 327 328
f 252 328 253
f 253 328 329
f 253 329 330
f 253 330 331
f 253 331 332
f 253 332 254
f 254 259 258
f 254 332 330
f 254 330 259
f 256 259 333
f 256 333 262
f 259 330 333
f 260 334 335
f 260 335 336
f 260 336 261
f 260 264 337
f 260 337 338
f 260 338 334
f 261 336 339
f 261 339 265
f 262 333 340
f 262 340 263
f 263 340 337
f 263 337 264
f 265 339 266
f 266 339 341
f 266 341 342
f 266 342 343
f 266 343 270
f 266 270 268
f 268 270 269
f 271 316 344
f 271 344 345
f 271 345 272
f 272 345 276
f 272 276 273
f 274 277 346
f 274 346 347
f 274 347 348
f 274 348 278
f 274 278 275
f 276 345 349
f 276 349 347
f 276 347 346
f 276 346 277
f 278 348 350
f 278 350 351
f 278 351 279
f 279 352 280
f 279 351 353
f 279 353 352
f 280 354 282
f 280 282 281
f 280 352 355
f 280 355 354
f 282 354 283
f 283 354 356
f 283 356 284
f 284 356 357
f 284 357 358
f 284 358 359
f 284 359 360
f 284 360 361
f 284 361 362
f 284 362 363
f 284 363 286
f 284 286 364
f 284 364 285
f 285 364 286
f 286 363 365
f 286 365 320
f 287 366 290
f 287 290 289
f 287 289 288
f 290 366 367
f 291 368 369
f 291 369 292
f 292 370 371
f 292 371 294
f 292 369 372
f 292 372 370
f 294 373 295
f 294 371 374
f 294 374 375
f 294 375 376
f 294 376 377
f 294 377 373
f 295 373 296
f 296 373 378
f 300 379 380
f 300 380 301
f 300 306 381
f 300 381 379
f 301 382 383
f 301 383 384
f 301 384 302
f 301 380 382
f 302 384 385
f 302 385 386
f 302 386 303
f 303 386 387
f 303 387 388
f 303 388 309
f 304 308 389
f 304 389 305
f 305 389 390
f 305 390 391
f 305 391 306
f 306 392 393
f 306 393 394
f 306 394 395
f 306 395 381
f 306 391 392
f 309 388 310
f 310 388 396
f 310 396 311
f 311 396 397
f 311 397 398
f 311 398 399
f 311 399 314
f 311 314 312
f 312 314 313
f 314 399 400
f 314 400 401
f 314 401 402
f 314 402 403
f 314 403 404
f 314 404 405
f 314 405 315
f 315 405 406
f 315 406 316
f 316 406 344
f 318 407 326
f 318 326 324
f 318 324 323
f 318 323 319
f 318 322 408
f 318 408 407
f 320 365 409
f 320 409 410
f 320 410 321
f 321 410 411
f 321 411 408
f 321 408 322
f 324 326 325
f 326 412 413
f 326 413 328
f 326 328 327
f 326 407 414
f 326 414 415
f 326 415 416
f 326 416 412
f 328 417 329
f 328 413 418
f 328 418 417
f 329 417 419
f 329 419 340
f 329 340 333
f 329 333 330
f 330 332 331
f 334 420 421
f 334 421 336
f 334 336 335
f 334 338 420
f 336 422 341
f 336 341 339
f 336 421 423
f 336 423 424
f 336 424 425
f 336 425 426
f 336 426 422
f 337 340 427
f 337 427 338
f 338 427 428
f 338 428 420
f 340 419 429
f 340 429 430
f 340 430 428
f 340 428 427
f 341 422 431
f 341 431 432
f 341 432 343
f 341 343 342
f 344 406 405
f 344 405 433
f 344 433 345
f 345 433 434
f 345 434 435
f 345 435 436
f 345 436 437
f 345 437 349
f 347 437 348
f 347 349 437
f 348 437 350
f 350 437 436
f 350 436 438
f 350 438 439
f 350 439 440
f 350 440 353
f 350 353 351
f 352 353 441
f 352 441 355
f 353 440 442
f 353 442 441
f 354 355 442
f 354 442 356
f 355 441 442
f 356 442 357
f 357 442 440
f 357 440 443
f 357 443 444
f 357 444 358
f 358 444 359
f 359 445 446
f 359 446 447
f 359 447 361
f 359 361 360
f 359 444 448
f 359 448 449
f 359 449 450
f 359 450 451
f 359 451 445
f 361 447 446
f 361 446 452
f 361 452 453
f 361 453 454
f 361 454 409
f 361 409 455
f 361 455 362
f 362 455 363
f 363 455 365
f 365 455 409
f 366 456 367
f 366 457 456
f 367 458 459
f 367 456 458
f 368 460 461
f 368 461 372
f 368 372 369
f 370 372 462
f 370 462 463
f 370 463 371
f 371 463 464
f 371 464 374
f 372 461 465
f 372 465 462
f 373 377 466
f 373 466 467
f 373 467 378
f 374 464 375
f 375 468 376
f 375 464 468
f 376 469 470
f 376 470 377
f 376 468 471
f 376 471 472
f 376 472 473
f 376 473 469
f 377 470 466
f 379 381 474
f 379 474 475
f 379 475 382
f 379 382 380
f 381 395 474
f 382 476 384
f 382 384 383
f 382 475 476
f 384 476 385
f 385 476 477
f 385 477 478
f 385 478 479
f 385 479 480
f 385 480 481
f 385 481 482
f 385 482 386
f 386 482 387
f 387 482 388
f 388 482 483
f 388 483 481
f 388 481 396
f 390 484 391
f 391 484 485
f 391 485 392
f 392 485 486
f 392 486 393
f 393 487 394
f 393 486 488
f 393 488 489
f 393 489 487
f 394 487 395
f 395 475 474
f 395 487 475
f 396 481 397
f 397 490 491
f 397 491 492
f 397 492 493
f 397 493 494
f 397 494 495
f 397 495 398
f 397 481 480
f 397 480 490
f 398 495 401
f 398 401 400
f 398 400 399
f 401 495 496
f 401 496 497
f 401 497 403
f 401 403 402
f 403 405 404
f 403 497 498
f 403 498 499
f 403 499 500
f 403 500 501
f 403 501 435
f 403 435 405
f 405 435 434
f 405 434 433
f 407 408 414
f 408 502 503
f 408 503 416
f 408 416 415
f 408 415 414
f 408 411 410
f 408 410 502
f 409 454 410
f 410 454 502
f 412 504 505
f 412 505 506
f 412 506 507
f 412 507 508
f 412 508 418
f 412 418 413
f 412 416 503
f 412 503 509
f 412 509 510
f 412 510 511
f 412 511 512
f 412 512 504
f 417 418 508
f 417 508 513
f 417 513 514
f 417 514 419
f 419 514 513
f 419 513 515
f 419 515 429
f 420 516 517
f 420 517 423
f 420 423 421
f 420 428 430
f 420 430 518
f 420 518 519
f 420 519 516
f 422 426 520
f 422 520 431
f 423 517 521
f 423 521 424
f 424 522 523
f 424 523 524
f 424 524 425
f 424 521 522
f 425 524 525
f 425 525 426
f 426 526 527
f 426 527 528
f 426 528 529
f 426 529 520
f 426 525 526
f 429 530 518
f 429 518 430
f 429 515 531
f 429 531 532
f 429 532 533
f 429 533 534
f 429 534 535
f 429 535 530
f 431 520 536
f 431 536 432
f 435 501 438
f 435 438 436
f 438 501 537
f 438 537 439
f 439 538 443
f 439 443 440
f 439 537 538
f 443 539 444
f 443 538 539
f 444 539 448
f 445 451 540
f 445 540 541
f 445 541 446
f 446 541 542
f 446 542 543
f 446 543 544
f 446 544 453
f 446 453 452
f 448 539 545
f 448 545 449
f 449 546 547
f 449 547 450
f 449 545 546
f 450 547 548
f 450 548 451
f 451 548 549
f 451 549 550
f 451 550 551
f 451 551 552
f 451 552 553
f 451 553 542
f 451 542 540
f 453 544 454
f 454 544 554
f 454 554 555
f 454 555 556
f 454 556 502
f 456 557 458
f 456 457 558
f 456 558 661
f 456 661 749
f 456 749 833
f 456 833 925
f 456 925 842
f 456 842 755
f 456 755 744
f 456 744 659
f 456 659 557
f 458 557 459
f 459 557 659
f 459 659 559
f 460 560 561
f 460 561 461
f 461 561 562
f 461 562 465
f 462 465 463
f 463 465 464
f 464 465 563
f 464 563 527
f 464 527 564
f 464 564 565
f 464 565 468
f 465 566 563
f 465 562 566
f 466 470 567
f 466 567 568
f 466 568 467
f 467 568 569
f 468 565 570
f 468 570 471
f 469 473 571
f 469 571 567
f 469 567 470
f 471 570 472
f 472 570 572
f 472 572 573
f 472 573 473
f 473 573 571
f 475 487 574
f 475 574 575
f 475 575 576
f 475 576 476
f 476 576 577
f 476 577 477
f 477 577 578
f 477 578 478
f 478 578 579
f 478 579 580
f 478 580 480
f 478 480 479
f 480 580 490
f 481 483 482
f 487 489 581
f 487 581 582
f 487 582 583
f 487 583 574
f 488 584 581
f 488 581 489
f 490 580 491
f 491 580 585
f 491 585 586
f 491 586 492
f 492 586 587
f 492 587 588
f 492 588 589
f 492 589 590
f 492 590 493
f 493 590 591
f 493 591 592
f 493 592 593
f 493 593 494
f 494 593 496
f 494 496 495
f 496 593 497
f 497 593 498
f 498 593 592
f 498 592 591
f 498 591 594
f 498 594 547
f 498 547 499
f 499 547 546
f 499 546 500
f 500 546 595
f 500 595 537
f 500 537 501
f 502 556 596
f 502 596 503
f 503 596 509
f 504 597 505
f 504 512 598
f 504 598 597
f 505 597 599
f 505 599 506
f 506 599 600
f 506 600 601
f 506 601 602
f 506 602 508
f 506 508 507
f 508 602 601
f 508 601 515
f 508 515 513
f 509 596 603
f 509 603 510
f 510 603 511
f 511 603 604
f 511 604 605
f 511 605 512
f 512 606 607
f 512 607 608
f 512 608 597
f 512 597 598
f 512 605 609
f 512 609 606
f 515 601 531
f 516 610 611
f 516 611 612
f 516 612 613
f 516 613 521
f 516 521 517
f 516 519 518
f 516 518 614
f 516 614 615
f 516 615 616
f 516 616 610
f 518 530 614
f 520 529 617
f 520 617 536
f 521 613 522
f 522 618 570
f 522 570 619
f 522 619 523
f 522 613 612
f 522 612 618
f 523 619 620
f 523 620 524
f 524 620 525
f 525 620 526
f 526 621 527
f 526 620 621
f 527 529 528
f 527 621 564
f 527 563 529
f 529 563 566
f 529 566 622
f 529 622 623
f 529 623 617
f 530 535 614
f 531 601 600
f 531 600 532
f 532 600 624
f 532 624 533
f 533 624 625
f 533 625 534
f 534 626 627
f 534 627 628
f 534 628 629
f 534 629 535
f 534 625 630
f 534 630 626
f 535 629 631
f 535 631 628
f 535 628 614
f 536 617 632
f 537 595 538
f 538 595 546
f 538 546 545
f 538 545 539
f 540 542 541
f 542 553 633
f 542 633 634
f 542 634 635
f 542 635 543
f 543 636 544
f 543 635 636
f 544 636 634
f 544 634 637
f 544 637 638
f 544 638 555
f 544 555 554
f 547 549 548
f 547 594 549
f 549 594 639
f 549 639 640
f 549 640 589
f 549 589 550
f 550 641 551
f 550 589 642
f 550 642 641
f 551 641 648
f 551 648 643
f 551 643 552
f 552 644 645
f 552 645 646
f 552 646 647
f 552 647 553
f 552 643 648
f 552 648 644
f 553 647 646
f 553 646 649
f 553 649 650
f 553 650 651
f 553 651 652
f 553 652 637
f 553 637 634
f 553 634 633
f 555 638 653
f 555 653 654
f 555 654 655
f 555 655 656
f 555 656 657
f 555 657 658
f 555 658 596
f 555 596 556
f 558 660 661
f 559 659 744
f 559 744 663
f 559 663 662
f 560 664 566
f 560 566 562
f 560 562 561
f 564 621 665
f 564 665 666
f 564 666 565
f 565 666 570
f 566 664 667
f 566 667 622
f 567 571 668
f 567 668 568
f 568 668 669
f 568 669 670
f 568 670 569
f 570 666 671
f 570 671 619
f 570 618 572
f 571 573 668
f 572 618 611
f 572 611 672
f 572 672 673
f 572 673 674
f 572 674 675
f 572 675 676
f 572 676 677
f 572 677 573
f 573 678 668
f 573 677 678
f 574 583 679
f 574 679 575
f 575 680 577
f 575 577 576
f 575 679 680
f 577 680 681
f 577 681 578
f 578 682 683
f 578 683 684
f 578 684 685
f 578 685 579
f 578 681 682
f 579 685 686
f 579 686 585
f 579 585 580
f 581 687 688
f 581 688 582
f 581 584 689
f 581 689 687
f 582 688 690
f 582 690 691
f 582 691 583
f 583 692 679
f 583 691 692
f 585 693 694
f 585 694 695
f 585 695 586
f 585 686 693
f 586 695 587
f 587 695 694
f 587 694 696
f 587 696 697
f 587 697 698
f 587 698 589
f 587 589 588
f 589 640 590
f 589 698 642
f 590 640 699
f 590 699 591
f 591 699 639
f 591 639 594
f 596 658 603
f 597 700 625
f 597 625 624
f 597 624 600
f 597 600 599
f 597 608 607
f 597 607 701
f 597 701 700
f 603 658 604
f 604 658 605
f 605 658 702
f 605 702 609
f 606 609 703
f 606 703 704
f 606 704 607
f 607 705 701
f 607 704 706
f 607 706 707
f 607 707 708
f 607 708 705
f 609 702 703
f 610 616 709
f 610 709 710
f 610 710 611
f 611 710 673
f 611 673 672
f 611 618 612
f 614 628 615
f 615 628 627
f 615 627 711
f 615 711 712
f 615 712 713
f 615 713 714
f 615 714 715
f 615 715 716
f 615 716 717
f 615 717 718
f 615 718 616
f 616 718 719
f 616 719 720
f 616 720 709
f 617 623 721
f 617 721 632
f 619 671 666
f 619 666 665
f 619 665 621
f 619 621 620
f 625 700 701
f 625 701 722
f 625 722 723
f 625 723 630
f 626 630 723
f 626 723 724
f 626 724 627
f 627 724 711
f 628 631 725
f 628 725 629
f 629 725 631
f 634 636 635
f 637 652 726
f 637 726 638
f 638 726 654
f 638 654 653
f 639 699 640
f 641 642 648
f 642 698 727
f 642 727 648
f 644 648 728
f 644 728 645
f 645 728 729
f 645 729 646
f 646 729 730
f 646 730 731
f 646 731 649
f 648 727 732
f 648 732 728
f 649 733 650
f 649 731 734
f 649 734 733
f 650 733 735
f 650 735 736
f 650 736 737
f 650 737 738
f 650 738 739
f 650 739 740
f 650 740 652
f 650 652 651
f 652 740 656
f 652 656 655
f 652 655 654
f 652 654 726
f 656 740 741
f 656 741 742
f 656 742 743
f 656 743 702
f 656 702 657
f 657 702 658
f 660 745 746
f 660 746 661
f 660 747 745
f 661 746 748
f 661 748 749
f 662 663 750
f 662 750 751
f 662 751 752
f 663 753 754
f 663 754 750
f 663 744 755
f 663 755 753
f 668 678 756
f 668 756 757
f 668 757 758
f 668 758 669
f 669 759 670
f 669 758 759
f 673 710 720
f 673 720 760
f 673 760 761
f 673 761 674
f 674 761 675
f 675 761 676
f 676 762 763
f 676 763 677
f 676 761 717
f 676 717 764
f 676 764 765
f 676 765 766
f 676 766 762
f 677 763 767
f 677 767 678
f 678 767 768
f 678 768 756
f 679 692 769
f 679 769 770
f 679 770 771
f 679 771 681
f 679 681 680
f 681 771 770
f 681 770 772
f 681 772 773
f 681 773 774
f 681 774 682
f 682 774 683
f 683 774 773
f 683 773 775
f 683 775 776
f 683 776 694
f 683 694 693
f 683 693 684
f 684 686 685
f 684 693 686
f 687 689 777
f 687 777 778
f 687 778 779
f 687 779 780
f 687 780 690
f 687 690 688
f 690 780 691
f 691 780 781
f 691 781 692
f 692 781 782
f 692 782 769
f 694 783 784
f 694 784 696
f 694 776 783
f 696 785 786
f 696 786 697
f 696 784 785
f 697 786 698
f 698 786 787
f 698 787 727
f 701 705 722
f 702 743 742
f 702 742 703
f 703 788 789
f 703 789 706
f 703 706 704
f 703 742 788
f 705 708 790
f 705 790 791
f 705 791 792
f 705 792 723
f 705 723 722
f 706 789 793
f 706 793 794
f 706 794 707
f 707 794 793
f 707 793 795
f 707 795 796
f 707 796 797
f 707 797 798
f 707 798 799
f 707 799 800
f 707 800 801
f 707 801 802
f 707 802 708
f 708 802 790
f 709 720 710
f 711 713 712
f 711 724 803
f 711 803 713
f 713 803 804
f 713 804 714
f 714 805 715
f 714 804 806
f 714 806 805
f 715 805 807
f 715 807 808
f 715 808 809
f 715 809 810
f 715 810 716
f 716 810 717
f 717 761 718
f 717 810 809
f 717 809 764
f 718 761 760
f 718 760 719
f 719 760 720
f 723 811 724
f 723 792 811
f 724 811 812
f 724 812 803
f 727 787 732
f 728 732 729
f 729 732 787
f 729 787 786
f 729 786 813
f 729 813 814
f 729 814 815
f 729 815 816
f 729 816 817
f 729 817 734
f 729 734 730
f 730 734 731
f 733 818 735
f 733 734 819
f 733 819 818
f 734 817 820
f 734 820 821
f 734 821 819
f 735 818 736
f 736 818 822
f 736 822 737
f 737 823 738
f 737 822 823
f 738 824 739
f 738 823 824
f 739 824 741
f 739 741 740
f 741 824 742
f 742 824 825
f 742 825 788
f 745 826 827
f 745 827 746
f 745 747 828
f 745 828 826
f 746 827 829
f 746 829 748
f 747 830 828
f 748 829 831
f 748 831 832
f 748 832 749
f 749 832 833
f 750 834 751
f 750 754 835
f 750 835 834
f 751 834 752
f 752 834 837
f 752 837 836
f 753 838 754
f 753 755 838
f 754 838 839
f 754 839 840
f 754 840 841
f 754 841 835
f 755 842 843
f 755 843 844
f 755 844 838
f 756 768 757
f 757 767 763
f 757 763 762
f 757 762 845
f 757 845 846
f 757 846 847
f 757 847 758
f 757 768 767
f 758 847 846
f 762 848 849
f 762 849 850
f 762 850 845
f 762 766 851
f 762 851 848
f 764 809 765
f 765 852 853
f 765 853 851
f 765 851 766
f 765 809 808
f 765 808 854
f 765 854 852
f 769 782 855
f 769 855 770
f 770 855 773
f 770 773 772
f 773 856 775
f 773 855 857
f 773 857 858
f 773 858 856
f 775 859 860
f 775 860 776
f 775 856 859
f 776 860 861
f 776 861 783
f 777 836 778
f 778 862 779
f 778 836 862
f 779 862 863
f 779 863 780
f 780 863 864
f 780 864 781
f 781 864 782
f 782 865 866
f 782 866 867
f 782 867 868
f 782 868 855
f 782 864 862
f 782 862 869
f 782 869 870
f 782 870 865
f 783 871 872
f 783 872 784
f 783 861 871
f 784 872 785
f 785 872 786
f 786 814 813
f 786 872 873
f 786 873 814
f 788 825 793
f 788 793 789
f 790 802 791
f 791 874 811
f 791 811 792
f 791 802 874
f 793 825 875
f 793 875 796
f 793 796 795
f 796 875 876
f 796 876 877
f 796 877 878
f 796 878 797
f 797 878 879
f 797 879 798
f 798 880 881
f 798 881 882
f 798 882 883
f 798 883 884
f 798 884 799
f 798 879 880
f 799 884 800
f 800 885 874
f 800 874 886
f 800 886 801
f 800 884 883
f 800 883 887
f 800 887 888
f 800 888 889
f 800 889 890
f 800 890 885
f 801 886 802
f 802 886 874
f 803 812 804
f 804 812 891
f 804 891 806
f 805 806 892
f 805 892 807
f 806 891 893
f 806 893 894
f 806 894 895
f 806 895 892
f 807 896 808
f 807 892 897
f 807 897 896
f 808 896 854
f 811 874 898
f 811 898 812
f 812 898 874
f 812 874 899
f 812 899 890
f 812 890 891
f 814 816 815
f 814 873 900
f 814 900 901
f 814 901 902
f 814 902 816
f 816 902 903
f 816 903 904
f 816 904 905
f 816 905 906
f 816 906 821
f 816 821 820
f 816 820 817
f 818 819 821
f 818 821 907
f 818 907 822
f 821 906 905
f 821 905 908
f 821 908 909
f 821 909 910
f 821 910 911
f 821 911 822
f 821 822 907
f 822 911 823
f 823 911 875
f 823 875 825
f 823 825 824
f 826 912 913
f 826 913 827
f 826 828 914
f 826 914 912
f 827 913 829
f 828 830 914
f 829 915 916
f 829 916 917
f 829 917 918
f 829 918 919
f 829 919 831
f 829 913 920
f 829 920 915
f 830 921 914
f 830 922 921
f 831 919 832
f 832 923 924
f 832 924 843
f 832 843 833
f 832 919 923
f 833 843 925
f 834 835 926
f 834 926 862
f 834 862 837
f 835 841 927
f 835 927 928
f 835 928 926
f 836 837 862
f 838 844 839
f 839 844 929
f 839 929 930
f 839 930 931
f 839 931 932
f 839 932 840
f 840 933 841
f 840 932 934
f 840 934 933
f 841 933 927
f 842 925 843
f 843 924 935
f 843 935 929
f 843 929 844
f 848 851 936
f 848 936 849
f 849 936 850
f 850 936 937
f 850 937 938
f 851 853 852
f 851 852 936
f 852 939 940
f 852 940 936
f 852 854 939
f 854 896 941
f 854 941 942
f 854 942 943
f 854 943 944
f 854 944 945
f 854 945 939
f 855 868 857
f 856 858 946
f 856 946 947
f 856 947 948
f 856 948 949
f 856 949 859
f 857 868 950
f 857 950 858
f 858 950 951
f 858 951 946
f 859 949 952
f 859 952 861
f 859 861 860
f 861 952 953
f 861 953 901
f 861 901 871
f 862 926 869
f 862 864 863
f 865 926 866
f 865 870 926
f 866 926 928
f 866 928 954
f 866 954 955
f 866 955 867
f 867 955 956
f 867 956 951
f 867 951 868
f 868 951 950
f 869 926 870
f 871 901 872
f 872 900 873
f 872 901 900
f 874 885 957
f 874 957 890
f 874 890 899
f 875 911 876
f 876 911 877
f 877 958 880
f 877 880 879
f 877 879 878
f 877 911 959
f 877 959 960
f 877 960 961
f 877 961 962
f 877 962 963
f 877 963 964
f 877 964 958
f 880 958 965
f 880 965 881
f 881 965 964
f 881 964 966
f 881 966 882
f 882 967 883
f 882 966 967
f 883 967 968
f 883 968 969
f 883 969 970
f 883 970 887
f 885 890 957
f 887 971 972
f 887 972 973
f 887 973 974
f 887 974 888
f 887 970 969
f 887 969 971
f 888 974 889
f 889 974 890
f 890 975 894
f 890 894 893
f 890 893 891
f 890 974 976
f 890 976 977
f 890 977 978
f 890 978 979
f 890 979 975
f 892 895 897
f 894 980 981
f 894 981 895
f 894 975 979
f 894 979 982
f 894 982 983
f 894 983 980
f 895 981 980
f 895 980 897
f 896 897 941
f 897 980 984
f 897 984 985
f 897 985 986
f 897 986 943
f 897 943 987
f 897 987 941
f 901 953 952
f 901 952 988
f 901 988 902
f 902 988 903
f 903 988 904
f 904 988 989
f 904 989 990
f 904 990 991
f 904 991 992
f 904 992 993
f 904 993 994
f 904 994 905
f 905 995 996
f 905 996 997
f 905 997 998
f 905 998 908
f 905 994 995
f 908 999 909
f 908 998 999
f 909 999 1000
f 909 1000 959
f 909 959 910
f 910 959 911
f 912 986 920
f 912 920 913
f 912 914 1001
f 912 1001 986
f 914 921 1002
f 914 1002 1001
f 915 920 916
f 916 920 1003
f 916 1003 978
f 916 978 972
f 916 972 917
f 917 972 971
f 917 971 1004
f 917 1004 919
f 917 919 918
f 919 1004 923
f 920 986 1003
f 921 922 1005
f 921 1005 1006
f 921 1006 1007
f 921 1007 1002
f 922 1008 1005
f 923 1004 1009
f 923 1009 1010
f 923 1010 1011
f 923 1011 1012
f 923 1012 924
f 924 1012 935
f 927 933 1013
f 927 1013 1014
f 927 1014 928
f 928 1014 954
f 929 935 930
f 930 935 1015
f 930 1015 931
f 931 1015 1016
f 931 1016 932
f 932 1016 1017
f 932 1017 934
f 933 934 1013
f 934 1017 1013
f 935 1012 1018
f 935 1018 1019
f 935 1019 1015
f 936 940 1020
f 936 1020 937
f 937 1020 1021
f 937 1021 1022
f 937 1022 938
f 939 1023 1021
f 939 1021 1020
f 939 1020 940
f 939 945 1023
f 941 987 942
f 942 987 943
f 943 1024 944
f 943 986 1025
f 943 1025 1026
f 943 1026 1027
f 943 1027 1007
f 943 1007 1024
f 944 1028 945
f 944 1024 1007
f 944 1007 1029
f 944 1029 1028
f 945 1028 1030
f 945 1030 1023
f 946 1031 947
f 946 951 1031
f 947 1031 1032
f 947 1032 949
f 947 949 948
f 949 1032 1033
f 949 1033 952
f 951 956 1031
f 952 990 989
f 952 989 988
f 952 1033 1034
f 952 1034 1035
f 952 1035 990
f 954 956 955
f 954 1014 1036
f 954 1036 1037
f 954 1037 1033
f 954 1033 1032
f 954 1032 1038
f 954 1038 956
f 956 1038 1031
f 958 964 965
f 959 1000 1039
f 959 1039 960
f 960 1039 961
f 961 1039 1040
f 961 1040 962
f 962 1018 1041
f 962 1041 1042
f 962 1042 963
f 962 1040 1043
f 962 1043 1019
f 962 1019 1018
f 963 1042 1041
f 963 1041 964
f 964 1041 966
f 966 969 968
f 966 968 967
f 966 1041 969
f 969 1010 971
f 969 1041 1044
f 969 1044 1011
f 969 1011 1010
f 971 1010 1009
f 971 1009 1004
f 972 978 977
f 972 977 973
f 973 977 974
f 974 977 976
f 978 1003 1045
f 978 1045 979
f 979 1045 982
f 980 983 982
f 980 982 1046
f 980 1046 1047
f 980 1047 984
f 982 1045 1003
f 982 1003 1046
f 984 986 985
f 984 1047 1003
f 984 1003 986
f 986 1001 1048
f 986 1048 1026
f 986 1026 1025
f 990 1049 991
f 990 1035 1036
f 990 1036 1050
f 990 1050 1051
f 990 1051 1049
f 991 993 992
f 991 1049 993
f 993 1052 995
f 993 995 994
f 993 1049 1053
f 993 1053 1054
f 993 1054 1052
f 995 1052 996
f 996 1055 1043
f 996 1043 1056
f 996 1056 997
f 996 1052 1055
f 997 1056 999
f 997 999 998
f 999 1039 1000
f 999 1056 1040
f 999 1040 1039
f 1001 1002 1007
f 1001 1007 1027
f 1001 1027 1026
f 1001 1026 1048
f 1003 1047 1046
f 1005 1028 1029
f 1005 1029 1006
f 1005 1008 1057
f 1005 1057 1028
f 1006 1029 1007
f 1011 1044 1018
f 1011 1018 1012
f 1013 1017 1052
f 1013 1052 1054
f 1013 1054 1051
f 1013 1051 1014
f 1014 1051 1036
f 1015 1019 1058
f 1015 1058 1016
f 1016 1052 1017
f 1016 1058 1055
f 1016 1055 1052
f 1018 1044 1041
f 1019 1043 1055
f 1019 1055 1058
f 1021 1023 1022
f 1022 1023 1059
f 1023 1030 1059
f 1028 1057 1030
f 1031 1038 1032
f 1033 1036 1034
f 1033 1037 1036
f 1034 1036 1035
f 1036 1051 1050
f 1040 1056 1043
f 1049 1051 1053
f 1051 1054 1053

