# https://github.com/mikedh/trimesh
v 0.03831839 0.01286391 0.00909413
v 0.03831839 0.01286139 0.00975558
v 0.03897699 0.01285383 0.00909413
v 0.03831839 0.01286391 0.00904851
v 0.03500833 0.01286391 0.01041753
v 0.03567034 0.01286139 0.01041753
v 0.03831839 0.01284880 0.01010118
v 0.03897699 0.01284124 0.00975558
v 0.03902135 0.01284376 0.00904851
v 0.03897699 0.01285383 0.00904851
v 0.01454737 0.01286391 0.00904851
v 0.02178515 0.01286391 0.01041753
v 0.03500492 0.01282361 0.01107947
v 0.03567034 0.01285131 0.01060495
v 0.03831498 0.01283620 0.01041753
v 0.03897699 0.01281354 0.01010118
v 0.03923975 0.01274302 0.01010118
v 0.03951957 0.01269518 0.00975558
v 0.03956393 0.01270777 0.00909413
v 0.03956393 0.01270777 0.00904851
v 0.01384100 0.01285887 0.00904851
v 0.01450301 0.01286391 0.00909413
v 0.02178174 0.01282361 0.01107947
v 0.01450301 0.01286391 0.00975558
v 0.01384441 0.01284376 0.01041753
v 0.03500492 0.01268510 0.01174092
v 0.03567034 0.01282109 0.01107947
v 0.03831498 0.01280598 0.01060495
v 0.03879272 0.01277073 0.01060495
v 0.03897699 0.01278584 0.01041753
v 0.03942743 0.01265236 0.01041753
v 0.03947521 0.01267251 0.01010118
v 0.03985058 0.01237030 0.00975558
v 0.03989494 0.01245089 0.00909413
v 0.03989494 0.01245089 0.00904851
v 0.01317899 0.01271280 0.00904851
v 0.01317899 0.01271532 0.00909413
v 0.01384100 0.01286139 0.00946254
v 0.02178174 0.01268510 0.01174092
v 0.01384441 0.01273043 0.01107947
v 0.01384100 0.01286139 0.00975558
v 0.01317899 0.01271784 0.00975558
v 0.01312780 0.01268006 0.01035802
v 0.01331548 0.01265236 0.01107947
v 0.03500492 0.01257429 0.01208156
v 0.03567034 0.01257429 0.01208008
v 0.03567034 0.01268258 0.01174092
v 0.03831498 0.01272791 0.01107947
v 0.03895311 0.01265488 0.01106410
v 0.03897017 0.01274806 0.01060495
v 0.03935236 0.01260451 0.01083354
v 0.04062861 0.01123955 0.01006598
v 0.04066615 0.01128740 0.00962517
v 0.04066615 0.01128740 0.00938023
v 0.04081971 0.01088949 0.00904851
v 0.01284457 0.01257177 0.00904851
v 0.01384441 0.01260955 0.01149399
v 0.02140295 0.01257429 0.01207809
v 0.02178174 0.01257429 0.01208156
v 0.01344516 0.01259696 0.01146623
v 0.01284457 0.01257177 0.00946254
v 0.01284798 0.01257177 0.01009721
v 0.01287528 0.01254407 0.01053901
v 0.01298789 0.01247356 0.01107947
v 0.03500492 0.01238290 0.01241130
v 0.03567034 0.01238038 0.01241031
v 0.03600476 0.01257177 0.01207661
v 0.03831498 0.01260955 0.01149003
v 0.03872106 0.01259444 0.01146028
v 0.03916468 0.01247104 0.01127483
v 0.03937284 0.01202780 0.01150738
v 0.03947180 0.01224438 0.01106410
v 0.04072757 0.01079631 0.01024299
v 0.04075146 0.01085675 0.01010118
v 0.04079582 0.01097512 0.00980963
v 0.04081971 0.01090964 0.00913330
v 0.04107905 0.01025486 0.00904851
v 0.01139428 0.01146872 0.00904851
v 0.01139428 0.01147376 0.00909413
v 0.01384441 0.01243830 0.01182422
v 0.02178174 0.01238290 0.01241130
v 0.01320629 0.01232749 0.01170770
v 0.01317899 0.01201269 0.01220404
v 0.01384441 0.01211091 0.01232700
v 0.00684210 0.00731087 0.01010118
v 0.01284798 0.01191196 0.01207809
v 0.03500492 0.01205299 0.01290119
v 0.03567034 0.01204795 0.01289970
v 0.03831498 0.01241815 0.01182026
v 0.03876201 0.01201521 0.01217230
v 0.03831498 0.01208824 0.01227296
v 0.03884732 0.01157701 0.01228535
v 0.03917833 0.01157701 0.01190009
v 0.04057060 0.01024982 0.01067586
v 0.04059790 0.01034300 0.01060495
v 0.04078217 0.01025486 0.01034464
v 0.04087431 0.01025486 0.01010118
v 0.04100398 0.01025486 0.00975558
v 0.04107564 0.01025486 0.00909413
v 0.04135887 0.00893019 0.00904851
v 0.01011803 0.00694570 0.00904851
v 0.00659299 0.00694570 0.01010118
v 0.02178174 0.01205299 0.01290119
v 0.01317899 0.01170797 0.01253526
v 0.01384441 0.01183137 0.01265773
v 0.01285139 0.01124962 0.01273558
v 0.03500492 0.01172056 0.01323241
v 0.03567034 0.01171804 0.01323043
v 0.03613785 0.01200262 0.01284317
v 0.03815801 0.01140324 0.01283078
v 0.03609349 0.01134028 0.01346198
v 0.03825356 0.01091468 0.01292350
v 0.03858456 0.01091468 0.01267855
v 0.04059449 0.00959001 0.01069867
v 0.04064567 0.00976378 0.01060545
v 0.04078558 0.00959253 0.01036794
v 0.04139300 0.00827037 0.00904851
v 0.01002931 0.00628337 0.00904851
v 0.00658616 0.00679712 0.01010118
v 0.01018970 0.00562103 0.01336033
v 0.01018970 0.00594087 0.01330183
v 0.01018970 0.00628337 0.01317588
v 0.02178174 0.01172056 0.01323241
v 0.01317899 0.01137554 0.01282979
v 0.01384441 0.01149894 0.01292251
v 0.02112314 0.01136547 0.01348033
v 0.01348269 0.01060995 0.01340595
v 0.03500492 0.01139065 0.01349768
v 0.03567034 0.01138813 0.01349719
v 0.03761202 0.01086683 0.01322596
v 0.03567034 0.01091468 0.01374907
v 0.03600476 0.00993251 0.01405848
v 0.03736632 0.01061247 0.01340645
v 0.03826379 0.01024982 0.01296961
v 0.03777582 0.01024982 0.01330034
v 0.03859821 0.01024982 0.01267905
v 0.04059449 0.00893019 0.01069916
v 0.04065250 0.00911907 0.01060495
v 0.04064909 0.00959001 0.01060545
v 0.03859821 0.00959001 0.01268054
v 0.04065250 -0.00893019 0.01060545
v 0.04078558 -0.00893019 0.01036844
v 0.04139300 0.00539690 0.00904851
v 0.01002590 0.00562103 0.00904851
v 0.00653157 0.00363907 0.01010118
v 0.00653839 0.00417044 0.01010118
v 0.00654863 0.00482774 0.01010118
v 0.00657251 0.00614234 0.01010118
v 0.01018970 0.00527853 0.01336331
v 0.01384441 0.00893019 0.01361321
v 0.01384441 0.00959001 0.01359735
v 0.01337350 0.01024982 0.01344959
v 0.02178174 0.01139065 0.01349768
v 0.01384441 0.01095497 0.01325323
v 0.02112314 0.01091468 0.01372428
v 0.02178174 0.01091468 0.01375750
v 0.01384441 0.01024982 0.01350512
v 0.02138931 0.00994006 0.01405947
v 0.02115043 0.01019442 0.01397914
v 0.02178174 0.01028004 0.01398460
v 0.03500492 0.01091468 0.01375750
v 0.03500492 0.01028004 0.01398460
v 0.03567034 0.01027501 0.01397716
v 0.03602182 0.00959001 0.01407186
v 0.03750623 0.00959001 0.01348727
v 0.03744140 0.01024982 0.01344612
v 0.03567034 0.00994258 0.01406145
v 0.03567034 0.00959001 0.01408872
v 0.03783383 0.00959001 0.01330034
v 0.03784748 0.00694319 0.01330232
v 0.03784748 0.00628337 0.01330530
v 0.03784748 0.00562103 0.01330629
v 0.03826379 0.00694319 0.01297160
v 0.04059449 -0.00959001 0.01069916
v 0.03859821 -0.00893019 0.01268252
v 0.04064909 -0.00959001 0.01060545
v 0.04078558 -0.00959253 0.01036794
v 0.04138617 -0.00827037 0.00904851
v 0.01002249 0.00363403 0.00904851
v 0.01001566 -0.00297673 0.00904851
v 0.00653157 0.00350811 0.01010118
v 0.01018970 -0.00496122 0.01336331
v 0.01384441 -0.00893019 0.01361321
v 0.02112314 0.00893019 0.01409021
v 0.02078530 0.00932054 0.01405947
v 0.02115043 0.00955979 0.01407186
v 0.02094910 0.00975874 0.01404509
v 0.02178174 0.00959001 0.01409071
v 0.02178174 0.00994762 0.01406145
v 0.03500492 0.00994762 0.01406145
v 0.03604230 0.00893019 0.01408327
v 0.03567034 0.00893019 0.01411203
v 0.03750965 0.00893019 0.01349520
v 0.03500492 0.00959001 0.01409071
v 0.03751988 0.00694319 0.01349520
v 0.03784748 -0.00562103 0.01330629
v 0.03826379 -0.00694319 0.01297160
v 0.04057742 -0.01024982 0.01068379
v 0.04062861 -0.01025486 0.01060495
v 0.04078217 -0.01025486 0.01035257
v 0.03859821 -0.01024982 0.01268054
v 0.03858798 -0.01091468 0.01268103
v 0.03826379 -0.01024982 0.01296961
v 0.04138276 -0.00850710 0.00904851
v 0.01001566 -0.00384054 0.00904851
v 0.00656228 -0.00429888 0.01010118
v 0.01018970 -0.00562103 0.01336083
v 0.01384441 -0.00959001 0.01359735
v 0.02078530 -0.00932054 0.01405947
v 0.02112314 -0.00893019 0.01409021
v 0.02178174 0.00893019 0.01411352
v 0.03604230 -0.00893019 0.01408327
v 0.03500492 0.00893019 0.01411352
v 0.03567034 -0.00893019 0.01411203
v 0.03751988 -0.00694319 0.01349520
v 0.03784748 -0.00628337 0.01330530
v 0.03884732 -0.01157701 0.01228535
v 0.03917833 -0.01157701 0.01190554
v 0.03937284 -0.01203284 0.01151284
v 0.04072757 -0.01080387 0.01025440
v 0.04101080 -0.01025486 0.00975558
v 0.04136228 -0.00893019 0.00904851
v 0.03825697 -0.01091468 0.01292152
v 0.03783383 -0.00959001 0.01330034
v 0.03777582 -0.01024982 0.01330034
v 0.01002931 -0.00628589 0.00904851
v 0.00657251 -0.00502166 0.01010118
v 0.00661346 -0.00640929 0.01010118
v 0.00663735 -0.00702377 0.01010118
v 0.01018970 -0.00628337 0.01317489
v 0.01347928 -0.01060995 0.01340595
v 0.01337008 -0.01024982 0.01344959
v 0.01384441 -0.01024982 0.01350512
v 0.02138931 -0.00994006 0.01405947
v 0.02094910 -0.00975874 0.01404509
v 0.02115043 -0.00955979 0.01407186
v 0.02178174 -0.00893019 0.01411352
v 0.03602182 -0.00959001 0.01407186
v 0.03750623 -0.00959001 0.01348777
v 0.03750965 -0.00893019 0.01349520
v 0.03500492 -0.00893019 0.01411352
v 0.03500492 -0.00959001 0.01409071
v 0.03567034 -0.00959001 0.01408872
v 0.03815801 -0.01140324 0.01282879
v 0.03876201 -0.01201521 0.01217032
v 0.03916468 -0.01247356 0.01127483
v 0.03935236 -0.01260451 0.01083354
v 0.03947180 -0.01224690 0.01106460
v 0.04063202 -0.01124459 0.01008432
v 0.04064226 -0.01120177 0.01010118
v 0.04076170 -0.01086683 0.01010118
v 0.04081971 -0.01098016 0.00982054
v 0.04097327 -0.01091720 0.00909413
v 0.04098692 -0.01086935 0.00904851
v 0.03736291 -0.01060995 0.01340595
v 0.03744140 -0.01024982 0.01344612
v 0.01004637 -0.00652262 0.00904851
v 0.01011803 -0.00694570 0.00904851
v 0.01139428 -0.01146872 0.00904851
v 0.00686940 -0.00729828 0.01010118
v 0.01285139 -0.01124710 0.01273359
v 0.01317899 -0.01137302 0.01282830
v 0.01384441 -0.01149894 0.01292251
v 0.01384441 -0.01095497 0.01325323
v 0.02112314 -0.01091468 0.01372428
v 0.02178174 -0.01028004 0.01398460
v 0.02115043 -0.01019442 0.01397914
v 0.02178174 -0.00994762 0.01406145
v 0.02178174 -0.00959001 0.01409071
v 0.03600476 -0.00993251 0.01405848
v 0.03500492 -0.00994762 0.01406145
v 0.03567034 -0.00994258 0.01406145
v 0.03831498 -0.01209076 0.01227445
v 0.03760861 -0.01086431 0.01322398
v 0.03609349 -0.01134028 0.01346198
v 0.03872106 -0.01259696 0.01146325
v 0.03895652 -0.01265740 0.01106460
v 0.03897699 -0.01279339 0.01041753
v 0.03942743 -0.01265740 0.01041753
v 0.04070027 -0.01132266 0.00964352
v 0.04097327 -0.01091720 0.00904851
v 0.04074122 -0.01136799 0.00909413
v 0.04075828 -0.01133777 0.00904851
v 0.01284116 -0.01257681 0.00904851
v 0.01139428 -0.01147376 0.00909413
v 0.01287528 -0.01254407 0.01058661
v 0.01299130 -0.01246348 0.01107947
v 0.01285139 -0.01190944 0.01207363
v 0.01317899 -0.01170545 0.01253129
v 0.01384441 -0.01183137 0.01265773
v 0.02112314 -0.01136547 0.01348033
v 0.02178174 -0.01091468 0.01375750
v 0.03500492 -0.01028004 0.01398460
v 0.03567034 -0.01027501 0.01397716
v 0.03567034 -0.01091468 0.01374907
v 0.03567034 -0.01171804 0.01323043
v 0.03614467 -0.01200262 0.01284317
v 0.03567034 -0.01204795 0.01289970
v 0.03831498 -0.01242067 0.01182274
v 0.03567034 -0.01138813 0.01349719
v 0.03600476 -0.01257177 0.01207661
v 0.03831498 -0.01273043 0.01107947
v 0.03950592 -0.01270021 0.00975558
v 0.03946838 -0.01267755 0.01010118
v 0.03831498 -0.01281102 0.01060495
v 0.03831498 -0.01284124 0.01041753
v 0.03897699 -0.01284628 0.00975558
v 0.03988129 -0.01245845 0.00909413
v 0.03962536 -0.01250630 0.01010118
v 0.03983693 -0.01234260 0.00975558
v 0.04074122 -0.01136799 0.00904851
v 0.03988129 -0.01246097 0.00904851
v 0.01284116 -0.01257933 0.00946254
v 0.01313463 -0.01270525 0.00904851
v 0.01284116 -0.01257933 0.00975558
v 0.01284457 -0.01257429 0.01014531
v 0.01313121 -0.01268258 0.01038629
v 0.01318922 -0.01267251 0.01060545
v 0.01331890 -0.01265236 0.01107947
v 0.01344857 -0.01259696 0.01146623
v 0.01317899 -0.01201018 0.01220057
v 0.01384441 -0.01211091 0.01232700
v 0.02178174 -0.01205299 0.01290119
v 0.02178174 -0.01172056 0.01323241
v 0.02178174 -0.01139065 0.01349768
v 0.03500492 -0.01091468 0.01375750
v 0.03500492 -0.01172056 0.01323241
v 0.03500492 -0.01205299 0.01290119
v 0.03567034 -0.01238038 0.01241031
v 0.03500492 -0.01139065 0.01349768
v 0.03567034 -0.01257429 0.01208008
v 0.03567034 -0.01268258 0.01174092
v 0.03567034 -0.01282109 0.01107947
v 0.03955028 -0.01270777 0.00909413
v 0.03831839 -0.01286391 0.00975558
v 0.03567034 -0.01285131 0.01060495
v 0.03567034 -0.01286139 0.01041753
v 0.03893263 -0.01285635 0.00904851
v 0.03897699 -0.01285383 0.00909413
v 0.03957417 -0.01269014 0.00904851
v 0.01317899 -0.01272036 0.00904851
v 0.01317899 -0.01272288 0.00909413
v 0.01317899 -0.01272288 0.00975558
v 0.01352364 -0.01278584 0.01010118
v 0.01384441 -0.01284376 0.01041753
v 0.01384441 -0.01273043 0.01107947
v 0.01384441 -0.01260955 0.01149399
v 0.01384441 -0.01243830 0.01182422
v 0.02178174 -0.01238290 0.01241130
v 0.03500492 -0.01238290 0.01241130
v 0.03500492 -0.01257429 0.01208156
v 0.03500492 -0.01268510 0.01174092
v 0.03500492 -0.01282361 0.01107947
v 0.03955028 -0.01270777 0.00904851
v 0.03831839 -0.01286391 0.00904851
v 0.03500833 -0.01286391 0.01041753
v 0.03897699 -0.01285383 0.00904851
v 0.01384100 -0.01286139 0.00904851
v 0.01384100 -0.01286139 0.00975558
v 0.02178515 -0.01286391 0.01041753
v 0.02178174 -0.01282361 0.01107947
v 0.02178174 -0.01268510 0.01174092
v 0.02140295 -0.01257429 0.01207809
v 0.02178174 -0.01257429 0.01208156
v 0.02680825 -0.01286391 0.00904851
v 0.01884022 -0.01286391 0.00946254
v 0.01913369 -0.01286391 0.00975558
f 1 2 3
f 1 3 10
f 1 10 4
f 1 4 11
f 1 11 22
f 1 22 24
f 1 24 12
f 1 12 5
f 1 5 2
f 2 5 6
f 2 6 7
f 2 7 8
f 2 8 3
f 3 9 10
f 3 8 9
f 4 10 9
f 4 9 20
f 4 20 35
f 4 35 55
f 4 55 77
f 4 77 100
f 4 100 117
f 4 117 143
f 4 143 178
f 4 178 204
f 4 204 222
f 4 222 254
f 4 254 281
f 4 281 283
f 4 283 311
f 4 311 312
f 4 312 340
f 4 340 354
f 4 354 357
f 4 357 338
f 4 338 355
f 4 355 365
f 4 365 358
f 4 358 341
f 4 341 314
f 4 314 284
f 4 284 259
f 4 259 258
f 4 258 257
f 4 257 226
f 4 226 205
f 4 205 180
f 4 180 179
f 4 179 144
f 4 144 118
f 4 118 101
f 4 101 78
f 4 78 56
f 4 56 36
f 4 36 21
f 4 21 11
f 5 12 23
f 5 23 13
f 5 13 14
f 5 14 6
f 6 14 15
f 6 15 7
f 7 15 8
f 8 15 16
f 8 16 17
f 8 17 18
f 8 18 19
f 8 19 9
f 9 19 20
f 11 21 22
f 12 24 25
f 12 25 23
f 13 23 39
f 13 39 26
f 13 26 47
f 13 47 27
f 13 27 14
f 14 27 15
f 15 27 28
f 15 28 29
f 15 29 30
f 15 30 16
f 16 30 17
f 17 31 32
f 17 32 18
f 17 30 31
f 18 33 34
f 18 34 19
f 18 32 33
f 19 34 35
f 19 35 20
f 21 36 37
f 21 37 38
f 21 38 22
f 22 38 41
f 22 41 24
f 23 25 40
f 23 40 39
f 24 41 25
f 25 41 42
f 25 42 43
f 25 43 44
f 25 44 40
f 26 39 59
f 26 59 45
f 26 45 46
f 26 46 47
f 27 47 48
f 27 48 28
f 28 48 29
f 29 48 49
f 29 49 50
f 29 50 30
f 30 51 31
f 30 50 51
f 31 51 33
f 31 33 32
f 33 51 52
f 33 52 53
f 33 53 34
f 34 53 54
f 34 54 35
f 35 54 55
f 36 56 37
f 37 56 42
f 37 42 38
f 38 42 41
f 39 40 57
f 39 57 58
f 39 58 59
f 40 44 60
f 40 60 57
f 42 56 61
f 42 61 62
f 42 62 43
f 43 62 63
f 43 63 44
f 44 63 64
f 44 64 60
f 45 59 81
f 45 81 65
f 45 65 46
f 46 65 66
f 46 66 67
f 46 67 47
f 47 67 48
f 48 68 69
f 48 69 49
f 48 67 68
f 49 69 51
f 49 51 50
f 51 69 70
f 51 70 71
f 51 71 72
f 51 72 52
f 52 73 74
f 52 74 75
f 52 75 53
f 52 72 71
f 52 71 73
f 53 75 54
f 54 75 76
f 54 76 55
f 55 76 77
f 56 78 79
f 56 79 61
f 57 60 80
f 57 80 58
f 58 80 81
f 58 81 59
f 60 64 82
f 60 82 83
f 60 83 84
f 60 84 80
f 61 79 62
f 62 79 63
f 63 79 85
f 63 85 64
f 64 85 86
f 64 86 82
f 65 81 103
f 65 103 87
f 65 87 66
f 66 87 88
f 66 88 67
f 67 88 89
f 67 89 69
f 67 69 68
f 69 90 70
f 69 89 91
f 69 91 90
f 70 90 71
f 71 90 92
f 71 92 93
f 71 93 94
f 71 94 95
f 71 95 73
f 73 96 97
f 73 97 98
f 73 98 74
f 73 95 96
f 74 98 75
f 75 98 99
f 75 99 77
f 75 77 76
f 77 99 100
f 78 101 102
f 78 102 85
f 78 85 79
f 80 84 81
f 81 84 103
f 82 86 83
f 83 104 105
f 83 105 84
f 83 86 104
f 84 105 103
f 85 102 106
f 85 106 86
f 86 106 104
f 87 103 123
f 87 123 107
f 87 107 108
f 87 108 88
f 88 108 109
f 88 109 91
f 88 91 89
f 90 91 110
f 90 110 92
f 91 109 108
f 91 108 111
f 91 111 110
f 92 110 112
f 92 112 113
f 92 113 94
f 92 94 93
f 94 113 114
f 94 114 115
f 94 115 96
f 94 96 95
f 96 115 116
f 96 116 117
f 96 117 100
f 96 100 97
f 97 100 98
f 98 100 99
f 101 118 102
f 102 118 119
f 102 119 120
f 102 120 121
f 102 121 122
f 102 122 106
f 103 105 123
f 104 106 124
f 104 124 105
f 105 124 125
f 105 125 126
f 105 126 123
f 106 127 124
f 106 122 127
f 107 123 153
f 107 153 128
f 107 128 129
f 107 129 108
f 108 129 111
f 110 111 130
f 110 130 112
f 111 129 131
f 111 131 132
f 111 132 133
f 111 133 130
f 112 134 113
f 112 130 133
f 112 133 135
f 112 135 134
f 113 136 114
f 113 134 136
f 114 137 138
f 114 138 139
f 114 139 115
f 114 136 140
f 114 140 137
f 115 139 116
f 116 139 138
f 116 138 141
f 116 141 142
f 116 142 117
f 117 142 143
f 118 144 145
f 118 145 146
f 118 146 147
f 118 147 148
f 118 148 119
f 119 148 120
f 120 148 147
f 120 147 146
f 120 146 145
f 120 145 149
f 120 149 150
f 120 150 151
f 120 151 152
f 120 152 121
f 121 152 127
f 121 127 122
f 123 126 153
f 124 127 125
f 125 127 154
f 125 154 126
f 126 154 155
f 126 155 156
f 126 156 153
f 127 152 157
f 127 157 158
f 127 158 159
f 127 159 160
f 127 160 155
f 127 155 154
f 128 153 156
f 128 156 161
f 128 161 129
f 129 161 131
f 131 161 162
f 131 162 163
f 131 163 132
f 132 164 165
f 132 165 166
f 132 166 133
f 132 163 167
f 132 167 168
f 132 168 164
f 133 166 135
f 134 135 169
f 134 169 170
f 134 170 171
f 134 171 172
f 134 172 173
f 134 173 140
f 134 140 136
f 135 166 165
f 135 165 169
f 137 174 141
f 137 141 138
f 137 140 175
f 137 175 174
f 140 173 175
f 141 176 177
f 141 177 142
f 141 174 176
f 142 177 143
f 143 177 178
f 144 179 145
f 145 179 180
f 145 180 205
f 145 205 181
f 145 181 182
f 145 182 149
f 149 182 183
f 149 183 150
f 150 183 210
f 150 210 184
f 150 184 185
f 150 185 151
f 151 157 152
f 151 185 186
f 151 186 187
f 151 187 158
f 151 158 157
f 155 160 156
f 156 160 162
f 156 162 161
f 158 187 186
f 158 186 188
f 158 188 189
f 158 189 160
f 158 160 159
f 160 189 190
f 160 190 162
f 162 190 167
f 162 167 163
f 164 191 165
f 164 168 192
f 164 192 191
f 165 193 169
f 165 191 193
f 167 190 194
f 167 194 168
f 168 194 192
f 169 193 171
f 169 171 170
f 171 193 195
f 171 195 172
f 172 195 215
f 172 215 196
f 172 196 197
f 172 197 173
f 173 197 175
f 174 198 199
f 174 199 200
f 174 200 176
f 174 175 201
f 174 201 202
f 174 202 198
f 175 197 203
f 175 203 201
f 176 200 177
f 177 200 204
f 177 204 178
f 181 205 206
f 181 206 182
f 182 206 207
f 182 207 183
f 183 207 208
f 183 208 209
f 183 209 210
f 184 186 185
f 184 210 237
f 184 237 211
f 184 211 186
f 186 211 188
f 188 211 213
f 188 213 194
f 188 194 190
f 188 190 189
f 191 192 214
f 191 214 212
f 191 212 215
f 191 215 195
f 191 195 193
f 192 194 213
f 192 213 241
f 192 241 214
f 196 215 216
f 196 216 203
f 196 203 197
f 198 202 217
f 198 217 218
f 198 218 219
f 198 219 220
f 198 220 199
f 199 220 200
f 200 220 221
f 200 221 222
f 200 222 204
f 201 203 202
f 202 203 223
f 202 223 217
f 203 216 224
f 203 224 225
f 203 225 223
f 205 226 206
f 206 226 227
f 206 227 207
f 207 227 228
f 207 228 229
f 207 229 230
f 207 230 231
f 207 231 232
f 207 232 208
f 208 232 233
f 208 233 234
f 208 234 235
f 208 235 236
f 208 236 209
f 209 236 210
f 210 236 237
f 211 237 241
f 211 241 213
f 212 214 238
f 212 238 239
f 212 239 240
f 212 240 215
f 214 241 242
f 214 242 243
f 214 243 238
f 215 240 216
f 216 240 224
f 217 223 244
f 217 244 245
f 217 245 219
f 217 219 218
f 219 245 246
f 219 246 247
f 219 247 248
f 219 248 249
f 219 249 250
f 219 250 220
f 220 250 251
f 220 251 221
f 221 252 253
f 221 253 222
f 221 251 252
f 222 253 254
f 223 225 255
f 223 255 244
f 224 240 239
f 224 239 225
f 225 239 256
f 225 256 255
f 226 257 229
f 226 229 228
f 226 228 227
f 229 257 258
f 229 258 259
f 229 259 260
f 229 260 261
f 229 261 230
f 230 261 231
f 231 261 262
f 231 262 263
f 231 263 264
f 231 264 265
f 231 265 266
f 231 266 267
f 231 267 234
f 231 234 233
f 231 233 232
f 234 236 235
f 234 267 266
f 234 266 268
f 234 268 269
f 234 269 236
f 236 269 237
f 237 269 242
f 237 242 241
f 238 243 270
f 238 270 239
f 239 270 256
f 242 269 268
f 242 268 271
f 242 271 272
f 242 272 243
f 243 272 270
f 244 273 245
f 244 255 274
f 244 274 275
f 244 275 273
f 245 273 276
f 245 276 246
f 246 276 247
f 247 276 277
f 247 277 278
f 247 278 279
f 247 279 280
f 247 280 249
f 247 249 248
f 249 280 252
f 249 252 250
f 250 252 251
f 252 280 253
f 253 281 254
f 253 280 282
f 253 282 283
f 253 283 281
f 255 275 274
f 255 256 270
f 255 270 275
f 259 284 285
f 259 285 260
f 260 285 286
f 260 286 287
f 260 287 288
f 260 288 261
f 261 288 289
f 261 289 262
f 262 289 290
f 262 290 263
f 263 290 291
f 263 291 264
f 264 291 265
f 265 291 292
f 265 292 266
f 266 292 326
f 266 326 293
f 266 293 271
f 266 271 268
f 270 272 294
f 270 294 295
f 270 295 275
f 271 293 272
f 272 293 294
f 273 275 296
f 273 296 297
f 273 297 298
f 273 298 299
f 273 299 276
f 275 295 300
f 275 300 296
f 276 299 301
f 276 301 302
f 276 302 277
f 277 302 278
f 278 303 304
f 278 304 279
f 278 302 305
f 278 305 306
f 278 306 307
f 278 307 303
f 279 304 308
f 279 308 309
f 279 309 280
f 280 309 310
f 280 310 308
f 280 308 282
f 282 311 283
f 282 308 312
f 282 312 311
f 284 313 285
f 284 314 313
f 285 313 315
f 285 315 316
f 285 316 286
f 286 316 317
f 286 317 318
f 286 318 319
f 286 319 287
f 287 319 320
f 287 320 288
f 288 320 321
f 288 321 289
f 289 321 290
f 290 321 322
f 290 322 323
f 290 323 324
f 290 324 291
f 291 324 325
f 291 325 292
f 292 325 330
f 292 330 326
f 293 326 295
f 293 295 294
f 295 326 300
f 296 300 327
f 296 327 328
f 296 328 298
f 296 298 297
f 298 328 329
f 298 329 301
f 298 301 299
f 300 326 330
f 300 330 327
f 301 329 331
f 301 331 332
f 301 332 302
f 302 332 333
f 302 333 305
f 303 334 308
f 303 308 304
f 303 307 334
f 305 333 306
f 306 335 307
f 306 333 336
f 306 336 337
f 306 337 335
f 307 335 338
f 307 338 339
f 307 339 334
f 308 310 309
f 308 334 312
f 312 334 340
f 313 314 315
f 314 341 342
f 314 342 343
f 314 343 315
f 315 343 316
f 316 343 317
f 317 319 318
f 317 343 344
f 317 344 345
f 317 345 319
f 319 345 346
f 319 346 320
f 320 346 347
f 320 347 348
f 320 348 322
f 320 322 321
f 322 348 349
f 322 349 323
f 323 349 350
f 323 350 328
f 323 328 327
f 323 327 324
f 324 327 330
f 324 330 325
f 328 350 329
f 329 350 331
f 331 350 351
f 331 351 352
f 331 352 332
f 332 352 353
f 332 353 333
f 333 353 336
f 334 354 340
f 334 339 357
f 334 357 354
f 335 355 338
f 335 337 356
f 335 356 360
f 335 360 367
f 335 367 366
f 335 366 365
f 335 365 355
f 336 353 356
f 336 356 337
f 338 357 339
f 341 358 342
f 342 358 359
f 342 359 343
f 343 359 344
f 344 359 345
f 345 360 361
f 345 361 346
f 345 359 360
f 346 361 362
f 346 362 347
f 347 362 363
f 347 363 348
f 348 363 349
f 349 364 351
f 349 351 350
f 349 363 364
f 351 364 362
f 351 362 352
f 352 362 361
f 352 361 353
f 353 361 360
f 353 360 356
f 358 365 366
f 358 366 359
f 359 366 367
f 359 367 360
f 362 364 363

