# https://github.com/mikedh/trimesh
v 0.00301978 -0.03316810 0.02848993
v 0.00274150 -0.02094223 0.02848993
v -0.00020758 -0.03316810 0.02848993
v 0.00259274 -0.03431620 0.01700994
v 0.00259449 -0.03431620 0.00338910
v 0.00259449 -0.03431620 0.00276447
v 0.00200817 -0.02094223 0.02031188
v -0.00046136 -0.02094223 0.02848993
v -0.00047886 -0.03431620 0.01700994
v -0.00031959 -0.03274395 0.02848993
v -0.01478673 -0.02445853 0.01701246
v -0.01447345 -0.02562364 0.01701246
v -0.01437368 -0.02585012 0.01701246
v -0.01432293 -0.02695240 0.01607804
v -0.01425992 -0.02811883 0.01476834
v -0.01439469 -0.02955886 0.01251919
v -0.01428092 -0.03063626 0.01105838
v -0.01423717 -0.03185244 0.00849943
v -0.01438769 -0.03201084 0.00777910
v -0.01418117 -0.03306730 0.00465850
v -0.01427917 -0.03314192 0.00401876
v -0.01354934 -0.03345742 0.00275944
v 0.00147086 -0.03431620 0.00276196
v 0.00240021 -0.03369175 0.00276196
v 0.00210093 -0.03192575 0.00276196
v 0.00210268 -0.03192706 0.00276447
v 0.00190316 -0.02115823 0.01905760
v 0.00182790 -0.02094223 0.01905004
v -0.00363797 -0.02094223 0.02198175
v -0.01411991 -0.02184290 0.01701246
v -0.01429842 -0.02198429 0.01701246
v -0.01440344 -0.02220160 0.01701246
v -0.01465546 -0.02306170 0.01701246
v -0.00046136 -0.02097496 0.02848993
v -0.00164799 -0.03431620 0.00276196
v -0.00041060 -0.03202524 0.02848993
v -0.00044386 -0.03118479 0.02848993
v -0.00045261 -0.02993065 0.02848993
v -0.01481999 -0.03118479 0.00527305
v -0.01485849 -0.03118479 0.00652733
v -0.01483399 -0.02867782 0.01153944
v -0.01479198 -0.02491934 0.01655406
v -0.01448045 -0.02612896 0.01651880
v -0.01445244 -0.02739227 0.01523177
v -0.01441219 -0.02837018 0.01404801
v -0.01475698 -0.02742630 0.01404801
v -0.01458371 -0.02876553 0.01287936
v -0.01450845 -0.02995814 0.01150166
v -0.01442619 -0.03081299 0.01028515
v -0.01473247 -0.03118479 0.00777910
v -0.01451545 -0.03220459 0.00652733
v -0.01441744 -0.03325712 0.00275944
v -0.01441569 -0.03325712 0.00276447
v -0.01229620 -0.03347051 0.00275944
v -0.00477735 -0.03350716 0.00275944
v -0.00463558 -0.03317072 0.00275944
v -0.00463558 -0.03048310 0.00275944
v 0.00141310 -0.03108006 0.00276196
v 0.00124333 -0.02094223 0.01800732
v -0.00363797 -0.02094223 0.01769501
v -0.01354934 -0.02179185 0.01701246
v -0.01426342 -0.03050012 0.00275944
v -0.01460996 -0.03118740 0.00275944
v -0.01472547 -0.03118479 0.00401876
v -0.01104306 -0.03347967 0.00275944
v -0.00853677 -0.03349276 0.00275944
v -0.01476047 -0.03244154 0.00275944
v -0.01477273 -0.02993065 0.01028515
v -0.01480424 -0.02617217 0.01529978
v -0.00477735 -0.03047917 0.00275944
v 0.00023697 -0.03055379 0.00276196
v 0.00096505 -0.03052368 0.00319013
v 0.00023872 -0.02094223 0.01770508
v -0.00101442 -0.02094223 0.01769501
v -0.01354934 -0.03043990 0.00275944
v -0.00652930 -0.03045822 0.00275944
v 0.00005845 -0.02094223 0.01770257
v -0.00853677 -0.03044251 0.00275944
v -0.00978291 -0.03043990 0.00275944
f 1 2 8
f 1 8 34
f 1 34 38
f 1 38 37
f 1 37 36
f 1 36 10
f 1 10 3
f 1 3 9
f 1 9 4
f 1 4 5
f 1 5 6
f 1 6 2
f 2 7 28
f 2 28 59
f 2 59 73
f 2 73 77
f 2 77 74
f 2 74 60
f 2 60 29
f 2 29 8
f 2 6 7
f 3 10 11
f 3 11 12
f 3 12 13
f 3 13 14
f 3 14 15
f 3 15 16
f 3 16 17
f 3 17 18
f 3 18 19
f 3 19 20
f 3 20 21
f 3 21 22
f 3 22 9
f 4 9 35
f 4 35 23
f 4 23 6
f 4 6 5
f 6 23 24
f 6 24 25
f 6 25 26
f 6 26 27
f 6 27 7
f 7 27 28
f 8 29 30
f 8 30 31
f 8 31 32
f 8 32 33
f 8 33 11
f 8 11 34
f 9 22 35
f 10 36 11
f 11 36 37
f 11 37 38
f 11 38 34
f 11 33 39
f 11 39 40
f 11 40 41
f 11 41 42
f 11 42 43
f 11 43 12
f 12 43 14
f 12 14 13
f 14 43 44
f 14 44 15
f 15 44 45
f 15 45 16
f 16 46 47
f 16 47 48
f 16 48 17
f 16 45 44
f 16 44 46
f 17 48 49
f 17 49 19
f 17 19 18
f 19 49 50
f 19 50 51
f 19 51 21
f 19 21 20
f 21 52 53
f 21 53 22
f 21 51 52
f 22 53 52
f 22 52 67
f 22 67 63
f 22 63 62
f 22 62 75
f 22 75 79
f 22 79 78
f 22 78 76
f 22 76 70
f 22 70 57
f 22 57 56
f 22 56 55
f 22 55 66
f 22 66 65
f 22 65 54
f 22 54 35
f 23 35 55
f 23 55 24
f 24 55 56
f 24 56 57
f 24 57 25
f 25 58 28
f 25 28 26
f 25 57 58
f 26 28 27
f 28 58 59
f 29 60 61
f 29 61 30
f 30 61 62
f 30 62 31
f 31 62 63
f 31 63 32
f 32 63 33
f 33 63 64
f 33 64 39
f 35 54 65
f 35 65 66
f 35 66 55
f 39 64 67
f 39 67 40
f 40 51 50
f 40 50 68
f 40 68 41
f 40 67 51
f 41 46 69
f 41 69 42
f 41 68 46
f 42 69 43
f 43 69 44
f 44 69 46
f 46 68 48
f 46 48 47
f 48 68 49
f 49 68 50
f 51 67 52
f 57 70 71
f 57 71 58
f 58 71 72
f 58 72 59
f 59 72 71
f 59 71 73
f 60 74 79
f 60 79 75
f 60 75 61
f 61 75 62
f 63 67 64
f 70 76 73
f 70 73 71
f 73 76 77
f 74 77 78
f 74 78 79
f 76 78 77

