# https://github.com/mikedh/trimesh
v -0.00492726 -0.00764413 -0.00914188
v -0.00492726 -0.00786792 -0.00912857
v -0.00492726 -0.00635462 -0.00914188
v -0.00470355 -0.00786792 -0.00914188
v -0.00492726 -0.00790703 -0.00912171
v -0.00444536 -0.00812558 -0.00913501
v -0.00492726 -0.00631753 -0.00913630
v -0.00016599 -0.00812558 -0.00914188
v -0.00367170 -0.00838364 -0.00914188
v -0.00492726 -0.00808002 -0.00907322
v -0.00471940 -0.00814413 -0.00909081
v -0.00444536 -0.00834171 -0.00907794
v -0.00392943 -0.00838364 -0.00913329
v -0.00492726 -0.00608043 -0.00909338
v -0.00016599 -0.00801994 -0.00912557
v -0.00016599 -0.00889937 -0.00914188
v -0.00315577 -0.00864130 -0.00913673
v -0.00289757 -0.00864130 -0.00914188
v -0.00492726 -0.00811026 -0.00905819
v -0.00464390 -0.00829131 -0.00905691
v -0.00392943 -0.00858284 -0.00907665
v -0.00413403 -0.00854453 -0.00905476
v -0.00341350 -0.00864130 -0.00911527
v -0.00492726 -0.00606591 -0.00908909
v -0.00016599 -0.00786792 -0.00909596
v -0.00016599 -0.00905179 -0.00911827
v -0.00160844 -0.00889937 -0.00914188
v -0.00315577 -0.00884050 -0.00908008
v -0.00186618 -0.00889937 -0.00914145
v -0.00212437 -0.00889937 -0.00913501
v -0.00238211 -0.00889937 -0.00911999
v -0.00492726 -0.00820905 -0.00898610
v -0.00481587 -0.00824292 -0.00901914
v -0.00430600 -0.00850582 -0.00902344
v -0.00341350 -0.00880421 -0.00905862
v -0.00356963 -0.00877921 -0.00903760
v -0.00374160 -0.00874614 -0.00900284
v -0.00392943 -0.00871187 -0.00896121
v -0.00420860 -0.00865138 -0.00890800
v -0.00492726 -0.00596148 -0.00893890
v -0.00016599 -0.00773082 -0.00903931
v -0.00016599 -0.00780986 -0.00907279
v -0.00016599 -0.00915743 -0.00910068
v -0.00212437 -0.00908808 -0.00907836
v -0.00238211 -0.00906509 -0.00906334
v -0.00258251 -0.00904493 -0.00904532
v -0.00186618 -0.00910420 -0.00908480
v -0.00031839 -0.00915743 -0.00909853
v -0.00057659 -0.00915743 -0.00909424
v -0.00492726 -0.00833526 -0.00885607
v -0.00444536 -0.00847074 -0.00898481
v -0.00472359 -0.00839413 -0.00891100
v -0.00492726 -0.00836268 -0.00882689
v -0.00428270 -0.00875824 -0.00875523
v -0.00444536 -0.00859009 -0.00885564
v -0.00275449 -0.00902275 -0.00902386
v -0.00315577 -0.00896913 -0.00895177
v -0.00341210 -0.00894372 -0.00888440
v -0.00366191 -0.00884493 -0.00890971
v -0.00411072 -0.00878767 -0.00879256
v -0.00492726 -0.00595341 -0.00889941
v -0.00016599 -0.00772760 -0.00897923
v -0.00016599 -0.00924211 -0.00906721
v -0.00095456 -0.00928566 -0.00902773
v -0.00186618 -0.00923324 -0.00894919
v -0.00212437 -0.00921711 -0.00892173
v -0.00236533 -0.00920541 -0.00887624
v -0.00265708 -0.00911670 -0.00892216
v -0.00057659 -0.00929412 -0.00903760
v -0.00078259 -0.00929009 -0.00903288
v -0.00016599 -0.00929977 -0.00904403
v -0.00031839 -0.00929775 -0.00904189
v -0.00463131 -0.00854251 -0.00880286
v -0.00480329 -0.00849695 -0.00875351
v -0.00492726 -0.00846389 -0.00871789
v -0.00419322 -0.00885985 -0.00865824
v -0.00418762 -0.00899856 -0.00846942
v -0.00444536 -0.00882235 -0.00858271
v -0.00461500 -0.00878808 -0.00853508
v -0.00444536 -0.00871913 -0.00871145
v -0.00470915 -0.00864534 -0.00864451
v -0.00289757 -0.00909937 -0.00887066
v -0.00315577 -0.00906630 -0.00882260
v -0.00332495 -0.00904130 -0.00878827
v -0.00367170 -0.00908082 -0.00858400
v -0.00403988 -0.00902235 -0.00850461
v -0.00394434 -0.00895864 -0.00863292
v -0.00392943 -0.00881630 -0.00883247
v -0.00492726 -0.00607922 -0.00865180
v -0.00016599 -0.00779574 -0.00862949
v -0.00016599 -0.00773405 -0.00875823
v -0.00016599 -0.00772599 -0.00889941
v -0.00085482 -0.00934936 -0.00892473
v -0.00083432 -0.00949130 -0.00867712
v -0.00083432 -0.00956428 -0.00854838
v -0.00109252 -0.00955622 -0.00853336
v -0.00109252 -0.00948243 -0.00866253
v -0.00109252 -0.00935340 -0.00888826
v -0.00135025 -0.00934130 -0.00886680
v -0.00186618 -0.00931509 -0.00882045
v -0.00212437 -0.00929937 -0.00879256
v -0.00226839 -0.00928888 -0.00877454
v -0.00244036 -0.00927396 -0.00874922
v -0.00263984 -0.00925541 -0.00871832
v -0.00289757 -0.00922840 -0.00867884
v -0.00016599 -0.00935178 -0.00895778
v -0.00031839 -0.00938283 -0.00889941
v -0.00057659 -0.00937477 -0.00889941
v -0.00492726 -0.00858324 -0.00858786
v -0.00418762 -0.00909009 -0.00834025
v -0.00438011 -0.00905380 -0.00829090
v -0.00445747 -0.00896146 -0.00837973
v -0.00478698 -0.00874776 -0.00848530
v -0.00492726 -0.00881469 -0.00831794
v -0.00492726 -0.00871146 -0.00844539
v -0.00306162 -0.00929372 -0.00852478
v -0.00315064 -0.00920662 -0.00862305
v -0.00323360 -0.00927437 -0.00849217
v -0.00341210 -0.00910985 -0.00865524
v -0.00394434 -0.00912396 -0.00840462
v -0.00492726 -0.00895904 -0.00505522
v -0.00016599 -0.00846147 -0.00756738
v -0.00016599 -0.00841993 -0.00762016
v -0.00016599 -0.00834372 -0.00773088
v -0.00016599 -0.00829090 -0.00780812
v -0.00016599 -0.00792478 -0.00841449
v -0.00083432 -0.00964251 -0.00838359
v -0.00109252 -0.00962840 -0.00838359
v -0.00057659 -0.00949614 -0.00868485
v -0.00057659 -0.00956872 -0.00855611
v -0.00125983 -0.00954815 -0.00851920
v -0.00160844 -0.00959896 -0.00835913
v -0.00186618 -0.00958807 -0.00833639
v -0.00160844 -0.00953082 -0.00848830
v -0.00186618 -0.00941751 -0.00864151
v -0.00186618 -0.00951751 -0.00846513
v -0.00212437 -0.00938485 -0.00864151
v -0.00212437 -0.00950098 -0.00843423
v -0.00232431 -0.00955622 -0.00827588
v -0.00263984 -0.00944412 -0.00838359
v -0.00263984 -0.00932961 -0.00858958
v -0.00289757 -0.00930824 -0.00855010
v -0.00016599 -0.00938646 -0.00889941
v -0.00031839 -0.00950017 -0.00869214
v -0.00016599 -0.00945380 -0.00878055
v -0.00420440 -0.00923001 -0.00812268
v -0.00392943 -0.00926106 -0.00821194
v -0.00445747 -0.00912275 -0.00814328
v -0.00470355 -0.00907840 -0.00806861
v -0.00455208 -0.00901953 -0.00824155
v -0.00470355 -0.00898929 -0.00819778
v -0.00492726 -0.00895058 -0.00812440
v -0.00492726 -0.00883283 -0.00829219
v -0.00308865 -0.00955823 -0.00802312
v -0.00315064 -0.00934453 -0.00839690
v -0.00289757 -0.00940098 -0.00838359
v -0.00289757 -0.00950824 -0.00818748
v -0.00341350 -0.00932396 -0.00832352
v -0.00378075 -0.00928162 -0.00824584
v -0.00341350 -0.00924937 -0.00845269
v -0.00492726 -0.00913001 -0.00487542
v -0.00016599 -0.00852276 -0.00749099
v -0.00082966 -0.00976065 -0.00810122
v -0.00109252 -0.00973888 -0.00812568
v -0.00031839 -0.00957275 -0.00856340
v -0.00057659 -0.00964977 -0.00838359
v -0.00057659 -0.00975460 -0.00813298
v -0.00135025 -0.00972154 -0.00812568
v -0.00160844 -0.00970340 -0.00812568
v -0.00186618 -0.00968283 -0.00812568
v -0.00212437 -0.00965380 -0.00812568
v -0.00212437 -0.00957194 -0.00830549
v -0.00263984 -0.00959614 -0.00809951
v -0.00289757 -0.00957678 -0.00805831
v -0.00263984 -0.00953001 -0.00822825
v -0.00016599 -0.00950178 -0.00869558
v -0.00430134 -0.00928162 -0.00798793
v -0.00444536 -0.00925622 -0.00794502
v -0.00412937 -0.00930703 -0.00803428
v -0.00470635 -0.00921590 -0.00785748
v -0.00492726 -0.00912114 -0.00787507
v -0.00492726 -0.00908364 -0.00793086
v -0.00492726 -0.00903364 -0.00800424
v -0.00492726 -0.00898243 -0.00807848
v -0.00316695 -0.00960501 -0.00788709
v -0.00341350 -0.00958686 -0.00782400
v -0.00367170 -0.00955985 -0.00776864
v -0.00326063 -0.00953888 -0.00798622
v -0.00316695 -0.00949130 -0.00811581
v -0.00368521 -0.00935662 -0.00814628
v -0.00380359 -0.00954493 -0.00773989
v -0.00392943 -0.00933243 -0.00808320
v -0.00492726 -0.00917195 -0.00483894
v -0.00016599 -0.00903888 -0.00697260
v -0.00016599 -0.00898122 -0.00702924
v -0.00016599 -0.00891832 -0.00709147
v -0.00016599 -0.00884009 -0.00717000
v -0.00074017 -0.00980299 -0.00799909
v -0.00091215 -0.00980098 -0.00799265
v -0.00109252 -0.00979573 -0.00797978
v -0.00031839 -0.00965662 -0.00838359
v -0.00016599 -0.00957436 -0.00856684
v -0.00016599 -0.00965985 -0.00838359
v -0.00031839 -0.00975743 -0.00814028
v -0.00031839 -0.00980823 -0.00801153
v -0.00160844 -0.00977799 -0.00793429
v -0.00186618 -0.00976791 -0.00790725
v -0.00213043 -0.00976227 -0.00785147
v -0.00238211 -0.00972799 -0.00786735
v -0.00263984 -0.00969775 -0.00786735
v -0.00289757 -0.00966146 -0.00786735
v -0.00420440 -0.00936025 -0.00788837
v -0.00470635 -0.00934816 -0.00762231
v -0.00479444 -0.00927437 -0.00771672
v -0.00397557 -0.00952194 -0.00769397
v -0.00492726 -0.00914009 -0.00784589
v -0.00341350 -0.00967840 -0.00760943
v -0.00367170 -0.00963082 -0.00760943
v -0.00367170 -0.00949170 -0.00789738
v -0.00390566 -0.00958122 -0.00760858
v -0.00413030 -0.00956469 -0.00752189
v -0.00492726 -0.00920098 -0.00482049
v -0.00016599 -0.00907961 -0.00694985
v -0.00082966 -0.00984210 -0.00789095
v -0.00057659 -0.00985743 -0.00786735
v -0.00109252 -0.00984573 -0.00785061
v -0.00016599 -0.00975864 -0.00814371
v -0.00016599 -0.00980944 -0.00801497
v -0.00031839 -0.00986307 -0.00786735
v -0.00160844 -0.00982799 -0.00780512
v -0.00186618 -0.00981751 -0.00777809
v -0.00204841 -0.00980823 -0.00775448
v -0.00222038 -0.00979856 -0.00772873
v -0.00238211 -0.00983807 -0.00757553
v -0.00263984 -0.00977477 -0.00766479
v -0.00282393 -0.00981106 -0.00750387
v -0.00290503 -0.00976388 -0.00759785
v -0.00315577 -0.00972114 -0.00760943
v -0.00420440 -0.00950017 -0.00760858
v -0.00444536 -0.00951953 -0.00743092
v -0.00462013 -0.00955823 -0.00725068
v -0.00470495 -0.00948727 -0.00734251
v -0.00492726 -0.00933646 -0.00750902
v -0.00492726 -0.00931791 -0.00754635
v -0.00492726 -0.00925017 -0.00767423
v -0.00367170 -0.00973162 -0.00735153
v -0.00392943 -0.00968162 -0.00735153
v -0.00420440 -0.00960944 -0.00737255
v -0.00444536 -0.00958162 -0.00730175
v -0.00492726 -0.00940864 -0.00475869
v -0.00016599 -0.00915783 -0.00690780
v -0.00083432 -0.00993323 -0.00760943
v -0.00109252 -0.00992315 -0.00760943
v -0.00160844 -0.00989533 -0.00760943
v -0.00016599 -0.00984291 -0.00792657
v -0.00031839 -0.00994251 -0.00760943
v -0.00057659 -0.00993847 -0.00760943
v -0.00016599 -0.00986509 -0.00786735
v -0.00186618 -0.00987759 -0.00760943
v -0.00213043 -0.00984533 -0.00762960
v -0.00263984 -0.00988565 -0.00735153
v -0.00263984 -0.00982315 -0.00753605
v -0.00290503 -0.00984614 -0.00736955
v -0.00315577 -0.00983162 -0.00730389
v -0.00336736 -0.00981509 -0.00725840
v -0.00353933 -0.00980178 -0.00722107
v -0.00343727 -0.00977194 -0.00734723
v -0.00470495 -0.00959735 -0.00710348
v -0.00479211 -0.00953203 -0.00719618
v -0.00492726 -0.00942799 -0.00732020
v -0.00367170 -0.00978968 -0.00718588
v -0.00394341 -0.00977033 -0.00709061
v -0.00418762 -0.00972114 -0.00709361
v -0.00444536 -0.00966670 -0.00709361
v -0.00492726 -0.00941509 -0.00475783
v -0.00016599 -0.00941509 -0.00684257
v -0.00016599 -0.00927154 -0.00687690
v -0.00083432 -0.00999452 -0.00735153
v -0.00109252 -0.00998646 -0.00735153
v -0.00135025 -0.00997638 -0.00735153
v -0.00160844 -0.00996589 -0.00735153
v -0.00186618 -0.00995178 -0.00735153
v -0.00031839 -0.01000299 -0.00735153
v -0.00057659 -0.00999936 -0.00735153
v -0.00016599 -0.00994452 -0.00760943
v -0.00212437 -0.00993243 -0.00735153
v -0.00238211 -0.00991025 -0.00735153
v -0.00263984 -0.00995581 -0.00709361
v -0.00289757 -0.00993001 -0.00709361
v -0.00315577 -0.00989896 -0.00709361
v -0.00343727 -0.00985259 -0.00711850
v -0.00367170 -0.00983444 -0.00705671
v -0.00470355 -0.00969815 -0.00683613
v -0.00492726 -0.00963122 -0.00685459
v -0.00491188 -0.00957073 -0.00702410
v -0.00492726 -0.00956832 -0.00701852
v -0.00492726 -0.00951670 -0.00713052
v -0.00386697 -0.00981509 -0.00700307
v -0.00418762 -0.00982759 -0.00678206
v -0.00418762 -0.00978364 -0.00691080
v -0.00435494 -0.00981065 -0.00673228
v -0.00444256 -0.00976065 -0.00682540
v -0.00492726 -0.00967315 -0.00476084
v -0.00016599 -0.00967315 -0.00684472
v -0.00083432 -0.01004210 -0.00714297
v -0.00109252 -0.01003807 -0.00712623
v -0.00130737 -0.01006347 -0.00697946
v -0.00137588 -0.01003847 -0.00707645
v -0.00160844 -0.01002396 -0.00709361
v -0.00186618 -0.01000904 -0.00709361
v -0.00212437 -0.00999210 -0.00709361
v -0.00238211 -0.00997517 -0.00709361
v -0.00031839 -0.01004654 -0.00715284
v -0.00057659 -0.01004452 -0.00715069
v -0.00016599 -0.01000420 -0.00735153
v -0.00263984 -0.01001186 -0.00683613
v -0.00289757 -0.00998888 -0.00683613
v -0.00315577 -0.00996468 -0.00683613
v -0.00238117 -0.01003565 -0.00681811
v -0.00341350 -0.00993727 -0.00683613
v -0.00367170 -0.00990178 -0.00683613
v -0.00394341 -0.00984936 -0.00685502
v -0.00452692 -0.00979170 -0.00667392
v -0.00492726 -0.00972840 -0.00657908
v -0.00492726 -0.00957961 -0.00698933
v -0.00418762 -0.00989009 -0.00657822
v -0.00444256 -0.00983888 -0.00658423
v -0.00492726 -0.00991065 -0.00482306
v -0.00016599 -0.00993122 -0.00688978
v -0.00083432 -0.01007114 -0.00701380
v -0.00109252 -0.01006751 -0.00699706
v -0.00212437 -0.01006831 -0.00674559
v -0.00212437 -0.01004049 -0.00687433
v -0.00229449 -0.01006307 -0.00672027
v -0.00057659 -0.01007235 -0.00702152
v -0.00016599 -0.01004694 -0.00715284
v -0.00284910 -0.01006751 -0.00648510
v -0.00291994 -0.01004251 -0.00657393
v -0.00315577 -0.01001912 -0.00657822
v -0.00341350 -0.00999210 -0.00657822
v -0.00367170 -0.00996267 -0.00657822
v -0.00392943 -0.00992960 -0.00657822
v -0.00464530 -0.00981872 -0.00650184
v -0.00471987 -0.00977517 -0.00658423
v -0.00492726 -0.00978565 -0.00639713
v -0.00418762 -0.00995218 -0.00632031
v -0.00444536 -0.00991186 -0.00632031
v -0.00471987 -0.00985097 -0.00633920
v -0.00492726 -0.00998767 -0.00488958
v -0.00016599 -0.01007114 -0.00694985
v -0.00335431 -0.01006791 -0.00623105
v -0.00031839 -0.01007154 -0.00702367
v -0.00016599 -0.01007114 -0.00702410
v -0.00057659 -0.01007235 -0.00694642
v -0.00413077 -0.01006791 -0.00572639
v -0.00342981 -0.01004210 -0.00631860
v -0.00367170 -0.01001428 -0.00632031
v -0.00392943 -0.00998444 -0.00632031
v -0.00492726 -0.00982638 -0.00626710
v -0.00392943 -0.01003686 -0.00605296
v -0.00418762 -0.01000178 -0.00606240
v -0.00444536 -0.00996630 -0.00606240
v -0.00470355 -0.00992678 -0.00606240
v -0.00492726 -0.00988444 -0.00606240
v -0.00492726 -0.01003041 -0.00493893
v -0.00492726 -0.01006388 -0.00504879
v -0.00384321 -0.01006549 -0.00596027
v -0.00403569 -0.01006791 -0.00565987
v -0.00492726 -0.01006388 -0.00507368
v -0.00485409 -0.01006347 -0.00517967
v -0.00458890 -0.01006226 -0.00542986
v -0.00401518 -0.01005460 -0.00589804
v -0.00420534 -0.01004573 -0.00580921
v -0.00444536 -0.01001428 -0.00580449
v -0.00470355 -0.00997799 -0.00580449
v -0.00492726 -0.00994331 -0.00580449
v -0.00492726 -0.01005783 -0.00514491
v -0.00492726 -0.01003968 -0.00525305
v -0.00476088 -0.01004896 -0.00535133
v -0.00492726 -0.00999009 -0.00554401
v -0.00468631 -0.01003001 -0.00552813
f 1 2 5
f 1 5 10
f 1 10 19
f 1 19 32
f 1 32 50
f 1 50 53
f 1 53 75
f 1 75 109
f 1 109 115
f 1 115 114
f 1 114 153
f 1 153 152
f 1 152 184
f 1 184 183
f 1 183 182
f 1 182 181
f 1 181 216
f 1 216 245
f 1 245 244
f 1 244 243
f 1 243 270
f 1 270 297
f 1 297 296
f 1 296 325
f 1 325 294
f 1 294 324
f 1 324 345
f 1 345 359
f 1 359 364
f 1 364 376
f 1 376 380
f 1 380 378
f 1 378 377
f 1 377 369
f 1 369 366
f 1 366 365
f 1 365 349
f 1 349 328
f 1 328 303
f 1 303 275
f 1 275 250
f 1 250 222
f 1 222 193
f 1 193 161
f 1 161 121
f 1 121 89
f 1 89 61
f 1 61 40
f 1 40 24
f 1 24 14
f 1 14 7
f 1 7 3
f 1 3 8
f 1 8 16
f 1 16 27
f 1 27 18
f 1 18 9
f 1 9 4
f 1 4 2
f 2 4 6
f 2 6 5
f 3 7 8
f 4 9 6
f 5 6 11
f 5 11 10
f 6 12 11
f 6 9 13
f 6 13 12
f 7 14 15
f 7 15 8
f 8 15 25
f 8 25 42
f 8 42 41
f 8 41 62
f 8 62 92
f 8 92 91
f 8 91 90
f 8 90 126
f 8 126 125
f 8 125 124
f 8 124 123
f 8 123 122
f 8 122 162
f 8 162 197
f 8 197 196
f 8 196 195
f 8 195 194
f 8 194 223
f 8 223 251
f 8 251 277
f 8 277 276
f 8 276 304
f 8 304 329
f 8 329 350
f 8 350 353
f 8 353 336
f 8 336 315
f 8 315 285
f 8 285 258
f 8 258 255
f 8 255 228
f 8 228 227
f 8 227 203
f 8 203 202
f 8 202 176
f 8 176 145
f 8 145 143
f 8 143 106
f 8 106 71
f 8 71 63
f 8 63 43
f 8 43 26
f 8 26 16
f 9 17 13
f 9 18 17
f 10 11 12
f 10 12 20
f 10 20 19
f 12 13 21
f 12 21 22
f 12 22 20
f 13 17 23
f 13 23 21
f 14 24 25
f 14 25 15
f 16 26 27
f 17 28 23
f 17 18 29
f 17 29 30
f 17 30 31
f 17 31 28
f 18 27 29
f 19 20 33
f 19 33 32
f 20 22 34
f 20 34 33
f 21 23 28
f 21 28 35
f 21 35 22
f 22 35 36
f 22 36 37
f 22 37 38
f 22 38 39
f 22 39 34
f 24 40 41
f 24 41 42
f 24 42 25
f 26 43 27
f 27 43 29
f 28 31 44
f 28 44 45
f 28 45 46
f 28 46 35
f 29 47 30
f 29 43 48
f 29 48 49
f 29 49 47
f 30 47 44
f 30 44 31
f 32 33 50
f 33 34 51
f 33 51 52
f 33 52 53
f 33 53 50
f 34 39 54
f 34 54 55
f 34 55 51
f 35 46 56
f 35 56 36
f 36 56 57
f 36 57 58
f 36 58 59
f 36 59 60
f 36 60 54
f 36 54 37
f 37 54 38
f 38 54 39
f 40 61 41
f 41 61 62
f 43 63 48
f 44 47 64
f 44 64 65
f 44 65 45
f 45 65 66
f 45 66 46
f 46 66 67
f 46 67 68
f 46 68 56
f 47 49 69
f 47 69 70
f 47 70 64
f 48 63 49
f 49 63 71
f 49 71 72
f 49 72 69
f 51 55 73
f 51 73 52
f 52 74 75
f 52 75 53
f 52 73 74
f 54 60 76
f 54 76 77
f 54 77 78
f 54 78 79
f 54 79 80
f 54 80 55
f 55 80 81
f 55 81 73
f 56 68 82
f 56 82 83
f 56 83 57
f 57 83 58
f 58 84 85
f 58 85 86
f 58 86 87
f 58 87 60
f 58 60 88
f 58 88 59
f 58 83 84
f 59 88 60
f 60 87 86
f 60 86 76
f 61 89 90
f 61 90 91
f 61 91 92
f 61 92 62
f 64 70 93
f 64 93 94
f 64 94 95
f 64 95 96
f 64 96 97
f 64 97 98
f 64 98 99
f 64 99 100
f 64 100 65
f 65 100 101
f 65 101 66
f 66 101 102
f 66 102 67
f 67 102 103
f 67 103 104
f 67 104 68
f 68 104 105
f 68 105 82
f 69 72 106
f 69 106 107
f 69 107 108
f 69 108 70
f 70 108 93
f 71 106 72
f 73 81 109
f 73 109 74
f 74 109 75
f 76 86 77
f 77 110 111
f 77 111 78
f 77 86 110
f 78 112 79
f 78 111 112
f 79 113 80
f 79 112 114
f 79 114 113
f 80 113 81
f 81 113 115
f 81 115 109
f 82 105 116
f 82 116 117
f 82 117 83
f 83 117 118
f 83 118 119
f 83 119 84
f 84 119 85
f 85 119 120
f 85 120 86
f 86 120 110
f 89 121 122
f 89 122 123
f 89 123 124
f 89 124 125
f 89 125 126
f 89 126 90
f 93 108 94
f 94 108 95
f 95 127 128
f 95 128 96
f 95 108 129
f 95 129 130
f 95 130 127
f 96 131 99
f 96 99 97
f 96 128 132
f 96 132 133
f 96 133 131
f 97 99 98
f 99 131 134
f 99 134 135
f 99 135 100
f 100 135 101
f 101 135 136
f 101 136 137
f 101 137 102
f 102 137 138
f 102 138 139
f 102 139 140
f 102 140 141
f 102 141 142
f 102 142 103
f 103 142 116
f 103 116 104
f 104 116 105
f 106 143 107
f 107 144 108
f 107 143 145
f 107 145 144
f 108 144 129
f 110 146 111
f 110 120 147
f 110 147 146
f 111 146 148
f 111 148 149
f 111 149 150
f 111 150 112
f 112 150 151
f 112 151 152
f 112 152 153
f 112 153 114
f 113 114 115
f 116 154 155
f 116 155 118
f 116 118 117
f 116 142 156
f 116 156 157
f 116 157 154
f 118 158 159
f 118 159 160
f 118 160 119
f 118 155 158
f 119 160 120
f 120 160 147
f 121 161 162
f 121 162 122
f 127 163 164
f 127 164 128
f 127 130 165
f 127 165 166
f 127 166 167
f 127 167 163
f 128 164 168
f 128 168 169
f 128 169 132
f 129 144 165
f 129 165 130
f 131 133 134
f 132 169 170
f 132 170 133
f 133 136 134
f 133 170 171
f 133 171 172
f 133 172 136
f 134 136 135
f 136 172 138
f 136 138 137
f 138 172 139
f 139 172 173
f 139 173 174
f 139 174 175
f 139 175 140
f 140 175 156
f 140 156 141
f 141 156 142
f 144 145 176
f 144 176 202
f 144 202 165
f 146 177 178
f 146 178 148
f 146 147 179
f 146 179 177
f 147 160 159
f 147 159 179
f 148 178 180
f 148 180 181
f 148 181 149
f 149 181 182
f 149 182 183
f 149 183 150
f 150 183 184
f 150 184 151
f 151 184 152
f 154 157 174
f 154 174 185
f 154 185 186
f 154 186 187
f 154 187 188
f 154 188 189
f 154 189 155
f 155 189 158
f 156 175 157
f 157 175 174
f 158 189 159
f 159 189 190
f 159 190 191
f 159 191 192
f 159 192 179
f 161 193 194
f 161 194 195
f 161 195 196
f 161 196 197
f 161 197 162
f 163 167 198
f 163 198 199
f 163 199 164
f 164 199 200
f 164 200 168
f 165 201 166
f 165 202 203
f 165 203 201
f 166 201 167
f 167 201 204
f 167 204 205
f 167 205 198
f 168 200 206
f 168 206 169
f 169 206 170
f 170 206 207
f 170 207 208
f 170 208 209
f 170 209 171
f 171 209 210
f 171 210 173
f 171 173 172
f 173 210 211
f 173 211 174
f 174 211 185
f 177 179 212
f 177 212 213
f 177 213 214
f 177 214 178
f 178 214 180
f 179 215 212
f 179 192 191
f 179 191 215
f 180 214 181
f 181 214 216
f 185 217 186
f 185 211 217
f 186 217 218
f 186 218 187
f 187 218 191
f 187 191 188
f 188 191 219
f 188 219 190
f 188 190 189
f 190 219 191
f 191 218 220
f 191 220 221
f 191 221 215
f 193 222 194
f 194 222 223
f 198 224 199
f 198 205 225
f 198 225 224
f 199 226 200
f 199 224 226
f 200 226 230
f 200 230 206
f 201 203 204
f 203 227 204
f 204 227 228
f 204 228 205
f 205 228 229
f 205 229 225
f 206 230 207
f 207 231 232
f 207 232 208
f 207 230 231
f 208 232 209
f 209 232 233
f 209 233 234
f 209 234 235
f 209 235 210
f 210 235 236
f 210 236 237
f 210 237 211
f 211 237 238
f 211 238 217
f 212 215 221
f 212 221 239
f 212 239 240
f 212 240 213
f 213 240 241
f 213 241 242
f 213 242 214
f 214 242 243
f 214 243 244
f 214 244 245
f 214 245 216
f 217 246 218
f 217 238 246
f 218 246 247
f 218 247 220
f 220 247 248
f 220 248 221
f 221 248 249
f 221 249 241
f 221 241 240
f 221 240 239
f 222 250 251
f 222 251 223
f 224 225 252
f 224 252 226
f 225 229 252
f 226 252 253
f 226 253 254
f 226 254 230
f 228 255 229
f 229 256 257
f 229 257 252
f 229 255 258
f 229 258 285
f 229 285 256
f 230 254 259
f 230 259 231
f 231 259 260
f 231 260 232
f 232 260 234
f 232 234 233
f 234 260 261
f 234 261 262
f 234 262 235
f 235 262 236
f 236 262 261
f 236 261 263
f 236 263 264
f 236 264 265
f 236 265 266
f 236 266 238
f 236 238 237
f 238 266 267
f 238 267 246
f 241 249 268
f 241 268 269
f 241 269 242
f 242 269 243
f 243 269 270
f 246 267 266
f 246 266 271
f 246 271 247
f 247 272 273
f 247 273 274
f 247 274 248
f 247 271 272
f 248 274 249
f 249 274 268
f 250 275 276
f 250 276 277
f 250 277 251
f 252 278 279
f 252 279 253
f 252 257 278
f 253 279 280
f 253 280 281
f 253 281 254
f 254 281 282
f 254 282 259
f 256 283 284
f 256 284 257
f 256 285 283
f 257 284 278
f 259 282 286
f 259 286 287
f 259 287 261
f 259 261 260
f 261 288 289
f 261 289 290
f 261 290 263
f 261 287 288
f 263 290 291
f 263 291 264
f 264 291 266
f 264 266 265
f 266 292 271
f 266 291 292
f 268 293 294
f 268 294 295
f 268 295 269
f 268 274 293
f 269 295 296
f 269 296 297
f 269 297 270
f 271 292 272
f 272 292 298
f 272 298 299
f 272 299 300
f 272 300 273
f 273 300 301
f 273 301 302
f 273 302 274
f 274 302 293
f 275 303 304
f 275 304 276
f 278 305 306
f 278 306 279
f 278 284 305
f 279 306 307
f 279 307 280
f 280 307 308
f 280 308 281
f 281 308 307
f 281 307 309
f 281 309 282
f 282 310 311
f 282 311 312
f 282 312 286
f 282 309 310
f 283 313 314
f 283 314 284
f 283 285 315
f 283 315 313
f 284 314 305
f 286 312 288
f 286 288 287
f 288 316 317
f 288 317 318
f 288 318 289
f 288 312 319
f 288 319 316
f 289 318 320
f 289 320 290
f 290 320 321
f 290 321 291
f 291 321 292
f 292 321 322
f 292 322 299
f 292 299 298
f 293 302 323
f 293 323 324
f 293 324 294
f 294 325 295
f 295 325 296
f 299 326 301
f 299 301 300
f 299 322 326
f 301 326 327
f 301 327 323
f 301 323 302
f 303 328 329
f 303 329 304
f 305 330 331
f 305 331 306
f 305 314 330
f 306 331 307
f 307 331 332
f 307 332 309
f 309 332 310
f 310 332 333
f 310 333 311
f 311 333 312
f 312 333 334
f 312 334 319
f 313 335 314
f 313 315 336
f 313 336 335
f 314 335 330
f 316 337 338
f 316 338 317
f 316 319 334
f 316 334 337
f 317 338 318
f 318 338 339
f 318 339 340
f 318 340 320
f 320 340 341
f 320 341 342
f 320 342 321
f 321 342 326
f 321 326 322
f 323 327 343
f 323 343 344
f 323 344 324
f 324 344 343
f 324 343 345
f 326 346 347
f 326 347 327
f 326 342 346
f 327 347 348
f 327 348 343
f 328 349 350
f 328 350 329
f 330 335 332
f 330 332 331
f 332 337 334
f 332 334 333
f 332 335 351
f 332 351 337
f 335 336 352
f 335 352 353
f 335 353 350
f 335 350 354
f 335 354 355
f 335 355 351
f 336 353 352
f 337 339 338
f 337 351 339
f 339 351 340
f 340 356 357
f 340 357 341
f 340 351 356
f 341 357 358
f 341 358 346
f 341 346 342
f 343 348 359
f 343 359 345
f 346 358 360
f 346 360 361
f 346 361 362
f 346 362 363
f 346 363 347
f 347 363 364
f 347 364 348
f 348 364 359
f 349 365 350
f 350 365 366
f 350 366 354
f 351 355 367
f 351 367 357
f 351 357 356
f 354 366 368
f 354 368 355
f 355 368 366
f 355 366 369
f 355 369 370
f 355 370 371
f 355 371 367
f 357 367 358
f 358 367 360
f 360 367 361
f 361 367 372
f 361 372 373
f 361 373 374
f 361 374 362
f 362 374 375
f 362 375 363
f 363 375 376
f 363 376 364
f 367 371 372
f 369 377 370
f 370 377 378
f 370 378 379
f 370 379 371
f 371 379 380
f 371 380 381
f 371 381 375
f 371 375 374
f 371 374 373
f 371 373 372
f 375 381 380
f 375 380 376
f 378 380 379

