# https://github.com/mikedh/trimesh
v 0.01151916 0.00625731 0.00038720
v 0.01151916 0.00625731 -0.00038652
v 0.01127569 0.00669754 0.00038720
v 0.01134413 0.00656312 0.00064511
v 0.01151250 0.00625731 0.00064511
v 0.01151250 0.00625731 -0.00064443
v 0.01134413 0.00656312 -0.00064443
v 0.01127569 0.00669754 -0.00038652
v 0.01119515 0.00683644 0.00038720
v 0.01127267 0.00669194 0.00064511
v 0.01149796 0.00625731 0.00084676
v 0.01150826 0.00625731 -0.00071902
v 0.01127267 0.00669194 -0.00064443
v 0.01119515 0.00683644 -0.00038652
v 0.01107160 0.00703620 0.00038720
v 0.01106796 0.00703135 0.00064511
v 0.01118848 0.00683644 0.00064511
v 0.01116668 0.00683644 0.00090302
v 0.01126176 0.00667290 0.00090302
v 0.01133323 0.00654408 0.00090302
v 0.01130476 0.00649180 0.00139671
v 0.01142286 0.00625731 0.00149217
v 0.01149796 0.00625731 -0.00084608
v 0.01126176 0.00667290 -0.00090234
v 0.01116668 0.00683644 -0.00090234
v 0.01118848 0.00683644 -0.00064443
v 0.01106796 0.00703135 -0.00064443
v 0.01107160 0.00703620 -0.00038652
v 0.01098257 0.00716502 0.00038720
v 0.01097954 0.00716054 0.00064511
v 0.01105706 0.00701529 0.00090302
v 0.01102678 0.00697086 0.00139671
v 0.01101951 0.00695929 0.00151745
v 0.01109098 0.00685884 0.00142642
v 0.01108734 0.00681516 0.00167675
v 0.01124723 0.00664564 0.00116030
v 0.01123330 0.00662062 0.00139671
v 0.01122906 0.00656312 0.00170077
v 0.01128054 0.00644849 0.00180254
v 0.01139924 0.00625731 0.00169192
v 0.01124723 0.00664564 -0.00116025
v 0.01133323 0.00654408 -0.00090234
v 0.01143134 0.00625731 -0.00141816
v 0.01108795 0.00681516 -0.00167606
v 0.01101951 0.00695966 -0.00151740
v 0.01105706 0.00701529 -0.00090234
v 0.01097954 0.00716054 -0.00064443
v 0.01098257 0.00716502 -0.00038652
v 0.01085357 0.00735134 0.00038720
v 0.01076151 0.00747568 0.00064511
v 0.01096803 0.00714411 0.00090302
v 0.01095168 0.00707989 0.00139671
v 0.01098075 0.00703770 0.00139671
v 0.01079119 0.00726098 0.00167675
v 0.01090626 0.00709408 0.00167675
v 0.01100922 0.00694398 0.00167675
v 0.01107099 0.00678715 0.00193466
v 0.01118969 0.00657843 0.00193466
v 0.01136715 0.00625731 0.00193655
v 0.01129084 0.00646716 -0.00163055
v 0.01123209 0.00661838 -0.00141816
v 0.01139924 0.00625731 -0.00169187
v 0.01100982 0.00694398 -0.00167606
v 0.01122906 0.00656312 -0.00170008
v 0.01107099 0.00678715 -0.00193397
v 0.01090626 0.00709445 -0.00167606
v 0.01079119 0.00726098 -0.00167606
v 0.01049685 0.00772436 -0.00146367
v 0.01053198 0.00777439 -0.00090234
v 0.01096803 0.00714411 -0.00090234
v 0.01076151 0.00747568 -0.00064443
v 0.01085357 0.00735134 -0.00038652
v 0.01054591 0.00779530 0.00038720
v 0.01054288 0.00779082 0.00064511
v 0.01053198 0.00777439 0.00090302
v 0.01080754 0.00728413 0.00141884
v 0.01048353 0.00770494 0.00167675
v 0.01077665 0.00724082 0.00188345
v 0.01085054 0.00711910 0.00195552
v 0.01099105 0.00691560 0.00193466
v 0.01104616 0.00674608 0.00219256
v 0.01114064 0.00657843 0.00219256
v 0.01124662 0.00638688 0.00219256
v 0.01131748 0.00625731 0.00219572
v 0.01128054 0.00644886 -0.00180186
v 0.01136715 0.00625731 -0.00193587
v 0.01099165 0.00691597 -0.00193397
v 0.01085054 0.00711910 -0.00195546
v 0.01077726 0.00724082 -0.00188340
v 0.01119030 0.00657843 -0.00193397
v 0.01106372 0.00672592 -0.00216154
v 0.01104919 0.00675093 -0.00216154
v 0.01048353 0.00770494 -0.00167606
v 0.01036785 0.00786811 -0.00167606
v 0.01044052 0.00790358 -0.00090234
v 0.01045203 0.00791964 -0.00064443
v 0.01054288 0.00779082 -0.00064443
v 0.01054591 0.00779530 -0.00038652
v 0.01045567 0.00792449 0.00038720
v 0.01045203 0.00791964 0.00064511
v 0.01044113 0.00790358 0.00090302
v 0.01042538 0.00788043 0.00116030
v 0.01050109 0.00773033 0.00139671
v 0.01036906 0.00786811 0.00167675
v 0.01025338 0.00800291 0.00182846
v 0.01046536 0.00767918 0.00193466
v 0.01076393 0.00722140 0.00205539
v 0.01096500 0.00687490 0.00219256
v 0.01102860 0.00671621 0.00234428
v 0.01100800 0.00668036 0.00251621
v 0.01101527 0.00643467 0.00306111
v 0.01126540 0.00625731 0.00241634
v 0.01132414 0.00625731 -0.00216154
v 0.01103950 0.00676662 -0.00216154
v 0.01096803 0.00688013 -0.00216154
v 0.01076393 0.00722140 -0.00205534
v 0.01055499 0.00755036 -0.00193397
v 0.01114669 0.00657843 -0.00216154
v 0.01046536 0.00767918 -0.00193397
v 0.01025278 0.00800216 -0.00182777
v 0.01026247 0.00801485 -0.00167606
v 0.01029517 0.00805705 -0.00116025
v 0.01031092 0.00807721 -0.00090234
v 0.01032364 0.00809289 -0.00064443
v 0.01032667 0.00809887 -0.00038652
v 0.01045567 0.00792449 -0.00038652
v 0.01032667 0.00809887 0.00038720
v 0.01032364 0.00809327 0.00064511
v 0.01031213 0.00807796 0.00090302
v 0.01029578 0.00805854 0.00116030
v 0.01028003 0.00803800 0.00141884
v 0.01026368 0.00801672 0.00167675
v 0.01042296 0.00784160 0.00139671
v 0.01016072 0.00814517 0.00167675
v 0.01000871 0.00827324 0.00193466
v 0.01015285 0.00810335 0.00192265
v 0.01023703 0.00798162 0.00200040
v 0.01032182 0.00788454 0.00192265
v 0.01043931 0.00764109 0.00219256
v 0.01074698 0.00719713 0.00219256
v 0.01083600 0.00706794 0.00219256
v 0.01080391 0.00702127 0.00245047
v 0.01082510 0.00679910 0.00296629
v 0.01079300 0.00675019 0.00322420
v 0.01096319 0.00656573 0.00297135
v 0.01113458 0.00625731 0.00296945
v 0.01089354 0.00657843 0.00322420
v 0.01107281 0.00625731 0.00322293
v 0.00957144 0.00625731 -0.00216154
v 0.01081965 0.00710304 -0.00216154
v 0.01066824 0.00732259 -0.00216154
v 0.01044234 0.00764595 -0.00216154
v 0.01029881 0.00785019 -0.00216154
v 0.01023764 0.00798274 -0.00199971
v 0.01032122 0.00788529 -0.00192196
v 0.01015345 0.00810335 -0.00192196
v 0.01016072 0.00814405 -0.00167606
v 0.01019282 0.00818512 -0.00116025
v 0.01017707 0.00816421 -0.00141816
v 0.01020796 0.00820566 -0.00090234
v 0.01022129 0.00822134 -0.00064443
v 0.01022674 0.00822731 -0.00038652
v 0.01022674 0.00822731 0.00038720
v 0.01022129 0.00822134 0.00064511
v 0.01020857 0.00820640 0.00090302
v 0.01018737 0.00815786 0.00139671
v 0.01003172 0.00829863 0.00167675
v 0.00988637 0.00840243 0.00193466
v 0.00999296 0.00825644 0.00207183
v 0.00991120 0.00842782 0.00167675
v 0.00978220 0.00856448 0.00167675
v 0.00997298 0.00823254 0.00224377
v 0.00994754 0.00820230 0.00245047
v 0.01005171 0.00807422 0.00245047
v 0.01021402 0.00795175 0.00219256
v 0.01031031 0.00782256 0.00219256
v 0.01027822 0.00777850 0.00245047
v 0.01025762 0.00775050 0.00261293
v 0.01023582 0.00771988 0.00278487
v 0.01032303 0.00762429 0.00270269
v 0.01071488 0.00715046 0.00245047
v 0.01073910 0.00692755 0.00296629
v 0.01070519 0.00687901 0.00322420
v 0.01077241 0.00671920 0.00337401
v 0.01105948 0.00625731 0.00326908
v 0.00706109 0.00863132 -0.00216154
v 0.00881137 0.00625731 0.00429629
v 0.00559545 0.00895990 0.00429629
v 0.01022007 0.00795810 -0.00216154
v 0.01000871 0.00827361 -0.00193397
v 0.01007291 0.00813807 -0.00216154
v 0.01003172 0.00829900 -0.00167606
v 0.01007896 0.00834866 -0.00090234
v 0.01004807 0.00831618 -0.00141816
v 0.01009229 0.00836248 -0.00064443
v 0.01009713 0.00836845 -0.00038652
v 0.01009713 0.00836845 0.00038720
v 0.01009229 0.00836248 0.00064511
v 0.01007896 0.00834866 0.00090302
v 0.01006382 0.00833261 0.00116030
v 0.01004989 0.00831767 0.00139671
v 0.00992876 0.00844537 0.00141884
v 0.00975737 0.00853760 0.00193466
v 0.00966592 0.00844164 0.00270838
v 0.00978765 0.00831245 0.00270838
v 0.00979976 0.00858315 0.00141884
v 0.00967561 0.00871346 0.00139671
v 0.00965562 0.00869293 0.00167675
v 0.00963079 0.00866679 0.00193466
v 0.00975434 0.00827660 0.00296629
v 0.00991665 0.00816197 0.00270838
v 0.01001900 0.00803352 0.00270838
v 0.00997782 0.00797938 0.00304025
v 0.01004929 0.00781659 0.00322420
v 0.01021220 0.00768702 0.00296629
v 0.01030244 0.00755820 0.00296629
v 0.01050533 0.00722066 0.00308829
v 0.01037754 0.00735246 0.00322420
v 0.01025036 0.00748315 0.00335631
v 0.01066885 0.00681777 0.00346883
v 0.01050230 0.00670015 0.00411424
v 0.01047505 0.00665908 0.00425583
v 0.01054954 0.00651831 0.00429629
v 0.01075909 0.00643841 0.00385253
v 0.01078998 0.00649367 0.00368060
v 0.01081784 0.00657918 0.00346883
v 0.01101043 0.00625731 0.00343343
v 0.00679037 0.00888858 -0.00216154
v 0.01069913 0.00625731 0.00429629
v 0.00552762 0.00902599 0.00429629
v 0.00664078 0.00903383 -0.00216154
v 0.00999296 0.00825644 -0.00207178
v 0.00988637 0.00840243 -0.00193397
v 0.00978220 0.00856411 -0.00167606
v 0.00991120 0.00842782 -0.00167606
v 0.01006140 0.00815151 -0.00216154
v 0.00992876 0.00844537 -0.00141816
v 0.00983005 0.00861526 -0.00090234
v 0.00984337 0.00862983 -0.00064443
v 0.00984882 0.00863617 -0.00038652
v 0.00984882 0.00863617 0.00038720
v 0.00984337 0.00862983 0.00064511
v 0.00983005 0.00861526 0.00090302
v 0.00980098 0.00858464 0.00139671
v 0.00948423 0.00877806 0.00210154
v 0.00946303 0.00875902 0.00227411
v 0.00956720 0.00860854 0.00245047
v 0.00953692 0.00857643 0.00270838
v 0.00970589 0.00874446 0.00090302
v 0.00954479 0.00882959 0.00141884
v 0.00952662 0.00881465 0.00167675
v 0.00950179 0.00879374 0.00193466
v 0.00962897 0.00840579 0.00296629
v 0.00973496 0.00825606 0.00310093
v 0.00989606 0.00810633 0.00295934
v 0.00980461 0.00813322 0.00320144
v 0.00994996 0.00794578 0.00322420
v 0.01017829 0.00763848 0.00322420
v 0.01001840 0.00777402 0.00342269
v 0.01026852 0.00750929 0.00322420
v 0.01011772 0.00760674 0.00347579
v 0.01001295 0.00751153 0.00392460
v 0.01021765 0.00743573 0.00352825
v 0.01008138 0.00736815 0.00400551
v 0.01003838 0.00729160 0.00425583
v 0.01030365 0.00688610 0.00429629
v 0.01046778 0.00664527 0.00429629
v 0.01067006 0.00630996 0.00429629
v 0.01070761 0.00625731 0.00427353
v 0.01073365 0.00625731 0.00420147
v 0.01080451 0.00626217 0.00399792
v 0.01089657 0.00625731 0.00375013
v 0.00544283 0.00911598 0.00429629
v 0.00657961 0.00913614 -0.00216154
v 0.00539559 0.00918505 0.00429629
v 0.00973920 0.00851856 -0.00208821
v 0.00986275 0.00837069 -0.00216154
v 0.00975737 0.00853760 -0.00193397
v 0.00963140 0.00866642 -0.00193397
v 0.00965562 0.00869330 -0.00167606
v 0.00967379 0.00871197 -0.00141816
v 0.00979916 0.00858315 -0.00141816
v 0.00970589 0.00874446 -0.00090234
v 0.00972103 0.00875902 -0.00064443
v 0.00972830 0.00876536 -0.00038652
v 0.00972830 0.00876536 0.00038720
v 0.00972103 0.00875902 0.00064511
v 0.00914931 0.00897558 0.00245047
v 0.00931162 0.00884639 0.00245047
v 0.00927831 0.00882100 0.00270838
v 0.00932374 0.00893712 0.00192328
v 0.00944062 0.00873736 0.00245047
v 0.00940792 0.00870525 0.00270838
v 0.00949997 0.00853872 0.00296629
v 0.00940247 0.00894870 0.00139671
v 0.00938733 0.00895878 0.00141884
v 0.00957689 0.00885349 0.00090302
v 0.00936734 0.00894384 0.00167675
v 0.00947817 0.00851520 0.00310346
v 0.00959203 0.00837032 0.00318817
v 0.00970650 0.00822358 0.00327287
v 0.00977433 0.00804846 0.00348211
v 0.00991726 0.00786326 0.00349791
v 0.00954358 0.00808318 0.00399792
v 0.00998448 0.00773033 0.00359463
v 0.00994875 0.00742042 0.00425583
v 0.01003051 0.00728040 0.00429629
v 0.00657173 0.00915033 -0.00216154
v 0.00533200 0.00941506 0.00429629
v 0.00649785 0.00941506 -0.00216154
v 0.00984882 0.00838526 -0.00216154
v 0.00963079 0.00861302 -0.00216154
v 0.00957205 0.00867351 -0.00216154
v 0.00948362 0.00877806 -0.00210149
v 0.00950179 0.00879374 -0.00193397
v 0.00952662 0.00881465 -0.00167606
v 0.00954540 0.00882959 -0.00141816
v 0.00959203 0.00886469 -0.00064443
v 0.00957689 0.00885349 -0.00090234
v 0.00959869 0.00886991 -0.00038652
v 0.00959869 0.00886991 0.00038720
v 0.00959203 0.00886469 0.00064511
v 0.00902031 0.00907565 0.00245047
v 0.00911419 0.00894982 0.00270838
v 0.00922320 0.00903271 0.00182909
v 0.00924016 0.00878964 0.00296629
v 0.00936916 0.00866754 0.00296629
v 0.00937824 0.00896849 0.00139671
v 0.00925833 0.00906109 0.00141884
v 0.00941821 0.00898268 0.00090302
v 0.00923834 0.00904503 0.00167675
v 0.00921836 0.00877134 0.00309840
v 0.00933282 0.00862833 0.00318690
v 0.00944728 0.00848458 0.00327540
v 0.00953874 0.00831767 0.00348211
v 0.00966774 0.00817653 0.00348211
v 0.00946788 0.00824635 0.00385064
v 0.00943759 0.00821163 0.00399792
v 0.00950421 0.00803427 0.00419388
v 0.00971437 0.00771540 0.00429629
v 0.00980158 0.00760039 0.00429629
v 0.00994148 0.00740772 0.00429629
v 0.00533261 0.00967307 0.00429629
v 0.00649906 0.00967307 -0.00216154
v 0.00940307 0.00882996 -0.00216154
v 0.00932434 0.00893675 -0.00192259
v 0.00936068 0.00886357 -0.00216154
v 0.00936734 0.00894347 -0.00167606
v 0.00938733 0.00895878 -0.00141816
v 0.00943154 0.00899351 -0.00064443
v 0.00943881 0.00899873 -0.00038652
v 0.00941821 0.00898268 -0.00090234
v 0.00943881 0.00899873 0.00038720
v 0.00943154 0.00899351 0.00064511
v 0.00881561 0.00922090 0.00247576
v 0.00870114 0.00928624 0.00257816
v 0.00883075 0.00916340 0.00270838
v 0.00898519 0.00904839 0.00270838
v 0.00905120 0.00909917 0.00219256
v 0.00896399 0.00903159 0.00284935
v 0.00910510 0.00910627 0.00192328
v 0.00908814 0.00915966 0.00167675
v 0.00906513 0.00892854 0.00294733
v 0.00926014 0.00906184 0.00139671
v 0.00895369 0.00928288 0.00149722
v 0.00928861 0.00908461 0.00090302
v 0.00930314 0.00909619 0.00064511
v 0.00889555 0.00898044 0.00322420
v 0.00882106 0.00896027 0.00350170
v 0.00898155 0.00878889 0.00367680
v 0.00895127 0.00876350 0.00384874
v 0.00928013 0.00857419 0.00348211
v 0.00940913 0.00844649 0.00348211
v 0.00924319 0.00853835 0.00367933
v 0.00935583 0.00839310 0.00376467
v 0.00921048 0.00850549 0.00385127
v 0.00930859 0.00834530 0.00399792
v 0.00925227 0.00828855 0.00425583
v 0.00924258 0.00827959 0.00429629
v 0.00939459 0.00812239 0.00427037
v 0.00941398 0.00808617 0.00429629
v 0.00948181 0.00800627 0.00429629
v 0.00966471 0.00777775 0.00429629
v 0.00535865 0.00983027 0.00429629
v 0.00650390 0.00970481 -0.00216154
v 0.00922259 0.00903234 -0.00182904
v 0.00918323 0.00900209 -0.00216154
v 0.00907603 0.00908573 -0.00216154
v 0.00923834 0.00904466 -0.00167606
v 0.00925893 0.00906072 -0.00141816
v 0.00930314 0.00909619 -0.00064443
v 0.00930920 0.00910179 -0.00038652
v 0.00928861 0.00908461 -0.00090234
v 0.00930920 0.00910179 0.00038720
v 0.00890524 0.00925152 0.00193466
v 0.00867813 0.00927243 0.00270838
v 0.00893552 0.00927205 0.00167675
v 0.00880713 0.00934598 0.00167675
v 0.00857275 0.00944419 0.00193466
v 0.00838924 0.00951326 0.00219256
v 0.00835593 0.00949497 0.00245047
v 0.00822633 0.00956591 0.00245047
v 0.00820089 0.00955209 0.00261925
v 0.00831535 0.00942104 0.00296629
v 0.00843648 0.00928213 0.00333356
v 0.00883983 0.00909731 0.00294733
v 0.00876655 0.00907714 0.00322420
v 0.00869812 0.00902562 0.00360095
v 0.00860303 0.00948824 0.00141884
v 0.00847403 0.00956143 0.00141884
v 0.00845768 0.00955209 0.00160848
v 0.00911479 0.00921380 0.00090302
v 0.00912872 0.00922501 0.00064511
v 0.00896338 0.00928848 0.00132465
v 0.00900033 0.00931126 0.00064511
v 0.00883075 0.00941058 0.00064511
v 0.00883075 0.00939340 0.00090302
v 0.00863513 0.00950579 0.00090302
v 0.00849099 0.00957076 0.00116030
v 0.00860485 0.00948899 0.00139671
v 0.00913599 0.00923061 0.00038720
v 0.00860727 0.00896102 0.00399792
v 0.00878472 0.00883183 0.00399792
v 0.00871023 0.00877694 0.00429629
v 0.00891372 0.00872952 0.00399792
v 0.00900033 0.00855104 0.00420716
v 0.00917838 0.00847450 0.00399792
v 0.00853823 0.00909843 0.00374002
v 0.00908754 0.00842670 0.00429629
v 0.00938248 0.00812276 0.00429629
v 0.00537621 0.00993071 0.00429629
v 0.00655599 0.00993108 -0.00216154
v 0.00910510 0.00910627 -0.00192259
v 0.00908814 0.00915929 -0.00167606
v 0.00905726 0.00909992 -0.00216154
v 0.00895369 0.00928251 -0.00149654
v 0.00912872 0.00922501 -0.00064443
v 0.00913599 0.00923061 -0.00038652
v 0.00911479 0.00921380 -0.00090234
v 0.00840802 0.00926496 0.00348211
v 0.00863028 0.00924106 0.00296629
v 0.00826085 0.00958383 0.00219256
v 0.00805735 0.00964395 0.00245047
v 0.00807310 0.00959765 0.00270648
v 0.00800890 0.00958533 0.00296629
v 0.00796227 0.00956180 0.00322420
v 0.00817000 0.00953492 0.00279119
v 0.00833716 0.00935532 0.00323810
v 0.00809127 0.00949198 0.00322420
v 0.00793502 0.00954761 0.00336769
v 0.00827962 0.00933628 0.00348211
v 0.00859576 0.00912680 0.00350170
v 0.00831535 0.00963723 0.00141884
v 0.00847585 0.00956218 0.00139671
v 0.00833050 0.00963163 0.00139671
v 0.00833776 0.00960176 0.00168686
v 0.00829113 0.00959765 0.00193466
v 0.00900759 0.00931537 0.00038720
v 0.00883075 0.00941917 0.00038720
v 0.00865814 0.00951886 0.00038720
v 0.00865027 0.00951438 0.00064511
v 0.00850613 0.00957861 0.00090302
v 0.00831535 0.00965366 0.00116030
v 0.00847827 0.00905287 0.00399792
v 0.00829476 0.00907789 0.00429629
v 0.00839530 0.00900620 0.00429629
v 0.00853035 0.00890837 0.00429629
v 0.00883075 0.00866791 0.00429629
v 0.00897792 0.00852976 0.00429629
v 0.00835230 0.00922762 0.00374002
v 0.00539680 0.00998859 0.00429629
v 0.00656386 0.00995610 -0.00216154
v 0.00890585 0.00925152 -0.00193397
v 0.00893674 0.00927168 -0.00167606
v 0.00903364 0.00911747 -0.00216154
v 0.00880774 0.00934598 -0.00167606
v 0.00845828 0.00955209 -0.00160779
v 0.00847464 0.00956143 -0.00141816
v 0.00860364 0.00948824 -0.00141816
v 0.00885316 0.00934598 -0.00141373
v 0.00883075 0.00939340 -0.00090234
v 0.00896338 0.00928848 -0.00132460
v 0.00900033 0.00931126 -0.00064443
v 0.00900759 0.00931537 -0.00038652
v 0.00822330 0.00930528 0.00374002
v 0.00805735 0.00967569 0.00219256
v 0.00779935 0.00971415 0.00270838
v 0.00779935 0.00967681 0.00296629
v 0.00778058 0.00975671 0.00244226
v 0.00779935 0.00963536 0.00322420
v 0.00780541 0.00958757 0.00346504
v 0.00771699 0.00956703 0.00374002
v 0.00789504 0.00952670 0.00353963
v 0.00803616 0.00947070 0.00346504
v 0.00805735 0.00972535 0.00167675
v 0.00805735 0.00970145 0.00193466
v 0.00831535 0.00963872 0.00139671
v 0.00803858 0.00975484 0.00139671
v 0.00883075 0.00941917 -0.00038652
v 0.00865875 0.00951886 0.00012866
v 0.00852975 0.00959055 0.00012866
v 0.00852914 0.00959018 0.00038720
v 0.00852127 0.00958607 0.00064511
v 0.00831535 0.00966747 0.00090302
v 0.00806886 0.00975596 0.00116030
v 0.00831596 0.00908536 0.00423181
v 0.00824692 0.00911038 0.00429629
v 0.00829173 0.00918879 0.00397643
v 0.00818938 0.00928811 0.00387592
v 0.00814578 0.00926272 0.00404786
v 0.00809430 0.00922762 0.00425583
v 0.00550642 0.01006364 0.00429629
v 0.00662442 0.01006774 -0.00216154
v 0.00887738 0.00923098 -0.00216154
v 0.00876413 0.00930416 -0.00216154
v 0.00874838 0.00931350 -0.00216154
v 0.00872416 0.00932769 -0.00216154
v 0.00857275 0.00941394 -0.00216154
v 0.00842013 0.00953044 -0.00193397
v 0.00855579 0.00948675 -0.00168681
v 0.00831535 0.00963723 -0.00141816
v 0.00828023 0.00957749 -0.00216154
v 0.00826448 0.00958533 -0.00216154
v 0.00829113 0.00959765 -0.00193397
v 0.00833776 0.00960138 -0.00168681
v 0.00849099 0.00957076 -0.00116025
v 0.00863513 0.00950579 -0.00090234
v 0.00865027 0.00951438 -0.00064443
v 0.00883075 0.00941058 -0.00064443
v 0.00805735 0.00939154 0.00374002
v 0.00783145 0.00976493 0.00219256
v 0.00768126 0.00980600 0.00235060
v 0.00765037 0.00979442 0.00252254
v 0.00744021 0.00981235 0.00296629
v 0.00756921 0.00976455 0.00296629
v 0.00751773 0.00974999 0.00320207
v 0.00754135 0.00969436 0.00348211
v 0.00754135 0.00964283 0.00374002
v 0.00784599 0.00950131 0.00374002
v 0.00754680 0.00958794 0.00398275
v 0.00745535 0.00956516 0.00425583
v 0.00768004 0.00954873 0.00388730
v 0.00791503 0.00979704 0.00147510
v 0.00776423 0.00983811 0.00167675
v 0.00786234 0.00977687 0.00193466
v 0.00803192 0.00975746 0.00139671
v 0.00793138 0.00980301 0.00130316
v 0.00865814 0.00951886 -0.00038652
v 0.00865875 0.00951886 -0.00012861
v 0.00831535 0.00968913 0.00012866
v 0.00852975 0.00959055 -0.00012861
v 0.00831535 0.00968838 0.00038720
v 0.00831535 0.00968091 0.00064511
v 0.00793986 0.00980637 0.00116030
v 0.00809914 0.00976754 0.00064511
v 0.00795500 0.00981235 0.00090302
v 0.00808400 0.00922090 0.00429629
v 0.00795500 0.00930006 0.00429629
v 0.00562392 0.01006289 0.00429629
v 0.00565965 0.01006625 0.00420842
v 0.00559545 0.01006625 0.00411044
v 0.00687879 0.01007148 -0.00116025
v 0.00668923 0.01006774 -0.00216154
v 0.00839288 0.00951513 -0.00216154
v 0.00803313 0.00975634 -0.00140046
v 0.00831535 0.00965366 -0.00116025
v 0.00805735 0.00970108 -0.00193397
v 0.00805735 0.00972497 -0.00167606
v 0.00823662 0.00959802 -0.00216154
v 0.00805735 0.00967867 -0.00216154
v 0.00850613 0.00957861 -0.00090234
v 0.00852127 0.00958607 -0.00064443
v 0.00770185 0.00981421 0.00219256
v 0.00755528 0.00983998 0.00244226
v 0.00748685 0.00982990 0.00270838
v 0.00754135 0.00987171 0.00219256
v 0.00728396 0.00986761 0.00296629
v 0.00741538 0.00980301 0.00310157
v 0.00737662 0.00978957 0.00327350
v 0.00732575 0.00977165 0.00348211
v 0.00726155 0.00975186 0.00372232
v 0.00728396 0.00969398 0.00399792
v 0.00728396 0.00963835 0.00425583
v 0.00779935 0.00939116 0.00425583
v 0.00758435 0.00950094 0.00425583
v 0.00763644 0.00952633 0.00405924
v 0.00744445 0.00955994 0.00429629
v 0.00781752 0.00983998 0.00140051
v 0.00754135 0.00991055 0.00167675
v 0.00754135 0.00989225 0.00193466
v 0.00779935 0.00985977 0.00116030
v 0.00852914 0.00959018 -0.00038652
v 0.00831535 0.00968913 -0.00012861
v 0.00810944 0.00977165 0.00012866
v 0.00810823 0.00977090 0.00038720
v 0.00797014 0.00981795 0.00064511
v 0.00797862 0.00982168 0.00038720
v 0.00779935 0.00937996 0.00429629
v 0.00571658 0.01004982 0.00429629
v 0.00590130 0.01006700 0.00392396
v 0.00584679 0.01006700 0.00382346
v 0.00687879 0.01007148 0.00116030
v 0.00695268 0.01007148 -0.00116025
v 0.00702596 0.01000576 -0.00216154
v 0.00693511 0.01006849 -0.00141816
v 0.00691271 0.01006326 -0.00161095
v 0.00793138 0.00980301 -0.00130311
v 0.00806886 0.00975596 -0.00116025
v 0.00791503 0.00979666 -0.00147441
v 0.00831535 0.00966747 -0.00090234
v 0.00786234 0.00977650 -0.00193397
v 0.00783448 0.00976605 -0.00216154
v 0.00776423 0.00983774 -0.00167606
v 0.00831535 0.00968091 -0.00064443
v 0.00728396 0.00989673 0.00270838
v 0.00728396 0.00994602 0.00219256
v 0.00728396 0.00992324 0.00245047
v 0.00702596 0.00994079 0.00296629
v 0.00702596 0.00991055 0.00322420
v 0.00728759 0.00983288 0.00320207
v 0.00719675 0.00981720 0.00348211
v 0.00716162 0.00980451 0.00362370
v 0.00711802 0.00978920 0.00379564
v 0.00706351 0.00977127 0.00399792
v 0.00699992 0.00974626 0.00423055
v 0.00700597 0.00972945 0.00429629
v 0.00724399 0.00964357 0.00429629
v 0.00728275 0.00962827 0.00429629
v 0.00757345 0.00949497 0.00429629
v 0.00754135 0.00992772 0.00141884
v 0.00779935 0.00987022 0.00090302
v 0.00754196 0.00993967 0.00116030
v 0.00831535 0.00968838 -0.00038652
v 0.00810944 0.00977165 -0.00012861
v 0.00798044 0.00982243 0.00012866
v 0.00779935 0.00987993 0.00064511
v 0.00779935 0.00988553 0.00038720
v 0.00574141 0.01004571 0.00429629
v 0.00574141 0.01004795 0.00427922
v 0.00599396 0.01000053 0.00429629
v 0.00621199 0.00995797 0.00429629
v 0.00625196 0.00995535 0.00425583
v 0.00625196 0.00998859 0.00399792
v 0.00622834 0.01002816 0.00371726
v 0.00612659 0.01006065 0.00361675
v 0.00615930 0.01006625 0.00348211
v 0.00641972 0.01006700 0.00296629
v 0.00669104 0.01006849 0.00219256
v 0.00695268 0.01007148 0.00116030
v 0.00728396 0.01002070 0.00012866
v 0.00728396 0.01002032 -0.00012861
v 0.00728396 0.01001846 -0.00038652
v 0.00728396 0.01001398 -0.00064443
v 0.00708228 0.01004459 -0.00116025
v 0.00725307 0.00995498 -0.00216154
v 0.00702596 0.01001995 -0.00193397
v 0.00728396 0.00999979 -0.00116025
v 0.00706411 0.01003937 -0.00141816
v 0.00728396 0.00998971 -0.00141816
v 0.00728396 0.00996208 -0.00193397
v 0.00781692 0.00983960 -0.00140046
v 0.00779935 0.00985977 -0.00116025
v 0.00793986 0.00980637 -0.00116025
v 0.00795500 0.00981235 -0.00090234
v 0.00809914 0.00976754 -0.00064443
v 0.00772183 0.00980936 -0.00216154
v 0.00754196 0.00989150 -0.00193397
v 0.00754196 0.00991017 -0.00167606
v 0.00770609 0.00981533 -0.00216154
v 0.00754196 0.00987358 -0.00216154
v 0.00702596 0.01000352 0.00219256
v 0.00702596 0.00998373 0.00245047
v 0.00702596 0.00996357 0.00270838
v 0.00728396 0.00996245 0.00193466
v 0.00702596 0.01002032 0.00193466
v 0.00676796 0.00999680 0.00296629
v 0.00676796 0.00997104 0.00322420
v 0.00676796 0.00994303 0.00348211
v 0.00676796 0.00991017 0.00374002
v 0.00702596 0.00987358 0.00348211
v 0.00702959 0.00983326 0.00372232
v 0.00693451 0.00981533 0.00399792
v 0.00689756 0.00980227 0.00412814
v 0.00694602 0.00975036 0.00429629
v 0.00728396 0.00999008 0.00141884
v 0.00728396 0.00997664 0.00167675
v 0.00754196 0.00994751 0.00090302
v 0.00728396 0.00999979 0.00116030
v 0.00810823 0.00977090 -0.00038652
v 0.00798044 0.00982243 -0.00012861
v 0.00779935 0.00988665 0.00012866
v 0.00754196 0.00995498 0.00064511
v 0.00754196 0.00995946 0.00038720
v 0.00625196 0.00994938 0.00429629
v 0.00650996 0.00993631 0.00399792
v 0.00650996 0.00996954 0.00374002
v 0.00650996 0.00999755 0.00348211
v 0.00638762 0.01006140 0.00310852
v 0.00654872 0.01004198 0.00296629
v 0.00666682 0.01006588 0.00239990
v 0.00693693 0.01006886 0.00139671
v 0.00708228 0.01004459 0.00116030
v 0.00728396 0.01001398 0.00064511
v 0.00728396 0.01001920 0.00038720
v 0.00754196 0.00996058 0.00012866
v 0.00754196 0.00996021 -0.00012861
v 0.00754196 0.00995946 -0.00038652
v 0.00754196 0.00995498 -0.00064443
v 0.00728396 0.00994789 -0.00216154
v 0.00754196 0.00994751 -0.00090234
v 0.00754196 0.00993967 -0.00116025
v 0.00754196 0.00992735 -0.00141816
v 0.00779935 0.00987022 -0.00090234
v 0.00797014 0.00981795 -0.00064443
v 0.00797862 0.00982168 -0.00038652
v 0.00676796 0.01001958 0.00270838
v 0.00691271 0.01006364 0.00161290
v 0.00650996 0.00989524 0.00425583
v 0.00676796 0.00986873 0.00399792
v 0.00676009 0.00982541 0.00423055
v 0.00673101 0.00982093 0.00429629
v 0.00706411 0.01003974 0.00141884
v 0.00708349 0.01003638 0.00139671
v 0.00779935 0.00988665 -0.00012861
v 0.00779935 0.00988553 -0.00038652
v 0.00646999 0.00989860 0.00429629
v 0.00693511 0.01006849 0.00141884
v 0.00779935 0.00987993 -0.00064443
v 0.00651178 0.00988702 0.00429629
v 0.00670497 0.00982915 0.00429629
f 1 2 8
f 1 8 3
f 1 3 4
f 1 4 5
f 1 5 11
f 1 11 22
f 1 22 40
f 1 40 59
f 1 59 84
f 1 84 112
f 1 112 146
f 1 146 148
f 1 148 185
f 1 185 227
f 1 227 272
f 1 272 270
f 1 270 269
f 1 269 229
f 1 229 187
f 1 187 149
f 1 149 113
f 1 113 86
f 1 86 62
f 1 62 43
f 1 43 23
f 1 23 12
f 1 12 6
f 1 6 2
f 2 6 7
f 2 7 8
f 3 8 14
f 3 14 9
f 3 9 10
f 3 10 4
f 4 10 11
f 4 11 5
f 6 12 7
f 7 12 13
f 7 13 8
f 8 13 14
f 9 15 16
f 9 16 17
f 9 17 10
f 9 14 28
f 9 28 15
f 10 17 18
f 10 18 19
f 10 19 11
f 11 19 20
f 11 20 21
f 11 21 22
f 12 23 13
f 13 23 24
f 13 24 25
f 13 25 26
f 13 26 14
f 14 26 27
f 14 27 28
f 15 28 48
f 15 48 29
f 15 29 30
f 15 30 16
f 16 30 31
f 16 31 17
f 17 31 18
f 18 31 32
f 18 32 33
f 18 33 34
f 18 34 35
f 18 35 36
f 18 36 19
f 19 36 20
f 20 36 21
f 21 37 38
f 21 38 39
f 21 39 40
f 21 40 22
f 21 36 37
f 23 41 42
f 23 42 24
f 23 43 41
f 24 42 41
f 24 41 44
f 24 44 25
f 25 44 45
f 25 45 46
f 25 46 26
f 26 46 27
f 27 46 47
f 27 47 28
f 28 47 48
f 29 48 72
f 29 72 49
f 29 49 50
f 29 50 30
f 30 50 75
f 30 75 51
f 30 51 31
f 31 51 52
f 31 52 53
f 31 53 32
f 32 53 33
f 33 53 52
f 33 52 54
f 33 54 55
f 33 55 56
f 33 56 35
f 33 35 34
f 35 38 37
f 35 37 36
f 35 56 57
f 35 57 38
f 38 57 58
f 38 58 39
f 39 58 59
f 39 59 40
f 41 43 60
f 41 60 61
f 41 61 44
f 43 62 60
f 44 63 45
f 44 61 64
f 44 64 65
f 44 65 63
f 45 63 66
f 45 66 67
f 45 67 68
f 45 68 69
f 45 69 70
f 45 70 46
f 46 70 47
f 47 70 69
f 47 69 71
f 47 71 48
f 48 71 72
f 49 73 50
f 49 72 98
f 49 98 73
f 50 74 75
f 50 73 74
f 51 75 52
f 52 76 54
f 52 75 76
f 54 76 77
f 54 77 78
f 54 78 55
f 55 78 79
f 55 79 56
f 56 79 80
f 56 80 57
f 57 80 81
f 57 81 58
f 58 81 82
f 58 82 59
f 59 82 83
f 59 83 84
f 60 62 85
f 60 85 61
f 61 85 64
f 62 86 85
f 63 65 87
f 63 87 88
f 63 88 89
f 63 89 66
f 64 85 90
f 64 90 65
f 65 90 91
f 65 91 92
f 65 92 87
f 66 89 67
f 67 93 68
f 67 89 93
f 68 93 94
f 68 94 95
f 68 95 69
f 69 95 96
f 69 96 97
f 69 97 71
f 71 97 98
f 71 98 72
f 73 98 126
f 73 126 99
f 73 99 74
f 74 100 101
f 74 101 75
f 74 99 100
f 75 101 102
f 75 102 103
f 75 103 76
f 76 103 77
f 77 104 105
f 77 105 106
f 77 106 78
f 77 103 104
f 78 106 79
f 79 106 107
f 79 107 80
f 80 107 108
f 80 108 81
f 81 108 109
f 81 109 82
f 82 109 110
f 82 110 83
f 83 110 111
f 83 111 84
f 84 111 112
f 85 86 90
f 86 113 90
f 87 92 114
f 87 114 115
f 87 115 116
f 87 116 88
f 88 116 117
f 88 117 89
f 89 117 93
f 90 113 118
f 90 118 91
f 91 118 113
f 91 113 149
f 91 149 186
f 91 186 228
f 91 228 231
f 91 231 274
f 91 274 308
f 91 308 310
f 91 310 344
f 91 344 385
f 91 385 432
f 91 432 472
f 91 472 513
f 91 513 563
f 91 563 604
f 91 604 655
f 91 655 709
f 91 709 670
f 91 670 669
f 91 669 666
f 91 666 612
f 91 612 570
f 91 570 569
f 91 569 523
f 91 523 522
f 91 522 564
f 91 564 518
f 91 518 517
f 91 517 516
f 91 516 515
f 91 515 514
f 91 514 475
f 91 475 435
f 91 435 388
f 91 388 387
f 91 387 347
f 91 347 345
f 91 345 313
f 91 313 312
f 91 312 311
f 91 311 277
f 91 277 236
f 91 236 191
f 91 191 189
f 91 189 153
f 91 153 152
f 91 152 151
f 91 151 150
f 91 150 115
f 91 115 114
f 91 114 92
f 93 117 119
f 93 119 120
f 93 120 94
f 94 120 95
f 95 120 121
f 95 121 122
f 95 122 123
f 95 123 124
f 95 124 96
f 96 124 125
f 96 125 126
f 96 126 97
f 97 126 98
f 99 126 125
f 99 125 127
f 99 127 128
f 99 128 100
f 100 128 101
f 101 129 130
f 101 130 131
f 101 131 132
f 101 132 102
f 101 128 129
f 102 132 104
f 102 104 133
f 102 133 103
f 103 133 104
f 104 132 105
f 105 132 134
f 105 134 135
f 105 135 136
f 105 136 137
f 105 137 138
f 105 138 106
f 106 137 139
f 106 139 107
f 106 138 137
f 107 139 140
f 107 140 141
f 107 141 108
f 108 141 142
f 108 142 143
f 108 143 109
f 109 143 144
f 109 144 110
f 110 144 145
f 110 145 111
f 111 146 112
f 111 145 147
f 111 147 148
f 111 148 146
f 115 150 116
f 116 119 117
f 116 150 151
f 116 151 152
f 116 152 153
f 116 153 119
f 119 153 154
f 119 154 155
f 119 155 120
f 120 155 154
f 120 154 156
f 120 156 157
f 120 157 121
f 121 157 122
f 122 158 123
f 122 157 159
f 122 159 158
f 123 158 160
f 123 160 161
f 123 161 124
f 124 161 162
f 124 162 125
f 125 162 163
f 125 163 127
f 127 163 128
f 128 164 129
f 128 163 164
f 129 164 165
f 129 165 166
f 129 166 130
f 130 166 131
f 131 166 132
f 132 166 134
f 134 166 167
f 134 167 135
f 135 168 169
f 135 169 136
f 135 167 170
f 135 170 171
f 135 171 168
f 136 169 137
f 137 169 172
f 137 172 173
f 137 173 174
f 137 174 175
f 137 175 176
f 137 176 139
f 139 176 177
f 139 177 178
f 139 178 179
f 139 179 180
f 139 180 181
f 139 181 140
f 140 181 142
f 140 142 141
f 142 181 182
f 142 182 143
f 143 182 144
f 144 147 145
f 144 182 183
f 144 183 184
f 144 184 147
f 147 184 148
f 148 184 185
f 149 187 188
f 149 188 186
f 153 189 154
f 154 190 156
f 154 189 191
f 154 191 190
f 156 190 192
f 156 192 157
f 157 192 158
f 157 158 159
f 158 192 160
f 160 193 161
f 160 192 194
f 160 194 193
f 161 195 162
f 161 193 195
f 162 196 197
f 162 197 163
f 162 195 196
f 163 197 198
f 163 198 164
f 164 198 199
f 164 199 165
f 165 199 200
f 165 200 201
f 165 201 167
f 165 167 166
f 167 201 202
f 167 202 170
f 168 171 203
f 168 203 204
f 168 204 169
f 169 204 205
f 169 205 172
f 170 202 206
f 170 206 171
f 171 206 207
f 171 207 208
f 171 208 209
f 171 209 203
f 172 205 210
f 172 210 173
f 173 211 174
f 173 210 211
f 174 211 212
f 174 212 175
f 175 177 176
f 175 212 213
f 175 213 177
f 177 213 178
f 178 213 179
f 179 213 214
f 179 214 215
f 179 215 216
f 179 216 180
f 180 216 181
f 181 216 182
f 182 216 217
f 182 217 183
f 183 217 218
f 183 218 219
f 183 219 184
f 184 219 220
f 184 220 221
f 184 221 222
f 184 222 223
f 184 223 224
f 184 224 225
f 184 225 226
f 184 226 227
f 184 227 185
f 186 188 228
f 187 229 268
f 187 268 223
f 187 223 267
f 187 267 266
f 187 266 307
f 187 307 342
f 187 342 341
f 187 341 340
f 187 340 383
f 187 383 382
f 187 382 381
f 187 381 430
f 187 430 379
f 187 379 429
f 187 429 469
f 187 469 468
f 187 468 424
f 187 424 467
f 187 467 466
f 187 466 465
f 187 465 507
f 187 507 557
f 187 557 558
f 187 558 598
f 187 598 629
f 187 629 587
f 187 587 628
f 187 628 627
f 187 627 626
f 187 626 684
f 187 684 721
f 187 721 730
f 187 730 729
f 187 729 726
f 187 726 694
f 187 694 641
f 187 641 640
f 187 640 638
f 187 638 599
f 187 599 559
f 187 559 512
f 187 512 471
f 187 471 431
f 187 431 384
f 187 384 343
f 187 343 309
f 187 309 275
f 187 275 273
f 187 273 230
f 187 230 188
f 188 230 231
f 188 231 228
f 190 191 232
f 190 232 233
f 190 233 234
f 190 234 235
f 190 235 192
f 191 236 232
f 192 235 237
f 192 237 194
f 193 238 239
f 193 239 195
f 193 194 237
f 193 237 238
f 195 239 240
f 195 240 196
f 196 240 241
f 196 241 197
f 197 241 198
f 198 242 199
f 198 241 242
f 199 243 202
f 199 202 200
f 199 242 243
f 200 202 201
f 202 244 206
f 202 243 244
f 203 209 245
f 203 245 246
f 203 246 247
f 203 247 248
f 203 248 204
f 204 248 210
f 204 210 205
f 206 244 249
f 206 249 207
f 207 250 251
f 207 251 208
f 207 249 250
f 208 251 252
f 208 252 209
f 209 252 245
f 210 253 254
f 210 254 255
f 210 255 211
f 210 248 253
f 211 255 213
f 211 213 212
f 213 254 256
f 213 256 257
f 213 257 214
f 213 255 254
f 214 258 215
f 214 257 259
f 214 259 219
f 214 219 258
f 215 258 216
f 216 258 260
f 216 260 217
f 217 260 218
f 218 260 219
f 219 259 261
f 219 261 262
f 219 262 263
f 219 263 220
f 219 260 258
f 220 263 264
f 220 264 265
f 220 265 266
f 220 266 221
f 221 266 222
f 222 266 267
f 222 267 223
f 223 268 224
f 224 268 269
f 224 269 270
f 224 270 271
f 224 271 272
f 224 272 227
f 224 227 225
f 225 227 226
f 229 269 268
f 230 273 231
f 231 273 275
f 231 275 274
f 232 276 233
f 232 236 277
f 232 277 276
f 233 276 278
f 233 278 234
f 234 278 279
f 234 279 280
f 234 280 281
f 234 281 282
f 234 282 235
f 235 282 237
f 237 282 238
f 238 283 284
f 238 284 239
f 238 282 283
f 239 284 285
f 239 285 240
f 240 285 286
f 240 286 241
f 241 286 242
f 242 287 243
f 242 286 287
f 243 287 249
f 243 249 244
f 245 288 289
f 245 289 290
f 245 290 246
f 245 252 291
f 245 291 288
f 246 290 292
f 246 292 248
f 246 248 247
f 248 292 293
f 248 293 294
f 248 294 253
f 249 287 250
f 250 295 296
f 250 296 251
f 250 287 297
f 250 297 295
f 251 296 298
f 251 298 252
f 252 298 291
f 253 294 254
f 254 294 299
f 254 299 300
f 254 300 301
f 254 301 256
f 256 301 257
f 257 301 302
f 257 302 259
f 259 302 303
f 259 303 304
f 259 304 305
f 259 305 261
f 261 305 262
f 262 306 265
f 262 265 264
f 262 264 263
f 262 305 306
f 265 306 307
f 265 307 266
f 270 272 271
f 274 275 308
f 275 309 310
f 275 310 308
f 276 277 311
f 276 311 312
f 276 312 278
f 278 312 313
f 278 313 279
f 279 313 314
f 279 314 315
f 279 315 280
f 280 315 316
f 280 316 281
f 281 316 317
f 281 317 283
f 281 283 282
f 283 317 284
f 284 318 285
f 284 317 319
f 284 319 318
f 285 320 321
f 285 321 286
f 285 318 320
f 286 321 322
f 286 322 287
f 287 322 297
f 288 323 324
f 288 324 290
f 288 290 289
f 288 291 325
f 288 325 323
f 290 293 292
f 290 324 326
f 290 326 293
f 291 298 325
f 293 326 327
f 293 327 294
f 294 327 299
f 295 297 328
f 295 328 296
f 296 329 298
f 296 328 329
f 297 322 330
f 297 330 328
f 298 331 325
f 298 329 331
f 299 332 333
f 299 333 334
f 299 334 300
f 299 327 332
f 300 334 335
f 300 335 301
f 301 336 302
f 301 335 337
f 301 337 336
f 302 336 337
f 302 337 304
f 302 304 303
f 304 337 338
f 304 338 339
f 304 339 305
f 305 339 340
f 305 340 341
f 305 341 306
f 306 341 342
f 306 342 307
f 309 343 310
f 310 343 344
f 313 345 314
f 314 346 315
f 314 345 347
f 314 347 346
f 315 346 348
f 315 348 316
f 316 348 349
f 316 349 317
f 317 349 319
f 318 350 351
f 318 351 320
f 318 319 352
f 318 352 350
f 319 349 352
f 320 351 353
f 320 353 321
f 321 353 322
f 322 354 330
f 322 353 354
f 323 355 356
f 323 356 357
f 323 357 358
f 323 358 324
f 323 325 359
f 323 359 355
f 324 358 360
f 324 360 326
f 325 361 359
f 325 331 362
f 325 362 361
f 326 332 327
f 326 360 363
f 326 363 332
f 328 330 364
f 328 364 329
f 329 365 362
f 329 362 331
f 329 364 365
f 330 366 364
f 330 354 367
f 330 367 366
f 332 363 368
f 332 368 369
f 332 369 370
f 332 370 371
f 332 371 333
f 333 371 372
f 333 372 334
f 334 372 373
f 334 373 335
f 335 373 374
f 335 374 375
f 335 375 337
f 337 376 377
f 337 377 378
f 337 378 338
f 337 375 376
f 338 378 379
f 338 379 380
f 338 380 339
f 339 380 381
f 339 381 382
f 339 382 383
f 339 383 340
f 343 384 385
f 343 385 344
f 346 386 348
f 346 347 387
f 346 387 388
f 346 388 386
f 348 386 389
f 348 389 390
f 348 390 349
f 349 390 352
f 350 391 351
f 350 352 391
f 351 392 394
f 351 394 353
f 351 391 392
f 352 393 391
f 352 390 393
f 353 394 367
f 353 367 354
f 355 359 395
f 355 395 356
f 356 396 357
f 356 395 397
f 356 397 398
f 356 398 399
f 356 399 400
f 356 400 401
f 356 401 402
f 356 402 403
f 356 403 404
f 356 404 405
f 356 405 396
f 357 396 406
f 357 406 360
f 357 360 358
f 359 361 395
f 360 406 407
f 360 407 408
f 360 408 368
f 360 368 363
f 361 362 397
f 361 397 395
f 362 365 397
f 364 366 365
f 365 409 410
f 365 410 411
f 365 411 398
f 365 398 397
f 365 366 367
f 365 367 412
f 365 412 413
f 365 413 414
f 365 414 415
f 365 415 416
f 365 416 417
f 365 417 418
f 365 418 419
f 365 419 420
f 365 420 409
f 367 394 421
f 367 421 413
f 367 413 412
f 368 408 369
f 369 408 371
f 369 371 370
f 371 422 423
f 371 423 424
f 371 424 425
f 371 425 426
f 371 426 379
f 371 379 378
f 371 378 427
f 371 427 376
f 371 376 374
f 371 374 372
f 371 408 428
f 371 428 422
f 372 374 373
f 374 376 375
f 376 427 377
f 377 427 378
f 379 430 380
f 379 426 429
f 380 430 381
f 384 431 385
f 385 431 432
f 386 388 433
f 386 433 434
f 386 434 389
f 388 435 433
f 389 434 390
f 390 434 436
f 390 436 393
f 391 437 438
f 391 438 392
f 391 393 436
f 391 436 439
f 391 439 437
f 392 438 421
f 392 421 394
f 396 405 440
f 396 440 441
f 396 441 406
f 398 411 399
f 399 411 400
f 400 411 442
f 400 442 401
f 401 442 402
f 402 442 443
f 402 443 403
f 403 443 444
f 403 444 445
f 403 445 446
f 403 446 447
f 403 447 404
f 404 448 405
f 404 447 448
f 405 448 449
f 405 449 450
f 405 450 451
f 405 451 440
f 406 441 452
f 406 452 407
f 407 452 408
f 408 452 428
f 409 420 454
f 409 454 410
f 410 453 411
f 410 454 455
f 410 455 453
f 411 453 456
f 411 456 457
f 411 457 442
f 413 421 415
f 413 415 414
f 415 421 458
f 415 458 459
f 415 459 416
f 416 459 460
f 416 460 461
f 416 461 417
f 417 461 418
f 418 461 419
f 419 461 462
f 419 462 463
f 419 463 455
f 419 455 454
f 419 454 420
f 421 438 484
f 421 484 458
f 422 428 464
f 422 464 465
f 422 465 466
f 422 466 467
f 422 467 423
f 423 467 424
f 424 468 425
f 425 468 426
f 426 468 469
f 426 469 429
f 428 452 440
f 428 440 470
f 428 470 464
f 431 471 472
f 431 472 432
f 433 473 474
f 433 474 434
f 433 435 475
f 433 475 473
f 434 474 436
f 436 474 476
f 436 476 477
f 436 477 478
f 436 478 479
f 436 479 480
f 436 480 481
f 436 481 482
f 436 482 437
f 436 437 439
f 437 483 438
f 437 482 483
f 438 483 484
f 440 451 485
f 440 485 470
f 440 452 441
f 442 486 443
f 442 457 486
f 443 487 488
f 443 488 444
f 443 486 489
f 443 489 487
f 444 488 445
f 445 488 490
f 445 490 446
f 446 490 450
f 446 450 449
f 446 449 447
f 447 449 448
f 450 491 492
f 450 492 493
f 450 493 485
f 450 485 494
f 450 494 451
f 450 490 491
f 451 494 485
f 453 495 496
f 453 496 456
f 453 455 497
f 453 497 498
f 453 498 495
f 455 463 497
f 456 496 486
f 456 486 457
f 458 484 499
f 458 499 459
f 459 499 549
f 459 549 500
f 459 500 460
f 460 500 501
f 460 501 502
f 460 502 503
f 460 503 461
f 461 503 462
f 462 503 463
f 463 503 504
f 463 504 505
f 463 505 498
f 463 498 497
f 464 506 465
f 464 470 506
f 465 506 508
f 465 508 507
f 470 485 509
f 470 509 510
f 470 510 511
f 470 511 508
f 470 508 506
f 471 512 513
f 471 513 472
f 473 475 514
f 473 514 515
f 473 515 474
f 474 515 516
f 474 516 517
f 474 517 476
f 476 517 518
f 476 518 519
f 476 519 520
f 476 520 477
f 477 521 478
f 477 520 519
f 477 519 522
f 477 522 523
f 477 523 524
f 477 524 525
f 477 525 521
f 478 521 526
f 478 526 479
f 479 526 480
f 480 526 527
f 480 527 481
f 481 527 528
f 481 528 529
f 481 529 482
f 482 529 483
f 483 529 499
f 483 499 484
f 485 493 530
f 485 530 509
f 486 531 489
f 486 496 531
f 487 489 532
f 487 532 533
f 487 533 534
f 487 534 535
f 487 535 488
f 488 535 536
f 488 536 490
f 489 531 532
f 490 536 537
f 490 537 491
f 491 537 538
f 491 538 492
f 492 539 493
f 492 538 540
f 492 540 541
f 492 541 542
f 492 542 539
f 493 539 530
f 495 543 544
f 495 544 545
f 495 545 531
f 495 531 496
f 495 498 546
f 495 546 543
f 498 505 547
f 498 547 546
f 499 548 549
f 499 529 548
f 500 549 551
f 500 551 501
f 501 550 502
f 501 551 593
f 501 593 550
f 502 550 552
f 502 552 553
f 502 553 503
f 503 553 504
f 504 553 505
f 505 554 547
f 505 553 555
f 505 555 556
f 505 556 554
f 507 508 557
f 508 511 557
f 509 558 510
f 509 530 539
f 509 539 558
f 510 558 511
f 511 558 557
f 512 559 560
f 512 560 561
f 512 561 513
f 513 562 603
f 513 603 563
f 513 561 562
f 518 564 519
f 519 564 522
f 521 565 566
f 521 566 526
f 521 525 567
f 521 567 568
f 521 568 565
f 523 569 524
f 524 569 570
f 524 570 525
f 525 570 567
f 526 571 528
f 526 528 527
f 526 566 571
f 528 572 548
f 528 548 529
f 528 571 572
f 531 573 532
f 531 545 544
f 531 544 573
f 532 574 575
f 532 575 533
f 532 573 576
f 532 576 574
f 533 575 534
f 534 575 577
f 534 577 578
f 534 578 535
f 535 578 536
f 536 579 537
f 536 578 579
f 537 580 581
f 537 581 582
f 537 582 538
f 537 579 580
f 538 582 583
f 538 583 540
f 539 542 584
f 539 584 558
f 540 583 541
f 541 585 586
f 541 586 542
f 541 583 587
f 541 587 585
f 542 586 584
f 543 588 544
f 543 546 547
f 543 547 588
f 544 588 589
f 544 589 590
f 544 590 576
f 544 576 573
f 547 554 591
f 547 591 588
f 548 592 551
f 548 551 549
f 548 572 592
f 550 593 634
f 550 634 594
f 550 594 552
f 551 592 593
f 552 595 555
f 552 555 553
f 552 594 595
f 554 556 591
f 555 596 556
f 555 595 597
f 555 597 596
f 556 596 591
f 558 584 598
f 559 599 600
f 559 600 560
f 560 600 561
f 561 600 601
f 561 601 602
f 561 602 562
f 562 602 649
f 562 649 603
f 563 603 605
f 563 605 606
f 563 606 604
f 565 607 608
f 565 608 566
f 565 568 609
f 565 609 607
f 566 608 610
f 566 610 572
f 566 572 571
f 567 611 568
f 567 570 612
f 567 612 611
f 568 611 613
f 568 613 609
f 572 614 592
f 572 610 614
f 574 576 615
f 574 615 577
f 574 577 575
f 576 616 617
f 576 617 615
f 576 590 616
f 577 618 619
f 577 619 620
f 577 620 578
f 577 615 618
f 578 620 579
f 579 620 621
f 579 621 580
f 580 621 581
f 581 621 622
f 581 622 623
f 581 623 582
f 582 624 625
f 582 625 583
f 582 623 624
f 583 625 626
f 583 626 627
f 583 627 628
f 583 628 587
f 584 586 585
f 584 585 598
f 585 587 629
f 585 629 598
f 588 630 589
f 588 591 630
f 589 630 616
f 589 616 590
f 591 596 631
f 591 631 632
f 591 632 630
f 592 633 593
f 592 614 633
f 593 633 634
f 594 634 690
f 594 690 635
f 594 635 595
f 595 635 597
f 596 636 631
f 596 597 636
f 597 635 637
f 597 637 636
f 599 638 639
f 599 639 600
f 600 639 638
f 600 638 640
f 600 640 641
f 600 641 642
f 600 642 643
f 600 643 644
f 600 644 645
f 600 645 646
f 600 646 647
f 600 647 648
f 600 648 649
f 600 649 602
f 600 602 601
f 603 649 650
f 603 650 651
f 603 651 652
f 603 652 653
f 603 653 654
f 603 654 605
f 604 606 656
f 604 656 655
f 605 654 657
f 605 657 658
f 605 658 606
f 606 658 659
f 606 659 660
f 606 660 656
f 607 609 661
f 607 661 662
f 607 662 663
f 607 663 608
f 608 663 664
f 608 664 665
f 608 665 614
f 608 614 610
f 609 613 661
f 611 612 666
f 611 666 613
f 613 667 668
f 613 668 661
f 613 666 669
f 613 669 670
f 613 670 667
f 614 665 633
f 615 617 618
f 616 671 672
f 616 672 673
f 616 673 618
f 616 618 617
f 616 630 674
f 616 674 675
f 616 675 671
f 618 676 677
f 618 677 678
f 618 678 619
f 618 673 716
f 618 716 676
f 619 678 679
f 619 679 680
f 619 680 620
f 620 680 681
f 620 681 621
f 621 681 622
f 622 681 623
f 623 681 624
f 624 682 683
f 624 683 625
f 624 681 682
f 625 683 684
f 625 684 626
f 630 632 685
f 630 685 686
f 630 686 674
f 631 636 632
f 632 636 687
f 632 687 688
f 632 688 685
f 633 689 634
f 633 665 689
f 634 689 690
f 635 691 637
f 635 690 724
f 635 724 691
f 636 692 687
f 636 637 692
f 637 691 705
f 637 705 693
f 637 693 692
f 641 694 642
f 642 695 696
f 642 696 643
f 642 694 695
f 643 696 644
f 644 696 645
f 645 696 697
f 645 697 698
f 645 698 646
f 646 698 647
f 647 699 700
f 647 700 648
f 647 698 699
f 648 700 701
f 648 701 649
f 649 701 702
f 649 702 703
f 649 703 704
f 649 704 650
f 650 704 693
f 650 693 705
f 650 705 706
f 650 706 651
f 651 706 707
f 651 707 652
f 652 707 708
f 652 708 653
f 653 708 657
f 653 657 654
f 655 656 660
f 655 660 709
f 657 708 710
f 657 710 711
f 657 711 659
f 657 659 658
f 659 711 712
f 659 712 660
f 660 712 709
f 661 668 712
f 661 712 662
f 662 712 711
f 662 711 713
f 662 713 714
f 662 714 664
f 662 664 663
f 664 714 665
f 665 714 715
f 665 715 689
f 667 670 709
f 667 709 668
f 668 709 712
f 671 700 672
f 671 675 700
f 672 700 673
f 673 700 716
f 674 686 717
f 674 717 675
f 675 717 700
f 676 699 698
f 676 698 677
f 676 716 699
f 677 698 697
f 677 697 696
f 677 696 678
f 678 696 679
f 679 696 695
f 679 695 718
f 679 718 719
f 679 719 680
f 680 719 681
f 681 719 682
f 682 719 683
f 683 720 721
f 683 721 684
f 683 719 720
f 685 722 686
f 685 688 723
f 685 723 722
f 686 722 717
f 687 692 688
f 688 692 703
f 688 703 702
f 688 702 723
f 689 715 690
f 690 715 725
f 690 725 724
f 691 724 705
f 692 693 704
f 692 704 703
f 694 726 695
f 695 726 718
f 699 716 700
f 700 717 727
f 700 727 701
f 701 723 702
f 701 727 723
f 705 724 706
f 706 724 707
f 707 724 725
f 707 725 708
f 708 725 728
f 708 728 710
f 710 728 711
f 711 728 713
f 713 728 714
f 714 728 715
f 715 728 725
f 717 722 727
f 718 726 729
f 718 729 719
f 719 729 730
f 719 730 720
f 720 730 721
f 722 723 727

