# https://github.com/mikedh/trimesh
v -0.00901168 -0.00430001 -0.00597558
v -0.00343359 -0.00919363 -0.00597558
v -0.01086401 -0.00430001 -0.00597558
v -0.01074175 -0.00430001 -0.00128407
v -0.00338082 -0.00924220 -0.00597558
v -0.01086137 -0.00430735 -0.00597558
v -0.01089655 -0.00430001 -0.00592093
v -0.01232229 -0.00430001 -0.00128407
v -0.00695178 -0.00894683 -0.00128407
v -0.00682337 -0.00910723 -0.00128407
v -0.00675300 -0.00923599 -0.00128407
v -0.00333772 -0.00941502 -0.00597558
v -0.01067051 -0.00475634 -0.00597558
v -0.01088599 -0.00434858 -0.00590348
v -0.01096427 -0.00430001 -0.00579510
v -0.01228008 -0.00430001 -0.00167718
v -0.01222378 -0.00447113 -0.00167718
v -0.01229151 -0.00439150 -0.00128407
v -0.00673101 -0.00941445 -0.00128407
v -0.00333860 -0.00950651 -0.00597558
v -0.00673101 -0.00955000 -0.00128407
v -0.00673189 -0.00967311 -0.00128407
v -0.01064060 -0.00489357 -0.00592598
v -0.01058959 -0.00494214 -0.00597558
v -0.01093173 -0.00445532 -0.00573127
v -0.01106894 -0.00430001 -0.00558431
v -0.01225017 -0.00430001 -0.00193526
v -0.01220795 -0.00442878 -0.00193526
v -0.01217541 -0.00459990 -0.00167718
v -0.01219740 -0.00465525 -0.00128407
v -0.01224665 -0.00452253 -0.00128407
v -0.00334388 -0.00972338 -0.00597558
v -0.00673717 -0.00976799 -0.00128407
v -0.01061070 -0.00503081 -0.00587133
v -0.01067930 -0.00503081 -0.00574229
v -0.01054561 -0.00503759 -0.00597558
v -0.01108653 -0.00430001 -0.00554849
v -0.01064940 -0.00517030 -0.00568489
v -0.01089479 -0.00462701 -0.00565917
v -0.01224401 -0.00430001 -0.00198165
v -0.01219652 -0.00439885 -0.00208681
v -0.01215958 -0.00455754 -0.00193526
v -0.01207074 -0.00477271 -0.00193526
v -0.01210329 -0.00477271 -0.00167718
v -0.01195816 -0.00521492 -0.00128407
v -0.01193090 -0.00515167 -0.00177499
v -0.01180160 -0.00554643 -0.00141955
v -0.00338522 -0.00983972 -0.00597558
v -0.00675564 -0.00989732 -0.00128407
v -0.01046909 -0.00519628 -0.00597558
v -0.01098186 -0.00453043 -0.00556227
v -0.01111204 -0.00452309 -0.00529270
v -0.01115426 -0.00430001 -0.00540429
v -0.01077605 -0.00503081 -0.00554528
v -0.01044270 -0.00524880 -0.00597558
v -0.01051746 -0.00529173 -0.00580658
v -0.01043215 -0.00549956 -0.00575653
v -0.01038465 -0.00567181 -0.00567019
v -0.01060366 -0.00534199 -0.00559212
v -0.01090271 -0.00541880 -0.00490190
v -0.01102584 -0.00528834 -0.00477147
v -0.01090183 -0.00515957 -0.00515861
v -0.01221411 -0.00430001 -0.00215156
v -0.01218508 -0.00430001 -0.00228841
v -0.01217805 -0.00434181 -0.00225856
v -0.01202589 -0.00430001 -0.00301859
v -0.01195113 -0.00442595 -0.00316646
v -0.01213847 -0.00449655 -0.00218095
v -0.01202413 -0.00477271 -0.00219335
v -0.01167319 -0.00566898 -0.00204364
v -0.01192034 -0.00512682 -0.00193526
v -0.01185789 -0.00544873 -0.00128407
v -0.01172948 -0.00556846 -0.00194858
v -0.01168550 -0.00569327 -0.00187189
v -0.01177258 -0.00554643 -0.00167718
v -0.01177346 -0.00564018 -0.00128407
v -0.01181568 -0.00554643 -0.00128407
v -0.01169694 -0.00571586 -0.00167718
v -0.00353738 -0.01000632 -0.00597558
v -0.00691484 -0.01001987 -0.00128407
v -0.00676971 -0.01006449 -0.00150359
v -0.01118856 -0.00470890 -0.00496022
v -0.01136007 -0.00451575 -0.00477010
v -0.01143659 -0.00442991 -0.00468330
v -0.01139701 -0.00433164 -0.00485505
v -0.01138030 -0.00430001 -0.00491797
v -0.01112435 -0.00504945 -0.00478617
v -0.01092997 -0.00503081 -0.00521739
v -0.01041280 -0.00530641 -0.00597558
v -0.01038377 -0.00541315 -0.00592828
v -0.01016477 -0.00599937 -0.00574091
v -0.01011639 -0.00617105 -0.00565182
v -0.01047261 -0.00607448 -0.00504058
v -0.01060718 -0.00582147 -0.00505161
v -0.01067930 -0.00548036 -0.00528765
v -0.01064588 -0.00542106 -0.00542037
v -0.01093437 -0.00547697 -0.00477147
v -0.01073735 -0.00582147 -0.00478709
v -0.01112435 -0.00530020 -0.00453130
v -0.01115514 -0.00514715 -0.00462911
v -0.01197048 -0.00430001 -0.00326612
v -0.01193002 -0.00437400 -0.00333867
v -0.01196520 -0.00451293 -0.00294190
v -0.01189659 -0.00451293 -0.00324132
v -0.01191506 -0.00459820 -0.00301078
v -0.01194937 -0.00467840 -0.00270907
v -0.01171277 -0.00550238 -0.00219335
v -0.01165648 -0.00563171 -0.00219335
v -0.01142076 -0.00568084 -0.00310722
v -0.01156676 -0.00580453 -0.00219335
v -0.01145770 -0.00600445 -0.00219335
v -0.01128355 -0.00632015 -0.00219335
v -0.01140669 -0.00617105 -0.00198808
v -0.01162217 -0.00578928 -0.00194858
v -0.01141988 -0.00619364 -0.00181586
v -0.01162833 -0.00584462 -0.00167718
v -0.01171892 -0.00575822 -0.00128407
v -0.01168374 -0.00582599 -0.00128407
v -0.00365084 -0.01006731 -0.00591863
v -0.00361478 -0.01006675 -0.00597558
v -0.00715056 -0.01002496 -0.00128407
v -0.00681457 -0.01006449 -0.00150359
v -0.00676092 -0.01006957 -0.00167764
v -0.01140053 -0.00460216 -0.00459559
v -0.01146825 -0.00451575 -0.00451109
v -0.01153686 -0.00430001 -0.00455655
v -0.01145858 -0.00430001 -0.00474576
v -0.01140317 -0.00430001 -0.00486837
v -0.01032924 -0.00545889 -0.00597558
v -0.01015597 -0.00577233 -0.00597558
v -0.01011639 -0.00591239 -0.00591266
v -0.01007769 -0.00607561 -0.00581714
v -0.00989738 -0.00622245 -0.00597558
v -0.00989123 -0.00623261 -0.00597558
v -0.00994136 -0.00631733 -0.00579648
v -0.01006714 -0.00632467 -0.00555768
v -0.01036794 -0.00641729 -0.00486516
v -0.01046293 -0.00632693 -0.00477607
v -0.01067842 -0.00599485 -0.00471177
v -0.01099066 -0.00556733 -0.00453267
v -0.01089743 -0.00566729 -0.00463141
v -0.01114986 -0.00539338 -0.00435495
v -0.01118680 -0.00522170 -0.00445690
v -0.01194145 -0.00430001 -0.00337495
v -0.01191418 -0.00430001 -0.00345853
v -0.01165472 -0.00430001 -0.00422683
v -0.01166967 -0.00436948 -0.00411018
v -0.01169957 -0.00444120 -0.00393797
v -0.01182447 -0.00451462 -0.00348287
v -0.01168550 -0.00492350 -0.00338092
v -0.01179017 -0.00477271 -0.00322478
v -0.01166967 -0.00514376 -0.00306635
v -0.01171013 -0.00523807 -0.00270907
v -0.01165472 -0.00536684 -0.00270907
v -0.01163185 -0.00528043 -0.00297496
v -0.01151575 -0.00554643 -0.00296716
v -0.01139701 -0.00589432 -0.00270907
v -0.01145858 -0.00554869 -0.00320596
v -0.01139877 -0.00563623 -0.00327897
v -0.01133984 -0.00578137 -0.00320596
v -0.01103728 -0.00632015 -0.00322478
v -0.01095636 -0.00658728 -0.00295384
v -0.01111468 -0.00662512 -0.00219335
v -0.01113930 -0.00666917 -0.00193526
v -0.01121055 -0.00654040 -0.00193526
v -0.01134864 -0.00629586 -0.00191552
v -0.01147001 -0.00607561 -0.00191552
v -0.01141372 -0.00631789 -0.00128407
v -0.01150871 -0.00606205 -0.00167718
v -0.01115250 -0.00669345 -0.00174101
v -0.01165120 -0.00588698 -0.00128407
v -0.00469047 -0.01006788 -0.00513978
v -0.00477226 -0.01006788 -0.00521096
v -0.00375990 -0.01006731 -0.00597558
v -0.00683040 -0.01006957 -0.00167764
v -0.00728249 -0.00999502 -0.00128407
v -0.00716287 -0.01001705 -0.00141955
v -0.00680929 -0.01006731 -0.00193526
v -0.01143219 -0.00467614 -0.00442338
v -0.01155973 -0.00451462 -0.00425576
v -0.01155269 -0.00430001 -0.00451339
v -0.01004251 -0.00597395 -0.00597558
v -0.00964143 -0.00659406 -0.00597558
v -0.00937493 -0.00699334 -0.00596134
v -0.00960537 -0.00669741 -0.00592185
v -0.00983757 -0.00640147 -0.00587776
v -0.00988771 -0.00647489 -0.00570555
v -0.01010584 -0.00641390 -0.00537261
v -0.01041104 -0.00648732 -0.00469295
v -0.01063093 -0.00616654 -0.00460891
v -0.01093085 -0.00572772 -0.00445966
v -0.01110412 -0.00554304 -0.00426357
v -0.01117888 -0.00545494 -0.00418274
v -0.01137150 -0.00554869 -0.00349527
v -0.01144011 -0.00546454 -0.00341720
v -0.01141020 -0.00539960 -0.00358941
v -0.01135127 -0.00501443 -0.00424198
v -0.01163977 -0.00452196 -0.00401374
v -0.01156940 -0.00528834 -0.00322478
v -0.01165032 -0.00509971 -0.00322478
v -0.01123342 -0.00581752 -0.00348930
v -0.01117888 -0.00596831 -0.00340756
v -0.01091238 -0.00646755 -0.00338230
v -0.01093349 -0.00650708 -0.00322478
v -0.01088599 -0.00667933 -0.00303099
v -0.01090710 -0.00671491 -0.00285924
v -0.01097659 -0.00685384 -0.00219748
v -0.01103903 -0.00683577 -0.00193526
v -0.01122990 -0.00664884 -0.00128407
v -0.01117185 -0.00672677 -0.00141955
v -0.01109005 -0.00681262 -0.00166386
v -0.01110236 -0.00686966 -0.00128407
v -0.00450664 -0.01006731 -0.00546078
v -0.00376606 -0.01006731 -0.00597558
v -0.00527976 -0.01006788 -0.00470029
v -0.00502733 -0.01006731 -0.00495884
v -0.00494377 -0.01005602 -0.00513059
v -0.00654983 -0.01006618 -0.00270907
v -0.00604409 -0.01006788 -0.00368310
v -0.00742058 -0.00996340 -0.00128407
v -0.00742058 -0.00995831 -0.00141955
v -0.00716287 -0.01000462 -0.00167764
v -0.00716287 -0.00998881 -0.00193526
v -0.00716287 -0.00997243 -0.00219335
v -0.00688581 -0.01003399 -0.00218784
v -0.00678643 -0.01006167 -0.00209829
v -0.00938197 -0.00696906 -0.00597558
v -0.00941539 -0.00708539 -0.00578867
v -0.00935558 -0.00700689 -0.00597558
v -0.00931160 -0.00716559 -0.00586490
v -0.00959746 -0.00694308 -0.00564539
v -0.00982878 -0.00664714 -0.00559488
v -0.00992113 -0.00656751 -0.00552370
v -0.01030813 -0.00657542 -0.00477607
v -0.01043742 -0.00657542 -0.00449134
v -0.01061685 -0.00639922 -0.00430811
v -0.01058255 -0.00631563 -0.00451890
v -0.01012167 -0.00695550 -0.00462682
v -0.01035299 -0.00665900 -0.00456252
v -0.01066435 -0.00622696 -0.00443670
v -0.01096339 -0.00581017 -0.00425071
v -0.01113403 -0.00562719 -0.00405416
v -0.01116481 -0.00568423 -0.00388240
v -0.01064764 -0.00645456 -0.00413590
v -0.01082355 -0.00656356 -0.00347415
v -0.01086137 -0.00663585 -0.00322478
v -0.01072240 -0.00685215 -0.00322616
v -0.01081739 -0.00681488 -0.00295384
v -0.01091502 -0.00698317 -0.00211436
v -0.01093085 -0.00700633 -0.00193526
v -0.01094932 -0.00703287 -0.00167718
v -0.01117888 -0.00674033 -0.00128407
v -0.01113930 -0.00680810 -0.00128407
v -0.01097395 -0.00706789 -0.00128407
v -0.00485230 -0.01004359 -0.00529316
v -0.00458844 -0.01004020 -0.00554620
v -0.00440197 -0.01005263 -0.00563299
v -0.00422958 -0.01006449 -0.00569774
v -0.00432369 -0.00999954 -0.00597558
v -0.00552691 -0.01006731 -0.00443348
v -0.00519972 -0.01005545 -0.00487205
v -0.00510825 -0.01004472 -0.00503875
v -0.00510033 -0.01000632 -0.00528765
v -0.00652168 -0.01006054 -0.00284454
v -0.00629652 -0.01006618 -0.00322478
v -0.00690604 -0.01001140 -0.00245144
v -0.00690604 -0.00998994 -0.00270907
v -0.00626397 -0.01006054 -0.00336026
v -0.00638975 -0.00999333 -0.00373958
v -0.00613028 -0.01004246 -0.00375703
v -0.00613116 -0.01001310 -0.00399767
v -0.00576175 -0.01006336 -0.00415014
v -0.00767829 -0.00989167 -0.00128407
v -0.00742058 -0.00994589 -0.00167764
v -0.00716287 -0.00995549 -0.00245144
v -0.00936526 -0.00723618 -0.00569315
v -0.00926499 -0.00712662 -0.00597558
v -0.00916032 -0.00725878 -0.00597558
v -0.00914537 -0.00727741 -0.00597558
v -0.00921749 -0.00734010 -0.00579005
v -0.00980679 -0.00709782 -0.00504288
v -0.00954029 -0.00709443 -0.00555400
v -0.00989035 -0.00725087 -0.00468055
v -0.01038817 -0.00671040 -0.00439077
v -0.01062653 -0.00667877 -0.00382270
v -0.01054737 -0.00655565 -0.00423555
v -0.00992641 -0.00730396 -0.00451385
v -0.01025536 -0.00683295 -0.00450879
v -0.00983669 -0.00743272 -0.00451385
v -0.01065907 -0.00672903 -0.00365095
v -0.01069073 -0.00677591 -0.00348287
v -0.01063356 -0.00694872 -0.00331296
v -0.01065643 -0.00698261 -0.00314120
v -0.01067842 -0.00701480 -0.00296716
v -0.01043655 -0.00747451 -0.00266360
v -0.01037058 -0.00771623 -0.00225948
v -0.01039169 -0.00774729 -0.00208773
v -0.01060718 -0.00747451 -0.00193526
v -0.01063356 -0.00747451 -0.00175341
v -0.01065731 -0.00747451 -0.00156283
v -0.01040048 -0.00789469 -0.00128407
v -0.00510033 -0.00996227 -0.00554528
v -0.00484175 -0.01000180 -0.00554528
v -0.00458404 -0.00999559 -0.00580337
v -0.00484175 -0.00995719 -0.00580337
v -0.00432018 -0.01003456 -0.00579143
v -0.00458404 -0.00996340 -0.00597558
v -0.00561575 -0.01000067 -0.00477147
v -0.00535804 -0.01000575 -0.00502956
v -0.00536244 -0.01004246 -0.00478020
v -0.00569931 -0.01005150 -0.00432235
v -0.00587434 -0.00999220 -0.00451385
v -0.00587434 -0.00995549 -0.00477147
v -0.00535804 -0.00996509 -0.00528765
v -0.00642669 -0.01004133 -0.00322478
v -0.00690604 -0.00996679 -0.00296670
v -0.00662371 -0.01002947 -0.00294511
v -0.00664746 -0.00999672 -0.00322478
v -0.00664746 -0.00996961 -0.00348287
v -0.00638975 -0.00996283 -0.00399767
v -0.00613204 -0.00997921 -0.00425392
v -0.00786739 -0.00982560 -0.00128407
v -0.00767829 -0.00988433 -0.00141955
v -0.00742058 -0.00992838 -0.00193526
v -0.00767829 -0.00986965 -0.00167764
v -0.00742058 -0.00988433 -0.00245144
v -0.00716287 -0.00993234 -0.00270907
v -0.00958251 -0.00718027 -0.00536021
v -0.00914361 -0.00747451 -0.00573127
v -0.00912250 -0.00751179 -0.00571474
v -0.00919199 -0.00747451 -0.00564907
v -0.00925619 -0.00747451 -0.00553839
v -0.00930105 -0.00741578 -0.00554528
v -0.00933271 -0.00747451 -0.00540292
v -0.00961681 -0.00747451 -0.00489409
v -0.00962824 -0.00724409 -0.00518800
v -0.00912866 -0.00729718 -0.00597558
v -0.00906621 -0.00744402 -0.00588649
v -0.00904950 -0.00747451 -0.00587317
v -0.00975138 -0.00736495 -0.00478938
v -0.00969157 -0.00747451 -0.00474943
v -0.00965727 -0.00753720 -0.00472647
v -0.00976545 -0.00747451 -0.00459834
v -0.00986572 -0.00747451 -0.00437332
v -0.01009792 -0.00717858 -0.00430444
v -0.01041456 -0.00674767 -0.00425576
v -0.00969685 -0.00761796 -0.00450788
v -0.01060278 -0.00690467 -0.00348287
v -0.01040136 -0.00724409 -0.00339332
v -0.01010935 -0.00771284 -0.00328816
v -0.01029406 -0.00747451 -0.00322065
v -0.01013310 -0.00774616 -0.00311641
v -0.01034155 -0.00747451 -0.00304063
v -0.01028966 -0.00758464 -0.00294282
v -0.01015245 -0.00777270 -0.00296670
v -0.01029670 -0.00784725 -0.00218187
v -0.01015685 -0.00803249 -0.00219335
v -0.01031253 -0.00789469 -0.00193526
v -0.01040488 -0.00776593 -0.00193526
v -0.01042247 -0.00779134 -0.00167764
v -0.01034947 -0.00794383 -0.00141955
v -0.01035739 -0.00795625 -0.00128407
v -0.00535804 -0.00991709 -0.00554528
v -0.00484175 -0.00992161 -0.00597558
v -0.00510033 -0.00991144 -0.00580337
v -0.00561575 -0.00996114 -0.00502956
v -0.00613204 -0.00994250 -0.00451385
v -0.00613204 -0.00989958 -0.00477147
v -0.00587434 -0.00990975 -0.00502956
v -0.00561575 -0.00991596 -0.00528765
v -0.00690604 -0.00994194 -0.00322478
v -0.00664746 -0.00993855 -0.00373958
v -0.00638799 -0.00992725 -0.00425392
v -0.00664746 -0.00990297 -0.00399767
v -0.00785596 -0.00982108 -0.00141955
v -0.00799668 -0.00977533 -0.00128407
v -0.00783397 -0.00981204 -0.00167764
v -0.00781813 -0.00980583 -0.00184342
v -0.00769588 -0.00984197 -0.00193159
v -0.00716287 -0.00990240 -0.00296670
v -0.00763871 -0.00983576 -0.00219335
v -0.00760264 -0.00982164 -0.00245144
v -0.00743993 -0.00984706 -0.00271917
v -0.00887711 -0.00778456 -0.00573356
v -0.00880411 -0.00795682 -0.00561738
v -0.00904950 -0.00768404 -0.00559304
v -0.00885512 -0.00801724 -0.00544563
v -0.00902927 -0.00791615 -0.00528765
v -0.00930369 -0.00793535 -0.00477147
v -0.00955260 -0.00761796 -0.00479627
v -0.00897738 -0.00747451 -0.00597558
v -0.00857454 -0.00799014 -0.00592369
v -0.00958690 -0.00770945 -0.00458962
v -0.00934503 -0.00798505 -0.00462268
v -0.00962648 -0.00775633 -0.00441787
v -0.00980503 -0.00761457 -0.00425392
v -0.00986836 -0.00773712 -0.00386495
v -0.01007417 -0.00766427 -0.00348287
v -0.01020874 -0.00747451 -0.00348241
v -0.01046557 -0.00710460 -0.00348104
v -0.00994488 -0.00783426 -0.00348287
v -0.00986924 -0.00799635 -0.00335291
v -0.01000205 -0.00787097 -0.00323443
v -0.01005482 -0.00790147 -0.00296670
v -0.01009000 -0.00794665 -0.00270907
v -0.01011375 -0.00797828 -0.00252721
v -0.01013574 -0.00800821 -0.00235546
v -0.01003283 -0.00810704 -0.00244501
v -0.01005130 -0.00816126 -0.00219335
v -0.01018324 -0.00806468 -0.00193526
v -0.01033188 -0.00792067 -0.00167764
v -0.01020259 -0.00814206 -0.00139750
v -0.01028087 -0.00805791 -0.00128407
v -0.00537035 -0.00984649 -0.00581668
v -0.00563246 -0.00984875 -0.00556181
v -0.00510385 -0.00986682 -0.00597558
v -0.00638975 -0.00987981 -0.00451385
v -0.00638711 -0.00983011 -0.00475632
v -0.00629828 -0.00981374 -0.00494874
v -0.00613820 -0.00984085 -0.00503278
v -0.00588577 -0.00984593 -0.00529775
v -0.00690604 -0.00990975 -0.00348287
v -0.00690604 -0.00986965 -0.00373958
v -0.00690341 -0.00982898 -0.00397425
v -0.00669671 -0.00984197 -0.00425392
v -0.00666505 -0.00984875 -0.00426999
v -0.00796238 -0.00976234 -0.00167764
v -0.00819282 -0.00969853 -0.00128407
v -0.00773018 -0.00977307 -0.00245144
v -0.00819282 -0.00966972 -0.00167764
v -0.00791664 -0.00975839 -0.00193159
v -0.00793511 -0.00972281 -0.00219335
v -0.00716287 -0.00987021 -0.00322478
v -0.00757186 -0.00981035 -0.00264018
v -0.00753932 -0.00979792 -0.00281194
v -0.00737924 -0.00983350 -0.00296670
v -0.00863259 -0.00805282 -0.00575193
v -0.00870560 -0.00812116 -0.00553747
v -0.00878739 -0.00819797 -0.00528765
v -0.00889998 -0.00806920 -0.00528765
v -0.00912338 -0.00803023 -0.00495012
v -0.00859653 -0.00792011 -0.00597558
v -0.00855431 -0.00796811 -0.00597558
v -0.00850682 -0.00801950 -0.00597558
v -0.00829661 -0.00823016 -0.00597558
v -0.00831596 -0.00824823 -0.00592323
v -0.00847516 -0.00815053 -0.00583735
v -0.00854816 -0.00822508 -0.00562978
v -0.00938461 -0.00803419 -0.00445047
v -0.00909787 -0.00825614 -0.00464565
v -0.00927202 -0.00812229 -0.00452762
v -0.00966166 -0.00779699 -0.00425392
v -0.00942683 -0.00808445 -0.00425392
v -0.00955524 -0.00792745 -0.00425392
v -0.00966078 -0.00805734 -0.00373958
v -0.00959130 -0.00823129 -0.00356048
v -0.00962560 -0.00826913 -0.00338873
v -0.00979712 -0.00811777 -0.00325050
v -0.00989474 -0.00802684 -0.00318116
v -0.00992465 -0.00806468 -0.00296670
v -0.00994400 -0.00813641 -0.00268748
v -0.00987188 -0.00825670 -0.00258737
v -0.00989035 -0.00827703 -0.00245144
v -0.00992113 -0.00830979 -0.00219335
v -0.01007417 -0.00819345 -0.00193526
v -0.01011463 -0.00823976 -0.00146914
v -0.01013046 -0.00825670 -0.00128407
v -0.01020259 -0.00809010 -0.00167764
v -0.00529823 -0.00982051 -0.00597558
v -0.00555682 -0.00982108 -0.00573953
v -0.00580749 -0.00981995 -0.00548650
v -0.00572921 -0.00979736 -0.00565825
v -0.00658237 -0.00982221 -0.00451385
v -0.00676356 -0.00979792 -0.00436551
v -0.00653136 -0.00980583 -0.00466034
v -0.00662899 -0.00975274 -0.00475632
v -0.00647067 -0.00978606 -0.00483209
v -0.00638711 -0.00976573 -0.00503278
v -0.00622791 -0.00979228 -0.00512049
v -0.00605640 -0.00981769 -0.00521831
v -0.00716639 -0.00983294 -0.00346267
v -0.00681721 -0.00981600 -0.00419330
v -0.00707228 -0.00981487 -0.00373958
v -0.00720157 -0.00977082 -0.00373958
v -0.00698872 -0.00978606 -0.00404405
v -0.00819282 -0.00968893 -0.00141955
v -0.00842062 -0.00959574 -0.00128407
v -0.00841007 -0.00959122 -0.00141955
v -0.00793511 -0.00969401 -0.00245144
v -0.00819282 -0.00964487 -0.00193526
v -0.00838808 -0.00957993 -0.00167764
v -0.00732559 -0.00981430 -0.00322478
v -0.00729656 -0.00980357 -0.00336393
v -0.00766597 -0.00976404 -0.00271917
v -0.00767829 -0.00972451 -0.00296670
v -0.00745488 -0.00976743 -0.00322478
v -0.00860709 -0.00828042 -0.00545803
v -0.00882873 -0.00824484 -0.00514207
v -0.00904862 -0.00820192 -0.00481740
v -0.00824911 -0.00827477 -0.00597558
v -0.00844437 -0.00837756 -0.00553563
v -0.00837665 -0.00830245 -0.00575101
v -0.00931776 -0.00821322 -0.00425392
v -0.00856575 -0.00849898 -0.00513197
v -0.00861412 -0.00854360 -0.00496022
v -0.00879531 -0.00847244 -0.00477147
v -0.00887975 -0.00855207 -0.00446195
v -0.00912954 -0.00828889 -0.00451385
v -0.00934855 -0.00824766 -0.00411156
v -0.00965023 -0.00829510 -0.00322478
v -0.00984725 -0.00822846 -0.00275958
v -0.00981734 -0.00819345 -0.00296670
v -0.00936878 -0.00852666 -0.00338781
v -0.00939604 -0.00855489 -0.00322478
v -0.00952446 -0.00842387 -0.00322478
v -0.00976721 -0.00840636 -0.00245144
v -0.00979975 -0.00843855 -0.00219335
v -0.00969509 -0.00860120 -0.00193526
v -0.00994488 -0.00833520 -0.00193526
v -0.00996863 -0.00835836 -0.00167764
v -0.00987979 -0.00852214 -0.00128407
v -0.00987627 -0.00851931 -0.00132632
v -0.00532198 -0.00981430 -0.00597558
v -0.00552867 -0.00976008 -0.00597558
v -0.00563246 -0.00977872 -0.00581668
v -0.00588577 -0.00977759 -0.00556181
v -0.00587434 -0.00971603 -0.00580337
v -0.00688581 -0.00978042 -0.00425392
v -0.00690516 -0.00971829 -0.00451385
v -0.00664746 -0.00968158 -0.00502956
v -0.00638975 -0.00970022 -0.00528765
v -0.00613820 -0.00977307 -0.00529775
v -0.00725522 -0.00978945 -0.00353568
v -0.00713736 -0.00974766 -0.00397425
v -0.00742058 -0.00969344 -0.00373958
v -0.00716199 -0.00968384 -0.00425392
v -0.00848923 -0.00956073 -0.00128407
v -0.00816204 -0.00959405 -0.00245144
v -0.00793511 -0.00966069 -0.00270907
v -0.00836257 -0.00956581 -0.00193526
v -0.00855080 -0.00952684 -0.00128407
v -0.00851737 -0.00950820 -0.00167764
v -0.00739771 -0.00975048 -0.00346267
v -0.00767829 -0.00968328 -0.00322478
v -0.00865810 -0.00832786 -0.00528765
v -0.00833971 -0.00852778 -0.00544103
v -0.00824383 -0.00870286 -0.00528765
v -0.00838808 -0.00857409 -0.00528765
v -0.00829837 -0.00875143 -0.00511773
v -0.00851825 -0.00845719 -0.00528765
v -0.00816555 -0.00834876 -0.00597558
v -0.00866602 -0.00859217 -0.00477147
v -0.00852441 -0.00872150 -0.00477147
v -0.00892812 -0.00860346 -0.00425392
v -0.00856663 -0.00875934 -0.00461947
v -0.00879267 -0.00873110 -0.00425392
v -0.00905830 -0.00847583 -0.00425576
v -0.00918935 -0.00834706 -0.00425576
v -0.00943474 -0.00859612 -0.00296670
v -0.00922013 -0.00863791 -0.00347185
v -0.00910843 -0.00878023 -0.00338414
v -0.00926499 -0.00868422 -0.00322478
v -0.00908996 -0.00850632 -0.00411064
v -0.00882961 -0.00876329 -0.00410743
v -0.00930545 -0.00872488 -0.00296670
v -0.00947696 -0.00863565 -0.00268702
v -0.00963792 -0.00853908 -0.00245144
v -0.00967046 -0.00857409 -0.00219335
v -0.00956931 -0.00872997 -0.00193526
v -0.00959394 -0.00875312 -0.00167764
v -0.00960713 -0.00876668 -0.00152517
v -0.00971708 -0.00862436 -0.00167764
v -0.00962208 -0.00877910 -0.00135342
v -0.00967310 -0.00873674 -0.00128407
v -0.00562103 -0.00973524 -0.00597558
v -0.00613204 -0.00970926 -0.00554528
v -0.00587434 -0.00966295 -0.00597558
v -0.00615667 -0.00961664 -0.00582771
v -0.00690516 -0.00965504 -0.00477147
v -0.00718398 -0.00960986 -0.00453267
v -0.00690516 -0.00958670 -0.00501900
v -0.00666065 -0.00960252 -0.00529775
v -0.00640910 -0.00961099 -0.00556365
v -0.00742058 -0.00963810 -0.00399767
v -0.00767829 -0.00963866 -0.00348287
v -0.00768444 -0.00958727 -0.00372397
v -0.00733526 -0.00956524 -0.00445966
v -0.00833883 -0.00955338 -0.00212125
v -0.00812510 -0.00957597 -0.00270907
v -0.00809255 -0.00955903 -0.00290700
v -0.00795710 -0.00960647 -0.00298231
v -0.00883665 -0.00928512 -0.00205972
v -0.00870911 -0.00943648 -0.00128407
v -0.00890437 -0.00932466 -0.00128407
v -0.00870911 -0.00939808 -0.00167764
v -0.00885248 -0.00929472 -0.00188750
v -0.00796414 -0.00852496 -0.00597558
v -0.00806968 -0.00877402 -0.00542358
v -0.00811366 -0.00880565 -0.00528765
v -0.00820426 -0.00885478 -0.00503094
v -0.00834674 -0.00878927 -0.00494598
v -0.00861324 -0.00879492 -0.00444726
v -0.00933535 -0.00875312 -0.00277657
v -0.00907149 -0.00874860 -0.00355589
v -0.00873022 -0.00886833 -0.00401191
v -0.00882170 -0.00901574 -0.00331342
v -0.00885600 -0.00904171 -0.00314166
v -0.00913570 -0.00880339 -0.00322478
v -0.00866514 -0.00883219 -0.00425392
v -0.00854904 -0.00900613 -0.00399767
v -0.00936086 -0.00877628 -0.00260528
v -0.00951038 -0.00866841 -0.00245144
v -0.00954293 -0.00870342 -0.00219335
v -0.00941363 -0.00882033 -0.00219335
v -0.00944090 -0.00884179 -0.00193526
v -0.00928082 -0.00897055 -0.00193526
v -0.00950686 -0.00886043 -0.00143149
v -0.00933711 -0.00901404 -0.00128407
v -0.00956843 -0.00882993 -0.00128407
v -0.00962648 -0.00878306 -0.00128407
v -0.00609950 -0.00958670 -0.00597558
v -0.00658501 -0.00957089 -0.00549017
v -0.00633522 -0.00957428 -0.00575790
v -0.00619273 -0.00955225 -0.00597558
v -0.00710570 -0.00957597 -0.00477147
v -0.00728425 -0.00954096 -0.00463141
v -0.00681897 -0.00956355 -0.00521831
v -0.00675652 -0.00953531 -0.00539052
v -0.00741354 -0.00958106 -0.00425392
v -0.00759297 -0.00956468 -0.00399767
v -0.00789817 -0.00958896 -0.00322478
v -0.00784452 -0.00956411 -0.00348287
v -0.00781550 -0.00954830 -0.00362845
v -0.00777416 -0.00952684 -0.00379928
v -0.00750677 -0.00952232 -0.00430765
v -0.00770027 -0.00936137 -0.00453267
v -0.00825351 -0.00950594 -0.00270907
v -0.00845141 -0.00939638 -0.00270907
v -0.00802747 -0.00952402 -0.00322478
v -0.00859038 -0.00929190 -0.00287072
v -0.00856223 -0.00927552 -0.00304247
v -0.00839600 -0.00932635 -0.00322478
v -0.00903279 -0.00924446 -0.00128407
v -0.00895011 -0.00921735 -0.00195823
v -0.00915241 -0.00907221 -0.00193526
v -0.00896770 -0.00916653 -0.00219335
v -0.00881818 -0.00927383 -0.00219335
v -0.00897122 -0.00928343 -0.00128407
v -0.00788850 -0.00859047 -0.00597558
v -0.00781813 -0.00865090 -0.00597558
v -0.00777328 -0.00874352 -0.00588603
v -0.00764135 -0.00879209 -0.00597558
v -0.00761320 -0.00881186 -0.00597558
v -0.00768356 -0.00884970 -0.00580153
v -0.00753404 -0.00901799 -0.00565274
v -0.00776712 -0.00900218 -0.00535975
v -0.00782781 -0.00904171 -0.00518754
v -0.00800724 -0.00899089 -0.00502956
v -0.00787882 -0.00907786 -0.00502956
v -0.00805385 -0.00902082 -0.00488261
v -0.00819018 -0.00896321 -0.00478663
v -0.00846900 -0.00886777 -0.00452533
v -0.00845317 -0.00897451 -0.00428056
v -0.00857806 -0.00902703 -0.00386403
v -0.00870384 -0.00896491 -0.00376254
v -0.00865722 -0.00908464 -0.00348287
v -0.00872495 -0.00911231 -0.00322662
v -0.00888415 -0.00906317 -0.00296670
v -0.00901344 -0.00896434 -0.00296670
v -0.00868977 -0.00920436 -0.00296073
v -0.00917703 -0.00883501 -0.00296670
v -0.00842150 -0.00900726 -0.00425392
v -0.00841974 -0.00909875 -0.00399767
v -0.00938109 -0.00879378 -0.00245144
v -0.00907852 -0.00901404 -0.00251711
v -0.00910227 -0.00903324 -0.00234536
v -0.00925268 -0.00894909 -0.00219335
v -0.00917440 -0.00908972 -0.00167764
v -0.00919638 -0.00910666 -0.00141955
v -0.00921925 -0.00910610 -0.00128407
v -0.00650761 -0.00953926 -0.00566192
v -0.00625870 -0.00954322 -0.00593011
v -0.00623671 -0.00953418 -0.00597558
v -0.00705117 -0.00955225 -0.00492578
v -0.00714792 -0.00947601 -0.00501900
v -0.00699048 -0.00952345 -0.00509799
v -0.00780054 -0.00928230 -0.00463141
v -0.00762903 -0.00932579 -0.00477147
v -0.00757626 -0.00929924 -0.00494047
v -0.00690516 -0.00949691 -0.00529775
v -0.00728337 -0.00928230 -0.00540567
v -0.00710218 -0.00931901 -0.00554528
v -0.00704677 -0.00929303 -0.00569131
v -0.00689373 -0.00932353 -0.00578775
v -0.00772138 -0.00950030 -0.00399767
v -0.00831948 -0.00928399 -0.00360365
v -0.00816116 -0.00933821 -0.00373958
v -0.00791488 -0.00947206 -0.00372397
v -0.00810047 -0.00930546 -0.00399767
v -0.00793511 -0.00939130 -0.00399767
v -0.00765894 -0.00946076 -0.00425392
v -0.00792632 -0.00932466 -0.00425392
v -0.00878036 -0.00924841 -0.00245144
v -0.00852529 -0.00925180 -0.00322478
v -0.00911635 -0.00918290 -0.00128407
v -0.00912338 -0.00904962 -0.00219335
v -0.00898178 -0.00910440 -0.00243950
v -0.00892109 -0.00909198 -0.00270907
v -0.00773194 -0.00872376 -0.00597558
v -0.00758505 -0.00882993 -0.00597558
v -0.00747775 -0.00898354 -0.00580337
v -0.00734846 -0.00906543 -0.00580337
v -0.00743729 -0.00912304 -0.00555814
v -0.00767917 -0.00909537 -0.00527893
v -0.00766773 -0.00921227 -0.00502773
v -0.00775745 -0.00925858 -0.00477147
v -0.00795446 -0.00912530 -0.00478663
v -0.00815588 -0.00909198 -0.00451385
v -0.00832124 -0.00902760 -0.00438297
v -0.00847516 -0.00913038 -0.00376254
v -0.00828957 -0.00926649 -0.00373958
v -0.00836785 -0.00906035 -0.00421075
v -0.00822976 -0.00922752 -0.00399767
v -0.00639679 -0.00946641 -0.00597558
v -0.00630355 -0.00950651 -0.00597558
v -0.00718398 -0.00936250 -0.00530648
v -0.00806617 -0.00928738 -0.00413131
v -0.00801867 -0.00925915 -0.00430352
v -0.00793335 -0.00923204 -0.00453267
v -0.00751645 -0.00926875 -0.00511268
v -0.00742586 -0.00923938 -0.00530648
v -0.00723148 -0.00925293 -0.00554528
v -0.00714528 -0.00919363 -0.00578775
v -0.00697201 -0.00925463 -0.00586353
v -0.00680050 -0.00929698 -0.00595951
v -0.00677411 -0.00930263 -0.00597558
v -0.00733350 -0.00898976 -0.00597558
v -0.00729656 -0.00903155 -0.00593884
v -0.00819106 -0.00916314 -0.00425392
v -0.00714528 -0.00910045 -0.00597558
v -0.00724291 -0.00904454 -0.00597558
v -0.00692539 -0.00922526 -0.00597558
v -0.00681633 -0.00928174 -0.00597558
f 1 2 5
f 1 5 12
f 1 12 20
f 1 20 32
f 1 32 48
f 1 48 79
f 1 79 120
f 1 120 174
f 1 174 214
f 1 214 259
f 1 259 307
f 1 307 364
f 1 364 416
f 1 416 469
f 1 469 523
f 1 523 524
f 1 524 575
f 1 575 577
f 1 577 621
f 1 621 624
f 1 624 683
f 1 683 725
f 1 725 724
f 1 724 736
f 1 736 743
f 1 743 742
f 1 742 740
f 1 740 741
f 1 741 737
f 1 737 710
f 1 710 653
f 1 653 652
f 1 652 709
f 1 709 650
f 1 650 649
f 1 649 597
f 1 597 551
f 1 551 500
f 1 500 445
f 1 445 444
f 1 444 443
f 1 443 442
f 1 442 391
f 1 391 337
f 1 337 279
f 1 279 278
f 1 278 277
f 1 277 229
f 1 229 227
f 1 227 183
f 1 183 134
f 1 134 133
f 1 133 182
f 1 182 130
f 1 130 129
f 1 129 89
f 1 89 55
f 1 55 50
f 1 50 36
f 1 36 24
f 1 24 13
f 1 13 6
f 1 6 3
f 1 3 7
f 1 7 15
f 1 15 26
f 1 26 37
f 1 37 53
f 1 53 86
f 1 86 128
f 1 128 127
f 1 127 126
f 1 126 181
f 1 181 146
f 1 146 145
f 1 145 144
f 1 144 101
f 1 101 66
f 1 66 64
f 1 64 63
f 1 63 40
f 1 40 27
f 1 27 16
f 1 16 8
f 1 8 4
f 1 4 2
f 2 4 5
f 3 6 7
f 4 8 18
f 4 18 31
f 4 31 30
f 4 30 45
f 4 45 72
f 4 72 77
f 4 77 76
f 4 76 117
f 4 117 118
f 4 118 171
f 4 171 168
f 4 168 209
f 4 209 252
f 4 252 253
f 4 253 212
f 4 212 254
f 4 254 301
f 4 301 362
f 4 362 413
f 4 413 467
f 4 467 521
f 4 521 574
f 4 574 620
f 4 620 619
f 4 619 618
f 4 618 680
f 4 680 705
f 4 705 643
f 4 643 648
f 4 648 594
f 4 594 593
f 4 593 541
f 4 541 537
f 4 537 487
f 4 487 428
f 4 428 376
f 4 376 322
f 4 322 273
f 4 273 220
f 4 220 176
f 4 176 121
f 4 121 80
f 4 80 49
f 4 49 33
f 4 33 22
f 4 22 21
f 4 21 19
f 4 19 11
f 4 11 10
f 4 10 9
f 4 9 5
f 5 9 10
f 5 10 11
f 5 11 12
f 6 13 7
f 7 13 14
f 7 14 15
f 8 16 17
f 8 17 18
f 11 19 12
f 12 19 21
f 12 21 22
f 12 22 20
f 13 23 14
f 13 24 23
f 14 23 25
f 14 25 15
f 15 25 26
f 16 27 28
f 16 28 17
f 17 28 42
f 17 42 29
f 17 29 30
f 17 30 31
f 17 31 18
f 20 22 32
f 22 33 32
f 23 34 35
f 23 35 25
f 23 24 34
f 24 36 34
f 25 37 26
f 25 35 38
f 25 38 39
f 25 39 37
f 27 40 28
f 28 40 41
f 28 41 42
f 29 42 43
f 29 43 44
f 29 44 30
f 30 44 46
f 30 46 47
f 30 47 45
f 32 33 49
f 32 49 48
f 34 38 35
f 34 36 50
f 34 50 38
f 37 39 51
f 37 51 52
f 37 52 53
f 38 54 39
f 38 50 55
f 38 55 56
f 38 56 57
f 38 57 58
f 38 58 59
f 38 59 60
f 38 60 61
f 38 61 62
f 38 62 54
f 39 54 51
f 40 63 41
f 41 64 65
f 41 65 66
f 41 66 67
f 41 67 68
f 41 68 69
f 41 69 42
f 41 63 64
f 42 69 43
f 43 69 70
f 43 70 71
f 43 71 46
f 43 46 44
f 45 47 72
f 46 71 73
f 46 73 74
f 46 74 75
f 46 75 47
f 47 76 77
f 47 77 72
f 47 75 74
f 47 74 78
f 47 78 76
f 48 49 79
f 49 80 81
f 49 81 79
f 51 54 52
f 52 82 83
f 52 83 53
f 52 54 82
f 53 83 84
f 53 84 85
f 53 85 86
f 54 62 87
f 54 87 88
f 54 88 82
f 55 89 56
f 56 89 90
f 56 90 57
f 57 90 91
f 57 91 58
f 58 91 92
f 58 92 93
f 58 93 94
f 58 94 95
f 58 95 96
f 58 96 59
f 59 96 60
f 60 97 61
f 60 96 95
f 60 95 98
f 60 98 97
f 61 97 99
f 61 99 100
f 61 100 62
f 62 100 87
f 64 66 65
f 66 101 102
f 66 102 67
f 67 103 68
f 67 102 104
f 67 104 105
f 67 105 106
f 67 106 103
f 68 103 106
f 68 106 69
f 69 106 107
f 69 107 70
f 70 108 109
f 70 109 110
f 70 110 111
f 70 111 112
f 70 112 113
f 70 113 114
f 70 114 74
f 70 74 73
f 70 73 71
f 70 107 108
f 74 114 115
f 74 115 116
f 74 116 78
f 76 78 117
f 78 116 118
f 78 118 117
f 79 119 120
f 79 81 119
f 80 121 81
f 81 121 122
f 81 122 175
f 81 175 123
f 81 123 119
f 82 88 87
f 82 87 83
f 83 87 100
f 83 100 84
f 84 100 124
f 84 124 125
f 84 125 126
f 84 126 127
f 84 127 85
f 85 127 128
f 85 128 86
f 89 129 90
f 90 129 130
f 90 130 131
f 90 131 91
f 91 131 132
f 91 132 92
f 92 132 133
f 92 133 134
f 92 134 135
f 92 135 136
f 92 136 137
f 92 137 138
f 92 138 93
f 93 138 139
f 93 139 98
f 93 98 94
f 94 98 95
f 97 140 99
f 97 98 139
f 97 139 141
f 97 141 140
f 99 142 100
f 99 140 142
f 100 142 143
f 100 143 124
f 101 144 102
f 102 144 145
f 102 145 146
f 102 146 147
f 102 147 148
f 102 148 149
f 102 149 150
f 102 150 104
f 104 151 105
f 104 150 151
f 105 151 152
f 105 152 106
f 106 152 153
f 106 153 107
f 107 153 154
f 107 154 108
f 108 154 155
f 108 155 156
f 108 156 109
f 109 157 111
f 109 111 110
f 109 156 158
f 109 158 159
f 109 159 160
f 109 160 161
f 109 161 162
f 109 162 157
f 111 157 112
f 112 157 162
f 112 162 163
f 112 163 113
f 113 163 164
f 113 164 165
f 113 165 166
f 113 166 115
f 113 115 167
f 113 167 114
f 114 167 115
f 115 168 169
f 115 169 116
f 115 166 165
f 115 165 164
f 115 164 170
f 115 170 168
f 116 169 171
f 116 171 118
f 119 172 173
f 119 173 174
f 119 174 120
f 119 123 172
f 121 175 122
f 121 176 177
f 121 177 178
f 121 178 175
f 123 175 173
f 123 173 172
f 124 179 125
f 124 143 179
f 125 180 147
f 125 147 181
f 125 181 126
f 125 179 180
f 130 182 131
f 131 182 133
f 131 133 132
f 134 183 184
f 134 184 185
f 134 185 186
f 134 186 135
f 135 186 187
f 135 187 136
f 136 188 137
f 136 187 188
f 137 189 138
f 137 188 189
f 138 189 190
f 138 190 139
f 139 190 141
f 140 141 191
f 140 191 192
f 140 192 142
f 141 190 191
f 142 192 193
f 142 193 194
f 142 194 195
f 142 195 196
f 142 196 197
f 142 197 179
f 142 179 143
f 146 181 147
f 147 180 148
f 148 180 198
f 148 198 149
f 149 198 150
f 150 198 197
f 150 197 196
f 150 196 195
f 150 195 199
f 150 199 200
f 150 200 151
f 151 200 152
f 152 200 199
f 152 199 155
f 152 155 153
f 153 155 154
f 155 199 158
f 155 158 156
f 158 199 195
f 158 195 159
f 159 195 194
f 159 194 201
f 159 201 202
f 159 202 203
f 159 203 160
f 160 203 161
f 161 203 204
f 161 204 162
f 162 204 205
f 162 205 206
f 162 206 163
f 163 206 207
f 163 207 164
f 164 207 208
f 164 208 170
f 168 171 169
f 168 170 210
f 168 210 209
f 170 208 211
f 170 211 212
f 170 212 210
f 173 213 214
f 173 214 174
f 173 175 215
f 173 215 216
f 173 216 217
f 173 217 213
f 175 178 218
f 175 218 219
f 175 219 215
f 176 220 221
f 176 221 177
f 177 222 178
f 177 221 274
f 177 274 222
f 178 222 223
f 178 223 224
f 178 224 225
f 178 225 226
f 178 226 218
f 179 197 180
f 180 197 198
f 183 227 184
f 184 228 185
f 184 227 229
f 184 229 230
f 184 230 228
f 185 228 186
f 186 228 187
f 187 228 231
f 187 231 232
f 187 232 233
f 187 233 188
f 188 233 234
f 188 234 189
f 189 235 236
f 189 236 237
f 189 237 190
f 189 234 238
f 189 238 239
f 189 239 235
f 190 240 191
f 190 237 240
f 191 241 192
f 191 240 241
f 192 242 193
f 192 241 242
f 193 242 243
f 193 243 201
f 193 201 194
f 201 243 241
f 201 241 203
f 201 203 202
f 203 241 236
f 203 236 244
f 203 244 245
f 203 245 246
f 203 246 204
f 204 246 205
f 205 246 247
f 205 247 248
f 205 248 206
f 206 249 207
f 206 248 249
f 207 249 208
f 208 249 250
f 208 250 251
f 208 251 211
f 209 210 252
f 210 212 253
f 210 253 252
f 211 251 212
f 212 251 254
f 213 217 255
f 213 255 256
f 213 256 257
f 213 257 258
f 213 258 214
f 214 258 259
f 215 260 261
f 215 261 217
f 215 217 216
f 215 219 260
f 217 261 262
f 217 262 263
f 217 263 255
f 218 264 265
f 218 265 219
f 218 226 266
f 218 266 267
f 218 267 264
f 219 265 268
f 219 268 269
f 219 269 270
f 219 270 271
f 219 271 272
f 219 272 260
f 220 273 221
f 221 273 274
f 222 274 223
f 223 274 224
f 224 274 275
f 224 275 225
f 225 266 226
f 225 275 266
f 228 230 276
f 228 276 231
f 229 277 230
f 230 277 278
f 230 278 279
f 230 279 280
f 230 280 276
f 231 281 232
f 231 276 282
f 231 282 281
f 232 281 234
f 232 234 233
f 234 281 283
f 234 283 238
f 235 239 284
f 235 284 285
f 235 285 286
f 235 286 236
f 236 241 240
f 236 240 237
f 236 286 244
f 238 287 288
f 238 288 239
f 238 283 289
f 238 289 287
f 239 288 284
f 241 243 242
f 244 286 285
f 244 285 290
f 244 290 245
f 245 290 291
f 245 291 246
f 246 291 292
f 246 292 247
f 247 292 293
f 247 293 248
f 248 293 249
f 249 293 294
f 249 294 295
f 249 295 296
f 249 296 297
f 249 297 250
f 250 297 298
f 250 298 299
f 250 299 251
f 251 299 300
f 251 300 254
f 254 300 301
f 255 263 302
f 255 302 303
f 255 303 256
f 256 304 257
f 256 303 305
f 256 305 304
f 257 306 258
f 257 304 306
f 258 306 259
f 259 306 307
f 260 308 309
f 260 309 310
f 260 310 261
f 260 272 311
f 260 311 312
f 260 312 313
f 260 313 308
f 261 310 309
f 261 309 262
f 262 309 314
f 262 314 263
f 263 314 302
f 264 315 268
f 264 268 265
f 264 267 316
f 264 316 317
f 264 317 318
f 264 318 315
f 266 275 267
f 267 275 327
f 267 327 316
f 268 315 318
f 268 318 319
f 268 319 269
f 269 320 270
f 269 319 320
f 270 320 271
f 271 321 272
f 271 320 321
f 272 321 312
f 272 312 311
f 273 322 323
f 273 323 274
f 274 324 275
f 274 323 325
f 274 325 324
f 275 324 326
f 275 326 327
f 276 328 282
f 276 280 329
f 276 329 330
f 276 330 331
f 276 331 332
f 276 332 333
f 276 333 334
f 276 334 335
f 276 335 336
f 276 336 328
f 279 337 338
f 279 338 280
f 280 338 339
f 280 339 329
f 281 282 328
f 281 328 283
f 283 328 336
f 283 336 340
f 283 340 341
f 283 341 342
f 283 342 343
f 283 343 289
f 284 288 344
f 284 344 345
f 284 345 346
f 284 346 290
f 284 290 285
f 287 289 344
f 287 344 288
f 289 343 347
f 289 347 344
f 290 346 348
f 290 348 291
f 291 348 292
f 292 348 349
f 292 349 350
f 292 350 351
f 292 351 293
f 293 351 352
f 293 352 353
f 293 353 294
f 294 353 295
f 295 353 296
f 296 353 354
f 296 354 355
f 296 355 297
f 297 355 356
f 297 356 357
f 297 357 358
f 297 358 359
f 297 359 298
f 298 359 299
f 299 359 360
f 299 360 361
f 299 361 301
f 299 301 300
f 301 361 362
f 302 305 303
f 302 314 363
f 302 363 305
f 304 307 306
f 304 305 307
f 305 364 307
f 305 363 365
f 305 365 364
f 308 366 309
f 308 313 366
f 309 366 314
f 312 321 367
f 312 367 313
f 313 367 368
f 313 368 369
f 313 369 370
f 313 370 366
f 314 366 370
f 314 370 363
f 316 371 317
f 316 327 371
f 317 371 318
f 318 371 319
f 319 371 372
f 319 372 320
f 320 373 321
f 320 372 374
f 320 374 373
f 321 373 367
f 322 375 325
f 322 325 323
f 322 376 375
f 324 325 326
f 325 375 377
f 325 377 378
f 325 378 379
f 325 379 326
f 326 380 327
f 326 379 381
f 326 381 382
f 326 382 383
f 326 383 380
f 327 380 371
f 329 339 384
f 329 384 330
f 330 384 385
f 330 385 386
f 330 386 331
f 331 386 332
f 332 334 333
f 332 386 387
f 332 387 388
f 332 388 334
f 334 388 389
f 334 389 335
f 335 342 341
f 335 341 340
f 335 340 336
f 335 389 390
f 335 390 342
f 337 391 392
f 337 392 338
f 338 392 339
f 339 392 384
f 342 393 347
f 342 347 343
f 342 390 394
f 342 394 393
f 344 347 395
f 344 395 396
f 344 396 397
f 344 397 398
f 344 398 399
f 344 399 345
f 345 399 400
f 345 400 346
f 346 400 348
f 347 393 395
f 348 400 349
f 349 400 399
f 349 399 350
f 350 399 398
f 350 398 401
f 350 401 402
f 350 402 403
f 350 403 352
f 350 352 351
f 352 403 404
f 352 404 405
f 352 405 355
f 352 355 354
f 352 354 353
f 355 405 406
f 355 406 407
f 355 407 356
f 356 407 357
f 357 407 408
f 357 408 409
f 357 409 410
f 357 410 358
f 358 411 359
f 358 410 411
f 359 411 360
f 360 411 361
f 361 411 412
f 361 412 413
f 361 413 362
f 363 414 365
f 363 370 415
f 363 415 414
f 364 365 416
f 365 414 416
f 367 373 368
f 368 373 417
f 368 417 418
f 368 418 419
f 368 419 420
f 368 420 369
f 369 420 421
f 369 421 370
f 370 421 415
f 371 422 372
f 371 380 433
f 371 433 422
f 372 422 374
f 373 374 417
f 374 422 423
f 374 423 424
f 374 424 425
f 374 425 426
f 374 426 417
f 375 376 427
f 375 427 377
f 376 428 427
f 377 427 378
f 378 429 382
f 378 382 381
f 378 381 379
f 378 427 430
f 378 430 431
f 378 431 432
f 378 432 429
f 380 383 433
f 382 434 383
f 382 429 434
f 383 434 435
f 383 435 436
f 383 436 433
f 384 392 385
f 385 392 437
f 385 437 438
f 385 438 387
f 385 387 386
f 387 438 439
f 387 439 440
f 387 440 441
f 387 441 388
f 388 441 389
f 389 394 390
f 389 441 394
f 391 442 392
f 392 442 443
f 392 443 444
f 392 444 445
f 392 445 446
f 392 446 447
f 392 447 448
f 392 448 437
f 393 394 449
f 393 449 395
f 394 441 450
f 394 450 451
f 394 451 449
f 395 452 397
f 395 397 396
f 395 449 453
f 395 453 454
f 395 454 452
f 397 452 402
f 397 402 401
f 397 401 398
f 402 452 455
f 402 455 456
f 402 456 457
f 402 457 458
f 402 458 459
f 402 459 403
f 403 459 404
f 404 459 460
f 404 460 405
f 405 460 461
f 405 461 406
f 406 461 408
f 406 408 407
f 408 461 462
f 408 462 463
f 408 463 409
f 409 463 464
f 409 464 465
f 409 465 410
f 410 465 466
f 410 466 467
f 410 467 468
f 410 468 411
f 411 468 412
f 412 468 467
f 412 467 413
f 414 469 416
f 414 415 470
f 414 470 469
f 415 421 471
f 415 471 472
f 415 472 470
f 417 426 418
f 418 426 473
f 418 473 474
f 418 474 475
f 418 475 476
f 418 476 477
f 418 477 419
f 419 477 478
f 419 478 479
f 419 479 420
f 420 480 421
f 420 479 480
f 421 480 471
f 422 433 481
f 422 481 423
f 423 481 424
f 424 482 425
f 424 481 483
f 424 483 484
f 424 484 485
f 424 485 482
f 425 474 426
f 425 482 474
f 426 474 473
f 427 428 486
f 427 486 430
f 428 487 488
f 428 488 486
f 429 432 489
f 429 489 434
f 430 490 431
f 430 486 488
f 430 488 491
f 430 491 490
f 431 490 432
f 432 490 489
f 433 436 492
f 433 492 493
f 433 493 481
f 434 489 494
f 434 494 495
f 434 495 435
f 435 495 436
f 436 495 496
f 436 496 492
f 437 448 497
f 437 497 438
f 438 497 439
f 439 497 498
f 439 498 440
f 440 498 499
f 440 499 441
f 441 499 450
f 445 500 446
f 446 500 501
f 446 501 502
f 446 502 448
f 446 448 447
f 448 502 501
f 448 501 497
f 449 451 503
f 449 503 453
f 450 499 498
f 450 498 504
f 450 504 505
f 450 505 506
f 450 506 507
f 450 507 508
f 450 508 503
f 450 503 451
f 452 454 455
f 453 503 509
f 453 509 456
f 453 456 455
f 453 455 454
f 456 509 457
f 457 510 511
f 457 511 512
f 457 512 458
f 457 509 513
f 457 513 514
f 457 514 515
f 457 515 510
f 458 512 459
f 459 512 460
f 460 512 511
f 460 511 461
f 461 511 462
f 462 511 510
f 462 510 516
f 462 516 463
f 463 516 517
f 463 517 464
f 464 517 518
f 464 518 519
f 464 519 465
f 465 519 466
f 466 519 520
f 466 520 467
f 467 520 522
f 467 522 521
f 469 470 523
f 470 524 523
f 470 472 525
f 470 525 524
f 471 480 526
f 471 526 472
f 472 526 527
f 472 527 525
f 474 476 475
f 474 482 528
f 474 528 529
f 474 529 476
f 476 529 530
f 476 530 478
f 476 478 477
f 478 531 479
f 478 530 531
f 479 531 532
f 479 532 480
f 480 532 526
f 481 493 533
f 481 533 483
f 482 485 528
f 483 533 484
f 484 534 485
f 484 533 535
f 484 535 534
f 485 534 536
f 485 536 528
f 487 537 488
f 488 537 491
f 489 490 538
f 489 538 539
f 489 539 494
f 490 491 540
f 490 540 538
f 491 537 541
f 491 541 542
f 491 542 540
f 492 496 493
f 493 496 543
f 493 543 533
f 494 539 495
f 495 539 544
f 495 544 496
f 496 544 543
f 497 545 498
f 497 501 546
f 497 546 547
f 497 547 548
f 497 548 549
f 497 549 550
f 497 550 545
f 498 545 504
f 500 551 501
f 501 551 546
f 503 508 509
f 504 545 550
f 504 550 549
f 504 549 505
f 505 552 506
f 505 549 553
f 505 553 552
f 506 552 507
f 507 554 508
f 507 552 555
f 507 555 556
f 507 556 554
f 508 554 557
f 508 557 558
f 508 558 509
f 509 558 563
f 509 563 513
f 510 515 559
f 510 559 516
f 513 560 561
f 513 561 562
f 513 562 514
f 513 563 564
f 513 564 560
f 514 559 515
f 514 562 565
f 514 565 559
f 516 559 566
f 516 566 567
f 516 567 568
f 516 568 517
f 517 568 518
f 518 568 569
f 518 569 570
f 518 570 571
f 518 571 572
f 518 572 522
f 518 522 520
f 518 520 519
f 521 522 573
f 521 573 574
f 522 572 571
f 522 571 573
f 524 525 575
f 525 527 575
f 526 532 576
f 526 576 527
f 527 577 575
f 527 576 578
f 527 578 577
f 528 536 529
f 529 579 530
f 529 536 580
f 529 580 579
f 530 579 581
f 530 581 582
f 530 582 531
f 531 583 578
f 531 578 576
f 531 576 532
f 531 582 583
f 533 543 535
f 534 535 536
f 535 584 536
f 535 543 585
f 535 585 586
f 535 586 584
f 536 584 587
f 536 587 580
f 538 540 588
f 538 588 589
f 538 589 539
f 539 589 590
f 539 590 591
f 539 591 544
f 540 542 592
f 540 592 588
f 541 593 542
f 542 593 594
f 542 594 595
f 542 595 596
f 542 596 592
f 543 544 585
f 544 591 585
f 546 551 597
f 546 597 598
f 546 598 547
f 547 549 548
f 547 598 549
f 549 598 599
f 549 599 600
f 549 600 601
f 549 601 555
f 549 555 553
f 552 553 555
f 554 556 564
f 554 564 557
f 555 602 556
f 555 601 602
f 556 602 564
f 557 563 558
f 557 564 563
f 559 565 603
f 559 603 566
f 560 564 604
f 560 604 561
f 561 604 564
f 561 564 605
f 561 605 606
f 561 606 607
f 561 607 608
f 561 608 562
f 562 608 565
f 564 602 609
f 564 609 610
f 564 610 605
f 565 608 603
f 566 603 611
f 566 611 612
f 566 612 567
f 567 612 613
f 567 613 568
f 568 613 569
f 569 613 614
f 569 614 615
f 569 615 570
f 570 615 571
f 571 615 616
f 571 616 573
f 573 616 617
f 573 617 618
f 573 618 619
f 573 619 620
f 573 620 574
f 577 578 621
f 578 583 622
f 578 622 623
f 578 623 624
f 578 624 621
f 579 580 625
f 579 625 581
f 580 587 626
f 580 626 625
f 581 627 582
f 581 625 627
f 582 622 583
f 582 627 628
f 582 628 622
f 584 629 587
f 584 586 630
f 584 630 629
f 585 591 631
f 585 631 632
f 585 632 633
f 585 633 586
f 586 633 634
f 586 634 630
f 587 629 630
f 587 630 635
f 587 635 636
f 587 636 626
f 588 637 589
f 588 592 638
f 588 638 637
f 589 637 590
f 590 639 633
f 590 633 632
f 590 632 631
f 590 631 591
f 590 637 640
f 590 640 641
f 590 641 642
f 590 642 639
f 592 596 643
f 592 643 644
f 592 644 645
f 592 645 646
f 592 646 647
f 592 647 638
f 594 648 596
f 594 596 595
f 596 648 643
f 597 649 598
f 598 649 650
f 598 650 651
f 598 651 652
f 598 652 653
f 598 653 654
f 598 654 655
f 598 655 656
f 598 656 657
f 598 657 599
f 599 658 600
f 599 657 659
f 599 659 658
f 600 658 660
f 600 660 601
f 601 660 661
f 601 661 662
f 601 662 602
f 602 662 663
f 602 663 609
f 603 608 611
f 605 610 664
f 605 664 665
f 605 665 606
f 606 665 664
f 606 664 666
f 606 666 667
f 606 667 607
f 607 668 669
f 607 669 608
f 607 667 641
f 607 641 670
f 607 670 668
f 608 669 671
f 608 671 611
f 609 663 672
f 609 672 610
f 610 672 673
f 610 673 664
f 611 674 613
f 611 613 612
f 611 671 669
f 611 669 675
f 611 675 676
f 611 676 674
f 613 674 614
f 614 674 677
f 614 677 616
f 614 616 615
f 616 677 645
f 616 645 617
f 617 645 678
f 617 678 618
f 618 678 679
f 618 679 680
f 622 628 681
f 622 681 682
f 622 682 623
f 623 682 624
f 624 682 683
f 625 626 684
f 625 684 627
f 626 685 686
f 626 686 684
f 626 636 687
f 626 687 688
f 626 688 689
f 626 689 685
f 627 684 686
f 627 686 690
f 627 690 628
f 628 690 691
f 628 691 692
f 628 692 693
f 628 693 694
f 628 694 681
f 630 634 695
f 630 695 635
f 633 639 696
f 633 696 697
f 633 697 698
f 633 698 634
f 634 698 699
f 634 699 700
f 634 700 695
f 635 695 701
f 635 701 636
f 636 701 702
f 636 702 687
f 637 638 640
f 638 647 640
f 639 642 696
f 640 647 703
f 640 703 641
f 641 703 670
f 641 667 704
f 641 704 696
f 641 696 642
f 643 705 679
f 643 679 678
f 643 678 644
f 644 678 645
f 645 706 646
f 645 677 706
f 646 707 708
f 646 708 703
f 646 703 647
f 646 706 707
f 650 709 651
f 651 709 652
f 653 710 711
f 653 711 654
f 654 711 655
f 655 711 712
f 655 712 713
f 655 713 714
f 655 714 656
f 656 714 657
f 657 714 715
f 657 715 659
f 658 659 660
f 659 715 716
f 659 716 717
f 659 717 660
f 660 717 718
f 660 718 661
f 661 718 719
f 661 719 672
f 661 672 663
f 661 663 662
f 664 673 720
f 664 720 666
f 666 720 667
f 667 720 721
f 667 721 704
f 668 708 669
f 668 670 708
f 669 708 675
f 670 703 708
f 672 719 718
f 672 718 722
f 672 722 673
f 673 722 723
f 673 723 721
f 673 721 720
f 674 676 706
f 674 706 677
f 675 708 707
f 675 707 676
f 676 707 706
f 679 705 680
f 681 724 725
f 681 725 682
f 681 694 724
f 682 725 683
f 685 691 726
f 685 726 690
f 685 690 686
f 685 689 691
f 687 716 689
f 687 689 688
f 687 702 727
f 687 727 728
f 687 728 729
f 687 729 717
f 687 717 716
f 689 716 730
f 689 730 691
f 690 726 691
f 691 731 713
f 691 713 732
f 691 732 693
f 691 693 692
f 691 730 731
f 693 732 733
f 693 733 734
f 693 734 735
f 693 735 736
f 693 736 694
f 694 736 724
f 695 700 727
f 695 727 702
f 695 702 701
f 696 721 697
f 696 704 721
f 697 721 699
f 697 699 698
f 699 727 700
f 699 721 727
f 710 737 738
f 710 738 711
f 711 738 712
f 712 738 733
f 712 733 732
f 712 732 713
f 713 730 715
f 713 715 714
f 713 731 730
f 715 730 716
f 717 729 718
f 718 739 722
f 718 729 728
f 718 728 739
f 721 723 727
f 722 739 723
f 723 739 728
f 723 728 727
f 733 740 734
f 733 738 741
f 733 741 740
f 734 740 742
f 734 742 743
f 734 743 735
f 735 743 736
f 737 741 738

