# https://github.com/mikedh/trimesh
v 0.01182737 -0.04218928 0.00123760
v 0.01182737 -0.04218928 0.00527957
v 0.01182737 -0.03931044 0.00123760
v 0.03952180 -0.04218928 0.00123760
v 0.02911199 -0.04218928 0.00528023
v 0.01182737 -0.04218787 0.00653363
v 0.01182737 -0.03931044 0.00620799
v 0.03952180 -0.03931044 0.00123760
v 0.03952180 -0.04218928 0.00528023
v 0.01182737 -0.04217801 0.00719156
v 0.03952180 -0.04217970 0.00653363
v 0.01182737 -0.03931269 0.00653363
v 0.03952180 -0.03931044 0.00528023
v 0.01182737 -0.04152424 0.00774516
v 0.03952180 -0.04216955 0.00716166
v 0.01182737 -0.03945246 0.00736768
v 0.03952180 -0.03932537 0.00653363
v 0.01182737 -0.04028912 0.00802694
v 0.03952180 -0.04154227 0.00742549
v 0.01182737 -0.03950910 0.00763949
v 0.03952180 -0.03943978 0.00706130
v 0.01182737 -0.04012342 0.00795782
v 0.03952180 -0.04028912 0.00760759
v 0.03952180 -0.03950121 0.00734375
f 1 2 6
f 1 6 10
f 1 10 14
f 1 14 18
f 1 18 22
f 1 22 20
f 1 20 16
f 1 16 12
f 1 12 7
f 1 7 3
f 1 3 8
f 1 8 4
f 1 4 9
f 1 9 5
f 1 5 2
f 2 5 6
f 3 7 13
f 3 13 8
f 4 8 13
f 4 13 17
f 4 17 21
f 4 21 24
f 4 24 23
f 4 23 19
f 4 19 15
f 4 15 11
f 4 11 9
f 5 9 6
f 6 9 11
f 6 11 10
f 7 12 13
f 10 11 15
f 10 15 14
f 12 16 17
f 12 17 13
f 14 15 19
f 14 19 18
f 16 20 17
f 17 20 21
f 18 19 23
f 18 23 24
f 18 24 22
f 20 22 24
f 20 24 21

