# https://github.com/mikedh/trimesh
v 0.00124021 -0.01958021 -0.02564303
v 0.00124021 -0.01953683 -0.02564303
v 0.00126194 -0.02822541 -0.02564303
v -0.01356730 -0.01953849 -0.02210139
v 0.00677639 -0.01953683 -0.02564303
v -0.01439854 -0.01953849 -0.02188563
v -0.00475505 -0.01953683 -0.02214612
v 0.00155532 -0.03658361 -0.02553251
v 0.00153359 -0.03652687 -0.02553251
v 0.00137603 -0.03590948 -0.02553251
v 0.00124293 -0.03527206 -0.02553251
v 0.00118045 -0.03446444 -0.02553251
v 0.00115328 -0.03401892 -0.02553251
v 0.00673564 -0.02822541 -0.02564303
v 0.00240558 -0.01953683 -0.01951226
v 0.00970203 -0.02959036 -0.00906366
v 0.01114177 -0.03066162 -0.00890315
v 0.01190509 -0.03119058 -0.00976619
v 0.01232072 -0.03181798 -0.00976619
v 0.01232072 -0.03181798 -0.01728361
v 0.01231257 -0.03182966 -0.01853871
v 0.01251902 -0.03285921 -0.02552988
v 0.01263583 -0.03401892 -0.02552988
v 0.01270374 -0.03658361 -0.02552988
v 0.00674107 -0.02774985 -0.02564303
v -0.01435236 -0.01982216 -0.02181459
v -0.01456425 -0.02023765 -0.02109100
v -0.01471365 -0.01953849 -0.02106469
v -0.00475505 -0.01953683 -0.01879394
v 0.00350304 -0.03658361 -0.02553251
v 0.00118045 -0.03658361 -0.02505889
v -0.01437681 -0.02732602 -0.01561015
v -0.01437409 -0.02607788 -0.01686262
v -0.01437138 -0.02482140 -0.01811508
v -0.01434693 -0.02354489 -0.01930966
v -0.01421925 -0.02213656 -0.02043319
v 0.00217196 -0.01953683 -0.01918599
v 0.00214751 -0.01957187 -0.01910179
v 0.00112884 -0.03077843 0.00123760
v 0.01225552 -0.03192478 -0.00897156
v 0.01267657 -0.03276577 -0.00976619
v 0.01267657 -0.03276577 -0.01728361
v 0.01288031 -0.03401892 -0.01728361
v 0.01288031 -0.03401892 -0.00976619
v 0.01268472 -0.03527206 -0.00976619
v 0.01229083 -0.03622652 -0.00976619
v 0.01207351 -0.03658361 -0.00976619
v -0.01438768 -0.02148412 -0.02064369
v -0.01472995 -0.02148412 -0.01979117
v -0.01443657 -0.02262714 -0.01975434
v -0.01469192 -0.01953849 -0.01975697
v -0.01482503 -0.02273894 -0.01853871
v -0.01483318 -0.02023098 -0.01979117
v -0.01438768 -0.01953849 -0.01897286
v -0.01356730 -0.01953849 -0.01878341
v 0.00021338 -0.01953683 -0.01868079
v 0.00071865 -0.03658361 -0.02438530
v -0.01431162 -0.02847237 -0.01428665
v -0.01450992 -0.02774651 -0.01473395
v -0.01454795 -0.02649670 -0.01602852
v -0.01454795 -0.02524189 -0.01728361
v -0.01453165 -0.02397373 -0.01853345
v 0.00202527 -0.01953683 -0.01907285
v 0.00169929 -0.03151263 0.00123760
v 0.00146840 -0.01953683 -0.01876236
v 0.00041169 -0.03068498 0.00123760
v 0.01240221 -0.03276577 -0.00881632
v 0.01250000 -0.03401892 -0.00874002
v 0.01240492 -0.03527206 -0.00882158
v 0.01223651 -0.03611639 -0.00898472
v 0.01202734 -0.03658361 -0.00947939
v -0.01469192 -0.03151096 0.00123497
v -0.01442299 -0.03093527 0.00123497
v -0.01434693 -0.03077509 0.00123497
v -0.01484676 -0.02399208 -0.01728624
v -0.01486849 -0.03025781 -0.00851373
v -0.01486306 -0.03151096 -0.00475634
v -0.01356730 -0.03066663 0.00123497
v 0.00021882 -0.03066663 0.00123760
v -0.01231500 -0.03066496 0.00123497
v -0.00427424 -0.03066496 0.00123760
v -0.00103348 -0.03066496 0.00123760
v 0.00036279 -0.03658361 -0.02360909
v -0.01434149 -0.03226852 -0.00726126
v -0.01420024 -0.03214003 -0.00789013
v -0.01428173 -0.03094696 -0.01051609
v -0.01441484 -0.02988237 -0.01201326
v -0.01460228 -0.02910311 -0.01236322
v -0.01479515 -0.02775152 -0.01352096
v -0.01484133 -0.02649837 -0.01477605
v -0.01484947 -0.02524523 -0.01603115
v 0.00302222 -0.03658361 0.00123760
v 0.01151121 -0.03658361 -0.00875843
v -0.01469735 -0.03179295 0.00123497
v -0.01486034 -0.02900299 -0.01101866
v -0.01477341 -0.03025781 -0.00976619
v -0.01485491 -0.03151096 -0.00601143
v -0.01468377 -0.03276410 -0.00099368
v -0.01468377 -0.03276410 0.00026405
v -0.01468106 -0.03276410 0.00123497
v -0.00427424 -0.03377363 0.00123760
v 0.00034378 -0.03658361 -0.02355383
v -0.01421654 -0.03340486 -0.00294605
v -0.01451263 -0.03245540 -0.00601143
v -0.01442842 -0.03111048 -0.00976619
v -0.01451806 -0.03028451 -0.01096603
v -0.00038424 -0.03658361 0.00123760
v -0.01468649 -0.03151096 -0.00726126
v -0.01462944 -0.03276410 -0.00224351
v -0.01433878 -0.03348996 -0.00099368
v -0.01433878 -0.03348996 0.00026405
v -0.01433878 -0.03348829 0.00123497
v -0.01460499 -0.03292763 0.00123497
v -0.00001209 -0.03658361 -0.02240661
v -0.01428717 -0.03345158 -0.00224351
v -0.00038696 -0.03658361 0.00099816
v -0.00038696 -0.03658361 -0.00099105
v -0.00038967 -0.03658361 0.00026405
v -0.00020495 -0.03658361 -0.02128571
v -0.00023484 -0.03658361 -0.02108574
v -0.00023755 -0.03658361 -0.02104627
v -0.00027015 -0.03658361 -0.01979117
v -0.00006098 -0.03658361 -0.02221190
f 1 2 5
f 1 5 25
f 1 25 14
f 1 14 3
f 1 3 4
f 1 4 2
f 2 4 6
f 2 6 7
f 2 7 29
f 2 29 56
f 2 56 65
f 2 65 63
f 2 63 37
f 2 37 15
f 2 15 5
f 3 8 9
f 3 9 10
f 3 10 11
f 3 11 12
f 3 12 13
f 3 13 4
f 3 14 30
f 3 30 8
f 4 13 12
f 4 12 11
f 4 11 6
f 5 15 16
f 5 16 17
f 5 17 18
f 5 18 19
f 5 19 20
f 5 20 21
f 5 21 22
f 5 22 23
f 5 23 24
f 5 24 25
f 6 26 27
f 6 27 28
f 6 28 7
f 6 11 10
f 6 10 9
f 6 9 8
f 6 8 26
f 7 28 29
f 8 30 24
f 8 24 47
f 8 47 71
f 8 71 93
f 8 93 92
f 8 92 107
f 8 107 116
f 8 116 118
f 8 118 117
f 8 117 122
f 8 122 121
f 8 121 120
f 8 120 119
f 8 119 123
f 8 123 114
f 8 114 102
f 8 102 83
f 8 83 57
f 8 57 31
f 8 31 32
f 8 32 33
f 8 33 34
f 8 34 35
f 8 35 36
f 8 36 26
f 14 25 24
f 14 24 30
f 15 37 16
f 16 37 38
f 16 38 39
f 16 39 17
f 17 40 18
f 17 39 40
f 18 40 19
f 19 41 42
f 19 42 20
f 19 40 41
f 20 42 21
f 21 42 22
f 22 42 43
f 22 43 23
f 23 43 24
f 24 43 44
f 24 44 45
f 24 45 46
f 24 46 47
f 26 36 35
f 26 35 48
f 26 48 27
f 27 49 28
f 27 48 50
f 27 50 49
f 28 51 29
f 28 49 52
f 28 52 53
f 28 53 51
f 29 51 54
f 29 54 55
f 29 55 56
f 31 57 58
f 31 58 32
f 32 58 59
f 32 59 60
f 32 60 61
f 32 61 33
f 33 61 34
f 34 61 62
f 34 62 35
f 35 62 50
f 35 50 48
f 37 63 38
f 38 63 39
f 39 64 40
f 39 63 65
f 39 65 66
f 39 66 79
f 39 79 82
f 39 82 81
f 39 81 101
f 39 101 107
f 39 107 92
f 39 92 64
f 40 67 41
f 40 64 67
f 41 44 43
f 41 43 42
f 41 67 44
f 44 67 68
f 44 68 69
f 44 69 45
f 45 69 70
f 45 70 46
f 46 70 47
f 47 70 71
f 49 50 62
f 49 62 52
f 51 53 72
f 51 72 73
f 51 73 74
f 51 74 54
f 52 75 53
f 52 62 75
f 53 75 76
f 53 76 77
f 53 77 72
f 54 74 78
f 54 78 55
f 55 78 56
f 56 79 65
f 56 78 80
f 56 80 81
f 56 81 82
f 56 82 79
f 57 83 84
f 57 84 85
f 57 85 86
f 57 86 87
f 57 87 58
f 58 87 59
f 59 87 88
f 59 88 89
f 59 89 60
f 60 89 90
f 60 90 91
f 60 91 61
f 61 91 75
f 61 75 62
f 64 92 67
f 65 79 66
f 67 92 68
f 68 92 69
f 69 92 70
f 70 93 71
f 70 92 93
f 72 77 94
f 72 94 81
f 72 81 73
f 73 81 74
f 74 81 78
f 75 91 76
f 76 95 96
f 76 96 97
f 76 97 77
f 76 91 95
f 77 97 98
f 77 98 99
f 77 99 100
f 77 100 94
f 78 81 80
f 81 94 101
f 83 102 103
f 83 103 84
f 84 103 104
f 84 104 105
f 84 105 86
f 84 86 85
f 86 105 87
f 87 105 106
f 87 106 88
f 88 106 89
f 89 106 96
f 89 96 95
f 89 95 90
f 90 95 91
f 94 100 101
f 96 108 97
f 96 106 105
f 96 105 108
f 97 108 104
f 97 104 109
f 97 109 98
f 98 109 110
f 98 110 111
f 98 111 99
f 99 111 112
f 99 112 113
f 99 113 100
f 100 113 101
f 101 113 112
f 101 112 107
f 102 114 103
f 103 115 104
f 103 114 115
f 104 115 109
f 104 108 105
f 107 112 116
f 109 115 110
f 110 117 118
f 110 118 111
f 110 115 119
f 110 119 120
f 110 120 121
f 110 121 122
f 110 122 117
f 111 118 116
f 111 116 112
f 114 123 115
f 115 123 119

