# https://github.com/mikedh/trimesh
v 0.03815258 -0.04071383 0.02984240
v 0.05300073 -0.04071383 0.02078046
v 0.03815258 -0.04071383 0.03352622
v 0.03815258 -0.02094478 0.03149588
v 0.03872468 -0.00117574 0.03174555
v 0.04937172 0.00967554 0.02445956
v 0.05653520 -0.04071383 0.01917095
v 0.05039230 0.00967554 0.02384088
v 0.05103471 0.00967554 0.02346245
v 0.05166258 0.00967554 0.02315154
v 0.05289407 0.00967554 0.02256270
v 0.05423222 0.00967554 0.02194559
v 0.03911013 -0.04071383 0.03351994
v 0.03911013 -0.04067930 0.03354035
v 0.03815258 -0.04068424 0.03354349
v 0.03815258 -0.02094478 0.03489391
v 0.03872468 -0.00117574 0.03469292
v 0.04136220 0.00550766 0.03285258
v 0.04136220 0.00540408 0.03183819
v 0.04136220 0.00533503 0.03166389
v 0.04204825 0.00590225 0.03079397
v 0.04185916 0.00517226 0.03065265
v 0.04881658 0.00967554 0.02530750
v 0.05743457 -0.04071383 0.01885218
v 0.05540310 0.00967554 0.02142740
v 0.05633157 0.00967554 0.02105211
v 0.05695701 0.00967554 0.02082756
v 0.03986163 -0.04071383 0.03346969
v 0.03995132 -0.04063984 0.03351365
v 0.03911013 -0.03995424 0.03387167
v 0.03815258 -0.03995424 0.03388738
v 0.03815258 -0.03117951 0.03489391
v 0.04036343 -0.02093985 0.03449349
v 0.04036343 -0.01363497 0.03448407
v 0.04036343 -0.01112931 0.03447779
v 0.04036343 -0.00988142 0.03447465
v 0.04036343 -0.00117574 0.03444796
v 0.03911013 -0.00117574 0.03464424
v 0.03906892 -0.00117574 0.03465052
v 0.04136220 0.00391450 0.03412605
v 0.04136220 0.00468395 0.03389680
v 0.04136220 0.00489604 0.03379944
v 0.04136220 0.00539421 0.03307241
v 0.04204825 0.00590225 0.03138125
v 0.04979353 0.00967554 0.02672701
v 0.04917536 0.00967554 0.02648205
v 0.05743457 -0.04071383 0.02287518
v 0.05790971 0.00967554 0.02054178
v 0.06114843 0.00967554 0.01971268
v 0.06177387 0.00967554 0.01957450
v 0.06224174 0.00967554 0.01947715
v 0.06291324 0.00967554 0.01933896
v 0.06291324 0.00391450 0.01933896
v 0.06291324 -0.00117574 0.01934053
v 0.04001435 -0.04071383 0.03345556
v 0.04078767 -0.04050667 0.03344456
v 0.04036828 -0.04003316 0.03370994
v 0.03911013 -0.03870141 0.03430506
v 0.03815258 -0.03870141 0.03431920
v 0.03815258 -0.03243727 0.03489234
v 0.04036343 -0.03494293 0.03449349
v 0.04161674 -0.02094478 0.03411506
v 0.04161674 -0.01739346 0.03411035
v 0.04161674 -0.01489273 0.03410564
v 0.04161674 -0.01112931 0.03409622
v 0.04161674 -0.00988142 0.03409308
v 0.04161674 0.00266167 0.03405696
v 0.04136220 0.00366294 0.03413077
v 0.04161674 0.00391450 0.03405225
v 0.04239491 0.00470861 0.03358589
v 0.04161674 0.00487631 0.03376333
v 0.05289407 0.00967554 0.02657470
v 0.05238256 0.00967554 0.02668462
v 0.05164319 0.00967554 0.02683850
v 0.05112683 0.00967554 0.02688404
v 0.05038018 0.00967554 0.02685263
v 0.05743457 -0.04006275 0.02322220
v 0.04343731 -0.04049680 0.03218208
v 0.04330398 -0.04071383 0.03212555
v 0.06291324 -0.00117574 0.02306832
v 0.06291324 0.00967554 0.02306832
v 0.04064707 -0.04071383 0.03333779
v 0.04171856 -0.04003316 0.03333151
v 0.04136705 -0.03966816 0.03361886
v 0.04168219 -0.04071383 0.03296564
v 0.04036343 -0.03870141 0.03416845
v 0.03911013 -0.03744858 0.03454688
v 0.03815258 -0.03841040 0.03437730
v 0.03815258 -0.03369010 0.03486250
v 0.04036343 -0.03619575 0.03448407
v 0.04161674 -0.03619575 0.03410721
v 0.04161674 -0.03494293 0.03411506
v 0.04253793 -0.02491536 0.03366911
v 0.04253551 -0.02094478 0.03366911
v 0.04252824 -0.01614063 0.03366754
v 0.04247248 0.00391450 0.03364085
v 0.05743457 -0.03948073 0.02344989
v 0.04366760 -0.03965830 0.03236737
v 0.04295974 -0.04002822 0.03268456
v 0.04268096 -0.04071383 0.03250084
v 0.04300095 -0.04071383 0.03232026
v 0.06291324 0.00014121 0.02306989
v 0.04253793 -0.03494293 0.03366911
v 0.04253551 -0.03619575 0.03366597
v 0.05743457 -0.03619575 0.02456791
v 0.05743457 -0.03671859 0.02443758
v 0.05743457 -0.03752257 0.02419105
v 0.06291324 0.00642509 0.02307146
v 0.04220340 -0.03925877 0.03346341
v 0.04171856 -0.03878526 0.03375704
v 0.04036343 -0.03744858 0.03440399
v 0.03911013 -0.03619575 0.03463639
v 0.03815258 -0.03619575 0.03466779
v 0.03815258 -0.03744858 0.03456102
v 0.04161674 -0.03744858 0.03403184
v 0.04248460 -0.03744858 0.03362828
v 0.06291324 0.00515746 0.02307146
v 0.04237551 -0.03843013 0.03355762
v 0.04282399 -0.03878526 0.03318704
f 1 2 7
f 1 7 24
f 1 24 47
f 1 47 79
f 1 79 101
f 1 101 100
f 1 100 85
f 1 85 82
f 1 82 55
f 1 55 28
f 1 28 13
f 1 13 3
f 1 3 15
f 1 15 31
f 1 31 59
f 1 59 88
f 1 88 114
f 1 114 113
f 1 113 89
f 1 89 60
f 1 60 32
f 1 32 16
f 1 16 4
f 1 4 5
f 1 5 6
f 1 6 2
f 2 6 8
f 2 8 9
f 2 9 10
f 2 10 11
f 2 11 12
f 2 12 7
f 3 13 14
f 3 14 15
f 4 16 17
f 4 17 5
f 5 17 18
f 5 18 19
f 5 19 20
f 5 20 21
f 5 21 22
f 5 22 6
f 6 22 21
f 6 21 23
f 6 23 46
f 6 46 45
f 6 45 76
f 6 76 75
f 6 75 74
f 6 74 73
f 6 73 72
f 6 72 81
f 6 81 52
f 6 52 51
f 6 51 50
f 6 50 49
f 6 49 48
f 6 48 27
f 6 27 26
f 6 26 25
f 6 25 12
f 6 12 11
f 6 11 10
f 6 10 9
f 6 9 8
f 7 12 25
f 7 25 26
f 7 26 27
f 7 27 24
f 13 28 29
f 13 29 14
f 14 29 30
f 14 30 31
f 14 31 15
f 16 32 61
f 16 61 33
f 16 33 34
f 16 34 35
f 16 35 36
f 16 36 37
f 16 37 38
f 16 38 39
f 16 39 17
f 17 39 40
f 17 40 41
f 17 41 42
f 17 42 43
f 17 43 18
f 18 44 21
f 18 21 19
f 18 43 45
f 18 45 46
f 18 46 23
f 18 23 44
f 19 21 20
f 21 44 23
f 24 27 48
f 24 48 49
f 24 49 50
f 24 50 51
f 24 51 52
f 24 52 53
f 24 53 54
f 24 54 80
f 24 80 47
f 28 55 29
f 29 56 57
f 29 57 30
f 29 55 56
f 30 57 58
f 30 58 31
f 31 58 59
f 32 60 61
f 33 62 34
f 33 61 92
f 33 92 62
f 34 63 64
f 34 64 65
f 34 65 35
f 34 62 63
f 35 65 66
f 35 66 36
f 36 66 67
f 36 67 37
f 37 67 68
f 37 68 40
f 37 40 38
f 38 40 39
f 40 68 69
f 40 69 41
f 41 69 70
f 41 70 71
f 41 71 42
f 42 71 72
f 42 72 73
f 42 73 74
f 42 74 75
f 42 75 43
f 43 75 76
f 43 76 45
f 47 77 78
f 47 78 79
f 47 80 77
f 52 81 108
f 52 108 117
f 52 117 102
f 52 102 80
f 52 80 54
f 52 54 53
f 55 82 56
f 56 83 84
f 56 84 57
f 56 82 85
f 56 85 83
f 57 84 86
f 57 86 58
f 58 86 87
f 58 87 88
f 58 88 59
f 60 89 90
f 60 90 61
f 61 90 91
f 61 91 92
f 62 93 94
f 62 94 95
f 62 95 63
f 62 92 103
f 62 103 93
f 63 95 64
f 64 95 65
f 65 95 66
f 66 95 96
f 66 96 67
f 67 96 69
f 67 69 68
f 69 96 70
f 70 96 81
f 70 81 71
f 71 81 72
f 77 97 98
f 77 98 99
f 77 99 78
f 77 80 97
f 78 99 100
f 78 100 101
f 78 101 79
f 80 102 103
f 80 103 104
f 80 104 105
f 80 105 106
f 80 106 107
f 80 107 97
f 81 96 95
f 81 95 94
f 81 94 108
f 83 85 100
f 83 100 109
f 83 109 84
f 84 109 110
f 84 110 86
f 86 110 111
f 86 111 87
f 87 111 112
f 87 112 89
f 87 89 113
f 87 113 114
f 87 114 88
f 89 112 90
f 90 112 111
f 90 111 115
f 90 115 91
f 91 115 116
f 91 116 104
f 91 104 92
f 92 104 103
f 93 103 117
f 93 117 108
f 93 108 94
f 97 107 98
f 98 107 109
f 98 109 99
f 99 109 100
f 102 117 103
f 104 116 105
f 105 116 118
f 105 118 119
f 105 119 109
f 105 109 106
f 106 109 107
f 109 119 118
f 109 118 110
f 110 118 115
f 110 115 111
f 115 118 116

