# https://github.com/mikedh/trimesh
v 0.00776253 0.00785275 0.03463221
v 0.00904197 0.00785275 0.03411516
v 0.00776253 0.02021265 0.03460828
v 0.00650939 0.02021265 0.03450774
v 0.00650939 0.00785275 0.03450774
v 0.00776253 -0.02093190 0.02747488
v 0.00896797 -0.02093190 0.02736955
v 0.01238614 0.01895755 0.02995481
v 0.01241081 0.02021265 0.02999311
v 0.01241739 0.02146775 0.03001705
v 0.01241739 0.02272284 0.03001705
v 0.00869909 0.02146775 0.03402899
v 0.00909049 -0.02093190 0.02729774
v 0.00957563 -0.02093190 0.02694346
v 0.00961510 -0.02019847 0.02705836
v 0.00964305 -0.01936690 0.02720199
v 0.00776253 0.02146775 0.03457477
v 0.00650939 0.02146775 0.03448380
v 0.00525543 0.02021265 0.03423964
v 0.00525543 0.00785275 0.03423964
v 0.00712033 -0.02093190 0.02733604
v 0.01264433 0.01895755 0.02908827
v 0.01268134 0.02021265 0.02908827
v 0.01268709 0.02146775 0.02908827
v 0.01268709 0.02272284 0.02908827
v 0.01266407 0.02397278 0.02908827
v 0.01239436 0.02397278 0.02996917
v 0.00869909 0.02522788 0.03383749
v 0.00966361 -0.02093190 0.02634023
v 0.00776253 0.02271768 0.03446944
v 0.00650939 0.02271768 0.03440720
v 0.00525543 0.02146775 0.03421570
v 0.00429009 0.02021265 0.03386621
v 0.00429009 0.00785275 0.03386621
v 0.00697890 -0.02093190 0.02729774
v 0.01266489 0.01895755 0.01279156
v 0.00968746 -0.02093190 0.02532049
v 0.01268956 0.02021265 0.01279156
v 0.01268956 0.02271768 0.01279156
v 0.01268380 0.03023278 0.02281183
v 0.01266900 0.02648298 0.02783394
v 0.01255059 0.02522788 0.02908827
v 0.01228089 0.02522788 0.02983991
v 0.00864071 0.02647781 0.03372737
v 0.00776253 0.02397278 0.03434018
v 0.00650939 0.02397278 0.03429709
v 0.00525543 0.02271768 0.03412953
v 0.00429009 0.02146775 0.03384227
v 0.00429009 0.02271768 0.03376568
v 0.00429009 0.00785275 0.03044793
v 0.00431311 -0.01863863 0.01404110
v 0.00438300 -0.01863863 0.01528585
v 0.00531134 -0.02093190 0.02407095
v 0.00533354 -0.02093190 0.02428160
v 0.00544619 -0.02093190 0.02532049
v 0.00549471 -0.02093190 0.02546891
v 0.00573152 -0.02093190 0.02616788
v 0.00583019 -0.02093190 0.02627800
v 0.00635151 -0.02093190 0.02679983
v 0.00645923 -0.02093190 0.02688601
v 0.00968746 -0.02093190 0.01027811
v 0.00966525 -0.01682055 -0.01102156
v 0.00965621 -0.01678955 -0.01170139
v 0.00965621 -0.01555511 -0.01293178
v 0.00966525 -0.01487850 -0.01297965
v 0.00966525 -0.01362340 -0.01303232
v 0.00966525 -0.01237346 -0.01305625
v 0.01268545 0.02396761 0.01279156
v 0.01268216 0.03023278 0.01905363
v 0.00966525 -0.00117054 -0.01305625
v 0.00966525 0.01769728 -0.01305147
v 0.00966525 0.01895238 -0.01303232
v 0.01264598 0.03023278 0.02406616
v 0.01241821 0.03136909 0.02030317
v 0.01241821 0.03136392 0.02155750
v 0.01241821 0.03128128 0.02281183
v 0.01247248 0.02910165 0.02669930
v 0.01247166 0.02784138 0.02794405
v 0.01237956 0.02638484 0.02910263
v 0.01232694 0.02749532 0.02869090
v 0.01217482 0.02589933 0.02973458
v 0.00851737 0.02742818 0.03358854
v 0.00776253 0.02522788 0.03420613
v 0.00525543 0.02397278 0.03400984
v 0.00650939 0.02522788 0.03412474
v 0.00429009 0.02397278 0.03365077
v 0.00429009 0.03182361 0.02671845
v 0.00531217 -0.01612843 -0.01102156
v 0.00432215 -0.01869028 0.01404110
v 0.00433695 0.01769728 -0.01102156
v 0.00434682 0.01769728 -0.01227589
v 0.00447180 -0.01949086 0.01404110
v 0.00519869 -0.02093190 0.01404110
v 0.00966443 -0.02093190 0.00958392
v 0.00841787 -0.01801883 -0.00920709
v 0.00901402 -0.01730089 -0.01102156
v 0.00901402 -0.01697033 -0.01196470
v 0.00901402 -0.01645383 -0.01259186
v 0.00901402 -0.01582370 -0.01313764
v 0.00843761 -0.01428452 -0.01416696
v 0.00858315 -0.01362340 -0.01420047
v 0.00920972 -0.01362340 -0.01365469
v 0.00933141 -0.01237346 -0.01367384
v 0.00935197 -0.00117054 -0.01364033
v 0.01260487 0.02522272 0.01279156
v 0.01256951 0.02772775 0.01404110
v 0.01264762 0.02647265 0.01404110
v 0.01265338 0.03023278 0.01779930
v 0.00966525 0.02020748 -0.01298444
v 0.00965621 0.02092025 -0.01293657
v 0.01241821 0.03129161 0.01905363
v 0.00933141 0.01769728 -0.01367384
v 0.01237627 0.03112117 0.02406616
v 0.01260404 0.03025344 0.02432469
v 0.01172010 0.03181845 0.02030317
v 0.01171106 0.03181845 0.02155750
v 0.01152112 0.03181845 0.02241926
v 0.01152112 0.03176163 0.02281183
v 0.01243794 0.03028443 0.02533486
v 0.01232858 0.02989189 0.02635938
v 0.01232858 0.02876592 0.02759935
v 0.00862673 0.03182361 0.03142936
v 0.00845159 0.03095072 0.03227676
v 0.00858973 0.03024311 0.03243474
v 0.00776253 0.02822876 0.03341619
v 0.00776253 0.02759862 0.03363641
v 0.00776253 0.02647781 0.03396196
v 0.00514031 0.02533635 0.03375131
v 0.00442658 0.02498512 0.03356460
v 0.00429009 0.02415356 0.03362684
v 0.00650939 0.02647781 0.03384227
v 0.00578826 0.02722674 0.03350715
v 0.00551115 0.02647781 0.03360769
v 0.00429009 0.03182361 0.03087880
v 0.00857164 0.03182361 0.02857122
v 0.01134844 0.03181845 0.01922598
v 0.01094882 0.03181845 0.01905363
v 0.01039214 0.03181845 0.01892916
v 0.01026633 0.03181845 0.01891000
v 0.00901402 0.03181845 0.01889085
v 0.00835127 0.03181845 0.01905363
v 0.00776335 0.03181845 0.01933131
v 0.00776335 0.03177712 0.01905363
v 0.00677416 0.03110567 0.01779930
v 0.00699781 0.02467522 -0.00693302
v 0.00471602 0.02199974 -0.01102156
v 0.00448003 0.02121982 -0.01227589
v 0.00434518 0.02020748 -0.01227589
v 0.00548237 -0.01487850 -0.01227589
v 0.00560818 -0.01617492 -0.01236206
v 0.00569287 -0.01699616 -0.01200300
v 0.00559749 -0.01720276 -0.01102156
v 0.00449318 0.01769728 -0.01317594
v 0.00447098 0.01895238 -0.01329563
v 0.00528421 -0.02093190 0.01049355
v 0.00523898 -0.02093190 0.01173352
v 0.00521349 -0.02093190 0.01305008
v 0.00955342 -0.02093190 0.00948817
v 0.00776253 -0.01796201 -0.00986777
v 0.00776253 -0.01771409 -0.01102156
v 0.00901402 -0.02093190 0.00902378
v 0.00776253 -0.01670175 -0.01283603
v 0.00776253 -0.01714078 -0.01220886
v 0.00776253 -0.01607162 -0.01332436
v 0.00802319 -0.01428452 -0.01416696
v 0.00766796 -0.01477003 -0.01398982
v 0.00780940 -0.01362340 -0.01420047
v 0.00870484 -0.01237346 -0.01423399
v 0.01257444 0.02898285 0.01529064
v 0.01244535 0.03029476 0.01651625
v 0.01238367 0.03114183 0.01779930
v 0.00922781 0.01895238 -0.01365469
v 0.00860206 0.01895238 -0.01420526
v 0.00846228 0.01964449 -0.01416696
v 0.00897702 0.02138511 -0.01314243
v 0.00936759 0.02175182 -0.01256793
v 0.00965621 0.02212887 -0.01173011
v 0.01152112 0.03178746 0.01905363
v 0.01169626 0.03181845 0.02006380
v 0.00870484 0.01769728 -0.01423399
v 0.01234503 0.03109018 0.02432469
v 0.01238861 0.03096105 0.02432469
v 0.00868593 0.03182361 0.03125702
v 0.00897044 0.03182361 0.03001226
v 0.00892192 0.03182361 0.03036175
v 0.00890959 0.03182361 0.03040962
v 0.01227185 0.03098688 0.02492313
v 0.00797220 0.03182361 0.03172140
v 0.00776253 0.03182361 0.03176928
v 0.00776253 0.03160151 0.03190812
v 0.00776253 0.03097655 0.03228633
v 0.00776253 0.03024311 0.03262146
v 0.00776253 0.02898801 0.03312415
v 0.00650939 0.02807380 0.03339704
v 0.00650939 0.02744884 0.03357417
v 0.00464613 0.02582702 0.03346885
v 0.00429009 0.02555327 0.03336831
v 0.00429009 0.02510392 0.03346885
v 0.00429009 0.02481468 0.03352630
v 0.00532450 0.02768127 0.03321511
v 0.00488458 0.02647781 0.03338267
v 0.00450305 0.03182361 0.03099370
v 0.00429009 0.03153953 0.03105594
v 0.00867853 0.03182361 0.02881538
v 0.01152112 0.03181845 0.01931216
v 0.01152112 0.03146206 0.01779930
v 0.00844665 0.02460807 -0.00792404
v 0.00826904 0.02460807 -0.00792404
v 0.00781433 0.02474237 -0.00727772
v 0.00743362 0.02456159 -0.00776605
v 0.00702659 0.02340463 -0.01054760
v 0.00553664 0.02218052 -0.01181629
v 0.00517402 0.02180347 -0.01225195
v 0.00453594 0.02098740 -0.01304668
v 0.00448003 0.02020748 -0.01321903
v 0.00576770 -0.01487850 -0.01306104
v 0.00580553 -0.01578754 -0.01300359
v 0.00651021 -0.01662944 -0.01282645
v 0.00651021 -0.01712528 -0.01219929
v 0.00651021 -0.01767794 -0.01102156
v 0.00587953 -0.01801366 -0.00916879
v 0.00531052 -0.02093190 0.01027811
v 0.00525625 0.01895238 -0.01390843
v 0.00651021 -0.01794135 -0.00983904
v 0.00776253 -0.02093190 0.00853545
v 0.00651021 -0.02093190 0.00859290
v 0.00651021 -0.01600447 -0.01319509
v 0.00718282 -0.01362340 -0.01415260
v 0.00651021 -0.01487850 -0.01358288
v 0.00777979 -0.01237346 -0.01423399
v 0.00776335 0.01769728 -0.01427707
v 0.01228254 0.03099721 0.01691361
v 0.00776335 0.01895238 -0.01426271
v 0.00776335 0.01971164 -0.01419090
v 0.00776335 0.02034177 -0.01401376
v 0.00853217 0.02212887 -0.01294614
v 0.00897702 0.02234580 -0.01219929
v 0.00873033 0.02345628 -0.01065292
v 0.00956823 0.02309473 -0.01014544
v 0.00965621 0.02337364 -0.00931242
v 0.00876076 0.03182361 0.02908348
v 0.00652254 0.03182361 0.03165438
v 0.00696328 0.03093006 0.03225760
v 0.00650939 0.02898801 0.03303797
v 0.00514360 0.02910165 0.03262146
v 0.00429009 0.02778973 0.03274593
v 0.00429009 0.02647781 0.03311936
v 0.00429009 0.02878141 0.03241559
v 0.00494379 0.03182361 0.03118520
v 0.00516909 0.03159119 0.03141022
v 0.00429009 0.03126579 0.03120435
v 0.00871964 0.02470105 -0.00725857
v 0.00909460 0.02360090 -0.00973851
v 0.00776335 0.02347177 -0.01070558
v 0.00776335 0.02385915 -0.00977202
v 0.00781597 0.02438082 -0.00841236
v 0.00776335 0.02319803 -0.01133275
v 0.00659572 0.02234063 -0.01225195
v 0.00707100 0.02211337 -0.01292699
v 0.00525625 0.02114751 -0.01319030
v 0.00525625 0.02020748 -0.01370257
v 0.00651021 -0.01362340 -0.01368342
v 0.00559749 -0.02093190 0.00915304
v 0.00602836 0.01895238 -0.01413345
v 0.00665575 0.01895238 -0.01421005
v 0.00681281 0.01969098 -0.01418611
v 0.00776335 0.02146258 -0.01343447
v 0.00644032 0.02014550 -0.01398504
v 0.00776335 0.02213920 -0.01295572
v 0.00776335 0.02262471 -0.01227589
v 0.00528174 0.03182361 0.03131925
v 0.00653077 0.03140524 0.03190812
v 0.00612703 0.03076994 0.03217622
v 0.00653077 0.03031026 0.03245868
v 0.00548731 0.02993838 0.03237250
v 0.00465106 0.02959232 0.03221452
v 0.00429009 0.02885889 0.03238208
v 0.00514360 0.03031026 0.03206611
v 0.00429009 0.03025861 0.03171183
v 0.00659572 0.02149874 -0.01325254
v 0.00429009 0.02935990 0.03214749
f 1 2 3
f 1 3 4
f 1 4 5
f 1 5 6
f 1 6 7
f 1 7 2
f 2 8 9
f 2 9 10
f 2 10 11
f 2 11 12
f 2 12 3
f 2 7 13
f 2 13 14
f 2 14 15
f 2 15 16
f 2 16 8
f 3 12 17
f 3 17 18
f 3 18 4
f 4 18 32
f 4 32 19
f 4 19 20
f 4 20 5
f 5 20 6
f 6 21 35
f 6 35 60
f 6 60 59
f 6 59 58
f 6 58 57
f 6 57 56
f 6 56 55
f 6 55 54
f 6 54 53
f 6 53 93
f 6 93 157
f 6 157 156
f 6 156 155
f 6 155 222
f 6 222 263
f 6 263 226
f 6 226 225
f 6 225 161
f 6 161 158
f 6 158 94
f 6 94 61
f 6 61 37
f 6 37 29
f 6 29 14
f 6 14 13
f 6 13 7
f 6 20 21
f 8 22 23
f 8 23 9
f 8 16 15
f 8 15 22
f 9 23 10
f 10 23 24
f 10 24 25
f 10 25 11
f 11 25 26
f 11 26 27
f 11 27 28
f 11 28 12
f 12 28 17
f 14 29 22
f 14 22 15
f 17 28 30
f 17 30 31
f 17 31 18
f 18 31 32
f 19 32 48
f 19 48 33
f 19 33 34
f 19 34 20
f 20 34 35
f 20 35 21
f 22 36 23
f 22 29 37
f 22 37 36
f 23 38 24
f 23 36 38
f 24 38 39
f 24 39 25
f 25 39 40
f 25 40 41
f 25 41 26
f 26 42 27
f 26 41 42
f 27 42 43
f 27 43 44
f 27 44 28
f 28 44 45
f 28 45 30
f 30 45 46
f 30 46 31
f 31 46 47
f 31 47 32
f 32 47 49
f 32 49 48
f 33 48 49
f 33 49 86
f 33 86 130
f 33 130 199
f 33 199 198
f 33 198 197
f 33 197 247
f 33 247 246
f 33 246 248
f 33 248 277
f 33 277 281
f 33 281 279
f 33 279 251
f 33 251 203
f 33 203 134
f 33 134 87
f 33 87 50
f 33 50 34
f 34 50 51
f 34 51 52
f 34 52 53
f 34 53 54
f 34 54 55
f 34 55 56
f 34 56 57
f 34 57 58
f 34 58 59
f 34 59 60
f 34 60 35
f 36 37 61
f 36 61 62
f 36 62 63
f 36 63 64
f 36 64 65
f 36 65 38
f 38 65 66
f 38 66 67
f 38 67 70
f 38 70 39
f 39 68 69
f 39 69 40
f 39 70 71
f 39 71 72
f 39 72 68
f 40 73 41
f 40 69 74
f 40 74 75
f 40 75 76
f 40 76 73
f 41 73 77
f 41 77 78
f 41 78 42
f 42 79 43
f 42 78 80
f 42 80 79
f 43 79 80
f 43 80 81
f 43 81 82
f 43 82 44
f 44 83 45
f 44 82 83
f 45 83 46
f 46 84 47
f 46 83 85
f 46 85 84
f 47 84 86
f 47 86 49
f 50 87 51
f 51 88 89
f 51 89 52
f 51 87 90
f 51 90 91
f 51 91 88
f 52 89 92
f 52 92 53
f 53 92 93
f 61 94 63
f 61 63 62
f 63 94 95
f 63 95 96
f 63 96 97
f 63 97 98
f 63 98 64
f 64 98 99
f 64 99 100
f 64 100 101
f 64 101 102
f 64 102 103
f 64 103 65
f 65 103 66
f 66 103 67
f 67 103 104
f 67 104 70
f 68 105 106
f 68 106 107
f 68 107 108
f 68 108 69
f 68 72 109
f 68 109 110
f 68 110 105
f 69 108 111
f 69 111 74
f 70 104 71
f 71 104 112
f 71 112 72
f 72 112 109
f 73 76 113
f 73 113 114
f 73 114 77
f 74 111 115
f 74 115 75
f 75 115 116
f 75 116 76
f 76 116 117
f 76 117 118
f 76 118 113
f 77 114 119
f 77 119 120
f 77 120 121
f 77 121 78
f 78 121 80
f 80 121 122
f 80 122 123
f 80 123 81
f 81 123 124
f 81 124 82
f 82 125 126
f 82 126 127
f 82 127 83
f 82 124 123
f 82 123 125
f 83 127 85
f 84 85 128
f 84 128 129
f 84 129 130
f 84 130 86
f 85 127 131
f 85 131 132
f 85 132 133
f 85 133 128
f 87 134 202
f 87 202 249
f 87 249 271
f 87 271 242
f 87 242 189
f 87 189 188
f 87 188 122
f 87 122 183
f 87 183 186
f 87 186 185
f 87 185 184
f 87 184 241
f 87 241 204
f 87 204 135
f 87 135 136
f 87 136 137
f 87 137 138
f 87 138 139
f 87 139 140
f 87 140 141
f 87 141 142
f 87 142 143
f 87 143 144
f 87 144 145
f 87 145 146
f 87 146 147
f 87 147 148
f 87 148 90
f 88 149 150
f 88 150 151
f 88 151 152
f 88 152 92
f 88 92 89
f 88 91 153
f 88 153 149
f 90 148 91
f 91 148 154
f 91 154 153
f 92 152 155
f 92 155 156
f 92 156 157
f 92 157 93
f 94 158 95
f 95 159 160
f 95 160 96
f 95 158 161
f 95 161 159
f 96 160 97
f 97 162 98
f 97 160 163
f 97 163 162
f 98 162 99
f 99 162 164
f 99 164 100
f 100 165 167
f 100 167 101
f 100 164 166
f 100 166 165
f 101 167 230
f 101 230 168
f 101 168 102
f 102 168 103
f 103 168 180
f 103 180 112
f 103 112 104
f 105 110 106
f 106 169 107
f 106 110 169
f 107 169 108
f 108 169 170
f 108 170 171
f 108 171 111
f 109 112 110
f 110 112 172
f 110 172 173
f 110 173 174
f 110 174 175
f 110 175 176
f 110 176 177
f 110 177 169
f 111 171 178
f 111 178 179
f 111 179 115
f 112 180 172
f 113 181 182
f 113 182 114
f 113 118 183
f 113 183 181
f 114 182 119
f 115 179 184
f 115 184 116
f 116 184 185
f 116 185 117
f 117 185 186
f 117 186 183
f 117 183 118
f 119 182 181
f 119 181 187
f 119 187 120
f 120 187 122
f 120 122 121
f 122 188 123
f 122 187 181
f 122 181 183
f 123 188 189
f 123 189 190
f 123 190 191
f 123 191 192
f 123 192 193
f 123 193 125
f 125 194 126
f 125 193 194
f 126 194 127
f 127 194 195
f 127 195 131
f 128 133 196
f 128 196 129
f 129 196 197
f 129 197 198
f 129 198 199
f 129 199 130
f 131 195 132
f 132 195 194
f 132 194 200
f 132 200 201
f 132 201 133
f 133 201 196
f 134 203 202
f 135 204 205
f 135 205 136
f 136 205 178
f 136 178 137
f 137 178 138
f 138 178 206
f 138 206 207
f 138 207 139
f 139 207 140
f 140 207 208
f 140 208 141
f 141 208 143
f 141 143 142
f 143 208 209
f 143 209 210
f 143 210 145
f 143 145 144
f 145 210 211
f 145 211 212
f 145 212 146
f 146 213 214
f 146 214 147
f 146 212 213
f 147 214 148
f 148 214 215
f 148 215 154
f 149 216 217
f 149 217 150
f 149 153 154
f 149 154 216
f 150 217 151
f 151 218 219
f 151 219 220
f 151 220 221
f 151 221 152
f 151 217 218
f 152 221 222
f 152 222 155
f 154 215 223
f 154 223 216
f 159 224 160
f 159 161 225
f 159 225 226
f 159 226 224
f 160 224 220
f 160 220 219
f 160 219 163
f 162 163 219
f 162 219 218
f 162 218 164
f 164 227 166
f 164 218 227
f 165 228 167
f 165 166 228
f 166 227 229
f 166 229 228
f 167 228 230
f 168 231 180
f 168 230 231
f 169 177 170
f 170 232 171
f 170 177 232
f 171 232 178
f 172 180 173
f 173 180 233
f 173 233 174
f 174 234 235
f 174 235 236
f 174 236 175
f 174 233 234
f 175 236 176
f 176 236 237
f 176 237 177
f 177 237 238
f 177 238 239
f 177 239 240
f 177 240 232
f 178 205 179
f 178 232 206
f 179 205 241
f 179 241 184
f 180 231 233
f 189 242 243
f 189 243 190
f 190 243 191
f 191 243 192
f 192 244 193
f 192 243 244
f 193 244 194
f 194 244 245
f 194 245 200
f 196 201 246
f 196 246 247
f 196 247 197
f 200 248 246
f 200 246 201
f 200 245 248
f 202 203 250
f 202 250 249
f 203 251 250
f 204 241 205
f 206 232 207
f 207 232 252
f 207 252 253
f 207 253 238
f 207 238 254
f 207 254 255
f 207 255 208
f 208 255 256
f 208 256 210
f 208 210 209
f 210 256 255
f 210 255 211
f 211 255 254
f 211 254 257
f 211 257 258
f 211 258 212
f 212 258 213
f 213 258 259
f 213 259 214
f 214 259 260
f 214 260 261
f 214 261 215
f 215 261 223
f 216 262 229
f 216 229 217
f 216 223 262
f 217 227 218
f 217 229 227
f 220 224 221
f 221 224 226
f 221 226 263
f 221 263 222
f 223 261 264
f 223 264 228
f 223 228 262
f 228 229 262
f 228 264 230
f 230 264 265
f 230 265 231
f 231 265 233
f 232 240 253
f 232 253 252
f 233 265 266
f 233 266 234
f 234 266 235
f 235 267 236
f 235 266 268
f 235 268 267
f 236 267 269
f 236 269 270
f 236 270 257
f 236 257 238
f 236 238 237
f 238 257 254
f 238 253 239
f 239 253 240
f 242 271 272
f 242 272 243
f 243 273 274
f 243 274 244
f 243 272 273
f 244 274 273
f 244 273 275
f 244 275 245
f 245 275 276
f 245 276 248
f 248 276 277
f 249 250 271
f 250 251 278
f 250 278 273
f 250 273 271
f 251 279 276
f 251 276 278
f 257 270 259
f 257 259 258
f 259 269 267
f 259 267 280
f 259 280 260
f 259 270 269
f 260 280 268
f 260 268 261
f 261 268 266
f 261 266 264
f 264 266 265
f 267 268 280
f 271 273 272
f 273 278 275
f 275 278 276
f 276 281 277
f 276 279 281

