# https://github.com/mikedh/trimesh
v -0.00640727 0.00012954 0.00284163
v -0.00640727 0.00012954 0.00193201
v -0.01002556 0.00012954 0.00284861
v -0.00135045 0.00000009 0.00284163
v -0.00121782 0.00000009 0.00283939
v 0.00089346 0.00000242 0.00215934
v -0.01003304 0.00012954 0.00193201
v 0.00089346 0.00000242 0.00085761
v -0.01003304 0.00012954 0.00284861
v -0.00996352 -0.00074713 0.00284861
v -0.00135045 -0.00090318 0.00284163
v -0.00996139 -0.00102036 0.00284861
v -0.00121782 -0.00090318 0.00283939
v 0.00089346 -0.00013960 0.00215934
v -0.01003304 -0.00192568 -0.00000258
v -0.00289809 0.00000009 0.00092072
v -0.00315585 0.00000009 0.00094642
v -0.00315585 -0.00094029 -0.00000035
v 0.00089346 -0.00085321 -0.00000454
v -0.00289809 -0.00091370 -0.00000035
v -0.01003304 -0.00120330 0.00284861
v -0.00135045 -0.00107063 0.00283939
v -0.00121996 -0.00105748 0.00283855
v -0.00997743 -0.00115566 0.00284861
v 0.00089346 -0.00016034 0.00215571
v -0.01003304 -0.00284852 -0.00000258
v -0.00016646 -0.00091312 -0.00000454
v 0.00089346 -0.00216355 -0.00000454
v -0.01003304 -0.00130762 0.00284163
v -0.00470348 -0.00126203 0.00283660
v -0.00444572 -0.00125648 0.00283632
v -0.00160821 -0.00120096 0.00283213
v -0.00135045 -0.00119950 0.00283073
v -0.00135045 -0.00141925 0.00279778
v -0.00135045 -0.00167641 0.00274472
v -0.00117290 -0.00188301 0.00262546
v 0.00089346 -0.00064515 0.00201495
v -0.01003304 -0.00285583 0.00090313
v -0.00016646 -0.00206536 -0.00000454
v -0.00640727 -0.00284151 -0.00000258
v -0.00135045 -0.00284151 -0.00000035
v 0.00089346 -0.00217056 0.00008707
v -0.00121782 -0.00283946 -0.00000035
v -0.01003304 -0.00131756 0.00284051
v -0.01003304 -0.00141954 0.00282850
v -0.01003304 -0.00158260 0.00280755
v -0.00160821 -0.00141925 0.00280169
v -0.00160821 -0.00167641 0.00274723
v -0.00135045 -0.00192217 0.00264864
v 0.00089346 -0.00139558 0.00164881
v 0.00089346 -0.00091896 0.00192837
v -0.00135045 -0.00205133 0.00257044
v -0.00119322 -0.00234356 0.00234367
v -0.00135045 -0.00284151 0.00090313
v -0.01003304 -0.00285349 0.00117571
v 0.00089346 -0.00217144 0.00012924
v -0.00121782 -0.00283946 0.00090313
v -0.01003304 -0.00167349 0.00278800
v -0.01003304 -0.00184678 0.00272517
v -0.01003304 -0.00193444 0.00269081
v -0.01003304 -0.00210130 0.00260452
v 0.00089346 -0.00142422 0.00162005
v -0.00135045 -0.00219219 0.00247493
v -0.00135045 -0.00235496 0.00235512
v -0.00135045 -0.00247477 0.00219230
v -0.00135045 -0.00257003 0.00205098
v -0.00117290 -0.00262526 0.00188285
v 0.00089346 -0.00167261 0.00135277
v 0.00089346 -0.00164426 0.00139076
v -0.00121996 -0.00283859 0.00105757
v -0.00135045 -0.00283946 0.00107014
v -0.01003304 -0.00285291 0.00121006
v 0.00089346 -0.00214718 0.00034764
v -0.01003304 -0.00218605 0.00254279
v -0.01003304 -0.00223017 0.00250956
v -0.01003304 -0.00238009 0.00238053
v -0.01003304 -0.00246483 0.00228334
v -0.01003304 -0.00250896 0.00223112
v -0.01003304 -0.00260510 0.00210181
v -0.00135045 -0.00264835 0.00192167
v 0.00089346 -0.00192480 0.00092408
v -0.00135045 -0.00274449 0.00167646
v -0.00135045 -0.00279768 0.00141896
v -0.00135045 -0.00283070 0.00119889
v -0.00160821 -0.00283187 0.00119945
v -0.00264032 -0.00283420 0.00121481
v -0.00521901 -0.00283713 0.00127458
v -0.00547677 -0.00283713 0.00127988
v -0.01003304 -0.00284209 0.00131786
v -0.01003304 -0.00266617 0.00198395
v -0.00160821 -0.00274683 0.00167646
v -0.01003304 -0.00269131 0.00193424
v -0.00160821 -0.00280118 0.00141896
v -0.01003304 -0.00278832 0.00167395
v -0.01003304 -0.00282894 0.00142287
f 1 2 7
f 1 7 9
f 1 9 3
f 1 3 4
f 1 4 5
f 1 5 6
f 1 6 8
f 1 8 2
f 2 8 7
f 3 9 21
f 3 21 24
f 3 24 12
f 3 12 10
f 3 10 4
f 4 11 13
f 4 13 5
f 4 10 12
f 4 12 11
f 5 13 14
f 5 14 6
f 6 14 25
f 6 25 37
f 6 37 51
f 6 51 50
f 6 50 62
f 6 62 69
f 6 69 68
f 6 68 81
f 6 81 73
f 6 73 56
f 6 56 42
f 6 42 28
f 6 28 19
f 6 19 8
f 7 15 26
f 7 26 38
f 7 38 55
f 7 55 72
f 7 72 89
f 7 89 95
f 7 95 94
f 7 94 92
f 7 92 90
f 7 90 79
f 7 79 78
f 7 78 77
f 7 77 76
f 7 76 75
f 7 75 74
f 7 74 61
f 7 61 60
f 7 60 59
f 7 59 58
f 7 58 46
f 7 46 45
f 7 45 44
f 7 44 29
f 7 29 21
f 7 21 9
f 7 8 16
f 7 16 17
f 7 17 18
f 7 18 15
f 8 19 20
f 8 20 16
f 11 22 23
f 11 23 13
f 11 12 24
f 11 24 21
f 11 21 22
f 13 23 14
f 14 23 25
f 15 18 27
f 15 27 39
f 15 39 26
f 16 20 17
f 17 20 18
f 18 20 27
f 19 28 39
f 19 39 27
f 19 27 20
f 21 29 30
f 21 30 22
f 22 30 31
f 22 31 32
f 22 32 33
f 22 33 23
f 23 33 34
f 23 34 35
f 23 35 36
f 23 36 25
f 25 36 37
f 26 39 28
f 26 28 40
f 26 40 41
f 26 41 38
f 28 42 43
f 28 43 40
f 29 44 30
f 30 44 45
f 30 45 46
f 30 46 47
f 30 47 31
f 31 47 32
f 32 47 33
f 33 47 34
f 34 47 35
f 35 47 48
f 35 48 49
f 35 49 36
f 36 50 51
f 36 51 37
f 36 49 52
f 36 52 53
f 36 53 50
f 38 54 55
f 38 41 54
f 40 43 41
f 41 43 57
f 41 57 54
f 42 56 43
f 43 56 57
f 46 58 48
f 46 48 47
f 48 58 59
f 48 59 60
f 48 60 49
f 49 60 61
f 49 61 52
f 50 53 62
f 52 63 53
f 52 61 63
f 53 63 64
f 53 64 65
f 53 65 66
f 53 66 67
f 53 67 68
f 53 68 69
f 53 69 62
f 54 57 70
f 54 70 71
f 54 71 55
f 55 71 72
f 56 73 70
f 56 70 57
f 61 74 63
f 63 74 64
f 64 74 75
f 64 75 76
f 64 76 77
f 64 77 78
f 64 78 79
f 64 79 65
f 65 79 66
f 66 80 67
f 66 79 80
f 67 73 81
f 67 81 68
f 67 80 82
f 67 82 70
f 67 70 73
f 70 82 83
f 70 83 84
f 70 84 71
f 71 84 85
f 71 85 86
f 71 86 72
f 72 87 88
f 72 88 89
f 72 86 87
f 79 90 80
f 80 91 82
f 80 90 92
f 80 92 91
f 82 91 93
f 82 93 83
f 83 93 84
f 84 93 85
f 85 93 87
f 85 87 86
f 87 94 88
f 87 93 94
f 88 94 95
f 88 95 89
f 91 92 94
f 91 94 93

