# https://github.com/mikedh/trimesh
v 0.08217614 0.00112202 -0.02744782
v 0.08217614 0.00112202 -0.02448850
v 0.08217614 0.01110582 -0.02744782
v 0.08293025 0.00112202 -0.02728786
v 0.09391274 -0.03137719 -0.02362688
v 0.08551614 -0.03137719 -0.02362688
v 0.09004898 0.03821318 -0.01572871
v 0.08217614 0.00233667 -0.02448668
v 0.08217614 0.01988239 -0.02744418
v 0.08296864 0.02083040 -0.02727695
v 0.08423005 0.01612735 -0.02697883
v 0.08423005 0.00112202 -0.02697883
v 0.08509110 0.00112202 -0.02675161
v 0.08569712 0.00112202 -0.02658256
v 0.08670077 0.00112202 -0.02629899
v 0.08798411 0.00112202 -0.02590635
v 0.08898775 0.00112202 -0.02556825
v 0.09049596 0.00112202 -0.02502292
v 0.09174366 0.00112202 -0.02455031
v 0.09252244 0.00112202 -0.02424128
v 0.09314492 0.00233667 -0.02397589
v 0.09391547 -0.02899974 -0.02362688
v 0.09414308 -0.03137719 -0.02352509
v 0.09800957 -0.03526554 -0.02153645
v 0.09780116 -0.03652462 -0.02153645
v 0.09752420 -0.03728748 -0.02153645
v 0.09739532 -0.03745042 -0.02153645
v 0.09139540 -0.03745042 -0.02153645
v 0.09139540 -0.03745042 -0.02056214
v 0.10804600 -0.03745042 -0.00979917
v 0.09582404 0.03821318 -0.01264396
v 0.09004898 0.03821318 -0.01846080
v 0.08217614 0.02083040 -0.02448668
v 0.08217614 0.02083040 -0.02744236
v 0.08423005 0.02083040 -0.02697702
v 0.09580485 0.03428039 -0.02272164
v 0.08508561 0.02083040 -0.02675161
v 0.08508835 0.01236491 -0.02675161
v 0.08673093 0.02083040 -0.02628990
v 0.08798411 0.02083040 -0.02590454
v 0.08897679 0.02083040 -0.02556462
v 0.09049596 0.01988239 -0.02501747
v 0.09174366 0.02083040 -0.02454849
v 0.09174366 0.00359575 -0.02455031
v 0.09252244 0.01236491 -0.02424128
v 0.09314492 0.00484743 -0.02397589
v 0.09425002 0.00359575 -0.02348691
v 0.09391822 -0.02648898 -0.02362688
v 0.09425551 -0.02398562 -0.02347783
v 0.09425551 -0.03025142 -0.02347419
v 0.09425551 -0.03137719 -0.02347237
v 0.09503978 -0.03137719 -0.02309791
v 0.09513027 -0.03137719 -0.02305429
v 0.09802054 -0.03491744 -0.02153645
v 0.09819056 -0.03526554 -0.02144375
v 0.09809184 -0.03652462 -0.02138195
v 0.09979748 -0.03686532 -0.02036582
v 0.09961924 -0.03745042 -0.02026039
v 0.09767777 -0.03745042 -0.02138376
v 0.10451405 -0.00518822 -0.01018271
v 0.09646846 0.03821318 -0.01230041
v 0.10822698 -0.03745042 -0.00979917
v 0.10836958 0.03821318 -0.00887756
v 0.10183768 0.03821318 -0.01846080
v 0.08835979 0.03428039 -0.02272164
v 0.09762292 0.03428039 -0.02179458
v 0.09580759 0.03367307 -0.02272164
v 0.09515220 0.02083040 -0.02305611
v 0.09425002 0.02083040 -0.02347601
v 0.09314492 0.02083040 -0.02397044
v 0.09251421 0.02083040 -0.02424128
v 0.09049596 0.02083040 -0.02501565
v 0.08913309 0.02083040 -0.02550827
v 0.10238611 0.03745773 -0.01846080
v 0.09516317 0.00359575 -0.02306156
v 0.09537981 -0.00381063 -0.02296158
v 0.09537981 -0.00435130 -0.02296158
v 0.09515220 -0.01953438 -0.02306156
v 0.09514947 -0.02147485 -0.02306156
v 0.09513575 -0.02899974 -0.02305611
v 0.09569242 -0.03137719 -0.02276344
v 0.09804248 -0.03401386 -0.02153645
v 0.09675913 -0.00643990 -0.02226538
v 0.09820701 -0.03401386 -0.02145102
v 0.09926275 -0.03526554 -0.02086388
v 0.09992911 -0.03602840 -0.02044398
v 0.09926275 -0.03401386 -0.02088024
v 0.09933405 -0.03648018 -0.02070210
v 0.10130020 -0.03738377 -0.01926607
v 0.10041722 -0.03648018 -0.02005316
v 0.10147296 -0.03652462 -0.01937332
v 0.10210093 -0.03652462 -0.01897341
v 0.10119326 -0.03745042 -0.01930606
v 0.09675365 0.03821318 -0.01220043
v 0.10916756 -0.03745042 -0.00985915
v 0.10877817 0.03821318 -0.00893209
v 0.10259178 0.03821318 -0.01804999
v 0.09825089 0.03428039 -0.02146556
v 0.09825089 0.03367307 -0.02146738
v 0.09762567 0.03367307 -0.02179458
v 0.09762567 0.03242139 -0.02179639
v 0.09674816 0.01110582 -0.02226538
v 0.09579114 0.00359575 -0.02275981
v 0.10281115 0.03743551 -0.01819541
v 0.10360913 0.03665784 -0.01788457
v 0.10287971 0.03621346 -0.01846080
v 0.09579662 -0.00392913 -0.02275981
v 0.09763115 -0.01145402 -0.02180185
v 0.09821249 -0.03276218 -0.02145284
v 0.09675913 -0.00518822 -0.02226720
v 0.09763663 -0.00643990 -0.02180912
v 0.09998121 -0.03401386 -0.02047670
v 0.09996476 -0.03526554 -0.02046579
v 0.10059272 -0.03526554 -0.02007134
v 0.10158265 -0.03526554 -0.01944239
v 0.10220787 -0.03526554 -0.01904430
v 0.09823717 -0.01953438 -0.02146374
v 0.09926275 -0.03151050 -0.02088388
v 0.10358445 -0.03691716 -0.01786821
v 0.10136328 -0.03745042 -0.01919881
v 0.10370237 -0.03608024 -0.01795001
v 0.10311005 -0.03650981 -0.01828084
v 0.10933483 -0.03745042 -0.00996095
v 0.10980923 0.03743551 -0.01053354
v 0.10930741 0.03821318 -0.00977553
v 0.10971874 -0.00381063 -0.01017908
v 0.10971874 0.00112202 -0.01017908
v 0.10972971 0.00484743 -0.01020634
v 0.10617583 0.03808728 -0.01542332
v 0.10479650 0.03785027 -0.01657942
v 0.10343637 0.03743551 -0.01775915
v 0.10427549 0.03821318 -0.01678119
v 0.09926275 0.03428039 -0.02089660
v 0.09762841 0.01110582 -0.02181094
v 0.09826185 -0.00381063 -0.02146738
v 0.09763938 -0.00381063 -0.02180912
v 0.09674816 0.00359575 -0.02227083
v 0.09675913 -0.00392913 -0.02226901
v 0.10499668 0.03701335 -0.01673029
v 0.10575627 0.03618383 -0.01635220
v 0.10513105 0.03618383 -0.01683027
v 0.10419048 0.03622087 -0.01753192
v 0.10371333 0.03582092 -0.01796455
v 0.10312376 0.03622087 -0.01829720
v 0.10303876 0.03513953 -0.01846080
v 0.10060369 0.03428039 -0.02008225
v 0.10030479 0.03428039 -0.02027129
v 0.09997847 0.03428039 -0.02047488
v 0.09825911 -0.00643990 -0.02146738
v 0.09825637 -0.00894325 -0.02146738
v 0.09825089 -0.01270570 -0.02146556
v 0.09763938 -0.00392913 -0.02180912
v 0.10060643 -0.03276218 -0.02008225
v 0.10159910 -0.03401386 -0.01945330
v 0.09926001 -0.01953438 -0.02089660
v 0.09958633 -0.01953438 -0.02070756
v 0.09967134 -0.00381063 -0.02065848
v 0.09998121 -0.00381063 -0.02047670
v 0.10060643 -0.00267005 -0.02008588
v 0.10222706 -0.03401386 -0.01905521
v 0.10302230 -0.03526554 -0.01848261
v 0.10499394 -0.03730970 -0.01673029
v 0.10344186 -0.03745042 -0.01776823
v 0.10417951 -0.03650981 -0.01751920
v 0.10512282 -0.03652462 -0.01682845
v 0.10374076 -0.03526554 -0.01797728
v 0.10436872 -0.03526554 -0.01753011
v 0.10522154 -0.03526554 -0.01690298
v 0.10980375 -0.03745042 -0.01056081
v 0.10971325 -0.00518822 -0.01018271
v 0.11013007 0.03743551 -0.01116067
v 0.11017943 0.03492475 -0.01115522
v 0.11017120 0.03618383 -0.01115522
v 0.11005054 0.03821318 -0.01130791
v 0.10991618 -0.03745042 -0.01072804
v 0.11017668 -0.03526554 -0.01115703
v 0.11017943 -0.03401386 -0.01115703
v 0.11017668 -0.00518822 -0.01114795
v 0.11017668 -0.00381063 -0.01114795
v 0.10612372 0.03821318 -0.01538333
v 0.10629648 0.03821318 -0.01524518
v 0.10752773 0.03821318 -0.01425995
v 0.10695735 0.03743551 -0.01504886
v 0.10633213 0.03743551 -0.01554511
v 0.10433581 0.03743551 -0.01708112
v 0.09998121 0.03367307 -0.02047488
v 0.09967134 0.00112202 -0.02065848
v 0.09826185 -0.00392913 -0.02146738
v 0.10654328 0.03618383 -0.01573052
v 0.10584951 0.03492475 -0.01642491
v 0.10521880 0.03492475 -0.01689753
v 0.10375173 0.03492475 -0.01799000
v 0.10306892 0.03492475 -0.01846080
v 0.10158539 0.03428039 -0.01945512
v 0.10060369 0.03367307 -0.02008406
v 0.10149764 -0.03137719 -0.01951874
v 0.09998395 0.00112202 -0.02047488
v 0.10060643 0.02615559 -0.02008588
v 0.10159362 -0.00518822 -0.01945875
v 0.10302230 -0.03401386 -0.01850443
v 0.10222706 -0.03137719 -0.01905521
v 0.10375995 0.00379572 -0.01799727
v 0.10375447 -0.03401386 -0.01799000
v 0.10575078 -0.03652462 -0.01634129
v 0.10652957 -0.03652462 -0.01571416
v 0.10632939 -0.03745042 -0.01560328
v 0.10514202 -0.03745042 -0.01655215
v 0.10478279 -0.03745042 -0.01682482
v 0.10584951 -0.03526554 -0.01641764
v 0.10438243 -0.03401386 -0.01753920
v 0.10523799 -0.03401386 -0.01691207
v 0.11013007 0.03743551 -0.01202411
v 0.11019040 0.03367307 -0.01227496
v 0.11018491 0.03492475 -0.01227496
v 0.11017943 0.02083040 -0.01115522
v 0.11005054 0.03821318 -0.01184597
v 0.11011362 -0.03745042 -0.01118794
v 0.11016846 -0.03652462 -0.01115522
v 0.11018491 -0.03401386 -0.01227314
v 0.11018765 -0.02398562 -0.01227314
v 0.10889060 0.03821318 -0.01301661
v 0.10904690 0.03743551 -0.01323837
v 0.10771420 0.03743551 -0.01442355
v 0.10717399 0.03618383 -0.01521064
v 0.10661732 0.03492475 -0.01579778
v 0.10584951 0.03428039 -0.01642854
v 0.10522154 0.03428039 -0.01689934
v 0.10375447 0.03367307 -0.01799000
v 0.10301956 0.03367307 -0.01849716
v 0.10221336 0.03428039 -0.01904612
v 0.10221610 0.03367307 -0.01904612
v 0.10158539 0.03367307 -0.01945694
v 0.10158813 0.02865895 -0.01945875
v 0.10159362 0.00735819 -0.01945875
v 0.10375995 -0.00381063 -0.01799545
v 0.10375721 -0.03151050 -0.01799000
v 0.10221884 0.02615559 -0.01904794
v 0.10301956 0.01236491 -0.01850806
v 0.10375995 0.01486826 -0.01799727
v 0.10438792 -0.00381063 -0.01753738
v 0.10438517 -0.01953438 -0.01753920
v 0.10715479 -0.03652462 -0.01519428
v 0.10636504 -0.03745042 -0.01557420
v 0.10660635 -0.03526554 -0.01579233
v 0.10586321 -0.03401386 -0.01642673
v 0.10523799 -0.03276218 -0.01691389
v 0.11012458 0.03607274 -0.01234585
v 0.10992441 0.03558392 -0.01290754
v 0.10985311 0.03642084 -0.01281120
v 0.10992715 -0.03401386 -0.01290936
v 0.10992715 0.03428039 -0.01291117
v 0.10967212 0.03743551 -0.01264942
v 0.11011362 -0.03745042 -0.01201320
v 0.11016846 -0.03652462 -0.01218043
v 0.11012733 -0.03530257 -0.01239493
v 0.10992441 -0.03490262 -0.01290572
v 0.10790066 0.03618383 -0.01458351
v 0.10724254 0.03492475 -0.01526336
v 0.10724528 0.03428039 -0.01526336
v 0.10724528 0.03367307 -0.01526518
v 0.10661732 0.03428039 -0.01579960
v 0.10585225 0.02991063 -0.01642854
v 0.10523251 -0.00141096 -0.01691207
v 0.10459084 0.02082300 -0.01737742
v 0.10375721 0.01988239 -0.01799727
v 0.10301956 0.01988239 -0.01850625
v 0.10438792 -0.00141096 -0.01753738
v 0.10787873 -0.03652462 -0.01456716
v 0.10723431 -0.03526554 -0.01525427
v 0.10991618 -0.03573955 -0.01289482
v 0.10751401 -0.03745042 -0.01457806
v 0.10661183 -0.03401386 -0.01579960
v 0.10586321 -0.03137719 -0.01643036
v 0.10523799 -0.03137719 -0.01691389
v 0.10937597 0.03607274 -0.01330926
v 0.10992441 0.03492475 -0.01291117
v 0.10795825 0.03492475 -0.01463623
v 0.10795825 -0.03401386 -0.01463260
v 0.10858621 -0.00381063 -0.01408908
v 0.10858621 0.03367307 -0.01408908
v 0.11002861 -0.03745042 -0.01217680
v 0.10857798 -0.03526554 -0.01408000
v 0.10795277 -0.03526554 -0.01462714
v 0.10724528 0.02083040 -0.01526518
v 0.10661732 0.02239315 -0.01580323
v 0.10661732 0.02991063 -0.01580142
v 0.10585499 0.01988239 -0.01643036
v 0.10850669 -0.03652462 -0.01401637
v 0.10816666 -0.03745042 -0.01400728
v 0.10770323 -0.03745042 -0.01441265
v 0.10723980 -0.03401386 -0.01525972
v 0.10984214 -0.03652462 -0.01280575
v 0.10921417 -0.03652462 -0.01339106
v 0.10661183 -0.03137719 -0.01580323
v 0.10586321 -0.01395738 -0.01643036
v 0.10661732 0.02083040 -0.01580323
v 0.10659264 0.00112202 -0.01582323
v 0.10724254 -0.00015928 -0.01526518
v 0.10966664 -0.03745042 -0.01263851
v 0.10903868 -0.03745042 -0.01323292
f 1 2 8
f 1 8 33
f 1 33 34
f 1 34 9
f 1 9 3
f 1 3 4
f 1 4 5
f 1 5 6
f 1 6 2
f 2 7 8
f 2 6 7
f 3 9 10
f 3 10 4
f 4 10 11
f 4 11 12
f 4 12 5
f 5 12 13
f 5 13 14
f 5 14 15
f 5 15 16
f 5 16 17
f 5 17 18
f 5 18 19
f 5 19 20
f 5 20 21
f 5 21 22
f 5 22 23
f 5 23 24
f 5 24 25
f 5 25 26
f 5 26 27
f 5 27 28
f 5 28 6
f 6 28 29
f 6 29 30
f 6 30 7
f 7 31 61
f 7 61 94
f 7 94 63
f 7 63 96
f 7 96 125
f 7 125 174
f 7 174 216
f 7 216 221
f 7 221 182
f 7 182 181
f 7 181 180
f 7 180 132
f 7 132 97
f 7 97 64
f 7 64 32
f 7 32 34
f 7 34 33
f 7 33 8
f 7 30 31
f 9 34 10
f 10 35 11
f 10 34 36
f 10 36 35
f 11 35 37
f 11 37 38
f 11 38 13
f 11 13 12
f 13 38 14
f 14 38 37
f 14 37 39
f 14 39 15
f 15 39 16
f 16 39 40
f 16 40 17
f 17 40 41
f 17 41 42
f 17 42 18
f 18 42 43
f 18 43 44
f 18 44 19
f 19 44 45
f 19 45 20
f 20 45 46
f 20 46 21
f 21 46 47
f 21 47 48
f 21 48 22
f 22 48 23
f 23 48 49
f 23 49 50
f 23 50 51
f 23 51 24
f 24 51 52
f 24 52 53
f 24 53 54
f 24 54 55
f 24 55 25
f 25 56 26
f 25 55 56
f 26 56 57
f 26 57 58
f 26 58 59
f 26 59 27
f 27 59 58
f 27 58 93
f 27 93 120
f 27 120 163
f 27 163 208
f 27 208 207
f 27 207 206
f 27 206 243
f 27 243 271
f 27 271 290
f 27 290 289
f 27 289 300
f 27 300 299
f 27 299 281
f 27 281 253
f 27 253 217
f 27 217 175
f 27 175 169
f 27 169 123
f 27 123 95
f 27 95 62
f 27 62 30
f 27 30 29
f 27 29 28
f 30 60 61
f 30 61 31
f 30 62 63
f 30 63 60
f 32 64 36
f 32 36 65
f 32 65 34
f 34 65 36
f 35 36 37
f 36 66 100
f 36 100 67
f 36 67 68
f 36 68 69
f 36 69 70
f 36 70 71
f 36 71 43
f 36 43 72
f 36 72 73
f 36 73 41
f 36 41 40
f 36 40 39
f 36 39 37
f 36 64 74
f 36 74 66
f 41 73 42
f 42 73 72
f 42 72 43
f 43 71 45
f 43 45 44
f 45 71 70
f 45 70 46
f 46 70 47
f 47 70 69
f 47 69 68
f 47 68 75
f 47 75 76
f 47 76 77
f 47 77 49
f 47 49 48
f 49 77 78
f 49 78 50
f 50 78 79
f 50 79 80
f 50 80 51
f 51 80 52
f 52 80 53
f 53 81 82
f 53 82 54
f 53 80 83
f 53 83 81
f 54 82 84
f 54 84 55
f 55 85 86
f 55 86 56
f 55 84 87
f 55 87 85
f 56 86 88
f 56 88 57
f 57 89 58
f 57 88 86
f 57 86 90
f 57 90 91
f 57 91 92
f 57 92 89
f 58 89 93
f 60 63 94
f 60 94 61
f 62 95 63
f 63 95 96
f 64 97 74
f 66 98 99
f 66 99 100
f 66 74 98
f 67 100 101
f 67 101 102
f 67 102 103
f 67 103 68
f 68 103 75
f 74 97 104
f 74 104 105
f 74 105 106
f 74 106 98
f 75 103 76
f 76 107 77
f 76 103 107
f 77 107 78
f 78 107 79
f 79 107 83
f 79 83 80
f 81 83 108
f 81 108 109
f 81 109 82
f 82 109 84
f 83 107 110
f 83 110 111
f 83 111 108
f 84 109 87
f 85 87 112
f 85 112 113
f 85 113 86
f 86 113 114
f 86 114 115
f 86 115 116
f 86 116 92
f 86 92 91
f 86 91 90
f 87 109 117
f 87 117 118
f 87 118 112
f 89 92 119
f 89 119 120
f 89 120 93
f 92 121 122
f 92 122 119
f 92 116 121
f 95 123 96
f 96 124 125
f 96 123 126
f 96 126 127
f 96 127 128
f 96 128 124
f 97 129 130
f 97 130 131
f 97 131 104
f 97 132 129
f 98 133 99
f 98 106 133
f 99 134 101
f 99 101 100
f 99 133 135
f 99 135 136
f 99 136 134
f 101 134 102
f 102 134 137
f 102 137 103
f 103 137 138
f 103 138 107
f 104 131 105
f 105 131 139
f 105 139 140
f 105 140 141
f 105 141 142
f 105 142 143
f 105 143 144
f 105 144 106
f 106 144 143
f 106 143 145
f 106 145 146
f 106 146 147
f 106 147 148
f 106 148 133
f 107 138 110
f 108 111 109
f 109 111 117
f 110 138 111
f 111 149 150
f 111 150 151
f 111 151 117
f 111 138 152
f 111 152 188
f 111 188 149
f 112 153 154
f 112 154 114
f 112 114 113
f 112 118 155
f 112 155 156
f 112 156 157
f 112 157 187
f 112 187 158
f 112 158 198
f 112 198 159
f 112 159 153
f 114 154 160
f 114 160 115
f 115 160 116
f 116 161 121
f 116 160 161
f 117 151 118
f 118 151 150
f 118 150 155
f 119 162 163
f 119 163 120
f 119 122 121
f 119 121 164
f 119 164 165
f 119 165 162
f 121 165 164
f 121 161 166
f 121 166 167
f 121 167 168
f 121 168 165
f 123 169 170
f 123 170 126
f 124 171 125
f 124 128 172
f 124 172 173
f 124 173 171
f 125 171 174
f 126 170 169
f 126 169 175
f 126 175 176
f 126 176 177
f 126 177 178
f 126 178 179
f 126 179 127
f 127 179 172
f 127 172 128
f 129 132 180
f 129 180 181
f 129 181 182
f 129 182 183
f 129 183 184
f 129 184 130
f 130 184 139
f 130 139 185
f 130 185 131
f 131 185 139
f 133 148 186
f 133 186 187
f 133 187 157
f 133 157 156
f 133 156 155
f 133 155 188
f 133 188 135
f 134 136 138
f 134 138 137
f 135 188 152
f 135 152 136
f 136 152 138
f 139 184 183
f 139 183 189
f 139 189 140
f 140 189 190
f 140 190 143
f 140 143 141
f 141 143 142
f 143 190 191
f 143 191 192
f 143 192 193
f 143 193 145
f 145 193 146
f 146 194 232
f 146 232 195
f 146 195 147
f 146 193 194
f 147 195 186
f 147 186 148
f 149 188 155
f 149 155 150
f 153 196 154
f 153 159 196
f 154 196 160
f 158 187 197
f 158 197 198
f 159 198 234
f 159 234 199
f 159 199 196
f 160 200 161
f 160 196 199
f 160 199 234
f 160 234 201
f 160 201 239
f 160 239 202
f 160 202 200
f 161 200 203
f 161 203 166
f 162 165 204
f 162 204 205
f 162 205 206
f 162 206 207
f 162 207 208
f 162 208 163
f 165 168 209
f 165 209 204
f 166 203 167
f 167 203 210
f 167 210 211
f 167 211 168
f 168 211 209
f 171 173 212
f 171 212 216
f 171 216 174
f 172 213 214
f 172 214 173
f 172 179 178
f 172 178 215
f 172 215 213
f 173 214 212
f 175 217 218
f 175 218 176
f 176 218 219
f 176 219 177
f 177 219 220
f 177 220 213
f 177 213 215
f 177 215 178
f 182 221 222
f 182 222 223
f 182 223 183
f 183 223 224
f 183 224 189
f 186 195 198
f 186 198 197
f 186 197 187
f 189 224 225
f 189 225 190
f 190 225 226
f 190 226 227
f 190 227 191
f 191 227 192
f 192 227 228
f 192 228 229
f 192 229 193
f 193 230 194
f 193 229 231
f 193 231 230
f 194 230 232
f 195 232 233
f 195 233 198
f 198 233 234
f 200 202 235
f 200 235 236
f 200 236 203
f 201 234 233
f 201 233 237
f 201 237 238
f 201 238 239
f 202 239 267
f 202 267 240
f 202 240 241
f 202 241 210
f 202 210 235
f 203 236 210
f 204 209 205
f 205 242 243
f 205 243 206
f 205 209 244
f 205 244 242
f 209 211 245
f 209 245 244
f 210 236 235
f 210 241 246
f 210 246 211
f 211 246 245
f 212 214 247
f 212 247 248
f 212 248 249
f 212 249 216
f 213 220 250
f 213 250 251
f 213 251 248
f 213 248 214
f 214 248 247
f 216 249 252
f 216 252 221
f 217 253 254
f 217 254 218
f 218 254 219
f 219 254 255
f 219 255 256
f 219 256 250
f 219 250 220
f 221 252 222
f 222 252 249
f 222 249 223
f 223 249 257
f 223 257 224
f 224 257 248
f 224 248 258
f 224 258 225
f 225 258 259
f 225 259 260
f 225 260 261
f 225 261 226
f 226 261 262
f 226 262 263
f 226 263 227
f 227 263 264
f 227 264 228
f 228 264 265
f 228 265 229
f 229 265 266
f 229 266 231
f 230 231 232
f 231 266 237
f 231 237 233
f 231 233 232
f 237 266 238
f 238 266 239
f 239 266 265
f 239 265 263
f 239 263 267
f 240 246 241
f 240 267 274
f 240 274 246
f 242 268 243
f 242 244 269
f 242 269 270
f 242 270 268
f 243 268 271
f 244 245 272
f 244 272 269
f 245 246 273
f 245 273 294
f 245 294 272
f 246 274 295
f 246 295 273
f 248 257 275
f 248 275 249
f 248 251 276
f 248 276 277
f 248 277 258
f 249 275 257
f 250 256 278
f 250 278 279
f 250 279 251
f 251 279 280
f 251 280 277
f 251 277 276
f 253 281 254
f 254 281 270
f 254 270 255
f 255 270 256
f 256 270 282
f 256 282 283
f 256 283 278
f 258 277 259
f 259 277 260
f 260 280 279
f 260 279 284
f 260 284 296
f 260 296 285
f 260 285 286
f 260 286 261
f 260 277 280
f 261 286 262
f 262 286 287
f 262 287 263
f 263 265 264
f 263 287 274
f 263 274 267
f 268 288 289
f 268 289 290
f 268 290 271
f 268 270 288
f 269 283 270
f 269 272 291
f 269 291 278
f 269 278 283
f 270 283 282
f 270 281 292
f 270 292 293
f 270 293 288
f 272 294 291
f 273 295 285
f 273 285 296
f 273 296 297
f 273 297 294
f 274 287 295
f 278 291 298
f 278 298 279
f 279 298 284
f 281 299 292
f 284 298 294
f 284 294 297
f 284 297 296
f 285 295 287
f 285 287 286
f 288 293 289
f 289 293 300
f 291 294 298
f 292 299 300
f 292 300 293

