# https://github.com/mikedh/trimesh
v 0.01399074 0.00939503 0.00977983
v 0.01355441 0.00918327 0.01007336
v 0.01355441 0.00894397 0.01036034
v 0.01412733 0.00917268 0.01002985
v 0.01412733 0.00938232 0.00977983
v 0.01354682 0.00933574 0.00977983
v 0.00781381 0.00779198 0.01125683
v 0.00781381 0.00752516 0.01175308
v 0.01470025 0.00913033 0.00998496
v 0.00838674 0.00753151 0.01174479
v 0.01297769 0.00866444 0.01063073
v 0.01297769 0.00833198 0.01091771
v 0.01355441 0.00865809 0.01059482
v 0.01412733 0.00860939 0.01055718
v 0.01470025 0.00856068 0.01051850
v 0.01527317 0.00851198 0.01047913
v 0.01814536 0.00826633 0.01028160
v 0.01871829 0.00821762 0.01024189
v 0.02067608 0.00839762 0.00981332
v 0.01527317 0.00908797 0.00993868
v 0.01584989 0.00904562 0.00989172
v 0.01702608 0.00896938 0.00977983
v 0.01331917 0.00927856 0.00977983
v 0.00781381 0.00779410 0.01068288
v 0.00740784 0.00751668 0.01125683
v 0.00744578 0.00743198 0.01167952
v 0.00748751 0.00677975 0.01215091
v 0.00781381 0.00709104 0.01204005
v 0.02064573 0.00843362 0.00977983
v 0.00895966 0.00752304 0.01171682
v 0.01240477 0.00807362 0.01113182
v 0.01297769 0.00804398 0.01109970
v 0.01355441 0.00799104 0.01106724
v 0.01506829 0.00784915 0.01097918
v 0.01965924 0.00784704 0.01040627
v 0.01871829 0.00792962 0.01046808
v 0.02371522 0.00785339 0.00983819
v 0.02101377 0.00837009 0.00978570
v 0.02102515 0.00837433 0.00977983
v 0.02409843 0.00781951 0.00981125
v 0.02452338 0.00778351 0.00977983
v 0.01720061 0.00894397 0.00977983
v 0.00781381 0.00779410 0.00977983
v 0.00763928 0.00767551 0.00977983
v 0.00740784 0.00751668 0.00977983
v 0.00728642 0.00697245 0.01125683
v 0.00675903 0.00351223 0.01240853
v 0.00750269 0.00448846 0.01270793
v 0.00781381 0.00639857 0.01227972
v 0.00781381 0.00680516 0.01216023
v 0.00675903 0.00295529 0.01259259
v 0.00675903 0.00236024 0.01275697
v 0.00838674 0.00703386 0.01203176
v 0.00953637 0.00750398 0.01168919
v 0.01240477 0.00758021 0.01141879
v 0.01010929 0.00747645 0.01166226
v 0.01355441 0.00754633 0.01131277
v 0.01412733 0.00754633 0.01125061
v 0.01794048 0.00727527 0.01097918
v 0.01832369 0.00723504 0.01095742
v 0.01545150 0.00781104 0.01095604
v 0.02258835 0.00728375 0.01041283
v 0.02159048 0.00737904 0.01047464
v 0.02296777 0.00724774 0.01038865
v 0.02044084 0.00777504 0.01035377
v 0.02560852 0.00739810 0.00992625
v 0.02706548 0.00726469 0.00982541
v 0.02744869 0.00722869 0.00979916
v 0.02772946 0.00720116 0.00977983
v 0.00734713 0.00695763 0.00977983
v 0.00675903 0.00228400 0.00978570
v 0.00675903 0.00237506 0.00978811
v 0.00675903 0.00281977 0.00980055
v 0.00675903 0.00287271 0.00980262
v 0.00675903 0.00317553 0.00986651
v 0.00675903 0.00352494 0.01008718
v 0.00729401 0.00697245 0.01010893
v 0.00728642 0.00697245 0.01068288
v 0.00675903 0.00377058 0.01125683
v 0.00675903 0.00374094 0.01183043
v 0.00781381 0.00295529 0.01291548
v 0.00781381 0.00352917 0.01285608
v 0.00781381 0.00410305 0.01277631
v 0.00781381 0.00450752 0.01271173
v 0.00781381 0.00479340 0.01264992
v 0.00781381 0.00582469 0.01241716
v 0.00838674 0.00582469 0.01239886
v 0.00838674 0.00639857 0.01224380
v 0.00838674 0.00674798 0.01214055
v 0.00675903 0.00180542 0.01280221
v 0.00781381 0.00180542 0.01301148
v 0.00781381 0.00238141 0.01296383
v 0.01240477 0.00639857 0.01191953
v 0.01183185 0.00697245 0.01175032
v 0.01183185 0.00735151 0.01158732
v 0.01125513 0.00740021 0.01161287
v 0.01068221 0.00744045 0.01163705
v 0.01240477 0.00729433 0.01155934
v 0.01270451 0.00726257 0.01154449
v 0.01292837 0.00749127 0.01140740
v 0.02075955 0.00669081 0.01097296
v 0.02113897 0.00664845 0.01095224
v 0.02097582 0.00691951 0.01082067
v 0.02159048 0.00697245 0.01071880
v 0.02216340 0.00697245 0.01065007
v 0.02276288 0.00702328 0.01054785
v 0.02330924 0.00721386 0.01036655
v 0.03000597 0.00670351 0.00983439
v 0.02543019 0.00670775 0.01040937
v 0.03043092 0.00669928 0.00977983
v 0.00675903 -0.00516585 0.00977983
v 0.00675903 0.00171012 0.00978432
v 0.00675903 0.00372611 0.01057617
v 0.00675903 0.00376423 0.01068288
v 0.00838674 0.00180542 0.01300561
v 0.00838674 0.00238141 0.01295519
v 0.00838674 0.00295529 0.01290201
v 0.00838674 0.00352917 0.01283536
v 0.00843985 0.00415811 0.01274005
v 0.00828429 0.00444823 0.01270206
v 0.00838674 0.00525081 0.01253526
v 0.01183185 0.00467693 0.01242683
v 0.01901803 0.00381929 0.01211844
v 0.01183185 0.00525081 0.01228904
v 0.01240477 0.00564893 0.01214745
v 0.01183185 0.00572940 0.01216886
v 0.01183185 0.00601528 0.01209116
v 0.00875477 0.00670351 0.01212466
v 0.00675903 -0.00383597 0.01317207
v 0.00781381 0.00123154 0.01304982
v 0.00838674 0.00123154 0.01304533
v 0.01297769 0.00639857 0.01186807
v 0.01470025 0.00582469 0.01190986
v 0.01527317 0.00582469 0.01186117
v 0.01584989 0.00582469 0.01181144
v 0.01642281 0.00582469 0.01176171
v 0.01355441 0.00639857 0.01181593
v 0.01240477 0.00697245 0.01169782
v 0.01292837 0.00700634 0.01163325
v 0.01355441 0.00687928 0.01162738
v 0.01507967 0.00670563 0.01155244
v 0.01308772 0.00721810 0.01152585
v 0.01412733 0.00710163 0.01147336
v 0.02097582 0.00643457 0.01107138
v 0.02159048 0.00631175 0.01106413
v 0.02159048 0.00659763 0.01092703
v 0.02824168 0.00612328 0.01040212
v 0.02388596 0.00686657 0.01050365
v 0.03019568 0.00644516 0.00996976
v 0.03038918 0.00666540 0.00980918
v 0.02862489 0.00608093 0.01037968
v 0.02962276 0.00639857 0.01006956
v 0.03077240 0.00662939 0.00977983
v 0.00675903 -0.01223875 0.00977983
v 0.00895966 0.00123154 0.01302323
v 0.01010929 0.00123154 0.01297730
v 0.01068221 0.00123154 0.01295416
v 0.01125513 0.00123154 0.01292998
v 0.00895966 0.00180542 0.01298075
v 0.01183185 0.00123154 0.01290443
v 0.00953637 0.00238141 0.01290408
v 0.01068221 0.00238141 0.01285297
v 0.01125513 0.00238141 0.01282604
v 0.00895966 0.00295529 0.01287473
v 0.00953637 0.00295529 0.01284641
v 0.01010929 0.00295529 0.01281740
v 0.01068221 0.00295529 0.01278771
v 0.01125513 0.00295529 0.01275697
v 0.00895966 0.00352917 0.01280428
v 0.00953637 0.00352917 0.01277217
v 0.00953637 0.00393788 0.01271070
v 0.00953637 0.00422588 0.01266615
v 0.00866750 0.00438682 0.01269101
v 0.00843985 0.00465364 0.01265337
v 0.00953637 0.00467693 0.01257912
v 0.01010929 0.00467693 0.01254252
v 0.01068221 0.00467693 0.01250522
v 0.01125513 0.00467693 0.01246689
v 0.02101377 0.00238141 0.01225140
v 0.02159048 0.00238141 0.01221203
v 0.02159048 0.00277318 0.01213744
v 0.02159048 0.00305906 0.01208287
v 0.02273632 0.00295529 0.01201761
v 0.02330924 0.00295529 0.01197375
v 0.02388596 0.00295529 0.01192920
v 0.02159048 0.00352917 0.01198204
v 0.02216340 0.00352917 0.01193611
v 0.02273632 0.00352917 0.01188983
v 0.02101377 0.00410305 0.01188154
v 0.01642281 0.00525081 0.01193921
v 0.01323570 0.00552822 0.01211499
v 0.01285248 0.00558328 0.01213019
v 0.01240477 0.00410305 0.01250729
v 0.01183185 0.00410305 0.01254563
v 0.01240477 0.00593481 0.01206802
v 0.00675903 -0.00440985 0.01319624
v 0.00781381 0.00008378 0.01310645
v 0.00781381 0.00065766 0.01307882
v 0.00838674 0.00065766 0.01307434
v 0.00953637 0.00065766 0.01303359
v 0.01068221 0.00065766 0.01299284
v 0.01125513 0.00065766 0.01297108
v 0.01699573 0.00582469 0.01171026
v 0.01971236 0.00557058 0.01155589
v 0.01699573 0.00525081 0.01189225
v 0.01757244 0.00525081 0.01184287
v 0.02195472 0.00498399 0.01155037
v 0.01412733 0.00639857 0.01176309
v 0.01470025 0.00639857 0.01170957
v 0.01412733 0.00681363 0.01159940
v 0.01546288 0.00666116 0.01153379
v 0.01986792 0.00639857 0.01120192
v 0.02044084 0.00639857 0.01114321
v 0.02311953 0.00613387 0.01098021
v 0.02159048 0.00582469 0.01127479
v 0.02544916 0.00556846 0.01098332
v 0.02962276 0.00568069 0.01046774
v 0.03076860 0.00633928 0.00996078
v 0.03280987 0.00611904 0.00982610
v 0.03060166 0.00556634 0.01041041
v 0.02962276 0.00596657 0.01031959
v 0.03319308 0.00607669 0.00980055
v 0.03317032 0.00611269 0.00977983
v 0.00788970 -0.01223240 0.00977983
v 0.00838674 -0.01214981 0.01010893
v 0.00723710 -0.01215617 0.01010893
v 0.00675903 -0.01215829 0.01010893
v 0.01183185 0.00065766 0.01294829
v 0.01240477 0.00065766 0.01292411
v 0.01297769 0.00065766 0.01289787
v 0.01240477 0.00123154 0.01287749
v 0.01183185 0.00180542 0.01285297
v 0.01240477 0.00180542 0.01282604
v 0.01297769 0.00180542 0.01279772
v 0.01355441 0.00180542 0.01276906
v 0.01183185 0.00238141 0.01279703
v 0.01179770 0.00297435 0.01272278
v 0.01443086 0.00209977 0.01269239
v 0.01158143 0.00325600 0.01269377
v 0.01068221 0.00343176 0.01272002
v 0.01032935 0.00378964 0.01268756
v 0.01012447 0.00407341 0.01265544
v 0.01068221 0.00410305 0.01261780
v 0.01125513 0.00410305 0.01258258
v 0.02101377 0.00180542 0.01234568
v 0.02159048 0.00180542 0.01230838
v 0.02273632 0.00180542 0.01222895
v 0.02330924 0.00180542 0.01218820
v 0.02360140 0.00209553 0.01211775
v 0.02445888 0.00238141 0.01200068
v 0.02503180 0.00238141 0.01195821
v 0.02560852 0.00238141 0.01191435
v 0.02675057 0.00238141 0.01182525
v 0.02503180 0.00295529 0.01183941
v 0.02560852 0.00295529 0.01179314
v 0.02330924 0.00352917 0.01184252
v 0.02159048 0.00410305 0.01183423
v 0.02768393 0.00326235 0.01154933
v 0.00675903 -0.00736607 0.01328948
v 0.00781381 -0.00049010 0.01312890
v 0.00838674 0.00008378 0.01310196
v 0.00895966 0.00008378 0.01308228
v 0.01125513 -0.00049010 0.01303013
v 0.01183185 -0.00049010 0.01300976
v 0.01183185 0.00008378 0.01298075
v 0.01240477 0.00008378 0.01295968
v 0.02009557 0.00551975 0.01153828
v 0.01989069 0.00578657 0.01145643
v 0.01814536 0.00605128 0.01152067
v 0.02159048 0.00467693 0.01167054
v 0.02233793 0.00492893 0.01153379
v 0.02101377 0.00582469 0.01133280
v 0.02583237 0.00552187 0.01096295
v 0.02962276 0.00525081 0.01066803
v 0.02773705 0.00499458 0.01098263
v 0.03019568 0.00525081 0.01060380
v 0.03019568 0.00561293 0.01043458
v 0.03559480 0.00552399 0.00981505
v 0.03553789 0.00559599 0.00977983
v 0.03019568 0.00590093 0.01028436
v 0.03329553 0.00494799 0.01038900
v 0.03880467 0.00456893 0.00991140
v 0.03823175 0.00492470 0.00980124
v 0.03650920 0.00513011 0.00990795
v 0.03593627 0.00519787 0.00994352
v 0.03364080 0.00601105 0.00977983
v 0.03350420 0.00604069 0.00977983
v 0.01240477 -0.01220064 0.00977983
v 0.01240477 -0.01212440 0.01010893
v 0.01010929 -0.01213922 0.01010893
v 0.00675903 -0.01195499 0.01068288
v 0.00675903 -0.01212440 0.01020493
v 0.01297769 0.00008378 0.01293655
v 0.01355441 0.00008378 0.01291237
v 0.01412733 0.00008378 0.01288682
v 0.01355441 0.00065766 0.01287024
v 0.01470025 0.00008378 0.01285988
v 0.01743206 0.00045436 0.01269861
v 0.01699573 0.00086307 0.01268445
v 0.01470025 0.00123154 0.01276457
v 0.01581194 0.00123577 0.01270931
v 0.01559568 0.00153224 0.01269308
v 0.01196465 0.00317976 0.01268238
v 0.01986792 0.00180542 0.01241474
v 0.02101377 0.00065766 0.01249313
v 0.01871829 0.00123154 0.01255426
v 0.01642281 0.00180542 0.01261469
v 0.01757244 0.00180542 0.01254873
v 0.01871829 0.00180542 0.01248208
v 0.01179770 0.00348047 0.01264750
v 0.01240477 0.00352917 0.01260330
v 0.02044084 0.00180542 0.01238055
v 0.02101377 0.00123154 0.01242165
v 0.02159048 0.00123154 0.01238573
v 0.02216340 0.00123154 0.01234878
v 0.02273632 0.00123154 0.01231149
v 0.02330924 0.00123154 0.01227350
v 0.02600691 0.00099648 0.01212535
v 0.02560852 0.00108754 0.01213916
v 0.02520633 0.00146659 0.01210947
v 0.02482312 0.00155130 0.01212293
v 0.02382905 0.00181600 0.01214918
v 0.02502421 0.00176942 0.01207079
v 0.02962276 0.00123154 0.01182871
v 0.02732349 0.00180542 0.01189639
v 0.02790020 0.00180542 0.01185357
v 0.02847312 0.00180542 0.01180971
v 0.02904604 0.00180542 0.01176551
v 0.02962276 0.00180542 0.01172096
v 0.02732349 0.00238141 0.01178036
v 0.02790020 0.00238141 0.01173443
v 0.02847312 0.00238141 0.01168781
v 0.02904604 0.00238141 0.01164084
v 0.02975176 0.00261012 0.01153103
v 0.02675057 0.00295529 0.01169921
v 0.02806715 0.00319670 0.01153344
v 0.02590446 0.00381929 0.01154449
v 0.02847312 0.00352917 0.01139980
v 0.02732349 0.00360329 0.01148199
v 0.02675057 0.00369011 0.01150789
v 0.00675903 -0.00794842 0.01330744
v 0.00781381 -0.00106398 0.01314409
v 0.00838674 -0.00049010 0.01312337
v 0.00895966 -0.00049010 0.01310542
v 0.00953637 -0.00049010 0.01308677
v 0.01068221 -0.00049010 0.01304947
v 0.01183185 -0.00106398 0.01303324
v 0.01240477 -0.00106398 0.01301287
v 0.01240477 -0.00049010 0.01298835
v 0.01355441 -0.00049010 0.01294483
v 0.01412733 -0.00049010 0.01292239
v 0.02044084 0.00582469 0.01138875
v 0.02159048 0.00531858 0.01146749
v 0.02273632 0.00525081 0.01138115
v 0.01929121 0.00590940 0.01146610
v 0.02445888 0.00432329 0.01152481
v 0.02904604 0.00352917 0.01134731
v 0.02962276 0.00352917 0.01129413
v 0.02790020 0.00410305 0.01127272
v 0.02996803 0.00440588 0.01097573
v 0.02388596 0.00525081 0.01126823
v 0.02847312 0.00525081 0.01079373
v 0.02904604 0.00525081 0.01073123
v 0.03134152 0.00467693 0.01072398
v 0.03191824 0.00467693 0.01066009
v 0.02812026 0.00494376 0.01096295
v 0.03614116 0.00546046 0.00977983
v 0.03593627 0.00550705 0.00977983
v 0.03308684 0.00472564 0.01050814
v 0.03516606 0.00441435 0.01040661
v 0.03364080 0.00490352 0.01036897
v 0.03937760 0.00410305 0.01005817
v 0.03937760 0.00449693 0.00987652
v 0.03880467 0.00482729 0.00977983
v 0.03857702 0.00488234 0.00977983
v 0.01355441 -0.01219217 0.00977983
v 0.01297769 -0.01212017 0.01010893
v 0.00675903 -0.01192323 0.01075229
v 0.01010929 -0.01192534 0.01068288
v 0.01470025 -0.00049010 0.01289856
v 0.01527317 -0.00049010 0.01287369
v 0.01584989 -0.00049010 0.01284745
v 0.02028528 -0.00127575 0.01269723
v 0.02101377 -0.00106398 0.01264646
v 0.01781148 0.00034213 0.01268929
v 0.02044084 0.00008378 0.01258154
v 0.01814536 0.00065766 0.01264577
v 0.01760280 0.00065130 0.01267305
v 0.01597509 0.00143059 0.01268341
v 0.02044084 0.00065766 0.01252490
v 0.02044084 0.00123154 0.01245515
v 0.01986792 0.00123154 0.01248830
v 0.02101377 0.00008378 0.01255253
v 0.02159048 0.00008378 0.01252042
v 0.02216340 0.00008378 0.01248623
v 0.02159048 0.00065766 0.01245791
v 0.02503180 0.00065766 0.01223482
v 0.02560852 0.00065766 0.01219718
v 0.02753975 0.00033154 0.01211257
v 0.03019568 0.00008378 0.01196304
v 0.02847312 0.00065766 0.01200103
v 0.02962276 0.00065766 0.01191884
v 0.02560852 0.00137554 0.01209496
v 0.02847312 0.00123154 0.01191159
v 0.03019568 0.00065766 0.01187671
v 0.03019568 0.00123154 0.01178554
v 0.03019568 0.00180542 0.01167503
v 0.03019568 0.00224165 0.01157730
v 0.02958482 0.00240471 0.01159111
v 0.03019568 0.00252965 0.01151238
v 0.02958482 0.00290447 0.01147336
v 0.02847312 0.00312470 0.01151583
v 0.03019568 0.00295529 0.01140705
v 0.00675903 -0.00837830 0.01329155
v 0.00723710 -0.00794842 0.01330329
v 0.00781381 -0.00163574 0.01315756
v 0.00838674 -0.00106398 0.01313753
v 0.01297769 -0.00794842 0.01319209
v 0.01355441 -0.00794842 0.01317725
v 0.01068221 -0.00106398 0.01306985
v 0.01125513 -0.00106398 0.01305189
v 0.01871829 -0.00737454 0.01299802
v 0.01929121 -0.00737454 0.01297902
v 0.01297769 -0.00106398 0.01299145
v 0.01986792 -0.00737454 0.01295796
v 0.01642281 -0.00163574 0.01288336
v 0.01412733 -0.00106398 0.01294829
v 0.01527317 -0.00106398 0.01290512
v 0.01584989 -0.00106398 0.01288233
v 0.03076860 0.00295529 0.01135421
v 0.03134152 0.00295529 0.01130069
v 0.03191824 0.00295529 0.01124647
v 0.03019568 0.00352917 0.01123956
v 0.02962276 0.00410305 0.01110799
v 0.03035124 0.00435082 0.01095708
v 0.03076860 0.00467693 0.01078648
v 0.03740083 0.00382353 0.01039901
v 0.03249116 0.00467693 0.01059586
v 0.03880467 0.00410305 0.01012551
v 0.03995431 0.00352917 0.01022531
v 0.03999225 0.00415388 0.00995526
v 0.03937760 0.00468329 0.00977983
v 0.03921824 0.00472352 0.00977983
v 0.03982531 0.00443552 0.00984578
v 0.03990878 0.00454140 0.00977983
v 0.01412733 -0.01218793 0.00977983
v 0.01699573 -0.01216252 0.00977983
v 0.01412733 -0.01210958 0.01010893
v 0.00675903 -0.01175593 0.01110350
v 0.01240477 -0.01190417 0.01068288
v 0.01642281 -0.00106398 0.01285781
v 0.01699573 -0.00106398 0.01283260
v 0.02066849 -0.00142186 0.01268859
v 0.02159048 -0.00106398 0.01261676
v 0.02101377 -0.00049010 0.01260019
v 0.01871829 0.00065766 0.01261642
v 0.01986792 0.00065766 0.01255564
v 0.02159048 -0.00049010 0.01257049
v 0.02216340 -0.00049010 0.01253906
v 0.02273632 -0.00049010 0.01250660
v 0.02330924 -0.00049010 0.01247241
v 0.02388596 -0.00049010 0.01243788
v 0.02273632 0.00008378 0.01245066
v 0.02827203 -0.00015552 0.01212293
v 0.02790020 0.00023201 0.01210118
v 0.02962276 0.00008378 0.01200276
v 0.03019568 -0.00049010 0.01203556
v 0.03076860 -0.00049010 0.01199447
v 0.03076860 0.00008378 0.01192022
v 0.03076860 0.00065766 0.01183251
v 0.03249116 0.00065766 0.01169437
v 0.03076860 0.00123154 0.01173926
v 0.03228627 0.00155130 0.01155071
v 0.03191824 0.00162330 0.01156694
v 0.03134152 0.00173553 0.01159215
v 0.03081034 0.00185836 0.01161114
v 0.03064719 0.00215694 0.01155796
v 0.03081034 0.00236024 0.01149753
v 0.03134152 0.00238141 0.01144642
v 0.03191824 0.00238141 0.01139531
v 0.03249116 0.00238141 0.01134316
v 0.03364080 0.00238141 0.01123715
v 0.00675903 -0.00845877 0.01328844
v 0.00723710 -0.00843124 0.01328534
v 0.00781381 -0.00839736 0.01328154
v 0.00781381 -0.00794842 0.01329742
v 0.00937702 -0.00761807 0.01326807
v 0.01183185 -0.00794842 0.01321696
v 0.00932769 -0.00825336 0.01326703
v 0.01297769 -0.00852442 0.01316136
v 0.01355441 -0.00852442 0.01314686
v 0.01412733 -0.00852442 0.01312959
v 0.01412733 -0.00794842 0.01315963
v 0.01814536 -0.00794842 0.01303255
v 0.01871829 -0.00794842 0.01301356
v 0.01929121 -0.00794842 0.01299180
v 0.02044084 -0.00737454 0.01293482
v 0.01699573 -0.00163574 0.01286092
v 0.03421372 0.00238141 0.01118396
v 0.03249116 0.00295529 0.01119122
v 0.03478664 0.00238141 0.01113009
v 0.03565551 0.00266941 0.01097055
v 0.03390639 0.00323482 0.01096813
v 0.03076860 0.00352917 0.01118362
v 0.03213071 0.00379388 0.01096260
v 0.03306408 0.00365200 0.01091633
v 0.03076860 0.00428729 0.01093601
v 0.03708212 0.00352917 0.01054164
v 0.03778404 0.00376847 0.01037829
v 0.03823175 0.00370282 0.01035412
v 0.03880467 0.00361811 0.01032269
v 0.03995431 0.00315223 0.01036379
v 0.04052723 0.00303788 0.01032304
v 0.04052723 0.00352917 0.01014243
v 0.04052723 0.00403529 0.00992832
v 0.03938139 0.00349106 0.01030577
v 0.03957489 0.00321365 0.01038555
v 0.04020852 0.00438046 0.00981678
v 0.04012884 0.00447576 0.00977983
v 0.01814536 -0.01215193 0.00977983
v 0.01836543 -0.01214981 0.00977983
v 0.01894594 -0.01214346 0.00977983
v 0.01757244 -0.01207146 0.01010893
v 0.01355441 -0.01189146 0.01068288
v 0.00675903 -0.01158229 0.01139047
v 0.00723710 -0.01175381 0.01109867
v 0.01297769 -0.01172205 0.01103789
v 0.00838674 -0.01174746 0.01108658
v 0.02159048 -0.00163574 0.01265302
v 0.02101377 -0.00393126 0.01278080
v 0.02159048 -0.00450514 0.01277976
v 0.02366590 -0.00473173 0.01269446
v 0.02503180 -0.00507902 0.01264612
v 0.02560852 -0.00507902 0.01261884
v 0.02560852 -0.00450514 0.01259259
v 0.02216340 -0.00106398 0.01258568
v 0.02503180 -0.00163574 0.01246792
v 0.02330924 -0.00106398 0.01252318
v 0.02388596 -0.00106398 0.01249106
v 0.02445888 -0.00106398 0.01245791
v 0.02503180 -0.00106398 0.01242372
v 0.02560852 -0.00106398 0.01238850
v 0.02445888 -0.00049010 0.01240197
v 0.02560852 -0.00049010 0.01232875
v 0.02865524 -0.00026563 0.01211085
v 0.02957723 -0.00053881 0.01208080
v 0.03005150 -0.00125880 0.01212708
v 0.03022603 -0.00106610 0.01209496
v 0.03043471 -0.00138586 0.01211430
v 0.03076860 -0.00106398 0.01205594
v 0.03134152 -0.00106398 0.01201346
v 0.03191824 -0.00106398 0.01197064
v 0.03306408 -0.00106398 0.01188500
v 0.03364080 -0.00106398 0.01184183
v 0.03863773 -0.00184963 0.01155244
v 0.03134152 -0.00049010 0.01195096
v 0.03191824 -0.00049010 0.01190675
v 0.03306408 -0.00049010 0.01181835
v 0.03364080 -0.00049010 0.01177380
v 0.03616393 -0.00023599 0.01153931
v 0.03134152 0.00008378 0.01187498
v 0.03191824 0.00008378 0.01182940
v 0.03364080 0.00008378 0.01169195
v 0.03481699 0.00012825 0.01159111
v 0.03502947 0.00034848 0.01154001
v 0.03387224 0.00091813 0.01153931
v 0.03348903 0.00100495 0.01155486
v 0.03248357 0.00126118 0.01159008
v 0.03266949 0.00147083 0.01153413
v 0.03650920 0.00123154 0.01124923
v 0.03708212 0.00123154 0.01119881
v 0.03364080 0.00180542 0.01137424
v 0.03248357 0.00176730 0.01148475
v 0.03103040 0.00208283 0.01154139
v 0.03421372 0.00180542 0.01132348
v 0.03478664 0.00180542 0.01127168
v 0.03937760 0.00112777 0.01101613
v 0.00675903 -0.00869595 0.01326358
v 0.00781381 -0.00868324 0.01325253
v 0.00838674 -0.00863877 0.01324804
v 0.00838674 -0.00835289 0.01327670
v 0.00895966 -0.00829360 0.01327118
v 0.00838674 -0.00794842 0.01328844
v 0.00940357 -0.00794842 0.01326876
v 0.01010929 -0.00794842 0.01325391
v 0.00895966 -0.00794842 0.01327774
v 0.01297769 -0.00909830 0.01304982
v 0.01355441 -0.00909830 0.01303566
v 0.01068221 -0.00852442 0.01321074
v 0.00895966 -0.00857948 0.01324217
v 0.01412733 -0.00909830 0.01301805
v 0.01584989 -0.00909830 0.01296348
v 0.01757244 -0.00852442 0.01302012
v 0.01814536 -0.00852442 0.01300181
v 0.01871829 -0.00852442 0.01298178
v 0.01929121 -0.00852442 0.01295865
v 0.01986792 -0.00794842 0.01296797
v 0.02101377 -0.00450514 0.01280463
v 0.02159048 -0.00737454 0.01288682
v 0.03765883 0.00173130 0.01102511
v 0.03588316 0.00239836 0.01102062
v 0.03603872 0.00259953 0.01095224
v 0.03823175 0.00238141 0.01079822
v 0.03880467 0.00238141 0.01074228
v 0.03937760 0.00238141 0.01068530
v 0.03650920 0.00295529 0.01079788
v 0.03478664 0.00309506 0.01092462
v 0.03421372 0.00318612 0.01095293
v 0.03708212 0.00295529 0.01074021
v 0.03421372 0.00352917 0.01084070
v 0.03478664 0.00352917 0.01078165
v 0.03593627 0.00352917 0.01066285
v 0.03650920 0.00352917 0.01060242
v 0.03880467 0.00295529 0.01056374
v 0.03823175 0.00341482 0.01045979
v 0.03919547 0.00327294 0.01040730
v 0.03995431 0.00286635 0.01046808
v 0.04052723 0.00275200 0.01042630
v 0.04083077 0.00267788 0.01039970
v 0.04110015 0.00352917 0.01003710
v 0.04110015 0.00392517 0.00987445
v 0.04052723 0.00432329 0.00978915
v 0.03938139 0.00299553 0.01048707
v 0.04052723 0.00434235 0.00977983
v 0.04026543 0.00443340 0.00977983
v 0.02044084 -0.01212652 0.00977983
v 0.01871829 -0.01205876 0.01010893
v 0.01412733 -0.01188511 0.01068288
v 0.00895966 -0.01156535 0.01136734
v 0.00838674 -0.01128370 0.01175895
v 0.00781381 -0.01128794 0.01176378
v 0.00723710 -0.01129217 0.01176793
v 0.00675903 -0.01129429 0.01177104
v 0.01355441 -0.01171782 0.01103098
v 0.00953637 -0.01156111 0.01136078
v 0.02560852 -0.00393126 0.01256220
v 0.02560852 -0.00335738 0.01253147
v 0.02560852 -0.00220962 0.01246965
v 0.02388596 -0.00737454 0.01279012
v 0.02445888 -0.00680066 0.01274074
v 0.02445888 -0.00737454 0.01276250
v 0.02560852 -0.00565290 0.01263990
v 0.02847312 -0.00737454 0.01255150
v 0.02904604 -0.00737454 0.01252111
v 0.02617764 -0.00507902 0.01258845
v 0.02617764 -0.00450514 0.01256186
v 0.02560852 -0.00163574 0.01243650
v 0.02617764 -0.00163574 0.01240231
v 0.02962276 -0.00163574 0.01218820
v 0.03022603 -0.00159763 0.01214711
v 0.02957723 -0.00106610 0.01213709
v 0.02973659 -0.00087763 0.01210670
v 0.03076860 -0.00179668 0.01212880
v 0.03106834 -0.00191315 0.01211844
v 0.03076860 -0.00151080 0.01210221
v 0.03902094 -0.00198939 0.01153862
v 0.03593627 -0.00163574 0.01173132
v 0.03881985 -0.00164845 0.01151445
v 0.03833799 -0.00146633 0.01152965
v 0.03765883 -0.00125245 0.01155589
v 0.03765883 -0.00096657 0.01151963
v 0.03726044 -0.00084375 0.01153517
v 0.03421372 -0.00049010 0.01172856
v 0.03687723 -0.00072940 0.01155002
v 0.03650920 -0.00033551 0.01152550
v 0.03765883 -0.00049010 0.01145505
v 0.03823175 -0.00049010 0.01140912
v 0.03880467 -0.00049010 0.01136250
v 0.03595904 0.00006895 0.01150823
v 0.03578451 -0.00013434 0.01155416
v 0.03765883 0.00008378 0.01136561
v 0.03823175 0.00008378 0.01131795
v 0.03880467 0.00008378 0.01126961
v 0.03593627 0.00065766 0.01141085
v 0.03765883 0.00065766 0.01126477
v 0.03880467 0.00065766 0.01116635
v 0.03937760 0.00065766 0.01111593
v 0.03765883 0.00123154 0.01114701
v 0.03937760 0.00141365 0.01094257
v 0.03861497 0.00155554 0.01097918
v 0.03995431 0.00101342 0.01098747
v 0.03995431 0.00130142 0.01091391
v 0.00675903 -0.00874465 0.01325840
v 0.00838674 -0.00909830 0.01314824
v 0.00895966 -0.00909830 0.01313650
v 0.01125513 -0.00909830 0.01308711
v 0.01183185 -0.00909830 0.01307468
v 0.01297769 -0.00967218 0.01284296
v 0.01355441 -0.00967218 0.01282846
v 0.01642281 -0.00958747 0.01277769
v 0.01814536 -0.00952606 0.01275041
v 0.01871829 -0.00950277 0.01274040
v 0.01757244 -0.00909830 0.01290857
v 0.01814536 -0.00909830 0.01289027
v 0.01871829 -0.00909830 0.01287024
v 0.02388596 -0.00888865 0.01271346
v 0.02445888 -0.00883995 0.01269964
v 0.02159048 -0.00852442 0.01286264
v 0.02475483 -0.00881242 0.01269205
v 0.02101377 -0.00794842 0.01291997
v 0.02330924 -0.00852442 0.01279081
v 0.02330924 -0.00737454 0.01281464
v 0.02159048 -0.00794842 0.01289580
v 0.03823175 0.00191342 0.01092220
v 0.03732874 0.00207859 0.01096571
v 0.03650920 0.00251483 0.01092945
v 0.03765883 0.00238141 0.01085382
v 0.03937760 0.00180542 0.01084001
v 0.03995431 0.00180542 0.01078372
v 0.03823175 0.00295529 0.01062279
v 0.03765883 0.00295529 0.01068150
v 0.03995431 0.00238141 0.01062486
v 0.04052723 0.00238141 0.01054647
v 0.04105462 0.00237506 0.01045427
v 0.04121398 0.00256141 0.01035999
v 0.04105462 0.00290235 0.01027469
v 0.04167687 0.00295529 0.01011653
v 0.04165031 0.00352917 0.00991002
v 0.04144163 0.00384894 0.00983784
v 0.04110015 0.00411788 0.00977983
v 0.04096736 0.00417082 0.00977983
v 0.04062588 0.00430423 0.00977983
v 0.02388596 -0.01208417 0.00977983
v 0.01986792 -0.01203970 0.01010893
v 0.01929121 -0.01181735 0.01065974
v 0.01871829 -0.01182158 0.01067148
v 0.01757244 -0.01183429 0.01068288
v 0.02445888 -0.01207570 0.00977983
v 0.01412733 -0.01171358 0.01102304
v 0.00838674 -0.01103382 0.01204592
v 0.00781381 -0.01104017 0.01205076
v 0.01297769 -0.01153146 0.01132486
v 0.01183185 -0.01125405 0.01171820
v 0.00675903 -0.01104864 0.01205836
v 0.02962276 -0.00450514 0.01237158
v 0.02617764 -0.00220962 0.01243754
v 0.02388596 -0.00794842 0.01279807
v 0.02330924 -0.00794842 0.01282362
v 0.02593482 -0.00760748 0.01269377
v 0.02904604 -0.00794842 0.01252801
v 0.02962276 -0.00737454 0.01248795
v 0.02962276 -0.00622678 0.01244513
v 0.02962276 -0.00565290 0.01242303
v 0.02675057 -0.00507902 0.01255737
v 0.02847312 -0.00794842 0.01255944
v 0.02962276 -0.00507902 0.01240058
v 0.03019568 -0.00450514 0.01233877
v 0.03019568 -0.00220962 0.01219511
v 0.03076860 -0.00220962 0.01215816
v 0.03129220 -0.00226680 0.01212604
v 0.03708212 -0.00450514 0.01187222
v 0.03765883 -0.00450514 0.01183216
v 0.03880467 -0.00450514 0.01175066
v 0.03765883 -0.00393126 0.01179072
v 0.03364080 -0.00220962 0.01195234
v 0.03823175 -0.00393126 0.01174859
v 0.03880467 -0.00393126 0.01170611
v 0.03940036 -0.00276233 0.01157040
v 0.03960525 -0.00255692 0.01153897
v 0.03940036 -0.00219268 0.01152516
v 0.03937760 -0.00163574 0.01146818
v 0.03880467 -0.00106398 0.01144159
v 0.03937760 -0.00106398 0.01139496
v 0.03937760 -0.00049010 0.01131450
v 0.03937760 0.00008378 0.01122022
v 0.03995431 0.00065766 0.01105792
v 0.04025026 0.00094989 0.01097124
v 0.00675903 -0.00909830 0.01317137
v 0.00723710 -0.00909830 0.01316516
v 0.00781381 -0.00909830 0.01315756
v 0.00838674 -0.00967218 0.01294069
v 0.00781381 -0.00967218 0.01295070
v 0.00895966 -0.00967218 0.01292895
v 0.01010929 -0.00967218 0.01290443
v 0.01125513 -0.00967218 0.01287991
v 0.01297769 -0.00998347 0.01270448
v 0.01355441 -0.00996865 0.01269757
v 0.01388071 -0.00996018 0.01269274
v 0.01409318 -0.00972300 0.01279012
v 0.01470025 -0.00964677 0.01280497
v 0.01527317 -0.00962771 0.01279565
v 0.01584989 -0.00989453 0.01266166
v 0.01699573 -0.00985430 0.01264336
v 0.01757244 -0.00983312 0.01263438
v 0.01814536 -0.00981194 0.01262505
v 0.01871829 -0.00978865 0.01261504
v 0.01929121 -0.00976112 0.01260364
v 0.01929121 -0.00947524 0.01272865
v 0.01986792 -0.00944559 0.01271691
v 0.02084303 -0.00939689 0.01269619
v 0.02122624 -0.00937359 0.01268825
v 0.01929121 -0.00909830 0.01284710
v 0.02330924 -0.00893524 0.01272624
v 0.02388596 -0.00917665 0.01263161
v 0.02445888 -0.00912583 0.01261711
v 0.02560852 -0.00909830 0.01256531
v 0.02904604 -0.00852442 0.01249382
v 0.02847312 -0.00852442 0.01252560
v 0.02513804 -0.00871712 0.01268203
v 0.02445888 -0.00852442 0.01273660
v 0.02388596 -0.00852442 0.01276526
v 0.02847312 -0.00909830 0.01241440
v 0.02904604 -0.00909830 0.01238263
v 0.03452863 -0.00881665 0.01211948
v 0.04052723 0.00180542 0.01070982
v 0.04110015 0.00180542 0.01060794
v 0.04150234 0.00218024 0.01042422
v 0.04168825 0.00237506 0.01031199
v 0.04227256 0.00298282 0.00993868
v 0.04210182 0.00333859 0.00986271
v 0.04182484 0.00372400 0.00977983
v 0.04151372 0.00392305 0.00977983
v 0.02216340 -0.01200158 0.01010893
v 0.01986792 -0.01181099 0.01064766
v 0.01929121 -0.01166699 0.01094672
v 0.01871829 -0.01167335 0.01095846
v 0.01831231 -0.01167758 0.01096606
v 0.01792910 -0.01168182 0.01097158
v 0.01813019 -0.01179829 0.01073779
v 0.02388596 -0.01196981 0.01010893
v 0.02445888 -0.01195923 0.01010893
v 0.02617764 -0.01204605 0.00977983
v 0.01699573 -0.01169029 0.01098367
v 0.00838674 -0.01074794 0.01229284
v 0.01297769 -0.01124347 0.01170473
v 0.00895966 -0.01102747 0.01203936
v 0.00781381 -0.01075217 0.01229802
v 0.00675903 -0.01076064 0.01230665
v 0.01355441 -0.01152511 0.01131795
v 0.03019568 -0.00507902 0.01236812
v 0.02588929 -0.00821736 0.01269136
v 0.02445888 -0.00794842 0.01276975
v 0.02593482 -0.00783407 0.01269377
v 0.02962276 -0.00794842 0.01249382
v 0.03019568 -0.00680066 0.01243166
v 0.03019568 -0.00565290 0.01239022
v 0.03191824 -0.00737454 0.01234429
v 0.03191824 -0.00680066 0.01232392
v 0.02790020 -0.00794842 0.01258948
v 0.03076860 -0.00507902 0.01233221
v 0.03076860 -0.00450514 0.01230216
v 0.03076860 -0.00278350 0.01219442
v 0.03205103 -0.00278350 0.01210705
v 0.03364080 -0.00335738 0.01203487
v 0.03535956 -0.00393126 0.01195372
v 0.03880467 -0.00507902 0.01178796
v 0.03650920 -0.00450514 0.01191159
v 0.03937760 -0.00507902 0.01174548
v 0.03937760 -0.00450514 0.01170646
v 0.03976460 -0.00294021 0.01155382
v 0.03995431 -0.00276233 0.01152032
v 0.03995431 -0.00220962 0.01147508
v 0.03995431 -0.00163574 0.01141361
v 0.03995431 -0.00106398 0.01134040
v 0.03995431 -0.00049010 0.01125856
v 0.03995431 0.00008378 0.01116221
v 0.04052723 0.00008378 0.01108761
v 0.04047411 0.00062801 0.01099748
v 0.04086112 0.00041625 0.01097849
v 0.04062967 0.00079954 0.01094119
v 0.04047411 0.00117860 0.01087800
v 0.00675903 -0.00967218 0.01296728
v 0.00838674 -0.01007029 0.01275352
v 0.00895966 -0.01005971 0.01274765
v 0.01125513 -0.01001735 0.01272313
v 0.00781381 -0.01007876 0.01275870
v 0.01240477 -0.01028206 0.01253699
v 0.01297769 -0.01026935 0.01253078
v 0.01355441 -0.01025665 0.01252352
v 0.01470025 -0.01024606 0.01249382
v 0.01757244 -0.01024606 0.01240231
v 0.01814536 -0.01024606 0.01238401
v 0.01871829 -0.01024606 0.01236398
v 0.02330924 -0.01015712 0.01223240
v 0.02388596 -0.01013594 0.01221928
v 0.02330924 -0.00967218 0.01247241
v 0.01986792 -0.00973359 0.01259155
v 0.02388596 -0.00967218 0.01244651
v 0.02216340 -0.00930583 0.01266856
v 0.01986792 -0.00909830 0.01282328
v 0.02330924 -0.00922112 0.01264439
v 0.02445888 -0.00967218 0.01241751
v 0.02904604 -0.00959806 0.01220927
v 0.02962276 -0.00955994 0.01219200
v 0.02962276 -0.00852442 0.01245929
v 0.02550607 -0.00833595 0.01270137
v 0.02790020 -0.00852442 0.01255598
v 0.03019568 -0.00951971 0.01217404
v 0.03134152 -0.00943500 0.01213813
v 0.03175509 -0.00940324 0.01212535
v 0.03213830 -0.00936936 0.01211326
v 0.02962276 -0.00909830 0.01234775
v 0.03421372 -0.00885477 0.01212984
v 0.03491185 -0.00869383 0.01210532
v 0.03421372 -0.00852442 0.01217163
v 0.03364080 -0.00852442 0.01220858
v 0.03421372 -0.00914065 0.01204765
v 0.03474490 -0.00904324 0.01203798
v 0.03535956 -0.00909830 0.01197789
v 0.03593627 -0.00909830 0.01193576
v 0.03880467 -0.00909830 0.01172545
v 0.03880467 -0.00852442 0.01183699
v 0.04110015 0.00123154 0.01075160
v 0.04168825 0.00182024 0.01047602
v 0.04188555 0.00201930 0.01037657
v 0.04224979 0.00238141 0.01014830
v 0.04248123 0.00319247 0.00980504
v 0.04220426 0.00345506 0.00977983
v 0.02159048 -0.01179193 0.01061140
v 0.01986792 -0.01166064 0.01093463
v 0.01871829 -0.01145099 0.01125683
v 0.01813019 -0.01150817 0.01120054
v 0.02675057 -0.01203546 0.00977983
v 0.02847312 -0.01200158 0.00977983
v 0.02617764 -0.01192323 0.01010893
v 0.00781381 -0.01036676 0.01258499
v 0.00675903 -0.01037947 0.01259363
v 0.00953637 -0.01102111 0.01203245
v 0.00953637 -0.01073311 0.01228075
v 0.01355441 -0.01123711 0.01169679
v 0.00675903 -0.01069712 0.01235465
v 0.01412733 -0.01123076 0.01168781
v 0.03076860 -0.00565290 0.01235465
v 0.03191824 -0.00794842 0.01235017
v 0.03249116 -0.00737454 0.01230838
v 0.03306408 -0.00737454 0.01227212
v 0.03191824 -0.00622678 0.01230285
v 0.03134152 -0.00565290 0.01231770
v 0.03191824 -0.00565290 0.01228006
v 0.03134152 -0.00507902 0.01229388
v 0.03191824 -0.00507902 0.01225520
v 0.03386465 -0.00487573 0.01211326
v 0.03348523 -0.00464914 0.01212639
v 0.03191824 -0.00450514 0.01222412
v 0.03191824 -0.00393126 0.01218820
v 0.03593627 -0.00450514 0.01195061
v 0.03880467 -0.00565290 0.01181627
v 0.03823175 -0.00507902 0.01182733
v 0.03937760 -0.00565290 0.01177276
v 0.03995431 -0.00565290 0.01171924
v 0.03995431 -0.00507902 0.01169126
v 0.03995431 -0.00450514 0.01165051
v 0.04014402 -0.00320915 0.01153379
v 0.04052723 -0.00278350 0.01145194
v 0.04052723 -0.00220962 0.01140325
v 0.04052723 -0.00163574 0.01133971
v 0.04052723 -0.00106398 0.01126823
v 0.04052723 -0.00049010 0.01118500
v 0.04110015 -0.00049010 0.01108658
v 0.04106980 0.00004354 0.01100266
v 0.04124054 0.00020660 0.01094188
v 0.04106980 0.00062801 0.01089457
v 0.00675903 -0.01009359 0.01276733
v 0.00723710 -0.01008723 0.01276353
v 0.00895966 -0.01034770 0.01257360
v 0.01297769 -0.01068864 0.01224380
v 0.01355441 -0.01067806 0.01223655
v 0.01412733 -0.01066747 0.01222757
v 0.01527317 -0.01064629 0.01220927
v 0.01584989 -0.01063570 0.01219994
v 0.01757244 -0.01060182 0.01217232
v 0.01871829 -0.01057853 0.01215332
v 0.01929121 -0.01056370 0.01214193
v 0.01986792 -0.01054888 0.01213019
v 0.02064952 -0.01052770 0.01211430
v 0.02101377 -0.01051712 0.01210636
v 0.02216340 -0.01048112 0.01208253
v 0.01929121 -0.01024606 0.01234084
v 0.02330924 -0.01044300 0.01205836
v 0.02388596 -0.01042182 0.01204523
v 0.02445888 -0.01011265 0.01220478
v 0.02503180 -0.01008723 0.01218993
v 0.02560852 -0.01006182 0.01217473
v 0.02617764 -0.01003641 0.01215988
v 0.02732349 -0.00998135 0.01212984
v 0.02767255 -0.00996441 0.01212052
v 0.02805576 -0.00994324 0.01211085
v 0.02847312 -0.00991994 0.01209980
v 0.02847312 -0.00963406 0.01222515
v 0.02904604 -0.00988606 0.01208391
v 0.02962276 -0.00984794 0.01206664
v 0.03076860 -0.00976535 0.01203073
v 0.03364080 -0.00967218 0.01188949
v 0.03421372 -0.00967218 0.01185219
v 0.03306408 -0.00926983 0.01208426
v 0.03880467 -0.00950488 0.01159388
v 0.03364080 -0.00892042 0.01214814
v 0.03364080 -0.00920630 0.01206630
v 0.03593627 -0.00852442 0.01204730
v 0.03517364 -0.00831054 0.01212466
v 0.03474490 -0.00850959 0.01213571
v 0.03823175 -0.00852442 0.01187913
v 0.03306408 -0.00794842 0.01227833
v 0.03937760 -0.00944771 0.01156936
v 0.03937760 -0.00909830 0.01167676
v 0.03937760 -0.00852442 0.01178934
v 0.03937760 -0.00794842 0.01182767
v 0.03880467 -0.00794842 0.01187291
v 0.04167687 0.00065766 0.01075437
v 0.04167687 0.00123154 0.01062245
v 0.04206767 0.00163812 0.01042595
v 0.04225738 0.00182024 0.01032062
v 0.04285306 0.00240471 0.00994041
v 0.04306174 0.00261224 0.00980538
v 0.04267853 0.00281129 0.00986892
v 0.04264059 0.00310353 0.00977983
v 0.04251538 0.00322423 0.00977983
v 0.04241673 0.00329835 0.00977983
v 0.02216340 -0.01178558 0.01059827
v 0.02044084 -0.01165429 0.01092254
v 0.01986792 -0.01141923 0.01125683
v 0.01871829 -0.01117147 0.01161425
v 0.02904604 -0.01198887 0.00977983
v 0.02732349 -0.01189781 0.01010893
v 0.02273632 -0.01177923 0.01058481
v 0.00675903 -0.01033288 0.01262264
v 0.01240477 -0.01098300 0.01199827
v 0.01297769 -0.01097452 0.01199171
v 0.01355441 -0.01096605 0.01198411
v 0.03364080 -0.00794842 0.01224207
v 0.03364080 -0.00737454 0.01223517
v 0.03421372 -0.00737454 0.01219718
v 0.03364080 -0.00680066 0.01221203
v 0.03473352 -0.00570584 0.01209323
v 0.03438825 -0.00554914 0.01210981
v 0.03765883 -0.00565290 0.01189397
v 0.03400504 -0.00525902 0.01212259
v 0.03593627 -0.00507902 0.01198342
v 0.03765883 -0.00507902 0.01186635
v 0.03880467 -0.00622678 0.01183734
v 0.03823175 -0.00565290 0.01185530
v 0.03765883 -0.00622678 0.01191780
v 0.03823175 -0.00622678 0.01187809
v 0.03937760 -0.00622678 0.01179141
v 0.03995431 -0.00622678 0.01173823
v 0.04052723 -0.00622678 0.01166882
v 0.04052723 -0.00565290 0.01164602
v 0.04052723 -0.00507902 0.01161287
v 0.04034511 -0.00393126 0.01155969
v 0.04026543 -0.00359244 0.01154726
v 0.04048550 -0.00338279 0.01150064
v 0.04062967 -0.00393126 0.01151618
v 0.04081938 -0.00477408 0.01154484
v 0.04110015 -0.00278350 0.01135905
v 0.04110015 -0.00220962 0.01130725
v 0.04110015 -0.00163574 0.01124233
v 0.04110015 -0.00106398 0.01117119
v 0.04151372 -0.00049010 0.01100025
v 0.04140748 -0.00017457 0.01097434
v 0.04163134 0.00004354 0.01088490
v 0.01412733 -0.01095547 0.01197478
v 0.01699573 -0.01090041 0.01192851
v 0.01814536 -0.01087711 0.01191090
v 0.01871829 -0.01086441 0.01190123
v 0.02246694 -0.01110794 0.01154415
v 0.02330924 -0.01109099 0.01152688
v 0.02388596 -0.01079029 0.01175826
v 0.02445888 -0.01077547 0.01174375
v 0.02503180 -0.01075853 0.01172890
v 0.02560852 -0.01074159 0.01171371
v 0.02675057 -0.01070558 0.01168367
v 0.02847312 -0.01065053 0.01163808
v 0.02904604 -0.01062935 0.01162220
v 0.02445888 -0.01039853 0.01203073
v 0.02503180 -0.01037523 0.01201588
v 0.02732349 -0.01026935 0.01195579
v 0.02847312 -0.01024606 0.01190744
v 0.02904604 -0.01024606 0.01187567
v 0.02962276 -0.01024606 0.01184079
v 0.03364080 -0.01014865 0.01165397
v 0.03421372 -0.01011900 0.01163497
v 0.03478664 -0.01008512 0.01161494
v 0.03593627 -0.01001312 0.01157281
v 0.03677858 -0.00995594 0.01154242
v 0.03478664 -0.00967218 0.01181178
v 0.03823175 -0.00955359 0.01161494
v 0.03880467 -0.00979288 0.01146887
v 0.03526470 -0.00794842 0.01213122
v 0.03478664 -0.00794842 0.01216506
v 0.03421372 -0.00794842 0.01220478
v 0.03765883 -0.00794842 0.01195683
v 0.03937760 -0.00973359 0.01144400
v 0.03973045 -0.00940324 0.01155140
v 0.03993534 -0.00912159 0.01160907
v 0.04052723 -0.00895006 0.01158317
v 0.03995431 -0.00852442 0.01172787
v 0.03995431 -0.00794842 0.01177035
v 0.03937760 -0.00737454 0.01182560
v 0.03995431 -0.00737454 0.01177311
v 0.03880467 -0.00737454 0.01187049
v 0.04224979 0.00008378 0.01071707
v 0.04224979 0.00065766 0.01060035
v 0.04225738 0.00122730 0.01047015
v 0.04245088 0.00141365 0.01037208
v 0.04282271 0.00180542 0.01013449
v 0.04321351 0.00223106 0.00986305
v 0.04333492 0.00234118 0.00977983
v 0.04317936 0.00254024 0.00977983
v 0.04309210 0.00264612 0.00977983
v 0.04297068 0.00277318 0.00977983
v 0.02330924 -0.01177287 0.01057099
v 0.02159048 -0.01163946 0.01089837
v 0.02101377 -0.01138535 0.01125683
v 0.02216340 -0.01134935 0.01125683
v 0.02269079 -0.01129005 0.01130967
v 0.03161470 -0.01192323 0.00977983
v 0.02847312 -0.01187029 0.01010893
v 0.02388596 -0.01176652 0.01055580
v 0.03478664 -0.00737454 0.01215850
v 0.03593627 -0.00680066 0.01205766
v 0.03512432 -0.00700819 0.01212086
v 0.03650920 -0.00622678 0.01199550
v 0.03593627 -0.00565290 0.01201001
v 0.03880467 -0.00680066 0.01185426
v 0.03593627 -0.00737454 0.01207873
v 0.03765883 -0.00680066 0.01193749
v 0.03823175 -0.00680066 0.01189605
v 0.03708212 -0.00622678 0.01195683
v 0.03995431 -0.00680066 0.01175688
v 0.04052723 -0.00680066 0.01168677
v 0.04102806 -0.00622678 0.01158490
v 0.04095598 -0.00565290 0.01157281
v 0.04086871 -0.00507902 0.01155486
v 0.04053861 -0.00455173 0.01157419
v 0.04110015 -0.00335738 0.01139876
v 0.04167687 -0.00335738 0.01128549
v 0.04167687 -0.00278350 0.01124267
v 0.04167687 -0.00220962 0.01118638
v 0.04167687 -0.00163574 0.01112284
v 0.04170722 -0.00104704 0.01103961
v 0.04191970 -0.00084375 0.01095949
v 0.04180208 -0.00049010 0.01093187
v 0.02330924 -0.01132605 0.01123991
v 0.02388596 -0.01131547 0.01122679
v 0.02445888 -0.01130276 0.01121194
v 0.02560852 -0.01127946 0.01117947
v 0.02388596 -0.01107617 0.01151376
v 0.02445888 -0.01106135 0.01149891
v 0.02503180 -0.01104652 0.01148302
v 0.02732349 -0.01097452 0.01141672
v 0.02790020 -0.01095547 0.01140083
v 0.02847312 -0.01093641 0.01138495
v 0.02904604 -0.01091735 0.01136872
v 0.03364080 -0.01108464 0.01094810
v 0.03421372 -0.01077970 0.01117429
v 0.02962276 -0.01060817 0.01160458
v 0.03019568 -0.01058700 0.01158663
v 0.03162229 -0.01053194 0.01154311
v 0.03249116 -0.01049170 0.01151583
v 0.03364080 -0.01043665 0.01147992
v 0.03421372 -0.01040488 0.01146127
v 0.03478664 -0.01037312 0.01144089
v 0.03880467 -0.01024606 0.01121850
v 0.03708212 -0.00993265 0.01153137
v 0.03765883 -0.00988606 0.01151065
v 0.03943071 -0.01030112 0.01113009
v 0.03995431 -0.01021641 0.01112491
v 0.03650920 -0.00737454 0.01203764
v 0.03765883 -0.00737454 0.01195406
v 0.04052723 -0.01015712 0.01108692
v 0.03993534 -0.00962559 0.01142881
v 0.04052723 -0.00967218 0.01133073
v 0.04011367 -0.00932912 0.01152792
v 0.04052723 -0.00923595 0.01150064
v 0.04088388 -0.00886112 0.01155762
v 0.04052723 -0.00852442 0.01165466
v 0.04052723 -0.00794842 0.01169437
v 0.04052723 -0.00737454 0.01169851
v 0.04224979 -0.00049010 0.01081411
v 0.04282271 -0.00049010 0.01064110
v 0.04287583 0.00013248 0.01051194
v 0.04271647 0.00065766 0.01045599
v 0.04259506 0.00103248 0.01041525
v 0.04279995 0.00122730 0.01029956
v 0.04339563 0.00123154 0.01007716
v 0.04340322 0.00179271 0.00991865
v 0.04359672 0.00197483 0.00978708
v 0.04357016 0.00203200 0.00977983
v 0.02216340 -0.01163099 0.01088525
v 0.03306408 -0.01188299 0.00977983
v 0.02904604 -0.01185546 0.01010893
v 0.02847312 -0.01170511 0.01043493
v 0.02273632 -0.01162252 0.01087178
v 0.04107739 -0.00680066 0.01159250
v 0.04136574 -0.00680066 0.01153931
v 0.04131263 -0.00622678 0.01152861
v 0.04124054 -0.00565290 0.01151307
v 0.04167687 -0.00393126 0.01131899
v 0.04224979 -0.00393126 0.01118535
v 0.04224979 -0.00335738 0.01114805
v 0.04224979 -0.00278350 0.01109936
v 0.04228394 -0.00221809 0.01103443
v 0.04212458 -0.00163574 0.01101371
v 0.04202973 -0.00122704 0.01098850
v 0.02388596 -0.01160135 0.01084277
v 0.02445888 -0.01159076 0.01082585
v 0.02962276 -0.01147852 0.01069359
v 0.02330924 -0.01161193 0.01085797
v 0.02790020 -0.01123076 0.01111386
v 0.02847312 -0.01121805 0.01109797
v 0.02904604 -0.01120535 0.01108174
v 0.03283263 -0.01111005 0.01097262
v 0.03421372 -0.01130699 0.01064179
v 0.03478664 -0.01129005 0.01062037
v 0.03880467 -0.01117147 0.01046705
v 0.03421372 -0.01106558 0.01092876
v 0.03478664 -0.01104441 0.01090735
v 0.03478664 -0.01075641 0.01115392
v 0.03535956 -0.01073311 0.01113285
v 0.03593627 -0.01070770 0.01111213
v 0.03650920 -0.01068229 0.01109107
v 0.03880467 -0.01057853 0.01100646
v 0.03927136 -0.01055523 0.01098747
v 0.03965457 -0.01052982 0.01096847
v 0.03995431 -0.01050229 0.01094983
v 0.04052723 -0.01044512 0.01091046
v 0.04110015 -0.01007453 0.01103685
v 0.04110015 -0.00967218 0.01123127
v 0.04108498 -0.00907077 0.01145471
v 0.04167687 -0.00909830 0.01130932
v 0.04167687 -0.00852442 0.01142363
v 0.04127848 -0.00852442 0.01152101
v 0.04099392 -0.00852442 0.01157972
v 0.04136574 -0.00808183 0.01153897
v 0.04114568 -0.00791454 0.01158697
v 0.04115707 -0.00736607 0.01158766
v 0.04223082 -0.00104704 0.01090355
v 0.04282271 -0.00106398 0.01072743
v 0.04331216 -0.00049010 0.01047154
v 0.04320213 -0.00002846 0.01043009
v 0.04309969 0.00035484 0.01039245
v 0.04300483 0.00065766 0.01036034
v 0.04339563 0.00065766 0.01021426
v 0.04401029 0.00068095 0.00995422
v 0.04383955 0.00123154 0.00989275
v 0.04372952 0.00159154 0.00984302
v 0.04362328 0.00196212 0.00977983
v 0.03364080 -0.01186605 0.00977983
v 0.03076860 -0.01181735 0.01008579
v 0.02962276 -0.01168817 0.01040627
v 0.02904604 -0.01169664 0.01042112
v 0.04138472 -0.00716913 0.01154311
v 0.04167687 -0.00680066 0.01146196
v 0.04167687 -0.00622678 0.01144573
v 0.04167687 -0.00565290 0.01141776
v 0.04224979 -0.00450514 0.01121643
v 0.04276200 -0.00393126 0.01104203
v 0.04269371 -0.00335738 0.01102062
v 0.04261783 -0.00278350 0.01099506
v 0.04256091 -0.00241503 0.01097780
v 0.04249641 -0.00203174 0.01095880
v 0.04241294 -0.00163574 0.01093429
v 0.02995285 -0.01168182 0.01039798
v 0.03033606 -0.01167546 0.01038658
v 0.03191824 -0.01164582 0.01033685
v 0.03249116 -0.01163523 0.01031855
v 0.03076860 -0.01143617 0.01068288
v 0.03191824 -0.01138535 0.01068288
v 0.03249116 -0.01135994 0.01068288
v 0.03304131 -0.01129217 0.01073503
v 0.03364080 -0.01132182 0.01066112
v 0.03306408 -0.01162252 0.01029852
v 0.03364080 -0.01160770 0.01027780
v 0.03421372 -0.01159287 0.01025604
v 0.03880467 -0.01167335 0.00981022
v 0.03880467 -0.01145099 0.01010893
v 0.03937760 -0.01141499 0.01010893
v 0.03937760 -0.01115029 0.01044322
v 0.03880467 -0.01086653 0.01075402
v 0.03943071 -0.01077547 0.01077750
v 0.04025026 -0.01110794 0.01039729
v 0.04047791 -0.01086017 0.01057893
v 0.04110015 -0.01074159 0.01057203
v 0.04110015 -0.01036253 0.01085900
v 0.04148336 -0.01000253 0.01099437
v 0.04167307 -0.00969547 0.01108658
v 0.04224979 -0.00949218 0.01101717
v 0.04254573 -0.00939053 0.01097262
v 0.04224979 -0.00909830 0.01115012
v 0.04224979 -0.00852442 0.01126581
v 0.04224979 -0.00794842 0.01130690
v 0.04161995 -0.00791454 0.01147888
v 0.04139230 -0.00769854 0.01154449
v 0.04139230 -0.00755242 0.01154449
v 0.04282271 -0.00163574 0.01080513
v 0.04339563 -0.00163574 0.01060622
v 0.04344496 -0.00102586 0.01050572
v 0.04366881 -0.00081198 0.01039038
v 0.04359672 -0.00049010 0.01036241
v 0.04339563 0.00013248 0.01032442
v 0.04397235 0.00008378 0.01009892
v 0.04432141 0.00050519 0.00985442
v 0.04422656 0.00088848 0.00980745
v 0.04408617 0.00123154 0.00977983
v 0.04381679 0.00167412 0.00977983
v 0.03421372 -0.01184911 0.00977983
v 0.03249116 -0.01178982 0.01003158
v 0.04161995 -0.00736607 0.01148475
v 0.04224979 -0.00680066 0.01130759
v 0.04224979 -0.00622678 0.01129620
v 0.04224979 -0.00565290 0.01127513
v 0.04286824 -0.00451573 0.01104376
v 0.04308830 -0.00433150 0.01096295
v 0.04304657 -0.00393126 0.01094913
v 0.04298207 -0.00335738 0.01092772
v 0.04290239 -0.00278350 0.01090493
v 0.04278098 -0.00221809 0.01088836
v 0.03364080 -0.01177076 0.00999083
v 0.03812552 -0.01168817 0.00983232
v 0.03850873 -0.01167970 0.00982092
v 0.03880467 -0.01169029 0.00977983
v 0.03937760 -0.01165852 0.00978397
v 0.03995431 -0.01136841 0.01010893
v 0.03995431 -0.01112276 0.01041386
v 0.04047791 -0.01127735 0.01014865
v 0.04063347 -0.01107829 0.01036690
v 0.04110015 -0.01102958 0.01031613
v 0.04167687 -0.01065900 0.01050192
v 0.04167307 -0.01021429 0.01080962
v 0.04186278 -0.00990300 0.01094361
v 0.04224979 -0.00977806 0.01088594
v 0.04276959 -0.00961712 0.01078545
v 0.04338804 -0.00967006 0.01051850
v 0.04377505 -0.00947947 0.01043907
v 0.04295930 -0.00909830 0.01091495
v 0.04267094 -0.00909830 0.01101717
v 0.04309210 -0.00874889 0.01096260
v 0.04282271 -0.00794842 0.01112284
v 0.04286824 -0.00854348 0.01106344
v 0.04224979 -0.00737454 0.01131485
v 0.04339563 -0.00220962 0.01067459
v 0.04381299 -0.00163574 0.01044840
v 0.04374090 -0.00119316 0.01041939
v 0.04394579 -0.00102586 0.01030370
v 0.04397235 -0.00049010 0.01020459
v 0.04441627 0.00008378 0.00989862
v 0.04465150 0.00008378 0.00977983
v 0.04442385 0.00059413 0.00977983
v 0.04431003 0.00083130 0.00977983
v 0.04426070 0.00092660 0.00977983
v 0.04416585 0.00109389 0.00977983
v 0.03804204 -0.01171782 0.00977983
v 0.04282271 -0.00680066 0.01112215
v 0.04282271 -0.00622678 0.01111386
v 0.04282271 -0.00565290 0.01110039
v 0.04282271 -0.00507902 0.01108382
v 0.04312245 -0.00471267 0.01097469
v 0.04339563 -0.00393126 0.01082136
v 0.04339563 -0.00335738 0.01078165
v 0.04339563 -0.00278350 0.01073364
v 0.03846699 -0.01170299 0.00977983
v 0.03937760 -0.01166064 0.00977983
v 0.03944210 -0.01165641 0.00977983
v 0.03995431 -0.01161405 0.00977983
v 0.03999225 -0.01160982 0.00977983
v 0.04051964 -0.01154417 0.00977983
v 0.04067141 -0.01152088 0.00977983
v 0.04110015 -0.01126888 0.01002916
v 0.04167687 -0.01121382 0.00995318
v 0.04224979 -0.01114605 0.00986789
v 0.04167687 -0.01094700 0.01024016
v 0.04210182 -0.01058488 0.01044011
v 0.04227635 -0.01028841 0.01058515
v 0.04282271 -0.01012959 0.01050192
v 0.04319454 -0.01001947 0.01043148
v 0.04357396 -0.00986276 0.01034790
v 0.04396855 -0.00967006 0.01025017
v 0.04453768 -0.00965735 0.00995526
v 0.04415826 -0.00922959 0.01034549
v 0.04396855 -0.00906230 0.01049018
v 0.04339563 -0.00909830 0.01073744
v 0.04397235 -0.00852442 0.01060000
v 0.04336148 -0.00854348 0.01087212
v 0.04314522 -0.00836560 0.01098401
v 0.04427968 -0.00884630 0.01040730
v 0.04282271 -0.00737454 0.01112836
v 0.04317178 -0.00794842 0.01099541
v 0.04388887 -0.00220962 0.01048120
v 0.04417723 -0.00220962 0.01036137
v 0.04409756 -0.00163574 0.01032718
v 0.04454527 -0.00106398 0.01003503
v 0.04457562 -0.00050916 0.00993177
v 0.04478810 -0.00033128 0.00979882
v 0.04475015 -0.00015340 0.00977983
v 0.04316419 -0.00622678 0.01099161
v 0.04315280 -0.00565290 0.01098678
v 0.04313763 -0.00507902 0.01098056
v 0.04342599 -0.00507902 0.01086591
v 0.04334631 -0.00451573 0.01087454
v 0.04397235 -0.00393126 0.01058964
v 0.04397235 -0.00335738 0.01055200
v 0.04401029 -0.00281950 0.01049018
v 0.04110015 -0.01144888 0.00977983
v 0.04169205 -0.01133664 0.00977983
v 0.04224979 -0.01121170 0.00977983
v 0.04249641 -0.01115029 0.00977983
v 0.04253815 -0.01110794 0.00982265
v 0.04227635 -0.01079453 0.01019285
v 0.04248503 -0.01050864 0.01037864
v 0.04282271 -0.01041759 0.01031544
v 0.04338804 -0.01022488 0.01020770
v 0.04393441 -0.01023335 0.00994559
v 0.04434038 -0.01003218 0.00986858
v 0.04470462 -0.00981829 0.00977983
v 0.04476154 -0.00975477 0.00977983
v 0.04488675 -0.00945618 0.00985649
v 0.04449974 -0.00906230 0.01021564
v 0.04397235 -0.00794842 0.01064420
v 0.04346013 -0.00794842 0.01087523
v 0.04432141 -0.00852442 0.01042975
v 0.04499298 -0.00909830 0.00992141
v 0.04509163 -0.00852442 0.00998634
v 0.04460977 -0.00852442 0.01027331
v 0.04317936 -0.00737454 0.01099714
v 0.04346772 -0.00737454 0.01088145
v 0.04422656 -0.00265221 0.01038209
v 0.04454527 -0.00220962 0.01018629
v 0.04454527 -0.00163574 0.01011687
v 0.04490192 -0.00106398 0.00985925
v 0.04485260 -0.00071457 0.00983266
v 0.04492469 -0.00064681 0.00977983
v 0.04482983 -0.00035669 0.00977983
v 0.04481086 -0.00030163 0.00977983
v 0.04346013 -0.00680066 0.01088007
v 0.04345255 -0.00622678 0.01087661
v 0.04344116 -0.00565290 0.01087247
v 0.04397235 -0.00507902 0.01063384
v 0.04397235 -0.00450514 0.01061727
v 0.04432521 -0.00393126 0.01043044
v 0.04429106 -0.00335738 0.01041110
v 0.04426450 -0.00303550 0.01039901
v 0.04257229 -0.01112911 0.00977983
v 0.04273924 -0.01106770 0.00977983
v 0.04276580 -0.01083053 0.00998772
v 0.04339563 -0.01063147 0.00990967
v 0.04371434 -0.01055100 0.00983784
v 0.04393441 -0.01047264 0.00977983
v 0.04406341 -0.01037735 0.00977983
v 0.04417723 -0.01029053 0.00977983
v 0.04440868 -0.01010206 0.00977983
v 0.04464771 -0.00987759 0.00977983
v 0.04495504 -0.00952183 0.00977983
v 0.04515234 -0.00921689 0.00977983
v 0.04397235 -0.00737454 0.01065491
v 0.04436315 -0.00794842 0.01045185
v 0.04465150 -0.00794842 0.01029576
v 0.04522063 -0.00909830 0.00977983
v 0.04534205 -0.00873830 0.00977983
v 0.04537619 -0.00852442 0.00980296
v 0.04539896 -0.00807548 0.00981678
v 0.04517131 -0.00791030 0.00997183
v 0.04397235 -0.00680066 0.01065145
v 0.04397235 -0.00622678 0.01064697
v 0.04449215 -0.00281950 0.01027089
v 0.04503472 -0.00220962 0.00993385
v 0.04497401 -0.00163574 0.00989828
v 0.04519407 -0.00163574 0.00977983
v 0.04504610 -0.00106398 0.00977983
v 0.04397235 -0.00565290 0.01064179
v 0.04436315 -0.00507902 0.01045081
v 0.04435177 -0.00450514 0.01044460
v 0.04461356 -0.00393126 0.01028436
v 0.04457562 -0.00335738 0.01027055
v 0.04289859 -0.01099782 0.00977983
v 0.04303139 -0.01093641 0.00977983
v 0.04339563 -0.01076700 0.00977983
v 0.04362708 -0.01065476 0.00977983
v 0.04374849 -0.01059123 0.00977983
v 0.04437453 -0.00737454 0.01045599
v 0.04436694 -0.00565290 0.01045220
v 0.04465909 -0.00737454 0.01029956
v 0.04511819 -0.00737454 0.01001535
v 0.04541034 -0.00852442 0.00977983
v 0.04545587 -0.00803524 0.00977983
v 0.04547484 -0.00762019 0.00977983
v 0.04542172 -0.00680066 0.00983094
v 0.04542931 -0.00622678 0.00983715
v 0.04508025 -0.00278350 0.00996285
v 0.04531549 -0.00222656 0.00977983
v 0.04465150 -0.00507902 0.01029576
v 0.04464012 -0.00450514 0.01029230
v 0.04511819 -0.00393126 0.01000706
v 0.04516751 -0.00337856 0.00995318
v 0.04465909 -0.00680066 0.01029956
v 0.04465530 -0.00622678 0.01029956
v 0.04511819 -0.00622678 0.01002812
v 0.04551278 -0.00622678 0.00977983
v 0.04543311 -0.00565290 0.00983888
v 0.04539516 -0.00320068 0.00981470
v 0.04536861 -0.00278350 0.00979916
v 0.04539896 -0.00278350 0.00977983
v 0.04511819 -0.00507902 0.01002674
v 0.04511819 -0.00450514 0.01002156
v 0.04542172 -0.00393126 0.00983163
v 0.04541034 -0.00358397 0.00982506
v 0.04511819 -0.00565290 0.01002778
v 0.04543311 -0.00507902 0.00983991
v 0.04552037 -0.00507902 0.00977983
v 0.04545208 -0.00324303 0.00977983
v 0.04544069 -0.00313503 0.00977983
v 0.04542931 -0.00450514 0.00983819
v 0.04551278 -0.00433785 0.00977983
v 0.04549761 -0.00393126 0.00977983
v 0.04549002 -0.00375762 0.00977983
v 0.04547484 -0.00352468 0.00977983
f 1 2 3
f 1 3 4
f 1 4 5
f 1 5 22
f 1 22 42
f 1 42 29
f 1 29 39
f 1 39 41
f 1 41 69
f 1 69 110
f 1 110 153
f 1 153 223
f 1 223 287
f 1 287 286
f 1 286 279
f 1 279 368
f 1 368 367
f 1 367 375
f 1 375 374
f 1 374 443
f 1 443 442
f 1 442 445
f 1 445 519
f 1 519 625
f 1 625 624
f 1 624 722
f 1 722 721
f 1 721 720
f 1 720 812
f 1 812 811
f 1 811 908
f 1 908 1008
f 1 1008 1007
f 1 1007 1006
f 1 1006 1100
f 1 1100 1099
f 1 1099 1098
f 1 1098 1097
f 1 1097 1178
f 1 1178 1237
f 1 1237 1295
f 1 1295 1294
f 1 1294 1341
f 1 1341 1340
f 1 1340 1339
f 1 1339 1338
f 1 1338 1337
f 1 1337 1384
f 1 1384 1423
f 1 1423 1422
f 1 1422 1421
f 1 1421 1458
f 1 1458 1457
f 1 1457 1479
f 1 1479 1491
f 1 1491 1500
f 1 1500 1499
f 1 1499 1505
f 1 1505 1504
f 1 1504 1503
f 1 1503 1502
f 1 1502 1498
f 1 1498 1487
f 1 1487 1475
f 1 1475 1474
f 1 1474 1473
f 1 1473 1448
f 1 1448 1447
f 1 1447 1443
f 1 1443 1442
f 1 1442 1405
f 1 1405 1404
f 1 1404 1441
f 1 1441 1440
f 1 1440 1439
f 1 1439 1438
f 1 1438 1437
f 1 1437 1468
f 1 1468 1467
f 1 1467 1466
f 1 1466 1465
f 1 1465 1464
f 1 1464 1433
f 1 1433 1432
f 1 1432 1396
f 1 1396 1395
f 1 1395 1394
f 1 1394 1393
f 1 1393 1357
f 1 1357 1356
f 1 1356 1355
f 1 1355 1354
f 1 1354 1353
f 1 1353 1352
f 1 1352 1311
f 1 1311 1351
f 1 1351 1342
f 1 1342 1296
f 1 1296 1238
f 1 1238 1180
f 1 1180 1106
f 1 1106 1013
f 1 1013 914
f 1 914 913
f 1 913 822
f 1 822 728
f 1 728 723
f 1 723 626
f 1 626 522
f 1 522 521
f 1 521 520
f 1 520 447
f 1 447 446
f 1 446 376
f 1 376 288
f 1 288 224
f 1 224 154
f 1 154 111
f 1 111 70
f 1 70 45
f 1 45 44
f 1 44 43
f 1 43 23
f 1 23 6
f 1 6 2
f 2 6 7
f 2 7 8
f 2 8 3
f 3 9 4
f 3 8 10
f 3 10 11
f 3 11 12
f 3 12 13
f 3 13 14
f 3 14 15
f 3 15 16
f 3 16 17
f 3 17 18
f 3 18 19
f 3 19 9
f 4 9 5
f 5 9 20
f 5 20 21
f 5 21 22
f 6 23 7
f 7 24 25
f 7 25 26
f 7 26 8
f 7 23 24
f 8 26 27
f 8 27 28
f 8 28 10
f 9 19 29
f 9 29 20
f 10 28 30
f 10 30 31
f 10 31 12
f 10 12 11
f 12 31 32
f 12 32 33
f 12 33 34
f 12 34 35
f 12 35 36
f 12 36 14
f 12 14 13
f 14 36 15
f 15 36 35
f 15 35 16
f 16 35 17
f 17 35 18
f 18 35 37
f 18 37 19
f 19 38 39
f 19 39 29
f 19 37 40
f 19 40 41
f 19 41 38
f 20 29 21
f 21 42 22
f 21 29 42
f 23 43 24
f 24 43 44
f 24 44 25
f 25 44 45
f 25 45 78
f 25 78 46
f 25 46 26
f 26 46 47
f 26 47 27
f 27 48 49
f 27 49 50
f 27 50 28
f 27 47 51
f 27 51 52
f 27 52 48
f 28 50 53
f 28 53 54
f 28 54 30
f 30 54 31
f 31 55 32
f 31 54 56
f 31 56 55
f 32 55 33
f 33 57 58
f 33 58 34
f 33 55 57
f 34 58 59
f 34 59 60
f 34 60 61
f 34 61 62
f 34 62 63
f 34 63 35
f 35 63 62
f 35 62 64
f 35 64 65
f 35 65 37
f 37 65 40
f 38 41 39
f 40 65 66
f 40 66 41
f 41 66 67
f 41 67 68
f 41 68 69
f 45 70 71
f 45 71 72
f 45 72 73
f 45 73 74
f 45 74 75
f 45 75 76
f 45 76 77
f 45 77 78
f 46 78 79
f 46 79 80
f 46 80 47
f 47 80 79
f 47 79 114
f 47 114 113
f 47 113 76
f 47 76 75
f 47 75 74
f 47 74 73
f 47 73 72
f 47 72 71
f 47 71 112
f 47 112 111
f 47 111 154
f 47 154 227
f 47 227 292
f 47 292 291
f 47 291 378
f 47 378 449
f 47 449 525
f 47 525 633
f 47 633 734
f 47 734 828
f 47 828 921
f 47 921 917
f 47 917 1016
f 47 1016 953
f 47 953 862
f 47 862 768
f 47 768 683
f 47 683 578
f 47 578 483
f 47 483 414
f 47 414 341
f 47 341 259
f 47 259 196
f 47 196 129
f 47 129 90
f 47 90 52
f 47 52 51
f 48 81 82
f 48 82 83
f 48 83 84
f 48 84 85
f 48 85 86
f 48 86 49
f 48 52 81
f 49 86 87
f 49 87 88
f 49 88 50
f 50 88 89
f 50 89 53
f 52 90 91
f 52 91 92
f 52 92 81
f 53 89 93
f 53 93 94
f 53 94 95
f 53 95 96
f 53 96 97
f 53 97 56
f 53 56 54
f 55 98 99
f 55 99 100
f 55 100 101
f 55 101 57
f 55 56 97
f 55 97 96
f 55 96 95
f 55 95 98
f 57 101 59
f 57 59 58
f 59 101 60
f 60 101 102
f 60 102 103
f 60 103 104
f 60 104 105
f 60 105 106
f 60 106 64
f 60 64 62
f 60 62 61
f 64 107 108
f 64 108 65
f 64 106 109
f 64 109 107
f 65 108 110
f 65 110 66
f 66 110 67
f 67 110 68
f 68 110 69
f 70 111 112
f 70 112 71
f 76 113 77
f 77 113 114
f 77 114 78
f 78 114 79
f 81 92 115
f 81 115 116
f 81 116 117
f 81 117 82
f 82 117 118
f 82 118 83
f 83 118 119
f 83 119 120
f 83 120 84
f 84 120 121
f 84 121 85
f 85 121 86
f 86 121 87
f 87 121 122
f 87 122 123
f 87 123 124
f 87 124 125
f 87 125 126
f 87 126 88
f 88 126 127
f 88 127 89
f 89 127 128
f 89 128 93
f 90 129 130
f 90 130 91
f 91 130 131
f 91 131 115
f 91 115 92
f 93 132 94
f 93 128 127
f 93 127 133
f 93 133 134
f 93 134 135
f 93 135 136
f 93 136 203
f 93 203 132
f 94 132 137
f 94 137 138
f 94 138 95
f 95 138 98
f 98 138 99
f 99 139 140
f 99 140 141
f 99 141 211
f 99 211 142
f 99 142 143
f 99 143 100
f 99 138 139
f 100 143 101
f 101 144 145
f 101 145 102
f 101 143 144
f 102 145 146
f 102 146 104
f 102 104 103
f 104 146 147
f 104 147 109
f 104 109 105
f 105 109 148
f 105 148 106
f 106 148 109
f 107 109 149
f 107 149 108
f 108 149 150
f 108 150 110
f 109 147 151
f 109 151 152
f 109 152 149
f 110 150 153
f 115 131 155
f 115 155 156
f 115 156 157
f 115 157 158
f 115 158 159
f 115 159 116
f 116 159 158
f 116 158 160
f 116 160 161
f 116 161 117
f 117 161 162
f 117 162 163
f 117 163 164
f 117 164 118
f 118 164 165
f 118 165 166
f 118 166 167
f 118 167 168
f 118 168 169
f 118 169 119
f 119 169 170
f 119 170 171
f 119 171 172
f 119 172 173
f 119 173 120
f 120 173 174
f 120 174 121
f 121 174 175
f 121 175 176
f 121 176 177
f 121 177 178
f 121 178 122
f 122 178 123
f 123 179 180
f 123 180 181
f 123 181 182
f 123 182 183
f 123 183 184
f 123 184 185
f 123 185 186
f 123 186 187
f 123 187 188
f 123 188 189
f 123 189 190
f 123 190 191
f 123 191 192
f 123 192 125
f 123 125 124
f 123 178 193
f 123 193 194
f 123 194 179
f 125 192 127
f 125 127 126
f 127 192 190
f 127 190 195
f 127 195 133
f 129 196 197
f 129 197 198
f 129 198 130
f 130 198 199
f 130 199 131
f 131 199 200
f 131 200 201
f 131 201 202
f 131 202 155
f 132 203 204
f 132 204 137
f 133 205 134
f 133 195 205
f 134 205 206
f 134 206 207
f 134 207 135
f 135 207 136
f 136 207 204
f 136 204 203
f 137 204 208
f 137 208 138
f 138 208 140
f 138 140 139
f 140 208 209
f 140 209 210
f 140 210 141
f 141 210 209
f 141 209 211
f 142 211 143
f 143 211 212
f 143 212 213
f 143 213 144
f 144 213 145
f 145 214 146
f 145 213 212
f 145 212 215
f 145 215 216
f 145 216 214
f 146 214 217
f 146 217 151
f 146 151 147
f 149 218 150
f 149 152 218
f 150 218 219
f 150 219 153
f 151 217 220
f 151 220 221
f 151 221 218
f 151 218 152
f 153 219 222
f 153 222 223
f 154 224 225
f 154 225 226
f 154 226 227
f 155 202 228
f 155 228 156
f 156 228 157
f 157 228 229
f 157 229 158
f 158 229 160
f 160 229 230
f 160 230 231
f 160 231 233
f 160 233 232
f 160 232 162
f 160 162 161
f 162 232 233
f 162 233 163
f 163 233 234
f 163 234 235
f 163 235 236
f 163 236 165
f 163 165 164
f 165 236 166
f 166 236 167
f 167 236 168
f 168 237 170
f 168 170 169
f 168 236 238
f 168 238 237
f 170 237 239
f 170 239 240
f 170 240 241
f 170 241 171
f 171 241 172
f 172 241 242
f 172 242 243
f 172 243 173
f 173 243 244
f 173 244 174
f 174 244 175
f 175 244 176
f 176 244 194
f 176 194 177
f 177 194 193
f 177 193 178
f 179 245 246
f 179 246 180
f 179 194 244
f 179 244 245
f 180 246 247
f 180 247 248
f 180 248 249
f 180 249 250
f 180 250 181
f 181 250 182
f 182 250 251
f 182 251 183
f 183 251 252
f 183 252 184
f 184 252 185
f 185 252 253
f 185 253 330
f 185 330 254
f 185 254 186
f 186 254 187
f 187 254 255
f 187 255 188
f 188 256 257
f 188 257 189
f 188 255 258
f 188 258 256
f 189 257 205
f 189 205 190
f 190 205 195
f 190 192 191
f 196 259 260
f 196 260 197
f 197 260 261
f 197 261 199
f 197 199 198
f 199 261 262
f 199 262 263
f 199 263 264
f 199 264 200
f 200 264 201
f 201 264 265
f 201 265 266
f 201 266 202
f 202 266 228
f 204 207 267
f 204 267 268
f 204 268 269
f 204 269 208
f 205 257 270
f 205 270 207
f 205 207 206
f 207 270 271
f 207 271 267
f 208 269 209
f 209 269 211
f 211 269 272
f 211 272 215
f 211 215 212
f 214 216 273
f 214 273 274
f 214 274 217
f 215 272 275
f 215 275 216
f 216 275 273
f 217 274 276
f 217 276 277
f 217 277 220
f 218 221 278
f 218 278 219
f 219 278 279
f 219 279 222
f 220 280 221
f 220 277 276
f 220 276 281
f 220 281 282
f 220 282 283
f 220 283 284
f 220 284 285
f 220 285 278
f 220 278 280
f 221 280 278
f 222 286 287
f 222 287 223
f 222 279 286
f 224 288 289
f 224 289 290
f 224 290 225
f 225 291 226
f 225 290 291
f 226 291 292
f 226 292 227
f 228 266 293
f 228 293 294
f 228 294 229
f 229 294 295
f 229 295 230
f 230 296 231
f 230 295 297
f 230 297 296
f 231 296 298
f 231 298 299
f 231 299 300
f 231 300 233
f 233 300 301
f 233 301 234
f 234 301 302
f 234 302 235
f 235 302 236
f 236 302 238
f 237 303 239
f 237 238 304
f 237 304 303
f 238 302 305
f 238 305 306
f 238 306 307
f 238 307 308
f 238 308 309
f 238 309 304
f 239 303 310
f 239 310 241
f 239 241 240
f 241 243 242
f 241 310 243
f 243 310 311
f 243 311 244
f 244 311 245
f 245 312 313
f 245 313 314
f 245 314 315
f 245 315 246
f 245 311 312
f 246 315 316
f 246 316 317
f 246 317 318
f 246 318 319
f 246 319 320
f 246 320 247
f 247 320 321
f 247 321 248
f 248 321 322
f 248 322 249
f 249 322 321
f 249 321 323
f 249 323 324
f 249 324 325
f 249 325 250
f 250 325 251
f 251 325 326
f 251 326 252
f 252 326 327
f 252 327 328
f 252 328 329
f 252 329 253
f 253 329 330
f 254 330 331
f 254 331 255
f 255 331 332
f 255 332 333
f 255 333 334
f 255 334 335
f 255 335 336
f 255 336 258
f 256 258 257
f 257 258 337
f 257 337 270
f 258 336 338
f 258 338 339
f 258 339 340
f 258 340 337
f 259 341 260
f 260 342 343
f 260 343 261
f 260 341 342
f 261 343 344
f 261 344 345
f 261 345 346
f 261 346 263
f 261 263 262
f 263 346 347
f 263 347 264
f 264 347 348
f 264 348 424
f 264 424 349
f 264 349 266
f 264 266 265
f 266 349 350
f 266 350 351
f 266 351 293
f 267 352 268
f 267 271 353
f 267 353 354
f 267 354 272
f 267 272 352
f 268 352 355
f 268 355 269
f 269 355 352
f 269 352 272
f 270 337 356
f 270 356 271
f 271 354 353
f 271 356 357
f 271 357 358
f 271 358 359
f 271 359 360
f 271 360 354
f 272 354 361
f 272 361 275
f 273 275 362
f 273 362 363
f 273 363 274
f 274 363 364
f 274 364 365
f 274 365 281
f 274 281 276
f 275 361 354
f 275 354 360
f 275 360 366
f 275 366 362
f 278 285 284
f 278 284 283
f 278 283 367
f 278 367 368
f 278 368 279
f 281 365 369
f 281 369 370
f 281 370 371
f 281 371 282
f 282 372 373
f 282 373 374
f 282 374 283
f 282 371 372
f 283 374 375
f 283 375 367
f 288 376 289
f 289 376 446
f 289 446 377
f 289 377 291
f 289 291 290
f 291 377 379
f 291 379 378
f 293 351 380
f 293 380 294
f 294 380 381
f 294 381 295
f 295 381 382
f 295 382 383
f 295 383 297
f 296 297 384
f 296 384 385
f 296 385 298
f 297 383 384
f 298 385 386
f 298 386 387
f 298 387 388
f 298 388 299
f 299 388 387
f 299 387 302
f 299 302 301
f 299 301 300
f 302 387 389
f 302 389 390
f 302 390 305
f 303 304 312
f 303 312 310
f 304 309 313
f 304 313 312
f 305 391 392
f 305 392 306
f 305 390 393
f 305 393 394
f 305 394 395
f 305 395 396
f 305 396 313
f 305 313 391
f 306 392 308
f 306 308 307
f 308 392 391
f 308 391 309
f 309 391 313
f 310 312 311
f 313 396 314
f 314 396 315
f 315 396 397
f 315 397 316
f 316 397 398
f 316 398 399
f 316 399 317
f 317 399 318
f 318 399 400
f 318 400 401
f 318 401 402
f 318 402 403
f 318 403 320
f 318 320 319
f 320 403 404
f 320 404 324
f 320 324 321
f 321 324 323
f 324 402 405
f 324 405 406
f 324 406 326
f 324 326 325
f 324 404 402
f 326 406 327
f 327 406 328
f 328 406 329
f 329 406 407
f 329 407 331
f 329 331 330
f 331 407 332
f 332 407 333
f 333 407 408
f 333 408 409
f 333 409 334
f 334 409 408
f 334 408 410
f 334 410 336
f 334 336 335
f 336 410 411
f 336 411 412
f 336 412 413
f 336 413 357
f 336 357 338
f 337 340 356
f 338 357 356
f 338 356 340
f 338 340 339
f 341 414 415
f 341 415 416
f 341 416 342
f 342 416 417
f 342 417 343
f 343 417 418
f 343 418 419
f 343 419 420
f 343 420 421
f 343 421 344
f 344 421 347
f 344 347 345
f 345 347 346
f 347 421 422
f 347 422 423
f 347 423 348
f 348 423 425
f 348 425 426
f 348 426 424
f 349 424 427
f 349 427 428
f 349 428 350
f 350 428 351
f 351 428 429
f 351 429 380
f 357 413 358
f 358 413 430
f 358 430 431
f 358 431 432
f 358 432 433
f 358 433 359
f 359 433 434
f 359 434 360
f 360 434 435
f 360 435 366
f 362 366 363
f 363 366 364
f 364 366 436
f 364 436 437
f 364 437 365
f 365 438 369
f 365 437 370
f 365 370 438
f 366 435 436
f 369 438 370
f 370 437 439
f 370 439 371
f 371 439 372
f 372 439 440
f 372 440 441
f 372 441 373
f 373 442 443
f 373 443 374
f 373 441 444
f 373 444 445
f 373 445 442
f 377 446 447
f 377 447 520
f 377 520 448
f 377 448 379
f 378 379 450
f 378 450 449
f 379 448 450
f 380 429 451
f 380 451 381
f 381 451 452
f 381 452 383
f 381 383 382
f 383 453 384
f 383 452 453
f 384 453 454
f 384 454 458
f 384 458 455
f 384 455 385
f 385 455 386
f 386 455 393
f 386 393 387
f 387 393 456
f 387 456 389
f 389 456 457
f 389 457 390
f 390 457 393
f 393 455 458
f 393 458 459
f 393 459 394
f 393 457 456
f 394 459 460
f 394 460 461
f 394 461 395
f 395 461 462
f 395 462 463
f 395 463 396
f 396 463 464
f 396 464 465
f 396 465 399
f 396 399 397
f 397 399 398
f 399 465 466
f 399 466 400
f 400 466 467
f 400 467 468
f 400 468 469
f 400 469 405
f 400 405 402
f 400 402 401
f 402 404 403
f 405 469 470
f 405 470 406
f 406 470 471
f 406 471 472
f 406 472 407
f 407 472 473
f 407 473 474
f 407 474 475
f 407 475 476
f 407 476 408
f 408 476 477
f 408 477 410
f 410 477 478
f 410 478 479
f 410 479 480
f 410 480 413
f 410 413 411
f 411 413 412
f 413 480 481
f 413 481 482
f 413 482 430
f 414 483 484
f 414 484 485
f 414 485 415
f 415 485 486
f 415 486 416
f 416 486 417
f 417 486 487
f 417 487 418
f 418 487 488
f 418 488 489
f 418 489 490
f 418 490 491
f 418 491 419
f 419 491 492
f 419 492 493
f 419 493 420
f 420 493 421
f 421 493 422
f 422 493 494
f 422 494 495
f 422 495 423
f 423 495 425
f 424 426 427
f 425 495 496
f 425 496 497
f 425 497 498
f 425 498 426
f 426 498 428
f 426 428 427
f 428 498 429
f 429 498 451
f 430 482 499
f 430 499 431
f 431 499 432
f 432 500 433
f 432 499 501
f 432 501 502
f 432 502 500
f 433 500 502
f 433 502 503
f 433 503 504
f 433 504 435
f 433 435 434
f 435 504 505
f 435 505 506
f 435 506 507
f 435 507 437
f 435 437 436
f 437 508 509
f 437 509 439
f 437 507 508
f 439 509 510
f 439 510 511
f 439 511 440
f 440 512 513
f 440 513 514
f 440 514 515
f 440 515 441
f 440 511 516
f 440 516 517
f 440 517 512
f 441 515 518
f 441 518 444
f 444 518 445
f 445 518 519
f 448 520 521
f 448 521 522
f 448 522 523
f 448 523 524
f 448 524 450
f 449 450 526
f 449 526 525
f 450 524 527
f 450 527 528
f 450 528 526
f 451 498 452
f 452 498 453
f 453 529 454
f 453 498 530
f 453 530 531
f 453 531 532
f 453 532 533
f 453 533 534
f 453 534 535
f 453 535 529
f 454 536 458
f 454 529 537
f 454 537 536
f 458 536 538
f 458 538 459
f 459 538 539
f 459 539 460
f 460 539 540
f 460 540 541
f 460 541 461
f 461 541 462
f 462 541 542
f 462 542 543
f 462 543 463
f 463 543 544
f 463 544 545
f 463 545 464
f 464 545 465
f 465 545 467
f 465 467 466
f 467 545 546
f 467 546 547
f 467 547 548
f 467 548 549
f 467 549 550
f 467 550 468
f 468 550 551
f 468 551 552
f 468 552 553
f 468 553 554
f 468 554 555
f 468 555 556
f 468 556 469
f 469 556 557
f 469 557 558
f 469 558 559
f 469 559 560
f 469 560 561
f 469 561 470
f 470 561 562
f 470 562 563
f 470 563 564
f 470 564 565
f 470 565 471
f 471 565 472
f 472 565 566
f 472 566 567
f 472 567 568
f 472 568 473
f 473 568 569
f 473 569 570
f 473 570 571
f 473 571 572
f 473 572 474
f 474 572 573
f 474 573 574
f 474 574 476
f 474 476 475
f 476 574 477
f 477 574 479
f 477 479 478
f 479 572 575
f 479 575 480
f 479 574 572
f 480 575 576
f 480 576 577
f 480 577 481
f 481 577 482
f 482 577 499
f 483 578 579
f 483 579 484
f 484 579 485
f 485 579 580
f 485 580 581
f 485 581 486
f 486 581 582
f 486 582 489
f 486 489 583
f 486 583 487
f 487 584 585
f 487 585 488
f 487 583 586
f 487 586 584
f 488 585 489
f 489 585 584
f 489 584 586
f 489 586 583
f 489 582 490
f 490 587 588
f 490 588 491
f 490 582 589
f 490 589 590
f 490 590 580
f 490 580 587
f 491 588 492
f 492 591 592
f 492 592 593
f 492 593 494
f 492 494 493
f 492 588 591
f 494 593 594
f 494 594 495
f 495 595 496
f 495 594 595
f 496 595 596
f 496 596 597
f 496 597 497
f 497 598 498
f 497 597 599
f 497 599 598
f 498 598 531
f 498 531 530
f 499 577 600
f 499 600 501
f 501 601 502
f 501 600 601
f 502 601 602
f 502 602 603
f 502 603 604
f 502 604 605
f 502 605 606
f 502 606 607
f 502 607 608
f 502 608 503
f 503 506 504
f 503 608 606
f 503 606 506
f 504 506 505
f 506 606 609
f 506 609 610
f 506 610 507
f 507 610 611
f 507 611 612
f 507 612 613
f 507 613 508
f 508 613 614
f 508 614 615
f 508 615 509
f 509 615 510
f 510 615 616
f 510 616 511
f 511 616 516
f 512 517 617
f 512 617 513
f 513 617 618
f 513 618 619
f 513 619 514
f 514 619 620
f 514 620 621
f 514 621 515
f 515 622 518
f 515 621 622
f 516 616 517
f 517 616 623
f 517 623 617
f 518 622 624
f 518 624 625
f 518 625 519
f 522 626 627
f 522 627 523
f 523 627 628
f 523 628 524
f 524 628 527
f 525 629 630
f 525 630 631
f 525 631 632
f 525 632 633
f 525 526 528
f 525 528 527
f 525 527 629
f 527 628 634
f 527 634 635
f 527 635 629
f 529 535 636
f 529 636 637
f 529 637 638
f 529 638 537
f 531 598 639
f 531 639 532
f 532 639 533
f 533 639 640
f 533 640 534
f 534 640 641
f 534 641 642
f 534 642 643
f 534 643 644
f 534 644 645
f 534 645 535
f 535 645 646
f 535 646 636
f 536 537 647
f 536 647 538
f 537 638 647
f 538 647 539
f 539 647 540
f 540 647 541
f 541 647 648
f 541 648 542
f 542 648 649
f 542 649 650
f 542 650 547
f 542 547 543
f 543 547 651
f 543 651 544
f 544 651 545
f 545 651 546
f 546 651 652
f 546 652 547
f 547 650 549
f 547 549 548
f 547 652 651
f 549 552 551
f 549 551 550
f 549 650 653
f 549 653 654
f 549 654 655
f 549 655 656
f 549 656 657
f 549 657 552
f 552 657 656
f 552 656 555
f 552 555 553
f 553 555 554
f 555 656 658
f 555 658 557
f 555 557 556
f 557 658 659
f 557 659 558
f 558 659 559
f 559 659 660
f 559 660 661
f 559 661 662
f 559 662 663
f 559 663 560
f 560 663 664
f 560 664 665
f 560 665 666
f 560 666 667
f 560 667 668
f 560 668 669
f 560 669 565
f 560 565 670
f 560 670 562
f 560 562 561
f 562 670 563
f 563 670 564
f 564 670 565
f 565 669 671
f 565 671 672
f 565 672 566
f 566 569 567
f 566 672 673
f 566 673 674
f 566 674 675
f 566 675 676
f 566 676 569
f 567 569 568
f 569 676 570
f 570 676 677
f 570 677 571
f 571 677 577
f 571 577 678
f 571 678 575
f 571 575 572
f 572 574 573
f 575 678 577
f 575 577 576
f 577 679 680
f 577 680 600
f 577 677 681
f 577 681 682
f 577 682 679
f 578 683 579
f 579 684 685
f 579 685 686
f 579 686 687
f 579 687 587
f 579 587 580
f 579 683 684
f 580 590 582
f 580 582 581
f 582 590 589
f 587 688 588
f 587 687 688
f 588 689 690
f 588 690 691
f 588 691 591
f 588 688 689
f 591 691 692
f 591 692 592
f 592 692 693
f 592 693 593
f 593 693 694
f 593 694 594
f 594 694 695
f 594 695 595
f 595 695 696
f 595 696 697
f 595 697 596
f 596 698 597
f 596 697 699
f 596 699 698
f 597 700 599
f 597 698 701
f 597 701 700
f 598 599 702
f 598 702 639
f 599 703 738
f 599 738 702
f 599 700 703
f 600 680 704
f 600 704 705
f 600 705 601
f 601 706 602
f 601 705 706
f 602 706 603
f 603 707 708
f 603 708 709
f 603 709 604
f 603 706 707
f 604 709 605
f 605 614 710
f 605 710 711
f 605 711 609
f 605 609 606
f 605 709 712
f 605 712 614
f 606 608 607
f 609 711 610
f 610 711 710
f 610 710 614
f 610 614 611
f 611 614 612
f 612 614 613
f 614 712 617
f 614 617 623
f 614 623 616
f 614 616 615
f 617 712 713
f 617 713 618
f 618 713 619
f 619 714 715
f 619 715 716
f 619 716 620
f 619 713 714
f 620 716 717
f 620 717 718
f 620 718 719
f 620 719 621
f 621 720 721
f 621 721 722
f 621 722 622
f 621 719 720
f 622 722 624
f 626 723 627
f 627 724 725
f 627 725 726
f 627 726 727
f 627 727 628
f 627 723 728
f 627 728 724
f 628 727 729
f 628 729 634
f 629 635 630
f 630 730 731
f 630 731 631
f 630 635 732
f 630 732 733
f 630 733 730
f 631 731 734
f 631 734 632
f 632 734 633
f 634 732 635
f 634 729 732
f 636 646 637
f 637 646 638
f 638 646 735
f 638 735 736
f 638 736 647
f 639 737 641
f 639 641 640
f 639 702 738
f 639 738 737
f 641 737 739
f 641 739 642
f 642 739 643
f 643 739 644
f 644 740 741
f 644 741 742
f 644 742 743
f 644 743 744
f 644 744 645
f 644 739 745
f 644 745 740
f 645 744 646
f 646 744 746
f 646 746 735
f 647 736 747
f 647 747 648
f 648 747 748
f 648 748 649
f 649 748 653
f 649 653 650
f 653 748 654
f 654 748 749
f 654 749 750
f 654 750 751
f 654 751 752
f 654 752 753
f 654 753 754
f 654 754 755
f 654 755 656
f 654 656 655
f 656 756 757
f 656 757 758
f 656 758 759
f 656 759 760
f 656 760 761
f 656 761 658
f 656 755 756
f 658 761 762
f 658 762 659
f 659 762 661
f 659 661 660
f 661 762 662
f 662 762 666
f 662 666 665
f 662 665 664
f 662 664 663
f 666 762 667
f 667 762 763
f 667 763 668
f 668 763 764
f 668 764 672
f 668 672 671
f 668 671 669
f 672 764 673
f 673 764 765
f 673 765 676
f 673 676 675
f 673 675 674
f 676 765 677
f 677 765 856
f 677 856 766
f 677 766 767
f 677 767 681
f 679 708 680
f 679 682 709
f 679 709 708
f 680 708 704
f 681 767 682
f 682 767 709
f 683 768 769
f 683 769 770
f 683 770 684
f 684 771 773
f 684 773 685
f 684 770 772
f 684 772 771
f 685 773 774
f 685 774 775
f 685 775 688
f 685 688 686
f 686 688 687
f 688 775 776
f 688 776 777
f 688 777 689
f 689 777 778
f 689 778 779
f 689 779 780
f 689 780 781
f 689 781 690
f 690 781 782
f 690 782 783
f 690 783 691
f 691 783 784
f 691 784 785
f 691 785 786
f 691 786 692
f 692 786 787
f 692 787 788
f 692 788 695
f 692 695 694
f 692 694 693
f 695 788 789
f 695 789 790
f 695 790 791
f 695 791 792
f 695 792 793
f 695 793 696
f 696 794 697
f 696 793 794
f 697 794 795
f 697 795 796
f 697 796 699
f 698 699 701
f 699 797 798
f 699 798 799
f 699 799 800
f 699 800 801
f 699 801 701
f 699 796 802
f 699 802 803
f 699 803 804
f 699 804 797
f 700 701 703
f 701 738 703
f 701 801 737
f 701 737 738
f 704 707 705
f 704 708 707
f 705 707 706
f 709 767 805
f 709 805 712
f 712 805 713
f 713 805 806
f 713 806 714
f 714 806 807
f 714 807 715
f 715 807 717
f 715 717 716
f 717 807 808
f 717 808 809
f 717 809 810
f 717 810 718
f 718 810 719
f 719 810 811
f 719 811 812
f 719 812 720
f 724 813 725
f 724 728 813
f 725 814 910
f 725 910 815
f 725 815 816
f 725 816 817
f 725 817 818
f 725 818 819
f 725 819 726
f 725 813 820
f 725 820 821
f 725 821 814
f 726 819 727
f 727 819 729
f 728 822 813
f 729 819 823
f 729 823 732
f 730 824 731
f 730 733 825
f 730 825 826
f 730 826 824
f 731 824 827
f 731 827 828
f 731 828 734
f 732 823 818
f 732 818 829
f 732 829 825
f 732 825 733
f 735 746 830
f 735 830 747
f 735 747 736
f 737 801 831
f 737 831 832
f 737 832 739
f 739 832 833
f 739 833 745
f 740 797 834
f 740 834 741
f 740 745 831
f 740 831 797
f 741 835 923
f 741 923 836
f 741 836 742
f 741 834 924
f 741 924 837
f 741 837 838
f 741 838 835
f 742 836 830
f 742 830 743
f 743 830 746
f 743 746 744
f 745 833 839
f 745 839 831
f 747 830 840
f 747 840 841
f 747 841 842
f 747 842 748
f 748 842 749
f 749 842 843
f 749 843 750
f 750 843 844
f 750 844 845
f 750 845 751
f 751 846 752
f 751 845 847
f 751 847 938
f 751 938 846
f 752 846 753
f 753 846 848
f 753 848 849
f 753 849 759
f 753 759 758
f 753 758 757
f 753 757 756
f 753 756 754
f 754 756 755
f 759 849 850
f 759 850 851
f 759 851 852
f 759 852 760
f 760 852 761
f 761 763 762
f 761 852 853
f 761 853 854
f 761 854 763
f 763 854 764
f 764 854 855
f 764 855 765
f 765 855 856
f 766 856 767
f 767 856 857
f 767 857 858
f 767 858 859
f 767 859 860
f 767 860 861
f 767 861 805
f 768 862 769
f 769 862 770
f 770 862 772
f 771 772 863
f 771 863 864
f 771 864 865
f 771 865 776
f 771 776 773
f 772 866 863
f 772 862 866
f 773 776 774
f 774 776 775
f 776 865 867
f 776 867 868
f 776 868 869
f 776 869 777
f 777 869 778
f 778 870 871
f 778 871 872
f 778 872 782
f 778 782 779
f 778 869 870
f 779 782 780
f 780 782 781
f 782 872 873
f 782 873 783
f 783 873 784
f 784 873 785
f 785 873 874
f 785 874 786
f 786 874 875
f 786 875 787
f 787 876 877
f 787 877 788
f 787 875 876
f 788 877 876
f 788 876 789
f 789 876 790
f 790 876 878
f 790 878 791
f 791 879 880
f 791 880 792
f 791 878 879
f 792 880 793
f 793 880 879
f 793 879 881
f 793 881 794
f 794 882 883
f 794 883 884
f 794 884 802
f 794 802 796
f 794 796 795
f 794 881 882
f 797 885 834
f 797 831 798
f 797 804 885
f 798 831 886
f 798 886 887
f 798 887 799
f 799 886 800
f 799 887 886
f 800 886 801
f 801 886 831
f 802 884 803
f 803 884 888
f 803 888 889
f 803 889 890
f 803 890 891
f 803 891 892
f 803 892 893
f 803 893 804
f 804 894 895
f 804 895 896
f 804 896 885
f 804 893 897
f 804 897 898
f 804 898 899
f 804 899 900
f 804 900 901
f 804 901 902
f 804 902 894
f 805 861 806
f 806 861 903
f 806 903 904
f 806 904 807
f 807 904 905
f 807 905 808
f 808 905 809
f 809 906 907
f 809 907 810
f 809 905 906
f 810 908 811
f 810 907 908
f 813 822 820
f 814 909 910
f 814 821 909
f 815 910 911
f 815 911 816
f 816 911 912
f 816 912 817
f 817 912 829
f 817 829 818
f 818 823 819
f 820 822 913
f 820 913 821
f 821 913 914
f 821 914 915
f 821 915 909
f 824 916 917
f 824 917 827
f 824 826 918
f 824 918 919
f 824 919 916
f 825 829 920
f 825 920 918
f 825 918 826
f 827 917 921
f 827 921 828
f 829 912 922
f 829 922 920
f 830 836 923
f 830 923 840
f 831 839 832
f 832 839 833
f 834 885 896
f 834 896 924
f 835 838 923
f 837 924 993
f 837 993 925
f 837 925 838
f 838 925 926
f 838 926 927
f 838 927 923
f 840 923 928
f 840 928 929
f 840 929 930
f 840 930 841
f 841 930 931
f 841 931 932
f 841 932 933
f 841 933 934
f 841 934 935
f 841 935 842
f 842 935 844
f 842 844 843
f 844 935 936
f 844 936 847
f 844 847 845
f 846 937 848
f 846 938 937
f 847 936 933
f 847 933 938
f 848 937 939
f 848 939 940
f 848 940 941
f 848 941 849
f 849 941 942
f 849 942 850
f 850 942 943
f 850 943 851
f 851 943 852
f 852 943 944
f 852 944 945
f 852 945 853
f 853 945 946
f 853 946 947
f 853 947 854
f 854 947 855
f 855 947 948
f 855 948 856
f 856 948 857
f 857 948 859
f 857 859 858
f 859 949 950
f 859 950 951
f 859 951 952
f 859 952 860
f 859 948 949
f 860 952 903
f 860 903 861
f 862 953 954
f 862 954 866
f 863 955 864
f 863 866 916
f 863 916 955
f 864 955 865
f 865 955 867
f 866 954 916
f 867 956 957
f 867 957 868
f 867 955 956
f 868 957 869
f 869 957 958
f 869 958 959
f 869 959 960
f 869 960 961
f 869 961 962
f 869 962 870
f 870 962 871
f 871 962 872
f 872 962 873
f 873 962 963
f 873 963 964
f 873 964 965
f 873 965 966
f 873 966 967
f 873 967 968
f 873 968 874
f 874 968 967
f 874 967 969
f 874 969 970
f 874 970 875
f 875 970 1064
f 875 1064 971
f 875 971 878
f 875 878 876
f 878 971 972
f 878 972 973
f 878 973 974
f 878 974 975
f 878 975 976
f 878 976 977
f 878 977 882
f 878 882 881
f 878 881 879
f 882 977 978
f 882 978 979
f 882 979 883
f 883 980 981
f 883 981 884
f 883 979 980
f 884 981 888
f 888 982 983
f 888 983 889
f 888 981 982
f 889 983 890
f 890 983 984
f 890 984 891
f 891 985 892
f 891 984 986
f 891 986 985
f 892 985 987
f 892 987 893
f 893 987 988
f 893 988 897
f 894 989 990
f 894 990 991
f 894 991 895
f 894 902 992
f 894 992 989
f 895 991 990
f 895 990 896
f 896 993 924
f 896 990 993
f 897 986 899
f 897 899 898
f 897 988 986
f 899 986 900
f 900 986 901
f 901 986 994
f 901 994 995
f 901 995 996
f 901 996 902
f 902 996 997
f 902 997 998
f 902 998 990
f 902 990 992
f 903 952 999
f 903 999 1000
f 903 1000 904
f 904 1000 1001
f 904 1001 905
f 905 1001 1002
f 905 1002 906
f 906 1002 1003
f 906 1003 1004
f 906 1004 1005
f 906 1005 907
f 907 1005 1004
f 907 1004 1006
f 907 1006 1007
f 907 1007 1008
f 907 1008 908
f 909 1009 1010
f 909 1010 910
f 909 915 1009
f 910 1010 911
f 911 1010 1011
f 911 1011 1012
f 911 1012 922
f 911 922 912
f 914 1013 1014
f 914 1014 915
f 915 1014 1015
f 915 1015 1009
f 916 954 1016
f 916 1016 917
f 916 919 956
f 916 956 955
f 918 920 1017
f 918 1017 956
f 918 956 919
f 920 1018 1017
f 920 922 1018
f 922 1012 1019
f 922 1019 1018
f 923 927 928
f 925 993 1020
f 925 1020 926
f 926 1020 1021
f 926 1021 927
f 927 1021 929
f 927 929 928
f 929 931 930
f 929 1021 1022
f 929 1022 1023
f 929 1023 1024
f 929 1024 1025
f 929 1025 931
f 931 1025 1026
f 931 1026 1027
f 931 1027 1028
f 931 1028 932
f 932 1028 1029
f 932 1029 933
f 933 1029 938
f 933 936 934
f 934 936 935
f 937 1030 939
f 937 938 1029
f 937 1029 1031
f 937 1031 1032
f 937 1032 1033
f 937 1033 1030
f 939 1030 1034
f 939 1034 1119
f 939 1119 1035
f 939 1035 940
f 940 1035 1036
f 940 1036 1037
f 940 1037 941
f 941 1037 1038
f 941 1038 1039
f 941 1039 1040
f 941 1040 942
f 942 1040 943
f 943 1040 944
f 944 1040 1041
f 944 1041 1042
f 944 1042 1043
f 944 1043 1044
f 944 1044 945
f 945 1044 1045
f 945 1045 946
f 946 1045 1046
f 946 1046 1047
f 946 1047 947
f 947 1047 948
f 948 1047 949
f 949 1047 1048
f 949 1048 1049
f 949 1049 950
f 950 1049 951
f 951 1049 1050
f 951 1050 999
f 951 999 952
f 953 1016 954
f 956 1017 1018
f 956 1018 1019
f 956 1019 957
f 957 1019 958
f 958 1019 959
f 959 1019 960
f 960 1019 1051
f 960 1051 1052
f 960 1052 1053
f 960 1053 961
f 961 1053 962
f 962 1053 1054
f 962 1054 1055
f 962 1055 1056
f 962 1056 1057
f 962 1057 963
f 963 1057 964
f 964 1057 965
f 965 1057 966
f 966 1057 967
f 967 1057 1058
f 967 1058 969
f 969 1058 1059
f 969 1059 1060
f 969 1060 1061
f 969 1061 970
f 970 1061 1062
f 970 1062 1063
f 970 1063 1064
f 971 1064 1065
f 971 1065 972
f 972 1065 973
f 973 1065 974
f 974 1066 1067
f 974 1067 975
f 974 1065 1066
f 975 1067 1068
f 975 1068 976
f 976 1068 977
f 977 1068 978
f 978 1068 1069
f 978 1069 1070
f 978 1070 980
f 978 980 979
f 980 1070 1071
f 980 1071 981
f 981 983 982
f 981 1071 1072
f 981 1072 984
f 981 984 983
f 984 1072 1073
f 984 1073 1074
f 984 1074 1075
f 984 1075 986
f 985 988 987
f 985 986 988
f 986 1076 1077
f 986 1077 994
f 986 1075 1076
f 989 992 990
f 990 1078 1079
f 990 1079 1080
f 990 1080 1020
f 990 1020 993
f 990 998 1081
f 990 1081 1078
f 994 1077 1082
f 994 1082 1083
f 994 1083 995
f 995 1083 1084
f 995 1084 1085
f 995 1085 1086
f 995 1086 996
f 996 1086 1087
f 996 1087 997
f 997 1088 998
f 997 1087 1089
f 997 1089 1088
f 998 1088 1090
f 998 1090 1081
f 999 1050 1091
f 999 1091 1092
f 999 1092 1093
f 999 1093 1001
f 999 1001 1000
f 1001 1093 1094
f 1001 1094 1002
f 1002 1094 1095
f 1002 1095 1003
f 1003 1095 1004
f 1004 1095 1096
f 1004 1096 1097
f 1004 1097 1098
f 1004 1098 1099
f 1004 1099 1100
f 1004 1100 1006
f 1009 1015 1010
f 1010 1015 1101
f 1010 1101 1102
f 1010 1102 1011
f 1011 1102 1103
f 1011 1103 1012
f 1012 1053 1052
f 1012 1052 1051
f 1012 1051 1019
f 1012 1103 1104
f 1012 1104 1105
f 1012 1105 1055
f 1012 1055 1053
f 1013 1106 1107
f 1013 1107 1014
f 1014 1107 1108
f 1014 1108 1101
f 1014 1101 1015
f 1020 1080 1021
f 1021 1080 1022
f 1022 1080 1109
f 1022 1109 1110
f 1022 1110 1111
f 1022 1111 1023
f 1023 1111 1112
f 1023 1112 1024
f 1024 1112 1113
f 1024 1113 1025
f 1025 1113 1026
f 1026 1113 1112
f 1026 1112 1118
f 1026 1118 1031
f 1026 1031 1027
f 1027 1031 1028
f 1028 1031 1029
f 1030 1114 1088
f 1030 1088 1034
f 1030 1033 1115
f 1030 1115 1116
f 1030 1116 1117
f 1030 1117 1114
f 1031 1118 1032
f 1032 1118 1110
f 1032 1110 1109
f 1032 1109 1033
f 1033 1109 1115
f 1034 1088 1119
f 1035 1119 1036
f 1036 1120 1121
f 1036 1121 1037
f 1036 1119 1120
f 1037 1121 1122
f 1037 1122 1123
f 1037 1123 1038
f 1038 1041 1039
f 1038 1123 1043
f 1038 1043 1124
f 1038 1124 1041
f 1039 1041 1040
f 1041 1124 1042
f 1042 1124 1043
f 1043 1123 1125
f 1043 1125 1044
f 1044 1125 1126
f 1044 1126 1127
f 1044 1127 1045
f 1045 1127 1128
f 1045 1128 1129
f 1045 1129 1046
f 1046 1129 1047
f 1047 1129 1130
f 1047 1130 1048
f 1048 1130 1131
f 1048 1131 1132
f 1048 1132 1049
f 1049 1132 1050
f 1050 1132 1091
f 1053 1055 1054
f 1055 1105 1133
f 1055 1133 1056
f 1056 1133 1134
f 1056 1134 1135
f 1056 1135 1136
f 1056 1136 1137
f 1056 1137 1057
f 1057 1137 1058
f 1058 1137 1138
f 1058 1138 1139
f 1058 1139 1059
f 1059 1139 1060
f 1060 1139 1061
f 1061 1139 1062
f 1062 1139 1140
f 1062 1140 1141
f 1062 1141 1142
f 1062 1142 1143
f 1062 1143 1144
f 1062 1144 1063
f 1063 1144 1145
f 1063 1145 1146
f 1063 1146 1065
f 1063 1065 1064
f 1065 1067 1066
f 1065 1146 1147
f 1065 1147 1148
f 1065 1148 1068
f 1065 1068 1067
f 1068 1148 1149
f 1068 1149 1069
f 1069 1149 1150
f 1069 1150 1070
f 1070 1150 1071
f 1071 1151 1152
f 1071 1152 1072
f 1071 1150 1151
f 1072 1152 1153
f 1072 1153 1073
f 1073 1153 1074
f 1074 1153 1154
f 1074 1154 1075
f 1075 1154 1155
f 1075 1155 1077
f 1075 1077 1076
f 1077 1153 1156
f 1077 1156 1157
f 1077 1157 1082
f 1077 1155 1153
f 1078 1158 1115
f 1078 1115 1079
f 1078 1081 1159
f 1078 1159 1158
f 1079 1109 1080
f 1079 1115 1109
f 1081 1090 1159
f 1082 1157 1160
f 1082 1160 1161
f 1082 1161 1083
f 1083 1161 1162
f 1083 1162 1163
f 1083 1163 1084
f 1084 1163 1085
f 1085 1163 1164
f 1085 1164 1165
f 1085 1165 1086
f 1086 1165 1166
f 1086 1166 1087
f 1087 1166 1167
f 1087 1167 1168
f 1087 1168 1089
f 1088 1114 1090
f 1088 1089 1119
f 1089 1168 1120
f 1089 1120 1119
f 1090 1114 1117
f 1090 1117 1159
f 1091 1132 1169
f 1091 1169 1170
f 1091 1170 1171
f 1091 1171 1172
f 1091 1172 1092
f 1092 1172 1173
f 1092 1173 1094
f 1092 1094 1093
f 1094 1173 1174
f 1094 1174 1095
f 1095 1175 1176
f 1095 1176 1096
f 1095 1174 1175
f 1096 1176 1177
f 1096 1177 1097
f 1097 1177 1178
f 1101 1108 1102
f 1102 1108 1179
f 1102 1179 1133
f 1102 1133 1104
f 1102 1104 1103
f 1104 1133 1105
f 1106 1180 1181
f 1106 1181 1107
f 1107 1181 1108
f 1108 1181 1182
f 1108 1182 1183
f 1108 1183 1179
f 1110 1112 1111
f 1110 1118 1112
f 1115 1158 1116
f 1116 1158 1117
f 1117 1158 1159
f 1120 1168 1184
f 1120 1184 1121
f 1121 1184 1185
f 1121 1185 1186
f 1121 1186 1122
f 1122 1186 1187
f 1122 1187 1126
f 1122 1126 1123
f 1123 1126 1125
f 1126 1188 1189
f 1126 1189 1190
f 1126 1190 1127
f 1126 1187 1188
f 1127 1190 1191
f 1127 1191 1128
f 1128 1191 1192
f 1128 1192 1193
f 1128 1193 1129
f 1129 1193 1194
f 1129 1194 1130
f 1130 1194 1131
f 1131 1194 1169
f 1131 1169 1132
f 1133 1179 1183
f 1133 1183 1134
f 1134 1195 1196
f 1134 1196 1197
f 1134 1197 1136
f 1134 1136 1135
f 1134 1183 1198
f 1134 1198 1195
f 1136 1199 1137
f 1136 1197 1199
f 1137 1199 1200
f 1137 1200 1201
f 1137 1201 1138
f 1138 1201 1139
f 1139 1201 1202
f 1139 1202 1140
f 1140 1202 1141
f 1141 1202 1142
f 1142 1202 1143
f 1143 1202 1144
f 1144 1202 1203
f 1144 1203 1204
f 1144 1204 1205
f 1144 1205 1206
f 1144 1206 1145
f 1145 1148 1147
f 1145 1147 1146
f 1145 1206 1207
f 1145 1207 1208
f 1145 1208 1148
f 1148 1208 1149
f 1149 1208 1209
f 1149 1209 1150
f 1150 1209 1210
f 1150 1210 1211
f 1150 1211 1212
f 1150 1212 1151
f 1151 1212 1152
f 1152 1212 1213
f 1152 1213 1153
f 1153 1213 1156
f 1153 1155 1154
f 1156 1214 1157
f 1156 1213 1214
f 1157 1214 1215
f 1157 1215 1160
f 1160 1216 1217
f 1160 1217 1162
f 1160 1162 1161
f 1160 1215 1216
f 1162 1217 1218
f 1162 1218 1164
f 1162 1164 1163
f 1164 1218 1219
f 1164 1219 1165
f 1165 1219 1220
f 1165 1220 1221
f 1165 1221 1222
f 1165 1222 1223
f 1165 1223 1166
f 1166 1223 1167
f 1167 1223 1224
f 1167 1224 1225
f 1167 1225 1168
f 1168 1225 1226
f 1168 1226 1184
f 1169 1194 1227
f 1169 1227 1228
f 1169 1228 1170
f 1170 1228 1229
f 1170 1229 1230
f 1170 1230 1171
f 1171 1230 1231
f 1171 1231 1172
f 1172 1231 1232
f 1172 1232 1173
f 1173 1232 1174
f 1174 1232 1175
f 1175 1233 1234
f 1175 1234 1235
f 1175 1235 1236
f 1175 1236 1176
f 1175 1232 1233
f 1176 1236 1177
f 1177 1236 1237
f 1177 1237 1178
f 1180 1238 1239
f 1180 1239 1181
f 1181 1239 1240
f 1181 1240 1241
f 1181 1241 1182
f 1182 1241 1183
f 1183 1241 1240
f 1183 1240 1198
f 1184 1226 1242
f 1184 1242 1185
f 1185 1242 1243
f 1185 1243 1244
f 1185 1244 1186
f 1186 1244 1245
f 1186 1245 1187
f 1187 1245 1188
f 1188 1245 1189
f 1189 1245 1246
f 1189 1246 1247
f 1189 1247 1190
f 1190 1247 1248
f 1190 1248 1249
f 1190 1249 1191
f 1191 1249 1250
f 1191 1250 1251
f 1191 1251 1192
f 1192 1251 1193
f 1193 1251 1252
f 1193 1252 1194
f 1194 1252 1227
f 1195 1240 1253
f 1195 1253 1254
f 1195 1254 1196
f 1195 1198 1240
f 1196 1254 1197
f 1197 1254 1255
f 1197 1255 1256
f 1197 1256 1257
f 1197 1257 1201
f 1197 1201 1200
f 1197 1200 1199
f 1201 1257 1258
f 1201 1258 1259
f 1201 1259 1260
f 1201 1260 1202
f 1202 1260 1261
f 1202 1261 1203
f 1203 1261 1262
f 1203 1262 1263
f 1203 1263 1264
f 1203 1264 1265
f 1203 1265 1266
f 1203 1266 1204
f 1204 1266 1205
f 1205 1266 1267
f 1205 1267 1268
f 1205 1268 1207
f 1205 1207 1206
f 1207 1268 1269
f 1207 1269 1212
f 1207 1212 1211
f 1207 1211 1210
f 1207 1210 1209
f 1207 1209 1208
f 1212 1269 1213
f 1213 1269 1270
f 1213 1270 1214
f 1214 1270 1271
f 1214 1271 1272
f 1214 1272 1215
f 1215 1272 1216
f 1216 1272 1273
f 1216 1273 1274
f 1216 1274 1217
f 1217 1274 1275
f 1217 1275 1218
f 1218 1275 1276
f 1218 1276 1220
f 1218 1220 1219
f 1220 1276 1277
f 1220 1277 1278
f 1220 1278 1279
f 1220 1279 1280
f 1220 1280 1221
f 1221 1280 1281
f 1221 1281 1224
f 1221 1224 1222
f 1222 1224 1223
f 1224 1281 1282
f 1224 1282 1283
f 1224 1283 1225
f 1225 1283 1226
f 1226 1283 1284
f 1226 1284 1242
f 1227 1252 1228
f 1228 1252 1285
f 1228 1285 1286
f 1228 1286 1287
f 1228 1287 1229
f 1229 1287 1288
f 1229 1288 1289
f 1229 1289 1230
f 1230 1289 1290
f 1230 1290 1231
f 1231 1290 1233
f 1231 1233 1232
f 1233 1290 1291
f 1233 1291 1234
f 1234 1291 1292
f 1234 1292 1293
f 1234 1293 1235
f 1235 1293 1294
f 1235 1294 1236
f 1236 1294 1295
f 1236 1295 1237
f 1238 1296 1239
f 1239 1254 1240
f 1239 1296 1297
f 1239 1297 1254
f 1240 1254 1253
f 1242 1284 1298
f 1242 1298 1243
f 1243 1298 1299
f 1243 1299 1300
f 1243 1300 1244
f 1244 1300 1301
f 1244 1301 1245
f 1245 1301 1246
f 1246 1301 1302
f 1246 1302 1247
f 1247 1302 1303
f 1247 1303 1304
f 1247 1304 1305
f 1247 1305 1248
f 1248 1305 1306
f 1248 1306 1249
f 1249 1306 1250
f 1250 1306 1307
f 1250 1307 1251
f 1251 1307 1285
f 1251 1285 1252
f 1254 1297 1255
f 1255 1297 1308
f 1255 1308 1256
f 1256 1262 1261
f 1256 1261 1259
f 1256 1259 1258
f 1256 1258 1257
f 1256 1308 1309
f 1256 1309 1310
f 1256 1310 1262
f 1259 1261 1260
f 1262 1310 1265
f 1262 1265 1263
f 1263 1265 1264
f 1265 1310 1311
f 1265 1311 1312
f 1265 1312 1266
f 1266 1312 1267
f 1267 1312 1313
f 1267 1313 1268
f 1268 1313 1314
f 1268 1314 1269
f 1269 1314 1270
f 1270 1314 1271
f 1271 1315 1316
f 1271 1316 1272
f 1271 1314 1313
f 1271 1313 1315
f 1272 1316 1273
f 1273 1316 1317
f 1273 1317 1318
f 1273 1318 1274
f 1274 1318 1319
f 1274 1319 1275
f 1275 1319 1320
f 1275 1320 1276
f 1276 1320 1277
f 1277 1321 1278
f 1277 1320 1321
f 1278 1322 1323
f 1278 1323 1324
f 1278 1324 1325
f 1278 1325 1326
f 1278 1326 1279
f 1278 1321 1322
f 1279 1326 1327
f 1279 1327 1280
f 1280 1328 1281
f 1280 1327 1329
f 1280 1329 1328
f 1281 1330 1283
f 1281 1283 1282
f 1281 1328 1330
f 1283 1330 1298
f 1283 1298 1284
f 1285 1331 1286
f 1285 1307 1331
f 1286 1331 1332
f 1286 1332 1333
f 1286 1333 1287
f 1287 1333 1288
f 1288 1333 1334
f 1288 1334 1335
f 1288 1335 1289
f 1289 1335 1291
f 1289 1291 1290
f 1291 1335 1336
f 1291 1336 1292
f 1292 1336 1337
f 1292 1337 1338
f 1292 1338 1339
f 1292 1339 1293
f 1293 1340 1341
f 1293 1341 1294
f 1293 1339 1340
f 1296 1342 1308
f 1296 1308 1297
f 1298 1330 1299
f 1299 1330 1343
f 1299 1343 1344
f 1299 1344 1300
f 1300 1344 1345
f 1300 1345 1346
f 1300 1346 1301
f 1301 1346 1302
f 1302 1346 1347
f 1302 1347 1303
f 1303 1347 1348
f 1303 1348 1349
f 1303 1349 1304
f 1304 1349 1305
f 1305 1349 1350
f 1305 1350 1306
f 1306 1350 1331
f 1306 1331 1307
f 1308 1342 1351
f 1308 1351 1309
f 1309 1351 1311
f 1309 1311 1310
f 1311 1352 1312
f 1312 1353 1313
f 1312 1352 1353
f 1313 1354 1355
f 1313 1355 1315
f 1313 1353 1354
f 1315 1355 1356
f 1315 1356 1357
f 1315 1357 1358
f 1315 1358 1316
f 1316 1358 1317
f 1317 1358 1359
f 1317 1359 1360
f 1317 1360 1361
f 1317 1361 1318
f 1318 1361 1362
f 1318 1362 1319
f 1319 1362 1363
f 1319 1363 1320
f 1320 1363 1364
f 1320 1364 1321
f 1321 1364 1365
f 1321 1365 1322
f 1322 1365 1323
f 1323 1365 1366
f 1323 1366 1324
f 1324 1366 1367
f 1324 1367 1368
f 1324 1368 1369
f 1324 1369 1370
f 1324 1370 1371
f 1324 1371 1325
f 1325 1371 1327
f 1325 1327 1326
f 1327 1372 1373
f 1327 1373 1374
f 1327 1374 1329
f 1327 1371 1375
f 1327 1375 1372
f 1328 1376 1330
f 1328 1329 1374
f 1328 1374 1377
f 1328 1377 1376
f 1330 1376 1343
f 1331 1350 1378
f 1331 1378 1332
f 1332 1378 1379
f 1332 1379 1380
f 1332 1380 1333
f 1333 1380 1334
f 1334 1380 1381
f 1334 1381 1382
f 1334 1382 1335
f 1335 1382 1336
f 1336 1382 1383
f 1336 1383 1337
f 1337 1383 1384
f 1343 1385 1344
f 1343 1376 1385
f 1344 1385 1386
f 1344 1386 1387
f 1344 1387 1345
f 1345 1387 1346
f 1346 1387 1347
f 1347 1387 1388
f 1347 1388 1389
f 1347 1389 1348
f 1348 1389 1390
f 1348 1390 1391
f 1348 1391 1349
f 1349 1391 1350
f 1350 1391 1392
f 1350 1392 1378
f 1357 1393 1358
f 1358 1393 1394
f 1358 1394 1359
f 1359 1394 1395
f 1359 1395 1360
f 1360 1396 1397
f 1360 1397 1361
f 1360 1395 1396
f 1361 1397 1398
f 1361 1398 1362
f 1362 1398 1399
f 1362 1399 1363
f 1363 1399 1364
f 1364 1399 1400
f 1364 1400 1365
f 1365 1401 1402
f 1365 1402 1366
f 1365 1400 1401
f 1366 1402 1403
f 1366 1403 1367
f 1367 1403 1368
f 1368 1403 1404
f 1368 1404 1405
f 1368 1405 1406
f 1368 1406 1369
f 1369 1406 1407
f 1369 1407 1375
f 1369 1375 1370
f 1370 1375 1371
f 1372 1408 1409
f 1372 1409 1374
f 1372 1374 1373
f 1372 1375 1410
f 1372 1410 1408
f 1374 1409 1377
f 1375 1407 1411
f 1375 1411 1412
f 1375 1412 1413
f 1375 1413 1410
f 1376 1377 1414
f 1376 1414 1385
f 1377 1409 1415
f 1377 1415 1414
f 1378 1392 1379
f 1379 1392 1416
f 1379 1416 1417
f 1379 1417 1418
f 1379 1418 1380
f 1380 1418 1381
f 1381 1418 1419
f 1381 1419 1420
f 1381 1420 1382
f 1382 1420 1383
f 1383 1420 1421
f 1383 1421 1422
f 1383 1422 1423
f 1383 1423 1384
f 1385 1414 1424
f 1385 1424 1425
f 1385 1425 1426
f 1385 1426 1386
f 1386 1426 1387
f 1387 1426 1388
f 1388 1426 1427
f 1388 1427 1428
f 1388 1428 1389
f 1389 1428 1390
f 1390 1428 1429
f 1390 1429 1430
f 1390 1430 1391
f 1391 1430 1431
f 1391 1431 1392
f 1392 1431 1416
f 1396 1432 1397
f 1397 1399 1398
f 1397 1432 1433
f 1397 1433 1434
f 1397 1434 1399
f 1399 1434 1435
f 1399 1435 1400
f 1400 1435 1436
f 1400 1436 1401
f 1401 1436 1402
f 1402 1436 1437
f 1402 1437 1438
f 1402 1438 1439
f 1402 1439 1403
f 1403 1440 1441
f 1403 1441 1404
f 1403 1439 1440
f 1405 1442 1406
f 1406 1442 1443
f 1406 1443 1411
f 1406 1411 1407
f 1408 1444 1409
f 1408 1410 1445
f 1408 1445 1444
f 1409 1444 1415
f 1410 1413 1446
f 1410 1446 1445
f 1411 1443 1447
f 1411 1447 1412
f 1412 1447 1448
f 1412 1448 1449
f 1412 1449 1450
f 1412 1450 1451
f 1412 1451 1446
f 1412 1446 1413
f 1414 1415 1424
f 1415 1444 1452
f 1415 1452 1453
f 1415 1453 1424
f 1416 1431 1454
f 1416 1454 1417
f 1417 1454 1455
f 1417 1455 1456
f 1417 1456 1418
f 1418 1456 1419
f 1419 1456 1457
f 1419 1457 1458
f 1419 1458 1420
f 1420 1458 1421
f 1424 1453 1459
f 1424 1459 1425
f 1425 1459 1427
f 1425 1427 1426
f 1427 1459 1460
f 1427 1460 1461
f 1427 1461 1428
f 1428 1461 1429
f 1429 1461 1462
f 1429 1462 1463
f 1429 1463 1430
f 1430 1463 1454
f 1430 1454 1431
f 1433 1464 1434
f 1434 1464 1435
f 1435 1464 1465
f 1435 1465 1466
f 1435 1466 1467
f 1435 1467 1436
f 1436 1467 1468
f 1436 1468 1437
f 1444 1445 1469
f 1444 1469 1470
f 1444 1470 1460
f 1444 1460 1452
f 1445 1446 1469
f 1446 1471 1469
f 1446 1451 1472
f 1446 1472 1471
f 1448 1473 1449
f 1449 1473 1450
f 1450 1473 1474
f 1450 1474 1475
f 1450 1475 1451
f 1451 1475 1476
f 1451 1476 1477
f 1451 1477 1472
f 1452 1460 1453
f 1453 1460 1459
f 1454 1463 1478
f 1454 1478 1455
f 1455 1478 1479
f 1455 1479 1457
f 1455 1457 1456
f 1460 1470 1480
f 1460 1480 1481
f 1460 1481 1461
f 1461 1481 1462
f 1462 1481 1482
f 1462 1482 1483
f 1462 1483 1463
f 1463 1483 1478
f 1469 1471 1484
f 1469 1484 1485
f 1469 1485 1470
f 1470 1485 1480
f 1471 1472 1477
f 1471 1477 1486
f 1471 1486 1484
f 1475 1487 1477
f 1475 1477 1476
f 1477 1487 1488
f 1477 1488 1486
f 1478 1483 1489
f 1478 1489 1490
f 1478 1490 1479
f 1479 1490 1491
f 1480 1485 1492
f 1480 1492 1493
f 1480 1493 1481
f 1481 1493 1482
f 1482 1493 1494
f 1482 1494 1495
f 1482 1495 1483
f 1483 1495 1489
f 1484 1486 1496
f 1484 1496 1492
f 1484 1492 1485
f 1486 1488 1497
f 1486 1497 1496
f 1487 1498 1488
f 1488 1498 1497
f 1489 1495 1499
f 1489 1499 1500
f 1489 1500 1491
f 1489 1491 1490
f 1492 1496 1497
f 1492 1497 1501
f 1492 1501 1493
f 1493 1501 1494
f 1494 1501 1502
f 1494 1502 1503
f 1494 1503 1504
f 1494 1504 1495
f 1495 1504 1505
f 1495 1505 1499
f 1497 1498 1502
f 1497 1502 1501

