# https://github.com/mikedh/trimesh
v 0.00944136 -0.00335705 -0.00842188
v 0.00943736 -0.00335705 -0.00251828
v 0.00980142 0.00269811 -0.00842188
v 0.04708283 -0.00335705 -0.00842188
v 0.00943736 -0.00335705 0.00264550
v 0.00980142 0.00269811 -0.00839348
v 0.04543459 0.00269811 -0.00842188
v 0.04706683 -0.00278448 -0.00842188
v 0.04732686 -0.00278448 -0.00816929
v 0.04732686 -0.00335705 -0.00817826
v 0.00944136 -0.00335705 0.00684676
v 0.00980542 0.00269811 0.00684676
v 0.04569063 0.00269811 -0.00824103
v 0.04558661 0.00245688 -0.00842188
v 0.04702282 -0.00221014 -0.00842188
v 0.04731486 -0.00221014 -0.00814987
v 0.04760290 -0.00221014 -0.00786888
v 0.04761491 -0.00278448 -0.00788084
v 0.04761491 -0.00335705 -0.00788234
v 0.04854704 -0.00335705 0.00684676
v 0.04741888 0.00269811 0.00684676
v 0.04601867 0.00269811 -0.00800190
v 0.04610269 0.00238101 -0.00806916
v 0.04567462 0.00239761 -0.00838003
v 0.04576264 0.00211548 -0.00842188
v 0.04729086 -0.00163640 -0.00811997
v 0.04695481 -0.00163640 -0.00842188
v 0.04757490 -0.00163640 -0.00784348
v 0.04784294 -0.00163640 -0.00755652
v 0.04786294 -0.00221014 -0.00758192
v 0.04787094 -0.00278448 -0.00759388
v 0.04787494 -0.00335705 -0.00759538
v 0.04866706 -0.00335705 0.00666442
v 0.04866306 -0.00221014 0.00666442
v 0.04854304 -0.00245612 0.00684676
v 0.04759490 0.00235967 0.00684676
v 0.04749889 0.00269811 0.00676008
v 0.04632672 0.00269811 -0.00776127
v 0.04639073 0.00238101 -0.00784497
v 0.04649474 0.00196611 -0.00792418
v 0.04629071 0.00178771 -0.00815136
v 0.04592266 0.00180430 -0.00842188
v 0.04725085 -0.00106206 -0.00808111
v 0.04753889 -0.00106206 -0.00780761
v 0.04685880 -0.00106206 -0.00842188
v 0.04692281 -0.00106206 -0.00836807
v 0.04781093 -0.00106206 -0.00752065
v 0.04809898 -0.00106206 -0.00719184
v 0.04813098 -0.00163640 -0.00722472
v 0.04815098 -0.00221014 -0.00724265
v 0.04815899 -0.00278448 -0.00724564
v 0.04815899 -0.00335705 -0.00724863
v 0.04870306 -0.00281471 0.00660614
v 0.04885108 -0.00335705 0.00637747
v 0.04885108 -0.00302631 0.00637747
v 0.04885108 -0.00264401 0.00637597
v 0.04864306 -0.00163640 0.00666442
v 0.04853904 -0.00221014 0.00684676
v 0.04884709 -0.00221014 0.00637298
v 0.04883908 -0.00163640 0.00636103
v 0.04761491 0.00231759 0.00684676
v 0.04775893 0.00269811 0.00644921
v 0.04750689 0.00269811 0.00675111
v 0.04666277 0.00269811 -0.00749225
v 0.04674278 0.00238101 -0.00755801
v 0.04658276 0.00158322 -0.00799443
v 0.04623871 0.00124597 -0.00837106
v 0.04614269 0.00131116 -0.00842188
v 0.04665477 0.00123293 -0.00805571
v 0.04719885 -0.00048831 -0.00803478
v 0.04748689 -0.00048831 -0.00775231
v 0.04776693 -0.00048831 -0.00746535
v 0.04674278 -0.00051676 -0.00842188
v 0.04715884 -0.00009475 -0.00799891
v 0.04805097 -0.00048831 -0.00714401
v 0.04830301 -0.00048831 -0.00685705
v 0.04833901 -0.00106206 -0.00690488
v 0.04836701 -0.00163640 -0.00693776
v 0.04837902 -0.00221014 -0.00695569
v 0.04837902 -0.00335705 -0.00696167
v 0.04901111 -0.00335705 0.00608901
v 0.04897910 -0.00281471 0.00614730
v 0.04900711 -0.00221014 0.00608602
v 0.04859505 -0.00106206 0.00666442
v 0.04851904 -0.00163640 0.00684676
v 0.04881908 -0.00106206 0.00632665
v 0.04900311 -0.00163640 0.00607407
v 0.04898711 -0.00106206 0.00603969
v 0.04770692 0.00210007 0.00684676
v 0.04782694 0.00238101 0.00654187
v 0.04820699 0.00190506 0.00626089
v 0.04812698 0.00239346 0.00607855
v 0.04824700 0.00259320 0.00574526
v 0.04798296 0.00269811 0.00608602
v 0.04674278 0.00269811 -0.00742350
v 0.04710683 0.00204317 -0.00737717
v 0.04718284 0.00166027 -0.00744891
v 0.04618670 0.00120211 -0.00842188
v 0.04639873 0.00065918 -0.00842188
v 0.04693881 0.00123293 -0.00780611
v 0.04704282 0.00065918 -0.00789280
v 0.04675878 0.00065918 -0.00813940
v 0.04768292 0.00029170 -0.00738016
v 0.04827900 -0.00019433 -0.00682567
v 0.04671078 -0.00039229 -0.00842188
v 0.04657876 0.00008662 -0.00842188
v 0.04688280 0.00009195 -0.00817677
v 0.04710283 0.00028814 -0.00794810
v 0.04852304 -0.00048831 -0.00653721
v 0.04859505 -0.00106206 -0.00653721
v 0.04863905 -0.00163640 -0.00653721
v 0.04865906 -0.00221014 -0.00653721
v 0.04866306 -0.00278448 -0.00653721
v 0.04866306 -0.00335705 -0.00653721
v 0.04929515 -0.00335705 0.00551509
v 0.04929115 -0.00278448 0.00551659
v 0.04928715 -0.00221014 0.00551659
v 0.04927915 -0.00163640 0.00551659
v 0.04852704 -0.00048831 0.00666442
v 0.04847103 -0.00106206 0.00684676
v 0.04878708 -0.00048831 0.00627284
v 0.04924714 -0.00106206 0.00551659
v 0.04895510 -0.00048831 0.00598589
v 0.04776293 0.00195722 0.00684676
v 0.04827500 0.00152276 0.00637747
v 0.04837102 0.00175096 0.00607855
v 0.04831901 0.00221090 0.00587828
v 0.04868306 0.00177882 0.00547922
v 0.04842302 0.00239346 0.00553901
v 0.04829500 0.00269811 0.00555246
v 0.04822299 0.00269811 0.00568996
v 0.04695081 0.00269811 -0.00722024
v 0.04702682 0.00238101 -0.00730094
v 0.04731086 0.00238101 -0.00701398
v 0.04767891 0.00202894 -0.00679577
v 0.04743088 0.00184461 -0.00712458
v 0.04725485 0.00123293 -0.00751915
v 0.04754290 0.00123293 -0.00723369
v 0.04640273 0.00064673 -0.00842188
v 0.04734687 0.00065918 -0.00760584
v 0.04763091 0.00065918 -0.00732785
v 0.04789095 0.00065918 -0.00704089
v 0.04823500 0.00018857 -0.00676439
v 0.04839102 0.00065918 -0.00640419
v 0.04841902 0.00003209 -0.00655814
v 0.04873907 0.00008543 -0.00606791
v 0.04878308 -0.00048831 -0.00614414
v 0.04881508 -0.00106206 -0.00619794
v 0.04883908 -0.00163640 -0.00623082
v 0.04884308 -0.00221014 -0.00623979
v 0.04884709 -0.00278448 -0.00624577
v 0.04884709 -0.00335705 -0.00624577
v 0.04941917 -0.00335705 0.00521618
v 0.04941917 -0.00278448 0.00521468
v 0.04941517 -0.00221014 0.00520870
v 0.04941117 -0.00163640 0.00519675
v 0.04939916 -0.00106206 0.00516237
v 0.04873907 0.00008543 0.00619513
v 0.04841902 0.00003327 0.00668684
v 0.04833501 -0.00010127 0.00684676
v 0.04839902 -0.00048831 0.00684676
v 0.04843502 -0.00077104 0.00684676
v 0.04918313 -0.00048831 0.00551659
v 0.04909912 0.00008543 0.00551659
v 0.04890709 0.00008543 0.00590817
v 0.04799496 0.00123293 0.00684676
v 0.04831901 0.00123293 0.00643276
v 0.04852304 0.00123293 0.00609051
v 0.04809498 0.00123293 0.00671972
v 0.04877107 0.00123293 0.00564213
v 0.04886709 0.00156840 0.00526251
v 0.04879908 0.00195129 0.00509661
v 0.04835901 0.00269811 0.00540748
v 0.04723885 0.00269811 -0.00693776
v 0.04774292 0.00164605 -0.00687200
v 0.04759890 0.00238101 -0.00670162
v 0.04782694 0.00238101 -0.00641466
v 0.04827500 0.00152276 -0.00625025
v 0.04780693 0.00123293 -0.00694673
v 0.04809498 0.00123293 -0.00659251
v 0.04817499 0.00065918 -0.00669115
v 0.04831901 0.00123293 -0.00630555
v 0.04869506 0.00065147 -0.00592742
v 0.04887109 0.00045529 -0.00571370
v 0.04890709 0.00008543 -0.00578095
v 0.04895110 -0.00048831 -0.00585718
v 0.04898711 -0.00106206 -0.00591098
v 0.04900311 -0.00163640 -0.00594386
v 0.04900711 -0.00221014 -0.00595283
v 0.04901111 -0.00278448 -0.00595881
v 0.04901111 -0.00335705 -0.00595881
v 0.04952718 -0.00335705 0.00492772
v 0.04952718 -0.00278448 0.00492772
v 0.04952718 -0.00221014 0.00492174
v 0.04951918 -0.00163640 0.00490979
v 0.04936716 -0.00048831 0.00508764
v 0.04950718 -0.00106206 0.00487541
v 0.04947918 -0.00048831 0.00480068
v 0.04869506 0.00065147 0.00605464
v 0.04839102 0.00065918 0.00653290
v 0.04887109 0.00045469 0.00584091
v 0.04825500 0.00025258 0.00684676
v 0.04934716 0.00013226 0.00492324
v 0.04897110 0.00065147 0.00553901
v 0.04942317 0.00035453 0.00464674
v 0.04923114 0.00065918 0.00494117
v 0.04815498 0.00065918 0.00684676
v 0.04817899 0.00065918 0.00681986
v 0.04882308 0.00083699 0.00574526
v 0.04891109 0.00123293 0.00535517
v 0.04908312 0.00123293 0.00494117
v 0.04892710 0.00177882 0.00491875
v 0.04870707 0.00235434 0.00491875
v 0.04887109 0.00214452 0.00471250
v 0.04854704 0.00269811 0.00493818
v 0.04731886 0.00269811 -0.00684659
v 0.04750689 0.00269811 -0.00662390
v 0.04775893 0.00269811 -0.00632199
v 0.04820699 0.00190506 -0.00613367
v 0.04837102 0.00175096 -0.00595134
v 0.04852304 0.00123293 -0.00596329
v 0.04897110 0.00065147 -0.00541179
v 0.04909912 0.00008543 -0.00538937
v 0.04882308 0.00083818 -0.00561954
v 0.04918313 -0.00048831 -0.00538937
v 0.04924714 -0.00106206 -0.00538937
v 0.04927515 -0.00163640 -0.00538937
v 0.04928715 -0.00221014 -0.00538937
v 0.04929115 -0.00278448 -0.00538937
v 0.04929115 -0.00335705 -0.00538937
v 0.04971121 -0.00335705 0.00436576
v 0.04971121 -0.00278448 0.00436725
v 0.04970721 -0.00221014 0.00436725
v 0.04969521 -0.00163640 0.00436725
v 0.04967520 -0.00106206 0.00436725
v 0.04961920 -0.00048831 0.00436725
v 0.04819899 0.00049381 0.00684676
v 0.04951918 0.00013226 0.00442106
v 0.04970321 0.00008543 0.00379333
v 0.04959919 0.00065918 0.00379333
v 0.04947518 0.00065918 0.00424320
v 0.04943517 0.00098636 0.00411467
v 0.04938316 0.00065918 0.00453016
v 0.04930715 0.00119973 0.00433138
v 0.04911112 0.00180727 0.00436725
v 0.04879108 0.00252741 0.00448682
v 0.04874307 0.00269811 0.00441359
v 0.04892310 0.00235434 0.00432391
v 0.04780293 0.00269811 -0.00625324
v 0.04812698 0.00239346 -0.00595134
v 0.04831901 0.00221090 -0.00575106
v 0.04868306 0.00177882 -0.00535201
v 0.04886709 0.00156840 -0.00513529
v 0.04877107 0.00123293 -0.00551492
v 0.04891109 0.00123293 -0.00522796
v 0.04923114 0.00065918 -0.00481396
v 0.04942317 0.00035393 -0.00451953
v 0.04934716 0.00013166 -0.00479602
v 0.04936716 -0.00048831 -0.00495893
v 0.04939517 -0.00106206 -0.00503366
v 0.04941117 -0.00163640 -0.00506654
v 0.04941517 -0.00221014 -0.00507850
v 0.04941917 -0.00278448 -0.00508597
v 0.04941517 -0.00335705 -0.00508448
v 0.04986323 -0.00335705 0.00379333
v 0.04986323 -0.00278448 0.00379333
v 0.04985523 -0.00221014 0.00379333
v 0.04984723 -0.00163640 0.00379333
v 0.04983123 -0.00106206 0.00379333
v 0.04978322 -0.00048831 0.00379333
v 0.04993124 -0.00052862 0.00317458
v 0.04983523 0.00008543 0.00321942
v 0.04973922 0.00065918 0.00321942
v 0.04959919 0.00123293 0.00321942
v 0.04947518 0.00119973 0.00375746
v 0.04938316 0.00136866 0.00392486
v 0.04931115 0.00176933 0.00375746
v 0.04885108 0.00269811 0.00411467
v 0.04885909 0.00268744 0.00410421
v 0.04907512 0.00238101 0.00379333
v 0.04813498 0.00269811 -0.00572117
v 0.04824700 0.00259320 -0.00561804
v 0.04842302 0.00239346 -0.00541179
v 0.04892710 0.00177882 -0.00479304
v 0.04908312 0.00123293 -0.00481396
v 0.04879908 0.00195129 -0.00496940
v 0.04943517 0.00098695 -0.00398895
v 0.04947518 0.00065918 -0.00411748
v 0.04959919 0.00065918 -0.00366612
v 0.04970321 0.00008543 -0.00366612
v 0.04951918 0.00013166 -0.00429235
v 0.04961920 -0.00048831 -0.00424004
v 0.04947918 -0.00048831 -0.00467197
v 0.04938316 0.00065918 -0.00440444
v 0.04950718 -0.00106206 -0.00474670
v 0.04951918 -0.00163640 -0.00477958
v 0.04952718 -0.00221014 -0.00479154
v 0.04952718 -0.00278448 -0.00479901
v 0.04952718 -0.00335705 -0.00479752
v 0.04996725 -0.00335705 0.00333898
v 0.04996725 -0.00278448 0.00333450
v 0.04996325 -0.00221014 0.00332254
v 0.04995925 -0.00163640 0.00329863
v 0.04995125 -0.00106206 0.00326575
v 0.05000325 -0.00074674 0.00295188
v 0.04997525 -0.00036384 0.00282036
v 0.05001125 -0.00010246 0.00243775
v 0.04994724 0.00008721 0.00263503
v 0.04985123 0.00065918 0.00264550
v 0.04971521 0.00123293 0.00264550
v 0.04947117 0.00167924 0.00321942
v 0.04943517 0.00155299 0.00354224
v 0.04941917 0.00208228 0.00291452
v 0.04938716 0.00196611 0.00321942
v 0.04893910 0.00269811 0.00379333
v 0.04922314 0.00238101 0.00321942
v 0.04822299 0.00269811 -0.00556274
v 0.04835901 0.00269811 -0.00528027
v 0.04887109 0.00214689 -0.00458678
v 0.04911112 0.00180727 -0.00424004
v 0.04930715 0.00120033 -0.00420417
v 0.04842302 0.00269811 -0.00513380
v 0.04870707 0.00235553 -0.00479304
v 0.04947518 0.00120033 -0.00363175
v 0.04938316 0.00136984 -0.00379914
v 0.04959919 0.00123293 -0.00309220
v 0.04973922 0.00065918 -0.00309220
v 0.04983523 0.00008543 -0.00309220
v 0.04978322 -0.00048831 -0.00366612
v 0.04967520 -0.00106206 -0.00424004
v 0.04969521 -0.00163640 -0.00424004
v 0.04970321 -0.00221014 -0.00424004
v 0.04970721 -0.00278448 -0.00424004
v 0.04970721 -0.00335705 -0.00424154
v 0.05001926 -0.00335705 0.00305053
v 0.05001926 -0.00278448 0.00304604
v 0.05001525 -0.00221014 0.00303558
v 0.05001125 -0.00163640 0.00301167
v 0.05000725 -0.00106206 0.00297879
v 0.05006326 -0.00106206 0.00264550
v 0.05014727 -0.00106206 0.00207158
v 0.05011127 -0.00048831 0.00207158
v 0.05003126 -0.00052862 0.00263503
v 0.05003526 0.00008721 0.00206560
v 0.04998325 0.00028044 0.00225242
v 0.04980722 0.00123293 0.00207158
v 0.04994724 0.00063962 0.00206560
v 0.04952718 0.00185765 0.00269183
v 0.04933916 0.00236975 0.00269183
v 0.04920314 0.00269811 0.00266642
v 0.04945517 0.00217119 0.00253191
v 0.04908312 0.00269811 0.00321792
v 0.04892310 0.00235553 -0.00419819
v 0.04879108 0.00252919 -0.00436110
v 0.04931115 0.00176992 -0.00363175
v 0.04855104 0.00269811 -0.00481097
v 0.04943517 0.00155358 -0.00341653
v 0.04971521 0.00123293 -0.00251828
v 0.04947117 0.00167983 -0.00309220
v 0.04941917 0.00208228 -0.00278731
v 0.04985123 0.00065918 -0.00251828
v 0.04994724 0.00008721 -0.00250782
v 0.04993124 -0.00052921 -0.00304587
v 0.05000325 -0.00074792 -0.00282467
v 0.04983123 -0.00106206 -0.00366612
v 0.04984723 -0.00163640 -0.00366612
v 0.04985523 -0.00221014 -0.00366612
v 0.04985923 -0.00278448 -0.00366612
v 0.04985923 -0.00335705 -0.00366762
v 0.05009127 -0.00335705 0.00264400
v 0.05008726 -0.00278448 0.00264550
v 0.05008326 -0.00221014 0.00264550
v 0.05007526 -0.00163640 0.00264550
v 0.05015928 -0.00163640 0.00207158
v 0.05021128 -0.00106206 0.00149766
v 0.05017528 -0.00048831 0.00149766
v 0.05010327 0.00008543 0.00149766
v 0.05000725 0.00043513 0.00186981
v 0.04963920 0.00180727 0.00207158
v 0.04997525 0.00081803 0.00160228
v 0.04999925 0.00094961 0.00121967
v 0.04937116 0.00254401 0.00207158
v 0.04930315 0.00269811 0.00207158
v 0.04949118 0.00225713 0.00207158
v 0.04885909 0.00268804 -0.00397849
v 0.04907512 0.00238101 -0.00366612
v 0.04874307 0.00269811 -0.00428787
v 0.04938716 0.00196671 -0.00309220
v 0.04952718 0.00185765 -0.00256461
v 0.04964320 0.00180727 -0.00194436
v 0.04980722 0.00123293 -0.00194436
v 0.04922314 0.00238101 -0.00309220
v 0.04908712 0.00269811 -0.00309071
v 0.04913913 0.00269811 -0.00284560
v 0.04920314 0.00269811 -0.00253921
v 0.04933916 0.00237034 -0.00256461
v 0.04945517 0.00217178 -0.00240469
v 0.04994724 0.00063962 -0.00193689
v 0.04998325 0.00027984 -0.00212371
v 0.05001125 -0.00010246 -0.00230904
v 0.05003126 -0.00052921 -0.00250782
v 0.05011127 -0.00048831 -0.00194436
v 0.05014727 -0.00106206 -0.00194436
v 0.05006326 -0.00106206 -0.00251828
v 0.05000725 -0.00106206 -0.00284859
v 0.04995125 -0.00106206 -0.00313554
v 0.04995925 -0.00163640 -0.00316544
v 0.04996325 -0.00221014 -0.00319234
v 0.04996725 -0.00278448 -0.00320280
v 0.04996725 -0.00335705 -0.00320579
v 0.05017128 -0.00335705 0.00207008
v 0.05017128 -0.00278448 0.00207158
v 0.05016728 -0.00221014 0.00207158
v 0.05022328 -0.00163640 0.00149766
v 0.05022328 -0.00048831 0.00092374
v 0.05025529 -0.00106206 0.00092374
v 0.05015127 0.00008543 0.00092374
v 0.05002326 0.00063962 0.00144535
v 0.04971121 0.00180727 0.00149766
v 0.05006326 0.00065918 0.00092374
v 0.05009127 0.00065918 0.00034982
v 0.05000725 0.00097628 0.00092374
v 0.04992324 0.00126375 0.00092374
v 0.04975922 0.00180727 0.00092374
v 0.04940317 0.00261750 0.00160676
v 0.04933916 0.00269811 0.00180255
v 0.04950718 0.00240828 0.00144834
v 0.04886309 0.00269811 -0.00394710
v 0.04893910 0.00269811 -0.00366612
v 0.04885108 0.00269811 -0.00398746
v 0.04897110 0.00269811 -0.00354207
v 0.04949118 0.00225832 -0.00194436
v 0.04971521 0.00180727 -0.00137044
v 0.04999925 0.00095020 -0.00109245
v 0.04997525 0.00081743 -0.00147506
v 0.04930315 0.00269811 -0.00194436
v 0.04937116 0.00254519 -0.00194436
v 0.05000725 0.00043454 -0.00174110
v 0.05003526 0.00008721 -0.00193689
v 0.05010327 0.00008543 -0.00137044
v 0.05017528 -0.00048831 -0.00137044
v 0.05021128 -0.00106206 -0.00137044
v 0.05015928 -0.00163640 -0.00194436
v 0.05007526 -0.00163640 -0.00251828
v 0.05001125 -0.00163640 -0.00287848
v 0.05001525 -0.00221014 -0.00290538
v 0.05001926 -0.00278448 -0.00291584
v 0.05008726 -0.00335705 -0.00251978
v 0.05023129 -0.00335705 0.00149616
v 0.05023129 -0.00278448 0.00149766
v 0.05023129 -0.00221014 0.00149766
v 0.05026729 -0.00163640 0.00092374
v 0.05017928 0.00008543 0.00034982
v 0.05028329 -0.00106206 0.00034982
v 0.05024729 -0.00048831 0.00034982
v 0.05009127 0.00065918 -0.00022410
v 0.05001926 0.00102607 -0.00022410
v 0.05001926 0.00102548 0.00034982
v 0.04979122 0.00180727 0.00034982
v 0.04955919 0.00238101 0.00092374
v 0.04937116 0.00269811 0.00156192
v 0.04942717 0.00267203 0.00122415
v 0.04950718 0.00240887 -0.00132262
v 0.04940317 0.00261810 -0.00148104
v 0.04976322 0.00180727 -0.00079652
v 0.05000725 0.00097687 -0.00079652
v 0.05006326 0.00065918 -0.00079652
v 0.05015127 0.00008543 -0.00079652
v 0.05002326 0.00063962 -0.00131813
v 0.04992324 0.00126375 -0.00079652
v 0.04935116 0.00269811 -0.00159015
v 0.05022328 -0.00048831 -0.00079652
v 0.05025529 -0.00106206 -0.00079652
v 0.05022328 -0.00163640 -0.00137044
v 0.05016728 -0.00221014 -0.00194436
v 0.05008326 -0.00221014 -0.00251828
v 0.05008726 -0.00278448 -0.00251828
v 0.05016728 -0.00335705 -0.00194586
v 0.05027529 -0.00335705 0.00092224
v 0.05027529 -0.00278448 0.00092374
v 0.05027529 -0.00221014 0.00092374
v 0.05017928 0.00008543 -0.00022410
v 0.05028329 -0.00106206 -0.00022410
v 0.05029930 -0.00221014 0.00034982
v 0.05024729 -0.00048831 -0.00022410
v 0.04979122 0.00180727 -0.00022410
v 0.04959119 0.00238101 0.00034982
v 0.04941117 0.00269811 0.00124956
v 0.04943917 0.00269811 0.00078923
v 0.04943117 0.00269811 0.00092374
v 0.04955919 0.00238101 -0.00079652
v 0.04942717 0.00267203 -0.00109843
v 0.04937116 0.00269811 -0.00143621
v 0.04959119 0.00238101 -0.00022410
v 0.05026729 -0.00163640 -0.00079652
v 0.05023129 -0.00221014 -0.00137044
v 0.05023129 -0.00335705 -0.00137194
v 0.05030330 -0.00335705 0.00034832
v 0.05027529 -0.00221014 -0.00079652
v 0.05029930 -0.00221014 -0.00022410
v 0.04945917 0.00269811 0.00039167
v 0.04943917 0.00269811 -0.00067397
v 0.04941117 0.00269811 -0.00112384
v 0.04941517 0.00269811 -0.00107302
v 0.04945917 0.00269811 -0.00022410
v 0.05027529 -0.00335705 -0.00079802
v 0.05029930 -0.00335705 -0.00022559
f 1 2 3
f 1 3 7
f 1 7 14
f 1 14 25
f 1 25 42
f 1 42 68
f 1 68 98
f 1 98 99
f 1 99 139
f 1 139 106
f 1 106 105
f 1 105 73
f 1 73 45
f 1 45 27
f 1 27 15
f 1 15 8
f 1 8 4
f 1 4 10
f 1 10 19
f 1 19 32
f 1 32 52
f 1 52 80
f 1 80 114
f 1 114 152
f 1 152 191
f 1 191 230
f 1 230 264
f 1 264 299
f 1 299 334
f 1 334 369
f 1 369 410
f 1 410 448
f 1 448 478
f 1 478 497
f 1 497 506
f 1 506 507
f 1 507 498
f 1 498 479
f 1 479 449
f 1 449 411
f 1 411 370
f 1 370 335
f 1 335 300
f 1 300 265
f 1 265 231
f 1 231 192
f 1 192 153
f 1 153 115
f 1 115 81
f 1 81 54
f 1 54 33
f 1 33 20
f 1 20 11
f 1 11 5
f 1 5 2
f 2 5 6
f 2 6 3
f 3 6 12
f 3 12 21
f 3 21 37
f 3 37 63
f 3 63 62
f 3 62 94
f 3 94 131
f 3 131 130
f 3 130 173
f 3 173 215
f 3 215 247
f 3 247 278
f 3 278 315
f 3 315 352
f 3 352 350
f 3 350 383
f 3 383 426
f 3 426 461
f 3 461 488
f 3 488 490
f 3 490 489
f 3 489 501
f 3 501 505
f 3 505 502
f 3 502 504
f 3 504 503
f 3 503 493
f 3 493 471
f 3 471 436
f 3 436 395
f 3 395 394
f 3 394 393
f 3 393 431
f 3 431 429
f 3 429 428
f 3 428 430
f 3 430 387
f 3 387 356
f 3 356 322
f 3 322 318
f 3 318 317
f 3 317 281
f 3 281 249
f 3 249 218
f 3 218 217
f 3 217 216
f 3 216 174
f 3 174 132
f 3 132 95
f 3 95 64
f 3 64 38
f 3 38 22
f 3 22 13
f 3 13 7
f 4 8 9
f 4 9 10
f 5 11 12
f 5 12 6
f 7 13 14
f 8 15 16
f 8 16 9
f 9 16 17
f 9 17 18
f 9 18 10
f 10 18 19
f 11 20 35
f 11 35 58
f 11 58 85
f 11 85 120
f 11 120 162
f 11 162 161
f 11 161 160
f 11 160 202
f 11 202 237
f 11 237 207
f 11 207 166
f 11 166 124
f 11 124 89
f 11 89 61
f 11 61 36
f 11 36 21
f 11 21 12
f 13 22 14
f 14 22 23
f 14 23 24
f 14 24 25
f 15 26 16
f 15 27 26
f 16 26 28
f 16 28 17
f 17 28 29
f 17 29 30
f 17 30 18
f 18 30 31
f 18 31 32
f 18 32 19
f 20 33 34
f 20 34 35
f 21 36 37
f 22 38 39
f 22 39 23
f 23 39 40
f 23 40 41
f 23 41 42
f 23 42 24
f 24 42 25
f 26 27 43
f 26 43 44
f 26 44 28
f 27 45 46
f 27 46 43
f 28 44 47
f 28 47 29
f 29 47 48
f 29 48 49
f 29 49 30
f 30 49 50
f 30 50 31
f 31 50 51
f 31 51 32
f 32 51 52
f 33 53 34
f 33 54 55
f 33 55 56
f 33 56 53
f 34 57 85
f 34 85 58
f 34 58 35
f 34 53 56
f 34 56 59
f 34 59 60
f 34 60 57
f 36 61 62
f 36 62 63
f 36 63 37
f 38 64 39
f 39 64 65
f 39 65 40
f 40 65 66
f 40 66 41
f 41 67 68
f 41 68 42
f 41 66 69
f 41 69 67
f 43 46 70
f 43 70 44
f 44 71 72
f 44 72 47
f 44 70 71
f 45 73 74
f 45 74 70
f 45 70 46
f 47 72 75
f 47 75 76
f 47 76 48
f 48 76 77
f 48 77 49
f 49 77 78
f 49 78 50
f 50 78 79
f 50 79 51
f 51 79 52
f 52 79 80
f 54 81 82
f 54 82 55
f 55 82 56
f 56 82 83
f 56 83 59
f 57 84 120
f 57 120 85
f 57 60 86
f 57 86 84
f 59 83 87
f 59 87 60
f 60 87 88
f 60 88 86
f 61 89 90
f 61 90 62
f 62 90 91
f 62 91 92
f 62 92 93
f 62 93 94
f 64 95 65
f 65 95 96
f 65 96 66
f 66 96 97
f 66 97 69
f 67 98 68
f 67 69 99
f 67 99 98
f 69 97 100
f 69 100 101
f 69 101 102
f 69 102 99
f 70 74 71
f 71 103 72
f 71 74 103
f 72 103 104
f 72 104 75
f 73 105 74
f 74 105 106
f 74 106 107
f 74 107 102
f 74 102 108
f 74 108 103
f 75 104 76
f 76 104 109
f 76 109 110
f 76 110 77
f 77 110 78
f 78 110 111
f 78 111 79
f 79 111 112
f 79 112 113
f 79 113 80
f 80 113 114
f 81 83 82
f 81 115 83
f 83 115 116
f 83 116 117
f 83 117 118
f 83 118 87
f 84 119 120
f 84 86 121
f 84 121 119
f 86 88 123
f 86 123 121
f 87 118 122
f 87 122 88
f 88 122 123
f 89 124 90
f 90 124 125
f 90 125 91
f 91 125 126
f 91 126 127
f 91 127 92
f 92 127 93
f 93 127 128
f 93 128 129
f 93 129 130
f 93 130 131
f 93 131 94
f 95 132 133
f 95 133 96
f 96 133 134
f 96 134 135
f 96 135 136
f 96 136 97
f 97 137 100
f 97 136 138
f 97 138 137
f 99 102 139
f 100 137 101
f 101 137 140
f 101 140 108
f 101 108 102
f 102 107 106
f 102 106 139
f 103 108 140
f 103 140 141
f 103 141 142
f 103 142 104
f 104 143 144
f 104 144 145
f 104 145 146
f 104 146 109
f 104 142 143
f 109 146 147
f 109 147 110
f 110 147 148
f 110 148 149
f 110 149 111
f 111 149 112
f 112 149 150
f 112 150 151
f 112 151 113
f 113 151 152
f 113 152 114
f 115 153 154
f 115 154 116
f 116 154 117
f 117 154 155
f 117 155 118
f 118 155 156
f 118 156 157
f 118 157 122
f 119 121 158
f 119 158 159
f 119 159 160
f 119 160 161
f 119 161 162
f 119 162 120
f 121 123 165
f 121 165 158
f 122 157 163
f 122 163 123
f 123 163 164
f 123 164 165
f 124 166 125
f 125 167 168
f 125 168 126
f 125 166 169
f 125 169 167
f 126 168 170
f 126 170 171
f 126 171 128
f 126 128 127
f 128 171 129
f 129 171 172
f 129 172 130
f 130 172 173
f 132 174 133
f 133 174 134
f 134 174 135
f 135 175 136
f 135 174 176
f 135 176 177
f 135 177 178
f 135 178 175
f 136 175 138
f 137 138 141
f 137 141 140
f 138 175 179
f 138 179 141
f 141 179 142
f 142 179 180
f 142 180 181
f 142 181 143
f 143 181 144
f 144 181 182
f 144 182 146
f 144 146 145
f 146 182 183
f 146 183 184
f 146 184 185
f 146 185 186
f 146 186 147
f 147 186 187
f 147 187 148
f 148 187 149
f 149 187 188
f 149 188 189
f 149 189 150
f 150 189 190
f 150 190 151
f 151 190 191
f 151 191 152
f 153 192 193
f 153 193 154
f 154 193 194
f 154 194 155
f 155 194 156
f 156 194 195
f 156 195 197
f 156 197 157
f 157 196 163
f 157 197 198
f 157 198 196
f 158 199 200
f 158 200 159
f 158 165 201
f 158 201 199
f 159 200 160
f 160 200 202
f 163 196 203
f 163 203 164
f 164 204 201
f 164 201 165
f 164 203 205
f 164 205 206
f 164 206 204
f 166 207 208
f 166 208 169
f 167 169 208
f 167 208 200
f 167 200 199
f 167 199 168
f 168 199 201
f 168 201 209
f 168 209 170
f 170 209 210
f 170 210 171
f 171 210 206
f 171 206 211
f 171 211 212
f 171 212 172
f 172 213 173
f 172 212 214
f 172 214 213
f 173 213 215
f 174 216 176
f 175 180 179
f 175 178 180
f 176 217 218
f 176 218 177
f 176 216 217
f 177 218 219
f 177 219 178
f 178 219 220
f 178 220 221
f 178 221 182
f 178 182 180
f 180 182 181
f 182 221 183
f 183 221 184
f 184 222 223
f 184 223 185
f 184 221 224
f 184 224 222
f 185 223 225
f 185 225 186
f 186 225 226
f 186 226 187
f 187 226 188
f 188 226 227
f 188 227 228
f 188 228 189
f 189 228 190
f 190 228 229
f 190 229 230
f 190 230 191
f 192 231 232
f 192 232 193
f 193 232 194
f 194 232 233
f 194 233 195
f 195 233 234
f 195 234 235
f 195 235 197
f 196 198 203
f 197 235 198
f 198 235 236
f 198 236 205
f 198 205 203
f 200 208 237
f 200 237 202
f 201 204 209
f 204 210 209
f 204 206 210
f 205 236 238
f 205 238 239
f 205 239 240
f 205 240 241
f 205 241 242
f 205 242 243
f 205 243 211
f 205 211 206
f 207 237 208
f 211 243 244
f 211 244 212
f 212 244 245
f 212 245 214
f 213 214 246
f 213 246 247
f 213 247 215
f 214 245 248
f 214 248 246
f 218 249 250
f 218 250 219
f 219 250 251
f 219 251 220
f 220 251 252
f 220 252 253
f 220 253 254
f 220 254 221
f 221 254 224
f 222 224 255
f 222 255 256
f 222 256 223
f 223 256 257
f 223 257 258
f 223 258 225
f 224 254 255
f 225 258 259
f 225 259 226
f 226 259 260
f 226 260 261
f 226 261 227
f 227 261 228
f 228 261 262
f 228 262 263
f 228 263 229
f 229 263 230
f 230 263 264
f 231 265 232
f 232 265 266
f 232 266 233
f 233 266 267
f 233 267 268
f 233 268 234
f 234 268 269
f 234 269 235
f 235 269 270
f 235 270 236
f 236 270 238
f 238 270 239
f 239 270 271
f 239 271 272
f 239 272 273
f 239 273 240
f 240 273 274
f 240 274 275
f 240 275 242
f 240 242 241
f 242 275 276
f 242 276 244
f 242 244 243
f 244 276 245
f 245 276 277
f 245 277 248
f 246 248 278
f 246 278 247
f 248 279 278
f 248 277 280
f 248 280 279
f 249 281 282
f 249 282 250
f 250 282 251
f 251 282 252
f 252 282 283
f 252 283 253
f 253 284 285
f 253 285 256
f 253 256 255
f 253 255 254
f 253 283 286
f 253 286 284
f 256 285 257
f 257 287 288
f 257 288 289
f 257 289 290
f 257 290 291
f 257 291 292
f 257 292 293
f 257 293 258
f 257 285 294
f 257 294 287
f 258 293 259
f 259 293 295
f 259 295 260
f 260 295 261
f 261 295 296
f 261 296 297
f 261 297 262
f 262 297 263
f 263 297 298
f 263 298 299
f 263 299 264
f 265 300 266
f 266 300 301
f 266 301 302
f 266 302 267
f 267 302 268
f 268 302 303
f 268 303 304
f 268 304 269
f 269 304 305
f 269 305 270
f 270 305 271
f 271 305 306
f 271 306 307
f 271 307 308
f 271 308 272
f 272 308 309
f 272 309 273
f 273 310 274
f 273 309 310
f 274 311 312
f 274 312 275
f 274 310 313
f 274 313 311
f 275 312 276
f 276 312 277
f 277 312 314
f 277 314 280
f 278 279 315
f 279 280 315
f 280 314 316
f 280 316 315
f 281 317 282
f 282 317 318
f 282 318 283
f 283 318 286
f 284 286 319
f 284 319 320
f 284 320 321
f 284 321 285
f 285 321 294
f 286 318 322
f 286 322 323
f 286 323 319
f 287 324 289
f 287 289 288
f 287 294 321
f 287 321 325
f 287 325 324
f 289 324 326
f 289 326 327
f 289 327 290
f 290 327 328
f 290 328 329
f 290 329 291
f 291 329 292
f 292 329 330
f 292 330 293
f 293 330 295
f 295 330 296
f 296 330 331
f 296 331 297
f 297 331 332
f 297 332 333
f 297 333 298
f 298 333 334
f 298 334 299
f 300 335 336
f 300 336 301
f 301 336 337
f 301 337 302
f 302 337 338
f 302 338 303
f 303 338 339
f 303 339 304
f 304 339 305
f 305 339 340
f 305 340 341
f 305 341 342
f 305 342 343
f 305 343 307
f 305 307 306
f 307 343 342
f 307 342 344
f 307 344 345
f 307 345 308
f 308 345 309
f 309 346 310
f 309 345 347
f 309 347 346
f 310 346 348
f 310 348 313
f 311 313 314
f 311 314 312
f 313 349 350
f 313 350 316
f 313 316 314
f 313 348 351
f 313 351 349
f 315 316 352
f 316 350 352
f 319 353 320
f 319 323 354
f 319 354 353
f 320 353 355
f 320 355 325
f 320 325 321
f 322 356 323
f 323 356 354
f 324 325 357
f 324 357 326
f 325 355 357
f 326 358 327
f 326 357 359
f 326 359 360
f 326 360 358
f 327 358 361
f 327 361 328
f 328 361 362
f 328 362 363
f 328 363 329
f 329 363 364
f 329 364 365
f 329 365 330
f 330 365 331
f 331 365 366
f 331 366 367
f 331 367 332
f 332 367 368
f 332 368 333
f 333 368 369
f 333 369 334
f 335 370 336
f 336 370 371
f 336 371 372
f 336 372 337
f 337 372 373
f 337 373 338
f 338 373 339
f 339 373 340
f 340 373 374
f 340 374 341
f 341 374 414
f 341 414 375
f 341 375 376
f 341 376 342
f 342 376 377
f 342 377 344
f 344 378 345
f 344 377 378
f 345 378 347
f 346 379 348
f 346 347 380
f 346 380 381
f 346 381 379
f 347 378 380
f 348 379 351
f 349 351 350
f 350 351 382
f 350 382 383
f 351 379 384
f 351 384 382
f 353 354 385
f 353 385 386
f 353 386 355
f 354 356 387
f 354 387 385
f 355 388 357
f 355 386 388
f 357 388 359
f 358 360 389
f 358 389 390
f 358 390 391
f 358 391 361
f 359 388 360
f 360 388 392
f 360 392 393
f 360 393 394
f 360 394 395
f 360 395 396
f 360 396 397
f 360 397 389
f 361 391 398
f 361 398 399
f 361 399 362
f 362 399 400
f 362 400 363
f 363 400 364
f 364 400 401
f 364 401 402
f 364 402 403
f 364 403 404
f 364 404 405
f 364 405 406
f 364 406 365
f 365 406 366
f 366 406 407
f 366 407 408
f 366 408 367
f 367 408 409
f 367 409 368
f 368 409 410
f 368 410 369
f 370 411 412
f 370 412 371
f 371 412 413
f 371 413 372
f 372 413 374
f 372 374 373
f 374 413 451
f 374 451 414
f 375 415 376
f 375 414 452
f 375 452 416
f 375 416 415
f 376 415 417
f 376 417 377
f 377 417 381
f 377 381 418
f 377 418 378
f 378 381 380
f 378 418 381
f 379 419 384
f 379 381 419
f 381 417 420
f 381 420 421
f 381 421 422
f 381 422 423
f 381 423 424
f 381 424 419
f 382 425 383
f 382 384 425
f 383 425 426
f 384 419 427
f 384 427 425
f 385 428 429
f 385 429 386
f 385 387 430
f 385 430 428
f 386 429 431
f 386 431 392
f 386 392 388
f 389 397 390
f 390 397 432
f 390 432 433
f 390 433 434
f 390 434 391
f 391 434 435
f 391 435 398
f 392 431 393
f 395 436 437
f 395 437 397
f 395 397 396
f 397 437 432
f 398 435 438
f 398 438 399
f 399 438 439
f 399 439 400
f 400 439 402
f 400 402 401
f 402 440 441
f 402 441 442
f 402 442 403
f 402 439 440
f 403 442 474
f 403 474 443
f 403 443 444
f 403 444 404
f 404 444 405
f 405 407 406
f 405 444 445
f 405 445 407
f 407 445 446
f 407 446 408
f 408 446 447
f 408 447 409
f 409 447 410
f 410 447 448
f 411 449 450
f 411 450 412
f 412 450 451
f 412 451 413
f 414 451 481
f 414 481 452
f 415 453 417
f 415 416 454
f 415 454 455
f 415 455 453
f 416 452 454
f 417 453 421
f 417 421 420
f 419 424 427
f 421 453 482
f 421 482 456
f 421 456 457
f 421 457 458
f 421 458 422
f 422 458 459
f 422 459 423
f 423 459 424
f 424 459 487
f 424 487 460
f 424 460 427
f 425 461 426
f 425 427 462
f 425 462 461
f 427 460 462
f 432 463 433
f 432 437 464
f 432 464 463
f 433 463 465
f 433 465 434
f 434 466 456
f 434 456 467
f 434 467 468
f 434 468 440
f 434 440 469
f 434 469 438
f 434 438 435
f 434 465 470
f 434 470 466
f 436 471 464
f 436 464 437
f 438 469 440
f 438 440 439
f 440 468 472
f 440 472 441
f 441 472 442
f 442 472 473
f 442 473 495
f 442 495 474
f 443 474 496
f 443 496 475
f 443 475 476
f 443 476 444
f 444 476 446
f 444 446 445
f 446 476 447
f 447 476 477
f 447 477 448
f 448 477 475
f 448 475 478
f 449 479 480
f 449 480 450
f 450 480 481
f 450 481 451
f 452 481 454
f 453 455 485
f 453 485 482
f 454 483 485
f 454 485 455
f 454 481 484
f 454 484 500
f 454 500 483
f 456 482 468
f 456 468 467
f 456 466 457
f 457 466 486
f 457 486 459
f 457 459 458
f 459 486 494
f 459 494 487
f 460 487 462
f 461 462 488
f 462 487 489
f 462 489 490
f 462 490 488
f 463 491 465
f 463 464 492
f 463 492 491
f 464 471 493
f 464 493 492
f 465 491 494
f 465 494 486
f 465 486 470
f 466 470 486
f 468 482 472
f 472 482 485
f 472 485 483
f 472 483 473
f 473 483 495
f 474 495 499
f 474 499 496
f 475 477 476
f 475 496 497
f 475 497 478
f 479 498 480
f 480 498 481
f 481 498 484
f 483 499 495
f 483 500 499
f 484 498 500
f 487 494 505
f 487 505 501
f 487 501 489
f 491 492 494
f 492 502 494
f 492 493 503
f 492 503 504
f 492 504 502
f 494 502 505
f 496 499 506
f 496 506 497
f 498 507 500
f 499 500 507
f 499 507 506

