# https://github.com/mikedh/trimesh
v 0.01509470 0.01040809 0.00684676
v 0.01470033 0.01038580 0.00684676
v 0.01470033 0.01034441 0.00723866
v 0.01470033 0.01024173 0.00781287
v 0.01527611 0.01033406 0.00723866
v 0.01527611 0.01040411 0.00684676
v 0.01456624 0.01034919 0.00684676
v 0.01430990 0.01019477 0.00781287
v 0.01436117 0.01015497 0.00817032
v 0.01470033 0.01015099 0.00816027
v 0.01523667 0.01019079 0.00783469
v 0.01584794 0.01017567 0.00767477
v 0.01672738 0.01013189 0.00753151
v 0.01796176 0.01013905 0.00699147
v 0.01834429 0.01012234 0.00689529
v 0.01838767 0.01012472 0.00684676
v 0.01427835 0.01022900 0.00723866
v 0.00781465 0.00779494 0.00684676
v 0.00781465 0.00779494 0.00977954
v 0.01372229 0.00962964 0.00936955
v 0.01412849 0.00984057 0.00896043
v 0.01470033 0.01004831 0.00844709
v 0.02248122 0.00955880 0.00753381
v 0.01986656 0.00989708 0.00723866
v 0.01929472 0.00995280 0.00723866
v 0.03028183 0.00897615 0.00684676
v 0.02421250 0.00956437 0.00684676
v 0.01849021 0.01011517 0.00684676
v 0.00768451 0.00770739 0.00684676
v 0.00740451 0.00751795 0.00977954
v 0.01332004 0.00928021 0.00977954
v 0.01354483 0.00933593 0.00977954
v 0.01399046 0.00939483 0.00977954
v 0.01412849 0.00965113 0.00940228
v 0.01470033 0.00982385 0.00896043
v 0.01840345 0.00955243 0.00866500
v 0.03557426 0.00839988 0.00693003
v 0.03549933 0.00843808 0.00684676
v 0.03055394 0.00894829 0.00684676
v 0.00740451 0.00751795 0.00684676
v 0.00734535 0.00695839 0.00977954
v 0.01412849 0.00938368 0.00977954
v 0.01412849 0.00945930 0.00968939
v 0.01470033 0.00961849 0.00934630
v 0.01527611 0.00958267 0.00929031
v 0.01561132 0.00956198 0.00925730
v 0.01802091 0.00957472 0.00870720
v 0.03995175 0.00786499 0.00700697
v 0.04030668 0.00784350 0.00696821
v 0.03995175 0.00793901 0.00684676
v 0.03615398 0.00836804 0.00684676
v 0.03598440 0.00838634 0.00684676
v 0.00740451 0.00705948 0.00684676
v 0.00745183 0.00639883 0.00977954
v 0.01720062 0.00894431 0.00977954
v 0.02016233 0.00898332 0.00924897
v 0.03790497 0.00782838 0.00751687
v 0.03937991 0.00772808 0.00735551
v 0.03995175 0.00768749 0.00729407
v 0.04050781 0.00767157 0.00719129
v 0.04068922 0.00781564 0.00691452
v 0.04063006 0.00785464 0.00684676
v 0.04039738 0.00788648 0.00684676
v 0.00764507 0.00574853 0.00977954
v 0.00750310 0.00619427 0.00977954
v 0.00991269 0.00227734 0.00684676
v 0.00928565 0.00227734 0.00977954
v 0.02071050 0.00842376 0.00977954
v 0.02158995 0.00859250 0.00945080
v 0.01871894 0.00883367 0.00965350
v 0.03156747 0.00782440 0.00866184
v 0.03995175 0.00740094 0.00769860
v 0.04052752 0.00735717 0.00764492
v 0.04109936 0.00729747 0.00757142
v 0.04109936 0.00752193 0.00723866
v 0.04100865 0.00778141 0.00684676
v 0.04076415 0.00783235 0.00684676
v 0.04763405 0.00227734 0.00684676
v 0.04338275 0.00227734 0.00977954
v 0.02102600 0.00837441 0.00977954
v 0.03019507 0.00763655 0.00905948
v 0.03855174 0.00726483 0.00810486
v 0.03893428 0.00723538 0.00807299
v 0.03937991 0.00719957 0.00803509
v 0.03995175 0.00715260 0.00798542
v 0.04052752 0.00710087 0.00793173
v 0.04109936 0.00703003 0.00785823
v 0.04139119 0.00726006 0.00752605
v 0.04161993 0.00738582 0.00725589
v 0.04109936 0.00775992 0.00684676
v 0.04759461 0.00236012 0.00684676
v 0.04720418 0.00282655 0.00703453
v 0.04731461 0.00238161 0.00714220
v 0.04733433 0.00227734 0.00716373
v 0.04346163 0.00227734 0.00974853
v 0.04318163 0.00254239 0.00977954
v 0.02452405 0.00778380 0.00977954
v 0.03077085 0.00730224 0.00928342
v 0.03112578 0.00727200 0.00925758
v 0.03306607 0.00741607 0.00882032
v 0.03995175 0.00686606 0.00826219
v 0.04052752 0.00681352 0.00821396
v 0.04109936 0.00674348 0.00815051
v 0.04142274 0.00669572 0.00810859
v 0.04159626 0.00695202 0.00779019
v 0.04177373 0.00720832 0.00745858
v 0.04225092 0.00732851 0.00705463
v 0.04167514 0.00761187 0.00684676
v 0.04721996 0.00313141 0.00684676
v 0.04710954 0.00320941 0.00693203
v 0.04687292 0.00301281 0.00726881
v 0.04702672 0.00238161 0.00742930
v 0.04705432 0.00227734 0.00745284
v 0.04724757 0.00227734 0.00725503
v 0.04389149 0.00227734 0.00955445
v 0.04402952 0.00243892 0.00943875
v 0.04340247 0.00240708 0.00973188
v 0.04309486 0.00264666 0.00977954
v 0.04339853 0.00295550 0.00953435
v 0.02772632 0.00720275 0.00977954
v 0.02789984 0.00718683 0.00976805
v 0.02961929 0.00702684 0.00965034
v 0.03077085 0.00697272 0.00953148
v 0.03191846 0.00691222 0.00941463
v 0.03150832 0.00723777 0.00922887
v 0.03806272 0.00670766 0.00869112
v 0.03844920 0.00667264 0.00866241
v 0.03937991 0.00658349 0.00859207
v 0.03995175 0.00652618 0.00854872
v 0.04052752 0.00645852 0.00850077
v 0.04107175 0.00635027 0.00846403
v 0.04163964 0.00642509 0.00826277
v 0.04180528 0.00663364 0.00805404
v 0.04225092 0.00683183 0.00767851
v 0.04225092 0.00711917 0.00734173
v 0.04225092 0.00744631 0.00684676
v 0.04255852 0.00726881 0.00696505
v 0.04714109 0.00327786 0.00684676
v 0.04703855 0.00344661 0.00684676
v 0.04660869 0.00389792 0.00700639
v 0.04672306 0.00353018 0.00711894
v 0.04642728 0.00353018 0.00740604
v 0.04652587 0.00319906 0.00750280
v 0.04663629 0.00281620 0.00759639
v 0.04674277 0.00238161 0.00768655
v 0.04676249 0.00227734 0.00771009
v 0.04400586 0.00227734 0.00950105
v 0.04438839 0.00228530 0.00931644
v 0.04425825 0.00266736 0.00924696
v 0.04384811 0.00295550 0.00932821
v 0.04285036 0.00298415 0.00974652
v 0.04296867 0.00277481 0.00977954
v 0.04371402 0.00327866 0.00926218
v 0.04352867 0.00366072 0.00918351
v 0.04336304 0.00349357 0.00932505
v 0.04282275 0.00353018 0.00953148
v 0.03006098 0.00676815 0.00977954
v 0.03019507 0.00692655 0.00964546
v 0.03035282 0.00671323 0.00977954
v 0.03042775 0.00669891 0.00977954
v 0.03306607 0.00680238 0.00933338
v 0.03363791 0.00674746 0.00929261
v 0.03937991 0.00629694 0.00880683
v 0.03995175 0.00624043 0.00876434
v 0.04052752 0.00617277 0.00871524
v 0.04085879 0.00612740 0.00868337
v 0.04124133 0.00606134 0.00863945
v 0.04167514 0.00597458 0.00858375
v 0.04225092 0.00624839 0.00820362
v 0.04225092 0.00653494 0.00796561
v 0.04266106 0.00674189 0.00758405
v 0.04304360 0.00665354 0.00749103
v 0.04279909 0.00696555 0.00722804
v 0.04264134 0.00730304 0.00684676
v 0.04293712 0.00718285 0.00684676
v 0.04669545 0.00397035 0.00684676
v 0.04647855 0.00428077 0.00686428
v 0.04625376 0.00408178 0.00722517
v 0.04602502 0.00388359 0.00756539
v 0.04613939 0.00353018 0.00765439
v 0.04626953 0.00296107 0.00781833
v 0.04601319 0.00272387 0.00812381
v 0.04639179 0.00238161 0.00797336
v 0.04641939 0.00227734 0.00799346
v 0.04667967 0.00227734 0.00777899
v 0.04438051 0.00227734 0.00932247
v 0.04464079 0.00227734 0.00918121
v 0.04456586 0.00243892 0.00916312
v 0.04413600 0.00295550 0.00919069
v 0.04496023 0.00295550 0.00874625
v 0.04454614 0.00295550 0.00897622
v 0.04251514 0.00322533 0.00977954
v 0.04264134 0.00310434 0.00977954
v 0.04393093 0.00349357 0.00906666
v 0.04336304 0.00406666 0.00907010
v 0.04314613 0.00385095 0.00926275
v 0.04395064 0.00408019 0.00878731
v 0.04277148 0.00406666 0.00931213
v 0.04254669 0.00439698 0.00925069
v 0.03077085 0.00663045 0.00977954
v 0.03730159 0.00609795 0.00923777
v 0.03937991 0.00587509 0.00909393
v 0.03992808 0.00577559 0.00907872
v 0.04010161 0.00550655 0.00922744
v 0.04052752 0.00582574 0.00894464
v 0.04109936 0.00535293 0.00912896
v 0.04107175 0.00585200 0.00881429
v 0.04052752 0.00544686 0.00918983
v 0.04146218 0.00499873 0.00926792
v 0.04167514 0.00568724 0.00876836
v 0.04206556 0.00559729 0.00870979
v 0.04225486 0.00580345 0.00850910
v 0.04261768 0.00615526 0.00813271
v 0.04300022 0.00605179 0.00805347
v 0.04283064 0.00640360 0.00781861
v 0.04339853 0.00626113 0.00766157
v 0.04374557 0.00615208 0.00756166
v 0.04339853 0.00654767 0.00737303
v 0.04371402 0.00670368 0.00697424
v 0.04339853 0.00679044 0.00708621
v 0.04339458 0.00695202 0.00684676
v 0.04650221 0.00426406 0.00684676
v 0.04645883 0.00432376 0.00684676
v 0.04603291 0.00485864 0.00684676
v 0.04593826 0.00491436 0.00690447
v 0.04609601 0.00453230 0.00706152
v 0.04588305 0.00426645 0.00744423
v 0.04550051 0.00450683 0.00759754
v 0.04569375 0.00408656 0.00769774
v 0.04538220 0.00378409 0.00808361
v 0.04570164 0.00356759 0.00796331
v 0.04589883 0.00310673 0.00804026
v 0.04610390 0.00238161 0.00819759
v 0.04570164 0.00293162 0.00826104
v 0.04536643 0.00260050 0.00864921
v 0.04567404 0.00239832 0.00850766
v 0.04606052 0.00227734 0.00827023
v 0.04503910 0.00227734 0.00895440
v 0.04451854 0.00348720 0.00876750
v 0.04484981 0.00326751 0.00868481
v 0.04227458 0.00353098 0.00972556
v 0.04241655 0.00330015 0.00977954
v 0.04430952 0.00387245 0.00870290
v 0.04374557 0.00444793 0.00870634
v 0.04292923 0.00423381 0.00917432
v 0.04225092 0.00477507 0.00914360
v 0.04184472 0.00489685 0.00921165
v 0.04225092 0.00448772 0.00929519
v 0.04151345 0.00392498 0.00977954
v 0.04182500 0.00372519 0.00977954
v 0.04335120 0.00465488 0.00876922
v 0.04277148 0.00462463 0.00903221
v 0.04282275 0.00508310 0.00874625
v 0.03317255 0.00611387 0.00977954
v 0.03823230 0.00571112 0.00935549
v 0.03880413 0.00564983 0.00931701
v 0.03937991 0.00558774 0.00927825
v 0.03971907 0.00555113 0.00925500
v 0.04052752 0.00515952 0.00936037
v 0.03992808 0.00529005 0.00937644
v 0.04109936 0.00506639 0.00930725
v 0.04109936 0.00467796 0.00950736
v 0.04109936 0.00421312 0.00973446
v 0.04166331 0.00469467 0.00936439
v 0.04166331 0.00521523 0.00907240
v 0.04225486 0.00528050 0.00884185
v 0.04244810 0.00549064 0.00864375
v 0.04281486 0.00584643 0.00826908
v 0.04329205 0.00566893 0.00818754
v 0.04367459 0.00553203 0.00809510
v 0.04344980 0.00584643 0.00797595
v 0.04395064 0.00582733 0.00770750
v 0.04412811 0.00601915 0.00744021
v 0.04391910 0.00636938 0.00720708
v 0.04438445 0.00620621 0.00705750
v 0.04408079 0.00656678 0.00684676
v 0.04379684 0.00673950 0.00684676
v 0.04596192 0.00494222 0.00684676
v 0.04587516 0.00503933 0.00684676
v 0.04537826 0.00551292 0.00692601
v 0.04555573 0.00513086 0.00709023
v 0.04533882 0.00488968 0.00747294
v 0.04509431 0.00465090 0.00779622
v 0.04484981 0.00441211 0.00811175
v 0.04525995 0.00410407 0.00799777
v 0.04524812 0.00295550 0.00856997
v 0.04551629 0.00340124 0.00817750
v 0.04497206 0.00410407 0.00819070
v 0.04536643 0.00227734 0.00875630
v 0.04553601 0.00227734 0.00864662
v 0.04571347 0.00227734 0.00852547
v 0.04514164 0.00227734 0.00889239
v 0.04469206 0.00364958 0.00859121
v 0.04220359 0.00345536 0.00977954
v 0.04412811 0.00425530 0.00860011
v 0.04351290 0.00482999 0.00859523
v 0.04428191 0.00498918 0.00811433
v 0.04397036 0.00512131 0.00819558
v 0.04109936 0.00411999 0.00977954
v 0.04313036 0.00497963 0.00868194
v 0.04282275 0.00537045 0.00857370
v 0.03350382 0.00604224 0.00977954
v 0.03363791 0.00602791 0.00977064
v 0.03564919 0.00557262 0.00977954
v 0.03614215 0.00546119 0.00977954
v 0.03937991 0.00525185 0.00947205
v 0.04052752 0.00467796 0.00961503
v 0.03937991 0.00478541 0.00972843
v 0.03999118 0.00464851 0.00971350
v 0.04054724 0.00433649 0.00977954
v 0.04340247 0.00525583 0.00839139
v 0.04397036 0.00540865 0.00801298
v 0.04437262 0.00563709 0.00760587
v 0.04456980 0.00584643 0.00726192
v 0.04499572 0.00567371 0.00708334
v 0.04476699 0.00605656 0.00688380
v 0.04473149 0.00611149 0.00684676
v 0.04446332 0.00630490 0.00684676
v 0.04552023 0.00543173 0.00684676
v 0.04516924 0.00529881 0.00727800
v 0.04541375 0.00554556 0.00684676
v 0.04529939 0.00564346 0.00684676
v 0.04475516 0.00546676 0.00746605
v 0.04495628 0.00508390 0.00761190
v 0.04466445 0.00479497 0.00799461
v 0.04450276 0.00463338 0.00818639
v 0.04451854 0.00522797 0.00780024
v 0.03857934 0.00488411 0.00977954
v 0.03880413 0.00485705 0.00976576
v 0.03650891 0.00541741 0.00975600
v 0.03880413 0.00525185 0.00954813
v 0.04052752 0.00434365 0.00977954
v 0.04026724 0.00443519 0.00977954
v 0.03937991 0.00468592 0.00977954
v 0.03990837 0.00454265 0.00977954
v 0.04012921 0.00447658 0.00977954
v 0.04485375 0.00601438 0.00684676
v 0.04478276 0.00607089 0.00684676
v 0.03880413 0.00482919 0.00977954
f 1 2 3
f 1 3 4
f 1 4 5
f 1 5 6
f 1 6 16
f 1 16 28
f 1 28 27
f 1 27 26
f 1 26 39
f 1 39 38
f 1 38 52
f 1 52 51
f 1 51 50
f 1 50 63
f 1 63 62
f 1 62 77
f 1 77 76
f 1 76 90
f 1 90 108
f 1 108 136
f 1 136 174
f 1 174 175
f 1 175 221
f 1 221 277
f 1 277 276
f 1 276 318
f 1 318 317
f 1 317 338
f 1 338 337
f 1 337 322
f 1 322 321
f 1 321 319
f 1 319 279
f 1 279 278
f 1 278 224
f 1 224 223
f 1 223 222
f 1 222 176
f 1 176 139
f 1 139 138
f 1 138 109
f 1 109 91
f 1 91 78
f 1 78 66
f 1 66 53
f 1 53 40
f 1 40 29
f 1 29 18
f 1 18 7
f 1 7 2
f 2 7 8
f 2 8 3
f 3 8 9
f 3 9 4
f 4 9 10
f 4 10 11
f 4 11 5
f 5 11 12
f 5 12 13
f 5 13 14
f 5 14 15
f 5 15 6
f 6 15 16
f 7 17 8
f 7 18 19
f 7 19 17
f 8 17 19
f 8 19 9
f 9 20 21
f 9 21 22
f 9 22 10
f 9 19 20
f 10 13 11
f 10 22 23
f 10 23 13
f 11 13 12
f 13 24 25
f 13 25 14
f 13 23 26
f 13 26 24
f 14 25 26
f 14 26 27
f 14 27 15
f 15 27 28
f 15 28 16
f 18 29 19
f 19 29 30
f 19 30 41
f 19 41 54
f 19 54 65
f 19 65 64
f 19 64 67
f 19 67 79
f 19 79 96
f 19 96 118
f 19 118 152
f 19 152 193
f 19 193 192
f 19 192 242
f 19 242 294
f 19 294 250
f 19 250 249
f 19 249 299
f 19 299 310
f 19 310 332
f 19 332 333
f 19 333 336
f 19 336 335
f 19 335 334
f 19 334 339
f 19 339 328
f 19 328 305
f 19 305 304
f 19 304 302
f 19 302 254
f 19 254 200
f 19 200 160
f 19 160 159
f 19 159 157
f 19 157 120
f 19 120 97
f 19 97 80
f 19 80 68
f 19 68 55
f 19 55 42
f 19 42 33
f 19 33 32
f 19 32 31
f 19 31 20
f 20 31 32
f 20 32 33
f 20 33 34
f 20 34 21
f 21 34 22
f 22 34 35
f 22 35 36
f 22 36 37
f 22 37 38
f 22 38 23
f 23 38 39
f 23 39 26
f 24 26 25
f 29 40 30
f 30 40 41
f 33 42 43
f 33 43 34
f 34 44 35
f 34 43 44
f 35 44 45
f 35 45 46
f 35 46 47
f 35 47 36
f 36 47 46
f 36 46 48
f 36 48 49
f 36 49 37
f 37 49 50
f 37 50 51
f 37 51 52
f 37 52 38
f 40 53 41
f 41 53 54
f 42 55 56
f 42 56 43
f 43 45 44
f 43 56 45
f 45 56 46
f 46 56 57
f 46 57 48
f 48 57 49
f 49 57 58
f 49 58 59
f 49 59 60
f 49 60 61
f 49 61 62
f 49 62 63
f 49 63 50
f 53 64 65
f 53 65 54
f 53 66 67
f 53 67 64
f 55 68 69
f 55 69 70
f 55 70 56
f 56 70 69
f 56 69 71
f 56 71 72
f 56 72 57
f 57 72 73
f 57 73 58
f 58 73 59
f 59 73 60
f 60 73 74
f 60 74 75
f 60 75 61
f 61 75 76
f 61 76 77
f 61 77 62
f 66 78 94
f 66 94 114
f 66 114 113
f 66 113 146
f 66 146 185
f 66 185 184
f 66 184 237
f 66 237 291
f 66 291 290
f 66 290 289
f 66 289 292
f 66 292 238
f 66 238 187
f 66 187 186
f 66 186 147
f 66 147 115
f 66 115 95
f 66 95 79
f 66 79 67
f 68 80 71
f 68 71 69
f 71 81 82
f 71 82 83
f 71 83 72
f 71 80 81
f 72 83 84
f 72 84 73
f 73 84 85
f 73 85 86
f 73 86 74
f 74 87 88
f 74 88 75
f 74 86 87
f 75 88 89
f 75 89 90
f 75 90 76
f 78 91 92
f 78 92 93
f 78 93 94
f 79 95 96
f 80 97 98
f 80 98 99
f 80 99 81
f 81 99 100
f 81 100 82
f 82 100 83
f 83 100 101
f 83 101 84
f 84 101 85
f 85 101 102
f 85 102 86
f 86 102 103
f 86 103 87
f 87 103 104
f 87 104 105
f 87 105 88
f 88 105 106
f 88 106 89
f 89 106 107
f 89 107 108
f 89 108 90
f 91 109 110
f 91 110 92
f 92 110 111
f 92 111 112
f 92 112 113
f 92 113 93
f 93 113 114
f 93 114 94
f 95 115 116
f 95 116 117
f 95 117 96
f 96 117 119
f 96 119 118
f 97 120 121
f 97 121 99
f 97 99 98
f 99 121 122
f 99 122 123
f 99 123 124
f 99 124 125
f 99 125 126
f 99 126 101
f 99 101 100
f 101 126 127
f 101 127 128
f 101 128 129
f 101 129 102
f 102 130 103
f 102 129 130
f 103 131 104
f 103 130 131
f 104 131 132
f 104 132 133
f 104 133 105
f 105 133 106
f 106 133 134
f 106 134 135
f 106 135 107
f 107 136 108
f 107 135 137
f 107 137 136
f 109 138 110
f 110 138 139
f 110 139 140
f 110 140 141
f 110 141 142
f 110 142 143
f 110 143 111
f 111 143 144
f 111 144 112
f 112 144 113
f 113 144 145
f 113 145 146
f 115 147 116
f 116 147 148
f 116 148 149
f 116 149 150
f 116 150 119
f 116 119 117
f 118 151 152
f 118 119 151
f 119 150 153
f 119 153 154
f 119 154 155
f 119 155 156
f 119 156 151
f 120 157 121
f 121 157 158
f 121 158 122
f 122 158 123
f 123 158 159
f 123 159 160
f 123 160 124
f 124 161 125
f 124 160 161
f 125 161 127
f 125 127 126
f 127 161 162
f 127 162 163
f 127 163 128
f 128 163 164
f 128 164 129
f 129 164 130
f 130 165 166
f 130 166 131
f 130 164 165
f 131 166 167
f 131 167 132
f 132 168 169
f 132 169 133
f 132 167 168
f 133 169 170
f 133 170 134
f 134 170 171
f 134 171 135
f 135 171 172
f 135 172 173
f 135 173 137
f 136 137 174
f 137 173 175
f 137 175 174
f 139 176 177
f 139 177 140
f 140 177 178
f 140 178 179
f 140 179 142
f 140 142 141
f 142 179 143
f 143 179 180
f 143 180 144
f 144 180 181
f 144 181 182
f 144 182 183
f 144 183 184
f 144 184 145
f 145 184 185
f 145 185 146
f 147 186 148
f 148 187 188
f 148 188 149
f 148 186 187
f 149 189 150
f 149 188 190
f 149 190 191
f 149 191 189
f 150 189 153
f 151 156 192
f 151 192 193
f 151 193 152
f 153 189 194
f 153 194 154
f 154 195 196
f 154 196 155
f 154 194 197
f 154 197 195
f 155 196 156
f 156 196 198
f 156 198 199
f 156 199 192
f 157 159 158
f 160 162 161
f 160 200 163
f 160 163 162
f 163 200 201
f 163 201 164
f 164 202 203
f 164 203 165
f 164 201 202
f 165 204 205
f 165 205 166
f 165 203 204
f 166 206 207
f 166 207 167
f 166 205 208
f 166 208 206
f 167 207 206
f 167 206 209
f 167 209 168
f 168 210 211
f 168 211 212
f 168 212 169
f 168 209 210
f 169 212 213
f 169 213 170
f 170 213 214
f 170 214 215
f 170 215 172
f 170 172 171
f 172 215 214
f 172 214 216
f 172 216 217
f 172 217 218
f 172 218 219
f 172 219 220
f 172 220 173
f 173 220 175
f 175 220 221
f 176 222 177
f 177 222 223
f 177 223 224
f 177 224 225
f 177 225 226
f 177 226 178
f 178 226 227
f 178 227 179
f 179 227 228
f 179 228 229
f 179 229 230
f 179 230 231
f 179 231 180
f 180 231 232
f 180 232 181
f 181 232 182
f 182 233 183
f 182 232 234
f 182 234 235
f 182 235 236
f 182 236 233
f 183 233 184
f 184 233 237
f 187 238 235
f 187 235 188
f 188 235 190
f 189 191 239
f 189 239 194
f 190 240 191
f 190 235 240
f 191 240 239
f 192 199 241
f 192 241 242
f 194 239 243
f 194 243 197
f 195 197 244
f 195 244 245
f 195 245 196
f 196 245 199
f 196 199 198
f 197 243 244
f 199 246 247
f 199 247 248
f 199 248 249
f 199 249 250
f 199 250 241
f 199 245 251
f 199 251 252
f 199 252 253
f 199 253 246
f 200 254 255
f 200 255 201
f 201 255 256
f 201 256 257
f 201 257 258
f 201 258 202
f 202 258 203
f 203 258 204
f 204 259 208
f 204 208 205
f 204 258 260
f 204 260 259
f 206 261 209
f 206 208 261
f 208 259 261
f 209 261 262
f 209 262 263
f 209 263 249
f 209 249 264
f 209 264 247
f 209 247 265
f 209 265 210
f 210 265 211
f 211 265 247
f 211 247 266
f 211 266 267
f 211 267 212
f 212 267 268
f 212 268 213
f 213 268 214
f 214 268 269
f 214 269 270
f 214 270 271
f 214 271 217
f 214 217 216
f 217 271 272
f 217 272 273
f 217 273 274
f 217 274 218
f 218 274 219
f 219 221 220
f 219 274 275
f 219 275 276
f 219 276 277
f 219 277 221
f 224 278 225
f 225 278 279
f 225 279 280
f 225 280 281
f 225 281 226
f 226 281 282
f 226 282 227
f 227 282 228
f 228 282 283
f 228 283 284
f 228 284 285
f 228 285 229
f 229 285 230
f 230 286 287
f 230 287 231
f 230 285 284
f 230 284 288
f 230 288 240
f 230 240 286
f 231 287 232
f 232 287 234
f 233 236 237
f 234 287 235
f 235 289 290
f 235 290 291
f 235 291 236
f 235 287 286
f 235 286 240
f 235 238 292
f 235 292 289
f 236 291 237
f 239 240 243
f 240 293 243
f 240 288 293
f 241 250 294
f 241 294 242
f 243 295 244
f 243 293 284
f 243 284 295
f 244 296 251
f 244 251 245
f 244 295 297
f 244 297 298
f 244 298 296
f 246 266 247
f 246 253 266
f 247 264 248
f 248 264 249
f 249 263 299
f 251 296 300
f 251 300 252
f 252 300 253
f 253 301 267
f 253 267 266
f 253 300 301
f 254 302 303
f 254 303 255
f 255 303 256
f 256 303 304
f 256 304 257
f 257 304 258
f 258 304 305
f 258 305 306
f 258 306 260
f 259 307 261
f 259 260 308
f 259 308 309
f 259 309 307
f 260 306 308
f 261 307 262
f 262 307 310
f 262 310 263
f 263 310 299
f 267 301 268
f 268 301 269
f 269 311 270
f 269 301 300
f 269 300 311
f 270 311 296
f 270 296 298
f 270 298 297
f 270 297 312
f 270 312 313
f 270 313 272
f 270 272 271
f 272 313 273
f 273 313 314
f 273 314 275
f 273 275 274
f 275 314 315
f 275 315 280
f 275 280 316
f 275 316 317
f 275 317 318
f 275 318 276
f 279 319 280
f 280 320 282
f 280 282 281
f 280 319 321
f 280 321 322
f 280 322 316
f 280 315 323
f 280 323 320
f 282 320 323
f 282 323 324
f 282 324 283
f 283 324 325
f 283 325 284
f 284 325 297
f 284 297 326
f 284 326 295
f 284 293 288
f 295 326 297
f 296 311 300
f 297 325 324
f 297 324 327
f 297 327 313
f 297 313 312
f 302 304 303
f 305 328 329
f 305 329 330
f 305 330 331
f 305 331 306
f 306 331 329
f 306 329 308
f 307 332 310
f 307 309 333
f 307 333 332
f 308 334 335
f 308 335 309
f 308 329 334
f 309 336 333
f 309 335 336
f 313 327 324
f 313 324 323
f 313 323 314
f 314 323 315
f 316 337 338
f 316 338 317
f 316 322 337
f 328 339 329
f 329 339 334
f 329 331 330

