# https://github.com/mikedh/trimesh
v 0.04748542 0.00893356 -0.02517497
v 0.04781248 0.01017776 -0.02517497
v 0.04756940 0.00867372 -0.02517497
v 0.04719372 0.00819325 -0.02431650
v 0.04666777 0.00893356 -0.02356504
v 0.04715394 0.00977336 -0.02436514
v 0.04693295 0.00999516 -0.02356504
v 0.04788320 0.01055991 -0.02356504
v 0.04826772 0.01041770 -0.02517497
v 0.04790972 0.00770810 -0.02517497
v 0.04703461 0.00773736 -0.02346290
v 0.04619927 0.00893356 -0.02231016
v 0.04599596 0.00958141 -0.02070752
v 0.04669870 0.01011806 -0.02231016
v 0.04788320 0.01068222 -0.02231016
v 0.04954945 0.01102224 -0.02517497
v 0.04723792 0.00703567 -0.02297651
v 0.04919587 0.00667693 -0.02517497
v 0.04665009 0.00768059 -0.02231016
v 0.04649540 0.00768118 -0.02105529
v 0.04611530 0.00897512 -0.02166327
v 0.04599596 0.00948192 -0.02070752
v 0.04599154 0.00959194 -0.01980284
v 0.04663241 0.01015669 -0.01980284
v 0.04650865 0.01002443 -0.02109663
v 0.04788320 0.01068925 -0.02105529
v 0.05039362 0.01132012 -0.02517497
v 0.04788320 0.00662601 -0.02231016
v 0.04715394 0.00696603 -0.02231016
v 0.05039362 0.00636793 -0.02517497
v 0.04680920 0.00733472 -0.02166327
v 0.04657053 0.00768059 -0.02166327
v 0.04648656 0.00768118 -0.01980284
v 0.04604900 0.00881944 -0.01980284
v 0.04604900 0.00901198 -0.02109663
v 0.04706996 0.00690049 -0.02105529
v 0.04599154 0.00944681 -0.01980284
v 0.04599154 0.00959194 -0.01854797
v 0.04663241 0.01015318 -0.01854797
v 0.04788320 0.01068925 -0.01980284
v 0.04788320 0.01068573 -0.01854797
v 0.04913841 0.01065003 -0.00033041
v 0.04972182 0.01067695 -0.00033041
v 0.05164442 0.01137279 -0.02517497
v 0.04788320 0.00658037 -0.02166327
v 0.04710974 0.00693150 -0.02166327
v 0.04914283 0.00634218 -0.02231016
v 0.05110079 0.00631116 -0.02517497
v 0.05039362 0.00546726 -0.00726869
v 0.04706554 0.00689639 -0.01980284
v 0.04706996 0.00689814 -0.01854797
v 0.04649540 0.00768118 -0.01854797
v 0.04605784 0.00882764 -0.01854797
v 0.04599154 0.00945500 -0.01854797
v 0.04788320 0.00653823 -0.02105529
v 0.04788320 0.00653179 -0.01980284
v 0.04599596 0.00958141 -0.01790351
v 0.04795834 0.01015201 -0.00033041
v 0.04839147 0.01039546 -0.00033041
v 0.05039362 0.01068925 -0.00033041
v 0.05205987 0.01137338 -0.02517497
v 0.05164442 0.00627312 -0.02517497
v 0.05164442 0.00545556 -0.00852114
v 0.05415484 0.00539704 -0.00726869
v 0.05415484 0.00539528 -0.00601625
v 0.05039362 0.00546609 -0.00601625
v 0.04964227 0.00571189 -0.00726869
v 0.04964227 0.00571072 -0.00601625
v 0.04798044 0.00668161 -0.00033041
v 0.04751636 0.00755594 -0.00033041
v 0.04746332 0.00768118 -0.00033041
v 0.04599596 0.00949187 -0.01790351
v 0.04743239 0.00893356 -0.00033041
v 0.05289963 0.01137396 -0.02517497
v 0.07855192 0.01068925 -0.00033041
v 0.05289963 0.00626551 -0.02517497
v 0.05289963 0.00544327 -0.00852114
v 0.07169687 0.00544737 -0.00852114
v 0.07295650 0.00544854 -0.00852114
v 0.07420729 0.00542045 -0.00726869
v 0.05289963 0.00543859 -0.00476138
v 0.05164442 0.00545029 -0.00476138
v 0.07420729 0.00541928 -0.00601625
v 0.07295650 0.00544269 -0.00476138
v 0.07169687 0.00544210 -0.00476138
v 0.04913841 0.00634979 -0.00033041
v 0.04743239 0.00881067 -0.00033041
v 0.06292807 0.01137396 -0.02517497
v 0.07981155 0.01068398 -0.00033041
v 0.06794007 0.01137045 -0.02517497
v 0.05360679 0.00626493 -0.02517497
v 0.05736801 0.00626376 -0.02517497
v 0.05987401 0.00626317 -0.02517497
v 0.06042206 0.00626317 -0.02517497
v 0.06112922 0.00626376 -0.02517497
v 0.07170129 0.00635037 -0.02231016
v 0.07420729 0.00633808 -0.02105529
v 0.08047452 0.00635271 -0.01854797
v 0.08172531 0.00631701 -0.01729553
v 0.08298494 0.00636383 -0.01729553
v 0.06167727 0.00626434 -0.02517497
v 0.08423573 0.00635096 -0.01604065
v 0.08549094 0.00633282 -0.01353334
v 0.09114382 0.00632345 -0.00287420
v 0.09114382 0.00631409 -0.00225406
v 0.09114382 0.00631058 -0.00161933
v 0.09114382 0.00631058 -0.00033041
v 0.05039362 0.00631058 -0.00033041
v 0.08106234 0.01066642 -0.00033041
v 0.08298494 0.01067988 -0.00099919
v 0.08172531 0.01068925 -0.00099919
v 0.06835111 0.01135640 -0.02517497
v 0.09114382 0.01068925 -0.00350894
v 0.06865166 0.00653179 -0.02517497
v 0.08172531 0.00644108 -0.01854797
v 0.07297418 0.00677993 -0.02517497
v 0.08423573 0.00656164 -0.01729553
v 0.08549094 0.00640012 -0.01478578
v 0.09114382 0.00637846 -0.00350894
v 0.09114382 0.00991792 -0.00033041
v 0.08231313 0.01061375 -0.00033041
v 0.09114382 0.01064067 -0.00225406
v 0.07419846 0.01113519 -0.02517497
v 0.09114382 0.01065120 -0.00476138
v 0.08674616 0.01068515 -0.01353334
v 0.08306008 0.00672316 -0.01864282
v 0.07444154 0.00733648 -0.02517497
v 0.08353299 0.00710005 -0.01911947
v 0.08269323 0.00692858 -0.01935780
v 0.08423573 0.00689405 -0.01822452
v 0.08520808 0.00688644 -0.01729553
v 0.08561470 0.00669507 -0.01616225
v 0.08676825 0.00680919 -0.01471039
v 0.08674616 0.00659207 -0.01353334
v 0.09114382 0.00645162 -0.00412908
v 0.07420729 0.01113460 -0.02517497
v 0.09114382 0.01031997 -0.00599923
v 0.08776270 0.01007066 -0.01478578
v 0.08674616 0.01063482 -0.01478578
v 0.08549094 0.01067988 -0.01604065
v 0.07533433 0.00780525 -0.02517497
v 0.08398381 0.00793517 -0.01942590
v 0.08433739 0.00758286 -0.01889330
v 0.08490753 0.00702689 -0.01796188
v 0.08611413 0.00705674 -0.01666323
v 0.08636606 0.00689756 -0.01582664
v 0.08740912 0.00702514 -0.01424346
v 0.09114382 0.00680919 -0.00532802
v 0.07520174 0.01087242 -0.02517497
v 0.08549094 0.01045925 -0.01729553
v 0.09114382 0.00984067 -0.00686256
v 0.08754171 0.00986934 -0.01572450
v 0.08683013 0.01018946 -0.01610145
v 0.07546251 0.00794395 -0.02517497
v 0.08481472 0.00866729 -0.01913650
v 0.08610971 0.00838345 -0.01791081
v 0.08519924 0.00768118 -0.01823668
v 0.07633320 0.00893356 -0.02517497
v 0.08588872 0.00755711 -0.01741469
v 0.08643235 0.00789244 -0.01707422
v 0.08681687 0.00756647 -0.01616225
v 0.08719697 0.00724109 -0.01508004
v 0.09114382 0.00694613 -0.00561012
v 0.07593984 0.01065998 -0.02517497
v 0.08640584 0.00990036 -0.01729553
v 0.08537161 0.00984301 -0.01844826
v 0.08423573 0.01039780 -0.01854797
v 0.09114382 0.00893356 -0.00701577
v 0.08808976 0.00893356 -0.01478578
v 0.08760359 0.00893356 -0.01583394
v 0.08724559 0.00893356 -0.01645895
v 0.08615833 0.00964988 -0.01796188
v 0.08487218 0.00950299 -0.01918027
v 0.08549094 0.00894293 -0.01855040
v 0.08615833 0.00921915 -0.01796188
v 0.08653843 0.00885397 -0.01741469
v 0.08750636 0.00807621 -0.01566127
v 0.07629784 0.00976810 -0.02517497
v 0.08487218 0.00957380 -0.01918027
v 0.08765221 0.00766772 -0.01471039
v 0.09114382 0.00710414 -0.00582413
v 0.08423573 0.00983949 -0.01939428
v 0.09114382 0.00831908 -0.00686986
v 0.09114382 0.00812946 -0.00678717
v 0.09114382 0.00771863 -0.00649291
f 1 2 9
f 1 9 16
f 1 16 27
f 1 27 44
f 1 44 61
f 1 61 74
f 1 74 88
f 1 88 90
f 1 90 112
f 1 112 123
f 1 123 136
f 1 136 149
f 1 149 164
f 1 164 178
f 1 178 158
f 1 158 154
f 1 154 141
f 1 141 127
f 1 127 116
f 1 116 114
f 1 114 101
f 1 101 95
f 1 95 94
f 1 94 93
f 1 93 92
f 1 92 91
f 1 91 76
f 1 76 62
f 1 62 48
f 1 48 30
f 1 30 18
f 1 18 10
f 1 10 3
f 1 3 4
f 1 4 5
f 1 5 6
f 1 6 2
f 2 6 7
f 2 7 8
f 2 8 9
f 3 10 4
f 4 10 11
f 4 11 12
f 4 12 5
f 5 12 6
f 6 12 7
f 7 12 13
f 7 13 14
f 7 14 8
f 8 15 16
f 8 16 9
f 8 14 15
f 10 17 11
f 10 18 17
f 11 19 12
f 11 17 19
f 12 20 21
f 12 21 13
f 12 19 20
f 13 21 22
f 13 22 37
f 13 37 23
f 13 23 24
f 13 24 25
f 13 25 14
f 14 25 24
f 14 24 15
f 15 24 26
f 15 26 27
f 15 27 16
f 17 18 28
f 17 28 29
f 17 29 19
f 18 30 28
f 19 31 32
f 19 32 20
f 19 29 31
f 20 33 34
f 20 34 35
f 20 35 21
f 20 32 31
f 20 31 36
f 20 36 33
f 21 35 22
f 22 35 34
f 22 34 37
f 23 37 54
f 23 54 38
f 23 38 24
f 24 38 39
f 24 39 41
f 24 41 40
f 24 40 26
f 26 40 27
f 27 40 41
f 27 41 42
f 27 42 43
f 27 43 44
f 28 45 36
f 28 36 46
f 28 46 29
f 28 30 47
f 28 47 45
f 29 46 31
f 30 48 49
f 30 49 47
f 31 46 36
f 33 36 50
f 33 50 51
f 33 51 52
f 33 52 34
f 34 53 54
f 34 54 37
f 34 52 53
f 36 45 55
f 36 55 56
f 36 56 50
f 38 54 72
f 38 72 57
f 38 57 39
f 39 57 58
f 39 58 59
f 39 59 41
f 41 59 42
f 42 59 58
f 42 58 73
f 42 73 87
f 42 87 71
f 42 71 70
f 42 70 69
f 42 69 86
f 42 86 108
f 42 108 107
f 42 107 120
f 42 120 121
f 42 121 109
f 42 109 89
f 42 89 75
f 42 75 60
f 42 60 43
f 43 60 44
f 44 60 61
f 45 47 55
f 47 49 55
f 48 62 49
f 49 62 63
f 49 63 64
f 49 64 65
f 49 65 66
f 49 66 68
f 49 68 67
f 49 67 55
f 50 56 67
f 50 67 68
f 50 68 51
f 51 69 52
f 51 68 69
f 52 69 70
f 52 70 71
f 52 71 53
f 53 71 72
f 53 72 54
f 55 67 56
f 57 72 87
f 57 87 73
f 57 73 58
f 60 74 61
f 60 75 88
f 60 88 74
f 62 76 77
f 62 77 63
f 63 77 64
f 64 77 78
f 64 78 79
f 64 79 80
f 64 80 65
f 65 81 82
f 65 82 66
f 65 80 83
f 65 83 84
f 65 84 85
f 65 85 81
f 66 82 86
f 66 86 69
f 66 69 68
f 71 87 72
f 75 89 90
f 75 90 88
f 76 91 77
f 77 91 92
f 77 92 93
f 77 93 94
f 77 94 78
f 78 94 95
f 78 95 79
f 79 96 97
f 79 97 98
f 79 98 99
f 79 99 100
f 79 100 80
f 79 95 101
f 79 101 96
f 80 100 102
f 80 102 103
f 80 103 104
f 80 104 105
f 80 105 106
f 80 106 83
f 81 85 107
f 81 107 108
f 81 108 82
f 82 108 86
f 83 106 107
f 83 107 84
f 84 107 85
f 89 109 110
f 89 110 111
f 89 111 90
f 90 111 113
f 90 113 112
f 96 101 114
f 96 114 98
f 96 98 97
f 98 115 100
f 98 100 99
f 98 114 116
f 98 116 115
f 100 115 117
f 100 117 102
f 102 117 118
f 102 118 103
f 103 118 104
f 104 119 135
f 104 135 148
f 104 148 163
f 104 163 181
f 104 181 185
f 104 185 184
f 104 184 183
f 104 183 168
f 104 168 151
f 104 151 137
f 104 137 124
f 104 124 113
f 104 113 122
f 104 122 120
f 104 120 107
f 104 107 106
f 104 106 105
f 104 118 119
f 109 121 122
f 109 122 110
f 110 122 113
f 110 113 111
f 112 113 123
f 113 124 125
f 113 125 123
f 115 126 117
f 115 116 126
f 116 127 128
f 116 128 129
f 116 129 126
f 117 130 131
f 117 131 132
f 117 132 118
f 117 126 130
f 118 132 133
f 118 133 134
f 118 134 135
f 118 135 119
f 120 122 121
f 123 125 136
f 124 137 138
f 124 138 139
f 124 139 125
f 125 139 140
f 125 140 136
f 126 129 130
f 127 141 128
f 128 142 143
f 128 143 144
f 128 144 130
f 128 130 129
f 128 141 142
f 130 144 131
f 131 145 132
f 131 144 145
f 132 145 146
f 132 146 133
f 133 147 135
f 133 135 134
f 133 146 147
f 135 147 148
f 136 140 150
f 136 150 149
f 137 151 152
f 137 152 138
f 138 152 153
f 138 153 139
f 139 153 150
f 139 150 140
f 141 154 142
f 142 155 156
f 142 156 157
f 142 157 143
f 142 154 158
f 142 158 155
f 143 157 144
f 144 157 159
f 144 159 145
f 145 159 160
f 145 160 161
f 145 161 162
f 145 162 147
f 145 147 146
f 147 162 163
f 147 163 148
f 149 150 164
f 150 153 165
f 150 165 166
f 150 166 167
f 150 167 164
f 151 168 169
f 151 169 152
f 152 169 170
f 152 170 171
f 152 171 172
f 152 172 165
f 152 165 153
f 155 173 174
f 155 174 156
f 155 158 173
f 156 174 175
f 156 175 176
f 156 176 171
f 156 171 177
f 156 177 160
f 156 160 159
f 156 159 157
f 158 178 179
f 158 179 173
f 160 177 161
f 161 177 162
f 162 177 180
f 162 180 163
f 163 180 177
f 163 177 181
f 164 167 166
f 164 166 182
f 164 182 179
f 164 179 178
f 165 172 166
f 166 172 179
f 166 179 182
f 168 183 169
f 169 183 184
f 169 184 177
f 169 177 170
f 170 177 171
f 171 176 175
f 171 175 172
f 172 175 173
f 172 173 179
f 173 175 174
f 177 184 185
f 177 185 181

