# https://github.com/mikedh/trimesh
v 0.04620208 0.00295510 0.00307195
v 0.04620430 0.00295510 0.00064450
v 0.04407570 0.00295510 0.00307195
v 0.04721718 -0.00497114 0.00307195
v 0.04853370 -0.00637375 0.00059647
v 0.04860374 -0.00637193 -0.00510708
v 0.04620430 0.00295510 0.00059727
v 0.04410762 0.00295510 0.00059727
v 0.04408678 0.00195519 0.00307195
v 0.04565686 -0.00497114 0.00307195
v 0.04656645 -0.00637375 0.00059647
v 0.04859798 -0.00637375 -0.00510067
v 0.04575615 -0.00057518 -0.00510708
v 0.04859620 -0.00637375 -0.00510708
v 0.04455355 -0.00057518 -0.00510708
v 0.04453537 -0.00078794 -0.00510708
v 0.04451100 -0.00108107 -0.00510708
v 0.04451454 -0.00179973 -0.00510708
v 0.04424415 -0.00108016 0.00307195
v 0.04555756 -0.00478029 0.00307195
v 0.04549462 -0.00467892 -0.00510708
v 0.04573000 -0.00511633 0.00059647
v 0.04656645 -0.00637375 -0.00469156
v 0.04572955 -0.00511633 -0.00036026
v 0.04572955 -0.00511815 -0.00323926
v 0.04855808 -0.00637375 -0.00510708
v 0.04429379 -0.00159153 0.00307195
v 0.04464974 -0.00251930 -0.00510708
v 0.04550526 -0.00467892 0.00307195
v 0.04518566 -0.00403515 -0.00510708
v 0.04572955 -0.00511815 -0.00510708
v 0.04656645 -0.00637010 -0.00510708
v 0.04433590 -0.00180886 0.00307195
v 0.04478139 -0.00294666 -0.00510708
v 0.04519497 -0.00403149 0.00307195
v 0.04502564 -0.00367171 0.00307195
v 0.04502697 -0.00367536 -0.00510708
v 0.04487226 -0.00323978 -0.00510708
v 0.04461428 -0.00267362 0.00307195
f 1 2 7
f 1 7 8
f 1 8 3
f 1 3 9
f 1 9 19
f 1 19 27
f 1 27 33
f 1 33 39
f 1 39 36
f 1 36 35
f 1 35 29
f 1 29 20
f 1 20 10
f 1 10 4
f 1 4 5
f 1 5 6
f 1 6 2
f 2 6 7
f 3 8 9
f 4 10 11
f 4 11 5
f 5 11 23
f 5 23 26
f 5 26 14
f 5 14 12
f 5 12 6
f 6 13 7
f 6 12 14
f 6 14 26
f 6 26 32
f 6 32 31
f 6 31 21
f 6 21 30
f 6 30 37
f 6 37 38
f 6 38 34
f 6 34 28
f 6 28 18
f 6 18 17
f 6 17 16
f 6 16 15
f 6 15 13
f 7 13 15
f 7 15 8
f 8 15 16
f 8 16 17
f 8 17 18
f 8 18 9
f 9 18 19
f 10 20 21
f 10 21 22
f 10 22 11
f 11 22 24
f 11 24 25
f 11 25 31
f 11 31 23
f 18 27 19
f 18 28 27
f 20 29 21
f 21 29 30
f 21 31 25
f 21 25 24
f 21 24 22
f 23 31 32
f 23 32 26
f 27 28 33
f 28 34 33
f 29 35 30
f 30 35 36
f 30 36 37
f 33 34 38
f 33 38 39
f 36 39 37
f 37 39 38

