# https://github.com/mikedh/trimesh
v 0.02320780 -0.00693833 -0.00779814
v 0.02314393 -0.00693833 -0.00740083
v 0.02333552 -0.01043532 -0.00508345
v 0.02333552 -0.01000958 -0.00779814
v 0.01168501 -0.00693833 -0.00779814
v 0.02292497 -0.00693833 -0.00701177
v 0.02333552 -0.01286333 -0.00508345
v 0.02266496 -0.00693833 -0.00655600
v 0.02190886 -0.00693833 -0.00601253
v 0.01893693 -0.00693833 -0.00508345
v 0.02333552 -0.01286333 -0.00779814
v 0.01168501 -0.00694761 -0.00779814
v 0.01351424 -0.00693833 -0.00508345
v 0.01620335 -0.01286333 -0.00508345
v 0.01481090 -0.01286333 -0.00779814
v 0.01168615 -0.00827065 -0.00779814
v 0.01351424 -0.00959428 -0.00508345
v 0.01582359 -0.01285927 -0.00508345
v 0.01582359 -0.01286333 -0.00546242
v 0.01516214 -0.01286217 -0.00678561
v 0.01450070 -0.01285405 -0.00779814
v 0.01168729 -0.00893247 -0.00779814
v 0.01351538 -0.01025552 -0.00508345
v 0.01554190 -0.01281867 -0.00508345
v 0.01414945 -0.01282737 -0.00779814
v 0.01450070 -0.01284419 -0.00744708
v 0.01169755 -0.01025552 -0.00779814
v 0.01351880 -0.01056757 -0.00508345
v 0.01514846 -0.01271484 -0.00508345
v 0.01383812 -0.01275428 -0.00779814
v 0.01174887 -0.01071896 -0.00779814
v 0.01352564 -0.01064762 -0.00508345
v 0.01500020 -0.01266090 -0.00508345
v 0.01356784 -0.01267946 -0.00779814
v 0.01177396 -0.01091675 -0.00779814
v 0.01355073 -0.01086455 -0.00508345
v 0.01487476 -0.01258955 -0.00508345
v 0.01342871 -0.01261856 -0.00779814
v 0.01201801 -0.01137033 -0.00779814
v 0.01358152 -0.01098345 -0.00508345
v 0.01483598 -0.01256635 -0.00508345
v 0.01390654 -0.01151360 -0.00508345
f 1 2 3
f 1 3 4
f 1 4 11
f 1 11 15
f 1 15 21
f 1 21 25
f 1 25 30
f 1 30 34
f 1 34 38
f 1 38 39
f 1 39 35
f 1 35 31
f 1 31 27
f 1 27 22
f 1 22 16
f 1 16 12
f 1 12 5
f 1 5 13
f 1 13 10
f 1 10 9
f 1 9 8
f 1 8 6
f 1 6 2
f 2 6 3
f 3 7 11
f 3 11 4
f 3 6 8
f 3 8 9
f 3 9 10
f 3 10 13
f 3 13 17
f 3 17 23
f 3 23 28
f 3 28 32
f 3 32 36
f 3 36 40
f 3 40 42
f 3 42 41
f 3 41 37
f 3 37 33
f 3 33 29
f 3 29 24
f 3 24 18
f 3 18 14
f 3 14 7
f 5 12 17
f 5 17 13
f 7 14 19
f 7 19 15
f 7 15 11
f 12 16 17
f 14 18 19
f 15 19 20
f 15 20 21
f 16 22 17
f 17 22 23
f 18 24 25
f 18 25 26
f 18 26 21
f 18 21 20
f 18 20 19
f 21 26 25
f 22 27 23
f 23 27 28
f 24 29 30
f 24 30 25
f 27 31 32
f 27 32 28
f 29 33 34
f 29 34 30
f 31 35 36
f 31 36 32
f 33 37 38
f 33 38 34
f 35 39 40
f 35 40 36
f 37 41 38
f 38 41 39
f 39 41 42
f 39 42 40

