# https://github.com/mikedh/trimesh
v 0.00702358 -0.00732489 -0.00842235
v 0.00444372 -0.00922180 -0.00842235
v 0.00702358 -0.01230690 -0.00842235
v 0.00702358 0.00295435 -0.00983272
v 0.00494097 0.00525051 -0.00985852
v 0.00436729 0.00525051 -0.00978486
v 0.00379319 0.00582359 -0.00979190
v 0.00273362 0.00639859 -0.00979565
v 0.00434293 -0.00931349 -0.00842235
v 0.00608874 -0.01230881 -0.00842235
v 0.00551464 -0.01230499 -0.00883382
v 0.00702358 -0.01230499 -0.00857530
v 0.00702358 0.00351597 -0.01001945
v 0.00551464 0.00467742 -0.00986134
v 0.00547894 0.00521421 -0.01009593
v 0.00488763 0.00578921 -0.01012690
v 0.00436729 0.00582359 -0.00990450
v 0.00321910 0.00639859 -0.00983178
v 0.00273362 0.00697167 -0.01005089
v 0.00273362 0.00582359 -0.00978439
v 0.00358405 -0.01080542 -0.00842235
v 0.00365251 -0.01024571 -0.00842235
v 0.00388937 -0.00977387 -0.00842235
v 0.00494097 -0.01231072 -0.00842235
v 0.00494097 -0.01227825 -0.00932741
v 0.00551464 -0.01227825 -0.00931286
v 0.00702358 -0.01227634 -0.00929362
v 0.00702358 -0.01230117 -0.00883382
v 0.00494097 -0.01230499 -0.00883382
v 0.00702358 0.00365542 -0.01055573
v 0.00583382 0.00500026 -0.01020525
v 0.00526392 0.00557335 -0.01020525
v 0.00466127 0.00611587 -0.01025686
v 0.00436729 0.00621902 -0.01014613
v 0.00379739 0.00642533 -0.01001852
v 0.00321910 0.00683413 -0.01007388
v 0.00273362 0.00719518 -0.01055573
v 0.00273362 -0.00680147 -0.00978205
v 0.00273362 -0.00737646 -0.00985899
v 0.00273362 -0.00807372 -0.01010015
v 0.00367855 -0.01139379 -0.00842235
v 0.00482715 -0.01230308 -0.00842235
v 0.00453906 -0.01228016 -0.00883382
v 0.00457895 -0.01227061 -0.00926594
v 0.00494097 -0.01224577 -0.00961455
v 0.00702358 -0.01226297 -0.00940013
v 0.00702358 0.00366688 -0.01102257
v 0.00585061 0.00501936 -0.01055573
v 0.00557218 0.00530591 -0.01055573
v 0.00528492 0.00559436 -0.01055573
v 0.00495314 0.00588090 -0.01055573
v 0.00466631 0.00611969 -0.01055573
v 0.00436729 0.00632982 -0.01055573
v 0.00395026 0.00660872 -0.01055573
v 0.00360883 0.00674053 -0.01016443
v 0.00274580 0.00719136 -0.01055573
v 0.00273362 0.00720091 -0.01112908
v 0.00273362 -0.00830868 -0.01055573
v 0.00290749 -0.00888368 -0.01227717
v 0.00300618 -0.00917213 -0.01227717
v 0.00350342 -0.01053798 -0.01199801
v 0.00374154 -0.01153324 -0.00842235
v 0.00273362 -0.00832205 -0.01112908
v 0.00273362 -0.00832778 -0.01148894
v 0.00453360 -0.01228207 -0.00842235
v 0.00432781 -0.01221903 -0.00842235
v 0.00424634 -0.01219038 -0.00842235
v 0.00425222 -0.01217509 -0.00883382
v 0.00437947 -0.01216745 -0.00943720
v 0.00436729 -0.01207003 -0.00998145
v 0.00494097 -0.01216172 -0.00998145
v 0.00702358 -0.01215026 -0.00998145
v 0.00702358 -0.01220757 -0.00972809
v 0.00702358 -0.01224004 -0.00958030
v 0.00702358 0.00366879 -0.01112908
v 0.00585187 0.00502127 -0.01170336
v 0.00557932 0.00530782 -0.01170336
v 0.00557680 0.00530782 -0.01112908
v 0.00528996 0.00559818 -0.01112908
v 0.00495608 0.00588472 -0.01112908
v 0.00466967 0.00612351 -0.01112908
v 0.00436729 0.00633555 -0.01112908
v 0.00395530 0.00661254 -0.01112908
v 0.00366343 0.00676918 -0.01055573
v 0.00321910 0.00698695 -0.01055573
v 0.00275420 0.00719327 -0.01112908
v 0.00321910 0.00699460 -0.01112908
v 0.00273362 0.00720473 -0.01170336
v 0.00291588 -0.00885884 -0.01264032
v 0.00273362 -0.00832396 -0.01206557
v 0.00319474 -0.00967071 -0.01227717
v 0.00342572 -0.01023998 -0.01222462
v 0.00344714 -0.01004704 -0.01262249
v 0.00395950 -0.01123905 -0.01157996
v 0.00403510 -0.01172618 -0.01093014
v 0.00400528 -0.01177584 -0.01055573
v 0.00381881 -0.01139379 -0.01055573
v 0.00392800 -0.01190192 -0.00842235
v 0.00399814 -0.01182742 -0.00998145
v 0.00436729 -0.01191912 -0.01055573
v 0.00494097 -0.01196496 -0.01055573
v 0.00702358 -0.01207576 -0.01019493
v 0.00702358 0.00366115 -0.01159451
v 0.00583508 0.00500217 -0.01206135
v 0.00702358 0.00365924 -0.01170336
v 0.00527106 0.00557908 -0.01207495
v 0.00529248 0.00559818 -0.01170336
v 0.00495860 0.00588663 -0.01170336
v 0.00467219 0.00612542 -0.01170336
v 0.00436729 0.00633937 -0.01170336
v 0.00395740 0.00661445 -0.01170336
v 0.00366847 0.00677300 -0.01112908
v 0.00367056 0.00677491 -0.01170336
v 0.00321910 0.00699651 -0.01170336
v 0.00273362 0.00720091 -0.01173198
v 0.00273362 -0.00816732 -0.01249675
v 0.00288187 -0.00850926 -0.01283926
v 0.00291504 -0.00830868 -0.01315408
v 0.00346394 -0.00883592 -0.01314516
v 0.00379319 -0.00967071 -0.01287210
v 0.00379319 -0.01010817 -0.01265581
v 0.00436729 -0.01106522 -0.01194687
v 0.00436729 -0.01130400 -0.01166019
v 0.00436729 -0.01159246 -0.01126843
v 0.00436729 -0.01175674 -0.01098175
v 0.00494097 -0.01176247 -0.01098644
v 0.00702358 -0.01194777 -0.01055573
v 0.00571623 0.00486654 -0.01244373
v 0.00549364 0.00523140 -0.01225934
v 0.00702358 0.00351979 -0.01227764
v 0.00514423 0.00545873 -0.01245734
v 0.00490569 0.00579494 -0.01223588
v 0.00466715 0.00612160 -0.01201396
v 0.00361597 0.00674435 -0.01212938
v 0.00273362 0.00706528 -0.01227248
v 0.00273362 -0.00774706 -0.01270695
v 0.00291504 -0.00807563 -0.01315408
v 0.00317416 -0.00790943 -0.01317988
v 0.00325144 -0.00850926 -0.01317050
v 0.00273362 -0.00739557 -0.01280360
v 0.00273362 -0.00631435 -0.01282893
v 0.00379319 -0.00852263 -0.01319114
v 0.00379319 -0.00884356 -0.01314704
v 0.00379319 -0.00913201 -0.01306775
v 0.00436729 -0.00967071 -0.01287069
v 0.00436729 -0.01011963 -0.01265674
v 0.00436729 -0.01040808 -0.01248314
v 0.00436729 -0.01077677 -0.01219600
v 0.00494097 -0.01106140 -0.01194311
v 0.00702358 -0.01129063 -0.01164190
v 0.00494097 -0.01130209 -0.01165597
v 0.00494097 -0.01158864 -0.01127312
v 0.00702358 -0.01175101 -0.01096768
v 0.00533363 0.00507667 -0.01262249
v 0.00587245 0.00448448 -0.01261170
v 0.00702358 0.00292187 -0.01266378
v 0.00476206 0.00562683 -0.01261780
v 0.00414303 0.00615407 -0.01259575
v 0.00452562 0.00601080 -0.01239681
v 0.00434755 0.00622857 -0.01223401
v 0.00323674 0.00684177 -0.01230345
v 0.00380159 0.00654377 -0.01230345
v 0.00343958 0.00664501 -0.01251223
v 0.00273362 0.00702134 -0.01234614
v 0.00273362 0.00573572 -0.01281533
v 0.00273362 0.00582359 -0.01281439
v 0.00379319 -0.00794955 -0.01321460
v 0.00702358 -0.00844813 -0.01316018
v 0.00666283 -0.00846914 -0.01316299
v 0.00436729 -0.00852263 -0.01318458
v 0.00666283 -0.00875569 -0.01313203
v 0.00608874 -0.00878434 -0.01313531
v 0.00571203 -0.00880153 -0.01313719
v 0.00532943 -0.00881491 -0.01313907
v 0.00494097 -0.00882255 -0.01314141
v 0.00436729 -0.00912055 -0.01306540
v 0.00666283 -0.00909763 -0.01304476
v 0.00702358 -0.00909763 -0.01304007
v 0.00702358 -0.00945867 -0.01290963
v 0.00702358 -0.00967071 -0.01283269
v 0.00702358 -0.00993051 -0.01270976
v 0.00702358 -0.01008715 -0.01263563
v 0.00702358 -0.01026863 -0.01252772
v 0.00666283 -0.01037943 -0.01246625
v 0.00702358 -0.01061630 -0.01228327
v 0.00702358 -0.01075766 -0.01217677
v 0.00666283 -0.01076148 -0.01217911
v 0.00702358 -0.01104612 -0.01192904
v 0.00702358 -0.01157718 -0.01125435
v 0.00494810 0.00526006 -0.01268161
v 0.00552094 0.00467551 -0.01267786
v 0.00702358 0.00258375 -0.01272055
v 0.00551464 0.00410243 -0.01278671
v 0.00434755 0.00582168 -0.01266566
v 0.00379319 0.00625723 -0.01264454
v 0.00305699 0.00673862 -0.01260607
v 0.00273362 0.00679975 -0.01264032
v 0.00273362 0.00631071 -0.01278061
v 0.00321910 0.00582359 -0.01280923
v 0.00702358 -0.00794955 -0.01317988
v 0.00702358 -0.00862961 -0.01314141
v 0.00702358 -0.00873467 -0.01313015
v 0.00494097 -0.00852263 -0.01317801
v 0.00702358 -0.00896964 -0.01307291
v 0.00702358 -0.01037370 -0.01246344
v 0.00702358 -0.01093914 -0.01202100
v 0.00436729 0.00525051 -0.01279281
v 0.00379319 0.00582359 -0.01276982
v 0.00494097 0.00467742 -0.01279609
v 0.00702358 0.00238126 -0.01275105
v 0.00702358 0.00202022 -0.01279093
v 0.00702358 0.00180627 -0.01280641
v 0.00702358 0.00144522 -0.01283034
v 0.00323674 0.00643106 -0.01268489
v 0.00273362 0.00675963 -0.01265534
v 0.00273362 0.00640432 -0.01276184
v 0.00379319 0.00525051 -0.01281533
v 0.00702358 -0.00393222 -0.01305555
f 1 2 9
f 1 9 23
f 1 23 22
f 1 22 21
f 1 21 41
f 1 41 62
f 1 62 98
f 1 98 67
f 1 67 66
f 1 66 65
f 1 65 42
f 1 42 24
f 1 24 10
f 1 10 3
f 1 3 12
f 1 12 28
f 1 28 27
f 1 27 46
f 1 46 74
f 1 74 73
f 1 73 72
f 1 72 102
f 1 102 127
f 1 127 153
f 1 153 189
f 1 189 150
f 1 150 188
f 1 188 206
f 1 206 186
f 1 186 185
f 1 185 205
f 1 205 183
f 1 183 182
f 1 182 181
f 1 181 180
f 1 180 179
f 1 179 178
f 1 178 204
f 1 204 202
f 1 202 201
f 1 201 168
f 1 168 200
f 1 200 218
f 1 218 213
f 1 213 212
f 1 212 211
f 1 211 210
f 1 210 192
f 1 192 156
f 1 156 130
f 1 130 105
f 1 105 103
f 1 103 75
f 1 75 47
f 1 47 30
f 1 30 13
f 1 13 4
f 1 4 5
f 1 5 6
f 1 6 7
f 1 7 8
f 1 8 2
f 2 8 9
f 3 10 11
f 3 11 12
f 4 13 14
f 4 14 5
f 5 14 13
f 5 13 15
f 5 15 16
f 5 16 17
f 5 17 18
f 5 18 7
f 5 7 6
f 7 18 8
f 8 18 19
f 8 19 37
f 8 37 57
f 8 57 88
f 8 88 115
f 8 115 135
f 8 135 164
f 8 164 197
f 8 197 215
f 8 215 216
f 8 216 198
f 8 198 166
f 8 166 165
f 8 165 141
f 8 141 140
f 8 140 136
f 8 136 116
f 8 116 90
f 8 90 64
f 8 64 63
f 8 63 58
f 8 58 40
f 8 40 39
f 8 39 38
f 8 38 20
f 8 20 21
f 8 21 22
f 8 22 23
f 8 23 9
f 10 24 11
f 11 25 26
f 11 26 27
f 11 27 28
f 11 28 12
f 11 24 29
f 11 29 25
f 13 30 31
f 13 31 15
f 15 31 32
f 15 32 16
f 16 32 33
f 16 33 34
f 16 34 17
f 17 34 35
f 17 35 18
f 18 35 36
f 18 36 19
f 19 36 37
f 20 38 21
f 21 38 39
f 21 39 40
f 21 40 41
f 24 42 43
f 24 43 29
f 25 44 45
f 25 45 27
f 25 27 26
f 25 29 44
f 27 45 46
f 29 43 44
f 30 47 48
f 30 48 31
f 31 48 49
f 31 49 32
f 32 49 50
f 32 50 33
f 33 51 52
f 33 52 53
f 33 53 54
f 33 54 55
f 33 55 34
f 33 50 51
f 34 55 35
f 35 55 36
f 36 55 56
f 36 56 37
f 37 56 57
f 40 58 41
f 41 59 60
f 41 60 61
f 41 61 62
f 41 58 63
f 41 63 64
f 41 64 59
f 42 65 43
f 43 65 66
f 43 66 67
f 43 67 68
f 43 68 44
f 44 68 69
f 44 69 70
f 44 70 71
f 44 71 45
f 45 71 72
f 45 72 73
f 45 73 74
f 45 74 46
f 47 75 48
f 48 76 77
f 48 77 78
f 48 78 49
f 48 75 76
f 49 78 79
f 49 79 50
f 50 79 51
f 51 80 81
f 51 81 52
f 51 79 80
f 52 81 53
f 53 82 83
f 53 83 54
f 53 81 82
f 54 83 112
f 54 112 84
f 54 84 55
f 55 84 85
f 55 85 56
f 56 86 57
f 56 85 87
f 56 87 86
f 57 86 88
f 59 89 60
f 59 64 90
f 59 90 89
f 60 89 91
f 60 91 61
f 61 91 89
f 61 89 92
f 61 92 93
f 61 93 94
f 61 94 95
f 61 95 96
f 61 96 97
f 61 97 62
f 62 97 96
f 62 96 98
f 67 98 68
f 68 98 99
f 68 99 96
f 68 96 69
f 69 96 70
f 70 96 95
f 70 95 100
f 70 100 71
f 71 100 101
f 71 101 72
f 72 101 102
f 75 103 76
f 76 104 77
f 76 103 105
f 76 105 104
f 77 106 107
f 77 107 79
f 77 79 78
f 77 104 106
f 79 107 108
f 79 108 80
f 80 108 109
f 80 109 81
f 81 109 110
f 81 110 82
f 82 110 83
f 83 110 111
f 83 111 113
f 83 113 112
f 84 112 87
f 84 87 85
f 86 87 88
f 87 112 113
f 87 113 114
f 87 114 88
f 88 114 115
f 89 93 92
f 89 90 116
f 89 116 117
f 89 117 118
f 89 118 93
f 93 119 120
f 93 120 121
f 93 121 122
f 93 122 94
f 93 118 119
f 94 122 123
f 94 123 124
f 94 124 95
f 95 124 125
f 95 125 100
f 96 99 98
f 100 125 101
f 101 126 127
f 101 127 102
f 101 125 126
f 104 128 129
f 104 129 106
f 104 105 130
f 104 130 128
f 106 129 131
f 106 131 132
f 106 132 133
f 106 133 107
f 107 133 108
f 108 133 109
f 109 133 110
f 110 133 111
f 111 133 134
f 111 134 113
f 113 134 114
f 114 134 115
f 115 134 135
f 116 118 117
f 116 136 118
f 118 137 138
f 118 138 139
f 118 139 119
f 118 136 140
f 118 140 141
f 118 141 137
f 119 142 143
f 119 143 144
f 119 144 120
f 119 139 142
f 120 144 145
f 120 145 146
f 120 146 121
f 121 146 147
f 121 147 148
f 121 148 122
f 122 148 149
f 122 149 150
f 122 150 151
f 122 151 123
f 123 151 152
f 123 152 124
f 124 152 126
f 124 126 125
f 126 152 189
f 126 189 153
f 126 153 127
f 128 154 131
f 128 131 129
f 128 130 155
f 128 155 154
f 130 156 155
f 131 157 158
f 131 158 159
f 131 159 132
f 131 154 157
f 132 159 133
f 133 159 160
f 133 160 134
f 134 161 135
f 134 160 162
f 134 162 163
f 134 163 161
f 135 161 163
f 135 163 164
f 137 141 165
f 137 165 166
f 137 166 138
f 138 167 139
f 138 166 167
f 139 167 142
f 142 167 168
f 142 168 169
f 142 169 170
f 142 170 171
f 142 171 172
f 142 172 173
f 142 173 174
f 142 174 175
f 142 175 143
f 143 175 176
f 143 176 144
f 144 176 145
f 145 176 177
f 145 177 178
f 145 178 179
f 145 179 180
f 145 180 181
f 145 181 182
f 145 182 146
f 146 182 183
f 146 183 147
f 147 183 184
f 147 184 185
f 147 185 186
f 147 186 187
f 147 187 148
f 148 187 188
f 148 188 149
f 149 188 150
f 150 189 152
f 150 152 151
f 154 190 157
f 154 155 191
f 154 191 190
f 155 156 191
f 156 192 193
f 156 193 191
f 157 190 194
f 157 194 158
f 158 195 196
f 158 196 163
f 158 163 162
f 158 162 160
f 158 160 159
f 158 194 195
f 163 196 164
f 164 196 197
f 166 198 199
f 166 199 167
f 167 199 200
f 167 200 168
f 168 201 169
f 169 201 202
f 169 202 203
f 169 203 170
f 170 203 171
f 171 203 202
f 171 202 204
f 171 204 172
f 172 204 173
f 173 204 178
f 173 178 174
f 174 178 177
f 174 177 176
f 174 176 175
f 183 205 184
f 184 205 185
f 186 206 187
f 187 206 188
f 190 207 208
f 190 208 194
f 190 191 209
f 190 209 207
f 191 193 209
f 192 210 193
f 193 210 211
f 193 211 212
f 193 212 213
f 193 213 209
f 194 208 195
f 195 214 196
f 195 208 214
f 196 215 197
f 196 214 215
f 198 216 208
f 198 208 199
f 199 208 207
f 199 207 217
f 199 217 218
f 199 218 200
f 207 209 217
f 208 216 214
f 209 213 218
f 209 218 217
f 214 216 215

