# https://github.com/mikedh/trimesh
v 0.00487981 -0.00598569 0.00895368
v 0.00487981 -0.00603969 0.00906542
v 0.00487981 -0.00598649 0.00889918
v -0.00016549 -0.00772613 0.00889918
v -0.00016549 -0.00773093 0.00903915
v 0.00487981 -0.00605329 0.00907209
v 0.00487981 -0.00605449 0.00871334
v -0.00016549 -0.00773413 0.00875842
v -0.00016549 -0.00772893 0.00881880
v -0.00016549 -0.00786813 0.00909600
v 0.00487981 -0.00606969 0.00907679
v 0.00487981 -0.00893295 0.00513681
v -0.00016549 -0.00852254 0.00749123
v -0.00016549 -0.00841974 0.00761983
v -0.00016549 -0.00829094 0.00780803
v -0.00016549 -0.00787213 0.00850122
v -0.00016549 -0.00779573 0.00862943
v -0.00016549 -0.00812534 0.00914188
v 0.00487981 -0.00628089 0.00913129
v 0.00487981 -0.01006178 0.00513681
v 0.00486499 -0.00894375 0.00513681
v -0.00016549 -0.00915776 0.00690704
v -0.00016549 -0.00903896 0.00697290
v -0.00016549 -0.00891815 0.00709170
v -0.00016549 -0.00889935 0.00914188
v 0.00487981 -0.00653890 0.00914188
v 0.00458244 -0.00657810 0.00914109
v 0.00487981 -0.00632010 0.00913482
v 0.00487981 -0.01006058 0.00516112
v 0.00481312 -0.01006818 0.00513681
v 0.00473014 -0.00904496 0.00513681
v -0.00016549 -0.00941536 0.00683921
v 0.00465604 -0.00912776 0.00513681
v 0.00461801 -0.00918016 0.00513681
v -0.00016549 -0.00915736 0.00910110
v -0.00006028 -0.00915736 0.00910228
v 0.00174564 -0.00889935 0.00914188
v 0.00487981 -0.00761012 0.00914188
v 0.00487981 -0.01004858 0.00523718
v 0.00450489 -0.01006778 0.00546184
v 0.00477114 -0.01006818 0.00521169
v 0.00071375 -0.01007178 0.00701956
v 0.00071375 -0.01007178 0.00694585
v 0.00469655 -0.01006818 0.00513681
v -0.00016549 -0.00956777 0.00683921
v 0.00453206 -0.00941536 0.00513681
v 0.00453157 -0.00951737 0.00513681
v -0.00016549 -0.00930016 0.00904464
v -0.00006028 -0.00930096 0.00904543
v 0.00019806 -0.00915736 0.00910071
v 0.00200348 -0.00889935 0.00913874
v 0.00303487 -0.00864135 0.00914148
v 0.00277702 -0.00864135 0.00914188
v 0.00487981 -0.00782853 0.00913835
v 0.00458244 -0.00786813 0.00914188
v 0.00432460 -0.00812534 0.00914148
v 0.00487981 -0.01003938 0.00529325
v 0.00485017 -0.01004378 0.00529403
v 0.00467679 -0.01005498 0.00538382
v 0.00458738 -0.01004058 0.00554731
v 0.00458244 -0.00999618 0.00580412
v 0.00440017 -0.01005298 0.00563357
v 0.00422828 -0.01006458 0.00569905
v 0.00376544 -0.01006778 0.00597938
v 0.00200348 -0.01006978 0.00675805
v 0.00097160 -0.01006938 0.00700662
v 0.00071375 -0.01004378 0.00714816
v 0.00045591 -0.01004538 0.00715208
v 0.00019806 -0.01004698 0.00715287
v 0.00045591 -0.01007178 0.00702348
v 0.00045591 -0.01007178 0.00694742
v 0.00468519 -0.01005538 0.00513681
v -0.00016549 -0.01007098 0.00694977
v -0.00016549 -0.01001338 0.00692233
v -0.00016549 -0.00993137 0.00688782
v -0.00016549 -0.00967337 0.00683999
v 0.00453255 -0.00967337 0.00513681
v -0.00016549 -0.00938656 0.00889918
v -0.00006028 -0.00938856 0.00889918
v 0.00019806 -0.00929976 0.00904425
v 0.00045591 -0.00915736 0.00909640
v 0.00174564 -0.00910976 0.00908502
v 0.00200348 -0.00909656 0.00908228
v 0.00226133 -0.00889935 0.00912815
v 0.00071375 -0.00915736 0.00909169
v 0.00329272 -0.00864135 0.00912855
v 0.00380890 -0.00838334 0.00914031
v 0.00355106 -0.00838334 0.00914188
v 0.00484078 -0.00786813 0.00913796
v 0.00487981 -0.00787093 0.00913168
v 0.00406675 -0.00838334 0.00912110
v 0.00458244 -0.00812534 0.00912188
v 0.00487981 -0.01003418 0.00532422
v 0.00484078 -0.01000218 0.00554614
v 0.00484078 -0.00995778 0.00580412
v 0.00458244 -0.00994738 0.00606211
v 0.00432460 -0.00998338 0.00606211
v 0.00431818 -0.01003498 0.00579275
v 0.00406675 -0.01001818 0.00606211
v 0.00383459 -0.01004618 0.00606407
v 0.00344683 -0.01006298 0.00620483
v 0.00294102 -0.01006378 0.00646556
v 0.00277702 -0.01006818 0.00649300
v 0.00221737 -0.01006578 0.00673295
v 0.00139591 -0.01006178 0.00697251
v 0.00122994 -0.01006498 0.00698663
v 0.00097160 -0.01004018 0.00713562
v 0.00071375 -0.00999778 0.00735165
v 0.00045591 -0.01000138 0.00735165
v 0.00019806 -0.01000418 0.00735165
v -0.00006028 -0.01000498 0.00735165
v -0.00006028 -0.01004738 0.00715326
v -0.00016549 -0.01005738 0.00710072
v -0.00016549 -0.01007098 0.00702427
v 0.00460319 -0.00993137 0.00513681
v -0.00016549 -0.00982537 0.00686626
v 0.00457059 -0.00981577 0.00513681
v -0.00016549 -0.00950177 0.00869530
v -0.00006028 -0.00950297 0.00869765
v 0.00019806 -0.00950217 0.00869608
v 0.00019806 -0.00938656 0.00889918
v 0.00045591 -0.00929576 0.00903994
v 0.00071375 -0.00929176 0.00903523
v 0.00087330 -0.00928856 0.00903131
v 0.00226133 -0.00907616 0.00907169
v 0.00303487 -0.00885575 0.00908463
v 0.00329272 -0.00882255 0.00907209
v 0.00380890 -0.00860655 0.00908346
v 0.00487981 -0.00808733 0.00908032
v 0.00406675 -0.00855934 0.00906464
v 0.00431571 -0.00839134 0.00908110
v 0.00458244 -0.00830574 0.00906503
v 0.00482942 -0.00812933 0.00907758
v 0.00487981 -0.00999618 0.00554614
v 0.00487981 -0.00995058 0.00580412
v 0.00484078 -0.00990377 0.00606211
v 0.00432460 -0.00993098 0.00632010
v 0.00406675 -0.00996818 0.00632010
v 0.00380890 -0.00999938 0.00632010
v 0.00354019 -0.01003298 0.00630284
v 0.00329272 -0.01000458 0.00657808
v 0.00303487 -0.00997618 0.00683607
v 0.00277702 -0.00999898 0.00683607
v 0.00251918 -0.01002098 0.00683607
v 0.00329272 -0.00995098 0.00683607
v 0.00228652 -0.01004098 0.00682588
v 0.00226133 -0.00998378 0.00709406
v 0.00200348 -0.01000018 0.00709406
v 0.00174564 -0.01001618 0.00709406
v 0.00148433 -0.01003498 0.00707288
v 0.00148779 -0.00997138 0.00735165
v 0.00122994 -0.01003538 0.00711562
v 0.00097160 -0.00999098 0.00735165
v 0.00071375 -0.00993657 0.00760964
v 0.00019806 -0.00994457 0.00760964
v -0.00006028 -0.00994578 0.00760964
v -0.00016549 -0.01000418 0.00735165
v -0.00016549 -0.01002218 0.00727010
v -0.00016549 -0.01004698 0.00715287
v -0.00016549 -0.00957417 0.00856631
v -0.00006028 -0.00957537 0.00856866
v 0.00019806 -0.00957457 0.00856709
v 0.00071375 -0.00956697 0.00855258
v 0.00071375 -0.00949417 0.00868158
v 0.00071375 -0.00937056 0.00889918
v 0.00097160 -0.00956017 0.00854082
v 0.00096419 -0.00934536 0.00892074
v 0.00122994 -0.00934696 0.00887722
v 0.00104520 -0.00927856 0.00902072
v 0.00174564 -0.00923896 0.00896152
v 0.00200348 -0.00922536 0.00893564
v 0.00251918 -0.00905136 0.00905131
v 0.00348931 -0.00879175 0.00904935
v 0.00267477 -0.00903496 0.00903523
v 0.00487981 -0.00810973 0.00907365
v 0.00422334 -0.00852614 0.00904072
v 0.00366170 -0.00876095 0.00902033
v 0.00473557 -0.00826734 0.00903994
v 0.00487981 -0.00989497 0.00606329
v 0.00483091 -0.00983417 0.00632049
v 0.00458244 -0.00988577 0.00632010
v 0.00487981 -0.00988497 0.00609975
v 0.00406675 -0.00991097 0.00657808
v 0.00380890 -0.00994618 0.00657808
v 0.00355106 -0.00997618 0.00657808
v 0.00277702 -0.00994217 0.00709406
v 0.00251918 -0.00996498 0.00709406
v 0.00355106 -0.00991857 0.00683607
v 0.00329272 -0.00988257 0.00709406
v 0.00303487 -0.00991417 0.00709406
v 0.00200348 -0.00994177 0.00735165
v 0.00174564 -0.00995858 0.00735165
v 0.00122994 -0.00991577 0.00760964
v 0.00097160 -0.00992858 0.00760964
v 0.00071375 -0.00985537 0.00786763
v 0.00019806 -0.00986577 0.00786763
v -0.00006028 -0.00986697 0.00786763
v -0.00016549 -0.00989777 0.00776176
v -0.00016549 -0.00994418 0.00760964
v -0.00016549 -0.00996898 0.00750378
v -0.00016549 -0.00965977 0.00838360
v -0.00006028 -0.00966177 0.00838360
v 0.00019806 -0.00966017 0.00838360
v 0.00071375 -0.00964657 0.00838360
v 0.00097160 -0.00963537 0.00838360
v 0.00125118 -0.00960297 0.00840830
v 0.00148779 -0.00960337 0.00837066
v 0.00117956 -0.00955177 0.00852592
v 0.00125118 -0.00948936 0.00862355
v 0.00135195 -0.00954377 0.00851102
v 0.00174564 -0.00943136 0.00864159
v 0.00174564 -0.00932216 0.00883253
v 0.00200348 -0.00930736 0.00880665
v 0.00218575 -0.00929496 0.00878469
v 0.00226775 -0.00921816 0.00888232
v 0.00303487 -0.00898495 0.00897446
v 0.00331445 -0.00896575 0.00889408
v 0.00356588 -0.00886815 0.00892035
v 0.00251918 -0.00916056 0.00889918
v 0.00276714 -0.00910016 0.00891330
v 0.00303487 -0.00908256 0.00884547
v 0.00487981 -0.00822574 0.00900034
v 0.00380890 -0.00873575 0.00898897
v 0.00406675 -0.00868815 0.00893486
v 0.00420703 -0.00877535 0.00877646
v 0.00430138 -0.00862975 0.00888624
v 0.00439573 -0.00848254 0.00899642
v 0.00406675 -0.00879735 0.00880587
v 0.00458244 -0.00843494 0.00894466
v 0.00481510 -0.00837054 0.00888467
v 0.00487981 -0.00835254 0.00886742
v 0.00458244 -0.00982617 0.00652319
v 0.00434534 -0.00985297 0.00660043
v 0.00487981 -0.00982937 0.00629814
v 0.00487981 -0.00980617 0.00637381
v 0.00405391 -0.00983537 0.00684077
v 0.00380890 -0.00987897 0.00683607
v 0.00427323 -0.00981977 0.00675765
v 0.00251918 -0.00989817 0.00735165
v 0.00226133 -0.00992137 0.00735165
v 0.00354661 -0.00984017 0.00710386
v 0.00345770 -0.00980897 0.00724069
v 0.00329272 -0.00982177 0.00727637
v 0.00301363 -0.00983377 0.00735792
v 0.00277702 -0.00986897 0.00735165
v 0.00174564 -0.00988657 0.00760964
v 0.00148779 -0.00990217 0.00760964
v 0.00122994 -0.00984097 0.00783861
v 0.00094740 -0.00983977 0.00788605
v 0.00084564 -0.00980257 0.00799701
v 0.00019806 -0.00980977 0.00801505
v -0.00006028 -0.00981017 0.00801701
v -0.00016549 -0.00986537 0.00786763
v -0.00016549 -0.00970097 0.00828401
v -0.00006028 -0.00975937 0.00814600
v 0.00019806 -0.00975897 0.00814404
v 0.00045591 -0.00975617 0.00813698
v 0.00071375 -0.00975297 0.00812953
v 0.00094740 -0.00975657 0.00810013
v 0.00122994 -0.00972977 0.00812561
v 0.00148779 -0.00971257 0.00812561
v 0.00174564 -0.00969417 0.00812561
v 0.00174564 -0.00959417 0.00834870
v 0.00174564 -0.00952457 0.00847770
v 0.00200348 -0.00940136 0.00864159
v 0.00200348 -0.00950897 0.00844947
v 0.00226775 -0.00935096 0.00866158
v 0.00235765 -0.00928096 0.00876117
v 0.00251918 -0.00926696 0.00873725
v 0.00324283 -0.00905256 0.00880469
v 0.00380890 -0.00906056 0.00855650
v 0.00396302 -0.00903695 0.00852396
v 0.00277702 -0.00924216 0.00869922
v 0.00305315 -0.00922496 0.00863100
v 0.00315144 -0.00928376 0.00850789
v 0.00331445 -0.00912936 0.00866550
v 0.00405588 -0.00909976 0.00839183
v 0.00413492 -0.00900775 0.00848319
v 0.00432460 -0.00897295 0.00843300
v 0.00470840 -0.00876895 0.00851063
v 0.00458244 -0.00855374 0.00881567
v 0.00482152 -0.00859135 0.00864237
v 0.00487981 -0.00849734 0.00871177
v 0.00487981 -0.00845494 0.00875764
v 0.00444512 -0.00980017 0.00670120
v 0.00473853 -0.00980817 0.00646830
v 0.00483091 -0.00975657 0.00656358
v 0.00487981 -0.00977657 0.00646634
v 0.00380890 -0.00982097 0.00701878
v 0.00413146 -0.00979017 0.00692978
v 0.00432460 -0.00969457 0.00709406
v 0.00458244 -0.00972537 0.00683607
v 0.00434534 -0.00977617 0.00684077
v 0.00251918 -0.00983097 0.00755632
v 0.00200348 -0.00986537 0.00760964
v 0.00363009 -0.00979297 0.00719639
v 0.00380890 -0.00970537 0.00735165
v 0.00354661 -0.00975857 0.00733675
v 0.00329272 -0.00969977 0.00760964
v 0.00329272 -0.00977497 0.00740537
v 0.00308575 -0.00979057 0.00744810
v 0.00277702 -0.00981377 0.00751162
v 0.00174564 -0.00982297 0.00779235
v 0.00148779 -0.00983257 0.00781666
v 0.00101754 -0.00979737 0.00798446
v -0.00016549 -0.00977937 0.00809111
v -0.00016549 -0.00980937 0.00801465
v -0.00016549 -0.00975857 0.00814365
v 0.00148779 -0.00978257 0.00794565
v 0.00174564 -0.00977337 0.00792134
v 0.00200348 -0.00976177 0.00788919
v 0.00200348 -0.00966857 0.00812561
v 0.00200348 -0.00958017 0.00832047
v 0.00226133 -0.00956097 0.00828480
v 0.00241742 -0.00954857 0.00826245
v 0.00258932 -0.00953497 0.00823735
v 0.00277702 -0.00942336 0.00838360
v 0.00277702 -0.00931936 0.00857023
v 0.00297955 -0.00930136 0.00853808
v 0.00355106 -0.00910016 0.00860983
v 0.00387608 -0.00927136 0.00822794
v 0.00379754 -0.00920016 0.00836282
v 0.00305315 -0.00935896 0.00840634
v 0.00303487 -0.00949456 0.00816168
v 0.00327642 -0.00947256 0.00810366
v 0.00355106 -0.00939976 0.00812561
v 0.00370418 -0.00929176 0.00826323
v 0.00329272 -0.00926536 0.00847770
v 0.00406675 -0.00924016 0.00817893
v 0.00432460 -0.00906296 0.00830401
v 0.00456713 -0.00909216 0.00812836
v 0.00464221 -0.00900175 0.00821618
v 0.00484078 -0.00896335 0.00816129
v 0.00484078 -0.00883455 0.00834321
v 0.00487981 -0.00882655 0.00833184
v 0.00484078 -0.00873575 0.00847221
v 0.00487981 -0.00858135 0.00862041
v 0.00487981 -0.00974377 0.00656632
v 0.00405391 -0.00975457 0.00707563
v 0.00431521 -0.00959097 0.00735792
v 0.00406675 -0.00965097 0.00735165
v 0.00484078 -0.00966257 0.00683607
v 0.00460813 -0.00961577 0.00711954
v 0.00453898 -0.00957017 0.00727598
v 0.00251918 -0.00971337 0.00786763
v 0.00231171 -0.00979377 0.00771589
v 0.00224009 -0.00983697 0.00762179
v 0.00277702 -0.00976617 0.00764061
v 0.00200348 -0.00981057 0.00776020
v 0.00380792 -0.00959737 0.00762140
v 0.00355106 -0.00965577 0.00760964
v 0.00303487 -0.00963737 0.00786763
v 0.00277702 -0.00968017 0.00786763
v 0.00301363 -0.00975137 0.00758572
v 0.00226133 -0.00963537 0.00812561
v 0.00277702 -0.00958737 0.00807974
v 0.00277702 -0.00951937 0.00820873
v 0.00406675 -0.00931416 0.00804994
v 0.00421889 -0.00929296 0.00800799
v 0.00439079 -0.00926656 0.00796172
v 0.00355106 -0.00950657 0.00792604
v 0.00372147 -0.00955537 0.00775980
v 0.00303487 -0.00956297 0.00803269
v 0.00317911 -0.00954777 0.00800289
v 0.00431274 -0.00919896 0.00810679
v 0.00458244 -0.00923216 0.00790840
v 0.00484078 -0.00905336 0.00803230
v 0.00487981 -0.00904576 0.00802171
v 0.00487981 -0.00895215 0.00815463
v 0.00487981 -0.00892895 0.00818756
v 0.00487981 -0.00872455 0.00846201
v 0.00487981 -0.00870095 0.00848828
v 0.00487981 -0.00965137 0.00683685
v 0.00422284 -0.00955177 0.00749554
v 0.00406675 -0.00957257 0.00753867
v 0.00484078 -0.00958057 0.00704779
v 0.00471087 -0.00954417 0.00722227
v 0.00460813 -0.00950977 0.00735792
v 0.00439474 -0.00952777 0.00744810
v 0.00355106 -0.00957417 0.00779705
v 0.00327642 -0.00958937 0.00787586
v 0.00389386 -0.00953257 0.00771511
v 0.00406675 -0.00940736 0.00786763
v 0.00458244 -0.00930736 0.00777941
v 0.00471779 -0.00928816 0.00774177
v 0.00481856 -0.00918616 0.00784371
v 0.00487981 -0.00912176 0.00790605
v 0.00487981 -0.00957457 0.00703368
v 0.00406675 -0.00950857 0.00766767
v 0.00484078 -0.00952257 0.00717639
v 0.00484078 -0.00943976 0.00735165
v 0.00481856 -0.00932456 0.00760376
v 0.00458244 -0.00939336 0.00760964
v 0.00431521 -0.00947696 0.00759278
v 0.00487981 -0.00931776 0.00757631
v 0.00487981 -0.00925936 0.00768923
v 0.00487981 -0.00924816 0.00770727
v 0.00487981 -0.00951617 0.00716189
v 0.00487981 -0.00949617 0.00720423
v 0.00487981 -0.00942576 0.00735322
v 0.00487981 -0.00940936 0.00738772
f 1 2 6
f 1 6 11
f 1 11 19
f 1 19 28
f 1 28 26
f 1 26 38
f 1 38 54
f 1 54 90
f 1 90 129
f 1 129 175
f 1 175 222
f 1 222 231
f 1 231 284
f 1 284 283
f 1 283 337
f 1 337 372
f 1 372 371
f 1 371 335
f 1 335 370
f 1 370 369
f 1 369 368
f 1 368 387
f 1 387 397
f 1 397 396
f 1 396 395
f 1 395 401
f 1 401 400
f 1 400 399
f 1 399 398
f 1 398 388
f 1 388 373
f 1 373 338
f 1 338 288
f 1 288 235
f 1 235 234
f 1 234 182
f 1 182 179
f 1 179 135
f 1 135 134
f 1 134 93
f 1 93 57
f 1 57 39
f 1 39 29
f 1 29 20
f 1 20 12
f 1 12 7
f 1 7 3
f 1 3 4
f 1 4 5
f 1 5 2
f 2 5 6
f 3 7 8
f 3 8 9
f 3 9 4
f 4 9 8
f 4 8 17
f 4 17 16
f 4 16 15
f 4 15 14
f 4 14 13
f 4 13 24
f 4 24 23
f 4 23 22
f 4 22 32
f 4 32 45
f 4 45 76
f 4 76 116
f 4 116 75
f 4 75 74
f 4 74 73
f 4 73 114
f 4 114 113
f 4 113 159
f 4 159 158
f 4 158 157
f 4 157 200
f 4 200 199
f 4 199 198
f 4 198 253
f 4 253 307
f 4 307 306
f 4 306 308
f 4 308 254
f 4 254 201
f 4 201 160
f 4 160 118
f 4 118 78
f 4 78 48
f 4 48 35
f 4 35 25
f 4 25 18
f 4 18 10
f 4 10 5
f 5 10 6
f 6 10 11
f 7 12 13
f 7 13 14
f 7 14 15
f 7 15 16
f 7 16 17
f 7 17 8
f 10 18 19
f 10 19 11
f 12 20 30
f 12 30 44
f 12 44 72
f 12 72 115
f 12 115 117
f 12 117 77
f 12 77 47
f 12 47 46
f 12 46 34
f 12 34 33
f 12 33 31
f 12 31 21
f 12 21 22
f 12 22 23
f 12 23 24
f 12 24 13
f 18 25 37
f 18 37 53
f 18 53 88
f 18 88 55
f 18 55 38
f 18 38 26
f 18 26 27
f 18 27 28
f 18 28 19
f 20 29 30
f 21 31 22
f 22 31 33
f 22 33 34
f 22 34 32
f 25 35 36
f 25 36 37
f 26 28 27
f 29 39 40
f 29 40 41
f 29 41 30
f 30 41 42
f 30 42 43
f 30 43 44
f 32 34 46
f 32 46 47
f 32 47 45
f 35 48 36
f 36 48 49
f 36 49 50
f 36 50 37
f 37 51 52
f 37 52 53
f 37 50 51
f 38 55 56
f 38 56 54
f 39 57 58
f 39 58 59
f 39 59 40
f 40 59 60
f 40 60 61
f 40 61 62
f 40 62 63
f 40 63 64
f 40 64 41
f 41 64 65
f 41 65 42
f 42 66 67
f 42 67 68
f 42 68 69
f 42 69 70
f 42 70 71
f 42 71 43
f 42 65 66
f 43 71 44
f 44 71 73
f 44 73 74
f 44 74 75
f 44 75 72
f 45 47 77
f 45 77 76
f 48 78 79
f 48 79 49
f 49 79 80
f 49 80 50
f 50 80 81
f 50 81 51
f 51 82 83
f 51 83 84
f 51 84 52
f 51 81 85
f 51 85 82
f 52 84 86
f 52 86 87
f 52 87 56
f 52 56 88
f 52 88 53
f 54 89 90
f 54 56 89
f 55 88 56
f 56 87 91
f 56 91 92
f 56 92 89
f 57 93 58
f 58 93 59
f 59 94 60
f 59 93 94
f 60 94 95
f 60 95 61
f 61 96 97
f 61 97 98
f 61 98 62
f 61 95 96
f 62 98 63
f 63 98 99
f 63 99 100
f 63 100 64
f 64 100 101
f 64 101 102
f 64 102 103
f 64 103 65
f 65 103 104
f 65 104 105
f 65 105 106
f 65 106 66
f 66 106 107
f 66 107 108
f 66 108 67
f 67 108 109
f 67 109 110
f 67 110 68
f 68 110 69
f 69 110 111
f 69 111 112
f 69 112 70
f 70 112 113
f 70 113 114
f 70 114 73
f 70 73 71
f 72 75 115
f 75 116 115
f 76 77 117
f 76 117 115
f 76 115 116
f 78 118 119
f 78 119 79
f 79 119 120
f 79 120 121
f 79 121 80
f 80 121 122
f 80 122 85
f 80 85 81
f 82 85 123
f 82 123 124
f 82 124 83
f 83 125 84
f 83 124 125
f 84 125 126
f 84 126 86
f 85 122 123
f 86 127 128
f 86 128 91
f 86 91 87
f 86 126 127
f 89 92 90
f 90 92 129
f 91 128 130
f 91 130 131
f 91 131 92
f 92 132 133
f 92 133 129
f 92 131 132
f 93 134 94
f 94 134 95
f 95 134 135
f 95 135 136
f 95 136 96
f 96 136 137
f 96 137 138
f 96 138 97
f 97 138 99
f 97 99 98
f 99 138 100
f 100 138 139
f 100 139 101
f 101 139 140
f 101 140 141
f 101 141 102
f 102 142 143
f 102 143 144
f 102 144 104
f 102 104 103
f 102 141 145
f 102 145 142
f 104 144 146
f 104 146 147
f 104 147 148
f 104 148 149
f 104 149 105
f 105 149 150
f 105 150 151
f 105 151 106
f 106 151 152
f 106 152 153
f 106 153 107
f 107 153 108
f 108 153 154
f 108 154 155
f 108 155 109
f 109 155 110
f 110 155 156
f 110 156 111
f 111 156 157
f 111 157 158
f 111 158 112
f 112 158 159
f 112 159 113
f 118 160 161
f 118 161 119
f 119 161 162
f 119 162 120
f 120 162 163
f 120 163 164
f 120 164 165
f 120 165 121
f 121 165 123
f 121 123 122
f 123 165 124
f 124 165 164
f 124 164 163
f 124 163 166
f 124 166 167
f 124 167 168
f 124 168 169
f 124 169 125
f 125 170 171
f 125 171 172
f 125 172 127
f 125 127 126
f 125 169 170
f 127 173 130
f 127 130 128
f 127 172 174
f 127 174 173
f 129 133 175
f 130 176 132
f 130 132 131
f 130 173 177
f 130 177 176
f 132 178 175
f 132 175 133
f 132 176 178
f 135 179 136
f 136 180 181
f 136 181 137
f 136 179 182
f 136 182 180
f 137 183 138
f 137 181 183
f 138 183 184
f 138 184 139
f 139 184 185
f 139 185 140
f 140 185 141
f 141 185 145
f 142 186 187
f 142 187 143
f 142 145 186
f 143 187 144
f 144 187 146
f 145 185 184
f 145 184 188
f 145 188 189
f 145 189 190
f 145 190 186
f 146 187 147
f 147 191 192
f 147 192 148
f 147 187 191
f 148 192 149
f 149 192 150
f 150 192 151
f 151 192 193
f 151 193 194
f 151 194 153
f 151 153 152
f 153 194 154
f 154 194 195
f 154 195 196
f 154 196 155
f 155 196 197
f 155 197 156
f 156 197 198
f 156 198 199
f 156 199 200
f 156 200 157
f 160 201 161
f 161 201 202
f 161 202 162
f 162 202 203
f 162 203 204
f 162 204 163
f 163 204 205
f 163 205 166
f 166 205 206
f 166 206 207
f 166 207 208
f 166 208 167
f 167 208 168
f 168 208 209
f 168 209 210
f 168 210 211
f 168 211 212
f 168 212 169
f 169 212 170
f 170 212 171
f 171 213 214
f 171 214 215
f 171 215 172
f 171 212 213
f 172 215 174
f 173 174 216
f 173 216 217
f 173 217 218
f 173 218 177
f 174 215 219
f 174 219 220
f 174 220 221
f 174 221 216
f 175 178 222
f 176 177 223
f 176 223 224
f 176 224 225
f 176 225 226
f 176 226 227
f 176 227 178
f 177 218 228
f 177 228 225
f 177 225 223
f 178 227 229
f 178 229 230
f 178 230 231
f 178 231 222
f 180 232 233
f 180 233 181
f 180 182 234
f 180 234 235
f 180 235 232
f 181 233 183
f 183 236 237
f 183 237 188
f 183 188 184
f 183 233 238
f 183 238 236
f 186 190 239
f 186 239 240
f 186 240 187
f 187 240 191
f 188 237 189
f 189 237 241
f 189 241 242
f 189 242 243
f 189 243 244
f 189 244 245
f 189 245 190
f 190 245 239
f 191 240 246
f 191 246 192
f 192 246 247
f 192 247 193
f 193 248 249
f 193 249 194
f 193 247 248
f 194 249 195
f 195 249 250
f 195 250 251
f 195 251 196
f 196 251 197
f 197 252 253
f 197 253 198
f 197 251 252
f 201 254 202
f 202 254 255
f 202 255 256
f 202 256 203
f 203 256 257
f 203 257 258
f 203 258 204
f 204 258 259
f 204 259 205
f 205 260 261
f 205 261 262
f 205 262 207
f 205 207 206
f 205 259 260
f 207 262 263
f 207 263 208
f 208 210 209
f 208 263 210
f 210 263 264
f 210 264 211
f 211 264 265
f 211 265 213
f 211 213 212
f 213 265 214
f 214 265 266
f 214 266 267
f 214 267 268
f 214 268 215
f 215 268 269
f 215 269 219
f 216 221 217
f 217 270 271
f 217 271 272
f 217 272 228
f 217 228 218
f 217 221 270
f 219 269 273
f 219 273 220
f 220 273 274
f 220 274 221
f 221 274 275
f 221 275 276
f 221 276 270
f 223 225 224
f 225 228 272
f 225 272 277
f 225 277 278
f 225 278 279
f 225 279 280
f 225 280 226
f 226 280 227
f 227 280 281
f 227 281 229
f 229 281 282
f 229 282 283
f 229 283 284
f 229 284 230
f 230 284 231
f 232 285 238
f 232 238 233
f 232 235 286
f 232 286 287
f 232 287 285
f 235 288 286
f 236 289 241
f 236 241 237
f 236 238 290
f 236 290 289
f 238 291 290
f 238 285 292
f 238 292 293
f 238 293 291
f 239 245 294
f 239 294 295
f 239 295 240
f 240 295 246
f 241 296 242
f 241 289 296
f 242 296 297
f 242 297 298
f 242 298 299
f 242 299 300
f 242 300 243
f 243 300 301
f 243 301 302
f 243 302 244
f 244 302 245
f 245 302 294
f 246 303 304
f 246 304 248
f 246 248 247
f 246 295 303
f 248 260 249
f 248 304 260
f 249 259 250
f 249 260 305
f 249 305 259
f 250 259 258
f 250 258 257
f 250 257 251
f 251 256 255
f 251 255 252
f 251 257 256
f 252 255 306
f 252 306 307
f 252 307 253
f 254 308 255
f 255 308 306
f 259 305 260
f 260 304 309
f 260 309 261
f 261 309 262
f 262 309 310
f 262 310 311
f 262 311 312
f 262 312 263
f 263 312 313
f 263 313 264
f 264 313 266
f 264 266 265
f 266 313 314
f 266 314 267
f 267 315 316
f 267 316 317
f 267 317 268
f 267 314 315
f 268 317 318
f 268 318 269
f 269 318 319
f 269 319 273
f 270 276 320
f 270 320 271
f 271 321 272
f 271 320 322
f 271 322 321
f 272 321 277
f 273 319 275
f 273 275 274
f 275 319 323
f 275 323 324
f 275 324 325
f 275 325 326
f 275 326 327
f 275 327 321
f 275 321 328
f 275 328 276
f 276 328 321
f 276 321 320
f 277 321 329
f 277 329 330
f 277 330 278
f 278 330 279
f 279 330 331
f 279 331 332
f 279 332 333
f 279 333 280
f 280 333 334
f 280 334 335
f 280 335 336
f 280 336 337
f 280 337 282
f 280 282 281
f 282 337 283
f 285 287 292
f 286 288 287
f 287 288 338
f 287 338 292
f 289 290 339
f 289 339 297
f 289 297 296
f 290 291 339
f 291 340 341
f 291 341 297
f 291 297 339
f 291 293 292
f 291 292 342
f 291 342 343
f 291 343 344
f 291 344 340
f 292 338 342
f 294 345 346
f 294 346 347
f 294 347 295
f 294 302 348
f 294 348 345
f 295 347 349
f 295 349 303
f 297 341 350
f 297 350 351
f 297 351 298
f 298 351 299
f 299 351 352
f 299 352 353
f 299 353 354
f 299 354 300
f 300 354 301
f 301 354 302
f 302 354 348
f 303 310 304
f 303 349 311
f 303 311 310
f 304 310 309
f 311 349 346
f 311 346 345
f 311 345 312
f 312 355 313
f 312 345 353
f 312 353 355
f 313 355 356
f 313 356 314
f 314 356 315
f 315 356 316
f 316 356 357
f 316 357 317
f 317 357 319
f 317 319 318
f 319 357 323
f 320 321 322
f 321 358 359
f 321 359 360
f 321 360 329
f 321 327 361
f 321 361 362
f 321 362 358
f 323 357 324
f 324 357 363
f 324 363 364
f 324 364 325
f 325 364 361
f 325 361 326
f 326 361 327
f 329 365 331
f 329 331 330
f 329 360 365
f 331 366 367
f 331 367 368
f 331 368 333
f 331 333 332
f 331 365 366
f 333 368 369
f 333 369 370
f 333 370 334
f 334 370 335
f 335 371 336
f 336 371 372
f 336 372 337
f 338 373 342
f 340 374 375
f 340 375 341
f 340 344 374
f 341 375 350
f 342 376 343
f 342 373 376
f 343 376 344
f 344 376 377
f 344 377 378
f 344 378 379
f 344 379 374
f 345 348 353
f 346 349 347
f 348 354 353
f 350 362 351
f 350 375 362
f 351 362 380
f 351 380 352
f 352 363 356
f 352 356 353
f 352 380 381
f 352 381 363
f 353 356 355
f 356 363 357
f 358 382 383
f 358 383 359
f 358 362 382
f 359 383 384
f 359 384 385
f 359 385 360
f 360 385 366
f 360 366 365
f 361 364 380
f 361 380 362
f 362 375 382
f 363 381 380
f 363 380 364
f 366 385 386
f 366 386 368
f 366 368 367
f 368 386 387
f 373 388 376
f 374 389 382
f 374 382 375
f 374 379 389
f 376 388 377
f 377 388 390
f 377 390 391
f 377 391 392
f 377 392 378
f 378 392 385
f 378 385 393
f 378 393 379
f 379 393 394
f 379 394 389
f 382 389 383
f 383 389 394
f 383 394 384
f 384 393 385
f 384 394 393
f 385 392 395
f 385 395 396
f 385 396 397
f 385 397 386
f 386 397 387
f 388 398 390
f 390 398 399
f 390 399 391
f 391 399 400
f 391 400 401
f 391 401 395
f 391 395 392

