# https://github.com/mikedh/trimesh
v -0.01003304 -0.00025704 0.00284861
v -0.01003304 -0.00025704 0.00191507
v -0.01280467 -0.00025704 0.00284861
v -0.01003304 -0.00120329 0.00284861
v -0.01025074 -0.00025704 0.00191507
v -0.01003304 -0.00191367 -0.00029375
v -0.01281834 -0.00025704 0.00278771
v -0.01280381 -0.00038724 0.00284861
v -0.01003304 -0.00130738 0.00284153
v -0.01042769 -0.00429969 0.00284861
v -0.01244222 -0.00025704 0.00191537
v -0.01012081 -0.00191367 -0.00029375
v -0.01003304 -0.00284885 -0.00029375
v -0.01284655 -0.00025704 0.00265882
v -0.01281777 -0.00038724 0.00278401
v -0.01279355 -0.00064527 0.00284861
v -0.01003304 -0.00131727 0.00284061
v -0.01089043 -0.00430008 0.00284861
v -0.01046900 -0.00430008 0.00270835
v -0.01081293 -0.00430008 -0.00029375
v -0.01003304 -0.00285597 0.00090309
v -0.01003304 -0.00285360 0.00117531
v -0.01003304 -0.00285320 0.00120976
v -0.01003304 -0.00284251 0.00131742
v -0.01003304 -0.00282906 0.00142261
v -0.01003304 -0.00278830 0.00167422
v -0.01003304 -0.00269134 0.00193444
v -0.01003304 -0.00266640 0.00198397
v -0.01003304 -0.00260506 0.00210208
v -0.01003304 -0.00250929 0.00223096
v -0.01003304 -0.00246536 0.00228325
v -0.01003304 -0.00238027 0.00238076
v -0.01003304 -0.00223067 0.00250964
v -0.01003304 -0.00218714 0.00254286
v -0.01003304 -0.00210166 0.00260438
v -0.01003304 -0.00193504 0.00269081
v -0.01003304 -0.00184719 0.00272526
v -0.01003304 -0.00167385 0.00278832
v -0.01003304 -0.00158282 0.00280739
v -0.01003304 -0.00141898 0.00282862
v -0.01257215 -0.00025704 0.00191568
v -0.01253540 -0.00191407 -0.00029375
v -0.01289129 -0.00025704 0.00245058
v -0.01284541 -0.00038724 0.00265513
v -0.01281264 -0.00064527 0.00275787
v -0.01283344 -0.00081624 0.00259977
v -0.01278443 -0.00075688 0.00284861
v -0.01288872 -0.00038724 0.00245058
v -0.01206382 -0.00430008 0.00284861
v -0.01238922 -0.00430008 -0.00029375
v -0.01270009 -0.00025704 0.00191845
v -0.01270009 -0.00191565 -0.00029375
v -0.01291779 -0.00025704 0.00232232
v -0.01293061 -0.00064527 0.00219251
v -0.01290981 -0.00090291 0.00219251
v -0.01282461 -0.00098840 0.00255824
v -0.01274939 -0.00141898 0.00270835
v -0.01272004 -0.00141898 0.00284861
v -0.01273429 -0.00127888 0.00284861
v -0.01276050 -0.00102085 0.00284861
v -0.01277247 -0.00090291 0.00284861
v -0.01294144 -0.00038724 0.00219251
v -0.01210058 -0.00427199 0.00271973
v -0.01221940 -0.00425616 0.00219251
v -0.01208576 -0.00430008 0.00274680
v -0.01211739 -0.00412912 0.00284861
v -0.01238922 -0.00430008 0.00038695
v -0.01240347 -0.00425616 -0.00029375
v -0.01279811 -0.00025704 0.00195044
v -0.01277190 -0.00194059 -0.00029375
v -0.01289670 -0.00025704 0.00199227
v -0.01294144 -0.00025704 0.00219251
v -0.01293374 -0.00116095 0.00193444
v -0.01284285 -0.00167701 0.00212977
v -0.01288331 -0.00116095 0.00219251
v -0.01284285 -0.00116095 0.00238691
v -0.01280552 -0.00142017 0.00243828
v -0.01269354 -0.00167701 0.00284861
v -0.01294400 -0.00219268 0.00012919
v -0.01293830 -0.00167701 0.00141861
v -0.01233166 -0.00392807 0.00214853
v -0.01227268 -0.00423597 0.00192214
v -0.01221199 -0.00430008 0.00214884
v -0.01220344 -0.00430008 0.00219590
v -0.01230459 -0.00409983 0.00199996
v -0.01231770 -0.00348760 0.00284861
v -0.01238352 -0.00430008 0.00064502
v -0.01240347 -0.00425616 0.00038695
v -0.01248411 -0.00399812 -0.00029375
v -0.01289870 -0.00199045 -0.00029375
v -0.01292007 -0.00025704 0.00208916
v -0.01294286 -0.00219268 -0.00029375
v -0.01294400 -0.00219268 -0.00012888
v -0.01290725 -0.00141898 0.00193444
v -0.01291779 -0.00167701 0.00167668
v -0.01283373 -0.00183848 0.00208609
v -0.01285368 -0.00142017 0.00220605
v -0.01267844 -0.00179495 0.00284861
v -0.01289043 -0.00245032 0.00012919
v -0.01288901 -0.00245032 0.00038695
v -0.01294201 -0.00219268 0.00038695
v -0.01293089 -0.00193504 0.00116085
v -0.01233537 -0.00343100 0.00284861
v -0.01246131 -0.00348206 0.00219251
v -0.01250633 -0.00348206 0.00193444
v -0.01231628 -0.00413664 0.00182802
v -0.01228436 -0.00429256 0.00167668
v -0.01225017 -0.00430008 0.00192491
v -0.01236443 -0.00430008 0.00090309
v -0.01239777 -0.00425616 0.00064502
v -0.01248411 -0.00399812 0.00038695
v -0.01258811 -0.00366529 -0.00029375
v -0.01288958 -0.00245032 -0.00029375
v -0.01289043 -0.00245032 -0.00012888
v -0.01287904 -0.00167701 0.00193444
v -0.01290582 -0.00193504 0.00141861
v -0.01287676 -0.00193504 0.00167668
v -0.01284513 -0.00192871 0.00192491
v -0.01282119 -0.00201063 0.00200427
v -0.01280096 -0.00192871 0.00218021
v -0.01268955 -0.00193504 0.00270835
v -0.01266020 -0.00193504 0.00284861
v -0.01284570 -0.00265493 0.00012919
v -0.01281749 -0.00278315 0.00038695
v -0.01284541 -0.00265413 0.00038695
v -0.01276990 -0.00296639 0.00064502
v -0.01281321 -0.00276178 0.00064502
v -0.01284028 -0.00263276 0.00064502
v -0.01287818 -0.00245032 0.00064502
v -0.01293146 -0.00219268 0.00064502
v -0.01290867 -0.00219268 0.00090309
v -0.01239150 -0.00323471 0.00284861
v -0.01253711 -0.00321729 0.00218882
v -0.01255905 -0.00330515 0.00193444
v -0.01256873 -0.00334394 0.00178280
v -0.01256959 -0.00360593 0.00101628
v -0.01233508 -0.00430008 0.00118054
v -0.01228664 -0.00430008 0.00163270
v -0.01228265 -0.00430008 0.00166776
v -0.01253996 -0.00346939 0.00168868
v -0.01257785 -0.00337481 0.00161086
v -0.01237839 -0.00425616 0.00090309
v -0.01257871 -0.00363521 0.00084434
v -0.01263969 -0.00348206 0.00064502
v -0.01258811 -0.00366529 0.00038695
v -0.01264510 -0.00348206 -0.00029375
v -0.01286165 -0.00258052 -0.00029375
v -0.01281749 -0.00278355 -0.00029375
v -0.01284570 -0.00265493 -0.00012888
v -0.01288160 -0.00219268 0.00116085
v -0.01284114 -0.00212263 0.00167668
v -0.01283259 -0.00208068 0.00183232
v -0.01280068 -0.00217725 0.00192491
v -0.01257899 -0.00312667 0.00210054
v -0.01275224 -0.00219268 0.00219251
v -0.01274340 -0.00193504 0.00245058
v -0.01263911 -0.00205298 0.00284861
v -0.01281749 -0.00278394 0.00012919
v -0.01277731 -0.00296639 0.00038695
v -0.01271121 -0.00322442 0.00064502
v -0.01269154 -0.00322442 0.00090309
v -0.01274910 -0.00296639 0.00090309
v -0.01283344 -0.00260110 0.00081666
v -0.01285310 -0.00246298 0.00090278
v -0.01277560 -0.00270835 0.00116085
v -0.01242427 -0.00322442 0.00270835
v -0.01242769 -0.00308432 0.00284861
v -0.01259124 -0.00317614 0.00193444
v -0.01260350 -0.00324421 0.00168868
v -0.01261148 -0.00350461 0.00091939
v -0.01260207 -0.00345198 0.00116085
v -0.01271719 -0.00322442 0.00038695
v -0.01264510 -0.00348206 0.00038695
v -0.01267131 -0.00338905 -0.00029375
v -0.01281749 -0.00278394 -0.00012888
v -0.01279184 -0.00290029 -0.00029375
v -0.01285225 -0.00220376 0.00141615
v -0.01274853 -0.00270835 0.00141861
v -0.01272118 -0.00270835 0.00167668
v -0.01266818 -0.00296639 0.00167668
v -0.01263769 -0.00296639 0.00193444
v -0.01269069 -0.00270835 0.00193444
v -0.01274340 -0.00245032 0.00193444
v -0.01245533 -0.00296639 0.00284861
v -0.01256076 -0.00304475 0.00227249
v -0.01259552 -0.00296164 0.00218882
v -0.01257928 -0.00236207 0.00284861
v -0.01269781 -0.00219268 0.00245058
v -0.01261490 -0.00218754 0.00284861
v -0.01254053 -0.00270242 0.00270189
v -0.01255990 -0.00252393 0.00278340
v -0.01277731 -0.00296639 -0.00029375
v -0.01263684 -0.00322442 0.00141861
v -0.01272232 -0.00296639 0.00116085
v -0.01271719 -0.00322442 -0.00029375
v -0.01248496 -0.00296639 0.00270835
v -0.01248411 -0.00282629 0.00284861
v -0.01256275 -0.00244280 0.00284861
v -0.01250890 -0.00270558 0.00284861
f 1 2 5
f 1 5 11
f 1 11 41
f 1 41 51
f 1 51 69
f 1 69 71
f 1 71 91
f 1 91 72
f 1 72 53
f 1 53 43
f 1 43 14
f 1 14 7
f 1 7 3
f 1 3 8
f 1 8 16
f 1 16 47
f 1 47 61
f 1 61 60
f 1 60 59
f 1 59 58
f 1 58 78
f 1 78 98
f 1 98 122
f 1 122 157
f 1 157 189
f 1 189 187
f 1 187 198
f 1 198 199
f 1 199 197
f 1 197 184
f 1 184 167
f 1 167 132
f 1 132 103
f 1 103 86
f 1 86 66
f 1 66 49
f 1 49 18
f 1 18 10
f 1 10 4
f 1 4 9
f 1 9 17
f 1 17 40
f 1 40 39
f 1 39 38
f 1 38 37
f 1 37 36
f 1 36 35
f 1 35 34
f 1 34 33
f 1 33 32
f 1 32 31
f 1 31 30
f 1 30 29
f 1 29 28
f 1 28 27
f 1 27 26
f 1 26 25
f 1 25 24
f 1 24 23
f 1 23 22
f 1 22 21
f 1 21 13
f 1 13 6
f 1 6 2
f 2 6 12
f 2 12 5
f 3 7 8
f 4 10 9
f 5 12 11
f 6 13 20
f 6 20 50
f 6 50 68
f 6 68 89
f 6 89 112
f 6 112 146
f 6 146 174
f 6 174 195
f 6 195 192
f 6 192 176
f 6 176 148
f 6 148 147
f 6 147 113
f 6 113 92
f 6 92 90
f 6 90 70
f 6 70 52
f 6 52 42
f 6 42 12
f 7 14 8
f 8 14 15
f 8 15 16
f 9 10 17
f 10 18 19
f 10 19 20
f 10 20 13
f 10 13 21
f 10 21 22
f 10 22 23
f 10 23 24
f 10 24 25
f 10 25 26
f 10 26 27
f 10 27 28
f 10 28 29
f 10 29 30
f 10 30 31
f 10 31 32
f 10 32 33
f 10 33 34
f 10 34 35
f 10 35 36
f 10 36 37
f 10 37 38
f 10 38 39
f 10 39 40
f 10 40 17
f 11 12 42
f 11 42 41
f 14 43 15
f 15 44 16
f 15 43 44
f 16 45 46
f 16 46 47
f 16 44 48
f 16 48 45
f 18 49 65
f 18 65 84
f 18 84 83
f 18 83 108
f 18 108 139
f 18 139 138
f 18 138 137
f 18 137 109
f 18 109 87
f 18 87 67
f 18 67 50
f 18 50 20
f 18 20 19
f 41 42 52
f 41 52 51
f 43 53 48
f 43 48 44
f 45 54 46
f 45 48 54
f 46 54 55
f 46 55 56
f 46 56 57
f 46 57 58
f 46 58 59
f 46 59 60
f 46 60 61
f 46 61 47
f 48 62 54
f 48 53 62
f 49 63 64
f 49 64 65
f 49 66 63
f 50 67 88
f 50 88 68
f 51 52 69
f 52 70 71
f 52 71 69
f 53 72 62
f 54 62 73
f 54 73 55
f 55 73 74
f 55 74 75
f 55 75 76
f 55 76 57
f 55 57 56
f 57 76 77
f 57 77 78
f 57 78 58
f 62 72 79
f 62 79 80
f 62 80 73
f 63 66 81
f 63 81 64
f 64 82 83
f 64 83 84
f 64 84 65
f 64 81 85
f 64 85 82
f 66 86 81
f 67 87 110
f 67 110 88
f 68 88 111
f 68 111 89
f 70 90 71
f 71 90 91
f 72 91 90
f 72 90 92
f 72 92 93
f 72 93 79
f 73 94 74
f 73 80 95
f 73 95 94
f 74 96 78
f 74 78 77
f 74 77 97
f 74 97 75
f 74 94 96
f 75 97 77
f 75 77 76
f 78 96 98
f 79 93 114
f 79 114 99
f 79 99 100
f 79 100 101
f 79 101 80
f 80 101 102
f 80 102 95
f 81 86 103
f 81 103 104
f 81 104 105
f 81 105 85
f 82 106 107
f 82 107 108
f 82 108 83
f 82 85 105
f 82 105 106
f 87 109 110
f 88 110 144
f 88 144 111
f 89 111 145
f 89 145 112
f 92 113 93
f 93 113 114
f 94 95 115
f 94 115 96
f 95 102 116
f 95 116 117
f 95 117 118
f 95 118 96
f 95 96 115
f 96 118 119
f 96 119 120
f 96 120 121
f 96 121 122
f 96 122 98
f 99 114 149
f 99 149 123
f 99 123 124
f 99 124 125
f 99 125 100
f 100 125 126
f 100 126 127
f 100 127 128
f 100 128 129
f 100 129 130
f 100 130 101
f 101 130 102
f 102 130 131
f 102 131 116
f 103 132 104
f 104 132 133
f 104 133 134
f 104 134 105
f 105 134 135
f 105 135 106
f 106 135 107
f 107 136 137
f 107 137 138
f 107 138 139
f 107 139 108
f 107 135 140
f 107 140 141
f 107 141 136
f 109 137 142
f 109 142 110
f 110 142 143
f 110 143 144
f 111 144 145
f 112 145 173
f 112 173 146
f 113 147 114
f 114 147 148
f 114 148 149
f 116 131 150
f 116 150 151
f 116 151 152
f 116 152 117
f 117 152 118
f 118 152 119
f 119 152 153
f 119 153 154
f 119 154 155
f 119 155 120
f 120 155 156
f 120 156 121
f 121 156 155
f 121 155 122
f 122 155 157
f 123 149 175
f 123 175 158
f 123 158 124
f 124 158 159
f 124 159 126
f 124 126 125
f 126 159 160
f 126 160 161
f 126 161 162
f 126 162 163
f 126 163 127
f 127 163 128
f 128 163 129
f 129 163 130
f 130 163 131
f 131 163 164
f 131 164 165
f 131 165 178
f 131 178 150
f 132 166 133
f 132 167 166
f 133 166 154
f 133 154 134
f 134 154 168
f 134 168 135
f 135 141 140
f 135 168 169
f 135 169 161
f 135 161 141
f 136 170 143
f 136 143 142
f 136 142 137
f 136 141 171
f 136 171 170
f 141 161 171
f 143 170 144
f 144 161 160
f 144 160 172
f 144 172 173
f 144 173 145
f 144 170 161
f 146 173 174
f 148 175 149
f 148 176 175
f 150 177 151
f 150 178 179
f 150 179 177
f 151 177 179
f 151 179 152
f 152 179 180
f 152 180 181
f 152 181 182
f 152 182 153
f 153 182 183
f 153 183 154
f 154 182 181
f 154 181 168
f 154 166 167
f 154 167 184
f 154 184 185
f 154 185 186
f 154 186 155
f 154 183 182
f 155 187 188
f 155 188 189
f 155 189 157
f 155 186 190
f 155 190 191
f 155 191 187
f 158 175 192
f 158 192 159
f 159 192 195
f 159 195 172
f 159 172 160
f 161 170 171
f 161 169 193
f 161 193 180
f 161 180 194
f 161 194 162
f 162 194 164
f 162 164 163
f 164 194 165
f 165 194 180
f 165 180 178
f 168 181 180
f 168 180 169
f 169 180 193
f 172 195 174
f 172 174 173
f 175 176 192
f 178 180 179
f 184 196 185
f 184 197 196
f 185 196 186
f 186 196 190
f 187 189 188
f 187 191 198
f 190 199 191
f 190 196 199
f 191 199 198
f 196 197 199

