# https://github.com/mikedh/trimesh
v -0.01195538 0.00458580 0.00284861
v -0.01192855 0.00458580 0.00296688
v -0.01184571 0.00478438 0.00296627
v -0.01187411 0.00477902 0.00284861
v -0.01029848 0.00458580 0.00284861
v -0.00810980 0.00458527 0.00697287
v -0.00810980 0.00458527 0.00911477
v -0.01186938 0.00458580 0.00322500
v -0.01182125 0.00470066 0.00322500
v -0.01178653 0.00487777 0.00305128
v -0.01174629 0.00501785 0.00296627
v -0.01175734 0.00505381 0.00284861
v -0.00638190 0.00903026 0.00284861
v -0.00389498 0.00897444 0.00586773
v -0.00389498 0.00895673 0.00588805
v -0.00389498 0.00857406 0.00634206
v -0.00389498 0.00682010 0.00862011
v -0.00398650 0.00666714 0.00872175
v -0.00630615 0.00458527 0.00869095
v -0.00643476 0.00458527 0.00856343
v -0.00824709 0.00458580 0.00907966
v -0.00828417 0.00458580 0.00906919
v -0.00838832 0.00458580 0.00899403
v -0.00840015 0.00458580 0.00898356
v -0.00891300 0.00458580 0.00846487
v -0.00914655 0.00458580 0.00822401
v -0.00916706 0.00458580 0.00820183
v -0.00927200 0.00458580 0.00808602
v -0.00936668 0.00458580 0.00797575
v -0.00951501 0.00458580 0.00778971
v -0.00970121 0.00458580 0.00754946
v -0.00995921 0.00458580 0.00721065
v -0.01005863 0.00458580 0.00707574
v -0.01015962 0.00458580 0.00693159
v -0.01019433 0.00458580 0.00687738
v -0.01027402 0.00458580 0.00674740
v -0.01065669 0.00458580 0.00611845
v -0.01076715 0.00458580 0.00593610
v -0.01079871 0.00458580 0.00587820
v -0.01083895 0.00458580 0.00580243
v -0.01096203 0.00458580 0.00555664
v -0.01125711 0.00458580 0.00492706
v -0.01133680 0.00458580 0.00475642
v -0.01140939 0.00458580 0.00458517
v -0.01143858 0.00458580 0.00451248
v -0.01151196 0.00458580 0.00430796
v -0.01153642 0.00458580 0.00423712
v -0.01177391 0.00458580 0.00354471
v -0.01181651 0.00458580 0.00341720
v -0.01185044 0.00458580 0.00329769
v -0.00806246 0.00458527 0.00912586
v -0.00810980 0.00458580 0.00911477
v -0.01180231 0.00465718 0.00337099
v -0.01152064 0.00537476 0.00327859
v -0.01157508 0.00528835 0.00320528
v -0.01154115 0.00542306 0.00310611
v -0.01163031 0.00528835 0.00296750
v -0.01169422 0.00520087 0.00284861
v -0.00632588 0.00912096 0.00284861
v -0.00389498 0.00913438 0.00573343
v -0.00389498 0.00911774 0.00574575
v -0.00389498 0.00667466 0.00889855
v -0.00623199 0.00458527 0.00889855
v -0.00810980 0.00476721 0.00909013
v -0.00823210 0.00472696 0.00906056
v -0.00818397 0.00489924 0.00902668
v -0.00848931 0.00472588 0.00881539
v -0.00900295 0.00472159 0.00829793
v -0.00866131 0.00503073 0.00847103
v -0.00895561 0.00489387 0.00824926
v -0.00925385 0.00470978 0.00803735
v -0.00949370 0.00467919 0.00776199
v -0.00973198 0.00464001 0.00747800
v -0.00999630 0.00491105 0.00697102
v -0.01002628 0.00477258 0.00701229
v -0.01022037 0.00483537 0.00665993
v -0.01049731 0.00487884 0.00617389
v -0.01075847 0.00462767 0.00592132
v -0.01076715 0.00490621 0.00567984
v -0.01105118 0.00503073 0.00496156
v -0.01113955 0.00503073 0.00477244
v -0.01130840 0.00470978 0.00470406
v -0.01127210 0.00488153 0.00462090
v -0.01134785 0.00478653 0.00452727
v -0.01126737 0.00512734 0.00434554
v -0.01133601 0.00503771 0.00425868
v -0.01149223 0.00528835 0.00348927
v -0.01155693 0.00520248 0.00340734
v -0.00798514 0.00458527 0.00913818
v -0.00779894 0.00503073 0.00913017
v -0.01136047 0.00556744 0.00350159
v -0.01130761 0.00572362 0.00342767
v -0.01146935 0.00552396 0.00320528
v -0.01155693 0.00545848 0.00296750
v -0.01149776 0.00558783 0.00296750
v -0.01151196 0.00561735 0.00284861
v -0.01153642 0.00556368 0.00284861
v -0.01161690 0.00538066 0.00284861
v -0.00629195 0.00918000 0.00284861
v -0.00389498 0.00941507 0.00563610
v -0.00389498 0.00669452 0.00897740
v -0.00626039 0.00458527 0.00899650
v -0.00808061 0.00479673 0.00909321
v -0.00780762 0.00529050 0.00908643
v -0.00801355 0.00503073 0.00907288
v -0.00795832 0.00520462 0.00905132
v -0.00814294 0.00503073 0.00898787
v -0.00868656 0.00539247 0.00823941
v -0.00873627 0.00522019 0.00828869
v -0.00853192 0.00503073 0.00860163
v -0.00891774 0.00503073 0.00820922
v -0.00935090 0.00478009 0.00787226
v -0.00898717 0.00520892 0.00802750
v -0.00920651 0.00488153 0.00798253
v -0.00975723 0.00494378 0.00725131
v -0.00970989 0.00511607 0.00719217
v -0.00944242 0.00561574 0.00718047
v -0.00955367 0.00553631 0.00709422
v -0.00950948 0.00573489 0.00700921
v -0.00972883 0.00541018 0.00695808
v -0.00969174 0.00554650 0.00689895
v -0.01000419 0.00518208 0.00672584
v -0.01051151 0.00516866 0.00594165
v -0.01054228 0.00503073 0.00599155
v -0.01066931 0.00500765 0.00578087
v -0.01073006 0.00507850 0.00560099
v -0.01079476 0.00500765 0.00552830
v -0.01102278 0.00516008 0.00490242
v -0.01104882 0.00526312 0.00475026
v -0.01102594 0.00542253 0.00464985
v -0.01124054 0.00503771 0.00452727
v -0.01130366 0.00495559 0.00444903
v -0.01113561 0.00528835 0.00451494
v -0.01122950 0.00528513 0.00425868
v -0.01132260 0.00528513 0.00398825
v -0.01125948 0.00536886 0.00406648
v -0.01128946 0.00543487 0.00389461
v -0.00779894 0.00458527 0.00914188
v -0.00779894 0.00477258 0.00914188
v -0.00754094 0.00528835 0.00914003
v -0.00728293 0.00580466 0.00912340
v -0.01127605 0.00566673 0.00359954
v -0.01104014 0.00622329 0.00340303
v -0.01125948 0.00589536 0.00327243
v -0.01132655 0.00580734 0.00320159
v -0.01109458 0.00555992 0.00426422
v -0.01101174 0.00565546 0.00435416
v -0.01096440 0.00580037 0.00426422
v -0.01075926 0.00643904 0.00385395
v -0.01096045 0.00631399 0.00348619
v -0.01156640 0.00549766 0.00284861
v -0.01146541 0.00570752 0.00284861
v -0.00623120 0.00941507 0.00284861
v -0.00389498 0.00967323 0.00563795
v -0.00623041 0.00967323 0.00284861
v -0.00389498 0.00681903 0.00909321
v -0.00398177 0.00666768 0.00906241
v -0.00630458 0.00458527 0.00907288
v -0.00756461 0.00557066 0.00909506
v -0.00748807 0.00580466 0.00906672
v -0.00772714 0.00550035 0.00906426
v -0.00766718 0.00567317 0.00902545
v -0.00789914 0.00537637 0.00900081
v -0.00810980 0.00513539 0.00895399
v -0.00810980 0.00526795 0.00887206
v -0.00822026 0.00521106 0.00880368
v -0.00850588 0.00554650 0.00831333
v -0.00845538 0.00569195 0.00826528
v -0.00863449 0.00554650 0.00818643
v -0.00871181 0.00568980 0.00800717
v -0.00875836 0.00554650 0.00805768
v -0.00893983 0.00538120 0.00797082
v -0.00883726 0.00530123 0.00813345
v -0.00926884 0.00503073 0.00780203
v -0.00949055 0.00544346 0.00724022
v -0.00920099 0.00564687 0.00746076
v -0.00945899 0.00590717 0.00694083
v -0.00959864 0.00579446 0.00682625
v -0.00968859 0.00585350 0.00663714
v -0.00973672 0.00568175 0.00671167
v -0.00995685 0.00535436 0.00665130
v -0.01024483 0.00566834 0.00592625
v -0.01046496 0.00534041 0.00585787
v -0.01051230 0.00542736 0.00568600
v -0.01054386 0.00526795 0.00578456
v -0.01002549 0.00599573 0.00598723
v -0.01067247 0.00526956 0.00552830
v -0.01077030 0.00517081 0.00542974
v -0.01046496 0.00559910 0.00558990
v -0.01080660 0.00575045 0.00472747
v -0.01053913 0.00625012 0.00470961
v -0.01075926 0.00592220 0.00462829
v -0.01098096 0.00559964 0.00451494
v -0.01105118 0.00547029 0.00451494
v -0.00669592 0.00458527 0.00914188
v -0.00728293 0.00554650 0.00914188
v -0.00676693 0.00632097 0.00913387
v -0.00702493 0.00606228 0.00912956
v -0.00727583 0.00604940 0.00907227
v -0.00702493 0.00631668 0.00908089
v -0.01099438 0.00639825 0.00322500
v -0.01081843 0.00657966 0.00346956
v -0.01077267 0.00671920 0.00337531
v -0.01128236 0.00593562 0.00310056
v -0.01138572 0.00580466 0.00296750
v -0.01079239 0.00598285 0.00445642
v -0.01074426 0.00615459 0.00432891
v -0.01068982 0.00630594 0.00424882
v -0.01052492 0.00647822 0.00443363
v -0.01141886 0.00579500 0.00284861
v -0.00389498 0.00978647 0.00566136
v -0.00624856 0.00978540 0.00284861
v -0.00389498 0.00683138 0.00909629
v -0.00643318 0.00458527 0.00911354
v -0.00743048 0.00595547 0.00904147
v -0.00780762 0.00557066 0.00896015
v -0.00761747 0.00580466 0.00898171
v -0.00769795 0.00596835 0.00879629
v -0.00816345 0.00615996 0.00823325
v -0.00813347 0.00585779 0.00846241
v -0.00816188 0.00538281 0.00874762
v -0.00810980 0.00533773 0.00882647
v -0.00839542 0.00586370 0.00820676
v -0.00847984 0.00598607 0.00803489
v -0.00842067 0.00615835 0.00796897
v -0.00877177 0.00578748 0.00785809
v -0.00895719 0.00567156 0.00773489
v -0.00890038 0.00556958 0.00787842
v -0.00921598 0.00593132 0.00721989
v -0.00927042 0.00575904 0.00728827
v -0.00941007 0.00607355 0.00684720
v -0.00951659 0.00599519 0.00676896
v -0.00997736 0.00616801 0.00591085
v -0.00974461 0.00595118 0.00646465
v -0.00927752 0.00606228 0.00703693
v -0.00922860 0.00620665 0.00697780
v -0.00977695 0.00578212 0.00656198
v -0.01021327 0.00582666 0.00582645
v -0.01024483 0.00592649 0.00566814
v -0.01021090 0.00607838 0.00556834
v -0.01008151 0.00607409 0.00581660
v -0.01024010 0.00617552 0.00539955
v -0.01045628 0.00633009 0.00478661
v -0.01049100 0.00642187 0.00460550
v -0.01057700 0.00633009 0.00451741
v -0.00650893 0.00458527 0.00912709
v -0.00389498 0.00709436 0.00914126
v -0.00393048 0.00709436 0.00914188
v -0.00547850 0.00735144 0.00914188
v -0.00650893 0.00657859 0.00913387
v -0.00676930 0.00658073 0.00908459
v -0.00718510 0.00622812 0.00905009
v -0.00693972 0.00649647 0.00905625
v -0.01101489 0.00643529 0.00306237
v -0.01089339 0.00657859 0.00322500
v -0.01047522 0.00665909 0.00425683
v -0.01050204 0.00669988 0.00411515
v -0.01053518 0.00674765 0.00394328
v -0.01053439 0.00700473 0.00348311
v -0.01025035 0.00748240 0.00335806
v -0.01070560 0.00687914 0.00322500
v -0.01079318 0.00675033 0.00322500
v -0.01112377 0.00632956 0.00284861
v -0.01129814 0.00596352 0.00296750
v -0.01043103 0.00657000 0.00451741
v -0.00389498 0.00993085 0.00570386
v -0.00628643 0.00992602 0.00284861
v -0.00752831 0.00604779 0.00888808
v -0.00711172 0.00640040 0.00899095
v -0.00735710 0.00612722 0.00897986
v -0.00772477 0.00625549 0.00856035
v -0.00789677 0.00615137 0.00848458
v -0.00810980 0.00619431 0.00825789
v -0.00810980 0.00630004 0.00817842
v -0.00818397 0.00644763 0.00799485
v -0.00824867 0.00627535 0.00806138
v -0.00832204 0.00607301 0.00813407
v -0.00843408 0.00643582 0.00772749
v -0.00873942 0.00624583 0.00752421
v -0.00857294 0.00606281 0.00786795
v -0.00875284 0.00652331 0.00728273
v -0.00892484 0.00639879 0.00718108
v -0.00927121 0.00630380 0.00681763
v -0.00926963 0.00656088 0.00655890
v -0.00945820 0.00616694 0.00668149
v -0.00974618 0.00646749 0.00595212
v -0.00974697 0.00621148 0.00621085
v -0.01002628 0.00624529 0.00573836
v -0.00979273 0.00630648 0.00604637
v -0.00968701 0.00663977 0.00585541
v -0.00992529 0.00632687 0.00581660
v -0.00884436 0.00659898 0.00711086
v -0.00899585 0.00650238 0.00700983
v -0.00893667 0.00667412 0.00693098
v -0.01023063 0.00642026 0.00512542
v -0.01027560 0.00648842 0.00495355
v -0.01031505 0.00657590 0.00476135
v -0.01026140 0.00672618 0.00466833
v -0.00389498 0.00712871 0.00914188
v -0.00470449 0.00786722 0.00914188
v -0.00522049 0.00760906 0.00913941
v -0.00625092 0.00683674 0.00913264
v -0.00650893 0.00683674 0.00908274
v -0.00668487 0.00675194 0.00905563
v -0.00685687 0.00666822 0.00899650
v -0.01096361 0.00656571 0.00297304
v -0.01029454 0.00677288 0.00451494
v -0.01023773 0.00694891 0.00435601
v -0.01033951 0.00685231 0.00426484
v -0.00997973 0.00746361 0.00409790
v -0.01026850 0.00750870 0.00322500
v -0.01001286 0.00751031 0.00392603
v -0.00998525 0.00772928 0.00359584
v -0.01001839 0.00777383 0.00342459
v -0.01004995 0.00781623 0.00322500
v -0.01017855 0.00763751 0.00322500
v -0.01073874 0.00692798 0.00296750
v -0.01050520 0.00722049 0.00308947
v -0.01082474 0.00679864 0.00296750
v -0.01089812 0.00672618 0.00284861
v -0.01097307 0.00660059 0.00284861
v -0.01104014 0.00648037 0.00284861
v -0.00389498 0.00995876 0.00571988
v -0.00632982 0.01002584 0.00284861
v -0.00703756 0.00659147 0.00890717
v -0.00713460 0.00668647 0.00875440
v -0.00752594 0.00681474 0.00831456
v -0.00767585 0.00671384 0.00825912
v -0.00792123 0.00644173 0.00824803
v -0.00799066 0.00626945 0.00831271
v -0.00810980 0.00637947 0.00811743
v -0.00812874 0.00657859 0.00793386
v -0.00844118 0.00670471 0.00747739
v -0.00869208 0.00669505 0.00721188
v -0.00769400 0.00699346 0.00801949
v -0.00926726 0.00681796 0.00630017
v -0.00951501 0.00676375 0.00599093
v -0.00945504 0.00693603 0.00589976
v -0.00996947 0.00641704 0.00563302
v -0.00950633 0.00700956 0.00572851
v -0.00973750 0.00671330 0.00568292
v -0.00876467 0.00678737 0.00704001
v -0.00869603 0.00695965 0.00695747
v -0.00884830 0.00685821 0.00685829
v -0.00893194 0.00692906 0.00666855
v -0.00899585 0.00675731 0.00675911
v -0.01003101 0.00702191 0.00471885
v -0.00973908 0.00748830 0.00465540
v -0.00997105 0.00719365 0.00459503
v -0.00389498 0.00816026 0.00914188
v -0.00418849 0.00812483 0.00914188
v -0.00444649 0.00812483 0.00913387
v -0.00574202 0.00734554 0.00911970
v -0.00599450 0.00709436 0.00912956
v -0.00496249 0.00786722 0.00912586
v -0.00642293 0.00700634 0.00905379
v -0.00624777 0.00709329 0.00907904
v -0.00659493 0.00692423 0.00899342
v -0.00715433 0.00696555 0.00851230
v -0.01000655 0.00724464 0.00442316
v -0.00994896 0.00741960 0.00425683
v -0.01021248 0.00768635 0.00296750
v -0.00976906 0.00752748 0.00451494
v -0.00980930 0.00761658 0.00424759
v -0.00974461 0.00775182 0.00415457
v -0.00981562 0.00787634 0.00373321
v -0.00991897 0.00786292 0.00349913
v -0.00977617 0.00804916 0.00348311
v -0.00995053 0.00794558 0.00322500
v -0.01007125 0.00788278 0.00296319
v -0.00997815 0.00797885 0.00304574
v -0.01072612 0.00699024 0.00284861
v -0.01075373 0.00694945 0.00284861
v -0.01030243 0.00755700 0.00296750
v -0.01052729 0.00725162 0.00291760
v -0.01077425 0.00691832 0.00284861
v -0.01083500 0.00682601 0.00284861
v -0.00403700 0.01006771 0.00566074
v -0.00389498 0.01006610 0.00583877
v -0.00636533 0.01006771 0.00284861
v -0.00742969 0.00698487 0.00826959
v -0.00760248 0.00688612 0.00819136
v -0.00810980 0.00729294 0.00729197
v -0.00820212 0.00724142 0.00723960
v -0.00778237 0.00707450 0.00784947
v -0.00850351 0.00683621 0.00728765
v -0.00864316 0.00685875 0.00711332
v -0.00752358 0.00707450 0.00810881
v -0.00744389 0.00725537 0.00802565
v -0.00761589 0.00716521 0.00794187
v -0.00769952 0.00725537 0.00777000
v -0.00940455 0.00684479 0.00607040
v -0.00922466 0.00697521 0.00620099
v -0.00939508 0.00709490 0.00581044
v -0.00921992 0.00722532 0.00593672
v -0.00968464 0.00689417 0.00554678
v -0.00944558 0.00718077 0.00562009
v -0.00954893 0.00709490 0.00553939
v -0.00845144 0.00723176 0.00697348
v -0.00825419 0.00759779 0.00681763
v -0.00875994 0.00703318 0.00678560
v -0.00978879 0.00734339 0.00475396
v -0.00970910 0.00770728 0.00432644
v -0.00990477 0.00733856 0.00451125
v -0.00949134 0.00724464 0.00544822
v -0.00947240 0.00747650 0.00515437
v -0.00952053 0.00753553 0.00498250
v -0.00945031 0.00770728 0.00485560
v -0.00949765 0.00776471 0.00468373
v -0.00953868 0.00781462 0.00451494
v -0.00966728 0.00765629 0.00451494
v -0.00389498 0.00838299 0.00913387
v -0.00393048 0.00838299 0.00913325
v -0.00444649 0.00834113 0.00907781
v -0.00472027 0.00814416 0.00909075
v -0.00597793 0.00734339 0.00906980
v -0.00549901 0.00762999 0.00909444
v -0.00521655 0.00787419 0.00908274
v -0.00633061 0.00717755 0.00898972
v -0.00615861 0.00725376 0.00905009
v -0.00651761 0.00710241 0.00890594
v -0.00717168 0.00723981 0.00826774
v -0.00734369 0.00715662 0.00819752
v -0.00679060 0.00737237 0.00846179
v -0.00690974 0.00749313 0.00826528
v -0.01017698 0.00777812 0.00284861
v -0.01022747 0.00770728 0.00284861
v -0.00950554 0.00803359 0.00419523
v -0.00967438 0.00792035 0.00399934
v -0.00971147 0.00796758 0.00381391
v -0.00974539 0.00801105 0.00364204
v -0.00946846 0.00824613 0.00385211
v -0.00966807 0.00817797 0.00348311
v -0.00970673 0.00822359 0.00327428
v -0.00980536 0.00813289 0.00320282
v -0.01011149 0.00786775 0.00284861
v -0.01000103 0.00800891 0.00287387
v -0.00973514 0.00825633 0.00310179
v -0.00989688 0.00810712 0.00296319
v -0.00610891 0.01006824 0.00331740
v -0.00413247 0.01006771 0.00572727
v -0.00394074 0.01006663 0.00582152
v -0.00389498 0.01006610 0.00588682
v -0.00642293 0.01006771 0.00284861
v -0.00812795 0.00741263 0.00716014
v -0.00828969 0.00732300 0.00706650
v -0.00723402 0.00734554 0.00812421
v -0.00700205 0.00758706 0.00810696
v -0.00718352 0.00750870 0.00802195
v -0.00735552 0.00742604 0.00794187
v -0.00744389 0.00751245 0.00777000
v -0.00752752 0.00734554 0.00785378
v -0.00778710 0.00759725 0.00733940
v -0.00795516 0.00751084 0.00725316
v -0.00926095 0.00727684 0.00580489
v -0.00872917 0.00777007 0.00597122
v -0.00865500 0.00794182 0.00586526
v -0.00877572 0.00786078 0.00578888
v -0.00915365 0.00740565 0.00580489
v -0.00920414 0.00746361 0.00565150
v -0.00934932 0.00735413 0.00554986
v -0.00820606 0.00750387 0.00698765
v -0.00841988 0.00796865 0.00615910
v -0.00812795 0.00767615 0.00689155
v -0.00819580 0.00774914 0.00671968
v -0.00925306 0.00752319 0.00547963
v -0.00927278 0.00780550 0.00503055
v -0.00916706 0.00793430 0.00503055
v -0.00925385 0.00804004 0.00471146
v -0.00943216 0.00794343 0.00451494
v -0.00920730 0.00798368 0.00488271
v -0.00946688 0.00798583 0.00436710
v -0.00389498 0.00841841 0.00912586
v -0.00393048 0.00858264 0.00907658
v -0.00464532 0.00829068 0.00905687
v -0.00496249 0.00806955 0.00906980
v -0.00413562 0.00854400 0.00905502
v -0.00542642 0.00779208 0.00906364
v -0.00634482 0.00745073 0.00874454
v -0.00664621 0.00774592 0.00826097
v -0.00644028 0.00727899 0.00881847
v -0.00625487 0.00734554 0.00890224
v -0.00588089 0.00749260 0.00903777
v -0.00605131 0.00742551 0.00897863
v -0.00674642 0.00759189 0.00831271
v -0.00711646 0.00734554 0.00822277
v -0.00681821 0.00766595 0.00818951
v -0.00954578 0.00808244 0.00399934
v -0.00939508 0.00812215 0.00427162
v -0.00943847 0.00821124 0.00399934
v -0.00953868 0.00831751 0.00348311
v -0.00925227 0.00828907 0.00425683
v -0.00930908 0.00834542 0.00399934
v -0.00921124 0.00850536 0.00385272
v -0.00935642 0.00839319 0.00376586
v -0.00959233 0.00837011 0.00318927
v -0.01002470 0.00798529 0.00284861
v -0.01000419 0.00801266 0.00284861
v -0.00990635 0.00813289 0.00284861
v -0.00975407 0.00827672 0.00296750
v -0.00982903 0.00822573 0.00284861
v -0.00947871 0.00851502 0.00310426
v -0.00950081 0.00853863 0.00296750
v -0.00590219 0.01006717 0.00392480
v -0.00389498 0.01006180 0.00594226
v -0.00511556 0.01006449 0.00492645
v -0.00485519 0.01006341 0.00517963
v -0.00459009 0.01006180 0.00543035
v -0.00641898 0.01006717 0.00296688
v -0.00676693 0.01000760 0.00284861
v -0.00692157 0.00776256 0.00801887
v -0.00709357 0.00793967 0.00768191
v -0.00718431 0.00802554 0.00751004
v -0.00735631 0.00794128 0.00742379
v -0.00770031 0.00776793 0.00725316
v -0.00787231 0.00768313 0.00716568
v -0.00752831 0.00785434 0.00733878
v -0.00795516 0.00776578 0.00699381
v -0.00804116 0.00759350 0.00707698
v -0.00848379 0.00803896 0.00598723
v -0.00871260 0.00800891 0.00569278
v -0.00895797 0.00773680 0.00567306
v -0.00890038 0.00787741 0.00557142
v -0.00893746 0.00797026 0.00538107
v -0.00898796 0.00803091 0.00520858
v -0.00818397 0.00799388 0.00644617
v -0.00902346 0.00812054 0.00500715
v -0.00896113 0.00825579 0.00490427
v -0.00917968 0.00821178 0.00456546
v -0.00928778 0.00812537 0.00449338
v -0.00389498 0.00859123 0.00907658
v -0.00389498 0.00861324 0.00906241
v -0.00430762 0.00850590 0.00902360
v -0.00481732 0.00824291 0.00901867
v -0.00512739 0.00801964 0.00904639
v -0.00389498 0.00871789 0.00896816
v -0.00393048 0.00871092 0.00896138
v -0.00529939 0.00796490 0.00899896
v -0.00559842 0.00772982 0.00902175
v -0.00617281 0.00752104 0.00880676
v -0.00636770 0.00798636 0.00824495
v -0.00665410 0.00800944 0.00800901
v -0.00673616 0.00784038 0.00809957
v -0.00598661 0.00786185 0.00863551
v -0.00590613 0.00802876 0.00854249
v -0.00589509 0.00776202 0.00879136
v -0.00561342 0.00800086 0.00877473
v -0.00571441 0.00785541 0.00883325
v -0.00922071 0.00825794 0.00439359
v -0.00924438 0.00853810 0.00368024
v -0.00944715 0.00848443 0.00327674
v -0.00895166 0.00876351 0.00385026
v -0.00917889 0.00847423 0.00399934
v -0.00951737 0.00855581 0.00284861
v -0.00971383 0.00835186 0.00284861
v -0.00976985 0.00829336 0.00284861
v -0.00933354 0.00862773 0.00318804
v -0.00921913 0.00877156 0.00309994
v -0.00936983 0.00866744 0.00296750
v -0.00945820 0.00861485 0.00284861
v -0.00599450 0.01000599 0.00425745
v -0.00574202 0.01004785 0.00428024
v -0.00536094 0.01006180 0.00465786
v -0.00615861 0.01006663 0.00348249
v -0.00612705 0.01006073 0.00361863
v -0.00607340 0.01005053 0.00379050
v -0.00625092 0.00998988 0.00399934
v -0.00389498 0.01004785 0.00601434
v -0.00401648 0.01005429 0.00589914
v -0.00418849 0.01000169 0.00606177
v -0.00418849 0.00995231 0.00631989
v -0.00393048 0.00998452 0.00631989
v -0.00528756 0.01004946 0.00482973
v -0.00547850 0.00998559 0.00503055
v -0.00547850 0.00994373 0.00528867
v -0.00522049 0.00998666 0.00528867
v -0.00502719 0.01005000 0.00509832
v -0.00496249 0.00998398 0.00554616
v -0.00468792 0.01003014 0.00552830
v -0.00444649 0.01001404 0.00580428
v -0.00654759 0.01004194 0.00296688
v -0.00638663 0.01006073 0.00310919
v -0.00702493 0.00995178 0.00284861
v -0.00676693 0.00999686 0.00296688
v -0.00682610 0.00793430 0.00793509
v -0.00692236 0.00802018 0.00776199
v -0.00726715 0.00811195 0.00733570
v -0.00744152 0.00802501 0.00725131
v -0.00708805 0.00819836 0.00741887
v -0.00761352 0.00794075 0.00716322
v -0.00769558 0.00802125 0.00699135
v -0.00786758 0.00793752 0.00689279
v -0.00824788 0.00806365 0.00627368
v -0.00816582 0.00823540 0.00616403
v -0.00839936 0.00821071 0.00586649
v -0.00863370 0.00818656 0.00554678
v -0.00868498 0.00823754 0.00539154
v -0.00875757 0.00805775 0.00554678
v -0.00883884 0.00813396 0.00530037
v -0.00891221 0.00820319 0.00507676
v -0.00810980 0.00812000 0.00637779
v -0.00793938 0.00800783 0.00672092
v -0.00899664 0.00828907 0.00477244
v -0.00874021 0.00828960 0.00521967
v -0.00882779 0.00832610 0.00500715
v -0.00869839 0.00850912 0.00489565
v -0.00420979 0.00865134 0.00890656
v -0.00428395 0.00875707 0.00875502
v -0.00444649 0.00871843 0.00871128
v -0.00444649 0.00858962 0.00885543
v -0.00444649 0.00847101 0.00898479
v -0.00472500 0.00839426 0.00891087
v -0.00496249 0.00832503 0.00884680
v -0.00513607 0.00827833 0.00879567
v -0.00530728 0.00823003 0.00874516
v -0.00389498 0.00881987 0.00884249
v -0.00411195 0.00878713 0.00879198
v -0.00547850 0.00817421 0.00869526
v -0.00547850 0.00804540 0.00881600
v -0.00549901 0.00787419 0.00895830
v -0.00619570 0.00805345 0.00830778
v -0.00664937 0.00826169 0.00774721
v -0.00673695 0.00810015 0.00784146
v -0.00628248 0.00814952 0.00814885
v -0.00636849 0.00824667 0.00798684
v -0.00650893 0.00819407 0.00793263
v -0.00578542 0.00793377 0.00871436
v -0.00570415 0.00810068 0.00861826
v -0.00579488 0.00820158 0.00845933
v -0.00562209 0.00826438 0.00852278
v -0.00909132 0.00833415 0.00449338
v -0.00895876 0.00851126 0.00438435
v -0.00900058 0.00855152 0.00421186
v -0.00928067 0.00857406 0.00348311
v -0.00898243 0.00878874 0.00367777
v -0.00891379 0.00873024 0.00399934
v -0.00869366 0.00876298 0.00436956
v -0.00878518 0.00883167 0.00399934
v -0.00860766 0.00896048 0.00399934
v -0.00853902 0.00909842 0.00374061
v -0.00869839 0.00902543 0.00360200
v -0.00882148 0.00895995 0.00350282
v -0.00876704 0.00907695 0.00322500
v -0.00896350 0.00903187 0.00284861
v -0.00924122 0.00878928 0.00296750
v -0.00931697 0.00875117 0.00284861
v -0.00938719 0.00868462 0.00284861
v -0.00599450 0.00997056 0.00451433
v -0.00573650 0.01001726 0.00451433
v -0.00625092 0.00995607 0.00425745
v -0.00648762 0.01003067 0.00320713
v -0.00650893 0.00999740 0.00348249
v -0.00650893 0.00996949 0.00374122
v -0.00650893 0.00993621 0.00399934
v -0.00389498 0.00998827 0.00631989
v -0.00444649 0.00996627 0.00606177
v -0.00418849 0.00988952 0.00657738
v -0.00393048 0.00992870 0.00657738
v -0.00389498 0.00993353 0.00657738
v -0.00470449 0.00992655 0.00606177
v -0.00444649 0.00991099 0.00631989
v -0.00573650 0.00997861 0.00477244
v -0.00573650 0.00993836 0.00503055
v -0.00573650 0.00988898 0.00528867
v -0.00547850 0.00989006 0.00554616
v -0.00522049 0.00994158 0.00554616
v -0.00496249 0.00993729 0.00580428
v -0.00470449 0.00997754 0.00580428
v -0.00702493 0.00994104 0.00296688
v -0.00728293 0.00988040 0.00284861
v -0.00676693 0.00997056 0.00322500
v -0.00682137 0.00819139 0.00766959
v -0.00735000 0.00819783 0.00715952
v -0.00752358 0.00810927 0.00707574
v -0.00691605 0.00826921 0.00749772
v -0.00717800 0.00827350 0.00724515
v -0.00743284 0.00827243 0.00698765
v -0.00760484 0.00819407 0.00688724
v -0.00822736 0.00829175 0.00599278
v -0.00810980 0.00817851 0.00630387
v -0.00792123 0.00824881 0.00644063
v -0.00810980 0.00825955 0.00619791
v -0.00795832 0.00853971 0.00597491
v -0.00845617 0.00826491 0.00569462
v -0.00857926 0.00838889 0.00529852
v -0.00892563 0.00848067 0.00451494
v -0.00874337 0.00855098 0.00472378
v -0.00847353 0.00853863 0.00520489
v -0.00838516 0.00871950 0.00503055
v -0.00843329 0.00876190 0.00488271
v -0.00419401 0.00885958 0.00865830
v -0.00444649 0.00882201 0.00858253
v -0.00461612 0.00878767 0.00853510
v -0.00478812 0.00874741 0.00848458
v -0.00471001 0.00864544 0.00864413
v -0.00463190 0.00854293 0.00880307
v -0.00512424 0.00853058 0.00853202
v -0.00521576 0.00838138 0.00863859
v -0.00547850 0.00830517 0.00856651
v -0.00389498 0.00904528 0.00853571
v -0.00394547 0.00895834 0.00863243
v -0.00674799 0.00831429 0.00759382
v -0.00650893 0.00831053 0.00780388
v -0.00635034 0.00849355 0.00771579
v -0.00645370 0.00856493 0.00754392
v -0.00608129 0.00822466 0.00822401
v -0.00591087 0.00828316 0.00828746
v -0.00619648 0.00830248 0.00805214
v -0.00627381 0.00839802 0.00788396
v -0.00560395 0.00851073 0.00825111
v -0.00573650 0.00846833 0.00820368
v -0.00528204 0.00873507 0.00821169
v -0.00543273 0.00856332 0.00830840
v -0.00550848 0.00866047 0.00814639
v -0.00879702 0.00860089 0.00451494
v -0.00847590 0.00879572 0.00471084
v -0.00834887 0.00896048 0.00451494
v -0.00856900 0.00889715 0.00425067
v -0.00822026 0.00905280 0.00451494
v -0.00847826 0.00905280 0.00399934
v -0.00859661 0.00912633 0.00350282
v -0.00835124 0.00922723 0.00374061
v -0.00840804 0.00926480 0.00348311
v -0.00884041 0.00909681 0.00294840
v -0.00918363 0.00886280 0.00284861
v -0.00883647 0.00912472 0.00284861
v -0.00925858 0.00880377 0.00284861
v -0.00599450 0.00992977 0.00477244
v -0.00625092 0.00991689 0.00451433
v -0.00676693 0.00994319 0.00348249
v -0.00676693 0.00991045 0.00374122
v -0.00650893 0.00989435 0.00425745
v -0.00444333 0.00983853 0.00658354
v -0.00435654 0.00981062 0.00673139
v -0.00418849 0.00982780 0.00678067
v -0.00394469 0.00984873 0.00685398
v -0.00389498 0.00985839 0.00685028
v -0.00496249 0.00987771 0.00606177
v -0.00472106 0.00985088 0.00633898
v -0.00572703 0.00982995 0.00553754
v -0.00599450 0.00987825 0.00503055
v -0.00598345 0.00982619 0.00527142
v -0.00589035 0.00980955 0.00544575
v -0.00546587 0.00982780 0.00579380
v -0.00522049 0.00988630 0.00580428
v -0.00702493 0.00991099 0.00322500
v -0.00728293 0.00986752 0.00296688
v -0.00746125 0.00981975 0.00284861
v -0.00701152 0.00832342 0.00734002
v -0.00662491 0.00850267 0.00746876
v -0.00727189 0.00832664 0.00708129
v -0.00704939 0.00846833 0.00711578
v -0.00715117 0.00851073 0.00696055
v -0.00740128 0.00850321 0.00669381
v -0.00752752 0.00831536 0.00681517
v -0.00767743 0.00826062 0.00671475
v -0.00722928 0.00857406 0.00678868
v -0.00810980 0.00849355 0.00583385
v -0.00829443 0.00836421 0.00577286
v -0.00799303 0.00830839 0.00626937
v -0.00747308 0.00856332 0.00652194
v -0.00778631 0.00863148 0.00604699
v -0.00768374 0.00877961 0.00594966
v -0.00786758 0.00872165 0.00580428
v -0.00791965 0.00876405 0.00566382
v -0.00818870 0.00851448 0.00567984
v -0.00823210 0.00855420 0.00554678
v -0.00825577 0.00881933 0.00503055
v -0.00813347 0.00899322 0.00481803
v -0.00805063 0.00907856 0.00474903
v -0.00810980 0.00905709 0.00470406
v -0.00818712 0.00902865 0.00464554
v -0.00404094 0.00902167 0.00850306
v -0.00418849 0.00899752 0.00846857
v -0.00418849 0.00908929 0.00833920
v -0.00438100 0.00905333 0.00828992
v -0.00445911 0.00896156 0.00837801
v -0.00511003 0.00877854 0.00826528
v -0.00496249 0.00870233 0.00843530
v -0.00496249 0.00857298 0.00857883
v -0.00520314 0.00863202 0.00837308
v -0.00389498 0.00907588 0.00849259
v -0.00394547 0.00912311 0.00840450
v -0.00632746 0.00873668 0.00743427
v -0.00573650 0.00857996 0.00807431
v -0.00596846 0.00862558 0.00784762
v -0.00587300 0.00877478 0.00774413
v -0.00604421 0.00872058 0.00767760
v -0.00625329 0.00864276 0.00760983
v -0.00652392 0.00865242 0.00736527
v -0.00541222 0.00880162 0.00803982
v -0.00558343 0.00875600 0.00797883
v -0.00809244 0.00922776 0.00425745
v -0.00831573 0.00908500 0.00423281
v -0.00810980 0.00910754 0.00456977
v -0.00803169 0.00918697 0.00449215
v -0.00863054 0.00924064 0.00296750
v -0.00814531 0.00926211 0.00404862
v -0.00818870 0.00928787 0.00387675
v -0.00822184 0.00930559 0.00374061
v -0.00827865 0.00933618 0.00348311
v -0.00843645 0.00928143 0.00333403
v -0.00865263 0.00925514 0.00284861
v -0.00877335 0.00916980 0.00284861
v -0.00651918 0.00984175 0.00451679
v -0.00627538 0.00985410 0.00479647
v -0.00702493 0.00987342 0.00348249
v -0.00676693 0.00986859 0.00399934
v -0.00464610 0.00981868 0.00650161
v -0.00452854 0.00979184 0.00667348
v -0.00444333 0.00976071 0.00682502
v -0.00418849 0.00972046 0.00709361
v -0.00389498 0.00977359 0.00710778
v -0.00389498 0.00981170 0.00699504
v -0.00389498 0.00982726 0.00694823
v -0.00496249 0.00982243 0.00625397
v -0.00520235 0.00982512 0.00604822
v -0.00510451 0.00980526 0.00620099
v -0.00563472 0.00980955 0.00570140
v -0.00580672 0.00978594 0.00561762
v -0.00619333 0.00982351 0.00503055
v -0.00606078 0.00978379 0.00534534
v -0.00637716 0.00980150 0.00489873
v -0.00598345 0.00975749 0.00553754
v -0.00537198 0.00980740 0.00595459
v -0.00728688 0.00983209 0.00320282
v -0.00741470 0.00980311 0.00310241
v -0.00758985 0.00977252 0.00284861
v -0.00678902 0.00846081 0.00737020
v -0.00688922 0.00850697 0.00721620
v -0.00671722 0.00856869 0.00729628
v -0.00697917 0.00857298 0.00704433
v -0.00704939 0.00865993 0.00685829
v -0.00711882 0.00874634 0.00666794
v -0.00729792 0.00865510 0.00659401
v -0.00810980 0.00852575 0.00577964
v -0.00736578 0.00873507 0.00639442
v -0.00737288 0.00900449 0.00588682
v -0.00753462 0.00894760 0.00580304
v -0.00773897 0.00881718 0.00580428
v -0.00719378 0.00879679 0.00649607
v -0.00703598 0.00897927 0.00633713
v -0.00761668 0.00899483 0.00560037
v -0.00779815 0.00889930 0.00554616
v -0.00805063 0.00895512 0.00503610
v -0.00810980 0.00898249 0.00488024
v -0.00810980 0.00900127 0.00483651
v -0.00796147 0.00905065 0.00495294
v -0.00781156 0.00911345 0.00503610
v -0.00779657 0.00922776 0.00478415
v -0.00788178 0.00926050 0.00456299
v -0.00393048 0.00926104 0.00821169
v -0.00420584 0.00922937 0.00812236
v -0.00445911 0.00912203 0.00814269
v -0.00470449 0.00907802 0.00806877
v -0.00496091 0.00894492 0.00811374
v -0.00520550 0.00883490 0.00812421
v -0.00504534 0.00900932 0.00797021
v -0.00389498 0.00914189 0.00839834
v -0.00389498 0.00926587 0.00821969
v -0.00642214 0.00879518 0.00726178
v -0.00685766 0.00874366 0.00692790
v -0.00615546 0.00878874 0.00750573
v -0.00534989 0.00902865 0.00773858
v -0.00552189 0.00898732 0.00767513
v -0.00572861 0.00909520 0.00735234
v -0.00600318 0.00896317 0.00735234
v -0.00678744 0.00865671 0.00711209
v -0.00522049 0.00897283 0.00791107
v -0.00522049 0.00905924 0.00778355
v -0.00792991 0.00928734 0.00439112
v -0.00810980 0.00936409 0.00374061
v -0.00779894 0.00939092 0.00425745
v -0.00784549 0.00950095 0.00374122
v -0.00789441 0.00952671 0.00354040
v -0.00810980 0.00940434 0.00357613
v -0.00793307 0.00954764 0.00336853
v -0.00833625 0.00935550 0.00323917
v -0.00852403 0.00932974 0.00284861
v -0.00858241 0.00929700 0.00284861
v -0.00661150 0.00979345 0.00460365
v -0.00643950 0.00982190 0.00472624
v -0.00675983 0.00982512 0.00423157
v -0.00702888 0.00983317 0.00372274
v -0.00719614 0.00981707 0.00348249
v -0.00693341 0.00981546 0.00399934
v -0.00689711 0.00980257 0.00412870
v -0.00481811 0.00979882 0.00643755
v -0.00472106 0.00977520 0.00658354
v -0.00470449 0.00969792 0.00683550
v -0.00444649 0.00966571 0.00709361
v -0.00393048 0.00968128 0.00735172
v -0.00389498 0.00968772 0.00735172
v -0.00496249 0.00978164 0.00638395
v -0.00527651 0.00978325 0.00612584
v -0.00520235 0.00974998 0.00630017
v -0.00572703 0.00975749 0.00579380
v -0.00554398 0.00978486 0.00587389
v -0.00599450 0.00967860 0.00580428
v -0.00623199 0.00975051 0.00527142
v -0.00651918 0.00978003 0.00479647
v -0.00650893 0.00972744 0.00503055
v -0.00625092 0.00967108 0.00554616
v -0.00546587 0.00975534 0.00604822
v -0.00737525 0.00978916 0.00327428
v -0.00756855 0.00976447 0.00296688
v -0.00751648 0.00974998 0.00320282
v -0.00779894 0.00969362 0.00284861
v -0.00694761 0.00880055 0.00675603
v -0.00702967 0.00885153 0.00657985
v -0.00720088 0.00905655 0.00599031
v -0.00728530 0.00910056 0.00580304
v -0.00744468 0.00904797 0.00571495
v -0.00688370 0.00902113 0.00643447
v -0.00695708 0.00906460 0.00626321
v -0.00767664 0.00903294 0.00542789
v -0.00753462 0.00907963 0.00552768
v -0.00772241 0.00906299 0.00528867
v -0.00752279 0.00919610 0.00527450
v -0.00736578 0.00926211 0.00535150
v -0.00765376 0.00927768 0.00487716
v -0.00770899 0.00930505 0.00470530
v -0.00779657 0.00932652 0.00449215
v -0.00393048 0.00933242 0.00808294
v -0.00413089 0.00930666 0.00803427
v -0.00430289 0.00928090 0.00798684
v -0.00470765 0.00921596 0.00785747
v -0.00496091 0.00910647 0.00787657
v -0.00389498 0.00935389 0.00805830
v -0.00650893 0.00884670 0.00709361
v -0.00668566 0.00879733 0.00700921
v -0.00624540 0.00883865 0.00734926
v -0.00609391 0.00901362 0.00719833
v -0.00626513 0.00897605 0.00710408
v -0.00545325 0.00906997 0.00759566
v -0.00520156 0.00918912 0.00758766
v -0.00547692 0.00921381 0.00734310
v -0.00556292 0.00926909 0.00718786
v -0.00575228 0.00923742 0.00709915
v -0.00592270 0.00905602 0.00726609
v -0.00496249 0.00924333 0.00766343
v -0.00758354 0.00950095 0.00425745
v -0.00763562 0.00952671 0.00405971
v -0.00767901 0.00954871 0.00388784
v -0.00771609 0.00956642 0.00374122
v -0.00780446 0.00958682 0.00346586
v -0.00779894 0.00963566 0.00322500
v -0.00795989 0.00956213 0.00322500
v -0.00810980 0.00948109 0.00322623
v -0.00813742 0.00951758 0.00296750
v -0.00840962 0.00939253 0.00284861
v -0.00675983 0.00976393 0.00451679
v -0.00676693 0.00970436 0.00477244
v -0.00711724 0.00978916 0.00379666
v -0.00706280 0.00977091 0.00399934
v -0.00754094 0.00969416 0.00348249
v -0.00726163 0.00975159 0.00372274
v -0.00699968 0.00974568 0.00423157
v -0.00496249 0.00971992 0.00657738
v -0.00522049 0.00965391 0.00657738
v -0.00498458 0.00961312 0.00685829
v -0.00491357 0.00957018 0.00702400
v -0.00470607 0.00959648 0.00710346
v -0.00444649 0.00958145 0.00730182
v -0.00420584 0.00960936 0.00737205
v -0.00390681 0.00958092 0.00760798
v -0.00389498 0.00958306 0.00760798
v -0.00547850 0.00967001 0.00631989
v -0.00573650 0.00967538 0.00606177
v -0.00625329 0.00959111 0.00580428
v -0.00616808 0.00956213 0.00597923
v -0.00599371 0.00959272 0.00606239
v -0.00650893 0.00965766 0.00528867
v -0.00676693 0.00964049 0.00503055
v -0.00779894 0.00967699 0.00296688
v -0.00803643 0.00959111 0.00284861
v -0.00676930 0.00885153 0.00683919
v -0.00662333 0.00901952 0.00669196
v -0.00678587 0.00898571 0.00659401
v -0.00703598 0.00911452 0.00606978
v -0.00703361 0.00923850 0.00582029
v -0.00728136 0.00922401 0.00555109
v -0.00671249 0.00906944 0.00652009
v -0.00678587 0.00912579 0.00633713
v -0.00663674 0.00928519 0.00618867
v -0.00678429 0.00925192 0.00608518
v -0.00742416 0.00929217 0.00517902
v -0.00712435 0.00927124 0.00564041
v -0.00719378 0.00930451 0.00546916
v -0.00728136 0.00932974 0.00527450
v -0.00755750 0.00935443 0.00478415
v -0.00751805 0.00946552 0.00449338
v -0.00741706 0.00954603 0.00439359
v -0.00390681 0.00946445 0.00784269
v -0.00397703 0.00952134 0.00769361
v -0.00420584 0.00935979 0.00788827
v -0.00479601 0.00927392 0.00771640
v -0.00389498 0.00947304 0.00783160
v -0.00618781 0.00906353 0.00702646
v -0.00600318 0.00911398 0.00710408
v -0.00510214 0.00929002 0.00748848
v -0.00527415 0.00925460 0.00742379
v -0.00567732 0.00931042 0.00701599
v -0.00584933 0.00927929 0.00695069
v -0.00745493 0.00956535 0.00425745
v -0.00754646 0.00958736 0.00398393
v -0.00754094 0.00964264 0.00374122
v -0.00800723 0.00958521 0.00296688
v -0.00810980 0.00955354 0.00285538
v -0.00815872 0.00952939 0.00284861
v -0.00702493 0.00967323 0.00451433
v -0.00728293 0.00969362 0.00399934
v -0.00728293 0.00963781 0.00425745
v -0.00546666 0.00958306 0.00657307
v -0.00522049 0.00957609 0.00678067
v -0.00498458 0.00951007 0.00710346
v -0.00479286 0.00953208 0.00719587
v -0.00537277 0.00955193 0.00672338
v -0.00462086 0.00955784 0.00725069
v -0.00413168 0.00956428 0.00752174
v -0.00389498 0.00957716 0.00762215
v -0.00573334 0.00958950 0.00631742
v -0.00564497 0.00955891 0.00648375
v -0.00650419 0.00958306 0.00553569
v -0.00641504 0.00955945 0.00571680
v -0.00634008 0.00952778 0.00588990
v -0.00646474 0.00932061 0.00627245
v -0.00627459 0.00936784 0.00634329
v -0.00590771 0.00956106 0.00623056
v -0.00675352 0.00957394 0.00526772
v -0.00703756 0.00960077 0.00477799
v -0.00694919 0.00956857 0.00503055
v -0.00690264 0.00954657 0.00516793
v -0.00810980 0.00955462 0.00284861
v -0.00645133 0.00906675 0.00677204
v -0.00688054 0.00927875 0.00591578
v -0.00652550 0.00912686 0.00659401
v -0.00653418 0.00925782 0.00634329
v -0.00637638 0.00928412 0.00644432
v -0.00678429 0.00935818 0.00582029
v -0.00695313 0.00931095 0.00574452
v -0.00707779 0.00950739 0.00503055
v -0.00703361 0.00934637 0.00555109
v -0.00736104 0.00951919 0.00456546
v -0.00713224 0.00953315 0.00486792
v -0.00718904 0.00956052 0.00469605
v -0.00727820 0.00957877 0.00449338
v -0.00389498 0.00953261 0.00771456
v -0.00444649 0.00951919 0.00742995
v -0.00470765 0.00934745 0.00762215
v -0.00470607 0.00948699 0.00734186
v -0.00496249 0.00931256 0.00753406
v -0.00626513 0.00912150 0.00684966
v -0.00601344 0.00925030 0.00685213
v -0.00547692 0.00934154 0.00709915
v -0.00594243 0.00931632 0.00677821
v -0.00611364 0.00928251 0.00669812
v -0.00554477 0.00952188 0.00665562
v -0.00573334 0.00948646 0.00657307
v -0.00665884 0.00955354 0.00544267
v -0.00683084 0.00951544 0.00533980
v -0.00627459 0.00925406 0.00659833
f 1 2 3
f 1 3 4
f 1 4 12
f 1 12 58
f 1 58 98
f 1 98 151
f 1 151 97
f 1 97 96
f 1 96 152
f 1 152 210
f 1 210 263
f 1 263 322
f 1 322 321
f 1 321 320
f 1 320 377
f 1 377 376
f 1 376 373
f 1 373 372
f 1 372 427
f 1 427 426
f 1 426 436
f 1 436 497
f 1 497 498
f 1 498 499
f 1 499 501
f 1 501 556
f 1 556 555
f 1 555 554
f 1 554 560
f 1 560 647
f 1 647 646
f 1 646 727
f 1 727 725
f 1 725 644
f 1 644 726
f 1 726 804
f 1 804 803
f 1 803 880
f 1 880 879
f 1 879 951
f 1 951 1010
f 1 1010 1034
f 1 1034 976
f 1 976 908
f 1 908 828
f 1 828 748
f 1 748 670
f 1 670 583
f 1 583 510
f 1 510 444
f 1 444 380
f 1 380 324
f 1 324 267
f 1 267 212
f 1 212 155
f 1 155 153
f 1 153 99
f 1 99 59
f 1 59 13
f 1 13 5
f 1 5 6
f 1 6 7
f 1 7 2
f 2 7 8
f 2 8 3
f 3 8 9
f 3 9 10
f 3 10 11
f 3 11 12
f 3 12 4
f 5 13 14
f 5 14 15
f 5 15 16
f 5 16 17
f 5 17 18
f 5 18 19
f 5 19 20
f 5 20 6
f 6 20 19
f 6 19 63
f 6 63 102
f 6 102 158
f 6 158 214
f 6 214 246
f 6 246 195
f 6 195 138
f 6 138 89
f 6 89 51
f 6 51 7
f 7 21 22
f 7 22 23
f 7 23 24
f 7 24 25
f 7 25 26
f 7 26 27
f 7 27 28
f 7 28 29
f 7 29 30
f 7 30 31
f 7 31 32
f 7 32 33
f 7 33 34
f 7 34 35
f 7 35 36
f 7 36 37
f 7 37 38
f 7 38 39
f 7 39 40
f 7 40 41
f 7 41 42
f 7 42 43
f 7 43 44
f 7 44 45
f 7 45 46
f 7 46 47
f 7 47 48
f 7 48 49
f 7 49 50
f 7 50 8
f 7 51 52
f 7 52 21
f 8 50 53
f 8 53 9
f 9 53 54
f 9 54 55
f 9 55 56
f 9 56 10
f 10 56 11
f 11 56 57
f 11 57 12
f 12 57 58
f 13 59 60
f 13 60 61
f 13 61 14
f 14 61 60
f 14 60 100
f 14 100 154
f 14 154 211
f 14 211 266
f 14 266 323
f 14 323 379
f 14 379 443
f 14 443 505
f 14 505 568
f 14 568 655
f 14 655 659
f 14 659 737
f 14 737 815
f 14 815 814
f 14 814 813
f 14 813 893
f 14 893 967
f 14 967 1021
f 14 1021 1048
f 14 1048 998
f 14 998 929
f 14 929 860
f 14 860 859
f 14 859 782
f 14 782 700
f 14 700 616
f 14 616 536
f 14 536 532
f 14 532 531
f 14 531 473
f 14 473 412
f 14 412 350
f 14 350 299
f 14 299 247
f 14 247 213
f 14 213 156
f 14 156 101
f 14 101 62
f 14 62 17
f 14 17 16
f 14 16 15
f 17 62 18
f 18 62 19
f 19 62 63
f 21 52 64
f 21 64 22
f 22 64 65
f 22 65 23
f 23 65 66
f 23 66 24
f 24 67 25
f 24 66 67
f 25 68 26
f 25 67 69
f 25 69 68
f 26 68 70
f 26 70 71
f 26 71 27
f 27 71 28
f 28 71 29
f 29 71 72
f 29 72 30
f 30 72 73
f 30 73 31
f 31 73 32
f 32 73 74
f 32 74 75
f 32 75 33
f 33 75 34
f 34 75 74
f 34 74 35
f 35 74 76
f 35 76 36
f 36 76 37
f 37 76 77
f 37 77 78
f 37 78 38
f 38 78 39
f 39 78 40
f 40 78 79
f 40 79 41
f 41 79 80
f 41 80 42
f 42 80 81
f 42 81 82
f 42 82 43
f 43 82 44
f 44 82 83
f 44 83 45
f 45 83 84
f 45 84 46
f 46 84 85
f 46 85 86
f 46 86 47
f 47 86 48
f 48 53 49
f 48 86 87
f 48 87 88
f 48 88 53
f 49 53 50
f 51 89 90
f 51 90 52
f 52 90 64
f 53 88 54
f 54 56 55
f 54 88 87
f 54 87 91
f 54 91 92
f 54 92 93
f 54 93 56
f 56 94 57
f 56 93 95
f 56 95 96
f 56 96 97
f 56 97 94
f 57 98 58
f 57 94 98
f 59 99 60
f 60 99 100
f 62 101 63
f 63 101 102
f 64 90 103
f 64 103 104
f 64 104 105
f 64 105 65
f 65 105 106
f 65 106 66
f 66 107 108
f 66 108 109
f 66 109 110
f 66 110 69
f 66 69 67
f 66 106 107
f 68 69 109
f 68 109 70
f 69 110 109
f 70 109 111
f 70 111 71
f 71 112 72
f 71 111 113
f 71 113 114
f 71 114 112
f 72 112 115
f 72 115 74
f 72 74 73
f 74 115 116
f 74 116 117
f 74 117 118
f 74 118 119
f 74 119 120
f 74 120 121
f 74 121 122
f 74 122 123
f 74 123 76
f 76 123 124
f 76 124 77
f 77 124 78
f 78 124 123
f 78 123 125
f 78 125 79
f 79 126 127
f 79 127 80
f 79 125 126
f 80 128 81
f 80 127 126
f 80 126 128
f 81 128 129
f 81 129 130
f 81 130 83
f 81 83 82
f 83 131 84
f 83 130 131
f 84 131 132
f 84 132 85
f 85 131 133
f 85 133 134
f 85 134 86
f 85 132 131
f 86 134 135
f 86 135 87
f 87 135 136
f 87 136 137
f 87 137 91
f 89 138 139
f 89 139 140
f 89 140 90
f 90 140 141
f 90 141 104
f 90 104 103
f 91 137 142
f 91 142 92
f 92 143 144
f 92 144 145
f 92 145 93
f 92 142 146
f 92 146 147
f 92 147 148
f 92 148 149
f 92 149 150
f 92 150 143
f 93 145 95
f 94 97 151
f 94 151 98
f 95 145 96
f 96 145 152
f 99 153 100
f 100 153 155
f 100 155 154
f 101 156 157
f 101 157 158
f 101 158 102
f 104 106 105
f 104 141 159
f 104 159 160
f 104 160 161
f 104 161 106
f 106 161 162
f 106 162 163
f 106 163 107
f 107 164 165
f 107 165 166
f 107 166 108
f 107 163 164
f 108 167 168
f 108 168 169
f 108 169 170
f 108 170 171
f 108 171 172
f 108 172 173
f 108 173 111
f 108 111 109
f 108 166 167
f 111 173 113
f 112 114 174
f 112 174 116
f 112 116 115
f 113 173 172
f 113 172 114
f 114 172 174
f 116 174 175
f 116 175 117
f 117 119 118
f 117 175 176
f 117 176 119
f 119 177 120
f 119 176 177
f 120 177 121
f 121 177 178
f 121 178 179
f 121 179 180
f 121 180 181
f 121 181 122
f 122 181 123
f 123 182 183
f 123 183 184
f 123 184 185
f 123 185 126
f 123 126 125
f 123 181 186
f 123 186 182
f 126 187 188
f 126 188 128
f 126 185 187
f 128 130 129
f 128 188 130
f 130 188 187
f 130 187 184
f 130 184 189
f 130 189 190
f 130 190 191
f 130 191 192
f 130 192 193
f 130 193 147
f 130 147 194
f 130 194 137
f 130 137 136
f 130 136 134
f 130 134 133
f 130 133 131
f 134 136 135
f 137 194 146
f 137 146 142
f 138 195 248
f 138 248 299
f 138 299 350
f 138 350 351
f 138 351 300
f 138 300 249
f 138 249 196
f 138 196 139
f 139 196 140
f 140 196 197
f 140 197 198
f 140 198 141
f 141 199 160
f 141 160 159
f 141 198 200
f 141 200 199
f 143 201 144
f 143 150 202
f 143 202 203
f 143 203 201
f 144 204 145
f 144 201 204
f 145 204 205
f 145 205 152
f 146 194 147
f 147 193 206
f 147 206 207
f 147 207 208
f 147 208 148
f 148 208 149
f 149 208 209
f 149 209 203
f 149 203 202
f 149 202 150
f 152 205 210
f 154 155 212
f 154 212 211
f 156 213 214
f 156 214 158
f 156 158 157
f 160 199 215
f 160 215 161
f 161 215 162
f 162 216 163
f 162 215 217
f 162 217 218
f 162 218 219
f 162 219 220
f 162 220 216
f 163 216 221
f 163 221 222
f 163 222 165
f 163 165 164
f 165 222 221
f 165 221 167
f 165 167 166
f 167 221 220
f 167 220 168
f 168 223 169
f 168 220 219
f 168 219 223
f 169 223 170
f 170 223 224
f 170 224 225
f 170 225 226
f 170 226 227
f 170 227 228
f 170 228 172
f 170 172 171
f 172 228 227
f 172 227 176
f 172 176 175
f 172 175 174
f 176 227 229
f 176 229 230
f 176 230 177
f 177 231 232
f 177 232 233
f 177 233 234
f 177 234 179
f 177 179 178
f 177 230 229
f 177 229 235
f 177 235 236
f 177 236 231
f 179 234 237
f 179 237 180
f 180 237 181
f 181 237 186
f 182 186 233
f 182 233 183
f 183 233 238
f 183 238 184
f 184 239 240
f 184 240 189
f 184 187 185
f 184 238 233
f 184 233 241
f 184 241 239
f 186 237 234
f 186 234 233
f 189 240 190
f 190 240 191
f 191 242 243
f 191 243 244
f 191 244 192
f 191 240 242
f 192 244 245
f 192 245 206
f 192 206 193
f 195 246 247
f 195 247 248
f 196 249 197
f 197 250 251
f 197 251 198
f 197 249 250
f 198 251 200
f 199 200 252
f 199 252 215
f 200 251 253
f 200 253 252
f 201 254 204
f 201 203 255
f 201 255 254
f 203 209 256
f 203 256 257
f 203 257 258
f 203 258 259
f 203 259 260
f 203 260 261
f 203 261 262
f 203 262 255
f 204 254 263
f 204 263 264
f 204 264 205
f 205 264 210
f 206 245 207
f 207 245 208
f 208 245 209
f 209 245 244
f 209 244 265
f 209 265 256
f 210 264 263
f 211 212 266
f 212 267 266
f 213 247 246
f 213 246 214
f 215 268 218
f 215 218 217
f 215 252 269
f 215 269 270
f 215 270 268
f 216 220 221
f 218 268 271
f 218 271 272
f 218 272 219
f 219 273 274
f 219 274 275
f 219 275 276
f 219 276 277
f 219 277 223
f 219 272 273
f 223 277 224
f 224 277 276
f 224 276 225
f 225 278 281
f 225 281 279
f 225 279 280
f 225 280 227
f 225 227 226
f 225 276 275
f 225 275 278
f 227 280 279
f 227 279 229
f 229 279 281
f 229 281 282
f 229 282 236
f 229 236 235
f 231 283 284
f 231 284 285
f 231 285 286
f 231 286 287
f 231 287 232
f 231 236 283
f 232 287 233
f 233 288 241
f 233 287 289
f 233 289 286
f 233 286 290
f 233 290 291
f 233 291 288
f 236 282 292
f 236 292 293
f 236 293 294
f 236 294 283
f 239 241 288
f 239 288 240
f 240 288 242
f 242 295 243
f 242 288 295
f 243 295 296
f 243 296 244
f 244 296 297
f 244 297 298
f 244 298 265
f 247 299 248
f 249 300 301
f 249 301 302
f 249 302 250
f 250 302 251
f 251 302 303
f 251 303 304
f 251 304 253
f 252 253 269
f 253 304 305
f 253 305 269
f 254 255 306
f 254 306 263
f 255 262 306
f 256 265 307
f 256 307 308
f 256 308 309
f 256 309 257
f 257 309 258
f 258 309 259
f 259 309 308
f 259 308 310
f 259 310 260
f 260 311 261
f 260 310 312
f 260 312 313
f 260 313 314
f 260 314 315
f 260 315 316
f 260 316 311
f 261 317 262
f 261 311 318
f 261 318 317
f 262 319 320
f 262 320 321
f 262 321 306
f 262 317 319
f 263 306 322
f 265 298 307
f 266 267 324
f 266 324 323
f 268 270 271
f 269 305 325
f 269 325 326
f 269 326 327
f 269 327 328
f 269 328 329
f 269 329 270
f 270 329 271
f 271 329 272
f 272 329 330
f 272 330 273
f 273 330 274
f 274 331 275
f 274 330 329
f 274 329 331
f 275 332 333
f 275 333 334
f 275 334 278
f 275 331 329
f 275 329 335
f 275 335 332
f 278 334 281
f 281 292 282
f 281 334 292
f 283 294 284
f 284 294 336
f 284 336 337
f 284 337 286
f 284 286 285
f 286 289 287
f 286 337 338
f 286 338 290
f 288 291 339
f 288 339 296
f 288 296 295
f 290 338 340
f 290 340 341
f 290 341 291
f 291 341 339
f 292 294 293
f 292 334 294
f 294 334 342
f 294 342 343
f 294 343 344
f 294 344 345
f 294 345 346
f 294 346 336
f 296 339 298
f 296 298 297
f 298 339 347
f 298 347 348
f 298 348 349
f 298 349 307
f 300 351 352
f 300 352 301
f 301 353 354
f 301 354 302
f 301 352 355
f 301 355 353
f 302 354 303
f 303 356 304
f 303 354 357
f 303 357 356
f 304 356 305
f 305 326 325
f 305 356 358
f 305 358 359
f 305 359 326
f 306 321 322
f 307 349 360
f 307 360 308
f 308 360 310
f 310 360 361
f 310 361 313
f 310 313 312
f 311 316 362
f 311 362 318
f 313 361 363
f 313 363 364
f 313 364 365
f 313 365 366
f 313 366 314
f 314 366 367
f 314 367 368
f 314 368 369
f 314 369 315
f 315 370 362
f 315 362 316
f 315 369 371
f 315 371 370
f 317 318 372
f 317 372 373
f 317 373 319
f 318 362 374
f 318 374 375
f 318 375 372
f 319 373 376
f 319 376 377
f 319 377 320
f 323 378 379
f 323 324 380
f 323 380 378
f 326 359 381
f 326 381 327
f 327 381 328
f 328 381 382
f 328 382 329
f 329 382 335
f 332 383 384
f 332 384 333
f 332 335 385
f 332 385 383
f 333 386 334
f 333 384 386
f 334 386 387
f 334 387 343
f 334 343 342
f 335 382 381
f 335 381 388
f 335 388 389
f 335 389 390
f 335 390 391
f 335 391 385
f 336 392 337
f 336 346 393
f 336 393 392
f 337 392 338
f 338 394 340
f 338 392 393
f 338 393 395
f 338 395 394
f 339 341 396
f 339 396 347
f 340 394 397
f 340 397 341
f 341 397 398
f 341 398 396
f 343 387 399
f 343 399 400
f 343 400 401
f 343 401 395
f 343 395 345
f 343 345 344
f 345 395 393
f 345 393 346
f 347 396 398
f 347 398 402
f 347 402 348
f 348 403 363
f 348 363 404
f 348 404 349
f 348 402 398
f 348 398 397
f 348 397 405
f 348 405 406
f 348 406 407
f 348 407 408
f 348 408 409
f 348 409 410
f 348 410 411
f 348 411 403
f 349 404 360
f 350 412 351
f 351 412 413
f 351 413 352
f 352 414 415
f 352 415 355
f 352 413 414
f 353 416 357
f 353 357 354
f 353 355 417
f 353 417 416
f 355 415 418
f 355 418 417
f 356 419 358
f 356 357 420
f 356 420 419
f 357 416 420
f 358 419 421
f 358 421 359
f 359 422 423
f 359 423 381
f 359 421 424
f 359 424 425
f 359 425 422
f 360 404 361
f 361 404 363
f 362 370 426
f 362 426 427
f 362 427 375
f 362 375 374
f 363 403 365
f 363 365 364
f 365 403 428
f 365 428 429
f 365 429 366
f 366 429 430
f 366 430 431
f 366 431 367
f 367 431 368
f 368 431 432
f 368 432 433
f 368 433 434
f 368 434 369
f 369 434 435
f 369 435 371
f 370 436 426
f 370 371 437
f 370 437 436
f 371 435 438
f 371 438 439
f 371 439 437
f 372 375 427
f 378 440 441
f 378 441 442
f 378 442 379
f 378 380 440
f 379 442 443
f 380 444 440
f 381 423 389
f 381 389 388
f 383 445 384
f 383 385 391
f 383 391 445
f 384 445 446
f 384 446 387
f 384 387 386
f 387 446 399
f 389 423 447
f 389 447 448
f 389 448 449
f 389 449 450
f 389 450 451
f 389 451 452
f 389 452 391
f 389 391 390
f 391 452 453
f 391 453 454
f 391 454 445
f 394 455 397
f 394 395 455
f 395 401 400
f 395 400 456
f 395 456 457
f 395 457 458
f 395 458 459
f 395 459 460
f 395 460 455
f 397 455 460
f 397 460 461
f 397 461 405
f 399 446 462
f 399 462 400
f 400 463 456
f 400 462 464
f 400 464 465
f 400 465 463
f 403 411 428
f 405 461 406
f 406 461 466
f 406 466 407
f 407 466 467
f 407 467 408
f 408 467 468
f 408 468 409
f 409 469 470
f 409 470 410
f 409 468 471
f 409 471 469
f 410 470 472
f 410 472 411
f 411 472 428
f 412 473 413
f 413 473 474
f 413 474 414
f 414 475 476
f 414 476 415
f 414 474 477
f 414 477 475
f 415 476 418
f 416 417 478
f 416 478 420
f 417 418 478
f 418 476 478
f 419 479 480
f 419 480 481
f 419 481 421
f 419 420 482
f 419 482 479
f 420 478 483
f 420 483 484
f 420 484 482
f 421 485 424
f 421 481 485
f 422 425 486
f 422 486 423
f 423 486 447
f 424 485 425
f 425 485 480
f 425 480 487
f 425 487 448
f 425 448 486
f 428 488 429
f 428 472 489
f 428 489 490
f 428 490 488
f 429 488 430
f 430 488 431
f 431 488 432
f 432 491 434
f 432 434 433
f 432 488 490
f 432 490 492
f 432 492 493
f 432 493 494
f 432 494 495
f 432 495 491
f 434 438 435
f 434 491 496
f 434 496 438
f 436 437 497
f 437 498 497
f 437 439 499
f 437 499 498
f 438 500 501
f 438 501 439
f 438 496 502
f 438 502 503
f 438 503 500
f 439 501 499
f 440 504 441
f 440 444 504
f 441 505 443
f 441 443 442
f 441 504 506
f 441 506 507
f 441 507 508
f 441 508 505
f 444 509 504
f 444 510 509
f 445 462 446
f 445 454 462
f 447 486 448
f 448 487 511
f 448 511 449
f 449 511 450
f 450 511 512
f 450 512 513
f 450 513 451
f 451 513 514
f 451 514 453
f 451 453 452
f 453 515 516
f 453 516 454
f 453 514 517
f 453 517 515
f 454 516 518
f 454 518 519
f 454 519 462
f 456 463 520
f 456 520 457
f 457 521 458
f 457 520 521
f 458 522 459
f 458 521 522
f 459 522 460
f 460 522 523
f 460 523 524
f 460 524 525
f 460 525 466
f 460 466 461
f 462 519 518
f 462 518 464
f 463 465 526
f 463 526 520
f 464 526 465
f 464 518 526
f 466 525 468
f 466 468 467
f 468 525 471
f 469 471 527
f 469 527 528
f 469 528 529
f 469 529 470
f 470 529 530
f 470 530 472
f 471 525 527
f 472 530 489
f 473 531 474
f 474 531 532
f 474 532 477
f 475 477 533
f 475 533 534
f 475 534 535
f 475 535 476
f 476 535 478
f 477 532 536
f 477 536 537
f 477 537 533
f 478 535 538
f 478 538 539
f 478 539 483
f 479 482 540
f 479 540 480
f 480 541 542
f 480 542 543
f 480 543 511
f 480 511 487
f 480 485 481
f 480 540 544
f 480 544 545
f 480 545 541
f 482 484 540
f 483 546 484
f 483 539 547
f 483 547 548
f 483 548 546
f 484 546 540
f 489 530 529
f 489 529 549
f 489 549 490
f 490 549 492
f 491 495 550
f 491 550 551
f 491 551 496
f 492 549 552
f 492 552 553
f 492 553 493
f 493 553 552
f 493 552 494
f 494 552 550
f 494 550 495
f 496 551 502
f 500 503 554
f 500 554 555
f 500 555 556
f 500 556 501
f 502 551 557
f 502 557 558
f 502 558 559
f 502 559 503
f 503 559 560
f 503 560 554
f 504 561 562
f 504 562 563
f 504 563 506
f 504 509 564
f 504 564 565
f 504 565 566
f 504 566 567
f 504 567 561
f 505 508 569
f 505 569 570
f 505 570 571
f 505 571 572
f 505 572 568
f 506 563 573
f 506 573 574
f 506 574 575
f 506 575 576
f 506 576 577
f 506 577 507
f 507 577 578
f 507 578 579
f 507 579 508
f 508 579 580
f 508 580 569
f 509 510 581
f 509 581 582
f 509 582 565
f 509 565 564
f 510 583 669
f 510 669 584
f 510 584 581
f 511 543 542
f 511 542 585
f 511 585 586
f 511 586 512
f 512 586 513
f 513 587 588
f 513 588 514
f 513 586 589
f 513 589 587
f 514 588 517
f 515 517 588
f 515 588 516
f 516 588 590
f 516 590 518
f 518 590 591
f 518 591 592
f 518 592 526
f 520 526 593
f 520 593 594
f 520 594 595
f 520 595 521
f 521 595 596
f 521 596 597
f 521 597 598
f 521 598 525
f 521 525 524
f 521 524 523
f 521 523 522
f 525 598 599
f 525 599 600
f 525 600 527
f 526 601 594
f 526 594 593
f 526 592 602
f 526 602 601
f 527 600 528
f 528 603 529
f 528 600 604
f 528 604 605
f 528 605 606
f 528 606 603
f 529 603 549
f 533 607 608
f 533 608 609
f 533 609 610
f 533 610 611
f 533 611 534
f 533 537 607
f 534 611 612
f 534 612 613
f 534 613 614
f 534 614 615
f 534 615 538
f 534 538 535
f 536 616 617
f 536 617 608
f 536 608 537
f 537 608 607
f 538 615 618
f 538 618 619
f 538 619 547
f 538 547 620
f 538 620 539
f 539 620 547
f 540 546 544
f 541 545 621
f 541 621 542
f 542 622 623
f 542 623 586
f 542 586 585
f 542 621 624
f 542 624 625
f 542 625 626
f 542 626 622
f 544 546 545
f 545 546 627
f 545 627 547
f 545 547 628
f 545 628 629
f 545 629 621
f 546 548 547
f 546 547 627
f 547 630 628
f 547 619 630
f 549 603 631
f 549 631 632
f 549 632 633
f 549 633 552
f 550 634 551
f 550 552 634
f 551 634 557
f 552 635 558
f 552 558 634
f 552 633 632
f 552 632 636
f 552 636 637
f 552 637 638
f 552 638 639
f 552 639 640
f 552 640 641
f 552 641 635
f 557 634 558
f 558 635 642
f 558 642 641
f 558 641 643
f 558 643 644
f 558 644 645
f 558 645 559
f 559 646 647
f 559 647 560
f 559 645 646
f 561 648 649
f 561 649 562
f 561 567 650
f 561 650 648
f 562 649 563
f 563 649 573
f 565 567 566
f 565 582 651
f 565 651 652
f 565 652 653
f 565 653 567
f 567 653 654
f 567 654 650
f 568 572 655
f 569 580 570
f 570 580 656
f 570 656 571
f 571 657 658
f 571 658 659
f 571 659 572
f 571 656 660
f 571 660 661
f 571 661 657
f 572 659 655
f 573 649 662
f 573 662 574
f 574 662 663
f 574 663 575
f 575 663 664
f 575 664 665
f 575 665 666
f 575 666 576
f 576 666 578
f 576 578 577
f 578 666 667
f 578 667 579
f 579 667 668
f 579 668 580
f 580 668 656
f 581 651 582
f 581 584 651
f 583 670 669
f 584 669 671
f 584 671 651
f 586 623 672
f 586 672 589
f 587 673 588
f 587 589 673
f 588 674 590
f 588 673 674
f 589 672 675
f 589 675 676
f 589 676 673
f 590 674 591
f 591 674 677
f 591 677 678
f 591 678 592
f 592 678 602
f 594 679 595
f 594 601 680
f 594 680 681
f 594 681 682
f 594 682 683
f 594 683 679
f 595 684 597
f 595 597 596
f 595 679 684
f 597 604 600
f 597 600 599
f 597 599 598
f 597 684 685
f 597 685 604
f 601 602 678
f 601 678 681
f 601 681 680
f 603 686 631
f 603 606 687
f 603 687 686
f 604 685 688
f 604 688 689
f 604 689 690
f 604 690 606
f 604 606 605
f 606 690 687
f 608 617 691
f 608 691 692
f 608 692 693
f 608 693 609
f 609 693 694
f 609 694 695
f 609 695 696
f 609 696 610
f 610 696 611
f 611 696 612
f 612 696 697
f 612 697 613
f 613 697 614
f 614 697 698
f 614 698 699
f 614 699 615
f 615 699 630
f 615 630 618
f 616 700 701
f 616 701 691
f 616 691 617
f 618 630 619
f 621 629 624
f 622 702 675
f 622 675 672
f 622 672 623
f 622 626 625
f 622 625 703
f 622 703 704
f 622 704 705
f 622 705 702
f 624 629 706
f 624 706 625
f 625 706 630
f 625 630 707
f 625 707 708
f 625 708 709
f 625 709 704
f 625 704 703
f 628 630 629
f 629 630 706
f 630 710 711
f 630 711 707
f 630 699 712
f 630 712 713
f 630 713 714
f 630 714 710
f 631 686 632
f 632 686 715
f 632 715 636
f 635 641 642
f 636 715 637
f 637 690 716
f 637 716 717
f 637 717 718
f 637 718 638
f 637 715 690
f 638 718 639
f 639 718 717
f 639 717 719
f 639 719 720
f 639 720 640
f 640 721 641
f 640 720 722
f 640 722 723
f 640 723 721
f 641 721 643
f 643 724 644
f 643 721 724
f 644 725 645
f 644 724 726
f 645 725 727
f 645 727 646
f 648 728 663
f 648 663 662
f 648 662 649
f 648 650 729
f 648 729 728
f 650 654 729
f 651 671 652
f 652 671 730
f 652 730 653
f 653 730 731
f 653 731 654
f 654 731 808
f 654 808 732
f 654 732 729
f 656 668 660
f 657 661 733
f 657 733 734
f 657 734 735
f 657 735 736
f 657 736 737
f 657 737 658
f 658 737 659
f 660 668 667
f 660 667 738
f 660 738 661
f 661 738 739
f 661 739 733
f 663 728 664
f 664 740 665
f 664 728 741
f 664 741 742
f 664 742 743
f 664 743 740
f 665 740 744
f 665 744 745
f 665 745 666
f 666 745 667
f 667 745 738
f 669 746 730
f 669 730 671
f 669 670 747
f 669 747 746
f 670 748 747
f 673 676 677
f 673 677 674
f 675 749 676
f 675 702 750
f 675 750 749
f 676 751 677
f 676 749 752
f 676 752 753
f 676 753 751
f 677 754 755
f 677 755 756
f 677 756 678
f 677 751 753
f 677 753 757
f 677 757 754
f 678 756 681
f 679 758 759
f 679 759 684
f 679 683 758
f 681 756 755
f 681 755 760
f 681 760 682
f 682 760 683
f 683 760 761
f 683 761 762
f 683 762 763
f 683 763 764
f 683 764 765
f 683 765 758
f 684 759 685
f 685 759 766
f 685 766 767
f 685 767 688
f 686 687 715
f 687 690 715
f 688 767 689
f 689 767 765
f 689 765 690
f 690 768 769
f 690 769 770
f 690 770 771
f 690 771 772
f 690 772 716
f 690 765 768
f 691 701 700
f 691 700 773
f 691 773 774
f 691 774 692
f 692 774 775
f 692 775 776
f 692 776 777
f 692 777 693
f 693 777 778
f 693 778 694
f 694 778 695
f 695 778 779
f 695 779 696
f 696 779 780
f 696 780 697
f 697 778 781
f 697 781 699
f 697 699 698
f 697 780 778
f 699 781 712
f 700 782 783
f 700 783 773
f 702 705 750
f 704 784 705
f 704 709 785
f 704 785 786
f 704 786 787
f 704 787 788
f 704 788 789
f 704 789 784
f 705 784 790
f 705 790 750
f 707 711 708
f 708 711 709
f 709 711 785
f 710 785 711
f 710 714 785
f 712 781 778
f 712 778 791
f 712 791 792
f 712 792 714
f 712 714 713
f 714 792 785
f 716 772 717
f 717 772 719
f 719 793 794
f 719 794 720
f 719 772 795
f 719 795 796
f 719 796 793
f 720 794 722
f 721 797 724
f 721 723 797
f 722 794 793
f 722 793 798
f 722 798 799
f 722 799 723
f 723 799 800
f 723 800 801
f 723 801 802
f 723 802 803
f 723 803 797
f 724 797 804
f 724 804 726
f 728 729 741
f 729 732 805
f 729 805 806
f 729 806 741
f 730 746 731
f 731 746 807
f 731 807 808
f 732 808 805
f 733 739 809
f 733 809 810
f 733 810 734
f 734 810 811
f 734 811 812
f 734 812 735
f 735 812 813
f 735 813 814
f 735 814 815
f 735 815 736
f 736 815 737
f 738 816 739
f 738 745 817
f 738 817 818
f 738 818 816
f 739 816 809
f 740 819 744
f 740 743 820
f 740 820 819
f 741 806 821
f 741 821 742
f 742 822 743
f 742 821 823
f 742 823 822
f 743 822 824
f 743 824 820
f 744 825 817
f 744 817 745
f 744 819 825
f 746 747 826
f 746 826 807
f 747 748 827
f 747 827 826
f 748 828 827
f 749 750 829
f 749 829 830
f 749 830 752
f 750 790 831
f 750 831 829
f 752 830 832
f 752 832 753
f 753 832 833
f 753 833 834
f 753 834 757
f 754 761 755
f 754 757 834
f 754 834 835
f 754 835 761
f 755 761 760
f 758 836 766
f 758 766 759
f 758 765 836
f 761 835 837
f 761 837 763
f 761 763 762
f 763 838 839
f 763 839 840
f 763 840 765
f 763 765 764
f 763 837 834
f 763 834 841
f 763 841 842
f 763 842 838
f 765 840 843
f 765 843 844
f 765 844 768
f 765 767 766
f 765 766 836
f 768 845 846
f 768 846 769
f 768 844 845
f 769 846 847
f 769 847 770
f 770 847 846
f 770 846 848
f 770 848 849
f 770 849 850
f 770 850 851
f 770 851 771
f 771 851 772
f 772 851 795
f 773 783 774
f 774 783 775
f 775 783 852
f 775 852 853
f 775 853 776
f 776 853 854
f 776 854 855
f 776 855 777
f 777 855 856
f 777 856 778
f 778 857 791
f 778 780 779
f 778 856 858
f 778 858 857
f 782 859 783
f 783 859 860
f 783 860 852
f 784 861 862
f 784 862 790
f 784 789 863
f 784 863 861
f 785 792 787
f 785 787 786
f 787 792 791
f 787 791 864
f 787 864 865
f 787 865 866
f 787 866 867
f 787 867 863
f 787 863 788
f 788 863 789
f 790 862 868
f 790 868 831
f 791 857 869
f 791 869 870
f 791 870 864
f 793 796 851
f 793 851 871
f 793 871 798
f 795 851 796
f 797 803 804
f 798 871 799
f 799 872 800
f 799 871 873
f 799 873 874
f 799 874 872
f 800 872 875
f 800 875 876
f 800 876 801
f 801 876 877
f 801 877 802
f 802 877 878
f 802 878 879
f 802 879 880
f 802 880 803
f 805 881 882
f 805 882 806
f 805 808 883
f 805 883 881
f 806 882 823
f 806 823 821
f 807 884 808
f 807 826 885
f 807 885 884
f 808 884 886
f 808 886 887
f 808 887 883
f 809 816 888
f 809 888 810
f 810 888 889
f 810 889 890
f 810 890 811
f 811 890 891
f 811 891 812
f 812 892 813
f 812 891 892
f 813 892 893
f 816 894 888
f 816 818 894
f 817 825 895
f 817 895 818
f 818 895 896
f 818 896 894
f 819 820 897
f 819 897 898
f 819 898 825
f 820 824 899
f 820 899 897
f 822 900 824
f 822 823 900
f 823 882 901
f 823 901 902
f 823 902 900
f 824 900 903
f 824 903 899
f 825 898 904
f 825 904 895
f 826 827 905
f 826 905 885
f 827 828 906
f 827 906 907
f 827 907 905
f 828 908 906
f 829 831 830
f 830 831 832
f 831 868 832
f 832 868 862
f 832 862 833
f 833 862 834
f 834 862 909
f 834 909 910
f 834 910 841
f 834 837 835
f 838 911 912
f 838 912 913
f 838 913 839
f 838 842 911
f 839 913 840
f 840 913 843
f 841 910 914
f 841 914 842
f 842 914 915
f 842 915 911
f 843 916 844
f 843 913 917
f 843 917 916
f 844 916 845
f 845 916 848
f 845 848 846
f 848 916 918
f 848 918 849
f 849 918 919
f 849 919 850
f 850 919 920
f 850 920 921
f 850 921 851
f 851 921 922
f 851 922 923
f 851 923 871
f 852 924 925
f 852 925 853
f 852 860 924
f 853 926 927
f 853 927 854
f 853 925 926
f 854 927 855
f 855 927 928
f 855 928 858
f 855 858 856
f 857 858 869
f 858 928 870
f 858 870 869
f 860 929 924
f 861 930 931
f 861 931 862
f 861 863 932
f 861 932 933
f 861 933 934
f 861 934 930
f 862 931 909
f 863 933 932
f 863 867 933
f 864 935 866
f 864 866 865
f 864 870 936
f 864 936 935
f 866 935 936
f 866 936 937
f 866 937 938
f 866 938 939
f 866 939 940
f 866 940 867
f 867 940 933
f 870 928 941
f 870 941 936
f 871 923 942
f 871 942 873
f 872 874 875
f 873 942 943
f 873 943 874
f 874 943 944
f 874 944 875
f 875 944 945
f 875 945 877
f 875 877 876
f 877 945 946
f 877 946 947
f 877 947 948
f 877 948 949
f 877 949 878
f 878 949 950
f 878 950 951
f 878 951 879
f 881 901 882
f 881 883 952
f 881 952 953
f 881 953 901
f 883 887 952
f 884 885 954
f 884 954 955
f 884 955 886
f 885 905 956
f 885 956 957
f 885 957 954
f 886 955 887
f 887 955 958
f 887 958 952
f 888 894 959
f 888 959 889
f 889 959 890
f 890 959 960
f 890 960 961
f 890 961 962
f 890 962 963
f 890 963 891
f 891 963 964
f 891 964 965
f 891 965 892
f 892 966 967
f 892 967 893
f 892 965 966
f 894 896 959
f 895 904 968
f 895 968 896
f 896 960 959
f 896 968 960
f 897 969 904
f 897 904 898
f 897 899 969
f 899 903 970
f 899 970 971
f 899 971 972
f 899 972 969
f 900 902 903
f 901 953 902
f 902 973 903
f 902 953 974
f 902 974 973
f 903 973 970
f 904 969 968
f 905 907 956
f 906 908 975
f 906 975 907
f 907 975 947
f 907 947 956
f 908 976 975
f 909 931 930
f 909 930 977
f 909 977 978
f 909 978 979
f 909 979 914
f 909 914 910
f 911 915 912
f 912 915 980
f 912 980 981
f 912 981 982
f 912 982 913
f 913 982 917
f 914 979 983
f 914 983 984
f 914 984 915
f 915 984 985
f 915 985 986
f 915 986 980
f 916 917 920
f 916 920 919
f 916 919 918
f 917 982 920
f 920 987 921
f 920 982 988
f 920 988 989
f 920 989 990
f 920 990 987
f 921 987 991
f 921 991 922
f 922 991 992
f 922 992 923
f 923 992 993
f 923 993 942
f 924 929 994
f 924 994 925
f 925 994 995
f 925 995 996
f 925 996 926
f 926 996 997
f 926 997 927
f 927 997 928
f 928 997 941
f 929 998 994
f 930 978 977
f 930 934 978
f 933 999 934
f 933 940 1000
f 933 1000 999
f 934 999 978
f 936 941 1001
f 936 1001 1002
f 936 1002 938
f 936 938 937
f 938 1003 1004
f 938 1004 939
f 938 1002 1001
f 938 1001 1003
f 939 1004 1000
f 939 1000 940
f 941 997 1001
f 942 993 1005
f 942 1005 943
f 943 1005 944
f 944 1005 945
f 945 1005 1006
f 945 1006 1007
f 945 1007 946
f 946 1007 956
f 946 956 947
f 947 975 1008
f 947 1008 948
f 948 1008 1009
f 948 1009 1010
f 948 1010 950
f 948 950 949
f 950 1010 951
f 952 958 953
f 953 958 1011
f 953 1011 974
f 954 957 1012
f 954 1012 955
f 955 1012 958
f 956 1007 1012
f 956 1012 957
f 958 1012 1013
f 958 1013 1011
f 960 968 1014
f 960 1014 1015
f 960 1015 962
f 960 962 961
f 962 1016 1017
f 962 1017 963
f 962 1015 1018
f 962 1018 1016
f 963 1017 1019
f 963 1019 964
f 964 1019 1020
f 964 1020 965
f 965 1020 966
f 966 1020 1021
f 966 1021 967
f 968 969 1022
f 968 1022 1023
f 968 1023 1014
f 969 972 1022
f 970 973 1024
f 970 1024 1025
f 970 1025 1026
f 970 1026 971
f 971 1026 985
f 971 985 1027
f 971 1027 1028
f 971 1028 1029
f 971 1029 972
f 972 1029 1022
f 973 974 1030
f 973 1030 1024
f 974 1011 1031
f 974 1031 1032
f 974 1032 1033
f 974 1033 1030
f 975 976 1008
f 976 1034 1009
f 976 1009 1008
f 978 1035 983
f 978 983 979
f 978 999 1035
f 980 986 981
f 981 988 982
f 981 986 1036
f 981 1036 988
f 983 1035 1037
f 983 1037 1038
f 983 1038 985
f 983 985 984
f 985 1038 1039
f 985 1039 1027
f 985 1026 1040
f 985 1040 1041
f 985 1041 1036
f 985 1036 986
f 987 990 1042
f 987 1042 991
f 988 1036 1041
f 988 1041 989
f 989 1041 1043
f 989 1043 1033
f 989 1033 990
f 990 1033 1042
f 991 1044 992
f 991 1042 1045
f 991 1045 1044
f 992 1044 993
f 993 1044 1046
f 993 1046 1047
f 993 1047 1005
f 994 998 1048
f 994 1048 995
f 995 1020 996
f 995 1048 1020
f 996 1049 1050
f 996 1050 997
f 996 1020 1049
f 997 1050 1051
f 997 1051 1052
f 997 1052 1001
f 999 1053 1035
f 999 1000 1004
f 999 1004 1054
f 999 1054 1053
f 1001 1055 1003
f 1001 1052 1017
f 1001 1017 1016
f 1001 1016 1055
f 1003 1055 1018
f 1003 1018 1004
f 1004 1056 1057
f 1004 1057 1054
f 1004 1018 1058
f 1004 1058 1023
f 1004 1023 1059
f 1004 1059 1056
f 1005 1047 1013
f 1005 1013 1006
f 1006 1013 1007
f 1007 1013 1012
f 1009 1034 1010
f 1011 1013 1031
f 1013 1047 1031
f 1014 1023 1058
f 1014 1058 1018
f 1014 1018 1015
f 1016 1018 1055
f 1017 1051 1019
f 1017 1052 1051
f 1019 1049 1020
f 1019 1051 1050
f 1019 1050 1049
f 1020 1048 1021
f 1022 1029 1023
f 1023 1029 1059
f 1024 1030 1025
f 1025 1030 1060
f 1025 1060 1040
f 1025 1040 1026
f 1027 1039 1028
f 1028 1057 1059
f 1028 1059 1029
f 1028 1039 1057
f 1030 1033 1060
f 1031 1047 1046
f 1031 1046 1032
f 1032 1046 1045
f 1032 1045 1042
f 1032 1042 1033
f 1033 1043 1061
f 1033 1061 1060
f 1035 1053 1037
f 1037 1053 1054
f 1037 1054 1062
f 1037 1062 1038
f 1038 1062 1039
f 1039 1062 1057
f 1040 1061 1041
f 1040 1060 1061
f 1041 1061 1043
f 1044 1045 1046
f 1054 1057 1062
f 1056 1059 1057

