# https://github.com/mikedh/trimesh
v -0.00219874 0.00008509 -0.00977784
v -0.00219702 -0.00048828 -0.00977784
v -0.00200411 -0.00048828 -0.00883344
v -0.00200411 0.00008509 -0.00883344
v -0.00199763 0.00065939 -0.00883344
v -0.00218750 0.00065939 -0.00977784
v -0.00219312 -0.00051404 -0.00977784
v -0.00211181 -0.00099419 -0.00977784
v -0.00189988 -0.00106211 -0.00883344
v -0.00173855 -0.00106211 -0.00850308
v -0.00177661 -0.00048828 -0.00849046
v -0.00177661 0.00008509 -0.00849046
v -0.00177531 0.00065939 -0.00849046
v -0.00173595 0.00111846 -0.00850913
v -0.00180645 0.00127913 -0.00879649
v -0.00204953 0.00123322 -0.00977784
v -0.00209581 -0.00106211 -0.00977784
v -0.00194616 -0.00144998 -0.00977784
v -0.00168708 -0.00138159 -0.00852597
v -0.00137264 -0.00106211 -0.00844706
v -0.00137264 -0.00048828 -0.00844193
v -0.00137264 0.00065939 -0.00843732
v -0.00141849 0.00127913 -0.00847915
v -0.00125803 0.00162250 -0.00850913
v -0.00164037 0.00150117 -0.00858041
v -0.00183068 0.00169229 -0.00977784
v -0.00187522 -0.00157365 -0.00977784
v -0.00178180 -0.00166265 -0.00977784
v -0.00138432 -0.00203552 -0.00977784
v -0.00109756 -0.00193059 -0.00853964
v -0.00132247 -0.00159847 -0.00850768
v -0.00079870 -0.00163642 -0.00845732
v -0.00022475 -0.00163642 -0.00843443
v 0.00149666 0.00065939 -0.00843483
v 0.00092271 0.00123322 -0.00843943
v -0.00079870 0.00123322 -0.00844561
v 0.00149666 0.00008509 -0.00843430
v -0.00022475 0.00180706 -0.00845692
v -0.00077880 0.00181128 -0.00849138
v -0.00057422 0.00211295 -0.00852925
v -0.00095527 0.00201411 -0.00883344
v -0.00080432 0.00230922 -0.00977784
v -0.00128960 -0.00211235 -0.00977784
v -0.00116720 -0.00216528 -0.00977784
v -0.00079870 -0.00227911 -0.00977784
v -0.00079870 -0.00207721 -0.00883344
v -0.00022475 -0.00218074 -0.00883344
v -0.00079870 -0.00196994 -0.00851334
v -0.00022475 -0.00200929 -0.00849046
v 0.00034877 -0.00163642 -0.00843575
v 0.00149666 -0.00048828 -0.00843430
v 0.00186516 0.00065939 -0.00849085
v 0.00183748 0.00104772 -0.00850966
v 0.00150098 0.00123697 -0.00847954
v 0.00087859 0.00179722 -0.00849703
v 0.00034877 0.00180706 -0.00846402
v 0.00186602 0.00008509 -0.00849046
v -0.00022475 0.00213169 -0.00851295
v -0.00022475 0.00221788 -0.00883344
v -0.00022475 0.00241837 -0.00977784
v -0.00066851 0.00214527 -0.00883344
v -0.00066375 -0.00230862 -0.00977784
v -0.00022475 -0.00236718 -0.00977784
v 0.00034877 -0.00235312 -0.00977784
v 0.00034877 -0.00216575 -0.00883344
v 0.00034877 -0.00200414 -0.00849177
v 0.00077522 -0.00197135 -0.00851097
v 0.00094910 -0.00166359 -0.00848033
v 0.00154034 -0.00110568 -0.00847915
v 0.00183878 -0.00094360 -0.00850913
v 0.00186602 -0.00048828 -0.00849046
v 0.00202519 0.00065939 -0.00883344
v 0.00203211 0.00008509 -0.00883344
v 0.00190106 0.00114703 -0.00883344
v 0.00170124 0.00143418 -0.00883344
v 0.00131241 0.00159954 -0.00850913
v 0.00065758 0.00210217 -0.00853872
v 0.00034877 0.00212372 -0.00852005
v 0.00034877 0.00219961 -0.00883344
v 0.00018354 0.00240900 -0.00977784
v 0.00092271 -0.00223508 -0.00977784
v 0.00094910 -0.00201351 -0.00884660
v 0.00115757 -0.00187344 -0.00866419
v 0.00176092 -0.00132631 -0.00858830
v 0.00137815 -0.00149073 -0.00850913
v 0.00203211 -0.00048828 -0.00883344
v 0.00189630 -0.00110568 -0.00880109
v 0.00221982 0.00008509 -0.00977784
v 0.00221333 0.00056242 -0.00977784
v 0.00221160 0.00065939 -0.00977784
v 0.00208185 0.00115031 -0.00977784
v 0.00204768 0.00125946 -0.00977784
v 0.00200962 0.00131754 -0.00977784
v 0.00181672 0.00154989 -0.00977784
v 0.00156716 0.00179347 -0.00977784
v 0.00153212 0.00182486 -0.00977784
v 0.00141448 0.00168808 -0.00883344
v 0.00100748 0.00197523 -0.00883344
v 0.00095991 0.00225582 -0.00977784
v 0.00087816 0.00229189 -0.00977784
v 0.00075706 0.00232093 -0.00977784
v 0.00034877 0.00240338 -0.00977784
v 0.00137080 -0.00208096 -0.00977784
v 0.00195469 -0.00152493 -0.00977784
v 0.00212943 -0.00106211 -0.00977784
v 0.00221982 -0.00048828 -0.00977784
f 1 2 3
f 1 3 4
f 1 4 5
f 1 5 6
f 1 6 16
f 1 16 26
f 1 26 42
f 1 42 60
f 1 60 80
f 1 80 102
f 1 102 101
f 1 101 100
f 1 100 99
f 1 99 96
f 1 96 95
f 1 95 94
f 1 94 93
f 1 93 92
f 1 92 91
f 1 91 90
f 1 90 89
f 1 89 88
f 1 88 106
f 1 106 105
f 1 105 104
f 1 104 103
f 1 103 81
f 1 81 64
f 1 64 63
f 1 63 62
f 1 62 45
f 1 45 44
f 1 44 43
f 1 43 29
f 1 29 28
f 1 28 27
f 1 27 18
f 1 18 17
f 1 17 8
f 1 8 7
f 1 7 2
f 2 7 3
f 3 7 8
f 3 8 9
f 3 9 10
f 3 10 11
f 3 11 12
f 3 12 4
f 4 12 13
f 4 13 5
f 5 13 14
f 5 14 15
f 5 15 16
f 5 16 6
f 8 17 9
f 9 17 18
f 9 18 19
f 9 19 10
f 10 19 20
f 10 20 11
f 11 21 22
f 11 22 12
f 11 20 21
f 12 22 13
f 13 22 14
f 14 22 23
f 14 23 24
f 14 24 25
f 14 25 15
f 15 25 26
f 15 26 16
f 18 27 19
f 19 27 28
f 19 28 29
f 19 29 30
f 19 30 31
f 19 31 20
f 20 31 32
f 20 32 33
f 20 33 21
f 21 33 22
f 22 34 35
f 22 35 36
f 22 36 23
f 22 33 37
f 22 37 34
f 23 38 39
f 23 39 24
f 23 36 38
f 24 39 40
f 24 40 25
f 25 40 41
f 25 41 26
f 26 41 42
f 29 43 30
f 30 43 44
f 30 44 45
f 30 45 46
f 30 46 47
f 30 47 48
f 30 48 31
f 31 48 32
f 32 48 49
f 32 49 33
f 33 49 50
f 33 50 51
f 33 51 37
f 34 37 57
f 34 57 52
f 34 52 53
f 34 53 54
f 34 54 35
f 35 54 55
f 35 55 56
f 35 56 38
f 35 38 36
f 37 51 71
f 37 71 57
f 38 56 58
f 38 58 40
f 38 40 39
f 40 58 59
f 40 59 60
f 40 60 42
f 40 42 61
f 40 61 41
f 41 61 42
f 45 62 46
f 46 62 47
f 47 62 63
f 47 63 64
f 47 64 65
f 47 65 66
f 47 66 49
f 47 49 48
f 49 66 50
f 50 66 67
f 50 67 68
f 50 68 69
f 50 69 51
f 51 69 70
f 51 70 71
f 52 72 53
f 52 57 73
f 52 73 72
f 53 74 75
f 53 75 76
f 53 76 54
f 53 72 74
f 54 76 55
f 55 76 77
f 55 77 78
f 55 78 56
f 56 78 58
f 57 71 86
f 57 86 73
f 58 78 59
f 59 79 80
f 59 80 60
f 59 78 79
f 64 81 65
f 65 81 82
f 65 82 67
f 65 67 66
f 67 82 83
f 67 83 84
f 67 84 85
f 67 85 68
f 68 85 69
f 69 85 70
f 70 86 71
f 70 85 84
f 70 84 87
f 70 87 86
f 72 73 88
f 72 88 89
f 72 89 90
f 72 90 74
f 73 86 106
f 73 106 88
f 74 90 91
f 74 91 92
f 74 92 93
f 74 93 75
f 75 93 94
f 75 94 95
f 75 95 96
f 75 96 97
f 75 97 76
f 76 97 77
f 77 98 99
f 77 99 100
f 77 100 101
f 77 101 102
f 77 102 79
f 77 79 78
f 77 97 98
f 79 102 80
f 81 103 82
f 82 103 83
f 83 103 84
f 84 103 104
f 84 104 87
f 86 87 105
f 86 105 106
f 87 104 105
f 96 99 97
f 97 99 98

