# https://github.com/mikedh/trimesh
v 0.03269880 0.00826890 0.00904763
v 0.03283634 0.00840519 0.00904763
v 0.03725265 0.01050699 0.00583109
v 0.03733702 0.00826890 0.00514128
v 0.03726768 0.00804795 0.00514128
v 0.03715556 0.00760751 0.00514128
v 0.03685737 -0.00414967 0.00514128
v 0.03508553 -0.00414967 0.00718049
v 0.03504739 -0.00414967 0.00722906
v 0.03468793 -0.00414967 0.00777012
v 0.03439436 -0.00414967 0.00840142
v 0.03439205 -0.00414967 0.00840907
v 0.03422215 -0.00414967 0.00904763
v 0.03569463 0.01050699 0.00904763
v 0.03649098 0.01050699 0.00705928
v 0.03871474 0.01050699 0.00514128
v 0.03740984 0.00839802 0.00514128
v 0.04133493 -0.00414967 0.00514128
v 0.04450644 -0.00414967 0.00904763
v 0.04097201 0.01050699 0.00904763
v 0.04119392 0.01050699 0.00514128
v 0.04450644 -0.00414967 0.00775406
v 0.04369045 0.00684713 0.00514128
v 0.04450644 0.00054459 0.00904763
v 0.04112804 0.01050699 0.00769938
v 0.04369045 0.00992595 0.00904763
v 0.04369045 0.01004216 0.00894936
v 0.04369045 0.01025592 0.00843201
v 0.04369045 0.01035492 0.00777012
v 0.04369045 0.01036353 0.00710861
v 0.04119392 0.01050699 0.00578597
v 0.04369045 0.01036353 0.00514128
v 0.04450644 0.00046999 0.00774641
v 0.04450644 0.00054459 0.00774641
v 0.04116387 0.01050699 0.00707534
v 0.04118583 0.01050699 0.00642301
f 1 2 3
f 1 3 4
f 1 4 5
f 1 5 6
f 1 6 7
f 1 7 8
f 1 8 9
f 1 9 10
f 1 10 11
f 1 11 12
f 1 12 13
f 1 13 19
f 1 19 24
f 1 24 26
f 1 26 20
f 1 20 14
f 1 14 2
f 2 14 15
f 2 15 3
f 3 15 14
f 3 14 20
f 3 20 25
f 3 25 35
f 3 35 36
f 3 36 31
f 3 31 21
f 3 21 16
f 3 16 17
f 3 17 4
f 4 17 16
f 4 16 21
f 4 21 32
f 4 32 23
f 4 23 18
f 4 18 7
f 4 7 6
f 4 6 5
f 7 18 22
f 7 22 19
f 7 19 13
f 7 13 12
f 7 12 11
f 7 11 10
f 7 10 9
f 7 9 8
f 18 23 22
f 19 22 33
f 19 33 34
f 19 34 24
f 20 26 27
f 20 27 28
f 20 28 29
f 20 29 30
f 20 30 25
f 21 31 30
f 21 30 32
f 22 23 33
f 23 32 34
f 23 34 33
f 24 34 32
f 24 32 30
f 24 30 29
f 24 29 28
f 24 28 27
f 24 27 26
f 25 30 35
f 30 31 36
f 30 36 35

