# https://github.com/mikedh/trimesh
v 0.04460476 -0.04550937 -0.02334421
v 0.04460476 -0.04042194 -0.02334421
v 0.04539519 -0.04547261 -0.02334421
v 0.04539519 -0.04571424 -0.02307415
v 0.04460476 -0.04573000 -0.02309743
v 0.01292051 -0.04520733 -0.01866000
v 0.04698560 -0.03491427 -0.02334421
v 0.01292051 -0.04121775 -0.01866000
v 0.04790936 -0.04534653 -0.02334421
v 0.06418480 -0.05346227 -0.01327736
v 0.06044212 -0.05417667 -0.01266273
v 0.04665228 -0.05457851 -0.01192238
v 0.04539519 -0.05453386 -0.01187117
v 0.04412859 -0.05448659 -0.01179667
v 0.04205249 -0.05439204 -0.01167095
v 0.04036686 -0.05431324 -0.01155454
v 0.04036686 -0.05374593 -0.01227626
v 0.03913834 -0.05352530 -0.01237404
v 0.05918503 -0.05420293 -0.01269533
v 0.05793747 -0.05421606 -0.01271395
v 0.05291866 -0.05421606 -0.01271395
v 0.05166157 -0.05420030 -0.01269533
v 0.05166157 -0.05469670 -0.01206673
v 0.03409096 -0.05325741 -0.01182926
v 0.03308148 -0.05318124 -0.01173148
v 0.03223390 -0.05311820 -0.01164301
v 0.03157679 -0.05344651 -0.01092594
v 0.03032923 -0.05333095 -0.01073504
v 0.02835789 -0.05314185 -0.01042772
v 0.02752936 -0.05306042 -0.01029269
v 0.02658654 -0.05296587 -0.01012507
v 0.02521518 -0.05288971 -0.00974791
v 0.02406285 -0.05262181 -0.00977119
v 0.02406285 -0.05304467 -0.00897031
v 0.02276767 -0.05291334 -0.00850468
v 0.02231055 -0.05309194 -0.00780624
v 0.02156773 -0.05253513 -0.00851865
v 0.02146297 -0.05298688 -0.00734062
v 0.02096776 -0.05311032 -0.00659096
v 0.01842502 -0.05187327 -0.00665615
v 0.01829169 -0.05195469 -0.00601358
v 0.01742506 -0.05171043 -0.00476104
v 0.01646320 -0.05101442 -0.00474242
v 0.01587275 -0.05065460 -0.00430473
v 0.01460615 -0.04943592 -0.00440717
v 0.01452996 -0.04950158 -0.00350385
v 0.01340620 -0.04812007 -0.00416970
v 0.01293956 -0.04754488 -0.00356904
v 0.01293956 -0.04763417 -0.00252604
v 0.01293956 -0.04765519 -0.00225597
v 0.01292051 -0.04520996 -0.01501415
v 0.03911930 -0.05424233 -0.01145210
v 0.04707131 -0.03477507 -0.02334421
v 0.01292051 -0.04131231 -0.01501415
v 0.01293956 -0.04131231 0.00275417
v 0.01963449 -0.03479083 0.01028336
v 0.01963449 -0.03494316 0.00903082
v 0.04727130 -0.03432069 -0.02296240
v 0.04745224 -0.03438372 -0.02334421
v 0.04834744 -0.04532290 -0.02334421
v 0.06418480 -0.05408737 -0.01255098
v 0.06419432 -0.04436687 -0.02334421
v 0.06544189 -0.04429070 -0.02334421
v 0.06544189 -0.05342025 -0.01323545
v 0.06044212 -0.05467044 -0.01203414
v 0.05918503 -0.05469670 -0.01207139
v 0.06418480 -0.05457851 -0.01192704
v 0.04665228 -0.05517997 -0.01102838
v 0.05166157 -0.05532443 -0.01117738
v 0.04539519 -0.05509855 -0.01102838
v 0.04459523 -0.05520361 -0.01075366
v 0.04036686 -0.05469933 -0.01093060
v 0.03911930 -0.05463367 -0.01082351
v 0.05793747 -0.05471246 -0.01208535
v 0.05291866 -0.05471246 -0.01208535
v 0.05291866 -0.05533756 -0.01120532
v 0.03785269 -0.05415565 -0.01131241
v 0.03409096 -0.05379321 -0.01101907
v 0.03271959 -0.05350955 -0.01114479
v 0.03283387 -0.05418717 -0.01006453
v 0.03149108 -0.05412939 -0.00972463
v 0.03185297 -0.05444456 -0.00927762
v 0.02658654 -0.05330994 -0.00949647
v 0.02555802 -0.05320751 -0.00931022
v 0.02471044 -0.05311820 -0.00912862
v 0.02406285 -0.05331519 -0.00834172
v 0.02313909 -0.05320225 -0.00808562
v 0.02276767 -0.05337560 -0.00734062
v 0.02181533 -0.05323640 -0.00697277
v 0.02281529 -0.05379583 -0.00601358
v 0.02146297 -0.05337560 -0.00611136
v 0.02156773 -0.05370128 -0.00476104
v 0.02072967 -0.05320751 -0.00575749
v 0.02032017 -0.05293698 -0.00611136
v 0.01905356 -0.05236179 -0.00601358
v 0.01905356 -0.05265333 -0.00476104
v 0.01804408 -0.05210440 -0.00476104
v 0.01727269 -0.05180761 -0.00350385
v 0.01654891 -0.05127181 -0.00350385
v 0.01580609 -0.05070450 -0.00350385
v 0.01518707 -0.05012930 -0.00350385
v 0.01513945 -0.05017133 -0.00225597
v 0.01449186 -0.04954623 -0.00225597
v 0.01386332 -0.04883709 -0.00225597
v 0.01390142 -0.04878719 -0.00350385
v 0.01336811 -0.04816209 -0.00350385
v 0.01333001 -0.04821199 -0.00225597
v 0.01293956 -0.04760791 -0.00099878
v 0.01293956 -0.04752386 -0.00047728
v 0.01293956 -0.04740305 0.00021651
v 0.01293956 -0.04733476 0.00047726
v 0.01293956 -0.04703797 0.00150629
v 0.01293956 -0.04679371 0.00214886
v 0.01293956 -0.04660723 0.00262380
v 0.01293956 -0.04655208 0.00275417
v 0.03785269 -0.05455225 -0.01068382
v 0.01963449 -0.04182972 0.01248112
v 0.01963449 -0.03529773 0.01104233
v 0.05744226 -0.03741728 0.02422422
v 0.08923126 -0.03159181 0.01492566
v 0.08923126 -0.03134492 0.01404097
v 0.04784270 -0.03431806 -0.02334421
v 0.06544189 -0.05404797 -0.01250442
v 0.06544189 -0.05454437 -0.01187582
v 0.06669897 -0.04419877 -0.02334421
v 0.06733704 -0.04415150 -0.02334421
v 0.06835604 -0.04407533 -0.02334421
v 0.06916552 -0.04400705 -0.02334421
v 0.06668945 -0.05336247 -0.01317958
v 0.05918503 -0.05532443 -0.01118669
v 0.05793747 -0.05533756 -0.01120532
v 0.06418480 -0.05518522 -0.01102838
v 0.06044212 -0.05529816 -0.01114013
v 0.04742367 -0.05562122 -0.01038582
v 0.04665228 -0.05560020 -0.01035322
v 0.04539519 -0.05556080 -0.01028803
v 0.05041401 -0.05569213 -0.01050688
v 0.05166157 -0.05571839 -0.01055344
v 0.05291866 -0.05573678 -0.01057672
v 0.04459523 -0.05553191 -0.01021353
v 0.04412859 -0.05550565 -0.01018094
v 0.04161442 -0.05538746 -0.00996210
v 0.04036686 -0.05532705 -0.00984103
v 0.03921453 -0.05530604 -0.00965478
v 0.03492901 -0.05434476 -0.01033925
v 0.03409096 -0.05428173 -0.01023682
v 0.03283387 -0.05452861 -0.00943594
v 0.03149108 -0.05467044 -0.00863040
v 0.03100539 -0.05436314 -0.00911931
v 0.03283387 -0.05495672 -0.00851865
v 0.03032923 -0.05430011 -0.00897031
v 0.02658654 -0.05377482 -0.00851865
v 0.02521518 -0.05343863 -0.00863506
v 0.02757697 -0.05430799 -0.00769449
v 0.02531993 -0.05399807 -0.00727077
v 0.02406285 -0.05372229 -0.00727077
v 0.02281529 -0.05406373 -0.00476104
v 0.02416761 -0.05414515 -0.00591580
v 0.02464378 -0.05438678 -0.00543155
v 0.02156773 -0.05387200 -0.00350385
v 0.02049159 -0.05330731 -0.00476104
v 0.01987257 -0.05304204 -0.00476104
v 0.01914879 -0.05287920 -0.00356438
v 0.01970115 -0.05311296 -0.00402070
v 0.01790123 -0.05219895 -0.00350385
v 0.01720603 -0.05184700 -0.00225597
v 0.01654891 -0.05135060 -0.00225597
v 0.01577752 -0.05074389 -0.00225597
v 0.01578704 -0.05072813 -0.00099878
v 0.01515850 -0.05015557 -0.00099878
v 0.01451091 -0.04952522 -0.00099878
v 0.01388237 -0.04881608 -0.00099878
v 0.01335859 -0.04818836 -0.00099878
v 0.01340620 -0.04813845 -0.00023981
v 0.01305384 -0.04757114 0.00021185
v 0.01345382 -0.04804653 0.00059366
v 0.01356810 -0.04789945 0.00150629
v 0.01369190 -0.04752124 0.00275417
v 0.01963449 -0.04589284 0.01248112
v 0.03785269 -0.05506703 -0.00977119
v 0.03107205 -0.04122563 0.01701167
v 0.03107205 -0.04619751 0.01701167
v 0.05744226 -0.03753021 0.02418697
v 0.10052597 -0.03963925 0.01992649
v 0.09927841 -0.03871212 0.02031761
v 0.08673614 -0.03741728 0.02136993
v 0.10033551 -0.03157080 0.01493963
v 0.09049787 -0.03157080 0.01493963
v 0.09049787 -0.03131340 0.01404097
v 0.08653615 -0.03405279 -0.02334421
v 0.06794653 -0.05330731 -0.01311439
v 0.06919409 -0.05324953 -0.01304920
v 0.06794653 -0.05393503 -0.01236007
v 0.06881316 -0.05439466 -0.01168492
v 0.06544189 -0.05511168 -0.01102838
v 0.07127971 -0.05314447 -0.01293745
v 0.07045118 -0.05318649 -0.01298401
v 0.07546999 -0.04335306 -0.02334421
v 0.07546999 -0.04342923 -0.02326040
v 0.05918503 -0.05572365 -0.01055810
v 0.05793747 -0.05573678 -0.01057672
v 0.06418480 -0.05560545 -0.01036254
v 0.06168016 -0.05566849 -0.01046497
v 0.04703321 -0.05570001 -0.01021353
v 0.04665228 -0.05567900 -0.01021353
v 0.04539519 -0.05589962 -0.00965944
v 0.05166157 -0.05591013 -0.01021353
v 0.04960452 -0.05581820 -0.01021353
v 0.05291866 -0.05617802 -0.00977585
v 0.04412859 -0.05584446 -0.00955234
v 0.04161442 -0.05572627 -0.00933350
v 0.04036686 -0.05566849 -0.00921244
v 0.03970022 -0.05563172 -0.00915191
v 0.03885264 -0.05558182 -0.00904016
v 0.03409096 -0.05462316 -0.00960822
v 0.03785269 -0.05551878 -0.00889115
v 0.03032923 -0.05457589 -0.00834172
v 0.03282435 -0.05545050 -0.00720559
v 0.03157679 -0.05521674 -0.00727077
v 0.03409096 -0.05514057 -0.00851865
v 0.03584326 -0.05564485 -0.00793196
v 0.03501472 -0.05558707 -0.00776899
v 0.03409096 -0.05552141 -0.00756412
v 0.02908167 -0.05417929 -0.00870025
v 0.02840551 -0.05438678 -0.00792731
v 0.02649131 -0.05423707 -0.00727077
v 0.02601514 -0.05436052 -0.00660027
v 0.02531993 -0.05428961 -0.00632555
v 0.02376763 -0.05430011 -0.00476104
v 0.02351049 -0.05435789 -0.00397414
v 0.02289148 -0.05424496 -0.00353645
v 0.02531993 -0.05446295 -0.00570161
v 0.03091015 -0.05563435 -0.00541292
v 0.02658654 -0.05489894 -0.00476104
v 0.02531993 -0.05464155 -0.00476104
v 0.02266291 -0.05425546 -0.00225597
v 0.02156773 -0.05393503 -0.00225597
v 0.02032017 -0.05347278 -0.00225597
v 0.02019636 -0.05335196 -0.00356438
v 0.01962496 -0.05314447 -0.00318257
v 0.01894880 -0.05286081 -0.00225597
v 0.01783457 -0.05223309 -0.00225597
v 0.01723459 -0.05182862 -0.00099878
v 0.01654891 -0.05131646 -0.00099878
v 0.01585371 -0.05066773 -0.00003959
v 0.01460615 -0.04943592 0.00025376
v 0.01537754 -0.05016082 0.00032826
v 0.01388237 -0.04862960 0.00021185
v 0.01465376 -0.04937289 0.00090563
v 0.01428235 -0.04878981 0.00139454
v 0.01440616 -0.04841423 0.00275417
v 0.01497756 -0.04904458 0.00275417
v 0.01560610 -0.04966179 0.00275417
v 0.01963449 -0.05038407 0.00680513
v 0.01996780 -0.05047600 0.00695413
v 0.02080586 -0.05067298 0.00722885
v 0.02109156 -0.05054691 0.00754082
v 0.02156773 -0.05033417 0.00805766
v 0.02250102 -0.05051802 0.00827651
v 0.02332955 -0.05064934 0.00844413
v 0.02375810 -0.05179973 0.00704260
v 0.02459616 -0.05188640 0.00718228
v 0.02532946 -0.05196782 0.00729403
v 0.02658654 -0.05209652 0.00747563
v 0.03106253 -0.05315498 0.00719625
v 0.03160536 -0.05320488 0.00727075
v 0.03285292 -0.05331782 0.00743372
v 0.03411953 -0.05341237 0.00756875
v 0.03945261 -0.05441305 0.00721022
v 0.04037638 -0.05400069 0.00791332
v 0.04289055 -0.05412151 0.00807629
v 0.04539519 -0.05422919 0.00822529
v 0.04664276 -0.05427647 0.00828582
v 0.04789984 -0.05431324 0.00832773
v 0.04789984 -0.05371704 0.00903082
v 0.05013783 -0.05435789 0.00838826
v 0.05165205 -0.05384573 0.00905410
v 0.05290913 -0.05386149 0.00907738
v 0.05290913 -0.05323902 0.00977582
v 0.05744226 -0.04194791 0.02208234
v 0.05744226 -0.04184022 0.02219409
v 0.05744226 -0.04119674 0.02262712
v 0.05744226 -0.04007525 0.02321847
v 0.05744226 -0.03948955 0.02344663
v 0.09927841 -0.03971805 0.02000099
v 0.10052597 -0.03871212 0.02012205
v 0.10052597 -0.04026698 0.01934911
v 0.10261159 -0.04065307 0.01850633
v 0.10138308 -0.03950793 0.01981474
v 0.10052597 -0.03797671 0.01987993
v 0.10126880 -0.03803187 0.01975421
v 0.10266873 -0.03799247 0.01860411
v 0.10384011 -0.03801873 0.01739814
v 0.10623047 -0.03956309 0.01540991
v 0.11018267 -0.03405017 -0.01116341
v 0.10033551 -0.03131340 0.01404097
v 0.09457387 -0.03405279 -0.02334421
v 0.06922266 -0.05396655 -0.01217382
v 0.06965121 -0.05435789 -0.01162904
v 0.06668945 -0.05500137 -0.01102838
v 0.06544189 -0.05556869 -0.01029269
v 0.07211777 -0.05309457 -0.01287692
v 0.07170826 -0.05353844 -0.01238335
v 0.07045118 -0.05376169 -0.01228092
v 0.07671755 -0.04319284 -0.02334421
v 0.05918503 -0.05591538 -0.01021353
v 0.05793747 -0.05617802 -0.00977585
v 0.06419432 -0.05568688 -0.01021353
v 0.06366102 -0.05571314 -0.01021353
v 0.06044212 -0.05609923 -0.00977585
v 0.06044212 -0.05586022 -0.01021353
v 0.04915693 -0.05603357 -0.00977585
v 0.04665228 -0.05593639 -0.00972928
v 0.04665228 -0.05651946 -0.00851865
v 0.04539519 -0.05644067 -0.00851865
v 0.04459523 -0.05606508 -0.00917519
v 0.05166157 -0.05614651 -0.00977585
v 0.05291866 -0.05669806 -0.00871887
v 0.05166157 -0.05668493 -0.00868628
v 0.04412859 -0.05633298 -0.00851865
v 0.03921453 -0.05582608 -0.00857918
v 0.04036686 -0.05597316 -0.00851865
v 0.03785269 -0.05578931 -0.00825790
v 0.03241484 -0.05559758 -0.00653508
v 0.03324338 -0.05566324 -0.00674927
v 0.03157679 -0.05552404 -0.00626968
v 0.02685320 -0.05444194 -0.00685637
v 0.03785269 -0.05615439 -0.00727077
v 0.03409096 -0.05572365 -0.00694018
v 0.03042446 -0.05540585 -0.00591114
v 0.02649131 -0.05459165 -0.00611136
v 0.02334860 -0.05439729 -0.00313601
v 0.02531993 -0.05480439 -0.00350385
v 0.02398667 -0.05450760 -0.00353645
v 0.03066254 -0.05568425 -0.00476104
v 0.03157679 -0.05569738 -0.00564108
v 0.03283387 -0.05607034 -0.00476104
v 0.03157679 -0.05585760 -0.00476104
v 0.02977687 -0.05561596 -0.00402070
v 0.02658654 -0.05506178 -0.00350385
v 0.02329146 -0.05441567 -0.00225597
v 0.02272006 -0.05423970 -0.00099878
v 0.02156773 -0.05390877 -0.00099878
v 0.02032017 -0.05344126 -0.00099878
v 0.01957734 -0.05316548 -0.00225597
v 0.01961544 -0.05314972 -0.00099878
v 0.01899642 -0.05284505 -0.00099878
v 0.01787266 -0.05221996 -0.00099878
v 0.01797742 -0.05214379 0.00025376
v 0.01735840 -0.05175245 0.00025376
v 0.01643463 -0.05105644 0.00032826
v 0.01593942 -0.05059944 0.00078923
v 0.01523469 -0.04977473 0.00139454
v 0.01478709 -0.04924157 0.00173911
v 0.01606322 -0.05050226 0.00150629
v 0.01632035 -0.05029214 0.00275417
v 0.01963449 -0.05064934 0.00641865
v 0.02034874 -0.05092775 0.00653041
v 0.02158677 -0.05148455 0.00646522
v 0.02156773 -0.05083056 0.00743372
v 0.02288195 -0.05098027 0.00782485
v 0.02285338 -0.05117726 0.00754082
v 0.02282481 -0.05167103 0.00683772
v 0.02282481 -0.05205449 0.00620912
v 0.02413904 -0.05216218 0.00658628
v 0.02613894 -0.05308143 0.00581800
v 0.02532946 -0.05246159 0.00652575
v 0.02657702 -0.05277939 0.00643728
v 0.02783410 -0.05283980 0.00672131
v 0.03005305 -0.05305780 0.00705191
v 0.03106253 -0.05356208 0.00655369
v 0.03293863 -0.05399281 0.00641400
v 0.03411953 -0.05404009 0.00662819
v 0.03862408 -0.05435526 0.00712641
v 0.03907168 -0.05472297 0.00663284
v 0.04037638 -0.05493834 0.00652575
v 0.04037638 -0.05445769 0.00728472
v 0.04163346 -0.05452336 0.00736853
v 0.04413811 -0.05463367 0.00752219
v 0.04539519 -0.05468882 0.00759669
v 0.04664276 -0.05473610 0.00766188
v 0.04789984 -0.05476762 0.00770378
v 0.05165205 -0.05485954 0.00778294
v 0.05290913 -0.05490419 0.00778294
v 0.05290913 -0.05441042 0.00844879
v 0.05415669 -0.05387463 0.00909135
v 0.05415669 -0.05324690 0.00978514
v 0.05744226 -0.05323114 0.00977582
v 0.05917551 -0.05322326 0.00976651
v 0.06042307 -0.05321013 0.00974789
v 0.06291819 -0.05314447 0.00968736
v 0.06542284 -0.05307093 0.00960820
v 0.06667040 -0.05302365 0.00955698
v 0.09927841 -0.04034577 0.01941896
v 0.10141165 -0.03871212 0.01982871
v 0.07294630 -0.05268222 0.00916585
v 0.07294630 -0.05323640 0.00854657
v 0.10052597 -0.04081328 0.01872052
v 0.10178306 -0.04073449 0.01860876
v 0.10304015 -0.04096036 0.01788704
v 0.10428771 -0.04078176 0.01743539
v 0.10492577 -0.04059791 0.01718395
v 0.10348774 -0.03996494 0.01835733
v 0.08000312 -0.05314972 0.00720091
v 0.08084117 -0.05307093 0.00707985
v 0.08546953 -0.05196257 0.00729403
v 0.08676471 -0.05182599 0.00709381
v 0.08703136 -0.05179710 0.00704725
v 0.10204019 -0.03871212 0.01941430
v 0.10289729 -0.03871212 0.01879036
v 0.10352584 -0.03871212 0.01826420
v 0.10408772 -0.03871212 0.01764026
v 0.10525909 -0.03902204 0.01630857
v 0.10607810 -0.03996494 0.01581035
v 0.10635428 -0.03996494 0.01540991
v 0.11018267 -0.03620648 -0.01116341
v 0.11021124 -0.03405017 -0.01228092
v 0.10993506 -0.03405017 -0.01291883
v 0.10725900 -0.03405017 -0.01526559
v 0.10681140 -0.03405017 -0.01565206
v 0.10663046 -0.03405017 -0.01580571
v 0.10585906 -0.03405017 -0.01643431
v 0.10376392 -0.03405017 -0.01799416
v 0.10276397 -0.03405017 -0.01868794
v 0.10160211 -0.03405279 -0.01946088
v 0.10061169 -0.03405279 -0.02008948
v 0.09998314 -0.03405279 -0.02048061
v 0.09926889 -0.03405279 -0.02089967
v 0.09824037 -0.03405279 -0.02147239
v 0.09763087 -0.03405279 -0.02180299
v 0.09701185 -0.03405279 -0.02211961
v 0.09514527 -0.03405279 -0.02306484
v 0.09457387 -0.03436534 -0.02334421
v 0.07045118 -0.05431850 -0.01157317
v 0.07045118 -0.05470983 -0.01094457
v 0.06667040 -0.05550828 -0.01021353
v 0.06558474 -0.05560020 -0.01021353
v 0.06544189 -0.05590225 -0.00966875
v 0.06419432 -0.05594427 -0.00973394
v 0.07295582 -0.05353844 -0.01217382
v 0.07672708 -0.05213854 -0.01320751
v 0.07672708 -0.05276889 -0.01247182
v 0.07170826 -0.05425021 -0.01146607
v 0.07795559 -0.04299061 -0.02334421
v 0.07795559 -0.05204399 -0.01310508
v 0.05918503 -0.05615439 -0.00977585
v 0.05793747 -0.05669806 -0.00871887
v 0.06044212 -0.05665866 -0.00863040
v 0.05918503 -0.05668493 -0.00869093
v 0.04905217 -0.05667705 -0.00842087
v 0.04939501 -0.05690030 -0.00793662
v 0.04790936 -0.05686353 -0.00784349
v 0.04665228 -0.05683464 -0.00775502
v 0.04539519 -0.05679524 -0.00763396
v 0.05291866 -0.05696596 -0.00809493
v 0.05166157 -0.05695282 -0.00805768
v 0.04412859 -0.05674271 -0.00746168
v 0.03911930 -0.05631460 -0.00727077
v 0.04036686 -0.05644855 -0.00727077
v 0.03282435 -0.05578931 -0.00607877
v 0.03785269 -0.05652734 -0.00601358
v 0.03409096 -0.05598892 -0.00601358
v 0.03913834 -0.05671907 -0.00592977
v 0.02531993 -0.05488055 -0.00225597
v 0.02406285 -0.05459952 -0.00225597
v 0.02658654 -0.05514057 -0.00225597
v 0.03785269 -0.05679524 -0.00476104
v 0.03409096 -0.05641703 -0.00350385
v 0.03283387 -0.05623055 -0.00350385
v 0.03157679 -0.05602043 -0.00350385
v 0.03873836 -0.05685039 -0.00518011
v 0.02952926 -0.05566324 -0.00318257
v 0.02334860 -0.05439729 -0.00099878
v 0.02406285 -0.05456801 -0.00099878
v 0.02342478 -0.05437628 -0.00034690
v 0.02156773 -0.05377219 0.00025376
v 0.02026303 -0.05330468 0.00014666
v 0.01967258 -0.05312609 -0.00034690
v 0.01917736 -0.05280566 0.00014666
v 0.01755839 -0.05161850 0.00150629
v 0.01905356 -0.05248523 0.00150629
v 0.01819645 -0.05201510 0.00150629
v 0.01668224 -0.05099341 0.00150629
v 0.01694889 -0.05079380 0.00275417
v 0.01963449 -0.05078329 0.00620447
v 0.02025350 -0.05161325 0.00530115
v 0.02118679 -0.05177609 0.00573884
v 0.02202485 -0.05193105 0.00600425
v 0.02282481 -0.05255877 0.00526856
v 0.02401523 -0.05288708 0.00523131
v 0.02532946 -0.05298688 0.00563175
v 0.02355811 -0.05309982 0.00458409
v 0.02532946 -0.05328892 0.00500315
v 0.02657702 -0.05338348 0.00534771
v 0.02982449 -0.05435526 0.00459340
v 0.03106253 -0.05434739 0.00511956
v 0.03160536 -0.05422657 0.00558984
v 0.03255769 -0.05431587 0.00578075
v 0.02698652 -0.05316286 0.00596700
v 0.03340527 -0.05438153 0.00592043
v 0.04037638 -0.05548201 0.00558984
v 0.03772888 -0.05468094 0.00640003
v 0.04266199 -0.05558444 0.00581800
v 0.04350957 -0.05562122 0.00589715
v 0.04539519 -0.05570789 0.00603218
v 0.04539519 -0.05530867 0.00666078
v 0.04664276 -0.05536382 0.00673528
v 0.04789984 -0.05539008 0.00678184
v 0.05165205 -0.05547151 0.00690291
v 0.05290913 -0.05548727 0.00694016
v 0.05415669 -0.05492258 0.00778294
v 0.05415669 -0.05441305 0.00846276
v 0.05791842 -0.05440517 0.00843948
v 0.05917551 -0.05385624 0.00905876
v 0.06049926 -0.05394028 0.00891441
v 0.06166111 -0.05378270 0.00903082
v 0.06095638 -0.05436577 0.00840223
v 0.06542284 -0.05360935 0.00897960
v 0.06667040 -0.05356995 0.00893304
v 0.06791796 -0.05350955 0.00886785
v 0.06791796 -0.05296062 0.00948714
v 0.07294630 -0.05380896 0.00777829
v 0.07393673 -0.05317074 0.00847207
v 0.06791796 -0.05413727 0.00809957
v 0.06917505 -0.05406898 0.00800179
v 0.07476526 -0.05311032 0.00839757
v 0.07700326 -0.05293173 0.00816476
v 0.07795559 -0.05285819 0.00806232
v 0.07920315 -0.05275050 0.00792263
v 0.10456388 -0.04178244 0.01579638
v 0.08798370 -0.05168416 0.00685634
v 0.08798370 -0.05206763 0.00623240
v 0.08885032 -0.05194943 0.00603218
v 0.10561145 -0.04147252 0.01540991
v 0.10492577 -0.04052437 0.01718395
v 0.10440199 -0.04005161 0.01762164
v 0.10584001 -0.04128342 0.01540991
v 0.07700326 -0.05328630 0.00768982
v 0.07920315 -0.05321276 0.00729403
v 0.07544142 -0.05413727 0.00679116
v 0.07787941 -0.05399544 0.00641400
v 0.07920315 -0.05370653 0.00652575
v 0.08044119 -0.05344126 0.00660956
v 0.08171732 -0.05338348 0.00631622
v 0.08296489 -0.05285556 0.00673994
v 0.08382199 -0.05316286 0.00597165
v 0.08666947 -0.05216743 0.00658628
v 0.10488768 -0.03968916 0.01714670
v 0.10868750 -0.04185861 -0.00660958
v 0.11004934 -0.03833391 -0.01134501
v 0.11014458 -0.03745667 -0.01117273
v 0.11014458 -0.03745667 -0.01202948
v 0.11020172 -0.03495367 -0.01228092
v 0.10992554 -0.03560765 -0.01290951
v 0.10930652 -0.03495367 -0.01347292
v 0.10725900 -0.03495367 -0.01526559
v 0.10663046 -0.03495367 -0.01580571
v 0.10585906 -0.03495367 -0.01642965
v 0.10376392 -0.03495367 -0.01798950
v 0.10276397 -0.03495367 -0.01868794
v 0.10222113 -0.03405279 -0.01905579
v 0.10160211 -0.03495367 -0.01946088
v 0.10061169 -0.03495367 -0.02008948
v 0.09998314 -0.03495367 -0.02048061
v 0.09926889 -0.03495367 -0.02089967
v 0.09799276 -0.03442837 -0.02160742
v 0.09762135 -0.03495367 -0.02180299
v 0.09676425 -0.03495367 -0.02224068
v 0.09514527 -0.03495367 -0.02306484
v 0.09456435 -0.03495367 -0.02334421
v 0.07170826 -0.05464417 -0.01084213
v 0.07046070 -0.05513532 -0.01021353
v 0.06920362 -0.05573415 -0.00934747
v 0.06668945 -0.05585234 -0.00957097
v 0.07046070 -0.05533493 -0.00986431
v 0.06544189 -0.05645117 -0.00851865
v 0.06419432 -0.05652734 -0.00851865
v 0.07672708 -0.05326529 -0.01184788
v 0.07795559 -0.05267171 -0.01235542
v 0.07795559 -0.05317599 -0.01172682
v 0.07295582 -0.05416353 -0.01133570
v 0.07906983 -0.04279888 -0.02334421
v 0.07920315 -0.05192842 -0.01297936
v 0.05793747 -0.05696596 -0.00809493
v 0.06233727 -0.05688191 -0.00789471
v 0.06044212 -0.05692656 -0.00800181
v 0.05918503 -0.05695282 -0.00806234
v 0.05166157 -0.05722335 -0.00726612
v 0.05041401 -0.05716819 -0.00726612
v 0.04665228 -0.05703425 -0.00713109
v 0.04539519 -0.05699485 -0.00700537
v 0.04459523 -0.05696333 -0.00689827
v 0.05291866 -0.05725224 -0.00726612
v 0.04328101 -0.05690292 -0.00670737
v 0.04036686 -0.05676635 -0.00621846
v 0.04245248 -0.05686353 -0.00657233
v 0.03957642 -0.05689767 -0.00545483
v 0.02531993 -0.05484641 -0.00099878
v 0.02878644 -0.05556606 -0.00225597
v 0.02658654 -0.05510118 -0.00099878
v 0.03829076 -0.05691343 -0.00434198
v 0.03744318 -0.05685039 -0.00387170
v 0.03785269 -0.05695808 -0.00347126
v 0.03710987 -0.05689767 -0.00303823
v 0.03283387 -0.05631460 -0.00225597
v 0.03157679 -0.05610186 -0.00225597
v 0.03913834 -0.05695808 -0.00476104
v 0.02531993 -0.05470983 0.00025376
v 0.02409142 -0.05446032 0.00014201
v 0.02369144 -0.05432112 0.00048191
v 0.02293909 -0.05418192 0.00014201
v 0.02281529 -0.05390877 0.00150629
v 0.02156773 -0.05354106 0.00150629
v 0.02067253 -0.05323114 0.00150629
v 0.01980590 -0.05306568 0.00048657
v 0.01834883 -0.05191266 0.00226526
v 0.01788218 -0.05144778 0.00271227
v 0.01904403 -0.05212541 0.00271227
v 0.02004399 -0.05296062 0.00150629
v 0.01788218 -0.05142940 0.00275417
v 0.01963449 -0.05177609 0.00443509
v 0.01963449 -0.05130333 0.00529184
v 0.01979638 -0.05181811 0.00452821
v 0.02063444 -0.05200722 0.00490537
v 0.02158677 -0.05215430 0.00530115
v 0.02282481 -0.05299739 0.00434662
v 0.02282481 -0.05325215 0.00371802
v 0.02401523 -0.05339136 0.00410915
v 0.02532946 -0.05371441 0.00401602
v 0.02658654 -0.05396918 0.00401602
v 0.02809124 -0.05444719 0.00356436
v 0.02909119 -0.05454174 0.00379718
v 0.03106253 -0.05480964 0.00405327
v 0.03160536 -0.05492520 0.00401602
v 0.03160536 -0.05452336 0.00496124
v 0.03293863 -0.05458377 0.00532443
v 0.03411953 -0.05478338 0.00526856
v 0.03834790 -0.05564748 0.00469118
v 0.03912882 -0.05540322 0.00543618
v 0.03912882 -0.05570001 0.00480759
v 0.04037638 -0.05576567 0.00496124
v 0.04163346 -0.05582870 0.00509162
v 0.04539519 -0.05607822 0.00526856
v 0.04664276 -0.05616752 0.00526856
v 0.04664276 -0.05574991 0.00610669
v 0.04789984 -0.05578405 0.00615790
v 0.05290913 -0.05587861 0.00631622
v 0.05415669 -0.05549515 0.00694947
v 0.05744226 -0.05548464 0.00693084
v 0.05917551 -0.05547939 0.00691688
v 0.05744226 -0.05489369 0.00778294
v 0.05917551 -0.05439729 0.00843482
v 0.06010880 -0.05438153 0.00842085
v 0.05917551 -0.05487793 0.00778294
v 0.06049926 -0.05474661 0.00789935
v 0.06166111 -0.05480439 0.00774569
v 0.06542284 -0.05423445 0.00822994
v 0.06667040 -0.05418717 0.00817407
v 0.06791796 -0.05459690 0.00747097
v 0.07136542 -0.05440517 0.00720091
v 0.07294630 -0.05431850 0.00707053
v 0.06667040 -0.05464680 0.00755013
v 0.07428910 -0.05353844 0.00789469
v 0.07544142 -0.05351480 0.00769447
v 0.08925031 -0.05218844 0.00532909
v 0.09022169 -0.05202823 0.00494727
v 0.09058358 -0.05224097 0.00409983
v 0.08798370 -0.05259029 0.00527321
v 0.08465052 -0.05307093 0.00581800
v 0.08546953 -0.05298426 0.00562709
v 0.08676471 -0.05291597 0.00519871
v 0.10750660 -0.04314820 -0.00475639
v 0.09044073 -0.05280041 0.00275883
v 0.09043120 -0.05282142 0.00271227
v 0.09179305 -0.05217793 0.00275883
v 0.09249778 -0.05194418 0.00236305
v 0.09268824 -0.05205975 0.00150629
v 0.09288823 -0.05218581 0.00025376
v 0.09350725 -0.05179710 0.00025376
v 0.10805896 -0.04248108 -0.00475639
v 0.07418434 -0.05423445 0.00694016
v 0.07700326 -0.05339398 0.00753616
v 0.07544142 -0.05453649 0.00616722
v 0.07740324 -0.05438153 0.00592043
v 0.07825082 -0.05431587 0.00578540
v 0.08171732 -0.05394291 0.00527321
v 0.07920315 -0.05423182 0.00561778
v 0.08058404 -0.05417667 0.00524062
v 0.10751613 -0.04314294 -0.00601358
v 0.10868750 -0.04185861 -0.00667477
v 0.11004934 -0.03833391 -0.01182926
v 0.11009696 -0.03728333 -0.01216451
v 0.10986840 -0.03644024 -0.01281639
v 0.11013505 -0.03609355 -0.01235076
v 0.10938271 -0.03609355 -0.01331461
v 0.10854465 -0.03620648 -0.01404564
v 0.10791611 -0.03620648 -0.01459043
v 0.10655427 -0.03620648 -0.01572656
v 0.10718281 -0.03620648 -0.01521437
v 0.10576383 -0.03620648 -0.01635515
v 0.10372583 -0.03582827 -0.01796622
v 0.10222113 -0.03495367 -0.01905579
v 0.09996410 -0.03575736 -0.02045732
v 0.09824037 -0.03495367 -0.02146774
v 0.09815466 -0.03620648 -0.02141652
v 0.09752612 -0.03620648 -0.02174711
v 0.09676425 -0.03620648 -0.02213358
v 0.09503099 -0.03620648 -0.02300430
v 0.09433579 -0.03620648 -0.02334421
v 0.07163208 -0.05531917 -0.00965944
v 0.07295582 -0.05456013 -0.01070710
v 0.07296535 -0.05484378 -0.01021353
v 0.06668945 -0.05634349 -0.00851865
v 0.07046070 -0.05567112 -0.00923572
v 0.07116543 -0.05563698 -0.00917053
v 0.06544189 -0.05680049 -0.00765259
v 0.06419432 -0.05683726 -0.00776434
v 0.07985074 -0.05187064 -0.01290951
v 0.07909840 -0.05262706 -0.01215985
v 0.07860318 -0.05312609 -0.01166163
v 0.07509858 -0.05441042 -0.01046032
v 0.07672708 -0.05381159 -0.01102838
v 0.08046024 -0.04253361 -0.02334421
v 0.05793747 -0.05725224 -0.00726612
v 0.06419432 -0.05703950 -0.00714040
v 0.06044212 -0.05717345 -0.00726612
v 0.05918503 -0.05722598 -0.00726612
v 0.05166157 -0.05759368 -0.00601358
v 0.05041401 -0.05754115 -0.00601358
v 0.04665228 -0.05735993 -0.00601358
v 0.04539519 -0.05727851 -0.00601358
v 0.04459523 -0.05706839 -0.00653043
v 0.05291866 -0.05761994 -0.00601358
v 0.04161442 -0.05699748 -0.00580405
v 0.04459523 -0.05721285 -0.00601358
v 0.04412859 -0.05717082 -0.00601358
v 0.04036686 -0.05693707 -0.00558986
v 0.04539519 -0.05752802 -0.00484486
v 0.04460476 -0.05745973 -0.00484486
v 0.04412859 -0.05743609 -0.00476104
v 0.04036686 -0.05708152 -0.00476104
v 0.02952926 -0.05566587 -0.00099878
v 0.02967211 -0.05563698 -0.00031896
v 0.02658654 -0.05496460 0.00025376
v 0.03911930 -0.05711041 -0.00350385
v 0.03911930 -0.05719183 -0.00225597
v 0.03785269 -0.05702899 -0.00225597
v 0.03702415 -0.05691343 -0.00225597
v 0.03409096 -0.05649582 -0.00225597
v 0.03283387 -0.05627257 -0.00099878
v 0.03409096 -0.05645905 -0.00099878
v 0.03157679 -0.05605720 -0.00099878
v 0.04036686 -0.05724174 -0.00350385
v 0.02453902 -0.05441305 0.00104998
v 0.02409142 -0.05421869 0.00148301
v 0.02406285 -0.05388250 0.00275417
v 0.02282481 -0.05357521 0.00276348
v 0.02281529 -0.05357521 0.00275417
v 0.02168201 -0.05324428 0.00275883
v 0.02087252 -0.05314447 0.00221405
v 0.02156773 -0.05321013 0.00275883
v 0.01899642 -0.05208864 0.00275417
v 0.01852025 -0.05182599 0.00275417
v 0.02039635 -0.05278202 0.00268433
v 0.01963449 -0.05239330 0.00275883
v 0.01963449 -0.05189428 0.00415105
v 0.02025350 -0.05220946 0.00407190
v 0.02163439 -0.05280303 0.00393686
v 0.02210104 -0.05315235 0.00347124
v 0.02658654 -0.05430011 0.00313599
v 0.02726270 -0.05436577 0.00335483
v 0.03167202 -0.05541373 0.00266105
v 0.03197677 -0.05543736 0.00275417
v 0.03285292 -0.05551090 0.00300561
v 0.03285292 -0.05514320 0.00401602
v 0.03417667 -0.05538221 0.00391824
v 0.03912882 -0.05603094 0.00401602
v 0.03772888 -0.05582870 0.00404861
v 0.04037638 -0.05617014 0.00401602
v 0.04539519 -0.05666129 0.00391824
v 0.04664276 -0.05667180 0.00412777
v 0.04789984 -0.05669543 0.00420693
v 0.04789984 -0.05622267 0.00526856
v 0.05165205 -0.05637763 0.00526856
v 0.05290913 -0.05641703 0.00526856
v 0.05415669 -0.05643804 0.00526856
v 0.05415669 -0.05588386 0.00632553
v 0.05917551 -0.05586022 0.00628828
v 0.06042307 -0.05584709 0.00626034
v 0.06042307 -0.05546363 0.00688894
v 0.06166111 -0.05542948 0.00683772
v 0.06542284 -0.05469145 0.00760135
v 0.06788939 -0.05528765 0.00641400
v 0.06667040 -0.05527715 0.00660025
v 0.06745132 -0.05564485 0.00592509
v 0.07294630 -0.05470721 0.00644194
v 0.07418434 -0.05462841 0.00631622
v 0.06542284 -0.05531655 0.00666078
v 0.08798370 -0.05301315 0.00437921
v 0.08920269 -0.05283717 0.00396015
v 0.08959315 -0.05302365 0.00310805
v 0.09033597 -0.05284505 0.00275883
v 0.08725992 -0.05309982 0.00458874
v 0.08546953 -0.05328630 0.00500315
v 0.09360249 -0.05184963 -0.00056109
v 0.09365963 -0.05188903 -0.00139922
v 0.08996456 -0.05316286 0.00226061
v 0.09082166 -0.05299476 0.00150629
v 0.09174543 -0.05256140 0.00150629
v 0.09165020 -0.05285819 0.00023979
v 0.09188828 -0.05288708 -0.00100344
v 0.09310727 -0.05219632 -0.00098947
v 0.07418434 -0.05517997 0.00527321
v 0.07700326 -0.05462579 0.00554328
v 0.07920315 -0.05453124 0.00498918
v 0.08025072 -0.05444719 0.00480293
v 0.07787941 -0.05458639 0.00532909
v 0.08108878 -0.05436577 0.00463996
v 0.10747803 -0.04312981 -0.00675858
v 0.09365963 -0.05188903 -0.00225597
v 0.09364058 -0.05187327 -0.00296373
v 0.10891606 -0.04084217 -0.00977585
v 0.10968746 -0.03745667 -0.01265807
v 0.10883988 -0.04074762 -0.01021353
v 0.10878274 -0.04067408 -0.01053947
v 0.10913510 -0.03997807 -0.01098182
v 0.10902082 -0.03971805 -0.01155920
v 0.10894463 -0.03956046 -0.01190376
v 0.10931604 -0.03873050 -0.01228092
v 0.10883988 -0.03829188 -0.01305386
v 0.10905891 -0.03745667 -0.01324942
v 0.10835418 -0.03745667 -0.01387336
v 0.10772564 -0.03745667 -0.01442746
v 0.10697330 -0.03745667 -0.01505140
v 0.10499243 -0.03701543 -0.01672765
v 0.10361155 -0.03666611 -0.01788241
v 0.10313538 -0.03623012 -0.01830613
v 0.10258302 -0.03621436 -0.01868794
v 0.10212590 -0.03620648 -0.01899526
v 0.10044026 -0.03618284 -0.02007551
v 0.09982125 -0.03659257 -0.02037351
v 0.09935460 -0.03618284 -0.02073670
v 0.09741184 -0.03686835 -0.02168658
v 0.09490719 -0.03686572 -0.02293912
v 0.09431674 -0.03625901 -0.02334421
v 0.07201301 -0.05559232 -0.00906344
v 0.07296535 -0.05508804 -0.00977585
v 0.06794653 -0.05622792 -0.00851865
v 0.07163208 -0.05583396 -0.00859781
v 0.07046070 -0.05598892 -0.00851865
v 0.06668945 -0.05675059 -0.00748496
v 0.06544189 -0.05700273 -0.00702399
v 0.08422197 -0.05082006 -0.01313301
v 0.08296489 -0.05157385 -0.01254632
v 0.08296489 -0.05207813 -0.01192238
v 0.08493622 -0.05188640 -0.01168026
v 0.07945076 -0.05304467 -0.01154057
v 0.07909840 -0.05339924 -0.01108891
v 0.07795559 -0.05362774 -0.01102838
v 0.07672708 -0.05429486 -0.01026010
v 0.08191732 -0.04223944 -0.02334421
v 0.05793747 -0.05761994 -0.00601358
v 0.05918503 -0.05759893 -0.00601358
v 0.06419432 -0.05737043 -0.00601358
v 0.06044212 -0.05754378 -0.00601358
v 0.05291866 -0.05788521 -0.00476104
v 0.05167110 -0.05785895 -0.00476104
v 0.04916645 -0.05772763 -0.00484486
v 0.04666180 -0.05761994 -0.00476104
v 0.04539519 -0.05754378 -0.00476104
v 0.04412859 -0.05759893 -0.00350385
v 0.03157679 -0.05592063 0.00025376
v 0.02997686 -0.05557394 0.00051451
v 0.03082444 -0.05565536 0.00100342
v 0.02658654 -0.05473085 0.00150629
v 0.04036686 -0.05732316 -0.00225597
v 0.04036686 -0.05728639 -0.00099878
v 0.03911930 -0.05714981 -0.00099878
v 0.03708129 -0.05690030 -0.00134800
v 0.03283387 -0.05613600 0.00025376
v 0.03778602 -0.05697121 -0.00095687
v 0.03730986 -0.05687141 -0.00051453
v 0.03409096 -0.05632248 0.00025376
v 0.02535803 -0.05449184 0.00148301
v 0.02496757 -0.05432112 0.00188811
v 0.02578658 -0.05440779 0.00224198
v 0.02535803 -0.05417929 0.00270295
v 0.02126298 -0.05301315 0.00305683
v 0.01963449 -0.05204136 0.00377855
v 0.02624370 -0.05435001 0.00275883
v 0.02909119 -0.05489369 0.00275883
v 0.03213867 -0.05564223 0.00218145
v 0.03262436 -0.05555293 0.00275417
v 0.03324338 -0.05565011 0.00275417
v 0.03378621 -0.05558182 0.00324308
v 0.03462427 -0.05564485 0.00342933
v 0.03662417 -0.05578405 0.00377855
v 0.03911930 -0.05647218 0.00275417
v 0.04036686 -0.05660876 0.00275417
v 0.04582375 -0.05689767 0.00343399
v 0.04664276 -0.05692656 0.00349918
v 0.04789984 -0.05695282 0.00357833
v 0.05165205 -0.05677423 0.00439318
v 0.05290913 -0.05679261 0.00444905
v 0.05415669 -0.05680837 0.00446302
v 0.05917551 -0.05639339 0.00527321
v 0.06042307 -0.05635925 0.00527321
v 0.06166111 -0.05581820 0.00620912
v 0.06542284 -0.05570789 0.00603684
v 0.06667040 -0.05566849 0.00597165
v 0.06788939 -0.05585497 0.00536168
v 0.06828937 -0.05559758 0.00583662
v 0.06542284 -0.05608085 0.00527321
v 0.06667040 -0.05600205 0.00527321
v 0.07295582 -0.05538221 0.00518009
v 0.08798370 -0.05326266 0.00375061
v 0.08874557 -0.05316286 0.00350849
v 0.08918364 -0.05327579 0.00275883
v 0.08273632 -0.05445769 0.00359696
v 0.08679328 -0.05339661 0.00410915
v 0.09300251 -0.05229613 -0.00225597
v 0.08924078 -0.05359097 0.00150629
v 0.09019312 -0.05326003 0.00150629
v 0.08920269 -0.05328367 0.00271227
v 0.09104070 -0.05308669 0.00064023
v 0.09117403 -0.05314972 -0.00018859
v 0.09192637 -0.05290284 -0.00225597
v 0.09125974 -0.05318649 -0.00100344
v 0.07338438 -0.05560283 0.00459340
v 0.07418434 -0.05555030 0.00446302
v 0.07544142 -0.05545575 0.00423487
v 0.08058404 -0.05465731 0.00414174
v 0.07622234 -0.05565011 0.00345261
v 0.07920315 -0.05493834 0.00401602
v 0.08171732 -0.05456013 0.00385771
v 0.10712567 -0.04300111 -0.00759206
v 0.09358344 -0.05184175 -0.00379720
v 0.09281205 -0.05213591 -0.00484486
v 0.09258348 -0.05199409 -0.00601358
v 0.09242159 -0.05189428 -0.00672133
v 0.09308822 -0.05217006 -0.00343401
v 0.09211684 -0.05171831 -0.00755481
v 0.09170734 -0.05151082 -0.00850468
v 0.09249778 -0.05068611 -0.00926366
v 0.09124069 -0.05067823 -0.01049291
v 0.10625904 -0.04063993 -0.01297470
v 0.10836371 -0.04040093 -0.01137294
v 0.10859227 -0.03971805 -0.01203414
v 0.10764945 -0.03953420 -0.01311905
v 0.10848751 -0.03913235 -0.01273723
v 0.10754470 -0.03824198 -0.01426449
v 0.10618286 -0.03810541 -0.01542390
v 0.10480197 -0.03785064 -0.01658797
v 0.10348774 -0.03728333 -0.01778463
v 0.10282111 -0.03745667 -0.01820369
v 0.10272587 -0.03728333 -0.01831544
v 0.10132594 -0.03714675 -0.01927929
v 0.09897367 -0.03745667 -0.02062961
v 0.09715470 -0.03770356 -0.02155620
v 0.09790705 -0.03735424 -0.02126751
v 0.09464053 -0.03769831 -0.02280874
v 0.09424055 -0.03734899 -0.02311605
v 0.09373581 -0.03739626 -0.02334421
v 0.07672708 -0.05463367 -0.00963150
v 0.07296535 -0.05552929 -0.00891909
v 0.07296535 -0.05580244 -0.00829050
v 0.07171779 -0.05633036 -0.00726612
v 0.07046070 -0.05645905 -0.00726612
v 0.06759417 -0.05690818 -0.00672133
v 0.06668945 -0.05695020 -0.00685637
v 0.06544189 -0.05729164 -0.00601358
v 0.08526002 -0.05070975 -0.01301195
v 0.08422197 -0.05144516 -0.01239733
v 0.08609807 -0.05061257 -0.01290486
v 0.08672661 -0.05105119 -0.01219245
v 0.08577428 -0.05179185 -0.01154057
v 0.08541239 -0.05215955 -0.01108426
v 0.08422197 -0.05244584 -0.01102838
v 0.08046024 -0.05294486 -0.01139157
v 0.08046024 -0.05334408 -0.01076763
v 0.07795559 -0.05420030 -0.01009247
v 0.07795559 -0.05412676 -0.01021353
v 0.07707944 -0.05426859 -0.01021353
v 0.08429815 -0.04171415 -0.02334421
v 0.05793747 -0.05788521 -0.00476104
v 0.05919456 -0.05786158 -0.00476104
v 0.06044212 -0.05780905 -0.00476104
v 0.06535618 -0.05754378 -0.00484486
v 0.06419432 -0.05761206 -0.00484486
v 0.05291866 -0.05804543 -0.00350385
v 0.05167110 -0.05801917 -0.00350385
v 0.04666180 -0.05778541 -0.00350385
v 0.04539519 -0.05770399 -0.00350385
v 0.04459523 -0.05763833 -0.00350385
v 0.04539519 -0.05778541 -0.00225597
v 0.04459523 -0.05771450 -0.00225597
v 0.04412859 -0.05767248 -0.00225597
v 0.04288103 -0.05755691 -0.00225597
v 0.03036732 -0.05547151 0.00145507
v 0.03167202 -0.05571839 0.00145507
v 0.03129109 -0.05556343 0.00184154
v 0.04036686 -0.05715243 0.00025376
v 0.04460476 -0.05770137 -0.00179035
v 0.04459523 -0.05766984 -0.00099878
v 0.03903358 -0.05699748 0.00032826
v 0.03813839 -0.05693181 -0.00003493
v 0.03283387 -0.05590750 0.00150629
v 0.03409096 -0.05609135 0.00150629
v 0.03857646 -0.05687141 0.00079388
v 0.03283387 -0.05570001 0.00237236
v 0.03660513 -0.05612812 0.00275417
v 0.03903358 -0.05678211 0.00149698
v 0.04036686 -0.05683464 0.00192536
v 0.03660513 -0.05644855 0.00150629
v 0.03785269 -0.05661927 0.00150629
v 0.04112873 -0.05687141 0.00207901
v 0.04195726 -0.05690818 0.00221870
v 0.04502378 -0.05702899 0.00275883
v 0.04666180 -0.05715243 0.00275883
v 0.04789984 -0.05721022 0.00275883
v 0.05041401 -0.05731528 0.00275883
v 0.05165205 -0.05736255 0.00275883
v 0.05165205 -0.05702899 0.00376924
v 0.05290913 -0.05705263 0.00382046
v 0.05415669 -0.05705526 0.00383908
v 0.05791842 -0.05704475 0.00379718
v 0.05917551 -0.05678211 0.00441180
v 0.06042307 -0.05676898 0.00436990
v 0.06166111 -0.05629884 0.00527321
v 0.06791796 -0.05643804 0.00401602
v 0.06917505 -0.05583659 0.00510559
v 0.06667040 -0.05654573 0.00401602
v 0.06166111 -0.05673220 0.00429074
v 0.06416575 -0.05666392 0.00410449
v 0.08798370 -0.05360673 0.00275883
v 0.08357438 -0.05436577 0.00337811
v 0.08676471 -0.05388250 0.00275883
v 0.08046024 -0.05518260 0.00275883
v 0.08170780 -0.05494359 0.00275883
v 0.09185019 -0.05286869 -0.00350385
v 0.08924078 -0.05381684 0.00025376
v 0.08798370 -0.05393503 0.00150629
v 0.08787894 -0.05420556 0.00016529
v 0.09056453 -0.05333620 0.00023979
v 0.09048834 -0.05350692 -0.00100344
v 0.09129783 -0.05320225 -0.00225597
v 0.09048834 -0.05354106 -0.00225597
v 0.07295582 -0.05584709 0.00411846
v 0.07418434 -0.05580506 0.00383908
v 0.07544142 -0.05571051 0.00360627
v 0.07546047 -0.05598629 0.00275883
v 0.07880317 -0.05545312 0.00275883
v 0.07420338 -0.05617277 0.00275883
v 0.09163115 -0.05279778 -0.00466792
v 0.09174543 -0.05243270 -0.00601358
v 0.08987885 -0.05312609 -0.00666080
v 0.09170734 -0.05207813 -0.00719162
v 0.09127878 -0.05194418 -0.00808096
v 0.09087880 -0.05176033 -0.00891444
v 0.09167877 -0.05088310 -0.00971997
v 0.09047882 -0.05148455 -0.00972928
v 0.09048834 -0.05117726 -0.01021353
v 0.09048834 -0.05084370 -0.01073969
v 0.09048834 -0.05039195 -0.01136363
v 0.10126880 -0.04065044 -0.01674162
v 0.10210685 -0.04043244 -0.01645293
v 0.10350679 -0.04051124 -0.01529352
v 0.10488768 -0.04058215 -0.01413877
v 0.10553527 -0.04037729 -0.01388268
v 0.10671616 -0.03993342 -0.01346827
v 0.10708758 -0.04037204 -0.01258823
v 0.10723043 -0.03971805 -0.01327736
v 0.10635428 -0.03948430 -0.01430639
v 0.10718281 -0.03907719 -0.01395252
v 0.10668759 -0.03859130 -0.01470218
v 0.10545908 -0.03859918 -0.01565206
v 0.10397344 -0.03844159 -0.01690459
v 0.10258302 -0.03828401 -0.01803607
v 0.10344013 -0.03745667 -0.01775203
v 0.10194496 -0.03769831 -0.01868794
v 0.10175449 -0.03752234 -0.01887885
v 0.10108785 -0.03798459 -0.01913494
v 0.09874510 -0.03819733 -0.02048992
v 0.09631665 -0.03824198 -0.02176574
v 0.09380248 -0.03824198 -0.02301827
v 0.09341202 -0.03785064 -0.02334421
v 0.07795559 -0.05454174 -0.00946388
v 0.07672708 -0.05516421 -0.00851865
v 0.07545095 -0.05538746 -0.00843018
v 0.07502240 -0.05565273 -0.00795059
v 0.07296535 -0.05617277 -0.00726612
v 0.07171779 -0.05673220 -0.00593908
v 0.07046070 -0.05676898 -0.00624639
v 0.06843222 -0.05686878 -0.00659096
v 0.06668945 -0.05718658 -0.00601358
v 0.06669897 -0.05743347 -0.00484486
v 0.08671709 -0.04115209 -0.02334421
v 0.08783133 -0.04087894 -0.02334421
v 0.08672661 -0.05053640 -0.01281639
v 0.08672661 -0.05167891 -0.01137294
v 0.08798370 -0.05036831 -0.01261617
v 0.08798370 -0.05088572 -0.01198757
v 0.08672661 -0.05208076 -0.01074435
v 0.08422197 -0.05295274 -0.01021353
v 0.08334582 -0.05307093 -0.01031132
v 0.07933648 -0.05414515 -0.00973859
v 0.07900316 -0.05445244 -0.00930091
v 0.05793747 -0.05804543 -0.00350385
v 0.05919456 -0.05801917 -0.00350385
v 0.06044212 -0.05796926 -0.00350385
v 0.06419432 -0.05762782 -0.00476104
v 0.06292772 -0.05785632 -0.00350385
v 0.06544189 -0.05755428 -0.00476104
v 0.05418526 -0.05812685 -0.00248879
v 0.05294723 -0.05812685 -0.00226063
v 0.05167110 -0.05809270 -0.00225597
v 0.04790936 -0.05792724 -0.00225597
v 0.04666180 -0.05786683 -0.00225597
v 0.04666180 -0.05783006 -0.00100344
v 0.04539519 -0.05773814 -0.00100344
v 0.04036686 -0.05697384 0.00129676
v 0.03940500 -0.05692393 0.00107326
v 0.04460476 -0.05753590 0.00025376
v 0.04539519 -0.05738094 0.00150629
v 0.04460476 -0.05702637 0.00263311
v 0.04666180 -0.05747024 0.00150629
v 0.04790936 -0.05752802 0.00150629
v 0.05167110 -0.05768035 0.00150629
v 0.04916645 -0.05758055 0.00150629
v 0.05291866 -0.05772763 0.00150629
v 0.05290913 -0.05740720 0.00275883
v 0.05418526 -0.05742559 0.00275883
v 0.05543283 -0.05741508 0.00275883
v 0.05917551 -0.05737831 0.00276348
v 0.05917551 -0.05703425 0.00378321
v 0.06042307 -0.05702111 0.00374596
v 0.06166111 -0.05698959 0.00366680
v 0.06667040 -0.05683989 0.00324774
v 0.06791796 -0.05678211 0.00306149
v 0.06498476 -0.05689242 0.00342002
v 0.06581330 -0.05686878 0.00334552
v 0.08346010 -0.05457851 0.00275883
v 0.08500289 -0.05440779 0.00223733
v 0.08583142 -0.05431850 0.00187879
v 0.07949838 -0.05557656 0.00189276
v 0.08047928 -0.05550565 0.00148301
v 0.08170780 -0.05526927 0.00150629
v 0.07866032 -0.05564485 0.00217679
v 0.09122165 -0.05316811 -0.00350385
v 0.09113593 -0.05312871 -0.00418367
v 0.08924078 -0.05395867 -0.00100344
v 0.08670757 -0.05422657 0.00147835
v 0.08626949 -0.05441042 0.00104067
v 0.08710755 -0.05432375 0.00051916
v 0.08814559 -0.05426071 -0.00100344
v 0.08739325 -0.05438416 -0.00031431
v 0.08924078 -0.05399281 -0.00225597
v 0.08924078 -0.05392715 -0.00350385
v 0.09048834 -0.05347015 -0.00350385
v 0.07296535 -0.05632773 0.00275883
v 0.07546047 -0.05630935 0.00150629
v 0.07296535 -0.05665078 0.00150629
v 0.07420338 -0.05649320 0.00150629
v 0.09094547 -0.05304467 -0.00502179
v 0.09068833 -0.05292910 -0.00601358
v 0.09047882 -0.05211227 -0.00850468
v 0.09005979 -0.05320225 -0.00601358
v 0.08924078 -0.05348591 -0.00601358
v 0.08924078 -0.05322852 -0.00693552
v 0.08855510 -0.05310770 -0.00785281
v 0.08924078 -0.05299214 -0.00756412
v 0.09003122 -0.05194155 -0.00927762
v 0.08924078 -0.05171831 -0.01015300
v 0.08929792 -0.05106695 -0.01111685
v 0.08973600 -0.05056792 -0.01159179
v 0.09040264 -0.04970119 -0.01227161
v 0.09743088 -0.04061367 -0.01919548
v 0.09976411 -0.04053487 -0.01783585
v 0.10053550 -0.04033001 -0.01759838
v 0.10171640 -0.03994918 -0.01724916
v 0.10276397 -0.03959461 -0.01692322
v 0.10313538 -0.04005423 -0.01611768
v 0.10404962 -0.03971805 -0.01581037
v 0.10545908 -0.03971805 -0.01472546
v 0.10497339 -0.03939237 -0.01546580
v 0.10582097 -0.03894062 -0.01513521
v 0.10359250 -0.03927943 -0.01661590
v 0.10217352 -0.03911659 -0.01775669
v 0.10175449 -0.03870686 -0.01828750
v 0.10025932 -0.03844159 -0.01939569
v 0.09830703 -0.03902992 -0.02021520
v 0.09794514 -0.03865434 -0.02067617
v 0.09982125 -0.03927943 -0.01912563
v 0.09646902 -0.03838644 -0.02160742
v 0.09330726 -0.03907719 -0.02277149
v 0.09293585 -0.03868323 -0.02317659
v 0.09256444 -0.03865959 -0.02334421
v 0.07795559 -0.05497774 -0.00851865
v 0.07585093 -0.05559495 -0.00779228
v 0.07545095 -0.05580244 -0.00733130
v 0.07672708 -0.05573415 -0.00697743
v 0.07296535 -0.05654573 -0.00601358
v 0.07212729 -0.05685827 -0.00523133
v 0.07128923 -0.05690292 -0.00546880
v 0.07046070 -0.05694232 -0.00561780
v 0.06669897 -0.05744923 -0.00476104
v 0.08793608 -0.04085005 -0.02334421
v 0.08805989 -0.05156860 -0.01099113
v 0.08768847 -0.05196257 -0.01055344
v 0.08869795 -0.04060579 -0.02334421
v 0.08985028 -0.04059003 -0.02292515
v 0.08924078 -0.04952785 -0.01308180
v 0.08891699 -0.05073076 -0.01180132
v 0.08667900 -0.05240118 -0.01021353
v 0.08546001 -0.05267696 -0.01021353
v 0.08423149 -0.05332832 -0.00953372
v 0.08546953 -0.05284768 -0.00991553
v 0.07983170 -0.05437102 -0.00914725
v 0.07933648 -0.05468620 -0.00864437
v 0.05793747 -0.05811897 -0.00225597
v 0.05919456 -0.05809533 -0.00225597
v 0.06044212 -0.05806119 -0.00225597
v 0.06419432 -0.05779329 -0.00350385
v 0.06544189 -0.05771975 -0.00350385
v 0.06669897 -0.05761732 -0.00350385
v 0.05418526 -0.05814524 -0.00186485
v 0.05337578 -0.05814524 -0.00184156
v 0.05668039 -0.05812422 -0.00225597
v 0.05337578 -0.05814524 -0.00155288
v 0.04790936 -0.05789047 -0.00100344
v 0.04666180 -0.05769874 0.00025376
v 0.04539519 -0.05760156 0.00025376
v 0.04790936 -0.05775652 0.00025376
v 0.05167110 -0.05790886 0.00025376
v 0.05291866 -0.05795350 0.00025376
v 0.05418526 -0.05796664 0.00025376
v 0.05418526 -0.05773814 0.00150629
v 0.05919456 -0.05769349 0.00150629
v 0.06044212 -0.05765934 0.00150629
v 0.06044212 -0.05734417 0.00275883
v 0.06166111 -0.05728376 0.00276348
v 0.06669897 -0.05698435 0.00275883
v 0.06794653 -0.05687666 0.00275883
v 0.06419432 -0.05713668 0.00275883
v 0.06669897 -0.05702637 0.00261448
v 0.08007930 -0.05566849 0.00105463
v 0.08090783 -0.05559758 0.00067282
v 0.09050739 -0.05330206 -0.00466792
v 0.09073595 -0.05317074 -0.00484486
v 0.08823131 -0.05427910 -0.00225597
v 0.08296489 -0.05523513 0.00025376
v 0.08123163 -0.05566061 -0.00016065
v 0.08751705 -0.05441567 -0.00100344
v 0.08142210 -0.05570001 -0.00100344
v 0.08673614 -0.05458377 -0.00100344
v 0.08750753 -0.05441042 -0.00325707
v 0.08794560 -0.05426859 -0.00360629
v 0.08798370 -0.05410838 -0.00476104
v 0.08924078 -0.05375118 -0.00476104
v 0.06973693 -0.05687141 0.00208367
v 0.07546047 -0.05653522 0.00025376
v 0.06794653 -0.05719446 0.00150629
v 0.07141304 -0.05691606 0.00104067
v 0.07225109 -0.05687141 0.00080785
v 0.07296535 -0.05682938 0.00053313
v 0.07409863 -0.05675321 0.00014666
v 0.09045025 -0.05329155 -0.00484486
v 0.08924078 -0.05258504 -0.00851865
v 0.08924078 -0.05373542 -0.00484486
v 0.08798370 -0.05409262 -0.00484486
v 0.08798370 -0.05383785 -0.00601358
v 0.08806941 -0.05339661 -0.00736856
v 0.08673614 -0.05375118 -0.00726612
v 0.08772657 -0.05321276 -0.00809959
v 0.08806941 -0.05293698 -0.00851865
v 0.08924078 -0.05208601 -0.00952441
v 0.08904079 -0.05175245 -0.01021353
v 0.08851701 -0.05184175 -0.01035788
v 0.08929792 -0.05021860 -0.01224367
v 0.08991694 -0.04938864 -0.01293745
v 0.09580239 -0.04044820 -0.02025711
v 0.09676425 -0.04021445 -0.02000101
v 0.09747850 -0.03939762 -0.02047595
v 0.09786895 -0.03989928 -0.01970767
v 0.09826894 -0.04039830 -0.01893472
v 0.10053550 -0.03971805 -0.01826422
v 0.10133546 -0.03946591 -0.01803141
v 0.09573572 -0.03898527 -0.02160742
v 0.09246921 -0.03939237 -0.02297637
v 0.09498338 -0.03940025 -0.02172849
v 0.09208827 -0.03901941 -0.02334421
v 0.07920315 -0.05524301 -0.00726612
v 0.07800321 -0.05546625 -0.00721955
v 0.07672708 -0.05552929 -0.00760137
v 0.07672708 -0.05601256 -0.00601358
v 0.07845081 -0.05560808 -0.00656768
v 0.07234633 -0.05688979 -0.00484486
v 0.07177493 -0.05695545 -0.00484486
v 0.07795559 -0.05607822 -0.00484486
v 0.07795559 -0.05609398 -0.00476104
v 0.06920362 -0.05721810 -0.00476104
v 0.08838368 -0.05196520 -0.01021353
v 0.08787894 -0.05210702 -0.01021353
v 0.08956458 -0.04025647 -0.02334421
v 0.09061215 -0.03980735 -0.02334421
v 0.09175495 -0.03956309 -0.02311605
v 0.09048834 -0.04046133 -0.02279012
v 0.09248825 -0.04063468 -0.02173314
v 0.08661233 -0.05273212 -0.00965013
v 0.08546953 -0.05319175 -0.00928694
v 0.08611712 -0.05312346 -0.00915191
v 0.08423149 -0.05380371 -0.00851865
v 0.08046024 -0.05431062 -0.00901222
v 0.08246015 -0.05439466 -0.00794593
v 0.05919456 -0.05805068 -0.00100344
v 0.05497570 -0.05813736 -0.00160410
v 0.05418526 -0.05814524 -0.00155753
v 0.06044212 -0.05802704 -0.00100344
v 0.06419432 -0.05786420 -0.00225597
v 0.06544189 -0.05779066 -0.00225597
v 0.06669897 -0.05770137 -0.00225597
v 0.06920362 -0.05738094 -0.00350385
v 0.06794653 -0.05758843 -0.00225597
v 0.05418526 -0.05809533 -0.00092894
v 0.05294723 -0.05809533 -0.00108259
v 0.05167110 -0.05804543 -0.00100344
v 0.04916645 -0.05794300 -0.00100344
v 0.05793747 -0.05806907 -0.00100344
v 0.05919456 -0.05791936 0.00025376
v 0.06044212 -0.05789047 0.00025376
v 0.06168968 -0.05760156 0.00150629
v 0.06794653 -0.05696858 0.00242823
v 0.06669897 -0.05730214 0.00150629
v 0.06544189 -0.05738094 0.00150629
v 0.07921268 -0.05593639 0.00025376
v 0.08166971 -0.05550565 0.00025376
v 0.08047928 -0.05573153 0.00025376
v 0.08760276 -0.05443406 -0.00225597
v 0.07921268 -0.05607297 -0.00100344
v 0.08046024 -0.05587073 -0.00100344
v 0.08546953 -0.05490157 -0.00225597
v 0.08673614 -0.05462579 -0.00225597
v 0.08149829 -0.05571051 -0.00225597
v 0.08422197 -0.05516421 -0.00225597
v 0.08046024 -0.05590225 -0.00225597
v 0.08546953 -0.05483328 -0.00350385
v 0.08684089 -0.05452861 -0.00360629
v 0.08733611 -0.05437102 -0.00409054
v 0.08709802 -0.05431850 -0.00476104
v 0.07546047 -0.05666917 -0.00100344
v 0.07361294 -0.05688979 -0.00034225
v 0.06794653 -0.05742033 0.00025376
v 0.07178445 -0.05699222 0.00033757
v 0.08621235 -0.05439466 -0.00547345
v 0.08667900 -0.05416616 -0.00593908
v 0.08484099 -0.05437102 -0.00663752
v 0.08546953 -0.05402696 -0.00726612
v 0.08546953 -0.05354369 -0.00851865
v 0.08695518 -0.05302891 -0.00893772
v 0.08805989 -0.05224885 -0.00987363
v 0.08865033 -0.05188640 -0.01021353
v 0.09332631 -0.04046133 -0.02152361
v 0.09425960 -0.03959461 -0.02191008
v 0.09899271 -0.03956046 -0.01938173
v 0.09830703 -0.03977058 -0.01958195
v 0.09280252 -0.03980735 -0.02241296
v 0.09175495 -0.04019081 -0.02252005
v 0.09175495 -0.03980735 -0.02288790
v 0.09143116 -0.03941863 -0.02334421
v 0.08329820 -0.05431850 -0.00772243
v 0.07800321 -0.05580244 -0.00609739
v 0.07920315 -0.05571314 -0.00569230
v 0.07992693 -0.05564485 -0.00545017
v 0.07259394 -0.05691868 -0.00439320
v 0.07171779 -0.05713405 -0.00350385
v 0.07045118 -0.05726275 -0.00350385
v 0.07921268 -0.05587598 -0.00484486
v 0.07795559 -0.05626207 -0.00350385
v 0.07341295 -0.05686090 -0.00394154
v 0.06168968 -0.05795876 -0.00100344
v 0.06168968 -0.05782481 0.00025376
v 0.06544189 -0.05773814 -0.00100344
v 0.06669897 -0.05765934 -0.00100344
v 0.06794653 -0.05755954 -0.00100344
v 0.07171779 -0.05720234 -0.00225597
v 0.06669897 -0.05752802 0.00025376
v 0.07795559 -0.05632511 -0.00225597
v 0.07921268 -0.05612024 -0.00225597
v 0.08134591 -0.05567637 -0.00327104
v 0.08422197 -0.05509330 -0.00350385
v 0.07921268 -0.05604670 -0.00350385
v 0.08546953 -0.05467044 -0.00476104
v 0.08647901 -0.05445507 -0.00476104
v 0.07670803 -0.05651946 -0.00225597
v 0.07442242 -0.05682676 -0.00100344
v 0.07296535 -0.05701324 -0.00100344
v 0.07380340 -0.05691606 -0.00100344
v 0.08546953 -0.05465731 -0.00484486
v 0.08422197 -0.05492783 -0.00476104
v 0.08546953 -0.05447608 -0.00576214
v 0.08434577 -0.05425546 -0.00728940
v 0.08434577 -0.05460215 -0.00613464
v 0.07299392 -0.05697384 -0.00351782
v 0.07377483 -0.05691080 -0.00310807
v 0.07296535 -0.05705526 -0.00225597
v 0.08057452 -0.05578405 -0.00361560
v 0.08106974 -0.05562384 -0.00410451
v 0.07546047 -0.05670856 -0.00225597
v 0.07454623 -0.05684514 -0.00225597
v 0.07392721 -0.05692919 -0.00225597
f 1 2 7
f 1 7 53
f 1 53 59
f 1 59 122
f 1 122 190
f 1 190 297
f 1 297 433
f 1 433 570
f 1 570 709
f 1 709 845
f 1 845 963
f 1 963 1086
f 1 1086 1197
f 1 1197 1291
f 1 1291 1369
f 1 1369 1305
f 1 1305 1304
f 1 1304 1210
f 1 1210 1207
f 1 1207 1098
f 1 1098 1097
f 1 1097 984
f 1 984 861
f 1 861 723
f 1 723 582
f 1 582 444
f 1 444 305
f 1 305 198
f 1 198 128
f 1 128 127
f 1 127 126
f 1 126 125
f 1 125 63
f 1 63 62
f 1 62 60
f 1 60 9
f 1 9 3
f 1 3 4
f 1 4 5
f 1 5 6
f 1 6 8
f 1 8 2
f 2 8 7
f 3 9 4
f 4 9 10
f 4 10 11
f 4 11 5
f 5 12 13
f 5 13 14
f 5 14 15
f 5 15 16
f 5 16 17
f 5 17 18
f 5 18 6
f 5 11 19
f 5 19 20
f 5 20 21
f 5 21 22
f 5 22 23
f 5 23 12
f 6 24 25
f 6 25 26
f 6 26 27
f 6 27 28
f 6 28 29
f 6 29 30
f 6 30 31
f 6 31 32
f 6 32 33
f 6 33 34
f 6 34 35
f 6 35 36
f 6 36 37
f 6 37 38
f 6 38 39
f 6 39 40
f 6 40 41
f 6 41 42
f 6 42 43
f 6 43 44
f 6 44 45
f 6 45 46
f 6 46 47
f 6 47 48
f 6 48 49
f 6 49 50
f 6 50 51
f 6 51 54
f 6 54 8
f 6 18 52
f 6 52 24
f 7 8 53
f 8 54 55
f 8 55 56
f 8 56 57
f 8 57 58
f 8 58 59
f 8 59 53
f 9 60 10
f 10 61 11
f 10 60 62
f 10 62 63
f 10 63 64
f 10 64 61
f 11 65 66
f 11 66 19
f 11 61 67
f 11 67 65
f 12 68 13
f 12 23 69
f 12 69 68
f 13 68 70
f 13 70 14
f 14 70 15
f 15 71 16
f 15 70 71
f 16 72 73
f 16 73 52
f 16 52 18
f 16 18 17
f 16 71 72
f 19 66 20
f 20 66 74
f 20 74 75
f 20 75 21
f 21 75 23
f 21 23 22
f 23 75 76
f 23 76 69
f 24 52 25
f 25 52 77
f 25 77 26
f 26 77 78
f 26 78 79
f 26 79 27
f 27 79 80
f 27 80 28
f 28 80 29
f 29 80 81
f 29 81 30
f 30 81 82
f 30 82 83
f 30 83 31
f 31 83 84
f 31 84 32
f 32 84 33
f 33 84 85
f 33 85 34
f 34 85 86
f 34 86 87
f 34 87 35
f 35 87 36
f 36 87 88
f 36 88 89
f 36 89 39
f 36 39 38
f 36 38 37
f 39 89 90
f 39 90 91
f 39 91 92
f 39 92 93
f 39 93 94
f 39 94 95
f 39 95 40
f 40 95 41
f 41 95 96
f 41 96 97
f 41 97 42
f 42 97 98
f 42 98 43
f 43 98 44
f 44 98 99
f 44 99 100
f 44 100 101
f 44 101 45
f 45 101 46
f 46 101 102
f 46 102 103
f 46 103 104
f 46 104 105
f 46 105 47
f 47 106 48
f 47 105 106
f 48 106 49
f 49 106 107
f 49 107 50
f 50 108 51
f 50 107 108
f 51 108 109
f 51 109 110
f 51 110 111
f 51 111 112
f 51 112 113
f 51 113 114
f 51 114 115
f 51 115 55
f 51 55 54
f 52 73 116
f 52 116 77
f 55 115 179
f 55 179 117
f 55 117 118
f 55 118 56
f 56 58 57
f 56 118 119
f 56 119 120
f 56 120 121
f 56 121 58
f 58 122 59
f 58 121 122
f 61 64 123
f 61 123 124
f 61 124 67
f 63 125 64
f 64 125 126
f 64 126 127
f 64 127 128
f 64 128 129
f 64 129 123
f 65 130 66
f 65 67 130
f 66 130 131
f 66 131 74
f 67 132 133
f 67 133 130
f 67 124 132
f 68 134 135
f 68 135 136
f 68 136 70
f 68 69 137
f 68 137 134
f 69 138 137
f 69 76 139
f 69 139 138
f 70 136 71
f 71 140 72
f 71 136 140
f 72 140 141
f 72 141 142
f 72 142 73
f 73 142 143
f 73 143 144
f 73 144 116
f 74 131 76
f 74 76 75
f 76 131 201
f 76 201 139
f 77 116 145
f 77 145 78
f 78 145 79
f 79 145 146
f 79 146 80
f 80 147 82
f 80 82 81
f 80 146 215
f 80 215 147
f 82 148 149
f 82 149 83
f 82 147 150
f 82 150 148
f 83 149 84
f 84 149 151
f 84 151 152
f 84 152 85
f 85 153 86
f 85 152 153
f 86 153 152
f 86 152 154
f 86 154 155
f 86 155 156
f 86 156 87
f 87 156 88
f 88 90 89
f 88 156 90
f 90 157 92
f 90 92 91
f 90 156 158
f 90 158 159
f 90 159 157
f 92 160 161
f 92 161 93
f 92 157 160
f 93 161 162
f 93 162 94
f 94 162 95
f 95 162 96
f 96 163 97
f 96 162 164
f 96 164 163
f 97 163 165
f 97 165 98
f 98 166 99
f 98 165 166
f 99 167 100
f 99 166 167
f 100 168 102
f 100 102 101
f 100 167 168
f 102 168 169
f 102 169 170
f 102 170 103
f 103 171 172
f 103 172 104
f 103 170 171
f 104 172 107
f 104 107 106
f 104 106 105
f 107 173 108
f 107 172 173
f 108 173 174
f 108 174 109
f 109 174 175
f 109 175 110
f 110 175 111
f 111 175 176
f 111 176 112
f 112 176 177
f 112 177 113
f 113 177 114
f 114 177 115
f 115 177 178
f 115 178 179
f 116 144 180
f 116 180 145
f 117 179 182
f 117 182 181
f 117 181 118
f 118 181 119
f 119 181 182
f 119 182 183
f 119 183 184
f 119 184 185
f 119 185 186
f 119 186 187
f 119 187 188
f 119 188 120
f 120 188 189
f 120 189 121
f 121 189 122
f 122 189 190
f 123 129 191
f 123 191 192
f 123 192 193
f 123 193 194
f 123 194 124
f 124 194 195
f 124 195 132
f 128 196 197
f 128 197 192
f 128 192 191
f 128 191 129
f 128 198 199
f 128 199 196
f 130 133 200
f 130 200 201
f 130 201 131
f 132 202 203
f 132 203 133
f 132 195 202
f 133 203 200
f 134 204 135
f 134 137 204
f 135 204 205
f 135 205 136
f 136 205 206
f 136 206 140
f 137 138 207
f 137 207 208
f 137 208 204
f 138 139 207
f 139 201 307
f 139 307 209
f 139 209 207
f 140 210 211
f 140 211 142
f 140 142 141
f 140 206 210
f 142 211 212
f 142 212 143
f 143 212 213
f 143 213 144
f 144 213 214
f 144 214 180
f 145 215 146
f 145 180 215
f 147 215 216
f 147 216 150
f 148 150 217
f 148 217 151
f 148 151 149
f 150 218 219
f 150 219 217
f 150 216 220
f 150 220 221
f 150 221 222
f 150 222 223
f 150 223 218
f 151 217 224
f 151 224 152
f 152 224 225
f 152 225 154
f 154 226 155
f 154 225 219
f 154 219 226
f 155 226 227
f 155 227 156
f 156 227 228
f 156 228 158
f 157 159 229
f 157 229 230
f 157 230 231
f 157 231 160
f 158 228 159
f 159 228 232
f 159 232 233
f 159 233 234
f 159 234 235
f 159 235 229
f 160 231 236
f 160 236 237
f 160 237 238
f 160 238 239
f 160 239 164
f 160 164 161
f 161 164 162
f 163 240 241
f 163 241 165
f 163 164 240
f 164 239 240
f 165 242 166
f 165 241 242
f 166 242 243
f 166 243 244
f 166 244 167
f 167 244 169
f 167 169 168
f 169 244 245
f 169 245 170
f 170 246 171
f 170 245 247
f 170 247 246
f 171 248 172
f 171 246 248
f 172 248 174
f 172 174 173
f 174 176 175
f 174 248 176
f 176 248 249
f 176 249 250
f 176 250 177
f 177 250 251
f 177 251 178
f 178 251 179
f 179 251 252
f 179 252 253
f 179 253 254
f 179 254 255
f 179 255 256
f 179 256 257
f 179 257 258
f 179 258 259
f 179 259 182
f 180 214 216
f 180 216 215
f 182 259 260
f 182 260 261
f 182 261 262
f 182 262 263
f 182 263 264
f 182 264 265
f 182 265 266
f 182 266 267
f 182 267 268
f 182 268 269
f 182 269 270
f 182 270 271
f 182 271 272
f 182 272 273
f 182 273 274
f 182 274 275
f 182 275 276
f 182 276 277
f 182 277 278
f 182 278 279
f 182 279 280
f 182 280 281
f 182 281 282
f 182 282 283
f 182 283 284
f 182 284 183
f 183 284 285
f 183 285 184
f 184 286 185
f 184 285 287
f 184 287 288
f 184 288 289
f 184 289 286
f 185 286 290
f 185 290 186
f 186 290 187
f 187 290 291
f 187 291 292
f 187 292 293
f 187 293 294
f 187 294 295
f 187 295 296
f 187 296 189
f 187 189 188
f 189 296 297
f 189 297 190
f 192 197 193
f 193 197 298
f 193 298 194
f 194 298 299
f 194 299 195
f 195 299 300
f 195 300 301
f 195 301 202
f 196 302 303
f 196 303 304
f 196 304 197
f 196 199 302
f 197 304 298
f 198 305 199
f 199 305 302
f 200 203 306
f 200 306 201
f 201 306 307
f 202 301 308
f 202 308 309
f 202 309 203
f 203 309 310
f 203 310 311
f 203 311 306
f 204 208 312
f 204 312 313
f 204 313 205
f 205 313 206
f 206 313 314
f 206 314 315
f 206 315 316
f 206 316 210
f 207 209 317
f 207 317 208
f 208 317 312
f 209 307 447
f 209 447 318
f 209 318 319
f 209 319 317
f 210 316 211
f 211 316 320
f 211 320 212
f 212 320 213
f 213 321 214
f 213 320 322
f 213 322 321
f 214 321 216
f 216 321 323
f 216 323 221
f 216 221 220
f 217 225 224
f 217 219 225
f 218 324 219
f 218 223 325
f 218 325 324
f 219 324 326
f 219 326 227
f 219 227 327
f 219 327 226
f 221 323 328
f 221 328 222
f 222 328 223
f 223 328 329
f 223 329 325
f 226 327 227
f 227 326 330
f 227 330 331
f 227 331 232
f 227 232 228
f 229 235 230
f 230 332 231
f 230 235 333
f 230 333 334
f 230 334 332
f 231 332 236
f 232 331 233
f 233 335 234
f 233 331 330
f 233 330 336
f 233 336 337
f 233 337 338
f 233 338 335
f 234 335 339
f 234 339 340
f 234 340 333
f 234 333 235
f 236 332 341
f 236 341 342
f 236 342 343
f 236 343 237
f 237 343 238
f 238 343 344
f 238 344 346
f 238 346 345
f 238 345 240
f 238 240 239
f 240 345 241
f 241 345 346
f 241 346 347
f 241 347 348
f 241 348 242
f 242 348 243
f 243 348 349
f 243 349 350
f 243 350 351
f 243 351 244
f 244 351 245
f 245 351 352
f 245 352 247
f 246 247 249
f 246 249 248
f 247 352 249
f 249 352 353
f 249 353 354
f 249 354 250
f 250 354 251
f 251 354 252
f 252 354 253
f 253 354 353
f 253 353 355
f 253 355 356
f 253 356 254
f 254 356 357
f 254 357 255
f 255 358 256
f 255 357 358
f 256 358 359
f 256 359 360
f 256 360 257
f 257 360 258
f 258 360 259
f 259 360 361
f 259 361 260
f 260 361 261
f 261 361 362
f 261 362 363
f 261 363 364
f 261 364 365
f 261 365 366
f 261 366 367
f 261 367 262
f 262 367 368
f 262 368 263
f 263 368 264
f 264 368 369
f 264 369 370
f 264 370 265
f 265 370 371
f 265 371 372
f 265 372 266
f 266 372 267
f 267 372 373
f 267 373 268
f 268 373 374
f 268 374 269
f 269 374 375
f 269 375 376
f 269 376 377
f 269 377 270
f 270 377 378
f 270 378 271
f 271 378 379
f 271 379 380
f 271 380 272
f 272 380 381
f 272 381 273
f 273 381 274
f 274 381 382
f 274 382 383
f 274 383 276
f 274 276 275
f 276 383 384
f 276 384 385
f 276 385 277
f 277 385 278
f 278 385 386
f 278 386 279
f 279 386 387
f 279 387 280
f 280 387 388
f 280 388 389
f 280 389 390
f 280 390 391
f 280 391 392
f 280 392 393
f 280 393 394
f 280 394 281
f 281 394 285
f 281 285 282
f 282 285 283
f 283 285 284
f 285 394 287
f 286 289 395
f 286 395 291
f 286 291 290
f 287 394 396
f 287 396 397
f 287 397 398
f 287 398 399
f 287 399 288
f 288 400 401
f 288 401 402
f 288 402 403
f 288 403 289
f 288 399 404
f 288 404 405
f 288 405 406
f 288 406 407
f 288 407 408
f 288 408 400
f 289 409 395
f 289 403 409
f 291 395 409
f 291 409 410
f 291 410 292
f 292 410 411
f 292 411 293
f 293 411 412
f 293 412 413
f 293 413 294
f 294 413 412
f 294 412 414
f 294 414 415
f 294 415 295
f 295 415 416
f 295 416 417
f 295 417 296
f 296 417 418
f 296 418 419
f 296 419 420
f 296 420 421
f 296 421 422
f 296 422 423
f 296 423 424
f 296 424 425
f 296 425 426
f 296 426 427
f 296 427 428
f 296 428 429
f 296 429 430
f 296 430 431
f 296 431 432
f 296 432 297
f 297 432 569
f 297 569 433
f 298 304 299
f 299 304 434
f 299 434 435
f 299 435 300
f 300 436 301
f 300 435 436
f 301 436 437
f 301 437 438
f 301 438 439
f 301 439 308
f 302 440 303
f 302 305 441
f 302 441 442
f 302 442 440
f 303 440 443
f 303 443 434
f 303 434 304
f 305 444 445
f 305 445 441
f 306 311 310
f 306 310 446
f 306 446 307
f 307 446 447
f 308 439 309
f 309 439 310
f 310 439 448
f 310 448 449
f 310 449 446
f 312 317 319
f 312 319 313
f 313 319 314
f 314 450 451
f 314 451 452
f 314 452 453
f 314 453 315
f 314 319 450
f 315 453 454
f 315 454 320
f 315 320 316
f 318 447 584
f 318 584 455
f 318 455 319
f 319 455 456
f 319 456 451
f 319 451 450
f 320 457 322
f 320 454 457
f 321 322 458
f 321 458 323
f 322 459 458
f 322 457 459
f 323 458 328
f 324 325 460
f 324 460 336
f 324 336 326
f 325 329 328
f 325 328 461
f 325 461 462
f 325 462 460
f 326 336 330
f 328 458 463
f 328 463 461
f 332 334 333
f 332 333 464
f 332 464 465
f 332 465 341
f 333 340 466
f 333 466 464
f 335 338 339
f 336 460 337
f 337 467 468
f 337 468 469
f 337 469 470
f 337 470 338
f 337 460 471
f 337 471 467
f 338 470 339
f 339 470 340
f 340 470 472
f 340 472 466
f 341 473 342
f 341 465 474
f 341 474 473
f 342 473 475
f 342 475 343
f 343 475 476
f 343 476 477
f 343 477 344
f 344 477 478
f 344 478 346
f 346 478 347
f 347 478 479
f 347 479 349
f 347 349 348
f 349 480 350
f 349 479 481
f 349 481 482
f 349 482 480
f 350 480 483
f 350 483 352
f 350 352 351
f 352 483 355
f 352 355 353
f 355 483 484
f 355 484 356
f 356 484 485
f 356 485 357
f 357 485 358
f 358 485 486
f 358 486 487
f 358 487 359
f 359 488 363
f 359 363 360
f 359 487 488
f 360 363 362
f 360 362 361
f 363 488 364
f 364 488 489
f 364 489 490
f 364 490 491
f 364 491 366
f 364 366 365
f 366 491 490
f 366 490 492
f 366 492 493
f 366 493 494
f 366 494 495
f 366 495 496
f 366 496 497
f 366 497 498
f 366 498 499
f 366 499 368
f 366 368 367
f 368 499 370
f 368 370 369
f 370 499 371
f 371 499 498
f 371 498 372
f 372 498 500
f 372 500 373
f 373 500 374
f 374 500 375
f 375 501 376
f 375 500 502
f 375 502 501
f 376 501 503
f 376 503 504
f 376 504 378
f 376 378 377
f 378 504 505
f 378 505 506
f 378 506 379
f 379 506 507
f 379 507 380
f 380 507 381
f 381 507 382
f 382 507 508
f 382 508 509
f 382 509 383
f 383 509 384
f 384 509 510
f 384 510 511
f 384 511 385
f 385 511 512
f 385 512 386
f 386 512 513
f 386 513 514
f 386 514 389
f 386 389 388
f 386 388 387
f 389 514 390
f 390 514 515
f 390 515 516
f 390 516 391
f 391 516 517
f 391 517 392
f 392 518 519
f 392 519 393
f 392 517 518
f 393 519 520
f 393 520 521
f 393 521 394
f 394 521 396
f 396 521 397
f 397 522 523
f 397 523 398
f 397 521 520
f 397 520 524
f 397 524 525
f 397 525 522
f 398 523 399
f 399 523 526
f 399 526 527
f 399 527 528
f 399 528 529
f 399 529 404
f 400 530 401
f 400 408 531
f 400 531 532
f 400 532 533
f 400 533 530
f 401 530 534
f 401 534 402
f 402 535 536
f 402 536 403
f 402 534 537
f 402 537 415
f 402 415 414
f 402 414 535
f 403 410 409
f 403 536 410
f 404 529 528
f 404 528 538
f 404 538 539
f 404 539 540
f 404 540 541
f 404 541 542
f 404 542 543
f 404 543 405
f 405 544 545
f 405 545 406
f 405 543 544
f 406 545 407
f 407 545 546
f 407 546 547
f 407 547 408
f 408 547 532
f 408 532 531
f 410 536 411
f 411 536 548
f 411 548 412
f 412 548 414
f 414 548 535
f 415 537 549
f 415 549 550
f 415 550 551
f 415 551 416
f 416 551 552
f 416 552 553
f 416 553 417
f 417 553 554
f 417 554 418
f 418 554 555
f 418 555 419
f 419 555 556
f 419 556 420
f 420 557 421
f 420 556 557
f 421 557 422
f 422 557 558
f 422 558 559
f 422 559 423
f 423 559 560
f 423 560 424
f 424 560 702
f 424 702 561
f 424 561 425
f 425 562 563
f 425 563 426
f 425 561 702
f 425 702 562
f 426 563 564
f 426 564 427
f 427 564 565
f 427 565 428
f 428 565 429
f 429 565 566
f 429 566 430
f 430 566 567
f 430 567 431
f 431 568 569
f 431 569 432
f 431 567 568
f 433 569 570
f 434 443 571
f 434 571 435
f 435 572 436
f 435 571 572
f 436 573 574
f 436 574 437
f 436 572 575
f 436 575 573
f 437 574 438
f 438 574 576
f 438 576 577
f 438 577 439
f 439 577 448
f 440 442 578
f 440 578 443
f 441 445 442
f 442 445 579
f 442 579 580
f 442 580 578
f 443 578 580
f 443 580 581
f 443 581 571
f 444 582 445
f 445 582 583
f 445 583 579
f 446 449 447
f 447 449 584
f 448 577 585
f 448 585 586
f 448 586 587
f 448 587 449
f 449 587 584
f 451 456 588
f 451 588 589
f 451 589 452
f 452 589 453
f 453 590 454
f 453 589 590
f 454 590 591
f 454 591 592
f 454 592 457
f 455 593 456
f 455 584 724
f 455 724 593
f 456 593 588
f 457 592 594
f 457 594 459
f 458 459 595
f 458 595 463
f 459 594 596
f 459 596 595
f 460 462 471
f 461 463 597
f 461 597 471
f 461 471 462
f 463 595 597
f 464 466 598
f 464 598 474
f 464 474 465
f 466 472 599
f 466 599 600
f 466 600 598
f 467 471 601
f 467 601 468
f 468 601 602
f 468 602 603
f 468 603 604
f 468 604 469
f 469 605 470
f 469 604 605
f 470 605 606
f 470 606 472
f 471 597 607
f 471 607 601
f 472 606 599
f 473 474 475
f 474 598 475
f 475 598 608
f 475 608 609
f 475 609 610
f 475 610 611
f 475 611 476
f 476 611 612
f 476 612 613
f 476 613 614
f 476 614 477
f 477 615 478
f 477 614 615
f 478 615 479
f 479 615 481
f 480 482 616
f 480 616 617
f 480 617 484
f 480 484 483
f 481 618 616
f 481 616 482
f 481 615 619
f 481 619 618
f 484 617 620
f 484 620 621
f 484 621 622
f 484 622 485
f 485 622 486
f 486 622 623
f 486 623 624
f 486 624 487
f 487 624 625
f 487 625 488
f 488 625 489
f 489 626 492
f 489 492 490
f 489 625 626
f 492 626 627
f 492 627 628
f 492 628 629
f 492 629 493
f 493 629 630
f 493 630 495
f 493 495 494
f 495 630 631
f 495 631 632
f 495 632 633
f 495 633 634
f 495 634 635
f 495 635 496
f 496 635 498
f 496 498 497
f 498 635 636
f 498 636 500
f 500 636 637
f 500 637 638
f 500 638 639
f 500 639 501
f 500 501 502
f 501 639 640
f 501 640 641
f 501 641 642
f 501 642 503
f 503 642 643
f 503 643 504
f 504 643 505
f 505 643 644
f 505 644 645
f 505 645 507
f 505 507 506
f 507 645 646
f 507 646 508
f 508 646 509
f 509 647 510
f 509 646 647
f 510 647 648
f 510 648 511
f 511 648 649
f 511 649 650
f 511 650 651
f 511 651 513
f 511 513 512
f 513 651 652
f 513 652 514
f 514 652 653
f 514 653 515
f 515 517 516
f 515 653 517
f 517 653 654
f 517 654 655
f 517 655 656
f 517 656 657
f 517 657 518
f 518 657 519
f 519 657 658
f 519 658 524
f 519 524 520
f 522 525 659
f 522 659 660
f 522 660 661
f 522 661 526
f 522 526 523
f 524 659 525
f 524 658 662
f 524 662 659
f 526 661 663
f 526 663 664
f 526 664 538
f 526 538 527
f 527 538 528
f 530 533 665
f 530 665 666
f 530 666 667
f 530 667 534
f 532 668 533
f 532 547 669
f 532 669 670
f 532 670 671
f 532 671 668
f 533 668 665
f 534 672 537
f 534 667 673
f 534 673 674
f 534 674 675
f 534 675 676
f 534 676 677
f 534 677 678
f 534 678 679
f 534 679 672
f 535 548 536
f 537 672 680
f 537 680 549
f 538 664 681
f 538 681 682
f 538 682 539
f 539 682 681
f 539 681 540
f 540 681 683
f 540 683 541
f 541 684 542
f 541 683 684
f 542 685 543
f 542 684 685
f 543 685 544
f 544 686 546
f 544 546 545
f 544 685 687
f 544 687 688
f 544 688 686
f 546 669 547
f 546 686 669
f 549 680 672
f 549 672 689
f 549 689 690
f 549 690 691
f 549 691 550
f 550 691 552
f 550 552 551
f 552 691 692
f 552 692 693
f 552 693 554
f 552 554 694
f 552 694 553
f 553 694 554
f 554 693 695
f 554 695 696
f 554 696 697
f 554 697 556
f 554 556 555
f 556 697 557
f 557 698 558
f 557 697 699
f 557 699 698
f 558 700 701
f 558 701 559
f 558 698 700
f 559 701 560
f 560 701 702
f 562 702 703
f 562 703 563
f 563 703 564
f 564 703 565
f 565 704 566
f 565 703 704
f 566 704 567
f 567 704 705
f 567 705 706
f 567 706 568
f 568 706 569
f 569 706 707
f 569 707 708
f 569 708 709
f 569 709 570
f 571 710 575
f 571 575 572
f 571 581 711
f 571 711 712
f 571 712 710
f 573 713 574
f 573 575 714
f 573 714 715
f 573 715 713
f 574 713 576
f 575 710 715
f 575 715 714
f 576 713 716
f 576 716 717
f 576 717 577
f 577 717 585
f 579 583 718
f 579 718 719
f 579 719 720
f 579 720 580
f 580 720 581
f 581 721 711
f 581 720 722
f 581 722 721
f 582 723 718
f 582 718 583
f 584 587 724
f 585 717 725
f 585 725 726
f 585 726 586
f 586 726 727
f 586 727 587
f 587 727 724
f 588 728 729
f 588 729 589
f 588 593 728
f 589 729 590
f 590 730 591
f 590 729 730
f 591 730 731
f 591 731 592
f 592 732 594
f 592 731 732
f 593 733 728
f 593 724 862
f 593 862 733
f 594 734 596
f 594 732 735
f 594 735 736
f 594 736 734
f 595 737 597
f 595 596 734
f 595 734 737
f 597 737 735
f 597 735 738
f 597 738 739
f 597 739 740
f 597 740 741
f 597 741 607
f 598 600 744
f 598 744 608
f 599 606 600
f 600 606 742
f 600 742 743
f 600 743 744
f 601 607 745
f 601 745 603
f 601 603 602
f 603 745 604
f 604 745 746
f 604 746 747
f 604 747 748
f 604 748 749
f 604 749 605
f 605 750 606
f 605 749 751
f 605 751 750
f 606 750 752
f 606 752 742
f 607 741 753
f 607 753 745
f 608 754 610
f 608 610 609
f 608 744 754
f 610 612 611
f 610 754 612
f 612 754 755
f 612 755 756
f 612 756 757
f 612 757 758
f 612 758 759
f 612 759 613
f 613 760 614
f 613 759 761
f 613 761 760
f 614 760 619
f 614 619 615
f 616 618 762
f 616 762 763
f 616 763 617
f 617 763 620
f 618 619 764
f 618 764 765
f 618 765 762
f 619 760 764
f 620 763 621
f 621 763 766
f 621 766 623
f 621 623 622
f 623 767 624
f 623 766 767
f 624 767 768
f 624 768 625
f 625 768 626
f 626 768 769
f 626 769 627
f 627 757 756
f 627 756 628
f 627 769 757
f 628 756 629
f 629 756 770
f 629 770 771
f 629 771 630
f 630 771 631
f 631 633 632
f 631 771 772
f 631 772 773
f 631 773 774
f 631 774 634
f 631 634 633
f 634 774 775
f 634 775 635
f 635 775 636
f 636 775 637
f 637 775 776
f 637 776 638
f 638 777 640
f 638 640 639
f 638 776 778
f 638 778 777
f 640 777 779
f 640 779 641
f 641 779 642
f 642 779 780
f 642 780 643
f 643 780 781
f 643 781 644
f 644 781 782
f 644 782 783
f 644 783 646
f 644 646 645
f 646 783 784
f 646 784 647
f 647 784 785
f 647 785 786
f 647 786 787
f 647 787 648
f 648 787 649
f 649 787 650
f 650 788 789
f 650 789 790
f 650 790 654
f 650 654 651
f 650 787 788
f 651 654 652
f 652 654 653
f 654 790 655
f 655 790 656
f 656 790 791
f 656 791 792
f 656 792 657
f 657 792 662
f 657 662 658
f 659 793 660
f 659 662 794
f 659 794 793
f 660 793 661
f 661 793 795
f 661 795 796
f 661 796 797
f 661 797 681
f 661 681 663
f 662 792 798
f 662 798 794
f 663 681 664
f 665 668 799
f 665 799 800
f 665 800 666
f 666 800 667
f 667 800 801
f 667 801 802
f 667 802 673
f 668 671 803
f 668 803 799
f 669 686 804
f 669 804 671
f 669 671 670
f 671 804 803
f 672 679 805
f 672 805 806
f 672 806 689
f 673 802 674
f 674 802 807
f 674 807 808
f 674 808 675
f 675 808 809
f 675 809 676
f 676 809 677
f 677 809 810
f 677 810 678
f 678 810 811
f 678 811 812
f 678 812 805
f 678 805 679
f 681 797 683
f 683 797 813
f 683 813 684
f 684 814 685
f 684 813 814
f 685 815 816
f 685 816 688
f 685 688 687
f 685 814 817
f 685 817 815
f 686 688 818
f 686 818 804
f 688 816 818
f 689 819 690
f 689 806 820
f 689 820 821
f 689 821 819
f 690 819 822
f 690 822 691
f 691 823 693
f 691 693 692
f 691 822 824
f 691 824 825
f 691 825 826
f 691 826 827
f 691 827 828
f 691 828 829
f 691 829 830
f 691 830 823
f 693 823 831
f 693 831 832
f 693 832 833
f 693 833 696
f 693 696 695
f 696 833 697
f 697 833 699
f 698 699 834
f 698 834 700
f 699 833 834
f 700 834 835
f 700 835 836
f 700 836 701
f 701 836 837
f 701 837 838
f 701 838 839
f 701 839 702
f 702 839 703
f 703 839 840
f 703 840 841
f 703 841 842
f 703 842 705
f 703 705 704
f 705 842 843
f 705 843 706
f 706 843 707
f 707 843 708
f 708 844 845
f 708 845 709
f 708 843 844
f 710 846 715
f 710 712 847
f 710 847 846
f 711 721 712
f 712 721 847
f 713 715 848
f 713 848 716
f 715 846 849
f 715 849 850
f 715 850 848
f 716 848 851
f 716 851 852
f 716 852 725
f 716 725 717
f 718 723 853
f 718 853 854
f 718 854 719
f 719 854 720
f 720 854 855
f 720 855 856
f 720 856 857
f 720 857 858
f 720 858 859
f 720 859 722
f 721 722 860
f 721 860 847
f 722 859 860
f 723 861 853
f 724 727 863
f 724 863 862
f 725 852 864
f 725 864 865
f 725 865 726
f 726 865 863
f 726 863 727
f 728 733 866
f 728 866 867
f 728 867 729
f 729 867 868
f 729 868 730
f 730 868 869
f 730 869 738
f 730 738 731
f 731 738 735
f 731 735 732
f 733 862 985
f 733 985 866
f 734 736 735
f 734 735 737
f 738 869 870
f 738 870 740
f 738 740 739
f 740 871 741
f 740 870 871
f 741 871 753
f 742 752 743
f 743 752 872
f 743 872 744
f 744 872 873
f 744 873 874
f 744 874 875
f 744 875 754
f 745 753 876
f 745 876 746
f 746 876 877
f 746 877 878
f 746 878 879
f 746 879 747
f 747 879 748
f 748 879 749
f 749 879 751
f 750 880 872
f 750 872 752
f 750 751 883
f 750 883 880
f 751 879 881
f 751 881 882
f 751 882 883
f 753 871 876
f 754 875 884
f 754 884 885
f 754 885 755
f 755 885 756
f 756 885 886
f 756 886 887
f 756 887 770
f 757 769 759
f 757 759 758
f 759 769 761
f 760 761 888
f 760 888 764
f 761 769 888
f 762 765 889
f 762 889 763
f 763 889 766
f 764 888 767
f 764 767 889
f 764 889 765
f 766 889 767
f 767 888 768
f 768 888 769
f 770 887 890
f 770 890 771
f 771 890 891
f 771 891 772
f 772 892 893
f 772 893 774
f 772 774 773
f 772 891 892
f 774 893 894
f 774 894 895
f 774 895 775
f 775 895 896
f 775 896 776
f 776 896 897
f 776 897 778
f 777 898 779
f 777 778 897
f 777 897 896
f 777 896 898
f 779 898 899
f 779 899 900
f 779 900 780
f 780 900 781
f 781 900 901
f 781 901 902
f 781 902 782
f 782 902 903
f 782 903 783
f 783 903 784
f 784 903 904
f 784 904 785
f 785 904 905
f 785 905 786
f 786 905 906
f 786 906 787
f 787 906 788
f 788 906 789
f 789 906 907
f 789 907 908
f 789 908 790
f 790 908 791
f 791 908 909
f 791 909 798
f 791 798 792
f 793 794 795
f 794 798 909
f 794 909 910
f 794 910 795
f 795 911 912
f 795 912 796
f 795 910 913
f 795 913 914
f 795 914 911
f 796 912 797
f 797 912 915
f 797 915 813
f 799 916 917
f 799 917 800
f 799 803 916
f 800 917 801
f 801 807 802
f 801 917 918
f 801 918 807
f 803 804 818
f 803 818 919
f 803 919 920
f 803 920 916
f 805 812 806
f 806 812 921
f 806 921 820
f 807 922 923
f 807 923 808
f 807 918 924
f 807 924 922
f 808 923 925
f 808 925 809
f 809 925 810
f 810 925 926
f 810 926 811
f 811 927 921
f 811 921 812
f 811 926 928
f 811 928 1046
f 811 1046 927
f 813 915 929
f 813 929 930
f 813 930 814
f 814 930 817
f 815 817 931
f 815 931 816
f 816 932 818
f 816 931 933
f 816 933 934
f 816 934 932
f 817 930 931
f 818 935 919
f 818 932 935
f 819 936 825
f 819 825 824
f 819 824 822
f 819 821 937
f 819 937 938
f 819 938 939
f 819 939 940
f 819 940 936
f 820 921 821
f 821 921 941
f 821 941 937
f 823 830 831
f 825 936 942
f 825 942 943
f 825 943 944
f 825 944 945
f 825 945 946
f 825 946 947
f 825 947 828
f 825 828 827
f 825 827 826
f 828 947 948
f 828 948 949
f 828 949 950
f 828 950 829
f 829 950 830
f 830 950 951
f 830 951 831
f 831 951 832
f 832 951 833
f 833 951 834
f 834 952 953
f 834 953 835
f 834 951 952
f 835 953 954
f 835 954 836
f 836 954 955
f 836 955 956
f 836 956 838
f 836 838 837
f 838 956 839
f 839 956 957
f 839 957 841
f 839 841 840
f 841 957 958
f 841 958 843
f 841 843 842
f 843 959 844
f 843 958 960
f 843 960 959
f 844 961 962
f 844 962 963
f 844 963 845
f 844 959 961
f 846 847 964
f 846 964 965
f 846 965 966
f 846 966 849
f 847 860 964
f 848 850 851
f 849 966 967
f 849 967 850
f 850 967 968
f 850 968 851
f 851 969 970
f 851 970 852
f 851 968 969
f 852 970 971
f 852 971 864
f 853 972 973
f 853 973 854
f 853 861 972
f 854 973 856
f 854 856 855
f 856 972 974
f 856 974 975
f 856 975 976
f 856 976 977
f 856 977 978
f 856 978 979
f 856 979 857
f 856 973 972
f 857 979 980
f 857 980 858
f 858 980 981
f 858 981 982
f 858 982 859
f 859 982 983
f 859 983 860
f 860 983 964
f 861 984 972
f 862 863 985
f 863 986 985
f 863 865 987
f 863 987 986
f 864 987 865
f 864 971 988
f 864 988 989
f 864 989 987
f 866 990 991
f 866 991 867
f 866 985 1108
f 866 1108 990
f 867 991 992
f 867 992 869
f 867 869 868
f 869 992 870
f 870 992 993
f 870 993 994
f 870 994 871
f 871 994 995
f 871 995 996
f 871 996 997
f 871 997 998
f 871 998 876
f 872 880 874
f 872 874 873
f 874 999 875
f 874 880 1000
f 874 1000 1001
f 874 1001 999
f 875 999 1001
f 875 1001 886
f 875 886 884
f 876 998 877
f 877 1002 878
f 877 998 997
f 877 997 1003
f 877 1003 1004
f 877 1004 1002
f 878 1005 1006
f 878 1006 882
f 878 882 881
f 878 881 879
f 878 1002 1005
f 880 1007 1000
f 880 883 1007
f 882 1006 883
f 883 1008 1007
f 883 1006 1009
f 883 1009 1008
f 884 886 885
f 886 890 887
f 886 1001 892
f 886 892 890
f 890 892 891
f 892 1001 1000
f 892 1000 1007
f 892 1007 1010
f 892 1010 893
f 893 1010 894
f 894 1011 895
f 894 1010 1011
f 895 1011 896
f 896 1011 898
f 898 1012 1013
f 898 1013 899
f 898 1011 1014
f 898 1014 1015
f 898 1015 1012
f 899 1013 1016
f 899 1016 1017
f 899 1017 1018
f 899 1018 900
f 900 1018 1019
f 900 1019 901
f 901 1019 1020
f 901 1020 1021
f 901 1021 902
f 902 1021 1022
f 902 1022 1023
f 902 1023 903
f 903 1023 1024
f 903 1024 904
f 904 1024 905
f 905 1025 1026
f 905 1026 1027
f 905 1027 906
f 905 1024 1025
f 906 1027 1028
f 906 1028 907
f 907 1028 1029
f 907 1029 908
f 908 1029 909
f 909 1029 910
f 910 1029 913
f 911 914 1030
f 911 1030 1031
f 911 1031 912
f 912 1031 915
f 913 1032 914
f 913 1029 1033
f 913 1033 1034
f 913 1034 1032
f 914 1032 1030
f 915 1031 929
f 916 1035 917
f 916 920 1036
f 916 1036 1037
f 916 1037 1035
f 917 1035 918
f 918 1035 924
f 919 935 1038
f 919 1038 1039
f 919 1039 1036
f 919 1036 920
f 921 927 1040
f 921 1040 941
f 922 1041 923
f 922 924 1035
f 922 1035 1042
f 922 1042 1043
f 922 1043 1041
f 923 1041 1044
f 923 1044 925
f 925 1044 926
f 926 1044 1045
f 926 1045 928
f 927 1046 1149
f 927 1149 1040
f 928 1045 1047
f 928 1047 1046
f 929 1048 1049
f 929 1049 930
f 929 1031 1030
f 929 1030 1048
f 930 1049 931
f 931 1049 1050
f 931 1050 933
f 932 934 1038
f 932 1038 935
f 933 1051 1052
f 933 1052 1038
f 933 1038 934
f 933 1050 1053
f 933 1053 1051
f 936 940 942
f 937 941 1040
f 937 1040 938
f 938 1040 1054
f 938 1054 939
f 939 1054 1055
f 939 1055 940
f 940 1055 1056
f 940 1056 1057
f 940 1057 942
f 942 1057 1058
f 942 1058 943
f 943 1058 1059
f 943 1059 944
f 944 1059 1060
f 944 1060 945
f 945 1060 1059
f 945 1059 1061
f 945 1061 1062
f 945 1062 1063
f 945 1063 1064
f 945 1064 1065
f 945 1065 1066
f 945 1066 1067
f 945 1067 1068
f 945 1068 946
f 946 1068 1069
f 946 1069 1070
f 946 1070 1071
f 946 1071 947
f 947 1071 948
f 948 1071 1072
f 948 1072 949
f 949 1072 1073
f 949 1073 1074
f 949 1074 950
f 950 1074 951
f 951 1074 1075
f 951 1075 952
f 952 1075 1076
f 952 1076 1077
f 952 1077 1078
f 952 1078 953
f 953 1079 954
f 953 1078 1079
f 954 1079 955
f 955 1078 1080
f 955 1080 1081
f 955 1081 957
f 955 957 956
f 955 1079 1078
f 957 1081 1082
f 957 1082 958
f 958 1083 960
f 958 1082 1083
f 959 1084 1085
f 959 1085 961
f 959 960 1083
f 959 1083 1084
f 961 1085 1086
f 961 1086 963
f 961 963 962
f 964 983 1087
f 964 1087 965
f 965 1087 1088
f 965 1088 1089
f 965 1089 966
f 966 1089 1090
f 966 1090 1091
f 966 1091 967
f 967 1092 1093
f 967 1093 968
f 967 1091 1092
f 968 1093 1094
f 968 1094 969
f 969 1095 970
f 969 1094 1095
f 970 1095 971
f 971 1095 1096
f 971 1096 988
f 972 984 974
f 974 1097 1098
f 974 1098 1099
f 974 1099 975
f 974 984 1097
f 975 1100 976
f 975 1099 1101
f 975 1101 1102
f 975 1102 1100
f 976 1100 1103
f 976 1103 977
f 977 1104 978
f 977 1103 1104
f 978 1104 1105
f 978 1105 980
f 978 980 979
f 980 1105 981
f 981 1087 983
f 981 983 982
f 981 1105 1106
f 981 1106 1107
f 981 1107 1087
f 985 986 1108
f 986 1109 1108
f 986 987 1110
f 986 1110 1109
f 987 989 1111
f 987 1111 1112
f 987 1112 1110
f 988 1111 989
f 988 1096 1113
f 988 1113 1111
f 990 1114 1115
f 990 1115 991
f 990 1108 1114
f 991 1115 1116
f 991 1116 1117
f 991 1117 992
f 992 1117 1118
f 992 1118 995
f 992 995 993
f 993 995 994
f 995 1118 1119
f 995 1119 1120
f 995 1120 1003
f 995 1003 996
f 996 1003 997
f 1002 1121 1122
f 1002 1122 1005
f 1002 1004 1123
f 1002 1123 1121
f 1003 1120 1004
f 1004 1120 1123
f 1005 1009 1006
f 1005 1122 1009
f 1007 1008 1010
f 1008 1009 1014
f 1008 1014 1010
f 1009 1122 1012
f 1009 1012 1015
f 1009 1015 1014
f 1010 1014 1011
f 1012 1122 1013
f 1013 1122 1121
f 1013 1121 1016
f 1016 1121 1124
f 1016 1124 1017
f 1017 1124 1125
f 1017 1125 1018
f 1018 1125 1124
f 1018 1124 1019
f 1019 1126 1020
f 1019 1124 1126
f 1020 1126 1127
f 1020 1127 1129
f 1020 1129 1021
f 1021 1128 1022
f 1021 1129 1128
f 1022 1128 1130
f 1022 1130 1131
f 1022 1131 1023
f 1023 1131 1024
f 1024 1131 1132
f 1024 1132 1025
f 1025 1132 1026
f 1026 1132 1133
f 1026 1133 1134
f 1026 1134 1135
f 1026 1135 1027
f 1027 1135 1136
f 1027 1136 1028
f 1028 1136 1137
f 1028 1137 1033
f 1028 1033 1029
f 1030 1032 1138
f 1030 1138 1139
f 1030 1139 1048
f 1032 1034 1140
f 1032 1140 1141
f 1032 1141 1138
f 1033 1137 1034
f 1034 1137 1140
f 1035 1037 1042
f 1036 1039 1142
f 1036 1142 1037
f 1037 1142 1143
f 1037 1143 1144
f 1037 1144 1042
f 1038 1145 1146
f 1038 1146 1147
f 1038 1147 1039
f 1038 1052 1148
f 1038 1148 1145
f 1039 1147 1143
f 1039 1143 1142
f 1040 1149 1150
f 1040 1150 1054
f 1041 1043 1151
f 1041 1151 1045
f 1041 1045 1044
f 1042 1144 1152
f 1042 1152 1153
f 1042 1153 1154
f 1042 1154 1043
f 1043 1155 1151
f 1043 1154 1156
f 1043 1156 1155
f 1045 1151 1157
f 1045 1157 1047
f 1046 1047 1149
f 1047 1157 1158
f 1047 1158 1159
f 1047 1159 1149
f 1048 1160 1049
f 1048 1139 1160
f 1049 1053 1050
f 1049 1160 1053
f 1051 1161 1148
f 1051 1148 1052
f 1051 1053 1161
f 1053 1160 1162
f 1053 1162 1163
f 1053 1163 1161
f 1054 1150 1164
f 1054 1164 1055
f 1055 1164 1165
f 1055 1165 1056
f 1056 1166 1058
f 1056 1058 1057
f 1056 1165 1167
f 1056 1167 1168
f 1056 1168 1169
f 1056 1169 1170
f 1056 1170 1171
f 1056 1171 1166
f 1058 1166 1059
f 1059 1166 1172
f 1059 1172 1061
f 1061 1172 1173
f 1061 1173 1062
f 1062 1173 1063
f 1063 1173 1174
f 1063 1174 1175
f 1063 1175 1064
f 1064 1175 1176
f 1064 1176 1177
f 1064 1177 1178
f 1064 1178 1065
f 1065 1178 1179
f 1065 1179 1066
f 1066 1179 1180
f 1066 1180 1181
f 1066 1181 1182
f 1066 1182 1067
f 1067 1182 1183
f 1067 1183 1184
f 1067 1184 1069
f 1067 1069 1068
f 1069 1184 1073
f 1069 1073 1070
f 1070 1073 1072
f 1070 1072 1071
f 1073 1184 1183
f 1073 1183 1185
f 1073 1185 1186
f 1073 1186 1074
f 1074 1186 1075
f 1075 1186 1076
f 1076 1186 1187
f 1076 1187 1077
f 1077 1187 1078
f 1078 1188 1189
f 1078 1189 1190
f 1078 1190 1083
f 1078 1083 1082
f 1078 1082 1080
f 1078 1187 1188
f 1080 1082 1081
f 1083 1191 1192
f 1083 1192 1084
f 1083 1190 1193
f 1083 1193 1191
f 1084 1192 1194
f 1084 1194 1085
f 1085 1194 1195
f 1085 1195 1196
f 1085 1196 1197
f 1085 1197 1086
f 1087 1107 1198
f 1087 1198 1088
f 1088 1199 1090
f 1088 1090 1089
f 1088 1198 1199
f 1090 1199 1091
f 1091 1199 1200
f 1091 1200 1201
f 1091 1201 1202
f 1091 1202 1092
f 1092 1202 1203
f 1092 1203 1204
f 1092 1204 1205
f 1092 1205 1093
f 1093 1205 1094
f 1094 1205 1095
f 1095 1205 1204
f 1095 1204 1096
f 1096 1206 1113
f 1096 1204 1206
f 1098 1207 1101
f 1098 1101 1099
f 1100 1102 1208
f 1100 1208 1209
f 1100 1209 1103
f 1101 1207 1210
f 1101 1210 1211
f 1101 1211 1212
f 1101 1212 1213
f 1101 1213 1102
f 1102 1213 1208
f 1103 1214 1215
f 1103 1215 1104
f 1103 1209 1214
f 1104 1216 1105
f 1104 1215 1217
f 1104 1217 1216
f 1105 1216 1107
f 1105 1107 1106
f 1107 1216 1218
f 1107 1218 1219
f 1107 1219 1198
f 1108 1220 1114
f 1108 1109 1221
f 1108 1221 1220
f 1109 1110 1222
f 1109 1222 1221
f 1110 1112 1222
f 1111 1223 1112
f 1111 1113 1224
f 1111 1224 1223
f 1112 1223 1222
f 1113 1206 1225
f 1113 1225 1224
f 1114 1226 1227
f 1114 1227 1115
f 1114 1220 1228
f 1114 1228 1226
f 1115 1227 1116
f 1116 1227 1229
f 1116 1229 1230
f 1116 1230 1117
f 1117 1230 1119
f 1117 1119 1118
f 1119 1230 1231
f 1119 1231 1120
f 1120 1231 1232
f 1120 1232 1123
f 1121 1123 1124
f 1123 1232 1124
f 1124 1232 1231
f 1124 1231 1126
f 1126 1231 1233
f 1126 1233 1127
f 1127 1233 1129
f 1128 1129 1234
f 1128 1234 1130
f 1129 1233 1234
f 1130 1235 1236
f 1130 1236 1237
f 1130 1237 1132
f 1130 1132 1131
f 1130 1234 1235
f 1132 1237 1133
f 1133 1237 1238
f 1133 1238 1134
f 1134 1238 1239
f 1134 1239 1240
f 1134 1240 1136
f 1134 1136 1135
f 1136 1240 1137
f 1137 1240 1241
f 1137 1241 1140
f 1138 1141 1242
f 1138 1242 1243
f 1138 1243 1139
f 1139 1243 1160
f 1140 1241 1141
f 1141 1241 1244
f 1141 1244 1245
f 1141 1245 1242
f 1143 1147 1144
f 1144 1147 1152
f 1145 1246 1146
f 1145 1148 1161
f 1145 1161 1246
f 1146 1246 1247
f 1146 1247 1147
f 1147 1247 1153
f 1147 1153 1152
f 1149 1159 1150
f 1150 1159 1248
f 1150 1248 1249
f 1150 1249 1164
f 1151 1155 1250
f 1151 1250 1157
f 1153 1247 1154
f 1154 1247 1251
f 1154 1251 1252
f 1154 1252 1156
f 1155 1156 1253
f 1155 1253 1338
f 1155 1338 1250
f 1156 1252 1254
f 1156 1254 1255
f 1156 1255 1253
f 1157 1250 1158
f 1158 1250 1256
f 1158 1256 1257
f 1158 1257 1258
f 1158 1258 1259
f 1158 1259 1248
f 1158 1248 1159
f 1160 1260 1162
f 1160 1243 1260
f 1161 1261 1246
f 1161 1163 1261
f 1162 1260 1262
f 1162 1262 1263
f 1162 1263 1264
f 1162 1264 1163
f 1163 1264 1265
f 1163 1265 1266
f 1163 1266 1261
f 1164 1249 1267
f 1164 1267 1167
f 1164 1167 1165
f 1166 1171 1268
f 1166 1268 1172
f 1167 1267 1269
f 1167 1269 1168
f 1168 1269 1270
f 1168 1270 1271
f 1168 1271 1169
f 1169 1271 1272
f 1169 1272 1170
f 1170 1272 1273
f 1170 1273 1274
f 1170 1274 1275
f 1170 1275 1268
f 1170 1268 1171
f 1172 1268 1276
f 1172 1276 1173
f 1173 1276 1277
f 1173 1277 1174
f 1174 1277 1278
f 1174 1278 1208
f 1174 1208 1213
f 1174 1213 1175
f 1175 1213 1279
f 1175 1279 1280
f 1175 1280 1176
f 1176 1280 1177
f 1177 1280 1281
f 1177 1281 1282
f 1177 1282 1283
f 1177 1283 1284
f 1177 1284 1285
f 1177 1285 1178
f 1178 1285 1179
f 1179 1286 1287
f 1179 1287 1180
f 1179 1285 1286
f 1180 1287 1181
f 1181 1287 1188
f 1181 1188 1187
f 1181 1187 1185
f 1181 1185 1183
f 1181 1183 1182
f 1185 1187 1186
f 1188 1287 1193
f 1188 1193 1189
f 1189 1193 1190
f 1191 1193 1283
f 1191 1283 1192
f 1192 1283 1194
f 1193 1287 1283
f 1194 1283 1288
f 1194 1288 1195
f 1195 1289 1196
f 1195 1288 1283
f 1195 1283 1290
f 1195 1290 1289
f 1196 1289 1291
f 1196 1291 1197
f 1198 1219 1292
f 1198 1292 1293
f 1198 1293 1294
f 1198 1294 1199
f 1199 1294 1201
f 1199 1201 1200
f 1201 1295 1202
f 1201 1294 1293
f 1201 1293 1296
f 1201 1296 1295
f 1202 1295 1203
f 1203 1297 1298
f 1203 1298 1204
f 1203 1295 1299
f 1203 1299 1300
f 1203 1300 1297
f 1204 1298 1301
f 1204 1301 1206
f 1206 1301 1225
f 1208 1278 1209
f 1209 1278 1302
f 1209 1302 1303
f 1209 1303 1214
f 1210 1304 1211
f 1211 1304 1305
f 1211 1305 1306
f 1211 1306 1307
f 1211 1307 1308
f 1211 1308 1212
f 1212 1280 1279
f 1212 1279 1213
f 1212 1308 1280
f 1214 1309 1217
f 1214 1217 1215
f 1214 1303 1309
f 1216 1217 1310
f 1216 1310 1311
f 1216 1311 1312
f 1216 1312 1218
f 1217 1309 1311
f 1217 1311 1310
f 1218 1313 1219
f 1218 1312 1313
f 1219 1313 1314
f 1219 1314 1292
f 1220 1221 1315
f 1220 1315 1316
f 1220 1316 1317
f 1220 1317 1226
f 1220 1226 1228
f 1221 1222 1318
f 1221 1318 1315
f 1222 1223 1319
f 1222 1319 1318
f 1223 1224 1320
f 1223 1320 1319
f 1224 1225 1321
f 1224 1321 1320
f 1225 1301 1322
f 1225 1322 1323
f 1225 1323 1321
f 1226 1317 1229
f 1226 1229 1227
f 1229 1317 1324
f 1229 1324 1325
f 1229 1325 1326
f 1229 1326 1327
f 1229 1327 1230
f 1230 1327 1233
f 1230 1233 1231
f 1233 1327 1326
f 1233 1326 1234
f 1234 1326 1235
f 1235 1325 1324
f 1235 1324 1236
f 1235 1326 1325
f 1236 1324 1328
f 1236 1328 1329
f 1236 1329 1238
f 1236 1238 1237
f 1238 1329 1330
f 1238 1330 1239
f 1239 1330 1331
f 1239 1331 1240
f 1240 1331 1241
f 1241 1331 1244
f 1242 1245 1243
f 1243 1245 1332
f 1243 1332 1260
f 1244 1331 1245
f 1245 1333 1332
f 1245 1331 1334
f 1245 1334 1333
f 1246 1261 1335
f 1246 1335 1247
f 1247 1252 1336
f 1247 1336 1251
f 1247 1335 1337
f 1247 1337 1252
f 1248 1259 1267
f 1248 1267 1249
f 1250 1338 1256
f 1251 1336 1252
f 1252 1337 1335
f 1252 1335 1261
f 1252 1261 1339
f 1252 1339 1340
f 1252 1340 1254
f 1253 1255 1341
f 1253 1341 1342
f 1253 1342 1338
f 1254 1343 1344
f 1254 1344 1255
f 1254 1340 1345
f 1254 1345 1343
f 1255 1344 1341
f 1256 1338 1342
f 1256 1342 1341
f 1256 1341 1346
f 1256 1346 1347
f 1256 1347 1348
f 1256 1348 1257
f 1257 1348 1258
f 1258 1270 1269
f 1258 1269 1259
f 1258 1348 1349
f 1258 1349 1354
f 1258 1354 1270
f 1259 1269 1267
f 1260 1332 1262
f 1261 1350 1339
f 1261 1266 1351
f 1261 1351 1350
f 1262 1332 1333
f 1262 1333 1386
f 1262 1386 1352
f 1262 1352 1264
f 1262 1264 1263
f 1264 1352 1353
f 1264 1353 1351
f 1264 1351 1265
f 1265 1351 1266
f 1268 1275 1276
f 1270 1354 1271
f 1271 1354 1355
f 1271 1355 1273
f 1271 1273 1272
f 1273 1355 1356
f 1273 1356 1357
f 1273 1357 1358
f 1273 1358 1274
f 1274 1358 1359
f 1274 1359 1275
f 1275 1360 1276
f 1275 1359 1360
f 1276 1360 1361
f 1276 1361 1277
f 1277 1361 1278
f 1278 1361 1302
f 1280 1308 1362
f 1280 1362 1281
f 1281 1362 1283
f 1281 1283 1282
f 1283 1362 1363
f 1283 1363 1290
f 1283 1287 1364
f 1283 1364 1365
f 1283 1365 1284
f 1284 1365 1285
f 1285 1365 1286
f 1286 1365 1364
f 1286 1364 1287
f 1289 1290 1363
f 1289 1363 1366
f 1289 1366 1367
f 1289 1367 1368
f 1289 1368 1306
f 1289 1306 1369
f 1289 1369 1291
f 1292 1296 1293
f 1292 1314 1370
f 1292 1370 1356
f 1292 1356 1296
f 1295 1296 1371
f 1295 1371 1372
f 1295 1372 1299
f 1296 1373 1372
f 1296 1372 1371
f 1296 1356 1373
f 1297 1374 1375
f 1297 1375 1298
f 1297 1300 1374
f 1298 1375 1376
f 1298 1376 1301
f 1299 1372 1373
f 1299 1373 1377
f 1299 1377 1300
f 1300 1377 1378
f 1300 1378 1379
f 1300 1379 1374
f 1301 1376 1322
f 1302 1361 1360
f 1302 1360 1303
f 1303 1360 1309
f 1305 1369 1306
f 1306 1368 1307
f 1307 1368 1367
f 1307 1367 1308
f 1308 1367 1362
f 1309 1360 1359
f 1309 1359 1311
f 1311 1358 1312
f 1311 1359 1358
f 1312 1370 1314
f 1312 1314 1313
f 1312 1358 1370
f 1315 1329 1328
f 1315 1328 1316
f 1315 1318 1329
f 1316 1328 1317
f 1317 1328 1324
f 1318 1330 1329
f 1318 1319 1380
f 1318 1380 1381
f 1318 1381 1330
f 1319 1320 1382
f 1319 1382 1380
f 1320 1321 1383
f 1320 1383 1382
f 1321 1323 1384
f 1321 1384 1383
f 1322 1376 1323
f 1323 1376 1375
f 1323 1375 1385
f 1323 1385 1384
f 1330 1381 1331
f 1331 1381 1334
f 1333 1334 1386
f 1334 1381 1386
f 1339 1350 1387
f 1339 1387 1340
f 1340 1387 1388
f 1340 1388 1345
f 1341 1344 1346
f 1343 1389 1390
f 1343 1390 1344
f 1343 1345 1389
f 1344 1390 1346
f 1345 1388 1391
f 1345 1391 1389
f 1346 1390 1348
f 1346 1348 1347
f 1348 1390 1392
f 1348 1392 1393
f 1348 1393 1349
f 1349 1393 1354
f 1350 1394 1387
f 1350 1351 1395
f 1350 1395 1394
f 1351 1396 1397
f 1351 1397 1395
f 1351 1353 1352
f 1351 1352 1384
f 1351 1384 1396
f 1352 1386 1384
f 1354 1393 1398
f 1354 1398 1399
f 1354 1399 1373
f 1354 1373 1400
f 1354 1400 1355
f 1355 1400 1356
f 1356 1370 1401
f 1356 1401 1357
f 1356 1400 1402
f 1356 1402 1373
f 1357 1401 1370
f 1357 1370 1358
f 1362 1367 1366
f 1362 1366 1363
f 1373 1402 1400
f 1373 1399 1377
f 1374 1379 1403
f 1374 1403 1375
f 1375 1403 1404
f 1375 1404 1405
f 1375 1405 1385
f 1377 1406 1391
f 1377 1391 1378
f 1377 1399 1407
f 1377 1407 1406
f 1378 1387 1394
f 1378 1394 1408
f 1378 1408 1404
f 1378 1404 1403
f 1378 1403 1379
f 1378 1391 1388
f 1378 1388 1387
f 1380 1382 1381
f 1381 1382 1386
f 1382 1383 1386
f 1383 1384 1386
f 1384 1385 1396
f 1385 1405 1397
f 1385 1397 1396
f 1389 1391 1406
f 1389 1406 1390
f 1390 1399 1392
f 1390 1406 1399
f 1392 1398 1393
f 1392 1399 1398
f 1394 1395 1408
f 1395 1397 1409
f 1395 1409 1408
f 1397 1405 1410
f 1397 1410 1409
f 1399 1406 1407
f 1404 1409 1410
f 1404 1410 1405
f 1404 1408 1409

