# https://github.com/mikedh/trimesh
v 0.00740415 0.00705840 -0.00842188
v 0.00740415 0.00705919 0.00684676
v 0.00740415 0.00751759 -0.00842188
v 0.00980016 0.00269811 -0.00842188
v 0.00980016 0.00269811 -0.00839348
v 0.00740415 0.00751759 0.00684676
v 0.00980427 0.00269811 0.00684676
v 0.00751942 0.00759635 -0.00842188
v 0.04543564 0.00269811 -0.00842188
v 0.00781172 0.00779562 0.00684676
v 0.04741996 0.00269811 0.00684676
v 0.00781172 0.00779562 -0.00842188
v 0.04527920 0.00295409 -0.00842188
v 0.04570324 0.00293125 -0.00813342
v 0.04569089 0.00269811 -0.00824103
v 0.01456747 0.01034910 0.00684676
v 0.01469921 0.01044755 0.00609051
v 0.01497916 0.01070826 0.00362445
v 0.01496681 0.01071534 0.00321942
v 0.01495446 0.01072322 0.00264550
v 0.01494622 0.01072637 0.00207158
v 0.01494211 0.01072873 0.00149766
v 0.01493799 0.01073267 0.00034982
v 0.01493799 0.01073346 -0.00022410
v 0.04750642 0.00269811 0.00675111
v 0.04721824 0.00313131 0.00684676
v 0.01493799 0.01073267 -0.00079652
v 0.01494211 0.01073031 -0.00137044
v 0.01494622 0.01072716 -0.00194436
v 0.01495034 0.01072322 -0.00251828
v 0.01496269 0.01071613 -0.00309220
v 0.01497916 0.01070904 -0.00350919
v 0.01427929 0.01022859 -0.00711113
v 0.01430811 0.01019472 -0.00768505
v 0.01436575 0.01015456 -0.00804226
v 0.01414756 0.00995214 -0.00842188
v 0.04523392 0.00302104 -0.00842188
v 0.04551386 0.00340146 -0.00804973
v 0.04570324 0.00356765 -0.00783600
v 0.04589673 0.00310689 -0.00791223
v 0.04602023 0.00269811 -0.00800190
v 0.01469921 0.01038533 0.00684676
v 0.01469921 0.01040502 0.00666442
v 0.01527557 0.01062713 0.00494117
v 0.01504091 0.01070826 0.00362445
v 0.01512737 0.01071534 0.00321942
v 0.01527557 0.01072952 0.00207158
v 0.01527557 0.01074291 0.00034982
v 0.01527557 0.01074449 -0.00022410
v 0.04772461 0.00269811 0.00648956
v 0.04714002 0.00327781 0.00684676
v 0.04774520 0.00275167 0.00643276
v 0.01527557 0.01074291 -0.00079652
v 0.01527557 0.01073819 -0.00137044
v 0.01527557 0.01073110 -0.00194436
v 0.01515618 0.01071613 -0.00309220
v 0.01505326 0.01070904 -0.00350919
v 0.01527557 0.01062713 -0.00481396
v 0.01527557 0.01058066 -0.00538937
v 0.01469921 0.01040502 -0.00653721
v 0.01469921 0.01044755 -0.00596329
v 0.01469921 0.01034516 -0.00711113
v 0.01469921 0.01024198 -0.00768505
v 0.01469921 0.01015219 -0.00803478
v 0.01469921 0.01004823 -0.00832324
v 0.01469921 0.01000491 -0.00842188
v 0.04497044 0.00338413 -0.00842188
v 0.04538212 0.00378425 -0.00795557
v 0.04602847 0.00388349 -0.00743695
v 0.04613962 0.00352985 -0.00752662
v 0.04627136 0.00296118 -0.00768953
v 0.04663365 0.00281626 -0.00746834
v 0.04632488 0.00269811 -0.00776127
v 0.01509443 0.01040738 0.00684676
v 0.01527557 0.01051371 0.00609051
v 0.01527557 0.01057593 0.00551659
v 0.01527557 0.01065942 0.00436725
v 0.03896806 0.00897312 0.00279944
v 0.04052835 0.00890696 0.00207158
v 0.03970910 0.00898493 0.00182945
v 0.04052835 0.00894083 0.00149766
v 0.03937975 0.00902431 0.00149766
v 0.04020312 0.00897942 0.00107768
v 0.01530027 0.01072007 0.00261112
v 0.01557610 0.01070510 0.00239740
v 0.01560492 0.01070668 0.00207158
v 0.01563786 0.01070983 0.00149766
v 0.01567491 0.01071219 0.00092374
v 0.01570784 0.01071456 0.00034982
v 0.01572019 0.01071534 -0.00022410
v 0.04775755 0.00269811 0.00644921
v 0.04724706 0.00352985 0.00652842
v 0.04715237 0.00385277 0.00640885
v 0.04701240 0.00352985 0.00681687
v 0.04703710 0.00344636 0.00684676
v 0.04798397 0.00269811 0.00608602
v 0.04786459 0.00294858 0.00609350
v 0.04764227 0.00313446 0.00628779
v 0.01570373 0.01071456 -0.00079652
v 0.01566667 0.01071141 -0.00137044
v 0.03593394 0.00929683 -0.00022410
v 0.01557610 0.01070510 -0.00228662
v 0.01531263 0.01072007 -0.00249437
v 0.01553082 0.01070195 -0.00266924
v 0.01544436 0.01069565 -0.00309220
v 0.01525499 0.01068699 -0.00368705
v 0.01527557 0.01066100 -0.00424004
v 0.03880339 0.00906685 -0.00137044
v 0.03971321 0.00898572 -0.00169477
v 0.01527557 0.01051686 -0.00596329
v 0.04052835 0.00890223 -0.00194436
v 0.04052835 0.00885340 -0.00251828
v 0.04052835 0.00879984 -0.00309220
v 0.01527557 0.01043731 -0.00653721
v 0.01527557 0.01033571 -0.00711113
v 0.01524676 0.01019236 -0.00771195
v 0.01504091 0.01013565 -0.00798696
v 0.01757278 0.00976311 -0.00825897
v 0.01829734 0.00961661 -0.00842188
v 0.03742013 0.00841312 -0.00626221
v 0.02812427 0.00897469 -0.00737717
v 0.04478106 0.00362436 -0.00842188
v 0.04497044 0.00410402 -0.00806318
v 0.04569089 0.00408670 -0.00756997
v 0.04485105 0.00441198 -0.00798397
v 0.04525862 0.00410402 -0.00787038
v 0.04588438 0.00426627 -0.00731589
v 0.04625078 0.00408276 -0.00709768
v 0.04660894 0.00389845 -0.00687947
v 0.04642780 0.00352985 -0.00727852
v 0.04652661 0.00319904 -0.00737567
v 0.04550151 0.00450729 -0.00746983
v 0.04674068 0.00269811 -0.00742350
v 0.04666246 0.00269811 -0.00749225
v 0.04687242 0.00301316 -0.00714102
v 0.01527557 0.01040423 0.00684676
v 0.01527557 0.01043731 0.00666442
v 0.04052835 0.00880299 0.00321942
v 0.03858520 0.00898730 0.00296982
v 0.04052835 0.00886285 0.00264550
v 0.04110060 0.00884080 0.00207158
v 0.04110060 0.00887703 0.00149766
v 0.04110060 0.00889593 0.00092374
v 0.04059834 0.00896682 0.00034982
v 0.04047895 0.00896288 0.00090132
v 0.03937975 0.00904164 0.00092374
v 0.03937975 0.00905346 0.00034982
v 0.01642418 0.01065470 0.00149766
v 0.03222878 0.00955832 0.00016897
v 0.01929362 0.01046330 0.00034982
v 0.03222878 0.00955832 -0.00007165
v 0.04753935 0.00354087 0.00609350
v 0.04765874 0.00373935 0.00571686
v 0.04723882 0.00406779 0.00604567
v 0.04714414 0.00441041 0.00582597
v 0.04701651 0.00423477 0.00620858
v 0.04663365 0.00450177 0.00648059
v 0.04648544 0.00429069 0.00684676
v 0.04698358 0.00352985 0.00684676
v 0.04669540 0.00397092 0.00684676
v 0.04822275 0.00269811 0.00568996
v 0.04776578 0.00335657 0.00590518
v 0.03823115 0.00913458 -0.00022410
v 0.04031016 0.00898730 -0.00022410
v 0.04047895 0.00896288 -0.00077112
v 0.04019489 0.00897863 -0.00094299
v 0.03651030 0.00923146 -0.00137044
v 0.03981202 0.00899281 -0.00137044
v 0.04052835 0.00894004 -0.00137044
v 0.04052835 0.00872502 -0.00366612
v 0.04110060 0.00884159 -0.00194436
v 0.04110060 0.00879590 -0.00251828
v 0.04110060 0.00873447 -0.00309220
v 0.03880339 0.00878724 -0.00424004
v 0.03937975 0.00873762 -0.00424004
v 0.01673294 0.01013250 -0.00740556
v 0.01642418 0.01014825 -0.00746086
v 0.01584782 0.01017582 -0.00756100
v 0.04052835 0.00863444 -0.00424004
v 0.04052835 0.00852102 -0.00481396
v 0.03958148 0.00839973 -0.00564196
v 0.01819442 0.00967253 -0.00831427
v 0.01871726 0.00956856 -0.00842188
v 0.03995199 0.00801852 -0.00653721
v 0.03995199 0.00786414 -0.00687947
v 0.04052835 0.00818628 -0.00596329
v 0.04462874 0.00380473 -0.00842188
v 0.04509394 0.00465064 -0.00766861
v 0.04445171 0.00401187 -0.00842188
v 0.04428704 0.00418436 -0.00842188
v 0.04428292 0.00498931 -0.00798696
v 0.04466579 0.00479477 -0.00786739
v 0.04609434 0.00453249 -0.00693328
v 0.04534095 0.00489007 -0.00734429
v 0.04571970 0.00471128 -0.00713953
v 0.04672422 0.00352985 -0.00699156
v 0.04647720 0.00428124 -0.00673749
v 0.04715237 0.00385356 -0.00628164
v 0.04701240 0.00352985 -0.00668966
v 0.04711120 0.00321007 -0.00680474
v 0.04695064 0.00269811 -0.00722024
v 0.04720589 0.00282728 -0.00690637
v 0.01829734 0.01013329 0.00684676
v 0.04052835 0.00852102 0.00494117
v 0.04052835 0.00863287 0.00436725
v 0.04052835 0.00872108 0.00379333
v 0.04110060 0.00873368 0.00321942
v 0.04110060 0.00879590 0.00264550
v 0.04167695 0.00874865 0.00207158
v 0.04167695 0.00878645 0.00149766
v 0.04167695 0.00880693 0.00092374
v 0.04110060 0.00890932 0.00034982
v 0.04110060 0.00890932 -0.00022410
v 0.04059422 0.00896682 -0.00022410
v 0.04775343 0.00389767 0.00533425
v 0.04752289 0.00409536 0.00552107
v 0.04816511 0.00297772 0.00553901
v 0.04786870 0.00354087 0.00552107
v 0.04722647 0.00451753 0.00551659
v 0.04700828 0.00480422 0.00551659
v 0.04661718 0.00503736 0.00590368
v 0.04681890 0.00464748 0.00605613
v 0.04648544 0.00488377 0.00628630
v 0.04629195 0.00470813 0.00669282
v 0.04603259 0.00485857 0.00684676
v 0.04829274 0.00269811 0.00555246
v 0.04110060 0.00889672 -0.00079652
v 0.04110060 0.00887703 -0.00137044
v 0.04110060 0.00865177 -0.00366612
v 0.04167695 0.00878724 -0.00137044
v 0.04167695 0.00875101 -0.00194436
v 0.04167695 0.00870375 -0.00251828
v 0.04167695 0.00863917 -0.00309220
v 0.04085358 0.00841548 -0.00512782
v 0.04052835 0.00843123 -0.00518611
v 0.04110060 0.00855883 -0.00424004
v 0.04106766 0.00845329 -0.00479901
v 0.04052835 0.00835011 -0.00547307
v 0.01929362 0.00950004 -0.00842188
v 0.02582707 0.00897391 -0.00795408
v 0.02544420 0.00899675 -0.00799742
v 0.04050777 0.00793818 -0.00657159
v 0.04030193 0.00784209 -0.00683912
v 0.03790180 0.00782870 -0.00738763
v 0.04106766 0.00830915 -0.00534752
v 0.04110060 0.00809649 -0.00596329
v 0.04110060 0.00791140 -0.00641466
v 0.04495809 0.00508462 -0.00748478
v 0.04405238 0.00442380 -0.00842188
v 0.04437349 0.00563674 -0.00747730
v 0.04452170 0.00522796 -0.00767160
v 0.04388770 0.00458999 -0.00842188
v 0.04397004 0.00512163 -0.00806766
v 0.04367774 0.00553277 -0.00796753
v 0.04397004 0.00540912 -0.00788532
v 0.04593790 0.00491528 -0.00677784
v 0.04537801 0.00551308 -0.00679727
v 0.04555503 0.00513030 -0.00696167
v 0.04475636 0.00546740 -0.00733831
v 0.04516804 0.00529885 -0.00714999
v 0.04663776 0.00450256 -0.00635487
v 0.04629195 0.00470892 -0.00656561
v 0.04723882 0.00406858 -0.00591995
v 0.04765874 0.00374014 -0.00558965
v 0.04753935 0.00354087 -0.00596628
v 0.04764639 0.00313525 -0.00616058
v 0.04724706 0.00352985 -0.00640270
v 0.04702063 0.00423634 -0.00608286
v 0.04774520 0.00275246 -0.00630555
v 0.04775755 0.00269811 -0.00632199
v 0.04750642 0.00269811 -0.00662390
v 0.04732116 0.00269811 -0.00684659
v 0.04723882 0.00269811 -0.00693776
v 0.01849084 0.01011517 0.00684676
v 0.04085358 0.00841548 0.00525504
v 0.04106766 0.00845329 0.00492623
v 0.04110060 0.00855725 0.00436725
v 0.04110060 0.00864940 0.00379333
v 0.04167695 0.00863680 0.00321942
v 0.04167695 0.00870218 0.00264550
v 0.04224920 0.00863917 0.00207158
v 0.04224920 0.00867934 0.00149766
v 0.04224920 0.00870139 0.00092374
v 0.04224920 0.00871557 0.00034982
v 0.04167695 0.00882032 0.00034982
v 0.04167695 0.00882111 -0.00022410
v 0.04770814 0.00439781 0.00466766
v 0.04762581 0.00428045 0.00505028
v 0.04824745 0.00318408 0.00515191
v 0.04813218 0.00351724 0.00495313
v 0.04780695 0.00409536 0.00489185
v 0.04833802 0.00280129 0.00536264
v 0.04709473 0.00492315 0.00514892
v 0.04672010 0.00515156 0.00551659
v 0.04645662 0.00543905 0.00551659
v 0.04605317 0.00561469 0.00591564
v 0.04627136 0.00525947 0.00610097
v 0.04592555 0.00548079 0.00629825
v 0.04610257 0.00509879 0.00652095
v 0.04596260 0.00494206 0.00684676
v 0.04835861 0.00269811 0.00540748
v 0.04167695 0.00880772 -0.00079652
v 0.04167695 0.00855253 -0.00366612
v 0.04224920 0.00870139 -0.00079652
v 0.04224920 0.00868012 -0.00137044
v 0.04224920 0.00864074 -0.00194436
v 0.04224920 0.00859112 -0.00251828
v 0.04224920 0.00852260 -0.00309220
v 0.04123645 0.00837925 -0.00497986
v 0.04167695 0.00817604 -0.00538937
v 0.04166872 0.00845801 -0.00423406
v 0.04147523 0.00842493 -0.00459725
v 0.02416386 0.00890932 -0.00842188
v 0.03045853 0.00840445 -0.00796603
v 0.04068479 0.00781531 -0.00678681
v 0.03995199 0.00768929 -0.00716643
v 0.03937975 0.00772867 -0.00722771
v 0.03823115 0.00780665 -0.00735176
v 0.04050777 0.00767196 -0.00706181
v 0.03007566 0.00842887 -0.00800340
v 0.03995199 0.00740181 -0.00757595
v 0.03497472 0.00782004 -0.00795258
v 0.02790196 0.00842572 -0.00842188
v 0.04170166 0.00795393 -0.00600365
v 0.04191161 0.00782319 -0.00622186
v 0.04152875 0.00786572 -0.00631601
v 0.04110060 0.00777278 -0.00670162
v 0.04457110 0.00584704 -0.00713355
v 0.04394946 0.00582735 -0.00758043
v 0.04412648 0.00601953 -0.00731290
v 0.04368598 0.00476090 -0.00842188
v 0.04348837 0.00492788 -0.00842188
v 0.04340192 0.00525632 -0.00826345
v 0.04329488 0.00566903 -0.00806019
v 0.04300258 0.00605182 -0.00792568
v 0.04345132 0.00584625 -0.00784945
v 0.04610669 0.00509958 -0.00639523
v 0.04648956 0.00488456 -0.00615908
v 0.04554268 0.00566903 -0.00641466
v 0.04592555 0.00548237 -0.00617253
v 0.04499514 0.00567455 -0.00695569
v 0.04438584 0.00620619 -0.00693029
v 0.04476871 0.00605733 -0.00675692
v 0.04516393 0.00586358 -0.00658653
v 0.04714414 0.00441198 -0.00570025
v 0.04775343 0.00389845 -0.00520703
v 0.04786870 0.00354087 -0.00539386
v 0.04816511 0.00297851 -0.00541179
v 0.04776578 0.00335736 -0.00577796
v 0.04752700 0.00409536 -0.00539386
v 0.04786459 0.00294858 -0.00596628
v 0.04681890 0.00464827 -0.00593041
v 0.04780283 0.00269811 -0.00625324
v 0.02421326 0.00956462 0.00684676
v 0.03166888 0.00898572 0.00638793
v 0.04052835 0.00843123 0.00531332
v 0.04052835 0.00834932 0.00560028
v 0.04052835 0.00818707 0.00609051
v 0.04106766 0.00830836 0.00547474
v 0.04167695 0.00817447 0.00551659
v 0.04123645 0.00837846 0.00510558
v 0.04147523 0.00842414 0.00472296
v 0.04185810 0.00838870 0.00454511
v 0.04166872 0.00845565 0.00435978
v 0.04167695 0.00854859 0.00379333
v 0.04202277 0.00842257 0.00416250
v 0.04215039 0.00845329 0.00379333
v 0.04230683 0.00849818 0.00327621
v 0.04224920 0.00858955 0.00264550
v 0.04271440 0.00846668 0.00264550
v 0.04285437 0.00847849 0.00203870
v 0.04282144 0.00852732 0.00149766
v 0.04282144 0.00855095 0.00092374
v 0.04282144 0.00856670 0.00034982
v 0.04224920 0.00871635 -0.00022410
v 0.04828039 0.00382520 0.00409375
v 0.04776578 0.00447657 0.00436725
v 0.04754347 0.00476327 0.00436725
v 0.04831744 0.00331719 0.00476930
v 0.04842036 0.00297772 0.00495313
v 0.04867972 0.00290999 0.00432391
v 0.04837508 0.00351724 0.00431793
v 0.04854798 0.00269811 0.00493818
v 0.04717295 0.00502318 0.00476631
v 0.04701651 0.00541069 0.00436725
v 0.04686419 0.00527365 0.00498153
v 0.04653896 0.00552411 0.00519675
v 0.04616844 0.00572653 0.00551659
v 0.04587203 0.00601401 0.00551659
v 0.04547269 0.00616602 0.00589621
v 0.04569912 0.00583365 0.00609648
v 0.04533272 0.00605182 0.00627882
v 0.04554268 0.00566903 0.00654187
v 0.04541506 0.00554538 0.00684676
v 0.04552210 0.00543196 0.00684676
v 0.04202689 0.00842336 -0.00403977
v 0.04282144 0.00856749 -0.00022410
v 0.04282144 0.00855174 -0.00079652
v 0.04282144 0.00852890 -0.00137044
v 0.04285437 0.00847928 -0.00191746
v 0.04271852 0.00846746 -0.00251828
v 0.04260736 0.00843123 -0.00309220
v 0.04253738 0.00840839 -0.00338215
v 0.04222861 0.00844541 -0.00361082
v 0.04166872 0.00833908 -0.00479901
v 0.04224920 0.00819967 -0.00481396
v 0.04224920 0.00803348 -0.00538937
v 0.04224920 0.00788777 -0.00581085
v 0.04185810 0.00838870 -0.00442238
v 0.02962281 0.00845801 -0.00804674
v 0.04110060 0.00752389 -0.00711113
v 0.04052835 0.00735849 -0.00751915
v 0.04110060 0.00729863 -0.00744442
v 0.03937975 0.00720411 -0.00791372
v 0.03896806 0.00723877 -0.00794959
v 0.03858520 0.00726949 -0.00798247
v 0.03191589 0.00786414 -0.00842188
v 0.03147127 0.00792794 -0.00842188
v 0.03459185 0.00784603 -0.00798696
v 0.02847421 0.00834932 -0.00842188
v 0.04170166 0.00772395 -0.00651928
v 0.04224920 0.00776963 -0.00609781
v 0.04224920 0.00755224 -0.00653721
v 0.04161932 0.00738684 -0.00712757
v 0.04374361 0.00615264 -0.00743396
v 0.04392064 0.00637081 -0.00707974
v 0.04325371 0.00510746 -0.00842188
v 0.04290378 0.00535635 -0.00842188
v 0.04282144 0.00541148 -0.00842188
v 0.04281732 0.00584625 -0.00814239
v 0.04282967 0.00640546 -0.00769103
v 0.04304375 0.00665514 -0.00736372
v 0.04339780 0.00626290 -0.00753410
v 0.04261971 0.00615579 -0.00800489
v 0.04224920 0.00653621 -0.00783899
v 0.04661718 0.00503815 -0.00577647
v 0.04533272 0.00605182 -0.00615310
v 0.04569912 0.00583444 -0.00597077
v 0.04605729 0.00561626 -0.00578992
v 0.04453817 0.00639680 -0.00652824
v 0.04371480 0.00670634 -0.00684808
v 0.04409766 0.00658898 -0.00668219
v 0.04494985 0.00620383 -0.00637430
v 0.04722647 0.00451989 -0.00538937
v 0.04700828 0.00480737 -0.00538937
v 0.04762581 0.00428124 -0.00492456
v 0.04781107 0.00409536 -0.00476613
v 0.04813218 0.00351882 -0.00482741
v 0.04824745 0.00318408 -0.00502619
v 0.04833802 0.00280129 -0.00523543
v 0.04822275 0.00269811 -0.00556274
v 0.04813218 0.00269811 -0.00572117
v 0.03028150 0.00897627 0.00684676
v 0.03055733 0.00894870 0.00684676
v 0.03740366 0.00841154 0.00638643
v 0.03995199 0.00837846 0.00569295
v 0.03995199 0.00824929 0.00609051
v 0.03937975 0.00808862 0.00666442
v 0.03995199 0.00802324 0.00666442
v 0.04050777 0.00793897 0.00669880
v 0.04110060 0.00790983 0.00654038
v 0.04110060 0.00809413 0.00609051
v 0.04166872 0.00833829 0.00492623
v 0.04170166 0.00795236 0.00613086
v 0.04224920 0.00788620 0.00593507
v 0.04224920 0.00803191 0.00551659
v 0.04224920 0.00819810 0.00494117
v 0.04222861 0.00833357 0.00435978
v 0.04243446 0.00838319 0.00379333
v 0.04253326 0.00840760 0.00350488
v 0.04262795 0.00843832 0.00312227
v 0.04300258 0.00837295 0.00264550
v 0.04312197 0.00841233 0.00182647
v 0.04315490 0.00842257 0.00149766
v 0.04319196 0.00843438 0.00092374
v 0.04322077 0.00844226 0.00034982
v 0.04814453 0.00417885 0.00379333
v 0.04853151 0.00352985 0.00379333
v 0.04832156 0.00389137 0.00379333
v 0.04786047 0.00460023 0.00379333
v 0.04763816 0.00488771 0.00379333
v 0.04709473 0.00550127 0.00396521
v 0.04725529 0.00512400 0.00436725
v 0.04869207 0.00269811 0.00455109
v 0.04874147 0.00269811 0.00441359
v 0.04884851 0.00269811 0.00411467
v 0.04877441 0.00307224 0.00379333
v 0.04672833 0.00570684 0.00436725
v 0.04662953 0.00561154 0.00481413
v 0.04596260 0.00609593 0.00519077
v 0.04558385 0.00625739 0.00551659
v 0.04522156 0.00654409 0.00551659
v 0.04484281 0.00669610 0.00581999
v 0.04508571 0.00637632 0.00604866
v 0.04469049 0.00658583 0.00620260
v 0.04494985 0.00620304 0.00650002
v 0.04516393 0.00586279 0.00671225
v 0.04529979 0.00564304 0.00684676
v 0.04240975 0.00837610 -0.00376476
v 0.04222861 0.00833436 -0.00423406
v 0.04322077 0.00844305 -0.00022410
v 0.04319607 0.00843517 -0.00079652
v 0.04315490 0.00842257 -0.00137044
v 0.04312609 0.00841233 -0.00170822
v 0.04306845 0.00839500 -0.00209083
v 0.04300670 0.00837452 -0.00251828
v 0.04289554 0.00833751 -0.00309220
v 0.04276792 0.00829261 -0.00361082
v 0.04282144 0.00815478 -0.00424004
v 0.04282144 0.00801931 -0.00481396
v 0.04277615 0.00788068 -0.00533407
v 0.04255384 0.00784051 -0.00569128
v 0.04139289 0.00726161 -0.00739959
v 0.04052835 0.00710172 -0.00780611
v 0.03995199 0.00715528 -0.00786291
v 0.04110060 0.00703084 -0.00773138
v 0.04052835 0.00681503 -0.00808560
v 0.03995199 0.00686859 -0.00813193
v 0.03662558 0.00712141 -0.00842188
v 0.03651030 0.00714110 -0.00842188
v 0.03593394 0.00723641 -0.00842188
v 0.03536170 0.00732935 -0.00842188
v 0.03287512 0.00772237 -0.00842188
v 0.03249225 0.00777987 -0.00842188
v 0.02870887 0.00831703 -0.00842188
v 0.04224920 0.00733013 -0.00692879
v 0.04277615 0.00766015 -0.00591397
v 0.04320019 0.00730178 -0.00632498
v 0.04278027 0.00736085 -0.00652526
v 0.04256208 0.00727106 -0.00683912
v 0.04177576 0.00720805 -0.00733083
v 0.04339780 0.00654960 -0.00724714
v 0.04231095 0.00571393 -0.00842188
v 0.04225743 0.00580372 -0.00838302
v 0.04339780 0.00679219 -0.00696018
v 0.04266088 0.00674335 -0.00745787
v 0.04224920 0.00712063 -0.00721575
v 0.04280085 0.00696704 -0.00710067
v 0.04224920 0.00624951 -0.00807663
v 0.04180458 0.00663466 -0.00792568
v 0.04224920 0.00683314 -0.00755203
v 0.04672010 0.00515393 -0.00538937
v 0.04645662 0.00544062 -0.00538937
v 0.04469049 0.00658662 -0.00607539
v 0.04508983 0.00637711 -0.00592294
v 0.04547269 0.00616681 -0.00577049
v 0.04587203 0.00601559 -0.00538937
v 0.04617256 0.00572811 -0.00538937
v 0.04430762 0.00671815 -0.00629957
v 0.04393299 0.00680085 -0.00650881
v 0.04339368 0.00708518 -0.00652526
v 0.04709473 0.00492473 -0.00502619
v 0.04770814 0.00439860 -0.00454195
v 0.04740350 0.00466166 -0.00478407
v 0.04805808 0.00405125 -0.00419072
v 0.04821040 0.00370234 -0.00435064
v 0.04832156 0.00331955 -0.00464358
v 0.04842036 0.00297851 -0.00482741
v 0.04842448 0.00269811 -0.00513380
v 0.04835861 0.00269811 -0.00528027
v 0.03566223 0.00842099 0.00684676
v 0.03598335 0.00838634 0.00684676
v 0.03995199 0.00793897 0.00684676
v 0.03615214 0.00836744 0.00684676
v 0.04039661 0.00788698 0.00684676
v 0.04063127 0.00785469 0.00684676
v 0.04076301 0.00783264 0.00684676
v 0.04101002 0.00778144 0.00684676
v 0.04110060 0.00777199 0.00682733
v 0.04190750 0.00782240 0.00634907
v 0.04224920 0.00776805 0.00622203
v 0.04254973 0.00783973 0.00581700
v 0.04277615 0.00787990 0.00546129
v 0.04282144 0.00801773 0.00494117
v 0.04282144 0.00815163 0.00436725
v 0.04282144 0.00826032 0.00379333
v 0.04282144 0.00835011 0.00327621
v 0.04339780 0.00816502 0.00321942
v 0.04339780 0.00824299 0.00264550
v 0.04334840 0.00831782 0.00203870
v 0.04344308 0.00832963 0.00149766
v 0.04348014 0.00834302 0.00092374
v 0.04350484 0.00835090 0.00034982
v 0.04350895 0.00835168 -0.00022410
v 0.04821863 0.00430014 0.00321942
v 0.04882381 0.00318802 0.00340325
v 0.04870031 0.00349598 0.00321493
v 0.04839566 0.00401266 0.00321942
v 0.04826392 0.00436945 0.00286221
v 0.04790987 0.00472388 0.00324333
v 0.04774108 0.00501137 0.00306846
v 0.04768756 0.00494599 0.00345108
v 0.04732116 0.00528625 0.00378138
v 0.04683125 0.00581632 0.00375746
v 0.04651014 0.00607230 0.00393382
v 0.04714825 0.00556113 0.00358260
v 0.04893908 0.00269811 0.00379333
v 0.04890203 0.00278554 0.00379333
v 0.04642780 0.00599354 0.00436725
v 0.04604905 0.00617626 0.00480666
v 0.04543976 0.00671106 0.00471699
v 0.04569912 0.00640546 0.00495313
v 0.04533684 0.00663545 0.00509960
v 0.04493338 0.00676147 0.00551659
v 0.04450112 0.00705210 0.00547623
v 0.04414295 0.00719545 0.00564064
v 0.04451758 0.00678589 0.00604268
v 0.04430762 0.00671736 0.00642529
v 0.04478518 0.00607072 0.00684676
v 0.04453817 0.00639601 0.00665396
v 0.04473166 0.00611089 0.00684676
v 0.04348014 0.00834302 -0.00079652
v 0.04344308 0.00832963 -0.00137044
v 0.04334840 0.00831939 -0.00191746
v 0.04339780 0.00824457 -0.00251828
v 0.04339780 0.00816738 -0.00309220
v 0.04339780 0.00806499 -0.00366612
v 0.04342662 0.00793818 -0.00424901
v 0.04363658 0.00781531 -0.00444629
v 0.04322077 0.00787596 -0.00481396
v 0.04311374 0.00783579 -0.00510690
v 0.04293671 0.00776884 -0.00548951
v 0.04159873 0.00695286 -0.00766263
v 0.04110060 0.00674414 -0.00802283
v 0.04142583 0.00669767 -0.00798098
v 0.04052835 0.00645902 -0.00837256
v 0.03996023 0.00652124 -0.00842188
v 0.03993141 0.00652676 -0.00842188
v 0.03937975 0.00662994 -0.00842188
v 0.03832584 0.00681897 -0.00842188
v 0.04339368 0.00738684 -0.00595881
v 0.04358306 0.00720963 -0.00614862
v 0.04294494 0.00719072 -0.00670759
v 0.04222038 0.00576434 -0.00842188
v 0.04195278 0.00589429 -0.00842188
v 0.04167284 0.00602504 -0.00842188
v 0.04163990 0.00642594 -0.00813492
v 0.04654307 0.00552647 -0.00507551
v 0.04484281 0.00669610 -0.00569277
v 0.04558796 0.00625818 -0.00538937
v 0.04522156 0.00654487 -0.00538937
v 0.04596260 0.00609671 -0.00506505
v 0.04451758 0.00678667 -0.00591547
v 0.04396181 0.00709542 -0.00595881
v 0.04686419 0.00527601 -0.00485880
v 0.04717707 0.00502554 -0.00464358
v 0.04754347 0.00476405 -0.00424004
v 0.04776578 0.00447736 -0.00424004
v 0.04828039 0.00382520 -0.00396803
v 0.04837508 0.00351882 -0.00419072
v 0.04867972 0.00290999 -0.00419819
v 0.04865090 0.00269811 -0.00453597
v 0.04854798 0.00269811 -0.00481097
v 0.04877441 0.00269811 -0.00419819
v 0.04110060 0.00776018 0.00684676
v 0.04167284 0.00761132 0.00684676
v 0.04170166 0.00772316 0.00664500
v 0.04224920 0.00754909 0.00666442
v 0.04278027 0.00735849 0.00665097
v 0.04320019 0.00730099 0.00645070
v 0.04277615 0.00765857 0.00604118
v 0.04293259 0.00776805 0.00561672
v 0.04311374 0.00783579 0.00523411
v 0.04322077 0.00787517 0.00494117
v 0.04363658 0.00781452 0.00457351
v 0.04342662 0.00793582 0.00437622
v 0.04339780 0.00806184 0.00379333
v 0.04373126 0.00785863 0.00419089
v 0.04381360 0.00789722 0.00379333
v 0.04398651 0.00792952 0.00317308
v 0.04397004 0.00801143 0.00264550
v 0.04397004 0.00807050 0.00207158
v 0.04397004 0.00811933 0.00149766
v 0.04397004 0.00814769 0.00092374
v 0.04397004 0.00816580 0.00034982
v 0.04397004 0.00816580 -0.00022410
v 0.04397004 0.00814848 -0.00079652
v 0.04908317 0.00269811 0.00321792
v 0.04895967 0.00298008 0.00321493
v 0.04886910 0.00328174 0.00302064
v 0.04874971 0.00363854 0.00264550
v 0.04829685 0.00442459 0.00247960
v 0.04810748 0.00464040 0.00266044
v 0.04843683 0.00414813 0.00266044
v 0.04778636 0.00506650 0.00264550
v 0.04754759 0.00535398 0.00264550
v 0.04719765 0.00561311 0.00321942
v 0.04690536 0.00590060 0.00321942
v 0.04630018 0.00630937 0.00376344
v 0.04614374 0.00625975 0.00436725
v 0.04661718 0.00617154 0.00321942
v 0.04580204 0.00654724 0.00436725
v 0.04551386 0.00676462 0.00436725
v 0.04508159 0.00707494 0.00435978
v 0.04477695 0.00722932 0.00454660
v 0.04513511 0.00685205 0.00492174
v 0.04466167 0.00716237 0.00494117
v 0.04427880 0.00727106 0.00525802
v 0.04396181 0.00736164 0.00547623
v 0.04376008 0.00730257 0.00589173
v 0.04396181 0.00709463 0.00608602
v 0.04358306 0.00720884 0.00627434
v 0.04393299 0.00679928 0.00663603
v 0.04409766 0.00658819 0.00680790
v 0.04446406 0.00630543 0.00684676
v 0.04397004 0.00812091 -0.00137044
v 0.04397004 0.00807286 -0.00194436
v 0.04397004 0.00801300 -0.00251828
v 0.04399063 0.00792952 -0.00304736
v 0.04381772 0.00789801 -0.00366612
v 0.04373538 0.00785863 -0.00406368
v 0.04394534 0.00770819 -0.00424901
v 0.04457110 0.00738842 -0.00423257
v 0.04477695 0.00722932 -0.00441939
v 0.04397004 0.00753885 -0.00481396
v 0.04350895 0.00776254 -0.00481396
v 0.04334428 0.00766015 -0.00533407
v 0.04107178 0.00635190 -0.00833669
v 0.04061481 0.00637159 -0.00842188
v 0.04052835 0.00639365 -0.00842188
v 0.04376008 0.00730257 -0.00576601
v 0.04115411 0.00621249 -0.00842188
v 0.04662953 0.00561390 -0.00469290
v 0.04701651 0.00541227 -0.00424004
v 0.04629606 0.00585570 -0.00487823
v 0.04493338 0.00676226 -0.00538937
v 0.04414295 0.00719624 -0.00551641
v 0.04450112 0.00705289 -0.00535051
v 0.04533684 0.00663545 -0.00497239
v 0.04604905 0.00617705 -0.00468244
v 0.04569912 0.00640625 -0.00482741
v 0.04725529 0.00512557 -0.00424004
v 0.04764227 0.00488929 -0.00366612
v 0.04709473 0.00550127 -0.00383949
v 0.04786047 0.00460259 -0.00366612
v 0.04814865 0.00418042 -0.00366612
v 0.04832156 0.00389294 -0.00366612
v 0.04853563 0.00352985 -0.00366612
v 0.04877441 0.00307381 -0.00366612
v 0.04885675 0.00269811 -0.00396952
v 0.04224920 0.00744591 0.00684676
v 0.04264030 0.00730257 0.00684676
v 0.04294083 0.00718994 0.00683331
v 0.04339368 0.00708361 0.00665097
v 0.04339368 0.00738527 0.00608602
v 0.04334016 0.00765936 0.00546129
v 0.04350895 0.00776254 0.00494117
v 0.04397004 0.00753728 0.00494117
v 0.04457110 0.00738684 0.00435978
v 0.04394122 0.00770662 0.00437622
v 0.04486340 0.00728130 0.00416399
v 0.04454640 0.00752783 0.00379333
v 0.04410178 0.00775309 0.00379333
v 0.04426646 0.00783815 0.00295188
v 0.04436526 0.00788541 0.00207158
v 0.04441878 0.00791140 0.00149766
v 0.04444760 0.00792558 0.00092374
v 0.04446818 0.00793503 0.00034982
v 0.04446818 0.00793582 -0.00022410
v 0.04445171 0.00792637 -0.00079652
v 0.04920256 0.00269811 0.00266642
v 0.04909141 0.00295567 0.00264550
v 0.04890615 0.00335105 0.00264550
v 0.04879911 0.00372675 0.00207158
v 0.04895555 0.00344006 0.00207158
v 0.04812395 0.00476011 0.00207158
v 0.04856445 0.00410402 0.00207158
v 0.04832979 0.00447342 0.00207158
v 0.04783988 0.00512636 0.00207158
v 0.04759699 0.00541384 0.00207158
v 0.04725941 0.00568242 0.00264550
v 0.04697534 0.00596912 0.00264550
v 0.04623843 0.00649840 0.00325678
v 0.04596671 0.00667798 0.00347200
v 0.04591320 0.00663624 0.00379333
v 0.04668716 0.00623612 0.00264550
v 0.04636605 0.00652282 0.00264550
v 0.04602847 0.00672366 0.00308939
v 0.04437761 0.00732226 0.00494117
v 0.04379713 0.00673942 0.00684676
v 0.04407708 0.00656771 0.00684676
v 0.04441878 0.00791219 -0.00137044
v 0.04436526 0.00788698 -0.00194436
v 0.04430351 0.00785627 -0.00251828
v 0.04426646 0.00783815 -0.00282617
v 0.04419235 0.00780113 -0.00320878
v 0.04410178 0.00775624 -0.00366612
v 0.04454640 0.00753098 -0.00366612
v 0.04486340 0.00728130 -0.00403678
v 0.04508159 0.00707573 -0.00423257
v 0.04543976 0.00671106 -0.00458977
v 0.04513511 0.00685205 -0.00479453
v 0.04466579 0.00716237 -0.00481396
v 0.04437761 0.00732383 -0.00481396
v 0.04396181 0.00736164 -0.00535051
v 0.04427880 0.00727185 -0.00513231
v 0.04098944 0.00626605 -0.00842188
v 0.04643192 0.00599590 -0.00424004
v 0.04672833 0.00570920 -0.00424004
v 0.04614374 0.00626133 -0.00424004
v 0.04580204 0.00654802 -0.00424004
v 0.04732116 0.00528704 -0.00365566
v 0.04768756 0.00494836 -0.00332984
v 0.04651014 0.00607309 -0.00381558
v 0.04683125 0.00581711 -0.00363623
v 0.04714825 0.00556113 -0.00345688
v 0.04774108 0.00501215 -0.00294723
v 0.04790987 0.00472546 -0.00312060
v 0.04826392 0.00437024 -0.00273799
v 0.04822275 0.00430172 -0.00309220
v 0.04839978 0.00401502 -0.00309220
v 0.04870442 0.00349598 -0.00308921
v 0.04882381 0.00318880 -0.00327753
v 0.04890203 0.00278633 -0.00366612
v 0.04893908 0.00269811 -0.00366612
v 0.04293671 0.00718285 0.00684676
v 0.04339368 0.00695207 0.00684676
v 0.04531213 0.00719387 0.00321942
v 0.04492927 0.00732147 0.00379333
v 0.04562502 0.00683944 0.00379333
v 0.04574441 0.00688513 0.00325678
v 0.04449288 0.00767984 0.00317308
v 0.04458757 0.00771371 0.00264550
v 0.04464932 0.00774600 0.00207158
v 0.04470284 0.00777278 0.00149766
v 0.04473578 0.00778774 0.00092374
v 0.04475636 0.00779798 0.00034982
v 0.04475636 0.00779798 -0.00022410
v 0.04473578 0.00778853 -0.00079652
v 0.04470696 0.00777278 -0.00137044
v 0.04925608 0.00269811 0.00234509
v 0.04918609 0.00295567 0.00207158
v 0.04930137 0.00269811 0.00207158
v 0.04883205 0.00378267 0.00162918
v 0.04929313 0.00290053 0.00144834
v 0.04896378 0.00356686 0.00146179
v 0.04816511 0.00481761 0.00149766
v 0.04868384 0.00405047 0.00146179
v 0.04837096 0.00453092 0.00149766
v 0.04788105 0.00517519 0.00149766
v 0.04763816 0.00546189 0.00149766
v 0.04730881 0.00573362 0.00207158
v 0.04702886 0.00602031 0.00207158
v 0.04674068 0.00628181 0.00207158
v 0.04641545 0.00656929 0.00207158
v 0.04607787 0.00676304 0.00264550
v 0.04537389 0.00723877 0.00276506
v 0.04465344 0.00774679 -0.00194436
v 0.04458757 0.00771371 -0.00251828
v 0.04449288 0.00768220 -0.00304736
v 0.04492927 0.00732226 -0.00366612
v 0.04521745 0.00712850 -0.00366612
v 0.04562502 0.00684181 -0.00366612
v 0.04551798 0.00676541 -0.00424004
v 0.04591320 0.00663702 -0.00366612
v 0.04630018 0.00631174 -0.00364071
v 0.04657189 0.00612743 -0.00343297
v 0.04690536 0.00590138 -0.00309220
v 0.04719765 0.00561390 -0.00309220
v 0.04754759 0.00535556 -0.00251828
v 0.04778636 0.00506808 -0.00251828
v 0.04810748 0.00464118 -0.00253622
v 0.04830097 0.00442537 -0.00235537
v 0.04844094 0.00414892 -0.00253622
v 0.04874971 0.00363933 -0.00251828
v 0.04886910 0.00328253 -0.00289492
v 0.04896378 0.00298087 -0.00308921
v 0.04897202 0.00269811 -0.00354207
v 0.04502396 0.00738054 0.00321942
v 0.04515570 0.00739472 0.00260215
v 0.04511864 0.00748136 0.00207158
v 0.04511864 0.00753885 0.00149766
v 0.04511864 0.00757193 0.00092374
v 0.04511864 0.00759399 0.00034982
v 0.04511864 0.00759478 -0.00022410
v 0.04511864 0.00757351 -0.00079652
v 0.04511864 0.00754043 -0.00137044
v 0.04511864 0.00748451 -0.00194436
v 0.04933842 0.00269811 0.00180255
v 0.04937135 0.00269811 0.00156192
v 0.04941252 0.00269811 0.00124956
v 0.04885263 0.00382363 0.00124507
v 0.04902965 0.00352985 0.00092374
v 0.04819393 0.00485384 0.00092374
v 0.04839566 0.00456715 0.00092374
v 0.04790575 0.00520434 0.00092374
v 0.04766286 0.00549182 0.00092374
v 0.04734998 0.00577458 0.00149766
v 0.04707415 0.00606127 0.00149766
v 0.04678597 0.00631961 0.00149766
v 0.04646074 0.00660709 0.00149766
v 0.04613139 0.00680164 0.00207158
v 0.04572794 0.00708912 0.00207158
v 0.04563737 0.00707888 0.00260215
v 0.04541094 0.00726319 0.00238245
v 0.04515570 0.00739629 -0.00248092
v 0.04502396 0.00738133 -0.00309220
v 0.04531213 0.00719545 -0.00309220
v 0.04574441 0.00688670 -0.00313106
v 0.04597083 0.00667877 -0.00334778
v 0.04623843 0.00650077 -0.00313106
v 0.04662129 0.00617390 -0.00309220
v 0.04697534 0.00596991 -0.00251828
v 0.04726352 0.00568321 -0.00251828
v 0.04759699 0.00541542 -0.00194436
v 0.04783988 0.00512872 -0.00194436
v 0.04812806 0.00476169 -0.00194436
v 0.04833391 0.00447500 -0.00194436
v 0.04856857 0.00410402 -0.00194436
v 0.04879911 0.00372833 -0.00194436
v 0.04890615 0.00335263 -0.00251828
v 0.04909552 0.00295567 -0.00251828
v 0.04920256 0.00269811 -0.00253921
v 0.04913669 0.00269811 -0.00284560
v 0.04908317 0.00269811 -0.00309071
v 0.04543976 0.00728288 0.00207158
v 0.04548504 0.00731359 0.00149766
v 0.04551386 0.00733171 0.00092374
v 0.04553033 0.00734352 0.00034982
v 0.04553033 0.00734352 -0.00022410
v 0.04551386 0.00733250 -0.00079652
v 0.04548504 0.00731438 -0.00137044
v 0.04544387 0.00728445 -0.00194436
v 0.04942899 0.00269811 0.00094317
v 0.04944957 0.00272411 0.00034982
v 0.04931783 0.00301080 0.00034982
v 0.04930137 0.00297772 0.00092374
v 0.04886498 0.00383938 0.00092374
v 0.04906259 0.00352985 0.00034982
v 0.04821040 0.00487668 0.00034982
v 0.04869619 0.00415128 0.00034982
v 0.04840801 0.00458920 0.00034982
v 0.04792222 0.00522324 0.00034982
v 0.04767933 0.00550993 0.00034982
v 0.04737468 0.00579899 0.00092374
v 0.04709885 0.00608647 0.00092374
v 0.04681067 0.00634245 0.00092374
v 0.04648544 0.00662994 0.00092374
v 0.04617256 0.00683393 0.00149766
v 0.04577322 0.00712063 0.00149766
v 0.04541094 0.00726476 -0.00226420
v 0.04537389 0.00723877 -0.00264682
v 0.04602847 0.00672366 -0.00296516
v 0.04636605 0.00652439 -0.00251828
v 0.04669128 0.00623691 -0.00251828
v 0.04702886 0.00602110 -0.00194436
v 0.04731293 0.00573441 -0.00194436
v 0.04763816 0.00546268 -0.00137044
v 0.04788105 0.00517598 -0.00137044
v 0.04816923 0.00481840 -0.00137044
v 0.04837096 0.00453170 -0.00137044
v 0.04868384 0.00405047 -0.00133607
v 0.04883205 0.00378346 -0.00150346
v 0.04895555 0.00344084 -0.00194436
v 0.04919021 0.00295567 -0.00194436
v 0.04930548 0.00269811 -0.00194436
v 0.04579792 0.00713953 0.00092374
v 0.04581851 0.00715213 0.00034982
v 0.04581851 0.00715213 -0.00022410
v 0.04580204 0.00714032 -0.00079652
v 0.04577322 0.00712141 -0.00137044
v 0.04572794 0.00708991 -0.00194436
v 0.04943722 0.00269811 0.00078923
v 0.04945781 0.00269811 0.00039167
v 0.04946192 0.00269811 -0.00022410
v 0.04931783 0.00301159 -0.00022410
v 0.04888145 0.00386380 0.00034982
v 0.04906259 0.00352985 -0.00022410
v 0.04888145 0.00386459 -0.00022410
v 0.04821040 0.00487668 -0.00022410
v 0.04792222 0.00522403 -0.00022410
v 0.04869619 0.00415128 -0.00022410
v 0.04840801 0.00458920 -0.00022410
v 0.04767933 0.00551072 -0.00022410
v 0.04739115 0.00581474 0.00034982
v 0.04711532 0.00610223 0.00034982
v 0.04682714 0.00635742 0.00034982
v 0.04650191 0.00664411 0.00034982
v 0.04620138 0.00685283 0.00092374
v 0.04563737 0.00707967 -0.00248092
v 0.04607787 0.00676304 -0.00251828
v 0.04641957 0.00657086 -0.00194436
v 0.04674480 0.00628338 -0.00194436
v 0.04707415 0.00606206 -0.00137044
v 0.04734998 0.00577536 -0.00137044
v 0.04766286 0.00549261 -0.00079652
v 0.04790575 0.00520512 -0.00079652
v 0.04819393 0.00485463 -0.00079652
v 0.04839566 0.00456715 -0.00079652
v 0.04885263 0.00382363 -0.00112085
v 0.04896790 0.00356765 -0.00133607
v 0.04929313 0.00290053 -0.00132262
v 0.04941252 0.00269811 -0.00112384
v 0.04621784 0.00686544 0.00034982
v 0.04621784 0.00686544 -0.00022410
v 0.04620138 0.00685362 -0.00079652
v 0.04617256 0.00683472 -0.00137044
v 0.04613139 0.00680321 -0.00194436
v 0.04943311 0.00269811 -0.00078606
v 0.04930137 0.00297851 -0.00079652
v 0.04902965 0.00352985 -0.00079652
v 0.04886498 0.00384017 -0.00079652
v 0.04737468 0.00579978 -0.00079652
v 0.04739115 0.00581553 -0.00022410
v 0.04711532 0.00610223 -0.00022410
v 0.04683125 0.00635742 -0.00022410
v 0.04650191 0.00664411 -0.00022410
v 0.04646074 0.00660788 -0.00137044
v 0.04678597 0.00632040 -0.00137044
v 0.04709885 0.00608647 -0.00079652
v 0.04941664 0.00269811 -0.00107302
v 0.04648544 0.00662994 -0.00079652
v 0.04681067 0.00634324 -0.00079652
f 1 2 6
f 1 6 3
f 1 3 8
f 1 8 12
f 1 12 36
f 1 36 66
f 1 66 119
f 1 119 183
f 1 183 239
f 1 239 313
f 1 313 323
f 1 323 420
f 1 420 525
f 1 525 418
f 1 418 417
f 1 417 524
f 1 524 523
f 1 523 522
f 1 522 521
f 1 521 520
f 1 520 519
f 1 519 630
f 1 630 629
f 1 629 628
f 1 628 627
f 1 627 720
f 1 720 719
f 1 719 797
f 1 797 722
f 1 722 636
f 1 636 635
f 1 635 634
f 1 634 533
f 1 533 429
f 1 429 428
f 1 428 427
f 1 427 332
f 1 332 331
f 1 331 252
f 1 252 249
f 1 249 190
f 1 190 189
f 1 189 187
f 1 187 122
f 1 122 67
f 1 67 37
f 1 37 13
f 1 13 9
f 1 9 4
f 1 4 5
f 1 5 2
f 2 5 7
f 2 7 11
f 2 11 26
f 2 26 51
f 2 51 95
f 2 95 159
f 2 159 160
f 2 160 158
f 2 158 225
f 2 225 300
f 2 300 395
f 2 395 394
f 2 394 498
f 2 498 609
f 2 609 611
f 2 611 705
f 2 705 781
f 2 781 780
f 2 780 817
f 2 817 816
f 2 816 742
f 2 742 741
f 2 741 656
f 2 656 655
f 2 655 568
f 2 568 567
f 2 567 566
f 2 566 565
f 2 565 563
f 2 563 564
f 2 564 562
f 2 562 561
f 2 561 454
f 2 454 453
f 2 453 354
f 2 354 274
f 2 274 203
f 2 203 136
f 2 136 74
f 2 74 42
f 2 42 16
f 2 16 10
f 2 10 6
f 3 6 8
f 4 9 15
f 4 15 41
f 4 41 73
f 4 73 134
f 4 134 133
f 4 133 201
f 4 201 273
f 4 273 272
f 4 272 271
f 4 271 270
f 4 270 353
f 4 353 452
f 4 452 451
f 4 451 560
f 4 560 559
f 4 559 653
f 4 653 652
f 4 652 654
f 4 654 740
f 4 740 815
f 4 815 868
f 4 868 915
f 4 915 914
f 4 914 913
f 4 913 956
f 4 956 993
f 4 993 1011
f 4 1011 999
f 4 999 965
f 4 965 964
f 4 964 963
f 4 963 924
f 4 924 881
f 4 881 880
f 4 880 879
f 4 879 833
f 4 833 831
f 4 831 761
f 4 761 678
f 4 678 597
f 4 597 486
f 4 486 485
f 4 485 484
f 4 484 383
f 4 383 301
f 4 301 226
f 4 226 161
f 4 161 96
f 4 96 91
f 4 91 50
f 4 50 25
f 4 25 11
f 4 11 7
f 4 7 5
f 6 10 8
f 8 10 12
f 9 13 14
f 9 14 15
f 10 16 17
f 10 17 18
f 10 18 19
f 10 19 20
f 10 20 21
f 10 21 22
f 10 22 23
f 10 23 24
f 10 24 12
f 11 25 26
f 12 24 27
f 12 27 28
f 12 28 29
f 12 29 30
f 12 30 31
f 12 31 32
f 12 32 33
f 12 33 34
f 12 34 35
f 12 35 36
f 13 37 38
f 13 38 14
f 14 38 39
f 14 39 40
f 14 40 41
f 14 41 15
f 16 42 43
f 16 43 17
f 17 43 18
f 18 43 44
f 18 44 45
f 18 45 46
f 18 46 19
f 19 46 20
f 20 46 47
f 20 47 48
f 20 48 21
f 21 48 22
f 22 48 23
f 23 48 49
f 23 49 24
f 24 49 27
f 25 50 26
f 26 50 52
f 26 52 51
f 27 49 53
f 27 53 28
f 28 53 29
f 29 53 30
f 30 53 54
f 30 54 55
f 30 55 31
f 31 55 56
f 31 56 57
f 31 57 32
f 32 57 58
f 32 58 59
f 32 59 60
f 32 60 61
f 32 61 33
f 33 61 60
f 33 60 34
f 34 60 62
f 34 62 35
f 35 62 63
f 35 63 64
f 35 64 65
f 35 65 66
f 35 66 36
f 37 67 68
f 37 68 38
f 38 68 39
f 39 68 69
f 39 69 70
f 39 70 40
f 40 70 71
f 40 71 41
f 41 71 72
f 41 72 73
f 42 74 75
f 42 75 76
f 42 76 43
f 43 76 44
f 44 77 45
f 44 76 78
f 44 78 79
f 44 79 80
f 44 80 77
f 45 77 81
f 45 81 82
f 45 82 83
f 45 83 46
f 46 84 47
f 46 83 84
f 47 84 85
f 47 85 86
f 47 86 87
f 47 87 88
f 47 88 89
f 47 89 48
f 48 89 90
f 48 90 49
f 49 90 53
f 50 91 52
f 51 52 92
f 51 92 93
f 51 93 94
f 51 94 95
f 52 91 96
f 52 96 97
f 52 97 98
f 52 98 92
f 53 90 99
f 53 99 54
f 54 99 100
f 54 100 55
f 55 100 101
f 55 101 102
f 55 102 103
f 55 103 56
f 56 103 104
f 56 104 105
f 56 105 57
f 57 106 107
f 57 107 58
f 57 105 108
f 57 108 106
f 58 107 109
f 58 109 59
f 59 110 62
f 59 62 60
f 59 109 111
f 59 111 112
f 59 112 113
f 59 113 110
f 62 110 114
f 62 114 115
f 62 115 63
f 63 115 116
f 63 116 64
f 64 116 117
f 64 117 65
f 65 118 119
f 65 119 66
f 65 117 120
f 65 120 121
f 65 121 118
f 67 122 123
f 67 123 68
f 68 124 69
f 68 123 125
f 68 125 126
f 68 126 124
f 69 127 128
f 69 128 129
f 69 129 130
f 69 130 131
f 69 131 70
f 69 124 132
f 69 132 127
f 70 131 71
f 71 131 72
f 72 133 134
f 72 134 73
f 72 131 135
f 72 135 133
f 74 136 137
f 74 137 75
f 75 137 138
f 75 138 139
f 75 139 76
f 76 139 78
f 77 80 81
f 78 139 140
f 78 140 79
f 79 140 141
f 79 141 142
f 79 142 81
f 79 81 80
f 81 142 143
f 81 143 144
f 81 144 145
f 81 145 83
f 81 83 82
f 83 145 144
f 83 144 146
f 83 146 84
f 84 146 85
f 85 146 144
f 85 144 147
f 85 147 86
f 86 148 87
f 86 147 149
f 86 149 148
f 87 148 149
f 87 149 88
f 88 150 89
f 88 149 150
f 89 150 149
f 89 149 90
f 90 149 151
f 90 151 99
f 92 98 93
f 93 98 152
f 93 152 153
f 93 153 154
f 93 154 155
f 93 155 156
f 93 156 157
f 93 157 158
f 93 158 94
f 94 159 95
f 94 158 160
f 94 160 159
f 96 161 97
f 97 161 162
f 97 162 98
f 98 162 152
f 99 151 101
f 99 101 100
f 101 151 149
f 101 149 147
f 101 147 163
f 101 163 102
f 102 104 103
f 102 163 104
f 104 163 164
f 104 164 165
f 104 165 166
f 104 166 167
f 104 167 108
f 104 108 105
f 106 108 107
f 107 108 109
f 108 167 166
f 108 166 168
f 108 168 109
f 109 168 169
f 109 169 111
f 110 113 170
f 110 170 114
f 111 169 171
f 111 171 172
f 111 172 112
f 112 172 113
f 113 172 173
f 113 173 170
f 114 170 174
f 114 174 175
f 114 175 115
f 115 176 177
f 115 177 178
f 115 178 116
f 115 175 179
f 115 179 180
f 115 180 176
f 116 178 177
f 116 177 117
f 117 177 181
f 117 181 120
f 118 182 119
f 118 121 182
f 119 182 121
f 119 121 184
f 119 184 185
f 119 185 183
f 120 181 186
f 120 186 184
f 120 184 121
f 122 125 123
f 122 187 125
f 124 126 132
f 125 188 132
f 125 132 126
f 125 187 189
f 125 189 190
f 125 190 191
f 125 191 192
f 125 192 188
f 127 193 128
f 127 132 194
f 127 194 195
f 127 195 193
f 128 193 129
f 129 196 130
f 129 193 197
f 129 197 198
f 129 198 199
f 129 199 200
f 129 200 196
f 130 196 200
f 130 200 131
f 131 200 135
f 132 188 194
f 133 135 201
f 135 200 202
f 135 202 201
f 136 203 204
f 136 204 205
f 136 205 137
f 137 205 206
f 137 206 138
f 138 206 207
f 138 207 208
f 138 208 140
f 138 140 139
f 140 208 141
f 141 208 209
f 141 209 210
f 141 210 142
f 142 210 211
f 142 211 143
f 143 211 285
f 143 285 212
f 143 212 144
f 144 212 213
f 144 213 214
f 144 214 164
f 144 164 147
f 147 164 163
f 152 162 153
f 153 215 216
f 153 216 155
f 153 155 154
f 153 162 217
f 153 217 218
f 153 218 215
f 155 216 219
f 155 219 220
f 155 220 221
f 155 221 222
f 155 222 156
f 156 222 157
f 157 223 224
f 157 224 158
f 157 222 223
f 158 224 225
f 161 226 217
f 161 217 162
f 164 214 165
f 165 214 227
f 165 227 169
f 165 169 166
f 166 169 168
f 169 227 228
f 169 228 171
f 170 173 229
f 170 229 179
f 170 179 175
f 170 175 174
f 171 228 230
f 171 230 231
f 171 231 172
f 172 231 232
f 172 232 173
f 173 232 233
f 173 233 229
f 176 180 177
f 177 180 234
f 177 234 235
f 177 235 181
f 179 229 236
f 179 236 237
f 179 237 180
f 180 237 234
f 181 235 234
f 181 234 238
f 181 238 186
f 183 185 240
f 183 240 241
f 183 241 239
f 184 186 242
f 184 242 243
f 184 243 185
f 185 243 244
f 185 244 241
f 185 241 240
f 186 238 245
f 186 245 246
f 186 246 247
f 186 247 242
f 188 192 248
f 188 248 194
f 190 249 191
f 191 250 251
f 191 251 248
f 191 248 192
f 191 249 252
f 191 252 253
f 191 253 254
f 191 254 255
f 191 255 250
f 193 195 256
f 193 256 197
f 194 257 258
f 194 258 195
f 194 248 259
f 194 259 260
f 194 260 257
f 195 258 256
f 197 261 198
f 197 256 262
f 197 262 261
f 198 263 264
f 198 264 265
f 198 265 266
f 198 266 267
f 198 267 200
f 198 200 199
f 198 261 268
f 198 268 263
f 200 267 269
f 200 269 270
f 200 270 271
f 200 271 272
f 200 272 202
f 201 202 273
f 202 272 273
f 203 274 275
f 203 275 204
f 204 275 276
f 204 276 205
f 205 276 277
f 205 277 278
f 205 278 206
f 206 278 207
f 207 278 279
f 207 279 280
f 207 280 208
f 208 280 209
f 209 280 281
f 209 281 282
f 209 282 210
f 210 282 283
f 210 283 211
f 211 283 284
f 211 284 285
f 212 285 286
f 212 286 213
f 213 286 227
f 213 227 214
f 215 287 288
f 215 288 216
f 215 218 289
f 215 289 290
f 215 290 291
f 215 291 287
f 216 288 219
f 217 226 292
f 217 292 289
f 217 289 218
f 219 293 220
f 219 288 293
f 220 293 294
f 220 294 221
f 221 294 295
f 221 295 296
f 221 296 297
f 221 297 223
f 221 223 222
f 223 297 298
f 223 298 299
f 223 299 300
f 223 300 224
f 224 300 225
f 226 301 292
f 227 286 302
f 227 302 228
f 228 302 230
f 229 233 303
f 229 303 236
f 230 302 304
f 230 304 305
f 230 305 231
f 231 305 306
f 231 306 232
f 232 306 307
f 232 307 233
f 233 307 308
f 233 308 303
f 234 237 309
f 234 309 310
f 234 310 245
f 234 245 238
f 236 303 311
f 236 311 312
f 236 312 237
f 237 312 309
f 239 241 313
f 241 244 314
f 241 314 313
f 242 247 315
f 242 315 243
f 243 316 317
f 243 317 318
f 243 318 244
f 243 315 319
f 243 319 316
f 244 320 314
f 244 318 321
f 244 321 322
f 244 322 323
f 244 323 320
f 245 310 246
f 246 310 324
f 246 324 325
f 246 325 326
f 246 326 247
f 247 326 327
f 247 327 315
f 248 251 250
f 248 250 259
f 250 328 259
f 250 255 254
f 250 254 329
f 250 329 330
f 250 330 328
f 252 331 253
f 253 331 332
f 253 332 254
f 254 332 333
f 254 333 334
f 254 334 335
f 254 335 336
f 254 336 329
f 256 337 338
f 256 338 262
f 256 258 257
f 256 257 337
f 257 339 340
f 257 340 337
f 257 260 259
f 257 259 341
f 257 341 342
f 257 342 343
f 257 343 344
f 257 344 339
f 259 328 341
f 261 262 338
f 261 338 268
f 263 268 345
f 263 345 264
f 264 346 347
f 264 347 348
f 264 348 349
f 264 349 265
f 264 345 350
f 264 350 346
f 265 349 266
f 266 349 351
f 266 351 269
f 266 269 267
f 268 338 352
f 268 352 345
f 269 351 353
f 269 353 270
f 274 354 355
f 274 355 356
f 274 356 275
f 275 356 357
f 275 357 358
f 275 358 359
f 275 359 360
f 275 360 361
f 275 361 276
f 276 361 362
f 276 362 277
f 277 362 363
f 277 363 364
f 277 364 365
f 277 365 278
f 278 365 279
f 279 365 366
f 279 366 367
f 279 367 368
f 279 368 369
f 279 369 280
f 280 369 281
f 281 369 370
f 281 370 371
f 281 371 372
f 281 372 282
f 282 372 373
f 282 373 283
f 283 373 374
f 283 374 284
f 284 375 286
f 284 286 285
f 284 374 397
f 284 397 375
f 286 375 302
f 287 291 376
f 287 376 377
f 287 377 378
f 287 378 293
f 287 293 288
f 289 379 290
f 289 292 380
f 289 380 381
f 289 381 379
f 290 379 382
f 290 382 376
f 290 376 291
f 292 301 383
f 292 383 380
f 293 378 384
f 293 384 385
f 293 385 386
f 293 386 294
f 294 387 295
f 294 386 387
f 295 387 388
f 295 388 296
f 296 389 390
f 296 390 391
f 296 391 298
f 296 298 297
f 296 388 389
f 298 391 392
f 298 392 393
f 298 393 394
f 298 394 395
f 298 395 299
f 299 395 300
f 302 375 304
f 303 308 396
f 303 396 311
f 304 375 397
f 304 397 398
f 304 398 305
f 305 398 399
f 305 399 306
f 306 399 400
f 306 400 401
f 306 401 307
f 307 401 402
f 307 402 308
f 308 402 403
f 308 403 404
f 308 404 396
f 309 312 405
f 309 405 310
f 310 405 406
f 310 406 407
f 310 407 408
f 310 408 324
f 311 396 409
f 311 409 312
f 312 409 405
f 313 314 320
f 313 320 410
f 313 410 323
f 315 327 411
f 315 411 319
f 316 319 412
f 316 412 321
f 316 321 317
f 317 321 318
f 319 411 413
f 319 413 412
f 320 323 410
f 321 412 414
f 321 414 415
f 321 415 416
f 321 416 322
f 322 416 417
f 322 417 418
f 322 418 419
f 322 419 420
f 322 420 323
f 324 408 325
f 325 421 326
f 325 408 422
f 325 422 423
f 325 423 421
f 326 421 327
f 327 421 424
f 327 424 411
f 328 330 342
f 328 342 341
f 329 336 425
f 329 425 330
f 330 425 426
f 330 426 342
f 332 427 333
f 333 427 334
f 334 427 428
f 334 428 429
f 334 429 430
f 334 430 335
f 335 431 432
f 335 432 433
f 335 433 336
f 335 430 434
f 335 434 435
f 335 435 431
f 336 433 425
f 337 340 338
f 338 436 352
f 338 340 436
f 339 344 437
f 339 437 340
f 340 437 438
f 340 438 439
f 340 439 436
f 342 440 343
f 342 426 441
f 342 441 442
f 342 442 440
f 343 440 443
f 343 443 344
f 344 443 437
f 345 444 350
f 345 352 436
f 345 436 445
f 345 445 444
f 346 350 446
f 346 446 447
f 346 447 448
f 346 448 449
f 346 449 347
f 347 449 348
f 348 449 450
f 348 450 451
f 348 451 349
f 349 451 452
f 349 452 351
f 350 444 446
f 351 452 353
f 354 453 355
f 355 453 454
f 355 454 455
f 355 455 456
f 355 456 357
f 355 357 356
f 357 456 457
f 357 457 358
f 358 457 455
f 358 455 458
f 358 458 459
f 358 459 460
f 358 460 461
f 358 461 462
f 358 462 359
f 359 462 360
f 360 463 361
f 360 462 464
f 360 464 465
f 360 465 466
f 360 466 467
f 360 467 463
f 361 463 362
f 362 463 363
f 363 468 366
f 363 366 364
f 363 463 467
f 363 467 468
f 364 366 365
f 366 468 469
f 366 469 470
f 366 470 367
f 367 470 368
f 368 470 471
f 368 471 369
f 369 471 370
f 370 471 472
f 370 472 473
f 370 473 371
f 371 473 372
f 372 473 474
f 372 474 373
f 373 474 475
f 373 475 476
f 373 476 374
f 374 476 501
f 374 501 397
f 376 477 377
f 376 382 478
f 376 478 479
f 376 479 477
f 377 477 480
f 377 480 481
f 377 481 378
f 378 481 482
f 378 482 483
f 378 483 384
f 379 381 382
f 380 383 484
f 380 484 381
f 381 484 485
f 381 485 486
f 381 486 487
f 381 487 382
f 382 487 478
f 384 483 385
f 385 483 482
f 385 482 488
f 385 488 489
f 385 489 387
f 385 387 386
f 387 489 490
f 387 490 388
f 388 490 389
f 389 490 491
f 389 491 390
f 390 491 492
f 390 492 493
f 390 493 494
f 390 494 392
f 390 392 391
f 392 494 495
f 392 495 496
f 392 496 497
f 392 497 394
f 392 394 393
f 394 497 498
f 396 404 499
f 396 499 500
f 396 500 409
f 397 501 502
f 397 502 398
f 398 502 399
f 399 502 503
f 399 503 504
f 399 504 400
f 400 504 401
f 401 504 505
f 401 505 506
f 401 506 402
f 402 506 507
f 402 507 403
f 403 507 508
f 403 508 499
f 403 499 404
f 405 409 406
f 406 509 510
f 406 510 407
f 406 409 500
f 406 500 509
f 407 510 511
f 407 511 512
f 407 512 408
f 408 512 422
f 411 424 513
f 411 513 413
f 412 514 515
f 412 515 414
f 412 413 514
f 413 513 516
f 413 516 514
f 414 515 517
f 414 517 518
f 414 518 415
f 415 518 416
f 416 518 519
f 416 519 520
f 416 520 521
f 416 521 522
f 416 522 523
f 416 523 524
f 416 524 417
f 418 525 419
f 419 525 420
f 421 423 526
f 421 526 424
f 422 512 527
f 422 527 528
f 422 528 529
f 422 529 423
f 423 529 530
f 423 530 526
f 424 526 531
f 424 531 513
f 425 433 432
f 425 432 532
f 425 532 426
f 426 532 441
f 429 533 430
f 430 533 534
f 430 534 434
f 431 435 432
f 432 535 441
f 432 441 532
f 432 435 536
f 432 536 537
f 432 537 538
f 432 538 535
f 434 534 539
f 434 539 435
f 435 539 540
f 435 540 541
f 435 541 536
f 436 542 445
f 436 439 543
f 436 543 542
f 437 443 544
f 437 544 545
f 437 545 546
f 437 546 438
f 438 546 439
f 439 546 547
f 439 547 548
f 439 548 543
f 440 442 549
f 440 549 443
f 441 550 549
f 441 549 442
f 441 535 551
f 441 551 550
f 443 549 544
f 444 445 552
f 444 552 446
f 445 542 552
f 446 553 447
f 446 552 554
f 446 554 553
f 447 555 556
f 447 556 448
f 447 553 555
f 448 556 557
f 448 557 449
f 449 557 558
f 449 558 450
f 450 558 559
f 450 559 560
f 450 560 451
f 454 561 455
f 455 561 562
f 455 562 458
f 455 457 456
f 458 563 459
f 458 562 564
f 458 564 563
f 459 563 565
f 459 565 460
f 460 565 566
f 460 566 461
f 461 566 567
f 461 567 568
f 461 568 569
f 461 569 570
f 461 570 462
f 462 570 464
f 464 570 465
f 465 570 571
f 465 571 572
f 465 572 466
f 466 572 573
f 466 573 574
f 466 574 467
f 467 574 575
f 467 575 468
f 468 575 469
f 469 575 470
f 470 575 576
f 470 576 577
f 470 577 471
f 471 577 578
f 471 578 579
f 471 579 472
f 472 579 580
f 472 580 473
f 473 580 581
f 473 581 474
f 474 581 582
f 474 582 475
f 475 582 476
f 476 582 583
f 476 583 584
f 476 584 501
f 477 479 588
f 477 588 585
f 477 585 480
f 478 487 586
f 478 586 587
f 478 587 479
f 479 587 588
f 480 585 589
f 480 589 590
f 480 590 591
f 480 591 592
f 480 592 481
f 481 592 593
f 481 593 482
f 482 594 595
f 482 595 488
f 482 593 591
f 482 591 596
f 482 596 594
f 486 597 598
f 486 598 487
f 487 598 586
f 488 595 599
f 488 599 600
f 488 600 490
f 488 490 489
f 490 600 601
f 490 601 602
f 490 602 603
f 490 603 491
f 491 603 492
f 492 604 493
f 492 603 604
f 493 604 605
f 493 605 606
f 493 606 607
f 493 607 608
f 493 608 495
f 493 495 494
f 495 608 496
f 496 609 497
f 496 608 610
f 496 610 611
f 496 611 609
f 497 609 498
f 499 508 509
f 499 509 500
f 501 584 502
f 502 584 612
f 502 612 613
f 502 613 503
f 503 613 504
f 504 613 614
f 504 614 505
f 505 614 506
f 506 614 615
f 506 615 507
f 507 615 616
f 507 616 508
f 508 616 617
f 508 617 509
f 509 617 618
f 509 618 510
f 510 618 619
f 510 619 620
f 510 620 621
f 510 621 511
f 511 621 512
f 512 621 622
f 512 622 527
f 513 531 623
f 513 623 516
f 514 516 624
f 514 624 517
f 514 517 515
f 516 623 625
f 516 625 624
f 517 624 626
f 517 626 627
f 517 627 628
f 517 628 518
f 518 628 629
f 518 629 630
f 518 630 519
f 526 537 531
f 526 530 537
f 527 622 631
f 527 631 528
f 528 631 632
f 528 632 551
f 528 551 633
f 528 633 529
f 529 633 530
f 530 633 538
f 530 538 537
f 531 540 623
f 531 537 541
f 531 541 540
f 533 634 534
f 534 634 635
f 534 635 539
f 535 538 633
f 535 633 551
f 536 541 537
f 539 635 636
f 539 636 637
f 539 637 540
f 540 637 625
f 540 625 623
f 542 543 638
f 542 638 552
f 543 548 638
f 544 549 639
f 544 639 545
f 545 639 546
f 546 640 547
f 546 639 641
f 546 641 640
f 547 642 548
f 547 640 642
f 548 642 638
f 549 643 639
f 549 550 632
f 549 632 644
f 549 644 643
f 550 551 632
f 552 638 645
f 552 645 646
f 552 646 554
f 553 554 646
f 553 646 647
f 553 647 648
f 553 648 555
f 555 648 649
f 555 649 556
f 556 649 650
f 556 650 557
f 557 650 651
f 557 651 558
f 558 652 653
f 558 653 559
f 558 651 654
f 558 654 652
f 568 655 569
f 569 655 656
f 569 656 657
f 569 657 570
f 570 657 658
f 570 658 571
f 571 658 659
f 571 659 660
f 571 660 661
f 571 661 572
f 572 661 662
f 572 662 663
f 572 663 573
f 573 663 574
f 574 663 664
f 574 664 665
f 574 665 666
f 574 666 575
f 575 666 667
f 575 667 576
f 576 667 578
f 576 578 577
f 578 667 668
f 578 668 669
f 578 669 670
f 578 670 671
f 578 671 579
f 579 671 672
f 579 672 580
f 580 672 581
f 581 672 673
f 581 673 674
f 581 674 582
f 582 674 675
f 582 675 583
f 583 675 584
f 584 675 676
f 584 676 677
f 584 677 612
f 585 588 589
f 586 598 678
f 586 678 679
f 586 679 680
f 586 680 587
f 587 680 681
f 587 681 588
f 588 681 589
f 589 682 683
f 589 683 591
f 589 591 590
f 589 681 684
f 589 684 682
f 591 593 592
f 591 683 685
f 591 685 686
f 591 686 687
f 591 687 596
f 594 596 688
f 594 688 595
f 595 689 690
f 595 690 599
f 595 688 691
f 595 691 689
f 596 687 688
f 597 678 598
f 599 690 600
f 600 690 692
f 600 692 601
f 601 603 602
f 601 692 693
f 601 693 694
f 601 694 695
f 601 695 696
f 601 696 603
f 603 696 604
f 604 696 697
f 604 697 605
f 605 697 698
f 605 698 606
f 606 699 700
f 606 700 701
f 606 701 607
f 606 698 699
f 607 701 608
f 608 701 702
f 608 702 703
f 608 703 704
f 608 704 610
f 610 704 705
f 610 705 611
f 612 677 706
f 612 706 613
f 613 706 707
f 613 707 614
f 614 707 615
f 615 707 708
f 615 708 616
f 616 708 709
f 616 709 710
f 616 710 617
f 617 710 711
f 617 711 618
f 618 711 619
f 619 711 712
f 619 712 713
f 619 713 714
f 619 714 715
f 619 715 716
f 619 716 620
f 620 716 621
f 621 716 717
f 621 717 622
f 622 717 631
f 624 718 626
f 624 625 718
f 625 637 718
f 626 718 719
f 626 719 720
f 626 720 627
f 631 717 721
f 631 721 632
f 632 721 644
f 636 722 637
f 637 722 718
f 638 723 724
f 638 724 645
f 638 642 725
f 638 725 723
f 639 726 641
f 639 643 727
f 639 727 728
f 639 728 726
f 640 641 729
f 640 729 642
f 641 726 729
f 642 730 725
f 642 729 731
f 642 731 730
f 643 644 727
f 644 721 727
f 645 724 646
f 646 724 732
f 646 732 647
f 647 733 648
f 647 732 734
f 647 734 733
f 648 735 736
f 648 736 649
f 648 733 735
f 649 736 737
f 649 737 738
f 649 738 650
f 650 738 739
f 650 739 651
f 651 739 740
f 651 740 654
f 656 741 657
f 657 741 658
f 658 741 742
f 658 742 659
f 659 742 743
f 659 743 660
f 660 743 744
f 660 744 702
f 660 702 745
f 660 745 661
f 661 745 662
f 662 745 746
f 662 746 663
f 663 746 747
f 663 747 664
f 664 747 665
f 665 747 748
f 665 748 695
f 665 695 749
f 665 749 750
f 665 750 668
f 665 668 666
f 666 668 667
f 668 750 749
f 668 749 751
f 668 751 752
f 668 752 753
f 668 753 669
f 669 753 754
f 669 754 670
f 670 754 671
f 671 754 755
f 671 755 672
f 672 755 756
f 672 756 673
f 673 756 674
f 674 756 757
f 674 757 758
f 674 758 675
f 675 758 759
f 675 759 676
f 676 759 760
f 676 760 677
f 677 760 706
f 678 680 679
f 678 761 680
f 680 761 762
f 680 762 763
f 680 763 681
f 681 764 684
f 681 763 765
f 681 765 764
f 682 766 683
f 682 684 764
f 682 764 767
f 682 767 768
f 682 768 766
f 683 766 685
f 685 766 769
f 685 769 686
f 686 769 770
f 686 770 771
f 686 771 687
f 687 771 772
f 687 772 688
f 688 772 691
f 689 691 773
f 689 773 774
f 689 774 775
f 689 775 690
f 690 775 692
f 691 776 777
f 691 777 778
f 691 778 773
f 691 772 776
f 692 775 693
f 693 775 694
f 694 751 695
f 694 775 751
f 695 751 749
f 695 748 779
f 695 779 697
f 695 697 696
f 697 779 698
f 698 779 748
f 698 748 699
f 699 748 747
f 699 747 746
f 699 746 700
f 700 702 701
f 700 746 745
f 700 745 702
f 702 744 703
f 703 744 780
f 703 780 704
f 704 780 781
f 704 781 705
f 706 760 782
f 706 782 707
f 707 782 783
f 707 783 784
f 707 784 708
f 708 784 785
f 708 785 709
f 709 785 710
f 710 785 786
f 710 786 787
f 710 787 711
f 711 787 788
f 711 788 712
f 712 788 713
f 713 788 789
f 713 789 714
f 714 789 790
f 714 790 791
f 714 791 792
f 714 792 793
f 714 793 794
f 714 794 715
f 715 795 716
f 715 794 796
f 715 796 795
f 716 795 717
f 717 795 721
f 718 797 719
f 718 722 797
f 721 795 727
f 723 725 730
f 723 730 798
f 723 798 799
f 723 799 724
f 724 734 732
f 724 799 734
f 726 792 729
f 726 728 793
f 726 793 792
f 727 795 796
f 727 796 728
f 728 796 793
f 729 792 791
f 729 791 731
f 730 800 798
f 730 731 791
f 730 791 801
f 730 801 800
f 733 734 802
f 733 802 803
f 733 803 735
f 734 799 798
f 734 798 804
f 734 804 805
f 734 805 806
f 734 806 807
f 734 807 802
f 735 808 809
f 735 809 810
f 735 810 736
f 735 803 807
f 735 807 808
f 736 810 811
f 736 811 737
f 737 811 738
f 738 811 812
f 738 812 813
f 738 813 739
f 739 813 814
f 739 814 740
f 740 814 815
f 742 816 743
f 743 816 817
f 743 817 744
f 744 817 780
f 751 818 819
f 751 819 752
f 751 775 820
f 751 820 821
f 751 821 818
f 752 819 822
f 752 822 753
f 753 822 754
f 754 822 823
f 754 823 824
f 754 824 755
f 755 824 825
f 755 825 756
f 756 825 826
f 756 826 757
f 757 826 827
f 757 827 758
f 758 827 759
f 759 827 828
f 759 828 760
f 760 828 829
f 760 829 830
f 760 830 782
f 761 831 762
f 762 832 763
f 762 831 833
f 762 833 832
f 763 832 765
f 764 834 767
f 764 765 834
f 765 832 835
f 765 835 836
f 765 836 834
f 766 768 839
f 766 839 837
f 766 837 769
f 767 834 768
f 768 834 838
f 768 838 839
f 769 837 840
f 769 840 770
f 770 840 841
f 770 841 842
f 770 842 771
f 771 842 843
f 771 843 772
f 772 843 776
f 773 778 774
f 774 778 821
f 774 821 820
f 774 820 775
f 776 844 777
f 776 843 844
f 777 844 845
f 777 845 846
f 777 846 778
f 778 846 847
f 778 847 818
f 778 818 821
f 782 830 783
f 783 830 848
f 783 848 784
f 784 848 849
f 784 849 785
f 785 849 850
f 785 850 786
f 786 850 787
f 787 850 788
f 788 850 851
f 788 851 789
f 789 851 852
f 789 852 853
f 789 853 790
f 790 853 854
f 790 854 791
f 791 854 801
f 793 796 794
f 798 800 804
f 800 801 855
f 800 855 856
f 800 856 804
f 801 854 855
f 802 807 803
f 804 857 805
f 804 856 857
f 805 857 806
f 806 857 858
f 806 858 859
f 806 859 807
f 807 860 861
f 807 861 862
f 807 862 809
f 807 809 808
f 807 859 860
f 809 862 863
f 809 863 864
f 809 864 811
f 809 811 810
f 811 864 865
f 811 865 812
f 812 865 866
f 812 866 813
f 813 866 867
f 813 867 814
f 814 867 868
f 814 868 815
f 818 869 819
f 818 847 869
f 819 869 822
f 822 869 823
f 823 869 870
f 823 870 871
f 823 871 824
f 824 871 872
f 824 872 825
f 825 872 826
f 826 872 873
f 826 873 874
f 826 874 827
f 827 874 875
f 827 875 828
f 828 875 829
f 829 875 876
f 829 876 830
f 830 876 877
f 830 877 878
f 830 878 848
f 832 833 879
f 832 879 880
f 832 880 881
f 832 881 835
f 834 882 838
f 834 836 882
f 835 881 836
f 836 881 883
f 836 883 882
f 837 884 840
f 837 839 884
f 838 882 839
f 839 882 885
f 839 885 884
f 840 884 886
f 840 886 887
f 840 887 841
f 841 887 888
f 841 888 842
f 842 889 843
f 842 888 889
f 843 889 844
f 844 890 891
f 844 891 845
f 844 889 890
f 845 891 892
f 845 892 846
f 846 892 893
f 846 893 894
f 846 894 847
f 847 894 893
f 847 893 895
f 847 895 870
f 847 870 869
f 848 878 849
f 849 878 896
f 849 896 897
f 849 897 850
f 850 897 851
f 851 897 898
f 851 898 852
f 852 898 899
f 852 899 900
f 852 900 853
f 853 900 855
f 853 855 854
f 855 900 856
f 856 900 901
f 856 901 857
f 857 902 858
f 857 901 902
f 858 903 859
f 858 902 903
f 859 903 904
f 859 904 860
f 860 905 906
f 860 906 861
f 860 904 905
f 861 906 907
f 861 907 862
f 862 907 863
f 863 907 908
f 863 908 909
f 863 909 864
f 864 909 910
f 864 910 865
f 865 910 911
f 865 911 866
f 866 911 912
f 866 912 867
f 867 912 913
f 867 913 914
f 867 914 915
f 867 915 868
f 870 895 916
f 870 916 871
f 871 916 917
f 871 917 872
f 872 917 918
f 872 918 873
f 873 918 874
f 874 918 919
f 874 919 875
f 875 919 920
f 875 920 921
f 875 921 876
f 876 921 877
f 877 921 922
f 877 922 923
f 877 923 878
f 878 923 896
f 881 924 925
f 881 925 926
f 881 926 927
f 881 927 883
f 882 883 928
f 882 928 885
f 883 929 928
f 883 927 929
f 884 930 886
f 884 885 930
f 885 931 932
f 885 932 930
f 885 928 931
f 886 930 933
f 886 933 887
f 887 934 935
f 887 935 888
f 887 933 934
f 888 935 936
f 888 936 889
f 889 936 890
f 890 937 938
f 890 938 891
f 890 936 937
f 891 938 939
f 891 939 892
f 892 939 940
f 892 940 893
f 893 940 916
f 893 916 895
f 896 923 941
f 896 941 942
f 896 942 897
f 897 942 898
f 898 942 943
f 898 943 899
f 899 943 900
f 900 943 901
f 901 943 902
f 902 943 944
f 902 944 945
f 902 945 903
f 903 946 904
f 903 945 946
f 904 946 947
f 904 947 905
f 905 947 948
f 905 948 949
f 905 949 906
f 906 949 950
f 906 950 907
f 907 950 908
f 908 951 952
f 908 952 953
f 908 953 909
f 908 950 951
f 909 953 910
f 910 953 954
f 910 954 911
f 911 954 955
f 911 955 912
f 912 955 956
f 912 956 913
f 916 940 917
f 917 940 918
f 918 940 957
f 918 957 958
f 918 958 919
f 919 958 959
f 919 959 920
f 920 959 921
f 921 959 960
f 921 960 922
f 922 960 961
f 922 961 923
f 923 961 962
f 923 962 941
f 924 963 925
f 925 963 964
f 925 964 965
f 925 965 926
f 926 966 929
f 926 929 927
f 926 965 966
f 928 929 967
f 928 967 931
f 929 968 969
f 929 969 967
f 929 966 968
f 930 970 971
f 930 971 933
f 930 932 973
f 930 973 970
f 931 972 973
f 931 973 932
f 931 967 969
f 931 969 972
f 933 971 974
f 933 974 934
f 934 974 1004
f 934 1004 975
f 934 975 935
f 935 975 976
f 935 976 936
f 936 976 937
f 937 976 977
f 937 977 938
f 938 977 978
f 938 978 979
f 938 979 939
f 939 979 940
f 940 979 957
f 941 962 942
f 942 962 980
f 942 980 981
f 942 981 943
f 943 981 944
f 944 982 983
f 944 983 945
f 944 981 982
f 945 983 946
f 946 984 947
f 946 983 984
f 947 985 948
f 947 984 985
f 948 985 986
f 948 986 949
f 949 987 988
f 949 988 950
f 949 986 987
f 950 988 951
f 951 989 990
f 951 990 952
f 951 988 989
f 952 990 953
f 953 990 991
f 953 991 954
f 954 991 992
f 954 992 955
f 955 992 993
f 955 993 956
f 957 979 958
f 958 979 994
f 958 994 995
f 958 995 959
f 959 995 996
f 959 996 960
f 960 996 997
f 960 997 961
f 961 997 998
f 961 998 962
f 962 998 981
f 962 981 980
f 965 999 966
f 966 999 1000
f 966 1000 968
f 968 1001 1002
f 968 1002 969
f 968 1000 1001
f 969 1002 989
f 969 989 972
f 970 988 987
f 970 987 971
f 970 973 989
f 970 989 988
f 971 987 986
f 971 986 974
f 972 989 973
f 974 986 1003
f 974 1003 1004
f 975 1004 976
f 976 1005 1006
f 976 1006 977
f 976 1004 1005
f 977 1006 978
f 978 1007 995
f 978 995 994
f 978 994 979
f 978 1006 1007
f 981 998 982
f 982 998 1008
f 982 1008 1009
f 982 1009 983
f 983 1009 984
f 984 1009 1010
f 984 1010 1003
f 984 1003 985
f 985 1003 986
f 989 1002 990
f 990 1002 1001
f 990 1001 991
f 991 1001 1000
f 991 1000 993
f 991 993 992
f 993 1000 1011
f 995 1007 996
f 996 1007 1012
f 996 1012 1008
f 996 1008 997
f 997 1008 998
f 999 1011 1000
f 1003 1010 1005
f 1003 1005 1004
f 1005 1010 1006
f 1006 1010 1013
f 1006 1013 1012
f 1006 1012 1007
f 1008 1012 1013
f 1008 1013 1009
f 1009 1013 1010

