# https://github.com/mikedh/trimesh
v 0.01168725 0.00898083 -0.00779814
v 0.01351817 0.00898083 -0.00508304
v 0.01415129 0.01059852 -0.00002637
v 0.01169410 0.00974444 -0.00779814
v 0.02268303 0.00898083 -0.00779814
v 0.01890141 0.00898083 -0.00508304
v 0.03975677 0.00960761 -0.00002637
v 0.01415814 0.01072015 -0.00002637
v 0.01170436 0.01025606 -0.00779814
v 0.02244005 0.00898083 -0.00748243
v 0.04597847 0.01014583 -0.00779814
v 0.04664923 0.00960761 -0.00508304
v 0.04664923 0.00960761 -0.00214352
v 0.04556780 0.00960761 -0.00002637
v 0.02050304 0.00898083 -0.00593203
v 0.01420605 0.01105046 -0.00002637
v 0.01177965 0.01091743 -0.00779814
v 0.02210809 0.00898083 -0.00711195
v 0.04597847 0.01063045 -0.00779814
v 0.04664923 0.01036476 -0.00508304
v 0.04664923 0.00987292 -0.00221884
v 0.02112589 0.00898083 -0.00626600
v 0.02144074 0.00898083 -0.00649879
v 0.02176928 0.00898083 -0.00679015
v 0.04664923 0.01007247 -0.00231013
v 0.04545486 0.01000139 -0.00002637
v 0.01427791 0.01115537 -0.00002637
v 0.01202263 0.01137012 -0.00779814
v 0.01186863 0.01111356 -0.00779814
v 0.04597847 0.01063463 -0.00779662
v 0.04460614 0.01257731 -0.00779814
v 0.04664923 0.01036476 -0.00347787
v 0.04664923 0.01016217 -0.00248282
v 0.04541722 0.01011390 -0.00002637
v 0.01453801 0.01153470 -0.00002637
v 0.01336417 0.01256287 -0.00779814
v 0.01544149 0.01262064 -0.00002637
v 0.04427075 0.01267158 -0.00779814
v 0.04460614 0.01257731 -0.00776619
v 0.04664923 0.01035602 -0.00320552
v 0.04664923 0.01025035 -0.00278483
v 0.04493125 0.01033359 -0.00002637
v 0.01343603 0.01261608 -0.00779814
v 0.01574265 0.01273543 -0.00002637
v 0.04427075 0.01264459 -0.00762317
v 0.04362737 0.01280081 -0.00779814
v 0.03897991 0.01286049 -0.00002637
v 0.03945903 0.01274570 -0.00002637
v 0.03958908 0.01271415 -0.00002637
v 0.01383986 0.01275254 -0.00779814
v 0.01582821 0.01276698 -0.00002637
v 0.04329540 0.01285136 -0.00779814
v 0.03883618 0.01286163 -0.00002637
v 0.04263490 0.01286391 -0.00779814
v 0.01450379 0.01284338 -0.00744667
v 0.01450379 0.01285440 -0.00779814
v 0.01648871 0.01286353 -0.00002637
v 0.03897991 0.01286315 -0.00083200
v 0.03831941 0.01286353 -0.00002637
v 0.03992446 0.01286391 -0.00508380
v 0.02244347 0.01286391 -0.00779814
v 0.01516771 0.01286353 -0.00744667
v 0.01516771 0.01286353 -0.00779814
v 0.01648871 0.01286391 -0.00508304
v 0.01582821 0.01286391 -0.00546189
v 0.02376789 0.01286391 -0.00508304
v 0.01582821 0.01286391 -0.00678483
f 1 2 3
f 1 3 4
f 1 4 9
f 1 9 17
f 1 17 29
f 1 29 28
f 1 28 36
f 1 36 43
f 1 43 50
f 1 50 56
f 1 56 63
f 1 63 61
f 1 61 54
f 1 54 52
f 1 52 46
f 1 46 38
f 1 38 31
f 1 31 19
f 1 19 11
f 1 11 5
f 1 5 10
f 1 10 18
f 1 18 24
f 1 24 23
f 1 23 22
f 1 22 15
f 1 15 6
f 1 6 2
f 2 6 14
f 2 14 7
f 2 7 3
f 3 8 9
f 3 9 4
f 3 7 14
f 3 14 26
f 3 26 34
f 3 34 42
f 3 42 49
f 3 49 48
f 3 48 47
f 3 47 53
f 3 53 59
f 3 59 57
f 3 57 51
f 3 51 44
f 3 44 37
f 3 37 35
f 3 35 27
f 3 27 16
f 3 16 8
f 5 11 12
f 5 12 13
f 5 13 14
f 5 14 10
f 6 15 14
f 8 16 17
f 8 17 9
f 10 14 18
f 11 19 20
f 11 20 12
f 12 20 32
f 12 32 40
f 12 40 41
f 12 41 33
f 12 33 25
f 12 25 21
f 12 21 13
f 13 21 14
f 14 15 22
f 14 22 23
f 14 23 24
f 14 24 18
f 14 21 25
f 14 25 26
f 16 27 28
f 16 28 29
f 16 29 17
f 19 30 20
f 19 31 30
f 20 30 31
f 20 31 39
f 20 39 32
f 25 33 34
f 25 34 26
f 27 35 28
f 28 35 37
f 28 37 36
f 31 38 39
f 32 39 40
f 33 41 34
f 34 41 39
f 34 39 42
f 36 37 43
f 37 44 43
f 38 45 39
f 38 46 47
f 38 47 48
f 38 48 49
f 38 49 45
f 39 45 49
f 39 49 42
f 39 41 40
f 43 44 51
f 43 51 50
f 46 52 47
f 47 52 54
f 47 54 53
f 50 55 56
f 50 51 55
f 51 57 55
f 53 58 59
f 53 54 58
f 54 60 59
f 54 59 58
f 54 61 67
f 54 67 65
f 54 65 64
f 54 64 66
f 54 66 60
f 55 57 56
f 56 57 62
f 56 62 63
f 57 64 65
f 57 65 62
f 57 59 66
f 57 66 64
f 59 60 66
f 61 63 67
f 62 65 67
f 62 67 63

