# https://github.com/mikedh/trimesh
v 0.01215275 -0.00286351 -0.00401636
v 0.01213056 -0.00296717 -0.00401636
v 0.01205969 -0.00311173 -0.00414279
v 0.01207506 -0.00296717 -0.00419046
v 0.01208530 -0.00286351 -0.00422507
v 0.01054245 -0.00286351 -0.00401636
v 0.01207591 -0.00319000 -0.00401636
v 0.01189746 -0.00322526 -0.00451506
v 0.01196577 -0.00296717 -0.00451506
v 0.01203322 -0.00296717 -0.00431990
v 0.01203322 -0.00328379 -0.00406252
v 0.01180610 -0.00364131 -0.00441221
v 0.01204261 -0.00286351 -0.00435251
v 0.00729366 -0.00286351 -0.00864066
v 0.00350611 -0.00691754 -0.00875054
v 0.00415245 -0.00900415 -0.00564392
v 0.00415245 -0.00911486 -0.00555010
v 0.00565945 -0.00912191 -0.00401636
v 0.01198968 -0.00347207 -0.00401636
v 0.01174463 -0.00373298 -0.00450503
v 0.01180183 -0.00337123 -0.00465605
v 0.01182403 -0.00322526 -0.00470672
v 0.01185392 -0.00297633 -0.00479000
v 0.01194698 -0.00286351 -0.00461892
v 0.01198797 -0.00286351 -0.00451306
v 0.01180781 -0.00390434 -0.00416035
v 0.01174975 -0.00399319 -0.00425066
v 0.01165669 -0.00399883 -0.00451506
v 0.00718096 -0.00286351 -0.00888600
v 0.00343012 -0.00691754 -0.00889854
v 0.00415245 -0.00913390 -0.00553656
v 0.00563042 -0.00916634 -0.00401636
v 0.01191112 -0.00372382 -0.00401636
v 0.01154910 -0.00415750 -0.00466809
v 0.01157472 -0.00399883 -0.00472428
v 0.01153800 -0.00386626 -0.00489938
v 0.01154057 -0.00310185 -0.00542116
v 0.01178988 -0.00306730 -0.00488734
v 0.01188124 -0.00286351 -0.00478298
v 0.01180952 -0.00289594 -0.00493149
v 0.01178049 -0.00407640 -0.00407908
v 0.01174975 -0.00423225 -0.00401636
v 0.01165925 -0.00425693 -0.00425718
v 0.01157643 -0.00424917 -0.00450704
v 0.00717583 -0.00286351 -0.00889854
v 0.00344891 -0.00691754 -0.00895524
v 0.00415245 -0.00882362 -0.00872696
v 0.00415245 -0.00887721 -0.00865371
v 0.00415245 -0.00900485 -0.00847811
v 0.00415245 -0.00909511 -0.00835017
v 0.00415245 -0.00923544 -0.00813945
v 0.00415245 -0.00928410 -0.00805968
v 0.00415245 -0.00932218 -0.00799144
v 0.00415245 -0.00950482 -0.00762820
v 0.00415245 -0.00954572 -0.00754642
v 0.00415245 -0.00957675 -0.00747869
v 0.00415245 -0.00960425 -0.00741397
v 0.00415245 -0.00962329 -0.00736781
v 0.00415245 -0.00971566 -0.00712950
v 0.00415245 -0.00972836 -0.00709287
v 0.00415245 -0.00983061 -0.00679185
v 0.00415245 -0.00988350 -0.00661825
v 0.00415245 -0.00989548 -0.00657862
v 0.00415245 -0.00994908 -0.00635636
v 0.00415245 -0.00995683 -0.00632074
v 0.00415245 -0.01000620 -0.00606135
v 0.00415245 -0.01004780 -0.00583457
v 0.00415245 -0.01006120 -0.00574978
v 0.00415245 -0.01006755 -0.00568958
v 0.00415245 -0.01006614 -0.00560077
v 0.00415245 -0.00993074 -0.00549291
v 0.00415245 -0.00967265 -0.00543822
v 0.00415245 -0.00960566 -0.00543722
v 0.00415245 -0.00941456 -0.00543521
v 0.00415245 -0.00937084 -0.00544374
v 0.00427028 -0.00922486 -0.00538052
v 0.00556297 -0.00921429 -0.00406754
v 0.00555443 -0.00941456 -0.00401636
v 0.01179074 -0.00410813 -0.00401636
v 0.01151751 -0.00432956 -0.00458731
v 0.01147226 -0.00424917 -0.00476141
v 0.01129979 -0.00417583 -0.00520191
v 0.01125966 -0.00406441 -0.00537400
v 0.01131174 -0.00374074 -0.00548538
v 0.01127588 -0.00359618 -0.00566449
v 0.01121355 -0.00398685 -0.00553003
v 0.01146287 -0.00320269 -0.00552301
v 0.01149958 -0.00296717 -0.00558873
v 0.01151154 -0.00286351 -0.00561633
v 0.01180354 -0.00286351 -0.00496109
v 0.01174207 -0.00425411 -0.00401636
v 0.01154910 -0.00441065 -0.00441522
v 0.00728427 -0.00286351 -0.00908819
v 0.00350184 -0.00691754 -0.00906562
v 0.00415245 -0.00857187 -0.00901645
v 0.00415245 -0.00866355 -0.00891811
v 0.00415245 -0.00873124 -0.00884035
v 0.00428480 -0.00875733 -0.00875455
v 0.00419429 -0.00886029 -0.00865772
v 0.00418831 -0.00899850 -0.00846958
v 0.00418831 -0.00909018 -0.00834064
v 0.00420539 -0.00922980 -0.00812189
v 0.00430273 -0.00928128 -0.00798743
v 0.00420539 -0.00935955 -0.00788759
v 0.00420624 -0.00949988 -0.00760813
v 0.00444617 -0.00951892 -0.00743053
v 0.00462120 -0.00955771 -0.00725041
v 0.00444617 -0.00958168 -0.00730159
v 0.00420624 -0.00960918 -0.00737183
v 0.00444617 -0.00966630 -0.00709338
v 0.00418831 -0.00972131 -0.00709338
v 0.00418831 -0.00982708 -0.00678131
v 0.00418831 -0.00988984 -0.00657862
v 0.00444617 -0.00991170 -0.00632074
v 0.00418831 -0.00995190 -0.00632074
v 0.00444617 -0.00996600 -0.00606235
v 0.00418831 -0.01000126 -0.00606235
v 0.00458961 -0.01006261 -0.00543019
v 0.00485515 -0.01006331 -0.00518034
v 0.00511556 -0.01006402 -0.00492697
v 0.00565945 -0.01006614 -0.00420952
v 0.00575593 -0.01006684 -0.00401636
v 0.00575508 -0.01006684 -0.00401636
v 0.00559626 -0.01006614 -0.00411169
v 0.00431212 -0.01006261 -0.00541414
v 0.00563810 -0.00999068 -0.00401636
v 0.00560993 -0.00993074 -0.00401636
v 0.00558773 -0.00984542 -0.00401636
v 0.00555443 -0.00967265 -0.00401636
v 0.01147568 -0.00450374 -0.00450704
v 0.01127247 -0.00488171 -0.00462143
v 0.01130918 -0.00470965 -0.00470421
v 0.01135016 -0.00452348 -0.00478348
v 0.01126478 -0.00434789 -0.00512615
v 0.01122551 -0.00425975 -0.00528821
v 0.01109572 -0.00426821 -0.00555863
v 0.01104876 -0.00418923 -0.00572620
v 0.01130235 -0.00342412 -0.00571918
v 0.01107609 -0.00399178 -0.00580899
v 0.01115976 -0.00374074 -0.00580447
v 0.01132540 -0.00320904 -0.00580497
v 0.01139627 -0.00296717 -0.00580447
v 0.01142445 -0.00286351 -0.00579594
v 0.01164217 -0.00451431 -0.00401636
v 0.01157130 -0.00450374 -0.00423711
v 0.01146543 -0.00475196 -0.00423711
v 0.01133565 -0.00503685 -0.00425919
v 0.01126649 -0.00512711 -0.00434599
v 0.01130320 -0.00495505 -0.00444934
v 0.01124002 -0.00503685 -0.00452711
v 0.00754127 -0.00286351 -0.00914137
v 0.00367261 -0.00691754 -0.00909271
v 0.00415245 -0.00812550 -0.00914188
v 0.00415245 -0.00840052 -0.00909773
v 0.00415245 -0.00850700 -0.00906411
v 0.00430443 -0.00850418 -0.00902146
v 0.00420795 -0.00865085 -0.00890707
v 0.00444617 -0.00859021 -0.00885389
v 0.00444617 -0.00871855 -0.00871090
v 0.00461608 -0.00878766 -0.00853480
v 0.00444617 -0.00882221 -0.00858196
v 0.00438128 -0.00905351 -0.00829047
v 0.00445898 -0.00912261 -0.00814296
v 0.00444617 -0.00925589 -0.00794478
v 0.00479538 -0.00927423 -0.00771651
v 0.00470744 -0.00934756 -0.00762168
v 0.00470573 -0.00959720 -0.00710291
v 0.00496273 -0.00931301 -0.00753438
v 0.00479282 -0.00953161 -0.00719573
v 0.00470402 -0.00969803 -0.00683549
v 0.00444361 -0.00976080 -0.00682446
v 0.00435566 -0.00981016 -0.00673164
v 0.00444361 -0.00983836 -0.00658313
v 0.00472110 -0.00985035 -0.00633980
v 0.00496273 -0.00987785 -0.00606235
v 0.00470402 -0.00992651 -0.00606235
v 0.00470402 -0.00997799 -0.00580447
v 0.00468780 -0.01003017 -0.00552853
v 0.00496273 -0.00998433 -0.00554659
v 0.00494992 -0.01003229 -0.00527566
v 0.00502762 -0.01004992 -0.00509906
v 0.00521973 -0.00998716 -0.00528871
v 0.00547844 -0.00998575 -0.00503083
v 0.00528718 -0.01004921 -0.00483014
v 0.00536146 -0.01006190 -0.00465805
v 0.00586436 -0.01006120 -0.00401636
v 0.01113585 -0.00528789 -0.00451506
v 0.01102571 -0.00542187 -0.00465003
v 0.01113927 -0.00503050 -0.00477295
v 0.01123917 -0.00478651 -0.00478348
v 0.01101632 -0.00462785 -0.00540310
v 0.01105303 -0.00445578 -0.00548087
v 0.01101205 -0.00436129 -0.00565295
v 0.01076700 -0.00490568 -0.00567954
v 0.01097107 -0.00426821 -0.00580899
v 0.01100351 -0.00407217 -0.00589779
v 0.01125880 -0.00328379 -0.00589127
v 0.01103254 -0.00390081 -0.00595097
v 0.01128613 -0.00311173 -0.00594194
v 0.01130577 -0.00296717 -0.00597706
v 0.01131857 -0.00286351 -0.00599914
v 0.01156618 -0.00469202 -0.00401636
v 0.01125966 -0.00536828 -0.00406703
v 0.01122892 -0.00528436 -0.00425919
v 0.00754127 -0.00296717 -0.00914188
v 0.00415245 -0.00709383 -0.00914188
v 0.00418831 -0.00691754 -0.00913987
v 0.00418831 -0.00683504 -0.00913836
v 0.00779827 -0.00286351 -0.00914188
v 0.00418831 -0.00812550 -0.00914188
v 0.00444617 -0.00812550 -0.00913385
v 0.00444617 -0.00833987 -0.00907715
v 0.00464511 -0.00829122 -0.00905608
v 0.00481673 -0.00824256 -0.00901845
v 0.00444617 -0.00846892 -0.00898283
v 0.00472451 -0.00839417 -0.00891059
v 0.00463230 -0.00854226 -0.00880222
v 0.00478770 -0.00874746 -0.00848463
v 0.00445898 -0.00896113 -0.00837927
v 0.00511044 -0.00877849 -0.00826488
v 0.00487393 -0.00904434 -0.00801954
v 0.00470402 -0.00907819 -0.00806821
v 0.00496017 -0.00910710 -0.00787705
v 0.00470744 -0.00921570 -0.00785699
v 0.00496273 -0.00924320 -0.00766332
v 0.00510190 -0.00928974 -0.00748823
v 0.00491321 -0.00957040 -0.00702364
v 0.00498408 -0.00961412 -0.00685857
v 0.00498408 -0.00951046 -0.00710291
v 0.00464596 -0.00981862 -0.00650236
v 0.00452728 -0.00979112 -0.00667344
v 0.00521973 -0.00965431 -0.00657862
v 0.00496273 -0.00971990 -0.00657862
v 0.00496273 -0.00982215 -0.00625551
v 0.00496273 -0.00993779 -0.00580447
v 0.00510446 -0.00980522 -0.00620233
v 0.00520265 -0.00982497 -0.00604931
v 0.00521973 -0.00988632 -0.00580447
v 0.00521973 -0.00994202 -0.00554659
v 0.00547844 -0.00994343 -0.00528871
v 0.00545965 -0.01003017 -0.00475589
v 0.00573629 -0.00993850 -0.00503083
v 0.00573629 -0.00997869 -0.00477295
v 0.00573629 -0.01001677 -0.00451506
v 0.00574227 -0.01004780 -0.00428026
v 0.00599415 -0.01000620 -0.00425718
v 0.00598988 -0.01003793 -0.00401636
v 0.01067223 -0.00526885 -0.00552803
v 0.01076957 -0.00517012 -0.00542969
v 0.01102315 -0.00515955 -0.00490239
v 0.01104876 -0.00526250 -0.00475087
v 0.01105133 -0.00546982 -0.00451506
v 0.01098046 -0.00559887 -0.00451506
v 0.01075847 -0.00592184 -0.00462845
v 0.01053818 -0.00624904 -0.00470973
v 0.01089508 -0.00554739 -0.00477495
v 0.01051257 -0.00542610 -0.00568556
v 0.01072858 -0.00507775 -0.00560128
v 0.01066881 -0.00500652 -0.00578089
v 0.01072602 -0.00477311 -0.00586267
v 0.01075761 -0.00462785 -0.00592087
v 0.01079433 -0.00445578 -0.00598258
v 0.01083104 -0.00425128 -0.00606586
v 0.01077810 -0.00416173 -0.00621487
v 0.01053818 -0.00394665 -0.00675974
v 0.01076103 -0.00385639 -0.00644165
v 0.01081396 -0.00294672 -0.00683600
v 0.01077554 -0.00286351 -0.00694537
v 0.01103937 -0.00289312 -0.00647827
v 0.01102998 -0.00286351 -0.00650486
v 0.01126820 -0.00538732 -0.00401636
v 0.00857098 -0.00286351 -0.00914188
v 0.00470402 -0.00786741 -0.00914188
v 0.00521973 -0.00760931 -0.00913987
v 0.00496273 -0.00786741 -0.00912632
v 0.00472024 -0.00814454 -0.00909020
v 0.00496273 -0.00806979 -0.00906963
v 0.00512752 -0.00801973 -0.00904555
v 0.00496273 -0.00832506 -0.00884637
v 0.00529913 -0.00796472 -0.00899839
v 0.00521717 -0.00812480 -0.00889704
v 0.00530767 -0.00822987 -0.00874552
v 0.00513606 -0.00827852 -0.00879519
v 0.00496273 -0.00845482 -0.00870739
v 0.00496273 -0.00857329 -0.00857845
v 0.00496273 -0.00870233 -0.00843496
v 0.00496017 -0.00894491 -0.00811336
v 0.00520265 -0.00863252 -0.00837275
v 0.00528206 -0.00873477 -0.00821170
v 0.00541184 -0.00880106 -0.00803961
v 0.00520521 -0.00883490 -0.00812540
v 0.00504555 -0.00900979 -0.00796987
v 0.00521973 -0.00905915 -0.00778323
v 0.00520095 -0.00918890 -0.00758807
v 0.00527437 -0.00925519 -0.00742350
v 0.00556297 -0.00926929 -0.00718870
v 0.00567738 -0.00931019 -0.00701712
v 0.00547673 -0.00934192 -0.00709889
v 0.00508483 -0.00954219 -0.00695992
v 0.00537256 -0.00955206 -0.00672361
v 0.00521973 -0.00957604 -0.00678031
v 0.00546648 -0.00958309 -0.00657360
v 0.00547844 -0.00966983 -0.00632074
v 0.00520265 -0.00975022 -0.00630117
v 0.00527608 -0.00978336 -0.00612657
v 0.00537171 -0.00980804 -0.00595448
v 0.00546563 -0.00982849 -0.00579444
v 0.00547844 -0.00988984 -0.00554659
v 0.00573629 -0.00988914 -0.00528871
v 0.00599415 -0.00993004 -0.00477295
v 0.00599415 -0.00997094 -0.00451506
v 0.00625200 -0.00995542 -0.00425718
v 0.00625200 -0.00998645 -0.00401636
v 0.01054245 -0.00526744 -0.00578490
v 0.01104279 -0.00571029 -0.00418243
v 0.01101034 -0.00565458 -0.00435452
v 0.01122636 -0.00547194 -0.00401636
v 0.01109402 -0.00555938 -0.00426421
v 0.01079176 -0.00598178 -0.00445687
v 0.01057660 -0.00632872 -0.00451808
v 0.01049037 -0.00642110 -0.00460587
v 0.01045451 -0.00632872 -0.00478649
v 0.01024020 -0.00617429 -0.00540009
v 0.01024532 -0.00592607 -0.00566800
v 0.01008224 -0.00607345 -0.00581651
v 0.01037852 -0.00554739 -0.00580598
v 0.01051086 -0.00516801 -0.00594144
v 0.01054245 -0.00503050 -0.00599161
v 0.01059624 -0.00478510 -0.00607841
v 0.01071236 -0.00453124 -0.00606586
v 0.01055184 -0.00425693 -0.00652293
v 0.01050317 -0.00411871 -0.00669953
v 0.01045792 -0.00401928 -0.00684152
v 0.01048610 -0.00380914 -0.00693182
v 0.01051513 -0.00363779 -0.00697597
v 0.01074395 -0.00348335 -0.00666943
v 0.01074907 -0.00286351 -0.00698551
v 0.00857098 -0.00322526 -0.00914188
v 0.00882968 -0.00286351 -0.00913034
v 0.00547844 -0.00735122 -0.00914188
v 0.00625285 -0.00683504 -0.00913234
v 0.00599415 -0.00709383 -0.00912933
v 0.00573629 -0.00735122 -0.00911980
v 0.00549808 -0.00763047 -0.00909421
v 0.00521631 -0.00787446 -0.00908217
v 0.00542550 -0.00779266 -0.00906311
v 0.00559797 -0.00773060 -0.00902197
v 0.00549808 -0.00787446 -0.00895775
v 0.00561419 -0.00800139 -0.00877462
v 0.00547844 -0.00804652 -0.00881576
v 0.00547844 -0.00817557 -0.00869485
v 0.00562359 -0.00826442 -0.00852226
v 0.00547844 -0.00830532 -0.00856591
v 0.00521546 -0.00838148 -0.00863815
v 0.00529657 -0.00848373 -0.00848062
v 0.00512410 -0.00853027 -0.00853129
v 0.00543404 -0.00856341 -0.00830903
v 0.00560651 -0.00851193 -0.00825384
v 0.00550918 -0.00866002 -0.00814647
v 0.00558431 -0.00875663 -0.00797840
v 0.00534951 -0.00902812 -0.00773858
v 0.00521973 -0.00897312 -0.00791217
v 0.00587290 -0.00877426 -0.00774410
v 0.00546648 -0.00889414 -0.00785849
v 0.00545282 -0.00906973 -0.00759660
v 0.00572861 -0.00909511 -0.00735226
v 0.00547673 -0.00921429 -0.00734273
v 0.00575251 -0.00923756 -0.00709889
v 0.00584900 -0.00927987 -0.00695089
v 0.00554418 -0.00952245 -0.00665538
v 0.00564408 -0.00955912 -0.00648429
v 0.00546563 -0.00975515 -0.00604931
v 0.00573288 -0.00958944 -0.00631873
v 0.00573629 -0.00967547 -0.00606235
v 0.00572690 -0.00975797 -0.00579444
v 0.00563469 -0.00980945 -0.00570162
v 0.00572690 -0.00982990 -0.00553756
v 0.00588998 -0.00980945 -0.00544524
v 0.00598305 -0.00982638 -0.00527065
v 0.00599415 -0.00987856 -0.00503083
v 0.00625200 -0.00991734 -0.00451506
v 0.00650985 -0.00993356 -0.00401636
v 0.00649278 -0.00993709 -0.00401636
v 0.01107096 -0.00576741 -0.00401636
v 0.01080543 -0.00624833 -0.00401636
v 0.01074480 -0.00615384 -0.00432943
v 0.01052452 -0.00647751 -0.00443379
v 0.01043060 -0.00656848 -0.00451808
v 0.01026069 -0.00672432 -0.00466809
v 0.01031363 -0.00657483 -0.00476191
v 0.01027435 -0.00648739 -0.00495356
v 0.01023080 -0.00641969 -0.00512565
v 0.01002503 -0.00624481 -0.00573875
v 0.01021031 -0.00607839 -0.00556766
v 0.01024447 -0.00566727 -0.00592639
v 0.00997722 -0.00616724 -0.00591083
v 0.01002503 -0.00599518 -0.00598760
v 0.01028545 -0.00522442 -0.00624799
v 0.01000454 -0.00493037 -0.00694035
v 0.00999515 -0.00490992 -0.00697146
v 0.01022056 -0.00483587 -0.00665989
v 0.01049720 -0.00487889 -0.00617524
v 0.01048183 -0.00458483 -0.00640753
v 0.01024532 -0.00437963 -0.00694035
v 0.01024105 -0.00436975 -0.00695290
v 0.01027691 -0.00419769 -0.00700507
v 0.01030679 -0.00397627 -0.00709187
v 0.01048183 -0.00380491 -0.00694035
v 0.01053391 -0.00292345 -0.00725844
v 0.01041096 -0.00373016 -0.00707431
v 0.01027435 -0.00374074 -0.00725693
v 0.00998149 -0.00358560 -0.00772704
v 0.01031704 -0.00348335 -0.00731513
v 0.01044511 -0.00348335 -0.00713903
v 0.01051513 -0.00286351 -0.00730610
v 0.00857098 -0.00348335 -0.00913586
v 0.00831398 -0.00399883 -0.00914087
v 0.00831398 -0.00374074 -0.00914188
v 0.00902265 -0.00286351 -0.00907364
v 0.00882968 -0.00296717 -0.00912432
v 0.00573629 -0.00709383 -0.00914188
v 0.00676771 -0.00632026 -0.00913385
v 0.00651071 -0.00657694 -0.00913335
v 0.00677027 -0.00657976 -0.00908418
v 0.00651071 -0.00683574 -0.00908267
v 0.00624858 -0.00709242 -0.00907916
v 0.00597792 -0.00734417 -0.00906913
v 0.00615979 -0.00725391 -0.00904956
v 0.00588059 -0.00749296 -0.00903702
v 0.00573629 -0.00767701 -0.00897481
v 0.00571495 -0.00785613 -0.00883332
v 0.00578581 -0.00793510 -0.00871492
v 0.00590791 -0.00803171 -0.00854333
v 0.00579520 -0.00820377 -0.00846205
v 0.00591389 -0.00828557 -0.00828996
v 0.00572007 -0.00833071 -0.00837877
v 0.00606587 -0.00847597 -0.00795331
v 0.00589425 -0.00853027 -0.00801753
v 0.00573629 -0.00858034 -0.00807623
v 0.00573629 -0.00870938 -0.00792271
v 0.00572861 -0.00893856 -0.00759660
v 0.00563725 -0.00904222 -0.00750277
v 0.00596938 -0.00862547 -0.00784846
v 0.00618028 -0.00854860 -0.00778123
v 0.00604452 -0.00872067 -0.00767787
v 0.00615637 -0.00878836 -0.00750578
v 0.00597280 -0.00881939 -0.00759860
v 0.00600268 -0.00896325 -0.00735226
v 0.00580887 -0.00900133 -0.00743856
v 0.00592242 -0.00905633 -0.00726647
v 0.00600268 -0.00911486 -0.00710441
v 0.00618882 -0.00906409 -0.00702615
v 0.00601464 -0.00925025 -0.00685305
v 0.00637751 -0.00928480 -0.00644566
v 0.00594206 -0.00931654 -0.00677930
v 0.00590791 -0.00956053 -0.00623193
v 0.00620589 -0.00931865 -0.00652694
v 0.00627591 -0.00936801 -0.00634432
v 0.00616918 -0.00956264 -0.00597857
v 0.00599329 -0.00959226 -0.00606386
v 0.00599415 -0.00967900 -0.00580447
v 0.00580716 -0.00978618 -0.00561733
v 0.00598305 -0.00975727 -0.00553756
v 0.00623322 -0.00975092 -0.00527065
v 0.00619394 -0.00982356 -0.00503083
v 0.00627676 -0.00985388 -0.00479653
v 0.00652010 -0.00984189 -0.00451657
v 0.00650985 -0.00989478 -0.00425718
v 0.00675063 -0.00987080 -0.00401636
v 0.01072858 -0.00638443 -0.00401636
v 0.01068931 -0.00630545 -0.00424916
v 0.01060222 -0.00659810 -0.00401636
v 0.01050147 -0.00669894 -0.00411520
v 0.01047414 -0.00665804 -0.00425718
v 0.01029484 -0.00677157 -0.00451506
v 0.01003016 -0.00702120 -0.00471826
v 0.01008395 -0.00691754 -0.00475338
v 0.01021714 -0.00665874 -0.00484018
v 0.00997039 -0.00719326 -0.00459534
v 0.00973900 -0.00748873 -0.00465554
v 0.00996868 -0.00641616 -0.00563288
v 0.00992514 -0.00632661 -0.00581651
v 0.00947688 -0.00691825 -0.00588324
v 0.00974583 -0.00646623 -0.00595198
v 0.00979194 -0.00630616 -0.00604780
v 0.00974583 -0.00621096 -0.00621186
v 0.00951616 -0.00599447 -0.00676927
v 0.00945980 -0.00590562 -0.00694035
v 0.00974327 -0.00595004 -0.00646623
v 0.00977572 -0.00578151 -0.00656256
v 0.00969119 -0.00554598 -0.00689921
v 0.00971680 -0.00545078 -0.00694035
v 0.01002503 -0.00477311 -0.00701260
v 0.01015652 -0.00475901 -0.00681793
v 0.00972790 -0.00540918 -0.00695791
v 0.00950933 -0.00573426 -0.00700909
v 0.00944187 -0.00561509 -0.00718118
v 0.00967326 -0.00530904 -0.00710140
v 0.00970912 -0.00511583 -0.00719221
v 0.00975693 -0.00494376 -0.00725192
v 0.00949225 -0.00467932 -0.00776216
v 0.00973046 -0.00464054 -0.00747819
v 0.00996868 -0.00459259 -0.00719322
v 0.01021373 -0.00404749 -0.00717716
v 0.01024959 -0.00387543 -0.00722533
v 0.01034949 -0.00324289 -0.00737383
v 0.01027179 -0.00316885 -0.00751130
v 0.01006772 -0.00295941 -0.00787856
v 0.01010444 -0.00286351 -0.00786802
v 0.00974583 -0.00364554 -0.00801352
v 0.00991574 -0.00349322 -0.00785648
v 0.00994477 -0.00322526 -0.00793274
v 0.00857098 -0.00374074 -0.00910977
v 0.00831398 -0.00425693 -0.00911679
v 0.00805527 -0.00451502 -0.00913736
v 0.00754127 -0.00528789 -0.00913987
v 0.00779827 -0.00477311 -0.00914188
v 0.00915157 -0.00286351 -0.00895825
v 0.00900899 -0.00296717 -0.00906762
v 0.00878614 -0.00348335 -0.00907916
v 0.00728427 -0.00554598 -0.00914188
v 0.00702556 -0.00606217 -0.00912883
v 0.00702641 -0.00631603 -0.00908067
v 0.00668574 -0.00675042 -0.00905558
v 0.00694189 -0.00649514 -0.00905608
v 0.00642362 -0.00700569 -0.00905408
v 0.00633140 -0.00717704 -0.00898986
v 0.00625200 -0.00735193 -0.00889804
v 0.00605306 -0.00742526 -0.00897832
v 0.00589510 -0.00776304 -0.00879118
v 0.00617259 -0.00752117 -0.00880623
v 0.00664732 -0.00774471 -0.00825986
v 0.00665329 -0.00800915 -0.00800800
v 0.00608550 -0.00822634 -0.00822524
v 0.00637068 -0.00824679 -0.00798843
v 0.00619906 -0.00830391 -0.00805366
v 0.00627591 -0.00839911 -0.00788508
v 0.00635190 -0.00849360 -0.00771550
v 0.00625371 -0.00864239 -0.00761064
v 0.00632799 -0.00873618 -0.00743354
v 0.00642276 -0.00879471 -0.00726145
v 0.00624602 -0.00883914 -0.00734875
v 0.00609404 -0.00901402 -0.00719823
v 0.00626566 -0.00897594 -0.00710441
v 0.00652693 -0.00898158 -0.00684954
v 0.00645179 -0.00906691 -0.00677328
v 0.00652693 -0.00912685 -0.00659467
v 0.00626566 -0.00912191 -0.00684954
v 0.00627591 -0.00925448 -0.00659818
v 0.00653461 -0.00925801 -0.00634432
v 0.00663707 -0.00928551 -0.00618979
v 0.00646545 -0.00932077 -0.00627408
v 0.00607953 -0.00952668 -0.00615065
v 0.00634080 -0.00952738 -0.00588926
v 0.00641593 -0.00955912 -0.00571717
v 0.00625371 -0.00959155 -0.00580347
v 0.00625200 -0.00967194 -0.00554659
v 0.00650985 -0.00972765 -0.00503083
v 0.00637836 -0.00980099 -0.00489837
v 0.00644069 -0.00982144 -0.00472629
v 0.00661317 -0.00979323 -0.00460387
v 0.00666866 -0.00981227 -0.00443178
v 0.00676088 -0.00982497 -0.00423210
v 0.00689834 -0.00980240 -0.00412925
v 0.00692993 -0.00981368 -0.00401636
v 0.01052025 -0.00672573 -0.00401636
v 0.01038876 -0.00691825 -0.00401636
v 0.01023763 -0.00694857 -0.00435602
v 0.01021714 -0.00691825 -0.00445887
v 0.01019409 -0.00691825 -0.00451456
v 0.00978853 -0.00734346 -0.00475388
v 0.00993624 -0.00710159 -0.00479201
v 0.01003101 -0.00691825 -0.00485372
v 0.00990464 -0.00733923 -0.00451155
v 0.00976889 -0.00752751 -0.00451506
v 0.00970912 -0.00770804 -0.00432492
v 0.00966643 -0.00765656 -0.00451506
v 0.00946663 -0.00798658 -0.00436706
v 0.00943163 -0.00794427 -0.00451506
v 0.00949737 -0.00776445 -0.00468364
v 0.00920707 -0.00798447 -0.00488332
v 0.00944956 -0.00770733 -0.00485573
v 0.00929587 -0.00760931 -0.00527667
v 0.00947176 -0.00747674 -0.00515425
v 0.00934881 -0.00735404 -0.00555010
v 0.00949140 -0.00724404 -0.00544825
v 0.00944529 -0.00718057 -0.00562034
v 0.00954860 -0.00709454 -0.00553957
v 0.00993794 -0.00691825 -0.00503083
v 0.00967070 -0.00709807 -0.00530276
v 0.00973730 -0.00671163 -0.00568255
v 0.00955031 -0.00691825 -0.00575932
v 0.00950591 -0.00700851 -0.00572821
v 0.00945468 -0.00693517 -0.00590030
v 0.00944529 -0.00691825 -0.00593241
v 0.00951445 -0.00676240 -0.00599111
v 0.00960239 -0.00631673 -0.00631722
v 0.00951701 -0.00625115 -0.00651038
v 0.00941028 -0.00607274 -0.00684703
v 0.00922842 -0.00620602 -0.00697798
v 0.00927623 -0.00606217 -0.00703718
v 0.00921476 -0.00593030 -0.00722031
v 0.00936503 -0.00583228 -0.00711495
v 0.00959812 -0.00579350 -0.00682646
v 0.00920110 -0.00564612 -0.00746063
v 0.00935051 -0.00478087 -0.00787254
v 0.00953067 -0.00451502 -0.00781083
v 0.00925318 -0.00470965 -0.00803760
v 0.00942992 -0.00451502 -0.00794027
v 0.00946493 -0.00436341 -0.00798292
v 0.00977059 -0.00399883 -0.00778725
v 0.00970997 -0.00381831 -0.00796686
v 0.00999771 -0.00286351 -0.00801202
v 0.00997295 -0.00303980 -0.00797238
v 0.00950164 -0.00419135 -0.00802857
v 0.00954348 -0.00399883 -0.00807473
v 0.00946237 -0.00384228 -0.00824130
v 0.00949908 -0.00367022 -0.00828043
v 0.00966387 -0.00348335 -0.00817608
v 0.00977486 -0.00348335 -0.00804714
v 0.00857695 -0.00397838 -0.00907414
v 0.00848816 -0.00425693 -0.00906010
v 0.00831568 -0.00449739 -0.00907414
v 0.00823030 -0.00472728 -0.00906060
v 0.00801258 -0.00503050 -0.00907364
v 0.00779827 -0.00503050 -0.00913034
v 0.00728427 -0.00580407 -0.00912281
v 0.00913791 -0.00296717 -0.00894019
v 0.00897910 -0.00315615 -0.00904555
v 0.00927111 -0.00286351 -0.00882931
v 0.00873406 -0.00374074 -0.00905307
v 0.00727573 -0.00604947 -0.00907164
v 0.00685821 -0.00666720 -0.00899638
v 0.00718523 -0.00622718 -0.00904956
v 0.00711265 -0.00639924 -0.00899036
v 0.00659609 -0.00692318 -0.00899337
v 0.00651839 -0.00710159 -0.00890557
v 0.00663024 -0.00747322 -0.00850570
v 0.00674636 -0.00759169 -0.00831204
v 0.00691115 -0.00749367 -0.00826488
v 0.00681894 -0.00766573 -0.00819012
v 0.00692139 -0.00776234 -0.00801854
v 0.00673612 -0.00783920 -0.00809931
v 0.00682577 -0.00793440 -0.00793174
v 0.00673697 -0.00809941 -0.00783892
v 0.00664817 -0.00826160 -0.00774661
v 0.00650985 -0.00819390 -0.00793224
v 0.00650985 -0.00831026 -0.00780330
v 0.00645179 -0.00856412 -0.00754341
v 0.00652266 -0.00865156 -0.00736330
v 0.00659524 -0.00873971 -0.00718017
v 0.00685736 -0.00874394 -0.00692731
v 0.00668574 -0.00879753 -0.00700859
v 0.00677027 -0.00885183 -0.00683901
v 0.00678649 -0.00898581 -0.00659467
v 0.00671306 -0.00906973 -0.00652092
v 0.00695384 -0.00931160 -0.00574326
v 0.00650558 -0.00948789 -0.00580347
v 0.00678649 -0.00912614 -0.00633830
v 0.00695811 -0.00906549 -0.00626404
v 0.00678393 -0.00925237 -0.00608744
v 0.00712546 -0.00927211 -0.00564091
v 0.00666013 -0.00955347 -0.00544273
v 0.00650558 -0.00958380 -0.00553605
v 0.00650985 -0.00965784 -0.00528871
v 0.00676771 -0.00964021 -0.00503083
v 0.00676771 -0.00970438 -0.00477295
v 0.00652010 -0.00977984 -0.00479653
v 0.00676088 -0.00976362 -0.00451657
v 0.00700080 -0.00974599 -0.00423210
v 0.00705886 -0.00976926 -0.00401636
v 0.00999515 -0.00748591 -0.00401636
v 0.00994904 -0.00741962 -0.00425718
v 0.01000625 -0.00724404 -0.00442325
v 0.00980816 -0.00761707 -0.00424615
v 0.00950420 -0.00803383 -0.00419547
v 0.00991489 -0.00759451 -0.00401636
v 0.00977657 -0.00777785 -0.00401636
v 0.00939406 -0.00812197 -0.00427173
v 0.00922073 -0.00825807 -0.00439365
v 0.00928733 -0.00812621 -0.00449349
v 0.00925318 -0.00804018 -0.00471123
v 0.00902265 -0.00812056 -0.00500624
v 0.00898764 -0.00803101 -0.00520894
v 0.00916694 -0.00793440 -0.00503083
v 0.00925233 -0.00752328 -0.00547936
v 0.00920366 -0.00746405 -0.00565145
v 0.00926086 -0.00727647 -0.00580447
v 0.00939406 -0.00709454 -0.00581049
v 0.00921903 -0.00722500 -0.00593642
v 0.00926172 -0.00707409 -0.00603877
v 0.00922415 -0.00697466 -0.00620233
v 0.00923952 -0.00691825 -0.00623745
v 0.00922586 -0.00671798 -0.00646172
v 0.00916780 -0.00637808 -0.00689219
v 0.00893556 -0.00667285 -0.00693132
v 0.00893129 -0.00666932 -0.00694035
v 0.00899533 -0.00650078 -0.00700959
v 0.00892446 -0.00639853 -0.00718168
v 0.00916951 -0.00606217 -0.00716663
v 0.00895605 -0.00567080 -0.00773507
v 0.00889970 -0.00556925 -0.00787806
v 0.00893812 -0.00538097 -0.00797087
v 0.00920537 -0.00488171 -0.00798241
v 0.00928477 -0.00449034 -0.00812390
v 0.00898593 -0.00520891 -0.00802757
v 0.00891592 -0.00503050 -0.00820969
v 0.00910376 -0.00480202 -0.00814346
v 0.00917377 -0.00455944 -0.00820919
v 0.00921732 -0.00438738 -0.00825434
v 0.00970656 -0.00322526 -0.00822374
v 0.00988586 -0.00286351 -0.00814447
v 0.00935564 -0.00376190 -0.00839231
v 0.00899447 -0.00369420 -0.00880723
v 0.00903802 -0.00348335 -0.00885489
v 0.00916694 -0.00348335 -0.00871642
v 0.00920110 -0.00330565 -0.00875305
v 0.00945127 -0.00327956 -0.00848614
v 0.00845059 -0.00440008 -0.00903451
v 0.00870417 -0.00387825 -0.00903100
v 0.00818249 -0.00489863 -0.00902648
v 0.00795793 -0.00520397 -0.00905107
v 0.00772740 -0.00550014 -0.00906411
v 0.00780595 -0.00528930 -0.00908619
v 0.00756603 -0.00556996 -0.00909471
v 0.00748919 -0.00580407 -0.00906612
v 0.00909010 -0.00323090 -0.00890005
v 0.00894666 -0.00332821 -0.00901795
v 0.00976206 -0.00286351 -0.00828645
v 0.00743027 -0.00595498 -0.00904153
v 0.00660890 -0.00691825 -0.00898735
v 0.00703751 -0.00659034 -0.00890758
v 0.00713485 -0.00668483 -0.00875405
v 0.00743027 -0.00698383 -0.00826990
v 0.00715534 -0.00696479 -0.00851172
v 0.00735684 -0.00612634 -0.00897932
v 0.00728512 -0.00632026 -0.00889905
v 0.00746869 -0.00691754 -0.00828746
v 0.00700251 -0.00758675 -0.00810634
v 0.00717242 -0.00723910 -0.00826789
v 0.00734404 -0.00715589 -0.00819715
v 0.00726463 -0.00733289 -0.00810935
v 0.00691969 -0.00801690 -0.00775965
v 0.00718352 -0.00750848 -0.00802205
v 0.00709387 -0.00767983 -0.00793676
v 0.00718266 -0.00776516 -0.00776517
v 0.00709130 -0.00793722 -0.00767787
v 0.00674807 -0.00831026 -0.00759158
v 0.00662341 -0.00850065 -0.00746515
v 0.00682064 -0.00818897 -0.00766583
v 0.00717413 -0.00826936 -0.00724038
v 0.00671392 -0.00856764 -0.00729356
v 0.00678649 -0.00865579 -0.00711043
v 0.00697689 -0.00857187 -0.00704019
v 0.00704861 -0.00865861 -0.00685707
v 0.00712034 -0.00874605 -0.00666842
v 0.00694786 -0.00880035 -0.00675522
v 0.00688468 -0.00902107 -0.00643613
v 0.00703410 -0.00934686 -0.00555161
v 0.00683174 -0.00951539 -0.00534039
v 0.00719547 -0.00930525 -0.00546882
v 0.00703666 -0.00911486 -0.00607038
v 0.00703666 -0.00897876 -0.00633830
v 0.00728598 -0.00896395 -0.00607038
v 0.00720230 -0.00905703 -0.00598960
v 0.00728598 -0.00910075 -0.00580246
v 0.00703410 -0.00923897 -0.00581952
v 0.00728171 -0.00922345 -0.00555161
v 0.00736624 -0.00926224 -0.00535142
v 0.00690346 -0.00954713 -0.00516830
v 0.00675490 -0.00957392 -0.00526814
v 0.00694957 -0.00956828 -0.00503083
v 0.00703837 -0.00960072 -0.00477847
v 0.00702641 -0.00967335 -0.00451506
v 0.00728341 -0.00963810 -0.00425718
v 0.00726207 -0.00969733 -0.00401636
v 0.00954006 -0.00807825 -0.00401636
v 0.00943504 -0.00820589 -0.00401636
v 0.00899447 -0.00828699 -0.00477295
v 0.00896032 -0.00825525 -0.00490339
v 0.00917804 -0.00821224 -0.00456524
v 0.00925233 -0.00828910 -0.00425718
v 0.00905168 -0.00859021 -0.00401636
v 0.00890909 -0.00872490 -0.00401636
v 0.00869307 -0.00876298 -0.00436957
v 0.00843266 -0.00876157 -0.00488282
v 0.00891165 -0.00820307 -0.00507548
v 0.00883822 -0.00813467 -0.00530025
v 0.00871271 -0.00800915 -0.00569309
v 0.00893727 -0.00797036 -0.00538102
v 0.00915328 -0.00740552 -0.00580447
v 0.00895776 -0.00773695 -0.00567302
v 0.00897398 -0.00749790 -0.00595348
v 0.00906534 -0.00732443 -0.00603125
v 0.00875967 -0.00703248 -0.00678582
v 0.00899276 -0.00700569 -0.00649734
v 0.00894751 -0.00691754 -0.00665789
v 0.00902436 -0.00755713 -0.00580447
v 0.00865465 -0.00794216 -0.00586468
v 0.00899533 -0.00675606 -0.00675923
v 0.00891848 -0.00691825 -0.00669752
v 0.00884761 -0.00685690 -0.00685857
v 0.00875711 -0.00691825 -0.00691778
v 0.00869563 -0.00695844 -0.00695741
v 0.00876309 -0.00678567 -0.00704019
v 0.00869137 -0.00669330 -0.00721228
v 0.00884334 -0.00659739 -0.00711094
v 0.00867941 -0.00641687 -0.00745461
v 0.00865209 -0.00586119 -0.00793826
v 0.00871100 -0.00568913 -0.00800700
v 0.00875711 -0.00554598 -0.00805767
v 0.00868624 -0.00539155 -0.00823929
v 0.00883652 -0.00529988 -0.00813343
v 0.00895434 -0.00489299 -0.00824933
v 0.00900130 -0.00472163 -0.00829749
v 0.00896459 -0.00439655 -0.00851724
v 0.00866746 -0.00405031 -0.00899237
v 0.00888091 -0.00376472 -0.00889553
v 0.00891507 -0.00348335 -0.00898384
v 0.00861623 -0.00425693 -0.00894169
v 0.00866063 -0.00457002 -0.00872846
v 0.00840277 -0.00457214 -0.00898735
v 0.00814150 -0.00503050 -0.00898735
v 0.00833618 -0.00481260 -0.00892112
v 0.00853170 -0.00503050 -0.00860103
v 0.00789902 -0.00537603 -0.00900089
v 0.00766849 -0.00567221 -0.00902598
v 0.00761811 -0.00580407 -0.00898183
v 0.00769837 -0.00596838 -0.00879619
v 0.00752931 -0.00604736 -0.00888801
v 0.00726890 -0.00707973 -0.00832358
v 0.00763177 -0.00691754 -0.00813895
v 0.00769410 -0.00699229 -0.00801954
v 0.00752334 -0.00707409 -0.00810834
v 0.00744479 -0.00725391 -0.00802506
v 0.00767703 -0.00671234 -0.00825886
v 0.00760274 -0.00688440 -0.00819163
v 0.00718096 -0.00802114 -0.00750578
v 0.00734574 -0.00819672 -0.00715860
v 0.00708277 -0.00819320 -0.00741247
v 0.00735514 -0.00742597 -0.00794077
v 0.00735428 -0.00768265 -0.00768189
v 0.00744137 -0.00802466 -0.00725091
v 0.00704861 -0.00846257 -0.00711294
v 0.00714936 -0.00850841 -0.00695892
v 0.00743369 -0.00827218 -0.00698651
v 0.00726975 -0.00832295 -0.00708083
v 0.00740124 -0.00850347 -0.00669351
v 0.00729793 -0.00865438 -0.00659517
v 0.00736624 -0.00873477 -0.00639549
v 0.00768386 -0.00877990 -0.00594997
v 0.00719462 -0.00879682 -0.00649784
v 0.00703068 -0.00885183 -0.00658062
v 0.00728171 -0.00932994 -0.00527466
v 0.00753102 -0.00882433 -0.00604680
v 0.00737392 -0.00900415 -0.00588725
v 0.00744479 -0.00904857 -0.00571517
v 0.00753444 -0.00908030 -0.00552702
v 0.00742430 -0.00929256 -0.00517933
v 0.00752248 -0.00919666 -0.00527466
v 0.00765483 -0.00927775 -0.00487730
v 0.00728341 -0.00940891 -0.00503083
v 0.00707850 -0.00950764 -0.00503083
v 0.00718949 -0.00956053 -0.00469669
v 0.00727829 -0.00957886 -0.00449399
v 0.00741746 -0.00954642 -0.00439365
v 0.00745503 -0.00956476 -0.00425718
v 0.00753615 -0.00958521 -0.00401636
v 0.00728341 -0.00968957 -0.00401636
v 0.00930441 -0.00834199 -0.00401636
v 0.00869734 -0.00850770 -0.00489336
v 0.00882798 -0.00832506 -0.00500624
v 0.00874003 -0.00828981 -0.00521947
v 0.00917292 -0.00847245 -0.00401636
v 0.00877931 -0.00882856 -0.00401636
v 0.00876906 -0.00883631 -0.00401636
v 0.00856927 -0.00889696 -0.00425016
v 0.00852572 -0.00883138 -0.00451506
v 0.00847535 -0.00879541 -0.00471073
v 0.00818676 -0.00902883 -0.00464601
v 0.00813382 -0.00899357 -0.00481810
v 0.00825506 -0.00881869 -0.00503083
v 0.00820298 -0.00878413 -0.00518786
v 0.00791951 -0.00876368 -0.00566349
v 0.00838484 -0.00871926 -0.00503083
v 0.00868453 -0.00823762 -0.00539156
v 0.00877504 -0.00786106 -0.00578892
v 0.00889970 -0.00787799 -0.00557117
v 0.00863331 -0.00818685 -0.00554659
v 0.00839936 -0.00821083 -0.00586618
v 0.00848303 -0.00803876 -0.00598760
v 0.00872808 -0.00777080 -0.00597054
v 0.00857439 -0.00786952 -0.00606536
v 0.00883054 -0.00735122 -0.00632023
v 0.00849328 -0.00779760 -0.00626003
v 0.00825335 -0.00759803 -0.00681743
v 0.00845144 -0.00723134 -0.00697347
v 0.00893129 -0.00692882 -0.00666842
v 0.00867514 -0.00691754 -0.00702063
v 0.00860257 -0.00691754 -0.00710191
v 0.00846852 -0.00691825 -0.00724941
v 0.00818249 -0.00644719 -0.00799445
v 0.00843266 -0.00643520 -0.00772704
v 0.00841900 -0.00615737 -0.00796887
v 0.00847962 -0.00598530 -0.00803509
v 0.00863416 -0.00554598 -0.00818711
v 0.00845486 -0.00569125 -0.00826488
v 0.00850523 -0.00554598 -0.00831254
v 0.00821835 -0.00521032 -0.00880372
v 0.00873406 -0.00522019 -0.00828846
v 0.00878785 -0.00503050 -0.00834164
v 0.00891763 -0.00456861 -0.00846958
v 0.00805954 -0.00529282 -0.00890206
v 0.00866063 -0.00503050 -0.00847058
v 0.00822347 -0.00598742 -0.00828996
v 0.00816200 -0.00615948 -0.00823327
v 0.00798952 -0.00626878 -0.00831254
v 0.00791951 -0.00644084 -0.00824782
v 0.00772399 -0.00691825 -0.00805115
v 0.00769923 -0.00725461 -0.00777019
v 0.00761555 -0.00716435 -0.00794228
v 0.00785291 -0.00691825 -0.00791719
v 0.00778290 -0.00707409 -0.00784946
v 0.00753017 -0.00733994 -0.00785548
v 0.00752334 -0.00810928 -0.00707531
v 0.00744223 -0.00776798 -0.00750980
v 0.00761555 -0.00742668 -0.00768339
v 0.00770179 -0.00751130 -0.00751181
v 0.00770008 -0.00776798 -0.00725242
v 0.00787170 -0.00768336 -0.00716612
v 0.00761299 -0.00794004 -0.00716412
v 0.00769581 -0.00802184 -0.00699203
v 0.00760531 -0.00819390 -0.00688717
v 0.00767788 -0.00826089 -0.00671508
v 0.00752846 -0.00831519 -0.00681492
v 0.00747382 -0.00856271 -0.00652242
v 0.00778717 -0.00863181 -0.00604780
v 0.00761043 -0.00872349 -0.00612206
v 0.00795879 -0.00854014 -0.00597405
v 0.00786743 -0.00872208 -0.00580447
v 0.00773850 -0.00881727 -0.00580447
v 0.00753444 -0.00894844 -0.00580246
v 0.00761726 -0.00899498 -0.00560027
v 0.00767703 -0.00903235 -0.00542819
v 0.00772313 -0.00906338 -0.00528871
v 0.00747382 -0.00931654 -0.00503083
v 0.00779656 -0.00922769 -0.00478398
v 0.00788109 -0.00926012 -0.00456373
v 0.00770947 -0.00930596 -0.00470572
v 0.00779656 -0.00932641 -0.00449249
v 0.00793061 -0.00928763 -0.00439164
v 0.00758396 -0.00950059 -0.00425718
v 0.00763604 -0.00952668 -0.00406051
v 0.00764714 -0.00953232 -0.00401636
v 0.00857866 -0.00838924 -0.00529824
v 0.00845571 -0.00826583 -0.00569409
v 0.00860428 -0.00895619 -0.00401636
v 0.00834813 -0.00896042 -0.00451506
v 0.00809284 -0.00922769 -0.00425718
v 0.00803222 -0.00918678 -0.00449249
v 0.00805100 -0.00907819 -0.00474836
v 0.00844461 -0.00902953 -0.00413125
v 0.00831483 -0.00908524 -0.00423310
v 0.00805100 -0.00895478 -0.00503584
v 0.00796135 -0.00905069 -0.00495356
v 0.00779741 -0.00889907 -0.00554609
v 0.00804929 -0.00857822 -0.00578139
v 0.00823201 -0.00855354 -0.00554659
v 0.00841644 -0.00848866 -0.00537701
v 0.00847279 -0.00853873 -0.00520492
v 0.00822689 -0.00829192 -0.00599312
v 0.00816541 -0.00823551 -0.00616520
v 0.00824738 -0.00806415 -0.00627508
v 0.00841900 -0.00796895 -0.00615968
v 0.00819530 -0.00774964 -0.00671960
v 0.00820554 -0.00750424 -0.00698751
v 0.00812784 -0.00741328 -0.00715960
v 0.00842327 -0.00691825 -0.00729858
v 0.00808686 -0.00635763 -0.00815450
v 0.00824823 -0.00627513 -0.00806118
v 0.00833959 -0.00635552 -0.00789612
v 0.00832081 -0.00607274 -0.00813393
v 0.00839509 -0.00586331 -0.00820668
v 0.00795623 -0.00751130 -0.00725292
v 0.00795537 -0.00776586 -0.00699404
v 0.00786743 -0.00793793 -0.00689269
v 0.00777265 -0.00810082 -0.00680389
v 0.00786401 -0.00819461 -0.00657862
v 0.00792122 -0.00824891 -0.00644215
v 0.00773594 -0.00830814 -0.00657862
v 0.00764629 -0.00849219 -0.00642007
v 0.00771801 -0.00855143 -0.00624799
v 0.00788877 -0.00848091 -0.00614564
v 0.00799294 -0.00830885 -0.00627006
v 0.00813041 -0.00846398 -0.00585163
v 0.00781022 -0.00911345 -0.00503584
v 0.00796391 -0.00930525 -0.00425718
v 0.00779827 -0.00939129 -0.00425718
v 0.00814492 -0.00926224 -0.00404897
v 0.00815346 -0.00926717 -0.00401636
v 0.00804417 -0.00932570 -0.00401636
v 0.00829348 -0.00836455 -0.00577286
v 0.00846596 -0.00905492 -0.00401636
v 0.00821066 -0.00922910 -0.00401636
v 0.00829434 -0.00917268 -0.00401636
v 0.00808857 -0.00815653 -0.00635836
v 0.00818334 -0.00799434 -0.00644717
v 0.00812699 -0.00767631 -0.00689169
v 0.00804161 -0.00759380 -0.00707682
v 0.00793915 -0.00800844 -0.00672060
v 0.00799892 -0.00806556 -0.00657862
f 1 2 3
f 1 3 4
f 1 4 5
f 1 5 13
f 1 13 25
f 1 25 24
f 1 24 39
f 1 39 90
f 1 90 89
f 1 89 143
f 1 143 201
f 1 201 270
f 1 270 268
f 1 268 337
f 1 337 415
f 1 415 509
f 1 509 613
f 1 613 712
f 1 712 729
f 1 729 630
f 1 630 518
f 1 518 419
f 1 419 339
f 1 339 272
f 1 272 209
f 1 209 151
f 1 151 93
f 1 93 45
f 1 45 29
f 1 29 14
f 1 14 6
f 1 6 18
f 1 18 32
f 1 32 78
f 1 78 129
f 1 129 128
f 1 128 127
f 1 127 126
f 1 126 123
f 1 123 122
f 1 122 186
f 1 186 247
f 1 247 313
f 1 313 383
f 1 383 382
f 1 382 469
f 1 469 565
f 1 565 671
f 1 671 776
f 1 776 869
f 1 869 868
f 1 868 954
f 1 954 1001
f 1 1001 1000
f 1 1000 1004
f 1 1004 1005
f 1 1005 1003
f 1 1003 957
f 1 957 876
f 1 876 875
f 1 875 784
f 1 784 783
f 1 783 874
f 1 874 870
f 1 870 778
f 1 778 777
f 1 777 678
f 1 678 677
f 1 677 672
f 1 672 567
f 1 567 566
f 1 566 472
f 1 472 470
f 1 470 385
f 1 385 384
f 1 384 317
f 1 317 271
f 1 271 202
f 1 202 144
f 1 144 91
f 1 91 42
f 1 42 79
f 1 79 33
f 1 33 19
f 1 19 7
f 1 7 2
f 2 7 3
f 3 8 9
f 3 9 10
f 3 10 4
f 3 7 11
f 3 11 12
f 3 12 8
f 4 10 5
f 5 10 13
f 6 14 15
f 6 15 16
f 6 16 17
f 6 17 18
f 7 19 11
f 8 12 20
f 8 20 21
f 8 21 22
f 8 22 9
f 9 22 23
f 9 23 24
f 9 24 25
f 9 25 10
f 10 25 13
f 11 19 26
f 11 26 12
f 12 26 27
f 12 27 28
f 12 28 20
f 14 29 30
f 14 30 15
f 15 30 16
f 16 30 17
f 17 30 31
f 17 31 18
f 18 31 32
f 19 33 26
f 20 28 34
f 20 34 21
f 21 34 35
f 21 35 36
f 21 36 37
f 21 37 22
f 22 37 38
f 22 38 23
f 23 39 24
f 23 38 40
f 23 40 39
f 26 41 27
f 26 33 41
f 27 41 42
f 27 42 43
f 27 43 44
f 27 44 28
f 28 44 34
f 29 45 30
f 30 46 47
f 30 47 48
f 30 48 49
f 30 49 50
f 30 50 51
f 30 51 52
f 30 52 53
f 30 53 54
f 30 54 55
f 30 55 56
f 30 56 57
f 30 57 58
f 30 58 59
f 30 59 60
f 30 60 61
f 30 61 62
f 30 62 63
f 30 63 64
f 30 64 65
f 30 65 66
f 30 66 67
f 30 67 68
f 30 68 69
f 30 69 70
f 30 70 71
f 30 71 72
f 30 72 73
f 30 73 74
f 30 74 75
f 30 75 31
f 30 45 46
f 31 75 76
f 31 76 32
f 32 77 78
f 32 76 75
f 32 75 77
f 33 79 41
f 34 44 80
f 34 80 81
f 34 81 82
f 34 82 83
f 34 83 35
f 35 83 36
f 36 84 85
f 36 85 37
f 36 83 86
f 36 86 84
f 37 85 87
f 37 87 88
f 37 88 38
f 38 88 89
f 38 89 40
f 39 40 90
f 40 89 90
f 41 79 42
f 42 91 43
f 43 91 92
f 43 92 44
f 44 92 80
f 45 93 94
f 45 94 46
f 46 94 95
f 46 95 96
f 46 96 97
f 46 97 47
f 47 97 98
f 47 98 99
f 47 99 48
f 48 99 49
f 49 99 100
f 49 100 101
f 49 101 50
f 50 101 51
f 51 101 102
f 51 102 52
f 52 102 103
f 52 103 53
f 53 103 104
f 53 104 105
f 53 105 54
f 54 105 55
f 55 105 106
f 55 106 107
f 55 107 108
f 55 108 56
f 56 108 57
f 57 108 109
f 57 109 58
f 58 109 110
f 58 110 59
f 59 110 111
f 59 111 60
f 60 111 61
f 61 111 112
f 61 112 113
f 61 113 62
f 62 113 63
f 63 113 114
f 63 114 64
f 64 115 65
f 64 114 115
f 65 115 116
f 65 116 117
f 65 117 66
f 66 117 67
f 67 117 118
f 67 118 68
f 68 118 69
f 69 119 120
f 69 120 121
f 69 121 122
f 69 122 123
f 69 123 124
f 69 124 70
f 69 118 119
f 70 125 71
f 70 124 125
f 71 125 126
f 71 126 127
f 71 127 128
f 71 128 72
f 72 128 129
f 72 129 73
f 73 129 74
f 74 129 78
f 74 78 75
f 75 78 77
f 80 130 131
f 80 131 132
f 80 132 133
f 80 133 81
f 80 92 130
f 81 133 134
f 81 134 82
f 82 134 135
f 82 135 136
f 82 136 137
f 82 137 83
f 83 137 86
f 84 86 85
f 85 138 87
f 85 86 139
f 85 139 140
f 85 140 138
f 86 137 139
f 87 138 141
f 87 141 142
f 87 142 88
f 88 142 89
f 89 142 143
f 91 144 92
f 92 144 145
f 92 145 146
f 92 146 147
f 92 147 148
f 92 148 149
f 92 149 150
f 92 150 131
f 92 131 130
f 93 151 94
f 94 152 153
f 94 153 154
f 94 154 155
f 94 155 95
f 94 151 152
f 95 155 156
f 95 156 157
f 95 157 96
f 96 157 98
f 96 98 97
f 98 100 99
f 98 157 156
f 98 156 158
f 98 158 159
f 98 159 160
f 98 160 161
f 98 161 100
f 100 161 101
f 101 161 162
f 101 162 102
f 102 162 163
f 102 163 103
f 103 105 104
f 103 163 164
f 103 164 165
f 103 165 166
f 103 166 105
f 105 166 106
f 106 166 107
f 107 167 108
f 107 166 165
f 107 165 168
f 107 168 169
f 107 169 167
f 108 167 110
f 108 110 109
f 110 167 170
f 110 170 171
f 110 171 111
f 111 171 172
f 111 172 112
f 112 172 113
f 113 172 173
f 113 173 114
f 114 173 174
f 114 174 175
f 114 175 176
f 114 176 115
f 115 176 116
f 116 176 177
f 116 177 118
f 116 118 117
f 118 177 178
f 118 178 179
f 118 179 180
f 118 180 119
f 119 180 181
f 119 181 120
f 120 182 183
f 120 183 184
f 120 184 185
f 120 185 121
f 120 181 182
f 121 185 186
f 121 186 122
f 123 126 124
f 124 126 125
f 131 150 187
f 131 187 188
f 131 188 189
f 131 189 132
f 132 189 190
f 132 190 191
f 132 191 192
f 132 192 134
f 132 134 133
f 134 192 136
f 134 136 135
f 136 192 193
f 136 193 137
f 137 193 194
f 137 194 195
f 137 195 196
f 137 196 139
f 138 140 197
f 138 197 141
f 139 196 198
f 139 198 140
f 140 198 197
f 141 197 199
f 141 199 142
f 142 199 200
f 142 200 201
f 142 201 143
f 144 202 146
f 144 146 145
f 146 202 203
f 146 203 147
f 147 203 204
f 147 204 148
f 148 204 187
f 148 187 150
f 148 150 149
f 151 205 206
f 151 206 207
f 151 207 208
f 151 208 152
f 151 209 205
f 152 208 206
f 152 206 153
f 153 206 205
f 153 205 209
f 153 209 272
f 153 272 338
f 153 338 418
f 153 418 517
f 153 517 521
f 153 521 421
f 153 421 340
f 153 340 273
f 153 273 210
f 153 210 154
f 154 210 211
f 154 211 212
f 154 212 155
f 155 212 213
f 155 213 156
f 156 213 214
f 156 214 215
f 156 215 158
f 158 215 216
f 158 216 217
f 158 217 159
f 159 217 218
f 159 218 160
f 160 219 161
f 160 218 220
f 160 220 219
f 161 219 162
f 162 219 221
f 162 221 222
f 162 222 163
f 163 222 223
f 163 223 224
f 163 224 165
f 163 165 164
f 165 224 223
f 165 223 225
f 165 225 226
f 165 226 168
f 167 169 227
f 167 227 228
f 167 228 170
f 168 226 169
f 169 226 229
f 169 229 227
f 170 230 231
f 170 231 171
f 170 228 232
f 170 232 233
f 170 233 230
f 171 231 172
f 172 231 173
f 173 231 230
f 173 230 174
f 174 234 175
f 174 230 234
f 175 235 176
f 175 234 236
f 175 236 237
f 175 237 238
f 175 238 235
f 176 235 177
f 177 235 179
f 177 179 178
f 179 235 239
f 179 239 182
f 179 182 181
f 179 181 180
f 182 239 240
f 182 240 183
f 183 241 184
f 183 240 242
f 183 242 243
f 183 243 241
f 184 241 185
f 185 241 244
f 185 244 245
f 185 245 186
f 186 246 247
f 186 245 246
f 187 204 203
f 187 203 188
f 188 248 249
f 188 249 250
f 188 250 251
f 188 251 189
f 188 203 252
f 188 252 253
f 188 253 254
f 188 254 255
f 188 255 256
f 188 256 257
f 188 257 248
f 189 251 250
f 189 250 190
f 190 250 191
f 191 193 192
f 191 250 194
f 191 194 193
f 194 249 258
f 194 258 259
f 194 259 260
f 194 260 261
f 194 261 195
f 194 250 249
f 195 261 196
f 196 261 262
f 196 262 263
f 196 263 264
f 196 264 265
f 196 265 266
f 196 266 198
f 197 198 199
f 198 266 199
f 199 266 267
f 199 267 268
f 199 268 269
f 199 269 200
f 200 269 201
f 201 269 270
f 202 271 203
f 203 271 252
f 206 208 207
f 210 273 211
f 211 273 274
f 211 274 275
f 211 275 276
f 211 276 212
f 212 276 277
f 212 277 213
f 213 277 278
f 213 278 214
f 214 279 216
f 214 216 215
f 214 278 280
f 214 280 281
f 214 281 282
f 214 282 283
f 214 283 279
f 216 279 284
f 216 284 285
f 216 285 217
f 217 285 286
f 217 286 218
f 218 286 220
f 219 220 287
f 219 287 221
f 220 288 289
f 220 289 290
f 220 290 291
f 220 291 292
f 220 292 287
f 220 286 285
f 220 285 288
f 221 287 292
f 221 292 223
f 221 223 222
f 223 292 293
f 223 293 225
f 225 293 294
f 225 294 226
f 226 294 295
f 226 295 296
f 226 296 297
f 226 297 298
f 226 298 229
f 227 229 299
f 227 299 300
f 227 300 301
f 227 301 228
f 228 301 232
f 229 298 299
f 230 233 234
f 232 301 302
f 232 302 303
f 232 303 304
f 232 304 233
f 233 304 236
f 233 236 234
f 235 238 239
f 236 304 305
f 236 305 237
f 237 305 306
f 237 306 307
f 237 307 238
f 238 307 308
f 238 308 239
f 239 308 240
f 240 308 309
f 240 309 242
f 241 243 244
f 242 309 310
f 242 310 311
f 242 311 243
f 243 311 244
f 244 311 246
f 244 246 245
f 246 311 312
f 246 312 313
f 246 313 247
f 248 314 258
f 248 258 249
f 248 257 314
f 252 315 316
f 252 316 253
f 252 271 317
f 252 317 318
f 252 318 315
f 253 316 319
f 253 319 254
f 254 319 320
f 254 320 321
f 254 321 255
f 255 321 322
f 255 322 323
f 255 323 256
f 256 323 324
f 256 324 257
f 257 324 325
f 257 325 326
f 257 326 327
f 257 327 314
f 258 314 327
f 258 327 259
f 259 327 260
f 260 327 261
f 261 328 329
f 261 329 330
f 261 330 262
f 261 327 328
f 262 330 263
f 263 330 331
f 263 331 332
f 263 332 265
f 263 265 264
f 265 332 333
f 265 333 334
f 265 334 266
f 266 334 335
f 266 335 336
f 266 336 267
f 267 336 335
f 267 335 268
f 268 335 337
f 268 270 269
f 272 339 338
f 273 340 274
f 274 340 341
f 274 341 342
f 274 342 343
f 274 343 275
f 275 343 344
f 275 344 345
f 275 345 276
f 276 345 277
f 277 345 346
f 277 346 278
f 278 346 347
f 278 347 280
f 279 283 284
f 280 282 281
f 280 347 348
f 280 348 349
f 280 349 350
f 280 350 282
f 282 350 351
f 282 351 352
f 282 352 353
f 282 353 283
f 283 353 354
f 283 354 284
f 284 354 355
f 284 355 356
f 284 356 285
f 285 356 288
f 288 356 355
f 288 355 289
f 289 355 357
f 289 357 358
f 289 358 359
f 289 359 360
f 289 360 290
f 290 361 293
f 290 293 362
f 290 362 291
f 290 360 363
f 290 363 364
f 290 364 361
f 291 362 292
f 292 362 293
f 293 361 365
f 293 365 294
f 294 365 366
f 294 366 367
f 294 367 296
f 294 296 295
f 296 367 366
f 296 366 368
f 296 368 369
f 296 369 297
f 297 369 300
f 297 300 298
f 298 300 299
f 300 369 370
f 300 370 302
f 300 302 301
f 302 370 371
f 302 371 303
f 303 372 305
f 303 305 304
f 303 371 373
f 303 373 374
f 303 374 372
f 305 372 306
f 306 372 375
f 306 375 376
f 306 376 307
f 307 376 377
f 307 377 308
f 308 377 309
f 309 377 378
f 309 378 379
f 309 379 380
f 309 380 310
f 310 380 381
f 310 381 311
f 311 381 312
f 312 381 382
f 312 382 383
f 312 383 313
f 315 318 384
f 315 384 385
f 315 385 386
f 315 386 316
f 316 386 319
f 317 384 318
f 319 386 320
f 320 386 387
f 320 387 321
f 321 388 389
f 321 389 390
f 321 390 391
f 321 391 392
f 321 392 323
f 321 323 322
f 321 387 388
f 323 392 393
f 323 393 394
f 323 394 324
f 324 394 393
f 324 393 325
f 325 395 326
f 325 393 396
f 325 396 395
f 326 395 327
f 327 395 397
f 327 397 398
f 327 398 399
f 327 399 400
f 327 400 401
f 327 401 328
f 328 401 402
f 328 402 329
f 329 402 403
f 329 403 330
f 330 403 331
f 331 403 404
f 331 404 332
f 332 404 333
f 333 404 334
f 334 404 405
f 334 405 406
f 334 406 407
f 334 407 408
f 334 408 335
f 335 409 337
f 335 408 410
f 335 410 411
f 335 411 412
f 335 412 413
f 335 413 414
f 335 414 409
f 337 409 415
f 338 416 417
f 338 417 418
f 338 339 416
f 339 419 420
f 339 420 416
f 340 421 422
f 340 422 423
f 340 423 341
f 341 423 424
f 341 424 425
f 341 425 342
f 342 425 426
f 342 426 343
f 343 426 427
f 343 427 344
f 344 427 346
f 344 346 345
f 346 427 428
f 346 428 429
f 346 429 347
f 347 349 348
f 347 429 430
f 347 430 431
f 347 431 349
f 349 352 351
f 349 351 350
f 349 431 432
f 349 432 433
f 349 433 434
f 349 434 352
f 352 358 357
f 352 357 353
f 352 434 435
f 352 435 436
f 352 436 358
f 353 357 355
f 353 355 354
f 358 360 359
f 358 436 435
f 358 435 437
f 358 437 438
f 358 438 439
f 358 439 440
f 358 440 360
f 360 440 363
f 361 364 363
f 361 363 441
f 361 441 442
f 361 442 366
f 361 366 365
f 363 443 444
f 363 444 445
f 363 445 446
f 363 446 447
f 363 447 448
f 363 448 449
f 363 449 441
f 363 440 439
f 363 439 443
f 366 442 441
f 366 441 449
f 366 449 448
f 366 448 450
f 366 450 368
f 368 450 451
f 368 451 369
f 369 451 452
f 369 452 453
f 369 453 454
f 369 454 455
f 369 455 371
f 369 371 370
f 371 456 373
f 371 455 457
f 371 457 458
f 371 458 456
f 372 374 375
f 373 456 459
f 373 459 460
f 373 460 374
f 374 460 461
f 374 461 375
f 375 461 462
f 375 462 376
f 376 462 377
f 377 462 378
f 378 462 463
f 378 463 464
f 378 464 379
f 379 464 465
f 379 465 380
f 380 465 466
f 380 466 381
f 381 466 467
f 381 467 468
f 381 468 382
f 382 468 469
f 385 470 471
f 385 471 386
f 386 471 387
f 387 471 470
f 387 470 472
f 387 472 473
f 387 473 474
f 387 474 388
f 388 474 475
f 388 475 389
f 389 476 477
f 389 477 478
f 389 478 390
f 389 475 479
f 389 479 480
f 389 480 476
f 390 478 391
f 391 478 392
f 392 478 481
f 392 481 393
f 393 481 482
f 393 482 396
f 395 396 397
f 396 482 483
f 396 483 484
f 396 484 485
f 396 485 486
f 396 486 487
f 396 487 488
f 396 488 489
f 396 489 397
f 397 489 490
f 397 490 491
f 397 491 398
f 398 491 399
f 399 491 492
f 399 492 400
f 400 493 405
f 400 405 404
f 400 404 494
f 400 494 401
f 400 492 495
f 400 495 496
f 400 496 497
f 400 497 498
f 400 498 499
f 400 499 500
f 400 500 501
f 400 501 502
f 400 502 503
f 400 503 493
f 401 494 404
f 401 404 403
f 401 403 402
f 405 493 406
f 406 493 503
f 406 503 504
f 406 504 407
f 407 504 505
f 407 505 408
f 408 505 410
f 409 414 413
f 409 413 506
f 409 506 507
f 409 507 508
f 409 508 509
f 409 509 415
f 410 505 411
f 411 505 412
f 412 510 511
f 412 511 413
f 412 505 510
f 413 511 512
f 413 512 506
f 416 513 514
f 416 514 417
f 416 420 513
f 417 514 515
f 417 515 516
f 417 516 517
f 417 517 418
f 419 518 519
f 419 519 420
f 420 519 520
f 420 520 513
f 421 521 422
f 422 521 516
f 422 516 522
f 422 522 523
f 422 523 424
f 422 424 423
f 424 524 425
f 424 523 525
f 424 525 524
f 425 524 526
f 425 526 426
f 426 526 428
f 426 428 427
f 428 526 527
f 428 527 528
f 428 528 529
f 428 529 429
f 429 529 431
f 429 431 430
f 431 529 530
f 431 530 432
f 432 530 433
f 433 530 529
f 433 529 531
f 433 531 532
f 433 532 533
f 433 533 534
f 433 534 434
f 434 534 435
f 435 534 535
f 435 535 536
f 435 536 537
f 435 537 437
f 437 443 438
f 437 537 444
f 437 444 443
f 438 443 439
f 444 537 538
f 444 538 445
f 445 538 539
f 445 539 446
f 446 539 540
f 446 540 541
f 446 541 542
f 446 542 543
f 446 543 448
f 446 448 447
f 448 543 450
f 450 543 451
f 451 543 452
f 452 543 544
f 452 544 545
f 452 545 546
f 452 546 547
f 452 547 548
f 452 548 453
f 453 548 547
f 453 547 549
f 453 549 454
f 454 549 547
f 454 547 550
f 454 550 551
f 454 551 552
f 454 552 458
f 454 458 457
f 454 457 455
f 456 458 553
f 456 553 459
f 458 459 553
f 458 552 459
f 459 552 551
f 459 551 554
f 459 554 555
f 459 555 556
f 459 556 461
f 459 461 460
f 461 463 462
f 461 556 557
f 461 557 463
f 463 557 464
f 464 557 558
f 464 558 465
f 465 558 559
f 465 559 466
f 466 559 560
f 466 560 467
f 467 560 561
f 467 561 562
f 467 562 563
f 467 563 469
f 467 469 468
f 469 563 564
f 469 564 565
f 472 566 473
f 473 567 568
f 473 568 474
f 473 566 567
f 474 568 475
f 475 568 569
f 475 569 570
f 475 570 479
f 476 480 477
f 477 480 571
f 477 571 572
f 477 572 573
f 477 573 478
f 478 573 481
f 479 574 480
f 479 570 574
f 480 574 575
f 480 575 576
f 480 576 577
f 480 577 578
f 480 578 579
f 480 579 580
f 480 580 581
f 480 581 582
f 480 582 583
f 480 583 584
f 480 584 585
f 480 585 586
f 480 586 587
f 480 587 588
f 480 588 571
f 481 589 590
f 481 590 588
f 481 588 591
f 481 591 482
f 481 573 589
f 482 591 592
f 482 592 483
f 483 592 593
f 483 593 594
f 483 594 484
f 484 594 595
f 484 595 596
f 484 596 485
f 485 596 597
f 485 597 598
f 485 598 486
f 486 598 487
f 487 598 599
f 487 599 488
f 488 599 600
f 488 600 601
f 488 601 602
f 488 602 603
f 488 603 496
f 488 496 492
f 488 492 491
f 488 491 604
f 488 604 489
f 489 604 491
f 489 491 490
f 492 496 495
f 496 603 605
f 496 605 497
f 497 605 500
f 497 500 499
f 497 499 498
f 500 605 606
f 500 606 501
f 501 607 502
f 501 606 608
f 501 608 609
f 501 609 607
f 502 607 610
f 502 610 503
f 503 611 504
f 503 610 611
f 504 611 505
f 505 611 612
f 505 612 510
f 506 512 507
f 507 512 508
f 508 613 509
f 508 512 614
f 508 614 613
f 510 612 615
f 510 615 616
f 510 616 617
f 510 617 618
f 510 618 619
f 510 619 620
f 510 620 511
f 511 620 512
f 512 620 614
f 513 520 514
f 514 520 621
f 514 621 622
f 514 622 623
f 514 623 624
f 514 624 625
f 514 625 626
f 514 626 515
f 515 626 516
f 516 626 627
f 516 627 522
f 516 521 517
f 518 628 629
f 518 629 519
f 518 630 628
f 519 629 520
f 520 631 622
f 520 622 621
f 520 629 631
f 522 627 523
f 523 627 632
f 523 632 525
f 524 525 633
f 524 633 526
f 525 632 634
f 525 634 635
f 525 635 633
f 526 633 636
f 526 636 527
f 527 637 638
f 527 638 532
f 527 532 528
f 527 636 637
f 528 531 529
f 528 532 531
f 532 638 639
f 532 639 640
f 532 640 641
f 532 641 642
f 532 642 643
f 532 643 533
f 533 643 642
f 533 642 644
f 533 644 645
f 533 645 646
f 533 646 647
f 533 647 535
f 533 535 534
f 535 647 646
f 535 646 648
f 535 648 538
f 535 538 537
f 535 537 536
f 538 648 646
f 538 646 649
f 538 649 540
f 538 540 539
f 540 649 650
f 540 650 651
f 540 651 541
f 541 545 544
f 541 544 543
f 541 543 542
f 541 651 652
f 541 652 653
f 541 653 654
f 541 654 545
f 545 654 655
f 545 655 656
f 545 656 546
f 546 656 547
f 547 656 550
f 550 656 551
f 551 657 658
f 551 658 554
f 551 656 659
f 551 659 660
f 551 660 661
f 551 661 662
f 551 662 657
f 554 658 555
f 555 658 663
f 555 663 664
f 555 664 556
f 556 664 557
f 557 664 665
f 557 665 558
f 558 665 666
f 558 666 667
f 558 667 668
f 558 668 559
f 559 668 560
f 560 668 561
f 561 667 669
f 561 669 564
f 561 564 562
f 561 668 667
f 562 564 563
f 564 670 671
f 564 671 565
f 564 669 670
f 567 672 673
f 567 673 568
f 568 674 569
f 568 673 674
f 569 674 574
f 569 574 570
f 571 588 590
f 571 590 573
f 571 573 572
f 573 590 589
f 574 674 673
f 574 673 575
f 575 675 576
f 575 673 672
f 575 672 675
f 576 676 578
f 576 578 577
f 576 675 677
f 576 677 678
f 576 678 676
f 578 676 679
f 578 679 680
f 578 680 681
f 578 681 579
f 579 681 682
f 579 682 580
f 580 682 581
f 581 683 684
f 581 684 685
f 581 685 582
f 581 682 683
f 582 685 583
f 583 685 684
f 583 684 686
f 583 686 584
f 584 686 687
f 584 687 585
f 585 687 587
f 585 587 586
f 587 687 688
f 587 688 689
f 587 689 593
f 587 593 591
f 587 591 588
f 591 593 592
f 593 689 594
f 594 689 690
f 594 690 691
f 594 691 692
f 594 692 595
f 595 692 596
f 596 598 597
f 596 692 693
f 596 693 598
f 598 693 694
f 598 694 695
f 598 695 600
f 598 600 599
f 600 695 696
f 600 696 697
f 600 697 698
f 600 698 699
f 600 699 700
f 600 700 602
f 600 602 601
f 602 700 701
f 602 701 605
f 602 605 603
f 605 701 702
f 605 702 703
f 605 703 606
f 606 703 704
f 606 704 608
f 607 609 610
f 608 705 609
f 608 704 706
f 608 706 707
f 608 707 708
f 608 708 709
f 608 709 705
f 609 705 610
f 610 705 710
f 610 710 615
f 610 615 612
f 610 612 611
f 613 614 620
f 613 620 711
f 613 711 712
f 615 710 616
f 616 710 617
f 617 710 713
f 617 713 618
f 618 713 714
f 618 714 715
f 618 715 716
f 618 716 717
f 618 717 619
f 619 711 620
f 619 717 718
f 619 718 711
f 622 719 624
f 622 624 623
f 622 631 720
f 622 720 719
f 624 721 722
f 624 722 625
f 624 719 721
f 625 722 723
f 625 723 724
f 625 724 626
f 626 724 627
f 627 724 725
f 627 725 726
f 627 726 632
f 628 630 711
f 628 711 717
f 628 717 727
f 628 727 629
f 629 728 631
f 629 727 728
f 630 729 711
f 631 728 720
f 632 726 730
f 632 730 634
f 633 731 636
f 633 635 732
f 633 732 733
f 633 733 734
f 633 734 735
f 633 735 731
f 634 730 635
f 635 730 736
f 635 736 830
f 635 830 737
f 635 737 738
f 635 738 733
f 635 733 732
f 636 731 638
f 636 638 637
f 638 731 640
f 638 640 639
f 640 739 641
f 640 731 735
f 640 735 740
f 640 740 741
f 640 741 742
f 640 742 739
f 641 739 642
f 642 743 644
f 642 739 744
f 642 744 745
f 642 745 746
f 642 746 747
f 642 747 743
f 644 743 645
f 645 743 646
f 646 748 749
f 646 749 649
f 646 743 750
f 646 750 751
f 646 751 748
f 649 749 752
f 649 752 650
f 650 752 753
f 650 753 651
f 651 753 652
f 652 753 754
f 652 754 755
f 652 755 756
f 652 756 757
f 652 757 653
f 653 757 654
f 654 757 655
f 655 757 758
f 655 758 656
f 656 758 659
f 657 759 760
f 657 760 663
f 657 663 658
f 657 662 761
f 657 761 759
f 659 758 660
f 660 762 661
f 660 758 763
f 660 763 764
f 660 764 765
f 660 765 766
f 660 766 762
f 661 762 767
f 661 767 662
f 662 766 768
f 662 768 769
f 662 769 761
f 662 767 766
f 663 760 770
f 663 770 771
f 663 771 664
f 664 771 665
f 665 771 666
f 666 771 770
f 666 770 772
f 666 772 773
f 666 773 774
f 666 774 667
f 667 774 670
f 667 670 669
f 670 774 775
f 670 775 776
f 670 776 671
f 672 677 675
f 676 777 778
f 676 778 679
f 676 678 777
f 679 778 680
f 680 779 780
f 680 780 781
f 680 781 681
f 680 778 782
f 680 782 783
f 680 783 784
f 680 784 785
f 680 785 786
f 680 786 779
f 681 781 682
f 682 781 780
f 682 780 683
f 683 780 787
f 683 787 684
f 684 787 788
f 684 788 789
f 684 789 790
f 684 790 687
f 684 687 686
f 687 791 690
f 687 690 688
f 687 790 792
f 687 792 791
f 688 690 689
f 690 793 794
f 690 794 795
f 690 795 796
f 690 796 797
f 690 797 692
f 690 692 691
f 690 791 798
f 690 798 799
f 690 799 793
f 692 797 800
f 692 800 694
f 692 694 693
f 694 800 696
f 694 696 695
f 696 800 797
f 696 797 801
f 696 801 802
f 696 802 803
f 696 803 804
f 696 804 697
f 697 804 805
f 697 805 806
f 697 806 807
f 697 807 698
f 698 807 699
f 699 807 806
f 699 806 808
f 699 808 809
f 699 809 700
f 700 809 701
f 701 810 702
f 701 809 810
f 702 810 703
f 703 810 811
f 703 811 812
f 703 812 813
f 703 813 706
f 703 706 704
f 705 709 710
f 706 813 707
f 707 814 708
f 707 813 812
f 707 812 814
f 708 814 709
f 709 814 815
f 709 815 816
f 709 816 710
f 710 816 817
f 710 817 714
f 710 714 713
f 711 729 712
f 711 718 717
f 714 818 715
f 714 817 818
f 715 818 720
f 715 720 819
f 715 819 728
f 715 728 716
f 716 728 717
f 717 728 727
f 719 720 817
f 719 817 820
f 719 820 816
f 719 816 821
f 719 821 822
f 719 822 721
f 720 728 819
f 720 818 817
f 721 823 722
f 721 822 824
f 721 824 825
f 721 825 812
f 721 812 823
f 722 823 826
f 722 826 827
f 722 827 723
f 723 827 730
f 723 730 726
f 723 726 725
f 723 725 724
f 730 827 828
f 730 828 829
f 730 829 830
f 730 830 736
f 733 738 734
f 734 741 831
f 734 831 735
f 734 738 832
f 734 832 833
f 734 833 834
f 734 834 835
f 734 835 741
f 735 831 740
f 737 830 836
f 737 836 738
f 738 836 837
f 738 837 832
f 739 742 744
f 740 831 741
f 741 835 742
f 742 835 744
f 743 747 838
f 743 838 839
f 743 839 840
f 743 840 750
f 744 835 841
f 744 841 745
f 745 841 746
f 746 841 842
f 746 842 843
f 746 843 747
f 747 843 838
f 748 751 844
f 748 844 749
f 749 754 752
f 749 844 754
f 750 840 751
f 751 845 844
f 751 840 839
f 751 839 846
f 751 846 847
f 751 847 845
f 752 754 753
f 754 844 845
f 754 845 755
f 755 845 756
f 756 845 846
f 756 846 848
f 756 848 849
f 756 849 850
f 756 850 851
f 756 851 852
f 756 852 853
f 756 853 757
f 757 853 758
f 758 853 852
f 758 852 763
f 759 770 760
f 759 761 770
f 761 769 854
f 761 854 770
f 762 766 767
f 763 852 855
f 763 855 764
f 764 856 765
f 764 855 851
f 764 851 856
f 765 856 857
f 765 857 766
f 766 857 768
f 768 857 858
f 768 858 769
f 769 859 854
f 769 858 860
f 769 860 861
f 769 861 859
f 770 854 859
f 770 859 862
f 770 862 863
f 770 863 864
f 770 864 772
f 772 864 773
f 773 864 865
f 773 865 775
f 773 775 774
f 775 865 866
f 775 866 867
f 775 867 868
f 775 868 869
f 775 869 776
f 778 870 782
f 779 871 780
f 779 786 871
f 780 871 872
f 780 872 873
f 780 873 787
f 782 874 783
f 782 870 874
f 784 875 785
f 785 875 876
f 785 876 877
f 785 877 878
f 785 878 879
f 785 879 786
f 786 879 880
f 786 880 881
f 786 881 882
f 786 882 883
f 786 883 884
f 786 884 885
f 786 885 873
f 786 873 872
f 786 872 871
f 787 873 886
f 787 886 788
f 788 886 789
f 789 887 798
f 789 798 792
f 789 792 888
f 789 888 790
f 789 886 889
f 789 889 890
f 789 890 891
f 789 891 799
f 789 799 887
f 790 888 792
f 791 792 798
f 793 892 893
f 793 893 794
f 793 799 892
f 794 894 795
f 794 893 895
f 794 895 894
f 795 804 796
f 795 894 896
f 795 896 897
f 795 897 804
f 796 804 898
f 796 898 797
f 797 898 801
f 798 887 799
f 799 891 892
f 801 898 803
f 801 803 802
f 803 898 804
f 804 897 899
f 804 899 805
f 805 899 806
f 806 899 900
f 806 900 901
f 806 901 902
f 806 902 903
f 806 903 808
f 808 903 904
f 808 904 809
f 809 904 810
f 810 904 905
f 810 905 906
f 810 906 811
f 811 906 812
f 812 906 907
f 812 907 908
f 812 908 909
f 812 909 823
f 812 825 910
f 812 910 814
f 814 910 911
f 814 911 912
f 814 912 815
f 815 912 816
f 816 912 821
f 816 820 817
f 821 824 822
f 821 912 824
f 823 909 913
f 823 913 826
f 824 912 914
f 824 914 825
f 825 914 910
f 826 913 908
f 826 908 827
f 827 908 907
f 827 907 915
f 827 915 916
f 827 916 829
f 827 829 828
f 829 916 917
f 829 917 918
f 829 918 830
f 830 918 836
f 832 837 836
f 832 836 918
f 832 918 902
f 832 902 919
f 832 919 833
f 833 920 921
f 833 921 835
f 833 835 834
f 833 919 902
f 833 902 922
f 833 922 923
f 833 923 920
f 835 921 924
f 835 924 841
f 838 843 839
f 839 843 925
f 839 925 846
f 841 924 926
f 841 926 843
f 841 843 842
f 843 926 927
f 843 927 928
f 843 928 929
f 843 929 930
f 843 930 931
f 843 931 932
f 843 932 925
f 845 847 846
f 846 925 932
f 846 932 933
f 846 933 934
f 846 934 935
f 846 935 848
f 848 935 936
f 848 936 849
f 849 936 850
f 850 936 937
f 850 937 938
f 850 938 851
f 851 937 939
f 851 939 940
f 851 940 884
f 851 884 941
f 851 941 942
f 851 942 856
f 851 855 852
f 851 938 937
f 856 942 857
f 857 942 941
f 857 941 943
f 857 943 858
f 858 943 944
f 858 944 945
f 858 945 860
f 859 861 946
f 859 946 862
f 860 945 947
f 860 947 861
f 861 947 948
f 861 948 949
f 861 949 862
f 861 862 946
f 862 864 863
f 862 949 864
f 864 949 866
f 864 866 865
f 866 949 950
f 866 950 951
f 866 951 952
f 866 952 867
f 867 952 953
f 867 953 954
f 867 954 868
f 873 885 955
f 873 955 956
f 873 956 886
f 876 957 877
f 877 957 958
f 877 958 878
f 878 958 879
f 879 958 880
f 880 959 960
f 880 960 948
f 880 948 961
f 880 961 881
f 880 958 962
f 880 962 963
f 880 963 959
f 881 964 882
f 881 961 965
f 881 965 964
f 882 964 883
f 883 964 966
f 883 966 884
f 884 940 939
f 884 939 967
f 884 967 968
f 884 968 969
f 884 969 885
f 884 966 943
f 884 943 941
f 885 969 970
f 885 970 955
f 886 956 890
f 886 890 889
f 890 956 971
f 890 971 972
f 890 972 891
f 891 972 973
f 891 973 1007
f 891 1007 974
f 891 974 893
f 891 893 892
f 893 974 895
f 894 895 896
f 895 974 975
f 895 975 896
f 896 975 976
f 896 976 897
f 897 976 977
f 897 977 901
f 897 901 900
f 897 900 899
f 901 977 978
f 901 978 902
f 902 918 979
f 902 979 916
f 902 916 980
f 902 980 981
f 902 981 903
f 902 978 923
f 902 923 922
f 903 981 904
f 904 981 980
f 904 980 905
f 905 980 982
f 905 982 916
f 905 916 983
f 905 983 906
f 906 983 907
f 907 983 915
f 908 913 909
f 910 914 911
f 911 914 912
f 915 983 916
f 916 982 980
f 916 979 917
f 917 979 918
f 920 923 984
f 920 984 928
f 920 928 927
f 920 927 924
f 920 924 921
f 923 978 977
f 923 977 984
f 924 927 926
f 928 984 930
f 928 930 929
f 930 984 985
f 930 985 931
f 931 985 932
f 932 985 986
f 932 986 933
f 933 986 987
f 933 987 988
f 933 988 989
f 933 989 934
f 934 990 935
f 934 989 990
f 935 990 991
f 935 991 936
f 936 991 992
f 936 992 937
f 937 992 993
f 937 993 939
f 939 994 972
f 939 972 971
f 939 971 995
f 939 995 967
f 939 993 994
f 943 966 944
f 944 966 945
f 945 966 964
f 945 964 965
f 945 965 996
f 945 996 947
f 947 996 965
f 947 965 961
f 947 961 948
f 948 960 951
f 948 951 949
f 949 951 950
f 951 997 953
f 951 953 998
f 951 998 952
f 951 960 959
f 951 959 999
f 951 999 1000
f 951 1000 997
f 952 998 953
f 953 997 954
f 954 997 1001
f 955 970 969
f 955 969 956
f 956 969 968
f 956 968 1002
f 956 1002 971
f 957 1003 962
f 957 962 958
f 959 1004 999
f 959 963 1005
f 959 1005 1004
f 962 1003 963
f 963 1003 1005
f 967 995 1002
f 967 1002 968
f 971 1002 995
f 972 1006 1007
f 972 1007 973
f 972 994 989
f 972 989 1006
f 974 1007 975
f 975 1007 1008
f 975 1008 976
f 976 1008 985
f 976 985 1009
f 976 1009 984
f 976 984 977
f 984 1009 985
f 985 1008 1007
f 985 1007 986
f 986 1007 1010
f 986 1010 987
f 987 1010 1011
f 987 1011 988
f 988 1011 1006
f 988 1006 989
f 989 994 990
f 990 994 991
f 991 994 993
f 991 993 992
f 997 1000 1001
f 999 1004 1000
f 1006 1011 1007
f 1007 1011 1010

