# https://github.com/mikedh/trimesh
v -0.00769395 -0.00722756 0.00492339
v -0.00962290 -0.00430008 0.00492339
v -0.00978054 -0.00722756 0.00492339
v -0.00888662 -0.00722756 0.00206638
v -0.00906678 -0.00717197 -0.00141753
v -0.01072594 -0.00430037 -0.00141628
v -0.01137674 -0.00430008 0.00492339
v -0.01061380 -0.00430008 0.00206638
v -0.00994370 -0.00699173 0.00492339
v -0.00986051 -0.00722756 0.00477070
v -0.01075627 -0.00722756 0.00206638
v -0.01088450 -0.00717197 -0.00141753
v -0.01072594 -0.00430123 -0.00141753
v -0.01073100 -0.00430037 -0.00141753
v -0.01134640 -0.00437631 0.00492339
v -0.01144935 -0.00430008 0.00476450
v -0.01222608 -0.00430008 0.00206638
v -0.01019786 -0.00662379 0.00492339
v -0.00993726 -0.00710148 0.00479056
v -0.01026174 -0.00672465 0.00466705
v -0.00997127 -0.00719289 0.00459381
v -0.00995611 -0.00722756 0.00457457
v -0.01076271 -0.00721897 0.00206638
v -0.01081832 -0.00717197 0.00192362
v -0.01085233 -0.00717197 0.00167721
v -0.01092449 -0.00717197 0.00109749
v -0.01094839 -0.00717197 0.00090322
v -0.01095206 -0.00717197 0.00086659
v -0.01097137 -0.00717197 0.00064501
v -0.01097780 -0.00717197 0.00038743
v -0.01097780 -0.00717197 -0.00038657
v -0.01097137 -0.00717197 -0.00064415
v -0.01094839 -0.00717197 -0.00090236
v -0.01072594 -0.00722756 0.00219238
v -0.01095160 -0.00707540 -0.00141753
v -0.01096861 -0.00714360 -0.00090236
v -0.01230927 -0.00430037 -0.00141753
v -0.01131331 -0.00445683 0.00492339
v -0.01135146 -0.00452303 0.00478188
v -0.01150129 -0.00430008 0.00464843
v -0.01151783 -0.00432931 0.00458636
v -0.01221183 -0.00430008 0.00214831
v -0.01233500 -0.00430037 -0.00117980
v -0.01235890 -0.00430037 -0.00095387
v -0.01236396 -0.00430037 -0.00090236
v -0.01237821 -0.00430037 -0.00071305
v -0.01238326 -0.00430037 -0.00064415
v -0.01238924 -0.00430037 -0.00038657
v -0.01238924 -0.00430037 0.00038743
v -0.01238464 -0.00430037 0.00058853
v -0.01238326 -0.00430037 0.00064501
v -0.01236396 -0.00430037 0.00090322
v -0.01233500 -0.00430037 0.00118066
v -0.01228629 -0.00430037 0.00163314
v -0.01228123 -0.00430037 0.00167721
v -0.01224998 -0.00430037 0.00192486
v -0.01222608 -0.00430037 0.00206638
v -0.01028197 -0.00650114 0.00492339
v -0.01031460 -0.00657536 0.00476015
v -0.01049154 -0.00642090 0.00460436
v -0.01043088 -0.00656905 0.00451622
v -0.01029483 -0.00677222 0.00451374
v -0.01001402 -0.00722756 0.00443243
v -0.01097826 -0.00689458 0.00206638
v -0.01099159 -0.00691522 0.00193417
v -0.01080499 -0.00717197 0.00200803
v -0.01083624 -0.00706766 0.00219238
v -0.01096539 -0.00687452 0.00219238
v -0.01100951 -0.00694330 0.00167721
v -0.01090702 -0.00709345 0.00167721
v -0.01085049 -0.00711810 0.00195528
v -0.01096861 -0.00714360 0.00090322
v -0.01106834 -0.00703070 0.00064501
v -0.01107156 -0.00703528 0.00038743
v -0.01107156 -0.00703528 -0.00038657
v -0.01106834 -0.00703070 -0.00064415
v -0.01080407 -0.00702096 0.00245058
v -0.01059541 -0.00722756 0.00271127
v -0.01060185 -0.00711810 0.00298810
v -0.01096034 -0.00706251 -0.00141753
v -0.01104169 -0.00699144 -0.00116056
v -0.01103020 -0.00697453 -0.00134553
v -0.01105731 -0.00701436 -0.00090236
v -0.01229778 -0.00433734 -0.00141753
v -0.01126919 -0.00461473 0.00487498
v -0.01128527 -0.00452303 0.00492339
v -0.01130871 -0.00470929 0.00470243
v -0.01123931 -0.00478609 0.00478188
v -0.01153897 -0.00430008 0.00455719
v -0.01127241 -0.00488094 0.00461988
v -0.01156793 -0.00430008 0.00447650
v -0.01154955 -0.00441012 0.00441381
v -0.01147555 -0.00450325 0.00450567
v -0.01220310 -0.00430008 0.00219610
v -0.01219758 -0.00438290 0.00206638
v -0.01230743 -0.00436800 -0.00123753
v -0.01231662 -0.00439608 -0.00106622
v -0.01232535 -0.00442101 -0.00090236
v -0.01233500 -0.00444881 -0.00064415
v -0.01233776 -0.00445655 -0.00038657
v -0.01233776 -0.00445655 0.00038743
v -0.01233500 -0.00444881 0.00064501
v -0.01232535 -0.00442101 0.00090322
v -0.01231662 -0.00439608 0.00106646
v -0.01230743 -0.00436800 0.00123839
v -0.01220678 -0.00451443 0.00167721
v -0.01217506 -0.00451443 0.00193417
v -0.01038675 -0.00632834 0.00492339
v -0.01057703 -0.00632920 0.00451622
v -0.01052555 -0.00647793 0.00443243
v -0.01045569 -0.00632920 0.00478498
v -0.01053934 -0.00624897 0.00470801
v -0.01102606 -0.00542282 0.00464843
v -0.01047500 -0.00665817 0.00425553
v -0.01023784 -0.00694788 0.00435484
v -0.01008158 -0.00722756 0.00425864
v -0.01104628 -0.00674557 0.00219238
v -0.01105869 -0.00676535 0.00206638
v -0.01107110 -0.00678626 0.00193417
v -0.01082521 -0.00679801 0.00296637
v -0.01079350 -0.00674930 0.00322458
v -0.01108811 -0.00681435 0.00167721
v -0.01101963 -0.00695877 0.00151831
v -0.01104169 -0.00699144 0.00116080
v -0.01105731 -0.00701436 0.00090322
v -0.01118876 -0.00683555 0.00064501
v -0.01119473 -0.00683555 0.00038743
v -0.01119473 -0.00683555 -0.00038657
v -0.01118876 -0.00683555 -0.00064415
v -0.01073927 -0.00692696 0.00296637
v -0.01050165 -0.00722756 0.00308306
v -0.01070572 -0.00687825 0.00322458
v -0.01108443 -0.00687109 -0.00141753
v -0.01116716 -0.00683555 -0.00090236
v -0.01223481 -0.00451443 -0.00141753
v -0.01113958 -0.00503023 0.00477194
v -0.01101963 -0.00514514 0.00492339
v -0.01130412 -0.00495544 0.00444795
v -0.01124023 -0.00503711 0.00452615
v -0.01113590 -0.00528842 0.00451374
v -0.01104950 -0.00526292 0.00474960
v -0.01176740 -0.00430008 0.00389616
v -0.01178072 -0.00433676 0.00382106
v -0.01180968 -0.00441614 0.00364913
v -0.01174120 -0.00450727 0.00373664
v -0.01164836 -0.00451443 0.00399795
v -0.01151278 -0.00458206 0.00430829
v -0.01126735 -0.00512738 0.00434491
v -0.01208544 -0.00430008 0.00274665
v -0.01214703 -0.00452561 0.00206638
v -0.01211531 -0.00453821 0.00221472
v -0.01206843 -0.00442015 0.00264113
v -0.01205005 -0.00436886 0.00281306
v -0.01227847 -0.00454996 -0.00090236
v -0.01228904 -0.00457747 -0.00064415
v -0.01229180 -0.00458550 -0.00038657
v -0.01229180 -0.00458550 0.00038743
v -0.01228904 -0.00457747 0.00064501
v -0.01227847 -0.00454996 0.00090322
v -0.01218977 -0.00477262 0.00090322
v -0.01213232 -0.00477262 0.00141900
v -0.01209785 -0.00478867 0.00166480
v -0.01209096 -0.00472734 0.00193417
v -0.01207303 -0.00468551 0.00214272
v -0.01046167 -0.00619739 0.00492339
v -0.01079258 -0.00598190 0.00445540
v -0.01069009 -0.00630542 0.00424747
v -0.01075903 -0.00643781 0.00385271
v -0.01079028 -0.00649312 0.00368078
v -0.01081832 -0.00657880 0.00346913
v -0.01077282 -0.00671806 0.00337416
v -0.01050211 -0.00669944 0.00411402
v -0.01080683 -0.00575007 0.00472663
v -0.01048925 -0.00614839 0.00492339
v -0.01079994 -0.00558702 0.00492339
v -0.01084130 -0.00551194 0.00492339
v -0.01095160 -0.00529330 0.00492339
v -0.01122966 -0.00528499 0.00425802
v -0.01125954 -0.00536809 0.00406561
v -0.01128941 -0.00543457 0.00389368
v -0.01105134 -0.00547010 0.00451374
v -0.01101181 -0.00565465 0.00435360
v -0.01098102 -0.00559934 0.00451374
v -0.01044696 -0.00683412 0.00401595
v -0.01056186 -0.00683412 0.00371678
v -0.01038354 -0.00722756 0.00347223
v -0.01114096 -0.00657765 0.00219238
v -0.01116532 -0.00657765 0.00206638
v -0.01119014 -0.00657765 0.00193417
v -0.01102836 -0.00671548 0.00234383
v -0.01122920 -0.00656246 0.00170080
v -0.01089369 -0.00657765 0.00322458
v -0.01098515 -0.00663869 0.00270879
v -0.01100813 -0.00667938 0.00251638
v -0.01123196 -0.00661748 0.00141900
v -0.01124713 -0.00664470 0.00116080
v -0.01126183 -0.00667193 0.00090322
v -0.01116716 -0.00683555 0.00090322
v -0.01127287 -0.00669113 0.00064501
v -0.01127562 -0.00669686 0.00038743
v -0.01127562 -0.00669686 -0.00038657
v -0.01127287 -0.00669113 -0.00064415
v -0.01046351 -0.00722756 0.00322458
v -0.01048741 -0.00719375 0.00322458
v -0.01050533 -0.00722011 0.00308865
v -0.01113636 -0.00683555 -0.00116056
v -0.01109270 -0.00685704 -0.00141753
v -0.01126183 -0.00667193 -0.00090236
v -0.01124713 -0.00664470 -0.00116056
v -0.01213232 -0.00477262 -0.00141753
v -0.01180462 -0.00430008 0.00378443
v -0.01190436 -0.00430008 0.00347968
v -0.01183312 -0.00450727 0.00346664
v -0.01180278 -0.00465714 0.00337044
v -0.01161159 -0.00479268 0.00375899
v -0.01133583 -0.00503711 0.00425802
v -0.01149255 -0.00528842 0.00348837
v -0.01203810 -0.00430008 0.00296637
v -0.01205327 -0.00464023 0.00231527
v -0.01195859 -0.00451443 0.00296637
v -0.01189838 -0.00451443 0.00322458
v -0.01203305 -0.00431585 0.00296637
v -0.01218977 -0.00477262 -0.00090236
v -0.01220953 -0.00477262 -0.00064415
v -0.01221551 -0.00477262 -0.00038657
v -0.01221551 -0.00477262 0.00038743
v -0.01220953 -0.00477262 0.00064501
v -0.01180416 -0.00568961 0.00083742
v -0.01184829 -0.00556839 0.00091501
v -0.01194067 -0.00528842 0.00116080
v -0.01204821 -0.00488524 0.00174300
v -0.01180233 -0.00543056 0.00184604
v -0.01184415 -0.00530533 0.00193293
v -0.01179038 -0.00540276 0.00201797
v -0.01177291 -0.00536121 0.00219238
v -0.01168834 -0.00528842 0.00270879
v -0.01184645 -0.00478408 0.00296513
v -0.01178578 -0.00539101 0.00206638
v -0.01096080 -0.00631316 0.00348589
v -0.01104031 -0.00622232 0.00340209
v -0.01066849 -0.00681693 0.00346913
v -0.01099481 -0.00639740 0.00322458
v -0.01136019 -0.00556725 0.00350016
v -0.01127654 -0.00566668 0.00359885
v -0.01109454 -0.00555979 0.00426298
v -0.01130779 -0.00572371 0.00342692
v -0.01142591 -0.00606156 0.00219238
v -0.01153208 -0.00592029 0.00206638
v -0.01153530 -0.00592573 0.00203721
v -0.01105685 -0.00650974 0.00270879
v -0.01109040 -0.00633694 0.00297196
v -0.01148796 -0.00584005 0.00245058
v -0.01127149 -0.00643093 0.00193417
v -0.01128068 -0.00644784 0.00180197
v -0.01130320 -0.00648882 0.00141900
v -0.01101503 -0.00643408 0.00306134
v -0.01096309 -0.00656533 0.00297196
v -0.01133353 -0.00654298 0.00090322
v -0.01154035 -0.00619309 0.00078529
v -0.01162032 -0.00606156 0.00064501
v -0.01154725 -0.00620541 0.00038743
v -0.01154725 -0.00620541 -0.00038657
v -0.01162032 -0.00606156 -0.00064415
v -0.01154035 -0.00619309 -0.00078443
v -0.01123196 -0.00661777 -0.00141753
v -0.01133353 -0.00654298 -0.00090236
v -0.01158999 -0.00602459 -0.00116056
v -0.01182668 -0.00548787 -0.00141753
v -0.01194067 -0.00528842 -0.00116056
v -0.01191631 -0.00430008 0.00343809
v -0.01152059 -0.00537410 0.00327734
v -0.01155736 -0.00520188 0.00340644
v -0.01182117 -0.00470012 0.00322458
v -0.01202707 -0.00430008 0.00301354
v -0.01197927 -0.00430008 0.00321092
v -0.01184829 -0.00556839 -0.00091477
v -0.01180416 -0.00568961 -0.00083656
v -0.01198938 -0.00528842 -0.00064415
v -0.01210796 -0.00502479 -0.00038657
v -0.01210796 -0.00502479 0.00038743
v -0.01198938 -0.00528842 0.00064501
v -0.01159275 -0.00607789 0.00088397
v -0.01174488 -0.00578646 0.00091501
v -0.01170765 -0.00580394 0.00116080
v -0.01164836 -0.00580394 0.00167721
v -0.01179451 -0.00566955 0.00100935
v -0.01187908 -0.00554633 0.00064501
v -0.01181060 -0.00570250 0.00064501
v -0.01174442 -0.00583117 0.00064501
v -0.01181244 -0.00545348 0.00167721
v -0.01174809 -0.00552827 0.00193293
v -0.01175683 -0.00558243 0.00167721
v -0.01169294 -0.00554633 0.00219238
v -0.01154127 -0.00542282 0.00310541
v -0.01178670 -0.00487779 0.00305016
v -0.01126000 -0.00589478 0.00327113
v -0.01132664 -0.00580681 0.00320099
v -0.01128206 -0.00593433 0.00309920
v -0.01147003 -0.00552369 0.00320472
v -0.01151783 -0.00589478 0.00219238
v -0.01158769 -0.00576612 0.00219238
v -0.01160194 -0.00582543 0.00194410
v -0.01154771 -0.00594837 0.00186528
v -0.01159505 -0.00579621 0.00206638
v -0.01129768 -0.00596327 0.00296637
v -0.01146314 -0.00578159 0.00269079
v -0.01154173 -0.00568072 0.00259272
v -0.01155828 -0.00571110 0.00245058
v -0.01138547 -0.00580394 0.00296637
v -0.01155966 -0.00596986 0.00167721
v -0.01158999 -0.00602459 0.00116080
v -0.01142683 -0.00631975 0.00116080
v -0.01162630 -0.00606156 0.00038743
v -0.01162630 -0.00606156 -0.00038657
v -0.01174442 -0.00583117 -0.00064415
v -0.01159275 -0.00607789 -0.00088374
v -0.01150358 -0.00612632 -0.00141753
v -0.01170765 -0.00580394 -0.00116056
v -0.01167823 -0.00580394 -0.00141753
v -0.01157528 -0.00599622 -0.00141753
v -0.01174488 -0.00578646 -0.00091477
v -0.01177107 -0.00561625 -0.00141753
v -0.01178578 -0.00564977 -0.00116056
v -0.01179451 -0.00566955 -0.00100849
v -0.01181060 -0.00570250 -0.00064415
v -0.01187908 -0.00554633 -0.00064415
v -0.01188459 -0.00554633 -0.00038657
v -0.01188459 -0.00554633 0.00038743
v -0.01181336 -0.00570852 0.00038743
v -0.01174717 -0.00583690 0.00038743
v -0.01152197 -0.00563831 0.00276465
v -0.01149807 -0.00558702 0.00296637
v -0.01174717 -0.00583690 -0.00038657
v -0.01181336 -0.00570852 -0.00038657
f 1 2 7
f 1 7 15
f 1 15 38
f 1 38 86
f 1 86 137
f 1 137 177
f 1 177 176
f 1 176 175
f 1 175 174
f 1 174 165
f 1 165 108
f 1 108 58
f 1 58 18
f 1 18 9
f 1 9 3
f 1 3 10
f 1 10 22
f 1 22 63
f 1 63 116
f 1 116 186
f 1 186 203
f 1 203 131
f 1 131 78
f 1 78 34
f 1 34 11
f 1 11 4
f 1 4 5
f 1 5 6
f 1 6 2
f 2 6 8
f 2 8 17
f 2 17 42
f 2 42 94
f 2 94 149
f 2 149 218
f 2 218 274
f 2 274 275
f 2 275 270
f 2 270 212
f 2 212 211
f 2 211 142
f 2 142 91
f 2 91 89
f 2 89 40
f 2 40 16
f 2 16 7
f 3 9 10
f 4 11 12
f 4 12 5
f 5 12 35
f 5 35 80
f 5 80 133
f 5 133 207
f 5 207 265
f 5 265 317
f 5 317 320
f 5 320 319
f 5 319 322
f 5 322 268
f 5 268 210
f 5 210 135
f 5 135 84
f 5 84 37
f 5 37 14
f 5 14 13
f 5 13 6
f 6 13 14
f 6 14 8
f 7 16 15
f 8 14 37
f 8 37 17
f 9 18 19
f 9 19 10
f 10 20 21
f 10 21 22
f 10 19 20
f 11 23 24
f 11 24 25
f 11 25 26
f 11 26 27
f 11 27 28
f 11 28 29
f 11 29 30
f 11 30 31
f 11 31 32
f 11 32 33
f 11 33 12
f 11 34 23
f 12 33 36
f 12 36 35
f 15 16 39
f 15 39 38
f 16 40 41
f 16 41 39
f 17 37 43
f 17 43 44
f 17 44 45
f 17 45 46
f 17 46 47
f 17 47 48
f 17 48 49
f 17 49 50
f 17 50 51
f 17 51 52
f 17 52 53
f 17 53 54
f 17 54 55
f 17 55 56
f 17 56 57
f 17 57 42
f 18 58 20
f 18 20 19
f 20 58 59
f 20 59 60
f 20 60 61
f 20 61 62
f 20 62 22
f 20 22 21
f 22 62 63
f 23 64 65
f 23 65 66
f 23 66 24
f 23 34 67
f 23 67 68
f 23 68 64
f 24 69 70
f 24 70 25
f 24 66 71
f 24 71 69
f 25 70 72
f 25 72 26
f 26 72 27
f 27 72 28
f 28 72 29
f 29 72 73
f 29 73 30
f 30 73 74
f 30 74 75
f 30 75 31
f 31 75 76
f 31 76 32
f 32 76 36
f 32 36 33
f 34 77 67
f 34 78 79
f 34 79 77
f 35 36 81
f 35 81 82
f 35 82 80
f 36 83 81
f 36 76 83
f 37 84 43
f 38 85 86
f 38 39 85
f 39 41 87
f 39 87 88
f 39 88 85
f 40 89 41
f 41 90 87
f 41 89 91
f 41 91 92
f 41 92 93
f 41 93 90
f 42 57 95
f 42 95 94
f 43 84 96
f 43 96 44
f 44 97 98
f 44 98 45
f 44 96 97
f 45 98 46
f 46 98 47
f 47 98 99
f 47 99 48
f 48 99 100
f 48 100 101
f 48 101 49
f 49 101 102
f 49 102 50
f 50 102 51
f 51 102 103
f 51 103 52
f 52 103 104
f 52 104 53
f 53 104 105
f 53 105 54
f 54 106 55
f 54 105 106
f 55 106 107
f 55 107 56
f 56 107 57
f 57 107 95
f 58 108 60
f 58 60 59
f 60 109 110
f 60 110 61
f 60 108 111
f 60 111 112
f 60 112 113
f 60 113 109
f 61 110 114
f 61 114 62
f 62 114 115
f 62 115 63
f 63 115 116
f 64 68 117
f 64 117 65
f 65 71 66
f 65 117 118
f 65 118 119
f 65 119 69
f 65 69 71
f 67 77 68
f 68 77 120
f 68 120 121
f 68 121 117
f 69 119 122
f 69 122 123
f 69 123 70
f 70 123 124
f 70 124 72
f 72 125 73
f 72 124 125
f 73 126 74
f 73 125 126
f 74 127 128
f 74 128 75
f 74 126 127
f 75 128 129
f 75 129 76
f 76 129 83
f 77 79 130
f 77 130 120
f 78 131 79
f 79 131 132
f 79 132 130
f 80 82 133
f 81 83 134
f 81 134 82
f 82 134 133
f 83 129 134
f 84 135 96
f 85 88 136
f 85 136 137
f 85 137 86
f 87 136 88
f 87 90 136
f 90 93 92
f 90 92 138
f 90 138 139
f 90 139 140
f 90 140 113
f 90 113 141
f 90 141 136
f 91 142 143
f 91 143 92
f 92 143 144
f 92 144 145
f 92 145 146
f 92 146 147
f 92 147 148
f 92 148 138
f 94 95 150
f 94 150 151
f 94 151 152
f 94 152 153
f 94 153 149
f 95 107 150
f 96 135 97
f 97 154 98
f 97 135 154
f 98 154 155
f 98 155 99
f 99 155 156
f 99 156 100
f 100 156 157
f 100 157 101
f 101 157 102
f 102 158 103
f 102 157 158
f 103 159 104
f 103 158 159
f 104 159 106
f 104 106 105
f 106 159 160
f 106 160 161
f 106 161 162
f 106 162 163
f 106 163 107
f 107 163 164
f 107 164 150
f 108 165 111
f 109 113 166
f 109 166 110
f 110 166 167
f 110 167 168
f 110 168 169
f 110 169 170
f 110 170 171
f 110 171 172
f 110 172 114
f 111 165 112
f 112 173 113
f 112 165 174
f 112 174 173
f 113 173 175
f 113 175 176
f 113 176 177
f 113 177 137
f 113 137 141
f 113 140 178
f 113 178 179
f 113 179 180
f 113 180 181
f 113 181 182
f 113 182 183
f 113 183 166
f 114 172 115
f 115 172 184
f 115 184 116
f 116 184 185
f 116 185 186
f 117 187 188
f 117 188 189
f 117 189 118
f 117 121 190
f 117 190 187
f 118 189 119
f 119 189 191
f 119 191 122
f 120 130 121
f 121 130 132
f 121 132 171
f 121 171 192
f 121 192 193
f 121 193 194
f 121 194 190
f 122 191 195
f 122 195 196
f 122 196 197
f 122 197 198
f 122 198 123
f 123 198 124
f 124 198 125
f 125 198 126
f 126 198 199
f 126 199 200
f 126 200 127
f 127 200 201
f 127 201 128
f 128 201 129
f 129 201 202
f 129 202 134
f 131 203 204
f 131 204 205
f 131 205 132
f 132 204 171
f 132 205 204
f 133 134 206
f 133 206 207
f 134 208 209
f 134 209 206
f 134 202 208
f 135 210 154
f 136 141 137
f 138 148 139
f 139 148 140
f 140 148 178
f 142 211 143
f 143 211 212
f 143 212 144
f 144 212 213
f 144 213 214
f 144 214 145
f 145 215 216
f 145 216 146
f 145 214 215
f 146 216 147
f 147 216 148
f 148 216 217
f 148 217 178
f 149 153 218
f 150 164 151
f 151 164 219
f 151 219 152
f 152 219 220
f 152 220 153
f 153 220 221
f 153 221 222
f 153 222 218
f 154 210 223
f 154 223 155
f 155 224 156
f 155 223 224
f 156 225 226
f 156 226 157
f 156 224 225
f 157 226 227
f 157 227 158
f 158 227 160
f 158 160 159
f 160 227 228
f 160 228 229
f 160 229 230
f 160 230 231
f 160 231 161
f 161 231 162
f 162 231 163
f 163 231 232
f 163 232 233
f 163 233 234
f 163 234 164
f 164 235 236
f 164 236 237
f 164 237 219
f 164 234 238
f 164 238 235
f 166 183 182
f 166 182 167
f 167 182 239
f 167 239 168
f 168 239 169
f 169 239 170
f 170 240 171
f 170 239 240
f 171 186 241
f 171 241 185
f 171 185 172
f 171 240 242
f 171 242 192
f 171 204 186
f 172 185 184
f 173 174 175
f 178 217 179
f 179 217 180
f 180 217 243
f 180 243 244
f 180 244 181
f 181 244 245
f 181 245 182
f 182 245 244
f 182 244 246
f 182 246 239
f 185 241 186
f 186 204 203
f 187 247 248
f 187 248 249
f 187 249 188
f 187 190 194
f 187 194 250
f 187 250 251
f 187 251 252
f 187 252 247
f 188 249 189
f 189 249 253
f 189 253 254
f 189 254 191
f 191 254 255
f 191 255 195
f 192 242 256
f 192 256 257
f 192 257 193
f 193 250 194
f 193 257 256
f 193 256 251
f 193 251 250
f 195 255 196
f 196 258 197
f 196 255 258
f 197 258 259
f 197 259 199
f 197 199 198
f 199 259 260
f 199 260 261
f 199 261 200
f 200 261 262
f 200 262 201
f 201 262 202
f 202 263 264
f 202 264 208
f 202 262 263
f 206 209 265
f 206 265 207
f 208 266 209
f 208 264 266
f 209 267 265
f 209 266 267
f 210 268 269
f 210 269 223
f 212 270 213
f 213 270 221
f 213 221 214
f 214 271 272
f 214 272 217
f 214 217 215
f 214 221 273
f 214 273 271
f 215 217 216
f 217 272 271
f 217 271 243
f 218 222 274
f 219 237 220
f 220 237 273
f 220 273 221
f 221 270 275
f 221 275 222
f 222 275 274
f 223 269 276
f 223 276 277
f 223 277 224
f 224 278 279
f 224 279 225
f 224 277 278
f 225 279 280
f 225 280 226
f 226 280 227
f 227 281 228
f 227 280 281
f 228 259 282
f 228 282 283
f 228 283 284
f 228 284 285
f 228 285 286
f 228 286 229
f 228 281 287
f 228 287 288
f 228 288 289
f 228 289 259
f 229 286 230
f 230 286 231
f 231 286 290
f 231 290 232
f 232 291 234
f 232 234 233
f 232 290 292
f 232 292 291
f 234 291 293
f 234 293 238
f 235 238 293
f 235 293 294
f 235 294 236
f 236 294 237
f 237 294 295
f 237 295 273
f 239 246 240
f 240 246 296
f 240 296 242
f 242 297 298
f 242 298 256
f 242 296 297
f 243 271 246
f 243 246 244
f 246 271 299
f 246 299 297
f 246 297 296
f 247 252 300
f 247 300 248
f 248 300 301
f 248 301 249
f 249 302 303
f 249 303 253
f 249 301 304
f 249 304 302
f 251 256 298
f 251 298 305
f 251 305 252
f 252 306 307
f 252 307 308
f 252 308 300
f 252 305 309
f 252 309 306
f 253 303 254
f 254 303 310
f 254 310 255
f 255 310 311
f 255 311 312
f 255 312 258
f 258 312 311
f 258 311 282
f 258 282 259
f 259 289 260
f 260 289 313
f 260 313 261
f 261 313 314
f 261 314 262
f 262 314 263
f 263 315 264
f 263 314 315
f 264 315 277
f 264 277 316
f 264 316 266
f 265 267 317
f 266 316 267
f 267 318 319
f 267 319 320
f 267 320 317
f 267 316 321
f 267 321 318
f 268 322 323
f 268 323 324
f 268 324 276
f 268 276 269
f 271 273 294
f 271 294 299
f 273 295 294
f 276 324 277
f 277 315 325
f 277 325 326
f 277 326 278
f 277 324 319
f 277 319 321
f 277 321 316
f 278 326 279
f 279 327 328
f 279 328 280
f 279 326 327
f 280 328 287
f 280 287 281
f 282 311 283
f 283 311 284
f 284 311 285
f 285 310 303
f 285 303 302
f 285 302 292
f 285 292 286
f 285 311 310
f 286 292 290
f 287 328 288
f 288 328 329
f 288 329 289
f 289 329 330
f 289 330 313
f 291 292 302
f 291 302 304
f 291 304 301
f 291 301 293
f 293 301 308
f 293 308 307
f 293 307 331
f 293 331 294
f 294 331 332
f 294 332 299
f 297 299 332
f 297 332 331
f 297 331 307
f 297 307 309
f 297 309 298
f 298 309 305
f 300 308 301
f 306 309 307
f 313 330 333
f 313 333 314
f 314 333 315
f 315 333 334
f 315 334 325
f 318 321 319
f 319 324 323
f 319 323 322
f 325 334 327
f 325 327 326
f 327 334 329
f 327 329 328
f 329 334 333
f 329 333 330

