# https://github.com/mikedh/trimesh
v 0.01168497 -0.00408172 -0.00779814
v 0.02282059 -0.00408172 -0.00779814
v 0.01351402 -0.00408172 -0.00508345
v 0.01351402 0.00898083 -0.00508345
v 0.01168606 0.00840544 -0.00779814
v 0.02103623 -0.00408172 -0.00566971
v 0.02267780 0.00898083 -0.00779814
v 0.02243909 0.00898083 -0.00748269
v 0.02053265 -0.00408172 -0.00508345
v 0.01889871 0.00898083 -0.00508345
v 0.01168824 0.00898083 -0.00779814
v 0.02210554 0.00898083 -0.00711276
v 0.02032009 0.00760885 -0.00508345
v 0.01968679 0.00870208 -0.00508345
v 0.02049995 0.00898083 -0.00593254
v 0.02176546 0.00898083 -0.00679066
v 0.02022853 0.00815355 -0.00508345
v 0.02000835 0.00850262 -0.00508345
v 0.02112235 0.00898083 -0.00626659
v 0.02176219 0.00898083 -0.00678774
v 0.02013152 0.00831082 -0.00508345
v 0.02143736 0.00898083 -0.00649913
f 1 2 6
f 1 6 9
f 1 9 3
f 1 3 4
f 1 4 5
f 1 5 11
f 1 11 7
f 1 7 2
f 2 7 8
f 2 8 6
f 3 9 13
f 3 13 17
f 3 17 21
f 3 21 18
f 3 18 14
f 3 14 10
f 3 10 4
f 4 10 15
f 4 15 19
f 4 19 22
f 4 22 20
f 4 20 16
f 4 16 12
f 4 12 8
f 4 8 7
f 4 7 11
f 4 11 5
f 6 8 9
f 8 12 13
f 8 13 9
f 10 14 15
f 12 16 17
f 12 17 13
f 14 18 19
f 14 19 15
f 16 20 17
f 17 20 22
f 17 22 21
f 18 21 22
f 18 22 19

