# https://github.com/mikedh/trimesh
v 0.05684510 0.01036391 -0.00002637
v 0.05736288 0.01034067 -0.00002637
v 0.05750605 0.01033447 -0.00016943
v 0.05684510 0.01036391 -0.00149310
v 0.05221604 0.01036391 -0.00002637
v 0.05750605 0.01033292 -0.00002637
v 0.05801071 0.01016198 -0.00002637
v 0.05814910 0.01011395 -0.00016943
v 0.05750605 0.01032724 -0.00083127
v 0.05684510 0.01036184 -0.00215494
v 0.05618295 0.01036391 -0.00347712
v 0.05207287 0.01035668 -0.00002637
v 0.04664924 0.01036391 -0.00347712
v 0.04664924 0.01035513 -0.00320536
v 0.05814672 0.01011395 -0.00002637
v 0.05813002 0.01010775 -0.00083127
v 0.05847958 0.00990015 -0.00016943
v 0.05750605 0.01031175 -0.00149310
v 0.05684510 0.01035461 -0.00281479
v 0.05618295 0.01035668 -0.00413896
v 0.05552200 0.01036184 -0.00480030
v 0.05485985 0.01036391 -0.00508345
v 0.05155389 0.01032982 -0.00002637
v 0.04664924 0.01036391 -0.00508345
v 0.04664924 0.01024926 -0.00278410
v 0.05847839 0.00989911 -0.00002637
v 0.05808945 0.01009278 -0.00149310
v 0.05750605 0.01028438 -0.00215494
v 0.05846169 0.00987794 -0.00083127
v 0.05865257 0.00957014 -0.00016943
v 0.05863706 0.00954690 -0.00083127
v 0.05684510 0.01033034 -0.00347712
v 0.05618295 0.01032776 -0.00480030
v 0.05552200 0.01035668 -0.00508345
v 0.05144771 0.01028179 -0.00002637
v 0.04664924 0.01016095 -0.00248165
v 0.04664924 0.01007109 -0.00230988
v 0.04664924 0.00628662 -0.00508345
v 0.05865138 0.00956859 -0.00002637
v 0.05803099 0.01006592 -0.00215494
v 0.05750605 0.01022292 -0.00281479
v 0.05684510 0.01027301 -0.00413896
v 0.05860127 0.00948286 -0.00149310
v 0.05842112 0.00981442 -0.00149310
v 0.05882437 0.00893182 -0.00016943
v 0.05879216 0.00893182 -0.00083127
v 0.05618295 0.01029161 -0.00508345
v 0.05107190 0.01011034 -0.00002637
v 0.04664924 0.00987174 -0.00221830
v 0.05509130 0.00508796 -0.00508345
v 0.05679737 0.00508796 -0.00002637
v 0.04664924 0.00634343 -0.00477505
v 0.05882080 0.00893182 -0.00002637
v 0.05794986 0.01001376 -0.00281479
v 0.05755019 0.01009484 -0.00348950
v 0.05737720 0.01006024 -0.00413896
v 0.05689043 0.01011240 -0.00483545
v 0.05854400 0.00936770 -0.00215494
v 0.05872416 0.00893182 -0.00149310
v 0.05836266 0.00969718 -0.00215494
v 0.05883631 0.00827026 -0.00016943
v 0.05879693 0.00827026 -0.00083127
v 0.05873370 0.00827026 -0.00149310
v 0.05681288 0.01008193 -0.00508345
v 0.05092634 0.00959338 -0.00002637
v 0.04664924 0.00959338 -0.00213959
v 0.05752156 0.00508796 -0.00508345
v 0.05883392 0.00508796 -0.00002637
v 0.05353675 0.00622258 -0.00002637
v 0.04664924 0.00656498 -0.00442409
v 0.05883153 0.00827026 -0.00002637
v 0.05787828 0.00996108 -0.00327714
v 0.05726147 0.00999104 -0.00463744
v 0.05850821 0.00928713 -0.00251828
v 0.05860962 0.00893182 -0.00215494
v 0.05828988 0.00954174 -0.00276826
v 0.05883631 0.00508796 -0.00016943
v 0.05879216 0.00508796 -0.00083127
v 0.05878142 0.00508796 -0.00095651
v 0.05873132 0.00508796 -0.00149310
v 0.05870984 0.00508796 -0.00161834
v 0.05861917 0.00827026 -0.00215494
v 0.05713739 0.00988827 -0.00508345
v 0.05104088 0.00921638 -0.00002637
v 0.04664924 0.00914614 -0.00231186
v 0.05107667 0.00911206 -0.00002637
v 0.05752394 0.00826097 -0.00508345
v 0.05767308 0.00508796 -0.00480030
v 0.05307384 0.00646272 -0.00002637
v 0.05780073 0.00988000 -0.00371820
v 0.05714217 0.00988620 -0.00507899
v 0.05851895 0.00893182 -0.00256036
v 0.05842470 0.00893182 -0.00289053
v 0.05823620 0.00893182 -0.00347712
v 0.05792839 0.00943793 -0.00401224
v 0.05801429 0.00963263 -0.00348950
v 0.05861678 0.00508796 -0.00215494
v 0.05852014 0.00827026 -0.00256283
v 0.05714097 0.00988414 -0.00508345
v 0.05751320 0.00892407 -0.00508345
v 0.05770052 0.00891529 -0.00473991
v 0.05770767 0.00825115 -0.00473991
v 0.05784130 0.00845876 -0.00447904
v 0.05783533 0.00508796 -0.00446666
v 0.05773034 0.00963263 -0.00419539
v 0.05714455 0.00987897 -0.00508345
v 0.05842828 0.00827026 -0.00289350
v 0.05824813 0.00827026 -0.00347712
v 0.05795344 0.00891529 -0.00419539
v 0.05783056 0.00912497 -0.00445329
v 0.05734379 0.00953554 -0.00508345
v 0.05741657 0.00963728 -0.00483545
v 0.05851657 0.00508796 -0.00254946
v 0.05744281 0.00923962 -0.00508345
v 0.05784130 0.00868393 -0.00447904
v 0.05799281 0.00508796 -0.00413599
v 0.05842470 0.00508796 -0.00287915
v 0.05824932 0.00508796 -0.00347712
v 0.05799162 0.00694766 -0.00413252
v 0.05799043 0.00760922 -0.00413203
v 0.05795941 0.00825115 -0.00420183
f 1 2 3
f 1 3 4
f 1 4 11
f 1 11 22
f 1 22 24
f 1 24 13
f 1 13 5
f 1 5 12
f 1 12 23
f 1 23 35
f 1 35 48
f 1 48 65
f 1 65 84
f 1 84 86
f 1 86 89
f 1 89 69
f 1 69 51
f 1 51 68
f 1 68 71
f 1 71 53
f 1 53 39
f 1 39 26
f 1 26 15
f 1 15 7
f 1 7 6
f 1 6 2
f 2 6 3
f 3 6 7
f 3 7 8
f 3 8 9
f 3 9 10
f 3 10 4
f 4 10 11
f 5 13 14
f 5 14 12
f 7 15 8
f 8 16 9
f 8 15 17
f 8 17 16
f 9 16 18
f 9 18 19
f 9 19 10
f 10 19 20
f 10 20 11
f 11 20 21
f 11 21 22
f 12 14 23
f 13 24 38
f 13 38 52
f 13 52 70
f 13 70 85
f 13 85 66
f 13 66 49
f 13 49 37
f 13 37 36
f 13 36 25
f 13 25 14
f 14 25 23
f 15 26 17
f 16 27 28
f 16 28 18
f 16 17 29
f 16 29 27
f 17 26 30
f 17 30 31
f 17 31 29
f 18 28 32
f 18 32 19
f 19 32 20
f 20 32 33
f 20 33 34
f 20 34 21
f 21 34 22
f 22 34 47
f 22 47 64
f 22 64 83
f 22 83 99
f 22 99 106
f 22 106 111
f 22 111 114
f 22 114 100
f 22 100 87
f 22 87 67
f 22 67 50
f 22 50 38
f 22 38 24
f 23 25 36
f 23 36 37
f 23 37 35
f 26 39 30
f 27 40 28
f 27 29 40
f 28 40 41
f 28 41 42
f 28 42 32
f 29 31 43
f 29 43 44
f 29 44 40
f 30 39 45
f 30 45 31
f 31 45 46
f 31 46 43
f 32 42 33
f 33 47 34
f 33 42 47
f 35 37 48
f 37 49 48
f 38 50 51
f 38 51 52
f 39 53 45
f 40 54 41
f 40 44 54
f 41 54 55
f 41 55 56
f 41 56 42
f 42 56 57
f 42 57 47
f 43 58 44
f 43 46 59
f 43 59 58
f 44 58 60
f 44 60 54
f 45 53 61
f 45 61 46
f 46 61 62
f 46 62 63
f 46 63 59
f 47 57 64
f 48 49 66
f 48 66 65
f 50 67 88
f 50 88 104
f 50 104 116
f 50 116 118
f 50 118 117
f 50 117 113
f 50 113 97
f 50 97 81
f 50 81 80
f 50 80 79
f 50 79 78
f 50 78 77
f 50 77 68
f 50 68 51
f 51 69 52
f 52 69 70
f 53 71 61
f 54 72 56
f 54 56 55
f 54 60 72
f 56 73 57
f 56 72 73
f 57 73 64
f 58 74 60
f 58 59 74
f 59 63 82
f 59 82 75
f 59 75 74
f 60 74 76
f 60 76 72
f 61 77 62
f 61 71 68
f 61 68 77
f 62 78 79
f 62 79 80
f 62 80 63
f 62 77 78
f 63 80 81
f 63 81 82
f 64 73 83
f 65 66 84
f 66 85 86
f 66 86 84
f 67 87 88
f 69 89 70
f 70 89 85
f 72 76 90
f 72 90 73
f 73 91 83
f 73 90 91
f 74 75 92
f 74 92 93
f 74 93 94
f 74 94 95
f 74 95 96
f 74 96 76
f 75 82 92
f 76 96 90
f 81 97 82
f 82 97 98
f 82 98 92
f 83 91 99
f 85 89 86
f 87 100 101
f 87 101 102
f 87 102 88
f 88 102 103
f 88 103 104
f 90 96 95
f 90 95 105
f 90 105 91
f 91 106 99
f 91 105 106
f 92 98 107
f 92 107 93
f 93 107 108
f 93 108 94
f 94 109 110
f 94 110 95
f 94 108 109
f 95 110 111
f 95 111 112
f 95 112 105
f 97 113 98
f 98 113 107
f 100 114 110
f 100 110 101
f 101 110 115
f 101 115 102
f 102 115 103
f 103 115 116
f 103 116 104
f 105 112 106
f 106 112 111
f 107 117 118
f 107 118 108
f 107 113 117
f 108 118 116
f 108 116 119
f 108 119 120
f 108 120 121
f 108 121 109
f 109 121 115
f 109 115 110
f 110 114 111
f 115 121 120
f 115 120 119
f 115 119 116

