# https://github.com/mikedh/trimesh
v -0.00782588 -0.00035955 -0.01116033
v -0.00781423 -0.00035955 -0.01187971
v -0.00776037 -0.00107871 -0.01116033
v -0.00760752 -0.00107871 -0.01066853
v -0.00763954 -0.00035955 -0.01063786
v -0.00782588 0.00035960 -0.01116033
v -0.00762644 -0.00035955 -0.01238668
v -0.00759441 -0.00107871 -0.01235271
v -0.00774581 -0.00107871 -0.01187971
v -0.00781423 0.00035960 -0.01187971
v -0.00763081 -0.00179940 -0.01116033
v -0.00750707 -0.00218356 -0.01079057
v -0.00754783 -0.00179940 -0.01074110
v -0.00713876 -0.00107871 -0.01032088
v -0.00713876 -0.00179940 -0.01040235
v -0.00713876 -0.00035955 -0.01028987
v -0.00713876 0.00035960 -0.01029185
v -0.00763809 0.00035960 -0.01063984
v -0.00760752 0.00107876 -0.01067084
v -0.00775892 0.00107876 -0.01116033
v -0.00728142 -0.00035955 -0.01274687
v -0.00762644 0.00035960 -0.01238668
v -0.00724503 -0.00107871 -0.01271290
v -0.00754637 -0.00167339 -0.01229762
v -0.00749833 -0.00215436 -0.01223133
v -0.00759441 -0.00186855 -0.01194667
v -0.00774581 0.00107876 -0.01187971
v -0.00759441 0.00107876 -0.01235271
v -0.00752599 -0.00224349 -0.01175141
v -0.00752454 -0.00224042 -0.01116033
v -0.00739788 -0.00259999 -0.01116033
v -0.00713585 -0.00323924 -0.01116033
v -0.00683013 -0.00369563 -0.01074440
v -0.00693495 -0.00323924 -0.01064148
v -0.00716205 -0.00246169 -0.01056859
v -0.00641961 -0.00251855 -0.01017014
v -0.00641961 -0.00179940 -0.01011374
v -0.00641961 -0.00323924 -0.01029647
v -0.00641961 -0.00107871 -0.01010483
v -0.00641961 -0.00035955 -0.01010417
v -0.00641961 0.00035960 -0.01010417
v -0.00641961 0.00107876 -0.01010483
v -0.00641961 0.00179945 -0.01011407
v -0.00713876 0.00107876 -0.01032352
v -0.00713876 0.00179945 -0.01040400
v -0.00754783 0.00179945 -0.01074209
v -0.00750707 0.00218361 -0.01079090
v -0.00763081 0.00179945 -0.01116033
v -0.00692185 -0.00035955 -0.01308892
v -0.00688545 -0.00107871 -0.01305692
v -0.00728142 0.00035960 -0.01274687
v -0.00682722 -0.00164112 -0.01300415
v -0.00716205 -0.00189774 -0.01262417
v -0.00676899 -0.00212056 -0.01295104
v -0.00706888 -0.00251855 -0.01252423
v -0.00692039 -0.00323924 -0.01238338
v -0.00681994 -0.00367565 -0.01228344
v -0.00711983 -0.00323924 -0.01187971
v -0.00741244 -0.00249704 -0.01194667
v -0.00759441 0.00186860 -0.01194667
v -0.00749833 0.00215441 -0.01223133
v -0.00754637 0.00167344 -0.01229762
v -0.00724503 0.00107876 -0.01271290
v -0.00687672 -0.00377707 -0.01116033
v -0.00666563 -0.00413665 -0.01116033
v -0.00603383 -0.00500793 -0.01101157
v -0.00620707 -0.00452849 -0.01066655
v -0.00643562 -0.00394457 -0.01055012
v -0.00569900 -0.00395993 -0.01018135
v -0.00569900 -0.00323924 -0.01010747
v -0.00569900 -0.00251855 -0.01010417
v 0.00704481 -0.00467909 -0.01002666
v 0.00704481 -0.00420733 -0.01002633
v 0.00704481 0.00395998 -0.01003062
v 0.00704481 0.00442405 -0.01003095
v 0.00704481 -0.00395993 -0.01002633
v 0.00704481 -0.00251855 -0.01002666
v -0.00569900 0.00251860 -0.01010417
v -0.00569900 0.00323929 -0.01010747
v 0.00704481 0.00467913 -0.01003161
v -0.00641961 0.00251860 -0.01017014
v -0.00641961 0.00323929 -0.01029779
v -0.00716205 0.00246174 -0.01056925
v -0.00693495 0.00323929 -0.01064214
v -0.00683013 0.00369414 -0.01074572
v -0.00713585 0.00323929 -0.01116033
v -0.00739788 0.00260004 -0.01116033
v -0.00752454 0.00224047 -0.01116033
v -0.00752599 0.00224354 -0.01175141
v -0.00641961 -0.00107871 -0.01326934
v -0.00692185 0.00035960 -0.01308892
v -0.00648512 -0.00184857 -0.01316082
v -0.00633226 -0.00251855 -0.01314664
v -0.00688545 0.00107876 -0.01305692
v -0.00617213 -0.00323924 -0.01304736
v -0.00669329 -0.00251855 -0.01288408
v -0.00653170 -0.00323924 -0.01274324
v -0.00607459 -0.00362341 -0.01297281
v -0.00637448 -0.00388925 -0.01256315
v -0.00619542 -0.00451313 -0.01236293
v -0.00602073 -0.00499256 -0.01202023
v -0.00665690 -0.00412282 -0.01187971
v -0.00686799 -0.00376170 -0.01187971
v -0.00741244 0.00249709 -0.01194667
v -0.00711983 0.00323929 -0.01187971
v -0.00681994 0.00367570 -0.01228344
v -0.00692039 0.00323929 -0.01238338
v -0.00706888 0.00251860 -0.01252423
v -0.00676899 0.00212061 -0.01295104
v -0.00716205 0.00189779 -0.01262417
v -0.00682722 0.00164117 -0.01300415
v -0.00606149 -0.00504174 -0.01154064
v -0.00606149 -0.00504174 -0.01149149
v -0.00625802 -0.00473287 -0.01121508
v -0.00532923 -0.00575013 -0.01086941
v -0.00555342 -0.00526916 -0.01063654
v -0.00575578 -0.00473287 -0.01048283
v -0.00497985 -0.00467909 -0.01015563
v -0.00497985 -0.00395993 -0.01010450
v -0.00425924 -0.00467909 -0.01010417
v -0.00353864 -0.00539978 -0.01010483
v -0.00209888 -0.00611893 -0.01010483
v 0.00704481 -0.00488039 -0.01003194
v -0.00497985 0.00395998 -0.01010450
v -0.00497985 0.00467913 -0.01015728
v -0.00569900 0.00395998 -0.01018201
v -0.00425924 0.00467913 -0.01010417
v 0.00704481 0.00518162 -0.01005667
v -0.00137973 0.00611898 -0.01010417
v -0.00209888 0.00611898 -0.01010483
v -0.00353864 0.00539983 -0.01010483
v -0.00643562 0.00394461 -0.01055111
v -0.00620707 0.00452854 -0.01066721
v -0.00603237 0.00500798 -0.01101157
v -0.00666563 0.00413670 -0.01116033
v -0.00687672 0.00377558 -0.01116033
v -0.00686799 0.00376175 -0.01187971
v -0.00569900 -0.00179940 -0.01338479
v -0.00569900 -0.00251855 -0.01336467
v -0.00641961 0.00107876 -0.01326934
v -0.00569900 -0.00323924 -0.01326538
v -0.00633226 0.00251860 -0.01314664
v -0.00648512 0.00184862 -0.01316082
v -0.00567862 -0.00390154 -0.01309222
v -0.00542532 -0.00442400 -0.01302229
v -0.00590572 -0.00410284 -0.01284285
v -0.00572375 -0.00470828 -0.01261856
v -0.00554032 -0.00525533 -0.01239394
v -0.00531322 -0.00573477 -0.01212149
v -0.00568881 -0.00538902 -0.01183090
v -0.00625074 -0.00472365 -0.01182001
v -0.00665690 0.00412133 -0.01187971
v -0.00602073 0.00499261 -0.01202023
v -0.00619542 0.00451318 -0.01236293
v -0.00637448 0.00388929 -0.01256315
v -0.00607459 0.00362345 -0.01297281
v -0.00653170 0.00323929 -0.01274324
v -0.00669329 0.00251860 -0.01288408
v -0.00617213 0.00323929 -0.01304736
v -0.00535690 -0.00577626 -0.01164190
v -0.00535690 -0.00577626 -0.01134933
v -0.00504536 -0.00599907 -0.01112965
v -0.00451837 -0.00640629 -0.01116033
v -0.00405107 -0.00657224 -0.01070218
v -0.00484883 -0.00593453 -0.01065204
v -0.00504536 -0.00546585 -0.01047392
v -0.00425924 -0.00539978 -0.01016750
v -0.00281949 -0.00611893 -0.01013122
v -0.00137973 -0.00611893 -0.01010417
v -0.00065912 -0.00683962 -0.01016057
v 0.00005857 -0.00683962 -0.01014342
v 0.00704481 -0.00528299 -0.01005733
v -0.00425924 0.00539983 -0.01016849
v -0.00504536 0.00546590 -0.01047557
v -0.00575578 0.00473292 -0.01048448
v 0.00704481 0.00551507 -0.01012330
v 0.00437930 0.00611898 -0.01011671
v 0.00365869 0.00611898 -0.01010483
v 0.00293954 0.00611898 -0.01010417
v 0.00005857 0.00683967 -0.01014342
v -0.00065912 0.00683967 -0.01016123
v -0.00281949 0.00611898 -0.01013188
v -0.00555342 0.00526921 -0.01063852
v -0.00532923 0.00574865 -0.01086941
v -0.00606149 0.00504179 -0.01149149
v -0.00625802 0.00473292 -0.01121508
v -0.00606149 0.00504179 -0.01154064
v -0.00497985 -0.00323924 -0.01339600
v -0.00569900 0.00179945 -0.01338479
v -0.00497985 -0.00395993 -0.01333366
v -0.00569900 0.00251860 -0.01336467
v -0.00569900 0.00323929 -0.01326538
v -0.00497985 -0.00466987 -0.01313213
v -0.00473965 -0.00514930 -0.01303911
v -0.00521860 -0.00490344 -0.01287386
v -0.00502643 -0.00544280 -0.01262714
v -0.00483427 -0.00592531 -0.01238008
v -0.00403506 -0.00656149 -0.01232434
v -0.00450673 -0.00639860 -0.01187971
v -0.00503662 -0.00599292 -0.01188103
v -0.00625074 0.00472370 -0.01182001
v -0.00568881 0.00538907 -0.01183090
v -0.00531322 0.00573482 -0.01212149
v -0.00554032 0.00525538 -0.01239394
v -0.00572375 0.00470833 -0.01261856
v -0.00590572 0.00410289 -0.01284285
v -0.00542532 0.00442405 -0.01302229
v -0.00567862 0.00390159 -0.01309222
v -0.00415880 -0.00664293 -0.01116033
v -0.00313539 -0.00718076 -0.01098386
v -0.00265644 -0.00726835 -0.01071999
v -0.00353864 -0.00671515 -0.01057948
v -0.00427817 -0.00615274 -0.01051384
v -0.00353864 -0.00611893 -0.01023215
v -0.00209888 -0.00683962 -0.01028558
v -0.00137973 -0.00683962 -0.01020807
v -0.00065912 -0.00748502 -0.01050856
v 0.00005857 -0.00750653 -0.01049141
v 0.00077918 -0.00683962 -0.01015464
v 0.00365869 -0.00611893 -0.01010483
v 0.00704481 -0.00554115 -0.01011836
v 0.00437930 -0.00611893 -0.01011802
v -0.00353864 0.00611898 -0.01023281
v -0.00484883 0.00593458 -0.01065303
v -0.00427817 0.00615279 -0.01051483
v 0.00704481 0.00609747 -0.01048910
v 0.00509990 0.00676437 -0.01052109
v 0.00365869 0.00683967 -0.01032780
v 0.00509990 0.00611898 -0.01017311
v 0.00293954 0.00683967 -0.01026118
v 0.00221893 0.00683967 -0.01020807
v 0.00149978 0.00683967 -0.01017113
v 0.00077918 0.00683967 -0.01015035
v 0.00005857 0.00750658 -0.01049141
v -0.00065912 0.00748353 -0.01050922
v -0.00137973 0.00683967 -0.01020972
v -0.00209888 0.00683967 -0.01028723
v -0.00405107 0.00657229 -0.01070284
v -0.00451837 0.00640633 -0.01116033
v -0.00504536 0.00599912 -0.01112965
v -0.00535690 0.00577631 -0.01134933
v -0.00535690 0.00577631 -0.01164190
v -0.00425924 -0.00395993 -0.01339600
v -0.00425924 -0.00467909 -0.01334619
v -0.00497985 0.00323929 -0.01339600
v -0.00497985 0.00395998 -0.01333366
v -0.00422867 -0.00539363 -0.01311794
v -0.00396809 -0.00580853 -0.01299887
v -0.00444704 -0.00562874 -0.01286034
v -0.00424177 -0.00610664 -0.01259217
v -0.00353864 -0.00669979 -0.01244869
v -0.00263024 -0.00725913 -0.01230653
v -0.00311064 -0.00717000 -0.01204002
v -0.00414569 -0.00663525 -0.01187971
v -0.00353864 -0.00629718 -0.01280888
v -0.00503662 0.00599297 -0.01188103
v -0.00450673 0.00639865 -0.01187971
v -0.00403506 0.00656154 -0.01232434
v -0.00483427 0.00592536 -0.01238008
v -0.00521860 0.00490349 -0.01287386
v -0.00502643 0.00544285 -0.01262714
v -0.00473965 0.00514935 -0.01303911
v -0.00497985 0.00466992 -0.01313213
v -0.00318780 -0.00720381 -0.01156010
v -0.00318780 -0.00720381 -0.01146378
v -0.00347313 -0.00703170 -0.01119826
v -0.00286462 -0.00730215 -0.01119826
v -0.00209888 -0.00754956 -0.01116033
v -0.00286462 -0.00689955 -0.01049537
v -0.00137973 -0.00770937 -0.01116033
v -0.00209888 -0.00735133 -0.01063291
v -0.00137973 -0.00743123 -0.01055606
v -0.00065912 -0.00780771 -0.01116033
v 0.00005857 -0.00784767 -0.01116033
v 0.00077918 -0.00749424 -0.01050262
v 0.00149978 -0.00683962 -0.01017971
v 0.00704481 -0.00578701 -0.01024172
v 0.00293954 -0.00683962 -0.01025953
v 0.00365869 -0.00683962 -0.01033044
v 0.00221893 -0.00683962 -0.01021071
v -0.00286462 0.00689960 -0.01049668
v -0.00353864 0.00671520 -0.01058013
v 0.00704481 0.00642938 -0.01097759
v 0.00689050 0.00647702 -0.01084500
v 0.00641010 0.00654463 -0.01072296
v 0.00581906 0.00663837 -0.01062532
v 0.00423518 0.00724688 -0.01074011
v 0.00443607 0.00690728 -0.01049569
v 0.00293954 0.00736213 -0.01060916
v 0.00221893 0.00742206 -0.01055606
v 0.00149978 0.00746816 -0.01051911
v 0.00077918 0.00749582 -0.01049833
v 0.00005857 0.00784772 -0.01116033
v -0.00065912 0.00780776 -0.01116033
v -0.00137973 0.00742975 -0.01055771
v -0.00209888 0.00735138 -0.01063489
v -0.00265499 0.00726686 -0.01072164
v -0.00313539 0.00718081 -0.01098386
v -0.00415880 0.00664298 -0.01116033
v -0.00353864 -0.00467909 -0.01339600
v -0.00281949 -0.00539978 -0.01338577
v -0.00353864 -0.00539978 -0.01330628
v -0.00425924 0.00467913 -0.01334619
v -0.00425924 0.00395998 -0.01339600
v -0.00353864 -0.00593761 -0.01308826
v -0.00306115 -0.00642626 -0.01291377
v -0.00284569 -0.00685191 -0.01261031
v -0.00258220 -0.00653229 -0.01300679
v -0.00209888 -0.00697485 -0.01275050
v -0.00209888 -0.00733750 -0.01239064
v -0.00137973 -0.00769554 -0.01187971
v -0.00209888 -0.00753726 -0.01187971
v -0.00285006 -0.00729601 -0.01183189
v -0.00347313 -0.00701941 -0.01183189
v -0.00414569 0.00663530 -0.01187971
v -0.00311064 0.00717005 -0.01204002
v -0.00263024 0.00725764 -0.01230653
v -0.00353864 0.00669983 -0.01244869
v -0.00353864 0.00629723 -0.01280888
v -0.00396809 0.00580858 -0.01299887
v -0.00424177 0.00610669 -0.01259217
v -0.00444704 0.00562879 -0.01286034
v -0.00422867 0.00539368 -0.01311794
v -0.00065912 -0.00779542 -0.01187971
v 0.00005857 -0.00783537 -0.01187971
v 0.00077918 -0.00781847 -0.01187971
v 0.00077918 -0.00782923 -0.01116033
v 0.00149978 -0.00746043 -0.01052769
v 0.00704481 -0.00609434 -0.01048382
v 0.00443898 -0.00690877 -0.01049899
v 0.00509990 -0.00676586 -0.01052373
v 0.00221893 -0.00741433 -0.01055869
v 0.00293954 -0.00736516 -0.01060784
v 0.00704481 0.00644321 -0.01123586
v 0.00692690 0.00648931 -0.01132525
v 0.00477527 0.00721000 -0.01135790
v 0.00471412 0.00719310 -0.01087798
v 0.00293954 0.00757419 -0.01116033
v 0.00221893 0.00768944 -0.01116033
v 0.00365869 0.00729913 -0.01067513
v 0.00149978 0.00777396 -0.01116033
v 0.00077918 0.00782774 -0.01116033
v 0.00005857 0.00783081 -0.01187971
v -0.00065912 0.00779547 -0.01187971
v -0.00137973 0.00770788 -0.01116033
v -0.00209888 0.00754960 -0.01116033
v -0.00286462 0.00730220 -0.01119826
v -0.00318780 0.00720386 -0.01146378
v -0.00347313 0.00703022 -0.01119826
v -0.00318780 0.00720386 -0.01156010
v -0.00209888 -0.00539978 -0.01339600
v -0.00065912 -0.00611893 -0.01338545
v -0.00137973 -0.00611893 -0.01335741
v -0.00209888 -0.00611893 -0.01329375
v -0.00282094 -0.00616042 -0.01315456
v -0.00353864 0.00539983 -0.01330628
v -0.00281949 0.00539983 -0.01338577
v -0.00353864 0.00467913 -0.01339600
v -0.00209888 -0.00661527 -0.01307572
v -0.00137973 -0.00706551 -0.01283263
v -0.00137973 -0.00741894 -0.01247244
v -0.00347313 0.00701946 -0.01183189
v -0.00285006 0.00729606 -0.01183189
v -0.00209888 0.00753731 -0.01187971
v -0.00209888 0.00697490 -0.01275050
v -0.00258220 0.00653234 -0.01300679
v -0.00284569 0.00685196 -0.01261031
v -0.00137973 0.00769559 -0.01187971
v -0.00209888 0.00733755 -0.01239064
v -0.00306115 0.00642631 -0.01291377
v -0.00353864 0.00593765 -0.01308826
v -0.00065912 -0.00747119 -0.01252423
v 0.00005857 -0.00749270 -0.01254402
v 0.00077918 -0.00748348 -0.01253379
v 0.00149978 -0.00776622 -0.01187971
v 0.00149978 -0.00745736 -0.01251037
v 0.00149978 -0.00776776 -0.01116033
v 0.00581906 -0.00664139 -0.01062433
v 0.00640136 -0.00654766 -0.01072032
v 0.00704481 -0.00629104 -0.01072362
v 0.00365869 -0.00730215 -0.01067777
v 0.00423954 -0.00724376 -0.01074374
v 0.00221893 -0.00768171 -0.01116033
v 0.00704481 0.00644321 -0.01140012
v 0.00692690 0.00648931 -0.01161089
v 0.00477527 0.00721000 -0.01162310
v 0.00365869 0.00744511 -0.01116033
v 0.00443607 0.00727915 -0.01113493
v 0.00293954 0.00756343 -0.01187971
v 0.00221893 0.00767561 -0.01187971
v 0.00149978 0.00775244 -0.01187971
v 0.00077918 0.00780315 -0.01187971
v 0.00077918 0.00747123 -0.01252752
v 0.00005857 0.00748814 -0.01254138
v -0.00065912 0.00747123 -0.01252423
v -0.00137973 0.00741899 -0.01247244
v 0.00437930 -0.00539978 -0.01339600
v 0.00005857 -0.00611893 -0.01339402
v 0.00005857 -0.00678277 -0.01317599
v -0.00065912 -0.00676125 -0.01316742
v -0.00137973 -0.00670593 -0.01313938
v -0.00282094 0.00616047 -0.01315456
v -0.00209888 0.00611898 -0.01329375
v -0.00209888 0.00539983 -0.01339600
v -0.00137973 0.00611898 -0.01335741
v -0.00065912 0.00611898 -0.01338545
v -0.00065912 -0.00712237 -0.01288408
v -0.00137973 0.00706556 -0.01283263
v -0.00209888 0.00661532 -0.01307572
v 0.00005857 -0.00714234 -0.01290388
v 0.00077918 -0.00713159 -0.01289365
v 0.00149978 -0.00710854 -0.01287023
v 0.00221893 -0.00767863 -0.01187971
v 0.00221893 -0.00741279 -0.01247013
v 0.00293954 -0.00735594 -0.01241472
v 0.00221893 -0.00706705 -0.01282999
v 0.00471849 -0.00719459 -0.01085555
v 0.00688177 -0.00647236 -0.01090041
v 0.00704481 -0.00642472 -0.01102740
v 0.00293954 -0.00758029 -0.01116033
v 0.00704481 0.00643246 -0.01171776
v 0.00704481 0.00640019 -0.01196250
v 0.00684101 0.00645704 -0.01209048
v 0.00581906 0.00683352 -0.01187971
v 0.00504895 0.00709168 -0.01186949
v 0.00467191 0.00718081 -0.01210269
v 0.00440987 0.00727301 -0.01186949
v 0.00365869 0.00743435 -0.01187971
v 0.00419150 0.00723920 -0.01228740
v 0.00365869 0.00728991 -0.01234578
v 0.00293954 0.00735138 -0.01241076
v 0.00221893 0.00740823 -0.01246716
v 0.00149978 0.00744511 -0.01250543
v 0.00149978 0.00710551 -0.01286528
v 0.00077918 0.00712702 -0.01288771
v 0.00005857 0.00714085 -0.01290124
v -0.00065912 0.00712241 -0.01288408
v 0.00581906 -0.00467909 -0.01339600
v 0.00653966 -0.00467909 -0.01339402
v 0.00704481 -0.00467909 -0.01337753
v 0.00509990 -0.00539978 -0.01337093
v 0.00149978 -0.00611893 -0.01338149
v 0.00077918 -0.00611893 -0.01338973
v 0.00077918 -0.00677201 -0.01317171
v -0.00137973 0.00670598 -0.01313938
v 0.00437930 0.00539983 -0.01339600
v 0.00005857 0.00611898 -0.01339369
v -0.00065912 0.00676130 -0.01316742
v 0.00005857 0.00678128 -0.01317599
v 0.00149978 -0.00674742 -0.01316346
v 0.00221893 -0.00670747 -0.01314301
v 0.00293954 -0.00757261 -0.01187971
v 0.00365869 -0.00728986 -0.01234611
v 0.00293954 -0.00701019 -0.01277491
v 0.00293954 -0.00665061 -0.01310739
v 0.00365869 -0.00745121 -0.01116033
v 0.00443898 -0.00727757 -0.01112141
v 0.00478109 -0.00721149 -0.01133547
v 0.00505186 -0.00710393 -0.01112141
v 0.00704481 -0.00643855 -0.01127742
v 0.00704481 0.00624498 -0.01229037
v 0.00636060 0.00653541 -0.01230389
v 0.00581906 0.00662761 -0.01239724
v 0.00509990 0.00675054 -0.01251103
v 0.00441860 0.00684889 -0.01261163
v 0.00416675 0.00651851 -0.01299656
v 0.00365869 0.00693802 -0.01270564
v 0.00293954 0.00700717 -0.01277062
v 0.00221893 0.00706556 -0.01282735
v 0.00221893 0.00670445 -0.01314268
v 0.00149978 0.00674440 -0.01316346
v 0.00077918 0.00676745 -0.01317171
v 0.00704481 -0.00395993 -0.01339600
v 0.00704481 -0.00534292 -0.01315488
v 0.00581906 -0.00539978 -0.01329705
v 0.00365869 -0.00611893 -0.01326802
v 0.00293954 -0.00611893 -0.01331684
v 0.00221893 -0.00611893 -0.01335246
v 0.00509990 0.00539983 -0.01337126
v 0.00704481 0.00467913 -0.01337753
v 0.00653966 0.00467913 -0.01339336
v 0.00581906 0.00467913 -0.01339600
v 0.00077918 0.00611898 -0.01338973
v 0.00149978 0.00611898 -0.01338149
v 0.00418422 -0.00723608 -0.01228377
v 0.00365869 -0.00743892 -0.01187971
v 0.00365869 -0.00693797 -0.01270597
v 0.00365869 -0.00657839 -0.01305000
v 0.00509990 -0.00602366 -0.01315291
v 0.00478109 -0.00721149 -0.01163233
v 0.00691962 -0.00648619 -0.01138066
v 0.00691962 -0.00648619 -0.01158319
v 0.00704481 -0.00642626 -0.01170028
v 0.00704481 0.00605598 -0.01253841
v 0.00581906 0.00626342 -0.01275710
v 0.00704481 0.00581011 -0.01278348
v 0.00509990 0.00638482 -0.01287122
v 0.00464570 0.00645397 -0.01293587
v 0.00365869 0.00657690 -0.01305000
v 0.00509990 0.00602524 -0.01315324
v 0.00293954 0.00664759 -0.01310607
v 0.00365869 0.00611898 -0.01326802
v 0.00293954 0.00611898 -0.01331519
v 0.00221893 0.00611898 -0.01335180
v 0.00704481 0.00395998 -0.01339600
v 0.00704481 -0.00568867 -0.01289101
v 0.00631984 -0.00581006 -0.01300646
v 0.00581906 -0.00590073 -0.01307902
v 0.00581906 0.00539983 -0.01329771
v 0.00704481 0.00417511 -0.01339501
v 0.00704481 0.00491578 -0.01330661
v 0.00441423 -0.00684730 -0.01260966
v 0.00509990 -0.00674742 -0.01250938
v 0.00581906 -0.00662295 -0.01239394
v 0.00634895 -0.00653229 -0.01230158
v 0.00466463 -0.00717922 -0.01211192
v 0.00440696 -0.00727296 -0.01187510
v 0.00416239 -0.00651692 -0.01299524
v 0.00464279 -0.00645392 -0.01293521
v 0.00505186 -0.00708856 -0.01187510
v 0.00581906 -0.00682733 -0.01187971
v 0.00704481 -0.00639553 -0.01193711
v 0.00704481 0.00569025 -0.01289398
v 0.00632712 0.00581165 -0.01300712
v 0.00581906 0.00590231 -0.01307968
v 0.00704481 0.00534604 -0.01315522
v 0.00704481 -0.00605439 -0.01253577
v 0.00581906 -0.00626184 -0.01275380
v 0.00509990 -0.00638324 -0.01286924
v 0.00682936 -0.00645238 -0.01206311
v 0.00704481 0.00550278 -0.01304637
f 1 2 3
f 1 3 4
f 1 4 5
f 1 5 6
f 1 6 10
f 1 10 2
f 2 7 8
f 2 8 9
f 2 9 3
f 2 10 22
f 2 22 7
f 3 9 11
f 3 11 12
f 3 12 13
f 3 13 4
f 4 14 5
f 4 13 15
f 4 15 14
f 5 14 16
f 5 16 17
f 5 17 18
f 5 18 6
f 6 18 19
f 6 19 20
f 6 20 10
f 7 21 8
f 7 22 51
f 7 51 21
f 8 23 24
f 8 24 9
f 8 21 23
f 9 24 25
f 9 25 26
f 9 26 11
f 10 20 27
f 10 27 28
f 10 28 22
f 11 26 29
f 11 29 30
f 11 30 12
f 12 30 31
f 12 31 32
f 12 32 33
f 12 33 34
f 12 34 35
f 12 35 15
f 12 15 13
f 14 15 36
f 14 36 37
f 14 37 16
f 15 35 38
f 15 38 36
f 16 37 39
f 16 39 40
f 16 40 41
f 16 41 42
f 16 42 17
f 17 42 43
f 17 43 44
f 17 44 18
f 18 44 19
f 19 44 45
f 19 45 46
f 19 46 20
f 20 46 47
f 20 47 48
f 20 48 27
f 21 49 50
f 21 50 23
f 21 51 91
f 21 91 49
f 22 28 51
f 23 50 52
f 23 52 24
f 24 52 53
f 24 53 25
f 25 53 54
f 25 54 55
f 25 55 56
f 25 56 57
f 25 57 58
f 25 58 59
f 25 59 29
f 25 29 26
f 27 48 60
f 27 60 61
f 27 61 62
f 27 62 28
f 28 62 63
f 28 63 51
f 29 59 58
f 29 58 31
f 29 31 30
f 31 58 32
f 32 58 64
f 32 64 33
f 33 64 65
f 33 65 66
f 33 66 67
f 33 67 68
f 33 68 34
f 34 68 38
f 34 38 35
f 36 38 69
f 36 69 70
f 36 70 37
f 37 70 39
f 38 68 69
f 39 70 71
f 39 71 72
f 39 72 40
f 40 72 73
f 40 73 76
f 40 76 41
f 41 74 75
f 41 75 42
f 41 76 77
f 41 77 74
f 42 78 79
f 42 79 43
f 42 75 80
f 42 80 78
f 43 79 81
f 43 81 44
f 44 81 45
f 45 81 82
f 45 82 83
f 45 83 47
f 45 47 46
f 47 83 84
f 47 84 85
f 47 85 86
f 47 86 87
f 47 87 88
f 47 88 48
f 48 88 89
f 48 89 60
f 49 90 50
f 49 91 140
f 49 140 90
f 50 90 92
f 50 92 93
f 50 93 52
f 51 63 94
f 51 94 91
f 52 93 54
f 52 54 53
f 54 93 95
f 54 95 96
f 54 96 55
f 55 96 56
f 56 97 57
f 56 96 97
f 57 98 99
f 57 99 100
f 57 100 101
f 57 101 102
f 57 102 103
f 57 103 58
f 57 97 98
f 58 103 64
f 60 89 61
f 61 89 104
f 61 104 105
f 61 105 106
f 61 106 107
f 61 107 108
f 61 108 109
f 61 109 110
f 61 110 62
f 62 111 63
f 62 110 111
f 63 111 94
f 64 103 102
f 64 102 65
f 65 102 112
f 65 112 113
f 65 113 114
f 65 114 66
f 66 113 115
f 66 115 67
f 66 114 113
f 67 115 116
f 67 116 117
f 67 117 68
f 68 117 69
f 69 117 118
f 69 118 70
f 70 118 119
f 70 119 71
f 71 119 72
f 72 119 120
f 72 120 121
f 72 121 122
f 72 122 123
f 72 123 172
f 72 172 221
f 72 221 277
f 72 277 329
f 72 329 380
f 72 380 419
f 72 419 460
f 72 460 493
f 72 493 522
f 72 522 527
f 72 527 506
f 72 506 474
f 72 474 440
f 72 440 473
f 72 473 505
f 72 505 510
f 72 510 480
f 72 480 511
f 72 511 526
f 72 526 531
f 72 531 523
f 72 523 496
f 72 496 494
f 72 494 461
f 72 461 422
f 72 422 421
f 72 421 384
f 72 384 334
f 72 334 283
f 72 283 226
f 72 226 176
f 72 176 128
f 72 128 80
f 72 80 75
f 72 75 74
f 72 74 77
f 72 77 76
f 72 76 73
f 78 124 79
f 78 80 124
f 79 124 125
f 79 125 126
f 79 126 81
f 80 127 124
f 80 128 129
f 80 129 130
f 80 130 131
f 80 131 127
f 81 126 82
f 82 84 83
f 82 126 132
f 82 132 84
f 84 132 85
f 85 132 133
f 85 133 134
f 85 134 135
f 85 135 136
f 85 136 86
f 86 105 87
f 86 136 137
f 86 137 105
f 87 105 89
f 87 89 88
f 89 105 104
f 90 138 139
f 90 139 93
f 90 93 92
f 90 140 189
f 90 189 138
f 91 94 140
f 93 139 141
f 93 141 95
f 94 111 142
f 94 142 143
f 94 143 140
f 95 97 96
f 95 141 144
f 95 144 98
f 95 98 97
f 98 144 145
f 98 145 146
f 98 146 100
f 98 100 99
f 100 146 147
f 100 147 148
f 100 148 101
f 101 148 149
f 101 149 150
f 101 150 112
f 101 112 151
f 101 151 102
f 102 151 112
f 105 137 106
f 106 137 152
f 106 152 153
f 106 153 154
f 106 154 155
f 106 155 156
f 106 156 157
f 106 157 107
f 107 157 158
f 107 158 108
f 108 158 109
f 109 158 159
f 109 159 142
f 109 142 111
f 109 111 110
f 112 150 160
f 112 160 161
f 112 161 113
f 113 161 115
f 115 161 162
f 115 162 163
f 115 163 164
f 115 164 165
f 115 165 116
f 116 165 166
f 116 166 117
f 117 166 118
f 118 166 167
f 118 167 121
f 118 121 120
f 118 120 119
f 121 167 168
f 121 168 122
f 122 169 123
f 122 168 170
f 122 170 171
f 122 171 169
f 123 169 171
f 123 171 172
f 124 127 125
f 125 127 131
f 125 131 173
f 125 173 174
f 125 174 175
f 125 175 126
f 126 175 132
f 128 176 177
f 128 177 178
f 128 178 179
f 128 179 129
f 129 179 180
f 129 180 130
f 130 180 181
f 130 181 182
f 130 182 131
f 131 182 173
f 132 175 133
f 133 175 183
f 133 183 184
f 133 184 134
f 134 184 185
f 134 185 186
f 134 186 135
f 135 186 185
f 135 185 187
f 135 187 152
f 135 152 137
f 135 137 136
f 138 188 139
f 138 189 245
f 138 245 188
f 139 188 190
f 139 190 141
f 140 143 142
f 140 142 191
f 140 191 189
f 141 190 144
f 142 159 192
f 142 192 191
f 144 190 193
f 144 193 145
f 145 193 194
f 145 194 195
f 145 195 147
f 145 147 146
f 147 195 148
f 148 195 196
f 148 196 197
f 148 197 149
f 149 197 198
f 149 198 199
f 149 199 200
f 149 200 160
f 149 160 150
f 152 187 201
f 152 201 153
f 153 187 202
f 153 202 203
f 153 203 204
f 153 204 154
f 153 201 187
f 154 204 205
f 154 205 206
f 154 206 156
f 154 156 155
f 156 206 207
f 156 207 208
f 156 208 159
f 156 159 157
f 157 159 158
f 159 208 192
f 160 200 199
f 160 199 163
f 160 163 161
f 161 163 162
f 163 199 209
f 163 209 164
f 164 209 210
f 164 210 211
f 164 211 212
f 164 212 213
f 164 213 165
f 165 213 166
f 166 213 214
f 166 214 167
f 167 214 168
f 168 214 215
f 168 215 216
f 168 216 170
f 170 216 217
f 170 217 218
f 170 218 171
f 171 218 219
f 171 219 220
f 171 220 172
f 172 220 222
f 172 222 221
f 173 182 223
f 173 223 174
f 174 224 183
f 174 183 175
f 174 223 225
f 174 225 224
f 176 226 227
f 176 227 228
f 176 228 229
f 176 229 177
f 177 229 230
f 177 230 231
f 177 231 232
f 177 232 233
f 177 233 178
f 178 233 180
f 178 180 179
f 180 233 234
f 180 234 181
f 181 234 235
f 181 235 236
f 181 236 182
f 182 236 237
f 182 237 223
f 183 224 184
f 184 224 238
f 184 238 239
f 184 239 240
f 184 240 241
f 184 241 185
f 185 241 242
f 185 242 187
f 187 242 202
f 188 243 244
f 188 244 190
f 188 245 304
f 188 304 358
f 188 358 404
f 188 404 446
f 188 446 482
f 188 482 505
f 188 505 473
f 188 473 438
f 188 438 397
f 188 397 351
f 188 351 300
f 188 300 243
f 189 191 245
f 190 244 193
f 191 192 246
f 191 246 245
f 192 208 246
f 193 244 247
f 193 247 194
f 194 247 248
f 194 248 249
f 194 249 196
f 194 196 195
f 196 249 197
f 197 249 250
f 197 250 198
f 198 251 252
f 198 252 253
f 198 253 254
f 198 254 199
f 198 250 248
f 198 248 255
f 198 255 251
f 199 254 209
f 202 242 203
f 203 242 256
f 203 256 257
f 203 257 258
f 203 258 259
f 203 259 204
f 204 260 205
f 204 259 261
f 204 261 260
f 205 207 206
f 205 260 207
f 207 260 262
f 207 262 263
f 207 263 208
f 208 263 246
f 209 254 264
f 209 264 265
f 209 265 266
f 209 266 210
f 210 266 265
f 210 265 267
f 210 267 268
f 210 268 211
f 211 269 212
f 211 268 270
f 211 270 271
f 211 271 269
f 212 214 213
f 212 269 214
f 214 269 215
f 215 269 271
f 215 271 272
f 215 272 217
f 215 217 216
f 217 272 273
f 217 273 274
f 217 274 218
f 218 274 275
f 218 275 219
f 219 276 222
f 219 222 220
f 219 275 276
f 221 222 278
f 221 278 279
f 221 279 277
f 222 276 280
f 222 280 278
f 223 237 281
f 223 281 282
f 223 282 225
f 224 225 238
f 225 282 238
f 226 283 284
f 226 284 285
f 226 285 286
f 226 286 227
f 227 286 287
f 227 287 288
f 227 288 228
f 228 288 289
f 228 289 290
f 228 290 230
f 228 230 229
f 230 290 291
f 230 291 231
f 231 291 232
f 232 291 292
f 232 292 233
f 233 292 234
f 234 292 293
f 234 293 235
f 235 293 294
f 235 294 295
f 235 295 237
f 235 237 236
f 237 295 296
f 237 296 281
f 238 282 297
f 238 297 298
f 238 298 299
f 238 299 239
f 239 299 257
f 239 257 242
f 239 242 241
f 239 241 240
f 242 257 256
f 243 300 244
f 244 300 301
f 244 301 302
f 244 302 247
f 245 246 303
f 245 303 304
f 246 263 303
f 247 302 305
f 247 305 248
f 248 305 255
f 248 250 249
f 251 255 306
f 251 306 307
f 251 307 252
f 252 307 308
f 252 308 309
f 252 309 310
f 252 310 311
f 252 311 312
f 252 312 253
f 253 312 313
f 253 313 264
f 253 264 314
f 253 314 254
f 254 314 264
f 255 305 306
f 257 299 315
f 257 315 258
f 258 315 316
f 258 316 317
f 258 317 318
f 258 318 319
f 258 319 320
f 258 320 321
f 258 321 259
f 259 322 261
f 259 321 322
f 260 261 262
f 261 322 262
f 262 322 320
f 262 320 323
f 262 323 263
f 263 323 303
f 264 313 312
f 264 312 268
f 264 268 265
f 265 268 267
f 268 312 270
f 270 312 311
f 270 311 324
f 270 324 273
f 270 273 272
f 270 272 271
f 273 324 325
f 273 325 274
f 274 325 326
f 274 326 327
f 274 327 275
f 275 327 328
f 275 328 280
f 275 280 276
f 277 279 330
f 277 330 331
f 277 331 329
f 278 280 328
f 278 328 332
f 278 332 279
f 279 332 333
f 279 333 330
f 281 296 297
f 281 297 282
f 283 334 284
f 284 334 335
f 284 335 336
f 284 336 337
f 284 337 285
f 285 337 287
f 285 287 286
f 287 337 338
f 287 338 339
f 287 339 340
f 287 340 288
f 288 340 289
f 289 340 339
f 289 339 341
f 289 341 290
f 290 341 291
f 291 341 342
f 291 342 292
f 292 342 293
f 293 343 344
f 293 344 294
f 293 342 343
f 294 344 368
f 294 368 345
f 294 345 295
f 295 345 296
f 296 345 297
f 297 345 346
f 297 346 298
f 298 346 347
f 298 347 348
f 298 348 349
f 298 349 299
f 299 349 348
f 299 348 350
f 299 350 315
f 300 351 301
f 301 351 352
f 301 352 353
f 301 353 354
f 301 354 302
f 302 354 355
f 302 355 305
f 303 323 356
f 303 356 357
f 303 357 358
f 303 358 304
f 305 355 308
f 305 308 306
f 306 308 307
f 308 355 359
f 308 359 309
f 309 360 310
f 309 359 360
f 310 361 311
f 310 360 361
f 311 361 324
f 315 350 362
f 315 362 316
f 316 362 350
f 316 350 363
f 316 363 364
f 316 364 317
f 317 365 366
f 317 366 367
f 317 367 318
f 317 364 368
f 317 368 369
f 317 369 365
f 318 370 319
f 318 367 370
f 319 370 371
f 319 371 320
f 320 371 323
f 320 322 321
f 323 371 356
f 324 361 372
f 324 372 325
f 325 372 373
f 325 373 374
f 325 374 326
f 326 375 327
f 326 374 376
f 326 376 375
f 327 375 377
f 327 377 332
f 327 332 328
f 329 331 378
f 329 378 379
f 329 379 380
f 330 333 381
f 330 381 382
f 330 382 331
f 331 382 378
f 332 377 333
f 333 377 383
f 333 383 381
f 334 384 385
f 334 385 335
f 335 385 386
f 335 386 336
f 336 386 387
f 336 387 388
f 336 388 337
f 337 388 387
f 337 387 338
f 338 387 428
f 338 428 389
f 338 389 339
f 339 389 390
f 339 390 341
f 341 390 391
f 341 391 342
f 342 391 392
f 342 392 343
f 343 392 393
f 343 393 394
f 343 394 395
f 343 395 344
f 344 395 396
f 344 396 368
f 345 368 364
f 345 364 346
f 346 364 350
f 346 350 348
f 346 348 347
f 350 364 363
f 351 397 398
f 351 398 352
f 352 398 399
f 352 399 400
f 352 400 353
f 353 400 401
f 353 401 354
f 354 401 359
f 354 359 355
f 356 371 402
f 356 402 403
f 356 403 357
f 357 404 358
f 357 403 405
f 357 405 406
f 357 406 404
f 359 401 360
f 360 407 361
f 360 401 407
f 361 407 372
f 365 369 408
f 365 408 409
f 365 409 366
f 366 409 402
f 366 402 371
f 366 371 370
f 366 370 367
f 368 396 369
f 369 396 408
f 372 407 373
f 373 407 410
f 373 410 374
f 374 410 411
f 374 411 412
f 374 412 376
f 375 413 383
f 375 383 377
f 375 376 414
f 375 414 415
f 375 415 413
f 376 412 416
f 376 416 414
f 378 382 379
f 379 382 417
f 379 417 418
f 379 418 380
f 380 418 419
f 381 383 420
f 381 420 382
f 382 420 417
f 383 413 420
f 384 421 385
f 385 421 422
f 385 422 423
f 385 423 424
f 385 424 386
f 386 424 425
f 386 425 426
f 386 426 427
f 386 427 428
f 386 428 387
f 389 428 429
f 389 429 390
f 390 429 430
f 390 430 431
f 390 431 432
f 390 432 391
f 391 432 433
f 391 433 392
f 392 433 393
f 393 433 434
f 393 434 435
f 393 435 394
f 394 435 436
f 394 436 395
f 395 436 437
f 395 437 396
f 396 437 408
f 397 438 439
f 397 439 440
f 397 440 441
f 397 441 442
f 397 442 443
f 397 443 398
f 398 443 399
f 399 443 444
f 399 444 410
f 399 410 400
f 400 410 407
f 400 407 401
f 402 409 403
f 403 409 445
f 403 445 405
f 404 406 447
f 404 447 446
f 405 445 448
f 405 448 406
f 406 448 449
f 406 449 447
f 408 437 445
f 408 445 409
f 410 444 411
f 411 444 450
f 411 450 412
f 412 450 451
f 412 451 416
f 413 452 420
f 413 415 453
f 413 453 452
f 414 416 454
f 414 454 415
f 415 454 453
f 416 451 455
f 416 455 454
f 417 420 456
f 417 456 457
f 417 457 458
f 417 458 459
f 417 459 418
f 418 459 458
f 418 458 419
f 419 458 460
f 420 452 456
f 422 461 423
f 423 462 426
f 423 426 424
f 423 461 462
f 424 426 425
f 426 429 428
f 426 428 427
f 426 462 429
f 429 462 463
f 429 463 464
f 429 464 465
f 429 465 466
f 429 466 467
f 429 467 430
f 430 467 468
f 430 468 431
f 431 468 469
f 431 469 432
f 432 469 434
f 432 434 433
f 434 469 470
f 434 470 471
f 434 471 435
f 435 471 472
f 435 472 436
f 436 472 449
f 436 449 448
f 436 448 437
f 437 448 445
f 438 473 439
f 439 473 440
f 440 474 475
f 440 475 441
f 441 475 476
f 441 476 477
f 441 477 478
f 441 478 442
f 442 478 450
f 442 450 444
f 442 444 443
f 446 479 480
f 446 480 481
f 446 481 482
f 446 447 483
f 446 483 484
f 446 484 479
f 447 449 483
f 449 472 484
f 449 484 483
f 450 478 451
f 451 478 477
f 451 477 476
f 451 476 455
f 452 453 485
f 452 485 486
f 452 486 456
f 453 454 487
f 453 487 485
f 454 455 488
f 454 488 487
f 455 476 489
f 455 489 488
f 456 486 490
f 456 490 458
f 456 458 457
f 458 490 492
f 458 492 491
f 458 491 460
f 460 491 492
f 460 492 493
f 461 494 462
f 462 495 463
f 462 494 496
f 462 496 495
f 463 495 464
f 464 495 497
f 464 497 498
f 464 498 465
f 465 498 466
f 466 499 467
f 466 498 500
f 466 500 499
f 467 499 468
f 468 499 501
f 468 501 469
f 469 501 470
f 470 501 502
f 470 502 503
f 470 503 504
f 470 504 471
f 471 504 484
f 471 484 472
f 474 506 507
f 474 507 508
f 474 508 489
f 474 489 475
f 475 489 476
f 479 509 480
f 479 484 504
f 479 504 503
f 479 503 502
f 479 502 509
f 480 510 481
f 480 509 511
f 481 510 482
f 482 510 505
f 485 487 512
f 485 512 513
f 485 513 514
f 485 514 515
f 485 515 516
f 485 516 486
f 486 516 517
f 486 517 490
f 487 488 518
f 487 518 512
f 488 489 518
f 489 508 519
f 489 519 518
f 490 517 516
f 490 516 520
f 490 520 521
f 490 521 492
f 492 521 522
f 492 522 493
f 495 496 523
f 495 523 497
f 497 523 524
f 497 524 525
f 497 525 498
f 498 525 500
f 499 500 501
f 500 525 526
f 500 526 509
f 500 509 502
f 500 502 501
f 506 527 528
f 506 528 529
f 506 529 507
f 507 529 508
f 508 529 519
f 509 526 511
f 512 518 519
f 512 519 513
f 513 519 529
f 513 529 528
f 513 528 514
f 514 528 515
f 515 530 516
f 515 528 527
f 515 527 530
f 516 530 521
f 516 521 520
f 521 530 522
f 522 530 527
f 523 531 524
f 524 531 525
f 525 531 526

