# https://github.com/mikedh/trimesh
v 0.04398063 0.01164567 -0.00672084
v 0.04469990 0.01161781 -0.00672084
v 0.04469990 0.01162842 -0.00899982
v 0.04398063 0.01164567 -0.00899982
v 0.03522632 0.01164567 -0.00672084
v 0.05549537 0.01054265 -0.00672084
v 0.05549537 0.01054597 -0.00828051
v 0.05549537 0.01052342 -0.00899982
v 0.04519237 0.01155480 -0.00971963
v 0.04469990 0.01159924 -0.00971963
v 0.04398063 0.01160720 -0.00971963
v 0.04110356 0.01160786 -0.00971963
v 0.03822650 0.01161449 -0.00960109
v 0.03678797 0.01164567 -0.00899982
v 0.03090424 0.01164567 -0.00672134
v 0.03031457 0.01145929 -0.00672134
v 0.03464313 0.01133526 -0.00672084
v 0.05621464 0.01042260 -0.00672084
v 0.05621464 0.01043587 -0.00828051
v 0.05621464 0.01041597 -0.00899982
v 0.05619844 0.01024087 -0.00960109
v 0.04512109 0.01153424 -0.01011778
v 0.04469990 0.01154286 -0.01013905
v 0.04398063 0.01154419 -0.01014209
v 0.04326136 0.01154485 -0.01014209
v 0.03822650 0.01154551 -0.01014412
v 0.03678797 0.01160786 -0.00971963
v 0.03810662 0.01161449 -0.00960109
v 0.03031457 0.01164434 -0.00756070
v 0.03031457 0.01164567 -0.00684038
v 0.03031457 0.01164567 -0.00672337
v 0.03031457 0.00965255 -0.00672134
v 0.03464313 0.00983495 -0.00672084
v 0.05681726 0.01029725 -0.00672084
v 0.05693390 0.01027271 -0.00672084
v 0.05693390 0.01028067 -0.00828051
v 0.05693390 0.01025480 -0.00899982
v 0.05734537 0.01009495 -0.00938986
v 0.05693390 0.01015265 -0.00949066
v 0.05631184 0.01022230 -0.00960109
v 0.05621464 0.01023225 -0.00961882
v 0.04538676 0.01134123 -0.01040904
v 0.04527337 0.01135648 -0.01040904
v 0.04470314 0.01137903 -0.01050022
v 0.04470314 0.01142082 -0.01040904
v 0.04451846 0.01142215 -0.01040904
v 0.04379271 0.01142281 -0.01040904
v 0.03750399 0.01154551 -0.01014361
v 0.04182283 0.01137837 -0.01050326
v 0.03678797 0.01154485 -0.01014310
v 0.03637002 0.01153623 -0.01012132
v 0.03031457 0.01164368 -0.00756729
v 0.03031457 0.00938393 -0.00807738
v 0.03490880 0.00555556 -0.01115925
v 0.03541099 0.00555556 -0.01070183
v 0.03548227 0.00555556 -0.01068663
v 0.04554876 0.00486974 -0.00960211
v 0.04071153 0.00822520 -0.00672084
v 0.05745229 0.01013806 -0.00672084
v 0.05745229 0.01013806 -0.00756070
v 0.05745553 0.01013408 -0.00828051
v 0.05741665 0.01011618 -0.00899982
v 0.05777305 0.00999944 -0.00899982
v 0.05837567 0.00976464 -0.00899982
v 0.05888110 0.00943235 -0.00948104
v 0.05859923 0.00947347 -0.00960109
v 0.05831411 0.00951260 -0.00972115
v 0.05803548 0.00936668 -0.01008637
v 0.05693714 0.01006908 -0.00960160
v 0.05621464 0.00996760 -0.00997898
v 0.05549537 0.01003990 -0.01004888
v 0.04542240 0.01098704 -0.01103261
v 0.04470314 0.01101888 -0.01105439
v 0.04398387 0.01137837 -0.01050276
v 0.03875461 0.01142082 -0.01040904
v 0.03731608 0.01141949 -0.01040904
v 0.04398387 0.01101888 -0.01105439
v 0.04182283 0.01101755 -0.01105439
v 0.03966503 0.01137638 -0.01050377
v 0.03678473 0.01141817 -0.01040904
v 0.03668105 0.01141352 -0.01040904
v 0.03678473 0.01101357 -0.01104933
v 0.03031457 0.01158199 -0.00801710
v 0.03031457 0.00936403 -0.00828102
v 0.03031457 0.00969832 -0.00868322
v 0.03536563 0.00555556 -0.01171139
v 0.04502713 0.00486974 -0.01040904
v 0.04830919 0.00486974 -0.00960211
v 0.04830595 0.00822388 -0.00672084
v 0.05781193 0.00999612 -0.00672084
v 0.05781517 0.01000408 -0.00828051
v 0.05837567 0.00978056 -0.00828051
v 0.05900746 0.00949602 -0.00828051
v 0.05898154 0.00948408 -0.00899982
v 0.05974941 0.00878168 -0.00969227
v 0.05947077 0.00864638 -0.01008536
v 0.05851499 0.00924133 -0.00996176
v 0.05934118 0.00929704 -0.00899982
v 0.06023540 0.00868418 -0.00943393
v 0.05992112 0.00874786 -0.00960109
v 0.05909494 0.00873658 -0.01013753
v 0.05831411 0.00900122 -0.01018261
v 0.05765641 0.00942306 -0.01012385
v 0.05693714 0.00988271 -0.00985133
v 0.05693714 0.00952321 -0.01017856
v 0.04542240 0.01063750 -0.01139277
v 0.04470314 0.01064745 -0.01141455
v 0.03894253 0.01137572 -0.01050377
v 0.03678473 0.01137240 -0.01050377
v 0.03750399 0.01137373 -0.01050377
v 0.04038430 0.01101623 -0.01105388
v 0.03894253 0.01101556 -0.01105236
v 0.03678473 0.01063485 -0.01140898
v 0.03621774 0.01094128 -0.01096524
v 0.04038430 0.01064281 -0.01141354
v 0.03966503 0.01064148 -0.01141303
v 0.03894253 0.01064016 -0.01141202
v 0.03750399 0.01063684 -0.01140999
v 0.03031457 0.01115949 -0.00836511
v 0.03031457 0.00970429 -0.00868626
v 0.03031457 0.01036158 -0.00867815
v 0.03614970 0.00971954 -0.01166175
v 0.03611082 0.00899924 -0.01170480
v 0.03678473 0.00899924 -0.01189071
v 0.03604926 0.00555556 -0.01185373
v 0.03678473 0.00555556 -0.01189577
v 0.04825411 0.00486974 -0.01040904
v 0.04830919 0.00486974 -0.01039891
v 0.06341378 0.00487041 -0.00960160
v 0.06095791 0.00822388 -0.00672084
v 0.05837567 0.00976862 -0.00672084
v 0.05900422 0.00949204 -0.00672084
v 0.05936386 0.00930898 -0.00672084
v 0.05936710 0.00930964 -0.00828051
v 0.05994704 0.00847791 -0.00991414
v 0.06075703 0.00779740 -0.00998303
v 0.06027752 0.00799837 -0.01012487
v 0.05974941 0.00825439 -0.01016539
v 0.05981745 0.00901847 -0.00899982
v 0.06039740 0.00841888 -0.00960109
v 0.06029048 0.00872133 -0.00899982
v 0.06064687 0.00844872 -0.00899982
v 0.06093199 0.00822388 -0.00899982
v 0.06084127 0.00822388 -0.00926474
v 0.06111342 0.00783786 -0.00960160
v 0.06076675 0.00813102 -0.00960160
v 0.05909494 0.00827893 -0.01028494
v 0.04595051 0.01020373 -0.01158830
v 0.04542240 0.01027735 -0.01162578
v 0.04470314 0.01028730 -0.01162882
v 0.03678473 0.01027470 -0.01162224
v 0.03626634 0.01020903 -0.01158779
v 0.04110356 0.01028332 -0.01162629
v 0.04398387 0.01028663 -0.01162832
v 0.03894253 0.01028000 -0.01162426
v 0.03031457 0.01072107 -0.00862801
v 0.03678473 0.00971954 -0.01180510
v 0.03822326 0.00971954 -0.01180763
v 0.03966503 0.00971954 -0.01181017
v 0.04110356 0.00971954 -0.01181169
v 0.04398387 0.00971954 -0.01181422
v 0.03822326 0.00899924 -0.01189172
v 0.03678473 0.00827959 -0.01189577
v 0.04470314 0.00555556 -0.01189577
v 0.06106482 0.00487041 -0.01039587
v 0.06125598 0.00487041 -0.01039435
v 0.06178409 0.00487041 -0.01038524
v 0.06197525 0.00487041 -0.01036903
v 0.06259083 0.00487041 -0.01024999
v 0.06271071 0.00487041 -0.01021858
v 0.06306386 0.00487041 -0.01008434
v 0.06320966 0.00487041 -0.00992174
v 0.06336842 0.00487041 -0.00970392
v 0.06324854 0.00523984 -0.00960160
v 0.06315782 0.00540102 -0.00960160
v 0.06277227 0.00598668 -0.00960160
v 0.06255843 0.00628184 -0.00960160
v 0.06222472 0.00670500 -0.00960160
v 0.06096763 0.00822388 -0.00828051
v 0.06065983 0.00846730 -0.00672084
v 0.05981745 0.00902776 -0.00672084
v 0.05981745 0.00903969 -0.00828051
v 0.06049783 0.00824908 -0.00970848
v 0.06125922 0.00756393 -0.00975103
v 0.06150221 0.00709168 -0.00999823
v 0.06101946 0.00731918 -0.01013601
v 0.06052375 0.00756061 -0.01019984
v 0.06030668 0.00873061 -0.00828051
v 0.06066631 0.00846663 -0.00828051
v 0.06182945 0.00714806 -0.00960160
v 0.06156701 0.00741270 -0.00960160
v 0.05981421 0.00756128 -0.01033559
v 0.04542240 0.00971954 -0.01173925
v 0.04470314 0.00971954 -0.01178180
v 0.04326136 0.00899924 -0.01189375
v 0.04182283 0.00899924 -0.01189375
v 0.03966503 0.00899924 -0.01189274
v 0.04326136 0.00827959 -0.01189577
v 0.04470314 0.00612066 -0.01189577
v 0.04542240 0.00555556 -0.01189426
v 0.06197525 0.00540102 -0.01032951
v 0.04542240 0.00612066 -0.01189375
v 0.06254872 0.00540102 -0.01017755
v 0.06303147 0.00500571 -0.01006510
v 0.06290835 0.00540102 -0.00991718
v 0.06265239 0.00606229 -0.00968265
v 0.06220852 0.00633224 -0.00996733
v 0.06197525 0.00684229 -0.00974293
v 0.06030020 0.00871867 -0.00672084
v 0.06172901 0.00661214 -0.01013956
v 0.06125922 0.00684760 -0.01020896
v 0.06053671 0.00684097 -0.01034927
v 0.06125598 0.00612132 -0.01035079
v 0.06197201 0.00610275 -0.01019832
v 0.06240292 0.00585138 -0.01011980
f 1 2 3
f 1 3 4
f 1 4 14
f 1 14 30
f 1 30 31
f 1 31 15
f 1 15 5
f 1 5 17
f 1 17 33
f 1 33 58
f 1 58 89
f 1 89 130
f 1 130 180
f 1 180 209
f 1 209 181
f 1 181 133
f 1 133 132
f 1 132 131
f 1 131 90
f 1 90 59
f 1 59 35
f 1 35 34
f 1 34 18
f 1 18 6
f 1 6 2
f 2 6 3
f 3 6 7
f 3 7 8
f 3 8 9
f 3 9 10
f 3 10 4
f 4 10 11
f 4 11 12
f 4 12 13
f 4 13 28
f 4 28 14
f 5 15 16
f 5 16 17
f 6 18 19
f 6 19 7
f 7 19 20
f 7 20 8
f 8 20 21
f 8 21 22
f 8 22 9
f 9 22 10
f 10 22 23
f 10 23 11
f 11 23 24
f 11 24 25
f 11 25 12
f 12 25 26
f 12 26 27
f 12 27 28
f 12 28 13
f 14 28 27
f 14 27 29
f 14 29 30
f 15 31 16
f 16 32 33
f 16 33 17
f 16 31 30
f 16 30 29
f 16 29 52
f 16 52 83
f 16 83 119
f 16 119 156
f 16 156 121
f 16 121 120
f 16 120 85
f 16 85 84
f 16 84 53
f 16 53 32
f 18 34 19
f 19 34 35
f 19 35 36
f 19 36 20
f 20 36 37
f 20 37 38
f 20 38 39
f 20 39 40
f 20 40 21
f 21 40 41
f 21 41 22
f 22 42 43
f 22 43 44
f 22 44 45
f 22 45 23
f 22 41 42
f 23 45 46
f 23 46 24
f 24 46 25
f 25 46 47
f 25 47 26
f 26 48 27
f 26 47 49
f 26 49 48
f 27 48 50
f 27 50 51
f 27 51 52
f 27 52 29
f 32 53 54
f 32 54 55
f 32 55 56
f 32 56 57
f 32 57 58
f 32 58 33
f 35 59 36
f 36 59 60
f 36 60 61
f 36 61 37
f 37 61 62
f 37 62 38
f 38 62 63
f 38 63 64
f 38 64 65
f 38 65 66
f 38 66 67
f 38 67 68
f 38 68 39
f 39 69 70
f 39 70 40
f 39 68 69
f 40 70 41
f 41 70 71
f 41 71 72
f 41 72 42
f 42 72 43
f 43 72 44
f 44 73 74
f 44 74 47
f 44 47 46
f 44 46 45
f 44 72 73
f 47 74 49
f 48 49 75
f 48 75 76
f 48 76 50
f 49 74 73
f 49 73 77
f 49 77 78
f 49 78 79
f 49 79 75
f 50 76 80
f 50 80 81
f 50 81 51
f 51 81 82
f 51 82 83
f 51 83 52
f 53 84 54
f 54 84 85
f 54 85 86
f 54 86 87
f 54 87 57
f 54 57 55
f 55 57 56
f 57 88 130
f 57 130 89
f 57 89 58
f 57 87 127
f 57 127 128
f 57 128 88
f 59 90 91
f 59 91 60
f 60 91 61
f 61 63 62
f 61 91 63
f 63 91 64
f 64 91 92
f 64 92 93
f 64 93 94
f 64 94 65
f 65 95 96
f 65 96 97
f 65 97 66
f 65 94 98
f 65 98 99
f 65 99 100
f 65 100 95
f 66 97 68
f 66 68 67
f 68 97 96
f 68 96 101
f 68 101 102
f 68 102 103
f 68 103 70
f 68 70 104
f 68 104 69
f 69 104 70
f 70 103 105
f 70 105 106
f 70 106 71
f 71 106 72
f 72 106 73
f 73 106 107
f 73 107 77
f 75 108 76
f 75 79 108
f 76 109 80
f 76 108 110
f 76 110 109
f 77 107 78
f 78 111 112
f 78 112 108
f 78 108 79
f 78 107 111
f 80 109 81
f 81 109 82
f 82 113 114
f 82 114 83
f 82 109 112
f 82 112 115
f 82 115 116
f 82 116 117
f 82 117 118
f 82 118 113
f 83 114 119
f 85 120 86
f 86 120 121
f 86 121 122
f 86 122 123
f 86 123 124
f 86 124 125
f 86 125 87
f 87 125 126
f 87 126 164
f 87 164 127
f 88 128 129
f 88 129 130
f 90 131 92
f 90 92 91
f 92 131 132
f 92 132 93
f 93 132 133
f 93 133 134
f 93 134 94
f 94 134 98
f 95 100 96
f 96 100 99
f 96 99 135
f 96 135 136
f 96 136 137
f 96 137 138
f 96 138 101
f 98 134 139
f 98 139 99
f 99 140 135
f 99 139 141
f 99 141 142
f 99 142 143
f 99 143 144
f 99 144 145
f 99 145 146
f 99 146 140
f 101 138 147
f 101 147 102
f 102 147 148
f 102 148 103
f 103 148 106
f 103 106 105
f 106 148 149
f 106 149 107
f 107 149 150
f 107 150 115
f 107 115 111
f 108 112 110
f 109 110 112
f 111 115 112
f 113 118 151
f 113 151 152
f 113 152 114
f 114 152 119
f 115 153 116
f 115 150 154
f 115 154 153
f 116 153 155
f 116 155 151
f 116 151 117
f 117 151 118
f 119 152 156
f 121 156 122
f 122 156 152
f 122 152 157
f 122 157 124
f 122 124 123
f 124 157 158
f 124 158 159
f 124 159 160
f 124 160 161
f 124 161 162
f 124 162 163
f 124 163 125
f 125 163 126
f 126 163 198
f 126 198 199
f 126 199 164
f 127 165 166
f 127 166 167
f 127 167 168
f 127 168 128
f 127 164 165
f 128 168 169
f 128 169 170
f 128 170 171
f 128 171 172
f 128 172 173
f 128 173 129
f 129 173 174
f 129 174 130
f 130 174 175
f 130 175 176
f 130 176 177
f 130 177 178
f 130 178 179
f 130 179 180
f 133 181 182
f 133 182 134
f 134 182 139
f 135 140 183
f 135 183 136
f 136 183 146
f 136 146 145
f 136 145 184
f 136 184 185
f 136 185 186
f 136 186 137
f 137 186 187
f 137 187 138
f 138 187 147
f 139 182 141
f 140 146 183
f 141 182 188
f 141 188 189
f 141 189 142
f 142 189 143
f 143 189 179
f 143 179 178
f 143 178 190
f 143 190 191
f 143 191 144
f 144 191 145
f 145 191 184
f 147 187 192
f 147 192 148
f 148 193 149
f 148 192 193
f 149 193 194
f 149 194 161
f 149 161 150
f 150 161 160
f 150 160 154
f 151 155 159
f 151 159 158
f 151 158 157
f 151 157 152
f 153 159 155
f 153 154 159
f 154 160 159
f 161 194 195
f 161 195 196
f 161 196 197
f 161 197 162
f 162 197 163
f 163 197 196
f 163 196 195
f 163 195 198
f 164 199 200
f 164 200 165
f 165 200 166
f 166 200 167
f 167 200 168
f 168 201 169
f 168 200 202
f 168 202 193
f 168 193 201
f 169 201 170
f 170 201 203
f 170 203 171
f 171 204 172
f 171 203 204
f 172 174 173
f 172 204 174
f 174 204 175
f 175 204 205
f 175 205 176
f 176 205 206
f 176 206 177
f 177 206 207
f 177 207 178
f 178 207 208
f 178 208 190
f 179 189 180
f 180 189 188
f 180 188 209
f 181 209 188
f 181 188 182
f 184 191 185
f 185 191 190
f 185 190 208
f 185 208 207
f 185 207 210
f 185 210 186
f 186 210 211
f 186 211 187
f 187 212 192
f 187 211 212
f 192 212 193
f 193 212 213
f 193 213 201
f 193 202 194
f 194 202 195
f 195 202 198
f 198 202 199
f 199 202 200
f 201 213 214
f 201 214 203
f 203 214 215
f 203 215 204
f 204 215 205
f 205 215 207
f 205 207 206
f 207 215 210
f 210 214 211
f 210 215 214
f 211 214 213
f 211 213 212

