# https://github.com/mikedh/trimesh
v 0.00993939 0.04084381 0.00811887
v 0.01209401 0.03548022 0.00961462
v 0.01198110 0.03528646 0.01029889
v 0.01187761 0.03513482 0.01155552
v 0.00993939 0.04083538 0.00990461
v 0.00993939 0.04449582 0.00811887
v 0.01468144 0.03997328 0.00811887
v 0.01468144 0.03928528 0.00814686
v 0.01468144 0.03546759 0.00837579
v 0.01438036 0.03548163 0.00838088
v 0.01276204 0.03525136 0.00933480
v 0.01276204 0.03478661 0.01029889
v 0.01276204 0.03463216 0.01155552
v 0.01276204 0.03462795 0.01280452
v 0.01187761 0.03513342 0.01280452
v 0.00993939 0.04083398 0.01116378
v 0.00993939 0.04449582 0.01638107
v 0.01025929 0.04465729 0.00811887
v 0.01468144 0.04565839 0.00811887
v 0.10606004 0.03994941 0.01583416
v 0.10542965 0.03897217 0.01583416
v 0.01468144 0.03529629 0.00860728
v 0.10425354 0.03852146 0.01583416
v 0.08407159 0.03355242 0.01583416
v 0.01398519 0.03511657 0.00893288
v 0.01401341 0.03461672 0.01029889
v 0.05015275 0.03355102 0.02399970
v 0.01276204 0.03462795 0.02157547
v 0.01187761 0.03513201 0.01638107
v 0.00993939 0.04083398 0.01366686
v 0.01065446 0.04454215 0.02510370
v 0.01065446 0.04455479 0.02505282
v 0.01065446 0.04473732 0.02408110
v 0.01065446 0.04477944 0.02283210
v 0.01025929 0.04465729 0.01638107
v 0.00993939 0.04083538 0.01638107
v 0.01065446 0.04355227 0.02817658
v 0.01151066 0.04505324 0.00904481
v 0.01151066 0.04504902 0.00811887
v 0.01151066 0.04505324 0.02283210
v 0.02998961 0.04789369 0.01213296
v 0.10108276 0.04234055 0.01583416
v 0.10173198 0.04224929 0.01583416
v 0.10232473 0.04215662 0.01583416
v 0.10301158 0.04204851 0.01583416
v 0.10383956 0.04190248 0.01583416
v 0.10455463 0.04176067 0.01583416
v 0.10550492 0.04118500 0.01583416
v 0.10490275 0.03994941 0.01720271
v 0.10489334 0.03930634 0.01719763
v 0.10515679 0.03907467 0.01656677
v 0.10490275 0.04058405 0.01720017
v 0.10380192 0.03801178 0.01740367
v 0.10380192 0.03801178 0.01707298
v 0.01468144 0.03501969 0.00899393
v 0.08503129 0.03355242 0.01944887
v 0.07214119 0.03355102 0.01881293
v 0.06666525 0.03355102 0.01847715
v 0.08207692 0.03355242 0.01583416
v 0.06290172 0.03355102 0.01890705
v 0.06153744 0.03355102 0.01912836
v 0.05692711 0.03355102 0.02081743
v 0.05539347 0.03355102 0.02142793
v 0.05418914 0.03355102 0.02194178
v 0.05288131 0.03355102 0.02253448
v 0.05164875 0.03355102 0.02313735
v 0.05108422 0.03355102 0.02343243
v 0.05044442 0.03355102 0.02381654
v 0.05911936 0.03355102 0.02399970
v 0.03782717 0.03933302 0.03410614
v 0.01526479 0.03506742 0.02519782
v 0.01401341 0.03460829 0.02408110
v 0.01276204 0.03465182 0.02283210
v 0.01187761 0.03513201 0.02157547
v 0.01141658 0.04472187 0.02543693
v 0.01151066 0.04503779 0.02408110
v 0.01065446 0.04478225 0.02157547
v 0.01189642 0.03515588 0.02283210
v 0.01065446 0.04047453 0.02817658
v 0.01120958 0.04362529 0.02817658
v 0.01276204 0.04467835 0.02640357
v 0.01276204 0.04509115 0.02533773
v 0.03774249 0.03933302 0.03409851
v 0.03774249 0.03995503 0.03387211
v 0.03774249 0.04059528 0.03354396
v 0.03774249 0.04064162 0.03351852
v 0.03774249 0.04122431 0.03315731
v 0.03774249 0.04215802 0.03250101
v 0.01402282 0.04524138 0.02533773
v 0.01527420 0.04536073 0.02533773
v 0.01836970 0.04559240 0.02596350
v 0.02154048 0.04583671 0.02533773
v 0.02280126 0.04589990 0.02533773
v 0.02405264 0.04594904 0.02533773
v 0.02655539 0.04604030 0.02533773
v 0.02780676 0.04607400 0.02533773
v 0.02905814 0.04610068 0.02533773
v 0.03031892 0.04611613 0.02533773
v 0.03157030 0.04612034 0.02533773
v 0.03282167 0.04612034 0.02533773
v 0.03408246 0.04611613 0.02533773
v 0.03782717 0.04608664 0.02533773
v 0.04032992 0.04604733 0.02533773
v 0.04159071 0.04606277 0.02408618
v 0.10049942 0.04238689 0.01583416
v 0.04159071 0.04417288 0.02937216
v 0.04131785 0.04572579 0.02613902
v 0.10301158 0.04162728 0.01670922
v 0.10302099 0.04095473 0.01790225
v 0.10426295 0.04076799 0.01745455
v 0.10426295 0.03994941 0.01776235
v 0.10287044 0.03869978 0.01879767
v 0.10350084 0.03869978 0.01827873
v 0.10423472 0.03881491 0.01756393
v 0.10259759 0.04064162 0.01852294
v 0.10347261 0.03994941 0.01838048
v 0.10263522 0.03798510 0.01861197
v 0.08505952 0.03355242 0.02116847
v 0.08524770 0.03355242 0.02042823
v 0.08525711 0.03355242 0.02032648
v 0.07214119 0.03355102 0.02248615
v 0.06638298 0.03355102 0.01849750
v 0.06523511 0.03355102 0.01859925
v 0.08170057 0.03355242 0.02235641
v 0.08044919 0.03355242 0.02248869
v 0.03907855 0.03933302 0.03409087
v 0.03845757 0.03933302 0.03409851
v 0.03907855 0.03995503 0.03386702
v 0.03782717 0.03995503 0.03387211
v 0.01401341 0.03508989 0.02514185
v 0.01303490 0.03526119 0.02496379
v 0.01267736 0.03502811 0.02415741
v 0.01199051 0.03530612 0.02379111
v 0.01151066 0.04366320 0.02817658
v 0.03907855 0.04066128 0.03353124
v 0.03907855 0.04128328 0.03312678
v 0.03782717 0.04215802 0.03250356
v 0.03774249 0.04278284 0.03187524
v 0.01482257 0.04403387 0.02817658
v 0.01368410 0.04391172 0.02817658
v 0.01645971 0.04420236 0.02817658
v 0.01696779 0.04424308 0.02817658
v 0.01778635 0.04430767 0.02817658
v 0.01802158 0.04432452 0.02817658
v 0.02028911 0.04566120 0.02606525
v 0.02154048 0.04570192 0.02611867
v 0.02280126 0.04573421 0.02615682
v 0.02530402 0.04578055 0.02620770
v 0.02655539 0.04580161 0.02623314
v 0.02780676 0.04581846 0.02625094
v 0.02905814 0.04582969 0.02626366
v 0.03031892 0.04583671 0.02627129
v 0.03157030 0.04583671 0.02627638
v 0.03282167 0.04583390 0.02627892
v 0.03533383 0.04582969 0.02627129
v 0.03782717 0.04582548 0.02625857
v 0.03907855 0.04581425 0.02624585
v 0.04032992 0.04579880 0.02623314
v 0.10176020 0.04123133 0.01782085
v 0.04032992 0.04426134 0.02954768
v 0.04032992 0.04380501 0.03034897
v 0.10201424 0.03869978 0.01942598
v 0.10124271 0.03802161 0.01976430
v 0.10049942 0.03963209 0.01994491
v 0.10135562 0.03949870 0.01982790
v 0.10176020 0.04072306 0.01862977
v 0.04128962 0.04317317 0.03109430
v 0.04032992 0.04271685 0.03183200
v 0.04127081 0.04196567 0.03234838
v 0.08501248 0.03355242 0.02120154
v 0.08409982 0.03355242 0.02160345
v 0.08186052 0.03355242 0.02233098
v 0.04033933 0.03933302 0.03396623
v 0.03968071 0.03933302 0.03403491
v 0.04033933 0.04003787 0.03371948
v 0.03993475 0.04064162 0.03351852
v 0.04032992 0.04208922 0.03245268
v 0.03907855 0.04215101 0.03250356
v 0.03907855 0.04277722 0.03187524
v 0.03782717 0.04278284 0.03187524
v 0.03907855 0.04328269 0.03124438
v 0.03774249 0.04323636 0.03129017
v 0.02029852 0.04447195 0.02817658
v 0.02154048 0.04454496 0.02817658
v 0.02280126 0.04461657 0.02817658
v 0.02405264 0.04467133 0.02817658
v 0.02530402 0.04471766 0.02817658
v 0.03774249 0.04430346 0.02964180
v 0.03907855 0.04429504 0.02961636
v 0.04032992 0.04325461 0.03120623
v 0.03907855 0.04386819 0.03034897
v 0.10138385 0.03869978 0.01984570
v 0.10049942 0.03869978 0.02013061
v 0.04098854 0.03933302 0.03382632
v 0.04077214 0.04050964 0.03345493
v 0.04135549 0.03967281 0.03363045
v 0.04033933 0.04111901 0.03313950
v 0.03774249 0.04386258 0.03034897
v 0.03774249 0.04326865 0.03124438
f 1 2 3
f 1 3 4
f 1 4 5
f 1 5 16
f 1 16 30
f 1 30 36
f 1 36 17
f 1 17 6
f 1 6 18
f 1 18 39
f 1 39 19
f 1 19 7
f 1 7 8
f 1 8 9
f 1 9 10
f 1 10 11
f 1 11 2
f 2 11 12
f 2 12 3
f 3 12 4
f 4 12 13
f 4 13 14
f 4 14 15
f 4 15 5
f 5 15 16
f 6 17 35
f 6 35 18
f 7 19 20
f 7 20 8
f 8 20 21
f 8 21 9
f 9 22 10
f 9 21 23
f 9 23 24
f 9 24 22
f 10 22 25
f 10 25 11
f 11 25 12
f 12 25 26
f 12 26 13
f 13 26 27
f 13 27 14
f 14 28 74
f 14 74 29
f 14 29 15
f 14 27 28
f 15 29 16
f 16 29 74
f 16 74 30
f 17 31 32
f 17 32 33
f 17 33 34
f 17 34 35
f 17 36 79
f 17 79 37
f 17 37 31
f 18 35 40
f 18 40 38
f 18 38 39
f 19 39 38
f 19 38 40
f 19 40 41
f 19 41 42
f 19 42 43
f 19 43 44
f 19 44 45
f 19 45 46
f 19 46 47
f 19 47 48
f 19 48 20
f 20 49 50
f 20 50 51
f 20 51 21
f 20 48 52
f 20 52 49
f 21 51 53
f 21 53 54
f 21 54 23
f 22 55 25
f 22 24 55
f 23 54 24
f 24 56 57
f 24 57 58
f 24 58 59
f 24 59 26
f 24 26 55
f 24 54 56
f 25 55 26
f 26 59 60
f 26 60 61
f 26 61 62
f 26 62 63
f 26 63 64
f 26 64 65
f 26 65 66
f 26 66 67
f 26 67 68
f 26 68 27
f 27 68 67
f 27 67 66
f 27 66 65
f 27 65 64
f 27 64 63
f 27 63 62
f 27 62 61
f 27 61 60
f 27 60 123
f 27 123 122
f 27 122 58
f 27 58 57
f 27 57 121
f 27 121 69
f 27 69 70
f 27 70 71
f 27 71 72
f 27 72 28
f 28 72 73
f 28 73 74
f 30 74 36
f 31 37 75
f 31 75 32
f 32 75 76
f 32 76 33
f 33 76 34
f 34 77 35
f 34 76 40
f 34 40 77
f 35 77 40
f 36 74 78
f 36 78 79
f 37 80 81
f 37 81 82
f 37 82 75
f 37 79 83
f 37 83 84
f 37 84 85
f 37 85 86
f 37 86 87
f 37 87 88
f 37 88 80
f 40 76 41
f 41 76 89
f 41 89 90
f 41 90 91
f 41 91 92
f 41 92 93
f 41 93 94
f 41 94 95
f 41 95 96
f 41 96 97
f 41 97 98
f 41 98 99
f 41 99 100
f 41 100 101
f 41 101 102
f 41 102 103
f 41 103 104
f 41 104 105
f 41 105 42
f 42 106 43
f 42 105 103
f 42 103 107
f 42 107 106
f 43 106 108
f 43 108 44
f 44 108 45
f 45 108 46
f 46 108 47
f 47 52 48
f 47 108 109
f 47 109 110
f 47 110 52
f 49 52 111
f 49 111 50
f 50 111 112
f 50 112 113
f 50 113 114
f 50 114 53
f 50 53 51
f 52 110 115
f 52 115 116
f 52 116 111
f 53 114 113
f 53 113 117
f 53 117 118
f 53 118 119
f 53 119 120
f 53 120 54
f 54 120 56
f 56 120 57
f 57 120 121
f 58 122 59
f 59 122 123
f 59 123 60
f 69 121 124
f 69 124 125
f 69 125 126
f 69 126 127
f 69 127 70
f 70 127 128
f 70 128 129
f 70 129 84
f 70 84 83
f 70 83 130
f 70 130 71
f 71 130 72
f 72 130 131
f 72 131 132
f 72 132 73
f 73 132 133
f 73 133 78
f 73 78 74
f 75 82 76
f 76 82 89
f 78 133 79
f 79 133 131
f 79 131 130
f 79 130 83
f 80 88 134
f 80 134 81
f 81 91 82
f 81 134 91
f 82 91 89
f 84 129 135
f 84 135 85
f 85 135 86
f 86 135 87
f 87 135 136
f 87 136 137
f 87 137 88
f 88 137 138
f 88 138 139
f 88 139 140
f 88 140 134
f 89 91 90
f 91 134 140
f 91 140 139
f 91 139 141
f 91 141 142
f 91 142 143
f 91 143 144
f 91 144 145
f 91 145 93
f 91 93 92
f 93 146 94
f 93 145 146
f 94 146 95
f 95 146 147
f 95 147 96
f 96 147 148
f 96 148 149
f 96 149 97
f 97 149 150
f 97 150 98
f 98 150 151
f 98 151 152
f 98 152 99
f 99 152 153
f 99 153 100
f 100 153 154
f 100 154 155
f 100 155 156
f 100 156 101
f 101 156 102
f 102 156 157
f 102 157 158
f 102 158 103
f 103 158 107
f 103 105 104
f 106 159 108
f 106 107 160
f 106 160 161
f 106 161 159
f 107 158 160
f 108 159 109
f 109 159 115
f 109 115 110
f 111 116 112
f 112 162 163
f 112 163 117
f 112 117 113
f 112 116 162
f 115 164 165
f 115 165 116
f 115 159 166
f 115 166 167
f 115 167 168
f 115 168 169
f 115 169 164
f 116 165 162
f 117 163 118
f 118 170 121
f 118 121 119
f 118 163 170
f 119 121 120
f 121 170 171
f 121 171 172
f 121 172 124
f 124 172 173
f 124 173 125
f 125 173 174
f 125 174 126
f 126 174 128
f 126 128 127
f 128 135 129
f 128 174 175
f 128 175 176
f 128 176 135
f 131 133 132
f 135 176 136
f 136 176 177
f 136 177 178
f 136 178 137
f 137 178 179
f 137 179 180
f 137 180 138
f 138 180 181
f 138 181 182
f 138 182 144
f 138 144 143
f 138 143 142
f 138 142 141
f 138 141 139
f 144 182 183
f 144 183 145
f 145 183 184
f 145 184 185
f 145 185 146
f 146 185 186
f 146 186 147
f 147 186 187
f 147 187 188
f 147 188 148
f 148 188 149
f 149 188 150
f 150 188 151
f 151 188 152
f 152 188 153
f 153 188 154
f 154 188 155
f 155 188 156
f 156 188 157
f 157 188 189
f 157 189 158
f 158 189 160
f 159 161 166
f 160 189 161
f 161 190 167
f 161 167 166
f 161 189 191
f 161 191 190
f 162 192 163
f 162 165 192
f 163 172 171
f 163 171 170
f 163 192 193
f 163 193 194
f 163 194 172
f 164 169 195
f 164 195 165
f 165 193 192
f 165 195 196
f 165 196 194
f 165 194 193
f 167 190 168
f 168 177 169
f 168 190 179
f 168 179 178
f 168 178 177
f 169 177 197
f 169 197 195
f 172 194 173
f 173 194 196
f 173 196 175
f 173 175 174
f 175 195 176
f 175 196 195
f 176 195 197
f 176 197 177
f 179 190 181
f 179 181 180
f 181 191 198
f 181 198 199
f 181 199 182
f 181 190 191
f 182 199 185
f 182 185 184
f 182 184 183
f 185 199 198
f 185 198 186
f 186 198 188
f 186 188 187
f 188 198 191
f 188 191 189

