# https://github.com/mikedh/trimesh
v -0.01488654 -0.00518411 0.02534084
v -0.01484710 -0.01771851 0.02158056
v -0.01486400 -0.01144741 0.02408794
v -0.01485837 -0.00643755 0.02534084
v -0.01454096 -0.00518411 0.02635577
v -0.01454096 -0.00393067 0.02642512
v -0.01454096 -0.00267723 0.02646136
v -0.01454096 0.00108309 0.02649761
v -0.01454096 0.00112214 0.02649761
v -0.01488466 0.00484341 0.02534242
v -0.01486400 0.01737782 0.02158214
v -0.01485461 0.01988860 0.02032766
v -0.01481141 -0.01905786 0.02032766
v -0.01458228 -0.01905786 0.02165306
v -0.01450152 -0.01771851 0.02259864
v -0.01485086 -0.01520773 0.02283504
v -0.01467807 -0.00894443 0.02534084
v -0.01478700 -0.00769099 0.02534084
v -0.01474943 -0.01270475 0.02408794
v -0.01451466 -0.00643755 0.02627225
v -0.01356995 -0.00393067 0.02692470
v -0.01356995 -0.00267723 0.02700035
v -0.01356995 0.00108309 0.02706811
v -0.01454096 0.00233653 0.02648500
v -0.01487151 0.00609685 0.02534242
v -0.01487527 0.01111062 0.02408794
v -0.01486964 0.01487094 0.02283504
v -0.01473065 0.01863126 0.02158214
v -0.01465740 0.02083357 0.02037179
v -0.01474756 0.02083357 0.01906372
v -0.01479639 -0.01905786 0.02023625
v -0.01457852 -0.01905786 0.02166251
v -0.01437756 -0.01616831 0.02362933
v -0.01450527 -0.01520773 0.02382002
v -0.01437381 -0.01866738 0.02237012
v -0.01444330 -0.00769099 0.02616981
v -0.01452030 -0.01144741 0.02508081
v 0.00400766 -0.01905786 0.03377547
v 0.00429877 -0.01905786 0.03388894
v 0.00429877 0.00112214 0.03388894
v 0.00378416 0.02083357 0.03366673
v -0.01356995 0.00233653 0.02704605
v -0.01454096 0.00359388 0.02642669
v -0.01452781 0.00609685 0.02629116
v -0.01482643 0.00735420 0.02534242
v -0.01454096 0.00484341 0.02635892
v -0.01480390 0.01236796 0.02408794
v -0.01469872 0.01612438 0.02283504
v -0.01452217 0.01487094 0.02389409
v -0.01438695 0.01863126 0.02239534
v -0.01446771 0.01979098 0.02156795
v -0.01440386 0.02083357 0.02106206
v -0.01439446 0.02083357 0.01807559
v -0.01447522 -0.01905786 0.01934740
v -0.01356995 -0.01905786 0.02234176
v 0.00338036 -0.01905786 0.03346973
v -0.01427051 -0.01348571 0.02476561
v -0.01440386 -0.01270475 0.02489327
v -0.01433436 -0.00894443 0.02606579
v -0.01424609 -0.00967072 0.02599803
v 0.00429877 -0.01905786 0.03048641
v 0.00429877 0.00112214 0.03048641
v 0.00378416 0.02083357 0.03004356
v 0.00338036 0.02083357 0.03346973
v -0.01448086 0.00735420 0.02621393
v -0.01471938 0.00860764 0.02534242
v -0.01453533 0.01111062 0.02511705
v -0.01445832 0.01236796 0.02495158
v -0.01435314 0.01612438 0.02361515
v -0.01432497 0.01332073 0.02481132
v -0.01423294 0.01930679 0.02223302
v -0.01438319 0.02079061 0.02114086
v -0.01433812 0.02083357 0.02112353
v -0.01356995 0.02083357 0.01780137
v -0.01356995 -0.01905786 0.01898493
v -0.01437381 -0.01905786 0.01929066
v 0.00188347 -0.01905786 0.02032923
v 0.00190413 0.02083357 0.01938522
v -0.01420289 0.01676086 0.02346385
v -0.01426487 0.00938860 0.02601063
v -0.01437568 0.00860764 0.02610204
v -0.01323752 0.02083357 0.01779664
v -0.01344036 -0.01905786 0.01898335
v 0.00131815 -0.01905786 0.01933637
v 0.00132942 0.02083357 0.01822373
v 0.00176890 0.02083357 0.01906215
v -0.01231723 0.02083357 0.01779191
v -0.01231535 -0.01905786 0.01897232
v 0.00021567 -0.01905786 0.01897389
v 0.00119419 0.02083357 0.01807559
v -0.00103705 0.02083357 0.01779191
v -0.00103705 -0.01905786 0.01897232
v 0.00021567 0.02083357 0.01780137
v 0.00048425 0.02083357 0.01784707
f 1 2 3
f 1 3 4
f 1 4 5
f 1 5 6
f 1 6 7
f 1 7 8
f 1 8 9
f 1 9 10
f 1 10 11
f 1 11 12
f 1 12 2
f 2 13 14
f 2 14 15
f 2 15 16
f 2 16 3
f 2 12 13
f 3 17 18
f 3 18 4
f 3 16 19
f 3 19 17
f 4 20 5
f 4 18 20
f 5 20 21
f 5 21 22
f 5 22 6
f 6 22 7
f 7 22 23
f 7 23 8
f 8 23 9
f 9 23 24
f 9 24 10
f 10 24 25
f 10 25 26
f 10 26 27
f 10 27 11
f 11 27 28
f 11 28 12
f 12 28 29
f 12 29 30
f 12 30 13
f 13 31 54
f 13 54 76
f 13 76 75
f 13 75 83
f 13 83 88
f 13 88 92
f 13 92 89
f 13 89 84
f 13 84 77
f 13 77 61
f 13 61 39
f 13 39 38
f 13 38 56
f 13 56 55
f 13 55 32
f 13 32 14
f 13 30 31
f 14 32 15
f 15 33 34
f 15 34 16
f 15 32 35
f 15 35 33
f 16 34 19
f 17 36 20
f 17 20 18
f 17 19 37
f 17 37 36
f 19 34 37
f 20 36 38
f 20 38 21
f 21 38 22
f 22 38 23
f 23 38 39
f 23 39 40
f 23 40 41
f 23 41 42
f 23 42 24
f 24 42 43
f 24 43 25
f 25 44 45
f 25 45 26
f 25 43 46
f 25 46 44
f 26 45 47
f 26 47 27
f 27 48 28
f 27 47 48
f 28 48 49
f 28 49 50
f 28 50 51
f 28 51 29
f 29 52 73
f 29 73 64
f 29 64 41
f 29 41 63
f 29 63 78
f 29 78 86
f 29 86 85
f 29 85 90
f 29 90 94
f 29 94 93
f 29 93 91
f 29 91 87
f 29 87 82
f 29 82 74
f 29 74 53
f 29 53 30
f 29 51 52
f 30 53 31
f 31 53 54
f 32 55 35
f 33 35 56
f 33 56 57
f 33 57 58
f 33 58 34
f 34 58 37
f 35 55 56
f 36 37 59
f 36 59 56
f 36 56 38
f 37 60 59
f 37 58 60
f 39 61 62
f 39 62 40
f 40 62 63
f 40 63 41
f 41 64 65
f 41 65 42
f 42 65 44
f 42 44 46
f 42 46 43
f 44 65 45
f 45 65 66
f 45 66 47
f 47 66 67
f 47 67 68
f 47 68 49
f 47 49 48
f 49 69 50
f 49 68 70
f 49 70 69
f 50 71 72
f 50 72 51
f 50 69 71
f 51 72 52
f 52 72 73
f 53 74 75
f 53 75 76
f 53 76 54
f 56 59 60
f 56 60 57
f 57 60 58
f 61 77 78
f 61 78 62
f 62 78 63
f 64 73 72
f 64 72 71
f 64 71 79
f 64 79 70
f 64 70 80
f 64 80 81
f 64 81 65
f 65 81 68
f 65 68 67
f 65 67 66
f 68 81 80
f 68 80 70
f 69 79 71
f 69 70 79
f 74 82 75
f 75 82 83
f 77 84 85
f 77 85 86
f 77 86 78
f 82 87 88
f 82 88 83
f 84 89 90
f 84 90 85
f 87 91 92
f 87 92 88
f 89 92 91
f 89 91 93
f 89 93 94
f 89 94 90

