# https://github.com/mikedh/trimesh
v 0.01033728 0.00420313 0.00330227
v 0.01086866 -0.00005275 0.00330227
v 0.00650486 0.00420313 0.00879033
v 0.01198871 0.00420313 0.00330227
v 0.01021540 -0.00064177 0.00554128
v 0.00775958 -0.00064177 0.00870002
v 0.01270048 -0.00005275 0.00330227
v 0.00770901 -0.00064177 0.00889894
v 0.00648110 0.00420313 0.00888522
v 0.01195642 0.00420313 0.00342574
v 0.01218311 0.00358187 0.00331542
v 0.01217884 0.00360463 0.00330227
v 0.01187963 -0.00064177 0.00554128
v 0.01270048 0.00038735 0.00330227
v 0.01266269 -0.00005275 0.00343203
v 0.00770961 -0.00064177 0.00890123
v 0.00649328 0.00420313 0.00904756
v 0.00647500 0.00420313 0.00894067
v 0.01190706 0.00401391 0.00375442
v 0.01220992 0.00341019 0.00340745
v 0.01169621 0.00420313 0.00420599
v 0.01167183 0.00411255 0.00437233
v 0.01219042 0.00356811 0.00330227
v 0.01264746 -0.00005275 0.00348290
v 0.01244758 -0.00005275 0.00411854
v 0.01240370 -0.00005275 0.00425687
v 0.01231900 -0.00005275 0.00451409
v 0.01223369 -0.00005275 0.00473988
v 0.01188877 -0.00038662 0.00554128
v 0.01175898 -0.00064177 0.00580422
v 0.01269682 0.00052203 0.00330227
v 0.01264075 0.00064534 0.00348290
v 0.01264746 0.00038735 0.00348290
v 0.00775715 -0.00064177 0.00907900
v 0.00664868 0.00420313 0.00910529
v 0.00775958 -0.00064177 0.00908014
v 0.01192473 0.00332103 0.00435576
v 0.01223673 0.00322808 0.00348919
v 0.01228914 0.00322523 0.00330227
v 0.01222272 0.00345667 0.00330227
v 0.01218189 0.00331676 0.00357951
v 0.01165904 0.00420313 0.00431689
v 0.01158713 0.00420313 0.00451695
v 0.01164746 0.00401485 0.00452667
v 0.01166818 0.00384270 0.00462098
v 0.01169865 0.00394040 0.00444893
v 0.01189609 0.00323093 0.00451809
v 0.01195093 0.00314983 0.00443407
v 0.01244758 0.00038735 0.00411854
v 0.01240370 0.00038735 0.00425687
v 0.01231900 0.00038735 0.00451409
v 0.01217823 -0.00005275 0.00486907
v 0.01223369 0.00038735 0.00473988
v 0.01176690 -0.00038662 0.00580422
v 0.01188877 0.00038735 0.00554128
v 0.01169012 -0.00038662 0.00595913
v 0.01168585 -0.00064177 0.00595056
v 0.01269316 0.00064534 0.00330227
v 0.01262065 0.00090333 0.00348290
v 0.01244392 0.00064534 0.00410710
v 0.00793691 -0.00064177 0.00913616
v 0.00690523 0.00399826 0.00913616
v 0.00690523 0.00420313 0.00914073
v 0.01220626 0.00314461 0.00365610
v 0.01230255 0.00296630 0.00348290
v 0.01230864 0.00314604 0.00330227
v 0.01148353 0.00420313 0.00477132
v 0.01169499 0.00367103 0.00468501
v 0.01155300 0.00399778 0.00477246
v 0.01192107 0.00303269 0.00460612
v 0.01205331 0.00296630 0.00425687
v 0.01217884 0.00302937 0.00382816
v 0.01239639 0.00064534 0.00425687
v 0.01231169 0.00064534 0.00451409
v 0.01223003 0.00064534 0.00473073
v 0.01217823 0.00038735 0.00486907
v 0.01193692 0.00055286 0.00542296
v 0.01176690 0.00038735 0.00580422
v 0.01188816 0.00040490 0.00554128
v 0.01175837 0.00064534 0.00580422
v 0.01121662 -0.00038662 0.00680741
v 0.01169012 0.00038735 0.00595913
v 0.01121297 -0.00064177 0.00679540
v 0.01266818 0.00091945 0.00330227
v 0.01265172 0.00108354 0.00330227
v 0.01254264 0.00167730 0.00348290
v 0.01247622 0.00167730 0.00369326
v 0.01243356 0.00090333 0.00407452
v 0.00819529 -0.00064177 0.00914188
v 0.00716300 0.00373979 0.00914188
v 0.00716300 0.00420313 0.00914188
v 0.01245916 0.00236400 0.00338058
v 0.01244149 0.00253568 0.00331542
v 0.01235191 0.00296630 0.00330227
v 0.01144880 0.00420313 0.00485192
v 0.01139152 0.00404141 0.00510000
v 0.01128670 0.00373979 0.00554128
v 0.01160968 0.00346900 0.00501368
v 0.01179493 0.00322429 0.00477246
v 0.01143052 0.00415855 0.00492794
v 0.01167122 0.00307348 0.00514744
v 0.01187476 0.00295444 0.00475360
v 0.01193935 0.00286101 0.00465471
v 0.01213862 0.00217099 0.00449123
v 0.01196799 0.00295444 0.00451809
v 0.01219408 0.00207139 0.00439062
v 0.01237567 0.00090333 0.00425687
v 0.01229097 0.00090333 0.00451409
v 0.01221906 0.00090333 0.00470673
v 0.01193082 0.00072454 0.00540981
v 0.01187963 0.00064154 0.00554128
v 0.01172729 0.00089669 0.00582366
v 0.01167976 0.00080658 0.00593970
v 0.01168524 0.00064534 0.00595056
v 0.01185770 0.00090333 0.00554128
v 0.01121662 0.00038735 0.00680741
v 0.01114411 -0.00038662 0.00693602
v 0.01141285 0.00064534 0.00643872
v 0.01113923 -0.00064177 0.00692516
v 0.01259932 0.00159952 0.00330227
v 0.01255666 0.00194050 0.00330227
v 0.01249755 0.00195568 0.00350634
v 0.01246281 0.00188359 0.00365210
v 0.01259139 0.00167730 0.00330227
v 0.01256824 0.00185656 0.00330227
v 0.01229706 0.00167730 0.00425687
v 0.00897226 -0.00064177 0.00914188
v 0.00793691 0.00420313 0.00914188
v 0.01244880 0.00205527 0.00360751
v 0.01247622 0.00219233 0.00343546
v 0.01251157 0.00219233 0.00330227
v 0.01244697 0.00252335 0.00330227
v 0.01243905 0.00256129 0.00330227
v 0.01119408 0.00420313 0.00540695
v 0.01118006 0.00417562 0.00546126
v 0.01116239 0.00412535 0.00554071
v 0.01114045 0.00406750 0.00563331
v 0.01120870 0.00398782 0.00554128
v 0.01116909 0.00389534 0.00569219
v 0.01142138 0.00310478 0.00568133
v 0.01139456 0.00327645 0.00562245
v 0.01136653 0.00348417 0.00554128
v 0.01145428 0.00320342 0.00554071
v 0.01151888 0.00296630 0.00554643
v 0.01169133 0.00290133 0.00519374
v 0.01158043 0.00270783 0.00554128
v 0.01197348 0.00243135 0.00477761
v 0.01195520 0.00270783 0.00469015
v 0.01202406 0.00219233 0.00477246
v 0.01207525 0.00193481 0.00477246
v 0.01216178 0.00193481 0.00455582
v 0.01166879 0.00227864 0.00554128
v 0.01193692 0.00233270 0.00490679
v 0.01220626 0.00193481 0.00442721
v 0.01226111 0.00193481 0.00425687
v 0.01222455 0.00167730 0.00448037
v 0.01218859 0.00151321 0.00463356
v 0.01219712 0.00134106 0.00465528
v 0.01220626 0.00116132 0.00467643
v 0.01215081 0.00116132 0.00480504
v 0.01172485 0.00116084 0.00577564
v 0.01164868 0.00141883 0.00587853
v 0.01154813 0.00141883 0.00606259
v 0.01157494 0.00116084 0.00606259
v 0.01119956 0.00090333 0.00677654
v 0.01121114 0.00064534 0.00679769
v 0.01180346 0.00141883 0.00554643
v 0.01171144 0.00141883 0.00574935
v 0.01114411 0.00038735 0.00693602
v 0.01103868 -0.00038662 0.00709378
v 0.01102832 -0.00064177 0.00709378
v 0.01242321 0.00195568 0.00373899
v 0.00922637 -0.00064177 0.00914073
v 0.00922637 -0.00038662 0.00914188
v 0.00819529 0.00399826 0.00914188
v 0.00819529 0.00420313 0.00913902
v 0.01115569 0.00420313 0.00548927
v 0.01113131 0.00420313 0.00554071
v 0.01111607 0.00420313 0.00557272
v 0.01099664 0.00420313 0.00580823
v 0.01093935 0.00420313 0.00591740
v 0.01092351 0.00417562 0.00596771
v 0.01108804 0.00398830 0.00578879
v 0.01112704 0.00373979 0.00586939
v 0.01115203 0.00358329 0.00591740
v 0.01119347 0.00373979 0.00574020
v 0.01133850 0.00320389 0.00578250
v 0.01137445 0.00296630 0.00584824
v 0.01143966 0.00296630 0.00571905
v 0.01145977 0.00268317 0.00580994
v 0.01166879 0.00202587 0.00565846
v 0.01192046 0.00193481 0.00512743
v 0.01211242 0.00167730 0.00477246
v 0.01218006 0.00167730 0.00460955
v 0.01193326 0.00179728 0.00515716
v 0.01202710 0.00141931 0.00503026
v 0.01163466 0.00167682 0.00585053
v 0.01151949 0.00167682 0.00606259
v 0.01169804 0.00167682 0.00572134
v 0.01137506 0.00141883 0.00637127
v 0.01117336 0.00141883 0.00673024
v 0.01112583 0.00090333 0.00690572
v 0.01113801 0.00064534 0.00692687
v 0.01177787 0.00168299 0.00554128
v 0.01102771 0.00064534 0.00709378
v 0.01103868 0.00038735 0.00709378
v 0.01092656 -0.00038662 0.00725784
v 0.01092107 -0.00064177 0.00724984
v 0.00943295 -0.00064177 0.00908414
v 0.00943844 -0.00038662 0.00908471
v 0.00922637 0.00038735 0.00914188
v 0.00943905 -0.00012816 0.00908471
v 0.00871083 0.00296630 0.00914188
v 0.00845245 0.00373979 0.00913787
v 0.00845245 0.00399826 0.00911387
v 0.00845550 0.00420313 0.00908071
v 0.01089426 0.00420313 0.00599686
v 0.01064685 0.00413247 0.00645301
v 0.01046281 0.00400110 0.00684570
v 0.01040675 0.00391763 0.00699375
v 0.01062979 0.00382231 0.00668222
v 0.01087110 0.00404141 0.00613976
v 0.01094545 0.00397265 0.00605745
v 0.01113253 0.00322429 0.00614376
v 0.01120748 0.00322429 0.00601458
v 0.01101857 0.00373979 0.00606259
v 0.01140066 0.00275289 0.00589968
v 0.01124039 0.00298147 0.00608317
v 0.01168585 0.00185372 0.00569619
v 0.01173826 0.00193671 0.00554128
v 0.01162126 0.00193766 0.00579108
v 0.01147378 0.00192011 0.00607403
v 0.01142199 0.00182526 0.00619864
v 0.01143295 0.00167682 0.00621693
v 0.01116483 0.00157865 0.00671423
v 0.01109962 0.00141883 0.00685885
v 0.01097043 0.00141883 0.00706635
v 0.01100395 0.00090333 0.00709378
v 0.01092107 0.00064534 0.00724984
v 0.01092656 0.00038735 0.00725784
v 0.01061699 -0.00038662 0.00769970
v 0.01039395 -0.00059292 0.00800608
v 0.01061150 -0.00064177 0.00769112
v 0.00956214 -0.00064177 0.00897211
v 0.00956702 -0.00038662 0.00898011
v 0.00956763 -0.00012816 0.00898125
v 0.00922637 0.00064534 0.00914073
v 0.00896860 0.00219185 0.00914130
v 0.00896860 0.00193434 0.00914188
v 0.00943905 0.00012936 0.00908471
v 0.00943844 0.00038735 0.00908471
v 0.00871083 0.00322429 0.00913216
v 0.00890645 0.00322429 0.00907557
v 0.00867305 0.00373979 0.00908071
v 0.00861943 0.00399826 0.00905728
v 0.00850425 0.00420313 0.00906014
v 0.01041894 0.00420313 0.00677883
v 0.01036958 0.00408931 0.00693831
v 0.00990279 0.00369047 0.00778201
v 0.01034337 0.00373979 0.00716581
v 0.01043661 0.00373979 0.00703662
v 0.01063283 0.00331771 0.00694574
v 0.01057250 0.00373837 0.00682284
v 0.01020931 0.00420313 0.00709321
v 0.01017214 0.00420313 0.00714409
v 0.01013436 0.00414053 0.00723040
v 0.01016422 0.00399826 0.00726984
v 0.00980894 0.00376208 0.00786775
v 0.01071754 0.00322903 0.00685028
v 0.01068341 0.00348180 0.00677311
v 0.01090218 0.00386974 0.00619178
v 0.01115508 0.00307774 0.00618263
v 0.01088268 0.00303174 0.00667308
v 0.01118006 0.00290559 0.00622550
v 0.01133911 0.00268317 0.00603744
v 0.01141833 0.00258121 0.00593398
v 0.01090888 0.00285959 0.00671881
v 0.01143235 0.00244984 0.00595742
v 0.01145794 0.00219185 0.00600429
v 0.01113558 0.00193434 0.00666279
v 0.01115264 0.00175080 0.00669308
v 0.01109414 0.00166971 0.00681484
v 0.01095459 0.00167682 0.00704291
v 0.01088329 0.00141883 0.00719553
v 0.01090888 0.00090333 0.00723212
v 0.01081870 0.00090333 0.00736073
v 0.01061150 0.00064534 0.00769112
v 0.01039395 0.00059365 0.00800608
v 0.01061699 0.00038735 0.00769970
v 0.01049938 -0.00038662 0.00786718
v 0.01039761 -0.00038662 0.00801122
v 0.01029341 -0.00038662 0.00813984
v 0.01015995 -0.00064177 0.00828617
v 0.01039213 -0.00064177 0.00800322
v 0.00967732 -0.00064177 0.00884121
v 0.00968280 -0.00038662 0.00885092
v 0.00956763 0.00012936 0.00898125
v 0.00968341 -0.00012816 0.00885207
v 0.00922637 0.00090333 0.00913673
v 0.00943295 0.00064534 0.00908414
v 0.00922637 0.00116084 0.00912987
v 0.00896860 0.00244984 0.00913044
v 0.00956702 0.00038735 0.00898011
v 0.00915690 0.00244984 0.00907385
v 0.00911912 0.00270783 0.00904642
v 0.00887110 0.00342584 0.00905328
v 0.00858896 0.00414100 0.00903441
v 0.00867000 0.00420313 0.00891666
v 0.01035495 0.00420313 0.00688343
v 0.01013740 0.00363593 0.00749277
v 0.00984307 0.00348180 0.00795978
v 0.01037263 0.00356669 0.00720353
v 0.01066026 0.00314604 0.00698746
v 0.01005635 0.00420313 0.00729728
v 0.00956885 0.00420313 0.00793749
v 0.01006671 0.00399826 0.00739846
v 0.00959383 0.00408267 0.00797178
v 0.00963040 0.00391099 0.00801751
v 0.00966635 0.00373979 0.00805981
v 0.01082174 0.00295397 0.00681712
v 0.01120322 0.00270783 0.00626609
v 0.01089609 0.00229145 0.00695431
v 0.01068768 0.00296630 0.00702691
v 0.01085099 0.00270783 0.00687829
v 0.01092656 0.00270783 0.00674910
v 0.01103625 0.00193434 0.00683599
v 0.01093265 0.00193434 0.00700976
v 0.01086623 0.00167682 0.00717152
v 0.01065233 0.00159525 0.00749163
v 0.01035252 0.00141883 0.00794778
v 0.01037872 0.00090333 0.00798550
v 0.01038542 0.00076532 0.00799522
v 0.01046769 0.00066573 0.00789233
v 0.01022333 0.00141883 0.00811411
v 0.01030620 0.00066573 0.00810554
v 0.01015812 0.00064534 0.00828789
v 0.01029341 0.00038735 0.00813984
v 0.01039761 0.00038735 0.00801122
v 0.01049938 0.00038735 0.00786718
v 0.01016422 -0.00038662 0.00829589
v 0.01004721 -0.00064177 0.00841593
v 0.00981199 -0.00038662 0.00870231
v 0.00968341 0.00012936 0.00885207
v 0.01005331 -0.00012816 0.00842507
v 0.00956214 0.00064534 0.00897154
v 0.00942199 0.00090333 0.00908014
v 0.00922637 0.00141883 0.00911844
v 0.00940919 0.00116084 0.00907328
v 0.00918493 0.00219185 0.00908471
v 0.00968280 0.00038735 0.00885092
v 0.00939334 0.00141883 0.00906185
v 0.00937080 0.00167682 0.00904241
v 0.00935678 0.00181293 0.00902927
v 0.00931412 0.00219185 0.00898583
v 0.00928609 0.00244984 0.00895096
v 0.00909901 0.00283920 0.00902870
v 0.00903503 0.00322429 0.00896239
v 0.00912278 0.00341398 0.00879776
v 0.00897896 0.00350599 0.00890980
v 0.00883149 0.00359799 0.00902184
v 0.00874923 0.00399826 0.00893095
v 0.00884185 0.00413104 0.00877204
v 0.00905392 0.00420313 0.00851367
v 0.00889548 0.00420313 0.00868058
v 0.00993874 0.00348180 0.00783117
v 0.00969926 0.00347232 0.00813755
v 0.00986623 0.00333905 0.00799007
v 0.01016239 0.00348180 0.00752650
v 0.01042625 0.00322429 0.00727670
v 0.01059505 0.00296630 0.00715609
v 0.00944088 0.00420313 0.00809239
v 0.00955422 0.00373979 0.00818900
v 0.00959139 0.00355152 0.00823187
v 0.01095337 0.00244984 0.00679655
v 0.01091376 0.00211929 0.00698232
v 0.01087902 0.00244984 0.00692573
v 0.01070779 0.00268744 0.00710350
v 0.01076629 0.00244984 0.00709378
v 0.01062491 0.00275905 0.00719610
v 0.01084246 0.00193434 0.00713837
v 0.01063771 0.00176788 0.00747105
v 0.01033363 0.00167682 0.00792148
v 0.01020444 0.00167682 0.00809125
v 0.01011851 0.00141883 0.00824330
v 0.01012643 0.00126897 0.00825187
v 0.01016422 0.00038735 0.00829589
v 0.00953838 0.00116084 0.00894181
v 0.00967610 0.00064534 0.00884292
v 0.00981199 0.00038735 0.00870231
v 0.01005331 0.00012936 0.00842507
v 0.00955057 0.00090333 0.00895667
v 0.00952192 0.00141883 0.00892466
v 0.00951766 0.00167777 0.00887951
v 0.00943174 0.00219185 0.00885664
v 0.00937506 0.00264191 0.00879205
v 0.00987415 0.00259022 0.00825816
v 0.00915568 0.00322429 0.00883378
v 0.00917579 0.00373979 0.00859484
v 0.00908682 0.00358614 0.00875889
v 0.00937202 0.00339833 0.00853082
v 0.00942503 0.00373979 0.00832847
v 0.00905453 0.00373979 0.00872403
v 0.00915081 0.00420313 0.00841078
v 0.01015508 0.00292219 0.00777458
v 0.01039030 0.00284916 0.00748534
v 0.01020261 0.00322429 0.00758137
v 0.00962125 0.00337936 0.00826388
v 0.00979127 0.00324183 0.00811640
v 0.00989304 0.00316690 0.00802437
v 0.01009292 0.00270783 0.00794778
v 0.00939944 0.00420313 0.00813984
v 0.00932631 0.00420313 0.00822272
v 0.00934703 0.00410733 0.00824501
v 0.01064624 0.00258690 0.00722526
v 0.01018676 0.00270783 0.00781916
v 0.01011790 0.00252762 0.00798150
v 0.01066026 0.00244984 0.00724526
v 0.01040005 0.00193434 0.00775743
v 0.01030742 0.00193434 0.00788604
v 0.01013557 0.00235547 0.00800551
v 0.01017884 0.00193434 0.00805924
v 0.01009901 0.00167682 0.00821986
v 0.00986927 0.00153977 0.00851081
v 0.00978457 0.00144017 0.00862171
v 0.00962186 0.00159288 0.00878004
v 0.00956093 0.00219185 0.00871088
v 0.00994362 0.00193434 0.00833704
v 0.00988938 0.00244984 0.00827588
v 0.01004600 0.00219185 0.00815584
v 0.01003381 0.00244510 0.00810497
v 0.00994728 0.00268934 0.00813526
v 0.00992412 0.00296630 0.00806210
v 0.00981504 0.00296630 0.00819128
v 0.00964624 0.00322429 0.00829074
v 0.00968646 0.00296630 0.00833590
v 0.00919834 0.00420313 0.00835991
v 0.01007220 0.00193434 0.00818842
v 0.00991681 0.00219185 0.00830675
f 1 2 3
f 1 3 9
f 1 9 18
f 1 18 17
f 1 17 35
f 1 35 63
f 1 63 91
f 1 91 128
f 1 128 176
f 1 176 216
f 1 216 256
f 1 256 308
f 1 308 364
f 1 364 363
f 1 363 403
f 1 403 436
f 1 436 412
f 1 412 411
f 1 411 371
f 1 371 315
f 1 315 314
f 1 314 265
f 1 265 264
f 1 264 309
f 1 309 257
f 1 257 217
f 1 217 181
f 1 181 180
f 1 180 179
f 1 179 178
f 1 178 177
f 1 177 134
f 1 134 95
f 1 95 67
f 1 67 43
f 1 43 42
f 1 42 21
f 1 21 10
f 1 10 4
f 1 4 12
f 1 12 23
f 1 23 40
f 1 40 39
f 1 39 66
f 1 66 94
f 1 94 133
f 1 133 132
f 1 132 131
f 1 131 121
f 1 121 125
f 1 125 124
f 1 124 120
f 1 120 85
f 1 85 84
f 1 84 58
f 1 58 31
f 1 31 14
f 1 14 7
f 1 7 2
f 2 5 6
f 2 6 3
f 2 7 13
f 2 13 5
f 3 6 8
f 3 8 9
f 4 10 11
f 4 11 12
f 5 13 30
f 5 30 57
f 5 57 83
f 5 83 119
f 5 119 171
f 5 171 208
f 5 208 243
f 5 243 294
f 5 294 293
f 5 293 341
f 5 341 295
f 5 295 244
f 5 244 209
f 5 209 173
f 5 173 127
f 5 127 89
f 5 89 61
f 5 61 36
f 5 36 34
f 5 34 16
f 5 16 8
f 5 8 6
f 7 14 15
f 7 15 13
f 8 16 17
f 8 17 18
f 8 18 9
f 10 19 20
f 10 20 11
f 10 21 22
f 10 22 19
f 11 23 12
f 11 20 23
f 13 15 24
f 13 24 25
f 13 25 26
f 13 26 27
f 13 27 28
f 13 28 29
f 13 29 30
f 14 31 32
f 14 32 33
f 14 33 15
f 15 33 24
f 16 34 17
f 17 34 36
f 17 36 35
f 19 37 20
f 19 22 37
f 20 38 39
f 20 39 40
f 20 40 23
f 20 37 41
f 20 41 38
f 21 42 22
f 22 42 43
f 22 43 44
f 22 44 45
f 22 45 46
f 22 46 47
f 22 47 48
f 22 48 37
f 24 33 49
f 24 49 25
f 25 49 50
f 25 50 26
f 26 50 51
f 26 51 27
f 27 51 53
f 27 53 28
f 28 52 29
f 28 53 76
f 28 76 52
f 29 54 30
f 29 52 76
f 29 76 55
f 29 55 78
f 29 78 54
f 30 54 56
f 30 56 57
f 31 58 32
f 32 59 60
f 32 60 49
f 32 49 33
f 32 58 59
f 35 36 61
f 35 61 62
f 35 62 63
f 37 48 41
f 38 41 64
f 38 64 65
f 38 65 66
f 38 66 39
f 41 48 64
f 43 67 45
f 43 45 44
f 45 68 47
f 45 47 46
f 45 67 69
f 45 69 68
f 47 70 48
f 47 68 70
f 48 71 72
f 48 72 64
f 48 70 71
f 49 60 50
f 50 73 74
f 50 74 51
f 50 60 73
f 51 74 75
f 51 75 53
f 53 75 77
f 53 77 76
f 54 78 82
f 54 82 56
f 55 76 77
f 55 77 79
f 55 79 80
f 55 80 78
f 56 81 57
f 56 82 116
f 56 116 81
f 57 81 83
f 58 84 59
f 59 84 85
f 59 85 86
f 59 86 87
f 59 87 88
f 59 88 60
f 60 88 73
f 61 63 62
f 61 89 63
f 63 89 90
f 63 90 91
f 64 72 65
f 65 92 93
f 65 93 94
f 65 94 66
f 65 72 92
f 67 95 69
f 68 69 96
f 68 96 97
f 68 97 98
f 68 98 99
f 68 99 70
f 69 95 100
f 69 100 96
f 70 99 101
f 70 101 102
f 70 102 103
f 70 103 104
f 70 104 105
f 70 105 71
f 71 105 106
f 71 106 72
f 72 106 92
f 73 107 108
f 73 108 74
f 73 88 107
f 74 108 109
f 74 109 75
f 75 109 110
f 75 110 77
f 77 110 111
f 77 111 79
f 78 80 82
f 79 111 80
f 80 112 113
f 80 113 114
f 80 114 82
f 80 111 115
f 80 115 112
f 81 116 169
f 81 169 117
f 81 117 83
f 82 114 118
f 82 118 116
f 83 117 119
f 85 120 86
f 86 121 122
f 86 122 123
f 86 123 87
f 86 120 124
f 86 124 125
f 86 125 121
f 87 123 126
f 87 126 107
f 87 107 88
f 89 127 174
f 89 174 211
f 89 211 249
f 89 249 213
f 89 213 175
f 89 175 128
f 89 128 91
f 89 91 90
f 92 129 130
f 92 130 131
f 92 131 93
f 92 106 129
f 93 131 132
f 93 132 133
f 93 133 94
f 95 134 135
f 95 135 136
f 95 136 100
f 96 137 138
f 96 138 97
f 96 100 137
f 97 138 139
f 97 139 140
f 97 140 141
f 97 141 142
f 97 142 98
f 98 142 143
f 98 143 99
f 99 143 140
f 99 140 101
f 100 136 137
f 101 140 144
f 101 144 145
f 101 145 102
f 102 145 146
f 102 146 103
f 103 147 148
f 103 148 149
f 103 149 150
f 103 150 151
f 103 151 104
f 103 146 152
f 103 152 153
f 103 153 147
f 104 151 106
f 104 106 105
f 106 151 154
f 106 154 155
f 106 155 129
f 107 126 156
f 107 156 108
f 108 156 157
f 108 157 158
f 108 158 159
f 108 159 109
f 109 159 160
f 109 160 115
f 109 115 110
f 110 115 111
f 112 115 161
f 112 161 113
f 113 161 162
f 113 162 163
f 113 163 164
f 113 164 165
f 113 165 166
f 113 166 118
f 113 118 114
f 115 160 167
f 115 167 168
f 115 168 161
f 116 118 166
f 116 166 169
f 117 169 206
f 117 206 170
f 117 170 171
f 117 171 119
f 121 131 130
f 121 130 122
f 122 130 129
f 122 129 172
f 122 172 123
f 123 172 155
f 123 155 126
f 126 155 154
f 126 154 156
f 127 173 174
f 128 175 176
f 129 155 172
f 134 177 135
f 135 177 178
f 135 178 136
f 136 178 179
f 136 179 137
f 137 139 138
f 137 179 180
f 137 180 181
f 137 181 182
f 137 182 183
f 137 183 139
f 139 183 184
f 139 184 185
f 139 185 186
f 139 186 140
f 140 143 141
f 140 186 185
f 140 185 187
f 140 187 188
f 140 188 189
f 140 189 144
f 141 143 142
f 144 189 146
f 144 146 145
f 146 189 190
f 146 190 191
f 146 191 152
f 147 149 148
f 147 153 149
f 149 153 192
f 149 192 150
f 150 193 194
f 150 194 151
f 150 192 195
f 150 195 193
f 151 194 154
f 152 191 153
f 153 191 192
f 154 194 156
f 156 194 157
f 157 194 193
f 157 193 158
f 158 193 160
f 158 160 159
f 160 193 196
f 160 196 167
f 161 168 162
f 162 197 198
f 162 198 163
f 162 168 199
f 162 199 197
f 163 198 234
f 163 234 200
f 163 200 164
f 164 200 201
f 164 201 165
f 165 201 202
f 165 202 203
f 165 203 166
f 166 203 169
f 167 196 193
f 167 193 195
f 167 195 204
f 167 204 199
f 167 199 168
f 169 203 205
f 169 205 206
f 170 206 240
f 170 240 207
f 170 207 171
f 171 207 208
f 173 209 210
f 173 210 174
f 174 210 212
f 174 212 250
f 174 250 211
f 175 213 176
f 176 213 214
f 176 214 215
f 176 215 216
f 181 217 182
f 182 217 218
f 182 218 219
f 182 219 220
f 182 220 221
f 182 221 222
f 182 222 223
f 182 223 183
f 183 223 184
f 184 223 185
f 185 224 225
f 185 225 188
f 185 188 187
f 185 223 226
f 185 226 224
f 188 227 189
f 188 225 228
f 188 228 227
f 189 227 190
f 190 229 191
f 190 227 229
f 191 229 230
f 191 230 192
f 192 230 229
f 192 229 195
f 195 229 204
f 197 231 232
f 197 232 233
f 197 233 198
f 197 199 229
f 197 229 231
f 198 233 234
f 199 204 229
f 200 235 201
f 200 234 235
f 201 235 236
f 201 236 202
f 202 236 237
f 202 237 203
f 203 237 238
f 203 238 205
f 205 238 239
f 205 239 206
f 206 239 240
f 207 240 289
f 207 289 241
f 207 241 242
f 207 242 208
f 208 242 243
f 209 244 245
f 209 245 210
f 210 245 246
f 210 246 212
f 211 247 248
f 211 248 249
f 211 250 251
f 211 251 247
f 212 246 297
f 212 297 250
f 213 252 214
f 213 249 248
f 213 248 252
f 214 252 215
f 215 252 253
f 215 253 254
f 215 254 216
f 216 254 255
f 216 255 256
f 217 257 218
f 218 257 258
f 218 258 219
f 219 258 220
f 220 259 260
f 220 260 261
f 220 261 262
f 220 262 263
f 220 263 221
f 220 258 264
f 220 264 265
f 220 265 266
f 220 266 267
f 220 267 268
f 220 268 259
f 221 263 262
f 221 262 269
f 221 269 270
f 221 270 271
f 221 271 223
f 221 223 222
f 223 271 226
f 224 272 225
f 224 226 269
f 224 269 273
f 224 273 272
f 225 272 228
f 226 271 269
f 227 228 274
f 227 274 275
f 227 275 276
f 227 276 231
f 227 231 229
f 228 272 277
f 228 277 274
f 231 278 279
f 231 279 232
f 231 276 278
f 232 279 278
f 232 278 280
f 232 280 233
f 233 280 281
f 233 281 234
f 234 281 235
f 235 281 282
f 235 282 236
f 236 282 283
f 236 283 237
f 237 283 284
f 237 284 238
f 238 284 285
f 238 285 239
f 239 285 286
f 239 286 287
f 239 287 288
f 239 288 240
f 240 288 289
f 241 289 339
f 241 339 290
f 241 290 242
f 242 291 292
f 242 292 293
f 242 293 294
f 242 294 243
f 242 290 291
f 244 295 296
f 244 296 245
f 245 296 298
f 245 298 246
f 246 298 343
f 246 343 297
f 247 299 248
f 247 251 300
f 247 300 299
f 248 299 301
f 248 301 302
f 248 302 252
f 250 297 251
f 251 297 303
f 251 303 300
f 252 302 253
f 253 302 304
f 253 304 305
f 253 305 306
f 253 306 255
f 253 255 254
f 255 307 256
f 255 306 307
f 256 307 308
f 257 309 258
f 258 309 264
f 259 310 260
f 259 268 311
f 259 311 310
f 260 310 312
f 260 312 261
f 261 313 262
f 261 312 313
f 262 313 269
f 265 314 266
f 266 314 315
f 266 315 316
f 266 316 267
f 267 316 268
f 268 317 318
f 268 318 319
f 268 319 311
f 268 316 317
f 269 313 320
f 269 320 277
f 269 277 273
f 269 271 270
f 272 273 277
f 274 321 275
f 274 277 321
f 275 321 322
f 275 322 280
f 275 280 278
f 275 278 276
f 277 320 323
f 277 323 324
f 277 324 325
f 277 325 321
f 280 326 281
f 280 322 326
f 281 326 282
f 282 326 327
f 282 327 283
f 283 327 328
f 283 328 284
f 284 286 285
f 284 328 329
f 284 329 330
f 284 330 331
f 284 331 286
f 286 331 287
f 287 331 332
f 287 332 333
f 287 333 288
f 288 332 334
f 288 334 335
f 288 335 336
f 288 336 337
f 288 337 338
f 288 338 339
f 288 339 289
f 288 333 332
f 290 339 338
f 290 338 291
f 291 338 337
f 291 337 292
f 292 337 386
f 292 386 340
f 292 340 293
f 293 340 342
f 293 342 341
f 295 341 296
f 296 341 342
f 296 342 298
f 297 343 350
f 297 350 303
f 298 342 340
f 298 340 344
f 298 344 390
f 298 390 343
f 299 300 301
f 300 303 345
f 300 345 346
f 300 346 301
f 301 347 302
f 301 346 348
f 301 348 347
f 302 347 349
f 302 349 304
f 303 350 345
f 304 349 351
f 304 351 352
f 304 352 353
f 304 353 354
f 304 354 355
f 304 355 305
f 305 356 306
f 305 355 356
f 306 356 357
f 306 357 358
f 306 358 359
f 306 359 360
f 306 360 307
f 307 360 359
f 307 359 361
f 307 361 362
f 307 362 363
f 307 363 364
f 307 364 308
f 310 311 365
f 310 365 312
f 311 319 366
f 311 366 367
f 311 367 365
f 312 365 368
f 312 368 369
f 312 369 370
f 312 370 313
f 313 370 323
f 313 323 320
f 315 371 317
f 315 317 316
f 317 371 318
f 318 371 372
f 318 372 319
f 319 372 373
f 319 373 366
f 321 325 374
f 321 374 322
f 322 375 326
f 322 374 325
f 322 325 376
f 322 376 377
f 322 377 378
f 322 378 375
f 323 370 379
f 323 379 377
f 323 377 324
f 324 376 325
f 324 377 376
f 326 375 327
f 327 375 380
f 327 380 328
f 328 380 381
f 328 381 382
f 328 382 329
f 329 382 330
f 330 382 383
f 330 383 334
f 330 334 331
f 331 334 332
f 334 383 384
f 334 384 335
f 335 384 385
f 335 385 336
f 336 386 337
f 336 385 387
f 336 387 388
f 336 388 389
f 336 389 386
f 340 386 390
f 340 390 344
f 343 389 350
f 343 390 386
f 343 386 389
f 345 391 348
f 345 348 346
f 345 350 388
f 345 388 391
f 347 348 349
f 348 391 387
f 348 387 351
f 348 351 349
f 350 389 388
f 351 387 392
f 351 392 352
f 352 392 393
f 352 393 353
f 353 393 394
f 353 394 354
f 354 394 355
f 355 395 356
f 355 394 396
f 355 396 395
f 356 395 397
f 356 397 357
f 357 397 358
f 358 398 399
f 358 399 359
f 358 397 400
f 358 400 373
f 358 373 401
f 358 401 398
f 359 399 402
f 359 402 361
f 361 402 362
f 362 402 403
f 362 403 363
f 365 404 405
f 365 405 406
f 365 406 369
f 365 369 368
f 365 367 404
f 366 373 407
f 366 407 408
f 366 408 409
f 366 409 367
f 367 409 410
f 367 410 404
f 369 406 405
f 369 405 370
f 370 405 379
f 371 411 372
f 372 411 412
f 372 412 413
f 372 413 401
f 372 401 373
f 373 400 407
f 375 378 414
f 375 414 380
f 377 379 414
f 377 414 378
f 379 405 415
f 379 415 416
f 379 416 414
f 380 414 417
f 380 417 418
f 380 418 381
f 381 418 382
f 382 419 420
f 382 420 421
f 382 421 383
f 382 418 419
f 383 421 422
f 383 422 384
f 384 422 423
f 384 423 424
f 384 424 392
f 384 392 387
f 384 387 385
f 387 391 388
f 392 424 423
f 392 423 425
f 392 425 393
f 393 426 394
f 393 425 422
f 393 422 427
f 393 427 426
f 394 426 396
f 395 396 397
f 396 428 429
f 396 429 430
f 396 430 416
f 396 416 431
f 396 431 432
f 396 432 433
f 396 433 407
f 396 407 434
f 396 434 435
f 396 435 397
f 396 426 428
f 397 435 434
f 397 434 407
f 397 407 400
f 398 413 403
f 398 403 402
f 398 402 399
f 398 401 413
f 403 413 436
f 404 410 405
f 405 410 415
f 407 433 408
f 408 433 409
f 409 432 410
f 409 433 432
f 410 416 415
f 410 432 431
f 410 431 416
f 412 436 413
f 414 416 417
f 416 430 420
f 416 420 419
f 416 419 418
f 416 418 417
f 420 430 429
f 420 429 421
f 421 429 437
f 421 437 422
f 422 437 438
f 422 438 427
f 422 425 423
f 426 427 438
f 426 438 428
f 428 438 437
f 428 437 429

