# https://github.com/mikedh/trimesh
v 0.00604138 -0.00482621 0.00889934
v 0.00605984 -0.00482621 0.00883780
v 0.00608226 -0.00482621 0.00904474
v 0.00717926 0.00285779 0.00889934
v 0.00611456 -0.00482621 0.00869964
v 0.00718652 0.00285779 0.00887883
v 0.00611060 -0.00482621 0.00907129
v 0.00728540 0.00285779 0.00908818
v 0.01015120 -0.00482621 0.00297897
v 0.00729595 0.00285779 0.00864172
v 0.01045908 0.00152648 0.00297836
v 0.01044919 0.00141817 0.00297836
v 0.00618246 -0.00482621 0.00909482
v 0.00754252 0.00285779 0.00914067
v 0.01182440 -0.00482621 0.00297897
v 0.01044721 0.00125495 0.00297836
v 0.01044853 -0.00141820 0.00297836
v 0.01048611 -0.00167469 0.00297836
v 0.01075377 -0.00262391 0.00297836
v 0.01076497 0.00285779 0.00297836
v 0.01048479 0.00167390 0.00297836
v 0.00624509 -0.00482621 0.00910568
v 0.00779963 0.00285779 0.00914127
v 0.00645672 -0.00482621 0.00914067
v 0.00651012 -0.00477206 0.00914127
v 0.01249751 -0.00262391 0.00297836
v 0.01183693 -0.00479763 0.00297897
v 0.01181913 -0.00482621 0.00300430
v 0.01245004 0.00285779 0.00297836
v 0.00857360 0.00285779 0.00914127
v 0.00651012 -0.00482621 0.00914127
v 0.01249751 -0.00262391 0.00297897
v 0.01242762 -0.00296614 0.00297897
v 0.01238675 -0.00313687 0.00297897
v 0.01236236 -0.00323766 0.00297897
v 0.01235576 -0.00326173 0.00297897
v 0.01229182 -0.00347910 0.00297897
v 0.01203471 -0.00430046 0.00297897
v 0.01203075 -0.00431174 0.00297897
v 0.01202614 -0.00432452 0.00297897
v 0.01195559 -0.00451407 0.00297897
v 0.01258980 -0.00217186 0.00297836
v 0.01189890 -0.00451407 0.00322512
v 0.01182111 -0.00469985 0.00322512
v 0.01179671 -0.00482621 0.00310084
v 0.01258980 0.00217183 0.00297836
v 0.01239532 0.00285779 0.00322512
v 0.01257596 0.00209059 0.00312135
v 0.00883203 0.00285779 0.00913041
v 0.00883203 0.00245012 0.00914127
v 0.00883203 0.00270811 0.00913946
v 0.00774623 -0.00482621 0.00914127
v 0.01257596 -0.00209063 0.00312135
v 0.01237356 -0.00296614 0.00322512
v 0.01231423 -0.00310152 0.00335906
v 0.01233005 -0.00315793 0.00322512
v 0.01235906 -0.00324518 0.00298620
v 0.01231028 -0.00334522 0.00308515
v 0.01205778 -0.00413649 0.00310928
v 0.01200306 -0.00423577 0.00320702
v 0.01263068 -0.00194621 0.00297836
v 0.01183231 -0.00450655 0.00346705
v 0.01180265 -0.00465622 0.00337052
v 0.01191934 -0.00425608 0.00348274
v 0.01176705 -0.00482621 0.00322512
v 0.01263265 0.00193415 0.00297836
v 0.01233797 0.00285779 0.00344111
v 0.01253574 0.00218311 0.00321426
v 0.01256014 0.00193415 0.00330838
v 0.01258980 0.00193415 0.00317927
v 0.00902585 0.00285779 0.00907431
v 0.00908914 0.00193415 0.00913102
v 0.00908914 0.00219213 0.00911231
v 0.00904694 0.00270811 0.00908215
v 0.00908914 0.00141817 0.00914127
v 0.00908914 0.00167616 0.00913946
v 0.00779963 -0.00482621 0.00913886
v 0.00779963 -0.00477206 0.00914127
v 0.01258980 -0.00193343 0.00317927
v 0.01256014 -0.00193343 0.00330838
v 0.01253574 -0.00218314 0.00321426
v 0.01244345 -0.00262391 0.00322512
v 0.01205976 -0.00311055 0.00414217
v 0.01225292 -0.00320231 0.00346041
v 0.01216260 -0.00348211 0.00348274
v 0.01206437 -0.00390031 0.00338379
v 0.01223512 -0.00348211 0.00322512
v 0.01229379 -0.00328731 0.00322512
v 0.01246059 -0.00219217 0.00348274
v 0.01232874 -0.00296614 0.00340250
v 0.01207492 -0.00296614 0.00419043
v 0.01203800 -0.00407255 0.00328123
v 0.01263265 -0.00193343 0.00297836
v 0.01180924 -0.00441554 0.00364986
v 0.01172815 -0.00475400 0.00346705
v 0.01169519 -0.00482621 0.00347248
v 0.01174068 -0.00450655 0.00373794
v 0.01200636 -0.00398982 0.00347489
v 0.01180924 -0.00416432 0.00390627
v 0.01183627 -0.00425232 0.00373794
v 0.01178023 -0.00433581 0.00382180
v 0.01257068 0.00180327 0.00335302
v 0.01266562 0.00167766 0.00297836
v 0.01205712 0.00285779 0.00431532
v 0.01233994 0.00245012 0.00369571
v 0.01246059 0.00219213 0.00348274
v 0.01250805 0.00193415 0.00348274
v 0.00915440 0.00285779 0.00895907
v 0.00927637 0.00193415 0.00907431
v 0.00924934 0.00219213 0.00905621
v 0.00923022 0.00236363 0.00903931
v 0.00920187 0.00253587 0.00901397
v 0.00917616 0.00270811 0.00898501
v 0.00929944 0.00167616 0.00908336
v 0.00908914 -0.00141820 0.00914127
v 0.00934691 0.00012898 0.00911111
v 0.00934691 0.00038697 0.00911050
v 0.00934691 0.00064420 0.00910326
v 0.00804685 -0.00482621 0.00909783
v 0.00805740 -0.00451407 0.00913765
v 0.00831583 -0.00399734 0.00914067
v 0.00857426 -0.00322412 0.00914127
v 0.01257068 -0.00180331 0.00335302
v 0.01203273 -0.00296614 0.00431894
v 0.01196614 -0.00296614 0.00451441
v 0.01189824 -0.00322412 0.00451441
v 0.01199779 -0.00320758 0.00423930
v 0.01190681 -0.00348211 0.00425680
v 0.01191604 -0.00399809 0.00374096
v 0.01250805 -0.00193343 0.00348274
v 0.01242696 -0.00193268 0.00373915
v 0.01232939 -0.00214403 0.00392195
v 0.01236565 -0.00221473 0.00376509
v 0.01221205 -0.00219217 0.00425680
v 0.01204921 -0.00281044 0.00436901
v 0.01266562 -0.00167694 0.00297836
v 0.01154949 -0.00440952 0.00441487
v 0.01143148 -0.00482621 0.00424232
v 0.01151257 -0.00458176 0.00430929
v 0.01178023 -0.00407481 0.00407882
v 0.01166025 -0.00425608 0.00425680
v 0.01231621 0.00182884 0.00414096
v 0.01228456 0.00167616 0.00429662
v 0.01254299 0.00170098 0.00347369
v 0.01261156 0.00092099 0.00350627
v 0.01257925 0.00163178 0.00338078
v 0.01269067 0.00090219 0.00322512
v 0.01266496 0.00116018 0.00322512
v 0.01274473 0.00090219 0.00297836
v 0.01204459 0.00285779 0.00435393
v 0.01221205 0.00219213 0.00425680
v 0.01236565 0.00221470 0.00376509
v 0.01232939 0.00214475 0.00392195
v 0.01230105 0.00200034 0.00409390
v 0.01226874 0.00192286 0.00423870
v 0.00927241 0.00285779 0.00883056
v 0.00929614 0.00270811 0.00885590
v 0.00947546 0.00103231 0.00902845
v 0.00946228 0.00120380 0.00901820
v 0.00944711 0.00141817 0.00900251
v 0.00942734 0.00167616 0.00897717
v 0.00940492 0.00193415 0.00894761
v 0.00937855 0.00219213 0.00891744
v 0.00947678 0.00232903 0.00877265
v 0.00934295 0.00243282 0.00889331
v 0.00950249 0.00038697 0.00905379
v 0.00949458 0.00064420 0.00904716
v 0.00934691 -0.00038700 0.00911050
v 0.00934691 -0.00012901 0.00911111
v 0.00883137 -0.00244941 0.00914127
v 0.00909309 -0.00167168 0.00913946
v 0.00950315 0.00012898 0.00905440
v 0.00807454 -0.00482621 0.00909059
v 0.00831583 -0.00425608 0.00911714
v 0.00857426 -0.00348211 0.00913645
v 0.00883137 -0.00270815 0.00913946
v 0.01260365 -0.00170101 0.00325046
v 0.01266496 -0.00115946 0.00322512
v 0.01269067 -0.00090223 0.00322512
v 0.01261156 -0.00092103 0.00350627
v 0.01254299 -0.00170101 0.00347369
v 0.01228456 -0.00167619 0.00429662
v 0.01231621 -0.00182888 0.00414096
v 0.01185407 -0.00297441 0.00478892
v 0.01182440 -0.00322412 0.00470567
v 0.01202745 -0.00262391 0.00454398
v 0.01205448 -0.00232004 0.00464352
v 0.01191868 -0.00270815 0.00477203
v 0.01180199 -0.00336929 0.00465499
v 0.01177496 -0.00354229 0.00458319
v 0.01182704 -0.00346707 0.00450416
v 0.01180594 -0.00364006 0.00441185
v 0.01230105 -0.00200037 0.00409390
v 0.01226874 -0.00192139 0.00423870
v 0.01217513 -0.00193343 0.00451441
v 0.01211118 -0.00221774 0.00453975
v 0.01207426 -0.00262391 0.00440883
v 0.01274341 -0.00091501 0.00297836
v 0.01147565 -0.00450279 0.00450597
v 0.01131545 -0.00482621 0.00456630
v 0.01132996 -0.00482621 0.00452648
v 0.01140577 -0.00482621 0.00431471
v 0.01157652 -0.00424780 0.00450597
v 0.01151785 -0.00432829 0.00458621
v 0.01174925 -0.00399207 0.00425016
v 0.01165695 -0.00399809 0.00451441
v 0.01217513 0.00193415 0.00451441
v 0.01221205 0.00167616 0.00451441
v 0.01231555 0.00106014 0.00439496
v 0.01237554 0.00090219 0.00425680
v 0.01245729 0.00090219 0.00399918
v 0.01257793 0.00084653 0.00363538
v 0.01264056 0.00064420 0.00348274
v 0.01271111 0.00064420 0.00322512
v 0.01276582 0.00064420 0.00297836
v 0.01198988 0.00285779 0.00451260
v 0.01204921 0.00281040 0.00436901
v 0.01206635 0.00263816 0.00442150
v 0.01211118 0.00221771 0.00453975
v 0.00934757 0.00285779 0.00874791
v 0.00978663 0.00270811 0.00831352
v 0.00995079 0.00116018 0.00846616
v 0.00955985 0.00113461 0.00891925
v 0.00956578 0.00141817 0.00887340
v 0.00964423 0.00065548 0.00887762
v 0.00973983 0.00057726 0.00877747
v 0.00954403 0.00167616 0.00884806
v 0.00978663 0.00167616 0.00857355
v 0.01000814 0.00188902 0.00827370
v 0.00995013 0.00245012 0.00820733
v 0.00963105 0.00038697 0.00891080
v 0.00934691 -0.00064499 0.00910326
v 0.00950249 -0.00038700 0.00905379
v 0.00950315 -0.00012901 0.00905440
v 0.00908848 -0.00193418 0.00913102
v 0.00929878 -0.00167694 0.00908336
v 0.00929944 -0.00167168 0.00908336
v 0.00963171 0.00012898 0.00891141
v 0.00820507 -0.00482621 0.00904112
v 0.00823342 -0.00472617 0.00906103
v 0.00849053 -0.00425608 0.00906043
v 0.00857887 -0.00397703 0.00907431
v 0.00857426 -0.00373935 0.00910990
v 0.00831780 -0.00449602 0.00907431
v 0.00883137 -0.00296614 0.00912438
v 0.01276582 -0.00064499 0.00297836
v 0.01271111 -0.00064499 0.00322512
v 0.01264056 -0.00064499 0.00348274
v 0.01257793 -0.00084732 0.00363538
v 0.01245729 -0.00090223 0.00399918
v 0.01221205 -0.00167619 0.00451441
v 0.01237554 -0.00090223 0.00425680
v 0.01231555 -0.00105943 0.00439496
v 0.01179012 -0.00306617 0.00488666
v 0.01180990 -0.00289468 0.00493010
v 0.01154026 -0.00310002 0.00542060
v 0.01176639 -0.00322412 0.00483478
v 0.01207228 -0.00214854 0.00468334
v 0.01187582 -0.00262391 0.00490898
v 0.01152444 -0.00276531 0.00564142
v 0.01157520 -0.00399809 0.00472316
v 0.01154949 -0.00415679 0.00466645
v 0.01209272 -0.00193343 0.00473101
v 0.01128381 -0.00482621 0.00464654
v 0.01135105 -0.00452234 0.00478229
v 0.01130886 -0.00470812 0.00470265
v 0.01147236 -0.00424780 0.00476057
v 0.01209272 0.00193415 0.00473101
v 0.01205448 0.00232075 0.00464352
v 0.01207228 0.00214926 0.00468334
v 0.01210261 0.00167917 0.00479254
v 0.01213821 0.00141817 0.00477203
v 0.01227929 0.00090219 0.00454699
v 0.01232346 0.00090219 0.00441909
v 0.01239598 0.00064420 0.00425680
v 0.01254431 0.00064420 0.00378741
v 0.01240323 0.00038621 0.00425680
v 0.01256673 0.00038621 0.00373915
v 0.01264716 0.00038621 0.00348274
v 0.01271902 0.00038621 0.00322512
v 0.01277505 0.00038621 0.00297836
v 0.01188242 0.00285779 0.00478168
v 0.01204130 0.00245012 0.00460552
v 0.01201954 0.00271789 0.00451019
v 0.00976356 0.00285779 0.00828758
v 0.00991585 0.00270811 0.00816691
v 0.01007605 0.00090219 0.00835213
v 0.01006286 0.00116018 0.00833705
v 0.01004968 0.00141817 0.00832136
v 0.00980773 0.00141817 0.00859768
v 0.01002924 0.00167616 0.00829783
v 0.01021845 0.00064420 0.00821819
v 0.00974312 0.00038697 0.00878170
v 0.01009583 0.00038697 0.00837506
v 0.01022438 0.00038697 0.00822604
v 0.01015845 0.00167616 0.00814519
v 0.01005693 0.00245012 0.00807822
v 0.01002397 0.00270811 0.00803840
v 0.00963105 -0.00038700 0.00891080
v 0.00949458 -0.00064499 0.00904716
v 0.00963171 -0.00012901 0.00891141
v 0.00908848 -0.00219217 0.00911231
v 0.00927505 -0.00193418 0.00907431
v 0.00947546 -0.00103235 0.00902845
v 0.01022504 0.00012898 0.00822604
v 0.00831253 -0.00482621 0.00893856
v 0.00840549 -0.00457048 0.00898803
v 0.00845229 -0.00439899 0.00903449
v 0.00866919 -0.00404848 0.00899225
v 0.00870611 -0.00387699 0.00903087
v 0.00873577 -0.00373935 0.00905379
v 0.00878851 -0.00348211 0.00907913
v 0.00900937 -0.00296614 0.00906767
v 0.00904694 -0.00270815 0.00908215
v 0.01277505 -0.00038625 0.00297836
v 0.01271902 -0.00038625 0.00322512
v 0.01254431 -0.00064499 0.00378741
v 0.01264716 -0.00038625 0.00348274
v 0.01256673 -0.00038625 0.00373915
v 0.01240323 -0.00038625 0.00425680
v 0.01239598 -0.00064499 0.00425680
v 0.01210261 -0.00167920 0.00479254
v 0.01232346 -0.00090223 0.00441909
v 0.01227929 -0.00090223 0.00454699
v 0.01213821 -0.00141820 0.00477203
v 0.01149939 -0.00296614 0.00558772
v 0.01146313 -0.00320156 0.00552256
v 0.01180396 -0.00184242 0.00543448
v 0.01174331 -0.00193042 0.00553040
v 0.01153828 -0.00262391 0.00567399
v 0.01147170 -0.00269085 0.00578199
v 0.01139588 -0.00296614 0.00580371
v 0.01125348 -0.00373935 0.00561366
v 0.01132402 -0.00398530 0.00528727
v 0.01129963 -0.00417485 0.00520099
v 0.01126008 -0.00406278 0.00537294
v 0.01205119 -0.00176720 0.00489270
v 0.01122250 -0.00482621 0.00478048
v 0.01126535 -0.00434634 0.00512497
v 0.01120800 -0.00482621 0.00481185
v 0.01180396 0.00184238 0.00543448
v 0.01205119 0.00176717 0.00489270
v 0.01191802 0.00270736 0.00477203
v 0.01182902 0.00270736 0.00497535
v 0.01152444 0.00276528 0.00564142
v 0.01219095 0.00090219 0.00477203
v 0.01228984 0.00064420 0.00457837
v 0.01233401 0.00064420 0.00444926
v 0.01233731 0.00038621 0.00446012
v 0.01277637 0.00012822 0.00297836
v 0.01180199 0.00285779 0.00496449
v 0.00988684 0.00285779 0.00814519
v 0.01000155 0.00285779 0.00800945
v 0.01017823 0.00141817 0.00816993
v 0.01032195 0.00064420 0.00808908
v 0.01030943 0.00090219 0.00807340
v 0.01029690 0.00116018 0.00805711
v 0.01032920 0.00038697 0.00809693
v 0.01026460 0.00167616 0.00801669
v 0.01025141 0.00181531 0.00799859
v 0.01018548 0.00245012 0.00790809
v 0.01025932 0.00261785 0.00775303
v 0.01016373 0.00270510 0.00785017
v 0.00974312 -0.00038700 0.00878170
v 0.00973983 -0.00057805 0.00877747
v 0.00964423 -0.00065702 0.00887762
v 0.01022504 -0.00012901 0.00822604
v 0.01009583 -0.00038700 0.00837506
v 0.00924868 -0.00219217 0.00905621
v 0.00944711 -0.00141820 0.00900251
v 0.00946228 -0.00120384 0.00901820
v 0.00956578 -0.00141820 0.00887340
v 0.00955985 -0.00113464 0.00891925
v 0.00995079 -0.00116021 0.00846616
v 0.00858085 -0.00482621 0.00866767
v 0.00870940 -0.00439673 0.00877687
v 0.00882016 -0.00482621 0.00842513
v 0.00861909 -0.00425608 0.00894157
v 0.00896520 -0.00439523 0.00851744
v 0.00921769 -0.00438620 0.00825439
v 0.00924604 -0.00425608 0.00828456
v 0.00878390 -0.00397703 0.00890296
v 0.00903903 -0.00348211 0.00885530
v 0.00891575 -0.00348211 0.00898381
v 0.00894740 -0.00332566 0.00901820
v 0.00897970 -0.00315493 0.00904595
v 0.00923022 -0.00236441 0.00903931
v 0.01277637 -0.00014029 0.00297836
v 0.01233731 -0.00038625 0.00446012
v 0.01233401 -0.00064499 0.00444926
v 0.01228984 -0.00064499 0.00457837
v 0.01219095 -0.00090223 0.00477203
v 0.01132600 -0.00320758 0.00580431
v 0.01130227 -0.00342269 0.00571864
v 0.01127590 -0.00359418 0.00566374
v 0.01175848 -0.00167619 0.00558712
v 0.01165629 -0.00167619 0.00580371
v 0.01160289 -0.00194621 0.00582422
v 0.01158245 -0.00219217 0.00576449
v 0.01155608 -0.00244941 0.00571080
v 0.01143676 -0.00254267 0.00590869
v 0.01140314 -0.00269987 0.00590869
v 0.01134182 -0.00296614 0.00590808
v 0.01152642 -0.00211921 0.00590869
v 0.01131216 -0.00307595 0.00590869
v 0.01107680 -0.00398982 0.00580853
v 0.01121327 -0.00398530 0.00552920
v 0.01104845 -0.00418839 0.00572528
v 0.01109592 -0.00426661 0.00555816
v 0.01184550 -0.00090674 0.00556660
v 0.01177166 -0.00141820 0.00561728
v 0.01101219 -0.00435988 0.00565228
v 0.01083815 -0.00482621 0.00559979
v 0.01174331 0.00193039 0.00553040
v 0.01160289 0.00194618 0.00582422
v 0.01165629 0.00167616 0.00580371
v 0.01175848 0.00167616 0.00558712
v 0.01177166 0.00141817 0.00561728
v 0.01184550 0.00090670 0.00556660
v 0.01153894 0.00285779 0.00555755
v 0.01151257 0.00285779 0.00561668
v 0.01142555 0.00285779 0.00579526
v 0.01147170 0.00269081 0.00578139
v 0.01154158 0.00259303 0.00568063
v 0.01180199 0.00082397 0.00568546
v 0.01221205 0.00064420 0.00477203
v 0.01229379 0.00038621 0.00458923
v 0.01022504 0.00285779 0.00770537
v 0.01028305 0.00141817 0.00804082
v 0.01045182 0.00064420 0.00791714
v 0.01045776 0.00038697 0.00792619
v 0.01032920 -0.00038700 0.00809693
v 0.01049995 0.00148135 0.00772890
v 0.01037140 0.00167616 0.00786706
v 0.01077948 0.00187623 0.00724323
v 0.01049336 0.00251180 0.00746163
v 0.01069180 0.00270811 0.00712076
v 0.01076761 0.00284500 0.00696872
v 0.01023493 0.00278934 0.00771925
v 0.01022438 -0.00038700 0.00822604
v 0.01007605 -0.00090298 0.00835213
v 0.01021845 -0.00064499 0.00821819
v 0.00940426 -0.00193418 0.00894761
v 0.00942931 -0.00167168 0.00897596
v 0.00980773 -0.00141820 0.00859768
v 0.00954468 -0.00167168 0.00884866
v 0.00991585 -0.00167694 0.00842694
v 0.01002924 -0.00167694 0.00829783
v 0.01004968 -0.00141820 0.00832136
v 0.01006286 -0.00116021 0.00833705
v 0.00897311 -0.00482621 0.00826827
v 0.00900277 -0.00472091 0.00829783
v 0.00917484 -0.00455769 0.00820914
v 0.00946557 -0.00436138 0.00798350
v 0.00938910 -0.00426811 0.00811865
v 0.00942997 -0.00399734 0.00820432
v 0.00928560 -0.00448849 0.00812408
v 0.00946294 -0.00384089 0.00824112
v 0.00949986 -0.00366865 0.00828034
v 0.00916759 -0.00348211 0.00871654
v 0.00920187 -0.00330385 0.00875334
v 0.00909045 -0.00323014 0.00890055
v 0.00913858 -0.00296614 0.00894037
v 0.00982091 -0.00244941 0.00835213
v 0.00947678 -0.00232906 0.00877265
v 0.00937855 -0.00219217 0.00891744
v 0.00929549 -0.00270815 0.00885590
v 0.00978663 -0.00270815 0.00831352
v 0.01229379 -0.00038625 0.00458923
v 0.01221205 -0.00064499 0.00477203
v 0.01180199 -0.00082475 0.00568546
v 0.01126799 -0.00322337 0.00590869
v 0.01125876 -0.00328279 0.00589059
v 0.01129568 -0.00313387 0.00590808
v 0.01115987 -0.00373935 0.00580371
v 0.01168398 -0.00141820 0.00580371
v 0.01160355 -0.00167168 0.00590869
v 0.01160289 -0.00167694 0.00590869
v 0.01155147 -0.00186874 0.00595635
v 0.01154488 -0.00202594 0.00590869
v 0.01133655 -0.00270815 0.00603176
v 0.01130491 -0.00296614 0.00597746
v 0.01128513 -0.00311055 0.00594187
v 0.01106955 -0.00385292 0.00590869
v 0.01104582 -0.00392664 0.00590869
v 0.01100956 -0.00403645 0.00590808
v 0.01100362 -0.00407105 0.00589722
v 0.01097132 -0.00426661 0.00580853
v 0.01078409 -0.00482621 0.00571080
v 0.01155608 0.00245012 0.00571080
v 0.01158245 0.00219213 0.00576449
v 0.01154488 0.00202516 0.00590869
v 0.01155147 0.00186871 0.00595635
v 0.01152642 0.00211842 0.00590808
v 0.01160289 0.00167616 0.00590869
v 0.01168398 0.00141817 0.00580371
v 0.01179276 0.00099621 0.00566675
v 0.01131875 0.00285779 0.00599979
v 0.01140314 0.00269984 0.00590869
v 0.01151851 0.00219213 0.00589360
v 0.01174595 0.00064420 0.00582965
v 0.01180858 0.00064420 0.00570114
v 0.01187714 0.00064420 0.00554549
v 0.01174529 0.00090670 0.00578440
v 0.01188571 0.00038621 0.00554549
v 0.01221930 0.00038621 0.00477203
v 0.01075443 0.00285779 0.00698139
v 0.01043864 0.00090219 0.00789904
v 0.01042743 0.00140463 0.00784293
v 0.01076629 0.00053589 0.00748335
v 0.01083617 0.00063066 0.00737234
v 0.01075904 0.00070738 0.00747249
v 0.01084013 0.00090219 0.00733011
v 0.01073662 0.00116018 0.00744051
v 0.01086122 0.00038697 0.00735183
v 0.01045776 -0.00038700 0.00792619
v 0.01032195 -0.00064499 0.00808908
v 0.01045182 -0.00064499 0.00791714
v 0.01081442 0.00141817 0.00729331
v 0.01102472 0.00155957 0.00696751
v 0.01079728 0.00167616 0.00726857
v 0.01070564 0.00167616 0.00739768
v 0.01085200 0.00195069 0.00711714
v 0.01081046 0.00245012 0.00703207
v 0.01072080 0.00245012 0.00716057
v 0.01101154 0.00173182 0.00694579
v 0.01078343 0.00270811 0.00699165
v 0.01087573 0.00270811 0.00683599
v 0.01098648 0.00270811 0.00664413
v 0.01102934 0.00285779 0.00650899
v 0.01077288 0.00285779 0.00695243
v 0.01017823 -0.00141820 0.00816993
v 0.01029690 -0.00116021 0.00805711
v 0.01030943 -0.00090298 0.00807340
v 0.00999034 -0.00206054 0.00825379
v 0.01015911 -0.00167694 0.00814519
v 0.01015911 -0.00167168 0.00814640
v 0.00906409 -0.00482621 0.00817234
v 0.00925395 -0.00470888 0.00803780
v 0.00943063 -0.00451407 0.00794006
v 0.00973126 -0.00463893 0.00747852
v 0.00996859 -0.00459154 0.00719376
v 0.01000551 -0.00441930 0.00724202
v 0.01021449 -0.00404548 0.00717747
v 0.00971082 -0.00381682 0.00796661
v 0.00974708 -0.00364383 0.00801367
v 0.00950117 -0.00418989 0.00802815
v 0.00954337 -0.00399734 0.00807521
v 0.00960534 -0.00374311 0.00812770
v 0.00966269 -0.00348211 0.00817596
v 0.00953480 -0.00348211 0.00831895
v 0.00945173 -0.00327828 0.00848667
v 0.00934097 -0.00320532 0.00863448
v 0.00922956 -0.00313236 0.00878290
v 0.00994947 -0.00244941 0.00820733
v 0.00972466 -0.00228243 0.00850296
v 0.00972862 -0.00308121 0.00824896
v 0.00991519 -0.00270815 0.00816691
v 0.01221930 -0.00038625 0.00477203
v 0.01187714 -0.00064499 0.00554549
v 0.01188571 -0.00038625 0.00554549
v 0.01180858 -0.00064499 0.00570114
v 0.01174595 -0.00064499 0.00582965
v 0.01174529 -0.00090674 0.00578440
v 0.01103263 -0.00389956 0.00595092
v 0.01164311 -0.00129335 0.00590869
v 0.01156729 -0.00167168 0.00597867
v 0.01157982 -0.00141820 0.00600642
v 0.01156531 -0.00167694 0.00598108
v 0.01128117 -0.00181008 0.00645047
v 0.01120272 -0.00191086 0.00655363
v 0.01135567 -0.00246746 0.00608486
v 0.01106032 -0.00270815 0.00651563
v 0.01103922 -0.00289167 0.00647822
v 0.01081310 -0.00294507 0.00683719
v 0.01101285 -0.00306392 0.00643237
v 0.01079068 -0.00317824 0.00675152
v 0.01105834 -0.00373935 0.00599375
v 0.01076036 -0.00385443 0.00644142
v 0.01048677 -0.00380780 0.00693252
v 0.01053819 -0.00394544 0.00676057
v 0.01099242 -0.00408233 0.00590869
v 0.01077025 -0.00461486 0.00590808
v 0.01071421 -0.00482621 0.00584292
v 0.01153367 0.00204020 0.00592437
v 0.01128183 0.00180929 0.00645047
v 0.01156531 0.00167616 0.00598108
v 0.01133655 0.00270811 0.00603176
v 0.01104054 0.00219213 0.00673704
v 0.01157982 0.00141817 0.00600642
v 0.01128776 0.00285779 0.00605469
v 0.01168134 0.00089617 0.00590869
v 0.01159300 0.00088113 0.00607943
v 0.01170442 0.00064420 0.00590869
v 0.01175056 0.00038621 0.00583930
v 0.01181319 0.00038621 0.00571019
v 0.01098055 0.00064420 0.00716419
v 0.01098714 0.00038697 0.00717204
v 0.01096934 0.00090219 0.00714670
v 0.01086122 -0.00038700 0.00735183
v 0.01076629 -0.00053593 0.00748335
v 0.01028305 -0.00141820 0.00804082
v 0.01043864 -0.00090298 0.00789904
v 0.01073662 -0.00116021 0.00744051
v 0.01084013 -0.00090298 0.00733011
v 0.01075904 -0.00070817 0.00747249
v 0.01083617 -0.00063145 0.00737234
v 0.01094297 0.00141817 0.00710809
v 0.01093836 0.00165811 0.00706947
v 0.01103197 0.00141817 0.00697898
v 0.01116580 0.00090219 0.00683599
v 0.01114009 0.00116018 0.00683599
v 0.01111372 0.00141817 0.00683599
v 0.01106625 0.00193415 0.00678350
v 0.01099110 0.00193415 0.00691261
v 0.01094693 0.00243207 0.00681306
v 0.01106032 0.00270811 0.00651563
v 0.01104318 0.00285779 0.00648486
v 0.01026460 -0.00167694 0.00801669
v 0.00997650 -0.00219217 0.00823810
v 0.01005693 -0.00244941 0.00807822
v 0.00909705 -0.00482621 0.00813675
v 0.00949392 -0.00467804 0.00776208
v 0.00922165 -0.00482621 0.00799979
v 0.00928494 -0.00482621 0.00792317
v 0.01001408 -0.00482621 0.00699647
v 0.01002528 -0.00477206 0.00701276
v 0.01027778 -0.00419591 0.00700552
v 0.01030679 -0.00397553 0.00709240
v 0.01025075 -0.00387398 0.00722573
v 0.00998243 -0.00358441 0.00772649
v 0.00991585 -0.00349189 0.00785620
v 0.00977411 -0.00348211 0.00804745
v 0.00970554 -0.00322412 0.00822423
v 0.01002397 -0.00270815 0.00803840
v 0.01181319 -0.00038625 0.00571019
v 0.01175056 -0.00038625 0.00583930
v 0.01170442 -0.00064499 0.00590869
v 0.01169782 -0.00071945 0.00590869
v 0.01168134 -0.00089696 0.00590869
v 0.01102472 -0.00155961 0.00696751
v 0.01159234 -0.00116021 0.00602995
v 0.01159300 -0.00088192 0.00607943
v 0.01114009 -0.00116021 0.00683599
v 0.01111372 -0.00141820 0.00683599
v 0.01149279 -0.00167694 0.00610959
v 0.01101088 -0.00173185 0.00694579
v 0.01106625 -0.00193418 0.00678350
v 0.01101615 -0.00167168 0.00695303
v 0.01094693 -0.00243286 0.00681306
v 0.01098648 -0.00270815 0.00664413
v 0.01087573 -0.00270815 0.00683599
v 0.01076695 -0.00284504 0.00696872
v 0.01051511 -0.00363630 0.00697656
v 0.01056522 -0.00372882 0.00684202
v 0.01024152 -0.00436815 0.00695364
v 0.01045842 -0.00401765 0.00684202
v 0.01041227 -0.00372882 0.00707490
v 0.01077882 -0.00416056 0.00621517
v 0.01083090 -0.00425006 0.00606555
v 0.01079464 -0.00445465 0.00598289
v 0.01059620 -0.00478334 0.00607822
v 0.01067795 -0.00482621 0.00590808
v 0.01159234 0.00116018 0.00602995
v 0.01125942 0.00090219 0.00666947
v 0.01153960 0.00078109 0.00619225
v 0.01162267 0.00064420 0.00606193
v 0.01163256 0.00038697 0.00606193
v 0.01171431 0.00038621 0.00590808
v 0.01106889 0.00064420 0.00703508
v 0.01105834 0.00090219 0.00701759
v 0.01098714 -0.00038700 0.00717204
v 0.01107417 0.00038697 0.00704293
v 0.01098055 -0.00064499 0.00716419
v 0.01049995 -0.00148138 0.00772890
v 0.01042743 -0.00140466 0.00784293
v 0.01096934 -0.00090298 0.00714670
v 0.01081442 -0.00141820 0.00729331
v 0.01118888 0.00064420 0.00683599
v 0.01127128 0.00064420 0.00668999
v 0.01025075 -0.00181534 0.00799859
v 0.01077948 -0.00187626 0.00724323
v 0.01037140 -0.00167694 0.00786706
v 0.01018614 -0.00244941 0.00790809
v 0.01023361 -0.00198758 0.00797445
v 0.00941349 -0.00482621 0.00776088
v 0.00954864 -0.00482621 0.00759014
v 0.00978531 -0.00482621 0.00729029
v 0.01008462 -0.00482621 0.00688667
v 0.01031668 -0.00348211 0.00731563
v 0.01022240 -0.00348211 0.00744413
v 0.01027185 -0.00316771 0.00751171
v 0.00994420 -0.00322412 0.00793222
v 0.01000023 -0.00286685 0.00800764
v 0.01016373 -0.00270589 0.00785017
v 0.01025932 -0.00261789 0.00775303
v 0.01171431 -0.00038625 0.00590808
v 0.01162267 -0.00064499 0.00606193
v 0.01163256 -0.00038700 0.00606193
v 0.01116580 -0.00090298 0.00683599
v 0.01103197 -0.00141820 0.00697898
v 0.01094297 -0.00141820 0.00710809
v 0.01079728 -0.00167168 0.00726917
v 0.01093836 -0.00165814 0.00706947
v 0.01125942 -0.00090298 0.00666947
v 0.01153960 -0.00078188 0.00619225
v 0.01085200 -0.00195148 0.00711714
v 0.01081046 -0.00244941 0.00703207
v 0.01099176 -0.00193418 0.00691261
v 0.01078277 -0.00270815 0.00699165
v 0.01053357 -0.00292251 0.00725892
v 0.01050654 -0.00309400 0.00722272
v 0.01048611 -0.00322412 0.00719496
v 0.01069114 -0.00270815 0.00712076
v 0.01021317 -0.00482621 0.00667852
v 0.01050259 -0.00411693 0.00670024
v 0.01058631 -0.00482621 0.00606314
v 0.01147302 0.00064420 0.00633041
v 0.01127656 0.00038697 0.00669904
v 0.01119942 0.00038697 0.00683599
v 0.01106889 -0.00064499 0.00703508
v 0.01107417 -0.00038700 0.00704293
v 0.01105834 -0.00090298 0.00701759
v 0.01072014 -0.00244941 0.00716057
v 0.01049336 -0.00251183 0.00746163
v 0.01147302 -0.00064499 0.00633041
v 0.01127656 -0.00038700 0.00669904
v 0.01127128 -0.00064499 0.00668999
v 0.01118888 -0.00064499 0.00683599
v 0.01119942 -0.00038700 0.00683599
f 1 2 5
f 1 5 9
f 1 9 15
f 1 15 28
f 1 28 45
f 1 45 65
f 1 65 96
f 1 96 138
f 1 138 202
f 1 202 201
f 1 201 200
f 1 200 264
f 1 264 338
f 1 338 340
f 1 340 413
f 1 413 489
f 1 489 584
f 1 584 663
f 1 663 717
f 1 717 715
f 1 715 689
f 1 689 626
f 1 626 688
f 1 688 687
f 1 687 686
f 1 686 625
f 1 625 624
f 1 624 622
f 1 622 538
f 1 538 451
f 1 451 377
f 1 377 375
f 1 375 306
f 1 306 239
f 1 239 173
f 1 173 119
f 1 119 77
f 1 77 52
f 1 52 31
f 1 31 24
f 1 24 22
f 1 22 13
f 1 13 7
f 1 7 3
f 1 3 4
f 1 4 2
f 2 4 6
f 2 6 5
f 3 7 8
f 3 8 4
f 4 8 14
f 4 14 23
f 4 23 30
f 4 30 49
f 4 49 71
f 4 71 108
f 4 108 156
f 4 156 220
f 4 220 285
f 4 285 352
f 4 352 353
f 4 353 428
f 4 428 507
f 4 507 531
f 4 531 530
f 4 530 618
f 4 618 591
f 4 591 498
f 4 498 422
f 4 422 421
f 4 421 420
f 4 420 351
f 4 351 282
f 4 282 216
f 4 216 150
f 4 150 104
f 4 104 67
f 4 67 47
f 4 47 29
f 4 29 20
f 4 20 10
f 4 10 6
f 5 6 10
f 5 10 11
f 5 11 12
f 5 12 9
f 7 13 8
f 8 13 14
f 9 12 16
f 9 16 17
f 9 17 18
f 9 18 19
f 9 19 26
f 9 26 15
f 10 20 21
f 10 21 11
f 11 21 20
f 11 20 29
f 11 29 46
f 11 46 66
f 11 66 103
f 11 103 149
f 11 149 215
f 11 215 281
f 11 281 350
f 11 350 388
f 11 388 315
f 11 315 246
f 11 246 198
f 11 198 136
f 11 136 93
f 11 93 61
f 11 61 42
f 11 42 26
f 11 26 19
f 11 19 18
f 11 18 17
f 11 17 16
f 11 16 12
f 13 22 14
f 14 22 24
f 14 24 25
f 14 25 23
f 15 26 27
f 15 27 28
f 23 25 31
f 23 31 52
f 23 52 78
f 23 78 122
f 23 122 170
f 23 170 115
f 23 115 75
f 23 75 50
f 23 50 30
f 24 31 25
f 26 32 33
f 26 33 34
f 26 34 35
f 26 35 36
f 26 36 37
f 26 37 38
f 26 38 39
f 26 39 40
f 26 40 41
f 26 41 27
f 26 42 32
f 27 41 43
f 27 43 28
f 28 43 44
f 28 44 45
f 29 47 48
f 29 48 46
f 30 50 51
f 30 51 49
f 32 42 53
f 32 53 33
f 33 53 54
f 33 54 55
f 33 55 56
f 33 56 34
f 34 56 57
f 34 57 35
f 35 57 36
f 36 57 58
f 36 58 37
f 37 58 59
f 37 59 38
f 38 59 60
f 38 60 39
f 39 60 43
f 39 43 40
f 40 43 41
f 42 61 53
f 43 62 63
f 43 63 44
f 43 60 64
f 43 64 62
f 44 63 65
f 44 65 45
f 46 48 66
f 47 67 68
f 47 68 48
f 48 68 69
f 48 69 70
f 48 70 66
f 49 51 72
f 49 72 73
f 49 73 74
f 49 74 71
f 50 75 76
f 50 76 51
f 51 76 72
f 52 77 78
f 53 61 79
f 53 79 80
f 53 80 81
f 53 81 82
f 53 82 54
f 54 82 55
f 55 83 84
f 55 84 85
f 55 85 86
f 55 86 87
f 55 87 88
f 55 88 56
f 55 82 81
f 55 81 80
f 55 80 89
f 55 89 90
f 55 90 91
f 55 91 83
f 56 88 58
f 56 58 57
f 58 88 87
f 58 87 92
f 58 92 59
f 59 92 60
f 60 92 64
f 61 93 79
f 62 64 94
f 62 94 63
f 63 95 96
f 63 96 65
f 63 94 97
f 63 97 95
f 64 92 86
f 64 86 98
f 64 98 99
f 64 99 100
f 64 100 101
f 64 101 94
f 66 70 102
f 66 102 103
f 67 104 105
f 67 105 106
f 67 106 68
f 68 106 69
f 69 107 102
f 69 102 70
f 69 106 107
f 71 74 109
f 71 109 110
f 71 110 111
f 71 111 112
f 71 112 113
f 71 113 108
f 72 76 114
f 72 114 109
f 72 109 73
f 73 109 74
f 75 115 169
f 75 169 116
f 75 116 117
f 75 117 76
f 76 117 118
f 76 118 114
f 77 119 120
f 77 120 78
f 78 120 121
f 78 121 122
f 79 93 123
f 79 123 80
f 80 123 89
f 83 91 124
f 83 124 125
f 83 125 126
f 83 126 127
f 83 127 85
f 83 85 84
f 85 128 129
f 85 129 98
f 85 98 86
f 85 127 128
f 86 92 87
f 89 123 130
f 89 130 131
f 89 131 132
f 89 132 133
f 89 133 90
f 90 133 134
f 90 134 91
f 91 134 135
f 91 135 124
f 93 136 123
f 94 101 137
f 94 137 97
f 95 97 138
f 95 138 96
f 97 137 139
f 97 139 138
f 98 129 99
f 99 140 141
f 99 141 101
f 99 101 100
f 99 129 140
f 101 141 137
f 102 107 142
f 102 142 143
f 102 143 144
f 102 144 145
f 102 145 146
f 102 146 147
f 102 147 148
f 102 148 103
f 103 148 149
f 104 150 151
f 104 151 105
f 105 151 152
f 105 152 106
f 106 152 153
f 106 153 107
f 107 153 154
f 107 154 155
f 107 155 142
f 108 113 157
f 108 157 156
f 109 114 158
f 109 158 159
f 109 159 160
f 109 160 110
f 110 160 161
f 110 161 162
f 110 162 111
f 111 162 163
f 111 163 164
f 111 164 165
f 111 165 157
f 111 157 112
f 112 157 113
f 114 118 166
f 114 166 167
f 114 167 158
f 115 168 169
f 115 170 171
f 115 171 168
f 116 169 234
f 116 234 172
f 116 172 117
f 117 172 166
f 117 166 118
f 119 173 174
f 119 174 120
f 120 174 121
f 121 174 175
f 121 175 176
f 121 176 122
f 122 176 170
f 123 136 177
f 123 177 178
f 123 178 179
f 123 179 180
f 123 180 181
f 123 181 182
f 123 182 183
f 123 183 131
f 123 131 130
f 124 135 125
f 125 184 185
f 125 185 126
f 125 135 186
f 125 186 187
f 125 187 188
f 125 188 184
f 126 185 189
f 126 189 190
f 126 190 191
f 126 191 192
f 126 192 127
f 127 192 128
f 128 192 140
f 128 140 129
f 131 193 132
f 131 183 194
f 131 194 193
f 132 193 134
f 132 134 133
f 134 193 194
f 134 194 195
f 134 195 196
f 134 196 197
f 134 197 135
f 135 197 186
f 136 198 178
f 136 178 177
f 137 199 200
f 137 200 201
f 137 201 202
f 137 202 138
f 137 138 139
f 137 141 203
f 137 203 204
f 137 204 199
f 140 192 205
f 140 205 141
f 141 205 206
f 141 206 203
f 142 155 207
f 142 207 208
f 142 208 143
f 143 208 209
f 143 209 210
f 143 210 211
f 143 211 144
f 144 211 145
f 145 211 212
f 145 212 213
f 145 213 147
f 145 147 146
f 147 149 148
f 147 213 214
f 147 214 215
f 147 215 149
f 150 216 217
f 150 217 151
f 151 153 152
f 151 217 218
f 151 218 219
f 151 219 207
f 151 207 155
f 151 155 154
f 151 154 153
f 156 157 220
f 157 221 220
f 157 165 221
f 158 222 223
f 158 223 224
f 158 224 159
f 158 167 225
f 158 225 226
f 158 226 222
f 159 224 160
f 160 224 161
f 161 224 227
f 161 227 162
f 162 227 228
f 162 228 229
f 162 229 163
f 163 230 164
f 163 229 230
f 164 230 165
f 165 230 221
f 166 231 167
f 166 172 238
f 166 238 231
f 167 231 226
f 167 226 225
f 168 171 232
f 168 232 233
f 168 233 234
f 168 234 169
f 170 176 171
f 171 176 235
f 171 235 236
f 171 236 237
f 171 237 232
f 172 234 301
f 172 301 238
f 173 239 240
f 173 240 174
f 174 241 242
f 174 242 243
f 174 243 175
f 174 240 244
f 174 244 241
f 175 243 245
f 175 245 176
f 176 245 235
f 178 198 179
f 179 198 246
f 179 246 247
f 179 247 248
f 179 248 180
f 180 248 249
f 180 249 250
f 180 250 181
f 181 250 182
f 182 251 183
f 182 250 252
f 182 252 253
f 182 253 251
f 183 251 195
f 183 195 194
f 184 254 185
f 184 188 255
f 184 255 254
f 185 254 256
f 185 256 257
f 185 257 189
f 186 197 196
f 186 196 187
f 187 196 195
f 187 195 258
f 187 258 188
f 188 259 260
f 188 260 255
f 188 258 259
f 189 261 262
f 189 262 190
f 189 257 261
f 190 262 206
f 190 206 191
f 191 206 192
f 192 206 205
f 195 263 258
f 195 251 263
f 199 204 200
f 200 204 264
f 203 206 262
f 203 262 204
f 204 265 266
f 204 266 264
f 204 262 267
f 204 267 265
f 207 268 208
f 207 219 269
f 207 269 270
f 207 270 268
f 208 268 271
f 208 271 272
f 208 272 273
f 208 273 274
f 208 274 209
f 209 274 210
f 210 274 275
f 210 275 212
f 210 212 211
f 212 275 276
f 212 276 213
f 213 276 277
f 213 277 278
f 213 278 279
f 213 279 280
f 213 280 214
f 214 280 281
f 214 281 215
f 216 282 269
f 216 269 283
f 216 283 284
f 216 284 217
f 217 284 218
f 218 283 219
f 218 284 283
f 219 283 269
f 220 221 285
f 221 286 285
f 221 230 286
f 222 226 287
f 222 287 288
f 222 288 289
f 222 289 223
f 223 289 290
f 223 290 224
f 224 290 291
f 224 291 228
f 224 228 227
f 226 292 287
f 226 231 293
f 226 293 294
f 226 294 295
f 226 295 292
f 228 291 229
f 229 291 296
f 229 296 230
f 230 297 298
f 230 298 286
f 230 296 297
f 231 238 293
f 232 237 233
f 233 299 301
f 233 301 234
f 233 237 300
f 233 300 299
f 235 302 303
f 235 303 236
f 235 245 302
f 236 303 304
f 236 304 300
f 236 300 237
f 238 305 294
f 238 294 293
f 238 301 367
f 238 367 305
f 239 306 307
f 239 307 308
f 239 308 240
f 240 308 241
f 240 241 244
f 241 309 310
f 241 310 311
f 241 311 312
f 241 312 242
f 241 308 309
f 242 312 243
f 243 312 245
f 245 313 314
f 245 314 302
f 245 312 313
f 246 315 247
f 247 315 316
f 247 316 248
f 248 317 249
f 248 316 318
f 248 318 319
f 248 319 320
f 248 320 317
f 249 317 321
f 249 321 252
f 249 252 250
f 251 322 263
f 251 253 323
f 251 323 324
f 251 324 325
f 251 325 322
f 252 321 323
f 252 323 253
f 254 255 260
f 254 260 326
f 254 326 256
f 256 326 327
f 256 327 257
f 257 327 261
f 258 263 328
f 258 328 260
f 258 260 259
f 260 328 329
f 260 329 330
f 260 330 331
f 260 331 332
f 260 332 326
f 261 333 334
f 261 334 262
f 261 327 333
f 262 335 267
f 262 334 336
f 262 336 335
f 263 322 337
f 263 337 328
f 264 266 338
f 265 267 339
f 265 339 340
f 265 340 266
f 266 340 338
f 267 335 339
f 268 341 342
f 268 342 271
f 268 270 341
f 269 282 343
f 269 343 344
f 269 344 345
f 269 345 270
f 270 345 341
f 271 342 272
f 272 342 346
f 272 346 273
f 273 346 347
f 273 347 274
f 274 347 348
f 274 348 275
f 275 348 277
f 275 277 276
f 277 349 389
f 277 389 320
f 277 320 319
f 277 319 278
f 277 348 349
f 278 319 318
f 278 318 279
f 279 318 316
f 279 316 280
f 280 316 388
f 280 388 350
f 280 350 281
f 282 351 345
f 282 345 344
f 282 344 343
f 285 286 352
f 286 298 353
f 286 353 352
f 287 292 288
f 288 292 289
f 289 354 291
f 289 291 290
f 289 292 354
f 291 354 296
f 292 355 356
f 292 356 357
f 292 357 354
f 292 295 358
f 292 358 355
f 294 305 295
f 295 305 358
f 296 354 359
f 296 359 360
f 296 360 297
f 297 361 298
f 297 360 361
f 298 361 362
f 298 362 363
f 298 363 353
f 299 364 301
f 299 300 365
f 299 365 364
f 300 304 366
f 300 366 365
f 301 364 368
f 301 368 367
f 302 314 303
f 303 314 369
f 303 369 370
f 303 370 371
f 303 371 304
f 304 371 372
f 304 372 373
f 304 373 374
f 304 374 365
f 304 365 366
f 305 367 432
f 305 432 358
f 306 375 307
f 307 376 308
f 307 375 377
f 307 377 376
f 308 376 378
f 308 378 309
f 309 378 379
f 309 379 380
f 309 380 381
f 309 381 382
f 309 382 310
f 310 383 384
f 310 384 385
f 310 385 311
f 310 382 383
f 311 385 386
f 311 386 312
f 312 386 313
f 313 386 387
f 313 387 369
f 313 369 314
f 315 388 316
f 317 320 321
f 320 389 390
f 320 390 321
f 321 390 323
f 322 325 337
f 323 390 391
f 323 391 324
f 324 391 392
f 324 392 325
f 325 392 337
f 326 332 327
f 327 332 393
f 327 393 394
f 327 394 395
f 327 395 333
f 328 337 396
f 328 396 397
f 328 397 398
f 328 398 329
f 329 398 399
f 329 399 400
f 329 400 330
f 330 400 331
f 331 401 402
f 331 402 403
f 331 403 332
f 331 400 399
f 331 399 404
f 331 404 401
f 332 403 405
f 332 405 393
f 333 395 406
f 333 406 407
f 333 407 336
f 333 336 334
f 335 408 409
f 335 409 339
f 335 336 408
f 336 407 408
f 337 392 410
f 337 410 411
f 337 411 396
f 339 412 340
f 339 409 412
f 340 412 413
f 341 345 414
f 341 414 415
f 341 415 416
f 341 416 417
f 341 417 342
f 342 417 418
f 342 418 419
f 342 419 346
f 345 351 420
f 345 420 421
f 345 421 422
f 345 422 423
f 345 423 424
f 345 424 414
f 346 425 426
f 346 426 347
f 346 419 425
f 347 426 427
f 347 427 348
f 348 427 349
f 349 427 469
f 349 469 389
f 353 363 428
f 354 357 429
f 354 429 359
f 355 430 356
f 355 358 430
f 356 430 357
f 357 430 429
f 358 431 430
f 358 432 516
f 358 516 431
f 359 429 433
f 359 433 434
f 359 434 435
f 359 435 360
f 360 435 436
f 360 436 361
f 361 436 362
f 362 436 437
f 362 437 438
f 362 438 363
f 363 438 439
f 363 439 428
f 364 365 368
f 365 440 368
f 365 374 441
f 365 441 442
f 365 442 440
f 367 368 440
f 367 440 432
f 369 387 443
f 369 443 444
f 369 444 370
f 370 372 371
f 370 444 372
f 372 445 373
f 372 444 446
f 372 446 447
f 372 447 448
f 372 448 445
f 373 445 449
f 373 449 374
f 374 450 441
f 374 449 450
f 376 377 379
f 376 379 378
f 377 451 452
f 377 452 379
f 379 452 453
f 379 453 380
f 380 454 455
f 380 455 456
f 380 456 381
f 380 453 457
f 380 457 454
f 381 456 458
f 381 458 459
f 381 459 382
f 382 459 383
f 383 460 461
f 383 461 385
f 383 385 384
f 383 459 460
f 385 461 462
f 385 462 386
f 386 462 463
f 386 463 387
f 387 464 465
f 387 465 466
f 387 466 443
f 387 463 467
f 387 467 468
f 387 468 464
f 389 469 390
f 390 469 391
f 391 470 392
f 391 469 470
f 392 470 471
f 392 471 410
f 393 472 473
f 393 473 394
f 393 405 474
f 393 474 472
f 394 473 475
f 394 475 395
f 395 475 406
f 396 411 476
f 396 476 397
f 397 476 477
f 397 477 478
f 397 478 479
f 397 479 398
f 398 480 404
f 398 404 399
f 398 479 480
f 401 481 402
f 401 404 481
f 402 481 403
f 403 481 482
f 403 482 405
f 404 480 479
f 404 479 481
f 405 483 474
f 405 482 483
f 406 475 484
f 406 484 485
f 406 485 486
f 406 486 487
f 406 487 408
f 406 408 407
f 408 488 489
f 408 489 412
f 408 412 409
f 408 487 488
f 410 471 411
f 411 471 476
f 412 489 413
f 414 424 490
f 414 490 491
f 414 491 415
f 415 492 493
f 415 493 416
f 415 491 494
f 415 494 492
f 416 495 496
f 416 496 417
f 416 493 495
f 417 496 418
f 418 496 497
f 418 497 419
f 419 497 425
f 422 498 499
f 422 499 423
f 423 499 500
f 423 500 490
f 423 490 424
f 425 501 502
f 425 502 503
f 425 503 426
f 425 497 496
f 425 496 504
f 425 504 501
f 426 503 505
f 426 505 506
f 426 506 427
f 427 506 559
f 427 559 469
f 428 439 438
f 428 438 507
f 429 430 508
f 429 508 509
f 429 509 433
f 430 431 510
f 430 510 511
f 430 511 512
f 430 512 513
f 430 513 514
f 430 514 508
f 431 515 510
f 431 516 600
f 431 600 515
f 432 440 442
f 432 442 517
f 432 517 518
f 432 518 516
f 433 509 519
f 433 519 520
f 433 520 521
f 433 521 522
f 433 522 434
f 434 522 435
f 435 523 524
f 435 524 525
f 435 525 436
f 435 522 521
f 435 521 526
f 435 526 523
f 436 525 437
f 437 527 438
f 437 525 527
f 438 527 528
f 438 528 529
f 438 529 530
f 438 530 531
f 438 531 507
f 441 450 442
f 442 450 449
f 442 449 532
f 442 532 533
f 442 533 534
f 442 534 517
f 443 466 447
f 443 447 446
f 443 446 444
f 445 448 449
f 447 466 535
f 447 535 448
f 448 535 536
f 448 536 537
f 448 537 449
f 449 537 532
f 451 538 452
f 452 538 453
f 453 538 539
f 453 539 457
f 454 457 540
f 454 540 541
f 454 541 542
f 454 542 543
f 454 543 544
f 454 544 545
f 454 545 546
f 454 546 547
f 454 547 455
f 455 547 548
f 455 548 456
f 456 548 549
f 456 549 458
f 457 539 540
f 458 549 459
f 459 549 546
f 459 546 550
f 459 550 551
f 459 551 461
f 459 461 460
f 461 551 552
f 461 552 553
f 461 553 554
f 461 554 463
f 461 463 462
f 463 554 467
f 464 555 465
f 464 468 555
f 465 555 466
f 466 555 556
f 466 556 535
f 467 554 468
f 468 554 557
f 468 557 558
f 468 558 555
f 469 559 470
f 470 560 471
f 470 559 561
f 470 561 560
f 471 560 562
f 471 562 563
f 471 563 564
f 471 564 476
f 472 474 483
f 472 483 565
f 472 565 484
f 472 484 473
f 473 484 475
f 476 564 566
f 476 566 477
f 477 567 478
f 477 566 568
f 477 568 567
f 478 567 569
f 478 569 479
f 479 569 570
f 479 570 571
f 479 571 572
f 479 572 481
f 481 572 571
f 481 571 573
f 481 573 574
f 481 574 482
f 482 574 483
f 483 574 575
f 483 575 576
f 483 576 577
f 483 577 578
f 483 578 565
f 484 565 485
f 485 565 486
f 486 565 579
f 486 579 487
f 487 579 580
f 487 580 581
f 487 581 582
f 487 582 583
f 487 583 488
f 488 583 489
f 489 583 584
f 490 500 491
f 491 500 494
f 492 585 493
f 492 494 585
f 493 586 587
f 493 587 495
f 493 585 588
f 493 588 589
f 493 589 586
f 494 500 588
f 494 588 585
f 495 587 590
f 495 590 496
f 496 590 504
f 498 591 588
f 498 588 499
f 499 588 500
f 501 504 592
f 501 592 593
f 501 593 594
f 501 594 595
f 501 595 502
f 502 595 596
f 502 596 503
f 503 596 505
f 504 590 592
f 505 596 636
f 505 636 561
f 505 561 559
f 505 559 506
f 508 514 509
f 509 514 519
f 510 597 511
f 510 515 598
f 510 598 597
f 511 597 599
f 511 599 512
f 512 599 513
f 513 599 514
f 514 599 519
f 515 600 672
f 515 672 598
f 516 518 601
f 516 601 600
f 517 534 518
f 518 534 533
f 518 533 602
f 518 602 603
f 518 603 604
f 518 604 605
f 518 605 606
f 518 606 607
f 518 607 601
f 519 608 520
f 519 599 608
f 520 609 521
f 520 608 610
f 520 610 611
f 520 611 612
f 520 612 613
f 520 613 590
f 520 590 587
f 520 587 586
f 520 586 526
f 520 526 609
f 521 609 526
f 523 526 524
f 524 527 525
f 524 526 527
f 526 586 614
f 526 614 615
f 526 615 527
f 527 615 616
f 527 616 528
f 528 616 529
f 529 617 530
f 529 616 617
f 530 617 618
f 532 602 533
f 532 537 619
f 532 619 602
f 535 556 620
f 535 620 536
f 536 619 537
f 536 620 621
f 536 621 619
f 538 622 539
f 539 623 540
f 539 622 624
f 539 624 625
f 539 625 623
f 540 623 541
f 541 623 626
f 541 626 542
f 542 626 627
f 542 627 628
f 542 628 544
f 542 544 543
f 544 628 629
f 544 629 630
f 544 630 545
f 545 630 546
f 546 549 548
f 546 548 547
f 546 630 631
f 546 631 632
f 546 632 633
f 546 633 550
f 550 633 634
f 550 634 551
f 551 634 552
f 552 634 557
f 552 557 553
f 553 557 554
f 555 558 635
f 555 635 621
f 555 621 620
f 555 620 556
f 557 634 558
f 558 634 635
f 560 561 636
f 560 636 562
f 562 636 637
f 562 637 563
f 563 638 639
f 563 639 564
f 563 637 638
f 564 639 640
f 564 640 566
f 565 578 579
f 566 640 568
f 567 568 641
f 567 641 569
f 568 640 642
f 568 642 643
f 568 643 644
f 568 644 645
f 568 645 641
f 569 646 570
f 569 641 646
f 570 647 648
f 570 648 571
f 570 646 641
f 570 641 649
f 570 649 647
f 571 648 650
f 571 650 573
f 573 651 574
f 573 650 651
f 574 651 652
f 574 652 653
f 574 653 575
f 575 653 577
f 575 577 576
f 577 653 654
f 577 654 655
f 577 655 579
f 577 579 578
f 579 655 580
f 580 630 629
f 580 629 628
f 580 628 656
f 580 656 657
f 580 657 581
f 580 655 654
f 580 654 658
f 580 658 630
f 581 657 659
f 581 659 582
f 582 659 660
f 582 660 661
f 582 661 583
f 583 661 662
f 583 662 663
f 583 663 584
f 586 589 614
f 588 591 618
f 588 618 617
f 588 617 589
f 589 617 616
f 589 616 615
f 589 615 614
f 590 613 612
f 590 612 593
f 590 593 664
f 590 664 592
f 592 664 593
f 593 612 665
f 593 665 666
f 593 666 667
f 593 667 594
f 594 667 668
f 594 668 669
f 594 669 595
f 595 669 697
f 595 697 637
f 595 637 636
f 595 636 596
f 597 670 671
f 597 671 599
f 597 598 670
f 598 672 722
f 598 722 673
f 598 673 670
f 599 671 610
f 599 610 608
f 600 601 672
f 601 607 674
f 601 674 672
f 602 619 675
f 602 675 676
f 602 676 603
f 603 676 604
f 604 677 605
f 604 676 678
f 604 678 677
f 605 677 606
f 606 677 607
f 607 677 674
f 610 671 611
f 611 665 612
f 611 671 679
f 611 679 680
f 611 680 666
f 611 666 665
f 619 621 681
f 619 681 682
f 619 682 683
f 619 683 675
f 621 635 684
f 621 684 685
f 621 685 681
f 623 625 686
f 623 686 687
f 623 687 688
f 623 688 626
f 626 689 656
f 626 656 628
f 626 628 627
f 630 658 631
f 631 690 691
f 631 691 692
f 631 692 693
f 631 693 632
f 631 658 654
f 631 654 690
f 632 693 633
f 633 693 694
f 633 694 635
f 633 635 634
f 635 694 695
f 635 695 696
f 635 696 684
f 637 697 638
f 638 698 643
f 638 643 639
f 638 697 699
f 638 699 698
f 639 643 640
f 640 643 642
f 641 645 644
f 641 644 700
f 641 700 701
f 641 701 702
f 641 702 678
f 641 678 675
f 641 675 703
f 641 703 704
f 641 704 649
f 643 705 644
f 643 698 706
f 643 706 705
f 644 705 700
f 647 649 704
f 647 704 682
f 647 682 707
f 647 707 708
f 647 708 709
f 647 709 648
f 648 709 650
f 650 709 652
f 650 652 651
f 652 710 653
f 652 709 710
f 653 711 712
f 653 712 713
f 653 713 654
f 653 710 714
f 653 714 696
f 653 696 695
f 653 695 711
f 654 713 690
f 656 689 715
f 656 715 661
f 656 661 659
f 656 659 716
f 656 716 657
f 657 716 659
f 659 661 660
f 661 715 662
f 662 715 717
f 662 717 663
f 666 680 718
f 666 718 667
f 667 718 668
f 668 718 719
f 668 719 727
f 668 727 699
f 668 699 697
f 668 697 669
f 670 679 671
f 670 673 720
f 670 720 679
f 672 674 721
f 672 721 722
f 673 722 730
f 673 730 720
f 674 723 721
f 674 677 723
f 675 678 676
f 675 683 703
f 677 678 702
f 677 702 701
f 677 701 723
f 679 720 680
f 680 720 719
f 680 719 718
f 681 685 682
f 682 724 708
f 682 708 707
f 682 704 703
f 682 703 683
f 682 685 725
f 682 725 724
f 684 696 725
f 684 725 685
f 690 713 692
f 690 692 691
f 692 713 712
f 692 712 711
f 692 711 694
f 692 694 693
f 694 711 695
f 696 714 725
f 698 726 706
f 698 699 726
f 699 727 726
f 700 723 701
f 700 705 706
f 700 706 728
f 700 728 729
f 700 729 723
f 706 726 728
f 708 724 710
f 708 710 709
f 710 725 714
f 710 724 725
f 719 720 730
f 719 730 727
f 721 723 729
f 721 729 730
f 721 730 722
f 726 727 728
f 727 730 728
f 728 730 729

