# https://github.com/mikedh/trimesh
v 0.00776251 -0.03394301 0.01279394
v 0.00901513 -0.03394301 0.01279394
v 0.00901513 -0.03393792 0.01530149
v 0.00776251 -0.03393792 0.01404771
v 0.00650872 -0.03387556 0.01404771
v 0.00650872 -0.03387556 0.01279394
v 0.00650872 -0.03386538 0.01154017
v 0.00776251 -0.03392647 0.01154017
v 0.00901513 -0.03392265 0.01154017
v 0.01026892 -0.03373685 0.01154017
v 0.01026892 -0.03374830 0.01279394
v 0.01026892 -0.03374830 0.01701522
v 0.00776251 -0.03392901 0.01530149
v 0.00947576 -0.03381193 0.01701522
v 0.00901513 -0.03384375 0.01701522
v 0.00650872 -0.03384757 0.01701522
v 0.00650872 -0.03386538 0.01530149
v 0.00559628 -0.03343779 0.01701522
v 0.00559628 -0.03343779 0.01154017
v 0.00559628 -0.03341998 0.01028639
v 0.00650872 -0.03381066 0.01028639
v 0.00776251 -0.03384884 0.01028639
v 0.00901513 -0.03384757 0.01028639
v 0.01026892 -0.03368595 0.01028639
v 0.01105152 -0.03331180 0.01154017
v 0.01105034 -0.03329781 0.01028639
v 0.01105152 -0.03331180 0.01701522
v 0.01106855 -0.03316928 0.02532796
v 0.01100804 -0.03316928 0.02604573
v 0.01099746 -0.03316928 0.02611064
v 0.01026892 -0.03316928 0.02634619
v 0.00901513 -0.03316928 0.02648158
v 0.00593117 -0.03358923 0.01701522
v 0.00812326 -0.03316928 0.02644634
v 0.00776251 -0.03316928 0.02642408
v 0.00698873 -0.03316928 0.02625530
v 0.00680425 -0.03316928 0.02618668
v 0.00577724 -0.03316928 0.02506830
v 0.00573259 -0.03316928 0.02499226
v 0.00557160 -0.03316928 0.02407604
v 0.00549170 -0.03307256 0.01701708
v 0.00551990 -0.03316928 0.02282227
v 0.00531074 -0.03243754 0.01028639
v 0.00569146 -0.03328890 0.00939243
v 0.00650872 -0.03341488 0.00924591
v 0.00776251 -0.03343016 0.00923293
v 0.00901513 -0.03343016 0.00923293
v 0.01026892 -0.03335635 0.00931083
v 0.01099805 -0.03320873 0.00948146
v 0.01119664 -0.03243754 0.01028639
v 0.01119840 -0.03243754 0.01154017
v 0.01119899 -0.03243754 0.01279394
v 0.01107561 -0.03316928 0.01701708
v 0.01107561 -0.03316928 0.02156849
v 0.01107502 -0.03316928 0.02282227
v 0.01107267 -0.03316928 0.02387017
v 0.01119076 -0.03243881 0.02532796
v 0.01119546 -0.03243881 0.02407604
v 0.01104212 -0.03243881 0.02619039
v 0.01026892 -0.03243881 0.02660584
v 0.00901513 -0.03243881 0.02678575
v 0.00776251 -0.03243881 0.02670600
v 0.00665736 -0.03243881 0.02629054
v 0.00603046 -0.03243881 0.02575825
v 0.00566561 -0.03243881 0.02513136
v 0.00538066 -0.03243881 0.02407604
v 0.00531133 -0.03243881 0.02282227
v 0.00531074 -0.03243754 0.01701522
v 0.00528195 -0.02094223 0.01049968
v 0.00531015 -0.02094223 0.01028639
v 0.00554634 -0.02094223 0.00934977
v 0.00559628 -0.03118531 0.00915503
v 0.00559628 -0.03243754 0.00920882
v 0.00519676 -0.02094223 0.01404771
v 0.00521203 -0.02094223 0.01305360
v 0.00523788 -0.02094223 0.01173305
v 0.00650872 -0.03243754 0.00871361
v 0.00776251 -0.03243754 0.00867096
v 0.00901513 -0.03243754 0.00867096
v 0.01026892 -0.03243754 0.00885272
v 0.01104564 -0.03243754 0.00934792
v 0.01104212 -0.03118531 0.00930341
v 0.01118900 -0.03118531 0.01028639
v 0.01118900 -0.03118403 0.01701708
v 0.01119899 -0.03243754 0.01701522
v 0.01119840 -0.03243881 0.02282227
v 0.01118900 -0.03118403 0.02532796
v 0.01104212 -0.03118403 0.02621636
v 0.01026892 -0.03118403 0.02667446
v 0.00901513 -0.03118403 0.02687106
v 0.00827190 -0.02574498 0.02722346
v 0.00776251 -0.02867830 0.02696194
v 0.00721199 -0.02414152 0.02719934
v 0.00710506 -0.02330543 0.02722716
v 0.00705571 -0.02241207 0.02725684
v 0.00698873 -0.02115730 0.02729764
v 0.00697816 -0.02094350 0.02730506
v 0.00587477 -0.02817054 0.02596412
v 0.00551344 -0.02491780 0.02532796
v 0.00585362 -0.02742480 0.02599008
v 0.00582072 -0.02617257 0.02603460
v 0.00579134 -0.02491780 0.02607540
v 0.00576666 -0.02366430 0.02611064
v 0.00534658 -0.02867830 0.02407604
v 0.00548348 -0.02366430 0.02532796
v 0.00546174 -0.02241207 0.02532796
v 0.00544704 -0.02115730 0.02532796
v 0.00544469 -0.02094350 0.02532796
v 0.00532660 -0.02617257 0.02407604
v 0.00531838 -0.02491780 0.02407604
v 0.00531250 -0.02366430 0.02407604
v 0.00559628 -0.02094223 0.00915503
v 0.00650872 -0.02094223 0.00859306
v 0.00650872 -0.03118531 0.00859491
v 0.00521732 -0.02094223 0.01530149
v 0.00531133 -0.02241207 0.02407604
v 0.00531133 -0.02094350 0.02407604
v 0.00776251 -0.03118531 0.00853742
v 0.00901513 -0.03118531 0.00853742
v 0.01026892 -0.03118531 0.00874143
v 0.01099570 -0.02993181 0.00941098
v 0.01109499 -0.02993181 0.01028639
v 0.01113025 -0.03039121 0.01701522
v 0.01109558 -0.02993053 0.02532796
v 0.01099570 -0.02993053 0.02615144
v 0.00957681 -0.02094350 0.02695081
v 0.00909151 -0.02094350 0.02730692
v 0.00896871 -0.02094350 0.02737739
v 0.00893875 -0.02115730 0.02737739
v 0.00884768 -0.02241207 0.02733659
v 0.00872606 -0.02366430 0.02729208
v 0.00857037 -0.02491780 0.02725127
v 0.00845227 -0.02574498 0.02722346
v 0.00776251 -0.02094350 0.02747940
v 0.00804629 -0.02491780 0.02725127
v 0.00712093 -0.02094350 0.02734030
v 0.00645819 -0.02094350 0.02689332
v 0.00530604 -0.02094223 0.01701522
v 0.00635126 -0.02094350 0.02680615
v 0.00574728 -0.02241207 0.02614402
v 0.00573024 -0.02094350 0.02617926
v 0.00549405 -0.02094350 0.02547819
v 0.00533248 -0.02094350 0.02428933
v 0.00776251 -0.02094223 0.00853556
v 0.00526256 -0.02094223 0.01653671
v 0.00880186 -0.02094223 0.00893989
v 0.00901513 -0.02094223 0.00902335
v 0.00955507 -0.02094223 0.00949073
v 0.00966494 -0.02094223 0.00958717
v 0.01093048 -0.02926624 0.00956677
v 0.00968551 -0.02094223 0.01016769
v 0.00968844 -0.02094223 0.01028639
v 0.01109558 -0.02993053 0.01701708
v 0.00968903 -0.02094350 0.02532796
v 0.00966494 -0.02094350 0.02634433
v 0.01093107 -0.02926497 0.02603274
v 0.00968844 -0.02094223 0.01701522
v 0.00582894 -0.02094350 0.02628498
v 0.00968903 -0.02094350 0.01701708
f 1 2 3
f 1 3 4
f 1 4 5
f 1 5 6
f 1 6 7
f 1 7 8
f 1 8 2
f 2 8 9
f 2 9 10
f 2 10 11
f 2 11 12
f 2 12 3
f 3 13 4
f 3 12 14
f 3 14 15
f 3 15 16
f 3 16 13
f 4 13 5
f 5 13 17
f 5 17 18
f 5 18 19
f 5 19 6
f 6 19 7
f 7 19 20
f 7 20 21
f 7 21 8
f 8 21 22
f 8 22 23
f 8 23 9
f 9 23 24
f 9 24 10
f 10 25 11
f 10 24 26
f 10 26 25
f 11 25 27
f 11 27 12
f 12 27 28
f 12 28 29
f 12 29 30
f 12 30 14
f 13 16 17
f 14 30 15
f 15 30 31
f 15 31 32
f 15 32 16
f 16 33 17
f 16 32 34
f 16 34 35
f 16 35 36
f 16 36 37
f 16 37 38
f 16 38 39
f 16 39 40
f 16 40 33
f 17 33 18
f 18 41 19
f 18 33 40
f 18 40 42
f 18 42 41
f 19 41 43
f 19 43 20
f 20 43 44
f 20 44 21
f 21 44 45
f 21 45 22
f 22 45 46
f 22 46 47
f 22 47 23
f 23 47 48
f 23 48 24
f 24 48 49
f 24 49 26
f 25 26 50
f 25 50 51
f 25 51 52
f 25 52 53
f 25 53 54
f 25 54 27
f 26 49 50
f 27 54 55
f 27 55 56
f 27 56 28
f 28 57 29
f 28 56 58
f 28 58 57
f 29 57 30
f 30 59 60
f 30 60 31
f 30 57 59
f 31 60 61
f 31 61 32
f 32 61 34
f 34 61 35
f 35 61 62
f 35 62 36
f 36 62 37
f 37 62 63
f 37 63 64
f 37 64 38
f 38 64 39
f 39 64 65
f 39 65 66
f 39 66 40
f 40 66 67
f 40 67 42
f 41 68 43
f 41 42 67
f 41 67 68
f 43 69 70
f 43 70 71
f 43 71 72
f 43 72 73
f 43 73 44
f 43 68 74
f 43 74 75
f 43 75 76
f 43 76 69
f 44 73 77
f 44 77 45
f 45 77 78
f 45 78 46
f 46 78 79
f 46 79 47
f 47 79 48
f 48 79 80
f 48 80 49
f 49 80 81
f 49 81 50
f 50 81 82
f 50 82 83
f 50 83 51
f 51 83 52
f 52 83 84
f 52 84 87
f 52 87 85
f 52 85 54
f 52 54 53
f 54 86 55
f 54 85 86
f 55 86 56
f 56 86 58
f 57 87 88
f 57 88 59
f 57 58 87
f 58 86 87
f 59 88 89
f 59 89 60
f 60 89 90
f 60 90 61
f 61 90 91
f 61 91 62
f 62 91 92
f 62 92 93
f 62 93 63
f 63 93 94
f 63 94 95
f 63 95 96
f 63 96 97
f 63 97 98
f 63 98 64
f 64 98 65
f 65 99 66
f 65 98 100
f 65 100 101
f 65 101 102
f 65 102 103
f 65 103 99
f 66 104 67
f 66 99 105
f 66 105 106
f 66 106 107
f 66 107 108
f 66 108 104
f 67 104 109
f 67 109 110
f 67 110 111
f 67 111 74
f 67 74 68
f 69 76 75
f 69 75 74
f 69 74 115
f 69 115 145
f 69 145 138
f 69 138 157
f 69 157 152
f 69 152 151
f 69 151 149
f 69 149 148
f 69 148 147
f 69 147 146
f 69 146 144
f 69 144 113
f 69 113 112
f 69 112 71
f 69 71 70
f 71 112 72
f 72 112 113
f 72 113 114
f 72 114 73
f 73 114 77
f 74 111 116
f 74 116 117
f 74 117 115
f 77 114 118
f 77 118 78
f 78 118 119
f 78 119 79
f 79 119 80
f 80 119 120
f 80 120 81
f 81 120 82
f 82 120 121
f 82 121 83
f 83 121 122
f 83 122 123
f 83 123 84
f 84 123 87
f 85 87 86
f 87 124 125
f 87 125 88
f 87 123 124
f 88 125 126
f 88 126 127
f 88 127 89
f 89 127 128
f 89 128 129
f 89 129 130
f 89 130 90
f 90 130 131
f 90 131 132
f 90 132 133
f 90 133 91
f 91 133 134
f 91 134 135
f 91 135 92
f 92 135 93
f 93 135 134
f 93 134 94
f 94 134 136
f 94 136 95
f 95 136 97
f 95 97 96
f 97 137 98
f 97 136 138
f 97 138 137
f 98 137 139
f 98 139 100
f 99 103 140
f 99 140 105
f 100 139 101
f 101 139 102
f 102 139 103
f 103 139 140
f 104 108 109
f 105 140 141
f 105 141 106
f 106 141 142
f 106 142 107
f 107 142 108
f 108 143 111
f 108 111 110
f 108 110 109
f 108 142 138
f 108 138 143
f 111 143 116
f 113 144 118
f 113 118 114
f 115 117 145
f 116 143 117
f 117 143 138
f 117 138 145
f 118 144 119
f 119 144 120
f 120 144 146
f 120 146 147
f 120 147 121
f 121 148 149
f 121 149 150
f 121 150 122
f 121 147 148
f 122 150 149
f 122 149 151
f 122 151 152
f 122 152 153
f 122 153 123
f 123 153 124
f 124 154 155
f 124 155 156
f 124 156 125
f 124 153 159
f 124 159 154
f 125 156 126
f 126 156 155
f 126 155 157
f 126 157 127
f 127 157 128
f 128 157 134
f 128 134 129
f 129 134 130
f 130 134 132
f 130 132 131
f 132 134 133
f 134 157 138
f 134 138 136
f 137 138 139
f 138 142 141
f 138 141 158
f 138 158 139
f 139 158 140
f 140 158 141
f 152 157 154
f 152 154 159
f 152 159 153
f 154 157 155

