# https://github.com/mikedh/trimesh
v 0.03532201 0.03367717 0.03548692
v 0.03264046 0.03367717 0.03548692
v 0.03532201 0.02083276 0.03548692
v 0.03657579 0.03117025 0.03544282
v 0.03657579 0.03242371 0.03543943
v 0.03657579 0.03367717 0.03540890
v 0.03532201 0.03394007 0.03541568
v 0.03264046 0.03394007 0.03541568
v 0.03077258 0.04072375 0.02572376
v 0.03264046 0.02083276 0.03548692
v 0.03536636 0.01010092 0.03036109
v 0.03657579 0.02083276 0.03544282
v 0.03750546 0.02083276 0.03516465
v 0.03774684 0.03117025 0.03508662
v 0.03774684 0.03242371 0.03508323
v 0.03774684 0.03363022 0.03504931
v 0.03774684 0.03367717 0.03504592
v 0.03774001 0.03394007 0.03500860
v 0.03683081 0.03394007 0.03528338
v 0.03659285 0.03394007 0.03533427
v 0.03156238 0.04072375 0.02562877
v 0.03774684 0.04908482 0.01213064
v 0.02997511 0.04618356 0.01638125
v 0.02997511 0.04208518 0.01638125
v 0.03077258 0.03618878 0.02564913
v 0.03336032 0.00112486 0.01536015
v 0.03336458 0.00112486 0.01543478
v 0.03332108 0.01110556 0.03036109
v 0.03332364 0.01109148 0.03036109
v 0.03352322 0.01053752 0.03036109
v 0.03406226 0.01022298 0.03036109
v 0.03077258 0.03507146 0.02517759
v 0.03558471 0.01018542 0.03036109
v 0.03400938 0.00112486 0.01626252
v 0.03532201 0.00112486 0.01638125
v 0.03615019 0.00112486 0.01610308
v 0.03774684 0.02083276 0.03508662
v 0.03868845 0.01111965 0.00779184
v 0.03774684 0.03394007 0.03500521
v 0.03532201 0.04874681 0.01213064
v 0.03868504 0.01237310 0.00654006
v 0.03867651 0.01237310 0.00528490
v 0.03856393 0.01237310 0.00430451
v 0.03768884 0.01613347 0.00083075
v 0.03744491 0.01738693 0.00083075
v 0.03716856 0.01801131 0.00083075
v 0.03682484 0.01802070 0.00083075
v 0.03654167 0.01802539 0.00083075
v 0.03599155 0.01803009 0.00083075
v 0.03534163 0.01803478 0.00083075
v 0.03405117 0.01803478 0.00083075
v 0.03318120 0.01802539 0.00083075
v 0.03255517 0.01795028 0.00083075
v 0.03406908 0.04856842 0.01213064
v 0.03281701 0.04836186 0.01213064
v 0.02997511 0.04789240 0.01213064
v 0.02997511 0.04199129 0.01213064
v 0.03181057 0.01487532 0.00779184
v 0.03077258 0.03461139 0.02408526
v 0.03331170 0.00112486 0.01410159
v 0.03337311 0.00112486 0.01551959
v 0.03339870 0.01040137 0.02992009
v 0.03344134 0.00923711 0.02847495
v 0.03623207 0.01027462 0.03008971
v 0.03655703 0.01081450 0.03036109
v 0.03386268 0.00112486 0.01616753
v 0.03677622 0.00112486 0.01552638
v 0.03672249 0.01098820 0.03036109
v 0.03682228 0.01112904 0.03036109
v 0.03730503 0.01151399 0.02999472
v 0.03757114 0.01111965 0.02784058
v 0.03766240 0.01111965 0.02658542
v 0.03867736 0.00986619 0.00779184
v 0.03867310 0.00986619 0.00528490
v 0.03857331 0.01111965 0.00409758
v 0.03844111 0.01111965 0.00346999
v 0.03769396 0.01180506 0.00083075
v 0.03199992 0.01732590 0.00083075
v 0.03181057 0.01613347 0.00083075
v 0.03181057 0.01487532 0.00083075
v 0.03331170 0.00112486 0.00083075
v 0.03339870 0.00142531 0.01603184
v 0.03706792 0.01068305 0.02944516
v 0.03731782 0.00112486 0.01490558
v 0.03724788 0.01042015 0.02861064
v 0.03756005 0.00112486 0.01406089
v 0.03738606 0.01110556 0.02905504
v 0.03768713 0.00112486 0.01280572
v 0.03857331 0.00880052 0.00654006
v 0.03857331 0.00888971 0.00528490
v 0.03768884 0.00112486 0.00083075
v 0.03857331 0.00986619 0.00425362
v 0.03769396 0.01111965 0.00083075
v 0.03768884 0.00112486 0.01155394
f 1 2 10
f 1 10 3
f 1 3 12
f 1 12 4
f 1 4 5
f 1 5 6
f 1 6 7
f 1 7 8
f 1 8 2
f 2 8 9
f 2 9 10
f 3 10 11
f 3 11 12
f 4 12 13
f 4 13 14
f 4 14 15
f 4 15 5
f 5 15 6
f 6 15 16
f 6 16 17
f 6 17 18
f 6 18 19
f 6 19 20
f 6 20 7
f 7 20 9
f 7 9 8
f 9 21 22
f 9 22 23
f 9 23 24
f 9 24 25
f 9 25 10
f 9 20 21
f 10 26 27
f 10 27 28
f 10 28 29
f 10 29 30
f 10 30 31
f 10 31 11
f 10 25 32
f 10 32 26
f 11 33 12
f 11 31 34
f 11 34 35
f 11 35 36
f 11 36 33
f 12 33 13
f 13 37 14
f 13 33 37
f 14 37 38
f 14 38 15
f 15 38 16
f 16 38 17
f 17 38 39
f 17 39 18
f 18 39 22
f 18 22 19
f 19 22 20
f 20 22 21
f 22 40 23
f 22 39 41
f 22 41 42
f 22 42 43
f 22 43 44
f 22 44 45
f 22 45 46
f 22 46 47
f 22 47 48
f 22 48 49
f 22 49 50
f 22 50 51
f 22 51 52
f 22 52 53
f 22 53 40
f 23 40 54
f 23 54 55
f 23 55 56
f 23 56 57
f 23 57 24
f 24 57 58
f 24 58 59
f 24 59 32
f 24 32 25
f 26 60 81
f 26 81 91
f 26 91 94
f 26 94 88
f 26 88 86
f 26 86 84
f 26 84 67
f 26 67 36
f 26 36 35
f 26 35 34
f 26 34 66
f 26 66 61
f 26 61 27
f 26 32 58
f 26 58 60
f 27 61 28
f 28 61 29
f 29 61 62
f 29 62 30
f 30 62 63
f 30 63 31
f 31 63 34
f 32 59 58
f 33 36 64
f 33 64 65
f 33 65 37
f 34 63 66
f 36 67 64
f 37 65 68
f 37 68 69
f 37 69 70
f 37 70 71
f 37 71 72
f 37 72 73
f 37 73 38
f 38 41 39
f 38 73 74
f 38 74 41
f 40 53 54
f 41 74 42
f 42 74 75
f 42 75 43
f 43 75 44
f 44 75 76
f 44 76 77
f 44 77 93
f 44 93 91
f 44 91 81
f 44 81 80
f 44 80 79
f 44 79 78
f 44 78 53
f 44 53 52
f 44 52 51
f 44 51 50
f 44 50 49
f 44 49 48
f 44 48 47
f 44 47 46
f 44 46 45
f 53 78 56
f 53 56 55
f 53 55 54
f 56 78 79
f 56 79 80
f 56 80 57
f 57 80 58
f 58 80 81
f 58 81 60
f 61 66 82
f 61 82 63
f 61 63 62
f 63 82 66
f 64 83 68
f 64 68 65
f 64 67 84
f 64 84 83
f 68 83 69
f 69 83 70
f 70 83 85
f 70 85 86
f 70 86 87
f 70 87 71
f 71 87 86
f 71 86 88
f 71 88 72
f 72 88 73
f 73 88 89
f 73 89 74
f 74 89 90
f 74 90 91
f 74 91 92
f 74 92 75
f 75 92 91
f 75 91 76
f 76 91 93
f 76 93 77
f 83 84 85
f 84 86 85
f 88 94 89
f 89 94 91
f 89 91 90

