# https://github.com/mikedh/trimesh
v 0.05621546 -0.01042525 0.00179422
v 0.05621546 -0.01042525 0.00307089
v 0.05621546 -0.01042424 0.00059674
v 0.05622054 -0.01042322 0.00059674
v 0.05694077 -0.01026668 0.00059674
v 0.05694077 -0.01026668 0.00307089
v 0.05754067 -0.01010100 0.00662922
v 0.05621546 -0.00834553 0.00307089
v 0.05621546 -0.00935592 0.00059674
v 0.05790841 -0.00995767 -0.00581338
v 0.05745255 -0.01013251 0.00059674
v 0.05733307 -0.01016503 0.00307089
v 0.05781266 -0.00999833 0.00662922
v 0.05754067 -0.00718370 0.00662922
v 0.05745255 -0.01013251 0.00307089
v 0.05781266 -0.00999833 0.00059674
v 0.05621546 -0.00834350 0.00108524
v 0.06211959 -0.00004089 0.00662922
v 0.05790841 -0.00712169 -0.00581338
v 0.05621546 -0.00834350 0.00060161
v 0.05838036 -0.00976556 -0.00581338
v 0.05838206 -0.00976861 0.00307210
v 0.05790841 -0.00995869 -0.00323934
v 0.05838206 -0.00976962 0.00662922
v 0.05790841 -0.00995970 0.00036041
v 0.05838206 -0.00976962 0.00611880
v 0.06486914 -0.00004089 0.00662922
v 0.06280846 -0.00004089 0.00307210
v 0.06225855 -0.00057454 -0.00581338
v 0.05864642 -0.00964866 -0.00581338
v 0.05900992 -0.00948907 0.00662922
v 0.05900992 -0.00948907 0.00539885
v 0.06487084 -0.00036108 0.00662922
v 0.06487168 -0.00036108 0.00307089
v 0.06486914 -0.00004089 0.00307210
v 0.06484626 -0.00057454 -0.00581338
v 0.05900738 -0.00948704 -0.00581338
v 0.05937003 -0.00931017 0.00662922
v 0.05937003 -0.00931017 0.00539885
v 0.05921497 -0.00938539 -0.00581338
v 0.05936749 -0.00931017 -0.00251939
v 0.06480983 -0.00108278 0.00662922
v 0.06486914 -0.00036108 0.00059674
v 0.06486914 -0.00035600 0.00059674
v 0.06480983 -0.00108278 0.00395895
v 0.06480983 -0.00108075 0.00307089
v 0.06480813 -0.00108075 0.00036041
v 0.06484965 -0.00057454 -0.00230621
v 0.06484880 -0.00057454 -0.00323934
v 0.06483864 -0.00066602 -0.00581338
v 0.05982165 -0.00902861 0.00662922
v 0.05955983 -0.00919023 -0.00581338
v 0.05982165 -0.00902861 0.00059674
v 0.05936749 -0.00930916 -0.00581338
v 0.06474797 -0.00159204 0.00662922
v 0.06471917 -0.00180245 0.00059674
v 0.06471747 -0.00180041 -0.00251939
v 0.06480474 -0.00108075 -0.00395929
v 0.06482762 -0.00078902 -0.00581338
v 0.06016482 -0.00881007 0.00662922
v 0.05982081 -0.00902759 -0.00581338
v 0.06030547 -0.00871960 0.00307210
v 0.06472086 -0.00180245 0.00662922
v 0.06472086 -0.00180245 0.00611880
v 0.06467426 -0.00201997 0.00059674
v 0.06458021 -0.00245096 -0.00395929
v 0.06465646 -0.00207486 -0.00581338
v 0.06471408 -0.00180041 -0.00539919
v 0.06458275 -0.00246214 0.00059674
v 0.06476407 -0.00138671 -0.00581338
v 0.06480220 -0.00108075 -0.00539919
v 0.06480136 -0.00108075 -0.00581338
v 0.06030547 -0.00871960 0.00662922
v 0.06030039 -0.00871655 -0.00581338
v 0.06066389 -0.00846650 0.00307210
v 0.06066135 -0.00846650 -0.00251939
v 0.06458444 -0.00246316 0.00662922
v 0.06448191 -0.00281690 -0.00107949
v 0.06435736 -0.00324077 -0.00539919
v 0.06452089 -0.00265324 -0.00581338
v 0.06457851 -0.00244588 -0.00581338
v 0.06471323 -0.00180041 -0.00581338
v 0.06451581 -0.00270102 0.00059674
v 0.06456072 -0.00254550 0.00307210
v 0.06066389 -0.00846650 0.00662922
v 0.06065881 -0.00846548 -0.00581338
v 0.06080963 -0.00834858 0.00059674
v 0.06110534 -0.00810564 -0.00581338
v 0.06448191 -0.00282401 0.00662922
v 0.06448191 -0.00282401 0.00611880
v 0.06448191 -0.00282299 0.00307210
v 0.06435821 -0.00324077 -0.00467924
v 0.06448191 -0.00282096 0.00059674
v 0.06424805 -0.00354673 -0.00581338
v 0.06435651 -0.00324077 -0.00581338
v 0.06097740 -0.00821237 0.00662922
v 0.06110619 -0.00810666 -0.00251939
v 0.06110704 -0.00810666 -0.00035954
v 0.06146376 -0.00777325 -0.00581338
v 0.06146461 -0.00777325 -0.00539919
v 0.06146545 -0.00777427 -0.00395929
v 0.06146630 -0.00777529 -0.00179944
v 0.06436075 -0.00324178 0.00662922
v 0.06436075 -0.00324178 0.00059674
v 0.06436075 -0.00324077 -0.00035954
v 0.06409977 -0.00396145 -0.00539919
v 0.06409893 -0.00396145 -0.00581338
v 0.06410486 -0.00396145 0.00307210
v 0.06110534 -0.00810768 0.00662922
v 0.06110704 -0.00810666 0.00059674
v 0.06134853 -0.00788507 0.00059674
v 0.06162560 -0.00762078 -0.00581338
v 0.06184675 -0.00741545 -0.00107949
v 0.06175863 -0.00750084 0.00307089
v 0.06146545 -0.00777631 0.00307210
v 0.06410571 -0.00396145 0.00662922
v 0.06410571 -0.00396145 0.00467890
v 0.06386252 -0.00449104 -0.00395929
v 0.06399810 -0.00418508 -0.00581338
v 0.06392184 -0.00437313 0.00307089
v 0.06386507 -0.00449511 0.00059674
v 0.06146545 -0.00777631 0.00662922
v 0.06184505 -0.00741240 -0.00581338
v 0.06220517 -0.00704647 -0.00581338
v 0.06220601 -0.00704749 -0.00251939
v 0.06184760 -0.00741647 0.00307210
v 0.06184760 -0.00741647 0.00662922
v 0.06386591 -0.00449714 0.00662922
v 0.06368628 -0.00484986 -0.00539919
v 0.06376000 -0.00469637 -0.00581338
v 0.06386083 -0.00448799 -0.00581338
v 0.06386591 -0.00449714 0.00307089
v 0.06368713 -0.00485087 -0.00395929
v 0.06232803 -0.00689400 -0.00581338
v 0.06249580 -0.00668664 -0.00323934
v 0.06249664 -0.00668765 0.00107914
v 0.06220686 -0.00704749 0.00036041
v 0.06220771 -0.00704647 0.00662922
v 0.06220686 -0.00704749 0.00059674
v 0.06368798 -0.00485799 0.00662922
v 0.06355834 -0.00508263 -0.00581338
v 0.06368543 -0.00484884 -0.00581338
v 0.06368798 -0.00485799 0.00307210
v 0.06338803 -0.00539876 -0.00251939
v 0.06249410 -0.00668562 -0.00581338
v 0.06285591 -0.00620279 -0.00251939
v 0.06285676 -0.00620483 0.00036041
v 0.06285676 -0.00620686 0.00467890
v 0.06249664 -0.00668765 0.00662922
v 0.06220771 -0.00704647 0.00395895
v 0.06339226 -0.00539876 0.00662922
v 0.06338464 -0.00539876 -0.00581338
v 0.06339226 -0.00539876 0.00611880
v 0.06311943 -0.00584194 -0.00395929
v 0.06312366 -0.00584804 0.00611880
v 0.06285421 -0.00619974 -0.00581338
v 0.06285676 -0.00620686 0.00662922
v 0.06312366 -0.00584804 0.00662922
v 0.06311858 -0.00583991 -0.00539919
v 0.06311773 -0.00583991 -0.00581338
v 0.06296606 -0.00604727 -0.00581338
f 1 2 8
f 1 8 17
f 1 17 20
f 1 20 9
f 1 9 3
f 1 3 4
f 1 4 5
f 1 5 6
f 1 6 2
f 2 6 7
f 2 7 14
f 2 14 8
f 3 9 19
f 3 19 10
f 3 10 4
f 4 10 5
f 5 11 12
f 5 12 6
f 5 10 11
f 6 12 7
f 7 13 24
f 7 24 31
f 7 31 38
f 7 38 51
f 7 51 60
f 7 60 73
f 7 73 85
f 7 85 96
f 7 96 109
f 7 109 122
f 7 122 127
f 7 127 138
f 7 138 149
f 7 149 157
f 7 157 158
f 7 158 151
f 7 151 140
f 7 140 128
f 7 128 116
f 7 116 103
f 7 103 89
f 7 89 77
f 7 77 63
f 7 63 55
f 7 55 42
f 7 42 33
f 7 33 27
f 7 27 18
f 7 18 14
f 7 12 15
f 7 15 11
f 7 11 16
f 7 16 13
f 8 14 18
f 8 18 17
f 9 20 19
f 10 21 22
f 10 22 23
f 10 23 16
f 10 16 11
f 10 19 29
f 10 29 36
f 10 36 50
f 10 50 59
f 10 59 72
f 10 72 70
f 10 70 82
f 10 82 67
f 10 67 81
f 10 81 80
f 10 80 95
f 10 95 94
f 10 94 107
f 10 107 119
f 10 119 131
f 10 131 130
f 10 130 142
f 10 142 141
f 10 141 152
f 10 152 160
f 10 160 161
f 10 161 156
f 10 156 145
f 10 145 134
f 10 134 124
f 10 124 123
f 10 123 112
f 10 112 99
f 10 99 88
f 10 88 86
f 10 86 74
f 10 74 61
f 10 61 52
f 10 52 54
f 10 54 40
f 10 40 37
f 10 37 30
f 10 30 21
f 11 15 12
f 13 16 26
f 13 26 24
f 16 23 25
f 16 25 26
f 17 18 20
f 18 27 35
f 18 35 28
f 18 28 29
f 18 29 20
f 19 20 29
f 21 30 22
f 22 26 23
f 22 30 26
f 23 26 25
f 24 26 32
f 24 32 31
f 26 30 32
f 27 33 34
f 27 34 35
f 28 35 36
f 28 36 29
f 30 37 32
f 31 32 39
f 31 39 38
f 32 37 40
f 32 40 41
f 32 41 39
f 33 42 34
f 34 43 44
f 34 44 35
f 34 42 45
f 34 45 46
f 34 46 47
f 34 47 48
f 34 48 49
f 34 49 36
f 34 36 43
f 35 44 36
f 36 44 43
f 36 49 50
f 38 39 53
f 38 53 51
f 39 41 52
f 39 52 53
f 40 54 41
f 41 54 52
f 42 55 45
f 45 55 46
f 46 55 56
f 46 56 57
f 46 57 47
f 47 57 58
f 47 58 48
f 48 58 50
f 48 50 49
f 50 58 59
f 51 53 60
f 52 61 53
f 53 61 62
f 53 62 60
f 55 63 64
f 55 64 56
f 56 64 65
f 56 65 57
f 57 66 67
f 57 67 68
f 57 68 58
f 57 65 69
f 57 69 66
f 58 68 70
f 58 70 71
f 58 71 59
f 59 71 72
f 60 62 73
f 61 74 62
f 62 75 85
f 62 85 73
f 62 74 76
f 62 76 75
f 63 77 64
f 64 77 65
f 65 77 69
f 66 78 79
f 66 79 80
f 66 80 81
f 66 81 67
f 66 69 78
f 67 82 68
f 68 82 70
f 69 83 78
f 69 77 84
f 69 84 83
f 70 72 71
f 74 86 76
f 75 76 87
f 75 87 85
f 76 86 88
f 76 88 87
f 77 89 90
f 77 90 91
f 77 91 84
f 78 92 79
f 78 83 93
f 78 93 92
f 79 92 94
f 79 94 95
f 79 95 80
f 83 84 93
f 84 91 93
f 85 87 96
f 87 88 97
f 87 97 98
f 87 98 96
f 88 99 100
f 88 100 101
f 88 101 102
f 88 102 97
f 89 103 104
f 89 104 90
f 90 104 91
f 91 104 93
f 92 93 105
f 92 105 94
f 93 104 105
f 94 106 107
f 94 105 108
f 94 108 106
f 96 98 110
f 96 110 109
f 97 102 111
f 97 111 98
f 98 111 110
f 99 112 100
f 100 112 101
f 101 112 113
f 101 113 102
f 102 113 114
f 102 114 115
f 102 115 111
f 103 116 117
f 103 117 104
f 104 117 105
f 105 117 108
f 106 118 119
f 106 119 107
f 106 108 120
f 106 120 121
f 106 121 118
f 108 117 120
f 109 110 111
f 109 111 122
f 111 115 122
f 112 123 113
f 113 123 124
f 113 124 125
f 113 125 126
f 113 126 114
f 114 126 127
f 114 127 122
f 114 122 115
f 116 128 120
f 116 120 117
f 118 129 130
f 118 130 131
f 118 131 119
f 118 121 129
f 120 128 132
f 120 132 121
f 121 132 133
f 121 133 129
f 124 134 125
f 125 135 136
f 125 136 137
f 125 137 126
f 125 134 135
f 126 137 139
f 126 139 127
f 127 139 138
f 128 140 143
f 128 143 132
f 129 133 141
f 129 141 142
f 129 142 130
f 132 143 133
f 133 144 141
f 133 143 144
f 134 145 135
f 135 145 146
f 135 146 147
f 135 147 136
f 136 148 157
f 136 157 149
f 136 149 138
f 136 138 150
f 136 150 137
f 136 147 148
f 137 150 138
f 137 138 139
f 140 151 153
f 140 153 143
f 141 144 152
f 143 153 144
f 144 154 152
f 144 153 155
f 144 155 154
f 145 156 146
f 146 156 154
f 146 154 155
f 146 155 147
f 147 155 148
f 148 155 158
f 148 158 157
f 151 158 155
f 151 155 153
f 152 154 159
f 152 159 160
f 154 156 161
f 154 161 159
f 159 161 160

