# https://github.com/mikedh/trimesh
v 0.01279999 -0.00286305 0.00038616
v 0.01279999 -0.00286305 -0.00038733
v 0.01279644 -0.00286305 0.00049842
v 0.01276949 -0.00296677 0.00064422
v 0.01277658 -0.00296677 0.00038616
v 0.01277658 -0.00296677 -0.00038733
v 0.01276949 -0.00296677 -0.00064401
v 0.01279147 -0.00286305 -0.00064401
v 0.01279147 -0.00286305 0.00064422
v 0.01274892 -0.00296677 0.00090227
v 0.01269075 -0.00322502 0.00090227
v 0.01271062 -0.00322502 0.00064422
v 0.01271700 -0.00322502 0.00038616
v 0.01271700 -0.00322502 -0.00038733
v 0.01271062 -0.00322502 -0.00064401
v 0.01269075 -0.00322502 -0.00090207
v 0.01274892 -0.00296677 -0.00090207
v 0.01277020 -0.00286305 -0.00090138
v 0.01277020 -0.00286305 0.00090227
v 0.01269501 -0.00296677 0.00141770
v 0.01263898 -0.00348327 0.00064422
v 0.01263614 -0.00322502 0.00141770
v 0.01260280 -0.00324548 0.00168808
v 0.01256876 -0.00334427 0.00178254
v 0.01258791 -0.00340848 0.00141770
v 0.01260138 -0.00345293 0.00116033
v 0.01260777 -0.00348892 0.00099673
v 0.01261699 -0.00348892 0.00090227
v 0.01264465 -0.00348327 0.00038616
v 0.01264465 -0.00348327 -0.00038733
v 0.01263898 -0.00348327 -0.00064401
v 0.01269501 -0.00296677 -0.00141750
v 0.01261557 -0.00348821 -0.00091713
v 0.01260777 -0.00348892 -0.00099585
v 0.01258791 -0.00340848 -0.00141750
v 0.01256876 -0.00334427 -0.00178165
v 0.01260280 -0.00324548 -0.00168788
v 0.01263614 -0.00322502 -0.00141750
v 0.01268934 -0.00286305 -0.00167555
v 0.01268934 -0.00286305 0.00167507
v 0.01266735 -0.00296677 0.00167507
v 0.01263756 -0.00348821 0.00064422
v 0.01259074 -0.00317704 0.00193381
v 0.01255812 -0.00330617 0.00193381
v 0.01250563 -0.00348327 0.00193381
v 0.01234320 -0.00400895 0.00192149
v 0.01231483 -0.00413737 0.00182703
v 0.01228362 -0.00429330 0.00167507
v 0.01253968 -0.00347057 0.00168808
v 0.01234604 -0.00427284 0.00115485
v 0.01237796 -0.00425661 0.00090227
v 0.01257798 -0.00363568 0.00084409
v 0.01261061 -0.00350515 0.00091870
v 0.01258507 -0.00365756 0.00064490
v 0.01240278 -0.00425661 0.00038684
v 0.01263756 -0.00348821 -0.00064401
v 0.01240278 -0.00425661 -0.00038733
v 0.01239853 -0.00425661 -0.00059336
v 0.01261061 -0.00350515 -0.00091850
v 0.01266735 -0.00296677 -0.00167555
v 0.01257798 -0.00363568 -0.00084320
v 0.01237796 -0.00425661 -0.00090207
v 0.01253968 -0.00347057 -0.00168788
v 0.01255812 -0.00330617 -0.00193361
v 0.01259074 -0.00317704 -0.00193361
v 0.01228362 -0.00429330 -0.00167555
v 0.01231554 -0.00413737 -0.00182683
v 0.01242548 -0.00374152 -0.00193361
v 0.01250563 -0.00348327 -0.00193361
v 0.01263756 -0.00296677 -0.00193361
v 0.01265813 -0.00286305 -0.00193361
v 0.01267089 -0.00286305 0.00182977
v 0.01263756 -0.00296677 0.00193381
v 0.01257798 -0.00312765 0.00209878
v 0.01253684 -0.00321797 0.00218845
v 0.01246094 -0.00348327 0.00219187
v 0.01230348 -0.00410138 0.00199884
v 0.01227156 -0.00423686 0.00192149
v 0.01231625 -0.00439632 0.00106587
v 0.01217510 -0.00451486 0.00193381
v 0.01220631 -0.00451486 0.00167507
v 0.01232476 -0.00442172 0.00090227
v 0.01239711 -0.00425661 0.00064490
v 0.01233469 -0.00444924 0.00064490
v 0.01233753 -0.00445700 0.00038684
v 0.01239711 -0.00425661 -0.00064401
v 0.01233753 -0.00445700 -0.00038733
v 0.01233540 -0.00445065 -0.00059336
v 0.01233469 -0.00444924 -0.00064401
v 0.01232476 -0.00442172 -0.00090207
v 0.01231625 -0.00439632 -0.00106566
v 0.01230703 -0.00436810 -0.00123747
v 0.01257798 -0.00312765 -0.00209926
v 0.01246094 -0.00348327 -0.00219098
v 0.01253684 -0.00321797 -0.00218824
v 0.01220631 -0.00451486 -0.00167555
v 0.01217510 -0.00451486 -0.00193361
v 0.01227156 -0.00423686 -0.00192197
v 0.01230348 -0.00410138 -0.00199932
v 0.01261486 -0.00286305 -0.00218893
v 0.01265813 -0.00286305 0.00193381
v 0.01256025 -0.00304580 0.00227196
v 0.01242548 -0.00297594 0.00297768
v 0.01236094 -0.00324548 0.00297768
v 0.01242406 -0.00322502 0.00270661
v 0.01261486 -0.00286305 0.00218982
v 0.01259500 -0.00296254 0.00218845
v 0.01232902 -0.00340636 0.00291128
v 0.01228930 -0.00348892 0.00297768
v 0.01221908 -0.00425661 0.00219187
v 0.01233044 -0.00392851 0.00214738
v 0.01227866 -0.00455014 0.00090227
v 0.01211481 -0.00453885 0.00221377
v 0.01207225 -0.00468562 0.00214259
v 0.01209070 -0.00472725 0.00193381
v 0.01209708 -0.00478864 0.00166412
v 0.01213183 -0.00477241 0.00141770
v 0.01228788 -0.00457766 0.00064490
v 0.01229142 -0.00458542 0.00038684
v 0.01229142 -0.00458542 -0.00038733
v 0.01228930 -0.00457907 -0.00059336
v 0.01228788 -0.00457766 -0.00064401
v 0.01227866 -0.00455014 -0.00090207
v 0.01242406 -0.00322502 -0.00270710
v 0.01232973 -0.00315870 -0.00322321
v 0.01231412 -0.00310225 -0.00335805
v 0.01256025 -0.00304580 -0.00227107
v 0.01259500 -0.00296254 -0.00218824
v 0.01231058 -0.00334568 -0.00308357
v 0.01233044 -0.00392851 -0.00214717
v 0.01221908 -0.00425661 -0.00219167
v 0.01205807 -0.00413807 -0.00310753
v 0.01209779 -0.00478864 -0.00166392
v 0.01209070 -0.00472725 -0.00193361
v 0.01207225 -0.00468562 -0.00214238
v 0.01211481 -0.00453885 -0.00221357
v 0.01245172 -0.00286305 -0.00296584
v 0.01242761 -0.00296677 0.00297768
v 0.01235597 -0.00326242 0.00297768
v 0.01244889 -0.00286305 0.00297768
v 0.01203466 -0.00430177 0.00297768
v 0.01204956 -0.00436951 0.00281203
v 0.01218929 -0.00477241 0.00090227
v 0.01205310 -0.00464046 0.00231440
v 0.01182755 -0.00523175 0.00219187
v 0.01177223 -0.00536088 0.00219187
v 0.01178996 -0.00540251 0.00201732
v 0.01204814 -0.00488530 0.00174147
v 0.01180202 -0.00543003 0.00184551
v 0.01220915 -0.00477241 0.00064490
v 0.01221482 -0.00477241 0.00038684
v 0.01221482 -0.00477241 -0.00038733
v 0.01221057 -0.00477241 -0.00059336
v 0.01227440 -0.00461647 -0.00059336
v 0.01220915 -0.00477241 -0.00064401
v 0.01218858 -0.00477241 -0.00090207
v 0.01213183 -0.00477241 -0.00141750
v 0.01235881 -0.00324548 -0.00298500
v 0.01229426 -0.00328782 -0.00322321
v 0.01233753 -0.00286305 -0.00343746
v 0.01239427 -0.00286305 -0.00322321
v 0.01237299 -0.00296677 -0.00322321
v 0.01242974 -0.00296677 -0.00296584
v 0.01206445 -0.00390169 -0.00338133
v 0.01216092 -0.00348821 -0.00348058
v 0.01225312 -0.00320315 -0.00345868
v 0.01207651 -0.00318904 -0.00401517
v 0.01213042 -0.00296677 -0.00401517
v 0.01215240 -0.00286305 -0.00401517
v 0.01228220 -0.00286305 -0.00361064
v 0.01254109 -0.00296254 -0.00244425
v 0.01223326 -0.00348821 -0.00322321
v 0.01204956 -0.00436951 -0.00281182
v 0.01203253 -0.00431659 -0.00296447
v 0.01200274 -0.00423686 -0.00320541
v 0.01203750 -0.00407316 -0.00327934
v 0.01209424 -0.00499397 -0.00090207
v 0.01184812 -0.00556833 -0.00091371
v 0.01181195 -0.00545331 -0.00167555
v 0.01204743 -0.00488530 -0.00174195
v 0.01180202 -0.00543003 -0.00184463
v 0.01178996 -0.00540251 -0.00201712
v 0.01184599 -0.00478440 -0.00296378
v 0.01205310 -0.00464046 -0.00231351
v 0.01177293 -0.00536088 -0.00219167
v 0.01242903 -0.00286305 -0.00306851
v 0.01076574 -0.00286305 0.00297768
v 0.01203112 -0.00431235 0.00297768
v 0.01202615 -0.00432576 0.00297768
v 0.01195522 -0.00451486 0.00297768
v 0.01184812 -0.00556833 0.00091459
v 0.01180343 -0.00568898 0.00083656
v 0.01204956 -0.00514708 0.00064490
v 0.01184457 -0.00478017 0.00297768
v 0.01155518 -0.00545543 0.00297768
v 0.01169207 -0.00554575 0.00219187
v 0.01174740 -0.00552811 0.00193244
v 0.01181195 -0.00545331 0.00167507
v 0.01178570 -0.00564947 0.00116033
v 0.01175662 -0.00558173 0.00167507
v 0.01205239 -0.00515343 0.00038684
v 0.01205239 -0.00515343 -0.00038733
v 0.01187933 -0.00554575 -0.00059336
v 0.01187791 -0.00554575 -0.00064401
v 0.01180343 -0.00568898 -0.00083567
v 0.01191905 -0.00425661 -0.00348058
v 0.01180840 -0.00416559 -0.00390497
v 0.01179067 -0.00410773 -0.00401449
v 0.01200062 -0.00348821 -0.00396589
v 0.01206161 -0.00337531 -0.00388786
v 0.01204034 -0.00330758 -0.00401517
v 0.01054232 -0.00286305 -0.00401517
v 0.01195806 -0.00451486 -0.00296447
v 0.01189777 -0.00451486 -0.00322321
v 0.01179421 -0.00566923 -0.00100817
v 0.01175662 -0.00558173 -0.00167555
v 0.01174740 -0.00552811 -0.00193293
v 0.01169207 -0.00554575 -0.00219167
v 0.01154100 -0.00542227 -0.00310411
v 0.01178641 -0.00487754 -0.00304866
v 0.01182117 -0.00470044 -0.00322321
v 0.01017632 -0.00286305 0.00141770
v 0.00635325 -0.00900249 0.00297768
v 0.01179421 -0.00566923 0.00100837
v 0.01174456 -0.00578706 0.00091459
v 0.01153958 -0.00619349 0.00078454
v 0.01174385 -0.00583152 0.00064490
v 0.01180982 -0.00570239 0.00064490
v 0.01187791 -0.00554575 0.00064490
v 0.01188429 -0.00554575 0.00038684
v 0.01154171 -0.00568052 0.00259093
v 0.01149631 -0.00558385 0.00297768
v 0.01158710 -0.00576660 0.00219187
v 0.01160200 -0.00582517 0.00194340
v 0.01164739 -0.00580400 0.00167507
v 0.01188429 -0.00554575 -0.00038733
v 0.01181053 -0.00570239 -0.00064401
v 0.01174385 -0.00583152 -0.00064401
v 0.01153958 -0.00619349 -0.00078434
v 0.01159207 -0.00607848 -0.00088290
v 0.01174385 -0.00578706 -0.00091371
v 0.01183251 -0.00450710 -0.00346484
v 0.01180911 -0.00441678 -0.00364760
v 0.01178003 -0.00433705 -0.00381941
v 0.01174243 -0.00425379 -0.00401449
v 0.01198430 -0.00348821 -0.00401517
v 0.00565957 -0.00912174 -0.00401517
v 0.01010752 -0.00286305 -0.00118135
v 0.01180202 -0.00465739 -0.00336832
v 0.01167789 -0.00580400 -0.00141750
v 0.01164739 -0.00580400 -0.00167555
v 0.01160129 -0.00582517 -0.00194388
v 0.01158710 -0.00576660 -0.00219167
v 0.01154171 -0.00568052 -0.00259210
v 0.01152185 -0.00563818 -0.00276391
v 0.01149773 -0.00558667 -0.00296447
v 0.01146936 -0.00552317 -0.00320404
v 0.01152043 -0.00537358 -0.00327591
v 0.01011391 -0.00286305 0.00119045
v 0.00624615 -0.00915914 0.00297768
v 0.01155944 -0.00597052 0.00167507
v 0.01158994 -0.00602485 0.00116033
v 0.01159207 -0.00607848 0.00088311
v 0.01161973 -0.00606225 0.00064490
v 0.01133317 -0.00654347 0.00090227
v 0.01126154 -0.00667259 0.00090227
v 0.01127218 -0.00669165 0.00064422
v 0.01134381 -0.00656252 0.00064422
v 0.01149206 -0.00629016 0.00068529
v 0.01162611 -0.00606225 0.00038684
v 0.01174669 -0.00583716 0.00038684
v 0.01181265 -0.00570804 0.00038684
v 0.01137644 -0.00581599 0.00297768
v 0.01151759 -0.00589502 0.00219187
v 0.01153461 -0.00592607 0.00203649
v 0.01154738 -0.00594865 0.00186468
v 0.01181265 -0.00570804 -0.00038733
v 0.01174669 -0.00583716 -0.00038733
v 0.01162611 -0.00606225 -0.00038733
v 0.01162115 -0.00606225 -0.00059336
v 0.01161973 -0.00606225 -0.00064401
v 0.01147220 -0.00632967 -0.00064470
v 0.01127218 -0.00669165 -0.00064470
v 0.01126154 -0.00667259 -0.00090275
v 0.01147574 -0.00629016 -0.00087811
v 0.01124664 -0.00664578 -0.00116081
v 0.01148851 -0.00609894 -0.00167555
v 0.01157433 -0.00599733 -0.00141750
v 0.01177293 -0.00458825 -0.00354082
v 0.01164881 -0.00449793 -0.00401449
v 0.01150766 -0.00482956 -0.00401449
v 0.01132395 -0.00525786 -0.00401449
v 0.01078206 -0.00629016 -0.00401517
v 0.00563120 -0.00916619 -0.00401517
v 0.01155660 -0.00520212 -0.00340597
v 0.01155873 -0.00597052 -0.00167555
v 0.01154738 -0.00594865 -0.00186448
v 0.01153461 -0.00592607 -0.00203629
v 0.01151759 -0.00589502 -0.00219167
v 0.01148780 -0.00583998 -0.00244904
v 0.01138566 -0.00580400 -0.00296447
v 0.01132679 -0.00580753 -0.00319925
v 0.01130693 -0.00572285 -0.00342514
v 0.01136013 -0.00556692 -0.00349975
v 0.01149206 -0.00528750 -0.00348674
v 0.00624260 -0.00916690 0.00297768
v 0.01134949 -0.00634661 0.00169971
v 0.01149418 -0.00629016 0.00064422
v 0.01150057 -0.00629016 0.00038684
v 0.01123175 -0.00661826 0.00141770
v 0.01108705 -0.00681513 0.00167576
v 0.01116649 -0.00683629 0.00090227
v 0.01118777 -0.00683629 0.00064422
v 0.01119415 -0.00683629 0.00038684
v 0.01127501 -0.00669729 0.00038684
v 0.01134665 -0.00656817 0.00038684
v 0.01108918 -0.00633602 0.00297768
v 0.01108989 -0.00633814 0.00297083
v 0.01124664 -0.00638753 0.00219187
v 0.01114025 -0.00657804 0.00219187
v 0.01118919 -0.00657804 0.00193381
v 0.01127076 -0.00643198 0.00193381
v 0.01127998 -0.00644892 0.00180171
v 0.01150057 -0.00629016 -0.00038733
v 0.01128352 -0.00668318 -0.00035858
v 0.01127501 -0.00669729 -0.00038733
v 0.01119415 -0.00683629 -0.00038733
v 0.01118777 -0.00683629 -0.00064470
v 0.01116649 -0.00683629 -0.00090275
v 0.01108705 -0.00681513 -0.00167624
v 0.01122891 -0.00656323 -0.00170020
v 0.01134878 -0.00634661 -0.00170020
v 0.01127998 -0.00644892 -0.00180219
v 0.01132254 -0.00528467 -0.00398574
v 0.01126792 -0.00538699 -0.00401449
v 0.01119486 -0.00553375 -0.00401449
v 0.01106223 -0.00578283 -0.00401449
v 0.01072957 -0.00638612 -0.00401517
v 0.00555388 -0.00941457 -0.00401517
v 0.01134169 -0.00630286 -0.00193430
v 0.01148213 -0.00604602 -0.00194388
v 0.01118919 -0.00657804 -0.00193430
v 0.01114025 -0.00657804 -0.00219167
v 0.01129984 -0.00628945 -0.00219167
v 0.01142538 -0.00606225 -0.00219167
v 0.01102818 -0.00671634 -0.00234363
v 0.01101470 -0.00643551 -0.00306030
v 0.01128140 -0.00593524 -0.00309863
v 0.01105371 -0.00629016 -0.00322321
v 0.01125941 -0.00589502 -0.00327044
v 0.01103953 -0.00622242 -0.00340049
v 0.01096009 -0.00631415 -0.00348469
v 0.01123458 -0.00580753 -0.00349975
v 0.01127572 -0.00566641 -0.00359763
v 0.01128920 -0.00543497 -0.00389265
v 0.00617309 -0.00939622 0.00297768
v 0.01122891 -0.00656323 0.00169971
v 0.01107074 -0.00678690 0.00193381
v 0.01100974 -0.00694355 0.00167576
v 0.01104166 -0.00699153 0.00116033
v 0.01105655 -0.00701481 0.00090227
v 0.01106790 -0.00703104 0.00064422
v 0.01107145 -0.00703527 0.00038684
v 0.01095867 -0.00657028 0.00297768
v 0.01103527 -0.00647150 0.00288869
v 0.01098491 -0.00663943 0.00270730
v 0.01102818 -0.00671634 0.00234314
v 0.01104591 -0.00674598 0.00219187
v 0.01107145 -0.00703527 -0.00035858
v 0.01106790 -0.00703104 -0.00064470
v 0.01105655 -0.00701481 -0.00090275
v 0.01104095 -0.00699153 -0.00116081
v 0.01101896 -0.00695907 -0.00151743
v 0.01100903 -0.00694355 -0.00167624
v 0.01107003 -0.00678690 -0.00193430
v 0.01075865 -0.00643904 -0.00385158
v 0.01081752 -0.00657946 -0.00346826
v 0.01077213 -0.00671846 -0.00337311
v 0.01073950 -0.00666554 -0.00354561
v 0.01060119 -0.00659921 -0.00401517
v 0.00555388 -0.00967211 -0.00401517
v 0.00617026 -0.00967211 0.00297768
v 0.00617238 -0.00941457 0.00297768
v 0.01104520 -0.00674598 -0.00219167
v 0.01096434 -0.00687440 -0.00219167
v 0.01082461 -0.00679890 -0.00296584
v 0.01079270 -0.00674951 -0.00322321
v 0.01098420 -0.00663943 -0.00270778
v 0.01096293 -0.00656534 -0.00297063
v 0.01089271 -0.00657804 -0.00322321
v 0.01099343 -0.00639882 -0.00322321
v 0.01099059 -0.00691603 0.00193381
v 0.01085015 -0.00711854 0.00195435
v 0.01077638 -0.00724060 0.00188316
v 0.01048345 -0.00770489 0.00167576
v 0.01082320 -0.00730693 0.00116033
v 0.01053168 -0.00777404 0.00090227
v 0.01096789 -0.00714394 0.00090227
v 0.01097924 -0.00716017 0.00064422
v 0.01098208 -0.00716511 0.00038684
v 0.01082390 -0.00679678 0.00297768
v 0.01096505 -0.00687440 0.00219187
v 0.01098208 -0.00716511 -0.00038733
v 0.01097924 -0.00716017 -0.00064470
v 0.01083880 -0.00733022 -0.00090275
v 0.01051536 -0.00775146 -0.00116081
v 0.01048345 -0.00770489 -0.00167624
v 0.01090547 -0.00709384 -0.00167624
v 0.01077638 -0.00724060 -0.00188364
v 0.01085015 -0.00711854 -0.00195551
v 0.01099059 -0.00691603 -0.00193430
v 0.01070474 -0.00687863 -0.00322321
v 0.01024938 -0.00748263 -0.00335600
v 0.01053381 -0.00700423 -0.00348126
v 0.01056147 -0.00683488 -0.00371605
v 0.01052033 -0.00672693 -0.00401517
v 0.00558793 -0.00984498 -0.00401517
v 0.00560992 -0.00993036 -0.00401517
v 0.00623977 -0.00991907 0.00297768
v 0.01076291 -0.00722085 -0.00205545
v 0.01083596 -0.00706773 -0.00219167
v 0.01073879 -0.00692732 -0.00296584
v 0.01076362 -0.00722085 0.00205429
v 0.01055508 -0.00754966 0.00193381
v 0.01046500 -0.00767878 0.00193381
v 0.01025293 -0.00800195 0.00182703
v 0.01044018 -0.00790316 0.00090227
v 0.01045153 -0.00791939 0.00064422
v 0.01054232 -0.00779027 0.00064422
v 0.01076078 -0.00747557 0.00064422
v 0.01054586 -0.00779521 0.00038684
v 0.01085369 -0.00735068 -0.00038733
v 0.01073737 -0.00692520 0.00297768
v 0.01080404 -0.00702116 0.00244924
v 0.01083596 -0.00706773 0.00219187
v 0.01076078 -0.00747557 -0.00064470
v 0.01064516 -0.00760963 -0.00090275
v 0.01053097 -0.00777404 -0.00090275
v 0.01044089 -0.00790316 -0.00090275
v 0.01036854 -0.00786789 -0.00167624
v 0.01025293 -0.00800266 -0.00182820
v 0.01046500 -0.00767878 -0.00193430
v 0.01050472 -0.00722085 -0.00308768
v 0.01026853 -0.00750873 -0.00322321
v 0.01017774 -0.00763856 -0.00322321
v 0.01001815 -0.00777404 -0.00342171
v 0.01011745 -0.00760611 -0.00347510
v 0.01001248 -0.00751156 -0.00392414
v 0.01021675 -0.00743535 -0.00352781
v 0.01044727 -0.00683418 -0.00401517
v 0.00563900 -0.00999034 -0.00401517
v 0.00624189 -0.00992542 0.00297768
v 0.01043876 -0.00764068 -0.00219167
v 0.01032244 -0.00762445 -0.00270162
v 0.01030187 -0.00755813 -0.00296584
v 0.01074659 -0.00719686 0.00219187
v 0.01043876 -0.00764068 0.00219187
v 0.01030967 -0.00782414 0.00219187
v 0.01023803 -0.00798219 0.00199953
v 0.01032102 -0.00788482 0.00192149
v 0.01015292 -0.00810285 0.00192149
v 0.01016072 -0.00814378 0.00167576
v 0.01017703 -0.00816494 0.00141770
v 0.01026215 -0.00801465 0.00167576
v 0.01031109 -0.00807674 0.00090227
v 0.01032315 -0.00809297 0.00064422
v 0.01045578 -0.00792433 0.00038684
v 0.01054586 -0.00779521 -0.00035858
v 0.01067424 -0.00760963 -0.00038733
v 0.01060473 -0.00711712 0.00297768
v 0.01048912 -0.00745511 0.00250674
v 0.01054232 -0.00779027 -0.00064470
v 0.01032315 -0.00809297 -0.00064470
v 0.01031109 -0.00807745 -0.00090275
v 0.01029548 -0.00805840 -0.00116081
v 0.01027917 -0.00803794 -0.00141818
v 0.01026286 -0.00801606 -0.00167624
v 0.01045153 -0.00791939 -0.00064470
v 0.01023661 -0.00798078 -0.00200001
v 0.01032102 -0.00788411 -0.00192266
v 0.01016072 -0.00814519 -0.00167624
v 0.01015221 -0.00810356 -0.00192266
v 0.01021179 -0.00768655 -0.00296584
v 0.01004865 -0.00781638 -0.00322321
v 0.00998411 -0.00773029 -0.00359352
v 0.00995006 -0.00794550 -0.00322321
v 0.00977416 -0.00804781 -0.00348126
v 0.00954789 -0.00806898 -0.00401517
v 0.00999475 -0.00748615 -0.00401517
v 0.01007560 -0.00736973 -0.00401517
v 0.00575390 -0.01006513 -0.00401517
v 0.00635964 -0.01006654 0.00297768
v 0.00635325 -0.01006160 0.00297768
v 0.01030967 -0.00782202 -0.00219167
v 0.01027775 -0.00777827 -0.00244972
v 0.01025718 -0.00775076 -0.00261195
v 0.01023519 -0.00771971 -0.00278376
v 0.01025718 -0.00775076 0.00261215
v 0.01027775 -0.00777898 0.00244924
v 0.01018413 -0.00790881 0.00244924
v 0.01021604 -0.00795326 0.00219187
v 0.01005433 -0.00807604 0.00244924
v 0.01006851 -0.00813884 0.00217065
v 0.00999262 -0.00825597 0.00207071
v 0.01000822 -0.00827290 0.00193381
v 0.01003163 -0.00829830 0.00167576
v 0.01020753 -0.00820516 0.00090227
v 0.01022030 -0.00822069 0.00064422
v 0.01022597 -0.00822704 0.00038684
v 0.01032669 -0.00809862 0.00038684
v 0.01045578 -0.00792433 -0.00035858
v 0.01030045 -0.00755601 0.00297768
v 0.01045507 -0.00792433 -0.00038733
v 0.01032669 -0.00809862 -0.00038733
v 0.01022597 -0.00822704 -0.00038733
v 0.01022030 -0.00822069 -0.00064470
v 0.01020753 -0.00820587 -0.00090275
v 0.01019193 -0.00818682 -0.00116081
v 0.01017703 -0.00816635 -0.00141818
v 0.01021392 -0.00795115 -0.00219167
v 0.00999262 -0.00825597 -0.00207188
v 0.01006709 -0.00813813 -0.00217182
v 0.01003163 -0.00829830 -0.00167624
v 0.01000822 -0.00827290 -0.00193430
v 0.00997701 -0.00797937 -0.00303976
v 0.00990892 -0.00760258 -0.00401517
v 0.00976990 -0.00778533 -0.00401517
v 0.00980466 -0.00813319 -0.00320130
v 0.00970606 -0.00822351 -0.00327181
v 0.00966705 -0.00817694 -0.00348126
v 0.00946774 -0.00824609 -0.00384953
v 0.00943724 -0.00821151 -0.00399738
v 0.00943441 -0.00820516 -0.00401517
v 0.00575674 -0.01006654 -0.00401517
v 0.00636815 -0.01006795 0.00279286
v 0.00642560 -0.01006795 0.00279286
v 0.00641993 -0.01006654 0.00296536
v 0.00641709 -0.01006584 0.00297768
v 0.01021250 -0.00768655 0.00296536
v 0.01020469 -0.00769290 0.00297768
v 0.01006922 -0.00787917 0.00297768
v 0.00999971 -0.00800901 0.00287226
v 0.01002170 -0.00803652 0.00270730
v 0.00991601 -0.00816494 0.00270730
v 0.00994722 -0.00820375 0.00244924
v 0.00997205 -0.00823339 0.00224321
v 0.00978763 -0.00831171 0.00270730
v 0.00981884 -0.00834417 0.00244924
v 0.00973940 -0.00851845 0.00208783
v 0.00988551 -0.00840203 0.00193381
v 0.00991176 -0.00842743 0.00167576
v 0.01004794 -0.00831594 0.00141770
v 0.01007844 -0.00834840 0.00090227
v 0.01009192 -0.00836251 0.00064422
v 0.01009688 -0.00836816 0.00038684
v 0.01021463 -0.00767878 0.00297768
v 0.01009688 -0.00836816 -0.00038733
v 0.01009121 -0.00836251 -0.00064470
v 0.01007844 -0.00834840 -0.00090275
v 0.01006355 -0.00833217 -0.00116081
v 0.01004794 -0.00831594 -0.00141818
v 0.00994722 -0.00820234 -0.00244972
v 0.00991601 -0.00816212 -0.00270778
v 0.00988551 -0.00840203 -0.00193430
v 0.00985572 -0.00837662 -0.00216566
v 0.00966493 -0.00844154 -0.00270778
v 0.00978692 -0.00831171 -0.00270778
v 0.00997205 -0.00823268 -0.00224300
v 0.00992807 -0.00844507 -0.00141818
v 0.00991105 -0.00842743 -0.00167624
v 0.00978196 -0.00856361 -0.00167624
v 0.00989544 -0.00810638 -0.00295831
v 0.00973444 -0.00825597 -0.00310000
v 0.00959187 -0.00837027 -0.00318761
v 0.00953796 -0.00831735 -0.00348126
v 0.00935568 -0.00839285 -0.00376396
v 0.00921027 -0.00850504 -0.00385021
v 0.00930461 -0.00834134 -0.00401517
v 0.00687884 -0.01007148 0.00116033
v 0.00586455 -0.01006090 -0.00401517
v 0.00590144 -0.01006654 -0.00392345
v 0.00695402 -0.01007148 -0.00116081
v 0.00687955 -0.01007148 -0.00116081
v 0.00695402 -0.01007148 0.00116033
v 0.00669087 -0.01006866 0.00219187
v 0.00666747 -0.01006584 0.00239996
v 0.00653483 -0.01004326 0.00297768
v 0.01005220 -0.00790175 0.00297768
v 0.00991176 -0.00808239 0.00297768
v 0.00987771 -0.00812472 0.00297768
v 0.00975430 -0.00827643 0.00296536
v 0.00966493 -0.00844154 0.00270730
v 0.00953654 -0.00857560 0.00270730
v 0.00956704 -0.00860806 0.00244924
v 0.00946278 -0.00875906 0.00227333
v 0.00963088 -0.00866592 0.00193381
v 0.00975642 -0.00853680 0.00193381
v 0.00978196 -0.00856361 0.00167576
v 0.00979898 -0.00858266 0.00141770
v 0.00992807 -0.00844507 0.00141770
v 0.00981459 -0.00859889 0.00116033
v 0.00982948 -0.00861512 0.00090227
v 0.00997205 -0.00849093 0.00064422
v 0.00972734 -0.00876541 0.00038684
v 0.00997701 -0.00849728 -0.00035858
v 0.00997701 -0.00849728 -0.00038733
v 0.00984225 -0.00862994 -0.00064470
v 0.00982948 -0.00861512 -0.00090275
v 0.00981459 -0.00859889 -0.00116081
v 0.00975359 -0.00827643 -0.00296584
v 0.00975642 -0.00853680 -0.00193430
v 0.00973869 -0.00851845 -0.00208762
v 0.00956704 -0.00860806 -0.00244972
v 0.00953584 -0.00857560 -0.00270778
v 0.00962946 -0.00840555 -0.00296584
v 0.00979898 -0.00858266 -0.00141818
v 0.00967344 -0.00871179 -0.00141818
v 0.00965500 -0.00869273 -0.00167624
v 0.00963088 -0.00866592 -0.00193430
v 0.00949966 -0.00853821 -0.00296584
v 0.00947767 -0.00851492 -0.00310274
v 0.00944646 -0.00848388 -0.00327455
v 0.00927978 -0.00857349 -0.00348126
v 0.00924290 -0.00853750 -0.00367840
v 0.00895138 -0.00876329 -0.00384816
v 0.00917268 -0.00847188 -0.00401517
v 0.00598088 -0.01003902 -0.00401517
v 0.00625253 -0.00998610 -0.00401517
v 0.00612699 -0.01006019 -0.00361611
v 0.00615962 -0.01006584 -0.00348126
v 0.00641993 -0.01006654 -0.00296584
v 0.00669087 -0.01006866 -0.00219167
v 0.00693558 -0.01006795 -0.00141818
v 0.00708240 -0.01004396 -0.00116081
v 0.00728455 -0.01001362 -0.00064470
v 0.00728455 -0.01001927 -0.00035858
v 0.00728455 -0.01002068 -0.00012927
v 0.00728455 -0.01001997 0.00012879
v 0.00728455 -0.01001786 0.00038684
v 0.00728455 -0.01001362 0.00064422
v 0.00708240 -0.01004396 0.00116033
v 0.00693558 -0.01006795 0.00141770
v 0.00676819 -0.01001927 0.00270730
v 0.00691288 -0.01006301 0.00161073
v 0.00702637 -0.01001997 0.00193381
v 0.00702637 -0.01000304 0.00219187
v 0.00702637 -0.00998399 0.00244924
v 0.00702637 -0.00996352 0.00270730
v 0.00676819 -0.00999669 0.00296536
v 0.00676819 -0.00999528 0.00297768
v 0.00975217 -0.00827431 0.00297768
v 0.00963868 -0.00839215 0.00297768
v 0.00944079 -0.00873719 0.00244924
v 0.00949824 -0.00853609 0.00297768
v 0.00940674 -0.00870543 0.00270730
v 0.00948335 -0.00877741 0.00210083
v 0.00927836 -0.00882045 0.00270730
v 0.00965500 -0.00869273 0.00167576
v 0.00950250 -0.00879293 0.00193381
v 0.00967415 -0.00871179 0.00141770
v 0.00970535 -0.00874424 0.00090227
v 0.00984225 -0.00862994 0.00064422
v 0.00972025 -0.00875836 0.00064422
v 0.00959187 -0.00886420 0.00064422
v 0.00959825 -0.00886984 0.00038684
v 0.00971387 -0.00877670 -0.00035858
v 0.00972734 -0.00876541 -0.00038733
v 0.00972025 -0.00875836 -0.00064470
v 0.00970535 -0.00874424 -0.00090275
v 0.00946278 -0.00875906 -0.00227312
v 0.00940674 -0.00870543 -0.00270778
v 0.00954506 -0.00882892 -0.00141818
v 0.00952591 -0.00881410 -0.00167624
v 0.00950179 -0.00879293 -0.00193430
v 0.00948335 -0.00877741 -0.00210200
v 0.00936915 -0.00866733 -0.00296584
v 0.00921807 -0.00877106 -0.00309794
v 0.00933227 -0.00862782 -0.00318625
v 0.00898188 -0.00878870 -0.00367566
v 0.00882158 -0.00896016 -0.00350112
v 0.00869816 -0.00902507 -0.00360037
v 0.00853857 -0.00909775 -0.00373932
v 0.00860738 -0.00896086 -0.00399738
v 0.00878470 -0.00883174 -0.00399738
v 0.00878044 -0.00882821 -0.00401517
v 0.00891379 -0.00872943 -0.00399738
v 0.00890953 -0.00872519 -0.00401517
v 0.00904997 -0.00860030 -0.00399738
v 0.00905210 -0.00858972 -0.00401517
v 0.00649298 -0.00993742 -0.00401517
v 0.00651072 -0.00996917 -0.00373932
v 0.00638872 -0.01006090 -0.00310821
v 0.00651072 -0.00999739 -0.00348126
v 0.00666747 -0.01006584 -0.00239907
v 0.00691359 -0.01006301 -0.00161258
v 0.00706467 -0.01003902 -0.00141818
v 0.00728455 -0.00999951 -0.00116081
v 0.00754202 -0.00995435 -0.00064470
v 0.00754202 -0.00995929 -0.00038733
v 0.00754202 -0.00996070 -0.00012927
v 0.00754202 -0.00995929 0.00038684
v 0.00754202 -0.00995435 0.00064422
v 0.00728455 -0.00999951 0.00116033
v 0.00706467 -0.01003902 0.00141770
v 0.00728455 -0.00998963 0.00141770
v 0.00728455 -0.00996211 0.00193381
v 0.00728455 -0.00994588 0.00219187
v 0.00702637 -0.00994094 0.00296536
v 0.00702637 -0.00993953 0.00297768
v 0.00935638 -0.00867651 0.00297768
v 0.00923864 -0.00878799 0.00297768
v 0.00914998 -0.00897498 0.00244924
v 0.00932376 -0.00893617 0.00192218
v 0.00911523 -0.00894957 0.00270730
v 0.00952661 -0.00881410 0.00167576
v 0.00922304 -0.00903213 0.00182840
v 0.00936631 -0.00894322 0.00167576
v 0.00954506 -0.00882892 0.00141770
v 0.00957697 -0.00885291 0.00090227
v 0.00941738 -0.00898203 0.00090227
v 0.00943157 -0.00899332 0.00064422
v 0.00945639 -0.00898415 -0.00035858
v 0.00930957 -0.00910128 0.00038684
v 0.00959825 -0.00886984 -0.00038733
v 0.00959187 -0.00886420 -0.00064470
v 0.00957697 -0.00885291 -0.00090275
v 0.00927836 -0.00882045 -0.00270778
v 0.00924006 -0.00878940 -0.00296584
v 0.00938688 -0.00895804 -0.00141818
v 0.00936702 -0.00894322 -0.00167624
v 0.00932376 -0.00893617 -0.00192266
v 0.00914927 -0.00897498 -0.00244972
v 0.00931099 -0.00884585 -0.00244972
v 0.00896415 -0.00903072 -0.00284879
v 0.00889606 -0.00897991 -0.00322321
v 0.00884073 -0.00909704 -0.00294667
v 0.00859674 -0.00912668 -0.00350112
v 0.00840877 -0.00926427 -0.00348126
v 0.00835203 -0.00922687 -0.00373932
v 0.00847545 -0.00904977 -0.00401517
v 0.00651072 -0.00993318 -0.00401517
v 0.00676890 -0.00990990 -0.00373932
v 0.00676890 -0.00994236 -0.00348126
v 0.00676890 -0.00997058 -0.00322321
v 0.00676890 -0.00999669 -0.00296584
v 0.00654831 -0.01004185 -0.00296584
v 0.00676890 -0.01001927 -0.00270778
v 0.00702637 -0.00998328 -0.00244972
v 0.00702637 -0.01000304 -0.00219167
v 0.00702637 -0.01001997 -0.00193430
v 0.00728455 -0.00996211 -0.00193430
v 0.00728455 -0.00997623 -0.00167624
v 0.00728455 -0.00998963 -0.00141818
v 0.00754202 -0.00993953 -0.00116081
v 0.00754202 -0.00994729 -0.00090275
v 0.00780020 -0.00987956 -0.00064470
v 0.00780020 -0.00988520 -0.00038733
v 0.00757110 -0.00995153 -0.00035858
v 0.00779949 -0.00988661 -0.00012927
v 0.00779949 -0.00988661 0.00012879
v 0.00779949 -0.00988520 0.00038684
v 0.00779949 -0.00987956 0.00064422
v 0.00754202 -0.00994729 0.00090227
v 0.00754202 -0.00993953 0.00116033
v 0.00754202 -0.00992683 0.00141770
v 0.00754202 -0.00990990 0.00167576
v 0.00754202 -0.00989155 0.00193381
v 0.00754202 -0.00987109 0.00219187
v 0.00728455 -0.00992330 0.00244924
v 0.00728455 -0.00989579 0.00270730
v 0.00728455 -0.00986686 0.00296536
v 0.00728455 -0.00986545 0.00297768
v 0.00909679 -0.00889665 0.00297768
v 0.00896415 -0.00903072 0.00284831
v 0.00902018 -0.00907517 0.00244924
v 0.00905139 -0.00909846 0.00219187
v 0.00920247 -0.00901661 0.00200021
v 0.00898614 -0.00904765 0.00270730
v 0.00938688 -0.00895804 0.00141770
v 0.00910530 -0.00910551 0.00192218
v 0.00908898 -0.00915914 0.00167576
v 0.00923793 -0.00904412 0.00167576
v 0.00925850 -0.00906035 0.00141770
v 0.00927340 -0.00907235 0.00116033
v 0.00928829 -0.00908434 0.00090227
v 0.00930248 -0.00909563 0.00064422
v 0.00943795 -0.00899826 -0.00038733
v 0.00930957 -0.00910128 -0.00035858
v 0.00930886 -0.00910128 -0.00038733
v 0.00913651 -0.00923040 0.00038684
v 0.00943086 -0.00899332 -0.00064470
v 0.00941738 -0.00898203 -0.00090275
v 0.00911452 -0.00894957 -0.00270778
v 0.00925850 -0.00906035 -0.00141818
v 0.00923793 -0.00904412 -0.00167624
v 0.00922233 -0.00903213 -0.00182888
v 0.00917977 -0.00899897 -0.00219167
v 0.00902089 -0.00907517 -0.00244972
v 0.00898614 -0.00904765 -0.00270778
v 0.00883080 -0.00916267 -0.00270778
v 0.00867830 -0.00927133 -0.00270778
v 0.00863078 -0.00924028 -0.00296584
v 0.00843785 -0.00928121 -0.00333273
v 0.00827968 -0.00933624 -0.00348126
v 0.00822365 -0.00930520 -0.00373932
v 0.00829529 -0.00917254 -0.00401517
v 0.00819031 -0.00928756 -0.00387485
v 0.00815485 -0.00926639 -0.00401517
v 0.00821230 -0.00922829 -0.00401517
v 0.00675116 -0.00987038 -0.00401517
v 0.00676890 -0.00986827 -0.00399738
v 0.00702637 -0.00987321 -0.00348126
v 0.00702637 -0.00991060 -0.00322321
v 0.00702637 -0.00994024 -0.00296584
v 0.00702637 -0.00996282 -0.00270778
v 0.00728455 -0.00994588 -0.00219167
v 0.00754202 -0.00992683 -0.00141818
v 0.00780020 -0.00985909 -0.00116081
v 0.00780020 -0.00986968 -0.00090275
v 0.00797043 -0.00981817 -0.00064470
v 0.00797965 -0.00982099 -0.00038733
v 0.00782077 -0.00987815 -0.00035858
v 0.00798036 -0.00982170 -0.00012927
v 0.00798036 -0.00982170 0.00012879
v 0.00797965 -0.00982099 0.00038684
v 0.00797043 -0.00981817 0.00064422
v 0.00779949 -0.00986968 0.00090227
v 0.00779949 -0.00985909 0.00116033
v 0.00781794 -0.00983934 0.00140059
v 0.00776403 -0.00983722 0.00167576
v 0.00773353 -0.00982593 0.00193381
v 0.00770303 -0.00981323 0.00219187
v 0.00768104 -0.00980547 0.00234999
v 0.00755550 -0.00983934 0.00244103
v 0.00743847 -0.00981111 0.00297768
v 0.00883222 -0.00909493 0.00297768
v 0.00884073 -0.00909704 0.00294687
v 0.00883080 -0.00916267 0.00270730
v 0.00870171 -0.00928544 0.00257724
v 0.00881662 -0.00922052 0.00247457
v 0.00890599 -0.00925087 0.00193381
v 0.00893649 -0.00927133 0.00167576
v 0.00895351 -0.00928191 0.00149642
v 0.00906487 -0.00920641 0.00141359
v 0.00911523 -0.00921347 0.00090227
v 0.00912941 -0.00922476 0.00064422
v 0.00913651 -0.00923040 -0.00038733
v 0.00930248 -0.00909563 -0.00064470
v 0.00899961 -0.00931084 0.00064422
v 0.00900741 -0.00931508 0.00038684
v 0.00928829 -0.00908434 -0.00090275
v 0.00927340 -0.00907235 -0.00116081
v 0.00906487 -0.00920641 -0.00141408
v 0.00895422 -0.00928191 -0.00149690
v 0.00908827 -0.00915914 -0.00167624
v 0.00910530 -0.00910551 -0.00192266
v 0.00905139 -0.00909846 -0.00219167
v 0.00890599 -0.00925087 -0.00193430
v 0.00881591 -0.00922052 -0.00247505
v 0.00870100 -0.00928544 -0.00257772
v 0.00833714 -0.00935530 -0.00323758
v 0.00793568 -0.00954722 -0.00336695
v 0.00854921 -0.00934401 -0.00270778
v 0.00789596 -0.00952605 -0.00353876
v 0.00805838 -0.00939128 -0.00373932
v 0.00805980 -0.00932919 -0.00397547
v 0.00804633 -0.00932566 -0.00401517
v 0.00692991 -0.00981323 -0.00401517
v 0.00702991 -0.00983299 -0.00372152
v 0.00728810 -0.00983228 -0.00320130
v 0.00728455 -0.00986686 -0.00296584
v 0.00728455 -0.00989579 -0.00270778
v 0.00728455 -0.00992260 -0.00244972
v 0.00754202 -0.00987109 -0.00219167
v 0.00754202 -0.00989155 -0.00193430
v 0.00754202 -0.00990990 -0.00167624
v 0.00781794 -0.00983934 -0.00140107
v 0.00793142 -0.00980265 -0.00130319
v 0.00794064 -0.00980618 -0.00116081
v 0.00809952 -0.00976737 -0.00064470
v 0.00813215 -0.00976172 -0.00035858
v 0.00811016 -0.00977160 -0.00012927
v 0.00811016 -0.00977160 0.00012879
v 0.00831586 -0.00968834 0.00038684
v 0.00809952 -0.00976737 0.00064422
v 0.00793993 -0.00980618 0.00116033
v 0.00793142 -0.00980265 0.00130271
v 0.00803356 -0.00975608 0.00140059
v 0.00791511 -0.00979630 0.00147451
v 0.00789312 -0.00978783 0.00167576
v 0.00783141 -0.00976454 0.00219187
v 0.00805838 -0.00972433 0.00167576
v 0.00805838 -0.00970104 0.00193381
v 0.00765054 -0.00979418 0.00252180
v 0.00805838 -0.00967564 0.00219187
v 0.00778034 -0.00975608 0.00244103
v 0.00779949 -0.00971374 0.00270730
v 0.00756968 -0.00976384 0.00296536
v 0.00756685 -0.00976313 0.00297768
v 0.00862865 -0.00923958 0.00297768
v 0.00867901 -0.00927133 0.00270730
v 0.00880810 -0.00934542 0.00167576
v 0.00850027 -0.00931719 0.00297768
v 0.00854992 -0.00934401 0.00270730
v 0.00820166 -0.00955145 0.00261831
v 0.00822720 -0.00956556 0.00244924
v 0.00835629 -0.00949500 0.00244924
v 0.00826124 -0.00958391 0.00219187
v 0.00838962 -0.00951264 0.00219187
v 0.00845984 -0.00955145 0.00160731
v 0.00847545 -0.00956133 0.00141770
v 0.00860383 -0.00948795 0.00141770
v 0.00849176 -0.00957050 0.00116033
v 0.00896344 -0.00928826 0.00132461
v 0.00897195 -0.00929391 0.00116033
v 0.00912941 -0.00922476 -0.00064470
v 0.00900741 -0.00931508 -0.00038733
v 0.00899961 -0.00931084 -0.00064470
v 0.00883080 -0.00941033 0.00064422
v 0.00883080 -0.00941880 0.00038684
v 0.00880739 -0.00934542 -0.00167624
v 0.00893649 -0.00927133 -0.00167624
v 0.00896344 -0.00928826 -0.00132509
v 0.00849247 -0.00957050 -0.00116081
v 0.00847545 -0.00956133 -0.00141818
v 0.00845913 -0.00955145 -0.00160779
v 0.00843856 -0.00954016 -0.00178028
v 0.00842083 -0.00952958 -0.00193430
v 0.00838962 -0.00951264 -0.00219167
v 0.00835629 -0.00949500 -0.00244972
v 0.00822720 -0.00956556 -0.00244972
v 0.00820095 -0.00955145 -0.00261811
v 0.00829883 -0.00948160 -0.00270573
v 0.00796263 -0.00956133 -0.00322321
v 0.00780020 -0.00963471 -0.00322321
v 0.00780588 -0.00958673 -0.00346415
v 0.00771722 -0.00956627 -0.00373932
v 0.00768033 -0.00954863 -0.00388649
v 0.00784631 -0.00950065 -0.00373932
v 0.00771934 -0.00949500 -0.00401517
v 0.00705900 -0.00976878 -0.00401517
v 0.00706396 -0.00977089 -0.00399738
v 0.00711858 -0.00978853 -0.00379545
v 0.00726256 -0.00975114 -0.00372152
v 0.00719731 -0.00981676 -0.00348126
v 0.00732640 -0.00977089 -0.00348126
v 0.00737676 -0.00978853 -0.00327249
v 0.00751791 -0.00974973 -0.00320130
v 0.00741577 -0.00980265 -0.00310068
v 0.00744130 -0.00981182 -0.00296584
v 0.00755550 -0.00983934 -0.00244151
v 0.00768104 -0.00980547 -0.00234979
v 0.00770303 -0.00981323 -0.00219167
v 0.00773353 -0.00982593 -0.00193430
v 0.00776474 -0.00983722 -0.00167624
v 0.00791511 -0.00979630 -0.00147500
v 0.00803356 -0.00975608 -0.00140107
v 0.00806902 -0.00975537 -0.00116081
v 0.00831586 -0.00968058 -0.00064470
v 0.00831586 -0.00968834 -0.00038733
v 0.00831586 -0.00968904 -0.00012927
v 0.00831586 -0.00968904 0.00012879
v 0.00831586 -0.00968058 0.00064422
v 0.00852935 -0.00958955 0.00038684
v 0.00852226 -0.00958603 0.00064422
v 0.00806902 -0.00975537 0.00116033
v 0.00831586 -0.00965306 0.00116033
v 0.00831586 -0.00963683 0.00141770
v 0.00829174 -0.00959732 0.00193381
v 0.00805838 -0.00964389 0.00244924
v 0.00779949 -0.00967634 0.00296536
v 0.00779949 -0.00967423 0.00297768
v 0.00832508 -0.00941315 0.00297768
v 0.00813002 -0.00951899 0.00297768
v 0.00800661 -0.00958391 0.00297768
v 0.00807399 -0.00959732 0.00270525
v 0.00833784 -0.00960084 0.00168671
v 0.00865064 -0.00951406 0.00064422
v 0.00883080 -0.00937576 0.00116033
v 0.00897195 -0.00929391 -0.00116081
v 0.00883080 -0.00941880 -0.00038733
v 0.00883080 -0.00941033 -0.00064470
v 0.00865915 -0.00951829 0.00038684
v 0.00831586 -0.00965306 -0.00116081
v 0.00831586 -0.00963683 -0.00141818
v 0.00864993 -0.00951406 -0.00064470
v 0.00852226 -0.00958603 -0.00064470
v 0.00833784 -0.00960084 -0.00168719
v 0.00829174 -0.00959732 -0.00193430
v 0.00826124 -0.00958391 -0.00219167
v 0.00805838 -0.00964389 -0.00244972
v 0.00807399 -0.00959732 -0.00270573
v 0.00800944 -0.00958462 -0.00296584
v 0.00817045 -0.00953452 -0.00278992
v 0.00780020 -0.00967634 -0.00296584
v 0.00754202 -0.00969328 -0.00348126
v 0.00754202 -0.00964177 -0.00373932
v 0.00754770 -0.00958744 -0.00398232
v 0.00755195 -0.00957756 -0.00401517
v 0.00764842 -0.00953170 -0.00401517
v 0.00726256 -0.00969751 -0.00401517
v 0.00728455 -0.00969328 -0.00399738
v 0.00780020 -0.00971374 -0.00270778
v 0.00765054 -0.00979418 -0.00252228
v 0.00778034 -0.00975608 -0.00244151
v 0.00805838 -0.00967564 -0.00219167
v 0.00783141 -0.00976454 -0.00219167
v 0.00805838 -0.00970104 -0.00193430
v 0.00805838 -0.00972433 -0.00167624
v 0.00852864 -0.00958955 -0.00038733
v 0.00852935 -0.00958955 -0.00035858
v 0.00852935 -0.00959026 -0.00012927
v 0.00852935 -0.00959026 0.00012879
v 0.00780801 -0.00967070 0.00297768
v 0.00865915 -0.00951829 -0.00035858
v 0.00865844 -0.00951829 -0.00038733
v 0.00864426 -0.00952676 -0.00035858
v 0.00728455 -0.00968975 -0.00401517
v 0.00751578 -0.00959379 -0.00401517
v 0.00753635 -0.00958462 -0.00401517
f 1 2 8
f 1 8 18
f 1 18 39
f 1 39 71
f 1 71 100
f 1 100 137
f 1 137 186
f 1 186 161
f 1 161 160
f 1 160 170
f 1 170 169
f 1 169 212
f 1 212 248
f 1 248 259
f 1 259 222
f 1 222 187
f 1 187 140
f 1 140 106
f 1 106 101
f 1 101 72
f 1 72 40
f 1 40 19
f 1 19 9
f 1 9 3
f 1 3 4
f 1 4 5
f 1 5 6
f 1 6 2
f 2 6 7
f 2 7 8
f 3 9 4
f 4 10 11
f 4 11 12
f 4 12 5
f 4 9 10
f 5 12 13
f 5 13 14
f 5 14 6
f 6 14 15
f 6 15 7
f 7 15 16
f 7 16 17
f 7 17 8
f 8 17 18
f 9 19 10
f 10 19 20
f 10 20 11
f 11 21 12
f 11 20 22
f 11 22 23
f 11 23 24
f 11 24 25
f 11 25 26
f 11 26 27
f 11 27 28
f 11 28 21
f 12 21 13
f 13 21 29
f 13 29 30
f 13 30 14
f 14 30 31
f 14 31 15
f 15 31 16
f 16 32 17
f 16 31 33
f 16 33 34
f 16 34 35
f 16 35 36
f 16 36 37
f 16 37 38
f 16 38 32
f 17 32 39
f 17 39 18
f 19 40 20
f 20 40 41
f 20 41 23
f 20 23 22
f 21 42 29
f 21 28 42
f 23 41 43
f 23 43 24
f 24 43 44
f 24 44 45
f 24 45 46
f 24 46 47
f 24 47 48
f 24 48 49
f 24 49 25
f 25 27 26
f 25 49 27
f 27 49 50
f 27 50 51
f 27 51 52
f 27 52 53
f 27 53 28
f 28 53 52
f 28 52 42
f 29 42 54
f 29 54 55
f 29 55 57
f 29 57 30
f 30 56 31
f 30 57 58
f 30 58 56
f 31 56 59
f 31 59 33
f 32 38 37
f 32 37 60
f 32 60 39
f 33 59 34
f 34 59 61
f 34 61 62
f 34 62 63
f 34 63 35
f 35 63 36
f 36 64 65
f 36 65 37
f 36 63 66
f 36 66 67
f 36 67 68
f 36 68 69
f 36 69 64
f 37 65 60
f 39 60 70
f 39 70 71
f 40 72 73
f 40 73 41
f 41 73 43
f 42 52 54
f 43 74 44
f 43 73 74
f 44 74 75
f 44 75 76
f 44 76 45
f 45 76 77
f 45 77 46
f 46 77 78
f 46 78 47
f 47 78 48
f 48 79 50
f 48 50 49
f 48 78 80
f 48 80 81
f 48 81 79
f 50 79 51
f 51 79 82
f 51 82 83
f 51 83 52
f 52 83 54
f 54 83 55
f 55 83 84
f 55 84 85
f 55 85 87
f 55 87 57
f 56 61 59
f 56 58 86
f 56 86 61
f 57 87 88
f 57 88 58
f 58 88 89
f 58 89 86
f 60 65 70
f 61 86 62
f 62 86 90
f 62 90 91
f 62 91 92
f 62 92 66
f 62 66 63
f 64 93 65
f 64 69 94
f 64 94 95
f 64 95 93
f 65 93 70
f 66 92 96
f 66 96 97
f 66 97 98
f 66 98 67
f 67 98 68
f 68 98 99
f 68 99 69
f 69 99 94
f 70 93 71
f 71 93 100
f 72 101 73
f 73 101 74
f 74 102 103
f 74 103 104
f 74 104 105
f 74 105 75
f 74 101 106
f 74 106 107
f 74 107 102
f 75 105 104
f 75 104 76
f 76 104 108
f 76 108 109
f 76 109 110
f 76 110 111
f 76 111 77
f 77 111 110
f 77 110 78
f 78 110 80
f 79 81 112
f 79 112 82
f 80 110 113
f 80 113 114
f 80 114 115
f 80 115 81
f 81 115 116
f 81 116 117
f 81 117 112
f 82 112 84
f 82 84 83
f 84 112 118
f 84 118 119
f 84 119 85
f 85 119 120
f 85 120 87
f 86 89 90
f 87 120 121
f 87 121 88
f 88 121 89
f 89 121 122
f 89 122 123
f 89 123 90
f 90 123 91
f 91 123 96
f 91 96 92
f 93 95 124
f 93 124 125
f 93 125 126
f 93 126 127
f 93 127 128
f 93 128 100
f 94 129 95
f 94 99 130
f 94 130 131
f 94 131 132
f 94 132 129
f 95 129 124
f 96 133 134
f 96 134 97
f 96 123 133
f 97 131 98
f 97 134 135
f 97 135 136
f 97 136 131
f 98 131 99
f 99 131 130
f 100 128 137
f 102 107 138
f 102 138 103
f 103 138 140
f 103 140 187
f 103 187 223
f 103 223 260
f 103 260 306
f 103 306 356
f 103 356 383
f 103 383 382
f 103 382 419
f 103 419 452
f 103 452 493
f 103 493 492
f 103 492 538
f 103 538 587
f 103 587 650
f 103 650 709
f 103 709 772
f 103 772 835
f 103 835 899
f 103 899 972
f 103 972 1014
f 103 1014 975
f 103 975 974
f 103 974 973
f 103 973 903
f 103 903 900
f 103 900 836
f 103 836 773
f 103 773 711
f 103 711 710
f 103 710 654
f 103 654 652
f 103 652 651
f 103 651 590
f 103 590 589
f 103 589 588
f 103 588 541
f 103 541 540
f 103 540 556
f 103 556 512
f 103 512 470
f 103 470 433
f 103 433 401
f 103 401 364
f 103 364 317
f 103 317 273
f 103 273 232
f 103 232 195
f 103 195 194
f 103 194 190
f 103 190 189
f 103 189 188
f 103 188 141
f 103 141 109
f 103 109 139
f 103 139 104
f 104 139 108
f 106 140 107
f 107 140 138
f 108 139 109
f 109 141 142
f 109 142 110
f 110 142 113
f 112 117 143
f 112 143 118
f 113 142 144
f 113 144 114
f 114 144 145
f 114 145 146
f 114 146 147
f 114 147 115
f 115 148 116
f 115 147 149
f 115 149 148
f 116 148 117
f 117 148 143
f 118 143 150
f 118 150 119
f 119 150 151
f 119 151 152
f 119 152 120
f 120 152 153
f 120 153 154
f 120 154 121
f 121 154 122
f 122 154 155
f 122 155 123
f 123 155 156
f 123 156 157
f 123 157 133
f 124 158 125
f 124 129 158
f 125 158 129
f 125 129 159
f 125 159 126
f 126 160 161
f 126 161 162
f 126 162 163
f 126 163 127
f 126 159 164
f 126 164 165
f 126 165 166
f 126 166 167
f 126 167 168
f 126 168 169
f 126 169 170
f 126 170 160
f 127 163 137
f 127 137 171
f 127 171 128
f 128 171 137
f 129 132 172
f 129 172 159
f 131 136 173
f 131 173 132
f 132 173 174
f 132 174 175
f 132 175 176
f 132 176 172
f 133 177 178
f 133 178 179
f 133 179 180
f 133 180 134
f 133 157 177
f 134 180 181
f 134 181 182
f 134 182 135
f 135 183 184
f 135 184 136
f 135 182 185
f 135 185 183
f 136 184 173
f 137 163 162
f 137 162 186
f 141 188 142
f 142 188 189
f 142 189 190
f 142 190 144
f 143 148 191
f 143 191 192
f 143 192 193
f 143 193 150
f 144 190 194
f 144 194 145
f 145 194 146
f 146 194 195
f 146 195 196
f 146 196 147
f 147 196 197
f 147 197 149
f 148 149 198
f 148 198 199
f 148 199 191
f 149 197 200
f 149 200 198
f 150 193 151
f 151 193 201
f 151 201 202
f 151 202 152
f 152 202 153
f 153 155 154
f 153 202 203
f 153 203 204
f 153 204 155
f 155 177 156
f 155 204 205
f 155 205 177
f 156 177 157
f 159 172 164
f 161 186 162
f 164 172 176
f 164 176 206
f 164 206 207
f 164 207 208
f 164 208 209
f 164 209 165
f 165 167 166
f 165 209 210
f 165 210 167
f 167 210 211
f 167 211 246
f 167 246 293
f 167 293 338
f 167 338 380
f 167 380 416
f 167 416 450
f 167 450 490
f 167 490 489
f 167 489 526
f 167 526 527
f 167 527 488
f 167 488 533
f 167 533 578
f 167 578 626
f 167 626 689
f 167 689 687
f 167 687 685
f 167 685 740
f 167 740 806
f 167 806 809
f 167 809 808
f 167 808 867
f 167 867 940
f 167 940 1000
f 167 1000 999
f 167 999 1020
f 167 1020 1019
f 167 1019 1018
f 167 1018 1001
f 167 1001 941
f 167 941 868
f 167 868 810
f 167 810 741
f 167 741 690
f 167 690 628
f 167 628 627
f 167 627 580
f 167 580 534
f 167 534 491
f 167 491 451
f 167 451 418
f 167 418 417
f 167 417 381
f 167 381 339
f 167 339 294
f 167 294 247
f 167 247 212
f 167 212 169
f 167 169 168
f 173 184 213
f 173 213 214
f 173 214 174
f 174 214 175
f 175 214 206
f 175 206 176
f 177 205 178
f 178 205 215
f 178 215 179
f 179 215 216
f 179 216 181
f 179 181 180
f 181 216 217
f 181 217 182
f 182 217 218
f 182 218 185
f 183 213 184
f 183 185 219
f 183 219 220
f 183 220 221
f 183 221 213
f 185 218 219
f 187 222 223
f 191 199 224
f 191 224 192
f 192 224 225
f 192 225 226
f 192 226 227
f 192 227 228
f 192 228 229
f 192 229 193
f 193 229 230
f 193 230 201
f 195 231 196
f 195 232 231
f 196 231 233
f 196 233 197
f 197 233 234
f 197 234 200
f 198 200 199
f 199 200 235
f 199 235 224
f 200 234 235
f 201 230 236
f 201 236 202
f 202 236 203
f 203 236 237
f 203 237 204
f 204 237 205
f 205 237 238
f 205 238 239
f 205 239 240
f 205 240 241
f 205 241 215
f 206 214 242
f 206 242 243
f 206 243 244
f 206 244 207
f 207 244 245
f 207 245 208
f 208 245 246
f 208 246 209
f 209 246 210
f 210 246 211
f 212 247 248
f 213 221 214
f 214 221 249
f 214 249 242
f 215 241 250
f 215 250 251
f 215 251 216
f 216 251 252
f 216 252 217
f 217 252 253
f 217 253 218
f 218 253 254
f 218 254 255
f 218 255 219
f 219 221 220
f 219 255 256
f 219 256 257
f 219 257 258
f 219 258 221
f 221 258 249
f 222 259 223
f 223 259 260
f 224 235 225
f 225 235 261
f 225 261 262
f 225 262 263
f 225 263 226
f 226 264 227
f 226 263 265
f 226 265 266
f 226 266 267
f 226 267 268
f 226 268 269
f 226 269 264
f 227 264 270
f 227 270 271
f 227 271 272
f 227 272 228
f 228 272 230
f 228 230 229
f 230 272 277
f 230 277 236
f 231 232 273
f 231 273 274
f 231 274 233
f 233 274 275
f 233 275 234
f 234 275 276
f 234 276 235
f 235 276 261
f 236 277 237
f 237 277 278
f 237 278 238
f 238 279 280
f 238 280 281
f 238 281 239
f 238 278 279
f 239 281 282
f 239 282 283
f 239 283 284
f 239 284 285
f 239 285 240
f 240 285 286
f 240 286 287
f 240 287 288
f 240 288 250
f 240 250 241
f 242 249 243
f 243 249 289
f 243 289 290
f 243 290 244
f 244 290 245
f 245 290 246
f 246 290 291
f 246 291 292
f 246 292 293
f 247 294 260
f 247 260 259
f 247 259 248
f 249 295 289
f 249 258 295
f 250 288 296
f 250 296 251
f 251 296 297
f 251 297 252
f 252 297 298
f 252 298 253
f 253 298 299
f 253 299 254
f 254 299 300
f 254 300 301
f 254 301 302
f 254 302 255
f 255 302 256
f 256 302 257
f 257 302 303
f 257 303 258
f 258 303 304
f 258 304 305
f 258 305 295
f 260 294 306
f 261 276 307
f 261 307 262
f 262 307 265
f 262 265 263
f 264 269 308
f 264 308 309
f 264 309 270
f 265 307 310
f 265 310 266
f 266 310 311
f 266 311 312
f 266 312 267
f 267 312 313
f 267 313 314
f 267 314 315
f 267 315 316
f 267 316 268
f 268 316 309
f 268 309 308
f 268 308 269
f 270 279 278
f 270 278 271
f 270 309 324
f 270 324 279
f 271 278 277
f 271 277 272
f 273 317 318
f 273 318 319
f 273 319 274
f 274 319 275
f 275 319 320
f 275 320 321
f 275 321 322
f 275 322 276
f 276 322 323
f 276 323 307
f 279 324 280
f 280 324 282
f 280 282 281
f 282 324 283
f 283 324 325
f 283 325 326
f 283 326 327
f 283 327 328
f 283 328 329
f 283 329 284
f 284 329 286
f 284 286 285
f 286 329 330
f 286 330 331
f 286 331 332
f 286 332 287
f 287 332 333
f 287 333 297
f 287 297 296
f 287 296 288
f 289 295 291
f 289 291 290
f 291 334 292
f 291 295 334
f 292 334 335
f 292 335 293
f 293 335 336
f 293 336 337
f 293 337 338
f 294 339 306
f 295 305 334
f 297 333 340
f 297 340 341
f 297 341 298
f 298 341 340
f 298 340 342
f 298 342 343
f 298 343 344
f 298 344 345
f 298 345 299
f 299 345 300
f 300 345 344
f 300 344 346
f 300 346 347
f 300 347 301
f 301 347 348
f 301 348 302
f 302 348 347
f 302 347 349
f 302 349 350
f 302 350 303
f 303 350 351
f 303 351 352
f 303 352 353
f 303 353 354
f 303 354 304
f 304 354 355
f 304 355 305
f 305 355 334
f 306 339 356
f 307 323 357
f 307 357 310
f 309 316 325
f 309 325 324
f 310 357 311
f 311 358 359
f 311 359 312
f 311 357 358
f 312 359 360
f 312 360 361
f 312 361 362
f 312 362 313
f 313 362 314
f 314 325 315
f 314 362 363
f 314 363 369
f 314 369 327
f 314 327 325
f 315 325 316
f 317 364 318
f 318 364 365
f 318 365 319
f 319 365 366
f 319 366 367
f 319 367 320
f 320 367 368
f 320 368 321
f 321 357 323
f 321 323 322
f 321 368 358
f 321 358 357
f 325 327 326
f 327 369 370
f 327 370 328
f 328 370 329
f 329 370 371
f 329 371 372
f 329 372 373
f 329 373 330
f 330 373 374
f 330 374 375
f 330 375 331
f 331 342 333
f 331 333 332
f 331 375 342
f 333 342 340
f 334 355 335
f 335 355 336
f 336 355 354
f 336 354 337
f 337 354 353
f 337 353 338
f 338 352 376
f 338 376 377
f 338 377 378
f 338 378 379
f 338 379 380
f 338 353 352
f 339 381 382
f 339 382 383
f 339 383 356
f 342 375 384
f 342 384 343
f 343 384 346
f 343 346 344
f 346 384 385
f 346 385 386
f 346 386 387
f 346 387 388
f 346 388 347
f 347 388 389
f 347 389 390
f 347 390 391
f 347 391 349
f 349 391 350
f 350 391 378
f 350 378 351
f 351 378 352
f 352 378 377
f 352 377 376
f 358 368 392
f 358 392 359
f 359 392 393
f 359 393 394
f 359 394 395
f 359 395 360
f 360 395 396
f 360 396 397
f 360 397 398
f 360 398 361
f 361 398 399
f 361 399 362
f 362 399 363
f 363 399 400
f 363 400 403
f 363 403 369
f 364 401 366
f 364 366 365
f 366 401 367
f 367 401 402
f 367 402 368
f 368 402 392
f 369 403 370
f 370 403 404
f 370 404 371
f 371 404 405
f 371 405 372
f 372 405 406
f 372 406 407
f 372 407 373
f 373 407 408
f 373 408 374
f 374 408 409
f 374 409 410
f 374 410 411
f 374 411 375
f 375 411 384
f 378 391 390
f 378 390 387
f 378 387 412
f 378 412 413
f 378 413 414
f 378 414 415
f 378 415 416
f 378 416 379
f 379 416 380
f 381 417 382
f 382 417 418
f 382 418 419
f 384 411 385
f 385 411 420
f 385 420 421
f 385 421 386
f 386 421 422
f 386 422 387
f 387 422 412
f 387 390 389
f 387 389 388
f 392 402 423
f 392 423 393
f 393 423 424
f 393 424 394
f 394 424 395
f 395 424 425
f 395 425 426
f 395 426 427
f 395 427 397
f 395 397 396
f 397 427 428
f 397 428 429
f 397 429 430
f 397 430 399
f 397 399 398
f 399 430 431
f 399 431 400
f 400 431 432
f 400 432 403
f 401 433 434
f 401 434 402
f 402 434 435
f 402 435 423
f 403 432 404
f 404 432 436
f 404 436 405
f 405 436 437
f 405 437 406
f 406 438 439
f 406 439 407
f 406 437 438
f 407 439 440
f 407 440 441
f 407 441 442
f 407 442 409
f 407 409 408
f 409 442 410
f 410 442 420
f 410 420 411
f 412 422 443
f 412 443 444
f 412 444 413
f 413 444 445
f 413 445 446
f 413 446 447
f 413 447 448
f 413 448 449
f 413 449 414
f 414 449 448
f 414 448 415
f 415 450 416
f 415 448 450
f 418 451 452
f 418 452 419
f 420 442 453
f 420 453 421
f 421 453 454
f 421 454 422
f 422 454 455
f 422 455 443
f 423 456 457
f 423 457 458
f 423 458 459
f 423 459 425
f 423 425 424
f 423 435 456
f 425 459 460
f 425 460 426
f 426 459 461
f 426 461 462
f 426 462 463
f 426 463 464
f 426 464 427
f 426 460 459
f 427 465 466
f 427 466 428
f 427 464 465
f 428 467 429
f 428 466 467
f 429 431 430
f 429 467 431
f 431 468 432
f 431 467 511
f 431 511 468
f 432 468 469
f 432 469 436
f 433 470 434
f 434 470 471
f 434 471 456
f 434 456 435
f 436 469 472
f 436 472 437
f 437 472 438
f 438 472 439
f 439 473 474
f 439 474 475
f 439 475 476
f 439 476 477
f 439 477 440
f 439 472 478
f 439 478 473
f 440 477 441
f 441 479 480
f 441 480 442
f 441 477 481
f 441 481 482
f 441 482 479
f 442 480 479
f 442 479 453
f 443 455 444
f 444 455 445
f 445 455 483
f 445 483 484
f 445 484 446
f 446 485 447
f 446 484 486
f 446 486 487
f 446 487 488
f 446 488 485
f 447 485 448
f 448 485 489
f 448 489 490
f 448 490 450
f 451 491 492
f 451 492 493
f 451 493 452
f 453 479 494
f 453 494 495
f 453 495 496
f 453 496 454
f 454 496 455
f 455 496 497
f 455 497 483
f 456 471 457
f 457 471 498
f 457 498 499
f 457 499 458
f 458 499 500
f 458 500 501
f 458 501 459
f 459 501 502
f 459 502 503
f 459 503 504
f 459 504 505
f 459 505 461
f 461 505 506
f 461 506 462
f 462 506 463
f 463 507 465
f 463 465 464
f 463 506 507
f 465 507 508
f 465 508 466
f 466 508 509
f 466 509 510
f 466 510 467
f 467 510 514
f 467 514 511
f 468 472 469
f 468 511 472
f 470 512 471
f 471 512 498
f 472 511 513
f 472 513 478
f 473 514 515
f 473 515 516
f 473 516 474
f 473 478 514
f 474 516 517
f 474 517 518
f 474 518 475
f 475 518 519
f 475 519 476
f 476 519 481
f 476 481 477
f 478 513 514
f 479 520 494
f 479 482 521
f 479 521 522
f 479 522 520
f 481 523 524
f 481 524 482
f 481 519 523
f 482 524 521
f 483 497 525
f 483 525 484
f 484 525 486
f 485 526 489
f 485 488 527
f 485 527 526
f 486 528 529
f 486 529 487
f 486 525 528
f 487 529 530
f 487 530 531
f 487 531 488
f 488 531 532
f 488 532 533
f 491 534 492
f 492 535 536
f 492 536 537
f 492 537 538
f 492 534 535
f 494 520 495
f 495 520 496
f 496 520 525
f 496 525 497
f 498 512 539
f 498 539 540
f 498 540 541
f 498 541 500
f 498 500 499
f 500 541 542
f 500 542 543
f 500 543 501
f 501 543 502
f 502 543 544
f 502 544 545
f 502 545 546
f 502 546 503
f 503 546 504
f 504 546 547
f 504 547 548
f 504 548 549
f 504 549 505
f 505 549 550
f 505 550 551
f 505 551 506
f 506 552 507
f 506 551 600
f 506 600 552
f 507 552 553
f 507 553 508
f 508 553 554
f 508 554 509
f 509 554 555
f 509 555 557
f 509 557 515
f 509 515 514
f 509 514 510
f 511 514 513
f 512 556 539
f 515 557 558
f 515 558 516
f 516 558 559
f 516 559 517
f 517 559 560
f 517 560 561
f 517 561 523
f 517 523 518
f 518 523 519
f 520 522 562
f 520 562 563
f 520 563 525
f 521 524 564
f 521 564 565
f 521 565 566
f 521 566 567
f 521 567 568
f 521 568 522
f 522 568 562
f 523 561 569
f 523 569 570
f 523 570 524
f 524 570 571
f 524 571 564
f 525 563 572
f 525 572 573
f 525 573 528
f 528 573 529
f 529 574 575
f 529 575 531
f 529 531 530
f 529 573 574
f 531 575 576
f 531 576 577
f 531 577 578
f 531 578 532
f 532 578 533
f 534 579 535
f 534 580 581
f 534 581 582
f 534 582 583
f 534 583 579
f 535 579 584
f 535 584 536
f 536 584 585
f 536 585 537
f 537 585 586
f 537 586 587
f 537 587 538
f 539 556 540
f 541 588 542
f 542 588 589
f 542 589 590
f 542 590 543
f 543 590 544
f 544 590 591
f 544 591 545
f 545 591 547
f 545 547 546
f 547 591 592
f 547 592 548
f 548 592 549
f 549 592 593
f 549 593 594
f 549 594 595
f 549 595 596
f 549 596 597
f 549 597 550
f 550 597 598
f 550 598 551
f 551 598 599
f 551 599 600
f 552 600 553
f 553 600 601
f 553 601 602
f 553 602 603
f 553 603 554
f 554 603 604
f 554 604 555
f 555 604 605
f 555 605 606
f 555 606 557
f 557 606 558
f 558 606 607
f 558 607 559
f 559 607 608
f 559 608 609
f 559 609 560
f 560 609 569
f 560 569 561
f 562 568 567
f 562 567 610
f 562 610 563
f 563 610 572
f 564 571 611
f 564 611 612
f 564 612 565
f 565 612 613
f 565 613 566
f 566 613 614
f 566 614 615
f 566 615 610
f 566 610 567
f 569 609 616
f 569 616 570
f 570 616 571
f 571 617 618
f 571 618 619
f 571 619 611
f 571 616 617
f 572 610 573
f 573 610 615
f 573 615 620
f 573 620 621
f 573 621 574
f 574 621 622
f 574 622 575
f 575 622 623
f 575 623 624
f 575 624 576
f 576 624 577
f 577 624 625
f 577 625 578
f 578 625 626
f 579 583 582
f 579 582 584
f 580 627 581
f 581 627 628
f 581 628 629
f 581 629 630
f 581 630 631
f 581 631 632
f 581 632 582
f 582 632 633
f 582 633 634
f 582 634 635
f 582 635 636
f 582 636 637
f 582 637 584
f 584 637 638
f 584 638 639
f 584 639 640
f 584 640 641
f 584 641 642
f 584 642 585
f 585 642 586
f 586 643 587
f 586 642 644
f 586 644 645
f 586 645 646
f 586 646 647
f 586 647 648
f 586 648 643
f 587 643 649
f 587 649 650
f 590 651 591
f 591 651 652
f 591 652 593
f 591 593 592
f 593 653 595
f 593 595 594
f 593 652 654
f 593 654 655
f 593 655 653
f 595 656 596
f 595 653 657
f 595 657 656
f 596 658 598
f 596 598 597
f 596 656 659
f 596 659 658
f 598 658 660
f 598 660 599
f 599 601 600
f 599 660 601
f 601 660 661
f 601 661 602
f 602 662 603
f 602 661 663
f 602 663 662
f 603 662 604
f 604 662 663
f 604 663 664
f 604 664 665
f 604 665 666
f 604 666 667
f 604 667 606
f 604 606 605
f 606 667 607
f 607 667 668
f 607 668 608
f 608 668 669
f 608 669 609
f 609 669 616
f 611 619 670
f 611 670 612
f 612 670 613
f 613 670 614
f 614 670 671
f 614 671 620
f 614 620 615
f 616 669 617
f 617 669 672
f 617 672 673
f 617 673 618
f 618 673 674
f 618 674 619
f 619 674 675
f 619 675 670
f 620 671 676
f 620 676 621
f 621 676 677
f 621 677 678
f 621 678 623
f 621 623 622
f 623 678 625
f 623 625 624
f 625 679 680
f 625 680 681
f 625 681 682
f 625 682 683
f 625 683 684
f 625 684 685
f 625 685 686
f 625 686 687
f 625 687 688
f 625 688 626
f 625 678 677
f 625 677 679
f 626 688 689
f 628 690 691
f 628 691 629
f 629 692 630
f 629 691 693
f 629 693 692
f 630 692 631
f 631 692 694
f 631 694 632
f 632 694 633
f 633 694 695
f 633 695 696
f 633 696 697
f 633 697 634
f 634 697 635
f 635 697 755
f 635 755 698
f 635 698 636
f 636 698 699
f 636 699 637
f 637 699 700
f 637 700 701
f 637 701 638
f 638 701 639
f 639 701 640
f 640 701 702
f 640 702 763
f 640 763 703
f 640 703 641
f 641 703 642
f 642 703 704
f 642 704 644
f 643 648 708
f 643 708 649
f 644 704 705
f 644 705 706
f 644 706 645
f 645 706 707
f 645 707 646
f 646 707 647
f 647 707 648
f 648 707 708
f 649 708 709
f 649 709 650
f 653 655 657
f 654 710 655
f 655 710 711
f 655 711 657
f 656 657 712
f 656 712 713
f 656 713 659
f 657 711 714
f 657 714 712
f 658 659 715
f 658 715 660
f 659 713 716
f 659 716 717
f 659 717 715
f 660 715 718
f 660 718 661
f 661 718 663
f 663 718 719
f 663 719 664
f 664 719 720
f 664 720 721
f 664 721 665
f 665 722 666
f 665 721 723
f 665 723 722
f 666 722 724
f 666 724 667
f 667 724 725
f 667 725 668
f 668 725 726
f 668 726 672
f 668 672 669
f 670 675 727
f 670 727 671
f 671 727 728
f 671 728 676
f 672 726 729
f 672 729 673
f 673 729 730
f 673 730 674
f 674 730 731
f 674 731 675
f 675 731 732
f 675 732 733
f 675 733 727
f 676 728 677
f 677 728 734
f 677 734 735
f 677 735 680
f 677 680 679
f 680 735 736
f 680 736 681
f 681 736 737
f 681 737 682
f 682 737 738
f 682 738 739
f 682 739 740
f 682 740 683
f 683 685 684
f 683 740 685
f 685 687 686
f 687 689 688
f 690 741 742
f 690 742 691
f 691 742 743
f 691 743 744
f 691 744 693
f 692 693 744
f 692 744 745
f 692 745 746
f 692 746 694
f 694 746 747
f 694 747 748
f 694 748 749
f 694 749 750
f 694 750 695
f 695 750 751
f 695 751 752
f 695 752 753
f 695 753 696
f 696 753 697
f 697 753 754
f 697 754 755
f 698 755 756
f 698 756 757
f 698 757 758
f 698 758 699
f 699 758 700
f 700 758 759
f 700 759 760
f 700 760 701
f 701 760 761
f 701 761 702
f 702 761 762
f 702 762 763
f 703 763 764
f 703 764 705
f 703 705 704
f 705 764 765
f 705 765 706
f 706 765 707
f 707 765 766
f 707 766 767
f 707 767 768
f 707 768 769
f 707 769 708
f 708 769 770
f 708 770 771
f 708 771 772
f 708 772 709
f 711 773 774
f 711 774 714
f 712 714 775
f 712 775 776
f 712 776 777
f 712 777 713
f 713 777 716
f 714 774 778
f 714 778 775
f 715 717 779
f 715 779 718
f 716 777 776
f 716 776 780
f 716 780 781
f 716 781 782
f 716 782 717
f 717 782 783
f 717 783 779
f 718 779 719
f 719 779 720
f 720 779 783
f 720 783 784
f 720 784 785
f 720 785 786
f 720 786 721
f 721 786 723
f 722 787 724
f 722 723 788
f 722 788 789
f 722 789 787
f 723 786 846
f 723 846 790
f 723 790 847
f 723 847 788
f 724 787 791
f 724 791 725
f 725 791 792
f 725 792 726
f 726 792 729
f 727 733 732
f 727 732 793
f 727 793 728
f 728 793 734
f 729 794 730
f 729 792 794
f 730 794 795
f 730 795 796
f 730 796 731
f 731 796 797
f 731 797 732
f 732 797 798
f 732 798 793
f 734 799 800
f 734 800 736
f 734 736 735
f 734 793 799
f 736 800 801
f 736 801 802
f 736 802 737
f 737 802 738
f 738 803 804
f 738 804 805
f 738 805 739
f 738 802 803
f 739 806 740
f 739 805 807
f 739 807 808
f 739 808 809
f 739 809 806
f 741 810 742
f 742 810 811
f 742 811 812
f 742 812 813
f 742 813 743
f 743 813 814
f 743 814 744
f 744 814 745
f 745 747 746
f 745 814 815
f 745 815 747
f 747 815 748
f 748 815 816
f 748 816 749
f 749 816 750
f 750 816 751
f 751 816 817
f 751 817 752
f 752 817 753
f 753 817 754
f 754 817 818
f 754 818 819
f 754 819 756
f 754 756 755
f 756 819 820
f 756 820 821
f 756 821 757
f 757 821 822
f 757 822 759
f 757 759 758
f 759 822 823
f 759 823 824
f 759 824 760
f 760 824 825
f 760 825 761
f 761 825 762
f 762 825 826
f 762 826 827
f 762 827 764
f 762 764 763
f 764 827 828
f 764 828 765
f 765 828 829
f 765 829 766
f 766 829 767
f 767 829 830
f 767 830 768
f 768 830 831
f 768 831 832
f 768 832 833
f 768 833 834
f 768 834 770
f 768 770 769
f 770 834 771
f 771 834 772
f 772 834 835
f 773 836 837
f 773 837 774
f 774 837 838
f 774 838 778
f 775 778 839
f 775 839 840
f 775 840 776
f 776 840 841
f 776 841 780
f 778 838 839
f 780 841 781
f 781 783 782
f 781 841 842
f 781 842 843
f 781 843 783
f 783 843 844
f 783 844 784
f 784 844 785
f 785 844 845
f 785 845 846
f 785 846 786
f 787 789 791
f 788 847 789
f 789 847 848
f 789 848 791
f 790 846 849
f 790 849 850
f 790 850 917
f 790 917 847
f 791 848 792
f 792 848 851
f 792 851 852
f 792 852 794
f 793 798 799
f 794 852 853
f 794 853 854
f 794 854 855
f 794 855 795
f 795 855 796
f 796 855 856
f 796 856 857
f 796 857 798
f 796 798 797
f 798 857 858
f 798 858 859
f 798 859 860
f 798 860 800
f 798 800 799
f 800 860 801
f 801 860 803
f 801 803 802
f 803 861 862
f 803 862 804
f 803 860 863
f 803 863 861
f 804 862 805
f 805 862 864
f 805 864 865
f 805 865 807
f 807 865 866
f 807 866 867
f 807 867 808
f 810 868 811
f 811 868 869
f 811 869 812
f 812 869 870
f 812 870 813
f 813 870 871
f 813 871 814
f 814 871 872
f 814 872 873
f 814 873 816
f 814 816 815
f 816 873 874
f 816 874 875
f 816 875 876
f 816 876 817
f 817 876 877
f 817 877 818
f 818 877 878
f 818 878 879
f 818 879 820
f 818 820 819
f 820 879 880
f 820 880 881
f 820 881 821
f 821 823 822
f 821 881 882
f 821 882 823
f 823 882 883
f 823 883 824
f 824 883 825
f 825 883 884
f 825 884 885
f 825 885 826
f 826 886 828
f 826 828 827
f 826 885 966
f 826 966 886
f 828 886 887
f 828 887 829
f 829 887 888
f 829 888 889
f 829 889 830
f 830 889 890
f 830 890 831
f 831 891 832
f 831 890 892
f 831 892 893
f 831 893 891
f 832 891 833
f 833 894 834
f 833 891 895
f 833 895 896
f 833 896 897
f 833 897 894
f 834 894 835
f 835 894 897
f 835 897 898
f 835 898 899
f 836 900 837
f 837 900 901
f 837 901 838
f 838 901 839
f 839 902 842
f 839 842 841
f 839 841 840
f 839 901 903
f 839 903 904
f 839 904 905
f 839 905 906
f 839 906 907
f 839 907 908
f 839 908 909
f 839 909 910
f 839 910 902
f 842 902 843
f 843 902 910
f 843 910 911
f 843 911 912
f 843 912 913
f 843 913 914
f 843 914 846
f 843 846 845
f 843 845 844
f 846 914 915
f 846 915 849
f 847 916 848
f 847 917 918
f 847 918 916
f 848 916 851
f 849 915 919
f 849 919 850
f 850 919 920
f 850 920 981
f 850 981 917
f 851 916 854
f 851 854 853
f 851 853 852
f 854 921 922
f 854 922 855
f 854 916 923
f 854 923 924
f 854 924 925
f 854 925 926
f 854 926 921
f 855 922 856
f 856 922 858
f 856 858 857
f 858 922 860
f 858 860 859
f 860 922 921
f 860 921 927
f 860 927 928
f 860 928 929
f 860 929 930
f 860 930 931
f 860 931 932
f 860 932 933
f 860 933 863
f 861 863 933
f 861 933 934
f 861 934 862
f 862 934 935
f 862 935 936
f 862 936 937
f 862 937 864
f 864 937 938
f 864 938 939
f 864 939 865
f 865 939 938
f 865 938 866
f 866 938 940
f 866 940 867
f 868 941 942
f 868 942 869
f 869 942 943
f 869 943 944
f 869 944 945
f 869 945 870
f 870 946 947
f 870 947 948
f 870 948 949
f 870 949 871
f 870 945 946
f 871 949 950
f 871 950 951
f 871 951 872
f 872 951 874
f 872 874 873
f 874 951 952
f 874 952 953
f 874 953 954
f 874 954 955
f 874 955 875
f 875 955 876
f 876 955 877
f 877 955 956
f 877 956 957
f 877 957 878
f 878 957 958
f 878 958 879
f 879 958 880
f 880 958 959
f 880 959 960
f 880 960 881
f 881 960 882
f 882 960 961
f 882 961 962
f 882 962 883
f 883 962 884
f 884 963 885
f 884 962 1013
f 884 1013 964
f 884 964 965
f 884 965 963
f 885 963 966
f 886 966 887
f 887 966 888
f 888 966 967
f 888 967 968
f 888 968 892
f 888 892 889
f 889 892 890
f 891 893 895
f 892 968 893
f 893 968 969
f 893 969 895
f 895 969 908
f 895 908 970
f 895 970 896
f 896 970 897
f 897 971 898
f 897 970 971
f 898 971 899
f 899 971 972
f 900 903 901
f 903 973 904
f 904 973 905
f 905 973 974
f 905 974 975
f 905 975 976
f 905 976 970
f 905 970 906
f 906 970 908
f 906 908 907
f 908 969 910
f 908 910 909
f 910 969 977
f 910 977 968
f 910 968 911
f 911 968 913
f 911 913 912
f 913 968 967
f 913 967 965
f 913 965 978
f 913 978 979
f 913 979 914
f 914 979 919
f 914 919 915
f 916 918 980
f 916 980 923
f 917 981 982
f 917 982 918
f 918 982 980
f 919 979 978
f 919 978 983
f 919 983 920
f 920 983 1015
f 920 1015 981
f 921 926 927
f 923 980 982
f 923 982 924
f 924 984 985
f 924 985 925
f 924 982 986
f 924 986 987
f 924 987 984
f 925 985 926
f 926 985 988
f 926 988 989
f 926 989 990
f 926 990 927
f 927 990 928
f 928 990 929
f 929 990 930
f 930 990 931
f 931 990 991
f 931 991 992
f 931 992 932
f 932 992 993
f 932 993 934
f 932 934 994
f 932 994 933
f 933 994 934
f 934 993 935
f 935 993 995
f 935 995 948
f 935 948 996
f 935 996 936
f 936 996 997
f 936 997 937
f 937 997 998
f 937 998 938
f 938 998 999
f 938 999 1000
f 938 1000 940
f 941 1001 942
f 942 1001 1002
f 942 1002 943
f 943 1002 944
f 944 1002 996
f 944 996 946
f 944 946 945
f 946 996 947
f 947 996 948
f 948 995 1003
f 948 1003 949
f 949 1003 950
f 950 1003 1004
f 950 1004 951
f 951 1004 952
f 952 1004 1003
f 952 1003 1005
f 952 1005 1006
f 952 1006 1007
f 952 1007 953
f 953 1007 954
f 954 1007 1008
f 954 1008 955
f 955 1008 1009
f 955 1009 956
f 956 1009 957
f 957 1009 985
f 957 985 984
f 957 984 958
f 958 984 959
f 959 984 987
f 959 987 960
f 960 987 1010
f 960 1010 1011
f 960 1011 1012
f 960 1012 961
f 961 1012 1013
f 961 1013 962
f 963 967 966
f 963 965 967
f 964 1013 983
f 964 983 965
f 965 983 978
f 968 977 969
f 970 976 971
f 971 1014 972
f 971 976 1014
f 975 1014 976
f 981 1015 1016
f 981 1016 982
f 982 1016 986
f 983 1013 1017
f 983 1017 1015
f 985 1009 1008
f 985 1008 989
f 985 989 988
f 986 1016 987
f 987 1016 1010
f 989 1008 1006
f 989 1006 990
f 990 1006 991
f 991 1006 1005
f 991 1005 1003
f 991 1003 995
f 991 995 992
f 992 995 993
f 996 1002 1018
f 996 1018 997
f 997 1018 1019
f 997 1019 998
f 998 1019 1020
f 998 1020 999
f 1001 1018 1002
f 1006 1008 1007
f 1010 1016 1017
f 1010 1017 1011
f 1011 1017 1012
f 1012 1017 1013
f 1015 1017 1016

