# https://github.com/mikedh/trimesh
v 0.00453189 -0.00951599 0.00513732
v 0.00453349 -0.00941404 0.00513732
v 0.00644188 -0.00941404 0.00233366
v 0.00644348 -0.00967184 0.00233366
v 0.00453349 -0.00967184 0.00513732
v 0.00488127 -0.00782704 0.00913721
v 0.00488127 -0.00760943 0.00914188
v 0.00488127 -0.00653902 0.00914188
v 0.00488127 -0.00632043 0.00913388
v 0.00488127 -0.00628024 0.00913055
v 0.00461984 -0.00917878 0.00513732
v 0.00648346 -0.00920133 0.00233366
v 0.00488127 -0.00606949 0.00907590
v 0.00488127 -0.00605282 0.00907123
v 0.00488127 -0.00603910 0.00906457
v 0.00488127 -0.00598617 0.00895261
v 0.00488127 -0.00598617 0.00889796
v 0.00488127 -0.00605380 0.00871270
v 0.00645787 -0.00979927 0.00233366
v 0.00648026 -0.00991788 0.00233366
v 0.00457187 -0.00981398 0.00513732
v 0.00488127 -0.00904449 0.00802095
v 0.00488127 -0.00892785 0.00818689
v 0.00488127 -0.00882590 0.00833083
v 0.00488127 -0.00872396 0.00846079
v 0.00488127 -0.00858084 0.00861940
v 0.00488127 -0.00847694 0.00873202
v 0.00488127 -0.00835147 0.00886664
v 0.00488127 -0.00826325 0.00895994
v 0.00488127 -0.00822502 0.00899926
v 0.00488127 -0.00810837 0.00907257
v 0.00488127 -0.00808583 0.00907923
v 0.00488127 -0.00786919 0.00913055
v 0.00535777 -0.00760943 0.00912588
v 0.00561601 -0.00735065 0.00913388
v 0.00587344 -0.00709383 0.00913988
v 0.00509953 -0.00760943 0.00914188
v 0.00819518 -0.00064292 0.00914188
v 0.00793694 -0.00064292 0.00913588
v 0.00776025 -0.00064292 0.00907990
v 0.00775945 -0.00064292 0.00870137
v 0.00776025 -0.00064292 0.00869937
v 0.01086788 -0.00005380 0.00330264
v 0.00654902 -0.00908468 0.00233366
v 0.00775785 -0.00064292 0.00907857
v 0.00770988 -0.00064292 0.00889863
v 0.00664496 -0.01002081 0.00233366
v 0.00650425 -0.01006786 0.00249693
v 0.00469739 -0.01006786 0.00513732
v 0.00468620 -0.01005511 0.00513732
v 0.00460385 -0.00992964 0.00513732
v 0.00488127 -0.00912095 0.00790499
v 0.00497162 -0.00902783 0.00799562
v 0.00503398 -0.00879551 0.00828752
v 0.00520587 -0.00875826 0.00823887
v 0.00504837 -0.00855242 0.00855609
v 0.00509953 -0.00829069 0.00880866
v 0.00523225 -0.00825541 0.00877068
v 0.00490925 -0.00821718 0.00899193
v 0.00522026 -0.00798878 0.00902259
v 0.00504837 -0.00804466 0.00905991
v 0.00512032 -0.00788782 0.00909256
v 0.00535777 -0.00781430 0.00906857
v 0.00560801 -0.00760845 0.00907790
v 0.00588064 -0.00736143 0.00908923
v 0.00615327 -0.00711539 0.00909456
v 0.00664735 -0.00657823 0.00911255
v 0.00613168 -0.00683603 0.00914188
v 0.00897148 -0.00064292 0.00914188
v 0.01022749 -0.00005380 0.00554117
v 0.01269953 -0.00005380 0.00330264
v 0.01056168 -0.00430115 0.00233366
v 0.00689760 -0.01002081 0.00233366
v 0.00664496 -0.01005021 0.00242762
v 0.00655781 -0.01006786 0.00249693
v 0.00481411 -0.01006786 0.00513732
v 0.00488127 -0.00995023 0.00580374
v 0.00488127 -0.00989435 0.00606232
v 0.00488127 -0.00982868 0.00629757
v 0.00488127 -0.00980515 0.00637287
v 0.00488127 -0.00974340 0.00656547
v 0.00488127 -0.00965028 0.00683604
v 0.00488127 -0.00957382 0.00703263
v 0.00488127 -0.00951500 0.00716125
v 0.00488127 -0.00942580 0.00735252
v 0.00488127 -0.00940914 0.00738717
v 0.00488127 -0.00931700 0.00757577
v 0.00488127 -0.00925916 0.00768840
v 0.00535777 -0.00881218 0.00805760
v 0.00489167 -0.00925720 0.00768507
v 0.00507475 -0.00907292 0.00785767
v 0.00535777 -0.00871219 0.00818622
v 0.00552167 -0.00853281 0.00827752
v 0.00553686 -0.00828579 0.00854676
v 0.00522026 -0.00850733 0.00850677
v 0.00550248 -0.00877787 0.00800628
v 0.00512112 -0.00843479 0.00864139
v 0.00533379 -0.00832206 0.00863606
v 0.00540334 -0.00820149 0.00871869
v 0.00533379 -0.00811915 0.00883732
v 0.00512032 -0.00812896 0.00895261
v 0.00535777 -0.00794369 0.00898193
v 0.00551767 -0.00776137 0.00904458
v 0.00579989 -0.00752317 0.00905591
v 0.00608131 -0.00728301 0.00906390
v 0.00634355 -0.00704384 0.00906524
v 0.00684003 -0.00657823 0.00905591
v 0.00710547 -0.00627436 0.00906524
v 0.00692958 -0.00634493 0.00909523
v 0.00717982 -0.00607733 0.00909389
v 0.00742127 -0.00554604 0.00913321
v 0.00716303 -0.00580384 0.00913921
v 0.00690559 -0.00606164 0.00914188
v 0.00664735 -0.00632043 0.00914188
v 0.00922652 -0.00064586 0.00914054
v 0.00922652 -0.00064292 0.00914054
v 0.01188804 -0.00005380 0.00554117
v 0.00896829 -0.00193584 0.00914188
v 0.01269953 -0.00038806 0.00330264
v 0.01217506 -0.00430115 0.00233366
v 0.01269953 -0.00005380 0.00330464
v 0.00716383 -0.00996199 0.00233366
v 0.00716383 -0.00995415 0.00245162
v 0.00690559 -0.01001002 0.00245162
v 0.00654982 -0.01006590 0.00270952
v 0.00604374 -0.01006786 0.00368451
v 0.00502758 -0.01006786 0.00496005
v 0.00493404 -0.01005707 0.00513732
v 0.00488127 -0.01005903 0.00516197
v 0.00488127 -0.01004727 0.00523795
v 0.00488127 -0.00999532 0.00554650
v 0.00535777 -0.00991690 0.00554650
v 0.00509953 -0.00991102 0.00580374
v 0.00509953 -0.00996199 0.00554650
v 0.00510513 -0.00984240 0.00606898
v 0.00502278 -0.00981496 0.00623359
v 0.00491165 -0.00978751 0.00640553
v 0.00509953 -0.00968753 0.00657746
v 0.00509474 -0.00959048 0.00683937
v 0.00500599 -0.00955519 0.00698865
v 0.00538335 -0.00936797 0.00711860
v 0.00510353 -0.00934739 0.00736118
v 0.00519228 -0.00927289 0.00745382
v 0.00502038 -0.00930131 0.00751313
v 0.00535537 -0.00894451 0.00785767
v 0.00563440 -0.00897392 0.00761443
v 0.00510353 -0.00921897 0.00760310
v 0.00535537 -0.00910233 0.00761443
v 0.00596619 -0.00874846 0.00771039
v 0.00581428 -0.00855438 0.00804494
v 0.00598617 -0.00850144 0.00798363
v 0.00610610 -0.00831226 0.00811358
v 0.00600216 -0.00825344 0.00825353
v 0.00571035 -0.00822894 0.00848678
v 0.00579429 -0.00879453 0.00777170
v 0.00573273 -0.00902195 0.00747114
v 0.00552966 -0.00802897 0.00879933
v 0.00568876 -0.00769471 0.00898860
v 0.00597098 -0.00745456 0.00900526
v 0.00625240 -0.00721440 0.00902192
v 0.00651544 -0.00696150 0.00902459
v 0.00677767 -0.00670762 0.00902792
v 0.00664735 -0.00676937 0.00905591
v 0.00703191 -0.00644688 0.00902592
v 0.00735171 -0.00600185 0.00906257
v 0.00743086 -0.00580874 0.00908723
v 0.00767950 -0.00528824 0.00911988
v 0.00793774 -0.00477362 0.00913388
v 0.00767950 -0.00503142 0.00914188
v 0.00922652 -0.00090366 0.00913654
v 0.00943279 -0.00064292 0.00908390
v 0.00896829 -0.00219267 0.00914121
v 0.01219425 -0.00005380 0.00483143
v 0.00956151 -0.00064292 0.00897194
v 0.00967664 -0.00064292 0.00884065
v 0.00991809 -0.00064292 0.00856342
v 0.01015873 -0.00064292 0.00828552
v 0.01033462 -0.00064292 0.00807293
v 0.01039059 -0.00064292 0.00800295
v 0.01092145 -0.00064292 0.00724922
v 0.01102778 -0.00064292 0.00709328
v 0.01113811 -0.00064292 0.00692667
v 0.01121247 -0.00064292 0.00679539
v 0.01161381 -0.00064292 0.00607964
v 0.01168657 -0.00064292 0.00594836
v 0.01175852 -0.00064292 0.00580374
v 0.01188804 -0.00038806 0.00554117
v 0.00871085 -0.00296705 0.00914188
v 0.01269793 -0.00038806 0.00331064
v 0.01269633 -0.00052235 0.00330264
v 0.01202475 -0.00430115 0.00301941
v 0.01192961 -0.00437466 0.00333930
v 0.01194960 -0.00442662 0.00316736
v 0.01213668 -0.00440995 0.00233366
v 0.01269233 -0.00064586 0.00330264
v 0.01269153 -0.00065566 0.00330264
v 0.01266755 -0.00091934 0.00330264
v 0.01265955 -0.00099972 0.00330264
v 0.01263557 -0.00123988 0.00330264
v 0.01259079 -0.00167804 0.00330264
v 0.01255642 -0.00194075 0.00330264
v 0.01254043 -0.00203093 0.00330264
v 0.01249486 -0.00227795 0.00330264
v 0.01244609 -0.00252300 0.00330264
v 0.01243809 -0.00256123 0.00330264
v 0.01235175 -0.00296705 0.00330264
v 0.01228858 -0.00322583 0.00330264
v 0.01226780 -0.00330327 0.00330264
v 0.01219025 -0.00356891 0.00330264
v 0.01217905 -0.00360518 0.00330264
v 0.01269793 -0.00005380 0.00331064
v 0.00742286 -0.00989337 0.00233366
v 0.00742286 -0.00988357 0.00245162
v 0.00716383 -0.00993160 0.00270952
v 0.00667853 -0.01003845 0.00270952
v 0.00652183 -0.01005903 0.00284481
v 0.00629638 -0.01006590 0.00322600
v 0.00662337 -0.01002865 0.00294610
v 0.00576152 -0.01006295 0.00415100
v 0.00552646 -0.01006688 0.00443490
v 0.00527942 -0.01006786 0.00470081
v 0.00626440 -0.01005903 0.00336129
v 0.00664735 -0.00996885 0.00348391
v 0.00639072 -0.00996199 0.00399906
v 0.00613168 -0.01001198 0.00399906
v 0.00519867 -0.01005511 0.00487341
v 0.00535777 -0.01000512 0.00503069
v 0.00535777 -0.00996493 0.00528859
v 0.00509953 -0.01000610 0.00528859
v 0.00561601 -0.00991592 0.00528859
v 0.00563280 -0.00984828 0.00556316
v 0.00536976 -0.00984632 0.00581707
v 0.00555764 -0.00982084 0.00573977
v 0.00546410 -0.00979535 0.00591170
v 0.00519547 -0.00979241 0.00616028
v 0.00510513 -0.00976790 0.00631956
v 0.00535777 -0.00970223 0.00631956
v 0.00537136 -0.00960519 0.00659279
v 0.00529381 -0.00956598 0.00675607
v 0.00517709 -0.00952579 0.00692801
v 0.00561601 -0.00932190 0.00704063
v 0.00548569 -0.00928465 0.00722057
v 0.00538335 -0.00924544 0.00736118
v 0.00563440 -0.00912879 0.00737118
v 0.00614927 -0.00870533 0.00761842
v 0.00627239 -0.00852007 0.00774771
v 0.00613168 -0.00856712 0.00780102
v 0.00587744 -0.00885629 0.00761842
v 0.00607492 -0.00880924 0.00753845
v 0.00624761 -0.00876121 0.00746781
v 0.00629318 -0.00827599 0.00802028
v 0.00617565 -0.00818973 0.00819155
v 0.00628838 -0.00801721 0.00827352
v 0.00582308 -0.00805642 0.00856675
v 0.00587344 -0.00898862 0.00741516
v 0.00587344 -0.00906900 0.00728588
v 0.00613168 -0.00753591 0.00881999
v 0.00615327 -0.00736143 0.00896127
v 0.00626520 -0.00748298 0.00877268
v 0.00656661 -0.00777705 0.00828885
v 0.00673770 -0.00770353 0.00822421
v 0.00655062 -0.00750847 0.00853743
v 0.00672331 -0.00742809 0.00846878
v 0.00641310 -0.00711539 0.00897793
v 0.00663136 -0.00707913 0.00883532
v 0.00716942 -0.00709971 0.00838748
v 0.00705510 -0.00672820 0.00878734
v 0.00696875 -0.00657823 0.00897527
v 0.00736290 -0.00632043 0.00883065
v 0.00752360 -0.00589893 0.00900326
v 0.00752200 -0.00693307 0.00822887
v 0.00759715 -0.00676055 0.00829418
v 0.00758836 -0.00572641 0.00905457
v 0.00767710 -0.00553036 0.00907257
v 0.00795293 -0.00504318 0.00909056
v 0.00819518 -0.00451484 0.00910922
v 0.00819518 -0.00430115 0.00913321
v 0.00819518 -0.00425606 0.00913788
v 0.00793774 -0.00451484 0.00914188
v 0.00922652 -0.00116146 0.00912921
v 0.00942160 -0.00090366 0.00907990
v 0.00871085 -0.00322485 0.00913188
v 0.00896829 -0.00245145 0.00912988
v 0.01223342 -0.00038806 0.00474013
v 0.01223342 -0.00005380 0.00474013
v 0.00940881 -0.00116146 0.00907323
v 0.00955032 -0.00090366 0.00895661
v 0.00980456 -0.00064586 0.00869470
v 0.01004521 -0.00064586 0.00841680
v 0.01013475 -0.00109775 0.00826153
v 0.01011876 -0.00141926 0.00824287
v 0.01038499 -0.00076643 0.00799496
v 0.01061045 -0.00064586 0.00769106
v 0.01092145 -0.00064586 0.00724922
v 0.01102778 -0.00064586 0.00709328
v 0.01113811 -0.00064586 0.00692667
v 0.01112612 -0.00090366 0.00690535
v 0.01140115 -0.00090366 0.00641752
v 0.01167937 -0.00080662 0.00593969
v 0.01161381 -0.00064586 0.00607964
v 0.01172734 -0.00089778 0.00582307
v 0.01185526 -0.00090366 0.00554650
v 0.01187924 -0.00064292 0.00554184
v 0.01193681 -0.00055274 0.00542321
v 0.00845341 -0.00374045 0.00913721
v 0.01264756 -0.00038806 0.00348324
v 0.01264036 -0.00064586 0.00348324
v 0.01197039 -0.00430115 0.00326666
v 0.01191362 -0.00430115 0.00345925
v 0.01167138 -0.00411294 0.00437292
v 0.01167058 -0.00437074 0.00411102
v 0.01182328 -0.00451582 0.00348391
v 0.01168497 -0.00492359 0.00338128
v 0.01178970 -0.00477362 0.00322600
v 0.01189523 -0.00451386 0.00324200
v 0.01218305 -0.00358264 0.00331597
v 0.01220944 -0.00341011 0.00340794
v 0.01195679 -0.00420116 0.00342460
v 0.01191522 -0.00459914 0.00301141
v 0.01196479 -0.00451386 0.00294211
v 0.01210070 -0.00450798 0.00233366
v 0.01262038 -0.00090366 0.00348324
v 0.01259479 -0.00116244 0.00348324
v 0.01254202 -0.00167804 0.00348324
v 0.01249725 -0.00195643 0.00350657
v 0.01247567 -0.00219267 0.00343593
v 0.01245888 -0.00236421 0.00338061
v 0.01244049 -0.00253575 0.00331597
v 0.01230218 -0.00296705 0.00348324
v 0.01223582 -0.00322877 0.00348924
v 0.01264756 -0.00005380 0.00348324
v 0.00761874 -0.00982672 0.00233366
v 0.00760195 -0.00982084 0.00245162
v 0.00744125 -0.00984632 0.00271952
v 0.00716383 -0.00990122 0.00296743
v 0.00690559 -0.00994141 0.00322600
v 0.00690559 -0.00996591 0.00296743
v 0.00647786 -0.01005119 0.00301675
v 0.00664735 -0.00999630 0.00322600
v 0.00613168 -0.00997767 0.00425697
v 0.00587344 -0.00999140 0.00451487
v 0.00536257 -0.01004237 0.00478144
v 0.00587344 -0.00995415 0.00477278
v 0.00561601 -0.01000022 0.00477278
v 0.00642669 -0.01004041 0.00322600
v 0.00664735 -0.00993846 0.00374049
v 0.00664735 -0.00990220 0.00399906
v 0.00639072 -0.00992474 0.00425697
v 0.00613168 -0.00994141 0.00451487
v 0.00561601 -0.00996003 0.00503069
v 0.00561601 -0.00994239 0.00513732
v 0.00587344 -0.00990906 0.00503069
v 0.00587904 -0.00988455 0.00513732
v 0.00588544 -0.00984534 0.00529926
v 0.00580709 -0.00981986 0.00548786
v 0.00572954 -0.00979731 0.00565979
v 0.00587344 -0.00971595 0.00580374
v 0.00563280 -0.00977771 0.00581707
v 0.00561601 -0.00971007 0.00606165
v 0.00536976 -0.00977379 0.00606898
v 0.00587344 -0.00963557 0.00606165
v 0.00563599 -0.00961205 0.00634022
v 0.00556324 -0.00957088 0.00651682
v 0.00546570 -0.00953559 0.00668809
v 0.00576471 -0.00929347 0.00698132
v 0.00561601 -0.00925818 0.00716925
v 0.00637153 -0.00857300 0.00759510
v 0.00656421 -0.00828677 0.00777837
v 0.00646507 -0.00821424 0.00795097
v 0.00601256 -0.00903273 0.00722990
v 0.00613008 -0.00889746 0.00734919
v 0.00634515 -0.00881512 0.00729587
v 0.00651704 -0.00876905 0.00722057
v 0.00657380 -0.00804171 0.00803961
v 0.00637633 -0.00811523 0.00811558
v 0.00646027 -0.00794859 0.00821154
v 0.00585985 -0.00919741 0.00707729
v 0.00665535 -0.00787312 0.00813224
v 0.00692238 -0.00762512 0.00814024
v 0.00700233 -0.00744867 0.00822754
v 0.00683044 -0.00753101 0.00829618
v 0.00684163 -0.00779764 0.00805227
v 0.00726376 -0.00719479 0.00823087
v 0.00735091 -0.00702423 0.00830284
v 0.00781702 -0.00620182 0.00851943
v 0.00808485 -0.00621456 0.00827152
v 0.00779063 -0.00590873 0.00875335
v 0.00768989 -0.00581757 0.00890663
v 0.00776105 -0.00560584 0.00898193
v 0.00769149 -0.00684975 0.00813757
v 0.00776825 -0.00665959 0.00821754
v 0.00744365 -0.00711638 0.00814423
v 0.00753719 -0.00720852 0.00798296
v 0.00761394 -0.00703796 0.00805760
v 0.00801369 -0.00638708 0.00820555
v 0.00784180 -0.00648805 0.00828285
v 0.00782021 -0.00543430 0.00903725
v 0.00810403 -0.00496574 0.00905657
v 0.00786898 -0.00528824 0.00906257
v 0.00839825 -0.00430017 0.00908256
v 0.00845341 -0.00399825 0.00911322
v 0.00922652 -0.00141926 0.00911788
v 0.00890593 -0.00322485 0.00907523
v 0.00915697 -0.00245145 0.00907323
v 0.00918495 -0.00219267 0.00908456
v 0.01231897 -0.00038806 0.00451421
v 0.01225900 -0.00005380 0.00467415
v 0.01217426 -0.00064586 0.00486008
v 0.01222942 -0.00064586 0.00473080
v 0.00953833 -0.00116146 0.00894128
v 0.00939282 -0.00141926 0.00906124
v 0.00952154 -0.00141926 0.00892462
v 0.00986852 -0.00154081 0.00851077
v 0.01009797 -0.00167706 0.00821954
v 0.01020430 -0.00167706 0.00809092
v 0.01022269 -0.00141926 0.00811358
v 0.01090866 -0.00090366 0.00723190
v 0.01035221 -0.00141926 0.00794764
v 0.01088228 -0.00141926 0.00719524
v 0.01100380 -0.00090366 0.00709328
v 0.01097022 -0.00141926 0.00706596
v 0.01118608 -0.00116146 0.00675274
v 0.01109974 -0.00141926 0.00685870
v 0.01117249 -0.00141926 0.00673008
v 0.01154825 -0.00141926 0.00606232
v 0.01167058 -0.00097914 0.00592303
v 0.01171135 -0.00141926 0.00574910
v 0.01221903 -0.00090366 0.00470680
v 0.01193041 -0.00072526 0.00540988
v 0.01180649 -0.00141240 0.00554184
v 0.01244689 -0.00038806 0.00411902
v 0.01239572 -0.00064586 0.00425697
v 0.01192881 -0.00411098 0.00359654
v 0.01207752 -0.00348265 0.00374115
v 0.01192402 -0.00332189 0.00435626
v 0.01169856 -0.00394140 0.00444956
v 0.01164739 -0.00401492 0.00452687
v 0.01156904 -0.00425606 0.00451421
v 0.01164899 -0.00427272 0.00427429
v 0.01146830 -0.00451582 0.00451221
v 0.01143153 -0.00467756 0.00442424
v 0.01169936 -0.00444230 0.00393908
v 0.01155305 -0.00429919 0.00451421
v 0.01171855 -0.00477068 0.00347391
v 0.01148350 -0.00530294 0.00349591
v 0.01143952 -0.00546468 0.00341793
v 0.01156904 -0.00528824 0.00322600
v 0.01166898 -0.00514415 0.00306673
v 0.01218145 -0.00331699 0.00357988
v 0.01163140 -0.00528040 0.00297609
v 0.01193441 -0.00464521 0.00283948
v 0.01199117 -0.00477460 0.00233366
v 0.01237573 -0.00090366 0.00425697
v 0.01237893 -0.00167804 0.00399973
v 0.01246288 -0.00188487 0.00365252
v 0.01244848 -0.00205641 0.00360787
v 0.01243489 -0.00219267 0.00356521
v 0.01210630 -0.00270925 0.00425697
v 0.01217825 -0.00302978 0.00382845
v 0.01220624 -0.00314545 0.00365652
v 0.01244689 -0.00005380 0.00411902
v 0.00767790 -0.00980515 0.00233366
v 0.00774826 -0.00977869 0.00233366
v 0.00793694 -0.00969341 0.00245162
v 0.00757237 -0.00980908 0.00264088
v 0.00716383 -0.00986887 0.00322600
v 0.00754119 -0.00979731 0.00281282
v 0.00738049 -0.00983260 0.00296743
v 0.00690559 -0.00990906 0.00348391
v 0.00613168 -0.00989828 0.00477278
v 0.00690559 -0.00986887 0.00374049
v 0.00690399 -0.00982770 0.00397507
v 0.00681765 -0.00981496 0.00419432
v 0.00666654 -0.00984730 0.00427096
v 0.00639072 -0.00987867 0.00451487
v 0.00613808 -0.00983946 0.00503402
v 0.00609251 -0.00982770 0.00513732
v 0.00622122 -0.00979045 0.00513732
v 0.00613168 -0.00970811 0.00554650
v 0.00615567 -0.00961597 0.00582840
v 0.00606612 -0.00956892 0.00606165
v 0.00600296 -0.00954343 0.00619094
v 0.00587344 -0.00956696 0.00624892
v 0.00573513 -0.00953951 0.00643951
v 0.00563599 -0.00951206 0.00659279
v 0.00585985 -0.00932484 0.00682538
v 0.00630037 -0.00930131 0.00648417
v 0.00620523 -0.00926112 0.00665677
v 0.00593660 -0.00925524 0.00690468
v 0.00663936 -0.00837597 0.00760110
v 0.00700553 -0.00823090 0.00745315
v 0.00673690 -0.00822208 0.00770239
v 0.00665535 -0.00813190 0.00787367
v 0.00674649 -0.00796918 0.00796830
v 0.00611169 -0.00906998 0.00707795
v 0.00654822 -0.00904351 0.00673274
v 0.00664735 -0.00881218 0.00703263
v 0.00678407 -0.00877493 0.00697132
v 0.00698154 -0.00847302 0.00717325
v 0.00612449 -0.00920721 0.00682538
v 0.00710387 -0.00754670 0.00805560
v 0.00736610 -0.00729184 0.00805893
v 0.00701432 -0.00771824 0.00797629
v 0.00834068 -0.00621554 0.00801428
v 0.00826713 -0.00606164 0.00819755
v 0.00831590 -0.00592245 0.00824620
v 0.00805446 -0.00591559 0.00850011
v 0.00810403 -0.00649491 0.00803361
v 0.00818078 -0.00630082 0.00810958
v 0.00802328 -0.00561270 0.00872869
v 0.00813521 -0.00528824 0.00883532
v 0.00785939 -0.00676643 0.00804560
v 0.00793694 -0.00657725 0.00812557
v 0.00779143 -0.00720264 0.00772039
v 0.00770349 -0.00712030 0.00789099
v 0.00778663 -0.00693895 0.00797163
v 0.00727576 -0.00746436 0.00797963
v 0.00727576 -0.00772216 0.00772239
v 0.00736450 -0.00780842 0.00755045
v 0.00753559 -0.00772412 0.00746515
v 0.00762274 -0.00755160 0.00755178
v 0.00779303 -0.00772314 0.00720657
v 0.00779383 -0.00746436 0.00746515
v 0.00804887 -0.00745946 0.00720324
v 0.00804967 -0.00513729 0.00901326
v 0.00827672 -0.00481675 0.00897993
v 0.00832389 -0.00464521 0.00902725
v 0.00835907 -0.00451484 0.00905324
v 0.00845661 -0.00423841 0.00907457
v 0.00867247 -0.00374045 0.00908056
v 0.00861971 -0.00399825 0.00905724
v 0.00886995 -0.00342678 0.00905324
v 0.00911939 -0.00270827 0.00904591
v 0.00928489 -0.00245145 0.00895061
v 0.00931367 -0.00219267 0.00898527
v 0.00935684 -0.00181430 0.00902925
v 0.00937043 -0.00167706 0.00904191
v 0.01240291 -0.00038806 0.00425697
v 0.01231897 -0.00005380 0.00451421
v 0.01231097 -0.00064586 0.00451421
v 0.00951674 -0.00167804 0.00887930
v 0.00962067 -0.00159276 0.00878001
v 0.00970942 -0.00167804 0.00866072
v 0.00994287 -0.00193584 0.00833683
v 0.00989010 -0.00245145 0.00827552
v 0.01007159 -0.00193584 0.00818822
v 0.01033222 -0.00167706 0.00792098
v 0.01017792 -0.00193584 0.00805893
v 0.01042496 -0.00167706 0.00779169
v 0.01065202 -0.00159570 0.00749114
v 0.01086549 -0.00167706 0.00717125
v 0.01095423 -0.00167706 0.00704263
v 0.01109414 -0.00167020 0.00681471
v 0.01116370 -0.00157904 0.00671408
v 0.01151947 -0.00167706 0.00606232
v 0.01164819 -0.00141926 0.00587838
v 0.01169776 -0.00167706 0.00572177
v 0.01229018 -0.00090366 0.00451421
v 0.01214628 -0.00142514 0.00475412
v 0.01219664 -0.00134182 0.00465549
v 0.01177771 -0.00167804 0.00554184
v 0.01193281 -0.00179763 0.00515731
v 0.01211270 -0.00167804 0.00477278
v 0.01195040 -0.00315035 0.00443424
v 0.01189603 -0.00323171 0.00451821
v 0.01166738 -0.00384338 0.00462150
v 0.01155305 -0.00399825 0.00477278
v 0.01146750 -0.00425017 0.00477078
v 0.01153626 -0.00430115 0.00455752
v 0.01143632 -0.00443054 0.00468415
v 0.01140035 -0.00460306 0.00459618
v 0.01118688 -0.00522159 0.00445823
v 0.01122046 -0.00530000 0.00426430
v 0.01140994 -0.00539901 0.00358987
v 0.01114851 -0.00539313 0.00435560
v 0.01117889 -0.00545488 0.00418366
v 0.01137157 -0.00554800 0.00349591
v 0.01139875 -0.00563622 0.00327932
v 0.01145871 -0.00554800 0.00320668
v 0.01151547 -0.00554604 0.00296743
v 0.01164499 -0.00558427 0.00233366
v 0.01222463 -0.00167804 0.00448089
v 0.01229658 -0.00167804 0.00425697
v 0.01220624 -0.00193584 0.00442757
v 0.01219265 -0.00207210 0.00439092
v 0.01221743 -0.00217306 0.00425230
v 0.01217586 -0.00224364 0.00433627
v 0.01196799 -0.00295529 0.00451821
v 0.01205274 -0.00296705 0.00425697
v 0.01240291 -0.00005380 0.00425697
v 0.00793694 -0.00970615 0.00233366
v 0.00818798 -0.00959636 0.00233366
v 0.00816320 -0.00959244 0.00245162
v 0.00793694 -0.00966008 0.00270952
v 0.00766671 -0.00976300 0.00271952
v 0.00732613 -0.00981300 0.00322600
v 0.00729734 -0.00980221 0.00336462
v 0.00716783 -0.00983162 0.00346392
v 0.00767950 -0.00972379 0.00296743
v 0.00745484 -0.00976692 0.00322600
v 0.00638672 -0.00982868 0.00475679
v 0.00629798 -0.00981300 0.00494938
v 0.00707428 -0.00981398 0.00374049
v 0.00720300 -0.00976987 0.00374049
v 0.00713984 -0.00974634 0.00397507
v 0.00716383 -0.00968262 0.00425697
v 0.00690399 -0.00976987 0.00427096
v 0.00676408 -0.00979731 0.00436626
v 0.00658340 -0.00982084 0.00451487
v 0.00624361 -0.00978359 0.00513732
v 0.00638992 -0.00969929 0.00528859
v 0.00640911 -0.00961009 0.00556516
v 0.00658499 -0.00957088 0.00549186
v 0.00633555 -0.00957382 0.00575843
v 0.00625880 -0.00954245 0.00593036
v 0.00619484 -0.00951696 0.00606165
v 0.00638752 -0.00933464 0.00631689
v 0.00587344 -0.00942678 0.00657746
v 0.00647227 -0.00926505 0.00640020
v 0.00638752 -0.00921701 0.00657280
v 0.00727176 -0.00823678 0.00720124
v 0.00710467 -0.00805838 0.00754645
v 0.00684163 -0.00805054 0.00779636
v 0.00709907 -0.00830148 0.00728121
v 0.00701272 -0.00797604 0.00771839
v 0.00692798 -0.00788684 0.00788633
v 0.00637553 -0.00907978 0.00682538
v 0.00663936 -0.00908468 0.00656813
v 0.00671931 -0.00899548 0.00664744
v 0.00688481 -0.00880826 0.00681271
v 0.00703991 -0.00877297 0.00671208
v 0.00695676 -0.00871317 0.00688402
v 0.00707269 -0.00854065 0.00700131
v 0.00727656 -0.00797996 0.00746381
v 0.00857174 -0.00591951 0.00798496
v 0.00863010 -0.00574797 0.00804827
v 0.00827672 -0.00638708 0.00794431
v 0.00835427 -0.00648707 0.00777237
v 0.00859972 -0.00647334 0.00750113
v 0.00854615 -0.00562544 0.00822021
v 0.00860532 -0.00545390 0.00827752
v 0.00834468 -0.00544704 0.00853143
v 0.00826393 -0.00528824 0.00871270
v 0.00803208 -0.00666645 0.00795830
v 0.00831350 -0.00514219 0.00876001
v 0.00786578 -0.00703207 0.00779969
v 0.00736290 -0.00806426 0.00729254
v 0.00753559 -0.00797996 0.00720591
v 0.00787698 -0.00780450 0.00703463
v 0.00804887 -0.00772020 0.00694333
v 0.00787698 -0.00755062 0.00729387
v 0.00812482 -0.00754768 0.00703130
v 0.00837026 -0.00727713 0.00701797
v 0.00845421 -0.00709677 0.00709661
v 0.00853816 -0.00691543 0.00717592
v 0.00820877 -0.00505397 0.00891063
v 0.00909301 -0.00463933 0.00825086
v 0.00856614 -0.00430017 0.00897394
v 0.00854695 -0.00430017 0.00899260
v 0.00858933 -0.00414137 0.00903392
v 0.00883157 -0.00359832 0.00902125
v 0.00897868 -0.00350618 0.00890929
v 0.00912259 -0.00341404 0.00879733
v 0.00903464 -0.00322485 0.00896194
v 0.00909860 -0.00284060 0.00902858
v 0.00937443 -0.00264259 0.00879200
v 0.00940161 -0.00245145 0.00882199
v 0.00943119 -0.00219267 0.00885598
v 0.00980296 -0.00219267 0.00843546
v 0.00987331 -0.00259064 0.00825753
v 0.01003401 -0.00244655 0.00810492
v 0.01004521 -0.00219267 0.00815556
v 0.01015154 -0.00219267 0.00802628
v 0.01030744 -0.00193584 0.00788566
v 0.01072318 -0.00168000 0.00737118
v 0.01063763 -0.00176823 0.00747048
v 0.01084150 -0.00193584 0.00713793
v 0.01093184 -0.00193584 0.00700931
v 0.01103578 -0.00193584 0.00683537
v 0.01115171 -0.00175156 0.00669276
v 0.01142193 -0.00182704 0.00619827
v 0.01143233 -0.00167706 0.00621693
v 0.01163380 -0.00167706 0.00585039
v 0.01168577 -0.00185547 0.00569645
v 0.01218785 -0.00151336 0.00463416
v 0.01217985 -0.00167804 0.00461017
v 0.01197678 -0.00193584 0.00499870
v 0.01207512 -0.00193584 0.00477278
v 0.01192082 -0.00303273 0.00460617
v 0.01169456 -0.00367184 0.00468548
v 0.01144912 -0.00397277 0.00502069
v 0.01139075 -0.00404237 0.00510066
v 0.01142993 -0.00415901 0.00492806
v 0.01165619 -0.00354735 0.00485742
v 0.01139635 -0.00433251 0.00485675
v 0.01145871 -0.00430115 0.00474679
v 0.01117969 -0.00417666 0.00546187
v 0.01115410 -0.00430115 0.00540589
v 0.01111813 -0.00478734 0.00504068
v 0.01112372 -0.00505004 0.00478744
v 0.01115490 -0.00514709 0.00463017
v 0.01112372 -0.00530000 0.00453220
v 0.01099021 -0.00556663 0.00453353
v 0.01110294 -0.00554310 0.00426430
v 0.01116450 -0.00568426 0.00388377
v 0.01123245 -0.00581757 0.00348991
v 0.01142033 -0.00568033 0.00310738
v 0.01117889 -0.00596754 0.00340794
v 0.01091186 -0.00646746 0.00338328
v 0.01133959 -0.00578130 0.00320668
v 0.01157144 -0.00573131 0.00233366
v 0.01216147 -0.00193584 0.00455619
v 0.01213748 -0.00217306 0.00449155
v 0.01193921 -0.00286118 0.00465482
v 0.00827672 -0.00955225 0.00233366
v 0.00812722 -0.00957480 0.00270952
v 0.00767950 -0.00968262 0.00322600
v 0.00809284 -0.00955814 0.00290745
v 0.00795853 -0.00960519 0.00298342
v 0.00739888 -0.00975026 0.00346392
v 0.00725657 -0.00978849 0.00353722
v 0.00653063 -0.00980515 0.00466082
v 0.00646987 -0.00978555 0.00483276
v 0.00638672 -0.00976496 0.00503402
v 0.00742286 -0.00969243 0.00374049
v 0.00742286 -0.00963753 0.00399906
v 0.00718541 -0.00960911 0.00453353
v 0.00690559 -0.00971693 0.00451487
v 0.00662977 -0.00975124 0.00475679
v 0.00638752 -0.00973850 0.00513732
v 0.00664735 -0.00968066 0.00503069
v 0.00665375 -0.00964930 0.00513732
v 0.00666095 -0.00960127 0.00529926
v 0.00675609 -0.00953461 0.00539189
v 0.00666095 -0.00951010 0.00556516
v 0.00650744 -0.00953853 0.00566379
v 0.00638992 -0.00943561 0.00606165
v 0.00655142 -0.00930033 0.00622892
v 0.00672491 -0.00925916 0.00613229
v 0.00664256 -0.00921505 0.00631689
v 0.00704870 -0.00929249 0.00569312
v 0.00735491 -0.00830246 0.00702997
v 0.00752680 -0.00823286 0.00693734
v 0.00744525 -0.00814856 0.00711794
v 0.00680086 -0.00904155 0.00647550
v 0.00689440 -0.00893667 0.00656813
v 0.00709987 -0.00880924 0.00657746
v 0.00736450 -0.00881316 0.00627157
v 0.00728855 -0.00876611 0.00644351
v 0.00743885 -0.00872004 0.00634222
v 0.00732213 -0.00853477 0.00673941
v 0.00724378 -0.00847400 0.00691134
v 0.00888994 -0.00600773 0.00753979
v 0.00896829 -0.00580678 0.00761043
v 0.00887554 -0.00572935 0.00778170
v 0.00880199 -0.00562152 0.00795364
v 0.00885876 -0.00544900 0.00801895
v 0.00870365 -0.00553722 0.00811958
v 0.00861091 -0.00674291 0.00725589
v 0.00885636 -0.00673016 0.00698665
v 0.00889873 -0.00655764 0.00708062
v 0.00907542 -0.00616065 0.00719724
v 0.00878360 -0.00528824 0.00819755
v 0.00882598 -0.00513827 0.00824153
v 0.00761714 -0.00806034 0.00703463
v 0.00778903 -0.00797702 0.00694267
v 0.00786418 -0.00805054 0.00677073
v 0.00803528 -0.00796526 0.00666943
v 0.00810323 -0.00803681 0.00649749
v 0.00811523 -0.00779274 0.00677140
v 0.00828792 -0.00769569 0.00665744
v 0.00829751 -0.00744965 0.00692934
v 0.00861491 -0.00700561 0.00700398
v 0.00905623 -0.00477362 0.00821221
v 0.00917536 -0.00477362 0.00808292
v 0.00934485 -0.00462560 0.00798429
v 0.00924091 -0.00454620 0.00814090
v 0.00913698 -0.00446681 0.00829685
v 0.00888274 -0.00446975 0.00855809
v 0.00884117 -0.00413157 0.00877201
v 0.00874843 -0.00399825 0.00893062
v 0.00892511 -0.00374045 0.00886064
v 0.00906343 -0.00425606 0.00847745
v 0.00918575 -0.00425606 0.00834816
v 0.00905383 -0.00374045 0.00872403
v 0.00942480 -0.00374045 0.00832817
v 0.00955432 -0.00374045 0.00818889
v 0.00959109 -0.00355127 0.00823154
v 0.00937203 -0.00339835 0.00853076
v 0.00915457 -0.00322485 0.00883332
v 0.00928409 -0.00322485 0.00869137
v 0.00994687 -0.00268964 0.00813490
v 0.01011716 -0.00252791 0.00798096
v 0.00984693 -0.00276218 0.00822754
v 0.01013475 -0.00235636 0.00800495
v 0.01039938 -0.00193584 0.00775704
v 0.01020430 -0.00244655 0.00788366
v 0.01056807 -0.00245145 0.00737385
v 0.01062084 -0.00193584 0.00744715
v 0.01091346 -0.00212111 0.00698199
v 0.01064642 -0.00258770 0.00722523
v 0.01120847 -0.00193584 0.00653415
v 0.01089587 -0.00229265 0.00695400
v 0.01135877 -0.00245145 0.00608631
v 0.01145791 -0.00219267 0.00600367
v 0.01147310 -0.00192212 0.00607365
v 0.01162181 -0.00193879 0.00579041
v 0.01140115 -0.00275336 0.00589904
v 0.01145951 -0.00268376 0.00580974
v 0.01166738 -0.00202701 0.00565913
v 0.01163300 -0.00245243 0.00554184
v 0.01172894 -0.00193879 0.00556250
v 0.01202475 -0.00219267 0.00477278
v 0.01167058 -0.00307390 0.00514798
v 0.01179450 -0.00322485 0.00477278
v 0.01187445 -0.00295529 0.00475412
v 0.01120847 -0.00398747 0.00554184
v 0.01128842 -0.00373457 0.00554117
v 0.01113971 -0.00406785 0.00563380
v 0.01145391 -0.00320525 0.00554184
v 0.01110533 -0.00425998 0.00554717
v 0.01086948 -0.00479420 0.00556383
v 0.01092305 -0.00513631 0.00513732
v 0.01102458 -0.00528824 0.00477278
v 0.01093424 -0.00547645 0.00477278
v 0.01089747 -0.00566661 0.00463283
v 0.01093104 -0.00572739 0.00446089
v 0.01088307 -0.00589893 0.00433427
v 0.01061684 -0.00639884 0.00430895
v 0.01110054 -0.00605674 0.00348991
v 0.01093424 -0.00650667 0.00322600
v 0.01115410 -0.00617927 0.00307006
v 0.01142033 -0.00601165 0.00233366
v 0.01149149 -0.00582541 0.00246694
v 0.01152827 -0.00581463 0.00233366
v 0.01064722 -0.00645472 0.00413701
v 0.01082391 -0.00656254 0.00347458
v 0.01086069 -0.00663606 0.00322600
v 0.01165539 -0.00270925 0.00537057
v 0.01158103 -0.00270239 0.00554184
v 0.01169136 -0.00290235 0.00519396
v 0.00831030 -0.00953461 0.00233366
v 0.00825514 -0.00950520 0.00270952
v 0.00790016 -0.00958852 0.00322600
v 0.00767950 -0.00963753 0.00348391
v 0.00846700 -0.00934346 0.00296143
v 0.00856294 -0.00927485 0.00304340
v 0.00805926 -0.00953951 0.00307939
v 0.00784660 -0.00956304 0.00348391
v 0.00768510 -0.00958656 0.00372582
v 0.00759316 -0.00956402 0.00399906
v 0.00742286 -0.00958166 0.00423631
v 0.00733652 -0.00956402 0.00446023
v 0.00728615 -0.00953951 0.00463283
v 0.00710786 -0.00957480 0.00477278
v 0.00690559 -0.00965420 0.00477278
v 0.00685522 -0.00957284 0.00513732
v 0.00681925 -0.00956304 0.00521995
v 0.00690559 -0.00949638 0.00529926
v 0.00710387 -0.00931896 0.00554650
v 0.00664735 -0.00942384 0.00580374
v 0.00664256 -0.00932974 0.00605232
v 0.00697275 -0.00925426 0.00586372
v 0.00714624 -0.00919349 0.00578842
v 0.00714704 -0.00906704 0.00603966
v 0.00689440 -0.00907782 0.00630356
v 0.00728535 -0.00928171 0.00540722
v 0.00723258 -0.00925230 0.00554650
v 0.00742446 -0.00838480 0.00683870
v 0.00777464 -0.00822208 0.00666610
v 0.00760115 -0.00829560 0.00676606
v 0.00697275 -0.00899058 0.00637954
v 0.00729734 -0.00903077 0.00593903
v 0.00753559 -0.00876023 0.00617361
v 0.00756997 -0.00852693 0.00647084
v 0.00749402 -0.00846714 0.00664344
v 0.00741327 -0.00858476 0.00656547
v 0.00913458 -0.00598911 0.00726722
v 0.00911939 -0.00571072 0.00750913
v 0.00903385 -0.00528824 0.00791698
v 0.00907782 -0.00512650 0.00797230
v 0.00912579 -0.00495496 0.00802894
v 0.00890433 -0.00528824 0.00806893
v 0.00936084 -0.00568720 0.00723056
v 0.00915537 -0.00552350 0.00760043
v 0.00869886 -0.00682231 0.00708128
v 0.00878760 -0.00690268 0.00689535
v 0.00908421 -0.00694876 0.00643218
v 0.00908661 -0.00669291 0.00669209
v 0.00904424 -0.00659489 0.00685337
v 0.00908661 -0.00643609 0.00695133
v 0.00937843 -0.00596852 0.00699465
v 0.00794174 -0.00812994 0.00658146
v 0.00802009 -0.00820835 0.00638753
v 0.00817998 -0.00811131 0.00629956
v 0.00833908 -0.00801329 0.00621226
v 0.00827512 -0.00794075 0.00638420
v 0.00836067 -0.00752415 0.00675740
v 0.00857494 -0.00798878 0.00592437
v 0.00877721 -0.00715166 0.00662345
v 0.00869566 -0.00707913 0.00681738
v 0.00854216 -0.00717715 0.00691201
v 0.00930407 -0.00477362 0.00793364
v 0.00962867 -0.00518924 0.00724256
v 0.00960628 -0.00489223 0.00747381
v 0.00984853 -0.00485596 0.00719391
v 0.00958390 -0.00458149 0.00770239
v 0.00948476 -0.00451778 0.00786767
v 0.00938402 -0.00445308 0.00803161
v 0.00927769 -0.00430017 0.00822820
v 0.00934645 -0.00410804 0.00824487
v 0.00931447 -0.00425606 0.00820954
v 0.00938322 -0.00393552 0.00828418
v 0.00966624 -0.00374045 0.00805960
v 0.00942800 -0.00425606 0.00808092
v 0.00984293 -0.00348265 0.00795963
v 0.00969822 -0.00347285 0.00813690
v 0.00962067 -0.00337973 0.00826352
v 0.00964546 -0.00322485 0.00829018
v 0.01009237 -0.00270827 0.00794764
v 0.00992448 -0.00296705 0.00806160
v 0.01062484 -0.00276022 0.00719591
v 0.00981495 -0.00296705 0.00819088
v 0.01076635 -0.00245145 0.00709328
v 0.01070719 -0.00268768 0.00710328
v 0.01087908 -0.00245145 0.00692534
v 0.01095343 -0.00245145 0.00679605
v 0.01133879 -0.00268376 0.00603699
v 0.01141794 -0.00258182 0.00593370
v 0.01143153 -0.00245145 0.00595702
v 0.01117969 -0.00290628 0.00622492
v 0.01124045 -0.00298175 0.00608298
v 0.01137476 -0.00296705 0.00584773
v 0.01143872 -0.00296705 0.00571911
v 0.01120287 -0.00270827 0.00626558
v 0.01142113 -0.00310526 0.00568179
v 0.01151867 -0.00296705 0.00554650
v 0.01116769 -0.00389533 0.00569245
v 0.01092225 -0.00417666 0.00596768
v 0.01097182 -0.00425998 0.00581241
v 0.01108775 -0.00398845 0.00578842
v 0.01096382 -0.00430017 0.00579575
v 0.01093184 -0.00445602 0.00573244
v 0.01089427 -0.00462756 0.00566113
v 0.01064882 -0.00516963 0.00568645
v 0.01090546 -0.00517453 0.00513732
v 0.01090226 -0.00541861 0.00490340
v 0.01086309 -0.00560584 0.00477278
v 0.01046254 -0.00632631 0.00477745
v 0.01063043 -0.00616653 0.00460951
v 0.01058247 -0.00631553 0.00452020
v 0.01066321 -0.00622632 0.00443823
v 0.01041057 -0.00648707 0.00469414
v 0.01043696 -0.00657529 0.00449288
v 0.01062644 -0.00667919 0.00382379
v 0.01088627 -0.00667919 0.00303207
v 0.01129162 -0.00624495 0.00233366
v 0.01065842 -0.00672918 0.00365252
v 0.01069040 -0.00677623 0.00348391
v 0.01072158 -0.00685171 0.00322667
v 0.00845181 -0.00939542 0.00270952
v 0.00866848 -0.00933464 0.00233366
v 0.00859013 -0.00929151 0.00287146
v 0.00852457 -0.00925132 0.00322600
v 0.00829191 -0.00926603 0.00374049
v 0.00832150 -0.00928269 0.00360453
v 0.00877961 -0.00924740 0.00245162
v 0.00868926 -0.00920329 0.00296143
v 0.00885636 -0.00904057 0.00314203
v 0.00872524 -0.00911115 0.00322734
v 0.00781542 -0.00954735 0.00362919
v 0.00777544 -0.00952579 0.00380046
v 0.00772188 -0.00949932 0.00399906
v 0.00755478 -0.00954539 0.00413634
v 0.00750681 -0.00952187 0.00430828
v 0.00742286 -0.00950030 0.00453353
v 0.00780182 -0.00928171 0.00463216
v 0.00762913 -0.00932484 0.00477278
v 0.00757637 -0.00929837 0.00494139
v 0.00742846 -0.00934052 0.00502869
v 0.00738529 -0.00932484 0.00513732
v 0.00734531 -0.00931112 0.00523528
v 0.00716303 -0.00942972 0.00513732
v 0.00705350 -0.00955127 0.00492673
v 0.00693757 -0.00953559 0.00513732
v 0.00735011 -0.00906508 0.00580374
v 0.00748443 -0.00927681 0.00513732
v 0.00751880 -0.00926799 0.00511332
v 0.00750681 -0.00926505 0.00513732
v 0.00742766 -0.00923956 0.00530859
v 0.00743805 -0.00912193 0.00555983
v 0.00784660 -0.00828579 0.00649416
v 0.00766591 -0.00857006 0.00629890
v 0.00774266 -0.00845733 0.00637087
v 0.00760275 -0.00880630 0.00600167
v 0.00777464 -0.00874258 0.00588638
v 0.00768510 -0.00869945 0.00607698
v 0.00781462 -0.00851713 0.00619893
v 0.00940081 -0.00554604 0.00727988
v 0.00941760 -0.00578522 0.00708595
v 0.00960069 -0.00565387 0.00694667
v 0.00953913 -0.00555879 0.00709528
v 0.00884996 -0.00697914 0.00672341
v 0.00913858 -0.00727125 0.00599034
v 0.00931047 -0.00716441 0.00586572
v 0.00937363 -0.00699287 0.00596169
v 0.00942640 -0.00682819 0.00605299
v 0.00966624 -0.00626945 0.00627024
v 0.00937763 -0.00622436 0.00674074
v 0.00931767 -0.00614006 0.00691268
v 0.00943119 -0.00605674 0.00683004
v 0.00960788 -0.00592637 0.00670009
v 0.00956551 -0.00582541 0.00685070
v 0.00808405 -0.00827011 0.00621559
v 0.00880359 -0.00795545 0.00561914
v 0.00887714 -0.00778391 0.00573510
v 0.00881958 -0.00771628 0.00590571
v 0.00898428 -0.00737124 0.00608498
v 0.00826793 -0.00819757 0.00606165
v 0.00847660 -0.00814954 0.00583773
v 0.00854935 -0.00822404 0.00563180
v 0.00863250 -0.00805152 0.00575176
v 0.00958070 -0.00536078 0.00718258
v 0.00981335 -0.00505397 0.00710194
v 0.00991329 -0.00498339 0.00702197
v 0.00995566 -0.00477166 0.00710194
v 0.00988770 -0.00468344 0.00724589
v 0.00968703 -0.00450307 0.00761376
v 0.00954472 -0.00430115 0.00791298
v 0.00951834 -0.00430017 0.00794697
v 0.00959349 -0.00408353 0.00797163
v 0.00963027 -0.00391101 0.00801695
v 0.00941840 -0.00430017 0.00806959
v 0.00980855 -0.00376300 0.00786767
v 0.00990210 -0.00369144 0.00778170
v 0.01013715 -0.00363655 0.00749247
v 0.00993807 -0.00348265 0.00783101
v 0.00986612 -0.00333954 0.00798962
v 0.00979097 -0.00324250 0.00811625
v 0.00989250 -0.00316800 0.00802428
v 0.01006839 -0.00299156 0.00786300
v 0.01015474 -0.00292294 0.00777437
v 0.01038979 -0.00284942 0.00748514
v 0.01059526 -0.00296705 0.00715592
v 0.01068720 -0.00296705 0.00702664
v 0.01085030 -0.00270827 0.00687802
v 0.01092625 -0.00270827 0.00674874
v 0.01090866 -0.00286020 0.00671875
v 0.01115490 -0.00307782 0.00618227
v 0.01120767 -0.00322485 0.00601433
v 0.01133799 -0.00320427 0.00578242
v 0.01115091 -0.00358362 0.00591704
v 0.01112692 -0.00374045 0.00586905
v 0.01119248 -0.00374045 0.00573977
v 0.01094543 -0.00397277 0.00605699
v 0.01087108 -0.00404237 0.00613962
v 0.01059606 -0.00399825 0.00662611
v 0.01046254 -0.00400120 0.00684537
v 0.01064642 -0.00413255 0.00645284
v 0.01081512 -0.00430017 0.00605898
v 0.01067760 -0.00472265 0.00598701
v 0.01089667 -0.00430115 0.00592103
v 0.01095503 -0.00430115 0.00581241
v 0.01088627 -0.00434918 0.00590371
v 0.01064003 -0.00489419 0.00592637
v 0.01067920 -0.00503142 0.00574243
v 0.01043056 -0.00524119 0.00600367
v 0.01038339 -0.00541371 0.00592836
v 0.01043216 -0.00549899 0.00575643
v 0.01038419 -0.00567151 0.00567179
v 0.01060325 -0.00534215 0.00559382
v 0.01060965 -0.00503142 0.00587105
v 0.01064562 -0.00542057 0.00542188
v 0.01063523 -0.00569406 0.00513732
v 0.01037380 -0.00616751 0.00513732
v 0.01036660 -0.00641747 0.00486608
v 0.01011716 -0.00617143 0.00565313
v 0.01016273 -0.00651255 0.00513732
v 0.01030744 -0.00657529 0.00477745
v 0.01012116 -0.00695562 0.00462817
v 0.01035221 -0.00665861 0.00456352
v 0.01010517 -0.00641355 0.00537456
v 0.01038819 -0.00671056 0.00439158
v 0.01090706 -0.00671448 0.00286014
v 0.01110134 -0.00658803 0.00233366
v 0.01081672 -0.00681446 0.00295410
v 0.01060245 -0.00690464 0.00348391
v 0.01063203 -0.00694876 0.00331331
v 0.01065602 -0.00698208 0.00314203
v 0.00872684 -0.00930131 0.00233366
v 0.00879719 -0.00925916 0.00233366
v 0.00806806 -0.00928661 0.00413234
v 0.00810163 -0.00930425 0.00399906
v 0.00816320 -0.00933660 0.00374049
v 0.00847580 -0.00912977 0.00376381
v 0.00842143 -0.00909841 0.00399906
v 0.00823195 -0.00922682 0.00399906
v 0.00898188 -0.00910331 0.00243962
v 0.00888354 -0.00906214 0.00296743
v 0.00882198 -0.00901509 0.00331397
v 0.00901226 -0.00896313 0.00296743
v 0.00913538 -0.00880238 0.00322600
v 0.00910820 -0.00877983 0.00338461
v 0.00861411 -0.00905234 0.00369384
v 0.00865728 -0.00908370 0.00348391
v 0.00791535 -0.00947089 0.00372582
v 0.00793694 -0.00939051 0.00399906
v 0.00802009 -0.00925818 0.00430495
v 0.00793614 -0.00923074 0.00453353
v 0.00795773 -0.00912389 0.00478811
v 0.00775865 -0.00925818 0.00477278
v 0.00753559 -0.00901705 0.00565446
v 0.00747883 -0.00898274 0.00580374
v 0.00766911 -0.00921113 0.00502869
v 0.00767391 -0.00916212 0.00513732
v 0.00768190 -0.00909448 0.00528060
v 0.00759635 -0.00905724 0.00548186
v 0.00807125 -0.00877297 0.00542521
v 0.00768510 -0.00884943 0.00580174
v 0.00786418 -0.00856026 0.00606165
v 0.00965585 -0.00575385 0.00677473
v 0.01004441 -0.00528628 0.00657213
v 0.00986692 -0.00515493 0.00696066
v 0.00964786 -0.00548135 0.00701131
v 0.00906503 -0.00744279 0.00588705
v 0.00921613 -0.00733889 0.00579041
v 0.00936484 -0.00723498 0.00569445
v 0.00941440 -0.00708501 0.00578908
v 0.00960548 -0.00669782 0.00592170
v 0.00975179 -0.00633513 0.00607698
v 0.00989570 -0.00622926 0.00597168
v 0.00994207 -0.00605674 0.00605898
v 0.00989010 -0.00596754 0.00622159
v 0.01007079 -0.00581757 0.00606965
v 0.00831670 -0.00824756 0.00592370
v 0.00834148 -0.00852693 0.00544254
v 0.00912179 -0.00751043 0.00571644
v 0.00870605 -0.00812013 0.00553917
v 0.00885556 -0.00801623 0.00544720
v 0.00844542 -0.00837597 0.00553717
v 0.00860771 -0.00827991 0.00545920
v 0.01014035 -0.00492555 0.00672608
v 0.01009397 -0.00477362 0.00691001
v 0.01012435 -0.00463541 0.00695866
v 0.01006679 -0.00453640 0.00709461
v 0.01009717 -0.00431389 0.00718125
v 0.00975499 -0.00430115 0.00763775
v 0.00955671 -0.00425606 0.00792298
v 0.01016433 -0.00399825 0.00726922
v 0.00986772 -0.00386298 0.00773438
v 0.01040578 -0.00391788 0.00699332
v 0.01034262 -0.00374045 0.00716525
v 0.01037220 -0.00356695 0.00720324
v 0.01030184 -0.00348167 0.00733653
v 0.01066002 -0.00314643 0.00698732
v 0.01082151 -0.00295431 0.00681671
v 0.01071678 -0.00322975 0.00685003
v 0.01068320 -0.00348265 0.00677273
v 0.01090226 -0.00386984 0.00619160
v 0.01101819 -0.00374045 0.00606232
v 0.01117809 -0.00341208 0.00596369
v 0.01062964 -0.00382279 0.00668209
v 0.01036980 -0.00408942 0.00693800
v 0.01047293 -0.00430017 0.00662145
v 0.01017392 -0.00477362 0.00678139
v 0.01045375 -0.00476872 0.00632356
v 0.01036420 -0.00485106 0.00641219
v 0.01048013 -0.00504416 0.00607831
v 0.01037540 -0.00513925 0.00617494
v 0.01009477 -0.00509710 0.00665410
v 0.01011716 -0.00591265 0.00591304
v 0.01016433 -0.00599989 0.00574043
v 0.01007798 -0.00607537 0.00581774
v 0.00994047 -0.00631749 0.00579641
v 0.00988770 -0.00647530 0.00570711
v 0.01006679 -0.00632435 0.00555916
v 0.00992048 -0.00656842 0.00552518
v 0.00975819 -0.00709677 0.00513732
v 0.00984533 -0.00718499 0.00485342
v 0.00988930 -0.00724969 0.00468148
v 0.00983654 -0.00743201 0.00451487
v 0.00992608 -0.00730360 0.00451487
v 0.00986532 -0.00747318 0.00437492
v 0.01009717 -0.00717813 0.00430562
v 0.01102698 -0.00671448 0.00233366
v 0.01088707 -0.00694189 0.00233366
v 0.01096382 -0.00681936 0.00233366
v 0.01016593 -0.00753395 0.00348391
v 0.01040098 -0.00724381 0.00339394
v 0.01010916 -0.00771236 0.00328865
v 0.01042656 -0.00728007 0.00322600
v 0.01013315 -0.00774568 0.00311738
v 0.01036500 -0.00744965 0.00301275
v 0.00897548 -0.00912977 0.00233366
v 0.00857893 -0.00902587 0.00386511
v 0.00854855 -0.00900528 0.00399906
v 0.00882997 -0.00876219 0.00410835
v 0.00866288 -0.00883178 0.00425697
v 0.00845421 -0.00897392 0.00428162
v 0.00836867 -0.00905920 0.00421165
v 0.00819597 -0.00915918 0.00425830
v 0.00910420 -0.00903371 0.00233366
v 0.00920334 -0.00893471 0.00243962
v 0.00872924 -0.00886805 0.00401305
v 0.00936084 -0.00877493 0.00260556
v 0.00917615 -0.00883472 0.00296743
v 0.00933525 -0.00875140 0.00277750
v 0.00930487 -0.00872396 0.00296743
v 0.00926490 -0.00868279 0.00322600
v 0.00936803 -0.00852595 0.00338861
v 0.00922093 -0.00863672 0.00347325
v 0.00907142 -0.00874748 0.00355722
v 0.00815760 -0.00909154 0.00451487
v 0.00805606 -0.00901999 0.00488341
v 0.00788017 -0.00907684 0.00503069
v 0.00768190 -0.00896607 0.00555983
v 0.00777784 -0.00909645 0.00513732
v 0.00782901 -0.00904057 0.00518930
v 0.00811603 -0.00880532 0.00528859
v 0.00828072 -0.00875630 0.00513732
v 0.00829511 -0.00874552 0.00513732
v 0.00824474 -0.00870239 0.00528859
v 0.00904904 -0.00768295 0.00559449
v 0.00930008 -0.00741535 0.00554650
v 0.00961108 -0.00747808 0.00489940
v 0.00962787 -0.00724282 0.00518996
v 0.00958230 -0.00718009 0.00536124
v 0.00953992 -0.00709383 0.00555517
v 0.00959669 -0.00694287 0.00564647
v 0.00955911 -0.00684877 0.00582307
v 0.00983654 -0.00640179 0.00587772
v 0.00878760 -0.00819757 0.00528859
v 0.00882917 -0.00824462 0.00514398
v 0.00894830 -0.00811131 0.00513732
v 0.00912339 -0.00802897 0.00495138
v 0.00908101 -0.00795545 0.00513732
v 0.00915777 -0.00760159 0.00552384
v 0.00851897 -0.00845635 0.00528859
v 0.00856854 -0.00849360 0.00513732
v 0.00865808 -0.00832696 0.00528859
v 0.01011396 -0.00430017 0.00716659
v 0.01057207 -0.00373849 0.00682271
v 0.01063283 -0.00331797 0.00694533
v 0.01043616 -0.00374045 0.00703597
v 0.00982854 -0.00664684 0.00559648
v 0.00964146 -0.00700855 0.00547519
v 0.00965665 -0.00753591 0.00472746
v 0.00958630 -0.00770844 0.00459085
v 0.00969583 -0.00761629 0.00450821
v 0.00962707 -0.00775549 0.00441891
v 0.00980296 -0.00760649 0.00427563
v 0.00986852 -0.00773588 0.00386644
v 0.01007399 -0.00766334 0.00348391
v 0.01036101 -0.00770157 0.00233366
v 0.01034661 -0.00768001 0.00245162
v 0.00986932 -0.00799564 0.00335396
v 0.00989490 -0.00802603 0.00318202
v 0.01005400 -0.00790056 0.00296743
v 0.01008998 -0.00794467 0.00270952
v 0.01011396 -0.00797702 0.00252759
v 0.01013955 -0.00801035 0.00233366
v 0.01024348 -0.00786625 0.00233366
v 0.00916656 -0.00858182 0.00374049
v 0.00908981 -0.00850438 0.00411169
v 0.00905703 -0.00847498 0.00425697
v 0.00892911 -0.00860045 0.00425697
v 0.00888034 -0.00855046 0.00446289
v 0.00879160 -0.00872886 0.00425697
v 0.00861411 -0.00879453 0.00444823
v 0.00847020 -0.00886707 0.00452687
v 0.00819278 -0.00896215 0.00478811
v 0.00828712 -0.00900136 0.00451487
v 0.00932326 -0.00886413 0.00233366
v 0.00938162 -0.00879257 0.00245162
v 0.00952473 -0.00868279 0.00233366
v 0.00963826 -0.00853869 0.00245162
v 0.00947676 -0.00863476 0.00268753
v 0.00943359 -0.00859457 0.00296743
v 0.00939522 -0.00855438 0.00322600
v 0.00962467 -0.00826815 0.00338928
v 0.00934725 -0.00824658 0.00411302
v 0.00820637 -0.00885433 0.00503202
v 0.00800889 -0.00899058 0.00503069
v 0.00805446 -0.00891412 0.00513732
v 0.00816959 -0.00883472 0.00513732
v 0.00834868 -0.00878767 0.00494738
v 0.00856694 -0.00875826 0.00462017
v 0.00866608 -0.00859065 0.00477278
v 0.00940961 -0.00756042 0.00513732
v 0.00930247 -0.00793389 0.00477278
v 0.00934405 -0.00798388 0.00462350
v 0.00909780 -0.00825541 0.00464616
v 0.00915857 -0.00811915 0.00474879
v 0.00938482 -0.00803289 0.00445156
v 0.00955512 -0.00792507 0.00425697
v 0.00966065 -0.00805642 0.00374049
v 0.00942480 -0.00808386 0.00425697
v 0.00994367 -0.00783292 0.00348391
v 0.00959109 -0.00822992 0.00356188
v 0.00979736 -0.00811719 0.00325133
v 0.00984773 -0.00822796 0.00276017
v 0.00992528 -0.00806328 0.00296743
v 0.01003321 -0.00810543 0.00244562
v 0.01004121 -0.00812994 0.00233366
v 0.00918815 -0.00834559 0.00425697
v 0.00912898 -0.00828775 0.00451487
v 0.00939602 -0.00880532 0.00233366
v 0.00945358 -0.00875140 0.00233366
v 0.00959429 -0.00861319 0.00233366
v 0.00965185 -0.00855438 0.00233366
v 0.00976778 -0.00840440 0.00245162
v 0.00987251 -0.00825541 0.00258757
v 0.00965026 -0.00829363 0.00322600
v 0.00952473 -0.00842303 0.00322600
v 0.00931687 -0.00821228 0.00425697
v 0.00927209 -0.00812111 0.00452887
v 0.00994367 -0.00813484 0.00268820
v 0.00989010 -0.00827599 0.00245162
v 0.00996366 -0.00822306 0.00233366
v 0.00984853 -0.00834951 0.00233366
v 0.00990449 -0.00829069 0.00233366
f 1 2 3
f 1 3 4
f 1 4 5
f 1 5 6
f 1 6 7
f 1 7 8
f 1 8 9
f 1 9 10
f 1 10 2
f 2 11 12
f 2 12 3
f 2 10 13
f 2 13 14
f 2 14 15
f 2 15 16
f 2 16 17
f 2 17 18
f 2 18 11
f 3 12 44
f 3 44 72
f 3 72 120
f 3 120 194
f 3 194 321
f 3 321 452
f 3 452 581
f 3 581 711
f 3 711 835
f 3 835 833
f 3 833 957
f 3 957 1085
f 3 1085 1185
f 3 1185 1187
f 3 1187 1186
f 3 1186 1254
f 3 1254 1262
f 3 1262 1261
f 3 1261 1304
f 3 1304 1319
f 3 1319 1321
f 3 1321 1320
f 3 1320 1310
f 3 1310 1309
f 3 1309 1275
f 3 1275 1308
f 3 1308 1307
f 3 1307 1273
f 3 1273 1202
f 3 1202 1194
f 3 1194 1091
f 3 1091 1090
f 3 1090 962
f 3 962 842
f 3 842 715
f 3 715 592
f 3 592 591
f 3 591 463
f 3 463 462
f 3 462 332
f 3 332 212
f 3 212 122
f 3 122 73
f 3 73 47
f 3 47 20
f 3 20 19
f 3 19 4
f 4 19 5
f 5 19 20
f 5 20 21
f 5 21 22
f 5 22 23
f 5 23 24
f 5 24 25
f 5 25 26
f 5 26 27
f 5 27 28
f 5 28 29
f 5 29 30
f 5 30 31
f 5 31 32
f 5 32 33
f 5 33 6
f 6 33 34
f 6 34 35
f 6 35 36
f 6 36 37
f 6 37 7
f 7 37 68
f 7 68 114
f 7 114 113
f 7 113 169
f 7 169 279
f 7 279 188
f 7 188 118
f 7 118 69
f 7 69 38
f 7 38 8
f 8 38 39
f 8 39 9
f 9 39 10
f 10 39 40
f 10 40 13
f 11 18 41
f 11 41 42
f 11 42 43
f 11 43 12
f 12 43 44
f 13 40 14
f 14 40 45
f 14 45 15
f 15 45 46
f 15 46 16
f 16 46 17
f 17 46 18
f 18 46 41
f 20 47 48
f 20 48 49
f 20 49 50
f 20 50 51
f 20 51 21
f 21 51 52
f 21 52 22
f 22 52 53
f 22 53 23
f 23 53 24
f 24 53 54
f 24 54 25
f 25 54 55
f 25 55 26
f 26 56 27
f 26 55 56
f 27 56 57
f 27 57 28
f 28 57 29
f 29 58 59
f 29 59 30
f 29 57 58
f 30 59 60
f 30 60 61
f 30 61 31
f 31 61 32
f 32 61 62
f 32 62 34
f 32 34 33
f 34 62 63
f 34 63 64
f 34 64 65
f 34 65 66
f 34 66 35
f 35 66 36
f 36 66 67
f 36 67 68
f 36 68 37
f 38 69 117
f 38 117 70
f 38 70 39
f 39 70 40
f 40 70 45
f 41 46 70
f 41 70 43
f 41 43 42
f 43 70 117
f 43 117 173
f 43 173 285
f 43 285 407
f 43 407 539
f 43 539 590
f 43 590 461
f 43 461 331
f 43 331 211
f 43 211 121
f 43 121 71
f 43 71 120
f 43 120 72
f 43 72 44
f 45 70 46
f 47 73 74
f 47 74 48
f 48 74 75
f 48 75 126
f 48 126 221
f 48 221 127
f 48 127 76
f 48 76 49
f 49 76 77
f 49 77 78
f 49 78 79
f 49 79 80
f 49 80 81
f 49 81 82
f 49 82 50
f 50 82 83
f 50 83 51
f 51 83 84
f 51 84 85
f 51 85 86
f 51 86 87
f 51 87 88
f 51 88 52
f 52 88 53
f 53 89 55
f 53 55 54
f 53 88 90
f 53 90 91
f 53 91 89
f 55 92 93
f 55 93 94
f 55 94 95
f 55 95 56
f 55 89 96
f 55 96 92
f 56 95 97
f 56 97 57
f 57 97 95
f 57 95 58
f 58 95 98
f 58 98 94
f 58 94 99
f 58 99 100
f 58 100 101
f 58 101 59
f 59 101 60
f 60 102 103
f 60 103 61
f 60 101 100
f 60 100 102
f 61 103 63
f 61 63 62
f 63 103 64
f 64 104 105
f 64 105 65
f 64 103 104
f 65 105 66
f 66 105 106
f 66 106 67
f 67 107 108
f 67 108 109
f 67 109 110
f 67 110 111
f 67 111 112
f 67 112 113
f 67 113 114
f 67 114 68
f 67 106 107
f 69 115 116
f 69 116 117
f 69 118 115
f 71 119 120
f 71 121 119
f 73 75 74
f 73 122 123
f 73 123 124
f 73 124 125
f 73 125 75
f 75 125 126
f 76 127 128
f 76 128 129
f 76 129 130
f 76 130 131
f 76 131 77
f 77 132 133
f 77 133 78
f 77 131 134
f 77 134 132
f 78 133 135
f 78 135 136
f 78 136 79
f 79 136 80
f 80 136 137
f 80 137 81
f 81 137 138
f 81 138 82
f 82 138 139
f 82 139 83
f 83 139 140
f 83 140 84
f 84 140 85
f 85 140 141
f 85 141 142
f 85 142 86
f 86 142 143
f 86 143 144
f 86 144 87
f 87 144 143
f 87 143 88
f 88 143 90
f 89 91 145
f 89 145 146
f 89 146 96
f 90 143 147
f 90 147 91
f 91 147 148
f 91 148 145
f 92 96 149
f 92 149 150
f 92 150 93
f 93 150 151
f 93 151 152
f 93 152 94
f 94 98 95
f 94 152 153
f 94 153 154
f 94 154 99
f 96 155 149
f 96 146 156
f 96 156 155
f 99 157 100
f 99 154 157
f 100 157 102
f 102 157 103
f 103 158 159
f 103 159 160
f 103 160 104
f 103 157 158
f 104 160 105
f 105 160 106
f 106 160 161
f 106 161 162
f 106 162 163
f 106 163 107
f 107 164 108
f 107 163 162
f 107 162 164
f 108 164 165
f 108 165 110
f 108 110 109
f 110 165 166
f 110 166 111
f 111 166 167
f 111 167 168
f 111 168 169
f 111 169 112
f 112 169 113
f 115 170 171
f 115 171 116
f 115 118 172
f 115 172 170
f 116 171 117
f 117 171 174
f 117 174 175
f 117 175 176
f 117 176 177
f 117 177 178
f 117 178 179
f 117 179 180
f 117 180 181
f 117 181 182
f 117 182 183
f 117 183 184
f 117 184 185
f 117 185 186
f 117 186 187
f 117 187 173
f 118 188 172
f 119 189 190
f 119 190 120
f 119 121 189
f 120 191 192
f 120 192 193
f 120 193 194
f 120 190 195
f 120 195 196
f 120 196 197
f 120 197 198
f 120 198 199
f 120 199 200
f 120 200 201
f 120 201 202
f 120 202 203
f 120 203 204
f 120 204 205
f 120 205 206
f 120 206 207
f 120 207 208
f 120 208 209
f 120 209 210
f 120 210 191
f 121 211 189
f 122 212 123
f 123 212 213
f 123 213 214
f 123 214 215
f 123 215 124
f 124 215 125
f 125 216 217
f 125 217 126
f 125 215 218
f 125 218 216
f 126 219 220
f 126 220 221
f 126 217 222
f 126 222 223
f 126 223 224
f 126 224 225
f 126 225 219
f 127 221 128
f 128 130 129
f 128 221 226
f 128 226 227
f 128 227 228
f 128 228 229
f 128 229 131
f 128 131 130
f 131 229 134
f 132 230 231
f 132 231 232
f 132 232 133
f 132 134 228
f 132 228 230
f 133 232 135
f 134 229 228
f 135 232 233
f 135 233 234
f 135 234 235
f 135 235 136
f 136 235 236
f 136 236 137
f 137 236 138
f 138 237 238
f 138 238 239
f 138 239 139
f 138 236 237
f 139 239 140
f 140 240 141
f 140 239 240
f 141 241 242
f 141 242 142
f 141 240 239
f 141 239 241
f 142 242 143
f 143 242 243
f 143 243 244
f 143 244 148
f 143 148 147
f 145 156 146
f 145 148 156
f 148 244 156
f 149 245 246
f 149 246 247
f 149 247 151
f 149 151 150
f 149 155 248
f 149 248 249
f 149 249 250
f 149 250 245
f 151 247 251
f 151 251 152
f 152 251 153
f 153 251 252
f 153 252 154
f 154 252 253
f 154 253 254
f 154 254 157
f 155 156 248
f 156 255 248
f 156 244 256
f 156 256 255
f 157 254 253
f 157 253 257
f 157 257 158
f 158 257 258
f 158 258 159
f 159 258 160
f 160 258 259
f 160 259 260
f 160 260 261
f 160 261 262
f 160 262 263
f 160 263 264
f 160 264 161
f 161 264 162
f 162 264 265
f 162 265 266
f 162 266 267
f 162 267 268
f 162 268 164
f 164 269 270
f 164 270 165
f 164 268 267
f 164 267 271
f 164 271 272
f 164 272 269
f 165 270 273
f 165 273 166
f 166 273 274
f 166 274 167
f 167 274 275
f 167 275 168
f 168 275 276
f 168 276 277
f 168 277 278
f 168 278 169
f 169 278 279
f 170 280 281
f 170 281 171
f 170 172 280
f 171 281 174
f 172 188 282
f 172 282 283
f 172 283 280
f 173 187 284
f 173 284 285
f 174 281 286
f 174 286 287
f 174 287 288
f 174 288 175
f 175 288 176
f 176 288 289
f 176 289 177
f 177 289 290
f 177 290 178
f 178 290 291
f 178 291 292
f 178 292 179
f 179 292 293
f 179 293 180
f 180 293 294
f 180 294 295
f 180 295 181
f 181 295 296
f 181 296 182
f 182 296 183
f 183 296 297
f 183 297 298
f 183 298 299
f 183 299 300
f 183 300 184
f 184 300 185
f 185 300 299
f 185 299 186
f 186 299 301
f 186 301 302
f 186 302 303
f 186 303 187
f 187 303 304
f 187 304 284
f 188 305 282
f 188 279 278
f 188 278 305
f 189 306 307
f 189 307 190
f 189 211 331
f 189 331 306
f 190 307 195
f 191 308 192
f 191 210 308
f 192 309 310
f 192 310 311
f 192 311 312
f 192 312 313
f 192 313 314
f 192 314 315
f 192 315 193
f 192 308 316
f 192 316 317
f 192 317 318
f 192 318 309
f 193 315 319
f 193 319 320
f 193 320 321
f 193 321 194
f 195 307 322
f 195 322 196
f 196 322 197
f 197 322 323
f 197 323 198
f 198 323 199
f 199 323 200
f 200 323 324
f 200 324 201
f 201 325 326
f 201 326 202
f 201 324 325
f 202 326 327
f 202 327 203
f 203 327 328
f 203 328 204
f 204 328 205
f 205 328 206
f 206 328 329
f 206 329 207
f 207 330 208
f 207 329 330
f 208 330 317
f 208 317 316
f 208 316 209
f 209 316 210
f 210 316 308
f 212 332 213
f 213 332 333
f 213 333 334
f 213 334 335
f 213 335 214
f 214 335 336
f 214 336 337
f 214 337 215
f 215 337 218
f 216 338 217
f 216 218 338
f 217 338 222
f 218 337 336
f 218 336 339
f 218 339 338
f 219 225 340
f 219 340 341
f 219 341 220
f 220 342 221
f 220 341 343
f 220 343 344
f 220 344 342
f 221 342 226
f 222 338 345
f 222 345 339
f 222 339 223
f 223 339 336
f 223 336 346
f 223 346 224
f 224 340 225
f 224 346 347
f 224 347 348
f 224 348 349
f 224 349 340
f 226 342 227
f 227 344 350
f 227 350 228
f 227 342 344
f 228 350 351
f 228 351 230
f 230 351 352
f 230 352 353
f 230 353 231
f 231 353 354
f 231 354 355
f 231 355 356
f 231 356 233
f 231 233 232
f 233 356 357
f 233 357 358
f 233 358 359
f 233 359 234
f 234 359 360
f 234 360 235
f 235 360 237
f 235 237 236
f 237 359 361
f 237 361 362
f 237 362 238
f 237 360 359
f 238 363 364
f 238 364 239
f 238 362 363
f 239 364 241
f 241 364 365
f 241 365 242
f 242 365 366
f 242 366 243
f 243 366 244
f 244 366 256
f 245 250 246
f 246 250 367
f 246 367 368
f 246 368 369
f 246 369 251
f 246 251 247
f 248 255 249
f 249 255 256
f 249 256 370
f 249 370 371
f 249 371 250
f 250 371 372
f 250 372 373
f 250 373 367
f 251 369 374
f 251 374 375
f 251 375 252
f 252 375 253
f 253 375 374
f 253 374 376
f 253 376 259
f 253 259 257
f 256 366 377
f 256 377 370
f 257 259 258
f 259 376 260
f 260 376 374
f 260 374 378
f 260 378 261
f 261 379 380
f 261 380 381
f 261 381 263
f 261 263 262
f 261 378 382
f 261 382 379
f 263 266 265
f 263 265 264
f 263 381 266
f 266 383 384
f 266 384 267
f 266 381 380
f 266 380 383
f 267 384 271
f 269 385 270
f 269 272 385
f 270 385 386
f 270 386 387
f 270 387 388
f 270 388 389
f 270 389 273
f 271 390 391
f 271 391 272
f 271 384 392
f 271 392 393
f 271 393 394
f 271 394 390
f 272 391 395
f 272 395 396
f 272 396 385
f 273 389 397
f 273 397 398
f 273 398 399
f 273 399 274
f 274 399 398
f 274 398 275
f 275 398 276
f 276 398 400
f 276 400 401
f 276 401 277
f 277 401 278
f 278 401 305
f 280 402 286
f 280 286 281
f 280 283 402
f 282 305 401
f 282 401 403
f 282 403 283
f 283 404 405
f 283 405 402
f 283 403 404
f 284 406 407
f 284 407 285
f 284 304 408
f 284 408 409
f 284 409 406
f 286 410 287
f 286 402 405
f 286 405 411
f 286 411 410
f 287 410 288
f 288 410 291
f 288 291 290
f 288 290 289
f 291 412 413
f 291 413 414
f 291 414 415
f 291 415 416
f 291 416 292
f 291 410 412
f 292 417 294
f 292 294 293
f 292 416 418
f 292 418 419
f 292 419 417
f 294 417 420
f 294 420 295
f 295 420 296
f 296 420 421
f 296 421 297
f 297 422 298
f 297 421 423
f 297 423 422
f 298 422 424
f 298 424 425
f 298 425 299
f 299 426 301
f 299 425 426
f 301 426 427
f 301 427 302
f 302 428 429
f 302 429 303
f 302 427 430
f 302 430 428
f 303 429 408
f 303 408 304
f 306 331 461
f 306 461 431
f 306 431 307
f 307 432 453
f 307 453 322
f 307 431 432
f 309 318 433
f 309 433 310
f 310 433 434
f 310 434 435
f 310 435 436
f 310 436 437
f 310 437 438
f 310 438 439
f 310 439 311
f 311 440 441
f 311 441 442
f 311 442 312
f 311 439 443
f 311 443 440
f 312 442 444
f 312 444 313
f 313 444 442
f 313 442 445
f 313 445 446
f 313 446 447
f 313 447 314
f 314 319 315
f 314 447 448
f 314 448 319
f 317 330 449
f 317 449 434
f 317 434 433
f 317 433 318
f 319 448 450
f 319 450 451
f 319 451 320
f 320 451 321
f 321 451 452
f 322 453 323
f 323 454 324
f 323 453 454
f 324 454 455
f 324 455 325
f 325 456 326
f 325 455 456
f 326 456 457
f 326 457 327
f 327 329 328
f 327 457 329
f 329 457 458
f 329 458 459
f 329 459 460
f 329 460 330
f 330 460 449
f 332 462 333
f 333 462 463
f 333 463 464
f 333 464 465
f 333 465 334
f 334 466 335
f 334 465 467
f 334 467 468
f 334 468 466
f 335 466 336
f 336 466 469
f 336 469 346
f 338 339 345
f 340 349 341
f 341 349 343
f 343 349 470
f 343 470 352
f 343 352 351
f 343 351 350
f 343 350 344
f 346 469 347
f 347 469 471
f 347 471 472
f 347 472 473
f 347 473 474
f 347 474 475
f 347 475 348
f 348 475 470
f 348 470 349
f 352 470 353
f 353 476 477
f 353 477 354
f 353 470 476
f 354 477 355
f 355 477 478
f 355 478 356
f 356 478 479
f 356 479 357
f 357 479 480
f 357 480 361
f 357 361 359
f 357 359 358
f 361 480 481
f 361 481 482
f 361 482 483
f 361 483 362
f 362 483 363
f 363 483 482
f 363 482 484
f 363 484 364
f 364 484 485
f 364 485 365
f 365 485 486
f 365 486 487
f 365 487 488
f 365 488 489
f 365 489 377
f 365 377 366
f 367 373 490
f 367 490 368
f 368 490 491
f 368 491 492
f 368 492 369
f 369 493 494
f 369 494 374
f 369 492 493
f 370 377 495
f 370 495 496
f 370 496 497
f 370 497 373
f 370 373 372
f 370 372 371
f 373 497 498
f 373 498 499
f 373 499 490
f 374 494 378
f 377 500 495
f 377 489 488
f 377 488 500
f 378 494 382
f 379 501 502
f 379 502 383
f 379 383 380
f 379 382 503
f 379 503 501
f 382 494 503
f 383 502 392
f 383 392 384
f 385 396 395
f 385 395 386
f 386 504 505
f 386 505 506
f 386 506 507
f 386 507 387
f 386 395 508
f 386 508 509
f 386 509 504
f 387 507 389
f 387 389 388
f 389 507 510
f 389 510 511
f 389 511 397
f 390 512 508
f 390 508 513
f 390 513 395
f 390 395 391
f 390 394 512
f 392 502 393
f 393 514 515
f 393 515 516
f 393 516 394
f 393 502 517
f 393 517 518
f 393 518 519
f 393 519 520
f 393 520 521
f 393 521 522
f 393 522 523
f 393 523 524
f 393 524 514
f 394 516 512
f 395 513 508
f 397 511 525
f 397 525 398
f 398 526 527
f 398 527 528
f 398 528 529
f 398 529 400
f 398 525 526
f 400 529 401
f 401 530 403
f 401 529 530
f 403 530 531
f 403 531 532
f 403 532 533
f 403 533 404
f 404 533 534
f 404 534 535
f 404 535 536
f 404 536 537
f 404 537 411
f 404 411 405
f 406 538 590
f 406 590 539
f 406 539 407
f 406 409 540
f 406 540 432
f 406 432 538
f 408 429 428
f 408 428 409
f 409 428 540
f 410 411 412
f 411 537 412
f 412 537 541
f 412 541 542
f 412 542 413
f 413 542 541
f 413 541 543
f 413 543 414
f 414 543 544
f 414 544 545
f 414 545 546
f 414 546 415
f 415 547 418
f 415 418 416
f 415 546 548
f 415 548 547
f 417 419 420
f 418 547 549
f 418 549 550
f 418 550 419
f 419 550 551
f 419 551 552
f 419 552 421
f 419 421 420
f 421 552 423
f 422 423 424
f 423 552 553
f 423 553 554
f 423 554 424
f 424 554 425
f 425 554 555
f 425 555 556
f 425 556 426
f 426 556 427
f 427 556 557
f 427 557 430
f 428 558 540
f 428 430 559
f 428 559 560
f 428 560 558
f 430 557 561
f 430 561 562
f 430 562 563
f 430 563 559
f 431 461 590
f 431 590 538
f 431 538 432
f 432 540 453
f 434 449 435
f 435 449 564
f 435 564 565
f 435 565 436
f 436 566 437
f 436 565 566
f 437 566 567
f 437 567 568
f 437 568 569
f 437 569 438
f 438 569 443
f 438 443 439
f 440 443 569
f 440 569 570
f 440 570 571
f 440 571 441
f 441 571 572
f 441 572 573
f 441 573 442
f 442 573 445
f 445 573 574
f 445 574 446
f 446 574 575
f 446 575 576
f 446 576 577
f 446 577 578
f 446 578 579
f 446 579 447
f 447 579 450
f 447 450 448
f 449 460 564
f 450 579 580
f 450 580 581
f 450 581 451
f 451 581 452
f 453 540 558
f 453 558 582
f 453 582 583
f 453 583 454
f 454 583 455
f 455 584 456
f 455 583 582
f 455 582 584
f 456 584 585
f 456 585 586
f 456 586 457
f 457 586 458
f 458 587 588
f 458 588 589
f 458 589 459
f 458 586 587
f 459 564 460
f 459 589 564
f 463 591 464
f 464 591 592
f 464 592 593
f 464 593 594
f 464 594 595
f 464 595 465
f 465 595 467
f 466 468 596
f 466 596 597
f 466 597 598
f 466 598 469
f 467 595 599
f 467 599 600
f 467 600 468
f 468 600 596
f 469 598 471
f 470 475 601
f 470 601 602
f 470 602 476
f 471 598 603
f 471 603 472
f 472 603 604
f 472 604 605
f 472 605 473
f 473 605 606
f 473 606 607
f 473 607 608
f 473 608 474
f 474 609 475
f 474 608 609
f 475 609 601
f 476 602 478
f 476 478 477
f 478 602 610
f 478 610 611
f 478 611 479
f 479 611 480
f 480 611 612
f 480 612 613
f 480 613 614
f 480 614 481
f 481 614 615
f 481 615 616
f 481 616 482
f 482 616 617
f 482 617 487
f 482 487 618
f 482 618 485
f 482 485 484
f 485 618 486
f 486 618 487
f 487 617 619
f 487 619 488
f 488 619 620
f 488 620 500
f 490 499 491
f 491 621 622
f 491 622 623
f 491 623 493
f 491 493 492
f 491 499 624
f 491 624 621
f 493 623 494
f 494 625 626
f 494 626 503
f 494 623 625
f 495 500 627
f 495 627 496
f 496 627 620
f 496 620 628
f 496 628 629
f 496 629 630
f 496 630 498
f 496 498 497
f 498 630 631
f 498 631 632
f 498 632 633
f 498 633 499
f 499 633 621
f 499 621 624
f 500 620 627
f 501 503 517
f 501 517 502
f 503 626 625
f 503 625 634
f 503 634 518
f 503 518 517
f 504 635 636
f 504 636 506
f 504 506 505
f 504 509 637
f 504 637 638
f 504 638 639
f 504 639 635
f 506 636 640
f 506 640 641
f 506 641 642
f 506 642 507
f 507 642 643
f 507 643 511
f 507 511 510
f 508 638 637
f 508 637 509
f 508 512 516
f 508 516 644
f 508 644 638
f 511 643 645
f 511 645 525
f 514 646 516
f 514 516 515
f 514 524 646
f 516 646 644
f 518 634 519
f 519 634 647
f 519 647 648
f 519 648 520
f 520 648 522
f 520 522 521
f 522 648 649
f 522 649 650
f 522 650 651
f 522 651 523
f 523 651 524
f 524 651 650
f 524 650 652
f 524 652 653
f 524 653 773
f 524 773 654
f 524 654 655
f 524 655 646
f 525 645 656
f 525 656 526
f 526 657 658
f 526 658 527
f 526 656 645
f 526 645 657
f 527 658 659
f 527 659 660
f 527 660 528
f 528 660 531
f 528 531 529
f 529 531 530
f 531 660 532
f 532 661 662
f 532 662 663
f 532 663 664
f 532 664 665
f 532 665 533
f 532 660 661
f 533 665 534
f 534 665 666
f 534 666 667
f 534 667 668
f 534 668 535
f 535 668 536
f 536 544 541
f 536 541 537
f 536 668 669
f 536 669 544
f 541 544 543
f 544 669 545
f 545 669 668
f 545 668 667
f 545 667 670
f 545 670 671
f 545 671 672
f 545 672 546
f 546 672 673
f 546 673 548
f 547 548 673
f 547 673 674
f 547 674 549
f 549 675 550
f 549 674 676
f 549 676 675
f 550 675 551
f 551 675 676
f 551 676 677
f 551 677 678
f 551 678 552
f 552 678 553
f 553 678 679
f 553 679 680
f 553 680 681
f 553 681 682
f 553 682 554
f 554 682 555
f 555 683 556
f 555 682 681
f 555 681 683
f 556 683 557
f 557 683 684
f 557 684 561
f 558 560 685
f 558 685 686
f 558 686 582
f 559 563 560
f 560 563 685
f 561 684 562
f 562 684 687
f 562 687 688
f 562 688 563
f 563 686 685
f 563 688 686
f 564 589 689
f 564 689 565
f 565 690 566
f 565 689 690
f 566 690 567
f 567 691 692
f 567 692 693
f 567 693 568
f 567 690 694
f 567 694 691
f 568 695 696
f 568 696 569
f 568 693 697
f 568 697 695
f 569 696 570
f 570 695 697
f 570 697 698
f 570 698 699
f 570 699 700
f 570 700 701
f 570 701 571
f 570 696 695
f 571 701 572
f 572 701 702
f 572 702 575
f 572 575 573
f 573 575 574
f 575 702 703
f 575 703 704
f 575 704 576
f 576 704 705
f 576 705 577
f 577 705 706
f 577 706 578
f 578 707 579
f 578 706 708
f 578 708 709
f 578 709 710
f 578 710 707
f 579 707 580
f 580 707 581
f 581 707 711
f 582 686 584
f 584 712 585
f 584 686 712
f 585 713 588
f 585 588 587
f 585 587 586
f 585 712 713
f 588 713 714
f 588 714 689
f 588 689 589
f 592 715 593
f 593 715 716
f 593 716 594
f 594 717 599
f 594 599 595
f 594 716 718
f 594 718 719
f 594 719 717
f 596 600 597
f 597 600 720
f 597 720 721
f 597 721 598
f 598 721 603
f 599 720 600
f 599 717 720
f 601 609 722
f 601 722 723
f 601 723 602
f 602 723 724
f 602 724 610
f 603 721 604
f 604 721 725
f 604 725 605
f 605 725 606
f 606 725 726
f 606 726 727
f 606 727 728
f 606 728 607
f 607 728 608
f 608 722 609
f 608 728 729
f 608 729 723
f 608 723 722
f 610 724 730
f 610 730 611
f 611 731 732
f 611 732 733
f 611 733 613
f 611 613 612
f 611 730 731
f 613 733 734
f 613 734 735
f 613 735 736
f 613 736 615
f 613 615 614
f 615 736 737
f 615 737 616
f 616 737 617
f 617 738 619
f 617 737 738
f 619 739 740
f 619 740 628
f 619 628 620
f 619 738 741
f 619 741 739
f 621 633 742
f 621 742 743
f 621 743 744
f 621 744 648
f 621 648 647
f 621 647 634
f 621 634 622
f 622 634 625
f 622 625 623
f 628 740 745
f 628 745 629
f 629 745 746
f 629 746 631
f 629 631 630
f 631 746 747
f 631 747 748
f 631 748 749
f 631 749 750
f 631 750 751
f 631 751 752
f 631 752 633
f 631 633 632
f 633 752 742
f 635 639 753
f 635 753 754
f 635 754 755
f 635 755 756
f 635 756 636
f 636 756 757
f 636 757 758
f 636 758 640
f 638 644 655
f 638 655 759
f 638 759 760
f 638 760 639
f 639 760 761
f 639 761 762
f 639 762 753
f 640 758 641
f 641 757 763
f 641 763 645
f 641 645 643
f 641 643 642
f 641 758 757
f 644 646 655
f 645 764 657
f 645 763 764
f 648 744 765
f 648 765 649
f 649 765 766
f 649 766 650
f 650 766 767
f 650 767 768
f 650 768 769
f 650 769 770
f 650 770 771
f 650 771 772
f 650 772 652
f 652 772 653
f 653 772 773
f 654 773 655
f 655 773 759
f 657 774 775
f 657 775 776
f 657 776 777
f 657 777 778
f 657 778 779
f 657 779 658
f 657 764 774
f 658 779 660
f 658 660 659
f 660 780 781
f 660 781 782
f 660 782 662
f 660 662 661
f 660 779 778
f 660 778 783
f 660 783 784
f 660 784 780
f 662 782 785
f 662 785 663
f 663 785 786
f 663 786 787
f 663 787 788
f 663 788 789
f 663 789 790
f 663 790 664
f 664 790 665
f 665 790 791
f 665 791 666
f 666 670 667
f 666 791 670
f 670 792 793
f 670 793 671
f 670 791 794
f 670 794 792
f 671 793 795
f 671 795 673
f 671 673 672
f 673 795 674
f 674 796 676
f 674 795 793
f 674 793 797
f 674 797 798
f 674 798 796
f 676 796 799
f 676 799 677
f 677 800 678
f 677 799 801
f 677 801 800
f 678 800 679
f 679 802 681
f 679 681 680
f 679 800 803
f 679 803 802
f 681 802 804
f 681 804 805
f 681 805 806
f 681 806 683
f 683 806 807
f 683 807 684
f 684 807 808
f 684 808 809
f 684 809 810
f 684 810 811
f 684 811 812
f 684 812 687
f 686 688 712
f 687 812 813
f 687 813 688
f 688 813 712
f 689 814 815
f 689 815 690
f 689 714 816
f 689 816 814
f 690 815 694
f 691 817 692
f 691 694 818
f 691 818 817
f 692 819 693
f 692 817 819
f 693 819 697
f 694 815 820
f 694 820 818
f 697 819 821
f 697 821 698
f 698 821 699
f 699 822 823
f 699 823 700
f 699 821 822
f 700 823 701
f 701 823 824
f 701 824 825
f 701 825 702
f 702 825 703
f 703 826 827
f 703 827 704
f 703 825 826
f 704 827 705
f 705 827 828
f 705 828 829
f 705 829 830
f 705 830 706
f 706 830 708
f 707 710 831
f 707 831 832
f 707 832 833
f 707 833 834
f 707 834 835
f 707 835 711
f 708 830 709
f 709 830 829
f 709 829 836
f 709 836 837
f 709 837 838
f 709 838 831
f 709 831 710
f 712 813 714
f 712 714 713
f 714 811 839
f 714 839 840
f 714 840 841
f 714 841 816
f 714 813 811
f 715 842 716
f 716 842 843
f 716 843 718
f 717 719 844
f 717 844 845
f 717 845 720
f 718 843 846
f 718 846 847
f 718 847 848
f 718 848 849
f 718 849 844
f 718 844 719
f 720 845 725
f 720 725 721
f 723 729 731
f 723 731 724
f 724 731 730
f 725 845 850
f 725 850 726
f 726 850 851
f 726 851 852
f 726 852 727
f 727 852 853
f 727 853 854
f 727 854 855
f 727 855 856
f 727 856 728
f 728 856 731
f 728 731 729
f 731 856 732
f 732 856 857
f 732 857 733
f 733 857 858
f 733 858 734
f 734 858 859
f 734 859 860
f 734 860 741
f 734 741 735
f 735 861 736
f 735 741 861
f 736 861 737
f 737 861 862
f 737 862 738
f 738 862 741
f 739 741 863
f 739 863 740
f 740 864 865
f 740 865 866
f 740 866 745
f 740 863 864
f 741 862 861
f 741 860 867
f 741 867 868
f 741 868 864
f 741 864 863
f 742 752 869
f 742 869 743
f 743 870 767
f 743 767 766
f 743 766 765
f 743 765 744
f 743 869 871
f 743 871 870
f 745 866 746
f 746 866 747
f 747 866 872
f 747 872 873
f 747 873 748
f 748 873 874
f 748 874 749
f 749 874 750
f 750 874 875
f 750 875 876
f 750 876 877
f 750 877 751
f 751 877 876
f 751 876 869
f 751 869 752
f 753 762 878
f 753 878 754
f 754 879 755
f 754 878 879
f 755 879 756
f 756 879 757
f 757 880 881
f 757 881 882
f 757 882 883
f 757 883 763
f 757 879 884
f 757 884 885
f 757 885 880
f 759 773 886
f 759 886 760
f 760 886 773
f 760 773 887
f 760 887 888
f 760 888 889
f 760 889 890
f 760 890 891
f 760 891 892
f 760 892 761
f 761 892 762
f 762 892 878
f 763 883 764
f 764 883 774
f 767 870 893
f 767 893 768
f 768 893 769
f 769 893 894
f 769 894 895
f 769 895 896
f 769 896 897
f 769 897 770
f 770 897 771
f 771 898 772
f 771 897 899
f 771 899 900
f 771 900 898
f 772 898 900
f 772 900 901
f 772 901 902
f 772 902 773
f 773 902 887
f 774 882 775
f 774 883 882
f 775 882 776
f 776 882 881
f 776 881 880
f 776 880 903
f 776 903 904
f 776 904 905
f 776 905 906
f 776 906 907
f 776 907 908
f 776 908 909
f 776 909 777
f 777 909 778
f 778 909 910
f 778 910 784
f 778 784 783
f 780 911 785
f 780 785 782
f 780 782 781
f 780 784 911
f 784 910 912
f 784 912 911
f 785 911 913
f 785 913 786
f 786 913 787
f 787 914 788
f 787 913 911
f 787 911 912
f 787 912 915
f 787 915 914
f 788 914 916
f 788 916 917
f 788 917 918
f 788 918 789
f 789 918 791
f 789 791 790
f 791 918 919
f 791 919 794
f 792 920 793
f 792 794 921
f 792 921 920
f 793 920 922
f 793 922 801
f 793 801 797
f 794 919 918
f 794 918 923
f 794 923 921
f 796 798 799
f 797 801 798
f 798 801 799
f 800 801 924
f 800 924 803
f 801 925 924
f 801 922 925
f 802 803 804
f 803 924 925
f 803 925 926
f 803 926 927
f 803 927 804
f 804 927 928
f 804 928 929
f 804 929 930
f 804 930 805
f 805 807 806
f 805 930 807
f 807 930 929
f 807 929 808
f 808 931 932
f 808 932 933
f 808 933 934
f 808 934 809
f 808 929 928
f 808 928 935
f 808 935 931
f 809 934 840
f 809 840 810
f 810 840 811
f 811 840 839
f 811 813 812
f 814 936 815
f 814 816 841
f 814 841 937
f 814 937 936
f 815 936 820
f 817 938 819
f 817 818 938
f 818 820 936
f 818 936 938
f 819 939 940
f 819 940 821
f 819 938 941
f 819 941 939
f 821 940 942
f 821 942 943
f 821 943 944
f 821 944 822
f 822 944 945
f 822 945 823
f 823 945 946
f 823 946 824
f 824 946 945
f 824 945 947
f 824 947 825
f 825 947 948
f 825 948 826
f 826 948 949
f 826 949 950
f 826 950 827
f 827 950 951
f 827 951 952
f 827 952 829
f 827 829 828
f 829 952 951
f 829 951 953
f 829 953 954
f 829 954 955
f 829 955 836
f 831 838 956
f 831 956 832
f 832 957 833
f 832 956 957
f 833 835 834
f 836 955 837
f 837 955 958
f 837 958 959
f 837 959 838
f 838 959 960
f 838 960 956
f 840 934 937
f 840 937 841
f 842 961 843
f 842 962 961
f 843 961 963
f 843 963 846
f 844 849 845
f 845 849 850
f 846 963 847
f 847 964 965
f 847 965 966
f 847 966 848
f 847 963 967
f 847 967 968
f 847 968 969
f 847 969 970
f 847 970 964
f 848 966 849
f 849 966 971
f 849 971 850
f 850 971 972
f 850 972 851
f 851 853 852
f 851 972 973
f 851 973 974
f 851 974 853
f 853 974 975
f 853 975 976
f 853 976 854
f 854 976 977
f 854 977 978
f 854 978 979
f 854 979 980
f 854 980 981
f 854 981 982
f 854 982 983
f 854 983 984
f 854 984 855
f 855 857 856
f 855 984 857
f 857 984 858
f 858 984 985
f 858 985 859
f 859 985 983
f 859 983 867
f 859 867 860
f 864 986 873
f 864 873 865
f 864 868 986
f 865 873 866
f 866 873 872
f 867 987 988
f 867 988 989
f 867 989 990
f 867 990 868
f 867 983 982
f 867 982 987
f 868 990 991
f 868 991 986
f 869 876 871
f 870 871 992
f 870 992 894
f 870 894 893
f 871 876 875
f 871 875 993
f 871 993 994
f 871 994 992
f 873 986 995
f 873 995 874
f 874 995 996
f 874 996 997
f 874 997 998
f 874 998 993
f 874 993 875
f 878 892 879
f 879 892 884
f 880 885 884
f 880 884 999
f 880 999 904
f 880 904 903
f 884 892 1000
f 884 1000 1001
f 884 1001 1002
f 884 1002 999
f 887 902 901
f 887 901 1003
f 887 1003 888
f 888 1003 1004
f 888 1004 1005
f 888 1005 1006
f 888 1006 889
f 889 1006 1007
f 889 1007 1008
f 889 1008 1009
f 889 1009 890
f 890 1009 891
f 891 1009 1010
f 891 1010 892
f 892 1010 1011
f 892 1011 1012
f 892 1012 1013
f 892 1013 1001
f 892 1001 1000
f 894 992 998
f 894 998 1014
f 894 1014 899
f 894 899 895
f 895 899 896
f 896 899 897
f 899 1015 1016
f 899 1016 1017
f 899 1017 1004
f 899 1004 1018
f 899 1018 900
f 899 1014 1019
f 899 1019 1020
f 899 1020 1021
f 899 1021 1022
f 899 1022 1015
f 900 1018 1004
f 900 1004 1003
f 900 1003 901
f 904 999 1023
f 904 1023 1024
f 904 1024 906
f 904 906 905
f 906 1024 1025
f 906 1025 1026
f 906 1026 1027
f 906 1027 907
f 907 1028 908
f 907 1027 1028
f 908 1028 1029
f 908 1029 909
f 909 1029 1030
f 909 1030 1031
f 909 1031 1032
f 909 1032 1033
f 909 1033 915
f 909 915 912
f 909 912 910
f 914 915 1032
f 914 1032 1034
f 914 1034 916
f 915 1033 1032
f 916 1034 1035
f 916 1035 1036
f 916 1036 1037
f 916 1037 1038
f 916 1038 917
f 917 1038 1039
f 917 1039 918
f 918 1039 923
f 920 921 1040
f 920 1040 1038
f 920 1038 1041
f 920 1041 1042
f 920 1042 1043
f 920 1043 922
f 921 923 1040
f 922 1043 1044
f 922 1044 1045
f 922 1045 925
f 923 1039 1040
f 925 1046 926
f 925 1045 1046
f 926 1046 1047
f 926 1047 927
f 927 1047 935
f 927 935 928
f 931 935 1048
f 931 1048 932
f 932 1049 1050
f 932 1050 933
f 932 1048 1049
f 933 1050 1051
f 933 1051 936
f 933 936 934
f 934 936 937
f 935 1047 1048
f 936 1051 1052
f 936 1052 1053
f 936 1053 1054
f 936 1054 938
f 938 1054 1053
f 938 1053 941
f 939 941 1055
f 939 1055 1056
f 939 1056 1057
f 939 1057 1058
f 939 1058 1059
f 939 1059 1060
f 939 1060 1061
f 939 1061 1062
f 939 1062 940
f 940 1062 1063
f 940 1063 942
f 941 1053 1055
f 942 1063 943
f 943 1064 1065
f 943 1065 1066
f 943 1066 945
f 943 945 944
f 943 1063 1064
f 945 1067 1068
f 945 1068 1069
f 945 1069 1070
f 945 1070 1071
f 945 1071 947
f 945 1066 1065
f 945 1065 1072
f 945 1072 1067
f 947 1071 1073
f 947 1073 1074
f 947 1074 948
f 948 1074 1075
f 948 1075 949
f 949 1076 953
f 949 953 950
f 949 1075 1077
f 949 1077 1076
f 950 953 951
f 953 1078 1079
f 953 1079 1080
f 953 1080 1081
f 953 1081 954
f 953 1076 1082
f 953 1082 1078
f 954 1081 1083
f 954 1083 955
f 955 1083 958
f 956 1084 1085
f 956 1085 957
f 956 960 1086
f 956 1086 1084
f 958 1083 1087
f 958 1087 959
f 959 1087 1088
f 959 1088 960
f 960 1088 1089
f 960 1089 1086
f 961 962 963
f 962 1090 963
f 963 1090 1091
f 963 1091 967
f 964 970 965
f 965 1092 1093
f 965 1093 1094
f 965 1094 966
f 965 970 1095
f 965 1095 1096
f 965 1096 1097
f 965 1097 1092
f 966 1094 971
f 967 1098 1099
f 967 1099 968
f 967 1091 1098
f 968 1099 969
f 969 1100 970
f 969 1099 1101
f 969 1101 1102
f 969 1102 1103
f 969 1103 1100
f 970 1100 1104
f 970 1104 1105
f 970 1105 1095
f 971 1094 1106
f 971 1106 972
f 972 1106 1093
f 972 1093 1107
f 972 1107 973
f 973 1107 975
f 973 975 974
f 975 1107 977
f 975 977 976
f 977 1108 1109
f 977 1109 1110
f 977 1110 1111
f 977 1111 979
f 977 979 978
f 977 1107 1092
f 977 1092 1108
f 979 981 980
f 979 1111 988
f 979 988 987
f 979 987 981
f 981 987 982
f 983 985 984
f 986 991 1112
f 986 1112 1113
f 986 1113 995
f 988 1111 1114
f 988 1114 1115
f 988 1115 989
f 989 1115 990
f 990 1115 1116
f 990 1116 991
f 991 1116 1117
f 991 1117 1112
f 992 994 998
f 993 998 994
f 995 1118 996
f 995 1113 1119
f 995 1119 1118
f 996 1118 1120
f 996 1120 998
f 996 998 997
f 998 1120 1014
f 999 1002 1023
f 1001 1013 1012
f 1001 1012 1121
f 1001 1121 1122
f 1001 1122 1123
f 1001 1123 1124
f 1001 1124 1002
f 1002 1124 1023
f 1004 1017 1125
f 1004 1125 1126
f 1004 1126 1005
f 1005 1126 1127
f 1005 1127 1128
f 1005 1128 1006
f 1006 1129 1007
f 1006 1128 1129
f 1007 1129 1130
f 1007 1130 1008
f 1008 1130 1131
f 1008 1131 1012
f 1008 1012 1011
f 1008 1011 1009
f 1009 1011 1010
f 1012 1131 1132
f 1012 1132 1133
f 1012 1133 1134
f 1012 1134 1121
f 1014 1135 1019
f 1014 1120 1136
f 1014 1136 1140
f 1014 1140 1135
f 1015 1137 1016
f 1015 1022 1138
f 1015 1138 1139
f 1015 1139 1137
f 1016 1137 1125
f 1016 1125 1017
f 1019 1135 1020
f 1020 1135 1021
f 1021 1135 1140
f 1021 1140 1141
f 1021 1141 1138
f 1021 1138 1022
f 1023 1124 1024
f 1024 1124 1123
f 1024 1123 1025
f 1025 1142 1143
f 1025 1143 1144
f 1025 1144 1026
f 1025 1123 1142
f 1026 1144 1027
f 1027 1144 1145
f 1027 1145 1028
f 1028 1145 1146
f 1028 1146 1147
f 1028 1147 1031
f 1028 1031 1148
f 1028 1148 1029
f 1029 1148 1030
f 1030 1148 1031
f 1031 1149 1150
f 1031 1150 1034
f 1031 1034 1032
f 1031 1147 1146
f 1031 1146 1149
f 1034 1150 1149
f 1034 1149 1151
f 1034 1151 1035
f 1035 1152 1036
f 1035 1151 1152
f 1036 1153 1154
f 1036 1154 1037
f 1036 1152 1153
f 1037 1154 1041
f 1037 1041 1038
f 1038 1040 1039
f 1041 1044 1042
f 1041 1154 1044
f 1042 1044 1043
f 1044 1155 1045
f 1044 1154 1153
f 1044 1153 1155
f 1045 1156 1048
f 1045 1048 1046
f 1045 1155 1156
f 1046 1048 1047
f 1048 1156 1157
f 1048 1157 1050
f 1048 1050 1049
f 1050 1157 1158
f 1050 1158 1159
f 1050 1159 1160
f 1050 1160 1161
f 1050 1161 1051
f 1051 1161 1052
f 1052 1161 1160
f 1052 1160 1053
f 1053 1160 1055
f 1055 1160 1159
f 1055 1159 1162
f 1055 1162 1056
f 1056 1162 1057
f 1057 1162 1151
f 1057 1151 1058
f 1058 1163 1059
f 1058 1151 1163
f 1059 1163 1060
f 1060 1164 1165
f 1060 1165 1166
f 1060 1166 1061
f 1060 1163 1164
f 1061 1166 1065
f 1061 1065 1062
f 1062 1065 1064
f 1062 1064 1063
f 1065 1166 1167
f 1065 1167 1142
f 1065 1142 1168
f 1065 1168 1072
f 1067 1122 1068
f 1067 1072 1168
f 1067 1168 1169
f 1067 1169 1142
f 1067 1142 1170
f 1067 1170 1122
f 1068 1122 1134
f 1068 1134 1171
f 1068 1171 1069
f 1069 1171 1070
f 1070 1074 1073
f 1070 1073 1071
f 1070 1171 1172
f 1070 1172 1077
f 1070 1077 1075
f 1070 1075 1074
f 1076 1077 1082
f 1077 1172 1171
f 1077 1171 1173
f 1077 1173 1131
f 1077 1131 1174
f 1077 1174 1175
f 1077 1175 1176
f 1077 1176 1082
f 1078 1177 1178
f 1078 1178 1079
f 1078 1082 1177
f 1079 1178 1179
f 1079 1179 1080
f 1080 1179 1180
f 1080 1180 1181
f 1080 1181 1182
f 1080 1182 1083
f 1080 1083 1081
f 1082 1176 1175
f 1082 1175 1177
f 1083 1182 1183
f 1083 1183 1184
f 1083 1184 1087
f 1084 1185 1085
f 1084 1086 1186
f 1084 1186 1187
f 1084 1187 1185
f 1086 1089 1186
f 1087 1184 1188
f 1087 1188 1189
f 1087 1189 1088
f 1088 1189 1190
f 1088 1190 1191
f 1088 1191 1089
f 1089 1191 1192
f 1089 1192 1193
f 1089 1193 1186
f 1091 1194 1098
f 1092 1097 1108
f 1092 1107 1093
f 1093 1106 1094
f 1095 1105 1104
f 1095 1104 1096
f 1096 1104 1195
f 1096 1195 1196
f 1096 1196 1197
f 1096 1197 1198
f 1096 1198 1199
f 1096 1199 1200
f 1096 1200 1097
f 1097 1200 1201
f 1097 1201 1108
f 1098 1194 1202
f 1098 1202 1099
f 1099 1202 1203
f 1099 1203 1101
f 1100 1204 1195
f 1100 1195 1104
f 1100 1103 1204
f 1101 1203 1205
f 1101 1205 1206
f 1101 1206 1102
f 1102 1205 1207
f 1102 1207 1208
f 1102 1208 1103
f 1102 1206 1205
f 1103 1197 1204
f 1103 1208 1209
f 1103 1209 1210
f 1103 1210 1211
f 1103 1211 1212
f 1103 1212 1197
f 1108 1201 1109
f 1109 1201 1213
f 1109 1213 1110
f 1110 1213 1214
f 1110 1214 1215
f 1110 1215 1111
f 1111 1215 1114
f 1112 1216 1119
f 1112 1119 1113
f 1112 1117 1216
f 1114 1215 1217
f 1114 1217 1115
f 1115 1217 1116
f 1116 1217 1218
f 1116 1218 1216
f 1116 1216 1117
f 1118 1119 1216
f 1118 1216 1218
f 1118 1218 1219
f 1118 1219 1220
f 1118 1220 1221
f 1118 1221 1222
f 1118 1222 1136
f 1118 1136 1120
f 1121 1134 1122
f 1122 1170 1123
f 1123 1170 1142
f 1125 1137 1126
f 1126 1137 1127
f 1127 1137 1223
f 1127 1223 1224
f 1127 1224 1225
f 1127 1225 1226
f 1127 1226 1227
f 1127 1227 1228
f 1127 1228 1229
f 1127 1229 1128
f 1128 1229 1175
f 1128 1175 1230
f 1128 1230 1129
f 1129 1230 1175
f 1129 1175 1231
f 1129 1231 1131
f 1129 1131 1130
f 1131 1231 1174
f 1131 1173 1171
f 1131 1171 1132
f 1132 1171 1133
f 1133 1171 1134
f 1136 1222 1221
f 1136 1221 1141
f 1136 1141 1140
f 1137 1139 1223
f 1138 1232 1139
f 1138 1141 1232
f 1139 1232 1233
f 1139 1233 1234
f 1139 1234 1235
f 1139 1235 1236
f 1139 1236 1237
f 1139 1237 1223
f 1141 1221 1238
f 1141 1238 1239
f 1141 1239 1240
f 1141 1240 1233
f 1141 1233 1232
f 1142 1169 1168
f 1142 1167 1165
f 1142 1165 1143
f 1143 1165 1144
f 1144 1165 1163
f 1144 1163 1151
f 1144 1151 1145
f 1145 1241 1146
f 1145 1151 1241
f 1146 1241 1151
f 1146 1151 1149
f 1151 1162 1242
f 1151 1242 1243
f 1151 1243 1244
f 1151 1244 1152
f 1152 1244 1153
f 1153 1244 1155
f 1155 1244 1243
f 1155 1243 1156
f 1156 1243 1157
f 1157 1243 1158
f 1158 1243 1162
f 1158 1162 1159
f 1162 1243 1242
f 1163 1165 1164
f 1165 1167 1166
f 1174 1231 1175
f 1175 1229 1245
f 1175 1245 1177
f 1177 1245 1178
f 1178 1245 1246
f 1178 1246 1227
f 1178 1227 1179
f 1179 1227 1226
f 1179 1226 1180
f 1180 1226 1225
f 1180 1225 1247
f 1180 1247 1181
f 1181 1247 1248
f 1181 1248 1249
f 1181 1249 1250
f 1181 1250 1183
f 1181 1183 1182
f 1183 1250 1251
f 1183 1251 1252
f 1183 1252 1253
f 1183 1253 1188
f 1183 1188 1184
f 1186 1193 1255
f 1186 1255 1254
f 1188 1253 1190
f 1188 1190 1189
f 1190 1253 1256
f 1190 1256 1192
f 1190 1192 1191
f 1192 1256 1257
f 1192 1257 1258
f 1192 1258 1259
f 1192 1259 1260
f 1192 1260 1261
f 1192 1261 1262
f 1192 1262 1254
f 1192 1254 1255
f 1192 1255 1193
f 1195 1204 1196
f 1196 1204 1197
f 1197 1212 1211
f 1197 1211 1263
f 1197 1263 1264
f 1197 1264 1265
f 1197 1265 1266
f 1197 1266 1267
f 1197 1267 1268
f 1197 1268 1269
f 1197 1269 1198
f 1198 1269 1199
f 1199 1269 1270
f 1199 1270 1271
f 1199 1271 1272
f 1199 1272 1213
f 1199 1213 1200
f 1200 1213 1201
f 1202 1273 1203
f 1203 1273 1274
f 1203 1274 1205
f 1205 1274 1275
f 1205 1275 1276
f 1205 1276 1277
f 1205 1277 1207
f 1207 1277 1278
f 1207 1278 1279
f 1207 1279 1208
f 1208 1279 1209
f 1209 1279 1210
f 1210 1263 1211
f 1210 1279 1280
f 1210 1280 1281
f 1210 1281 1263
f 1213 1272 1271
f 1213 1271 1214
f 1214 1271 1282
f 1214 1282 1283
f 1214 1283 1215
f 1215 1283 1284
f 1215 1284 1218
f 1215 1218 1217
f 1218 1284 1219
f 1219 1284 1285
f 1219 1285 1220
f 1220 1285 1282
f 1220 1282 1286
f 1220 1286 1221
f 1221 1286 1287
f 1221 1287 1288
f 1221 1288 1239
f 1221 1239 1238
f 1223 1237 1224
f 1224 1237 1236
f 1224 1236 1289
f 1224 1289 1225
f 1225 1289 1236
f 1225 1236 1290
f 1225 1290 1291
f 1225 1291 1247
f 1227 1246 1228
f 1228 1246 1229
f 1229 1246 1245
f 1233 1292 1293
f 1233 1293 1234
f 1233 1240 1239
f 1233 1239 1292
f 1234 1293 1235
f 1235 1293 1291
f 1235 1291 1236
f 1236 1291 1290
f 1239 1288 1292
f 1247 1291 1248
f 1248 1291 1294
f 1248 1294 1250
f 1248 1250 1249
f 1250 1295 1296
f 1250 1296 1256
f 1250 1256 1252
f 1250 1252 1251
f 1250 1294 1297
f 1250 1297 1295
f 1252 1256 1298
f 1252 1298 1253
f 1253 1298 1256
f 1256 1296 1299
f 1256 1299 1280
f 1256 1280 1300
f 1256 1300 1257
f 1257 1300 1301
f 1257 1301 1302
f 1257 1302 1258
f 1258 1302 1259
f 1259 1302 1260
f 1260 1302 1303
f 1260 1303 1261
f 1261 1303 1304
f 1263 1281 1264
f 1264 1281 1305
f 1264 1305 1265
f 1265 1305 1306
f 1265 1306 1266
f 1266 1306 1267
f 1267 1288 1287
f 1267 1287 1268
f 1267 1306 1292
f 1267 1292 1288
f 1268 1287 1269
f 1269 1287 1286
f 1269 1286 1270
f 1270 1286 1271
f 1271 1286 1282
f 1273 1307 1274
f 1274 1307 1308
f 1274 1308 1275
f 1275 1309 1276
f 1276 1309 1310
f 1276 1310 1311
f 1276 1311 1312
f 1276 1312 1313
f 1276 1313 1277
f 1277 1313 1314
f 1277 1314 1278
f 1278 1314 1279
f 1279 1314 1280
f 1280 1313 1301
f 1280 1301 1300
f 1280 1299 1281
f 1280 1314 1313
f 1281 1299 1315
f 1281 1315 1305
f 1282 1285 1284
f 1282 1284 1283
f 1291 1293 1292
f 1291 1292 1316
f 1291 1316 1294
f 1292 1306 1315
f 1292 1315 1316
f 1294 1316 1315
f 1294 1315 1297
f 1295 1297 1296
f 1296 1297 1299
f 1297 1315 1299
f 1301 1313 1312
f 1301 1312 1317
f 1301 1317 1302
f 1302 1317 1303
f 1303 1317 1312
f 1303 1312 1318
f 1303 1318 1304
f 1304 1318 1319
f 1305 1315 1306
f 1310 1320 1311
f 1311 1320 1318
f 1311 1318 1312
f 1318 1320 1321
f 1318 1321 1319

