# https://github.com/mikedh/trimesh
v 0.05254998 -0.00839890 0.00059692
v 0.05229889 -0.00833954 0.00307195
v 0.05254998 -0.00946432 0.00059692
v 0.05254998 -0.00637492 -0.00634412
v 0.04721775 -0.00497224 0.00307195
v 0.04616413 -0.00833954 0.00307195
v 0.04587929 -0.00946432 0.00059692
v 0.05254998 -0.00946432 -0.00672084
v 0.05254998 -0.00637492 -0.00672084
v 0.04565723 -0.00497224 0.00307195
v 0.04721775 -0.00497224 0.00059692
v 0.04587929 -0.00946432 -0.00672084
v 0.04565453 -0.00497224 0.00059883
v 0.04656776 -0.00637492 -0.00672084
v 0.04591439 -0.00497224 0.00059692
f 1 2 3
f 1 3 8
f 1 8 9
f 1 9 4
f 1 4 2
f 2 5 10
f 2 10 6
f 2 6 7
f 2 7 3
f 2 4 5
f 3 7 12
f 3 12 8
f 4 9 11
f 4 11 5
f 5 11 15
f 5 15 13
f 5 13 10
f 6 10 7
f 7 10 13
f 7 13 12
f 8 12 14
f 8 14 9
f 9 14 15
f 9 15 11
f 12 13 14
f 13 15 14

