# https://github.com/mikedh/trimesh
v 0.04678605 0.01036287 0.00514090
v 0.04678605 0.00620708 0.00514090
v 0.04678605 0.01036287 0.00379981
v 0.04164165 0.01038409 -0.00002632
v 0.04164165 0.01038038 0.00513990
v 0.04227161 0.01036340 0.00514090
v 0.04135779 0.00496538 0.00514090
v 0.04126820 0.00496962 -0.00508045
v 0.04664836 0.00628664 -0.00508345
v 0.04678605 0.00620814 0.00512289
v 0.04678605 0.01034484 0.00313827
v 0.04427373 0.01036287 -0.00002632
v 0.03954617 0.01011305 -0.00002632
v 0.03953296 0.01011305 0.00049210
v 0.03944337 0.01011305 0.00513990
v 0.04664836 0.00960650 -0.00508345
v 0.04147756 0.00960650 -0.00508345
v 0.03944809 0.01011305 0.00514090
v 0.04164165 0.01035227 0.00514090
v 0.03715173 0.00496538 0.00514090
v 0.03965085 0.00496538 -0.00002632
v 0.04125028 0.00496962 -0.00508345
v 0.04678605 0.00959377 0.00226555
v 0.04678605 0.00930258 0.00240667
v 0.04678605 0.00910049 0.00253978
v 0.04678605 0.00645425 0.00460246
v 0.04678605 0.00626012 0.00499278
v 0.04493482 0.01033264 -0.00002632
v 0.04678605 0.01013586 0.00253577
v 0.03741013 0.00839875 0.00514090
v 0.04139740 0.00960650 -0.00497836
v 0.04116352 0.00960650 -0.00465410
v 0.04083533 0.00960650 -0.00411666
v 0.04052695 0.00960650 -0.00348114
v 0.03992811 0.00862205 -0.00458504
v 0.03860405 0.00808209 -0.00193988
v 0.04007900 0.00854727 -0.00502640
v 0.04009597 0.00851544 -0.00508345
v 0.03860405 0.00496538 -0.00002632
v 0.03715268 0.00694860 0.00514090
v 0.03857858 0.00496962 -0.00211302
v 0.03866157 0.00496962 -0.00244429
v 0.03976024 0.00496962 -0.00508345
v 0.03733752 0.00826986 0.00514090
v 0.03979419 0.00830381 -0.00480422
v 0.03959049 0.00760896 -0.00480022
v 0.03924627 0.00744188 -0.00395853
v 0.03899542 0.00694807 -0.00347614
v 0.03857858 0.00760896 -0.00205097
v 0.03715551 0.00760949 0.00514090
v 0.03726773 0.00804921 0.00514090
v 0.03986775 0.00817491 -0.00508345
v 0.03876531 0.00496962 -0.00281159
v 0.03899070 0.00496962 -0.00347614
v 0.03921515 0.00496962 -0.00401958
v 0.03937264 0.00496962 -0.00435585
v 0.03959898 0.00496962 -0.00479621
v 0.03857858 0.00694807 -0.00210502
v 0.03857858 0.00562521 -0.00211102
v 0.03866252 0.00562521 -0.00244229
v 0.03975647 0.00589891 -0.00508345
v 0.03959143 0.00628664 -0.00480022
v 0.03975647 0.00760896 -0.00508345
v 0.03958955 0.00694807 -0.00480022
v 0.03936038 0.00694807 -0.00436386
v 0.03921421 0.00694807 -0.00403259
v 0.03899070 0.00628664 -0.00347614
v 0.03877003 0.00628664 -0.00281460
v 0.03877663 0.00694807 -0.00281460
v 0.03866535 0.00694807 -0.00243629
v 0.03866346 0.00628664 -0.00243929
v 0.03936227 0.00628664 -0.00436186
v 0.03975553 0.00656033 -0.00508345
v 0.03975553 0.00694807 -0.00508345
f 1 2 10
f 1 10 27
f 1 27 26
f 1 26 25
f 1 25 24
f 1 24 23
f 1 23 29
f 1 29 11
f 1 11 3
f 1 3 4
f 1 4 5
f 1 5 6
f 1 6 19
f 1 19 18
f 1 18 30
f 1 30 44
f 1 44 51
f 1 51 50
f 1 50 40
f 1 40 20
f 1 20 7
f 1 7 2
f 2 7 8
f 2 8 9
f 2 9 10
f 3 11 12
f 3 12 4
f 4 13 14
f 4 14 15
f 4 15 5
f 4 12 16
f 4 16 17
f 4 17 13
f 5 15 18
f 5 18 19
f 5 19 6
f 7 20 39
f 7 39 21
f 7 21 8
f 8 22 9
f 8 21 22
f 9 22 43
f 9 43 61
f 9 61 73
f 9 73 74
f 9 74 63
f 9 63 52
f 9 52 38
f 9 38 17
f 9 17 16
f 9 16 23
f 9 23 24
f 9 24 25
f 9 25 26
f 9 26 27
f 9 27 10
f 11 28 12
f 11 29 16
f 11 16 28
f 12 28 16
f 13 30 14
f 13 17 31
f 13 31 32
f 13 32 33
f 13 33 34
f 13 34 35
f 13 35 36
f 13 36 30
f 14 30 15
f 15 30 18
f 16 29 23
f 17 37 31
f 17 38 37
f 20 40 41
f 20 41 42
f 20 42 39
f 21 39 43
f 21 43 22
f 30 36 44
f 31 37 32
f 32 37 33
f 33 37 35
f 33 35 34
f 35 37 45
f 35 45 36
f 36 45 46
f 36 46 47
f 36 47 48
f 36 48 49
f 36 49 50
f 36 50 51
f 36 51 44
f 37 38 52
f 37 52 45
f 39 42 53
f 39 53 54
f 39 54 55
f 39 55 56
f 39 56 57
f 39 57 43
f 40 50 58
f 40 58 59
f 40 59 41
f 41 59 42
f 42 59 58
f 42 58 60
f 42 60 53
f 43 57 62
f 43 62 61
f 45 52 46
f 46 52 63
f 46 63 74
f 46 74 64
f 46 64 65
f 46 65 66
f 46 66 48
f 46 48 47
f 48 67 68
f 48 68 69
f 48 69 49
f 48 66 67
f 49 69 70
f 49 70 58
f 49 58 50
f 53 60 71
f 53 71 68
f 53 68 67
f 53 67 54
f 54 67 66
f 54 66 55
f 55 66 65
f 55 65 72
f 55 72 56
f 56 72 57
f 57 72 62
f 58 70 71
f 58 71 60
f 61 62 64
f 61 64 73
f 62 72 65
f 62 65 64
f 64 74 73
f 68 71 70
f 68 70 69

