# https://github.com/mikedh/trimesh
v -0.01075639 -0.00722767 0.00206739
v -0.01045162 -0.00765966 0.00206739
v -0.01043918 -0.00764144 0.00219344
v -0.01072529 -0.00722767 0.00219344
v -0.00387408 -0.00668802 0.00889879
v -0.00888524 -0.00722767 0.00206739
v -0.01031478 -0.00785180 0.00206739
v -0.01050138 -0.00722767 0.00308338
v -0.01030960 -0.00782298 0.00219344
v -0.01025776 -0.00775076 0.00261382
v -0.00387408 -0.00670193 0.00884131
v -0.01046302 -0.00722767 0.00322535
v -0.01038216 -0.00722767 0.00347259
v -0.01020801 -0.00722767 0.00392830
v -0.01008050 -0.00722767 0.00425934
v -0.01001312 -0.00722767 0.00443317
v -0.00995506 -0.00722767 0.00457515
v -0.00985866 -0.00722767 0.00477183
v -0.00977883 -0.00722767 0.00492420
v -0.00829228 -0.00731712 0.00706836
v -0.00804556 -0.00731712 0.00733846
v -0.00802275 -0.00731712 0.00736339
v -0.00776359 -0.00731712 0.00763903
v -0.00754071 -0.00731712 0.00786688
v -0.00750546 -0.00731712 0.00790151
v -0.00730020 -0.00731712 0.00809196
v -0.00704001 -0.00731712 0.00830804
v -0.00673523 -0.00731712 0.00855251
v -0.00647814 -0.00731712 0.00875543
v -0.00626770 -0.00731712 0.00891680
v -0.00621794 -0.00731712 0.00895281
v -0.00603342 -0.00731712 0.00906293
v -0.00387408 -0.00682385 0.00909201
v -0.00016599 -0.00773088 0.00903869
v -0.00016599 -0.00772624 0.00889879
v -0.00016599 -0.00772922 0.00881845
v -0.00016599 -0.00773419 0.00875820
v -0.00730228 -0.00844213 0.00206739
v -0.00016599 -0.00777030 0.00868202
v -0.00016599 -0.00779614 0.00862938
v -0.00016599 -0.00787234 0.00850057
v -0.00016599 -0.00829140 0.00780801
v -0.00016599 -0.00841994 0.00761963
v -0.00016599 -0.00852230 0.00749082
v -0.00016599 -0.00891785 0.00709121
v -0.01022874 -0.00797139 0.00206739
v -0.01026813 -0.00750959 0.00322535
v -0.01021215 -0.00768715 0.00296703
v -0.01021319 -0.00795184 0.00219344
v -0.00997683 -0.00797934 0.00304113
v -0.01004940 -0.00781668 0.00322535
v -0.01024947 -0.00748309 0.00335763
v -0.01030338 -0.00735057 0.00345944
v -0.00994884 -0.00742047 0.00425657
v -0.00990323 -0.00733931 0.00451143
v -0.00973840 -0.00748905 0.00465548
v -0.00978816 -0.00734395 0.00475383
v -0.00975706 -0.00726080 0.00492420
v -0.00939735 -0.00731712 0.00551495
v -0.00936832 -0.00731712 0.00556551
v -0.00930508 -0.00731712 0.00567216
v -0.00922734 -0.00731712 0.00580305
v -0.00906562 -0.00731712 0.00603852
v -0.00852863 -0.00731712 0.00676986
v -0.00847991 -0.00731712 0.00683566
v -0.00829953 -0.00731712 0.00706005
v -0.00820520 -0.00750462 0.00698802
v -0.00812641 -0.00741418 0.00715977
v -0.00795537 -0.00751158 0.00725258
v -0.00770035 -0.00751224 0.00751159
v -0.00761431 -0.00742677 0.00768335
v -0.00752827 -0.00759804 0.00759609
v -0.00735411 -0.00742644 0.00794029
v -0.00718203 -0.00750859 0.00802201
v -0.00708147 -0.00741219 0.00819376
v -0.00690939 -0.00749402 0.00826441
v -0.00700683 -0.00733666 0.00831842
v -0.00679121 -0.00737343 0.00846109
v -0.00662949 -0.00747381 0.00850542
v -0.00664608 -0.00774546 0.00825956
v -0.00625215 -0.00735256 0.00889810
v -0.00605208 -0.00742644 0.00897843
v -0.00588000 -0.00749336 0.00903730
v -0.00542594 -0.00779349 0.00906293
v -0.00597744 -0.00734494 0.00906916
v -0.00597848 -0.00731712 0.00907608
v -0.00573590 -0.00731712 0.00912249
v -0.00547778 -0.00731712 0.00914118
v -0.00387408 -0.00709417 0.00914118
v -0.00367193 -0.00709417 0.00913911
v -0.00016599 -0.00786836 0.00909548
v -0.00722557 -0.00850507 0.00206739
v -0.00016599 -0.00903876 0.00697209
v -0.00999342 -0.00825794 0.00206739
v -0.00997269 -0.00823376 0.00224469
v -0.00994781 -0.00820295 0.00245107
v -0.01017794 -0.00763879 0.00322535
v -0.01001830 -0.00803334 0.00270939
v -0.00991567 -0.00816220 0.00270939
v -0.00989597 -0.00810622 0.00296010
v -0.00973426 -0.00825695 0.00310208
v -0.00994988 -0.00794555 0.00322535
v -0.01001830 -0.00777395 0.00342342
v -0.01011782 -0.00760665 0.00347675
v -0.01021734 -0.00743538 0.00352938
v -0.00976847 -0.00752847 0.00451489
v -0.00998409 -0.00773022 0.00359518
v -0.00970834 -0.00770869 0.00432444
v -0.00966584 -0.00765701 0.00451489
v -0.00946576 -0.00798696 0.00436669
v -0.00953729 -0.00781569 0.00451489
v -0.00943156 -0.00794455 0.00451489
v -0.00949686 -0.00776500 0.00468319
v -0.00920660 -0.00798497 0.00488334
v -0.00919520 -0.00797139 0.00492420
v -0.00949168 -0.00760930 0.00492420
v -0.00951967 -0.00753576 0.00498237
v -0.00943363 -0.00743008 0.00528917
v -0.00934862 -0.00735488 0.00555027
v -0.00951967 -0.00731712 0.00528917
v -0.00920246 -0.00746453 0.00565000
v -0.00915270 -0.00740590 0.00580305
v -0.00897336 -0.00749866 0.00595265
v -0.00872871 -0.00777130 0.00596996
v -0.00838869 -0.00762719 0.00660088
v -0.00839180 -0.00742114 0.00683566
v -0.00825289 -0.00759837 0.00681765
v -0.00819483 -0.00775009 0.00672000
v -0.00812641 -0.00767688 0.00689175
v -0.00795537 -0.00776633 0.00699356
v -0.00804037 -0.00759439 0.00707667
v -0.00787036 -0.00768384 0.00716601
v -0.00769931 -0.00776898 0.00725188
v -0.00761224 -0.00794124 0.00716393
v -0.00744015 -0.00802506 0.00725050
v -0.00726703 -0.00785312 0.00759332
v -0.00709288 -0.00768053 0.00793683
v -0.00691975 -0.00776301 0.00801785
v -0.00681816 -0.00766628 0.00819030
v -0.00674663 -0.00759241 0.00831150
v -0.00617233 -0.00752185 0.00880668
v -0.00673523 -0.00783987 0.00809888
v -0.00665334 -0.00800982 0.00800747
v -0.00590695 -0.00803234 0.00854281
v -0.00589451 -0.00776335 0.00879075
v -0.00578462 -0.00793528 0.00871526
v -0.00561358 -0.00800220 0.00877413
v -0.00573590 -0.00767788 0.00897497
v -0.00559699 -0.00773088 0.00902206
v -0.00529947 -0.00796576 0.00899852
v -0.00512739 -0.00802009 0.00904561
v -0.00496256 -0.00807011 0.00906916
v -0.00521654 -0.00787499 0.00908232
v -0.00549747 -0.00763117 0.00909409
v -0.00573590 -0.00735223 0.00911972
v -0.00547778 -0.00735223 0.00914118
v -0.00016599 -0.00812609 0.00914118
v -0.00718514 -0.00854218 0.00206739
v -0.00016599 -0.00915802 0.00690699
v -0.00665645 -0.00905433 0.00206739
v -0.00668236 -0.00902419 0.00206739
v -0.00678603 -0.00891983 0.00206739
v -0.00705037 -0.00866773 0.00206739
v -0.00974151 -0.00852164 0.00206739
v -0.00985554 -0.00837786 0.00216712
v -0.00966480 -0.00844213 0.00270939
v -0.00978713 -0.00831327 0.00270939
v -0.00975292 -0.00827782 0.00296703
v -0.00962956 -0.00840602 0.00296703
v -0.00949997 -0.00853887 0.00296703
v -0.00947820 -0.00851534 0.00310415
v -0.00959120 -0.00837157 0.00318934
v -0.00970627 -0.00822448 0.00327383
v -0.00980371 -0.00813371 0.00320250
v -0.00977469 -0.00804824 0.00348298
v -0.00954351 -0.00808336 0.00399894
v -0.00950308 -0.00803400 0.00419493
v -0.00939424 -0.00812245 0.00427111
v -0.00928746 -0.00812643 0.00449342
v -0.00925325 -0.00804096 0.00471089
v -0.00902208 -0.00812113 0.00500592
v -0.00898683 -0.00803201 0.00520884
v -0.00922941 -0.00775473 0.00518252
v -0.00941393 -0.00761725 0.00505301
v -0.00929472 -0.00761030 0.00527671
v -0.00925118 -0.00752383 0.00547963
v -0.00918172 -0.00769577 0.00535427
v -0.00893707 -0.00797106 0.00538128
v -0.00889975 -0.00787830 0.00557174
v -0.00895677 -0.00773751 0.00567216
v -0.00902415 -0.00755729 0.00580305
v -0.00865407 -0.00794323 0.00586331
v -0.00848302 -0.00803963 0.00598658
v -0.00841875 -0.00796973 0.00615834
v -0.00818239 -0.00799491 0.00644575
v -0.00793878 -0.00800915 0.00672069
v -0.00786622 -0.00793859 0.00689245
v -0.00769517 -0.00802240 0.00699218
v -0.00752205 -0.00810953 0.00707459
v -0.00734478 -0.00819732 0.00715839
v -0.00718099 -0.00802174 0.00750536
v -0.00700580 -0.00785014 0.00784818
v -0.00691768 -0.00801777 0.00775953
v -0.00682438 -0.00793462 0.00793128
v -0.00673627 -0.00809959 0.00783848
v -0.00664815 -0.00826225 0.00774637
v -0.00650924 -0.00819467 0.00793198
v -0.00637033 -0.00824800 0.00798807
v -0.00608422 -0.00822680 0.00822562
v -0.00579499 -0.00820428 0.00846178
v -0.00562187 -0.00826556 0.00852204
v -0.00547778 -0.00817579 0.00869518
v -0.00547778 -0.00804692 0.00881568
v -0.00549747 -0.00787499 0.00895766
v -0.00530777 -0.00823078 0.00874504
v -0.00521758 -0.00812510 0.00889671
v -0.00481639 -0.00824337 0.00901791
v -0.00464535 -0.00829140 0.00905600
v -0.00444631 -0.00834076 0.00907747
v -0.00472102 -0.00814498 0.00908993
v -0.00496256 -0.00786803 0.00912595
v -0.00522069 -0.00761030 0.00913911
v -0.00470444 -0.00786803 0.00914118
v -0.00016599 -0.00889896 0.00914118
v -0.00016599 -0.00941509 0.00683912
v -0.00658492 -0.00917889 0.00206739
v -0.00967413 -0.00859187 0.00206739
v -0.00953522 -0.00857729 0.00270939
v -0.00940668 -0.00870550 0.00270939
v -0.00936832 -0.00866740 0.00296703
v -0.00921801 -0.00877109 0.00309930
v -0.00933204 -0.00862831 0.00318795
v -0.00944607 -0.00848520 0.00327660
v -0.00953729 -0.00831823 0.00348298
v -0.00940875 -0.00844743 0.00348298
v -0.00946784 -0.00824668 0.00385142
v -0.00966687 -0.00817744 0.00348298
v -0.00943777 -0.00821256 0.00399894
v -0.00922008 -0.00825860 0.00439300
v -0.00917758 -0.00821289 0.00456476
v -0.00895988 -0.00825562 0.00490342
v -0.00897232 -0.00822879 0.00492420
v -0.00891116 -0.00820394 0.00507517
v -0.00883859 -0.00813537 0.00530026
v -0.00871212 -0.00800982 0.00569155
v -0.00877432 -0.00786174 0.00578782
v -0.00839905 -0.00821156 0.00586538
v -0.00816477 -0.00823641 0.00616388
v -0.00824770 -0.00806448 0.00627399
v -0.00808806 -0.00815690 0.00635779
v -0.00760394 -0.00819467 0.00688691
v -0.00743186 -0.00827285 0.00698663
v -0.00717373 -0.00826987 0.00724011
v -0.00708251 -0.00819401 0.00741256
v -0.00681920 -0.00818937 0.00766534
v -0.00662327 -0.00850110 0.00746519
v -0.00645119 -0.00856470 0.00754345
v -0.00635167 -0.00849414 0.00771521
v -0.00650924 -0.00831062 0.00780316
v -0.00627496 -0.00839907 0.00788488
v -0.00619825 -0.00830432 0.00805318
v -0.00591317 -0.00828643 0.00829003
v -0.00571932 -0.00833149 0.00837868
v -0.00560632 -0.00851236 0.00825332
v -0.00543424 -0.00856371 0.00830873
v -0.00529636 -0.00848387 0.00848048
v -0.00547778 -0.00830565 0.00856567
v -0.00513672 -0.00827948 0.00879491
v -0.00496256 -0.00832619 0.00884615
v -0.00472517 -0.00839410 0.00891056
v -0.00444631 -0.00846930 0.00898328
v -0.00430533 -0.00850441 0.00902137
v -0.00413324 -0.00854483 0.00905461
v -0.00444631 -0.00812609 0.00913357
v -0.00393110 -0.00858326 0.00907608
v -0.00393110 -0.00838383 0.00913287
v -0.00418818 -0.00812609 0.00914118
v -0.00186609 -0.00889896 0.00914118
v -0.00016599 -0.00915736 0.00910102
v -0.00016599 -0.00956715 0.00683912
v -0.00652790 -0.00941476 0.00206739
v -0.00654449 -0.00931902 0.00206739
v -0.00956632 -0.00860876 0.00245107
v -0.00948753 -0.00878103 0.00206739
v -0.00948339 -0.00877805 0.00210271
v -0.00946265 -0.00875916 0.00227447
v -0.00927709 -0.00882111 0.00270939
v -0.00923978 -0.00878964 0.00296703
v -0.00906458 -0.00892812 0.00294833
v -0.00893189 -0.00900795 0.00302243
v -0.00882097 -0.00896025 0.00350237
v -0.00898165 -0.00878898 0.00367759
v -0.00895055 -0.00876314 0.00384935
v -0.00927917 -0.00857464 0.00348298
v -0.00935484 -0.00839343 0.00376555
v -0.00924289 -0.00853853 0.00367967
v -0.00920971 -0.00850607 0.00385212
v -0.00930819 -0.00834639 0.00399894
v -0.00925118 -0.00828941 0.00425657
v -0.00900031 -0.00855145 0.00420809
v -0.00869243 -0.00876281 0.00436876
v -0.00843223 -0.00876148 0.00488264
v -0.00869657 -0.00850872 0.00489303
v -0.00899409 -0.00828709 0.00477253
v -0.00893293 -0.00827020 0.00492420
v -0.00873907 -0.00829074 0.00521992
v -0.00868309 -0.00823873 0.00539167
v -0.00863230 -0.00818771 0.00554681
v -0.00845503 -0.00826589 0.00569294
v -0.00822697 -0.00829240 0.00599212
v -0.00795848 -0.00854052 0.00597273
v -0.00799269 -0.00830929 0.00626845
v -0.00792012 -0.00824933 0.00644090
v -0.00786310 -0.00819533 0.00657733
v -0.00767651 -0.00826126 0.00671515
v -0.00752619 -0.00831592 0.00681488
v -0.00740076 -0.00850375 0.00669368
v -0.00711879 -0.00874624 0.00666875
v -0.00714885 -0.00850872 0.00695893
v -0.00726807 -0.00832387 0.00708082
v -0.00697677 -0.00857232 0.00703996
v -0.00671346 -0.00856868 0.00729275
v -0.00652272 -0.00865216 0.00736339
v -0.00632679 -0.00873597 0.00743334
v -0.00625319 -0.00864322 0.00761063
v -0.00617959 -0.00854980 0.00778100
v -0.00589347 -0.00853091 0.00801716
v -0.00573590 -0.00858094 0.00807603
v -0.00558351 -0.00875685 0.00797838
v -0.00550888 -0.00866044 0.00814667
v -0.00528185 -0.00873498 0.00821108
v -0.00520306 -0.00863295 0.00837244
v -0.00512532 -0.00853058 0.00853104
v -0.00521654 -0.00838151 0.00863839
v -0.00480499 -0.00849712 0.00875266
v -0.00463187 -0.00854284 0.00880252
v -0.00444631 -0.00859021 0.00885377
v -0.00428459 -0.00875784 0.00875474
v -0.00420892 -0.00865117 0.00890710
v -0.00393110 -0.00871179 0.00896181
v -0.00374554 -0.00874658 0.00900337
v -0.00357345 -0.00878070 0.00903869
v -0.00341381 -0.00880488 0.00905946
v -0.00387408 -0.00838383 0.00913495
v -0.00367193 -0.00838316 0.00914118
v -0.00315672 -0.00884000 0.00907955
v -0.00341381 -0.00864156 0.00911556
v -0.00315672 -0.00864156 0.00913634
v -0.00289859 -0.00864156 0.00914118
v -0.00212422 -0.00889896 0.00913495
v -0.00186609 -0.00910369 0.00908439
v -0.00057650 -0.00915736 0.00909548
v -0.00031941 -0.00915736 0.00909963
v -0.00016599 -0.00930014 0.00904423
v -0.00016599 -0.00967316 0.00683981
v -0.00652894 -0.00967316 0.00206739
v -0.00924703 -0.00897019 0.00206739
v -0.00914855 -0.00897549 0.00245107
v -0.00911434 -0.00894998 0.00270939
v -0.00896299 -0.00903147 0.00284998
v -0.00876603 -0.00907686 0.00322535
v -0.00869761 -0.00902518 0.00360210
v -0.00853796 -0.00909806 0.00374061
v -0.00860638 -0.00896058 0.00399894
v -0.00878365 -0.00883171 0.00399894
v -0.00873389 -0.00879594 0.00419701
v -0.00917758 -0.00847493 0.00399894
v -0.00852552 -0.00883171 0.00451489
v -0.00847473 -0.00879560 0.00471020
v -0.00841875 -0.00874989 0.00492420
v -0.00882719 -0.00832585 0.00500592
v -0.00818654 -0.00902915 0.00464579
v -0.00805074 -0.00907851 0.00474829
v -0.00813263 -0.00899338 0.00481754
v -0.00825496 -0.00881879 0.00503085
v -0.00820313 -0.00878368 0.00518806
v -0.00791908 -0.00876380 0.00566246
v -0.00838454 -0.00871941 0.00503085
v -0.00847266 -0.00853920 0.00520537
v -0.00836070 -0.00843849 0.00554681
v -0.00850375 -0.00830962 0.00554681
v -0.00829332 -0.00836561 0.00577189
v -0.00813056 -0.00846433 0.00585015
v -0.00804867 -0.00857895 0.00578020
v -0.00786622 -0.00872173 0.00580305
v -0.00768273 -0.00878003 0.00594918
v -0.00778536 -0.00863229 0.00604683
v -0.00771694 -0.00855212 0.00624698
v -0.00729710 -0.00865481 0.00659465
v -0.00702964 -0.00885192 0.00658080
v -0.00694671 -0.00880091 0.00675532
v -0.00685652 -0.00874359 0.00692707
v -0.00704726 -0.00865912 0.00685713
v -0.00719343 -0.00879660 0.00649700
v -0.00659425 -0.00873995 0.00717986
v -0.00642216 -0.00879494 0.00726089
v -0.00615574 -0.00878865 0.00750536
v -0.00604379 -0.00872107 0.00767781
v -0.00587274 -0.00877473 0.00774360
v -0.00596915 -0.00862632 0.00784818
v -0.00541143 -0.00880124 0.00803932
v -0.00510977 -0.00877838 0.00826441
v -0.00496256 -0.00857365 0.00857813
v -0.00471066 -0.00864554 0.00864393
v -0.00444631 -0.00871875 0.00871111
v -0.00419544 -0.00886053 0.00865709
v -0.00411251 -0.00878799 0.00879214
v -0.00461632 -0.00878765 0.00853450
v -0.00444631 -0.00882211 0.00858229
v -0.00418818 -0.00899868 0.00846940
v -0.00387408 -0.00882409 0.00884962
v -0.00366468 -0.00884728 0.00890987
v -0.00341381 -0.00894468 0.00888425
v -0.00315672 -0.00906659 0.00882330
v -0.00315672 -0.00896853 0.00895212
v -0.00289859 -0.00900265 0.00899990
v -0.00275554 -0.00902286 0.00902345
v -0.00393110 -0.00881780 0.00883300
v -0.00258345 -0.00904406 0.00904423
v -0.00238234 -0.00906526 0.00906293
v -0.00212422 -0.00908812 0.00907816
v -0.00238234 -0.00889896 0.00911972
v -0.00095384 -0.00928490 0.00902691
v -0.00078176 -0.00929086 0.00903384
v -0.00057650 -0.00929517 0.00903869
v -0.00031941 -0.00929848 0.00904284
v -0.00016599 -0.00938660 0.00889879
v -0.00016599 -0.00982554 0.00686613
v -0.00657662 -0.00993255 0.00206739
v -0.00907598 -0.00910237 0.00206739
v -0.00905007 -0.00909939 0.00219344
v -0.00902001 -0.00907553 0.00245107
v -0.00898476 -0.00904837 0.00270939
v -0.00882926 -0.00916332 0.00270939
v -0.00883859 -0.00909707 0.00294833
v -0.00863023 -0.00924084 0.00296703
v -0.00859498 -0.00912655 0.00350237
v -0.00840735 -0.00926502 0.00348298
v -0.00835033 -0.00922759 0.00374061
v -0.00847680 -0.00905268 0.00399894
v -0.00844467 -0.00902915 0.00413052
v -0.00834826 -0.00896058 0.00451489
v -0.00809220 -0.00922759 0.00425657
v -0.00803208 -0.00918717 0.00449204
v -0.00787969 -0.00926039 0.00456337
v -0.00831405 -0.00908514 0.00423233
v -0.00797403 -0.00905499 0.00492420
v -0.00809324 -0.00897449 0.00492420
v -0.00779572 -0.00922759 0.00478361
v -0.00780402 -0.00916432 0.00492420
v -0.00805074 -0.00895495 0.00503639
v -0.00779780 -0.00889929 0.00554611
v -0.00823112 -0.00855444 0.00554681
v -0.00761638 -0.00899536 0.00560013
v -0.00773767 -0.00881714 0.00580305
v -0.00753345 -0.00894832 0.00580098
v -0.00728569 -0.00896389 0.00606900
v -0.00703482 -0.00897946 0.00633702
v -0.00728051 -0.00883933 0.00631278
v -0.00688347 -0.00902120 0.00643536
v -0.00678603 -0.00898576 0.00659465
v -0.00676944 -0.00885159 0.00683912
v -0.00668547 -0.00879792 0.00700810
v -0.00626563 -0.00897615 0.00710437
v -0.00624593 -0.00883933 0.00734884
v -0.00609355 -0.00901392 0.00719717
v -0.00600232 -0.00896290 0.00735161
v -0.00597226 -0.00881946 0.00759816
v -0.00592250 -0.00905632 0.00726643
v -0.00580847 -0.00900166 0.00743818
v -0.00535027 -0.00902816 0.00773806
v -0.00546637 -0.00889466 0.00785787
v -0.00522069 -0.00905930 0.00778308
v -0.00522069 -0.00897317 0.00791189
v -0.00520617 -0.00883470 0.00812520
v -0.00504549 -0.00900994 0.00796938
v -0.00496153 -0.00894501 0.00811273
v -0.00445875 -0.00896124 0.00837868
v -0.00478840 -0.00874757 0.00848464
v -0.00404305 -0.00902253 0.00850472
v -0.00394665 -0.00895992 0.00863354
v -0.00438100 -0.00905334 0.00829072
v -0.00418818 -0.00909011 0.00833989
v -0.00387408 -0.00896754 0.00865501
v -0.00367193 -0.00898774 0.00871457
v -0.00332777 -0.00904174 0.00878798
v -0.00341381 -0.00911032 0.00865570
v -0.00323343 -0.00927463 0.00849156
v -0.00315154 -0.00920705 0.00862246
v -0.00289859 -0.00909939 0.00887039
v -0.00265809 -0.00911562 0.00892234
v -0.00236576 -0.00920506 0.00887593
v -0.00212422 -0.00921666 0.00892095
v -0.00186609 -0.00923256 0.00894935
v -0.00160900 -0.00932830 0.00884408
v -0.00135088 -0.00934089 0.00886624
v -0.00109275 -0.00935314 0.00888771
v -0.00109275 -0.00955622 0.00853312
v -0.00085432 -0.00934983 0.00892441
v -0.00186609 -0.00931505 0.00882053
v -0.00083463 -0.00949162 0.00867648
v -0.00057650 -0.00937600 0.00889879
v -0.00031941 -0.00938329 0.00889879
v -0.00016599 -0.00950189 0.00869518
v -0.00016599 -0.00993089 0.00688760
v -0.00662949 -0.01006638 0.00206739
v -0.00888835 -0.00923952 0.00206739
v -0.00869968 -0.00928623 0.00257919
v -0.00867688 -0.00927198 0.00270939
v -0.00843637 -0.00928192 0.00333408
v -0.00827880 -0.00933658 0.00348298
v -0.00822075 -0.00930544 0.00374061
v -0.00818758 -0.00928788 0.00387636
v -0.00814404 -0.00926237 0.00404880
v -0.00829020 -0.00918850 0.00397678
v -0.00793049 -0.00928755 0.00439162
v -0.00770864 -0.00930577 0.00470535
v -0.00765370 -0.00927761 0.00487710
v -0.00781024 -0.00911363 0.00503639
v -0.00772212 -0.00906328 0.00528917
v -0.00790457 -0.00901325 0.00512573
v -0.00768584 -0.00923852 0.00492420
v -0.00752101 -0.00919645 0.00527463
v -0.00767651 -0.00903280 0.00542838
v -0.00785067 -0.00897748 0.00528917
v -0.00753345 -0.00908017 0.00552741
v -0.00728051 -0.00922395 0.00555235
v -0.00744326 -0.00904837 0.00571441
v -0.00728569 -0.00910071 0.00580098
v -0.00695604 -0.00906526 0.00626291
v -0.00678603 -0.00912655 0.00633702
v -0.00671139 -0.00906957 0.00651985
v -0.00662327 -0.00901955 0.00669230
v -0.00652583 -0.00898145 0.00684951
v -0.00618788 -0.00906427 0.00702611
v -0.00600232 -0.00911496 0.00710437
v -0.00584890 -0.00927993 0.00695062
v -0.00575145 -0.00923786 0.00709883
v -0.00572761 -0.00909508 0.00735161
v -0.00563742 -0.00904241 0.00750190
v -0.00545290 -0.00906990 0.00759609
v -0.00520203 -0.00918949 0.00758778
v -0.00496256 -0.00924349 0.00766257
v -0.00496153 -0.00910701 0.00787657
v -0.00487445 -0.00904406 0.00801924
v -0.00394665 -0.00912423 0.00840430
v -0.00387408 -0.00905334 0.00853658
v -0.00387408 -0.00904638 0.00854628
v -0.00470444 -0.00907818 0.00806772
v -0.00445875 -0.00912258 0.00814251
v -0.00420581 -0.00922958 0.00812174
v -0.00393110 -0.00926072 0.00821108
v -0.00367193 -0.00908116 0.00858575
v -0.00341381 -0.00924979 0.00845209
v -0.00387408 -0.00911297 0.00845209
v -0.00387408 -0.00915173 0.00839599
v -0.00387408 -0.00926900 0.00822493
v -0.00378078 -0.00928159 0.00824571
v -0.00341381 -0.00932399 0.00832327
v -0.00315154 -0.00934420 0.00839668
v -0.00306238 -0.00929385 0.00852411
v -0.00289859 -0.00922825 0.00867856
v -0.00264047 -0.00925509 0.00871803
v -0.00226831 -0.00928888 0.00877413
v -0.00244039 -0.00927397 0.00874920
v -0.00212422 -0.00929915 0.00879214
v -0.00126069 -0.00954793 0.00851857
v -0.00186609 -0.00941774 0.00864116
v -0.00186609 -0.00958802 0.00833574
v -0.00160900 -0.00959895 0.00835859
v -0.00109275 -0.00962810 0.00838283
v -0.00083463 -0.00956450 0.00854766
v -0.00057650 -0.00949592 0.00868479
v -0.00031941 -0.00957245 0.00856290
v -0.00016599 -0.00957410 0.00856636
v -0.00016599 -0.01001338 0.00692223
v -0.00662224 -0.01006870 0.00219344
v -0.00668236 -0.01006638 0.00206739
v -0.00016599 -0.01007069 0.00694924
v -0.00875877 -0.00932002 0.00206739
v -0.00854833 -0.00934387 0.00270939
v -0.00867169 -0.00937037 0.00206739
v -0.00857217 -0.00942669 0.00206739
v -0.00838869 -0.00951348 0.00219344
v -0.00835448 -0.00949526 0.00245107
v -0.00822490 -0.00956615 0.00245107
v -0.00820002 -0.00955191 0.00262005
v -0.00829642 -0.00948201 0.00270732
v -0.00833582 -0.00935546 0.00323920
v -0.00808910 -0.00949228 0.00322535
v -0.00793360 -0.00954760 0.00336871
v -0.00789317 -0.00952640 0.00354046
v -0.00805592 -0.00939157 0.00374061
v -0.00784445 -0.00950156 0.00374061
v -0.00763608 -0.00952640 0.00405988
v -0.00758321 -0.00950089 0.00425657
v -0.00741631 -0.00954661 0.00439370
v -0.00779572 -0.00932631 0.00449204
v -0.00755729 -0.00935480 0.00478361
v -0.00763712 -0.00926867 0.00492420
v -0.00750961 -0.00933294 0.00492420
v -0.00742253 -0.00929252 0.00517975
v -0.00736551 -0.00926204 0.00535150
v -0.00712501 -0.00927198 0.00563961
v -0.00703275 -0.00923885 0.00581829
v -0.00703482 -0.00911496 0.00606900
v -0.00678395 -0.00925177 0.00608631
v -0.00663675 -0.00928556 0.00618881
v -0.00653412 -0.00925807 0.00634325
v -0.00652583 -0.00912688 0.00659465
v -0.00645119 -0.00906659 0.00677263
v -0.00626563 -0.00912224 0.00684951
v -0.00601372 -0.00925012 0.00685297
v -0.00611324 -0.00928225 0.00669784
v -0.00594219 -0.00931670 0.00677887
v -0.00564468 -0.00955887 0.00648315
v -0.00554309 -0.00952243 0.00665559
v -0.00537307 -0.00955191 0.00672416
v -0.00567578 -0.00931074 0.00701711
v -0.00556174 -0.00926900 0.00718817
v -0.00547674 -0.00921434 0.00734261
v -0.00510251 -0.00928987 0.00748805
v -0.00527459 -0.00925542 0.00742295
v -0.00479566 -0.00927430 0.00771590
v -0.00430325 -0.00928126 0.00798738
v -0.00413117 -0.00930676 0.00803378
v -0.00387408 -0.00931306 0.00814459
v -0.00380359 -0.00954495 0.00773945
v -0.00368645 -0.00935646 0.00814598
v -0.00316709 -0.00949162 0.00811551
v -0.00308934 -0.00955820 0.00802270
v -0.00289859 -0.00950785 0.00818684
v -0.00289859 -0.00940085 0.00838283
v -0.00289859 -0.00930809 0.00854974
v -0.00212422 -0.00957212 0.00830527
v -0.00212422 -0.00950056 0.00843408
v -0.00212422 -0.00938461 0.00864116
v -0.00236576 -0.00933956 0.00865432
v -0.00186609 -0.00951779 0.00846456
v -0.00212422 -0.00965394 0.00812520
v -0.00186609 -0.00968243 0.00812520
v -0.00160900 -0.00970363 0.00812520
v -0.00109275 -0.00973908 0.00812520
v -0.00083463 -0.00964268 0.00838283
v -0.00031941 -0.00965626 0.00838283
v -0.00016599 -0.00960856 0.00849226
v -0.00669066 -0.01006870 0.00219344
v -0.00031941 -0.01007135 0.00694785
v -0.00057650 -0.01007235 0.00694577
v -0.00691975 -0.01003392 0.00206739
v -0.00016599 -0.01007069 0.00702403
v -0.00840320 -0.00952143 0.00206739
v -0.00825911 -0.00958371 0.00219344
v -0.00805592 -0.00964367 0.00245107
v -0.00807147 -0.00959763 0.00270732
v -0.00800720 -0.00958504 0.00296703
v -0.00796055 -0.00956185 0.00322535
v -0.00779780 -0.00963539 0.00322535
v -0.00780298 -0.00958736 0.00346567
v -0.00771590 -0.00956682 0.00374061
v -0.00767858 -0.00954860 0.00388813
v -0.00745467 -0.00956549 0.00425657
v -0.00728362 -0.00963837 0.00425657
v -0.00727844 -0.00957874 0.00449342
v -0.00718928 -0.00956052 0.00469634
v -0.00711361 -0.00952474 0.00492420
v -0.00728258 -0.00940880 0.00503085
v -0.00690213 -0.00954727 0.00516867
v -0.00728051 -0.00932995 0.00527463
v -0.00719343 -0.00930511 0.00546924
v -0.00703275 -0.00934685 0.00555235
v -0.00670932 -0.00931770 0.00601705
v -0.00641491 -0.00955920 0.00571579
v -0.00634027 -0.00952739 0.00588824
v -0.00616818 -0.00956251 0.00597758
v -0.00646570 -0.00932068 0.00627261
v -0.00637655 -0.00928457 0.00644436
v -0.00627496 -0.00925442 0.00659811
v -0.00627496 -0.00936772 0.00634325
v -0.00590695 -0.00956052 0.00623105
v -0.00573176 -0.00958934 0.00631762
v -0.00547778 -0.00966984 0.00631970
v -0.00546637 -0.00958305 0.00657249
v -0.00607903 -0.00952673 0.00614933
v -0.00547674 -0.00934188 0.00709883
v -0.00522069 -0.00957609 0.00678025
v -0.00491280 -0.00957046 0.00702334
v -0.00508489 -0.00954164 0.00695963
v -0.00498433 -0.00951017 0.00710299
v -0.00522069 -0.00943331 0.00709329
v -0.00479359 -0.00953170 0.00719510
v -0.00496256 -0.00931306 0.00753376
v -0.00470651 -0.00948698 0.00734192
v -0.00470755 -0.00934784 0.00762171
v -0.00420581 -0.00935977 0.00788765
v -0.00397671 -0.00952176 0.00769304
v -0.00387408 -0.00949029 0.00780939
v -0.00393110 -0.00933227 0.00808226
v -0.00367193 -0.00963108 0.00760925
v -0.00367193 -0.00955953 0.00776853
v -0.00326142 -0.00953866 0.00798600
v -0.00341381 -0.00952143 0.00795275
v -0.00387408 -0.00956947 0.00765080
v -0.00341381 -0.00958636 0.00782394
v -0.00316709 -0.00960458 0.00788627
v -0.00289859 -0.00966156 0.00786688
v -0.00289859 -0.00957676 0.00805802
v -0.00264047 -0.00953005 0.00822770
v -0.00264047 -0.00944424 0.00838283
v -0.00232429 -0.00955622 0.00827549
v -0.00264047 -0.00959630 0.00809888
v -0.00213044 -0.00976260 0.00785095
v -0.00264047 -0.00969767 0.00786688
v -0.00238234 -0.00972782 0.00786688
v -0.00186609 -0.00976790 0.00790704
v -0.00160900 -0.00977817 0.00793406
v -0.00091341 -0.00980070 0.00799223
v -0.00083048 -0.00976061 0.00810096
v -0.00160900 -0.00982819 0.00780524
v -0.00109275 -0.00984542 0.00785026
v -0.00057650 -0.00975432 0.00813282
v -0.00016599 -0.00970098 0.00828380
v -0.00016599 -0.00965924 0.00838283
v -0.00057650 -0.01007235 0.00702196
v -0.00413117 -0.01006804 0.00572549
v -0.00610910 -0.01006804 0.00331746
v -0.00615885 -0.01006671 0.00348298
v -0.00641905 -0.01006671 0.00296703
v -0.00666578 -0.01006572 0.00240051
v -0.00031941 -0.01007135 0.00702403
v -0.00702549 -0.01001205 0.00206739
v -0.00016599 -0.01005744 0.00710021
v -0.00827362 -0.00959034 0.00206739
v -0.00816995 -0.00963771 0.00206739
v -0.00805592 -0.00967581 0.00219344
v -0.00777810 -0.00975631 0.00244276
v -0.00779780 -0.00971357 0.00270939
v -0.00779780 -0.00967680 0.00296703
v -0.00751686 -0.00975001 0.00320319
v -0.00754071 -0.00969403 0.00348298
v -0.00754071 -0.00964235 0.00374061
v -0.00754589 -0.00958802 0.00398370
v -0.00702549 -0.00967316 0.00451489
v -0.00703793 -0.00960061 0.00477807
v -0.00728362 -0.00969403 0.00399894
v -0.00699958 -0.00974604 0.00423164
v -0.00698714 -0.00958239 0.00492420
v -0.00694878 -0.00956814 0.00503085
v -0.00676737 -0.00964036 0.00503085
v -0.00675389 -0.00957410 0.00526840
v -0.00665956 -0.00955323 0.00544292
v -0.00650406 -0.00958371 0.00553573
v -0.00625319 -0.00959199 0.00580236
v -0.00599299 -0.00967879 0.00580305
v -0.00599299 -0.00959233 0.00606276
v -0.00573590 -0.00967548 0.00606138
v -0.00546534 -0.00975531 0.00604822
v -0.00527667 -0.00978347 0.00612578
v -0.00520203 -0.00975001 0.00630031
v -0.00522069 -0.00965427 0.00657733
v -0.00498433 -0.00961419 0.00685851
v -0.00470651 -0.00959696 0.00710299
v -0.00462150 -0.00955820 0.00724981
v -0.00430325 -0.00953998 0.00747143
v -0.00420684 -0.00949990 0.00760786
v -0.00413117 -0.00956417 0.00752129
v -0.00367193 -0.00973179 0.00735161
v -0.00341381 -0.00967813 0.00760925
v -0.00387408 -0.00958802 0.00760855
v -0.00393110 -0.00968144 0.00735092
v -0.00387408 -0.00969270 0.00735161
v -0.00390622 -0.00958106 0.00760786
v -0.00315672 -0.00972086 0.00760925
v -0.00290585 -0.00976360 0.00759747
v -0.00204854 -0.00980832 0.00775399
v -0.00186609 -0.00981759 0.00777823
v -0.00238234 -0.00978944 0.00770413
v -0.00282499 -0.00981064 0.00750398
v -0.00264047 -0.00977486 0.00766465
v -0.00083048 -0.00984211 0.00789042
v -0.00074133 -0.00980302 0.00799846
v -0.00057650 -0.00980534 0.00800400
v -0.00186609 -0.00987722 0.00760925
v -0.00160900 -0.00989544 0.00760925
v -0.00109275 -0.00992294 0.00760925
v -0.00083463 -0.00993321 0.00760925
v -0.00031941 -0.00975697 0.00814044
v -0.00016599 -0.00975863 0.00814321
v -0.00016599 -0.01004684 0.00715354
v -0.00031941 -0.01004651 0.00715285
v -0.00031941 -0.01000311 0.00735161
v -0.00057650 -0.01004419 0.00715077
v -0.00083463 -0.01007069 0.00701434
v -0.00212422 -0.01006837 0.00674493
v -0.00335472 -0.01006771 0.00623105
v -0.00459040 -0.01006208 0.00543046
v -0.00485579 -0.01006340 0.00518044
v -0.00511495 -0.01006406 0.00492697
v -0.00590073 -0.01006671 0.00392483
v -0.00384402 -0.01006572 0.00596026
v -0.00612672 -0.01006042 0.00361734
v -0.00638692 -0.01006141 0.00310969
v -0.00654760 -0.01004220 0.00296703
v -0.00676737 -0.01002000 0.00270939
v -0.00675804 -0.01004054 0.00247254
v -0.00702549 -0.01000344 0.00219344
v -0.00728362 -0.00994580 0.00219344
v -0.00728362 -0.00995408 0.00206739
v -0.00805592 -0.00968840 0.00206739
v -0.00782993 -0.00976492 0.00219344
v -0.00767962 -0.00980567 0.00235134
v -0.00764956 -0.00979440 0.00252379
v -0.00756870 -0.00976426 0.00296703
v -0.00741424 -0.00980302 0.00310208
v -0.00728777 -0.00983250 0.00320319
v -0.00737588 -0.00978910 0.00327452
v -0.00732405 -0.00977155 0.00348298
v -0.00726185 -0.00975134 0.00372261
v -0.00676737 -0.00970463 0.00477253
v -0.00676737 -0.00966719 0.00492420
v -0.00688140 -0.00962380 0.00492420
v -0.00711776 -0.00978910 0.00379671
v -0.00706281 -0.00977155 0.00399894
v -0.00689695 -0.00980202 0.00412914
v -0.00676011 -0.00982521 0.00423164
v -0.00676011 -0.00976360 0.00451628
v -0.00650924 -0.00972749 0.00503085
v -0.00650924 -0.00965759 0.00528917
v -0.00625112 -0.00967150 0.00554681
v -0.00598262 -0.00975730 0.00553780
v -0.00580536 -0.00978612 0.00561606
v -0.00572657 -0.00975796 0.00579336
v -0.00537204 -0.00980799 0.00595334
v -0.00520203 -0.00982521 0.00604822
v -0.00510458 -0.00980501 0.00620127
v -0.00496256 -0.00978148 0.00638342
v -0.00496256 -0.00971987 0.00657733
v -0.00470444 -0.00969800 0.00683566
v -0.00444631 -0.00966653 0.00709329
v -0.00444631 -0.00958139 0.00730106
v -0.00420684 -0.00960922 0.00737170
v -0.00367193 -0.00978977 0.00718609
v -0.00354028 -0.00980169 0.00722141
v -0.00343765 -0.00977188 0.00734746
v -0.00418818 -0.00972086 0.00709329
v -0.00394457 -0.00977022 0.00708983
v -0.00387408 -0.00977519 0.00711545
v -0.00315672 -0.00978513 0.00743264
v -0.00213044 -0.00984542 0.00762933
v -0.00238234 -0.00983780 0.00757531
v -0.00264047 -0.00988517 0.00735161
v -0.00264047 -0.00982256 0.00753583
v -0.00315672 -0.00983184 0.00730383
v -0.00290585 -0.00984575 0.00736962
v -0.00057650 -0.00985735 0.00786688
v -0.00031941 -0.00986298 0.00786688
v -0.00016599 -0.00980931 0.00801439
v -0.00016599 -0.00977950 0.00809057
v -0.00238234 -0.00991035 0.00735161
v -0.00212422 -0.00993188 0.00735161
v -0.00186609 -0.00995143 0.00735161
v -0.00160900 -0.00996567 0.00735161
v -0.00135088 -0.00997694 0.00735161
v -0.00109275 -0.00998721 0.00735161
v -0.00083463 -0.00999483 0.00735161
v -0.00057650 -0.00993818 0.00760925
v -0.00016599 -0.01002199 0.00726989
v -0.00031941 -0.00994249 0.00760925
v -0.00057650 -0.00999946 0.00735161
v -0.00016599 -0.01000410 0.00735161
v -0.00016599 -0.00994447 0.00760925
v -0.00083463 -0.01004220 0.00714315
v -0.00109275 -0.01006738 0.00699772
v -0.00130734 -0.01006340 0.00697971
v -0.00160900 -0.01002398 0.00709398
v -0.00186609 -0.01000874 0.00709398
v -0.00212422 -0.00999218 0.00709398
v -0.00229423 -0.01006274 0.00672000
v -0.00284780 -0.01006738 0.00648453
v -0.00315672 -0.01001835 0.00657803
v -0.00341381 -0.00999185 0.00657803
v -0.00343039 -0.01004220 0.00631762
v -0.00420684 -0.01004518 0.00580859
v -0.00444631 -0.01001371 0.00580305
v -0.00470444 -0.00997793 0.00580305
v -0.00468785 -0.01002994 0.00552880
v -0.00496256 -0.00998456 0.00554681
v -0.00495012 -0.01003259 0.00527602
v -0.00401610 -0.01005446 0.00589724
v -0.00502891 -0.01004982 0.00509872
v -0.00520928 -0.01003359 0.00502046
v -0.00528703 -0.01004949 0.00483001
v -0.00536167 -0.01006174 0.00465825
v -0.00574212 -0.01004816 0.00428012
v -0.00599403 -0.01000576 0.00425657
v -0.00625215 -0.00995540 0.00425657
v -0.00625215 -0.00998853 0.00399894
v -0.00387408 -0.00997959 0.00637649
v -0.00387408 -0.00999085 0.00631970
v -0.00393110 -0.00998389 0.00631970
v -0.00418818 -0.00995209 0.00631970
v -0.00418818 -0.01000145 0.00606138
v -0.00650924 -0.00996965 0.00374061
v -0.00650924 -0.00999781 0.00348298
v -0.00676737 -0.00997131 0.00322535
v -0.00676737 -0.00999681 0.00296703
v -0.00702549 -0.00994083 0.00296703
v -0.00702549 -0.00996369 0.00270939
v -0.00728362 -0.00992327 0.00245107
v -0.00754071 -0.00987159 0.00219344
v -0.00740905 -0.00991963 0.00206739
v -0.00793982 -0.00973378 0.00206739
v -0.00771694 -0.00982024 0.00206739
v -0.00770139 -0.00981428 0.00219344
v -0.00755418 -0.00983946 0.00244276
v -0.00743912 -0.00981229 0.00296703
v -0.00728362 -0.00986729 0.00296703
v -0.00702549 -0.00991068 0.00322535
v -0.00702549 -0.00987325 0.00348298
v -0.00702964 -0.00983283 0.00372261
v -0.00719654 -0.00981693 0.00348298
v -0.00661187 -0.00979341 0.00460354
v -0.00651961 -0.00977983 0.00479607
v -0.00661602 -0.00971821 0.00492420
v -0.00693427 -0.00981527 0.00399894
v -0.00676737 -0.00986894 0.00399894
v -0.00666889 -0.00981196 0.00443109
v -0.00651961 -0.00984178 0.00451628
v -0.00637759 -0.00980136 0.00489788
v -0.00636722 -0.00979805 0.00492420
v -0.00623246 -0.00975068 0.00527048
v -0.00588933 -0.00980964 0.00544569
v -0.00606141 -0.00978347 0.00534527
v -0.00572657 -0.00983018 0.00553780
v -0.00563431 -0.00980931 0.00569986
v -0.00546534 -0.00982853 0.00579336
v -0.00496256 -0.00987755 0.00606138
v -0.00522069 -0.00988650 0.00580305
v -0.00496256 -0.00982223 0.00625460
v -0.00472206 -0.00977519 0.00658357
v -0.00452821 -0.00979142 0.00667291
v -0.00444424 -0.00976061 0.00682458
v -0.00367193 -0.00983416 0.00705658
v -0.00387408 -0.00981793 0.00699148
v -0.00343765 -0.00985238 0.00711891
v -0.00418818 -0.00982753 0.00678095
v -0.00264047 -0.00995507 0.00709398
v -0.00315672 -0.00989876 0.00709398
v -0.00289859 -0.00992957 0.00709398
v -0.00016599 -0.00989776 0.00776161
v -0.00016599 -0.00986497 0.00786688
v -0.00016599 -0.00983184 0.00795552
v -0.00238234 -0.00997462 0.00709398
v -0.00137679 -0.01003889 0.00707667
v -0.00109275 -0.01003856 0.00712722
v -0.00238131 -0.01003524 0.00681765
v -0.00264047 -0.01001139 0.00683566
v -0.00289859 -0.00998787 0.00683566
v -0.00315672 -0.00996402 0.00683566
v -0.00341381 -0.00993718 0.00683566
v -0.00367193 -0.00996236 0.00657803
v -0.00444631 -0.00996601 0.00606138
v -0.00470444 -0.00992625 0.00606138
v -0.00496256 -0.00993785 0.00580305
v -0.00522069 -0.00994182 0.00554681
v -0.00522069 -0.00998721 0.00528917
v -0.00547778 -0.00994348 0.00528917
v -0.00547778 -0.00998588 0.00503085
v -0.00558455 -0.00998323 0.00492420
v -0.00546015 -0.01003027 0.00475521
v -0.00573590 -0.01001735 0.00451489
v -0.00599403 -0.00997064 0.00451489
v -0.00625215 -0.00991731 0.00451489
v -0.00650924 -0.00993652 0.00399894
v -0.00387408 -0.00993685 0.00657803
v -0.00393110 -0.00992957 0.00657733
v -0.00418818 -0.00988981 0.00657733
v -0.00444631 -0.00991135 0.00631970
v -0.00676737 -0.00994315 0.00348298
v -0.00728362 -0.00989677 0.00270939
v -0.00763401 -0.00984940 0.00206739
v -0.00754071 -0.00988120 0.00206739
v -0.00748577 -0.00982919 0.00270939
v -0.00676737 -0.00991002 0.00374061
v -0.00643979 -0.00982157 0.00472612
v -0.00650924 -0.00989511 0.00425657
v -0.00627600 -0.00985470 0.00479607
v -0.00623038 -0.00983780 0.00492420
v -0.00619306 -0.00982323 0.00503085
v -0.00598262 -0.00982588 0.00527048
v -0.00573590 -0.00988915 0.00528917
v -0.00547778 -0.00989014 0.00554681
v -0.00472206 -0.00985072 0.00633840
v -0.00464638 -0.00981892 0.00650115
v -0.00444424 -0.00983880 0.00658357
v -0.00435612 -0.00981031 0.00673108
v -0.00367193 -0.00990174 0.00683566
v -0.00387408 -0.00984542 0.00690699
v -0.00394457 -0.00984907 0.00685436
v -0.00573590 -0.00993851 0.00503085
v -0.00573590 -0.00995540 0.00492420
v -0.00599403 -0.00992990 0.00477253
v -0.00612257 -0.00986795 0.00492420
v -0.00599403 -0.00990041 0.00492420
v -0.00387408 -0.00986298 0.00684951
v -0.00599299 -0.00987921 0.00503085
f 1 2 3
f 1 3 4
f 1 4 5
f 1 5 6
f 1 6 38
f 1 38 92
f 1 92 158
f 1 158 163
f 1 163 162
f 1 162 161
f 1 161 160
f 1 160 226
f 1 226 282
f 1 282 281
f 1 281 356
f 1 356 429
f 1 429 506
f 1 506 578
f 1 578 650
f 1 650 731
f 1 731 808
f 1 808 911
f 1 911 982
f 1 982 981
f 1 981 913
f 1 913 912
f 1 912 809
f 1 809 734
f 1 734 733
f 1 733 652
f 1 652 583
f 1 583 582
f 1 582 580
f 1 580 507
f 1 507 430
f 1 430 357
f 1 357 284
f 1 284 227
f 1 227 164
f 1 164 94
f 1 94 46
f 1 46 7
f 1 7 2
f 2 7 3
f 3 8 4
f 3 7 9
f 3 9 10
f 3 10 8
f 4 8 5
f 5 11 6
f 5 8 12
f 5 12 13
f 5 13 14
f 5 14 15
f 5 15 16
f 5 16 17
f 5 17 18
f 5 18 19
f 5 19 20
f 5 20 21
f 5 21 22
f 5 22 23
f 5 23 24
f 5 24 25
f 5 25 26
f 5 26 27
f 5 27 28
f 5 28 29
f 5 29 30
f 5 30 31
f 5 31 32
f 5 32 33
f 5 33 34
f 5 34 35
f 5 35 36
f 5 36 37
f 5 37 11
f 6 11 37
f 6 37 39
f 6 39 40
f 6 40 41
f 6 41 42
f 6 42 43
f 6 43 44
f 6 44 45
f 6 45 38
f 7 46 9
f 8 47 12
f 8 10 48
f 8 48 47
f 9 46 49
f 9 49 10
f 10 49 50
f 10 50 51
f 10 51 48
f 12 47 52
f 12 52 13
f 13 52 53
f 13 53 14
f 14 53 54
f 14 54 15
f 15 54 16
f 16 54 55
f 16 55 17
f 17 55 56
f 17 56 18
f 18 56 57
f 18 57 58
f 18 58 19
f 19 58 59
f 19 59 60
f 19 60 61
f 19 61 62
f 19 62 63
f 19 63 64
f 19 64 65
f 19 65 66
f 19 66 20
f 20 66 67
f 20 67 68
f 20 68 21
f 21 68 22
f 22 68 69
f 22 69 23
f 23 69 24
f 24 69 70
f 24 70 71
f 24 71 72
f 24 72 73
f 24 73 25
f 25 73 26
f 26 73 74
f 26 74 75
f 26 75 27
f 27 75 76
f 27 76 77
f 27 77 78
f 27 78 28
f 28 78 79
f 28 79 29
f 29 79 30
f 30 79 80
f 30 80 81
f 30 81 31
f 31 81 82
f 31 82 83
f 31 83 32
f 32 83 84
f 32 84 85
f 32 85 86
f 32 86 33
f 33 86 87
f 33 87 88
f 33 88 89
f 33 89 90
f 33 90 91
f 33 91 34
f 34 91 157
f 34 157 224
f 34 224 279
f 34 279 354
f 34 354 427
f 34 427 504
f 34 504 575
f 34 575 646
f 34 646 723
f 34 723 722
f 34 722 788
f 34 788 858
f 34 858 857
f 34 857 952
f 34 952 951
f 34 951 950
f 34 950 871
f 34 871 870
f 34 870 867
f 34 867 789
f 34 789 732
f 34 732 651
f 34 651 579
f 34 579 576
f 34 576 505
f 34 505 428
f 34 428 355
f 34 355 280
f 34 280 225
f 34 225 159
f 34 159 93
f 34 93 45
f 34 45 44
f 34 44 43
f 34 43 42
f 34 42 41
f 34 41 40
f 34 40 39
f 34 39 37
f 34 37 36
f 34 36 35
f 38 45 93
f 38 93 92
f 46 94 95
f 46 95 96
f 46 96 49
f 47 48 97
f 47 97 52
f 48 51 97
f 49 98 50
f 49 96 99
f 49 99 98
f 50 98 99
f 50 99 100
f 50 100 101
f 50 101 102
f 50 102 51
f 51 102 103
f 51 103 52
f 51 52 97
f 52 103 104
f 52 104 53
f 53 104 105
f 53 105 54
f 54 106 55
f 54 105 104
f 54 104 107
f 54 107 106
f 55 106 56
f 56 108 109
f 56 109 110
f 56 110 111
f 56 111 112
f 56 112 113
f 56 113 114
f 56 114 115
f 56 115 116
f 56 116 117
f 56 117 118
f 56 118 119
f 56 119 59
f 56 59 120
f 56 120 58
f 56 58 57
f 56 106 108
f 58 120 59
f 59 119 60
f 60 119 61
f 61 119 62
f 62 119 121
f 62 121 122
f 62 122 123
f 62 123 63
f 63 123 124
f 63 124 125
f 63 125 126
f 63 126 64
f 64 126 65
f 65 126 67
f 65 67 66
f 67 126 127
f 67 127 128
f 67 128 129
f 67 129 130
f 67 130 131
f 67 131 69
f 67 69 68
f 69 131 130
f 69 130 132
f 69 132 70
f 70 133 134
f 70 134 135
f 70 135 72
f 70 72 71
f 70 132 133
f 72 135 73
f 73 136 137
f 73 137 74
f 73 135 136
f 74 137 138
f 74 138 75
f 75 138 139
f 75 139 76
f 76 139 140
f 76 140 78
f 76 78 77
f 78 140 79
f 79 140 80
f 80 141 81
f 80 140 139
f 80 139 138
f 80 138 142
f 80 142 143
f 80 143 144
f 80 144 141
f 81 141 82
f 82 141 144
f 82 144 145
f 82 145 146
f 82 146 147
f 82 147 148
f 82 148 83
f 83 148 149
f 83 149 84
f 84 150 151
f 84 151 152
f 84 152 153
f 84 153 154
f 84 154 85
f 84 149 150
f 85 154 155
f 85 155 86
f 86 155 87
f 87 155 156
f 87 156 88
f 88 156 223
f 88 223 277
f 88 277 345
f 88 345 349
f 88 349 278
f 88 278 224
f 88 224 157
f 88 157 89
f 89 157 90
f 90 157 91
f 92 93 158
f 93 159 160
f 93 160 161
f 93 161 162
f 93 162 163
f 93 163 158
f 94 164 165
f 94 165 166
f 94 166 167
f 94 167 95
f 95 167 96
f 96 167 168
f 96 168 99
f 99 168 100
f 100 168 101
f 101 169 170
f 101 170 171
f 101 171 172
f 101 172 173
f 101 173 174
f 101 174 102
f 101 168 169
f 102 174 173
f 102 173 175
f 102 175 103
f 103 107 104
f 103 175 176
f 103 176 107
f 106 107 108
f 107 176 108
f 108 176 177
f 108 177 110
f 108 110 109
f 110 177 178
f 110 178 179
f 110 179 112
f 110 112 111
f 112 179 180
f 112 180 113
f 113 180 114
f 114 180 181
f 114 181 182
f 114 182 115
f 115 183 184
f 115 184 116
f 115 182 183
f 116 184 117
f 117 184 185
f 117 185 119
f 117 119 118
f 119 185 186
f 119 186 121
f 121 186 187
f 121 187 182
f 121 182 188
f 121 188 189
f 121 189 190
f 121 190 122
f 122 190 191
f 122 191 123
f 123 191 192
f 123 192 124
f 124 192 193
f 124 193 194
f 124 194 125
f 125 194 128
f 125 128 127
f 125 127 126
f 128 195 129
f 128 194 195
f 129 195 130
f 130 195 196
f 130 196 197
f 130 197 198
f 130 198 134
f 130 134 132
f 132 134 133
f 134 198 135
f 135 198 199
f 135 199 200
f 135 200 201
f 135 201 136
f 136 201 137
f 137 201 202
f 137 202 138
f 138 203 204
f 138 204 143
f 138 143 142
f 138 202 203
f 143 204 205
f 143 205 206
f 143 206 207
f 143 207 208
f 143 208 209
f 143 209 144
f 144 210 147
f 144 147 146
f 144 146 145
f 144 209 210
f 147 211 212
f 147 212 213
f 147 213 150
f 147 150 214
f 147 214 149
f 147 149 148
f 147 210 211
f 149 214 150
f 150 213 212
f 150 212 215
f 150 215 216
f 150 216 217
f 150 217 151
f 151 217 218
f 151 218 152
f 152 218 219
f 152 219 220
f 152 220 153
f 153 220 221
f 153 221 154
f 154 221 155
f 155 222 156
f 155 221 222
f 156 222 223
f 159 225 226
f 159 226 160
f 164 227 228
f 164 228 166
f 164 166 165
f 166 228 168
f 166 168 167
f 168 228 169
f 169 228 170
f 170 229 230
f 170 230 231
f 170 231 171
f 170 228 229
f 171 231 232
f 171 232 233
f 171 233 172
f 172 234 173
f 172 233 235
f 172 235 234
f 173 234 236
f 173 236 237
f 173 237 175
f 175 237 236
f 175 236 176
f 176 236 238
f 176 238 177
f 177 238 178
f 178 238 239
f 178 239 179
f 179 239 240
f 179 240 180
f 180 240 241
f 180 241 242
f 180 242 181
f 181 242 243
f 181 243 182
f 182 187 183
f 182 243 244
f 182 244 188
f 183 187 184
f 184 187 185
f 185 187 186
f 188 244 245
f 188 245 189
f 189 245 190
f 190 245 191
f 191 245 246
f 191 246 192
f 192 246 245
f 192 245 193
f 193 247 248
f 193 248 249
f 193 249 194
f 193 245 247
f 194 249 195
f 195 248 250
f 195 250 196
f 195 249 248
f 196 250 251
f 196 251 198
f 196 198 197
f 198 251 252
f 198 252 199
f 199 252 200
f 200 253 254
f 200 254 201
f 200 252 253
f 201 254 203
f 201 203 202
f 203 255 206
f 203 206 205
f 203 205 204
f 203 254 255
f 206 256 257
f 206 257 258
f 206 258 259
f 206 259 208
f 206 208 207
f 206 255 254
f 206 254 253
f 206 253 319
f 206 319 256
f 208 259 258
f 208 258 260
f 208 260 261
f 208 261 262
f 208 262 209
f 209 262 210
f 210 262 211
f 211 262 263
f 211 263 264
f 211 264 265
f 211 265 266
f 211 266 267
f 211 267 215
f 211 215 212
f 215 267 268
f 215 268 217
f 215 217 216
f 217 269 270
f 217 270 271
f 217 271 272
f 217 272 218
f 217 268 269
f 218 272 273
f 218 273 219
f 219 274 220
f 219 273 275
f 219 275 276
f 219 276 274
f 220 274 221
f 221 274 222
f 222 274 223
f 223 274 277
f 224 278 279
f 225 280 281
f 225 281 282
f 225 282 226
f 227 283 228
f 227 284 285
f 227 285 286
f 227 286 283
f 228 283 286
f 228 286 229
f 229 287 288
f 229 288 230
f 229 286 287
f 230 288 231
f 231 288 289
f 231 289 290
f 231 290 291
f 231 291 292
f 231 292 293
f 231 293 294
f 231 294 232
f 232 294 233
f 233 294 235
f 234 235 295
f 234 295 236
f 235 294 296
f 235 296 297
f 235 297 295
f 236 295 297
f 236 297 298
f 236 298 238
f 238 298 299
f 238 299 239
f 239 300 301
f 239 301 302
f 239 302 303
f 239 303 304
f 239 304 241
f 239 241 240
f 239 299 293
f 239 293 300
f 241 303 305
f 241 305 306
f 241 306 243
f 241 243 242
f 241 304 303
f 243 306 244
f 244 306 307
f 244 307 245
f 245 307 308
f 245 308 247
f 247 308 307
f 247 307 309
f 247 309 310
f 247 310 248
f 248 310 311
f 248 311 312
f 248 312 313
f 248 313 250
f 250 313 314
f 250 314 251
f 251 314 313
f 251 313 315
f 251 315 252
f 252 315 316
f 252 316 317
f 252 317 318
f 252 318 319
f 252 319 320
f 252 320 253
f 253 320 319
f 256 319 321
f 256 321 322
f 256 322 323
f 256 323 257
f 257 323 324
f 257 324 258
f 258 324 325
f 258 325 326
f 258 326 260
f 260 326 262
f 260 262 261
f 262 327 328
f 262 328 264
f 262 264 263
f 262 326 327
f 264 329 330
f 264 330 265
f 264 328 329
f 265 331 332
f 265 332 266
f 265 330 331
f 266 332 333
f 266 333 334
f 266 334 267
f 267 334 268
f 268 334 333
f 268 333 269
f 269 333 270
f 270 333 335
f 270 335 336
f 270 336 337
f 270 337 271
f 271 337 272
f 272 337 338
f 272 338 339
f 272 339 273
f 273 340 341
f 273 341 342
f 273 342 343
f 273 343 275
f 273 339 340
f 274 276 344
f 274 344 345
f 274 345 277
f 275 343 346
f 275 346 347
f 275 347 276
f 276 347 348
f 276 348 344
f 278 349 348
f 278 348 350
f 278 350 351
f 278 351 352
f 278 352 353
f 278 353 279
f 279 353 354
f 280 355 356
f 280 356 281
f 284 357 285
f 285 357 358
f 285 358 287
f 285 287 286
f 287 358 359
f 287 359 288
f 288 359 360
f 288 360 289
f 289 360 290
f 290 361 291
f 290 360 361
f 291 361 362
f 291 362 292
f 292 362 293
f 293 362 363
f 293 363 364
f 293 364 365
f 293 365 366
f 293 366 301
f 293 301 300
f 293 299 367
f 293 367 298
f 293 298 297
f 293 297 296
f 293 296 294
f 298 367 299
f 301 366 368
f 301 368 369
f 301 369 302
f 302 370 306
f 302 306 371
f 302 371 303
f 302 369 372
f 302 372 373
f 302 373 374
f 302 374 375
f 302 375 376
f 302 376 377
f 302 377 370
f 303 371 305
f 305 371 306
f 306 370 378
f 306 378 379
f 306 379 380
f 306 380 381
f 306 381 307
f 307 381 309
f 309 381 382
f 309 382 310
f 310 383 311
f 310 382 383
f 311 383 384
f 311 384 377
f 311 377 385
f 311 385 386
f 311 386 387
f 311 387 388
f 311 388 312
f 312 388 315
f 312 315 313
f 315 388 317
f 315 317 316
f 317 389 318
f 317 388 389
f 318 390 391
f 318 391 392
f 318 392 393
f 318 393 319
f 318 389 386
f 318 386 394
f 318 394 390
f 319 393 321
f 321 392 395
f 321 395 323
f 321 323 322
f 321 393 392
f 323 395 324
f 324 395 396
f 324 396 397
f 324 397 325
f 325 397 398
f 325 398 326
f 326 398 399
f 326 399 400
f 326 400 327
f 327 400 328
f 328 400 399
f 328 399 329
f 329 399 401
f 329 401 331
f 329 331 330
f 331 401 402
f 331 402 332
f 332 402 403
f 332 403 333
f 333 403 335
f 335 403 336
f 336 403 404
f 336 404 405
f 336 405 337
f 337 405 338
f 338 406 407
f 338 407 342
f 338 342 341
f 338 341 340
f 338 340 339
f 338 405 408
f 338 408 409
f 338 409 410
f 338 410 406
f 342 411 412
f 342 412 413
f 342 413 414
f 342 414 415
f 342 415 416
f 342 416 417
f 342 417 343
f 342 407 418
f 342 418 411
f 343 417 419
f 343 419 346
f 344 348 345
f 345 348 349
f 346 419 420
f 346 420 421
f 346 421 422
f 346 422 348
f 346 348 347
f 348 422 350
f 350 421 351
f 350 422 421
f 351 421 423
f 351 423 424
f 351 424 425
f 351 425 352
f 352 425 426
f 352 426 353
f 353 426 354
f 354 426 427
f 355 428 429
f 355 429 356
f 357 430 431
f 357 431 432
f 357 432 358
f 358 432 359
f 359 432 433
f 359 433 360
f 360 433 434
f 360 434 435
f 360 435 361
f 361 436 437
f 361 437 362
f 361 435 436
f 362 437 438
f 362 438 363
f 363 438 439
f 363 439 440
f 363 440 364
f 364 440 441
f 364 441 442
f 364 442 366
f 364 366 365
f 366 442 368
f 368 442 369
f 369 442 372
f 370 377 378
f 372 443 444
f 372 444 445
f 372 445 373
f 372 442 441
f 372 441 446
f 372 446 443
f 373 447 448
f 373 448 374
f 373 445 449
f 373 449 450
f 373 450 447
f 374 448 375
f 375 448 451
f 375 451 452
f 375 452 376
f 376 452 377
f 377 384 453
f 377 453 378
f 377 452 454
f 377 454 455
f 377 455 386
f 377 386 385
f 378 453 379
f 379 453 380
f 380 382 381
f 380 453 382
f 382 453 384
f 382 384 383
f 386 455 454
f 386 454 456
f 386 456 457
f 386 457 458
f 386 458 459
f 386 459 394
f 386 389 387
f 387 389 388
f 390 394 460
f 390 460 391
f 391 460 461
f 391 461 462
f 391 462 463
f 391 463 392
f 392 463 396
f 392 396 395
f 394 459 458
f 394 458 460
f 396 464 465
f 396 465 397
f 396 463 462
f 396 462 464
f 397 465 466
f 397 466 467
f 397 467 468
f 397 468 399
f 397 399 398
f 399 468 467
f 399 467 469
f 399 469 470
f 399 470 471
f 399 471 472
f 399 472 401
f 401 472 471
f 401 471 473
f 401 473 474
f 401 474 475
f 401 475 402
f 402 476 477
f 402 477 478
f 402 478 408
f 402 408 479
f 402 479 404
f 402 404 403
f 402 475 476
f 404 479 405
f 405 479 408
f 406 410 480
f 406 480 481
f 406 481 418
f 406 418 407
f 408 478 409
f 409 478 482
f 409 482 410
f 410 482 483
f 410 483 480
f 411 484 412
f 411 418 481
f 411 481 484
f 412 484 485
f 412 485 413
f 413 486 414
f 413 485 486
f 414 486 487
f 414 487 488
f 414 488 489
f 414 489 490
f 414 490 417
f 414 417 416
f 414 416 415
f 417 490 491
f 417 491 419
f 419 491 492
f 419 492 493
f 419 493 420
f 420 493 494
f 420 494 421
f 421 494 423
f 423 495 496
f 423 496 497
f 423 497 498
f 423 498 499
f 423 499 424
f 423 494 500
f 423 500 495
f 424 499 501
f 424 501 502
f 424 502 425
f 425 502 503
f 425 503 426
f 426 503 427
f 427 503 504
f 428 505 429
f 429 505 506
f 430 507 431
f 431 507 508
f 431 508 432
f 432 508 433
f 433 508 434
f 434 508 509
f 434 509 435
f 435 509 436
f 436 509 510
f 436 510 438
f 436 438 437
f 438 510 511
f 438 511 512
f 438 512 513
f 438 513 439
f 439 446 440
f 439 513 514
f 439 514 443
f 439 443 515
f 439 515 446
f 440 446 441
f 443 514 516
f 443 516 444
f 443 446 515
f 444 516 445
f 445 516 517
f 445 517 518
f 445 518 449
f 447 451 448
f 447 450 519
f 447 519 520
f 447 520 521
f 447 521 451
f 449 518 522
f 449 522 450
f 450 522 523
f 450 523 519
f 451 521 524
f 451 524 525
f 451 525 452
f 452 524 454
f 452 525 524
f 454 524 526
f 454 526 527
f 454 527 528
f 454 528 456
f 456 528 457
f 457 529 530
f 457 530 458
f 457 528 529
f 458 530 460
f 460 530 531
f 460 531 532
f 460 532 461
f 461 532 533
f 461 533 462
f 462 533 534
f 462 534 464
f 464 535 466
f 464 466 465
f 464 534 533
f 464 533 535
f 466 535 536
f 466 536 469
f 466 469 467
f 469 537 538
f 469 538 539
f 469 539 470
f 469 536 537
f 470 539 540
f 470 540 471
f 471 540 541
f 471 541 473
f 473 542 543
f 473 543 544
f 473 544 476
f 473 476 474
f 473 541 542
f 474 476 475
f 476 544 545
f 476 545 477
f 477 545 482
f 477 482 478
f 480 483 546
f 480 546 547
f 480 547 548
f 480 548 484
f 480 484 481
f 482 545 549
f 482 549 550
f 482 550 551
f 482 551 483
f 483 551 552
f 483 552 546
f 484 548 553
f 484 553 485
f 485 553 486
f 486 553 487
f 487 554 488
f 487 553 555
f 487 555 546
f 487 546 556
f 487 556 557
f 487 557 554
f 488 554 557
f 488 557 558
f 488 558 559
f 488 559 560
f 488 560 561
f 488 561 489
f 489 561 562
f 489 562 490
f 490 562 491
f 491 562 563
f 491 563 492
f 492 564 493
f 492 563 565
f 492 565 564
f 493 564 566
f 493 566 500
f 493 500 494
f 495 567 498
f 495 498 496
f 495 500 568
f 495 568 567
f 496 498 497
f 498 567 569
f 498 569 570
f 498 570 571
f 498 571 572
f 498 572 501
f 498 501 499
f 500 566 568
f 501 572 502
f 502 573 574
f 502 574 503
f 502 572 573
f 503 574 504
f 504 574 575
f 505 576 506
f 506 577 647
f 506 647 578
f 506 576 579
f 506 579 577
f 507 580 508
f 508 581 510
f 508 510 509
f 508 580 582
f 508 582 583
f 508 583 584
f 508 584 585
f 508 585 586
f 508 586 587
f 508 587 581
f 510 581 588
f 510 588 587
f 510 587 589
f 510 589 590
f 510 590 591
f 510 591 511
f 511 591 512
f 512 591 592
f 512 592 593
f 512 593 513
f 513 593 594
f 513 594 516
f 513 516 514
f 516 594 595
f 516 595 596
f 516 596 597
f 516 597 598
f 516 598 517
f 517 598 597
f 517 597 599
f 517 599 518
f 518 600 522
f 518 599 601
f 518 601 602
f 518 602 603
f 518 603 600
f 519 523 520
f 520 523 603
f 520 603 524
f 520 524 521
f 522 600 603
f 522 603 523
f 524 603 526
f 526 603 527
f 527 603 604
f 527 604 529
f 527 529 528
f 529 604 605
f 529 605 606
f 529 606 530
f 530 607 531
f 530 606 607
f 531 607 608
f 531 608 532
f 532 608 609
f 532 609 610
f 532 610 611
f 532 611 533
f 533 611 535
f 535 611 612
f 535 612 613
f 535 613 537
f 535 537 536
f 537 613 614
f 537 614 615
f 537 615 616
f 537 616 617
f 537 617 618
f 537 618 619
f 537 619 620
f 537 620 538
f 538 620 621
f 538 621 539
f 539 621 542
f 539 542 541
f 539 541 540
f 542 622 543
f 542 621 620
f 542 620 623
f 542 623 622
f 543 622 624
f 543 624 544
f 544 624 550
f 544 550 549
f 544 549 545
f 546 552 557
f 546 557 556
f 546 555 547
f 547 555 553
f 547 553 548
f 550 625 551
f 550 624 625
f 551 625 626
f 551 626 552
f 552 626 557
f 557 626 627
f 557 627 558
f 558 627 628
f 558 628 629
f 558 629 630
f 558 630 559
f 559 630 560
f 560 630 631
f 560 631 561
f 561 631 632
f 561 632 633
f 561 633 634
f 561 634 565
f 561 565 563
f 561 563 562
f 564 635 636
f 564 636 637
f 564 637 566
f 564 565 638
f 564 638 635
f 565 634 638
f 566 637 639
f 566 639 568
f 567 568 639
f 567 639 569
f 569 639 635
f 569 635 640
f 569 640 641
f 569 641 642
f 569 642 570
f 570 642 571
f 571 642 643
f 571 643 644
f 571 644 572
f 572 644 574
f 572 574 573
f 574 645 575
f 574 644 645
f 575 645 646
f 577 579 648
f 577 648 649
f 577 649 647
f 578 647 650
f 579 651 730
f 579 730 648
f 581 587 588
f 583 652 584
f 584 652 653
f 584 653 586
f 584 586 585
f 586 653 654
f 586 654 587
f 587 654 655
f 587 655 656
f 587 656 657
f 587 657 590
f 587 590 589
f 590 657 591
f 591 657 658
f 591 658 659
f 591 659 660
f 591 660 592
f 592 594 593
f 592 660 594
f 594 660 661
f 594 661 595
f 595 661 662
f 595 662 596
f 596 662 597
f 597 662 663
f 597 663 664
f 597 664 665
f 597 665 599
f 599 665 666
f 599 666 667
f 599 667 601
f 601 667 602
f 602 667 668
f 602 668 669
f 602 669 603
f 603 669 670
f 603 670 604
f 604 671 672
f 604 672 608
f 604 608 607
f 604 607 605
f 604 670 671
f 605 607 606
f 608 672 673
f 608 673 674
f 608 674 675
f 608 675 676
f 608 676 677
f 608 677 609
f 609 677 678
f 609 678 610
f 610 678 612
f 610 612 611
f 612 678 613
f 613 678 614
f 614 678 677
f 614 677 615
f 615 677 679
f 615 679 616
f 616 680 681
f 616 681 682
f 616 682 683
f 616 683 617
f 616 679 684
f 616 684 680
f 617 683 618
f 618 685 619
f 618 683 686
f 618 686 687
f 618 687 688
f 618 688 689
f 618 689 690
f 618 690 685
f 619 685 622
f 619 622 620
f 620 622 623
f 622 689 691
f 622 691 692
f 622 692 624
f 622 685 690
f 622 690 689
f 624 693 694
f 624 694 625
f 624 692 693
f 625 695 626
f 625 694 695
f 626 696 628
f 626 628 697
f 626 697 698
f 626 698 627
f 626 695 696
f 627 698 628
f 628 699 700
f 628 700 701
f 628 701 702
f 628 702 629
f 628 698 697
f 628 696 703
f 628 703 699
f 629 702 630
f 630 702 701
f 630 701 631
f 631 701 700
f 631 700 704
f 631 704 705
f 631 705 706
f 631 706 707
f 631 707 632
f 632 707 708
f 632 708 633
f 633 708 709
f 633 709 638
f 633 638 634
f 635 639 636
f 635 638 710
f 635 710 711
f 635 711 640
f 636 639 637
f 638 709 710
f 640 712 641
f 640 711 713
f 640 713 714
f 640 714 712
f 641 712 715
f 641 715 642
f 642 715 716
f 642 716 643
f 643 717 718
f 643 718 644
f 643 716 719
f 643 719 720
f 643 720 717
f 644 718 721
f 644 721 645
f 645 721 722
f 645 722 723
f 645 723 646
f 647 649 724
f 647 724 725
f 647 725 726
f 647 726 727
f 647 727 728
f 647 728 729
f 647 729 650
f 648 730 724
f 648 724 649
f 650 729 731
f 651 732 730
f 652 733 653
f 653 733 734
f 653 734 735
f 653 735 654
f 654 735 736
f 654 736 737
f 654 737 738
f 654 738 655
f 655 738 656
f 656 738 658
f 656 658 657
f 658 738 739
f 658 739 740
f 658 740 659
f 659 740 741
f 659 741 660
f 660 741 742
f 660 742 662
f 660 662 661
f 662 742 663
f 663 743 744
f 663 744 664
f 663 742 745
f 663 745 746
f 663 746 743
f 664 744 747
f 664 747 665
f 665 747 748
f 665 748 668
f 665 668 666
f 666 668 667
f 668 748 749
f 668 749 750
f 668 750 751
f 668 751 671
f 668 671 670
f 668 670 669
f 671 751 672
f 672 751 673
f 673 752 753
f 673 753 674
f 673 751 750
f 673 750 752
f 674 753 675
f 675 684 679
f 675 679 676
f 675 753 754
f 675 754 755
f 675 755 680
f 675 680 684
f 676 679 677
f 680 755 681
f 681 756 682
f 681 755 756
f 682 757 758
f 682 758 759
f 682 759 760
f 682 760 683
f 682 756 757
f 683 760 686
f 686 760 761
f 686 761 687
f 687 762 691
f 687 691 689
f 687 689 688
f 687 761 762
f 691 762 763
f 691 763 693
f 691 693 692
f 693 763 694
f 694 763 764
f 694 764 765
f 694 765 695
f 695 765 696
f 696 765 766
f 696 766 703
f 699 767 768
f 699 768 704
f 699 704 700
f 699 703 769
f 699 769 770
f 699 770 771
f 699 771 767
f 703 766 772
f 703 772 769
f 704 768 705
f 705 768 706
f 706 773 774
f 706 774 713
f 706 713 711
f 706 711 707
f 706 768 773
f 707 711 710
f 707 710 708
f 708 710 709
f 712 775 776
f 712 776 715
f 712 714 777
f 712 777 775
f 713 774 778
f 713 778 779
f 713 779 714
f 714 779 777
f 715 776 719
f 715 719 716
f 717 780 781
f 717 781 718
f 717 720 780
f 718 781 782
f 718 782 721
f 719 776 783
f 719 783 784
f 719 784 720
f 720 784 785
f 720 785 786
f 720 786 780
f 721 782 787
f 721 787 722
f 722 787 788
f 724 730 732
f 724 732 789
f 724 789 790
f 724 790 791
f 724 791 792
f 724 792 793
f 724 793 794
f 724 794 795
f 724 795 725
f 725 796 797
f 725 797 798
f 725 798 799
f 725 799 726
f 725 795 800
f 725 800 796
f 726 799 727
f 727 799 801
f 727 801 802
f 727 802 728
f 728 802 729
f 729 803 804
f 729 804 805
f 729 805 806
f 729 806 731
f 729 802 803
f 731 806 807
f 731 807 808
f 734 809 735
f 735 809 810
f 735 810 736
f 736 811 812
f 736 812 737
f 736 810 811
f 737 812 813
f 737 813 738
f 738 813 739
f 739 814 815
f 739 815 816
f 739 816 740
f 739 813 814
f 740 816 817
f 740 817 818
f 740 818 745
f 740 745 741
f 741 745 742
f 743 746 819
f 743 819 820
f 743 820 749
f 743 749 821
f 743 821 744
f 744 821 747
f 745 818 822
f 745 822 823
f 745 823 746
f 746 824 825
f 746 825 826
f 746 826 819
f 746 823 824
f 747 821 749
f 747 749 748
f 749 820 827
f 749 827 828
f 749 828 750
f 750 828 752
f 752 828 829
f 752 829 753
f 753 829 754
f 754 830 831
f 754 831 832
f 754 832 756
f 754 756 755
f 754 829 830
f 756 832 757
f 757 833 758
f 757 832 833
f 758 833 834
f 758 834 835
f 758 835 759
f 759 835 836
f 759 836 837
f 759 837 760
f 760 837 838
f 760 838 761
f 761 838 762
f 762 838 839
f 762 839 840
f 762 840 763
f 763 840 766
f 763 766 764
f 764 766 765
f 766 840 841
f 766 841 772
f 767 842 843
f 767 843 844
f 767 844 773
f 767 773 768
f 767 771 842
f 769 772 770
f 770 772 841
f 770 841 839
f 770 839 845
f 770 845 771
f 771 845 846
f 771 846 847
f 771 847 842
f 773 848 778
f 773 778 774
f 773 844 843
f 773 843 848
f 775 849 776
f 775 777 850
f 775 850 849
f 776 849 783
f 777 779 850
f 778 851 852
f 778 852 779
f 778 848 853
f 778 853 854
f 778 854 851
f 779 852 850
f 780 786 855
f 780 855 782
f 780 782 781
f 782 855 856
f 782 856 857
f 782 857 858
f 782 858 787
f 783 849 859
f 783 859 860
f 783 860 861
f 783 861 784
f 784 861 862
f 784 862 785
f 785 862 863
f 785 863 864
f 785 864 786
f 786 864 865
f 786 865 866
f 786 866 856
f 786 856 855
f 787 858 788
f 789 867 790
f 790 867 791
f 791 868 869
f 791 869 792
f 791 867 870
f 791 870 871
f 791 871 868
f 792 869 872
f 792 872 793
f 793 872 873
f 793 873 794
f 794 873 874
f 794 874 875
f 794 875 876
f 794 876 877
f 794 877 878
f 794 878 879
f 794 879 795
f 795 879 880
f 795 880 881
f 795 881 882
f 795 882 800
f 796 883 884
f 796 884 885
f 796 885 886
f 796 886 887
f 796 887 888
f 796 888 797
f 796 800 889
f 796 889 883
f 797 888 890
f 797 890 798
f 798 890 891
f 798 891 892
f 798 892 893
f 798 893 799
f 799 893 894
f 799 894 895
f 799 895 896
f 799 896 897
f 799 897 801
f 800 882 898
f 800 898 899
f 800 899 900
f 800 900 901
f 800 901 902
f 800 902 889
f 801 897 903
f 801 903 904
f 801 904 802
f 802 904 905
f 802 905 906
f 802 906 803
f 803 906 804
f 804 906 907
f 804 907 908
f 804 908 805
f 805 908 806
f 806 908 807
f 807 908 909
f 807 909 910
f 807 910 911
f 807 911 808
f 809 912 810
f 810 912 913
f 810 913 914
f 810 914 811
f 811 914 910
f 811 910 915
f 811 915 812
f 812 915 916
f 812 916 813
f 813 916 814
f 814 916 917
f 814 917 815
f 815 917 918
f 815 918 919
f 815 919 920
f 815 920 921
f 815 921 816
f 816 921 817
f 817 921 818
f 818 921 822
f 819 826 922
f 819 922 923
f 819 923 924
f 819 924 820
f 820 924 827
f 822 920 823
f 822 921 920
f 823 920 925
f 823 925 824
f 824 925 926
f 824 926 825
f 825 927 922
f 825 922 826
f 825 926 928
f 825 928 927
f 827 924 923
f 827 923 929
f 827 929 930
f 827 930 931
f 827 931 829
f 827 829 828
f 829 931 830
f 830 932 831
f 830 931 933
f 830 933 932
f 831 932 934
f 831 934 832
f 832 934 935
f 832 935 936
f 832 936 833
f 833 936 834
f 834 937 835
f 834 936 938
f 834 938 937
f 835 937 939
f 835 939 836
f 836 939 940
f 836 940 837
f 837 940 838
f 838 940 941
f 838 941 942
f 838 942 839
f 839 942 845
f 839 841 840
f 842 943 843
f 842 847 944
f 842 944 943
f 843 945 853
f 843 853 848
f 843 943 945
f 845 942 946
f 845 946 944
f 845 944 846
f 846 944 847
f 849 850 851
f 849 851 859
f 850 852 851
f 851 947 859
f 851 854 948
f 851 948 949
f 851 949 947
f 853 945 854
f 854 945 948
f 856 866 868
f 856 868 950
f 856 950 951
f 856 951 952
f 856 952 857
f 859 947 860
f 860 947 953
f 860 953 861
f 861 876 875
f 861 875 862
f 861 953 877
f 861 877 876
f 862 875 954
f 862 954 863
f 863 954 864
f 864 954 955
f 864 955 865
f 865 955 872
f 865 872 869
f 865 869 866
f 866 869 868
f 868 871 950
f 872 955 873
f 873 955 874
f 874 955 954
f 874 954 875
f 877 953 878
f 878 953 956
f 878 956 957
f 878 957 879
f 879 957 958
f 879 958 959
f 879 959 880
f 880 959 881
f 881 960 961
f 881 961 882
f 881 959 960
f 882 961 898
f 883 902 884
f 883 889 902
f 884 962 885
f 884 902 962
f 885 962 963
f 885 963 964
f 885 964 887
f 885 887 886
f 887 964 965
f 887 965 966
f 887 966 888
f 888 966 890
f 890 966 891
f 891 966 967
f 891 967 968
f 891 968 892
f 892 968 969
f 892 969 970
f 892 970 893
f 893 970 971
f 893 971 894
f 894 971 972
f 894 972 895
f 895 972 896
f 896 973 974
f 896 974 897
f 896 972 973
f 897 974 903
f 898 901 900
f 898 900 899
f 898 961 901
f 901 961 975
f 901 975 976
f 901 976 977
f 901 977 978
f 901 978 963
f 901 963 962
f 901 962 902
f 903 974 979
f 903 979 905
f 903 905 904
f 905 979 907
f 905 907 906
f 907 918 917
f 907 917 980
f 907 980 909
f 907 909 908
f 907 979 918
f 909 980 910
f 910 914 913
f 910 913 981
f 910 981 982
f 910 982 911
f 910 980 915
f 915 980 917
f 915 917 983
f 915 983 916
f 916 983 917
f 918 979 984
f 918 984 919
f 919 984 926
f 919 926 920
f 920 926 925
f 922 927 928
f 922 928 985
f 922 985 923
f 923 985 929
f 926 984 974
f 926 974 986
f 926 986 928
f 928 986 973
f 928 973 987
f 928 987 985
f 929 985 987
f 929 987 988
f 929 988 989
f 929 989 930
f 930 989 990
f 930 990 933
f 930 933 931
f 932 933 990
f 932 990 991
f 932 991 934
f 934 991 992
f 934 992 936
f 934 936 935
f 936 992 938
f 937 938 964
f 937 964 963
f 937 963 978
f 937 978 993
f 937 993 939
f 938 992 965
f 938 965 964
f 939 993 994
f 939 994 940
f 940 994 941
f 941 995 996
f 941 996 942
f 941 994 995
f 942 996 946
f 943 997 945
f 943 944 998
f 943 998 997
f 944 946 998
f 945 997 948
f 946 977 999
f 946 999 998
f 946 996 995
f 946 995 977
f 947 957 956
f 947 956 953
f 947 949 959
f 947 959 958
f 947 958 957
f 948 997 960
f 948 960 949
f 949 960 959
f 960 997 976
f 960 976 975
f 960 975 961
f 965 992 967
f 965 967 966
f 967 992 991
f 967 991 1000
f 967 1000 968
f 968 1000 969
f 969 1000 1001
f 969 1001 972
f 969 972 971
f 969 971 970
f 972 1001 1002
f 972 1002 973
f 973 1003 987
f 973 986 974
f 973 1002 1004
f 973 1004 1003
f 974 984 979
f 976 997 977
f 977 1005 999
f 977 995 978
f 977 997 1005
f 978 995 993
f 987 1003 988
f 988 1003 1006
f 988 1006 989
f 989 1006 990
f 990 1006 991
f 991 1006 1004
f 991 1004 1002
f 991 1002 1000
f 993 995 994
f 997 998 1005
f 998 999 1005
f 1000 1002 1001
f 1003 1004 1006

