# https://github.com/mikedh/trimesh
v 0.00393091 0.00941523 0.00560499
v 0.00393091 0.00960728 0.00560534
v 0.00393091 0.00923288 0.00563823
v -0.00389498 0.00941489 0.00563615
v -0.00389498 0.00967319 0.00563650
v 0.00393091 0.00967319 0.00560603
v 0.00393091 0.00908934 0.00573273
v -0.00389498 0.00913485 0.00573308
v -0.00389498 0.00978661 0.00566142
v 0.00393091 0.00984617 0.00562784
v 0.00393091 0.00896020 0.00586013
v -0.00389498 0.00897458 0.00586705
v -0.00389498 0.00911845 0.00574554
v -0.00389498 0.00993115 0.00570331
v 0.00393091 0.00988833 0.00563892
v 0.00393091 0.00860219 0.00628627
v -0.00389498 0.00857409 0.00634270
v -0.00389498 0.00895718 0.00588747
v -0.00389498 0.00995926 0.00571923
v 0.00393091 0.00995524 0.00571854
v -0.00389498 0.01006632 0.00583797
v 0.00393091 0.00849145 0.00642266
v -0.00389498 0.00682021 0.00862088
v 0.00393091 0.00668236 0.00873928
v 0.00393091 0.01000409 0.00580578
v -0.00389498 0.01006632 0.00588609
v -0.00335415 0.01006800 0.00623123
v -0.00323465 0.01006800 0.00617480
v -0.00057572 0.01007201 0.00694677
v 0.00364901 0.01006766 0.00591967
v 0.00376544 0.01006766 0.00591967
v -0.00389498 0.00667500 0.00889921
v 0.00393091 0.00667266 0.00876974
v 0.00393091 0.01004725 0.00594632
v -0.00389498 0.01006231 0.00594182
v -0.00384289 0.01006565 0.00596052
v -0.00315575 0.01001881 0.00657810
v -0.00284856 0.01006766 0.00648532
v -0.00212389 0.01006833 0.00674530
v -0.00057572 0.01007201 0.00702224
v -0.00342922 0.01004223 0.00631846
v -0.00341314 0.00999171 0.00657810
v 0.00071353 0.01007168 0.00694574
v 0.00376544 0.01006766 0.00597956
v -0.00389498 0.00669407 0.00897745
v 0.00393091 0.00665459 0.00889921
v 0.00393091 0.00667969 0.00905291
v 0.00393091 0.01003420 0.00606368
v -0.00389498 0.01004826 0.00601591
v -0.00389498 0.00998837 0.00632054
v -0.00315575 0.00996428 0.00683634
v -0.00291981 0.01004223 0.00657394
v -0.00289759 0.00998870 0.00683634
v -0.00263944 0.01001179 0.00683634
v -0.00229395 0.01006298 0.00672037
v -0.00186573 0.01000911 0.00709425
v -0.00160758 0.01002383 0.00709425
v -0.00130652 0.01006365 0.00697966
v -0.00109203 0.01006766 0.00699766
v -0.00083387 0.01007101 0.00701428
v -0.00057572 0.01004457 0.00715136
v -0.00031833 0.01004625 0.00715344
v -0.00016588 0.01004692 0.00715379
v -0.00005940 0.01004725 0.00715379
v -0.00031833 0.01007168 0.00702432
v 0.00045538 0.01007168 0.00702363
v 0.00071353 0.01007168 0.00701982
v -0.00367129 0.00996227 0.00657810
v -0.00341314 0.00993717 0.00683634
v 0.00383439 0.01004591 0.00606437
v 0.00200278 0.01006967 0.00675811
v 0.00277648 0.01006800 0.00649398
v 0.00294042 0.01006365 0.00646559
v 0.00344677 0.01006298 0.00620526
v -0.00389498 0.00681820 0.00909342
v 0.00393091 0.00683226 0.00910553
v 0.00393091 0.00998435 0.00632054
v -0.00389498 0.00993383 0.00657810
v -0.00289759 0.00992981 0.00709425
v -0.00263944 0.00995558 0.00709425
v -0.00238051 0.01003554 0.00681834
v -0.00212389 0.00999205 0.00709425
v -0.00186573 0.00995156 0.00735215
v -0.00160758 0.00996561 0.00735215
v -0.00109203 0.00998636 0.00735215
v -0.00135019 0.00997599 0.00735215
v -0.00083387 0.00999439 0.00735215
v -0.00083387 0.01004190 0.00714340
v -0.00057572 0.00999941 0.00735215
v -0.00031833 0.01000275 0.00735215
v -0.00005940 0.01000509 0.00735215
v 0.00019722 0.01004658 0.00715344
v 0.00045538 0.01004558 0.00715275
v 0.00071353 0.01004357 0.00714894
v 0.00097169 0.01006933 0.00700735
v -0.00367129 0.00990171 0.00683634
v -0.00315575 0.00989903 0.00709425
v 0.00380834 0.00999907 0.00632054
v 0.00122908 0.01006498 0.00698728
v 0.00139608 0.01006197 0.00697308
v 0.00226094 0.01006432 0.00672695
v 0.00238963 0.01005997 0.00670722
v 0.00277648 0.00999941 0.00683634
v 0.00303464 0.00997632 0.00683634
v 0.00303004 0.01003454 0.00656252
v 0.00329280 0.01000443 0.00657844
v 0.00355019 0.00997599 0.00657844
v 0.00353946 0.01003286 0.00630289
v -0.00389498 0.00683092 0.00909688
v 0.00393091 0.00709390 0.00914119
v -0.00389498 0.00709423 0.00914153
v 0.00393091 0.00995625 0.00645659
v 0.00380834 0.00994621 0.00657844
v -0.00389498 0.00985855 0.00685158
v -0.00263944 0.00988565 0.00735215
v -0.00238128 0.00991007 0.00735215
v -0.00212389 0.00993216 0.00735215
v -0.00238128 0.00997465 0.00709425
v -0.00186573 0.00987762 0.00760936
v -0.00160758 0.00989535 0.00760936
v -0.00109203 0.00992279 0.00760936
v -0.00083387 0.00993282 0.00760936
v -0.00057572 0.00993818 0.00760936
v -0.00031833 0.00994253 0.00760936
v -0.00005940 0.00994554 0.00760936
v 0.00019722 0.01000409 0.00735215
v 0.00071353 0.00999773 0.00735215
v 0.00045538 0.01000108 0.00735215
v 0.00097169 0.01004023 0.00713613
v -0.00367129 0.00983446 0.00705720
v -0.00343689 0.00985219 0.00711917
v -0.00290449 0.00984617 0.00736980
v 0.00097169 0.00999104 0.00735215
v 0.00122908 0.01003554 0.00711640
v 0.00122908 0.00998167 0.00735215
v 0.00148723 0.00997130 0.00735215
v 0.00174539 0.00995859 0.00735215
v 0.00174539 0.01001614 0.00709425
v 0.00226094 0.00998335 0.00709425
v 0.00251833 0.00996528 0.00709425
v 0.00249305 0.01002918 0.00681038
v 0.00277648 0.00994253 0.00709425
v 0.00329280 0.00995089 0.00683634
v 0.00393091 0.00812608 0.00914119
v -0.00016588 0.00812608 0.00914153
v -0.00389498 0.00816088 0.00914153
v 0.00393091 0.00992948 0.00657844
v 0.00355019 0.00991844 0.00683634
v -0.00389498 0.00982743 0.00694954
v -0.00263944 0.00982275 0.00753597
v -0.00238128 0.00983814 0.00757543
v -0.00212925 0.00984550 0.00762943
v -0.00282329 0.00981070 0.00750377
v -0.00186573 0.00981739 0.00777794
v -0.00160758 0.00982810 0.00780495
v -0.00135019 0.00983680 0.00782779
v -0.00109203 0.00984550 0.00785030
v -0.00082928 0.00984215 0.00789080
v -0.00057572 0.00985721 0.00786760
v -0.00031833 0.00986256 0.00786760
v -0.00016588 0.00986524 0.00786726
v -0.00005940 0.00986658 0.00786726
v 0.00019722 0.00994453 0.00760936
v 0.00071353 0.00993651 0.00760936
v -0.00367129 0.00978962 0.00718633
v -0.00353877 0.00980133 0.00722164
v -0.00389498 0.00981238 0.00699558
v -0.00389498 0.00979866 0.00703574
v -0.00389498 0.00977356 0.00710844
v -0.00336718 0.00981505 0.00725903
v -0.00315575 0.00983145 0.00730472
v 0.00097169 0.00992848 0.00760936
v 0.00174539 0.00988665 0.00760936
v 0.00200278 0.00994152 0.00735215
v 0.00122908 0.00991576 0.00760936
v 0.00148723 0.00990238 0.00760936
v 0.00226094 0.00992111 0.00735215
v 0.00251833 0.00989803 0.00735215
v 0.00303464 0.00991409 0.00709425
v 0.00329280 0.00988230 0.00709425
v 0.00393091 0.00838338 0.00913080
v 0.00380834 0.00838338 0.00913980
v 0.00355019 0.00838338 0.00914119
v -0.00016588 0.00889930 0.00914153
v -0.00389498 0.00838338 0.00913426
v -0.00367129 0.00838338 0.00914153
v 0.00393091 0.00989401 0.00671449
v 0.00380834 0.00987896 0.00683634
v -0.00263944 0.00977457 0.00766474
v -0.00238128 0.00972773 0.00786760
v -0.00204728 0.00980803 0.00775440
v -0.00263944 0.00969761 0.00786760
v -0.00299564 0.00979732 0.00746742
v -0.00315575 0.00972103 0.00760936
v -0.00290449 0.00976386 0.00759793
v -0.00186573 0.00976788 0.00790707
v -0.00160758 0.00977791 0.00793407
v -0.00135019 0.00978695 0.00795657
v -0.00109203 0.00973910 0.00812516
v -0.00091201 0.00980067 0.00799292
v -0.00073965 0.00980301 0.00799880
v -0.00057572 0.00980501 0.00800365
v -0.00031833 0.00980803 0.00801127
v -0.00016588 0.00980936 0.00801473
v -0.00016588 0.00984282 0.00792645
v -0.00005940 0.00981003 0.00801681
v 0.00019722 0.00986557 0.00786726
v 0.00071353 0.00985520 0.00786726
v -0.00367129 0.00973174 0.00735215
v -0.00343689 0.00977189 0.00734799
v -0.00389498 0.00969594 0.00732965
v 0.00094718 0.00983948 0.00788595
v 0.00174539 0.00982275 0.00779214
v 0.00200278 0.00986491 0.00760936
v 0.00122908 0.00984081 0.00783853
v 0.00148723 0.00983245 0.00781637
v 0.00251833 0.00983078 0.00755639
v 0.00277648 0.00986892 0.00735215
v 0.00329280 0.00982174 0.00727703
v 0.00345750 0.00980870 0.00724137
v 0.00354636 0.00983981 0.00710428
v 0.00393091 0.00858479 0.00907438
v 0.00380834 0.00860788 0.00908303
v 0.00329280 0.00864134 0.00912838
v 0.00303464 0.00864134 0.00914084
v 0.00277648 0.00864134 0.00914119
v 0.00174539 0.00889930 0.00914119
v -0.00005940 0.00915726 0.00910172
v -0.00186573 0.00889930 0.00914153
v -0.00389498 0.00841817 0.00912596
v -0.00315575 0.00864134 0.00913703
v -0.00341314 0.00864134 0.00911522
v -0.00289759 0.00864134 0.00914153
v 0.00393091 0.00985721 0.00683842
v -0.00212925 0.00976219 0.00785099
v -0.00212389 0.00965378 0.00812516
v -0.00186573 0.00968289 0.00812516
v -0.00289759 0.00966148 0.00786760
v -0.00263944 0.00959624 0.00809920
v -0.00341314 0.00967854 0.00760936
v -0.00160758 0.00970330 0.00812516
v -0.00135019 0.00972137 0.00812516
v -0.00109203 0.00962836 0.00838341
v -0.00083387 0.00964241 0.00838341
v -0.00082928 0.00976052 0.00810093
v -0.00057572 0.00975416 0.00813278
v -0.00031833 0.00975717 0.00814039
v -0.00016588 0.00978862 0.00806769
v -0.00005940 0.00975951 0.00814593
v 0.00019722 0.00980936 0.00801507
v 0.00045538 0.00980669 0.00800781
v 0.00084529 0.00980234 0.00799673
v -0.00367129 0.00963070 0.00760936
v -0.00389498 0.00968791 0.00735215
v 0.00101688 0.00979732 0.00798427
v 0.00174539 0.00977323 0.00792092
v 0.00200278 0.00976152 0.00788907
v 0.00200278 0.00981037 0.00775994
v 0.00223949 0.00983680 0.00762147
v 0.00122908 0.00979096 0.00796730
v 0.00148723 0.00978226 0.00794549
v 0.00174539 0.00969427 0.00812516
v 0.00231073 0.00979364 0.00771563
v 0.00251833 0.00978226 0.00768517
v 0.00277648 0.00976587 0.00764017
v 0.00277648 0.00981371 0.00751139
v 0.00301319 0.00983379 0.00735838
v 0.00301319 0.00975115 0.00758547
v 0.00329280 0.00969962 0.00760936
v 0.00291361 0.00980334 0.00748369
v 0.00354636 0.00975851 0.00733726
v 0.00362986 0.00979297 0.00719671
v 0.00380834 0.00982074 0.00701912
v 0.00393091 0.00982777 0.00693050
v 0.00393091 0.00871361 0.00896395
v 0.00366663 0.00876346 0.00902245
v 0.00349427 0.00879224 0.00904910
v 0.00329280 0.00882168 0.00907161
v 0.00303464 0.00885581 0.00908407
v 0.00226094 0.00889930 0.00912769
v 0.00200278 0.00889930 0.00913842
v 0.00019722 0.00915726 0.00910103
v 0.00019722 0.00930013 0.00904460
v -0.00005940 0.00930080 0.00904495
v -0.00016588 0.00915726 0.00910068
v -0.00031833 0.00915726 0.00909861
v -0.00057572 0.00915726 0.00909411
v -0.00186573 0.00910407 0.00908441
v -0.00212389 0.00889930 0.00913530
v -0.00389498 0.00859182 0.00907680
v -0.00315575 0.00884042 0.00908026
v -0.00238128 0.00889930 0.00912007
v -0.00212389 0.00957181 0.00830552
v -0.00186573 0.00958787 0.00833598
v -0.00160758 0.00959858 0.00835917
v -0.00316647 0.00960460 0.00788664
v -0.00308834 0.00955843 0.00802338
v -0.00289759 0.00957650 0.00805835
v -0.00232383 0.00955609 0.00827540
v -0.00341314 0.00958653 0.00782399
v -0.00109203 0.00955609 0.00853330
v -0.00083387 0.00956445 0.00854819
v -0.00057572 0.00956847 0.00855580
v -0.00031833 0.00957248 0.00856307
v -0.00057572 0.00964977 0.00838341
v -0.00031833 0.00965646 0.00838341
v -0.00016588 0.00965981 0.00838341
v -0.00016588 0.00975851 0.00814385
v -0.00005940 0.00966181 0.00838306
v 0.00019722 0.00975884 0.00814385
v 0.00094718 0.00975617 0.00809989
v 0.00071353 0.00975282 0.00812931
v -0.00389498 0.00958319 0.00760832
v -0.00389498 0.00957716 0.00762217
v -0.00380305 0.00954504 0.00773986
v -0.00367129 0.00955977 0.00776825
v 0.00122908 0.00972940 0.00812516
v 0.00200278 0.00966851 0.00812516
v 0.00251833 0.00971334 0.00786726
v 0.00213837 0.00980301 0.00774056
v 0.00148723 0.00971234 0.00812516
v 0.00174539 0.00959389 0.00835052
v 0.00122908 0.00961865 0.00838306
v 0.00277648 0.00967988 0.00786726
v 0.00355019 0.00965546 0.00760936
v 0.00303464 0.00963705 0.00786726
v 0.00380834 0.00970498 0.00735215
v 0.00380834 0.00977624 0.00714790
v 0.00393091 0.00980903 0.00698555
v 0.00393091 0.00876580 0.00890302
v 0.00393091 0.00881900 0.00883517
v 0.00356857 0.00886919 0.00892171
v 0.00331501 0.00896521 0.00889298
v 0.00303464 0.00898462 0.00897433
v 0.00284160 0.00900938 0.00900929
v 0.00266924 0.00903247 0.00903318
v 0.00251833 0.00904919 0.00904945
v 0.00226094 0.00907563 0.00907091
v 0.00200278 0.00909470 0.00908199
v 0.00174539 0.00910674 0.00908476
v 0.00071353 0.00915726 0.00909272
v 0.00045538 0.00915726 0.00909757
v 0.00019722 0.00938746 0.00889921
v -0.00005940 0.00938880 0.00889921
v 0.00045538 0.00929712 0.00904114
v -0.00016588 0.00929946 0.00904391
v -0.00031833 0.00929779 0.00904184
v -0.00057572 0.00929411 0.00903733
v -0.00212389 0.00908801 0.00907818
v -0.00078255 0.00929009 0.00903283
v -0.00095414 0.00928541 0.00902730
v -0.00389498 0.00861290 0.00906261
v -0.00341314 0.00880395 0.00905880
v -0.00356941 0.00877885 0.00903733
v -0.00238128 0.00906525 0.00906295
v -0.00258198 0.00904484 0.00904530
v -0.00212389 0.00950088 0.00843430
v -0.00186573 0.00951727 0.00846510
v -0.00125979 0.00954806 0.00851911
v -0.00315039 0.00934430 0.00839691
v -0.00306152 0.00929377 0.00852465
v -0.00289759 0.00950824 0.00818747
v -0.00368508 0.00935634 0.00814628
v -0.00263944 0.00952965 0.00822832
v -0.00263944 0.00944400 0.00838341
v -0.00236519 0.00933928 0.00865446
v -0.00226790 0.00928876 0.00877459
v -0.00109203 0.00948248 0.00866243
v -0.00085456 0.00934931 0.00892448
v -0.00083387 0.00949118 0.00867696
v -0.00057572 0.00937441 0.00889921
v -0.00057572 0.00949586 0.00868458
v -0.00031833 0.00949988 0.00869220
v -0.00016588 0.00957415 0.00856653
v -0.00005940 0.00957549 0.00856861
v -0.00016588 0.00950188 0.00869566
v 0.00019722 0.00957449 0.00856723
v 0.00019722 0.00966014 0.00838306
v 0.00071353 0.00964676 0.00838306
v 0.00097169 0.00963605 0.00838306
v -0.00389498 0.00953266 0.00771563
v -0.00378007 0.00928139 0.00824563
v -0.00389498 0.00947277 0.00783195
v -0.00389498 0.00933593 0.00809193
v 0.00200278 0.00957984 0.00832075
v 0.00226094 0.00963505 0.00812516
v 0.00146579 0.00959189 0.00840072
v 0.00122908 0.00955107 0.00852499
v 0.00153703 0.00953668 0.00849868
v 0.00174539 0.00952564 0.00847930
v 0.00097169 0.00956077 0.00854265
v 0.00277648 0.00958720 0.00807946
v 0.00355019 0.00957415 0.00779664
v 0.00372101 0.00955542 0.00775960
v 0.00380758 0.00959724 0.00762113
v 0.00393091 0.00967955 0.00735215
v 0.00303464 0.00956311 0.00803238
v 0.00327594 0.00958921 0.00787557
v 0.00393091 0.00972940 0.00721472
v 0.00393091 0.00976520 0.00711225
v 0.00393091 0.00902209 0.00855926
v 0.00380834 0.00896722 0.00868666
v 0.00380834 0.00906124 0.00855753
v 0.00355019 0.00910039 0.00861119
v 0.00324377 0.00905221 0.00880297
v 0.00303464 0.00908198 0.00884521
v 0.00276423 0.00909838 0.00891375
v 0.00251833 0.00915827 0.00889921
v 0.00226707 0.00921782 0.00888190
v 0.00200278 0.00922385 0.00893452
v 0.00122908 0.00926835 0.00900964
v 0.00105136 0.00927939 0.00902176
v 0.00087900 0.00928876 0.00903145
v 0.00071353 0.00929310 0.00903630
v 0.00019722 0.00950255 0.00869635
v 0.00045538 0.00938077 0.00889921
v -0.00005940 0.00950289 0.00869774
v -0.00031833 0.00938277 0.00889921
v -0.00186573 0.00923321 0.00894906
v -0.00109203 0.00935333 0.00888813
v -0.00135019 0.00934095 0.00886632
v -0.00160758 0.00932824 0.00884348
v -0.00186573 0.00931519 0.00882028
v -0.00374100 0.00874606 0.00900237
v -0.00389498 0.00871829 0.00896879
v -0.00275434 0.00902243 0.00902349
v -0.00366134 0.00884510 0.00890960
v -0.00389498 0.00882001 0.00884209
v -0.00315575 0.00896890 0.00895148
v -0.00341161 0.00894347 0.00888398
v -0.00212389 0.00921682 0.00892137
v -0.00236519 0.00920511 0.00887602
v -0.00265629 0.00911645 0.00892206
v -0.00212389 0.00938478 0.00864131
v -0.00212389 0.00929913 0.00879224
v -0.00186573 0.00941723 0.00864131
v -0.00341314 0.00932355 0.00832352
v -0.00323312 0.00927437 0.00849211
v -0.00315039 0.00920645 0.00862296
v -0.00289759 0.00909938 0.00887013
v -0.00289759 0.00922853 0.00867870
v -0.00263944 0.00925496 0.00871816
v -0.00243950 0.00927403 0.00874897
v -0.00289759 0.00930783 0.00854992
v -0.00289759 0.00940084 0.00838341
v 0.00045538 0.00957081 0.00856030
v 0.00071353 0.00956679 0.00855303
v -0.00389498 0.00926567 0.00822001
v 0.00200278 0.00950924 0.00844953
v 0.00226094 0.00956077 0.00828475
v 0.00250914 0.00959490 0.00814074
v 0.00122908 0.00948047 0.00865377
v 0.00174539 0.00943463 0.00864131
v 0.00146579 0.00947813 0.00861604
v 0.00200278 0.00940184 0.00864131
v 0.00097169 0.00948950 0.00867143
v 0.00241721 0.00954839 0.00826225
v 0.00258880 0.00953467 0.00823732
v 0.00277648 0.00951928 0.00820859
v 0.00355019 0.00950623 0.00792576
v 0.00317866 0.00954739 0.00800261
v 0.00379762 0.00933861 0.00813520
v 0.00387575 0.00927102 0.00822763
v 0.00393091 0.00928340 0.00817674
v 0.00389337 0.00953233 0.00771494
v 0.00393091 0.00954070 0.00767721
v 0.00393091 0.00958519 0.00758201
v 0.00393091 0.00962267 0.00749339
v 0.00303464 0.00949452 0.00816151
v 0.00393091 0.00904217 0.00853157
v 0.00379762 0.00920043 0.00836264
v 0.00329280 0.00926533 0.00847757
v 0.00331501 0.00912916 0.00866554
v 0.00315108 0.00928340 0.00850734
v 0.00305303 0.00922452 0.00863058
v 0.00277648 0.00924158 0.00869877
v 0.00251833 0.00926634 0.00873720
v 0.00235746 0.00928073 0.00876074
v 0.00218510 0.00929478 0.00878463
v 0.00200278 0.00930783 0.00880540
v 0.00174539 0.00932389 0.00883067
v 0.00148723 0.00933827 0.00885698
v 0.00122908 0.00935166 0.00888086
v 0.00096709 0.00934731 0.00892102
v 0.00071353 0.00937240 0.00889921
v 0.00045538 0.00949887 0.00868943
v 0.00071353 0.00949486 0.00868216
v -0.00315575 0.00906626 0.00882270
v -0.00389498 0.00904518 0.00853572
v -0.00332504 0.00904116 0.00878774
v -0.00341314 0.00924927 0.00845264
v -0.00341161 0.00910975 0.00865516
v -0.00389498 0.00917165 0.00835641
v 0.00226707 0.00935065 0.00866139
v 0.00250914 0.00947813 0.00836229
v 0.00277648 0.00942326 0.00838306
v 0.00297949 0.00930113 0.00853746
v 0.00305303 0.00935868 0.00840625
v 0.00355019 0.00939984 0.00812516
v 0.00370340 0.00929143 0.00826328
v 0.00393091 0.00914890 0.00837752
v 0.00393091 0.00926232 0.00821378
v 0.00393091 0.00944701 0.00786033
v 0.00393091 0.00952698 0.00770490
v 0.00277648 0.00931887 0.00856965
v -0.00389498 0.00907563 0.00849315
v -0.00367129 0.00908031 0.00858384
v -0.00389498 0.00914254 0.00839829
f 1 2 6
f 1 6 10
f 1 10 15
f 1 15 20
f 1 20 25
f 1 25 34
f 1 34 48
f 1 48 77
f 1 77 112
f 1 112 147
f 1 147 187
f 1 187 234
f 1 234 274
f 1 274 329
f 1 329 400
f 1 400 399
f 1 399 396
f 1 396 468
f 1 468 467
f 1 467 466
f 1 466 504
f 1 504 503
f 1 503 464
f 1 464 502
f 1 502 501
f 1 501 470
f 1 470 401
f 1 401 331
f 1 331 330
f 1 330 275
f 1 275 222
f 1 222 181
f 1 181 144
f 1 144 110
f 1 110 76
f 1 76 47
f 1 47 46
f 1 46 33
f 1 33 24
f 1 24 22
f 1 22 16
f 1 16 11
f 1 11 7
f 1 7 3
f 1 3 4
f 1 4 5
f 1 5 2
f 2 5 6
f 3 7 8
f 3 8 4
f 4 8 13
f 4 13 12
f 4 12 18
f 4 18 17
f 4 17 23
f 4 23 32
f 4 32 45
f 4 45 75
f 4 75 109
f 4 109 111
f 4 111 146
f 4 146 185
f 4 185 230
f 4 230 290
f 4 290 352
f 4 352 425
f 4 425 428
f 4 428 489
f 4 489 506
f 4 506 508
f 4 508 493
f 4 493 448
f 4 448 384
f 4 384 383
f 4 383 381
f 4 381 314
f 4 314 313
f 4 313 254
f 4 254 211
f 4 211 169
f 4 169 168
f 4 168 167
f 4 167 149
f 4 149 114
f 4 114 78
f 4 78 50
f 4 50 49
f 4 49 35
f 4 35 26
f 4 26 21
f 4 21 19
f 4 19 14
f 4 14 9
f 4 9 5
f 5 9 10
f 5 10 6
f 7 11 12
f 7 12 13
f 7 13 8
f 9 14 15
f 9 15 10
f 11 16 17
f 11 17 18
f 11 18 12
f 14 19 15
f 15 19 21
f 15 21 20
f 16 22 17
f 17 22 24
f 17 24 23
f 20 21 25
f 21 26 27
f 21 27 28
f 21 28 29
f 21 29 30
f 21 30 31
f 21 31 25
f 23 24 32
f 24 33 32
f 25 31 34
f 26 35 36
f 26 36 27
f 27 37 38
f 27 38 39
f 27 39 40
f 27 40 29
f 27 29 28
f 27 36 41
f 27 41 42
f 27 42 37
f 29 40 67
f 29 67 43
f 29 43 31
f 29 31 30
f 31 44 34
f 31 43 67
f 31 67 44
f 32 33 46
f 32 46 47
f 32 47 45
f 34 44 48
f 35 49 36
f 36 49 50
f 36 50 41
f 37 42 69
f 37 69 51
f 37 51 52
f 37 52 38
f 38 52 53
f 38 53 54
f 38 54 55
f 38 55 39
f 39 56 57
f 39 57 58
f 39 58 59
f 39 59 60
f 39 60 40
f 39 55 56
f 40 61 62
f 40 62 63
f 40 63 64
f 40 64 65
f 40 65 66
f 40 66 67
f 40 60 61
f 41 50 68
f 41 68 42
f 42 68 69
f 44 70 48
f 44 67 71
f 44 71 72
f 44 72 73
f 44 73 74
f 44 74 70
f 45 47 75
f 47 76 75
f 48 70 77
f 50 78 68
f 51 79 80
f 51 80 53
f 51 53 52
f 51 69 79
f 53 80 54
f 54 80 81
f 54 81 55
f 55 81 82
f 55 82 56
f 56 82 83
f 56 83 57
f 57 83 84
f 57 84 58
f 58 85 59
f 58 84 86
f 58 86 85
f 59 85 87
f 59 87 88
f 59 88 60
f 60 88 89
f 60 89 61
f 61 89 90
f 61 90 91
f 61 91 62
f 62 91 63
f 63 91 64
f 64 91 92
f 64 92 66
f 64 66 65
f 66 92 67
f 67 92 93
f 67 93 94
f 67 94 95
f 67 95 71
f 68 78 69
f 69 78 96
f 69 96 97
f 69 97 79
f 70 74 98
f 70 98 77
f 71 95 99
f 71 99 100
f 71 100 101
f 71 101 72
f 72 101 73
f 73 101 102
f 73 102 103
f 73 103 104
f 73 104 105
f 73 105 106
f 73 106 74
f 74 106 107
f 74 107 108
f 74 108 98
f 75 76 109
f 76 110 111
f 76 111 109
f 77 98 113
f 77 113 112
f 78 114 96
f 79 97 115
f 79 115 80
f 80 115 116
f 80 116 117
f 80 117 83
f 80 83 118
f 80 118 81
f 81 118 82
f 82 118 83
f 83 119 120
f 83 120 84
f 83 117 119
f 84 120 121
f 84 121 86
f 85 121 122
f 85 122 87
f 85 86 121
f 87 122 123
f 87 123 89
f 87 89 88
f 89 123 124
f 89 124 90
f 90 124 125
f 90 125 91
f 91 125 163
f 91 163 126
f 91 126 92
f 92 126 93
f 93 126 94
f 94 127 95
f 94 126 128
f 94 128 127
f 95 129 99
f 95 127 129
f 96 130 131
f 96 131 97
f 96 114 130
f 97 132 115
f 97 131 132
f 98 108 107
f 98 107 113
f 99 129 133
f 99 133 134
f 99 134 100
f 100 134 135
f 100 135 136
f 100 136 137
f 100 137 138
f 100 138 101
f 101 138 139
f 101 139 102
f 102 140 141
f 102 141 103
f 102 139 140
f 103 142 104
f 103 141 140
f 103 140 142
f 104 143 105
f 104 142 143
f 105 143 106
f 106 143 107
f 107 143 113
f 110 144 184
f 110 184 145
f 110 145 111
f 111 145 184
f 111 184 229
f 111 229 233
f 111 233 186
f 111 186 146
f 112 113 147
f 113 143 148
f 113 148 147
f 114 149 130
f 115 150 151
f 115 151 152
f 115 152 119
f 115 119 116
f 115 132 153
f 115 153 150
f 116 119 117
f 119 154 155
f 119 155 120
f 119 152 154
f 120 155 156
f 120 156 157
f 120 157 121
f 121 157 122
f 122 158 159
f 122 159 160
f 122 160 123
f 122 157 158
f 123 160 124
f 124 160 161
f 124 161 162
f 124 162 125
f 125 162 207
f 125 207 163
f 126 163 128
f 127 164 133
f 127 133 129
f 127 128 163
f 127 163 164
f 130 165 166
f 130 166 131
f 130 149 167
f 130 167 168
f 130 168 169
f 130 169 165
f 131 166 170
f 131 170 171
f 131 171 132
f 132 171 153
f 133 172 135
f 133 135 134
f 133 164 172
f 135 172 136
f 136 172 137
f 137 173 174
f 137 174 139
f 137 139 138
f 137 172 175
f 137 175 176
f 137 176 173
f 139 174 140
f 140 174 177
f 140 177 142
f 142 177 178
f 142 178 179
f 142 179 143
f 143 179 180
f 143 180 148
f 144 181 182
f 144 182 183
f 144 183 184
f 146 186 185
f 147 148 187
f 148 180 188
f 148 188 187
f 150 189 151
f 150 153 189
f 151 189 190
f 151 190 191
f 151 191 152
f 152 191 154
f 153 192 189
f 153 171 193
f 153 193 194
f 153 194 195
f 153 195 192
f 154 196 155
f 154 191 196
f 155 197 198
f 155 198 156
f 155 196 197
f 156 198 199
f 156 199 157
f 157 199 200
f 157 200 158
f 158 201 159
f 158 200 201
f 159 201 202
f 159 202 203
f 159 203 160
f 160 203 204
f 160 204 205
f 160 205 161
f 161 205 206
f 161 206 162
f 162 206 207
f 163 207 164
f 164 208 172
f 164 207 208
f 165 209 166
f 165 169 209
f 166 210 170
f 166 209 210
f 169 211 209
f 170 194 171
f 170 210 194
f 171 194 193
f 172 212 175
f 172 208 212
f 173 213 214
f 173 214 177
f 173 177 174
f 173 176 215
f 173 215 216
f 173 216 213
f 175 212 215
f 175 215 176
f 177 214 178
f 178 217 218
f 178 218 179
f 178 214 217
f 179 218 180
f 180 219 220
f 180 220 221
f 180 221 188
f 180 218 219
f 181 222 223
f 181 223 224
f 181 224 182
f 182 224 225
f 182 225 183
f 183 225 226
f 183 226 184
f 184 226 227
f 184 227 228
f 184 228 229
f 185 186 231
f 185 231 232
f 185 232 230
f 186 233 231
f 187 188 234
f 188 221 234
f 189 192 190
f 190 235 191
f 190 192 236
f 190 236 237
f 190 237 235
f 191 235 196
f 192 195 238
f 192 238 239
f 192 239 236
f 194 238 195
f 194 210 209
f 194 209 240
f 194 240 238
f 196 237 197
f 196 235 237
f 197 241 242
f 197 242 198
f 197 237 241
f 198 242 199
f 199 243 244
f 199 244 245
f 199 245 200
f 199 242 243
f 200 245 201
f 201 245 246
f 201 246 202
f 202 246 247
f 202 247 203
f 203 247 248
f 203 248 204
f 204 248 249
f 204 249 206
f 204 206 205
f 206 249 250
f 206 250 207
f 207 250 208
f 208 250 251
f 208 251 252
f 208 252 212
f 209 253 240
f 209 211 254
f 209 254 253
f 212 252 255
f 212 255 215
f 213 256 257
f 213 257 258
f 213 258 214
f 213 216 256
f 214 258 259
f 214 259 217
f 215 255 260
f 215 260 216
f 216 260 261
f 216 261 262
f 216 262 256
f 217 259 263
f 217 263 264
f 217 264 265
f 217 265 266
f 217 266 218
f 218 266 267
f 218 267 219
f 219 268 269
f 219 269 220
f 219 267 266
f 219 266 270
f 219 270 268
f 220 271 272
f 220 272 221
f 220 269 271
f 221 272 273
f 221 273 274
f 221 274 234
f 222 275 276
f 222 276 277
f 222 277 278
f 222 278 223
f 223 278 224
f 224 278 279
f 224 279 280
f 224 280 225
f 225 280 281
f 225 281 227
f 225 227 226
f 227 281 282
f 227 282 228
f 228 282 283
f 228 283 284
f 228 284 285
f 228 285 229
f 229 286 287
f 229 287 288
f 229 288 289
f 229 289 231
f 229 231 233
f 229 285 286
f 230 232 290
f 231 291 232
f 231 289 292
f 231 292 291
f 232 291 290
f 236 293 294
f 236 294 237
f 236 239 293
f 237 294 295
f 237 295 241
f 238 240 296
f 238 296 297
f 238 297 298
f 238 298 239
f 239 299 293
f 239 298 299
f 240 300 296
f 240 253 300
f 241 295 243
f 241 243 242
f 243 301 302
f 243 302 244
f 243 295 301
f 244 302 303
f 244 303 304
f 244 304 305
f 244 305 245
f 245 305 246
f 246 305 306
f 246 306 247
f 247 306 307
f 247 307 308
f 247 308 248
f 248 308 249
f 249 309 310
f 249 310 250
f 249 308 309
f 250 310 251
f 251 310 252
f 252 311 255
f 252 310 312
f 252 312 311
f 253 254 313
f 253 313 314
f 253 314 315
f 253 315 316
f 253 316 300
f 255 311 317
f 255 317 260
f 256 262 257
f 257 262 318
f 257 318 319
f 257 319 263
f 257 263 320
f 257 320 258
f 258 320 259
f 259 320 263
f 260 317 321
f 260 321 261
f 261 321 262
f 262 322 318
f 262 321 323
f 262 323 322
f 263 319 264
f 264 319 265
f 265 319 324
f 265 324 268
f 265 268 266
f 266 268 270
f 268 324 269
f 269 325 271
f 269 324 326
f 269 326 325
f 271 325 327
f 271 327 272
f 272 327 328
f 272 328 273
f 273 328 329
f 273 329 274
f 275 330 276
f 276 330 331
f 276 331 332
f 276 332 333
f 276 333 334
f 276 334 277
f 277 334 335
f 277 335 336
f 277 336 278
f 278 336 337
f 278 337 338
f 278 338 279
f 279 338 280
f 280 338 339
f 280 339 281
f 281 339 340
f 281 340 341
f 281 341 342
f 281 342 282
f 282 342 283
f 283 343 344
f 283 344 284
f 283 342 345
f 283 345 343
f 284 344 346
f 284 346 286
f 284 286 285
f 286 346 287
f 287 346 347
f 287 347 348
f 287 348 288
f 288 349 289
f 288 348 350
f 288 350 351
f 288 351 349
f 289 349 292
f 290 291 353
f 290 353 354
f 290 354 352
f 291 292 349
f 291 349 355
f 291 355 356
f 291 356 353
f 293 299 357
f 293 357 358
f 293 358 294
f 294 358 359
f 294 359 301
f 294 301 295
f 296 300 297
f 297 360 361
f 297 361 362
f 297 362 298
f 297 300 316
f 297 316 315
f 297 315 363
f 297 363 360
f 298 362 364
f 298 364 299
f 299 364 365
f 299 365 366
f 299 366 367
f 299 367 357
f 301 359 368
f 301 368 351
f 301 351 302
f 302 351 369
f 302 369 370
f 302 370 371
f 302 371 372
f 302 372 373
f 302 373 303
f 303 373 304
f 304 374 375
f 304 375 307
f 304 307 306
f 304 306 305
f 304 373 376
f 304 376 374
f 307 375 309
f 307 309 308
f 309 375 377
f 309 377 378
f 309 378 310
f 310 378 312
f 311 312 379
f 311 379 380
f 311 380 317
f 312 378 379
f 314 381 315
f 315 382 363
f 315 381 383
f 315 383 384
f 315 384 382
f 317 380 321
f 318 322 385
f 318 385 386
f 318 386 324
f 318 324 319
f 321 380 323
f 322 323 387
f 322 387 388
f 322 388 389
f 322 389 390
f 322 390 385
f 323 388 387
f 323 380 391
f 323 391 388
f 324 386 392
f 324 392 326
f 325 326 393
f 325 393 394
f 325 394 395
f 325 395 396
f 325 396 327
f 326 397 398
f 326 398 393
f 326 392 397
f 327 396 399
f 327 399 400
f 327 400 328
f 328 400 329
f 331 401 402
f 331 402 332
f 332 402 403
f 332 403 404
f 332 404 405
f 332 405 333
f 333 405 406
f 333 406 334
f 334 406 335
f 335 407 336
f 335 406 407
f 336 407 408
f 336 408 337
f 337 408 409
f 337 409 410
f 337 410 338
f 338 410 411
f 338 411 412
f 338 412 339
f 339 412 413
f 339 413 414
f 339 414 340
f 340 414 341
f 341 414 345
f 341 345 342
f 343 415 344
f 343 345 416
f 343 416 415
f 344 415 417
f 344 417 376
f 344 376 418
f 344 418 347
f 344 347 346
f 345 414 416
f 347 418 348
f 348 418 350
f 349 351 419
f 349 419 355
f 350 369 351
f 350 418 371
f 350 371 369
f 351 368 420
f 351 420 421
f 351 421 422
f 351 422 423
f 351 423 419
f 352 354 424
f 352 424 425
f 353 356 426
f 353 426 354
f 354 427 428
f 354 428 424
f 354 426 429
f 354 429 430
f 354 430 427
f 355 419 431
f 355 431 356
f 356 431 432
f 356 432 433
f 356 433 426
f 357 367 434
f 357 434 358
f 358 434 435
f 358 435 436
f 358 436 359
f 359 421 368
f 359 436 422
f 359 422 421
f 360 363 437
f 360 437 438
f 360 438 361
f 361 438 439
f 361 439 440
f 361 440 441
f 361 441 442
f 361 442 443
f 361 443 444
f 361 444 445
f 361 445 362
f 362 445 364
f 363 382 437
f 364 445 365
f 365 445 366
f 366 445 367
f 367 445 444
f 367 444 443
f 367 443 432
f 367 432 431
f 367 431 435
f 367 435 434
f 368 421 420
f 369 371 370
f 371 418 372
f 372 418 373
f 373 418 376
f 374 376 375
f 375 376 417
f 375 417 415
f 375 415 377
f 377 415 486
f 377 486 446
f 377 446 379
f 377 379 378
f 379 446 447
f 379 447 380
f 380 447 391
f 382 384 448
f 382 448 438
f 382 438 437
f 385 390 449
f 385 449 450
f 385 450 392
f 385 392 451
f 385 451 386
f 386 451 392
f 388 391 452
f 388 452 389
f 389 453 390
f 389 452 454
f 389 454 453
f 390 453 455
f 390 455 449
f 391 456 452
f 391 447 456
f 392 450 457
f 392 457 458
f 392 458 459
f 392 459 397
f 393 460 394
f 393 398 397
f 393 397 461
f 393 461 460
f 394 462 463
f 394 463 464
f 394 464 465
f 394 465 466
f 394 466 467
f 394 467 395
f 394 460 462
f 395 467 468
f 395 468 396
f 397 469 461
f 397 459 469
f 401 470 403
f 401 403 402
f 403 470 463
f 403 463 471
f 403 471 404
f 404 471 463
f 404 463 472
f 404 472 473
f 404 473 405
f 405 473 406
f 406 473 472
f 406 472 474
f 406 474 475
f 406 475 407
f 407 476 408
f 407 475 476
f 408 477 409
f 408 476 477
f 409 477 478
f 409 478 479
f 409 479 410
f 410 479 480
f 410 480 481
f 410 481 482
f 410 482 411
f 411 483 412
f 411 482 483
f 412 483 413
f 413 483 484
f 413 484 456
f 413 456 485
f 413 485 414
f 414 485 416
f 415 416 486
f 416 485 487
f 416 487 486
f 419 423 435
f 419 435 431
f 422 436 423
f 423 436 435
f 424 428 425
f 426 433 440
f 426 440 488
f 426 488 429
f 427 489 428
f 427 430 489
f 429 488 430
f 430 488 490
f 430 490 489
f 432 443 442
f 432 442 433
f 433 442 441
f 433 441 440
f 438 448 491
f 438 491 492
f 438 492 488
f 438 488 439
f 439 488 440
f 446 486 487
f 446 487 447
f 447 487 456
f 448 493 491
f 449 455 479
f 449 479 494
f 449 494 450
f 450 494 457
f 452 456 483
f 452 483 454
f 453 454 483
f 453 483 482
f 453 482 481
f 453 481 480
f 453 480 455
f 455 480 479
f 456 487 485
f 456 484 483
f 457 495 458
f 457 494 495
f 458 495 496
f 458 496 459
f 459 496 497
f 459 497 498
f 459 498 469
f 460 461 469
f 460 469 499
f 460 499 462
f 462 499 500
f 462 500 463
f 463 500 474
f 463 474 472
f 463 470 501
f 463 501 502
f 463 502 464
f 464 503 465
f 465 503 504
f 465 504 466
f 469 498 474
f 469 474 499
f 474 498 497
f 474 497 476
f 474 476 475
f 474 500 499
f 476 497 477
f 477 497 505
f 477 505 478
f 478 505 496
f 478 496 495
f 478 495 494
f 478 494 479
f 488 492 490
f 489 490 507
f 489 507 506
f 490 492 507
f 491 493 492
f 492 493 508
f 492 508 506
f 492 506 507
f 496 505 497

