# https://github.com/mikedh/trimesh
v 0.02493297 -0.00029786 -0.00672084
v 0.03027781 -0.00964541 -0.00672084
v 0.03027781 -0.00958987 -0.00756015
v 0.02864697 -0.00672062 -0.00960174
v 0.02493297 -0.00029786 -0.00756015
v 0.01595092 -0.00029786 -0.00672084
v 0.03027781 -0.01164600 -0.00672084
v 0.03027781 -0.00967541 -0.00827988
v 0.02909721 -0.00764038 -0.00960174
v 0.02452423 -0.00029786 -0.00960174
v 0.02491638 -0.00029786 -0.00798065
v 0.00908315 -0.00029786 -0.00960174
v 0.01371630 -0.00829021 -0.00672084
v 0.03027781 -0.01164600 -0.00684013
v 0.01806105 -0.01164600 -0.00672084
v 0.03027781 -0.00994756 -0.00868656
v 0.02914493 -0.00781256 -0.00960174
v 0.00908107 -0.00069997 -0.00960174
v 0.01352127 -0.00971984 -0.00672084
v 0.01353994 -0.00904002 -0.00672084
v 0.01354201 -0.00899892 -0.00672084
v 0.03027781 -0.01164489 -0.00756015
v 0.02813863 -0.01164600 -0.00899989
v 0.01590112 -0.01164489 -0.00672084
v 0.01806105 -0.01164600 -0.00684013
v 0.03027781 -0.01033412 -0.00868656
v 0.02940844 -0.01044743 -0.00960174
v 0.02923415 -0.00827910 -0.00960174
v 0.02921755 -0.00810804 -0.00960174
v 0.00908315 -0.00468005 -0.00960174
v 0.01363331 -0.01049297 -0.00672084
v 0.02886483 -0.01156158 -0.00960174
v 0.03027781 -0.01164267 -0.00757961
v 0.02813863 -0.01161490 -0.00960174
v 0.02165885 -0.01164600 -0.00899989
v 0.01529942 -0.01162156 -0.00672084
v 0.01518115 -0.01161712 -0.00684013
v 0.01590112 -0.01164489 -0.00899989
v 0.02021890 -0.01164600 -0.00827988
v 0.03027781 -0.01036078 -0.00868628
v 0.03027781 -0.01070736 -0.00864059
v 0.02929640 -0.01119168 -0.00960174
v 0.00937363 -0.00540319 -0.00960174
v 0.01260833 -0.01018083 -0.00783992
v 0.01389474 -0.01099728 -0.00672084
v 0.01338432 -0.01079400 -0.00720451
v 0.02897687 -0.01154825 -0.00960174
v 0.03027781 -0.01158157 -0.00802295
v 0.02525873 -0.01161490 -0.00960174
v 0.01590112 -0.01161379 -0.00960174
v 0.01518115 -0.01161157 -0.00672084
v 0.01518115 -0.01161601 -0.00899989
v 0.01472468 -0.01155158 -0.00672084
v 0.01470808 -0.01155380 -0.00684013
v 0.01467074 -0.01155269 -0.00899989
v 0.01518115 -0.01159712 -0.00960174
v 0.01529942 -0.01160157 -0.00960174
v 0.03027781 -0.01115946 -0.00837069
v 0.02918228 -0.01150048 -0.00960174
v 0.02925905 -0.01129831 -0.00960174
v 0.01179706 -0.00958099 -0.00960174
v 0.01184063 -0.00951878 -0.00920126
v 0.01250666 -0.01028636 -0.00827988
v 0.01324116 -0.01090286 -0.00768452
v 0.01385739 -0.01102838 -0.00684013
v 0.01395906 -0.01105393 -0.00672084
v 0.01468111 -0.01155047 -0.00960174
v 0.01476410 -0.01156047 -0.00960174
v 0.01436988 -0.01135385 -0.00672084
v 0.01434913 -0.01138829 -0.00684013
v 0.01432216 -0.01146716 -0.00756015
v 0.01432008 -0.01147049 -0.00827988
v 0.01430971 -0.01147049 -0.00899989
v 0.01432008 -0.01146938 -0.00960174
v 0.01203774 -0.00992534 -0.00960174
v 0.01241122 -0.01033857 -0.00899989
v 0.01279921 -0.01064626 -0.00827988
v 0.01316024 -0.01095396 -0.00827988
v 0.01374120 -0.01126499 -0.00827988
v 0.01383457 -0.01129720 -0.00960174
v 0.01239669 -0.01033968 -0.00960174
v 0.01279092 -0.01069847 -0.00899989
v 0.01314987 -0.01095396 -0.00899989
v 0.01374120 -0.01126388 -0.00899989
v 0.01324531 -0.01100395 -0.00960174
v 0.01374120 -0.01126277 -0.00960174
v 0.01245894 -0.01039855 -0.00960174
v 0.01278884 -0.01069958 -0.00960174
v 0.01308970 -0.01091175 -0.00960174
v 0.01314987 -0.01095285 -0.00960174
f 1 2 3
f 1 3 4
f 1 4 5
f 1 5 11
f 1 11 10
f 1 10 12
f 1 12 6
f 1 6 13
f 1 13 21
f 1 21 20
f 1 20 19
f 1 19 31
f 1 31 45
f 1 45 66
f 1 66 69
f 1 69 53
f 1 53 51
f 1 51 36
f 1 36 24
f 1 24 15
f 1 15 7
f 1 7 2
f 2 7 14
f 2 14 22
f 2 22 33
f 2 33 48
f 2 48 58
f 2 58 41
f 2 41 40
f 2 40 26
f 2 26 16
f 2 16 8
f 2 8 3
f 3 8 4
f 4 8 9
f 4 9 17
f 4 17 29
f 4 29 28
f 4 28 27
f 4 27 42
f 4 42 60
f 4 60 59
f 4 59 47
f 4 47 32
f 4 32 34
f 4 34 49
f 4 49 50
f 4 50 57
f 4 57 56
f 4 56 68
f 4 68 67
f 4 67 74
f 4 74 80
f 4 80 86
f 4 86 85
f 4 85 90
f 4 90 89
f 4 89 88
f 4 88 87
f 4 87 81
f 4 81 75
f 4 75 61
f 4 61 43
f 4 43 30
f 4 30 18
f 4 18 12
f 4 12 10
f 4 10 11
f 4 11 5
f 6 12 13
f 7 15 25
f 7 25 39
f 7 39 35
f 7 35 23
f 7 23 14
f 8 16 9
f 9 16 17
f 12 18 19
f 12 19 20
f 12 20 21
f 12 21 13
f 14 23 22
f 15 24 38
f 15 38 25
f 16 26 27
f 16 27 28
f 16 28 29
f 16 29 17
f 18 30 19
f 19 30 31
f 22 32 33
f 22 23 34
f 22 34 32
f 23 35 49
f 23 49 34
f 24 36 37
f 24 37 38
f 25 38 39
f 26 40 27
f 27 40 41
f 27 41 42
f 30 43 44
f 30 44 31
f 31 44 46
f 31 46 45
f 32 47 33
f 33 47 48
f 35 39 38
f 35 38 50
f 35 50 49
f 36 51 37
f 37 52 38
f 37 51 53
f 37 53 54
f 37 54 55
f 37 55 52
f 38 52 56
f 38 56 57
f 38 57 50
f 41 58 59
f 41 59 60
f 41 60 42
f 43 61 62
f 43 62 63
f 43 63 44
f 44 63 64
f 44 64 46
f 45 65 66
f 45 46 65
f 46 64 65
f 47 59 48
f 48 59 58
f 52 55 67
f 52 67 68
f 52 68 56
f 53 69 70
f 53 70 71
f 53 71 54
f 54 71 72
f 54 72 55
f 55 72 73
f 55 73 74
f 55 74 67
f 61 75 76
f 61 76 63
f 61 63 62
f 63 76 77
f 63 77 64
f 64 77 78
f 64 78 70
f 64 70 65
f 65 70 66
f 66 70 69
f 70 79 71
f 70 78 79
f 71 79 72
f 72 79 73
f 73 79 80
f 73 80 74
f 75 81 76
f 76 81 82
f 76 82 77
f 77 82 78
f 78 82 83
f 78 83 79
f 79 84 80
f 79 83 85
f 79 85 84
f 80 84 86
f 81 87 82
f 82 88 83
f 82 87 88
f 83 88 89
f 83 89 90
f 83 90 85
f 84 85 86

