# https://github.com/mikedh/trimesh
v 0.00432727 -0.02115681 -0.02448672
v 0.00432727 -0.02836844 -0.02448672
v 0.00432727 -0.02366526 -0.02448938
v 0.00431976 -0.02094349 -0.02448672
v 0.00344100 -0.02115681 -0.01895213
v 0.00344287 -0.02836844 -0.01895213
v 0.00047047 -0.02836844 -0.02448672
v -0.00351777 -0.03362376 0.00275944
v -0.00351777 -0.03372039 0.00150582
v -0.00351777 -0.03376179 0.00025487
v -0.00351777 -0.03374925 -0.00100141
v -0.00351777 -0.03366894 -0.00225503
v -0.00351777 -0.03353467 -0.00351131
v -0.00351777 -0.03333013 -0.00476226
v -0.00351777 -0.03313688 -0.00569847
v -0.00351777 -0.03298504 -0.00632795
v 0.00034091 -0.02094223 -0.02448672
v 0.00309550 -0.02094223 -0.02448672
v 0.00386160 -0.02094223 -0.02372121
v 0.00343348 -0.02094223 -0.01897347
v -0.00351777 -0.03050169 0.00275677
v -0.00351777 -0.03357984 0.00275944
v -0.01439904 -0.02709351 -0.01572474
v -0.01440656 -0.02586125 -0.01700236
v -0.01440656 -0.02462648 -0.01822664
v -0.01438027 -0.02332394 -0.01938956
v -0.01426572 -0.02189466 -0.02050182
v -0.01441594 -0.02115806 -0.02073120
v -0.01355032 -0.02094349 -0.02119264
v -0.01355032 -0.03277674 -0.00601588
v -0.01355032 -0.03238397 -0.00726950
v -0.01431267 -0.03191842 -0.00816036
v -0.01437463 -0.03074388 -0.01071561
v -0.01427136 -0.02938236 -0.01302546
v -0.01438402 -0.02827433 -0.01444178
v -0.01355032 -0.03345561 0.00275944
v -0.01355032 -0.03355600 0.00150582
v -0.01355032 -0.03357984 0.00025487
v -0.01355032 -0.03360243 -0.00100141
v -0.01355032 -0.03352086 -0.00225503
v -0.01355032 -0.03330879 -0.00351131
v -0.01355032 -0.03312810 -0.00447153
v -0.01355032 -0.03299383 -0.00509834
v -0.01444411 -0.02094349 -0.02080055
v -0.00424444 -0.02094223 -0.02142202
v 0.00319689 -0.02094223 -0.01853871
v -0.00352340 -0.03050044 0.00275944
v 0.00243267 -0.02094223 -0.01775986
v -0.01458681 -0.02623645 -0.01610349
v -0.01457367 -0.02747499 -0.01482854
v -0.01459057 -0.02499415 -0.01737044
v -0.01457367 -0.02371043 -0.01860539
v -0.01448917 -0.02235268 -0.01980566
v -0.01423568 -0.03310425 -0.00434617
v -0.01444974 -0.03209159 -0.00726950
v -0.01449668 -0.03094842 -0.00977406
v -0.01456991 -0.03000602 -0.01108902
v -0.01449668 -0.02868718 -0.01347890
v -0.01441594 -0.03325609 0.00275944
v -0.01446100 -0.03330628 0.00150582
v -0.01447791 -0.03333013 -0.00100141
v -0.01444223 -0.03328997 -0.00225503
v -0.01433708 -0.03318331 -0.00351131
v -0.01476520 -0.02094349 -0.01980033
v -0.01475956 -0.02115806 -0.01980033
v -0.00424444 -0.02094223 -0.01797858
v -0.00477770 -0.03047910 0.00275944
v 0.00173041 -0.02094223 -0.01756249
v 0.00149194 -0.02094223 -0.01754381
v -0.01484593 -0.02742479 -0.01353224
v -0.01476520 -0.02867714 -0.01227863
v -0.01484030 -0.02366526 -0.01729309
v -0.01482340 -0.02241166 -0.01854671
v -0.01452109 -0.03227856 -0.00601588
v -0.01479524 -0.03118307 -0.00726950
v -0.01484218 -0.02993073 -0.00977406
v -0.01475956 -0.03244044 0.00275944
v -0.01480650 -0.03243793 0.00150582
v -0.01482340 -0.03243793 -0.00100141
v -0.01478773 -0.03243793 -0.00225503
v -0.01468069 -0.03243793 -0.00351131
v -0.01460747 -0.03118684 0.00275944
v -0.01455113 -0.02094349 -0.01857338
v -0.01371556 -0.02094349 -0.01803993
v -0.01355032 -0.02094349 -0.01799192
v 0.00057374 -0.02094223 -0.01760783
v -0.00603013 -0.03046279 0.00275944
v -0.01355032 -0.03043895 0.00275944
v -0.00978177 -0.03043895 0.00275944
v -0.00853686 -0.03044146 0.00275944
v -0.00652960 -0.03045777 0.00275944
v -0.01485157 -0.03118307 -0.00601588
v -0.01426385 -0.03050044 0.00275944
f 1 2 3
f 1 3 4
f 1 4 5
f 1 5 6
f 1 6 2
f 2 7 3
f 2 6 8
f 2 8 9
f 2 9 10
f 2 10 11
f 2 11 12
f 2 12 13
f 2 13 14
f 2 14 15
f 2 15 16
f 2 16 7
f 3 17 18
f 3 18 4
f 3 7 17
f 4 18 19
f 4 19 20
f 4 20 5
f 5 20 21
f 5 21 22
f 5 22 6
f 6 22 8
f 7 23 24
f 7 24 25
f 7 25 26
f 7 26 27
f 7 27 28
f 7 28 29
f 7 29 17
f 7 16 30
f 7 30 31
f 7 31 32
f 7 32 33
f 7 33 34
f 7 34 35
f 7 35 23
f 8 22 47
f 8 47 67
f 8 67 87
f 8 87 91
f 8 91 90
f 8 90 89
f 8 89 88
f 8 88 93
f 8 93 82
f 8 82 77
f 8 77 59
f 8 59 36
f 8 36 37
f 8 37 9
f 9 37 10
f 10 37 38
f 10 38 39
f 10 39 11
f 11 39 12
f 12 39 40
f 12 40 13
f 13 40 14
f 14 40 41
f 14 41 42
f 14 42 15
f 15 42 43
f 15 43 30
f 15 30 16
f 17 29 44
f 17 44 45
f 17 45 66
f 17 66 86
f 17 86 69
f 17 69 68
f 17 68 48
f 17 48 46
f 17 46 20
f 17 20 19
f 17 19 18
f 20 46 21
f 21 47 22
f 21 46 48
f 21 48 47
f 23 49 24
f 23 35 50
f 23 50 49
f 24 49 51
f 24 51 25
f 25 51 52
f 25 52 26
f 26 52 53
f 26 53 28
f 26 28 27
f 28 44 29
f 28 53 44
f 30 43 54
f 30 54 32
f 30 32 31
f 32 54 55
f 32 55 33
f 33 55 56
f 33 56 57
f 33 57 58
f 33 58 35
f 33 35 34
f 35 58 50
f 36 59 37
f 37 59 60
f 37 60 38
f 38 60 39
f 39 61 62
f 39 62 40
f 39 60 61
f 40 62 63
f 40 63 54
f 40 54 41
f 41 54 42
f 42 54 43
f 44 64 45
f 44 53 65
f 44 65 64
f 45 64 66
f 47 48 68
f 47 68 69
f 47 69 67
f 49 50 70
f 49 70 51
f 50 58 71
f 50 71 70
f 51 72 73
f 51 73 52
f 51 70 72
f 52 73 65
f 52 65 53
f 54 63 55
f 55 74 75
f 55 75 56
f 55 63 74
f 56 76 57
f 56 75 76
f 57 76 71
f 57 71 58
f 59 77 60
f 60 77 78
f 60 78 61
f 61 79 80
f 61 80 62
f 61 78 79
f 62 80 81
f 62 81 74
f 62 74 63
f 64 65 73
f 64 73 78
f 64 78 77
f 64 77 82
f 64 82 83
f 64 83 66
f 66 84 85
f 66 85 86
f 66 83 84
f 67 69 87
f 69 86 85
f 69 85 88
f 69 88 89
f 69 89 90
f 69 90 91
f 69 91 87
f 70 71 76
f 70 76 92
f 70 92 72
f 72 92 78
f 72 78 73
f 74 81 75
f 75 81 80
f 75 80 92
f 75 92 76
f 78 92 79
f 79 92 80
f 82 93 83
f 83 93 84
f 84 93 85
f 85 93 88

