# https://github.com/mikedh/trimesh
v 0.00006109 0.00784161 0.01116006
v 0.00006109 0.00750218 0.01049218
v -0.00065847 0.00748528 0.01050832
v -0.00065847 0.00780782 0.01116006
v -0.00065847 0.00779553 0.01187992
v 0.00006109 0.00782779 0.01187992
v 0.00077903 0.00780782 0.01116006
v 0.00077903 0.00748528 0.01050186
v 0.00006109 0.00683867 0.01014408
v -0.00065847 0.00683867 0.01016022
v 0.00149859 0.00683867 0.01017061
v 0.00077903 0.00683867 0.01015376
v -0.00137965 0.00683867 0.01020825
v -0.00209921 0.00683867 0.01028569
v -0.00137965 0.00743153 0.01055600
v -0.00137965 0.00770799 0.01116006
v -0.00137965 0.00769570 0.01187992
v -0.00137965 0.00741924 0.01247251
v -0.00065847 0.00747146 0.01252414
v 0.00006109 0.00748835 0.01254063
v 0.00077903 0.00747146 0.01252557
v 0.00077903 0.00779400 0.01187992
v 0.00149859 0.00775867 0.01116006
v 0.00149859 0.00745917 0.01051871
v -0.00209921 0.00611988 0.01010465
v 0.00865225 0.00471607 0.00974078
v 0.00865225 0.00467921 0.00973468
v -0.00281877 0.00611988 0.01013154
v 0.00221977 0.00683867 0.01020324
v 0.00865225 0.00541951 0.00991572
v -0.00353994 0.00611988 0.01023191
v -0.00286556 0.00690011 0.01049541
v -0.00209921 0.00735166 0.01063307
v -0.00265582 0.00726872 0.01072019
v -0.00209921 0.00754979 0.01116006
v -0.00209921 0.00753597 0.01187992
v -0.00263001 0.00725797 0.01230653
v -0.00209921 0.00733784 0.01239042
v -0.00137965 0.00706599 0.01283244
v -0.00065847 0.00712128 0.01288407
v 0.00006109 0.00713971 0.01290056
v 0.00077903 0.00712588 0.01288550
v 0.00149859 0.00710438 0.01286363
v 0.00149859 0.00744535 0.01250370
v 0.00149859 0.00774485 0.01187992
v 0.00221977 0.00769109 0.01116006
v 0.00221977 0.00742231 0.01055133
v -0.00353994 0.00539955 0.01010501
v 0.00865225 0.00395888 0.00973361
v -0.00641980 0.00107909 0.01010465
v -0.00569863 0.00323855 0.01010752
v -0.00497906 0.00395888 0.01010429
v -0.00425951 0.00467921 0.01010429
v -0.00425951 0.00539955 0.01016774
v 0.00293933 0.00683867 0.01025916
v 0.00865225 0.00544409 0.00992719
v -0.00353994 0.00671427 0.01057930
v -0.00504521 0.00546559 0.01047390
v -0.00427886 0.00615213 0.01051369
v -0.00405138 0.00657296 0.01070226
v -0.00313660 0.00718118 0.01098404
v -0.00286556 0.00730251 0.01119842
v -0.00318823 0.00720268 0.01146371
v -0.00318823 0.00720268 0.01156014
v -0.00284942 0.00729637 0.01183188
v -0.00311079 0.00717043 0.01203981
v -0.00403525 0.00656221 0.01232446
v -0.00353994 0.00670044 0.01244885
v -0.00284620 0.00685096 0.01261018
v -0.00258161 0.00653150 0.01300667
v -0.00209921 0.00697537 0.01275071
v -0.00209921 0.00661443 0.01307551
v -0.00137965 0.00670659 0.01313932
v -0.00065847 0.00676188 0.01316728
v 0.00006109 0.00678031 0.01317588
v 0.00077903 0.00676495 0.01317158
v 0.00149859 0.00674345 0.01316334
v 0.00221977 0.00670352 0.01314254
v 0.00221977 0.00706445 0.01282635
v 0.00221977 0.00740695 0.01246642
v 0.00221977 0.00767573 0.01187992
v 0.00293933 0.00758512 0.01116006
v 0.00423970 0.00724722 0.01074277
v 0.00365889 0.00730405 0.01067681
v 0.00293933 0.00736856 0.01060726
v 0.00865225 0.00548402 0.00995516
v -0.00497906 0.00467921 0.01015591
v 0.00865225 -0.00395863 0.00973432
v -0.00641980 -0.00035850 0.01010429
v -0.00641980 0.00035876 0.01010429
v -0.00713936 0.00035876 0.01028820
v -0.00641980 0.00179942 0.01011361
v -0.00641980 0.00251975 0.01016990
v -0.00569863 0.00395888 0.01018137
v -0.00484838 0.00593557 0.01065171
v -0.00575509 0.00473297 0.01048286
v -0.00555342 0.00526899 0.01063666
v -0.00532917 0.00574973 0.01086968
v -0.00451764 0.00640709 0.01116006
v -0.00415786 0.00664362 0.01116006
v -0.00347218 0.00703066 0.01119842
v -0.00347218 0.00701991 0.01183188
v -0.00414657 0.00663594 0.01187992
v -0.00450635 0.00639941 0.01187992
v -0.00531303 0.00573590 0.01212155
v -0.00483386 0.00592482 0.01238002
v -0.00424176 0.00610759 0.01259225
v -0.00396749 0.00580963 0.01299879
v -0.00353994 0.00629804 0.01280878
v -0.00306239 0.00642706 0.01291382
v -0.00353994 0.00593711 0.01308841
v -0.00282038 0.00615981 0.01315437
v -0.00209921 0.00611988 0.01329347
v -0.00137965 0.00611988 0.01335728
v -0.00065847 0.00611988 0.01338525
v 0.00006109 0.00611988 0.01339385
v 0.00077903 0.00611988 0.01338955
v 0.00149859 0.00611988 0.01337270
v 0.00293933 0.00611988 0.01331462
v 0.00365889 0.00611988 0.01326766
v 0.00293933 0.00664515 0.01310562
v 0.00293933 0.00700609 0.01276935
v 0.00293933 0.00735166 0.01240942
v 0.00365889 0.00728869 0.01234525
v 0.00419130 0.00723800 0.01228717
v 0.00293933 0.00756822 0.01187992
v 0.00365889 0.00743767 0.01187992
v 0.00365889 0.00745149 0.01116006
v 0.00472048 0.00719346 0.01085462
v 0.00865225 0.00593711 0.01040722
v 0.00865225 0.00588642 0.01034520
v 0.00865225 -0.00467896 0.00973468
v -0.00641980 -0.00107884 0.01010501
v -0.00713936 -0.00035850 0.01028820
v -0.00763950 0.00035876 0.01063630
v -0.00713936 0.00107909 0.01032082
v -0.00641980 0.00323855 0.01029680
v -0.00713936 0.00179942 0.01040256
v -0.00643593 0.00394506 0.01055026
v -0.00620684 0.00452870 0.01066677
v -0.00535659 0.00577584 0.01134935
v -0.00504521 0.00599854 0.01112995
v -0.00603420 0.00500789 0.01101164
v -0.00569540 0.00539647 0.01118049
v -0.00535659 0.00577584 0.01164152
v -0.00503553 0.00599240 0.01188100
v -0.00568895 0.00538879 0.01183081
v -0.00602130 0.00499253 0.01202009
v -0.00554052 0.00525517 0.01239400
v -0.00502585 0.00544255 0.01262703
v -0.00444827 0.00562839 0.01286005
v -0.00473867 0.00514920 0.01303894
v -0.00422885 0.00539340 0.01311817
v -0.00353994 0.00539955 0.01330638
v -0.00281877 0.00539955 0.01338596
v -0.00209921 0.00539955 0.01339600
v 0.00437845 0.00539955 0.01339600
v 0.00509962 0.00539955 0.01337126
v 0.00865225 0.00467921 0.01330924
v 0.00509962 0.00602465 0.01315330
v 0.00365889 0.00657757 0.01304969
v 0.00365889 0.00693697 0.01270518
v 0.00416549 0.00651921 0.01299664
v 0.00441878 0.00684942 0.01261161
v 0.00865225 0.00554545 0.01274712
v 0.00865225 0.00586646 0.01241014
v 0.00865225 0.00588796 0.01238719
v 0.00467047 0.00717964 0.01211617
v 0.00441072 0.00727487 0.01187777
v 0.00478179 0.00721189 0.01163650
v 0.00478179 0.00721189 0.01133465
v 0.00443976 0.00727947 0.01112099
v 0.00865225 0.00613831 0.01116006
v 0.00865225 0.00595247 0.01044988
v 0.00865225 -0.00542233 0.00991285
v 0.00077903 -0.00683996 0.01014946
v 0.00006109 -0.00683996 0.01014301
v -0.00209921 -0.00611963 0.01010465
v -0.00353994 -0.00539929 0.01010501
v -0.00425951 -0.00467896 0.01010429
v -0.00497906 -0.00395863 0.01010429
v -0.00569863 -0.00323983 0.01010752
v -0.00641980 -0.00179917 0.01011397
v -0.00713936 -0.00107884 0.01032190
v -0.00763950 -0.00035850 0.01063630
v -0.00782827 0.00035876 0.01116006
v -0.00760724 0.00107909 0.01066856
v -0.00716195 0.00246139 0.01056890
v -0.00693608 0.00323855 0.01064132
v -0.00754754 0.00179942 0.01074098
v -0.00750721 0.00218339 0.01079081
v -0.00682959 0.00369471 0.01074456
v -0.00606163 0.00504168 0.01149131
v -0.00666503 0.00413704 0.01116006
v -0.00625685 0.00473297 0.01121491
v -0.00606163 0.00504168 0.01154042
v -0.00625040 0.00472375 0.01182005
v -0.00665696 0.00412168 0.01187992
v -0.00681991 0.00367628 0.01228323
v -0.00619554 0.00451334 0.01236281
v -0.00521946 0.00490345 0.01287403
v -0.00572283 0.00470839 0.01261842
v -0.00542597 0.00442426 0.01302209
v -0.00497906 0.00467000 0.01313215
v -0.00425951 0.00467921 0.01334617
v -0.00353994 0.00467921 0.01339600
v 0.00865225 0.00395888 0.01339600
v 0.00725992 0.00467921 0.01337091
v 0.00865225 0.00518452 0.01309128
v 0.00464627 0.00645470 0.01293605
v 0.00865225 0.00607841 0.01187992
v 0.00865225 0.00613524 0.01120631
v 0.00865225 -0.00574333 0.01008780
v 0.00221977 -0.00683996 0.01020395
v 0.00149859 -0.00683996 0.01016918
v 0.00077903 -0.00749732 0.01049756
v 0.00006109 -0.00750653 0.01049111
v -0.00065847 -0.00683996 0.01016201
v -0.00281877 -0.00611963 0.01013189
v -0.00425951 -0.00539929 0.01016846
v -0.00497906 -0.00467896 0.01015735
v -0.00569863 -0.00395863 0.01018208
v -0.00641980 -0.00251950 0.01017025
v -0.00713936 -0.00179917 0.01040399
v -0.00760724 -0.00107884 0.01066928
v -0.00782827 -0.00035850 0.01116006
v -0.00781536 0.00035876 0.01187992
v -0.00776050 0.00107909 0.01116006
v -0.00763144 0.00179942 0.01116006
v -0.00752496 0.00224022 0.01116006
v -0.00739750 0.00259962 0.01116006
v -0.00713613 0.00323855 0.01116006
v -0.00687638 0.00377611 0.01116006
v -0.00686832 0.00376229 0.01187992
v -0.00712000 0.00323855 0.01187992
v -0.00749753 0.00215421 0.01223125
v -0.00691994 0.00323855 0.01238325
v -0.00653112 0.00323855 0.01274318
v -0.00607454 0.00362406 0.01297262
v -0.00637463 0.00388977 0.01256321
v -0.00590514 0.00410325 0.01284284
v -0.00567926 0.00390205 0.01309235
v -0.00497906 0.00395888 0.01333362
v -0.00497906 0.00323855 0.01339600
v 0.00865225 -0.00395863 0.01339600
v 0.00865225 -0.00594146 0.01040435
v 0.00423486 -0.00724236 0.01074492
v 0.00365889 -0.00729919 0.01067968
v 0.00293933 -0.00736523 0.01060762
v 0.00221977 -0.00742360 0.01055205
v 0.00293933 -0.00683996 0.01025988
v 0.00149859 -0.00746814 0.01051728
v 0.00077903 -0.00783061 0.01116006
v 0.00006109 -0.00784904 0.01116006
v -0.00065847 -0.00748350 0.01051011
v -0.00137965 -0.00683996 0.01020969
v -0.00209921 -0.00683996 0.01028748
v -0.00353994 -0.00611963 0.01023299
v -0.00504521 -0.00546534 0.01047569
v -0.00575509 -0.00473272 0.01048430
v -0.00643593 -0.00394481 0.01055133
v -0.00641980 -0.00323983 0.01029752
v -0.00716195 -0.00246114 0.01056926
v -0.00750721 -0.00218314 0.01079081
v -0.00754754 -0.00179917 0.01074205
v -0.00776050 -0.00107884 0.01116006
v -0.00781536 -0.00035850 0.01187992
v -0.00762660 0.00035876 0.01238683
v -0.00759433 0.00107909 0.01235278
v -0.00774599 0.00107909 0.01187992
v -0.00759433 0.00186853 0.01194660
v -0.00752657 0.00224329 0.01175122
v -0.00741202 0.00249825 0.01194660
v -0.00754754 0.00167348 0.01229757
v -0.00716195 0.00189772 0.01262416
v -0.00676990 0.00212042 0.01295111
v -0.00706837 0.00251975 0.01252414
v -0.00669246 0.00251975 0.01288407
v -0.00617134 0.00323855 0.01304718
v -0.00569863 0.00323855 0.01326551
v -0.00569863 0.00251975 0.01336481
v -0.00497906 -0.00323983 0.01339600
v -0.00569863 0.00179942 0.01338704
v 0.00865225 -0.00400471 0.01339170
v 0.00437845 -0.00539929 0.01339600
v 0.00865225 -0.00613959 0.01116006
v 0.00471403 -0.00719321 0.01086824
v 0.00293933 -0.00758179 0.01116006
v 0.00221977 -0.00769391 0.01116006
v 0.00149859 -0.00777992 0.01116006
v 0.00077903 -0.00781832 0.01187992
v 0.00006109 -0.00783521 0.01187992
v -0.00065847 -0.00779528 0.01187992
v -0.00065847 -0.00780757 0.01116006
v -0.00137965 -0.00742974 0.01055779
v -0.00209921 -0.00735141 0.01063486
v -0.00286556 -0.00689986 0.01049684
v -0.00353994 -0.00671402 0.01058001
v -0.00427886 -0.00615188 0.01051477
v -0.00484838 -0.00593378 0.01065315
v -0.00555342 -0.00526874 0.01063845
v -0.00620684 -0.00452844 0.01066713
v -0.00682959 -0.00369446 0.01074564
v -0.00693608 -0.00323983 0.01064239
v -0.00713452 -0.00323983 0.01116006
v -0.00739750 -0.00259937 0.01116006
v -0.00752496 -0.00223997 0.01116006
v -0.00763144 -0.00179917 0.01116006
v -0.00774599 -0.00107884 0.01187992
v -0.00759433 -0.00107884 0.01235278
v -0.00762660 -0.00035850 0.01238683
v -0.00728134 0.00035876 0.01274676
v -0.00724584 0.00107909 0.01271271
v -0.00682798 0.00164122 0.01300416
v -0.00633268 0.00251975 0.01314649
v -0.00641980 0.00107909 0.01326909
v -0.00497906 -0.00395863 0.01333362
v -0.00425951 -0.00467896 0.01334617
v -0.00353994 -0.00467896 0.01339600
v -0.00569863 -0.00179917 0.01338704
v -0.00569863 -0.00251950 0.01336481
v -0.00641980 0.00035876 0.01327447
v 0.00725992 -0.00467896 0.01337019
v 0.00865225 -0.00467896 0.01331570
v 0.00509962 -0.00539929 0.01337091
v 0.00149859 -0.00611963 0.01337306
v -0.00209921 -0.00539929 0.01339600
v 0.00006109 -0.00611963 0.01339385
v 0.00077903 -0.00611963 0.01338991
v 0.00865225 -0.00607816 0.01187992
v 0.00477856 -0.00721164 0.01162180
v 0.00477856 -0.00721164 0.01134827
v 0.00443653 -0.00727615 0.01112887
v 0.00365889 -0.00744663 0.01116006
v 0.00365889 -0.00743742 0.01187992
v 0.00293933 -0.00757104 0.01187992
v 0.00221977 -0.00768316 0.01187992
v 0.00149859 -0.00776764 0.01187992
v 0.00077903 -0.00748350 0.01253382
v 0.00149859 -0.00745739 0.01251016
v 0.00006109 -0.00749271 0.01254386
v -0.00065847 -0.00747121 0.01252414
v -0.00137965 -0.00741899 0.01247251
v -0.00137965 -0.00769545 0.01187992
v -0.00137965 -0.00770774 0.01116006
v -0.00265582 -0.00726694 0.01072162
v -0.00405138 -0.00657118 0.01070262
v -0.00532917 -0.00574948 0.01086968
v -0.00603259 -0.00500918 0.01101164
v -0.00666503 -0.00413679 0.01116006
v -0.00687638 -0.00377586 0.01116006
v -0.00712000 -0.00323983 0.01187992
v -0.00752657 -0.00224304 0.01175122
v -0.00759433 -0.00186828 0.01194660
v -0.00749753 -0.00215396 0.01223125
v -0.00754754 -0.00167323 0.01229757
v -0.00724584 -0.00107884 0.01271271
v -0.00728134 -0.00035850 0.01274676
v -0.00692156 0.00035876 0.01308877
v -0.00688445 0.00107909 0.01305722
v -0.00648595 0.00184857 0.01316083
v -0.00497906 -0.00466975 0.01313215
v -0.00569863 -0.00323983 0.01326551
v -0.00567926 -0.00390180 0.01309235
v -0.00422885 -0.00539315 0.01311817
v -0.00353994 -0.00539929 0.01330638
v -0.00281877 -0.00539929 0.01338596
v -0.00641980 -0.00035850 0.01327447
v -0.00641980 -0.00107884 0.01326909
v -0.00633268 -0.00251950 0.01314649
v 0.00865225 -0.00471275 0.01330172
v 0.00365889 -0.00611963 0.01326766
v 0.00509962 -0.00602287 0.01315294
v 0.00293933 -0.00611963 0.01331677
v 0.00149859 -0.00674781 0.01316334
v -0.00065847 -0.00611963 0.01338525
v 0.00006109 -0.00678313 0.01317588
v 0.00077903 -0.00677238 0.01317194
v 0.00865225 -0.00590153 0.01235529
v 0.00465918 -0.00717785 0.01210183
v 0.00440265 -0.00727154 0.01186917
v 0.00417839 -0.00723468 0.01228323
v 0.00365889 -0.00728997 0.01234561
v 0.00293933 -0.00735602 0.01241480
v 0.00221977 -0.00741285 0.01247001
v 0.00077903 -0.00713178 0.01289375
v 0.00006109 -0.00714253 0.01290379
v 0.00149859 -0.00710874 0.01287009
v 0.00221977 -0.00706727 0.01282994
v -0.00065847 -0.00712256 0.01288407
v -0.00137965 -0.00706573 0.01283244
v -0.00209921 -0.00733759 0.01239042
v -0.00263001 -0.00725772 0.01230653
v -0.00209921 -0.00753725 0.01187992
v -0.00209921 -0.00754954 0.01116006
v -0.00313499 -0.00718093 0.01098404
v -0.00415786 -0.00664336 0.01116006
v -0.00451764 -0.00640684 0.01116006
v -0.00504521 -0.00599829 0.01112995
v -0.00535659 -0.00577559 0.01134935
v -0.00606163 -0.00504143 0.01149131
v -0.00625685 -0.00473272 0.01121491
v -0.00606163 -0.00504143 0.01154042
v -0.00665696 -0.00412143 0.01187992
v -0.00686832 -0.00376204 0.01187992
v -0.00681991 -0.00367603 0.01228323
v -0.00741202 -0.00249800 0.01194660
v -0.00691994 -0.00323983 0.01238325
v -0.00706837 -0.00251950 0.01252414
v -0.00676990 -0.00212017 0.01295111
v -0.00716195 -0.00189747 0.01262416
v -0.00682798 -0.00164097 0.01300416
v -0.00688445 -0.00107884 0.01305722
v -0.00692156 -0.00035850 0.01308877
v -0.00542597 -0.00442400 0.01302209
v -0.00473867 -0.00514894 0.01303894
v -0.00617134 -0.00323983 0.01304718
v -0.00607454 -0.00362381 0.01297262
v -0.00396749 -0.00580938 0.01299879
v -0.00353994 -0.00593686 0.01308841
v -0.00282038 -0.00615956 0.01315437
v -0.00209921 -0.00611963 0.01329347
v -0.00137965 -0.00611963 0.01335728
v -0.00648595 -0.00184832 0.01316083
v 0.00865225 -0.00519195 0.01309773
v 0.00221977 -0.00670634 0.01314326
v 0.00293933 -0.00664951 0.01310741
v 0.00365889 -0.00657732 0.01304969
v -0.00065847 -0.00676163 0.01316728
v 0.00865225 -0.00588771 0.01238934
v 0.00440910 -0.00684610 0.01260874
v 0.00365889 -0.00693826 0.01270554
v 0.00865225 -0.00555135 0.01274963
v 0.00293933 -0.00701044 0.01277473
v -0.00137965 -0.00670634 0.01313932
v -0.00209921 -0.00661572 0.01307551
v -0.00209921 -0.00697512 0.01275071
v -0.00258161 -0.00653278 0.01300667
v -0.00284620 -0.00685071 0.01261018
v -0.00353994 -0.00670019 0.01244885
v -0.00403525 -0.00656196 0.01232446
v -0.00311079 -0.00717017 0.01203981
v -0.00284942 -0.00729612 0.01183188
v -0.00318823 -0.00720396 0.01156014
v -0.00318823 -0.00720396 0.01146371
v -0.00286556 -0.00730073 0.01119842
v -0.00347218 -0.00703041 0.01119842
v -0.00414657 -0.00663568 0.01187992
v -0.00450635 -0.00639916 0.01187992
v -0.00535659 -0.00577559 0.01164152
v -0.00568895 -0.00538854 0.01183081
v -0.00602130 -0.00499382 0.01202009
v -0.00625040 -0.00472350 0.01182005
v -0.00619554 -0.00451309 0.01236281
v -0.00637463 -0.00388951 0.01256321
v -0.00653112 -0.00323983 0.01274318
v -0.00669246 -0.00251950 0.01288407
v -0.00521946 -0.00490320 0.01287403
v -0.00590514 -0.00410300 0.01284284
v -0.00572283 -0.00470814 0.01261842
v -0.00502585 -0.00544230 0.01262703
v -0.00444827 -0.00562968 0.01286005
v -0.00424176 -0.00610734 0.01259225
v -0.00353994 -0.00629779 0.01280878
v -0.00306239 -0.00642680 0.01291382
v 0.00865225 -0.00521499 0.01307586
v 0.00415903 -0.00651589 0.01299484
v 0.00463981 -0.00645291 0.01293462
v -0.00483386 -0.00592457 0.01238002
v -0.00531303 -0.00573565 0.01212155
v -0.00347218 -0.00701966 0.01183188
v -0.00503553 -0.00599368 0.01188100
v -0.00554052 -0.00525492 0.01239400
f 1 2 3
f 1 3 4
f 1 4 5
f 1 5 6
f 1 6 22
f 1 22 7
f 1 7 8
f 1 8 2
f 2 9 10
f 2 10 3
f 2 8 11
f 2 11 12
f 2 12 9
f 3 10 13
f 3 13 14
f 3 14 15
f 3 15 4
f 4 15 16
f 4 16 17
f 4 17 5
f 5 17 18
f 5 18 19
f 5 19 6
f 6 19 20
f 6 20 21
f 6 21 22
f 7 22 45
f 7 45 23
f 7 23 24
f 7 24 8
f 8 24 11
f 9 25 10
f 9 12 26
f 9 26 27
f 9 27 25
f 10 25 28
f 10 28 13
f 11 24 29
f 11 29 30
f 11 30 12
f 12 30 26
f 13 28 14
f 14 28 31
f 14 31 32
f 14 32 33
f 14 33 15
f 15 33 16
f 16 33 34
f 16 34 35
f 16 35 17
f 17 35 36
f 17 36 37
f 17 37 38
f 17 38 18
f 18 38 39
f 18 39 40
f 18 40 19
f 19 40 41
f 19 41 20
f 20 41 42
f 20 42 21
f 21 42 43
f 21 43 44
f 21 44 22
f 22 44 45
f 23 45 46
f 23 46 47
f 23 47 24
f 24 47 29
f 25 48 28
f 25 27 48
f 26 30 56
f 26 56 86
f 26 86 131
f 26 131 130
f 26 130 174
f 26 174 173
f 26 173 212
f 26 212 211
f 26 211 167
f 26 167 166
f 26 166 165
f 26 165 209
f 26 209 159
f 26 159 207
f 26 207 245
f 26 245 284
f 26 284 324
f 26 324 371
f 26 371 425
f 26 425 466
f 26 466 433
f 26 433 430
f 26 430 379
f 26 379 330
f 26 330 286
f 26 286 246
f 26 246 213
f 26 213 175
f 26 175 132
f 26 132 88
f 26 88 49
f 26 49 27
f 27 49 50
f 27 50 51
f 27 51 52
f 27 52 53
f 27 53 48
f 28 48 54
f 28 54 31
f 29 47 55
f 29 55 56
f 29 56 30
f 31 57 32
f 31 54 58
f 31 58 59
f 31 59 57
f 32 57 34
f 32 34 33
f 34 57 60
f 34 60 61
f 34 61 35
f 35 61 62
f 35 62 63
f 35 63 64
f 35 64 36
f 36 64 65
f 36 65 66
f 36 66 37
f 37 66 67
f 37 67 68
f 37 68 69
f 37 69 70
f 37 70 71
f 37 71 38
f 38 71 39
f 39 71 72
f 39 72 73
f 39 73 40
f 40 73 74
f 40 74 41
f 41 74 75
f 41 75 76
f 41 76 77
f 41 77 42
f 42 77 43
f 43 77 78
f 43 78 79
f 43 79 80
f 43 80 44
f 44 80 45
f 45 80 81
f 45 81 46
f 46 81 82
f 46 82 83
f 46 83 84
f 46 84 85
f 46 85 47
f 47 85 86
f 47 86 56
f 47 56 55
f 48 53 87
f 48 87 54
f 49 88 89
f 49 89 90
f 49 90 50
f 50 90 91
f 50 91 92
f 50 92 51
f 51 92 93
f 51 93 94
f 51 94 87
f 51 87 52
f 52 87 53
f 54 87 58
f 57 59 60
f 58 95 59
f 58 87 96
f 58 96 97
f 58 97 95
f 59 95 60
f 60 95 98
f 60 98 99
f 60 99 100
f 60 100 61
f 61 101 63
f 61 63 62
f 61 100 101
f 63 101 100
f 63 100 64
f 64 102 66
f 64 66 65
f 64 100 103
f 64 103 102
f 66 102 103
f 66 103 67
f 67 103 104
f 67 104 105
f 67 105 106
f 67 106 107
f 67 107 108
f 67 108 109
f 67 109 68
f 68 109 110
f 68 110 69
f 69 110 70
f 70 110 111
f 70 111 112
f 70 112 72
f 70 72 71
f 72 112 113
f 72 113 73
f 73 113 114
f 73 114 74
f 74 114 115
f 74 115 75
f 75 115 116
f 75 116 117
f 75 117 76
f 76 117 77
f 77 118 119
f 77 119 78
f 77 117 118
f 78 119 120
f 78 120 121
f 78 121 79
f 79 121 122
f 79 122 123
f 79 123 80
f 80 123 81
f 81 123 124
f 81 124 125
f 81 125 126
f 81 126 82
f 82 126 127
f 82 127 128
f 82 128 129
f 82 129 83
f 83 129 130
f 83 130 131
f 83 131 86
f 83 86 84
f 84 86 85
f 87 94 96
f 88 132 89
f 89 133 134
f 89 134 91
f 89 91 90
f 89 132 133
f 91 134 185
f 91 185 135
f 91 135 136
f 91 136 92
f 92 136 93
f 93 137 94
f 93 136 138
f 93 138 137
f 94 137 139
f 94 139 96
f 95 97 98
f 96 139 140
f 96 140 97
f 97 140 98
f 98 141 142
f 98 142 99
f 98 140 143
f 98 143 144
f 98 144 141
f 99 142 141
f 99 141 145
f 99 145 104
f 99 104 103
f 99 103 100
f 104 145 146
f 104 146 105
f 105 146 145
f 105 145 147
f 105 147 148
f 105 148 149
f 105 149 106
f 106 149 150
f 106 150 151
f 106 151 107
f 107 151 108
f 108 151 152
f 108 152 153
f 108 153 111
f 108 111 109
f 109 111 110
f 111 153 154
f 111 154 112
f 112 154 113
f 113 154 155
f 113 155 114
f 114 155 115
f 115 155 156
f 115 156 116
f 116 156 157
f 116 157 117
f 117 157 118
f 118 157 158
f 118 158 119
f 119 158 120
f 120 158 159
f 120 159 160
f 120 160 121
f 121 161 122
f 121 160 161
f 122 161 162
f 122 162 124
f 122 124 123
f 124 162 125
f 125 163 164
f 125 164 165
f 125 165 166
f 125 166 167
f 125 167 168
f 125 168 127
f 125 127 126
f 125 162 163
f 127 168 169
f 127 169 170
f 127 170 128
f 128 170 171
f 128 171 172
f 128 172 129
f 129 172 171
f 129 171 173
f 129 173 174
f 129 174 130
f 132 175 176
f 132 176 177
f 132 177 178
f 132 178 179
f 132 179 180
f 132 180 181
f 132 181 182
f 132 182 133
f 133 182 183
f 133 183 134
f 134 184 185
f 134 183 184
f 135 185 226
f 135 226 186
f 135 186 187
f 135 187 136
f 136 187 138
f 137 138 188
f 137 188 189
f 137 189 139
f 138 187 190
f 138 190 191
f 138 191 188
f 139 189 192
f 139 192 140
f 140 192 143
f 141 144 193
f 141 193 196
f 141 196 145
f 143 192 194
f 143 194 195
f 143 195 193
f 143 193 144
f 145 196 147
f 147 196 148
f 148 196 197
f 148 197 198
f 148 198 199
f 148 199 200
f 148 200 149
f 149 201 150
f 149 200 202
f 149 202 201
f 150 201 152
f 150 152 151
f 152 201 203
f 152 203 204
f 152 204 153
f 153 204 205
f 153 205 154
f 154 205 155
f 155 205 206
f 155 206 156
f 156 206 244
f 156 244 282
f 156 282 319
f 156 319 327
f 156 327 285
f 156 285 245
f 156 245 207
f 156 207 157
f 157 207 208
f 157 208 158
f 158 208 159
f 159 208 207
f 159 209 160
f 160 209 161
f 161 163 162
f 161 209 163
f 163 210 164
f 163 209 210
f 164 210 165
f 165 210 209
f 167 211 168
f 168 170 169
f 168 211 170
f 170 211 212
f 170 212 173
f 170 173 171
f 175 213 214
f 175 214 215
f 175 215 176
f 176 216 217
f 176 217 177
f 176 215 216
f 177 217 218
f 177 218 178
f 178 218 219
f 178 219 179
f 179 220 221
f 179 221 180
f 179 219 220
f 180 221 181
f 181 221 182
f 182 221 222
f 182 222 223
f 182 223 183
f 183 223 184
f 184 224 225
f 184 225 185
f 184 223 224
f 185 225 226
f 186 226 267
f 186 267 227
f 186 227 228
f 186 228 187
f 187 228 190
f 188 191 189
f 189 191 192
f 190 228 191
f 191 228 229
f 191 229 230
f 191 230 231
f 191 231 232
f 191 232 192
f 192 232 233
f 192 233 194
f 193 195 194
f 193 194 196
f 194 233 234
f 194 234 198
f 194 198 196
f 196 198 197
f 198 234 199
f 199 234 235
f 199 235 236
f 199 236 237
f 199 237 238
f 199 238 239
f 199 239 240
f 199 240 200
f 200 240 239
f 200 239 241
f 200 241 202
f 201 202 203
f 202 241 203
f 203 241 239
f 203 239 242
f 203 242 204
f 204 243 205
f 204 242 243
f 205 243 244
f 205 244 206
f 213 246 247
f 213 247 248
f 213 248 249
f 213 249 250
f 213 250 251
f 213 251 214
f 214 251 252
f 214 252 216
f 214 216 215
f 216 253 254
f 216 254 217
f 216 252 253
f 217 254 255
f 217 255 218
f 218 255 256
f 218 256 219
f 219 256 257
f 219 257 258
f 219 258 220
f 220 259 221
f 220 258 259
f 221 259 260
f 221 260 222
f 222 260 261
f 222 261 262
f 222 262 223
f 223 262 224
f 224 263 264
f 224 264 265
f 224 265 225
f 224 262 263
f 225 265 266
f 225 266 226
f 226 266 267
f 227 267 311
f 227 311 268
f 227 268 269
f 227 269 270
f 227 270 228
f 228 270 229
f 229 270 271
f 229 271 272
f 229 272 230
f 230 272 231
f 231 272 235
f 231 235 232
f 232 235 234
f 232 234 233
f 235 272 273
f 235 273 236
f 236 273 272
f 236 272 271
f 236 271 270
f 236 270 274
f 236 274 275
f 236 275 276
f 236 276 277
f 236 277 237
f 237 277 278
f 237 278 238
f 238 279 239
f 238 278 279
f 239 279 242
f 242 279 280
f 242 280 243
f 243 280 281
f 243 281 244
f 244 281 283
f 244 283 320
f 244 320 282
f 245 285 284
f 246 286 287
f 246 287 247
f 247 287 288
f 247 288 289
f 247 289 248
f 248 289 249
f 249 289 290
f 249 290 250
f 250 290 252
f 250 252 251
f 252 290 253
f 253 290 338
f 253 338 291
f 253 291 254
f 254 291 292
f 254 292 293
f 254 293 294
f 254 294 255
f 255 294 295
f 255 295 257
f 255 257 256
f 257 296 297
f 257 297 258
f 257 295 296
f 258 298 299
f 258 299 259
f 258 297 298
f 259 299 300
f 259 300 301
f 259 301 260
f 260 301 302
f 260 302 261
f 261 302 303
f 261 303 304
f 261 304 262
f 262 304 263
f 263 304 264
f 264 304 303
f 264 303 305
f 264 305 306
f 264 306 307
f 264 307 308
f 264 308 266
f 264 266 265
f 266 308 309
f 266 309 267
f 267 309 310
f 267 310 311
f 268 311 358
f 268 358 312
f 268 312 269
f 269 312 313
f 269 313 274
f 269 274 270
f 274 313 314
f 274 314 275
f 275 314 276
f 276 314 315
f 276 315 279
f 276 279 278
f 276 278 277
f 279 315 280
f 280 315 281
f 281 315 316
f 281 316 283
f 282 317 318
f 282 318 319
f 282 320 321
f 282 321 317
f 283 316 322
f 283 322 368
f 283 368 320
f 284 323 324
f 284 285 325
f 284 325 323
f 285 326 325
f 285 327 328
f 285 328 329
f 285 329 326
f 286 330 331
f 286 331 332
f 286 332 287
f 287 332 333
f 287 333 334
f 287 334 288
f 288 334 335
f 288 335 336
f 288 336 337
f 288 337 289
f 289 337 290
f 290 337 338
f 291 339 292
f 291 338 340
f 291 340 339
f 292 339 341
f 292 341 342
f 292 342 293
f 293 342 343
f 293 343 344
f 293 344 345
f 293 345 294
f 294 345 295
f 295 345 296
f 296 346 297
f 296 345 346
f 297 346 298
f 298 347 299
f 298 346 347
f 299 347 300
f 300 348 301
f 300 347 348
f 301 348 302
f 302 348 349
f 302 349 303
f 303 350 351
f 303 351 305
f 303 349 350
f 305 351 352
f 305 352 306
f 306 352 353
f 306 353 307
f 307 353 308
f 308 353 354
f 308 354 309
f 309 354 355
f 309 355 356
f 309 356 310
f 310 356 357
f 310 357 358
f 310 358 311
f 312 358 414
f 312 414 359
f 312 359 360
f 312 360 313
f 313 360 314
f 314 360 315
f 315 361 316
f 315 360 361
f 316 361 360
f 316 360 359
f 316 359 322
f 317 362 318
f 317 321 363
f 317 363 364
f 317 364 362
f 318 362 365
f 318 365 366
f 318 366 367
f 318 367 319
f 319 367 327
f 320 368 369
f 320 369 321
f 321 369 370
f 321 370 363
f 322 359 414
f 322 414 368
f 323 325 324
f 324 325 372
f 324 372 373
f 324 373 371
f 325 326 374
f 325 374 372
f 326 375 374
f 326 329 375
f 327 367 376
f 327 376 328
f 328 376 377
f 328 377 329
f 329 377 378
f 329 378 375
f 330 379 380
f 330 380 331
f 331 380 381
f 331 381 335
f 331 335 334
f 331 334 332
f 332 334 333
f 335 381 380
f 335 380 382
f 335 382 336
f 336 382 337
f 337 382 383
f 337 383 384
f 337 384 338
f 338 384 385
f 338 385 340
f 339 386 387
f 339 387 341
f 339 340 388
f 339 388 386
f 340 385 389
f 340 389 388
f 341 387 390
f 341 390 342
f 342 390 343
f 343 390 391
f 343 391 392
f 343 392 344
f 344 392 393
f 344 393 394
f 344 394 395
f 344 395 345
f 345 395 346
f 346 395 396
f 346 396 347
f 347 396 397
f 347 397 398
f 347 398 348
f 348 398 399
f 348 399 400
f 348 400 401
f 348 401 349
f 349 401 402
f 349 402 350
f 350 403 404
f 350 404 405
f 350 405 351
f 350 402 401
f 350 401 403
f 351 405 352
f 352 405 406
f 352 406 355
f 352 355 407
f 352 407 353
f 353 407 355
f 353 355 354
f 355 406 408
f 355 408 409
f 355 409 410
f 355 410 411
f 355 411 356
f 356 411 412
f 356 412 357
f 357 412 413
f 357 413 358
f 358 413 414
f 362 364 415
f 362 415 416
f 362 416 365
f 363 370 417
f 363 417 364
f 364 417 418
f 364 418 415
f 365 419 420
f 365 420 366
f 365 416 419
f 366 420 421
f 366 421 422
f 366 422 367
f 367 422 423
f 367 423 376
f 368 414 369
f 369 414 413
f 369 413 424
f 369 424 370
f 370 424 413
f 370 413 412
f 370 412 410
f 370 410 417
f 371 373 425
f 372 374 426
f 372 426 427
f 372 427 373
f 373 427 428
f 373 428 425
f 374 375 426
f 375 388 426
f 375 378 386
f 375 386 388
f 376 429 377
f 376 423 429
f 377 387 378
f 377 429 387
f 378 387 386
f 379 430 380
f 380 430 382
f 382 431 432
f 382 432 383
f 382 430 433
f 382 433 431
f 383 432 434
f 383 434 384
f 384 434 389
f 384 389 385
f 387 429 390
f 388 389 426
f 389 434 427
f 389 427 426
f 390 429 435
f 390 435 391
f 391 435 436
f 391 436 437
f 391 437 392
f 392 437 393
f 393 437 438
f 393 438 439
f 393 439 440
f 393 440 441
f 393 441 442
f 393 442 394
f 394 442 443
f 394 443 444
f 394 444 395
f 395 444 445
f 395 445 446
f 395 446 396
f 396 446 445
f 396 445 447
f 396 447 397
f 397 444 448
f 397 448 449
f 397 449 398
f 397 447 445
f 397 445 444
f 398 449 450
f 398 450 400
f 398 400 399
f 400 450 403
f 400 403 401
f 403 450 451
f 403 451 452
f 403 452 453
f 403 453 404
f 404 406 405
f 404 453 452
f 404 452 406
f 406 452 454
f 406 454 455
f 406 455 418
f 406 418 456
f 406 456 408
f 408 456 457
f 408 457 409
f 409 457 410
f 410 457 417
f 410 412 411
f 415 458 416
f 415 418 459
f 415 459 460
f 415 460 458
f 416 458 461
f 416 461 462
f 416 462 419
f 417 457 456
f 417 456 418
f 418 455 454
f 418 454 459
f 419 462 463
f 419 463 441
f 419 441 464
f 419 464 420
f 420 464 465
f 420 465 438
f 420 438 421
f 421 438 436
f 421 436 422
f 422 436 435
f 422 435 423
f 423 435 429
f 425 428 467
f 425 467 468
f 425 468 466
f 427 434 428
f 428 432 467
f 428 434 432
f 431 468 467
f 431 467 432
f 431 433 468
f 433 466 468
f 436 438 437
f 438 465 439
f 439 465 440
f 440 464 441
f 440 465 464
f 441 463 469
f 441 469 470
f 441 470 449
f 441 449 448
f 441 448 442
f 442 471 444
f 442 444 443
f 442 448 471
f 444 471 448
f 449 470 472
f 449 472 450
f 450 472 470
f 450 470 451
f 451 470 452
f 452 470 473
f 452 473 454
f 454 473 460
f 454 460 459
f 458 460 473
f 458 473 461
f 461 469 462
f 461 473 469
f 462 469 463
f 469 473 470

