# https://github.com/mikedh/trimesh
v 0.03770886 -0.04122103 0.00799856
v 0.03104817 -0.04122103 0.00802261
v 0.03534411 -0.02094352 0.00852773
v 0.03659689 -0.02094352 0.00861957
v 0.03745705 -0.02094352 0.00918809
v 0.03770886 -0.03798965 0.00835498
v 0.03770886 -0.04122103 0.01135068
v 0.03104817 -0.03620128 0.00830250
v 0.03104817 -0.04122103 0.01701409
v 0.03062225 -0.04121309 0.02174817
v 0.03104817 -0.03544504 0.00835498
v 0.03409133 -0.02094352 0.00887322
v 0.03768874 -0.02094352 0.01028797
v 0.03770886 -0.03760458 0.00903284
v 0.03412116 -0.04122103 0.01701409
v 0.03770886 -0.03795988 0.01098770
v 0.03768805 -0.03118350 0.02783578
v 0.03768805 -0.03243596 0.02783578
v 0.03763325 -0.03243596 0.02908872
v 0.03742861 -0.03336886 0.02908872
v 0.03734190 -0.03324778 0.03001805
v 0.03379166 -0.04121309 0.02423219
v 0.03062225 -0.04121309 0.02583281
v 0.03062225 -0.03613578 0.02217456
v 0.03062225 -0.03537160 0.02262501
v 0.03062225 -0.03508180 0.02290927
v 0.03104817 -0.03493492 0.00903284
v 0.03338725 -0.02094352 0.00943956
v 0.03768874 -0.02094352 0.01404900
v 0.03770886 -0.03757481 0.01028797
v 0.03303486 -0.04121309 0.02504344
v 0.03293220 -0.04121309 0.02511560
v 0.03158369 -0.04121309 0.02564258
v 0.03768805 -0.02094551 0.02658283
v 0.03763325 -0.03118350 0.02908872
v 0.03741751 -0.02094551 0.03024546
v 0.03740086 -0.03118350 0.03022359
v 0.03740086 -0.03243596 0.03019735
v 0.03734606 -0.03243596 0.03033730
v 0.03679529 -0.03346611 0.03033730
v 0.03534342 -0.03392462 0.03033730
v 0.03409133 -0.03365666 0.03033730
v 0.03336436 -0.03321800 0.03033730
v 0.03324088 -0.03244192 0.03033730
v 0.03321730 -0.03119144 0.03033730
v 0.03321730 -0.02094749 0.03033730
v 0.03062225 -0.03620128 0.02565351
v 0.03062225 -0.03470865 0.02372270
v 0.03062225 -0.03461139 0.02407475
v 0.03104817 -0.03465506 0.01028797
v 0.03331095 -0.02094352 0.01028797
v 0.03337407 -0.02094352 0.00958388
v 0.03755764 -0.02094352 0.01701627
v 0.03667944 -0.03352566 0.03033730
v 0.03738283 -0.02094551 0.03033730
v 0.03738283 -0.02097528 0.03033730
v 0.03736133 -0.03118350 0.03033730
v 0.03606692 -0.02094551 0.03033730
v 0.03329430 -0.02094551 0.02930301
v 0.03331095 -0.02094352 0.01701627
v 0.03062225 -0.03496271 0.02492973
v 0.03062225 -0.03507386 0.02517682
v 0.03062225 -0.03594126 0.02554855
f 1 2 3
f 1 3 4
f 1 4 5
f 1 5 6
f 1 6 14
f 1 14 30
f 1 30 16
f 1 16 7
f 1 7 15
f 1 15 9
f 1 9 2
f 2 8 3
f 2 9 23
f 2 23 10
f 2 10 8
f 3 8 11
f 3 11 12
f 3 12 28
f 3 28 52
f 3 52 51
f 3 51 60
f 3 60 53
f 3 53 29
f 3 29 13
f 3 13 5
f 3 5 4
f 5 13 6
f 6 13 14
f 7 16 17
f 7 17 18
f 7 18 19
f 7 19 20
f 7 20 21
f 7 21 22
f 7 22 15
f 8 10 11
f 9 15 23
f 10 23 47
f 10 47 63
f 10 63 62
f 10 62 61
f 10 61 49
f 10 49 48
f 10 48 26
f 10 26 25
f 10 25 24
f 10 24 11
f 11 24 25
f 11 25 26
f 11 26 27
f 11 27 28
f 11 28 12
f 13 29 30
f 13 30 14
f 15 22 31
f 15 31 32
f 15 32 33
f 15 33 23
f 16 30 34
f 16 34 17
f 17 34 35
f 17 35 19
f 17 19 18
f 19 35 36
f 19 36 37
f 19 37 38
f 19 38 21
f 19 21 20
f 21 38 39
f 21 39 40
f 21 40 31
f 21 31 22
f 23 33 41
f 23 41 42
f 23 42 43
f 23 43 44
f 23 44 45
f 23 45 46
f 23 46 47
f 26 48 27
f 27 48 49
f 27 49 50
f 27 50 51
f 27 51 52
f 27 52 28
f 29 53 34
f 29 34 30
f 31 40 32
f 32 40 54
f 32 54 33
f 33 54 41
f 34 53 36
f 34 36 35
f 36 55 56
f 36 56 57
f 36 57 37
f 36 53 55
f 37 57 38
f 38 57 39
f 39 57 56
f 39 56 55
f 39 55 58
f 39 58 46
f 39 46 45
f 39 45 44
f 39 44 43
f 39 43 42
f 39 42 41
f 39 41 54
f 39 54 40
f 46 58 59
f 46 59 60
f 46 60 51
f 46 51 49
f 46 49 61
f 46 61 62
f 46 62 63
f 46 63 47
f 49 51 50
f 53 60 58
f 53 58 55
f 58 60 59

