# https://github.com/mikedh/trimesh
v 0.01182737 -0.04028503 0.00803110
v 0.01182737 -0.04152108 0.00774817
v 0.01182737 -0.04011977 0.00796270
v 0.00880698 -0.03555814 0.02782398
v 0.01182737 -0.04217533 0.00719785
v 0.01182737 -0.03950627 0.00764246
v 0.00276097 -0.01906158 0.03300072
v 0.00850363 -0.03555814 0.02878782
v 0.00856901 -0.03644104 0.02775558
v 0.00888282 -0.03652480 0.02659275
v 0.01182737 -0.04218438 0.00670660
v 0.00857163 -0.03746203 0.02659275
v 0.00855594 -0.03861658 0.02504750
v 0.00857163 -0.03988433 0.02283068
v 0.00850887 -0.04103888 0.02005420
v 0.00862654 -0.04118603 0.01906860
v 0.00773742 -0.04169766 0.01781250
v 0.00837550 -0.04217080 0.01353431
v 0.01182737 -0.03944967 0.00737196
v 0.00276097 -0.02023198 0.03300072
v 0.01182737 -0.03930932 0.00653871
v 0.01182737 -0.03930705 0.00621536
v 0.00276097 -0.01906158 0.02858261
v -0.01357005 -0.01906158 0.02233632
v 0.00773742 -0.03555814 0.02898991
v 0.00843041 -0.03596563 0.02853908
v 0.00276097 -0.02141597 0.03297584
v 0.00276097 -0.02148388 0.03297274
v 0.00276097 -0.02274031 0.03289190
v 0.00276097 -0.02384280 0.03278308
v 0.00276097 -0.02406918 0.03275509
v 0.00276097 -0.02487737 0.03263073
v 0.00276097 -0.02524637 0.03256233
v 0.00843041 -0.03721527 0.02727987
v 0.01182737 -0.04218665 0.00653871
v 0.00843565 -0.03971680 0.02354889
v 0.00773742 -0.04109322 0.02026251
v 0.00773742 -0.04144411 0.01906860
v 0.00773742 -0.04088268 0.02089056
v 0.00648481 -0.04162069 0.01781250
v 0.00648481 -0.04179727 0.01656573
v 0.00773742 -0.04184028 0.01656573
v 0.00773742 -0.04197837 0.01531274
v 0.00827874 -0.04217080 0.01353431
v 0.00837811 -0.04217306 0.01280987
v 0.01182737 -0.03930705 0.00123760
v 0.00188493 -0.01906158 0.02031848
v -0.01457945 -0.01906158 0.02165853
v 0.00743146 -0.03555814 0.02896193
v 0.00682738 -0.03594978 0.02852665
v 0.00773742 -0.03598827 0.02856085
v 0.00276097 -0.02650054 0.03224830
v 0.00276097 -0.02781356 0.03186588
v 0.00276097 -0.02784073 0.03185655
v 0.00276097 -0.02888888 0.03143370
v 0.00773742 -0.03723338 0.02730786
v 0.00260407 -0.02408276 0.03264627
v 0.00773742 -0.03775406 0.02659275
v 0.00773742 -0.03829738 0.02582168
v 0.00773742 -0.03872751 0.02519674
v 0.00899265 -0.04218665 0.00779481
v 0.01182737 -0.04218665 0.00123760
v 0.00773742 -0.03935459 0.02420803
v 0.00773742 -0.03973491 0.02358620
v 0.00773742 -0.04008355 0.02283068
v 0.00773742 -0.04060423 0.02157769
v 0.00648481 -0.04085551 0.02075065
v 0.00648481 -0.04103436 0.02012260
v 0.00648481 -0.04132866 0.01906860
v 0.00571599 -0.04096191 0.01987387
v 0.00523220 -0.04130828 0.01781250
v 0.00523220 -0.04150750 0.01656573
v 0.00523220 -0.04162974 0.01531274
v 0.00648481 -0.04190820 0.01531274
v 0.00781065 -0.04210968 0.01399757
v 0.00760406 -0.04213458 0.01280987
v 0.00823167 -0.04217306 0.01280987
v 0.00648481 -0.04199196 0.01405975
v 0.00112656 -0.03077466 0.00123760
v 0.00132008 -0.01906158 0.01932977
v -0.01458207 -0.01906158 0.02164609
v -0.01481481 -0.02023198 0.02032159
v -0.01446962 -0.02023198 0.02130408
v 0.00658680 -0.03555814 0.02886865
v 0.00599318 -0.03587281 0.02844270
v 0.00599318 -0.03712698 0.02718971
v 0.00682738 -0.03719716 0.02727055
v 0.00276097 -0.02910168 0.03133421
v -0.01433102 -0.02102206 0.02107090
v 0.00648481 -0.03824305 0.02573152
v 0.00648481 -0.03868223 0.02510347
v 0.00821859 -0.04217533 0.01155067
v 0.00880698 -0.04218665 0.00123760
v 0.00687968 -0.03970096 0.02353334
v 0.00648481 -0.04051594 0.02157769
v 0.00523220 -0.04018994 0.02157769
v 0.00527143 -0.04067667 0.02030293
v 0.00488178 -0.04081024 0.01931733
v 0.00527143 -0.04104341 0.01896289
v 0.00458105 -0.04092343 0.01847786
v 0.00439800 -0.04100040 0.01781250
v 0.00416526 -0.04110680 0.01656573
v 0.00405020 -0.04117471 0.01531274
v 0.00523220 -0.04172030 0.01405975
v 0.00648481 -0.04202139 0.01280987
v 0.00757791 -0.04213684 0.01030079
v 0.00523220 -0.04175199 0.01280987
v 0.00041004 -0.03068411 0.00123760
v 0.00021653 -0.01906158 0.01896289
v -0.01481481 -0.01906158 0.02032159
v -0.01454023 -0.02145898 0.02033713
v -0.01484096 -0.02148614 0.01906860
v -0.01475466 -0.02399221 0.01781561
v 0.00622069 -0.03555814 0.02879714
v 0.00276097 -0.03026077 0.03079011
v 0.00523220 -0.03555814 0.02843026
v 0.00523220 -0.03633464 0.02765608
v 0.00523220 -0.03696172 0.02698451
v 0.00523220 -0.03743486 0.02635646
v 0.00549632 -0.03855546 0.02492314
v 0.00644036 -0.03755031 0.02669535
v 0.00227457 -0.02931675 0.03083364
v 0.00220920 -0.03324224 0.02835253
v 0.00234256 -0.03180923 0.02949670
v 0.00203922 -0.03097388 0.02977963
v -0.01440687 -0.02243243 0.01992983
v -0.01424996 -0.02466683 0.01848408
v 0.00647174 -0.03935685 0.02400594
v 0.00754652 -0.04214363 0.00152054
v 0.00820552 -0.04217533 0.01030079
v 0.00817414 -0.04217533 0.00123760
v 0.00604548 -0.03962399 0.02338100
v 0.00647174 -0.03991602 0.02291151
v 0.00523220 -0.03978019 0.02246380
v 0.00459936 -0.03966021 0.02220885
v 0.00429601 -0.03980509 0.02157769
v 0.00336244 -0.03965342 0.02093098
v 0.00385930 -0.04003374 0.02043352
v 0.00377300 -0.04070836 0.01781250
v 0.00408942 -0.04055669 0.01896289
v 0.00353765 -0.04081703 0.01656573
v 0.00386191 -0.04116792 0.01410328
v 0.00342258 -0.04087362 0.01531274
v -0.01428918 -0.03345277 0.00246261
v 0.00397959 -0.04125395 0.01280987
v 0.00648481 -0.04202818 0.00779481
v 0.00523220 -0.04175652 0.00277663
v 0.00620239 -0.04197385 0.00123760
v 0.00648481 -0.04203497 0.00152054
v 0.00021653 -0.03066599 0.00123760
v -0.00352039 -0.01906158 0.01896289
v -0.00103609 -0.03066373 0.00123760
v -0.01479912 -0.01906158 0.02023142
v -0.01469191 -0.03151040 0.00123760
v -0.01480435 -0.03151040 0.00277352
v -0.01486711 -0.03151040 0.00402962
v -0.01488803 -0.03151040 0.00528261
v -0.01440948 -0.02399221 0.01872348
v -0.01486189 -0.02775244 0.01280365
v -0.01474682 -0.02524411 0.01656573
v -0.01439379 -0.02514903 0.01771301
v 0.00276097 -0.03131571 0.03020248
v 0.00276097 -0.03273967 0.02922310
v 0.00276097 -0.03297963 0.02904898
v 0.00399789 -0.03555814 0.02775558
v 0.00428816 -0.03608788 0.02741046
v 0.00393252 -0.03655649 0.02662695
v 0.00440846 -0.03725375 0.02610151
v 0.00465951 -0.03838114 0.02467129
v 0.00513806 -0.03811401 0.02534287
v 0.00513806 -0.03886107 0.02418627
v 0.00219351 -0.03453941 0.02711198
v 0.00261976 -0.03413645 0.02795456
v 0.00276097 -0.03421116 0.02803540
v 0.00276097 -0.03400289 0.02821884
v 0.00269560 -0.03280079 0.02912360
v -0.01423950 -0.02590741 0.01722487
v 0.00754391 -0.04214363 0.00123760
v 0.00523220 -0.03948816 0.02309185
v 0.00397959 -0.03858941 0.02376964
v 0.00332583 -0.03842642 0.02348982
v -0.01438594 -0.03105311 0.01007071
v -0.01432841 -0.03224162 0.00740927
v 0.00319246 -0.03977566 0.02009462
v -0.01446701 -0.03238651 0.00653871
v -0.01433887 -0.03348673 0.00152364
v -0.01454284 -0.03252687 0.00528261
v -0.01434149 -0.03348900 0.00123760
v 0.00397959 -0.04125395 0.00904469
v 0.00494978 -0.04164333 0.00123760
v 0.00523220 -0.04175652 0.00123760
v 0.00648481 -0.04203497 0.00123760
v -0.01231743 -0.01906158 0.01896600
v -0.01231743 -0.03066373 0.00123760
v -0.01447747 -0.01906158 0.01934532
v -0.01434933 -0.03077692 0.00123760
v -0.01442517 -0.03093539 0.00123760
v -0.01469975 -0.03179338 0.00123760
v -0.01468668 -0.03276457 0.00123760
v -0.01468406 -0.03276457 0.00152364
v -0.01481220 -0.03151040 0.00653871
v -0.01485666 -0.03025850 0.00904469
v -0.01482266 -0.02900434 0.01155378
v -0.01473375 -0.02649827 0.01530963
v -0.01437548 -0.02639640 0.01645380
v 0.00367886 -0.03555814 0.02755659
v 0.00345658 -0.03582754 0.02714307
v 0.00357426 -0.03702284 0.02578126
v 0.00397959 -0.03819324 0.02439147
v 0.00220135 -0.03578905 0.02582479
v 0.00261715 -0.03538835 0.02671090
v 0.00276097 -0.03524799 0.02700938
v -0.01422381 -0.02714573 0.01595945
v 0.00317154 -0.03731035 0.02494490
v 0.00283158 -0.03768388 0.02394064
v 0.00203399 -0.03721979 0.02355822
v -0.01434149 -0.02976046 0.01237148
v -0.01447747 -0.03003212 0.01155378
v -0.01458730 -0.03037622 0.01041272
v -0.01451147 -0.03125459 0.00904469
v 0.00397959 -0.04125168 0.00123760
v -0.01344191 -0.01906158 0.01897843
v -0.01357005 -0.03066599 0.00123760
v -0.01437548 -0.01906158 0.01928624
v -0.01357005 -0.01906158 0.01898154
v -0.01455854 -0.02904056 0.01279433
v -0.01461084 -0.02786789 0.01417479
v -0.01438856 -0.02744229 0.01530963
v 0.00276097 -0.03555814 0.02668914
v 0.00303817 -0.03618749 0.02630982
v 0.00268775 -0.03655875 0.02538640
v -0.01442517 -0.02864665 0.01383279
v 0.00233734 -0.03693002 0.02439147
f 1 2 5
f 1 5 11
f 1 11 35
f 1 35 62
f 1 62 46
f 1 46 22
f 1 22 21
f 1 21 19
f 1 19 6
f 1 6 3
f 1 3 4
f 1 4 2
f 2 4 5
f 3 6 4
f 4 7 8
f 4 8 9
f 4 9 10
f 4 10 5
f 4 6 7
f 5 10 12
f 5 12 13
f 5 13 14
f 5 14 15
f 5 15 16
f 5 16 17
f 5 17 18
f 5 18 11
f 6 19 7
f 7 20 8
f 7 19 21
f 7 21 22
f 7 22 46
f 7 46 23
f 7 23 47
f 7 47 80
f 7 80 109
f 7 109 151
f 7 151 193
f 7 193 222
f 7 222 225
f 7 225 224
f 7 224 195
f 7 195 153
f 7 153 110
f 7 110 81
f 7 81 48
f 7 48 24
f 7 24 20
f 8 25 26
f 8 26 9
f 8 20 27
f 8 27 28
f 8 28 29
f 8 29 30
f 8 30 31
f 8 31 32
f 8 32 33
f 8 33 25
f 9 34 12
f 9 12 10
f 9 26 34
f 11 18 35
f 12 34 13
f 13 34 36
f 13 36 14
f 14 36 15
f 15 37 38
f 15 38 17
f 15 17 16
f 15 36 39
f 15 39 37
f 17 38 40
f 17 40 41
f 17 41 42
f 17 42 18
f 18 42 43
f 18 43 44
f 18 44 77
f 18 77 45
f 18 45 35
f 20 24 27
f 23 46 47
f 24 48 30
f 24 30 29
f 24 29 28
f 24 28 27
f 25 49 50
f 25 50 51
f 25 51 26
f 25 33 52
f 25 52 53
f 25 53 54
f 25 54 55
f 25 55 49
f 26 51 56
f 26 56 34
f 30 48 31
f 31 57 32
f 31 48 57
f 32 57 48
f 32 48 33
f 33 48 52
f 34 56 58
f 34 58 59
f 34 59 60
f 34 60 36
f 35 61 93
f 35 93 62
f 35 45 61
f 36 60 63
f 36 63 64
f 36 64 65
f 36 65 66
f 36 66 39
f 37 39 67
f 37 67 38
f 38 67 68
f 38 68 69
f 38 69 40
f 39 66 67
f 40 69 70
f 40 70 71
f 40 71 72
f 40 72 41
f 41 72 73
f 41 73 74
f 41 74 75
f 41 75 43
f 41 43 42
f 43 75 44
f 44 76 77
f 44 75 78
f 44 78 76
f 45 77 61
f 46 62 93
f 46 93 131
f 46 131 178
f 46 178 192
f 46 192 148
f 46 148 191
f 46 191 190
f 46 190 221
f 46 221 188
f 46 188 199
f 46 199 198
f 46 198 154
f 46 154 197
f 46 197 196
f 46 196 223
f 46 223 194
f 46 194 152
f 46 152 150
f 46 150 108
f 46 108 79
f 46 79 80
f 46 80 47
f 48 81 82
f 48 82 83
f 48 83 54
f 48 54 53
f 48 53 52
f 49 84 50
f 49 55 84
f 50 85 86
f 50 86 87
f 50 87 56
f 50 56 51
f 50 84 85
f 54 83 55
f 55 88 84
f 55 83 89
f 55 89 88
f 56 87 58
f 58 87 59
f 59 87 90
f 59 90 91
f 59 91 60
f 60 91 63
f 61 77 92
f 61 92 93
f 63 91 94
f 63 94 64
f 64 94 65
f 65 94 95
f 65 95 66
f 66 95 67
f 67 95 96
f 67 96 97
f 67 97 70
f 67 70 68
f 68 70 69
f 70 98 99
f 70 99 71
f 70 97 98
f 71 99 100
f 71 100 101
f 71 101 72
f 72 102 73
f 72 101 102
f 73 103 104
f 73 104 74
f 73 102 103
f 74 104 78
f 74 78 75
f 76 105 106
f 76 106 92
f 76 92 77
f 76 78 105
f 78 104 107
f 78 107 105
f 79 108 109
f 79 109 80
f 81 110 82
f 82 111 83
f 82 110 112
f 82 112 113
f 82 113 111
f 83 111 89
f 84 114 85
f 84 88 115
f 84 115 114
f 85 114 116
f 85 116 117
f 85 117 86
f 86 117 118
f 86 118 119
f 86 119 120
f 86 120 91
f 86 91 90
f 86 90 121
f 86 121 87
f 87 121 90
f 88 89 122
f 88 122 115
f 89 123 124
f 89 124 125
f 89 125 115
f 89 115 122
f 89 111 126
f 89 126 127
f 89 127 123
f 91 120 128
f 91 128 94
f 92 106 129
f 92 129 130
f 92 130 93
f 93 130 131
f 94 132 133
f 94 133 95
f 94 128 132
f 95 133 132
f 95 132 96
f 96 132 134
f 96 134 135
f 96 135 136
f 96 136 97
f 97 136 137
f 97 137 138
f 97 138 98
f 98 100 99
f 98 138 100
f 100 139 101
f 100 138 140
f 100 140 139
f 101 139 141
f 101 141 102
f 102 141 103
f 103 142 104
f 103 141 143
f 103 143 144
f 103 144 142
f 104 142 145
f 104 145 107
f 105 107 146
f 105 146 106
f 106 146 129
f 107 145 147
f 107 147 148
f 107 148 149
f 107 149 146
f 108 150 109
f 109 150 152
f 109 152 194
f 109 194 151
f 110 153 154
f 110 154 155
f 110 155 156
f 110 156 157
f 110 157 112
f 111 113 158
f 111 158 126
f 112 157 159
f 112 159 113
f 113 159 160
f 113 160 161
f 113 161 158
f 114 115 162
f 114 162 116
f 115 125 162
f 116 162 163
f 116 163 164
f 116 164 165
f 116 165 166
f 116 166 117
f 117 166 118
f 118 167 168
f 118 168 119
f 118 166 167
f 119 168 169
f 119 169 170
f 119 170 120
f 120 170 169
f 120 169 171
f 120 171 132
f 120 132 128
f 123 172 173
f 123 173 174
f 123 174 175
f 123 175 164
f 123 164 176
f 123 176 124
f 123 127 172
f 124 176 163
f 124 163 162
f 124 162 125
f 126 158 127
f 127 158 161
f 127 161 177
f 127 177 172
f 129 149 178
f 129 178 130
f 129 146 149
f 130 178 131
f 132 179 134
f 132 171 179
f 134 179 135
f 135 179 180
f 135 180 181
f 135 181 137
f 135 137 136
f 137 181 182
f 137 182 183
f 137 183 184
f 137 184 139
f 137 139 140
f 137 140 138
f 139 184 185
f 139 185 144
f 139 144 141
f 141 144 143
f 142 144 186
f 142 186 145
f 144 185 187
f 144 187 186
f 145 186 188
f 145 188 189
f 145 189 190
f 145 190 147
f 147 190 191
f 147 191 148
f 148 192 149
f 149 192 178
f 151 194 193
f 153 195 196
f 153 196 197
f 153 197 154
f 154 198 155
f 155 198 199
f 155 199 156
f 156 199 157
f 157 199 200
f 157 200 187
f 157 187 201
f 157 201 202
f 157 202 159
f 159 202 203
f 159 203 204
f 159 204 160
f 160 204 161
f 161 204 205
f 161 205 177
f 163 176 164
f 164 175 206
f 164 206 165
f 165 206 166
f 166 206 207
f 166 207 167
f 167 208 168
f 167 207 208
f 168 208 169
f 169 209 181
f 169 181 180
f 169 180 171
f 169 208 209
f 171 180 179
f 172 210 211
f 172 211 212
f 172 212 174
f 172 174 173
f 172 177 213
f 172 213 210
f 174 212 207
f 174 207 206
f 174 206 175
f 177 205 213
f 181 209 208
f 181 208 214
f 181 214 215
f 181 215 216
f 181 216 217
f 181 217 182
f 182 217 218
f 182 218 219
f 182 219 220
f 182 220 185
f 182 185 183
f 183 185 184
f 185 220 201
f 185 201 187
f 186 187 200
f 186 200 188
f 188 221 189
f 188 200 199
f 189 221 190
f 193 194 223
f 193 223 222
f 195 224 196
f 196 224 225
f 196 225 223
f 201 220 202
f 202 220 219
f 202 219 203
f 203 219 218
f 203 218 226
f 203 226 227
f 203 227 204
f 204 227 228
f 204 228 205
f 205 228 213
f 207 212 229
f 207 229 230
f 207 230 208
f 208 230 214
f 210 231 230
f 210 230 229
f 210 229 211
f 210 213 232
f 210 232 231
f 211 229 212
f 213 228 232
f 214 230 231
f 214 231 233
f 214 233 215
f 215 233 216
f 216 233 217
f 217 232 218
f 217 233 231
f 217 231 232
f 218 232 226
f 222 223 225
f 226 232 227
f 227 232 228

