# https://github.com/mikedh/trimesh
v 0.00358556 -0.01080642 -0.00842188
v 0.00364927 -0.01139431 -0.00768485
v 0.00358556 -0.01082044 -0.00825936
v 0.00358101 -0.01082044 -0.00261713
v 0.00365382 -0.01024607 -0.00842188
v 0.00368113 -0.01139431 -0.00842188
v 0.00365837 -0.01139431 -0.00825936
v 0.00369023 -0.01148194 -0.00261713
v 0.00364927 -0.01139431 -0.00261713
v 0.00390869 -0.01191459 -0.00768485
v 0.00375395 -0.01034322 -0.00261713
v 0.00379036 -0.01024607 -0.00261713
v 0.00389048 -0.00977486 -0.00842188
v 0.00374485 -0.01153452 -0.00842188
v 0.00391779 -0.01190858 -0.00825936
v 0.00390869 -0.01191209 -0.00261713
v 0.00424547 -0.01219602 -0.00825936
v 0.00424092 -0.01220153 -0.00768485
v 0.00398606 -0.00995012 -0.00261713
v 0.00421816 -0.00960360 -0.00261713
v 0.00450488 -0.00922253 -0.00261713
v 0.00434560 -0.00931416 -0.00842188
v 0.00393144 -0.01190308 -0.00842188
v 0.00425002 -0.01219001 -0.00842188
v 0.00418631 -0.01215045 -0.00261713
v 0.00433194 -0.01222006 -0.00842188
v 0.00453674 -0.01228315 -0.00842188
v 0.00453219 -0.01228365 -0.00825936
v 0.00452764 -0.01228515 -0.00768485
v 0.00452764 -0.01228515 -0.00653697
v 0.00453219 -0.01228515 -0.00261713
v 0.00424547 -0.01219902 -0.00261713
v 0.00424092 -0.01220052 -0.00653697
v 0.00444572 -0.00922253 -0.00842188
v 0.00487352 -0.00893559 -0.00261713
v 0.00482801 -0.01230318 -0.00842188
v 0.00494179 -0.01231219 -0.00825936
v 0.00494179 -0.01231570 -0.00768485
v 0.00494179 -0.01231570 -0.00261713
v 0.00714908 -0.00720047 -0.00261713
v 0.00714453 -0.00720047 -0.00839801
v 0.00714453 -0.00720047 -0.00842188
v 0.00494179 -0.01231069 -0.00842188
v 0.01929147 -0.01231520 -0.00825936
v 0.02732419 -0.01231570 -0.00768485
v 0.04502349 -0.01231570 -0.00261713
v 0.05007523 -0.00720047 -0.00261713
v 0.04706694 -0.00720047 -0.00842188
v 0.01929147 -0.01230819 -0.00842188
v 0.01986946 -0.01231520 -0.00825936
v 0.03938010 -0.01231570 -0.00711091
v 0.04454562 -0.01231570 -0.00366784
v 0.04454562 -0.01231520 -0.00424178
v 0.04511906 -0.01231470 -0.00309390
v 0.04511906 -0.01231520 -0.00261713
v 0.05006613 -0.00781289 -0.00261713
v 0.05002061 -0.00737674 -0.00292399
v 0.05002061 -0.00720047 -0.00292570
v 0.04733091 -0.00720047 -0.00816957
v 0.04706694 -0.00737674 -0.00842188
v 0.01986946 -0.01230769 -0.00842188
v 0.02331010 -0.01230919 -0.00825936
v 0.03134283 -0.01231470 -0.00768485
v 0.03076939 -0.01231520 -0.00768485
v 0.03363659 -0.01230869 -0.00768485
v 0.03593490 -0.01230118 -0.00768485
v 0.03880666 -0.01229166 -0.00768485
v 0.03995354 -0.01231269 -0.00711091
v 0.04167386 -0.01231320 -0.00653697
v 0.04110042 -0.01231570 -0.00653697
v 0.04339874 -0.01231570 -0.00481572
v 0.04339874 -0.01231520 -0.00538966
v 0.04454562 -0.01230618 -0.00481572
v 0.04511906 -0.01231069 -0.00366784
v 0.04559693 -0.01230568 -0.00261713
v 0.05006157 -0.00795060 -0.00261713
v 0.04996145 -0.00795060 -0.00318369
v 0.04996600 -0.00737674 -0.00321096
v 0.04996600 -0.00720047 -0.00321267
v 0.04733091 -0.00737674 -0.00816957
v 0.04761763 -0.00720047 -0.00787976
v 0.04761763 -0.00737674 -0.00788033
v 0.04705329 -0.00795060 -0.00842188
v 0.02085250 -0.01230568 -0.00842188
v 0.02273666 -0.01230168 -0.00842188
v 0.02446154 -0.01230669 -0.00825936
v 0.02618186 -0.01230268 -0.00825936
v 0.02675530 -0.01230118 -0.00825936
v 0.02789763 -0.01229817 -0.00825936
v 0.03076939 -0.01229016 -0.00825936
v 0.03938010 -0.01228866 -0.00768485
v 0.03134283 -0.01228816 -0.00825936
v 0.04052698 -0.01230669 -0.00711091
v 0.04110042 -0.01229967 -0.00711091
v 0.04224731 -0.01230568 -0.00653697
v 0.04282075 -0.01231219 -0.00596303
v 0.04224731 -0.01231570 -0.00596303
v 0.04397218 -0.01230568 -0.00538966
v 0.04456838 -0.01227714 -0.00541409
v 0.04511906 -0.01227564 -0.00480606
v 0.04511906 -0.01230068 -0.00424178
v 0.04569250 -0.01229617 -0.00309390
v 0.04569250 -0.01230268 -0.00261713
v 0.05003427 -0.00839477 -0.00261713
v 0.05000696 -0.00832116 -0.00284955
v 0.04986132 -0.00795060 -0.00366784
v 0.04987043 -0.00737674 -0.00366784
v 0.04993869 -0.00720047 -0.00335132
v 0.04732180 -0.00795060 -0.00816275
v 0.04786793 -0.00720047 -0.00759279
v 0.04760852 -0.00795060 -0.00787351
v 0.04786793 -0.00737674 -0.00759336
v 0.04786338 -0.00795060 -0.00758654
v 0.04704873 -0.00800218 -0.00842188
v 0.02314626 -0.01230068 -0.00842188
v 0.02485293 -0.01229617 -0.00842188
v 0.02709663 -0.01228866 -0.00842188
v 0.03880666 -0.01226162 -0.00800876
v 0.03938010 -0.01225861 -0.00799057
v 0.03974874 -0.01225611 -0.00797693
v 0.03994444 -0.01227764 -0.00773315
v 0.04052698 -0.01227664 -0.00761552
v 0.03191627 -0.01228515 -0.00825936
v 0.03363659 -0.01227864 -0.00822526
v 0.03363659 -0.01226062 -0.00842188
v 0.02766097 -0.01228666 -0.00842188
v 0.03104245 -0.01227364 -0.00842188
v 0.03160679 -0.01227113 -0.00842188
v 0.03260349 -0.01226663 -0.00842188
v 0.04167386 -0.01228916 -0.00711091
v 0.04282075 -0.01228966 -0.00653697
v 0.04339874 -0.01230118 -0.00596303
v 0.04396308 -0.01227564 -0.00596189
v 0.04477317 -0.01225160 -0.00562094
v 0.04493246 -0.01226412 -0.00523907
v 0.04544674 -0.01226112 -0.00460887
v 0.04557417 -0.01227063 -0.00424178
v 0.04574256 -0.01227864 -0.00371046
v 0.04607935 -0.01227764 -0.00261713
v 0.05002972 -0.00846839 -0.00261713
v 0.05002061 -0.00858807 -0.00261713
v 0.04998876 -0.00870424 -0.00274385
v 0.04994780 -0.00851746 -0.00306208
v 0.04982037 -0.00852497 -0.00366784
v 0.04970659 -0.00795060 -0.00424178
v 0.04971569 -0.00737674 -0.00424178
v 0.04982492 -0.00720047 -0.00384400
v 0.04987043 -0.00720047 -0.00366784
v 0.04729450 -0.00852497 -0.00813605
v 0.04806818 -0.00720047 -0.00735015
v 0.04758122 -0.00852497 -0.00784282
v 0.04815466 -0.00737674 -0.00724275
v 0.04815011 -0.00795060 -0.00723365
v 0.04812280 -0.00852497 -0.00720410
v 0.04783608 -0.00852497 -0.00755586
v 0.04699412 -0.00853398 -0.00842188
v 0.03421458 -0.01225561 -0.00842188
v 0.03432836 -0.01225461 -0.00842188
v 0.03880666 -0.01221154 -0.00829573
v 0.04013104 -0.01225361 -0.00795704
v 0.03484264 -0.01224810 -0.00842188
v 0.03531140 -0.01224109 -0.00842188
v 0.04197424 -0.01225611 -0.00740243
v 0.03306315 -0.01226412 -0.00842188
v 0.04219724 -0.01227213 -0.00710523
v 0.04311657 -0.01225611 -0.00682735
v 0.04334413 -0.01226863 -0.00650742
v 0.04376283 -0.01226112 -0.00629660
v 0.04414512 -0.01224660 -0.00615226
v 0.04456838 -0.01222156 -0.00596189
v 0.04511906 -0.01212491 -0.00596303
v 0.04511906 -0.01222256 -0.00541409
v 0.04531476 -0.01224660 -0.00499131
v 0.04597012 -0.01225461 -0.00393094
v 0.04607024 -0.01226713 -0.00309390
v 0.04614306 -0.01227263 -0.00261713
v 0.04999786 -0.00876383 -0.00261713
v 0.04982947 -0.00909884 -0.00309390
v 0.04970659 -0.00909884 -0.00366784
v 0.04966563 -0.00852497 -0.00424178
v 0.04950179 -0.00852497 -0.00474469
v 0.04950179 -0.00791355 -0.00486232
v 0.04971569 -0.00720047 -0.00424178
v 0.04942442 -0.00769722 -0.00510553
v 0.04950634 -0.00735220 -0.00487198
v 0.04721713 -0.00909884 -0.00805990
v 0.04815466 -0.00720047 -0.00724388
v 0.04776326 -0.00909884 -0.00747062
v 0.04750385 -0.00909884 -0.00775759
v 0.04830940 -0.00720047 -0.00704499
v 0.04836856 -0.00795060 -0.00694668
v 0.04834580 -0.00852497 -0.00691713
v 0.04830940 -0.00891055 -0.00687111
v 0.04691220 -0.00909884 -0.00834687
v 0.04683028 -0.00909884 -0.00842188
v 0.03867013 -0.01218100 -0.00842188
v 0.03880666 -0.01217799 -0.00842188
v 0.03938010 -0.01220153 -0.00827754
v 0.04052698 -0.01216297 -0.00825936
v 0.04052698 -0.01224760 -0.00790249
v 0.03994444 -0.01219902 -0.00820480
v 0.04110042 -0.01223107 -0.00780361
v 0.04167386 -0.01220754 -0.00772179
v 0.04219724 -0.01218700 -0.00763030
v 0.04235653 -0.01224259 -0.00729218
v 0.04282075 -0.01221855 -0.00717796
v 0.04334413 -0.01218300 -0.00705579
v 0.04349886 -0.01223558 -0.00667903
v 0.04396308 -0.01220754 -0.00650742
v 0.04454562 -0.01211039 -0.00653697
v 0.04511906 -0.01197669 -0.00653697
v 0.04569250 -0.01197919 -0.00596303
v 0.04569250 -0.01211189 -0.00538966
v 0.04566064 -0.01220653 -0.00480606
v 0.04586089 -0.01223858 -0.00424178
v 0.04626594 -0.01215145 -0.00424178
v 0.04622953 -0.01221104 -0.00371046
v 0.04635697 -0.01222456 -0.00309390
v 0.04642978 -0.01223958 -0.00261713
v 0.04991594 -0.00908682 -0.00261713
v 0.04973845 -0.00957556 -0.00261713
v 0.04961557 -0.00967270 -0.00309390
v 0.04950634 -0.00967571 -0.00361670
v 0.04946538 -0.00948642 -0.00409744
v 0.04941077 -0.00933570 -0.00448045
v 0.04953365 -0.00912638 -0.00427019
v 0.04946538 -0.00895312 -0.00464297
v 0.04939711 -0.00852497 -0.00503166
v 0.04941532 -0.00807980 -0.00508507
v 0.04951089 -0.00720047 -0.00485493
v 0.04931064 -0.00791355 -0.00533397
v 0.04931064 -0.00720047 -0.00534931
v 0.04942442 -0.00752696 -0.00510553
v 0.04944718 -0.00720047 -0.00503961
v 0.04714886 -0.00942433 -0.00799341
v 0.04770865 -0.00939679 -0.00740470
v 0.04807729 -0.00910084 -0.00708193
v 0.04837311 -0.00720047 -0.00695691
v 0.04837311 -0.00737674 -0.00695578
v 0.04865073 -0.00795060 -0.00653697
v 0.04860067 -0.00852497 -0.00653697
v 0.04824113 -0.00929363 -0.00677734
v 0.04881457 -0.00852497 -0.00618977
v 0.04875085 -0.00909884 -0.00606986
v 0.04844593 -0.00910084 -0.00656652
v 0.04665279 -0.00947741 -0.00842188
v 0.03922991 -0.01216697 -0.00842188
v 0.03938010 -0.01216097 -0.00842188
v 0.03974874 -0.01214594 -0.00842188
v 0.04036314 -0.01212040 -0.00842188
v 0.04110042 -0.01212792 -0.00825936
v 0.04167386 -0.01207484 -0.00825936
v 0.04282075 -0.01210488 -0.00768485
v 0.04397218 -0.01207383 -0.00711091
v 0.04454562 -0.01194514 -0.00711091
v 0.04510541 -0.01178039 -0.00711091
v 0.04570160 -0.01179191 -0.00654493
v 0.04607480 -0.01172030 -0.00635854
v 0.04626594 -0.01178139 -0.00595223
v 0.04626594 -0.01194364 -0.00538966
v 0.04626594 -0.01206582 -0.00481572
v 0.04683938 -0.01197468 -0.00424178
v 0.04683938 -0.01205581 -0.00366784
v 0.04683938 -0.01211239 -0.00309390
v 0.04683938 -0.01214344 -0.00261713
v 0.04970204 -0.00967270 -0.00261713
v 0.04945628 -0.01001723 -0.00309390
v 0.04942442 -0.00996415 -0.00339167
v 0.04937891 -0.00986850 -0.00377410
v 0.04932885 -0.00967571 -0.00427019
v 0.04913315 -0.00967270 -0.00481572
v 0.04892379 -0.00962613 -0.00534818
v 0.04934250 -0.00912638 -0.00482708
v 0.04910584 -0.00909884 -0.00538966
v 0.04923327 -0.00852497 -0.00538966
v 0.04899661 -0.00795060 -0.00595053
v 0.04900571 -0.00720047 -0.00596246
v 0.04942442 -0.00720047 -0.00510212
v 0.04737187 -0.00960210 -0.00763996
v 0.04702598 -0.00980641 -0.00787522
v 0.04679387 -0.00960210 -0.00821674
v 0.04759942 -0.00977887 -0.00727570
v 0.04783153 -0.00962213 -0.00709500
v 0.04857336 -0.00720047 -0.00666653
v 0.04865983 -0.00737674 -0.00653697
v 0.04885098 -0.00737674 -0.00624943
v 0.04884187 -0.00795060 -0.00623750
v 0.04836856 -0.00957356 -0.00639434
v 0.04817286 -0.00972779 -0.00656652
v 0.04897386 -0.00852497 -0.00590280
v 0.04891014 -0.00909884 -0.00578289
v 0.04886008 -0.00940380 -0.00569140
v 0.04643889 -0.00979339 -0.00842188
v 0.04093658 -0.01208335 -0.00842188
v 0.04110042 -0.01206933 -0.00842188
v 0.04151002 -0.01203127 -0.00842188
v 0.04168752 -0.01200874 -0.00842188
v 0.04224731 -0.01200172 -0.00825936
v 0.04339874 -0.01200874 -0.00768485
v 0.04397218 -0.01188204 -0.00768485
v 0.04449101 -0.01174884 -0.00766098
v 0.04490971 -0.01170678 -0.00745414
v 0.04529200 -0.01163767 -0.00730184
v 0.04551046 -0.01171930 -0.00691941
v 0.04589730 -0.01164719 -0.00674097
v 0.04646164 -0.01163767 -0.00613578
v 0.04660728 -0.01170678 -0.00575334
v 0.04673016 -0.01176186 -0.00538966
v 0.04688944 -0.01182846 -0.00486061
v 0.04731725 -0.01177488 -0.00424178
v 0.04745834 -0.01180493 -0.00367750
v 0.04741283 -0.01189707 -0.00309390
v 0.04731725 -0.01197468 -0.00261713
v 0.04950179 -0.01009134 -0.00261713
v 0.04927878 -0.01030416 -0.00309390
v 0.04922872 -0.01019149 -0.00361670
v 0.04900571 -0.01027461 -0.00423553
v 0.04892379 -0.01008333 -0.00481572
v 0.04886463 -0.00998167 -0.00512883
v 0.04885098 -0.00720047 -0.00624943
v 0.04721258 -0.01007431 -0.00749221
v 0.04664369 -0.01006880 -0.00805649
v 0.04775871 -0.01003926 -0.00689327
v 0.04865983 -0.00720047 -0.00653697
v 0.04827299 -0.00995563 -0.00624659
v 0.04876451 -0.00978588 -0.00551127
v 0.04615672 -0.01014191 -0.00842188
v 0.04211077 -0.01195465 -0.00842188
v 0.04224731 -0.01193412 -0.00842188
v 0.04263870 -0.01186902 -0.00842188
v 0.04282075 -0.01190558 -0.00825936
v 0.04337143 -0.01178239 -0.00827356
v 0.04397218 -0.01172380 -0.00806558
v 0.04426345 -0.01168374 -0.00797637
v 0.04464574 -0.01161013 -0.00783657
v 0.04566519 -0.01123757 -0.00766837
v 0.04570160 -0.01154604 -0.00711091
v 0.04510541 -0.01151299 -0.00766098
v 0.04625229 -0.01125560 -0.00710011
v 0.04626594 -0.01154754 -0.00654493
v 0.04682573 -0.01124007 -0.00650856
v 0.04681663 -0.01151299 -0.00595223
v 0.04701688 -0.01162265 -0.00538966
v 0.04711700 -0.01167573 -0.00508166
v 0.04721258 -0.01172431 -0.00469923
v 0.04760397 -0.01162566 -0.00424178
v 0.04767679 -0.01166822 -0.00387525
v 0.04773140 -0.01169777 -0.00349225
v 0.04777236 -0.01172280 -0.00309390
v 0.04776326 -0.01177688 -0.00261713
v 0.04741283 -0.01193813 -0.00261713
v 0.04932429 -0.01037827 -0.00261713
v 0.04899206 -0.01070527 -0.00309390
v 0.04892379 -0.01062464 -0.00366784
v 0.04887828 -0.01056505 -0.00404005
v 0.04881457 -0.01048493 -0.00442249
v 0.04873720 -0.01037026 -0.00481572
v 0.04855971 -0.01023956 -0.00537773
v 0.04838221 -0.01011437 -0.00586415
v 0.04741283 -0.01024807 -0.00710750
v 0.04705784 -0.01045689 -0.00732173
v 0.04685304 -0.01026260 -0.00769565
v 0.04647530 -0.01045138 -0.00789965
v 0.04626139 -0.01024307 -0.00825424
v 0.04760852 -0.01042184 -0.00670347
v 0.04787704 -0.01023706 -0.00652220
v 0.04825023 -0.01049745 -0.00562605
v 0.04817286 -0.01028213 -0.00601815
v 0.04774961 -0.01058458 -0.00632103
v 0.04592006 -0.01039079 -0.00842188
v 0.04282075 -0.01183347 -0.00842188
v 0.04315753 -0.01176286 -0.00842188
v 0.04327131 -0.01173883 -0.00842188
v 0.04350341 -0.01168124 -0.00842188
v 0.04360354 -0.01165470 -0.00842188
v 0.04373097 -0.01161113 -0.00842188
v 0.04397218 -0.01156757 -0.00835255
v 0.04454107 -0.01139681 -0.00825538
v 0.04511906 -0.01121654 -0.00813377
v 0.04545129 -0.01113341 -0.00800819
v 0.04605659 -0.01115094 -0.00746607
v 0.04662548 -0.01115344 -0.00690122
v 0.04716251 -0.01113441 -0.00629830
v 0.04728084 -0.01121654 -0.00596303
v 0.04745834 -0.01132570 -0.00542262
v 0.04740827 -0.01156206 -0.00486061
v 0.04789069 -0.01124959 -0.00481572
v 0.04803633 -0.01131469 -0.00426735
v 0.04794986 -0.01151349 -0.00367750
v 0.04805908 -0.01153802 -0.00309390
v 0.04810915 -0.01157508 -0.00261713
v 0.04782242 -0.01174734 -0.00261713
v 0.04903757 -0.01075684 -0.00261713
v 0.04878726 -0.01104428 -0.00261713
v 0.04873720 -0.01099220 -0.00309390
v 0.04866438 -0.01091158 -0.00366784
v 0.04856881 -0.01082745 -0.00425769
v 0.04825478 -0.01108985 -0.00447533
v 0.04845048 -0.01072780 -0.00481572
v 0.04835036 -0.01061813 -0.00524419
v 0.04667554 -0.01064067 -0.00751665
v 0.04722623 -0.01062564 -0.00693873
v 0.04609300 -0.01062665 -0.00806899
v 0.04587910 -0.01043335 -0.00842188
v 0.04801357 -0.01085299 -0.00544023
v 0.04767679 -0.01108784 -0.00563571
v 0.04786338 -0.01070076 -0.00596303
v 0.04756756 -0.01098769 -0.00596303
v 0.04738552 -0.01079640 -0.00650117
v 0.04396763 -0.01152350 -0.00842188
v 0.04449556 -0.01130718 -0.00842188
v 0.04470491 -0.01121804 -0.00842188
v 0.04490061 -0.01113091 -0.00842188
v 0.04565609 -0.01079891 -0.00822981
v 0.04583358 -0.01100922 -0.00784908
v 0.04511906 -0.01099771 -0.00842074
v 0.04643889 -0.01102325 -0.00728423
v 0.04700777 -0.01100872 -0.00668131
v 0.04778146 -0.01116696 -0.00525385
v 0.04831850 -0.01114443 -0.00409290
v 0.04837766 -0.01119400 -0.00366784
v 0.04845048 -0.01125109 -0.00309390
v 0.04850054 -0.01128815 -0.00261713
v 0.04817741 -0.01101473 -0.00481572
v 0.04683938 -0.01082445 -0.00711148
v 0.04626594 -0.01082495 -0.00768258
v 0.04556507 -0.01068974 -0.00842188
v 0.04511906 -0.01099671 -0.00842188
f 1 2 3
f 1 3 4
f 1 4 5
f 1 5 13
f 1 13 22
f 1 22 34
f 1 34 42
f 1 42 48
f 1 48 60
f 1 60 83
f 1 83 114
f 1 114 156
f 1 156 195
f 1 195 246
f 1 246 293
f 1 293 327
f 1 327 370
f 1 370 404
f 1 404 427
f 1 427 428
f 1 428 413
f 1 413 412
f 1 412 411
f 1 411 410
f 1 410 376
f 1 376 375
f 1 375 374
f 1 374 373
f 1 373 372
f 1 372 371
f 1 371 330
f 1 330 329
f 1 329 328
f 1 328 297
f 1 297 296
f 1 296 295
f 1 295 294
f 1 294 250
f 1 250 249
f 1 249 248
f 1 248 247
f 1 247 197
f 1 197 196
f 1 196 162
f 1 162 161
f 1 161 158
f 1 158 157
f 1 157 125
f 1 125 164
f 1 164 129
f 1 129 128
f 1 128 127
f 1 127 126
f 1 126 117
f 1 117 116
f 1 116 115
f 1 115 85
f 1 85 84
f 1 84 61
f 1 61 49
f 1 49 43
f 1 43 36
f 1 36 27
f 1 27 26
f 1 26 24
f 1 24 23
f 1 23 14
f 1 14 6
f 1 6 7
f 1 7 2
f 2 8 9
f 2 9 4
f 2 4 3
f 2 7 10
f 2 10 8
f 4 9 8
f 4 8 16
f 4 16 25
f 4 25 32
f 4 32 31
f 4 31 39
f 4 39 46
f 4 46 55
f 4 55 75
f 4 75 103
f 4 103 139
f 4 139 176
f 4 176 219
f 4 219 265
f 4 265 313
f 4 313 351
f 4 351 350
f 4 350 392
f 4 392 391
f 4 391 423
f 4 423 394
f 4 394 393
f 4 393 352
f 4 352 314
f 4 314 266
f 4 266 221
f 4 221 220
f 4 220 177
f 4 177 141
f 4 141 140
f 4 140 104
f 4 104 76
f 4 76 56
f 4 56 47
f 4 47 40
f 4 40 35
f 4 35 21
f 4 21 20
f 4 20 19
f 4 19 12
f 4 12 11
f 4 11 5
f 5 11 12
f 5 12 13
f 6 14 7
f 7 14 15
f 7 15 10
f 8 10 16
f 10 15 17
f 10 17 18
f 10 18 16
f 12 19 13
f 13 19 20
f 13 20 21
f 13 21 22
f 14 23 15
f 15 23 24
f 15 24 17
f 16 18 25
f 17 24 26
f 17 26 27
f 17 27 18
f 18 27 28
f 18 28 29
f 18 29 30
f 18 30 31
f 18 31 32
f 18 32 33
f 18 33 25
f 21 34 22
f 21 35 34
f 25 33 32
f 27 36 37
f 27 37 38
f 27 38 28
f 28 38 29
f 29 38 39
f 29 39 30
f 30 39 31
f 34 35 40
f 34 40 41
f 34 41 42
f 36 43 37
f 37 43 44
f 37 44 38
f 38 44 50
f 38 50 45
f 38 45 51
f 38 51 70
f 38 70 97
f 38 97 71
f 38 71 52
f 38 52 46
f 38 46 39
f 40 47 58
f 40 58 79
f 40 79 108
f 40 108 148
f 40 148 147
f 40 147 183
f 40 183 230
f 40 230 234
f 40 234 278
f 40 278 232
f 40 232 277
f 40 277 320
f 40 320 324
f 40 324 284
f 40 284 238
f 40 238 190
f 40 190 187
f 40 187 150
f 40 150 110
f 40 110 81
f 40 81 59
f 40 59 48
f 40 48 42
f 40 42 41
f 43 49 50
f 43 50 44
f 45 50 51
f 46 52 53
f 46 53 54
f 46 54 55
f 47 56 57
f 47 57 58
f 48 59 80
f 48 80 60
f 49 61 50
f 50 61 62
f 50 62 63
f 50 63 64
f 50 64 51
f 51 64 63
f 51 63 65
f 51 65 66
f 51 66 67
f 51 67 91
f 51 91 68
f 51 68 69
f 51 69 70
f 52 71 72
f 52 72 53
f 53 72 73
f 53 73 74
f 53 74 54
f 54 74 75
f 54 75 55
f 56 76 77
f 56 77 57
f 57 78 79
f 57 79 58
f 57 77 78
f 59 81 82
f 59 82 80
f 60 80 83
f 61 84 62
f 62 84 85
f 62 85 86
f 62 86 63
f 63 86 87
f 63 87 88
f 63 88 65
f 65 88 89
f 65 89 90
f 65 90 66
f 66 90 67
f 67 90 92
f 67 92 123
f 67 123 91
f 68 91 93
f 68 93 69
f 69 93 94
f 69 94 95
f 69 95 96
f 69 96 72
f 69 72 97
f 69 97 70
f 71 97 72
f 72 96 98
f 72 98 73
f 73 98 99
f 73 99 100
f 73 100 101
f 73 101 74
f 74 101 102
f 74 102 103
f 74 103 75
f 76 104 105
f 76 105 77
f 77 106 78
f 77 105 106
f 78 106 107
f 78 107 108
f 78 108 79
f 80 82 111
f 80 111 109
f 80 109 83
f 81 110 112
f 81 112 82
f 82 112 113
f 82 113 111
f 83 109 114
f 85 115 87
f 85 87 86
f 87 115 88
f 88 115 89
f 89 115 116
f 89 116 90
f 90 116 117
f 90 117 92
f 91 118 119
f 91 119 120
f 91 120 121
f 91 121 122
f 91 122 94
f 91 94 93
f 91 123 124
f 91 124 125
f 91 125 118
f 92 117 126
f 92 126 127
f 92 127 128
f 92 128 129
f 92 129 123
f 94 130 95
f 94 122 130
f 95 130 131
f 95 131 132
f 95 132 96
f 96 132 98
f 98 133 99
f 98 132 133
f 99 134 135
f 99 135 100
f 99 133 134
f 100 135 136
f 100 136 137
f 100 137 101
f 101 137 138
f 101 138 102
f 102 138 139
f 102 139 103
f 104 140 105
f 105 140 141
f 105 141 142
f 105 142 143
f 105 143 144
f 105 144 106
f 106 144 180
f 106 180 145
f 106 145 146
f 106 146 107
f 107 146 147
f 107 147 148
f 107 148 108
f 109 111 149
f 109 149 114
f 110 150 112
f 111 151 149
f 111 113 155
f 111 155 151
f 112 150 152
f 112 152 113
f 113 152 153
f 113 153 154
f 113 154 155
f 114 149 156
f 118 125 157
f 118 157 158
f 118 158 119
f 119 158 120
f 120 159 160
f 120 160 121
f 120 158 161
f 120 161 162
f 120 162 159
f 121 160 122
f 122 160 163
f 122 163 130
f 123 129 164
f 123 164 124
f 124 164 125
f 130 163 165
f 130 165 131
f 131 166 167
f 131 167 132
f 131 165 166
f 132 167 133
f 133 167 168
f 133 168 134
f 134 168 169
f 134 169 170
f 134 170 171
f 134 171 172
f 134 172 173
f 134 173 135
f 135 173 136
f 136 173 174
f 136 174 137
f 137 174 138
f 138 174 175
f 138 175 176
f 138 176 139
f 141 177 142
f 142 177 178
f 142 178 179
f 142 179 144
f 142 144 143
f 144 179 180
f 145 180 181
f 145 181 182
f 145 182 146
f 146 183 147
f 146 182 184
f 146 184 185
f 146 185 183
f 149 151 186
f 149 186 156
f 150 187 152
f 151 155 188
f 151 188 189
f 151 189 186
f 152 187 190
f 152 190 153
f 153 190 191
f 153 191 192
f 153 192 154
f 154 192 193
f 154 193 155
f 155 193 188
f 156 194 195
f 156 186 194
f 159 196 197
f 159 197 198
f 159 198 160
f 159 162 196
f 160 199 200
f 160 200 163
f 160 198 201
f 160 201 199
f 163 202 203
f 163 203 204
f 163 204 205
f 163 205 166
f 163 166 165
f 163 200 202
f 166 206 207
f 166 207 208
f 166 208 169
f 166 169 168
f 166 168 167
f 166 205 206
f 169 209 170
f 169 208 209
f 170 210 171
f 170 209 210
f 171 211 212
f 171 212 213
f 171 213 172
f 171 210 211
f 172 213 214
f 172 214 173
f 173 214 215
f 173 215 174
f 174 176 175
f 174 215 216
f 174 216 217
f 174 217 218
f 174 218 219
f 174 219 176
f 177 220 178
f 178 220 221
f 178 221 222
f 178 222 223
f 178 223 179
f 179 223 224
f 179 224 225
f 179 225 226
f 179 226 180
f 180 226 227
f 180 227 181
f 181 227 228
f 181 228 229
f 181 229 182
f 182 229 184
f 183 185 230
f 184 229 231
f 184 231 232
f 184 232 233
f 184 233 185
f 185 233 234
f 185 234 230
f 186 189 235
f 186 235 194
f 188 236 189
f 188 193 237
f 188 237 236
f 189 236 235
f 190 238 239
f 190 239 191
f 191 239 240
f 191 240 192
f 192 240 241
f 192 241 193
f 193 242 237
f 193 241 243
f 193 243 244
f 193 244 245
f 193 245 242
f 194 235 195
f 195 235 246
f 197 247 198
f 198 247 199
f 198 199 201
f 199 247 248
f 199 248 249
f 199 249 250
f 199 250 251
f 199 251 200
f 200 251 202
f 202 251 203
f 203 251 204
f 204 251 252
f 204 252 253
f 204 253 206
f 204 206 205
f 206 253 207
f 207 253 254
f 207 254 209
f 207 209 208
f 209 254 210
f 210 254 255
f 210 255 211
f 211 256 257
f 211 257 212
f 211 255 256
f 212 257 258
f 212 258 259
f 212 259 260
f 212 260 213
f 213 260 261
f 213 261 214
f 214 261 216
f 214 216 215
f 216 261 262
f 216 262 263
f 216 263 264
f 216 264 217
f 217 264 218
f 218 264 219
f 219 264 265
f 221 266 222
f 222 267 268
f 222 268 223
f 222 266 267
f 223 268 269
f 223 269 224
f 224 269 270
f 224 270 225
f 225 270 271
f 225 271 272
f 225 272 273
f 225 273 227
f 225 227 226
f 227 273 274
f 227 274 228
f 228 274 275
f 228 275 229
f 229 275 231
f 231 275 276
f 231 276 277
f 231 277 232
f 232 278 233
f 233 278 234
f 235 236 279
f 235 279 280
f 235 280 281
f 235 281 246
f 236 282 279
f 236 237 242
f 236 242 283
f 236 283 282
f 238 284 239
f 239 284 285
f 239 285 240
f 240 285 286
f 240 286 287
f 240 287 241
f 241 287 243
f 242 245 288
f 242 288 289
f 242 289 283
f 243 287 290
f 243 290 291
f 243 291 244
f 244 291 292
f 244 292 288
f 244 288 245
f 246 281 293
f 250 294 251
f 251 295 252
f 251 294 295
f 252 295 296
f 252 296 297
f 252 297 298
f 252 298 253
f 253 299 254
f 253 298 299
f 254 299 300
f 254 300 255
f 255 300 301
f 255 301 302
f 255 302 256
f 256 303 304
f 256 304 257
f 256 302 303
f 257 305 258
f 257 304 305
f 258 305 306
f 258 306 259
f 259 306 307
f 259 307 260
f 260 307 308
f 260 308 309
f 260 309 261
f 261 309 262
f 262 309 310
f 262 310 311
f 262 311 263
f 263 311 312
f 263 312 264
f 264 312 313
f 264 313 265
f 266 314 267
f 267 314 352
f 267 352 315
f 267 315 268
f 268 315 316
f 268 316 269
f 269 316 317
f 269 317 270
f 270 317 318
f 270 318 319
f 270 319 271
f 271 319 272
f 272 319 292
f 272 292 273
f 273 292 274
f 274 292 291
f 274 291 275
f 275 291 290
f 275 290 276
f 276 290 287
f 276 287 286
f 276 286 277
f 277 286 320
f 279 282 280
f 280 282 321
f 280 321 322
f 280 322 293
f 280 293 281
f 282 283 323
f 282 323 321
f 283 289 323
f 284 324 285
f 285 324 320
f 285 320 286
f 288 325 289
f 288 292 325
f 289 325 323
f 292 319 326
f 292 326 325
f 293 322 327
f 297 328 298
f 298 328 329
f 298 329 330
f 298 330 331
f 298 331 299
f 299 332 300
f 299 331 332
f 300 333 334
f 300 334 301
f 300 332 333
f 301 334 302
f 302 334 335
f 302 335 303
f 303 336 337
f 303 337 305
f 303 305 304
f 303 335 338
f 303 338 336
f 305 339 340
f 305 340 306
f 305 337 339
f 306 341 342
f 306 342 343
f 306 343 307
f 306 340 341
f 307 343 344
f 307 344 308
f 308 344 309
f 309 344 345
f 309 345 310
f 310 345 346
f 310 346 347
f 310 347 311
f 311 347 348
f 311 348 312
f 312 348 349
f 312 349 350
f 312 350 351
f 312 351 313
f 315 352 353
f 315 353 354
f 315 354 355
f 315 355 316
f 316 355 317
f 317 355 356
f 317 356 318
f 318 356 357
f 318 357 319
f 319 357 358
f 319 358 359
f 319 359 325
f 319 325 326
f 321 323 360
f 321 360 361
f 321 361 362
f 321 362 322
f 322 362 363
f 322 363 364
f 322 364 327
f 323 365 360
f 323 325 366
f 323 366 365
f 325 367 368
f 325 368 369
f 325 369 366
f 325 359 367
f 327 364 370
f 330 371 331
f 331 371 372
f 331 372 373
f 331 373 332
f 332 373 374
f 332 374 333
f 333 374 375
f 333 375 334
f 334 375 376
f 334 376 377
f 334 377 378
f 334 378 335
f 335 378 379
f 335 379 338
f 336 338 380
f 336 380 381
f 336 381 337
f 337 381 339
f 338 379 380
f 339 381 382
f 339 382 340
f 340 382 341
f 341 382 383
f 341 383 342
f 342 383 384
f 342 384 343
f 343 384 385
f 343 385 344
f 344 385 386
f 344 386 346
f 344 346 345
f 346 386 387
f 346 387 388
f 346 388 347
f 347 388 389
f 347 389 348
f 348 389 390
f 348 390 391
f 348 391 349
f 349 391 392
f 349 392 350
f 352 393 353
f 353 394 395
f 353 395 354
f 353 393 394
f 354 395 396
f 354 396 355
f 355 396 397
f 355 397 356
f 356 397 398
f 356 398 399
f 356 399 357
f 357 399 400
f 357 400 358
f 358 400 367
f 358 367 359
f 360 365 361
f 361 401 363
f 361 363 362
f 361 365 402
f 361 402 401
f 363 401 403
f 363 403 404
f 363 404 364
f 364 404 370
f 365 366 369
f 365 369 402
f 367 400 405
f 367 405 406
f 367 406 407
f 367 407 369
f 367 369 368
f 369 408 383
f 369 383 409
f 369 409 402
f 369 407 408
f 376 410 377
f 377 410 411
f 377 411 378
f 378 411 412
f 378 412 413
f 378 413 379
f 379 413 380
f 380 414 415
f 380 415 381
f 380 413 416
f 380 416 414
f 381 415 417
f 381 417 382
f 382 418 383
f 382 417 418
f 383 408 406
f 383 406 384
f 383 418 409
f 384 406 385
f 385 406 419
f 385 419 386
f 386 419 387
f 387 419 398
f 387 398 388
f 388 398 420
f 388 420 389
f 389 420 421
f 389 421 422
f 389 422 390
f 390 422 423
f 390 423 391
f 394 423 422
f 394 422 395
f 395 422 421
f 395 421 420
f 395 420 396
f 396 420 397
f 397 420 398
f 398 419 424
f 398 424 399
f 399 424 400
f 400 424 405
f 401 402 425
f 401 425 417
f 401 417 426
f 401 426 403
f 402 409 418
f 402 418 425
f 403 426 415
f 403 415 414
f 403 414 427
f 403 427 404
f 405 424 406
f 406 408 407
f 406 424 419
f 413 428 416
f 414 416 428
f 414 428 427
f 415 426 417
f 417 425 418

