# https://github.com/mikedh/trimesh
v -0.01230476 0.01646424 0.02040821
v -0.00347232 0.01646424 0.02040821
v -0.01355050 0.01648260 0.02040821
v -0.01354869 0.02922849 -0.00729131
v -0.01104273 0.02922645 -0.00729131
v -0.00347232 0.02341339 0.02040821
v 0.00021420 0.02922645 -0.00729131
v 0.00023774 0.02922849 -0.00729131
v 0.00121369 0.02941410 -0.00729131
v 0.00123542 0.02942430 -0.00729131
v 0.00180940 0.03024628 -0.00729131
v 0.00357843 0.03729946 0.00155323
v -0.01449024 0.01730662 0.02040821
v -0.01439246 0.02942430 -0.00729131
v -0.01355050 0.02209781 0.02040821
v -0.00347232 0.02391311 0.02002590
v -0.01423312 0.02465759 0.01847499
v 0.00363094 0.03729946 -0.00729131
v 0.00004943 0.03729946 0.00155323
v -0.00347232 0.03051960 0.01280006
v -0.00347232 0.02988526 0.01377887
v -0.00347232 0.02945285 0.01437266
v -0.00347232 0.02874713 0.01526742
v -0.00347232 0.02828412 0.01582868
v -0.00347232 0.02769262 0.01650110
v -0.00347232 0.02708888 0.01715454
v -0.00347232 0.02646270 0.01778358
v -0.00347232 0.02582224 0.01839907
v -0.00347232 0.02515935 0.01899557
v -0.00347232 0.02446994 0.01957581
v -0.01456267 0.01772068 0.02040821
v -0.01479081 0.01896692 0.02031331
v -0.01473649 0.03024628 -0.00729131
v -0.01473106 0.03022589 -0.00729131
v -0.01438703 0.02242415 0.01992287
v -0.01449930 0.02140432 0.02040821
v -0.01439246 0.02398042 0.01871901
v -0.01422226 0.02589975 0.01721962
v -0.01437617 0.02513895 0.01770495
v 0.00006935 0.03729946 -0.00729131
v 0.00004762 0.03729946 0.00088081
v -0.01432909 0.03348528 0.00025719
v -0.01432547 0.03348324 0.00150985
v -0.01427296 0.03344652 0.00247239
v -0.01355050 0.03264289 0.00652591
v -0.01431098 0.03223292 0.00740440
v -0.01355050 0.03113558 0.01026762
v -0.01355050 0.03086430 0.01089395
v -0.01355050 0.03044005 0.01153655
v -0.01355050 0.02982203 0.01246927
v -0.01355050 0.02940390 0.01309831
v -0.01355050 0.02877976 0.01403374
v -0.01355050 0.02835551 0.01466007
v -0.01420597 0.02713783 0.01595069
v -0.01477632 0.01897099 0.02040821
v -0.01479624 0.02021927 0.02031331
v -0.01481978 0.02147367 0.01906065
v -0.01484151 0.03150068 -0.00601154
v -0.01467855 0.03147620 -0.00729131
v -0.01452283 0.02144919 0.02032958
v -0.01476365 0.02021927 0.02040821
v -0.01473649 0.02398042 0.01780528
v -0.01435987 0.02638519 0.01644145
v -0.01471657 0.02648717 0.01529724
v -0.01472924 0.02523278 0.01654990
v -0.01432366 0.03225943 -0.00729131
v -0.01420597 0.03339961 -0.00296665
v -0.01427477 0.03344652 -0.00225085
v -0.01432909 0.03348528 -0.00099819
v 0.00006211 0.03729946 -0.00601154
v 0.00004762 0.03729946 -0.00099819
v -0.01467492 0.03275508 0.00025719
v -0.01467131 0.03275508 0.00150985
v -0.01432366 0.03348120 0.00155323
v -0.01452102 0.03252051 0.00527325
v -0.01445041 0.03237978 0.00652591
v -0.01436711 0.03104583 0.01006427
v -0.01432366 0.02975268 0.01236352
v -0.01440514 0.02863698 0.01382496
v -0.01437255 0.02743562 0.01529724
v -0.01483970 0.02773749 0.01279192
v -0.01486686 0.03149864 0.00527325
v -0.01484694 0.03150068 -0.00475888
v -0.01467492 0.03275508 -0.00099819
v -0.01462061 0.03275508 -0.00225085
v -0.01449567 0.03245116 -0.00601154
v -0.01467492 0.03150068 -0.00726420
v -0.01466950 0.03150068 -0.00729131
v -0.01458982 0.02785783 0.01416388
v -0.01480530 0.02899189 0.01153655
v -0.01433271 0.03224924 -0.00729131
v -0.01432909 0.03226351 -0.00726420
v 0.00004943 0.03729946 -0.00225085
v 0.00005668 0.03729946 -0.00475888
v -0.01479443 0.03149864 0.00652591
v -0.01449205 0.03124980 0.00903123
v -0.01456629 0.03036662 0.01040319
v -0.01445946 0.03002600 0.01153655
v -0.01454093 0.02903064 0.01278650
v -0.01483608 0.03024628 0.00903123
f 1 2 6
f 1 6 15
f 1 15 36
f 1 36 61
f 1 61 55
f 1 55 31
f 1 31 13
f 1 13 3
f 1 3 4
f 1 4 5
f 1 5 7
f 1 7 2
f 2 7 8
f 2 8 9
f 2 9 10
f 2 10 11
f 2 11 12
f 2 12 6
f 3 13 14
f 3 14 4
f 4 14 34
f 4 34 33
f 4 33 59
f 4 59 88
f 4 88 91
f 4 91 66
f 4 66 40
f 4 40 18
f 4 18 11
f 4 11 10
f 4 10 9
f 4 9 8
f 4 8 7
f 4 7 5
f 6 12 16
f 6 16 17
f 6 17 15
f 11 18 12
f 12 18 40
f 12 40 70
f 12 70 94
f 12 94 93
f 12 93 71
f 12 71 41
f 12 41 19
f 12 19 20
f 12 20 21
f 12 21 22
f 12 22 23
f 12 23 24
f 12 24 25
f 12 25 26
f 12 26 27
f 12 27 28
f 12 28 29
f 12 29 30
f 12 30 16
f 13 31 32
f 13 32 33
f 13 33 34
f 13 34 14
f 15 35 36
f 15 17 35
f 16 30 17
f 17 37 35
f 17 30 29
f 17 29 28
f 17 28 27
f 17 27 26
f 17 26 38
f 17 38 39
f 17 39 37
f 19 41 42
f 19 42 43
f 19 43 44
f 19 44 45
f 19 45 46
f 19 46 47
f 19 47 48
f 19 48 20
f 20 48 21
f 21 48 49
f 21 49 50
f 21 50 51
f 21 51 52
f 21 52 53
f 21 53 22
f 22 53 23
f 23 53 24
f 24 53 25
f 25 53 54
f 25 54 26
f 26 54 38
f 31 55 32
f 32 55 56
f 32 56 57
f 32 57 58
f 32 58 33
f 33 58 59
f 35 60 36
f 35 37 60
f 36 60 61
f 37 39 62
f 37 62 60
f 38 54 63
f 38 63 39
f 39 63 64
f 39 64 65
f 39 65 62
f 40 66 67
f 40 67 68
f 40 68 69
f 40 69 70
f 41 71 69
f 41 69 42
f 42 72 73
f 42 73 43
f 42 69 84
f 42 84 72
f 43 73 74
f 43 74 44
f 44 74 75
f 44 75 76
f 44 76 46
f 44 46 45
f 46 76 77
f 46 77 48
f 46 48 47
f 48 77 78
f 48 78 49
f 49 78 50
f 50 78 51
f 51 78 52
f 52 78 53
f 53 78 79
f 53 79 54
f 54 80 63
f 54 79 80
f 55 61 56
f 56 61 60
f 56 60 62
f 56 62 57
f 57 62 81
f 57 81 82
f 57 82 83
f 57 83 58
f 58 83 84
f 58 84 85
f 58 85 86
f 58 86 87
f 58 87 59
f 59 87 88
f 62 65 81
f 63 80 64
f 64 80 89
f 64 89 90
f 64 90 81
f 64 81 65
f 66 91 92
f 66 92 67
f 67 92 86
f 67 86 68
f 68 86 85
f 68 85 69
f 69 71 93
f 69 93 94
f 69 94 70
f 69 85 84
f 72 84 82
f 72 82 73
f 73 82 95
f 73 95 75
f 73 75 74
f 75 95 76
f 76 95 96
f 76 96 77
f 77 96 97
f 77 97 98
f 77 98 78
f 78 98 79
f 79 98 99
f 79 99 89
f 79 89 80
f 81 90 100
f 81 100 82
f 82 100 95
f 82 84 83
f 86 92 91
f 86 91 87
f 87 91 88
f 89 99 90
f 90 99 98
f 90 98 97
f 90 97 100
f 95 100 96
f 96 100 97

