# https://github.com/mikedh/trimesh
v 0.05413980 0.05764237 0.00190692
v 0.05413980 0.05742072 0.00277384
v 0.05539632 0.05741041 0.00277384
v 0.05915592 0.05759597 0.00190692
v 0.05289325 0.05762690 0.00190692
v 0.05289325 0.05740783 0.00277384
v 0.05413980 0.05705732 0.00386429
v 0.05789940 0.05703928 0.00382340
v 0.05915592 0.05737433 0.00277384
v 0.06040247 0.05734340 0.00277384
v 0.06040247 0.05756247 0.00190692
v 0.05250433 0.05761401 0.00190692
v 0.05162675 0.05736144 0.00277384
v 0.04786716 0.05695165 0.00360395
v 0.05162675 0.05702639 0.00379341
v 0.05289325 0.05704959 0.00384657
v 0.05289325 0.05679701 0.00447358
v 0.05413980 0.05680217 0.00449130
v 0.05539632 0.05679701 0.00447904
v 0.05915592 0.05677897 0.00443405
v 0.05915592 0.05703155 0.00380704
v 0.06040247 0.05701608 0.00376888
v 0.06164902 0.05698515 0.00369118
v 0.06164902 0.05727896 0.00277384
v 0.06164902 0.05750061 0.00190692
v 0.05162675 0.05758051 0.00190692
v 0.05038020 0.05731247 0.00277384
v 0.04662061 0.05692072 0.00352761
v 0.04662061 0.05666815 0.00415599
v 0.04786716 0.05669650 0.00423232
v 0.05162675 0.05677382 0.00441906
v 0.04786716 0.05721195 0.00277384
v 0.05162675 0.05637949 0.00528188
v 0.05289325 0.05642588 0.00528188
v 0.05413980 0.05644135 0.00528188
v 0.05915592 0.05639495 0.00528188
v 0.06040247 0.05636145 0.00528188
v 0.06040247 0.05676093 0.00439589
v 0.06164902 0.05673258 0.00431819
v 0.06290554 0.05694907 0.00359986
v 0.06416207 0.05691299 0.00350444
v 0.06586735 0.05686144 0.00336677
v 0.06290554 0.05720680 0.00277384
v 0.06665517 0.05701866 0.00265116
v 0.06665517 0.05720422 0.00190692
v 0.05038020 0.05753154 0.00190692
v 0.04662061 0.05715010 0.00277384
v 0.04575301 0.05689237 0.00345537
v 0.04662061 0.05617073 0.00528188
v 0.04534414 0.05666299 0.00393517
v 0.04535411 0.05608310 0.00528188
v 0.04786716 0.05623001 0.00528188
v 0.04913365 0.05628156 0.00528188
v 0.04786716 0.05743103 0.00190692
v 0.04662061 0.05737175 0.00190692
v 0.04786716 0.05577898 0.00617742
v 0.05162675 0.05585115 0.00629601
v 0.05289325 0.05587177 0.00633554
v 0.05413980 0.05587950 0.00634508
v 0.05664287 0.05587177 0.00632736
v 0.05915592 0.05585888 0.00630827
v 0.06040247 0.05584341 0.00628101
v 0.06164902 0.05581249 0.00623331
v 0.06164902 0.05629702 0.00528188
v 0.06540862 0.05608053 0.00528188
v 0.06665517 0.05600579 0.00528188
v 0.06416207 0.05665784 0.00413282
v 0.06542856 0.05666557 0.00392563
v 0.06542856 0.05702897 0.00287879
v 0.06665517 0.05654444 0.00402786
v 0.06665517 0.05683567 0.00327817
v 0.06791169 0.05678155 0.00309007
v 0.06791169 0.05696196 0.00246306
v 0.06791169 0.05709856 0.00190692
v 0.04535411 0.05728154 0.00190692
v 0.04534414 0.05703412 0.00286516
v 0.04546381 0.05688206 0.00341584
v 0.04033799 0.05617331 0.00402786
v 0.04662061 0.05575063 0.00612971
v 0.04546381 0.05574290 0.00599068
v 0.04546381 0.05570939 0.00605883
v 0.04410756 0.05651351 0.00402786
v 0.04033799 0.05576867 0.00498746
v 0.04159452 0.05582537 0.00511286
v 0.04159452 0.05553930 0.00573987
v 0.04342944 0.05562177 0.00591571
v 0.04410756 0.05565270 0.00596342
v 0.04535411 0.05570424 0.00605338
v 0.04786716 0.05538981 0.00680307
v 0.04913365 0.05541558 0.00684396
v 0.05162675 0.05546713 0.00692302
v 0.05289325 0.05549033 0.00695982
v 0.05413980 0.05549548 0.00697209
v 0.05664287 0.05548775 0.00695301
v 0.05915592 0.05547229 0.00693665
v 0.06040247 0.05545682 0.00690803
v 0.06164902 0.05542589 0.00685759
v 0.06540862 0.05570682 0.00605611
v 0.06665517 0.05566816 0.00599204
v 0.06747290 0.05563723 0.00594161
v 0.06790172 0.05585373 0.00537457
v 0.06791169 0.05643619 0.00402786
v 0.06889896 0.05691041 0.00228041
v 0.07168126 0.05602640 0.00402786
v 0.07292781 0.05632794 0.00277384
v 0.06973664 0.05686402 0.00211684
v 0.06952722 0.05693361 0.00190692
v 0.04490535 0.05724546 0.00190692
v 0.04410756 0.05700320 0.00259118
v 0.04491533 0.05685629 0.00334360
v 0.04033799 0.05661145 0.00277384
v 0.03909144 0.05603413 0.00402786
v 0.03909144 0.05570166 0.00483207
v 0.04662061 0.05535888 0.00675536
v 0.04546381 0.05532023 0.00668584
v 0.04033799 0.05548002 0.00561447
v 0.04033799 0.05494910 0.00653454
v 0.04294079 0.05526353 0.00641459
v 0.04535411 0.05531507 0.00668039
v 0.04786716 0.05476611 0.00772314
v 0.04662061 0.05473260 0.00768089
v 0.05289325 0.05490786 0.00778993
v 0.05413980 0.05492332 0.00778993
v 0.05162675 0.05486147 0.00778993
v 0.05539632 0.05491301 0.00778993
v 0.05915592 0.05487693 0.00778993
v 0.06052214 0.05474807 0.00791533
v 0.06164902 0.05479703 0.00776403
v 0.06416207 0.05472487 0.00767134
v 0.06540862 0.05468621 0.00762227
v 0.06290554 0.05538981 0.00679898
v 0.06540862 0.05531249 0.00668312
v 0.06665517 0.05527383 0.00662042
v 0.06790172 0.05528156 0.00643095
v 0.07222974 0.05435632 0.00715065
v 0.07292781 0.05431766 0.00708931
v 0.07292781 0.05470425 0.00646230
v 0.06831059 0.05559084 0.00585574
v 0.07042474 0.05576352 0.00497656
v 0.07256880 0.05564754 0.00471894
v 0.07340648 0.05560115 0.00461534
v 0.07295773 0.05584599 0.00413009
v 0.07418433 0.05580218 0.00386293
v 0.07418433 0.05617331 0.00277384
v 0.07292781 0.05654959 0.00190692
v 0.07042474 0.05682794 0.00194782
v 0.06991614 0.05689237 0.00190692
v 0.04033799 0.05684598 0.00190692
v 0.04105601 0.05686660 0.00211138
v 0.04189369 0.05690268 0.00224905
v 0.04033799 0.05683310 0.00196554
v 0.03909144 0.05647228 0.00277384
v 0.03455400 0.05563981 0.00345401
v 0.03657840 0.05578156 0.00380704
v 0.03784489 0.05583568 0.00410692
v 0.03827371 0.05564496 0.00471076
v 0.03333737 0.05438209 0.00593752
v 0.03909144 0.05540528 0.00545908
v 0.04535411 0.05468879 0.00761818
v 0.04546381 0.05469394 0.00762227
v 0.03902164 0.05472487 0.00664768
v 0.03939062 0.05441302 0.00722971
v 0.04033799 0.05446199 0.00730468
v 0.04410756 0.05463209 0.00754322
v 0.04786716 0.05430993 0.00835015
v 0.04662061 0.05427900 0.00830653
v 0.05289325 0.05440786 0.00846874
v 0.05413980 0.05441818 0.00847828
v 0.05084891 0.05436921 0.00842512
v 0.05162675 0.05438467 0.00844148
v 0.05915592 0.05439240 0.00845238
v 0.06018308 0.05438209 0.00843603
v 0.06101079 0.05436405 0.00841558
v 0.06164902 0.05434601 0.00839241
v 0.06540862 0.05423261 0.00824792
v 0.06665517 0.05464755 0.00756639
v 0.06791169 0.05459085 0.00749006
v 0.07139206 0.05440271 0.00721744
v 0.07292781 0.05381509 0.00778993
v 0.07428406 0.05354447 0.00791124
v 0.07418433 0.05423519 0.00696255
v 0.07418433 0.05462436 0.00633554
v 0.07168126 0.05540012 0.00545227
v 0.07295773 0.05537950 0.00519465
v 0.07418433 0.05518105 0.00528188
v 0.07418433 0.05554703 0.00448858
v 0.07544085 0.05570939 0.00362984
v 0.07418433 0.05639238 0.00190692
v 0.07379541 0.05644135 0.00190692
v 0.07623865 0.05564496 0.00347173
v 0.07544085 0.05598259 0.00277384
v 0.07544085 0.05620681 0.00190692
v 0.07055438 0.05682021 0.00190692
v 0.04016846 0.05682536 0.00190692
v 0.03903161 0.05668619 0.00190692
v 0.03783492 0.05630475 0.00277384
v 0.03371632 0.05558053 0.00326999
v 0.03280883 0.05514755 0.00403059
v 0.03410524 0.05537950 0.00393517
v 0.03532187 0.05543620 0.00421869
v 0.03657840 0.05552383 0.00443405
v 0.03406535 0.05479188 0.00528052
v 0.03406535 0.05403674 0.00664768
v 0.03406535 0.05443106 0.00602203
v 0.03287863 0.05458570 0.00534186
v 0.03249968 0.05430993 0.00579985
v 0.03156228 0.05368622 0.00653454
v 0.03287863 0.05399292 0.00642686
v 0.04535411 0.05423261 0.00824383
v 0.04033799 0.05400581 0.00793169
v 0.03783492 0.05430220 0.00706205
v 0.03407532 0.05341303 0.00758547
v 0.03407532 0.05295170 0.00821248
v 0.03532187 0.05303932 0.00832698
v 0.03607978 0.05309345 0.00839513
v 0.03902164 0.05400839 0.00770406
v 0.04159452 0.05406251 0.00801347
v 0.04285104 0.05411921 0.00809253
v 0.04410756 0.05417591 0.00816886
v 0.04696964 0.05312695 0.00968460
v 0.04786716 0.05371973 0.00903987
v 0.04546381 0.05366045 0.00893764
v 0.04613196 0.05309860 0.00965597
v 0.04658072 0.05355221 0.00915845
v 0.05289325 0.05386148 0.00909303
v 0.05162675 0.05384344 0.00906713
v 0.05413980 0.05386921 0.00910257
v 0.05915592 0.05384859 0.00907667
v 0.06052214 0.05393880 0.00892809
v 0.06290554 0.05314242 0.00969959
v 0.06372328 0.05311922 0.00967915
v 0.06456096 0.05309602 0.00965325
v 0.06540862 0.05360633 0.00899761
v 0.06665517 0.05356509 0.00894854
v 0.06665517 0.05419137 0.00819476
v 0.06916821 0.05406509 0.00802029
v 0.06791169 0.05413467 0.00811570
v 0.07394499 0.05317076 0.00848782
v 0.07292781 0.05323520 0.00856143
v 0.07478268 0.05310375 0.00840876
v 0.07544085 0.05305221 0.00834334
v 0.07544085 0.05351097 0.00771769
v 0.07668741 0.05341303 0.00758683
v 0.07794393 0.05331252 0.00745325
v 0.07919048 0.05321200 0.00731149
v 0.07544085 0.05413983 0.00680988
v 0.07544085 0.05452900 0.00618560
v 0.07742536 0.05437951 0.00593479
v 0.07544085 0.05499291 0.00528188
v 0.07788409 0.05458312 0.00534186
v 0.07919048 0.05452642 0.00501063
v 0.07544085 0.05545167 0.00425822
v 0.07919048 0.05494394 0.00402786
v 0.07707633 0.05557795 0.00326727
v 0.08044700 0.05473776 0.00402786
v 0.07868189 0.05563208 0.00220407
v 0.07951957 0.05557022 0.00190692
v 0.03783492 0.05652639 0.00190692
v 0.03280883 0.05569393 0.00241126
v 0.03410524 0.05576352 0.00282291
v 0.03280883 0.05551094 0.00303691
v 0.03156228 0.05492848 0.00403059
v 0.03156228 0.05451611 0.00498882
v 0.03308806 0.05347231 0.00727878
v 0.03156228 0.05422230 0.00561584
v 0.02609740 0.05307798 0.00583802
v 0.02693508 0.05315530 0.00598250
v 0.03083429 0.05313211 0.00719018
v 0.03156228 0.05320169 0.00729241
v 0.03282877 0.05342849 0.00727878
v 0.04033799 0.05337953 0.00872909
v 0.04159452 0.05343623 0.00879724
v 0.03909144 0.05330478 0.00864049
v 0.03281880 0.05331252 0.00745325
v 0.03281880 0.05285376 0.00808026
v 0.03281880 0.05222490 0.00884631
v 0.03407532 0.05232799 0.00896081
v 0.03691746 0.05315272 0.00846465
v 0.04786716 0.05314499 0.00970232
v 0.03775514 0.04619405 0.01583204
v 0.04546381 0.05360118 0.00900715
v 0.04535411 0.05306510 0.00961917
v 0.05289325 0.05323777 0.00979092
v 0.05162675 0.05321458 0.00977183
v 0.05413980 0.05324293 0.00979773
v 0.05539632 0.05324035 0.00979364
v 0.05915592 0.05321973 0.00977865
v 0.06040247 0.05320427 0.00976366
v 0.06164902 0.05317592 0.00973230
v 0.06161910 0.05236408 0.01046291
v 0.06540862 0.05244139 0.01019166
v 0.06665517 0.05239500 0.01015213
v 0.06540862 0.05306768 0.00962326
v 0.06665517 0.05301870 0.00957419
v 0.06791169 0.05350581 0.00887902
v 0.06916821 0.05343880 0.00880133
v 0.07292781 0.05267850 0.00918571
v 0.07418433 0.05197233 0.00978138
v 0.07514168 0.05190274 0.00971459
v 0.07597936 0.05184088 0.00965325
v 0.07794393 0.05222748 0.00884767
v 0.06791169 0.05295685 0.00950467
v 0.07919048 0.05212439 0.00872909
v 0.07668741 0.05295427 0.00821521
v 0.07794393 0.05285376 0.00808026
v 0.07919048 0.05275324 0.00793851
v 0.08000822 0.05314242 0.00721472
v 0.07788409 0.05399292 0.00642550
v 0.07919048 0.05370942 0.00653454
v 0.08043703 0.05344138 0.00662178
v 0.07826305 0.05430993 0.00580121
v 0.07919048 0.05423261 0.00563764
v 0.08044700 0.05442333 0.00478164
v 0.07913064 0.05542074 0.00268251
v 0.08044700 0.05518105 0.00277384
v 0.08108524 0.05436663 0.00466032
v 0.08158385 0.05452384 0.00403195
v 0.08046695 0.05540012 0.00190692
v 0.03352684 0.05592331 0.00190692
v 0.03209082 0.05563723 0.00221225
v 0.03163208 0.05541043 0.00268660
v 0.02720434 0.05435632 0.00338313
v 0.02804202 0.05443622 0.00358623
v 0.02904923 0.05453415 0.00382340
v 0.02904923 0.05427900 0.00444905
v 0.02977722 0.05434601 0.00461398
v 0.03060493 0.05442591 0.00478982
v 0.02653619 0.05277644 0.00645412
v 0.02653619 0.05337695 0.00536367
v 0.02529961 0.05328159 0.00502699
v 0.02351455 0.05309087 0.00460716
v 0.02529961 0.05298520 0.00565400
v 0.02279653 0.05204964 0.00622785
v 0.02410292 0.05215531 0.00659997
v 0.02372397 0.05179192 0.00705933
v 0.02529961 0.05246717 0.00653454
v 0.02780268 0.05283830 0.00674037
v 0.02691514 0.05230738 0.00727878
v 0.02655613 0.05209346 0.00749414
v 0.02780268 0.05175068 0.00828336
v 0.03156228 0.05273778 0.00792079
v 0.04033799 0.05282025 0.00935337
v 0.04159452 0.05288211 0.00942153
v 0.03909144 0.05274809 0.00926477
v 0.03483323 0.05183831 0.00964916
v 0.02859050 0.05182542 0.00837878
v 0.02942818 0.05190789 0.00847419
v 0.03156228 0.05211150 0.00871137
v 0.03281880 0.05167078 0.00946923
v 0.03407532 0.05178161 0.00958646
v 0.03775514 0.04227399 0.01583204
v 0.03778506 0.04619405 0.01583204
v 0.05413980 0.05192593 0.01097679
v 0.05289325 0.05191820 0.01097133
v 0.05289325 0.05254448 0.01041793
v 0.03909144 0.05211923 0.00991632
v 0.03775514 0.05203161 0.00983454
v 0.02830130 0.05062440 0.00968869
v 0.02747359 0.05054451 0.00960690
v 0.01468897 0.04538735 0.01212994
v 0.05413980 0.05255479 0.01042338
v 0.05789940 0.05253675 0.01041111
v 0.05915592 0.05252902 0.01040430
v 0.06040247 0.05251098 0.01038930
v 0.06117034 0.05186408 0.01092908
v 0.06290554 0.05181254 0.01088410
v 0.06540862 0.05173264 0.01081867
v 0.06665517 0.05168883 0.01077914
v 0.06791169 0.05162955 0.01072598
v 0.06791169 0.05233057 0.01010033
v 0.07292781 0.05205480 0.00985771
v 0.10107991 0.04234615 0.01583204
v 0.10173808 0.04225594 0.01583204
v 0.10301455 0.04205492 0.01583204
v 0.08044700 0.05201614 0.00860368
v 0.08043703 0.05271201 0.00769452
v 0.08084590 0.05306768 0.00709749
v 0.08169355 0.05337695 0.00633690
v 0.08044700 0.05412436 0.00540865
v 0.08275063 0.05444910 0.00361894
v 0.08169355 0.05494394 0.00277384
v 0.08169355 0.05516817 0.00191101
v 0.08158385 0.05402385 0.00515921
v 0.08466533 0.05307283 0.00583120
v 0.08725815 0.05309087 0.00460989
v 0.08170353 0.05516559 0.00190692
v 0.03240993 0.05575579 0.00190692
v 0.02904923 0.05489239 0.00277520
v 0.03189137 0.05567074 0.00190692
v 0.03133291 0.05556507 0.00190692
v 0.02574837 0.05440271 0.00227495
v 0.02769299 0.05419653 0.00401423
v 0.02655613 0.05448003 0.00254211
v 0.02655613 0.05429447 0.00316913
v 0.02529961 0.05371457 0.00403059
v 0.02655613 0.05396715 0.00403059
v 0.02529961 0.05199037 0.00727878
v 0.02397328 0.05287953 0.00524644
v 0.02397328 0.05338468 0.00412600
v 0.02279653 0.05324551 0.00374162
v 0.02279653 0.05299293 0.00436999
v 0.02279653 0.05255737 0.00528052
v 0.02197880 0.05192078 0.00601794
v 0.02279653 0.05166305 0.00685350
v 0.02384364 0.05166563 0.00727878
v 0.02455168 0.05188212 0.00719972
v 0.02281648 0.05136666 0.00727878
v 0.02284640 0.05097492 0.00784173
v 0.02529961 0.05196460 0.00731558
v 0.02655613 0.05162955 0.00812252
v 0.02529961 0.05087182 0.00872772
v 0.02655613 0.05100327 0.00887493
v 0.02785254 0.05103419 0.00912847
v 0.01468897 0.04063483 0.01212994
v 0.01468897 0.03744930 0.01207815
v 0.01468897 0.03619674 0.01205089
v 0.04738848 0.03505242 0.01583204
v 0.03909144 0.04618116 0.01583204
v 0.05915592 0.05190274 0.01096043
v 0.05539632 0.05192078 0.01097542
v 0.02655613 0.05044657 0.00950195
v 0.00994211 0.04450334 0.00811843
v 0.02529961 0.05030482 0.00935065
v 0.02404309 0.05073265 0.00856688
v 0.02329515 0.05064245 0.00846192
v 0.02154998 0.05148007 0.00647730
v 0.02115109 0.05177388 0.00576714
v 0.02060261 0.05200583 0.00493157
v 0.01976493 0.05180738 0.00453083
v 0.01901699 0.05160635 0.00407966
v 0.06040247 0.05188470 0.01094407
v 0.05168659 0.04577395 0.01583204
v 0.05279353 0.04570951 0.01583204
v 0.06540862 0.05110636 0.01129847
v 0.06665517 0.05106255 0.01126712
v 0.10049153 0.04239512 0.01583204
v 0.06916821 0.05156511 0.01066601
v 0.07168126 0.05143110 0.01054606
v 0.10384226 0.04190801 0.01583204
v 0.08139438 0.05192336 0.00849464
v 0.08169355 0.05222490 0.00801347
v 0.08169355 0.05231768 0.00788807
v 0.08296005 0.05222232 0.00766725
v 0.08421657 0.05209088 0.00749414
v 0.08621105 0.05188212 0.00719972
v 0.08169355 0.05298005 0.00696664
v 0.08382765 0.05315788 0.00598932
v 0.08678945 0.05338726 0.00412600
v 0.08357834 0.05436148 0.00339812
v 0.08307972 0.05461663 0.00289788
v 0.08500439 0.05439498 0.00226541
v 0.08583210 0.05431250 0.00190692
v 0.08666978 0.05216305 0.00660406
v 0.08797617 0.05206768 0.00625648
v 0.08546312 0.05298263 0.00564991
v 0.08678945 0.05288726 0.00524644
v 0.08797617 0.05258830 0.00528188
v 0.08797617 0.05300324 0.00440270
v 0.08797617 0.05326097 0.00377433
v 0.02613729 0.05456250 0.00190692
v 0.02553895 0.05444395 0.00190692
v 0.02489074 0.05430993 0.00190692
v 0.02404309 0.05387952 0.00277520
v 0.02531955 0.05417591 0.00272613
v 0.02506027 0.05193882 0.00727878
v 0.02279653 0.05357282 0.00277520
v 0.02206855 0.05314499 0.00348536
v 0.02160982 0.05279964 0.00395289
v 0.02154998 0.05215016 0.00532141
v 0.02410292 0.05142079 0.00768770
v 0.02448187 0.05180996 0.00727878
v 0.02529961 0.05150068 0.00794123
v 0.00994211 0.04084875 0.00811843
v 0.01468897 0.03511685 0.01145659
v 0.04839570 0.03443645 0.01583204
v 0.04788710 0.03469933 0.01583204
v 0.04107595 0.04613992 0.01583204
v 0.04357902 0.04608322 0.01583204
v 0.04483555 0.04604714 0.01583204
v 0.00994211 0.04450592 0.00190829
v 0.01857821 0.05176614 0.00315413
v 0.01831892 0.05191305 0.00231857
v 0.01791006 0.05175068 0.00190692
v 0.01673331 0.05091564 0.00190692
v 0.01629453 0.05058832 0.00190692
v 0.01610505 0.05043368 0.00190692
v 0.01588566 0.05023781 0.00190692
v 0.01477872 0.04920947 0.00190692
v 0.02022365 0.05220428 0.00407966
v 0.01941589 0.05197748 0.00369527
v 0.04535411 0.04602910 0.01583204
v 0.04609207 0.04600333 0.01583204
v 0.04734859 0.04595693 0.01583204
v 0.05110819 0.04579972 0.01583204
v 0.09998294 0.04243378 0.01583204
v 0.10457025 0.04176626 0.01583204
v 0.08704874 0.05179449 0.00706887
v 0.08671964 0.05388725 0.00277384
v 0.08758724 0.05392076 0.00190692
v 0.08797617 0.05167852 0.00688213
v 0.10491928 0.04309614 0.01344122
v 0.08884376 0.05193624 0.00604657
v 0.08924266 0.05218109 0.00534186
v 0.08919280 0.05282799 0.00397743
v 0.08875401 0.05315788 0.00352489
v 0.08797617 0.05360118 0.00277384
v 0.02405306 0.05410890 0.00190692
v 0.02279653 0.05380478 0.00190692
v 0.02160982 0.05324293 0.00269887
v 0.02124084 0.05300067 0.00306690
v 0.00994211 0.04085390 0.00190829
v 0.01468897 0.03467871 0.01029253
v 0.03285869 0.03394419 0.01212994
v 0.04913365 0.03435140 0.01583204
v 0.01468897 0.04910380 0.00190692
v 0.01901699 0.05211923 0.00275203
v 0.01868790 0.05221201 0.00190692
v 0.01822917 0.05196717 0.00190692
v 0.02038321 0.05277644 0.00269887
v 0.10550765 0.04119153 0.01583204
v 0.10618578 0.04185904 0.01473204
v 0.08797617 0.05383055 0.00190692
v 0.10575696 0.04293893 0.01310590
v 0.10627553 0.04312192 0.01226898
v 0.08959170 0.05302128 0.00312687
v 0.08919280 0.05327386 0.00273431
v 0.08884376 0.05359344 0.00190692
v 0.02155996 0.05343880 0.00190692
v 0.02116106 0.05332025 0.00190692
v 0.02085192 0.05313726 0.00223133
v 0.01468897 0.03501892 0.00899080
v 0.01468897 0.04149307 0.00190692
v 0.04913365 0.03433594 0.00190692
v 0.08922272 0.03131535 0.01280194
v 0.08922272 0.03131793 0.01405460
v 0.01527734 0.03494418 0.00903987
v 0.10927722 0.03135401 0.00190829
v 0.04965222 0.03431532 0.01583204
v 0.08296005 0.03206019 0.01583204
v 0.02047296 0.05305479 0.00190692
v 0.10604616 0.03995185 0.01583204
v 0.10635531 0.04120957 0.01497876
v 0.10741238 0.04183842 0.01343440
v 0.10711321 0.04295697 0.01188732
v 0.08996068 0.05315272 0.00228995
v 0.10748219 0.04312192 0.01105039
v 0.08922272 0.05348777 0.00190692
v 0.02076217 0.05317592 0.00190692
v 0.05038020 0.03431532 0.00190692
v 0.11053374 0.03131793 0.00528188
v 0.10176800 0.03131793 0.01405460
v 0.08922272 0.03156535 0.01495150
v 0.10050150 0.03156277 0.01494332
v 0.10973595 0.03140556 0.00190829
v 0.11053374 0.03136432 0.00403059
v 0.08083593 0.03431532 0.00190692
v 0.08209245 0.03435655 0.00190692
v 0.09802835 0.03534623 0.00190692
v 0.09921507 0.03544159 0.00190692
v 0.10176800 0.03156535 0.01495150
v 0.10301455 0.03158339 0.01492015
v 0.10176800 0.03243390 0.01526500
v 0.10426110 0.03852145 0.01583204
v 0.10604616 0.03994412 0.01583204
v 0.10605614 0.03995185 0.01582114
v 0.10757194 0.04205234 0.01280194
v 0.11007501 0.03619416 0.01114853
v 0.10998526 0.03693900 0.01102995
v 0.11056366 0.03619416 0.01029525
v 0.11121187 0.03691065 0.00855052
v 0.10875866 0.04208069 0.01007444
v 0.09069864 0.05293108 0.00190692
v 0.09008034 0.05319912 0.00190692
v 0.09174574 0.05243882 0.00190692
v 0.10783122 0.04250852 0.01149748
v 0.10827998 0.04248532 0.01041384
v 0.10832984 0.04293120 0.00903987
v 0.10849937 0.04304975 0.00802302
v 0.11143126 0.03156535 0.00528188
v 0.11053374 0.03132566 0.00653591
v 0.10803067 0.03133855 0.01154791
v 0.10301455 0.03133597 0.01405460
v 0.11042405 0.03156793 0.00190829
v 0.09964388 0.03554211 0.00190692
v 0.11137143 0.03161174 0.00403059
v 0.10301455 0.03243390 0.01519821
v 0.10427108 0.03140040 0.01405460
v 0.10427108 0.03164782 0.01483427
v 0.10543785 0.03897763 0.01583204
v 0.10507884 0.03173287 0.01474840
v 0.10582677 0.03243390 0.01452213
v 0.10678412 0.03243390 0.01405460
v 0.10755200 0.03171483 0.01352436
v 0.10763177 0.03243390 0.01358570
v 0.10826004 0.03243390 0.01311272
v 0.10896808 0.03243390 0.01248571
v 0.10898802 0.03368903 0.01251160
v 0.10961628 0.03368903 0.01182734
v 0.10961628 0.03494160 0.01183416
v 0.10957639 0.03619416 0.01177418
v 0.11011490 0.03494160 0.01120715
v 0.11065341 0.03494160 0.01029525
v 0.11103236 0.03619416 0.00933293
v 0.11127170 0.03619416 0.00871137
v 0.11152101 0.03619416 0.00778993
v 0.11130162 0.03706529 0.00778993
v 0.10887833 0.04230234 0.00903987
v 0.09260336 0.05200067 0.00190692
v 0.10865893 0.04308841 0.00718745
v 0.11175038 0.03243647 0.00528188
v 0.11142129 0.03157308 0.00653591
v 0.11053374 0.03138752 0.00778993
v 0.10927722 0.03135401 0.01029525
v 0.10799078 0.03157050 0.01279240
v 0.10678412 0.03136947 0.01280194
v 0.10926725 0.03155762 0.01151793
v 0.11097253 0.03243647 0.00190829
v 0.11125176 0.03170452 0.00305054
v 0.10049153 0.03603437 0.00190692
v 0.11161076 0.03243647 0.00403059
v 0.10427108 0.03243390 0.01502101
v 0.10678412 0.03161432 0.01370974
v 0.10550765 0.03156535 0.01409822
v 0.10884841 0.03166586 0.01236712
v 0.10958637 0.03243390 0.01180553
v 0.11010493 0.03243390 0.01117852
v 0.11011490 0.03368903 0.01120169
v 0.11064344 0.03368903 0.01029525
v 0.11107226 0.03368903 0.00942289
v 0.11107226 0.03494160 0.00942561
v 0.11130162 0.03494160 0.00880405
v 0.11159082 0.03494160 0.00778993
v 0.11163071 0.03619416 0.00712339
v 0.11172046 0.03619416 0.00653591
v 0.11140134 0.03721992 0.00653591
v 0.10891822 0.04256264 0.00768089
v 0.09320171 0.05161151 0.00190692
v 0.10866890 0.04309614 0.00653591
v 0.10866890 0.04309872 0.00528188
v 0.10866890 0.04309099 0.00445586
v 0.10858913 0.04308068 0.00361894
v 0.10845948 0.04303171 0.00277520
v 0.10834979 0.04295697 0.00190829
v 0.10905783 0.04245955 0.00653591
v 0.11180024 0.03368903 0.00528188
v 0.11178029 0.03368903 0.00653591
v 0.11172046 0.03243647 0.00653591
v 0.11134151 0.03163236 0.00778993
v 0.11021463 0.03160143 0.01029525
v 0.11002515 0.03169421 0.01108174
v 0.11101242 0.03368903 0.00190829
v 0.11115203 0.03368903 0.00218499
v 0.11112211 0.03243647 0.00221634
v 0.11132156 0.03243647 0.00284472
v 0.10049153 0.04363995 0.00190692
v 0.11165065 0.03368903 0.00403059
v 0.11058361 0.03243390 0.01029525
v 0.11102239 0.03243390 0.00938881
v 0.11128167 0.03243390 0.00876453
v 0.11130162 0.03368903 0.00880133
v 0.11159082 0.03368903 0.00778993
v 0.11179026 0.03494160 0.00653591
v 0.11182018 0.03494160 0.00528188
v 0.11174040 0.03619416 0.00528188
v 0.11140134 0.03723023 0.00528188
v 0.10906780 0.04245955 0.00528188
v 0.09416903 0.05092079 0.00190692
v 0.10894813 0.04258068 0.00403468
v 0.10895810 0.04240543 0.00277520
v 0.10889827 0.04233326 0.00190829
v 0.10873871 0.04252656 0.00190829
v 0.09611365 0.04923782 0.00190692
v 0.09606379 0.04928937 0.00190692
v 0.09601392 0.04933834 0.00190692
v 0.09474743 0.05049554 0.00190692
v 0.11155093 0.03243390 0.00778993
v 0.11164068 0.03243390 0.00712339
v 0.11124179 0.03172514 0.00862686
v 0.11101242 0.03494160 0.00190829
v 0.11115203 0.03494160 0.00218499
v 0.11134151 0.03494160 0.00281200
v 0.11133154 0.03368903 0.00281200
v 0.09725050 0.04792598 0.00190692
v 0.11092267 0.03619416 0.00190829
v 0.11098250 0.03546221 0.00190829
v 0.11165065 0.03494160 0.00403059
v 0.11157087 0.03619416 0.00403059
v 0.11133154 0.03711168 0.00403059
v 0.11124179 0.03695446 0.00316367
v 0.11111214 0.03619416 0.00230085
v 0.11131159 0.03619416 0.00292786
f 1 2 3
f 1 3 4
f 1 4 11
f 1 11 25
f 1 25 45
f 1 45 74
f 1 74 107
f 1 107 147
f 1 147 193
f 1 193 145
f 1 145 189
f 1 189 188
f 1 188 192
f 1 192 257
f 1 257 318
f 1 318 386
f 1 386 452
f 1 452 499
f 1 499 522
f 1 522 527
f 1 527 547
f 1 547 573
f 1 573 572
f 1 572 574
f 1 574 608
f 1 608 637
f 1 637 667
f 1 667 675
f 1 675 674
f 1 674 673
f 1 673 672
f 1 672 683
f 1 683 655
f 1 655 619
f 1 619 584
f 1 584 559
f 1 559 558
f 1 558 557
f 1 557 556
f 1 556 549
f 1 549 533
f 1 533 532
f 1 532 515
f 1 515 488
f 1 488 487
f 1 487 486
f 1 486 485
f 1 485 484
f 1 484 483
f 1 483 518
f 1 518 517
f 1 517 540
f 1 540 548
f 1 548 529
f 1 529 528
f 1 528 508
f 1 508 507
f 1 507 462
f 1 462 461
f 1 461 460
f 1 460 390
f 1 390 389
f 1 389 387
f 1 387 319
f 1 319 258
f 1 258 195
f 1 195 194
f 1 194 148
f 1 148 108
f 1 108 75
f 1 75 55
f 1 55 54
f 1 54 46
f 1 46 26
f 1 26 12
f 1 12 5
f 1 5 6
f 1 6 2
f 2 7 3
f 2 6 7
f 3 7 8
f 3 8 9
f 3 9 4
f 4 9 10
f 4 10 11
f 5 12 6
f 6 12 13
f 6 13 14
f 6 14 15
f 6 15 16
f 6 16 7
f 7 16 17
f 7 17 18
f 7 18 19
f 7 19 8
f 8 19 20
f 8 20 21
f 8 21 9
f 9 21 22
f 9 22 10
f 10 22 23
f 10 23 24
f 10 24 25
f 10 25 11
f 12 26 13
f 13 26 46
f 13 46 27
f 13 27 14
f 14 28 29
f 14 29 30
f 14 30 31
f 14 31 15
f 14 27 32
f 14 32 28
f 15 31 17
f 15 17 16
f 17 31 33
f 17 33 34
f 17 34 35
f 17 35 18
f 18 35 19
f 19 35 36
f 19 36 20
f 20 37 38
f 20 38 22
f 20 22 21
f 20 36 37
f 22 38 39
f 22 39 23
f 23 39 40
f 23 40 24
f 24 40 41
f 24 41 42
f 24 42 43
f 24 43 25
f 25 43 44
f 25 44 45
f 27 46 54
f 27 54 32
f 28 47 48
f 28 48 29
f 28 32 47
f 29 49 30
f 29 48 50
f 29 50 51
f 29 51 49
f 30 52 31
f 30 49 52
f 31 53 33
f 31 52 53
f 32 54 55
f 32 55 47
f 33 53 56
f 33 56 34
f 34 56 57
f 34 57 58
f 34 58 35
f 35 58 59
f 35 59 60
f 35 60 61
f 35 61 36
f 36 61 62
f 36 62 37
f 37 62 63
f 37 63 64
f 37 64 39
f 37 39 38
f 39 64 65
f 39 65 66
f 39 66 67
f 39 67 41
f 39 41 40
f 41 67 68
f 41 68 42
f 42 69 43
f 42 68 70
f 42 70 71
f 42 71 44
f 42 44 69
f 43 69 44
f 44 71 72
f 44 72 73
f 44 73 45
f 45 73 74
f 47 55 75
f 47 75 76
f 47 76 48
f 48 77 78
f 48 78 50
f 48 76 77
f 49 79 52
f 49 51 80
f 49 80 81
f 49 81 79
f 50 78 82
f 50 82 83
f 50 83 84
f 50 84 51
f 51 84 85
f 51 85 86
f 51 86 87
f 51 87 88
f 51 88 80
f 52 79 56
f 52 56 53
f 56 89 90
f 56 90 91
f 56 91 57
f 56 79 89
f 57 91 92
f 57 92 58
f 58 92 59
f 59 92 93
f 59 93 60
f 60 93 94
f 60 94 61
f 61 95 62
f 61 94 95
f 62 96 63
f 62 95 96
f 63 96 97
f 63 97 98
f 63 98 64
f 64 98 99
f 64 99 65
f 65 99 66
f 66 99 100
f 66 100 101
f 66 101 102
f 66 102 70
f 66 70 67
f 67 70 68
f 70 102 71
f 71 102 72
f 72 103 73
f 72 102 104
f 72 104 105
f 72 105 103
f 73 103 74
f 74 103 106
f 74 106 107
f 75 108 76
f 76 108 109
f 76 109 110
f 76 110 77
f 77 110 78
f 78 110 111
f 78 111 152
f 78 152 112
f 78 112 113
f 78 113 83
f 78 83 82
f 79 114 89
f 79 81 115
f 79 115 114
f 80 88 81
f 81 88 119
f 81 119 115
f 83 116 85
f 83 85 84
f 83 113 116
f 85 116 117
f 85 117 86
f 86 117 118
f 86 118 119
f 86 119 87
f 87 119 88
f 89 120 90
f 89 114 121
f 89 121 120
f 90 120 91
f 91 120 92
f 92 122 123
f 92 123 93
f 92 120 124
f 92 124 122
f 93 125 94
f 93 123 125
f 94 125 126
f 94 126 95
f 95 126 96
f 96 127 128
f 96 128 97
f 96 126 127
f 97 128 129
f 97 129 130
f 97 130 131
f 97 131 98
f 98 131 132
f 98 132 133
f 98 133 99
f 99 133 100
f 100 134 135
f 100 135 136
f 100 136 137
f 100 137 138
f 100 138 101
f 100 133 134
f 101 138 139
f 101 139 102
f 102 139 140
f 102 140 141
f 102 141 104
f 103 105 106
f 104 141 142
f 104 142 143
f 104 143 105
f 105 143 144
f 105 144 145
f 105 145 146
f 105 146 106
f 106 146 147
f 106 147 107
f 108 148 149
f 108 149 150
f 108 150 109
f 109 150 111
f 109 111 110
f 111 149 151
f 111 151 152
f 111 150 149
f 112 152 153
f 112 153 154
f 112 154 155
f 112 155 156
f 112 156 113
f 113 156 157
f 113 157 158
f 113 158 116
f 114 115 159
f 114 159 160
f 114 160 121
f 115 119 159
f 116 158 161
f 116 161 117
f 117 161 162
f 117 162 163
f 117 163 118
f 118 163 119
f 119 164 159
f 119 163 164
f 120 165 124
f 120 121 166
f 120 166 165
f 121 160 166
f 122 167 168
f 122 168 123
f 122 124 169
f 122 169 170
f 122 170 167
f 123 168 125
f 124 165 169
f 125 171 126
f 125 168 171
f 126 171 172
f 126 172 127
f 127 173 128
f 127 172 173
f 128 174 129
f 128 173 174
f 129 175 130
f 129 174 175
f 130 175 176
f 130 176 131
f 131 176 132
f 132 176 133
f 133 176 177
f 133 177 134
f 134 177 178
f 134 178 135
f 135 178 179
f 135 179 136
f 136 179 180
f 136 180 181
f 136 181 182
f 136 182 137
f 137 182 138
f 138 182 183
f 138 183 184
f 138 184 140
f 138 140 139
f 140 184 141
f 141 184 185
f 141 185 186
f 141 186 143
f 141 143 142
f 143 186 187
f 143 187 144
f 144 188 189
f 144 189 145
f 144 187 190
f 144 190 191
f 144 191 192
f 144 192 188
f 145 193 146
f 146 193 147
f 148 194 151
f 148 151 149
f 151 194 195
f 151 195 152
f 152 195 196
f 152 196 153
f 153 197 198
f 153 198 199
f 153 199 200
f 153 200 154
f 153 196 197
f 154 200 201
f 154 201 155
f 155 201 156
f 156 201 202
f 156 202 157
f 157 203 204
f 157 204 158
f 157 202 205
f 157 205 206
f 157 206 207
f 157 207 208
f 157 208 203
f 158 204 161
f 159 209 160
f 159 164 219
f 159 219 209
f 160 209 166
f 161 204 162
f 162 210 163
f 162 204 211
f 162 211 212
f 162 212 213
f 162 213 214
f 162 214 215
f 162 215 216
f 162 216 210
f 163 210 217
f 163 217 164
f 164 218 219
f 164 217 218
f 165 166 220
f 165 220 221
f 165 221 169
f 166 209 222
f 166 222 223
f 166 223 224
f 166 224 220
f 167 225 168
f 167 170 226
f 167 226 225
f 168 227 228
f 168 228 171
f 168 225 227
f 169 226 170
f 169 221 220
f 169 220 226
f 171 228 172
f 172 229 173
f 172 228 229
f 173 229 230
f 173 230 231
f 173 231 232
f 173 232 233
f 173 233 174
f 174 233 175
f 175 233 234
f 175 234 235
f 175 235 176
f 176 235 177
f 177 236 178
f 177 235 237
f 177 237 236
f 178 236 179
f 179 238 180
f 179 236 239
f 179 239 238
f 180 240 241
f 180 241 242
f 180 242 181
f 180 238 240
f 181 242 243
f 181 243 244
f 181 244 245
f 181 245 246
f 181 246 247
f 181 247 182
f 182 184 183
f 182 247 185
f 182 185 184
f 185 247 248
f 185 248 249
f 185 249 186
f 186 249 250
f 186 250 251
f 186 251 252
f 186 252 187
f 187 252 253
f 187 253 190
f 190 254 191
f 190 253 255
f 190 255 254
f 191 254 256
f 191 256 192
f 192 256 257
f 195 258 196
f 196 258 259
f 196 259 260
f 196 260 197
f 197 260 259
f 197 259 261
f 197 261 198
f 198 261 262
f 198 262 263
f 198 263 205
f 198 205 202
f 198 202 200
f 198 200 199
f 200 202 201
f 203 208 264
f 203 264 212
f 203 212 211
f 203 211 204
f 205 263 206
f 206 263 265
f 206 265 266
f 206 266 267
f 206 267 207
f 207 267 268
f 207 268 269
f 207 269 208
f 208 269 270
f 208 270 264
f 209 219 271
f 209 271 272
f 209 272 222
f 210 216 273
f 210 273 271
f 210 271 217
f 212 264 274
f 212 274 275
f 212 275 213
f 213 275 276
f 213 276 277
f 213 277 214
f 214 277 215
f 215 277 278
f 215 278 216
f 216 278 273
f 217 271 218
f 218 271 219
f 220 279 226
f 220 224 223
f 220 223 280
f 220 280 279
f 222 272 281
f 222 281 223
f 223 281 282
f 223 282 280
f 225 283 227
f 225 226 284
f 225 284 283
f 226 279 284
f 227 285 286
f 227 286 228
f 227 283 285
f 228 287 288
f 228 288 229
f 228 286 287
f 229 289 230
f 229 288 289
f 230 289 290
f 230 290 231
f 231 290 291
f 231 291 232
f 232 291 292
f 232 292 293
f 232 293 233
f 233 293 234
f 234 294 295
f 234 295 235
f 234 293 294
f 235 295 237
f 236 237 239
f 237 295 296
f 237 296 239
f 238 239 297
f 238 297 298
f 238 298 299
f 238 299 300
f 238 300 301
f 238 301 240
f 239 296 302
f 239 302 297
f 240 301 241
f 241 301 303
f 241 303 304
f 241 304 242
f 242 304 243
f 243 304 244
f 244 304 305
f 244 305 306
f 244 306 245
f 245 306 307
f 245 307 246
f 246 307 308
f 246 308 248
f 246 248 247
f 248 308 309
f 248 309 310
f 248 310 311
f 248 311 250
f 248 250 249
f 250 311 251
f 251 311 312
f 251 312 313
f 251 313 252
f 252 313 253
f 253 313 255
f 254 314 256
f 254 255 315
f 254 315 314
f 255 313 316
f 255 316 317
f 255 317 315
f 256 314 315
f 256 315 257
f 257 315 318
f 258 319 259
f 259 320 261
f 259 319 320
f 261 320 321
f 261 321 322
f 261 322 262
f 262 322 323
f 262 323 324
f 262 324 325
f 262 325 326
f 262 326 327
f 262 327 263
f 263 327 266
f 263 266 265
f 264 270 274
f 266 328 267
f 266 327 326
f 266 326 325
f 266 325 329
f 266 329 330
f 266 330 331
f 266 331 332
f 266 332 333
f 266 333 334
f 266 334 335
f 266 335 336
f 266 336 328
f 267 337 268
f 267 328 337
f 268 337 338
f 268 338 339
f 268 339 269
f 269 340 341
f 269 341 275
f 269 275 274
f 269 274 270
f 269 339 340
f 271 342 343
f 271 343 282
f 271 282 272
f 271 273 344
f 271 344 342
f 272 282 281
f 273 278 277
f 273 277 345
f 273 345 344
f 275 341 340
f 275 340 346
f 275 346 347
f 275 347 348
f 275 348 276
f 276 348 349
f 276 349 350
f 276 350 277
f 277 350 345
f 279 280 284
f 280 351 417
f 280 417 476
f 280 476 475
f 280 475 514
f 280 514 538
f 280 538 539
f 280 539 563
f 280 563 589
f 280 589 564
f 280 564 541
f 280 541 520
f 280 520 496
f 280 496 439
f 280 439 374
f 280 374 373
f 280 373 372
f 280 372 436
f 280 436 495
f 280 495 433
f 280 433 432
f 280 432 494
f 280 494 493
f 280 493 492
f 280 492 491
f 280 491 479
f 280 479 478
f 280 478 477
f 280 477 418
f 280 418 352
f 280 352 353
f 280 353 354
f 280 354 355
f 280 355 283
f 280 283 284
f 280 282 343
f 280 343 342
f 280 342 356
f 280 356 357
f 280 357 345
f 280 345 350
f 280 350 349
f 280 349 358
f 280 358 359
f 280 359 360
f 280 360 414
f 280 414 351
f 283 355 361
f 283 361 285
f 285 361 286
f 286 362 287
f 286 361 362
f 287 362 363
f 287 363 288
f 288 364 289
f 288 363 364
f 289 364 290
f 290 364 365
f 290 365 366
f 290 366 291
f 291 366 367
f 291 367 368
f 291 368 292
f 292 368 369
f 292 369 370
f 292 370 294
f 292 294 293
f 294 370 371
f 294 371 302
f 294 302 295
f 295 302 296
f 297 371 298
f 297 302 371
f 298 371 372
f 298 372 373
f 298 373 299
f 299 373 300
f 300 373 374
f 300 374 301
f 301 374 303
f 303 375 305
f 303 305 304
f 303 374 375
f 305 375 306
f 306 375 376
f 306 376 307
f 307 376 377
f 307 377 310
f 307 310 309
f 307 309 308
f 310 377 378
f 310 378 311
f 311 378 312
f 312 378 379
f 312 379 313
f 313 379 316
f 315 317 380
f 315 380 381
f 315 381 382
f 315 382 318
f 316 379 383
f 316 383 384
f 316 384 385
f 316 385 317
f 317 385 380
f 318 382 386
f 319 387 320
f 320 388 321
f 320 387 389
f 320 389 390
f 320 390 391
f 320 391 388
f 321 388 322
f 322 392 323
f 322 388 393
f 322 393 394
f 322 394 395
f 322 395 396
f 322 396 392
f 323 392 324
f 324 392 325
f 325 392 396
f 325 396 330
f 325 330 329
f 328 336 397
f 328 397 337
f 330 396 395
f 330 395 331
f 331 398 332
f 331 395 399
f 331 399 400
f 331 400 401
f 331 401 402
f 331 402 398
f 332 398 333
f 333 402 403
f 333 403 404
f 333 404 335
f 333 335 334
f 333 398 402
f 335 405 406
f 335 406 336
f 335 404 407
f 335 407 408
f 335 408 405
f 336 406 397
f 337 397 338
f 338 397 339
f 339 397 409
f 339 409 410
f 339 410 340
f 340 410 411
f 340 411 412
f 340 412 346
f 342 344 357
f 342 357 356
f 344 345 357
f 346 412 347
f 347 412 413
f 347 413 359
f 347 359 348
f 348 359 349
f 349 359 358
f 351 414 415
f 351 415 416
f 351 416 417
f 352 418 419
f 352 419 420
f 352 420 353
f 353 361 354
f 353 420 361
f 354 361 355
f 359 413 412
f 359 412 421
f 359 421 360
f 360 422 473
f 360 473 414
f 360 421 423
f 360 423 411
f 360 411 424
f 360 424 425
f 360 425 408
f 360 408 407
f 360 407 404
f 360 404 426
f 360 426 427
f 360 427 428
f 360 428 429
f 360 429 430
f 360 430 422
f 361 420 362
f 362 419 363
f 362 420 419
f 363 419 364
f 364 431 365
f 364 419 431
f 365 431 432
f 365 432 433
f 365 433 434
f 365 434 366
f 366 434 367
f 367 434 435
f 367 435 368
f 368 435 436
f 368 436 372
f 368 372 369
f 369 437 370
f 369 372 437
f 370 437 438
f 370 438 371
f 371 438 372
f 372 438 437
f 374 439 375
f 375 440 376
f 375 439 440
f 376 440 441
f 376 441 442
f 376 442 377
f 377 442 443
f 377 443 444
f 377 444 445
f 377 445 446
f 377 446 378
f 378 446 447
f 378 447 379
f 379 447 384
f 379 384 383
f 380 385 448
f 380 448 449
f 380 449 381
f 381 449 450
f 381 450 451
f 381 451 382
f 382 451 452
f 382 452 386
f 384 447 453
f 384 453 454
f 384 454 455
f 384 455 456
f 384 456 385
f 385 457 458
f 385 458 459
f 385 459 448
f 385 456 457
f 388 391 393
f 390 460 391
f 391 394 393
f 391 460 461
f 391 461 462
f 391 462 463
f 391 463 464
f 391 464 394
f 394 464 463
f 394 463 395
f 395 463 399
f 397 406 465
f 397 465 409
f 399 463 400
f 400 466 467
f 400 467 401
f 400 463 466
f 401 467 468
f 401 468 469
f 401 469 402
f 402 469 403
f 403 469 427
f 403 427 426
f 403 426 404
f 405 470 471
f 405 471 406
f 405 408 425
f 405 425 470
f 406 471 465
f 409 465 472
f 409 472 410
f 410 472 424
f 410 424 411
f 411 423 421
f 411 421 412
f 414 473 415
f 415 473 416
f 416 473 474
f 416 474 475
f 416 475 476
f 416 476 417
f 418 477 419
f 419 477 478
f 419 478 479
f 419 479 431
f 422 480 511
f 422 511 473
f 422 430 481
f 422 481 482
f 422 482 483
f 422 483 484
f 422 484 485
f 422 485 486
f 422 486 487
f 422 487 488
f 422 488 480
f 424 472 425
f 425 472 470
f 427 469 428
f 428 469 468
f 428 468 489
f 428 489 429
f 429 489 490
f 429 490 430
f 430 490 481
f 431 479 491
f 431 491 492
f 431 492 493
f 431 493 494
f 431 494 432
f 433 495 434
f 434 495 435
f 435 495 436
f 439 496 440
f 440 496 441
f 441 496 443
f 441 443 442
f 443 496 444
f 444 496 445
f 445 496 497
f 445 497 446
f 446 497 447
f 447 497 453
f 448 459 449
f 449 459 498
f 449 498 450
f 450 498 451
f 451 498 452
f 452 498 499
f 453 497 454
f 454 500 496
f 454 496 501
f 454 501 502
f 454 502 457
f 454 457 456
f 454 456 455
f 454 497 500
f 457 502 503
f 457 503 458
f 458 503 504
f 458 504 505
f 458 505 459
f 459 505 506
f 459 506 498
f 462 507 463
f 463 507 508
f 463 508 466
f 465 471 472
f 466 508 509
f 466 509 467
f 467 509 510
f 467 510 468
f 468 510 489
f 470 472 471
f 473 511 512
f 473 512 474
f 474 512 513
f 474 513 514
f 474 514 475
f 480 488 515
f 480 515 532
f 480 532 511
f 481 490 516
f 481 516 482
f 482 516 517
f 482 517 518
f 482 518 483
f 489 519 490
f 489 510 519
f 490 519 516
f 496 520 521
f 496 521 501
f 496 500 497
f 498 506 499
f 499 506 522
f 501 521 523
f 501 523 524
f 501 524 504
f 501 504 503
f 501 503 502
f 504 524 525
f 504 525 505
f 505 525 526
f 505 526 506
f 506 526 527
f 506 527 522
f 508 528 509
f 509 528 529
f 509 529 530
f 509 530 510
f 510 530 519
f 511 531 512
f 511 532 533
f 511 533 531
f 512 534 535
f 512 535 513
f 512 531 536
f 512 536 533
f 512 533 537
f 512 537 534
f 513 538 514
f 513 535 539
f 513 539 538
f 516 519 530
f 516 530 540
f 516 540 517
f 520 541 542
f 520 542 521
f 521 542 543
f 521 543 544
f 521 544 523
f 523 544 524
f 524 544 525
f 525 545 526
f 525 544 546
f 525 546 545
f 526 547 527
f 526 545 547
f 529 548 530
f 530 548 540
f 531 533 536
f 533 549 537
f 534 537 550
f 534 550 551
f 534 551 535
f 535 552 539
f 535 551 553
f 535 553 552
f 537 554 555
f 537 555 550
f 537 549 556
f 537 556 557
f 537 557 558
f 537 558 559
f 537 559 554
f 539 552 560
f 539 560 561
f 539 561 562
f 539 562 563
f 541 564 565
f 541 565 542
f 542 565 543
f 543 566 546
f 543 546 544
f 543 565 567
f 543 567 568
f 543 568 569
f 543 569 570
f 543 570 571
f 543 571 566
f 545 572 573
f 545 573 547
f 545 546 572
f 546 574 572
f 546 566 575
f 546 575 576
f 546 576 577
f 546 577 578
f 546 578 574
f 550 555 579
f 550 579 580
f 550 580 581
f 550 581 551
f 551 581 582
f 551 582 560
f 551 560 553
f 552 553 560
f 554 583 555
f 554 559 584
f 554 584 583
f 555 583 585
f 555 585 579
f 560 582 561
f 561 586 562
f 561 582 587
f 561 587 588
f 561 588 586
f 562 586 589
f 562 589 563
f 564 589 590
f 564 590 591
f 564 591 592
f 564 592 593
f 564 593 594
f 564 594 595
f 564 595 596
f 564 596 597
f 564 597 598
f 564 598 565
f 565 598 599
f 565 599 600
f 565 600 567
f 566 571 575
f 567 600 599
f 567 599 601
f 567 601 602
f 567 602 569
f 567 569 568
f 569 602 603
f 569 603 570
f 570 603 604
f 570 604 605
f 570 605 606
f 570 606 607
f 570 607 571
f 571 607 577
f 571 577 576
f 571 576 575
f 574 578 609
f 574 609 608
f 577 607 578
f 578 607 609
f 579 585 610
f 579 610 611
f 579 611 580
f 580 612 613
f 580 613 581
f 580 611 612
f 581 614 615
f 581 615 582
f 581 613 616
f 581 616 614
f 582 615 587
f 583 617 618
f 583 618 585
f 583 584 619
f 583 619 617
f 585 618 620
f 585 620 610
f 586 588 590
f 586 590 621
f 586 621 589
f 587 615 622
f 587 622 623
f 587 623 588
f 588 623 590
f 589 621 590
f 590 623 622
f 590 622 593
f 590 593 592
f 590 592 591
f 593 614 624
f 593 624 595
f 593 595 594
f 593 622 614
f 595 624 596
f 596 624 625
f 596 625 598
f 596 598 597
f 598 625 626
f 598 626 627
f 598 627 599
f 599 627 601
f 601 627 602
f 602 627 628
f 602 628 629
f 602 629 630
f 602 630 603
f 603 630 604
f 604 630 631
f 604 631 632
f 604 632 605
f 605 632 633
f 605 633 606
f 606 633 634
f 606 634 635
f 606 635 607
f 607 636 609
f 607 635 636
f 608 609 638
f 608 638 639
f 608 639 640
f 608 640 641
f 608 641 642
f 608 642 643
f 608 643 637
f 609 636 644
f 609 644 638
f 610 645 646
f 610 646 647
f 610 647 611
f 610 620 645
f 611 647 648
f 611 648 612
f 612 649 613
f 612 648 649
f 613 649 616
f 614 622 615
f 614 616 624
f 616 649 650
f 616 650 624
f 617 619 651
f 617 651 652
f 617 652 653
f 617 653 618
f 618 653 654
f 618 654 620
f 619 655 679
f 619 679 651
f 620 654 656
f 620 656 645
f 624 650 625
f 625 650 626
f 626 650 657
f 626 657 628
f 626 628 627
f 628 657 629
f 629 657 658
f 629 658 659
f 629 659 660
f 629 660 631
f 629 631 630
f 631 660 661
f 631 661 632
f 632 661 662
f 632 662 633
f 633 662 634
f 634 662 663
f 634 663 664
f 634 664 635
f 635 664 665
f 635 665 666
f 635 666 644
f 635 644 636
f 637 643 667
f 638 644 666
f 638 666 639
f 639 666 640
f 640 666 668
f 640 668 669
f 640 669 641
f 641 669 670
f 641 670 671
f 641 671 643
f 641 643 642
f 643 671 672
f 643 672 673
f 643 673 674
f 643 674 675
f 643 675 667
f 645 663 646
f 645 656 663
f 646 663 662
f 646 662 661
f 646 661 676
f 646 676 647
f 647 676 677
f 647 677 648
f 648 677 676
f 648 676 678
f 648 678 649
f 649 678 650
f 650 678 657
f 651 679 680
f 651 680 652
f 652 680 681
f 652 681 682
f 652 682 654
f 652 654 653
f 654 682 656
f 655 683 670
f 655 670 684
f 655 684 685
f 655 685 679
f 656 686 663
f 656 682 681
f 656 681 686
f 657 678 658
f 658 678 659
f 659 678 676
f 659 676 661
f 659 661 660
f 663 686 687
f 663 687 664
f 664 687 688
f 664 688 665
f 665 688 669
f 665 669 668
f 665 668 666
f 669 688 670
f 670 688 689
f 670 689 690
f 670 690 684
f 670 683 671
f 671 683 672
f 679 685 680
f 680 685 690
f 680 690 691
f 680 691 681
f 681 691 686
f 684 690 685
f 686 691 687
f 687 691 689
f 687 689 688
f 689 691 690

