# https://github.com/mikedh/trimesh
v 0.00537220 0.01006772 -0.00452768
v 0.00527871 0.01006772 -0.00470105
v 0.00520877 0.01006772 -0.00462037
v 0.00546495 0.01006702 -0.00435191
v 0.00552679 0.01006702 -0.00443452
v 0.00519846 0.01005576 -0.00487298
v 0.00502694 0.01006772 -0.00496038
v 0.00469052 0.01006772 -0.00514096
v 0.00546642 0.00994315 -0.00423522
v 0.00560997 0.01005013 -0.00423522
v 0.00563280 0.01006491 -0.00423522
v 0.00562543 0.01006561 -0.00425154
v 0.00564678 0.01006491 -0.00423522
v 0.00569831 0.01005153 -0.00432310
v 0.00587352 0.00999242 -0.00451520
v 0.00587352 0.00995511 -0.00477309
v 0.00561513 0.01000086 -0.00477309
v 0.00536189 0.01004309 -0.00478125
v 0.00510718 0.01004450 -0.00504011
v 0.00494375 0.01005576 -0.00513231
v 0.00535747 0.01000508 -0.00503098
v 0.00535747 0.00996497 -0.00528887
v 0.00477223 0.01006772 -0.00521203
v 0.00455801 0.01006772 -0.00532537
v 0.00455801 0.00996497 -0.00520003
v 0.00543624 0.00990092 -0.00423522
v 0.00584775 0.01003535 -0.00423522
v 0.00613191 0.00997904 -0.00425683
v 0.00613191 0.00994245 -0.00451520
v 0.00613191 0.00989951 -0.00477309
v 0.00587352 0.00991007 -0.00503098
v 0.00561513 0.00996145 -0.00503098
v 0.00509982 0.01000649 -0.00528887
v 0.00485100 0.01004309 -0.00529464
v 0.00455801 0.01006350 -0.00543823
v 0.00561513 0.00991570 -0.00528887
v 0.00535747 0.00991711 -0.00554676
v 0.00509982 0.00996215 -0.00554676
v 0.00455801 0.01006772 -0.00537147
v 0.00455801 0.00993048 -0.00517938
v 0.00538471 0.00969682 -0.00423522
v 0.00613191 0.00998186 -0.00423522
v 0.00638883 0.00992626 -0.00425683
v 0.00613780 0.00984110 -0.00503386
v 0.00638883 0.00987981 -0.00451520
v 0.00638588 0.00983054 -0.00475772
v 0.00588530 0.00984602 -0.00529896
v 0.00484143 0.01000227 -0.00554676
v 0.00455801 0.01004239 -0.00556117
v 0.00458893 0.01004027 -0.00554772
v 0.00563206 0.00984884 -0.00556309
v 0.00536925 0.00984673 -0.00581810
v 0.00509982 0.00991148 -0.00580466
v 0.00484143 0.00995723 -0.00580466
v 0.00455801 0.00979535 -0.00514336
v 0.00538398 0.00967289 -0.00423522
v 0.00455801 0.00967289 -0.00511454
v 0.00638883 0.00992907 -0.00423522
v 0.00666341 0.00985588 -0.00423522
v 0.00666562 0.00984884 -0.00427123
v 0.00629754 0.00981365 -0.00494982
v 0.00622761 0.00979183 -0.00512175
v 0.00613780 0.00977283 -0.00529896
v 0.00605608 0.00981717 -0.00521972
v 0.00658243 0.00982280 -0.00451520
v 0.00671200 0.00978127 -0.00451520
v 0.00662881 0.00975242 -0.00475772
v 0.00646980 0.00978620 -0.00483312
v 0.00580726 0.00981998 -0.00548769
v 0.00455801 0.01000368 -0.00578160
v 0.00458378 0.00999593 -0.00580466
v 0.00555697 0.00982139 -0.00574078
v 0.00572923 0.00979746 -0.00565962
v 0.00510497 0.00984250 -0.00607023
v 0.00484143 0.00990374 -0.00606255
v 0.00458378 0.00994667 -0.00606255
v 0.00538324 0.00945471 -0.00423522
v 0.00455801 0.00956943 -0.00511406
v 0.00673555 0.00983335 -0.00423522
v 0.00676353 0.00979746 -0.00436632
v 0.00638588 0.00976579 -0.00503386
v 0.00638883 0.00969963 -0.00528887
v 0.00613191 0.00970878 -0.00554676
v 0.00588530 0.00977775 -0.00556309
v 0.00690561 0.00971863 -0.00451520
v 0.00664722 0.00968204 -0.00503098
v 0.00455801 0.00995511 -0.00603709
v 0.00563206 0.00977846 -0.00581810
v 0.00546274 0.00979605 -0.00591271
v 0.00529048 0.00981858 -0.00598955
v 0.00587352 0.00971582 -0.00580466
v 0.00519478 0.00979324 -0.00616148
v 0.00502252 0.00981576 -0.00623495
v 0.00483186 0.00983335 -0.00632092
v 0.00458378 0.00988544 -0.00632044
v 0.00455801 0.00988966 -0.00632044
v 0.00455801 0.00995019 -0.00606255
v 0.00538398 0.00941529 -0.00423522
v 0.00455801 0.00941529 -0.00511502
v 0.00686365 0.00979113 -0.00423522
v 0.00690340 0.00977072 -0.00427123
v 0.00666120 0.00960251 -0.00529896
v 0.00640797 0.00961095 -0.00556501
v 0.00615547 0.00961658 -0.00582915
v 0.00690561 0.00965459 -0.00477309
v 0.00716326 0.00968344 -0.00425683
v 0.00718461 0.00960954 -0.00453393
v 0.00690561 0.00958632 -0.00502042
v 0.00561513 0.00971089 -0.00606255
v 0.00536925 0.00977424 -0.00607023
v 0.00587352 0.00963629 -0.00606255
v 0.00535747 0.00970245 -0.00632044
v 0.00510497 0.00976790 -0.00632092
v 0.00509982 0.00968767 -0.00657833
v 0.00491136 0.00978831 -0.00640688
v 0.00473910 0.00980802 -0.00646835
v 0.00455801 0.00982843 -0.00653175
v 0.00544140 0.00920274 -0.00423522
v 0.00455801 0.00913447 -0.00521876
v 0.00691665 0.00977353 -0.00423522
v 0.00681948 0.00956380 -0.00521972
v 0.00675543 0.00953494 -0.00539164
v 0.00658391 0.00957084 -0.00549106
v 0.00633509 0.00957435 -0.00575951
v 0.00606565 0.00956943 -0.00606255
v 0.00710658 0.00957647 -0.00477309
v 0.00714559 0.00969400 -0.00423522
v 0.00716105 0.00968837 -0.00423522
v 0.00742092 0.00958280 -0.00423570
v 0.00733478 0.00956520 -0.00446045
v 0.00728473 0.00954057 -0.00463286
v 0.00587352 0.00956802 -0.00624984
v 0.00563574 0.00961236 -0.00634109
v 0.00537072 0.00960532 -0.00659370
v 0.00509467 0.00959125 -0.00683958
v 0.00484143 0.00966233 -0.00683526
v 0.00458378 0.00972497 -0.00683526
v 0.00483186 0.00975594 -0.00656392
v 0.00529343 0.00956661 -0.00675602
v 0.00455801 0.00973904 -0.00681077
v 0.00458378 0.00978409 -0.00665277
v 0.00545612 0.00917741 -0.00423522
v 0.00455801 0.00912462 -0.00522644
v 0.00552311 0.00908591 -0.00423522
v 0.00705210 0.00955254 -0.00492725
v 0.00690561 0.00949694 -0.00529896
v 0.00666120 0.00951101 -0.00556501
v 0.00710363 0.00931887 -0.00554676
v 0.00704768 0.00929283 -0.00569276
v 0.00650735 0.00953916 -0.00566298
v 0.00625853 0.00954339 -0.00593144
v 0.00600308 0.00954409 -0.00619173
v 0.00619448 0.00951805 -0.00606255
v 0.00742165 0.00958210 -0.00423522
v 0.00765575 0.00946738 -0.00423522
v 0.00750705 0.00952227 -0.00430869
v 0.00770139 0.00936110 -0.00453393
v 0.00742092 0.00950116 -0.00453393
v 0.00723614 0.00951735 -0.00477309
v 0.00780151 0.00928227 -0.00463238
v 0.00762998 0.00932661 -0.00477309
v 0.00757624 0.00929917 -0.00494166
v 0.00742754 0.00934139 -0.00502906
v 0.00546569 0.00953635 -0.00668879
v 0.00556286 0.00957154 -0.00651734
v 0.00500559 0.00955535 -0.00698894
v 0.00484143 0.00957998 -0.00704705
v 0.00460880 0.00961518 -0.00711909
v 0.00455801 0.00962925 -0.00711428
v 0.00455801 0.00973060 -0.00683574
v 0.00537072 0.00950116 -0.00683958
v 0.00548556 0.00928509 -0.00722138
v 0.00517712 0.00952650 -0.00692795
v 0.00455801 0.00897964 -0.00535467
v 0.01044946 0.00287834 -0.00423522
v 0.00734583 0.00931113 -0.00523509
v 0.00728473 0.00928227 -0.00540701
v 0.00664722 0.00942444 -0.00580466
v 0.00655225 0.00930128 -0.00622967
v 0.00689383 0.00932309 -0.00578929
v 0.00723246 0.00925271 -0.00554676
v 0.00714559 0.00919359 -0.00578929
v 0.00697260 0.00925412 -0.00586469
v 0.00672378 0.00925975 -0.00613314
v 0.00680034 0.00929705 -0.00596122
v 0.00638735 0.00933576 -0.00631756
v 0.00629975 0.00930198 -0.00648564
v 0.00612381 0.00933224 -0.00657449
v 0.00563574 0.00951242 -0.00659370
v 0.00793696 0.00932450 -0.00423522
v 0.00801941 0.00925905 -0.00430437
v 0.00793475 0.00923230 -0.00453393
v 0.00795610 0.00912533 -0.00478798
v 0.00775807 0.00925834 -0.00477309
v 0.00751735 0.00926890 -0.00511358
v 0.00576457 0.00929424 -0.00698174
v 0.00561513 0.00932169 -0.00704081
v 0.00484143 0.00943993 -0.00735104
v 0.00471187 0.00954339 -0.00722186
v 0.00455801 0.00958210 -0.00723338
v 0.00561513 0.00925905 -0.00716999
v 0.00538250 0.00924638 -0.00736161
v 0.00519184 0.00927242 -0.00745430
v 0.00510350 0.00934702 -0.00736161
v 0.00455801 0.00634670 -0.00866067
v 0.00723540 0.00287834 -0.00869909
v 0.01207783 0.00287834 -0.00423522
v 0.00742754 0.00923934 -0.00530808
v 0.00647201 0.00926538 -0.00640160
v 0.00743785 0.00912251 -0.00555925
v 0.00734951 0.00906480 -0.00580466
v 0.00729798 0.00903172 -0.00594008
v 0.00714633 0.00906832 -0.00604094
v 0.00689383 0.00920556 -0.00605342
v 0.00664206 0.00921541 -0.00631756
v 0.00620479 0.00926116 -0.00665757
v 0.00817253 0.00918233 -0.00423522
v 0.00819535 0.00915981 -0.00425827
v 0.00815707 0.00909225 -0.00451520
v 0.00805548 0.00902116 -0.00488355
v 0.00788028 0.00907747 -0.00503098
v 0.00766974 0.00921260 -0.00502906
v 0.00593609 0.00925623 -0.00690490
v 0.00585880 0.00919782 -0.00707778
v 0.00481934 0.00932450 -0.00760365
v 0.00501958 0.00930198 -0.00751385
v 0.00460880 0.00950960 -0.00735777
v 0.00455801 0.00955394 -0.00729774
v 0.00455801 0.00956661 -0.00726988
v 0.00563353 0.00913025 -0.00737169
v 0.00587352 0.00906902 -0.00728621
v 0.00510350 0.00921964 -0.00760365
v 0.00489075 0.00925694 -0.00768578
v 0.00455801 0.00623268 -0.00889887
v 0.00717062 0.00287834 -0.00889887
v 0.01207120 0.00287834 -0.00425683
v 0.01206163 0.00295998 -0.00423522
v 0.00663838 0.00908521 -0.00656873
v 0.00638735 0.00921682 -0.00657449
v 0.00768078 0.00909506 -0.00528023
v 0.00759612 0.00905776 -0.00548193
v 0.00753428 0.00901764 -0.00565386
v 0.00747834 0.00898316 -0.00580466
v 0.00722142 0.00898597 -0.00611201
v 0.00697260 0.00899160 -0.00638047
v 0.00760275 0.00880650 -0.00600252
v 0.00741723 0.00889588 -0.00605726
v 0.00736349 0.00881424 -0.00627289
v 0.00689383 0.00907817 -0.00630459
v 0.00680034 0.00904228 -0.00647652
v 0.00612381 0.00920767 -0.00682566
v 0.00819829 0.00916544 -0.00423522
v 0.00828001 0.00911125 -0.00423522
v 0.00839779 0.00903102 -0.00423522
v 0.00845374 0.00897471 -0.00428180
v 0.00819167 0.00896345 -0.00478798
v 0.00800910 0.00899090 -0.00503098
v 0.00820566 0.00885506 -0.00503242
v 0.00782801 0.00904157 -0.00518898
v 0.00811585 0.00880580 -0.00528887
v 0.00611130 0.00907113 -0.00707778
v 0.00601118 0.00903242 -0.00723050
v 0.00471849 0.00928790 -0.00774148
v 0.00458378 0.00939277 -0.00760942
v 0.00455801 0.00951383 -0.00737890
v 0.00555992 0.00906198 -0.00753258
v 0.00535453 0.00910280 -0.00761470
v 0.00573218 0.00902257 -0.00747159
v 0.00587352 0.00898879 -0.00741540
v 0.00607522 0.00881002 -0.00753930
v 0.00507405 0.00907324 -0.00785770
v 0.00497099 0.00902820 -0.00799649
v 0.00481934 0.00918585 -0.00784329
v 0.00455801 0.00623549 -0.00892625
v 0.00717872 0.00287834 -0.00895458
v 0.01198434 0.00287834 -0.00451712
v 0.01196814 0.00295575 -0.00451856
v 0.01205280 0.00296701 -0.00425683
v 0.01206016 0.00296631 -0.00423522
v 0.00654710 0.00904368 -0.00673297
v 0.00671936 0.00899653 -0.00664845
v 0.00637558 0.00908028 -0.00682566
v 0.00792297 0.00893741 -0.00528023
v 0.00807094 0.00877342 -0.00542478
v 0.00768078 0.00896627 -0.00555925
v 0.00768519 0.00884943 -0.00580273
v 0.00716841 0.00890292 -0.00632668
v 0.00709922 0.00880932 -0.00657833
v 0.00703885 0.00877342 -0.00671232
v 0.00689383 0.00893741 -0.00656873
v 0.00777427 0.00874316 -0.00588726
v 0.00753576 0.00876005 -0.00617444
v 0.00728841 0.00876709 -0.00644482
v 0.00866943 0.00883606 -0.00423522
v 0.00846920 0.00886773 -0.00452672
v 0.00866354 0.00883254 -0.00425683
v 0.00861349 0.00879524 -0.00444844
v 0.00839558 0.00882339 -0.00477309
v 0.00834700 0.00878891 -0.00494742
v 0.00829915 0.00875020 -0.00511935
v 0.00618344 0.00898738 -0.00715366
v 0.00612896 0.00889870 -0.00734960
v 0.00664722 0.00881213 -0.00703312
v 0.00458378 0.00923160 -0.00790813
v 0.00455801 0.00923653 -0.00791485
v 0.00455801 0.00930972 -0.00778759
v 0.00458378 0.00930691 -0.00777894
v 0.00455801 0.00941037 -0.00758780
v 0.00526693 0.00904580 -0.00776550
v 0.00587720 0.00885718 -0.00761854
v 0.00550176 0.00877835 -0.00800706
v 0.00563353 0.00897471 -0.00761470
v 0.00535453 0.00894515 -0.00785770
v 0.00543845 0.00900638 -0.00770450
v 0.00596554 0.00874949 -0.00771123
v 0.00624748 0.00876146 -0.00746822
v 0.00514252 0.00898949 -0.00793742
v 0.00470966 0.00876850 -0.00851036
v 0.00464340 0.00900146 -0.00821597
v 0.00484143 0.00905354 -0.00803203
v 0.00535747 0.00881213 -0.00805748
v 0.00520509 0.00875864 -0.00823950
v 0.00503357 0.00879594 -0.00828800
v 0.00455801 0.00632840 -0.00908521
v 0.00722731 0.00287834 -0.00907608
v 0.01193722 0.00287834 -0.00465063
v 0.01192029 0.00303388 -0.00460644
v 0.01195047 0.00315071 -0.00443452
v 0.01199170 0.00323094 -0.00423522
v 0.00678414 0.00877483 -0.00697165
v 0.00688426 0.00880791 -0.00681317
v 0.00804738 0.00849612 -0.00590743
v 0.00786261 0.00856017 -0.00606255
v 0.00824467 0.00870234 -0.00528887
v 0.00833964 0.00852779 -0.00544255
v 0.00817547 0.00862421 -0.00551939
v 0.00722804 0.00872064 -0.00657833
v 0.00732153 0.00853553 -0.00673969
v 0.00724424 0.00847501 -0.00691162
v 0.00707198 0.00854187 -0.00700191
v 0.00695640 0.00871360 -0.00688425
v 0.00781402 0.00851724 -0.00619942
v 0.00768519 0.00869952 -0.00607839
v 0.00766532 0.00857073 -0.00629979
v 0.00743858 0.00872064 -0.00634349
v 0.00741282 0.00858551 -0.00656632
v 0.00868710 0.00882269 -0.00423522
v 0.00879826 0.00873471 -0.00423522
v 0.00856711 0.00875935 -0.00462037
v 0.00851852 0.00845671 -0.00528887
v 0.00838896 0.00857354 -0.00528887
v 0.00866649 0.00859184 -0.00477309
v 0.00861422 0.00854328 -0.00496135
v 0.00856564 0.00849823 -0.00513327
v 0.00651692 0.00876920 -0.00722090
v 0.00456758 0.00909154 -0.00812808
v 0.00455801 0.00910069 -0.00811944
v 0.00579328 0.00879454 -0.00777222
v 0.00535747 0.00871289 -0.00818667
v 0.00614884 0.00870586 -0.00761854
v 0.00627251 0.00852075 -0.00774821
v 0.00613191 0.00856721 -0.00780151
v 0.00598541 0.00850175 -0.00798401
v 0.00588971 0.00865237 -0.00787835
v 0.00559746 0.00863055 -0.00811223
v 0.00504829 0.00855313 -0.00855646
v 0.00482303 0.00859114 -0.00864194
v 0.00458378 0.00855313 -0.00881531
v 0.00455801 0.00856017 -0.00882155
v 0.00455801 0.00870656 -0.00865923
v 0.00455801 0.00879805 -0.00854926
v 0.00455801 0.00892122 -0.00837685
v 0.00455801 0.00901764 -0.00823902
v 0.00522055 0.00850809 -0.00850747
v 0.00535747 0.00858410 -0.00833315
v 0.00553710 0.00828568 -0.00854733
v 0.00455801 0.00634177 -0.00908953
v 0.00728325 0.00287834 -0.00909529
v 0.01169429 0.00287834 -0.00520003
v 0.01187465 0.00295575 -0.00475388
v 0.01189600 0.00323165 -0.00451856
v 0.01167074 0.00307399 -0.00514816
v 0.01179441 0.00322531 -0.00477309
v 0.01169503 0.00367153 -0.00468520
v 0.01192471 0.00332244 -0.00435624
v 0.01198213 0.00323165 -0.00426499
v 0.01197182 0.00329710 -0.00423522
v 0.00698069 0.00847360 -0.00717383
v 0.00680917 0.00853553 -0.00725163
v 0.00799217 0.00844756 -0.00606255
v 0.00831682 0.00824838 -0.00592424
v 0.00860760 0.00828005 -0.00545936
v 0.00844417 0.00837718 -0.00553668
v 0.00749379 0.00846797 -0.00664412
v 0.00742460 0.00838492 -0.00683862
v 0.00735466 0.00830257 -0.00702976
v 0.00709922 0.00830187 -0.00728189
v 0.00727148 0.00823712 -0.00720169
v 0.00808345 0.00827020 -0.00621671
v 0.00801867 0.00820967 -0.00638863
v 0.00784641 0.00828639 -0.00649525
v 0.00767121 0.00837718 -0.00656969
v 0.00756962 0.00852779 -0.00647220
v 0.00888071 0.00855172 -0.00446285
v 0.00879237 0.00872979 -0.00425683
v 0.00891531 0.00862421 -0.00423522
v 0.00865839 0.00832791 -0.00528887
v 0.00909861 0.00825542 -0.00464678
v 0.00872170 0.00839477 -0.00505259
v 0.00644404 0.00845952 -0.00767233
v 0.00637042 0.00857354 -0.00759549
v 0.00552016 0.00853342 -0.00827792
v 0.00629239 0.00827583 -0.00802051
v 0.00656403 0.00828709 -0.00777894
v 0.00636895 0.00836803 -0.00784954
v 0.00613191 0.00845600 -0.00793022
v 0.00610541 0.00831243 -0.00811367
v 0.00600235 0.00825401 -0.00825390
v 0.00587352 0.00829413 -0.00830001
v 0.00569242 0.00847993 -0.00821693
v 0.00489590 0.00847360 -0.00872839
v 0.00458378 0.00843419 -0.00894402
v 0.00455801 0.00844052 -0.00895074
v 0.00523159 0.00825542 -0.00877161
v 0.00509982 0.00829061 -0.00880907
v 0.00512043 0.00843559 -0.00864194
v 0.00533318 0.00832299 -0.00863618
v 0.00540312 0.00820193 -0.00871926
v 0.00561439 0.00838281 -0.00838261
v 0.00570936 0.00822938 -0.00848682
v 0.00455801 0.00657684 -0.00913611
v 0.00742092 0.00287834 -0.00913275
v 0.01169135 0.00290226 -0.00519426
v 0.01153823 0.00287834 -0.00554676
v 0.01151835 0.00296701 -0.00554676
v 0.01163319 0.00297968 -0.00528359
v 0.01166779 0.00384396 -0.00462181
v 0.01164791 0.00401569 -0.00452720
v 0.01142118 0.00310566 -0.00568171
v 0.01145431 0.00320490 -0.00554052
v 0.01168325 0.00337522 -0.00491668
v 0.01139173 0.00404243 -0.00510062
v 0.01155295 0.00399880 -0.00477309
v 0.01190557 0.00350965 -0.00423522
v 0.01167147 0.00411352 -0.00437256
v 0.01174803 0.00401358 -0.00423522
v 0.00683273 0.00829483 -0.00753066
v 0.00690708 0.00838422 -0.00735248
v 0.00854944 0.00822445 -0.00563129
v 0.00857447 0.00799009 -0.00592520
v 0.00826749 0.00819841 -0.00606255
v 0.00882991 0.00824416 -0.00514336
v 0.00878722 0.00819771 -0.00528887
v 0.00870550 0.00812029 -0.00553908
v 0.00863189 0.00805272 -0.00575327
v 0.00760127 0.00829554 -0.00676563
v 0.00752619 0.00823290 -0.00693803
v 0.00700425 0.00823079 -0.00745382
v 0.00727663 0.00798164 -0.00746486
v 0.00710437 0.00805906 -0.00754698
v 0.00744447 0.00814914 -0.00711813
v 0.00753428 0.00798164 -0.00720649
v 0.00736276 0.00806469 -0.00729293
v 0.00833890 0.00801401 -0.00621286
v 0.00810259 0.00803724 -0.00649813
v 0.00803487 0.00796545 -0.00667054
v 0.00794064 0.00813014 -0.00658265
v 0.00777280 0.00822234 -0.00666718
v 0.00892930 0.00860099 -0.00425683
v 0.00913027 0.00828850 -0.00451520
v 0.00906328 0.00847993 -0.00423522
v 0.00931799 0.00821249 -0.00425683
v 0.00927234 0.00812170 -0.00452864
v 0.00934449 0.00798445 -0.00462373
v 0.00915971 0.00811959 -0.00474860
v 0.00617461 0.00818997 -0.00819243
v 0.00646465 0.00821460 -0.00795087
v 0.00657360 0.00804217 -0.00804020
v 0.00637631 0.00811607 -0.00811607
v 0.00673629 0.00822304 -0.00770258
v 0.00481566 0.00837014 -0.00888447
v 0.00473690 0.00826668 -0.00903911
v 0.00455801 0.00832932 -0.00905543
v 0.00511970 0.00812873 -0.00895314
v 0.00490916 0.00821741 -0.00899252
v 0.00533318 0.00811959 -0.00883740
v 0.00561954 0.00812944 -0.00864338
v 0.00552900 0.00802950 -0.00879994
v 0.00628797 0.00801824 -0.00827359
v 0.00582272 0.00805695 -0.00856702
v 0.00455801 0.00660288 -0.00914044
v 0.00742092 0.00296701 -0.00913996
v 0.00750925 0.00287834 -0.00914044
v 0.01148670 0.00287834 -0.00566058
v 0.01143958 0.00296701 -0.00571917
v 0.01146756 0.00425005 -0.00477165
v 0.01156988 0.00425709 -0.00451520
v 0.01137480 0.00296701 -0.00584836
v 0.01133873 0.00320490 -0.00578256
v 0.01119297 0.00374120 -0.00574078
v 0.01116794 0.00389604 -0.00569276
v 0.01139468 0.00327739 -0.00562264
v 0.01143001 0.00415997 -0.00492869
v 0.01120549 0.00398894 -0.00554724
v 0.01114070 0.00406847 -0.00563369
v 0.01165381 0.00429580 -0.00423522
v 0.01167515 0.00423316 -0.00423522
v 0.01171638 0.00411070 -0.00423522
v 0.00863483 0.00780217 -0.00606255
v 0.00834994 0.00777050 -0.00648660
v 0.00827485 0.00794223 -0.00638479
v 0.00880415 0.00795630 -0.00561880
v 0.00887777 0.00778457 -0.00573454
v 0.00882035 0.00771701 -0.00590647
v 0.00913910 0.00727220 -0.00599147
v 0.00885568 0.00801683 -0.00544687
v 0.00912438 0.00802950 -0.00495126
v 0.00769550 0.00814211 -0.00685447
v 0.00778826 0.00797812 -0.00694284
v 0.00761673 0.00806117 -0.00703456
v 0.00701235 0.00797742 -0.00771891
v 0.00684082 0.00805061 -0.00779671
v 0.00727589 0.00746504 -0.00798016
v 0.00719050 0.00789366 -0.00763487
v 0.00744889 0.00789577 -0.00737938
v 0.00753576 0.00772405 -0.00746582
v 0.00753649 0.00746716 -0.00772419
v 0.00753723 0.00720886 -0.00798305
v 0.00787586 0.00780569 -0.00703504
v 0.00779194 0.00772334 -0.00720697
v 0.00762115 0.00780921 -0.00729389
v 0.00811511 0.00779372 -0.00677187
v 0.00804812 0.00772053 -0.00694380
v 0.00795536 0.00788592 -0.00685735
v 0.00786261 0.00805061 -0.00677091
v 0.00918916 0.00834621 -0.00425683
v 0.00932240 0.00821812 -0.00423522
v 0.00919358 0.00835114 -0.00423522
v 0.00943209 0.00808791 -0.00423522
v 0.00938498 0.00803372 -0.00445181
v 0.00958815 0.00770927 -0.00459108
v 0.00965735 0.00753754 -0.00472747
v 0.00955356 0.00761777 -0.00479710
v 0.00930326 0.00793519 -0.00477309
v 0.00665458 0.00813225 -0.00787403
v 0.00674586 0.00797038 -0.00796864
v 0.00645950 0.00794997 -0.00821212
v 0.00665605 0.00787396 -0.00813240
v 0.00521981 0.00798938 -0.00902278
v 0.00504829 0.00804569 -0.00906072
v 0.00458378 0.00830539 -0.00906456
v 0.00455801 0.00831384 -0.00906600
v 0.00535747 0.00794434 -0.00898244
v 0.00570126 0.00796264 -0.00873943
v 0.00560924 0.00786270 -0.00889455
v 0.00551648 0.00776205 -0.00904535
v 0.00627619 0.00775149 -0.00852332
v 0.00613191 0.00766563 -0.00870389
v 0.00636821 0.00785073 -0.00836772
v 0.00455801 0.00683584 -0.00914092
v 0.00767931 0.00287834 -0.00914092
v 0.01144547 0.00287834 -0.00574751
v 0.01138511 0.00287834 -0.00586949
v 0.01143737 0.00443023 -0.00468424
v 0.01118046 0.00417616 -0.00546176
v 0.01139689 0.00433170 -0.00485665
v 0.01146829 0.00451539 -0.00451232
v 0.01157577 0.00449357 -0.00423522
v 0.01131297 0.00287834 -0.00600012
v 0.01118046 0.00290649 -0.00622631
v 0.01124082 0.00298179 -0.00608320
v 0.01120770 0.00322531 -0.00601452
v 0.01117825 0.00341182 -0.00596458
v 0.01115101 0.00358425 -0.00591703
v 0.01112672 0.00374120 -0.00586949
v 0.01108844 0.00398894 -0.00578881
v 0.01092354 0.00417686 -0.00596794
v 0.01097213 0.00425991 -0.00581282
v 0.01110537 0.00425991 -0.00554724
v 0.00863925 0.00759455 -0.00629835
v 0.00877397 0.00762270 -0.00608176
v 0.00828663 0.00769660 -0.00665853
v 0.00904929 0.00768393 -0.00559431
v 0.00912217 0.00751150 -0.00571581
v 0.00906548 0.00744463 -0.00588774
v 0.00921640 0.00734047 -0.00579121
v 0.00931062 0.00716522 -0.00586613
v 0.00908463 0.00694915 -0.00643330
v 0.00885053 0.00697871 -0.00672336
v 0.00877765 0.00715115 -0.00662443
v 0.00902941 0.00791618 -0.00528887
v 0.00930105 0.00741578 -0.00554676
v 0.00701382 0.00771912 -0.00797680
v 0.00692696 0.00788803 -0.00788652
v 0.00710363 0.00754669 -0.00805604
v 0.00736497 0.00729261 -0.00805941
v 0.00770728 0.00763818 -0.00737986
v 0.00779341 0.00746575 -0.00746582
v 0.00804812 0.00746082 -0.00720361
v 0.00770286 0.00712018 -0.00789180
v 0.00778531 0.00693860 -0.00797200
v 0.00761379 0.00703713 -0.00805748
v 0.00752177 0.00693226 -0.00822941
v 0.00744374 0.00711666 -0.00814441
v 0.00726411 0.00719619 -0.00823133
v 0.00796199 0.00763607 -0.00711909
v 0.00787586 0.00755161 -0.00729389
v 0.00820639 0.00762270 -0.00685063
v 0.00829694 0.00745026 -0.00692939
v 0.00812541 0.00754880 -0.00703168
v 0.00955944 0.00793167 -0.00423522
v 0.00966030 0.00779724 -0.00425683
v 0.00962717 0.00775642 -0.00441915
v 0.00969711 0.00761777 -0.00450895
v 0.00983624 0.00743267 -0.00451520
v 0.00988998 0.00725109 -0.00468136
v 0.00975158 0.00736510 -0.00479038
v 0.00961098 0.00747912 -0.00489939
v 0.00684156 0.00779865 -0.00805268
v 0.00656550 0.00777824 -0.00828944
v 0.00626442 0.00748405 -0.00877305
v 0.00673776 0.00770434 -0.00822509
v 0.00535747 0.00781554 -0.00906936
v 0.00511970 0.00788874 -0.00909289
v 0.00483039 0.00812873 -0.00907704
v 0.00458378 0.00812522 -0.00912123
v 0.00455801 0.00814985 -0.00911739
v 0.00568874 0.00769519 -0.00898868
v 0.00597143 0.00745589 -0.00900597
v 0.00625264 0.00721519 -0.00902230
v 0.00579917 0.00752346 -0.00905639
v 0.00560777 0.00760932 -0.00907848
v 0.00615252 0.00736229 -0.00896179
v 0.00455801 0.00789296 -0.00914092
v 0.00870919 0.00287834 -0.00914092
v 0.01114439 0.00434859 -0.00538348
v 0.01136008 0.00451539 -0.00477165
v 0.01123714 0.00478565 -0.00478750
v 0.01112451 0.00504888 -0.00478750
v 0.01119150 0.00497498 -0.00471114
v 0.01115469 0.00514741 -0.00463046
v 0.01140057 0.00460196 -0.00459684
v 0.01143222 0.00467656 -0.00442491
v 0.01155958 0.00451469 -0.00425683
v 0.01146240 0.00475891 -0.00423522
v 0.01119960 0.00287834 -0.00620278
v 0.01091912 0.00287834 -0.00669215
v 0.01115469 0.00307822 -0.00618261
v 0.01113261 0.00322531 -0.00614371
v 0.01101850 0.00374120 -0.00606255
v 0.01094489 0.00397346 -0.00605726
v 0.01068944 0.00423457 -0.00631227
v 0.01040161 0.00467867 -0.00647412
v 0.01064086 0.00489333 -0.00592760
v 0.01088599 0.00434859 -0.00590455
v 0.01062981 0.00382355 -0.00668254
v 0.01059595 0.00399880 -0.00662732
v 0.01040676 0.00391856 -0.00699326
v 0.01046271 0.00400231 -0.00684535
v 0.01064674 0.00413322 -0.00645347
v 0.01093164 0.00445486 -0.00573262
v 0.01089483 0.00462659 -0.00566058
v 0.01098243 0.00453017 -0.00556357
v 0.00853251 0.00742422 -0.00664124
v 0.00936510 0.00723631 -0.00569420
v 0.00941516 0.00708499 -0.00579025
v 0.00937467 0.00699279 -0.00596266
v 0.00923112 0.00684288 -0.00632764
v 0.00904414 0.00659514 -0.00685351
v 0.00885642 0.00673027 -0.00698654
v 0.00878722 0.00690200 -0.00689529
v 0.00869667 0.00707795 -0.00681797
v 0.00692254 0.00762551 -0.00814057
v 0.00718387 0.00737144 -0.00814393
v 0.00795389 0.00711385 -0.00762766
v 0.00779046 0.00720323 -0.00772035
v 0.00820934 0.00736933 -0.00711092
v 0.00861569 0.00700546 -0.00700431
v 0.00853766 0.00691537 -0.00717624
v 0.00819903 0.00684077 -0.00761422
v 0.00803045 0.00666622 -0.00795855
v 0.00810407 0.00649450 -0.00803395
v 0.00785893 0.00676687 -0.00804596
v 0.00769108 0.00684992 -0.00813769
v 0.00776764 0.00665989 -0.00821789
v 0.00759612 0.00676053 -0.00829425
v 0.00732669 0.00674505 -0.00854205
v 0.00705505 0.00672816 -0.00878794
v 0.00735024 0.00702376 -0.00830337
v 0.00716915 0.00709977 -0.00838789
v 0.00681285 0.00725742 -0.00854109
v 0.00672304 0.00742915 -0.00846905
v 0.00700204 0.00745026 -0.00822797
v 0.00854134 0.00717719 -0.00691258
v 0.00836982 0.00727854 -0.00701775
v 0.00966324 0.00780428 -0.00423522
v 0.00967502 0.00778950 -0.00423522
v 0.00980826 0.00762129 -0.00423522
v 0.00980311 0.00760721 -0.00427604
v 0.00986568 0.00747490 -0.00437449
v 0.00992679 0.00730387 -0.00451520
v 0.00980679 0.00709766 -0.00504395
v 0.00962791 0.00724405 -0.00518946
v 0.01012187 0.00695478 -0.00462805
v 0.01030811 0.00657473 -0.00477741
v 0.01008432 0.00690130 -0.00477309
v 0.00655078 0.00751009 -0.00853773
v 0.00682978 0.00753191 -0.00829713
v 0.00535747 0.00760932 -0.00912603
v 0.00455801 0.00812522 -0.00912315
v 0.00484143 0.00786762 -0.00913756
v 0.00608038 0.00728417 -0.00906456
v 0.00653311 0.00723631 -0.00878169
v 0.00677752 0.00670775 -0.00902854
v 0.00634245 0.00704346 -0.00906552
v 0.00588014 0.00736229 -0.00909001
v 0.00509982 0.00760932 -0.00914092
v 0.00870919 0.00296701 -0.00914092
v 0.00879752 0.00287834 -0.00912795
v 0.01093016 0.00503058 -0.00521876
v 0.01090219 0.00515937 -0.00516017
v 0.01112451 0.00529943 -0.00453249
v 0.01114954 0.00539374 -0.00435624
v 0.01118635 0.00522131 -0.00445853
v 0.01102586 0.00528817 -0.00477309
v 0.01145651 0.00476665 -0.00424290
v 0.01123125 0.00529873 -0.00423522
v 0.01089262 0.00287834 -0.00673777
v 0.01088231 0.00303247 -0.00667342
v 0.01084772 0.00374120 -0.00635550
v 0.01090219 0.00387000 -0.00619173
v 0.01036995 0.00409029 -0.00693803
v 0.01012481 0.00463504 -0.00695868
v 0.01017413 0.00477228 -0.00678147
v 0.01036406 0.00485040 -0.00641361
v 0.01041706 0.00496723 -0.00624168
v 0.01048111 0.00504395 -0.00607936
v 0.01061067 0.00503058 -0.00587237
v 0.01067987 0.00503058 -0.00574366
v 0.01073729 0.00479339 -0.00582675
v 0.01063276 0.00331892 -0.00694572
v 0.01057313 0.00373909 -0.00682229
v 0.01043694 0.00374120 -0.00703648
v 0.01034345 0.00374120 -0.00716519
v 0.00990249 0.00369194 -0.00778182
v 0.00980900 0.00376302 -0.00786731
v 0.00986789 0.00386366 -0.00773476
v 0.01016383 0.00399880 -0.00726940
v 0.01009757 0.00431269 -0.00718152
v 0.01064969 0.00516993 -0.00568603
v 0.01086980 0.00479339 -0.00556357
v 0.00958227 0.00718000 -0.00536139
v 0.00954030 0.00709414 -0.00555493
v 0.00959699 0.00694282 -0.00564665
v 0.00988851 0.00647479 -0.00570669
v 0.00960582 0.00669719 -0.00592280
v 0.00983771 0.00640159 -0.00587861
v 0.00966545 0.00652546 -0.00601164
v 0.00960729 0.00644171 -0.00618357
v 0.00966692 0.00626998 -0.00627097
v 0.00943062 0.00631502 -0.00657209
v 0.00923259 0.00633051 -0.00684631
v 0.00931872 0.00614048 -0.00691258
v 0.00908683 0.00643608 -0.00695148
v 0.00884390 0.00645719 -0.00722858
v 0.00878280 0.00662822 -0.00715847
v 0.00835289 0.00648605 -0.00777270
v 0.00861054 0.00674294 -0.00725596
v 0.00869888 0.00682247 -0.00708163
v 0.00937909 0.00596875 -0.00699470
v 0.00819314 0.00657614 -0.00786539
v 0.00801278 0.00638752 -0.00820636
v 0.00827633 0.00638752 -0.00794463
v 0.00817989 0.00630165 -0.00811031
v 0.00784126 0.00648816 -0.00828320
v 0.00736202 0.00632065 -0.00883116
v 0.00703149 0.00644664 -0.00902614
v 0.00696892 0.00657754 -0.00897523
v 0.00985538 0.00755936 -0.00423522
v 0.01015720 0.00700616 -0.00445613
v 0.00996286 0.00741015 -0.00423522
v 0.01000335 0.00735314 -0.00423522
v 0.00999819 0.00735032 -0.00425442
v 0.01041486 0.00674787 -0.00425683
v 0.01038835 0.00670986 -0.00439177
v 0.01035302 0.00665919 -0.00456370
v 0.00964263 0.00700827 -0.00547473
v 0.01041118 0.00648675 -0.00469433
v 0.01015058 0.00648042 -0.00520195
v 0.00615252 0.00711455 -0.00909529
v 0.00561513 0.00735173 -0.00913419
v 0.00587352 0.00709414 -0.00914044
v 0.00683935 0.00657754 -0.00905639
v 0.00664722 0.00676898 -0.00905639
v 0.00664722 0.00657754 -0.00911306
v 0.00613191 0.00683584 -0.00914092
v 0.00870919 0.00322531 -0.00913179
v 0.00845227 0.00348291 -0.00914092
v 0.00819461 0.00425709 -0.00913804
v 0.00845227 0.00374120 -0.00913756
v 0.00897420 0.00287834 -0.00908185
v 0.01077557 0.00503058 -0.00554676
v 0.01093458 0.00547679 -0.00477309
v 0.01098979 0.00556688 -0.00453393
v 0.01110390 0.00554295 -0.00426499
v 0.01113113 0.00551128 -0.00423522
v 0.01120622 0.00535503 -0.00423522
v 0.01122095 0.00529943 -0.00426499
v 0.01090293 0.00541837 -0.00490324
v 0.01074318 0.00287834 -0.00697549
v 0.01068723 0.00296701 -0.00702640
v 0.01082195 0.00295435 -0.00681701
v 0.01006665 0.00453510 -0.00709459
v 0.00988851 0.00468290 -0.00724635
v 0.00995697 0.00477087 -0.00710228
v 0.00991427 0.00498272 -0.00702256
v 0.01009389 0.00477228 -0.00691018
v 0.01014027 0.00492501 -0.00672625
v 0.01043105 0.00524101 -0.00600444
v 0.01037658 0.00513896 -0.00617637
v 0.01066000 0.00314649 -0.00698750
v 0.01037290 0.00356807 -0.00720361
v 0.01013733 0.00363634 -0.00749272
v 0.00984360 0.00348291 -0.00795999
v 0.00966619 0.00374120 -0.00805989
v 0.00963085 0.00391152 -0.00801762
v 0.00959331 0.00408396 -0.00797152
v 0.00965514 0.00425709 -0.00779383
v 0.00992531 0.00451469 -0.00729438
v 0.01051718 0.00529169 -0.00580802
v 0.01043179 0.00550002 -0.00575759
v 0.01038394 0.00567174 -0.00567163
v 0.01060405 0.00534166 -0.00559335
v 0.00982888 0.00664652 -0.00559623
v 0.00992090 0.00656769 -0.00552467
v 0.01010567 0.00641426 -0.00537388
v 0.01006665 0.00632488 -0.00555925
v 0.01011671 0.00617145 -0.00565338
v 0.00994077 0.00631784 -0.00579745
v 0.00989587 0.00622986 -0.00597274
v 0.00975232 0.00633543 -0.00607791
v 0.00960803 0.00618552 -0.00644290
v 0.00943209 0.00605743 -0.00682998
v 0.00889175 0.00632065 -0.00728429
v 0.00864072 0.00629884 -0.00759597
v 0.00859876 0.00647408 -0.00750136
v 0.00907505 0.00616159 -0.00719785
v 0.00955503 0.00596594 -0.00673969
v 0.00960803 0.00592652 -0.00670031
v 0.00956607 0.00582588 -0.00685063
v 0.00960067 0.00565485 -0.00694668
v 0.00941810 0.00578576 -0.00708595
v 0.00936142 0.00568723 -0.00723146
v 0.00911996 0.00571116 -0.00750952
v 0.00914425 0.00596594 -0.00727516
v 0.00808345 0.00621508 -0.00827167
v 0.00791487 0.00629461 -0.00836340
v 0.00833964 0.00621579 -0.00801474
v 0.00754753 0.00618834 -0.00876729
v 0.00744889 0.00609544 -0.00892337
v 0.00727663 0.00617426 -0.00901509
v 0.00735098 0.00600253 -0.00906312
v 0.00710437 0.00627491 -0.00906552
v 0.01017266 0.00710892 -0.00423522
v 0.01041780 0.00675490 -0.00423522
v 0.01042958 0.00673731 -0.00423522
v 0.01054736 0.00655502 -0.00423618
v 0.01043768 0.00657473 -0.00449263
v 0.01061656 0.00639948 -0.00430917
v 0.01058270 0.00631643 -0.00452048
v 0.01063055 0.00616722 -0.00460981
v 0.01046271 0.00632699 -0.00477741
v 0.01036774 0.00641778 -0.00486626
v 0.00692990 0.00634458 -0.00909577
v 0.00717946 0.00607784 -0.00909433
v 0.00742092 0.00554647 -0.00913323
v 0.00716326 0.00580406 -0.00913900
v 0.00700204 0.00596594 -0.00914044
v 0.00690561 0.00606236 -0.00914092
v 0.00890427 0.00322531 -0.00907512
v 0.00845227 0.00399880 -0.00911402
v 0.00767931 0.00503058 -0.00914092
v 0.00793696 0.00477228 -0.00913467
v 0.00901469 0.00287834 -0.00906600
v 0.01089777 0.00566752 -0.00463286
v 0.01059816 0.00607362 -0.00478846
v 0.01067840 0.00599479 -0.00471306
v 0.01093090 0.00572735 -0.00446093
v 0.01088379 0.00589978 -0.00433415
v 0.01096918 0.00580828 -0.00423522
v 0.01064601 0.00542049 -0.00542142
v 0.01051497 0.00554647 -0.00554676
v 0.01060773 0.00560911 -0.00528887
v 0.01058638 0.00596594 -0.00493301
v 0.01069386 0.00287834 -0.00705089
v 0.01060773 0.00287834 -0.00717287
v 0.01059521 0.00296701 -0.00715558
v 0.00984802 0.00485533 -0.00719448
v 0.00958521 0.00458014 -0.00770306
v 0.00981415 0.00505380 -0.00710228
v 0.00986789 0.00515515 -0.00696060
v 0.01000482 0.00504043 -0.00684343
v 0.01009463 0.00509673 -0.00665517
v 0.01020432 0.00528606 -0.00632188
v 0.01034492 0.00531140 -0.00607936
v 0.01038394 0.00541274 -0.00592952
v 0.01045240 0.00294801 -0.00735825
v 0.01006813 0.00299235 -0.00786298
v 0.00986568 0.00334003 -0.00799025
v 0.00969931 0.00347305 -0.00813720
v 0.00959110 0.00355188 -0.00823133
v 0.00955356 0.00374120 -0.00818907
v 0.00942767 0.00425709 -0.00808102
v 0.00938498 0.00445205 -0.00803251
v 0.00955576 0.00425709 -0.00792254
v 0.01016530 0.00599972 -0.00574174
v 0.01021609 0.00607643 -0.00555925
v 0.01027499 0.00596594 -0.00556357
v 0.01007843 0.00607643 -0.00581858
v 0.01037437 0.00616934 -0.00513471
v 0.01011745 0.00591245 -0.00591367
v 0.00994225 0.00605743 -0.00606015
v 0.00959846 0.00596594 -0.00667582
v 0.00956975 0.00608488 -0.00660042
v 0.00852220 0.00606236 -0.00792734
v 0.00896905 0.00580617 -0.00761086
v 0.00974569 0.00581180 -0.00658505
v 0.00989071 0.00596594 -0.00622343
v 0.00983550 0.00586951 -0.00639440
v 0.00991722 0.00552606 -0.00656440
v 0.00964778 0.00548242 -0.00701103
v 0.00953957 0.00555984 -0.00709555
v 0.00940117 0.00554647 -0.00728045
v 0.00910008 0.00542260 -0.00774196
v 0.00885862 0.00544934 -0.00801906
v 0.00880268 0.00562177 -0.00795423
v 0.00887556 0.00572946 -0.00778230
v 0.00779046 0.00590893 -0.00875384
v 0.00752250 0.00589907 -0.00900405
v 0.00761894 0.00601661 -0.00883212
v 0.00781623 0.00620171 -0.00851996
v 0.00826676 0.00606236 -0.00819772
v 0.00826087 0.00596594 -0.00827071
v 0.00813793 0.00606236 -0.00832306
v 0.00839338 0.00606236 -0.00806901
v 0.00855533 0.00596594 -0.00796624
v 0.00857079 0.00592019 -0.00798497
v 0.00863042 0.00574776 -0.00804884
v 0.00749821 0.00596594 -0.00897619
v 0.00741135 0.00596594 -0.00904247
v 0.00758802 0.00572735 -0.00905543
v 0.00736644 0.00596594 -0.00906792
v 0.01054736 0.00655432 -0.00423522
v 0.01068944 0.00631573 -0.00423522
v 0.01066441 0.00622775 -0.00443788
v 0.01084551 0.00603350 -0.00423522
v 0.01071742 0.00607362 -0.00452048
v 0.00743049 0.00580969 -0.00908809
v 0.00767931 0.00528817 -0.00912027
v 0.00867164 0.00374120 -0.00908089
v 0.00861864 0.00399880 -0.00905735
v 0.00886967 0.00342660 -0.00905303
v 0.00909051 0.00287834 -0.00902230
v 0.00905223 0.00287834 -0.00904535
v 0.00845521 0.00423950 -0.00907464
v 0.00819461 0.00451469 -0.00911018
v 0.00795316 0.00504254 -0.00909049
v 0.01043252 0.00596594 -0.00524469
v 0.01040823 0.00287834 -0.00744757
v 0.00934449 0.00462378 -0.00798449
v 0.00960729 0.00489193 -0.00747399
v 0.00967208 0.00503058 -0.00729726
v 0.00958153 0.00536066 -0.00718296
v 0.01010273 0.00536981 -0.00640880
v 0.01007107 0.00581743 -0.00607071
v 0.01015499 0.00292268 -0.00777414
v 0.01007770 0.00287834 -0.00789708
v 0.00989292 0.00316830 -0.00802435
v 0.00962128 0.00338015 -0.00826399
v 0.00979133 0.00324220 -0.00811607
v 0.00937173 0.00339915 -0.00853053
v 0.00912143 0.00341464 -0.00879754
v 0.00942399 0.00374120 -0.00832834
v 0.00938277 0.00393616 -0.00828416
v 0.00934596 0.00410789 -0.00824526
v 0.00931357 0.00425709 -0.00820972
v 0.00913689 0.00446683 -0.00829761
v 0.00924069 0.00454495 -0.00814201
v 0.01005267 0.00596594 -0.00596794
v 0.00943062 0.00501791 -0.00760846
v 0.00907800 0.00512629 -0.00797344
v 0.00903309 0.00528817 -0.00791725
v 0.00878354 0.00528817 -0.00819820
v 0.00860539 0.00545356 -0.00827792
v 0.00870403 0.00553732 -0.00811992
v 0.00912585 0.00495457 -0.00802915
v 0.00890427 0.00528817 -0.00806901
v 0.00795242 0.00582588 -0.00865539
v 0.00776028 0.00560629 -0.00898244
v 0.00768888 0.00581814 -0.00890704
v 0.00831608 0.00592230 -0.00824670
v 0.00826455 0.00528817 -0.00871302
v 0.00792150 0.00552395 -0.00888399
v 0.00847362 0.00583503 -0.00814777
v 0.00854650 0.00562600 -0.00822077
v 0.00767636 0.00553028 -0.00907272
v 0.00781991 0.00543456 -0.00903766
v 0.00810480 0.00496512 -0.00905687
v 0.00786923 0.00528817 -0.00906360
v 0.00858698 0.00414167 -0.00903430
v 0.00835951 0.00451469 -0.00905351
v 0.00882991 0.00359903 -0.00902182
v 0.00897788 0.00350683 -0.00890944
v 0.00903383 0.00322531 -0.00896227
v 0.00915382 0.00322531 -0.00883356
v 0.00912659 0.00287834 -0.00898340
v 0.00909419 0.00463856 -0.00825150
v 0.00917591 0.00477228 -0.00808342
v 0.00930473 0.00477228 -0.00793406
v 0.00998126 0.00287834 -0.00802291
v 0.00993194 0.00287834 -0.00808534
v 0.00981489 0.00296701 -0.00819099
v 0.00982888 0.00287834 -0.00820684
v 0.00964631 0.00322531 -0.00829088
v 0.00940044 0.00322531 -0.00856222
v 0.00930326 0.00374120 -0.00845753
v 0.00918548 0.00425709 -0.00834851
v 0.00906328 0.00425709 -0.00847722
v 0.00888365 0.00446823 -0.00855838
v 0.00882697 0.00513826 -0.00824238
v 0.00831387 0.00514178 -0.00876008
v 0.00865471 0.00528817 -0.00832834
v 0.00905665 0.00477228 -0.00821260
v 0.00804959 0.00513685 -0.00901413
v 0.00813499 0.00528817 -0.00883548
v 0.00799806 0.00528817 -0.00896467
v 0.00827706 0.00481592 -0.00898003
v 0.00832418 0.00464419 -0.00902806
v 0.00854208 0.00431340 -0.00898916
v 0.00874747 0.00399880 -0.00893105
v 0.00917591 0.00294309 -0.00890752
v 0.00938056 0.00287834 -0.00870341
v 0.00862747 0.00447035 -0.00881723
v 0.00985759 0.00287834 -0.00817322
v 0.00970226 0.00287834 -0.00834851
v 0.00820934 0.00505310 -0.00891088
f 1 2 7
f 1 7 23
f 1 23 39
f 1 39 24
f 1 24 8
f 1 8 3
f 1 3 4
f 1 4 5
f 1 5 2
f 2 5 6
f 2 6 7
f 3 8 4
f 4 9 10
f 4 10 11
f 4 11 12
f 4 12 5
f 4 8 9
f 5 12 13
f 5 13 14
f 5 14 15
f 5 15 16
f 5 16 17
f 5 17 18
f 5 18 6
f 6 19 20
f 6 20 7
f 6 18 21
f 6 21 22
f 6 22 19
f 7 20 23
f 8 24 25
f 8 25 9
f 9 25 26
f 9 26 41
f 9 41 56
f 9 56 77
f 9 77 98
f 9 98 118
f 9 118 142
f 9 142 144
f 9 144 175
f 9 175 207
f 9 207 237
f 9 237 279
f 9 279 329
f 9 329 387
f 9 387 444
f 9 444 446
f 9 446 508
f 9 508 507
f 9 507 506
f 9 506 568
f 9 568 645
f 9 645 727
f 9 727 807
f 9 807 806
f 9 806 890
f 9 890 956
f 9 956 954
f 9 954 953
f 9 953 866
f 9 866 865
f 9 865 864
f 9 864 782
f 9 782 781
f 9 781 779
f 9 779 698
f 9 698 697
f 9 697 696
f 9 696 611
f 9 611 539
f 9 539 537
f 9 537 538
f 9 538 471
f 9 471 406
f 9 406 348
f 9 348 347
f 9 347 294
f 9 294 254
f 9 254 253
f 9 253 252
f 9 252 217
f 9 217 190
f 9 190 155
f 9 155 154
f 9 154 128
f 9 128 127
f 9 127 120
f 9 120 100
f 9 100 79
f 9 79 59
f 9 59 58
f 9 58 42
f 9 42 27
f 9 27 13
f 9 13 11
f 9 11 10
f 11 13 12
f 13 27 14
f 14 27 28
f 14 28 15
f 15 28 29
f 15 29 16
f 16 29 30
f 16 30 31
f 16 31 32
f 16 32 17
f 17 32 18
f 18 32 21
f 19 22 33
f 19 33 20
f 20 34 35
f 20 35 23
f 20 33 34
f 21 32 22
f 22 32 36
f 22 36 37
f 22 37 38
f 22 38 33
f 23 35 39
f 24 39 35
f 24 35 49
f 24 49 70
f 24 70 87
f 24 87 97
f 24 97 96
f 24 96 117
f 24 117 140
f 24 140 170
f 24 170 169
f 24 169 200
f 24 200 229
f 24 229 228
f 24 228 265
f 24 265 308
f 24 308 306
f 24 306 305
f 24 305 357
f 24 357 373
f 24 373 372
f 24 372 371
f 24 371 370
f 24 370 369
f 24 369 423
f 24 423 483
f 24 483 552
f 24 552 627
f 24 627 710
f 24 710 634
f 24 634 560
f 24 560 491
f 24 491 431
f 24 431 377
f 24 377 324
f 24 324 274
f 24 274 234
f 24 234 205
f 24 205 174
f 24 174 143
f 24 143 119
f 24 119 99
f 24 99 78
f 24 78 57
f 24 57 55
f 24 55 40
f 24 40 25
f 25 40 26
f 26 40 41
f 27 42 28
f 28 42 58
f 28 58 43
f 28 43 29
f 29 43 30
f 30 44 31
f 30 43 45
f 30 45 46
f 30 46 44
f 31 44 47
f 31 47 36
f 31 36 32
f 33 38 48
f 33 48 35
f 33 35 34
f 35 48 50
f 35 50 49
f 36 47 51
f 36 51 37
f 37 51 52
f 37 52 53
f 37 53 54
f 37 54 38
f 38 54 48
f 40 55 41
f 41 55 57
f 41 57 56
f 43 58 59
f 43 59 60
f 43 60 45
f 44 46 61
f 44 61 62
f 44 62 63
f 44 63 64
f 44 64 47
f 45 60 46
f 46 60 65
f 46 65 66
f 46 66 67
f 46 67 68
f 46 68 61
f 47 64 69
f 47 69 51
f 48 54 50
f 49 50 71
f 49 71 70
f 50 54 71
f 51 72 52
f 51 69 73
f 51 73 72
f 52 72 74
f 52 74 53
f 53 74 75
f 53 75 54
f 54 75 76
f 54 76 71
f 56 57 78
f 56 78 77
f 59 79 60
f 60 79 80
f 60 80 65
f 61 68 81
f 61 81 62
f 62 81 82
f 62 82 63
f 63 83 84
f 63 84 64
f 63 82 83
f 64 84 69
f 65 80 66
f 66 80 85
f 66 85 67
f 67 85 86
f 67 86 68
f 68 86 81
f 69 84 73
f 70 71 87
f 71 76 87
f 72 73 88
f 72 88 89
f 72 89 90
f 72 90 74
f 73 84 91
f 73 91 88
f 74 92 93
f 74 93 75
f 74 90 92
f 75 93 94
f 75 94 95
f 75 95 76
f 76 95 96
f 76 96 97
f 76 97 87
f 77 78 99
f 77 99 98
f 79 100 101
f 79 101 80
f 80 101 85
f 81 86 82
f 82 86 102
f 82 102 103
f 82 103 83
f 83 104 91
f 83 91 84
f 83 103 104
f 85 105 86
f 85 101 106
f 85 106 107
f 85 107 105
f 86 105 108
f 86 108 102
f 88 109 89
f 88 91 109
f 89 110 92
f 89 92 90
f 89 109 110
f 91 111 109
f 91 104 111
f 92 110 112
f 92 112 93
f 93 112 113
f 93 113 114
f 93 114 115
f 93 115 94
f 94 116 117
f 94 117 95
f 94 115 116
f 95 117 96
f 98 99 118
f 99 119 118
f 100 120 101
f 101 120 106
f 102 108 121
f 102 121 122
f 102 122 123
f 102 123 103
f 103 123 124
f 103 124 104
f 104 124 125
f 104 125 111
f 105 107 126
f 105 126 108
f 106 120 127
f 106 127 128
f 106 128 129
f 106 129 107
f 107 129 130
f 107 130 131
f 107 131 126
f 108 126 121
f 109 112 110
f 109 111 112
f 111 125 132
f 111 132 133
f 111 133 112
f 112 133 134
f 112 134 114
f 112 114 113
f 114 135 136
f 114 136 137
f 114 137 138
f 114 138 115
f 114 134 139
f 114 139 135
f 115 138 116
f 116 138 140
f 116 140 141
f 116 141 117
f 117 141 140
f 118 119 142
f 119 143 144
f 119 144 142
f 121 126 145
f 121 145 146
f 121 146 122
f 122 147 123
f 122 146 148
f 122 148 149
f 122 149 147
f 123 150 151
f 123 151 124
f 123 147 150
f 124 151 125
f 125 152 132
f 125 151 153
f 125 153 152
f 126 131 145
f 128 154 129
f 129 154 155
f 129 155 156
f 129 156 130
f 130 156 157
f 130 157 158
f 130 158 131
f 131 159 145
f 131 158 157
f 131 157 160
f 131 160 161
f 131 161 162
f 131 162 163
f 131 163 159
f 132 152 164
f 132 164 165
f 132 165 133
f 133 165 134
f 134 165 164
f 134 164 139
f 135 166 167
f 135 167 136
f 135 139 166
f 136 167 168
f 136 168 137
f 137 168 169
f 137 169 170
f 137 170 140
f 137 140 138
f 139 164 171
f 139 171 172
f 139 172 173
f 139 173 166
f 143 174 175
f 143 175 144
f 145 159 176
f 145 176 146
f 146 176 177
f 146 177 148
f 147 178 179
f 147 179 151
f 147 151 150
f 147 149 180
f 147 180 178
f 148 177 149
f 149 177 181
f 149 181 182
f 149 182 183
f 149 183 184
f 149 184 185
f 149 185 180
f 151 179 186
f 151 186 153
f 152 153 186
f 152 186 187
f 152 187 188
f 152 188 189
f 152 189 164
f 155 190 157
f 155 157 156
f 157 190 160
f 159 163 176
f 160 190 191
f 160 191 192
f 160 192 193
f 160 193 194
f 160 194 162
f 160 162 161
f 162 194 195
f 162 195 177
f 162 177 176
f 162 176 163
f 164 189 196
f 164 196 197
f 164 197 171
f 166 198 199
f 166 199 167
f 166 173 172
f 166 172 198
f 167 199 200
f 167 200 168
f 168 200 169
f 171 197 172
f 172 197 196
f 172 196 201
f 172 201 202
f 172 202 203
f 172 203 204
f 172 204 198
f 174 205 206
f 174 206 175
f 175 206 235
f 175 235 275
f 175 275 325
f 175 325 378
f 175 378 432
f 175 432 493
f 175 493 561
f 175 561 635
f 175 635 719
f 175 719 801
f 175 801 884
f 175 884 964
f 175 964 963
f 175 963 1016
f 175 1016 1042
f 175 1042 1045
f 175 1045 1023
f 175 1023 1044
f 175 1044 1021
f 175 1021 1020
f 175 1020 977
f 175 977 969
f 175 969 896
f 175 896 895
f 175 895 810
f 175 810 728
f 175 728 647
f 175 647 646
f 175 646 569
f 175 569 563
f 175 563 562
f 175 562 494
f 175 494 434
f 175 434 379
f 175 379 326
f 175 326 276
f 175 276 236
f 175 236 207
f 177 195 208
f 177 208 181
f 178 180 179
f 179 180 185
f 179 185 184
f 179 184 209
f 179 209 186
f 181 208 210
f 181 210 211
f 181 211 182
f 182 211 212
f 182 212 213
f 182 213 214
f 182 214 183
f 183 214 215
f 183 215 184
f 184 215 209
f 186 209 187
f 187 216 196
f 187 196 188
f 187 209 216
f 188 196 189
f 190 217 191
f 191 217 218
f 191 218 192
f 192 218 219
f 192 219 193
f 193 220 221
f 193 221 194
f 193 219 220
f 194 221 222
f 194 222 195
f 195 222 208
f 196 216 223
f 196 223 224
f 196 224 201
f 198 225 199
f 198 204 226
f 198 226 225
f 199 225 227
f 199 227 228
f 199 228 229
f 199 229 200
f 201 230 202
f 201 224 231
f 201 231 230
f 202 230 232
f 202 232 203
f 203 232 233
f 203 233 226
f 203 226 204
f 205 234 206
f 206 234 235
f 207 236 237
f 208 222 210
f 209 215 238
f 209 238 239
f 209 239 216
f 210 222 240
f 210 240 241
f 210 241 242
f 210 242 211
f 211 242 243
f 211 243 212
f 212 244 245
f 212 245 213
f 212 243 246
f 212 246 247
f 212 247 248
f 212 248 244
f 213 245 249
f 213 249 215
f 213 215 214
f 215 249 250
f 215 250 238
f 216 251 223
f 216 239 251
f 217 252 218
f 218 252 253
f 218 253 219
f 219 253 254
f 219 254 255
f 219 255 256
f 219 256 220
f 220 257 221
f 220 256 258
f 220 258 257
f 221 259 222
f 221 257 260
f 221 260 259
f 222 259 240
f 223 251 224
f 224 251 261
f 224 261 262
f 224 262 231
f 225 263 227
f 225 226 263
f 226 233 263
f 227 264 228
f 227 263 264
f 228 264 265
f 230 266 267
f 230 267 232
f 230 231 268
f 230 268 266
f 231 269 268
f 231 262 270
f 231 270 269
f 232 267 271
f 232 271 233
f 233 272 273
f 233 273 263
f 233 271 272
f 234 274 235
f 235 274 275
f 236 276 277
f 236 277 237
f 237 278 279
f 237 277 278
f 238 280 239
f 238 250 281
f 238 281 280
f 239 280 282
f 239 282 261
f 239 261 251
f 240 259 241
f 241 259 283
f 241 283 284
f 241 284 285
f 241 285 286
f 241 286 242
f 242 286 243
f 243 286 246
f 244 287 245
f 244 248 287
f 245 288 289
f 245 289 290
f 245 290 250
f 245 250 249
f 245 287 288
f 246 286 284
f 246 284 291
f 246 291 292
f 246 292 247
f 247 292 248
f 248 292 293
f 248 293 287
f 250 290 281
f 254 294 255
f 255 295 256
f 255 294 296
f 255 296 297
f 255 297 295
f 256 295 298
f 256 298 299
f 256 299 258
f 257 258 260
f 258 299 300
f 258 300 260
f 259 260 283
f 260 284 283
f 260 300 284
f 261 301 302
f 261 302 262
f 261 282 303
f 261 303 301
f 262 302 270
f 263 273 304
f 263 304 305
f 263 305 306
f 263 306 307
f 263 307 264
f 264 307 306
f 264 306 308
f 264 308 265
f 266 309 267
f 266 268 309
f 267 309 271
f 268 269 310
f 268 310 311
f 268 311 312
f 268 312 313
f 268 313 314
f 268 314 309
f 269 270 310
f 270 315 310
f 270 302 316
f 270 316 315
f 271 317 272
f 271 309 313
f 271 313 317
f 272 318 319
f 272 319 320
f 272 320 273
f 272 317 321
f 272 321 322
f 272 322 323
f 272 323 318
f 273 320 304
f 274 324 325
f 274 325 275
f 276 326 277
f 277 326 327
f 277 327 328
f 277 328 278
f 278 328 279
f 279 328 329
f 280 281 330
f 280 330 303
f 280 303 282
f 281 290 289
f 281 289 331
f 281 331 330
f 284 332 333
f 284 333 291
f 284 286 285
f 284 300 334
f 284 334 335
f 284 335 336
f 284 336 332
f 287 293 288
f 288 293 289
f 289 293 337
f 289 337 338
f 289 338 339
f 289 339 340
f 289 340 341
f 289 341 330
f 289 330 331
f 291 333 342
f 291 342 343
f 291 343 292
f 292 343 342
f 292 342 344
f 292 344 345
f 292 345 293
f 293 338 337
f 293 345 346
f 293 346 338
f 294 347 296
f 295 297 298
f 296 347 297
f 297 347 348
f 297 348 349
f 297 349 299
f 297 299 298
f 299 349 300
f 300 350 351
f 300 351 334
f 300 349 352
f 300 352 353
f 300 353 354
f 300 354 350
f 301 303 355
f 301 355 302
f 302 355 316
f 303 330 355
f 304 356 305
f 304 320 356
f 305 356 357
f 309 314 313
f 310 315 358
f 310 358 311
f 311 359 322
f 311 322 321
f 311 321 313
f 311 313 312
f 311 358 315
f 311 315 359
f 313 321 317
f 315 316 360
f 315 360 361
f 315 361 362
f 315 362 363
f 315 363 364
f 315 364 365
f 315 365 359
f 316 361 360
f 316 355 361
f 318 323 322
f 318 322 366
f 318 366 367
f 318 367 368
f 318 368 369
f 318 369 370
f 318 370 371
f 318 371 372
f 318 372 319
f 319 372 373
f 319 373 356
f 319 356 320
f 322 374 366
f 322 359 375
f 322 375 376
f 322 376 374
f 324 377 325
f 325 377 378
f 326 379 380
f 326 380 327
f 327 381 328
f 327 380 382
f 327 382 383
f 327 383 384
f 327 384 381
f 328 381 385
f 328 385 386
f 328 386 329
f 329 386 387
f 330 341 340
f 330 340 388
f 330 388 389
f 330 389 355
f 332 390 342
f 332 342 333
f 332 336 335
f 332 335 391
f 332 391 390
f 334 351 392
f 334 392 335
f 335 393 391
f 335 392 393
f 338 346 394
f 338 394 339
f 339 394 395
f 339 395 396
f 339 396 340
f 340 397 388
f 340 396 398
f 340 398 397
f 342 390 399
f 342 399 400
f 342 400 401
f 342 401 344
f 344 402 403
f 344 403 345
f 344 401 402
f 345 403 394
f 345 394 346
f 348 404 405
f 348 405 349
f 348 406 404
f 349 405 404
f 349 404 352
f 350 354 407
f 350 407 392
f 350 392 351
f 352 404 408
f 352 408 353
f 353 409 354
f 353 408 409
f 354 409 407
f 355 389 410
f 355 410 411
f 355 411 361
f 356 373 357
f 359 365 412
f 359 412 375
f 361 413 362
f 361 411 410
f 361 410 414
f 361 414 415
f 361 415 413
f 362 413 416
f 362 416 363
f 363 416 413
f 363 413 417
f 363 417 418
f 363 418 419
f 363 419 420
f 363 420 365
f 363 365 364
f 365 420 412
f 366 374 421
f 366 421 367
f 367 421 422
f 367 422 368
f 368 422 369
f 369 422 423
f 374 424 425
f 374 425 426
f 374 426 421
f 374 376 427
f 374 427 424
f 375 412 376
f 376 428 424
f 376 424 427
f 376 412 429
f 376 429 419
f 376 419 418
f 376 418 430
f 376 430 428
f 377 431 432
f 377 432 378
f 379 433 380
f 379 434 435
f 379 435 433
f 380 433 436
f 380 436 382
f 381 384 437
f 381 437 438
f 381 438 385
f 382 436 435
f 382 435 439
f 382 439 383
f 383 439 440
f 383 440 441
f 383 441 384
f 384 441 442
f 384 442 443
f 384 443 437
f 385 444 387
f 385 387 386
f 385 438 445
f 385 445 446
f 385 446 444
f 388 397 389
f 389 447 410
f 389 397 448
f 389 448 447
f 390 391 399
f 391 393 449
f 391 449 450
f 391 450 451
f 391 451 399
f 392 407 452
f 392 452 453
f 392 453 454
f 392 454 455
f 392 455 449
f 392 449 393
f 394 403 402
f 394 402 456
f 394 456 395
f 395 456 457
f 395 457 396
f 396 457 398
f 397 458 447
f 397 447 448
f 397 398 458
f 398 459 460
f 398 460 458
f 398 457 461
f 398 461 462
f 398 462 463
f 398 463 459
f 399 451 400
f 400 451 450
f 400 450 464
f 400 464 465
f 400 465 466
f 400 466 467
f 400 467 468
f 400 468 401
f 401 468 457
f 401 457 456
f 401 456 402
f 404 406 469
f 404 469 470
f 404 470 408
f 406 471 469
f 407 409 452
f 408 470 472
f 408 472 473
f 408 473 474
f 408 474 475
f 408 475 452
f 408 452 409
f 410 447 414
f 412 420 429
f 413 476 418
f 413 418 417
f 413 415 477
f 413 477 478
f 413 478 479
f 413 479 476
f 414 477 415
f 414 447 480
f 414 480 477
f 418 476 430
f 419 429 420
f 421 481 422
f 421 426 425
f 421 425 481
f 422 481 482
f 422 482 423
f 423 482 483
f 424 484 485
f 424 485 482
f 424 482 425
f 424 428 486
f 424 486 484
f 425 482 481
f 428 430 487
f 428 487 488
f 428 488 486
f 430 476 489
f 430 489 490
f 430 490 487
f 431 491 432
f 432 492 493
f 432 491 492
f 433 435 436
f 434 494 435
f 435 494 495
f 435 495 439
f 437 443 438
f 438 443 496
f 438 496 497
f 438 497 445
f 439 498 499
f 439 499 500
f 439 500 501
f 439 501 502
f 439 502 440
f 439 495 498
f 440 502 441
f 441 502 442
f 442 503 443
f 442 502 504
f 442 504 505
f 442 505 503
f 443 503 496
f 445 506 507
f 445 507 508
f 445 508 446
f 445 497 506
f 447 458 480
f 449 455 450
f 450 509 510
f 450 510 511
f 450 511 464
f 450 455 512
f 450 512 513
f 450 513 514
f 450 514 515
f 450 515 509
f 452 516 453
f 452 475 517
f 452 517 516
f 453 516 454
f 454 516 512
f 454 512 455
f 457 468 518
f 457 518 519
f 457 519 520
f 457 520 461
f 458 460 521
f 458 521 522
f 458 522 480
f 459 523 524
f 459 524 521
f 459 521 460
f 459 463 462
f 459 462 525
f 459 525 526
f 459 526 527
f 459 527 528
f 459 528 523
f 461 520 462
f 462 520 519
f 462 519 529
f 462 529 530
f 462 530 531
f 462 531 525
f 464 511 465
f 465 532 466
f 465 511 532
f 466 532 533
f 466 533 534
f 466 534 535
f 466 535 467
f 467 535 468
f 468 535 518
f 469 471 470
f 470 536 537
f 470 537 472
f 470 471 536
f 471 538 536
f 472 537 539
f 472 539 540
f 472 540 473
f 473 540 474
f 474 540 541
f 474 541 542
f 474 542 543
f 474 543 544
f 474 544 517
f 474 517 475
f 476 479 489
f 477 480 545
f 477 545 546
f 477 546 478
f 478 547 479
f 478 546 548
f 478 548 547
f 479 547 489
f 480 522 546
f 480 546 545
f 482 485 549
f 482 549 550
f 482 550 551
f 482 551 483
f 483 551 552
f 484 486 549
f 484 549 485
f 486 488 553
f 486 553 549
f 487 490 488
f 488 490 489
f 488 489 554
f 488 554 555
f 488 555 556
f 488 556 553
f 489 557 558
f 489 558 554
f 489 547 559
f 489 559 557
f 491 560 561
f 491 561 493
f 491 493 492
f 494 562 495
f 495 562 563
f 495 563 498
f 496 564 497
f 496 503 565
f 496 565 566
f 496 566 564
f 497 564 567
f 497 567 568
f 497 568 506
f 498 563 569
f 498 569 570
f 498 570 571
f 498 571 572
f 498 572 499
f 499 572 573
f 499 573 574
f 499 574 575
f 499 575 500
f 500 575 501
f 501 504 502
f 501 575 576
f 501 576 505
f 501 505 504
f 503 505 565
f 505 576 577
f 505 577 578
f 505 578 579
f 505 579 565
f 509 580 510
f 509 515 581
f 509 581 580
f 510 582 511
f 510 580 582
f 511 582 532
f 512 516 583
f 512 583 584
f 512 584 513
f 513 584 585
f 513 585 514
f 514 585 515
f 515 585 586
f 515 586 587
f 515 587 588
f 515 588 589
f 515 589 590
f 515 590 580
f 515 580 581
f 516 517 591
f 516 591 592
f 516 592 583
f 517 544 591
f 518 535 519
f 519 535 534
f 519 534 533
f 519 533 529
f 521 524 593
f 521 593 594
f 521 594 546
f 521 546 522
f 523 595 593
f 523 593 524
f 523 528 596
f 523 596 595
f 525 531 526
f 526 531 597
f 526 597 527
f 527 597 528
f 528 597 598
f 528 598 599
f 528 599 600
f 528 600 601
f 528 601 602
f 528 602 603
f 528 603 604
f 528 604 605
f 528 605 596
f 529 533 530
f 530 533 606
f 530 606 607
f 530 607 598
f 530 598 597
f 530 597 531
f 532 582 608
f 532 608 533
f 533 599 606
f 533 608 609
f 533 609 610
f 533 610 599
f 536 538 537
f 539 611 612
f 539 612 613
f 539 613 540
f 540 613 541
f 541 613 614
f 541 614 542
f 542 614 615
f 542 615 616
f 542 616 617
f 542 617 618
f 542 618 543
f 543 618 592
f 543 592 544
f 544 592 591
f 546 594 593
f 546 593 619
f 546 619 548
f 547 548 620
f 547 620 621
f 547 621 559
f 548 619 622
f 548 622 620
f 549 553 556
f 549 556 550
f 550 556 623
f 550 623 624
f 550 624 625
f 550 625 551
f 551 626 552
f 551 625 626
f 552 626 627
f 554 558 555
f 555 628 556
f 555 558 629
f 555 629 628
f 556 628 629
f 556 629 630
f 556 630 631
f 556 631 632
f 556 632 623
f 557 559 621
f 557 621 558
f 558 621 633
f 558 633 629
f 560 634 717
f 560 717 796
f 560 796 879
f 560 879 882
f 560 882 798
f 560 798 718
f 560 718 635
f 560 635 561
f 564 566 565
f 564 565 579
f 564 579 636
f 564 636 637
f 564 637 638
f 564 638 639
f 564 639 640
f 564 640 641
f 564 641 642
f 564 642 567
f 567 642 643
f 567 643 644
f 567 644 568
f 568 644 645
f 569 646 570
f 570 646 647
f 570 647 648
f 570 648 571
f 571 648 572
f 572 648 649
f 572 649 650
f 572 650 573
f 573 650 574
f 574 650 575
f 575 650 651
f 575 651 576
f 576 651 577
f 577 652 653
f 577 653 654
f 577 654 655
f 577 655 578
f 577 651 656
f 577 656 657
f 577 657 658
f 577 658 659
f 577 659 660
f 577 660 652
f 578 655 661
f 578 661 579
f 579 661 662
f 579 662 663
f 579 663 636
f 580 590 664
f 580 664 582
f 582 609 608
f 582 664 609
f 583 592 665
f 583 665 584
f 584 586 585
f 584 665 586
f 586 665 587
f 587 665 666
f 587 666 667
f 587 667 588
f 588 667 668
f 588 668 669
f 588 669 670
f 588 670 671
f 588 671 589
f 589 671 672
f 589 672 590
f 590 672 609
f 590 609 664
f 592 618 665
f 593 595 673
f 593 673 619
f 595 596 674
f 595 674 673
f 596 605 674
f 598 607 599
f 599 675 676
f 599 676 600
f 599 607 606
f 599 610 677
f 599 677 678
f 599 678 679
f 599 679 680
f 599 680 675
f 600 676 601
f 601 676 675
f 601 675 681
f 601 681 682
f 601 682 683
f 601 683 602
f 602 683 684
f 602 684 603
f 603 684 685
f 603 685 686
f 603 686 687
f 603 687 688
f 603 688 689
f 603 689 604
f 604 689 605
f 605 688 690
f 605 690 691
f 605 691 692
f 605 692 693
f 605 693 673
f 605 673 674
f 605 689 688
f 609 672 694
f 609 694 678
f 609 678 695
f 609 695 610
f 610 695 677
f 611 696 612
f 612 696 697
f 612 697 698
f 612 698 699
f 612 699 613
f 613 699 700
f 613 700 614
f 614 700 615
f 615 700 701
f 615 701 616
f 616 702 703
f 616 703 617
f 616 701 704
f 616 704 705
f 616 705 706
f 616 706 702
f 617 703 618
f 618 703 665
f 619 673 622
f 620 622 707
f 620 707 630
f 620 630 621
f 621 630 633
f 622 673 693
f 622 693 708
f 622 708 692
f 622 692 707
f 623 632 709
f 623 709 624
f 624 626 625
f 624 709 626
f 626 710 627
f 626 709 711
f 626 711 710
f 629 633 630
f 630 712 631
f 630 707 692
f 630 692 713
f 630 713 714
f 630 714 715
f 630 715 712
f 631 712 632
f 632 712 716
f 632 716 709
f 634 710 711
f 634 711 717
f 635 718 719
f 636 663 637
f 637 663 638
f 638 663 720
f 638 720 639
f 639 720 721
f 639 721 641
f 639 641 640
f 641 722 723
f 641 723 724
f 641 724 643
f 641 643 642
f 641 721 725
f 641 725 722
f 643 724 723
f 643 723 644
f 644 726 645
f 644 723 726
f 645 726 727
f 647 728 648
f 648 728 649
f 649 728 729
f 649 729 730
f 649 730 650
f 650 730 731
f 650 731 651
f 651 731 656
f 652 660 653
f 653 660 732
f 653 732 733
f 653 733 734
f 653 734 735
f 653 735 654
f 654 735 736
f 654 736 737
f 654 737 738
f 654 738 739
f 654 739 740
f 654 740 655
f 655 740 661
f 656 741 742
f 656 742 658
f 656 658 657
f 656 731 730
f 656 730 729
f 656 729 741
f 658 732 659
f 658 742 741
f 658 741 743
f 658 743 744
f 658 744 745
f 658 745 746
f 658 746 747
f 658 747 748
f 658 748 749
f 658 749 733
f 658 733 732
f 659 732 660
f 661 740 739
f 661 739 750
f 661 750 662
f 662 751 663
f 662 750 751
f 663 751 720
f 665 703 752
f 665 752 753
f 665 753 754
f 665 754 755
f 665 755 666
f 666 756 667
f 666 755 757
f 666 757 756
f 667 756 758
f 667 758 759
f 667 759 668
f 668 759 760
f 668 760 761
f 668 761 669
f 669 761 762
f 669 762 763
f 669 763 764
f 669 764 670
f 670 765 766
f 670 766 767
f 670 767 768
f 670 768 769
f 670 769 678
f 670 678 671
f 670 764 770
f 670 770 765
f 671 678 694
f 671 694 672
f 675 680 771
f 675 771 681
f 677 695 678
f 678 769 768
f 678 768 679
f 679 768 771
f 679 771 680
f 681 771 682
f 682 772 684
f 682 684 683
f 682 771 773
f 682 773 774
f 682 774 772
f 684 772 685
f 685 772 775
f 685 775 686
f 686 776 777
f 686 777 687
f 686 775 776
f 687 777 688
f 688 777 778
f 688 778 714
f 688 714 690
f 690 714 691
f 691 714 713
f 691 713 692
f 692 708 693
f 698 779 700
f 698 700 699
f 700 780 701
f 700 779 781
f 700 781 782
f 700 782 783
f 700 783 784
f 700 784 785
f 700 785 780
f 701 780 786
f 701 786 704
f 702 706 705
f 702 705 787
f 702 787 752
f 702 752 703
f 704 786 788
f 704 788 705
f 705 788 789
f 705 789 787
f 709 716 790
f 709 790 791
f 709 791 711
f 711 791 792
f 711 792 717
f 712 715 790
f 712 790 716
f 714 778 777
f 714 777 793
f 714 793 794
f 714 794 715
f 715 794 793
f 715 793 795
f 715 795 790
f 717 792 796
f 718 797 719
f 718 798 799
f 718 799 800
f 718 800 797
f 719 797 801
f 720 751 802
f 720 802 721
f 721 802 750
f 721 750 725
f 722 725 803
f 722 803 804
f 722 804 723
f 723 804 805
f 723 805 806
f 723 806 807
f 723 807 727
f 723 727 808
f 723 808 726
f 725 809 803
f 725 750 809
f 726 808 727
f 728 810 811
f 728 811 812
f 728 812 741
f 728 741 729
f 733 749 813
f 733 813 814
f 733 814 815
f 733 815 816
f 733 816 817
f 733 817 734
f 734 817 818
f 734 818 735
f 735 818 736
f 736 818 737
f 737 819 738
f 737 818 820
f 737 820 819
f 738 750 739
f 738 819 750
f 741 812 821
f 741 821 743
f 743 821 822
f 743 822 744
f 744 822 823
f 744 823 745
f 745 823 824
f 745 824 746
f 746 824 825
f 746 825 826
f 746 826 827
f 746 827 747
f 747 749 748
f 747 827 828
f 747 828 749
f 749 828 829
f 749 829 813
f 750 819 830
f 750 830 831
f 750 831 832
f 750 832 833
f 750 833 809
f 750 802 751
f 752 787 753
f 753 787 754
f 754 787 834
f 754 834 755
f 755 834 835
f 755 835 836
f 755 836 837
f 755 837 838
f 755 838 839
f 755 839 757
f 756 757 840
f 756 840 758
f 757 839 840
f 758 840 841
f 758 841 759
f 759 841 760
f 760 842 761
f 760 841 840
f 760 840 842
f 761 842 763
f 761 763 762
f 763 842 843
f 763 843 770
f 763 770 764
f 765 844 845
f 765 845 846
f 765 846 766
f 765 770 847
f 765 847 844
f 766 846 767
f 767 773 771
f 767 771 768
f 767 846 773
f 770 843 848
f 770 848 849
f 770 849 850
f 770 850 851
f 770 851 852
f 770 852 853
f 770 853 854
f 770 854 855
f 770 855 847
f 772 774 856
f 772 856 857
f 772 857 775
f 773 846 858
f 773 858 774
f 774 858 856
f 775 857 859
f 775 859 776
f 776 859 860
f 776 860 777
f 777 860 861
f 777 861 862
f 777 862 863
f 777 863 793
f 780 785 786
f 782 864 783
f 783 864 784
f 784 865 866
f 784 866 867
f 784 867 868
f 784 868 785
f 784 864 865
f 785 868 786
f 786 868 788
f 787 789 834
f 788 868 869
f 788 869 870
f 788 870 871
f 788 871 872
f 788 872 873
f 788 873 836
f 788 836 789
f 789 836 835
f 789 835 834
f 790 792 791
f 790 795 792
f 792 795 796
f 793 863 795
f 795 863 874
f 795 874 875
f 795 875 876
f 795 876 877
f 795 877 878
f 795 878 879
f 795 879 796
f 797 880 801
f 797 800 881
f 797 881 880
f 798 882 799
f 799 881 800
f 799 882 883
f 799 883 881
f 801 880 884
f 803 885 804
f 803 809 886
f 803 886 887
f 803 887 885
f 804 885 888
f 804 888 805
f 805 888 889
f 805 889 890
f 805 890 806
f 809 833 891
f 809 891 892
f 809 892 893
f 809 893 894
f 809 894 886
f 810 895 811
f 811 895 896
f 811 896 897
f 811 897 821
f 811 821 812
f 813 829 814
f 814 898 815
f 814 829 899
f 814 899 898
f 815 898 816
f 816 898 900
f 816 900 901
f 816 901 902
f 816 902 817
f 817 902 818
f 818 902 820
f 819 820 903
f 819 903 904
f 819 904 905
f 819 905 906
f 819 906 830
f 820 902 903
f 821 897 822
f 822 897 907
f 822 907 908
f 822 908 824
f 822 824 823
f 824 908 909
f 824 909 910
f 824 910 825
f 825 910 911
f 825 911 912
f 825 912 826
f 826 912 913
f 826 913 914
f 826 914 827
f 827 899 828
f 827 914 915
f 827 915 899
f 828 899 829
f 830 906 831
f 831 906 921
f 831 921 916
f 831 916 832
f 832 917 918
f 832 918 892
f 832 892 833
f 832 916 838
f 832 838 917
f 833 892 891
f 836 873 838
f 836 838 837
f 838 916 919
f 838 919 840
f 838 840 839
f 838 873 872
f 838 872 920
f 838 920 917
f 840 919 921
f 840 921 922
f 840 922 849
f 840 849 923
f 840 923 924
f 840 924 842
f 842 924 843
f 843 924 848
f 844 925 845
f 844 847 926
f 844 926 925
f 845 925 858
f 845 858 846
f 847 855 926
f 848 924 923
f 848 923 849
f 849 927 851
f 849 851 850
f 849 922 928
f 849 928 929
f 849 929 927
f 851 927 930
f 851 930 901
f 851 901 931
f 851 931 932
f 851 932 852
f 852 932 853
f 853 932 933
f 853 933 934
f 853 934 935
f 853 935 854
f 854 926 855
f 854 935 936
f 854 936 937
f 854 937 926
f 856 938 939
f 856 939 940
f 856 940 941
f 856 941 857
f 856 858 942
f 856 942 943
f 856 943 944
f 856 944 938
f 857 941 859
f 858 945 942
f 858 925 946
f 858 946 947
f 858 947 948
f 858 948 945
f 859 940 860
f 859 941 940
f 860 940 949
f 860 949 861
f 861 949 939
f 861 939 950
f 861 950 862
f 862 950 951
f 862 951 952
f 862 952 875
f 862 875 863
f 863 875 874
f 866 953 867
f 867 953 954
f 867 954 869
f 867 869 868
f 869 955 870
f 869 954 956
f 869 956 889
f 869 889 955
f 870 955 871
f 871 955 957
f 871 957 885
f 871 885 887
f 871 887 872
f 872 887 886
f 872 886 920
f 875 952 958
f 875 958 876
f 876 958 959
f 876 959 883
f 876 883 882
f 876 882 877
f 877 882 878
f 878 882 879
f 880 881 960
f 880 960 961
f 880 961 962
f 880 962 963
f 880 963 964
f 880 964 884
f 881 965 960
f 881 883 966
f 881 966 965
f 883 959 967
f 883 967 966
f 885 957 955
f 885 955 888
f 886 894 920
f 888 955 889
f 889 956 890
f 892 968 893
f 892 918 917
f 892 917 968
f 893 968 894
f 894 968 920
f 896 969 897
f 897 969 907
f 898 899 970
f 898 970 971
f 898 971 900
f 899 915 914
f 899 914 970
f 900 971 972
f 900 972 973
f 900 973 932
f 900 932 901
f 901 930 974
f 901 974 904
f 901 904 903
f 901 903 902
f 901 932 931
f 904 974 905
f 905 974 975
f 905 975 906
f 906 975 921
f 907 969 976
f 907 976 908
f 908 976 977
f 908 977 909
f 909 977 978
f 909 978 910
f 910 979 911
f 910 978 980
f 910 980 979
f 911 979 981
f 911 981 982
f 911 982 912
f 912 983 984
f 912 984 985
f 912 985 986
f 912 986 913
f 912 982 983
f 913 986 914
f 914 986 987
f 914 987 988
f 914 988 970
f 916 921 919
f 917 920 968
f 921 975 928
f 921 928 989
f 921 989 922
f 922 989 928
f 925 937 936
f 925 936 946
f 925 926 937
f 927 929 930
f 928 975 929
f 929 975 930
f 930 975 974
f 932 973 933
f 933 973 990
f 933 990 934
f 934 990 991
f 934 991 992
f 934 992 935
f 935 993 994
f 935 994 995
f 935 995 948
f 935 948 936
f 935 992 991
f 935 991 996
f 935 996 997
f 935 997 993
f 936 948 947
f 936 947 946
f 938 944 943
f 938 943 998
f 938 998 999
f 938 999 1000
f 938 1000 939
f 939 1000 999
f 939 999 951
f 939 951 950
f 939 949 940
f 942 945 1001
f 942 1001 943
f 943 1001 1002
f 943 1002 1003
f 943 1003 999
f 943 999 998
f 945 1004 1001
f 945 948 1004
f 948 995 1005
f 948 1005 1004
f 951 1006 958
f 951 958 952
f 951 999 1007
f 951 1007 1008
f 951 1008 1009
f 951 1009 1006
f 958 1006 967
f 958 967 959
f 960 965 961
f 961 1010 962
f 961 965 1011
f 961 1011 1010
f 962 1010 1012
f 962 1012 1013
f 962 1013 982
f 962 982 1014
f 962 1014 963
f 963 1014 1015
f 963 1015 1016
f 965 966 1008
f 965 1008 1011
f 966 967 1008
f 967 1006 1009
f 967 1009 1008
f 969 977 976
f 970 988 1017
f 970 1017 1018
f 970 1018 996
f 970 996 991
f 970 991 1019
f 970 1019 971
f 971 1019 990
f 971 990 972
f 972 990 973
f 977 1020 978
f 978 1021 1022
f 978 1022 980
f 978 1020 1021
f 979 980 1022
f 979 1022 1023
f 979 1023 1024
f 979 1024 1025
f 979 1025 1015
f 979 1015 981
f 981 1015 982
f 982 1015 1014
f 982 1013 1026
f 982 1026 983
f 983 1026 984
f 984 1026 1027
f 984 1027 985
f 985 1027 986
f 986 1027 987
f 987 1027 1028
f 987 1028 1010
f 987 1010 1029
f 987 1029 1017
f 987 1017 988
f 990 1019 991
f 993 997 1030
f 993 1030 1031
f 993 1031 1032
f 993 1032 994
f 994 1005 995
f 994 1032 1031
f 994 1031 1002
f 994 1002 1001
f 994 1001 1005
f 996 1018 1033
f 996 1033 1030
f 996 1030 997
f 999 1003 1007
f 1001 1004 1005
f 1002 1031 1034
f 1002 1034 1035
f 1002 1035 1003
f 1003 1036 1007
f 1003 1035 1036
f 1007 1036 1034
f 1007 1034 1008
f 1008 1034 1037
f 1008 1037 1038
f 1008 1038 1011
f 1010 1039 1029
f 1010 1028 1027
f 1010 1027 1040
f 1010 1040 1013
f 1010 1013 1012
f 1010 1011 1038
f 1010 1038 1039
f 1013 1040 1026
f 1015 1041 1016
f 1015 1025 1041
f 1016 1041 1042
f 1017 1033 1018
f 1017 1029 1043
f 1017 1043 1038
f 1017 1038 1037
f 1017 1037 1030
f 1017 1030 1033
f 1021 1044 1022
f 1022 1044 1023
f 1023 1045 1024
f 1024 1045 1041
f 1024 1041 1025
f 1026 1040 1027
f 1029 1039 1043
f 1030 1037 1031
f 1031 1037 1046
f 1031 1046 1034
f 1034 1036 1035
f 1034 1046 1037
f 1038 1043 1039
f 1041 1045 1042

