# https://github.com/mikedh/trimesh
v 0.06042886 0.00864357 0.00307195
v 0.06030976 0.00872736 0.00307195
v 0.06042886 0.00592387 0.00307195
v 0.06042886 0.00864357 0.00179928
v 0.05981935 0.00904671 0.00307195
v 0.06030976 0.00872736 0.00251960
v 0.06042886 0.00592334 0.00059757
v 0.05504555 0.00853080 0.00307195
v 0.05327166 0.00850867 0.00059667
v 0.05327166 0.00773033 -0.00610348
v 0.05993495 0.00524197 -0.00610348
v 0.06042886 0.00864305 0.00107987
v 0.06030976 0.00872683 0.00107987
v 0.05948307 0.00925486 0.00307195
v 0.05993495 0.00897030 0.00054099
v 0.05981935 0.00904513 0.00059757
v 0.05938008 0.00931810 0.00107987
v 0.06042886 0.00818247 0.00059757
v 0.05504555 0.01059232 0.00307195
v 0.05327166 0.01058336 0.00059667
v 0.05327166 0.01057124 -0.00610348
v 0.05993495 0.00895449 -0.00610348
v 0.06042886 0.00864252 0.00059847
v 0.06030976 0.00872631 0.00059757
v 0.05938008 0.00931810 0.00307195
v 0.05993495 0.00896924 -0.00036075
v 0.05981935 0.00904354 -0.00036075
v 0.05938008 0.00931757 0.00035866
v 0.05913908 0.00943772 0.00059757
v 0.05929671 0.00935973 0.00307195
v 0.05550023 0.01055701 0.00307195
v 0.05550023 0.01055648 0.00179928
v 0.05550023 0.01055595 0.00107987
v 0.05504555 0.01059021 0.00081402
v 0.05478072 0.01060918 0.00035866
v 0.05478072 0.01060918 0.00059667
v 0.05454323 0.01061445 0.00059667
v 0.05406052 0.01062499 0.00059667
v 0.05334032 0.01059232 0.00059667
v 0.05327166 0.01058336 0.00035866
v 0.05327166 0.01057176 -0.00605049
v 0.05332420 0.01057861 -0.00610348
v 0.05981935 0.00902826 -0.00610348
v 0.05993495 0.00895659 -0.00539934
v 0.05993495 0.00895818 -0.00485057
v 0.05993495 0.00896555 -0.00197022
v 0.05993495 0.00896766 -0.00108106
v 0.05981935 0.00904196 -0.00108106
v 0.05937658 0.00931494 -0.00180048
v 0.05901017 0.00949411 -0.00467903
v 0.05901157 0.00949463 -0.00395961
v 0.05901297 0.00949516 -0.00323930
v 0.05901788 0.00949621 -0.00108106
v 0.05902068 0.00949621 0.00059757
v 0.05902068 0.00949621 0.00307195
v 0.05622043 0.01044371 0.00307195
v 0.05622043 0.01044318 0.00179928
v 0.05550093 0.01055543 0.00059667
v 0.05550093 0.01055279 -0.00180048
v 0.05478072 0.01060549 -0.00251989
v 0.05406052 0.01062183 -0.00180048
v 0.05334032 0.01059021 -0.00108106
v 0.05327166 0.01058020 -0.00180048
v 0.05327166 0.01057545 -0.00461077
v 0.05334032 0.01058283 -0.00539934
v 0.05334032 0.01058072 -0.00610348
v 0.05936677 0.00930861 -0.00610348
v 0.05936887 0.00930967 -0.00539934
v 0.05981935 0.00903037 -0.00539934
v 0.05981935 0.00903248 -0.00467903
v 0.05981935 0.00903828 -0.00251989
v 0.05937518 0.00931388 -0.00251989
v 0.05900877 0.00949305 -0.00539934
v 0.05837894 0.00977498 -0.00467903
v 0.05837894 0.00977656 -0.00395961
v 0.05837894 0.00978183 -0.00108106
v 0.05837964 0.00978447 0.00059757
v 0.05837964 0.00978763 0.00307195
v 0.05693994 0.01028351 0.00307195
v 0.05693994 0.01028351 0.00251960
v 0.05693994 0.01028246 0.00107987
v 0.05670314 0.01033463 0.00059757
v 0.05693994 0.01027350 -0.00610348
v 0.05622043 0.01044213 0.00107987
v 0.05550093 0.01054963 -0.00395961
v 0.05478072 0.01060338 -0.00395961
v 0.05406052 0.01061866 -0.00395961
v 0.05334032 0.01058599 -0.00395961
v 0.05327166 0.01057914 -0.00251989
v 0.05327166 0.01057703 -0.00389135
v 0.05406052 0.01061761 -0.00467903
v 0.05404441 0.01061339 -0.00610348
v 0.05901507 0.00948778 -0.00610348
v 0.05900667 0.00949200 -0.00610348
v 0.05837894 0.00977129 -0.00610348
v 0.05836703 0.00977656 -0.00610348
v 0.05781637 0.00999947 -0.00539934
v 0.05782968 0.01001054 0.00307195
v 0.05706324 0.01025031 0.00307195
v 0.05745487 0.01013807 -0.00610348
v 0.05693994 0.01028193 0.00059667
v 0.05744296 0.01014123 -0.00610348
v 0.05693994 0.01027982 -0.00108106
v 0.05622113 0.01042421 -0.00610348
v 0.05622113 0.01042790 -0.00467903
v 0.05622113 0.01043528 -0.00180048
v 0.05622113 0.01044055 0.00035866
v 0.05550093 0.01054647 -0.00539934
v 0.05478072 0.01060022 -0.00539934
v 0.05406052 0.01061392 -0.00610348
v 0.05781497 0.00999842 -0.00610348
v 0.05746327 0.01013490 -0.00610348
v 0.05746608 0.01013859 0.00059757
v 0.05746888 0.01013859 0.00251960
v 0.05746958 0.01013859 0.00307195
v 0.05745627 0.01013807 -0.00539934
v 0.05550093 0.01054436 -0.00610348
v 0.05548411 0.01054594 -0.00610348
v 0.05478072 0.01059811 -0.00610348
v 0.05476461 0.01059864 -0.00610348
f 1 2 5
f 1 5 14
f 1 14 25
f 1 25 30
f 1 30 55
f 1 55 78
f 1 78 98
f 1 98 115
f 1 115 99
f 1 99 79
f 1 79 56
f 1 56 31
f 1 31 19
f 1 19 8
f 1 8 3
f 1 3 7
f 1 7 18
f 1 18 23
f 1 23 12
f 1 12 4
f 1 4 6
f 1 6 2
f 2 6 5
f 3 8 9
f 3 9 10
f 3 10 11
f 3 11 7
f 4 12 13
f 4 13 6
f 5 6 13
f 5 13 15
f 5 15 16
f 5 16 17
f 5 17 14
f 7 11 22
f 7 22 18
f 8 19 20
f 8 20 9
f 9 20 40
f 9 40 63
f 9 63 89
f 9 89 90
f 9 90 64
f 9 64 41
f 9 41 21
f 9 21 10
f 10 21 42
f 10 42 66
f 10 66 92
f 10 92 110
f 10 110 120
f 10 120 119
f 10 119 118
f 10 118 117
f 10 117 104
f 10 104 83
f 10 83 102
f 10 102 100
f 10 100 112
f 10 112 111
f 10 111 96
f 10 96 95
f 10 95 94
f 10 94 93
f 10 93 67
f 10 67 43
f 10 43 22
f 10 22 11
f 12 23 24
f 12 24 13
f 13 24 15
f 14 17 25
f 15 24 26
f 15 26 16
f 16 26 27
f 16 27 28
f 16 28 17
f 17 29 30
f 17 30 25
f 17 28 29
f 18 22 23
f 19 31 32
f 19 32 33
f 19 33 34
f 19 34 35
f 19 35 36
f 19 36 37
f 19 37 38
f 19 38 39
f 19 39 20
f 20 39 40
f 21 41 42
f 22 43 69
f 22 69 44
f 22 44 24
f 22 24 23
f 24 44 45
f 24 45 46
f 24 46 47
f 24 47 26
f 26 47 48
f 26 48 27
f 27 48 28
f 28 48 49
f 28 49 50
f 28 50 51
f 28 51 52
f 28 52 53
f 28 53 29
f 29 54 55
f 29 55 30
f 29 53 54
f 31 56 57
f 31 57 32
f 32 57 33
f 33 57 58
f 33 58 34
f 34 58 59
f 34 59 60
f 34 60 35
f 35 60 38
f 35 38 37
f 35 37 36
f 38 60 61
f 38 61 62
f 38 62 39
f 39 62 40
f 40 62 63
f 41 64 65
f 41 65 42
f 42 65 66
f 43 67 68
f 43 68 69
f 44 69 70
f 44 70 45
f 45 70 71
f 45 71 48
f 45 48 46
f 46 48 47
f 48 71 49
f 49 71 72
f 49 72 73
f 49 73 50
f 50 73 74
f 50 74 75
f 50 75 76
f 50 76 77
f 50 77 51
f 51 77 52
f 52 77 53
f 53 77 78
f 53 78 54
f 54 78 55
f 56 79 80
f 56 80 57
f 57 80 81
f 57 81 82
f 57 82 83
f 57 83 84
f 57 84 85
f 57 85 59
f 57 59 58
f 59 85 86
f 59 86 60
f 60 86 61
f 61 86 87
f 61 87 62
f 62 87 88
f 62 88 63
f 63 88 89
f 64 90 65
f 65 91 92
f 65 92 66
f 65 90 88
f 65 88 91
f 67 93 68
f 68 93 73
f 68 73 72
f 68 72 70
f 68 70 69
f 70 72 71
f 73 93 94
f 73 94 95
f 73 95 74
f 74 95 96
f 74 96 97
f 74 97 75
f 75 97 98
f 75 98 76
f 76 98 77
f 77 98 78
f 79 99 80
f 80 99 100
f 80 100 81
f 81 101 82
f 81 100 102
f 81 102 101
f 82 101 103
f 82 103 83
f 83 104 105
f 83 105 106
f 83 106 107
f 83 107 84
f 83 103 102
f 84 107 85
f 85 107 108
f 85 108 109
f 85 109 86
f 86 109 91
f 86 91 87
f 87 91 88
f 88 90 89
f 91 109 110
f 91 110 92
f 96 111 97
f 97 111 112
f 97 112 98
f 98 113 114
f 98 114 115
f 98 112 100
f 98 100 116
f 98 116 113
f 99 115 114
f 99 114 113
f 99 113 116
f 99 116 100
f 101 102 103
f 104 117 108
f 104 108 105
f 105 108 106
f 106 108 107
f 108 117 118
f 108 118 109
f 109 118 119
f 109 119 120
f 109 120 110

