# https://github.com/mikedh/trimesh
v 0.02055602 -0.00668988 -0.00508345
v 0.02055602 -0.00666389 -0.00002637
v 0.02055602 -0.00413676 -0.00508345
v 0.02083455 -0.00668963 -0.00508345
v 0.02442542 -0.00666389 -0.00002637
v 0.02055602 -0.00443616 -0.00002637
v 0.02376402 -0.00443616 -0.00002637
v 0.02773317 -0.00443616 -0.00480030
v 0.02773317 -0.00443616 -0.00508345
v 0.02839303 -0.00666389 -0.00508345
v 0.02839303 -0.00666389 -0.00480179
v 0.02839303 -0.00664365 -0.00408599
v 0.02479755 -0.00664015 -0.00002637
v 0.02442542 -0.00449814 -0.00002637
v 0.02839303 -0.00448439 -0.00480030
v 0.02839303 -0.00451513 -0.00507701
v 0.02839303 -0.00451588 -0.00508345
v 0.02839303 -0.00663790 -0.00399442
v 0.02498707 -0.00628552 -0.00002637
v 0.02839303 -0.00662340 -0.00380136
v 0.02479755 -0.00459586 -0.00002637
v 0.02839303 -0.00453388 -0.00421965
v 0.02513439 -0.00562400 -0.00002637
v 0.02839303 -0.00634425 -0.00369840
v 0.02484205 -0.00467633 -0.00002637
v 0.02839303 -0.00471032 -0.00388848
v 0.02502083 -0.00510518 -0.00002637
v 0.02839303 -0.00562500 -0.00358108
v 0.02839303 -0.00504070 -0.00369493
v 0.02498630 -0.00496248 -0.00002637
f 1 2 6
f 1 6 3
f 1 3 9
f 1 9 17
f 1 17 10
f 1 10 4
f 1 4 5
f 1 5 2
f 2 5 13
f 2 13 19
f 2 19 23
f 2 23 27
f 2 27 30
f 2 30 25
f 2 25 21
f 2 21 14
f 2 14 7
f 2 7 6
f 3 6 7
f 3 7 8
f 3 8 9
f 4 10 11
f 4 11 5
f 5 11 12
f 5 12 13
f 7 14 15
f 7 15 8
f 8 15 9
f 9 15 16
f 9 16 17
f 10 17 16
f 10 16 15
f 10 15 22
f 10 22 26
f 10 26 29
f 10 29 28
f 10 28 24
f 10 24 20
f 10 20 18
f 10 18 12
f 10 12 11
f 12 18 13
f 13 18 20
f 13 20 19
f 14 21 22
f 14 22 15
f 19 20 24
f 19 24 23
f 21 25 26
f 21 26 22
f 23 24 28
f 23 28 29
f 23 29 27
f 25 30 29
f 25 29 26
f 27 29 30

