# https://github.com/mikedh/trimesh
v 0.01233573 -0.00430058 -0.00115855
v 0.01226311 -0.00451515 -0.00115855
v 0.01222301 -0.00447111 -0.00167741
v 0.01228051 -0.00430058 -0.00167741
v 0.01075764 -0.00430058 -0.00115855
v 0.01220410 -0.00467213 -0.00115855
v 0.01220410 -0.00467157 -0.00116168
v 0.01218594 -0.00462752 -0.00149065
v 0.01217460 -0.00460042 -0.00167741
v 0.01215947 -0.00455807 -0.00193527
v 0.01220713 -0.00442932 -0.00193527
v 0.01224949 -0.00430058 -0.00193527
v 0.00696295 -0.00895688 -0.00115855
v 0.00647424 -0.00430058 -0.00872178
v 0.00468583 -0.00617134 -0.00874444
v 0.00460791 -0.00631534 -0.00865536
v 0.01190982 -0.00536104 -0.00115855
v 0.01198320 -0.00505216 -0.00168444
v 0.01210273 -0.00477321 -0.00167741
v 0.01207020 -0.00477321 -0.00193527
v 0.01202405 -0.00477321 -0.00219313
v 0.01219653 -0.00439940 -0.00208686
v 0.01221318 -0.00430058 -0.00215172
v 0.00683434 -0.00912911 -0.00115855
v 0.00641901 -0.00430058 -0.00890775
v 0.00460791 -0.00621144 -0.00882336
v 0.00460716 -0.00724422 -0.00786301
v 0.00460716 -0.00844924 -0.00601968
v 0.00460716 -0.00850966 -0.00592825
v 0.00460716 -0.00861977 -0.00578369
v 0.00460716 -0.00896253 -0.00533595
v 0.01182962 -0.00554681 -0.00115855
v 0.01177213 -0.00554681 -0.00167741
v 0.01193024 -0.00515211 -0.00177508
v 0.01197488 -0.00499795 -0.00193527
v 0.01167302 -0.00566935 -0.00204389
v 0.01213828 -0.00449708 -0.00218141
v 0.01171236 -0.00550333 -0.00219313
v 0.01189393 -0.00480765 -0.00270886
v 0.01191435 -0.00459873 -0.00301048
v 0.01195067 -0.00442706 -0.00316598
v 0.01217838 -0.00434236 -0.00225877
v 0.01219956 -0.00430058 -0.00222126
v 0.00676474 -0.00925785 -0.00115855
v 0.00646289 -0.00430058 -0.00906247
v 0.00467373 -0.00616174 -0.00905466
v 0.00460791 -0.00619450 -0.00889838
v 0.00460716 -0.00724422 -0.00914139
v 0.00460716 -0.00910483 -0.00519842
v 0.01172522 -0.00577212 -0.00115855
v 0.01169648 -0.00571622 -0.00167741
v 0.01168513 -0.00569306 -0.00187198
v 0.01172901 -0.00556884 -0.00194934
v 0.01162234 -0.00578906 -0.00194934
v 0.01140673 -0.00617134 -0.00198762
v 0.01128342 -0.00632042 -0.00219313
v 0.01145742 -0.00600476 -0.00219313
v 0.01156636 -0.00580431 -0.00219313
v 0.01142110 -0.00568064 -0.00310660
v 0.01165638 -0.00563208 -0.00219313
v 0.01163142 -0.00528142 -0.00297454
v 0.01166924 -0.00514477 -0.00306596
v 0.01179029 -0.00477321 -0.00322459
v 0.01189620 -0.00451346 -0.00324100
v 0.01193024 -0.00437455 -0.00333789
v 0.01197034 -0.00430058 -0.00326600
v 0.00675264 -0.00941201 -0.00115855
v 0.00460716 -0.00916976 -0.00515232
v 0.00460716 -0.00924825 -0.00511794
v 0.00460716 -0.00941483 -0.00507183
v 0.00664824 -0.00430058 -0.00911873
v 0.00460791 -0.00631703 -0.00909216
v 0.00460791 -0.00627807 -0.00907966
v 0.00460791 -0.00657847 -0.00914061
v 0.00460791 -0.00683653 -0.00914139
v 0.00460716 -0.00786706 -0.00914139
v 0.01165865 -0.00589974 -0.00115855
v 0.01162763 -0.00584496 -0.00167741
v 0.01141959 -0.00619393 -0.00181572
v 0.01147028 -0.00607591 -0.00191574
v 0.01111472 -0.00662534 -0.00219313
v 0.01113892 -0.00666939 -0.00193527
v 0.01110412 -0.00631025 -0.00297610
v 0.01115405 -0.00617981 -0.00306909
v 0.01093391 -0.00650676 -0.00322459
v 0.01120550 -0.00601549 -0.00322459
v 0.01133940 -0.00578172 -0.00320505
v 0.01139917 -0.00563660 -0.00327851
v 0.01145817 -0.00554907 -0.00320505
v 0.01151567 -0.00554681 -0.00296673
v 0.01156938 -0.00528932 -0.00322459
v 0.01168513 -0.00492398 -0.00338009
v 0.01182357 -0.00451515 -0.00348245
v 0.01169950 -0.00444175 -0.00393879
v 0.01167000 -0.00437003 -0.00411070
v 0.01165941 -0.00432147 -0.00419353
v 0.01191435 -0.00430058 -0.00345823
v 0.00675264 -0.00941483 -0.00115855
v 0.00460716 -0.00967289 -0.00507105
v 0.00690545 -0.00430058 -0.00914139
v 0.00664824 -0.00451459 -0.00914139
v 0.00510040 -0.00760957 -0.00914139
v 0.00484168 -0.00786706 -0.00913748
v 0.00460716 -0.00812568 -0.00911639
v 0.01156787 -0.00606462 -0.00115855
v 0.01142791 -0.00620918 -0.00167741
v 0.01115254 -0.00669367 -0.00174148
v 0.01103906 -0.00683597 -0.00193527
v 0.01091499 -0.00698335 -0.00211421
v 0.01097627 -0.00685403 -0.00219704
v 0.01090743 -0.00671512 -0.00285889
v 0.01088625 -0.00667955 -0.00303080
v 0.01086128 -0.00663607 -0.00322459
v 0.01091197 -0.00646836 -0.00338165
v 0.01117902 -0.00596863 -0.00340666
v 0.01123349 -0.00581786 -0.00348870
v 0.01137193 -0.00554907 -0.00349496
v 0.01144002 -0.00546494 -0.00341682
v 0.01148390 -0.00530400 -0.00349496
v 0.01171917 -0.00477039 -0.00347308
v 0.01173203 -0.00452306 -0.00374344
v 0.01157997 -0.00451741 -0.00419353
v 0.01155879 -0.00451459 -0.00425761
v 0.01146801 -0.00451572 -0.00451235
v 0.01166622 -0.00430058 -0.00419353
v 0.01155198 -0.00430058 -0.00451469
v 0.01165411 -0.00430058 -0.00422870
v 0.00675339 -0.00967233 -0.00115855
v 0.00460716 -0.00993095 -0.00513356
v 0.00676474 -0.00985415 -0.00115855
v 0.00793734 -0.00430058 -0.00914139
v 0.00613154 -0.00683653 -0.00914139
v 0.00587432 -0.00709402 -0.00914061
v 0.00561559 -0.00735095 -0.00913436
v 0.00535762 -0.00760957 -0.00912576
v 0.00512007 -0.00788908 -0.00909294
v 0.00483033 -0.00812907 -0.00907654
v 0.00460716 -0.00829904 -0.00906013
v 0.01128418 -0.00657847 -0.00115855
v 0.01118583 -0.00675352 -0.00116168
v 0.01111018 -0.00688283 -0.00115855
v 0.01108975 -0.00681281 -0.00166412
v 0.01093088 -0.00700706 -0.00193527
v 0.01094904 -0.00703304 -0.00167741
v 0.01039148 -0.00774679 -0.00208764
v 0.01045579 -0.00762143 -0.00218141
v 0.01029011 -0.00758416 -0.00294250
v 0.01067821 -0.00701497 -0.00296673
v 0.01065627 -0.00698278 -0.00314098
v 0.01081665 -0.00681507 -0.00295344
v 0.01072208 -0.00685234 -0.00322537
v 0.01069031 -0.00677611 -0.00348245
v 0.01082421 -0.00656379 -0.00347386
v 0.01063735 -0.00643674 -0.00419353
v 0.01083026 -0.00604994 -0.00425214
v 0.01088322 -0.00589974 -0.00433497
v 0.01116465 -0.00568459 -0.00388253
v 0.01117751 -0.00545195 -0.00419353
v 0.01114951 -0.00539379 -0.00435685
v 0.01140976 -0.00540000 -0.00358872
v 0.01124711 -0.00529723 -0.00419353
v 0.01147330 -0.00476813 -0.00419353
v 0.01143094 -0.00467665 -0.00442483
v 0.01118583 -0.00522156 -0.00445921
v 0.01115405 -0.00514759 -0.00463112
v 0.01139992 -0.00460211 -0.00459674
v 0.01143699 -0.00443045 -0.00468504
v 0.01145817 -0.00430058 -0.00474755
v 0.00460716 -0.01006760 -0.00528672
v 0.00676626 -0.00985584 -0.00115855
v 0.00819380 -0.00430058 -0.00913280
v 0.00793734 -0.00451459 -0.00914139
v 0.00664824 -0.00632042 -0.00914139
v 0.00664824 -0.00657847 -0.00911326
v 0.00615348 -0.00711548 -0.00909529
v 0.00588037 -0.00736224 -0.00908982
v 0.00560803 -0.00760900 -0.00907810
v 0.00535762 -0.00781511 -0.00906872
v 0.00504821 -0.00804550 -0.00906013
v 0.00473652 -0.00826685 -0.00903903
v 0.00460716 -0.00842778 -0.00893745
v 0.01118583 -0.00675352 -0.00115855
v 0.01098081 -0.00707934 -0.00115855
v 0.01098081 -0.00707934 -0.00116168
v 0.01063660 -0.00746953 -0.00174773
v 0.01042326 -0.00779139 -0.00167741
v 0.01040435 -0.00776542 -0.00193527
v 0.01058440 -0.00765192 -0.00115855
v 0.01015545 -0.00803082 -0.00219313
v 0.01029541 -0.00784617 -0.00218141
v 0.01013351 -0.00774566 -0.00311597
v 0.01031281 -0.00789416 -0.00193527
v 0.01019555 -0.00761917 -0.00321052
v 0.01063206 -0.00694946 -0.00331289
v 0.01060255 -0.00690542 -0.00348245
v 0.01065854 -0.00672924 -0.00365124
v 0.01062601 -0.00667955 -0.00382315
v 0.01059045 -0.00651241 -0.00419353
v 0.01043688 -0.00657565 -0.00449359
v 0.01061541 -0.00639891 -0.00430996
v 0.01066307 -0.00622725 -0.00443889
v 0.01093013 -0.00572751 -0.00446155
v 0.01111396 -0.00557222 -0.00419353
v 0.01098989 -0.00556771 -0.00453423
v 0.01112379 -0.00530005 -0.00453266
v 0.01102469 -0.00528876 -0.00477334
v 0.01090213 -0.00516001 -0.00515935
v 0.01119112 -0.00497536 -0.00471160
v 0.01089835 -0.00489349 -0.00541018
v 0.01108597 -0.00430058 -0.00554927
v 0.01112228 -0.00430058 -0.00547191
v 0.01137950 -0.00430058 -0.00491946
v 0.00460716 -0.01006760 -0.00529844
v 0.00469037 -0.01006816 -0.00514138
v 0.00691907 -0.00999475 -0.00115855
v 0.00677079 -0.01006477 -0.00150393
v 0.00793734 -0.00477264 -0.00913436
v 0.00843362 -0.00430058 -0.00906950
v 0.00819380 -0.00451459 -0.00910936
v 0.00767937 -0.00503070 -0.00914139
v 0.00690545 -0.00606236 -0.00914139
v 0.00718007 -0.00607761 -0.00909373
v 0.00710517 -0.00627468 -0.00906560
v 0.00684039 -0.00657847 -0.00905622
v 0.00634336 -0.00704377 -0.00906560
v 0.00716343 -0.00580431 -0.00913983
v 0.00742140 -0.00554681 -0.00913280
v 0.00608085 -0.00728375 -0.00906403
v 0.00579943 -0.00752261 -0.00905622
v 0.00551725 -0.00776203 -0.00904528
v 0.00522069 -0.00798903 -0.00902262
v 0.00490901 -0.00821772 -0.00899214
v 0.00523128 -0.00825556 -0.00877101
v 0.00510040 -0.00829057 -0.00880851
v 0.00489539 -0.00847352 -0.00872803
v 0.00472366 -0.00851757 -0.00877569
v 0.00460716 -0.00855709 -0.00879679
v 0.01033172 -0.00792014 -0.00167741
v 0.01036576 -0.00796644 -0.00116168
v 0.01034912 -0.00794329 -0.00141954
v 0.01036576 -0.00796588 -0.00115855
v 0.01018344 -0.00806413 -0.00193527
v 0.01005030 -0.00815956 -0.00219313
v 0.00989067 -0.00827645 -0.00245100
v 0.00987176 -0.00825612 -0.00258774
v 0.01013503 -0.00800541 -0.00234863
v 0.00986949 -0.00799581 -0.00335274
v 0.01010930 -0.00771234 -0.00328788
v 0.01020311 -0.00808954 -0.00167741
v 0.01040132 -0.00724422 -0.00339259
v 0.01046487 -0.00710475 -0.00348089
v 0.01001474 -0.00735998 -0.00419353
v 0.01042402 -0.00676990 -0.00419353
v 0.01038846 -0.00671061 -0.00439201
v 0.01054657 -0.00655589 -0.00423729
v 0.01035215 -0.00665922 -0.00456392
v 0.01041040 -0.00648700 -0.00469441
v 0.01058288 -0.00631590 -0.00452094
v 0.01085674 -0.00580995 -0.00453423
v 0.01089684 -0.00566765 -0.00463346
v 0.01093391 -0.00547679 -0.00477334
v 0.01090213 -0.00541863 -0.00490383
v 0.01064870 -0.00517018 -0.00568602
v 0.01077504 -0.00503070 -0.00554615
v 0.01098157 -0.00453040 -0.00556255
v 0.01089381 -0.00462696 -0.00566023
v 0.01093164 -0.00445530 -0.00573212
v 0.01096341 -0.00430058 -0.00579619
v 0.00467827 -0.01005461 -0.00538361
v 0.00477208 -0.01006816 -0.00521170
v 0.00460716 -0.01004332 -0.00551176
v 0.00676096 -0.01006873 -0.00167741
v 0.00692815 -0.01000040 -0.00115855
v 0.00681467 -0.01006477 -0.00150393
v 0.00712409 -0.01003315 -0.00115855
v 0.00795323 -0.00504256 -0.00908982
v 0.00767937 -0.00528876 -0.00911951
v 0.00852667 -0.00430058 -0.00900387
v 0.00854180 -0.00431356 -0.00898902
v 0.00835872 -0.00451459 -0.00905309
v 0.00810529 -0.00496520 -0.00905700
v 0.00743123 -0.00580939 -0.00908748
v 0.00735180 -0.00600194 -0.00906247
v 0.00703255 -0.00644634 -0.00902574
v 0.00677760 -0.00670778 -0.00902809
v 0.00664824 -0.00676990 -0.00905622
v 0.00625258 -0.00721430 -0.00902184
v 0.00597191 -0.00745541 -0.00900543
v 0.00568973 -0.00769484 -0.00898824
v 0.00553011 -0.00802969 -0.00879914
v 0.00535762 -0.00794386 -0.00898199
v 0.00533341 -0.00811947 -0.00883664
v 0.00512007 -0.00812907 -0.00895229
v 0.00540377 -0.00820191 -0.00871865
v 0.00533341 -0.00832332 -0.00863582
v 0.00522145 -0.00850797 -0.00850689
v 0.00504896 -0.00855314 -0.00855612
v 0.00482276 -0.00859097 -0.00864129
v 0.00471004 -0.00876828 -0.00851002
v 0.00460716 -0.00869883 -0.00864051
v 0.01020236 -0.00814206 -0.00139766
v 0.01024699 -0.00812512 -0.00115855
v 0.01012897 -0.00825556 -0.00129764
v 0.01009644 -0.00821885 -0.00167741
v 0.01007450 -0.00819288 -0.00193527
v 0.00992169 -0.00830920 -0.00219313
v 0.00979913 -0.00843851 -0.00219313
v 0.00967052 -0.00857347 -0.00219313
v 0.00976736 -0.00840576 -0.00245100
v 0.00956386 -0.00846223 -0.00296673
v 0.00965010 -0.00829452 -0.00322459
v 0.00962589 -0.00826854 -0.00338868
v 0.00984755 -0.00822732 -0.00275887
v 0.00970230 -0.00813698 -0.00347776
v 0.00966220 -0.00805792 -0.00374032
v 0.00984377 -0.00796306 -0.00348245
v 0.00990353 -0.00778067 -0.00369500
v 0.00994514 -0.00783431 -0.00348245
v 0.00979686 -0.00811665 -0.00324959
v 0.01007450 -0.00766378 -0.00348245
v 0.01016529 -0.00753503 -0.00348245
v 0.00986571 -0.00747405 -0.00437482
v 0.01005937 -0.00724422 -0.00428652
v 0.00992698 -0.00730352 -0.00451547
v 0.01012065 -0.00695568 -0.00462878
v 0.01030751 -0.00657565 -0.00477724
v 0.01015016 -0.00648135 -0.00520155
v 0.01036728 -0.00641754 -0.00486632
v 0.01046260 -0.00632719 -0.00477724
v 0.01063054 -0.00616683 -0.00461080
v 0.01067821 -0.00599517 -0.00471317
v 0.01086280 -0.00560610 -0.00477334
v 0.01042629 -0.00574897 -0.00549926
v 0.01064567 -0.00542089 -0.00542112
v 0.01060331 -0.00534184 -0.00559303
v 0.01038316 -0.00567161 -0.00567117
v 0.01043158 -0.00549995 -0.00575712
v 0.01051707 -0.00529215 -0.00580792
v 0.01043007 -0.00524132 -0.00600405
v 0.01061012 -0.00503070 -0.00587199
v 0.01067896 -0.00503070 -0.00574306
v 0.01088625 -0.00434857 -0.00590403
v 0.01093239 -0.00430058 -0.00585480
v 0.00485151 -0.01004332 -0.00529375
v 0.00494381 -0.01005574 -0.00513278
v 0.00484168 -0.01000209 -0.00554615
v 0.00502702 -0.01006760 -0.00496087
v 0.00527894 -0.01006760 -0.00470145
v 0.00604454 -0.01006816 -0.00368327
v 0.00682980 -0.01006873 -0.00167741
v 0.00460716 -0.01003710 -0.00554693
v 0.00484168 -0.00995749 -0.00580401
v 0.00713997 -0.01003146 -0.00115855
v 0.00767710 -0.00553100 -0.00907185
v 0.00786926 -0.00528876 -0.00906325
v 0.00856374 -0.00430058 -0.00897339
v 0.00888299 -0.00446885 -0.00855768
v 0.00862729 -0.00447054 -0.00881711
v 0.00850549 -0.00454000 -0.00890150
v 0.00832317 -0.00464446 -0.00902731
v 0.00827626 -0.00481613 -0.00897964
v 0.00805006 -0.00513686 -0.00901324
v 0.00782008 -0.00543444 -0.00903668
v 0.00758859 -0.00572751 -0.00905466
v 0.00752353 -0.00589917 -0.00900308
v 0.00744939 -0.00609511 -0.00892338
v 0.00730263 -0.00646046 -0.00877804
v 0.00759691 -0.00676086 -0.00829357
v 0.00752202 -0.00693309 -0.00822871
v 0.00705600 -0.00672868 -0.00878742
v 0.00696900 -0.00657847 -0.00897495
v 0.00687292 -0.00680434 -0.00887181
v 0.00641372 -0.00711548 -0.00897808
v 0.00655140 -0.00750906 -0.00853737
v 0.00623291 -0.00724422 -0.00901012
v 0.00615272 -0.00736224 -0.00896167
v 0.00626544 -0.00748365 -0.00877257
v 0.00582288 -0.00805736 -0.00856706
v 0.00570940 -0.00822902 -0.00848657
v 0.00553767 -0.00828548 -0.00854674
v 0.00520556 -0.00875868 -0.00823887
v 0.00503307 -0.00879595 -0.00828732
v 0.00497104 -0.00902803 -0.00799585
v 0.00464422 -0.00900093 -0.00821543
v 0.00460716 -0.00890606 -0.00837093
v 0.00460716 -0.00888235 -0.00840453
v 0.01013805 -0.00826572 -0.00115855
v 0.00988840 -0.00853168 -0.00116168
v 0.00987630 -0.00851870 -0.00132656
v 0.00984679 -0.00848707 -0.00167741
v 0.00982485 -0.00846336 -0.00193527
v 0.00994514 -0.00833461 -0.00193527
v 0.00969549 -0.00860057 -0.00193527
v 0.00956915 -0.00872932 -0.00193527
v 0.00954267 -0.00870221 -0.00219313
v 0.00951090 -0.00866720 -0.00245100
v 0.00963799 -0.00853902 -0.00245100
v 0.00943449 -0.00859549 -0.00296673
v 0.00952452 -0.00842383 -0.00322459
v 0.00936792 -0.00852604 -0.00338790
v 0.00933312 -0.00849046 -0.00355981
v 0.00934825 -0.00824765 -0.00411227
v 0.00959109 -0.00823071 -0.00355981
v 0.00939591 -0.00855483 -0.00322459
v 0.00942693 -0.00808390 -0.00425761
v 0.00962816 -0.00801557 -0.00390832
v 0.00980670 -0.00786706 -0.00376454
v 0.00966145 -0.00779817 -0.00425761
v 0.00986873 -0.00773662 -0.00386690
v 0.00980367 -0.00760731 -0.00427636
v 0.00969700 -0.00761747 -0.00451000
v 0.00983620 -0.00743226 -0.00451547
v 0.00988991 -0.00725100 -0.00468191
v 0.00989294 -0.00724422 -0.00468582
v 0.00992093 -0.00656775 -0.00552505
v 0.01010476 -0.00641415 -0.00537345
v 0.01006618 -0.00632493 -0.00555865
v 0.01011611 -0.00617134 -0.00565320
v 0.01051480 -0.00554625 -0.00554615
v 0.01016453 -0.00599912 -0.00574150
v 0.01011611 -0.00591272 -0.00591341
v 0.01038316 -0.00541299 -0.00592903
v 0.01034382 -0.00531191 -0.00607906
v 0.01014940 -0.00519841 -0.00648305
v 0.01037560 -0.00513968 -0.00617596
v 0.01048000 -0.00504482 -0.00607906
v 0.01063962 -0.00489405 -0.00592747
v 0.01067745 -0.00472182 -0.00598842
v 0.01081438 -0.00430058 -0.00605875
v 0.01085674 -0.00430058 -0.00598764
v 0.00510040 -0.01000605 -0.00528828
v 0.00510797 -0.01004445 -0.00504058
v 0.00519875 -0.01005517 -0.00487336
v 0.00510040 -0.00996200 -0.00554615
v 0.00545219 -0.01005404 -0.00460690
v 0.00552708 -0.01006703 -0.00443499
v 0.00576236 -0.01006252 -0.00415134
v 0.00574723 -0.01006026 -0.00419353
v 0.00613154 -0.01001282 -0.00399818
v 0.00638951 -0.00996257 -0.00399818
v 0.00638951 -0.00999250 -0.00374032
v 0.00626393 -0.01006082 -0.00335977
v 0.00629797 -0.01006590 -0.00322459
v 0.00654989 -0.01006590 -0.00270886
v 0.00655594 -0.01006816 -0.00249632
v 0.00680938 -0.01006703 -0.00193527
v 0.00460716 -0.00999588 -0.00577979
v 0.00460716 -0.00994789 -0.00603843
v 0.00484168 -0.00990328 -0.00606265
v 0.00510040 -0.00991118 -0.00580401
v 0.00535762 -0.00991683 -0.00554615
v 0.00716343 -0.01001621 -0.00141954
v 0.00738433 -0.00997612 -0.00115855
v 0.00879523 -0.00430058 -0.00873584
v 0.00913718 -0.00446659 -0.00829747
v 0.00909330 -0.00463882 -0.00825059
v 0.00892762 -0.00477264 -0.00834436
v 0.00882701 -0.00513855 -0.00824199
v 0.00836099 -0.00497028 -0.00880773
v 0.00831258 -0.00514194 -0.00876007
v 0.00820818 -0.00505385 -0.00891010
v 0.00813479 -0.00528876 -0.00883508
v 0.00776032 -0.00560667 -0.00898199
v 0.00768996 -0.00581786 -0.00890619
v 0.00779134 -0.00590877 -0.00875381
v 0.00808562 -0.00621482 -0.00827091
v 0.00781706 -0.00620184 -0.00851939
v 0.00784202 -0.00648813 -0.00828263
v 0.00776788 -0.00666035 -0.00821777
v 0.00735029 -0.00702400 -0.00830294
v 0.00769148 -0.00685008 -0.00813729
v 0.00761431 -0.00703755 -0.00805680
v 0.00753715 -0.00720865 -0.00798257
v 0.00744409 -0.00711661 -0.00814432
v 0.00726480 -0.00719510 -0.00823105
v 0.00707491 -0.00700367 -0.00854362
v 0.00683056 -0.00753164 -0.00829669
v 0.00673826 -0.00770387 -0.00822480
v 0.00656578 -0.00777784 -0.00828888
v 0.00645987 -0.00794950 -0.00821152
v 0.00628814 -0.00801783 -0.00827325
v 0.00600369 -0.00825443 -0.00825372
v 0.00552027 -0.00853338 -0.00827794
v 0.00535762 -0.00858420 -0.00833264
v 0.00535762 -0.00871294 -0.00818652
v 0.00550212 -0.00877788 -0.00800679
v 0.00535762 -0.00881176 -0.00805758
v 0.00514277 -0.00898963 -0.00793646
v 0.00507393 -0.00907321 -0.00785754
v 0.00489085 -0.00925729 -0.00768563
v 0.00481974 -0.00918558 -0.00784270
v 0.00460716 -0.00922680 -0.00790130
v 0.00484168 -0.00905288 -0.00803180
v 0.00460716 -0.00908563 -0.00811384
v 0.00988840 -0.00853168 -0.00115855
v 0.00976433 -0.00866043 -0.00116168
v 0.00976358 -0.00866156 -0.00115855
v 0.00960773 -0.00876602 -0.00152503
v 0.00959412 -0.00875247 -0.00167741
v 0.00941406 -0.00882023 -0.00219313
v 0.00938078 -0.00879313 -0.00245100
v 0.00936111 -0.00877562 -0.00260493
v 0.00947686 -0.00863445 -0.00268620
v 0.00933539 -0.00875191 -0.00277606
v 0.00930588 -0.00872424 -0.00296673
v 0.00910843 -0.00878014 -0.00338400
v 0.00922040 -0.00863671 -0.00347151
v 0.00916668 -0.00858194 -0.00374032
v 0.00926427 -0.00868358 -0.00322459
v 0.00929529 -0.00845376 -0.00374032
v 0.00920224 -0.00835946 -0.00419353
v 0.00918862 -0.00834647 -0.00425761
v 0.00931799 -0.00821264 -0.00425761
v 0.00936187 -0.00819231 -0.00419353
v 0.00938532 -0.00803420 -0.00445218
v 0.00956991 -0.00794329 -0.00419353
v 0.00970305 -0.00787892 -0.00399584
v 0.00962665 -0.00775638 -0.00441936
v 0.00958731 -0.00770895 -0.00459127
v 0.00965766 -0.00753673 -0.00472801
v 0.00975071 -0.00736450 -0.00479131
v 0.00962740 -0.00724422 -0.00518904
v 0.00958201 -0.00718042 -0.00536095
v 0.00959639 -0.00694325 -0.00564617
v 0.00988764 -0.00647514 -0.00570633
v 0.00994060 -0.00631759 -0.00579776
v 0.00989597 -0.00622951 -0.00597201
v 0.01007829 -0.00607591 -0.00581807
v 0.00994211 -0.00605671 -0.00605953
v 0.01006997 -0.00581786 -0.00607047
v 0.01016377 -0.00574106 -0.00598998
v 0.00988235 -0.00569815 -0.00646899
v 0.00991639 -0.00552649 -0.00656432
v 0.00986722 -0.00515549 -0.00696049
v 0.01000415 -0.00504030 -0.00684328
v 0.01013956 -0.00492511 -0.00672529
v 0.01036425 -0.00485057 -0.00641272
v 0.01052463 -0.00430058 -0.00653619
v 0.00535762 -0.00996483 -0.00528828
v 0.00535762 -0.01000548 -0.00503120
v 0.00561559 -0.01000097 -0.00477334
v 0.00587357 -0.00995523 -0.00477334
v 0.00587357 -0.00999250 -0.00451547
v 0.00569957 -0.01005122 -0.00432403
v 0.00580472 -0.01004953 -0.00419353
v 0.00619508 -0.00997556 -0.00419353
v 0.00664748 -0.00990271 -0.00399818
v 0.00664748 -0.00993829 -0.00374032
v 0.00664748 -0.00996934 -0.00348245
v 0.00638951 -0.00993546 -0.00419353
v 0.00664748 -0.00999701 -0.00322459
v 0.00647802 -0.01005235 -0.00301830
v 0.00652266 -0.01006082 -0.00284639
v 0.00690545 -0.01001057 -0.00245100
v 0.00678593 -0.01006139 -0.00209780
v 0.00688579 -0.01003372 -0.00218766
v 0.00716343 -0.00997217 -0.00219313
v 0.00716343 -0.00998854 -0.00193527
v 0.00716343 -0.01000435 -0.00167741
v 0.00460716 -0.00994224 -0.00606265
v 0.00460716 -0.00988690 -0.00629551
v 0.00483184 -0.00983326 -0.00632052
v 0.00502248 -0.00981575 -0.00623456
v 0.00510494 -0.00984229 -0.00607047
v 0.00536972 -0.00984681 -0.00581807
v 0.00563224 -0.00984850 -0.00556255
v 0.00561559 -0.00991570 -0.00528828
v 0.00742140 -0.00995749 -0.00141954
v 0.00742442 -0.00996652 -0.00115855
v 0.00907817 -0.00430058 -0.00843969
v 0.00917501 -0.00430058 -0.00833733
v 0.00933009 -0.00430058 -0.00817010
v 0.00938456 -0.00445247 -0.00803180
v 0.00924082 -0.00454565 -0.00814119
v 0.00905623 -0.00477264 -0.00821230
v 0.00934447 -0.00462414 -0.00798413
v 0.00917576 -0.00477264 -0.00808337
v 0.00890417 -0.00528876 -0.00806852
v 0.00878313 -0.00528876 -0.00819745
v 0.00865377 -0.00528876 -0.00832795
v 0.00860459 -0.00545421 -0.00827794
v 0.00831560 -0.00592176 -0.00824668
v 0.00811361 -0.00574389 -0.00855612
v 0.00795247 -0.00582633 -0.00865536
v 0.00826643 -0.00606236 -0.00819745
v 0.00834057 -0.00621539 -0.00801461
v 0.00817943 -0.00630122 -0.00810994
v 0.00810529 -0.00649434 -0.00803336
v 0.00801375 -0.00638705 -0.00820605
v 0.00791540 -0.00629444 -0.00836311
v 0.00813782 -0.00606236 -0.00832248
v 0.00786018 -0.00676707 -0.00804586
v 0.00778604 -0.00693930 -0.00797163
v 0.00727539 -0.00746445 -0.00798022
v 0.00736466 -0.00729222 -0.00805915
v 0.00770358 -0.00712056 -0.00789114
v 0.00779134 -0.00720300 -0.00772002
v 0.00804780 -0.00745993 -0.00720272
v 0.00779361 -0.00746501 -0.00746528
v 0.00727615 -0.00798112 -0.00746371
v 0.00727615 -0.00772250 -0.00772236
v 0.00700229 -0.00744977 -0.00822715
v 0.00710442 -0.00754633 -0.00805524
v 0.00692210 -0.00762538 -0.00814041
v 0.00684191 -0.00779817 -0.00805289
v 0.00665656 -0.00787384 -0.00813182
v 0.00657410 -0.00804211 -0.00803961
v 0.00637665 -0.00811608 -0.00811619
v 0.00617466 -0.00819005 -0.00819198
v 0.00629268 -0.00827589 -0.00802008
v 0.00610657 -0.00831259 -0.00811384
v 0.00598629 -0.00850175 -0.00798413
v 0.00581380 -0.00855540 -0.00804508
v 0.00589021 -0.00865252 -0.00787786
v 0.00596586 -0.00874852 -0.00771064
v 0.00579413 -0.00879426 -0.00777159
v 0.00587735 -0.00885637 -0.00761843
v 0.00573285 -0.00902239 -0.00747075
v 0.00535535 -0.00894502 -0.00785754
v 0.00535535 -0.00910257 -0.00761453
v 0.00510343 -0.00921946 -0.00760280
v 0.00519194 -0.00927254 -0.00745356
v 0.00502021 -0.00930190 -0.00751372
v 0.00471912 -0.00928778 -0.00774111
v 0.00460716 -0.00924148 -0.00787786
v 0.00962135 -0.00877845 -0.00135312
v 0.00963572 -0.00879087 -0.00115855
v 0.00950636 -0.00886032 -0.00143126
v 0.00928167 -0.00897043 -0.00193527
v 0.00944054 -0.00884112 -0.00193527
v 0.00925217 -0.00894898 -0.00219313
v 0.00920300 -0.00893486 -0.00243928
v 0.00901311 -0.00896422 -0.00296673
v 0.00917652 -0.00883491 -0.00296673
v 0.00913567 -0.00880329 -0.00322459
v 0.00907136 -0.00874795 -0.00355591
v 0.00885651 -0.00904158 -0.00314098
v 0.00882247 -0.00901561 -0.00331289
v 0.00873093 -0.00886823 -0.00401225
v 0.00883079 -0.00876263 -0.00410758
v 0.00907212 -0.00848877 -0.00419353
v 0.00905775 -0.00847521 -0.00425761
v 0.00913037 -0.00828831 -0.00451547
v 0.00927260 -0.00812229 -0.00452876
v 0.00934447 -0.00798395 -0.00462409
v 0.00955326 -0.00761747 -0.00479756
v 0.00961000 -0.00747856 -0.00489992
v 0.00936489 -0.00723576 -0.00569383
v 0.00953965 -0.00709402 -0.00555474
v 0.00941482 -0.00708555 -0.00578994
v 0.00955932 -0.00684895 -0.00582354
v 0.00983696 -0.00640117 -0.00587824
v 0.00960546 -0.00669762 -0.00592200
v 0.00937397 -0.00699351 -0.00596263
v 0.00966598 -0.00626960 -0.00627051
v 0.00960773 -0.00618490 -0.00644242
v 0.00960773 -0.00592627 -0.00669950
v 0.00988916 -0.00596750 -0.00622206
v 0.00983469 -0.00586981 -0.00639397
v 0.00965539 -0.00575461 -0.00677452
v 0.00960017 -0.00565467 -0.00694642
v 0.00964783 -0.00548244 -0.00701050
v 0.00981351 -0.00505385 -0.00710192
v 0.00991337 -0.00498327 -0.00702222
v 0.01009342 -0.00477264 -0.00690970
v 0.01017361 -0.00477264 -0.00678077
v 0.01022808 -0.00453548 -0.00685734
v 0.01033475 -0.00430058 -0.00684640
v 0.00561559 -0.00996087 -0.00503120
v 0.00587357 -0.00990949 -0.00503120
v 0.00613154 -0.00989932 -0.00477334
v 0.00613154 -0.00994280 -0.00451547
v 0.00613154 -0.00997894 -0.00425761
v 0.00672843 -0.00984342 -0.00419353
v 0.00690545 -0.00986940 -0.00374032
v 0.00690545 -0.00990949 -0.00348245
v 0.00645230 -0.00992078 -0.00419353
v 0.00638951 -0.00988013 -0.00451547
v 0.00666640 -0.00984850 -0.00427167
v 0.00690545 -0.00994224 -0.00322459
v 0.00638951 -0.00992586 -0.00425761
v 0.00690545 -0.00996652 -0.00296673
v 0.00690545 -0.00998911 -0.00270886
v 0.00716343 -0.00995466 -0.00245100
v 0.00742140 -0.00994563 -0.00167741
v 0.00460716 -0.00988013 -0.00631974
v 0.00460716 -0.00982648 -0.00650337
v 0.00473955 -0.00980785 -0.00646820
v 0.00491128 -0.00978808 -0.00640647
v 0.00510040 -0.00968757 -0.00657838
v 0.00510494 -0.00976775 -0.00632052
v 0.00535762 -0.00970225 -0.00631974
v 0.00519497 -0.00979260 -0.00616111
v 0.00536972 -0.00977397 -0.00607047
v 0.00529105 -0.00981801 -0.00598920
v 0.00555734 -0.00982083 -0.00573993
v 0.00580775 -0.00982027 -0.00548754
v 0.00588491 -0.00984568 -0.00529844
v 0.00572907 -0.00979768 -0.00565945
v 0.00767937 -0.00989763 -0.00115855
v 0.00941785 -0.00430058 -0.00806930
v 0.00954419 -0.00430058 -0.00791302
v 0.00948442 -0.00451628 -0.00786770
v 0.00907741 -0.00512670 -0.00797241
v 0.00912508 -0.00495447 -0.00802867
v 0.00958428 -0.00458066 -0.00770204
v 0.00984755 -0.00485565 -0.00719413
v 0.00960698 -0.00489179 -0.00747309
v 0.00930437 -0.00477264 -0.00793412
v 0.00885878 -0.00544969 -0.00801851
v 0.00870370 -0.00553778 -0.00811931
v 0.00854634 -0.00562587 -0.00822012
v 0.00839352 -0.00606236 -0.00806852
v 0.00827551 -0.00638761 -0.00794428
v 0.00863031 -0.00574840 -0.00804821
v 0.00857130 -0.00591950 -0.00798491
v 0.00858492 -0.00619732 -0.00774346
v 0.00884365 -0.00645707 -0.00722851
v 0.00852440 -0.00636954 -0.00767313
v 0.00859778 -0.00647401 -0.00750122
v 0.00835267 -0.00648643 -0.00777237
v 0.00819229 -0.00657678 -0.00786536
v 0.00803115 -0.00666656 -0.00795834
v 0.00795474 -0.00711435 -0.00762703
v 0.00719066 -0.00789304 -0.00763484
v 0.00719066 -0.00763498 -0.00789192
v 0.00701439 -0.00771855 -0.00797632
v 0.00808562 -0.00724366 -0.00736448
v 0.00826718 -0.00724422 -0.00716444
v 0.00820893 -0.00736902 -0.00711052
v 0.00812572 -0.00754802 -0.00703082
v 0.00804780 -0.00771968 -0.00694330
v 0.00796231 -0.00763554 -0.00711911
v 0.00787682 -0.00780551 -0.00703394
v 0.00779134 -0.00772250 -0.00720585
v 0.00710442 -0.00805905 -0.00754654
v 0.00701288 -0.00797717 -0.00771845
v 0.00736088 -0.00806470 -0.00729181
v 0.00727161 -0.00823636 -0.00720194
v 0.00692815 -0.00788739 -0.00788645
v 0.00674583 -0.00796983 -0.00796850
v 0.00646516 -0.00821434 -0.00795053
v 0.00627301 -0.00852095 -0.00774815
v 0.00613154 -0.00856726 -0.00780128
v 0.00613154 -0.00845658 -0.00793021
v 0.00614969 -0.00870617 -0.00761843
v 0.00624728 -0.00876150 -0.00746762
v 0.00607556 -0.00880950 -0.00753873
v 0.00587357 -0.00898907 -0.00741527
v 0.00587357 -0.00906925 -0.00728555
v 0.00563375 -0.00912967 -0.00737151
v 0.00538259 -0.00924656 -0.00736057
v 0.00548547 -0.00928552 -0.00722070
v 0.00510343 -0.00934707 -0.00736057
v 0.00484168 -0.00943911 -0.00735041
v 0.00481974 -0.00932392 -0.00760280
v 0.00460716 -0.00930303 -0.00777159
v 0.00460943 -0.00950913 -0.00735744
v 0.00460716 -0.00938547 -0.00760827
v 0.00961227 -0.00881007 -0.00115855
v 0.00946097 -0.00893091 -0.00115855
v 0.00934220 -0.00901843 -0.00121560
v 0.00915231 -0.00907208 -0.00193527
v 0.00912356 -0.00904892 -0.00219313
v 0.00910238 -0.00903311 -0.00234551
v 0.00907817 -0.00901391 -0.00251742
v 0.00888450 -0.00906304 -0.00296673
v 0.00856298 -0.00927536 -0.00304252
v 0.00872563 -0.00911217 -0.00322615
v 0.00865755 -0.00908450 -0.00348245
v 0.00857887 -0.00902634 -0.00386456
v 0.00870445 -0.00896479 -0.00376298
v 0.00854937 -0.00900601 -0.00399818
v 0.00866284 -0.00883265 -0.00425761
v 0.00861291 -0.00879539 -0.00444905
v 0.00856677 -0.00875925 -0.00462096
v 0.00880885 -0.00874344 -0.00419353
v 0.00892914 -0.00860114 -0.00425761
v 0.00887996 -0.00855145 -0.00446312
v 0.00909784 -0.00825556 -0.00464753
v 0.00915912 -0.00811947 -0.00474911
v 0.00912356 -0.00802969 -0.00495150
v 0.00930286 -0.00793482 -0.00477334
v 0.00922191 -0.00786311 -0.00502495
v 0.00929983 -0.00741532 -0.00554615
v 0.00935354 -0.00724422 -0.00570165
v 0.00931042 -0.00716574 -0.00586574
v 0.00908422 -0.00694946 -0.00643304
v 0.00908649 -0.00669310 -0.00669169
v 0.00931799 -0.00639665 -0.00665340
v 0.00937775 -0.00622499 -0.00674013
v 0.00943146 -0.00605728 -0.00682921
v 0.00937851 -0.00596863 -0.00699409
v 0.00956537 -0.00582576 -0.00684953
v 0.00941785 -0.00578567 -0.00708551
v 0.00936111 -0.00568742 -0.00723086
v 0.00953813 -0.00555980 -0.00709567
v 0.00958050 -0.00536104 -0.00718241
v 0.00962816 -0.00518881 -0.00724258
v 0.00967204 -0.00503070 -0.00729727
v 0.00995649 -0.00477095 -0.00710192
v 0.01012368 -0.00463543 -0.00695814
v 0.01015999 -0.00446320 -0.00700894
v 0.01018420 -0.00430058 -0.00707067
v 0.00613835 -0.00984060 -0.00503432
v 0.00638648 -0.00983043 -0.00475771
v 0.00681770 -0.00981575 -0.00419353
v 0.00690394 -0.00982818 -0.00397474
v 0.00707264 -0.00981462 -0.00374032
v 0.00716721 -0.00983213 -0.00346292
v 0.00716343 -0.00986940 -0.00322459
v 0.00658242 -0.00982253 -0.00451547
v 0.00676323 -0.00979768 -0.00436700
v 0.00716343 -0.00990215 -0.00296673
v 0.00716343 -0.00993151 -0.00270886
v 0.00742140 -0.00988351 -0.00245100
v 0.00742140 -0.00990610 -0.00219313
v 0.00742140 -0.00992756 -0.00193527
v 0.00767937 -0.00986883 -0.00167741
v 0.00767937 -0.00988408 -0.00141954
v 0.00460716 -0.00978808 -0.00662370
v 0.00483184 -0.00975590 -0.00656354
v 0.00537048 -0.00960513 -0.00659323
v 0.00460716 -0.00972823 -0.00680812
v 0.00460716 -0.00971919 -0.00683468
v 0.00484168 -0.00966216 -0.00683468
v 0.00509435 -0.00959158 -0.00683859
v 0.00529407 -0.00956617 -0.00675576
v 0.00563602 -0.00961190 -0.00634083
v 0.00587357 -0.00963562 -0.00606265
v 0.00561559 -0.00971129 -0.00606265
v 0.00563224 -0.00977792 -0.00581807
v 0.00613154 -0.00970903 -0.00554615
v 0.00613835 -0.00977284 -0.00529844
v 0.00605664 -0.00981745 -0.00521874
v 0.00587357 -0.00971580 -0.00580401
v 0.00787985 -0.00982930 -0.00115855
v 0.00957520 -0.00430058 -0.00787317
v 0.00903278 -0.00528876 -0.00791693
v 0.00968641 -0.00450273 -0.00761296
v 0.00988840 -0.00468343 -0.00724570
v 0.00962211 -0.00440899 -0.00775049
v 0.00913642 -0.00528876 -0.00778800
v 0.00956915 -0.00503070 -0.00742621
v 0.00880280 -0.00562192 -0.00795366
v 0.00909860 -0.00542315 -0.00774189
v 0.00911978 -0.00571113 -0.00750904
v 0.00887542 -0.00572977 -0.00778175
v 0.00881642 -0.00590143 -0.00771220
v 0.00889131 -0.00632042 -0.00728399
v 0.00907515 -0.00616118 -0.00719726
v 0.00889812 -0.00655702 -0.00708083
v 0.00885576 -0.00673094 -0.00698628
v 0.00878162 -0.00662929 -0.00715818
v 0.00860989 -0.00674336 -0.00725508
v 0.00828156 -0.00665866 -0.00769267
v 0.00811059 -0.00675917 -0.00778643
v 0.00853802 -0.00691502 -0.00717616
v 0.00861518 -0.00700593 -0.00700425
v 0.00837083 -0.00727754 -0.00701753
v 0.00829669 -0.00744977 -0.00692923
v 0.00778907 -0.00797717 -0.00694252
v 0.00820591 -0.00762199 -0.00685031
v 0.00811513 -0.00779309 -0.00677139
v 0.00803569 -0.00796531 -0.00666903
v 0.00786321 -0.00805058 -0.00677061
v 0.00761658 -0.00806131 -0.00703238
v 0.00700456 -0.00823128 -0.00745356
v 0.00684115 -0.00805058 -0.00779659
v 0.00709912 -0.00830186 -0.00728165
v 0.00752655 -0.00823297 -0.00693783
v 0.00735407 -0.00830299 -0.00702925
v 0.00707264 -0.00854128 -0.00700190
v 0.00665505 -0.00813246 -0.00787317
v 0.00673675 -0.00822281 -0.00770204
v 0.00656427 -0.00828718 -0.00777862
v 0.00683359 -0.00829452 -0.00753013
v 0.00663538 -0.00858702 -0.00734260
v 0.00651736 -0.00876885 -0.00722070
v 0.00634563 -0.00881515 -0.00729571
v 0.00613002 -0.00889816 -0.00734963
v 0.00601201 -0.00903255 -0.00723007
v 0.00585995 -0.00919743 -0.00707770
v 0.00561559 -0.00925842 -0.00716991
v 0.00576463 -0.00929399 -0.00698081
v 0.00561559 -0.00932166 -0.00704097
v 0.00537048 -0.00950123 -0.00683859
v 0.00517757 -0.00952664 -0.00692767
v 0.00500584 -0.00955544 -0.00698862
v 0.00484168 -0.00952212 -0.00717538
v 0.00471156 -0.00954358 -0.00722148
v 0.00460716 -0.00961473 -0.00712146
v 0.00460716 -0.00951026 -0.00735588
v 0.00460716 -0.00950913 -0.00735823
v 0.00926654 -0.00908506 -0.00115855
v 0.00919619 -0.00910596 -0.00141954
v 0.00894956 -0.00921720 -0.00195871
v 0.00883760 -0.00928496 -0.00205951
v 0.00896696 -0.00916581 -0.00219313
v 0.00904413 -0.00925221 -0.00116168
v 0.00898209 -0.00910426 -0.00243928
v 0.00878010 -0.00924825 -0.00245100
v 0.00874228 -0.00922059 -0.00270886
v 0.00868932 -0.00920421 -0.00296047
v 0.00839731 -0.00932561 -0.00322459
v 0.00832014 -0.00928383 -0.00360357
v 0.00852591 -0.00925164 -0.00322459
v 0.00859022 -0.00929173 -0.00287061
v 0.00809394 -0.00955883 -0.00290656
v 0.00829139 -0.00926632 -0.00374032
v 0.00847674 -0.00913024 -0.00376298
v 0.00842151 -0.00909862 -0.00399818
v 0.00845405 -0.00897439 -0.00428183
v 0.00837461 -0.00906361 -0.00419353
v 0.00819078 -0.00896309 -0.00478818
v 0.00834738 -0.00878861 -0.00494759
v 0.00879221 -0.00872932 -0.00425761
v 0.00829896 -0.00875021 -0.00511950
v 0.00845707 -0.00864688 -0.00504058
v 0.00866663 -0.00859154 -0.00477334
v 0.00861367 -0.00854298 -0.00496165
v 0.00872185 -0.00839447 -0.00505308
v 0.00882852 -0.00824483 -0.00514372
v 0.00904867 -0.00820135 -0.00481944
v 0.00878767 -0.00819796 -0.00528828
v 0.00889963 -0.00806865 -0.00528828
v 0.00885500 -0.00801670 -0.00544613
v 0.00915761 -0.00760223 -0.00552348
v 0.00904942 -0.00768298 -0.00559381
v 0.00912205 -0.00751132 -0.00571571
v 0.00921661 -0.00733966 -0.00579073
v 0.00913869 -0.00727189 -0.00599076
v 0.00885046 -0.00697939 -0.00672294
v 0.00878691 -0.00690260 -0.00689485
v 0.00904337 -0.00659541 -0.00685344
v 0.00908725 -0.00643618 -0.00695111
v 0.00931799 -0.00614029 -0.00691204
v 0.00913491 -0.00598895 -0.00726680
v 0.00940045 -0.00554681 -0.00728008
v 0.01006618 -0.00453548 -0.00709411
v 0.01009644 -0.00431300 -0.00718085
v 0.01007602 -0.00430058 -0.00721523
v 0.00622762 -0.00979204 -0.00512184
v 0.00629797 -0.00981349 -0.00494993
v 0.00646970 -0.00978639 -0.00483350
v 0.00693269 -0.00977623 -0.00419353
v 0.00698943 -0.00978582 -0.00404428
v 0.00690394 -0.00977058 -0.00427167
v 0.00703633 -0.00980220 -0.00387237
v 0.00713922 -0.00974743 -0.00397474
v 0.00720201 -0.00977001 -0.00374032
v 0.00725648 -0.00978921 -0.00353559
v 0.00729733 -0.00980276 -0.00336368
v 0.00737979 -0.00983326 -0.00296673
v 0.00744107 -0.00984624 -0.00271902
v 0.00690545 -0.00971806 -0.00451547
v 0.00760221 -0.00982083 -0.00245100
v 0.00763928 -0.00983552 -0.00219313
v 0.00769677 -0.00984173 -0.00193136
v 0.00781933 -0.00980559 -0.00184306
v 0.00783521 -0.00981180 -0.00167741
v 0.00785791 -0.00982083 -0.00141954
v 0.00556339 -0.00957181 -0.00651743
v 0.00484168 -0.00957972 -0.00704644
v 0.00546505 -0.00953624 -0.00668778
v 0.00587357 -0.00956730 -0.00624941
v 0.00600369 -0.00954414 -0.00619159
v 0.00606648 -0.00956899 -0.00606265
v 0.00615575 -0.00961642 -0.00582901
v 0.00638951 -0.00969999 -0.00528828
v 0.00801073 -0.00977848 -0.00115855
v 0.00998297 -0.00430058 -0.00733791
v 0.00992471 -0.00451459 -0.00729415
v 0.00982637 -0.00451459 -0.00742308
v 0.00869840 -0.00682298 -0.00708083
v 0.00836099 -0.00675126 -0.00752076
v 0.00854104 -0.00717816 -0.00691204
v 0.00869613 -0.00707878 -0.00681749
v 0.00836099 -0.00752430 -0.00675654
v 0.00835040 -0.00776994 -0.00648618
v 0.00828610 -0.00769596 -0.00665809
v 0.00819456 -0.00786763 -0.00657838
v 0.00810302 -0.00803703 -0.00649790
v 0.00794188 -0.00812963 -0.00658229
v 0.00777318 -0.00822224 -0.00666668
v 0.00698111 -0.00847352 -0.00717381
v 0.00690697 -0.00838430 -0.00735197
v 0.00784732 -0.00828605 -0.00649477
v 0.00760069 -0.00829565 -0.00676592
v 0.00742442 -0.00838543 -0.00683859
v 0.00724362 -0.00847465 -0.00691126
v 0.00678441 -0.00877449 -0.00697065
v 0.00688276 -0.00862429 -0.00707223
v 0.00714224 -0.00862429 -0.00681124
v 0.00703936 -0.00877336 -0.00671200
v 0.00695690 -0.00871294 -0.00688391
v 0.00664748 -0.00881176 -0.00703238
v 0.00618449 -0.00898681 -0.00715350
v 0.00611187 -0.00907038 -0.00707770
v 0.00612322 -0.00920760 -0.00682531
v 0.00620492 -0.00926124 -0.00665730
v 0.00593636 -0.00925559 -0.00690501
v 0.00603319 -0.00929795 -0.00673232
v 0.00587357 -0.00942726 -0.00657838
v 0.00563602 -0.00951252 -0.00659323
v 0.00924914 -0.00909862 -0.00115855
v 0.00885273 -0.00929456 -0.00188760
v 0.00851835 -0.00950744 -0.00167741
v 0.00839050 -0.00957972 -0.00167741
v 0.00836402 -0.00956560 -0.00193527
v 0.00833981 -0.00955261 -0.00212124
v 0.00869008 -0.00934651 -0.00219313
v 0.00881869 -0.00927366 -0.00219313
v 0.00904564 -0.00925108 -0.00115855
v 0.00904337 -0.00925277 -0.00115855
v 0.00891552 -0.00933013 -0.00115855
v 0.00887013 -0.00930529 -0.00167741
v 0.00805990 -0.00953963 -0.00307847
v 0.00819532 -0.00943460 -0.00322459
v 0.00816279 -0.00933747 -0.00374032
v 0.00797593 -0.00949502 -0.00348245
v 0.00825508 -0.00950575 -0.00270886
v 0.00812647 -0.00957577 -0.00270886
v 0.00793734 -0.00966047 -0.00270886
v 0.00795853 -0.00960626 -0.00298235
v 0.00789952 -0.00958875 -0.00322459
v 0.00784656 -0.00956334 -0.00348245
v 0.00810302 -0.00930585 -0.00399818
v 0.00823087 -0.00922736 -0.00399818
v 0.00836932 -0.00906022 -0.00421307
v 0.00815749 -0.00909184 -0.00451547
v 0.00820439 -0.00917654 -0.00419353
v 0.00805536 -0.00902069 -0.00488429
v 0.00820591 -0.00885468 -0.00503276
v 0.00856525 -0.00849780 -0.00513356
v 0.00811588 -0.00880499 -0.00528828
v 0.00807049 -0.00877393 -0.00542425
v 0.00824449 -0.00870221 -0.00528828
v 0.00838974 -0.00857347 -0.00528828
v 0.00851759 -0.00845658 -0.00528828
v 0.00865830 -0.00832727 -0.00528828
v 0.00860686 -0.00827984 -0.00545863
v 0.00870521 -0.00812060 -0.00553911
v 0.00880431 -0.00795628 -0.00561803
v 0.00887694 -0.00778405 -0.00573446
v 0.00897150 -0.00761409 -0.00581104
v 0.00906531 -0.00744356 -0.00588762
v 0.00881944 -0.00771686 -0.00590637
v 0.00857433 -0.00798903 -0.00592513
v 0.00889358 -0.00754463 -0.00600796
v 0.00885727 -0.00724422 -0.00640725
v 0.00638648 -0.00976550 -0.00503432
v 0.00662933 -0.00975194 -0.00475771
v 0.00664748 -0.00968136 -0.00503120
v 0.00716343 -0.00968362 -0.00425761
v 0.00742140 -0.00969265 -0.00374032
v 0.00739870 -0.00975025 -0.00346292
v 0.00767937 -0.00972428 -0.00296673
v 0.00750915 -0.00978639 -0.00296673
v 0.00754017 -0.00979768 -0.00281123
v 0.00757270 -0.00980954 -0.00264010
v 0.00690545 -0.00965482 -0.00477334
v 0.00718461 -0.00960965 -0.00453423
v 0.00773081 -0.00977227 -0.00245100
v 0.00793734 -0.00972258 -0.00219313
v 0.00791767 -0.00975816 -0.00193136
v 0.00819532 -0.00966950 -0.00167741
v 0.00796382 -0.00976211 -0.00167741
v 0.00798727 -0.00977058 -0.00141954
v 0.00629948 -0.00930190 -0.00648539
v 0.00638724 -0.00933521 -0.00631739
v 0.00619508 -0.00951760 -0.00606265
v 0.00625939 -0.00954301 -0.00593138
v 0.00633580 -0.00957407 -0.00575947
v 0.00640918 -0.00961078 -0.00556412
v 0.00666110 -0.00960231 -0.00529844
v 0.00819532 -0.00970677 -0.00115855
v 0.00853197 -0.00742379 -0.00664089
v 0.00833905 -0.00801388 -0.00621268
v 0.00817943 -0.00811156 -0.00630098
v 0.00801905 -0.00820925 -0.00638850
v 0.00756968 -0.00852829 -0.00647211
v 0.00767105 -0.00837696 -0.00656979
v 0.00791692 -0.00836454 -0.00629395
v 0.00781403 -0.00851757 -0.00619940
v 0.00766500 -0.00857065 -0.00629942
v 0.00749327 -0.00846787 -0.00664402
v 0.00741308 -0.00858533 -0.00656588
v 0.00722849 -0.00872085 -0.00657838
v 0.00688427 -0.00880781 -0.00681280
v 0.00671935 -0.00899641 -0.00664793
v 0.00654686 -0.00904384 -0.00673232
v 0.00728825 -0.00876715 -0.00644476
v 0.00709912 -0.00880950 -0.00657838
v 0.00680106 -0.00904215 -0.00647602
v 0.00645154 -0.00899246 -0.00690501
v 0.00637514 -0.00908055 -0.00682531
v 0.00638724 -0.00921663 -0.00657369
v 0.00647273 -0.00926519 -0.00640100
v 0.00870975 -0.00939789 -0.00167741
v 0.00870975 -0.00944815 -0.00116168
v 0.00856071 -0.00953285 -0.00115855
v 0.00843438 -0.00960005 -0.00115855
v 0.00819532 -0.00964409 -0.00193527
v 0.00821574 -0.00960118 -0.00220173
v 0.00816354 -0.00959327 -0.00245100
v 0.00871202 -0.00944702 -0.00115855
v 0.00781630 -0.00954753 -0.00362779
v 0.00766651 -0.00976380 -0.00271902
v 0.00767937 -0.00968305 -0.00322459
v 0.00793734 -0.00969322 -0.00245100
v 0.00767937 -0.00963788 -0.00348245
v 0.00768467 -0.00958706 -0.00372469
v 0.00793734 -0.00939055 -0.00399818
v 0.00806898 -0.00928722 -0.00413180
v 0.00777469 -0.00952607 -0.00380049
v 0.00813101 -0.00922510 -0.00419353
v 0.00801980 -0.00925898 -0.00430449
v 0.00793507 -0.00923188 -0.00453423
v 0.00795626 -0.00912459 -0.00478818
v 0.00787985 -0.00907772 -0.00503120
v 0.00800921 -0.00899076 -0.00503120
v 0.00792373 -0.00893712 -0.00527969
v 0.00768013 -0.00896648 -0.00555943
v 0.00753488 -0.00901787 -0.00565320
v 0.00768467 -0.00884903 -0.00580245
v 0.00760221 -0.00880611 -0.00600249
v 0.00777469 -0.00874287 -0.00588684
v 0.00786321 -0.00856105 -0.00606265
v 0.00817489 -0.00862429 -0.00551958
v 0.00834057 -0.00852717 -0.00544222
v 0.00844572 -0.00837696 -0.00553599
v 0.00854861 -0.00822450 -0.00563054
v 0.00863183 -0.00805227 -0.00575244
v 0.00826718 -0.00819852 -0.00606265
v 0.00847598 -0.00815053 -0.00583839
v 0.00690545 -0.00958649 -0.00502104
v 0.00733591 -0.00956504 -0.00446155
v 0.00742140 -0.00959271 -0.00419353
v 0.00742140 -0.00963732 -0.00399818
v 0.00710669 -0.00957633 -0.00477334
v 0.00728523 -0.00954019 -0.00463346
v 0.00819532 -0.00968870 -0.00141954
v 0.00655216 -0.00930077 -0.00622909
v 0.00680106 -0.00929682 -0.00596029
v 0.00664748 -0.00942387 -0.00580401
v 0.00650753 -0.00953906 -0.00566257
v 0.00658469 -0.00957068 -0.00549067
v 0.00675642 -0.00953511 -0.00539143
v 0.00681921 -0.00956391 -0.00521952
v 0.00808411 -0.00827024 -0.00621659
v 0.00753563 -0.00875981 -0.00617440
v 0.00743804 -0.00872028 -0.00634318
v 0.00768467 -0.00869939 -0.00607750
v 0.00663916 -0.00908506 -0.00656822
v 0.00736315 -0.00881345 -0.00627285
v 0.00729809 -0.00903142 -0.00593997
v 0.00722168 -0.00898568 -0.00611188
v 0.00714678 -0.00906812 -0.00604077
v 0.00689411 -0.00907772 -0.00630489
v 0.00664219 -0.00921494 -0.00631739
v 0.00672389 -0.00926011 -0.00613220
v 0.00759388 -0.00956447 -0.00399818
v 0.00772249 -0.00950010 -0.00399818
v 0.00805158 -0.00927705 -0.00419353
v 0.00770055 -0.00936119 -0.00453423
v 0.00780117 -0.00928213 -0.00463268
v 0.00775881 -0.00925842 -0.00477334
v 0.00766878 -0.00921212 -0.00502964
v 0.00768013 -0.00909523 -0.00527969
v 0.00782841 -0.00904102 -0.00518826
v 0.00743729 -0.00912233 -0.00555943
v 0.00735029 -0.00906474 -0.00580401
v 0.00747814 -0.00898286 -0.00580401
v 0.00813858 -0.00831880 -0.00606265
v 0.00831712 -0.00824822 -0.00592356
v 0.00742140 -0.00950123 -0.00453423
v 0.00750689 -0.00952212 -0.00430918
v 0.00753866 -0.00953850 -0.00419353
v 0.00705222 -0.00955261 -0.00492805
v 0.00723605 -0.00951704 -0.00477334
v 0.00742745 -0.00934143 -0.00502964
v 0.00757649 -0.00929908 -0.00494212
v 0.00763020 -0.00932618 -0.00477334
v 0.00704844 -0.00929286 -0.00569227
v 0.00689411 -0.00932279 -0.00578838
v 0.00666110 -0.00951026 -0.00556412
v 0.00728523 -0.00928213 -0.00540627
v 0.00710442 -0.00931884 -0.00554615
v 0.00714603 -0.00919348 -0.00578838
v 0.00697278 -0.00925447 -0.00586418
v 0.00689411 -0.00920534 -0.00605250
v 0.00751672 -0.00926858 -0.00511403
v 0.00742745 -0.00923922 -0.00530782
v 0.00723227 -0.00925277 -0.00554615
f 1 2 3
f 1 3 4
f 1 4 12
f 1 12 23
f 1 23 43
f 1 43 66
f 1 66 97
f 1 97 125
f 1 125 127
f 1 127 126
f 1 126 168
f 1 168 212
f 1 212 211
f 1 211 210
f 1 210 268
f 1 268 343
f 1 343 430
f 1 430 429
f 1 429 538
f 1 538 668
f 1 668 804
f 1 804 942
f 1 942 972
f 1 972 838
f 1 838 702
f 1 702 701
f 1 701 572
f 1 572 571
f 1 571 570
f 1 570 454
f 1 454 356
f 1 356 278
f 1 278 218
f 1 218 171
f 1 171 131
f 1 131 100
f 1 100 71
f 1 71 45
f 1 45 25
f 1 25 14
f 1 14 5
f 1 5 13
f 1 13 24
f 1 24 44
f 1 44 67
f 1 67 98
f 1 98 128
f 1 128 130
f 1 130 170
f 1 170 215
f 1 215 273
f 1 273 275
f 1 275 353
f 1 353 453
f 1 453 569
f 1 569 700
f 1 700 837
f 1 837 971
f 1 971 1077
f 1 1077 1103
f 1 1103 1102
f 1 1102 1107
f 1 1107 1016
f 1 1016 1015
f 1 1015 1014
f 1 1014 1006
f 1 1006 895
f 1 895 761
f 1 761 760
f 1 760 627
f 1 627 497
f 1 497 495
f 1 495 387
f 1 387 302
f 1 302 241
f 1 241 188
f 1 188 183
f 1 183 141
f 1 141 182
f 1 182 139
f 1 139 105
f 1 105 77
f 1 77 50
f 1 50 32
f 1 32 17
f 1 17 6
f 1 6 2
f 2 6 7
f 2 7 8
f 2 8 3
f 3 8 9
f 3 9 10
f 3 10 11
f 3 11 4
f 4 11 12
f 5 14 15
f 5 15 16
f 5 16 13
f 6 17 7
f 7 17 18
f 7 18 8
f 8 18 19
f 8 19 9
f 9 19 20
f 9 20 10
f 10 20 21
f 10 21 22
f 10 22 11
f 11 22 12
f 12 22 23
f 13 16 24
f 14 25 26
f 14 26 15
f 15 26 16
f 16 26 27
f 16 27 28
f 16 28 29
f 16 29 30
f 16 30 31
f 16 31 24
f 17 32 33
f 17 33 34
f 17 34 18
f 18 34 19
f 19 34 20
f 20 34 35
f 20 35 36
f 20 36 21
f 21 37 22
f 21 36 38
f 21 38 39
f 21 39 40
f 21 40 41
f 21 41 37
f 22 37 41
f 22 41 42
f 22 42 43
f 22 43 23
f 24 31 44
f 25 45 46
f 25 46 47
f 25 47 26
f 26 47 27
f 27 47 48
f 27 48 76
f 27 76 104
f 27 104 138
f 27 138 181
f 27 181 237
f 27 237 300
f 27 300 386
f 27 386 385
f 27 385 494
f 27 494 492
f 27 492 625
f 27 625 757
f 27 757 759
f 27 759 894
f 27 894 893
f 27 893 892
f 27 892 825
f 27 825 824
f 27 824 821
f 27 821 687
f 27 687 686
f 27 686 561
f 27 561 560
f 27 560 448
f 27 448 447
f 27 447 351
f 27 351 271
f 27 271 213
f 27 213 169
f 27 169 129
f 27 129 99
f 27 99 70
f 27 70 69
f 27 69 68
f 27 68 49
f 27 49 31
f 27 31 30
f 27 30 29
f 27 29 28
f 31 49 44
f 32 50 51
f 32 51 33
f 33 51 52
f 33 52 34
f 34 52 53
f 34 53 35
f 35 53 36
f 36 53 52
f 36 52 54
f 36 54 55
f 36 55 56
f 36 56 57
f 36 57 58
f 36 58 59
f 36 59 60
f 36 60 38
f 38 60 61
f 38 61 39
f 39 61 62
f 39 62 40
f 40 62 63
f 40 63 41
f 41 63 64
f 41 64 65
f 41 65 42
f 42 65 66
f 42 66 43
f 44 49 68
f 44 68 69
f 44 69 70
f 44 70 67
f 45 71 72
f 45 72 73
f 45 73 46
f 46 73 47
f 47 73 48
f 48 73 72
f 48 72 74
f 48 74 75
f 48 75 101
f 48 101 100
f 48 100 131
f 48 131 172
f 48 172 220
f 48 220 221
f 48 221 173
f 48 173 132
f 48 132 102
f 48 102 76
f 50 77 51
f 51 78 52
f 51 77 78
f 52 78 79
f 52 79 54
f 54 79 80
f 54 80 55
f 55 81 56
f 55 80 82
f 55 82 81
f 56 81 83
f 56 83 59
f 56 59 57
f 57 59 58
f 59 83 84
f 59 84 85
f 59 85 86
f 59 86 87
f 59 87 88
f 59 88 89
f 59 89 90
f 59 90 60
f 60 90 61
f 61 90 91
f 61 91 62
f 62 91 63
f 63 91 92
f 63 92 65
f 63 65 64
f 65 92 93
f 65 93 94
f 65 94 95
f 65 95 96
f 65 96 97
f 65 97 66
f 67 70 99
f 67 99 98
f 71 100 101
f 71 101 74
f 71 74 72
f 74 101 75
f 76 102 103
f 76 103 104
f 77 105 106
f 77 106 78
f 78 106 79
f 79 107 82
f 79 82 80
f 79 106 107
f 81 82 108
f 81 108 109
f 81 109 110
f 81 110 111
f 81 111 83
f 82 107 108
f 83 111 112
f 83 112 84
f 84 112 85
f 85 112 113
f 85 113 114
f 85 114 86
f 86 114 88
f 86 88 87
f 88 114 115
f 88 115 116
f 88 116 117
f 88 117 118
f 88 118 89
f 89 118 91
f 89 91 90
f 91 118 92
f 92 118 119
f 92 119 120
f 92 120 93
f 93 120 121
f 93 121 94
f 94 121 122
f 94 122 95
f 95 122 123
f 95 123 124
f 95 124 96
f 96 125 97
f 96 124 126
f 96 126 127
f 96 127 125
f 98 99 128
f 99 129 130
f 99 130 128
f 102 132 133
f 102 133 103
f 103 133 134
f 103 134 135
f 103 135 104
f 104 135 136
f 104 136 137
f 104 137 138
f 105 139 106
f 106 139 107
f 107 139 140
f 107 140 141
f 107 141 142
f 107 142 108
f 108 143 109
f 108 142 144
f 108 144 143
f 109 145 146
f 109 146 147
f 109 147 148
f 109 148 149
f 109 149 150
f 109 150 111
f 109 111 110
f 109 143 145
f 111 150 151
f 111 151 112
f 112 151 113
f 113 151 152
f 113 152 153
f 113 153 114
f 114 153 154
f 114 154 116
f 114 116 115
f 116 154 155
f 116 155 156
f 116 156 157
f 116 157 158
f 116 158 117
f 117 158 159
f 117 159 118
f 118 159 160
f 118 160 119
f 119 160 159
f 119 159 161
f 119 161 162
f 119 162 120
f 120 162 121
f 121 162 122
f 122 162 123
f 123 159 163
f 123 163 124
f 123 162 159
f 124 163 159
f 124 159 164
f 124 164 165
f 124 165 166
f 124 166 167
f 124 167 126
f 126 167 168
f 129 169 130
f 130 169 170
f 131 171 172
f 132 173 174
f 132 174 133
f 133 174 175
f 133 175 134
f 134 175 135
f 135 175 176
f 135 176 177
f 135 177 178
f 135 178 136
f 136 178 179
f 136 179 137
f 137 179 138
f 138 179 180
f 138 180 181
f 139 182 140
f 140 182 141
f 141 183 184
f 141 184 144
f 141 144 142
f 143 144 185
f 143 185 186
f 143 186 187
f 143 187 145
f 144 186 185
f 144 184 188
f 144 188 186
f 145 189 190
f 145 190 191
f 145 191 146
f 145 187 192
f 145 192 189
f 146 191 147
f 147 191 149
f 147 149 148
f 149 191 193
f 149 193 194
f 149 194 151
f 149 151 150
f 151 194 152
f 152 194 195
f 152 195 196
f 152 196 153
f 153 196 197
f 153 197 154
f 154 197 198
f 154 198 199
f 154 199 200
f 154 200 156
f 154 156 155
f 156 200 201
f 156 201 202
f 156 202 203
f 156 203 157
f 157 203 158
f 158 203 159
f 159 203 204
f 159 204 205
f 159 205 165
f 159 165 164
f 159 162 161
f 165 206 207
f 165 207 208
f 165 208 167
f 165 167 166
f 165 205 206
f 167 208 207
f 167 207 209
f 167 209 210
f 167 210 211
f 167 211 212
f 167 212 168
f 169 213 214
f 169 214 170
f 170 214 216
f 170 216 215
f 171 217 172
f 171 218 219
f 171 219 217
f 172 217 220
f 173 221 174
f 174 222 223
f 174 223 224
f 174 224 225
f 174 225 175
f 174 221 226
f 174 226 227
f 174 227 222
f 175 225 228
f 175 228 176
f 176 228 177
f 177 228 229
f 177 229 230
f 177 230 178
f 178 230 179
f 179 230 231
f 179 231 180
f 180 231 232
f 180 232 233
f 180 233 234
f 180 234 235
f 180 235 181
f 181 235 236
f 181 236 237
f 183 188 184
f 186 238 192
f 186 192 187
f 186 188 239
f 186 239 240
f 186 240 238
f 188 241 239
f 189 192 242
f 189 242 243
f 189 243 244
f 189 244 245
f 189 245 246
f 189 246 190
f 190 246 191
f 191 247 248
f 191 248 193
f 191 246 245
f 191 245 247
f 192 238 249
f 192 249 242
f 193 248 194
f 194 248 250
f 194 250 195
f 195 250 251
f 195 251 252
f 195 252 253
f 195 253 196
f 196 253 254
f 196 254 197
f 197 254 199
f 197 199 255
f 197 255 198
f 198 255 199
f 199 254 256
f 199 256 257
f 199 257 258
f 199 258 200
f 200 258 201
f 201 258 202
f 202 258 259
f 202 259 260
f 202 260 204
f 202 204 203
f 204 260 261
f 204 261 205
f 205 261 206
f 206 261 262
f 206 262 263
f 206 263 207
f 207 263 264
f 207 264 209
f 209 264 265
f 209 265 210
f 210 265 266
f 210 266 267
f 210 267 268
f 213 269 270
f 213 270 214
f 213 271 269
f 214 272 216
f 214 270 272
f 215 216 273
f 216 272 350
f 216 350 274
f 216 274 275
f 216 275 273
f 217 219 276
f 217 276 277
f 217 277 227
f 217 227 220
f 218 278 279
f 218 279 280
f 218 280 281
f 218 281 219
f 219 281 276
f 220 227 226
f 220 226 221
f 222 227 282
f 222 282 283
f 222 283 223
f 223 283 284
f 223 284 224
f 224 284 285
f 224 285 286
f 224 286 225
f 225 286 285
f 225 285 287
f 225 287 228
f 227 277 282
f 228 287 229
f 229 287 230
f 230 287 288
f 230 288 289
f 230 289 290
f 230 290 291
f 230 291 231
f 231 291 292
f 231 292 233
f 231 233 293
f 231 293 232
f 232 293 233
f 233 292 294
f 233 294 295
f 233 295 296
f 233 296 234
f 234 296 297
f 234 297 235
f 235 297 298
f 235 298 236
f 236 298 237
f 237 298 299
f 237 299 300
f 238 240 301
f 238 301 249
f 239 241 302
f 239 302 240
f 240 302 301
f 242 249 303
f 242 303 304
f 242 304 305
f 242 305 243
f 243 306 244
f 243 305 306
f 244 306 307
f 244 307 308
f 244 308 309
f 244 309 245
f 245 309 310
f 245 310 311
f 245 311 312
f 245 312 313
f 245 313 247
f 247 312 314
f 247 314 315
f 247 315 316
f 247 316 317
f 247 317 318
f 247 318 248
f 247 313 319
f 247 319 312
f 248 318 320
f 248 320 321
f 248 321 250
f 249 301 303
f 250 321 251
f 251 321 252
f 252 322 323
f 252 323 253
f 252 321 322
f 253 323 254
f 254 323 322
f 254 322 324
f 254 324 325
f 254 325 256
f 256 325 257
f 257 325 326
f 257 326 327
f 257 327 328
f 257 328 329
f 257 329 330
f 257 330 258
f 258 330 259
f 259 330 260
f 260 331 261
f 260 330 331
f 261 331 332
f 261 332 262
f 262 332 331
f 262 331 333
f 262 333 334
f 262 334 335
f 262 335 263
f 263 335 336
f 263 336 337
f 263 337 338
f 263 338 339
f 263 339 340
f 263 340 341
f 263 341 267
f 263 267 266
f 263 266 264
f 264 266 265
f 267 341 342
f 267 342 268
f 268 342 343
f 269 344 345
f 269 345 270
f 269 271 346
f 269 346 344
f 270 345 347
f 270 347 348
f 270 348 349
f 270 349 350
f 270 350 272
f 271 351 352
f 271 352 346
f 274 350 275
f 275 350 353
f 276 354 282
f 276 282 277
f 276 281 355
f 276 355 354
f 278 356 279
f 279 356 357
f 279 357 358
f 279 358 359
f 279 359 360
f 279 360 280
f 280 360 281
f 281 360 361
f 281 361 362
f 281 362 363
f 281 363 364
f 281 364 355
f 282 354 364
f 282 364 283
f 283 364 365
f 283 365 284
f 284 365 366
f 284 366 367
f 284 367 368
f 284 368 369
f 284 369 370
f 284 370 371
f 284 371 285
f 285 371 370
f 285 370 372
f 285 372 373
f 285 373 287
f 287 373 374
f 287 374 375
f 287 375 288
f 288 375 376
f 288 376 377
f 288 377 290
f 288 290 289
f 290 294 292
f 290 292 291
f 290 377 378
f 290 378 379
f 290 379 294
f 294 380 295
f 294 379 380
f 295 380 296
f 296 380 381
f 296 381 297
f 297 381 299
f 297 299 298
f 299 381 382
f 299 382 383
f 299 383 384
f 299 384 385
f 299 385 386
f 299 386 300
f 301 302 303
f 302 387 303
f 303 387 388
f 303 388 389
f 303 389 390
f 303 390 391
f 303 391 392
f 303 392 304
f 304 392 305
f 305 392 306
f 306 392 391
f 306 391 393
f 306 393 307
f 307 393 308
f 308 393 394
f 308 394 395
f 308 395 396
f 308 396 397
f 308 397 309
f 309 397 398
f 309 398 310
f 310 398 311
f 311 399 312
f 311 398 399
f 312 400 401
f 312 401 402
f 312 402 403
f 312 403 314
f 312 319 313
f 312 399 404
f 312 404 400
f 314 403 315
f 315 405 406
f 315 406 316
f 315 403 405
f 316 406 407
f 316 407 317
f 317 407 408
f 317 408 409
f 317 409 322
f 317 322 320
f 317 320 318
f 320 322 321
f 322 409 410
f 322 410 411
f 322 411 412
f 322 412 324
f 324 412 413
f 324 413 414
f 324 414 325
f 325 414 326
f 326 414 415
f 326 415 327
f 327 415 416
f 327 416 328
f 328 416 417
f 328 417 418
f 328 418 329
f 329 331 330
f 329 418 333
f 329 333 331
f 333 418 336
f 333 336 419
f 333 419 334
f 334 419 335
f 335 419 336
f 336 420 337
f 336 418 420
f 337 420 421
f 337 421 422
f 337 422 338
f 338 422 339
f 339 422 423
f 339 423 424
f 339 424 425
f 339 425 426
f 339 426 340
f 340 426 427
f 340 427 341
f 341 427 342
f 342 427 428
f 342 428 429
f 342 429 430
f 342 430 343
f 344 346 431
f 344 431 345
f 345 432 433
f 345 433 348
f 345 348 347
f 345 431 432
f 346 434 431
f 346 352 434
f 348 433 435
f 348 435 436
f 348 436 349
f 349 436 437
f 349 437 438
f 349 438 439
f 349 439 440
f 349 440 441
f 349 441 442
f 349 442 443
f 349 443 444
f 349 444 445
f 349 445 350
f 350 445 446
f 350 446 353
f 351 447 352
f 352 447 448
f 352 448 449
f 352 449 450
f 352 450 451
f 352 451 434
f 353 452 453
f 353 446 452
f 354 355 364
f 356 454 357
f 357 454 455
f 357 455 456
f 357 456 358
f 358 456 457
f 358 457 458
f 358 458 361
f 358 361 359
f 359 361 360
f 361 458 459
f 361 459 460
f 361 460 461
f 361 461 362
f 362 461 460
f 362 460 462
f 362 462 463
f 362 463 363
f 363 463 364
f 364 463 365
f 365 463 464
f 365 464 465
f 365 465 466
f 365 466 467
f 365 467 366
f 366 467 468
f 366 468 368
f 366 368 367
f 368 468 469
f 368 469 369
f 369 470 370
f 369 469 471
f 369 471 472
f 369 472 473
f 369 473 474
f 369 474 470
f 370 470 475
f 370 475 476
f 370 476 372
f 372 476 373
f 373 476 477
f 373 477 374
f 374 477 478
f 374 478 479
f 374 479 375
f 375 479 377
f 375 377 376
f 377 479 480
f 377 480 481
f 377 481 378
f 378 481 482
f 378 482 379
f 379 482 380
f 380 482 483
f 380 483 484
f 380 484 381
f 381 484 485
f 381 485 486
f 381 486 487
f 381 487 383
f 381 383 382
f 383 487 488
f 383 488 489
f 383 489 490
f 383 490 491
f 383 491 492
f 383 492 493
f 383 493 384
f 384 493 494
f 384 494 385
f 387 495 388
f 388 496 389
f 388 495 497
f 388 497 496
f 389 496 498
f 389 498 393
f 389 393 390
f 390 393 391
f 393 498 499
f 393 499 394
f 394 499 500
f 394 500 395
f 395 500 501
f 395 501 502
f 395 502 396
f 396 502 397
f 397 502 503
f 397 503 398
f 398 503 504
f 398 504 505
f 398 505 404
f 398 404 399
f 400 506 507
f 400 507 508
f 400 508 401
f 400 404 509
f 400 509 506
f 401 508 510
f 401 510 402
f 402 510 508
f 402 508 511
f 402 511 512
f 402 512 513
f 402 513 514
f 402 514 403
f 403 514 405
f 404 505 509
f 405 513 515
f 405 515 516
f 405 516 406
f 405 514 513
f 406 516 408
f 406 408 517
f 406 517 407
f 407 517 408
f 408 515 518
f 408 518 410
f 408 410 409
f 408 516 515
f 410 518 411
f 411 518 519
f 411 519 520
f 411 520 412
f 412 520 413
f 413 520 414
f 414 520 521
f 414 521 522
f 414 522 523
f 414 523 415
f 415 523 524
f 415 524 525
f 415 525 416
f 416 525 417
f 417 525 418
f 418 525 526
f 418 526 527
f 418 527 528
f 418 528 420
f 420 528 421
f 421 527 529
f 421 529 530
f 421 530 531
f 421 531 422
f 421 528 527
f 422 531 423
f 423 531 424
f 424 532 533
f 424 533 534
f 424 534 535
f 424 535 425
f 424 531 532
f 425 535 536
f 425 536 426
f 426 536 537
f 426 537 427
f 427 537 428
f 428 537 538
f 428 538 429
f 431 434 539
f 431 539 432
f 432 539 540
f 432 540 433
f 433 540 435
f 434 451 539
f 435 540 541
f 435 541 436
f 436 541 542
f 436 542 543
f 436 543 544
f 436 544 438
f 436 438 437
f 438 545 439
f 438 544 543
f 438 543 545
f 439 545 546
f 439 546 440
f 440 547 548
f 440 548 549
f 440 549 441
f 440 546 550
f 440 550 547
f 441 549 442
f 442 549 551
f 442 551 552
f 442 552 553
f 442 553 443
f 443 553 444
f 444 553 554
f 444 554 555
f 444 555 446
f 444 446 445
f 446 555 556
f 446 556 557
f 446 557 558
f 446 558 559
f 446 559 452
f 448 560 449
f 449 560 561
f 449 561 562
f 449 562 563
f 449 563 564
f 449 564 450
f 450 564 565
f 450 565 451
f 451 565 566
f 451 566 567
f 451 567 539
f 452 568 453
f 452 559 685
f 452 685 568
f 453 568 569
f 454 570 455
f 455 570 571
f 455 571 572
f 455 572 573
f 455 573 574
f 455 574 456
f 456 575 458
f 456 458 457
f 456 574 576
f 456 576 577
f 456 577 575
f 458 575 577
f 458 577 578
f 458 578 579
f 458 579 460
f 458 460 459
f 460 579 580
f 460 580 581
f 460 581 462
f 462 581 582
f 462 582 583
f 462 583 584
f 462 584 463
f 463 584 465
f 463 465 464
f 465 584 466
f 466 582 585
f 466 585 586
f 466 586 587
f 466 587 588
f 466 588 589
f 466 589 590
f 466 590 467
f 466 584 591
f 466 591 582
f 467 590 468
f 468 590 589
f 468 589 469
f 469 589 592
f 469 592 471
f 470 474 475
f 471 592 472
f 472 592 593
f 472 593 473
f 473 594 595
f 473 595 474
f 473 593 596
f 473 596 597
f 473 597 598
f 473 598 599
f 473 599 600
f 473 600 601
f 473 601 594
f 474 595 475
f 475 602 477
f 475 477 476
f 475 595 603
f 475 603 604
f 475 604 602
f 477 602 478
f 478 602 604
f 478 604 605
f 478 605 606
f 478 606 479
f 479 606 480
f 480 606 607
f 480 607 608
f 480 608 481
f 481 608 609
f 481 609 482
f 482 609 610
f 482 610 611
f 482 611 612
f 482 612 613
f 482 613 483
f 483 613 485
f 483 485 484
f 485 613 614
f 485 614 615
f 485 615 486
f 486 615 616
f 486 616 617
f 486 617 618
f 486 618 619
f 486 619 487
f 487 619 489
f 487 489 488
f 489 619 620
f 489 620 621
f 489 621 490
f 490 621 622
f 490 622 623
f 490 623 624
f 490 624 491
f 491 624 492
f 492 624 625
f 492 494 493
f 496 626 498
f 496 497 627
f 496 627 626
f 498 626 628
f 498 628 629
f 498 629 630
f 498 630 499
f 499 630 500
f 500 630 629
f 500 629 631
f 500 631 501
f 501 631 502
f 502 631 632
f 502 632 633
f 502 633 634
f 502 634 635
f 502 635 504
f 502 504 503
f 504 635 505
f 505 635 506
f 505 506 509
f 506 636 507
f 506 635 637
f 506 637 638
f 506 638 639
f 506 639 640
f 506 640 636
f 507 636 640
f 507 640 508
f 508 640 641
f 508 641 511
f 511 641 512
f 512 642 643
f 512 643 513
f 512 641 642
f 513 643 644
f 513 644 515
f 515 644 645
f 515 645 519
f 515 519 518
f 519 645 520
f 520 645 646
f 520 646 647
f 520 647 521
f 521 647 522
f 522 648 523
f 522 647 648
f 523 648 649
f 523 649 524
f 524 649 648
f 524 648 650
f 524 650 525
f 525 650 651
f 525 651 652
f 525 652 526
f 526 652 527
f 527 652 653
f 527 653 654
f 527 654 655
f 527 655 656
f 527 656 657
f 527 657 529
f 529 657 658
f 529 658 530
f 530 658 659
f 530 659 532
f 530 532 531
f 532 659 657
f 532 657 660
f 532 660 533
f 533 660 534
f 534 661 662
f 534 662 663
f 534 663 664
f 534 664 535
f 534 660 661
f 535 664 665
f 535 665 536
f 536 665 666
f 536 666 537
f 537 666 538
f 538 666 667
f 538 667 668
f 539 567 669
f 539 669 540
f 540 669 541
f 541 669 542
f 542 669 567
f 542 567 670
f 542 670 671
f 542 671 672
f 542 672 543
f 543 672 673
f 543 673 545
f 545 673 546
f 546 673 672
f 546 672 550
f 547 674 675
f 547 675 676
f 547 676 548
f 547 550 677
f 547 677 678
f 547 678 679
f 547 679 674
f 548 676 680
f 548 680 549
f 549 680 551
f 550 672 681
f 550 681 677
f 551 680 553
f 551 553 552
f 553 680 682
f 553 682 683
f 553 683 684
f 553 684 554
f 554 684 556
f 554 556 555
f 556 684 557
f 557 684 685
f 557 685 558
f 558 685 559
f 561 686 562
f 562 686 687
f 562 687 688
f 562 688 689
f 562 689 563
f 563 689 690
f 563 690 691
f 563 691 692
f 563 692 693
f 563 693 694
f 563 694 695
f 563 695 564
f 564 695 565
f 565 695 696
f 565 696 566
f 566 697 698
f 566 698 567
f 566 696 699
f 566 699 697
f 567 698 670
f 568 700 569
f 568 685 700
f 572 701 573
f 573 576 574
f 573 701 702
f 573 702 703
f 573 703 576
f 576 704 705
f 576 705 577
f 576 703 706
f 576 706 707
f 576 707 708
f 576 708 709
f 576 709 704
f 577 705 578
f 578 705 710
f 578 710 579
f 579 581 580
f 579 710 581
f 581 710 711
f 581 711 712
f 581 712 582
f 582 712 713
f 582 713 586
f 582 586 585
f 582 591 584
f 582 584 583
f 586 714 588
f 586 588 587
f 586 713 715
f 586 715 716
f 586 716 717
f 586 717 718
f 586 718 719
f 586 719 720
f 586 720 714
f 588 714 721
f 588 721 722
f 588 722 723
f 588 723 593
f 588 593 592
f 588 592 589
f 593 597 596
f 593 723 724
f 593 724 597
f 594 601 725
f 594 725 726
f 594 726 727
f 594 727 603
f 594 603 595
f 597 724 598
f 598 724 728
f 598 728 729
f 598 729 730
f 598 730 731
f 598 731 732
f 598 732 733
f 598 733 599
f 599 733 734
f 599 734 735
f 599 735 600
f 600 736 737
f 600 737 725
f 600 725 601
f 600 735 734
f 600 734 738
f 600 738 739
f 600 739 736
f 603 605 604
f 603 727 605
f 605 727 740
f 605 740 741
f 605 741 607
f 605 607 606
f 607 741 742
f 607 742 608
f 608 742 610
f 608 610 609
f 610 742 743
f 610 743 744
f 610 744 745
f 610 745 611
f 611 745 612
f 612 745 744
f 612 744 615
f 612 615 614
f 612 614 613
f 615 746 747
f 615 747 748
f 615 748 617
f 615 617 616
f 615 744 743
f 615 743 746
f 617 748 749
f 617 749 618
f 618 749 750
f 618 750 751
f 618 751 620
f 618 620 619
f 620 751 752
f 620 752 622
f 620 622 621
f 622 752 753
f 622 753 623
f 623 753 754
f 623 754 755
f 623 755 756
f 623 756 624
f 624 757 625
f 624 756 758
f 624 758 759
f 624 759 757
f 626 627 760
f 626 760 761
f 626 761 628
f 628 761 762
f 628 762 629
f 629 762 763
f 629 763 631
f 631 763 764
f 631 764 765
f 631 765 632
f 632 766 633
f 632 765 766
f 633 766 767
f 633 767 637
f 633 637 635
f 633 635 634
f 637 768 769
f 637 769 638
f 637 767 768
f 638 770 771
f 638 771 772
f 638 772 639
f 638 769 770
f 639 772 771
f 639 771 773
f 639 773 640
f 640 773 774
f 640 774 775
f 640 775 776
f 640 776 777
f 640 777 778
f 640 778 642
f 640 642 641
f 642 778 643
f 643 778 779
f 643 779 780
f 643 780 644
f 644 780 645
f 645 780 781
f 645 781 782
f 645 782 783
f 645 783 646
f 646 783 784
f 646 784 785
f 646 785 786
f 646 786 648
f 646 648 647
f 648 786 787
f 648 787 650
f 650 787 654
f 650 654 653
f 650 653 651
f 651 653 652
f 654 787 788
f 654 788 789
f 654 789 790
f 654 790 655
f 655 790 791
f 655 791 656
f 656 791 792
f 656 792 657
f 657 792 793
f 657 793 794
f 657 794 661
f 657 661 660
f 657 659 658
f 661 793 795
f 661 795 796
f 661 796 797
f 661 797 662
f 661 794 793
f 662 797 798
f 662 798 663
f 663 798 799
f 663 799 800
f 663 800 707
f 663 707 664
f 664 707 801
f 664 801 802
f 664 802 665
f 665 802 666
f 666 802 667
f 667 802 668
f 668 802 803
f 668 803 804
f 670 805 671
f 670 698 805
f 671 805 806
f 671 806 678
f 671 678 681
f 671 681 672
f 674 807 808
f 674 808 675
f 674 679 807
f 675 808 809
f 675 809 810
f 675 810 676
f 676 810 811
f 676 811 814
f 676 814 680
f 677 681 678
f 678 806 679
f 679 806 812
f 679 812 813
f 679 813 807
f 680 814 815
f 680 815 682
f 682 815 684
f 682 684 683
f 684 816 817
f 684 817 818
f 684 818 685
f 684 815 816
f 685 819 820
f 685 820 700
f 685 818 819
f 687 821 688
f 688 821 822
f 688 822 689
f 689 822 690
f 690 823 692
f 690 692 691
f 690 822 824
f 690 824 825
f 690 825 826
f 690 826 827
f 690 827 828
f 690 828 823
f 692 823 829
f 692 829 830
f 692 830 831
f 692 831 694
f 692 694 693
f 694 831 696
f 694 696 695
f 696 831 832
f 696 832 699
f 697 699 833
f 697 833 834
f 697 834 835
f 697 835 805
f 697 805 698
f 699 832 831
f 699 831 836
f 699 836 833
f 700 820 837
f 702 838 703
f 703 838 706
f 704 710 705
f 704 709 839
f 704 839 710
f 706 840 841
f 706 841 707
f 706 838 842
f 706 842 840
f 707 800 708
f 707 841 801
f 708 800 709
f 709 843 839
f 709 800 844
f 709 844 843
f 710 845 715
f 710 715 711
f 710 839 846
f 710 846 796
f 710 796 847
f 710 847 845
f 711 715 712
f 712 715 713
f 714 720 721
f 715 845 716
f 716 845 848
f 716 848 849
f 716 849 717
f 717 849 850
f 717 850 718
f 718 850 851
f 718 851 852
f 718 852 853
f 718 853 854
f 718 854 720
f 718 720 719
f 720 854 721
f 721 854 853
f 721 853 855
f 721 855 856
f 721 856 722
f 722 856 723
f 723 856 976
f 723 976 857
f 723 857 724
f 724 858 728
f 724 857 858
f 725 737 727
f 725 727 726
f 727 737 740
f 728 858 729
f 729 858 859
f 729 859 730
f 730 859 860
f 730 860 731
f 731 860 861
f 731 861 732
f 732 862 734
f 732 734 733
f 732 861 863
f 732 863 864
f 732 864 865
f 732 865 866
f 732 866 862
f 734 867 738
f 734 862 867
f 736 739 868
f 736 868 737
f 737 869 741
f 737 741 740
f 737 868 869
f 738 867 739
f 739 870 868
f 739 867 871
f 739 871 872
f 739 872 873
f 739 873 870
f 741 869 874
f 741 874 742
f 742 874 875
f 742 875 876
f 742 876 743
f 743 876 877
f 743 877 878
f 743 878 879
f 743 879 747
f 743 747 746
f 747 879 880
f 747 880 881
f 747 881 748
f 748 881 882
f 748 882 750
f 748 750 749
f 750 882 883
f 750 883 884
f 750 884 751
f 751 884 753
f 751 753 752
f 753 884 885
f 753 885 886
f 753 886 887
f 753 887 828
f 753 828 888
f 753 888 889
f 753 889 890
f 753 890 754
f 754 890 755
f 755 890 891
f 755 891 756
f 756 891 758
f 758 891 892
f 758 892 893
f 758 893 894
f 758 894 759
f 761 895 762
f 762 896 763
f 762 895 896
f 763 897 898
f 763 898 899
f 763 899 764
f 763 896 900
f 763 900 897
f 764 899 901
f 764 901 765
f 765 901 766
f 766 901 767
f 767 901 902
f 767 902 903
f 767 903 904
f 767 904 768
f 768 905 906
f 768 906 907
f 768 907 769
f 768 904 903
f 768 903 902
f 768 902 908
f 768 908 909
f 768 909 905
f 769 907 910
f 769 910 911
f 769 911 770
f 770 911 771
f 771 911 912
f 771 912 773
f 773 912 774
f 774 913 775
f 774 912 914
f 774 914 913
f 775 913 915
f 775 915 916
f 775 916 776
f 776 779 917
f 776 917 777
f 776 916 918
f 776 918 919
f 776 919 920
f 776 920 779
f 777 917 778
f 778 917 779
f 779 920 780
f 780 920 921
f 780 921 922
f 780 922 923
f 780 923 924
f 780 924 781
f 781 924 782
f 782 784 783
f 782 924 923
f 782 923 925
f 782 925 926
f 782 926 927
f 782 927 784
f 784 927 928
f 784 928 785
f 785 928 786
f 786 928 929
f 786 929 930
f 786 930 931
f 786 931 787
f 787 932 788
f 787 931 932
f 788 933 934
f 788 934 853
f 788 853 789
f 788 932 933
f 789 853 935
f 789 935 936
f 789 936 791
f 789 791 790
f 791 936 937
f 791 937 792
f 792 937 793
f 793 937 936
f 793 936 853
f 793 853 852
f 793 852 851
f 793 851 938
f 793 938 847
f 793 847 796
f 793 796 795
f 796 846 939
f 796 939 798
f 796 798 797
f 798 939 799
f 799 939 800
f 800 939 844
f 801 841 802
f 802 841 940
f 802 940 804
f 802 804 803
f 804 940 941
f 804 941 942
f 805 835 943
f 805 943 944
f 805 944 806
f 806 944 945
f 806 945 812
f 807 946 947
f 807 947 808
f 807 813 948
f 807 948 946
f 808 947 949
f 808 949 809
f 809 949 950
f 809 950 951
f 809 951 952
f 809 952 810
f 810 953 811
f 810 952 953
f 811 953 954
f 811 954 955
f 811 955 814
f 812 956 813
f 812 945 956
f 813 956 948
f 814 955 816
f 814 816 815
f 816 957 958
f 816 958 959
f 816 959 817
f 816 955 957
f 817 959 819
f 817 819 818
f 819 959 960
f 819 960 961
f 819 961 962
f 819 962 837
f 819 837 820
f 821 824 822
f 823 963 829
f 823 828 963
f 825 892 826
f 826 892 827
f 827 964 889
f 827 889 828
f 827 892 964
f 828 889 888
f 828 887 965
f 828 965 963
f 829 963 830
f 830 963 966
f 830 966 967
f 830 967 968
f 830 968 969
f 830 969 836
f 830 836 831
f 833 970 834
f 833 836 969
f 833 969 970
f 834 970 943
f 834 943 835
f 837 962 971
f 838 972 973
f 838 973 842
f 839 843 846
f 840 974 841
f 840 842 974
f 841 974 973
f 841 973 940
f 842 973 974
f 843 844 939
f 843 939 846
f 845 847 848
f 847 938 848
f 848 938 849
f 849 938 851
f 849 851 850
f 853 934 859
f 853 859 975
f 853 975 855
f 853 936 935
f 855 858 976
f 855 976 856
f 855 975 859
f 855 859 858
f 857 976 858
f 859 934 977
f 859 977 861
f 859 861 860
f 861 977 978
f 861 978 979
f 861 979 980
f 861 980 981
f 861 981 863
f 862 866 871
f 862 871 867
f 863 981 864
f 864 981 980
f 864 980 982
f 864 982 983
f 864 983 865
f 865 983 984
f 865 984 866
f 866 984 985
f 866 985 871
f 868 877 876
f 868 876 875
f 868 875 869
f 868 870 877
f 869 875 874
f 870 873 986
f 870 986 987
f 870 987 877
f 871 985 988
f 871 988 989
f 871 989 990
f 871 990 872
f 872 990 991
f 872 991 873
f 873 992 993
f 873 993 986
f 873 991 994
f 873 994 995
f 873 995 996
f 873 996 992
f 877 987 878
f 878 987 986
f 878 986 879
f 879 986 993
f 879 993 992
f 879 992 997
f 879 997 998
f 879 998 881
f 879 881 880
f 881 998 882
f 882 998 999
f 882 999 883
f 883 999 1097
f 883 1097 1000
f 883 1000 1001
f 883 1001 1002
f 883 1002 885
f 883 885 884
f 885 1002 1001
f 885 1001 1003
f 885 1003 1004
f 885 1004 1005
f 885 1005 965
f 885 965 886
f 886 965 887
f 889 964 891
f 889 891 890
f 891 964 892
f 895 1006 896
f 896 1006 900
f 897 900 898
f 898 900 1007
f 898 1007 1008
f 898 1008 1009
f 898 1009 1010
f 898 1010 1011
f 898 1011 1012
f 898 1012 908
f 898 908 1013
f 898 1013 899
f 899 1013 901
f 900 1006 1014
f 900 1014 1015
f 900 1015 1016
f 900 1016 1017
f 900 1017 1007
f 901 1013 902
f 902 1013 908
f 905 909 1018
f 905 1018 1019
f 905 1019 906
f 906 1020 910
f 906 910 907
f 906 1019 1018
f 906 1018 1021
f 906 1021 1020
f 908 1012 1022
f 908 1022 909
f 909 1022 1023
f 909 1023 1024
f 909 1024 1025
f 909 1025 1026
f 909 1026 1027
f 909 1027 1018
f 910 1020 1028
f 910 1028 1029
f 910 1029 912
f 910 912 911
f 912 1029 914
f 913 914 1030
f 913 1030 1031
f 913 1031 915
f 914 1029 1032
f 914 1032 1030
f 915 1033 916
f 915 1031 1033
f 916 1033 1034
f 916 1034 918
f 918 1035 919
f 918 1034 1036
f 918 1036 1037
f 918 1037 1038
f 918 1038 1039
f 918 1039 1040
f 918 1040 1035
f 919 1035 921
f 919 921 920
f 921 1035 922
f 922 1035 1041
f 922 1041 923
f 923 1041 1042
f 923 1042 925
f 925 1042 1043
f 925 1043 927
f 925 927 926
f 927 1043 1044
f 927 1044 929
f 927 929 928
f 929 1044 930
f 930 1045 1046
f 930 1046 1047
f 930 1047 931
f 930 1044 1045
f 931 1047 932
f 932 1047 1048
f 932 1048 1049
f 932 1049 1050
f 932 1050 1051
f 932 1051 933
f 933 1051 978
f 933 978 934
f 934 978 977
f 940 973 942
f 940 942 941
f 942 973 972
f 943 1052 944
f 943 970 1052
f 944 1052 945
f 945 1053 956
f 945 1052 1054
f 945 1054 1053
f 946 948 1055
f 946 1055 947
f 947 950 949
f 947 1055 950
f 948 956 1055
f 950 1056 951
f 950 1055 1056
f 951 1056 952
f 952 1057 953
f 952 1056 1057
f 953 1057 1058
f 953 1058 1059
f 953 1059 954
f 954 1059 1060
f 954 1060 955
f 955 1060 1061
f 955 1061 957
f 956 1053 1054
f 956 1054 1062
f 956 1062 1063
f 956 1063 1055
f 957 1061 1064
f 957 1064 958
f 958 1064 1065
f 958 1065 960
f 958 960 959
f 960 1065 1066
f 960 1066 1067
f 960 1067 1068
f 960 1068 961
f 961 1068 962
f 962 1069 971
f 962 1068 1069
f 963 965 1005
f 963 1005 967
f 963 967 966
f 967 1005 1004
f 967 1004 1070
f 967 1070 1071
f 967 1071 1072
f 967 1072 1073
f 967 1073 968
f 968 1073 1074
f 968 1074 969
f 969 1074 1075
f 969 1075 970
f 970 1075 1076
f 970 1076 1054
f 970 1054 1052
f 971 1069 1077
f 978 1051 1078
f 978 1078 979
f 979 1078 980
f 980 1079 982
f 980 1078 1051
f 980 1051 1050
f 980 1050 1049
f 980 1049 1079
f 982 1079 983
f 983 1079 1080
f 983 1080 1081
f 983 1081 984
f 984 1081 985
f 985 1081 988
f 988 1082 1083
f 988 1083 989
f 988 1081 1084
f 988 1084 1085
f 988 1085 1086
f 988 1086 1082
f 989 1083 1082
f 989 1082 990
f 990 994 991
f 990 1082 1087
f 990 1087 1088
f 990 1088 1089
f 990 1089 994
f 992 996 995
f 992 995 1090
f 992 1090 1091
f 992 1091 1092
f 992 1092 997
f 994 1089 995
f 995 1089 1093
f 995 1093 1094
f 995 1094 1095
f 995 1095 1091
f 995 1091 1090
f 997 1092 1096
f 997 1096 998
f 998 1096 1097
f 998 1097 999
f 1000 1097 1098
f 1000 1098 1001
f 1001 1098 1099
f 1001 1099 1070
f 1001 1070 1003
f 1003 1070 1004
f 1007 1017 1100
f 1007 1100 1008
f 1008 1100 1101
f 1008 1101 1102
f 1008 1102 1009
f 1009 1102 1103
f 1009 1103 1067
f 1009 1067 1104
f 1009 1104 1010
f 1010 1104 1105
f 1010 1105 1106
f 1010 1106 1011
f 1011 1106 1023
f 1011 1023 1022
f 1011 1022 1012
f 1016 1107 1101
f 1016 1101 1100
f 1016 1100 1017
f 1018 1027 1108
f 1018 1108 1021
f 1020 1021 1108
f 1020 1108 1028
f 1023 1106 1024
f 1024 1109 1058
f 1024 1058 1110
f 1024 1110 1025
f 1024 1106 1111
f 1024 1111 1109
f 1025 1110 1112
f 1025 1112 1026
f 1026 1112 1027
f 1027 1112 1113
f 1027 1113 1108
f 1028 1114 1115
f 1028 1115 1029
f 1028 1108 1116
f 1028 1116 1114
f 1029 1115 1117
f 1029 1117 1032
f 1030 1118 1031
f 1030 1032 1118
f 1031 1118 1119
f 1031 1119 1120
f 1031 1120 1033
f 1032 1117 1118
f 1033 1121 1122
f 1033 1122 1034
f 1033 1120 1121
f 1034 1122 1036
f 1035 1040 1041
f 1036 1123 1037
f 1036 1122 1121
f 1036 1121 1123
f 1037 1124 1125
f 1037 1125 1126
f 1037 1126 1127
f 1037 1127 1128
f 1037 1128 1129
f 1037 1129 1130
f 1037 1130 1131
f 1037 1131 1038
f 1037 1123 1124
f 1038 1131 1039
f 1039 1131 1042
f 1039 1042 1040
f 1040 1042 1041
f 1042 1131 1132
f 1042 1132 1133
f 1042 1133 1043
f 1043 1133 1134
f 1043 1134 1044
f 1044 1134 1049
f 1044 1049 1045
f 1045 1049 1046
f 1046 1049 1048
f 1046 1048 1047
f 1049 1135 1080
f 1049 1080 1079
f 1049 1134 1133
f 1049 1133 1136
f 1049 1136 1135
f 1054 1137 1062
f 1054 1076 1137
f 1055 1063 1138
f 1055 1138 1139
f 1055 1139 1140
f 1055 1140 1056
f 1056 1140 1113
f 1056 1113 1112
f 1056 1112 1057
f 1057 1112 1110
f 1057 1110 1058
f 1058 1109 1060
f 1058 1060 1059
f 1060 1109 1061
f 1061 1111 1064
f 1061 1109 1111
f 1062 1137 1141
f 1062 1141 1063
f 1063 1141 1142
f 1063 1142 1138
f 1064 1111 1065
f 1065 1111 1104
f 1065 1104 1066
f 1066 1104 1067
f 1067 1103 1143
f 1067 1143 1068
f 1068 1143 1077
f 1068 1077 1069
f 1070 1099 1071
f 1071 1099 1144
f 1071 1144 1073
f 1071 1073 1072
f 1073 1145 1146
f 1073 1146 1147
f 1073 1147 1148
f 1073 1148 1074
f 1073 1144 1145
f 1074 1148 1075
f 1075 1148 1076
f 1076 1148 1149
f 1076 1149 1150
f 1076 1150 1137
f 1077 1143 1103
f 1080 1135 1151
f 1080 1151 1081
f 1081 1151 1084
f 1082 1093 1089
f 1082 1089 1088
f 1082 1088 1087
f 1082 1086 1152
f 1082 1152 1153
f 1082 1153 1093
f 1084 1151 1085
f 1085 1151 1129
f 1085 1129 1128
f 1085 1128 1154
f 1085 1154 1152
f 1085 1152 1086
f 1091 1095 1155
f 1091 1155 1092
f 1092 1097 1096
f 1092 1155 1098
f 1092 1098 1097
f 1093 1153 1152
f 1093 1152 1156
f 1093 1156 1157
f 1093 1157 1158
f 1093 1158 1094
f 1094 1158 1095
f 1095 1158 1159
f 1095 1159 1160
f 1095 1160 1161
f 1095 1161 1155
f 1098 1155 1099
f 1099 1161 1162
f 1099 1162 1145
f 1099 1145 1144
f 1099 1155 1161
f 1101 1107 1102
f 1104 1111 1106
f 1104 1106 1105
f 1108 1113 1116
f 1113 1140 1163
f 1113 1163 1116
f 1114 1116 1164
f 1114 1164 1115
f 1115 1165 1117
f 1115 1164 1166
f 1115 1166 1167
f 1115 1167 1165
f 1116 1163 1164
f 1117 1165 1118
f 1118 1167 1119
f 1118 1165 1167
f 1119 1167 1168
f 1119 1168 1120
f 1120 1168 1121
f 1121 1168 1169
f 1121 1169 1170
f 1121 1170 1171
f 1121 1171 1123
f 1123 1171 1125
f 1123 1125 1124
f 1125 1171 1170
f 1125 1170 1172
f 1125 1172 1173
f 1125 1173 1174
f 1125 1174 1126
f 1126 1174 1127
f 1127 1174 1173
f 1127 1173 1157
f 1127 1157 1152
f 1127 1152 1128
f 1128 1152 1154
f 1129 1175 1132
f 1129 1132 1131
f 1129 1131 1130
f 1129 1151 1175
f 1132 1175 1176
f 1132 1176 1133
f 1133 1176 1136
f 1135 1136 1176
f 1135 1176 1151
f 1137 1150 1141
f 1138 1142 1177
f 1138 1177 1166
f 1138 1166 1178
f 1138 1178 1179
f 1138 1179 1163
f 1138 1163 1139
f 1139 1163 1140
f 1141 1150 1180
f 1141 1180 1142
f 1142 1180 1181
f 1142 1181 1182
f 1142 1182 1183
f 1142 1183 1184
f 1142 1184 1167
f 1142 1167 1177
f 1145 1185 1186
f 1145 1186 1146
f 1145 1162 1185
f 1146 1186 1185
f 1146 1185 1147
f 1147 1185 1187
f 1147 1187 1149
f 1147 1149 1148
f 1149 1188 1150
f 1149 1187 1185
f 1149 1185 1189
f 1149 1189 1188
f 1150 1188 1180
f 1151 1176 1175
f 1152 1157 1156
f 1157 1173 1190
f 1157 1190 1159
f 1157 1159 1158
f 1159 1190 1191
f 1159 1191 1192
f 1159 1192 1161
f 1159 1161 1160
f 1161 1192 1191
f 1161 1191 1162
f 1162 1191 1185
f 1163 1179 1164
f 1164 1179 1166
f 1166 1177 1167
f 1166 1179 1178
f 1167 1184 1168
f 1168 1184 1183
f 1168 1183 1193
f 1168 1193 1169
f 1169 1193 1194
f 1169 1194 1170
f 1170 1194 1172
f 1172 1195 1173
f 1172 1194 1195
f 1173 1195 1190
f 1180 1182 1181
f 1180 1188 1182
f 1182 1188 1183
f 1183 1188 1193
f 1185 1191 1190
f 1185 1190 1195
f 1185 1195 1188
f 1185 1188 1189
f 1188 1194 1193
f 1188 1195 1194

