# https://github.com/mikedh/trimesh
v 0.00806563 0.00284188 0.00000259
v 0.00806563 0.00192552 0.00000259
v 0.00806563 0.00284188 -0.00090322
v 0.00135070 0.00284188 0.00000259
v -0.00089346 0.00216122 0.00000454
v 0.00016679 0.00206561 0.00000454
v 0.00806563 -0.00000280 -0.00193357
v 0.00016679 0.00091326 0.00000454
v 0.00315549 0.00094000 0.00000259
v 0.00806563 0.00283955 -0.00113531
v 0.00135070 0.00284188 -0.00090322
v 0.00121827 0.00283955 0.00000259
v -0.00089346 0.00217140 -0.00012920
v -0.00089346 0.00085339 0.00000454
v 0.00806563 -0.00000280 -0.00284188
v 0.00315549 -0.00000280 -0.00094668
v 0.00016679 -0.00012719 -0.00092049
v 0.00289767 0.00091355 0.00000259
v 0.00806563 0.00283665 -0.00126431
v 0.00521987 0.00283955 -0.00113531
v 0.00135070 0.00283955 -0.00107067
v 0.00121915 0.00283868 -0.00105702
v 0.00121827 0.00283955 -0.00090322
v 0.00496117 0.00283955 -0.00113503
v 0.00470334 0.00283955 -0.00113280
v -0.00089346 0.00217052 -0.00016180
v -0.00089346 -0.00012719 -0.00085752
v 0.00806563 0.00090309 -0.00284188
v 0.00016679 -0.00012719 -0.00206898
v -0.00089346 -0.00012719 -0.00215953
v 0.00135070 -0.00000280 -0.00284188
v 0.00289767 -0.00000280 -0.00092077
v 0.00806563 0.00281514 -0.00141895
v 0.00521987 0.00283665 -0.00126431
v 0.00160852 0.00283229 -0.00120079
v 0.00135070 0.00283083 -0.00119939
v 0.00470334 0.00283665 -0.00126181
v 0.00444551 0.00283636 -0.00125651
v 0.00135070 0.00279770 -0.00141867
v 0.00135070 0.00274481 -0.00167640
v 0.00117267 0.00262536 -0.00188314
v -0.00089346 0.00214727 -0.00034736
v 0.00496117 0.00283665 -0.00126403
v 0.00806563 0.00115332 -0.00283965
v 0.00135070 0.00090309 -0.00284188
v -0.00089346 0.00013961 -0.00215953
v 0.00121827 -0.00000280 -0.00283965
v 0.00806563 0.00275934 -0.00167640
v 0.00805686 0.00281514 -0.00141895
v 0.00160852 0.00280148 -0.00141867
v 0.00418768 0.00280787 -0.00141895
v 0.00367115 0.00280671 -0.00141895
v 0.00160852 0.00274742 -0.00167640
v 0.00135070 0.00264890 -0.00192242
v -0.00089346 0.00184705 -0.00107290
v -0.00089346 0.00191797 -0.00093832
v -0.00089346 0.00192494 -0.00092384
v -0.00089346 0.00213885 -0.00037523
v 0.00135070 0.00256985 -0.00205114
v 0.00119284 0.00234345 -0.00234398
v 0.00599248 0.00115332 -0.00283965
v 0.00806563 0.00127800 -0.00283742
v 0.00121827 0.00090309 -0.00283965
v 0.00121915 0.00105741 -0.00283881
v 0.00135070 0.00106991 -0.00283965
v 0.00547683 0.00115100 -0.00283965
v 0.00573553 0.00115303 -0.00283965
v -0.00089346 0.00044273 -0.00207734
v 0.00117267 0.00188280 -0.00262567
v 0.00806563 0.00265646 -0.00193440
v 0.00805686 0.00275934 -0.00167640
v 0.00212418 0.00274859 -0.00167640
v 0.00160852 0.00257159 -0.00205198
v 0.00186635 0.00264948 -0.00192381
v 0.00805686 0.00258409 -0.00207037
v -0.00089346 0.00164390 -0.00139053
v 0.00135070 0.00247481 -0.00219241
v 0.00135070 0.00235507 -0.00235512
v 0.00135070 0.00219232 -0.00247493
v 0.00135070 0.00205079 -0.00257022
v -0.00089346 0.00135589 -0.00167556
v -0.00089346 0.00139513 -0.00164881
v -0.00089346 0.00161862 -0.00141923
v 0.00806563 0.00128207 -0.00283714
v 0.00573553 0.00128178 -0.00283714
v 0.00599248 0.00128207 -0.00283714
v 0.00135070 0.00167645 -0.00274464
v 0.00135070 0.00141867 -0.00279758
v 0.00135070 0.00119895 -0.00283073
v 0.00160852 0.00119982 -0.00283213
v 0.00263984 0.00121435 -0.00283435
v 0.00521987 0.00127451 -0.00283714
v 0.00547683 0.00128004 -0.00283714
v -0.00089346 0.00089350 -0.00193858
v -0.00089346 0.00091878 -0.00192855
v 0.00135070 0.00192175 -0.00264851
v 0.00806563 0.00258409 -0.00207037
v 0.00805686 0.00265646 -0.00193440
v 0.00238201 0.00265006 -0.00192493
v 0.00160852 0.00247656 -0.00219241
v 0.00806563 0.00258089 -0.00207483
v 0.00805686 0.00248702 -0.00219965
v 0.00289767 0.00235595 -0.00235540
v 0.00806563 0.00219436 -0.00248775
v 0.00805686 0.00206968 -0.00258387
v 0.00160852 0.00205108 -0.00257106
v 0.00806563 0.00141402 -0.00281624
v 0.00805686 0.00141896 -0.00281541
v 0.00160852 0.00167645 -0.00274687
v 0.00160852 0.00141867 -0.00280120
v 0.00805686 0.00193453 -0.00265436
v 0.00806563 0.00192581 -0.00265799
v 0.00806563 0.00248702 -0.00219965
v 0.00805686 0.00235798 -0.00235568
v 0.00418768 0.00235653 -0.00235540
v 0.00676685 0.00235740 -0.00235568
v 0.00806563 0.00235275 -0.00236014
v 0.00806563 0.00206968 -0.00258387
v 0.00806563 0.00141896 -0.00281541
v 0.00805686 0.00167645 -0.00275718
v 0.00806563 0.00193453 -0.00265436
v 0.00806563 0.00167645 -0.00275718
v 0.00806563 0.00235798 -0.00235568
f 1 2 7
f 1 7 15
f 1 15 28
f 1 28 44
f 1 44 62
f 1 62 84
f 1 84 107
f 1 107 119
f 1 119 122
f 1 122 112
f 1 112 121
f 1 121 118
f 1 118 104
f 1 104 117
f 1 117 123
f 1 123 113
f 1 113 101
f 1 101 97
f 1 97 70
f 1 70 48
f 1 48 33
f 1 33 19
f 1 19 10
f 1 10 3
f 1 3 11
f 1 11 4
f 1 4 5
f 1 5 6
f 1 6 8
f 1 8 2
f 2 8 9
f 2 9 7
f 3 10 20
f 3 20 11
f 4 11 23
f 4 23 12
f 4 12 5
f 5 12 13
f 5 13 26
f 5 26 42
f 5 42 58
f 5 58 57
f 5 57 56
f 5 56 55
f 5 55 76
f 5 76 83
f 5 83 82
f 5 82 81
f 5 81 95
f 5 95 94
f 5 94 68
f 5 68 46
f 5 46 30
f 5 30 27
f 5 27 14
f 5 14 8
f 5 8 6
f 7 9 16
f 7 16 17
f 7 17 29
f 7 29 15
f 8 14 18
f 8 18 9
f 9 18 16
f 10 19 34
f 10 34 20
f 11 21 22
f 11 22 23
f 11 20 24
f 11 24 25
f 11 25 21
f 12 23 13
f 13 23 22
f 13 22 26
f 14 27 18
f 15 29 30
f 15 30 31
f 15 31 45
f 15 45 28
f 16 18 32
f 16 32 17
f 17 32 27
f 17 27 30
f 17 30 29
f 18 27 32
f 19 33 49
f 19 49 34
f 20 34 43
f 20 43 24
f 21 35 36
f 21 36 22
f 21 25 37
f 21 37 38
f 21 38 35
f 22 36 39
f 22 39 40
f 22 40 41
f 22 41 42
f 22 42 26
f 24 43 37
f 24 37 25
f 28 45 61
f 28 61 44
f 30 46 63
f 30 63 47
f 30 47 31
f 31 47 63
f 31 63 45
f 33 48 71
f 33 71 49
f 34 49 43
f 35 50 36
f 35 38 50
f 36 50 39
f 37 43 49
f 37 49 51
f 37 51 52
f 37 52 50
f 37 50 38
f 39 50 40
f 40 50 53
f 40 53 54
f 40 54 41
f 41 55 56
f 41 56 57
f 41 57 58
f 41 58 42
f 41 54 59
f 41 59 60
f 41 60 55
f 44 61 62
f 45 63 64
f 45 64 65
f 45 65 66
f 45 66 67
f 45 67 61
f 46 68 69
f 46 69 64
f 46 64 63
f 48 70 98
f 48 98 71
f 49 71 72
f 49 72 51
f 50 52 53
f 51 72 52
f 52 72 53
f 53 72 54
f 54 73 59
f 54 72 74
f 54 74 75
f 54 75 73
f 55 60 76
f 59 73 77
f 59 77 60
f 60 77 78
f 60 78 79
f 60 79 80
f 60 80 69
f 60 69 81
f 60 81 82
f 60 82 83
f 60 83 76
f 61 67 62
f 62 67 85
f 62 85 86
f 62 86 84
f 64 87 88
f 64 88 89
f 64 89 65
f 64 69 87
f 65 89 90
f 65 90 91
f 65 91 92
f 65 92 93
f 65 93 66
f 66 93 67
f 67 93 85
f 68 94 69
f 69 94 95
f 69 95 81
f 69 80 96
f 69 96 87
f 70 97 75
f 70 75 98
f 71 98 99
f 71 99 72
f 72 99 74
f 73 100 77
f 73 75 100
f 74 99 75
f 75 97 101
f 75 101 100
f 75 99 98
f 77 100 78
f 78 100 101
f 78 101 102
f 78 102 103
f 78 103 104
f 78 104 105
f 78 105 79
f 79 106 80
f 79 105 106
f 80 106 96
f 84 86 107
f 85 93 108
f 85 108 107
f 85 107 86
f 87 96 109
f 87 109 110
f 87 110 88
f 88 110 89
f 89 110 90
f 90 110 92
f 90 92 91
f 92 110 93
f 93 110 108
f 96 106 105
f 96 105 111
f 96 111 112
f 96 112 109
f 101 113 102
f 102 113 123
f 102 123 114
f 102 114 115
f 102 115 103
f 103 115 114
f 103 114 116
f 103 116 117
f 103 117 104
f 104 118 105
f 105 118 121
f 105 121 111
f 107 108 119
f 108 120 122
f 108 122 119
f 108 110 109
f 108 109 120
f 109 112 120
f 111 121 112
f 112 122 120
f 114 123 117
f 114 117 116

