# https://github.com/mikedh/trimesh
v 0.01963036 -0.04589872 0.01248572
v 0.01963036 -0.04182498 0.01248572
v 0.02031553 -0.04603612 0.01248572
v 0.01547852 -0.04546106 0.01701688
v 0.02027923 -0.04173465 0.01248572
v 0.01547852 -0.04120539 0.01701688
v 0.01164430 -0.03620292 0.02200734
v 0.01173051 -0.03583905 0.02200734
v 0.01189840 -0.03514059 0.02200734
v 0.01278322 -0.03463423 0.02200734
v 0.02414068 -0.04668878 0.01248572
v 0.01152632 -0.04505267 0.02200734
v 0.01108164 -0.04491527 0.02200734
v 0.03105135 -0.04032246 0.01248572
v 0.01108164 -0.04082754 0.02200734
v 0.01167152 -0.03620292 0.02282501
v 0.01191201 -0.03515586 0.02282501
v 0.01108164 -0.04037462 0.02848897
v 0.01278322 -0.03464950 0.02282501
v 0.01403558 -0.03460370 0.02407726
v 0.03062482 -0.03461388 0.02407726
v 0.03062482 -0.03470930 0.02372301
v 0.03062482 -0.03508334 0.02291358
v 0.03105135 -0.04759971 0.01248572
v 0.01152632 -0.04505267 0.02282501
v 0.01108164 -0.04491527 0.02238013
v 0.05743715 -0.04128427 0.01701688
v 0.01200730 -0.03531107 0.02378685
v 0.01403558 -0.03509097 0.02514003
v 0.01304186 -0.03526400 0.02496290
v 0.01108164 -0.04350053 0.02848897
v 0.03814807 -0.04071940 0.03352680
v 0.01268793 -0.03502609 0.02415347
v 0.01528794 -0.03507316 0.02518946
v 0.03032988 -0.03507316 0.02518946
v 0.03062482 -0.03496502 0.02492994
v 0.04267199 -0.04071940 0.03249905
v 0.04299416 -0.04071940 0.03231574
v 0.04329817 -0.04071940 0.03212420
v 0.05743715 -0.04071940 0.02287650
v 0.05743715 -0.04071940 0.01885406
v 0.05743715 -0.04486056 0.01701688
v 0.05661132 -0.04501323 0.01701688
v 0.05539979 -0.04523206 0.01701688
v 0.05414289 -0.04540636 0.01701688
v 0.05288599 -0.04553358 0.01701688
v 0.05213276 -0.04559338 0.01780983
v 0.05132508 -0.04562264 0.01855130
v 0.04537183 -0.04591653 0.02157276
v 0.04161021 -0.04606411 0.02407726
v 0.04036238 -0.04604884 0.02532745
v 0.03814807 -0.04608319 0.02532745
v 0.03784859 -0.04608701 0.02532745
v 0.03659623 -0.04609846 0.02532745
v 0.03409604 -0.04611882 0.02532745
v 0.03284368 -0.04612263 0.02532745
v 0.03159132 -0.04612263 0.02532745
v 0.03033442 -0.04611754 0.02532745
v 0.02908206 -0.04610355 0.02532745
v 0.02782970 -0.04607683 0.02532745
v 0.02657734 -0.04603994 0.02532745
v 0.02553824 -0.04600431 0.02532951
v 0.02406354 -0.04595215 0.02532951
v 0.02280664 -0.04590381 0.02532951
v 0.02155428 -0.04583892 0.02532951
v 0.01843245 -0.04560101 0.02593710
v 0.01654484 -0.04547379 0.02532951
v 0.01528794 -0.04536056 0.02532951
v 0.01403558 -0.04524224 0.02532951
v 0.01278322 -0.04517990 0.02407726
v 0.01152632 -0.04503868 0.02407726
v 0.01108164 -0.04490382 0.02362414
v 0.01108164 -0.04491272 0.02282501
v 0.01108164 -0.04464810 0.02527184
v 0.01143103 -0.04472952 0.02542837
v 0.01178949 -0.04453232 0.02619249
v 0.01278322 -0.04509466 0.02532951
v 0.01278322 -0.04468499 0.02638815
v 0.01147186 -0.04355142 0.02848897
v 0.03814807 -0.04216212 0.03248875
v 0.03814807 -0.04196493 0.03263704
v 0.03814807 -0.04131862 0.03311488
v 0.03910549 -0.04131481 0.03311488
v 0.03910549 -0.04071940 0.03351856
v 0.03062482 -0.03507698 0.02517710
v 0.04167373 -0.04071940 0.03296246
v 0.04259032 -0.04091914 0.03244550
v 0.04364303 -0.04197765 0.03109439
v 0.05743715 -0.04119267 0.02263141
v 0.04992752 -0.04564045 0.01977471
v 0.05743715 -0.04459593 0.01761211
v 0.04320742 -0.04426515 0.02825005
v 0.04133796 -0.04573460 0.02612658
v 0.04169188 -0.04586818 0.02541807
v 0.05288599 -0.04549796 0.01780983
v 0.04286257 -0.04593307 0.02407726
v 0.04411493 -0.04593307 0.02282707
v 0.04036238 -0.04580839 0.02622132
v 0.03910549 -0.04582238 0.02623574
v 0.03784859 -0.04583256 0.02624604
v 0.03534387 -0.04583765 0.02625840
v 0.03159132 -0.04584528 0.02625840
v 0.03033442 -0.04584656 0.02625634
v 0.03409604 -0.04584019 0.02626252
v 0.03284368 -0.04584274 0.02626252
v 0.02908206 -0.04583892 0.02624810
v 0.02782970 -0.04582747 0.02623574
v 0.02657734 -0.04581093 0.02622132
v 0.02554278 -0.04579312 0.02620279
v 0.02406354 -0.04576513 0.02617395
v 0.02280664 -0.04574096 0.02614718
v 0.02155428 -0.04570915 0.02610805
v 0.02030192 -0.04566844 0.02605244
v 0.01927190 -0.04563154 0.02599889
v 0.01779720 -0.04419263 0.02848897
v 0.01654484 -0.04409340 0.02848897
v 0.01403558 -0.04384404 0.02848897
v 0.01278322 -0.04370409 0.02848897
v 0.01108164 -0.04488601 0.02407726
v 0.03814807 -0.04264176 0.03202534
v 0.03910549 -0.04215703 0.03248875
v 0.04036238 -0.04208961 0.03243726
v 0.04001299 -0.04071940 0.03345265
v 0.03985418 -0.04071940 0.03346707
v 0.04063917 -0.04071940 0.03333525
v 0.04164197 -0.04128809 0.03265352
v 0.04208211 -0.04175373 0.03215097
v 0.04286257 -0.04222319 0.03132095
v 0.04286257 -0.04284914 0.03069482
v 0.05743715 -0.04194457 0.02209179
v 0.05743715 -0.04183898 0.02219889
v 0.05743715 -0.04337458 0.02023607
v 0.04281719 -0.04400180 0.02901829
v 0.04236798 -0.04438474 0.02855282
v 0.04161021 -0.04417736 0.02933959
v 0.04036238 -0.04426769 0.02951672
v 0.03910549 -0.04430077 0.02959292
v 0.03814807 -0.04430841 0.02961146
v 0.02553824 -0.04462392 0.02848897
v 0.02531590 -0.04461884 0.02848897
v 0.02531590 -0.04578803 0.02620073
v 0.02406354 -0.04457303 0.02848897
v 0.02366424 -0.04455650 0.02848897
v 0.02280664 -0.04451451 0.02848897
v 0.02054241 -0.04438220 0.02848897
v 0.02155428 -0.04444327 0.02848897
v 0.01976195 -0.04433131 0.02848897
v 0.03814807 -0.04278934 0.03187910
v 0.03910549 -0.04278298 0.03187292
v 0.04036238 -0.04271682 0.03181319
v 0.04125174 -0.04196747 0.03233634
v 0.04036238 -0.04112524 0.03312517
v 0.04210934 -0.04305015 0.03091520
v 0.04363849 -0.04317611 0.02981742
v 0.05743715 -0.04240512 0.02157894
v 0.05743715 -0.04302980 0.02084778
v 0.04166466 -0.04351325 0.03043531
v 0.04286257 -0.04335295 0.03006664
v 0.04036238 -0.04381096 0.03034057
v 0.03910549 -0.04388348 0.03034057
v 0.03814807 -0.04421044 0.02978859
v 0.03814807 -0.04389111 0.03034057
v 0.03814807 -0.04375498 0.03055477
v 0.03814807 -0.04330460 0.03125298
v 0.03910549 -0.04330587 0.03124680
v 0.04036238 -0.04326644 0.03118501
v 0.04127897 -0.04318374 0.03107585
f 1 2 5
f 1 5 14
f 1 14 24
f 1 24 11
f 1 11 3
f 1 3 4
f 1 4 6
f 1 6 2
f 2 6 7
f 2 7 8
f 2 8 9
f 2 9 10
f 2 10 5
f 3 11 4
f 4 12 13
f 4 13 15
f 4 15 6
f 4 11 12
f 5 10 14
f 6 15 7
f 7 16 17
f 7 17 8
f 7 15 18
f 7 18 16
f 8 17 9
f 9 17 19
f 9 19 10
f 10 19 20
f 10 20 21
f 10 21 22
f 10 22 23
f 10 23 14
f 11 24 12
f 12 25 26
f 12 26 13
f 12 24 25
f 13 26 73
f 13 73 72
f 13 72 119
f 13 119 74
f 13 74 31
f 13 31 18
f 13 18 15
f 14 23 27
f 14 27 42
f 14 42 24
f 16 18 17
f 17 18 28
f 17 28 19
f 18 29 30
f 18 30 28
f 18 31 32
f 18 32 29
f 19 28 33
f 19 33 20
f 20 33 30
f 20 30 29
f 20 29 34
f 20 34 35
f 20 35 36
f 20 36 21
f 21 36 37
f 21 37 38
f 21 38 39
f 21 39 40
f 21 40 41
f 21 41 22
f 22 41 27
f 22 27 23
f 24 42 43
f 24 43 44
f 24 44 45
f 24 45 46
f 24 46 47
f 24 47 48
f 24 48 49
f 24 49 50
f 24 50 51
f 24 51 52
f 24 52 53
f 24 53 54
f 24 54 55
f 24 55 56
f 24 56 57
f 24 57 58
f 24 58 59
f 24 59 60
f 24 60 61
f 24 61 62
f 24 62 63
f 24 63 64
f 24 64 65
f 24 65 66
f 24 66 67
f 24 67 68
f 24 68 69
f 24 69 70
f 24 70 71
f 24 71 25
f 25 71 72
f 25 72 73
f 25 73 26
f 27 41 40
f 27 40 89
f 27 89 131
f 27 131 130
f 27 130 155
f 27 155 156
f 27 156 132
f 27 132 91
f 27 91 42
f 28 30 33
f 29 32 34
f 31 74 75
f 31 75 76
f 31 76 77
f 31 77 78
f 31 78 79
f 31 79 80
f 31 80 81
f 31 81 82
f 31 82 32
f 32 82 83
f 32 83 84
f 32 84 35
f 32 35 34
f 35 84 85
f 35 85 36
f 36 85 86
f 36 86 37
f 37 86 87
f 37 87 38
f 38 87 39
f 39 87 88
f 39 88 89
f 39 89 40
f 42 90 43
f 42 91 92
f 42 92 93
f 42 93 94
f 42 94 90
f 43 90 44
f 44 90 48
f 44 48 95
f 44 95 45
f 45 95 47
f 45 47 46
f 47 95 48
f 48 90 96
f 48 96 97
f 48 97 50
f 48 50 49
f 50 97 96
f 50 96 51
f 51 96 94
f 51 94 93
f 51 93 98
f 51 98 52
f 52 99 53
f 52 98 99
f 53 99 100
f 53 100 54
f 54 100 55
f 55 101 56
f 55 100 101
f 56 102 103
f 56 103 57
f 56 101 104
f 56 104 105
f 56 105 102
f 57 103 58
f 58 103 106
f 58 106 59
f 59 106 107
f 59 107 108
f 59 108 60
f 60 108 109
f 60 109 110
f 60 110 111
f 60 111 61
f 61 111 112
f 61 112 62
f 62 112 63
f 63 112 64
f 64 112 113
f 64 113 114
f 64 114 66
f 64 66 65
f 66 114 115
f 66 115 116
f 66 116 117
f 66 117 118
f 66 118 79
f 66 79 78
f 66 78 77
f 66 77 69
f 66 69 68
f 66 68 67
f 69 77 71
f 69 71 70
f 71 77 75
f 71 75 74
f 71 74 119
f 71 119 72
f 75 77 76
f 79 118 80
f 80 120 121
f 80 121 81
f 80 118 117
f 80 117 120
f 81 121 83
f 81 83 82
f 83 122 123
f 83 123 124
f 83 124 84
f 83 121 122
f 84 124 85
f 85 124 123
f 85 123 125
f 85 125 86
f 86 125 126
f 86 126 87
f 87 126 127
f 87 127 88
f 88 128 129
f 88 129 130
f 88 130 131
f 88 131 89
f 88 127 128
f 90 94 96
f 91 132 92
f 92 132 133
f 92 133 134
f 92 134 93
f 93 134 135
f 93 135 136
f 93 136 98
f 98 136 137
f 98 137 138
f 98 138 99
f 99 138 100
f 100 138 101
f 101 138 104
f 102 105 138
f 102 138 103
f 103 138 106
f 104 138 105
f 106 138 107
f 107 138 108
f 108 138 139
f 108 139 140
f 108 140 109
f 109 140 141
f 109 141 110
f 110 141 140
f 110 140 111
f 111 140 142
f 111 142 143
f 111 143 112
f 112 143 144
f 112 144 113
f 113 145 114
f 113 144 146
f 113 146 145
f 114 145 147
f 114 147 115
f 115 147 148
f 115 148 116
f 116 148 120
f 116 120 117
f 120 148 149
f 120 149 121
f 121 149 122
f 122 150 151
f 122 151 152
f 122 152 123
f 122 149 150
f 123 152 125
f 125 152 151
f 125 151 126
f 126 151 127
f 127 153 128
f 127 151 153
f 128 153 129
f 129 154 155
f 129 155 130
f 129 153 154
f 132 156 133
f 133 157 135
f 133 135 134
f 133 156 158
f 133 158 157
f 135 157 159
f 135 159 136
f 136 159 137
f 137 160 161
f 137 161 138
f 137 159 160
f 138 161 140
f 138 140 139
f 140 161 162
f 140 162 163
f 140 163 164
f 140 164 142
f 142 164 143
f 143 164 144
f 144 164 146
f 145 146 164
f 145 164 147
f 147 164 148
f 148 164 165
f 148 165 149
f 149 165 166
f 149 166 150
f 150 166 167
f 150 167 151
f 151 167 153
f 153 167 157
f 153 157 158
f 153 158 154
f 154 158 156
f 154 156 155
f 157 167 159
f 159 167 166
f 159 166 165
f 159 165 160
f 160 165 163
f 160 163 162
f 160 162 161
f 163 165 164

