# https://github.com/mikedh/trimesh
v -0.00640727 0.00012799 -0.00193424
v -0.00640727 0.00012799 -0.00284186
v -0.01003304 0.00012799 -0.00193507
v -0.00264032 -0.00000071 -0.00091396
v -0.00016646 -0.00000071 -0.00091396
v -0.01003304 0.00012799 -0.00284885
v -0.00016646 -0.00000071 -0.00207037
v -0.00121782 -0.00000071 -0.00283963
v -0.00135045 -0.00000071 -0.00284186
v -0.01003304 -0.00192591 -0.00000325
v -0.00315585 -0.00094011 -0.00000046
v -0.00315585 -0.00000071 -0.00094135
v -0.00302750 -0.00000071 -0.00092765
v -0.00289809 -0.00000071 -0.00091424
v 0.00089346 -0.00085314 -0.00000493
v 0.00089346 -0.00013087 -0.00085330
v -0.01003304 -0.00090305 -0.00285612
v 0.00089346 -0.00013087 -0.00217770
v -0.00121782 -0.00090334 -0.00283963
v -0.00135045 -0.00090334 -0.00284186
v -0.01003304 -0.00284867 -0.00000325
v -0.00640727 -0.00192532 -0.00000046
v -0.00289809 -0.00091355 -0.00000046
v -0.00264032 -0.00091297 -0.00000046
v -0.00016646 -0.00091297 -0.00000046
v 0.00089346 -0.00216346 -0.00000493
v -0.01003304 -0.00117532 -0.00285361
v 0.00089346 -0.00035411 -0.00214975
v -0.00121996 -0.00105713 -0.00283851
v -0.00135045 -0.00106997 -0.00283963
v -0.00640727 -0.00284167 -0.00000046
v -0.01003304 -0.00285305 -0.00081556
v -0.00135045 -0.00284167 -0.00000046
v -0.00016646 -0.00206511 -0.00000046
v 0.00089346 -0.00215383 -0.00012568
v -0.00121782 -0.00283962 -0.00000046
v -0.00121782 -0.00283962 -0.00090333
v -0.00121996 -0.00283846 -0.00105735
v -0.01003304 -0.00121034 -0.00285305
v 0.00089346 -0.00107347 -0.00189594
v -0.00117290 -0.00188301 -0.00262551
v -0.00135045 -0.00167639 -0.00274459
v -0.00135045 -0.00141900 -0.00279742
v -0.00135045 -0.00119867 -0.00283068
v -0.00160821 -0.00119925 -0.00283180
v -0.00264032 -0.00121472 -0.00283432
v -0.01003304 -0.00285334 -0.00110320
v -0.00135045 -0.00284167 -0.00090333
v 0.00089346 -0.00215208 -0.00014665
v -0.00135045 -0.00283962 -0.00107049
v -0.00135045 -0.00283087 -0.00119935
v -0.00135045 -0.00279760 -0.00141934
v -0.00135045 -0.00274507 -0.00167623
v -0.00117290 -0.00262571 -0.00188308
v 0.00089346 -0.00208904 -0.00045553
v -0.00521901 -0.00127454 -0.00283711
v -0.00547677 -0.00128009 -0.00283711
v -0.01003304 -0.00141871 -0.00282957
v 0.00089346 -0.00110879 -0.00188168
v -0.00119322 -0.00234352 -0.00234347
v -0.00135045 -0.00205081 -0.00256988
v -0.00135045 -0.00192153 -0.00264871
v -0.00160821 -0.00167639 -0.00274683
v -0.00160821 -0.00141900 -0.00280077
v -0.01003304 -0.00285217 -0.00116553
v -0.00444572 -0.00283641 -0.00125666
v -0.00160821 -0.00283233 -0.00120103
v -0.00160821 -0.00280140 -0.00141934
v -0.00160821 -0.00274741 -0.00167623
v -0.00135045 -0.00264906 -0.00192222
v 0.00089346 -0.00165013 -0.00139391
v 0.00089346 -0.00184420 -0.00106770
v 0.00089346 -0.00191540 -0.00093436
v 0.00089346 -0.00192270 -0.00091899
v -0.00135045 -0.00257027 -0.00205136
v -0.01003304 -0.00167377 -0.00278848
v 0.00089346 -0.00138836 -0.00164436
v -0.00135045 -0.00247484 -0.00219224
v -0.00135045 -0.00235519 -0.00235465
v -0.00135045 -0.00219235 -0.00247484
v -0.01003304 -0.00210217 -0.00260482
v -0.01003304 -0.00198369 -0.00266632
v -0.01003304 -0.00193466 -0.00269092
v -0.01003304 -0.00282854 -0.00141906
v -0.00470348 -0.00283641 -0.00126197
v -0.01003304 -0.00280752 -0.00158231
v -0.01003304 -0.00278826 -0.00167316
v -0.01003304 -0.00272523 -0.00184674
v -0.01003304 -0.00269108 -0.00193424
v -0.01003304 -0.00260441 -0.00210139
v -0.01003304 -0.00254283 -0.00218637
v -0.01003304 -0.00250986 -0.00223026
v -0.01003304 -0.00238087 -0.00238008
v -0.01003304 -0.00228311 -0.00246534
v -0.01003304 -0.00223116 -0.00250895
f 1 2 6
f 1 6 3
f 1 3 4
f 1 4 5
f 1 5 7
f 1 7 2
f 2 7 8
f 2 8 9
f 2 9 6
f 3 6 17
f 3 17 27
f 3 27 39
f 3 39 58
f 3 58 76
f 3 76 83
f 3 83 82
f 3 82 81
f 3 81 95
f 3 95 94
f 3 94 93
f 3 93 92
f 3 92 91
f 3 91 90
f 3 90 89
f 3 89 88
f 3 88 87
f 3 87 86
f 3 86 84
f 3 84 65
f 3 65 47
f 3 47 32
f 3 32 21
f 3 21 10
f 3 10 11
f 3 11 12
f 3 12 13
f 3 13 14
f 3 14 4
f 4 14 15
f 4 15 5
f 5 15 16
f 5 16 18
f 5 18 7
f 6 9 17
f 7 18 8
f 8 19 20
f 8 20 9
f 8 18 19
f 9 20 17
f 10 21 31
f 10 31 22
f 10 22 11
f 11 23 14
f 11 14 13
f 11 13 12
f 11 22 31
f 11 31 33
f 11 33 36
f 11 36 34
f 11 34 25
f 11 25 24
f 11 24 23
f 14 23 15
f 15 23 24
f 15 24 25
f 15 25 34
f 15 34 26
f 15 26 35
f 15 35 49
f 15 49 55
f 15 55 74
f 15 74 73
f 15 73 72
f 15 72 71
f 15 71 77
f 15 77 59
f 15 59 40
f 15 40 28
f 15 28 18
f 15 18 16
f 17 20 27
f 18 28 29
f 18 29 19
f 19 29 20
f 20 29 30
f 20 30 27
f 21 32 33
f 21 33 31
f 26 34 36
f 26 36 37
f 26 37 38
f 26 38 35
f 27 30 39
f 28 40 41
f 28 41 29
f 29 42 43
f 29 43 44
f 29 44 30
f 29 41 42
f 30 44 45
f 30 45 46
f 30 46 39
f 32 47 33
f 33 48 37
f 33 37 36
f 33 47 48
f 35 38 49
f 37 48 38
f 38 48 50
f 38 50 51
f 38 51 52
f 38 52 53
f 38 53 54
f 38 54 55
f 38 55 49
f 39 56 57
f 39 57 58
f 39 46 56
f 40 59 41
f 41 59 60
f 41 60 61
f 41 61 62
f 41 62 42
f 42 62 63
f 42 63 64
f 42 64 43
f 43 64 44
f 44 64 45
f 45 64 46
f 46 64 56
f 47 65 50
f 47 50 48
f 50 65 66
f 50 66 67
f 50 67 51
f 51 67 68
f 51 68 52
f 52 68 53
f 53 68 69
f 53 69 70
f 53 70 54
f 54 60 71
f 54 71 72
f 54 72 73
f 54 73 74
f 54 74 55
f 54 70 75
f 54 75 60
f 56 64 57
f 57 64 76
f 57 76 58
f 59 77 60
f 60 75 78
f 60 78 79
f 60 79 80
f 60 80 61
f 60 77 71
f 61 80 81
f 61 81 62
f 62 81 82
f 62 82 83
f 62 83 63
f 63 83 76
f 63 76 64
f 65 84 85
f 65 85 66
f 66 85 86
f 66 86 68
f 66 68 67
f 68 86 69
f 69 86 87
f 69 87 88
f 69 88 89
f 69 89 70
f 70 89 90
f 70 90 75
f 75 90 78
f 78 90 91
f 78 91 79
f 79 91 92
f 79 92 93
f 79 93 94
f 79 94 95
f 79 95 81
f 79 81 80
f 84 86 85

