# https://github.com/mikedh/trimesh
v 0.04807495 -0.00871846 -0.00779814
v 0.05539916 -0.00871846 -0.00779814
v 0.04839332 -0.00871846 -0.00753560
v 0.05504655 0.00514158 -0.00508371
v 0.05183886 0.00514158 -0.00779814
v 0.05540749 -0.00826939 -0.00779814
v 0.05564348 -0.00826939 -0.00757971
v 0.05564070 -0.00871846 -0.00757227
v 0.05399984 -0.00871846 -0.00508371
v 0.05752219 0.00514158 -0.00508371
v 0.05539175 0.00514158 -0.00779814
v 0.05539268 0.00478205 -0.00779814
v 0.05597758 -0.00826939 -0.00724888
v 0.05563330 0.00514158 -0.00757067
v 0.05597665 0.00514158 -0.00723984
v 0.05597850 -0.00033135 -0.00724276
v 0.05597017 -0.00871846 -0.00724144
v 0.05751757 -0.00871846 -0.00508371
v 0.05734450 0.00514158 -0.00541614
v 0.05752312 0.00460297 -0.00508371
v 0.05630890 -0.00826939 -0.00687181
v 0.05630149 -0.00871846 -0.00686463
v 0.05630705 0.00514158 -0.00686277
v 0.05630797 0.00363836 -0.00686357
v 0.05746111 -0.00871846 -0.00518868
v 0.05752127 -0.00858686 -0.00508371
v 0.05714645 0.00363836 -0.00574830
v 0.05714553 0.00514158 -0.00574697
v 0.05752590 -0.00003152 -0.00508371
v 0.05744908 -0.00071122 -0.00522747
v 0.05734450 0.00429907 -0.00541694
v 0.05715200 -0.00694661 -0.00575601
v 0.05658191 -0.00826939 -0.00654097
v 0.05648936 -0.00871846 -0.00664036
v 0.05649954 0.00514158 -0.00662149
v 0.05657173 0.00496114 -0.00653194
v 0.05734173 -0.00871846 -0.00540923
v 0.05734635 -0.00826939 -0.00542066
v 0.05752867 -0.00826939 -0.00508371
v 0.05687436 0.00297629 -0.00612431
v 0.05707149 0.00514158 -0.00584928
v 0.05752867 -0.00797499 -0.00508371
v 0.05734450 0.00297629 -0.00541800
v 0.05734450 -0.00628454 -0.00542491
v 0.05734450 -0.00297691 -0.00542252
v 0.05734450 -0.00694661 -0.00542518
v 0.05715015 -0.00760732 -0.00575442
v 0.05688547 -0.00826939 -0.00612431
v 0.05657728 -0.00871846 -0.00653380
v 0.05679107 0.00514158 -0.00623485
v 0.05657081 0.00514158 -0.00653194
v 0.05727787 -0.00871846 -0.00551579
v 0.05714830 -0.00826939 -0.00575149
v 0.05687159 0.00514158 -0.00612431
v 0.05687436 -0.00871846 -0.00612431
v 0.05714182 -0.00871846 -0.00574007
f 1 2 8
f 1 8 17
f 1 17 22
f 1 22 34
f 1 34 49
f 1 49 55
f 1 55 56
f 1 56 52
f 1 52 37
f 1 37 25
f 1 25 18
f 1 18 9
f 1 9 3
f 1 3 4
f 1 4 5
f 1 5 11
f 1 11 12
f 1 12 6
f 1 6 2
f 2 6 7
f 2 7 8
f 3 9 4
f 4 10 19
f 4 19 28
f 4 28 41
f 4 41 54
f 4 54 50
f 4 50 51
f 4 51 35
f 4 35 23
f 4 23 15
f 4 15 14
f 4 14 11
f 4 11 5
f 4 9 18
f 4 18 26
f 4 26 39
f 4 39 42
f 4 42 29
f 4 29 20
f 4 20 10
f 6 12 7
f 7 13 8
f 7 12 14
f 7 14 15
f 7 15 16
f 7 16 13
f 8 13 17
f 10 20 19
f 11 14 12
f 13 21 22
f 13 22 17
f 13 16 21
f 15 23 24
f 15 24 16
f 16 24 21
f 18 25 26
f 19 27 28
f 19 20 29
f 19 29 30
f 19 30 31
f 19 31 32
f 19 32 27
f 21 33 34
f 21 34 22
f 21 24 33
f 23 35 36
f 23 36 33
f 23 33 24
f 25 37 26
f 26 37 38
f 26 38 39
f 27 40 41
f 27 41 28
f 27 32 40
f 29 42 30
f 30 43 31
f 30 42 44
f 30 44 45
f 30 45 43
f 31 43 32
f 32 45 44
f 32 44 46
f 32 46 38
f 32 38 47
f 32 47 48
f 32 48 40
f 32 43 45
f 33 48 49
f 33 49 34
f 33 36 50
f 33 50 40
f 33 40 48
f 35 51 36
f 36 51 50
f 37 52 53
f 37 53 38
f 38 53 47
f 38 46 39
f 39 46 42
f 40 50 54
f 40 54 41
f 42 46 44
f 47 53 48
f 48 53 55
f 48 55 49
f 52 56 53
f 53 56 55

