# https://github.com/mikedh/trimesh
v 0.05092630 0.00959285 -0.00002637
v 0.05107306 0.01010905 -0.00002637
v 0.05104341 0.00921639 -0.00002637
v 0.04678743 0.00959337 0.00226615
v 0.05144662 0.01028164 -0.00002637
v 0.04678743 0.01013616 0.00253706
v 0.05107750 0.00911211 -0.00002637
v 0.04369069 0.00684866 0.00514047
v 0.04369069 0.01036298 0.00514047
v 0.05155335 0.01032909 -0.00002637
v 0.05307281 0.00646334 -0.00002637
v 0.04389378 0.00661298 0.00514047
v 0.04369069 0.00503675 0.00728910
v 0.04369069 0.01036298 0.00681923
v 0.04678743 0.01036350 0.00380013
v 0.05221450 0.01036246 -0.00002637
v 0.05207219 0.01035620 -0.00002637
v 0.05353829 0.00622296 -0.00002637
v 0.04426142 0.00640546 0.00514047
v 0.04369069 0.00503675 0.00904780
v 0.05667209 0.00548621 -0.00002637
v 0.05513039 0.00503675 0.00514136
v 0.04369069 0.01036246 0.00710790
v 0.04427772 0.01036246 0.00776963
v 0.04626266 0.01036246 0.00843137
v 0.04960103 0.01036298 0.00681923
v 0.04678743 0.01036350 0.00514047
v 0.04996867 0.01036350 0.00340220
v 0.05684404 0.01036246 -0.00002637
v 0.04369069 0.00992656 0.00904780
v 0.04960103 0.00503675 0.00904780
v 0.05883491 0.00548621 -0.00002637
v 0.05750371 0.00503675 0.00514136
v 0.04369069 0.01035464 0.00776963
v 0.04493888 0.01035307 0.00843137
v 0.04560003 0.01036089 0.00843137
v 0.04824463 0.01034890 0.00904780
v 0.05022957 0.01036246 0.00843137
v 0.04996867 0.01036350 0.00514047
v 0.05684404 0.01036246 0.00181582
v 0.05736288 0.01034004 -0.00002637
v 0.04402127 0.01006838 0.00904780
v 0.04369069 0.01004127 0.00894921
v 0.04960103 0.01034004 0.00904780
v 0.05373100 0.00503675 0.00904691
v 0.05374583 0.00826951 0.00904691
v 0.05883194 0.00826951 -0.00002637
v 0.05882009 0.00562543 0.00049324
v 0.05882009 0.00548621 0.00049324
v 0.05880823 0.00548621 0.00063181
v 0.05876079 0.00548621 0.00115498
v 0.05867778 0.00548621 0.00181582
v 0.05856363 0.00548621 0.00238251
v 0.05845245 0.00548621 0.00278044
v 0.05835016 0.00548621 0.00313929
v 0.05812929 0.00548621 0.00380102
v 0.05791879 0.00548621 0.00429932
v 0.05776462 0.00826951 0.00464040
v 0.05750668 0.00824500 0.00514136
v 0.05726060 0.00503675 0.00558370
v 0.04369069 0.01025557 0.00843137
v 0.04427772 0.01032335 0.00843137
v 0.04626266 0.01032596 0.00904780
v 0.04692233 0.01034108 0.00904780
v 0.04758496 0.01034734 0.00904780
v 0.04829059 0.01034890 0.00904780
v 0.05089072 0.01036037 0.00843137
v 0.05221302 0.01036246 0.00776963
v 0.05485911 0.01036246 0.00514136
v 0.05618141 0.01036246 0.00380102
v 0.05684404 0.01035724 0.00247755
v 0.05750519 0.01033065 0.00049324
v 0.05750519 0.01033274 -0.00002637
v 0.04427921 0.01011531 0.00904780
v 0.05373990 0.00854481 0.00904691
v 0.05372655 0.00893118 0.00904691
v 0.05368060 0.00908343 0.00904691
v 0.05333816 0.00960328 0.00904691
v 0.05310395 0.00979047 0.00904691
v 0.05275410 0.00998600 0.00904691
v 0.05272445 0.00999486 0.00904691
v 0.05247393 0.01006786 0.00904691
v 0.05228418 0.01010592 0.00904691
v 0.05159783 0.01022897 0.00904691
v 0.05093667 0.01029415 0.00904691
v 0.05027552 0.01032544 0.00904691
v 0.04961437 0.01034004 0.00904691
v 0.04895174 0.01034629 0.00904780
v 0.05376510 0.00503675 0.00902648
v 0.05403193 0.00826951 0.00887015
v 0.05882009 0.00893118 -0.00002637
v 0.05880971 0.00893118 0.00049324
v 0.05881712 0.00826951 0.00049324
v 0.05876524 0.00826951 0.00115498
v 0.05867926 0.00826951 0.00181582
v 0.05855918 0.00826951 0.00239761
v 0.05847617 0.00826951 0.00272715
v 0.05835758 0.00826951 0.00313929
v 0.05813077 0.00826951 0.00380102
v 0.05791730 0.00826951 0.00430997
v 0.05776165 0.00893118 0.00462530
v 0.05750668 0.00826951 0.00514136
v 0.05703379 0.00826951 0.00591145
v 0.05702786 0.00503675 0.00591501
v 0.05726060 0.00694773 0.00558281
v 0.04493888 0.01023315 0.00904780
v 0.04560003 0.01029572 0.00904780
v 0.05155187 0.01034942 0.00843137
v 0.05287417 0.01035255 0.00776963
v 0.05353681 0.01035828 0.00710790
v 0.05419796 0.01036193 0.00644706
v 0.05618141 0.01034994 0.00446275
v 0.05485911 0.01036141 0.00578533
v 0.05550395 0.01035933 0.00514136
v 0.05684404 0.01034994 0.00278044
v 0.05750519 0.01032022 0.00115498
v 0.05814263 0.01011166 0.00049324
v 0.05800921 0.01016067 -0.00002637
v 0.05402303 0.00893118 0.00886571
v 0.05395929 0.00938012 0.00882219
v 0.05352939 0.00959754 0.00894654
v 0.05374583 0.00982123 0.00868629
v 0.05330555 0.00996723 0.00881864
v 0.05287417 0.01003605 0.00892789
v 0.05272445 0.01004804 0.00897230
v 0.05272445 0.01005430 0.00895809
v 0.05272445 0.01021020 0.00858858
v 0.05287417 0.01024566 0.00843137
v 0.05221302 0.01032231 0.00843137
v 0.05402303 0.00503675 0.00886216
v 0.05435509 0.00503675 0.00864987
v 0.05436102 0.00826951 0.00864543
v 0.05865109 0.00956730 -0.00002637
v 0.05864664 0.00956157 0.00049324
v 0.05862144 0.00951881 0.00115498
v 0.05875931 0.00893118 0.00115498
v 0.05866888 0.00893118 0.00181582
v 0.05855177 0.00893118 0.00238340
v 0.05847617 0.00893118 0.00271293
v 0.05845838 0.00882794 0.00278044
v 0.05835165 0.00893118 0.00313929
v 0.05811743 0.00893118 0.00380102
v 0.05790989 0.00893118 0.00429576
v 0.05787876 0.00935509 0.00422470
v 0.05721316 0.00933945 0.00551708
v 0.05748741 0.00893118 0.00514136
v 0.05748889 0.00890667 0.00514136
v 0.05725615 0.00826951 0.00558014
v 0.05725912 0.00760940 0.00558192
v 0.05670322 0.00826951 0.00637156
v 0.05703231 0.00893118 0.00589458
v 0.05670173 0.00893118 0.00636623
v 0.05673435 0.00503675 0.00631382
v 0.05272445 0.01034577 0.00791975
v 0.05353681 0.01030667 0.00776963
v 0.05419796 0.01032961 0.00710790
v 0.05485911 0.01033534 0.00644706
v 0.05618141 0.01030041 0.00512359
v 0.05684404 0.01030667 0.00380102
v 0.05684404 0.01034108 0.00313929
v 0.05552026 0.01032856 0.00578533
v 0.05750519 0.01029832 0.00181582
v 0.05814708 0.01011322 -0.00002637
v 0.05811001 0.01010123 0.00115498
v 0.05847172 0.00989266 0.00049324
v 0.05847765 0.00989840 -0.00002637
v 0.05435361 0.00893118 0.00863744
v 0.05479388 0.00893118 0.00830613
v 0.05469604 0.00946719 0.00822974
v 0.05423502 0.00964395 0.00845801
v 0.05451074 0.00990831 0.00808496
v 0.05352939 0.01008402 0.00845180
v 0.05406899 0.01001415 0.00824484
v 0.05425281 0.01012782 0.00782648
v 0.05479981 0.00503675 0.00831856
v 0.05480129 0.00826951 0.00831501
v 0.05857401 0.00942965 0.00181582
v 0.05844207 0.00984939 0.00115498
v 0.05852805 0.00933371 0.00227770
v 0.05845690 0.00893118 0.00278044
v 0.05814708 0.00959285 0.00313929
v 0.05794547 0.00958242 0.00375039
v 0.05775127 0.00979568 0.00393781
v 0.05764009 0.00958242 0.00445209
v 0.05730507 0.00954853 0.00514136
v 0.05726356 0.00961944 0.00514136
v 0.05707826 0.00978056 0.00529858
v 0.05685442 0.00961736 0.00579954
v 0.05663058 0.00945416 0.00627119
v 0.05724281 0.00893118 0.00556416
v 0.05645269 0.00826951 0.00670198
v 0.05645121 0.00503675 0.00669487
v 0.05647937 0.00503675 0.00665757
v 0.05644824 0.00893118 0.00669665
v 0.05485911 0.01020916 0.00710790
v 0.05552026 0.01020812 0.00644706
v 0.05616510 0.01030093 0.00514136
v 0.05618289 0.01029624 0.00514136
v 0.05684404 0.01022220 0.00446275
v 0.05750519 0.01017631 0.00313929
v 0.05750519 0.01025557 0.00247755
v 0.05806110 0.01007933 0.00181582
v 0.05512446 0.00893118 0.00804587
v 0.05534385 0.00959285 0.00758577
v 0.05489320 0.00964969 0.00794373
v 0.05521044 0.00993803 0.00745875
v 0.05485911 0.01001572 0.00760798
v 0.05513039 0.00503675 0.00804499
v 0.05513187 0.00826951 0.00804943
v 0.05839167 0.00976075 0.00181582
v 0.05799142 0.01004075 0.00247755
v 0.05834424 0.00956991 0.00249088
v 0.05825677 0.00957982 0.00278044
v 0.05784615 0.00993281 0.00349635
v 0.05720872 0.00995263 0.00485535
v 0.05731545 0.00957304 0.00509517
v 0.05712422 0.00984209 0.00514136
v 0.05648530 0.00989527 0.00608200
v 0.05634596 0.00964186 0.00647371
v 0.05599315 0.00959285 0.00693292
v 0.05612063 0.00826951 0.00707681
v 0.05615769 0.00503675 0.00703240
v 0.05611767 0.00893118 0.00706971
v 0.05546838 0.01000842 0.00705639
v 0.05601093 0.01001520 0.00644706
v 0.05623181 0.01012313 0.00583151
v 0.05685146 0.01006942 0.00509517
v 0.05730211 0.01001572 0.00446275
v 0.05752150 0.01006056 0.00375039
v 0.05681440 0.01007307 0.00514136
v 0.05789951 0.00997765 0.00313929
v 0.05794992 0.01001259 0.00278044
v 0.05776906 0.01010279 0.00278044
v 0.05548172 0.00893118 0.00771545
v 0.05581229 0.00893118 0.00740013
v 0.05567443 0.00959285 0.00726334
v 0.05587159 0.00993855 0.00680057
v 0.05581526 0.00503675 0.00740457
v 0.05548913 0.00826951 0.00771901
v 0.05683515 0.01006473 0.00514136
v 0.05663799 0.01000790 0.00564143
v 0.05581970 0.00826951 0.00740635
v 0.05611915 0.00503675 0.00707504
f 1 2 5
f 1 5 10
f 1 10 17
f 1 17 16
f 1 16 29
f 1 29 41
f 1 41 73
f 1 73 118
f 1 118 163
f 1 163 166
f 1 166 133
f 1 133 91
f 1 91 47
f 1 47 32
f 1 32 21
f 1 21 18
f 1 18 11
f 1 11 7
f 1 7 3
f 1 3 4
f 1 4 2
f 2 4 6
f 2 6 5
f 3 7 4
f 4 8 9
f 4 9 6
f 4 7 8
f 5 6 10
f 6 9 10
f 7 11 8
f 8 11 12
f 8 12 13
f 8 13 20
f 8 20 30
f 8 30 43
f 8 43 61
f 8 61 34
f 8 34 23
f 8 23 14
f 8 14 9
f 9 14 27
f 9 27 15
f 9 15 16
f 9 16 17
f 9 17 10
f 11 18 19
f 11 19 12
f 12 19 13
f 13 19 18
f 13 18 21
f 13 21 22
f 13 22 33
f 13 33 60
f 13 60 104
f 13 104 153
f 13 153 193
f 13 193 192
f 13 192 222
f 13 222 243
f 13 243 238
f 13 238 208
f 13 208 175
f 13 175 131
f 13 131 130
f 13 130 89
f 13 89 45
f 13 45 31
f 13 31 20
f 14 23 24
f 14 24 25
f 14 25 38
f 14 38 26
f 14 26 39
f 14 39 27
f 15 27 39
f 15 39 28
f 15 28 16
f 16 28 29
f 20 31 44
f 20 44 88
f 20 88 66
f 20 66 37
f 20 37 65
f 20 65 64
f 20 64 63
f 20 63 107
f 20 107 106
f 20 106 74
f 20 74 42
f 20 42 30
f 21 32 33
f 21 33 22
f 23 34 24
f 24 34 35
f 24 35 36
f 24 36 25
f 25 36 37
f 25 37 66
f 25 66 38
f 26 38 39
f 28 39 40
f 28 40 29
f 29 40 41
f 30 42 43
f 31 45 46
f 31 46 44
f 32 47 48
f 32 48 49
f 32 49 33
f 33 49 50
f 33 50 51
f 33 51 52
f 33 52 53
f 33 53 54
f 33 54 55
f 33 55 56
f 33 56 57
f 33 57 58
f 33 58 59
f 33 59 60
f 34 61 62
f 34 62 35
f 35 63 64
f 35 64 36
f 35 62 63
f 36 64 65
f 36 65 37
f 38 66 67
f 38 67 68
f 38 68 39
f 39 68 69
f 39 69 70
f 39 70 40
f 40 71 72
f 40 72 73
f 40 73 41
f 40 70 71
f 42 74 61
f 42 61 43
f 44 46 75
f 44 75 76
f 44 76 77
f 44 77 78
f 44 78 79
f 44 79 80
f 44 80 81
f 44 81 82
f 44 82 83
f 44 83 84
f 44 84 85
f 44 85 86
f 44 86 87
f 44 87 88
f 45 89 46
f 46 89 90
f 46 90 75
f 47 91 92
f 47 92 93
f 47 93 48
f 48 93 94
f 48 94 49
f 49 94 50
f 50 94 51
f 51 94 52
f 52 94 95
f 52 95 53
f 53 96 97
f 53 97 54
f 53 95 96
f 54 97 55
f 55 97 98
f 55 98 56
f 56 99 100
f 56 100 57
f 56 98 99
f 57 100 58
f 58 100 101
f 58 101 102
f 58 102 59
f 59 102 60
f 60 103 104
f 60 102 105
f 60 105 103
f 61 74 106
f 61 106 62
f 62 106 107
f 62 107 63
f 66 88 67
f 67 108 109
f 67 109 68
f 67 88 87
f 67 87 108
f 68 109 110
f 68 110 111
f 68 111 69
f 69 111 70
f 70 112 71
f 70 111 113
f 70 113 114
f 70 114 112
f 71 112 115
f 71 115 116
f 71 116 72
f 72 116 117
f 72 117 118
f 72 118 73
f 75 90 119
f 75 119 76
f 76 119 120
f 76 120 77
f 77 120 78
f 78 121 122
f 78 122 79
f 78 120 121
f 79 122 123
f 79 123 80
f 80 123 124
f 80 124 81
f 81 124 125
f 81 125 82
f 82 125 126
f 82 126 127
f 82 127 83
f 83 127 84
f 84 127 128
f 84 128 129
f 84 129 85
f 85 129 86
f 86 129 108
f 86 108 87
f 89 130 90
f 90 130 131
f 90 131 132
f 90 132 119
f 91 133 134
f 91 134 92
f 92 134 135
f 92 135 136
f 92 136 93
f 93 136 94
f 94 136 95
f 95 136 137
f 95 137 138
f 95 138 96
f 96 138 139
f 96 139 97
f 97 139 140
f 97 140 98
f 98 141 99
f 98 140 141
f 99 142 100
f 99 141 142
f 100 142 143
f 100 143 101
f 101 143 144
f 101 144 145
f 101 145 146
f 101 146 147
f 101 147 102
f 102 147 148
f 102 148 149
f 102 149 105
f 103 150 104
f 103 105 149
f 103 149 148
f 103 148 151
f 103 151 152
f 103 152 150
f 104 150 153
f 108 129 154
f 108 154 109
f 109 154 155
f 109 155 156
f 109 156 110
f 110 156 157
f 110 157 111
f 111 157 113
f 112 158 159
f 112 159 160
f 112 160 115
f 112 114 161
f 112 161 158
f 113 157 114
f 114 157 161
f 115 160 116
f 116 162 117
f 116 160 162
f 117 163 118
f 117 162 164
f 117 164 165
f 117 165 166
f 117 166 163
f 119 132 167
f 119 167 120
f 120 122 121
f 120 167 168
f 120 168 169
f 120 169 170
f 120 170 122
f 122 170 171
f 122 171 123
f 123 172 124
f 123 171 173
f 123 173 172
f 124 172 128
f 124 128 126
f 124 126 125
f 126 128 127
f 128 172 174
f 128 174 155
f 128 155 129
f 129 155 154
f 131 175 132
f 132 175 176
f 132 176 167
f 133 166 134
f 134 166 165
f 134 165 135
f 135 177 136
f 135 165 178
f 135 178 177
f 136 177 137
f 137 177 179
f 137 179 138
f 138 179 139
f 139 179 180
f 139 180 140
f 140 180 141
f 141 180 179
f 141 179 144
f 141 144 142
f 142 144 143
f 144 179 181
f 144 181 182
f 144 182 183
f 144 183 184
f 144 184 185
f 144 185 145
f 145 185 186
f 145 186 187
f 145 187 188
f 145 188 189
f 145 189 152
f 145 152 151
f 145 151 190
f 145 190 146
f 146 190 147
f 147 190 148
f 148 190 151
f 150 191 192
f 150 192 193
f 150 193 153
f 150 152 191
f 152 189 194
f 152 194 191
f 155 174 195
f 155 195 156
f 156 195 157
f 157 195 196
f 157 196 161
f 158 161 197
f 158 197 196
f 158 196 198
f 158 198 199
f 158 199 159
f 159 199 200
f 159 200 201
f 159 201 162
f 159 162 160
f 161 196 197
f 162 201 202
f 162 202 164
f 164 202 165
f 165 202 178
f 167 176 168
f 168 176 203
f 168 203 169
f 169 203 204
f 169 204 205
f 169 205 171
f 169 171 170
f 171 205 206
f 171 206 207
f 171 207 173
f 172 173 174
f 173 207 174
f 174 207 195
f 175 208 209
f 175 209 176
f 176 209 203
f 177 178 210
f 177 210 179
f 178 202 211
f 178 211 210
f 179 210 212
f 179 212 213
f 179 213 181
f 181 214 182
f 181 213 214
f 182 214 183
f 183 214 215
f 183 215 184
f 184 215 216
f 184 216 185
f 185 216 186
f 186 216 215
f 186 215 187
f 187 215 217
f 187 217 218
f 187 218 188
f 188 218 189
f 189 218 219
f 189 219 220
f 189 220 194
f 191 194 221
f 191 221 222
f 191 222 192
f 194 220 223
f 194 223 221
f 195 207 224
f 195 224 196
f 196 224 225
f 196 225 226
f 196 226 198
f 198 226 199
f 199 227 228
f 199 228 229
f 199 229 200
f 199 226 230
f 199 230 227
f 200 229 231
f 200 231 232
f 200 232 233
f 200 233 201
f 201 233 211
f 201 211 202
f 203 209 239
f 203 239 234
f 203 234 204
f 204 234 235
f 204 235 236
f 204 236 206
f 204 206 205
f 206 236 237
f 206 237 224
f 206 224 207
f 208 238 239
f 208 239 209
f 210 211 232
f 210 232 231
f 210 231 214
f 210 214 212
f 211 233 232
f 212 214 213
f 214 229 228
f 214 228 215
f 214 231 229
f 215 227 240
f 215 240 241
f 215 241 218
f 215 218 217
f 215 228 227
f 218 241 237
f 218 237 219
f 219 237 220
f 220 237 236
f 220 236 235
f 220 235 223
f 221 223 242
f 221 242 243
f 221 243 222
f 223 235 242
f 224 237 225
f 225 237 241
f 225 241 226
f 226 241 240
f 226 240 230
f 227 230 240
f 234 239 242
f 234 242 235
f 238 243 242
f 238 242 239

