# https://github.com/mikedh/trimesh
v 0.04763358 0.00227654 0.00684676
v 0.04733499 0.00227654 0.00716373
v 0.04768072 0.00202881 0.00692428
v 0.04770822 0.00210057 0.00684676
v 0.00991297 0.00227654 0.00684676
v 0.04724855 0.00227654 0.00725503
v 0.04774358 0.00164639 0.00699979
v 0.04784573 0.00170292 0.00684676
v 0.04776323 0.00195704 0.00684676
v 0.04710711 0.00204306 0.00750567
v 0.04718176 0.00166064 0.00757716
v 0.04754322 0.00123300 0.00736183
v 0.00963402 -0.00274503 0.00684676
v 0.00841216 -0.00223678 0.00977954
v 0.00845538 -0.00170444 0.00977954
v 0.00904077 0.00171815 0.00977954
v 0.00911935 0.00193640 0.00977954
v 0.00928436 0.00227654 0.00977954
v 0.04705211 0.00227654 0.00745284
v 0.04781037 0.00123300 0.00707473
v 0.04799503 0.00123300 0.00684676
v 0.04676138 0.00227654 0.00771009
v 0.04649815 0.00196638 0.00805203
v 0.04658065 0.00158396 0.00812352
v 0.04665530 0.00123300 0.00818439
v 0.04694211 0.00123300 0.00793432
v 0.04725641 0.00123300 0.00764721
v 0.04763358 0.00065938 0.00745658
v 0.00841216 -0.00274503 0.00977954
v 0.04854114 -0.00274503 0.00684676
v 0.04338259 0.00227654 0.00977954
v 0.04788895 0.00065938 0.00716947
v 0.04815611 0.00065938 0.00684676
v 0.04667887 0.00227654 0.00777899
v 0.04641957 0.00227654 0.00799346
v 0.04613670 0.00227654 0.00821223
v 0.04628992 0.00178795 0.00828028
v 0.04623885 0.00124677 0.00849905
v 0.04639207 0.00065938 0.00855504
v 0.04675745 0.00065938 0.00826822
v 0.04704425 0.00065938 0.00802217
v 0.04734677 0.00065938 0.00773507
v 0.04768465 0.00029613 0.00750883
v 0.04710319 0.00028925 0.00807701
v 0.04539415 -0.00274503 0.00977954
v 0.04854114 -0.00221024 0.00684676
v 0.04839970 -0.00274503 0.00706037
v 0.04357118 0.00203176 0.00977954
v 0.04346117 0.00227654 0.00974853
v 0.04827790 -0.00019197 0.00695443
v 0.04823469 0.00019045 0.00689442
v 0.04825433 0.00025238 0.00684676
v 0.04571238 0.00227654 0.00852547
v 0.04586168 0.00180712 0.00859437
v 0.04594811 0.00144731 0.00865294
v 0.04602669 0.00106440 0.00870663
v 0.04610527 0.00065938 0.00876348
v 0.04619956 0.00008526 0.00883669
v 0.04648636 0.00008526 0.00862279
v 0.04688317 0.00009263 0.00830526
v 0.04715819 -0.00009366 0.00812696
v 0.04772787 -0.00008629 0.00755132
v 0.04572024 -0.00274503 0.00957569
v 0.04569274 -0.00221024 0.00954497
v 0.04531164 -0.00221024 0.00977954
v 0.04852935 -0.00188484 0.00684676
v 0.04838005 -0.00221024 0.00708535
v 0.04838005 -0.00274503 0.00708937
v 0.04360654 0.00198506 0.00977954
v 0.04387763 0.00227654 0.00956048
v 0.04805396 -0.00048837 0.00727312
v 0.04830148 -0.00048837 0.00698630
v 0.04839970 -0.00048837 0.00684676
v 0.04833684 -0.00010104 0.00684676
v 0.04827790 0.00015456 0.00684676
v 0.04553559 0.00227654 0.00864662
v 0.04547273 0.00221756 0.00871409
v 0.04557488 0.00180712 0.00878156
v 0.04526843 0.00123300 0.00916255
v 0.04536272 0.00083731 0.00922227
v 0.04565345 0.00065151 0.00907470
v 0.04578703 0.00008526 0.00912379
v 0.04631349 -0.00046429 0.00886798
v 0.04653744 -0.00025686 0.00866155
v 0.04587739 -0.00048837 0.00918179
v 0.04658851 -0.00063927 0.00870290
v 0.04720141 -0.00048837 0.00816400
v 0.04748821 -0.00048837 0.00788235
v 0.04776716 -0.00048837 0.00759553
v 0.04609348 -0.00274503 0.00932936
v 0.04606205 -0.00221024 0.00930553
v 0.04601490 -0.00163612 0.00927108
v 0.04569274 -0.00163612 0.00947894
v 0.04526057 -0.00163612 0.00974222
v 0.04521735 -0.00174868 0.00977954
v 0.04851756 -0.00163612 0.00684676
v 0.04836434 -0.00163612 0.00706726
v 0.04815218 -0.00221024 0.00737245
v 0.04817575 -0.00274503 0.00735666
v 0.04362225 0.00196196 0.00977954
v 0.04394049 0.00179336 0.00968738
v 0.04400728 0.00227654 0.00950105
v 0.04810111 -0.00106249 0.00732135
v 0.04781430 -0.00106249 0.00764951
v 0.04834076 -0.00106249 0.00703424
v 0.04843506 -0.00077101 0.00684676
v 0.04536665 0.00227654 0.00875630
v 0.04503663 0.00227654 0.00895440
v 0.04476947 0.00199342 0.00921308
v 0.04488340 0.00161100 0.00927797
v 0.04498162 0.00123300 0.00932965
v 0.04515056 0.00065151 0.00938104
v 0.04511913 0.00008526 0.00952459
v 0.04543737 0.00045489 0.00926562
v 0.04550023 0.00008526 0.00930438
v 0.04621134 -0.00110476 0.00905431
v 0.04559059 -0.00048837 0.00936209
v 0.04572417 -0.00110476 0.00938276
v 0.04593633 -0.00094206 0.00922026
v 0.04663566 -0.00106249 0.00873936
v 0.04692246 -0.00106249 0.00849733
v 0.04725248 -0.00106249 0.00821080
v 0.04753929 -0.00106249 0.00793633
v 0.04611312 -0.00274503 0.00931500
v 0.04634885 -0.00221024 0.00909508
v 0.04630171 -0.00163612 0.00906637
v 0.04598740 -0.00132497 0.00925155
v 0.04518985 -0.00106249 0.00970058
v 0.04519378 -0.00163612 0.00977954
v 0.04849399 -0.00132202 0.00684676
v 0.04813254 -0.00163612 0.00735437
v 0.04816004 -0.00274503 0.00737619
v 0.04786538 -0.00221024 0.00771181
v 0.04787324 -0.00274503 0.00772272
v 0.04789288 -0.00274503 0.00769947
v 0.04381476 0.00167391 0.00977954
v 0.04389727 0.00154120 0.00977954
v 0.04408585 0.00123300 0.00977954
v 0.04412514 0.00123300 0.00976088
v 0.04456517 0.00180417 0.00938190
v 0.04438051 0.00227654 0.00932247
v 0.04784573 -0.00163612 0.00768655
v 0.04757857 -0.00163612 0.00797365
v 0.04847042 -0.00106249 0.00684676
v 0.04463982 0.00227654 0.00918121
v 0.04454552 0.00123300 0.00955588
v 0.04452588 0.00068199 0.00970604
v 0.04470268 0.00008526 0.00975456
v 0.04507199 -0.00050803 0.00966986
v 0.04480875 -0.00030159 0.00977954
v 0.04482840 -0.00035565 0.00977954
v 0.04668673 -0.00163612 0.00877955
v 0.04697354 -0.00163612 0.00853666
v 0.04729177 -0.00163612 0.00825013
v 0.04638028 -0.00274503 0.00911317
v 0.04671816 -0.00221024 0.00880826
v 0.04492269 -0.00064615 0.00977954
v 0.04504448 -0.00106249 0.00977954
v 0.04760215 -0.00221024 0.00799863
v 0.04763358 -0.00274503 0.00799002
v 0.04416836 0.00109390 0.00977954
v 0.04731534 -0.00221024 0.00827884
v 0.04426265 0.00092628 0.00977954
v 0.04430979 0.00083240 0.00977954
v 0.04442373 0.00059449 0.00977954
v 0.04465160 0.00008526 0.00977954
v 0.04474982 -0.00015216 0.00977954
v 0.04700889 -0.00221024 0.00856566
v 0.04674173 -0.00274503 0.00882606
v 0.04761393 -0.00274503 0.00800983
v 0.04732713 -0.00274503 0.00829750
v 0.04734677 -0.00274503 0.00827827
v 0.04702854 -0.00274503 0.00858432
f 1 2 3
f 1 3 4
f 1 4 9
f 1 9 8
f 1 8 21
f 1 21 33
f 1 33 52
f 1 52 75
f 1 75 74
f 1 74 73
f 1 73 106
f 1 106 144
f 1 144 130
f 1 130 96
f 1 96 66
f 1 66 46
f 1 46 30
f 1 30 13
f 1 13 5
f 1 5 18
f 1 18 31
f 1 31 49
f 1 49 70
f 1 70 102
f 1 102 141
f 1 141 145
f 1 145 108
f 1 108 107
f 1 107 76
f 1 76 53
f 1 53 36
f 1 36 35
f 1 35 34
f 1 34 22
f 1 22 19
f 1 19 6
f 1 6 2
f 2 6 3
f 3 7 8
f 3 8 9
f 3 9 4
f 3 6 10
f 3 10 11
f 3 11 12
f 3 12 7
f 5 13 14
f 5 14 15
f 5 15 16
f 5 16 17
f 5 17 18
f 6 19 10
f 7 20 21
f 7 21 8
f 7 12 20
f 10 19 22
f 10 22 23
f 10 23 24
f 10 24 25
f 10 25 11
f 11 25 26
f 11 26 27
f 11 27 12
f 12 27 28
f 12 28 20
f 13 29 14
f 13 30 47
f 13 47 68
f 13 68 99
f 13 99 132
f 13 132 135
f 13 135 134
f 13 134 160
f 13 160 170
f 13 170 172
f 13 172 171
f 13 171 173
f 13 173 169
f 13 169 155
f 13 155 124
f 13 124 90
f 13 90 63
f 13 63 45
f 13 45 29
f 14 29 45
f 14 45 65
f 14 65 95
f 14 95 129
f 14 129 158
f 14 158 157
f 14 157 151
f 14 151 150
f 14 150 167
f 14 167 166
f 14 166 165
f 14 165 164
f 14 164 163
f 14 163 161
f 14 161 138
f 14 138 137
f 14 137 136
f 14 136 100
f 14 100 69
f 14 69 48
f 14 48 31
f 14 31 18
f 14 18 17
f 14 17 16
f 14 16 15
f 20 32 33
f 20 33 21
f 20 28 32
f 22 34 23
f 23 34 35
f 23 35 36
f 23 36 37
f 23 37 24
f 24 37 25
f 25 37 38
f 25 38 39
f 25 39 40
f 25 40 41
f 25 41 26
f 26 41 27
f 27 42 28
f 27 41 42
f 28 43 32
f 28 42 44
f 28 44 43
f 30 46 47
f 31 48 49
f 32 43 50
f 32 50 51
f 32 51 33
f 33 51 52
f 36 53 54
f 36 54 37
f 37 54 55
f 37 55 38
f 38 55 56
f 38 56 39
f 39 56 57
f 39 57 58
f 39 58 59
f 39 59 40
f 40 59 60
f 40 60 61
f 40 61 44
f 40 44 41
f 41 44 42
f 43 62 50
f 43 44 61
f 43 61 62
f 45 63 64
f 45 64 65
f 46 66 67
f 46 67 47
f 47 67 68
f 48 69 49
f 49 69 70
f 50 62 71
f 50 71 72
f 50 72 73
f 50 73 74
f 50 74 51
f 51 74 75
f 51 75 52
f 53 76 77
f 53 77 54
f 54 77 78
f 54 78 55
f 55 78 79
f 55 79 80
f 55 80 56
f 56 80 81
f 56 81 57
f 57 81 82
f 57 82 58
f 58 83 84
f 58 84 59
f 58 82 85
f 58 85 83
f 59 84 60
f 60 84 61
f 61 84 86
f 61 86 87
f 61 87 88
f 61 88 62
f 62 89 71
f 62 88 89
f 63 90 91
f 63 91 64
f 64 91 92
f 64 92 93
f 64 93 65
f 65 94 95
f 65 93 94
f 66 96 67
f 67 97 98
f 67 98 99
f 67 99 68
f 67 96 97
f 69 100 101
f 69 101 102
f 69 102 70
f 71 103 72
f 71 89 104
f 71 104 103
f 72 103 105
f 72 105 73
f 73 105 106
f 76 107 77
f 77 107 108
f 77 108 109
f 77 109 110
f 77 110 79
f 77 79 78
f 79 110 80
f 80 110 111
f 80 111 112
f 80 112 113
f 80 113 114
f 80 114 82
f 80 82 81
f 82 114 115
f 82 115 85
f 83 85 116
f 83 116 86
f 83 86 84
f 85 115 117
f 85 117 118
f 85 118 119
f 85 119 116
f 86 116 120
f 86 120 87
f 87 120 121
f 87 121 122
f 87 122 123
f 87 123 88
f 88 123 89
f 89 123 104
f 90 124 91
f 91 124 125
f 91 125 126
f 91 126 92
f 92 127 93
f 92 126 127
f 93 127 118
f 93 118 94
f 94 128 129
f 94 129 95
f 94 118 128
f 96 130 97
f 97 130 105
f 97 105 131
f 97 131 98
f 98 132 99
f 98 131 133
f 98 133 134
f 98 134 135
f 98 135 132
f 100 136 101
f 101 136 137
f 101 137 138
f 101 138 139
f 101 139 140
f 101 140 141
f 101 141 102
f 103 104 142
f 103 142 131
f 103 131 105
f 104 123 143
f 104 143 142
f 105 130 144
f 105 144 106
f 108 145 109
f 109 145 141
f 109 141 140
f 109 140 110
f 110 140 146
f 110 146 111
f 111 146 147
f 111 147 112
f 112 147 148
f 112 148 113
f 113 149 115
f 113 115 114
f 113 148 150
f 113 150 151
f 113 151 149
f 115 149 117
f 116 119 127
f 116 127 120
f 117 149 128
f 117 128 118
f 118 127 119
f 120 127 126
f 120 126 152
f 120 152 121
f 121 153 122
f 121 152 153
f 122 154 123
f 122 153 154
f 123 154 143
f 124 155 125
f 125 155 156
f 125 156 152
f 125 152 126
f 128 149 157
f 128 157 158
f 128 158 129
f 131 142 133
f 133 142 159
f 133 159 160
f 133 160 134
f 138 161 139
f 139 161 146
f 139 146 140
f 142 143 159
f 143 154 162
f 143 162 159
f 146 161 163
f 146 163 164
f 146 164 147
f 147 164 165
f 147 165 148
f 148 166 167
f 148 167 150
f 148 165 166
f 149 151 157
f 152 156 168
f 152 168 153
f 153 168 154
f 154 168 162
f 155 169 156
f 156 169 168
f 159 170 160
f 159 162 171
f 159 171 172
f 159 172 170
f 162 168 173
f 162 173 171
f 168 169 173

